<?xml version="1.0" encoding="UTF-8" standalone="no"?>
<!DOCTYPE svg PUBLIC "-//W3C//DTD SVG 1.1//EN"
 "http://www.w3.org/Graphics/SVG/1.1/DTD/svg11.dtd">
<!-- Generated by graphviz version 5.0.0 (0)
 -->
<!-- Title: svg::text_element::add_data Pages: 1 -->
<svg width="364pt" height="176pt"
 viewBox="0.00 0.00 364.00 176.00" xmlns="http://www.w3.org/2000/svg" xmlns:xlink="http://www.w3.org/1999/xlink">
<g id="graph0" class="graph" transform="scale(1 1) rotate(0) translate(4 172)">
<title>svg::text_element::add_data</title>
<!-- Node1 -->
<g id="node1" class="node">
<title>Node1</title>
<g id="a_node1"><a xlink:title="Either serialize immediately (as below), or create data structure that adds data to data_vec and then...">
<polygon fill="#999999" stroke="#666666" points="89,-57.5 0,-57.5 0,-31.5 89,-31.5 89,-57.5"/>
<text text-anchor="start" x="8" y="-47.1" font-family="SourceSans" font-size="8.00">svg::text_element::</text>
<text text-anchor="middle" x="44.5" y="-38.1" font-family="SourceSans" font-size="8.00">add_data</text>
</a>
</g>
</g>
<!-- Node2 -->
<g id="node2" class="node">
<title>Node2</title>
<g id="a_node2"><a xlink:href="structsvg_1_1typography.html#adbc62f74f1fed3f7c77567250f084f83" target="_top" xlink:title=" ">
<polygon fill="white" stroke="#666666" points="222,-98.5 125,-98.5 125,-72.5 222,-72.5 222,-98.5"/>
<text text-anchor="start" x="133" y="-88.1" font-family="SourceSans" font-size="8.00">svg::typography::add</text>
<text text-anchor="middle" x="173.5" y="-79.1" font-family="SourceSans" font-size="8.00">_attribute</text>
</a>
</g>
</g>
<!-- Node1&#45;&gt;Node2 -->
<g id="edge1" class="edge">
<title>Node1&#45;&gt;Node2</title>
<path fill="none" stroke="#63b8ff" d="M86.03,-57.59C97.49,-61.28 110.1,-65.35 122.06,-69.22"/>
<polygon fill="#63b8ff" stroke="#63b8ff" points="121.33,-72.66 131.92,-72.4 123.48,-66 121.33,-72.66"/>
</g>
<!-- Node5 -->
<g id="node5" class="node">
<title>Node5</title>
<g id="a_node5"><a xlink:href="namespacesvg.html#a48ac748e89e22789d1772326a98dd7b6" target="_top" xlink:title=" ">
<polygon fill="white" stroke="#666666" points="351,-53 263,-53 263,-36 351,-36 351,-53"/>
<text text-anchor="middle" x="307" y="-42.6" font-family="SourceSans" font-size="8.00">svg::string_replace</text>
</a>
</g>
</g>
<!-- Node1&#45;&gt;Node5 -->
<g id="edge7" class="edge">
<title>Node1&#45;&gt;Node5</title>
<path fill="none" stroke="#63b8ff" d="M89.1,-44.5C134.04,-44.5 204.15,-44.5 252.43,-44.5"/>
<polygon fill="#63b8ff" stroke="#63b8ff" points="252.69,-48 262.69,-44.5 252.69,-41 252.69,-48"/>
</g>
<!-- Node7 -->
<g id="node7" class="node">
<title>Node7</title>
<g id="a_node7"><a xlink:href="namespacesvg.html#a36b1c48ad4601b205790e3772ad0a7b6" target="_top" xlink:title=" ">
<polygon fill="white" stroke="#666666" points="341,-17 273,-17 273,0 341,0 341,-17"/>
<text text-anchor="middle" x="307" y="-6.6" font-family="SourceSans" font-size="8.00">svg::to_string</text>
</a>
</g>
</g>
<!-- Node1&#45;&gt;Node7 -->
<g id="edge8" class="edge">
<title>Node1&#45;&gt;Node7</title>
<path fill="none" stroke="#63b8ff" d="M89.1,-38.47C137.27,-31.82 214.39,-21.16 262.51,-14.51"/>
<polygon fill="#63b8ff" stroke="#63b8ff" points="263.19,-17.95 272.62,-13.11 262.23,-11.02 263.19,-17.95"/>
</g>
<!-- Node3 -->
<g id="node3" class="node">
<title>Node3</title>
<g id="a_node3"><a xlink:href="namespacesvg_1_1constants.html#a3972655f1dfdc090ec2592d1fb37e87c" target="_top" xlink:title=" ">
<polygon fill="white" stroke="#666666" points="356,-168 258,-168 258,-151 356,-151 356,-168"/>
<text text-anchor="middle" x="307" y="-157.6" font-family="SourceSans" font-size="8.00">svg::constants::quote</text>
</a>
</g>
</g>
<!-- Node2&#45;&gt;Node3 -->
<g id="edge2" class="edge">
<title>Node2&#45;&gt;Node3</title>
<path fill="none" stroke="#63b8ff" d="M190.97,-98.65C207.26,-111.18 233.27,-129.95 258,-142.5 261.35,-144.2 264.91,-145.8 268.52,-147.3"/>
<polygon fill="#63b8ff" stroke="#63b8ff" points="267.49,-150.65 278.08,-150.98 270,-144.12 267.49,-150.65"/>
</g>
<!-- Node4 -->
<g id="node4" class="node">
<title>Node4</title>
<g id="a_node4"><a xlink:href="namespacesvg_1_1constants.html#ac460bc8db60d85c3ae1cf8b1a903405e" target="_top" xlink:title="Formatting character constants.">
<polygon fill="white" stroke="#666666" points="355.5,-133 258.5,-133 258.5,-116 355.5,-116 355.5,-133"/>
<text text-anchor="middle" x="307" y="-122.6" font-family="SourceSans" font-size="8.00">svg::constants::space</text>
</a>
</g>
</g>
<!-- Node2&#45;&gt;Node4 -->
<g id="edge3" class="edge">
<title>Node2&#45;&gt;Node4</title>
<path fill="none" stroke="#63b8ff" d="M218.65,-98.59C234.44,-103.28 252.11,-108.52 267.39,-113.05"/>
<polygon fill="#63b8ff" stroke="#63b8ff" points="266.47,-116.43 277.05,-115.91 268.46,-109.72 266.47,-116.43"/>
</g>
<!-- Node2&#45;&gt;Node5 -->
<g id="edge4" class="edge">
<title>Node2&#45;&gt;Node5</title>
<path fill="none" stroke="#63b8ff" d="M216.47,-72.41C233.28,-67.17 252.48,-61.19 268.78,-56.11"/>
<polygon fill="#63b8ff" stroke="#63b8ff" points="270,-59.39 278.5,-53.07 267.92,-52.71 270,-59.39"/>
</g>
<!-- Node6 -->
<g id="node6" class="node">
<title>Node6</title>
<g id="a_node6"><a xlink:href="structsvg_1_1typography.html#a174c1ffb4e56214d71523ffe7e422561" target="_top" xlink:title=" ">
<polygon fill="white" stroke="#666666" points="351.5,-97.5 262.5,-97.5 262.5,-71.5 351.5,-71.5 351.5,-97.5"/>
<text text-anchor="start" x="270.5" y="-87.1" font-family="SourceSans" font-size="8.00">svg::typography::to</text>
<text text-anchor="middle" x="307" y="-78.1" font-family="SourceSans" font-size="8.00">_string</text>
</a>
</g>
</g>
<!-- Node2&#45;&gt;Node6 -->
<g id="edge5" class="edge">
<title>Node2&#45;&gt;Node6</title>
<path fill="none" stroke="#63b8ff" d="M222.35,-85.14C232.05,-85.06 242.31,-84.98 252.2,-84.91"/>
<polygon fill="#63b8ff" stroke="#63b8ff" points="252.36,-88.41 262.34,-84.83 252.31,-81.41 252.36,-88.41"/>
</g>
<!-- Node2&#45;&gt;Node7 -->
<g id="edge6" class="edge">
<title>Node2&#45;&gt;Node7</title>
<path fill="none" stroke="#63b8ff" d="M190.33,-72.44C206.56,-59.51 232.9,-39.79 258,-26.5 261.8,-24.49 265.89,-22.59 270,-20.84"/>
<polygon fill="#63b8ff" stroke="#63b8ff" points="271.57,-23.98 279.56,-17.03 268.97,-17.48 271.57,-23.98"/>
</g>
</g>
</svg>
