<?xml version="1.0" encoding="UTF-8" standalone="no"?>
<!DOCTYPE svg PUBLIC "-//W3C//DTD SVG 1.1//EN"
 "http://www.w3.org/Graphics/SVG/1.1/DTD/svg11.dtd">
<!-- Generated by graphviz version 5.0.0 (0)
 -->
<!-- Title: svg::adjust_angle_at_orbit_for_distance Pages: 1 -->
<svg width="383pt" height="105pt"
 viewBox="0.00 0.00 383.00 105.00" xmlns="http://www.w3.org/2000/svg" xmlns:xlink="http://www.w3.org/1999/xlink">
<g id="graph0" class="graph" transform="scale(1 1) rotate(0) translate(4 101)">
<title>svg::adjust_angle_at_orbit_for_distance</title>
<!-- Node1 -->
<g id="node1" class="node">
<title>Node1</title>
<g id="a_node1"><a xlink:title=" ">
<polygon fill="#999999" stroke="#666666" points="95,-61.5 0,-61.5 0,-35.5 95,-35.5 95,-61.5"/>
<text text-anchor="start" x="8" y="-51.1" font-family="SourceSans" font-size="8.00">svg::adjust_angle_at</text>
<text text-anchor="middle" x="47.5" y="-42.1" font-family="SourceSans" font-size="8.00">_orbit_for_distance</text>
</a>
</g>
</g>
<!-- Node2 -->
<g id="node2" class="node">
<title>Node2</title>
<g id="a_node2"><a xlink:href="namespacesvg.html#ad731faf1d114f53f85c018df27e301e2" target="_top" xlink:title="Find cartesian distance between two 2D points.">
<polygon fill="white" stroke="#666666" points="235,-97 131,-97 131,-80 235,-80 235,-97"/>
<text text-anchor="middle" x="183" y="-86.6" font-family="SourceSans" font-size="8.00">svg::distance_cartesian</text>
</a>
</g>
</g>
<!-- Node1&#45;&gt;Node2 -->
<g id="edge1" class="edge">
<title>Node1&#45;&gt;Node2</title>
<path fill="none" stroke="#63b8ff" d="M92.21,-61.6C108.84,-66.58 127.64,-72.21 143.72,-77.03"/>
<polygon fill="#63b8ff" stroke="#63b8ff" points="142.76,-80.4 153.34,-79.91 144.77,-73.69 142.76,-80.4"/>
</g>
<!-- Node3 -->
<g id="node3" class="node">
<title>Node3</title>
<g id="a_node3"><a xlink:href="namespacesvg.html#ab44508c4aeca591141ebec50145b75cd" target="_top" xlink:title="Angle in degrees.">
<polygon fill="white" stroke="#666666" points="235,-61.5 131,-61.5 131,-35.5 235,-35.5 235,-61.5"/>
<text text-anchor="start" x="139" y="-51.1" font-family="SourceSans" font-size="8.00">svg::get_circumference</text>
<text text-anchor="middle" x="183" y="-42.1" font-family="SourceSans" font-size="8.00">_point_d</text>
</a>
</g>
</g>
<!-- Node1&#45;&gt;Node3 -->
<g id="edge2" class="edge">
<title>Node1&#45;&gt;Node3</title>
<path fill="none" stroke="#63b8ff" d="M95.19,-48.5C103.32,-48.5 111.88,-48.5 120.33,-48.5"/>
<polygon fill="#63b8ff" stroke="#63b8ff" points="120.55,-52 130.55,-48.5 120.55,-45 120.55,-52"/>
</g>
<!-- Node5 -->
<g id="node5" class="node">
<title>Node5</title>
<g id="a_node5"><a xlink:href="namespacesvg_1_1constants.html#a0e0b0d9314bc47324ee39884bf8bb2fd" target="_top" xlink:title=" ">
<polygon fill="white" stroke="#666666" points="364.5,-17 281.5,-17 281.5,0 364.5,0 364.5,-17"/>
<text text-anchor="middle" x="323" y="-6.6" font-family="SourceSans" font-size="8.00">svg::constants::pi</text>
</a>
</g>
</g>
<!-- Node1&#45;&gt;Node5 -->
<g id="edge5" class="edge">
<title>Node1&#45;&gt;Node5</title>
<path fill="none" stroke="#63b8ff" d="M91.87,-35.48C104.4,-32.12 118.16,-28.8 131,-26.5 178.05,-18.07 232.37,-13.44 271.02,-10.99"/>
<polygon fill="#63b8ff" stroke="#63b8ff" points="271.72,-14.45 281.49,-10.36 271.3,-7.47 271.72,-14.45"/>
</g>
<!-- Node4 -->
<g id="node4" class="node">
<title>Node4</title>
<g id="a_node4"><a xlink:href="namespacesvg.html#aef05ac63d88a6102981d3faf37275297" target="_top" xlink:title="Angle in radians.">
<polygon fill="white" stroke="#666666" points="375,-61.5 271,-61.5 271,-35.5 375,-35.5 375,-61.5"/>
<text text-anchor="start" x="279" y="-51.1" font-family="SourceSans" font-size="8.00">svg::get_circumference</text>
<text text-anchor="middle" x="323" y="-42.1" font-family="SourceSans" font-size="8.00">_point_r</text>
</a>
</g>
</g>
<!-- Node3&#45;&gt;Node4 -->
<g id="edge3" class="edge">
<title>Node3&#45;&gt;Node4</title>
<path fill="none" stroke="#63b8ff" d="M235.39,-48.5C243.56,-48.5 252.08,-48.5 260.46,-48.5"/>
<polygon fill="#63b8ff" stroke="#63b8ff" points="260.57,-52 270.57,-48.5 260.57,-45 260.57,-52"/>
</g>
<!-- Node3&#45;&gt;Node5 -->
<g id="edge4" class="edge">
<title>Node3&#45;&gt;Node5</title>
<path fill="none" stroke="#63b8ff" d="M229.19,-35.4C246.37,-30.42 265.8,-24.79 282.43,-19.97"/>
<polygon fill="#63b8ff" stroke="#63b8ff" points="283.74,-23.23 292.37,-17.09 281.8,-16.51 283.74,-23.23"/>
</g>
</g>
</svg>
