<?xml version="1.0" encoding="UTF-8" standalone="no"?>
<!DOCTYPE svg PUBLIC "-//W3C//DTD SVG 1.1//EN"
 "http://www.w3.org/Graphics/SVG/1.1/DTD/svg11.dtd">
<!-- Generated by graphviz version 5.0.0 (0)
 -->
<!-- Title: svg::traverse_states Pages: 1 -->
<svg width="344pt" height="34pt"
 viewBox="0.00 0.00 344.00 34.00" xmlns="http://www.w3.org/2000/svg" xmlns:xlink="http://www.w3.org/1999/xlink">
<g id="graph0" class="graph" transform="scale(1 1) rotate(0) translate(4 30)">
<title>svg::traverse_states</title>
<!-- Node1 -->
<g id="node1" class="node">
<title>Node1</title>
<g id="a_node1"><a xlink:title="Roll through render states given in values squentially, index starts with zero.">
<polygon fill="#999999" stroke="#666666" points="90,-21.5 0,-21.5 0,-4.5 90,-4.5 90,-21.5"/>
<text text-anchor="middle" x="45" y="-11.1" font-family="SourceSans" font-size="8.00">svg::traverse_states</text>
</a>
</g>
</g>
<!-- Node2 -->
<g id="node2" class="node">
<title>Node2</title>
<g id="a_node2"><a xlink:href="namespacesvg.html#a806415593163e75c9587c2a987dd5112" target="_top" xlink:title="Given identifier/name/id, get corresponding id_render_state from cache.">
<polygon fill="white" stroke="#666666" points="213,-26 126,-26 126,0 213,0 213,-26"/>
<text text-anchor="start" x="134" y="-15.6" font-family="SourceSans" font-size="8.00">svg::get_id_render</text>
<text text-anchor="middle" x="169.5" y="-6.6" font-family="SourceSans" font-size="8.00">_state</text>
</a>
</g>
</g>
<!-- Node1&#45;&gt;Node2 -->
<g id="edge1" class="edge">
<title>Node1&#45;&gt;Node2</title>
<path fill="none" stroke="#63b8ff" d="M90.23,-13C98.51,-13 107.24,-13 115.75,-13"/>
<polygon fill="#63b8ff" stroke="#63b8ff" points="115.98,-16.5 125.98,-13 115.98,-9.5 115.98,-16.5"/>
</g>
<!-- Node3 -->
<g id="node3" class="node">
<title>Node3</title>
<g id="a_node3"><a xlink:href="namespacesvg.html#abcde0ef18f90817cb5cb7147211fef05" target="_top" xlink:title=" ">
<polygon fill="white" stroke="#666666" points="336,-26 249,-26 249,0 336,0 336,-26"/>
<text text-anchor="start" x="257" y="-15.6" font-family="SourceSans" font-size="8.00">svg::get_id_render</text>
<text text-anchor="middle" x="292.5" y="-6.6" font-family="SourceSans" font-size="8.00">_state_cache</text>
</a>
</g>
</g>
<!-- Node2&#45;&gt;Node3 -->
<g id="edge2" class="edge">
<title>Node2&#45;&gt;Node3</title>
<path fill="none" stroke="#63b8ff" d="M213.16,-13C221.38,-13 230.09,-13 238.59,-13"/>
<polygon fill="#63b8ff" stroke="#63b8ff" points="238.82,-16.5 248.82,-13 238.82,-9.5 238.82,-16.5"/>
</g>
</g>
</svg>
