<?xml version="1.0" encoding="UTF-8" standalone="no"?>
<!DOCTYPE svg PUBLIC "-//W3C//DTD SVG 1.1//EN"
 "http://www.w3.org/Graphics/SVG/1.1/DTD/svg11.dtd">
<!-- Generated by graphviz version 5.0.0 (0)
 -->
<!-- Title: svg::radiate_glyph_and_id Pages: 1 -->
<!--zoomable 629 -->
<svg id="main" version="1.1" xmlns="http://www.w3.org/2000/svg" xmlns:xlink="http://www.w3.org/1999/xlink" xml:space="preserve" onload="init(evt)">
<style type="text/css"><![CDATA[
.edge:hover path { stroke: red; }
.edge:hover polygon { stroke: red; fill: red; }
]]></style>
<script type="text/javascript"><![CDATA[
var edges = document.getElementsByTagName('g');
if (edges && edges.length) {
  for (var i=0;i<edges.length;i++) {
    if (edges[i].id.substr(0,4)=='edge') {
      edges[i].setAttribute('class','edge');
    }
  }
}
]]></script>
        <defs>
                <circle id="rim" cx="0" cy="0" r="7"/>
                <circle id="rim2" cx="0" cy="0" r="3.5"/>
                <g id="zoomPlus">
                        <use xlink:href="#rim" fill="#404040">
                                <set attributeName="fill" to="#808080" begin="zoomplus.mouseover" end="zoomplus.mouseout"/>
                        </use>
                        <path d="M-4,0h8M0,-4v8" fill="none" stroke="white" stroke-width="1.5" pointer-events="none"/>
                </g>
                <g id="zoomMin">
                        <use xlink:href="#rim" fill="#404040">
                                <set attributeName="fill" to="#808080" begin="zoomminus.mouseover" end="zoomminus.mouseout"/>
                        </use>
                        <path d="M-4,0h8" fill="none" stroke="white" stroke-width="1.5" pointer-events="none"/>
                </g>
                <g id="dirArrow">
                        <path fill="none" stroke="white" stroke-width="1.5" d="M0,-3.0v7 M-2.5,-0.5L0,-3.0L2.5,-0.5"/>
                </g>
               <g id="resetDef">
                       <use xlink:href="#rim2" fill="#404040">
                               <set attributeName="fill" to="#808080" begin="reset.mouseover" end="reset.mouseout"/>
                       </use>
               </g>
        </defs>

<script type="text/javascript">
var viewWidth = 957;
var viewHeight = 629;
var sectionId = 'dynsection-57';
</script>
<script xlink:href="svgpan.js"/>
<svg id="graph" class="graph">
<g id="viewport">
<title>svg::radiate_glyph_and_id</title>
<!-- Node1 -->
<g id="node1" class="node">
<title>Node1</title>
<g id="a_node1"><a xlink:title=" ">
<polygon fill="#999999" stroke="#666666" points="86,-448.23 0,-448.23 0,-422.23 86,-422.23 86,-448.23"/>
<text text-anchor="start" x="8" y="-437.83" font-family="SourceSans" font-size="8.00">svg::radiate_glyph</text>
<text text-anchor="middle" x="43" y="-428.83" font-family="SourceSans" font-size="8.00">_and_id</text>
</a>
</g>
</g>
<!-- Node2 -->
<g id="node2" class="node">
<title>Node2</title>
<g id="a_node2"><a xlink:href="namespacesvg.html#aa2776d975cfdb951b8dd6a8fac3d826b" target="_top" xlink:title="Approximate pixel height of type of point size @sz.">
<polygon fill="white" stroke="#666666" points="222,-523.73 122,-523.73 122,-506.73 222,-506.73 222,-523.73"/>
<text text-anchor="middle" x="172" y="-513.33" font-family="SourceSans" font-size="8.00">svg::char_width_to_px</text>
</a>
</g>
</g>
<!-- Node1&#45;&gt;Node2 -->
<g id="edge1" class="edge">
<title>Node1&#45;&gt;Node2</title>
<path fill="none" stroke="#63b8ff" d="M57.67,-448.36C72.52,-462.06 97.42,-483.42 122,-497.23 125.69,-499.3 129.66,-501.22 133.69,-502.96"/>
<polygon fill="#63b8ff" stroke="#63b8ff" points="132.51,-506.26 143.1,-506.73 135.11,-499.76 132.51,-506.26"/>
</g>
<!-- Node3 -->
<g id="node3" class="node">
<title>Node3</title>
<g id="a_node3"><a xlink:href="namespacesvg.html#a806415593163e75c9587c2a987dd5112" target="_top" xlink:title="Given identifier/name/id, get corresponding id_render_state from cache.">
<polygon fill="white" stroke="#666666" points="215.5,-488.23 128.5,-488.23 128.5,-462.23 215.5,-462.23 215.5,-488.23"/>
<text text-anchor="start" x="136.5" y="-477.83" font-family="SourceSans" font-size="8.00">svg::get_id_render</text>
<text text-anchor="middle" x="172" y="-468.83" font-family="SourceSans" font-size="8.00">_state</text>
</a>
</g>
</g>
<!-- Node1&#45;&gt;Node3 -->
<g id="edge2" class="edge">
<title>Node1&#45;&gt;Node3</title>
<path fill="none" stroke="#63b8ff" d="M85.58,-448.33C96.44,-451.75 108.27,-455.47 119.57,-459.03"/>
<polygon fill="#63b8ff" stroke="#63b8ff" points="118.73,-462.44 129.32,-462.1 120.84,-455.76 118.73,-462.44"/>
</g>
<!-- Node5 -->
<g id="node5" class="node">
<title>Node5</title>
<g id="a_node5"><a xlink:href="structsvg_1_1render__state__base.html#a7c3f23003c7324627764c9547568d42f" target="_top" xlink:title=" ">
<polygon fill="white" stroke="#666666" points="368.5,-349.23 264.5,-349.23 264.5,-323.23 368.5,-323.23 368.5,-349.23"/>
<text text-anchor="start" x="272.5" y="-338.83" font-family="SourceSans" font-size="8.00">svg::render_state_base</text>
<text text-anchor="middle" x="316.5" y="-329.83" font-family="SourceSans" font-size="8.00">::is_visible</text>
</a>
</g>
</g>
<!-- Node1&#45;&gt;Node5 -->
<g id="edge4" class="edge">
<title>Node1&#45;&gt;Node5</title>
<path fill="none" stroke="#63b8ff" d="M79.77,-422.19C128.71,-404.34 216.54,-372.32 270.07,-352.8"/>
<polygon fill="#63b8ff" stroke="#63b8ff" points="271.45,-356.02 279.65,-349.3 269.05,-349.44 271.45,-356.02"/>
</g>
<!-- Node6 -->
<g id="node6" class="node">
<title>Node6</title>
<g id="a_node6"><a xlink:href="namespacesvg.html#a0a0dce44cf8a75daa516cdf9fade5a85" target="_top" xlink:title=" ">
<polygon fill="white" stroke="#666666" points="212.5,-443.73 131.5,-443.73 131.5,-426.73 212.5,-426.73 212.5,-443.73"/>
<text text-anchor="middle" x="172" y="-433.33" font-family="SourceSans" font-size="8.00">svg::radial_text_r</text>
</a>
</g>
</g>
<!-- Node1&#45;&gt;Node6 -->
<g id="edge5" class="edge">
<title>Node1&#45;&gt;Node6</title>
<path fill="none" stroke="#63b8ff" d="M86.29,-435.23C97.56,-435.23 109.84,-435.23 121.47,-435.23"/>
<polygon fill="#63b8ff" stroke="#63b8ff" points="121.47,-438.73 131.47,-435.23 121.47,-431.73 121.47,-438.73"/>
</g>
<!-- Node26 -->
<g id="node26" class="node">
<title>Node26</title>
<g id="a_node26"><a xlink:href="namespacesvg.html#a6cbc319a171a74fdf91e5d4eb55a6f36" target="_top" xlink:title=" ">
<polygon fill="white" stroke="#666666" points="215,-267.73 129,-267.73 129,-250.73 215,-250.73 215,-267.73"/>
<text text-anchor="middle" x="172" y="-257.33" font-family="SourceSans" font-size="8.00">svg::radiate_glyph</text>
</a>
</g>
</g>
<!-- Node1&#45;&gt;Node26 -->
<g id="edge28" class="edge">
<title>Node1&#45;&gt;Node26</title>
<path fill="none" stroke="#63b8ff" d="M53.55,-422C76.32,-390.45 133.79,-310.8 158.92,-275.97"/>
<polygon fill="#63b8ff" stroke="#63b8ff" points="161.82,-277.93 164.84,-267.77 156.15,-273.83 161.82,-277.93"/>
</g>
<!-- Node4 -->
<g id="node4" class="node">
<title>Node4</title>
<g id="a_node4"><a xlink:href="namespacesvg.html#abcde0ef18f90817cb5cb7147211fef05" target="_top" xlink:title=" ">
<polygon fill="white" stroke="#666666" points="360,-584.23 273,-584.23 273,-558.23 360,-558.23 360,-584.23"/>
<text text-anchor="start" x="281" y="-573.83" font-family="SourceSans" font-size="8.00">svg::get_id_render</text>
<text text-anchor="middle" x="316.5" y="-564.83" font-family="SourceSans" font-size="8.00">_state_cache</text>
</a>
</g>
</g>
<!-- Node3&#45;&gt;Node4 -->
<g id="edge3" class="edge">
<title>Node3&#45;&gt;Node4</title>
<path fill="none" stroke="#63b8ff" d="M206.82,-488.25C212.19,-491.1 217.46,-494.43 222,-498.23 243.27,-516.05 236.1,-532.2 258,-549.23 259.82,-550.64 261.73,-551.97 263.72,-553.23"/>
<polygon fill="#63b8ff" stroke="#63b8ff" points="262.36,-556.47 272.81,-558.23 265.74,-550.34 262.36,-556.47"/>
</g>
<!-- Node7 -->
<g id="node7" class="node">
<title>Node7</title>
<g id="a_node7"><a xlink:href="namespacesvg.html#ab44508c4aeca591141ebec50145b75cd" target="_top" xlink:title="Angle in degrees.">
<polygon fill="white" stroke="#666666" points="368.5,-469.23 264.5,-469.23 264.5,-443.23 368.5,-443.23 368.5,-469.23"/>
<text text-anchor="start" x="272.5" y="-458.83" font-family="SourceSans" font-size="8.00">svg::get_circumference</text>
<text text-anchor="middle" x="316.5" y="-449.83" font-family="SourceSans" font-size="8.00">_point_d</text>
</a>
</g>
</g>
<!-- Node6&#45;&gt;Node7 -->
<g id="edge6" class="edge">
<title>Node6&#45;&gt;Node7</title>
<path fill="none" stroke="#63b8ff" d="M212.69,-441.08C225.55,-442.97 240.12,-445.12 254.17,-447.19"/>
<polygon fill="#63b8ff" stroke="#63b8ff" points="253.87,-450.69 264.28,-448.68 254.89,-443.76 253.87,-450.69"/>
</g>
<!-- Node10 -->
<g id="node10" class="node">
<title>Node10</title>
<g id="a_node10"><a xlink:href="namespacesvg.html#ae7eab6d9ce1f55bcbcc997cd24c5abcf" target="_top" xlink:title="Text with typography, arranged ccw around points (x,y) on a circle.">
<polygon fill="white" stroke="#666666" points="362.5,-504.73 270.5,-504.73 270.5,-487.73 362.5,-487.73 362.5,-504.73"/>
<text text-anchor="middle" x="316.5" y="-494.33" font-family="SourceSans" font-size="8.00">svg::radial_text_ccw</text>
</a>
</g>
</g>
<!-- Node6&#45;&gt;Node10 -->
<g id="edge9" class="edge">
<title>Node6&#45;&gt;Node10</title>
<path fill="none" stroke="#63b8ff" d="M199.98,-443.74C207.29,-446.42 215.09,-449.63 222,-453.23 239.28,-462.22 240.5,-469.67 258,-478.23 262.64,-480.5 267.62,-482.56 272.65,-484.42"/>
<polygon fill="#63b8ff" stroke="#63b8ff" points="271.7,-487.79 282.3,-487.72 273.97,-481.17 271.7,-487.79"/>
</g>
<!-- Node23 -->
<g id="node23" class="node">
<title>Node23</title>
<g id="a_node23"><a xlink:href="namespacesvg.html#a27b1041d0851178e4835e1f623a46161" target="_top" xlink:title="Text with typography, arranged cw around points (x,y) on a circle.">
<polygon fill="white" stroke="#666666" points="360.5,-539.73 272.5,-539.73 272.5,-522.73 360.5,-522.73 360.5,-539.73"/>
<text text-anchor="middle" x="316.5" y="-529.33" font-family="SourceSans" font-size="8.00">svg::radial_text_cw</text>
</a>
</g>
</g>
<!-- Node6&#45;&gt;Node23 -->
<g id="edge24" class="edge">
<title>Node6&#45;&gt;Node23</title>
<path fill="none" stroke="#63b8ff" d="M206.06,-443.82C211.76,-446.26 217.34,-449.34 222,-453.23 246.18,-473.39 233.18,-494.87 258,-514.23 259.8,-515.63 261.71,-516.92 263.71,-518.11"/>
<polygon fill="#63b8ff" stroke="#63b8ff" points="262.36,-521.34 272.87,-522.64 265.46,-515.07 262.36,-521.34"/>
</g>
<!-- Node24 -->
<g id="node24" class="node">
<title>Node24</title>
<g id="a_node24"><a xlink:href="namespacesvg.html#a010fea242a289d173d521b501140cd72" target="_top" xlink:title="Zero degrees is top, going clockwise (cw).">
<polygon fill="white" stroke="#666666" points="528,-385.73 411,-385.73 411,-368.73 528,-368.73 528,-385.73"/>
<text text-anchor="middle" x="469.5" y="-375.33" font-family="SourceSans" font-size="8.00">svg::zero_angle_north_ccw</text>
</a>
</g>
</g>
<!-- Node6&#45;&gt;Node24 -->
<g id="edge26" class="edge">
<title>Node6&#45;&gt;Node24</title>
<path fill="none" stroke="#63b8ff" d="M207.65,-426.64C223.03,-422.94 241.38,-418.68 258,-415.23 307.88,-404.87 364.75,-394.7 406.8,-387.49"/>
<polygon fill="#63b8ff" stroke="#63b8ff" points="407.61,-390.9 416.88,-385.77 406.44,-384 407.61,-390.9"/>
</g>
<!-- Node25 -->
<g id="node25" class="node">
<title>Node25</title>
<g id="a_node25"><a xlink:href="namespacesvg.html#a46164d75fd5109e4ed8879abbacd5c11" target="_top" xlink:title="Zero degrees is top, going clockwise (cw).">
<polygon fill="white" stroke="#666666" points="526,-420.73 413,-420.73 413,-403.73 526,-403.73 526,-420.73"/>
<text text-anchor="middle" x="469.5" y="-410.33" font-family="SourceSans" font-size="8.00">svg::zero_angle_north_cw</text>
</a>
</g>
</g>
<!-- Node6&#45;&gt;Node25 -->
<g id="edge27" class="edge">
<title>Node6&#45;&gt;Node25</title>
<path fill="none" stroke="#63b8ff" d="M212.55,-432.15C261.13,-428.37 344.28,-421.9 402.59,-417.36"/>
<polygon fill="#63b8ff" stroke="#63b8ff" points="403.11,-420.83 412.81,-416.56 402.57,-413.85 403.11,-420.83"/>
</g>
<!-- Node8 -->
<g id="node8" class="node">
<title>Node8</title>
<g id="a_node8"><a xlink:href="namespacesvg.html#aef05ac63d88a6102981d3faf37275297" target="_top" xlink:title="Angle in radians.">
<polygon fill="white" stroke="#666666" points="521.5,-465.23 417.5,-465.23 417.5,-439.23 521.5,-439.23 521.5,-465.23"/>
<text text-anchor="start" x="425.5" y="-454.83" font-family="SourceSans" font-size="8.00">svg::get_circumference</text>
<text text-anchor="middle" x="469.5" y="-445.83" font-family="SourceSans" font-size="8.00">_point_r</text>
</a>
</g>
</g>
<!-- Node7&#45;&gt;Node8 -->
<g id="edge7" class="edge">
<title>Node7&#45;&gt;Node8</title>
<path fill="none" stroke="#63b8ff" d="M368.62,-454.88C381.04,-454.55 394.45,-454.19 407.29,-453.85"/>
<polygon fill="#63b8ff" stroke="#63b8ff" points="407.53,-457.35 417.43,-453.58 407.34,-450.35 407.53,-457.35"/>
</g>
<!-- Node9 -->
<g id="node9" class="node">
<title>Node9</title>
<g id="a_node9"><a xlink:href="namespacesvg_1_1constants.html#a0e0b0d9314bc47324ee39884bf8bb2fd" target="_top" xlink:title=" ">
<polygon fill="white" stroke="#666666" points="511,-500.73 428,-500.73 428,-483.73 511,-483.73 511,-500.73"/>
<text text-anchor="middle" x="469.5" y="-490.33" font-family="SourceSans" font-size="8.00">svg::constants::pi</text>
</a>
</g>
</g>
<!-- Node7&#45;&gt;Node9 -->
<g id="edge8" class="edge">
<title>Node7&#45;&gt;Node9</title>
<path fill="none" stroke="#63b8ff" d="M368.62,-468.42C386.22,-472.61 405.79,-477.28 422.91,-481.36"/>
<polygon fill="#63b8ff" stroke="#63b8ff" points="422.14,-484.78 432.68,-483.69 423.76,-477.97 422.14,-484.78"/>
</g>
<!-- Node11 -->
<g id="node11" class="node">
<title>Node11</title>
<g id="a_node11"><a xlink:href="namespacesvg.html#a5791c1fc9121f01e5f666b7ce0367dfa" target="_top" xlink:title="Text at @origin, with style and ... a transformation=rotation of @deg about @rorigin.">
<polygon fill="white" stroke="#666666" points="510.5,-535.73 428.5,-535.73 428.5,-518.73 510.5,-518.73 510.5,-535.73"/>
<text text-anchor="middle" x="469.5" y="-525.33" font-family="SourceSans" font-size="8.00">svg::styled_text_r</text>
</a>
</g>
</g>
<!-- Node10&#45;&gt;Node11 -->
<g id="edge10" class="edge">
<title>Node10&#45;&gt;Node11</title>
<path fill="none" stroke="#63b8ff" d="M359.16,-504.78C377.52,-508.55 399.25,-513.01 418.48,-516.96"/>
<polygon fill="#63b8ff" stroke="#63b8ff" points="417.78,-520.39 428.28,-518.97 419.19,-513.53 417.78,-520.39"/>
</g>
<!-- Node12 -->
<g id="node12" class="node">
<title>Node12</title>
<g id="a_node12"><a xlink:href="group__elements.html#aad29e1daf75bdcd69a39575a6807fa0f" target="_top" xlink:title="Either serialize immediately (as below), or create data structure that adds data to data_vec and then...">
<polygon fill="white" stroke="#666666" points="663.5,-533.23 574.5,-533.23 574.5,-507.23 663.5,-507.23 663.5,-533.23"/>
<text text-anchor="start" x="582.5" y="-522.83" font-family="SourceSans" font-size="8.00">svg::text_element::</text>
<text text-anchor="middle" x="619" y="-513.83" font-family="SourceSans" font-size="8.00">add_data</text>
</a>
</g>
</g>
<!-- Node11&#45;&gt;Node12 -->
<g id="edge11" class="edge">
<title>Node11&#45;&gt;Node12</title>
<path fill="none" stroke="#63b8ff" d="M510.81,-525.32C527.28,-524.54 546.57,-523.62 564.22,-522.78"/>
<polygon fill="#63b8ff" stroke="#63b8ff" points="564.56,-526.27 574.38,-522.3 564.23,-519.28 564.56,-526.27"/>
</g>
<!-- Node19 -->
<g id="node19" class="node">
<title>Node19</title>
<g id="a_node19"><a xlink:href="group__elements.html#adb6116b96467cc39cb178deb10c7a869" target="_top" xlink:title=" ">
<polygon fill="white" stroke="#666666" points="669.5,-445.23 568.5,-445.23 568.5,-419.23 669.5,-419.23 669.5,-445.23"/>
<text text-anchor="start" x="576.5" y="-434.83" font-family="SourceSans" font-size="8.00">svg::svg_element::add</text>
<text text-anchor="middle" x="619" y="-425.83" font-family="SourceSans" font-size="8.00">_element</text>
</a>
</g>
</g>
<!-- Node11&#45;&gt;Node19 -->
<g id="edge20" class="edge">
<title>Node11&#45;&gt;Node19</title>
<path fill="none" stroke="#63b8ff" d="M510.62,-519.41C516.8,-517.1 522.84,-514.1 528,-510.23 551.67,-492.48 541.24,-473.14 564,-454.23 565.55,-452.94 567.18,-451.73 568.88,-450.57"/>
<polygon fill="#63b8ff" stroke="#63b8ff" points="570.94,-453.42 577.77,-445.32 567.38,-447.39 570.94,-453.42"/>
</g>
<!-- Node20 -->
<g id="node20" class="node">
<title>Node20</title>
<g id="a_node20"><a xlink:href="group__elements.html#ga13c46848317034d16c62a7d2061ba3d6" target="_top" xlink:title=" ">
<polygon fill="white" stroke="#666666" points="663.5,-621.23 574.5,-621.23 574.5,-595.23 663.5,-595.23 663.5,-621.23"/>
<text text-anchor="start" x="582.5" y="-610.83" font-family="SourceSans" font-size="8.00">svg::text_element::</text>
<text text-anchor="middle" x="619" y="-601.83" font-family="SourceSans" font-size="8.00">finish_element</text>
</a>
</g>
</g>
<!-- Node11&#45;&gt;Node20 -->
<g id="edge21" class="edge">
<title>Node11&#45;&gt;Node20</title>
<path fill="none" stroke="#63b8ff" d="M482.5,-535.77C499.91,-547.93 533.44,-570.52 564,-586.23 567.25,-587.9 570.66,-589.54 574.12,-591.12"/>
<polygon fill="#63b8ff" stroke="#63b8ff" points="572.75,-594.34 583.31,-595.15 575.56,-587.93 572.75,-594.34"/>
</g>
<!-- Node21 -->
<g id="node21" class="node">
<title>Node21</title>
<g id="a_node21"><a xlink:href="structsvg_1_1transform.html#acf9836f4ba647f0dd2b53963a0f714d0" target="_top" xlink:title=" ">
<polygon fill="white" stroke="#666666" points="668,-274.73 570,-274.73 570,-257.73 668,-257.73 668,-274.73"/>
<text text-anchor="middle" x="619" y="-264.33" font-family="SourceSans" font-size="8.00">svg::transform::rotate</text>
</a>
</g>
</g>
<!-- Node11&#45;&gt;Node21 -->
<g id="edge22" class="edge">
<title>Node11&#45;&gt;Node21</title>
<path fill="none" stroke="#63b8ff" d="M510.72,-521.68C517.27,-519.13 523.4,-515.47 528,-510.23 595.12,-433.81 498.2,-361.79 564,-284.23 565.14,-282.88 566.39,-281.64 567.72,-280.48"/>
<polygon fill="#63b8ff" stroke="#63b8ff" points="569.77,-283.32 576.11,-274.84 565.86,-277.51 569.77,-283.32"/>
</g>
<!-- Node22 -->
<g id="node22" class="node">
<title>Node22</title>
<g id="a_node22"><a xlink:href="group__elements.html#ae45bec611a6ec17ea46aab6d680ae042" target="_top" xlink:title=" ">
<polygon fill="white" stroke="#666666" points="663.5,-577.23 574.5,-577.23 574.5,-551.23 663.5,-551.23 663.5,-577.23"/>
<text text-anchor="start" x="582.5" y="-566.83" font-family="SourceSans" font-size="8.00">svg::text_element::</text>
<text text-anchor="middle" x="619" y="-557.83" font-family="SourceSans" font-size="8.00">start_element</text>
</a>
</g>
</g>
<!-- Node11&#45;&gt;Node22 -->
<g id="edge23" class="edge">
<title>Node11&#45;&gt;Node22</title>
<path fill="none" stroke="#63b8ff" d="M504.71,-535.81C522.47,-540.27 544.58,-545.81 564.54,-550.82"/>
<polygon fill="#63b8ff" stroke="#63b8ff" points="563.89,-554.27 574.44,-553.3 565.6,-547.48 563.89,-554.27"/>
</g>
<!-- Node13 -->
<g id="node13" class="node">
<title>Node13</title>
<g id="a_node13"><a xlink:href="structsvg_1_1typography.html#adbc62f74f1fed3f7c77567250f084f83" target="_top" xlink:title=" ">
<polygon fill="white" stroke="#666666" points="811,-491.23 714,-491.23 714,-465.23 811,-465.23 811,-491.23"/>
<text text-anchor="start" x="722" y="-480.83" font-family="SourceSans" font-size="8.00">svg::typography::add</text>
<text text-anchor="middle" x="762.5" y="-471.83" font-family="SourceSans" font-size="8.00">_attribute</text>
</a>
</g>
</g>
<!-- Node12&#45;&gt;Node13 -->
<g id="edge12" class="edge">
<title>Node12&#45;&gt;Node13</title>
<path fill="none" stroke="#63b8ff" d="M663.61,-507.29C677.46,-503.17 692.96,-498.58 707.46,-494.27"/>
<polygon fill="#63b8ff" stroke="#63b8ff" points="708.71,-497.55 717.3,-491.35 706.72,-490.84 708.71,-497.55"/>
</g>
<!-- Node16 -->
<g id="node16" class="node">
<title>Node16</title>
<g id="a_node16"><a xlink:href="namespacesvg.html#a48ac748e89e22789d1772326a98dd7b6" target="_top" xlink:title=" ">
<polygon fill="white" stroke="#666666" points="944,-528.73 856,-528.73 856,-511.73 944,-511.73 944,-528.73"/>
<text text-anchor="middle" x="900" y="-518.33" font-family="SourceSans" font-size="8.00">svg::string_replace</text>
</a>
</g>
</g>
<!-- Node12&#45;&gt;Node16 -->
<g id="edge18" class="edge">
<title>Node12&#45;&gt;Node16</title>
<path fill="none" stroke="#63b8ff" d="M663.59,-520.23C712.73,-520.23 792.64,-520.23 845.52,-520.23"/>
<polygon fill="#63b8ff" stroke="#63b8ff" points="845.71,-523.73 855.71,-520.23 845.71,-516.73 845.71,-523.73"/>
</g>
<!-- Node18 -->
<g id="node18" class="node">
<title>Node18</title>
<g id="a_node18"><a xlink:href="namespacesvg.html#a36b1c48ad4601b205790e3772ad0a7b6" target="_top" xlink:title=" ">
<polygon fill="white" stroke="#666666" points="934,-413.73 866,-413.73 866,-396.73 934,-396.73 934,-413.73"/>
<text text-anchor="middle" x="900" y="-403.33" font-family="SourceSans" font-size="8.00">svg::to_string</text>
</a>
</g>
</g>
<!-- Node12&#45;&gt;Node18 -->
<g id="edge19" class="edge">
<title>Node12&#45;&gt;Node18</title>
<path fill="none" stroke="#63b8ff" d="M658.68,-507.13C664.05,-504.57 669.32,-501.6 674,-498.23 693.94,-483.85 689.21,-469.35 710,-456.23 754.95,-427.87 815.51,-415.13 855.84,-409.5"/>
<polygon fill="#63b8ff" stroke="#63b8ff" points="856.42,-412.96 865.89,-408.19 855.52,-406.02 856.42,-412.96"/>
</g>
<!-- Node14 -->
<g id="node14" class="node">
<title>Node14</title>
<g id="a_node14"><a xlink:href="namespacesvg_1_1constants.html#a3972655f1dfdc090ec2592d1fb37e87c" target="_top" xlink:title=" ">
<polygon fill="white" stroke="#666666" points="949,-448.73 851,-448.73 851,-431.73 949,-431.73 949,-448.73"/>
<text text-anchor="middle" x="900" y="-438.33" font-family="SourceSans" font-size="8.00">svg::constants::quote</text>
</a>
</g>
</g>
<!-- Node13&#45;&gt;Node14 -->
<g id="edge13" class="edge">
<title>Node13&#45;&gt;Node14</title>
<path fill="none" stroke="#63b8ff" d="M810.13,-465.15C825.96,-460.71 843.49,-455.8 858.77,-451.51"/>
<polygon fill="#63b8ff" stroke="#63b8ff" points="859.77,-454.87 868.45,-448.8 857.87,-448.13 859.77,-454.87"/>
</g>
<!-- Node15 -->
<g id="node15" class="node">
<title>Node15</title>
<g id="a_node15"><a xlink:href="namespacesvg_1_1constants.html#ac460bc8db60d85c3ae1cf8b1a903405e" target="_top" xlink:title="Formatting character constants.">
<polygon fill="white" stroke="#666666" points="948.5,-167.73 851.5,-167.73 851.5,-150.73 948.5,-150.73 948.5,-167.73"/>
<text text-anchor="middle" x="900" y="-157.33" font-family="SourceSans" font-size="8.00">svg::constants::space</text>
</a>
</g>
</g>
<!-- Node13&#45;&gt;Node15 -->
<g id="edge14" class="edge">
<title>Node13&#45;&gt;Node15</title>
<path fill="none" stroke="#63b8ff" d="M776.52,-465.04C788,-452.77 804.51,-433.53 815,-414.23 859.75,-331.9 886.02,-221.62 895.23,-178.06"/>
<polygon fill="#63b8ff" stroke="#63b8ff" points="898.71,-178.55 897.3,-168.05 891.85,-177.14 898.71,-178.55"/>
</g>
<!-- Node13&#45;&gt;Node16 -->
<g id="edge15" class="edge">
<title>Node13&#45;&gt;Node16</title>
<path fill="none" stroke="#63b8ff" d="M805.63,-491.29C823.55,-496.84 844.28,-503.27 861.65,-508.65"/>
<polygon fill="#63b8ff" stroke="#63b8ff" points="860.85,-512.07 871.44,-511.69 862.93,-505.38 860.85,-512.07"/>
</g>
<!-- Node17 -->
<g id="node17" class="node">
<title>Node17</title>
<g id="a_node17"><a xlink:href="structsvg_1_1typography.html#a174c1ffb4e56214d71523ffe7e422561" target="_top" xlink:title=" ">
<polygon fill="white" stroke="#666666" points="944.5,-493.23 855.5,-493.23 855.5,-467.23 944.5,-467.23 944.5,-493.23"/>
<text text-anchor="start" x="863.5" y="-482.83" font-family="SourceSans" font-size="8.00">svg::typography::to</text>
<text text-anchor="middle" x="900" y="-473.83" font-family="SourceSans" font-size="8.00">_string</text>
</a>
</g>
</g>
<!-- Node13&#45;&gt;Node17 -->
<g id="edge16" class="edge">
<title>Node13&#45;&gt;Node17</title>
<path fill="none" stroke="#63b8ff" d="M811.27,-478.94C822.24,-479.1 833.97,-479.27 845.18,-479.44"/>
<polygon fill="#63b8ff" stroke="#63b8ff" points="845.23,-482.94 855.28,-479.58 845.33,-475.94 845.23,-482.94"/>
</g>
<!-- Node13&#45;&gt;Node18 -->
<g id="edge17" class="edge">
<title>Node13&#45;&gt;Node18</title>
<path fill="none" stroke="#63b8ff" d="M786.81,-465.18C795.72,-460.05 805.92,-454.01 815,-448.23 831.43,-437.76 833.75,-432.28 851,-423.23 854.81,-421.23 858.9,-419.34 863.02,-417.6"/>
<polygon fill="#63b8ff" stroke="#63b8ff" points="864.58,-420.75 872.58,-413.8 861.99,-414.24 864.58,-420.75"/>
</g>
<!-- Node23&#45;&gt;Node11 -->
<g id="edge25" class="edge">
<title>Node23&#45;&gt;Node11</title>
<path fill="none" stroke="#63b8ff" d="M360.77,-530.08C378.71,-529.61 399.64,-529.05 418.26,-528.56"/>
<polygon fill="#63b8ff" stroke="#63b8ff" points="418.43,-532.06 428.33,-528.29 418.24,-525.06 418.43,-532.06"/>
</g>
<!-- Node26&#45;&gt;Node5 -->
<g id="edge50" class="edge">
<title>Node26&#45;&gt;Node5</title>
<path fill="none" stroke="#63b8ff" d="M184.96,-267.84C201.05,-279.17 230.77,-299.29 258,-313.23 261.98,-315.27 266.19,-317.25 270.45,-319.15"/>
<polygon fill="#63b8ff" stroke="#63b8ff" points="269.19,-322.42 279.77,-323.13 271.95,-315.98 269.19,-322.42"/>
</g>
<!-- Node26&#45;&gt;Node7 -->
<g id="edge34" class="edge">
<title>Node26&#45;&gt;Node7</title>
<path fill="none" stroke="#63b8ff" d="M179.31,-267.95C200.43,-297.15 269.08,-392.05 300.07,-434.9"/>
<polygon fill="#63b8ff" stroke="#63b8ff" points="297.38,-437.16 306.08,-443.21 303.05,-433.05 297.38,-437.16"/>
</g>
<!-- Node27 -->
<g id="node27" class="node">
<title>Node27</title>
<g id="a_node27"><a xlink:href="namespacesvg.html#a6b1624bb42af7e9269fc6088e6a26fd7" target="_top" xlink:title="Adjust angle above to CW/CCW orientation.">
<polygon fill="white" stroke="#666666" points="375,-304.73 258,-304.73 258,-287.73 375,-287.73 375,-304.73"/>
<text text-anchor="middle" x="316.5" y="-294.33" font-family="SourceSans" font-size="8.00">svg::adjust_angle_rotation</text>
</a>
</g>
</g>
<!-- Node26&#45;&gt;Node27 -->
<g id="edge29" class="edge">
<title>Node26&#45;&gt;Node27</title>
<path fill="none" stroke="#63b8ff" d="M206.05,-267.81C225.92,-272.97 251.43,-279.59 272.82,-285.15"/>
<polygon fill="#63b8ff" stroke="#63b8ff" points="272.07,-288.57 282.63,-287.7 273.83,-281.79 272.07,-288.57"/>
</g>
<!-- Node28 -->
<g id="node28" class="node">
<title>Node28</title>
<g id="a_node28"><a xlink:href="namespacesvg.html#a8049c9c931294d04d25967268d85d226" target="_top" xlink:title="Import svg file, convert it to svg_element for insertion. ifile is a plain SVG file with a 1:1 aspect...">
<polygon fill="white" stroke="#666666" points="518.5,-80.73 420.5,-80.73 420.5,-63.73 518.5,-63.73 518.5,-80.73"/>
<text text-anchor="middle" x="469.5" y="-70.33" font-family="SourceSans" font-size="8.00">svg::file_to_svg_insert</text>
</a>
</g>
</g>
<!-- Node26&#45;&gt;Node28 -->
<g id="edge32" class="edge">
<title>Node26&#45;&gt;Node28</title>
<path fill="none" stroke="#63b8ff" d="M178.52,-250.7C190.69,-232.55 221.68,-189.82 258,-166.23 303.97,-136.37 325.1,-149.92 375,-127.23 400.96,-115.43 428.92,-98.35 447.43,-86.36"/>
<polygon fill="#63b8ff" stroke="#63b8ff" points="449.51,-89.18 455.95,-80.77 445.67,-83.33 449.51,-89.18"/>
</g>
<!-- Node30 -->
<g id="node30" class="node">
<title>Node30</title>
<g id="a_node30"><a xlink:href="namespacesvg.html#a370d930bd06a84735a4eecdd677154e6" target="_top" xlink:title="Get the label space. Value &#45;&gt; Name, as a string where value has labelspaces of fill NB: Should be the...">
<polygon fill="white" stroke="#666666" points="365.5,-192.73 267.5,-192.73 267.5,-175.73 365.5,-175.73 365.5,-192.73"/>
<text text-anchor="middle" x="316.5" y="-182.33" font-family="SourceSans" font-size="8.00">svg::get_label_spaces</text>
</a>
</g>
</g>
<!-- Node26&#45;&gt;Node30 -->
<g id="edge35" class="edge">
<title>Node26&#45;&gt;Node30</title>
<path fill="none" stroke="#63b8ff" d="M185.57,-250.61C201.83,-239.68 231.25,-220.64 258,-207.23 265.65,-203.39 274.11,-199.72 282.13,-196.47"/>
<polygon fill="#63b8ff" stroke="#63b8ff" points="283.58,-199.67 291.61,-192.75 281.02,-193.15 283.58,-199.67"/>
</g>
<!-- Node31 -->
<g id="node31" class="node">
<title>Node31</title>
<g id="a_node31"><a xlink:href="namespacesvg.html#acf3b42875f3a4e7bee10c21670c166cc" target="_top" xlink:title="The smallest (sattelite) radius size allowed in a kusama orbit.">
<polygon fill="white" stroke="#666666" points="368,-118.73 265,-118.73 265,-101.73 368,-101.73 368,-118.73"/>
<text text-anchor="middle" x="316.5" y="-108.33" font-family="SourceSans" font-size="8.00">svg::get_min_ring_size</text>
</a>
</g>
</g>
<!-- Node26&#45;&gt;Node31 -->
<g id="edge36" class="edge">
<title>Node26&#45;&gt;Node31</title>
<path fill="none" stroke="#63b8ff" d="M176.62,-250.59C186.44,-228.15 215.7,-167.36 258,-133.23 263.05,-129.15 268.92,-125.72 274.94,-122.85"/>
<polygon fill="#63b8ff" stroke="#63b8ff" points="276.6,-125.95 284.42,-118.81 273.85,-119.51 276.6,-125.95"/>
</g>
<!-- Node32 -->
<g id="node32" class="node">
<title>Node32</title>
<g id="a_node32"><a xlink:href="namespacesvg.html#a0aae5e63973d0526fe0dbdda0b371ec8" target="_top" xlink:title="Embed svg in group element. @origin is where glyph placement is inside containing svg element....">
<polygon fill="white" stroke="#666666" points="511,-204.73 428,-204.73 428,-187.73 511,-187.73 511,-204.73"/>
<text text-anchor="middle" x="469.5" y="-194.33" font-family="SourceSans" font-size="8.00">svg::insert_svg_at</text>
</a>
</g>
</g>
<!-- Node26&#45;&gt;Node32 -->
<g id="edge37" class="edge">
<title>Node26&#45;&gt;Node32</title>
<path fill="none" stroke="#63b8ff" d="M213.16,-250.67C266.45,-239.31 360.54,-219.25 418.41,-206.91"/>
<polygon fill="#63b8ff" stroke="#63b8ff" points="419.38,-210.28 428.43,-204.77 417.92,-203.44 419.38,-210.28"/>
</g>
<!-- Node39 -->
<g id="node39" class="node">
<title>Node39</title>
<g id="a_node39"><a xlink:href="namespacesvg.html#a68c014cdc144d2d0125a8ce849e8804d" target="_top" xlink:title="Draws a circle around a point (x,y), of style (s), of radius (r).">
<polygon fill="white" stroke="#666666" points="514,-350.73 425,-350.73 425,-333.73 514,-333.73 514,-350.73"/>
<text text-anchor="middle" x="469.5" y="-340.33" font-family="SourceSans" font-size="8.00">svg::point_to_circle</text>
</a>
</g>
</g>
<!-- Node26&#45;&gt;Node39 -->
<g id="edge51" class="edge">
<title>Node26&#45;&gt;Node39</title>
<path fill="none" stroke="#63b8ff" d="M215.34,-257.14C257.16,-256.47 322.33,-259.18 375,-278.23 404.73,-288.98 433.98,-311.45 451.64,-326.7"/>
<polygon fill="#63b8ff" stroke="#63b8ff" points="449.52,-329.5 459.32,-333.51 454.16,-324.26 449.52,-329.5"/>
</g>
<!-- Node27&#45;&gt;Node24 -->
<g id="edge30" class="edge">
<title>Node27&#45;&gt;Node24</title>
<path fill="none" stroke="#63b8ff" d="M356.09,-304.82C362.72,-307.25 369.3,-310.33 375,-314.23 396.14,-328.69 389.86,-344.77 411,-359.23 413.94,-361.24 417.11,-363.03 420.41,-364.63"/>
<polygon fill="#63b8ff" stroke="#63b8ff" points="419.34,-367.98 429.91,-368.64 422.06,-361.53 419.34,-367.98"/>
</g>
<!-- Node27&#45;&gt;Node25 -->
<g id="edge31" class="edge">
<title>Node27&#45;&gt;Node25</title>
<path fill="none" stroke="#63b8ff" d="M359.63,-304.78C365.22,-307.19 370.54,-310.27 375,-314.23 404.17,-340.1 381.83,-368.36 411,-394.23 412.95,-395.96 415.07,-397.53 417.3,-398.94"/>
<polygon fill="#63b8ff" stroke="#63b8ff" points="415.88,-402.15 426.37,-403.68 419.13,-395.95 415.88,-402.15"/>
</g>
<!-- Node29 -->
<g id="node29" class="node">
<title>Node29</title>
<g id="a_node29"><a xlink:href="namespacesvg_1_1constants.html#aa7f04c2ea699a1b1e2e790de5ac33f38" target="_top" xlink:title=" ">
<polygon fill="white" stroke="#666666" points="815,-38.73 710,-38.73 710,-21.73 815,-21.73 815,-38.73"/>
<text text-anchor="middle" x="762.5" y="-28.33" font-family="SourceSans" font-size="8.00">svg::constants::newline</text>
</a>
</g>
</g>
<!-- Node28&#45;&gt;Node29 -->
<g id="edge33" class="edge">
<title>Node28&#45;&gt;Node29</title>
<path fill="none" stroke="#63b8ff" d="M479.31,-63.4C494.81,-48.55 528.67,-19.16 564,-8.23 619.94,9.08 688.52,-6.23 728.39,-18.52"/>
<polygon fill="#63b8ff" stroke="#63b8ff" points="727.53,-21.92 738.12,-21.64 729.66,-15.25 727.53,-21.92"/>
</g>
<!-- Node32&#45;&gt;Node15 -->
<g id="edge45" class="edge">
<title>Node32&#45;&gt;Node15</title>
<path fill="none" stroke="#63b8ff" d="M508.53,-187.71C525.43,-184.24 545.63,-180.51 564,-178.23 660.72,-166.23 774.09,-161.8 841.05,-160.17"/>
<polygon fill="#63b8ff" stroke="#63b8ff" points="841.47,-163.66 851.39,-159.93 841.31,-156.66 841.47,-163.66"/>
</g>
<!-- Node32&#45;&gt;Node19 -->
<g id="edge38" class="edge">
<title>Node32&#45;&gt;Node19</title>
<path fill="none" stroke="#63b8ff" d="M474.27,-205.09C485.77,-231.64 522.14,-312.42 564,-372.23 573.92,-386.41 586.84,-400.87 597.55,-412.04"/>
<polygon fill="#63b8ff" stroke="#63b8ff" points="595.06,-414.5 604.55,-419.21 600.07,-409.61 595.06,-414.5"/>
</g>
<!-- Node32&#45;&gt;Node21 -->
<g id="edge43" class="edge">
<title>Node32&#45;&gt;Node21</title>
<path fill="none" stroke="#63b8ff" d="M484.03,-204.81C501.86,-215.87 534.42,-235.21 564,-248.23 568.85,-250.37 574.04,-252.4 579.21,-254.27"/>
<polygon fill="#63b8ff" stroke="#63b8ff" points="578.44,-257.71 589.04,-257.68 580.73,-251.1 578.44,-257.71"/>
</g>
<!-- Node33 -->
<g id="node33" class="node">
<title>Node33</title>
<g id="a_node33"><a xlink:href="group__elements.html#acafbdd950c6c2639c9d376c3eab696e5" target="_top" xlink:title=" ">
<polygon fill="white" stroke="#666666" points="665,-131.23 573,-131.23 573,-105.23 665,-105.23 665,-131.23"/>
<text text-anchor="start" x="581" y="-120.83" font-family="SourceSans" font-size="8.00">svg::element_base::</text>
<text text-anchor="middle" x="619" y="-111.83" font-family="SourceSans" font-size="8.00">add_raw</text>
</a>
</g>
</g>
<!-- Node32&#45;&gt;Node33 -->
<g id="edge39" class="edge">
<title>Node32&#45;&gt;Node33</title>
<path fill="none" stroke="#63b8ff" d="M485.96,-187.58C504.43,-177.29 536.3,-159.7 564,-145.23 569.79,-142.2 575.96,-139.05 581.99,-136.01"/>
<polygon fill="#63b8ff" stroke="#63b8ff" points="583.89,-138.97 591.26,-131.36 580.75,-132.72 583.89,-138.97"/>
</g>
<!-- Node34 -->
<g id="node34" class="node">
<title>Node34</title>
<g id="a_node34"><a xlink:href="group__elements.html#gaab139e518fe9d07003dbcc1fdfdad955" target="_top" xlink:title=" ">
<polygon fill="white" stroke="#666666" points="665,-87.23 573,-87.23 573,-61.23 665,-61.23 665,-87.23"/>
<text text-anchor="start" x="581" y="-76.83" font-family="SourceSans" font-size="8.00">svg::group_element</text>
<text text-anchor="middle" x="619" y="-67.83" font-family="SourceSans" font-size="8.00">::finish_element</text>
</a>
</g>
</g>
<!-- Node32&#45;&gt;Node34 -->
<g id="edge42" class="edge">
<title>Node32&#45;&gt;Node34</title>
<path fill="none" stroke="#63b8ff" d="M476.55,-187.55C490.15,-168.6 525.04,-123.05 564,-96.23 566.23,-94.7 568.58,-93.24 571.01,-91.87"/>
<polygon fill="#63b8ff" stroke="#63b8ff" points="572.72,-94.92 580.02,-87.25 569.53,-88.69 572.72,-94.92"/>
</g>
<!-- Node35 -->
<g id="node35" class="node">
<title>Node35</title>
<g id="a_node35"><a xlink:href="structsvg_1_1transform.html#a9053c6d65a0bf6f82e4c85a71cc42079" target="_top" xlink:title=" ">
<polygon fill="white" stroke="#666666" points="666.5,-239.73 571.5,-239.73 571.5,-222.73 666.5,-222.73 666.5,-239.73"/>
<text text-anchor="middle" x="619" y="-229.33" font-family="SourceSans" font-size="8.00">svg::transform::scale</text>
</a>
</g>
</g>
<!-- Node32&#45;&gt;Node35 -->
<g id="edge44" class="edge">
<title>Node32&#45;&gt;Node35</title>
<path fill="none" stroke="#63b8ff" d="M506.58,-204.79C526.39,-209.49 551.15,-215.37 572.29,-220.38"/>
<polygon fill="#63b8ff" stroke="#63b8ff" points="571.5,-223.79 582.03,-222.7 573.11,-216.98 571.5,-223.79"/>
</g>
<!-- Node36 -->
<g id="node36" class="node">
<title>Node36</title>
<g id="a_node36"><a xlink:href="group__elements.html#a5c8c4f93df6e84523f788aa7f98bcab8" target="_top" xlink:title=" ">
<polygon fill="white" stroke="#666666" points="665,-43.23 573,-43.23 573,-17.23 665,-17.23 665,-43.23"/>
<text text-anchor="start" x="581" y="-32.83" font-family="SourceSans" font-size="8.00">svg::group_element</text>
<text text-anchor="middle" x="619" y="-23.83" font-family="SourceSans" font-size="8.00">::start_element</text>
</a>
</g>
</g>
<!-- Node32&#45;&gt;Node36 -->
<g id="edge46" class="edge">
<title>Node32&#45;&gt;Node36</title>
<path fill="none" stroke="#63b8ff" d="M473.94,-187.47C484.05,-162.79 515.99,-91.93 564,-52.23 565.55,-50.95 567.19,-49.73 568.88,-48.58"/>
<polygon fill="#63b8ff" stroke="#63b8ff" points="570.94,-51.43 577.79,-43.34 567.39,-45.4 570.94,-51.43"/>
</g>
<!-- Node37 -->
<g id="node37" class="node">
<title>Node37</title>
<g id="a_node37"><a xlink:href="structsvg_1_1transform.html#a0c20aee54dbd3136799b17e12d3cb718" target="_top" xlink:title=" ">
<polygon fill="white" stroke="#666666" points="674,-204.73 564,-204.73 564,-187.73 674,-187.73 674,-204.73"/>
<text text-anchor="middle" x="619" y="-194.33" font-family="SourceSans" font-size="8.00">svg::transform::translate</text>
</a>
</g>
</g>
<!-- Node32&#45;&gt;Node37 -->
<g id="edge48" class="edge">
<title>Node32&#45;&gt;Node37</title>
<path fill="none" stroke="#63b8ff" d="M511.2,-196.23C524.3,-196.23 539.16,-196.23 553.55,-196.23"/>
<polygon fill="#63b8ff" stroke="#63b8ff" points="553.9,-199.73 563.9,-196.23 553.9,-192.73 553.9,-199.73"/>
</g>
<!-- Node33&#45;&gt;Node15 -->
<g id="edge41" class="edge">
<title>Node33&#45;&gt;Node15</title>
<path fill="none" stroke="#63b8ff" d="M665.36,-124.15C704.92,-129.4 763.81,-137.42 815,-145.23 823.4,-146.51 832.27,-147.92 840.97,-149.34"/>
<polygon fill="#63b8ff" stroke="#63b8ff" points="840.63,-152.83 851.06,-151.01 841.76,-145.93 840.63,-152.83"/>
</g>
<!-- Node33&#45;&gt;Node29 -->
<g id="edge40" class="edge">
<title>Node33&#45;&gt;Node29</title>
<path fill="none" stroke="#63b8ff" d="M655.77,-105.19C661.98,-102.5 668.28,-99.48 674,-96.23 699.92,-81.51 726.89,-60.08 743.92,-45.67"/>
<polygon fill="#63b8ff" stroke="#63b8ff" points="746.55,-48.02 751.85,-38.85 741.99,-42.72 746.55,-48.02"/>
</g>
<!-- Node36&#45;&gt;Node29 -->
<g id="edge47" class="edge">
<title>Node36&#45;&gt;Node29</title>
<path fill="none" stroke="#63b8ff" d="M665.16,-30.23C676.17,-30.23 688.14,-30.23 699.77,-30.23"/>
<polygon fill="#63b8ff" stroke="#63b8ff" points="699.88,-33.73 709.88,-30.23 699.88,-26.73 699.88,-33.73"/>
</g>
<!-- Node38 -->
<g id="node38" class="node">
<title>Node38</title>
<g id="a_node38"><a xlink:href="namespacesvg_1_1constants.html#a70757c054f02146f803e0e40071734a9" target="_top" xlink:title=" ">
<polygon fill="white" stroke="#666666" points="814,-204.73 711,-204.73 711,-187.73 814,-187.73 814,-204.73"/>
<text text-anchor="middle" x="762.5" y="-194.33" font-family="SourceSans" font-size="8.00">svg::constants::comma</text>
</a>
</g>
</g>
<!-- Node37&#45;&gt;Node38 -->
<g id="edge49" class="edge">
<title>Node37&#45;&gt;Node38</title>
<path fill="none" stroke="#63b8ff" d="M674.3,-196.23C682.93,-196.23 691.9,-196.23 700.67,-196.23"/>
<polygon fill="#63b8ff" stroke="#63b8ff" points="700.83,-199.73 710.83,-196.23 700.83,-192.73 700.83,-199.73"/>
</g>
<!-- Node39&#45;&gt;Node19 -->
<g id="edge53" class="edge">
<title>Node39&#45;&gt;Node19</title>
<path fill="none" stroke="#63b8ff" d="M511.22,-350.8C517.13,-353.01 522.92,-355.78 528,-359.23 549.47,-373.83 543.9,-388.8 564,-405.23 568.01,-408.5 572.47,-411.52 577.08,-414.25"/>
<polygon fill="#63b8ff" stroke="#63b8ff" points="575.56,-417.41 586.01,-419.16 578.93,-411.28 575.56,-417.41"/>
</g>
<!-- Node40 -->
<g id="node40" class="node">
<title>Node40</title>
<g id="a_node40"><a xlink:href="group__elements.html#a519382631540ecedee961bfb53e9ae87" target="_top" xlink:title=" ">
<polygon fill="white" stroke="#666666" points="663.5,-363.23 574.5,-363.23 574.5,-337.23 663.5,-337.23 663.5,-363.23"/>
<text text-anchor="start" x="582.5" y="-352.83" font-family="SourceSans" font-size="8.00">svg::circle_element</text>
<text text-anchor="middle" x="619" y="-343.83" font-family="SourceSans" font-size="8.00">::add_data</text>
</a>
</g>
</g>
<!-- Node39&#45;&gt;Node40 -->
<g id="edge52" class="edge">
<title>Node39&#45;&gt;Node40</title>
<path fill="none" stroke="#63b8ff" d="M514.36,-344.61C530.04,-345.46 547.89,-346.43 564.31,-347.32"/>
<polygon fill="#63b8ff" stroke="#63b8ff" points="564.14,-350.81 574.31,-347.86 564.52,-343.82 564.14,-350.81"/>
</g>
<!-- Node41 -->
<g id="node41" class="node">
<title>Node41</title>
<g id="a_node41"><a xlink:href="group__elements.html#a238b38ca99a1cf6c2baf80c8e4338d99" target="_top" xlink:title=" ">
<polygon fill="white" stroke="#666666" points="808.5,-405.23 716.5,-405.23 716.5,-379.23 808.5,-379.23 808.5,-405.23"/>
<text text-anchor="start" x="724.5" y="-394.83" font-family="SourceSans" font-size="8.00">svg::element_base::</text>
<text text-anchor="middle" x="762.5" y="-385.83" font-family="SourceSans" font-size="8.00">add_style</text>
</a>
</g>
</g>
<!-- Node39&#45;&gt;Node41 -->
<g id="edge54" class="edge">
<title>Node39&#45;&gt;Node41</title>
<path fill="none" stroke="#63b8ff" d="M500.74,-350.81C509.56,-353.41 519.2,-356.34 528,-359.23 544.16,-364.53 547.41,-368.46 564,-372.23 611.3,-382.99 666.29,-387.97 706.21,-390.26"/>
<polygon fill="#63b8ff" stroke="#63b8ff" points="706.11,-393.76 716.28,-390.8 706.48,-386.77 706.11,-393.76"/>
</g>
<!-- Node42 -->
<g id="node42" class="node">
<title>Node42</title>
<g id="a_node42"><a xlink:href="group__elements.html#ga98a1538c46e39122d8199c12b3a57b5d" target="_top" xlink:title=" ">
<polygon fill="white" stroke="#666666" points="663.5,-319.23 574.5,-319.23 574.5,-293.23 663.5,-293.23 663.5,-319.23"/>
<text text-anchor="start" x="582.5" y="-308.83" font-family="SourceSans" font-size="8.00">svg::circle_element</text>
<text text-anchor="middle" x="619" y="-299.83" font-family="SourceSans" font-size="8.00">::finish_element</text>
</a>
</g>
</g>
<!-- Node39&#45;&gt;Node42 -->
<g id="edge56" class="edge">
<title>Node39&#45;&gt;Node42</title>
<path fill="none" stroke="#63b8ff" d="M505.46,-333.7C523.09,-329.39 544.87,-324.08 564.55,-319.28"/>
<polygon fill="#63b8ff" stroke="#63b8ff" points="565.43,-322.66 574.32,-316.89 563.77,-315.86 565.43,-322.66"/>
</g>
<!-- Node43 -->
<g id="node43" class="node">
<title>Node43</title>
<g id="a_node43"><a xlink:href="group__elements.html#a793cb6b40b2aea335b11f14fd327cde8" target="_top" xlink:title=" ">
<polygon fill="white" stroke="#666666" points="663.5,-489.23 574.5,-489.23 574.5,-463.23 663.5,-463.23 663.5,-489.23"/>
<text text-anchor="start" x="582.5" y="-478.83" font-family="SourceSans" font-size="8.00">svg::circle_element</text>
<text text-anchor="middle" x="619" y="-469.83" font-family="SourceSans" font-size="8.00">::start_element</text>
</a>
</g>
</g>
<!-- Node39&#45;&gt;Node43 -->
<g id="edge57" class="edge">
<title>Node39&#45;&gt;Node43</title>
<path fill="none" stroke="#63b8ff" d="M514.29,-350.4C519.3,-352.66 524.03,-355.55 528,-359.23 561.1,-389.94 532.47,-421.91 564,-454.23 565.06,-455.32 566.18,-456.35 567.35,-457.34"/>
<polygon fill="#63b8ff" stroke="#63b8ff" points="565.5,-460.31 575.7,-463.15 569.49,-454.56 565.5,-460.31"/>
</g>
<!-- Node41&#45;&gt;Node18 -->
<g id="edge55" class="edge">
<title>Node41&#45;&gt;Node18</title>
<path fill="none" stroke="#63b8ff" d="M808.62,-396.56C823.76,-398.01 840.6,-399.63 855.6,-401.07"/>
<polygon fill="#63b8ff" stroke="#63b8ff" points="855.36,-404.56 865.65,-402.03 856.03,-397.59 855.36,-404.56"/>
</g>
</g>
</svg>
        <g id="navigator" transform="translate(0 0)" fill="#404254">
                <rect fill="#f2f5e9" fill-opacity="0.5" stroke="#606060" stroke-width=".5" x="0" y="0" width="60" height="60"/>
                <use id="zoomplus" xlink:href="#zoomPlus" x="17" y="9" onmousedown="handleZoom(evt,'in')"/>
                <use id="zoomminus" xlink:href="#zoomMin" x="42" y="9" onmousedown="handleZoom(evt,'out')"/>
                <use id="reset" xlink:href="#resetDef" x="30" y="36" onmousedown="handleReset()"/>
                <g id="arrowUp" xlink:href="#dirArrow" transform="translate(30 24)" onmousedown="handlePan(0,-1)">
                  <use xlink:href="#rim" fill="#404040">
                        <set attributeName="fill" to="#808080" begin="arrowUp.mouseover" end="arrowUp.mouseout"/>
                  </use>
                  <path fill="none" stroke="white" stroke-width="1.5" d="M0,-3.0v7 M-2.5,-0.5L0,-3.0L2.5,-0.5"/>
                </g>
                <g id="arrowRight" xlink:href="#dirArrow" transform="rotate(90) translate(36 -43)" onmousedown="handlePan(1,0)">
                  <use xlink:href="#rim" fill="#404040">
                        <set attributeName="fill" to="#808080" begin="arrowRight.mouseover" end="arrowRight.mouseout"/>
                  </use>
                  <path fill="none" stroke="white" stroke-width="1.5" d="M0,-3.0v7 M-2.5,-0.5L0,-3.0L2.5,-0.5"/>
                </g>
                <g id="arrowDown" xlink:href="#dirArrow" transform="rotate(180) translate(-30 -48)" onmousedown="handlePan(0,1)">
                  <use xlink:href="#rim" fill="#404040">
                        <set attributeName="fill" to="#808080" begin="arrowDown.mouseover" end="arrowDown.mouseout"/>
                  </use>
                  <path fill="none" stroke="white" stroke-width="1.5" d="M0,-3.0v7 M-2.5,-0.5L0,-3.0L2.5,-0.5"/>
                </g>
                <g id="arrowLeft" xlink:href="#dirArrow" transform="rotate(270) translate(-36 17)" onmousedown="handlePan(-1,0)">
                  <use xlink:href="#rim" fill="#404040">
                        <set attributeName="fill" to="#808080" begin="arrowLeft.mouseover" end="arrowLeft.mouseout"/>
                  </use>
                  <path fill="none" stroke="white" stroke-width="1.5" d="M0,-3.0v7 M-2.5,-0.5L0,-3.0L2.5,-0.5"/>
                </g>
        </g>
        <svg viewBox="0 0 15 15" width="100%" height="30px" preserveAspectRatio="xMaxYMin meet">
         <g id="arrow_out" transform="scale(0.3 0.3)">
          <a xlink:href="namespacesvg_a1f180d83d7e19dc673dc44192839cafe_cgraph_org.svg" target="_base">
           <rect id="button" ry="5" rx="5" y="6" x="6" height="38" width="38"
                fill="#f2f5e9" fill-opacity="0.5" stroke="#606060" stroke-width="1.0"/>
           <path id="arrow"
             d="M 11.500037,31.436501 C 11.940474,20.09759 22.043105,11.32322 32.158766,21.979434 L 37.068811,17.246167 C 37.068811,17.246167 37.088388,32 37.088388,32 L 22.160133,31.978069 C 22.160133,31.978069 26.997745,27.140456 26.997745,27.140456 C 18.528582,18.264221 13.291696,25.230495 11.500037,31.436501 z"
             style="fill:#404040;"/>
          </a>
         </g>
        </svg>
</svg>
