<?xml version="1.0" encoding="UTF-8" standalone="no"?>
<!DOCTYPE svg PUBLIC "-//W3C//DTD SVG 1.1//EN"
 "http://www.w3.org/Graphics/SVG/1.1/DTD/svg11.dtd">
<!-- Generated by graphviz version 5.0.0 (0)
 -->
<!-- Title: a60::metadata::analyze_metadata_aggregate_chord Pages: 1 -->
<!--zoomable 168 -->
<svg id="main" version="1.1" xmlns="http://www.w3.org/2000/svg" xmlns:xlink="http://www.w3.org/1999/xlink" xml:space="preserve" onload="init(evt)">
<style type="text/css"><![CDATA[
.edge:hover path { stroke: red; }
.edge:hover polygon { stroke: red; fill: red; }
]]></style>
<script type="text/javascript"><![CDATA[
var edges = document.getElementsByTagName('g');
if (edges && edges.length) {
  for (var i=0;i<edges.length;i++) {
    if (edges[i].id.substr(0,4)=='edge') {
      edges[i].setAttribute('class','edge');
    }
  }
}
]]></script>
        <defs>
                <circle id="rim" cx="0" cy="0" r="7"/>
                <circle id="rim2" cx="0" cy="0" r="3.5"/>
                <g id="zoomPlus">
                        <use xlink:href="#rim" fill="#404040">
                                <set attributeName="fill" to="#808080" begin="zoomplus.mouseover" end="zoomplus.mouseout"/>
                        </use>
                        <path d="M-4,0h8M0,-4v8" fill="none" stroke="white" stroke-width="1.5" pointer-events="none"/>
                </g>
                <g id="zoomMin">
                        <use xlink:href="#rim" fill="#404040">
                                <set attributeName="fill" to="#808080" begin="zoomminus.mouseover" end="zoomminus.mouseout"/>
                        </use>
                        <path d="M-4,0h8" fill="none" stroke="white" stroke-width="1.5" pointer-events="none"/>
                </g>
                <g id="dirArrow">
                        <path fill="none" stroke="white" stroke-width="1.5" d="M0,-3.0v7 M-2.5,-0.5L0,-3.0L2.5,-0.5"/>
                </g>
               <g id="resetDef">
                       <use xlink:href="#rim2" fill="#404040">
                               <set attributeName="fill" to="#808080" begin="reset.mouseover" end="reset.mouseout"/>
                       </use>
               </g>
        </defs>

<script type="text/javascript">
var viewWidth = 726;
var viewHeight = 168;
var sectionId = 'dynsection-0';
</script>
<script xlink:href="svgpan.js"/>
<svg id="graph" class="graph">
<g id="viewport">
<title>a60::metadata::analyze_metadata_aggregate_chord</title>
<!-- Node1 -->
<g id="node1" class="node">
<title>Node1</title>
<g id="a_node1"><a xlink:title="Analyze metadata directory or subset of it, and generate summary output for all in directory....">
<polygon fill="#999999" stroke="#666666" points="126,-90.5 0,-90.5 0,-64.5 126,-64.5 126,-90.5"/>
<text text-anchor="start" x="8" y="-80.1" font-family="SourceSans" font-size="8.00">a60::metadata::analyze</text>
<text text-anchor="middle" x="63" y="-71.1" font-family="SourceSans" font-size="8.00">_metadata_aggregate_chord</text>
</a>
</g>
</g>
<!-- Node2 -->
<g id="node2" class="node">
<title>Node2</title>
<g id="a_node2"><a xlink:href="namespacea60_1_1metadata.html#abb1e8fbeb00e7bf7a8f019c0fd951073" target="_top" xlink:title="Analyze metadata directory or subset of it and generate summary output for all in directory.">
<polygon fill="white" stroke="#666666" points="288,-90.5 162,-90.5 162,-64.5 288,-64.5 288,-90.5"/>
<text text-anchor="start" x="170" y="-80.1" font-family="SourceSans" font-size="8.00">a60::metadata::render</text>
<text text-anchor="middle" x="225" y="-71.1" font-family="SourceSans" font-size="8.00">_metadata_aggregate_chord</text>
</a>
</g>
</g>
<!-- Node1&#45;&gt;Node2 -->
<g id="edge1" class="edge">
<title>Node1&#45;&gt;Node2</title>
<path fill="none" stroke="#63b8ff" d="M126.32,-77.5C134.62,-77.5 143.18,-77.5 151.63,-77.5"/>
<polygon fill="#63b8ff" stroke="#63b8ff" points="151.85,-81 161.85,-77.5 151.85,-74 151.85,-81"/>
</g>
<!-- Node3 -->
<g id="node3" class="node">
<title>Node3</title>
<g id="a_node3"><a xlink:href="namespacea60_1_1metadata.html#a1fde7b7617a6da1a221d09f4ce033ee9" target="_top" xlink:title=" ">
<polygon fill="white" stroke="#666666" points="431,-90.5 324,-90.5 324,-64.5 431,-64.5 431,-90.5"/>
<text text-anchor="start" x="332" y="-80.1" font-family="SourceSans" font-size="8.00">a60::metadata::h_chord</text>
<text text-anchor="middle" x="377.5" y="-71.1" font-family="SourceSans" font-size="8.00">_graph</text>
</a>
</g>
</g>
<!-- Node2&#45;&gt;Node3 -->
<g id="edge2" class="edge">
<title>Node2&#45;&gt;Node3</title>
<path fill="none" stroke="#63b8ff" d="M288.08,-77.5C296.49,-77.5 305.12,-77.5 313.54,-77.5"/>
<polygon fill="#63b8ff" stroke="#63b8ff" points="313.67,-81 323.67,-77.5 313.67,-74 313.67,-81"/>
</g>
<!-- Node4 -->
<g id="node4" class="node">
<title>Node4</title>
<g id="a_node4"><a xlink:href="namespacea60_1_1metadata.html#a4c88caad75ba7fd9dffc58be1f715b28" target="_top" xlink:title="Compute xoffset.">
<polygon fill="white" stroke="#666666" points="708.5,-159.5 619.5,-159.5 619.5,-133.5 708.5,-133.5 708.5,-159.5"/>
<text text-anchor="start" x="627.5" y="-149.1" font-family="SourceSans" font-size="8.00">a60::metadata::get</text>
<text text-anchor="middle" x="664" y="-140.1" font-family="SourceSans" font-size="8.00">_xoffset</text>
</a>
</g>
</g>
<!-- Node3&#45;&gt;Node4 -->
<g id="edge3" class="edge">
<title>Node3&#45;&gt;Node4</title>
<path fill="none" stroke="#63b8ff" d="M405.02,-90.51C422.3,-98.51 445.55,-108.36 467,-114.5 514.11,-127.99 569.32,-136.37 609.12,-141.15"/>
<polygon fill="#63b8ff" stroke="#63b8ff" points="608.81,-144.63 619.15,-142.31 609.62,-137.68 608.81,-144.63"/>
</g>
<!-- Node5 -->
<g id="node5" class="node">
<title>Node5</title>
<g id="a_node5"><a xlink:href="namespacea60_1_1metadata.html#a0e1ca2f297681851edcf2f74d3bf663e" target="_top" xlink:title="Grid, titles, labels for h_chord_graph. @yscale == how much to vertically scale the bar graph from ce...">
<polygon fill="white" stroke="#666666" points="574,-90.5 467,-90.5 467,-64.5 574,-64.5 574,-90.5"/>
<text text-anchor="start" x="475" y="-80.1" font-family="SourceSans" font-size="8.00">a60::metadata::h_chord</text>
<text text-anchor="middle" x="520.5" y="-71.1" font-family="SourceSans" font-size="8.00">_graph_labels</text>
</a>
</g>
</g>
<!-- Node3&#45;&gt;Node5 -->
<g id="edge4" class="edge">
<title>Node3&#45;&gt;Node5</title>
<path fill="none" stroke="#63b8ff" d="M431,-77.5C439.44,-77.5 448.26,-77.5 456.9,-77.5"/>
<polygon fill="#63b8ff" stroke="#63b8ff" points="456.95,-81 466.95,-77.5 456.95,-74 456.95,-81"/>
</g>
<!-- Node6 -->
<g id="node6" class="node">
<title>Node6</title>
<g id="a_node6"><a xlink:href="namespacea60_1_1metadata.html#a22b86d9f6417957b79f6e9dab13296dc" target="_top" xlink:title=" ">
<polygon fill="white" stroke="#666666" points="718,-96 610,-96 610,-79 718,-79 718,-96"/>
<text text-anchor="middle" x="664" y="-85.6" font-family="SourceSans" font-size="8.00">a60::metadata::hdenom</text>
</a>
</g>
</g>
<!-- Node3&#45;&gt;Node6 -->
<g id="edge9" class="edge">
<title>Node3&#45;&gt;Node6</title>
<path fill="none" stroke="#63b8ff" d="M422.22,-90.61C436.37,-94.24 452.23,-97.69 467,-99.5 511.11,-104.9 561.12,-101.69 599.58,-97.24"/>
<polygon fill="#63b8ff" stroke="#63b8ff" points="600.1,-100.7 609.6,-96.02 599.25,-93.75 600.1,-100.7"/>
</g>
<!-- Node7 -->
<g id="node7" class="node">
<title>Node7</title>
<g id="a_node7"><a xlink:href="namespacea60_1_1metadata.html#a2a619ed21560d442f5dfae5ea8101fce" target="_top" xlink:title="Distance between label and top/bottom of line or text.">
<polygon fill="white" stroke="#666666" points="716,-53 612,-53 612,-36 716,-36 716,-53"/>
<text text-anchor="middle" x="664" y="-42.6" font-family="SourceSans" font-size="8.00">a60::metadata::vlspace</text>
</a>
</g>
</g>
<!-- Node3&#45;&gt;Node7 -->
<g id="edge10" class="edge">
<title>Node3&#45;&gt;Node7</title>
<path fill="none" stroke="#63b8ff" d="M424.1,-64.43C437.79,-60.98 452.91,-57.63 467,-55.5 511.86,-48.73 563.05,-46.02 601.87,-44.99"/>
<polygon fill="#63b8ff" stroke="#63b8ff" points="602.05,-48.49 611.97,-44.75 601.89,-41.49 602.05,-48.49"/>
</g>
<!-- Node8 -->
<g id="node8" class="node">
<title>Node8</title>
<g id="a_node8"><a xlink:href="namespacea60_1_1metadata.html#a888d9b1e7402e335f8e7544373855a92" target="_top" xlink:title=" ">
<polygon fill="white" stroke="#666666" points="714.5,-17 613.5,-17 613.5,0 714.5,0 714.5,-17"/>
<text text-anchor="middle" x="664" y="-6.6" font-family="SourceSans" font-size="8.00">a60::metadata::vspace</text>
</a>
</g>
</g>
<!-- Node3&#45;&gt;Node8 -->
<g id="edge11" class="edge">
<title>Node3&#45;&gt;Node8</title>
<path fill="none" stroke="#63b8ff" d="M406.24,-64.38C423.41,-56.72 446.1,-47.43 467,-41.5 511.89,-28.76 564.05,-20.27 603.26,-15.1"/>
<polygon fill="#63b8ff" stroke="#63b8ff" points="603.73,-18.57 613.2,-13.82 602.83,-11.62 603.73,-18.57"/>
</g>
<!-- Node5&#45;&gt;Node4 -->
<g id="edge5" class="edge">
<title>Node5&#45;&gt;Node4</title>
<path fill="none" stroke="#63b8ff" d="M548.45,-90.64C570.68,-101.48 602.41,-116.96 626.85,-128.87"/>
<polygon fill="#63b8ff" stroke="#63b8ff" points="625.63,-132.17 636.15,-133.41 628.7,-125.88 625.63,-132.17"/>
</g>
<!-- Node5&#45;&gt;Node6 -->
<g id="edge6" class="edge">
<title>Node5&#45;&gt;Node6</title>
<path fill="none" stroke="#63b8ff" d="M574.19,-81.22C582.46,-81.81 591.08,-82.42 599.56,-83.02"/>
<polygon fill="#63b8ff" stroke="#63b8ff" points="599.57,-86.53 609.79,-83.74 600.07,-79.54 599.57,-86.53"/>
</g>
<!-- Node5&#45;&gt;Node7 -->
<g id="edge7" class="edge">
<title>Node5&#45;&gt;Node7</title>
<path fill="none" stroke="#63b8ff" d="M574.19,-65.21C587.96,-62 602.72,-58.56 616.17,-55.42"/>
<polygon fill="#63b8ff" stroke="#63b8ff" points="617.21,-58.77 626.16,-53.09 615.62,-51.96 617.21,-58.77"/>
</g>
<!-- Node5&#45;&gt;Node8 -->
<g id="edge8" class="edge">
<title>Node5&#45;&gt;Node8</title>
<path fill="none" stroke="#63b8ff" d="M541.64,-64.37C559.2,-53.3 585.61,-37.54 610,-26.5 614.75,-24.35 619.83,-22.31 624.9,-20.43"/>
<polygon fill="#63b8ff" stroke="#63b8ff" points="626.28,-23.66 634.55,-17.02 623.95,-17.06 626.28,-23.66"/>
</g>
</g>
</svg>
        <g id="navigator" transform="translate(0 0)" fill="#404254">
                <rect fill="#f2f5e9" fill-opacity="0.5" stroke="#606060" stroke-width=".5" x="0" y="0" width="60" height="60"/>
                <use id="zoomplus" xlink:href="#zoomPlus" x="17" y="9" onmousedown="handleZoom(evt,'in')"/>
                <use id="zoomminus" xlink:href="#zoomMin" x="42" y="9" onmousedown="handleZoom(evt,'out')"/>
                <use id="reset" xlink:href="#resetDef" x="30" y="36" onmousedown="handleReset()"/>
                <g id="arrowUp" xlink:href="#dirArrow" transform="translate(30 24)" onmousedown="handlePan(0,-1)">
                  <use xlink:href="#rim" fill="#404040">
                        <set attributeName="fill" to="#808080" begin="arrowUp.mouseover" end="arrowUp.mouseout"/>
                  </use>
                  <path fill="none" stroke="white" stroke-width="1.5" d="M0,-3.0v7 M-2.5,-0.5L0,-3.0L2.5,-0.5"/>
                </g>
                <g id="arrowRight" xlink:href="#dirArrow" transform="rotate(90) translate(36 -43)" onmousedown="handlePan(1,0)">
                  <use xlink:href="#rim" fill="#404040">
                        <set attributeName="fill" to="#808080" begin="arrowRight.mouseover" end="arrowRight.mouseout"/>
                  </use>
                  <path fill="none" stroke="white" stroke-width="1.5" d="M0,-3.0v7 M-2.5,-0.5L0,-3.0L2.5,-0.5"/>
                </g>
                <g id="arrowDown" xlink:href="#dirArrow" transform="rotate(180) translate(-30 -48)" onmousedown="handlePan(0,1)">
                  <use xlink:href="#rim" fill="#404040">
                        <set attributeName="fill" to="#808080" begin="arrowDown.mouseover" end="arrowDown.mouseout"/>
                  </use>
                  <path fill="none" stroke="white" stroke-width="1.5" d="M0,-3.0v7 M-2.5,-0.5L0,-3.0L2.5,-0.5"/>
                </g>
                <g id="arrowLeft" xlink:href="#dirArrow" transform="rotate(270) translate(-36 17)" onmousedown="handlePan(-1,0)">
                  <use xlink:href="#rim" fill="#404040">
                        <set attributeName="fill" to="#808080" begin="arrowLeft.mouseover" end="arrowLeft.mouseout"/>
                  </use>
                  <path fill="none" stroke="white" stroke-width="1.5" d="M0,-3.0v7 M-2.5,-0.5L0,-3.0L2.5,-0.5"/>
                </g>
        </g>
        <svg viewBox="0 0 15 15" width="100%" height="30px" preserveAspectRatio="xMaxYMin meet">
         <g id="arrow_out" transform="scale(0.3 0.3)">
          <a xlink:href="namespacea60_1_1metadata_adaac386081b82c7acc9c8dc59061f082_cgraph_org.svg" target="_base">
           <rect id="button" ry="5" rx="5" y="6" x="6" height="38" width="38"
                fill="#f2f5e9" fill-opacity="0.5" stroke="#606060" stroke-width="1.0"/>
           <path id="arrow"
             d="M 11.500037,31.436501 C 11.940474,20.09759 22.043105,11.32322 32.158766,21.979434 L 37.068811,17.246167 C 37.068811,17.246167 37.088388,32 37.088388,32 L 22.160133,31.978069 C 22.160133,31.978069 26.997745,27.140456 26.997745,27.140456 C 18.528582,18.264221 13.291696,25.230495 11.500037,31.436501 z"
             style="fill:#404040;"/>
          </a>
         </g>
        </svg>
</svg>
