<?xml version="1.0" encoding="UTF-8" standalone="no"?>
<!DOCTYPE svg PUBLIC "-//W3C//DTD SVG 1.1//EN"
 "http://www.w3.org/Graphics/SVG/1.1/DTD/svg11.dtd">
<!-- Generated by graphviz version 5.0.0 (0)
 -->
<!-- Title: svg::dot_grid_seq Pages: 1 -->
<svg width="332pt" height="202pt"
 viewBox="0.00 0.00 332.00 201.50" xmlns="http://www.w3.org/2000/svg" xmlns:xlink="http://www.w3.org/1999/xlink">
<g id="graph0" class="graph" transform="scale(1 1) rotate(0) translate(4 197.5)">
<title>svg::dot_grid_seq</title>
<!-- Node1 -->
<g id="node1" class="node">
<title>Node1</title>
<g id="a_node1"><a xlink:title="Randomly create grid of [maxwidth] x [maxheight] grid, and fill with dots.">
<polygon fill="#999999" stroke="#666666" points="83,-101 0,-101 0,-84 83,-84 83,-101"/>
<text text-anchor="middle" x="41.5" y="-90.6" font-family="SourceSans" font-size="8.00">svg::dot_grid_seq</text>
</a>
</g>
</g>
<!-- Node2 -->
<g id="node2" class="node">
<title>Node2</title>
<g id="a_node2"><a xlink:href="group__elements.html#a519382631540ecedee961bfb53e9ae87" target="_top" xlink:title=" ">
<polygon fill="white" stroke="#666666" points="214,-193.5 125,-193.5 125,-167.5 214,-167.5 214,-193.5"/>
<text text-anchor="start" x="133" y="-183.1" font-family="SourceSans" font-size="8.00">svg::circle_element</text>
<text text-anchor="middle" x="169.5" y="-174.1" font-family="SourceSans" font-size="8.00">::add_data</text>
</a>
</g>
</g>
<!-- Node1&#45;&gt;Node2 -->
<g id="edge1" class="edge">
<title>Node1&#45;&gt;Node2</title>
<path fill="none" stroke="#63b8ff" d="M50.78,-101.12C64.15,-114.68 91.74,-141.22 119,-158.5 121.3,-159.96 123.72,-161.37 126.19,-162.73"/>
<polygon fill="#63b8ff" stroke="#63b8ff" points="124.81,-165.95 135.31,-167.38 127.99,-159.72 124.81,-165.95"/>
</g>
<!-- Node3 -->
<g id="node3" class="node">
<title>Node3</title>
<g id="a_node3"><a xlink:href="group__elements.html#a238b38ca99a1cf6c2baf80c8e4338d99" target="_top" xlink:title=" ">
<polygon fill="white" stroke="#666666" points="215.5,-149.5 123.5,-149.5 123.5,-123.5 215.5,-123.5 215.5,-149.5"/>
<text text-anchor="start" x="131.5" y="-139.1" font-family="SourceSans" font-size="8.00">svg::element_base::</text>
<text text-anchor="middle" x="169.5" y="-130.1" font-family="SourceSans" font-size="8.00">add_style</text>
</a>
</g>
</g>
<!-- Node1&#45;&gt;Node3 -->
<g id="edge2" class="edge">
<title>Node1&#45;&gt;Node3</title>
<path fill="none" stroke="#63b8ff" d="M67.09,-101.09C82.58,-106.5 103.08,-113.66 121.6,-120.12"/>
<polygon fill="#63b8ff" stroke="#63b8ff" points="120.46,-123.43 131.06,-123.43 122.77,-116.82 120.46,-123.43"/>
</g>
<!-- Node5 -->
<g id="node5" class="node">
<title>Node5</title>
<g id="a_node5"><a xlink:href="group__elements.html#ga98a1538c46e39122d8199c12b3a57b5d" target="_top" xlink:title=" ">
<polygon fill="white" stroke="#666666" points="214,-105.5 125,-105.5 125,-79.5 214,-79.5 214,-105.5"/>
<text text-anchor="start" x="133" y="-95.1" font-family="SourceSans" font-size="8.00">svg::circle_element</text>
<text text-anchor="middle" x="169.5" y="-86.1" font-family="SourceSans" font-size="8.00">::finish_element</text>
</a>
</g>
</g>
<!-- Node1&#45;&gt;Node5 -->
<g id="edge4" class="edge">
<title>Node1&#45;&gt;Node5</title>
<path fill="none" stroke="#63b8ff" d="M83.06,-92.5C93.2,-92.5 104.23,-92.5 114.9,-92.5"/>
<polygon fill="#63b8ff" stroke="#63b8ff" points="114.97,-96 124.97,-92.5 114.97,-89 114.97,-96"/>
</g>
<!-- Node6 -->
<g id="node6" class="node">
<title>Node6</title>
<g id="a_node6"><a xlink:href="group__elements.html#a793cb6b40b2aea335b11f14fd327cde8" target="_top" xlink:title=" ">
<polygon fill="white" stroke="#666666" points="214,-61.5 125,-61.5 125,-35.5 214,-35.5 214,-61.5"/>
<text text-anchor="start" x="133" y="-51.1" font-family="SourceSans" font-size="8.00">svg::circle_element</text>
<text text-anchor="middle" x="169.5" y="-42.1" font-family="SourceSans" font-size="8.00">::start_element</text>
</a>
</g>
</g>
<!-- Node1&#45;&gt;Node6 -->
<g id="edge5" class="edge">
<title>Node1&#45;&gt;Node6</title>
<path fill="none" stroke="#63b8ff" d="M67.09,-83.91C82.58,-78.5 103.08,-71.34 121.6,-64.88"/>
<polygon fill="#63b8ff" stroke="#63b8ff" points="122.77,-68.18 131.06,-61.57 120.46,-61.57 122.77,-68.18"/>
</g>
<!-- Node7 -->
<g id="node7" class="node">
<title>Node7</title>
<g id="a_node7"><a xlink:href="group__elements.html#a99ff90a016db190ee8bb5ee8c045e329" target="_top" xlink:title=" ">
<polygon fill="white" stroke="#666666" points="220,-17 119,-17 119,0 220,0 220,-17"/>
<text text-anchor="middle" x="169.5" y="-6.6" font-family="SourceSans" font-size="8.00">svg::element_base::str</text>
</a>
</g>
</g>
<!-- Node1&#45;&gt;Node7 -->
<g id="edge6" class="edge">
<title>Node1&#45;&gt;Node7</title>
<path fill="none" stroke="#63b8ff" d="M50.64,-83.65C63.82,-69.78 91.16,-42.82 119,-26.5 122.45,-24.48 126.17,-22.62 129.96,-20.93"/>
<polygon fill="#63b8ff" stroke="#63b8ff" points="131.48,-24.09 139.43,-17.08 128.85,-17.6 131.48,-24.09"/>
</g>
<!-- Node4 -->
<g id="node4" class="node">
<title>Node4</title>
<g id="a_node4"><a xlink:href="namespacesvg.html#a36b1c48ad4601b205790e3772ad0a7b6" target="_top" xlink:title=" ">
<polygon fill="white" stroke="#666666" points="324,-145 256,-145 256,-128 324,-128 324,-145"/>
<text text-anchor="middle" x="290" y="-134.6" font-family="SourceSans" font-size="8.00">svg::to_string</text>
</a>
</g>
</g>
<!-- Node3&#45;&gt;Node4 -->
<g id="edge3" class="edge">
<title>Node3&#45;&gt;Node4</title>
<path fill="none" stroke="#63b8ff" d="M215.64,-136.5C225.44,-136.5 235.78,-136.5 245.52,-136.5"/>
<polygon fill="#63b8ff" stroke="#63b8ff" points="245.78,-140 255.78,-136.5 245.78,-133 245.78,-140"/>
</g>
</g>
</svg>
