<?xml version="1.0" encoding="UTF-8" standalone="no"?>
<!DOCTYPE svg PUBLIC "-//W3C//DTD SVG 1.1//EN"
 "http://www.w3.org/Graphics/SVG/1.1/DTD/svg11.dtd">
<!-- Generated by graphviz version 5.0.0 (0)
 -->
<!-- Title: svg::point_2d_to_rect_blur Pages: 1 -->
<svg width="395pt" height="254pt"
 viewBox="0.00 0.00 395.00 254.00" xmlns="http://www.w3.org/2000/svg" xmlns:xlink="http://www.w3.org/1999/xlink">
<g id="graph0" class="graph" transform="scale(1 1) rotate(0) translate(4 250)">
<title>svg::point_2d_to_rect_blur</title>
<!-- Node1 -->
<g id="node1" class="node">
<title>Node1</title>
<g id="a_node1"><a xlink:title="Point to rectangle blur.">
<polygon fill="#999999" stroke="#666666" points="116,-131.5 0,-131.5 0,-114.5 116,-114.5 116,-131.5"/>
<text text-anchor="middle" x="58" y="-121.1" font-family="SourceSans" font-size="8.00">svg::point_2d_to_rect_blur</text>
</a>
</g>
</g>
<!-- Node2 -->
<g id="node2" class="node">
<title>Node2</title>
<g id="a_node2"><a xlink:href="group__elements.html#a1dd6663d882fb5dd14a47462a77f351b" target="_top" xlink:title="Either serialize immediately (as below), or create data structure that adds data to data_vec and then...">
<polygon fill="white" stroke="#666666" points="246.5,-246 158.5,-246 158.5,-220 246.5,-220 246.5,-246"/>
<text text-anchor="start" x="166.5" y="-235.6" font-family="SourceSans" font-size="8.00">svg::rect_element::</text>
<text text-anchor="middle" x="202.5" y="-226.6" font-family="SourceSans" font-size="8.00">add_data</text>
</a>
</g>
</g>
<!-- Node1&#45;&gt;Node2 -->
<g id="edge1" class="edge">
<title>Node1&#45;&gt;Node2</title>
<path fill="none" stroke="#63b8ff" d="M66.18,-131.51C80.85,-148.48 115.93,-186.96 152,-211 154.16,-212.44 156.42,-213.82 158.75,-215.14"/>
<polygon fill="#63b8ff" stroke="#63b8ff" points="157.44,-218.41 167.92,-219.95 160.69,-212.21 157.44,-218.41"/>
</g>
<!-- Node3 -->
<g id="node3" class="node">
<title>Node3</title>
<g id="a_node3"><a xlink:href="group__elements.html#adb6116b96467cc39cb178deb10c7a869" target="_top" xlink:title=" ">
<polygon fill="white" stroke="#666666" points="253,-202 152,-202 152,-176 253,-176 253,-202"/>
<text text-anchor="start" x="160" y="-191.6" font-family="SourceSans" font-size="8.00">svg::svg_element::add</text>
<text text-anchor="middle" x="202.5" y="-182.6" font-family="SourceSans" font-size="8.00">_element</text>
</a>
</g>
</g>
<!-- Node1&#45;&gt;Node3 -->
<g id="edge2" class="edge">
<title>Node1&#45;&gt;Node3</title>
<path fill="none" stroke="#63b8ff" d="M76.77,-131.56C95.44,-140.52 125.7,-154.94 152,-167 155.41,-168.56 158.95,-170.17 162.51,-171.77"/>
<polygon fill="#63b8ff" stroke="#63b8ff" points="161.31,-175.07 171.87,-175.97 164.18,-168.69 161.31,-175.07"/>
</g>
<!-- Node4 -->
<g id="node4" class="node">
<title>Node4</title>
<g id="a_node4"><a xlink:href="group__elements.html#a1b22cfab9437b40c8b877ffe5472ff02" target="_top" xlink:title=" ">
<polygon fill="white" stroke="#666666" points="248.5,-158 156.5,-158 156.5,-132 248.5,-132 248.5,-158"/>
<text text-anchor="start" x="164.5" y="-147.6" font-family="SourceSans" font-size="8.00">svg::element_base::</text>
<text text-anchor="middle" x="202.5" y="-138.6" font-family="SourceSans" font-size="8.00">add_filter</text>
</a>
</g>
</g>
<!-- Node1&#45;&gt;Node4 -->
<g id="edge3" class="edge">
<title>Node1&#45;&gt;Node4</title>
<path fill="none" stroke="#63b8ff" d="M114.09,-131.51C124.66,-133.14 135.72,-134.85 146.29,-136.48"/>
<polygon fill="#63b8ff" stroke="#63b8ff" points="145.82,-139.95 156.24,-138.01 146.89,-133.03 145.82,-139.95"/>
</g>
<!-- Node7 -->
<g id="node7" class="node">
<title>Node7</title>
<g id="a_node7"><a xlink:href="group__elements.html#a238b38ca99a1cf6c2baf80c8e4338d99" target="_top" xlink:title=" ">
<polygon fill="white" stroke="#666666" points="248.5,-114 156.5,-114 156.5,-88 248.5,-88 248.5,-114"/>
<text text-anchor="start" x="164.5" y="-103.6" font-family="SourceSans" font-size="8.00">svg::element_base::</text>
<text text-anchor="middle" x="202.5" y="-94.6" font-family="SourceSans" font-size="8.00">add_style</text>
</a>
</g>
</g>
<!-- Node1&#45;&gt;Node7 -->
<g id="edge6" class="edge">
<title>Node1&#45;&gt;Node7</title>
<path fill="none" stroke="#63b8ff" d="M114.09,-114.49C124.66,-112.86 135.72,-111.15 146.29,-109.52"/>
<polygon fill="#63b8ff" stroke="#63b8ff" points="146.89,-112.97 156.24,-107.99 145.82,-106.05 146.89,-112.97"/>
</g>
<!-- Node9 -->
<g id="node9" class="node">
<title>Node9</title>
<g id="a_node9"><a xlink:href="group__elements.html#gad01750ac554c6bd6871a930c90e17a04" target="_top" xlink:title=" ">
<polygon fill="white" stroke="#666666" points="246.5,-70 158.5,-70 158.5,-44 246.5,-44 246.5,-70"/>
<text text-anchor="start" x="166.5" y="-59.6" font-family="SourceSans" font-size="8.00">svg::rect_element::</text>
<text text-anchor="middle" x="202.5" y="-50.6" font-family="SourceSans" font-size="8.00">finish_element</text>
</a>
</g>
</g>
<!-- Node1&#45;&gt;Node9 -->
<g id="edge8" class="edge">
<title>Node1&#45;&gt;Node9</title>
<path fill="none" stroke="#63b8ff" d="M76.77,-114.44C95.44,-105.48 125.7,-91.06 152,-79 155.41,-77.44 158.95,-75.83 162.51,-74.23"/>
<polygon fill="#63b8ff" stroke="#63b8ff" points="164.18,-77.31 171.87,-70.03 161.31,-70.93 164.18,-77.31"/>
</g>
<!-- Node10 -->
<g id="node10" class="node">
<title>Node10</title>
<g id="a_node10"><a xlink:href="group__elements.html#a1e0ed5e9dfe1244317a87d7e6774348b" target="_top" xlink:title=" ">
<polygon fill="white" stroke="#666666" points="246.5,-26 158.5,-26 158.5,0 246.5,0 246.5,-26"/>
<text text-anchor="start" x="166.5" y="-15.6" font-family="SourceSans" font-size="8.00">svg::rect_element::</text>
<text text-anchor="middle" x="202.5" y="-6.6" font-family="SourceSans" font-size="8.00">start_element</text>
</a>
</g>
</g>
<!-- Node1&#45;&gt;Node10 -->
<g id="edge9" class="edge">
<title>Node1&#45;&gt;Node10</title>
<path fill="none" stroke="#63b8ff" d="M66.18,-114.49C80.85,-97.52 115.93,-59.04 152,-35 154.16,-33.56 156.42,-32.18 158.75,-30.86"/>
<polygon fill="#63b8ff" stroke="#63b8ff" points="160.69,-33.79 167.92,-26.05 157.44,-27.59 160.69,-33.79"/>
</g>
<!-- Node5 -->
<g id="node5" class="node">
<title>Node5</title>
<g id="a_node5"><a xlink:href="namespacesvg_1_1constants.html#a3972655f1dfdc090ec2592d1fb37e87c" target="_top" xlink:title=" ">
<polygon fill="white" stroke="#666666" points="387,-183.5 289,-183.5 289,-166.5 387,-166.5 387,-183.5"/>
<text text-anchor="middle" x="338" y="-173.1" font-family="SourceSans" font-size="8.00">svg::constants::quote</text>
</a>
</g>
</g>
<!-- Node4&#45;&gt;Node5 -->
<g id="edge4" class="edge">
<title>Node4&#45;&gt;Node5</title>
<path fill="none" stroke="#63b8ff" d="M248.7,-155.16C261.72,-158.08 275.96,-161.28 289.14,-164.24"/>
<polygon fill="#63b8ff" stroke="#63b8ff" points="288.44,-167.68 298.97,-166.45 289.98,-160.85 288.44,-167.68"/>
</g>
<!-- Node6 -->
<g id="node6" class="node">
<title>Node6</title>
<g id="a_node6"><a xlink:href="namespacesvg_1_1constants.html#ac460bc8db60d85c3ae1cf8b1a903405e" target="_top" xlink:title="Formatting character constants.">
<polygon fill="white" stroke="#666666" points="386.5,-148.5 289.5,-148.5 289.5,-131.5 386.5,-131.5 386.5,-148.5"/>
<text text-anchor="middle" x="338" y="-138.1" font-family="SourceSans" font-size="8.00">svg::constants::space</text>
</a>
</g>
</g>
<!-- Node4&#45;&gt;Node6 -->
<g id="edge5" class="edge">
<title>Node4&#45;&gt;Node6</title>
<path fill="none" stroke="#63b8ff" d="M248.7,-143.31C258.45,-142.94 268.9,-142.55 279.07,-142.17"/>
<polygon fill="#63b8ff" stroke="#63b8ff" points="279.25,-145.67 289.11,-141.79 278.99,-138.67 279.25,-145.67"/>
</g>
<!-- Node8 -->
<g id="node8" class="node">
<title>Node8</title>
<g id="a_node8"><a xlink:href="namespacesvg.html#a36b1c48ad4601b205790e3772ad0a7b6" target="_top" xlink:title=" ">
<polygon fill="white" stroke="#666666" points="372,-109.5 304,-109.5 304,-92.5 372,-92.5 372,-109.5"/>
<text text-anchor="middle" x="338" y="-99.1" font-family="SourceSans" font-size="8.00">svg::to_string</text>
</a>
</g>
</g>
<!-- Node7&#45;&gt;Node8 -->
<g id="edge7" class="edge">
<title>Node7&#45;&gt;Node8</title>
<path fill="none" stroke="#63b8ff" d="M248.7,-101C263.18,-101 279.19,-101 293.55,-101"/>
<polygon fill="#63b8ff" stroke="#63b8ff" points="293.67,-104.5 303.67,-101 293.67,-97.5 293.67,-104.5"/>
</g>
</g>
</svg>
