<?xml version="1.0" encoding="UTF-8" standalone="no"?>
<!DOCTYPE svg PUBLIC "-//W3C//DTD SVG 1.1//EN"
 "http://www.w3.org/Graphics/SVG/1.1/DTD/svg11.dtd">
<!-- Generated by graphviz version 5.0.0 (0)
 -->
<!-- Title: svg::optical_sound_dots_seq Pages: 1 -->
<svg width="455pt" height="202pt"
 viewBox="0.00 0.00 455.00 201.50" xmlns="http://www.w3.org/2000/svg" xmlns:xlink="http://www.w3.org/1999/xlink">
<g id="graph0" class="graph" transform="scale(1 1) rotate(0) translate(4 197.5)">
<title>svg::optical_sound_dots_seq</title>
<!-- Node1 -->
<g id="node1" class="node">
<title>Node1</title>
<g id="a_node1"><a xlink:title=" ">
<polygon fill="#999999" stroke="#666666" points="87,-105.5 0,-105.5 0,-79.5 87,-79.5 87,-105.5"/>
<text text-anchor="start" x="8" y="-95.1" font-family="SourceSans" font-size="8.00">svg::optical_sound</text>
<text text-anchor="middle" x="43.5" y="-86.1" font-family="SourceSans" font-size="8.00">_dots_seq</text>
</a>
</g>
</g>
<!-- Node2 -->
<g id="node2" class="node">
<title>Node2</title>
<g id="a_node2"><a xlink:href="namespacesvg.html#a01a6d733d565faa3b230634430da4f3f" target="_top" xlink:title="Randomly create grid of [maxwidth] x [maxheight] grid, and fill with dots.">
<polygon fill="white" stroke="#666666" points="206,-101 123,-101 123,-84 206,-84 206,-101"/>
<text text-anchor="middle" x="164.5" y="-90.6" font-family="SourceSans" font-size="8.00">svg::dot_grid_seq</text>
</a>
</g>
</g>
<!-- Node1&#45;&gt;Node2 -->
<g id="edge1" class="edge">
<title>Node1&#45;&gt;Node2</title>
<path fill="none" stroke="#63b8ff" d="M87.13,-92.5C95.38,-92.5 104.1,-92.5 112.58,-92.5"/>
<polygon fill="#63b8ff" stroke="#63b8ff" points="112.76,-96 122.76,-92.5 112.76,-89 112.76,-96"/>
</g>
<!-- Node3 -->
<g id="node3" class="node">
<title>Node3</title>
<g id="a_node3"><a xlink:href="group__elements.html#a519382631540ecedee961bfb53e9ae87" target="_top" xlink:title=" ">
<polygon fill="white" stroke="#666666" points="337,-193.5 248,-193.5 248,-167.5 337,-167.5 337,-193.5"/>
<text text-anchor="start" x="256" y="-183.1" font-family="SourceSans" font-size="8.00">svg::circle_element</text>
<text text-anchor="middle" x="292.5" y="-174.1" font-family="SourceSans" font-size="8.00">::add_data</text>
</a>
</g>
</g>
<!-- Node2&#45;&gt;Node3 -->
<g id="edge2" class="edge">
<title>Node2&#45;&gt;Node3</title>
<path fill="none" stroke="#63b8ff" d="M173.78,-101.12C187.15,-114.68 214.74,-141.22 242,-158.5 244.3,-159.96 246.72,-161.37 249.19,-162.73"/>
<polygon fill="#63b8ff" stroke="#63b8ff" points="247.81,-165.95 258.31,-167.38 250.99,-159.72 247.81,-165.95"/>
</g>
<!-- Node4 -->
<g id="node4" class="node">
<title>Node4</title>
<g id="a_node4"><a xlink:href="group__elements.html#a238b38ca99a1cf6c2baf80c8e4338d99" target="_top" xlink:title=" ">
<polygon fill="white" stroke="#666666" points="338.5,-149.5 246.5,-149.5 246.5,-123.5 338.5,-123.5 338.5,-149.5"/>
<text text-anchor="start" x="254.5" y="-139.1" font-family="SourceSans" font-size="8.00">svg::element_base::</text>
<text text-anchor="middle" x="292.5" y="-130.1" font-family="SourceSans" font-size="8.00">add_style</text>
</a>
</g>
</g>
<!-- Node2&#45;&gt;Node4 -->
<g id="edge3" class="edge">
<title>Node2&#45;&gt;Node4</title>
<path fill="none" stroke="#63b8ff" d="M190.09,-101.09C205.58,-106.5 226.08,-113.66 244.6,-120.12"/>
<polygon fill="#63b8ff" stroke="#63b8ff" points="243.46,-123.43 254.06,-123.43 245.77,-116.82 243.46,-123.43"/>
</g>
<!-- Node6 -->
<g id="node6" class="node">
<title>Node6</title>
<g id="a_node6"><a xlink:href="group__elements.html#ga98a1538c46e39122d8199c12b3a57b5d" target="_top" xlink:title=" ">
<polygon fill="white" stroke="#666666" points="337,-105.5 248,-105.5 248,-79.5 337,-79.5 337,-105.5"/>
<text text-anchor="start" x="256" y="-95.1" font-family="SourceSans" font-size="8.00">svg::circle_element</text>
<text text-anchor="middle" x="292.5" y="-86.1" font-family="SourceSans" font-size="8.00">::finish_element</text>
</a>
</g>
</g>
<!-- Node2&#45;&gt;Node6 -->
<g id="edge5" class="edge">
<title>Node2&#45;&gt;Node6</title>
<path fill="none" stroke="#63b8ff" d="M206.06,-92.5C216.2,-92.5 227.23,-92.5 237.9,-92.5"/>
<polygon fill="#63b8ff" stroke="#63b8ff" points="237.97,-96 247.97,-92.5 237.97,-89 237.97,-96"/>
</g>
<!-- Node7 -->
<g id="node7" class="node">
<title>Node7</title>
<g id="a_node7"><a xlink:href="group__elements.html#a793cb6b40b2aea335b11f14fd327cde8" target="_top" xlink:title=" ">
<polygon fill="white" stroke="#666666" points="337,-61.5 248,-61.5 248,-35.5 337,-35.5 337,-61.5"/>
<text text-anchor="start" x="256" y="-51.1" font-family="SourceSans" font-size="8.00">svg::circle_element</text>
<text text-anchor="middle" x="292.5" y="-42.1" font-family="SourceSans" font-size="8.00">::start_element</text>
</a>
</g>
</g>
<!-- Node2&#45;&gt;Node7 -->
<g id="edge6" class="edge">
<title>Node2&#45;&gt;Node7</title>
<path fill="none" stroke="#63b8ff" d="M190.09,-83.91C205.58,-78.5 226.08,-71.34 244.6,-64.88"/>
<polygon fill="#63b8ff" stroke="#63b8ff" points="245.77,-68.18 254.06,-61.57 243.46,-61.57 245.77,-68.18"/>
</g>
<!-- Node8 -->
<g id="node8" class="node">
<title>Node8</title>
<g id="a_node8"><a xlink:href="group__elements.html#a99ff90a016db190ee8bb5ee8c045e329" target="_top" xlink:title=" ">
<polygon fill="white" stroke="#666666" points="343,-17 242,-17 242,0 343,0 343,-17"/>
<text text-anchor="middle" x="292.5" y="-6.6" font-family="SourceSans" font-size="8.00">svg::element_base::str</text>
</a>
</g>
</g>
<!-- Node2&#45;&gt;Node8 -->
<g id="edge7" class="edge">
<title>Node2&#45;&gt;Node8</title>
<path fill="none" stroke="#63b8ff" d="M173.64,-83.65C186.82,-69.78 214.16,-42.82 242,-26.5 245.45,-24.48 249.17,-22.62 252.96,-20.93"/>
<polygon fill="#63b8ff" stroke="#63b8ff" points="254.48,-24.09 262.43,-17.08 251.85,-17.6 254.48,-24.09"/>
</g>
<!-- Node5 -->
<g id="node5" class="node">
<title>Node5</title>
<g id="a_node5"><a xlink:href="namespacesvg.html#a36b1c48ad4601b205790e3772ad0a7b6" target="_top" xlink:title=" ">
<polygon fill="white" stroke="#666666" points="447,-145 379,-145 379,-128 447,-128 447,-145"/>
<text text-anchor="middle" x="413" y="-134.6" font-family="SourceSans" font-size="8.00">svg::to_string</text>
</a>
</g>
</g>
<!-- Node4&#45;&gt;Node5 -->
<g id="edge4" class="edge">
<title>Node4&#45;&gt;Node5</title>
<path fill="none" stroke="#63b8ff" d="M338.64,-136.5C348.44,-136.5 358.78,-136.5 368.52,-136.5"/>
<polygon fill="#63b8ff" stroke="#63b8ff" points="368.78,-140 378.78,-136.5 368.78,-133 368.78,-140"/>
</g>
</g>
</svg>
