<?xml version="1.0" encoding="UTF-8" standalone="no"?>
<!DOCTYPE svg PUBLIC "-//W3C//DTD SVG 1.1//EN"
 "http://www.w3.org/Graphics/SVG/1.1/DTD/svg11.dtd">
<!-- Generated by graphviz version 5.0.0 (0)
 -->
<!-- Title: svg::make_path_center_mark Pages: 1 -->
<svg width="275pt" height="60pt"
 viewBox="0.00 0.00 275.00 60.00" xmlns="http://www.w3.org/2000/svg" xmlns:xlink="http://www.w3.org/1999/xlink">
<g id="graph0" class="graph" transform="scale(1 1) rotate(0) translate(4 56)">
<title>svg::make_path_center_mark</title>
<!-- Node1 -->
<g id="node1" class="node">
<title>Node1</title>
<g id="a_node1"><a xlink:title="Plus or x tilt mark as closed path that can be filled.">
<polygon fill="#999999" stroke="#666666" points="128,-34 0,-34 0,-17 128,-17 128,-34"/>
<text text-anchor="middle" x="64" y="-23.6" font-family="SourceSans" font-size="8.00">svg::make_path_center_mark</text>
</a>
</g>
</g>
<!-- Node2 -->
<g id="node2" class="node">
<title>Node2</title>
<g id="a_node2"><a xlink:href="namespacesvg_1_1constants.html#a70757c054f02146f803e0e40071734a9" target="_top" xlink:title=" ">
<polygon fill="white" stroke="#666666" points="267,-52 164,-52 164,-35 267,-35 267,-52"/>
<text text-anchor="middle" x="215.5" y="-41.6" font-family="SourceSans" font-size="8.00">svg::constants::comma</text>
</a>
</g>
</g>
<!-- Node1&#45;&gt;Node2 -->
<g id="edge1" class="edge">
<title>Node1&#45;&gt;Node2</title>
<path fill="none" stroke="#63b8ff" d="M128.4,-33.13C136.78,-34.14 145.34,-35.17 153.67,-36.18"/>
<polygon fill="#63b8ff" stroke="#63b8ff" points="153.34,-39.66 163.68,-37.38 154.17,-32.71 153.34,-39.66"/>
</g>
<!-- Node3 -->
<g id="node3" class="node">
<title>Node3</title>
<g id="a_node3"><a xlink:href="namespacesvg_1_1constants.html#ac460bc8db60d85c3ae1cf8b1a903405e" target="_top" xlink:title="Formatting character constants.">
<polygon fill="white" stroke="#666666" points="264,-17 167,-17 167,0 264,0 264,-17"/>
<text text-anchor="middle" x="215.5" y="-6.6" font-family="SourceSans" font-size="8.00">svg::constants::space</text>
</a>
</g>
</g>
<!-- Node1&#45;&gt;Node3 -->
<g id="edge2" class="edge">
<title>Node1&#45;&gt;Node3</title>
<path fill="none" stroke="#63b8ff" d="M128.4,-18.29C137.87,-17.21 147.59,-16.11 156.92,-15.05"/>
<polygon fill="#63b8ff" stroke="#63b8ff" points="157.34,-18.52 166.88,-13.92 156.55,-11.57 157.34,-18.52"/>
</g>
</g>
</svg>
