<?xml version="1.0" encoding="UTF-8" standalone="no"?>
<!DOCTYPE svg PUBLIC "-//W3C//DTD SVG 1.1//EN"
 "http://www.w3.org/Graphics/SVG/1.1/DTD/svg11.dtd">
<!-- Generated by graphviz version 5.0.0 (0)
 -->
<!-- Title: svg::styled_text Pages: 1 -->
<svg width="487pt" height="277pt"
 viewBox="0.00 0.00 487.00 276.50" xmlns="http://www.w3.org/2000/svg" xmlns:xlink="http://www.w3.org/1999/xlink">
<g id="graph0" class="graph" transform="scale(1 1) rotate(0) translate(4 272.5)">
<title>svg::styled_text</title>
<!-- Node1 -->
<g id="node1" class="node">
<title>Node1</title>
<g id="a_node1"><a xlink:title="Text at @origin, with style and transform.">
<polygon fill="#999999" stroke="#666666" points="75,-87.5 0,-87.5 0,-70.5 75,-70.5 75,-87.5"/>
<text text-anchor="middle" x="37.5" y="-77.1" font-family="SourceSans" font-size="8.00">svg::styled_text</text>
</a>
</g>
</g>
<!-- Node2 -->
<g id="node2" class="node">
<title>Node2</title>
<g id="a_node2"><a xlink:href="group__elements.html#aad29e1daf75bdcd69a39575a6807fa0f" target="_top" xlink:title="Either serialize immediately (as below), or create data structure that adds data to data_vec and then...">
<polygon fill="white" stroke="#666666" points="206,-158 117,-158 117,-132 206,-132 206,-158"/>
<text text-anchor="start" x="125" y="-147.6" font-family="SourceSans" font-size="8.00">svg::text_element::</text>
<text text-anchor="middle" x="161.5" y="-138.6" font-family="SourceSans" font-size="8.00">add_data</text>
</a>
</g>
</g>
<!-- Node1&#45;&gt;Node2 -->
<g id="edge1" class="edge">
<title>Node1&#45;&gt;Node2</title>
<path fill="none" stroke="#63b8ff" d="M51.57,-87.63C65.87,-96.9 89.6,-111.81 111,-123 114.05,-124.6 117.24,-126.18 120.47,-127.74"/>
<polygon fill="#63b8ff" stroke="#63b8ff" points="119.04,-130.93 129.58,-131.99 122,-124.59 119.04,-130.93"/>
</g>
<!-- Node9 -->
<g id="node9" class="node">
<title>Node9</title>
<g id="a_node9"><a xlink:href="group__elements.html#adb6116b96467cc39cb178deb10c7a869" target="_top" xlink:title=" ">
<polygon fill="white" stroke="#666666" points="212,-114 111,-114 111,-88 212,-88 212,-114"/>
<text text-anchor="start" x="119" y="-103.6" font-family="SourceSans" font-size="8.00">svg::svg_element::add</text>
<text text-anchor="middle" x="161.5" y="-94.6" font-family="SourceSans" font-size="8.00">_element</text>
</a>
</g>
</g>
<!-- Node1&#45;&gt;Node9 -->
<g id="edge10" class="edge">
<title>Node1&#45;&gt;Node9</title>
<path fill="none" stroke="#63b8ff" d="M75.1,-85.6C83.26,-87.07 92.12,-88.67 100.94,-90.26"/>
<polygon fill="#63b8ff" stroke="#63b8ff" points="100.37,-93.71 110.83,-92.04 101.61,-86.82 100.37,-93.71"/>
</g>
<!-- Node10 -->
<g id="node10" class="node">
<title>Node10</title>
<g id="a_node10"><a xlink:href="group__elements.html#ga13c46848317034d16c62a7d2061ba3d6" target="_top" xlink:title=" ">
<polygon fill="white" stroke="#666666" points="206,-70 117,-70 117,-44 206,-44 206,-70"/>
<text text-anchor="start" x="125" y="-59.6" font-family="SourceSans" font-size="8.00">svg::text_element::</text>
<text text-anchor="middle" x="161.5" y="-50.6" font-family="SourceSans" font-size="8.00">finish_element</text>
</a>
</g>
</g>
<!-- Node1&#45;&gt;Node10 -->
<g id="edge11" class="edge">
<title>Node1&#45;&gt;Node10</title>
<path fill="none" stroke="#63b8ff" d="M75.1,-72.4C85,-70.62 95.92,-68.65 106.54,-66.73"/>
<polygon fill="#63b8ff" stroke="#63b8ff" points="107.38,-70.13 116.6,-64.92 106.14,-63.25 107.38,-70.13"/>
</g>
<!-- Node11 -->
<g id="node11" class="node">
<title>Node11</title>
<g id="a_node11"><a xlink:href="group__elements.html#ae45bec611a6ec17ea46aab6d680ae042" target="_top" xlink:title=" ">
<polygon fill="white" stroke="#666666" points="206,-26 117,-26 117,0 206,0 206,-26"/>
<text text-anchor="start" x="125" y="-15.6" font-family="SourceSans" font-size="8.00">svg::text_element::</text>
<text text-anchor="middle" x="161.5" y="-6.6" font-family="SourceSans" font-size="8.00">start_element</text>
</a>
</g>
</g>
<!-- Node1&#45;&gt;Node11 -->
<g id="edge12" class="edge">
<title>Node1&#45;&gt;Node11</title>
<path fill="none" stroke="#63b8ff" d="M51.57,-70.37C65.87,-61.1 89.6,-46.19 111,-35 114.05,-33.4 117.24,-31.82 120.47,-30.26"/>
<polygon fill="#63b8ff" stroke="#63b8ff" points="122,-33.41 129.58,-26.01 119.04,-27.07 122,-33.41"/>
</g>
<!-- Node3 -->
<g id="node3" class="node">
<title>Node3</title>
<g id="a_node3"><a xlink:href="structsvg_1_1typography.html#adbc62f74f1fed3f7c77567250f084f83" target="_top" xlink:title=" ">
<polygon fill="white" stroke="#666666" points="345,-199 248,-199 248,-173 345,-173 345,-199"/>
<text text-anchor="start" x="256" y="-188.6" font-family="SourceSans" font-size="8.00">svg::typography::add</text>
<text text-anchor="middle" x="296.5" y="-179.6" font-family="SourceSans" font-size="8.00">_attribute</text>
</a>
</g>
</g>
<!-- Node2&#45;&gt;Node3 -->
<g id="edge2" class="edge">
<title>Node2&#45;&gt;Node3</title>
<path fill="none" stroke="#63b8ff" d="M204.95,-158.09C217.18,-161.86 230.68,-166.02 243.43,-169.95"/>
<polygon fill="#63b8ff" stroke="#63b8ff" points="242.41,-173.3 253,-172.9 244.47,-166.61 242.41,-173.3"/>
</g>
<!-- Node6 -->
<g id="node6" class="node">
<title>Node6</title>
<g id="a_node6"><a xlink:href="namespacesvg.html#a48ac748e89e22789d1772326a98dd7b6" target="_top" xlink:title=" ">
<polygon fill="white" stroke="#666666" points="474,-153.5 386,-153.5 386,-136.5 474,-136.5 474,-153.5"/>
<text text-anchor="middle" x="430" y="-143.1" font-family="SourceSans" font-size="8.00">svg::string_replace</text>
</a>
</g>
</g>
<!-- Node2&#45;&gt;Node6 -->
<g id="edge8" class="edge">
<title>Node2&#45;&gt;Node6</title>
<path fill="none" stroke="#63b8ff" d="M206.21,-145C252.53,-145 325.72,-145 375.47,-145"/>
<polygon fill="#63b8ff" stroke="#63b8ff" points="375.71,-148.5 385.71,-145 375.71,-141.5 375.71,-148.5"/>
</g>
<!-- Node8 -->
<g id="node8" class="node">
<title>Node8</title>
<g id="a_node8"><a xlink:href="namespacesvg.html#a36b1c48ad4601b205790e3772ad0a7b6" target="_top" xlink:title=" ">
<polygon fill="white" stroke="#666666" points="464,-117.5 396,-117.5 396,-100.5 464,-100.5 464,-117.5"/>
<text text-anchor="middle" x="430" y="-107.1" font-family="SourceSans" font-size="8.00">svg::to_string</text>
</a>
</g>
</g>
<!-- Node2&#45;&gt;Node8 -->
<g id="edge9" class="edge">
<title>Node2&#45;&gt;Node8</title>
<path fill="none" stroke="#63b8ff" d="M206.21,-139.1C255.84,-132.39 336.31,-121.52 385.75,-114.84"/>
<polygon fill="#63b8ff" stroke="#63b8ff" points="386.37,-118.29 395.81,-113.48 385.43,-111.35 386.37,-118.29"/>
</g>
<!-- Node4 -->
<g id="node4" class="node">
<title>Node4</title>
<g id="a_node4"><a xlink:href="namespacesvg_1_1constants.html#a3972655f1dfdc090ec2592d1fb37e87c" target="_top" xlink:title=" ">
<polygon fill="white" stroke="#666666" points="479,-268.5 381,-268.5 381,-251.5 479,-251.5 479,-268.5"/>
<text text-anchor="middle" x="430" y="-258.1" font-family="SourceSans" font-size="8.00">svg::constants::quote</text>
</a>
</g>
</g>
<!-- Node3&#45;&gt;Node4 -->
<g id="edge3" class="edge">
<title>Node3&#45;&gt;Node4</title>
<path fill="none" stroke="#63b8ff" d="M313.97,-199.15C330.26,-211.68 356.27,-230.45 381,-243 384.35,-244.7 387.91,-246.3 391.52,-247.8"/>
<polygon fill="#63b8ff" stroke="#63b8ff" points="390.49,-251.15 401.08,-251.48 393,-244.62 390.49,-251.15"/>
</g>
<!-- Node5 -->
<g id="node5" class="node">
<title>Node5</title>
<g id="a_node5"><a xlink:href="namespacesvg_1_1constants.html#ac460bc8db60d85c3ae1cf8b1a903405e" target="_top" xlink:title="Formatting character constants.">
<polygon fill="white" stroke="#666666" points="478.5,-233.5 381.5,-233.5 381.5,-216.5 478.5,-216.5 478.5,-233.5"/>
<text text-anchor="middle" x="430" y="-223.1" font-family="SourceSans" font-size="8.00">svg::constants::space</text>
</a>
</g>
</g>
<!-- Node3&#45;&gt;Node5 -->
<g id="edge4" class="edge">
<title>Node3&#45;&gt;Node5</title>
<path fill="none" stroke="#63b8ff" d="M341.65,-199.09C357.44,-203.78 375.11,-209.02 390.39,-213.55"/>
<polygon fill="#63b8ff" stroke="#63b8ff" points="389.47,-216.93 400.05,-216.41 391.46,-210.22 389.47,-216.93"/>
</g>
<!-- Node3&#45;&gt;Node6 -->
<g id="edge5" class="edge">
<title>Node3&#45;&gt;Node6</title>
<path fill="none" stroke="#63b8ff" d="M339.47,-172.91C356.28,-167.67 375.48,-161.69 391.78,-156.61"/>
<polygon fill="#63b8ff" stroke="#63b8ff" points="393,-159.89 401.5,-153.57 390.92,-153.21 393,-159.89"/>
</g>
<!-- Node7 -->
<g id="node7" class="node">
<title>Node7</title>
<g id="a_node7"><a xlink:href="structsvg_1_1typography.html#a174c1ffb4e56214d71523ffe7e422561" target="_top" xlink:title=" ">
<polygon fill="white" stroke="#666666" points="474.5,-198 385.5,-198 385.5,-172 474.5,-172 474.5,-198"/>
<text text-anchor="start" x="393.5" y="-187.6" font-family="SourceSans" font-size="8.00">svg::typography::to</text>
<text text-anchor="middle" x="430" y="-178.6" font-family="SourceSans" font-size="8.00">_string</text>
</a>
</g>
</g>
<!-- Node3&#45;&gt;Node7 -->
<g id="edge6" class="edge">
<title>Node3&#45;&gt;Node7</title>
<path fill="none" stroke="#63b8ff" d="M345.35,-185.64C355.05,-185.56 365.31,-185.48 375.2,-185.41"/>
<polygon fill="#63b8ff" stroke="#63b8ff" points="375.36,-188.91 385.34,-185.33 375.31,-181.91 375.36,-188.91"/>
</g>
<!-- Node3&#45;&gt;Node8 -->
<g id="edge7" class="edge">
<title>Node3&#45;&gt;Node8</title>
<path fill="none" stroke="#63b8ff" d="M313.33,-172.94C329.56,-160.01 355.9,-140.29 381,-127 384.8,-124.99 388.89,-123.09 393,-121.34"/>
<polygon fill="#63b8ff" stroke="#63b8ff" points="394.57,-124.48 402.56,-117.53 391.97,-117.98 394.57,-124.48"/>
</g>
</g>
</svg>
