<?xml version="1.0" encoding="UTF-8" standalone="no"?>
<!DOCTYPE svg PUBLIC "-//W3C//DTD SVG 1.1//EN"
 "http://www.w3.org/Graphics/SVG/1.1/DTD/svg11.dtd">
<!-- Generated by graphviz version 5.0.0 (0)
 -->
<!-- Title: svg::sized_text_r Pages: 1 -->
<svg width="491pt" height="313pt"
 viewBox="0.00 0.00 491.00 312.50" xmlns="http://www.w3.org/2000/svg" xmlns:xlink="http://www.w3.org/1999/xlink">
<g id="graph0" class="graph" transform="scale(1 1) rotate(0) translate(4 308.5)">
<title>svg::sized_text_r</title>
<!-- Node1 -->
<g id="node1" class="node">
<title>Node1</title>
<g id="a_node1"><a xlink:title="Text at size, with a transformation=rotation.">
<polygon fill="#999999" stroke="#666666" points="79,-101.5 0,-101.5 0,-84.5 79,-84.5 79,-101.5"/>
<text text-anchor="middle" x="39.5" y="-91.1" font-family="SourceSans" font-size="8.00">svg::sized_text_r</text>
</a>
</g>
</g>
<!-- Node2 -->
<g id="node2" class="node">
<title>Node2</title>
<g id="a_node2"><a xlink:href="group__elements.html#aad29e1daf75bdcd69a39575a6807fa0f" target="_top" xlink:title="Either serialize immediately (as below), or create data structure that adds data to data_vec and then...">
<polygon fill="white" stroke="#666666" points="210,-194 121,-194 121,-168 210,-168 210,-194"/>
<text text-anchor="start" x="129" y="-183.6" font-family="SourceSans" font-size="8.00">svg::text_element::</text>
<text text-anchor="middle" x="165.5" y="-174.6" font-family="SourceSans" font-size="8.00">add_data</text>
</a>
</g>
</g>
<!-- Node1&#45;&gt;Node2 -->
<g id="edge1" class="edge">
<title>Node1&#45;&gt;Node2</title>
<path fill="none" stroke="#63b8ff" d="M48.52,-101.64C61.47,-115.23 88.26,-141.8 115,-159 117.29,-160.48 119.7,-161.9 122.17,-163.26"/>
<polygon fill="#63b8ff" stroke="#63b8ff" points="120.78,-166.48 131.28,-167.93 123.98,-160.25 120.78,-166.48"/>
</g>
<!-- Node9 -->
<g id="node9" class="node">
<title>Node9</title>
<g id="a_node9"><a xlink:href="group__elements.html#adb6116b96467cc39cb178deb10c7a869" target="_top" xlink:title=" ">
<polygon fill="white" stroke="#666666" points="216,-150 115,-150 115,-124 216,-124 216,-150"/>
<text text-anchor="start" x="123" y="-139.6" font-family="SourceSans" font-size="8.00">svg::svg_element::add</text>
<text text-anchor="middle" x="165.5" y="-130.6" font-family="SourceSans" font-size="8.00">_element</text>
</a>
</g>
</g>
<!-- Node1&#45;&gt;Node9 -->
<g id="edge10" class="edge">
<title>Node1&#45;&gt;Node9</title>
<path fill="none" stroke="#63b8ff" d="M64.7,-101.59C79.88,-106.97 99.94,-114.09 118.09,-120.53"/>
<polygon fill="#63b8ff" stroke="#63b8ff" points="117.06,-123.88 127.65,-123.93 119.4,-117.28 117.06,-123.88"/>
</g>
<!-- Node10 -->
<g id="node10" class="node">
<title>Node10</title>
<g id="a_node10"><a xlink:href="group__elements.html#ga13c46848317034d16c62a7d2061ba3d6" target="_top" xlink:title=" ">
<polygon fill="white" stroke="#666666" points="210,-106 121,-106 121,-80 210,-80 210,-106"/>
<text text-anchor="start" x="129" y="-95.6" font-family="SourceSans" font-size="8.00">svg::text_element::</text>
<text text-anchor="middle" x="165.5" y="-86.6" font-family="SourceSans" font-size="8.00">finish_element</text>
</a>
</g>
</g>
<!-- Node1&#45;&gt;Node10 -->
<g id="edge11" class="edge">
<title>Node1&#45;&gt;Node10</title>
<path fill="none" stroke="#63b8ff" d="M79.05,-93C89.08,-93 100.06,-93 110.71,-93"/>
<polygon fill="#63b8ff" stroke="#63b8ff" points="110.77,-96.5 120.77,-93 110.77,-89.5 110.77,-96.5"/>
</g>
<!-- Node11 -->
<g id="node11" class="node">
<title>Node11</title>
<g id="a_node11"><a xlink:href="structsvg_1_1transform.html#acf9836f4ba647f0dd2b53963a0f714d0" target="_top" xlink:title=" ">
<polygon fill="white" stroke="#666666" points="214.5,-61.5 116.5,-61.5 116.5,-44.5 214.5,-44.5 214.5,-61.5"/>
<text text-anchor="middle" x="165.5" y="-51.1" font-family="SourceSans" font-size="8.00">svg::transform::rotate</text>
</a>
</g>
</g>
<!-- Node1&#45;&gt;Node11 -->
<g id="edge12" class="edge">
<title>Node1&#45;&gt;Node11</title>
<path fill="none" stroke="#63b8ff" d="M67.1,-84.42C85,-78.65 108.82,-70.96 128.42,-64.64"/>
<polygon fill="#63b8ff" stroke="#63b8ff" points="129.5,-67.97 137.94,-61.57 127.35,-61.31 129.5,-67.97"/>
</g>
<!-- Node12 -->
<g id="node12" class="node">
<title>Node12</title>
<g id="a_node12"><a xlink:href="group__elements.html#ae45bec611a6ec17ea46aab6d680ae042" target="_top" xlink:title=" ">
<polygon fill="white" stroke="#666666" points="210,-26 121,-26 121,0 210,0 210,-26"/>
<text text-anchor="start" x="129" y="-15.6" font-family="SourceSans" font-size="8.00">svg::text_element::</text>
<text text-anchor="middle" x="165.5" y="-6.6" font-family="SourceSans" font-size="8.00">start_element</text>
</a>
</g>
</g>
<!-- Node1&#45;&gt;Node12 -->
<g id="edge13" class="edge">
<title>Node1&#45;&gt;Node12</title>
<path fill="none" stroke="#63b8ff" d="M50.06,-84.3C63.73,-72.18 89.97,-50 115,-35 117.5,-33.5 120.11,-32.05 122.78,-30.65"/>
<polygon fill="#63b8ff" stroke="#63b8ff" points="124.56,-33.67 131.97,-26.09 121.46,-27.4 124.56,-33.67"/>
</g>
<!-- Node3 -->
<g id="node3" class="node">
<title>Node3</title>
<g id="a_node3"><a xlink:href="structsvg_1_1typography.html#adbc62f74f1fed3f7c77567250f084f83" target="_top" xlink:title=" ">
<polygon fill="white" stroke="#666666" points="349,-235 252,-235 252,-209 349,-209 349,-235"/>
<text text-anchor="start" x="260" y="-224.6" font-family="SourceSans" font-size="8.00">svg::typography::add</text>
<text text-anchor="middle" x="300.5" y="-215.6" font-family="SourceSans" font-size="8.00">_attribute</text>
</a>
</g>
</g>
<!-- Node2&#45;&gt;Node3 -->
<g id="edge2" class="edge">
<title>Node2&#45;&gt;Node3</title>
<path fill="none" stroke="#63b8ff" d="M208.95,-194.09C221.18,-197.86 234.68,-202.02 247.43,-205.95"/>
<polygon fill="#63b8ff" stroke="#63b8ff" points="246.41,-209.3 257,-208.9 248.47,-202.61 246.41,-209.3"/>
</g>
<!-- Node6 -->
<g id="node6" class="node">
<title>Node6</title>
<g id="a_node6"><a xlink:href="namespacesvg.html#a48ac748e89e22789d1772326a98dd7b6" target="_top" xlink:title=" ">
<polygon fill="white" stroke="#666666" points="478,-189.5 390,-189.5 390,-172.5 478,-172.5 478,-189.5"/>
<text text-anchor="middle" x="434" y="-179.1" font-family="SourceSans" font-size="8.00">svg::string_replace</text>
</a>
</g>
</g>
<!-- Node2&#45;&gt;Node6 -->
<g id="edge8" class="edge">
<title>Node2&#45;&gt;Node6</title>
<path fill="none" stroke="#63b8ff" d="M210.21,-181C256.53,-181 329.72,-181 379.47,-181"/>
<polygon fill="#63b8ff" stroke="#63b8ff" points="379.71,-184.5 389.71,-181 379.71,-177.5 379.71,-184.5"/>
</g>
<!-- Node8 -->
<g id="node8" class="node">
<title>Node8</title>
<g id="a_node8"><a xlink:href="namespacesvg.html#a36b1c48ad4601b205790e3772ad0a7b6" target="_top" xlink:title=" ">
<polygon fill="white" stroke="#666666" points="468,-153.5 400,-153.5 400,-136.5 468,-136.5 468,-153.5"/>
<text text-anchor="middle" x="434" y="-143.1" font-family="SourceSans" font-size="8.00">svg::to_string</text>
</a>
</g>
</g>
<!-- Node2&#45;&gt;Node8 -->
<g id="edge9" class="edge">
<title>Node2&#45;&gt;Node8</title>
<path fill="none" stroke="#63b8ff" d="M210.21,-175.1C259.84,-168.39 340.31,-157.52 389.75,-150.84"/>
<polygon fill="#63b8ff" stroke="#63b8ff" points="390.37,-154.29 399.81,-149.48 389.43,-147.35 390.37,-154.29"/>
</g>
<!-- Node4 -->
<g id="node4" class="node">
<title>Node4</title>
<g id="a_node4"><a xlink:href="namespacesvg_1_1constants.html#a3972655f1dfdc090ec2592d1fb37e87c" target="_top" xlink:title=" ">
<polygon fill="white" stroke="#666666" points="483,-304.5 385,-304.5 385,-287.5 483,-287.5 483,-304.5"/>
<text text-anchor="middle" x="434" y="-294.1" font-family="SourceSans" font-size="8.00">svg::constants::quote</text>
</a>
</g>
</g>
<!-- Node3&#45;&gt;Node4 -->
<g id="edge3" class="edge">
<title>Node3&#45;&gt;Node4</title>
<path fill="none" stroke="#63b8ff" d="M317.97,-235.15C334.26,-247.68 360.27,-266.45 385,-279 388.35,-280.7 391.91,-282.3 395.52,-283.8"/>
<polygon fill="#63b8ff" stroke="#63b8ff" points="394.49,-287.15 405.08,-287.48 397,-280.62 394.49,-287.15"/>
</g>
<!-- Node5 -->
<g id="node5" class="node">
<title>Node5</title>
<g id="a_node5"><a xlink:href="namespacesvg_1_1constants.html#ac460bc8db60d85c3ae1cf8b1a903405e" target="_top" xlink:title="Formatting character constants.">
<polygon fill="white" stroke="#666666" points="482.5,-269.5 385.5,-269.5 385.5,-252.5 482.5,-252.5 482.5,-269.5"/>
<text text-anchor="middle" x="434" y="-259.1" font-family="SourceSans" font-size="8.00">svg::constants::space</text>
</a>
</g>
</g>
<!-- Node3&#45;&gt;Node5 -->
<g id="edge4" class="edge">
<title>Node3&#45;&gt;Node5</title>
<path fill="none" stroke="#63b8ff" d="M345.65,-235.09C361.44,-239.78 379.11,-245.02 394.39,-249.55"/>
<polygon fill="#63b8ff" stroke="#63b8ff" points="393.47,-252.93 404.05,-252.41 395.46,-246.22 393.47,-252.93"/>
</g>
<!-- Node3&#45;&gt;Node6 -->
<g id="edge5" class="edge">
<title>Node3&#45;&gt;Node6</title>
<path fill="none" stroke="#63b8ff" d="M343.47,-208.91C360.28,-203.67 379.48,-197.69 395.78,-192.61"/>
<polygon fill="#63b8ff" stroke="#63b8ff" points="397,-195.89 405.5,-189.57 394.92,-189.21 397,-195.89"/>
</g>
<!-- Node7 -->
<g id="node7" class="node">
<title>Node7</title>
<g id="a_node7"><a xlink:href="structsvg_1_1typography.html#a174c1ffb4e56214d71523ffe7e422561" target="_top" xlink:title=" ">
<polygon fill="white" stroke="#666666" points="478.5,-234 389.5,-234 389.5,-208 478.5,-208 478.5,-234"/>
<text text-anchor="start" x="397.5" y="-223.6" font-family="SourceSans" font-size="8.00">svg::typography::to</text>
<text text-anchor="middle" x="434" y="-214.6" font-family="SourceSans" font-size="8.00">_string</text>
</a>
</g>
</g>
<!-- Node3&#45;&gt;Node7 -->
<g id="edge6" class="edge">
<title>Node3&#45;&gt;Node7</title>
<path fill="none" stroke="#63b8ff" d="M349.35,-221.64C359.05,-221.56 369.31,-221.48 379.2,-221.41"/>
<polygon fill="#63b8ff" stroke="#63b8ff" points="379.36,-224.91 389.34,-221.33 379.31,-217.91 379.36,-224.91"/>
</g>
<!-- Node3&#45;&gt;Node8 -->
<g id="edge7" class="edge">
<title>Node3&#45;&gt;Node8</title>
<path fill="none" stroke="#63b8ff" d="M317.33,-208.94C333.56,-196.01 359.9,-176.29 385,-163 388.8,-160.99 392.89,-159.09 397,-157.34"/>
<polygon fill="#63b8ff" stroke="#63b8ff" points="398.57,-160.48 406.56,-153.53 395.97,-153.98 398.57,-160.48"/>
</g>
</g>
</svg>
