<?xml version="1.0" encoding="UTF-8" standalone="no"?>
<!DOCTYPE svg PUBLIC "-//W3C//DTD SVG 1.1//EN"
 "http://www.w3.org/Graphics/SVG/1.1/DTD/svg11.dtd">
<!-- Generated by graphviz version 5.0.0 (0)
 -->
<!-- Title: svg::radiate_ids_at_uvalue Pages: 1 -->
<svg width="1060pt" height="390pt"
 viewBox="0.00 0.00 1060.00 389.50" xmlns="http://www.w3.org/2000/svg" xmlns:xlink="http://www.w3.org/1999/xlink">
<g id="graph0" class="graph" transform="scale(1 1) rotate(0) translate(4 385.5)">
<title>svg::radiate_ids_at_uvalue</title>
<!-- Node1 -->
<g id="node1" class="node">
<title>Node1</title>
<g id="a_node1"><a xlink:title="Map ids with one value to a point cluster radiating out from a center.">
<polygon fill="#999999" stroke="#666666" points="87,-101 0,-101 0,-75 87,-75 87,-101"/>
<text text-anchor="start" x="8" y="-90.6" font-family="SourceSans" font-size="8.00">svg::radiate_ids_at</text>
<text text-anchor="middle" x="43.5" y="-81.6" font-family="SourceSans" font-size="8.00">_uvalue</text>
</a>
</g>
</g>
<!-- Node2 -->
<g id="node2" class="node">
<title>Node2</title>
<g id="a_node2"><a xlink:href="namespacesvg.html#a07c6fad0adddb0908ed4ef00536967c9" target="_top" xlink:title="Concatenate ids onto one line.">
<polygon fill="white" stroke="#666666" points="217,-170.5 127,-170.5 127,-153.5 217,-153.5 217,-170.5"/>
<text text-anchor="middle" x="172" y="-160.1" font-family="SourceSans" font-size="8.00">svg::append_ids_at</text>
</a>
</g>
</g>
<!-- Node1&#45;&gt;Node2 -->
<g id="edge1" class="edge">
<title>Node1&#45;&gt;Node2</title>
<path fill="none" stroke="#63b8ff" d="M63.11,-101.07C78.76,-111.81 101.88,-127.15 123,-139 129.17,-142.46 135.95,-145.91 142.41,-149.05"/>
<polygon fill="#63b8ff" stroke="#63b8ff" points="141.02,-152.26 151.56,-153.38 144.02,-145.94 141.02,-152.26"/>
</g>
<!-- Node3 -->
<g id="node3" class="node">
<title>Node3</title>
<g id="a_node3"><a xlink:href="namespacesvg.html#a0a0dce44cf8a75daa516cdf9fade5a85" target="_top" xlink:title=" ">
<polygon fill="white" stroke="#666666" points="346.5,-161.5 265.5,-161.5 265.5,-144.5 346.5,-144.5 346.5,-161.5"/>
<text text-anchor="middle" x="306" y="-151.1" font-family="SourceSans" font-size="8.00">svg::radial_text_r</text>
</a>
</g>
</g>
<!-- Node1&#45;&gt;Node3 -->
<g id="edge30" class="edge">
<title>Node1&#45;&gt;Node3</title>
<path fill="none" stroke="#63b8ff" d="M87.22,-98.66C135.06,-110.6 212.22,-129.85 260.69,-141.94"/>
<polygon fill="#63b8ff" stroke="#63b8ff" points="260.03,-145.39 270.58,-144.41 261.73,-138.59 260.03,-145.39"/>
</g>
<!-- Node23 -->
<g id="node23" class="node">
<title>Node23</title>
<g id="a_node23"><a xlink:href="namespacesvg.html#a929b5c33bc0c139332dddd5d3b8ea3d0" target="_top" xlink:title="Transform a value on a range to an angle on the radial range.">
<polygon fill="white" stroke="#666666" points="208,-96.5 136,-96.5 136,-79.5 208,-79.5 208,-96.5"/>
<text text-anchor="middle" x="172" y="-86.1" font-family="SourceSans" font-size="8.00">svg::get_angle</text>
</a>
</g>
</g>
<!-- Node1&#45;&gt;Node23 -->
<g id="edge25" class="edge">
<title>Node1&#45;&gt;Node23</title>
<path fill="none" stroke="#63b8ff" d="M87.33,-88C99.65,-88 113.12,-88 125.59,-88"/>
<polygon fill="#63b8ff" stroke="#63b8ff" points="125.78,-91.5 135.78,-88 125.78,-84.5 125.78,-91.5"/>
</g>
<!-- Node26 -->
<g id="node26" class="node">
<title>Node26</title>
<g id="a_node26"><a xlink:href="namespacesvg.html#a370d930bd06a84735a4eecdd677154e6" target="_top" xlink:title="Get the label space. Value &#45;&gt; Name, as a string where value has labelspaces of fill NB: Should be the...">
<polygon fill="white" stroke="#666666" points="221,-61.5 123,-61.5 123,-44.5 221,-44.5 221,-61.5"/>
<text text-anchor="middle" x="172" y="-51.1" font-family="SourceSans" font-size="8.00">svg::get_label_spaces</text>
</a>
</g>
</g>
<!-- Node1&#45;&gt;Node26 -->
<g id="edge28" class="edge">
<title>Node1&#45;&gt;Node26</title>
<path fill="none" stroke="#63b8ff" d="M87.33,-76.15C101.29,-72.29 116.73,-68.02 130.51,-64.2"/>
<polygon fill="#63b8ff" stroke="#63b8ff" points="131.5,-67.56 140.21,-61.52 129.64,-60.81 131.5,-67.56"/>
</g>
<!-- Node27 -->
<g id="node27" class="node">
<title>Node27</title>
<g id="a_node27"><a xlink:href="namespacesvg.html#aa89ab2d58bfaf850b84e976828851b9b" target="_top" xlink:title="Make radial labels.">
<polygon fill="white" stroke="#666666" points="218,-26 126,-26 126,0 218,0 218,-26"/>
<text text-anchor="start" x="134" y="-15.6" font-family="SourceSans" font-size="8.00">svg::make_label_for</text>
<text text-anchor="middle" x="172" y="-6.6" font-family="SourceSans" font-size="8.00">_value</text>
</a>
</g>
</g>
<!-- Node1&#45;&gt;Node27 -->
<g id="edge29" class="edge">
<title>Node1&#45;&gt;Node27</title>
<path fill="none" stroke="#63b8ff" d="M62.05,-74.93C77.62,-63.63 101.21,-47.24 123,-35 125.67,-33.5 128.46,-32.02 131.3,-30.57"/>
<polygon fill="#63b8ff" stroke="#63b8ff" points="132.97,-33.65 140.41,-26.11 129.89,-27.36 132.97,-33.65"/>
</g>
<!-- Node2&#45;&gt;Node3 -->
<g id="edge2" class="edge">
<title>Node2&#45;&gt;Node3</title>
<path fill="none" stroke="#63b8ff" d="M217.32,-158.98C229.49,-158.15 242.77,-157.24 255.22,-156.39"/>
<polygon fill="#63b8ff" stroke="#63b8ff" points="255.71,-159.87 265.45,-155.7 255.24,-152.88 255.71,-159.87"/>
</g>
<!-- Node4 -->
<g id="node4" class="node">
<title>Node4</title>
<g id="a_node4"><a xlink:href="namespacesvg.html#ab44508c4aeca591141ebec50145b75cd" target="_top" xlink:title="Angle in degrees.">
<polygon fill="white" stroke="#666666" points="501.5,-241 397.5,-241 397.5,-215 501.5,-215 501.5,-241"/>
<text text-anchor="start" x="405.5" y="-230.6" font-family="SourceSans" font-size="8.00">svg::get_circumference</text>
<text text-anchor="middle" x="449.5" y="-221.6" font-family="SourceSans" font-size="8.00">_point_d</text>
</a>
</g>
</g>
<!-- Node3&#45;&gt;Node4 -->
<g id="edge3" class="edge">
<title>Node3&#45;&gt;Node4</title>
<path fill="none" stroke="#63b8ff" d="M319.41,-161.64C335.46,-172.58 364.51,-191.63 391,-205 395.05,-207.04 399.33,-209.04 403.65,-210.95"/>
<polygon fill="#63b8ff" stroke="#63b8ff" points="402.53,-214.27 413.1,-214.97 405.27,-207.83 402.53,-214.27"/>
</g>
<!-- Node7 -->
<g id="node7" class="node">
<title>Node7</title>
<g id="a_node7"><a xlink:href="namespacesvg.html#ae7eab6d9ce1f55bcbcc997cd24c5abcf" target="_top" xlink:title="Text with typography, arranged ccw around points (x,y) on a circle.">
<polygon fill="white" stroke="#666666" points="495.5,-161.5 403.5,-161.5 403.5,-144.5 495.5,-144.5 495.5,-161.5"/>
<text text-anchor="middle" x="449.5" y="-151.1" font-family="SourceSans" font-size="8.00">svg::radial_text_ccw</text>
</a>
</g>
</g>
<!-- Node3&#45;&gt;Node7 -->
<g id="edge6" class="edge">
<title>Node3&#45;&gt;Node7</title>
<path fill="none" stroke="#63b8ff" d="M346.79,-153C361.21,-153 377.76,-153 393.27,-153"/>
<polygon fill="#63b8ff" stroke="#63b8ff" points="393.27,-156.5 403.27,-153 393.27,-149.5 393.27,-156.5"/>
</g>
<!-- Node20 -->
<g id="node20" class="node">
<title>Node20</title>
<g id="a_node20"><a xlink:href="namespacesvg.html#a27b1041d0851178e4835e1f623a46161" target="_top" xlink:title="Text with typography, arranged cw around points (x,y) on a circle.">
<polygon fill="white" stroke="#666666" points="493.5,-196.5 405.5,-196.5 405.5,-179.5 493.5,-179.5 493.5,-196.5"/>
<text text-anchor="middle" x="449.5" y="-186.1" font-family="SourceSans" font-size="8.00">svg::radial_text_cw</text>
</a>
</g>
</g>
<!-- Node3&#45;&gt;Node20 -->
<g id="edge21" class="edge">
<title>Node3&#45;&gt;Node20</title>
<path fill="none" stroke="#63b8ff" d="M341.61,-161.56C360.37,-166.2 383.76,-171.99 403.88,-176.96"/>
<polygon fill="#63b8ff" stroke="#63b8ff" points="403.2,-180.4 413.75,-179.41 404.89,-173.61 403.2,-180.4"/>
</g>
<!-- Node21 -->
<g id="node21" class="node">
<title>Node21</title>
<g id="a_node21"><a xlink:href="namespacesvg.html#a010fea242a289d173d521b501140cd72" target="_top" xlink:title="Zero degrees is top, going clockwise (cw).">
<polygon fill="white" stroke="#666666" points="508,-126.5 391,-126.5 391,-109.5 508,-109.5 508,-126.5"/>
<text text-anchor="middle" x="449.5" y="-116.1" font-family="SourceSans" font-size="8.00">svg::zero_angle_north_ccw</text>
</a>
</g>
</g>
<!-- Node3&#45;&gt;Node21 -->
<g id="edge23" class="edge">
<title>Node3&#45;&gt;Node21</title>
<path fill="none" stroke="#63b8ff" d="M341.61,-144.44C360.37,-139.8 383.76,-134.01 403.88,-129.04"/>
<polygon fill="#63b8ff" stroke="#63b8ff" points="404.89,-132.39 413.75,-126.59 403.2,-125.6 404.89,-132.39"/>
</g>
<!-- Node22 -->
<g id="node22" class="node">
<title>Node22</title>
<g id="a_node22"><a xlink:href="namespacesvg.html#a46164d75fd5109e4ed8879abbacd5c11" target="_top" xlink:title="Zero degrees is top, going clockwise (cw).">
<polygon fill="white" stroke="#666666" points="506,-91.5 393,-91.5 393,-74.5 506,-74.5 506,-91.5"/>
<text text-anchor="middle" x="449.5" y="-81.1" font-family="SourceSans" font-size="8.00">svg::zero_angle_north_cw</text>
</a>
</g>
</g>
<!-- Node3&#45;&gt;Node22 -->
<g id="edge24" class="edge">
<title>Node3&#45;&gt;Node22</title>
<path fill="none" stroke="#63b8ff" d="M318.38,-144.37C334.02,-132.87 363.35,-112.52 391,-100 395.17,-98.11 399.6,-96.37 404.08,-94.79"/>
<polygon fill="#63b8ff" stroke="#63b8ff" points="405.48,-98.01 413.88,-91.55 403.29,-91.36 405.48,-98.01"/>
</g>
<!-- Node5 -->
<g id="node5" class="node">
<title>Node5</title>
<g id="a_node5"><a xlink:href="namespacesvg.html#aef05ac63d88a6102981d3faf37275297" target="_top" xlink:title="Angle in radians.">
<polygon fill="white" stroke="#666666" points="648,-232 544,-232 544,-206 648,-206 648,-232"/>
<text text-anchor="start" x="552" y="-221.6" font-family="SourceSans" font-size="8.00">svg::get_circumference</text>
<text text-anchor="middle" x="596" y="-212.6" font-family="SourceSans" font-size="8.00">_point_r</text>
</a>
</g>
</g>
<!-- Node4&#45;&gt;Node5 -->
<g id="edge4" class="edge">
<title>Node4&#45;&gt;Node5</title>
<path fill="none" stroke="#63b8ff" d="M501.85,-224.8C512.18,-224.16 523.13,-223.48 533.76,-222.81"/>
<polygon fill="#63b8ff" stroke="#63b8ff" points="534.05,-226.3 543.81,-222.19 533.61,-219.32 534.05,-226.3"/>
</g>
<!-- Node6 -->
<g id="node6" class="node">
<title>Node6</title>
<g id="a_node6"><a xlink:href="namespacesvg_1_1constants.html#a0e0b0d9314bc47324ee39884bf8bb2fd" target="_top" xlink:title=" ">
<polygon fill="white" stroke="#666666" points="637.5,-267.5 554.5,-267.5 554.5,-250.5 637.5,-250.5 637.5,-267.5"/>
<text text-anchor="middle" x="596" y="-257.1" font-family="SourceSans" font-size="8.00">svg::constants::pi</text>
</a>
</g>
</g>
<!-- Node4&#45;&gt;Node6 -->
<g id="edge5" class="edge">
<title>Node4&#45;&gt;Node6</title>
<path fill="none" stroke="#63b8ff" d="M501.85,-239.02C515.95,-242.04 531.21,-245.32 545.22,-248.32"/>
<polygon fill="#63b8ff" stroke="#63b8ff" points="544.66,-251.78 555.17,-250.45 546.12,-244.93 544.66,-251.78"/>
</g>
<!-- Node8 -->
<g id="node8" class="node">
<title>Node8</title>
<g id="a_node8"><a xlink:href="namespacesvg.html#a5791c1fc9121f01e5f666b7ce0367dfa" target="_top" xlink:title="Text at @origin, with style and ... a transformation=rotation of @deg about @rorigin.">
<polygon fill="white" stroke="#666666" points="637,-178.5 555,-178.5 555,-161.5 637,-161.5 637,-178.5"/>
<text text-anchor="middle" x="596" y="-168.1" font-family="SourceSans" font-size="8.00">svg::styled_text_r</text>
</a>
</g>
</g>
<!-- Node7&#45;&gt;Node8 -->
<g id="edge7" class="edge">
<title>Node7&#45;&gt;Node8</title>
<path fill="none" stroke="#63b8ff" d="M495.82,-158.33C511.3,-160.15 528.71,-162.2 544.57,-164.07"/>
<polygon fill="#63b8ff" stroke="#63b8ff" points="544.39,-167.57 554.73,-165.26 545.21,-160.62 544.39,-167.57"/>
</g>
<!-- Node9 -->
<g id="node9" class="node">
<title>Node9</title>
<g id="a_node9"><a xlink:href="group__elements.html#aad29e1daf75bdcd69a39575a6807fa0f" target="_top" xlink:title="Either serialize immediately (as below), or create data structure that adds data to data_vec and then...">
<polygon fill="white" stroke="#666666" points="779,-271 690,-271 690,-245 779,-245 779,-271"/>
<text text-anchor="start" x="698" y="-260.6" font-family="SourceSans" font-size="8.00">svg::text_element::</text>
<text text-anchor="middle" x="734.5" y="-251.6" font-family="SourceSans" font-size="8.00">add_data</text>
</a>
</g>
</g>
<!-- Node8&#45;&gt;Node9 -->
<g id="edge8" class="edge">
<title>Node8&#45;&gt;Node9</title>
<path fill="none" stroke="#63b8ff" d="M616.82,-178.55C626.67,-183.27 638.47,-189.67 648,-197 666.69,-211.39 664.83,-222.26 684,-236 686.04,-237.46 688.19,-238.86 690.41,-240.19"/>
<polygon fill="#63b8ff" stroke="#63b8ff" points="688.75,-243.27 699.21,-244.97 692.09,-237.12 688.75,-243.27"/>
</g>
<!-- Node16 -->
<g id="node16" class="node">
<title>Node16</title>
<g id="a_node16"><a xlink:href="group__elements.html#adb6116b96467cc39cb178deb10c7a869" target="_top" xlink:title=" ">
<polygon fill="white" stroke="#666666" points="785,-227 684,-227 684,-201 785,-201 785,-227"/>
<text text-anchor="start" x="692" y="-216.6" font-family="SourceSans" font-size="8.00">svg::svg_element::add</text>
<text text-anchor="middle" x="734.5" y="-207.6" font-family="SourceSans" font-size="8.00">_element</text>
</a>
</g>
</g>
<!-- Node8&#45;&gt;Node16 -->
<g id="edge17" class="edge">
<title>Node8&#45;&gt;Node16</title>
<path fill="none" stroke="#63b8ff" d="M623.64,-178.59C640.58,-184.05 663.04,-191.29 683.24,-197.8"/>
<polygon fill="#63b8ff" stroke="#63b8ff" points="682.35,-201.19 692.94,-200.93 684.5,-194.53 682.35,-201.19"/>
</g>
<!-- Node17 -->
<g id="node17" class="node">
<title>Node17</title>
<g id="a_node17"><a xlink:href="group__elements.html#ga13c46848317034d16c62a7d2061ba3d6" target="_top" xlink:title=" ">
<polygon fill="white" stroke="#666666" points="779,-183 690,-183 690,-157 779,-157 779,-183"/>
<text text-anchor="start" x="698" y="-172.6" font-family="SourceSans" font-size="8.00">svg::text_element::</text>
<text text-anchor="middle" x="734.5" y="-163.6" font-family="SourceSans" font-size="8.00">finish_element</text>
</a>
</g>
</g>
<!-- Node8&#45;&gt;Node17 -->
<g id="edge18" class="edge">
<title>Node8&#45;&gt;Node17</title>
<path fill="none" stroke="#63b8ff" d="M637.22,-170C650.51,-170 665.51,-170 679.65,-170"/>
<polygon fill="#63b8ff" stroke="#63b8ff" points="679.76,-173.5 689.76,-170 679.76,-166.5 679.76,-173.5"/>
</g>
<!-- Node18 -->
<g id="node18" class="node">
<title>Node18</title>
<g id="a_node18"><a xlink:href="structsvg_1_1transform.html#acf9836f4ba647f0dd2b53963a0f714d0" target="_top" xlink:title=" ">
<polygon fill="white" stroke="#666666" points="783.5,-138.5 685.5,-138.5 685.5,-121.5 783.5,-121.5 783.5,-138.5"/>
<text text-anchor="middle" x="734.5" y="-128.1" font-family="SourceSans" font-size="8.00">svg::transform::rotate</text>
</a>
</g>
</g>
<!-- Node8&#45;&gt;Node18 -->
<g id="edge19" class="edge">
<title>Node8&#45;&gt;Node18</title>
<path fill="none" stroke="#63b8ff" d="M626.28,-161.42C646.25,-155.57 672.92,-147.75 694.66,-141.38"/>
<polygon fill="#63b8ff" stroke="#63b8ff" points="695.65,-144.74 704.27,-138.57 693.69,-138.02 695.65,-144.74"/>
</g>
<!-- Node19 -->
<g id="node19" class="node">
<title>Node19</title>
<g id="a_node19"><a xlink:href="group__elements.html#ae45bec611a6ec17ea46aab6d680ae042" target="_top" xlink:title=" ">
<polygon fill="white" stroke="#666666" points="779,-103 690,-103 690,-77 779,-77 779,-103"/>
<text text-anchor="start" x="698" y="-92.6" font-family="SourceSans" font-size="8.00">svg::text_element::</text>
<text text-anchor="middle" x="734.5" y="-83.6" font-family="SourceSans" font-size="8.00">start_element</text>
</a>
</g>
</g>
<!-- Node8&#45;&gt;Node19 -->
<g id="edge20" class="edge">
<title>Node8&#45;&gt;Node19</title>
<path fill="none" stroke="#63b8ff" d="M608.42,-161.47C624.69,-149.53 655.69,-127.58 684,-112 686.84,-110.44 689.82,-108.89 692.84,-107.4"/>
<polygon fill="#63b8ff" stroke="#63b8ff" points="694.42,-110.52 701.95,-103.06 691.42,-104.2 694.42,-110.52"/>
</g>
<!-- Node10 -->
<g id="node10" class="node">
<title>Node10</title>
<g id="a_node10"><a xlink:href="structsvg_1_1typography.html#adbc62f74f1fed3f7c77567250f084f83" target="_top" xlink:title=" ">
<polygon fill="white" stroke="#666666" points="918,-312 821,-312 821,-286 918,-286 918,-312"/>
<text text-anchor="start" x="829" y="-301.6" font-family="SourceSans" font-size="8.00">svg::typography::add</text>
<text text-anchor="middle" x="869.5" y="-292.6" font-family="SourceSans" font-size="8.00">_attribute</text>
</a>
</g>
</g>
<!-- Node9&#45;&gt;Node10 -->
<g id="edge9" class="edge">
<title>Node9&#45;&gt;Node10</title>
<path fill="none" stroke="#63b8ff" d="M777.95,-271.09C790.18,-274.86 803.68,-279.02 816.43,-282.95"/>
<polygon fill="#63b8ff" stroke="#63b8ff" points="815.41,-286.3 826,-285.9 817.47,-279.61 815.41,-286.3"/>
</g>
<!-- Node13 -->
<g id="node13" class="node">
<title>Node13</title>
<g id="a_node13"><a xlink:href="namespacesvg.html#a48ac748e89e22789d1772326a98dd7b6" target="_top" xlink:title=" ">
<polygon fill="white" stroke="#666666" points="1047,-266.5 959,-266.5 959,-249.5 1047,-249.5 1047,-266.5"/>
<text text-anchor="middle" x="1003" y="-256.1" font-family="SourceSans" font-size="8.00">svg::string_replace</text>
</a>
</g>
</g>
<!-- Node9&#45;&gt;Node13 -->
<g id="edge15" class="edge">
<title>Node9&#45;&gt;Node13</title>
<path fill="none" stroke="#63b8ff" d="M779.21,-258C825.53,-258 898.72,-258 948.47,-258"/>
<polygon fill="#63b8ff" stroke="#63b8ff" points="948.71,-261.5 958.71,-258 948.71,-254.5 948.71,-261.5"/>
</g>
<!-- Node15 -->
<g id="node15" class="node">
<title>Node15</title>
<g id="a_node15"><a xlink:href="namespacesvg.html#a36b1c48ad4601b205790e3772ad0a7b6" target="_top" xlink:title=" ">
<polygon fill="white" stroke="#666666" points="1037,-230.5 969,-230.5 969,-213.5 1037,-213.5 1037,-230.5"/>
<text text-anchor="middle" x="1003" y="-220.1" font-family="SourceSans" font-size="8.00">svg::to_string</text>
</a>
</g>
</g>
<!-- Node9&#45;&gt;Node15 -->
<g id="edge16" class="edge">
<title>Node9&#45;&gt;Node15</title>
<path fill="none" stroke="#63b8ff" d="M779.21,-252.1C828.84,-245.39 909.31,-234.52 958.75,-227.84"/>
<polygon fill="#63b8ff" stroke="#63b8ff" points="959.37,-231.29 968.81,-226.48 958.43,-224.35 959.37,-231.29"/>
</g>
<!-- Node11 -->
<g id="node11" class="node">
<title>Node11</title>
<g id="a_node11"><a xlink:href="namespacesvg_1_1constants.html#a3972655f1dfdc090ec2592d1fb37e87c" target="_top" xlink:title=" ">
<polygon fill="white" stroke="#666666" points="1052,-381.5 954,-381.5 954,-364.5 1052,-364.5 1052,-381.5"/>
<text text-anchor="middle" x="1003" y="-371.1" font-family="SourceSans" font-size="8.00">svg::constants::quote</text>
</a>
</g>
</g>
<!-- Node10&#45;&gt;Node11 -->
<g id="edge10" class="edge">
<title>Node10&#45;&gt;Node11</title>
<path fill="none" stroke="#63b8ff" d="M886.97,-312.15C903.26,-324.68 929.27,-343.45 954,-356 957.35,-357.7 960.91,-359.3 964.52,-360.8"/>
<polygon fill="#63b8ff" stroke="#63b8ff" points="963.49,-364.15 974.08,-364.48 966,-357.62 963.49,-364.15"/>
</g>
<!-- Node12 -->
<g id="node12" class="node">
<title>Node12</title>
<g id="a_node12"><a xlink:href="namespacesvg_1_1constants.html#ac460bc8db60d85c3ae1cf8b1a903405e" target="_top" xlink:title="Formatting character constants.">
<polygon fill="white" stroke="#666666" points="1051.5,-346.5 954.5,-346.5 954.5,-329.5 1051.5,-329.5 1051.5,-346.5"/>
<text text-anchor="middle" x="1003" y="-336.1" font-family="SourceSans" font-size="8.00">svg::constants::space</text>
</a>
</g>
</g>
<!-- Node10&#45;&gt;Node12 -->
<g id="edge11" class="edge">
<title>Node10&#45;&gt;Node12</title>
<path fill="none" stroke="#63b8ff" d="M914.65,-312.09C930.44,-316.78 948.11,-322.02 963.39,-326.55"/>
<polygon fill="#63b8ff" stroke="#63b8ff" points="962.47,-329.93 973.05,-329.41 964.46,-323.22 962.47,-329.93"/>
</g>
<!-- Node10&#45;&gt;Node13 -->
<g id="edge12" class="edge">
<title>Node10&#45;&gt;Node13</title>
<path fill="none" stroke="#63b8ff" d="M912.47,-285.91C929.28,-280.67 948.48,-274.69 964.78,-269.61"/>
<polygon fill="#63b8ff" stroke="#63b8ff" points="966,-272.89 974.5,-266.57 963.92,-266.21 966,-272.89"/>
</g>
<!-- Node14 -->
<g id="node14" class="node">
<title>Node14</title>
<g id="a_node14"><a xlink:href="structsvg_1_1typography.html#a174c1ffb4e56214d71523ffe7e422561" target="_top" xlink:title=" ">
<polygon fill="white" stroke="#666666" points="1047.5,-311 958.5,-311 958.5,-285 1047.5,-285 1047.5,-311"/>
<text text-anchor="start" x="966.5" y="-300.6" font-family="SourceSans" font-size="8.00">svg::typography::to</text>
<text text-anchor="middle" x="1003" y="-291.6" font-family="SourceSans" font-size="8.00">_string</text>
</a>
</g>
</g>
<!-- Node10&#45;&gt;Node14 -->
<g id="edge13" class="edge">
<title>Node10&#45;&gt;Node14</title>
<path fill="none" stroke="#63b8ff" d="M918.35,-298.64C928.05,-298.56 938.31,-298.48 948.2,-298.41"/>
<polygon fill="#63b8ff" stroke="#63b8ff" points="948.36,-301.91 958.34,-298.33 948.31,-294.91 948.36,-301.91"/>
</g>
<!-- Node10&#45;&gt;Node15 -->
<g id="edge14" class="edge">
<title>Node10&#45;&gt;Node15</title>
<path fill="none" stroke="#63b8ff" d="M887.03,-285.8C903.37,-273.18 929.42,-254.17 954,-241 958.32,-238.69 962.97,-236.5 967.63,-234.48"/>
<polygon fill="#63b8ff" stroke="#63b8ff" points="969.16,-237.64 977.09,-230.61 966.51,-231.16 969.16,-237.64"/>
</g>
<!-- Node20&#45;&gt;Node8 -->
<g id="edge22" class="edge">
<title>Node20&#45;&gt;Node8</title>
<path fill="none" stroke="#63b8ff" d="M493.85,-182.6C509.83,-180.61 528.05,-178.34 544.59,-176.28"/>
<polygon fill="#63b8ff" stroke="#63b8ff" points="545.15,-179.74 554.64,-175.03 544.28,-172.79 545.15,-179.74"/>
</g>
<!-- Node24 -->
<g id="node24" class="node">
<title>Node24</title>
<g id="a_node24"><a xlink:href="namespacesvg.html#a37b1e7c40b54ff3cdd4e2929cb6b7ba2" target="_top" xlink:title=" ">
<polygon fill="white" stroke="#666666" points="355,-64.5 257,-64.5 257,-47.5 355,-47.5 355,-64.5"/>
<text text-anchor="middle" x="306" y="-54.1" font-family="SourceSans" font-size="8.00">svg::get_radial_range</text>
</a>
</g>
</g>
<!-- Node23&#45;&gt;Node24 -->
<g id="edge26" class="edge">
<title>Node23&#45;&gt;Node24</title>
<path fill="none" stroke="#63b8ff" d="M208.03,-79.51C223.99,-75.64 243.08,-71.01 260.08,-66.89"/>
<polygon fill="#63b8ff" stroke="#63b8ff" points="260.92,-70.29 269.81,-64.53 259.27,-63.49 260.92,-70.29"/>
</g>
<!-- Node25 -->
<g id="node25" class="node">
<title>Node25</title>
<g id="a_node25"><a xlink:href="namespacesvg.html#a673cb54838801fae8471436ce43298a9" target="_top" xlink:title="Scale value from min to max on range (nfloor, nceil).">
<polygon fill="white" stroke="#666666" points="353.5,-109 258.5,-109 258.5,-83 353.5,-83 353.5,-109"/>
<text text-anchor="start" x="266.5" y="-98.6" font-family="SourceSans" font-size="8.00">svg::normalize_value</text>
<text text-anchor="middle" x="306" y="-89.6" font-family="SourceSans" font-size="8.00">_on_range</text>
</a>
</g>
</g>
<!-- Node23&#45;&gt;Node25 -->
<g id="edge27" class="edge">
<title>Node23&#45;&gt;Node25</title>
<path fill="none" stroke="#63b8ff" d="M208.03,-90.12C220.32,-90.87 234.47,-91.73 248.09,-92.55"/>
<polygon fill="#63b8ff" stroke="#63b8ff" points="248.17,-96.06 258.37,-93.17 248.6,-89.08 248.17,-96.06"/>
</g>
</g>
</svg>
