<?xml version="1.0" encoding="UTF-8" standalone="no"?>
<!DOCTYPE svg PUBLIC "-//W3C//DTD SVG 1.1//EN"
 "http://www.w3.org/Graphics/SVG/1.1/DTD/svg11.dtd">
<!-- Generated by graphviz version 5.0.0 (0)
 -->
<!-- Title: svg::swipe_left_seq Pages: 1 -->
<svg width="338pt" height="334pt"
 viewBox="0.00 0.00 338.00 333.50" xmlns="http://www.w3.org/2000/svg" xmlns:xlink="http://www.w3.org/1999/xlink">
<g id="graph0" class="graph" transform="scale(1 1) rotate(0) translate(4 329.5)">
<title>svg::swipe_left_seq</title>
<!-- Node1 -->
<g id="node1" class="node">
<title>Node1</title>
<g id="a_node1"><a xlink:title="1 channel start with image, background color is klr each &quot;frame&quot; == string in returned strings has an...">
<polygon fill="#999999" stroke="#666666" points="89,-167 0,-167 0,-150 89,-150 89,-167"/>
<text text-anchor="middle" x="44.5" y="-156.6" font-family="SourceSans" font-size="8.00">svg::swipe_left_seq</text>
</a>
</g>
</g>
<!-- Node2 -->
<g id="node2" class="node">
<title>Node2</title>
<g id="a_node2"><a xlink:href="group__elements.html#a1dd6663d882fb5dd14a47462a77f351b" target="_top" xlink:title="Either serialize immediately (as below), or create data structure that adds data to data_vec and then...">
<polygon fill="white" stroke="#666666" points="219.5,-325.5 131.5,-325.5 131.5,-299.5 219.5,-299.5 219.5,-325.5"/>
<text text-anchor="start" x="139.5" y="-315.1" font-family="SourceSans" font-size="8.00">svg::rect_element::</text>
<text text-anchor="middle" x="175.5" y="-306.1" font-family="SourceSans" font-size="8.00">add_data</text>
</a>
</g>
</g>
<!-- Node1&#45;&gt;Node2 -->
<g id="edge1" class="edge">
<title>Node1&#45;&gt;Node2</title>
<path fill="none" stroke="#63b8ff" d="M48.56,-167.13C57.13,-190.16 83.49,-253.84 125,-290.5 126.33,-291.68 127.74,-292.8 129.2,-293.87"/>
<polygon fill="#63b8ff" stroke="#63b8ff" points="127.72,-297.07 138.04,-299.44 131.45,-291.15 127.72,-297.07"/>
</g>
<!-- Node3 -->
<g id="node3" class="node">
<title>Node3</title>
<g id="a_node3"><a xlink:href="group__elements.html#abfa06ef3bc0a99045eac1a61c80ce46c" target="_top" xlink:title="Either serialize immediately (as below), or create data structure that adds data to data_vec and then...">
<polygon fill="white" stroke="#666666" points="222,-281.5 129,-281.5 129,-255.5 222,-255.5 222,-281.5"/>
<text text-anchor="start" x="137" y="-271.1" font-family="SourceSans" font-size="8.00">svg::image_element</text>
<text text-anchor="middle" x="175.5" y="-262.1" font-family="SourceSans" font-size="8.00">::add_data</text>
</a>
</g>
</g>
<!-- Node1&#45;&gt;Node3 -->
<g id="edge2" class="edge">
<title>Node1&#45;&gt;Node3</title>
<path fill="none" stroke="#63b8ff" d="M51.35,-167.09C63.38,-184.21 92.49,-222.94 125,-246.5 126.86,-247.85 128.81,-249.13 130.82,-250.36"/>
<polygon fill="#63b8ff" stroke="#63b8ff" points="129.47,-253.62 139.92,-255.38 132.85,-247.49 129.47,-253.62"/>
</g>
<!-- Node4 -->
<g id="node4" class="node">
<title>Node4</title>
<g id="a_node4"><a xlink:href="group__elements.html#a238b38ca99a1cf6c2baf80c8e4338d99" target="_top" xlink:title=" ">
<polygon fill="white" stroke="#666666" points="221.5,-237.5 129.5,-237.5 129.5,-211.5 221.5,-211.5 221.5,-237.5"/>
<text text-anchor="start" x="137.5" y="-227.1" font-family="SourceSans" font-size="8.00">svg::element_base::</text>
<text text-anchor="middle" x="175.5" y="-218.1" font-family="SourceSans" font-size="8.00">add_style</text>
</a>
</g>
</g>
<!-- Node1&#45;&gt;Node4 -->
<g id="edge3" class="edge">
<title>Node1&#45;&gt;Node4</title>
<path fill="none" stroke="#63b8ff" d="M60.24,-167.16C76.05,-176.34 101.98,-191.04 125,-202.5 128.13,-204.06 131.39,-205.62 134.68,-207.17"/>
<polygon fill="#63b8ff" stroke="#63b8ff" points="133.39,-210.43 143.94,-211.42 136.31,-204.07 133.39,-210.43"/>
</g>
<!-- Node6 -->
<g id="node6" class="node">
<title>Node6</title>
<g id="a_node6"><a xlink:href="group__elements.html#gad01750ac554c6bd6871a930c90e17a04" target="_top" xlink:title=" ">
<polygon fill="white" stroke="#666666" points="219.5,-193.5 131.5,-193.5 131.5,-167.5 219.5,-167.5 219.5,-193.5"/>
<text text-anchor="start" x="139.5" y="-183.1" font-family="SourceSans" font-size="8.00">svg::rect_element::</text>
<text text-anchor="middle" x="175.5" y="-174.1" font-family="SourceSans" font-size="8.00">finish_element</text>
</a>
</g>
</g>
<!-- Node1&#45;&gt;Node6 -->
<g id="edge5" class="edge">
<title>Node1&#45;&gt;Node6</title>
<path fill="none" stroke="#63b8ff" d="M89.17,-165.95C99.48,-167.71 110.57,-169.6 121.25,-171.42"/>
<polygon fill="#63b8ff" stroke="#63b8ff" points="120.86,-174.9 131.31,-173.13 122.04,-168 120.86,-174.9"/>
</g>
<!-- Node7 -->
<g id="node7" class="node">
<title>Node7</title>
<g id="a_node7"><a xlink:href="group__elements.html#gad9598e7ef20232bf2eb3e5ed14a4848d" target="_top" xlink:title=" ">
<polygon fill="white" stroke="#666666" points="222,-149.5 129,-149.5 129,-123.5 222,-123.5 222,-149.5"/>
<text text-anchor="start" x="137" y="-139.1" font-family="SourceSans" font-size="8.00">svg::image_element</text>
<text text-anchor="middle" x="175.5" y="-130.1" font-family="SourceSans" font-size="8.00">::finish_element</text>
</a>
</g>
</g>
<!-- Node1&#45;&gt;Node7 -->
<g id="edge6" class="edge">
<title>Node1&#45;&gt;Node7</title>
<path fill="none" stroke="#63b8ff" d="M89.17,-151.05C98.61,-149.44 108.72,-147.72 118.55,-146.04"/>
<polygon fill="#63b8ff" stroke="#63b8ff" points="119.4,-149.45 128.67,-144.32 118.22,-142.55 119.4,-149.45"/>
</g>
<!-- Node8 -->
<g id="node8" class="node">
<title>Node8</title>
<g id="a_node8"><a xlink:href="group__elements.html#a1e0ed5e9dfe1244317a87d7e6774348b" target="_top" xlink:title=" ">
<polygon fill="white" stroke="#666666" points="219.5,-105.5 131.5,-105.5 131.5,-79.5 219.5,-79.5 219.5,-105.5"/>
<text text-anchor="start" x="139.5" y="-95.1" font-family="SourceSans" font-size="8.00">svg::rect_element::</text>
<text text-anchor="middle" x="175.5" y="-86.1" font-family="SourceSans" font-size="8.00">start_element</text>
</a>
</g>
</g>
<!-- Node1&#45;&gt;Node8 -->
<g id="edge7" class="edge">
<title>Node1&#45;&gt;Node8</title>
<path fill="none" stroke="#63b8ff" d="M60.24,-149.84C76.05,-140.66 101.98,-125.96 125,-114.5 128.13,-112.94 131.39,-111.38 134.68,-109.83"/>
<polygon fill="#63b8ff" stroke="#63b8ff" points="136.31,-112.93 143.94,-105.58 133.39,-106.57 136.31,-112.93"/>
</g>
<!-- Node9 -->
<g id="node9" class="node">
<title>Node9</title>
<g id="a_node9"><a xlink:href="group__elements.html#a2dc9aa02a38e4510a6b5bb6e8d17a1f5" target="_top" xlink:title=" ">
<polygon fill="white" stroke="#666666" points="222,-61.5 129,-61.5 129,-35.5 222,-35.5 222,-61.5"/>
<text text-anchor="start" x="137" y="-51.1" font-family="SourceSans" font-size="8.00">svg::image_element</text>
<text text-anchor="middle" x="175.5" y="-42.1" font-family="SourceSans" font-size="8.00">::start_element</text>
</a>
</g>
</g>
<!-- Node1&#45;&gt;Node9 -->
<g id="edge8" class="edge">
<title>Node1&#45;&gt;Node9</title>
<path fill="none" stroke="#63b8ff" d="M51.35,-149.91C63.38,-132.79 92.49,-94.06 125,-70.5 126.86,-69.15 128.81,-67.87 130.82,-66.64"/>
<polygon fill="#63b8ff" stroke="#63b8ff" points="132.85,-69.51 139.92,-61.62 129.47,-63.38 132.85,-69.51"/>
</g>
<!-- Node10 -->
<g id="node10" class="node">
<title>Node10</title>
<g id="a_node10"><a xlink:href="group__elements.html#a99ff90a016db190ee8bb5ee8c045e329" target="_top" xlink:title=" ">
<polygon fill="white" stroke="#666666" points="226,-17 125,-17 125,0 226,0 226,-17"/>
<text text-anchor="middle" x="175.5" y="-6.6" font-family="SourceSans" font-size="8.00">svg::element_base::str</text>
</a>
</g>
</g>
<!-- Node1&#45;&gt;Node10 -->
<g id="edge9" class="edge">
<title>Node1&#45;&gt;Node10</title>
<path fill="none" stroke="#63b8ff" d="M48.42,-149.71C56.65,-126.28 82.25,-61.7 125,-26.5 127.22,-24.67 129.64,-23.03 132.17,-21.54"/>
<polygon fill="#63b8ff" stroke="#63b8ff" points="133.74,-24.67 141.13,-17.08 130.62,-18.4 133.74,-24.67"/>
</g>
<!-- Node5 -->
<g id="node5" class="node">
<title>Node5</title>
<g id="a_node5"><a xlink:href="namespacesvg.html#a36b1c48ad4601b205790e3772ad0a7b6" target="_top" xlink:title=" ">
<polygon fill="white" stroke="#666666" points="330,-233 262,-233 262,-216 330,-216 330,-233"/>
<text text-anchor="middle" x="296" y="-222.6" font-family="SourceSans" font-size="8.00">svg::to_string</text>
</a>
</g>
</g>
<!-- Node4&#45;&gt;Node5 -->
<g id="edge4" class="edge">
<title>Node4&#45;&gt;Node5</title>
<path fill="none" stroke="#63b8ff" d="M221.64,-224.5C231.44,-224.5 241.78,-224.5 251.52,-224.5"/>
<polygon fill="#63b8ff" stroke="#63b8ff" points="251.78,-228 261.78,-224.5 251.78,-221 251.78,-228"/>
</g>
</g>
</svg>
