<?xml version="1.0" encoding="UTF-8" standalone="no"?>
<!DOCTYPE svg PUBLIC "-//W3C//DTD SVG 1.1//EN"
 "http://www.w3.org/Graphics/SVG/1.1/DTD/svg11.dtd">
<!-- Generated by graphviz version 5.0.0 (0)
 -->
<!-- Title: svg::radiate_ids_per_uvalue_on_arc Pages: 1 -->
<!--zoomable 646 -->
<svg id="main" version="1.1" xmlns="http://www.w3.org/2000/svg" xmlns:xlink="http://www.w3.org/1999/xlink" xml:space="preserve" onload="init(evt)">
<style type="text/css"><![CDATA[
.edge:hover path { stroke: red; }
.edge:hover polygon { stroke: red; fill: red; }
]]></style>
<script type="text/javascript"><![CDATA[
var edges = document.getElementsByTagName('g');
if (edges && edges.length) {
  for (var i=0;i<edges.length;i++) {
    if (edges[i].id.substr(0,4)=='edge') {
      edges[i].setAttribute('class','edge');
    }
  }
}
]]></script>
        <defs>
                <circle id="rim" cx="0" cy="0" r="7"/>
                <circle id="rim2" cx="0" cy="0" r="3.5"/>
                <g id="zoomPlus">
                        <use xlink:href="#rim" fill="#404040">
                                <set attributeName="fill" to="#808080" begin="zoomplus.mouseover" end="zoomplus.mouseout"/>
                        </use>
                        <path d="M-4,0h8M0,-4v8" fill="none" stroke="white" stroke-width="1.5" pointer-events="none"/>
                </g>
                <g id="zoomMin">
                        <use xlink:href="#rim" fill="#404040">
                                <set attributeName="fill" to="#808080" begin="zoomminus.mouseover" end="zoomminus.mouseout"/>
                        </use>
                        <path d="M-4,0h8" fill="none" stroke="white" stroke-width="1.5" pointer-events="none"/>
                </g>
                <g id="dirArrow">
                        <path fill="none" stroke="white" stroke-width="1.5" d="M0,-3.0v7 M-2.5,-0.5L0,-3.0L2.5,-0.5"/>
                </g>
               <g id="resetDef">
                       <use xlink:href="#rim2" fill="#404040">
                               <set attributeName="fill" to="#808080" begin="reset.mouseover" end="reset.mouseout"/>
                       </use>
               </g>
        </defs>

<script type="text/javascript">
var viewWidth = 1201;
var viewHeight = 646;
var sectionId = 'dynsection-61';
</script>
<script xlink:href="svgpan.js"/>
<svg id="graph" class="graph">
<g id="viewport">
<title>svg::radiate_ids_per_uvalue_on_arc</title>
<!-- Node1 -->
<g id="node1" class="node">
<title>Node1</title>
<g id="a_node1"><a xlink:title=" ">
<polygon fill="#999999" stroke="#666666" points="92,-277 0,-277 0,-251 92,-251 92,-277"/>
<text text-anchor="start" x="8" y="-266.6" font-family="SourceSans" font-size="8.00">svg::radiate_ids_per</text>
<text text-anchor="middle" x="46" y="-257.6" font-family="SourceSans" font-size="8.00">_uvalue_on_arc</text>
</a>
</g>
</g>
<!-- Node2 -->
<g id="node2" class="node">
<title>Node2</title>
<g id="a_node2"><a xlink:href="namespacesvg.html#ac1e28128c6f03cf9cd0248f18c69c496" target="_top" xlink:title="Arc + arrow glyph that traces path of start to finish trajectory.">
<polygon fill="white" stroke="#666666" points="770,-410.5 676,-410.5 676,-393.5 770,-393.5 770,-410.5"/>
<text text-anchor="middle" x="723" y="-400.1" font-family="SourceSans" font-size="8.00">svg::direction_arc_at</text>
</a>
</g>
</g>
<!-- Node1&#45;&gt;Node2 -->
<g id="edge1" class="edge">
<title>Node1&#45;&gt;Node2</title>
<path fill="none" stroke="#63b8ff" d="M64.12,-277.08C105.6,-307.42 215.72,-380 320,-380 320,-380 320,-380 447.5,-380 523.34,-380 610.59,-388.45 665.99,-394.87"/>
<polygon fill="#63b8ff" stroke="#63b8ff" points="665.61,-398.35 675.95,-396.05 666.43,-391.4 665.61,-398.35"/>
</g>
<!-- Node16 -->
<g id="node16" class="node">
<title>Node16</title>
<g id="a_node16"><a xlink:href="namespacesvg.html#a2e50914f33c79a719001b3ff9f43ae6a" target="_top" xlink:title="Map ids with one value to a point cluster radiating out from a center.">
<polygon fill="white" stroke="#666666" points="225.5,-297 138.5,-297 138.5,-271 225.5,-271 225.5,-297"/>
<text text-anchor="start" x="146.5" y="-286.6" font-family="SourceSans" font-size="8.00">svg::radiate_ids_at</text>
<text text-anchor="middle" x="182" y="-277.6" font-family="SourceSans" font-size="8.00">_uvalue</text>
</a>
</g>
</g>
<!-- Node1&#45;&gt;Node16 -->
<g id="edge18" class="edge">
<title>Node1&#45;&gt;Node16</title>
<path fill="none" stroke="#63b8ff" d="M92.37,-270.77C103.88,-272.49 116.34,-274.35 128.18,-276.12"/>
<polygon fill="#63b8ff" stroke="#63b8ff" points="127.99,-279.63 138.39,-277.64 129.02,-272.7 127.99,-279.63"/>
</g>
<!-- Node35 -->
<g id="node35" class="node">
<title>Node35</title>
<g id="a_node35"><a xlink:href="namespacesvg.html#afbc82820a905c8b57fedeee3c4269600" target="_top" xlink:title="Sort vectors of strings to largest length string first. (Or use set&lt;&gt;).">
<polygon fill="white" stroke="#666666" points="236,-252.5 128,-252.5 128,-235.5 236,-235.5 236,-252.5"/>
<text text-anchor="middle" x="182" y="-242.1" font-family="SourceSans" font-size="8.00">svg::sort_strings_by_size</text>
</a>
</g>
</g>
<!-- Node1&#45;&gt;Node35 -->
<g id="edge47" class="edge">
<title>Node1&#45;&gt;Node35</title>
<path fill="none" stroke="#63b8ff" d="M92.37,-257.23C100.55,-256.01 109.22,-254.71 117.81,-253.43"/>
<polygon fill="#63b8ff" stroke="#63b8ff" points="118.44,-256.88 127.81,-251.94 117.4,-249.95 118.44,-256.88"/>
</g>
<!-- Node36 -->
<g id="node36" class="node">
<title>Node36</title>
<g id="a_node36"><a xlink:href="namespacesvg.html#af2f86928ee5c1dac00eb589bef8b61fb" target="_top" xlink:title="Convert id_value_umap to value_id_mmap + set of unique values.">
<polygon fill="white" stroke="#666666" points="234.5,-217.5 129.5,-217.5 129.5,-200.5 234.5,-200.5 234.5,-217.5"/>
<text text-anchor="middle" x="182" y="-207.1" font-family="SourceSans" font-size="8.00">svg::to_value_id_mmap</text>
</a>
</g>
</g>
<!-- Node1&#45;&gt;Node36 -->
<g id="edge48" class="edge">
<title>Node1&#45;&gt;Node36</title>
<path fill="none" stroke="#63b8ff" d="M72.53,-250.99C88.3,-243.22 109.06,-233.44 128,-226 132.59,-224.19 137.46,-222.43 142.31,-220.77"/>
<polygon fill="#63b8ff" stroke="#63b8ff" points="143.76,-223.98 152.16,-217.51 141.56,-217.33 143.76,-223.98"/>
</g>
<!-- Node3 -->
<g id="node3" class="node">
<title>Node3</title>
<g id="a_node3"><a xlink:href="group__elements.html#a807f3c30f2ace338ad10aaf230b47665" target="_top" xlink:title="Either serialize immediately (as below), or create data structure that adds data to data_vec and then...">
<polygon fill="white" stroke="#666666" points="908.5,-638 816.5,-638 816.5,-612 908.5,-612 908.5,-638"/>
<text text-anchor="start" x="824.5" y="-627.6" font-family="SourceSans" font-size="8.00">svg::path_element::</text>
<text text-anchor="middle" x="862.5" y="-618.6" font-family="SourceSans" font-size="8.00">add_data</text>
</a>
</g>
</g>
<!-- Node2&#45;&gt;Node3 -->
<g id="edge2" class="edge">
<title>Node2&#45;&gt;Node3</title>
<path fill="none" stroke="#63b8ff" d="M725.37,-410.62C730.52,-440.37 751.28,-540.09 806,-598 808.98,-601.15 812.41,-603.99 816.06,-606.52"/>
<polygon fill="#63b8ff" stroke="#63b8ff" points="814.55,-609.69 824.91,-611.9 818.18,-603.71 814.55,-609.69"/>
</g>
<!-- Node4 -->
<g id="node4" class="node">
<title>Node4</title>
<g id="a_node4"><a xlink:href="group__elements.html#adb6116b96467cc39cb178deb10c7a869" target="_top" xlink:title=" ">
<polygon fill="white" stroke="#666666" points="913,-194 812,-194 812,-168 913,-168 913,-194"/>
<text text-anchor="start" x="820" y="-183.6" font-family="SourceSans" font-size="8.00">svg::svg_element::add</text>
<text text-anchor="middle" x="862.5" y="-174.6" font-family="SourceSans" font-size="8.00">_element</text>
</a>
</g>
</g>
<!-- Node2&#45;&gt;Node4 -->
<g id="edge3" class="edge">
<title>Node2&#45;&gt;Node4</title>
<path fill="none" stroke="#63b8ff" d="M736.07,-393.4C746.62,-385.23 761.56,-371.99 770,-357 804.5,-295.76 760.1,-256.24 806,-203 806.86,-202.01 807.76,-201.06 808.72,-200.15"/>
<polygon fill="#63b8ff" stroke="#63b8ff" points="810.94,-202.86 816.75,-194 806.68,-197.3 810.94,-202.86"/>
</g>
<!-- Node5 -->
<g id="node5" class="node">
<title>Node5</title>
<g id="a_node5"><a xlink:href="group__elements.html#a238b38ca99a1cf6c2baf80c8e4338d99" target="_top" xlink:title=" ">
<polygon fill="white" stroke="#666666" points="1053,-474 961,-474 961,-448 1053,-448 1053,-474"/>
<text text-anchor="start" x="969" y="-463.6" font-family="SourceSans" font-size="8.00">svg::element_base::</text>
<text text-anchor="middle" x="1007" y="-454.6" font-family="SourceSans" font-size="8.00">add_style</text>
</a>
</g>
</g>
<!-- Node2&#45;&gt;Node5 -->
<g id="edge4" class="edge">
<title>Node2&#45;&gt;Node5</title>
<path fill="none" stroke="#63b8ff" d="M728.75,-410.58C739.56,-429.14 768.08,-472.63 806,-489 859.05,-511.9 926.67,-493.71 968.13,-477.85"/>
<polygon fill="#63b8ff" stroke="#63b8ff" points="969.57,-481.04 977.57,-474.1 966.99,-474.54 969.57,-481.04"/>
</g>
<!-- Node6 -->
<g id="node6" class="node">
<title>Node6</title>
<g id="a_node6"><a xlink:href="namespacesvg.html#a36b1c48ad4601b205790e3772ad0a7b6" target="_top" xlink:title=" ">
<polygon fill="white" stroke="#666666" points="1178,-390.5 1110,-390.5 1110,-373.5 1178,-373.5 1178,-390.5"/>
<text text-anchor="middle" x="1144" y="-380.1" font-family="SourceSans" font-size="8.00">svg::to_string</text>
</a>
</g>
</g>
<!-- Node2&#45;&gt;Node6 -->
<g id="edge16" class="edge">
<title>Node2&#45;&gt;Node6</title>
<path fill="none" stroke="#63b8ff" d="M770.04,-399.8C851.52,-395.91 1020.02,-387.87 1099.59,-384.07"/>
<polygon fill="#63b8ff" stroke="#63b8ff" points="1099.93,-387.56 1109.75,-383.59 1099.6,-380.57 1099.93,-387.56"/>
</g>
<!-- Node7 -->
<g id="node7" class="node">
<title>Node7</title>
<g id="a_node7"><a xlink:href="group__elements.html#gaac30ae99fb1a2542688fa1ffb43cd8e1" target="_top" xlink:title=" ">
<polygon fill="white" stroke="#666666" points="908.5,-480 816.5,-480 816.5,-454 908.5,-454 908.5,-480"/>
<text text-anchor="start" x="824.5" y="-469.6" font-family="SourceSans" font-size="8.00">svg::path_element::</text>
<text text-anchor="middle" x="862.5" y="-460.6" font-family="SourceSans" font-size="8.00">finish_element</text>
</a>
</g>
</g>
<!-- Node2&#45;&gt;Node7 -->
<g id="edge6" class="edge">
<title>Node2&#45;&gt;Node7</title>
<path fill="none" stroke="#63b8ff" d="M739.17,-410.58C755.45,-419.63 782.19,-434.07 806,-445 809.76,-446.73 813.7,-448.45 817.67,-450.13"/>
<polygon fill="#63b8ff" stroke="#63b8ff" points="816.34,-453.37 826.92,-453.95 819.01,-446.89 816.34,-453.37"/>
</g>
<!-- Node8 -->
<g id="node8" class="node">
<title>Node8</title>
<g id="a_node8"><a xlink:href="namespacesvg.html#ab44508c4aeca591141ebec50145b75cd" target="_top" xlink:title="Angle in degrees.">
<polygon fill="white" stroke="#666666" points="914.5,-274 810.5,-274 810.5,-248 914.5,-248 914.5,-274"/>
<text text-anchor="start" x="818.5" y="-263.6" font-family="SourceSans" font-size="8.00">svg::get_circumference</text>
<text text-anchor="middle" x="862.5" y="-254.6" font-family="SourceSans" font-size="8.00">_point_d</text>
</a>
</g>
</g>
<!-- Node2&#45;&gt;Node8 -->
<g id="edge7" class="edge">
<title>Node2&#45;&gt;Node8</title>
<path fill="none" stroke="#63b8ff" d="M734.91,-393.24C744.96,-384.76 759.81,-371.14 770,-357 791.39,-327.33 779.18,-307.87 806,-283 807.28,-281.81 808.63,-280.69 810.04,-279.62"/>
<polygon fill="#63b8ff" stroke="#63b8ff" points="812.1,-282.46 818.63,-274.12 808.32,-276.57 812.1,-282.46"/>
</g>
<!-- Node11 -->
<g id="node11" class="node">
<title>Node11</title>
<g id="a_node11"><a xlink:href="namespacesvg.html#a37b1e7c40b54ff3cdd4e2929cb6b7ba2" target="_top" xlink:title=" ">
<polygon fill="white" stroke="#666666" points="911.5,-353.5 813.5,-353.5 813.5,-336.5 911.5,-336.5 911.5,-353.5"/>
<text text-anchor="middle" x="862.5" y="-343.1" font-family="SourceSans" font-size="8.00">svg::get_radial_range</text>
</a>
</g>
</g>
<!-- Node2&#45;&gt;Node11 -->
<g id="edge10" class="edge">
<title>Node2&#45;&gt;Node11</title>
<path fill="none" stroke="#63b8ff" d="M744.59,-393.47C767.57,-383.94 804.99,-368.43 831.29,-357.52"/>
<polygon fill="#63b8ff" stroke="#63b8ff" points="832.88,-360.65 840.77,-353.59 830.2,-354.19 832.88,-360.65"/>
</g>
<!-- Node12 -->
<g id="node12" class="node">
<title>Node12</title>
<g id="a_node12"><a xlink:href="namespacesvg.html#abd8e35decc1e56f7243b02174c701d37" target="_top" xlink:title="Make path segment between two points on a circumference of radius r. Points like: get_circumference_p...">
<polygon fill="white" stroke="#666666" points="1053,-537 961,-537 961,-511 1053,-511 1053,-537"/>
<text text-anchor="start" x="969" y="-526.6" font-family="SourceSans" font-size="8.00">svg::make_path_arc</text>
<text text-anchor="middle" x="1007" y="-517.6" font-family="SourceSans" font-size="8.00">_circumference</text>
</a>
</g>
</g>
<!-- Node2&#45;&gt;Node12 -->
<g id="edge11" class="edge">
<title>Node2&#45;&gt;Node12</title>
<path fill="none" stroke="#63b8ff" d="M727.61,-410.55C736.97,-431.51 764.26,-485.41 806,-508 850.43,-532.05 908.72,-533.98 950.89,-531.14"/>
<polygon fill="#63b8ff" stroke="#63b8ff" points="951.28,-534.62 960.98,-530.35 950.74,-527.64 951.28,-534.62"/>
</g>
<!-- Node13 -->
<g id="node13" class="node">
<title>Node13</title>
<g id="a_node13"><a xlink:href="namespacesvg_1_1constants.html#ac460bc8db60d85c3ae1cf8b1a903405e" target="_top" xlink:title="Formatting character constants.">
<polygon fill="white" stroke="#666666" points="1192.5,-532.5 1095.5,-532.5 1095.5,-515.5 1192.5,-515.5 1192.5,-532.5"/>
<text text-anchor="middle" x="1144" y="-522.1" font-family="SourceSans" font-size="8.00">svg::constants::space</text>
</a>
</g>
</g>
<!-- Node2&#45;&gt;Node13 -->
<g id="edge14" class="edge">
<title>Node2&#45;&gt;Node13</title>
<path fill="none" stroke="#63b8ff" d="M726.41,-410.75C733.67,-435.24 757.86,-504.64 806,-534 903,-593.16 1046.66,-556.85 1110.45,-535.84"/>
<polygon fill="#63b8ff" stroke="#63b8ff" points="1111.63,-539.14 1119.98,-532.62 1109.39,-532.51 1111.63,-539.14"/>
</g>
<!-- Node14 -->
<g id="node14" class="node">
<title>Node14</title>
<g id="a_node14"><a xlink:href="group__elements.html#a6dbca7cef2cbc0c10aa44c44ae20b36e" target="_top" xlink:title=" ">
<polygon fill="white" stroke="#666666" points="908.5,-436 816.5,-436 816.5,-410 908.5,-410 908.5,-436"/>
<text text-anchor="start" x="824.5" y="-425.6" font-family="SourceSans" font-size="8.00">svg::path_element::</text>
<text text-anchor="middle" x="862.5" y="-416.6" font-family="SourceSans" font-size="8.00">start_element</text>
</a>
</g>
</g>
<!-- Node2&#45;&gt;Node14 -->
<g id="edge15" class="edge">
<title>Node2&#45;&gt;Node14</title>
<path fill="none" stroke="#63b8ff" d="M770.17,-409.05C781.75,-410.82 794.29,-412.74 806.26,-414.56"/>
<polygon fill="#63b8ff" stroke="#63b8ff" points="805.74,-418.02 816.15,-416.07 806.8,-411.1 805.74,-418.02"/>
</g>
<!-- Node15 -->
<g id="node15" class="node">
<title>Node15</title>
<g id="a_node15"><a xlink:href="namespacesvg.html#a46164d75fd5109e4ed8879abbacd5c11" target="_top" xlink:title="Zero degrees is top, going clockwise (cw).">
<polygon fill="white" stroke="#666666" points="919,-229.5 806,-229.5 806,-212.5 919,-212.5 919,-229.5"/>
<text text-anchor="middle" x="862.5" y="-219.1" font-family="SourceSans" font-size="8.00">svg::zero_angle_north_cw</text>
</a>
</g>
</g>
<!-- Node2&#45;&gt;Node15 -->
<g id="edge17" class="edge">
<title>Node2&#45;&gt;Node15</title>
<path fill="none" stroke="#63b8ff" d="M735.83,-393.26C746.23,-385 761.06,-371.7 770,-357 798.48,-310.15 767.57,-278.11 806,-239 807.59,-237.39 809.32,-235.92 811.16,-234.58"/>
<polygon fill="#63b8ff" stroke="#63b8ff" points="812.94,-237.59 819.81,-229.52 809.41,-231.55 812.94,-237.59"/>
</g>
<!-- Node5&#45;&gt;Node6 -->
<g id="edge5" class="edge">
<title>Node5&#45;&gt;Node6</title>
<path fill="none" stroke="#63b8ff" d="M1030.29,-447.95C1054.86,-433.58 1094.22,-410.54 1119.33,-395.85"/>
<polygon fill="#63b8ff" stroke="#63b8ff" points="1121.33,-398.74 1128.19,-390.66 1117.8,-392.69 1121.33,-398.74"/>
</g>
<!-- Node9 -->
<g id="node9" class="node">
<title>Node9</title>
<g id="a_node9"><a xlink:href="namespacesvg.html#aef05ac63d88a6102981d3faf37275297" target="_top" xlink:title="Angle in radians.">
<polygon fill="white" stroke="#666666" points="1059,-266 955,-266 955,-240 1059,-240 1059,-266"/>
<text text-anchor="start" x="963" y="-255.6" font-family="SourceSans" font-size="8.00">svg::get_circumference</text>
<text text-anchor="middle" x="1007" y="-246.6" font-family="SourceSans" font-size="8.00">_point_r</text>
</a>
</g>
</g>
<!-- Node8&#45;&gt;Node9 -->
<g id="edge8" class="edge">
<title>Node8&#45;&gt;Node9</title>
<path fill="none" stroke="#63b8ff" d="M914.54,-258.13C924.26,-257.59 934.53,-257.01 944.54,-256.45"/>
<polygon fill="#63b8ff" stroke="#63b8ff" points="945.05,-259.93 954.83,-255.87 944.65,-252.94 945.05,-259.93"/>
</g>
<!-- Node10 -->
<g id="node10" class="node">
<title>Node10</title>
<g id="a_node10"><a xlink:href="namespacesvg_1_1constants.html#a0e0b0d9314bc47324ee39884bf8bb2fd" target="_top" xlink:title=" ">
<polygon fill="white" stroke="#666666" points="1048.5,-301.5 965.5,-301.5 965.5,-284.5 1048.5,-284.5 1048.5,-301.5"/>
<text text-anchor="middle" x="1007" y="-291.1" font-family="SourceSans" font-size="8.00">svg::constants::pi</text>
</a>
</g>
</g>
<!-- Node8&#45;&gt;Node10 -->
<g id="edge9" class="edge">
<title>Node8&#45;&gt;Node10</title>
<path fill="none" stroke="#63b8ff" d="M914.54,-272.46C928.68,-275.64 943.98,-279.07 957.94,-282.21"/>
<polygon fill="#63b8ff" stroke="#63b8ff" points="957.31,-285.65 967.83,-284.43 958.84,-278.82 957.31,-285.65"/>
</g>
<!-- Node12&#45;&gt;Node6 -->
<g id="edge13" class="edge">
<title>Node12&#45;&gt;Node6</title>
<path fill="none" stroke="#63b8ff" d="M1026.2,-510.78C1036.28,-503.13 1048.79,-493.04 1059,-483 1086.9,-455.56 1115.14,-419.52 1130.73,-398.75"/>
<polygon fill="#63b8ff" stroke="#63b8ff" points="1133.62,-400.72 1136.78,-390.6 1128,-396.54 1133.62,-400.72"/>
</g>
<!-- Node12&#45;&gt;Node13 -->
<g id="edge12" class="edge">
<title>Node12&#45;&gt;Node13</title>
<path fill="none" stroke="#63b8ff" d="M1053.33,-524C1063.55,-524 1074.52,-524 1085.17,-524"/>
<polygon fill="#63b8ff" stroke="#63b8ff" points="1085.25,-527.5 1095.25,-524 1085.25,-520.5 1085.25,-527.5"/>
</g>
<!-- Node17 -->
<g id="node17" class="node">
<title>Node17</title>
<g id="a_node17"><a xlink:href="namespacesvg.html#a07c6fad0adddb0908ed4ef00536967c9" target="_top" xlink:title="Concatenate ids onto one line.">
<polygon fill="white" stroke="#666666" points="366,-310.5 276,-310.5 276,-293.5 366,-293.5 366,-310.5"/>
<text text-anchor="middle" x="321" y="-300.1" font-family="SourceSans" font-size="8.00">svg::append_ids_at</text>
</a>
</g>
</g>
<!-- Node16&#45;&gt;Node17 -->
<g id="edge19" class="edge">
<title>Node16&#45;&gt;Node17</title>
<path fill="none" stroke="#63b8ff" d="M225.6,-289.6C238.24,-291.26 252.27,-293.1 265.55,-294.85"/>
<polygon fill="#63b8ff" stroke="#63b8ff" points="265.16,-298.33 275.53,-296.16 266.08,-291.38 265.16,-298.33"/>
</g>
<!-- Node18 -->
<g id="node18" class="node">
<title>Node18</title>
<g id="a_node18"><a xlink:href="namespacesvg.html#a0a0dce44cf8a75daa516cdf9fade5a85" target="_top" xlink:title=" ">
<polygon fill="white" stroke="#666666" points="487,-194.5 406,-194.5 406,-177.5 487,-177.5 487,-194.5"/>
<text text-anchor="middle" x="446.5" y="-184.1" font-family="SourceSans" font-size="8.00">svg::radial_text_r</text>
</a>
</g>
</g>
<!-- Node16&#45;&gt;Node18 -->
<g id="edge46" class="edge">
<title>Node16&#45;&gt;Node18</title>
<path fill="none" stroke="#63b8ff" d="M220.84,-270.91C226.24,-268.12 231.49,-264.83 236,-261 258.55,-241.84 246.84,-220.57 272,-205 308.97,-182.11 359.02,-178.92 395.86,-180.52"/>
<polygon fill="#63b8ff" stroke="#63b8ff" points="395.69,-184.02 405.88,-181.09 396.09,-177.03 395.69,-184.02"/>
</g>
<!-- Node31 -->
<g id="node31" class="node">
<title>Node31</title>
<g id="a_node31"><a xlink:href="namespacesvg.html#a929b5c33bc0c139332dddd5d3b8ea3d0" target="_top" xlink:title="Transform a value on a range to an angle on the radial range.">
<polygon fill="white" stroke="#666666" points="759,-347.5 687,-347.5 687,-330.5 759,-330.5 759,-347.5"/>
<text text-anchor="middle" x="723" y="-337.1" font-family="SourceSans" font-size="8.00">svg::get_angle</text>
</a>
</g>
</g>
<!-- Node16&#45;&gt;Node31 -->
<g id="edge41" class="edge">
<title>Node16&#45;&gt;Node31</title>
<path fill="none" stroke="#63b8ff" d="M208.73,-297.15C226.11,-305.34 249.85,-315.2 272,-320 417.15,-351.44 594.61,-346.69 676.55,-342.14"/>
<polygon fill="#63b8ff" stroke="#63b8ff" points="676.98,-345.62 686.76,-341.55 676.58,-338.63 676.98,-345.62"/>
</g>
<!-- Node33 -->
<g id="node33" class="node">
<title>Node33</title>
<g id="a_node33"><a xlink:href="namespacesvg.html#a370d930bd06a84735a4eecdd677154e6" target="_top" xlink:title="Get the label space. Value &#45;&gt; Name, as a string where value has labelspaces of fill NB: Should be the...">
<polygon fill="white" stroke="#666666" points="370,-275.5 272,-275.5 272,-258.5 370,-258.5 370,-275.5"/>
<text text-anchor="middle" x="321" y="-265.1" font-family="SourceSans" font-size="8.00">svg::get_label_spaces</text>
</a>
</g>
</g>
<!-- Node16&#45;&gt;Node33 -->
<g id="edge44" class="edge">
<title>Node16&#45;&gt;Node33</title>
<path fill="none" stroke="#63b8ff" d="M225.6,-278.71C237.01,-277.3 249.55,-275.74 261.66,-274.24"/>
<polygon fill="#63b8ff" stroke="#63b8ff" points="262.2,-277.7 271.69,-272.99 261.33,-270.75 262.2,-277.7"/>
</g>
<!-- Node34 -->
<g id="node34" class="node">
<title>Node34</title>
<g id="a_node34"><a xlink:href="namespacesvg.html#aa89ab2d58bfaf850b84e976828851b9b" target="_top" xlink:title="Make radial labels.">
<polygon fill="white" stroke="#666666" points="367,-240 275,-240 275,-214 367,-214 367,-240"/>
<text text-anchor="start" x="283" y="-229.6" font-family="SourceSans" font-size="8.00">svg::make_label_for</text>
<text text-anchor="middle" x="321" y="-220.6" font-family="SourceSans" font-size="8.00">_value</text>
</a>
</g>
</g>
<!-- Node16&#45;&gt;Node34 -->
<g id="edge45" class="edge">
<title>Node16&#45;&gt;Node34</title>
<path fill="none" stroke="#63b8ff" d="M214.43,-270.92C233.66,-262.92 258.47,-252.6 279.21,-243.97"/>
<polygon fill="#63b8ff" stroke="#63b8ff" points="280.83,-247.09 288.72,-240.02 278.14,-240.63 280.83,-247.09"/>
</g>
<!-- Node17&#45;&gt;Node18 -->
<g id="edge20" class="edge">
<title>Node17&#45;&gt;Node18</title>
<path fill="none" stroke="#63b8ff" d="M352.51,-293.48C358.63,-290.99 364.78,-287.86 370,-284 399.8,-261.97 423.73,-225.11 436.17,-203.42"/>
<polygon fill="#63b8ff" stroke="#63b8ff" points="439.25,-205.07 441.05,-194.63 433.13,-201.67 439.25,-205.07"/>
</g>
<!-- Node18&#45;&gt;Node8 -->
<g id="edge21" class="edge">
<title>Node18&#45;&gt;Node8</title>
<path fill="none" stroke="#63b8ff" d="M462.28,-194.57C477.13,-202.76 500.9,-214.74 523,-221 617.37,-247.71 731.43,-256.6 800.13,-259.55"/>
<polygon fill="#63b8ff" stroke="#63b8ff" points="800.21,-263.06 810.34,-259.96 800.49,-256.06 800.21,-263.06"/>
</g>
<!-- Node18&#45;&gt;Node15 -->
<g id="edge40" class="edge">
<title>Node18&#45;&gt;Node15</title>
<path fill="none" stroke="#63b8ff" d="M485.35,-194.58C497.34,-197.01 510.67,-199.42 523,-201 617.28,-213.09 727.29,-217.89 795.68,-219.78"/>
<polygon fill="#63b8ff" stroke="#63b8ff" points="795.78,-223.28 805.87,-220.05 795.97,-216.29 795.78,-223.28"/>
</g>
<!-- Node19 -->
<g id="node19" class="node">
<title>Node19</title>
<g id="a_node19"><a xlink:href="namespacesvg.html#ae7eab6d9ce1f55bcbcc997cd24c5abcf" target="_top" xlink:title="Text with typography, arranged ccw around points (x,y) on a circle.">
<polygon fill="white" stroke="#666666" points="627.5,-122.5 535.5,-122.5 535.5,-105.5 627.5,-105.5 627.5,-122.5"/>
<text text-anchor="middle" x="581.5" y="-112.1" font-family="SourceSans" font-size="8.00">svg::radial_text_ccw</text>
</a>
</g>
</g>
<!-- Node18&#45;&gt;Node19 -->
<g id="edge22" class="edge">
<title>Node18&#45;&gt;Node19</title>
<path fill="none" stroke="#63b8ff" d="M457.05,-177.35C470.73,-165.38 497.12,-143.78 523,-131 526.78,-129.13 530.8,-127.43 534.9,-125.89"/>
<polygon fill="#63b8ff" stroke="#63b8ff" points="536.19,-129.15 544.5,-122.58 533.91,-122.53 536.19,-129.15"/>
</g>
<!-- Node29 -->
<g id="node29" class="node">
<title>Node29</title>
<g id="a_node29"><a xlink:href="namespacesvg.html#a27b1041d0851178e4835e1f623a46161" target="_top" xlink:title="Text with typography, arranged cw around points (x,y) on a circle.">
<polygon fill="white" stroke="#666666" points="625.5,-157.5 537.5,-157.5 537.5,-140.5 625.5,-140.5 625.5,-157.5"/>
<text text-anchor="middle" x="581.5" y="-147.1" font-family="SourceSans" font-size="8.00">svg::radial_text_cw</text>
</a>
</g>
</g>
<!-- Node18&#45;&gt;Node29 -->
<g id="edge37" class="edge">
<title>Node18&#45;&gt;Node29</title>
<path fill="none" stroke="#63b8ff" d="M478.35,-177.42C496.73,-172.3 520.27,-165.76 540.12,-160.23"/>
<polygon fill="#63b8ff" stroke="#63b8ff" points="541.12,-163.59 549.82,-157.54 539.25,-156.84 541.12,-163.59"/>
</g>
<!-- Node30 -->
<g id="node30" class="node">
<title>Node30</title>
<g id="a_node30"><a xlink:href="namespacesvg.html#a010fea242a289d173d521b501140cd72" target="_top" xlink:title="Zero degrees is top, going clockwise (cw).">
<polygon fill="white" stroke="#666666" points="640,-192.5 523,-192.5 523,-175.5 640,-175.5 640,-192.5"/>
<text text-anchor="middle" x="581.5" y="-182.1" font-family="SourceSans" font-size="8.00">svg::zero_angle_north_ccw</text>
</a>
</g>
</g>
<!-- Node18&#45;&gt;Node30 -->
<g id="edge39" class="edge">
<title>Node18&#45;&gt;Node30</title>
<path fill="none" stroke="#63b8ff" d="M487.04,-185.41C495.08,-185.28 503.75,-185.15 512.45,-185.02"/>
<polygon fill="#63b8ff" stroke="#63b8ff" points="512.7,-188.52 522.65,-184.87 512.59,-181.52 512.7,-188.52"/>
</g>
<!-- Node20 -->
<g id="node20" class="node">
<title>Node20</title>
<g id="a_node20"><a xlink:href="namespacesvg.html#a5791c1fc9121f01e5f666b7ce0367dfa" target="_top" xlink:title="Text at @origin, with style and ... a transformation=rotation of @deg about @rorigin.">
<polygon fill="white" stroke="#666666" points="764,-122.5 682,-122.5 682,-105.5 764,-105.5 764,-122.5"/>
<text text-anchor="middle" x="723" y="-112.1" font-family="SourceSans" font-size="8.00">svg::styled_text_r</text>
</a>
</g>
</g>
<!-- Node19&#45;&gt;Node20 -->
<g id="edge23" class="edge">
<title>Node19&#45;&gt;Node20</title>
<path fill="none" stroke="#63b8ff" d="M627.79,-114C641.75,-114 657.2,-114 671.48,-114"/>
<polygon fill="#63b8ff" stroke="#63b8ff" points="671.64,-117.5 681.64,-114 671.64,-110.5 671.64,-117.5"/>
</g>
<!-- Node20&#45;&gt;Node4 -->
<g id="edge33" class="edge">
<title>Node20&#45;&gt;Node4</title>
<path fill="none" stroke="#63b8ff" d="M738.88,-122.57C755.14,-131.78 782.06,-146.65 806,-158 810.14,-159.96 814.5,-161.93 818.87,-163.84"/>
<polygon fill="#63b8ff" stroke="#63b8ff" points="817.82,-167.2 828.39,-167.91 820.57,-160.76 817.82,-167.2"/>
</g>
<!-- Node21 -->
<g id="node21" class="node">
<title>Node21</title>
<g id="a_node21"><a xlink:href="group__elements.html#aad29e1daf75bdcd69a39575a6807fa0f" target="_top" xlink:title="Either serialize immediately (as below), or create data structure that adds data to data_vec and then...">
<polygon fill="white" stroke="#666666" points="907,-26 818,-26 818,0 907,0 907,-26"/>
<text text-anchor="start" x="826" y="-15.6" font-family="SourceSans" font-size="8.00">svg::text_element::</text>
<text text-anchor="middle" x="862.5" y="-6.6" font-family="SourceSans" font-size="8.00">add_data</text>
</a>
</g>
</g>
<!-- Node20&#45;&gt;Node21 -->
<g id="edge24" class="edge">
<title>Node20&#45;&gt;Node21</title>
<path fill="none" stroke="#63b8ff" d="M731.04,-105.26C744.23,-89.36 774.25,-55.44 806,-35 808.45,-33.42 811.03,-31.92 813.69,-30.51"/>
<polygon fill="#63b8ff" stroke="#63b8ff" points="815.45,-33.54 822.91,-26.02 812.39,-27.25 815.45,-33.54"/>
</g>
<!-- Node26 -->
<g id="node26" class="node">
<title>Node26</title>
<g id="a_node26"><a xlink:href="group__elements.html#ga13c46848317034d16c62a7d2061ba3d6" target="_top" xlink:title=" ">
<polygon fill="white" stroke="#666666" points="907,-114 818,-114 818,-88 907,-88 907,-114"/>
<text text-anchor="start" x="826" y="-103.6" font-family="SourceSans" font-size="8.00">svg::text_element::</text>
<text text-anchor="middle" x="862.5" y="-94.6" font-family="SourceSans" font-size="8.00">finish_element</text>
</a>
</g>
</g>
<!-- Node20&#45;&gt;Node26 -->
<g id="edge34" class="edge">
<title>Node20&#45;&gt;Node26</title>
<path fill="none" stroke="#63b8ff" d="M764.14,-110.2C777.66,-108.93 792.98,-107.48 807.4,-106.11"/>
<polygon fill="#63b8ff" stroke="#63b8ff" points="808.08,-109.57 817.7,-105.14 807.42,-102.6 808.08,-109.57"/>
</g>
<!-- Node27 -->
<g id="node27" class="node">
<title>Node27</title>
<g id="a_node27"><a xlink:href="structsvg_1_1transform.html#acf9836f4ba647f0dd2b53963a0f714d0" target="_top" xlink:title=" ">
<polygon fill="white" stroke="#666666" points="911.5,-149.5 813.5,-149.5 813.5,-132.5 911.5,-132.5 911.5,-149.5"/>
<text text-anchor="middle" x="862.5" y="-139.1" font-family="SourceSans" font-size="8.00">svg::transform::rotate</text>
</a>
</g>
</g>
<!-- Node20&#45;&gt;Node27 -->
<g id="edge35" class="edge">
<title>Node20&#45;&gt;Node27</title>
<path fill="none" stroke="#63b8ff" d="M764.14,-121.88C777.92,-124.59 793.57,-127.66 808.23,-130.54"/>
<polygon fill="#63b8ff" stroke="#63b8ff" points="807.7,-134 818.19,-132.49 809.05,-127.13 807.7,-134"/>
</g>
<!-- Node28 -->
<g id="node28" class="node">
<title>Node28</title>
<g id="a_node28"><a xlink:href="group__elements.html#ae45bec611a6ec17ea46aab6d680ae042" target="_top" xlink:title=" ">
<polygon fill="white" stroke="#666666" points="907,-70 818,-70 818,-44 907,-44 907,-70"/>
<text text-anchor="start" x="826" y="-59.6" font-family="SourceSans" font-size="8.00">svg::text_element::</text>
<text text-anchor="middle" x="862.5" y="-50.6" font-family="SourceSans" font-size="8.00">start_element</text>
</a>
</g>
</g>
<!-- Node20&#45;&gt;Node28 -->
<g id="edge36" class="edge">
<title>Node20&#45;&gt;Node28</title>
<path fill="none" stroke="#63b8ff" d="M743.82,-105.37C760.39,-98.19 784.67,-87.78 806,-79 810.16,-77.29 814.5,-75.53 818.84,-73.78"/>
<polygon fill="#63b8ff" stroke="#63b8ff" points="820.29,-76.97 828.28,-70 817.7,-70.47 820.29,-76.97"/>
</g>
<!-- Node21&#45;&gt;Node6 -->
<g id="edge32" class="edge">
<title>Node21&#45;&gt;Node6</title>
<path fill="none" stroke="#63b8ff" d="M907.14,-25.78C911.52,-28.33 915.6,-31.37 919,-35 954.48,-72.82 925.73,-103.18 955,-146 988.69,-195.28 1020.7,-185.21 1059,-231 1094.83,-273.83 1122.96,-334.21 1135.65,-363.97"/>
<polygon fill="#63b8ff" stroke="#63b8ff" points="1132.53,-365.58 1139.61,-373.46 1138.99,-362.89 1132.53,-365.58"/>
</g>
<!-- Node22 -->
<g id="node22" class="node">
<title>Node22</title>
<g id="a_node22"><a xlink:href="structsvg_1_1typography.html#adbc62f74f1fed3f7c77567250f084f83" target="_top" xlink:title=" ">
<polygon fill="white" stroke="#666666" points="1055.5,-137 958.5,-137 958.5,-111 1055.5,-111 1055.5,-137"/>
<text text-anchor="start" x="966.5" y="-126.6" font-family="SourceSans" font-size="8.00">svg::typography::add</text>
<text text-anchor="middle" x="1007" y="-117.6" font-family="SourceSans" font-size="8.00">_attribute</text>
</a>
</g>
</g>
<!-- Node21&#45;&gt;Node22 -->
<g id="edge25" class="edge">
<title>Node21&#45;&gt;Node22</title>
<path fill="none" stroke="#63b8ff" d="M902.47,-26.02C908.22,-28.62 913.91,-31.61 919,-35 947.33,-53.85 973.73,-83.19 989.86,-102.98"/>
<polygon fill="#63b8ff" stroke="#63b8ff" points="987.14,-105.19 996.11,-110.82 992.61,-100.82 987.14,-105.19"/>
</g>
<!-- Node24 -->
<g id="node24" class="node">
<title>Node24</title>
<g id="a_node24"><a xlink:href="namespacesvg.html#a48ac748e89e22789d1772326a98dd7b6" target="_top" xlink:title=" ">
<polygon fill="white" stroke="#666666" points="1188,-93.5 1100,-93.5 1100,-76.5 1188,-76.5 1188,-93.5"/>
<text text-anchor="middle" x="1144" y="-83.1" font-family="SourceSans" font-size="8.00">svg::string_replace</text>
</a>
</g>
</g>
<!-- Node21&#45;&gt;Node24 -->
<g id="edge31" class="edge">
<title>Node21&#45;&gt;Node24</title>
<path fill="none" stroke="#63b8ff" d="M907.17,-24.25C959.71,-37.78 1047.36,-60.36 1099.72,-73.85"/>
<polygon fill="#63b8ff" stroke="#63b8ff" points="1099.14,-77.32 1109.7,-76.42 1100.89,-70.54 1099.14,-77.32"/>
</g>
<!-- Node22&#45;&gt;Node6 -->
<g id="edge30" class="edge">
<title>Node22&#45;&gt;Node6</title>
<path fill="none" stroke="#63b8ff" d="M1021.95,-137.28C1033.07,-148.42 1048.47,-165.18 1059,-182 1097.76,-243.9 1126,-326.8 1137.42,-363.35"/>
<polygon fill="#63b8ff" stroke="#63b8ff" points="1134.14,-364.6 1140.41,-373.13 1140.83,-362.55 1134.14,-364.6"/>
</g>
<!-- Node22&#45;&gt;Node13 -->
<g id="edge27" class="edge">
<title>Node22&#45;&gt;Node13</title>
<path fill="none" stroke="#63b8ff" d="M1015.48,-137.09C1026.49,-156.85 1047.02,-195.73 1059,-231 1083.69,-303.72 1073.07,-326.4 1095,-400 1106.54,-438.74 1124.75,-482.49 1135.11,-506.28"/>
<polygon fill="#63b8ff" stroke="#63b8ff" points="1131.91,-507.7 1139.14,-515.45 1138.32,-504.88 1131.91,-507.7"/>
</g>
<!-- Node23 -->
<g id="node23" class="node">
<title>Node23</title>
<g id="a_node23"><a xlink:href="namespacesvg_1_1constants.html#a3972655f1dfdc090ec2592d1fb37e87c" target="_top" xlink:title=" ">
<polygon fill="white" stroke="#666666" points="1193,-129.5 1095,-129.5 1095,-112.5 1193,-112.5 1193,-129.5"/>
<text text-anchor="middle" x="1144" y="-119.1" font-family="SourceSans" font-size="8.00">svg::constants::quote</text>
</a>
</g>
</g>
<!-- Node22&#45;&gt;Node23 -->
<g id="edge26" class="edge">
<title>Node22&#45;&gt;Node23</title>
<path fill="none" stroke="#63b8ff" d="M1055.6,-122.94C1065.06,-122.73 1075.1,-122.51 1084.87,-122.29"/>
<polygon fill="#63b8ff" stroke="#63b8ff" points="1085,-125.79 1094.92,-122.07 1084.85,-118.79 1085,-125.79"/>
</g>
<!-- Node22&#45;&gt;Node24 -->
<g id="edge28" class="edge">
<title>Node22&#45;&gt;Node24</title>
<path fill="none" stroke="#63b8ff" d="M1053.33,-110.91C1069.54,-106.22 1087.67,-100.98 1103.36,-96.45"/>
<polygon fill="#63b8ff" stroke="#63b8ff" points="1104.65,-99.72 1113.28,-93.59 1102.7,-93 1104.65,-99.72"/>
</g>
<!-- Node25 -->
<g id="node25" class="node">
<title>Node25</title>
<g id="a_node25"><a xlink:href="structsvg_1_1typography.html#a174c1ffb4e56214d71523ffe7e422561" target="_top" xlink:title=" ">
<polygon fill="white" stroke="#666666" points="1188.5,-174 1099.5,-174 1099.5,-148 1188.5,-148 1188.5,-174"/>
<text text-anchor="start" x="1107.5" y="-163.6" font-family="SourceSans" font-size="8.00">svg::typography::to</text>
<text text-anchor="middle" x="1144" y="-154.6" font-family="SourceSans" font-size="8.00">_string</text>
</a>
</g>
</g>
<!-- Node22&#45;&gt;Node25 -->
<g id="edge29" class="edge">
<title>Node22&#45;&gt;Node25</title>
<path fill="none" stroke="#63b8ff" d="M1055.6,-137.04C1066.63,-140.07 1078.45,-143.31 1089.72,-146.4"/>
<polygon fill="#63b8ff" stroke="#63b8ff" points="1088.87,-149.79 1099.44,-149.06 1090.72,-143.04 1088.87,-149.79"/>
</g>
<!-- Node29&#45;&gt;Node20 -->
<g id="edge38" class="edge">
<title>Node29&#45;&gt;Node20</title>
<path fill="none" stroke="#63b8ff" d="M616.63,-140.44C635.12,-135.8 658.18,-130.01 678.01,-125.04"/>
<polygon fill="#63b8ff" stroke="#63b8ff" points="678.9,-128.42 687.74,-122.59 677.19,-121.63 678.9,-128.42"/>
</g>
<!-- Node31&#45;&gt;Node11 -->
<g id="edge42" class="edge">
<title>Node31&#45;&gt;Node11</title>
<path fill="none" stroke="#63b8ff" d="M759.05,-340.53C772.43,-341.11 788.08,-341.8 803.06,-342.45"/>
<polygon fill="#63b8ff" stroke="#63b8ff" points="803.14,-345.96 813.28,-342.9 803.45,-338.96 803.14,-345.96"/>
</g>
<!-- Node32 -->
<g id="node32" class="node">
<title>Node32</title>
<g id="a_node32"><a xlink:href="namespacesvg.html#a673cb54838801fae8471436ce43298a9" target="_top" xlink:title="Scale value from min to max on range (nfloor, nceil).">
<polygon fill="white" stroke="#666666" points="910,-318 815,-318 815,-292 910,-292 910,-318"/>
<text text-anchor="start" x="823" y="-307.6" font-family="SourceSans" font-size="8.00">svg::normalize_value</text>
<text text-anchor="middle" x="862.5" y="-298.6" font-family="SourceSans" font-size="8.00">_on_range</text>
</a>
</g>
</g>
<!-- Node31&#45;&gt;Node32 -->
<g id="edge43" class="edge">
<title>Node31&#45;&gt;Node32</title>
<path fill="none" stroke="#63b8ff" d="M758.7,-330.42C772.66,-326.97 789.14,-322.89 804.76,-319.03"/>
<polygon fill="#63b8ff" stroke="#63b8ff" points="806,-322.33 814.86,-316.53 804.32,-315.53 806,-322.33"/>
</g>
</g>
</svg>
        <g id="navigator" transform="translate(0 0)" fill="#404254">
                <rect fill="#f2f5e9" fill-opacity="0.5" stroke="#606060" stroke-width=".5" x="0" y="0" width="60" height="60"/>
                <use id="zoomplus" xlink:href="#zoomPlus" x="17" y="9" onmousedown="handleZoom(evt,'in')"/>
                <use id="zoomminus" xlink:href="#zoomMin" x="42" y="9" onmousedown="handleZoom(evt,'out')"/>
                <use id="reset" xlink:href="#resetDef" x="30" y="36" onmousedown="handleReset()"/>
                <g id="arrowUp" xlink:href="#dirArrow" transform="translate(30 24)" onmousedown="handlePan(0,-1)">
                  <use xlink:href="#rim" fill="#404040">
                        <set attributeName="fill" to="#808080" begin="arrowUp.mouseover" end="arrowUp.mouseout"/>
                  </use>
                  <path fill="none" stroke="white" stroke-width="1.5" d="M0,-3.0v7 M-2.5,-0.5L0,-3.0L2.5,-0.5"/>
                </g>
                <g id="arrowRight" xlink:href="#dirArrow" transform="rotate(90) translate(36 -43)" onmousedown="handlePan(1,0)">
                  <use xlink:href="#rim" fill="#404040">
                        <set attributeName="fill" to="#808080" begin="arrowRight.mouseover" end="arrowRight.mouseout"/>
                  </use>
                  <path fill="none" stroke="white" stroke-width="1.5" d="M0,-3.0v7 M-2.5,-0.5L0,-3.0L2.5,-0.5"/>
                </g>
                <g id="arrowDown" xlink:href="#dirArrow" transform="rotate(180) translate(-30 -48)" onmousedown="handlePan(0,1)">
                  <use xlink:href="#rim" fill="#404040">
                        <set attributeName="fill" to="#808080" begin="arrowDown.mouseover" end="arrowDown.mouseout"/>
                  </use>
                  <path fill="none" stroke="white" stroke-width="1.5" d="M0,-3.0v7 M-2.5,-0.5L0,-3.0L2.5,-0.5"/>
                </g>
                <g id="arrowLeft" xlink:href="#dirArrow" transform="rotate(270) translate(-36 17)" onmousedown="handlePan(-1,0)">
                  <use xlink:href="#rim" fill="#404040">
                        <set attributeName="fill" to="#808080" begin="arrowLeft.mouseover" end="arrowLeft.mouseout"/>
                  </use>
                  <path fill="none" stroke="white" stroke-width="1.5" d="M0,-3.0v7 M-2.5,-0.5L0,-3.0L2.5,-0.5"/>
                </g>
        </g>
        <svg viewBox="0 0 15 15" width="100%" height="30px" preserveAspectRatio="xMaxYMin meet">
         <g id="arrow_out" transform="scale(0.3 0.3)">
          <a xlink:href="namespacesvg_a66e68ecdb41a596b05c857e0aea16a4f_cgraph_org.svg" target="_base">
           <rect id="button" ry="5" rx="5" y="6" x="6" height="38" width="38"
                fill="#f2f5e9" fill-opacity="0.5" stroke="#606060" stroke-width="1.0"/>
           <path id="arrow"
             d="M 11.500037,31.436501 C 11.940474,20.09759 22.043105,11.32322 32.158766,21.979434 L 37.068811,17.246167 C 37.068811,17.246167 37.088388,32 37.088388,32 L 22.160133,31.978069 C 22.160133,31.978069 26.997745,27.140456 26.997745,27.140456 C 18.528582,18.264221 13.291696,25.230495 11.500037,31.436501 z"
             style="fill:#404040;"/>
          </a>
         </g>
        </svg>
</svg>
