<?xml version="1.0" encoding="UTF-8" standalone="no"?>
<!DOCTYPE svg PUBLIC "-//W3C//DTD SVG 1.1//EN"
 "http://www.w3.org/Graphics/SVG/1.1/DTD/svg11.dtd">
<!-- Generated by graphviz version 5.0.0 (0)
 -->
<!-- Title: svg::make_path_triangle Pages: 1 -->
<svg width="407pt" height="326pt"
 viewBox="0.00 0.00 407.00 325.50" xmlns="http://www.w3.org/2000/svg" xmlns:xlink="http://www.w3.org/1999/xlink">
<g id="graph0" class="graph" transform="scale(1 1) rotate(0) translate(4 321.5)">
<title>svg::make_path_triangle</title>
<!-- Node1 -->
<g id="node1" class="node">
<title>Node1</title>
<g id="a_node1"><a xlink:title="Center a triangle at this point.">
<polygon fill="#999999" stroke="#666666" points="110,-161 0,-161 0,-144 110,-144 110,-161"/>
<text text-anchor="middle" x="55" y="-150.6" font-family="SourceSans" font-size="8.00">svg::make_path_triangle</text>
</a>
</g>
</g>
<!-- Node2 -->
<g id="node2" class="node">
<title>Node2</title>
<g id="a_node2"><a xlink:href="group__elements.html#a807f3c30f2ace338ad10aaf230b47665" target="_top" xlink:title="Either serialize immediately (as below), or create data structure that adds data to data_vec and then...">
<polygon fill="white" stroke="#666666" points="248.5,-317.5 156.5,-317.5 156.5,-291.5 248.5,-291.5 248.5,-317.5"/>
<text text-anchor="start" x="164.5" y="-307.1" font-family="SourceSans" font-size="8.00">svg::path_element::</text>
<text text-anchor="middle" x="202.5" y="-298.1" font-family="SourceSans" font-size="8.00">add_data</text>
</a>
</g>
</g>
<!-- Node1&#45;&gt;Node2 -->
<g id="edge1" class="edge">
<title>Node1&#45;&gt;Node2</title>
<path fill="none" stroke="#63b8ff" d="M59.74,-161.08C70.12,-183.97 101.51,-247.16 146,-282.5 147.75,-283.89 149.59,-285.2 151.51,-286.43"/>
<polygon fill="#63b8ff" stroke="#63b8ff" points="149.84,-289.51 160.27,-291.38 153.28,-283.42 149.84,-289.51"/>
</g>
<!-- Node3 -->
<g id="node3" class="node">
<title>Node3</title>
<g id="a_node3"><a xlink:href="group__elements.html#a238b38ca99a1cf6c2baf80c8e4338d99" target="_top" xlink:title=" ">
<polygon fill="white" stroke="#666666" points="248.5,-273.5 156.5,-273.5 156.5,-247.5 248.5,-247.5 248.5,-273.5"/>
<text text-anchor="start" x="164.5" y="-263.1" font-family="SourceSans" font-size="8.00">svg::element_base::</text>
<text text-anchor="middle" x="202.5" y="-254.1" font-family="SourceSans" font-size="8.00">add_style</text>
</a>
</g>
</g>
<!-- Node1&#45;&gt;Node3 -->
<g id="edge2" class="edge">
<title>Node1&#45;&gt;Node3</title>
<path fill="none" stroke="#63b8ff" d="M63.07,-161.21C77.22,-178.15 110.7,-215.87 146,-238.5 148.45,-240.07 151.04,-241.57 153.7,-242.98"/>
<polygon fill="#63b8ff" stroke="#63b8ff" points="152.4,-246.24 162.92,-247.46 155.46,-239.94 152.4,-246.24"/>
</g>
<!-- Node5 -->
<g id="node5" class="node">
<title>Node5</title>
<g id="a_node5"><a xlink:href="group__elements.html#gaac30ae99fb1a2542688fa1ffb43cd8e1" target="_top" xlink:title=" ">
<polygon fill="white" stroke="#666666" points="248.5,-229.5 156.5,-229.5 156.5,-203.5 248.5,-203.5 248.5,-229.5"/>
<text text-anchor="start" x="164.5" y="-219.1" font-family="SourceSans" font-size="8.00">svg::path_element::</text>
<text text-anchor="middle" x="202.5" y="-210.1" font-family="SourceSans" font-size="8.00">finish_element</text>
</a>
</g>
</g>
<!-- Node1&#45;&gt;Node5 -->
<g id="edge4" class="edge">
<title>Node1&#45;&gt;Node5</title>
<path fill="none" stroke="#63b8ff" d="M73.45,-161.02C91.48,-169.73 120.51,-183.51 146,-194.5 149.91,-196.18 153.99,-197.9 158.09,-199.58"/>
<polygon fill="#63b8ff" stroke="#63b8ff" points="157.03,-202.93 167.62,-203.44 159.66,-196.44 157.03,-202.93"/>
</g>
<!-- Node6 -->
<g id="node6" class="node">
<title>Node6</title>
<g id="a_node6"><a xlink:href="namespacesvg.html#ab44508c4aeca591141ebec50145b75cd" target="_top" xlink:title="Angle in degrees.">
<polygon fill="white" stroke="#666666" points="254.5,-185.5 150.5,-185.5 150.5,-159.5 254.5,-159.5 254.5,-185.5"/>
<text text-anchor="start" x="158.5" y="-175.1" font-family="SourceSans" font-size="8.00">svg::get_circumference</text>
<text text-anchor="middle" x="202.5" y="-166.1" font-family="SourceSans" font-size="8.00">_point_d</text>
</a>
</g>
</g>
<!-- Node1&#45;&gt;Node6 -->
<g id="edge5" class="edge">
<title>Node1&#45;&gt;Node6</title>
<path fill="none" stroke="#63b8ff" d="M110.18,-159.95C119.89,-161.28 130.08,-162.68 139.98,-164.04"/>
<polygon fill="#63b8ff" stroke="#63b8ff" points="139.79,-167.55 150.17,-165.44 140.74,-160.62 139.79,-167.55"/>
</g>
<!-- Node9 -->
<g id="node9" class="node">
<title>Node9</title>
<g id="a_node9"><a xlink:href="namespacesvg_1_1constants.html#ae42b583ceed2552c466993683f819ef2" target="_top" xlink:title=" ">
<polygon fill="white" stroke="#666666" points="254.5,-141 150.5,-141 150.5,-124 254.5,-124 254.5,-141"/>
<text text-anchor="middle" x="202.5" y="-130.6" font-family="SourceSans" font-size="8.00">svg::constants::hyphen</text>
</a>
</g>
</g>
<!-- Node1&#45;&gt;Node9 -->
<g id="edge8" class="edge">
<title>Node1&#45;&gt;Node9</title>
<path fill="none" stroke="#63b8ff" d="M110.18,-145.05C119.89,-143.72 130.08,-142.32 139.98,-140.96"/>
<polygon fill="#63b8ff" stroke="#63b8ff" points="140.74,-144.38 150.17,-139.56 139.79,-137.45 140.74,-144.38"/>
</g>
<!-- Node10 -->
<g id="node10" class="node">
<title>Node10</title>
<g id="a_node10"><a xlink:href="namespacesvg.html#a2c65de7707b8b7b1bca959a3a2bbba91" target="_top" xlink:title="Make single path segment.">
<polygon fill="white" stroke="#666666" points="251.5,-105.5 153.5,-105.5 153.5,-79.5 251.5,-79.5 251.5,-105.5"/>
<text text-anchor="start" x="161.5" y="-95.1" font-family="SourceSans" font-size="8.00">svg::make_path_data</text>
<text text-anchor="middle" x="202.5" y="-86.1" font-family="SourceSans" font-size="8.00">_from_points</text>
</a>
</g>
</g>
<!-- Node1&#45;&gt;Node10 -->
<g id="edge9" class="edge">
<title>Node1&#45;&gt;Node10</title>
<path fill="none" stroke="#63b8ff" d="M75.96,-143.92C94.17,-136.13 121.83,-124.39 146,-114.5 150.16,-112.8 154.5,-111.04 158.85,-109.3"/>
<polygon fill="#63b8ff" stroke="#63b8ff" points="160.3,-112.49 168.29,-105.53 157.7,-105.98 160.3,-112.49"/>
</g>
<!-- Node12 -->
<g id="node12" class="node">
<title>Node12</title>
<g id="a_node12"><a xlink:href="group__elements.html#a6dbca7cef2cbc0c10aa44c44ae20b36e" target="_top" xlink:title=" ">
<polygon fill="white" stroke="#666666" points="248.5,-61.5 156.5,-61.5 156.5,-35.5 248.5,-35.5 248.5,-61.5"/>
<text text-anchor="start" x="164.5" y="-51.1" font-family="SourceSans" font-size="8.00">svg::path_element::</text>
<text text-anchor="middle" x="202.5" y="-42.1" font-family="SourceSans" font-size="8.00">start_element</text>
</a>
</g>
</g>
<!-- Node1&#45;&gt;Node12 -->
<g id="edge11" class="edge">
<title>Node1&#45;&gt;Node12</title>
<path fill="none" stroke="#63b8ff" d="M63.61,-143.72C78.16,-127.37 111.57,-91.99 146,-70.5 148.6,-68.88 151.34,-67.34 154.15,-65.88"/>
<polygon fill="#63b8ff" stroke="#63b8ff" points="155.77,-68.98 163.29,-61.52 152.75,-62.67 155.77,-68.98"/>
</g>
<!-- Node13 -->
<g id="node13" class="node">
<title>Node13</title>
<g id="a_node13"><a xlink:href="namespacesvg.html#a46164d75fd5109e4ed8879abbacd5c11" target="_top" xlink:title="Zero degrees is top, going clockwise (cw).">
<polygon fill="white" stroke="#666666" points="259,-17 146,-17 146,0 259,0 259,-17"/>
<text text-anchor="middle" x="202.5" y="-6.6" font-family="SourceSans" font-size="8.00">svg::zero_angle_north_cw</text>
</a>
</g>
</g>
<!-- Node1&#45;&gt;Node13 -->
<g id="edge12" class="edge">
<title>Node1&#45;&gt;Node13</title>
<path fill="none" stroke="#63b8ff" d="M59.85,-143.7C70.27,-120.87 101.32,-59.22 146,-26.5 148.7,-24.53 151.62,-22.76 154.67,-21.18"/>
<polygon fill="#63b8ff" stroke="#63b8ff" points="156.36,-24.26 164.08,-17 153.52,-17.86 156.36,-24.26"/>
</g>
<!-- Node4 -->
<g id="node4" class="node">
<title>Node4</title>
<g id="a_node4"><a xlink:href="namespacesvg.html#a36b1c48ad4601b205790e3772ad0a7b6" target="_top" xlink:title=" ">
<polygon fill="white" stroke="#666666" points="381,-269 313,-269 313,-252 381,-252 381,-269"/>
<text text-anchor="middle" x="347" y="-258.6" font-family="SourceSans" font-size="8.00">svg::to_string</text>
</a>
</g>
</g>
<!-- Node3&#45;&gt;Node4 -->
<g id="edge3" class="edge">
<title>Node3&#45;&gt;Node4</title>
<path fill="none" stroke="#63b8ff" d="M248.59,-260.5C265.87,-260.5 285.55,-260.5 302.66,-260.5"/>
<polygon fill="#63b8ff" stroke="#63b8ff" points="302.95,-264 312.95,-260.5 302.95,-257 302.95,-264"/>
</g>
<!-- Node7 -->
<g id="node7" class="node">
<title>Node7</title>
<g id="a_node7"><a xlink:href="namespacesvg.html#aef05ac63d88a6102981d3faf37275297" target="_top" xlink:title="Angle in radians.">
<polygon fill="white" stroke="#666666" points="399,-205.5 295,-205.5 295,-179.5 399,-179.5 399,-205.5"/>
<text text-anchor="start" x="303" y="-195.1" font-family="SourceSans" font-size="8.00">svg::get_circumference</text>
<text text-anchor="middle" x="347" y="-186.1" font-family="SourceSans" font-size="8.00">_point_r</text>
</a>
</g>
</g>
<!-- Node6&#45;&gt;Node7 -->
<g id="edge6" class="edge">
<title>Node6&#45;&gt;Node7</title>
<path fill="none" stroke="#63b8ff" d="M254.54,-179.66C264.37,-181.04 274.75,-182.5 284.85,-183.92"/>
<polygon fill="#63b8ff" stroke="#63b8ff" points="284.44,-187.39 294.83,-185.32 285.42,-180.46 284.44,-187.39"/>
</g>
<!-- Node8 -->
<g id="node8" class="node">
<title>Node8</title>
<g id="a_node8"><a xlink:href="namespacesvg_1_1constants.html#a0e0b0d9314bc47324ee39884bf8bb2fd" target="_top" xlink:title=" ">
<polygon fill="white" stroke="#666666" points="388.5,-161 305.5,-161 305.5,-144 388.5,-144 388.5,-161"/>
<text text-anchor="middle" x="347" y="-150.6" font-family="SourceSans" font-size="8.00">svg::constants::pi</text>
</a>
</g>
</g>
<!-- Node6&#45;&gt;Node8 -->
<g id="edge7" class="edge">
<title>Node6&#45;&gt;Node8</title>
<path fill="none" stroke="#63b8ff" d="M254.54,-165.34C267.65,-163.5 281.75,-161.52 294.86,-159.68"/>
<polygon fill="#63b8ff" stroke="#63b8ff" points="295.71,-163.09 305.13,-158.24 294.74,-156.16 295.71,-163.09"/>
</g>
<!-- Node11 -->
<g id="node11" class="node">
<title>Node11</title>
<g id="a_node11"><a xlink:href="namespacesvg_1_1constants.html#ac460bc8db60d85c3ae1cf8b1a903405e" target="_top" xlink:title="Formatting character constants.">
<polygon fill="white" stroke="#666666" points="395.5,-101 298.5,-101 298.5,-84 395.5,-84 395.5,-101"/>
<text text-anchor="middle" x="347" y="-90.6" font-family="SourceSans" font-size="8.00">svg::constants::space</text>
</a>
</g>
</g>
<!-- Node10&#45;&gt;Node11 -->
<g id="edge10" class="edge">
<title>Node10&#45;&gt;Node11</title>
<path fill="none" stroke="#63b8ff" d="M251.74,-92.5C263.48,-92.5 276.14,-92.5 288.27,-92.5"/>
<polygon fill="#63b8ff" stroke="#63b8ff" points="288.29,-96 298.29,-92.5 288.29,-89 288.29,-96"/>
</g>
</g>
</svg>
