<?xml version="1.0" encoding="UTF-8" standalone="no"?>
<!DOCTYPE svg PUBLIC "-//W3C//DTD SVG 1.1//EN"
 "http://www.w3.org/Graphics/SVG/1.1/DTD/svg11.dtd">
<!-- Generated by graphviz version 5.0.0 (0)
 -->
<!-- Title: svg::point_2d_to_circle Pages: 1 -->
<svg width="351pt" height="210pt"
 viewBox="0.00 0.00 351.00 210.00" xmlns="http://www.w3.org/2000/svg" xmlns:xlink="http://www.w3.org/1999/xlink">
<g id="graph0" class="graph" transform="scale(1 1) rotate(0) translate(4 206)">
<title>svg::point_2d_to_circle</title>
<!-- Node1 -->
<g id="node1" class="node">
<title>Node1</title>
<g id="a_node1"><a xlink:title="Draws a circle around a point (x,y), of style (s), of radius (r).">
<polygon fill="#999999" stroke="#666666" points="102,-109.5 0,-109.5 0,-92.5 102,-92.5 102,-109.5"/>
<text text-anchor="middle" x="51" y="-99.1" font-family="SourceSans" font-size="8.00">svg::point_2d_to_circle</text>
</a>
</g>
</g>
<!-- Node2 -->
<g id="node2" class="node">
<title>Node2</title>
<g id="a_node2"><a xlink:href="group__elements.html#a519382631540ecedee961bfb53e9ae87" target="_top" xlink:title=" ">
<polygon fill="white" stroke="#666666" points="233,-202 144,-202 144,-176 233,-176 233,-202"/>
<text text-anchor="start" x="152" y="-191.6" font-family="SourceSans" font-size="8.00">svg::circle_element</text>
<text text-anchor="middle" x="188.5" y="-182.6" font-family="SourceSans" font-size="8.00">::add_data</text>
</a>
</g>
</g>
<!-- Node1&#45;&gt;Node2 -->
<g id="edge1" class="edge">
<title>Node1&#45;&gt;Node2</title>
<path fill="none" stroke="#63b8ff" d="M61.52,-109.53C76.83,-122.95 108.23,-149.3 138,-167 140.62,-168.56 143.38,-170.08 146.19,-171.54"/>
<polygon fill="#63b8ff" stroke="#63b8ff" points="144.73,-174.73 155.25,-176 147.82,-168.44 144.73,-174.73"/>
</g>
<!-- Node3 -->
<g id="node3" class="node">
<title>Node3</title>
<g id="a_node3"><a xlink:href="group__elements.html#adb6116b96467cc39cb178deb10c7a869" target="_top" xlink:title=" ">
<polygon fill="white" stroke="#666666" points="239,-158 138,-158 138,-132 239,-132 239,-158"/>
<text text-anchor="start" x="146" y="-147.6" font-family="SourceSans" font-size="8.00">svg::svg_element::add</text>
<text text-anchor="middle" x="188.5" y="-138.6" font-family="SourceSans" font-size="8.00">_element</text>
</a>
</g>
</g>
<!-- Node1&#45;&gt;Node3 -->
<g id="edge2" class="edge">
<title>Node1&#45;&gt;Node3</title>
<path fill="none" stroke="#63b8ff" d="M78.45,-109.59C95.26,-115.05 117.56,-122.29 137.61,-128.8"/>
<polygon fill="#63b8ff" stroke="#63b8ff" points="136.64,-132.17 147.24,-131.93 138.81,-125.51 136.64,-132.17"/>
</g>
<!-- Node4 -->
<g id="node4" class="node">
<title>Node4</title>
<g id="a_node4"><a xlink:href="group__elements.html#a238b38ca99a1cf6c2baf80c8e4338d99" target="_top" xlink:title=" ">
<polygon fill="white" stroke="#666666" points="234.5,-114 142.5,-114 142.5,-88 234.5,-88 234.5,-114"/>
<text text-anchor="start" x="150.5" y="-103.6" font-family="SourceSans" font-size="8.00">svg::element_base::</text>
<text text-anchor="middle" x="188.5" y="-94.6" font-family="SourceSans" font-size="8.00">add_style</text>
</a>
</g>
</g>
<!-- Node1&#45;&gt;Node4 -->
<g id="edge3" class="edge">
<title>Node1&#45;&gt;Node4</title>
<path fill="none" stroke="#63b8ff" d="M102.07,-101C111.81,-101 122.07,-101 131.96,-101"/>
<polygon fill="#63b8ff" stroke="#63b8ff" points="132.11,-104.5 142.11,-101 132.11,-97.5 132.11,-104.5"/>
</g>
<!-- Node6 -->
<g id="node6" class="node">
<title>Node6</title>
<g id="a_node6"><a xlink:href="group__elements.html#ga98a1538c46e39122d8199c12b3a57b5d" target="_top" xlink:title=" ">
<polygon fill="white" stroke="#666666" points="233,-70 144,-70 144,-44 233,-44 233,-70"/>
<text text-anchor="start" x="152" y="-59.6" font-family="SourceSans" font-size="8.00">svg::circle_element</text>
<text text-anchor="middle" x="188.5" y="-50.6" font-family="SourceSans" font-size="8.00">::finish_element</text>
</a>
</g>
</g>
<!-- Node1&#45;&gt;Node6 -->
<g id="edge5" class="edge">
<title>Node1&#45;&gt;Node6</title>
<path fill="none" stroke="#63b8ff" d="M78.45,-92.41C95.26,-86.95 117.56,-79.71 137.61,-73.2"/>
<polygon fill="#63b8ff" stroke="#63b8ff" points="138.81,-76.49 147.24,-70.07 136.64,-69.83 138.81,-76.49"/>
</g>
<!-- Node7 -->
<g id="node7" class="node">
<title>Node7</title>
<g id="a_node7"><a xlink:href="group__elements.html#a793cb6b40b2aea335b11f14fd327cde8" target="_top" xlink:title=" ">
<polygon fill="white" stroke="#666666" points="233,-26 144,-26 144,0 233,0 233,-26"/>
<text text-anchor="start" x="152" y="-15.6" font-family="SourceSans" font-size="8.00">svg::circle_element</text>
<text text-anchor="middle" x="188.5" y="-6.6" font-family="SourceSans" font-size="8.00">::start_element</text>
</a>
</g>
</g>
<!-- Node1&#45;&gt;Node7 -->
<g id="edge6" class="edge">
<title>Node1&#45;&gt;Node7</title>
<path fill="none" stroke="#63b8ff" d="M61.52,-92.47C76.83,-79.05 108.23,-52.7 138,-35 140.62,-33.44 143.38,-31.92 146.19,-30.46"/>
<polygon fill="#63b8ff" stroke="#63b8ff" points="147.82,-33.56 155.25,-26 144.73,-27.27 147.82,-33.56"/>
</g>
<!-- Node5 -->
<g id="node5" class="node">
<title>Node5</title>
<g id="a_node5"><a xlink:href="namespacesvg.html#a36b1c48ad4601b205790e3772ad0a7b6" target="_top" xlink:title=" ">
<polygon fill="white" stroke="#666666" points="343,-109.5 275,-109.5 275,-92.5 343,-92.5 343,-109.5"/>
<text text-anchor="middle" x="309" y="-99.1" font-family="SourceSans" font-size="8.00">svg::to_string</text>
</a>
</g>
</g>
<!-- Node4&#45;&gt;Node5 -->
<g id="edge4" class="edge">
<title>Node4&#45;&gt;Node5</title>
<path fill="none" stroke="#63b8ff" d="M234.64,-101C244.44,-101 254.78,-101 264.52,-101"/>
<polygon fill="#63b8ff" stroke="#63b8ff" points="264.78,-104.5 274.78,-101 264.78,-97.5 264.78,-104.5"/>
</g>
</g>
</svg>
