<?xml version="1.0" encoding="UTF-8" standalone="no"?>
<!DOCTYPE svg PUBLIC "-//W3C//DTD SVG 1.1//EN"
 "http://www.w3.org/Graphics/SVG/1.1/DTD/svg11.dtd">
<!-- Generated by graphviz version 5.0.0 (0)
 -->
<!-- Title: svg::color_qi::from_string Pages: 1 -->
<svg width="235pt" height="60pt"
 viewBox="0.00 0.00 235.00 60.00" xmlns="http://www.w3.org/2000/svg" xmlns:xlink="http://www.w3.org/1999/xlink">
<g id="graph0" class="graph" transform="scale(1 1) rotate(0) translate(4 56)">
<title>svg::color_qi::from_string</title>
<!-- Node1 -->
<g id="node1" class="node">
<title>Node1</title>
<g id="a_node1"><a xlink:title=" ">
<polygon fill="#999999" stroke="#666666" points="86,-38.5 0,-38.5 0,-12.5 86,-12.5 86,-38.5"/>
<text text-anchor="start" x="8" y="-28.1" font-family="SourceSans" font-size="8.00">svg::color_qi::from</text>
<text text-anchor="middle" x="43" y="-19.1" font-family="SourceSans" font-size="8.00">_string</text>
</a>
</g>
</g>
<!-- Node2 -->
<g id="node2" class="node">
<title>Node2</title>
<g id="a_node2"><a xlink:href="structsvg_1_1color__qi.html#a75df9c35be86175ff4a66eaf896026eb" target="_top" xlink:title=" ">
<polygon fill="white" stroke="#666666" points="223,-52 126,-52 126,-35 223,-35 223,-52"/>
<text text-anchor="middle" x="174.5" y="-41.6" font-family="SourceSans" font-size="8.00">svg::color_qi::color_qi</text>
</a>
</g>
</g>
<!-- Node1&#45;&gt;Node2 -->
<g id="edge1" class="edge">
<title>Node1&#45;&gt;Node2</title>
<path fill="none" stroke="#63b8ff" d="M86.04,-31.34C95.57,-32.67 105.85,-34.1 115.9,-35.49"/>
<polygon fill="#63b8ff" stroke="#63b8ff" points="115.44,-38.96 125.83,-36.87 116.4,-32.03 115.44,-38.96"/>
</g>
<!-- Node3 -->
<g id="node3" class="node">
<title>Node3</title>
<g id="a_node3"><a xlink:href="namespacesvg_1_1constants.html#aa7f04c2ea699a1b1e2e790de5ac33f38" target="_top" xlink:title=" ">
<polygon fill="white" stroke="#666666" points="227,-17 122,-17 122,0 227,0 227,-17"/>
<text text-anchor="middle" x="174.5" y="-6.6" font-family="SourceSans" font-size="8.00">svg::constants::newline</text>
</a>
</g>
</g>
<!-- Node1&#45;&gt;Node3 -->
<g id="edge2" class="edge">
<title>Node1&#45;&gt;Node3</title>
<path fill="none" stroke="#63b8ff" d="M86.04,-19.98C94.22,-18.91 102.95,-17.76 111.61,-16.63"/>
<polygon fill="#63b8ff" stroke="#63b8ff" points="112.24,-20.07 121.7,-15.3 111.33,-13.13 112.24,-20.07"/>
</g>
</g>
</svg>
