<?xml version="1.0" encoding="UTF-8" standalone="no"?>
<!DOCTYPE svg PUBLIC "-//W3C//DTD SVG 1.1//EN"
 "http://www.w3.org/Graphics/SVG/1.1/DTD/svg11.dtd">
<!-- Generated by graphviz version 2.44.0 (0)
 -->
<!-- Title: svg::radiate_ids_per_uvalue_on_arc Pages: 1 -->
<svg width="1414pt" height="700pt"
 viewBox="0.00 0.00 1414.00 700.41" xmlns="http://www.w3.org/2000/svg" xmlns:xlink="http://www.w3.org/1999/xlink">
<g id="graph0" class="graph" transform="scale(1 1) rotate(0) translate(4 696.41)">
<title>svg::radiate_ids_per_uvalue_on_arc</title>
<polygon fill="white" stroke="transparent" points="-4,4 -4,-696.41 1410,-696.41 1410,4 -4,4"/>
<!-- Node1 -->
<g id="node1" class="node">
<title>Node1</title>
<g id="a_node1"><a xlink:title=" ">
<polygon fill="#bfbfbf" stroke="black" points="0,-262 0,-288 99,-288 99,-262 0,-262"/>
<text text-anchor="start" x="8" y="-277.6" font-family="SourceSans" font-size="8.00">svg::radiate_ids_per</text>
<text text-anchor="middle" x="49.5" y="-268.6" font-family="SourceSans" font-size="8.00">_uvalue_on_arc</text>
</a>
</g>
</g>
<!-- Node2 -->
<g id="node2" class="node">
<title>Node2</title>
<g id="a_node2"><a xlink:href="namespacesvg.html#a4a82474e9abf0617e2874f2fd2623c76" target="_top" xlink:title="Arc + arrow glyph that traces path of start to finish trajectory.">
<polygon fill="white" stroke="black" points="717,-418.5 717,-435.5 818,-435.5 818,-418.5 717,-418.5"/>
<text text-anchor="middle" x="767.5" y="-425.1" font-family="SourceSans" font-size="8.00">svg::direction_arc_at</text>
</a>
</g>
</g>
<!-- Node1&#45;&gt;Node2 -->
<g id="edge1" class="edge">
<title>Node1&#45;&gt;Node2</title>
<path fill="none" stroke="midnightblue" d="M66.05,-288.09C107.74,-321.81 226.65,-409 341.5,-409 341.5,-409 341.5,-409 476,-409 555.96,-409 648.07,-415.88 706.76,-421.13"/>
<polygon fill="midnightblue" stroke="midnightblue" points="706.68,-424.64 716.95,-422.06 707.31,-417.67 706.68,-424.64"/>
</g>
<!-- Node16 -->
<g id="node16" class="node">
<title>Node16</title>
<g id="a_node16"><a xlink:href="namespacesvg.html#a2e50914f33c79a719001b3ff9f43ae6a" target="_top" xlink:title="Map ids with one value to a point cluster radiating out from a center.">
<polygon fill="white" stroke="black" points="147,-283 147,-309 241,-309 241,-283 147,-283"/>
<text text-anchor="start" x="155" y="-298.6" font-family="SourceSans" font-size="8.00">svg::radiate_ids_at</text>
<text text-anchor="middle" x="194" y="-289.6" font-family="SourceSans" font-size="8.00">_uvalue</text>
</a>
</g>
</g>
<!-- Node1&#45;&gt;Node16 -->
<g id="edge19" class="edge">
<title>Node1&#45;&gt;Node16</title>
<path fill="none" stroke="midnightblue" d="M99.14,-282.17C111.24,-283.95 124.3,-285.88 136.73,-287.71"/>
<polygon fill="midnightblue" stroke="midnightblue" points="136.58,-291.22 146.98,-289.22 137.6,-284.3 136.58,-291.22"/>
</g>
<!-- Node39 -->
<g id="node39" class="node">
<title>Node39</title>
<g id="a_node39"><a xlink:href="namespacesvg.html#afbc82820a905c8b57fedeee3c4269600" target="_top" xlink:title="Sort vectors of strings to largest length string first. (Or use set&lt;&gt;).">
<polygon fill="white" stroke="black" points="135,-246.5 135,-263.5 253,-263.5 253,-246.5 135,-246.5"/>
<text text-anchor="middle" x="194" y="-253.1" font-family="SourceSans" font-size="8.00">svg::sort_strings_by_size</text>
</a>
</g>
</g>
<!-- Node1&#45;&gt;Node39 -->
<g id="edge60" class="edge">
<title>Node1&#45;&gt;Node39</title>
<path fill="none" stroke="midnightblue" d="M99.14,-268.17C107.37,-267.02 116.05,-265.8 124.67,-264.59"/>
<polygon fill="midnightblue" stroke="midnightblue" points="125.32,-268.03 134.73,-263.18 124.34,-261.1 125.32,-268.03"/>
</g>
<!-- Node40 -->
<g id="node40" class="node">
<title>Node40</title>
<g id="a_node40"><a xlink:href="namespacesvg.html#af2f86928ee5c1dac00eb589bef8b61fb" target="_top" xlink:title="Convert id_value_umap to value_id_mmap + set of unique values.">
<polygon fill="white" stroke="black" points="138,-210.5 138,-227.5 250,-227.5 250,-210.5 138,-210.5"/>
<text text-anchor="middle" x="194" y="-217.1" font-family="SourceSans" font-size="8.00">svg::to_value_id_mmap</text>
</a>
</g>
</g>
<!-- Node1&#45;&gt;Node40 -->
<g id="edge61" class="edge">
<title>Node1&#45;&gt;Node40</title>
<path fill="none" stroke="midnightblue" d="M77.55,-261.82C93.96,-254.08 115.44,-244.4 135,-237 140.89,-234.77 147.19,-232.6 153.38,-230.59"/>
<polygon fill="midnightblue" stroke="midnightblue" points="154.48,-233.91 162.96,-227.56 152.37,-227.24 154.48,-233.91"/>
</g>
<!-- Node3 -->
<g id="node3" class="node">
<title>Node3</title>
<g id="a_node3"><a xlink:href="group__elements.html#a807f3c30f2ace338ad10aaf230b47665" target="_top" xlink:title="Either serialize immediately (as below), or create data structure that adds data to data_vec and then...">
<polygon fill="white" stroke="black" points="865.5,-501 865.5,-527 964.5,-527 964.5,-501 865.5,-501"/>
<text text-anchor="start" x="873.5" y="-516.6" font-family="SourceSans" font-size="8.00">svg::path_element::</text>
<text text-anchor="middle" x="915" y="-507.6" font-family="SourceSans" font-size="8.00">add_data</text>
</a>
</g>
</g>
<!-- Node2&#45;&gt;Node3 -->
<g id="edge2" class="edge">
<title>Node2&#45;&gt;Node3</title>
<path fill="none" stroke="midnightblue" d="M777.84,-435.62C792.9,-449.16 823.9,-475.53 854,-492 857.21,-493.75 860.58,-495.42 864.03,-496.99"/>
<polygon fill="midnightblue" stroke="midnightblue" points="862.68,-500.23 873.25,-500.94 865.43,-493.79 862.68,-500.23"/>
</g>
<!-- Node4 -->
<g id="node4" class="node">
<title>Node4</title>
<g id="a_node4"><a xlink:href="group__elements.html#adb6116b96467cc39cb178deb10c7a869" target="_top" xlink:title=" ">
<polygon fill="white" stroke="black" points="860,-172 860,-198 970,-198 970,-172 860,-172"/>
<text text-anchor="start" x="868" y="-187.6" font-family="SourceSans" font-size="8.00">svg::svg_element::add</text>
<text text-anchor="middle" x="915" y="-178.6" font-family="SourceSans" font-size="8.00">_element</text>
</a>
</g>
</g>
<!-- Node2&#45;&gt;Node4 -->
<g id="edge3" class="edge">
<title>Node2&#45;&gt;Node4</title>
<path fill="none" stroke="midnightblue" d="M778.51,-418.21C789.86,-407.66 808.08,-388.9 818,-369 850.91,-303 805.42,-262.5 854,-207 854.86,-206.01 855.77,-205.07 856.73,-204.17"/>
<polygon fill="midnightblue" stroke="midnightblue" points="858.91,-206.91 864.75,-198.07 854.67,-201.34 858.91,-206.91"/>
</g>
<!-- Node5 -->
<g id="node5" class="node">
<title>Node5</title>
<g id="a_node5"><a xlink:href="group__elements.html#a238b38ca99a1cf6c2baf80c8e4338d99" target="_top" xlink:title=" ">
<polygon fill="white" stroke="black" points="864.5,-636 864.5,-662 965.5,-662 965.5,-636 864.5,-636"/>
<text text-anchor="start" x="872.5" y="-651.6" font-family="SourceSans" font-size="8.00">svg::element_base::</text>
<text text-anchor="middle" x="915" y="-642.6" font-family="SourceSans" font-size="8.00">add_style</text>
</a>
</g>
</g>
<!-- Node2&#45;&gt;Node5 -->
<g id="edge4" class="edge">
<title>Node2&#45;&gt;Node5</title>
<path fill="none" stroke="midnightblue" d="M769.71,-435.58C774.45,-466.11 794.56,-570.6 854,-627 855.27,-628.21 856.62,-629.35 858.02,-630.43"/>
<polygon fill="midnightblue" stroke="midnightblue" points="856.29,-633.48 866.59,-635.97 860.09,-627.6 856.29,-633.48"/>
</g>
<!-- Node6 -->
<g id="node6" class="node">
<title>Node6</title>
<g id="a_node6"><a xlink:href="namespacesvg.html#a36b1c48ad4601b205790e3772ad0a7b6" target="_top" xlink:title=" ">
<polygon fill="white" stroke="black" points="1032.5,-567.5 1032.5,-584.5 1104.5,-584.5 1104.5,-567.5 1032.5,-567.5"/>
<text text-anchor="middle" x="1068.5" y="-574.1" font-family="SourceSans" font-size="8.00">svg::to_string</text>
</a>
</g>
</g>
<!-- Node2&#45;&gt;Node6 -->
<g id="edge17" class="edge">
<title>Node2&#45;&gt;Node6</title>
<path fill="none" stroke="midnightblue" d="M768.31,-435.75C768.04,-472.37 772.46,-614.09 854,-672 898.21,-703.4 926.16,-693.35 976,-672 1013.41,-655.98 1042.78,-616.32 1057.38,-593.3"/>
<polygon fill="midnightblue" stroke="midnightblue" points="1060.48,-594.93 1062.71,-584.57 1054.51,-591.28 1060.48,-594.93"/>
</g>
<!-- Node7 -->
<g id="node7" class="node">
<title>Node7</title>
<g id="a_node7"><a xlink:href="group__elements.html#gaac30ae99fb1a2542688fa1ffb43cd8e1" target="_top" xlink:title=" ">
<polygon fill="white" stroke="black" points="865.5,-591 865.5,-617 964.5,-617 964.5,-591 865.5,-591"/>
<text text-anchor="start" x="873.5" y="-606.6" font-family="SourceSans" font-size="8.00">svg::path_element::</text>
<text text-anchor="middle" x="915" y="-597.6" font-family="SourceSans" font-size="8.00">finish_element</text>
</a>
</g>
</g>
<!-- Node2&#45;&gt;Node7 -->
<g id="edge6" class="edge">
<title>Node2&#45;&gt;Node7</title>
<path fill="none" stroke="midnightblue" d="M770.93,-435.77C778.61,-461.86 804.79,-539.78 854,-582 855.52,-583.3 857.11,-584.53 858.78,-585.68"/>
<polygon fill="midnightblue" stroke="midnightblue" points="857.16,-588.79 867.54,-590.9 860.74,-582.78 857.16,-588.79"/>
</g>
<!-- Node8 -->
<g id="node8" class="node">
<title>Node8</title>
<g id="a_node8"><a xlink:href="namespacesvg.html#ab44508c4aeca591141ebec50145b75cd" target="_top" xlink:title="Angle in degrees.">
<polygon fill="white" stroke="black" points="858.5,-217 858.5,-243 971.5,-243 971.5,-217 858.5,-217"/>
<text text-anchor="start" x="866.5" y="-232.6" font-family="SourceSans" font-size="8.00">svg::get_circumference</text>
<text text-anchor="middle" x="915" y="-223.6" font-family="SourceSans" font-size="8.00">_point_d</text>
</a>
</g>
</g>
<!-- Node2&#45;&gt;Node8 -->
<g id="edge7" class="edge">
<title>Node2&#45;&gt;Node8</title>
<path fill="none" stroke="midnightblue" d="M777.84,-418.44C788.89,-407.83 807.16,-388.72 818,-369 844.2,-321.32 816.56,-291.48 854,-252 854.92,-251.03 855.89,-250.1 856.9,-249.21"/>
<polygon fill="midnightblue" stroke="midnightblue" points="859.25,-251.83 865.33,-243.16 855.16,-246.15 859.25,-251.83"/>
</g>
<!-- Node10 -->
<g id="node10" class="node">
<title>Node10</title>
<g id="a_node10"><a xlink:href="namespacesvg_1_1constants.html#a0e0b0d9314bc47324ee39884bf8bb2fd" target="_top" xlink:title=" ">
<polygon fill="white" stroke="black" points="1023,-321.5 1023,-338.5 1114,-338.5 1114,-321.5 1023,-321.5"/>
<text text-anchor="middle" x="1068.5" y="-328.1" font-family="SourceSans" font-size="8.00">svg::constants::pi</text>
</a>
</g>
</g>
<!-- Node2&#45;&gt;Node10 -->
<g id="edge14" class="edge">
<title>Node2&#45;&gt;Node10</title>
<path fill="none" stroke="midnightblue" d="M805.73,-418.49C847.65,-408.51 917.54,-390.69 976,-370 998.2,-362.14 1022.61,-351.36 1040.62,-342.97"/>
<polygon fill="midnightblue" stroke="midnightblue" points="1042.37,-346.02 1049.92,-338.59 1039.38,-339.69 1042.37,-346.02"/>
</g>
<!-- Node11 -->
<g id="node11" class="node">
<title>Node11</title>
<g id="a_node11"><a xlink:href="namespacesvg.html#a694806659ebf061e616b8a0b49a53f40" target="_top" xlink:title=" ">
<polygon fill="white" stroke="black" points="862.5,-343.5 862.5,-360.5 967.5,-360.5 967.5,-343.5 862.5,-343.5"/>
<text text-anchor="middle" x="915" y="-350.1" font-family="SourceSans" font-size="8.00">svg::get_radial_range</text>
</a>
</g>
</g>
<!-- Node2&#45;&gt;Node11 -->
<g id="edge10" class="edge">
<title>Node2&#45;&gt;Node11</title>
<path fill="none" stroke="midnightblue" d="M781.13,-418.32C797.46,-407.33 827.02,-388.24 854,-375 861.99,-371.08 870.83,-367.37 879.21,-364.12"/>
<polygon fill="midnightblue" stroke="midnightblue" points="880.63,-367.32 888.76,-360.53 878.17,-360.77 880.63,-367.32"/>
</g>
<!-- Node12 -->
<g id="node12" class="node">
<title>Node12</title>
<g id="a_node12"><a xlink:href="namespacesvg.html#ab1741538593b42c68b0334c90d1b0ff5" target="_top" xlink:title="Make path segment between two points on a circumference of radius r. Points like: get_circumference_p...">
<polygon fill="white" stroke="black" points="866,-456 866,-482 964,-482 964,-456 866,-456"/>
<text text-anchor="start" x="874" y="-471.6" font-family="SourceSans" font-size="8.00">svg::make_path_arc</text>
<text text-anchor="middle" x="915" y="-462.6" font-family="SourceSans" font-size="8.00">_circumference</text>
</a>
</g>
</g>
<!-- Node2&#45;&gt;Node12 -->
<g id="edge11" class="edge">
<title>Node2&#45;&gt;Node12</title>
<path fill="none" stroke="midnightblue" d="M798.3,-435.6C815.81,-440.66 838.49,-447.2 859.13,-453.16"/>
<polygon fill="midnightblue" stroke="midnightblue" points="858.18,-456.53 868.76,-455.94 860.12,-449.8 858.18,-456.53"/>
</g>
<!-- Node13 -->
<g id="node13" class="node">
<title>Node13</title>
<g id="a_node13"><a xlink:href="namespacesvg_1_1constants.html#ac460bc8db60d85c3ae1cf8b1a903405e" target="_top" xlink:title="Formatting character constants.">
<polygon fill="white" stroke="black" points="1298,-289.5 1298,-306.5 1406,-306.5 1406,-289.5 1298,-289.5"/>
<text text-anchor="middle" x="1352" y="-296.1" font-family="SourceSans" font-size="8.00">svg::constants::space</text>
</a>
</g>
</g>
<!-- Node2&#45;&gt;Node13 -->
<g id="edge15" class="edge">
<title>Node2&#45;&gt;Node13</title>
<path fill="none" stroke="midnightblue" d="M818.29,-422.78C860.53,-418.72 922.59,-411.62 976,-401 1102.6,-375.82 1249.26,-330.8 1315.4,-309.62"/>
<polygon fill="midnightblue" stroke="midnightblue" points="1316.49,-312.95 1324.94,-306.55 1314.35,-306.28 1316.49,-312.95"/>
</g>
<!-- Node14 -->
<g id="node14" class="node">
<title>Node14</title>
<g id="a_node14"><a xlink:href="group__elements.html#a6dbca7cef2cbc0c10aa44c44ae20b36e" target="_top" xlink:title=" ">
<polygon fill="white" stroke="black" points="865.5,-546 865.5,-572 964.5,-572 964.5,-546 865.5,-546"/>
<text text-anchor="start" x="873.5" y="-561.6" font-family="SourceSans" font-size="8.00">svg::path_element::</text>
<text text-anchor="middle" x="915" y="-552.6" font-family="SourceSans" font-size="8.00">start_element</text>
</a>
</g>
</g>
<!-- Node2&#45;&gt;Node14 -->
<g id="edge16" class="edge">
<title>Node2&#45;&gt;Node14</title>
<path fill="none" stroke="midnightblue" d="M773.04,-435.77C784.12,-456.36 814.54,-508.19 854,-537 856.08,-538.52 858.27,-539.94 860.54,-541.27"/>
<polygon fill="midnightblue" stroke="midnightblue" points="859.12,-544.48 869.61,-545.98 862.35,-538.27 859.12,-544.48"/>
</g>
<!-- Node15 -->
<g id="node15" class="node">
<title>Node15</title>
<g id="a_node15"><a xlink:href="namespacesvg.html#a46164d75fd5109e4ed8879abbacd5c11" target="_top" xlink:title="Zero degrees is top, going clockwise (cw).">
<polygon fill="white" stroke="black" points="854,-307.5 854,-324.5 976,-324.5 976,-307.5 854,-307.5"/>
<text text-anchor="middle" x="915" y="-314.1" font-family="SourceSans" font-size="8.00">svg::zero_angle_north_cw</text>
</a>
</g>
</g>
<!-- Node2&#45;&gt;Node15 -->
<g id="edge18" class="edge">
<title>Node2&#45;&gt;Node15</title>
<path fill="none" stroke="midnightblue" d="M775.92,-418.43C794.9,-396.56 844.43,-339.99 854,-334 857.43,-331.85 861.13,-329.95 864.94,-328.27"/>
<polygon fill="midnightblue" stroke="midnightblue" points="866.54,-331.4 874.59,-324.51 864,-324.88 866.54,-331.4"/>
</g>
<!-- Node5&#45;&gt;Node6 -->
<g id="edge5" class="edge">
<title>Node5&#45;&gt;Node6</title>
<path fill="none" stroke="midnightblue" d="M954.45,-635.92C961.69,-633.17 969.14,-630.14 976,-627 1000.21,-615.9 1026.67,-600.8 1044.88,-589.92"/>
<polygon fill="midnightblue" stroke="midnightblue" points="1046.84,-592.82 1053.59,-584.66 1043.23,-586.83 1046.84,-592.82"/>
</g>
<!-- Node9 -->
<g id="node9" class="node">
<title>Node9</title>
<g id="a_node9"><a xlink:href="namespacesvg.html#a85a18af2008e9709e4d641ef4bda04e7" target="_top" xlink:title="Angle in radians.">
<polygon fill="white" stroke="black" points="1012,-217 1012,-243 1125,-243 1125,-217 1012,-217"/>
<text text-anchor="start" x="1020" y="-232.6" font-family="SourceSans" font-size="8.00">svg::get_circumference</text>
<text text-anchor="middle" x="1068.5" y="-223.6" font-family="SourceSans" font-size="8.00">_point</text>
</a>
</g>
</g>
<!-- Node8&#45;&gt;Node9 -->
<g id="edge8" class="edge">
<title>Node8&#45;&gt;Node9</title>
<path fill="none" stroke="midnightblue" d="M971.55,-230C981.43,-230 991.81,-230 1001.94,-230"/>
<polygon fill="midnightblue" stroke="midnightblue" points="1001.95,-233.5 1011.95,-230 1001.95,-226.5 1001.95,-233.5"/>
</g>
<!-- Node8&#45;&gt;Node10 -->
<g id="edge9" class="edge">
<title>Node8&#45;&gt;Node10</title>
<path fill="none" stroke="midnightblue" d="M957.55,-243.04C963.9,-245.65 970.25,-248.64 976,-252 1005.58,-269.28 1034.85,-296.47 1052.04,-313.75"/>
<polygon fill="midnightblue" stroke="midnightblue" points="1049.97,-316.64 1059.46,-321.36 1054.98,-311.76 1049.97,-316.64"/>
</g>
<!-- Node12&#45;&gt;Node6 -->
<g id="edge13" class="edge">
<title>Node12&#45;&gt;Node6</title>
<path fill="none" stroke="midnightblue" d="M956.38,-482.06C963.14,-484.92 969.93,-488.24 976,-492 1006.85,-511.1 1036.67,-541.37 1053.49,-559.88"/>
<polygon fill="midnightblue" stroke="midnightblue" points="1050.99,-562.34 1060.26,-567.48 1056.22,-557.69 1050.99,-562.34"/>
</g>
<!-- Node12&#45;&gt;Node13 -->
<g id="edge12" class="edge">
<title>Node12&#45;&gt;Node13</title>
<path fill="none" stroke="midnightblue" d="M964,-477.86C1034.83,-488.29 1168.99,-497.7 1262,-441 1309.13,-412.27 1335.14,-348.17 1345.56,-316.47"/>
<polygon fill="midnightblue" stroke="midnightblue" points="1348.96,-317.31 1348.6,-306.73 1342.28,-315.23 1348.96,-317.31"/>
</g>
<!-- Node17 -->
<g id="node17" class="node">
<title>Node17</title>
<g id="a_node17"><a xlink:href="namespacesvg.html#a07c6fad0adddb0908ed4ef00536967c9" target="_top" xlink:title="Concatenate ids onto one line.">
<polygon fill="white" stroke="black" points="294.5,-305.5 294.5,-322.5 390.5,-322.5 390.5,-305.5 294.5,-305.5"/>
<text text-anchor="middle" x="342.5" y="-312.1" font-family="SourceSans" font-size="8.00">svg::append_ids_at</text>
</a>
</g>
</g>
<!-- Node16&#45;&gt;Node17 -->
<g id="edge20" class="edge">
<title>Node16&#45;&gt;Node17</title>
<path fill="none" stroke="midnightblue" d="M241.35,-301.7C254.98,-303.37 270.05,-305.22 284.27,-306.97"/>
<polygon fill="midnightblue" stroke="midnightblue" points="284.09,-310.47 294.44,-308.22 284.94,-303.52 284.09,-310.47"/>
</g>
<!-- Node18 -->
<g id="node18" class="node">
<title>Node18</title>
<g id="a_node18"><a xlink:href="namespacesvg.html#a06b88691cd28e6fb0c8e79ca44b34423" target="_top" xlink:title=" ">
<polygon fill="white" stroke="black" points="432,-186.5 432,-203.5 518,-203.5 518,-186.5 432,-186.5"/>
<text text-anchor="middle" x="475" y="-193.1" font-family="SourceSans" font-size="8.00">svg::radial_text_r</text>
</a>
</g>
</g>
<!-- Node16&#45;&gt;Node18 -->
<g id="edge59" class="edge">
<title>Node16&#45;&gt;Node18</title>
<path fill="none" stroke="midnightblue" d="M237.39,-282.98C242.98,-280.21 248.36,-276.91 253,-273 276.49,-253.21 263.02,-230.39 289,-214 328.36,-189.18 382.04,-186.28 421.43,-188.49"/>
<polygon fill="midnightblue" stroke="midnightblue" points="421.42,-192 431.63,-189.2 421.9,-185.02 421.42,-192"/>
</g>
<!-- Node35 -->
<g id="node35" class="node">
<title>Node35</title>
<g id="a_node35"><a xlink:href="namespacesvg.html#a929b5c33bc0c139332dddd5d3b8ea3d0" target="_top" xlink:title="Transform a value on a range to an angle on the radial range.">
<polygon fill="white" stroke="black" points="729,-342.5 729,-359.5 806,-359.5 806,-342.5 729,-342.5"/>
<text text-anchor="middle" x="767.5" y="-349.1" font-family="SourceSans" font-size="8.00">svg::get_angle</text>
</a>
</g>
</g>
<!-- Node16&#45;&gt;Node35 -->
<g id="edge54" class="edge">
<title>Node16&#45;&gt;Node35</title>
<path fill="none" stroke="midnightblue" d="M222.25,-309.16C240.65,-317.35 265.72,-327.21 289,-332 443.62,-363.79 632.17,-358.82 718.8,-354.17"/>
<polygon fill="midnightblue" stroke="midnightblue" points="719.06,-357.66 728.85,-353.61 718.67,-350.67 719.06,-357.66"/>
</g>
<!-- Node37 -->
<g id="node37" class="node">
<title>Node37</title>
<g id="a_node37"><a xlink:href="namespacesvg.html#aabba9120f22d6011e46be1d065c2b19b" target="_top" xlink:title="Get the label space. Value &#45;&gt; Name, as a string where value has labelspaces of fill NB: Should be the...">
<polygon fill="white" stroke="black" points="289,-269.5 289,-286.5 396,-286.5 396,-269.5 289,-269.5"/>
<text text-anchor="middle" x="342.5" y="-276.1" font-family="SourceSans" font-size="8.00">svg::get_label_spaces</text>
</a>
</g>
</g>
<!-- Node16&#45;&gt;Node37 -->
<g id="edge57" class="edge">
<title>Node16&#45;&gt;Node37</title>
<path fill="none" stroke="midnightblue" d="M241.35,-290.3C253.26,-288.84 266.27,-287.24 278.85,-285.7"/>
<polygon fill="midnightblue" stroke="midnightblue" points="279.32,-289.17 288.82,-284.47 278.46,-282.22 279.32,-289.17"/>
</g>
<!-- Node38 -->
<g id="node38" class="node">
<title>Node38</title>
<g id="a_node38"><a xlink:href="namespacesvg.html#aa89ab2d58bfaf850b84e976828851b9b" target="_top" xlink:title="Make radial labels.">
<polygon fill="white" stroke="black" points="293.5,-224 293.5,-250 391.5,-250 391.5,-224 293.5,-224"/>
<text text-anchor="start" x="301.5" y="-239.6" font-family="SourceSans" font-size="8.00">svg::make_label_for</text>
<text text-anchor="middle" x="342.5" y="-230.6" font-family="SourceSans" font-size="8.00">_value</text>
</a>
</g>
</g>
<!-- Node16&#45;&gt;Node38 -->
<g id="edge58" class="edge">
<title>Node16&#45;&gt;Node38</title>
<path fill="none" stroke="midnightblue" d="M228.15,-282.91C236.28,-279.69 244.96,-276.23 253,-273 268.4,-266.81 285.29,-259.96 300.14,-253.91"/>
<polygon fill="midnightblue" stroke="midnightblue" points="301.64,-257.08 309.58,-250.07 298.99,-250.6 301.64,-257.08"/>
</g>
<!-- Node17&#45;&gt;Node18 -->
<g id="edge21" class="edge">
<title>Node17&#45;&gt;Node18</title>
<path fill="none" stroke="midnightblue" d="M377.96,-305.42C384.29,-302.96 390.6,-299.87 396,-296 427.23,-273.62 451.95,-235.21 464.64,-212.76"/>
<polygon fill="midnightblue" stroke="midnightblue" points="467.88,-214.13 469.61,-203.68 461.74,-210.77 467.88,-214.13"/>
</g>
<!-- Node18&#45;&gt;Node8 -->
<g id="edge22" class="edge">
<title>Node18&#45;&gt;Node8</title>
<path fill="none" stroke="midnightblue" d="M511.93,-203.54C525.09,-206.36 540.15,-209.22 554,-211 656.07,-224.09 775.52,-228.2 847.93,-229.47"/>
<polygon fill="midnightblue" stroke="midnightblue" points="848.21,-232.97 858.26,-229.64 848.32,-225.98 848.21,-232.97"/>
</g>
<!-- Node18&#45;&gt;Node15 -->
<g id="edge53" class="edge">
<title>Node18&#45;&gt;Node15</title>
<path fill="none" stroke="midnightblue" d="M492.04,-203.56C507.54,-211.55 531.86,-223.37 554,-231 657.06,-266.55 781.75,-292.33 854.06,-305.66"/>
<polygon fill="midnightblue" stroke="midnightblue" points="853.44,-309.11 863.9,-307.46 854.7,-302.22 853.44,-309.11"/>
</g>
<!-- Node19 -->
<g id="node19" class="node">
<title>Node19</title>
<g id="a_node19"><a xlink:href="namespacesvg.html#a5ec86f1aa5e4c9923a7c11c2cbb89660" target="_top" xlink:title="Text with typography, arranged ccw around points (x,y) on a circle.">
<polygon fill="white" stroke="black" points="568.5,-112.5 568.5,-129.5 666.5,-129.5 666.5,-112.5 568.5,-112.5"/>
<text text-anchor="middle" x="617.5" y="-119.1" font-family="SourceSans" font-size="8.00">svg::radial_text_ccw</text>
</a>
</g>
</g>
<!-- Node18&#45;&gt;Node19 -->
<g id="edge23" class="edge">
<title>Node18&#45;&gt;Node19</title>
<path fill="none" stroke="midnightblue" d="M485.87,-186.18C500.02,-173.96 527.3,-151.95 554,-139 558.89,-136.63 564.15,-134.51 569.47,-132.64"/>
<polygon fill="midnightblue" stroke="midnightblue" points="570.61,-135.95 579.04,-129.53 568.44,-129.29 570.61,-135.95"/>
</g>
<!-- Node33 -->
<g id="node33" class="node">
<title>Node33</title>
<g id="a_node33"><a xlink:href="namespacesvg.html#a82c3b1f2d71d9212c46493e76e5dc087" target="_top" xlink:title="Text with typography, arranged cw around points (x,y) on a circle.">
<polygon fill="white" stroke="black" points="570.5,-184.5 570.5,-201.5 664.5,-201.5 664.5,-184.5 570.5,-184.5"/>
<text text-anchor="middle" x="617.5" y="-191.1" font-family="SourceSans" font-size="8.00">svg::radial_text_cw</text>
</a>
</g>
</g>
<!-- Node18&#45;&gt;Node33 -->
<g id="edge49" class="edge">
<title>Node18&#45;&gt;Node33</title>
<path fill="none" stroke="midnightblue" d="M518.15,-194.4C531.42,-194.21 546.29,-194 560.37,-193.8"/>
<polygon fill="midnightblue" stroke="midnightblue" points="560.5,-197.3 570.45,-193.66 560.4,-190.3 560.5,-197.3"/>
</g>
<!-- Node34 -->
<g id="node34" class="node">
<title>Node34</title>
<g id="a_node34"><a xlink:href="namespacesvg.html#a010fea242a289d173d521b501140cd72" target="_top" xlink:title="Zero degrees is top, going clockwise (cw).">
<polygon fill="white" stroke="black" points="554,-148.5 554,-165.5 681,-165.5 681,-148.5 554,-148.5"/>
<text text-anchor="middle" x="617.5" y="-155.1" font-family="SourceSans" font-size="8.00">svg::zero_angle_north_ccw</text>
</a>
</g>
</g>
<!-- Node18&#45;&gt;Node34 -->
<g id="edge52" class="edge">
<title>Node18&#45;&gt;Node34</title>
<path fill="none" stroke="midnightblue" d="M507.53,-186.47C527.37,-181.11 553.19,-174.12 574.72,-168.3"/>
<polygon fill="midnightblue" stroke="midnightblue" points="575.85,-171.62 584.59,-165.63 574.02,-164.86 575.85,-171.62"/>
</g>
<!-- Node20 -->
<g id="node20" class="node">
<title>Node20</title>
<g id="a_node20"><a xlink:href="namespacesvg.html#ab2d2020c33da2e0215837673e530b991" target="_top" xlink:title="Text at size.">
<polygon fill="white" stroke="black" points="729,-131.5 729,-148.5 806,-148.5 806,-131.5 729,-131.5"/>
<text text-anchor="middle" x="767.5" y="-138.1" font-family="SourceSans" font-size="8.00">svg::sized_text</text>
</a>
</g>
</g>
<!-- Node19&#45;&gt;Node20 -->
<g id="edge24" class="edge">
<title>Node19&#45;&gt;Node20</title>
<path fill="none" stroke="midnightblue" d="M666.55,-127.17C683.33,-129.32 702.14,-131.74 718.88,-133.89"/>
<polygon fill="midnightblue" stroke="midnightblue" points="718.63,-137.38 729,-135.19 719.53,-130.44 718.63,-137.38"/>
</g>
<!-- Node31 -->
<g id="node31" class="node">
<title>Node31</title>
<g id="a_node31"><a xlink:href="namespacesvg.html#a4399801aa964203bcab6e6ab2e7b4200" target="_top" xlink:title="Text at size, with a transformation=rotation.">
<polygon fill="white" stroke="black" points="725.5,-95.5 725.5,-112.5 809.5,-112.5 809.5,-95.5 725.5,-95.5"/>
<text text-anchor="middle" x="767.5" y="-102.1" font-family="SourceSans" font-size="8.00">svg::sized_text_r</text>
</a>
</g>
</g>
<!-- Node19&#45;&gt;Node31 -->
<g id="edge43" class="edge">
<title>Node19&#45;&gt;Node31</title>
<path fill="none" stroke="midnightblue" d="M666.55,-115.48C682.06,-113.7 699.31,-111.72 715.06,-109.91"/>
<polygon fill="midnightblue" stroke="midnightblue" points="715.62,-113.37 725.15,-108.75 714.82,-106.41 715.62,-113.37"/>
</g>
<!-- Node20&#45;&gt;Node4 -->
<g id="edge40" class="edge">
<title>Node20&#45;&gt;Node4</title>
<path fill="none" stroke="midnightblue" d="M796.21,-148.57C814.81,-154.32 839.89,-162.08 862.13,-168.96"/>
<polygon fill="midnightblue" stroke="midnightblue" points="861.2,-172.33 871.78,-171.94 863.26,-165.64 861.2,-172.33"/>
</g>
<!-- Node21 -->
<g id="node21" class="node">
<title>Node21</title>
<g id="a_node21"><a xlink:href="group__elements.html#a87be030b88c17a86a690b31e95b60612" target="_top" xlink:title="Either serialize immediately (as below), or create data structure that adds data to data_vec and then...">
<polygon fill="white" stroke="black" points="867.5,-82 867.5,-108 962.5,-108 962.5,-82 867.5,-82"/>
<text text-anchor="start" x="875.5" y="-97.6" font-family="SourceSans" font-size="8.00">svg::text_element::</text>
<text text-anchor="middle" x="915" y="-88.6" font-family="SourceSans" font-size="8.00">add_data</text>
</a>
</g>
</g>
<!-- Node20&#45;&gt;Node21 -->
<g id="edge25" class="edge">
<title>Node20&#45;&gt;Node21</title>
<path fill="none" stroke="midnightblue" d="M796.21,-131.43C814.81,-125.68 839.89,-117.92 862.13,-111.04"/>
<polygon fill="midnightblue" stroke="midnightblue" points="863.26,-114.36 871.78,-108.06 861.2,-107.67 863.26,-114.36"/>
</g>
<!-- Node29 -->
<g id="node29" class="node">
<title>Node29</title>
<g id="a_node29"><a xlink:href="group__elements.html#ga13c46848317034d16c62a7d2061ba3d6" target="_top" xlink:title=" ">
<polygon fill="white" stroke="black" points="867.5,-37 867.5,-63 962.5,-63 962.5,-37 867.5,-37"/>
<text text-anchor="start" x="875.5" y="-52.6" font-family="SourceSans" font-size="8.00">svg::text_element::</text>
<text text-anchor="middle" x="915" y="-43.6" font-family="SourceSans" font-size="8.00">finish_element</text>
</a>
</g>
</g>
<!-- Node20&#45;&gt;Node29 -->
<g id="edge41" class="edge">
<title>Node20&#45;&gt;Node29</title>
<path fill="none" stroke="midnightblue" d="M800.84,-131.42C806.88,-128.96 812.9,-125.86 818,-122 839.84,-105.48 832.19,-88.55 854,-72 856.01,-70.47 858.14,-69.05 860.35,-67.71"/>
<polygon fill="midnightblue" stroke="midnightblue" points="862,-70.79 869.18,-63 858.71,-64.62 862,-70.79"/>
</g>
<!-- Node30 -->
<g id="node30" class="node">
<title>Node30</title>
<g id="a_node30"><a xlink:href="group__elements.html#ae45bec611a6ec17ea46aab6d680ae042" target="_top" xlink:title=" ">
<polygon fill="white" stroke="black" points="867.5,-127 867.5,-153 962.5,-153 962.5,-127 867.5,-127"/>
<text text-anchor="start" x="875.5" y="-142.6" font-family="SourceSans" font-size="8.00">svg::text_element::</text>
<text text-anchor="middle" x="915" y="-133.6" font-family="SourceSans" font-size="8.00">start_element</text>
</a>
</g>
</g>
<!-- Node20&#45;&gt;Node30 -->
<g id="edge42" class="edge">
<title>Node20&#45;&gt;Node30</title>
<path fill="none" stroke="midnightblue" d="M806.35,-140C821.76,-140 839.91,-140 856.87,-140"/>
<polygon fill="midnightblue" stroke="midnightblue" points="857.24,-143.5 867.24,-140 857.24,-136.5 857.24,-143.5"/>
</g>
<!-- Node21&#45;&gt;Node6 -->
<g id="edge39" class="edge">
<title>Node21&#45;&gt;Node6</title>
<path fill="none" stroke="midnightblue" d="M962.61,-106.15C967.69,-108.98 972.34,-112.54 976,-117 1041.9,-197.34 991.69,-246.1 1012,-348 1027.65,-426.55 1051.99,-518.91 1062.45,-557.55"/>
<polygon fill="midnightblue" stroke="midnightblue" points="1059.12,-558.63 1065.12,-567.36 1065.87,-556.79 1059.12,-558.63"/>
</g>
<!-- Node22 -->
<g id="node22" class="node">
<title>Node22</title>
<g id="a_node22"><a xlink:href="structsvg_1_1typography.html#a70f61596bba3e0bd67b43a8fc553dbfa" target="_top" xlink:title=" ">
<polygon fill="white" stroke="black" points="1016,-128 1016,-154 1121,-154 1121,-128 1016,-128"/>
<text text-anchor="start" x="1024" y="-143.6" font-family="SourceSans" font-size="8.00">svg::typography::add</text>
<text text-anchor="middle" x="1068.5" y="-134.6" font-family="SourceSans" font-size="8.00">_attribute</text>
</a>
</g>
</g>
<!-- Node21&#45;&gt;Node22 -->
<g id="edge26" class="edge">
<title>Node21&#45;&gt;Node22</title>
<path fill="none" stroke="midnightblue" d="M959.01,-108.06C976.43,-113.35 996.72,-119.51 1015.01,-125.06"/>
<polygon fill="midnightblue" stroke="midnightblue" points="1014.06,-128.43 1024.65,-127.99 1016.09,-121.73 1014.06,-128.43"/>
</g>
<!-- Node24 -->
<g id="node24" class="node">
<title>Node24</title>
<g id="a_node24"><a xlink:href="namespacesvg.html#a48ac748e89e22789d1772326a98dd7b6" target="_top" xlink:title=" ">
<polygon fill="white" stroke="black" points="1164,-86.5 1164,-103.5 1259,-103.5 1259,-86.5 1164,-86.5"/>
<text text-anchor="middle" x="1211.5" y="-93.1" font-family="SourceSans" font-size="8.00">svg::string_replace</text>
</a>
</g>
</g>
<!-- Node21&#45;&gt;Node24 -->
<g id="edge38" class="edge">
<title>Node21&#45;&gt;Node24</title>
<path fill="none" stroke="midnightblue" d="M962.66,-95C1014.43,-95 1097.95,-95 1153.53,-95"/>
<polygon fill="midnightblue" stroke="midnightblue" points="1153.57,-98.5 1163.57,-95 1153.57,-91.5 1153.57,-98.5"/>
</g>
<!-- Node28 -->
<g id="node28" class="node">
<title>Node28</title>
<g id="a_node28"><a xlink:href="group__elements.html#a53d72a7ff728ad1d4d027254530bcf3d" target="_top" xlink:title="Common transforms include rotate(180)">
<polygon fill="white" stroke="black" points="1161,-243 1161,-269 1262,-269 1262,-243 1161,-243"/>
<text text-anchor="start" x="1169" y="-258.6" font-family="SourceSans" font-size="8.00">svg::element_base::</text>
<text text-anchor="middle" x="1211.5" y="-249.6" font-family="SourceSans" font-size="8.00">add_transform</text>
</a>
</g>
</g>
<!-- Node21&#45;&gt;Node28 -->
<g id="edge35" class="edge">
<title>Node21&#45;&gt;Node28</title>
<path fill="none" stroke="midnightblue" d="M960.38,-108.03C965.89,-110.57 971.25,-113.54 976,-117 996.99,-132.28 991.16,-147.52 1012,-163 1055.26,-195.14 1077.66,-181.24 1125,-207 1142.34,-216.43 1143.97,-223.02 1161,-233 1164.17,-234.86 1167.52,-236.68 1170.91,-238.44"/>
<polygon fill="midnightblue" stroke="midnightblue" points="1169.41,-241.6 1179.93,-242.91 1172.52,-235.33 1169.41,-241.6"/>
</g>
<!-- Node22&#45;&gt;Node13 -->
<g id="edge28" class="edge">
<title>Node22&#45;&gt;Node13</title>
<path fill="none" stroke="midnightblue" d="M1082.42,-154.41C1094.37,-167.24 1112.17,-187.48 1125,-207 1144.65,-236.9 1131.54,-258.7 1161,-279 1197.66,-304.27 1248.15,-308.25 1287.87,-306.33"/>
<polygon fill="midnightblue" stroke="midnightblue" points="1288.22,-309.81 1297.98,-305.7 1287.78,-302.83 1288.22,-309.81"/>
</g>
<!-- Node23 -->
<g id="node23" class="node">
<title>Node23</title>
<g id="a_node23"><a xlink:href="namespacesvg_1_1constants.html#a3972655f1dfdc090ec2592d1fb37e87c" target="_top" xlink:title=" ">
<polygon fill="white" stroke="black" points="1298.5,-188.5 1298.5,-205.5 1405.5,-205.5 1405.5,-188.5 1298.5,-188.5"/>
<text text-anchor="middle" x="1352" y="-195.1" font-family="SourceSans" font-size="8.00">svg::constants::quote</text>
</a>
</g>
</g>
<!-- Node22&#45;&gt;Node23 -->
<g id="edge27" class="edge">
<title>Node22&#45;&gt;Node23</title>
<path fill="none" stroke="midnightblue" d="M1121.09,-137.83C1160.39,-136.81 1215.49,-138.4 1262,-151 1286.79,-157.71 1312.59,-171.99 1329.99,-182.86"/>
<polygon fill="midnightblue" stroke="midnightblue" points="1328.43,-186.02 1338.73,-188.49 1332.22,-180.13 1328.43,-186.02"/>
</g>
<!-- Node22&#45;&gt;Node24 -->
<g id="edge29" class="edge">
<title>Node22&#45;&gt;Node24</title>
<path fill="none" stroke="midnightblue" d="M1109.53,-127.94C1130,-121.26 1154.73,-113.19 1174.59,-106.72"/>
<polygon fill="midnightblue" stroke="midnightblue" points="1175.77,-110.01 1184.19,-103.58 1173.6,-103.36 1175.77,-110.01"/>
</g>
<!-- Node25 -->
<g id="node25" class="node">
<title>Node25</title>
<g id="a_node25"><a xlink:href="structsvg_1_1typography.html#a174c1ffb4e56214d71523ffe7e422561" target="_top" xlink:title=" ">
<polygon fill="white" stroke="black" points="1162.5,-161 1162.5,-187 1260.5,-187 1260.5,-161 1162.5,-161"/>
<text text-anchor="start" x="1170.5" y="-176.6" font-family="SourceSans" font-size="8.00">svg::typography::to</text>
<text text-anchor="middle" x="1211.5" y="-167.6" font-family="SourceSans" font-size="8.00">_string</text>
</a>
</g>
</g>
<!-- Node22&#45;&gt;Node25 -->
<g id="edge30" class="edge">
<title>Node22&#45;&gt;Node25</title>
<path fill="none" stroke="midnightblue" d="M1121.2,-153.1C1131.33,-155.47 1142.01,-157.97 1152.33,-160.39"/>
<polygon fill="midnightblue" stroke="midnightblue" points="1151.55,-163.8 1162.08,-162.67 1153.14,-156.98 1151.55,-163.8"/>
</g>
<!-- Node26 -->
<g id="node26" class="node">
<title>Node26</title>
<g id="a_node26"><a xlink:href="namespacesvg.html#a7363f3de9a003a4399e7ede9036299d4" target="_top" xlink:title=" ">
<polygon fill="white" stroke="black" points="1175.5,-206.5 1175.5,-223.5 1247.5,-223.5 1247.5,-206.5 1175.5,-206.5"/>
<text text-anchor="middle" x="1211.5" y="-213.1" font-family="SourceSans" font-size="8.00">svg::to_string</text>
</a>
</g>
</g>
<!-- Node22&#45;&gt;Node26 -->
<g id="edge31" class="edge">
<title>Node22&#45;&gt;Node26</title>
<path fill="none" stroke="midnightblue" d="M1094.98,-154.01C1104.53,-159.08 1115.39,-165.09 1125,-171 1141.59,-181.2 1143.78,-186.89 1161,-196 1165.56,-198.41 1170.5,-200.68 1175.43,-202.75"/>
<polygon fill="midnightblue" stroke="midnightblue" points="1174.21,-206.04 1184.8,-206.47 1176.8,-199.53 1174.21,-206.04"/>
</g>
<!-- Node26&#45;&gt;Node13 -->
<g id="edge33" class="edge">
<title>Node26&#45;&gt;Node13</title>
<path fill="none" stroke="midnightblue" d="M1240.33,-223.56C1247.56,-226.21 1255.22,-229.39 1262,-233 1288.46,-247.1 1315.87,-268.29 1333.15,-282.61"/>
<polygon fill="midnightblue" stroke="midnightblue" points="1331.31,-285.63 1341.21,-289.4 1335.82,-280.28 1331.31,-285.63"/>
</g>
<!-- Node26&#45;&gt;Node23 -->
<g id="edge32" class="edge">
<title>Node26&#45;&gt;Node23</title>
<path fill="none" stroke="midnightblue" d="M1247.81,-210.41C1260.19,-208.8 1274.5,-206.94 1288.44,-205.13"/>
<polygon fill="midnightblue" stroke="midnightblue" points="1289.03,-208.58 1298.49,-203.82 1288.12,-201.64 1289.03,-208.58"/>
</g>
<!-- Node27 -->
<g id="node27" class="node">
<title>Node27</title>
<g id="a_node27"><a xlink:href="structsvg_1_1colorq.html#adb55a2a48193fafa55340505862278e4" target="_top" xlink:title=" ">
<polygon fill="white" stroke="black" points="1300,-224.5 1300,-241.5 1404,-241.5 1404,-224.5 1300,-224.5"/>
<text text-anchor="middle" x="1352" y="-231.1" font-family="SourceSans" font-size="8.00">svg::colorq::to_string</text>
</a>
</g>
</g>
<!-- Node26&#45;&gt;Node27 -->
<g id="edge34" class="edge">
<title>Node26&#45;&gt;Node27</title>
<path fill="none" stroke="midnightblue" d="M1247.81,-219.59C1260.51,-221.24 1275.24,-223.15 1289.53,-225.01"/>
<polygon fill="midnightblue" stroke="midnightblue" points="1289.44,-228.53 1299.81,-226.35 1290.35,-221.59 1289.44,-228.53"/>
</g>
<!-- Node28&#45;&gt;Node13 -->
<g id="edge37" class="edge">
<title>Node28&#45;&gt;Node13</title>
<path fill="none" stroke="midnightblue" d="M1255.56,-269.06C1273.88,-274.61 1295.07,-281.04 1312.82,-286.42"/>
<polygon fill="midnightblue" stroke="midnightblue" points="1312.25,-289.91 1322.83,-289.46 1314.28,-283.21 1312.25,-289.91"/>
</g>
<!-- Node28&#45;&gt;Node23 -->
<g id="edge36" class="edge">
<title>Node28&#45;&gt;Node23</title>
<path fill="none" stroke="midnightblue" d="M1241.1,-242.88C1247.96,-239.69 1255.26,-236.25 1262,-233 1278.11,-225.23 1281.49,-221.89 1298,-215 1303.1,-212.87 1308.55,-210.8 1313.94,-208.86"/>
<polygon fill="midnightblue" stroke="midnightblue" points="1315.2,-212.13 1323.5,-205.55 1312.9,-205.52 1315.2,-212.13"/>
</g>
<!-- Node31&#45;&gt;Node4 -->
<g id="edge45" class="edge">
<title>Node31&#45;&gt;Node4</title>
<path fill="none" stroke="midnightblue" d="M799.22,-112.52C805.71,-115.03 812.31,-118.17 818,-122 837.83,-135.37 834.29,-148.46 854,-162 856.84,-163.95 859.88,-165.77 863.01,-167.46"/>
<polygon fill="midnightblue" stroke="midnightblue" points="861.52,-170.63 872.04,-171.86 864.59,-164.33 861.52,-170.63"/>
</g>
<!-- Node31&#45;&gt;Node21 -->
<g id="edge44" class="edge">
<title>Node31&#45;&gt;Node21</title>
<path fill="none" stroke="midnightblue" d="M809.81,-101.45C824.55,-100.53 841.44,-99.49 857.26,-98.51"/>
<polygon fill="midnightblue" stroke="midnightblue" points="857.7,-101.99 867.47,-97.88 857.27,-95 857.7,-101.99"/>
</g>
<!-- Node31&#45;&gt;Node29 -->
<g id="edge46" class="edge">
<title>Node31&#45;&gt;Node29</title>
<path fill="none" stroke="midnightblue" d="M791.35,-95.4C808.56,-88.94 832.75,-79.87 854,-72 858.75,-70.24 863.72,-68.4 868.68,-66.58"/>
<polygon fill="midnightblue" stroke="midnightblue" points="869.95,-69.84 878.13,-63.11 867.54,-63.27 869.95,-69.84"/>
</g>
<!-- Node31&#45;&gt;Node30 -->
<g id="edge48" class="edge">
<title>Node31&#45;&gt;Node30</title>
<path fill="none" stroke="midnightblue" d="M802.98,-112.53C819.29,-116.57 839.19,-121.49 857.62,-126.05"/>
<polygon fill="midnightblue" stroke="midnightblue" points="856.83,-129.46 867.38,-128.47 858.51,-122.67 856.83,-129.46"/>
</g>
<!-- Node32 -->
<g id="node32" class="node">
<title>Node32</title>
<g id="a_node32"><a xlink:href="structsvg_1_1transform.html#acf9836f4ba647f0dd2b53963a0f714d0" target="_top" xlink:title=" ">
<polygon fill="white" stroke="black" points="861.5,-0.5 861.5,-17.5 968.5,-17.5 968.5,-0.5 861.5,-0.5"/>
<text text-anchor="middle" x="915" y="-7.1" font-family="SourceSans" font-size="8.00">svg::transform::rotate</text>
</a>
</g>
</g>
<!-- Node31&#45;&gt;Node32 -->
<g id="edge47" class="edge">
<title>Node31&#45;&gt;Node32</title>
<path fill="none" stroke="midnightblue" d="M775.59,-95.49C789.19,-79.71 820.57,-45.8 854,-27 857.95,-24.78 862.19,-22.81 866.54,-21.06"/>
<polygon fill="midnightblue" stroke="midnightblue" points="867.94,-24.28 876.15,-17.58 865.55,-17.7 867.94,-24.28"/>
</g>
<!-- Node33&#45;&gt;Node20 -->
<g id="edge50" class="edge">
<title>Node33&#45;&gt;Node20</title>
<path fill="none" stroke="midnightblue" d="M650.83,-184.41C660.59,-181.62 671.29,-178.37 681,-175 700.2,-168.33 721.33,-159.69 737.79,-152.66"/>
<polygon fill="midnightblue" stroke="midnightblue" points="739.58,-155.7 747.37,-148.53 736.8,-149.27 739.58,-155.7"/>
</g>
<!-- Node33&#45;&gt;Node31 -->
<g id="edge51" class="edge">
<title>Node33&#45;&gt;Node31</title>
<path fill="none" stroke="midnightblue" d="M662.66,-184.5C669.17,-182.08 675.51,-178.98 681,-175 704.05,-158.29 694.53,-139.49 717,-122 719.41,-120.12 722.04,-118.43 724.78,-116.9"/>
<polygon fill="midnightblue" stroke="midnightblue" points="726.31,-120.05 733.82,-112.58 723.29,-113.74 726.31,-120.05"/>
</g>
<!-- Node35&#45;&gt;Node11 -->
<g id="edge55" class="edge">
<title>Node35&#45;&gt;Node11</title>
<path fill="none" stroke="midnightblue" d="M806.35,-351.26C820.37,-351.36 836.66,-351.47 852.26,-351.58"/>
<polygon fill="midnightblue" stroke="midnightblue" points="852.35,-355.08 862.37,-351.65 852.4,-348.08 852.35,-355.08"/>
</g>
<!-- Node36 -->
<g id="node36" class="node">
<title>Node36</title>
<g id="a_node36"><a xlink:href="namespacesvg.html#a673cb54838801fae8471436ce43298a9" target="_top" xlink:title="Scale value from min to max on range (nfloor, nceil).">
<polygon fill="white" stroke="black" points="863,-262 863,-288 967,-288 967,-262 863,-262"/>
<text text-anchor="start" x="871" y="-277.6" font-family="SourceSans" font-size="8.00">svg::normalize_value</text>
<text text-anchor="middle" x="915" y="-268.6" font-family="SourceSans" font-size="8.00">_on_range</text>
</a>
</g>
</g>
<!-- Node35&#45;&gt;Node36 -->
<g id="edge56" class="edge">
<title>Node35&#45;&gt;Node36</title>
<path fill="none" stroke="midnightblue" d="M780.82,-342.33C797.06,-331.14 826.78,-311.5 854,-298 858.27,-295.88 862.79,-293.83 867.35,-291.88"/>
<polygon fill="midnightblue" stroke="midnightblue" points="868.8,-295.07 876.72,-288.03 866.14,-288.59 868.8,-295.07"/>
</g>
</g>
</svg>
