<?xml version="1.0" encoding="UTF-8" standalone="no"?>
<!DOCTYPE svg PUBLIC "-//W3C//DTD SVG 1.1//EN"
 "http://www.w3.org/Graphics/SVG/1.1/DTD/svg11.dtd">
<!-- Generated by graphviz version 2.44.0 (0)
 -->
<!-- Title: svg::direction_arc_at Pages: 1 -->
<!--zoomable 495 -->
<svg id="main" version="1.1" xmlns="http://www.w3.org/2000/svg" xmlns:xlink="http://www.w3.org/1999/xlink" xml:space="preserve" onload="init(evt)">
<style type="text/css"><![CDATA[
.edge:hover path { stroke: red; }
.edge:hover polygon { stroke: red; fill: red; }
]]></style>
<script type="text/javascript"><![CDATA[
var edges = document.getElementsByTagName('g');
if (edges && edges.length) {
  for (var i=0;i<edges.length;i++) {
    if (edges[i].id.substr(0,4)=='edge') {
      edges[i].setAttribute('class','edge');
    }
  }
}
]]></script>
        <defs>
                <circle id="rim" cx="0" cy="0" r="7"/>
                <circle id="rim2" cx="0" cy="0" r="3.5"/>
                <g id="zoomPlus">
                        <use xlink:href="#rim" fill="#404040">
                                <set attributeName="fill" to="#808080" begin="zoomplus.mouseover" end="zoomplus.mouseout"/>
                        </use>
                        <path d="M-4,0h8M0,-4v8" fill="none" stroke="white" stroke-width="1.5" pointer-events="none"/>
                </g>
                <g id="zoomMin">
                        <use xlink:href="#rim" fill="#404040">
                                <set attributeName="fill" to="#808080" begin="zoomminus.mouseover" end="zoomminus.mouseout"/>
                        </use>
                        <path d="M-4,0h8" fill="none" stroke="white" stroke-width="1.5" pointer-events="none"/>
                </g>
                <g id="dirArrow">
                        <path fill="none" stroke="white" stroke-width="1.5" d="M0,-3.0v7 M-2.5,-0.5L0,-3.0L2.5,-0.5"/>
                </g>
               <g id="resetDef">
                       <use xlink:href="#rim2" fill="#404040">
                               <set attributeName="fill" to="#808080" begin="reset.mouseover" end="reset.mouseout"/>
                       </use>
               </g>
        </defs>

<script type="text/javascript">
var viewWidth = 416;
var viewHeight = 495;
var sectionId = 'dynsection-8';
</script>
<script xlink:href="svgpan.js"/>
<svg id="graph" class="graph">
<g id="viewport">
<title>svg::direction_arc_at</title>
<polygon fill="white" stroke="transparent" points="-4,4 -4,-490.5 412,-490.5 412,4 -4,4"/>
<!-- Node1 -->
<g id="node1" class="node">
<title>Node1</title>
<g id="a_node1"><a xlink:title="Arc + arrow glyph that traces path of start to finish trajectory.">
<polygon fill="#bfbfbf" stroke="black" points="0,-224.5 0,-241.5 101,-241.5 101,-224.5 0,-224.5"/>
<text text-anchor="middle" x="50.5" y="-231.1" font-family="SourceSans" font-size="8.00">svg::direction_arc_at</text>
</a>
</g>
</g>
<!-- Node2 -->
<g id="node2" class="node">
<title>Node2</title>
<g id="a_node2"><a xlink:href="group__elements.html#a807f3c30f2ace338ad10aaf230b47665" target="_top" xlink:title="Either serialize immediately (as below), or create data structure that adds data to data_vec and then...">
<polygon fill="white" stroke="black" points="148.5,-460 148.5,-486 247.5,-486 247.5,-460 148.5,-460"/>
<text text-anchor="start" x="156.5" y="-475.6" font-family="SourceSans" font-size="8.00">svg::path_element::</text>
<text text-anchor="middle" x="198" y="-466.6" font-family="SourceSans" font-size="8.00">add_data</text>
</a>
</g>
</g>
<!-- Node1&#45;&gt;Node2 -->
<g id="edge1" class="edge">
<title>Node1&#45;&gt;Node2</title>
<path fill="none" stroke="midnightblue" d="M52.4,-241.89C56.19,-274.52 73.64,-389.04 137,-451 138.12,-452.09 139.29,-453.13 140.51,-454.11"/>
<polygon fill="midnightblue" stroke="midnightblue" points="138.93,-457.26 149.18,-459.91 142.82,-451.45 138.93,-457.26"/>
</g>
<!-- Node3 -->
<g id="node3" class="node">
<title>Node3</title>
<g id="a_node3"><a xlink:href="group__elements.html#adb6116b96467cc39cb178deb10c7a869" target="_top" xlink:title=" ">
<polygon fill="white" stroke="black" points="143,-415 143,-441 253,-441 253,-415 143,-415"/>
<text text-anchor="start" x="151" y="-430.6" font-family="SourceSans" font-size="8.00">svg::svg_element::add</text>
<text text-anchor="middle" x="198" y="-421.6" font-family="SourceSans" font-size="8.00">_element</text>
</a>
</g>
</g>
<!-- Node1&#45;&gt;Node3 -->
<g id="edge2" class="edge">
<title>Node1&#45;&gt;Node3</title>
<path fill="none" stroke="midnightblue" d="M53.34,-241.57C59.75,-269.39 83.65,-358.1 137,-406 138.33,-407.2 139.74,-408.33 141.2,-409.41"/>
<polygon fill="midnightblue" stroke="midnightblue" points="139.74,-412.62 150.08,-414.92 143.43,-406.67 139.74,-412.62"/>
</g>
<!-- Node4 -->
<g id="node4" class="node">
<title>Node4</title>
<g id="a_node4"><a xlink:href="group__elements.html#a238b38ca99a1cf6c2baf80c8e4338d99" target="_top" xlink:title=" ">
<polygon fill="white" stroke="black" points="147.5,-370 147.5,-396 248.5,-396 248.5,-370 147.5,-370"/>
<text text-anchor="start" x="155.5" y="-385.6" font-family="SourceSans" font-size="8.00">svg::element_base::</text>
<text text-anchor="middle" x="198" y="-376.6" font-family="SourceSans" font-size="8.00">add_style</text>
</a>
</g>
</g>
<!-- Node1&#45;&gt;Node4 -->
<g id="edge3" class="edge">
<title>Node1&#45;&gt;Node4</title>
<path fill="none" stroke="midnightblue" d="M55.49,-241.54C65.99,-263.19 96.38,-320.92 137,-355 141.51,-358.79 146.62,-362.18 151.91,-365.18"/>
<polygon fill="midnightblue" stroke="midnightblue" points="150.42,-368.35 160.91,-369.88 153.66,-362.15 150.42,-368.35"/>
</g>
<!-- Node5 -->
<g id="node5" class="node">
<title>Node5</title>
<g id="a_node5"><a xlink:href="namespacesvg.html#a36b1c48ad4601b205790e3772ad0a7b6" target="_top" xlink:title=" ">
<polygon fill="white" stroke="black" points="315.5,-332.5 315.5,-349.5 387.5,-349.5 387.5,-332.5 315.5,-332.5"/>
<text text-anchor="middle" x="351.5" y="-339.1" font-family="SourceSans" font-size="8.00">svg::to_string</text>
</a>
</g>
</g>
<!-- Node1&#45;&gt;Node5 -->
<g id="edge16" class="edge">
<title>Node1&#45;&gt;Node5</title>
<path fill="none" stroke="midnightblue" d="M56.61,-241.53C68.21,-260.01 98.55,-303.57 137,-322 190.54,-347.67 260.29,-348.72 305.23,-345.87"/>
<polygon fill="midnightblue" stroke="midnightblue" points="305.55,-349.36 315.27,-345.14 305.04,-342.38 305.55,-349.36"/>
</g>
<!-- Node6 -->
<g id="node6" class="node">
<title>Node6</title>
<g id="a_node6"><a xlink:href="group__elements.html#gaac30ae99fb1a2542688fa1ffb43cd8e1" target="_top" xlink:title=" ">
<polygon fill="white" stroke="black" points="148.5,-286 148.5,-312 247.5,-312 247.5,-286 148.5,-286"/>
<text text-anchor="start" x="156.5" y="-301.6" font-family="SourceSans" font-size="8.00">svg::path_element::</text>
<text text-anchor="middle" x="198" y="-292.6" font-family="SourceSans" font-size="8.00">finish_element</text>
</a>
</g>
</g>
<!-- Node1&#45;&gt;Node6 -->
<g id="edge5" class="edge">
<title>Node1&#45;&gt;Node6</title>
<path fill="none" stroke="midnightblue" d="M66.67,-241.53C83.55,-250.86 111.77,-265.94 137,-277 141.11,-278.8 145.42,-280.59 149.77,-282.31"/>
<polygon fill="midnightblue" stroke="midnightblue" points="148.68,-285.64 159.27,-285.98 151.2,-279.11 148.68,-285.64"/>
</g>
<!-- Node7 -->
<g id="node7" class="node">
<title>Node7</title>
<g id="a_node7"><a xlink:href="namespacesvg.html#ab44508c4aeca591141ebec50145b75cd" target="_top" xlink:title="Angle in degrees.">
<polygon fill="white" stroke="black" points="141.5,-121 141.5,-147 254.5,-147 254.5,-121 141.5,-121"/>
<text text-anchor="start" x="149.5" y="-136.6" font-family="SourceSans" font-size="8.00">svg::get_circumference</text>
<text text-anchor="middle" x="198" y="-127.6" font-family="SourceSans" font-size="8.00">_point_d</text>
</a>
</g>
</g>
<!-- Node1&#45;&gt;Node7 -->
<g id="edge6" class="edge">
<title>Node1&#45;&gt;Node7</title>
<path fill="none" stroke="midnightblue" d="M59.19,-224.36C73.28,-208.97 104.76,-176.61 137,-157 140.39,-154.94 143.99,-153.01 147.69,-151.21"/>
<polygon fill="midnightblue" stroke="midnightblue" points="149.31,-154.32 156.99,-147.01 146.43,-147.94 149.31,-154.32"/>
</g>
<!-- Node9 -->
<g id="node9" class="node">
<title>Node9</title>
<g id="a_node9"><a xlink:href="namespacesvg_1_1constants.html#a0e0b0d9314bc47324ee39884bf8bb2fd" target="_top" xlink:title=" ">
<polygon fill="white" stroke="black" points="306,-84.5 306,-101.5 397,-101.5 397,-84.5 306,-84.5"/>
<text text-anchor="middle" x="351.5" y="-91.1" font-family="SourceSans" font-size="8.00">svg::constants::pi</text>
</a>
</g>
</g>
<!-- Node1&#45;&gt;Node9 -->
<g id="edge13" class="edge">
<title>Node1&#45;&gt;Node9</title>
<path fill="none" stroke="midnightblue" d="M54.6,-224.24C63.33,-200.98 90.59,-137.69 137,-111 185.42,-83.16 250.48,-81.79 296.01,-85.41"/>
<polygon fill="midnightblue" stroke="midnightblue" points="295.72,-88.9 305.99,-86.31 296.34,-81.92 295.72,-88.9"/>
</g>
<!-- Node10 -->
<g id="node10" class="node">
<title>Node10</title>
<g id="a_node10"><a xlink:href="namespacesvg.html#a694806659ebf061e616b8a0b49a53f40" target="_top" xlink:title=" ">
<polygon fill="white" stroke="black" points="145.5,-166.5 145.5,-183.5 250.5,-183.5 250.5,-166.5 145.5,-166.5"/>
<text text-anchor="middle" x="198" y="-173.1" font-family="SourceSans" font-size="8.00">svg::get_radial_range</text>
</a>
</g>
</g>
<!-- Node1&#45;&gt;Node10 -->
<g id="edge9" class="edge">
<title>Node1&#45;&gt;Node10</title>
<path fill="none" stroke="midnightblue" d="M72.18,-224.38C89.46,-217.22 114.78,-206.8 137,-198 146.06,-194.41 155.93,-190.59 165,-187.11"/>
<polygon fill="midnightblue" stroke="midnightblue" points="166.35,-190.34 174.44,-183.51 163.85,-183.81 166.35,-190.34"/>
</g>
<!-- Node11 -->
<g id="node11" class="node">
<title>Node11</title>
<g id="a_node11"><a xlink:href="namespacesvg.html#ab1741538593b42c68b0334c90d1b0ff5" target="_top" xlink:title="Make path segment between two points on a circumference of radius r. Points like: get_circumference_p...">
<polygon fill="white" stroke="black" points="149,-241 149,-267 247,-267 247,-241 149,-241"/>
<text text-anchor="start" x="157" y="-256.6" font-family="SourceSans" font-size="8.00">svg::make_path_arc</text>
<text text-anchor="middle" x="198" y="-247.6" font-family="SourceSans" font-size="8.00">_circumference</text>
</a>
</g>
</g>
<!-- Node1&#45;&gt;Node11 -->
<g id="edge10" class="edge">
<title>Node1&#45;&gt;Node11</title>
<path fill="none" stroke="midnightblue" d="M101.17,-240.17C113.13,-241.89 126.02,-243.76 138.35,-245.54"/>
<polygon fill="midnightblue" stroke="midnightblue" points="138.15,-249.04 148.54,-247.01 139.15,-242.11 138.15,-249.04"/>
</g>
<!-- Node12 -->
<g id="node12" class="node">
<title>Node12</title>
<g id="a_node12"><a xlink:href="namespacesvg_1_1constants.html#ac460bc8db60d85c3ae1cf8b1a903405e" target="_top" xlink:title="Formatting character constants.">
<polygon fill="white" stroke="black" points="297.5,-224.5 297.5,-241.5 405.5,-241.5 405.5,-224.5 297.5,-224.5"/>
<text text-anchor="middle" x="351.5" y="-231.1" font-family="SourceSans" font-size="8.00">svg::constants::space</text>
</a>
</g>
</g>
<!-- Node1&#45;&gt;Node12 -->
<g id="edge14" class="edge">
<title>Node1&#45;&gt;Node12</title>
<path fill="none" stroke="midnightblue" d="M101.23,-232.32C112.96,-232.19 125.42,-232.07 137,-232 191.22,-231.68 204.78,-231.7 259,-232 268.1,-232.05 277.71,-232.13 287.14,-232.22"/>
<polygon fill="midnightblue" stroke="midnightblue" points="287.24,-235.72 297.28,-232.32 287.31,-228.72 287.24,-235.72"/>
</g>
<!-- Node13 -->
<g id="node13" class="node">
<title>Node13</title>
<g id="a_node13"><a xlink:href="group__elements.html#a6dbca7cef2cbc0c10aa44c44ae20b36e" target="_top" xlink:title=" ">
<polygon fill="white" stroke="black" points="148.5,-37 148.5,-63 247.5,-63 247.5,-37 148.5,-37"/>
<text text-anchor="start" x="156.5" y="-52.6" font-family="SourceSans" font-size="8.00">svg::path_element::</text>
<text text-anchor="middle" x="198" y="-43.6" font-family="SourceSans" font-size="8.00">start_element</text>
</a>
</g>
</g>
<!-- Node1&#45;&gt;Node13 -->
<g id="edge15" class="edge">
<title>Node1&#45;&gt;Node13</title>
<path fill="none" stroke="midnightblue" d="M54.11,-224.42C62.26,-198.86 89.63,-122.28 137,-78 141.04,-74.22 145.68,-70.88 150.56,-67.93"/>
<polygon fill="midnightblue" stroke="midnightblue" points="152.4,-70.92 159.5,-63.06 149.05,-64.77 152.4,-70.92"/>
</g>
<!-- Node14 -->
<g id="node14" class="node">
<title>Node14</title>
<g id="a_node14"><a xlink:href="namespacesvg.html#a46164d75fd5109e4ed8879abbacd5c11" target="_top" xlink:title="Zero degrees is top, going clockwise (cw).">
<polygon fill="white" stroke="black" points="137,-0.5 137,-17.5 259,-17.5 259,-0.5 137,-0.5"/>
<text text-anchor="middle" x="198" y="-7.1" font-family="SourceSans" font-size="8.00">svg::zero_angle_north_cw</text>
</a>
</g>
</g>
<!-- Node1&#45;&gt;Node14 -->
<g id="edge17" class="edge">
<title>Node1&#45;&gt;Node14</title>
<path fill="none" stroke="midnightblue" d="M52.45,-224.47C56.4,-193.18 74.35,-83.57 137,-27 138.91,-25.28 140.97,-23.72 143.15,-22.31"/>
<polygon fill="midnightblue" stroke="midnightblue" points="144.85,-25.38 152.02,-17.58 141.55,-19.2 144.85,-25.38"/>
</g>
<!-- Node4&#45;&gt;Node5 -->
<g id="edge4" class="edge">
<title>Node4&#45;&gt;Node5</title>
<path fill="none" stroke="midnightblue" d="M246.11,-369.94C266.52,-364.28 290.19,-357.72 309.83,-352.28"/>
<polygon fill="midnightblue" stroke="midnightblue" points="310.99,-355.59 319.69,-349.54 309.12,-348.84 310.99,-355.59"/>
</g>
<!-- Node8 -->
<g id="node8" class="node">
<title>Node8</title>
<g id="a_node8"><a xlink:href="namespacesvg.html#a85a18af2008e9709e4d641ef4bda04e7" target="_top" xlink:title="Angle in radians.">
<polygon fill="white" stroke="black" points="295,-121 295,-147 408,-147 408,-121 295,-121"/>
<text text-anchor="start" x="303" y="-136.6" font-family="SourceSans" font-size="8.00">svg::get_circumference</text>
<text text-anchor="middle" x="351.5" y="-127.6" font-family="SourceSans" font-size="8.00">_point</text>
</a>
</g>
</g>
<!-- Node7&#45;&gt;Node8 -->
<g id="edge7" class="edge">
<title>Node7&#45;&gt;Node8</title>
<path fill="none" stroke="midnightblue" d="M254.55,-134C264.43,-134 274.81,-134 284.94,-134"/>
<polygon fill="midnightblue" stroke="midnightblue" points="284.95,-137.5 294.95,-134 284.95,-130.5 284.95,-137.5"/>
</g>
<!-- Node7&#45;&gt;Node9 -->
<g id="edge8" class="edge">
<title>Node7&#45;&gt;Node9</title>
<path fill="none" stroke="midnightblue" d="M247.35,-120.91C267.17,-115.55 289.88,-109.4 308.94,-104.25"/>
<polygon fill="midnightblue" stroke="midnightblue" points="310.08,-107.56 318.82,-101.57 308.26,-100.81 310.08,-107.56"/>
</g>
<!-- Node11&#45;&gt;Node5 -->
<g id="edge12" class="edge">
<title>Node11&#45;&gt;Node5</title>
<path fill="none" stroke="midnightblue" d="M237.39,-267.11C244.71,-270.05 252.2,-273.39 259,-277 285.93,-291.3 314.3,-312.18 332.18,-326.16"/>
<polygon fill="midnightblue" stroke="midnightblue" points="330.06,-328.94 340.07,-332.41 334.4,-323.46 330.06,-328.94"/>
</g>
<!-- Node11&#45;&gt;Node12 -->
<g id="edge11" class="edge">
<title>Node11&#45;&gt;Node12</title>
<path fill="none" stroke="midnightblue" d="M247.35,-247.3C260.05,-245.54 273.93,-243.61 287.28,-241.76"/>
<polygon fill="midnightblue" stroke="midnightblue" points="287.93,-245.21 297.36,-240.37 286.97,-238.27 287.93,-245.21"/>
</g>
</g>
</svg>
        <g id="navigator" transform="translate(0 0)" fill="#404254">
                <rect fill="#f2f5e9" fill-opacity="0.5" stroke="#606060" stroke-width=".5" x="0" y="0" width="60" height="60"/>
                <use id="zoomplus" xlink:href="#zoomPlus" x="17" y="9" onmousedown="handleZoom(evt,'in')"/>
                <use id="zoomminus" xlink:href="#zoomMin" x="42" y="9" onmousedown="handleZoom(evt,'out')"/>
                <use id="reset" xlink:href="#resetDef" x="30" y="36" onmousedown="handleReset()"/>
                <g id="arrowUp" xlink:href="#dirArrow" transform="translate(30 24)" onmousedown="handlePan(0,-1)">
                  <use xlink:href="#rim" fill="#404040">
                        <set attributeName="fill" to="#808080" begin="arrowUp.mouseover" end="arrowUp.mouseout"/>
                  </use>
                  <path fill="none" stroke="white" stroke-width="1.5" d="M0,-3.0v7 M-2.5,-0.5L0,-3.0L2.5,-0.5"/>
                </g>
                <g id="arrowRight" xlink:href="#dirArrow" transform="rotate(90) translate(36 -43)" onmousedown="handlePan(1,0)">
                  <use xlink:href="#rim" fill="#404040">
                        <set attributeName="fill" to="#808080" begin="arrowRight.mouseover" end="arrowRight.mouseout"/>
                  </use>
                  <path fill="none" stroke="white" stroke-width="1.5" d="M0,-3.0v7 M-2.5,-0.5L0,-3.0L2.5,-0.5"/>
                </g>
                <g id="arrowDown" xlink:href="#dirArrow" transform="rotate(180) translate(-30 -48)" onmousedown="handlePan(0,1)">
                  <use xlink:href="#rim" fill="#404040">
                        <set attributeName="fill" to="#808080" begin="arrowDown.mouseover" end="arrowDown.mouseout"/>
                  </use>
                  <path fill="none" stroke="white" stroke-width="1.5" d="M0,-3.0v7 M-2.5,-0.5L0,-3.0L2.5,-0.5"/>
                </g>
                <g id="arrowLeft" xlink:href="#dirArrow" transform="rotate(270) translate(-36 17)" onmousedown="handlePan(-1,0)">
                  <use xlink:href="#rim" fill="#404040">
                        <set attributeName="fill" to="#808080" begin="arrowLeft.mouseover" end="arrowLeft.mouseout"/>
                  </use>
                  <path fill="none" stroke="white" stroke-width="1.5" d="M0,-3.0v7 M-2.5,-0.5L0,-3.0L2.5,-0.5"/>
                </g>
        </g>
        <svg viewBox="0 0 15 15" width="100%" height="30px" preserveAspectRatio="xMaxYMin meet">
         <g id="arrow_out" transform="scale(0.3 0.3)">
          <a xlink:href="namespacesvg_a4a82474e9abf0617e2874f2fd2623c76_cgraph_org.svg" target="_base">
           <rect id="button" ry="5" rx="5" y="6" x="6" height="38" width="38"
                fill="#f2f5e9" fill-opacity="0.5" stroke="#606060" stroke-width="1.0"/>
           <path id="arrow"
             d="M 11.500037,31.436501 C 11.940474,20.09759 22.043105,11.32322 32.158766,21.979434 L 37.068811,17.246167 C 37.068811,17.246167 37.088388,32 37.088388,32 L 22.160133,31.978069 C 22.160133,31.978069 26.997745,27.140456 26.997745,27.140456 C 18.528582,18.264221 13.291696,25.230495 11.500037,31.436501 z"
             style="fill:#404040;"/>
          </a>
         </g>
        </svg>
</svg>
