<?xml version="1.0" encoding="UTF-8" standalone="no"?>
<!DOCTYPE svg PUBLIC "-//W3C//DTD SVG 1.1//EN"
 "http://www.w3.org/Graphics/SVG/1.1/DTD/svg11.dtd">
<!-- Generated by graphviz version 2.44.0 (0)
 -->
<!-- Title: svg::styled_text_r Pages: 1 -->
<!--zoomable 345 -->
<svg id="main" version="1.1" xmlns="http://www.w3.org/2000/svg" xmlns:xlink="http://www.w3.org/1999/xlink" xml:space="preserve" onload="init(evt)">
<style type="text/css"><![CDATA[
.edge:hover path { stroke: red; }
.edge:hover polygon { stroke: red; fill: red; }
]]></style>
<script type="text/javascript"><![CDATA[
var edges = document.getElementsByTagName('g');
if (edges && edges.length) {
  for (var i=0;i<edges.length;i++) {
    if (edges[i].id.substr(0,4)=='edge') {
      edges[i].setAttribute('class','edge');
    }
  }
}
]]></script>
        <defs>
                <circle id="rim" cx="0" cy="0" r="7"/>
                <circle id="rim2" cx="0" cy="0" r="3.5"/>
                <g id="zoomPlus">
                        <use xlink:href="#rim" fill="#404040">
                                <set attributeName="fill" to="#808080" begin="zoomplus.mouseover" end="zoomplus.mouseout"/>
                        </use>
                        <path d="M-4,0h8M0,-4v8" fill="none" stroke="white" stroke-width="1.5" pointer-events="none"/>
                </g>
                <g id="zoomMin">
                        <use xlink:href="#rim" fill="#404040">
                                <set attributeName="fill" to="#808080" begin="zoomminus.mouseover" end="zoomminus.mouseout"/>
                        </use>
                        <path d="M-4,0h8" fill="none" stroke="white" stroke-width="1.5" pointer-events="none"/>
                </g>
                <g id="dirArrow">
                        <path fill="none" stroke="white" stroke-width="1.5" d="M0,-3.0v7 M-2.5,-0.5L0,-3.0L2.5,-0.5"/>
                </g>
               <g id="resetDef">
                       <use xlink:href="#rim2" fill="#404040">
                               <set attributeName="fill" to="#808080" begin="reset.mouseover" end="reset.mouseout"/>
                       </use>
               </g>
        </defs>

<script type="text/javascript">
var viewWidth = 663;
var viewHeight = 345;
var sectionId = 'dynsection-59';
</script>
<script xlink:href="svgpan.js"/>
<svg id="graph" class="graph">
<g id="viewport">
<title>svg::styled_text_r</title>
<polygon fill="white" stroke="transparent" points="-4,4 -4,-341 659,-341 659,4 -4,4"/>
<!-- Node1 -->
<g id="node1" class="node">
<title>Node1</title>
<g id="a_node1"><a xlink:title="Text at @origin, with a transformation=rotation of @deg about @origin add .">
<polygon fill="#bfbfbf" stroke="black" points="0,-87 0,-104 87,-104 87,-87 0,-87"/>
<text text-anchor="middle" x="43.5" y="-93.6" font-family="SourceSans" font-size="8.00">svg::styled_text_r</text>
</a>
</g>
</g>
<!-- Node2 -->
<g id="node2" class="node">
<title>Node2</title>
<g id="a_node2"><a xlink:href="group__elements.html#a87be030b88c17a86a690b31e95b60612" target="_top" xlink:title="Either serialize immediately (as below), or create data structure that adds data to data_vec and then...">
<polygon fill="white" stroke="black" points="130.5,-172.5 130.5,-198.5 225.5,-198.5 225.5,-172.5 130.5,-172.5"/>
<text text-anchor="start" x="138.5" y="-188.1" font-family="SourceSans" font-size="8.00">svg::text_element::</text>
<text text-anchor="middle" x="178" y="-179.1" font-family="SourceSans" font-size="8.00">add_data</text>
</a>
</g>
</g>
<!-- Node1&#45;&gt;Node2 -->
<g id="edge1" class="edge">
<title>Node1&#45;&gt;Node2</title>
<path fill="none" stroke="midnightblue" d="M52.98,-104.3C66.68,-118.12 94.97,-145.14 123,-162.5 126.13,-164.44 129.45,-166.29 132.85,-168.03"/>
<polygon fill="midnightblue" stroke="midnightblue" points="131.41,-171.23 141.94,-172.41 134.44,-164.92 131.41,-171.23"/>
</g>
<!-- Node12 -->
<g id="node12" class="node">
<title>Node12</title>
<g id="a_node12"><a xlink:href="group__elements.html#adb6116b96467cc39cb178deb10c7a869" target="_top" xlink:title=" ">
<polygon fill="white" stroke="black" points="123,-127.5 123,-153.5 233,-153.5 233,-127.5 123,-127.5"/>
<text text-anchor="start" x="131" y="-143.1" font-family="SourceSans" font-size="8.00">svg::svg_element::add</text>
<text text-anchor="middle" x="178" y="-134.1" font-family="SourceSans" font-size="8.00">_element</text>
</a>
</g>
</g>
<!-- Node1&#45;&gt;Node12 -->
<g id="edge16" class="edge">
<title>Node1&#45;&gt;Node12</title>
<path fill="none" stroke="midnightblue" d="M69.73,-104.07C86.45,-109.75 108.9,-117.37 128.94,-124.18"/>
<polygon fill="midnightblue" stroke="midnightblue" points="127.96,-127.54 138.56,-127.44 130.21,-120.91 127.96,-127.54"/>
</g>
<!-- Node13 -->
<g id="node13" class="node">
<title>Node13</title>
<g id="a_node13"><a xlink:href="group__elements.html#ga13c46848317034d16c62a7d2061ba3d6" target="_top" xlink:title=" ">
<polygon fill="white" stroke="black" points="130.5,-82.5 130.5,-108.5 225.5,-108.5 225.5,-82.5 130.5,-82.5"/>
<text text-anchor="start" x="138.5" y="-98.1" font-family="SourceSans" font-size="8.00">svg::text_element::</text>
<text text-anchor="middle" x="178" y="-89.1" font-family="SourceSans" font-size="8.00">finish_element</text>
</a>
</g>
</g>
<!-- Node1&#45;&gt;Node13 -->
<g id="edge17" class="edge">
<title>Node1&#45;&gt;Node13</title>
<path fill="none" stroke="midnightblue" d="M87.15,-95.5C97.69,-95.5 109.15,-95.5 120.25,-95.5"/>
<polygon fill="midnightblue" stroke="midnightblue" points="120.3,-99 130.3,-95.5 120.3,-92 120.3,-99"/>
</g>
<!-- Node14 -->
<g id="node14" class="node">
<title>Node14</title>
<g id="a_node14"><a xlink:href="structsvg_1_1transform.html#acf9836f4ba647f0dd2b53963a0f714d0" target="_top" xlink:title=" ">
<polygon fill="white" stroke="black" points="124.5,-46 124.5,-63 231.5,-63 231.5,-46 124.5,-46"/>
<text text-anchor="middle" x="178" y="-52.6" font-family="SourceSans" font-size="8.00">svg::transform::rotate</text>
</a>
</g>
</g>
<!-- Node1&#45;&gt;Node14 -->
<g id="edge18" class="edge">
<title>Node1&#45;&gt;Node14</title>
<path fill="none" stroke="midnightblue" d="M72.28,-86.91C91.8,-80.86 118.14,-72.71 139.52,-66.1"/>
<polygon fill="midnightblue" stroke="midnightblue" points="140.74,-69.38 149.26,-63.08 138.67,-62.7 140.74,-69.38"/>
</g>
<!-- Node15 -->
<g id="node15" class="node">
<title>Node15</title>
<g id="a_node15"><a xlink:href="group__elements.html#ae45bec611a6ec17ea46aab6d680ae042" target="_top" xlink:title=" ">
<polygon fill="white" stroke="black" points="130.5,-0.5 130.5,-26.5 225.5,-26.5 225.5,-0.5 130.5,-0.5"/>
<text text-anchor="start" x="138.5" y="-16.1" font-family="SourceSans" font-size="8.00">svg::text_element::</text>
<text text-anchor="middle" x="178" y="-7.1" font-family="SourceSans" font-size="8.00">start_element</text>
</a>
</g>
</g>
<!-- Node1&#45;&gt;Node15 -->
<g id="edge19" class="edge">
<title>Node1&#45;&gt;Node15</title>
<path fill="none" stroke="midnightblue" d="M54.6,-86.63C69.03,-74.27 96.72,-51.67 123,-36.5 126.43,-34.52 130.06,-32.61 133.75,-30.8"/>
<polygon fill="midnightblue" stroke="midnightblue" points="135.39,-33.9 142.97,-26.51 132.43,-27.55 135.39,-33.9"/>
</g>
<!-- Node3 -->
<g id="node3" class="node">
<title>Node3</title>
<g id="a_node3"><a xlink:href="structsvg_1_1typography.html#a70f61596bba3e0bd67b43a8fc553dbfa" target="_top" xlink:title=" ">
<polygon fill="white" stroke="black" points="269,-193.5 269,-219.5 374,-219.5 374,-193.5 269,-193.5"/>
<text text-anchor="start" x="277" y="-209.1" font-family="SourceSans" font-size="8.00">svg::typography::add</text>
<text text-anchor="middle" x="321.5" y="-200.1" font-family="SourceSans" font-size="8.00">_attribute</text>
</a>
</g>
</g>
<!-- Node2&#45;&gt;Node3 -->
<g id="edge2" class="edge">
<title>Node2&#45;&gt;Node3</title>
<path fill="none" stroke="midnightblue" d="M225.72,-192.43C236.33,-194.01 247.74,-195.7 258.86,-197.35"/>
<polygon fill="midnightblue" stroke="midnightblue" points="258.54,-200.84 268.94,-198.85 259.57,-193.92 258.54,-200.84"/>
</g>
<!-- Node6 -->
<g id="node6" class="node">
<title>Node6</title>
<g id="a_node6"><a xlink:href="namespacesvg.html#a48ac748e89e22789d1772326a98dd7b6" target="_top" xlink:title=" ">
<polygon fill="white" stroke="black" points="413,-116 413,-133 508,-133 508,-116 413,-116"/>
<text text-anchor="middle" x="460.5" y="-122.6" font-family="SourceSans" font-size="8.00">svg::string_replace</text>
</a>
</g>
</g>
<!-- Node2&#45;&gt;Node6 -->
<g id="edge14" class="edge">
<title>Node2&#45;&gt;Node6</title>
<path fill="none" stroke="midnightblue" d="M225.6,-176.47C265.17,-168.67 323.43,-156.89 374,-145.5 387.66,-142.42 402.5,-138.86 415.92,-135.55"/>
<polygon fill="midnightblue" stroke="midnightblue" points="417,-138.88 425.87,-133.08 415.32,-132.09 417,-138.88"/>
</g>
<!-- Node10 -->
<g id="node10" class="node">
<title>Node10</title>
<g id="a_node10"><a xlink:href="group__elements.html#a53d72a7ff728ad1d4d027254530bcf3d" target="_top" xlink:title="Common transforms include rotate(180)">
<polygon fill="white" stroke="black" points="410,-310.5 410,-336.5 511,-336.5 511,-310.5 410,-310.5"/>
<text text-anchor="start" x="418" y="-326.1" font-family="SourceSans" font-size="8.00">svg::element_base::</text>
<text text-anchor="middle" x="460.5" y="-317.1" font-family="SourceSans" font-size="8.00">add_transform</text>
</a>
</g>
</g>
<!-- Node2&#45;&gt;Node10 -->
<g id="edge11" class="edge">
<title>Node2&#45;&gt;Node10</title>
<path fill="none" stroke="midnightblue" d="M205.64,-198.61C256.42,-223.59 367.07,-278.03 424.04,-306.05"/>
<polygon fill="midnightblue" stroke="midnightblue" points="422.52,-309.21 433.04,-310.48 425.61,-302.93 422.52,-309.21"/>
</g>
<!-- Node11 -->
<g id="node11" class="node">
<title>Node11</title>
<g id="a_node11"><a xlink:href="namespacesvg.html#a36b1c48ad4601b205790e3772ad0a7b6" target="_top" xlink:title=" ">
<polygon fill="white" stroke="black" points="285.5,-119 285.5,-136 357.5,-136 357.5,-119 285.5,-119"/>
<text text-anchor="middle" x="321.5" y="-125.6" font-family="SourceSans" font-size="8.00">svg::to_string</text>
</a>
</g>
</g>
<!-- Node2&#45;&gt;Node11 -->
<g id="edge15" class="edge">
<title>Node2&#45;&gt;Node11</title>
<path fill="none" stroke="midnightblue" d="M210.76,-172.48C234.43,-162.78 266.57,-149.61 289.94,-140.03"/>
<polygon fill="midnightblue" stroke="midnightblue" points="291.45,-143.19 299.38,-136.16 288.8,-136.71 291.45,-143.19"/>
</g>
<!-- Node4 -->
<g id="node4" class="node">
<title>Node4</title>
<g id="a_node4"><a xlink:href="namespacesvg_1_1constants.html#a3972655f1dfdc090ec2592d1fb37e87c" target="_top" xlink:title=" ">
<polygon fill="white" stroke="black" points="547.5,-235 547.5,-252 654.5,-252 654.5,-235 547.5,-235"/>
<text text-anchor="middle" x="601" y="-241.6" font-family="SourceSans" font-size="8.00">svg::constants::quote</text>
</a>
</g>
</g>
<!-- Node3&#45;&gt;Node4 -->
<g id="edge3" class="edge">
<title>Node3&#45;&gt;Node4</title>
<path fill="none" stroke="midnightblue" d="M374.16,-218.05C385.9,-220.42 398.35,-222.72 410,-224.5 452.24,-230.94 500.1,-235.71 537.23,-238.86"/>
<polygon fill="midnightblue" stroke="midnightblue" points="537.14,-242.37 547.4,-239.71 537.72,-235.39 537.14,-242.37"/>
</g>
<!-- Node5 -->
<g id="node5" class="node">
<title>Node5</title>
<g id="a_node5"><a xlink:href="namespacesvg_1_1constants.html#ac460bc8db60d85c3ae1cf8b1a903405e" target="_top" xlink:title="Formatting character constants.">
<polygon fill="white" stroke="black" points="547,-273 547,-290 655,-290 655,-273 547,-273"/>
<text text-anchor="middle" x="601" y="-279.6" font-family="SourceSans" font-size="8.00">svg::constants::space</text>
</a>
</g>
</g>
<!-- Node3&#45;&gt;Node5 -->
<g id="edge4" class="edge">
<title>Node3&#45;&gt;Node5</title>
<path fill="none" stroke="midnightblue" d="M349.55,-219.62C366.58,-227.46 389.19,-237.09 410,-243.5 451.44,-256.26 499.31,-265.8 536.63,-272.13"/>
<polygon fill="midnightblue" stroke="midnightblue" points="536.43,-275.65 546.87,-273.84 537.57,-268.74 536.43,-275.65"/>
</g>
<!-- Node3&#45;&gt;Node6 -->
<g id="edge5" class="edge">
<title>Node3&#45;&gt;Node6</title>
<path fill="none" stroke="midnightblue" d="M350.12,-193.36C358.12,-189.07 366.66,-183.98 374,-178.5 392.13,-164.96 390.91,-154.65 410,-142.5 413.16,-140.49 416.57,-138.66 420.07,-137.01"/>
<polygon fill="midnightblue" stroke="midnightblue" points="421.6,-140.16 429.45,-133.05 418.88,-133.72 421.6,-140.16"/>
</g>
<!-- Node7 -->
<g id="node7" class="node">
<title>Node7</title>
<g id="a_node7"><a xlink:href="structsvg_1_1typography.html#a174c1ffb4e56214d71523ffe7e422561" target="_top" xlink:title=" ">
<polygon fill="white" stroke="black" points="411.5,-152.5 411.5,-178.5 509.5,-178.5 509.5,-152.5 411.5,-152.5"/>
<text text-anchor="start" x="419.5" y="-168.1" font-family="SourceSans" font-size="8.00">svg::typography::to</text>
<text text-anchor="middle" x="460.5" y="-159.1" font-family="SourceSans" font-size="8.00">_string</text>
</a>
</g>
</g>
<!-- Node3&#45;&gt;Node7 -->
<g id="edge6" class="edge">
<title>Node3&#45;&gt;Node7</title>
<path fill="none" stroke="midnightblue" d="M366.22,-193.41C378.83,-189.64 392.73,-185.48 405.86,-181.55"/>
<polygon fill="midnightblue" stroke="midnightblue" points="407.14,-184.82 415.72,-178.6 405.14,-178.12 407.14,-184.82"/>
</g>
<!-- Node8 -->
<g id="node8" class="node">
<title>Node8</title>
<g id="a_node8"><a xlink:href="namespacesvg.html#a7363f3de9a003a4399e7ede9036299d4" target="_top" xlink:title=" ">
<polygon fill="white" stroke="black" points="424.5,-198 424.5,-215 496.5,-215 496.5,-198 424.5,-198"/>
<text text-anchor="middle" x="460.5" y="-204.6" font-family="SourceSans" font-size="8.00">svg::to_string</text>
</a>
</g>
</g>
<!-- Node3&#45;&gt;Node8 -->
<g id="edge7" class="edge">
<title>Node3&#45;&gt;Node8</title>
<path fill="none" stroke="midnightblue" d="M374.29,-206.5C387.32,-206.5 401.2,-206.5 413.89,-206.5"/>
<polygon fill="midnightblue" stroke="midnightblue" points="414.24,-210 424.24,-206.5 414.24,-203 414.24,-210"/>
</g>
<!-- Node8&#45;&gt;Node4 -->
<g id="edge8" class="edge">
<title>Node8&#45;&gt;Node4</title>
<path fill="none" stroke="midnightblue" d="M493.62,-215.08C512.85,-220.22 537.5,-226.8 558.23,-232.34"/>
<polygon fill="midnightblue" stroke="midnightblue" points="557.49,-235.77 568.05,-234.96 559.29,-229 557.49,-235.77"/>
</g>
<!-- Node8&#45;&gt;Node5 -->
<g id="edge9" class="edge">
<title>Node8&#45;&gt;Node5</title>
<path fill="none" stroke="midnightblue" d="M473.2,-215.17C489.25,-226.78 519.25,-247.54 547,-261.5 552.52,-264.28 558.51,-266.89 564.42,-269.26"/>
<polygon fill="midnightblue" stroke="midnightblue" points="563.6,-272.69 574.19,-273 566.1,-266.16 563.6,-272.69"/>
</g>
<!-- Node9 -->
<g id="node9" class="node">
<title>Node9</title>
<g id="a_node9"><a xlink:href="structsvg_1_1colorq.html#adb55a2a48193fafa55340505862278e4" target="_top" xlink:title=" ">
<polygon fill="white" stroke="black" points="549,-198 549,-215 653,-215 653,-198 549,-198"/>
<text text-anchor="middle" x="601" y="-204.6" font-family="SourceSans" font-size="8.00">svg::colorq::to_string</text>
</a>
</g>
</g>
<!-- Node8&#45;&gt;Node9 -->
<g id="edge10" class="edge">
<title>Node8&#45;&gt;Node9</title>
<path fill="none" stroke="midnightblue" d="M496.81,-206.5C509.51,-206.5 524.24,-206.5 538.53,-206.5"/>
<polygon fill="midnightblue" stroke="midnightblue" points="538.81,-210 548.81,-206.5 538.81,-203 538.81,-210"/>
</g>
<!-- Node10&#45;&gt;Node4 -->
<g id="edge12" class="edge">
<title>Node10&#45;&gt;Node4</title>
<path fill="none" stroke="midnightblue" d="M477.42,-310.48C494.03,-297.36 521.19,-277.15 547,-263.5 552.35,-260.67 558.18,-258.05 563.97,-255.7"/>
<polygon fill="midnightblue" stroke="midnightblue" points="565.48,-258.86 573.55,-252 562.96,-252.33 565.48,-258.86"/>
</g>
<!-- Node10&#45;&gt;Node5 -->
<g id="edge13" class="edge">
<title>Node10&#45;&gt;Node5</title>
<path fill="none" stroke="midnightblue" d="M504.56,-310.44C522.88,-304.89 544.07,-298.46 561.82,-293.08"/>
<polygon fill="midnightblue" stroke="midnightblue" points="563.28,-296.29 571.83,-290.04 561.25,-289.59 563.28,-296.29"/>
</g>
</g>
</svg>
        <g id="navigator" transform="translate(0 0)" fill="#404254">
                <rect fill="#f2f5e9" fill-opacity="0.5" stroke="#606060" stroke-width=".5" x="0" y="0" width="60" height="60"/>
                <use id="zoomplus" xlink:href="#zoomPlus" x="17" y="9" onmousedown="handleZoom(evt,'in')"/>
                <use id="zoomminus" xlink:href="#zoomMin" x="42" y="9" onmousedown="handleZoom(evt,'out')"/>
                <use id="reset" xlink:href="#resetDef" x="30" y="36" onmousedown="handleReset()"/>
                <g id="arrowUp" xlink:href="#dirArrow" transform="translate(30 24)" onmousedown="handlePan(0,-1)">
                  <use xlink:href="#rim" fill="#404040">
                        <set attributeName="fill" to="#808080" begin="arrowUp.mouseover" end="arrowUp.mouseout"/>
                  </use>
                  <path fill="none" stroke="white" stroke-width="1.5" d="M0,-3.0v7 M-2.5,-0.5L0,-3.0L2.5,-0.5"/>
                </g>
                <g id="arrowRight" xlink:href="#dirArrow" transform="rotate(90) translate(36 -43)" onmousedown="handlePan(1,0)">
                  <use xlink:href="#rim" fill="#404040">
                        <set attributeName="fill" to="#808080" begin="arrowRight.mouseover" end="arrowRight.mouseout"/>
                  </use>
                  <path fill="none" stroke="white" stroke-width="1.5" d="M0,-3.0v7 M-2.5,-0.5L0,-3.0L2.5,-0.5"/>
                </g>
                <g id="arrowDown" xlink:href="#dirArrow" transform="rotate(180) translate(-30 -48)" onmousedown="handlePan(0,1)">
                  <use xlink:href="#rim" fill="#404040">
                        <set attributeName="fill" to="#808080" begin="arrowDown.mouseover" end="arrowDown.mouseout"/>
                  </use>
                  <path fill="none" stroke="white" stroke-width="1.5" d="M0,-3.0v7 M-2.5,-0.5L0,-3.0L2.5,-0.5"/>
                </g>
                <g id="arrowLeft" xlink:href="#dirArrow" transform="rotate(270) translate(-36 17)" onmousedown="handlePan(-1,0)">
                  <use xlink:href="#rim" fill="#404040">
                        <set attributeName="fill" to="#808080" begin="arrowLeft.mouseover" end="arrowLeft.mouseout"/>
                  </use>
                  <path fill="none" stroke="white" stroke-width="1.5" d="M0,-3.0v7 M-2.5,-0.5L0,-3.0L2.5,-0.5"/>
                </g>
        </g>
        <svg viewBox="0 0 15 15" width="100%" height="30px" preserveAspectRatio="xMaxYMin meet">
         <g id="arrow_out" transform="scale(0.3 0.3)">
          <a xlink:href="namespacesvg_af26a70d52b4d91958eefbdf9c4c3c4b5_cgraph_org.svg" target="_base">
           <rect id="button" ry="5" rx="5" y="6" x="6" height="38" width="38"
                fill="#f2f5e9" fill-opacity="0.5" stroke="#606060" stroke-width="1.0"/>
           <path id="arrow"
             d="M 11.500037,31.436501 C 11.940474,20.09759 22.043105,11.32322 32.158766,21.979434 L 37.068811,17.246167 C 37.068811,17.246167 37.088388,32 37.088388,32 L 22.160133,31.978069 C 22.160133,31.978069 26.997745,27.140456 26.997745,27.140456 C 18.528582,18.264221 13.291696,25.230495 11.500037,31.436501 z"
             style="fill:#404040;"/>
          </a>
         </g>
        </svg>
</svg>
