<?xml version="1.0" encoding="UTF-8" standalone="no"?>
<!DOCTYPE svg PUBLIC "-//W3C//DTD SVG 1.1//EN"
 "http://www.w3.org/Graphics/SVG/1.1/DTD/svg11.dtd">
<!-- Generated by graphviz version 2.48.0 (0)
 -->
<!-- Title: svg::to_point_in_2x4_matrix Pages: 1 -->
<svg width="260pt" height="62pt"
 viewBox="0.00 0.00 260.00 62.00" xmlns="http://www.w3.org/2000/svg" xmlns:xlink="http://www.w3.org/1999/xlink">
<g id="graph0" class="graph" transform="scale(1 1) rotate(0) translate(4 58)">
<title>svg::to_point_in_2x4_matrix</title>
<polygon fill="white" stroke="transparent" points="-4,4 -4,-58 256,-58 256,4 -4,4"/>
<!-- Node1 -->
<g id="node1" class="node">
<title>Node1</title>
<g id="a_node1"><a xlink:title=" ">
<polygon fill="#bfbfbf" stroke="black" points="0,-14 0,-40 100,-40 100,-14 0,-14"/>
<text text-anchor="start" x="8" y="-29.6" font-family="SourceSans" font-size="8.00">svg::to_point_in_2x4</text>
<text text-anchor="middle" x="50" y="-20.6" font-family="SourceSans" font-size="8.00">_matrix</text>
</a>
</g>
</g>
<!-- Node2 -->
<g id="node2" class="node">
<title>Node2</title>
<g id="a_node2"><a xlink:href="namespacesvg_1_1constants.html#aa7f04c2ea699a1b1e2e790de5ac33f38" target="_top" xlink:title=" ">
<polygon fill="white" stroke="black" points="136,-36.5 136,-53.5 252,-53.5 252,-36.5 136,-36.5"/>
<text text-anchor="middle" x="194" y="-43.1" font-family="SourceSans" font-size="8.00">svg::constants::newline</text>
</a>
</g>
</g>
<!-- Node1&#45;&gt;Node2 -->
<g id="edge1" class="edge">
<title>Node1&#45;&gt;Node2</title>
<path fill="none" stroke="midnightblue" d="M100.27,-33.25C108.44,-34.28 117.04,-35.37 125.57,-36.45"/>
<polygon fill="midnightblue" stroke="midnightblue" points="125.17,-39.93 135.53,-37.71 126.05,-32.99 125.17,-39.93"/>
</g>
<!-- Node3 -->
<g id="node3" class="node">
<title>Node3</title>
<g id="a_node3"><a xlink:href="namespacesvg.html#a36b1c48ad4601b205790e3772ad0a7b6" target="_top" xlink:title=" ">
<polygon fill="white" stroke="black" points="158,-0.5 158,-17.5 230,-17.5 230,-0.5 158,-0.5"/>
<text text-anchor="middle" x="194" y="-7.1" font-family="SourceSans" font-size="8.00">svg::to_string</text>
</a>
</g>
</g>
<!-- Node1&#45;&gt;Node3 -->
<g id="edge2" class="edge">
<title>Node1&#45;&gt;Node3</title>
<path fill="none" stroke="midnightblue" d="M100.27,-20.75C115.63,-18.81 132.49,-16.67 147.57,-14.76"/>
<polygon fill="midnightblue" stroke="midnightblue" points="148.21,-18.21 157.69,-13.48 147.33,-11.26 148.21,-18.21"/>
</g>
</g>
</svg>
