<?xml version="1.0" encoding="UTF-8" standalone="no"?>
<!DOCTYPE svg PUBLIC "-//W3C//DTD SVG 1.1//EN"
 "http://www.w3.org/Graphics/SVG/1.1/DTD/svg11.dtd">
<!-- Generated by graphviz version 2.48.0 (0)
 -->
<!-- Title: svg::traverse_states Pages: 1 -->
<svg width="364pt" height="35pt"
 viewBox="0.00 0.00 364.00 35.00" xmlns="http://www.w3.org/2000/svg" xmlns:xlink="http://www.w3.org/1999/xlink">
<g id="graph0" class="graph" transform="scale(1 1) rotate(0) translate(4 31)">
<title>svg::traverse_states</title>
<polygon fill="white" stroke="transparent" points="-4,4 -4,-31 360,-31 360,4 -4,4"/>
<!-- Node1 -->
<g id="node1" class="node">
<title>Node1</title>
<g id="a_node1"><a xlink:title="Roll through render states given in values squentially, index starts with zero.">
<polygon fill="#bfbfbf" stroke="black" points="0,-5 0,-22 100,-22 100,-5 0,-5"/>
<text text-anchor="middle" x="50" y="-11.6" font-family="SourceSans" font-size="8.00">svg::traverse_states</text>
</a>
</g>
</g>
<!-- Node2 -->
<g id="node2" class="node">
<title>Node2</title>
<g id="a_node2"><a xlink:href="namespacesvg.html#a806415593163e75c9587c2a987dd5112" target="_top" xlink:title="Given identifier/name/id, get corresponding id_render_state from cache.">
<polygon fill="white" stroke="black" points="136,-0.5 136,-26.5 228,-26.5 228,-0.5 136,-0.5"/>
<text text-anchor="start" x="144" y="-16.1" font-family="SourceSans" font-size="8.00">svg::get_id_render</text>
<text text-anchor="middle" x="182" y="-7.1" font-family="SourceSans" font-size="8.00">_state</text>
</a>
</g>
</g>
<!-- Node1&#45;&gt;Node2 -->
<g id="edge1" class="edge">
<title>Node1&#45;&gt;Node2</title>
<path fill="none" stroke="midnightblue" d="M100.15,-13.5C108.43,-13.5 117.08,-13.5 125.5,-13.5"/>
<polygon fill="midnightblue" stroke="midnightblue" points="125.64,-17 135.64,-13.5 125.64,-10 125.64,-17"/>
</g>
<!-- Node3 -->
<g id="node3" class="node">
<title>Node3</title>
<g id="a_node3"><a xlink:href="namespacesvg.html#a699e7d1232d86d72bf5612ab3677548f" target="_top" xlink:title=" ">
<polygon fill="white" stroke="black" points="264,-0.5 264,-26.5 356,-26.5 356,-0.5 264,-0.5"/>
<text text-anchor="start" x="272" y="-16.1" font-family="SourceSans" font-size="8.00">svg::get_id_render</text>
<text text-anchor="middle" x="310" y="-7.1" font-family="SourceSans" font-size="8.00">_state_cache</text>
</a>
</g>
</g>
<!-- Node2&#45;&gt;Node3 -->
<g id="edge2" class="edge">
<title>Node2&#45;&gt;Node3</title>
<path fill="none" stroke="midnightblue" d="M228.13,-13.5C236.37,-13.5 245.04,-13.5 253.53,-13.5"/>
<polygon fill="midnightblue" stroke="midnightblue" points="253.76,-17 263.76,-13.5 253.76,-10 253.76,-17"/>
</g>
</g>
</svg>
