<?xml version="1.0" encoding="UTF-8" standalone="no"?>
<!DOCTYPE svg PUBLIC "-//W3C//DTD SVG 1.1//EN"
 "http://www.w3.org/Graphics/SVG/1.1/DTD/svg11.dtd">
<!-- Generated by graphviz version 2.48.0 (0)
 -->
<!-- Title: svg::render_state_base Pages: 1 -->
<svg width="214pt" height="80pt"
 viewBox="0.00 0.00 213.50 80.00" xmlns="http://www.w3.org/2000/svg" xmlns:xlink="http://www.w3.org/1999/xlink">
<g id="graph0" class="graph" transform="scale(1 1) rotate(0) translate(4 76)">
<title>svg::render_state_base</title>
<polygon fill="white" stroke="transparent" points="-4,4 -4,-76 209.5,-76 209.5,4 -4,4"/>
<!-- Node1 -->
<g id="node1" class="node">
<title>Node1</title>
<g id="a_node1"><a xlink:title="Settings for rendering collection&#45;derived objects.">
<polygon fill="#bfbfbf" stroke="black" points="49.5,-54.5 49.5,-71.5 161.5,-71.5 161.5,-54.5 49.5,-54.5"/>
<text text-anchor="middle" x="105.5" y="-61.1" font-family="SourceSans" font-size="8.00">svg::render_state_base</text>
</a>
</g>
</g>
<!-- Node2 -->
<g id="node2" class="node">
<title>Node2</title>
<g id="a_node2"><a xlink:href="structsvg_1_1id__render__state.html" target="_top" xlink:title="Named render state. Datum to take id string and tie it to visual representation.">
<polygon fill="white" stroke="black" points="0,-0.5 0,-17.5 99,-17.5 99,-0.5 0,-0.5"/>
<text text-anchor="middle" x="49.5" y="-7.1" font-family="SourceSans" font-size="8.00">svg::id_render_state</text>
</a>
</g>
</g>
<!-- Node1&#45;&gt;Node2 -->
<g id="edge1" class="edge">
<title>Node1&#45;&gt;Node2</title>
<path fill="none" stroke="midnightblue" d="M89.66,-47.29C79.29,-37.66 66.16,-25.47 57.8,-17.7"/>
<polygon fill="midnightblue" stroke="midnightblue" points="87.53,-50.09 97.24,-54.33 92.29,-44.96 87.53,-50.09"/>
</g>
<!-- Node3 -->
<g id="node3" class="node">
<title>Node3</title>
<g id="a_node3"><a xlink:href="structsvg_1_1render__state.html" target="_top" xlink:title="Render settings for collections.">
<polygon fill="white" stroke="black" points="117.5,-0.5 117.5,-17.5 205.5,-17.5 205.5,-0.5 117.5,-0.5"/>
<text text-anchor="middle" x="161.5" y="-7.1" font-family="SourceSans" font-size="8.00">svg::render_state</text>
</a>
</g>
</g>
<!-- Node1&#45;&gt;Node3 -->
<g id="edge2" class="edge">
<title>Node1&#45;&gt;Node3</title>
<path fill="none" stroke="midnightblue" d="M121.34,-47.29C131.71,-37.66 144.84,-25.47 153.2,-17.7"/>
<polygon fill="midnightblue" stroke="midnightblue" points="118.71,-44.96 113.76,-54.33 123.47,-50.09 118.71,-44.96"/>
</g>
</g>
</svg>
