<?xml version="1.0" encoding="UTF-8" standalone="no"?>
<!DOCTYPE svg PUBLIC "-//W3C//DTD SVG 1.1//EN"
 "http://www.w3.org/Graphics/SVG/1.1/DTD/svg11.dtd">
<!-- Generated by graphviz version 2.44.0 (0)
 -->
<!-- Title: svg::radiate_ids_at_uvalue Pages: 1 -->
<!--zoomable 423 -->
<svg id="main" version="1.1" xmlns="http://www.w3.org/2000/svg" xmlns:xlink="http://www.w3.org/1999/xlink" xml:space="preserve" onload="init(evt)">
<style type="text/css"><![CDATA[
.edge:hover path { stroke: red; }
.edge:hover polygon { stroke: red; fill: red; }
]]></style>
<script type="text/javascript"><![CDATA[
var edges = document.getElementsByTagName('g');
if (edges && edges.length) {
  for (var i=0;i<edges.length;i++) {
    if (edges[i].id.substr(0,4)=='edge') {
      edges[i].setAttribute('class','edge');
    }
  }
}
]]></script>
        <defs>
                <circle id="rim" cx="0" cy="0" r="7"/>
                <circle id="rim2" cx="0" cy="0" r="3.5"/>
                <g id="zoomPlus">
                        <use xlink:href="#rim" fill="#404040">
                                <set attributeName="fill" to="#808080" begin="zoomplus.mouseover" end="zoomplus.mouseout"/>
                        </use>
                        <path d="M-4,0h8M0,-4v8" fill="none" stroke="white" stroke-width="1.5" pointer-events="none"/>
                </g>
                <g id="zoomMin">
                        <use xlink:href="#rim" fill="#404040">
                                <set attributeName="fill" to="#808080" begin="zoomminus.mouseover" end="zoomminus.mouseout"/>
                        </use>
                        <path d="M-4,0h8" fill="none" stroke="white" stroke-width="1.5" pointer-events="none"/>
                </g>
                <g id="dirArrow">
                        <path fill="none" stroke="white" stroke-width="1.5" d="M0,-3.0v7 M-2.5,-0.5L0,-3.0L2.5,-0.5"/>
                </g>
               <g id="resetDef">
                       <use xlink:href="#rim2" fill="#404040">
                               <set attributeName="fill" to="#808080" begin="reset.mouseover" end="reset.mouseout"/>
                       </use>
               </g>
        </defs>

<script type="text/javascript">
var viewWidth = 1266;
var viewHeight = 423;
var sectionId = 'dynsection-52';
</script>
<script xlink:href="svgpan.js"/>
<svg id="graph" class="graph">
<g id="viewport">
<title>svg::radiate_ids_at_uvalue</title>
<polygon fill="white" stroke="transparent" points="-4,4 -4,-419 1262,-419 1262,4 -4,4"/>
<!-- Node1 -->
<g id="node1" class="node">
<title>Node1</title>
<g id="a_node1"><a xlink:title="Map ids with one value to a point cluster radiating out from a center.">
<polygon fill="#bfbfbf" stroke="black" points="0,-77.5 0,-103.5 94,-103.5 94,-77.5 0,-77.5"/>
<text text-anchor="start" x="8" y="-93.1" font-family="SourceSans" font-size="8.00">svg::radiate_ids_at</text>
<text text-anchor="middle" x="47" y="-84.1" font-family="SourceSans" font-size="8.00">_uvalue</text>
</a>
</g>
</g>
<!-- Node2 -->
<g id="node2" class="node">
<title>Node2</title>
<g id="a_node2"><a xlink:href="namespacesvg.html#a07c6fad0adddb0908ed4ef00536967c9" target="_top" xlink:title="Concatenate ids onto one line.">
<polygon fill="white" stroke="black" points="135.5,-156 135.5,-173 231.5,-173 231.5,-156 135.5,-156"/>
<text text-anchor="middle" x="183.5" y="-162.6" font-family="SourceSans" font-size="8.00">svg::append_ids_at</text>
</a>
</g>
</g>
<!-- Node1&#45;&gt;Node2 -->
<g id="edge1" class="edge">
<title>Node1&#45;&gt;Node2</title>
<path fill="none" stroke="midnightblue" d="M67.42,-103.68C83.74,-114.49 107.9,-129.86 130,-141.5 136.9,-145.13 144.5,-148.7 151.72,-151.9"/>
<polygon fill="midnightblue" stroke="midnightblue" points="150.66,-155.25 161.23,-156 153.43,-148.82 150.66,-155.25"/>
</g>
<!-- Node3 -->
<g id="node3" class="node">
<title>Node3</title>
<g id="a_node3"><a xlink:href="namespacesvg.html#a0a0dce44cf8a75daa516cdf9fade5a85" target="_top" xlink:title=" ">
<polygon fill="white" stroke="black" points="282.5,-147 282.5,-164 368.5,-164 368.5,-147 282.5,-147"/>
<text text-anchor="middle" x="325.5" y="-153.6" font-family="SourceSans" font-size="8.00">svg::radial_text_r</text>
</a>
</g>
</g>
<!-- Node1&#45;&gt;Node3 -->
<g id="edge36" class="edge">
<title>Node1&#45;&gt;Node3</title>
<path fill="none" stroke="midnightblue" d="M94.28,-101.38C145.45,-113.41 227.37,-132.67 278.44,-144.67"/>
<polygon fill="midnightblue" stroke="midnightblue" points="277.69,-148.09 288.23,-146.97 279.3,-141.28 277.69,-148.09"/>
</g>
<!-- Node26 -->
<g id="node26" class="node">
<title>Node26</title>
<g id="a_node26"><a xlink:href="namespacesvg.html#a929b5c33bc0c139332dddd5d3b8ea3d0" target="_top" xlink:title="Transform a value on a range to an angle on the radial range.">
<polygon fill="white" stroke="black" points="145,-82 145,-99 222,-99 222,-82 145,-82"/>
<text text-anchor="middle" x="183.5" y="-88.6" font-family="SourceSans" font-size="8.00">svg::get_angle</text>
</a>
</g>
</g>
<!-- Node1&#45;&gt;Node26 -->
<g id="edge31" class="edge">
<title>Node1&#45;&gt;Node26</title>
<path fill="none" stroke="midnightblue" d="M94.29,-90.5C107.24,-90.5 121.34,-90.5 134.4,-90.5"/>
<polygon fill="midnightblue" stroke="midnightblue" points="134.6,-94 144.6,-90.5 134.6,-87 134.6,-94"/>
</g>
<!-- Node29 -->
<g id="node29" class="node">
<title>Node29</title>
<g id="a_node29"><a xlink:href="namespacesvg.html#aabba9120f22d6011e46be1d065c2b19b" target="_top" xlink:title="Get the label space. Value &#45;&gt; Name, as a string where value has labelspaces of fill NB: Should be the...">
<polygon fill="white" stroke="black" points="130,-46 130,-63 237,-63 237,-46 130,-46"/>
<text text-anchor="middle" x="183.5" y="-52.6" font-family="SourceSans" font-size="8.00">svg::get_label_spaces</text>
</a>
</g>
</g>
<!-- Node1&#45;&gt;Node29 -->
<g id="edge34" class="edge">
<title>Node1&#45;&gt;Node29</title>
<path fill="none" stroke="midnightblue" d="M94.29,-78.11C109.35,-74.08 125.98,-69.63 140.69,-65.69"/>
<polygon fill="midnightblue" stroke="midnightblue" points="141.78,-69.02 150.53,-63.06 139.97,-62.26 141.78,-69.02"/>
</g>
<!-- Node30 -->
<g id="node30" class="node">
<title>Node30</title>
<g id="a_node30"><a xlink:href="namespacesvg.html#aa89ab2d58bfaf850b84e976828851b9b" target="_top" xlink:title="Make radial labels.">
<polygon fill="white" stroke="black" points="134.5,-0.5 134.5,-26.5 232.5,-26.5 232.5,-0.5 134.5,-0.5"/>
<text text-anchor="start" x="142.5" y="-16.1" font-family="SourceSans" font-size="8.00">svg::make_label_for</text>
<text text-anchor="middle" x="183.5" y="-7.1" font-family="SourceSans" font-size="8.00">_value</text>
</a>
</g>
</g>
<!-- Node1&#45;&gt;Node30 -->
<g id="edge35" class="edge">
<title>Node1&#45;&gt;Node30</title>
<path fill="none" stroke="midnightblue" d="M66.01,-77.36C82.27,-65.81 107.08,-48.95 130,-36.5 133.54,-34.58 137.27,-32.69 141.05,-30.87"/>
<polygon fill="midnightblue" stroke="midnightblue" points="142.84,-33.9 150.44,-26.52 139.89,-27.55 142.84,-33.9"/>
</g>
<!-- Node2&#45;&gt;Node3 -->
<g id="edge2" class="edge">
<title>Node2&#45;&gt;Node3</title>
<path fill="none" stroke="midnightblue" d="M231.51,-161.48C244.42,-160.65 258.51,-159.74 271.72,-158.89"/>
<polygon fill="midnightblue" stroke="midnightblue" points="272.34,-162.36 282.09,-158.23 271.89,-155.38 272.34,-162.36"/>
</g>
<!-- Node4 -->
<g id="node4" class="node">
<title>Node4</title>
<g id="a_node4"><a xlink:href="namespacesvg.html#ab44508c4aeca591141ebec50145b75cd" target="_top" xlink:title="Angle in degrees.">
<polygon fill="white" stroke="black" points="421,-219.5 421,-245.5 534,-245.5 534,-219.5 421,-219.5"/>
<text text-anchor="start" x="429" y="-235.1" font-family="SourceSans" font-size="8.00">svg::get_circumference</text>
<text text-anchor="middle" x="477.5" y="-226.1" font-family="SourceSans" font-size="8.00">_point_d</text>
</a>
</g>
</g>
<!-- Node3&#45;&gt;Node4 -->
<g id="edge3" class="edge">
<title>Node3&#45;&gt;Node4</title>
<path fill="none" stroke="midnightblue" d="M338.8,-164.19C355.33,-175.62 385.91,-195.83 414,-209.5 418.38,-211.63 423.02,-213.69 427.7,-215.63"/>
<polygon fill="midnightblue" stroke="midnightblue" points="426.74,-219.01 437.32,-219.45 429.32,-212.51 426.74,-219.01"/>
</g>
<!-- Node7 -->
<g id="node7" class="node">
<title>Node7</title>
<g id="a_node7"><a xlink:href="namespacesvg.html#ae7eab6d9ce1f55bcbcc997cd24c5abcf" target="_top" xlink:title="Text with typography, arranged ccw around points (x,y) on a circle.">
<polygon fill="white" stroke="black" points="428.5,-147 428.5,-164 526.5,-164 526.5,-147 428.5,-147"/>
<text text-anchor="middle" x="477.5" y="-153.6" font-family="SourceSans" font-size="8.00">svg::radial_text_ccw</text>
</a>
</g>
</g>
<!-- Node3&#45;&gt;Node7 -->
<g id="edge6" class="edge">
<title>Node3&#45;&gt;Node7</title>
<path fill="none" stroke="midnightblue" d="M368.68,-155.5C384.04,-155.5 401.68,-155.5 418.19,-155.5"/>
<polygon fill="midnightblue" stroke="midnightblue" points="418.29,-159 428.29,-155.5 418.29,-152 418.29,-159"/>
</g>
<!-- Node23 -->
<g id="node23" class="node">
<title>Node23</title>
<g id="a_node23"><a xlink:href="namespacesvg.html#a27b1041d0851178e4835e1f623a46161" target="_top" xlink:title="Text with typography, arranged cw around points (x,y) on a circle.">
<polygon fill="white" stroke="black" points="430.5,-183 430.5,-200 524.5,-200 524.5,-183 430.5,-183"/>
<text text-anchor="middle" x="477.5" y="-189.6" font-family="SourceSans" font-size="8.00">svg::radial_text_cw</text>
</a>
</g>
</g>
<!-- Node3&#45;&gt;Node23 -->
<g id="edge27" class="edge">
<title>Node3&#45;&gt;Node23</title>
<path fill="none" stroke="midnightblue" d="M362.05,-164.03C382.71,-168.99 408.95,-175.29 431.1,-180.6"/>
<polygon fill="midnightblue" stroke="midnightblue" points="430.41,-184.04 440.95,-182.97 432.04,-177.23 430.41,-184.04"/>
</g>
<!-- Node24 -->
<g id="node24" class="node">
<title>Node24</title>
<g id="a_node24"><a xlink:href="namespacesvg.html#a010fea242a289d173d521b501140cd72" target="_top" xlink:title="Zero degrees is top, going clockwise (cw).">
<polygon fill="white" stroke="black" points="414,-111 414,-128 541,-128 541,-111 414,-111"/>
<text text-anchor="middle" x="477.5" y="-117.6" font-family="SourceSans" font-size="8.00">svg::zero_angle_north_ccw</text>
</a>
</g>
</g>
<!-- Node3&#45;&gt;Node24 -->
<g id="edge29" class="edge">
<title>Node3&#45;&gt;Node24</title>
<path fill="none" stroke="midnightblue" d="M362.05,-146.97C382.71,-142.01 408.95,-135.71 431.1,-130.4"/>
<polygon fill="midnightblue" stroke="midnightblue" points="432.04,-133.77 440.95,-128.03 430.41,-126.96 432.04,-133.77"/>
</g>
<!-- Node25 -->
<g id="node25" class="node">
<title>Node25</title>
<g id="a_node25"><a xlink:href="namespacesvg.html#a46164d75fd5109e4ed8879abbacd5c11" target="_top" xlink:title="Zero degrees is top, going clockwise (cw).">
<polygon fill="white" stroke="black" points="416.5,-75 416.5,-92 538.5,-92 538.5,-75 416.5,-75"/>
<text text-anchor="middle" x="477.5" y="-81.6" font-family="SourceSans" font-size="8.00">svg::zero_angle_north_cw</text>
</a>
</g>
</g>
<!-- Node3&#45;&gt;Node25 -->
<g id="edge30" class="edge">
<title>Node3&#45;&gt;Node25</title>
<path fill="none" stroke="midnightblue" d="M338.1,-146.9C354.34,-135.21 385.11,-114.29 414,-101.5 419.36,-99.13 425.11,-96.98 430.88,-95.06"/>
<polygon fill="midnightblue" stroke="midnightblue" points="432.03,-98.37 440.54,-92.04 429.95,-91.68 432.03,-98.37"/>
</g>
<!-- Node5 -->
<g id="node5" class="node">
<title>Node5</title>
<g id="a_node5"><a xlink:href="namespacesvg.html#aef05ac63d88a6102981d3faf37275297" target="_top" xlink:title="Angle in radians.">
<polygon fill="white" stroke="black" points="577,-210.5 577,-236.5 690,-236.5 690,-210.5 577,-210.5"/>
<text text-anchor="start" x="585" y="-226.1" font-family="SourceSans" font-size="8.00">svg::get_circumference</text>
<text text-anchor="middle" x="633.5" y="-217.1" font-family="SourceSans" font-size="8.00">_point_r</text>
</a>
</g>
</g>
<!-- Node4&#45;&gt;Node5 -->
<g id="edge4" class="edge">
<title>Node4&#45;&gt;Node5</title>
<path fill="none" stroke="midnightblue" d="M534.1,-229.25C544.67,-228.63 555.84,-227.98 566.7,-227.35"/>
<polygon fill="midnightblue" stroke="midnightblue" points="567.21,-230.82 576.98,-226.74 566.8,-223.83 567.21,-230.82"/>
</g>
<!-- Node6 -->
<g id="node6" class="node">
<title>Node6</title>
<g id="a_node6"><a xlink:href="namespacesvg_1_1constants.html#a0e0b0d9314bc47324ee39884bf8bb2fd" target="_top" xlink:title=" ">
<polygon fill="white" stroke="black" points="588,-256 588,-273 679,-273 679,-256 588,-256"/>
<text text-anchor="middle" x="633.5" y="-262.6" font-family="SourceSans" font-size="8.00">svg::constants::pi</text>
</a>
</g>
</g>
<!-- Node4&#45;&gt;Node6 -->
<g id="edge5" class="edge">
<title>Node4&#45;&gt;Node6</title>
<path fill="none" stroke="midnightblue" d="M534.1,-244.05C549.5,-247.25 566.14,-250.71 581.28,-253.86"/>
<polygon fill="midnightblue" stroke="midnightblue" points="580.98,-257.37 591.48,-255.98 582.4,-250.52 580.98,-257.37"/>
</g>
<!-- Node8 -->
<g id="node8" class="node">
<title>Node8</title>
<g id="a_node8"><a xlink:href="namespacesvg.html#a5791c1fc9121f01e5f666b7ce0367dfa" target="_top" xlink:title="Text at @origin, with style and ... a transformation=rotation of @deg about @rorigin.">
<polygon fill="white" stroke="black" points="590,-165 590,-182 677,-182 677,-165 590,-165"/>
<text text-anchor="middle" x="633.5" y="-171.6" font-family="SourceSans" font-size="8.00">svg::styled_text_r</text>
</a>
</g>
</g>
<!-- Node7&#45;&gt;Node8 -->
<g id="edge7" class="edge">
<title>Node7&#45;&gt;Node8</title>
<path fill="none" stroke="midnightblue" d="M526.8,-161.15C543.53,-163.1 562.37,-165.3 579.46,-167.3"/>
<polygon fill="midnightblue" stroke="midnightblue" points="579.5,-170.83 589.84,-168.51 580.31,-163.88 579.5,-170.83"/>
</g>
<!-- Node9 -->
<g id="node9" class="node">
<title>Node9</title>
<g id="a_node9"><a xlink:href="structsvg_1_1text__element.html#aad29e1daf75bdcd69a39575a6807fa0f" target="_top" xlink:title="Either serialize immediately (as below), or create data structure that adds data to data_vec and then...">
<polygon fill="white" stroke="black" points="733.5,-250.5 733.5,-276.5 828.5,-276.5 828.5,-250.5 733.5,-250.5"/>
<text text-anchor="start" x="741.5" y="-266.1" font-family="SourceSans" font-size="8.00">svg::text_element::</text>
<text text-anchor="middle" x="781" y="-257.1" font-family="SourceSans" font-size="8.00">add_data</text>
</a>
</g>
</g>
<!-- Node8&#45;&gt;Node9 -->
<g id="edge8" class="edge">
<title>Node8&#45;&gt;Node9</title>
<path fill="none" stroke="midnightblue" d="M656.96,-182.07C667.53,-186.67 679.98,-192.96 690,-200.5 709.11,-214.89 706.54,-226.6 726,-240.5 728.65,-242.4 731.49,-244.18 734.41,-245.84"/>
<polygon fill="midnightblue" stroke="midnightblue" points="732.9,-249 743.39,-250.49 736.12,-242.78 732.9,-249"/>
</g>
<!-- Node19 -->
<g id="node19" class="node">
<title>Node19</title>
<g id="a_node19"><a xlink:href="structsvg_1_1svg__element.html#adb6116b96467cc39cb178deb10c7a869" target="_top" xlink:title=" ">
<polygon fill="white" stroke="black" points="726,-205.5 726,-231.5 836,-231.5 836,-205.5 726,-205.5"/>
<text text-anchor="start" x="734" y="-221.1" font-family="SourceSans" font-size="8.00">svg::svg_element::add</text>
<text text-anchor="middle" x="781" y="-212.1" font-family="SourceSans" font-size="8.00">_element</text>
</a>
</g>
</g>
<!-- Node8&#45;&gt;Node19 -->
<g id="edge23" class="edge">
<title>Node8&#45;&gt;Node19</title>
<path fill="none" stroke="midnightblue" d="M662.21,-182.07C680.81,-187.82 705.89,-195.58 728.13,-202.46"/>
<polygon fill="midnightblue" stroke="midnightblue" points="727.2,-205.83 737.78,-205.44 729.26,-199.14 727.2,-205.83"/>
</g>
<!-- Node20 -->
<g id="node20" class="node">
<title>Node20</title>
<g id="a_node20"><a xlink:href="group__elements.html#ga13c46848317034d16c62a7d2061ba3d6" target="_top" xlink:title=" ">
<polygon fill="white" stroke="black" points="733.5,-160.5 733.5,-186.5 828.5,-186.5 828.5,-160.5 733.5,-160.5"/>
<text text-anchor="start" x="741.5" y="-176.1" font-family="SourceSans" font-size="8.00">svg::text_element::</text>
<text text-anchor="middle" x="781" y="-167.1" font-family="SourceSans" font-size="8.00">finish_element</text>
</a>
</g>
</g>
<!-- Node8&#45;&gt;Node20 -->
<g id="edge24" class="edge">
<title>Node8&#45;&gt;Node20</title>
<path fill="none" stroke="midnightblue" d="M677.37,-173.5C691.67,-173.5 707.84,-173.5 723.04,-173.5"/>
<polygon fill="midnightblue" stroke="midnightblue" points="723.38,-177 733.38,-173.5 723.38,-170 723.38,-177"/>
</g>
<!-- Node21 -->
<g id="node21" class="node">
<title>Node21</title>
<g id="a_node21"><a xlink:href="structsvg_1_1transform.html#acf9836f4ba647f0dd2b53963a0f714d0" target="_top" xlink:title=" ">
<polygon fill="white" stroke="black" points="727.5,-124 727.5,-141 834.5,-141 834.5,-124 727.5,-124"/>
<text text-anchor="middle" x="781" y="-130.6" font-family="SourceSans" font-size="8.00">svg::transform::rotate</text>
</a>
</g>
</g>
<!-- Node8&#45;&gt;Node21 -->
<g id="edge25" class="edge">
<title>Node8&#45;&gt;Node21</title>
<path fill="none" stroke="midnightblue" d="M665,-164.91C686.73,-158.78 716.15,-150.49 739.8,-143.83"/>
<polygon fill="midnightblue" stroke="midnightblue" points="740.86,-147.16 749.54,-141.08 738.96,-140.43 740.86,-147.16"/>
</g>
<!-- Node22 -->
<g id="node22" class="node">
<title>Node22</title>
<g id="a_node22"><a xlink:href="structsvg_1_1text__element.html#ae45bec611a6ec17ea46aab6d680ae042" target="_top" xlink:title=" ">
<polygon fill="white" stroke="black" points="733.5,-78.5 733.5,-104.5 828.5,-104.5 828.5,-78.5 733.5,-78.5"/>
<text text-anchor="start" x="741.5" y="-94.1" font-family="SourceSans" font-size="8.00">svg::text_element::</text>
<text text-anchor="middle" x="781" y="-85.1" font-family="SourceSans" font-size="8.00">start_element</text>
</a>
</g>
</g>
<!-- Node8&#45;&gt;Node22 -->
<g id="edge26" class="edge">
<title>Node8&#45;&gt;Node22</title>
<path fill="none" stroke="midnightblue" d="M646.53,-164.8C663.65,-152.63 696.28,-130.27 726,-114.5 729.7,-112.54 733.6,-110.62 737.54,-108.77"/>
<polygon fill="midnightblue" stroke="midnightblue" points="739.07,-111.92 746.74,-104.61 736.19,-105.54 739.07,-111.92"/>
</g>
<!-- Node10 -->
<g id="node10" class="node">
<title>Node10</title>
<g id="a_node10"><a xlink:href="structsvg_1_1typography.html#adbc62f74f1fed3f7c77567250f084f83" target="_top" xlink:title=" ">
<polygon fill="white" stroke="black" points="872,-271.5 872,-297.5 977,-297.5 977,-271.5 872,-271.5"/>
<text text-anchor="start" x="880" y="-287.1" font-family="SourceSans" font-size="8.00">svg::typography::add</text>
<text text-anchor="middle" x="924.5" y="-278.1" font-family="SourceSans" font-size="8.00">_attribute</text>
</a>
</g>
</g>
<!-- Node9&#45;&gt;Node10 -->
<g id="edge9" class="edge">
<title>Node9&#45;&gt;Node10</title>
<path fill="none" stroke="midnightblue" d="M828.72,-270.43C839.33,-272.01 850.74,-273.7 861.86,-275.35"/>
<polygon fill="midnightblue" stroke="midnightblue" points="861.54,-278.84 871.94,-276.85 862.57,-271.92 861.54,-278.84"/>
</g>
<!-- Node13 -->
<g id="node13" class="node">
<title>Node13</title>
<g id="a_node13"><a xlink:href="namespacesvg.html#a48ac748e89e22789d1772326a98dd7b6" target="_top" xlink:title=" ">
<polygon fill="white" stroke="black" points="1016,-194 1016,-211 1111,-211 1111,-194 1016,-194"/>
<text text-anchor="middle" x="1063.5" y="-200.6" font-family="SourceSans" font-size="8.00">svg::string_replace</text>
</a>
</g>
</g>
<!-- Node9&#45;&gt;Node13 -->
<g id="edge21" class="edge">
<title>Node9&#45;&gt;Node13</title>
<path fill="none" stroke="midnightblue" d="M828.6,-254.47C868.17,-246.67 926.43,-234.89 977,-223.5 990.66,-220.42 1005.5,-216.86 1018.92,-213.55"/>
<polygon fill="midnightblue" stroke="midnightblue" points="1020,-216.88 1028.87,-211.08 1018.32,-210.09 1020,-216.88"/>
</g>
<!-- Node17 -->
<g id="node17" class="node">
<title>Node17</title>
<g id="a_node17"><a xlink:href="structsvg_1_1element__base.html#a53d72a7ff728ad1d4d027254530bcf3d" target="_top" xlink:title="Common transforms include rotate(180)">
<polygon fill="white" stroke="black" points="1013,-388.5 1013,-414.5 1114,-414.5 1114,-388.5 1013,-388.5"/>
<text text-anchor="start" x="1021" y="-404.1" font-family="SourceSans" font-size="8.00">svg::element_base::</text>
<text text-anchor="middle" x="1063.5" y="-395.1" font-family="SourceSans" font-size="8.00">add_transform</text>
</a>
</g>
</g>
<!-- Node9&#45;&gt;Node17 -->
<g id="edge18" class="edge">
<title>Node9&#45;&gt;Node17</title>
<path fill="none" stroke="midnightblue" d="M808.64,-276.61C859.42,-301.59 970.07,-356.03 1027.04,-384.05"/>
<polygon fill="midnightblue" stroke="midnightblue" points="1025.52,-387.21 1036.04,-388.48 1028.61,-380.93 1025.52,-387.21"/>
</g>
<!-- Node18 -->
<g id="node18" class="node">
<title>Node18</title>
<g id="a_node18"><a xlink:href="namespacesvg.html#a36b1c48ad4601b205790e3772ad0a7b6" target="_top" xlink:title=" ">
<polygon fill="white" stroke="black" points="888.5,-197 888.5,-214 960.5,-214 960.5,-197 888.5,-197"/>
<text text-anchor="middle" x="924.5" y="-203.6" font-family="SourceSans" font-size="8.00">svg::to_string</text>
</a>
</g>
</g>
<!-- Node9&#45;&gt;Node18 -->
<g id="edge22" class="edge">
<title>Node9&#45;&gt;Node18</title>
<path fill="none" stroke="midnightblue" d="M813.76,-250.48C837.43,-240.78 869.57,-227.61 892.94,-218.03"/>
<polygon fill="midnightblue" stroke="midnightblue" points="894.45,-221.19 902.38,-214.16 891.8,-214.71 894.45,-221.19"/>
</g>
<!-- Node11 -->
<g id="node11" class="node">
<title>Node11</title>
<g id="a_node11"><a xlink:href="namespacesvg_1_1constants.html#a3972655f1dfdc090ec2592d1fb37e87c" target="_top" xlink:title=" ">
<polygon fill="white" stroke="black" points="1150.5,-313 1150.5,-330 1257.5,-330 1257.5,-313 1150.5,-313"/>
<text text-anchor="middle" x="1204" y="-319.6" font-family="SourceSans" font-size="8.00">svg::constants::quote</text>
</a>
</g>
</g>
<!-- Node10&#45;&gt;Node11 -->
<g id="edge10" class="edge">
<title>Node10&#45;&gt;Node11</title>
<path fill="none" stroke="midnightblue" d="M977.16,-296.05C988.9,-298.42 1001.35,-300.72 1013,-302.5 1055.24,-308.94 1103.1,-313.71 1140.23,-316.86"/>
<polygon fill="midnightblue" stroke="midnightblue" points="1140.14,-320.37 1150.4,-317.71 1140.72,-313.39 1140.14,-320.37"/>
</g>
<!-- Node12 -->
<g id="node12" class="node">
<title>Node12</title>
<g id="a_node12"><a xlink:href="namespacesvg_1_1constants.html#ac460bc8db60d85c3ae1cf8b1a903405e" target="_top" xlink:title="Formatting character constants.">
<polygon fill="white" stroke="black" points="1150,-351 1150,-368 1258,-368 1258,-351 1150,-351"/>
<text text-anchor="middle" x="1204" y="-357.6" font-family="SourceSans" font-size="8.00">svg::constants::space</text>
</a>
</g>
</g>
<!-- Node10&#45;&gt;Node12 -->
<g id="edge11" class="edge">
<title>Node10&#45;&gt;Node12</title>
<path fill="none" stroke="midnightblue" d="M952.55,-297.62C969.58,-305.46 992.19,-315.09 1013,-321.5 1054.44,-334.26 1102.31,-343.8 1139.63,-350.13"/>
<polygon fill="midnightblue" stroke="midnightblue" points="1139.43,-353.65 1149.87,-351.84 1140.57,-346.74 1139.43,-353.65"/>
</g>
<!-- Node10&#45;&gt;Node13 -->
<g id="edge12" class="edge">
<title>Node10&#45;&gt;Node13</title>
<path fill="none" stroke="midnightblue" d="M953.12,-271.36C961.12,-267.07 969.66,-261.98 977,-256.5 995.13,-242.96 993.91,-232.65 1013,-220.5 1016.16,-218.49 1019.57,-216.66 1023.07,-215.01"/>
<polygon fill="midnightblue" stroke="midnightblue" points="1024.6,-218.16 1032.45,-211.05 1021.88,-211.72 1024.6,-218.16"/>
</g>
<!-- Node14 -->
<g id="node14" class="node">
<title>Node14</title>
<g id="a_node14"><a xlink:href="structsvg_1_1typography.html#a174c1ffb4e56214d71523ffe7e422561" target="_top" xlink:title=" ">
<polygon fill="white" stroke="black" points="1014.5,-230.5 1014.5,-256.5 1112.5,-256.5 1112.5,-230.5 1014.5,-230.5"/>
<text text-anchor="start" x="1022.5" y="-246.1" font-family="SourceSans" font-size="8.00">svg::typography::to</text>
<text text-anchor="middle" x="1063.5" y="-237.1" font-family="SourceSans" font-size="8.00">_string</text>
</a>
</g>
</g>
<!-- Node10&#45;&gt;Node14 -->
<g id="edge13" class="edge">
<title>Node10&#45;&gt;Node14</title>
<path fill="none" stroke="midnightblue" d="M969.22,-271.41C981.83,-267.64 995.73,-263.48 1008.86,-259.55"/>
<polygon fill="midnightblue" stroke="midnightblue" points="1010.14,-262.82 1018.72,-256.6 1008.14,-256.12 1010.14,-262.82"/>
</g>
<!-- Node15 -->
<g id="node15" class="node">
<title>Node15</title>
<g id="a_node15"><a xlink:href="namespacesvg.html#a7363f3de9a003a4399e7ede9036299d4" target="_top" xlink:title=" ">
<polygon fill="white" stroke="black" points="1027.5,-276 1027.5,-293 1099.5,-293 1099.5,-276 1027.5,-276"/>
<text text-anchor="middle" x="1063.5" y="-282.6" font-family="SourceSans" font-size="8.00">svg::to_string</text>
</a>
</g>
</g>
<!-- Node10&#45;&gt;Node15 -->
<g id="edge14" class="edge">
<title>Node10&#45;&gt;Node15</title>
<path fill="none" stroke="midnightblue" d="M977.29,-284.5C990.32,-284.5 1004.2,-284.5 1016.89,-284.5"/>
<polygon fill="midnightblue" stroke="midnightblue" points="1017.24,-288 1027.24,-284.5 1017.24,-281 1017.24,-288"/>
</g>
<!-- Node15&#45;&gt;Node11 -->
<g id="edge15" class="edge">
<title>Node15&#45;&gt;Node11</title>
<path fill="none" stroke="midnightblue" d="M1096.62,-293.08C1115.85,-298.22 1140.5,-304.8 1161.23,-310.34"/>
<polygon fill="midnightblue" stroke="midnightblue" points="1160.49,-313.77 1171.05,-312.96 1162.29,-307 1160.49,-313.77"/>
</g>
<!-- Node15&#45;&gt;Node12 -->
<g id="edge16" class="edge">
<title>Node15&#45;&gt;Node12</title>
<path fill="none" stroke="midnightblue" d="M1076.2,-293.17C1092.25,-304.78 1122.25,-325.54 1150,-339.5 1155.52,-342.28 1161.51,-344.89 1167.42,-347.26"/>
<polygon fill="midnightblue" stroke="midnightblue" points="1166.6,-350.69 1177.19,-351 1169.1,-344.16 1166.6,-350.69"/>
</g>
<!-- Node16 -->
<g id="node16" class="node">
<title>Node16</title>
<g id="a_node16"><a xlink:href="structsvg_1_1colorq.html#adb55a2a48193fafa55340505862278e4" target="_top" xlink:title=" ">
<polygon fill="white" stroke="black" points="1152,-276 1152,-293 1256,-293 1256,-276 1152,-276"/>
<text text-anchor="middle" x="1204" y="-282.6" font-family="SourceSans" font-size="8.00">svg::colorq::to_string</text>
</a>
</g>
</g>
<!-- Node15&#45;&gt;Node16 -->
<g id="edge17" class="edge">
<title>Node15&#45;&gt;Node16</title>
<path fill="none" stroke="midnightblue" d="M1099.81,-284.5C1112.51,-284.5 1127.24,-284.5 1141.53,-284.5"/>
<polygon fill="midnightblue" stroke="midnightblue" points="1141.81,-288 1151.81,-284.5 1141.81,-281 1141.81,-288"/>
</g>
<!-- Node17&#45;&gt;Node11 -->
<g id="edge19" class="edge">
<title>Node17&#45;&gt;Node11</title>
<path fill="none" stroke="midnightblue" d="M1080.42,-388.48C1097.03,-375.36 1124.19,-355.15 1150,-341.5 1155.35,-338.67 1161.18,-336.05 1166.97,-333.7"/>
<polygon fill="midnightblue" stroke="midnightblue" points="1168.48,-336.86 1176.55,-330 1165.96,-330.33 1168.48,-336.86"/>
</g>
<!-- Node17&#45;&gt;Node12 -->
<g id="edge20" class="edge">
<title>Node17&#45;&gt;Node12</title>
<path fill="none" stroke="midnightblue" d="M1107.56,-388.44C1125.88,-382.89 1147.07,-376.46 1164.82,-371.08"/>
<polygon fill="midnightblue" stroke="midnightblue" points="1166.28,-374.29 1174.83,-368.04 1164.25,-367.59 1166.28,-374.29"/>
</g>
<!-- Node23&#45;&gt;Node8 -->
<g id="edge28" class="edge">
<title>Node23&#45;&gt;Node8</title>
<path fill="none" stroke="midnightblue" d="M524.71,-186.1C542.04,-184.07 561.87,-181.76 579.76,-179.66"/>
<polygon fill="midnightblue" stroke="midnightblue" points="580.22,-183.13 589.75,-178.5 579.41,-176.18 580.22,-183.13"/>
</g>
<!-- Node27 -->
<g id="node27" class="node">
<title>Node27</title>
<g id="a_node27"><a xlink:href="namespacesvg.html#a694806659ebf061e616b8a0b49a53f40" target="_top" xlink:title=" ">
<polygon fill="white" stroke="black" points="273,-49 273,-66 378,-66 378,-49 273,-49"/>
<text text-anchor="middle" x="325.5" y="-55.6" font-family="SourceSans" font-size="8.00">svg::get_radial_range</text>
</a>
</g>
</g>
<!-- Node26&#45;&gt;Node27 -->
<g id="edge32" class="edge">
<title>Node26&#45;&gt;Node27</title>
<path fill="none" stroke="midnightblue" d="M220.92,-81.92C238.5,-77.77 259.78,-72.75 278.47,-68.35"/>
<polygon fill="midnightblue" stroke="midnightblue" points="279.33,-71.74 288.26,-66.04 277.73,-64.93 279.33,-71.74"/>
</g>
<!-- Node28 -->
<g id="node28" class="node">
<title>Node28</title>
<g id="a_node28"><a xlink:href="namespacesvg.html#a673cb54838801fae8471436ce43298a9" target="_top" xlink:title="Scale value from min to max on range (nfloor, nceil).">
<polygon fill="white" stroke="black" points="273.5,-85.5 273.5,-111.5 377.5,-111.5 377.5,-85.5 273.5,-85.5"/>
<text text-anchor="start" x="281.5" y="-101.1" font-family="SourceSans" font-size="8.00">svg::normalize_value</text>
<text text-anchor="middle" x="325.5" y="-92.1" font-family="SourceSans" font-size="8.00">_on_range</text>
</a>
</g>
</g>
<!-- Node26&#45;&gt;Node28 -->
<g id="edge33" class="edge">
<title>Node26&#45;&gt;Node28</title>
<path fill="none" stroke="midnightblue" d="M222.02,-92.64C234.73,-93.37 249.27,-94.2 263.33,-95"/>
<polygon fill="midnightblue" stroke="midnightblue" points="263.27,-98.51 273.45,-95.58 263.67,-91.52 263.27,-98.51"/>
</g>
</g>
</svg>
        <g id="navigator" transform="translate(0 0)" fill="#404254">
                <rect fill="#f2f5e9" fill-opacity="0.5" stroke="#606060" stroke-width=".5" x="0" y="0" width="60" height="60"/>
                <use id="zoomplus" xlink:href="#zoomPlus" x="17" y="9" onmousedown="handleZoom(evt,'in')"/>
                <use id="zoomminus" xlink:href="#zoomMin" x="42" y="9" onmousedown="handleZoom(evt,'out')"/>
                <use id="reset" xlink:href="#resetDef" x="30" y="36" onmousedown="handleReset()"/>
                <g id="arrowUp" xlink:href="#dirArrow" transform="translate(30 24)" onmousedown="handlePan(0,-1)">
                  <use xlink:href="#rim" fill="#404040">
                        <set attributeName="fill" to="#808080" begin="arrowUp.mouseover" end="arrowUp.mouseout"/>
                  </use>
                  <path fill="none" stroke="white" stroke-width="1.5" d="M0,-3.0v7 M-2.5,-0.5L0,-3.0L2.5,-0.5"/>
                </g>
                <g id="arrowRight" xlink:href="#dirArrow" transform="rotate(90) translate(36 -43)" onmousedown="handlePan(1,0)">
                  <use xlink:href="#rim" fill="#404040">
                        <set attributeName="fill" to="#808080" begin="arrowRight.mouseover" end="arrowRight.mouseout"/>
                  </use>
                  <path fill="none" stroke="white" stroke-width="1.5" d="M0,-3.0v7 M-2.5,-0.5L0,-3.0L2.5,-0.5"/>
                </g>
                <g id="arrowDown" xlink:href="#dirArrow" transform="rotate(180) translate(-30 -48)" onmousedown="handlePan(0,1)">
                  <use xlink:href="#rim" fill="#404040">
                        <set attributeName="fill" to="#808080" begin="arrowDown.mouseover" end="arrowDown.mouseout"/>
                  </use>
                  <path fill="none" stroke="white" stroke-width="1.5" d="M0,-3.0v7 M-2.5,-0.5L0,-3.0L2.5,-0.5"/>
                </g>
                <g id="arrowLeft" xlink:href="#dirArrow" transform="rotate(270) translate(-36 17)" onmousedown="handlePan(-1,0)">
                  <use xlink:href="#rim" fill="#404040">
                        <set attributeName="fill" to="#808080" begin="arrowLeft.mouseover" end="arrowLeft.mouseout"/>
                  </use>
                  <path fill="none" stroke="white" stroke-width="1.5" d="M0,-3.0v7 M-2.5,-0.5L0,-3.0L2.5,-0.5"/>
                </g>
        </g>
        <svg viewBox="0 0 15 15" width="100%" height="30px" preserveAspectRatio="xMaxYMin meet">
         <g id="arrow_out" transform="scale(0.3 0.3)">
          <a xlink:href="namespacesvg_a2e50914f33c79a719001b3ff9f43ae6a_cgraph_org.svg" target="_base">
           <rect id="button" ry="5" rx="5" y="6" x="6" height="38" width="38"
                fill="#f2f5e9" fill-opacity="0.5" stroke="#606060" stroke-width="1.0"/>
           <path id="arrow"
             d="M 11.500037,31.436501 C 11.940474,20.09759 22.043105,11.32322 32.158766,21.979434 L 37.068811,17.246167 C 37.068811,17.246167 37.088388,32 37.088388,32 L 22.160133,31.978069 C 22.160133,31.978069 26.997745,27.140456 26.997745,27.140456 C 18.528582,18.264221 13.291696,25.230495 11.500037,31.436501 z"
             style="fill:#404040;"/>
          </a>
         </g>
        </svg>
</svg>
