<?xml version="1.0" encoding="UTF-8" standalone="no"?>
<!DOCTYPE svg PUBLIC "-//W3C//DTD SVG 1.1//EN"
 "http://www.w3.org/Graphics/SVG/1.1/DTD/svg11.dtd">
<!-- Generated by graphviz version 2.44.0 (0)
 -->
<!-- Title: svg::radiate_glyph_and_id Pages: 1 -->
<svg width="1155pt" height="658pt"
 viewBox="0.00 0.00 1155.00 657.62" xmlns="http://www.w3.org/2000/svg" xmlns:xlink="http://www.w3.org/1999/xlink">
<g id="graph0" class="graph" transform="scale(1 1) rotate(0) translate(4 653.62)">
<title>svg::radiate_glyph_and_id</title>
<polygon fill="white" stroke="transparent" points="-4,4 -4,-653.62 1151,-653.62 1151,4 -4,4"/>
<!-- Node1 -->
<g id="node1" class="node">
<title>Node1</title>
<g id="a_node1"><a xlink:title=" ">
<polygon fill="#bfbfbf" stroke="black" points="0,-435.5 0,-461.5 92,-461.5 92,-435.5 0,-435.5"/>
<text text-anchor="start" x="8" y="-451.1" font-family="SourceSans" font-size="8.00">svg::radiate_glyph</text>
<text text-anchor="middle" x="46" y="-442.1" font-family="SourceSans" font-size="8.00">_and_id</text>
</a>
</g>
</g>
<!-- Node2 -->
<g id="node2" class="node">
<title>Node2</title>
<g id="a_node2"><a xlink:href="namespacesvg.html#aa2776d975cfdb951b8dd6a8fac3d826b" target="_top" xlink:title="Approximate pixel height of type of point size @sz.">
<polygon fill="white" stroke="black" points="128,-540 128,-557 235,-557 235,-540 128,-540"/>
<text text-anchor="middle" x="181.5" y="-546.6" font-family="SourceSans" font-size="8.00">svg::char_width_to_px</text>
</a>
</g>
</g>
<!-- Node1&#45;&gt;Node2 -->
<g id="edge1" class="edge">
<title>Node1&#45;&gt;Node2</title>
<path fill="none" stroke="midnightblue" d="M56.81,-461.72C70.77,-479.67 98.01,-511.66 128,-530.5 131.35,-532.6 134.97,-534.49 138.69,-536.19"/>
<polygon fill="midnightblue" stroke="midnightblue" points="137.47,-539.47 148.05,-539.99 140.11,-532.98 137.47,-539.47"/>
</g>
<!-- Node3 -->
<g id="node3" class="node">
<title>Node3</title>
<g id="a_node3"><a xlink:href="namespacesvg.html#a929b5c33bc0c139332dddd5d3b8ea3d0" target="_top" xlink:title="Transform a value on a range to an angle on the radial range.">
<polygon fill="white" stroke="black" points="143,-504 143,-521 220,-521 220,-504 143,-504"/>
<text text-anchor="middle" x="181.5" y="-510.6" font-family="SourceSans" font-size="8.00">svg::get_angle</text>
</a>
</g>
</g>
<!-- Node1&#45;&gt;Node3 -->
<g id="edge2" class="edge">
<title>Node1&#45;&gt;Node3</title>
<path fill="none" stroke="midnightblue" d="M68.51,-461.69C84.56,-471.23 107.21,-484.04 128,-493.5 133.37,-495.94 139.15,-498.3 144.85,-500.47"/>
<polygon fill="midnightblue" stroke="midnightblue" points="143.67,-503.77 154.27,-503.93 146.09,-497.2 143.67,-503.77"/>
</g>
<!-- Node6 -->
<g id="node6" class="node">
<title>Node6</title>
<g id="a_node6"><a xlink:href="namespacesvg.html#a806415593163e75c9587c2a987dd5112" target="_top" xlink:title="Given identifier/name/id, get corresponding id_render_state from cache.">
<polygon fill="white" stroke="black" points="135.5,-457.5 135.5,-483.5 227.5,-483.5 227.5,-457.5 135.5,-457.5"/>
<text text-anchor="start" x="143.5" y="-473.1" font-family="SourceSans" font-size="8.00">svg::get_id_render</text>
<text text-anchor="middle" x="181.5" y="-464.1" font-family="SourceSans" font-size="8.00">_state</text>
</a>
</g>
</g>
<!-- Node1&#45;&gt;Node6 -->
<g id="edge5" class="edge">
<title>Node1&#45;&gt;Node6</title>
<path fill="none" stroke="midnightblue" d="M92.2,-455.95C102.85,-457.7 114.33,-459.6 125.37,-461.41"/>
<polygon fill="midnightblue" stroke="midnightblue" points="124.91,-464.89 135.35,-463.06 126.05,-457.98 124.91,-464.89"/>
</g>
<!-- Node8 -->
<g id="node8" class="node">
<title>Node8</title>
<g id="a_node8"><a xlink:href="structsvg_1_1render__state__base.html#a7c3f23003c7324627764c9547568d42f" target="_top" xlink:title=" ">
<polygon fill="white" stroke="black" points="277,-414.5 277,-440.5 390,-440.5 390,-414.5 277,-414.5"/>
<text text-anchor="start" x="285" y="-430.1" font-family="SourceSans" font-size="8.00">svg::render_state_base</text>
<text text-anchor="middle" x="333.5" y="-421.1" font-family="SourceSans" font-size="8.00">::is_visible</text>
</a>
</g>
</g>
<!-- Node1&#45;&gt;Node8 -->
<g id="edge7" class="edge">
<title>Node1&#45;&gt;Node8</title>
<path fill="none" stroke="midnightblue" d="M92.24,-445.17C139.28,-441.71 213.4,-436.26 266.88,-432.33"/>
<polygon fill="midnightblue" stroke="midnightblue" points="267.23,-435.81 276.95,-431.59 266.72,-428.83 267.23,-435.81"/>
</g>
<!-- Node9 -->
<g id="node9" class="node">
<title>Node9</title>
<g id="a_node9"><a xlink:href="namespacesvg.html#a06b88691cd28e6fb0c8e79ca44b34423" target="_top" xlink:title=" ">
<polygon fill="white" stroke="black" points="138.5,-168 138.5,-185 224.5,-185 224.5,-168 138.5,-168"/>
<text text-anchor="middle" x="181.5" y="-174.6" font-family="SourceSans" font-size="8.00">svg::radial_text_r</text>
</a>
</g>
</g>
<!-- Node1&#45;&gt;Node9 -->
<g id="edge8" class="edge">
<title>Node1&#45;&gt;Node9</title>
<path fill="none" stroke="midnightblue" d="M53.44,-435.38C75.32,-390.8 146.82,-245.12 171.8,-194.23"/>
<polygon fill="midnightblue" stroke="midnightblue" points="175,-195.65 176.26,-185.13 168.72,-192.56 175,-195.65"/>
</g>
<!-- Node33 -->
<g id="node33" class="node">
<title>Node33</title>
<g id="a_node33"><a xlink:href="namespacesvg.html#a6cbc319a171a74fdf91e5d4eb55a6f36" target="_top" xlink:title=" ">
<polygon fill="white" stroke="black" points="135.5,-339 135.5,-356 227.5,-356 227.5,-339 135.5,-339"/>
<text text-anchor="middle" x="181.5" y="-345.6" font-family="SourceSans" font-size="8.00">svg::radiate_glyph</text>
</a>
</g>
</g>
<!-- Node1&#45;&gt;Node33 -->
<g id="edge43" class="edge">
<title>Node1&#45;&gt;Node33</title>
<path fill="none" stroke="midnightblue" d="M64.45,-435.3C89.34,-416.46 134.9,-382 160.91,-362.32"/>
<polygon fill="midnightblue" stroke="midnightblue" points="163.07,-365.08 168.93,-356.25 158.84,-359.5 163.07,-365.08"/>
</g>
<!-- Node4 -->
<g id="node4" class="node">
<title>Node4</title>
<g id="a_node4"><a xlink:href="namespacesvg.html#a694806659ebf061e616b8a0b49a53f40" target="_top" xlink:title=" ">
<polygon fill="white" stroke="black" points="281,-505 281,-522 386,-522 386,-505 281,-505"/>
<text text-anchor="middle" x="333.5" y="-511.6" font-family="SourceSans" font-size="8.00">svg::get_radial_range</text>
</a>
</g>
</g>
<!-- Node3&#45;&gt;Node4 -->
<g id="edge3" class="edge">
<title>Node3&#45;&gt;Node4</title>
<path fill="none" stroke="midnightblue" d="M220.35,-512.75C235.52,-512.85 253.39,-512.97 270.36,-513.09"/>
<polygon fill="midnightblue" stroke="midnightblue" points="270.76,-516.59 280.78,-513.16 270.8,-509.59 270.76,-516.59"/>
</g>
<!-- Node5 -->
<g id="node5" class="node">
<title>Node5</title>
<g id="a_node5"><a xlink:href="namespacesvg.html#a673cb54838801fae8471436ce43298a9" target="_top" xlink:title="Scale value from min to max on range (nfloor, nceil).">
<polygon fill="white" stroke="black" points="281.5,-541.5 281.5,-567.5 385.5,-567.5 385.5,-541.5 281.5,-541.5"/>
<text text-anchor="start" x="289.5" y="-557.1" font-family="SourceSans" font-size="8.00">svg::normalize_value</text>
<text text-anchor="middle" x="333.5" y="-548.1" font-family="SourceSans" font-size="8.00">_on_range</text>
</a>
</g>
</g>
<!-- Node3&#45;&gt;Node5 -->
<g id="edge4" class="edge">
<title>Node3&#45;&gt;Node5</title>
<path fill="none" stroke="midnightblue" d="M213.22,-521.1C231.35,-526.18 254.87,-532.76 276.23,-538.74"/>
<polygon fill="midnightblue" stroke="midnightblue" points="275.28,-542.11 285.86,-541.44 277.17,-535.37 275.28,-542.11"/>
</g>
<!-- Node7 -->
<g id="node7" class="node">
<title>Node7</title>
<g id="a_node7"><a xlink:href="namespacesvg.html#a699e7d1232d86d72bf5612ab3677548f" target="_top" xlink:title=" ">
<polygon fill="white" stroke="black" points="287.5,-459.5 287.5,-485.5 379.5,-485.5 379.5,-459.5 287.5,-459.5"/>
<text text-anchor="start" x="295.5" y="-475.1" font-family="SourceSans" font-size="8.00">svg::get_id_render</text>
<text text-anchor="middle" x="333.5" y="-466.1" font-family="SourceSans" font-size="8.00">_state_cache</text>
</a>
</g>
</g>
<!-- Node6&#45;&gt;Node7 -->
<g id="edge6" class="edge">
<title>Node6&#45;&gt;Node7</title>
<path fill="none" stroke="midnightblue" d="M227.5,-471.1C243.01,-471.31 260.56,-471.54 276.81,-471.76"/>
<polygon fill="midnightblue" stroke="midnightblue" points="277.22,-475.26 287.27,-471.9 277.32,-468.26 277.22,-475.26"/>
</g>
<!-- Node10 -->
<g id="node10" class="node">
<title>Node10</title>
<g id="a_node10"><a xlink:href="namespacesvg.html#ab44508c4aeca591141ebec50145b75cd" target="_top" xlink:title="Angle in degrees.">
<polygon fill="white" stroke="black" points="277,-142.5 277,-168.5 390,-168.5 390,-142.5 277,-142.5"/>
<text text-anchor="start" x="285" y="-158.1" font-family="SourceSans" font-size="8.00">svg::get_circumference</text>
<text text-anchor="middle" x="333.5" y="-149.1" font-family="SourceSans" font-size="8.00">_point_d</text>
</a>
</g>
</g>
<!-- Node9&#45;&gt;Node10 -->
<g id="edge9" class="edge">
<title>Node9&#45;&gt;Node10</title>
<path fill="none" stroke="midnightblue" d="M224.68,-170.59C237.72,-168.77 252.41,-166.71 266.65,-164.72"/>
<polygon fill="midnightblue" stroke="midnightblue" points="267.49,-168.14 276.91,-163.28 266.52,-161.2 267.49,-168.14"/>
</g>
<!-- Node13 -->
<g id="node13" class="node">
<title>Node13</title>
<g id="a_node13"><a xlink:href="namespacesvg.html#a5ec86f1aa5e4c9923a7c11c2cbb89660" target="_top" xlink:title="Text with typography, arranged ccw around points (x,y) on a circle.">
<polygon fill="white" stroke="black" points="284.5,-70 284.5,-87 382.5,-87 382.5,-70 284.5,-70"/>
<text text-anchor="middle" x="333.5" y="-76.6" font-family="SourceSans" font-size="8.00">svg::radial_text_ccw</text>
</a>
</g>
</g>
<!-- Node9&#45;&gt;Node13 -->
<g id="edge12" class="edge">
<title>Node9&#45;&gt;Node13</title>
<path fill="none" stroke="midnightblue" d="M189.82,-167.64C203.86,-151.2 236.29,-115.91 271,-96.5 274.99,-94.27 279.27,-92.29 283.67,-90.55"/>
<polygon fill="midnightblue" stroke="midnightblue" points="285.13,-93.74 293.37,-87.07 282.77,-87.15 285.13,-93.74"/>
</g>
<!-- Node30 -->
<g id="node30" class="node">
<title>Node30</title>
<g id="a_node30"><a xlink:href="namespacesvg.html#a82c3b1f2d71d9212c46493e76e5dc087" target="_top" xlink:title="Text with typography, arranged cw around points (x,y) on a circle.">
<polygon fill="white" stroke="black" points="286.5,-106 286.5,-123 380.5,-123 380.5,-106 286.5,-106"/>
<text text-anchor="middle" x="333.5" y="-112.6" font-family="SourceSans" font-size="8.00">svg::radial_text_cw</text>
</a>
</g>
</g>
<!-- Node9&#45;&gt;Node30 -->
<g id="edge38" class="edge">
<title>Node9&#45;&gt;Node30</title>
<path fill="none" stroke="midnightblue" d="M197.79,-167.86C215.14,-158.3 244.48,-142.88 271,-132.5 276.91,-130.19 283.25,-128.01 289.52,-126.02"/>
<polygon fill="midnightblue" stroke="midnightblue" points="290.71,-129.32 299.26,-123.06 288.68,-122.62 290.71,-129.32"/>
</g>
<!-- Node31 -->
<g id="node31" class="node">
<title>Node31</title>
<g id="a_node31"><a xlink:href="namespacesvg.html#a010fea242a289d173d521b501140cd72" target="_top" xlink:title="Zero degrees is top, going clockwise (cw).">
<polygon fill="white" stroke="black" points="432,-225 432,-242 559,-242 559,-225 432,-225"/>
<text text-anchor="middle" x="495.5" y="-231.6" font-family="SourceSans" font-size="8.00">svg::zero_angle_north_ccw</text>
</a>
</g>
</g>
<!-- Node9&#45;&gt;Node31 -->
<g id="edge41" class="edge">
<title>Node9&#45;&gt;Node31</title>
<path fill="none" stroke="midnightblue" d="M224.58,-184.19C279.65,-194.25 376.36,-211.92 437.83,-223.15"/>
<polygon fill="midnightblue" stroke="midnightblue" points="437.29,-226.61 447.76,-224.96 438.55,-219.72 437.29,-226.61"/>
</g>
<!-- Node32 -->
<g id="node32" class="node">
<title>Node32</title>
<g id="a_node32"><a xlink:href="namespacesvg.html#a46164d75fd5109e4ed8879abbacd5c11" target="_top" xlink:title="Zero degrees is top, going clockwise (cw).">
<polygon fill="white" stroke="black" points="434.5,-263 434.5,-280 556.5,-280 556.5,-263 434.5,-263"/>
<text text-anchor="middle" x="495.5" y="-269.6" font-family="SourceSans" font-size="8.00">svg::zero_angle_north_cw</text>
</a>
</g>
</g>
<!-- Node9&#45;&gt;Node32 -->
<g id="edge42" class="edge">
<title>Node9&#45;&gt;Node32</title>
<path fill="none" stroke="midnightblue" d="M198.06,-185.12C215.41,-194.44 244.53,-209.2 271,-218.5 325.56,-237.68 390.04,-252.14 435.68,-261.07"/>
<polygon fill="midnightblue" stroke="midnightblue" points="435.22,-264.54 445.7,-263 436.54,-257.67 435.22,-264.54"/>
</g>
<!-- Node11 -->
<g id="node11" class="node">
<title>Node11</title>
<g id="a_node11"><a xlink:href="namespacesvg.html#a85a18af2008e9709e4d641ef4bda04e7" target="_top" xlink:title="Angle in radians.">
<polygon fill="white" stroke="black" points="439,-142.5 439,-168.5 552,-168.5 552,-142.5 439,-142.5"/>
<text text-anchor="start" x="447" y="-158.1" font-family="SourceSans" font-size="8.00">svg::get_circumference</text>
<text text-anchor="middle" x="495.5" y="-149.1" font-family="SourceSans" font-size="8.00">_point</text>
</a>
</g>
</g>
<!-- Node10&#45;&gt;Node11 -->
<g id="edge10" class="edge">
<title>Node10&#45;&gt;Node11</title>
<path fill="none" stroke="midnightblue" d="M390.01,-155.5C402.47,-155.5 415.82,-155.5 428.65,-155.5"/>
<polygon fill="midnightblue" stroke="midnightblue" points="428.82,-159 438.82,-155.5 428.82,-152 428.82,-159"/>
</g>
<!-- Node12 -->
<g id="node12" class="node">
<title>Node12</title>
<g id="a_node12"><a xlink:href="namespacesvg_1_1constants.html#a0e0b0d9314bc47324ee39884bf8bb2fd" target="_top" xlink:title=" ">
<polygon fill="white" stroke="black" points="450,-188 450,-205 541,-205 541,-188 450,-188"/>
<text text-anchor="middle" x="495.5" y="-194.6" font-family="SourceSans" font-size="8.00">svg::constants::pi</text>
</a>
</g>
</g>
<!-- Node10&#45;&gt;Node12 -->
<g id="edge11" class="edge">
<title>Node10&#45;&gt;Node12</title>
<path fill="none" stroke="midnightblue" d="M385.56,-168.59C406.69,-174 430.92,-180.21 451.16,-185.39"/>
<polygon fill="midnightblue" stroke="midnightblue" points="450.49,-188.84 461.05,-187.93 452.23,-182.05 450.49,-188.84"/>
</g>
<!-- Node14 -->
<g id="node14" class="node">
<title>Node14</title>
<g id="a_node14"><a xlink:href="namespacesvg.html#ab2d2020c33da2e0215837673e530b991" target="_top" xlink:title="Text at size.">
<polygon fill="white" stroke="black" points="457,-70 457,-87 534,-87 534,-70 457,-70"/>
<text text-anchor="middle" x="495.5" y="-76.6" font-family="SourceSans" font-size="8.00">svg::sized_text</text>
</a>
</g>
</g>
<!-- Node13&#45;&gt;Node14 -->
<g id="edge13" class="edge">
<title>Node13&#45;&gt;Node14</title>
<path fill="none" stroke="midnightblue" d="M382.51,-78.5C402.81,-78.5 426.4,-78.5 446.68,-78.5"/>
<polygon fill="midnightblue" stroke="midnightblue" points="446.95,-82 456.95,-78.5 446.95,-75 446.95,-82"/>
</g>
<!-- Node28 -->
<g id="node28" class="node">
<title>Node28</title>
<g id="a_node28"><a xlink:href="namespacesvg.html#a4399801aa964203bcab6e6ab2e7b4200" target="_top" xlink:title="Text at size, with a transformation=rotation.">
<polygon fill="white" stroke="black" points="453.5,-106 453.5,-123 537.5,-123 537.5,-106 453.5,-106"/>
<text text-anchor="middle" x="495.5" y="-112.6" font-family="SourceSans" font-size="8.00">svg::sized_text_r</text>
</a>
</g>
</g>
<!-- Node13&#45;&gt;Node28 -->
<g id="edge32" class="edge">
<title>Node13&#45;&gt;Node28</title>
<path fill="none" stroke="midnightblue" d="M372.42,-87.03C394.65,-92.03 422.95,-98.4 446.71,-103.75"/>
<polygon fill="midnightblue" stroke="midnightblue" points="446.05,-107.19 456.58,-105.97 447.59,-100.36 446.05,-107.19"/>
</g>
<!-- Node15 -->
<g id="node15" class="node">
<title>Node15</title>
<g id="a_node15"><a xlink:href="group__elements.html#a87be030b88c17a86a690b31e95b60612" target="_top" xlink:title="Either serialize immediately (as below), or create data structure that adds data to data_vec and then...">
<polygon fill="white" stroke="black" points="607,-0.5 607,-26.5 702,-26.5 702,-0.5 607,-0.5"/>
<text text-anchor="start" x="615" y="-16.1" font-family="SourceSans" font-size="8.00">svg::text_element::</text>
<text text-anchor="middle" x="654.5" y="-7.1" font-family="SourceSans" font-size="8.00">add_data</text>
</a>
</g>
</g>
<!-- Node14&#45;&gt;Node15 -->
<g id="edge14" class="edge">
<title>Node14&#45;&gt;Node15</title>
<path fill="none" stroke="midnightblue" d="M515.26,-69.96C534.99,-61.07 566.99,-46.87 595,-35.5 599.24,-33.78 603.68,-32.02 608.12,-30.3"/>
<polygon fill="midnightblue" stroke="midnightblue" points="609.72,-33.43 617.81,-26.59 607.22,-26.9 609.72,-33.43"/>
</g>
<!-- Node25 -->
<g id="node25" class="node">
<title>Node25</title>
<g id="a_node25"><a xlink:href="group__elements.html#adb6116b96467cc39cb178deb10c7a869" target="_top" xlink:title=" ">
<polygon fill="white" stroke="black" points="599.5,-135.5 599.5,-161.5 709.5,-161.5 709.5,-135.5 599.5,-135.5"/>
<text text-anchor="start" x="607.5" y="-151.1" font-family="SourceSans" font-size="8.00">svg::svg_element::add</text>
<text text-anchor="middle" x="654.5" y="-142.1" font-family="SourceSans" font-size="8.00">_element</text>
</a>
</g>
</g>
<!-- Node14&#45;&gt;Node25 -->
<g id="edge29" class="edge">
<title>Node14&#45;&gt;Node25</title>
<path fill="none" stroke="midnightblue" d="M534.12,-86.71C542.56,-89.26 551.28,-92.49 559,-96.5 577.23,-105.97 577.24,-115.18 595,-125.5 598.46,-127.51 602.12,-129.41 605.87,-131.2"/>
<polygon fill="midnightblue" stroke="midnightblue" points="604.7,-134.52 615.26,-135.41 607.56,-128.13 604.7,-134.52"/>
</g>
<!-- Node26 -->
<g id="node26" class="node">
<title>Node26</title>
<g id="a_node26"><a xlink:href="group__elements.html#ga13c46848317034d16c62a7d2061ba3d6" target="_top" xlink:title=" ">
<polygon fill="white" stroke="black" points="607,-90.5 607,-116.5 702,-116.5 702,-90.5 607,-90.5"/>
<text text-anchor="start" x="615" y="-106.1" font-family="SourceSans" font-size="8.00">svg::text_element::</text>
<text text-anchor="middle" x="654.5" y="-97.1" font-family="SourceSans" font-size="8.00">finish_element</text>
</a>
</g>
</g>
<!-- Node14&#45;&gt;Node26 -->
<g id="edge30" class="edge">
<title>Node14&#45;&gt;Node26</title>
<path fill="none" stroke="midnightblue" d="M534.11,-84.49C552.89,-87.48 576.02,-91.16 596.9,-94.49"/>
<polygon fill="midnightblue" stroke="midnightblue" points="596.51,-97.97 606.94,-96.09 597.61,-91.06 596.51,-97.97"/>
</g>
<!-- Node27 -->
<g id="node27" class="node">
<title>Node27</title>
<g id="a_node27"><a xlink:href="group__elements.html#ae45bec611a6ec17ea46aab6d680ae042" target="_top" xlink:title=" ">
<polygon fill="white" stroke="black" points="607,-45.5 607,-71.5 702,-71.5 702,-45.5 607,-45.5"/>
<text text-anchor="start" x="615" y="-61.1" font-family="SourceSans" font-size="8.00">svg::text_element::</text>
<text text-anchor="middle" x="654.5" y="-52.1" font-family="SourceSans" font-size="8.00">start_element</text>
</a>
</g>
</g>
<!-- Node14&#45;&gt;Node27 -->
<g id="edge31" class="edge">
<title>Node14&#45;&gt;Node27</title>
<path fill="none" stroke="midnightblue" d="M534.11,-73.71C552.89,-71.32 576.02,-68.37 596.9,-65.71"/>
<polygon fill="midnightblue" stroke="midnightblue" points="597.46,-69.17 606.94,-64.43 596.57,-62.22 597.46,-69.17"/>
</g>
<!-- Node16 -->
<g id="node16" class="node">
<title>Node16</title>
<g id="a_node16"><a xlink:href="structsvg_1_1typography.html#a70f61596bba3e0bd67b43a8fc553dbfa" target="_top" xlink:title=" ">
<polygon fill="white" stroke="black" points="755.5,-98.5 755.5,-124.5 860.5,-124.5 860.5,-98.5 755.5,-98.5"/>
<text text-anchor="start" x="763.5" y="-114.1" font-family="SourceSans" font-size="8.00">svg::typography::add</text>
<text text-anchor="middle" x="808" y="-105.1" font-family="SourceSans" font-size="8.00">_attribute</text>
</a>
</g>
</g>
<!-- Node15&#45;&gt;Node16 -->
<g id="edge15" class="edge">
<title>Node15&#45;&gt;Node16</title>
<path fill="none" stroke="midnightblue" d="M695.63,-26.6C701.94,-29.22 708.26,-32.2 714,-35.5 741.11,-51.11 768.38,-74.52 786.32,-91.24"/>
<polygon fill="midnightblue" stroke="midnightblue" points="784.2,-94.05 793.87,-98.39 789.02,-88.97 784.2,-94.05"/>
</g>
<!-- Node19 -->
<g id="node19" class="node">
<title>Node19</title>
<g id="a_node19"><a xlink:href="namespacesvg.html#a48ac748e89e22789d1772326a98dd7b6" target="_top" xlink:title=" ">
<polygon fill="white" stroke="black" points="905,-204 905,-221 1000,-221 1000,-204 905,-204"/>
<text text-anchor="middle" x="952.5" y="-210.6" font-family="SourceSans" font-size="8.00">svg::string_replace</text>
</a>
</g>
</g>
<!-- Node15&#45;&gt;Node19 -->
<g id="edge27" class="edge">
<title>Node15&#45;&gt;Node19</title>
<path fill="none" stroke="midnightblue" d="M702.2,-26.64C706.52,-29.11 710.56,-32.03 714,-35.5 746.68,-68.44 717.55,-100.34 750,-133.5 788.85,-173.2 850.02,-193.39 894.78,-203.37"/>
<polygon fill="midnightblue" stroke="midnightblue" points="894.12,-206.81 904.63,-205.46 895.58,-199.96 894.12,-206.81"/>
</g>
<!-- Node23 -->
<g id="node23" class="node">
<title>Node23</title>
<g id="a_node23"><a xlink:href="group__elements.html#a53d72a7ff728ad1d4d027254530bcf3d" target="_top" xlink:title="Common transforms include rotate(180)">
<polygon fill="white" stroke="black" points="902,-0.5 902,-26.5 1003,-26.5 1003,-0.5 902,-0.5"/>
<text text-anchor="start" x="910" y="-16.1" font-family="SourceSans" font-size="8.00">svg::element_base::</text>
<text text-anchor="middle" x="952.5" y="-7.1" font-family="SourceSans" font-size="8.00">add_transform</text>
</a>
</g>
</g>
<!-- Node15&#45;&gt;Node23 -->
<g id="edge24" class="edge">
<title>Node15&#45;&gt;Node23</title>
<path fill="none" stroke="midnightblue" d="M702.08,-13.5C753.27,-13.5 835.65,-13.5 891.61,-13.5"/>
<polygon fill="midnightblue" stroke="midnightblue" points="891.74,-17 901.74,-13.5 891.74,-10 891.74,-17"/>
</g>
<!-- Node24 -->
<g id="node24" class="node">
<title>Node24</title>
<g id="a_node24"><a xlink:href="namespacesvg.html#a36b1c48ad4601b205790e3772ad0a7b6" target="_top" xlink:title=" ">
<polygon fill="white" stroke="black" points="772,-233 772,-250 844,-250 844,-233 772,-233"/>
<text text-anchor="middle" x="808" y="-239.6" font-family="SourceSans" font-size="8.00">svg::to_string</text>
</a>
</g>
</g>
<!-- Node15&#45;&gt;Node24 -->
<g id="edge28" class="edge">
<title>Node15&#45;&gt;Node24</title>
<path fill="none" stroke="midnightblue" d="M702.07,-25.89C706.53,-28.51 710.63,-31.67 714,-35.5 759.87,-87.61 715.35,-127.34 750,-187.5 758.95,-203.05 773.77,-216.88 786.05,-226.66"/>
<polygon fill="midnightblue" stroke="midnightblue" points="783.97,-229.47 794.05,-232.75 788.21,-223.9 783.97,-229.47"/>
</g>
<!-- Node17 -->
<g id="node17" class="node">
<title>Node17</title>
<g id="a_node17"><a xlink:href="namespacesvg_1_1constants.html#a3972655f1dfdc090ec2592d1fb37e87c" target="_top" xlink:title=" ">
<polygon fill="white" stroke="black" points="1039.5,-47 1039.5,-64 1146.5,-64 1146.5,-47 1039.5,-47"/>
<text text-anchor="middle" x="1093" y="-53.6" font-family="SourceSans" font-size="8.00">svg::constants::quote</text>
</a>
</g>
</g>
<!-- Node16&#45;&gt;Node17 -->
<g id="edge16" class="edge">
<title>Node16&#45;&gt;Node17</title>
<path fill="none" stroke="midnightblue" d="M836.01,-98.42C854.23,-90.19 879.04,-80.1 902,-74.5 943.66,-64.34 991.72,-59.6 1029.08,-57.39"/>
<polygon fill="midnightblue" stroke="midnightblue" points="1029.53,-60.87 1039.32,-56.83 1029.15,-53.88 1029.53,-60.87"/>
</g>
<!-- Node18 -->
<g id="node18" class="node">
<title>Node18</title>
<g id="a_node18"><a xlink:href="namespacesvg_1_1constants.html#ac460bc8db60d85c3ae1cf8b1a903405e" target="_top" xlink:title="Formatting character constants.">
<polygon fill="white" stroke="black" points="1039,-167 1039,-184 1147,-184 1147,-167 1039,-167"/>
<text text-anchor="middle" x="1093" y="-173.6" font-family="SourceSans" font-size="8.00">svg::constants::space</text>
</a>
</g>
</g>
<!-- Node16&#45;&gt;Node18 -->
<g id="edge17" class="edge">
<title>Node16&#45;&gt;Node18</title>
<path fill="none" stroke="midnightblue" d="M831.1,-124.57C849.44,-134.77 876.55,-148.36 902,-155.5 943.16,-167.04 991.03,-172.03 1028.43,-174.14"/>
<polygon fill="midnightblue" stroke="midnightblue" points="1028.52,-177.65 1038.68,-174.66 1028.87,-170.66 1028.52,-177.65"/>
</g>
<!-- Node16&#45;&gt;Node19 -->
<g id="edge18" class="edge">
<title>Node16&#45;&gt;Node19</title>
<path fill="none" stroke="midnightblue" d="M824.56,-124.59C850.76,-146.64 900.95,-188.83 902,-189.5 907.67,-193.1 913.99,-196.48 920.17,-199.47"/>
<polygon fill="midnightblue" stroke="midnightblue" points="919.11,-202.83 929.66,-203.83 922.04,-196.47 919.11,-202.83"/>
</g>
<!-- Node20 -->
<g id="node20" class="node">
<title>Node20</title>
<g id="a_node20"><a xlink:href="structsvg_1_1typography.html#a174c1ffb4e56214d71523ffe7e422561" target="_top" xlink:title=" ">
<polygon fill="white" stroke="black" points="903.5,-120.5 903.5,-146.5 1001.5,-146.5 1001.5,-120.5 903.5,-120.5"/>
<text text-anchor="start" x="911.5" y="-136.1" font-family="SourceSans" font-size="8.00">svg::typography::to</text>
<text text-anchor="middle" x="952.5" y="-127.1" font-family="SourceSans" font-size="8.00">_string</text>
</a>
</g>
</g>
<!-- Node16&#45;&gt;Node20 -->
<g id="edge19" class="edge">
<title>Node16&#45;&gt;Node20</title>
<path fill="none" stroke="midnightblue" d="M860.85,-119.5C871.34,-121.12 882.44,-122.84 893.14,-124.49"/>
<polygon fill="midnightblue" stroke="midnightblue" points="892.83,-127.98 903.25,-126.05 893.9,-121.07 892.83,-127.98"/>
</g>
<!-- Node21 -->
<g id="node21" class="node">
<title>Node21</title>
<g id="a_node21"><a xlink:href="namespacesvg.html#a7363f3de9a003a4399e7ede9036299d4" target="_top" xlink:title=" ">
<polygon fill="white" stroke="black" points="916.5,-84 916.5,-101 988.5,-101 988.5,-84 916.5,-84"/>
<text text-anchor="middle" x="952.5" y="-90.6" font-family="SourceSans" font-size="8.00">svg::to_string</text>
</a>
</g>
</g>
<!-- Node16&#45;&gt;Node21 -->
<g id="edge20" class="edge">
<title>Node16&#45;&gt;Node21</title>
<path fill="none" stroke="midnightblue" d="M860.85,-104.59C875.71,-102.61 891.78,-100.46 906.21,-98.54"/>
<polygon fill="midnightblue" stroke="midnightblue" points="906.93,-101.97 916.38,-97.18 906.01,-95.03 906.93,-101.97"/>
</g>
<!-- Node21&#45;&gt;Node17 -->
<g id="edge21" class="edge">
<title>Node21&#45;&gt;Node17</title>
<path fill="none" stroke="midnightblue" d="M985.62,-83.92C1004.85,-78.78 1029.5,-72.2 1050.23,-66.66"/>
<polygon fill="midnightblue" stroke="midnightblue" points="1051.29,-70 1060.05,-64.04 1049.49,-63.23 1051.29,-70"/>
</g>
<!-- Node21&#45;&gt;Node18 -->
<g id="edge22" class="edge">
<title>Node21&#45;&gt;Node18</title>
<path fill="none" stroke="midnightblue" d="M981.33,-101.06C988.56,-103.71 996.22,-106.89 1003,-110.5 1029.46,-124.6 1056.87,-145.79 1074.15,-160.11"/>
<polygon fill="midnightblue" stroke="midnightblue" points="1072.31,-163.13 1082.21,-166.9 1076.82,-157.78 1072.31,-163.13"/>
</g>
<!-- Node22 -->
<g id="node22" class="node">
<title>Node22</title>
<g id="a_node22"><a xlink:href="structsvg_1_1colorq.html#adb55a2a48193fafa55340505862278e4" target="_top" xlink:title=" ">
<polygon fill="white" stroke="black" points="1041,-84 1041,-101 1145,-101 1145,-84 1041,-84"/>
<text text-anchor="middle" x="1093" y="-90.6" font-family="SourceSans" font-size="8.00">svg::colorq::to_string</text>
</a>
</g>
</g>
<!-- Node21&#45;&gt;Node22 -->
<g id="edge23" class="edge">
<title>Node21&#45;&gt;Node22</title>
<path fill="none" stroke="midnightblue" d="M988.81,-92.5C1001.51,-92.5 1016.24,-92.5 1030.53,-92.5"/>
<polygon fill="midnightblue" stroke="midnightblue" points="1030.81,-96 1040.81,-92.5 1030.81,-89 1030.81,-96"/>
</g>
<!-- Node23&#45;&gt;Node17 -->
<g id="edge25" class="edge">
<title>Node23&#45;&gt;Node17</title>
<path fill="none" stroke="midnightblue" d="M996.56,-26.56C1014.88,-32.11 1036.07,-38.54 1053.82,-43.92"/>
<polygon fill="midnightblue" stroke="midnightblue" points="1053.25,-47.41 1063.83,-46.96 1055.28,-40.71 1053.25,-47.41"/>
</g>
<!-- Node23&#45;&gt;Node18 -->
<g id="edge26" class="edge">
<title>Node23&#45;&gt;Node18</title>
<path fill="none" stroke="midnightblue" d="M964.83,-26.76C989.98,-56.17 1050.38,-126.82 1077.91,-159.02"/>
<polygon fill="midnightblue" stroke="midnightblue" points="1075.29,-161.34 1084.45,-166.67 1080.61,-156.79 1075.29,-161.34"/>
</g>
<!-- Node28&#45;&gt;Node15 -->
<g id="edge33" class="edge">
<title>Node28&#45;&gt;Node15</title>
<path fill="none" stroke="midnightblue" d="M537.64,-107.47C545.25,-104.88 552.75,-101.34 559,-96.5 583.89,-77.22 570.9,-55.75 595,-35.5 596.56,-34.19 598.2,-32.96 599.91,-31.79"/>
<polygon fill="midnightblue" stroke="midnightblue" points="602.03,-34.6 608.89,-26.53 598.49,-28.56 602.03,-34.6"/>
</g>
<!-- Node28&#45;&gt;Node25 -->
<g id="edge34" class="edge">
<title>Node28&#45;&gt;Node25</title>
<path fill="none" stroke="midnightblue" d="M536.12,-123.08C552.29,-126.58 571.41,-130.72 589.47,-134.63"/>
<polygon fill="midnightblue" stroke="midnightblue" points="588.85,-138.08 599.37,-136.78 590.33,-131.24 588.85,-138.08"/>
</g>
<!-- Node28&#45;&gt;Node26 -->
<g id="edge35" class="edge">
<title>Node28&#45;&gt;Node26</title>
<path fill="none" stroke="midnightblue" d="M537.75,-111.61C555.85,-110.34 577.4,-108.83 596.96,-107.46"/>
<polygon fill="midnightblue" stroke="midnightblue" points="597.25,-110.95 606.99,-106.76 596.77,-103.97 597.25,-110.95"/>
</g>
<!-- Node28&#45;&gt;Node27 -->
<g id="edge37" class="edge">
<title>Node28&#45;&gt;Node27</title>
<path fill="none" stroke="midnightblue" d="M529.21,-106C538.89,-103.24 549.45,-99.98 559,-96.5 575.45,-90.51 578.8,-87.14 595,-80.5 599.24,-78.76 603.67,-77 608.11,-75.27"/>
<polygon fill="midnightblue" stroke="midnightblue" points="609.71,-78.4 617.79,-71.55 607.2,-71.87 609.71,-78.4"/>
</g>
<!-- Node29 -->
<g id="node29" class="node">
<title>Node29</title>
<g id="a_node29"><a xlink:href="structsvg_1_1transform.html#acf9836f4ba647f0dd2b53963a0f714d0" target="_top" xlink:title=" ">
<polygon fill="white" stroke="black" points="601,-181 601,-198 708,-198 708,-181 601,-181"/>
<text text-anchor="middle" x="654.5" y="-187.6" font-family="SourceSans" font-size="8.00">svg::transform::rotate</text>
</a>
</g>
</g>
<!-- Node28&#45;&gt;Node29 -->
<g id="edge36" class="edge">
<title>Node28&#45;&gt;Node29</title>
<path fill="none" stroke="midnightblue" d="M537.83,-123.02C545.17,-125.46 552.54,-128.57 559,-132.5 578.88,-144.59 575.33,-158.08 595,-170.5 599.07,-173.07 603.53,-175.33 608.11,-177.3"/>
<polygon fill="midnightblue" stroke="midnightblue" points="606.99,-180.62 617.58,-180.96 609.51,-174.09 606.99,-180.62"/>
</g>
<!-- Node30&#45;&gt;Node14 -->
<g id="edge39" class="edge">
<title>Node30&#45;&gt;Node14</title>
<path fill="none" stroke="midnightblue" d="M372.42,-105.97C394.73,-100.95 423.16,-94.55 446.97,-89.2"/>
<polygon fill="midnightblue" stroke="midnightblue" points="447.87,-92.58 456.85,-86.97 446.33,-85.75 447.87,-92.58"/>
</g>
<!-- Node30&#45;&gt;Node28 -->
<g id="edge40" class="edge">
<title>Node30&#45;&gt;Node28</title>
<path fill="none" stroke="midnightblue" d="M380.78,-114.5C400.35,-114.5 423.21,-114.5 443.29,-114.5"/>
<polygon fill="midnightblue" stroke="midnightblue" points="443.5,-118 453.5,-114.5 443.5,-111 443.5,-118"/>
</g>
<!-- Node33&#45;&gt;Node8 -->
<g id="edge61" class="edge">
<title>Node33&#45;&gt;Node8</title>
<path fill="none" stroke="midnightblue" d="M196.05,-356.06C213.2,-366.75 243.8,-385.37 271,-399.5 278.03,-403.15 285.62,-406.82 293,-410.25"/>
<polygon fill="midnightblue" stroke="midnightblue" points="291.62,-413.47 302.17,-414.45 294.53,-407.1 291.62,-413.47"/>
</g>
<!-- Node33&#45;&gt;Node10 -->
<g id="edge47" class="edge">
<title>Node33&#45;&gt;Node10</title>
<path fill="none" stroke="midnightblue" d="M189.33,-338.75C211.75,-310.06 283.44,-218.29 316.06,-176.54"/>
<polygon fill="midnightblue" stroke="midnightblue" points="318.82,-178.7 322.22,-168.66 313.3,-174.39 318.82,-178.7"/>
</g>
<!-- Node34 -->
<g id="node34" class="node">
<title>Node34</title>
<g id="a_node34"><a xlink:href="namespacesvg.html#a6b1624bb42af7e9269fc6088e6a26fd7" target="_top" xlink:title="Adjust angle above to CW/CCW orientation.">
<polygon fill="white" stroke="black" points="271,-264 271,-281 396,-281 396,-264 271,-264"/>
<text text-anchor="middle" x="333.5" y="-270.6" font-family="SourceSans" font-size="8.00">svg::adjust_angle_rotation</text>
</a>
</g>
</g>
<!-- Node33&#45;&gt;Node34 -->
<g id="edge44" class="edge">
<title>Node33&#45;&gt;Node34</title>
<path fill="none" stroke="midnightblue" d="M195.6,-338.83C212.54,-327.84 243.17,-308.76 271,-295.5 279.3,-291.55 288.47,-287.8 297.15,-284.53"/>
<polygon fill="midnightblue" stroke="midnightblue" points="298.47,-287.77 306.65,-281.04 296.06,-281.2 298.47,-287.77"/>
</g>
<!-- Node35 -->
<g id="node35" class="node">
<title>Node35</title>
<g id="a_node35"><a xlink:href="namespacesvg.html#af08e9f518b73be063008ccd079d03b09" target="_top" xlink:title="Embed svg in group element. origin is where glyph placement is inside containing svg element....">
<polygon fill="white" stroke="black" points="450.5,-299 450.5,-316 540.5,-316 540.5,-299 450.5,-299"/>
<text text-anchor="middle" x="495.5" y="-305.6" font-family="SourceSans" font-size="8.00">svg::insert_svg_at</text>
</a>
</g>
</g>
<!-- Node33&#45;&gt;Node35 -->
<g id="edge48" class="edge">
<title>Node33&#45;&gt;Node35</title>
<path fill="none" stroke="midnightblue" d="M227.92,-339.95C241.74,-337.75 256.98,-335.42 271,-333.5 328.63,-325.59 394.83,-318.09 440.14,-313.19"/>
<polygon fill="midnightblue" stroke="midnightblue" points="440.76,-316.65 450.33,-312.1 440.01,-309.69 440.76,-316.65"/>
</g>
<!-- Node43 -->
<g id="node43" class="node">
<title>Node43</title>
<g id="a_node43"><a xlink:href="namespacesvg.html#a6906c27229acefb9a79e83b6c9d1bf6a" target="_top" xlink:title="Draws a circle around a point (x,y), of style (s), of radius (r).">
<polygon fill="white" stroke="black" points="440.5,-434 440.5,-451 550.5,-451 550.5,-434 440.5,-434"/>
<text text-anchor="middle" x="495.5" y="-440.6" font-family="SourceSans" font-size="8.00">svg::point_2d_to_circle</text>
</a>
</g>
</g>
<!-- Node33&#45;&gt;Node43 -->
<g id="edge62" class="edge">
<title>Node33&#45;&gt;Node43</title>
<path fill="none" stroke="midnightblue" d="M227.82,-346.03C272.14,-346.09 340.84,-350.22 396,-371.5 428.57,-384.07 460.23,-410.1 478.52,-426.9"/>
<polygon fill="midnightblue" stroke="midnightblue" points="476.26,-429.58 485.94,-433.9 481.06,-424.49 476.26,-429.58"/>
</g>
<!-- Node48 -->
<g id="node48" class="node">
<title>Node48</title>
<g id="a_node48"><a xlink:href="namespacesvg.html#af1404c1a8db8e0096d0a4b38f6d8e597" target="_top" xlink:title="Import svg file, convert it to svg_element for insertion. ifile is a plain SVG file with a 1:1 aspect...">
<polygon fill="white" stroke="black" points="446.5,-583.5 446.5,-609.5 544.5,-609.5 544.5,-583.5 446.5,-583.5"/>
<text text-anchor="start" x="454.5" y="-599.1" font-family="SourceSans" font-size="8.00">svg::svg_file_to_svg</text>
<text text-anchor="middle" x="495.5" y="-590.1" font-family="SourceSans" font-size="8.00">_insert</text>
</a>
</g>
</g>
<!-- Node33&#45;&gt;Node48 -->
<g id="edge69" class="edge">
<title>Node33&#45;&gt;Node48</title>
<path fill="none" stroke="midnightblue" d="M213.98,-356.04C273.34,-372.15 395.89,-405.41 396,-405.5 410.46,-417.19 462.11,-526.46 484.28,-574.28"/>
<polygon fill="midnightblue" stroke="midnightblue" points="481.16,-575.88 488.54,-583.49 487.52,-572.94 481.16,-575.88"/>
</g>
<!-- Node34&#45;&gt;Node31 -->
<g id="edge45" class="edge">
<title>Node34&#45;&gt;Node31</title>
<path fill="none" stroke="midnightblue" d="M369.61,-263.94C393.16,-258.2 424.39,-250.59 449.72,-244.41"/>
<polygon fill="midnightblue" stroke="midnightblue" points="450.58,-247.81 459.47,-242.04 448.92,-241.01 450.58,-247.81"/>
</g>
<!-- Node34&#45;&gt;Node32 -->
<g id="edge46" class="edge">
<title>Node34&#45;&gt;Node32</title>
<path fill="none" stroke="midnightblue" d="M396.36,-272.11C405.53,-272.06 415.04,-272 424.36,-271.94"/>
<polygon fill="midnightblue" stroke="midnightblue" points="424.41,-275.44 434.38,-271.88 424.36,-268.44 424.41,-275.44"/>
</g>
<!-- Node35&#45;&gt;Node18 -->
<g id="edge56" class="edge">
<title>Node35&#45;&gt;Node18</title>
<path fill="none" stroke="midnightblue" d="M528.27,-316.06C593.3,-332.07 745.64,-361.81 866,-325.5 954.9,-298.68 1040.94,-224.18 1075.78,-191.36"/>
<polygon fill="midnightblue" stroke="midnightblue" points="1078.33,-193.76 1083.14,-184.32 1073.49,-188.7 1078.33,-193.76"/>
</g>
<!-- Node35&#45;&gt;Node25 -->
<g id="edge49" class="edge">
<title>Node35&#45;&gt;Node25</title>
<path fill="none" stroke="midnightblue" d="M540.54,-300.87C547.37,-298.23 553.85,-294.57 559,-289.5 598.07,-251.03 557.78,-211.76 595,-171.5 596.36,-170.03 597.83,-168.65 599.38,-167.36"/>
<polygon fill="midnightblue" stroke="midnightblue" points="601.49,-170.15 607.73,-161.59 597.51,-164.39 601.49,-170.15"/>
</g>
<!-- Node35&#45;&gt;Node29 -->
<g id="edge54" class="edge">
<title>Node35&#45;&gt;Node29</title>
<path fill="none" stroke="midnightblue" d="M540.7,-300.1C547.35,-297.54 553.73,-294.11 559,-289.5 588.96,-263.29 565.28,-233.98 595,-207.5 596.94,-205.77 599.05,-204.2 601.27,-202.79"/>
<polygon fill="midnightblue" stroke="midnightblue" points="603.08,-205.79 610.31,-198.04 599.83,-199.59 603.08,-205.79"/>
</g>
<!-- Node36 -->
<g id="node36" class="node">
<title>Node36</title>
<g id="a_node36"><a xlink:href="group__elements.html#acafbdd950c6c2639c9d376c3eab696e5" target="_top" xlink:title=" ">
<polygon fill="white" stroke="black" points="604,-418.5 604,-444.5 705,-444.5 705,-418.5 604,-418.5"/>
<text text-anchor="start" x="612" y="-434.1" font-family="SourceSans" font-size="8.00">svg::element_base::</text>
<text text-anchor="middle" x="654.5" y="-425.1" font-family="SourceSans" font-size="8.00">add_raw</text>
</a>
</g>
</g>
<!-- Node35&#45;&gt;Node36 -->
<g id="edge50" class="edge">
<title>Node35&#45;&gt;Node36</title>
<path fill="none" stroke="midnightblue" d="M502.67,-316.13C516.88,-335.42 553.85,-382.47 595,-409.5 597.42,-411.09 599.98,-412.59 602.61,-414"/>
<polygon fill="midnightblue" stroke="midnightblue" points="601.25,-417.23 611.78,-418.44 604.31,-410.93 601.25,-417.23"/>
</g>
<!-- Node38 -->
<g id="node38" class="node">
<title>Node38</title>
<g id="a_node38"><a xlink:href="group__elements.html#gaab139e518fe9d07003dbcc1fdfdad955" target="_top" xlink:title=" ">
<polygon fill="white" stroke="black" points="605.5,-253.5 605.5,-279.5 703.5,-279.5 703.5,-253.5 605.5,-253.5"/>
<text text-anchor="start" x="613.5" y="-269.1" font-family="SourceSans" font-size="8.00">svg::group_element</text>
<text text-anchor="middle" x="654.5" y="-260.1" font-family="SourceSans" font-size="8.00">::finish_element</text>
</a>
</g>
</g>
<!-- Node35&#45;&gt;Node38 -->
<g id="edge53" class="edge">
<title>Node35&#45;&gt;Node38</title>
<path fill="none" stroke="midnightblue" d="M529.41,-298.91C548.6,-293.89 573.35,-287.43 595.7,-281.59"/>
<polygon fill="midnightblue" stroke="midnightblue" points="596.64,-284.97 605.43,-279.05 594.87,-278.19 596.64,-284.97"/>
</g>
<!-- Node39 -->
<g id="node39" class="node">
<title>Node39</title>
<g id="a_node39"><a xlink:href="structsvg_1_1transform.html#a9053c6d65a0bf6f82e4c85a71cc42079" target="_top" xlink:title=" ">
<polygon fill="white" stroke="black" points="602.5,-217 602.5,-234 706.5,-234 706.5,-217 602.5,-217"/>
<text text-anchor="middle" x="654.5" y="-223.6" font-family="SourceSans" font-size="8.00">svg::transform::scale</text>
</a>
</g>
</g>
<!-- Node35&#45;&gt;Node39 -->
<g id="edge55" class="edge">
<title>Node35&#45;&gt;Node39</title>
<path fill="none" stroke="midnightblue" d="M539.78,-298.9C546.54,-296.49 553.2,-293.42 559,-289.5 580.52,-274.98 573.61,-258.21 595,-243.5 597.93,-241.48 601.1,-239.68 604.39,-238.08"/>
<polygon fill="midnightblue" stroke="midnightblue" points="606.05,-241.18 613.9,-234.07 603.33,-234.73 606.05,-241.18"/>
</g>
<!-- Node40 -->
<g id="node40" class="node">
<title>Node40</title>
<g id="a_node40"><a xlink:href="group__elements.html#a5c8c4f93df6e84523f788aa7f98bcab8" target="_top" xlink:title=" ">
<polygon fill="white" stroke="black" points="605.5,-463.5 605.5,-489.5 703.5,-489.5 703.5,-463.5 605.5,-463.5"/>
<text text-anchor="start" x="613.5" y="-479.1" font-family="SourceSans" font-size="8.00">svg::group_element</text>
<text text-anchor="middle" x="654.5" y="-470.1" font-family="SourceSans" font-size="8.00">::start_element</text>
</a>
</g>
</g>
<!-- Node35&#45;&gt;Node40 -->
<g id="edge57" class="edge">
<title>Node35&#45;&gt;Node40</title>
<path fill="none" stroke="midnightblue" d="M500,-316.15C510.55,-341.18 544.44,-414.43 595,-454.5 596.76,-455.9 598.62,-457.21 600.55,-458.45"/>
<polygon fill="midnightblue" stroke="midnightblue" points="598.95,-461.56 609.38,-463.38 602.36,-455.45 598.95,-461.56"/>
</g>
<!-- Node41 -->
<g id="node41" class="node">
<title>Node41</title>
<g id="a_node41"><a xlink:href="structsvg_1_1transform.html#a0c20aee54dbd3136799b17e12d3cb718" target="_top" xlink:title=" ">
<polygon fill="white" stroke="black" points="595,-299 595,-316 714,-316 714,-299 595,-299"/>
<text text-anchor="middle" x="654.5" y="-305.6" font-family="SourceSans" font-size="8.00">svg::transform::translate</text>
</a>
</g>
</g>
<!-- Node35&#45;&gt;Node41 -->
<g id="edge59" class="edge">
<title>Node35&#45;&gt;Node41</title>
<path fill="none" stroke="midnightblue" d="M540.65,-307.5C554.28,-307.5 569.64,-307.5 584.53,-307.5"/>
<polygon fill="midnightblue" stroke="midnightblue" points="584.74,-311 594.74,-307.5 584.74,-304 584.74,-311"/>
</g>
<!-- Node36&#45;&gt;Node18 -->
<g id="edge52" class="edge">
<title>Node36&#45;&gt;Node18</title>
<path fill="none" stroke="midnightblue" d="M705.15,-434.05C778.12,-435.19 915.15,-427.05 1003,-358.5 1057.52,-315.96 1080.7,-231.48 1088.59,-194.07"/>
<polygon fill="midnightblue" stroke="midnightblue" points="1092.06,-194.56 1090.57,-184.07 1085.2,-193.2 1092.06,-194.56"/>
</g>
<!-- Node37 -->
<g id="node37" class="node">
<title>Node37</title>
<g id="a_node37"><a xlink:href="namespacesvg_1_1constants.html#aa7f04c2ea699a1b1e2e790de5ac33f38" target="_top" xlink:title=" ">
<polygon fill="white" stroke="black" points="750,-468 750,-485 866,-485 866,-468 750,-468"/>
<text text-anchor="middle" x="808" y="-474.6" font-family="SourceSans" font-size="8.00">svg::constants::newline</text>
</a>
</g>
</g>
<!-- Node36&#45;&gt;Node37 -->
<g id="edge51" class="edge">
<title>Node36&#45;&gt;Node37</title>
<path fill="none" stroke="midnightblue" d="M699.32,-444.52C721.2,-451.01 747.43,-458.8 768.52,-465.07"/>
<polygon fill="midnightblue" stroke="midnightblue" points="767.53,-468.43 778.12,-467.92 769.53,-461.72 767.53,-468.43"/>
</g>
<!-- Node40&#45;&gt;Node37 -->
<g id="edge58" class="edge">
<title>Node40&#45;&gt;Node37</title>
<path fill="none" stroke="midnightblue" d="M703.85,-476.5C715.29,-476.5 727.68,-476.5 739.78,-476.5"/>
<polygon fill="midnightblue" stroke="midnightblue" points="739.85,-480 749.85,-476.5 739.85,-473 739.85,-480"/>
</g>
<!-- Node42 -->
<g id="node42" class="node">
<title>Node42</title>
<g id="a_node42"><a xlink:href="namespacesvg_1_1constants.html#a70757c054f02146f803e0e40071734a9" target="_top" xlink:title=" ">
<polygon fill="white" stroke="black" points="751.5,-299 751.5,-316 864.5,-316 864.5,-299 751.5,-299"/>
<text text-anchor="middle" x="808" y="-305.6" font-family="SourceSans" font-size="8.00">svg::constants::comma</text>
</a>
</g>
</g>
<!-- Node41&#45;&gt;Node42 -->
<g id="edge60" class="edge">
<title>Node41&#45;&gt;Node42</title>
<path fill="none" stroke="midnightblue" d="M714.07,-307.5C722.91,-307.5 732.07,-307.5 741.04,-307.5"/>
<polygon fill="midnightblue" stroke="midnightblue" points="741.07,-311 751.07,-307.5 741.07,-304 741.07,-311"/>
</g>
<!-- Node43&#45;&gt;Node25 -->
<g id="edge64" class="edge">
<title>Node43&#45;&gt;Node25</title>
<path fill="none" stroke="midnightblue" d="M502.2,-433.78C514.33,-414.83 542.93,-368.17 559,-325.5 583.77,-259.72 549.03,-224.67 595,-171.5 596.18,-170.14 597.45,-168.86 598.79,-167.65"/>
<polygon fill="midnightblue" stroke="midnightblue" points="601.17,-170.25 607.18,-161.53 597.04,-164.59 601.17,-170.25"/>
</g>
<!-- Node44 -->
<g id="node44" class="node">
<title>Node44</title>
<g id="a_node44"><a xlink:href="group__elements.html#a519382631540ecedee961bfb53e9ae87" target="_top" xlink:title=" ">
<polygon fill="white" stroke="black" points="606.5,-598.5 606.5,-624.5 702.5,-624.5 702.5,-598.5 606.5,-598.5"/>
<text text-anchor="start" x="614.5" y="-614.1" font-family="SourceSans" font-size="8.00">svg::circle_element</text>
<text text-anchor="middle" x="654.5" y="-605.1" font-family="SourceSans" font-size="8.00">::add_data</text>
</a>
</g>
</g>
<!-- Node43&#45;&gt;Node44 -->
<g id="edge63" class="edge">
<title>Node43&#45;&gt;Node44</title>
<path fill="none" stroke="midnightblue" d="M500,-451.15C510.55,-476.18 544.44,-549.43 595,-589.5 596.76,-590.9 598.62,-592.21 600.55,-593.45"/>
<polygon fill="midnightblue" stroke="midnightblue" points="598.95,-596.56 609.38,-598.38 602.36,-590.45 598.95,-596.56"/>
</g>
<!-- Node45 -->
<g id="node45" class="node">
<title>Node45</title>
<g id="a_node45"><a xlink:href="group__elements.html#a238b38ca99a1cf6c2baf80c8e4338d99" target="_top" xlink:title=" ">
<polygon fill="white" stroke="black" points="604,-373.5 604,-399.5 705,-399.5 705,-373.5 604,-373.5"/>
<text text-anchor="start" x="612" y="-389.1" font-family="SourceSans" font-size="8.00">svg::element_base::</text>
<text text-anchor="middle" x="654.5" y="-380.1" font-family="SourceSans" font-size="8.00">add_style</text>
</a>
</g>
</g>
<!-- Node43&#45;&gt;Node45 -->
<g id="edge65" class="edge">
<title>Node43&#45;&gt;Node45</title>
<path fill="none" stroke="midnightblue" d="M520.34,-433.99C543.29,-425.81 578.6,-413.22 607.09,-403.05"/>
<polygon fill="midnightblue" stroke="midnightblue" points="608.61,-406.23 616.86,-399.57 606.26,-399.63 608.61,-406.23"/>
</g>
<!-- Node46 -->
<g id="node46" class="node">
<title>Node46</title>
<g id="a_node46"><a xlink:href="group__elements.html#ga98a1538c46e39122d8199c12b3a57b5d" target="_top" xlink:title=" ">
<polygon fill="white" stroke="black" points="606.5,-553.5 606.5,-579.5 702.5,-579.5 702.5,-553.5 606.5,-553.5"/>
<text text-anchor="start" x="614.5" y="-569.1" font-family="SourceSans" font-size="8.00">svg::circle_element</text>
<text text-anchor="middle" x="654.5" y="-560.1" font-family="SourceSans" font-size="8.00">::finish_element</text>
</a>
</g>
</g>
<!-- Node43&#45;&gt;Node46 -->
<g id="edge67" class="edge">
<title>Node43&#45;&gt;Node46</title>
<path fill="none" stroke="midnightblue" d="M502.67,-451.13C516.88,-470.42 553.85,-517.47 595,-544.5 597.42,-546.09 599.98,-547.59 602.61,-549"/>
<polygon fill="midnightblue" stroke="midnightblue" points="601.25,-552.23 611.78,-553.44 604.31,-545.93 601.25,-552.23"/>
</g>
<!-- Node47 -->
<g id="node47" class="node">
<title>Node47</title>
<g id="a_node47"><a xlink:href="group__elements.html#a793cb6b40b2aea335b11f14fd327cde8" target="_top" xlink:title=" ">
<polygon fill="white" stroke="black" points="606.5,-508.5 606.5,-534.5 702.5,-534.5 702.5,-508.5 606.5,-508.5"/>
<text text-anchor="start" x="614.5" y="-524.1" font-family="SourceSans" font-size="8.00">svg::circle_element</text>
<text text-anchor="middle" x="654.5" y="-515.1" font-family="SourceSans" font-size="8.00">::start_element</text>
</a>
</g>
</g>
<!-- Node43&#45;&gt;Node47 -->
<g id="edge68" class="edge">
<title>Node43&#45;&gt;Node47</title>
<path fill="none" stroke="midnightblue" d="M509.82,-451.16C528.4,-463.02 563.39,-484.54 595,-499.5 598.75,-501.28 602.69,-503.01 606.67,-504.68"/>
<polygon fill="midnightblue" stroke="midnightblue" points="605.4,-507.94 615.98,-508.44 608.02,-501.45 605.4,-507.94"/>
</g>
<!-- Node45&#45;&gt;Node24 -->
<g id="edge66" class="edge">
<title>Node45&#45;&gt;Node24</title>
<path fill="none" stroke="midnightblue" d="M668.19,-373.15C689.98,-350.29 733.73,-304.63 750,-289.5 762.38,-277.99 776.98,-265.72 788.3,-256.47"/>
<polygon fill="midnightblue" stroke="midnightblue" points="790.66,-259.06 796.23,-250.04 786.25,-253.62 790.66,-259.06"/>
</g>
<!-- Node48&#45;&gt;Node37 -->
<g id="edge70" class="edge">
<title>Node48&#45;&gt;Node37</title>
<path fill="none" stroke="midnightblue" d="M519.15,-609.63C560.65,-631.8 650.44,-670.84 714,-634.5 767.36,-603.99 793.13,-529.61 802.58,-494.9"/>
<polygon fill="midnightblue" stroke="midnightblue" points="805.99,-495.69 805.09,-485.13 799.21,-493.95 805.99,-495.69"/>
</g>
</g>
</svg>
