<?xml version="1.0" encoding="UTF-8" standalone="no"?>
<!DOCTYPE svg PUBLIC "-//W3C//DTD SVG 1.1//EN"
 "http://www.w3.org/Graphics/SVG/1.1/DTD/svg11.dtd">
<!-- Generated by graphviz version 2.44.0 (0)
 -->
<!-- Title: svg::splay_ids_stagger Pages: 1 -->
<!--zoomable 349 -->
<svg id="main" version="1.1" xmlns="http://www.w3.org/2000/svg" xmlns:xlink="http://www.w3.org/1999/xlink" xml:space="preserve" onload="init(evt)">
<style type="text/css"><![CDATA[
.edge:hover path { stroke: red; }
.edge:hover polygon { stroke: red; fill: red; }
]]></style>
<script type="text/javascript"><![CDATA[
var edges = document.getElementsByTagName('g');
if (edges && edges.length) {
  for (var i=0;i<edges.length;i++) {
    if (edges[i].id.substr(0,4)=='edge') {
      edges[i].setAttribute('class','edge');
    }
  }
}
]]></script>
        <defs>
                <circle id="rim" cx="0" cy="0" r="7"/>
                <circle id="rim2" cx="0" cy="0" r="3.5"/>
                <g id="zoomPlus">
                        <use xlink:href="#rim" fill="#404040">
                                <set attributeName="fill" to="#808080" begin="zoomplus.mouseover" end="zoomplus.mouseout"/>
                        </use>
                        <path d="M-4,0h8M0,-4v8" fill="none" stroke="white" stroke-width="1.5" pointer-events="none"/>
                </g>
                <g id="zoomMin">
                        <use xlink:href="#rim" fill="#404040">
                                <set attributeName="fill" to="#808080" begin="zoomminus.mouseover" end="zoomminus.mouseout"/>
                        </use>
                        <path d="M-4,0h8" fill="none" stroke="white" stroke-width="1.5" pointer-events="none"/>
                </g>
                <g id="dirArrow">
                        <path fill="none" stroke="white" stroke-width="1.5" d="M0,-3.0v7 M-2.5,-0.5L0,-3.0L2.5,-0.5"/>
                </g>
               <g id="resetDef">
                       <use xlink:href="#rim2" fill="#404040">
                               <set attributeName="fill" to="#808080" begin="reset.mouseover" end="reset.mouseout"/>
                       </use>
               </g>
        </defs>

<script type="text/javascript">
var viewWidth = 1254;
var viewHeight = 349;
var sectionId = 'dynsection-63';
</script>
<script xlink:href="svgpan.js"/>
<svg id="graph" class="graph">
<g id="viewport">
<title>svg::splay_ids_stagger</title>
<polygon fill="white" stroke="transparent" points="-4,4 -4,-344.5 1250,-344.5 1250,4 -4,4"/>
<!-- Node1 -->
<g id="node1" class="node">
<title>Node1</title>
<g id="a_node1"><a xlink:title="Spread ids after in stepping pattern outward.">
<polygon fill="#bfbfbf" stroke="black" points="0,-72.5 0,-89.5 110,-89.5 110,-72.5 0,-72.5"/>
<text text-anchor="middle" x="55" y="-79.1" font-family="SourceSans" font-size="8.00">svg::splay_ids_stagger</text>
</a>
</g>
</g>
<!-- Node2 -->
<g id="node2" class="node">
<title>Node2</title>
<g id="a_node2"><a xlink:href="namespacesvg.html#a8f48a6909f52b54cf4a3bfce5e27b59c" target="_top" xlink:title="Spread ids past the origin point, along circumference path.">
<polygon fill="white" stroke="black" points="146,-72.5 146,-89.5 244,-89.5 244,-72.5 146,-72.5"/>
<text text-anchor="middle" x="195" y="-79.1" font-family="SourceSans" font-size="8.00">svg::splay_ids_after</text>
</a>
</g>
</g>
<!-- Node1&#45;&gt;Node2 -->
<g id="edge1" class="edge">
<title>Node1&#45;&gt;Node2</title>
<path fill="none" stroke="midnightblue" d="M110.15,-81C118.52,-81 127.2,-81 135.66,-81"/>
<polygon fill="midnightblue" stroke="midnightblue" points="135.84,-84.5 145.84,-81 135.84,-77.5 135.84,-84.5"/>
</g>
<!-- Node3 -->
<g id="node3" class="node">
<title>Node3</title>
<g id="a_node3"><a xlink:href="namespacesvg.html#a0a0dce44cf8a75daa516cdf9fade5a85" target="_top" xlink:title=" ">
<polygon fill="white" stroke="black" points="280,-72.5 280,-89.5 366,-89.5 366,-72.5 280,-72.5"/>
<text text-anchor="middle" x="323" y="-79.1" font-family="SourceSans" font-size="8.00">svg::radial_text_r</text>
</a>
</g>
</g>
<!-- Node2&#45;&gt;Node3 -->
<g id="edge2" class="edge">
<title>Node2&#45;&gt;Node3</title>
<path fill="none" stroke="midnightblue" d="M244.35,-81C252.64,-81 261.29,-81 269.68,-81"/>
<polygon fill="midnightblue" stroke="midnightblue" points="269.74,-84.5 279.74,-81 269.74,-77.5 269.74,-84.5"/>
</g>
<!-- Node4 -->
<g id="node4" class="node">
<title>Node4</title>
<g id="a_node4"><a xlink:href="namespacesvg.html#ab44508c4aeca591141ebec50145b75cd" target="_top" xlink:title="Angle in degrees.">
<polygon fill="white" stroke="black" points="409,-145 409,-171 522,-171 522,-145 409,-145"/>
<text text-anchor="start" x="417" y="-160.6" font-family="SourceSans" font-size="8.00">svg::get_circumference</text>
<text text-anchor="middle" x="465.5" y="-151.6" font-family="SourceSans" font-size="8.00">_point_d</text>
</a>
</g>
</g>
<!-- Node3&#45;&gt;Node4 -->
<g id="edge3" class="edge">
<title>Node3&#45;&gt;Node4</title>
<path fill="none" stroke="midnightblue" d="M334.55,-89.61C349.06,-101.13 376.28,-121.64 402,-135 406.2,-137.18 410.66,-139.26 415.19,-141.2"/>
<polygon fill="midnightblue" stroke="midnightblue" points="413.93,-144.47 424.51,-145 416.57,-137.98 413.93,-144.47"/>
</g>
<!-- Node7 -->
<g id="node7" class="node">
<title>Node7</title>
<g id="a_node7"><a xlink:href="namespacesvg.html#ae7eab6d9ce1f55bcbcc997cd24c5abcf" target="_top" xlink:title="Text with typography, arranged ccw around points (x,y) on a circle.">
<polygon fill="white" stroke="black" points="416.5,-72.5 416.5,-89.5 514.5,-89.5 514.5,-72.5 416.5,-72.5"/>
<text text-anchor="middle" x="465.5" y="-79.1" font-family="SourceSans" font-size="8.00">svg::radial_text_ccw</text>
</a>
</g>
</g>
<!-- Node3&#45;&gt;Node7 -->
<g id="edge6" class="edge">
<title>Node3&#45;&gt;Node7</title>
<path fill="none" stroke="midnightblue" d="M366.15,-81C378.78,-81 392.85,-81 406.32,-81"/>
<polygon fill="midnightblue" stroke="midnightblue" points="406.46,-84.5 416.46,-81 406.46,-77.5 406.46,-84.5"/>
</g>
<!-- Node23 -->
<g id="node23" class="node">
<title>Node23</title>
<g id="a_node23"><a xlink:href="namespacesvg.html#a27b1041d0851178e4835e1f623a46161" target="_top" xlink:title="Text with typography, arranged cw around points (x,y) on a circle.">
<polygon fill="white" stroke="black" points="418.5,-108.5 418.5,-125.5 512.5,-125.5 512.5,-108.5 418.5,-108.5"/>
<text text-anchor="middle" x="465.5" y="-115.1" font-family="SourceSans" font-size="8.00">svg::radial_text_cw</text>
</a>
</g>
</g>
<!-- Node3&#45;&gt;Node23 -->
<g id="edge27" class="edge">
<title>Node3&#45;&gt;Node23</title>
<path fill="none" stroke="midnightblue" d="M357.3,-89.53C376.4,-94.43 400.61,-100.63 421.19,-105.9"/>
<polygon fill="midnightblue" stroke="midnightblue" points="420.4,-109.31 430.96,-108.4 422.14,-102.53 420.4,-109.31"/>
</g>
<!-- Node24 -->
<g id="node24" class="node">
<title>Node24</title>
<g id="a_node24"><a xlink:href="namespacesvg.html#a010fea242a289d173d521b501140cd72" target="_top" xlink:title="Zero degrees is top, going clockwise (cw).">
<polygon fill="white" stroke="black" points="402,-36.5 402,-53.5 529,-53.5 529,-36.5 402,-36.5"/>
<text text-anchor="middle" x="465.5" y="-43.1" font-family="SourceSans" font-size="8.00">svg::zero_angle_north_ccw</text>
</a>
</g>
</g>
<!-- Node3&#45;&gt;Node24 -->
<g id="edge29" class="edge">
<title>Node3&#45;&gt;Node24</title>
<path fill="none" stroke="midnightblue" d="M357.3,-72.47C376.4,-67.57 400.61,-61.37 421.19,-56.1"/>
<polygon fill="midnightblue" stroke="midnightblue" points="422.14,-59.47 430.96,-53.6 420.4,-52.69 422.14,-59.47"/>
</g>
<!-- Node25 -->
<g id="node25" class="node">
<title>Node25</title>
<g id="a_node25"><a xlink:href="namespacesvg.html#a46164d75fd5109e4ed8879abbacd5c11" target="_top" xlink:title="Zero degrees is top, going clockwise (cw).">
<polygon fill="white" stroke="black" points="404.5,-0.5 404.5,-17.5 526.5,-17.5 526.5,-0.5 404.5,-0.5"/>
<text text-anchor="middle" x="465.5" y="-7.1" font-family="SourceSans" font-size="8.00">svg::zero_angle_north_cw</text>
</a>
</g>
</g>
<!-- Node3&#45;&gt;Node25 -->
<g id="edge30" class="edge">
<title>Node3&#45;&gt;Node25</title>
<path fill="none" stroke="midnightblue" d="M334.42,-72.12C348.76,-60.29 375.81,-39.42 402,-27 406.97,-24.64 412.32,-22.53 417.71,-20.65"/>
<polygon fill="midnightblue" stroke="midnightblue" points="418.97,-23.93 427.41,-17.53 416.82,-17.26 418.97,-23.93"/>
</g>
<!-- Node5 -->
<g id="node5" class="node">
<title>Node5</title>
<g id="a_node5"><a xlink:href="namespacesvg.html#aef05ac63d88a6102981d3faf37275297" target="_top" xlink:title="Angle in radians.">
<polygon fill="white" stroke="black" points="565,-136 565,-162 678,-162 678,-136 565,-136"/>
<text text-anchor="start" x="573" y="-151.6" font-family="SourceSans" font-size="8.00">svg::get_circumference</text>
<text text-anchor="middle" x="621.5" y="-142.6" font-family="SourceSans" font-size="8.00">_point_r</text>
</a>
</g>
</g>
<!-- Node4&#45;&gt;Node5 -->
<g id="edge4" class="edge">
<title>Node4&#45;&gt;Node5</title>
<path fill="none" stroke="midnightblue" d="M522.1,-154.75C532.67,-154.13 543.84,-153.48 554.7,-152.85"/>
<polygon fill="midnightblue" stroke="midnightblue" points="555.21,-156.32 564.98,-152.24 554.8,-149.33 555.21,-156.32"/>
</g>
<!-- Node6 -->
<g id="node6" class="node">
<title>Node6</title>
<g id="a_node6"><a xlink:href="namespacesvg_1_1constants.html#a0e0b0d9314bc47324ee39884bf8bb2fd" target="_top" xlink:title=" ">
<polygon fill="white" stroke="black" points="576,-181.5 576,-198.5 667,-198.5 667,-181.5 576,-181.5"/>
<text text-anchor="middle" x="621.5" y="-188.1" font-family="SourceSans" font-size="8.00">svg::constants::pi</text>
</a>
</g>
</g>
<!-- Node4&#45;&gt;Node6 -->
<g id="edge5" class="edge">
<title>Node4&#45;&gt;Node6</title>
<path fill="none" stroke="midnightblue" d="M522.1,-169.55C537.5,-172.75 554.14,-176.21 569.28,-179.36"/>
<polygon fill="midnightblue" stroke="midnightblue" points="568.98,-182.87 579.48,-181.48 570.4,-176.02 568.98,-182.87"/>
</g>
<!-- Node8 -->
<g id="node8" class="node">
<title>Node8</title>
<g id="a_node8"><a xlink:href="namespacesvg.html#a5791c1fc9121f01e5f666b7ce0367dfa" target="_top" xlink:title="Text at @origin, with style and ... a transformation=rotation of @deg about @rorigin.">
<polygon fill="white" stroke="black" points="578,-90.5 578,-107.5 665,-107.5 665,-90.5 578,-90.5"/>
<text text-anchor="middle" x="621.5" y="-97.1" font-family="SourceSans" font-size="8.00">svg::styled_text_r</text>
</a>
</g>
</g>
<!-- Node7&#45;&gt;Node8 -->
<g id="edge7" class="edge">
<title>Node7&#45;&gt;Node8</title>
<path fill="none" stroke="midnightblue" d="M514.8,-86.65C531.53,-88.6 550.37,-90.8 567.46,-92.8"/>
<polygon fill="midnightblue" stroke="midnightblue" points="567.5,-96.33 577.84,-94.01 568.31,-89.38 567.5,-96.33"/>
</g>
<!-- Node9 -->
<g id="node9" class="node">
<title>Node9</title>
<g id="a_node9"><a xlink:href="group__elements.html#aad29e1daf75bdcd69a39575a6807fa0f" target="_top" xlink:title="Either serialize immediately (as below), or create data structure that adds data to data_vec and then...">
<polygon fill="white" stroke="black" points="721.5,-176 721.5,-202 816.5,-202 816.5,-176 721.5,-176"/>
<text text-anchor="start" x="729.5" y="-191.6" font-family="SourceSans" font-size="8.00">svg::text_element::</text>
<text text-anchor="middle" x="769" y="-182.6" font-family="SourceSans" font-size="8.00">add_data</text>
</a>
</g>
</g>
<!-- Node8&#45;&gt;Node9 -->
<g id="edge8" class="edge">
<title>Node8&#45;&gt;Node9</title>
<path fill="none" stroke="midnightblue" d="M644.96,-107.57C655.53,-112.17 667.98,-118.46 678,-126 697.11,-140.39 694.54,-152.1 714,-166 716.65,-167.9 719.49,-169.68 722.41,-171.34"/>
<polygon fill="midnightblue" stroke="midnightblue" points="720.9,-174.5 731.39,-175.99 724.12,-168.28 720.9,-174.5"/>
</g>
<!-- Node19 -->
<g id="node19" class="node">
<title>Node19</title>
<g id="a_node19"><a xlink:href="group__elements.html#adb6116b96467cc39cb178deb10c7a869" target="_top" xlink:title=" ">
<polygon fill="white" stroke="black" points="714,-131 714,-157 824,-157 824,-131 714,-131"/>
<text text-anchor="start" x="722" y="-146.6" font-family="SourceSans" font-size="8.00">svg::svg_element::add</text>
<text text-anchor="middle" x="769" y="-137.6" font-family="SourceSans" font-size="8.00">_element</text>
</a>
</g>
</g>
<!-- Node8&#45;&gt;Node19 -->
<g id="edge23" class="edge">
<title>Node8&#45;&gt;Node19</title>
<path fill="none" stroke="midnightblue" d="M650.21,-107.57C668.81,-113.32 693.89,-121.08 716.13,-127.96"/>
<polygon fill="midnightblue" stroke="midnightblue" points="715.2,-131.33 725.78,-130.94 717.26,-124.64 715.2,-131.33"/>
</g>
<!-- Node20 -->
<g id="node20" class="node">
<title>Node20</title>
<g id="a_node20"><a xlink:href="group__elements.html#ga13c46848317034d16c62a7d2061ba3d6" target="_top" xlink:title=" ">
<polygon fill="white" stroke="black" points="721.5,-86 721.5,-112 816.5,-112 816.5,-86 721.5,-86"/>
<text text-anchor="start" x="729.5" y="-101.6" font-family="SourceSans" font-size="8.00">svg::text_element::</text>
<text text-anchor="middle" x="769" y="-92.6" font-family="SourceSans" font-size="8.00">finish_element</text>
</a>
</g>
</g>
<!-- Node8&#45;&gt;Node20 -->
<g id="edge24" class="edge">
<title>Node8&#45;&gt;Node20</title>
<path fill="none" stroke="midnightblue" d="M665.37,-99C679.67,-99 695.84,-99 711.04,-99"/>
<polygon fill="midnightblue" stroke="midnightblue" points="711.38,-102.5 721.38,-99 711.38,-95.5 711.38,-102.5"/>
</g>
<!-- Node21 -->
<g id="node21" class="node">
<title>Node21</title>
<g id="a_node21"><a xlink:href="structsvg_1_1transform.html#acf9836f4ba647f0dd2b53963a0f714d0" target="_top" xlink:title=" ">
<polygon fill="white" stroke="black" points="715.5,-49.5 715.5,-66.5 822.5,-66.5 822.5,-49.5 715.5,-49.5"/>
<text text-anchor="middle" x="769" y="-56.1" font-family="SourceSans" font-size="8.00">svg::transform::rotate</text>
</a>
</g>
</g>
<!-- Node8&#45;&gt;Node21 -->
<g id="edge25" class="edge">
<title>Node8&#45;&gt;Node21</title>
<path fill="none" stroke="midnightblue" d="M653,-90.41C674.73,-84.28 704.15,-75.99 727.8,-69.33"/>
<polygon fill="midnightblue" stroke="midnightblue" points="728.86,-72.66 737.54,-66.58 726.96,-65.93 728.86,-72.66"/>
</g>
<!-- Node22 -->
<g id="node22" class="node">
<title>Node22</title>
<g id="a_node22"><a xlink:href="group__elements.html#ae45bec611a6ec17ea46aab6d680ae042" target="_top" xlink:title=" ">
<polygon fill="white" stroke="black" points="721.5,-4 721.5,-30 816.5,-30 816.5,-4 721.5,-4"/>
<text text-anchor="start" x="729.5" y="-19.6" font-family="SourceSans" font-size="8.00">svg::text_element::</text>
<text text-anchor="middle" x="769" y="-10.6" font-family="SourceSans" font-size="8.00">start_element</text>
</a>
</g>
</g>
<!-- Node8&#45;&gt;Node22 -->
<g id="edge26" class="edge">
<title>Node8&#45;&gt;Node22</title>
<path fill="none" stroke="midnightblue" d="M634.53,-90.3C651.65,-78.13 684.28,-55.77 714,-40 717.7,-38.04 721.6,-36.12 725.54,-34.27"/>
<polygon fill="midnightblue" stroke="midnightblue" points="727.07,-37.42 734.74,-30.11 724.19,-31.04 727.07,-37.42"/>
</g>
<!-- Node10 -->
<g id="node10" class="node">
<title>Node10</title>
<g id="a_node10"><a xlink:href="structsvg_1_1typography.html#adbc62f74f1fed3f7c77567250f084f83" target="_top" xlink:title=" ">
<polygon fill="white" stroke="black" points="860,-197 860,-223 965,-223 965,-197 860,-197"/>
<text text-anchor="start" x="868" y="-212.6" font-family="SourceSans" font-size="8.00">svg::typography::add</text>
<text text-anchor="middle" x="912.5" y="-203.6" font-family="SourceSans" font-size="8.00">_attribute</text>
</a>
</g>
</g>
<!-- Node9&#45;&gt;Node10 -->
<g id="edge9" class="edge">
<title>Node9&#45;&gt;Node10</title>
<path fill="none" stroke="midnightblue" d="M816.72,-195.93C827.33,-197.51 838.74,-199.2 849.86,-200.85"/>
<polygon fill="midnightblue" stroke="midnightblue" points="849.54,-204.34 859.94,-202.35 850.57,-197.42 849.54,-204.34"/>
</g>
<!-- Node13 -->
<g id="node13" class="node">
<title>Node13</title>
<g id="a_node13"><a xlink:href="namespacesvg.html#a48ac748e89e22789d1772326a98dd7b6" target="_top" xlink:title=" ">
<polygon fill="white" stroke="black" points="1004,-119.5 1004,-136.5 1099,-136.5 1099,-119.5 1004,-119.5"/>
<text text-anchor="middle" x="1051.5" y="-126.1" font-family="SourceSans" font-size="8.00">svg::string_replace</text>
</a>
</g>
</g>
<!-- Node9&#45;&gt;Node13 -->
<g id="edge21" class="edge">
<title>Node9&#45;&gt;Node13</title>
<path fill="none" stroke="midnightblue" d="M816.6,-179.97C856.17,-172.17 914.43,-160.39 965,-149 978.66,-145.92 993.5,-142.36 1006.92,-139.05"/>
<polygon fill="midnightblue" stroke="midnightblue" points="1008,-142.38 1016.87,-136.58 1006.32,-135.59 1008,-142.38"/>
</g>
<!-- Node17 -->
<g id="node17" class="node">
<title>Node17</title>
<g id="a_node17"><a xlink:href="group__elements.html#a53d72a7ff728ad1d4d027254530bcf3d" target="_top" xlink:title="Common transforms include rotate(180)">
<polygon fill="white" stroke="black" points="1001,-314 1001,-340 1102,-340 1102,-314 1001,-314"/>
<text text-anchor="start" x="1009" y="-329.6" font-family="SourceSans" font-size="8.00">svg::element_base::</text>
<text text-anchor="middle" x="1051.5" y="-320.6" font-family="SourceSans" font-size="8.00">add_transform</text>
</a>
</g>
</g>
<!-- Node9&#45;&gt;Node17 -->
<g id="edge18" class="edge">
<title>Node9&#45;&gt;Node17</title>
<path fill="none" stroke="midnightblue" d="M796.64,-202.11C847.42,-227.09 958.07,-281.53 1015.04,-309.55"/>
<polygon fill="midnightblue" stroke="midnightblue" points="1013.52,-312.71 1024.04,-313.98 1016.61,-306.43 1013.52,-312.71"/>
</g>
<!-- Node18 -->
<g id="node18" class="node">
<title>Node18</title>
<g id="a_node18"><a xlink:href="namespacesvg.html#a36b1c48ad4601b205790e3772ad0a7b6" target="_top" xlink:title=" ">
<polygon fill="white" stroke="black" points="876.5,-122.5 876.5,-139.5 948.5,-139.5 948.5,-122.5 876.5,-122.5"/>
<text text-anchor="middle" x="912.5" y="-129.1" font-family="SourceSans" font-size="8.00">svg::to_string</text>
</a>
</g>
</g>
<!-- Node9&#45;&gt;Node18 -->
<g id="edge22" class="edge">
<title>Node9&#45;&gt;Node18</title>
<path fill="none" stroke="midnightblue" d="M801.76,-175.98C825.43,-166.28 857.57,-153.11 880.94,-143.53"/>
<polygon fill="midnightblue" stroke="midnightblue" points="882.45,-146.69 890.38,-139.66 879.8,-140.21 882.45,-146.69"/>
</g>
<!-- Node11 -->
<g id="node11" class="node">
<title>Node11</title>
<g id="a_node11"><a xlink:href="namespacesvg_1_1constants.html#a3972655f1dfdc090ec2592d1fb37e87c" target="_top" xlink:title=" ">
<polygon fill="white" stroke="black" points="1138.5,-238.5 1138.5,-255.5 1245.5,-255.5 1245.5,-238.5 1138.5,-238.5"/>
<text text-anchor="middle" x="1192" y="-245.1" font-family="SourceSans" font-size="8.00">svg::constants::quote</text>
</a>
</g>
</g>
<!-- Node10&#45;&gt;Node11 -->
<g id="edge10" class="edge">
<title>Node10&#45;&gt;Node11</title>
<path fill="none" stroke="midnightblue" d="M965.16,-221.55C976.9,-223.92 989.35,-226.22 1001,-228 1043.24,-234.44 1091.1,-239.21 1128.23,-242.36"/>
<polygon fill="midnightblue" stroke="midnightblue" points="1128.14,-245.87 1138.4,-243.21 1128.72,-238.89 1128.14,-245.87"/>
</g>
<!-- Node12 -->
<g id="node12" class="node">
<title>Node12</title>
<g id="a_node12"><a xlink:href="namespacesvg_1_1constants.html#ac460bc8db60d85c3ae1cf8b1a903405e" target="_top" xlink:title="Formatting character constants.">
<polygon fill="white" stroke="black" points="1138,-276.5 1138,-293.5 1246,-293.5 1246,-276.5 1138,-276.5"/>
<text text-anchor="middle" x="1192" y="-283.1" font-family="SourceSans" font-size="8.00">svg::constants::space</text>
</a>
</g>
</g>
<!-- Node10&#45;&gt;Node12 -->
<g id="edge11" class="edge">
<title>Node10&#45;&gt;Node12</title>
<path fill="none" stroke="midnightblue" d="M940.55,-223.12C957.58,-230.96 980.19,-240.59 1001,-247 1042.44,-259.76 1090.31,-269.3 1127.63,-275.63"/>
<polygon fill="midnightblue" stroke="midnightblue" points="1127.43,-279.15 1137.87,-277.34 1128.57,-272.24 1127.43,-279.15"/>
</g>
<!-- Node10&#45;&gt;Node13 -->
<g id="edge12" class="edge">
<title>Node10&#45;&gt;Node13</title>
<path fill="none" stroke="midnightblue" d="M941.12,-196.86C949.12,-192.57 957.66,-187.48 965,-182 983.13,-168.46 981.91,-158.15 1001,-146 1004.16,-143.99 1007.57,-142.16 1011.07,-140.51"/>
<polygon fill="midnightblue" stroke="midnightblue" points="1012.6,-143.66 1020.45,-136.55 1009.88,-137.22 1012.6,-143.66"/>
</g>
<!-- Node14 -->
<g id="node14" class="node">
<title>Node14</title>
<g id="a_node14"><a xlink:href="structsvg_1_1typography.html#a174c1ffb4e56214d71523ffe7e422561" target="_top" xlink:title=" ">
<polygon fill="white" stroke="black" points="1002.5,-156 1002.5,-182 1100.5,-182 1100.5,-156 1002.5,-156"/>
<text text-anchor="start" x="1010.5" y="-171.6" font-family="SourceSans" font-size="8.00">svg::typography::to</text>
<text text-anchor="middle" x="1051.5" y="-162.6" font-family="SourceSans" font-size="8.00">_string</text>
</a>
</g>
</g>
<!-- Node10&#45;&gt;Node14 -->
<g id="edge13" class="edge">
<title>Node10&#45;&gt;Node14</title>
<path fill="none" stroke="midnightblue" d="M957.22,-196.91C969.83,-193.14 983.73,-188.98 996.86,-185.05"/>
<polygon fill="midnightblue" stroke="midnightblue" points="998.14,-188.32 1006.72,-182.1 996.14,-181.62 998.14,-188.32"/>
</g>
<!-- Node15 -->
<g id="node15" class="node">
<title>Node15</title>
<g id="a_node15"><a xlink:href="namespacesvg.html#a7363f3de9a003a4399e7ede9036299d4" target="_top" xlink:title=" ">
<polygon fill="white" stroke="black" points="1015.5,-201.5 1015.5,-218.5 1087.5,-218.5 1087.5,-201.5 1015.5,-201.5"/>
<text text-anchor="middle" x="1051.5" y="-208.1" font-family="SourceSans" font-size="8.00">svg::to_string</text>
</a>
</g>
</g>
<!-- Node10&#45;&gt;Node15 -->
<g id="edge14" class="edge">
<title>Node10&#45;&gt;Node15</title>
<path fill="none" stroke="midnightblue" d="M965.29,-210C978.32,-210 992.2,-210 1004.89,-210"/>
<polygon fill="midnightblue" stroke="midnightblue" points="1005.24,-213.5 1015.24,-210 1005.24,-206.5 1005.24,-213.5"/>
</g>
<!-- Node15&#45;&gt;Node11 -->
<g id="edge15" class="edge">
<title>Node15&#45;&gt;Node11</title>
<path fill="none" stroke="midnightblue" d="M1084.62,-218.58C1103.85,-223.72 1128.5,-230.3 1149.23,-235.84"/>
<polygon fill="midnightblue" stroke="midnightblue" points="1148.49,-239.27 1159.05,-238.46 1150.29,-232.5 1148.49,-239.27"/>
</g>
<!-- Node15&#45;&gt;Node12 -->
<g id="edge16" class="edge">
<title>Node15&#45;&gt;Node12</title>
<path fill="none" stroke="midnightblue" d="M1064.2,-218.67C1080.25,-230.28 1110.25,-251.04 1138,-265 1143.52,-267.78 1149.51,-270.39 1155.42,-272.76"/>
<polygon fill="midnightblue" stroke="midnightblue" points="1154.6,-276.19 1165.19,-276.5 1157.1,-269.66 1154.6,-276.19"/>
</g>
<!-- Node16 -->
<g id="node16" class="node">
<title>Node16</title>
<g id="a_node16"><a xlink:href="structsvg_1_1colorq.html#adb55a2a48193fafa55340505862278e4" target="_top" xlink:title=" ">
<polygon fill="white" stroke="black" points="1140,-201.5 1140,-218.5 1244,-218.5 1244,-201.5 1140,-201.5"/>
<text text-anchor="middle" x="1192" y="-208.1" font-family="SourceSans" font-size="8.00">svg::colorq::to_string</text>
</a>
</g>
</g>
<!-- Node15&#45;&gt;Node16 -->
<g id="edge17" class="edge">
<title>Node15&#45;&gt;Node16</title>
<path fill="none" stroke="midnightblue" d="M1087.81,-210C1100.51,-210 1115.24,-210 1129.53,-210"/>
<polygon fill="midnightblue" stroke="midnightblue" points="1129.81,-213.5 1139.81,-210 1129.81,-206.5 1129.81,-213.5"/>
</g>
<!-- Node17&#45;&gt;Node11 -->
<g id="edge19" class="edge">
<title>Node17&#45;&gt;Node11</title>
<path fill="none" stroke="midnightblue" d="M1068.42,-313.98C1085.03,-300.86 1112.19,-280.65 1138,-267 1143.35,-264.17 1149.18,-261.55 1154.97,-259.2"/>
<polygon fill="midnightblue" stroke="midnightblue" points="1156.48,-262.36 1164.55,-255.5 1153.96,-255.83 1156.48,-262.36"/>
</g>
<!-- Node17&#45;&gt;Node12 -->
<g id="edge20" class="edge">
<title>Node17&#45;&gt;Node12</title>
<path fill="none" stroke="midnightblue" d="M1095.56,-313.94C1113.88,-308.39 1135.07,-301.96 1152.82,-296.58"/>
<polygon fill="midnightblue" stroke="midnightblue" points="1154.28,-299.79 1162.83,-293.54 1152.25,-293.09 1154.28,-299.79"/>
</g>
<!-- Node23&#45;&gt;Node8 -->
<g id="edge28" class="edge">
<title>Node23&#45;&gt;Node8</title>
<path fill="none" stroke="midnightblue" d="M512.71,-111.6C530.04,-109.57 549.87,-107.26 567.76,-105.16"/>
<polygon fill="midnightblue" stroke="midnightblue" points="568.22,-108.63 577.75,-104 567.41,-101.68 568.22,-108.63"/>
</g>
</g>
</svg>
        <g id="navigator" transform="translate(0 0)" fill="#404254">
                <rect fill="#f2f5e9" fill-opacity="0.5" stroke="#606060" stroke-width=".5" x="0" y="0" width="60" height="60"/>
                <use id="zoomplus" xlink:href="#zoomPlus" x="17" y="9" onmousedown="handleZoom(evt,'in')"/>
                <use id="zoomminus" xlink:href="#zoomMin" x="42" y="9" onmousedown="handleZoom(evt,'out')"/>
                <use id="reset" xlink:href="#resetDef" x="30" y="36" onmousedown="handleReset()"/>
                <g id="arrowUp" xlink:href="#dirArrow" transform="translate(30 24)" onmousedown="handlePan(0,-1)">
                  <use xlink:href="#rim" fill="#404040">
                        <set attributeName="fill" to="#808080" begin="arrowUp.mouseover" end="arrowUp.mouseout"/>
                  </use>
                  <path fill="none" stroke="white" stroke-width="1.5" d="M0,-3.0v7 M-2.5,-0.5L0,-3.0L2.5,-0.5"/>
                </g>
                <g id="arrowRight" xlink:href="#dirArrow" transform="rotate(90) translate(36 -43)" onmousedown="handlePan(1,0)">
                  <use xlink:href="#rim" fill="#404040">
                        <set attributeName="fill" to="#808080" begin="arrowRight.mouseover" end="arrowRight.mouseout"/>
                  </use>
                  <path fill="none" stroke="white" stroke-width="1.5" d="M0,-3.0v7 M-2.5,-0.5L0,-3.0L2.5,-0.5"/>
                </g>
                <g id="arrowDown" xlink:href="#dirArrow" transform="rotate(180) translate(-30 -48)" onmousedown="handlePan(0,1)">
                  <use xlink:href="#rim" fill="#404040">
                        <set attributeName="fill" to="#808080" begin="arrowDown.mouseover" end="arrowDown.mouseout"/>
                  </use>
                  <path fill="none" stroke="white" stroke-width="1.5" d="M0,-3.0v7 M-2.5,-0.5L0,-3.0L2.5,-0.5"/>
                </g>
                <g id="arrowLeft" xlink:href="#dirArrow" transform="rotate(270) translate(-36 17)" onmousedown="handlePan(-1,0)">
                  <use xlink:href="#rim" fill="#404040">
                        <set attributeName="fill" to="#808080" begin="arrowLeft.mouseover" end="arrowLeft.mouseout"/>
                  </use>
                  <path fill="none" stroke="white" stroke-width="1.5" d="M0,-3.0v7 M-2.5,-0.5L0,-3.0L2.5,-0.5"/>
                </g>
        </g>
        <svg viewBox="0 0 15 15" width="100%" height="30px" preserveAspectRatio="xMaxYMin meet">
         <g id="arrow_out" transform="scale(0.3 0.3)">
          <a xlink:href="namespacesvg_a95ce7af851cb8dfa4f718ed04b94db93_cgraph_org.svg" target="_base">
           <rect id="button" ry="5" rx="5" y="6" x="6" height="38" width="38"
                fill="#f2f5e9" fill-opacity="0.5" stroke="#606060" stroke-width="1.0"/>
           <path id="arrow"
             d="M 11.500037,31.436501 C 11.940474,20.09759 22.043105,11.32322 32.158766,21.979434 L 37.068811,17.246167 C 37.068811,17.246167 37.088388,32 37.088388,32 L 22.160133,31.978069 C 22.160133,31.978069 26.997745,27.140456 26.997745,27.140456 C 18.528582,18.264221 13.291696,25.230495 11.500037,31.436501 z"
             style="fill:#404040;"/>
          </a>
         </g>
        </svg>
</svg>
