<?xml version="1.0" encoding="UTF-8" standalone="no"?>
<!DOCTYPE svg PUBLIC "-//W3C//DTD SVG 1.1//EN"
 "http://www.w3.org/Graphics/SVG/1.1/DTD/svg11.dtd">
<!-- Generated by graphviz version 2.44.0 (0)
 -->
<!-- Title: svg::radial_text_ccw Pages: 1 -->
<!--zoomable 345 -->
<svg id="main" version="1.1" xmlns="http://www.w3.org/2000/svg" xmlns:xlink="http://www.w3.org/1999/xlink" xml:space="preserve" onload="init(evt)">
<style type="text/css"><![CDATA[
.edge:hover path { stroke: red; }
.edge:hover polygon { stroke: red; fill: red; }
]]></style>
<script type="text/javascript"><![CDATA[
var edges = document.getElementsByTagName('g');
if (edges && edges.length) {
  for (var i=0;i<edges.length;i++) {
    if (edges[i].id.substr(0,4)=='edge') {
      edges[i].setAttribute('class','edge');
    }
  }
}
]]></script>
        <defs>
                <circle id="rim" cx="0" cy="0" r="7"/>
                <circle id="rim2" cx="0" cy="0" r="3.5"/>
                <g id="zoomPlus">
                        <use xlink:href="#rim" fill="#404040">
                                <set attributeName="fill" to="#808080" begin="zoomplus.mouseover" end="zoomplus.mouseout"/>
                        </use>
                        <path d="M-4,0h8M0,-4v8" fill="none" stroke="white" stroke-width="1.5" pointer-events="none"/>
                </g>
                <g id="zoomMin">
                        <use xlink:href="#rim" fill="#404040">
                                <set attributeName="fill" to="#808080" begin="zoomminus.mouseover" end="zoomminus.mouseout"/>
                        </use>
                        <path d="M-4,0h8" fill="none" stroke="white" stroke-width="1.5" pointer-events="none"/>
                </g>
                <g id="dirArrow">
                        <path fill="none" stroke="white" stroke-width="1.5" d="M0,-3.0v7 M-2.5,-0.5L0,-3.0L2.5,-0.5"/>
                </g>
               <g id="resetDef">
                       <use xlink:href="#rim2" fill="#404040">
                               <set attributeName="fill" to="#808080" begin="reset.mouseover" end="reset.mouseout"/>
                       </use>
               </g>
        </defs>

<script type="text/javascript">
var viewWidth = 797;
var viewHeight = 345;
var sectionId = 'dynsection-44';
</script>
<script xlink:href="svgpan.js"/>
<svg id="graph" class="graph">
<g id="viewport">
<title>svg::radial_text_ccw</title>
<polygon fill="white" stroke="transparent" points="-4,4 -4,-341 793,-341 793,4 -4,4"/>
<!-- Node1 -->
<g id="node1" class="node">
<title>Node1</title>
<g id="a_node1"><a xlink:title="Text with typography, arranged ccw around points (x,y) on a circle.">
<polygon fill="#bfbfbf" stroke="black" points="0,-87 0,-104 98,-104 98,-87 0,-87"/>
<text text-anchor="middle" x="49" y="-93.6" font-family="SourceSans" font-size="8.00">svg::radial_text_ccw</text>
</a>
</g>
</g>
<!-- Node2 -->
<g id="node2" class="node">
<title>Node2</title>
<g id="a_node2"><a xlink:href="namespacesvg.html#a5791c1fc9121f01e5f666b7ce0367dfa" target="_top" xlink:title="Text at @origin, with style and ... a transformation=rotation of @deg about @rorigin.">
<polygon fill="white" stroke="black" points="134,-87 134,-104 221,-104 221,-87 134,-87"/>
<text text-anchor="middle" x="177.5" y="-93.6" font-family="SourceSans" font-size="8.00">svg::styled_text_r</text>
</a>
</g>
</g>
<!-- Node1&#45;&gt;Node2 -->
<g id="edge1" class="edge">
<title>Node1&#45;&gt;Node2</title>
<path fill="none" stroke="midnightblue" d="M98.19,-95.5C106.52,-95.5 115.23,-95.5 123.69,-95.5"/>
<polygon fill="midnightblue" stroke="midnightblue" points="123.83,-99 133.83,-95.5 123.83,-92 123.83,-99"/>
</g>
<!-- Node3 -->
<g id="node3" class="node">
<title>Node3</title>
<g id="a_node3"><a xlink:href="group__elements.html#aad29e1daf75bdcd69a39575a6807fa0f" target="_top" xlink:title="Either serialize immediately (as below), or create data structure that adds data to data_vec and then...">
<polygon fill="white" stroke="black" points="264.5,-172.5 264.5,-198.5 359.5,-198.5 359.5,-172.5 264.5,-172.5"/>
<text text-anchor="start" x="272.5" y="-188.1" font-family="SourceSans" font-size="8.00">svg::text_element::</text>
<text text-anchor="middle" x="312" y="-179.1" font-family="SourceSans" font-size="8.00">add_data</text>
</a>
</g>
</g>
<!-- Node2&#45;&gt;Node3 -->
<g id="edge2" class="edge">
<title>Node2&#45;&gt;Node3</title>
<path fill="none" stroke="midnightblue" d="M186.98,-104.3C200.68,-118.12 228.97,-145.14 257,-162.5 260.13,-164.44 263.45,-166.29 266.85,-168.03"/>
<polygon fill="midnightblue" stroke="midnightblue" points="265.41,-171.23 275.94,-172.41 268.44,-164.92 265.41,-171.23"/>
</g>
<!-- Node13 -->
<g id="node13" class="node">
<title>Node13</title>
<g id="a_node13"><a xlink:href="group__elements.html#adb6116b96467cc39cb178deb10c7a869" target="_top" xlink:title=" ">
<polygon fill="white" stroke="black" points="257,-127.5 257,-153.5 367,-153.5 367,-127.5 257,-127.5"/>
<text text-anchor="start" x="265" y="-143.1" font-family="SourceSans" font-size="8.00">svg::svg_element::add</text>
<text text-anchor="middle" x="312" y="-134.1" font-family="SourceSans" font-size="8.00">_element</text>
</a>
</g>
</g>
<!-- Node2&#45;&gt;Node13 -->
<g id="edge17" class="edge">
<title>Node2&#45;&gt;Node13</title>
<path fill="none" stroke="midnightblue" d="M203.73,-104.07C220.45,-109.75 242.9,-117.37 262.94,-124.18"/>
<polygon fill="midnightblue" stroke="midnightblue" points="261.96,-127.54 272.56,-127.44 264.21,-120.91 261.96,-127.54"/>
</g>
<!-- Node14 -->
<g id="node14" class="node">
<title>Node14</title>
<g id="a_node14"><a xlink:href="group__elements.html#ga13c46848317034d16c62a7d2061ba3d6" target="_top" xlink:title=" ">
<polygon fill="white" stroke="black" points="264.5,-82.5 264.5,-108.5 359.5,-108.5 359.5,-82.5 264.5,-82.5"/>
<text text-anchor="start" x="272.5" y="-98.1" font-family="SourceSans" font-size="8.00">svg::text_element::</text>
<text text-anchor="middle" x="312" y="-89.1" font-family="SourceSans" font-size="8.00">finish_element</text>
</a>
</g>
</g>
<!-- Node2&#45;&gt;Node14 -->
<g id="edge18" class="edge">
<title>Node2&#45;&gt;Node14</title>
<path fill="none" stroke="midnightblue" d="M221.15,-95.5C231.69,-95.5 243.15,-95.5 254.25,-95.5"/>
<polygon fill="midnightblue" stroke="midnightblue" points="254.3,-99 264.3,-95.5 254.3,-92 254.3,-99"/>
</g>
<!-- Node15 -->
<g id="node15" class="node">
<title>Node15</title>
<g id="a_node15"><a xlink:href="structsvg_1_1transform.html#acf9836f4ba647f0dd2b53963a0f714d0" target="_top" xlink:title=" ">
<polygon fill="white" stroke="black" points="258.5,-46 258.5,-63 365.5,-63 365.5,-46 258.5,-46"/>
<text text-anchor="middle" x="312" y="-52.6" font-family="SourceSans" font-size="8.00">svg::transform::rotate</text>
</a>
</g>
</g>
<!-- Node2&#45;&gt;Node15 -->
<g id="edge19" class="edge">
<title>Node2&#45;&gt;Node15</title>
<path fill="none" stroke="midnightblue" d="M206.28,-86.91C225.8,-80.86 252.14,-72.71 273.52,-66.1"/>
<polygon fill="midnightblue" stroke="midnightblue" points="274.74,-69.38 283.26,-63.08 272.67,-62.7 274.74,-69.38"/>
</g>
<!-- Node16 -->
<g id="node16" class="node">
<title>Node16</title>
<g id="a_node16"><a xlink:href="group__elements.html#ae45bec611a6ec17ea46aab6d680ae042" target="_top" xlink:title=" ">
<polygon fill="white" stroke="black" points="264.5,-0.5 264.5,-26.5 359.5,-26.5 359.5,-0.5 264.5,-0.5"/>
<text text-anchor="start" x="272.5" y="-16.1" font-family="SourceSans" font-size="8.00">svg::text_element::</text>
<text text-anchor="middle" x="312" y="-7.1" font-family="SourceSans" font-size="8.00">start_element</text>
</a>
</g>
</g>
<!-- Node2&#45;&gt;Node16 -->
<g id="edge20" class="edge">
<title>Node2&#45;&gt;Node16</title>
<path fill="none" stroke="midnightblue" d="M188.6,-86.63C203.03,-74.27 230.72,-51.67 257,-36.5 260.43,-34.52 264.06,-32.61 267.75,-30.8"/>
<polygon fill="midnightblue" stroke="midnightblue" points="269.39,-33.9 276.97,-26.51 266.43,-27.55 269.39,-33.9"/>
</g>
<!-- Node4 -->
<g id="node4" class="node">
<title>Node4</title>
<g id="a_node4"><a xlink:href="structsvg_1_1typography.html#adbc62f74f1fed3f7c77567250f084f83" target="_top" xlink:title=" ">
<polygon fill="white" stroke="black" points="403,-193.5 403,-219.5 508,-219.5 508,-193.5 403,-193.5"/>
<text text-anchor="start" x="411" y="-209.1" font-family="SourceSans" font-size="8.00">svg::typography::add</text>
<text text-anchor="middle" x="455.5" y="-200.1" font-family="SourceSans" font-size="8.00">_attribute</text>
</a>
</g>
</g>
<!-- Node3&#45;&gt;Node4 -->
<g id="edge3" class="edge">
<title>Node3&#45;&gt;Node4</title>
<path fill="none" stroke="midnightblue" d="M359.72,-192.43C370.33,-194.01 381.74,-195.7 392.86,-197.35"/>
<polygon fill="midnightblue" stroke="midnightblue" points="392.54,-200.84 402.94,-198.85 393.57,-193.92 392.54,-200.84"/>
</g>
<!-- Node7 -->
<g id="node7" class="node">
<title>Node7</title>
<g id="a_node7"><a xlink:href="namespacesvg.html#a48ac748e89e22789d1772326a98dd7b6" target="_top" xlink:title=" ">
<polygon fill="white" stroke="black" points="547,-116 547,-133 642,-133 642,-116 547,-116"/>
<text text-anchor="middle" x="594.5" y="-122.6" font-family="SourceSans" font-size="8.00">svg::string_replace</text>
</a>
</g>
</g>
<!-- Node3&#45;&gt;Node7 -->
<g id="edge15" class="edge">
<title>Node3&#45;&gt;Node7</title>
<path fill="none" stroke="midnightblue" d="M359.6,-176.47C399.17,-168.67 457.43,-156.89 508,-145.5 521.66,-142.42 536.5,-138.86 549.92,-135.55"/>
<polygon fill="midnightblue" stroke="midnightblue" points="551,-138.88 559.87,-133.08 549.32,-132.09 551,-138.88"/>
</g>
<!-- Node11 -->
<g id="node11" class="node">
<title>Node11</title>
<g id="a_node11"><a xlink:href="group__elements.html#a53d72a7ff728ad1d4d027254530bcf3d" target="_top" xlink:title="Common transforms include rotate(180)">
<polygon fill="white" stroke="black" points="544,-310.5 544,-336.5 645,-336.5 645,-310.5 544,-310.5"/>
<text text-anchor="start" x="552" y="-326.1" font-family="SourceSans" font-size="8.00">svg::element_base::</text>
<text text-anchor="middle" x="594.5" y="-317.1" font-family="SourceSans" font-size="8.00">add_transform</text>
</a>
</g>
</g>
<!-- Node3&#45;&gt;Node11 -->
<g id="edge12" class="edge">
<title>Node3&#45;&gt;Node11</title>
<path fill="none" stroke="midnightblue" d="M339.64,-198.61C390.42,-223.59 501.07,-278.03 558.04,-306.05"/>
<polygon fill="midnightblue" stroke="midnightblue" points="556.52,-309.21 567.04,-310.48 559.61,-302.93 556.52,-309.21"/>
</g>
<!-- Node12 -->
<g id="node12" class="node">
<title>Node12</title>
<g id="a_node12"><a xlink:href="namespacesvg.html#a36b1c48ad4601b205790e3772ad0a7b6" target="_top" xlink:title=" ">
<polygon fill="white" stroke="black" points="419.5,-119 419.5,-136 491.5,-136 491.5,-119 419.5,-119"/>
<text text-anchor="middle" x="455.5" y="-125.6" font-family="SourceSans" font-size="8.00">svg::to_string</text>
</a>
</g>
</g>
<!-- Node3&#45;&gt;Node12 -->
<g id="edge16" class="edge">
<title>Node3&#45;&gt;Node12</title>
<path fill="none" stroke="midnightblue" d="M344.76,-172.48C368.43,-162.78 400.57,-149.61 423.94,-140.03"/>
<polygon fill="midnightblue" stroke="midnightblue" points="425.45,-143.19 433.38,-136.16 422.8,-136.71 425.45,-143.19"/>
</g>
<!-- Node5 -->
<g id="node5" class="node">
<title>Node5</title>
<g id="a_node5"><a xlink:href="namespacesvg_1_1constants.html#a3972655f1dfdc090ec2592d1fb37e87c" target="_top" xlink:title=" ">
<polygon fill="white" stroke="black" points="681.5,-235 681.5,-252 788.5,-252 788.5,-235 681.5,-235"/>
<text text-anchor="middle" x="735" y="-241.6" font-family="SourceSans" font-size="8.00">svg::constants::quote</text>
</a>
</g>
</g>
<!-- Node4&#45;&gt;Node5 -->
<g id="edge4" class="edge">
<title>Node4&#45;&gt;Node5</title>
<path fill="none" stroke="midnightblue" d="M508.16,-218.05C519.9,-220.42 532.35,-222.72 544,-224.5 586.24,-230.94 634.1,-235.71 671.23,-238.86"/>
<polygon fill="midnightblue" stroke="midnightblue" points="671.14,-242.37 681.4,-239.71 671.72,-235.39 671.14,-242.37"/>
</g>
<!-- Node6 -->
<g id="node6" class="node">
<title>Node6</title>
<g id="a_node6"><a xlink:href="namespacesvg_1_1constants.html#ac460bc8db60d85c3ae1cf8b1a903405e" target="_top" xlink:title="Formatting character constants.">
<polygon fill="white" stroke="black" points="681,-273 681,-290 789,-290 789,-273 681,-273"/>
<text text-anchor="middle" x="735" y="-279.6" font-family="SourceSans" font-size="8.00">svg::constants::space</text>
</a>
</g>
</g>
<!-- Node4&#45;&gt;Node6 -->
<g id="edge5" class="edge">
<title>Node4&#45;&gt;Node6</title>
<path fill="none" stroke="midnightblue" d="M483.55,-219.62C500.58,-227.46 523.19,-237.09 544,-243.5 585.44,-256.26 633.31,-265.8 670.63,-272.13"/>
<polygon fill="midnightblue" stroke="midnightblue" points="670.43,-275.65 680.87,-273.84 671.57,-268.74 670.43,-275.65"/>
</g>
<!-- Node4&#45;&gt;Node7 -->
<g id="edge6" class="edge">
<title>Node4&#45;&gt;Node7</title>
<path fill="none" stroke="midnightblue" d="M484.12,-193.36C492.12,-189.07 500.66,-183.98 508,-178.5 526.13,-164.96 524.91,-154.65 544,-142.5 547.16,-140.49 550.57,-138.66 554.07,-137.01"/>
<polygon fill="midnightblue" stroke="midnightblue" points="555.6,-140.16 563.45,-133.05 552.88,-133.72 555.6,-140.16"/>
</g>
<!-- Node8 -->
<g id="node8" class="node">
<title>Node8</title>
<g id="a_node8"><a xlink:href="structsvg_1_1typography.html#a174c1ffb4e56214d71523ffe7e422561" target="_top" xlink:title=" ">
<polygon fill="white" stroke="black" points="545.5,-152.5 545.5,-178.5 643.5,-178.5 643.5,-152.5 545.5,-152.5"/>
<text text-anchor="start" x="553.5" y="-168.1" font-family="SourceSans" font-size="8.00">svg::typography::to</text>
<text text-anchor="middle" x="594.5" y="-159.1" font-family="SourceSans" font-size="8.00">_string</text>
</a>
</g>
</g>
<!-- Node4&#45;&gt;Node8 -->
<g id="edge7" class="edge">
<title>Node4&#45;&gt;Node8</title>
<path fill="none" stroke="midnightblue" d="M500.22,-193.41C512.83,-189.64 526.73,-185.48 539.86,-181.55"/>
<polygon fill="midnightblue" stroke="midnightblue" points="541.14,-184.82 549.72,-178.6 539.14,-178.12 541.14,-184.82"/>
</g>
<!-- Node9 -->
<g id="node9" class="node">
<title>Node9</title>
<g id="a_node9"><a xlink:href="namespacesvg.html#a7363f3de9a003a4399e7ede9036299d4" target="_top" xlink:title=" ">
<polygon fill="white" stroke="black" points="558.5,-198 558.5,-215 630.5,-215 630.5,-198 558.5,-198"/>
<text text-anchor="middle" x="594.5" y="-204.6" font-family="SourceSans" font-size="8.00">svg::to_string</text>
</a>
</g>
</g>
<!-- Node4&#45;&gt;Node9 -->
<g id="edge8" class="edge">
<title>Node4&#45;&gt;Node9</title>
<path fill="none" stroke="midnightblue" d="M508.29,-206.5C521.32,-206.5 535.2,-206.5 547.89,-206.5"/>
<polygon fill="midnightblue" stroke="midnightblue" points="548.24,-210 558.24,-206.5 548.24,-203 548.24,-210"/>
</g>
<!-- Node9&#45;&gt;Node5 -->
<g id="edge9" class="edge">
<title>Node9&#45;&gt;Node5</title>
<path fill="none" stroke="midnightblue" d="M627.62,-215.08C646.85,-220.22 671.5,-226.8 692.23,-232.34"/>
<polygon fill="midnightblue" stroke="midnightblue" points="691.49,-235.77 702.05,-234.96 693.29,-229 691.49,-235.77"/>
</g>
<!-- Node9&#45;&gt;Node6 -->
<g id="edge10" class="edge">
<title>Node9&#45;&gt;Node6</title>
<path fill="none" stroke="midnightblue" d="M607.2,-215.17C623.25,-226.78 653.25,-247.54 681,-261.5 686.52,-264.28 692.51,-266.89 698.42,-269.26"/>
<polygon fill="midnightblue" stroke="midnightblue" points="697.6,-272.69 708.19,-273 700.1,-266.16 697.6,-272.69"/>
</g>
<!-- Node10 -->
<g id="node10" class="node">
<title>Node10</title>
<g id="a_node10"><a xlink:href="structsvg_1_1colorq.html#adb55a2a48193fafa55340505862278e4" target="_top" xlink:title=" ">
<polygon fill="white" stroke="black" points="683,-198 683,-215 787,-215 787,-198 683,-198"/>
<text text-anchor="middle" x="735" y="-204.6" font-family="SourceSans" font-size="8.00">svg::colorq::to_string</text>
</a>
</g>
</g>
<!-- Node9&#45;&gt;Node10 -->
<g id="edge11" class="edge">
<title>Node9&#45;&gt;Node10</title>
<path fill="none" stroke="midnightblue" d="M630.81,-206.5C643.51,-206.5 658.24,-206.5 672.53,-206.5"/>
<polygon fill="midnightblue" stroke="midnightblue" points="672.81,-210 682.81,-206.5 672.81,-203 672.81,-210"/>
</g>
<!-- Node11&#45;&gt;Node5 -->
<g id="edge13" class="edge">
<title>Node11&#45;&gt;Node5</title>
<path fill="none" stroke="midnightblue" d="M611.42,-310.48C628.03,-297.36 655.19,-277.15 681,-263.5 686.35,-260.67 692.18,-258.05 697.97,-255.7"/>
<polygon fill="midnightblue" stroke="midnightblue" points="699.48,-258.86 707.55,-252 696.96,-252.33 699.48,-258.86"/>
</g>
<!-- Node11&#45;&gt;Node6 -->
<g id="edge14" class="edge">
<title>Node11&#45;&gt;Node6</title>
<path fill="none" stroke="midnightblue" d="M638.56,-310.44C656.88,-304.89 678.07,-298.46 695.82,-293.08"/>
<polygon fill="midnightblue" stroke="midnightblue" points="697.28,-296.29 705.83,-290.04 695.25,-289.59 697.28,-296.29"/>
</g>
</g>
</svg>
        <g id="navigator" transform="translate(0 0)" fill="#404254">
                <rect fill="#f2f5e9" fill-opacity="0.5" stroke="#606060" stroke-width=".5" x="0" y="0" width="60" height="60"/>
                <use id="zoomplus" xlink:href="#zoomPlus" x="17" y="9" onmousedown="handleZoom(evt,'in')"/>
                <use id="zoomminus" xlink:href="#zoomMin" x="42" y="9" onmousedown="handleZoom(evt,'out')"/>
                <use id="reset" xlink:href="#resetDef" x="30" y="36" onmousedown="handleReset()"/>
                <g id="arrowUp" xlink:href="#dirArrow" transform="translate(30 24)" onmousedown="handlePan(0,-1)">
                  <use xlink:href="#rim" fill="#404040">
                        <set attributeName="fill" to="#808080" begin="arrowUp.mouseover" end="arrowUp.mouseout"/>
                  </use>
                  <path fill="none" stroke="white" stroke-width="1.5" d="M0,-3.0v7 M-2.5,-0.5L0,-3.0L2.5,-0.5"/>
                </g>
                <g id="arrowRight" xlink:href="#dirArrow" transform="rotate(90) translate(36 -43)" onmousedown="handlePan(1,0)">
                  <use xlink:href="#rim" fill="#404040">
                        <set attributeName="fill" to="#808080" begin="arrowRight.mouseover" end="arrowRight.mouseout"/>
                  </use>
                  <path fill="none" stroke="white" stroke-width="1.5" d="M0,-3.0v7 M-2.5,-0.5L0,-3.0L2.5,-0.5"/>
                </g>
                <g id="arrowDown" xlink:href="#dirArrow" transform="rotate(180) translate(-30 -48)" onmousedown="handlePan(0,1)">
                  <use xlink:href="#rim" fill="#404040">
                        <set attributeName="fill" to="#808080" begin="arrowDown.mouseover" end="arrowDown.mouseout"/>
                  </use>
                  <path fill="none" stroke="white" stroke-width="1.5" d="M0,-3.0v7 M-2.5,-0.5L0,-3.0L2.5,-0.5"/>
                </g>
                <g id="arrowLeft" xlink:href="#dirArrow" transform="rotate(270) translate(-36 17)" onmousedown="handlePan(-1,0)">
                  <use xlink:href="#rim" fill="#404040">
                        <set attributeName="fill" to="#808080" begin="arrowLeft.mouseover" end="arrowLeft.mouseout"/>
                  </use>
                  <path fill="none" stroke="white" stroke-width="1.5" d="M0,-3.0v7 M-2.5,-0.5L0,-3.0L2.5,-0.5"/>
                </g>
        </g>
        <svg viewBox="0 0 15 15" width="100%" height="30px" preserveAspectRatio="xMaxYMin meet">
         <g id="arrow_out" transform="scale(0.3 0.3)">
          <a xlink:href="namespacesvg_a8303be1e4c6178f031600fcd1a9c1ae1_cgraph_org.svg" target="_base">
           <rect id="button" ry="5" rx="5" y="6" x="6" height="38" width="38"
                fill="#f2f5e9" fill-opacity="0.5" stroke="#606060" stroke-width="1.0"/>
           <path id="arrow"
             d="M 11.500037,31.436501 C 11.940474,20.09759 22.043105,11.32322 32.158766,21.979434 L 37.068811,17.246167 C 37.068811,17.246167 37.088388,32 37.088388,32 L 22.160133,31.978069 C 22.160133,31.978069 26.997745,27.140456 26.997745,27.140456 C 18.528582,18.264221 13.291696,25.230495 11.500037,31.436501 z"
             style="fill:#404040;"/>
          </a>
         </g>
        </svg>
</svg>
