<?xml version="1.0" encoding="UTF-8" standalone="no"?>
<!DOCTYPE svg PUBLIC "-//W3C//DTD SVG 1.1//EN"
 "http://www.w3.org/Graphics/SVG/1.1/DTD/svg11.dtd">
<!-- Generated by graphviz version 2.44.0 (0)
 -->
<!-- Title: svg::sized_text Pages: 1 -->
<!--zoomable 308 -->
<svg id="main" version="1.1" xmlns="http://www.w3.org/2000/svg" xmlns:xlink="http://www.w3.org/1999/xlink" xml:space="preserve" onload="init(evt)">
<style type="text/css"><![CDATA[
.edge:hover path { stroke: red; }
.edge:hover polygon { stroke: red; fill: red; }
]]></style>
<script type="text/javascript"><![CDATA[
var edges = document.getElementsByTagName('g');
if (edges && edges.length) {
  for (var i=0;i<edges.length;i++) {
    if (edges[i].id.substr(0,4)=='edge') {
      edges[i].setAttribute('class','edge');
    }
  }
}
]]></script>
        <defs>
                <circle id="rim" cx="0" cy="0" r="7"/>
                <circle id="rim2" cx="0" cy="0" r="3.5"/>
                <g id="zoomPlus">
                        <use xlink:href="#rim" fill="#404040">
                                <set attributeName="fill" to="#808080" begin="zoomplus.mouseover" end="zoomplus.mouseout"/>
                        </use>
                        <path d="M-4,0h8M0,-4v8" fill="none" stroke="white" stroke-width="1.5" pointer-events="none"/>
                </g>
                <g id="zoomMin">
                        <use xlink:href="#rim" fill="#404040">
                                <set attributeName="fill" to="#808080" begin="zoomminus.mouseover" end="zoomminus.mouseout"/>
                        </use>
                        <path d="M-4,0h8" fill="none" stroke="white" stroke-width="1.5" pointer-events="none"/>
                </g>
                <g id="dirArrow">
                        <path fill="none" stroke="white" stroke-width="1.5" d="M0,-3.0v7 M-2.5,-0.5L0,-3.0L2.5,-0.5"/>
                </g>
               <g id="resetDef">
                       <use xlink:href="#rim2" fill="#404040">
                               <set attributeName="fill" to="#808080" begin="reset.mouseover" end="reset.mouseout"/>
                       </use>
               </g>
        </defs>

<script type="text/javascript">
var viewWidth = 653;
var viewHeight = 308;
var sectionId = 'dynsection-59';
</script>
<script xlink:href="svgpan.js"/>
<svg id="graph" class="graph">
<g id="viewport">
<title>svg::sized_text</title>
<polygon fill="white" stroke="transparent" points="-4,4 -4,-304 649,-304 649,4 -4,4"/>
<!-- Node1 -->
<g id="node1" class="node">
<title>Node1</title>
<g id="a_node1"><a xlink:title="Text at size.">
<polygon fill="#bfbfbf" stroke="black" points="0,-72 0,-89 77,-89 77,-72 0,-72"/>
<text text-anchor="middle" x="38.5" y="-78.6" font-family="SourceSans" font-size="8.00">svg::sized_text</text>
</a>
</g>
</g>
<!-- Node2 -->
<g id="node2" class="node">
<title>Node2</title>
<g id="a_node2"><a xlink:href="group__elements.html#aad29e1daf75bdcd69a39575a6807fa0f" target="_top" xlink:title="Either serialize immediately (as below), or create data structure that adds data to data_vec and then...">
<polygon fill="white" stroke="black" points="120.5,-135.5 120.5,-161.5 215.5,-161.5 215.5,-135.5 120.5,-135.5"/>
<text text-anchor="start" x="128.5" y="-151.1" font-family="SourceSans" font-size="8.00">svg::text_element::</text>
<text text-anchor="middle" x="168" y="-142.1" font-family="SourceSans" font-size="8.00">add_data</text>
</a>
</g>
</g>
<!-- Node1&#45;&gt;Node2 -->
<g id="edge1" class="edge">
<title>Node1&#45;&gt;Node2</title>
<path fill="none" stroke="midnightblue" d="M52.18,-89.05C66.57,-98.58 90.92,-114.12 113,-125.5 116.77,-127.44 120.74,-129.36 124.75,-131.22"/>
<polygon fill="midnightblue" stroke="midnightblue" points="123.53,-134.51 134.09,-135.39 126.39,-128.12 123.53,-134.51"/>
</g>
<!-- Node12 -->
<g id="node12" class="node">
<title>Node12</title>
<g id="a_node12"><a xlink:href="group__elements.html#adb6116b96467cc39cb178deb10c7a869" target="_top" xlink:title=" ">
<polygon fill="white" stroke="black" points="113,-90.5 113,-116.5 223,-116.5 223,-90.5 113,-90.5"/>
<text text-anchor="start" x="121" y="-106.1" font-family="SourceSans" font-size="8.00">svg::svg_element::add</text>
<text text-anchor="middle" x="168" y="-97.1" font-family="SourceSans" font-size="8.00">_element</text>
</a>
</g>
</g>
<!-- Node1&#45;&gt;Node12 -->
<g id="edge16" class="edge">
<title>Node1&#45;&gt;Node12</title>
<path fill="none" stroke="midnightblue" d="M77.06,-87.28C85.18,-88.74 93.97,-90.33 102.78,-91.92"/>
<polygon fill="midnightblue" stroke="midnightblue" points="102.23,-95.37 112.7,-93.7 103.48,-88.48 102.23,-95.37"/>
</g>
<!-- Node13 -->
<g id="node13" class="node">
<title>Node13</title>
<g id="a_node13"><a xlink:href="group__elements.html#ga13c46848317034d16c62a7d2061ba3d6" target="_top" xlink:title=" ">
<polygon fill="white" stroke="black" points="120.5,-45.5 120.5,-71.5 215.5,-71.5 215.5,-45.5 120.5,-45.5"/>
<text text-anchor="start" x="128.5" y="-61.1" font-family="SourceSans" font-size="8.00">svg::text_element::</text>
<text text-anchor="middle" x="168" y="-52.1" font-family="SourceSans" font-size="8.00">finish_element</text>
</a>
</g>
</g>
<!-- Node1&#45;&gt;Node13 -->
<g id="edge17" class="edge">
<title>Node1&#45;&gt;Node13</title>
<path fill="none" stroke="midnightblue" d="M77.06,-74.02C87.41,-72.23 98.87,-70.25 110.05,-68.33"/>
<polygon fill="midnightblue" stroke="midnightblue" points="110.94,-71.72 120.2,-66.57 109.75,-64.83 110.94,-71.72"/>
</g>
<!-- Node14 -->
<g id="node14" class="node">
<title>Node14</title>
<g id="a_node14"><a xlink:href="group__elements.html#ae45bec611a6ec17ea46aab6d680ae042" target="_top" xlink:title=" ">
<polygon fill="white" stroke="black" points="120.5,-0.5 120.5,-26.5 215.5,-26.5 215.5,-0.5 120.5,-0.5"/>
<text text-anchor="start" x="128.5" y="-16.1" font-family="SourceSans" font-size="8.00">svg::text_element::</text>
<text text-anchor="middle" x="168" y="-7.1" font-family="SourceSans" font-size="8.00">start_element</text>
</a>
</g>
</g>
<!-- Node1&#45;&gt;Node14 -->
<g id="edge18" class="edge">
<title>Node1&#45;&gt;Node14</title>
<path fill="none" stroke="midnightblue" d="M52.15,-71.88C66.51,-62.3 90.84,-46.71 113,-35.5 116.31,-33.83 119.78,-32.18 123.3,-30.59"/>
<polygon fill="midnightblue" stroke="midnightblue" points="124.86,-33.72 132.63,-26.52 122.07,-27.31 124.86,-33.72"/>
</g>
<!-- Node3 -->
<g id="node3" class="node">
<title>Node3</title>
<g id="a_node3"><a xlink:href="structsvg_1_1typography.html#adbc62f74f1fed3f7c77567250f084f83" target="_top" xlink:title=" ">
<polygon fill="white" stroke="black" points="259,-156.5 259,-182.5 364,-182.5 364,-156.5 259,-156.5"/>
<text text-anchor="start" x="267" y="-172.1" font-family="SourceSans" font-size="8.00">svg::typography::add</text>
<text text-anchor="middle" x="311.5" y="-163.1" font-family="SourceSans" font-size="8.00">_attribute</text>
</a>
</g>
</g>
<!-- Node2&#45;&gt;Node3 -->
<g id="edge2" class="edge">
<title>Node2&#45;&gt;Node3</title>
<path fill="none" stroke="midnightblue" d="M215.72,-155.43C226.33,-157.01 237.74,-158.7 248.86,-160.35"/>
<polygon fill="midnightblue" stroke="midnightblue" points="248.54,-163.84 258.94,-161.85 249.57,-156.92 248.54,-163.84"/>
</g>
<!-- Node6 -->
<g id="node6" class="node">
<title>Node6</title>
<g id="a_node6"><a xlink:href="namespacesvg.html#a48ac748e89e22789d1772326a98dd7b6" target="_top" xlink:title=" ">
<polygon fill="white" stroke="black" points="403,-79 403,-96 498,-96 498,-79 403,-79"/>
<text text-anchor="middle" x="450.5" y="-85.6" font-family="SourceSans" font-size="8.00">svg::string_replace</text>
</a>
</g>
</g>
<!-- Node2&#45;&gt;Node6 -->
<g id="edge14" class="edge">
<title>Node2&#45;&gt;Node6</title>
<path fill="none" stroke="midnightblue" d="M215.6,-139.47C255.17,-131.67 313.43,-119.89 364,-108.5 377.66,-105.42 392.5,-101.86 405.92,-98.55"/>
<polygon fill="midnightblue" stroke="midnightblue" points="407,-101.88 415.87,-96.08 405.32,-95.09 407,-101.88"/>
</g>
<!-- Node10 -->
<g id="node10" class="node">
<title>Node10</title>
<g id="a_node10"><a xlink:href="group__elements.html#a53d72a7ff728ad1d4d027254530bcf3d" target="_top" xlink:title="Common transforms include rotate(180)">
<polygon fill="white" stroke="black" points="400,-273.5 400,-299.5 501,-299.5 501,-273.5 400,-273.5"/>
<text text-anchor="start" x="408" y="-289.1" font-family="SourceSans" font-size="8.00">svg::element_base::</text>
<text text-anchor="middle" x="450.5" y="-280.1" font-family="SourceSans" font-size="8.00">add_transform</text>
</a>
</g>
</g>
<!-- Node2&#45;&gt;Node10 -->
<g id="edge11" class="edge">
<title>Node2&#45;&gt;Node10</title>
<path fill="none" stroke="midnightblue" d="M195.64,-161.61C246.42,-186.59 357.07,-241.03 414.04,-269.05"/>
<polygon fill="midnightblue" stroke="midnightblue" points="412.52,-272.21 423.04,-273.48 415.61,-265.93 412.52,-272.21"/>
</g>
<!-- Node11 -->
<g id="node11" class="node">
<title>Node11</title>
<g id="a_node11"><a xlink:href="namespacesvg.html#a36b1c48ad4601b205790e3772ad0a7b6" target="_top" xlink:title=" ">
<polygon fill="white" stroke="black" points="275.5,-82 275.5,-99 347.5,-99 347.5,-82 275.5,-82"/>
<text text-anchor="middle" x="311.5" y="-88.6" font-family="SourceSans" font-size="8.00">svg::to_string</text>
</a>
</g>
</g>
<!-- Node2&#45;&gt;Node11 -->
<g id="edge15" class="edge">
<title>Node2&#45;&gt;Node11</title>
<path fill="none" stroke="midnightblue" d="M200.76,-135.48C224.43,-125.78 256.57,-112.61 279.94,-103.03"/>
<polygon fill="midnightblue" stroke="midnightblue" points="281.45,-106.19 289.38,-99.16 278.8,-99.71 281.45,-106.19"/>
</g>
<!-- Node4 -->
<g id="node4" class="node">
<title>Node4</title>
<g id="a_node4"><a xlink:href="namespacesvg_1_1constants.html#a3972655f1dfdc090ec2592d1fb37e87c" target="_top" xlink:title=" ">
<polygon fill="white" stroke="black" points="537.5,-198 537.5,-215 644.5,-215 644.5,-198 537.5,-198"/>
<text text-anchor="middle" x="591" y="-204.6" font-family="SourceSans" font-size="8.00">svg::constants::quote</text>
</a>
</g>
</g>
<!-- Node3&#45;&gt;Node4 -->
<g id="edge3" class="edge">
<title>Node3&#45;&gt;Node4</title>
<path fill="none" stroke="midnightblue" d="M364.16,-181.05C375.9,-183.42 388.35,-185.72 400,-187.5 442.24,-193.94 490.1,-198.71 527.23,-201.86"/>
<polygon fill="midnightblue" stroke="midnightblue" points="527.14,-205.37 537.4,-202.71 527.72,-198.39 527.14,-205.37"/>
</g>
<!-- Node5 -->
<g id="node5" class="node">
<title>Node5</title>
<g id="a_node5"><a xlink:href="namespacesvg_1_1constants.html#ac460bc8db60d85c3ae1cf8b1a903405e" target="_top" xlink:title="Formatting character constants.">
<polygon fill="white" stroke="black" points="537,-236 537,-253 645,-253 645,-236 537,-236"/>
<text text-anchor="middle" x="591" y="-242.6" font-family="SourceSans" font-size="8.00">svg::constants::space</text>
</a>
</g>
</g>
<!-- Node3&#45;&gt;Node5 -->
<g id="edge4" class="edge">
<title>Node3&#45;&gt;Node5</title>
<path fill="none" stroke="midnightblue" d="M339.55,-182.62C356.58,-190.46 379.19,-200.09 400,-206.5 441.44,-219.26 489.31,-228.8 526.63,-235.13"/>
<polygon fill="midnightblue" stroke="midnightblue" points="526.43,-238.65 536.87,-236.84 527.57,-231.74 526.43,-238.65"/>
</g>
<!-- Node3&#45;&gt;Node6 -->
<g id="edge5" class="edge">
<title>Node3&#45;&gt;Node6</title>
<path fill="none" stroke="midnightblue" d="M340.12,-156.36C348.12,-152.07 356.66,-146.98 364,-141.5 382.13,-127.96 380.91,-117.65 400,-105.5 403.16,-103.49 406.57,-101.66 410.07,-100.01"/>
<polygon fill="midnightblue" stroke="midnightblue" points="411.6,-103.16 419.45,-96.05 408.88,-96.72 411.6,-103.16"/>
</g>
<!-- Node7 -->
<g id="node7" class="node">
<title>Node7</title>
<g id="a_node7"><a xlink:href="structsvg_1_1typography.html#a174c1ffb4e56214d71523ffe7e422561" target="_top" xlink:title=" ">
<polygon fill="white" stroke="black" points="401.5,-115.5 401.5,-141.5 499.5,-141.5 499.5,-115.5 401.5,-115.5"/>
<text text-anchor="start" x="409.5" y="-131.1" font-family="SourceSans" font-size="8.00">svg::typography::to</text>
<text text-anchor="middle" x="450.5" y="-122.1" font-family="SourceSans" font-size="8.00">_string</text>
</a>
</g>
</g>
<!-- Node3&#45;&gt;Node7 -->
<g id="edge6" class="edge">
<title>Node3&#45;&gt;Node7</title>
<path fill="none" stroke="midnightblue" d="M356.22,-156.41C368.83,-152.64 382.73,-148.48 395.86,-144.55"/>
<polygon fill="midnightblue" stroke="midnightblue" points="397.14,-147.82 405.72,-141.6 395.14,-141.12 397.14,-147.82"/>
</g>
<!-- Node8 -->
<g id="node8" class="node">
<title>Node8</title>
<g id="a_node8"><a xlink:href="namespacesvg.html#a7363f3de9a003a4399e7ede9036299d4" target="_top" xlink:title=" ">
<polygon fill="white" stroke="black" points="414.5,-161 414.5,-178 486.5,-178 486.5,-161 414.5,-161"/>
<text text-anchor="middle" x="450.5" y="-167.6" font-family="SourceSans" font-size="8.00">svg::to_string</text>
</a>
</g>
</g>
<!-- Node3&#45;&gt;Node8 -->
<g id="edge7" class="edge">
<title>Node3&#45;&gt;Node8</title>
<path fill="none" stroke="midnightblue" d="M364.29,-169.5C377.32,-169.5 391.2,-169.5 403.89,-169.5"/>
<polygon fill="midnightblue" stroke="midnightblue" points="404.24,-173 414.24,-169.5 404.24,-166 404.24,-173"/>
</g>
<!-- Node8&#45;&gt;Node4 -->
<g id="edge8" class="edge">
<title>Node8&#45;&gt;Node4</title>
<path fill="none" stroke="midnightblue" d="M483.62,-178.08C502.85,-183.22 527.5,-189.8 548.23,-195.34"/>
<polygon fill="midnightblue" stroke="midnightblue" points="547.49,-198.77 558.05,-197.96 549.29,-192 547.49,-198.77"/>
</g>
<!-- Node8&#45;&gt;Node5 -->
<g id="edge9" class="edge">
<title>Node8&#45;&gt;Node5</title>
<path fill="none" stroke="midnightblue" d="M463.2,-178.17C479.25,-189.78 509.25,-210.54 537,-224.5 542.52,-227.28 548.51,-229.89 554.42,-232.26"/>
<polygon fill="midnightblue" stroke="midnightblue" points="553.6,-235.69 564.19,-236 556.1,-229.16 553.6,-235.69"/>
</g>
<!-- Node9 -->
<g id="node9" class="node">
<title>Node9</title>
<g id="a_node9"><a xlink:href="structsvg_1_1colorq.html#adb55a2a48193fafa55340505862278e4" target="_top" xlink:title=" ">
<polygon fill="white" stroke="black" points="539,-161 539,-178 643,-178 643,-161 539,-161"/>
<text text-anchor="middle" x="591" y="-167.6" font-family="SourceSans" font-size="8.00">svg::colorq::to_string</text>
</a>
</g>
</g>
<!-- Node8&#45;&gt;Node9 -->
<g id="edge10" class="edge">
<title>Node8&#45;&gt;Node9</title>
<path fill="none" stroke="midnightblue" d="M486.81,-169.5C499.51,-169.5 514.24,-169.5 528.53,-169.5"/>
<polygon fill="midnightblue" stroke="midnightblue" points="528.81,-173 538.81,-169.5 528.81,-166 528.81,-173"/>
</g>
<!-- Node10&#45;&gt;Node4 -->
<g id="edge12" class="edge">
<title>Node10&#45;&gt;Node4</title>
<path fill="none" stroke="midnightblue" d="M467.42,-273.48C484.03,-260.36 511.19,-240.15 537,-226.5 542.35,-223.67 548.18,-221.05 553.97,-218.7"/>
<polygon fill="midnightblue" stroke="midnightblue" points="555.48,-221.86 563.55,-215 552.96,-215.33 555.48,-221.86"/>
</g>
<!-- Node10&#45;&gt;Node5 -->
<g id="edge13" class="edge">
<title>Node10&#45;&gt;Node5</title>
<path fill="none" stroke="midnightblue" d="M494.56,-273.44C512.88,-267.89 534.07,-261.46 551.82,-256.08"/>
<polygon fill="midnightblue" stroke="midnightblue" points="553.28,-259.29 561.83,-253.04 551.25,-252.59 553.28,-259.29"/>
</g>
</g>
</svg>
        <g id="navigator" transform="translate(0 0)" fill="#404254">
                <rect fill="#f2f5e9" fill-opacity="0.5" stroke="#606060" stroke-width=".5" x="0" y="0" width="60" height="60"/>
                <use id="zoomplus" xlink:href="#zoomPlus" x="17" y="9" onmousedown="handleZoom(evt,'in')"/>
                <use id="zoomminus" xlink:href="#zoomMin" x="42" y="9" onmousedown="handleZoom(evt,'out')"/>
                <use id="reset" xlink:href="#resetDef" x="30" y="36" onmousedown="handleReset()"/>
                <g id="arrowUp" xlink:href="#dirArrow" transform="translate(30 24)" onmousedown="handlePan(0,-1)">
                  <use xlink:href="#rim" fill="#404040">
                        <set attributeName="fill" to="#808080" begin="arrowUp.mouseover" end="arrowUp.mouseout"/>
                  </use>
                  <path fill="none" stroke="white" stroke-width="1.5" d="M0,-3.0v7 M-2.5,-0.5L0,-3.0L2.5,-0.5"/>
                </g>
                <g id="arrowRight" xlink:href="#dirArrow" transform="rotate(90) translate(36 -43)" onmousedown="handlePan(1,0)">
                  <use xlink:href="#rim" fill="#404040">
                        <set attributeName="fill" to="#808080" begin="arrowRight.mouseover" end="arrowRight.mouseout"/>
                  </use>
                  <path fill="none" stroke="white" stroke-width="1.5" d="M0,-3.0v7 M-2.5,-0.5L0,-3.0L2.5,-0.5"/>
                </g>
                <g id="arrowDown" xlink:href="#dirArrow" transform="rotate(180) translate(-30 -48)" onmousedown="handlePan(0,1)">
                  <use xlink:href="#rim" fill="#404040">
                        <set attributeName="fill" to="#808080" begin="arrowDown.mouseover" end="arrowDown.mouseout"/>
                  </use>
                  <path fill="none" stroke="white" stroke-width="1.5" d="M0,-3.0v7 M-2.5,-0.5L0,-3.0L2.5,-0.5"/>
                </g>
                <g id="arrowLeft" xlink:href="#dirArrow" transform="rotate(270) translate(-36 17)" onmousedown="handlePan(-1,0)">
                  <use xlink:href="#rim" fill="#404040">
                        <set attributeName="fill" to="#808080" begin="arrowLeft.mouseover" end="arrowLeft.mouseout"/>
                  </use>
                  <path fill="none" stroke="white" stroke-width="1.5" d="M0,-3.0v7 M-2.5,-0.5L0,-3.0L2.5,-0.5"/>
                </g>
        </g>
        <svg viewBox="0 0 15 15" width="100%" height="30px" preserveAspectRatio="xMaxYMin meet">
         <g id="arrow_out" transform="scale(0.3 0.3)">
          <a xlink:href="namespacesvg_ab2d2020c33da2e0215837673e530b991_cgraph_org.svg" target="_base">
           <rect id="button" ry="5" rx="5" y="6" x="6" height="38" width="38"
                fill="#f2f5e9" fill-opacity="0.5" stroke="#606060" stroke-width="1.0"/>
           <path id="arrow"
             d="M 11.500037,31.436501 C 11.940474,20.09759 22.043105,11.32322 32.158766,21.979434 L 37.068811,17.246167 C 37.068811,17.246167 37.088388,32 37.088388,32 L 22.160133,31.978069 C 22.160133,31.978069 26.997745,27.140456 26.997745,27.140456 C 18.528582,18.264221 13.291696,25.230495 11.500037,31.436501 z"
             style="fill:#404040;"/>
          </a>
         </g>
        </svg>
</svg>
