<?xml version="1.0" encoding="UTF-8" standalone="no"?>
<!DOCTYPE svg PUBLIC "-//W3C//DTD SVG 1.1//EN"
 "http://www.w3.org/Graphics/SVG/1.1/DTD/svg11.dtd">
<!-- Generated by graphviz version 2.50.0 (0)
 -->
<!-- Title: /home/bkoz/src/izzi/src/a60&#45;svg&#45;linear.h Pages: 1 -->
<!--zoomable 206 -->
<svg id="main" version="1.1" xmlns="http://www.w3.org/2000/svg" xmlns:xlink="http://www.w3.org/1999/xlink" xml:space="preserve" onload="init(evt)">
<style type="text/css"><![CDATA[
.edge:hover path { stroke: red; }
.edge:hover polygon { stroke: red; fill: red; }
]]></style>
<script type="text/javascript"><![CDATA[
var edges = document.getElementsByTagName('g');
if (edges && edges.length) {
  for (var i=0;i<edges.length;i++) {
    if (edges[i].id.substr(0,4)=='edge') {
      edges[i].setAttribute('class','edge');
    }
  }
}
]]></script>
        <defs>
                <circle id="rim" cx="0" cy="0" r="7"/>
                <circle id="rim2" cx="0" cy="0" r="3.5"/>
                <g id="zoomPlus">
                        <use xlink:href="#rim" fill="#404040">
                                <set attributeName="fill" to="#808080" begin="zoomplus.mouseover" end="zoomplus.mouseout"/>
                        </use>
                        <path d="M-4,0h8M0,-4v8" fill="none" stroke="white" stroke-width="1.5" pointer-events="none"/>
                </g>
                <g id="zoomMin">
                        <use xlink:href="#rim" fill="#404040">
                                <set attributeName="fill" to="#808080" begin="zoomminus.mouseover" end="zoomminus.mouseout"/>
                        </use>
                        <path d="M-4,0h8" fill="none" stroke="white" stroke-width="1.5" pointer-events="none"/>
                </g>
                <g id="dirArrow">
                        <path fill="none" stroke="white" stroke-width="1.5" d="M0,-3.0v7 M-2.5,-0.5L0,-3.0L2.5,-0.5"/>
                </g>
               <g id="resetDef">
                       <use xlink:href="#rim2" fill="#404040">
                               <set attributeName="fill" to="#808080" begin="reset.mouseover" end="reset.mouseout"/>
                       </use>
               </g>
        </defs>

<script type="text/javascript">
var viewWidth = 1571;
var viewHeight = 206;
var sectionId = 'dynsection-0';
</script>
<script xlink:href="svgpan.js"/>
<svg id="graph" class="graph">
<g id="viewport">
<title>/home/bkoz/src/izzi/src/a60&#45;svg&#45;linear.h</title>
<polygon fill="white" stroke="transparent" points="-4,4 -4,-202 1567,-202 1567,4 -4,4"/>
<!-- Node1 -->
<g id="node1" class="node">
<title>Node1</title>
<g id="a_node1"><a xlink:title=" ">
<polygon fill="#bfbfbf" stroke="black" points="526.5,-171.5 526.5,-197.5 627.5,-197.5 627.5,-171.5 526.5,-171.5"/>
<text text-anchor="start" x="534.5" y="-187.1" font-family="SourceSans" font-size="8.00">/home/bkoz/src/izzi</text>
<text text-anchor="middle" x="577" y="-178.1" font-family="SourceSans" font-size="8.00">/src/a60&#45;svg&#45;linear.h</text>
</a>
</g>
</g>
<!-- Node2 -->
<g id="node2" class="node">
<title>Node2</title>
<g id="a_node2"><a xlink:href="a60-svg_8h.html" target="_top" xlink:title=" ">
<polygon fill="white" stroke="black" points="548.5,-117.5 548.5,-134.5 605.5,-134.5 605.5,-117.5 548.5,-117.5"/>
<text text-anchor="middle" x="577" y="-124.1" font-family="SourceSans" font-size="8.00">a60&#45;svg.h</text>
</a>
</g>
</g>
<!-- Node1&#45;&gt;Node2 -->
<g id="edge1" class="edge">
<title>Node1&#45;&gt;Node2</title>
<path fill="none" stroke="midnightblue" d="M577,-171.24C577,-163.48 577,-153.31 577,-144.68"/>
<polygon fill="midnightblue" stroke="midnightblue" points="580.5,-144.56 577,-134.56 573.5,-144.56 580.5,-144.56"/>
</g>
<!-- Node3 -->
<g id="node3" class="node">
<title>Node3</title>
<g id="a_node3"><a xlink:title=" ">
<polygon fill="white" stroke="#bfbfbf" points="0,-59 0,-76 42,-76 42,-59 0,-59"/>
<text text-anchor="middle" x="21" y="-65.6" font-family="SourceSans" font-size="8.00">cmath</text>
</a>
</g>
</g>
<!-- Node2&#45;&gt;Node3 -->
<g id="edge2" class="edge">
<title>Node2&#45;&gt;Node3</title>
<path fill="none" stroke="midnightblue" d="M548.28,-125.7C468.24,-126.98 236.41,-126.2 51,-81 49.34,-80.6 47.66,-80.11 45.97,-79.57"/>
<polygon fill="midnightblue" stroke="midnightblue" points="47.16,-76.28 36.57,-76.06 44.71,-82.84 47.16,-76.28"/>
</g>
<!-- Node4 -->
<g id="node4" class="node">
<title>Node4</title>
<g id="a_node4"><a xlink:title=" ">
<polygon fill="white" stroke="#bfbfbf" points="60,-59 60,-76 98,-76 98,-59 60,-59"/>
<text text-anchor="middle" x="79" y="-65.6" font-family="SourceSans" font-size="8.00">array</text>
</a>
</g>
</g>
<!-- Node2&#45;&gt;Node4 -->
<g id="edge3" class="edge">
<title>Node2&#45;&gt;Node4</title>
<path fill="none" stroke="midnightblue" d="M548.36,-125.53C474.13,-126.22 269.9,-123.74 107,-81 105.73,-80.67 104.44,-80.28 103.15,-79.85"/>
<polygon fill="midnightblue" stroke="midnightblue" points="104.08,-76.46 93.49,-76.05 101.51,-82.97 104.08,-76.46"/>
</g>
<!-- Node5 -->
<g id="node5" class="node">
<title>Node5</title>
<g id="a_node5"><a xlink:title=" ">
<polygon fill="white" stroke="#bfbfbf" points="116,-59 116,-76 154,-76 154,-59 116,-59"/>
<text text-anchor="middle" x="135" y="-65.6" font-family="SourceSans" font-size="8.00">tuple</text>
</a>
</g>
</g>
<!-- Node2&#45;&gt;Node5 -->
<g id="edge4" class="edge">
<title>Node2&#45;&gt;Node5</title>
<path fill="none" stroke="midnightblue" d="M548.31,-124.42C480.99,-122.5 307.96,-114.46 168,-81 166.08,-80.54 164.12,-80 162.16,-79.4"/>
<polygon fill="midnightblue" stroke="midnightblue" points="163.15,-76.04 152.55,-76.1 160.87,-82.66 163.15,-76.04"/>
</g>
<!-- Node6 -->
<g id="node6" class="node">
<title>Node6</title>
<g id="a_node6"><a xlink:title=" ">
<polygon fill="white" stroke="#bfbfbf" points="125,-0.5 125,-17.5 165,-17.5 165,-0.5 125,-0.5"/>
<text text-anchor="middle" x="145" y="-7.1" font-family="SourceSans" font-size="8.00">string</text>
</a>
</g>
</g>
<!-- Node2&#45;&gt;Node6 -->
<g id="edge5" class="edge">
<title>Node2&#45;&gt;Node6</title>
<path fill="none" stroke="midnightblue" d="M548.32,-124.45C471.09,-122.53 260.59,-114.31 201,-81 178.98,-68.69 162.55,-43.87 153.36,-27.09"/>
<polygon fill="midnightblue" stroke="midnightblue" points="156.29,-25.14 148.59,-17.86 150.07,-28.35 156.29,-25.14"/>
</g>
<!-- Node7 -->
<g id="node7" class="node">
<title>Node7</title>
<g id="a_node7"><a xlink:title=" ">
<polygon fill="white" stroke="#bfbfbf" points="556,-59 556,-76 598,-76 598,-59 556,-59"/>
<text text-anchor="middle" x="577" y="-65.6" font-family="SourceSans" font-size="8.00">vector</text>
</a>
</g>
</g>
<!-- Node2&#45;&gt;Node7 -->
<g id="edge6" class="edge">
<title>Node2&#45;&gt;Node7</title>
<path fill="none" stroke="midnightblue" d="M577,-117.14C577,-109.22 577,-96.7 577,-86.35"/>
<polygon fill="midnightblue" stroke="midnightblue" points="580.5,-86.29 577,-76.29 573.5,-86.29 580.5,-86.29"/>
</g>
<!-- Node8 -->
<g id="node8" class="node">
<title>Node8</title>
<g id="a_node8"><a xlink:title=" ">
<polygon fill="white" stroke="#bfbfbf" points="616,-59 616,-76 696,-76 696,-59 616,-59"/>
<text text-anchor="middle" x="656" y="-65.6" font-family="SourceSans" font-size="8.00">unordered_map</text>
</a>
</g>
</g>
<!-- Node2&#45;&gt;Node8 -->
<g id="edge7" class="edge">
<title>Node2&#45;&gt;Node8</title>
<path fill="none" stroke="midnightblue" d="M587.65,-117.38C600.26,-108.37 621.48,-93.19 636.94,-82.13"/>
<polygon fill="midnightblue" stroke="midnightblue" points="639.16,-84.84 645.26,-76.18 635.09,-79.15 639.16,-84.84"/>
</g>
<!-- Node9 -->
<g id="node9" class="node">
<title>Node9</title>
<g id="a_node9"><a xlink:title=" ">
<polygon fill="white" stroke="#bfbfbf" points="714.5,-59 714.5,-76 763.5,-76 763.5,-59 714.5,-59"/>
<text text-anchor="middle" x="739" y="-65.6" font-family="SourceSans" font-size="8.00">sstream</text>
</a>
</g>
</g>
<!-- Node2&#45;&gt;Node9 -->
<g id="edge8" class="edge">
<title>Node2&#45;&gt;Node9</title>
<path fill="none" stroke="midnightblue" d="M599.71,-117.36C625.34,-108.69 668.25,-94.07 705,-81 706.23,-80.56 707.49,-80.11 708.76,-79.66"/>
<polygon fill="midnightblue" stroke="midnightblue" points="710.33,-82.81 718.53,-76.11 707.94,-76.23 710.33,-82.81"/>
</g>
<!-- Node10 -->
<g id="node10" class="node">
<title>Node10</title>
<g id="a_node10"><a xlink:href="a60-svg-color_8h.html" target="_top" xlink:title=" ">
<polygon fill="white" stroke="black" points="210,-59 210,-76 290,-76 290,-59 210,-59"/>
<text text-anchor="middle" x="250" y="-65.6" font-family="SourceSans" font-size="8.00">a60&#45;svg&#45;color.h</text>
</a>
</g>
</g>
<!-- Node2&#45;&gt;Node10 -->
<g id="edge9" class="edge">
<title>Node2&#45;&gt;Node10</title>
<path fill="none" stroke="midnightblue" d="M548.43,-121.37C497.87,-114.75 389.45,-99.65 299,-81 295.3,-80.24 291.46,-79.38 287.63,-78.47"/>
<polygon fill="midnightblue" stroke="midnightblue" points="288.17,-75 277.62,-76.02 286.5,-81.8 288.17,-75"/>
</g>
<!-- Node14 -->
<g id="node14" class="node">
<title>Node14</title>
<g id="a_node14"><a xlink:href="a60-svg-base-types_8h.html" target="_top" xlink:title=" ">
<polygon fill="white" stroke="black" points="308,-59 308,-76 414,-76 414,-59 308,-59"/>
<text text-anchor="middle" x="361" y="-65.6" font-family="SourceSans" font-size="8.00">a60&#45;svg&#45;base&#45;types.h</text>
</a>
</g>
</g>
<!-- Node2&#45;&gt;Node14 -->
<g id="edge14" class="edge">
<title>Node2&#45;&gt;Node14</title>
<path fill="none" stroke="midnightblue" d="M548.32,-117.5C510.07,-107.49 442.25,-89.75 399.56,-78.59"/>
<polygon fill="midnightblue" stroke="midnightblue" points="400.36,-75.18 389.8,-76.03 398.59,-81.95 400.36,-75.18"/>
</g>
<!-- Node18 -->
<g id="node18" class="node">
<title>Node18</title>
<g id="a_node18"><a xlink:href="a60-svg-constants_8h.html" target="_top" xlink:title=" ">
<polygon fill="white" stroke="black" points="781.5,-59 781.5,-76 882.5,-76 882.5,-59 781.5,-59"/>
<text text-anchor="middle" x="832" y="-65.6" font-family="SourceSans" font-size="8.00">a60&#45;svg&#45;constants.h</text>
</a>
</g>
</g>
<!-- Node2&#45;&gt;Node18 -->
<g id="edge19" class="edge">
<title>Node2&#45;&gt;Node18</title>
<path fill="none" stroke="midnightblue" d="M605.76,-118.63C650.2,-108.78 735.91,-89.79 788.13,-78.22"/>
<polygon fill="midnightblue" stroke="midnightblue" points="789.09,-81.59 798.1,-76.01 787.58,-74.76 789.09,-81.59"/>
</g>
<!-- Node19 -->
<g id="node19" class="node">
<title>Node19</title>
<g id="a_node19"><a xlink:href="a60-svg-elements_8h.html" target="_top" xlink:title=" ">
<polygon fill="white" stroke="black" points="901,-59 901,-76 999,-76 999,-59 901,-59"/>
<text text-anchor="middle" x="950" y="-65.6" font-family="SourceSans" font-size="8.00">a60&#45;svg&#45;elements.h</text>
</a>
</g>
</g>
<!-- Node2&#45;&gt;Node19 -->
<g id="edge20" class="edge">
<title>Node2&#45;&gt;Node19</title>
<path fill="none" stroke="midnightblue" d="M605.78,-121.7C661.31,-115.17 787.07,-99.61 892,-81 896.82,-80.15 901.84,-79.18 906.84,-78.17"/>
<polygon fill="midnightblue" stroke="midnightblue" points="907.88,-81.53 916.96,-76.06 906.45,-74.67 907.88,-81.53"/>
</g>
<!-- Node20 -->
<g id="node20" class="node">
<title>Node20</title>
<g id="a_node20"><a xlink:href="a60-svg-elements-components_8h.html" target="_top" xlink:title=" ">
<polygon fill="white" stroke="black" points="1017,-59 1017,-76 1169,-76 1169,-59 1017,-59"/>
<text text-anchor="middle" x="1093" y="-65.6" font-family="SourceSans" font-size="8.00">a60&#45;svg&#45;elements&#45;components.h</text>
</a>
</g>
</g>
<!-- Node2&#45;&gt;Node20 -->
<g id="edge21" class="edge">
<title>Node2&#45;&gt;Node20</title>
<path fill="none" stroke="midnightblue" d="M605.54,-122.53C674.7,-116.44 856.67,-99.84 1008,-81 1016.6,-79.93 1025.68,-78.7 1034.58,-77.44"/>
<polygon fill="midnightblue" stroke="midnightblue" points="1035.11,-80.9 1044.5,-76.01 1034.11,-73.97 1035.11,-80.9"/>
</g>
<!-- Node21 -->
<g id="node21" class="node">
<title>Node21</title>
<g id="a_node21"><a xlink:href="a60-svg-render-state_8h.html" target="_top" xlink:title=" ">
<polygon fill="white" stroke="black" points="1187,-59 1187,-76 1297,-76 1297,-59 1187,-59"/>
<text text-anchor="middle" x="1242" y="-65.6" font-family="SourceSans" font-size="8.00">a60&#45;svg&#45;render&#45;state.h</text>
</a>
</g>
</g>
<!-- Node2&#45;&gt;Node21 -->
<g id="edge22" class="edge">
<title>Node2&#45;&gt;Node21</title>
<path fill="none" stroke="midnightblue" d="M605.59,-124.12C692.17,-121.21 958.94,-110.3 1178,-81 1184.33,-80.15 1190.98,-79.07 1197.51,-77.9"/>
<polygon fill="midnightblue" stroke="midnightblue" points="1198.4,-81.29 1207.58,-76.01 1197.11,-74.41 1198.4,-81.29"/>
</g>
<!-- Node22 -->
<g id="node22" class="node">
<title>Node22</title>
<g id="a_node22"><a xlink:href="a60-svg-render-basics_8h.html" target="_top" xlink:title=" ">
<polygon fill="white" stroke="black" points="1315,-59 1315,-76 1431,-76 1431,-59 1315,-59"/>
<text text-anchor="middle" x="1373" y="-65.6" font-family="SourceSans" font-size="8.00">a60&#45;svg&#45;render&#45;basics.h</text>
</a>
</g>
</g>
<!-- Node2&#45;&gt;Node22 -->
<g id="edge23" class="edge">
<title>Node2&#45;&gt;Node22</title>
<path fill="none" stroke="midnightblue" d="M605.6,-124.55C703.61,-122.73 1034.8,-114.35 1306,-81 1312.86,-80.16 1320.09,-79.05 1327.15,-77.83"/>
<polygon fill="midnightblue" stroke="midnightblue" points="1328.09,-81.22 1337.31,-76.01 1326.85,-74.33 1328.09,-81.22"/>
</g>
<!-- Node23 -->
<g id="node23" class="node">
<title>Node23</title>
<g id="a_node23"><a xlink:href="a60-svg-composite-and-layer-basics_8h.html" target="_top" xlink:title=" ">
<polygon fill="white" stroke="black" points="1449,-54.5 1449,-80.5 1563,-80.5 1563,-54.5 1449,-54.5"/>
<text text-anchor="start" x="1457" y="-70.1" font-family="SourceSans" font-size="8.00">a60&#45;svg&#45;composite&#45;and</text>
<text text-anchor="middle" x="1506" y="-61.1" font-family="SourceSans" font-size="8.00">&#45;layer&#45;basics.h</text>
</a>
</g>
</g>
<!-- Node2&#45;&gt;Node23 -->
<g id="edge24" class="edge">
<title>Node2&#45;&gt;Node23</title>
<path fill="none" stroke="midnightblue" d="M605.8,-124.95C713.93,-124.48 1106,-120.07 1438.52,-81.04"/>
<polygon fill="midnightblue" stroke="midnightblue" points="1439.32,-84.47 1448.84,-79.82 1438.49,-77.52 1439.32,-84.47"/>
</g>
<!-- Node24 -->
<g id="node24" class="node">
<title>Node24</title>
<g id="a_node24"><a xlink:href="a60-svg-sequences_8h.html" target="_top" xlink:title=" ">
<polygon fill="white" stroke="black" points="432.5,-59 432.5,-76 537.5,-76 537.5,-59 432.5,-59"/>
<text text-anchor="middle" x="485" y="-65.6" font-family="SourceSans" font-size="8.00">a60&#45;svg&#45;sequences.h</text>
</a>
</g>
</g>
<!-- Node2&#45;&gt;Node24 -->
<g id="edge25" class="edge">
<title>Node2&#45;&gt;Node24</title>
<path fill="none" stroke="midnightblue" d="M559.8,-117.38C542.94,-108.37 517.87,-93.19 501.33,-82.13"/>
<polygon fill="midnightblue" stroke="midnightblue" points="502.92,-78.98 492.7,-76.18 498.94,-84.74 502.92,-78.98"/>
</g>
<!-- Node10&#45;&gt;Node6 -->
<g id="edge10" class="edge">
<title>Node10&#45;&gt;Node6</title>
<path fill="none" stroke="midnightblue" d="M235.84,-58.88C218.54,-49.57 189.03,-33.69 168.35,-22.56"/>
<polygon fill="midnightblue" stroke="midnightblue" points="169.74,-19.34 159.27,-17.68 166.42,-25.5 169.74,-19.34"/>
</g>
<!-- Node11 -->
<g id="node11" class="node">
<title>Node11</title>
<g id="a_node11"><a xlink:title=" ">
<polygon fill="white" stroke="#bfbfbf" points="257.5,-0.5 257.5,-17.5 292.5,-17.5 292.5,-0.5 257.5,-0.5"/>
<text text-anchor="middle" x="275" y="-7.1" font-family="SourceSans" font-size="8.00">map</text>
</a>
</g>
</g>
<!-- Node10&#45;&gt;Node11 -->
<g id="edge11" class="edge">
<title>Node10&#45;&gt;Node11</title>
<path fill="none" stroke="midnightblue" d="M253.48,-58.64C257.06,-50.55 262.76,-37.67 267.39,-27.19"/>
<polygon fill="midnightblue" stroke="midnightblue" points="270.71,-28.35 271.55,-17.79 264.31,-25.52 270.71,-28.35"/>
</g>
<!-- Node12 -->
<g id="node12" class="node">
<title>Node12</title>
<g id="a_node12"><a xlink:title=" ">
<polygon fill="white" stroke="#bfbfbf" points="183,-0.5 183,-17.5 239,-17.5 239,-0.5 183,-0.5"/>
<text text-anchor="middle" x="211" y="-7.1" font-family="SourceSans" font-size="8.00">algorithm</text>
</a>
</g>
</g>
<!-- Node10&#45;&gt;Node12 -->
<g id="edge12" class="edge">
<title>Node10&#45;&gt;Node12</title>
<path fill="none" stroke="midnightblue" d="M244.58,-58.64C238.81,-50.3 229.54,-36.86 222.2,-26.22"/>
<polygon fill="midnightblue" stroke="midnightblue" points="224.94,-24.03 216.38,-17.79 219.18,-28.01 224.94,-24.03"/>
</g>
<!-- Node13 -->
<g id="node13" class="node">
<title>Node13</title>
<g id="a_node13"><a xlink:title=" ">
<polygon fill="white" stroke="#bfbfbf" points="379,-0.5 379,-17.5 427,-17.5 427,-0.5 379,-0.5"/>
<text text-anchor="middle" x="403" y="-7.1" font-family="SourceSans" font-size="8.00">random</text>
</a>
</g>
</g>
<!-- Node10&#45;&gt;Node13 -->
<g id="edge13" class="edge">
<title>Node10&#45;&gt;Node13</title>
<path fill="none" stroke="midnightblue" d="M270.32,-59C296.61,-49.29 342.63,-32.29 372.96,-21.09"/>
<polygon fill="midnightblue" stroke="midnightblue" points="374.43,-24.28 382.6,-17.53 372.01,-17.71 374.43,-24.28"/>
</g>
<!-- Node14&#45;&gt;Node11 -->
<g id="edge15" class="edge">
<title>Node14&#45;&gt;Node11</title>
<path fill="none" stroke="midnightblue" d="M349.4,-58.88C335.55,-49.78 312.15,-34.41 295.28,-23.33"/>
<polygon fill="midnightblue" stroke="midnightblue" points="296.97,-20.25 286.69,-17.68 293.13,-26.1 296.97,-20.25"/>
</g>
<!-- Node15 -->
<g id="node15" class="node">
<title>Node15</title>
<g id="a_node15"><a xlink:title=" ">
<polygon fill="white" stroke="#bfbfbf" points="311,-0.5 311,-17.5 361,-17.5 361,-0.5 311,-0.5"/>
<text text-anchor="middle" x="336" y="-7.1" font-family="SourceSans" font-size="8.00">ostream</text>
</a>
</g>
</g>
<!-- Node14&#45;&gt;Node15 -->
<g id="edge16" class="edge">
<title>Node14&#45;&gt;Node15</title>
<path fill="none" stroke="midnightblue" d="M357.52,-58.64C353.94,-50.55 348.24,-37.67 343.61,-27.19"/>
<polygon fill="midnightblue" stroke="midnightblue" points="346.69,-25.52 339.45,-17.79 340.29,-28.35 346.69,-25.52"/>
</g>
<!-- Node16 -->
<g id="node16" class="node">
<title>Node16</title>
<g id="a_node16"><a xlink:title=" ">
<polygon fill="white" stroke="#bfbfbf" points="507.5,-0.5 507.5,-17.5 554.5,-17.5 554.5,-0.5 507.5,-0.5"/>
<text text-anchor="middle" x="531" y="-7.1" font-family="SourceSans" font-size="8.00">fstream</text>
</a>
</g>
</g>
<!-- Node14&#45;&gt;Node16 -->
<g id="edge17" class="edge">
<title>Node14&#45;&gt;Node16</title>
<path fill="none" stroke="midnightblue" d="M383.57,-59C413.04,-49.2 464.81,-32 498.5,-20.8"/>
<polygon fill="midnightblue" stroke="midnightblue" points="499.95,-24.01 508.33,-17.53 497.74,-17.37 499.95,-24.01"/>
</g>
<!-- Node17 -->
<g id="node17" class="node">
<title>Node17</title>
<g id="a_node17"><a xlink:title=" ">
<polygon fill="white" stroke="#bfbfbf" points="445,-0.5 445,-17.5 489,-17.5 489,-0.5 445,-0.5"/>
<text text-anchor="middle" x="467" y="-7.1" font-family="SourceSans" font-size="8.00">cstdint</text>
</a>
</g>
</g>
<!-- Node14&#45;&gt;Node17 -->
<g id="edge18" class="edge">
<title>Node14&#45;&gt;Node17</title>
<path fill="none" stroke="midnightblue" d="M375.3,-58.88C392.84,-49.53 422.82,-33.55 443.71,-22.41"/>
<polygon fill="midnightblue" stroke="midnightblue" points="445.41,-25.47 452.59,-17.68 442.12,-19.29 445.41,-25.47"/>
</g>
<!-- Node24&#45;&gt;Node2 -->
<g id="edge29" class="edge">
<title>Node24&#45;&gt;Node2</title>
<path fill="none" stroke="midnightblue" d="M502.31,-76.18C519.2,-85.22 544.28,-100.4 560.78,-111.44"/>
<polygon fill="midnightblue" stroke="midnightblue" points="559.16,-114.58 569.38,-117.38 563.14,-108.82 559.16,-114.58"/>
</g>
<!-- Node24&#45;&gt;Node13 -->
<g id="edge27" class="edge">
<title>Node24&#45;&gt;Node13</title>
<path fill="none" stroke="midnightblue" d="M473.94,-58.88C460.86,-49.87 438.83,-34.69 422.79,-23.63"/>
<polygon fill="midnightblue" stroke="midnightblue" points="424.37,-20.47 414.15,-17.68 420.39,-26.24 424.37,-20.47"/>
</g>
<!-- Node24&#45;&gt;Node16 -->
<g id="edge26" class="edge">
<title>Node24&#45;&gt;Node16</title>
<path fill="none" stroke="midnightblue" d="M491.4,-58.64C498.33,-50.13 509.58,-36.31 518.32,-25.58"/>
<polygon fill="midnightblue" stroke="midnightblue" points="521.06,-27.75 524.66,-17.79 515.63,-23.33 521.06,-27.75"/>
</g>
<!-- Node25 -->
<g id="node25" class="node">
<title>Node25</title>
<g id="a_node25"><a xlink:title=" ">
<polygon fill="white" stroke="#bfbfbf" points="573,-0.5 573,-17.5 623,-17.5 623,-0.5 573,-0.5"/>
<text text-anchor="middle" x="598" y="-7.1" font-family="SourceSans" font-size="8.00">unistd.h</text>
</a>
</g>
</g>
<!-- Node24&#45;&gt;Node25 -->
<g id="edge28" class="edge">
<title>Node24&#45;&gt;Node25</title>
<path fill="none" stroke="midnightblue" d="M500.24,-58.88C519.03,-49.49 551.2,-33.4 573.47,-22.26"/>
<polygon fill="midnightblue" stroke="midnightblue" points="575.26,-25.28 582.64,-17.68 572.13,-19.02 575.26,-25.28"/>
</g>
</g>
</svg>
        <g id="navigator" transform="translate(0 0)" fill="#404254">
                <rect fill="#f2f5e9" fill-opacity="0.5" stroke="#606060" stroke-width=".5" x="0" y="0" width="60" height="60"/>
                <use id="zoomplus" xlink:href="#zoomPlus" x="17" y="9" onmousedown="handleZoom(evt,'in')"/>
                <use id="zoomminus" xlink:href="#zoomMin" x="42" y="9" onmousedown="handleZoom(evt,'out')"/>
                <use id="reset" xlink:href="#resetDef" x="30" y="36" onmousedown="handleReset()"/>
                <g id="arrowUp" xlink:href="#dirArrow" transform="translate(30 24)" onmousedown="handlePan(0,-1)">
                  <use xlink:href="#rim" fill="#404040">
                        <set attributeName="fill" to="#808080" begin="arrowUp.mouseover" end="arrowUp.mouseout"/>
                  </use>
                  <path fill="none" stroke="white" stroke-width="1.5" d="M0,-3.0v7 M-2.5,-0.5L0,-3.0L2.5,-0.5"/>
                </g>
                <g id="arrowRight" xlink:href="#dirArrow" transform="rotate(90) translate(36 -43)" onmousedown="handlePan(1,0)">
                  <use xlink:href="#rim" fill="#404040">
                        <set attributeName="fill" to="#808080" begin="arrowRight.mouseover" end="arrowRight.mouseout"/>
                  </use>
                  <path fill="none" stroke="white" stroke-width="1.5" d="M0,-3.0v7 M-2.5,-0.5L0,-3.0L2.5,-0.5"/>
                </g>
                <g id="arrowDown" xlink:href="#dirArrow" transform="rotate(180) translate(-30 -48)" onmousedown="handlePan(0,1)">
                  <use xlink:href="#rim" fill="#404040">
                        <set attributeName="fill" to="#808080" begin="arrowDown.mouseover" end="arrowDown.mouseout"/>
                  </use>
                  <path fill="none" stroke="white" stroke-width="1.5" d="M0,-3.0v7 M-2.5,-0.5L0,-3.0L2.5,-0.5"/>
                </g>
                <g id="arrowLeft" xlink:href="#dirArrow" transform="rotate(270) translate(-36 17)" onmousedown="handlePan(-1,0)">
                  <use xlink:href="#rim" fill="#404040">
                        <set attributeName="fill" to="#808080" begin="arrowLeft.mouseover" end="arrowLeft.mouseout"/>
                  </use>
                  <path fill="none" stroke="white" stroke-width="1.5" d="M0,-3.0v7 M-2.5,-0.5L0,-3.0L2.5,-0.5"/>
                </g>
        </g>
        <svg viewBox="0 0 15 15" width="100%" height="30px" preserveAspectRatio="xMaxYMin meet">
         <g id="arrow_out" transform="scale(0.3 0.3)">
          <a xlink:href="a60-svg-linear_8h__incl_org.svg" target="_base">
           <rect id="button" ry="5" rx="5" y="6" x="6" height="38" width="38"
                fill="#f2f5e9" fill-opacity="0.5" stroke="#606060" stroke-width="1.0"/>
           <path id="arrow"
             d="M 11.500037,31.436501 C 11.940474,20.09759 22.043105,11.32322 32.158766,21.979434 L 37.068811,17.246167 C 37.068811,17.246167 37.088388,32 37.088388,32 L 22.160133,31.978069 C 22.160133,31.978069 26.997745,27.140456 26.997745,27.140456 C 18.528582,18.264221 13.291696,25.230495 11.500037,31.436501 z"
             style="fill:#404040;"/>
          </a>
         </g>
        </svg>
</svg>
