<?xml version="1.0" encoding="UTF-8" standalone="no"?>
<!DOCTYPE svg PUBLIC "-//W3C//DTD SVG 1.1//EN"
 "http://www.w3.org/Graphics/SVG/1.1/DTD/svg11.dtd">
<!-- Generated by graphviz version 2.50.0 (0)
 -->
<!-- Title: svg::next_in_color_band Pages: 1 -->
<svg width="430pt" height="100pt"
 viewBox="0.00 0.00 430.00 100.00" xmlns="http://www.w3.org/2000/svg" xmlns:xlink="http://www.w3.org/1999/xlink">
<g id="graph0" class="graph" transform="scale(1 1) rotate(0) translate(4 96)">
<title>svg::next_in_color_band</title>
<polygon fill="white" stroke="transparent" points="-4,4 -4,-96 426,-96 426,4 -4,4"/>
<!-- Node1 -->
<g id="node1" class="node">
<title>Node1</title>
<g id="a_node1"><a xlink:title="Flip through color band colors. @bandn is the number of colors in the colorband.">
<polygon fill="#bfbfbf" stroke="black" points="0,-37.5 0,-54.5 114,-54.5 114,-37.5 0,-37.5"/>
<text text-anchor="middle" x="57" y="-44.1" font-family="SourceSans" font-size="8.00">svg::next_in_color_band</text>
</a>
</g>
</g>
<!-- Node2 -->
<g id="node2" class="node">
<title>Node2</title>
<g id="a_node2"><a xlink:href="namespacesvg.html#a5469f510ea7b61e989c2cb48055c9973" target="_top" xlink:title=" ">
<polygon fill="white" stroke="black" points="154.5,-74.5 154.5,-91.5 261.5,-91.5 261.5,-74.5 154.5,-74.5"/>
<text text-anchor="middle" x="208" y="-81.1" font-family="SourceSans" font-size="8.00">svg::make_color_band</text>
</a>
</g>
</g>
<!-- Node1&#45;&gt;Node2 -->
<g id="edge1" class="edge">
<title>Node1&#45;&gt;Node2</title>
<path fill="none" stroke="midnightblue" d="M92.56,-54.58C113.43,-59.77 140.25,-66.42 162.67,-71.99"/>
<polygon fill="midnightblue" stroke="midnightblue" points="162.08,-75.45 172.63,-74.46 163.77,-68.66 162.08,-75.45"/>
</g>
<!-- Node4 -->
<g id="node4" class="node">
<title>Node4</title>
<g id="a_node4"><a xlink:href="namespacesvg.html#a36b1c48ad4601b205790e3772ad0a7b6" target="_top" xlink:title=" ">
<polygon fill="white" stroke="black" points="326,-38.5 326,-55.5 398,-55.5 398,-38.5 326,-38.5"/>
<text text-anchor="middle" x="362" y="-45.1" font-family="SourceSans" font-size="8.00">svg::to_string</text>
</a>
</g>
</g>
<!-- Node1&#45;&gt;Node4 -->
<g id="edge5" class="edge">
<title>Node1&#45;&gt;Node4</title>
<path fill="none" stroke="midnightblue" d="M114.28,-46.19C172.36,-46.38 261.85,-46.67 315.58,-46.85"/>
<polygon fill="midnightblue" stroke="midnightblue" points="315.82,-50.35 325.83,-46.88 315.84,-43.35 315.82,-50.35"/>
</g>
<!-- Node5 -->
<g id="node5" class="node">
<title>Node5</title>
<g id="a_node5"><a xlink:href="namespacesvg_1_1constants.html#aa7f04c2ea699a1b1e2e790de5ac33f38" target="_top" xlink:title=" ">
<polygon fill="white" stroke="black" points="150,-0.5 150,-17.5 266,-17.5 266,-0.5 150,-0.5"/>
<text text-anchor="middle" x="208" y="-7.1" font-family="SourceSans" font-size="8.00">svg::constants::newline</text>
</a>
</g>
</g>
<!-- Node1&#45;&gt;Node5 -->
<g id="edge4" class="edge">
<title>Node1&#45;&gt;Node5</title>
<path fill="none" stroke="midnightblue" d="M92.56,-37.42C113.43,-32.23 140.25,-25.58 162.67,-20.01"/>
<polygon fill="midnightblue" stroke="midnightblue" points="163.77,-23.34 172.63,-17.54 162.08,-16.55 163.77,-23.34"/>
</g>
<!-- Node3 -->
<g id="node3" class="node">
<title>Node3</title>
<g id="a_node3"><a xlink:href="namespacesvg.html#a18a14a2ee29ad608f6c4c1ecd8901e96" target="_top" xlink:title=" ">
<polygon fill="white" stroke="black" points="302,-74.5 302,-91.5 422,-91.5 422,-74.5 302,-74.5"/>
<text text-anchor="middle" x="362" y="-81.1" font-family="SourceSans" font-size="8.00">svg::combine_two_colorq</text>
</a>
</g>
</g>
<!-- Node2&#45;&gt;Node3 -->
<g id="edge2" class="edge">
<title>Node2&#45;&gt;Node3</title>
<path fill="none" stroke="midnightblue" d="M261.74,-83C271.45,-83 281.72,-83 291.83,-83"/>
<polygon fill="midnightblue" stroke="midnightblue" points="291.85,-86.5 301.85,-83 291.85,-79.5 291.85,-86.5"/>
</g>
<!-- Node2&#45;&gt;Node4 -->
<g id="edge3" class="edge">
<title>Node2&#45;&gt;Node4</title>
<path fill="none" stroke="midnightblue" d="M245.02,-74.47C266.28,-69.43 293.38,-63.02 316.03,-57.65"/>
<polygon fill="midnightblue" stroke="midnightblue" points="316.84,-61.06 325.76,-55.35 315.22,-54.25 316.84,-61.06"/>
</g>
</g>
</svg>
