<?xml version="1.0" encoding="UTF-8" standalone="no"?>
<!DOCTYPE svg PUBLIC "-//W3C//DTD SVG 1.1//EN"
 "http://www.w3.org/Graphics/SVG/1.1/DTD/svg11.dtd">
<!-- Generated by graphviz version 2.50.0 (0)
 -->
<!-- Title: svg::direction_arc_at Pages: 1 -->
<svg width="415pt" height="456pt"
 viewBox="0.00 0.00 415.00 455.50" xmlns="http://www.w3.org/2000/svg" xmlns:xlink="http://www.w3.org/1999/xlink">
<g id="graph0" class="graph" transform="scale(1 1) rotate(0) translate(4 451.5)">
<title>svg::direction_arc_at</title>
<polygon fill="white" stroke="transparent" points="-4,4 -4,-451.5 411,-451.5 411,4 -4,4"/>
<!-- Node1 -->
<g id="node1" class="node">
<title>Node1</title>
<g id="a_node1"><a xlink:title="Arc + arrow glyph that traces path of start to finish trajectory.">
<polygon fill="#bfbfbf" stroke="black" points="0,-206.5 0,-223.5 101,-223.5 101,-206.5 0,-206.5"/>
<text text-anchor="middle" x="50.5" y="-213.1" font-family="SourceSans" font-size="8.00">svg::direction_arc_at</text>
</a>
</g>
</g>
<!-- Node2 -->
<g id="node2" class="node">
<title>Node2</title>
<g id="a_node2"><a xlink:href="group__elements.html#a807f3c30f2ace338ad10aaf230b47665" target="_top" xlink:title="Either serialize immediately (as below), or create data structure that adds data to data_vec and then...">
<polygon fill="white" stroke="black" points="148.5,-421 148.5,-447 247.5,-447 247.5,-421 148.5,-421"/>
<text text-anchor="start" x="156.5" y="-436.6" font-family="SourceSans" font-size="8.00">svg::path_element::</text>
<text text-anchor="middle" x="198" y="-427.6" font-family="SourceSans" font-size="8.00">add_data</text>
</a>
</g>
</g>
<!-- Node1&#45;&gt;Node2 -->
<g id="edge1" class="edge">
<title>Node1&#45;&gt;Node2</title>
<path fill="none" stroke="midnightblue" d="M52.82,-223.88C57.83,-254.48 78.43,-356.73 137,-412 138.28,-413.2 139.62,-414.34 141.03,-415.42"/>
<polygon fill="midnightblue" stroke="midnightblue" points="139.31,-418.48 149.61,-420.95 143.1,-412.59 139.31,-418.48"/>
</g>
<!-- Node3 -->
<g id="node3" class="node">
<title>Node3</title>
<g id="a_node3"><a xlink:href="group__elements.html#adb6116b96467cc39cb178deb10c7a869" target="_top" xlink:title=" ">
<polygon fill="white" stroke="black" points="143,-376 143,-402 253,-402 253,-376 143,-376"/>
<text text-anchor="start" x="151" y="-391.6" font-family="SourceSans" font-size="8.00">svg::svg_element::add</text>
<text text-anchor="middle" x="198" y="-382.6" font-family="SourceSans" font-size="8.00">_element</text>
</a>
</g>
</g>
<!-- Node1&#45;&gt;Node3 -->
<g id="edge2" class="edge">
<title>Node1&#45;&gt;Node3</title>
<path fill="none" stroke="midnightblue" d="M54.5,-223.78C63.35,-248.51 91.62,-319.66 137,-361 141.14,-364.77 145.88,-368.13 150.84,-371.08"/>
<polygon fill="midnightblue" stroke="midnightblue" points="149.47,-374.31 159.93,-375.97 152.78,-368.15 149.47,-374.31"/>
</g>
<!-- Node4 -->
<g id="node4" class="node">
<title>Node4</title>
<g id="a_node4"><a xlink:href="group__elements.html#a238b38ca99a1cf6c2baf80c8e4338d99" target="_top" xlink:title=" ">
<polygon fill="white" stroke="black" points="147.5,-292 147.5,-318 248.5,-318 248.5,-292 147.5,-292"/>
<text text-anchor="start" x="155.5" y="-307.6" font-family="SourceSans" font-size="8.00">svg::element_base::</text>
<text text-anchor="middle" x="198" y="-298.6" font-family="SourceSans" font-size="8.00">add_style</text>
</a>
</g>
</g>
<!-- Node1&#45;&gt;Node4 -->
<g id="edge3" class="edge">
<title>Node1&#45;&gt;Node4</title>
<path fill="none" stroke="midnightblue" d="M60.28,-223.6C75.04,-237.66 106.24,-265.73 137,-283 140.04,-284.71 143.24,-286.33 146.52,-287.86"/>
<polygon fill="midnightblue" stroke="midnightblue" points="145.3,-291.15 155.87,-291.92 148.09,-284.73 145.3,-291.15"/>
</g>
<!-- Node5 -->
<g id="node5" class="node">
<title>Node5</title>
<g id="a_node5"><a xlink:href="namespacesvg.html#a36b1c48ad4601b205790e3772ad0a7b6" target="_top" xlink:title=" ">
<polygon fill="white" stroke="black" points="315,-296.5 315,-313.5 387,-313.5 387,-296.5 315,-296.5"/>
<text text-anchor="middle" x="351" y="-303.1" font-family="SourceSans" font-size="8.00">svg::to_string</text>
</a>
</g>
</g>
<!-- Node1&#45;&gt;Node5 -->
<g id="edge15" class="edge">
<title>Node1&#45;&gt;Node5</title>
<path fill="none" stroke="midnightblue" d="M54.82,-223.67C63.91,-246.01 91.62,-305.43 137,-328 197.43,-358.05 279.2,-333.95 321.71,-317.36"/>
<polygon fill="midnightblue" stroke="midnightblue" points="323.18,-320.54 331.14,-313.55 320.56,-314.05 323.18,-320.54"/>
</g>
<!-- Node6 -->
<g id="node6" class="node">
<title>Node6</title>
<g id="a_node6"><a xlink:href="group__elements.html#gaac30ae99fb1a2542688fa1ffb43cd8e1" target="_top" xlink:title=" ">
<polygon fill="white" stroke="black" points="148.5,-247 148.5,-273 247.5,-273 247.5,-247 148.5,-247"/>
<text text-anchor="start" x="156.5" y="-262.6" font-family="SourceSans" font-size="8.00">svg::path_element::</text>
<text text-anchor="middle" x="198" y="-253.6" font-family="SourceSans" font-size="8.00">finish_element</text>
</a>
</g>
</g>
<!-- Node1&#45;&gt;Node6 -->
<g id="edge5" class="edge">
<title>Node1&#45;&gt;Node6</title>
<path fill="none" stroke="midnightblue" d="M79.21,-223.57C97.81,-229.32 122.89,-237.08 145.13,-243.96"/>
<polygon fill="midnightblue" stroke="midnightblue" points="144.2,-247.33 154.78,-246.94 146.26,-240.64 144.2,-247.33"/>
</g>
<!-- Node7 -->
<g id="node7" class="node">
<title>Node7</title>
<g id="a_node7"><a xlink:href="namespacesvg.html#ab44508c4aeca591141ebec50145b75cd" target="_top" xlink:title="Angle in degrees.">
<polygon fill="white" stroke="black" points="142,-82 142,-108 254,-108 254,-82 142,-82"/>
<text text-anchor="start" x="150" y="-97.6" font-family="SourceSans" font-size="8.00">svg::get_circumference</text>
<text text-anchor="middle" x="198" y="-88.6" font-family="SourceSans" font-size="8.00">_point_d</text>
</a>
</g>
</g>
<!-- Node1&#45;&gt;Node7 -->
<g id="edge6" class="edge">
<title>Node1&#45;&gt;Node7</title>
<path fill="none" stroke="midnightblue" d="M57.69,-206.35C70.69,-188.72 102.45,-148.15 137,-123 142.18,-119.23 147.96,-115.77 153.82,-112.67"/>
<polygon fill="midnightblue" stroke="midnightblue" points="155.63,-115.67 163.02,-108.09 152.51,-109.41 155.63,-115.67"/>
</g>
<!-- Node10 -->
<g id="node10" class="node">
<title>Node10</title>
<g id="a_node10"><a xlink:href="namespacesvg.html#a694806659ebf061e616b8a0b49a53f40" target="_top" xlink:title=" ">
<polygon fill="white" stroke="black" points="145.5,-165.5 145.5,-182.5 250.5,-182.5 250.5,-165.5 145.5,-165.5"/>
<text text-anchor="middle" x="198" y="-172.1" font-family="SourceSans" font-size="8.00">svg::get_radial_range</text>
</a>
</g>
</g>
<!-- Node1&#45;&gt;Node10 -->
<g id="edge9" class="edge">
<title>Node1&#45;&gt;Node10</title>
<path fill="none" stroke="midnightblue" d="M82,-206.41C103.73,-200.28 133.15,-191.99 156.8,-185.33"/>
<polygon fill="midnightblue" stroke="midnightblue" points="157.86,-188.66 166.54,-182.58 155.96,-181.93 157.86,-188.66"/>
</g>
<!-- Node11 -->
<g id="node11" class="node">
<title>Node11</title>
<g id="a_node11"><a xlink:href="namespacesvg.html#abd8e35decc1e56f7243b02174c701d37" target="_top" xlink:title="Make path segment between two points on a circumference of radius r. Points like: get_circumference_p...">
<polygon fill="white" stroke="black" points="149,-202 149,-228 247,-228 247,-202 149,-202"/>
<text text-anchor="start" x="157" y="-217.6" font-family="SourceSans" font-size="8.00">svg::make_path_arc</text>
<text text-anchor="middle" x="198" y="-208.6" font-family="SourceSans" font-size="8.00">_circumference</text>
</a>
</g>
</g>
<!-- Node1&#45;&gt;Node11 -->
<g id="edge10" class="edge">
<title>Node1&#45;&gt;Node11</title>
<path fill="none" stroke="midnightblue" d="M101.17,-215C113.13,-215 126.02,-215 138.35,-215"/>
<polygon fill="midnightblue" stroke="midnightblue" points="138.54,-218.5 148.54,-215 138.54,-211.5 138.54,-218.5"/>
</g>
<!-- Node12 -->
<g id="node12" class="node">
<title>Node12</title>
<g id="a_node12"><a xlink:href="namespacesvg_1_1constants.html#ac460bc8db60d85c3ae1cf8b1a903405e" target="_top" xlink:title="Formatting character constants.">
<polygon fill="white" stroke="black" points="297,-167.5 297,-184.5 405,-184.5 405,-167.5 297,-167.5"/>
<text text-anchor="middle" x="351" y="-174.1" font-family="SourceSans" font-size="8.00">svg::constants::space</text>
</a>
</g>
</g>
<!-- Node1&#45;&gt;Node12 -->
<g id="edge13" class="edge">
<title>Node1&#45;&gt;Node12</title>
<path fill="none" stroke="midnightblue" d="M60,-206.42C74.35,-192.6 104.97,-165.98 137,-156 197.57,-137.13 272.14,-152.34 315.06,-164.56"/>
<polygon fill="midnightblue" stroke="midnightblue" points="314.16,-167.95 324.75,-167.42 316.15,-161.23 314.16,-167.95"/>
</g>
<!-- Node13 -->
<g id="node13" class="node">
<title>Node13</title>
<g id="a_node13"><a xlink:href="group__elements.html#a6dbca7cef2cbc0c10aa44c44ae20b36e" target="_top" xlink:title=" ">
<polygon fill="white" stroke="black" points="148.5,-37 148.5,-63 247.5,-63 247.5,-37 148.5,-37"/>
<text text-anchor="start" x="156.5" y="-52.6" font-family="SourceSans" font-size="8.00">svg::path_element::</text>
<text text-anchor="middle" x="198" y="-43.6" font-family="SourceSans" font-size="8.00">start_element</text>
</a>
</g>
</g>
<!-- Node1&#45;&gt;Node13 -->
<g id="edge14" class="edge">
<title>Node1&#45;&gt;Node13</title>
<path fill="none" stroke="midnightblue" d="M54.38,-206.21C62.92,-181.47 90.44,-110.56 137,-72 138.57,-70.7 140.22,-69.47 141.94,-68.32"/>
<polygon fill="midnightblue" stroke="midnightblue" points="144.07,-71.13 150.97,-63.09 140.56,-65.07 144.07,-71.13"/>
</g>
<!-- Node14 -->
<g id="node14" class="node">
<title>Node14</title>
<g id="a_node14"><a xlink:href="namespacesvg.html#a46164d75fd5109e4ed8879abbacd5c11" target="_top" xlink:title="Zero degrees is top, going clockwise (cw).">
<polygon fill="white" stroke="black" points="137,-0.5 137,-17.5 259,-17.5 259,-0.5 137,-0.5"/>
<text text-anchor="middle" x="198" y="-7.1" font-family="SourceSans" font-size="8.00">svg::zero_angle_north_cw</text>
</a>
</g>
</g>
<!-- Node1&#45;&gt;Node14 -->
<g id="edge16" class="edge">
<title>Node1&#45;&gt;Node14</title>
<path fill="none" stroke="midnightblue" d="M52.84,-206.4C57.9,-176.76 78.66,-77.93 137,-27 138.97,-25.28 141.1,-23.72 143.35,-22.31"/>
<polygon fill="midnightblue" stroke="midnightblue" points="145.19,-25.3 152.45,-17.59 141.96,-19.09 145.19,-25.3"/>
</g>
<!-- Node4&#45;&gt;Node5 -->
<g id="edge4" class="edge">
<title>Node4&#45;&gt;Node5</title>
<path fill="none" stroke="midnightblue" d="M248.86,-305C266.96,-305 287.28,-305 304.94,-305"/>
<polygon fill="midnightblue" stroke="midnightblue" points="304.99,-308.5 314.99,-305 304.99,-301.5 304.99,-308.5"/>
</g>
<!-- Node8 -->
<g id="node8" class="node">
<title>Node8</title>
<g id="a_node8"><a xlink:href="namespacesvg.html#aef05ac63d88a6102981d3faf37275297" target="_top" xlink:title="Angle in radians.">
<polygon fill="white" stroke="black" points="295,-82 295,-108 407,-108 407,-82 295,-82"/>
<text text-anchor="start" x="303" y="-97.6" font-family="SourceSans" font-size="8.00">svg::get_circumference</text>
<text text-anchor="middle" x="351" y="-88.6" font-family="SourceSans" font-size="8.00">_point_r</text>
</a>
</g>
</g>
<!-- Node7&#45;&gt;Node8 -->
<g id="edge7" class="edge">
<title>Node7&#45;&gt;Node8</title>
<path fill="none" stroke="midnightblue" d="M254.37,-95C264.28,-95 274.69,-95 284.85,-95"/>
<polygon fill="midnightblue" stroke="midnightblue" points="284.89,-98.5 294.89,-95 284.89,-91.5 284.89,-98.5"/>
</g>
<!-- Node9 -->
<g id="node9" class="node">
<title>Node9</title>
<g id="a_node9"><a xlink:href="namespacesvg_1_1constants.html#a0e0b0d9314bc47324ee39884bf8bb2fd" target="_top" xlink:title=" ">
<polygon fill="white" stroke="black" points="305.5,-45.5 305.5,-62.5 396.5,-62.5 396.5,-45.5 305.5,-45.5"/>
<text text-anchor="middle" x="351" y="-52.1" font-family="SourceSans" font-size="8.00">svg::constants::pi</text>
</a>
</g>
</g>
<!-- Node7&#45;&gt;Node9 -->
<g id="edge8" class="edge">
<title>Node7&#45;&gt;Node9</title>
<path fill="none" stroke="midnightblue" d="M247.19,-81.91C266.95,-76.55 289.58,-70.4 308.58,-65.25"/>
<polygon fill="midnightblue" stroke="midnightblue" points="309.69,-68.57 318.43,-62.57 307.86,-61.82 309.69,-68.57"/>
</g>
<!-- Node11&#45;&gt;Node5 -->
<g id="edge12" class="edge">
<title>Node11&#45;&gt;Node5</title>
<path fill="none" stroke="midnightblue" d="M237.78,-228.11C244.99,-231.03 252.34,-234.36 259,-238 286.37,-252.96 314.84,-275.18 332.49,-289.87"/>
<polygon fill="midnightblue" stroke="midnightblue" points="330.33,-292.63 340.23,-296.42 334.85,-287.29 330.33,-292.63"/>
</g>
<!-- Node11&#45;&gt;Node12 -->
<g id="edge11" class="edge">
<title>Node11&#45;&gt;Node12</title>
<path fill="none" stroke="midnightblue" d="M247.19,-202.55C266.51,-197.56 288.58,-191.86 307.31,-187.03"/>
<polygon fill="midnightblue" stroke="midnightblue" points="308.24,-190.4 317.04,-184.51 306.49,-183.62 308.24,-190.4"/>
</g>
</g>
</svg>
