<?xml version="1.0" encoding="UTF-8" standalone="no"?>
<!DOCTYPE svg PUBLIC "-//W3C//DTD SVG 1.1//EN"
 "http://www.w3.org/Graphics/SVG/1.1/DTD/svg11.dtd">
<!-- Generated by graphviz version 2.50.0 (0)
 -->
<!-- Title: svg::paint_edges_with_char_index Pages: 1 -->
<svg width="510pt" height="215pt"
 viewBox="0.00 0.00 510.00 215.00" xmlns="http://www.w3.org/2000/svg" xmlns:xlink="http://www.w3.org/1999/xlink">
<g id="graph0" class="graph" transform="scale(1 1) rotate(0) translate(4 211)">
<title>svg::paint_edges_with_char_index</title>
<polygon fill="white" stroke="transparent" points="-4,4 -4,-211 506,-211 506,4 -4,4"/>
<!-- Node1 -->
<g id="node1" class="node">
<title>Node1</title>
<g id="a_node1"><a xlink:title="Paint the edges of a physical page. Assumes page is square. / @rlen is height of painted rectangle fr...">
<polygon fill="#bfbfbf" stroke="black" points="0,-72.5 0,-98.5 108,-98.5 108,-72.5 0,-72.5"/>
<text text-anchor="start" x="8" y="-88.1" font-family="SourceSans" font-size="8.00">svg::paint_edges_with</text>
<text text-anchor="middle" x="54" y="-79.1" font-family="SourceSans" font-size="8.00">_char_index</text>
</a>
</g>
</g>
<!-- Node2 -->
<g id="node2" class="node">
<title>Node2</title>
<g id="a_node2"><a xlink:href="namespacesvg.html#adeadf637c3003a03e811e42432f6e58b" target="_top" xlink:title="Point to rectangle.">
<polygon fill="white" stroke="black" points="144.5,-95 144.5,-112 247.5,-112 247.5,-95 144.5,-95"/>
<text text-anchor="middle" x="196" y="-101.6" font-family="SourceSans" font-size="8.00">svg::point_2d_to_rect</text>
</a>
</g>
</g>
<!-- Node1&#45;&gt;Node2 -->
<g id="edge1" class="edge">
<title>Node1&#45;&gt;Node2</title>
<path fill="none" stroke="midnightblue" d="M108.33,-92.36C116.77,-93.44 125.56,-94.57 134.15,-95.68"/>
<polygon fill="midnightblue" stroke="midnightblue" points="133.76,-99.16 144.13,-96.96 134.66,-92.21 133.76,-99.16"/>
</g>
<!-- Node9 -->
<g id="node9" class="node">
<title>Node9</title>
<g id="a_node9"><a xlink:href="structsvg_1_1style.html#a67d14f365913125ab597def583559b5c" target="_top" xlink:title="Convenience function to set all colors at once.">
<polygon fill="white" stroke="black" points="144,-59 144,-76 248,-76 248,-59 144,-59"/>
<text text-anchor="middle" x="196" y="-65.6" font-family="SourceSans" font-size="8.00">svg::style::set_colors</text>
</a>
</g>
</g>
<!-- Node1&#45;&gt;Node9 -->
<g id="edge8" class="edge">
<title>Node1&#45;&gt;Node9</title>
<path fill="none" stroke="midnightblue" d="M108.33,-78.64C116.57,-77.58 125.14,-76.48 133.54,-75.4"/>
<polygon fill="midnightblue" stroke="midnightblue" points="134.2,-78.85 143.67,-74.1 133.3,-71.9 134.2,-78.85"/>
</g>
<!-- Node3 -->
<g id="node3" class="node">
<title>Node3</title>
<g id="a_node3"><a xlink:href="group__elements.html#a1dd6663d882fb5dd14a47462a77f351b" target="_top" xlink:title="Either serialize immediately (as below), or create data structure that adds data to data_vec and then...">
<polygon fill="white" stroke="black" points="291.5,-180.5 291.5,-206.5 386.5,-206.5 386.5,-180.5 291.5,-180.5"/>
<text text-anchor="start" x="299.5" y="-196.1" font-family="SourceSans" font-size="8.00">svg::rect_element::</text>
<text text-anchor="middle" x="339" y="-187.1" font-family="SourceSans" font-size="8.00">add_data</text>
</a>
</g>
</g>
<!-- Node2&#45;&gt;Node3 -->
<g id="edge2" class="edge">
<title>Node2&#45;&gt;Node3</title>
<path fill="none" stroke="midnightblue" d="M206.53,-112.41C221.89,-126.42 253.48,-153.82 284,-171.5 286.8,-173.12 289.75,-174.69 292.76,-176.18"/>
<polygon fill="midnightblue" stroke="midnightblue" points="291.35,-179.38 301.9,-180.42 294.3,-173.03 291.35,-179.38"/>
</g>
<!-- Node4 -->
<g id="node4" class="node">
<title>Node4</title>
<g id="a_node4"><a xlink:href="group__elements.html#adb6116b96467cc39cb178deb10c7a869" target="_top" xlink:title=" ">
<polygon fill="white" stroke="black" points="284,-135.5 284,-161.5 394,-161.5 394,-135.5 284,-135.5"/>
<text text-anchor="start" x="292" y="-151.1" font-family="SourceSans" font-size="8.00">svg::svg_element::add</text>
<text text-anchor="middle" x="339" y="-142.1" font-family="SourceSans" font-size="8.00">_element</text>
</a>
</g>
</g>
<!-- Node2&#45;&gt;Node4 -->
<g id="edge3" class="edge">
<title>Node2&#45;&gt;Node4</title>
<path fill="none" stroke="midnightblue" d="M223.85,-112.07C241.8,-117.8 265.97,-125.51 287.44,-132.36"/>
<polygon fill="midnightblue" stroke="midnightblue" points="286.5,-135.74 297.09,-135.44 288.63,-129.07 286.5,-135.74"/>
</g>
<!-- Node5 -->
<g id="node5" class="node">
<title>Node5</title>
<g id="a_node5"><a xlink:href="group__elements.html#a238b38ca99a1cf6c2baf80c8e4338d99" target="_top" xlink:title=" ">
<polygon fill="white" stroke="black" points="288.5,-90.5 288.5,-116.5 389.5,-116.5 389.5,-90.5 288.5,-90.5"/>
<text text-anchor="start" x="296.5" y="-106.1" font-family="SourceSans" font-size="8.00">svg::element_base::</text>
<text text-anchor="middle" x="339" y="-97.1" font-family="SourceSans" font-size="8.00">add_style</text>
</a>
</g>
</g>
<!-- Node2&#45;&gt;Node5 -->
<g id="edge4" class="edge">
<title>Node2&#45;&gt;Node5</title>
<path fill="none" stroke="midnightblue" d="M247.51,-103.5C257.46,-103.5 268,-103.5 278.23,-103.5"/>
<polygon fill="midnightblue" stroke="midnightblue" points="278.32,-107 288.32,-103.5 278.32,-100 278.32,-107"/>
</g>
<!-- Node7 -->
<g id="node7" class="node">
<title>Node7</title>
<g id="a_node7"><a xlink:href="group__elements.html#gad01750ac554c6bd6871a930c90e17a04" target="_top" xlink:title=" ">
<polygon fill="white" stroke="black" points="291.5,-45.5 291.5,-71.5 386.5,-71.5 386.5,-45.5 291.5,-45.5"/>
<text text-anchor="start" x="299.5" y="-61.1" font-family="SourceSans" font-size="8.00">svg::rect_element::</text>
<text text-anchor="middle" x="339" y="-52.1" font-family="SourceSans" font-size="8.00">finish_element</text>
</a>
</g>
</g>
<!-- Node2&#45;&gt;Node7 -->
<g id="edge6" class="edge">
<title>Node2&#45;&gt;Node7</title>
<path fill="none" stroke="midnightblue" d="M223.85,-94.93C241.8,-89.2 265.97,-81.49 287.44,-74.64"/>
<polygon fill="midnightblue" stroke="midnightblue" points="288.63,-77.93 297.09,-71.56 286.5,-71.26 288.63,-77.93"/>
</g>
<!-- Node8 -->
<g id="node8" class="node">
<title>Node8</title>
<g id="a_node8"><a xlink:href="group__elements.html#a1e0ed5e9dfe1244317a87d7e6774348b" target="_top" xlink:title=" ">
<polygon fill="white" stroke="black" points="291.5,-0.5 291.5,-26.5 386.5,-26.5 386.5,-0.5 291.5,-0.5"/>
<text text-anchor="start" x="299.5" y="-16.1" font-family="SourceSans" font-size="8.00">svg::rect_element::</text>
<text text-anchor="middle" x="339" y="-7.1" font-family="SourceSans" font-size="8.00">start_element</text>
</a>
</g>
</g>
<!-- Node2&#45;&gt;Node8 -->
<g id="edge7" class="edge">
<title>Node2&#45;&gt;Node8</title>
<path fill="none" stroke="midnightblue" d="M230.55,-94.9C236.69,-92.45 242.8,-89.36 248,-85.5 269.7,-69.4 262.82,-53.28 284,-36.5 286.25,-34.72 288.65,-33.05 291.15,-31.5"/>
<polygon fill="midnightblue" stroke="midnightblue" points="292.89,-34.54 299.94,-26.63 289.49,-28.42 292.89,-34.54"/>
</g>
<!-- Node6 -->
<g id="node6" class="node">
<title>Node6</title>
<g id="a_node6"><a xlink:href="namespacesvg.html#a36b1c48ad4601b205790e3772ad0a7b6" target="_top" xlink:title=" ">
<polygon fill="white" stroke="black" points="430,-95 430,-112 502,-112 502,-95 430,-95"/>
<text text-anchor="middle" x="466" y="-101.6" font-family="SourceSans" font-size="8.00">svg::to_string</text>
</a>
</g>
</g>
<!-- Node5&#45;&gt;Node6 -->
<g id="edge5" class="edge">
<title>Node5&#45;&gt;Node6</title>
<path fill="none" stroke="midnightblue" d="M389.76,-103.5C399.56,-103.5 409.8,-103.5 419.45,-103.5"/>
<polygon fill="midnightblue" stroke="midnightblue" points="419.65,-107 429.65,-103.5 419.65,-100 419.65,-107"/>
</g>
</g>
</svg>
