<?xml version="1.0" encoding="UTF-8" standalone="no"?>
<!DOCTYPE svg PUBLIC "-//W3C//DTD SVG 1.1//EN"
 "http://www.w3.org/Graphics/SVG/1.1/DTD/svg11.dtd">
<!-- Generated by graphviz version 2.50.0 (0)
 -->
<!-- Title: svg::points_to_line Pages: 1 -->
<svg width="492pt" height="170pt"
 viewBox="0.00 0.00 492.00 170.00" xmlns="http://www.w3.org/2000/svg" xmlns:xlink="http://www.w3.org/1999/xlink">
<g id="graph0" class="graph" transform="scale(1 1) rotate(0) translate(4 166)">
<title>svg::points_to_line</title>
<polygon fill="white" stroke="transparent" points="-4,4 -4,-166 488,-166 488,4 -4,4"/>
<!-- Node1 -->
<g id="node1" class="node">
<title>Node1</title>
<g id="a_node1"><a xlink:title="Line between two points.">
<polygon fill="#bfbfbf" stroke="black" points="0,-92 0,-109 93,-109 93,-92 0,-92"/>
<text text-anchor="middle" x="46.5" y="-98.6" font-family="SourceSans" font-size="8.00">svg::points_to_line</text>
</a>
</g>
</g>
<!-- Node2 -->
<g id="node2" class="node">
<title>Node2</title>
<g id="a_node2"><a xlink:href="group__elements.html#adb6116b96467cc39cb178deb10c7a869" target="_top" xlink:title=" ">
<polygon fill="white" stroke="black" points="129,-108.5 129,-134.5 239,-134.5 239,-108.5 129,-108.5"/>
<text text-anchor="start" x="137" y="-124.1" font-family="SourceSans" font-size="8.00">svg::svg_element::add</text>
<text text-anchor="middle" x="184" y="-115.1" font-family="SourceSans" font-size="8.00">_element</text>
</a>
</g>
</g>
<!-- Node1&#45;&gt;Node2 -->
<g id="edge1" class="edge">
<title>Node1&#45;&gt;Node2</title>
<path fill="none" stroke="midnightblue" d="M93.37,-107.61C101.54,-108.88 110.18,-110.21 118.75,-111.54"/>
<polygon fill="midnightblue" stroke="midnightblue" points="118.32,-115.02 128.74,-113.09 119.39,-108.1 118.32,-115.02"/>
</g>
<!-- Node3 -->
<g id="node3" class="node">
<title>Node3</title>
<g id="a_node3"><a xlink:href="namespacesvg.html#a520130e7464e62521cf59e048a48cee7" target="_top" xlink:title="Line primitive.">
<polygon fill="white" stroke="black" points="145.5,-72 145.5,-89 222.5,-89 222.5,-72 145.5,-72"/>
<text text-anchor="middle" x="184" y="-78.6" font-family="SourceSans" font-size="8.00">svg::make_line</text>
</a>
</g>
</g>
<!-- Node1&#45;&gt;Node3 -->
<g id="edge2" class="edge">
<title>Node1&#45;&gt;Node3</title>
<path fill="none" stroke="midnightblue" d="M93.37,-93.73C106.83,-91.74 121.58,-89.57 135.16,-87.56"/>
<polygon fill="midnightblue" stroke="midnightblue" points="135.9,-90.99 145.28,-86.07 134.87,-84.07 135.9,-90.99"/>
</g>
<!-- Node4 -->
<g id="node4" class="node">
<title>Node4</title>
<g id="a_node4"><a xlink:href="group__elements.html#a306eac4c5a7ea755ab6375a65489366f" target="_top" xlink:title=" ">
<polygon fill="white" stroke="black" points="278,-135.5 278,-161.5 373,-161.5 373,-135.5 278,-135.5"/>
<text text-anchor="start" x="286" y="-151.1" font-family="SourceSans" font-size="8.00">svg::line_element::</text>
<text text-anchor="middle" x="325.5" y="-142.1" font-family="SourceSans" font-size="8.00">add_data</text>
</a>
</g>
</g>
<!-- Node3&#45;&gt;Node4 -->
<g id="edge3" class="edge">
<title>Node3&#45;&gt;Node4</title>
<path fill="none" stroke="midnightblue" d="M214.56,-89.08C222.7,-91.92 231.37,-95.42 239,-99.5 256.64,-108.93 257.75,-116.37 275,-126.5 277.63,-128.05 280.39,-129.55 283.21,-131.01"/>
<polygon fill="midnightblue" stroke="midnightblue" points="281.76,-134.2 292.28,-135.45 284.84,-127.91 281.76,-134.2"/>
</g>
<!-- Node5 -->
<g id="node5" class="node">
<title>Node5</title>
<g id="a_node5"><a xlink:href="group__elements.html#a238b38ca99a1cf6c2baf80c8e4338d99" target="_top" xlink:title=" ">
<polygon fill="white" stroke="black" points="275,-90.5 275,-116.5 376,-116.5 376,-90.5 275,-90.5"/>
<text text-anchor="start" x="283" y="-106.1" font-family="SourceSans" font-size="8.00">svg::element_base::</text>
<text text-anchor="middle" x="325.5" y="-97.1" font-family="SourceSans" font-size="8.00">add_style</text>
</a>
</g>
</g>
<!-- Node3&#45;&gt;Node5 -->
<g id="edge4" class="edge">
<title>Node3&#45;&gt;Node5</title>
<path fill="none" stroke="midnightblue" d="M222.75,-86.72C235.67,-88.85 250.46,-91.29 264.69,-93.64"/>
<polygon fill="midnightblue" stroke="midnightblue" points="264.48,-97.15 274.92,-95.33 265.62,-90.24 264.48,-97.15"/>
</g>
<!-- Node7 -->
<g id="node7" class="node">
<title>Node7</title>
<g id="a_node7"><a xlink:href="group__elements.html#ga4769af15793cb308d426abb5fd552df5" target="_top" xlink:title=" ">
<polygon fill="white" stroke="black" points="278,-45.5 278,-71.5 373,-71.5 373,-45.5 278,-45.5"/>
<text text-anchor="start" x="286" y="-61.1" font-family="SourceSans" font-size="8.00">svg::line_element::</text>
<text text-anchor="middle" x="325.5" y="-52.1" font-family="SourceSans" font-size="8.00">finish_element</text>
</a>
</g>
</g>
<!-- Node3&#45;&gt;Node7 -->
<g id="edge6" class="edge">
<title>Node3&#45;&gt;Node7</title>
<path fill="none" stroke="midnightblue" d="M222.75,-74.55C236.52,-72.38 252.41,-69.87 267.48,-67.49"/>
<polygon fill="midnightblue" stroke="midnightblue" points="268.41,-70.89 277.75,-65.87 267.32,-63.97 268.41,-70.89"/>
</g>
<!-- Node8 -->
<g id="node8" class="node">
<title>Node8</title>
<g id="a_node8"><a xlink:href="group__elements.html#aa6b4ba04be5858b4943235801f034943" target="_top" xlink:title=" ">
<polygon fill="white" stroke="black" points="278,-0.5 278,-26.5 373,-26.5 373,-0.5 278,-0.5"/>
<text text-anchor="start" x="286" y="-16.1" font-family="SourceSans" font-size="8.00">svg::line_element::</text>
<text text-anchor="middle" x="325.5" y="-7.1" font-family="SourceSans" font-size="8.00">start_element</text>
</a>
</g>
</g>
<!-- Node3&#45;&gt;Node8 -->
<g id="edge7" class="edge">
<title>Node3&#45;&gt;Node8</title>
<path fill="none" stroke="midnightblue" d="M202.2,-71.96C220.28,-63.02 249.57,-48.62 275,-36.5 278.85,-34.67 282.87,-32.76 286.9,-30.88"/>
<polygon fill="midnightblue" stroke="midnightblue" points="288.6,-33.94 296.18,-26.54 285.64,-27.6 288.6,-33.94"/>
</g>
<!-- Node6 -->
<g id="node6" class="node">
<title>Node6</title>
<g id="a_node6"><a xlink:href="namespacesvg.html#a36b1c48ad4601b205790e3772ad0a7b6" target="_top" xlink:title=" ">
<polygon fill="white" stroke="black" points="412,-95 412,-112 484,-112 484,-95 412,-95"/>
<text text-anchor="middle" x="448" y="-101.6" font-family="SourceSans" font-size="8.00">svg::to_string</text>
</a>
</g>
</g>
<!-- Node5&#45;&gt;Node6 -->
<g id="edge5" class="edge">
<title>Node5&#45;&gt;Node6</title>
<path fill="none" stroke="midnightblue" d="M376.21,-103.5C384.6,-103.5 393.26,-103.5 401.54,-103.5"/>
<polygon fill="midnightblue" stroke="midnightblue" points="401.75,-107 411.75,-103.5 401.75,-100 401.75,-107"/>
</g>
</g>
</svg>
