<?xml version="1.0" encoding="UTF-8" standalone="no"?>
<!DOCTYPE svg PUBLIC "-//W3C//DTD SVG 1.1//EN"
 "http://www.w3.org/Graphics/SVG/1.1/DTD/svg11.dtd">
<!-- Generated by graphviz version 2.44.0 (0)
 -->
<!-- Title: svg::text_element::add_data Pages: 1 -->
<svg width="388pt" height="256pt"
 viewBox="0.00 0.00 388.00 256.00" xmlns="http://www.w3.org/2000/svg" xmlns:xlink="http://www.w3.org/1999/xlink">
<g id="graph0" class="graph" transform="scale(1 1) rotate(0) translate(4 252)">
<title>svg::text_element::add_data</title>
<polygon fill="white" stroke="transparent" points="-4,4 -4,-252 384,-252 384,4 -4,4"/>
<!-- Node1 -->
<g id="node1" class="node">
<title>Node1</title>
<g id="a_node1"><a xlink:title="Either serialize immediately (as below), or create data structure that adds data to data_vec and then...">
<polygon fill="#bfbfbf" stroke="black" points="0,-129 0,-155 95,-155 95,-129 0,-129"/>
<text text-anchor="start" x="8" y="-144.6" font-family="SourceSans" font-size="8.00">svg::text_element::</text>
<text text-anchor="middle" x="47.5" y="-135.6" font-family="SourceSans" font-size="8.00">add_data</text>
</a>
</g>
</g>
<!-- Node2 -->
<g id="node2" class="node">
<title>Node2</title>
<g id="a_node2"><a xlink:href="structsvg_1_1typography.html#a70f61596bba3e0bd67b43a8fc553dbfa" target="_top" xlink:title=" ">
<polygon fill="white" stroke="black" points="131,-190 131,-216 236,-216 236,-190 131,-190"/>
<text text-anchor="start" x="139" y="-205.6" font-family="SourceSans" font-size="8.00">svg::typography::add</text>
<text text-anchor="middle" x="183.5" y="-196.6" font-family="SourceSans" font-size="8.00">_attribute</text>
</a>
</g>
</g>
<!-- Node1&#45;&gt;Node2 -->
<g id="edge1" class="edge">
<title>Node1&#45;&gt;Node2</title>
<path fill="none" stroke="midnightblue" d="M77.25,-155.09C96.94,-164.05 123.27,-176.04 144.66,-185.78"/>
<polygon fill="midnightblue" stroke="midnightblue" points="143.25,-188.98 153.8,-189.94 146.15,-182.61 143.25,-188.98"/>
</g>
<!-- Node3 -->
<g id="node3" class="node">
<title>Node3</title>
<g id="a_node3"><a xlink:href="namespacesvg.html#a48ac748e89e22789d1772326a98dd7b6" target="_top" xlink:title=" ">
<polygon fill="white" stroke="black" points="278.5,-230.5 278.5,-247.5 373.5,-247.5 373.5,-230.5 278.5,-230.5"/>
<text text-anchor="middle" x="326" y="-237.1" font-family="SourceSans" font-size="8.00">svg::string_replace</text>
</a>
</g>
</g>
<!-- Node1&#45;&gt;Node3 -->
<g id="edge12" class="edge">
<title>Node1&#45;&gt;Node3</title>
<path fill="none" stroke="midnightblue" d="M56.72,-155.11C69.76,-174.57 97.19,-210.47 131,-226 174.03,-245.77 228.16,-247.78 268.3,-245.55"/>
<polygon fill="midnightblue" stroke="midnightblue" points="268.7,-249.03 278.45,-244.88 268.24,-242.05 268.7,-249.03"/>
</g>
<!-- Node4 -->
<g id="node4" class="node">
<title>Node4</title>
<g id="a_node4"><a xlink:href="structsvg_1_1typography.html#a174c1ffb4e56214d71523ffe7e422561" target="_top" xlink:title=" ">
<polygon fill="white" stroke="black" points="277,-180 277,-206 375,-206 375,-180 277,-180"/>
<text text-anchor="start" x="285" y="-195.6" font-family="SourceSans" font-size="8.00">svg::typography::to</text>
<text text-anchor="middle" x="326" y="-186.6" font-family="SourceSans" font-size="8.00">_string</text>
</a>
</g>
</g>
<!-- Node1&#45;&gt;Node4 -->
<g id="edge13" class="edge">
<title>Node1&#45;&gt;Node4</title>
<path fill="none" stroke="midnightblue" d="M95.09,-150.59C142.42,-159.32 215.83,-172.86 266.92,-182.29"/>
<polygon fill="midnightblue" stroke="midnightblue" points="266.35,-185.74 276.82,-184.11 267.62,-178.86 266.35,-185.74"/>
</g>
<!-- Node5 -->
<g id="node5" class="node">
<title>Node5</title>
<g id="a_node5"><a xlink:href="namespacesvg.html#a36b1c48ad4601b205790e3772ad0a7b6" target="_top" xlink:title=" ">
<polygon fill="white" stroke="black" points="290,-133.5 290,-150.5 362,-150.5 362,-133.5 290,-133.5"/>
<text text-anchor="middle" x="326" y="-140.1" font-family="SourceSans" font-size="8.00">svg::to_string</text>
</a>
</g>
</g>
<!-- Node1&#45;&gt;Node5 -->
<g id="edge14" class="edge">
<title>Node1&#45;&gt;Node5</title>
<path fill="none" stroke="midnightblue" d="M95.09,-142C146.5,-142 228.67,-142 279.59,-142"/>
<polygon fill="midnightblue" stroke="midnightblue" points="279.65,-145.5 289.65,-142 279.65,-138.5 279.65,-145.5"/>
</g>
<!-- Node6 -->
<g id="node6" class="node">
<title>Node6</title>
<g id="a_node6"><a xlink:href="group__elements.html#a53d72a7ff728ad1d4d027254530bcf3d" target="_top" xlink:title="Common transforms include rotate(180)">
<polygon fill="white" stroke="black" points="133,-68 133,-94 234,-94 234,-68 133,-68"/>
<text text-anchor="start" x="141" y="-83.6" font-family="SourceSans" font-size="8.00">svg::element_base::</text>
<text text-anchor="middle" x="183.5" y="-74.6" font-family="SourceSans" font-size="8.00">add_transform</text>
</a>
</g>
</g>
<!-- Node1&#45;&gt;Node6 -->
<g id="edge5" class="edge">
<title>Node1&#45;&gt;Node6</title>
<path fill="none" stroke="midnightblue" d="M77.25,-128.91C96.94,-119.95 123.27,-107.96 144.66,-98.22"/>
<polygon fill="midnightblue" stroke="midnightblue" points="146.15,-101.39 153.8,-94.06 143.25,-95.02 146.15,-101.39"/>
</g>
<!-- Node9 -->
<g id="node9" class="node">
<title>Node9</title>
<g id="a_node9"><a xlink:href="structsvg_1_1style.html#a724baeff8a062d71724ea2eeece5c6a3" target="_top" xlink:title=" ">
<polygon fill="white" stroke="black" points="147,-31.5 147,-48.5 220,-48.5 220,-31.5 147,-31.5"/>
<text text-anchor="middle" x="183.5" y="-38.1" font-family="SourceSans" font-size="8.00">svg::style::str</text>
</a>
</g>
</g>
<!-- Node1&#45;&gt;Node9 -->
<g id="edge8" class="edge">
<title>Node1&#45;&gt;Node9</title>
<path fill="none" stroke="midnightblue" d="M58.58,-128.72C72.89,-110.67 100.74,-78.43 131,-59 134.8,-56.56 138.96,-54.37 143.22,-52.42"/>
<polygon fill="midnightblue" stroke="midnightblue" points="144.68,-55.61 152.58,-48.55 142,-49.14 144.68,-55.61"/>
</g>
<!-- Node2&#45;&gt;Node3 -->
<g id="edge2" class="edge">
<title>Node2&#45;&gt;Node3</title>
<path fill="none" stroke="midnightblue" d="M235.62,-216.1C250.79,-219.99 267.25,-224.2 281.87,-227.95"/>
<polygon fill="midnightblue" stroke="midnightblue" points="281.09,-231.36 291.65,-230.45 282.83,-224.58 281.09,-231.36"/>
</g>
<!-- Node2&#45;&gt;Node4 -->
<g id="edge3" class="edge">
<title>Node2&#45;&gt;Node4</title>
<path fill="none" stroke="midnightblue" d="M236.02,-199.33C246,-198.62 256.53,-197.87 266.72,-197.15"/>
<polygon fill="midnightblue" stroke="midnightblue" points="267.03,-200.63 276.76,-196.43 266.53,-193.65 267.03,-200.63"/>
</g>
<!-- Node2&#45;&gt;Node5 -->
<g id="edge4" class="edge">
<title>Node2&#45;&gt;Node5</title>
<path fill="none" stroke="midnightblue" d="M214.64,-189.91C238.74,-179.45 272.3,-164.88 296.07,-154.56"/>
<polygon fill="midnightblue" stroke="midnightblue" points="297.51,-157.75 305.29,-150.56 294.72,-151.33 297.51,-157.75"/>
</g>
<!-- Node7 -->
<g id="node7" class="node">
<title>Node7</title>
<g id="a_node7"><a xlink:href="namespacesvg_1_1constants.html#a3972655f1dfdc090ec2592d1fb37e87c" target="_top" xlink:title=" ">
<polygon fill="white" stroke="black" points="272.5,-72.5 272.5,-89.5 379.5,-89.5 379.5,-72.5 272.5,-72.5"/>
<text text-anchor="middle" x="326" y="-79.1" font-family="SourceSans" font-size="8.00">svg::constants::quote</text>
</a>
</g>
</g>
<!-- Node6&#45;&gt;Node7 -->
<g id="edge6" class="edge">
<title>Node6&#45;&gt;Node7</title>
<path fill="none" stroke="midnightblue" d="M234.04,-81C243.09,-81 252.64,-81 262.02,-81"/>
<polygon fill="midnightblue" stroke="midnightblue" points="262.1,-84.5 272.1,-81 262.1,-77.5 262.1,-84.5"/>
</g>
<!-- Node8 -->
<g id="node8" class="node">
<title>Node8</title>
<g id="a_node8"><a xlink:href="namespacesvg_1_1constants.html#ac460bc8db60d85c3ae1cf8b1a903405e" target="_top" xlink:title="Formatting constants.">
<polygon fill="white" stroke="black" points="272,-36.5 272,-53.5 380,-53.5 380,-36.5 272,-36.5"/>
<text text-anchor="middle" x="326" y="-43.1" font-family="SourceSans" font-size="8.00">svg::constants::space</text>
</a>
</g>
</g>
<!-- Node6&#45;&gt;Node8 -->
<g id="edge7" class="edge">
<title>Node6&#45;&gt;Node8</title>
<path fill="none" stroke="midnightblue" d="M234.04,-68.31C249.57,-64.33 266.59,-59.97 281.66,-56.1"/>
<polygon fill="midnightblue" stroke="midnightblue" points="282.92,-59.39 291.74,-53.52 281.19,-52.61 282.92,-59.39"/>
</g>
<!-- Node9&#45;&gt;Node7 -->
<g id="edge9" class="edge">
<title>Node9&#45;&gt;Node7</title>
<path fill="none" stroke="midnightblue" d="M213.95,-48.59C234.84,-54.69 263.09,-62.93 285.87,-69.58"/>
<polygon fill="midnightblue" stroke="midnightblue" points="285.01,-72.97 295.59,-72.42 286.97,-66.26 285.01,-72.97"/>
</g>
<!-- Node9&#45;&gt;Node8 -->
<g id="edge10" class="edge">
<title>Node9&#45;&gt;Node8</title>
<path fill="none" stroke="midnightblue" d="M220.32,-41.27C232.88,-41.72 247.39,-42.24 261.53,-42.74"/>
<polygon fill="midnightblue" stroke="midnightblue" points="261.61,-46.25 271.73,-43.1 261.86,-39.25 261.61,-46.25"/>
</g>
<!-- Node10 -->
<g id="node10" class="node">
<title>Node10</title>
<g id="a_node10"><a xlink:href="structsvg_1_1colorq.html#adb55a2a48193fafa55340505862278e4" target="_top" xlink:title=" ">
<polygon fill="white" stroke="black" points="274,-0.5 274,-17.5 378,-17.5 378,-0.5 274,-0.5"/>
<text text-anchor="middle" x="326" y="-7.1" font-family="SourceSans" font-size="8.00">svg::colorq::to_string</text>
</a>
</g>
</g>
<!-- Node9&#45;&gt;Node10 -->
<g id="edge11" class="edge">
<title>Node9&#45;&gt;Node10</title>
<path fill="none" stroke="midnightblue" d="M220.32,-32.1C237.33,-28.34 257.92,-23.8 276.33,-19.74"/>
<polygon fill="midnightblue" stroke="midnightblue" points="277.28,-23.11 286.29,-17.54 275.77,-16.28 277.28,-23.11"/>
</g>
</g>
</svg>
