<?xml version="1.0" encoding="UTF-8" standalone="no"?>
<!DOCTYPE svg PUBLIC "-//W3C//DTD SVG 1.1//EN"
 "http://www.w3.org/Graphics/SVG/1.1/DTD/svg11.dtd">
<!-- Generated by graphviz version 2.44.0 (0)
 -->
<!-- Title: svg::group_element::start_element Pages: 1 -->
<svg width="496pt" height="104pt"
 viewBox="0.00 0.00 496.00 104.00" xmlns="http://www.w3.org/2000/svg" xmlns:xlink="http://www.w3.org/1999/xlink">
<g id="graph0" class="graph" transform="scale(1 1) rotate(0) translate(4 100)">
<title>svg::group_element::start_element</title>
<polygon fill="white" stroke="transparent" points="-4,4 -4,-100 492,-100 492,4 -4,4"/>
<!-- Node1 -->
<g id="node1" class="node">
<title>Node1</title>
<g id="a_node1"><a xlink:title=" ">
<polygon fill="#bfbfbf" stroke="black" points="0,-35 0,-61 98,-61 98,-35 0,-35"/>
<text text-anchor="start" x="8" y="-50.6" font-family="SourceSans" font-size="8.00">svg::group_element</text>
<text text-anchor="middle" x="49" y="-41.6" font-family="SourceSans" font-size="8.00">::start_element</text>
</a>
</g>
</g>
<!-- Node2 -->
<g id="node2" class="node">
<title>Node2</title>
<g id="a_node2"><a xlink:href="group__elements.html#a238b38ca99a1cf6c2baf80c8e4338d99" target="_top" xlink:title=" ">
<polygon fill="white" stroke="black" points="134,-35 134,-61 235,-61 235,-35 134,-35"/>
<text text-anchor="start" x="142" y="-50.6" font-family="SourceSans" font-size="8.00">svg::element_base::</text>
<text text-anchor="middle" x="184.5" y="-41.6" font-family="SourceSans" font-size="8.00">add_style</text>
</a>
</g>
</g>
<!-- Node1&#45;&gt;Node2 -->
<g id="edge1" class="edge">
<title>Node1&#45;&gt;Node2</title>
<path fill="none" stroke="midnightblue" d="M98.2,-48C106.37,-48 114.95,-48 123.39,-48"/>
<polygon fill="midnightblue" stroke="midnightblue" points="123.58,-51.5 133.58,-48 123.58,-44.5 123.58,-51.5"/>
</g>
<!-- Node4 -->
<g id="node4" class="node">
<title>Node4</title>
<g id="a_node4"><a xlink:href="namespacesvg_1_1constants.html#a3972655f1dfdc090ec2592d1fb37e87c" target="_top" xlink:title=" ">
<polygon fill="white" stroke="black" points="380.5,-78.5 380.5,-95.5 487.5,-95.5 487.5,-78.5 380.5,-78.5"/>
<text text-anchor="middle" x="434" y="-85.1" font-family="SourceSans" font-size="8.00">svg::constants::quote</text>
</a>
</g>
</g>
<!-- Node1&#45;&gt;Node4 -->
<g id="edge6" class="edge">
<title>Node1&#45;&gt;Node4</title>
<path fill="none" stroke="midnightblue" d="M93.25,-61.09C106.24,-64.54 120.6,-67.89 134,-70 214.84,-82.75 309.3,-86.25 370.07,-87.05"/>
<polygon fill="midnightblue" stroke="midnightblue" points="370.23,-90.55 380.27,-87.17 370.31,-83.55 370.23,-90.55"/>
</g>
<!-- Node5 -->
<g id="node5" class="node">
<title>Node5</title>
<g id="a_node5"><a xlink:href="namespacesvg_1_1constants.html#ac460bc8db60d85c3ae1cf8b1a903405e" target="_top" xlink:title="Formatting constants.">
<polygon fill="white" stroke="black" points="380,-0.5 380,-17.5 488,-17.5 488,-0.5 380,-0.5"/>
<text text-anchor="middle" x="434" y="-7.1" font-family="SourceSans" font-size="8.00">svg::constants::space</text>
</a>
</g>
</g>
<!-- Node1&#45;&gt;Node5 -->
<g id="edge7" class="edge">
<title>Node1&#45;&gt;Node5</title>
<path fill="none" stroke="midnightblue" d="M90.63,-34.99C104.28,-31.13 119.67,-27.32 134,-25 214.65,-11.96 308.96,-8.9 369.77,-8.48"/>
<polygon fill="midnightblue" stroke="midnightblue" points="369.99,-11.98 379.98,-8.43 369.96,-4.98 369.99,-11.98"/>
</g>
<!-- Node3 -->
<g id="node3" class="node">
<title>Node3</title>
<g id="a_node3"><a xlink:href="structsvg_1_1style.html#a724baeff8a062d71724ea2eeece5c6a3" target="_top" xlink:title=" ">
<polygon fill="white" stroke="black" points="271,-39.5 271,-56.5 344,-56.5 344,-39.5 271,-39.5"/>
<text text-anchor="middle" x="307.5" y="-46.1" font-family="SourceSans" font-size="8.00">svg::style::str</text>
</a>
</g>
</g>
<!-- Node2&#45;&gt;Node3 -->
<g id="edge2" class="edge">
<title>Node2&#45;&gt;Node3</title>
<path fill="none" stroke="midnightblue" d="M235.06,-48C243.6,-48 252.44,-48 260.87,-48"/>
<polygon fill="midnightblue" stroke="midnightblue" points="260.9,-51.5 270.9,-48 260.9,-44.5 260.9,-51.5"/>
</g>
<!-- Node3&#45;&gt;Node4 -->
<g id="edge3" class="edge">
<title>Node3&#45;&gt;Node4</title>
<path fill="none" stroke="midnightblue" d="M335.82,-56.56C353.5,-62.1 376.73,-69.37 396.05,-75.42"/>
<polygon fill="midnightblue" stroke="midnightblue" points="395.15,-78.81 405.74,-78.46 397.25,-72.13 395.15,-78.81"/>
</g>
<!-- Node3&#45;&gt;Node5 -->
<g id="edge4" class="edge">
<title>Node3&#45;&gt;Node5</title>
<path fill="none" stroke="midnightblue" d="M335.82,-39.44C353.5,-33.9 376.73,-26.63 396.05,-20.58"/>
<polygon fill="midnightblue" stroke="midnightblue" points="397.25,-23.87 405.74,-17.54 395.15,-17.19 397.25,-23.87"/>
</g>
<!-- Node6 -->
<g id="node6" class="node">
<title>Node6</title>
<g id="a_node6"><a xlink:href="structsvg_1_1colorq.html#adb55a2a48193fafa55340505862278e4" target="_top" xlink:title=" ">
<polygon fill="white" stroke="black" points="382,-39.5 382,-56.5 486,-56.5 486,-39.5 382,-39.5"/>
<text text-anchor="middle" x="434" y="-46.1" font-family="SourceSans" font-size="8.00">svg::colorq::to_string</text>
</a>
</g>
</g>
<!-- Node3&#45;&gt;Node6 -->
<g id="edge5" class="edge">
<title>Node3&#45;&gt;Node6</title>
<path fill="none" stroke="midnightblue" d="M344.18,-48C352.73,-48 362.1,-48 371.45,-48"/>
<polygon fill="midnightblue" stroke="midnightblue" points="371.55,-51.5 381.55,-48 371.55,-44.5 371.55,-51.5"/>
</g>
</g>
</svg>
