<?xml version="1.0" encoding="UTF-8" standalone="no"?>
<!DOCTYPE svg PUBLIC "-//W3C//DTD SVG 1.1//EN"
 "http://www.w3.org/Graphics/SVG/1.1/DTD/svg11.dtd">
<!-- Generated by graphviz version 2.44.0 (0)
 -->
<!-- Title: svg::splay_ids_stagger Pages: 1 -->
<svg width="1117pt" height="258pt"
 viewBox="0.00 0.00 1117.00 258.21" xmlns="http://www.w3.org/2000/svg" xmlns:xlink="http://www.w3.org/1999/xlink">
<g id="graph0" class="graph" transform="scale(1 1) rotate(0) translate(4 254.21)">
<title>svg::splay_ids_stagger</title>
<polygon fill="white" stroke="transparent" points="-4,4 -4,-254.21 1113,-254.21 1113,4 -4,4"/>
<!-- Node1 -->
<g id="node1" class="node">
<title>Node1</title>
<g id="a_node1"><a xlink:title="Spread ids after in stepping pattern outward.">
<polygon fill="#bfbfbf" stroke="black" points="0,-106.5 0,-123.5 110,-123.5 110,-106.5 0,-106.5"/>
<text text-anchor="middle" x="55" y="-113.1" font-family="SourceSans" font-size="8.00">svg::splay_ids_stagger</text>
</a>
</g>
</g>
<!-- Node2 -->
<g id="node2" class="node">
<title>Node2</title>
<g id="a_node2"><a xlink:href="namespacesvg.html#a8f48a6909f52b54cf4a3bfce5e27b59c" target="_top" xlink:title="Spread ids past the origin point, along circumference path.">
<polygon fill="white" stroke="black" points="146,-106.5 146,-123.5 244,-123.5 244,-106.5 146,-106.5"/>
<text text-anchor="middle" x="195" y="-113.1" font-family="SourceSans" font-size="8.00">svg::splay_ids_after</text>
</a>
</g>
</g>
<!-- Node1&#45;&gt;Node2 -->
<g id="edge1" class="edge">
<title>Node1&#45;&gt;Node2</title>
<path fill="none" stroke="midnightblue" d="M110.15,-115C118.52,-115 127.2,-115 135.66,-115"/>
<polygon fill="midnightblue" stroke="midnightblue" points="135.84,-118.5 145.84,-115 135.84,-111.5 135.84,-118.5"/>
</g>
<!-- Node3 -->
<g id="node3" class="node">
<title>Node3</title>
<g id="a_node3"><a xlink:href="namespacesvg.html#a06b88691cd28e6fb0c8e79ca44b34423" target="_top" xlink:title=" ">
<polygon fill="white" stroke="black" points="280,-106.5 280,-123.5 366,-123.5 366,-106.5 280,-106.5"/>
<text text-anchor="middle" x="323" y="-113.1" font-family="SourceSans" font-size="8.00">svg::radial_text_r</text>
</a>
</g>
</g>
<!-- Node2&#45;&gt;Node3 -->
<g id="edge2" class="edge">
<title>Node2&#45;&gt;Node3</title>
<path fill="none" stroke="midnightblue" d="M244.35,-115C252.64,-115 261.29,-115 269.68,-115"/>
<polygon fill="midnightblue" stroke="midnightblue" points="269.74,-118.5 279.74,-115 269.74,-111.5 269.74,-118.5"/>
</g>
<!-- Node4 -->
<g id="node4" class="node">
<title>Node4</title>
<g id="a_node4"><a xlink:href="namespacesvg.html#acf54b60ce80d6e2059062e8dc4c14325" target="_top" xlink:title="Circumference adjustment such that lable is hight&#45;centered in kusama circle.">
<polygon fill="white" stroke="black" points="409,-206 409,-232 522,-232 522,-206 409,-206"/>
<text text-anchor="start" x="417" y="-221.6" font-family="SourceSans" font-size="8.00">svg::adjust_label_angle</text>
<text text-anchor="middle" x="465.5" y="-212.6" font-family="SourceSans" font-size="8.00">_for_text_height</text>
</a>
</g>
</g>
<!-- Node3&#45;&gt;Node4 -->
<g id="edge3" class="edge">
<title>Node3&#45;&gt;Node4</title>
<path fill="none" stroke="midnightblue" d="M330.06,-123.71C342,-140.25 370.17,-176.4 402,-197 404.57,-198.67 407.29,-200.22 410.08,-201.67"/>
<polygon fill="midnightblue" stroke="midnightblue" points="408.7,-204.89 419.24,-205.97 411.67,-198.55 408.7,-204.89"/>
</g>
<!-- Node5 -->
<g id="node5" class="node">
<title>Node5</title>
<g id="a_node5"><a xlink:href="namespacesvg.html#ab44508c4aeca591141ebec50145b75cd" target="_top" xlink:title="Angle in degrees.">
<polygon fill="white" stroke="black" points="409,-161 409,-187 522,-187 522,-161 409,-161"/>
<text text-anchor="start" x="417" y="-176.6" font-family="SourceSans" font-size="8.00">svg::get_circumference</text>
<text text-anchor="middle" x="465.5" y="-167.6" font-family="SourceSans" font-size="8.00">_point_d</text>
</a>
</g>
</g>
<!-- Node3&#45;&gt;Node5 -->
<g id="edge4" class="edge">
<title>Node3&#45;&gt;Node5</title>
<path fill="none" stroke="midnightblue" d="M341.48,-123.55C357.17,-131.12 380.92,-142.27 402,-151 407.14,-153.13 412.56,-155.27 417.97,-157.34"/>
<polygon fill="midnightblue" stroke="midnightblue" points="417.03,-160.73 427.63,-160.99 419.5,-154.18 417.03,-160.73"/>
</g>
<!-- Node8 -->
<g id="node8" class="node">
<title>Node8</title>
<g id="a_node8"><a xlink:href="namespacesvg.html#a5ec86f1aa5e4c9923a7c11c2cbb89660" target="_top" xlink:title="Text with typography, arranged ccw around points (x,y) on a circle.">
<polygon fill="white" stroke="black" points="416.5,-124.5 416.5,-141.5 514.5,-141.5 514.5,-124.5 416.5,-124.5"/>
<text text-anchor="middle" x="465.5" y="-131.1" font-family="SourceSans" font-size="8.00">svg::radial_text_ccw</text>
</a>
</g>
</g>
<!-- Node3&#45;&gt;Node8 -->
<g id="edge7" class="edge">
<title>Node3&#45;&gt;Node8</title>
<path fill="none" stroke="midnightblue" d="M366.15,-120.4C378.78,-122.02 392.85,-123.82 406.32,-125.55"/>
<polygon fill="midnightblue" stroke="midnightblue" points="406.1,-129.05 416.46,-126.85 406.99,-122.1 406.1,-129.05"/>
</g>
<!-- Node25 -->
<g id="node25" class="node">
<title>Node25</title>
<g id="a_node25"><a xlink:href="namespacesvg.html#a82c3b1f2d71d9212c46493e76e5dc087" target="_top" xlink:title="Text with typography, arranged cw around points (x,y) on a circle.">
<polygon fill="white" stroke="black" points="418.5,-88.5 418.5,-105.5 512.5,-105.5 512.5,-88.5 418.5,-88.5"/>
<text text-anchor="middle" x="465.5" y="-95.1" font-family="SourceSans" font-size="8.00">svg::radial_text_cw</text>
</a>
</g>
</g>
<!-- Node3&#45;&gt;Node25 -->
<g id="edge33" class="edge">
<title>Node3&#45;&gt;Node25</title>
<path fill="none" stroke="midnightblue" d="M366.15,-109.6C379.42,-107.9 394.29,-105.99 408.37,-104.19"/>
<polygon fill="midnightblue" stroke="midnightblue" points="408.98,-107.64 418.45,-102.9 408.09,-100.7 408.98,-107.64"/>
</g>
<!-- Node26 -->
<g id="node26" class="node">
<title>Node26</title>
<g id="a_node26"><a xlink:href="namespacesvg.html#a010fea242a289d173d521b501140cd72" target="_top" xlink:title="Zero degrees is top, going clockwise (cw).">
<polygon fill="white" stroke="black" points="402,-52.5 402,-69.5 529,-69.5 529,-52.5 402,-52.5"/>
<text text-anchor="middle" x="465.5" y="-59.1" font-family="SourceSans" font-size="8.00">svg::zero_angle_north_ccw</text>
</a>
</g>
</g>
<!-- Node3&#45;&gt;Node26 -->
<g id="edge36" class="edge">
<title>Node3&#45;&gt;Node26</title>
<path fill="none" stroke="midnightblue" d="M340.73,-106.38C356.31,-98.56 380.34,-87.07 402,-79 408.33,-76.64 415.11,-74.41 421.79,-72.36"/>
<polygon fill="midnightblue" stroke="midnightblue" points="422.84,-75.7 431.43,-69.51 420.85,-68.99 422.84,-75.7"/>
</g>
<!-- Node27 -->
<g id="node27" class="node">
<title>Node27</title>
<g id="a_node27"><a xlink:href="namespacesvg.html#a46164d75fd5109e4ed8879abbacd5c11" target="_top" xlink:title="Zero degrees is top, going clockwise (cw).">
<polygon fill="white" stroke="black" points="404.5,-16.5 404.5,-33.5 526.5,-33.5 526.5,-16.5 404.5,-16.5"/>
<text text-anchor="middle" x="465.5" y="-23.1" font-family="SourceSans" font-size="8.00">svg::zero_angle_north_cw</text>
</a>
</g>
</g>
<!-- Node3&#45;&gt;Node27 -->
<g id="edge37" class="edge">
<title>Node3&#45;&gt;Node27</title>
<path fill="none" stroke="midnightblue" d="M331.2,-106.06C343.9,-90.86 371.81,-60 402,-43 405.98,-40.76 410.27,-38.77 414.66,-37.02"/>
<polygon fill="midnightblue" stroke="midnightblue" points="416.13,-40.22 424.37,-33.56 413.78,-33.62 416.13,-40.22"/>
</g>
<!-- Node6 -->
<g id="node6" class="node">
<title>Node6</title>
<g id="a_node6"><a xlink:href="namespacesvg.html#a85a18af2008e9709e4d641ef4bda04e7" target="_top" xlink:title="Angle in radians.">
<polygon fill="white" stroke="black" points="565,-199 565,-225 678,-225 678,-199 565,-199"/>
<text text-anchor="start" x="573" y="-214.6" font-family="SourceSans" font-size="8.00">svg::get_circumference</text>
<text text-anchor="middle" x="621.5" y="-205.6" font-family="SourceSans" font-size="8.00">_point</text>
</a>
</g>
</g>
<!-- Node5&#45;&gt;Node6 -->
<g id="edge5" class="edge">
<title>Node5&#45;&gt;Node6</title>
<path fill="none" stroke="midnightblue" d="M519.5,-187.08C531.79,-190.11 544.98,-193.37 557.65,-196.49"/>
<polygon fill="midnightblue" stroke="midnightblue" points="557.12,-199.97 567.67,-198.96 558.79,-193.17 557.12,-199.97"/>
</g>
<!-- Node7 -->
<g id="node7" class="node">
<title>Node7</title>
<g id="a_node7"><a xlink:href="namespacesvg_1_1constants.html#a0e0b0d9314bc47324ee39884bf8bb2fd" target="_top" xlink:title=" ">
<polygon fill="white" stroke="black" points="576,-162.5 576,-179.5 667,-179.5 667,-162.5 576,-162.5"/>
<text text-anchor="middle" x="621.5" y="-169.1" font-family="SourceSans" font-size="8.00">svg::constants::pi</text>
</a>
</g>
</g>
<!-- Node5&#45;&gt;Node7 -->
<g id="edge6" class="edge">
<title>Node5&#45;&gt;Node7</title>
<path fill="none" stroke="midnightblue" d="M522.1,-172.92C536.24,-172.64 551.43,-172.35 565.54,-172.07"/>
<polygon fill="midnightblue" stroke="midnightblue" points="565.66,-175.57 575.59,-171.87 565.53,-168.57 565.66,-175.57"/>
</g>
<!-- Node9 -->
<g id="node9" class="node">
<title>Node9</title>
<g id="a_node9"><a xlink:href="namespacesvg.html#ab2d2020c33da2e0215837673e530b991" target="_top" xlink:title="Text at size.">
<polygon fill="white" stroke="black" points="583,-124.5 583,-141.5 660,-141.5 660,-124.5 583,-124.5"/>
<text text-anchor="middle" x="621.5" y="-131.1" font-family="SourceSans" font-size="8.00">svg::sized_text</text>
</a>
</g>
</g>
<!-- Node8&#45;&gt;Node9 -->
<g id="edge8" class="edge">
<title>Node8&#45;&gt;Node9</title>
<path fill="none" stroke="midnightblue" d="M514.8,-133C533.18,-133 554.09,-133 572.44,-133"/>
<polygon fill="midnightblue" stroke="midnightblue" points="572.62,-136.5 582.62,-133 572.62,-129.5 572.62,-136.5"/>
</g>
<!-- Node23 -->
<g id="node23" class="node">
<title>Node23</title>
<g id="a_node23"><a xlink:href="namespacesvg.html#a4399801aa964203bcab6e6ab2e7b4200" target="_top" xlink:title="Text at size, with a transformation=rotation added.">
<polygon fill="white" stroke="black" points="579.5,-88.5 579.5,-105.5 663.5,-105.5 663.5,-88.5 579.5,-88.5"/>
<text text-anchor="middle" x="621.5" y="-95.1" font-family="SourceSans" font-size="8.00">svg::sized_text_r</text>
</a>
</g>
</g>
<!-- Node8&#45;&gt;Node23 -->
<g id="edge27" class="edge">
<title>Node8&#45;&gt;Node23</title>
<path fill="none" stroke="midnightblue" d="M503,-124.47C524.3,-119.49 551.39,-113.15 574.19,-107.83"/>
<polygon fill="midnightblue" stroke="midnightblue" points="575.06,-111.22 584,-105.53 573.47,-104.4 575.06,-111.22"/>
</g>
<!-- Node10 -->
<g id="node10" class="node">
<title>Node10</title>
<g id="a_node10"><a xlink:href="group__elements.html#a87be030b88c17a86a690b31e95b60612" target="_top" xlink:title="Either serialize immediately (as below), or create data structure that adds data to data_vec and then...">
<polygon fill="white" stroke="black" points="721.5,-129 721.5,-155 816.5,-155 816.5,-129 721.5,-129"/>
<text text-anchor="start" x="729.5" y="-144.6" font-family="SourceSans" font-size="8.00">svg::text_element::</text>
<text text-anchor="middle" x="769" y="-135.6" font-family="SourceSans" font-size="8.00">add_data</text>
</a>
</g>
</g>
<!-- Node9&#45;&gt;Node10 -->
<g id="edge9" class="edge">
<title>Node9&#45;&gt;Node10</title>
<path fill="none" stroke="midnightblue" d="M660.35,-135.34C675.76,-136.29 693.91,-137.42 710.87,-138.47"/>
<polygon fill="midnightblue" stroke="midnightblue" points="711.04,-141.98 721.24,-139.11 711.47,-135 711.04,-141.98"/>
</g>
<!-- Node20 -->
<g id="node20" class="node">
<title>Node20</title>
<g id="a_node20"><a xlink:href="group__elements.html#adb6116b96467cc39cb178deb10c7a869" target="_top" xlink:title=" ">
<polygon fill="white" stroke="black" points="714,-84 714,-110 824,-110 824,-84 714,-84"/>
<text text-anchor="start" x="722" y="-99.6" font-family="SourceSans" font-size="8.00">svg::svg_element::add</text>
<text text-anchor="middle" x="769" y="-90.6" font-family="SourceSans" font-size="8.00">_element</text>
</a>
</g>
</g>
<!-- Node9&#45;&gt;Node20 -->
<g id="edge24" class="edge">
<title>Node9&#45;&gt;Node20</title>
<path fill="none" stroke="midnightblue" d="M656.98,-124.47C671.39,-120.9 688.59,-116.65 705.11,-112.56"/>
<polygon fill="midnightblue" stroke="midnightblue" points="706.4,-115.85 715.27,-110.05 704.72,-109.05 706.4,-115.85"/>
</g>
<!-- Node21 -->
<g id="node21" class="node">
<title>Node21</title>
<g id="a_node21"><a xlink:href="group__elements.html#ga13c46848317034d16c62a7d2061ba3d6" target="_top" xlink:title=" ">
<polygon fill="white" stroke="black" points="721.5,-39 721.5,-65 816.5,-65 816.5,-39 721.5,-39"/>
<text text-anchor="start" x="729.5" y="-54.6" font-family="SourceSans" font-size="8.00">svg::text_element::</text>
<text text-anchor="middle" x="769" y="-45.6" font-family="SourceSans" font-size="8.00">finish_element</text>
</a>
</g>
</g>
<!-- Node9&#45;&gt;Node21 -->
<g id="edge25" class="edge">
<title>Node9&#45;&gt;Node21</title>
<path fill="none" stroke="midnightblue" d="M658.44,-124.47C665.24,-122.01 672.08,-118.9 678,-115 698.26,-101.67 694.24,-88.06 714,-74 716.09,-72.51 718.3,-71.1 720.58,-69.77"/>
<polygon fill="midnightblue" stroke="midnightblue" points="722.41,-72.76 729.64,-65.01 719.16,-66.56 722.41,-72.76"/>
</g>
<!-- Node22 -->
<g id="node22" class="node">
<title>Node22</title>
<g id="a_node22"><a xlink:href="group__elements.html#ae45bec611a6ec17ea46aab6d680ae042" target="_top" xlink:title=" ">
<polygon fill="white" stroke="black" points="721.5,-174 721.5,-200 816.5,-200 816.5,-174 721.5,-174"/>
<text text-anchor="start" x="729.5" y="-189.6" font-family="SourceSans" font-size="8.00">svg::text_element::</text>
<text text-anchor="middle" x="769" y="-180.6" font-family="SourceSans" font-size="8.00">start_element</text>
</a>
</g>
</g>
<!-- Node9&#45;&gt;Node22 -->
<g id="edge26" class="edge">
<title>Node9&#45;&gt;Node22</title>
<path fill="none" stroke="midnightblue" d="M646.57,-141.58C656.34,-145.09 667.72,-149.21 678,-153 693.17,-158.6 709.73,-164.82 724.47,-170.4"/>
<polygon fill="midnightblue" stroke="midnightblue" points="723.27,-173.69 733.86,-173.96 725.75,-167.14 723.27,-173.69"/>
</g>
<!-- Node11 -->
<g id="node11" class="node">
<title>Node11</title>
<g id="a_node11"><a xlink:href="structsvg_1_1typography.html#a70f61596bba3e0bd67b43a8fc553dbfa" target="_top" xlink:title=" ">
<polygon fill="white" stroke="black" points="860,-190 860,-216 965,-216 965,-190 860,-190"/>
<text text-anchor="start" x="868" y="-205.6" font-family="SourceSans" font-size="8.00">svg::typography::add</text>
<text text-anchor="middle" x="912.5" y="-196.6" font-family="SourceSans" font-size="8.00">_attribute</text>
</a>
</g>
</g>
<!-- Node10&#45;&gt;Node11 -->
<g id="edge10" class="edge">
<title>Node10&#45;&gt;Node11</title>
<path fill="none" stroke="midnightblue" d="M800.86,-155.1C808.43,-158.33 816.51,-161.78 824,-165 839.73,-171.76 857.02,-179.26 872.04,-185.79"/>
<polygon fill="midnightblue" stroke="midnightblue" points="870.99,-189.15 881.55,-189.93 873.78,-182.73 870.99,-189.15"/>
</g>
<!-- Node12 -->
<g id="node12" class="node">
<title>Node12</title>
<g id="a_node12"><a xlink:href="namespacesvg.html#a48ac748e89e22789d1772326a98dd7b6" target="_top" xlink:title=" ">
<polygon fill="white" stroke="black" points="1007.5,-230.5 1007.5,-247.5 1102.5,-247.5 1102.5,-230.5 1007.5,-230.5"/>
<text text-anchor="middle" x="1055" y="-237.1" font-family="SourceSans" font-size="8.00">svg::string_replace</text>
</a>
</g>
</g>
<!-- Node10&#45;&gt;Node12 -->
<g id="edge21" class="edge">
<title>Node10&#45;&gt;Node12</title>
<path fill="none" stroke="midnightblue" d="M809.25,-155.14C814.53,-157.9 819.63,-161.17 824,-165 847.66,-185.76 833.2,-209.48 860,-226 900.8,-251.14 956.01,-252.4 997.1,-248.53"/>
<polygon fill="midnightblue" stroke="midnightblue" points="997.65,-251.99 1007.23,-247.44 996.91,-245.03 997.65,-251.99"/>
</g>
<!-- Node13 -->
<g id="node13" class="node">
<title>Node13</title>
<g id="a_node13"><a xlink:href="structsvg_1_1typography.html#a174c1ffb4e56214d71523ffe7e422561" target="_top" xlink:title=" ">
<polygon fill="white" stroke="black" points="1006,-180 1006,-206 1104,-206 1104,-180 1006,-180"/>
<text text-anchor="start" x="1014" y="-195.6" font-family="SourceSans" font-size="8.00">svg::typography::to</text>
<text text-anchor="middle" x="1055" y="-186.6" font-family="SourceSans" font-size="8.00">_string</text>
</a>
</g>
</g>
<!-- Node10&#45;&gt;Node13 -->
<g id="edge22" class="edge">
<title>Node10&#45;&gt;Node13</title>
<path fill="none" stroke="midnightblue" d="M816.58,-150.36C865.66,-159.18 943.05,-173.08 996.04,-182.59"/>
<polygon fill="midnightblue" stroke="midnightblue" points="995.51,-186.05 1005.97,-184.38 996.75,-179.16 995.51,-186.05"/>
</g>
<!-- Node14 -->
<g id="node14" class="node">
<title>Node14</title>
<g id="a_node14"><a xlink:href="namespacesvg.html#a36b1c48ad4601b205790e3772ad0a7b6" target="_top" xlink:title=" ">
<polygon fill="white" stroke="black" points="1019,-133.5 1019,-150.5 1091,-150.5 1091,-133.5 1019,-133.5"/>
<text text-anchor="middle" x="1055" y="-140.1" font-family="SourceSans" font-size="8.00">svg::to_string</text>
</a>
</g>
</g>
<!-- Node10&#45;&gt;Node14 -->
<g id="edge23" class="edge">
<title>Node10&#45;&gt;Node14</title>
<path fill="none" stroke="midnightblue" d="M816.58,-142C869.69,-142 955.94,-142 1008.57,-142"/>
<polygon fill="midnightblue" stroke="midnightblue" points="1008.63,-145.5 1018.63,-142 1008.63,-138.5 1008.63,-145.5"/>
</g>
<!-- Node15 -->
<g id="node15" class="node">
<title>Node15</title>
<g id="a_node15"><a xlink:href="group__elements.html#a53d72a7ff728ad1d4d027254530bcf3d" target="_top" xlink:title="Common transforms include rotate(180)">
<polygon fill="white" stroke="black" points="862,-68 862,-94 963,-94 963,-68 862,-68"/>
<text text-anchor="start" x="870" y="-83.6" font-family="SourceSans" font-size="8.00">svg::element_base::</text>
<text text-anchor="middle" x="912.5" y="-74.6" font-family="SourceSans" font-size="8.00">add_transform</text>
</a>
</g>
</g>
<!-- Node10&#45;&gt;Node15 -->
<g id="edge14" class="edge">
<title>Node10&#45;&gt;Node15</title>
<path fill="none" stroke="midnightblue" d="M800.86,-128.9C808.43,-125.67 816.51,-122.22 824,-119 839.73,-112.24 857.02,-104.74 872.04,-98.21"/>
<polygon fill="midnightblue" stroke="midnightblue" points="873.78,-101.27 881.55,-94.07 870.99,-94.85 873.78,-101.27"/>
</g>
<!-- Node18 -->
<g id="node18" class="node">
<title>Node18</title>
<g id="a_node18"><a xlink:href="structsvg_1_1style.html#a724baeff8a062d71724ea2eeece5c6a3" target="_top" xlink:title=" ">
<polygon fill="white" stroke="black" points="876,-31.5 876,-48.5 949,-48.5 949,-31.5 876,-31.5"/>
<text text-anchor="middle" x="912.5" y="-38.1" font-family="SourceSans" font-size="8.00">svg::style::str</text>
</a>
</g>
</g>
<!-- Node10&#45;&gt;Node18 -->
<g id="edge17" class="edge">
<title>Node10&#45;&gt;Node18</title>
<path fill="none" stroke="midnightblue" d="M809.25,-128.86C814.53,-126.1 819.63,-122.83 824,-119 847.66,-98.24 835.66,-77.96 860,-58 862.23,-56.17 864.66,-54.52 867.21,-53.03"/>
<polygon fill="midnightblue" stroke="midnightblue" points="868.8,-56.15 876.22,-48.59 865.71,-49.87 868.8,-56.15"/>
</g>
<!-- Node11&#45;&gt;Node12 -->
<g id="edge11" class="edge">
<title>Node11&#45;&gt;Node12</title>
<path fill="none" stroke="midnightblue" d="M964.62,-216.1C979.79,-219.99 996.25,-224.2 1010.87,-227.95"/>
<polygon fill="midnightblue" stroke="midnightblue" points="1010.09,-231.36 1020.65,-230.45 1011.83,-224.58 1010.09,-231.36"/>
</g>
<!-- Node11&#45;&gt;Node13 -->
<g id="edge12" class="edge">
<title>Node11&#45;&gt;Node13</title>
<path fill="none" stroke="midnightblue" d="M965.02,-199.33C975,-198.62 985.53,-197.87 995.72,-197.15"/>
<polygon fill="midnightblue" stroke="midnightblue" points="996.03,-200.63 1005.76,-196.43 995.53,-193.65 996.03,-200.63"/>
</g>
<!-- Node11&#45;&gt;Node14 -->
<g id="edge13" class="edge">
<title>Node11&#45;&gt;Node14</title>
<path fill="none" stroke="midnightblue" d="M943.64,-189.91C967.74,-179.45 1001.3,-164.88 1025.07,-154.56"/>
<polygon fill="midnightblue" stroke="midnightblue" points="1026.51,-157.75 1034.29,-150.56 1023.72,-151.33 1026.51,-157.75"/>
</g>
<!-- Node16 -->
<g id="node16" class="node">
<title>Node16</title>
<g id="a_node16"><a xlink:href="namespacesvg_1_1constants.html#a3972655f1dfdc090ec2592d1fb37e87c" target="_top" xlink:title=" ">
<polygon fill="white" stroke="black" points="1001.5,-72.5 1001.5,-89.5 1108.5,-89.5 1108.5,-72.5 1001.5,-72.5"/>
<text text-anchor="middle" x="1055" y="-79.1" font-family="SourceSans" font-size="8.00">svg::constants::quote</text>
</a>
</g>
</g>
<!-- Node15&#45;&gt;Node16 -->
<g id="edge15" class="edge">
<title>Node15&#45;&gt;Node16</title>
<path fill="none" stroke="midnightblue" d="M963.04,-81C972.09,-81 981.64,-81 991.02,-81"/>
<polygon fill="midnightblue" stroke="midnightblue" points="991.1,-84.5 1001.1,-81 991.1,-77.5 991.1,-84.5"/>
</g>
<!-- Node17 -->
<g id="node17" class="node">
<title>Node17</title>
<g id="a_node17"><a xlink:href="namespacesvg_1_1constants.html#ac460bc8db60d85c3ae1cf8b1a903405e" target="_top" xlink:title="Formatting constants.">
<polygon fill="white" stroke="black" points="1001,-36.5 1001,-53.5 1109,-53.5 1109,-36.5 1001,-36.5"/>
<text text-anchor="middle" x="1055" y="-43.1" font-family="SourceSans" font-size="8.00">svg::constants::space</text>
</a>
</g>
</g>
<!-- Node15&#45;&gt;Node17 -->
<g id="edge16" class="edge">
<title>Node15&#45;&gt;Node17</title>
<path fill="none" stroke="midnightblue" d="M963.04,-68.31C978.57,-64.33 995.59,-59.97 1010.66,-56.1"/>
<polygon fill="midnightblue" stroke="midnightblue" points="1011.92,-59.39 1020.74,-53.52 1010.19,-52.61 1011.92,-59.39"/>
</g>
<!-- Node18&#45;&gt;Node16 -->
<g id="edge18" class="edge">
<title>Node18&#45;&gt;Node16</title>
<path fill="none" stroke="midnightblue" d="M942.95,-48.59C963.84,-54.69 992.09,-62.93 1014.87,-69.58"/>
<polygon fill="midnightblue" stroke="midnightblue" points="1014.01,-72.97 1024.59,-72.42 1015.97,-66.26 1014.01,-72.97"/>
</g>
<!-- Node18&#45;&gt;Node17 -->
<g id="edge19" class="edge">
<title>Node18&#45;&gt;Node17</title>
<path fill="none" stroke="midnightblue" d="M949.32,-41.27C961.88,-41.72 976.39,-42.24 990.53,-42.74"/>
<polygon fill="midnightblue" stroke="midnightblue" points="990.61,-46.25 1000.73,-43.1 990.86,-39.25 990.61,-46.25"/>
</g>
<!-- Node19 -->
<g id="node19" class="node">
<title>Node19</title>
<g id="a_node19"><a xlink:href="structsvg_1_1colorq.html#adb55a2a48193fafa55340505862278e4" target="_top" xlink:title=" ">
<polygon fill="white" stroke="black" points="1003,-0.5 1003,-17.5 1107,-17.5 1107,-0.5 1003,-0.5"/>
<text text-anchor="middle" x="1055" y="-7.1" font-family="SourceSans" font-size="8.00">svg::colorq::to_string</text>
</a>
</g>
</g>
<!-- Node18&#45;&gt;Node19 -->
<g id="edge20" class="edge">
<title>Node18&#45;&gt;Node19</title>
<path fill="none" stroke="midnightblue" d="M949.32,-32.1C966.33,-28.34 986.92,-23.8 1005.33,-19.74"/>
<polygon fill="midnightblue" stroke="midnightblue" points="1006.28,-23.11 1015.29,-17.54 1004.77,-16.28 1006.28,-23.11"/>
</g>
<!-- Node23&#45;&gt;Node10 -->
<g id="edge28" class="edge">
<title>Node23&#45;&gt;Node10</title>
<path fill="none" stroke="midnightblue" d="M650.21,-105.57C668.81,-111.32 693.89,-119.08 716.13,-125.96"/>
<polygon fill="midnightblue" stroke="midnightblue" points="715.2,-129.33 725.78,-128.94 717.26,-122.64 715.2,-129.33"/>
</g>
<!-- Node23&#45;&gt;Node20 -->
<g id="edge29" class="edge">
<title>Node23&#45;&gt;Node20</title>
<path fill="none" stroke="midnightblue" d="M663.81,-97C676.19,-97 690.08,-97 703.59,-97"/>
<polygon fill="midnightblue" stroke="midnightblue" points="703.81,-100.5 713.81,-97 703.8,-93.5 703.81,-100.5"/>
</g>
<!-- Node23&#45;&gt;Node21 -->
<g id="edge30" class="edge">
<title>Node23&#45;&gt;Node21</title>
<path fill="none" stroke="midnightblue" d="M650.21,-88.43C668.81,-82.68 693.89,-74.92 716.13,-68.04"/>
<polygon fill="midnightblue" stroke="midnightblue" points="717.26,-71.36 725.78,-65.06 715.2,-64.67 717.26,-71.36"/>
</g>
<!-- Node23&#45;&gt;Node22 -->
<g id="edge32" class="edge">
<title>Node23&#45;&gt;Node22</title>
<path fill="none" stroke="midnightblue" d="M659.91,-105.52C666.29,-107.96 672.6,-111.06 678,-115 700.12,-131.14 692.48,-148.06 714,-165 715.78,-166.4 717.66,-167.72 719.6,-168.97"/>
<polygon fill="midnightblue" stroke="midnightblue" points="718.07,-172.12 728.5,-173.98 721.5,-166.02 718.07,-172.12"/>
</g>
<!-- Node24 -->
<g id="node24" class="node">
<title>Node24</title>
<g id="a_node24"><a xlink:href="structsvg_1_1transform.html#acf9836f4ba647f0dd2b53963a0f714d0" target="_top" xlink:title=" ">
<polygon fill="white" stroke="black" points="715.5,-2.5 715.5,-19.5 822.5,-19.5 822.5,-2.5 715.5,-2.5"/>
<text text-anchor="middle" x="769" y="-9.1" font-family="SourceSans" font-size="8.00">svg::transform::rotate</text>
</a>
</g>
</g>
<!-- Node23&#45;&gt;Node24 -->
<g id="edge31" class="edge">
<title>Node23&#45;&gt;Node24</title>
<path fill="none" stroke="midnightblue" d="M631.96,-88.34C647.84,-74.2 681.35,-46.01 714,-29 718.21,-26.8 722.75,-24.8 727.34,-22.99"/>
<polygon fill="midnightblue" stroke="midnightblue" points="728.56,-26.27 736.75,-19.55 726.15,-19.69 728.56,-26.27"/>
</g>
<!-- Node25&#45;&gt;Node9 -->
<g id="edge34" class="edge">
<title>Node25&#45;&gt;Node9</title>
<path fill="none" stroke="midnightblue" d="M503,-105.53C524.3,-110.51 551.39,-116.85 574.19,-122.17"/>
<polygon fill="midnightblue" stroke="midnightblue" points="573.47,-125.6 584,-124.47 575.06,-118.78 573.47,-125.6"/>
</g>
<!-- Node25&#45;&gt;Node23 -->
<g id="edge35" class="edge">
<title>Node25&#45;&gt;Node23</title>
<path fill="none" stroke="midnightblue" d="M512.71,-97C530.49,-97 550.9,-97 569.14,-97"/>
<polygon fill="midnightblue" stroke="midnightblue" points="569.3,-100.5 579.3,-97 569.3,-93.5 569.3,-100.5"/>
</g>
</g>
</svg>
