<?xml version="1.0" encoding="UTF-8" standalone="no"?>
<!DOCTYPE svg PUBLIC "-//W3C//DTD SVG 1.1//EN"
 "http://www.w3.org/Graphics/SVG/1.1/DTD/svg11.dtd">
<!-- Generated by graphviz version 2.44.0 (0)
 -->
<!-- Title: svg::radial_text_ccw Pages: 1 -->
<!--zoomable 258 -->
<svg id="main" version="1.1" xmlns="http://www.w3.org/2000/svg" xmlns:xlink="http://www.w3.org/1999/xlink" xml:space="preserve" onload="init(evt)">
<style type="text/css"><![CDATA[
.edge:hover path { stroke: red; }
.edge:hover polygon { stroke: red; fill: red; }
]]></style>
<script type="text/javascript"><![CDATA[
var edges = document.getElementsByTagName('g');
if (edges && edges.length) {
  for (var i=0;i<edges.length;i++) {
    if (edges[i].id.substr(0,4)=='edge') {
      edges[i].setAttribute('class','edge');
    }
  }
}
]]></script>
        <defs>
                <circle id="rim" cx="0" cy="0" r="7"/>
                <circle id="rim2" cx="0" cy="0" r="3.5"/>
                <g id="zoomPlus">
                        <use xlink:href="#rim" fill="#404040">
                                <set attributeName="fill" to="#808080" begin="zoomplus.mouseover" end="zoomplus.mouseout"/>
                        </use>
                        <path d="M-4,0h8M0,-4v8" fill="none" stroke="white" stroke-width="1.5" pointer-events="none"/>
                </g>
                <g id="zoomMin">
                        <use xlink:href="#rim" fill="#404040">
                                <set attributeName="fill" to="#808080" begin="zoomminus.mouseover" end="zoomminus.mouseout"/>
                        </use>
                        <path d="M-4,0h8" fill="none" stroke="white" stroke-width="1.5" pointer-events="none"/>
                </g>
                <g id="dirArrow">
                        <path fill="none" stroke="white" stroke-width="1.5" d="M0,-3.0v7 M-2.5,-0.5L0,-3.0L2.5,-0.5"/>
                </g>
               <g id="resetDef">
                       <use xlink:href="#rim2" fill="#404040">
                               <set attributeName="fill" to="#808080" begin="reset.mouseover" end="reset.mouseout"/>
                       </use>
               </g>
        </defs>

<script type="text/javascript">
var viewWidth = 657;
var viewHeight = 258;
var sectionId = 'dynsection-38';
</script>
<script xlink:href="svgpan.js"/>
<svg id="graph" class="graph">
<g id="viewport">
<title>svg::radial_text_ccw</title>
<polygon fill="white" stroke="transparent" points="-4,4 -4,-254.21 653,-254.21 653,4 -4,4"/>
<!-- Node1 -->
<g id="node1" class="node">
<title>Node1</title>
<g id="a_node1"><a xlink:title="Text with typography, arranged ccw around points (x,y) on a circle.">
<polygon fill="#bfbfbf" stroke="black" points="0,-106.5 0,-123.5 98,-123.5 98,-106.5 0,-106.5"/>
<text text-anchor="middle" x="49" y="-113.1" font-family="SourceSans" font-size="8.00">svg::radial_text_ccw</text>
</a>
</g>
</g>
<!-- Node2 -->
<g id="node2" class="node">
<title>Node2</title>
<g id="a_node2"><a xlink:href="namespacesvg.html#ab2d2020c33da2e0215837673e530b991" target="_top" xlink:title="Text at size.">
<polygon fill="white" stroke="black" points="137.5,-124.5 137.5,-141.5 214.5,-141.5 214.5,-124.5 137.5,-124.5"/>
<text text-anchor="middle" x="176" y="-131.1" font-family="SourceSans" font-size="8.00">svg::sized_text</text>
</a>
</g>
</g>
<!-- Node1&#45;&gt;Node2 -->
<g id="edge1" class="edge">
<title>Node1&#45;&gt;Node2</title>
<path fill="none" stroke="midnightblue" d="M98.33,-121.96C107.81,-123.33 117.76,-124.76 127.22,-126.12"/>
<polygon fill="midnightblue" stroke="midnightblue" points="126.87,-129.61 137.27,-127.57 127.87,-122.68 126.87,-129.61"/>
</g>
<!-- Node16 -->
<g id="node16" class="node">
<title>Node16</title>
<g id="a_node16"><a xlink:href="namespacesvg.html#a4399801aa964203bcab6e6ab2e7b4200" target="_top" xlink:title="Text at size, with a transformation=rotation added.">
<polygon fill="white" stroke="black" points="134,-88.5 134,-105.5 218,-105.5 218,-88.5 134,-88.5"/>
<text text-anchor="middle" x="176" y="-95.1" font-family="SourceSans" font-size="8.00">svg::sized_text_r</text>
</a>
</g>
</g>
<!-- Node1&#45;&gt;Node16 -->
<g id="edge20" class="edge">
<title>Node1&#45;&gt;Node16</title>
<path fill="none" stroke="midnightblue" d="M98.33,-108.04C106.63,-106.85 115.29,-105.6 123.67,-104.39"/>
<polygon fill="midnightblue" stroke="midnightblue" points="124.31,-107.84 133.71,-102.95 123.31,-100.91 124.31,-107.84"/>
</g>
<!-- Node3 -->
<g id="node3" class="node">
<title>Node3</title>
<g id="a_node3"><a xlink:href="group__elements.html#a87be030b88c17a86a690b31e95b60612" target="_top" xlink:title="Either serialize immediately (as below), or create data structure that adds data to data_vec and then...">
<polygon fill="white" stroke="black" points="261.5,-129 261.5,-155 356.5,-155 356.5,-129 261.5,-129"/>
<text text-anchor="start" x="269.5" y="-144.6" font-family="SourceSans" font-size="8.00">svg::text_element::</text>
<text text-anchor="middle" x="309" y="-135.6" font-family="SourceSans" font-size="8.00">add_data</text>
</a>
</g>
</g>
<!-- Node2&#45;&gt;Node3 -->
<g id="edge2" class="edge">
<title>Node2&#45;&gt;Node3</title>
<path fill="none" stroke="midnightblue" d="M214.54,-135.58C225.88,-136.36 238.6,-137.23 250.91,-138.08"/>
<polygon fill="midnightblue" stroke="midnightblue" points="250.91,-141.59 261.12,-138.78 251.39,-134.6 250.91,-141.59"/>
</g>
<!-- Node13 -->
<g id="node13" class="node">
<title>Node13</title>
<g id="a_node13"><a xlink:href="group__elements.html#adb6116b96467cc39cb178deb10c7a869" target="_top" xlink:title=" ">
<polygon fill="white" stroke="black" points="254,-84 254,-110 364,-110 364,-84 254,-84"/>
<text text-anchor="start" x="262" y="-99.6" font-family="SourceSans" font-size="8.00">svg::svg_element::add</text>
<text text-anchor="middle" x="309" y="-90.6" font-family="SourceSans" font-size="8.00">_element</text>
</a>
</g>
</g>
<!-- Node2&#45;&gt;Node13 -->
<g id="edge17" class="edge">
<title>Node2&#45;&gt;Node13</title>
<path fill="none" stroke="midnightblue" d="M208.05,-124.47C220.77,-120.97 235.92,-116.81 250.53,-112.79"/>
<polygon fill="midnightblue" stroke="midnightblue" points="251.81,-116.07 260.52,-110.05 249.95,-109.32 251.81,-116.07"/>
</g>
<!-- Node14 -->
<g id="node14" class="node">
<title>Node14</title>
<g id="a_node14"><a xlink:href="group__elements.html#ga13c46848317034d16c62a7d2061ba3d6" target="_top" xlink:title=" ">
<polygon fill="white" stroke="black" points="261.5,-39 261.5,-65 356.5,-65 356.5,-39 261.5,-39"/>
<text text-anchor="start" x="269.5" y="-54.6" font-family="SourceSans" font-size="8.00">svg::text_element::</text>
<text text-anchor="middle" x="309" y="-45.6" font-family="SourceSans" font-size="8.00">finish_element</text>
</a>
</g>
</g>
<!-- Node2&#45;&gt;Node14 -->
<g id="edge18" class="edge">
<title>Node2&#45;&gt;Node14</title>
<path fill="none" stroke="midnightblue" d="M201.34,-124.34C207.07,-121.77 212.96,-118.64 218,-115 237.38,-100.99 234.54,-88.9 254,-75 256.65,-73.1 259.49,-71.32 262.41,-69.66"/>
<polygon fill="midnightblue" stroke="midnightblue" points="264.12,-72.72 271.39,-65.01 260.9,-66.5 264.12,-72.72"/>
</g>
<!-- Node15 -->
<g id="node15" class="node">
<title>Node15</title>
<g id="a_node15"><a xlink:href="group__elements.html#ae45bec611a6ec17ea46aab6d680ae042" target="_top" xlink:title=" ">
<polygon fill="white" stroke="black" points="261.5,-174 261.5,-200 356.5,-200 356.5,-174 261.5,-174"/>
<text text-anchor="start" x="269.5" y="-189.6" font-family="SourceSans" font-size="8.00">svg::text_element::</text>
<text text-anchor="middle" x="309" y="-180.6" font-family="SourceSans" font-size="8.00">start_element</text>
</a>
</g>
</g>
<!-- Node2&#45;&gt;Node15 -->
<g id="edge19" class="edge">
<title>Node2&#45;&gt;Node15</title>
<path fill="none" stroke="midnightblue" d="M197.57,-141.6C213.07,-148.06 234.86,-157.12 254,-165 257.95,-166.63 262.06,-168.31 266.18,-170"/>
<polygon fill="midnightblue" stroke="midnightblue" points="265.14,-173.35 275.72,-173.89 267.78,-166.87 265.14,-173.35"/>
</g>
<!-- Node4 -->
<g id="node4" class="node">
<title>Node4</title>
<g id="a_node4"><a xlink:href="structsvg_1_1typography.html#a70f61596bba3e0bd67b43a8fc553dbfa" target="_top" xlink:title=" ">
<polygon fill="white" stroke="black" points="400,-190 400,-216 505,-216 505,-190 400,-190"/>
<text text-anchor="start" x="408" y="-205.6" font-family="SourceSans" font-size="8.00">svg::typography::add</text>
<text text-anchor="middle" x="452.5" y="-196.6" font-family="SourceSans" font-size="8.00">_attribute</text>
</a>
</g>
</g>
<!-- Node3&#45;&gt;Node4 -->
<g id="edge3" class="edge">
<title>Node3&#45;&gt;Node4</title>
<path fill="none" stroke="midnightblue" d="M340.86,-155.1C348.43,-158.33 356.51,-161.78 364,-165 379.73,-171.76 397.02,-179.26 412.04,-185.79"/>
<polygon fill="midnightblue" stroke="midnightblue" points="410.99,-189.15 421.55,-189.93 413.78,-182.73 410.99,-189.15"/>
</g>
<!-- Node5 -->
<g id="node5" class="node">
<title>Node5</title>
<g id="a_node5"><a xlink:href="namespacesvg.html#a48ac748e89e22789d1772326a98dd7b6" target="_top" xlink:title=" ">
<polygon fill="white" stroke="black" points="547.5,-230.5 547.5,-247.5 642.5,-247.5 642.5,-230.5 547.5,-230.5"/>
<text text-anchor="middle" x="595" y="-237.1" font-family="SourceSans" font-size="8.00">svg::string_replace</text>
</a>
</g>
</g>
<!-- Node3&#45;&gt;Node5 -->
<g id="edge14" class="edge">
<title>Node3&#45;&gt;Node5</title>
<path fill="none" stroke="midnightblue" d="M349.25,-155.14C354.53,-157.9 359.63,-161.17 364,-165 387.66,-185.76 373.2,-209.48 400,-226 440.8,-251.14 496.01,-252.4 537.1,-248.53"/>
<polygon fill="midnightblue" stroke="midnightblue" points="537.65,-251.99 547.23,-247.44 536.91,-245.03 537.65,-251.99"/>
</g>
<!-- Node6 -->
<g id="node6" class="node">
<title>Node6</title>
<g id="a_node6"><a xlink:href="structsvg_1_1typography.html#a174c1ffb4e56214d71523ffe7e422561" target="_top" xlink:title=" ">
<polygon fill="white" stroke="black" points="546,-180 546,-206 644,-206 644,-180 546,-180"/>
<text text-anchor="start" x="554" y="-195.6" font-family="SourceSans" font-size="8.00">svg::typography::to</text>
<text text-anchor="middle" x="595" y="-186.6" font-family="SourceSans" font-size="8.00">_string</text>
</a>
</g>
</g>
<!-- Node3&#45;&gt;Node6 -->
<g id="edge15" class="edge">
<title>Node3&#45;&gt;Node6</title>
<path fill="none" stroke="midnightblue" d="M356.58,-150.36C405.66,-159.18 483.05,-173.08 536.04,-182.59"/>
<polygon fill="midnightblue" stroke="midnightblue" points="535.51,-186.05 545.97,-184.38 536.75,-179.16 535.51,-186.05"/>
</g>
<!-- Node7 -->
<g id="node7" class="node">
<title>Node7</title>
<g id="a_node7"><a xlink:href="namespacesvg.html#a36b1c48ad4601b205790e3772ad0a7b6" target="_top" xlink:title=" ">
<polygon fill="white" stroke="black" points="559,-133.5 559,-150.5 631,-150.5 631,-133.5 559,-133.5"/>
<text text-anchor="middle" x="595" y="-140.1" font-family="SourceSans" font-size="8.00">svg::to_string</text>
</a>
</g>
</g>
<!-- Node3&#45;&gt;Node7 -->
<g id="edge16" class="edge">
<title>Node3&#45;&gt;Node7</title>
<path fill="none" stroke="midnightblue" d="M356.58,-142C409.69,-142 495.94,-142 548.57,-142"/>
<polygon fill="midnightblue" stroke="midnightblue" points="548.63,-145.5 558.63,-142 548.63,-138.5 548.63,-145.5"/>
</g>
<!-- Node8 -->
<g id="node8" class="node">
<title>Node8</title>
<g id="a_node8"><a xlink:href="group__elements.html#a53d72a7ff728ad1d4d027254530bcf3d" target="_top" xlink:title="Common transforms include rotate(180)">
<polygon fill="white" stroke="black" points="402,-68 402,-94 503,-94 503,-68 402,-68"/>
<text text-anchor="start" x="410" y="-83.6" font-family="SourceSans" font-size="8.00">svg::element_base::</text>
<text text-anchor="middle" x="452.5" y="-74.6" font-family="SourceSans" font-size="8.00">add_transform</text>
</a>
</g>
</g>
<!-- Node3&#45;&gt;Node8 -->
<g id="edge7" class="edge">
<title>Node3&#45;&gt;Node8</title>
<path fill="none" stroke="midnightblue" d="M342.62,-128.91C349.69,-126.02 357.11,-122.94 364,-120 380.34,-113.03 398.28,-105.09 413.64,-98.19"/>
<polygon fill="midnightblue" stroke="midnightblue" points="415.15,-101.35 422.83,-94.06 412.28,-94.97 415.15,-101.35"/>
</g>
<!-- Node11 -->
<g id="node11" class="node">
<title>Node11</title>
<g id="a_node11"><a xlink:href="structsvg_1_1style.html#a724baeff8a062d71724ea2eeece5c6a3" target="_top" xlink:title=" ">
<polygon fill="white" stroke="black" points="416,-31.5 416,-48.5 489,-48.5 489,-31.5 416,-31.5"/>
<text text-anchor="middle" x="452.5" y="-38.1" font-family="SourceSans" font-size="8.00">svg::style::str</text>
</a>
</g>
</g>
<!-- Node3&#45;&gt;Node11 -->
<g id="edge10" class="edge">
<title>Node3&#45;&gt;Node11</title>
<path fill="none" stroke="midnightblue" d="M350.63,-128.91C355.42,-126.39 360.02,-123.44 364,-120 387.83,-99.43 375.83,-79.17 400,-59 402.72,-56.73 405.73,-54.72 408.89,-52.95"/>
<polygon fill="midnightblue" stroke="midnightblue" points="410.6,-56.01 418.09,-48.52 407.56,-49.7 410.6,-56.01"/>
</g>
<!-- Node4&#45;&gt;Node5 -->
<g id="edge4" class="edge">
<title>Node4&#45;&gt;Node5</title>
<path fill="none" stroke="midnightblue" d="M504.62,-216.1C519.79,-219.99 536.25,-224.2 550.87,-227.95"/>
<polygon fill="midnightblue" stroke="midnightblue" points="550.09,-231.36 560.65,-230.45 551.83,-224.58 550.09,-231.36"/>
</g>
<!-- Node4&#45;&gt;Node6 -->
<g id="edge5" class="edge">
<title>Node4&#45;&gt;Node6</title>
<path fill="none" stroke="midnightblue" d="M505.02,-199.33C515,-198.62 525.53,-197.87 535.72,-197.15"/>
<polygon fill="midnightblue" stroke="midnightblue" points="536.03,-200.63 545.76,-196.43 535.53,-193.65 536.03,-200.63"/>
</g>
<!-- Node4&#45;&gt;Node7 -->
<g id="edge6" class="edge">
<title>Node4&#45;&gt;Node7</title>
<path fill="none" stroke="midnightblue" d="M483.64,-189.91C507.74,-179.45 541.3,-164.88 565.07,-154.56"/>
<polygon fill="midnightblue" stroke="midnightblue" points="566.51,-157.75 574.29,-150.56 563.72,-151.33 566.51,-157.75"/>
</g>
<!-- Node9 -->
<g id="node9" class="node">
<title>Node9</title>
<g id="a_node9"><a xlink:href="namespacesvg_1_1constants.html#a3972655f1dfdc090ec2592d1fb37e87c" target="_top" xlink:title=" ">
<polygon fill="white" stroke="black" points="541.5,-72.5 541.5,-89.5 648.5,-89.5 648.5,-72.5 541.5,-72.5"/>
<text text-anchor="middle" x="595" y="-79.1" font-family="SourceSans" font-size="8.00">svg::constants::quote</text>
</a>
</g>
</g>
<!-- Node8&#45;&gt;Node9 -->
<g id="edge8" class="edge">
<title>Node8&#45;&gt;Node9</title>
<path fill="none" stroke="midnightblue" d="M503.04,-81C512.09,-81 521.64,-81 531.02,-81"/>
<polygon fill="midnightblue" stroke="midnightblue" points="531.1,-84.5 541.1,-81 531.1,-77.5 531.1,-84.5"/>
</g>
<!-- Node10 -->
<g id="node10" class="node">
<title>Node10</title>
<g id="a_node10"><a xlink:href="namespacesvg_1_1constants.html#ac460bc8db60d85c3ae1cf8b1a903405e" target="_top" xlink:title="Formatting constants.">
<polygon fill="white" stroke="black" points="541,-36.5 541,-53.5 649,-53.5 649,-36.5 541,-36.5"/>
<text text-anchor="middle" x="595" y="-43.1" font-family="SourceSans" font-size="8.00">svg::constants::space</text>
</a>
</g>
</g>
<!-- Node8&#45;&gt;Node10 -->
<g id="edge9" class="edge">
<title>Node8&#45;&gt;Node10</title>
<path fill="none" stroke="midnightblue" d="M503.04,-68.31C518.57,-64.33 535.59,-59.97 550.66,-56.1"/>
<polygon fill="midnightblue" stroke="midnightblue" points="551.92,-59.39 560.74,-53.52 550.19,-52.61 551.92,-59.39"/>
</g>
<!-- Node11&#45;&gt;Node9 -->
<g id="edge11" class="edge">
<title>Node11&#45;&gt;Node9</title>
<path fill="none" stroke="midnightblue" d="M482.95,-48.59C503.84,-54.69 532.09,-62.93 554.87,-69.58"/>
<polygon fill="midnightblue" stroke="midnightblue" points="554.01,-72.97 564.59,-72.42 555.97,-66.26 554.01,-72.97"/>
</g>
<!-- Node11&#45;&gt;Node10 -->
<g id="edge12" class="edge">
<title>Node11&#45;&gt;Node10</title>
<path fill="none" stroke="midnightblue" d="M489.32,-41.27C501.88,-41.72 516.39,-42.24 530.53,-42.74"/>
<polygon fill="midnightblue" stroke="midnightblue" points="530.61,-46.25 540.73,-43.1 530.86,-39.25 530.61,-46.25"/>
</g>
<!-- Node12 -->
<g id="node12" class="node">
<title>Node12</title>
<g id="a_node12"><a xlink:href="structsvg_1_1colorq.html#adb55a2a48193fafa55340505862278e4" target="_top" xlink:title=" ">
<polygon fill="white" stroke="black" points="543,-0.5 543,-17.5 647,-17.5 647,-0.5 543,-0.5"/>
<text text-anchor="middle" x="595" y="-7.1" font-family="SourceSans" font-size="8.00">svg::colorq::to_string</text>
</a>
</g>
</g>
<!-- Node11&#45;&gt;Node12 -->
<g id="edge13" class="edge">
<title>Node11&#45;&gt;Node12</title>
<path fill="none" stroke="midnightblue" d="M489.32,-32.1C506.33,-28.34 526.92,-23.8 545.33,-19.74"/>
<polygon fill="midnightblue" stroke="midnightblue" points="546.28,-23.11 555.29,-17.54 544.77,-16.28 546.28,-23.11"/>
</g>
<!-- Node16&#45;&gt;Node3 -->
<g id="edge21" class="edge">
<title>Node16&#45;&gt;Node3</title>
<path fill="none" stroke="midnightblue" d="M201.95,-105.57C218.47,-111.25 240.67,-118.87 260.49,-125.68"/>
<polygon fill="midnightblue" stroke="midnightblue" points="259.4,-129 269.99,-128.94 261.67,-122.38 259.4,-129"/>
</g>
<!-- Node16&#45;&gt;Node13 -->
<g id="edge22" class="edge">
<title>Node16&#45;&gt;Node13</title>
<path fill="none" stroke="midnightblue" d="M218.09,-97C226.18,-97 234.85,-97 243.5,-97"/>
<polygon fill="midnightblue" stroke="midnightblue" points="243.6,-100.5 253.6,-97 243.6,-93.5 243.6,-100.5"/>
</g>
<!-- Node16&#45;&gt;Node14 -->
<g id="edge23" class="edge">
<title>Node16&#45;&gt;Node14</title>
<path fill="none" stroke="midnightblue" d="M201.95,-88.43C218.47,-82.75 240.67,-75.13 260.49,-68.32"/>
<polygon fill="midnightblue" stroke="midnightblue" points="261.67,-71.62 269.99,-65.06 259.4,-65 261.67,-71.62"/>
</g>
<!-- Node16&#45;&gt;Node15 -->
<g id="edge25" class="edge">
<title>Node16&#45;&gt;Node15</title>
<path fill="none" stroke="midnightblue" d="M202.49,-105.67C207.93,-108.19 213.41,-111.28 218,-115 239.29,-132.22 232.48,-148.06 254,-165 255.78,-166.4 257.66,-167.72 259.6,-168.97"/>
<polygon fill="midnightblue" stroke="midnightblue" points="258.07,-172.12 268.5,-173.98 261.5,-166.02 258.07,-172.12"/>
</g>
<!-- Node17 -->
<g id="node17" class="node">
<title>Node17</title>
<g id="a_node17"><a xlink:href="structsvg_1_1transform.html#acf9836f4ba647f0dd2b53963a0f714d0" target="_top" xlink:title=" ">
<polygon fill="white" stroke="black" points="255.5,-2.5 255.5,-19.5 362.5,-19.5 362.5,-2.5 255.5,-2.5"/>
<text text-anchor="middle" x="309" y="-9.1" font-family="SourceSans" font-size="8.00">svg::transform::rotate</text>
</a>
</g>
</g>
<!-- Node16&#45;&gt;Node17 -->
<g id="edge24" class="edge">
<title>Node16&#45;&gt;Node17</title>
<path fill="none" stroke="midnightblue" d="M184.73,-88.43C197.77,-74.44 225.52,-46.58 254,-30 258.4,-27.44 263.19,-25.15 268.06,-23.11"/>
<polygon fill="midnightblue" stroke="midnightblue" points="269.32,-26.37 277.4,-19.52 266.81,-19.84 269.32,-26.37"/>
</g>
</g>
</svg>
        <g id="navigator" transform="translate(0 0)" fill="#404254">
                <rect fill="#f2f5e9" fill-opacity="0.5" stroke="#606060" stroke-width=".5" x="0" y="0" width="60" height="60"/>
                <use id="zoomplus" xlink:href="#zoomPlus" x="17" y="9" onmousedown="handleZoom(evt,'in')"/>
                <use id="zoomminus" xlink:href="#zoomMin" x="42" y="9" onmousedown="handleZoom(evt,'out')"/>
                <use id="reset" xlink:href="#resetDef" x="30" y="36" onmousedown="handleReset()"/>
                <g id="arrowUp" xlink:href="#dirArrow" transform="translate(30 24)" onmousedown="handlePan(0,-1)">
                  <use xlink:href="#rim" fill="#404040">
                        <set attributeName="fill" to="#808080" begin="arrowUp.mouseover" end="arrowUp.mouseout"/>
                  </use>
                  <path fill="none" stroke="white" stroke-width="1.5" d="M0,-3.0v7 M-2.5,-0.5L0,-3.0L2.5,-0.5"/>
                </g>
                <g id="arrowRight" xlink:href="#dirArrow" transform="rotate(90) translate(36 -43)" onmousedown="handlePan(1,0)">
                  <use xlink:href="#rim" fill="#404040">
                        <set attributeName="fill" to="#808080" begin="arrowRight.mouseover" end="arrowRight.mouseout"/>
                  </use>
                  <path fill="none" stroke="white" stroke-width="1.5" d="M0,-3.0v7 M-2.5,-0.5L0,-3.0L2.5,-0.5"/>
                </g>
                <g id="arrowDown" xlink:href="#dirArrow" transform="rotate(180) translate(-30 -48)" onmousedown="handlePan(0,1)">
                  <use xlink:href="#rim" fill="#404040">
                        <set attributeName="fill" to="#808080" begin="arrowDown.mouseover" end="arrowDown.mouseout"/>
                  </use>
                  <path fill="none" stroke="white" stroke-width="1.5" d="M0,-3.0v7 M-2.5,-0.5L0,-3.0L2.5,-0.5"/>
                </g>
                <g id="arrowLeft" xlink:href="#dirArrow" transform="rotate(270) translate(-36 17)" onmousedown="handlePan(-1,0)">
                  <use xlink:href="#rim" fill="#404040">
                        <set attributeName="fill" to="#808080" begin="arrowLeft.mouseover" end="arrowLeft.mouseout"/>
                  </use>
                  <path fill="none" stroke="white" stroke-width="1.5" d="M0,-3.0v7 M-2.5,-0.5L0,-3.0L2.5,-0.5"/>
                </g>
        </g>
        <svg viewBox="0 0 15 15" width="100%" height="30px" preserveAspectRatio="xMaxYMin meet">
         <g id="arrow_out" transform="scale(0.3 0.3)">
          <a xlink:href="namespacesvg_a5ec86f1aa5e4c9923a7c11c2cbb89660_cgraph_org.svg" target="_base">
           <rect id="button" ry="5" rx="5" y="6" x="6" height="38" width="38"
                fill="#f2f5e9" fill-opacity="0.5" stroke="#606060" stroke-width="1.0"/>
           <path id="arrow"
             d="M 11.500037,31.436501 C 11.940474,20.09759 22.043105,11.32322 32.158766,21.979434 L 37.068811,17.246167 C 37.068811,17.246167 37.088388,32 37.088388,32 L 22.160133,31.978069 C 22.160133,31.978069 26.997745,27.140456 26.997745,27.140456 C 18.528582,18.264221 13.291696,25.230495 11.500037,31.436501 z"
             style="fill:#404040;"/>
          </a>
         </g>
        </svg>
</svg>
