<?xml version="1.0" encoding="UTF-8" standalone="no"?>
<!DOCTYPE svg PUBLIC "-//W3C//DTD SVG 1.1//EN"
 "http://www.w3.org/Graphics/SVG/1.1/DTD/svg11.dtd">
<!-- Generated by graphviz version 2.44.0 (0)
 -->
<!-- Title: svg::radiate_ids_per_value_on_arc Pages: 1 -->
<svg width="1120pt" height="322pt"
 viewBox="0.00 0.00 1120.00 322.00" xmlns="http://www.w3.org/2000/svg" xmlns:xlink="http://www.w3.org/1999/xlink">
<g id="graph0" class="graph" transform="scale(1 1) rotate(0) translate(4 318)">
<title>svg::radiate_ids_per_value_on_arc</title>
<polygon fill="white" stroke="transparent" points="-4,4 -4,-318 1116,-318 1116,4 -4,4"/>
<!-- Node1 -->
<g id="node1" class="node">
<title>Node1</title>
<g id="a_node1"><a xlink:title=" ">
<polygon fill="#bfbfbf" stroke="black" points="0,-188 0,-214 99,-214 99,-188 0,-188"/>
<text text-anchor="start" x="8" y="-203.6" font-family="SourceSans" font-size="8.00">svg::radiate_ids_per</text>
<text text-anchor="middle" x="49.5" y="-194.6" font-family="SourceSans" font-size="8.00">_value_on_arc</text>
</a>
</g>
</g>
<!-- Node2 -->
<g id="node2" class="node">
<title>Node2</title>
<g id="a_node2"><a xlink:href="namespacesvg.html#ac0698ee8703e46d635438f16d5824e09" target="_top" xlink:title=" ">
<polygon fill="white" stroke="black" points="135,-188 135,-214 226,-214 226,-188 135,-188"/>
<text text-anchor="start" x="143" y="-203.6" font-family="SourceSans" font-size="8.00">svg::radiate_id_by</text>
<text text-anchor="middle" x="180.5" y="-194.6" font-family="SourceSans" font-size="8.00">_value</text>
</a>
</g>
</g>
<!-- Node1&#45;&gt;Node2 -->
<g id="edge1" class="edge">
<title>Node1&#45;&gt;Node2</title>
<path fill="none" stroke="midnightblue" d="M99.27,-201C107.59,-201 116.28,-201 124.74,-201"/>
<polygon fill="midnightblue" stroke="midnightblue" points="124.91,-204.5 134.91,-201 124.91,-197.5 124.91,-204.5"/>
</g>
<!-- Node3 -->
<g id="node3" class="node">
<title>Node3</title>
<g id="a_node3"><a xlink:href="namespacesvg.html#a929b5c33bc0c139332dddd5d3b8ea3d0" target="_top" xlink:title="Transform a value on a range to an angle on the radial range.">
<polygon fill="white" stroke="black" points="277,-255.5 277,-272.5 354,-272.5 354,-255.5 277,-255.5"/>
<text text-anchor="middle" x="315.5" y="-262.1" font-family="SourceSans" font-size="8.00">svg::get_angle</text>
</a>
</g>
</g>
<!-- Node2&#45;&gt;Node3 -->
<g id="edge2" class="edge">
<title>Node2&#45;&gt;Node3</title>
<path fill="none" stroke="midnightblue" d="M208.26,-214.15C223.89,-221.78 244.02,-231.53 262,-240 269.86,-243.7 278.43,-247.65 286.31,-251.25"/>
<polygon fill="midnightblue" stroke="midnightblue" points="284.95,-254.48 295.5,-255.44 287.85,-248.11 284.95,-254.48"/>
</g>
<!-- Node6 -->
<g id="node6" class="node">
<title>Node6</title>
<g id="a_node6"><a xlink:href="namespacesvg.html#aabba9120f22d6011e46be1d065c2b19b" target="_top" xlink:title="Get the label space. Value &#45;&gt; Name, as a string where value has labelspaces of fill NB: Should be the...">
<polygon fill="white" stroke="black" points="262,-213.5 262,-230.5 369,-230.5 369,-213.5 262,-213.5"/>
<text text-anchor="middle" x="315.5" y="-220.1" font-family="SourceSans" font-size="8.00">svg::get_label_spaces</text>
</a>
</g>
</g>
<!-- Node2&#45;&gt;Node6 -->
<g id="edge5" class="edge">
<title>Node2&#45;&gt;Node6</title>
<path fill="none" stroke="midnightblue" d="M226.16,-208.05C234.4,-209.35 243.15,-210.73 251.81,-212.1"/>
<polygon fill="midnightblue" stroke="midnightblue" points="251.48,-215.59 261.91,-213.7 252.57,-208.68 251.48,-215.59"/>
</g>
<!-- Node7 -->
<g id="node7" class="node">
<title>Node7</title>
<g id="a_node7"><a xlink:href="namespacesvg.html#aa89ab2d58bfaf850b84e976828851b9b" target="_top" xlink:title="Make radial labels.">
<polygon fill="white" stroke="black" points="266.5,-168 266.5,-194 364.5,-194 364.5,-168 266.5,-168"/>
<text text-anchor="start" x="274.5" y="-183.6" font-family="SourceSans" font-size="8.00">svg::make_label_for</text>
<text text-anchor="middle" x="315.5" y="-174.6" font-family="SourceSans" font-size="8.00">_value</text>
</a>
</g>
</g>
<!-- Node2&#45;&gt;Node7 -->
<g id="edge6" class="edge">
<title>Node2&#45;&gt;Node7</title>
<path fill="none" stroke="midnightblue" d="M226.16,-194.28C235.78,-192.84 246.09,-191.29 256.14,-189.78"/>
<polygon fill="midnightblue" stroke="midnightblue" points="256.71,-193.23 266.08,-188.28 255.67,-186.31 256.71,-193.23"/>
</g>
<!-- Node8 -->
<g id="node8" class="node">
<title>Node8</title>
<g id="a_node8"><a xlink:href="namespacesvg.html#a06b88691cd28e6fb0c8e79ca44b34423" target="_top" xlink:title=" ">
<polygon fill="white" stroke="black" points="272.5,-124.5 272.5,-141.5 358.5,-141.5 358.5,-124.5 272.5,-124.5"/>
<text text-anchor="middle" x="315.5" y="-131.1" font-family="SourceSans" font-size="8.00">svg::radial_text_r</text>
</a>
</g>
</g>
<!-- Node2&#45;&gt;Node8 -->
<g id="edge7" class="edge">
<title>Node2&#45;&gt;Node8</title>
<path fill="none" stroke="midnightblue" d="M206.09,-188C222,-179.63 243.17,-168.57 262,-159 270.34,-154.76 279.47,-150.21 287.74,-146.12"/>
<polygon fill="midnightblue" stroke="midnightblue" points="289.53,-149.14 296.95,-141.57 286.44,-142.86 289.53,-149.14"/>
</g>
<!-- Node4 -->
<g id="node4" class="node">
<title>Node4</title>
<g id="a_node4"><a xlink:href="namespacesvg.html#a694806659ebf061e616b8a0b49a53f40" target="_top" xlink:title=" ">
<polygon fill="white" stroke="black" points="416,-296.5 416,-313.5 521,-313.5 521,-296.5 416,-296.5"/>
<text text-anchor="middle" x="468.5" y="-303.1" font-family="SourceSans" font-size="8.00">svg::get_radial_range</text>
</a>
</g>
</g>
<!-- Node3&#45;&gt;Node4 -->
<g id="edge3" class="edge">
<title>Node3&#45;&gt;Node4</title>
<path fill="none" stroke="midnightblue" d="M348.15,-272.59C370.88,-278.77 401.72,-287.14 426.35,-293.83"/>
<polygon fill="midnightblue" stroke="midnightblue" points="425.58,-297.24 436.15,-296.49 427.41,-290.49 425.58,-297.24"/>
</g>
<!-- Node5 -->
<g id="node5" class="node">
<title>Node5</title>
<g id="a_node5"><a xlink:href="namespacesvg.html#a673cb54838801fae8471436ce43298a9" target="_top" xlink:title="Scale value from min to max on range (nfloor, nceil).">
<polygon fill="white" stroke="black" points="416.5,-251 416.5,-277 520.5,-277 520.5,-251 416.5,-251"/>
<text text-anchor="start" x="424.5" y="-266.6" font-family="SourceSans" font-size="8.00">svg::normalize_value</text>
<text text-anchor="middle" x="468.5" y="-257.6" font-family="SourceSans" font-size="8.00">_on_range</text>
</a>
</g>
</g>
<!-- Node3&#45;&gt;Node5 -->
<g id="edge4" class="edge">
<title>Node3&#45;&gt;Node5</title>
<path fill="none" stroke="midnightblue" d="M354.21,-264C369.91,-264 388.55,-264 406.13,-264"/>
<polygon fill="midnightblue" stroke="midnightblue" points="406.32,-267.5 416.32,-264 406.32,-260.5 406.32,-267.5"/>
</g>
<!-- Node9 -->
<g id="node9" class="node">
<title>Node9</title>
<g id="a_node9"><a xlink:href="namespacesvg.html#acf54b60ce80d6e2059062e8dc4c14325" target="_top" xlink:title="Circumference adjustment such that lable is hight&#45;centered in kusama circle.">
<polygon fill="white" stroke="black" points="412,-206 412,-232 525,-232 525,-206 412,-206"/>
<text text-anchor="start" x="420" y="-221.6" font-family="SourceSans" font-size="8.00">svg::adjust_label_angle</text>
<text text-anchor="middle" x="468.5" y="-212.6" font-family="SourceSans" font-size="8.00">_for_text_height</text>
</a>
</g>
</g>
<!-- Node8&#45;&gt;Node9 -->
<g id="edge8" class="edge">
<title>Node8&#45;&gt;Node9</title>
<path fill="none" stroke="midnightblue" d="M337.92,-141.53C347.84,-146 359.51,-151.99 369,-159 387.71,-172.82 385.48,-184.34 405,-197 407.57,-198.67 410.28,-200.23 413.08,-201.68"/>
<polygon fill="midnightblue" stroke="midnightblue" points="411.69,-204.9 422.23,-205.98 414.67,-198.56 411.69,-204.9"/>
</g>
<!-- Node10 -->
<g id="node10" class="node">
<title>Node10</title>
<g id="a_node10"><a xlink:href="namespacesvg.html#ab44508c4aeca591141ebec50145b75cd" target="_top" xlink:title="Angle in degrees.">
<polygon fill="white" stroke="black" points="412,-161 412,-187 525,-187 525,-161 412,-161"/>
<text text-anchor="start" x="420" y="-176.6" font-family="SourceSans" font-size="8.00">svg::get_circumference</text>
<text text-anchor="middle" x="468.5" y="-167.6" font-family="SourceSans" font-size="8.00">_point_d</text>
</a>
</g>
</g>
<!-- Node8&#45;&gt;Node10 -->
<g id="edge9" class="edge">
<title>Node8&#45;&gt;Node10</title>
<path fill="none" stroke="midnightblue" d="M348.15,-141.59C366,-146.44 388.84,-152.64 409.76,-158.32"/>
<polygon fill="midnightblue" stroke="midnightblue" points="408.95,-161.73 419.52,-160.97 410.79,-154.97 408.95,-161.73"/>
</g>
<!-- Node13 -->
<g id="node13" class="node">
<title>Node13</title>
<g id="a_node13"><a xlink:href="namespacesvg.html#a5ec86f1aa5e4c9923a7c11c2cbb89660" target="_top" xlink:title="Text with typography, arranged ccw around points (x,y) on a circle.">
<polygon fill="white" stroke="black" points="419.5,-124.5 419.5,-141.5 517.5,-141.5 517.5,-124.5 419.5,-124.5"/>
<text text-anchor="middle" x="468.5" y="-131.1" font-family="SourceSans" font-size="8.00">svg::radial_text_ccw</text>
</a>
</g>
</g>
<!-- Node8&#45;&gt;Node13 -->
<g id="edge12" class="edge">
<title>Node8&#45;&gt;Node13</title>
<path fill="none" stroke="midnightblue" d="M358.56,-133C374.17,-133 392.17,-133 408.98,-133"/>
<polygon fill="midnightblue" stroke="midnightblue" points="409.27,-136.5 419.27,-133 409.27,-129.5 409.27,-136.5"/>
</g>
<!-- Node30 -->
<g id="node30" class="node">
<title>Node30</title>
<g id="a_node30"><a xlink:href="namespacesvg.html#a82c3b1f2d71d9212c46493e76e5dc087" target="_top" xlink:title="Text with typography, arranged cw around points (x,y) on a circle.">
<polygon fill="white" stroke="black" points="421.5,-88.5 421.5,-105.5 515.5,-105.5 515.5,-88.5 421.5,-88.5"/>
<text text-anchor="middle" x="468.5" y="-95.1" font-family="SourceSans" font-size="8.00">svg::radial_text_cw</text>
</a>
</g>
</g>
<!-- Node8&#45;&gt;Node30 -->
<g id="edge38" class="edge">
<title>Node8&#45;&gt;Node30</title>
<path fill="none" stroke="midnightblue" d="M352.28,-124.47C373.08,-119.51 399.5,-113.21 421.79,-107.9"/>
<polygon fill="midnightblue" stroke="midnightblue" points="422.79,-111.26 431.71,-105.53 421.17,-104.45 422.79,-111.26"/>
</g>
<!-- Node31 -->
<g id="node31" class="node">
<title>Node31</title>
<g id="a_node31"><a xlink:href="namespacesvg.html#a010fea242a289d173d521b501140cd72" target="_top" xlink:title="Zero degrees is top, going clockwise (cw).">
<polygon fill="white" stroke="black" points="405,-52.5 405,-69.5 532,-69.5 532,-52.5 405,-52.5"/>
<text text-anchor="middle" x="468.5" y="-59.1" font-family="SourceSans" font-size="8.00">svg::zero_angle_north_ccw</text>
</a>
</g>
</g>
<!-- Node8&#45;&gt;Node31 -->
<g id="edge41" class="edge">
<title>Node8&#45;&gt;Node31</title>
<path fill="none" stroke="midnightblue" d="M328.25,-124.41C344.69,-112.73 375.84,-91.82 405,-79 410.36,-76.64 416.12,-74.5 421.89,-72.58"/>
<polygon fill="midnightblue" stroke="midnightblue" points="423.04,-75.89 431.55,-69.57 420.96,-69.21 423.04,-75.89"/>
</g>
<!-- Node32 -->
<g id="node32" class="node">
<title>Node32</title>
<g id="a_node32"><a xlink:href="namespacesvg.html#a46164d75fd5109e4ed8879abbacd5c11" target="_top" xlink:title="Zero degrees is top, going clockwise (cw).">
<polygon fill="white" stroke="black" points="407.5,-16.5 407.5,-33.5 529.5,-33.5 529.5,-16.5 407.5,-16.5"/>
<text text-anchor="middle" x="468.5" y="-23.1" font-family="SourceSans" font-size="8.00">svg::zero_angle_north_cw</text>
</a>
</g>
</g>
<!-- Node8&#45;&gt;Node32 -->
<g id="edge42" class="edge">
<title>Node8&#45;&gt;Node32</title>
<path fill="none" stroke="midnightblue" d="M322.53,-124.38C335.5,-106.48 367.91,-65.09 405,-43 408.81,-40.73 412.93,-38.73 417.17,-36.98"/>
<polygon fill="midnightblue" stroke="midnightblue" points="418.39,-40.25 426.56,-33.51 415.97,-33.69 418.39,-40.25"/>
</g>
<!-- Node11 -->
<g id="node11" class="node">
<title>Node11</title>
<g id="a_node11"><a xlink:href="namespacesvg.html#a85a18af2008e9709e4d641ef4bda04e7" target="_top" xlink:title="Angle in radians.">
<polygon fill="white" stroke="black" points="568,-199 568,-225 681,-225 681,-199 568,-199"/>
<text text-anchor="start" x="576" y="-214.6" font-family="SourceSans" font-size="8.00">svg::get_circumference</text>
<text text-anchor="middle" x="624.5" y="-205.6" font-family="SourceSans" font-size="8.00">_point</text>
</a>
</g>
</g>
<!-- Node10&#45;&gt;Node11 -->
<g id="edge10" class="edge">
<title>Node10&#45;&gt;Node11</title>
<path fill="none" stroke="midnightblue" d="M522.5,-187.08C534.79,-190.11 547.98,-193.37 560.65,-196.49"/>
<polygon fill="midnightblue" stroke="midnightblue" points="560.12,-199.97 570.67,-198.96 561.79,-193.17 560.12,-199.97"/>
</g>
<!-- Node12 -->
<g id="node12" class="node">
<title>Node12</title>
<g id="a_node12"><a xlink:href="namespacesvg_1_1constants.html#a0e0b0d9314bc47324ee39884bf8bb2fd" target="_top" xlink:title=" ">
<polygon fill="white" stroke="black" points="579,-162.5 579,-179.5 670,-179.5 670,-162.5 579,-162.5"/>
<text text-anchor="middle" x="624.5" y="-169.1" font-family="SourceSans" font-size="8.00">svg::constants::pi</text>
</a>
</g>
</g>
<!-- Node10&#45;&gt;Node12 -->
<g id="edge11" class="edge">
<title>Node10&#45;&gt;Node12</title>
<path fill="none" stroke="midnightblue" d="M525.1,-172.92C539.24,-172.64 554.43,-172.35 568.54,-172.07"/>
<polygon fill="midnightblue" stroke="midnightblue" points="568.66,-175.57 578.59,-171.87 568.53,-168.57 568.66,-175.57"/>
</g>
<!-- Node14 -->
<g id="node14" class="node">
<title>Node14</title>
<g id="a_node14"><a xlink:href="namespacesvg.html#ab2d2020c33da2e0215837673e530b991" target="_top" xlink:title="Text at size.">
<polygon fill="white" stroke="black" points="586,-124.5 586,-141.5 663,-141.5 663,-124.5 586,-124.5"/>
<text text-anchor="middle" x="624.5" y="-131.1" font-family="SourceSans" font-size="8.00">svg::sized_text</text>
</a>
</g>
</g>
<!-- Node13&#45;&gt;Node14 -->
<g id="edge13" class="edge">
<title>Node13&#45;&gt;Node14</title>
<path fill="none" stroke="midnightblue" d="M517.8,-133C536.18,-133 557.09,-133 575.44,-133"/>
<polygon fill="midnightblue" stroke="midnightblue" points="575.62,-136.5 585.62,-133 575.62,-129.5 575.62,-136.5"/>
</g>
<!-- Node28 -->
<g id="node28" class="node">
<title>Node28</title>
<g id="a_node28"><a xlink:href="namespacesvg.html#a4399801aa964203bcab6e6ab2e7b4200" target="_top" xlink:title="Text at size, with a transformation=rotation added.">
<polygon fill="white" stroke="black" points="582.5,-88.5 582.5,-105.5 666.5,-105.5 666.5,-88.5 582.5,-88.5"/>
<text text-anchor="middle" x="624.5" y="-95.1" font-family="SourceSans" font-size="8.00">svg::sized_text_r</text>
</a>
</g>
</g>
<!-- Node13&#45;&gt;Node28 -->
<g id="edge32" class="edge">
<title>Node13&#45;&gt;Node28</title>
<path fill="none" stroke="midnightblue" d="M506,-124.47C527.3,-119.49 554.39,-113.15 577.19,-107.83"/>
<polygon fill="midnightblue" stroke="midnightblue" points="578.06,-111.22 587,-105.53 576.47,-104.4 578.06,-111.22"/>
</g>
<!-- Node15 -->
<g id="node15" class="node">
<title>Node15</title>
<g id="a_node15"><a xlink:href="group__elements.html#a87be030b88c17a86a690b31e95b60612" target="_top" xlink:title="Either serialize immediately (as below), or create data structure that adds data to data_vec and then...">
<polygon fill="white" stroke="black" points="724.5,-129 724.5,-155 819.5,-155 819.5,-129 724.5,-129"/>
<text text-anchor="start" x="732.5" y="-144.6" font-family="SourceSans" font-size="8.00">svg::text_element::</text>
<text text-anchor="middle" x="772" y="-135.6" font-family="SourceSans" font-size="8.00">add_data</text>
</a>
</g>
</g>
<!-- Node14&#45;&gt;Node15 -->
<g id="edge14" class="edge">
<title>Node14&#45;&gt;Node15</title>
<path fill="none" stroke="midnightblue" d="M663.35,-135.34C678.76,-136.29 696.91,-137.42 713.87,-138.47"/>
<polygon fill="midnightblue" stroke="midnightblue" points="714.04,-141.98 724.24,-139.11 714.47,-135 714.04,-141.98"/>
</g>
<!-- Node25 -->
<g id="node25" class="node">
<title>Node25</title>
<g id="a_node25"><a xlink:href="group__elements.html#adb6116b96467cc39cb178deb10c7a869" target="_top" xlink:title=" ">
<polygon fill="white" stroke="black" points="717,-84 717,-110 827,-110 827,-84 717,-84"/>
<text text-anchor="start" x="725" y="-99.6" font-family="SourceSans" font-size="8.00">svg::svg_element::add</text>
<text text-anchor="middle" x="772" y="-90.6" font-family="SourceSans" font-size="8.00">_element</text>
</a>
</g>
</g>
<!-- Node14&#45;&gt;Node25 -->
<g id="edge29" class="edge">
<title>Node14&#45;&gt;Node25</title>
<path fill="none" stroke="midnightblue" d="M659.98,-124.47C674.39,-120.9 691.59,-116.65 708.11,-112.56"/>
<polygon fill="midnightblue" stroke="midnightblue" points="709.4,-115.85 718.27,-110.05 707.72,-109.05 709.4,-115.85"/>
</g>
<!-- Node26 -->
<g id="node26" class="node">
<title>Node26</title>
<g id="a_node26"><a xlink:href="group__elements.html#ga13c46848317034d16c62a7d2061ba3d6" target="_top" xlink:title=" ">
<polygon fill="white" stroke="black" points="724.5,-39 724.5,-65 819.5,-65 819.5,-39 724.5,-39"/>
<text text-anchor="start" x="732.5" y="-54.6" font-family="SourceSans" font-size="8.00">svg::text_element::</text>
<text text-anchor="middle" x="772" y="-45.6" font-family="SourceSans" font-size="8.00">finish_element</text>
</a>
</g>
</g>
<!-- Node14&#45;&gt;Node26 -->
<g id="edge30" class="edge">
<title>Node14&#45;&gt;Node26</title>
<path fill="none" stroke="midnightblue" d="M661.44,-124.47C668.24,-122.01 675.08,-118.9 681,-115 701.26,-101.67 697.24,-88.06 717,-74 719.09,-72.51 721.3,-71.1 723.58,-69.77"/>
<polygon fill="midnightblue" stroke="midnightblue" points="725.41,-72.76 732.64,-65.01 722.16,-66.56 725.41,-72.76"/>
</g>
<!-- Node27 -->
<g id="node27" class="node">
<title>Node27</title>
<g id="a_node27"><a xlink:href="group__elements.html#ae45bec611a6ec17ea46aab6d680ae042" target="_top" xlink:title=" ">
<polygon fill="white" stroke="black" points="724.5,-174 724.5,-200 819.5,-200 819.5,-174 724.5,-174"/>
<text text-anchor="start" x="732.5" y="-189.6" font-family="SourceSans" font-size="8.00">svg::text_element::</text>
<text text-anchor="middle" x="772" y="-180.6" font-family="SourceSans" font-size="8.00">start_element</text>
</a>
</g>
</g>
<!-- Node14&#45;&gt;Node27 -->
<g id="edge31" class="edge">
<title>Node14&#45;&gt;Node27</title>
<path fill="none" stroke="midnightblue" d="M649.57,-141.58C659.34,-145.09 670.72,-149.21 681,-153 696.17,-158.6 712.73,-164.82 727.47,-170.4"/>
<polygon fill="midnightblue" stroke="midnightblue" points="726.27,-173.69 736.86,-173.96 728.75,-167.14 726.27,-173.69"/>
</g>
<!-- Node16 -->
<g id="node16" class="node">
<title>Node16</title>
<g id="a_node16"><a xlink:href="structsvg_1_1typography.html#a70f61596bba3e0bd67b43a8fc553dbfa" target="_top" xlink:title=" ">
<polygon fill="white" stroke="black" points="863,-190 863,-216 968,-216 968,-190 863,-190"/>
<text text-anchor="start" x="871" y="-205.6" font-family="SourceSans" font-size="8.00">svg::typography::add</text>
<text text-anchor="middle" x="915.5" y="-196.6" font-family="SourceSans" font-size="8.00">_attribute</text>
</a>
</g>
</g>
<!-- Node15&#45;&gt;Node16 -->
<g id="edge15" class="edge">
<title>Node15&#45;&gt;Node16</title>
<path fill="none" stroke="midnightblue" d="M803.86,-155.1C811.43,-158.33 819.51,-161.78 827,-165 842.73,-171.76 860.02,-179.26 875.04,-185.79"/>
<polygon fill="midnightblue" stroke="midnightblue" points="873.99,-189.15 884.55,-189.93 876.78,-182.73 873.99,-189.15"/>
</g>
<!-- Node17 -->
<g id="node17" class="node">
<title>Node17</title>
<g id="a_node17"><a xlink:href="namespacesvg.html#a48ac748e89e22789d1772326a98dd7b6" target="_top" xlink:title=" ">
<polygon fill="white" stroke="black" points="1010.5,-230.5 1010.5,-247.5 1105.5,-247.5 1105.5,-230.5 1010.5,-230.5"/>
<text text-anchor="middle" x="1058" y="-237.1" font-family="SourceSans" font-size="8.00">svg::string_replace</text>
</a>
</g>
</g>
<!-- Node15&#45;&gt;Node17 -->
<g id="edge26" class="edge">
<title>Node15&#45;&gt;Node17</title>
<path fill="none" stroke="midnightblue" d="M812.25,-155.14C817.53,-157.9 822.63,-161.17 827,-165 850.66,-185.76 836.2,-209.48 863,-226 903.8,-251.14 959.01,-252.4 1000.1,-248.53"/>
<polygon fill="midnightblue" stroke="midnightblue" points="1000.65,-251.99 1010.23,-247.44 999.91,-245.03 1000.65,-251.99"/>
</g>
<!-- Node18 -->
<g id="node18" class="node">
<title>Node18</title>
<g id="a_node18"><a xlink:href="structsvg_1_1typography.html#a174c1ffb4e56214d71523ffe7e422561" target="_top" xlink:title=" ">
<polygon fill="white" stroke="black" points="1009,-180 1009,-206 1107,-206 1107,-180 1009,-180"/>
<text text-anchor="start" x="1017" y="-195.6" font-family="SourceSans" font-size="8.00">svg::typography::to</text>
<text text-anchor="middle" x="1058" y="-186.6" font-family="SourceSans" font-size="8.00">_string</text>
</a>
</g>
</g>
<!-- Node15&#45;&gt;Node18 -->
<g id="edge27" class="edge">
<title>Node15&#45;&gt;Node18</title>
<path fill="none" stroke="midnightblue" d="M819.58,-150.36C868.66,-159.18 946.05,-173.08 999.04,-182.59"/>
<polygon fill="midnightblue" stroke="midnightblue" points="998.51,-186.05 1008.97,-184.38 999.75,-179.16 998.51,-186.05"/>
</g>
<!-- Node19 -->
<g id="node19" class="node">
<title>Node19</title>
<g id="a_node19"><a xlink:href="namespacesvg.html#a36b1c48ad4601b205790e3772ad0a7b6" target="_top" xlink:title=" ">
<polygon fill="white" stroke="black" points="1022,-133.5 1022,-150.5 1094,-150.5 1094,-133.5 1022,-133.5"/>
<text text-anchor="middle" x="1058" y="-140.1" font-family="SourceSans" font-size="8.00">svg::to_string</text>
</a>
</g>
</g>
<!-- Node15&#45;&gt;Node19 -->
<g id="edge28" class="edge">
<title>Node15&#45;&gt;Node19</title>
<path fill="none" stroke="midnightblue" d="M819.58,-142C872.69,-142 958.94,-142 1011.57,-142"/>
<polygon fill="midnightblue" stroke="midnightblue" points="1011.63,-145.5 1021.63,-142 1011.63,-138.5 1011.63,-145.5"/>
</g>
<!-- Node20 -->
<g id="node20" class="node">
<title>Node20</title>
<g id="a_node20"><a xlink:href="group__elements.html#a53d72a7ff728ad1d4d027254530bcf3d" target="_top" xlink:title="Common transforms include rotate(180)">
<polygon fill="white" stroke="black" points="865,-68 865,-94 966,-94 966,-68 865,-68"/>
<text text-anchor="start" x="873" y="-83.6" font-family="SourceSans" font-size="8.00">svg::element_base::</text>
<text text-anchor="middle" x="915.5" y="-74.6" font-family="SourceSans" font-size="8.00">add_transform</text>
</a>
</g>
</g>
<!-- Node15&#45;&gt;Node20 -->
<g id="edge19" class="edge">
<title>Node15&#45;&gt;Node20</title>
<path fill="none" stroke="midnightblue" d="M803.86,-128.9C811.43,-125.67 819.51,-122.22 827,-119 842.73,-112.24 860.02,-104.74 875.04,-98.21"/>
<polygon fill="midnightblue" stroke="midnightblue" points="876.78,-101.27 884.55,-94.07 873.99,-94.85 876.78,-101.27"/>
</g>
<!-- Node23 -->
<g id="node23" class="node">
<title>Node23</title>
<g id="a_node23"><a xlink:href="structsvg_1_1style.html#a724baeff8a062d71724ea2eeece5c6a3" target="_top" xlink:title=" ">
<polygon fill="white" stroke="black" points="879,-31.5 879,-48.5 952,-48.5 952,-31.5 879,-31.5"/>
<text text-anchor="middle" x="915.5" y="-38.1" font-family="SourceSans" font-size="8.00">svg::style::str</text>
</a>
</g>
</g>
<!-- Node15&#45;&gt;Node23 -->
<g id="edge22" class="edge">
<title>Node15&#45;&gt;Node23</title>
<path fill="none" stroke="midnightblue" d="M812.25,-128.86C817.53,-126.1 822.63,-122.83 827,-119 850.66,-98.24 838.66,-77.96 863,-58 865.23,-56.17 867.66,-54.52 870.21,-53.03"/>
<polygon fill="midnightblue" stroke="midnightblue" points="871.8,-56.15 879.22,-48.59 868.71,-49.87 871.8,-56.15"/>
</g>
<!-- Node16&#45;&gt;Node17 -->
<g id="edge16" class="edge">
<title>Node16&#45;&gt;Node17</title>
<path fill="none" stroke="midnightblue" d="M967.62,-216.1C982.79,-219.99 999.25,-224.2 1013.87,-227.95"/>
<polygon fill="midnightblue" stroke="midnightblue" points="1013.09,-231.36 1023.65,-230.45 1014.83,-224.58 1013.09,-231.36"/>
</g>
<!-- Node16&#45;&gt;Node18 -->
<g id="edge17" class="edge">
<title>Node16&#45;&gt;Node18</title>
<path fill="none" stroke="midnightblue" d="M968.02,-199.33C978,-198.62 988.53,-197.87 998.72,-197.15"/>
<polygon fill="midnightblue" stroke="midnightblue" points="999.03,-200.63 1008.76,-196.43 998.53,-193.65 999.03,-200.63"/>
</g>
<!-- Node16&#45;&gt;Node19 -->
<g id="edge18" class="edge">
<title>Node16&#45;&gt;Node19</title>
<path fill="none" stroke="midnightblue" d="M946.64,-189.91C970.74,-179.45 1004.3,-164.88 1028.07,-154.56"/>
<polygon fill="midnightblue" stroke="midnightblue" points="1029.51,-157.75 1037.29,-150.56 1026.72,-151.33 1029.51,-157.75"/>
</g>
<!-- Node21 -->
<g id="node21" class="node">
<title>Node21</title>
<g id="a_node21"><a xlink:href="namespacesvg_1_1constants.html#a3972655f1dfdc090ec2592d1fb37e87c" target="_top" xlink:title=" ">
<polygon fill="white" stroke="black" points="1004.5,-72.5 1004.5,-89.5 1111.5,-89.5 1111.5,-72.5 1004.5,-72.5"/>
<text text-anchor="middle" x="1058" y="-79.1" font-family="SourceSans" font-size="8.00">svg::constants::quote</text>
</a>
</g>
</g>
<!-- Node20&#45;&gt;Node21 -->
<g id="edge20" class="edge">
<title>Node20&#45;&gt;Node21</title>
<path fill="none" stroke="midnightblue" d="M966.04,-81C975.09,-81 984.64,-81 994.02,-81"/>
<polygon fill="midnightblue" stroke="midnightblue" points="994.1,-84.5 1004.1,-81 994.1,-77.5 994.1,-84.5"/>
</g>
<!-- Node22 -->
<g id="node22" class="node">
<title>Node22</title>
<g id="a_node22"><a xlink:href="namespacesvg_1_1constants.html#ac460bc8db60d85c3ae1cf8b1a903405e" target="_top" xlink:title="Formatting constants.">
<polygon fill="white" stroke="black" points="1004,-36.5 1004,-53.5 1112,-53.5 1112,-36.5 1004,-36.5"/>
<text text-anchor="middle" x="1058" y="-43.1" font-family="SourceSans" font-size="8.00">svg::constants::space</text>
</a>
</g>
</g>
<!-- Node20&#45;&gt;Node22 -->
<g id="edge21" class="edge">
<title>Node20&#45;&gt;Node22</title>
<path fill="none" stroke="midnightblue" d="M966.04,-68.31C981.57,-64.33 998.59,-59.97 1013.66,-56.1"/>
<polygon fill="midnightblue" stroke="midnightblue" points="1014.92,-59.39 1023.74,-53.52 1013.19,-52.61 1014.92,-59.39"/>
</g>
<!-- Node23&#45;&gt;Node21 -->
<g id="edge23" class="edge">
<title>Node23&#45;&gt;Node21</title>
<path fill="none" stroke="midnightblue" d="M945.95,-48.59C966.84,-54.69 995.09,-62.93 1017.87,-69.58"/>
<polygon fill="midnightblue" stroke="midnightblue" points="1017.01,-72.97 1027.59,-72.42 1018.97,-66.26 1017.01,-72.97"/>
</g>
<!-- Node23&#45;&gt;Node22 -->
<g id="edge24" class="edge">
<title>Node23&#45;&gt;Node22</title>
<path fill="none" stroke="midnightblue" d="M952.32,-41.27C964.88,-41.72 979.39,-42.24 993.53,-42.74"/>
<polygon fill="midnightblue" stroke="midnightblue" points="993.61,-46.25 1003.73,-43.1 993.86,-39.25 993.61,-46.25"/>
</g>
<!-- Node24 -->
<g id="node24" class="node">
<title>Node24</title>
<g id="a_node24"><a xlink:href="structsvg_1_1colorq.html#adb55a2a48193fafa55340505862278e4" target="_top" xlink:title=" ">
<polygon fill="white" stroke="black" points="1006,-0.5 1006,-17.5 1110,-17.5 1110,-0.5 1006,-0.5"/>
<text text-anchor="middle" x="1058" y="-7.1" font-family="SourceSans" font-size="8.00">svg::colorq::to_string</text>
</a>
</g>
</g>
<!-- Node23&#45;&gt;Node24 -->
<g id="edge25" class="edge">
<title>Node23&#45;&gt;Node24</title>
<path fill="none" stroke="midnightblue" d="M952.32,-32.1C969.33,-28.34 989.92,-23.8 1008.33,-19.74"/>
<polygon fill="midnightblue" stroke="midnightblue" points="1009.28,-23.11 1018.29,-17.54 1007.77,-16.28 1009.28,-23.11"/>
</g>
<!-- Node28&#45;&gt;Node15 -->
<g id="edge33" class="edge">
<title>Node28&#45;&gt;Node15</title>
<path fill="none" stroke="midnightblue" d="M653.21,-105.57C671.81,-111.32 696.89,-119.08 719.13,-125.96"/>
<polygon fill="midnightblue" stroke="midnightblue" points="718.2,-129.33 728.78,-128.94 720.26,-122.64 718.2,-129.33"/>
</g>
<!-- Node28&#45;&gt;Node25 -->
<g id="edge34" class="edge">
<title>Node28&#45;&gt;Node25</title>
<path fill="none" stroke="midnightblue" d="M666.81,-97C679.19,-97 693.08,-97 706.59,-97"/>
<polygon fill="midnightblue" stroke="midnightblue" points="706.81,-100.5 716.81,-97 706.8,-93.5 706.81,-100.5"/>
</g>
<!-- Node28&#45;&gt;Node26 -->
<g id="edge35" class="edge">
<title>Node28&#45;&gt;Node26</title>
<path fill="none" stroke="midnightblue" d="M653.21,-88.43C671.81,-82.68 696.89,-74.92 719.13,-68.04"/>
<polygon fill="midnightblue" stroke="midnightblue" points="720.26,-71.36 728.78,-65.06 718.2,-64.67 720.26,-71.36"/>
</g>
<!-- Node28&#45;&gt;Node27 -->
<g id="edge37" class="edge">
<title>Node28&#45;&gt;Node27</title>
<path fill="none" stroke="midnightblue" d="M662.91,-105.52C669.29,-107.96 675.6,-111.06 681,-115 703.12,-131.14 695.48,-148.06 717,-165 718.78,-166.4 720.66,-167.72 722.6,-168.97"/>
<polygon fill="midnightblue" stroke="midnightblue" points="721.07,-172.12 731.5,-173.98 724.5,-166.02 721.07,-172.12"/>
</g>
<!-- Node29 -->
<g id="node29" class="node">
<title>Node29</title>
<g id="a_node29"><a xlink:href="structsvg_1_1transform.html#acf9836f4ba647f0dd2b53963a0f714d0" target="_top" xlink:title=" ">
<polygon fill="white" stroke="black" points="718.5,-2.5 718.5,-19.5 825.5,-19.5 825.5,-2.5 718.5,-2.5"/>
<text text-anchor="middle" x="772" y="-9.1" font-family="SourceSans" font-size="8.00">svg::transform::rotate</text>
</a>
</g>
</g>
<!-- Node28&#45;&gt;Node29 -->
<g id="edge36" class="edge">
<title>Node28&#45;&gt;Node29</title>
<path fill="none" stroke="midnightblue" d="M634.96,-88.34C650.84,-74.2 684.35,-46.01 717,-29 721.21,-26.8 725.75,-24.8 730.34,-22.99"/>
<polygon fill="midnightblue" stroke="midnightblue" points="731.56,-26.27 739.75,-19.55 729.15,-19.69 731.56,-26.27"/>
</g>
<!-- Node30&#45;&gt;Node14 -->
<g id="edge39" class="edge">
<title>Node30&#45;&gt;Node14</title>
<path fill="none" stroke="midnightblue" d="M506,-105.53C527.3,-110.51 554.39,-116.85 577.19,-122.17"/>
<polygon fill="midnightblue" stroke="midnightblue" points="576.47,-125.6 587,-124.47 578.06,-118.78 576.47,-125.6"/>
</g>
<!-- Node30&#45;&gt;Node28 -->
<g id="edge40" class="edge">
<title>Node30&#45;&gt;Node28</title>
<path fill="none" stroke="midnightblue" d="M515.71,-97C533.49,-97 553.9,-97 572.14,-97"/>
<polygon fill="midnightblue" stroke="midnightblue" points="572.3,-100.5 582.3,-97 572.3,-93.5 572.3,-100.5"/>
</g>
</g>
</svg>
