<?xml version="1.0" encoding="UTF-8" standalone="no"?>
<!DOCTYPE svg PUBLIC "-//W3C//DTD SVG 1.1//EN"
 "http://www.w3.org/Graphics/SVG/1.1/DTD/svg11.dtd">
<!-- Generated by graphviz version 2.44.0 (0)
 -->
<!-- Title: svg::append_ids_at Pages: 1 -->
<!--zoomable 258 -->
<svg id="main" version="1.1" xmlns="http://www.w3.org/2000/svg" xmlns:xlink="http://www.w3.org/1999/xlink" xml:space="preserve" onload="init(evt)">
<style type="text/css"><![CDATA[
.edge:hover path { stroke: red; }
.edge:hover polygon { stroke: red; fill: red; }
]]></style>
<script type="text/javascript"><![CDATA[
var edges = document.getElementsByTagName('g');
if (edges && edges.length) {
  for (var i=0;i<edges.length;i++) {
    if (edges[i].id.substr(0,4)=='edge') {
      edges[i].setAttribute('class','edge');
    }
  }
}
]]></script>
        <defs>
                <circle id="rim" cx="0" cy="0" r="7"/>
                <circle id="rim2" cx="0" cy="0" r="3.5"/>
                <g id="zoomPlus">
                        <use xlink:href="#rim" fill="#404040">
                                <set attributeName="fill" to="#808080" begin="zoomplus.mouseover" end="zoomplus.mouseout"/>
                        </use>
                        <path d="M-4,0h8M0,-4v8" fill="none" stroke="white" stroke-width="1.5" pointer-events="none"/>
                </g>
                <g id="zoomMin">
                        <use xlink:href="#rim" fill="#404040">
                                <set attributeName="fill" to="#808080" begin="zoomminus.mouseover" end="zoomminus.mouseout"/>
                        </use>
                        <path d="M-4,0h8" fill="none" stroke="white" stroke-width="1.5" pointer-events="none"/>
                </g>
                <g id="dirArrow">
                        <path fill="none" stroke="white" stroke-width="1.5" d="M0,-3.0v7 M-2.5,-0.5L0,-3.0L2.5,-0.5"/>
                </g>
               <g id="resetDef">
                       <use xlink:href="#rim2" fill="#404040">
                               <set attributeName="fill" to="#808080" begin="reset.mouseover" end="reset.mouseout"/>
                       </use>
               </g>
        </defs>

<script type="text/javascript">
var viewWidth = 969;
var viewHeight = 258;
var sectionId = 'dynsection-2';
</script>
<script xlink:href="svgpan.js"/>
<svg id="graph" class="graph">
<g id="viewport">
<title>svg::append_ids_at</title>
<polygon fill="white" stroke="transparent" points="-4,4 -4,-254.21 965,-254.21 965,4 -4,4"/>
<!-- Node1 -->
<g id="node1" class="node">
<title>Node1</title>
<g id="a_node1"><a xlink:title="Concatenate ids onto one line.">
<polygon fill="#bfbfbf" stroke="black" points="0,-106.5 0,-123.5 96,-123.5 96,-106.5 0,-106.5"/>
<text text-anchor="middle" x="48" y="-113.1" font-family="SourceSans" font-size="8.00">svg::append_ids_at</text>
</a>
</g>
</g>
<!-- Node2 -->
<g id="node2" class="node">
<title>Node2</title>
<g id="a_node2"><a xlink:href="namespacesvg.html#a06b88691cd28e6fb0c8e79ca44b34423" target="_top" xlink:title=" ">
<polygon fill="white" stroke="black" points="132,-106.5 132,-123.5 218,-123.5 218,-106.5 132,-106.5"/>
<text text-anchor="middle" x="175" y="-113.1" font-family="SourceSans" font-size="8.00">svg::radial_text_r</text>
</a>
</g>
</g>
<!-- Node1&#45;&gt;Node2 -->
<g id="edge1" class="edge">
<title>Node1&#45;&gt;Node2</title>
<path fill="none" stroke="midnightblue" d="M96.26,-115C104.51,-115 113.15,-115 121.54,-115"/>
<polygon fill="midnightblue" stroke="midnightblue" points="121.6,-118.5 131.6,-115 121.6,-111.5 121.6,-118.5"/>
</g>
<!-- Node3 -->
<g id="node3" class="node">
<title>Node3</title>
<g id="a_node3"><a xlink:href="namespacesvg.html#acf54b60ce80d6e2059062e8dc4c14325" target="_top" xlink:title="Circumference adjustment such that lable is hight&#45;centered in kusama circle.">
<polygon fill="white" stroke="black" points="261,-206 261,-232 374,-232 374,-206 261,-206"/>
<text text-anchor="start" x="269" y="-221.6" font-family="SourceSans" font-size="8.00">svg::adjust_label_angle</text>
<text text-anchor="middle" x="317.5" y="-212.6" font-family="SourceSans" font-size="8.00">_for_text_height</text>
</a>
</g>
</g>
<!-- Node2&#45;&gt;Node3 -->
<g id="edge2" class="edge">
<title>Node2&#45;&gt;Node3</title>
<path fill="none" stroke="midnightblue" d="M182.06,-123.71C194,-140.25 222.17,-176.4 254,-197 256.57,-198.67 259.29,-200.22 262.08,-201.67"/>
<polygon fill="midnightblue" stroke="midnightblue" points="260.7,-204.89 271.24,-205.97 263.67,-198.55 260.7,-204.89"/>
</g>
<!-- Node4 -->
<g id="node4" class="node">
<title>Node4</title>
<g id="a_node4"><a xlink:href="namespacesvg.html#ab44508c4aeca591141ebec50145b75cd" target="_top" xlink:title="Angle in degrees.">
<polygon fill="white" stroke="black" points="261,-161 261,-187 374,-187 374,-161 261,-161"/>
<text text-anchor="start" x="269" y="-176.6" font-family="SourceSans" font-size="8.00">svg::get_circumference</text>
<text text-anchor="middle" x="317.5" y="-167.6" font-family="SourceSans" font-size="8.00">_point_d</text>
</a>
</g>
</g>
<!-- Node2&#45;&gt;Node4 -->
<g id="edge3" class="edge">
<title>Node2&#45;&gt;Node4</title>
<path fill="none" stroke="midnightblue" d="M193.48,-123.55C209.17,-131.12 232.92,-142.27 254,-151 259.14,-153.13 264.56,-155.27 269.97,-157.34"/>
<polygon fill="midnightblue" stroke="midnightblue" points="269.03,-160.73 279.63,-160.99 271.5,-154.18 269.03,-160.73"/>
</g>
<!-- Node7 -->
<g id="node7" class="node">
<title>Node7</title>
<g id="a_node7"><a xlink:href="namespacesvg.html#a5ec86f1aa5e4c9923a7c11c2cbb89660" target="_top" xlink:title="Text with typography, arranged ccw around points (x,y) on a circle.">
<polygon fill="white" stroke="black" points="268.5,-124.5 268.5,-141.5 366.5,-141.5 366.5,-124.5 268.5,-124.5"/>
<text text-anchor="middle" x="317.5" y="-131.1" font-family="SourceSans" font-size="8.00">svg::radial_text_ccw</text>
</a>
</g>
</g>
<!-- Node2&#45;&gt;Node7 -->
<g id="edge6" class="edge">
<title>Node2&#45;&gt;Node7</title>
<path fill="none" stroke="midnightblue" d="M218.15,-120.4C230.78,-122.02 244.85,-123.82 258.32,-125.55"/>
<polygon fill="midnightblue" stroke="midnightblue" points="258.1,-129.05 268.46,-126.85 258.99,-122.1 258.1,-129.05"/>
</g>
<!-- Node24 -->
<g id="node24" class="node">
<title>Node24</title>
<g id="a_node24"><a xlink:href="namespacesvg.html#a82c3b1f2d71d9212c46493e76e5dc087" target="_top" xlink:title="Text with typography, arranged cw around points (x,y) on a circle.">
<polygon fill="white" stroke="black" points="270.5,-88.5 270.5,-105.5 364.5,-105.5 364.5,-88.5 270.5,-88.5"/>
<text text-anchor="middle" x="317.5" y="-95.1" font-family="SourceSans" font-size="8.00">svg::radial_text_cw</text>
</a>
</g>
</g>
<!-- Node2&#45;&gt;Node24 -->
<g id="edge32" class="edge">
<title>Node2&#45;&gt;Node24</title>
<path fill="none" stroke="midnightblue" d="M218.15,-109.6C231.42,-107.9 246.29,-105.99 260.37,-104.19"/>
<polygon fill="midnightblue" stroke="midnightblue" points="260.98,-107.64 270.45,-102.9 260.09,-100.7 260.98,-107.64"/>
</g>
<!-- Node25 -->
<g id="node25" class="node">
<title>Node25</title>
<g id="a_node25"><a xlink:href="namespacesvg.html#a010fea242a289d173d521b501140cd72" target="_top" xlink:title="Zero degrees is top, going clockwise (cw).">
<polygon fill="white" stroke="black" points="254,-52.5 254,-69.5 381,-69.5 381,-52.5 254,-52.5"/>
<text text-anchor="middle" x="317.5" y="-59.1" font-family="SourceSans" font-size="8.00">svg::zero_angle_north_ccw</text>
</a>
</g>
</g>
<!-- Node2&#45;&gt;Node25 -->
<g id="edge35" class="edge">
<title>Node2&#45;&gt;Node25</title>
<path fill="none" stroke="midnightblue" d="M192.73,-106.38C208.31,-98.56 232.34,-87.07 254,-79 260.33,-76.64 267.11,-74.41 273.79,-72.36"/>
<polygon fill="midnightblue" stroke="midnightblue" points="274.84,-75.7 283.43,-69.51 272.85,-68.99 274.84,-75.7"/>
</g>
<!-- Node26 -->
<g id="node26" class="node">
<title>Node26</title>
<g id="a_node26"><a xlink:href="namespacesvg.html#a46164d75fd5109e4ed8879abbacd5c11" target="_top" xlink:title="Zero degrees is top, going clockwise (cw).">
<polygon fill="white" stroke="black" points="256.5,-16.5 256.5,-33.5 378.5,-33.5 378.5,-16.5 256.5,-16.5"/>
<text text-anchor="middle" x="317.5" y="-23.1" font-family="SourceSans" font-size="8.00">svg::zero_angle_north_cw</text>
</a>
</g>
</g>
<!-- Node2&#45;&gt;Node26 -->
<g id="edge36" class="edge">
<title>Node2&#45;&gt;Node26</title>
<path fill="none" stroke="midnightblue" d="M183.2,-106.06C195.9,-90.86 223.81,-60 254,-43 257.98,-40.76 262.27,-38.77 266.66,-37.02"/>
<polygon fill="midnightblue" stroke="midnightblue" points="268.13,-40.22 276.37,-33.56 265.78,-33.62 268.13,-40.22"/>
</g>
<!-- Node5 -->
<g id="node5" class="node">
<title>Node5</title>
<g id="a_node5"><a xlink:href="namespacesvg.html#a85a18af2008e9709e4d641ef4bda04e7" target="_top" xlink:title="Angle in radians.">
<polygon fill="white" stroke="black" points="417,-199 417,-225 530,-225 530,-199 417,-199"/>
<text text-anchor="start" x="425" y="-214.6" font-family="SourceSans" font-size="8.00">svg::get_circumference</text>
<text text-anchor="middle" x="473.5" y="-205.6" font-family="SourceSans" font-size="8.00">_point</text>
</a>
</g>
</g>
<!-- Node4&#45;&gt;Node5 -->
<g id="edge4" class="edge">
<title>Node4&#45;&gt;Node5</title>
<path fill="none" stroke="midnightblue" d="M371.5,-187.08C383.79,-190.11 396.98,-193.37 409.65,-196.49"/>
<polygon fill="midnightblue" stroke="midnightblue" points="409.12,-199.97 419.67,-198.96 410.79,-193.17 409.12,-199.97"/>
</g>
<!-- Node6 -->
<g id="node6" class="node">
<title>Node6</title>
<g id="a_node6"><a xlink:href="namespacesvg_1_1constants.html#a0e0b0d9314bc47324ee39884bf8bb2fd" target="_top" xlink:title=" ">
<polygon fill="white" stroke="black" points="428,-162.5 428,-179.5 519,-179.5 519,-162.5 428,-162.5"/>
<text text-anchor="middle" x="473.5" y="-169.1" font-family="SourceSans" font-size="8.00">svg::constants::pi</text>
</a>
</g>
</g>
<!-- Node4&#45;&gt;Node6 -->
<g id="edge5" class="edge">
<title>Node4&#45;&gt;Node6</title>
<path fill="none" stroke="midnightblue" d="M374.1,-172.92C388.24,-172.64 403.43,-172.35 417.54,-172.07"/>
<polygon fill="midnightblue" stroke="midnightblue" points="417.66,-175.57 427.59,-171.87 417.53,-168.57 417.66,-175.57"/>
</g>
<!-- Node8 -->
<g id="node8" class="node">
<title>Node8</title>
<g id="a_node8"><a xlink:href="namespacesvg.html#ab2d2020c33da2e0215837673e530b991" target="_top" xlink:title="Text at size.">
<polygon fill="white" stroke="black" points="435,-124.5 435,-141.5 512,-141.5 512,-124.5 435,-124.5"/>
<text text-anchor="middle" x="473.5" y="-131.1" font-family="SourceSans" font-size="8.00">svg::sized_text</text>
</a>
</g>
</g>
<!-- Node7&#45;&gt;Node8 -->
<g id="edge7" class="edge">
<title>Node7&#45;&gt;Node8</title>
<path fill="none" stroke="midnightblue" d="M366.8,-133C385.18,-133 406.09,-133 424.44,-133"/>
<polygon fill="midnightblue" stroke="midnightblue" points="424.62,-136.5 434.62,-133 424.62,-129.5 424.62,-136.5"/>
</g>
<!-- Node22 -->
<g id="node22" class="node">
<title>Node22</title>
<g id="a_node22"><a xlink:href="namespacesvg.html#a4399801aa964203bcab6e6ab2e7b4200" target="_top" xlink:title="Text at size, with a transformation=rotation added.">
<polygon fill="white" stroke="black" points="431.5,-88.5 431.5,-105.5 515.5,-105.5 515.5,-88.5 431.5,-88.5"/>
<text text-anchor="middle" x="473.5" y="-95.1" font-family="SourceSans" font-size="8.00">svg::sized_text_r</text>
</a>
</g>
</g>
<!-- Node7&#45;&gt;Node22 -->
<g id="edge26" class="edge">
<title>Node7&#45;&gt;Node22</title>
<path fill="none" stroke="midnightblue" d="M355,-124.47C376.3,-119.49 403.39,-113.15 426.19,-107.83"/>
<polygon fill="midnightblue" stroke="midnightblue" points="427.06,-111.22 436,-105.53 425.47,-104.4 427.06,-111.22"/>
</g>
<!-- Node9 -->
<g id="node9" class="node">
<title>Node9</title>
<g id="a_node9"><a xlink:href="group__elements.html#a87be030b88c17a86a690b31e95b60612" target="_top" xlink:title="Either serialize immediately (as below), or create data structure that adds data to data_vec and then...">
<polygon fill="white" stroke="black" points="573.5,-129 573.5,-155 668.5,-155 668.5,-129 573.5,-129"/>
<text text-anchor="start" x="581.5" y="-144.6" font-family="SourceSans" font-size="8.00">svg::text_element::</text>
<text text-anchor="middle" x="621" y="-135.6" font-family="SourceSans" font-size="8.00">add_data</text>
</a>
</g>
</g>
<!-- Node8&#45;&gt;Node9 -->
<g id="edge8" class="edge">
<title>Node8&#45;&gt;Node9</title>
<path fill="none" stroke="midnightblue" d="M512.35,-135.34C527.76,-136.29 545.91,-137.42 562.87,-138.47"/>
<polygon fill="midnightblue" stroke="midnightblue" points="563.04,-141.98 573.24,-139.11 563.47,-135 563.04,-141.98"/>
</g>
<!-- Node19 -->
<g id="node19" class="node">
<title>Node19</title>
<g id="a_node19"><a xlink:href="group__elements.html#adb6116b96467cc39cb178deb10c7a869" target="_top" xlink:title=" ">
<polygon fill="white" stroke="black" points="566,-84 566,-110 676,-110 676,-84 566,-84"/>
<text text-anchor="start" x="574" y="-99.6" font-family="SourceSans" font-size="8.00">svg::svg_element::add</text>
<text text-anchor="middle" x="621" y="-90.6" font-family="SourceSans" font-size="8.00">_element</text>
</a>
</g>
</g>
<!-- Node8&#45;&gt;Node19 -->
<g id="edge23" class="edge">
<title>Node8&#45;&gt;Node19</title>
<path fill="none" stroke="midnightblue" d="M508.98,-124.47C523.39,-120.9 540.59,-116.65 557.11,-112.56"/>
<polygon fill="midnightblue" stroke="midnightblue" points="558.4,-115.85 567.27,-110.05 556.72,-109.05 558.4,-115.85"/>
</g>
<!-- Node20 -->
<g id="node20" class="node">
<title>Node20</title>
<g id="a_node20"><a xlink:href="group__elements.html#ga13c46848317034d16c62a7d2061ba3d6" target="_top" xlink:title=" ">
<polygon fill="white" stroke="black" points="573.5,-39 573.5,-65 668.5,-65 668.5,-39 573.5,-39"/>
<text text-anchor="start" x="581.5" y="-54.6" font-family="SourceSans" font-size="8.00">svg::text_element::</text>
<text text-anchor="middle" x="621" y="-45.6" font-family="SourceSans" font-size="8.00">finish_element</text>
</a>
</g>
</g>
<!-- Node8&#45;&gt;Node20 -->
<g id="edge24" class="edge">
<title>Node8&#45;&gt;Node20</title>
<path fill="none" stroke="midnightblue" d="M510.44,-124.47C517.24,-122.01 524.08,-118.9 530,-115 550.26,-101.67 546.24,-88.06 566,-74 568.09,-72.51 570.3,-71.1 572.58,-69.77"/>
<polygon fill="midnightblue" stroke="midnightblue" points="574.41,-72.76 581.64,-65.01 571.16,-66.56 574.41,-72.76"/>
</g>
<!-- Node21 -->
<g id="node21" class="node">
<title>Node21</title>
<g id="a_node21"><a xlink:href="group__elements.html#ae45bec611a6ec17ea46aab6d680ae042" target="_top" xlink:title=" ">
<polygon fill="white" stroke="black" points="573.5,-174 573.5,-200 668.5,-200 668.5,-174 573.5,-174"/>
<text text-anchor="start" x="581.5" y="-189.6" font-family="SourceSans" font-size="8.00">svg::text_element::</text>
<text text-anchor="middle" x="621" y="-180.6" font-family="SourceSans" font-size="8.00">start_element</text>
</a>
</g>
</g>
<!-- Node8&#45;&gt;Node21 -->
<g id="edge25" class="edge">
<title>Node8&#45;&gt;Node21</title>
<path fill="none" stroke="midnightblue" d="M498.57,-141.58C508.34,-145.09 519.72,-149.21 530,-153 545.17,-158.6 561.73,-164.82 576.47,-170.4"/>
<polygon fill="midnightblue" stroke="midnightblue" points="575.27,-173.69 585.86,-173.96 577.75,-167.14 575.27,-173.69"/>
</g>
<!-- Node10 -->
<g id="node10" class="node">
<title>Node10</title>
<g id="a_node10"><a xlink:href="structsvg_1_1typography.html#a70f61596bba3e0bd67b43a8fc553dbfa" target="_top" xlink:title=" ">
<polygon fill="white" stroke="black" points="712,-190 712,-216 817,-216 817,-190 712,-190"/>
<text text-anchor="start" x="720" y="-205.6" font-family="SourceSans" font-size="8.00">svg::typography::add</text>
<text text-anchor="middle" x="764.5" y="-196.6" font-family="SourceSans" font-size="8.00">_attribute</text>
</a>
</g>
</g>
<!-- Node9&#45;&gt;Node10 -->
<g id="edge9" class="edge">
<title>Node9&#45;&gt;Node10</title>
<path fill="none" stroke="midnightblue" d="M652.86,-155.1C660.43,-158.33 668.51,-161.78 676,-165 691.73,-171.76 709.02,-179.26 724.04,-185.79"/>
<polygon fill="midnightblue" stroke="midnightblue" points="722.99,-189.15 733.55,-189.93 725.78,-182.73 722.99,-189.15"/>
</g>
<!-- Node11 -->
<g id="node11" class="node">
<title>Node11</title>
<g id="a_node11"><a xlink:href="namespacesvg.html#a48ac748e89e22789d1772326a98dd7b6" target="_top" xlink:title=" ">
<polygon fill="white" stroke="black" points="859.5,-230.5 859.5,-247.5 954.5,-247.5 954.5,-230.5 859.5,-230.5"/>
<text text-anchor="middle" x="907" y="-237.1" font-family="SourceSans" font-size="8.00">svg::string_replace</text>
</a>
</g>
</g>
<!-- Node9&#45;&gt;Node11 -->
<g id="edge20" class="edge">
<title>Node9&#45;&gt;Node11</title>
<path fill="none" stroke="midnightblue" d="M661.25,-155.14C666.53,-157.9 671.63,-161.17 676,-165 699.66,-185.76 685.2,-209.48 712,-226 752.8,-251.14 808.01,-252.4 849.1,-248.53"/>
<polygon fill="midnightblue" stroke="midnightblue" points="849.65,-251.99 859.23,-247.44 848.91,-245.03 849.65,-251.99"/>
</g>
<!-- Node12 -->
<g id="node12" class="node">
<title>Node12</title>
<g id="a_node12"><a xlink:href="structsvg_1_1typography.html#a174c1ffb4e56214d71523ffe7e422561" target="_top" xlink:title=" ">
<polygon fill="white" stroke="black" points="858,-180 858,-206 956,-206 956,-180 858,-180"/>
<text text-anchor="start" x="866" y="-195.6" font-family="SourceSans" font-size="8.00">svg::typography::to</text>
<text text-anchor="middle" x="907" y="-186.6" font-family="SourceSans" font-size="8.00">_string</text>
</a>
</g>
</g>
<!-- Node9&#45;&gt;Node12 -->
<g id="edge21" class="edge">
<title>Node9&#45;&gt;Node12</title>
<path fill="none" stroke="midnightblue" d="M668.58,-150.36C717.66,-159.18 795.05,-173.08 848.04,-182.59"/>
<polygon fill="midnightblue" stroke="midnightblue" points="847.51,-186.05 857.97,-184.38 848.75,-179.16 847.51,-186.05"/>
</g>
<!-- Node13 -->
<g id="node13" class="node">
<title>Node13</title>
<g id="a_node13"><a xlink:href="namespacesvg.html#a36b1c48ad4601b205790e3772ad0a7b6" target="_top" xlink:title=" ">
<polygon fill="white" stroke="black" points="871,-133.5 871,-150.5 943,-150.5 943,-133.5 871,-133.5"/>
<text text-anchor="middle" x="907" y="-140.1" font-family="SourceSans" font-size="8.00">svg::to_string</text>
</a>
</g>
</g>
<!-- Node9&#45;&gt;Node13 -->
<g id="edge22" class="edge">
<title>Node9&#45;&gt;Node13</title>
<path fill="none" stroke="midnightblue" d="M668.58,-142C721.69,-142 807.94,-142 860.57,-142"/>
<polygon fill="midnightblue" stroke="midnightblue" points="860.63,-145.5 870.63,-142 860.63,-138.5 860.63,-145.5"/>
</g>
<!-- Node14 -->
<g id="node14" class="node">
<title>Node14</title>
<g id="a_node14"><a xlink:href="group__elements.html#a53d72a7ff728ad1d4d027254530bcf3d" target="_top" xlink:title="Common transforms include rotate(180)">
<polygon fill="white" stroke="black" points="714,-68 714,-94 815,-94 815,-68 714,-68"/>
<text text-anchor="start" x="722" y="-83.6" font-family="SourceSans" font-size="8.00">svg::element_base::</text>
<text text-anchor="middle" x="764.5" y="-74.6" font-family="SourceSans" font-size="8.00">add_transform</text>
</a>
</g>
</g>
<!-- Node9&#45;&gt;Node14 -->
<g id="edge13" class="edge">
<title>Node9&#45;&gt;Node14</title>
<path fill="none" stroke="midnightblue" d="M652.86,-128.9C660.43,-125.67 668.51,-122.22 676,-119 691.73,-112.24 709.02,-104.74 724.04,-98.21"/>
<polygon fill="midnightblue" stroke="midnightblue" points="725.78,-101.27 733.55,-94.07 722.99,-94.85 725.78,-101.27"/>
</g>
<!-- Node17 -->
<g id="node17" class="node">
<title>Node17</title>
<g id="a_node17"><a xlink:href="structsvg_1_1style.html#a724baeff8a062d71724ea2eeece5c6a3" target="_top" xlink:title=" ">
<polygon fill="white" stroke="black" points="728,-31.5 728,-48.5 801,-48.5 801,-31.5 728,-31.5"/>
<text text-anchor="middle" x="764.5" y="-38.1" font-family="SourceSans" font-size="8.00">svg::style::str</text>
</a>
</g>
</g>
<!-- Node9&#45;&gt;Node17 -->
<g id="edge16" class="edge">
<title>Node9&#45;&gt;Node17</title>
<path fill="none" stroke="midnightblue" d="M661.25,-128.86C666.53,-126.1 671.63,-122.83 676,-119 699.66,-98.24 687.66,-77.96 712,-58 714.23,-56.17 716.66,-54.52 719.21,-53.03"/>
<polygon fill="midnightblue" stroke="midnightblue" points="720.8,-56.15 728.22,-48.59 717.71,-49.87 720.8,-56.15"/>
</g>
<!-- Node10&#45;&gt;Node11 -->
<g id="edge10" class="edge">
<title>Node10&#45;&gt;Node11</title>
<path fill="none" stroke="midnightblue" d="M816.62,-216.1C831.79,-219.99 848.25,-224.2 862.87,-227.95"/>
<polygon fill="midnightblue" stroke="midnightblue" points="862.09,-231.36 872.65,-230.45 863.83,-224.58 862.09,-231.36"/>
</g>
<!-- Node10&#45;&gt;Node12 -->
<g id="edge11" class="edge">
<title>Node10&#45;&gt;Node12</title>
<path fill="none" stroke="midnightblue" d="M817.02,-199.33C827,-198.62 837.53,-197.87 847.72,-197.15"/>
<polygon fill="midnightblue" stroke="midnightblue" points="848.03,-200.63 857.76,-196.43 847.53,-193.65 848.03,-200.63"/>
</g>
<!-- Node10&#45;&gt;Node13 -->
<g id="edge12" class="edge">
<title>Node10&#45;&gt;Node13</title>
<path fill="none" stroke="midnightblue" d="M795.64,-189.91C819.74,-179.45 853.3,-164.88 877.07,-154.56"/>
<polygon fill="midnightblue" stroke="midnightblue" points="878.51,-157.75 886.29,-150.56 875.72,-151.33 878.51,-157.75"/>
</g>
<!-- Node15 -->
<g id="node15" class="node">
<title>Node15</title>
<g id="a_node15"><a xlink:href="namespacesvg_1_1constants.html#a3972655f1dfdc090ec2592d1fb37e87c" target="_top" xlink:title=" ">
<polygon fill="white" stroke="black" points="853.5,-72.5 853.5,-89.5 960.5,-89.5 960.5,-72.5 853.5,-72.5"/>
<text text-anchor="middle" x="907" y="-79.1" font-family="SourceSans" font-size="8.00">svg::constants::quote</text>
</a>
</g>
</g>
<!-- Node14&#45;&gt;Node15 -->
<g id="edge14" class="edge">
<title>Node14&#45;&gt;Node15</title>
<path fill="none" stroke="midnightblue" d="M815.04,-81C824.09,-81 833.64,-81 843.02,-81"/>
<polygon fill="midnightblue" stroke="midnightblue" points="843.1,-84.5 853.1,-81 843.1,-77.5 843.1,-84.5"/>
</g>
<!-- Node16 -->
<g id="node16" class="node">
<title>Node16</title>
<g id="a_node16"><a xlink:href="namespacesvg_1_1constants.html#ac460bc8db60d85c3ae1cf8b1a903405e" target="_top" xlink:title="Formatting constants.">
<polygon fill="white" stroke="black" points="853,-36.5 853,-53.5 961,-53.5 961,-36.5 853,-36.5"/>
<text text-anchor="middle" x="907" y="-43.1" font-family="SourceSans" font-size="8.00">svg::constants::space</text>
</a>
</g>
</g>
<!-- Node14&#45;&gt;Node16 -->
<g id="edge15" class="edge">
<title>Node14&#45;&gt;Node16</title>
<path fill="none" stroke="midnightblue" d="M815.04,-68.31C830.57,-64.33 847.59,-59.97 862.66,-56.1"/>
<polygon fill="midnightblue" stroke="midnightblue" points="863.92,-59.39 872.74,-53.52 862.19,-52.61 863.92,-59.39"/>
</g>
<!-- Node17&#45;&gt;Node15 -->
<g id="edge17" class="edge">
<title>Node17&#45;&gt;Node15</title>
<path fill="none" stroke="midnightblue" d="M794.95,-48.59C815.84,-54.69 844.09,-62.93 866.87,-69.58"/>
<polygon fill="midnightblue" stroke="midnightblue" points="866.01,-72.97 876.59,-72.42 867.97,-66.26 866.01,-72.97"/>
</g>
<!-- Node17&#45;&gt;Node16 -->
<g id="edge18" class="edge">
<title>Node17&#45;&gt;Node16</title>
<path fill="none" stroke="midnightblue" d="M801.32,-41.27C813.88,-41.72 828.39,-42.24 842.53,-42.74"/>
<polygon fill="midnightblue" stroke="midnightblue" points="842.61,-46.25 852.73,-43.1 842.86,-39.25 842.61,-46.25"/>
</g>
<!-- Node18 -->
<g id="node18" class="node">
<title>Node18</title>
<g id="a_node18"><a xlink:href="structsvg_1_1colorq.html#adb55a2a48193fafa55340505862278e4" target="_top" xlink:title=" ">
<polygon fill="white" stroke="black" points="855,-0.5 855,-17.5 959,-17.5 959,-0.5 855,-0.5"/>
<text text-anchor="middle" x="907" y="-7.1" font-family="SourceSans" font-size="8.00">svg::colorq::to_string</text>
</a>
</g>
</g>
<!-- Node17&#45;&gt;Node18 -->
<g id="edge19" class="edge">
<title>Node17&#45;&gt;Node18</title>
<path fill="none" stroke="midnightblue" d="M801.32,-32.1C818.33,-28.34 838.92,-23.8 857.33,-19.74"/>
<polygon fill="midnightblue" stroke="midnightblue" points="858.28,-23.11 867.29,-17.54 856.77,-16.28 858.28,-23.11"/>
</g>
<!-- Node22&#45;&gt;Node9 -->
<g id="edge27" class="edge">
<title>Node22&#45;&gt;Node9</title>
<path fill="none" stroke="midnightblue" d="M502.21,-105.57C520.81,-111.32 545.89,-119.08 568.13,-125.96"/>
<polygon fill="midnightblue" stroke="midnightblue" points="567.2,-129.33 577.78,-128.94 569.26,-122.64 567.2,-129.33"/>
</g>
<!-- Node22&#45;&gt;Node19 -->
<g id="edge28" class="edge">
<title>Node22&#45;&gt;Node19</title>
<path fill="none" stroke="midnightblue" d="M515.81,-97C528.19,-97 542.08,-97 555.59,-97"/>
<polygon fill="midnightblue" stroke="midnightblue" points="555.81,-100.5 565.81,-97 555.8,-93.5 555.81,-100.5"/>
</g>
<!-- Node22&#45;&gt;Node20 -->
<g id="edge29" class="edge">
<title>Node22&#45;&gt;Node20</title>
<path fill="none" stroke="midnightblue" d="M502.21,-88.43C520.81,-82.68 545.89,-74.92 568.13,-68.04"/>
<polygon fill="midnightblue" stroke="midnightblue" points="569.26,-71.36 577.78,-65.06 567.2,-64.67 569.26,-71.36"/>
</g>
<!-- Node22&#45;&gt;Node21 -->
<g id="edge31" class="edge">
<title>Node22&#45;&gt;Node21</title>
<path fill="none" stroke="midnightblue" d="M511.91,-105.52C518.29,-107.96 524.6,-111.06 530,-115 552.12,-131.14 544.48,-148.06 566,-165 567.78,-166.4 569.66,-167.72 571.6,-168.97"/>
<polygon fill="midnightblue" stroke="midnightblue" points="570.07,-172.12 580.5,-173.98 573.5,-166.02 570.07,-172.12"/>
</g>
<!-- Node23 -->
<g id="node23" class="node">
<title>Node23</title>
<g id="a_node23"><a xlink:href="structsvg_1_1transform.html#acf9836f4ba647f0dd2b53963a0f714d0" target="_top" xlink:title=" ">
<polygon fill="white" stroke="black" points="567.5,-2.5 567.5,-19.5 674.5,-19.5 674.5,-2.5 567.5,-2.5"/>
<text text-anchor="middle" x="621" y="-9.1" font-family="SourceSans" font-size="8.00">svg::transform::rotate</text>
</a>
</g>
</g>
<!-- Node22&#45;&gt;Node23 -->
<g id="edge30" class="edge">
<title>Node22&#45;&gt;Node23</title>
<path fill="none" stroke="midnightblue" d="M483.96,-88.34C499.84,-74.2 533.35,-46.01 566,-29 570.21,-26.8 574.75,-24.8 579.34,-22.99"/>
<polygon fill="midnightblue" stroke="midnightblue" points="580.56,-26.27 588.75,-19.55 578.15,-19.69 580.56,-26.27"/>
</g>
<!-- Node24&#45;&gt;Node8 -->
<g id="edge33" class="edge">
<title>Node24&#45;&gt;Node8</title>
<path fill="none" stroke="midnightblue" d="M355,-105.53C376.3,-110.51 403.39,-116.85 426.19,-122.17"/>
<polygon fill="midnightblue" stroke="midnightblue" points="425.47,-125.6 436,-124.47 427.06,-118.78 425.47,-125.6"/>
</g>
<!-- Node24&#45;&gt;Node22 -->
<g id="edge34" class="edge">
<title>Node24&#45;&gt;Node22</title>
<path fill="none" stroke="midnightblue" d="M364.71,-97C382.49,-97 402.9,-97 421.14,-97"/>
<polygon fill="midnightblue" stroke="midnightblue" points="421.3,-100.5 431.3,-97 421.3,-93.5 421.3,-100.5"/>
</g>
</g>
</svg>
        <g id="navigator" transform="translate(0 0)" fill="#404254">
                <rect fill="#f2f5e9" fill-opacity="0.5" stroke="#606060" stroke-width=".5" x="0" y="0" width="60" height="60"/>
                <use id="zoomplus" xlink:href="#zoomPlus" x="17" y="9" onmousedown="handleZoom(evt,'in')"/>
                <use id="zoomminus" xlink:href="#zoomMin" x="42" y="9" onmousedown="handleZoom(evt,'out')"/>
                <use id="reset" xlink:href="#resetDef" x="30" y="36" onmousedown="handleReset()"/>
                <g id="arrowUp" xlink:href="#dirArrow" transform="translate(30 24)" onmousedown="handlePan(0,-1)">
                  <use xlink:href="#rim" fill="#404040">
                        <set attributeName="fill" to="#808080" begin="arrowUp.mouseover" end="arrowUp.mouseout"/>
                  </use>
                  <path fill="none" stroke="white" stroke-width="1.5" d="M0,-3.0v7 M-2.5,-0.5L0,-3.0L2.5,-0.5"/>
                </g>
                <g id="arrowRight" xlink:href="#dirArrow" transform="rotate(90) translate(36 -43)" onmousedown="handlePan(1,0)">
                  <use xlink:href="#rim" fill="#404040">
                        <set attributeName="fill" to="#808080" begin="arrowRight.mouseover" end="arrowRight.mouseout"/>
                  </use>
                  <path fill="none" stroke="white" stroke-width="1.5" d="M0,-3.0v7 M-2.5,-0.5L0,-3.0L2.5,-0.5"/>
                </g>
                <g id="arrowDown" xlink:href="#dirArrow" transform="rotate(180) translate(-30 -48)" onmousedown="handlePan(0,1)">
                  <use xlink:href="#rim" fill="#404040">
                        <set attributeName="fill" to="#808080" begin="arrowDown.mouseover" end="arrowDown.mouseout"/>
                  </use>
                  <path fill="none" stroke="white" stroke-width="1.5" d="M0,-3.0v7 M-2.5,-0.5L0,-3.0L2.5,-0.5"/>
                </g>
                <g id="arrowLeft" xlink:href="#dirArrow" transform="rotate(270) translate(-36 17)" onmousedown="handlePan(-1,0)">
                  <use xlink:href="#rim" fill="#404040">
                        <set attributeName="fill" to="#808080" begin="arrowLeft.mouseover" end="arrowLeft.mouseout"/>
                  </use>
                  <path fill="none" stroke="white" stroke-width="1.5" d="M0,-3.0v7 M-2.5,-0.5L0,-3.0L2.5,-0.5"/>
                </g>
        </g>
        <svg viewBox="0 0 15 15" width="100%" height="30px" preserveAspectRatio="xMaxYMin meet">
         <g id="arrow_out" transform="scale(0.3 0.3)">
          <a xlink:href="namespacesvg_a07c6fad0adddb0908ed4ef00536967c9_cgraph_org.svg" target="_base">
           <rect id="button" ry="5" rx="5" y="6" x="6" height="38" width="38"
                fill="#f2f5e9" fill-opacity="0.5" stroke="#606060" stroke-width="1.0"/>
           <path id="arrow"
             d="M 11.500037,31.436501 C 11.940474,20.09759 22.043105,11.32322 32.158766,21.979434 L 37.068811,17.246167 C 37.068811,17.246167 37.088388,32 37.088388,32 L 22.160133,31.978069 C 22.160133,31.978069 26.997745,27.140456 26.997745,27.140456 C 18.528582,18.264221 13.291696,25.230495 11.500037,31.436501 z"
             style="fill:#404040;"/>
          </a>
         </g>
        </svg>
</svg>
