<?xml version="1.0" encoding="UTF-8" standalone="no"?>
<!DOCTYPE svg PUBLIC "-//W3C//DTD SVG 1.1//EN"
 "http://www.w3.org/Graphics/SVG/1.1/DTD/svg11.dtd">
<!-- Generated by graphviz version 2.44.0 (0)
 -->
<!-- Title: svg::make_path_arc_circumference Pages: 1 -->
<svg width="250pt" height="62pt"
 viewBox="0.00 0.00 250.00 62.00" xmlns="http://www.w3.org/2000/svg" xmlns:xlink="http://www.w3.org/1999/xlink">
<g id="graph0" class="graph" transform="scale(1 1) rotate(0) translate(4 58)">
<title>svg::make_path_arc_circumference</title>
<polygon fill="white" stroke="transparent" points="-4,4 -4,-58 246,-58 246,4 -4,4"/>
<!-- Node1 -->
<g id="node1" class="node">
<title>Node1</title>
<g id="a_node1"><a xlink:title="Make path segment between two points on a circumference of radius r. Points like: get_circumference_p...">
<polygon fill="#bfbfbf" stroke="black" points="0,-14 0,-40 98,-40 98,-14 0,-14"/>
<text text-anchor="start" x="8" y="-29.6" font-family="SourceSans" font-size="8.00">svg::make_path_arc</text>
<text text-anchor="middle" x="49" y="-20.6" font-family="SourceSans" font-size="8.00">_circumference</text>
</a>
</g>
</g>
<!-- Node2 -->
<g id="node2" class="node">
<title>Node2</title>
<g id="a_node2"><a xlink:href="namespacesvg_1_1constants.html#ac460bc8db60d85c3ae1cf8b1a903405e" target="_top" xlink:title="Formatting constants.">
<polygon fill="white" stroke="black" points="134,-36.5 134,-53.5 242,-53.5 242,-36.5 134,-36.5"/>
<text text-anchor="middle" x="188" y="-43.1" font-family="SourceSans" font-size="8.00">svg::constants::space</text>
</a>
</g>
</g>
<!-- Node1&#45;&gt;Node2 -->
<g id="edge1" class="edge">
<title>Node1&#45;&gt;Node2</title>
<path fill="none" stroke="midnightblue" d="M98.3,-33.35C106.41,-34.41 114.93,-35.53 123.35,-36.64"/>
<polygon fill="midnightblue" stroke="midnightblue" points="123.17,-40.14 133.54,-37.98 124.08,-33.2 123.17,-40.14"/>
</g>
<!-- Node3 -->
<g id="node3" class="node">
<title>Node3</title>
<g id="a_node3"><a xlink:href="namespacesvg.html#a36b1c48ad4601b205790e3772ad0a7b6" target="_top" xlink:title=" ">
<polygon fill="white" stroke="black" points="152,-0.5 152,-17.5 224,-17.5 224,-0.5 152,-0.5"/>
<text text-anchor="middle" x="188" y="-7.1" font-family="SourceSans" font-size="8.00">svg::to_string</text>
</a>
</g>
</g>
<!-- Node1&#45;&gt;Node3 -->
<g id="edge2" class="edge">
<title>Node1&#45;&gt;Node3</title>
<path fill="none" stroke="midnightblue" d="M98.3,-20.65C112.3,-18.81 127.53,-16.81 141.36,-15"/>
<polygon fill="midnightblue" stroke="midnightblue" points="142.16,-18.42 151.62,-13.65 141.25,-11.48 142.16,-18.42"/>
</g>
</g>
</svg>
