<?xml version="1.0" encoding="UTF-8" standalone="no"?>
<!DOCTYPE svg PUBLIC "-//W3C//DTD SVG 1.1//EN"
 "http://www.w3.org/Graphics/SVG/1.1/DTD/svg11.dtd">
<!-- Generated by graphviz version 2.44.0 (0)
 -->
<!-- Title: svg::point_2d_to_ring_halo Pages: 1 -->
<!--zoomable 458 -->
<svg id="main" version="1.1" xmlns="http://www.w3.org/2000/svg" xmlns:xlink="http://www.w3.org/1999/xlink" xml:space="preserve" onload="init(evt)">
<style type="text/css"><![CDATA[
.edge:hover path { stroke: red; }
.edge:hover polygon { stroke: red; fill: red; }
]]></style>
<script type="text/javascript"><![CDATA[
var edges = document.getElementsByTagName('g');
if (edges && edges.length) {
  for (var i=0;i<edges.length;i++) {
    if (edges[i].id.substr(0,4)=='edge') {
      edges[i].setAttribute('class','edge');
    }
  }
}
]]></script>
        <defs>
                <circle id="rim" cx="0" cy="0" r="7"/>
                <circle id="rim2" cx="0" cy="0" r="3.5"/>
                <g id="zoomPlus">
                        <use xlink:href="#rim" fill="#404040">
                                <set attributeName="fill" to="#808080" begin="zoomplus.mouseover" end="zoomplus.mouseout"/>
                        </use>
                        <path d="M-4,0h8M0,-4v8" fill="none" stroke="white" stroke-width="1.5" pointer-events="none"/>
                </g>
                <g id="zoomMin">
                        <use xlink:href="#rim" fill="#404040">
                                <set attributeName="fill" to="#808080" begin="zoomminus.mouseover" end="zoomminus.mouseout"/>
                        </use>
                        <path d="M-4,0h8" fill="none" stroke="white" stroke-width="1.5" pointer-events="none"/>
                </g>
                <g id="dirArrow">
                        <path fill="none" stroke="white" stroke-width="1.5" d="M0,-3.0v7 M-2.5,-0.5L0,-3.0L2.5,-0.5"/>
                </g>
               <g id="resetDef">
                       <use xlink:href="#rim2" fill="#404040">
                               <set attributeName="fill" to="#808080" begin="reset.mouseover" end="reset.mouseout"/>
                       </use>
               </g>
        </defs>

<script type="text/javascript">
var viewWidth = 569;
var viewHeight = 458;
var sectionId = 'dynsection-34';
</script>
<script xlink:href="svgpan.js"/>
<svg id="graph" class="graph">
<g id="viewport">
<title>svg::point_2d_to_ring_halo</title>
<polygon fill="white" stroke="transparent" points="-4,4 -4,-454.15 565,-454.15 565,4 -4,4"/>
<!-- Node1 -->
<g id="node1" class="node">
<title>Node1</title>
<g id="a_node1"><a xlink:title="Draws a ring centered at origin of radius r, with outer and inner radial gradient of rspace in each d...">
<polygon fill="#bfbfbf" stroke="black" points="0,-207.15 0,-224.15 125,-224.15 125,-207.15 0,-207.15"/>
<text text-anchor="middle" x="62.5" y="-213.75" font-family="SourceSans" font-size="8.00">svg::point_2d_to_ring_halo</text>
</a>
</g>
</g>
<!-- Node2 -->
<g id="node2" class="node">
<title>Node2</title>
<g id="a_node2"><a xlink:href="group__elements.html#a519382631540ecedee961bfb53e9ae87" target="_top" xlink:title=" ">
<polygon fill="white" stroke="black" points="170,-423.65 170,-449.65 266,-449.65 266,-423.65 170,-423.65"/>
<text text-anchor="start" x="178" y="-439.25" font-family="SourceSans" font-size="8.00">svg::circle_element</text>
<text text-anchor="middle" x="218" y="-430.25" font-family="SourceSans" font-size="8.00">::add_data</text>
</a>
</g>
</g>
<!-- Node1&#45;&gt;Node2 -->
<g id="edge1" class="edge">
<title>Node1&#45;&gt;Node2</title>
<path fill="none" stroke="midnightblue" d="M65.33,-224.15C72.24,-254.42 99.62,-358.06 161,-414.65 162.29,-415.84 163.66,-416.97 165.08,-418.04"/>
<polygon fill="midnightblue" stroke="midnightblue" points="163.44,-421.14 173.75,-423.56 167.19,-415.24 163.44,-421.14"/>
</g>
<!-- Node3 -->
<g id="node3" class="node">
<title>Node3</title>
<g id="a_node3"><a xlink:href="group__elements.html#adb6116b96467cc39cb178deb10c7a869" target="_top" xlink:title=" ">
<polygon fill="white" stroke="black" points="163,-378.65 163,-404.65 273,-404.65 273,-378.65 163,-378.65"/>
<text text-anchor="start" x="171" y="-394.25" font-family="SourceSans" font-size="8.00">svg::svg_element::add</text>
<text text-anchor="middle" x="218" y="-385.25" font-family="SourceSans" font-size="8.00">_element</text>
</a>
</g>
</g>
<!-- Node1&#45;&gt;Node3 -->
<g id="edge2" class="edge">
<title>Node1&#45;&gt;Node3</title>
<path fill="none" stroke="midnightblue" d="M66.71,-224.31C76.67,-250.08 109.52,-327.13 161,-369.65 162.57,-370.94 164.23,-372.17 165.95,-373.33"/>
<polygon fill="midnightblue" stroke="midnightblue" points="164.57,-376.58 174.97,-378.59 168.09,-370.53 164.57,-376.58"/>
</g>
<!-- Node4 -->
<g id="node4" class="node">
<title>Node4</title>
<g id="a_node4"><a xlink:href="group__elements.html#ad2b2143eb9f1e7346802aa079609ea54" target="_top" xlink:title=" ">
<polygon fill="white" stroke="black" points="167.5,-161.65 167.5,-187.65 268.5,-187.65 268.5,-161.65 167.5,-161.65"/>
<text text-anchor="start" x="175.5" y="-177.25" font-family="SourceSans" font-size="8.00">svg::element_base::</text>
<text text-anchor="middle" x="218" y="-168.25" font-family="SourceSans" font-size="8.00">add_fill</text>
</a>
</g>
</g>
<!-- Node1&#45;&gt;Node4 -->
<g id="edge3" class="edge">
<title>Node1&#45;&gt;Node4</title>
<path fill="none" stroke="midnightblue" d="M95.68,-207.05C113.82,-202.21 137.04,-196 158.3,-190.32"/>
<polygon fill="midnightblue" stroke="midnightblue" points="159.47,-193.63 168.23,-187.67 157.66,-186.87 159.47,-193.63"/>
</g>
<!-- Node7 -->
<g id="node7" class="node">
<title>Node7</title>
<g id="a_node7"><a xlink:href="group__elements.html#ga36da34a63a571c7bcc60659e29f4837f" target="_top" xlink:title=" ">
<polygon fill="white" stroke="black" points="169,-333.65 169,-359.65 267,-359.65 267,-333.65 169,-333.65"/>
<text text-anchor="start" x="177" y="-349.25" font-family="SourceSans" font-size="8.00">svg::radial_gradient</text>
<text text-anchor="middle" x="218" y="-340.25" font-family="SourceSans" font-size="8.00">::finish_element</text>
</a>
</g>
</g>
<!-- Node1&#45;&gt;Node7 -->
<g id="edge6" class="edge">
<title>Node1&#45;&gt;Node7</title>
<path fill="none" stroke="midnightblue" d="M69.06,-224.24C82.53,-244.43 118.89,-295.36 161,-324.65 163.14,-326.13 165.39,-327.54 167.72,-328.87"/>
<polygon fill="midnightblue" stroke="midnightblue" points="166.46,-332.15 176.95,-333.59 169.65,-325.92 166.46,-332.15"/>
</g>
<!-- Node11 -->
<g id="node11" class="node">
<title>Node11</title>
<g id="a_node11"><a xlink:href="group__elements.html#ga98a1538c46e39122d8199c12b3a57b5d" target="_top" xlink:title=" ">
<polygon fill="white" stroke="black" points="170,-243.65 170,-269.65 266,-269.65 266,-243.65 170,-243.65"/>
<text text-anchor="start" x="178" y="-259.25" font-family="SourceSans" font-size="8.00">svg::circle_element</text>
<text text-anchor="middle" x="218" y="-250.25" font-family="SourceSans" font-size="8.00">::finish_element</text>
</a>
</g>
</g>
<!-- Node1&#45;&gt;Node11 -->
<g id="edge10" class="edge">
<title>Node1&#45;&gt;Node11</title>
<path fill="none" stroke="midnightblue" d="M95.68,-224.24C114.28,-229.21 138.23,-235.61 159.93,-241.4"/>
<polygon fill="midnightblue" stroke="midnightblue" points="159.14,-244.81 169.71,-244.01 160.95,-238.05 159.14,-244.81"/>
</g>
<!-- Node12 -->
<g id="node12" class="node">
<title>Node12</title>
<g id="a_node12"><a xlink:href="namespacesvg_1_1constants.html#ae42b583ceed2552c466993683f819ef2" target="_top" xlink:title=" ">
<polygon fill="white" stroke="black" points="161,-207.15 161,-224.15 275,-224.15 275,-207.15 161,-207.15"/>
<text text-anchor="middle" x="218" y="-213.75" font-family="SourceSans" font-size="8.00">svg::constants::hyphen</text>
</a>
</g>
</g>
<!-- Node1&#45;&gt;Node12 -->
<g id="edge11" class="edge">
<title>Node1&#45;&gt;Node12</title>
<path fill="none" stroke="midnightblue" d="M125.05,-215.65C133.47,-215.65 142.14,-215.65 150.65,-215.65"/>
<polygon fill="midnightblue" stroke="midnightblue" points="150.9,-219.15 160.9,-215.65 150.9,-212.15 150.9,-219.15"/>
</g>
<!-- Node13 -->
<g id="node13" class="node">
<title>Node13</title>
<g id="a_node13"><a xlink:href="group__elements.html#ac073843c71ce3e18968fd34d7d2649be" target="_top" xlink:title=" ">
<polygon fill="white" stroke="black" points="163.5,-71.65 163.5,-97.65 272.5,-97.65 272.5,-71.65 163.5,-71.65"/>
<text text-anchor="start" x="171.5" y="-87.25" font-family="SourceSans" font-size="8.00">svg::gradient_element</text>
<text text-anchor="middle" x="218" y="-78.25" font-family="SourceSans" font-size="8.00">::offset_percentage</text>
</a>
</g>
</g>
<!-- Node1&#45;&gt;Node13 -->
<g id="edge12" class="edge">
<title>Node1&#45;&gt;Node13</title>
<path fill="none" stroke="midnightblue" d="M69.06,-207.05C82.53,-186.86 118.89,-135.93 161,-106.65 163.14,-105.16 165.39,-103.75 167.72,-102.42"/>
<polygon fill="midnightblue" stroke="midnightblue" points="169.65,-105.37 176.95,-97.7 166.46,-99.14 169.65,-105.37"/>
</g>
<!-- Node14 -->
<g id="node14" class="node">
<title>Node14</title>
<g id="a_node14"><a xlink:href="namespacesvg.html#a36b1c48ad4601b205790e3772ad0a7b6" target="_top" xlink:title=" ">
<polygon fill="white" stroke="black" points="333,-76.15 333,-93.15 405,-93.15 405,-76.15 333,-76.15"/>
<text text-anchor="middle" x="369" y="-82.75" font-family="SourceSans" font-size="8.00">svg::to_string</text>
</a>
</g>
</g>
<!-- Node1&#45;&gt;Node14 -->
<g id="edge25" class="edge">
<title>Node1&#45;&gt;Node14</title>
<path fill="none" stroke="midnightblue" d="M64.6,-206.73C69.17,-174.13 89.83,-61.03 161,-16.65 203.99,10.17 226.84,-0.92 275,-16.65 306.04,-26.78 335.32,-51.65 352.46,-68.34"/>
<polygon fill="midnightblue" stroke="midnightblue" points="350.31,-71.15 359.85,-75.77 355.28,-66.21 350.31,-71.15"/>
</g>
<!-- Node15 -->
<g id="node15" class="node">
<title>Node15</title>
<g id="a_node15"><a xlink:href="group__elements.html#a07790e8550473d1447f5b3b7c97e134e" target="_top" xlink:title=" ">
<polygon fill="white" stroke="black" points="169,-288.65 169,-314.65 267,-314.65 267,-288.65 169,-288.65"/>
<text text-anchor="start" x="177" y="-304.25" font-family="SourceSans" font-size="8.00">svg::radial_gradient</text>
<text text-anchor="middle" x="218" y="-295.25" font-family="SourceSans" font-size="8.00">::start_element</text>
</a>
</g>
</g>
<!-- Node1&#45;&gt;Node15 -->
<g id="edge14" class="edge">
<title>Node1&#45;&gt;Node15</title>
<path fill="none" stroke="midnightblue" d="M75.03,-224.35C92.8,-237.5 128.27,-262.71 161,-279.65 164.3,-281.35 167.77,-283.01 171.29,-284.6"/>
<polygon fill="midnightblue" stroke="midnightblue" points="170.09,-287.9 180.66,-288.64 172.86,-281.47 170.09,-287.9"/>
</g>
<!-- Node18 -->
<g id="node18" class="node">
<title>Node18</title>
<g id="a_node18"><a xlink:href="group__elements.html#a793cb6b40b2aea335b11f14fd327cde8" target="_top" xlink:title=" ">
<polygon fill="white" stroke="black" points="170,-26.65 170,-52.65 266,-52.65 266,-26.65 170,-26.65"/>
<text text-anchor="start" x="178" y="-42.25" font-family="SourceSans" font-size="8.00">svg::circle_element</text>
<text text-anchor="middle" x="218" y="-33.25" font-family="SourceSans" font-size="8.00">::start_element</text>
</a>
</g>
</g>
<!-- Node1&#45;&gt;Node18 -->
<g id="edge19" class="edge">
<title>Node1&#45;&gt;Node18</title>
<path fill="none" stroke="midnightblue" d="M66.71,-206.98C76.67,-181.21 109.52,-104.16 161,-61.65 162.57,-60.35 164.23,-59.12 165.95,-57.96"/>
<polygon fill="midnightblue" stroke="midnightblue" points="168.09,-60.76 174.97,-52.7 164.57,-54.71 168.09,-60.76"/>
</g>
<!-- Node19 -->
<g id="node19" class="node">
<title>Node19</title>
<g id="a_node19"><a xlink:href="group__elements.html#a8b3d9c50124db9e7a5fd86c8a5856119" target="_top" xlink:title=" ">
<polygon fill="white" stroke="black" points="163.5,-116.65 163.5,-142.65 272.5,-142.65 272.5,-116.65 163.5,-116.65"/>
<text text-anchor="start" x="171.5" y="-132.25" font-family="SourceSans" font-size="8.00">svg::gradient_element</text>
<text text-anchor="middle" x="218" y="-123.25" font-family="SourceSans" font-size="8.00">::stop</text>
</a>
</g>
</g>
<!-- Node1&#45;&gt;Node19 -->
<g id="edge20" class="edge">
<title>Node1&#45;&gt;Node19</title>
<path fill="none" stroke="midnightblue" d="M75.38,-206.94C93.32,-194.04 128.67,-169.54 161,-152.65 164.93,-150.59 169.09,-148.59 173.29,-146.68"/>
<polygon fill="midnightblue" stroke="midnightblue" points="174.73,-149.87 182.49,-142.65 171.92,-143.45 174.73,-149.87"/>
</g>
<!-- Node5 -->
<g id="node5" class="node">
<title>Node5</title>
<g id="a_node5"><a xlink:href="namespacesvg_1_1constants.html#a3972655f1dfdc090ec2592d1fb37e87c" target="_top" xlink:title=" ">
<polygon fill="white" stroke="black" points="315.5,-166.15 315.5,-183.15 422.5,-183.15 422.5,-166.15 315.5,-166.15"/>
<text text-anchor="middle" x="369" y="-172.75" font-family="SourceSans" font-size="8.00">svg::constants::quote</text>
</a>
</g>
</g>
<!-- Node4&#45;&gt;Node5 -->
<g id="edge4" class="edge">
<title>Node4&#45;&gt;Node5</title>
<path fill="none" stroke="midnightblue" d="M268.61,-174.65C280.32,-174.65 292.95,-174.65 305.16,-174.65"/>
<polygon fill="midnightblue" stroke="midnightblue" points="305.28,-178.15 315.28,-174.65 305.28,-171.15 305.28,-178.15"/>
</g>
<!-- Node6 -->
<g id="node6" class="node">
<title>Node6</title>
<g id="a_node6"><a xlink:href="namespacesvg_1_1constants.html#ac460bc8db60d85c3ae1cf8b1a903405e" target="_top" xlink:title="Formatting constants.">
<polygon fill="white" stroke="black" points="315,-125.15 315,-142.15 423,-142.15 423,-125.15 315,-125.15"/>
<text text-anchor="middle" x="369" y="-131.75" font-family="SourceSans" font-size="8.00">svg::constants::space</text>
</a>
</g>
</g>
<!-- Node4&#45;&gt;Node6 -->
<g id="edge5" class="edge">
<title>Node4&#45;&gt;Node6</title>
<path fill="none" stroke="midnightblue" d="M266.55,-161.56C286.05,-156.2 308.38,-150.05 327.13,-144.89"/>
<polygon fill="midnightblue" stroke="midnightblue" points="328.13,-148.25 336.85,-142.22 326.28,-141.5 328.13,-148.25"/>
</g>
<!-- Node8 -->
<g id="node8" class="node">
<title>Node8</title>
<g id="a_node8"><a xlink:href="group__elements.html#ga125b2e74fba965eab59558efca073ffb" target="_top" xlink:title=" ">
<polygon fill="white" stroke="black" points="314.5,-333.65 314.5,-359.65 423.5,-359.65 423.5,-333.65 314.5,-333.65"/>
<text text-anchor="start" x="322.5" y="-349.25" font-family="SourceSans" font-size="8.00">svg::gradient_element</text>
<text text-anchor="middle" x="369" y="-340.25" font-family="SourceSans" font-size="8.00">::finish_element</text>
</a>
</g>
</g>
<!-- Node7&#45;&gt;Node8 -->
<g id="edge7" class="edge">
<title>Node7&#45;&gt;Node8</title>
<path fill="none" stroke="midnightblue" d="M267.38,-346.65C279.13,-346.65 291.87,-346.65 304.21,-346.65"/>
<polygon fill="midnightblue" stroke="midnightblue" points="304.46,-350.15 314.46,-346.65 304.46,-343.15 304.46,-350.15"/>
</g>
<!-- Node10 -->
<g id="node10" class="node">
<title>Node10</title>
<g id="a_node10"><a xlink:href="namespacesvg_1_1constants.html#aa7f04c2ea699a1b1e2e790de5ac33f38" target="_top" xlink:title=" ">
<polygon fill="white" stroke="black" points="311,-295.15 311,-312.15 427,-312.15 427,-295.15 311,-295.15"/>
<text text-anchor="middle" x="369" y="-301.75" font-family="SourceSans" font-size="8.00">svg::constants::newline</text>
</a>
</g>
</g>
<!-- Node7&#45;&gt;Node10 -->
<g id="edge9" class="edge">
<title>Node7&#45;&gt;Node10</title>
<path fill="none" stroke="midnightblue" d="M264.11,-333.63C284.63,-327.71 308.68,-320.76 328.48,-315.05"/>
<polygon fill="midnightblue" stroke="midnightblue" points="329.47,-318.41 338.11,-312.27 327.53,-311.68 329.47,-318.41"/>
</g>
<!-- Node9 -->
<g id="node9" class="node">
<title>Node9</title>
<g id="a_node9"><a xlink:href="group__elements.html#ga503ee2895588a6c684e2b1614cf4e73d" target="_top" xlink:title=" ">
<polygon fill="white" stroke="black" points="463,-333.65 463,-359.65 561,-359.65 561,-333.65 463,-333.65"/>
<text text-anchor="start" x="471" y="-349.25" font-family="SourceSans" font-size="8.00">svg::defs_element::</text>
<text text-anchor="middle" x="512" y="-340.25" font-family="SourceSans" font-size="8.00">finish_element</text>
</a>
</g>
</g>
<!-- Node8&#45;&gt;Node9 -->
<g id="edge8" class="edge">
<title>Node8&#45;&gt;Node9</title>
<path fill="none" stroke="midnightblue" d="M423.71,-346.65C433.2,-346.65 443.11,-346.65 452.72,-346.65"/>
<polygon fill="midnightblue" stroke="midnightblue" points="452.99,-350.15 462.99,-346.65 452.99,-343.15 452.99,-350.15"/>
</g>
<!-- Node13&#45;&gt;Node14 -->
<g id="edge13" class="edge">
<title>Node13&#45;&gt;Node14</title>
<path fill="none" stroke="midnightblue" d="M272.79,-84.65C289.2,-84.65 307.07,-84.65 322.85,-84.65"/>
<polygon fill="midnightblue" stroke="midnightblue" points="322.88,-88.15 332.88,-84.65 322.88,-81.15 322.88,-88.15"/>
</g>
<!-- Node15&#45;&gt;Node5 -->
<g id="edge16" class="edge">
<title>Node15&#45;&gt;Node5</title>
<path fill="none" stroke="midnightblue" d="M259.06,-288.62C264.64,-286.04 270.12,-283.06 275,-279.65 279.77,-276.31 329.26,-219.43 354.03,-190.81"/>
<polygon fill="midnightblue" stroke="midnightblue" points="356.68,-193.1 360.58,-183.24 351.39,-188.52 356.68,-193.1"/>
</g>
<!-- Node15&#45;&gt;Node10 -->
<g id="edge15" class="edge">
<title>Node15&#45;&gt;Node10</title>
<path fill="none" stroke="midnightblue" d="M267.38,-302.29C277.98,-302.44 289.39,-302.59 300.59,-302.74"/>
<polygon fill="midnightblue" stroke="midnightblue" points="300.74,-306.24 310.78,-302.88 300.83,-299.24 300.74,-306.24"/>
</g>
<!-- Node16 -->
<g id="node16" class="node">
<title>Node16</title>
<g id="a_node16"><a xlink:href="group__elements.html#aeff87acc0c098e1c329a0fd01605c56f" target="_top" xlink:title=" ">
<polygon fill="white" stroke="black" points="314.5,-249.65 314.5,-275.65 423.5,-275.65 423.5,-249.65 314.5,-249.65"/>
<text text-anchor="start" x="322.5" y="-265.25" font-family="SourceSans" font-size="8.00">svg::gradient_element</text>
<text text-anchor="middle" x="369" y="-256.25" font-family="SourceSans" font-size="8.00">::start_element</text>
</a>
</g>
</g>
<!-- Node15&#45;&gt;Node16 -->
<g id="edge17" class="edge">
<title>Node15&#45;&gt;Node16</title>
<path fill="none" stroke="midnightblue" d="M267.38,-288.98C280.44,-285.56 294.72,-281.83 308.32,-278.27"/>
<polygon fill="midnightblue" stroke="midnightblue" points="309.29,-281.63 318.08,-275.71 307.52,-274.86 309.29,-281.63"/>
</g>
<!-- Node17 -->
<g id="node17" class="node">
<title>Node17</title>
<g id="a_node17"><a xlink:href="group__elements.html#a948868c6f5dea784ded14c26cc1d2139" target="_top" xlink:title=" ">
<polygon fill="white" stroke="black" points="463,-249.65 463,-275.65 561,-275.65 561,-249.65 463,-249.65"/>
<text text-anchor="start" x="471" y="-265.25" font-family="SourceSans" font-size="8.00">svg::defs_element::</text>
<text text-anchor="middle" x="512" y="-256.25" font-family="SourceSans" font-size="8.00">start_element</text>
</a>
</g>
</g>
<!-- Node16&#45;&gt;Node17 -->
<g id="edge18" class="edge">
<title>Node16&#45;&gt;Node17</title>
<path fill="none" stroke="midnightblue" d="M423.71,-262.65C433.2,-262.65 443.11,-262.65 452.72,-262.65"/>
<polygon fill="midnightblue" stroke="midnightblue" points="452.99,-266.15 462.99,-262.65 452.99,-259.15 452.99,-266.15"/>
</g>
<!-- Node19&#45;&gt;Node5 -->
<g id="edge22" class="edge">
<title>Node19&#45;&gt;Node5</title>
<path fill="none" stroke="midnightblue" d="M262.1,-142.66C283.52,-149.13 309.18,-156.88 329.87,-163.13"/>
<polygon fill="midnightblue" stroke="midnightblue" points="329.01,-166.53 339.59,-166.07 331.03,-159.82 329.01,-166.53"/>
</g>
<!-- Node19&#45;&gt;Node6 -->
<g id="edge23" class="edge">
<title>Node19&#45;&gt;Node6</title>
<path fill="none" stroke="midnightblue" d="M272.79,-131.09C283.15,-131.37 294.09,-131.66 304.72,-131.95"/>
<polygon fill="midnightblue" stroke="midnightblue" points="304.7,-135.45 314.79,-132.22 304.88,-128.45 304.7,-135.45"/>
</g>
<!-- Node19&#45;&gt;Node10 -->
<g id="edge21" class="edge">
<title>Node19&#45;&gt;Node10</title>
<path fill="none" stroke="midnightblue" d="M262.67,-142.7C267.27,-145.42 271.52,-148.7 275,-152.65 315.5,-198.57 268.61,-241.45 311,-285.65 312.43,-287.13 313.98,-288.5 315.62,-289.75"/>
<polygon fill="midnightblue" stroke="midnightblue" points="314.13,-292.94 324.5,-295.13 317.76,-286.95 314.13,-292.94"/>
</g>
<!-- Node19&#45;&gt;Node14 -->
<g id="edge24" class="edge">
<title>Node19&#45;&gt;Node14</title>
<path fill="none" stroke="midnightblue" d="M262.1,-116.63C283.52,-110.16 309.18,-102.41 329.87,-96.16"/>
<polygon fill="midnightblue" stroke="midnightblue" points="331.03,-99.47 339.59,-93.22 329.01,-92.77 331.03,-99.47"/>
</g>
</g>
</svg>
        <g id="navigator" transform="translate(0 0)" fill="#404254">
                <rect fill="#f2f5e9" fill-opacity="0.5" stroke="#606060" stroke-width=".5" x="0" y="0" width="60" height="60"/>
                <use id="zoomplus" xlink:href="#zoomPlus" x="17" y="9" onmousedown="handleZoom(evt,'in')"/>
                <use id="zoomminus" xlink:href="#zoomMin" x="42" y="9" onmousedown="handleZoom(evt,'out')"/>
                <use id="reset" xlink:href="#resetDef" x="30" y="36" onmousedown="handleReset()"/>
                <g id="arrowUp" xlink:href="#dirArrow" transform="translate(30 24)" onmousedown="handlePan(0,-1)">
                  <use xlink:href="#rim" fill="#404040">
                        <set attributeName="fill" to="#808080" begin="arrowUp.mouseover" end="arrowUp.mouseout"/>
                  </use>
                  <path fill="none" stroke="white" stroke-width="1.5" d="M0,-3.0v7 M-2.5,-0.5L0,-3.0L2.5,-0.5"/>
                </g>
                <g id="arrowRight" xlink:href="#dirArrow" transform="rotate(90) translate(36 -43)" onmousedown="handlePan(1,0)">
                  <use xlink:href="#rim" fill="#404040">
                        <set attributeName="fill" to="#808080" begin="arrowRight.mouseover" end="arrowRight.mouseout"/>
                  </use>
                  <path fill="none" stroke="white" stroke-width="1.5" d="M0,-3.0v7 M-2.5,-0.5L0,-3.0L2.5,-0.5"/>
                </g>
                <g id="arrowDown" xlink:href="#dirArrow" transform="rotate(180) translate(-30 -48)" onmousedown="handlePan(0,1)">
                  <use xlink:href="#rim" fill="#404040">
                        <set attributeName="fill" to="#808080" begin="arrowDown.mouseover" end="arrowDown.mouseout"/>
                  </use>
                  <path fill="none" stroke="white" stroke-width="1.5" d="M0,-3.0v7 M-2.5,-0.5L0,-3.0L2.5,-0.5"/>
                </g>
                <g id="arrowLeft" xlink:href="#dirArrow" transform="rotate(270) translate(-36 17)" onmousedown="handlePan(-1,0)">
                  <use xlink:href="#rim" fill="#404040">
                        <set attributeName="fill" to="#808080" begin="arrowLeft.mouseover" end="arrowLeft.mouseout"/>
                  </use>
                  <path fill="none" stroke="white" stroke-width="1.5" d="M0,-3.0v7 M-2.5,-0.5L0,-3.0L2.5,-0.5"/>
                </g>
        </g>
        <svg viewBox="0 0 15 15" width="100%" height="30px" preserveAspectRatio="xMaxYMin meet">
         <g id="arrow_out" transform="scale(0.3 0.3)">
          <a xlink:href="namespacesvg_a72469c0b4bf6e70ab9a397573d76f04a_cgraph_org.svg" target="_base">
           <rect id="button" ry="5" rx="5" y="6" x="6" height="38" width="38"
                fill="#f2f5e9" fill-opacity="0.5" stroke="#606060" stroke-width="1.0"/>
           <path id="arrow"
             d="M 11.500037,31.436501 C 11.940474,20.09759 22.043105,11.32322 32.158766,21.979434 L 37.068811,17.246167 C 37.068811,17.246167 37.088388,32 37.088388,32 L 22.160133,31.978069 C 22.160133,31.978069 26.997745,27.140456 26.997745,27.140456 C 18.528582,18.264221 13.291696,25.230495 11.500037,31.436501 z"
             style="fill:#404040;"/>
          </a>
         </g>
        </svg>
</svg>
