<?xml version="1.0" encoding="UTF-8" standalone="no"?>
<!DOCTYPE svg PUBLIC "-//W3C//DTD SVG 1.1//EN"
 "http://www.w3.org/Graphics/SVG/1.1/DTD/svg11.dtd">
<!-- Generated by graphviz version 2.44.0 (0)
 -->
<!-- Title: svg::direction_arc_title_at Pages: 1 -->
<svg width="548pt" height="573pt"
 viewBox="0.00 0.00 548.00 573.49" xmlns="http://www.w3.org/2000/svg" xmlns:xlink="http://www.w3.org/1999/xlink">
<g id="graph0" class="graph" transform="scale(1 1) rotate(0) translate(4 569.49)">
<title>svg::direction_arc_title_at</title>
<polygon fill="white" stroke="transparent" points="-4,4 -4,-569.49 544,-569.49 544,4 -4,4"/>
<!-- Node1 -->
<g id="node1" class="node">
<title>Node1</title>
<g id="a_node1"><a xlink:title="Title on same arc.">
<polygon fill="#bfbfbf" stroke="black" points="0,-231 0,-257 89,-257 89,-231 0,-231"/>
<text text-anchor="start" x="8" y="-246.6" font-family="SourceSans" font-size="8.00">svg::direction_arc</text>
<text text-anchor="middle" x="44.5" y="-237.6" font-family="SourceSans" font-size="8.00">_title_at</text>
</a>
</g>
</g>
<!-- Node2 -->
<g id="node2" class="node">
<title>Node2</title>
<g id="a_node2"><a xlink:href="group__elements.html#a807f3c30f2ace338ad10aaf230b47665" target="_top" xlink:title="Either serialize immediately (as below), or create data structure that adds data to data_vec and then...">
<polygon fill="white" stroke="black" points="136.5,-473 136.5,-499 235.5,-499 235.5,-473 136.5,-473"/>
<text text-anchor="start" x="144.5" y="-488.6" font-family="SourceSans" font-size="8.00">svg::path_element::</text>
<text text-anchor="middle" x="186" y="-479.6" font-family="SourceSans" font-size="8.00">add_data</text>
</a>
</g>
</g>
<!-- Node1&#45;&gt;Node2 -->
<g id="edge1" class="edge">
<title>Node1&#45;&gt;Node2</title>
<path fill="none" stroke="midnightblue" d="M46.48,-257.17C49.95,-294.76 64.98,-403.7 125,-464 126.08,-465.08 127.21,-466.11 128.39,-467.09"/>
<polygon fill="midnightblue" stroke="midnightblue" points="126.57,-470.08 136.79,-472.84 130.52,-464.31 126.57,-470.08"/>
</g>
<!-- Node3 -->
<g id="node3" class="node">
<title>Node3</title>
<g id="a_node3"><a xlink:href="group__elements.html#a87be030b88c17a86a690b31e95b60612" target="_top" xlink:title="Either serialize immediately (as below), or create data structure that adds data to data_vec and then...">
<polygon fill="white" stroke="black" points="138.5,-428 138.5,-454 233.5,-454 233.5,-428 138.5,-428"/>
<text text-anchor="start" x="146.5" y="-443.6" font-family="SourceSans" font-size="8.00">svg::text_element::</text>
<text text-anchor="middle" x="186" y="-434.6" font-family="SourceSans" font-size="8.00">add_data</text>
</a>
</g>
</g>
<!-- Node1&#45;&gt;Node3 -->
<g id="edge2" class="edge">
<title>Node1&#45;&gt;Node3</title>
<path fill="none" stroke="midnightblue" d="M48.43,-257.21C55.93,-288.27 78.62,-366.76 125,-413 128.72,-416.71 133.03,-419.99 137.59,-422.87"/>
<polygon fill="midnightblue" stroke="midnightblue" points="136.16,-426.08 146.59,-427.93 139.59,-419.98 136.16,-426.08"/>
</g>
<!-- Node13 -->
<g id="node13" class="node">
<title>Node13</title>
<g id="a_node13"><a xlink:href="group__elements.html#adb6116b96467cc39cb178deb10c7a869" target="_top" xlink:title=" ">
<polygon fill="white" stroke="black" points="131,-299 131,-325 241,-325 241,-299 131,-299"/>
<text text-anchor="start" x="139" y="-314.6" font-family="SourceSans" font-size="8.00">svg::svg_element::add</text>
<text text-anchor="middle" x="186" y="-305.6" font-family="SourceSans" font-size="8.00">_element</text>
</a>
</g>
</g>
<!-- Node1&#45;&gt;Node13 -->
<g id="edge17" class="edge">
<title>Node1&#45;&gt;Node13</title>
<path fill="none" stroke="midnightblue" d="M65.89,-257.12C81.65,-266.92 104.21,-280.26 125,-290 128.79,-291.77 132.76,-293.5 136.78,-295.16"/>
<polygon fill="midnightblue" stroke="midnightblue" points="135.6,-298.46 146.19,-298.89 138.18,-291.95 135.6,-298.46"/>
</g>
<!-- Node14 -->
<g id="node14" class="node">
<title>Node14</title>
<g id="a_node14"><a xlink:href="group__elements.html#a238b38ca99a1cf6c2baf80c8e4338d99" target="_top" xlink:title=" ">
<polygon fill="white" stroke="black" points="135.5,-344 135.5,-370 236.5,-370 236.5,-344 135.5,-344"/>
<text text-anchor="start" x="143.5" y="-359.6" font-family="SourceSans" font-size="8.00">svg::element_base::</text>
<text text-anchor="middle" x="186" y="-350.6" font-family="SourceSans" font-size="8.00">add_style</text>
</a>
</g>
</g>
<!-- Node1&#45;&gt;Node14 -->
<g id="edge18" class="edge">
<title>Node1&#45;&gt;Node14</title>
<path fill="none" stroke="midnightblue" d="M53.91,-257.32C66.92,-276.91 93.71,-313.49 125,-335 127.24,-336.54 129.6,-337.98 132.03,-339.34"/>
<polygon fill="midnightblue" stroke="midnightblue" points="130.59,-342.53 141.11,-343.86 133.72,-336.27 130.59,-342.53"/>
</g>
<!-- Node15 -->
<g id="node15" class="node">
<title>Node15</title>
<g id="a_node15"><a xlink:href="group__elements.html#ga13c46848317034d16c62a7d2061ba3d6" target="_top" xlink:title=" ">
<polygon fill="white" stroke="black" points="138.5,-254 138.5,-280 233.5,-280 233.5,-254 138.5,-254"/>
<text text-anchor="start" x="146.5" y="-269.6" font-family="SourceSans" font-size="8.00">svg::text_element::</text>
<text text-anchor="middle" x="186" y="-260.6" font-family="SourceSans" font-size="8.00">finish_element</text>
</a>
</g>
</g>
<!-- Node1&#45;&gt;Node15 -->
<g id="edge20" class="edge">
<title>Node1&#45;&gt;Node15</title>
<path fill="none" stroke="midnightblue" d="M89.26,-251.21C101.49,-253.23 114.96,-255.45 127.85,-257.58"/>
<polygon fill="midnightblue" stroke="midnightblue" points="127.58,-261.08 138.02,-259.25 128.72,-254.17 127.58,-261.08"/>
</g>
<!-- Node16 -->
<g id="node16" class="node">
<title>Node16</title>
<g id="a_node16"><a xlink:href="group__elements.html#gaac30ae99fb1a2542688fa1ffb43cd8e1" target="_top" xlink:title=" ">
<polygon fill="white" stroke="black" points="136.5,-209 136.5,-235 235.5,-235 235.5,-209 136.5,-209"/>
<text text-anchor="start" x="144.5" y="-224.6" font-family="SourceSans" font-size="8.00">svg::path_element::</text>
<text text-anchor="middle" x="186" y="-215.6" font-family="SourceSans" font-size="8.00">finish_element</text>
</a>
</g>
</g>
<!-- Node1&#45;&gt;Node16 -->
<g id="edge21" class="edge">
<title>Node1&#45;&gt;Node16</title>
<path fill="none" stroke="midnightblue" d="M89.26,-237.1C100.87,-235.27 113.6,-233.26 125.88,-231.32"/>
<polygon fill="midnightblue" stroke="midnightblue" points="126.73,-234.73 136.06,-229.72 125.63,-227.82 126.73,-234.73"/>
</g>
<!-- Node17 -->
<g id="node17" class="node">
<title>Node17</title>
<g id="a_node17"><a xlink:href="namespacesvg.html#ab44508c4aeca591141ebec50145b75cd" target="_top" xlink:title="Angle in degrees.">
<polygon fill="white" stroke="black" points="129.5,-164 129.5,-190 242.5,-190 242.5,-164 129.5,-164"/>
<text text-anchor="start" x="137.5" y="-179.6" font-family="SourceSans" font-size="8.00">svg::get_circumference</text>
<text text-anchor="middle" x="186" y="-170.6" font-family="SourceSans" font-size="8.00">_point_d</text>
</a>
</g>
</g>
<!-- Node1&#45;&gt;Node17 -->
<g id="edge22" class="edge">
<title>Node1&#45;&gt;Node17</title>
<path fill="none" stroke="midnightblue" d="M67.34,-230.83C83.08,-221.61 104.98,-209.32 125,-200 129.44,-197.93 134.13,-195.89 138.84,-193.94"/>
<polygon fill="midnightblue" stroke="midnightblue" points="140.52,-197.04 148.49,-190.06 137.91,-190.55 140.52,-197.04"/>
</g>
<!-- Node20 -->
<g id="node20" class="node">
<title>Node20</title>
<g id="a_node20"><a xlink:href="namespacesvg.html#a694806659ebf061e616b8a0b49a53f40" target="_top" xlink:title=" ">
<polygon fill="white" stroke="black" points="133.5,-127.5 133.5,-144.5 238.5,-144.5 238.5,-127.5 133.5,-127.5"/>
<text text-anchor="middle" x="186" y="-134.1" font-family="SourceSans" font-size="8.00">svg::get_radial_range</text>
</a>
</g>
</g>
<!-- Node1&#45;&gt;Node20 -->
<g id="edge25" class="edge">
<title>Node1&#45;&gt;Node20</title>
<path fill="none" stroke="midnightblue" d="M53.87,-230.8C66.81,-211.43 93.51,-175.37 125,-155 128.87,-152.5 133.1,-150.3 137.46,-148.38"/>
<polygon fill="midnightblue" stroke="midnightblue" points="139.08,-151.5 147.12,-144.6 136.53,-144.98 139.08,-151.5"/>
</g>
<!-- Node21 -->
<g id="node21" class="node">
<title>Node21</title>
<g id="a_node21"><a xlink:href="namespacesvg.html#ab1741538593b42c68b0334c90d1b0ff5" target="_top" xlink:title="Make path segment between two points on a circumference of radius r. Points like: get_circumference_p...">
<polygon fill="white" stroke="black" points="290.5,-386 290.5,-412 388.5,-412 388.5,-386 290.5,-386"/>
<text text-anchor="start" x="298.5" y="-401.6" font-family="SourceSans" font-size="8.00">svg::make_path_arc</text>
<text text-anchor="middle" x="339.5" y="-392.6" font-family="SourceSans" font-size="8.00">_circumference</text>
</a>
</g>
</g>
<!-- Node1&#45;&gt;Node21 -->
<g id="edge26" class="edge">
<title>Node1&#45;&gt;Node21</title>
<path fill="none" stroke="midnightblue" d="M48.85,-257.31C56.72,-285.5 79.27,-350.99 125,-380 171.16,-409.28 234.64,-411.21 280.36,-407.54"/>
<polygon fill="midnightblue" stroke="midnightblue" points="280.78,-411.02 290.42,-406.62 280.14,-404.05 280.78,-411.02"/>
</g>
<!-- Node22 -->
<g id="node22" class="node">
<title>Node22</title>
<g id="a_node22"><a xlink:href="group__elements.html#ae45bec611a6ec17ea46aab6d680ae042" target="_top" xlink:title=" ">
<polygon fill="white" stroke="black" points="138.5,-82 138.5,-108 233.5,-108 233.5,-82 138.5,-82"/>
<text text-anchor="start" x="146.5" y="-97.6" font-family="SourceSans" font-size="8.00">svg::text_element::</text>
<text text-anchor="middle" x="186" y="-88.6" font-family="SourceSans" font-size="8.00">start_element</text>
</a>
</g>
</g>
<!-- Node1&#45;&gt;Node22 -->
<g id="edge29" class="edge">
<title>Node1&#45;&gt;Node22</title>
<path fill="none" stroke="midnightblue" d="M50.56,-230.62C60.82,-205.2 86.4,-149.66 125,-118 127.22,-116.18 129.61,-114.49 132.1,-112.92"/>
<polygon fill="midnightblue" stroke="midnightblue" points="133.82,-115.97 140.89,-108.07 130.44,-109.84 133.82,-115.97"/>
</g>
<!-- Node23 -->
<g id="node23" class="node">
<title>Node23</title>
<g id="a_node23"><a xlink:href="group__elements.html#a6dbca7cef2cbc0c10aa44c44ae20b36e" target="_top" xlink:title=" ">
<polygon fill="white" stroke="black" points="136.5,-37 136.5,-63 235.5,-63 235.5,-37 136.5,-37"/>
<text text-anchor="start" x="144.5" y="-52.6" font-family="SourceSans" font-size="8.00">svg::path_element::</text>
<text text-anchor="middle" x="186" y="-43.6" font-family="SourceSans" font-size="8.00">start_element</text>
</a>
</g>
</g>
<!-- Node1&#45;&gt;Node23 -->
<g id="edge30" class="edge">
<title>Node1&#45;&gt;Node23</title>
<path fill="none" stroke="midnightblue" d="M48,-230.76C54.68,-198.89 75.89,-117.26 125,-72 126.29,-70.81 127.65,-69.69 129.07,-68.62"/>
<polygon fill="midnightblue" stroke="midnightblue" points="131.13,-71.46 137.69,-63.14 127.37,-65.55 131.13,-71.46"/>
</g>
<!-- Node24 -->
<g id="node24" class="node">
<title>Node24</title>
<g id="a_node24"><a xlink:href="namespacesvg.html#a46164d75fd5109e4ed8879abbacd5c11" target="_top" xlink:title="Zero degrees is top, going clockwise (cw).">
<polygon fill="white" stroke="black" points="125,-0.5 125,-17.5 247,-17.5 247,-0.5 125,-0.5"/>
<text text-anchor="middle" x="186" y="-7.1" font-family="SourceSans" font-size="8.00">svg::zero_angle_north_cw</text>
</a>
</g>
</g>
<!-- Node1&#45;&gt;Node24 -->
<g id="edge31" class="edge">
<title>Node1&#45;&gt;Node24</title>
<path fill="none" stroke="midnightblue" d="M46.36,-230.83C49.53,-193.27 63.82,-84.64 125,-27 126.7,-25.39 128.55,-23.93 130.49,-22.6"/>
<polygon fill="midnightblue" stroke="midnightblue" points="132.53,-25.47 139.56,-17.55 129.12,-19.35 132.53,-25.47"/>
</g>
<!-- Node4 -->
<g id="node4" class="node">
<title>Node4</title>
<g id="a_node4"><a xlink:href="structsvg_1_1typography.html#a70f61596bba3e0bd67b43a8fc553dbfa" target="_top" xlink:title=" ">
<polygon fill="white" stroke="black" points="287,-508 287,-534 392,-534 392,-508 287,-508"/>
<text text-anchor="start" x="295" y="-523.6" font-family="SourceSans" font-size="8.00">svg::typography::add</text>
<text text-anchor="middle" x="339.5" y="-514.6" font-family="SourceSans" font-size="8.00">_attribute</text>
</a>
</g>
</g>
<!-- Node3&#45;&gt;Node4 -->
<g id="edge3" class="edge">
<title>Node3&#45;&gt;Node4</title>
<path fill="none" stroke="midnightblue" d="M226.23,-454C233.32,-456.92 240.52,-460.27 247,-464 264.81,-474.25 265.73,-481.87 283,-493 288.48,-496.53 294.46,-499.95 300.4,-503.12"/>
<polygon fill="midnightblue" stroke="midnightblue" points="299.13,-506.41 309.63,-507.87 302.34,-500.18 299.13,-506.41"/>
</g>
<!-- Node5 -->
<g id="node5" class="node">
<title>Node5</title>
<g id="a_node5"><a xlink:href="namespacesvg.html#a48ac748e89e22789d1772326a98dd7b6" target="_top" xlink:title=" ">
<polygon fill="white" stroke="black" points="438.5,-481.5 438.5,-498.5 533.5,-498.5 533.5,-481.5 438.5,-481.5"/>
<text text-anchor="middle" x="486" y="-488.1" font-family="SourceSans" font-size="8.00">svg::string_replace</text>
</a>
</g>
</g>
<!-- Node3&#45;&gt;Node5 -->
<g id="edge14" class="edge">
<title>Node3&#45;&gt;Node5</title>
<path fill="none" stroke="midnightblue" d="M233.56,-448.66C286.11,-457.3 371.61,-471.36 428.08,-480.64"/>
<polygon fill="midnightblue" stroke="midnightblue" points="427.84,-484.15 438.27,-482.32 428.97,-477.24 427.84,-484.15"/>
</g>
<!-- Node6 -->
<g id="node6" class="node">
<title>Node6</title>
<g id="a_node6"><a xlink:href="structsvg_1_1typography.html#a174c1ffb4e56214d71523ffe7e422561" target="_top" xlink:title=" ">
<polygon fill="white" stroke="black" points="437,-529 437,-555 535,-555 535,-529 437,-529"/>
<text text-anchor="start" x="445" y="-544.6" font-family="SourceSans" font-size="8.00">svg::typography::to</text>
<text text-anchor="middle" x="486" y="-535.6" font-family="SourceSans" font-size="8.00">_string</text>
</a>
</g>
</g>
<!-- Node3&#45;&gt;Node6 -->
<g id="edge15" class="edge">
<title>Node3&#45;&gt;Node6</title>
<path fill="none" stroke="midnightblue" d="M232.85,-454.11C238,-456.83 242.86,-460.09 247,-464 275.34,-490.78 250.26,-522.83 283,-544 327.26,-572.62 389.18,-566.95 432.76,-557.38"/>
<polygon fill="midnightblue" stroke="midnightblue" points="433.65,-560.77 442.59,-555.09 432.06,-553.95 433.65,-560.77"/>
</g>
<!-- Node7 -->
<g id="node7" class="node">
<title>Node7</title>
<g id="a_node7"><a xlink:href="namespacesvg.html#a36b1c48ad4601b205790e3772ad0a7b6" target="_top" xlink:title=" ">
<polygon fill="white" stroke="black" points="450,-432.5 450,-449.5 522,-449.5 522,-432.5 450,-432.5"/>
<text text-anchor="middle" x="486" y="-439.1" font-family="SourceSans" font-size="8.00">svg::to_string</text>
</a>
</g>
</g>
<!-- Node3&#45;&gt;Node7 -->
<g id="edge16" class="edge">
<title>Node3&#45;&gt;Node7</title>
<path fill="none" stroke="midnightblue" d="M233.56,-441C289.85,-441 383.93,-441 439.66,-441"/>
<polygon fill="midnightblue" stroke="midnightblue" points="439.94,-444.5 449.94,-441 439.94,-437.5 439.94,-444.5"/>
</g>
<!-- Node8 -->
<g id="node8" class="node">
<title>Node8</title>
<g id="a_node8"><a xlink:href="group__elements.html#a53d72a7ff728ad1d4d027254530bcf3d" target="_top" xlink:title="Common transforms include rotate(180)">
<polygon fill="white" stroke="black" points="289,-341 289,-367 390,-367 390,-341 289,-341"/>
<text text-anchor="start" x="297" y="-356.6" font-family="SourceSans" font-size="8.00">svg::element_base::</text>
<text text-anchor="middle" x="339.5" y="-347.6" font-family="SourceSans" font-size="8.00">add_transform</text>
</a>
</g>
</g>
<!-- Node3&#45;&gt;Node8 -->
<g id="edge7" class="edge">
<title>Node3&#45;&gt;Node8</title>
<path fill="none" stroke="midnightblue" d="M204.4,-427.89C223.15,-414.12 254.2,-392.38 283,-377 286.73,-375.01 290.66,-373.07 294.65,-371.23"/>
<polygon fill="midnightblue" stroke="midnightblue" points="296.25,-374.34 303.97,-367.08 293.41,-367.95 296.25,-374.34"/>
</g>
<!-- Node11 -->
<g id="node11" class="node">
<title>Node11</title>
<g id="a_node11"><a xlink:href="structsvg_1_1style.html#a724baeff8a062d71724ea2eeece5c6a3" target="_top" xlink:title=" ">
<polygon fill="white" stroke="black" points="303,-304.5 303,-321.5 376,-321.5 376,-304.5 303,-304.5"/>
<text text-anchor="middle" x="339.5" y="-311.1" font-family="SourceSans" font-size="8.00">svg::style::str</text>
</a>
</g>
</g>
<!-- Node3&#45;&gt;Node11 -->
<g id="edge10" class="edge">
<title>Node3&#45;&gt;Node11</title>
<path fill="none" stroke="midnightblue" d="M200.88,-427.93C213.4,-415.9 232.08,-397.34 247,-380 264.39,-359.78 261.43,-347.68 283,-332 286.38,-329.54 290.11,-327.38 293.98,-325.49"/>
<polygon fill="midnightblue" stroke="midnightblue" points="295.37,-328.7 303.18,-321.54 292.61,-322.27 295.37,-328.7"/>
</g>
<!-- Node4&#45;&gt;Node5 -->
<g id="edge4" class="edge">
<title>Node4&#45;&gt;Node5</title>
<path fill="none" stroke="midnightblue" d="M392.26,-509.9C406.21,-506.9 421.26,-503.67 435.1,-500.7"/>
<polygon fill="midnightblue" stroke="midnightblue" points="435.89,-504.12 444.93,-498.6 434.42,-497.27 435.89,-504.12"/>
</g>
<!-- Node4&#45;&gt;Node6 -->
<g id="edge5" class="edge">
<title>Node4&#45;&gt;Node6</title>
<path fill="none" stroke="midnightblue" d="M392.26,-528.52C403.53,-530.16 415.53,-531.9 427.03,-533.58"/>
<polygon fill="midnightblue" stroke="midnightblue" points="426.58,-537.05 436.97,-535.02 427.58,-530.12 426.58,-537.05"/>
</g>
<!-- Node4&#45;&gt;Node7 -->
<g id="edge6" class="edge">
<title>Node4&#45;&gt;Node7</title>
<path fill="none" stroke="midnightblue" d="M364.04,-507.97C390.65,-493.24 433.77,-469.36 460.69,-454.46"/>
<polygon fill="midnightblue" stroke="midnightblue" points="462.43,-457.49 469.49,-449.59 459.04,-451.37 462.43,-457.49"/>
</g>
<!-- Node9 -->
<g id="node9" class="node">
<title>Node9</title>
<g id="a_node9"><a xlink:href="namespacesvg_1_1constants.html#a3972655f1dfdc090ec2592d1fb37e87c" target="_top" xlink:title=" ">
<polygon fill="white" stroke="black" points="432.5,-324.5 432.5,-341.5 539.5,-341.5 539.5,-324.5 432.5,-324.5"/>
<text text-anchor="middle" x="486" y="-331.1" font-family="SourceSans" font-size="8.00">svg::constants::quote</text>
</a>
</g>
</g>
<!-- Node8&#45;&gt;Node9 -->
<g id="edge8" class="edge">
<title>Node8&#45;&gt;Node9</title>
<path fill="none" stroke="midnightblue" d="M390.23,-346.77C400.5,-345.28 411.44,-343.69 422.11,-342.14"/>
<polygon fill="midnightblue" stroke="midnightblue" points="422.83,-345.57 432.22,-340.67 421.82,-338.64 422.83,-345.57"/>
</g>
<!-- Node10 -->
<g id="node10" class="node">
<title>Node10</title>
<g id="a_node10"><a xlink:href="namespacesvg_1_1constants.html#ac460bc8db60d85c3ae1cf8b1a903405e" target="_top" xlink:title="Formatting constants.">
<polygon fill="white" stroke="black" points="432,-360.5 432,-377.5 540,-377.5 540,-360.5 432,-360.5"/>
<text text-anchor="middle" x="486" y="-367.1" font-family="SourceSans" font-size="8.00">svg::constants::space</text>
</a>
</g>
</g>
<!-- Node8&#45;&gt;Node10 -->
<g id="edge9" class="edge">
<title>Node8&#45;&gt;Node10</title>
<path fill="none" stroke="midnightblue" d="M390.23,-359.16C400.37,-360.22 411.18,-361.34 421.72,-362.43"/>
<polygon fill="midnightblue" stroke="midnightblue" points="421.42,-365.92 431.73,-363.47 422.14,-358.96 421.42,-365.92"/>
</g>
<!-- Node11&#45;&gt;Node9 -->
<g id="edge11" class="edge">
<title>Node11&#45;&gt;Node9</title>
<path fill="none" stroke="midnightblue" d="M376.22,-317.94C390.14,-319.87 406.51,-322.14 422.26,-324.32"/>
<polygon fill="midnightblue" stroke="midnightblue" points="422.11,-327.83 432.5,-325.73 423.07,-320.9 422.11,-327.83"/>
</g>
<!-- Node11&#45;&gt;Node10 -->
<g id="edge12" class="edge">
<title>Node11&#45;&gt;Node10</title>
<path fill="none" stroke="midnightblue" d="M368.2,-321.54C377.19,-324.56 387.12,-328.16 396,-332 412.61,-339.17 415.38,-343.85 432,-351 437.02,-353.16 442.39,-355.24 447.72,-357.17"/>
<polygon fill="midnightblue" stroke="midnightblue" points="446.58,-360.48 457.18,-360.47 448.89,-353.87 446.58,-360.48"/>
</g>
<!-- Node12 -->
<g id="node12" class="node">
<title>Node12</title>
<g id="a_node12"><a xlink:href="structsvg_1_1colorq.html#adb55a2a48193fafa55340505862278e4" target="_top" xlink:title=" ">
<polygon fill="white" stroke="black" points="434,-288.5 434,-305.5 538,-305.5 538,-288.5 434,-288.5"/>
<text text-anchor="middle" x="486" y="-295.1" font-family="SourceSans" font-size="8.00">svg::colorq::to_string</text>
</a>
</g>
</g>
<!-- Node11&#45;&gt;Node12 -->
<g id="edge13" class="edge">
<title>Node11&#45;&gt;Node12</title>
<path fill="none" stroke="midnightblue" d="M376.22,-309.04C390.61,-307.45 407.64,-305.57 423.89,-303.77"/>
<polygon fill="midnightblue" stroke="midnightblue" points="424.32,-307.24 433.88,-302.66 423.55,-300.28 424.32,-307.24"/>
</g>
<!-- Node14&#45;&gt;Node11 -->
<g id="edge19" class="edge">
<title>Node14&#45;&gt;Node11</title>
<path fill="none" stroke="midnightblue" d="M232.04,-343.92C253.48,-337.69 278.87,-330.32 299.47,-324.33"/>
<polygon fill="midnightblue" stroke="midnightblue" points="300.54,-327.67 309.17,-321.52 298.59,-320.95 300.54,-327.67"/>
</g>
<!-- Node18 -->
<g id="node18" class="node">
<title>Node18</title>
<g id="a_node18"><a xlink:href="namespacesvg.html#a85a18af2008e9709e4d641ef4bda04e7" target="_top" xlink:title="Angle in radians.">
<polygon fill="white" stroke="black" points="283,-143 283,-169 396,-169 396,-143 283,-143"/>
<text text-anchor="start" x="291" y="-158.6" font-family="SourceSans" font-size="8.00">svg::get_circumference</text>
<text text-anchor="middle" x="339.5" y="-149.6" font-family="SourceSans" font-size="8.00">_point</text>
</a>
</g>
</g>
<!-- Node17&#45;&gt;Node18 -->
<g id="edge23" class="edge">
<title>Node17&#45;&gt;Node18</title>
<path fill="none" stroke="midnightblue" d="M242.55,-169.3C252.43,-167.93 262.81,-166.49 272.94,-165.09"/>
<polygon fill="midnightblue" stroke="midnightblue" points="273.53,-168.54 282.95,-163.7 272.57,-161.61 273.53,-168.54"/>
</g>
<!-- Node19 -->
<g id="node19" class="node">
<title>Node19</title>
<g id="a_node19"><a xlink:href="namespacesvg_1_1constants.html#a0e0b0d9314bc47324ee39884bf8bb2fd" target="_top" xlink:title=" ">
<polygon fill="white" stroke="black" points="294,-188.5 294,-205.5 385,-205.5 385,-188.5 294,-188.5"/>
<text text-anchor="middle" x="339.5" y="-195.1" font-family="SourceSans" font-size="8.00">svg::constants::pi</text>
</a>
</g>
</g>
<!-- Node17&#45;&gt;Node19 -->
<g id="edge24" class="edge">
<title>Node17&#45;&gt;Node19</title>
<path fill="none" stroke="midnightblue" d="M242.55,-184.33C256.01,-186.11 270.39,-188.01 283.81,-189.78"/>
<polygon fill="midnightblue" stroke="midnightblue" points="283.48,-193.27 293.85,-191.11 284.4,-186.33 283.48,-193.27"/>
</g>
<!-- Node21&#45;&gt;Node7 -->
<g id="edge28" class="edge">
<title>Node21&#45;&gt;Node7</title>
<path fill="none" stroke="midnightblue" d="M385.43,-412.06C404.81,-417.69 427.27,-424.22 445.95,-429.65"/>
<polygon fill="midnightblue" stroke="midnightblue" points="445.03,-433.03 455.61,-432.46 446.99,-426.31 445.03,-433.03"/>
</g>
<!-- Node21&#45;&gt;Node10 -->
<g id="edge27" class="edge">
<title>Node21&#45;&gt;Node10</title>
<path fill="none" stroke="midnightblue" d="M388.62,-389.01C403.16,-385.99 419.17,-382.67 433.9,-379.61"/>
<polygon fill="midnightblue" stroke="midnightblue" points="434.78,-383 443.86,-377.54 433.36,-376.15 434.78,-383"/>
</g>
</g>
</svg>
