<?xml version="1.0" encoding="UTF-8" standalone="no"?>
<!DOCTYPE svg PUBLIC "-//W3C//DTD SVG 1.1//EN"
 "http://www.w3.org/Graphics/SVG/1.1/DTD/svg11.dtd">
<!-- Generated by graphviz version 2.44.0 (0)
 -->
<!-- Title: svg::radiate_ids_per_uvalue_on_arc Pages: 1 -->
<!--zoomable 671 -->
<svg id="main" version="1.1" xmlns="http://www.w3.org/2000/svg" xmlns:xlink="http://www.w3.org/1999/xlink" xml:space="preserve" onload="init(evt)">
<style type="text/css"><![CDATA[
.edge:hover path { stroke: red; }
.edge:hover polygon { stroke: red; fill: red; }
]]></style>
<script type="text/javascript"><![CDATA[
var edges = document.getElementsByTagName('g');
if (edges && edges.length) {
  for (var i=0;i<edges.length;i++) {
    if (edges[i].id.substr(0,4)=='edge') {
      edges[i].setAttribute('class','edge');
    }
  }
}
]]></script>
        <defs>
                <circle id="rim" cx="0" cy="0" r="7"/>
                <circle id="rim2" cx="0" cy="0" r="3.5"/>
                <g id="zoomPlus">
                        <use xlink:href="#rim" fill="#404040">
                                <set attributeName="fill" to="#808080" begin="zoomplus.mouseover" end="zoomplus.mouseout"/>
                        </use>
                        <path d="M-4,0h8M0,-4v8" fill="none" stroke="white" stroke-width="1.5" pointer-events="none"/>
                </g>
                <g id="zoomMin">
                        <use xlink:href="#rim" fill="#404040">
                                <set attributeName="fill" to="#808080" begin="zoomminus.mouseover" end="zoomminus.mouseout"/>
                        </use>
                        <path d="M-4,0h8" fill="none" stroke="white" stroke-width="1.5" pointer-events="none"/>
                </g>
                <g id="dirArrow">
                        <path fill="none" stroke="white" stroke-width="1.5" d="M0,-3.0v7 M-2.5,-0.5L0,-3.0L2.5,-0.5"/>
                </g>
               <g id="resetDef">
                       <use xlink:href="#rim2" fill="#404040">
                               <set attributeName="fill" to="#808080" begin="reset.mouseover" end="reset.mouseout"/>
                       </use>
               </g>
        </defs>

<script type="text/javascript">
var viewWidth = 1284;
var viewHeight = 671;
var sectionId = 'dynsection-43';
</script>
<script xlink:href="svgpan.js"/>
<svg id="graph" class="graph">
<g id="viewport">
<title>svg::radiate_ids_per_uvalue_on_arc</title>
<polygon fill="white" stroke="transparent" points="-4,4 -4,-667 1280,-667 1280,4 -4,4"/>
<!-- Node1 -->
<g id="node1" class="node">
<title>Node1</title>
<g id="a_node1"><a xlink:title=" ">
<polygon fill="#bfbfbf" stroke="black" points="0,-193 0,-219 99,-219 99,-193 0,-193"/>
<text text-anchor="start" x="8" y="-208.6" font-family="SourceSans" font-size="8.00">svg::radiate_ids_per</text>
<text text-anchor="middle" x="49.5" y="-199.6" font-family="SourceSans" font-size="8.00">_uvalue_on_arc</text>
</a>
</g>
</g>
<!-- Node2 -->
<g id="node2" class="node">
<title>Node2</title>
<g id="a_node2"><a xlink:href="namespacesvg.html#a4a82474e9abf0617e2874f2fd2623c76" target="_top" xlink:title="Arc + arrow glyph that traces path of start to finish trajectory.">
<polygon fill="white" stroke="black" points="432,-395.5 432,-412.5 533,-412.5 533,-395.5 432,-395.5"/>
<text text-anchor="middle" x="482.5" y="-402.1" font-family="SourceSans" font-size="8.00">svg::direction_arc_at</text>
</a>
</g>
</g>
<!-- Node1&#45;&gt;Node2 -->
<g id="edge1" class="edge">
<title>Node1&#45;&gt;Node2</title>
<path fill="none" stroke="midnightblue" d="M74.7,-219.11C91.49,-228.08 114.44,-240.09 135,-250 250.72,-305.78 391.35,-366 451.68,-391.48"/>
<polygon fill="midnightblue" stroke="midnightblue" points="450.42,-394.75 460.99,-395.41 453.14,-388.3 450.42,-394.75"/>
</g>
<!-- Node19 -->
<g id="node19" class="node">
<title>Node19</title>
<g id="a_node19"><a xlink:href="namespacesvg.html#ac744a3c708bc42b8adb474f39312fc5f" target="_top" xlink:title="Map ids with one value to a point cluster radiating out from a center.">
<polygon fill="white" stroke="black" points="146.5,-214 146.5,-240 241.5,-240 241.5,-214 146.5,-214"/>
<text text-anchor="start" x="154.5" y="-229.6" font-family="SourceSans" font-size="8.00">svg::radiate_ids_by</text>
<text text-anchor="middle" x="194" y="-220.6" font-family="SourceSans" font-size="8.00">_uvalue</text>
</a>
</g>
</g>
<!-- Node1&#45;&gt;Node19 -->
<g id="edge20" class="edge">
<title>Node1&#45;&gt;Node19</title>
<path fill="none" stroke="midnightblue" d="M99.14,-213.17C110.98,-214.91 123.76,-216.8 135.95,-218.59"/>
<polygon fill="midnightblue" stroke="midnightblue" points="135.62,-222.08 146.02,-220.08 136.64,-215.16 135.62,-222.08"/>
</g>
<!-- Node40 -->
<g id="node40" class="node">
<title>Node40</title>
<g id="a_node40"><a xlink:href="namespacesvg.html#afbc82820a905c8b57fedeee3c4269600" target="_top" xlink:title="Sort vectors of strings to largest length string first. (Or use set&lt;&gt;).">
<polygon fill="white" stroke="black" points="135,-177.5 135,-194.5 253,-194.5 253,-177.5 135,-177.5"/>
<text text-anchor="middle" x="194" y="-184.1" font-family="SourceSans" font-size="8.00">svg::sort_strings_by_size</text>
</a>
</g>
</g>
<!-- Node1&#45;&gt;Node40 -->
<g id="edge59" class="edge">
<title>Node1&#45;&gt;Node40</title>
<path fill="none" stroke="midnightblue" d="M99.14,-199.17C107.37,-198.02 116.05,-196.8 124.67,-195.59"/>
<polygon fill="midnightblue" stroke="midnightblue" points="125.32,-199.03 134.73,-194.18 124.34,-192.1 125.32,-199.03"/>
</g>
<!-- Node41 -->
<g id="node41" class="node">
<title>Node41</title>
<g id="a_node41"><a xlink:href="namespacesvg.html#af2f86928ee5c1dac00eb589bef8b61fb" target="_top" xlink:title="Convert id_value_umap to value_id_mmap + set of unique values.">
<polygon fill="white" stroke="black" points="138,-141.5 138,-158.5 250,-158.5 250,-141.5 138,-141.5"/>
<text text-anchor="middle" x="194" y="-148.1" font-family="SourceSans" font-size="8.00">svg::to_value_id_mmap</text>
</a>
</g>
</g>
<!-- Node1&#45;&gt;Node41 -->
<g id="edge60" class="edge">
<title>Node1&#45;&gt;Node41</title>
<path fill="none" stroke="midnightblue" d="M77.55,-192.82C93.96,-185.08 115.44,-175.4 135,-168 140.89,-165.77 147.19,-163.6 153.38,-161.59"/>
<polygon fill="midnightblue" stroke="midnightblue" points="154.48,-164.91 162.96,-158.56 152.37,-158.24 154.48,-164.91"/>
</g>
<!-- Node3 -->
<g id="node3" class="node">
<title>Node3</title>
<g id="a_node3"><a xlink:href="group__elements.html#a807f3c30f2ace338ad10aaf230b47665" target="_top" xlink:title="Either serialize immediately (as below), or create data structure that adds data to data_vec and then...">
<polygon fill="white" stroke="black" points="583,-471 583,-497 682,-497 682,-471 583,-471"/>
<text text-anchor="start" x="591" y="-486.6" font-family="SourceSans" font-size="8.00">svg::path_element::</text>
<text text-anchor="middle" x="632.5" y="-477.6" font-family="SourceSans" font-size="8.00">add_data</text>
</a>
</g>
</g>
<!-- Node2&#45;&gt;Node3 -->
<g id="edge2" class="edge">
<title>Node2&#45;&gt;Node3</title>
<path fill="none" stroke="midnightblue" d="M496.53,-412.63C513.04,-423.4 542.55,-442.1 569,-456 576.03,-459.69 583.65,-463.37 591.07,-466.78"/>
<polygon fill="midnightblue" stroke="midnightblue" points="589.74,-470.02 600.3,-470.94 592.62,-463.64 589.74,-470.02"/>
</g>
<!-- Node4 -->
<g id="node4" class="node">
<title>Node4</title>
<g id="a_node4"><a xlink:href="group__elements.html#adb6116b96467cc39cb178deb10c7a869" target="_top" xlink:title=" ">
<polygon fill="white" stroke="black" points="881,-282 881,-308 991,-308 991,-282 881,-282"/>
<text text-anchor="start" x="889" y="-297.6" font-family="SourceSans" font-size="8.00">svg::svg_element::add</text>
<text text-anchor="middle" x="936" y="-288.6" font-family="SourceSans" font-size="8.00">_element</text>
</a>
</g>
</g>
<!-- Node2&#45;&gt;Node4 -->
<g id="edge3" class="edge">
<title>Node2&#45;&gt;Node4</title>
<path fill="none" stroke="midnightblue" d="M518.93,-395.45C594.92,-377.1 774.5,-333.75 871.01,-310.45"/>
<polygon fill="midnightblue" stroke="midnightblue" points="872.04,-313.8 880.94,-308.05 870.4,-307 872.04,-313.8"/>
</g>
<!-- Node5 -->
<g id="node5" class="node">
<title>Node5</title>
<g id="a_node5"><a xlink:href="group__elements.html#a238b38ca99a1cf6c2baf80c8e4338d99" target="_top" xlink:title=" ">
<polygon fill="white" stroke="black" points="738,-453 738,-479 839,-479 839,-453 738,-453"/>
<text text-anchor="start" x="746" y="-468.6" font-family="SourceSans" font-size="8.00">svg::element_base::</text>
<text text-anchor="middle" x="788.5" y="-459.6" font-family="SourceSans" font-size="8.00">add_style</text>
</a>
</g>
</g>
<!-- Node2&#45;&gt;Node5 -->
<g id="edge4" class="edge">
<title>Node2&#45;&gt;Node5</title>
<path fill="none" stroke="midnightblue" d="M525.45,-412.56C577.96,-423.26 668.22,-441.67 727.89,-453.84"/>
<polygon fill="midnightblue" stroke="midnightblue" points="727.42,-457.32 737.92,-455.89 728.82,-450.46 727.42,-457.32"/>
</g>
<!-- Node8 -->
<g id="node8" class="node">
<title>Node8</title>
<g id="a_node8"><a xlink:href="namespacesvg_1_1constants.html#ac460bc8db60d85c3ae1cf8b1a903405e" target="_top" xlink:title="Formatting constants.">
<polygon fill="white" stroke="black" points="1168,-476.5 1168,-493.5 1276,-493.5 1276,-476.5 1168,-476.5"/>
<text text-anchor="middle" x="1222" y="-483.1" font-family="SourceSans" font-size="8.00">svg::constants::space</text>
</a>
</g>
</g>
<!-- Node2&#45;&gt;Node8 -->
<g id="edge16" class="edge">
<title>Node2&#45;&gt;Node8</title>
<path fill="none" stroke="midnightblue" d="M485.51,-412.62C492.12,-438.89 515.93,-518.22 569,-552 651.23,-604.34 690.02,-571 787.5,-571 787.5,-571 787.5,-571 937,-571 962.29,-571 1115.85,-520.41 1186.04,-496.83"/>
<polygon fill="midnightblue" stroke="midnightblue" points="1187.41,-500.07 1195.77,-493.56 1185.17,-493.43 1187.41,-500.07"/>
</g>
<!-- Node10 -->
<g id="node10" class="node">
<title>Node10</title>
<g id="a_node10"><a xlink:href="namespacesvg_1_1constants.html#a70757c054f02146f803e0e40071734a9" target="_top" xlink:title=" ">
<polygon fill="white" stroke="black" points="576,-645.5 576,-662.5 689,-662.5 689,-645.5 576,-645.5"/>
<text text-anchor="middle" x="632.5" y="-652.1" font-family="SourceSans" font-size="8.00">svg::constants::comma</text>
</a>
</g>
</g>
<!-- Node2&#45;&gt;Node10 -->
<g id="edge9" class="edge">
<title>Node2&#45;&gt;Node10</title>
<path fill="none" stroke="midnightblue" d="M483.99,-412.66C486.41,-446.58 499.84,-571.69 569,-636 570.71,-637.59 572.56,-639.05 574.5,-640.37"/>
<polygon fill="midnightblue" stroke="midnightblue" points="573.12,-643.61 583.57,-645.4 576.52,-637.49 573.12,-643.61"/>
</g>
<!-- Node11 -->
<g id="node11" class="node">
<title>Node11</title>
<g id="a_node11"><a xlink:href="group__elements.html#gaac30ae99fb1a2542688fa1ffb43cd8e1" target="_top" xlink:title=" ">
<polygon fill="white" stroke="black" points="583,-600 583,-626 682,-626 682,-600 583,-600"/>
<text text-anchor="start" x="591" y="-615.6" font-family="SourceSans" font-size="8.00">svg::path_element::</text>
<text text-anchor="middle" x="632.5" y="-606.6" font-family="SourceSans" font-size="8.00">finish_element</text>
</a>
</g>
</g>
<!-- Node2&#45;&gt;Node11 -->
<g id="edge10" class="edge">
<title>Node2&#45;&gt;Node11</title>
<path fill="none" stroke="midnightblue" d="M485.36,-412.81C491.82,-441.44 515.89,-532.94 569,-585 572.78,-588.7 577.13,-591.96 581.74,-594.82"/>
<polygon fill="midnightblue" stroke="midnightblue" points="580.4,-598.08 590.85,-599.85 583.78,-591.95 580.4,-598.08"/>
</g>
<!-- Node12 -->
<g id="node12" class="node">
<title>Node12</title>
<g id="a_node12"><a xlink:href="namespacesvg.html#ab44508c4aeca591141ebec50145b75cd" target="_top" xlink:title="Angle in degrees.">
<polygon fill="white" stroke="black" points="576,-155 576,-181 689,-181 689,-155 576,-155"/>
<text text-anchor="start" x="584" y="-170.6" font-family="SourceSans" font-size="8.00">svg::get_circumference</text>
<text text-anchor="middle" x="632.5" y="-161.6" font-family="SourceSans" font-size="8.00">_point_d</text>
</a>
</g>
</g>
<!-- Node2&#45;&gt;Node12 -->
<g id="edge11" class="edge">
<title>Node2&#45;&gt;Node12</title>
<path fill="none" stroke="midnightblue" d="M488.15,-395.45C497.45,-378.15 518.67,-337.61 533,-302 552.37,-253.89 533.05,-228.38 569,-191 570.41,-189.53 571.93,-188.16 573.52,-186.87"/>
<polygon fill="midnightblue" stroke="midnightblue" points="575.72,-189.6 582.08,-181.13 571.82,-183.79 575.72,-189.6"/>
</g>
<!-- Node14 -->
<g id="node14" class="node">
<title>Node14</title>
<g id="a_node14"><a xlink:href="namespacesvg_1_1constants.html#a0e0b0d9314bc47324ee39884bf8bb2fd" target="_top" xlink:title=" ">
<polygon fill="white" stroke="black" points="743,-277.5 743,-294.5 834,-294.5 834,-277.5 743,-277.5"/>
<text text-anchor="middle" x="788.5" y="-284.1" font-family="SourceSans" font-size="8.00">svg::constants::pi</text>
</a>
</g>
</g>
<!-- Node2&#45;&gt;Node14 -->
<g id="edge15" class="edge">
<title>Node2&#45;&gt;Node14</title>
<path fill="none" stroke="midnightblue" d="M495.42,-395.4C511.48,-384.14 541.24,-364.39 569,-352 600.78,-337.81 691.84,-312.01 745.85,-297.22"/>
<polygon fill="midnightblue" stroke="midnightblue" points="747.08,-300.52 755.81,-294.51 745.24,-293.76 747.08,-300.52"/>
</g>
<!-- Node15 -->
<g id="node15" class="node">
<title>Node15</title>
<g id="a_node15"><a xlink:href="namespacesvg.html#a694806659ebf061e616b8a0b49a53f40" target="_top" xlink:title=" ">
<polygon fill="white" stroke="black" points="580,-282.5 580,-299.5 685,-299.5 685,-282.5 580,-282.5"/>
<text text-anchor="middle" x="632.5" y="-289.1" font-family="SourceSans" font-size="8.00">svg::get_radial_range</text>
</a>
</g>
</g>
<!-- Node2&#45;&gt;Node15 -->
<g id="edge14" class="edge">
<title>Node2&#45;&gt;Node15</title>
<path fill="none" stroke="midnightblue" d="M489.57,-395.31C502.34,-377.64 533.71,-337.21 569,-314 575.38,-309.81 582.62,-306.25 589.86,-303.27"/>
<polygon fill="midnightblue" stroke="midnightblue" points="591.52,-306.38 599.64,-299.57 589.05,-299.83 591.52,-306.38"/>
</g>
<!-- Node16 -->
<g id="node16" class="node">
<title>Node16</title>
<g id="a_node16"><a xlink:href="group__elements.html#a6dbca7cef2cbc0c10aa44c44ae20b36e" target="_top" xlink:title=" ">
<polygon fill="white" stroke="black" points="583,-516 583,-542 682,-542 682,-516 583,-516"/>
<text text-anchor="start" x="591" y="-531.6" font-family="SourceSans" font-size="8.00">svg::path_element::</text>
<text text-anchor="middle" x="632.5" y="-522.6" font-family="SourceSans" font-size="8.00">start_element</text>
</a>
</g>
</g>
<!-- Node2&#45;&gt;Node16 -->
<g id="edge17" class="edge">
<title>Node2&#45;&gt;Node16</title>
<path fill="none" stroke="midnightblue" d="M488.34,-412.52C499.82,-432.03 530.66,-480.31 569,-507 571.22,-508.55 573.57,-510 575.99,-511.36"/>
<polygon fill="midnightblue" stroke="midnightblue" points="574.53,-514.54 585.04,-515.87 577.65,-508.27 574.53,-514.54"/>
</g>
<!-- Node17 -->
<g id="node17" class="node">
<title>Node17</title>
<g id="a_node17"><a xlink:href="namespacesvg.html#a36b1c48ad4601b205790e3772ad0a7b6" target="_top" xlink:title=" ">
<polygon fill="white" stroke="black" points="1186,-325.5 1186,-342.5 1258,-342.5 1258,-325.5 1186,-325.5"/>
<text text-anchor="middle" x="1222" y="-332.1" font-family="SourceSans" font-size="8.00">svg::to_string</text>
</a>
</g>
</g>
<!-- Node2&#45;&gt;Node17 -->
<g id="edge18" class="edge">
<title>Node2&#45;&gt;Node17</title>
<path fill="none" stroke="midnightblue" d="M533.26,-404C593.47,-404 697.91,-404 787.5,-404 787.5,-404 787.5,-404 937,-404 1032.21,-404 1140.3,-366.45 1191.33,-346.35"/>
<polygon fill="midnightblue" stroke="midnightblue" points="1192.77,-349.55 1200.76,-342.58 1190.17,-343.05 1192.77,-349.55"/>
</g>
<!-- Node18 -->
<g id="node18" class="node">
<title>Node18</title>
<g id="a_node18"><a xlink:href="namespacesvg.html#a46164d75fd5109e4ed8879abbacd5c11" target="_top" xlink:title="Zero degrees is top, going clockwise (cw).">
<polygon fill="white" stroke="black" points="571.5,-200.5 571.5,-217.5 693.5,-217.5 693.5,-200.5 571.5,-200.5"/>
<text text-anchor="middle" x="632.5" y="-207.1" font-family="SourceSans" font-size="8.00">svg::zero_angle_north_cw</text>
</a>
</g>
</g>
<!-- Node2&#45;&gt;Node18 -->
<g id="edge19" class="edge">
<title>Node2&#45;&gt;Node18</title>
<path fill="none" stroke="midnightblue" d="M487.75,-395.27C496.33,-377.66 516.32,-336.57 533,-302 549.07,-268.7 540.76,-250.87 569,-227 571.04,-225.28 573.23,-223.72 575.53,-222.31"/>
<polygon fill="midnightblue" stroke="midnightblue" points="577.53,-225.22 584.87,-217.58 574.36,-218.98 577.53,-225.22"/>
</g>
<!-- Node6 -->
<g id="node6" class="node">
<title>Node6</title>
<g id="a_node6"><a xlink:href="structsvg_1_1style.html#a724baeff8a062d71724ea2eeece5c6a3" target="_top" xlink:title=" ">
<polygon fill="white" stroke="black" points="1043,-478.5 1043,-495.5 1116,-495.5 1116,-478.5 1043,-478.5"/>
<text text-anchor="middle" x="1079.5" y="-485.1" font-family="SourceSans" font-size="8.00">svg::style::str</text>
</a>
</g>
</g>
<!-- Node5&#45;&gt;Node6 -->
<g id="edge5" class="edge">
<title>Node5&#45;&gt;Node6</title>
<path fill="none" stroke="midnightblue" d="M839.18,-469.61C893.5,-473.56 979.82,-479.83 1032.59,-483.66"/>
<polygon fill="midnightblue" stroke="midnightblue" points="1032.45,-487.16 1042.68,-484.4 1032.96,-480.18 1032.45,-487.16"/>
</g>
<!-- Node7 -->
<g id="node7" class="node">
<title>Node7</title>
<g id="a_node7"><a xlink:href="namespacesvg_1_1constants.html#a3972655f1dfdc090ec2592d1fb37e87c" target="_top" xlink:title=" ">
<polygon fill="white" stroke="black" points="1168.5,-438.5 1168.5,-455.5 1275.5,-455.5 1275.5,-438.5 1168.5,-438.5"/>
<text text-anchor="middle" x="1222" y="-445.1" font-family="SourceSans" font-size="8.00">svg::constants::quote</text>
</a>
</g>
</g>
<!-- Node6&#45;&gt;Node7 -->
<g id="edge6" class="edge">
<title>Node6&#45;&gt;Node7</title>
<path fill="none" stroke="midnightblue" d="M1110.64,-478.42C1131.2,-472.57 1158.65,-464.75 1181.03,-458.38"/>
<polygon fill="midnightblue" stroke="midnightblue" points="1182.25,-461.67 1190.91,-455.57 1180.33,-454.94 1182.25,-461.67"/>
</g>
<!-- Node6&#45;&gt;Node8 -->
<g id="edge7" class="edge">
<title>Node6&#45;&gt;Node8</title>
<path fill="none" stroke="midnightblue" d="M1116.32,-486.49C1128.88,-486.31 1143.39,-486.1 1157.53,-485.9"/>
<polygon fill="midnightblue" stroke="midnightblue" points="1157.78,-489.4 1167.73,-485.76 1157.68,-482.4 1157.78,-489.4"/>
</g>
<!-- Node9 -->
<g id="node9" class="node">
<title>Node9</title>
<g id="a_node9"><a xlink:href="structsvg_1_1colorq.html#adb55a2a48193fafa55340505862278e4" target="_top" xlink:title=" ">
<polygon fill="white" stroke="black" points="1170,-512.5 1170,-529.5 1274,-529.5 1274,-512.5 1170,-512.5"/>
<text text-anchor="middle" x="1222" y="-519.1" font-family="SourceSans" font-size="8.00">svg::colorq::to_string</text>
</a>
</g>
</g>
<!-- Node6&#45;&gt;Node9 -->
<g id="edge8" class="edge">
<title>Node6&#45;&gt;Node9</title>
<path fill="none" stroke="midnightblue" d="M1115.95,-495.58C1134.09,-499.97 1156.37,-505.36 1175.73,-510.05"/>
<polygon fill="midnightblue" stroke="midnightblue" points="1175.01,-513.47 1185.56,-512.42 1176.66,-506.67 1175.01,-513.47"/>
</g>
<!-- Node13 -->
<g id="node13" class="node">
<title>Node13</title>
<g id="a_node13"><a xlink:href="namespacesvg.html#a85a18af2008e9709e4d641ef4bda04e7" target="_top" xlink:title="Angle in radians.">
<polygon fill="white" stroke="black" points="732,-191 732,-217 845,-217 845,-191 732,-191"/>
<text text-anchor="start" x="740" y="-206.6" font-family="SourceSans" font-size="8.00">svg::get_circumference</text>
<text text-anchor="middle" x="788.5" y="-197.6" font-family="SourceSans" font-size="8.00">_point</text>
</a>
</g>
</g>
<!-- Node12&#45;&gt;Node13 -->
<g id="edge12" class="edge">
<title>Node12&#45;&gt;Node13</title>
<path fill="none" stroke="midnightblue" d="M689.1,-181C699.78,-183.49 711.07,-186.13 722.03,-188.7"/>
<polygon fill="midnightblue" stroke="midnightblue" points="721.45,-192.15 731.98,-191.02 723.04,-185.34 721.45,-192.15"/>
</g>
<!-- Node12&#45;&gt;Node14 -->
<g id="edge13" class="edge">
<title>Node12&#45;&gt;Node14</title>
<path fill="none" stroke="midnightblue" d="M677.09,-181.13C683.67,-183.93 690.19,-187.21 696,-191 704.91,-196.82 749.12,-244.27 772.67,-269.83"/>
<polygon fill="midnightblue" stroke="midnightblue" points="770.18,-272.29 779.52,-277.28 775.33,-267.55 770.18,-272.29"/>
</g>
<!-- Node20 -->
<g id="node20" class="node">
<title>Node20</title>
<g id="a_node20"><a xlink:href="namespacesvg.html#a07c6fad0adddb0908ed4ef00536967c9" target="_top" xlink:title="Concatenate ids onto one line.">
<polygon fill="white" stroke="black" points="294.5,-118.5 294.5,-135.5 390.5,-135.5 390.5,-118.5 294.5,-118.5"/>
<text text-anchor="middle" x="342.5" y="-125.1" font-family="SourceSans" font-size="8.00">svg::append_ids_at</text>
</a>
</g>
</g>
<!-- Node19&#45;&gt;Node20 -->
<g id="edge21" class="edge">
<title>Node19&#45;&gt;Node20</title>
<path fill="none" stroke="midnightblue" d="M237.39,-213.98C242.98,-211.21 248.36,-207.91 253,-204 276.49,-184.21 265.05,-164.23 289,-145 291.29,-143.16 293.78,-141.51 296.38,-140.02"/>
<polygon fill="midnightblue" stroke="midnightblue" points="298.11,-143.07 305.59,-135.56 295.06,-136.77 298.11,-143.07"/>
</g>
<!-- Node21 -->
<g id="node21" class="node">
<title>Node21</title>
<g id="a_node21"><a xlink:href="namespacesvg.html#a06b88691cd28e6fb0c8e79ca44b34423" target="_top" xlink:title=" ">
<polygon fill="white" stroke="black" points="439.5,-118.5 439.5,-135.5 525.5,-135.5 525.5,-118.5 439.5,-118.5"/>
<text text-anchor="middle" x="482.5" y="-125.1" font-family="SourceSans" font-size="8.00">svg::radial_text_r</text>
</a>
</g>
</g>
<!-- Node19&#45;&gt;Node21 -->
<g id="edge58" class="edge">
<title>Node19&#45;&gt;Node21</title>
<path fill="none" stroke="midnightblue" d="M241.64,-237.64C283.96,-244.89 347.03,-249.56 396,-227 432.85,-210.02 459.73,-168.46 472.73,-144.61"/>
<polygon fill="midnightblue" stroke="midnightblue" points="475.91,-146.07 477.44,-135.59 469.71,-142.83 475.91,-146.07"/>
</g>
<!-- Node36 -->
<g id="node36" class="node">
<title>Node36</title>
<g id="a_node36"><a xlink:href="namespacesvg.html#a929b5c33bc0c139332dddd5d3b8ea3d0" target="_top" xlink:title="Transform a value on a range to an angle on the radial range.">
<polygon fill="white" stroke="black" points="444,-275.5 444,-292.5 521,-292.5 521,-275.5 444,-275.5"/>
<text text-anchor="middle" x="482.5" y="-282.1" font-family="SourceSans" font-size="8.00">svg::get_angle</text>
</a>
</g>
</g>
<!-- Node19&#45;&gt;Node36 -->
<g id="edge53" class="edge">
<title>Node19&#45;&gt;Node36</title>
<path fill="none" stroke="midnightblue" d="M226.69,-240.03C244.68,-246.94 267.79,-255.01 289,-260 337.61,-271.42 394.47,-277.66 433.73,-280.89"/>
<polygon fill="midnightblue" stroke="midnightblue" points="433.57,-284.39 443.82,-281.69 434.12,-277.41 433.57,-284.39"/>
</g>
<!-- Node38 -->
<g id="node38" class="node">
<title>Node38</title>
<g id="a_node38"><a xlink:href="namespacesvg.html#aabba9120f22d6011e46be1d065c2b19b" target="_top" xlink:title="Get the label space. Value &#45;&gt; Name, as a string where value has labelspaces of fill NB: Should be the...">
<polygon fill="white" stroke="black" points="289,-200.5 289,-217.5 396,-217.5 396,-200.5 289,-200.5"/>
<text text-anchor="middle" x="342.5" y="-207.1" font-family="SourceSans" font-size="8.00">svg::get_label_spaces</text>
</a>
</g>
</g>
<!-- Node19&#45;&gt;Node38 -->
<g id="edge56" class="edge">
<title>Node19&#45;&gt;Node38</title>
<path fill="none" stroke="midnightblue" d="M241.76,-221.26C253.47,-219.82 266.22,-218.25 278.58,-216.73"/>
<polygon fill="midnightblue" stroke="midnightblue" points="279.33,-220.17 288.83,-215.47 278.48,-213.22 279.33,-220.17"/>
</g>
<!-- Node39 -->
<g id="node39" class="node">
<title>Node39</title>
<g id="a_node39"><a xlink:href="namespacesvg.html#aa89ab2d58bfaf850b84e976828851b9b" target="_top" xlink:title="Make radial labels.">
<polygon fill="white" stroke="black" points="293.5,-155 293.5,-181 391.5,-181 391.5,-155 293.5,-155"/>
<text text-anchor="start" x="301.5" y="-170.6" font-family="SourceSans" font-size="8.00">svg::make_label_for</text>
<text text-anchor="middle" x="342.5" y="-161.6" font-family="SourceSans" font-size="8.00">_value</text>
</a>
</g>
</g>
<!-- Node19&#45;&gt;Node39 -->
<g id="edge57" class="edge">
<title>Node19&#45;&gt;Node39</title>
<path fill="none" stroke="midnightblue" d="M228.15,-213.91C236.28,-210.69 244.96,-207.23 253,-204 268.4,-197.81 285.29,-190.96 300.14,-184.91"/>
<polygon fill="midnightblue" stroke="midnightblue" points="301.64,-188.08 309.58,-181.07 298.99,-181.6 301.64,-188.08"/>
</g>
<!-- Node20&#45;&gt;Node21 -->
<g id="edge22" class="edge">
<title>Node20&#45;&gt;Node21</title>
<path fill="none" stroke="midnightblue" d="M390.61,-127C402.93,-127 416.29,-127 428.88,-127"/>
<polygon fill="midnightblue" stroke="midnightblue" points="429.23,-130.5 439.23,-127 429.23,-123.5 429.23,-130.5"/>
</g>
<!-- Node21&#45;&gt;Node12 -->
<g id="edge24" class="edge">
<title>Node21&#45;&gt;Node12</title>
<path fill="none" stroke="midnightblue" d="M514.53,-135.59C531.94,-140.42 554.2,-146.59 574.62,-152.24"/>
<polygon fill="midnightblue" stroke="midnightblue" points="573.9,-155.68 584.47,-154.97 575.77,-148.93 573.9,-155.68"/>
</g>
<!-- Node21&#45;&gt;Node18 -->
<g id="edge52" class="edge">
<title>Node21&#45;&gt;Node18</title>
<path fill="none" stroke="midnightblue" d="M492.79,-135.54C507.77,-148.9 538.68,-174.78 569,-190 574.39,-192.7 580.24,-195.11 586.12,-197.21"/>
<polygon fill="midnightblue" stroke="midnightblue" points="585.38,-200.65 595.98,-200.48 587.59,-194.01 585.38,-200.65"/>
</g>
<!-- Node22 -->
<g id="node22" class="node">
<title>Node22</title>
<g id="a_node22"><a xlink:href="namespacesvg.html#acf54b60ce80d6e2059062e8dc4c14325" target="_top" xlink:title="Circumference adjustment such that lable is hight&#45;centered in kusama circle.">
<polygon fill="white" stroke="black" points="576,-37 576,-63 689,-63 689,-37 576,-37"/>
<text text-anchor="start" x="584" y="-52.6" font-family="SourceSans" font-size="8.00">svg::adjust_label_angle</text>
<text text-anchor="middle" x="632.5" y="-43.6" font-family="SourceSans" font-size="8.00">_for_text_height</text>
</a>
</g>
</g>
<!-- Node21&#45;&gt;Node22 -->
<g id="edge23" class="edge">
<title>Node21&#45;&gt;Node22</title>
<path fill="none" stroke="midnightblue" d="M495.21,-118.48C511.27,-107.06 541.28,-86.66 569,-73 573.31,-70.88 577.87,-68.83 582.48,-66.91"/>
<polygon fill="midnightblue" stroke="midnightblue" points="583.97,-70.08 591.96,-63.11 581.38,-63.58 583.97,-70.08"/>
</g>
<!-- Node23 -->
<g id="node23" class="node">
<title>Node23</title>
<g id="a_node23"><a xlink:href="namespacesvg.html#a5ec86f1aa5e4c9923a7c11c2cbb89660" target="_top" xlink:title="Text with typography, arranged ccw around points (x,y) on a circle.">
<polygon fill="white" stroke="black" points="583.5,-82.5 583.5,-99.5 681.5,-99.5 681.5,-82.5 583.5,-82.5"/>
<text text-anchor="middle" x="632.5" y="-89.1" font-family="SourceSans" font-size="8.00">svg::radial_text_ccw</text>
</a>
</g>
</g>
<!-- Node21&#45;&gt;Node23 -->
<g id="edge25" class="edge">
<title>Node21&#45;&gt;Node23</title>
<path fill="none" stroke="midnightblue" d="M518.57,-118.47C538.96,-113.51 564.85,-107.21 586.7,-101.9"/>
<polygon fill="midnightblue" stroke="midnightblue" points="587.53,-105.3 596.42,-99.53 585.88,-98.5 587.53,-105.3"/>
</g>
<!-- Node34 -->
<g id="node34" class="node">
<title>Node34</title>
<g id="a_node34"><a xlink:href="namespacesvg.html#a82c3b1f2d71d9212c46493e76e5dc087" target="_top" xlink:title="Text with typography, arranged cw around points (x,y) on a circle.">
<polygon fill="white" stroke="black" points="585.5,-118.5 585.5,-135.5 679.5,-135.5 679.5,-118.5 585.5,-118.5"/>
<text text-anchor="middle" x="632.5" y="-125.1" font-family="SourceSans" font-size="8.00">svg::radial_text_cw</text>
</a>
</g>
</g>
<!-- Node21&#45;&gt;Node34 -->
<g id="edge48" class="edge">
<title>Node21&#45;&gt;Node34</title>
<path fill="none" stroke="midnightblue" d="M525.51,-127C541.01,-127 558.83,-127 575.38,-127"/>
<polygon fill="midnightblue" stroke="midnightblue" points="575.49,-130.5 585.49,-127 575.49,-123.5 575.49,-130.5"/>
</g>
<!-- Node35 -->
<g id="node35" class="node">
<title>Node35</title>
<g id="a_node35"><a xlink:href="namespacesvg.html#a010fea242a289d173d521b501140cd72" target="_top" xlink:title="Zero degrees is top, going clockwise (cw).">
<polygon fill="white" stroke="black" points="569,-0.5 569,-17.5 696,-17.5 696,-0.5 569,-0.5"/>
<text text-anchor="middle" x="632.5" y="-7.1" font-family="SourceSans" font-size="8.00">svg::zero_angle_north_ccw</text>
</a>
</g>
</g>
<!-- Node21&#45;&gt;Node35 -->
<g id="edge51" class="edge">
<title>Node21&#45;&gt;Node35</title>
<path fill="none" stroke="midnightblue" d="M488.47,-118.29C500.01,-98.85 530.59,-51.73 569,-27 572.32,-24.86 575.91,-22.97 579.62,-21.3"/>
<polygon fill="midnightblue" stroke="midnightblue" points="581,-24.51 589.02,-17.59 578.43,-18 581,-24.51"/>
</g>
<!-- Node24 -->
<g id="node24" class="node">
<title>Node24</title>
<g id="a_node24"><a xlink:href="namespacesvg.html#ab2d2020c33da2e0215837673e530b991" target="_top" xlink:title="Text at size.">
<polygon fill="white" stroke="black" points="750,-154.5 750,-171.5 827,-171.5 827,-154.5 750,-154.5"/>
<text text-anchor="middle" x="788.5" y="-161.1" font-family="SourceSans" font-size="8.00">svg::sized_text</text>
</a>
</g>
</g>
<!-- Node23&#45;&gt;Node24 -->
<g id="edge26" class="edge">
<title>Node23&#45;&gt;Node24</title>
<path fill="none" stroke="midnightblue" d="M674.41,-99.55C681.88,-102 689.39,-105.1 696,-109 715.49,-120.5 712.7,-133.18 732,-145 735.45,-147.11 739.17,-149 743,-150.69"/>
<polygon fill="midnightblue" stroke="midnightblue" points="742.04,-154.08 752.63,-154.48 744.61,-147.56 742.04,-154.08"/>
</g>
<!-- Node32 -->
<g id="node32" class="node">
<title>Node32</title>
<g id="a_node32"><a xlink:href="namespacesvg.html#a4399801aa964203bcab6e6ab2e7b4200" target="_top" xlink:title="Text at size, with a transformation=rotation added.">
<polygon fill="white" stroke="black" points="746.5,-118.5 746.5,-135.5 830.5,-135.5 830.5,-118.5 746.5,-118.5"/>
<text text-anchor="middle" x="788.5" y="-125.1" font-family="SourceSans" font-size="8.00">svg::sized_text_r</text>
</a>
</g>
</g>
<!-- Node23&#45;&gt;Node32 -->
<g id="edge42" class="edge">
<title>Node23&#45;&gt;Node32</title>
<path fill="none" stroke="midnightblue" d="M670,-99.53C691.3,-104.51 718.39,-110.85 741.19,-116.17"/>
<polygon fill="midnightblue" stroke="midnightblue" points="740.47,-119.6 751,-118.47 742.06,-112.78 740.47,-119.6"/>
</g>
<!-- Node24&#45;&gt;Node4 -->
<g id="edge39" class="edge">
<title>Node24&#45;&gt;Node4</title>
<path fill="none" stroke="midnightblue" d="M827.22,-170.22C833.72,-172.79 839.99,-176.28 845,-181 876.96,-211.11 850.17,-241.74 881,-273 882.07,-274.08 883.19,-275.11 884.37,-276.09"/>
<polygon fill="midnightblue" stroke="midnightblue" points="882.53,-279.07 892.74,-281.88 886.51,-273.32 882.53,-279.07"/>
</g>
<!-- Node25 -->
<g id="node25" class="node">
<title>Node25</title>
<g id="a_node25"><a xlink:href="group__elements.html#a87be030b88c17a86a690b31e95b60612" target="_top" xlink:title="Either serialize immediately (as below), or create data structure that adds data to data_vec and then...">
<polygon fill="white" stroke="black" points="888.5,-237 888.5,-263 983.5,-263 983.5,-237 888.5,-237"/>
<text text-anchor="start" x="896.5" y="-252.6" font-family="SourceSans" font-size="8.00">svg::text_element::</text>
<text text-anchor="middle" x="936" y="-243.6" font-family="SourceSans" font-size="8.00">add_data</text>
</a>
</g>
</g>
<!-- Node24&#45;&gt;Node25 -->
<g id="edge27" class="edge">
<title>Node24&#45;&gt;Node25</title>
<path fill="none" stroke="midnightblue" d="M822.25,-171.58C829.92,-174.14 837.92,-177.28 845,-181 870.31,-194.3 895.87,-214.72 913.25,-229.9"/>
<polygon fill="midnightblue" stroke="midnightblue" points="911.29,-232.84 921.09,-236.87 915.94,-227.61 911.29,-232.84"/>
</g>
<!-- Node30 -->
<g id="node30" class="node">
<title>Node30</title>
<g id="a_node30"><a xlink:href="group__elements.html#ga13c46848317034d16c62a7d2061ba3d6" target="_top" xlink:title=" ">
<polygon fill="white" stroke="black" points="888.5,-114 888.5,-140 983.5,-140 983.5,-114 888.5,-114"/>
<text text-anchor="start" x="896.5" y="-129.6" font-family="SourceSans" font-size="8.00">svg::text_element::</text>
<text text-anchor="middle" x="936" y="-120.6" font-family="SourceSans" font-size="8.00">finish_element</text>
</a>
</g>
</g>
<!-- Node24&#45;&gt;Node30 -->
<g id="edge40" class="edge">
<title>Node24&#45;&gt;Node30</title>
<path fill="none" stroke="midnightblue" d="M823.98,-154.47C840.29,-150.43 860.19,-145.51 878.62,-140.95"/>
<polygon fill="midnightblue" stroke="midnightblue" points="879.51,-144.33 888.38,-138.53 877.83,-137.54 879.51,-144.33"/>
</g>
<!-- Node31 -->
<g id="node31" class="node">
<title>Node31</title>
<g id="a_node31"><a xlink:href="group__elements.html#ae45bec611a6ec17ea46aab6d680ae042" target="_top" xlink:title=" ">
<polygon fill="white" stroke="black" points="888.5,-159 888.5,-185 983.5,-185 983.5,-159 888.5,-159"/>
<text text-anchor="start" x="896.5" y="-174.6" font-family="SourceSans" font-size="8.00">svg::text_element::</text>
<text text-anchor="middle" x="936" y="-165.6" font-family="SourceSans" font-size="8.00">start_element</text>
</a>
</g>
</g>
<!-- Node24&#45;&gt;Node31 -->
<g id="edge41" class="edge">
<title>Node24&#45;&gt;Node31</title>
<path fill="none" stroke="midnightblue" d="M827.35,-165.34C842.76,-166.29 860.91,-167.42 877.87,-168.47"/>
<polygon fill="midnightblue" stroke="midnightblue" points="878.04,-171.98 888.24,-169.11 878.47,-165 878.04,-171.98"/>
</g>
<!-- Node25&#45;&gt;Node6 -->
<g id="edge35" class="edge">
<title>Node25&#45;&gt;Node6</title>
<path fill="none" stroke="midnightblue" d="M979.7,-263.15C983.98,-265.85 987.88,-269.1 991,-273 1046.34,-342.15 969.4,-401.72 1027,-469 1028.96,-471.29 1031.24,-473.29 1033.71,-475.04"/>
<polygon fill="midnightblue" stroke="midnightblue" points="1032.3,-478.26 1042.75,-480.05 1035.7,-472.14 1032.3,-478.26"/>
</g>
<!-- Node25&#45;&gt;Node17 -->
<g id="edge38" class="edge">
<title>Node25&#45;&gt;Node17</title>
<path fill="none" stroke="midnightblue" d="M973.97,-263.04C979.92,-265.89 985.82,-269.21 991,-273 1010.83,-287.53 1005.19,-303.65 1027,-315 1073.49,-339.2 1134.73,-341.07 1175.86,-338.78"/>
<polygon fill="midnightblue" stroke="midnightblue" points="1176.12,-342.27 1185.87,-338.11 1175.66,-335.28 1176.12,-342.27"/>
</g>
<!-- Node26 -->
<g id="node26" class="node">
<title>Node26</title>
<g id="a_node26"><a xlink:href="structsvg_1_1typography.html#a70f61596bba3e0bd67b43a8fc553dbfa" target="_top" xlink:title=" ">
<polygon fill="white" stroke="black" points="1027,-279 1027,-305 1132,-305 1132,-279 1027,-279"/>
<text text-anchor="start" x="1035" y="-294.6" font-family="SourceSans" font-size="8.00">svg::typography::add</text>
<text text-anchor="middle" x="1079.5" y="-285.6" font-family="SourceSans" font-size="8.00">_attribute</text>
</a>
</g>
</g>
<!-- Node25&#45;&gt;Node26 -->
<g id="edge28" class="edge">
<title>Node25&#45;&gt;Node26</title>
<path fill="none" stroke="midnightblue" d="M981,-263.06C994.84,-267.17 1010.28,-271.75 1024.73,-276.04"/>
<polygon fill="midnightblue" stroke="midnightblue" points="1023.95,-279.46 1034.53,-278.95 1025.94,-272.75 1023.95,-279.46"/>
</g>
<!-- Node27 -->
<g id="node27" class="node">
<title>Node27</title>
<g id="a_node27"><a xlink:href="namespacesvg.html#a48ac748e89e22789d1772326a98dd7b6" target="_top" xlink:title=" ">
<polygon fill="white" stroke="black" points="1174.5,-273.5 1174.5,-290.5 1269.5,-290.5 1269.5,-273.5 1174.5,-273.5"/>
<text text-anchor="middle" x="1222" y="-280.1" font-family="SourceSans" font-size="8.00">svg::string_replace</text>
</a>
</g>
</g>
<!-- Node25&#45;&gt;Node27 -->
<g id="edge36" class="edge">
<title>Node25&#45;&gt;Node27</title>
<path fill="none" stroke="midnightblue" d="M983.54,-254.35C1023.07,-258.15 1081.31,-263.98 1132,-270 1142.44,-271.24 1153.56,-272.66 1164.27,-274.08"/>
<polygon fill="midnightblue" stroke="midnightblue" points="1164.01,-277.57 1174.38,-275.43 1164.94,-270.63 1164.01,-277.57"/>
</g>
<!-- Node28 -->
<g id="node28" class="node">
<title>Node28</title>
<g id="a_node28"><a xlink:href="structsvg_1_1typography.html#a174c1ffb4e56214d71523ffe7e422561" target="_top" xlink:title=" ">
<polygon fill="white" stroke="black" points="1173,-209 1173,-235 1271,-235 1271,-209 1173,-209"/>
<text text-anchor="start" x="1181" y="-224.6" font-family="SourceSans" font-size="8.00">svg::typography::to</text>
<text text-anchor="middle" x="1222" y="-215.6" font-family="SourceSans" font-size="8.00">_string</text>
</a>
</g>
</g>
<!-- Node25&#45;&gt;Node28 -->
<g id="edge37" class="edge">
<title>Node25&#45;&gt;Node28</title>
<path fill="none" stroke="midnightblue" d="M983.61,-242C997.54,-239.81 1012.86,-237.61 1027,-236 1072.43,-230.84 1124.07,-227.22 1162.65,-224.96"/>
<polygon fill="midnightblue" stroke="midnightblue" points="1162.88,-228.45 1172.66,-224.38 1162.48,-221.46 1162.88,-228.45"/>
</g>
<!-- Node29 -->
<g id="node29" class="node">
<title>Node29</title>
<g id="a_node29"><a xlink:href="group__elements.html#a53d72a7ff728ad1d4d027254530bcf3d" target="_top" xlink:title="Common transforms include rotate(180)">
<polygon fill="white" stroke="black" points="1029,-433 1029,-459 1130,-459 1130,-433 1029,-433"/>
<text text-anchor="start" x="1037" y="-448.6" font-family="SourceSans" font-size="8.00">svg::element_base::</text>
<text text-anchor="middle" x="1079.5" y="-439.6" font-family="SourceSans" font-size="8.00">add_transform</text>
</a>
</g>
</g>
<!-- Node25&#45;&gt;Node29 -->
<g id="edge32" class="edge">
<title>Node25&#45;&gt;Node29</title>
<path fill="none" stroke="midnightblue" d="M977.1,-263.11C982.15,-265.86 986.95,-269.13 991,-273 1017.72,-298.55 1010.4,-314.96 1027,-348 1040.2,-374.27 1056.01,-404.14 1066.6,-423.92"/>
<polygon fill="midnightblue" stroke="midnightblue" points="1063.54,-425.61 1071.35,-432.76 1069.71,-422.3 1063.54,-425.61"/>
</g>
<!-- Node26&#45;&gt;Node17 -->
<g id="edge31" class="edge">
<title>Node26&#45;&gt;Node17</title>
<path fill="none" stroke="midnightblue" d="M1124.18,-305.06C1142.94,-310.67 1164.67,-317.16 1182.78,-322.57"/>
<polygon fill="midnightblue" stroke="midnightblue" points="1181.84,-325.95 1192.42,-325.46 1183.85,-319.24 1181.84,-325.95"/>
</g>
<!-- Node26&#45;&gt;Node27 -->
<g id="edge29" class="edge">
<title>Node26&#45;&gt;Node27</title>
<path fill="none" stroke="midnightblue" d="M1132.02,-288.33C1142.46,-287.59 1153.51,-286.8 1164.12,-286.05"/>
<polygon fill="midnightblue" stroke="midnightblue" points="1164.42,-289.54 1174.14,-285.34 1163.92,-282.55 1164.42,-289.54"/>
</g>
<!-- Node26&#45;&gt;Node28 -->
<g id="edge30" class="edge">
<title>Node26&#45;&gt;Node28</title>
<path fill="none" stroke="midnightblue" d="M1106.6,-279C1128.83,-267.92 1161,-251.9 1185.56,-239.66"/>
<polygon fill="midnightblue" stroke="midnightblue" points="1187.18,-242.76 1194.57,-235.17 1184.05,-236.5 1187.18,-242.76"/>
</g>
<!-- Node29&#45;&gt;Node7 -->
<g id="edge33" class="edge">
<title>Node29&#45;&gt;Node7</title>
<path fill="none" stroke="midnightblue" d="M1130.04,-446.35C1139.09,-446.42 1148.64,-446.48 1158.02,-446.55"/>
<polygon fill="midnightblue" stroke="midnightblue" points="1158.07,-450.05 1168.1,-446.62 1158.12,-443.05 1158.07,-450.05"/>
</g>
<!-- Node29&#45;&gt;Node8 -->
<g id="edge34" class="edge">
<title>Node29&#45;&gt;Node8</title>
<path fill="none" stroke="midnightblue" d="M1127.68,-459.09C1144.71,-463.82 1163.78,-469.12 1180.22,-473.68"/>
<polygon fill="midnightblue" stroke="midnightblue" points="1179.5,-477.11 1190.07,-476.41 1181.37,-470.37 1179.5,-477.11"/>
</g>
<!-- Node32&#45;&gt;Node4 -->
<g id="edge44" class="edge">
<title>Node32&#45;&gt;Node4</title>
<path fill="none" stroke="midnightblue" d="M830.72,-135.17C836.03,-137.64 841,-140.84 845,-145 885.95,-187.6 841.63,-228.93 881,-273 881.87,-273.98 882.79,-274.91 883.76,-275.8"/>
<polygon fill="midnightblue" stroke="midnightblue" points="881.77,-278.69 891.87,-281.89 885.97,-273.09 881.77,-278.69"/>
</g>
<!-- Node32&#45;&gt;Node25 -->
<g id="edge43" class="edge">
<title>Node32&#45;&gt;Node25</title>
<path fill="none" stroke="midnightblue" d="M826.88,-135.56C833.27,-137.99 839.58,-141.09 845,-145 866.91,-160.82 863.58,-173.34 881,-194 891.27,-206.18 903.53,-219.02 913.78,-229.33"/>
<polygon fill="midnightblue" stroke="midnightblue" points="911.6,-232.1 921.16,-236.67 916.54,-227.13 911.6,-232.1"/>
</g>
<!-- Node32&#45;&gt;Node30 -->
<g id="edge45" class="edge">
<title>Node32&#45;&gt;Node30</title>
<path fill="none" stroke="midnightblue" d="M830.81,-127C845.55,-127 862.44,-127 878.26,-127"/>
<polygon fill="midnightblue" stroke="midnightblue" points="878.47,-130.5 888.47,-127 878.47,-123.5 878.47,-130.5"/>
</g>
<!-- Node32&#45;&gt;Node31 -->
<g id="edge47" class="edge">
<title>Node32&#45;&gt;Node31</title>
<path fill="none" stroke="midnightblue" d="M817.21,-135.57C835.81,-141.32 860.89,-149.08 883.13,-155.96"/>
<polygon fill="midnightblue" stroke="midnightblue" points="882.2,-159.33 892.78,-158.94 884.26,-152.64 882.2,-159.33"/>
</g>
<!-- Node33 -->
<g id="node33" class="node">
<title>Node33</title>
<g id="a_node33"><a xlink:href="structsvg_1_1transform.html#acf9836f4ba647f0dd2b53963a0f714d0" target="_top" xlink:title=" ">
<polygon fill="white" stroke="black" points="882.5,-77.5 882.5,-94.5 989.5,-94.5 989.5,-77.5 882.5,-77.5"/>
<text text-anchor="middle" x="936" y="-84.1" font-family="SourceSans" font-size="8.00">svg::transform::rotate</text>
</a>
</g>
</g>
<!-- Node32&#45;&gt;Node33 -->
<g id="edge46" class="edge">
<title>Node32&#45;&gt;Node33</title>
<path fill="none" stroke="midnightblue" d="M820,-118.41C841.73,-112.28 871.15,-103.99 894.8,-97.33"/>
<polygon fill="midnightblue" stroke="midnightblue" points="895.86,-100.66 904.54,-94.58 893.96,-93.93 895.86,-100.66"/>
</g>
<!-- Node34&#45;&gt;Node24 -->
<g id="edge49" class="edge">
<title>Node34&#45;&gt;Node24</title>
<path fill="none" stroke="midnightblue" d="M670,-135.53C691.3,-140.51 718.39,-146.85 741.19,-152.17"/>
<polygon fill="midnightblue" stroke="midnightblue" points="740.47,-155.6 751,-154.47 742.06,-148.78 740.47,-155.6"/>
</g>
<!-- Node34&#45;&gt;Node32 -->
<g id="edge50" class="edge">
<title>Node34&#45;&gt;Node32</title>
<path fill="none" stroke="midnightblue" d="M679.71,-127C697.49,-127 717.9,-127 736.14,-127"/>
<polygon fill="midnightblue" stroke="midnightblue" points="736.3,-130.5 746.3,-127 736.3,-123.5 736.3,-130.5"/>
</g>
<!-- Node36&#45;&gt;Node15 -->
<g id="edge54" class="edge">
<title>Node36&#45;&gt;Node15</title>
<path fill="none" stroke="midnightblue" d="M521.23,-285.78C535.98,-286.48 553.29,-287.3 569.76,-288.08"/>
<polygon fill="midnightblue" stroke="midnightblue" points="569.73,-291.58 579.88,-288.56 570.06,-284.59 569.73,-291.58"/>
</g>
<!-- Node37 -->
<g id="node37" class="node">
<title>Node37</title>
<g id="a_node37"><a xlink:href="namespacesvg.html#a673cb54838801fae8471436ce43298a9" target="_top" xlink:title="Scale value from min to max on range (nfloor, nceil).">
<polygon fill="white" stroke="black" points="580.5,-237 580.5,-263 684.5,-263 684.5,-237 580.5,-237"/>
<text text-anchor="start" x="588.5" y="-252.6" font-family="SourceSans" font-size="8.00">svg::normalize_value</text>
<text text-anchor="middle" x="632.5" y="-243.6" font-family="SourceSans" font-size="8.00">_on_range</text>
</a>
</g>
</g>
<!-- Node36&#45;&gt;Node37 -->
<g id="edge55" class="edge">
<title>Node36&#45;&gt;Node37</title>
<path fill="none" stroke="midnightblue" d="M520.85,-275.42C535.95,-271.95 553.78,-267.85 570.67,-263.98"/>
<polygon fill="midnightblue" stroke="midnightblue" points="571.51,-267.37 580.47,-261.72 569.94,-260.55 571.51,-267.37"/>
</g>
</g>
</svg>
        <g id="navigator" transform="translate(0 0)" fill="#404254">
                <rect fill="#f2f5e9" fill-opacity="0.5" stroke="#606060" stroke-width=".5" x="0" y="0" width="60" height="60"/>
                <use id="zoomplus" xlink:href="#zoomPlus" x="17" y="9" onmousedown="handleZoom(evt,'in')"/>
                <use id="zoomminus" xlink:href="#zoomMin" x="42" y="9" onmousedown="handleZoom(evt,'out')"/>
                <use id="reset" xlink:href="#resetDef" x="30" y="36" onmousedown="handleReset()"/>
                <g id="arrowUp" xlink:href="#dirArrow" transform="translate(30 24)" onmousedown="handlePan(0,-1)">
                  <use xlink:href="#rim" fill="#404040">
                        <set attributeName="fill" to="#808080" begin="arrowUp.mouseover" end="arrowUp.mouseout"/>
                  </use>
                  <path fill="none" stroke="white" stroke-width="1.5" d="M0,-3.0v7 M-2.5,-0.5L0,-3.0L2.5,-0.5"/>
                </g>
                <g id="arrowRight" xlink:href="#dirArrow" transform="rotate(90) translate(36 -43)" onmousedown="handlePan(1,0)">
                  <use xlink:href="#rim" fill="#404040">
                        <set attributeName="fill" to="#808080" begin="arrowRight.mouseover" end="arrowRight.mouseout"/>
                  </use>
                  <path fill="none" stroke="white" stroke-width="1.5" d="M0,-3.0v7 M-2.5,-0.5L0,-3.0L2.5,-0.5"/>
                </g>
                <g id="arrowDown" xlink:href="#dirArrow" transform="rotate(180) translate(-30 -48)" onmousedown="handlePan(0,1)">
                  <use xlink:href="#rim" fill="#404040">
                        <set attributeName="fill" to="#808080" begin="arrowDown.mouseover" end="arrowDown.mouseout"/>
                  </use>
                  <path fill="none" stroke="white" stroke-width="1.5" d="M0,-3.0v7 M-2.5,-0.5L0,-3.0L2.5,-0.5"/>
                </g>
                <g id="arrowLeft" xlink:href="#dirArrow" transform="rotate(270) translate(-36 17)" onmousedown="handlePan(-1,0)">
                  <use xlink:href="#rim" fill="#404040">
                        <set attributeName="fill" to="#808080" begin="arrowLeft.mouseover" end="arrowLeft.mouseout"/>
                  </use>
                  <path fill="none" stroke="white" stroke-width="1.5" d="M0,-3.0v7 M-2.5,-0.5L0,-3.0L2.5,-0.5"/>
                </g>
        </g>
        <svg viewBox="0 0 15 15" width="100%" height="30px" preserveAspectRatio="xMaxYMin meet">
         <g id="arrow_out" transform="scale(0.3 0.3)">
          <a xlink:href="namespacesvg_a66e68ecdb41a596b05c857e0aea16a4f_cgraph_org.svg" target="_base">
           <rect id="button" ry="5" rx="5" y="6" x="6" height="38" width="38"
                fill="#f2f5e9" fill-opacity="0.5" stroke="#606060" stroke-width="1.0"/>
           <path id="arrow"
             d="M 11.500037,31.436501 C 11.940474,20.09759 22.043105,11.32322 32.158766,21.979434 L 37.068811,17.246167 C 37.068811,17.246167 37.088388,32 37.088388,32 L 22.160133,31.978069 C 22.160133,31.978069 26.997745,27.140456 26.997745,27.140456 C 18.528582,18.264221 13.291696,25.230495 11.500037,31.436501 z"
             style="fill:#404040;"/>
          </a>
         </g>
        </svg>
</svg>
