<?xml version="1.0" encoding="UTF-8" standalone="no"?>
<!DOCTYPE svg PUBLIC "-//W3C//DTD SVG 1.1//EN"
 "http://www.w3.org/Graphics/SVG/1.1/DTD/svg11.dtd">
<!-- Generated by graphviz version 12.2.1 (20241206.2353)
 -->
<!-- Title: /home/bkoz/src/izzi/src/a60&#45;svg&#45;radial.h Pages: 1 -->
<!--zoomable 270 -->

<svg id="main" version="1.1" xmlns="http://www.w3.org/2000/svg" xmlns:xlink="http://www.w3.org/1999/xlink" xml:space="preserve" onload="init(evt)">

<style type="text/css"><![CDATA[
.node, .edge {opacity: 0.7;}
.node.selected, .edge.selected {opacity: 1;}
.edge:hover path { stroke: red; }
.edge:hover polygon { stroke: red; fill: red; }
]]></style>

<defs>
  <circle id="rim" cx="0" cy="0" r="7"/>
  <circle id="rim2" cx="0" cy="0" r="3.5"/>
  <g id="zoomPlus">
    <use xlink:href="#rim" fill="#404040"><set attributeName="fill" to="#808080" begin="zoomplus.mouseover" end="zoomplus.mouseout"/></use>
    <path d="M-4,0h8M0,-4v8" fill="none" stroke="white" stroke-width="1.5" pointer-events="none"/>
  </g>
  <g id="zoomMin">
    <use xlink:href="#rim" fill="#404040"><set attributeName="fill" to="#808080" begin="zoomminus.mouseover" end="zoomminus.mouseout"/></use>
    <path d="M-4,0h8" fill="none" stroke="white" stroke-width="1.5" pointer-events="none"/>
  </g>
  <g id="arrowUp" transform="translate(30 24)">
    <use xlink:href="#rim"/>
    <path pointer-events="none" fill="none" stroke="white" stroke-width="1.5" d="M0,-3.0v7 M-2.5,-0.5L0,-3.0L2.5,-0.5"/>
  </g>
  <g id="arrowRight" transform="rotate(90) translate(36 -43)">
    <use xlink:href="#rim"/>
    <path pointer-events="none" fill="none" stroke="white" stroke-width="1.5" d="M0,-3.0v7 M-2.5,-0.5L0,-3.0L2.5,-0.5"/>
  </g>
  <g id="arrowDown" transform="rotate(180) translate(-30 -48)">
    <use xlink:href="#rim"/>
    <path pointer-events="none" fill="none" stroke="white" stroke-width="1.5" d="M0,-3.0v7 M-2.5,-0.5L0,-3.0L2.5,-0.5"/>
  </g>
  <g id="arrowLeft" transform="rotate(270) translate(-36 17)">
    <use xlink:href="#rim"/>
    <path pointer-events="none" fill="none" stroke="white" stroke-width="1.5" d="M0,-3.0v7 M-2.5,-0.5L0,-3.0L2.5,-0.5"/>
  </g>
  <g id="resetDef">
    <use xlink:href="#rim2" fill="#404040"><set attributeName="fill" to="#808080" begin="reset.mouseover" end="reset.mouseout"/></use>
  </g>
</defs>
<script type="application/ecmascript">
var viewWidth = 2183;
var viewHeight = 270;
var sectionId = 'dynsection-0';
</script>
<script type="application/ecmascript" xlink:href="svg.min.js"/>
<svg id="graph" class="graph">
<g id="viewport">
<title>/home/bkoz/src/izzi/src/a60&#45;svg&#45;radial.h</title>
<!-- Node1 -->
<g id="Node000001" class="node">
<title>Node1</title>
<g id="a_Node000001"><a xlink:title=" ">
<polygon fill="#999999" stroke="#666666" points="369.39,-262 268.64,-262 268.64,-234.5 369.39,-234.5 369.39,-262"/>
<text text-anchor="start" x="276.64" y="-250.4" font-family="SourceSans" font-size="8.00">/home/bkoz/src/izzi</text>
<text text-anchor="middle" x="319.01" y="-240.65" font-family="SourceSans" font-size="8.00">/src/a60&#45;svg&#45;radial.h</text>
</a>
</g>
</g>
<!-- Node2 -->
<g id="Node000002" class="node">
<title>Node2</title>
<g id="a_Node000002"><a xlink:href="a60-svg-radial-base_8h.html" target="_top" xlink:title=" ">
<polygon fill="white" stroke="#666666" points="182.01,-193.62 76.01,-193.62 76.01,-175.88 182.01,-175.88 182.01,-193.62"/>
<text text-anchor="middle" x="129.01" y="-182.03" font-family="SourceSans" font-size="8.00">a60&#45;svg&#45;radial&#45;base.h</text>
</a>
</g>
</g>
<!-- Node1&#45;&gt;Node2 -->
<g id="edge1_Node000001_Node000002" class="edge">
<title>Node1&#45;&gt;Node2</title>
<g id="a_edge1_Node000001_Node000002"><a xlink:title=" ">
<path fill="none" stroke="#63b8ff" d="M278.25,-234.06C244.8,-223.23 197.84,-208.03 165.58,-197.59"/>
<polygon fill="#63b8ff" stroke="#63b8ff" points="166.86,-194.32 156.27,-194.57 164.71,-200.98 166.86,-194.32"/>
</a>
</g>
</g>
<!-- Node34 -->
<g id="Node000034" class="node">
<title>Node34</title>
<g id="a_Node000034"><a xlink:href="a60-svg-radial-direction-arc-glyph_8h.html" target="_top" xlink:title=" ">
<polygon fill="white" stroke="#666666" points="313.76,-198.5 200.26,-198.5 200.26,-171 313.76,-171 313.76,-198.5"/>
<text text-anchor="start" x="208.26" y="-186.9" font-family="SourceSans" font-size="8.00">a60&#45;svg&#45;radial&#45;direction</text>
<text text-anchor="middle" x="257.01" y="-177.15" font-family="SourceSans" font-size="8.00">&#45;arc&#45;glyph.h</text>
</a>
</g>
</g>
<!-- Node1&#45;&gt;Node34 -->
<g id="edge41_Node000001_Node000034" class="edge">
<title>Node1&#45;&gt;Node34</title>
<g id="a_edge41_Node000001_Node000034"><a xlink:title=" ">
<path fill="none" stroke="#63b8ff" d="M305.86,-234.21C297.81,-226.22 287.31,-215.81 278.12,-206.68"/>
<polygon fill="#63b8ff" stroke="#63b8ff" points="280.78,-204.4 271.22,-199.84 275.85,-209.37 280.78,-204.4"/>
</a>
</g>
</g>
<!-- Node35 -->
<g id="Node000035" class="node">
<title>Node35</title>
<g id="a_Node000035"><a xlink:href="a60-svg-radial-arc_8h.html" target="_top" xlink:title=" ">
<polygon fill="white" stroke="#666666" points="430.26,-193.62 331.76,-193.62 331.76,-175.88 430.26,-175.88 430.26,-193.62"/>
<text text-anchor="middle" x="381.01" y="-182.03" font-family="SourceSans" font-size="8.00">a60&#45;svg&#45;radial&#45;arc.h</text>
</a>
</g>
</g>
<!-- Node1&#45;&gt;Node35 -->
<g id="edge42_Node000001_Node000035" class="edge">
<title>Node1&#45;&gt;Node35</title>
<g id="a_edge42_Node000001_Node000035"><a xlink:title=" ">
<path fill="none" stroke="#63b8ff" d="M332.16,-234.21C341.62,-224.83 354.44,-212.11 364.57,-202.06"/>
<polygon fill="#63b8ff" stroke="#63b8ff" points="366.92,-204.65 371.56,-195.13 362,-199.68 366.92,-204.65"/>
</a>
</g>
</g>
<!-- Node36 -->
<g id="Node000036" class="node">
<title>Node36</title>
<g id="a_Node000036"><a xlink:href="a60-svg-radial-kusama_8h.html" target="_top" xlink:title=" ">
<polygon fill="white" stroke="#666666" points="566.01,-193.62 448.01,-193.62 448.01,-175.88 566.01,-175.88 566.01,-193.62"/>
<text text-anchor="middle" x="507.01" y="-182.03" font-family="SourceSans" font-size="8.00">a60&#45;svg&#45;radial&#45;kusama.h</text>
</a>
</g>
</g>
<!-- Node1&#45;&gt;Node36 -->
<g id="edge43_Node000001_Node000036" class="edge">
<title>Node1&#45;&gt;Node36</title>
<g id="a_edge43_Node000001_Node000036"><a xlink:title=" ">
<path fill="none" stroke="#63b8ff" d="M359.34,-234.06C392.45,-223.23 438.91,-208.03 470.82,-197.59"/>
<polygon fill="#63b8ff" stroke="#63b8ff" points="471.61,-201.01 480.02,-194.58 469.43,-194.36 471.61,-201.01"/>
</a>
</g>
</g>
<!-- Node3 -->
<g id="Node000003" class="node">
<title>Node3</title>
<g id="a_Node000003"><a xlink:title=" ">
<polygon fill="#e0e0e0" stroke="#999999" points="212.41,-76.38 183.61,-76.38 183.61,-58.62 212.41,-58.62 212.41,-76.38"/>
<text text-anchor="middle" x="198.01" y="-64.78" font-family="SourceSans" font-size="8.00">set</text>
</a>
</g>
</g>
<!-- Node2&#45;&gt;Node3 -->
<g id="edge2_Node000002_Node000003" class="edge">
<title>Node2&#45;&gt;Node3</title>
<g id="a_edge2_Node000002_Node000003"><a xlink:title=" ">
<path fill="none" stroke="#63b8ff" d="M137.43,-175.38C146.38,-166.13 160.55,-150.47 170.01,-135 179.31,-119.79 186.93,-100.94 191.85,-87.2"/>
<polygon fill="#63b8ff" stroke="#63b8ff" points="195.04,-88.68 194.98,-78.09 188.42,-86.41 195.04,-88.68"/>
</a>
</g>
</g>
<!-- Node4 -->
<g id="Node000004" class="node">
<title>Node4</title>
<g id="a_Node000004"><a xlink:title=" ">
<polygon fill="#e0e0e0" stroke="#999999" points="57.89,-135 14.14,-135 14.14,-117.25 57.89,-117.25 57.89,-135"/>
<text text-anchor="middle" x="36.01" y="-123.4" font-family="SourceSans" font-size="8.00">chrono</text>
</a>
</g>
</g>
<!-- Node2&#45;&gt;Node4 -->
<g id="edge3_Node000002_Node000004" class="edge">
<title>Node2&#45;&gt;Node4</title>
<g id="a_edge3_Node000002_Node000004"><a xlink:title=" ">
<path fill="none" stroke="#63b8ff" d="M115.29,-175.39C100.51,-166.39 76.73,-151.92 59.07,-141.16"/>
<polygon fill="#63b8ff" stroke="#63b8ff" points="61.14,-138.33 50.78,-136.12 57.5,-144.31 61.14,-138.33"/>
</a>
</g>
</g>
<!-- Node5 -->
<g id="Node000005" class="node">
<title>Node5</title>
<g id="a_Node000005"><a xlink:title=" ">
<polygon fill="#e0e0e0" stroke="#999999" points="127.64,-135 76.39,-135 76.39,-117.25 127.64,-117.25 127.64,-135"/>
<text text-anchor="middle" x="102.01" y="-123.4" font-family="SourceSans" font-size="8.00">iostream</text>
</a>
</g>
</g>
<!-- Node2&#45;&gt;Node5 -->
<g id="edge4_Node000002_Node000005" class="edge">
<title>Node2&#45;&gt;Node5</title>
<g id="a_edge4_Node000002_Node000005"><a xlink:title=" ">
<path fill="none" stroke="#63b8ff" d="M125.03,-175.39C121.28,-167.53 115.53,-155.48 110.72,-145.38"/>
<polygon fill="#63b8ff" stroke="#63b8ff" points="113.95,-144.03 106.49,-136.51 107.63,-147.05 113.95,-144.03"/>
</a>
</g>
</g>
<!-- Node6 -->
<g id="Node000006" class="node">
<title>Node6</title>
<g id="a_Node000006"><a xlink:title=" ">
<polygon fill="#e0e0e0" stroke="#999999" points="571.51,-17.75 522.51,-17.75 522.51,0 571.51,0 571.51,-17.75"/>
<text text-anchor="middle" x="547.01" y="-6.15" font-family="SourceSans" font-size="8.00">iomanip</text>
</a>
</g>
</g>
<!-- Node2&#45;&gt;Node6 -->
<g id="edge5_Node000002_Node000006" class="edge">
<title>Node2&#45;&gt;Node6</title>
<g id="a_edge5_Node000002_Node000006"><a xlink:title=" ">
<path fill="none" stroke="#63b8ff" d="M75.59,-175.5C33.43,-166.46 -15.17,-148.85 5.01,-117.25 60,-31.16 398.66,-13.99 510.91,-10.66"/>
<polygon fill="#63b8ff" stroke="#63b8ff" points="510.84,-14.16 520.74,-10.39 510.65,-7.16 510.84,-14.16"/>
</a>
</g>
</g>
<!-- Node7 -->
<g id="Node000007" class="node">
<title>Node7</title>
<g id="a_Node000007"><a xlink:title=" ">
<polygon fill="#e0e0e0" stroke="#999999" points="1205.51,-17.75 1150.51,-17.75 1150.51,0 1205.51,0 1205.51,-17.75"/>
<text text-anchor="middle" x="1178.01" y="-6.15" font-family="SourceSans" font-size="8.00">algorithm</text>
</a>
</g>
</g>
<!-- Node2&#45;&gt;Node7 -->
<g id="edge6_Node000002_Node000007" class="edge">
<title>Node2&#45;&gt;Node7</title>
<g id="a_edge6_Node000002_Node000007"><a xlink:title=" ">
<path fill="none" stroke="#63b8ff" d="M130.66,-175.63C136.11,-149.59 154.42,-68.99 175.01,-53.75 214.38,-24.61 958.18,-12.81 1138.76,-10.37"/>
<polygon fill="#63b8ff" stroke="#63b8ff" points="1138.6,-13.87 1148.55,-10.24 1138.51,-6.88 1138.6,-13.87"/>
</a>
</g>
</g>
<!-- Node8 -->
<g id="Node000008" class="node">
<title>Node8</title>
<g id="a_Node000008"><a xlink:href="a60-svg_8h.html" target="_top" xlink:title=" ">
<polygon fill="white" stroke="#666666" points="1355.26,-135 1298.76,-135 1298.76,-117.25 1355.26,-117.25 1355.26,-135"/>
<text text-anchor="middle" x="1327.01" y="-123.4" font-family="SourceSans" font-size="8.00">a60&#45;svg.h</text>
</a>
</g>
</g>
<!-- Node2&#45;&gt;Node8 -->
<g id="edge7_Node000002_Node000008" class="edge">
<title>Node2&#45;&gt;Node8</title>
<g id="a_edge7_Node000002_Node000008"><a xlink:title=" ">
<path fill="none" stroke="#63b8ff" d="M164.58,-175.39C173.19,-173.66 182.39,-172.05 191.01,-171 409.85,-144.46 1111.71,-130.83 1287.03,-127.79"/>
<polygon fill="#63b8ff" stroke="#63b8ff" points="1287.05,-131.29 1296.99,-127.62 1286.93,-124.29 1287.05,-131.29"/>
</a>
</g>
</g>
<!-- Node8&#45;&gt;Node3 -->
<g id="edge15_Node000008_Node000003" class="edge">
<title>Node8&#45;&gt;Node3</title>
<g id="a_edge15_Node000008_Node000003"><a xlink:title=" ">
<path fill="none" stroke="#63b8ff" d="M1298.4,-124.78C1135.38,-122.72 327.42,-111.03 221.01,-81.25 220.9,-81.22 220.78,-81.18 220.67,-81.15"/>
<polygon fill="#63b8ff" stroke="#63b8ff" points="222.16,-77.99 211.6,-77.23 219.39,-84.41 222.16,-77.99"/>
</a>
</g>
</g>
<!-- Node8&#45;&gt;Node7 -->
<g id="edge10_Node000008_Node000007" class="edge">
<title>Node8&#45;&gt;Node7</title>
<g id="a_edge10_Node000008_Node000007"><a xlink:title=" ">
<path fill="none" stroke="#63b8ff" d="M1298.52,-123.18C1269,-119.63 1223.56,-109.59 1197.01,-81.25 1183.87,-67.22 1179.6,-45.14 1178.33,-29.26"/>
<polygon fill="#63b8ff" stroke="#63b8ff" points="1181.84,-29.46 1177.9,-19.63 1174.85,-29.77 1181.84,-29.46"/>
</a>
</g>
</g>
<!-- Node9 -->
<g id="Node000009" class="node">
<title>Node9</title>
<g id="a_Node000009"><a xlink:title=" ">
<polygon fill="#e0e0e0" stroke="#999999" points="1350.39,-76.38 1303.64,-76.38 1303.64,-58.62 1350.39,-58.62 1350.39,-76.38"/>
<text text-anchor="middle" x="1327.01" y="-64.78" font-family="SourceSans" font-size="8.00">cstddef</text>
</a>
</g>
</g>
<!-- Node8&#45;&gt;Node9 -->
<g id="edge8_Node000008_Node000009" class="edge">
<title>Node8&#45;&gt;Node9</title>
<g id="a_edge8_Node000008_Node000009"><a xlink:title=" ">
<path fill="none" stroke="#63b8ff" d="M1327.01,-116.77C1327.01,-109.16 1327.01,-97.62 1327.01,-87.74"/>
<polygon fill="#63b8ff" stroke="#63b8ff" points="1330.51,-88.04 1327.01,-78.04 1323.51,-88.04 1330.51,-88.04"/>
</a>
</g>
</g>
<!-- Node10 -->
<g id="Node000010" class="node">
<title>Node10</title>
<g id="a_Node000010"><a xlink:title=" ">
<polygon fill="#e0e0e0" stroke="#999999" points="1409.76,-76.38 1368.26,-76.38 1368.26,-58.62 1409.76,-58.62 1409.76,-76.38"/>
<text text-anchor="middle" x="1389.01" y="-64.78" font-family="SourceSans" font-size="8.00">cmath</text>
</a>
</g>
</g>
<!-- Node8&#45;&gt;Node10 -->
<g id="edge9_Node000008_Node000010" class="edge">
<title>Node8&#45;&gt;Node10</title>
<g id="a_edge9_Node000008_Node000010"><a xlink:title=" ">
<path fill="none" stroke="#63b8ff" d="M1336.16,-116.77C1345.52,-108.23 1360.27,-94.75 1371.82,-84.2"/>
<polygon fill="#63b8ff" stroke="#63b8ff" points="1374.09,-86.87 1379.11,-77.54 1369.37,-81.7 1374.09,-86.87"/>
</a>
</g>
</g>
<!-- Node11 -->
<g id="Node000011" class="node">
<title>Node11</title>
<g id="a_Node000011"><a xlink:title=" ">
<polygon fill="#e0e0e0" stroke="#999999" points="1587.51,-76.38 1550.51,-76.38 1550.51,-58.62 1587.51,-58.62 1587.51,-76.38"/>
<text text-anchor="middle" x="1569.01" y="-64.78" font-family="SourceSans" font-size="8.00">array</text>
</a>
</g>
</g>
<!-- Node8&#45;&gt;Node11 -->
<g id="edge11_Node000008_Node000011" class="edge">
<title>Node8&#45;&gt;Node11</title>
<g id="a_edge11_Node000008_Node000011"><a xlink:title=" ">
<path fill="none" stroke="#63b8ff" d="M1355.75,-121.5C1397.53,-115.72 1477.13,-102.84 1542.01,-81.25 1542.13,-81.21 1542.24,-81.17 1542.35,-81.14"/>
<polygon fill="#63b8ff" stroke="#63b8ff" points="1543.63,-84.39 1551.59,-77.4 1541.01,-77.9 1543.63,-84.39"/>
</a>
</g>
</g>
<!-- Node12 -->
<g id="Node000012" class="node">
<title>Node12</title>
<g id="a_Node000012"><a xlink:title=" ">
<polygon fill="#e0e0e0" stroke="#999999" points="1642.51,-76.38 1605.51,-76.38 1605.51,-58.62 1642.51,-58.62 1642.51,-76.38"/>
<text text-anchor="middle" x="1624.01" y="-64.78" font-family="SourceSans" font-size="8.00">tuple</text>
</a>
</g>
</g>
<!-- Node8&#45;&gt;Node12 -->
<g id="edge12_Node000008_Node000012" class="edge">
<title>Node8&#45;&gt;Node12</title>
<g id="a_edge12_Node000008_Node000012"><a xlink:title=" ">
<path fill="none" stroke="#63b8ff" d="M1355.6,-123.12C1405.54,-119.04 1511.52,-107.8 1597.01,-81.25 1597.25,-81.18 1597.48,-81.1 1597.72,-81.03"/>
<polygon fill="#63b8ff" stroke="#63b8ff" points="1598.91,-84.32 1606.91,-77.37 1596.33,-77.81 1598.91,-84.32"/>
</a>
</g>
</g>
<!-- Node13 -->
<g id="Node000013" class="node">
<title>Node13</title>
<g id="a_Node000013"><a xlink:title=" ">
<polygon fill="#e0e0e0" stroke="#999999" points="1699.64,-76.38 1660.39,-76.38 1660.39,-58.62 1699.64,-58.62 1699.64,-76.38"/>
<text text-anchor="middle" x="1680.01" y="-64.78" font-family="SourceSans" font-size="8.00">string</text>
</a>
</g>
</g>
<!-- Node8&#45;&gt;Node13 -->
<g id="edge13_Node000008_Node000013" class="edge">
<title>Node8&#45;&gt;Node13</title>
<g id="a_edge13_Node000008_Node000013"><a xlink:title=" ">
<path fill="none" stroke="#63b8ff" d="M1355.41,-124.08C1412.6,-121.37 1545.33,-112.01 1652.01,-81.25 1652.51,-81.11 1653.02,-80.95 1653.52,-80.8"/>
<polygon fill="#63b8ff" stroke="#63b8ff" points="1654.55,-84.15 1662.62,-77.29 1652.03,-77.62 1654.55,-84.15"/>
</a>
</g>
</g>
<!-- Node14 -->
<g id="Node000014" class="node">
<title>Node14</title>
<g id="a_Node000014"><a xlink:title=" ">
<polygon fill="#e0e0e0" stroke="#999999" points="1758.76,-76.38 1717.26,-76.38 1717.26,-58.62 1758.76,-58.62 1758.76,-76.38"/>
<text text-anchor="middle" x="1738.01" y="-64.78" font-family="SourceSans" font-size="8.00">vector</text>
</a>
</g>
</g>
<!-- Node8&#45;&gt;Node14 -->
<g id="edge14_Node000008_Node000014" class="edge">
<title>Node8&#45;&gt;Node14</title>
<g id="a_edge14_Node000008_Node000014"><a xlink:title=" ">
<path fill="none" stroke="#63b8ff" d="M1355.35,-124.75C1419.47,-123.29 1580.14,-116.13 1709.01,-81.25 1709.66,-81.07 1710.31,-80.89 1710.96,-80.69"/>
<polygon fill="#63b8ff" stroke="#63b8ff" points="1711.88,-84.08 1720.03,-77.32 1709.44,-77.52 1711.88,-84.08"/>
</a>
</g>
</g>
<!-- Node15 -->
<g id="Node000015" class="node">
<title>Node15</title>
<g id="a_Node000015"><a xlink:title=" ">
<polygon fill="#e0e0e0" stroke="#999999" points="1856.89,-76.38 1777.14,-76.38 1777.14,-58.62 1856.89,-58.62 1856.89,-76.38"/>
<text text-anchor="middle" x="1817.01" y="-64.78" font-family="SourceSans" font-size="8.00">unordered_map</text>
</a>
</g>
</g>
<!-- Node8&#45;&gt;Node15 -->
<g id="edge16_Node000008_Node000015" class="edge">
<title>Node8&#45;&gt;Node15</title>
<g id="a_edge16_Node000008_Node000015"><a xlink:title=" ">
<path fill="none" stroke="#63b8ff" d="M1355.6,-123.82C1426.13,-120.27 1613.88,-108.8 1768.01,-81.25 1770.85,-80.74 1773.77,-80.16 1776.69,-79.52"/>
<polygon fill="#63b8ff" stroke="#63b8ff" points="1777.5,-82.92 1786.42,-77.22 1775.89,-76.11 1777.5,-82.92"/>
</a>
</g>
</g>
<!-- Node16 -->
<g id="Node000016" class="node">
<title>Node16</title>
<g id="a_Node000016"><a xlink:title=" ">
<polygon fill="#e0e0e0" stroke="#999999" points="2045.14,-76.38 1996.89,-76.38 1996.89,-58.62 2045.14,-58.62 2045.14,-76.38"/>
<text text-anchor="middle" x="2021.01" y="-64.78" font-family="SourceSans" font-size="8.00">sstream</text>
</a>
</g>
</g>
<!-- Node8&#45;&gt;Node16 -->
<g id="edge17_Node000008_Node000016" class="edge">
<title>Node8&#45;&gt;Node16</title>
<g id="a_edge17_Node000008_Node000016"><a xlink:title=" ">
<path fill="none" stroke="#63b8ff" d="M1355.6,-124.38C1466.01,-121.3 1864.62,-108.52 1988.01,-81.25 1989.21,-80.98 1990.42,-80.68 1991.64,-80.35"/>
<polygon fill="#63b8ff" stroke="#63b8ff" points="1992.63,-83.71 2001.03,-77.26 1990.44,-77.06 1992.63,-83.71"/>
</a>
</g>
</g>
<!-- Node17 -->
<g id="Node000017" class="node">
<title>Node17</title>
<g id="a_Node000017"><a xlink:href="a60-svg-color_8h.html" target="_top" xlink:title=" ">
<polygon fill="white" stroke="#666666" points="1285.89,-76.38 1206.14,-76.38 1206.14,-58.62 1285.89,-58.62 1285.89,-76.38"/>
<text text-anchor="middle" x="1246.01" y="-64.78" font-family="SourceSans" font-size="8.00">a60&#45;svg&#45;color.h</text>
</a>
</g>
</g>
<!-- Node8&#45;&gt;Node17 -->
<g id="edge18_Node000008_Node000017" class="edge">
<title>Node8&#45;&gt;Node17</title>
<g id="a_edge18_Node000008_Node000017"><a xlink:title=" ">
<path fill="none" stroke="#63b8ff" d="M1315.06,-116.77C1302.43,-107.94 1282.25,-93.83 1266.96,-83.14"/>
<polygon fill="#63b8ff" stroke="#63b8ff" points="1269.19,-80.43 1258.99,-77.57 1265.18,-86.17 1269.19,-80.43"/>
</a>
</g>
</g>
<!-- Node20 -->
<g id="Node000020" class="node">
<title>Node20</title>
<g id="a_Node000020"><a xlink:href="a60-svg-color-palette_8h.html" target="_top" xlink:title=" ">
<polygon fill="white" stroke="#666666" points="2175.01,-76.38 2063.01,-76.38 2063.01,-58.62 2175.01,-58.62 2175.01,-76.38"/>
<text text-anchor="middle" x="2119.01" y="-64.78" font-family="SourceSans" font-size="8.00">a60&#45;svg&#45;color&#45;palette.h</text>
</a>
</g>
</g>
<!-- Node8&#45;&gt;Node20 -->
<g id="edge23_Node000008_Node000020" class="edge">
<title>Node8&#45;&gt;Node20</title>
<g id="a_edge23_Node000008_Node000020"><a xlink:title=" ">
<path fill="none" stroke="#63b8ff" d="M1355.55,-124.77C1453.32,-123.26 1783.72,-115.76 2054.01,-81.25 2059.23,-80.58 2064.65,-79.75 2070.05,-78.83"/>
<polygon fill="#63b8ff" stroke="#63b8ff" points="2070.3,-82.34 2079.51,-77.11 2069.05,-75.45 2070.3,-82.34"/>
</a>
</g>
</g>
<!-- Node21 -->
<g id="Node000021" class="node">
<title>Node21</title>
<g id="a_Node000021"><a xlink:href="a60-svg-color-colorband_8h.html" target="_top" xlink:title=" ">
<polygon fill="white" stroke="#666666" points="354.01,-76.38 230.01,-76.38 230.01,-58.62 354.01,-58.62 354.01,-76.38"/>
<text text-anchor="middle" x="292.01" y="-64.78" font-family="SourceSans" font-size="8.00">a60&#45;svg&#45;color&#45;colorband.h</text>
</a>
</g>
</g>
<!-- Node8&#45;&gt;Node21 -->
<g id="edge24_Node000008_Node000021" class="edge">
<title>Node8&#45;&gt;Node21</title>
<g id="a_edge24_Node000008_Node000021"><a xlink:title=" ">
<path fill="none" stroke="#63b8ff" d="M1298.51,-125.2C1182.05,-125.22 730.96,-122.48 363.01,-81.25 356.94,-80.57 350.61,-79.69 344.34,-78.7"/>
<polygon fill="#63b8ff" stroke="#63b8ff" points="345.11,-75.28 334.67,-77.09 343.96,-82.19 345.11,-75.28"/>
</a>
</g>
</g>
<!-- Node22 -->
<g id="Node000022" class="node">
<title>Node22</title>
<g id="a_Node000022"><a xlink:href="a60-svg-base-types_8h.html" target="_top" xlink:title=" ">
<polygon fill="white" stroke="#666666" points="1532.64,-76.38 1427.39,-76.38 1427.39,-58.62 1532.64,-58.62 1532.64,-76.38"/>
<text text-anchor="middle" x="1480.01" y="-64.78" font-family="SourceSans" font-size="8.00">a60&#45;svg&#45;base&#45;types.h</text>
</a>
</g>
</g>
<!-- Node8&#45;&gt;Node22 -->
<g id="edge25_Node000008_Node000022" class="edge">
<title>Node8&#45;&gt;Node22</title>
<g id="a_edge25_Node000008_Node000022"><a xlink:title=" ">
<path fill="none" stroke="#63b8ff" d="M1349.59,-116.77C1375.39,-107.22 1417.83,-91.51 1447.26,-80.62"/>
<polygon fill="#63b8ff" stroke="#63b8ff" points="1448.26,-83.98 1456.42,-77.23 1445.83,-77.42 1448.26,-83.98"/>
</a>
</g>
</g>
<!-- Node26 -->
<g id="Node000026" class="node">
<title>Node26</title>
<g id="a_Node000026"><a xlink:href="a60-svg-constants_8h.html" target="_top" xlink:title=" ">
<polygon fill="white" stroke="#666666" points="472.01,-76.38 372.01,-76.38 372.01,-58.62 472.01,-58.62 472.01,-76.38"/>
<text text-anchor="middle" x="422.01" y="-64.78" font-family="SourceSans" font-size="8.00">a60&#45;svg&#45;constants.h</text>
</a>
</g>
</g>
<!-- Node8&#45;&gt;Node26 -->
<g id="edge30_Node000008_Node000026" class="edge">
<title>Node8&#45;&gt;Node26</title>
<g id="a_edge30_Node000008_Node000026"><a xlink:title=" ">
<path fill="none" stroke="#63b8ff" d="M1298.38,-125.31C1190.64,-125.63 799.56,-123.65 481.01,-81.25 476.58,-80.66 471.99,-79.91 467.41,-79.08"/>
<polygon fill="#63b8ff" stroke="#63b8ff" points="468.14,-75.65 457.65,-77.15 466.78,-82.52 468.14,-75.65"/>
</a>
</g>
</g>
<!-- Node27 -->
<g id="Node000027" class="node">
<title>Node27</title>
<g id="a_Node000027"><a xlink:href="a60-svg-elements_8h.html" target="_top" xlink:title=" ">
<polygon fill="white" stroke="#666666" points="587.89,-76.38 490.14,-76.38 490.14,-58.62 587.89,-58.62 587.89,-76.38"/>
<text text-anchor="middle" x="539.01" y="-64.78" font-family="SourceSans" font-size="8.00">a60&#45;svg&#45;elements.h</text>
</a>
</g>
</g>
<!-- Node8&#45;&gt;Node27 -->
<g id="edge31_Node000008_Node000027" class="edge">
<title>Node8&#45;&gt;Node27</title>
<g id="a_edge31_Node000008_Node000027"><a xlink:title=" ">
<path fill="none" stroke="#63b8ff" d="M1298.33,-125.01C1200.05,-124.27 868.01,-118.94 597.01,-81.25 592.66,-80.64 588.14,-79.89 583.64,-79.04"/>
<polygon fill="#63b8ff" stroke="#63b8ff" points="584.57,-75.66 574.07,-77.11 583.18,-82.52 584.57,-75.66"/>
</a>
</g>
</g>
<!-- Node28 -->
<g id="Node000028" class="node">
<title>Node28</title>
<g id="a_Node000028"><a xlink:href="a60-svg-elements-components_8h.html" target="_top" xlink:title=" ">
<polygon fill="white" stroke="#666666" points="757.89,-76.38 606.14,-76.38 606.14,-58.62 757.89,-58.62 757.89,-76.38"/>
<text text-anchor="middle" x="682.01" y="-64.78" font-family="SourceSans" font-size="8.00">a60&#45;svg&#45;elements&#45;components.h</text>
</a>
</g>
</g>
<!-- Node8&#45;&gt;Node28 -->
<g id="edge32_Node000008_Node000028" class="edge">
<title>Node8&#45;&gt;Node28</title>
<g id="a_edge32_Node000008_Node000028"><a xlink:title=" ">
<path fill="none" stroke="#63b8ff" d="M1298.39,-123.6C1215.79,-119.04 970,-104.4 767.01,-81.25 759.82,-80.43 752.31,-79.46 744.85,-78.44"/>
<polygon fill="#63b8ff" stroke="#63b8ff" points="745.52,-75 735.13,-77.05 744.53,-81.93 745.52,-75"/>
</a>
</g>
</g>
<!-- Node29 -->
<g id="Node000029" class="node">
<title>Node29</title>
<g id="a_Node000029"><a xlink:href="a60-svg-render-state_8h.html" target="_top" xlink:title=" ">
<polygon fill="white" stroke="#666666" points="885.89,-76.38 776.14,-76.38 776.14,-58.62 885.89,-58.62 885.89,-76.38"/>
<text text-anchor="middle" x="831.01" y="-64.78" font-family="SourceSans" font-size="8.00">a60&#45;svg&#45;render&#45;state.h</text>
</a>
</g>
</g>
<!-- Node8&#45;&gt;Node29 -->
<g id="edge33_Node000008_Node000029" class="edge">
<title>Node8&#45;&gt;Node29</title>
<g id="a_edge33_Node000008_Node000029"><a xlink:title=" ">
<path fill="none" stroke="#63b8ff" d="M1298.26,-123.2C1228.62,-118.32 1045.48,-104.19 894.01,-81.25 889.61,-80.58 885.04,-79.81 880.48,-78.99"/>
<polygon fill="#63b8ff" stroke="#63b8ff" points="881.18,-75.56 870.7,-77.14 879.88,-82.44 881.18,-75.56"/>
</a>
</g>
</g>
<!-- Node30 -->
<g id="Node000030" class="node">
<title>Node30</title>
<g id="a_Node000030"><a xlink:href="a60-svg-render-basics_8h.html" target="_top" xlink:title=" ">
<polygon fill="white" stroke="#666666" points="1018.51,-76.38 903.51,-76.38 903.51,-58.62 1018.51,-58.62 1018.51,-76.38"/>
<text text-anchor="middle" x="961.01" y="-64.78" font-family="SourceSans" font-size="8.00">a60&#45;svg&#45;render&#45;basics.h</text>
</a>
</g>
</g>
<!-- Node8&#45;&gt;Node30 -->
<g id="edge34_Node000008_Node000030" class="edge">
<title>Node8&#45;&gt;Node30</title>
<g id="a_edge34_Node000008_Node000030"><a xlink:title=" ">
<path fill="none" stroke="#63b8ff" d="M1298.4,-121.38C1244.96,-114.3 1126.39,-98.11 1027.01,-81.25 1022.67,-80.51 1018.17,-79.72 1013.66,-78.89"/>
<polygon fill="#63b8ff" stroke="#63b8ff" points="1014.46,-75.48 1003.99,-77.09 1013.18,-82.36 1014.46,-75.48"/>
</a>
</g>
</g>
<!-- Node31 -->
<g id="Node000031" class="node">
<title>Node31</title>
<g id="a_Node000031"><a xlink:href="a60-svg-composite-and-layer-basics_8h.html" target="_top" xlink:title=" ">
<polygon fill="white" stroke="#666666" points="1149.76,-81.25 1036.26,-81.25 1036.26,-53.75 1149.76,-53.75 1149.76,-81.25"/>
<text text-anchor="start" x="1044.26" y="-69.65" font-family="SourceSans" font-size="8.00">a60&#45;svg&#45;composite&#45;and</text>
<text text-anchor="middle" x="1093.01" y="-59.9" font-family="SourceSans" font-size="8.00">&#45;layer&#45;basics.h</text>
</a>
</g>
</g>
<!-- Node8&#45;&gt;Node31 -->
<g id="edge35_Node000008_Node000031" class="edge">
<title>Node8&#45;&gt;Node31</title>
<g id="a_edge35_Node000008_Node000031"><a xlink:title=" ">
<path fill="none" stroke="#63b8ff" d="M1298.32,-118.18C1263.71,-109.81 1204.44,-95.46 1158.46,-84.34"/>
<polygon fill="#63b8ff" stroke="#63b8ff" points="1159.39,-80.96 1148.85,-82.01 1157.74,-87.77 1159.39,-80.96"/>
</a>
</g>
</g>
<!-- Node32 -->
<g id="Node000032" class="node">
<title>Node32</title>
<g id="a_Node000032"><a xlink:href="a60-svg-sequences_8h.html" target="_top" xlink:title=" ">
<polygon fill="white" stroke="#666666" points="1979.26,-76.38 1874.76,-76.38 1874.76,-58.62 1979.26,-58.62 1979.26,-76.38"/>
<text text-anchor="middle" x="1927.01" y="-64.78" font-family="SourceSans" font-size="8.00">a60&#45;svg&#45;sequences.h</text>
</a>
</g>
</g>
<!-- Node8&#45;&gt;Node32 -->
<g id="edge36_Node000008_Node000032" class="edge">
<title>Node8&#45;&gt;Node32</title>
<g id="a_edge36_Node000008_Node000032"><a xlink:title=" ">
<path fill="none" stroke="#63b8ff" d="M1355.61,-123.88C1435.48,-120.36 1666.53,-108.8 1857.01,-81.25 1861.53,-80.6 1866.21,-79.81 1870.93,-78.96"/>
<polygon fill="#63b8ff" stroke="#63b8ff" points="1871.26,-82.46 1880.43,-77.15 1869.96,-75.58 1871.26,-82.46"/>
</a>
</g>
</g>
<!-- Node17&#45;&gt;Node6 -->
<g id="edge22_Node000017_Node000006" class="edge">
<title>Node17&#45;&gt;Node6</title>
<g id="a_edge22_Node000017_Node000006"><a xlink:title=" ">
<path fill="none" stroke="#63b8ff" d="M1205.81,-59.97C1191.11,-57.76 1174.34,-55.42 1159.01,-53.75 941.15,-30.01 678.2,-16.09 583.33,-11.54"/>
<polygon fill="#63b8ff" stroke="#63b8ff" points="583.51,-8.04 573.36,-11.07 583.18,-15.04 583.51,-8.04"/>
</a>
</g>
</g>
<!-- Node17&#45;&gt;Node7 -->
<g id="edge20_Node000017_Node000007" class="edge">
<title>Node17&#45;&gt;Node7</title>
<g id="a_edge20_Node000017_Node000007"><a xlink:title=" ">
<path fill="none" stroke="#63b8ff" d="M1235.98,-58.14C1225.62,-49.52 1209.21,-35.85 1196.49,-25.26"/>
<polygon fill="#63b8ff" stroke="#63b8ff" points="1198.73,-22.58 1188.81,-18.87 1194.25,-27.96 1198.73,-22.58"/>
</a>
</g>
</g>
<!-- Node18 -->
<g id="Node000018" class="node">
<title>Node18</title>
<g id="a_Node000018"><a xlink:title=" ">
<polygon fill="#e0e0e0" stroke="#999999" points="1275.01,-17.75 1241.01,-17.75 1241.01,0 1275.01,0 1275.01,-17.75"/>
<text text-anchor="middle" x="1258.01" y="-6.15" font-family="SourceSans" font-size="8.00">map</text>
</a>
</g>
</g>
<!-- Node17&#45;&gt;Node18 -->
<g id="edge19_Node000017_Node000018" class="edge">
<title>Node17&#45;&gt;Node18</title>
<g id="a_edge19_Node000017_Node000018"><a xlink:title=" ">
<path fill="none" stroke="#63b8ff" d="M1247.78,-58.14C1249.4,-50.53 1251.84,-39 1253.93,-29.12"/>
<polygon fill="#63b8ff" stroke="#63b8ff" points="1257.35,-29.89 1256,-19.38 1250.5,-28.44 1257.35,-29.89"/>
</a>
</g>
</g>
<!-- Node19 -->
<g id="Node000019" class="node">
<title>Node19</title>
<g id="a_Node000019"><a xlink:title=" ">
<polygon fill="#e0e0e0" stroke="#999999" points="1384.76,-17.75 1337.26,-17.75 1337.26,0 1384.76,0 1384.76,-17.75"/>
<text text-anchor="middle" x="1361.01" y="-6.15" font-family="SourceSans" font-size="8.00">random</text>
</a>
</g>
</g>
<!-- Node17&#45;&gt;Node19 -->
<g id="edge21_Node000017_Node000019" class="edge">
<title>Node17&#45;&gt;Node19</title>
<g id="a_edge21_Node000017_Node000019"><a xlink:title=" ">
<path fill="none" stroke="#63b8ff" d="M1262.98,-58.14C1281.69,-48.93 1312.04,-33.99 1334.02,-23.17"/>
<polygon fill="#63b8ff" stroke="#63b8ff" points="1335.56,-26.31 1342.99,-18.75 1332.47,-20.03 1335.56,-26.31"/>
</a>
</g>
</g>
<!-- Node22&#45;&gt;Node18 -->
<g id="edge26_Node000022_Node000018" class="edge">
<title>Node22&#45;&gt;Node18</title>
<g id="a_edge26_Node000022_Node000018"><a xlink:title=" ">
<path fill="none" stroke="#63b8ff" d="M1447.25,-58.14C1403.78,-47.06 1327.74,-27.66 1286.52,-17.15"/>
<polygon fill="#63b8ff" stroke="#63b8ff" points="1287.42,-13.76 1276.86,-14.68 1285.69,-20.55 1287.42,-13.76"/>
</a>
</g>
</g>
<!-- Node23 -->
<g id="Node000023" class="node">
<title>Node23</title>
<g id="a_Node000023"><a xlink:title=" ">
<polygon fill="#e0e0e0" stroke="#999999" points="1536.51,-17.75 1487.51,-17.75 1487.51,0 1536.51,0 1536.51,-17.75"/>
<text text-anchor="middle" x="1512.01" y="-6.15" font-family="SourceSans" font-size="8.00">ostream</text>
</a>
</g>
</g>
<!-- Node22&#45;&gt;Node23 -->
<g id="edge27_Node000022_Node000023" class="edge">
<title>Node22&#45;&gt;Node23</title>
<g id="a_edge27_Node000022_Node000023"><a xlink:title=" ">
<path fill="none" stroke="#63b8ff" d="M1484.73,-58.14C1489.23,-50.19 1496.14,-37.97 1501.88,-27.81"/>
<polygon fill="#63b8ff" stroke="#63b8ff" points="1504.86,-29.64 1506.73,-19.22 1498.77,-26.2 1504.86,-29.64"/>
</a>
</g>
</g>
<!-- Node24 -->
<g id="Node000024" class="node">
<title>Node24</title>
<g id="a_Node000024"><a xlink:title=" ">
<polygon fill="#e0e0e0" stroke="#999999" points="1727.39,-17.75 1680.64,-17.75 1680.64,0 1727.39,0 1727.39,-17.75"/>
<text text-anchor="middle" x="1704.01" y="-6.15" font-family="SourceSans" font-size="8.00">fstream</text>
</a>
</g>
</g>
<!-- Node22&#45;&gt;Node24 -->
<g id="edge28_Node000022_Node000024" class="edge">
<title>Node22&#45;&gt;Node24</title>
<g id="a_edge28_Node000022_Node000024"><a xlink:title=" ">
<path fill="none" stroke="#63b8ff" d="M1513.06,-58.14C1554.98,-47.55 1626.91,-29.37 1669.51,-18.6"/>
<polygon fill="#63b8ff" stroke="#63b8ff" points="1670.13,-22.05 1678.97,-16.21 1668.42,-15.26 1670.13,-22.05"/>
</a>
</g>
</g>
<!-- Node25 -->
<g id="Node000025" class="node">
<title>Node25</title>
<g id="a_Node000025"><a xlink:title=" ">
<polygon fill="#e0e0e0" stroke="#999999" points="1469.89,-17.75 1426.14,-17.75 1426.14,0 1469.89,0 1469.89,-17.75"/>
<text text-anchor="middle" x="1448.01" y="-6.15" font-family="SourceSans" font-size="8.00">cstdint</text>
</a>
</g>
</g>
<!-- Node22&#45;&gt;Node25 -->
<g id="edge29_Node000022_Node000025" class="edge">
<title>Node22&#45;&gt;Node25</title>
<g id="a_edge29_Node000022_Node000025"><a xlink:title=" ">
<path fill="none" stroke="#63b8ff" d="M1475.29,-58.14C1470.8,-50.19 1463.89,-37.97 1458.15,-27.81"/>
<polygon fill="#63b8ff" stroke="#63b8ff" points="1461.26,-26.2 1453.29,-19.22 1455.16,-29.64 1461.26,-26.2"/>
</a>
</g>
</g>
<!-- Node32&#45;&gt;Node8 -->
<g id="edge40_Node000032_Node000008" class="edge">
<title>Node32&#45;&gt;Node8</title>
<g id="a_edge40_Node000032_Node000008"><a xlink:title=" ">
<path fill="none" stroke="#63b8ff" d="M1899.47,-76.87C1891.6,-78.51 1883.04,-80.09 1875.01,-81.25 1686.49,-108.52 1458.23,-120.12 1367.16,-123.76"/>
<polygon fill="#63b8ff" stroke="#63b8ff" points="1367.11,-120.26 1357.25,-124.15 1367.38,-127.26 1367.11,-120.26"/>
</a>
</g>
</g>
<!-- Node32&#45;&gt;Node19 -->
<g id="edge38_Node000032_Node000019" class="edge">
<title>Node32&#45;&gt;Node19</title>
<g id="a_edge38_Node000032_Node000019"><a xlink:title=" ">
<path fill="none" stroke="#63b8ff" d="M1890.7,-58.13C1882.6,-56.48 1874.04,-54.91 1866.01,-53.75 1667.86,-25.21 1616,-39.7 1417.01,-17.75 1410.4,-17.02 1403.37,-16.13 1396.61,-15.21"/>
<polygon fill="#63b8ff" stroke="#63b8ff" points="1397.12,-11.74 1386.73,-13.81 1396.14,-18.67 1397.12,-11.74"/>
</a>
</g>
</g>
<!-- Node32&#45;&gt;Node24 -->
<g id="edge37_Node000032_Node000024" class="edge">
<title>Node32&#45;&gt;Node24</title>
<g id="a_edge37_Node000032_Node000024"><a xlink:title=" ">
<path fill="none" stroke="#63b8ff" d="M1894.11,-58.14C1852.49,-47.58 1781.15,-29.46 1738.7,-18.68"/>
<polygon fill="#63b8ff" stroke="#63b8ff" points="1739.82,-15.36 1729.27,-16.29 1738.1,-22.14 1739.82,-15.36"/>
</a>
</g>
</g>
<!-- Node33 -->
<g id="Node000033" class="node">
<title>Node33</title>
<g id="a_Node000033"><a xlink:title=" ">
<polygon fill="#e0e0e0" stroke="#999999" points="1951.51,-17.75 1902.51,-17.75 1902.51,0 1951.51,0 1951.51,-17.75"/>
<text text-anchor="middle" x="1927.01" y="-6.15" font-family="SourceSans" font-size="8.00">unistd.h</text>
</a>
</g>
</g>
<!-- Node32&#45;&gt;Node33 -->
<g id="edge39_Node000032_Node000033" class="edge">
<title>Node32&#45;&gt;Node33</title>
<g id="a_edge39_Node000032_Node000033"><a xlink:title=" ">
<path fill="none" stroke="#63b8ff" d="M1927.01,-58.14C1927.01,-50.53 1927.01,-39 1927.01,-29.12"/>
<polygon fill="#63b8ff" stroke="#63b8ff" points="1930.51,-29.41 1927.01,-19.41 1923.51,-29.41 1930.51,-29.41"/>
</a>
</g>
</g>
</g>
</svg>

<g id="navigator" transform="translate(0 0)" fill="#404254">
  <rect fill="#f2f5e9" fill-opacity="0.5" stroke="#606060" stroke-width=".5" x="0" y="0" width="60" height="60"/>
  <use id="zoomplus" xlink:href="#zoomPlus" x="17" y="9" onmousedown="handleZoom(evt,'in')"/>
  <use id="zoomminus" xlink:href="#zoomMin" x="42" y="9" onmousedown="handleZoom(evt,'out')"/>
  <use id="reset" xlink:href="#resetDef" x="30" y="36" onmousedown="handleReset()"/>
   <use id="arrowup" xlink:href="#arrowUp" x="0" y="0" onmousedown="handlePan(0,-1)"/>
  <use id="arrowright" xlink:href="#arrowRight" x="0" y="0" onmousedown="handlePan(1,0)"/>
  <use id="arrowdown" xlink:href="#arrowDown" x="0" y="0" onmousedown="handlePan(0,1)"/>
  <use id="arrowleft" xlink:href="#arrowLeft" x="0" y="0" onmousedown="handlePan(-1,0)"/>
</g>
<svg viewBox="0 0 15 15" width="100%" height="30px" preserveAspectRatio="xMaxYMin meet">
 <g id="arrow_out" transform="scale(0.3 0.3)">
  <a xlink:href="a60-svg-radial_8h__incl_org.svg" target="_base">
   <rect id="button" ry="5" rx="5" y="6" x="6" height="38" width="38"
        fill="#f2f5e9" fill-opacity="0.5" stroke="#606060" stroke-width="1.0"/>
   <path id="arrow"
     d="M 11.500037,31.436501 C 11.940474,20.09759 22.043105,11.32322 32.158766,21.979434 L 37.068811,17.246167 C 37.068811,17.246167 37.088388,32 37.088388,32 L 22.160133,31.978069 C 22.160133,31.978069 26.997745,27.140456 26.997745,27.140456 C 18.528582,18.264221 13.291696,25.230495 11.500037,31.436501 z"
     style="fill:#404040;"/>
  </a>
 </g>
</svg>

<style type='text/css'>
<![CDATA[
[data-mouse-over-selected='false'] { opacity: 0.7; }
[data-mouse-over-selected='true']  { opacity: 1.0; }
]]>
</style>
<script type="application/ecmascript"><![CDATA[
document.addEventListener('DOMContentLoaded', (event) => {
  highlightEdges();
  highlightAdjacentNodes();
});
]]></script>
</svg>
