<?xml version="1.0" encoding="UTF-8" standalone="no"?>
<!DOCTYPE svg PUBLIC "-//W3C//DTD SVG 1.1//EN"
 "http://www.w3.org/Graphics/SVG/1.1/DTD/svg11.dtd">
<!-- Generated by graphviz version 13.1.2 (20250808.2320)
 -->
<!-- Title: /home/bkoz/src/izzi/src/a60&#45;svg&#45;radial.h Pages: 1 -->
<!--zoomable 356 -->

<svg id="main" version="1.1" xmlns="http://www.w3.org/2000/svg" xmlns:xlink="http://www.w3.org/1999/xlink" xml:space="preserve" onload="init(evt)">

<style type="text/css"><![CDATA[
.node, .edge {opacity: 0.7;}
.node.selected, .edge.selected {opacity: 1;}
.edge:hover path { stroke: red; }
.edge:hover polygon { stroke: red; fill: red; }
]]></style>

<defs>
  <circle id="rim" cx="0" cy="0" r="7"/>
  <circle id="rim2" cx="0" cy="0" r="3.5"/>
  <g id="zoomPlus">
    <use xlink:href="#rim" fill="#404040"><set attributeName="fill" to="#808080" begin="zoomplus.mouseover" end="zoomplus.mouseout"/></use>
    <path d="M-4,0h8M0,-4v8" fill="none" stroke="white" stroke-width="1.5" pointer-events="none"/>
  </g>
  <g id="zoomMin">
    <use xlink:href="#rim" fill="#404040"><set attributeName="fill" to="#808080" begin="zoomminus.mouseover" end="zoomminus.mouseout"/></use>
    <path d="M-4,0h8" fill="none" stroke="white" stroke-width="1.5" pointer-events="none"/>
  </g>
  <g id="arrowUp" transform="translate(30 24)">
    <use xlink:href="#rim"/>
    <path pointer-events="none" fill="none" stroke="white" stroke-width="1.5" d="M0,-3.0v7 M-2.5,-0.5L0,-3.0L2.5,-0.5"/>
  </g>
  <g id="arrowRight" transform="rotate(90) translate(36 -43)">
    <use xlink:href="#rim"/>
    <path pointer-events="none" fill="none" stroke="white" stroke-width="1.5" d="M0,-3.0v7 M-2.5,-0.5L0,-3.0L2.5,-0.5"/>
  </g>
  <g id="arrowDown" transform="rotate(180) translate(-30 -48)">
    <use xlink:href="#rim"/>
    <path pointer-events="none" fill="none" stroke="white" stroke-width="1.5" d="M0,-3.0v7 M-2.5,-0.5L0,-3.0L2.5,-0.5"/>
  </g>
  <g id="arrowLeft" transform="rotate(270) translate(-36 17)">
    <use xlink:href="#rim"/>
    <path pointer-events="none" fill="none" stroke="white" stroke-width="1.5" d="M0,-3.0v7 M-2.5,-0.5L0,-3.0L2.5,-0.5"/>
  </g>
  <g id="resetDef">
    <use xlink:href="#rim2" fill="#404040"><set attributeName="fill" to="#808080" begin="reset.mouseover" end="reset.mouseout"/></use>
  </g>
</defs>
<script type="application/ecmascript">
var viewWidth = 1982;
var viewHeight = 356;
var sectionId = 'dynsection-0';
</script>
<script type="application/ecmascript" xlink:href="svg.min.js"/>
<svg id="graph" class="graph">
<g id="viewport">
<title>/home/bkoz/src/izzi/src/a60&#45;svg&#45;radial.h</title>
<!-- Node1 -->
<g id="Node000001" class="node">
<title>Node1</title>
<g id="a_Node000001"><a xlink:title=" ">
<polygon fill="#999999" stroke="#666666" points="328.37,-348 235.87,-348 235.87,-316 328.37,-316 328.37,-348"/>
<text xml:space="preserve" text-anchor="start" x="243.87" y="-336.4" font-family="SourceSans" font-size="8.00">/home/bkoz/src/izzi</text>
<text xml:space="preserve" text-anchor="middle" x="282.12" y="-324.4" font-family="SourceSans" font-size="8.00">/src/a60&#45;svg&#45;radial.h</text>
</a>
</g>
</g>
<!-- Node2 -->
<g id="Node000002" class="node">
<title>Node2</title>
<g id="a_Node000002"><a xlink:href="a60-svg-radial-base_8h.html" target="_top" xlink:title=" ">
<polygon fill="white" stroke="#666666" points="155.24,-274 58.99,-274 58.99,-254 155.24,-254 155.24,-274"/>
<text xml:space="preserve" text-anchor="middle" x="107.12" y="-262.4" font-family="SourceSans" font-size="8.00">a60&#45;svg&#45;radial&#45;base.h</text>
</a>
</g>
</g>
<!-- Node1&#45;&gt;Node2 -->
<g id="edge1_Node000001_Node000002" class="edge">
<title>Node1&#45;&gt;Node2</title>
<g id="a_edge1_Node000001_Node000002"><a xlink:title=" ">
<path fill="none" stroke="#63b8ff" d="M241.09,-315.53C211.3,-304.29 171.39,-289.24 142.89,-278.49"/>
<polygon fill="#63b8ff" stroke="#63b8ff" points="144.21,-275.25 133.62,-274.99 141.74,-281.8 144.21,-275.25"/>
</a>
</g>
</g>
<!-- Node41 -->
<g id="Node000041" class="node">
<title>Node41</title>
<g id="a_Node000041"><a xlink:href="a60-svg-radial-direction-arc-glyph_8h.html" target="_top" xlink:title=" ">
<polygon fill="white" stroke="#666666" points="277.37,-280 172.87,-280 172.87,-248 277.37,-248 277.37,-280"/>
<text xml:space="preserve" text-anchor="start" x="180.87" y="-268.4" font-family="SourceSans" font-size="8.00">a60&#45;svg&#45;radial&#45;direction</text>
<text xml:space="preserve" text-anchor="middle" x="225.12" y="-256.4" font-family="SourceSans" font-size="8.00">&#45;arc&#45;glyph.h</text>
</a>
</g>
</g>
<!-- Node1&#45;&gt;Node41 -->
<g id="edge55_Node000001_Node000041" class="edge">
<title>Node1&#45;&gt;Node41</title>
<g id="a_edge55_Node000001_Node000041"><a xlink:title=" ">
<path fill="none" stroke="#63b8ff" d="M268.9,-315.69C261.99,-307.7 253.39,-297.73 245.64,-288.76"/>
<polygon fill="#63b8ff" stroke="#63b8ff" points="248.44,-286.65 239.26,-281.37 243.14,-291.23 248.44,-286.65"/>
</a>
</g>
</g>
<!-- Node42 -->
<g id="Node000042" class="node">
<title>Node42</title>
<g id="a_Node000042"><a xlink:href="a60-svg-radial-arc_8h.html" target="_top" xlink:title=" ">
<polygon fill="white" stroke="#666666" points="384.87,-274 295.37,-274 295.37,-254 384.87,-254 384.87,-274"/>
<text xml:space="preserve" text-anchor="middle" x="340.12" y="-262.4" font-family="SourceSans" font-size="8.00">a60&#45;svg&#45;radial&#45;arc.h</text>
</a>
</g>
</g>
<!-- Node1&#45;&gt;Node42 -->
<g id="edge56_Node000001_Node000042" class="edge">
<title>Node1&#45;&gt;Node42</title>
<g id="a_edge56_Node000001_Node000042"><a xlink:title=" ">
<path fill="none" stroke="#63b8ff" d="M295.57,-315.69C304.18,-305.9 315.38,-293.15 324.4,-282.89"/>
<polygon fill="#63b8ff" stroke="#63b8ff" points="326.96,-285.28 330.93,-275.45 321.7,-280.65 326.96,-285.28"/>
</a>
</g>
</g>
<!-- Node43 -->
<g id="Node000043" class="node">
<title>Node43</title>
<g id="a_Node000043"><a xlink:href="a60-svg-radial-kusama_8h.html" target="_top" xlink:title=" ">
<polygon fill="white" stroke="#666666" points="511.24,-274 402.99,-274 402.99,-254 511.24,-254 511.24,-274"/>
<text xml:space="preserve" text-anchor="middle" x="457.12" y="-262.4" font-family="SourceSans" font-size="8.00">a60&#45;svg&#45;radial&#45;kusama.h</text>
</a>
</g>
</g>
<!-- Node1&#45;&gt;Node43 -->
<g id="edge57_Node000001_Node000043" class="edge">
<title>Node1&#45;&gt;Node43</title>
<g id="a_edge57_Node000001_Node000043"><a xlink:title=" ">
<path fill="none" stroke="#63b8ff" d="M323.15,-315.53C352.94,-304.29 392.85,-289.24 421.34,-278.49"/>
<polygon fill="#63b8ff" stroke="#63b8ff" points="422.5,-281.8 430.62,-274.99 420.03,-275.25 422.5,-281.8"/>
</a>
</g>
</g>
<!-- Node3 -->
<g id="Node000003" class="node">
<title>Node3</title>
<g id="a_Node000003"><a xlink:title=" ">
<polygon fill="#e0e0e0" stroke="#999999" points="143.52,-150 114.72,-150 114.72,-130 143.52,-130 143.52,-150"/>
<text xml:space="preserve" text-anchor="middle" x="129.12" y="-138.4" font-family="SourceSans" font-size="8.00">set</text>
</a>
</g>
</g>
<!-- Node2&#45;&gt;Node3 -->
<g id="edge2_Node000002_Node000003" class="edge">
<title>Node2&#45;&gt;Node3</title>
<g id="a_edge2_Node000002_Node000003"><a xlink:title=" ">
<path fill="none" stroke="#63b8ff" d="M108.77,-253.83C112.29,-234.31 120.6,-188.25 125.44,-161.4"/>
<polygon fill="#63b8ff" stroke="#63b8ff" points="128.85,-162.23 127.18,-151.77 121.96,-160.99 128.85,-162.23"/>
</a>
</g>
</g>
<!-- Node4 -->
<g id="Node000004" class="node">
<title>Node4</title>
<g id="a_Node000004"><a xlink:title=" ">
<polygon fill="#e0e0e0" stroke="#999999" points="60.24,-212 17.99,-212 17.99,-192 60.24,-192 60.24,-212"/>
<text xml:space="preserve" text-anchor="middle" x="39.12" y="-200.4" font-family="SourceSans" font-size="8.00">chrono</text>
</a>
</g>
</g>
<!-- Node2&#45;&gt;Node4 -->
<g id="edge3_Node000002_Node000004" class="edge">
<title>Node2&#45;&gt;Node4</title>
<g id="a_edge3_Node000002_Node000004"><a xlink:title=" ">
<path fill="none" stroke="#63b8ff" d="M96.49,-253.62C86.15,-244.5 70.22,-230.45 57.77,-219.46"/>
<polygon fill="#63b8ff" stroke="#63b8ff" points="60.39,-217.11 50.58,-213.11 55.76,-222.35 60.39,-217.11"/>
</a>
</g>
</g>
<!-- Node5 -->
<g id="Node000005" class="node">
<title>Node5</title>
<g id="a_Node000005"><a xlink:title=" ">
<polygon fill="#e0e0e0" stroke="#999999" points="1820.62,-20 1771.62,-20 1771.62,0 1820.62,0 1820.62,-20"/>
<text xml:space="preserve" text-anchor="middle" x="1796.12" y="-8.4" font-family="SourceSans" font-size="8.00">iostream</text>
</a>
</g>
</g>
<!-- Node2&#45;&gt;Node5 -->
<g id="edge4_Node000002_Node000005" class="edge">
<title>Node2&#45;&gt;Node5</title>
<g id="a_edge4_Node000002_Node000005"><a xlink:title=" ">
<path fill="none" stroke="#63b8ff" d="M137.92,-253.56C146.34,-251.35 155.51,-249.27 164.12,-248 362.02,-218.81 1825.79,-302.4 1962.12,-156 2012.18,-102.24 1893.81,-47.57 1831.47,-23.58"/>
<polygon fill="#63b8ff" stroke="#63b8ff" points="1832.9,-20.38 1822.31,-20.14 1830.44,-26.94 1832.9,-20.38"/>
</a>
</g>
</g>
<!-- Node6 -->
<g id="Node000006" class="node">
<title>Node6</title>
<g id="a_Node000006"><a xlink:title=" ">
<polygon fill="#e0e0e0" stroke="#999999" points="70.87,-82 23.37,-82 23.37,-62 70.87,-62 70.87,-82"/>
<text xml:space="preserve" text-anchor="middle" x="47.12" y="-70.4" font-family="SourceSans" font-size="8.00">iomanip</text>
</a>
</g>
</g>
<!-- Node2&#45;&gt;Node6 -->
<g id="edge5_Node000002_Node000006" class="edge">
<title>Node2&#45;&gt;Node6</title>
<g id="a_edge5_Node000002_Node000006"><a xlink:title=" ">
<path fill="none" stroke="#63b8ff" d="M68.67,-253.59C47.12,-246.13 22.05,-233.32 9.12,-212 -14.36,-173.31 14.31,-119.9 33.16,-91.88"/>
<polygon fill="#63b8ff" stroke="#63b8ff" points="36.02,-93.91 38.9,-83.71 30.29,-89.88 36.02,-93.91"/>
</a>
</g>
</g>
<!-- Node7 -->
<g id="Node000007" class="node">
<title>Node7</title>
<g id="a_Node000007"><a xlink:title=" ">
<polygon fill="#e0e0e0" stroke="#999999" points="197.87,-82 144.37,-82 144.37,-62 197.87,-62 197.87,-82"/>
<text xml:space="preserve" text-anchor="middle" x="171.12" y="-70.4" font-family="SourceSans" font-size="8.00">algorithm</text>
</a>
</g>
</g>
<!-- Node2&#45;&gt;Node7 -->
<g id="edge6_Node000002_Node000007" class="edge">
<title>Node2&#45;&gt;Node7</title>
<g id="a_edge6_Node000002_Node000007"><a xlink:title=" ">
<path fill="none" stroke="#63b8ff" d="M104.35,-253.6C98,-230.25 84.58,-168.27 106.12,-124 113.52,-108.79 127.9,-96.77 141.25,-88.23"/>
<polygon fill="#63b8ff" stroke="#63b8ff" points="143.01,-91.26 149.83,-83.15 139.44,-85.23 143.01,-91.26"/>
</a>
</g>
</g>
<!-- Node8 -->
<g id="Node000008" class="node">
<title>Node8</title>
<g id="a_Node000008"><a xlink:href="a60-svg_8h.html" target="_top" xlink:title=" ">
<polygon fill="white" stroke="#666666" points="1168.12,-212 1116.12,-212 1116.12,-192 1168.12,-192 1168.12,-212"/>
<text xml:space="preserve" text-anchor="middle" x="1142.12" y="-200.4" font-family="SourceSans" font-size="8.00">a60&#45;svg.h</text>
</a>
</g>
</g>
<!-- Node2&#45;&gt;Node8 -->
<g id="edge7_Node000002_Node000008" class="edge">
<title>Node2&#45;&gt;Node8</title>
<g id="a_edge7_Node000002_Node000008"><a xlink:title=" ">
<path fill="none" stroke="#63b8ff" d="M138.23,-253.54C146.56,-251.36 155.62,-249.3 164.12,-248 350.59,-219.5 948.95,-206.59 1104.75,-203.66"/>
<polygon fill="#63b8ff" stroke="#63b8ff" points="1104.56,-207.17 1114.49,-203.48 1104.43,-200.17 1104.56,-207.17"/>
</a>
</g>
</g>
<!-- Node8&#45;&gt;Node3 -->
<g id="edge15_Node000008_Node000003" class="edge">
<title>Node8&#45;&gt;Node3</title>
<g id="a_edge15_Node000008_Node000003"><a xlink:title=" ">
<path fill="none" stroke="#63b8ff" d="M1115.68,-200.49C968.35,-197.56 251.81,-182.08 157.12,-156 156.12,-155.72 155.11,-155.41 154.11,-155.06"/>
<polygon fill="#63b8ff" stroke="#63b8ff" points="155.65,-151.91 145.09,-151.01 152.78,-158.3 155.65,-151.91"/>
</a>
</g>
</g>
<!-- Node8&#45;&gt;Node7 -->
<g id="edge10_Node000008_Node000007" class="edge">
<title>Node8&#45;&gt;Node7</title>
<g id="a_edge10_Node000008_Node000007"><a xlink:title=" ">
<path fill="none" stroke="#63b8ff" d="M1115.78,-200.65C965.98,-198.52 226.61,-186.52 190.12,-156 172.25,-141.06 169.18,-113.07 169.46,-93.75"/>
<polygon fill="#63b8ff" stroke="#63b8ff" points="172.95,-93.95 169.95,-83.79 165.96,-93.61 172.95,-93.95"/>
</a>
</g>
</g>
<!-- Node9 -->
<g id="Node000009" class="node">
<title>Node9</title>
<g id="a_Node000009"><a xlink:title=" ">
<polygon fill="#e0e0e0" stroke="#999999" points="1375.37,-150 1330.87,-150 1330.87,-130 1375.37,-130 1375.37,-150"/>
<text xml:space="preserve" text-anchor="middle" x="1353.12" y="-138.4" font-family="SourceSans" font-size="8.00">cstddef</text>
</a>
</g>
</g>
<!-- Node8&#45;&gt;Node9 -->
<g id="edge8_Node000008_Node000009" class="edge">
<title>Node8&#45;&gt;Node9</title>
<g id="a_edge8_Node000008_Node000009"><a xlink:title=" ">
<path fill="none" stroke="#63b8ff" d="M1168.55,-196.17C1204.1,-189.27 1268.97,-175.27 1322.12,-156 1323.08,-155.65 1324.05,-155.28 1325.02,-154.9"/>
<polygon fill="#63b8ff" stroke="#63b8ff" points="1326.22,-158.2 1333.97,-150.97 1323.41,-151.79 1326.22,-158.2"/>
</a>
</g>
</g>
<!-- Node10 -->
<g id="Node000010" class="node">
<title>Node10</title>
<g id="a_Node000010"><a xlink:title=" ">
<polygon fill="#e0e0e0" stroke="#999999" points="1573.12,-20 1533.12,-20 1533.12,0 1573.12,0 1573.12,-20"/>
<text xml:space="preserve" text-anchor="middle" x="1553.12" y="-8.4" font-family="SourceSans" font-size="8.00">cmath</text>
</a>
</g>
</g>
<!-- Node8&#45;&gt;Node10 -->
<g id="edge9_Node000008_Node000010" class="edge">
<title>Node8&#45;&gt;Node10</title>
<g id="a_edge9_Node000008_Node000010"><a xlink:title=" ">
<path fill="none" stroke="#63b8ff" d="M1168.5,-200.44C1238.07,-198.5 1424.54,-190.16 1474.12,-156 1517.67,-125.99 1539.48,-63.92 1548.27,-31.59"/>
<polygon fill="#63b8ff" stroke="#63b8ff" points="1551.66,-32.45 1550.72,-21.9 1544.87,-30.73 1551.66,-32.45"/>
</a>
</g>
</g>
<!-- Node11 -->
<g id="Node000011" class="node">
<title>Node11</title>
<g id="a_Node000011"><a xlink:title=" ">
<polygon fill="#e0e0e0" stroke="#999999" points="1465.49,-150 1430.74,-150 1430.74,-130 1465.49,-130 1465.49,-150"/>
<text xml:space="preserve" text-anchor="middle" x="1448.12" y="-138.4" font-family="SourceSans" font-size="8.00">array</text>
</a>
</g>
</g>
<!-- Node8&#45;&gt;Node11 -->
<g id="edge11_Node000008_Node000011" class="edge">
<title>Node8&#45;&gt;Node11</title>
<g id="a_edge11_Node000008_Node000011"><a xlink:title=" ">
<path fill="none" stroke="#63b8ff" d="M1168.48,-199.22C1218.15,-195.32 1328.56,-184.02 1417.12,-156 1418.26,-155.64 1419.41,-155.24 1420.56,-154.82"/>
<polygon fill="#63b8ff" stroke="#63b8ff" points="1421.55,-158.2 1429.38,-151.07 1418.81,-151.76 1421.55,-158.2"/>
</a>
</g>
</g>
<!-- Node12 -->
<g id="Node000012" class="node">
<title>Node12</title>
<g id="a_Node000012"><a xlink:title=" ">
<polygon fill="#e0e0e0" stroke="#999999" points="1636.24,-20 1599.99,-20 1599.99,0 1636.24,0 1636.24,-20"/>
<text xml:space="preserve" text-anchor="middle" x="1618.12" y="-8.4" font-family="SourceSans" font-size="8.00">tuple</text>
</a>
</g>
</g>
<!-- Node8&#45;&gt;Node12 -->
<g id="edge12_Node000008_Node000012" class="edge">
<title>Node8&#45;&gt;Node12</title>
<g id="a_edge12_Node000008_Node000012"><a xlink:title=" ">
<path fill="none" stroke="#63b8ff" d="M1168.52,-200.76C1269.92,-199.59 1630.33,-192.82 1664.12,-156 1697.47,-119.65 1657.66,-59.15 1633.7,-29.1"/>
<polygon fill="#63b8ff" stroke="#63b8ff" points="1636.62,-27.13 1627.55,-21.64 1631.22,-31.58 1636.62,-27.13"/>
</a>
</g>
</g>
<!-- Node13 -->
<g id="Node000013" class="node">
<title>Node13</title>
<g id="a_Node000013"><a xlink:title=" ">
<polygon fill="#e0e0e0" stroke="#999999" points="1559.37,-150 1520.87,-150 1520.87,-130 1559.37,-130 1559.37,-150"/>
<text xml:space="preserve" text-anchor="middle" x="1540.12" y="-138.4" font-family="SourceSans" font-size="8.00">string</text>
</a>
</g>
</g>
<!-- Node8&#45;&gt;Node13 -->
<g id="edge13_Node000008_Node000013" class="edge">
<title>Node8&#45;&gt;Node13</title>
<g id="a_edge13_Node000008_Node000013"><a xlink:title=" ">
<path fill="none" stroke="#63b8ff" d="M1168.32,-200.48C1229.03,-198.7 1383.59,-190.81 1507.12,-156 1508.51,-155.61 1509.93,-155.16 1511.34,-154.68"/>
<polygon fill="#63b8ff" stroke="#63b8ff" points="1512.59,-157.95 1520.58,-150.99 1510,-151.45 1512.59,-157.95"/>
</a>
</g>
</g>
<!-- Node14 -->
<g id="Node000014" class="node">
<title>Node14</title>
<g id="a_Node000014"><a xlink:title=" ">
<polygon fill="#e0e0e0" stroke="#999999" points="1708.37,-20 1669.87,-20 1669.87,0 1708.37,0 1708.37,-20"/>
<text xml:space="preserve" text-anchor="middle" x="1689.12" y="-8.4" font-family="SourceSans" font-size="8.00">vector</text>
</a>
</g>
</g>
<!-- Node8&#45;&gt;Node14 -->
<g id="edge14_Node000008_Node000014" class="edge">
<title>Node8&#45;&gt;Node14</title>
<g id="a_edge14_Node000008_Node000014"><a xlink:title=" ">
<path fill="none" stroke="#63b8ff" d="M1168.42,-200.82C1272.06,-199.84 1648.21,-193.68 1684.12,-156 1716.02,-122.51 1704.73,-62.46 1695.8,-31.19"/>
<polygon fill="#63b8ff" stroke="#63b8ff" points="1699.2,-30.35 1692.91,-21.83 1692.51,-32.41 1699.2,-30.35"/>
</a>
</g>
</g>
<!-- Node15 -->
<g id="Node000015" class="node">
<title>Node15</title>
<g id="a_Node000015"><a xlink:title=" ">
<polygon fill="#e0e0e0" stroke="#999999" points="1654.87,-150 1577.37,-150 1577.37,-130 1654.87,-130 1654.87,-150"/>
<text xml:space="preserve" text-anchor="middle" x="1616.12" y="-138.4" font-family="SourceSans" font-size="8.00">unordered_map</text>
</a>
</g>
</g>
<!-- Node8&#45;&gt;Node15 -->
<g id="edge16_Node000008_Node000015" class="edge">
<title>Node8&#45;&gt;Node15</title>
<g id="a_edge16_Node000008_Node000015"><a xlink:title=" ">
<path fill="none" stroke="#63b8ff" d="M1168.33,-200.03C1235.46,-197.17 1418.82,-186.9 1568.12,-156 1571.47,-155.31 1574.93,-154.47 1578.37,-153.56"/>
<polygon fill="#63b8ff" stroke="#63b8ff" points="1579.11,-156.99 1587.75,-150.86 1577.17,-150.26 1579.11,-156.99"/>
</a>
</g>
</g>
<!-- Node16 -->
<g id="Node000016" class="node">
<title>Node16</title>
<g id="a_Node000016"><a xlink:title=" ">
<polygon fill="#e0e0e0" stroke="#999999" points="1833.12,-150 1787.12,-150 1787.12,-130 1833.12,-130 1833.12,-150"/>
<text xml:space="preserve" text-anchor="middle" x="1810.12" y="-138.4" font-family="SourceSans" font-size="8.00">sstream</text>
</a>
</g>
</g>
<!-- Node8&#45;&gt;Node16 -->
<g id="edge17_Node000008_Node000016" class="edge">
<title>Node8&#45;&gt;Node16</title>
<g id="a_edge17_Node000008_Node000016"><a xlink:title=" ">
<path fill="none" stroke="#63b8ff" d="M1168.35,-200.22C1272.28,-196.98 1655.17,-183.39 1773.12,-156 1775.24,-155.51 1777.41,-154.91 1779.57,-154.24"/>
<polygon fill="#63b8ff" stroke="#63b8ff" points="1780.49,-157.62 1788.71,-150.94 1778.12,-151.04 1780.49,-157.62"/>
</a>
</g>
</g>
<!-- Node17 -->
<g id="Node000017" class="node">
<title>Node17</title>
<g id="a_Node000017"><a xlink:href="a60-svg-color_8h.html" target="_top" xlink:title=" ">
<polygon fill="white" stroke="#666666" points="350.87,-150 279.37,-150 279.37,-130 350.87,-130 350.87,-150"/>
<text xml:space="preserve" text-anchor="middle" x="315.12" y="-138.4" font-family="SourceSans" font-size="8.00">a60&#45;svg&#45;color.h</text>
</a>
</g>
</g>
<!-- Node8&#45;&gt;Node17 -->
<g id="edge18_Node000008_Node000017" class="edge">
<title>Node8&#45;&gt;Node17</title>
<g id="a_edge18_Node000008_Node000017"><a xlink:title=" ">
<path fill="none" stroke="#63b8ff" d="M1115.89,-200.45C997.11,-197.79 508.96,-185.28 359.12,-156 356.1,-155.41 353.01,-154.67 349.93,-153.82"/>
<polygon fill="#63b8ff" stroke="#63b8ff" points="351.04,-150.5 340.45,-150.9 348.98,-157.19 351.04,-150.5"/>
</a>
</g>
</g>
<!-- Node20 -->
<g id="Node000020" class="node">
<title>Node20</title>
<g id="a_Node000020"><a xlink:href="a60-svg-color-palette_8h.html" target="_top" xlink:title=" ">
<polygon fill="white" stroke="#666666" points="1952.87,-150 1851.37,-150 1851.37,-130 1952.87,-130 1952.87,-150"/>
<text xml:space="preserve" text-anchor="middle" x="1902.12" y="-138.4" font-family="SourceSans" font-size="8.00">a60&#45;svg&#45;color&#45;palette.h</text>
</a>
</g>
</g>
<!-- Node8&#45;&gt;Node20 -->
<g id="edge23_Node000008_Node000020" class="edge">
<title>Node8&#45;&gt;Node20</title>
<g id="a_edge23_Node000008_Node000020"><a xlink:title=" ">
<path fill="none" stroke="#63b8ff" d="M1168.36,-201.02C1261.08,-200.71 1581.61,-196.6 1842.12,-156 1847.15,-155.22 1852.37,-154.21 1857.55,-153.09"/>
<polygon fill="#63b8ff" stroke="#63b8ff" points="1858.28,-156.51 1867.23,-150.83 1856.69,-149.69 1858.28,-156.51"/>
</a>
</g>
</g>
<!-- Node21 -->
<g id="Node000021" class="node">
<title>Node21</title>
<g id="a_Node000021"><a xlink:href="a60-svg-color-band_8h.html" target="_top" xlink:title=" ">
<polygon fill="white" stroke="#666666" points="1843.49,-82 1748.74,-82 1748.74,-62 1843.49,-62 1843.49,-82"/>
<text xml:space="preserve" text-anchor="middle" x="1796.12" y="-70.4" font-family="SourceSans" font-size="8.00">a60&#45;svg&#45;color&#45;band.h</text>
</a>
</g>
</g>
<!-- Node8&#45;&gt;Node21 -->
<g id="edge24_Node000008_Node000021" class="edge">
<title>Node8&#45;&gt;Node21</title>
<g id="a_edge24_Node000008_Node000021"><a xlink:title=" ">
<path fill="none" stroke="#63b8ff" d="M1168.43,-200.29C1276.78,-197.19 1685.06,-183.76 1735.12,-156 1760.48,-141.93 1778.19,-112.38 1787.76,-92.61"/>
<polygon fill="#63b8ff" stroke="#63b8ff" points="1790.88,-94.22 1791.83,-83.66 1784.5,-91.32 1790.88,-94.22"/>
</a>
</g>
</g>
<!-- Node22 -->
<g id="Node000022" class="node">
<title>Node22</title>
<g id="a_Node000022"><a xlink:href="izzi-points_8h.html" target="_top" xlink:title=" ">
<polygon fill="white" stroke="#666666" points="260.99,-150 199.24,-150 199.24,-130 260.99,-130 260.99,-150"/>
<text xml:space="preserve" text-anchor="middle" x="230.12" y="-138.4" font-family="SourceSans" font-size="8.00">izzi&#45;points.h</text>
</a>
</g>
</g>
<!-- Node8&#45;&gt;Node22 -->
<g id="edge26_Node000008_Node000022" class="edge">
<title>Node8&#45;&gt;Node22</title>
<g id="a_edge26_Node000008_Node000022"><a xlink:title=" ">
<path fill="none" stroke="#63b8ff" d="M1115.91,-200.73C989.02,-199.25 437.82,-190.9 270.12,-156 267.64,-155.48 265.11,-154.84 262.59,-154.11"/>
<polygon fill="#63b8ff" stroke="#63b8ff" points="263.79,-150.82 253.2,-150.98 261.58,-157.46 263.79,-150.82"/>
</a>
</g>
</g>
<!-- Node23 -->
<g id="Node000023" class="node">
<title>Node23</title>
<g id="a_Node000023"><a xlink:href="a60-svg-base-types_8h.html" target="_top" xlink:title=" ">
<polygon fill="white" stroke="#666666" points="955.49,-150 860.74,-150 860.74,-130 955.49,-130 955.49,-150"/>
<text xml:space="preserve" text-anchor="middle" x="908.12" y="-138.4" font-family="SourceSans" font-size="8.00">a60&#45;svg&#45;base&#45;types.h</text>
</a>
</g>
</g>
<!-- Node8&#45;&gt;Node23 -->
<g id="edge27_Node000008_Node000023" class="edge">
<title>Node8&#45;&gt;Node23</title>
<g id="a_edge27_Node000008_Node000023"><a xlink:title=" ">
<path fill="none" stroke="#63b8ff" d="M1115.71,-194.36C1081.1,-185.64 1018.53,-169.82 965.12,-156 961.81,-155.14 958.39,-154.25 954.95,-153.36"/>
<polygon fill="#63b8ff" stroke="#63b8ff" points="956.01,-150.02 945.45,-150.87 954.24,-156.79 956.01,-150.02"/>
</a>
</g>
</g>
<!-- Node27 -->
<g id="Node000027" class="node">
<title>Node27</title>
<g id="a_Node000027"><a xlink:href="a60-svg-constants_8h.html" target="_top" xlink:title=" ">
<polygon fill="white" stroke="#666666" points="459.62,-150 368.62,-150 368.62,-130 459.62,-130 459.62,-150"/>
<text xml:space="preserve" text-anchor="middle" x="414.12" y="-138.4" font-family="SourceSans" font-size="8.00">a60&#45;svg&#45;constants.h</text>
</a>
</g>
</g>
<!-- Node8&#45;&gt;Node27 -->
<g id="edge32_Node000008_Node000027" class="edge">
<title>Node8&#45;&gt;Node27</title>
<g id="a_edge32_Node000008_Node000027"><a xlink:title=" ">
<path fill="none" stroke="#63b8ff" d="M1115.87,-201.17C1025.27,-201.33 717.54,-198.51 468.12,-156 463.76,-155.26 459.26,-154.31 454.79,-153.25"/>
<polygon fill="#63b8ff" stroke="#63b8ff" points="455.89,-149.91 445.33,-150.81 454.14,-156.69 455.89,-149.91"/>
</a>
</g>
</g>
<!-- Node28 -->
<g id="Node000028" class="node">
<title>Node28</title>
<g id="a_Node000028"><a xlink:href="a60-svg-elements_8h.html" target="_top" xlink:title=" ">
<polygon fill="white" stroke="#666666" points="566.87,-150 477.37,-150 477.37,-130 566.87,-130 566.87,-150"/>
<text xml:space="preserve" text-anchor="middle" x="522.12" y="-138.4" font-family="SourceSans" font-size="8.00">a60&#45;svg&#45;elements.h</text>
</a>
</g>
</g>
<!-- Node8&#45;&gt;Node28 -->
<g id="edge33_Node000008_Node000028" class="edge">
<title>Node8&#45;&gt;Node28</title>
<g id="a_edge33_Node000008_Node000028"><a xlink:title=" ">
<path fill="none" stroke="#63b8ff" d="M1115.89,-200.74C1034.79,-199.57 781.17,-192.96 575.12,-156 571.02,-155.26 566.78,-154.34 562.57,-153.33"/>
<polygon fill="#63b8ff" stroke="#63b8ff" points="563.62,-149.98 553.06,-150.83 561.84,-156.75 563.62,-149.98"/>
</a>
</g>
</g>
<!-- Node29 -->
<g id="Node000029" class="node">
<title>Node29</title>
<g id="a_Node000029"><a xlink:href="a60-svg-elements-components_8h.html" target="_top" xlink:title=" ">
<polygon fill="white" stroke="#666666" points="723.62,-150 584.62,-150 584.62,-130 723.62,-130 723.62,-150"/>
<text xml:space="preserve" text-anchor="middle" x="654.12" y="-138.4" font-family="SourceSans" font-size="8.00">a60&#45;svg&#45;elements&#45;components.h</text>
</a>
</g>
</g>
<!-- Node8&#45;&gt;Node29 -->
<g id="edge34_Node000008_Node000029" class="edge">
<title>Node8&#45;&gt;Node29</title>
<g id="a_edge34_Node000008_Node000029"><a xlink:title=" ">
<path fill="none" stroke="#63b8ff" d="M1115.71,-198.81C1050.53,-193.26 876.89,-177.52 733.12,-156 726.23,-154.97 719.03,-153.77 711.9,-152.51"/>
<polygon fill="#63b8ff" stroke="#63b8ff" points="712.76,-149.11 702.29,-150.76 711.5,-155.99 712.76,-149.11"/>
</a>
</g>
</g>
<!-- Node30 -->
<g id="Node000030" class="node">
<title>Node30</title>
<g id="a_Node000030"><a xlink:href="a60-svg-render-state_8h.html" target="_top" xlink:title=" ">
<polygon fill="white" stroke="#666666" points="842.49,-150 741.74,-150 741.74,-130 842.49,-130 842.49,-150"/>
<text xml:space="preserve" text-anchor="middle" x="792.12" y="-138.4" font-family="SourceSans" font-size="8.00">a60&#45;svg&#45;render&#45;state.h</text>
</a>
</g>
</g>
<!-- Node8&#45;&gt;Node30 -->
<g id="edge35_Node000008_Node000030" class="edge">
<title>Node8&#45;&gt;Node30</title>
<g id="a_edge35_Node000008_Node000030"><a xlink:title=" ">
<path fill="none" stroke="#63b8ff" d="M1115.98,-197.76C1064.99,-191.25 948.75,-175.53 852.12,-156 847.8,-155.13 843.33,-154.15 838.86,-153.12"/>
<polygon fill="#63b8ff" stroke="#63b8ff" points="839.86,-149.76 829.32,-150.85 838.24,-156.57 839.86,-149.76"/>
</a>
</g>
</g>
<!-- Node31 -->
<g id="Node000031" class="node">
<title>Node31</title>
<g id="a_Node000031"><a xlink:href="a60-svg-render-basics_8h.html" target="_top" xlink:title=" ">
<polygon fill="white" stroke="#666666" points="1312.74,-150 1207.49,-150 1207.49,-130 1312.74,-130 1312.74,-150"/>
<text xml:space="preserve" text-anchor="middle" x="1260.12" y="-138.4" font-family="SourceSans" font-size="8.00">a60&#45;svg&#45;render&#45;basics.h</text>
</a>
</g>
</g>
<!-- Node8&#45;&gt;Node31 -->
<g id="edge36_Node000008_Node000031" class="edge">
<title>Node8&#45;&gt;Node31</title>
<g id="a_edge36_Node000008_Node000031"><a xlink:title=" ">
<path fill="none" stroke="#63b8ff" d="M1160.56,-191.62C1179.61,-181.94 1209.59,-166.69 1231.68,-155.46"/>
<polygon fill="#63b8ff" stroke="#63b8ff" points="1233.13,-158.65 1240.46,-151 1229.96,-152.41 1233.13,-158.65"/>
</a>
</g>
</g>
<!-- Node38 -->
<g id="Node000038" class="node">
<title>Node38</title>
<g id="a_Node000038"><a xlink:href="a60-svg-composite-and-layer-basics_8h.html" target="_top" xlink:title=" ">
<polygon fill="white" stroke="#666666" points="1076.62,-156 973.62,-156 973.62,-124 1076.62,-124 1076.62,-156"/>
<text xml:space="preserve" text-anchor="start" x="981.62" y="-144.4" font-family="SourceSans" font-size="8.00">a60&#45;svg&#45;composite&#45;and</text>
<text xml:space="preserve" text-anchor="middle" x="1025.12" y="-132.4" font-family="SourceSans" font-size="8.00">&#45;layer&#45;basics.h</text>
</a>
</g>
</g>
<!-- Node8&#45;&gt;Node38 -->
<g id="edge49_Node000008_Node000038" class="edge">
<title>Node8&#45;&gt;Node38</title>
<g id="a_edge49_Node000008_Node000038"><a xlink:title=" ">
<path fill="none" stroke="#63b8ff" d="M1123.84,-191.62C1108.18,-183.6 1085.09,-171.75 1065.17,-161.54"/>
<polygon fill="#63b8ff" stroke="#63b8ff" points="1066.94,-158.51 1056.44,-157.06 1063.74,-164.74 1066.94,-158.51"/>
</a>
</g>
</g>
<!-- Node39 -->
<g id="Node000039" class="node">
<title>Node39</title>
<g id="a_Node000039"><a xlink:href="a60-svg-sequences_8h.html" target="_top" xlink:title=" ">
<polygon fill="white" stroke="#666666" points="1189.49,-150 1094.74,-150 1094.74,-130 1189.49,-130 1189.49,-150"/>
<text xml:space="preserve" text-anchor="middle" x="1142.12" y="-138.4" font-family="SourceSans" font-size="8.00">a60&#45;svg&#45;sequences.h</text>
</a>
</g>
</g>
<!-- Node8&#45;&gt;Node39 -->
<g id="edge50_Node000008_Node000039" class="edge">
<title>Node8&#45;&gt;Node39</title>
<g id="a_edge50_Node000008_Node000039"><a xlink:title=" ">
<path fill="none" stroke="#63b8ff" d="M1137.06,-191.62C1135.44,-183.56 1134.99,-171.65 1135.68,-161.41"/>
<polygon fill="#63b8ff" stroke="#63b8ff" points="1139.14,-161.97 1136.92,-151.61 1132.2,-161.1 1139.14,-161.97"/>
</a>
</g>
</g>
<!-- Node17&#45;&gt;Node6 -->
<g id="edge22_Node000017_Node000006" class="edge">
<title>Node17&#45;&gt;Node6</title>
<g id="a_edge22_Node000017_Node000006"><a xlink:title=" ">
<path fill="none" stroke="#63b8ff" d="M288.12,-129.53C282.22,-127.59 275.99,-125.64 270.12,-124 204.44,-105.59 126.51,-88.93 82.34,-79.95"/>
<polygon fill="#63b8ff" stroke="#63b8ff" points="83.05,-76.53 72.56,-77.98 81.67,-83.39 83.05,-76.53"/>
</a>
</g>
</g>
<!-- Node17&#45;&gt;Node7 -->
<g id="edge20_Node000017_Node000007" class="edge">
<title>Node17&#45;&gt;Node7</title>
<g id="a_edge20_Node000017_Node000007"><a xlink:title=" ">
<path fill="none" stroke="#63b8ff" d="M294.49,-129.54C270.32,-118.47 230.04,-100.01 202.11,-87.21"/>
<polygon fill="#63b8ff" stroke="#63b8ff" points="203.64,-84.05 193.09,-83.07 200.72,-90.42 203.64,-84.05"/>
</a>
</g>
</g>
<!-- Node18 -->
<g id="Node000018" class="node">
<title>Node18</title>
<g id="a_Node000018"><a xlink:title=" ">
<polygon fill="#e0e0e0" stroke="#999999" points="536.74,-82 503.49,-82 503.49,-62 536.74,-62 536.74,-82"/>
<text xml:space="preserve" text-anchor="middle" x="520.12" y="-70.4" font-family="SourceSans" font-size="8.00">map</text>
</a>
</g>
</g>
<!-- Node17&#45;&gt;Node18 -->
<g id="edge19_Node000017_Node000018" class="edge">
<title>Node17&#45;&gt;Node18</title>
<g id="a_edge19_Node000017_Node000018"><a xlink:title=" ">
<path fill="none" stroke="#63b8ff" d="M342.55,-129.55C348.03,-127.69 353.75,-125.76 359.12,-124 405.75,-108.67 460.26,-91.57 492.39,-81.58"/>
<polygon fill="#63b8ff" stroke="#63b8ff" points="493.2,-85 501.71,-78.69 491.12,-78.31 493.2,-85"/>
</a>
</g>
</g>
<!-- Node19 -->
<g id="Node000019" class="node">
<title>Node19</title>
<g id="a_Node000019"><a xlink:title=" ">
<polygon fill="#e0e0e0" stroke="#999999" points="893.12,-82 847.12,-82 847.12,-62 893.12,-62 893.12,-82"/>
<text xml:space="preserve" text-anchor="middle" x="870.12" y="-70.4" font-family="SourceSans" font-size="8.00">random</text>
</a>
</g>
</g>
<!-- Node17&#45;&gt;Node19 -->
<g id="edge21_Node000017_Node000019" class="edge">
<title>Node17&#45;&gt;Node19</title>
<g id="a_edge21_Node000017_Node000019"><a xlink:title=" ">
<path fill="none" stroke="#63b8ff" d="M339.02,-129.63C345.46,-127.44 352.48,-125.36 359.12,-124 568.28,-81.21 631.62,-142.2 838.12,-88 839.52,-87.63 840.94,-87.2 842.35,-86.73"/>
<polygon fill="#63b8ff" stroke="#63b8ff" points="843.58,-90.01 851.54,-83.01 840.96,-83.52 843.58,-90.01"/>
</a>
</g>
</g>
<!-- Node21&#45;&gt;Node5 -->
<g id="edge25_Node000021_Node000005" class="edge">
<title>Node21&#45;&gt;Node5</title>
<g id="a_edge25_Node000021_Node000005"><a xlink:title=" ">
<path fill="none" stroke="#63b8ff" d="M1796.12,-61.62C1796.12,-53.56 1796.12,-41.65 1796.12,-31.41"/>
<polygon fill="#63b8ff" stroke="#63b8ff" points="1799.62,-31.63 1796.12,-21.63 1792.62,-31.63 1799.62,-31.63"/>
</a>
</g>
</g>
<!-- Node23&#45;&gt;Node18 -->
<g id="edge28_Node000023_Node000018" class="edge">
<title>Node23&#45;&gt;Node18</title>
<g id="a_edge28_Node000023_Node000018"><a xlink:title=" ">
<path fill="none" stroke="#63b8ff" d="M874.5,-129.53C866.85,-127.55 858.73,-125.58 851.12,-124 740.01,-100.89 605.92,-83.37 548.48,-76.35"/>
<polygon fill="#63b8ff" stroke="#63b8ff" points="548.96,-72.89 538.61,-75.16 548.12,-79.84 548.96,-72.89"/>
</a>
</g>
</g>
<!-- Node24 -->
<g id="Node000024" class="node">
<title>Node24</title>
<g id="a_Node000024"><a xlink:title=" ">
<polygon fill="#e0e0e0" stroke="#999999" points="957.49,-82 910.74,-82 910.74,-62 957.49,-62 957.49,-82"/>
<text xml:space="preserve" text-anchor="middle" x="934.12" y="-70.4" font-family="SourceSans" font-size="8.00">ostream</text>
</a>
</g>
</g>
<!-- Node23&#45;&gt;Node24 -->
<g id="edge29_Node000023_Node000024" class="edge">
<title>Node23&#45;&gt;Node24</title>
<g id="a_edge29_Node000023_Node000024"><a xlink:title=" ">
<path fill="none" stroke="#63b8ff" d="M911.84,-129.54C915.59,-120.04 921.48,-105.09 926.26,-92.95"/>
<polygon fill="#63b8ff" stroke="#63b8ff" points="929.44,-94.43 929.84,-83.85 922.92,-91.87 929.44,-94.43"/>
</a>
</g>
</g>
<!-- Node25 -->
<g id="Node000025" class="node">
<title>Node25</title>
<g id="a_Node000025"><a xlink:title=" ">
<polygon fill="#e0e0e0" stroke="#999999" points="1047.74,-82 1002.49,-82 1002.49,-62 1047.74,-62 1047.74,-82"/>
<text xml:space="preserve" text-anchor="middle" x="1025.12" y="-70.4" font-family="SourceSans" font-size="8.00">fstream</text>
</a>
</g>
</g>
<!-- Node23&#45;&gt;Node25 -->
<g id="edge30_Node000023_Node000025" class="edge">
<title>Node23&#45;&gt;Node25</title>
<g id="a_edge30_Node000023_Node000025"><a xlink:title=" ">
<path fill="none" stroke="#63b8ff" d="M924.88,-129.54C944.08,-118.71 975.8,-100.82 998.41,-88.06"/>
<polygon fill="#63b8ff" stroke="#63b8ff" points="1000.08,-91.14 1007.07,-83.18 996.64,-85.05 1000.08,-91.14"/>
</a>
</g>
</g>
<!-- Node26 -->
<g id="Node000026" class="node">
<title>Node26</title>
<g id="a_Node000026"><a xlink:title=" ">
<polygon fill="#e0e0e0" stroke="#999999" points="829.24,-82 786.99,-82 786.99,-62 829.24,-62 829.24,-82"/>
<text xml:space="preserve" text-anchor="middle" x="808.12" y="-70.4" font-family="SourceSans" font-size="8.00">cstdint</text>
</a>
</g>
</g>
<!-- Node23&#45;&gt;Node26 -->
<g id="edge31_Node000023_Node000026" class="edge">
<title>Node23&#45;&gt;Node26</title>
<g id="a_edge31_Node000023_Node000026"><a xlink:title=" ">
<path fill="none" stroke="#63b8ff" d="M893.79,-129.54C877.68,-118.91 851.25,-101.47 832,-88.76"/>
<polygon fill="#63b8ff" stroke="#63b8ff" points="833.96,-85.86 823.68,-83.27 830.1,-91.7 833.96,-85.86"/>
</a>
</g>
</g>
<!-- Node32 -->
<g id="Node000032" class="node">
<title>Node32</title>
<g id="a_Node000032"><a xlink:title=" ">
<polygon fill="#e0e0e0" stroke="#999999" points="1293.37,-20 1242.87,-20 1242.87,0 1293.37,0 1293.37,-20"/>
<text xml:space="preserve" text-anchor="middle" x="1268.12" y="-8.4" font-family="SourceSans" font-size="8.00">numbers</text>
</a>
</g>
</g>
<!-- Node31&#45;&gt;Node32 -->
<g id="edge37_Node000031_Node000032" class="edge">
<title>Node31&#45;&gt;Node32</title>
<g id="a_edge37_Node000031_Node000032"><a xlink:title=" ">
<path fill="none" stroke="#63b8ff" d="M1260.69,-129.79C1261.97,-109.41 1265.05,-60.05 1266.82,-31.79"/>
<polygon fill="#63b8ff" stroke="#63b8ff" points="1270.3,-32.18 1267.43,-21.98 1263.31,-31.74 1270.3,-32.18"/>
</a>
</g>
</g>
<!-- Node33 -->
<g id="Node000033" class="node">
<title>Node33</title>
<g id="a_Node000033"><a xlink:title=" ">
<polygon fill="#e0e0e0" stroke="#999999" points="1239.87,-82 1198.37,-82 1198.37,-62 1239.87,-62 1239.87,-82"/>
<text xml:space="preserve" text-anchor="middle" x="1219.12" y="-70.4" font-family="SourceSans" font-size="8.00">format</text>
</a>
</g>
</g>
<!-- Node31&#45;&gt;Node33 -->
<g id="edge38_Node000031_Node000033" class="edge">
<title>Node31&#45;&gt;Node33</title>
<g id="a_edge38_Node000031_Node000033"><a xlink:title=" ">
<path fill="none" stroke="#63b8ff" d="M1254.24,-129.54C1248.22,-119.84 1238.67,-104.47 1231.05,-92.2"/>
<polygon fill="#63b8ff" stroke="#63b8ff" points="1234.03,-90.37 1225.78,-83.72 1228.08,-94.07 1234.03,-90.37"/>
</a>
</g>
</g>
<!-- Node34 -->
<g id="Node000034" class="node">
<title>Node34</title>
<g id="a_Node000034"><a xlink:href="a60-svg-radial-fill-hexagon_8h.html" target="_top" xlink:title=" ">
<polygon fill="white" stroke="#666666" points="1453.99,-88 1374.24,-88 1374.24,-56 1453.99,-56 1453.99,-88"/>
<text xml:space="preserve" text-anchor="start" x="1382.24" y="-76.4" font-family="SourceSans" font-size="8.00">a60&#45;svg&#45;radial&#45;fill</text>
<text xml:space="preserve" text-anchor="middle" x="1414.12" y="-64.4" font-family="SourceSans" font-size="8.00">&#45;hexagon.h</text>
</a>
</g>
</g>
<!-- Node31&#45;&gt;Node34 -->
<g id="edge39_Node000031_Node000034" class="edge">
<title>Node31&#45;&gt;Node34</title>
<g id="a_edge39_Node000031_Node000034"><a xlink:title=" ">
<path fill="none" stroke="#63b8ff" d="M1282.18,-129.54C1304.38,-120.03 1339.29,-105.07 1367.62,-92.93"/>
<polygon fill="#63b8ff" stroke="#63b8ff" points="1368.92,-96.18 1376.73,-89.02 1366.16,-89.75 1368.92,-96.18"/>
</a>
</g>
</g>
<!-- Node34&#45;&gt;Node5 -->
<g id="edge47_Node000034_Node000005" class="edge">
<title>Node34&#45;&gt;Node5</title>
<g id="a_edge47_Node000034_Node000005"><a xlink:title=" ">
<path fill="none" stroke="#63b8ff" d="M1454.28,-64.69C1529.04,-52.95 1688.44,-27.91 1760.02,-16.67"/>
<polygon fill="#63b8ff" stroke="#63b8ff" points="1760.29,-20.17 1769.63,-15.16 1759.21,-13.25 1760.29,-20.17"/>
</a>
</g>
</g>
<!-- Node34&#45;&gt;Node8 -->
<g id="edge48_Node000034_Node000008" class="edge">
<title>Node34&#45;&gt;Node8</title>
<g id="a_edge48_Node000034_Node000008"><a xlink:title=" ">
<path fill="none" stroke="#63b8ff" d="M1413.04,-88.44C1410.84,-107.34 1404.21,-138.94 1384.12,-156 1353.81,-181.73 1239.68,-193.83 1179.62,-198.52"/>
<polygon fill="#63b8ff" stroke="#63b8ff" points="1179.59,-195.02 1169.88,-199.25 1180.11,-202 1179.59,-195.02"/>
</a>
</g>
</g>
<!-- Node34&#45;&gt;Node10 -->
<g id="edge42_Node000034_Node000010" class="edge">
<title>Node34&#45;&gt;Node10</title>
<g id="a_edge42_Node000034_Node000010"><a xlink:title=" ">
<path fill="none" stroke="#63b8ff" d="M1449.91,-55.55C1472.38,-45.85 1501.05,-33.48 1522.47,-24.23"/>
<polygon fill="#63b8ff" stroke="#63b8ff" points="1523.75,-27.49 1531.54,-20.31 1520.98,-21.06 1523.75,-27.49"/>
</a>
</g>
</g>
<!-- Node34&#45;&gt;Node12 -->
<g id="edge41_Node000034_Node000012" class="edge">
<title>Node34&#45;&gt;Node12</title>
<g id="a_edge41_Node000034_Node000012"><a xlink:title=" ">
<path fill="none" stroke="#63b8ff" d="M1454.42,-59.15C1493.96,-47.52 1553.31,-30.06 1588.63,-19.67"/>
<polygon fill="#63b8ff" stroke="#63b8ff" points="1589.57,-23.04 1598.18,-16.87 1587.59,-16.33 1589.57,-23.04"/>
</a>
</g>
</g>
<!-- Node34&#45;&gt;Node14 -->
<g id="edge40_Node000034_Node000014" class="edge">
<title>Node34&#45;&gt;Node14</title>
<g id="a_edge40_Node000034_Node000014"><a xlink:title=" ">
<path fill="none" stroke="#63b8ff" d="M1454.4,-62.21C1509.92,-50.1 1608.74,-28.54 1658.58,-17.66"/>
<polygon fill="#63b8ff" stroke="#63b8ff" points="1659.07,-21.14 1668.1,-15.59 1657.58,-14.3 1659.07,-21.14"/>
</a>
</g>
</g>
<!-- Node34&#45;&gt;Node32 -->
<g id="edge43_Node000034_Node000032" class="edge">
<title>Node34&#45;&gt;Node32</title>
<g id="a_edge43_Node000034_Node000032"><a xlink:title=" ">
<path fill="none" stroke="#63b8ff" d="M1376.52,-55.55C1353.28,-46 1323.74,-33.86 1301.36,-24.66"/>
<polygon fill="#63b8ff" stroke="#63b8ff" points="1302.99,-21.55 1292.41,-20.98 1300.33,-28.02 1302.99,-21.55"/>
</a>
</g>
</g>
<!-- Node35 -->
<g id="Node000035" class="node">
<title>Node35</title>
<g id="a_Node000035"><a xlink:title=" ">
<polygon fill="#e0e0e0" stroke="#999999" points="1514.62,-20 1459.62,-20 1459.62,0 1514.62,0 1514.62,-20"/>
<text xml:space="preserve" text-anchor="middle" x="1487.12" y="-8.4" font-family="SourceSans" font-size="8.00">functional</text>
</a>
</g>
</g>
<!-- Node34&#45;&gt;Node35 -->
<g id="edge44_Node000034_Node000035" class="edge">
<title>Node34&#45;&gt;Node35</title>
<g id="a_edge44_Node000034_Node000035"><a xlink:title=" ">
<path fill="none" stroke="#63b8ff" d="M1432.92,-55.55C1443.37,-46.95 1456.39,-36.26 1467.04,-27.5"/>
<polygon fill="#63b8ff" stroke="#63b8ff" points="1469,-30.42 1474.5,-21.37 1464.55,-25.01 1469,-30.42"/>
</a>
</g>
</g>
<!-- Node36 -->
<g id="Node000036" class="node">
<title>Node36</title>
<g id="a_Node000036"><a xlink:title=" ">
<polygon fill="#e0e0e0" stroke="#999999" points="1352.49,-20 1311.74,-20 1311.74,0 1352.49,0 1352.49,-20"/>
<text xml:space="preserve" text-anchor="middle" x="1332.12" y="-8.4" font-family="SourceSans" font-size="8.00">queue</text>
</a>
</g>
</g>
<!-- Node34&#45;&gt;Node36 -->
<g id="edge45_Node000034_Node000036" class="edge">
<title>Node34&#45;&gt;Node36</title>
<g id="a_edge45_Node000034_Node000036"><a xlink:title=" ">
<path fill="none" stroke="#63b8ff" d="M1393,-55.55C1381.02,-46.78 1366.05,-35.83 1353.95,-26.97"/>
<polygon fill="#63b8ff" stroke="#63b8ff" points="1356.33,-24.38 1346.2,-21.3 1352.2,-30.03 1356.33,-24.38"/>
</a>
</g>
</g>
<!-- Node37 -->
<g id="Node000037" class="node">
<title>Node37</title>
<g id="a_Node000037"><a xlink:title=" ">
<polygon fill="#e0e0e0" stroke="#999999" points="1441.87,-20 1370.37,-20 1370.37,0 1441.87,0 1441.87,-20"/>
<text xml:space="preserve" text-anchor="middle" x="1406.12" y="-8.4" font-family="SourceSans" font-size="8.00">unordered_set</text>
</a>
</g>
</g>
<!-- Node34&#45;&gt;Node37 -->
<g id="edge46_Node000034_Node000037" class="edge">
<title>Node34&#45;&gt;Node37</title>
<g id="a_edge46_Node000034_Node000037"><a xlink:title=" ">
<path fill="none" stroke="#63b8ff" d="M1412.06,-55.55C1411.09,-48.26 1409.91,-39.45 1408.86,-31.6"/>
<polygon fill="#63b8ff" stroke="#63b8ff" points="1412.36,-31.36 1407.57,-21.91 1405.42,-32.28 1412.36,-31.36"/>
</a>
</g>
</g>
<!-- Node39&#45;&gt;Node8 -->
<g id="edge54_Node000039_Node000008" class="edge">
<title>Node39&#45;&gt;Node8</title>
<g id="a_edge54_Node000039_Node000008"><a xlink:title=" ">
<path fill="none" stroke="#63b8ff" d="M1147.13,-150.11C1148.76,-158.09 1149.25,-169.97 1148.57,-180.25"/>
<polygon fill="#63b8ff" stroke="#63b8ff" points="1145.11,-179.77 1147.36,-190.12 1152.06,-180.62 1145.11,-179.77"/>
</a>
</g>
</g>
<!-- Node39&#45;&gt;Node19 -->
<g id="edge52_Node000039_Node000019" class="edge">
<title>Node39&#45;&gt;Node19</title>
<g id="a_edge52_Node000039_Node000019"><a xlink:title=" ">
<path fill="none" stroke="#63b8ff" d="M1108.16,-129.5C1100.91,-127.59 1093.28,-125.66 1086.12,-124 1004.94,-105.21 981.33,-113.88 902.12,-88 900.95,-87.62 899.77,-87.21 898.59,-86.77"/>
<polygon fill="#63b8ff" stroke="#63b8ff" points="900.05,-83.59 889.48,-82.95 897.34,-90.04 900.05,-83.59"/>
</a>
</g>
</g>
<!-- Node39&#45;&gt;Node25 -->
<g id="edge51_Node000039_Node000025" class="edge">
<title>Node39&#45;&gt;Node25</title>
<g id="a_edge51_Node000039_Node000025"><a xlink:title=" ">
<path fill="none" stroke="#63b8ff" d="M1125.35,-129.54C1106.15,-118.71 1074.44,-100.82 1051.82,-88.06"/>
<polygon fill="#63b8ff" stroke="#63b8ff" points="1053.6,-85.05 1043.17,-83.18 1050.16,-91.14 1053.6,-85.05"/>
</a>
</g>
</g>
<!-- Node40 -->
<g id="Node000040" class="node">
<title>Node40</title>
<g id="a_Node000040"><a xlink:title=" ">
<polygon fill="#e0e0e0" stroke="#999999" points="1166.24,-82 1117.99,-82 1117.99,-62 1166.24,-62 1166.24,-82"/>
<text xml:space="preserve" text-anchor="middle" x="1142.12" y="-70.4" font-family="SourceSans" font-size="8.00">unistd.h</text>
</a>
</g>
</g>
<!-- Node39&#45;&gt;Node40 -->
<g id="edge53_Node000039_Node000040" class="edge">
<title>Node39&#45;&gt;Node40</title>
<g id="a_edge53_Node000039_Node000040"><a xlink:title=" ">
<path fill="none" stroke="#63b8ff" d="M1142.12,-129.54C1142.12,-120.23 1142.12,-105.7 1142.12,-93.7"/>
<polygon fill="#63b8ff" stroke="#63b8ff" points="1145.62,-93.95 1142.12,-83.95 1138.62,-93.95 1145.62,-93.95"/>
</a>
</g>
</g>
</g>
</svg>

<g id="navigator" transform="translate(0 0)" fill="#404254">
  <rect fill="#f2f5e9" fill-opacity="0.5" stroke="#606060" stroke-width=".5" x="0" y="0" width="60" height="60"/>
  <use id="zoomplus" xlink:href="#zoomPlus" x="17" y="9" onmousedown="handleZoom(evt,'in')"/>
  <use id="zoomminus" xlink:href="#zoomMin" x="42" y="9" onmousedown="handleZoom(evt,'out')"/>
  <use id="reset" xlink:href="#resetDef" x="30" y="36" onmousedown="handleReset()"/>
   <use id="arrowup" xlink:href="#arrowUp" x="0" y="0" onmousedown="handlePan(0,-1)"/>
  <use id="arrowright" xlink:href="#arrowRight" x="0" y="0" onmousedown="handlePan(1,0)"/>
  <use id="arrowdown" xlink:href="#arrowDown" x="0" y="0" onmousedown="handlePan(0,1)"/>
  <use id="arrowleft" xlink:href="#arrowLeft" x="0" y="0" onmousedown="handlePan(-1,0)"/>
</g>
<svg viewBox="0 0 15 15" width="100%" height="30px" preserveAspectRatio="xMaxYMin meet">
 <g id="arrow_out" transform="scale(0.3 0.3)">
  <a xlink:href="a60-svg-radial_8h__incl_org.svg" target="_base">
   <rect id="button" ry="5" rx="5" y="6" x="6" height="38" width="38"
        fill="#f2f5e9" fill-opacity="0.5" stroke="#606060" stroke-width="1.0"/>
   <path id="arrow"
     d="M 11.500037,31.436501 C 11.940474,20.09759 22.043105,11.32322 32.158766,21.979434 L 37.068811,17.246167 C 37.068811,17.246167 37.088388,32 37.088388,32 L 22.160133,31.978069 C 22.160133,31.978069 26.997745,27.140456 26.997745,27.140456 C 18.528582,18.264221 13.291696,25.230495 11.500037,31.436501 z"
     style="fill:#404040;"/>
  </a>
 </g>
</svg>

<style type='text/css'>
<![CDATA[
[data-mouse-over-selected='false'] { opacity: 0.7; }
[data-mouse-over-selected='true']  { opacity: 1.0; }
]]>
</style>
<script type="application/ecmascript"><![CDATA[
document.addEventListener('DOMContentLoaded', (event) => {
  highlightEdges();
  highlightAdjacentNodes();
});
]]></script>
</svg>
