<?xml version="1.0" encoding="UTF-8" standalone="no"?>
<!DOCTYPE svg PUBLIC "-//W3C//DTD SVG 1.1//EN"
 "http://www.w3.org/Graphics/SVG/1.1/DTD/svg11.dtd">
<!-- Generated by graphviz version 13.1.2 (20250808.2320)
 -->
<!-- Title: /home/bkoz/src/izzi/src/a60&#45;svg&#45;radial&#45;base.h Pages: 1 -->
<!--zoomable 300 -->

<svg id="main" version="1.1" xmlns="http://www.w3.org/2000/svg" xmlns:xlink="http://www.w3.org/1999/xlink" xml:space="preserve" onload="init(evt)">

<style type="text/css"><![CDATA[
.node, .edge {opacity: 0.7;}
.node.selected, .edge.selected {opacity: 1;}
.edge:hover path { stroke: red; }
.edge:hover polygon { stroke: red; fill: red; }
]]></style>

<defs>
  <circle id="rim" cx="0" cy="0" r="7"/>
  <circle id="rim2" cx="0" cy="0" r="3.5"/>
  <g id="zoomPlus">
    <use xlink:href="#rim" fill="#404040"><set attributeName="fill" to="#808080" begin="zoomplus.mouseover" end="zoomplus.mouseout"/></use>
    <path d="M-4,0h8M0,-4v8" fill="none" stroke="white" stroke-width="1.5" pointer-events="none"/>
  </g>
  <g id="zoomMin">
    <use xlink:href="#rim" fill="#404040"><set attributeName="fill" to="#808080" begin="zoomminus.mouseover" end="zoomminus.mouseout"/></use>
    <path d="M-4,0h8" fill="none" stroke="white" stroke-width="1.5" pointer-events="none"/>
  </g>
  <g id="arrowUp" transform="translate(30 24)">
    <use xlink:href="#rim"/>
    <path pointer-events="none" fill="none" stroke="white" stroke-width="1.5" d="M0,-3.0v7 M-2.5,-0.5L0,-3.0L2.5,-0.5"/>
  </g>
  <g id="arrowRight" transform="rotate(90) translate(36 -43)">
    <use xlink:href="#rim"/>
    <path pointer-events="none" fill="none" stroke="white" stroke-width="1.5" d="M0,-3.0v7 M-2.5,-0.5L0,-3.0L2.5,-0.5"/>
  </g>
  <g id="arrowDown" transform="rotate(180) translate(-30 -48)">
    <use xlink:href="#rim"/>
    <path pointer-events="none" fill="none" stroke="white" stroke-width="1.5" d="M0,-3.0v7 M-2.5,-0.5L0,-3.0L2.5,-0.5"/>
  </g>
  <g id="arrowLeft" transform="rotate(270) translate(-36 17)">
    <use xlink:href="#rim"/>
    <path pointer-events="none" fill="none" stroke="white" stroke-width="1.5" d="M0,-3.0v7 M-2.5,-0.5L0,-3.0L2.5,-0.5"/>
  </g>
  <g id="resetDef">
    <use xlink:href="#rim2" fill="#404040"><set attributeName="fill" to="#808080" begin="reset.mouseover" end="reset.mouseout"/></use>
  </g>
</defs>
<script type="application/ecmascript">
var viewWidth = 2031;
var viewHeight = 300;
var sectionId = 'dynsection-0';
</script>
<script type="application/ecmascript" xlink:href="svg.min.js"/>
<svg id="graph" class="graph">
<g id="viewport">
<title>/home/bkoz/src/izzi/src/a60&#45;svg&#45;radial&#45;base.h</title>
<!-- Node1 -->
<g id="Node000001" class="node">
<title>Node1</title>
<g id="a_Node000001"><a xlink:title=" ">
<polygon fill="#999999" stroke="#666666" points="146.99,-292 56.74,-292 56.74,-248 146.99,-248 146.99,-292"/>
<text xml:space="preserve" text-anchor="start" x="64.74" y="-280.4" font-family="SourceSans" font-size="8.00">/home/bkoz/src/izzi</text>
<text xml:space="preserve" text-anchor="start" x="64.74" y="-268.4" font-family="SourceSans" font-size="8.00">/src/a60&#45;svg&#45;radial</text>
<text xml:space="preserve" text-anchor="middle" x="101.87" y="-256.4" font-family="SourceSans" font-size="8.00">&#45;base.h</text>
</a>
</g>
</g>
<!-- Node2 -->
<g id="Node000002" class="node">
<title>Node2</title>
<g id="a_Node000002"><a xlink:title=" ">
<polygon fill="#e0e0e0" stroke="#999999" points="177.27,-150 148.47,-150 148.47,-130 177.27,-130 177.27,-150"/>
<text xml:space="preserve" text-anchor="middle" x="162.87" y="-138.4" font-family="SourceSans" font-size="8.00">set</text>
</a>
</g>
</g>
<!-- Node1&#45;&gt;Node2 -->
<g id="edge1_Node000001_Node000002" class="edge">
<title>Node1&#45;&gt;Node2</title>
<g id="a_edge1_Node000001_Node000002"><a xlink:title=" ">
<path fill="none" stroke="#63b8ff" d="M115.18,-247.76C121.52,-237.21 128.99,-224.15 134.87,-212 142.97,-195.22 150.62,-175.45 155.87,-161.04"/>
<polygon fill="#63b8ff" stroke="#63b8ff" points="159.1,-162.4 159.16,-151.81 152.51,-160.05 159.1,-162.4"/>
</a>
</g>
</g>
<!-- Node3 -->
<g id="Node000003" class="node">
<title>Node3</title>
<g id="a_Node000003"><a xlink:title=" ">
<polygon fill="#e0e0e0" stroke="#999999" points="54.99,-212 12.74,-212 12.74,-192 54.99,-192 54.99,-212"/>
<text xml:space="preserve" text-anchor="middle" x="33.87" y="-200.4" font-family="SourceSans" font-size="8.00">chrono</text>
</a>
</g>
</g>
<!-- Node1&#45;&gt;Node3 -->
<g id="edge2_Node000001_Node000003" class="edge">
<title>Node1&#45;&gt;Node3</title>
<g id="a_edge2_Node000001_Node000003"><a xlink:title=" ">
<path fill="none" stroke="#63b8ff" d="M79.98,-247.75C70.87,-238.92 60.43,-228.78 51.79,-220.4"/>
<polygon fill="#63b8ff" stroke="#63b8ff" points="54.27,-217.93 44.66,-213.47 49.39,-222.95 54.27,-217.93"/>
</a>
</g>
</g>
<!-- Node4 -->
<g id="Node000004" class="node">
<title>Node4</title>
<g id="a_Node000004"><a xlink:title=" ">
<polygon fill="#e0e0e0" stroke="#999999" points="1554.37,-20 1505.37,-20 1505.37,0 1554.37,0 1554.37,-20"/>
<text xml:space="preserve" text-anchor="middle" x="1529.87" y="-8.4" font-family="SourceSans" font-size="8.00">iostream</text>
</a>
</g>
</g>
<!-- Node1&#45;&gt;Node4 -->
<g id="edge3_Node000001_Node000004" class="edge">
<title>Node1&#45;&gt;Node4</title>
<g id="a_edge3_Node000001_Node000004"><a xlink:title=" ">
<path fill="none" stroke="#63b8ff" d="M97.78,-247.69C93.2,-217.39 89.41,-161.4 114.87,-124 144.7,-80.18 162.55,-72.7 212.87,-56 337.28,-14.72 1294.54,-11.29 1493.66,-11.02"/>
<polygon fill="#63b8ff" stroke="#63b8ff" points="1493.39,-14.52 1503.39,-11.01 1493.38,-7.52 1493.39,-14.52"/>
</a>
</g>
</g>
<!-- Node5 -->
<g id="Node000005" class="node">
<title>Node5</title>
<g id="a_Node000005"><a xlink:title=" ">
<polygon fill="#e0e0e0" stroke="#999999" points="287.62,-82 240.12,-82 240.12,-62 287.62,-62 287.62,-82"/>
<text xml:space="preserve" text-anchor="middle" x="263.87" y="-70.4" font-family="SourceSans" font-size="8.00">iomanip</text>
</a>
</g>
</g>
<!-- Node1&#45;&gt;Node5 -->
<g id="edge4_Node000001_Node000005" class="edge">
<title>Node1&#45;&gt;Node5</title>
<g id="a_edge4_Node000001_Node000005"><a xlink:title=" ">
<path fill="none" stroke="#63b8ff" d="M56.48,-254.64C24.06,-241.67 -11.36,-220.3 3.87,-192 48.3,-109.42 168.73,-83.92 228.81,-76.22"/>
<polygon fill="#63b8ff" stroke="#63b8ff" points="228.95,-79.73 238.47,-75.08 228.13,-72.78 228.95,-79.73"/>
</a>
</g>
</g>
<!-- Node6 -->
<g id="Node000006" class="node">
<title>Node6</title>
<g id="a_Node000006"><a xlink:title=" ">
<polygon fill="#e0e0e0" stroke="#999999" points="365.62,-82 312.12,-82 312.12,-62 365.62,-62 365.62,-82"/>
<text xml:space="preserve" text-anchor="middle" x="338.87" y="-70.4" font-family="SourceSans" font-size="8.00">algorithm</text>
</a>
</g>
</g>
<!-- Node1&#45;&gt;Node6 -->
<g id="edge5_Node000001_Node000006" class="edge">
<title>Node1&#45;&gt;Node6</title>
<g id="a_edge5_Node000001_Node000006"><a xlink:title=" ">
<path fill="none" stroke="#63b8ff" d="M101.03,-247.66C101.03,-216.02 105.95,-156.88 139.87,-124 191.26,-74.17 228.15,-108.07 296.87,-88 298.98,-87.38 301.15,-86.71 303.33,-86.02"/>
<polygon fill="#63b8ff" stroke="#63b8ff" points="304.36,-89.36 312.72,-82.85 302.12,-82.73 304.36,-89.36"/>
</a>
</g>
</g>
<!-- Node7 -->
<g id="Node000007" class="node">
<title>Node7</title>
<g id="a_Node000007"><a xlink:href="a60-svg_8h.html" target="_top" xlink:title=" ">
<polygon fill="white" stroke="#666666" points="1227.87,-212 1175.87,-212 1175.87,-192 1227.87,-192 1227.87,-212"/>
<text xml:space="preserve" text-anchor="middle" x="1201.87" y="-200.4" font-family="SourceSans" font-size="8.00">a60&#45;svg.h</text>
</a>
</g>
</g>
<!-- Node1&#45;&gt;Node7 -->
<g id="edge6_Node000001_Node000007" class="edge">
<title>Node1&#45;&gt;Node7</title>
<g id="a_edge6_Node000001_Node000007"><a xlink:title=" ">
<path fill="none" stroke="#63b8ff" d="M147.38,-266.27C328.83,-255.38 998.72,-215.19 1164.55,-205.24"/>
<polygon fill="#63b8ff" stroke="#63b8ff" points="1164.54,-208.75 1174.31,-204.65 1164.12,-201.76 1164.54,-208.75"/>
</a>
</g>
</g>
<!-- Node7&#45;&gt;Node2 -->
<g id="edge14_Node000007_Node000002" class="edge">
<title>Node7&#45;&gt;Node2</title>
<g id="a_edge14_Node000007_Node000002"><a xlink:title=" ">
<path fill="none" stroke="#63b8ff" d="M1175.71,-200.53C1026.72,-197.76 288.28,-182.77 190.87,-156 189.87,-155.73 188.86,-155.41 187.86,-155.06"/>
<polygon fill="#63b8ff" stroke="#63b8ff" points="189.4,-151.92 178.84,-151.02 186.53,-158.3 189.4,-151.92"/>
</a>
</g>
</g>
<!-- Node7&#45;&gt;Node6 -->
<g id="edge9_Node000007_Node000006" class="edge">
<title>Node7&#45;&gt;Node6</title>
<g id="a_edge9_Node000007_Node000006"><a xlink:title=" ">
<path fill="none" stroke="#63b8ff" d="M1175.39,-200.48C1035.75,-197.62 389.9,-182.95 357.87,-156 340.04,-141 336.96,-113.02 337.23,-93.73"/>
<polygon fill="#63b8ff" stroke="#63b8ff" points="340.72,-93.94 337.71,-83.78 333.73,-93.6 340.72,-93.94"/>
</a>
</g>
</g>
<!-- Node8 -->
<g id="Node000008" class="node">
<title>Node8</title>
<g id="a_Node000008"><a xlink:title=" ">
<polygon fill="#e0e0e0" stroke="#999999" points="1765.12,-150 1720.62,-150 1720.62,-130 1765.12,-130 1765.12,-150"/>
<text xml:space="preserve" text-anchor="middle" x="1742.87" y="-138.4" font-family="SourceSans" font-size="8.00">cstddef</text>
</a>
</g>
</g>
<!-- Node7&#45;&gt;Node8 -->
<g id="edge7_Node000007_Node000008" class="edge">
<title>Node7&#45;&gt;Node8</title>
<g id="a_edge7_Node000007_Node000008"><a xlink:title=" ">
<path fill="none" stroke="#63b8ff" d="M1228.23,-199.93C1319.18,-196.05 1619.22,-181.57 1711.87,-156 1713.23,-155.62 1714.6,-155.19 1715.97,-154.71"/>
<polygon fill="#63b8ff" stroke="#63b8ff" points="1716.98,-158.09 1724.85,-150.99 1714.27,-151.63 1716.98,-158.09"/>
</a>
</g>
</g>
<!-- Node9 -->
<g id="Node000009" class="node">
<title>Node9</title>
<g id="a_Node000009"><a xlink:title=" ">
<polygon fill="#e0e0e0" stroke="#999999" points="1902.87,-20 1862.87,-20 1862.87,0 1902.87,0 1902.87,-20"/>
<text xml:space="preserve" text-anchor="middle" x="1882.87" y="-8.4" font-family="SourceSans" font-size="8.00">cmath</text>
</a>
</g>
</g>
<!-- Node7&#45;&gt;Node9 -->
<g id="edge8_Node000007_Node000009" class="edge">
<title>Node7&#45;&gt;Node9</title>
<g id="a_edge8_Node000007_Node000009"><a xlink:title=" ">
<path fill="none" stroke="#63b8ff" d="M1228.11,-201.14C1345.27,-201.5 1816.85,-200.17 1863.87,-156 1898.01,-123.93 1892.8,-62.76 1887.24,-31.1"/>
<polygon fill="#63b8ff" stroke="#63b8ff" points="1890.75,-30.82 1885.38,-21.68 1883.88,-32.17 1890.75,-30.82"/>
</a>
</g>
</g>
<!-- Node10 -->
<g id="Node000010" class="node">
<title>Node10</title>
<g id="a_Node000010"><a xlink:title=" ">
<polygon fill="#e0e0e0" stroke="#999999" points="1855.24,-150 1820.49,-150 1820.49,-130 1855.24,-130 1855.24,-150"/>
<text xml:space="preserve" text-anchor="middle" x="1837.87" y="-138.4" font-family="SourceSans" font-size="8.00">array</text>
</a>
</g>
</g>
<!-- Node7&#45;&gt;Node10 -->
<g id="edge10_Node000007_Node000010" class="edge">
<title>Node7&#45;&gt;Node10</title>
<g id="a_edge10_Node000007_Node000010"><a xlink:title=" ">
<path fill="none" stroke="#63b8ff" d="M1228.1,-200.35C1329.42,-197.66 1695.1,-186.03 1806.87,-156 1808.23,-155.63 1809.61,-155.21 1810.98,-154.73"/>
<polygon fill="#63b8ff" stroke="#63b8ff" points="1811.98,-158.11 1819.86,-151.03 1809.28,-151.65 1811.98,-158.11"/>
</a>
</g>
</g>
<!-- Node11 -->
<g id="Node000011" class="node">
<title>Node11</title>
<g id="a_Node000011"><a xlink:title=" ">
<polygon fill="#e0e0e0" stroke="#999999" points="1956.99,-20 1920.74,-20 1920.74,0 1956.99,0 1956.99,-20"/>
<text xml:space="preserve" text-anchor="middle" x="1938.87" y="-8.4" font-family="SourceSans" font-size="8.00">tuple</text>
</a>
</g>
</g>
<!-- Node7&#45;&gt;Node11 -->
<g id="edge11_Node000007_Node000011" class="edge">
<title>Node7&#45;&gt;Node11</title>
<g id="a_edge11_Node000007_Node000011"><a xlink:title=" ">
<path fill="none" stroke="#63b8ff" d="M1228.05,-200.96C1347.17,-200.57 1834.5,-196.49 1887.87,-156 1927.09,-126.24 1936.27,-64.06 1938.33,-31.65"/>
<polygon fill="#63b8ff" stroke="#63b8ff" points="1941.81,-32.12 1938.77,-21.97 1934.82,-31.8 1941.81,-32.12"/>
</a>
</g>
</g>
<!-- Node12 -->
<g id="Node000012" class="node">
<title>Node12</title>
<g id="a_Node000012"><a xlink:title=" ">
<polygon fill="#e0e0e0" stroke="#999999" points="1987.12,-150 1948.62,-150 1948.62,-130 1987.12,-130 1987.12,-150"/>
<text xml:space="preserve" text-anchor="middle" x="1967.87" y="-138.4" font-family="SourceSans" font-size="8.00">string</text>
</a>
</g>
</g>
<!-- Node7&#45;&gt;Node12 -->
<g id="edge12_Node000007_Node000012" class="edge">
<title>Node7&#45;&gt;Node12</title>
<g id="a_edge12_Node000007_Node000012"><a xlink:title=" ">
<path fill="none" stroke="#63b8ff" d="M1228,-200.67C1342.08,-199.02 1796.76,-190.38 1934.87,-156 1936.47,-155.6 1938.09,-155.13 1939.71,-154.59"/>
<polygon fill="#63b8ff" stroke="#63b8ff" points="1940.71,-157.96 1948.73,-151.04 1938.14,-151.45 1940.71,-157.96"/>
</a>
</g>
</g>
<!-- Node13 -->
<g id="Node000013" class="node">
<title>Node13</title>
<g id="a_Node000013"><a xlink:title=" ">
<polygon fill="#e0e0e0" stroke="#999999" points="2023.12,-20 1984.62,-20 1984.62,0 2023.12,0 2023.12,-20"/>
<text xml:space="preserve" text-anchor="middle" x="2003.87" y="-8.4" font-family="SourceSans" font-size="8.00">vector</text>
</a>
</g>
</g>
<!-- Node7&#45;&gt;Node13 -->
<g id="edge13_Node000007_Node000013" class="edge">
<title>Node7&#45;&gt;Node13</title>
<g id="a_edge13_Node000007_Node000013"><a xlink:title=" ">
<path fill="none" stroke="#63b8ff" d="M1228.17,-200.48C1362.64,-197.72 1968.12,-183.78 1995.87,-156 2028.58,-123.24 2018.48,-62.87 2010.15,-31.36"/>
<polygon fill="#63b8ff" stroke="#63b8ff" points="2013.57,-30.57 2007.45,-21.92 2006.84,-32.5 2013.57,-30.57"/>
</a>
</g>
</g>
<!-- Node14 -->
<g id="Node000014" class="node">
<title>Node14</title>
<g id="a_Node000014"><a xlink:title=" ">
<polygon fill="#e0e0e0" stroke="#999999" points="310.62,-150 233.12,-150 233.12,-130 310.62,-130 310.62,-150"/>
<text xml:space="preserve" text-anchor="middle" x="271.87" y="-138.4" font-family="SourceSans" font-size="8.00">unordered_map</text>
</a>
</g>
</g>
<!-- Node7&#45;&gt;Node14 -->
<g id="edge15_Node000007_Node000014" class="edge">
<title>Node7&#45;&gt;Node14</title>
<g id="a_edge15_Node000007_Node000014"><a xlink:title=" ">
<path fill="none" stroke="#63b8ff" d="M1175.56,-200.45C1048.2,-197.64 494.84,-184.05 324.87,-156 320.53,-155.28 316.05,-154.34 311.6,-153.28"/>
<polygon fill="#63b8ff" stroke="#63b8ff" points="312.78,-149.97 302.22,-150.83 311.01,-156.74 312.78,-149.97"/>
</a>
</g>
</g>
<!-- Node15 -->
<g id="Node000015" class="node">
<title>Node15</title>
<g id="a_Node000015"><a xlink:title=" ">
<polygon fill="#e0e0e0" stroke="#999999" points="1643.62,-20 1572.12,-20 1572.12,0 1643.62,0 1643.62,-20"/>
<text xml:space="preserve" text-anchor="middle" x="1607.87" y="-8.4" font-family="SourceSans" font-size="8.00">unordered_set</text>
</a>
</g>
</g>
<!-- Node7&#45;&gt;Node15 -->
<g id="edge16_Node000007_Node000015" class="edge">
<title>Node7&#45;&gt;Node15</title>
<g id="a_edge16_Node000007_Node000015"><a xlink:title=" ">
<path fill="none" stroke="#63b8ff" d="M1175.69,-200.8C1023.47,-199.54 257.69,-191.42 223.87,-156 209.35,-140.8 210.64,-74.76 230.87,-56 283.44,-7.26 1413.79,-27.06 1560.61,-19.71"/>
<polygon fill="#63b8ff" stroke="#63b8ff" points="1560.7,-23.21 1570.42,-18.99 1560.19,-16.23 1560.7,-23.21"/>
</a>
</g>
</g>
<!-- Node16 -->
<g id="Node000016" class="node">
<title>Node16</title>
<g id="a_Node000016"><a xlink:title=" ">
<polygon fill="#e0e0e0" stroke="#999999" points="412.87,-150 366.87,-150 366.87,-130 412.87,-130 412.87,-150"/>
<text xml:space="preserve" text-anchor="middle" x="389.87" y="-138.4" font-family="SourceSans" font-size="8.00">sstream</text>
</a>
</g>
</g>
<!-- Node7&#45;&gt;Node16 -->
<g id="edge17_Node000007_Node000016" class="edge">
<title>Node7&#45;&gt;Node16</title>
<g id="a_edge17_Node000007_Node000016"><a xlink:title=" ">
<path fill="none" stroke="#63b8ff" d="M1175.65,-200.82C1056.96,-199.79 569.3,-193.33 421.87,-156 420.27,-155.6 418.65,-155.11 417.04,-154.57"/>
<polygon fill="#63b8ff" stroke="#63b8ff" points="418.67,-151.45 408.09,-150.92 416.03,-157.93 418.67,-151.45"/>
</a>
</g>
</g>
<!-- Node17 -->
<g id="Node000017" class="node">
<title>Node17</title>
<g id="a_Node000017"><a xlink:href="a60-svg-color_8h.html" target="_top" xlink:title=" ">
<polygon fill="white" stroke="#666666" points="622.62,-150 551.12,-150 551.12,-130 622.62,-130 622.62,-150"/>
<text xml:space="preserve" text-anchor="middle" x="586.87" y="-138.4" font-family="SourceSans" font-size="8.00">a60&#45;svg&#45;color.h</text>
</a>
</g>
</g>
<!-- Node7&#45;&gt;Node17 -->
<g id="edge18_Node000007_Node000017" class="edge">
<title>Node7&#45;&gt;Node17</title>
<g id="a_edge18_Node000007_Node000017"><a xlink:title=" ">
<path fill="none" stroke="#63b8ff" d="M1175.42,-201.18C1093.66,-201.25 838.1,-197.86 631.87,-156 628.69,-155.35 625.42,-154.55 622.17,-153.66"/>
<polygon fill="#63b8ff" stroke="#63b8ff" points="623.36,-150.36 612.78,-150.79 621.32,-157.06 623.36,-150.36"/>
</a>
</g>
</g>
<!-- Node20 -->
<g id="Node000020" class="node">
<title>Node20</title>
<g id="a_Node000020"><a xlink:href="a60-svg-color-palette_8h.html" target="_top" xlink:title=" ">
<polygon fill="white" stroke="#666666" points="532.62,-150 431.12,-150 431.12,-130 532.62,-130 532.62,-150"/>
<text xml:space="preserve" text-anchor="middle" x="481.87" y="-138.4" font-family="SourceSans" font-size="8.00">a60&#45;svg&#45;color&#45;palette.h</text>
</a>
</g>
</g>
<!-- Node7&#45;&gt;Node20 -->
<g id="edge23_Node000007_Node000020" class="edge">
<title>Node7&#45;&gt;Node20</title>
<g id="a_edge23_Node000007_Node000020"><a xlink:title=" ">
<path fill="none" stroke="#63b8ff" d="M1175.58,-200.87C1086.21,-200.08 786.06,-194.54 541.87,-156 536.84,-155.21 531.61,-154.19 526.44,-153.07"/>
<polygon fill="#63b8ff" stroke="#63b8ff" points="527.3,-149.67 516.76,-150.81 525.71,-156.49 527.3,-149.67"/>
</a>
</g>
</g>
<!-- Node21 -->
<g id="Node000021" class="node">
<title>Node21</title>
<g id="a_Node000021"><a xlink:href="a60-svg-color-band_8h.html" target="_top" xlink:title=" ">
<polygon fill="white" stroke="#666666" points="1605.24,-82 1510.49,-82 1510.49,-62 1605.24,-62 1605.24,-82"/>
<text xml:space="preserve" text-anchor="middle" x="1557.87" y="-70.4" font-family="SourceSans" font-size="8.00">a60&#45;svg&#45;color&#45;band.h</text>
</a>
</g>
</g>
<!-- Node7&#45;&gt;Node21 -->
<g id="edge24_Node000007_Node000021" class="edge">
<title>Node7&#45;&gt;Node21</title>
<g id="a_edge24_Node000007_Node000021"><a xlink:title=" ">
<path fill="none" stroke="#63b8ff" d="M1228.27,-201.63C1301.66,-202.79 1505.59,-201.74 1549.87,-156 1565.57,-139.78 1565.11,-112.53 1562.35,-93.7"/>
<polygon fill="#63b8ff" stroke="#63b8ff" points="1565.82,-93.19 1560.57,-83.98 1558.93,-94.45 1565.82,-93.19"/>
</a>
</g>
</g>
<!-- Node22 -->
<g id="Node000022" class="node">
<title>Node22</title>
<g id="a_Node000022"><a xlink:href="izzi-points_8h.html" target="_top" xlink:title=" ">
<polygon fill="white" stroke="#666666" points="702.74,-150 640.99,-150 640.99,-130 702.74,-130 702.74,-150"/>
<text xml:space="preserve" text-anchor="middle" x="671.87" y="-138.4" font-family="SourceSans" font-size="8.00">izzi&#45;points.h</text>
</a>
</g>
</g>
<!-- Node7&#45;&gt;Node22 -->
<g id="edge26_Node000007_Node000022" class="edge">
<title>Node7&#45;&gt;Node22</title>
<g id="a_edge26_Node000007_Node000022"><a xlink:title=" ">
<path fill="none" stroke="#63b8ff" d="M1175.38,-201.12C1101.06,-200.9 884.67,-196.56 710.87,-156 708.69,-155.49 706.48,-154.89 704.27,-154.23"/>
<polygon fill="#63b8ff" stroke="#63b8ff" points="705.42,-150.92 694.83,-150.99 703.15,-157.54 705.42,-150.92"/>
</a>
</g>
</g>
<!-- Node23 -->
<g id="Node000023" class="node">
<title>Node23</title>
<g id="a_Node000023"><a xlink:href="a60-svg-base-types_8h.html" target="_top" xlink:title=" ">
<polygon fill="white" stroke="#666666" points="1307.24,-150 1212.49,-150 1212.49,-130 1307.24,-130 1307.24,-150"/>
<text xml:space="preserve" text-anchor="middle" x="1259.87" y="-138.4" font-family="SourceSans" font-size="8.00">a60&#45;svg&#45;base&#45;types.h</text>
</a>
</g>
</g>
<!-- Node7&#45;&gt;Node23 -->
<g id="edge27_Node000007_Node000023" class="edge">
<title>Node7&#45;&gt;Node23</title>
<g id="a_edge27_Node000007_Node000023"><a xlink:title=" ">
<path fill="none" stroke="#63b8ff" d="M1210.93,-191.62C1219.58,-182.68 1232.81,-168.99 1243.34,-158.1"/>
<polygon fill="#63b8ff" stroke="#63b8ff" points="1245.57,-160.82 1250,-151.2 1240.54,-155.96 1245.57,-160.82"/>
</a>
</g>
</g>
<!-- Node27 -->
<g id="Node000027" class="node">
<title>Node27</title>
<g id="a_Node000027"><a xlink:href="a60-svg-constants_8h.html" target="_top" xlink:title=" ">
<polygon fill="white" stroke="#666666" points="811.37,-150 720.37,-150 720.37,-130 811.37,-130 811.37,-150"/>
<text xml:space="preserve" text-anchor="middle" x="765.87" y="-138.4" font-family="SourceSans" font-size="8.00">a60&#45;svg&#45;constants.h</text>
</a>
</g>
</g>
<!-- Node7&#45;&gt;Node27 -->
<g id="edge32_Node000007_Node000027" class="edge">
<title>Node7&#45;&gt;Node27</title>
<g id="a_edge32_Node000007_Node000027"><a xlink:title=" ">
<path fill="none" stroke="#63b8ff" d="M1175.71,-199.31C1113.55,-194.99 952.22,-182.02 819.87,-156 815.86,-155.21 811.71,-154.28 807.59,-153.27"/>
<polygon fill="#63b8ff" stroke="#63b8ff" points="808.82,-149.98 798.26,-150.85 807.06,-156.75 808.82,-149.98"/>
</a>
</g>
</g>
<!-- Node28 -->
<g id="Node000028" class="node">
<title>Node28</title>
<g id="a_Node000028"><a xlink:href="a60-svg-elements_8h.html" target="_top" xlink:title=" ">
<polygon fill="white" stroke="#666666" points="918.62,-150 829.12,-150 829.12,-130 918.62,-130 918.62,-150"/>
<text xml:space="preserve" text-anchor="middle" x="873.87" y="-138.4" font-family="SourceSans" font-size="8.00">a60&#45;svg&#45;elements.h</text>
</a>
</g>
</g>
<!-- Node7&#45;&gt;Node28 -->
<g id="edge33_Node000007_Node000028" class="edge">
<title>Node7&#45;&gt;Node28</title>
<g id="a_edge33_Node000007_Node000028"><a xlink:title=" ">
<path fill="none" stroke="#63b8ff" d="M1175.62,-197.65C1126.62,-191.19 1018.02,-175.86 927.87,-156 924.26,-155.2 920.53,-154.31 916.79,-153.38"/>
<polygon fill="#63b8ff" stroke="#63b8ff" points="917.73,-150 907.17,-150.84 915.95,-156.77 917.73,-150"/>
</a>
</g>
</g>
<!-- Node29 -->
<g id="Node000029" class="node">
<title>Node29</title>
<g id="a_Node000029"><a xlink:href="a60-svg-elements-components_8h.html" target="_top" xlink:title=" ">
<polygon fill="white" stroke="#666666" points="1075.37,-150 936.37,-150 936.37,-130 1075.37,-130 1075.37,-150"/>
<text xml:space="preserve" text-anchor="middle" x="1005.87" y="-138.4" font-family="SourceSans" font-size="8.00">a60&#45;svg&#45;elements&#45;components.h</text>
</a>
</g>
</g>
<!-- Node7&#45;&gt;Node29 -->
<g id="edge34_Node000007_Node000029" class="edge">
<title>Node7&#45;&gt;Node29</title>
<g id="a_edge34_Node000007_Node000029"><a xlink:title=" ">
<path fill="none" stroke="#63b8ff" d="M1175.43,-192.91C1142.62,-182.86 1086.28,-165.62 1047.61,-153.78"/>
<polygon fill="#63b8ff" stroke="#63b8ff" points="1048.75,-150.47 1038.16,-150.89 1046.7,-157.16 1048.75,-150.47"/>
</a>
</g>
</g>
<!-- Node30 -->
<g id="Node000030" class="node">
<title>Node30</title>
<g id="a_Node000030"><a xlink:href="a60-svg-render-state_8h.html" target="_top" xlink:title=" ">
<polygon fill="white" stroke="#666666" points="1194.24,-150 1093.49,-150 1093.49,-130 1194.24,-130 1194.24,-150"/>
<text xml:space="preserve" text-anchor="middle" x="1143.87" y="-138.4" font-family="SourceSans" font-size="8.00">a60&#45;svg&#45;render&#45;state.h</text>
</a>
</g>
</g>
<!-- Node7&#45;&gt;Node30 -->
<g id="edge35_Node000007_Node000030" class="edge">
<title>Node7&#45;&gt;Node30</title>
<g id="a_edge35_Node000007_Node000030"><a xlink:title=" ">
<path fill="none" stroke="#63b8ff" d="M1192.8,-191.62C1184.16,-182.68 1170.92,-168.99 1160.4,-158.1"/>
<polygon fill="#63b8ff" stroke="#63b8ff" points="1163.19,-155.96 1153.73,-151.2 1158.16,-160.82 1163.19,-155.96"/>
</a>
</g>
</g>
<!-- Node31 -->
<g id="Node000031" class="node">
<title>Node31</title>
<g id="a_Node000031"><a xlink:href="a60-svg-render-basics_8h.html" target="_top" xlink:title=" ">
<polygon fill="white" stroke="#666666" points="1702.49,-150 1597.24,-150 1597.24,-130 1702.49,-130 1702.49,-150"/>
<text xml:space="preserve" text-anchor="middle" x="1649.87" y="-138.4" font-family="SourceSans" font-size="8.00">a60&#45;svg&#45;render&#45;basics.h</text>
</a>
</g>
</g>
<!-- Node7&#45;&gt;Node31 -->
<g id="edge36_Node000007_Node000031" class="edge">
<title>Node7&#45;&gt;Node31</title>
<g id="a_edge36_Node000007_Node000031"><a xlink:title=" ">
<path fill="none" stroke="#63b8ff" d="M1228.33,-198.82C1290.49,-193.49 1450.57,-178.56 1582.87,-156 1588.38,-155.06 1594.12,-153.96 1599.83,-152.79"/>
<polygon fill="#63b8ff" stroke="#63b8ff" points="1600.14,-156.3 1609.19,-150.8 1598.68,-149.46 1600.14,-156.3"/>
</a>
</g>
</g>
<!-- Node37 -->
<g id="Node000037" class="node">
<title>Node37</title>
<g id="a_Node000037"><a xlink:href="a60-svg-composite-and-layer-basics_8h.html" target="_top" xlink:title=" ">
<polygon fill="white" stroke="#666666" points="1428.37,-156 1325.37,-156 1325.37,-124 1428.37,-124 1428.37,-156"/>
<text xml:space="preserve" text-anchor="start" x="1333.37" y="-144.4" font-family="SourceSans" font-size="8.00">a60&#45;svg&#45;composite&#45;and</text>
<text xml:space="preserve" text-anchor="middle" x="1376.87" y="-132.4" font-family="SourceSans" font-size="8.00">&#45;layer&#45;basics.h</text>
</a>
</g>
</g>
<!-- Node7&#45;&gt;Node37 -->
<g id="edge49_Node000007_Node000037" class="edge">
<title>Node7&#45;&gt;Node37</title>
<g id="a_edge49_Node000007_Node000037"><a xlink:title=" ">
<path fill="none" stroke="#63b8ff" d="M1228.07,-192.02C1252.54,-183.62 1289.89,-170.82 1321.04,-160.14"/>
<polygon fill="#63b8ff" stroke="#63b8ff" points="1322.01,-163.51 1330.34,-156.95 1319.74,-156.89 1322.01,-163.51"/>
</a>
</g>
</g>
<!-- Node38 -->
<g id="Node000038" class="node">
<title>Node38</title>
<g id="a_Node000038"><a xlink:href="a60-svg-sequences_8h.html" target="_top" xlink:title=" ">
<polygon fill="white" stroke="#666666" points="1541.24,-150 1446.49,-150 1446.49,-130 1541.24,-130 1541.24,-150"/>
<text xml:space="preserve" text-anchor="middle" x="1493.87" y="-138.4" font-family="SourceSans" font-size="8.00">a60&#45;svg&#45;sequences.h</text>
</a>
</g>
</g>
<!-- Node7&#45;&gt;Node38 -->
<g id="edge50_Node000007_Node000038" class="edge">
<title>Node7&#45;&gt;Node38</title>
<g id="a_edge50_Node000007_Node000038"><a xlink:title=" ">
<path fill="none" stroke="#63b8ff" d="M1228.11,-195.63C1270.67,-187.85 1356.49,-172.57 1428.87,-156 1432.61,-155.14 1436.48,-154.21 1440.39,-153.24"/>
<polygon fill="#63b8ff" stroke="#63b8ff" points="1441.12,-156.66 1449.96,-150.82 1439.4,-149.88 1441.12,-156.66"/>
</a>
</g>
</g>
<!-- Node17&#45;&gt;Node5 -->
<g id="edge22_Node000017_Node000005" class="edge">
<title>Node17&#45;&gt;Node5</title>
<g id="a_edge22_Node000017_Node000005"><a xlink:title=" ">
<path fill="none" stroke="#63b8ff" d="M560.91,-129.5C554.73,-127.48 548.11,-125.5 541.87,-124 437.41,-98.92 406.72,-115.44 302.87,-88 300.85,-87.47 298.79,-86.86 296.73,-86.22"/>
<polygon fill="#63b8ff" stroke="#63b8ff" points="297.89,-82.91 287.29,-82.92 295.58,-89.52 297.89,-82.91"/>
</a>
</g>
</g>
<!-- Node17&#45;&gt;Node6 -->
<g id="edge20_Node000017_Node000006" class="edge">
<title>Node17&#45;&gt;Node6</title>
<g id="a_edge20_Node000017_Node000006"><a xlink:title=" ">
<path fill="none" stroke="#63b8ff" d="M559.84,-129.62C553.94,-127.68 547.72,-125.71 541.87,-124 484.91,-107.38 418.04,-91.21 377.06,-81.69"/>
<polygon fill="#63b8ff" stroke="#63b8ff" points="377.97,-78.3 367.44,-79.46 376.4,-85.12 377.97,-78.3"/>
</a>
</g>
</g>
<!-- Node18 -->
<g id="Node000018" class="node">
<title>Node18</title>
<g id="a_Node000018"><a xlink:title=" ">
<polygon fill="#e0e0e0" stroke="#999999" points="711.49,-82 678.24,-82 678.24,-62 711.49,-62 711.49,-82"/>
<text xml:space="preserve" text-anchor="middle" x="694.87" y="-70.4" font-family="SourceSans" font-size="8.00">map</text>
</a>
</g>
</g>
<!-- Node17&#45;&gt;Node18 -->
<g id="edge19_Node000017_Node000018" class="edge">
<title>Node17&#45;&gt;Node18</title>
<g id="a_edge19_Node000017_Node000018"><a xlink:title=" ">
<path fill="none" stroke="#63b8ff" d="M602.34,-129.54C619.9,-118.81 648.81,-101.14 669.65,-88.41"/>
<polygon fill="#63b8ff" stroke="#63b8ff" points="671.42,-91.43 678.13,-83.23 667.77,-85.46 671.42,-91.43"/>
</a>
</g>
</g>
<!-- Node19 -->
<g id="Node000019" class="node">
<title>Node19</title>
<g id="a_Node000019"><a xlink:title=" ">
<polygon fill="#e0e0e0" stroke="#999999" points="1051.87,-82 1005.87,-82 1005.87,-62 1051.87,-62 1051.87,-82"/>
<text xml:space="preserve" text-anchor="middle" x="1028.87" y="-70.4" font-family="SourceSans" font-size="8.00">random</text>
</a>
</g>
</g>
<!-- Node17&#45;&gt;Node19 -->
<g id="edge21_Node000017_Node000019" class="edge">
<title>Node17&#45;&gt;Node19</title>
<g id="a_edge21_Node000017_Node000019"><a xlink:title=" ">
<path fill="none" stroke="#63b8ff" d="M612.32,-129.56C618.64,-127.48 625.44,-125.47 631.87,-124 764.1,-93.77 925.51,-79.99 994.71,-75.15"/>
<polygon fill="#63b8ff" stroke="#63b8ff" points="994.52,-78.67 1004.26,-74.5 994.04,-71.68 994.52,-78.67"/>
</a>
</g>
</g>
<!-- Node21&#45;&gt;Node4 -->
<g id="edge25_Node000021_Node000004" class="edge">
<title>Node21&#45;&gt;Node4</title>
<g id="a_edge25_Node000021_Node000004"><a xlink:title=" ">
<path fill="none" stroke="#63b8ff" d="M1553.49,-61.62C1549.61,-53.3 1543.8,-40.86 1538.92,-30.4"/>
<polygon fill="#63b8ff" stroke="#63b8ff" points="1542.16,-29.07 1534.76,-21.48 1535.82,-32.03 1542.16,-29.07"/>
</a>
</g>
</g>
<!-- Node23&#45;&gt;Node18 -->
<g id="edge28_Node000023_Node000018" class="edge">
<title>Node23&#45;&gt;Node18</title>
<g id="a_edge28_Node000023_Node000018"><a xlink:title=" ">
<path fill="none" stroke="#63b8ff" d="M1227.51,-129.54C1219.51,-127.47 1210.92,-125.46 1202.87,-124 1021.54,-91.25 799.73,-78.06 722.75,-74.26"/>
<polygon fill="#63b8ff" stroke="#63b8ff" points="723.33,-70.78 713.17,-73.8 723,-77.77 723.33,-70.78"/>
</a>
</g>
</g>
<!-- Node24 -->
<g id="Node000024" class="node">
<title>Node24</title>
<g id="a_Node000024"><a xlink:title=" ">
<polygon fill="#e0e0e0" stroke="#999999" points="1315.24,-82 1268.49,-82 1268.49,-62 1315.24,-62 1315.24,-82"/>
<text xml:space="preserve" text-anchor="middle" x="1291.87" y="-70.4" font-family="SourceSans" font-size="8.00">ostream</text>
</a>
</g>
</g>
<!-- Node23&#45;&gt;Node24 -->
<g id="edge29_Node000023_Node000024" class="edge">
<title>Node23&#45;&gt;Node24</title>
<g id="a_edge29_Node000023_Node000024"><a xlink:title=" ">
<path fill="none" stroke="#63b8ff" d="M1264.45,-129.54C1269.11,-119.94 1276.46,-104.78 1282.38,-92.57"/>
<polygon fill="#63b8ff" stroke="#63b8ff" points="1285.42,-94.33 1286.63,-83.8 1279.12,-91.27 1285.42,-94.33"/>
</a>
</g>
</g>
<!-- Node25 -->
<g id="Node000025" class="node">
<title>Node25</title>
<g id="a_Node000025"><a xlink:title=" ">
<polygon fill="#e0e0e0" stroke="#999999" points="1417.49,-82 1372.24,-82 1372.24,-62 1417.49,-62 1417.49,-82"/>
<text xml:space="preserve" text-anchor="middle" x="1394.87" y="-70.4" font-family="SourceSans" font-size="8.00">fstream</text>
</a>
</g>
</g>
<!-- Node23&#45;&gt;Node25 -->
<g id="edge30_Node000023_Node000025" class="edge">
<title>Node23&#45;&gt;Node25</title>
<g id="a_edge30_Node000023_Node000025"><a xlink:title=" ">
<path fill="none" stroke="#63b8ff" d="M1279.21,-129.54C1301.76,-118.52 1339.29,-100.17 1365.46,-87.38"/>
<polygon fill="#63b8ff" stroke="#63b8ff" points="1366.75,-90.64 1374.2,-83.1 1363.68,-84.35 1366.75,-90.64"/>
</a>
</g>
</g>
<!-- Node26 -->
<g id="Node000026" class="node">
<title>Node26</title>
<g id="a_Node000026"><a xlink:title=" ">
<polygon fill="#e0e0e0" stroke="#999999" points="1249.99,-82 1207.74,-82 1207.74,-62 1249.99,-62 1249.99,-82"/>
<text xml:space="preserve" text-anchor="middle" x="1228.87" y="-70.4" font-family="SourceSans" font-size="8.00">cstdint</text>
</a>
</g>
</g>
<!-- Node23&#45;&gt;Node26 -->
<g id="edge31_Node000023_Node000026" class="edge">
<title>Node23&#45;&gt;Node26</title>
<g id="a_edge31_Node000023_Node000026"><a xlink:title=" ">
<path fill="none" stroke="#63b8ff" d="M1255.42,-129.54C1250.91,-119.94 1243.79,-104.78 1238.06,-92.57"/>
<polygon fill="#63b8ff" stroke="#63b8ff" points="1241.36,-91.37 1233.94,-83.81 1235.03,-94.35 1241.36,-91.37"/>
</a>
</g>
</g>
<!-- Node32 -->
<g id="Node000032" class="node">
<title>Node32</title>
<g id="a_Node000032"><a xlink:title=" ">
<polygon fill="#e0e0e0" stroke="#999999" points="1712.12,-20 1661.62,-20 1661.62,0 1712.12,0 1712.12,-20"/>
<text xml:space="preserve" text-anchor="middle" x="1686.87" y="-8.4" font-family="SourceSans" font-size="8.00">numbers</text>
</a>
</g>
</g>
<!-- Node31&#45;&gt;Node32 -->
<g id="edge37_Node000031_Node000032" class="edge">
<title>Node31&#45;&gt;Node32</title>
<g id="a_edge37_Node000031_Node000032"><a xlink:title=" ">
<path fill="none" stroke="#63b8ff" d="M1655.28,-129.54C1660.78,-119.53 1669.13,-103.13 1673.87,-88 1679.75,-69.22 1683.14,-46.97 1684.97,-31.23"/>
<polygon fill="#63b8ff" stroke="#63b8ff" points="1688.41,-32.01 1685.97,-21.7 1681.45,-31.28 1688.41,-32.01"/>
</a>
</g>
</g>
<!-- Node33 -->
<g id="Node000033" class="node">
<title>Node33</title>
<g id="a_Node000033"><a xlink:title=" ">
<polygon fill="#e0e0e0" stroke="#999999" points="1664.62,-82 1623.12,-82 1623.12,-62 1664.62,-62 1664.62,-82"/>
<text xml:space="preserve" text-anchor="middle" x="1643.87" y="-70.4" font-family="SourceSans" font-size="8.00">format</text>
</a>
</g>
</g>
<!-- Node31&#45;&gt;Node33 -->
<g id="edge38_Node000031_Node000033" class="edge">
<title>Node31&#45;&gt;Node33</title>
<g id="a_edge38_Node000031_Node000033"><a xlink:title=" ">
<path fill="none" stroke="#63b8ff" d="M1649.01,-129.54C1648.16,-120.23 1646.84,-105.7 1645.75,-93.7"/>
<polygon fill="#63b8ff" stroke="#63b8ff" points="1649.25,-93.59 1644.86,-83.95 1642.28,-94.22 1649.25,-93.59"/>
</a>
</g>
</g>
<!-- Node34 -->
<g id="Node000034" class="node">
<title>Node34</title>
<g id="a_Node000034"><a xlink:href="a60-svg-radial-fill-hexagon_8h.html" target="_top" xlink:title=" ">
<polygon fill="white" stroke="#666666" points="1816.74,-88 1736.99,-88 1736.99,-56 1816.74,-56 1816.74,-88"/>
<text xml:space="preserve" text-anchor="start" x="1744.99" y="-76.4" font-family="SourceSans" font-size="8.00">a60&#45;svg&#45;radial&#45;fill</text>
<text xml:space="preserve" text-anchor="middle" x="1776.87" y="-64.4" font-family="SourceSans" font-size="8.00">&#45;hexagon.h</text>
</a>
</g>
</g>
<!-- Node31&#45;&gt;Node34 -->
<g id="edge39_Node000031_Node000034" class="edge">
<title>Node31&#45;&gt;Node34</title>
<g id="a_edge39_Node000031_Node000034"><a xlink:title=" ">
<path fill="none" stroke="#63b8ff" d="M1668.06,-129.54C1686.11,-120.17 1714.33,-105.5 1737.51,-93.45"/>
<polygon fill="#63b8ff" stroke="#63b8ff" points="1738.82,-96.72 1746.08,-89 1735.59,-90.5 1738.82,-96.72"/>
</a>
</g>
</g>
<!-- Node34&#45;&gt;Node4 -->
<g id="edge47_Node000034_Node000004" class="edge">
<title>Node34&#45;&gt;Node4</title>
<g id="a_edge47_Node000034_Node000004"><a xlink:title=" ">
<path fill="none" stroke="#63b8ff" d="M1736.54,-61.8C1695.72,-52.39 1630.52,-37.13 1565.55,-20.63"/>
<polygon fill="#63b8ff" stroke="#63b8ff" points="1566.73,-17.32 1556.18,-18.24 1565,-24.1 1566.73,-17.32"/>
</a>
</g>
</g>
<!-- Node34&#45;&gt;Node7 -->
<g id="edge48_Node000034_Node000007" class="edge">
<title>Node34&#45;&gt;Node7</title>
<g id="a_edge48_Node000034_Node000007"><a xlink:title=" ">
<path fill="none" stroke="#63b8ff" d="M1781.74,-88.49C1786.53,-107.15 1790.93,-138.2 1773.87,-156 1736.93,-194.54 1360.79,-200.09 1239.41,-200.87"/>
<polygon fill="#63b8ff" stroke="#63b8ff" points="1239.65,-197.37 1229.67,-200.93 1239.68,-204.37 1239.65,-197.37"/>
</a>
</g>
</g>
<!-- Node34&#45;&gt;Node9 -->
<g id="edge42_Node000034_Node000009" class="edge">
<title>Node34&#45;&gt;Node9</title>
<g id="a_edge42_Node000034_Node000009"><a xlink:title=" ">
<path fill="none" stroke="#63b8ff" d="M1804.16,-55.55C1820.27,-46.43 1840.54,-34.96 1856.48,-25.93"/>
<polygon fill="#63b8ff" stroke="#63b8ff" points="1857.95,-29.13 1864.93,-21.15 1854.5,-23.03 1857.95,-29.13"/>
</a>
</g>
</g>
<!-- Node34&#45;&gt;Node11 -->
<g id="edge41_Node000034_Node000011" class="edge">
<title>Node34&#45;&gt;Node11</title>
<g id="a_edge41_Node000034_Node000011"><a xlink:title=" ">
<path fill="none" stroke="#63b8ff" d="M1816.91,-56.17C1845.64,-45.53 1883.7,-31.43 1909.61,-21.84"/>
<polygon fill="#63b8ff" stroke="#63b8ff" points="1910.66,-25.18 1918.82,-18.42 1908.23,-18.61 1910.66,-25.18"/>
</a>
</g>
</g>
<!-- Node34&#45;&gt;Node13 -->
<g id="edge40_Node000034_Node000013" class="edge">
<title>Node34&#45;&gt;Node13</title>
<g id="a_edge40_Node000034_Node000013"><a xlink:title=" ">
<path fill="none" stroke="#63b8ff" d="M1817.19,-60.34C1861.83,-48.54 1932.81,-29.78 1973.16,-19.12"/>
<polygon fill="#63b8ff" stroke="#63b8ff" points="1973.92,-22.53 1982.7,-16.6 1972.13,-15.77 1973.92,-22.53"/>
</a>
</g>
</g>
<!-- Node34&#45;&gt;Node15 -->
<g id="edge46_Node000034_Node000015" class="edge">
<title>Node34&#45;&gt;Node15</title>
<g id="a_edge46_Node000034_Node000015"><a xlink:title=" ">
<path fill="none" stroke="#63b8ff" d="M1736.82,-56.78C1709.02,-46.91 1672.25,-33.86 1645.09,-24.22"/>
<polygon fill="#63b8ff" stroke="#63b8ff" points="1646.48,-21 1635.89,-20.95 1644.14,-27.59 1646.48,-21"/>
</a>
</g>
</g>
<!-- Node34&#45;&gt;Node32 -->
<g id="edge43_Node000034_Node000032" class="edge">
<title>Node34&#45;&gt;Node32</title>
<g id="a_edge43_Node000034_Node000032"><a xlink:title=" ">
<path fill="none" stroke="#63b8ff" d="M1753.69,-55.55C1740.41,-46.69 1723.78,-35.61 1710.43,-26.71"/>
<polygon fill="#63b8ff" stroke="#63b8ff" points="1712.5,-23.88 1702.24,-21.25 1708.62,-29.71 1712.5,-23.88"/>
</a>
</g>
</g>
<!-- Node35 -->
<g id="Node000035" class="node">
<title>Node35</title>
<g id="a_Node000035"><a xlink:title=" ">
<polygon fill="#e0e0e0" stroke="#999999" points="1844.37,-20 1789.37,-20 1789.37,0 1844.37,0 1844.37,-20"/>
<text xml:space="preserve" text-anchor="middle" x="1816.87" y="-8.4" font-family="SourceSans" font-size="8.00">functional</text>
</a>
</g>
</g>
<!-- Node34&#45;&gt;Node35 -->
<g id="edge44_Node000034_Node000035" class="edge">
<title>Node34&#45;&gt;Node35</title>
<g id="a_edge44_Node000034_Node000035"><a xlink:title=" ">
<path fill="none" stroke="#63b8ff" d="M1787.17,-55.55C1792.38,-47.74 1798.74,-38.19 1804.24,-29.94"/>
<polygon fill="#63b8ff" stroke="#63b8ff" points="1807.12,-31.93 1809.75,-21.67 1801.3,-28.05 1807.12,-31.93"/>
</a>
</g>
</g>
<!-- Node36 -->
<g id="Node000036" class="node">
<title>Node36</title>
<g id="a_Node000036"><a xlink:title=" ">
<polygon fill="#e0e0e0" stroke="#999999" points="1771.24,-20 1730.49,-20 1730.49,0 1771.24,0 1771.24,-20"/>
<text xml:space="preserve" text-anchor="middle" x="1750.87" y="-8.4" font-family="SourceSans" font-size="8.00">queue</text>
</a>
</g>
</g>
<!-- Node34&#45;&gt;Node36 -->
<g id="edge45_Node000034_Node000036" class="edge">
<title>Node34&#45;&gt;Node36</title>
<g id="a_edge45_Node000034_Node000036"><a xlink:title=" ">
<path fill="none" stroke="#63b8ff" d="M1770.17,-55.55C1766.9,-48 1762.92,-38.82 1759.43,-30.77"/>
<polygon fill="#63b8ff" stroke="#63b8ff" points="1762.73,-29.58 1755.54,-21.8 1756.31,-32.36 1762.73,-29.58"/>
</a>
</g>
</g>
<!-- Node38&#45;&gt;Node7 -->
<g id="edge54_Node000038_Node000007" class="edge">
<title>Node38&#45;&gt;Node7</title>
<g id="a_edge54_Node000038_Node000007"><a xlink:title=" ">
<path fill="none" stroke="#63b8ff" d="M1468.99,-150.44C1461.87,-152.38 1454.13,-154.34 1446.87,-156 1374.18,-172.64 1287.93,-187.98 1239.44,-195.73"/>
<polygon fill="#63b8ff" stroke="#63b8ff" points="1239.07,-192.24 1229.74,-197.25 1240.16,-199.16 1239.07,-192.24"/>
</a>
</g>
</g>
<!-- Node38&#45;&gt;Node19 -->
<g id="edge52_Node000038_Node000019" class="edge">
<title>Node38&#45;&gt;Node19</title>
<g id="a_edge52_Node000038_Node000019"><a xlink:title=" ">
<path fill="none" stroke="#63b8ff" d="M1461.47,-129.51C1453.78,-127.49 1445.57,-125.5 1437.87,-124 1300.44,-97.16 1134.14,-81.55 1063.4,-75.69"/>
<polygon fill="#63b8ff" stroke="#63b8ff" points="1063.86,-72.22 1053.61,-74.89 1063.3,-79.19 1063.86,-72.22"/>
</a>
</g>
</g>
<!-- Node38&#45;&gt;Node25 -->
<g id="edge51_Node000038_Node000025" class="edge">
<title>Node38&#45;&gt;Node25</title>
<g id="a_edge51_Node000038_Node000025"><a xlink:title=" ">
<path fill="none" stroke="#63b8ff" d="M1479.68,-129.54C1463.73,-118.91 1437.56,-101.47 1418.51,-88.76"/>
<polygon fill="#63b8ff" stroke="#63b8ff" points="1420.55,-85.91 1410.28,-83.28 1416.66,-91.74 1420.55,-85.91"/>
</a>
</g>
</g>
<!-- Node39 -->
<g id="Node000039" class="node">
<title>Node39</title>
<g id="a_Node000039"><a xlink:title=" ">
<polygon fill="#e0e0e0" stroke="#999999" points="1491.99,-82 1443.74,-82 1443.74,-62 1491.99,-62 1491.99,-82"/>
<text xml:space="preserve" text-anchor="middle" x="1467.87" y="-70.4" font-family="SourceSans" font-size="8.00">unistd.h</text>
</a>
</g>
</g>
<!-- Node38&#45;&gt;Node39 -->
<g id="edge53_Node000038_Node000039" class="edge">
<title>Node38&#45;&gt;Node39</title>
<g id="a_edge53_Node000038_Node000039"><a xlink:title=" ">
<path fill="none" stroke="#63b8ff" d="M1490.14,-129.54C1486.4,-120.04 1480.51,-105.09 1475.72,-92.95"/>
<polygon fill="#63b8ff" stroke="#63b8ff" points="1479.06,-91.87 1472.14,-83.85 1472.55,-94.43 1479.06,-91.87"/>
</a>
</g>
</g>
</g>
</svg>

<g id="navigator" transform="translate(0 0)" fill="#404254">
  <rect fill="#f2f5e9" fill-opacity="0.5" stroke="#606060" stroke-width=".5" x="0" y="0" width="60" height="60"/>
  <use id="zoomplus" xlink:href="#zoomPlus" x="17" y="9" onmousedown="handleZoom(evt,'in')"/>
  <use id="zoomminus" xlink:href="#zoomMin" x="42" y="9" onmousedown="handleZoom(evt,'out')"/>
  <use id="reset" xlink:href="#resetDef" x="30" y="36" onmousedown="handleReset()"/>
   <use id="arrowup" xlink:href="#arrowUp" x="0" y="0" onmousedown="handlePan(0,-1)"/>
  <use id="arrowright" xlink:href="#arrowRight" x="0" y="0" onmousedown="handlePan(1,0)"/>
  <use id="arrowdown" xlink:href="#arrowDown" x="0" y="0" onmousedown="handlePan(0,1)"/>
  <use id="arrowleft" xlink:href="#arrowLeft" x="0" y="0" onmousedown="handlePan(-1,0)"/>
</g>
<svg viewBox="0 0 15 15" width="100%" height="30px" preserveAspectRatio="xMaxYMin meet">
 <g id="arrow_out" transform="scale(0.3 0.3)">
  <a xlink:href="a60-svg-radial-base_8h__incl_org.svg" target="_base">
   <rect id="button" ry="5" rx="5" y="6" x="6" height="38" width="38"
        fill="#f2f5e9" fill-opacity="0.5" stroke="#606060" stroke-width="1.0"/>
   <path id="arrow"
     d="M 11.500037,31.436501 C 11.940474,20.09759 22.043105,11.32322 32.158766,21.979434 L 37.068811,17.246167 C 37.068811,17.246167 37.088388,32 37.088388,32 L 22.160133,31.978069 C 22.160133,31.978069 26.997745,27.140456 26.997745,27.140456 C 18.528582,18.264221 13.291696,25.230495 11.500037,31.436501 z"
     style="fill:#404040;"/>
  </a>
 </g>
</svg>

<style type='text/css'>
<![CDATA[
[data-mouse-over-selected='false'] { opacity: 0.7; }
[data-mouse-over-selected='true']  { opacity: 1.0; }
]]>
</style>
<script type="application/ecmascript"><![CDATA[
document.addEventListener('DOMContentLoaded', (event) => {
  highlightEdges();
  highlightAdjacentNodes();
});
]]></script>
</svg>
