<?xml version="1.0" encoding="UTF-8" standalone="no"?>
<!DOCTYPE svg PUBLIC "-//W3C//DTD SVG 1.1//EN"
 "http://www.w3.org/Graphics/SVG/1.1/DTD/svg11.dtd">
<!-- Generated by graphviz version 12.2.1 (20241206.2353)
 -->
<!-- Title: /home/bkoz/src/izzi/src/a60&#45;svg&#45;radial&#45;fill&#45;hexagon.h Pages: 1 -->
<!--zoomable 232 -->

<svg id="main" version="1.1" xmlns="http://www.w3.org/2000/svg" xmlns:xlink="http://www.w3.org/1999/xlink" xml:space="preserve" onload="init(evt)">

<style type="text/css"><![CDATA[
.node, .edge {opacity: 0.7;}
.node.selected, .edge.selected {opacity: 1;}
.edge:hover path { stroke: red; }
.edge:hover polygon { stroke: red; fill: red; }
]]></style>

<defs>
  <circle id="rim" cx="0" cy="0" r="7"/>
  <circle id="rim2" cx="0" cy="0" r="3.5"/>
  <g id="zoomPlus">
    <use xlink:href="#rim" fill="#404040"><set attributeName="fill" to="#808080" begin="zoomplus.mouseover" end="zoomplus.mouseout"/></use>
    <path d="M-4,0h8M0,-4v8" fill="none" stroke="white" stroke-width="1.5" pointer-events="none"/>
  </g>
  <g id="zoomMin">
    <use xlink:href="#rim" fill="#404040"><set attributeName="fill" to="#808080" begin="zoomminus.mouseover" end="zoomminus.mouseout"/></use>
    <path d="M-4,0h8" fill="none" stroke="white" stroke-width="1.5" pointer-events="none"/>
  </g>
  <g id="arrowUp" transform="translate(30 24)">
    <use xlink:href="#rim"/>
    <path pointer-events="none" fill="none" stroke="white" stroke-width="1.5" d="M0,-3.0v7 M-2.5,-0.5L0,-3.0L2.5,-0.5"/>
  </g>
  <g id="arrowRight" transform="rotate(90) translate(36 -43)">
    <use xlink:href="#rim"/>
    <path pointer-events="none" fill="none" stroke="white" stroke-width="1.5" d="M0,-3.0v7 M-2.5,-0.5L0,-3.0L2.5,-0.5"/>
  </g>
  <g id="arrowDown" transform="rotate(180) translate(-30 -48)">
    <use xlink:href="#rim"/>
    <path pointer-events="none" fill="none" stroke="white" stroke-width="1.5" d="M0,-3.0v7 M-2.5,-0.5L0,-3.0L2.5,-0.5"/>
  </g>
  <g id="arrowLeft" transform="rotate(270) translate(-36 17)">
    <use xlink:href="#rim"/>
    <path pointer-events="none" fill="none" stroke="white" stroke-width="1.5" d="M0,-3.0v7 M-2.5,-0.5L0,-3.0L2.5,-0.5"/>
  </g>
  <g id="resetDef">
    <use xlink:href="#rim2" fill="#404040"><set attributeName="fill" to="#808080" begin="reset.mouseover" end="reset.mouseout"/></use>
  </g>
</defs>
<script type="application/ecmascript">
var viewWidth = 1874;
var viewHeight = 232;
var sectionId = 'dynsection-0';
</script>
<script type="application/ecmascript" xlink:href="svg.min.js"/>
<svg id="graph" class="graph">
<g id="viewport">
<title>/home/bkoz/src/izzi/src/a60&#45;svg&#45;radial&#45;fill&#45;hexagon.h</title>
<!-- Node1 -->
<g id="Node000001" class="node">
<title>Node1</title>
<g id="a_Node000001"><a xlink:title=" ">
<polygon fill="#999999" stroke="#666666" points="285.42,-224 195.17,-224 195.17,-180 285.42,-180 285.42,-224"/>
<text text-anchor="start" x="203.17" y="-212.4" font-family="SourceSans" font-size="8.00">/home/bkoz/src/izzi</text>
<text text-anchor="start" x="203.17" y="-200.4" font-family="SourceSans" font-size="8.00">/src/a60&#45;svg&#45;radial</text>
<text text-anchor="middle" x="240.3" y="-188.4" font-family="SourceSans" font-size="8.00">&#45;fill&#45;hexagon.h</text>
</a>
</g>
</g>
<!-- Node2 -->
<g id="Node000002" class="node">
<title>Node2</title>
<g id="a_Node000002"><a xlink:title=" ">
<polygon fill="#e0e0e0" stroke="#999999" points="52.55,-82 14.05,-82 14.05,-62 52.55,-62 52.55,-82"/>
<text text-anchor="middle" x="33.3" y="-70.4" font-family="SourceSans" font-size="8.00">vector</text>
</a>
</g>
</g>
<!-- Node1&#45;&gt;Node2 -->
<g id="edge1_Node000001_Node000002" class="edge">
<title>Node1&#45;&gt;Node2</title>
<g id="a_edge1_Node000001_Node000002"><a xlink:title=" ">
<path fill="none" stroke="#63b8ff" d="M194.86,-191.01C162.84,-182.37 120.17,-167.5 88.3,-144 69.33,-130.02 53.59,-107.8 43.88,-91.94"/>
<polygon fill="#63b8ff" stroke="#63b8ff" points="46.99,-90.33 38.91,-83.47 40.95,-93.87 46.99,-90.33"/>
</a>
</g>
</g>
<!-- Node3 -->
<g id="Node000003" class="node">
<title>Node3</title>
<g id="a_Node000003"><a xlink:title=" ">
<polygon fill="#e0e0e0" stroke="#999999" points="106.42,-82 70.17,-82 70.17,-62 106.42,-62 106.42,-82"/>
<text text-anchor="middle" x="88.3" y="-70.4" font-family="SourceSans" font-size="8.00">tuple</text>
</a>
</g>
</g>
<!-- Node1&#45;&gt;Node3 -->
<g id="edge2_Node000001_Node000003" class="edge">
<title>Node1&#45;&gt;Node3</title>
<g id="a_edge2_Node000001_Node000003"><a xlink:title=" ">
<path fill="none" stroke="#63b8ff" d="M194.82,-193.7C164.15,-186.37 125.23,-171.96 102.3,-144 90.84,-130.04 87.84,-109.37 87.41,-93.93"/>
<polygon fill="#63b8ff" stroke="#63b8ff" points="90.91,-93.99 87.5,-83.96 83.91,-93.93 90.91,-93.99"/>
</a>
</g>
</g>
<!-- Node4 -->
<g id="Node000004" class="node">
<title>Node4</title>
<g id="a_Node000004"><a xlink:title=" ">
<polygon fill="#e0e0e0" stroke="#999999" points="164.3,-82 124.3,-82 124.3,-62 164.3,-62 164.3,-82"/>
<text text-anchor="middle" x="144.3" y="-70.4" font-family="SourceSans" font-size="8.00">cmath</text>
</a>
</g>
</g>
<!-- Node1&#45;&gt;Node4 -->
<g id="edge3_Node000001_Node000004" class="edge">
<title>Node1&#45;&gt;Node4</title>
<g id="a_edge3_Node000001_Node000004"><a xlink:title=" ">
<path fill="none" stroke="#63b8ff" d="M285.9,-194.69C341.99,-185.08 425.9,-163.58 392.3,-124 360.38,-86.4 220.11,-103.52 173.3,-88 172.49,-87.73 171.68,-87.44 170.86,-87.14"/>
<polygon fill="#63b8ff" stroke="#63b8ff" points="172.41,-84 161.85,-83.11 169.55,-90.39 172.41,-84"/>
</a>
</g>
</g>
<!-- Node5 -->
<g id="Node000005" class="node">
<title>Node5</title>
<g id="a_Node000005"><a xlink:title=" ">
<polygon fill="#e0e0e0" stroke="#999999" points="161.55,-144 111.05,-144 111.05,-124 161.55,-124 161.55,-144"/>
<text text-anchor="middle" x="136.3" y="-132.4" font-family="SourceSans" font-size="8.00">numbers</text>
</a>
</g>
</g>
<!-- Node1&#45;&gt;Node5 -->
<g id="edge4_Node000001_Node000005" class="edge">
<title>Node1&#45;&gt;Node5</title>
<g id="a_edge4_Node000001_Node000005"><a xlink:title=" ">
<path fill="none" stroke="#63b8ff" d="M206.53,-179.57C191.6,-170.09 174.36,-159.16 160.7,-150.49"/>
<polygon fill="#63b8ff" stroke="#63b8ff" points="162.65,-147.58 152.33,-145.18 158.9,-153.49 162.65,-147.58"/>
</a>
</g>
</g>
<!-- Node6 -->
<g id="Node000006" class="node">
<title>Node6</title>
<g id="a_Node000006"><a xlink:title=" ">
<polygon fill="#e0e0e0" stroke="#999999" points="234.8,-144 179.8,-144 179.8,-124 234.8,-124 234.8,-144"/>
<text text-anchor="middle" x="207.3" y="-132.4" font-family="SourceSans" font-size="8.00">functional</text>
</a>
</g>
</g>
<!-- Node1&#45;&gt;Node6 -->
<g id="edge5_Node000001_Node000006" class="edge">
<title>Node1&#45;&gt;Node6</title>
<g id="a_edge5_Node000001_Node000006"><a xlink:title=" ">
<path fill="none" stroke="#63b8ff" d="M229.67,-179.75C225.63,-171.66 221.04,-162.48 217.07,-154.55"/>
<polygon fill="#63b8ff" stroke="#63b8ff" points="220.29,-153.15 212.68,-145.77 214.03,-156.28 220.29,-153.15"/>
</a>
</g>
</g>
<!-- Node7 -->
<g id="Node000007" class="node">
<title>Node7</title>
<g id="a_Node000007"><a xlink:title=" ">
<polygon fill="#e0e0e0" stroke="#999999" points="293.67,-144 252.92,-144 252.92,-124 293.67,-124 293.67,-144"/>
<text text-anchor="middle" x="273.3" y="-132.4" font-family="SourceSans" font-size="8.00">queue</text>
</a>
</g>
</g>
<!-- Node1&#45;&gt;Node7 -->
<g id="edge6_Node000001_Node000007" class="edge">
<title>Node1&#45;&gt;Node7</title>
<g id="a_edge6_Node000001_Node000007"><a xlink:title=" ">
<path fill="none" stroke="#63b8ff" d="M250.92,-179.75C254.97,-171.66 259.56,-162.48 263.52,-154.55"/>
<polygon fill="#63b8ff" stroke="#63b8ff" points="266.57,-156.28 267.91,-145.77 260.31,-153.15 266.57,-156.28"/>
</a>
</g>
</g>
<!-- Node8 -->
<g id="Node000008" class="node">
<title>Node8</title>
<g id="a_Node000008"><a xlink:title=" ">
<polygon fill="#e0e0e0" stroke="#999999" points="383.05,-144 311.55,-144 311.55,-124 383.05,-124 383.05,-144"/>
<text text-anchor="middle" x="347.3" y="-132.4" font-family="SourceSans" font-size="8.00">unordered_set</text>
</a>
</g>
</g>
<!-- Node1&#45;&gt;Node8 -->
<g id="edge7_Node000001_Node000008" class="edge">
<title>Node1&#45;&gt;Node8</title>
<g id="a_edge7_Node000001_Node000008"><a xlink:title=" ">
<path fill="none" stroke="#63b8ff" d="M275.04,-179.57C290.55,-170 308.48,-158.94 322.6,-150.24"/>
<polygon fill="#63b8ff" stroke="#63b8ff" points="324.15,-153.39 330.83,-145.16 320.48,-147.43 324.15,-153.39"/>
</a>
</g>
</g>
<!-- Node9 -->
<g id="Node000009" class="node">
<title>Node9</title>
<g id="a_Node000009"><a xlink:title=" ">
<polygon fill="#e0e0e0" stroke="#999999" points="132.8,-20 83.8,-20 83.8,0 132.8,0 132.8,-20"/>
<text text-anchor="middle" x="108.3" y="-8.4" font-family="SourceSans" font-size="8.00">iostream</text>
</a>
</g>
</g>
<!-- Node1&#45;&gt;Node9 -->
<g id="edge8_Node000001_Node000009" class="edge">
<title>Node1&#45;&gt;Node9</title>
<g id="a_edge8_Node000001_Node000009"><a xlink:title=" ">
<path fill="none" stroke="#63b8ff" d="M194.75,-196.2C135.74,-187.09 36.7,-161.1 5.3,-88 -0.32,-74.93 -2.49,-67.9 5.3,-56 20.08,-33.41 48.97,-22.09 72.4,-16.46"/>
<polygon fill="#63b8ff" stroke="#63b8ff" points="72.84,-19.95 81.9,-14.45 71.39,-13.1 72.84,-19.95"/>
</a>
</g>
</g>
<!-- Node10 -->
<g id="Node000010" class="node">
<title>Node10</title>
<g id="a_Node000010"><a xlink:href="a60-svg_8h.html" target="_top" xlink:title=" ">
<polygon fill="white" stroke="#666666" points="881.3,-144 829.3,-144 829.3,-124 881.3,-124 881.3,-144"/>
<text text-anchor="middle" x="855.3" y="-132.4" font-family="SourceSans" font-size="8.00">a60&#45;svg.h</text>
</a>
</g>
</g>
<!-- Node1&#45;&gt;Node10 -->
<g id="edge9_Node000001_Node000010" class="edge">
<title>Node1&#45;&gt;Node10</title>
<g id="a_edge9_Node000001_Node000010"><a xlink:title=" ">
<path fill="none" stroke="#63b8ff" d="M285.77,-196.12C402.42,-183.6 710.61,-150.53 817.86,-139.02"/>
<polygon fill="#63b8ff" stroke="#63b8ff" points="817.98,-142.52 827.55,-137.98 817.24,-135.56 817.98,-142.52"/>
</a>
</g>
</g>
<!-- Node10&#45;&gt;Node2 -->
<g id="edge16_Node000010_Node000002" class="edge">
<title>Node10&#45;&gt;Node2</title>
<g id="a_edge16_Node000010_Node000002"><a xlink:title=" ">
<path fill="none" stroke="#63b8ff" d="M828.97,-133.03C708.64,-132.93 210.49,-129.97 61.3,-88 60.3,-87.72 59.3,-87.4 58.29,-87.05"/>
<polygon fill="#63b8ff" stroke="#63b8ff" points="59.84,-83.9 49.28,-82.98 56.96,-90.28 59.84,-83.9"/>
</a>
</g>
</g>
<!-- Node10&#45;&gt;Node3 -->
<g id="edge14_Node000010_Node000003" class="edge">
<title>Node10&#45;&gt;Node3</title>
<g id="a_edge14_Node000010_Node000003"><a xlink:title=" ">
<path fill="none" stroke="#63b8ff" d="M828.83,-132.95C713.36,-132.52 253.22,-128.25 115.3,-88 114.33,-87.72 113.36,-87.4 112.39,-87.04"/>
<polygon fill="#63b8ff" stroke="#63b8ff" points="114.26,-84.05 103.72,-82.99 111.3,-90.39 114.26,-84.05"/>
</a>
</g>
</g>
<!-- Node10&#45;&gt;Node4 -->
<g id="edge11_Node000010_Node000004" class="edge">
<title>Node10&#45;&gt;Node4</title>
<g id="a_edge11_Node000010_Node000004"><a xlink:title=" ">
<path fill="none" stroke="#63b8ff" d="M829.12,-132.7C719.87,-131.23 300.18,-123.34 173.3,-88 172.29,-87.72 171.29,-87.4 170.28,-87.06"/>
<polygon fill="#63b8ff" stroke="#63b8ff" points="171.72,-83.87 161.16,-83.09 168.93,-90.29 171.72,-83.87"/>
</a>
</g>
</g>
<!-- Node11 -->
<g id="Node000011" class="node">
<title>Node11</title>
<g id="a_Node000011"><a xlink:title=" ">
<polygon fill="#e0e0e0" stroke="#999999" points="1472.55,-82 1428.05,-82 1428.05,-62 1472.55,-62 1472.55,-82"/>
<text text-anchor="middle" x="1450.3" y="-70.4" font-family="SourceSans" font-size="8.00">cstddef</text>
</a>
</g>
</g>
<!-- Node10&#45;&gt;Node11 -->
<g id="edge10_Node000010_Node000011" class="edge">
<title>Node10&#45;&gt;Node11</title>
<g id="a_edge10_Node000010_Node000011"><a xlink:title=" ">
<path fill="none" stroke="#63b8ff" d="M881.67,-132.14C978.59,-128.79 1314.87,-115.41 1418.3,-88 1419.7,-87.63 1421.11,-87.2 1422.53,-86.72"/>
<polygon fill="#63b8ff" stroke="#63b8ff" points="1423.77,-90 1431.72,-83 1421.13,-83.51 1423.77,-90"/>
</a>
</g>
</g>
<!-- Node12 -->
<g id="Node000012" class="node">
<title>Node12</title>
<g id="a_Node000012"><a xlink:title=" ">
<polygon fill="#e0e0e0" stroke="#999999" points="611.05,-20 557.55,-20 557.55,0 611.05,0 611.05,-20"/>
<text text-anchor="middle" x="584.3" y="-8.4" font-family="SourceSans" font-size="8.00">algorithm</text>
</a>
</g>
</g>
<!-- Node10&#45;&gt;Node12 -->
<g id="edge12_Node000010_Node000012" class="edge">
<title>Node10&#45;&gt;Node12</title>
<g id="a_edge12_Node000010_Node000012"><a xlink:title=" ">
<path fill="none" stroke="#63b8ff" d="M829.05,-131.84C771.3,-128.76 635.73,-118.38 603.3,-88 588.01,-73.68 584.18,-49.2 583.59,-31.68"/>
<polygon fill="#63b8ff" stroke="#63b8ff" points="587.09,-31.93 583.61,-21.92 580.09,-31.91 587.09,-31.93"/>
</a>
</g>
</g>
<!-- Node13 -->
<g id="Node000013" class="node">
<title>Node13</title>
<g id="a_Node000013"><a xlink:title=" ">
<polygon fill="#e0e0e0" stroke="#999999" points="1638.67,-82 1603.92,-82 1603.92,-62 1638.67,-62 1638.67,-82"/>
<text text-anchor="middle" x="1621.3" y="-70.4" font-family="SourceSans" font-size="8.00">array</text>
</a>
</g>
</g>
<!-- Node10&#45;&gt;Node13 -->
<g id="edge13_Node000010_Node000013" class="edge">
<title>Node10&#45;&gt;Node13</title>
<g id="a_edge13_Node000010_Node000013"><a xlink:title=" ">
<path fill="none" stroke="#63b8ff" d="M881.72,-132.95C997.04,-132.51 1456.56,-128.2 1594.3,-88 1595.27,-87.72 1596.24,-87.4 1597.21,-87.04"/>
<polygon fill="#63b8ff" stroke="#63b8ff" points="1598.3,-90.39 1605.88,-82.99 1595.33,-84.05 1598.3,-90.39"/>
</a>
</g>
</g>
<!-- Node14 -->
<g id="Node000014" class="node">
<title>Node14</title>
<g id="a_Node000014"><a xlink:title=" ">
<polygon fill="#e0e0e0" stroke="#999999" points="1695.55,-82 1657.05,-82 1657.05,-62 1695.55,-62 1695.55,-82"/>
<text text-anchor="middle" x="1676.3" y="-70.4" font-family="SourceSans" font-size="8.00">string</text>
</a>
</g>
</g>
<!-- Node10&#45;&gt;Node14 -->
<g id="edge15_Node000010_Node000014" class="edge">
<title>Node10&#45;&gt;Node14</title>
<g id="a_edge15_Node000010_Node000014"><a xlink:title=" ">
<path fill="none" stroke="#63b8ff" d="M881.55,-132.98C1001.52,-132.65 1498.18,-128.8 1647.3,-88 1648.47,-87.68 1649.66,-87.31 1650.84,-86.89"/>
<polygon fill="#63b8ff" stroke="#63b8ff" points="1652.01,-90.2 1659.75,-82.97 1649.19,-83.79 1652.01,-90.2"/>
</a>
</g>
</g>
<!-- Node15 -->
<g id="Node000015" class="node">
<title>Node15</title>
<g id="a_Node000015"><a xlink:title=" ">
<polygon fill="#e0e0e0" stroke="#999999" points="1742.7,-82 1713.9,-82 1713.9,-62 1742.7,-62 1742.7,-82"/>
<text text-anchor="middle" x="1728.3" y="-70.4" font-family="SourceSans" font-size="8.00">set</text>
</a>
</g>
</g>
<!-- Node10&#45;&gt;Node15 -->
<g id="edge17_Node000010_Node000015" class="edge">
<title>Node10&#45;&gt;Node15</title>
<g id="a_edge17_Node000010_Node000015"><a xlink:title=" ">
<path fill="none" stroke="#63b8ff" d="M881.55,-132.39C1015.99,-129.17 1624.24,-113.27 1704.3,-88 1704.94,-87.8 1705.59,-87.57 1706.23,-87.33"/>
<polygon fill="#63b8ff" stroke="#63b8ff" points="1707.54,-90.59 1714.84,-82.91 1704.34,-84.36 1707.54,-90.59"/>
</a>
</g>
</g>
<!-- Node16 -->
<g id="Node000016" class="node">
<title>Node16</title>
<g id="a_Node000016"><a xlink:title=" ">
<polygon fill="#e0e0e0" stroke="#999999" points="372.05,-82 294.55,-82 294.55,-62 372.05,-62 372.05,-82"/>
<text text-anchor="middle" x="333.3" y="-70.4" font-family="SourceSans" font-size="8.00">unordered_map</text>
</a>
</g>
</g>
<!-- Node10&#45;&gt;Node16 -->
<g id="edge18_Node000010_Node000016" class="edge">
<title>Node10&#45;&gt;Node16</title>
<g id="a_edge18_Node000010_Node000016"><a xlink:title=" ">
<path fill="none" stroke="#63b8ff" d="M828.81,-132.41C756.42,-130.4 549.44,-121.87 381.3,-88 377.94,-87.32 374.48,-86.5 371.04,-85.6"/>
<polygon fill="#63b8ff" stroke="#63b8ff" points="372.24,-82.3 361.66,-82.9 370.3,-89.03 372.24,-82.3"/>
</a>
</g>
</g>
<!-- Node17 -->
<g id="Node000017" class="node">
<title>Node17</title>
<g id="a_Node000017"><a xlink:title=" ">
<polygon fill="#e0e0e0" stroke="#999999" points="436.3,-82 390.3,-82 390.3,-62 436.3,-62 436.3,-82"/>
<text text-anchor="middle" x="413.3" y="-70.4" font-family="SourceSans" font-size="8.00">sstream</text>
</a>
</g>
</g>
<!-- Node10&#45;&gt;Node17 -->
<g id="edge19_Node000010_Node000017" class="edge">
<title>Node10&#45;&gt;Node17</title>
<g id="a_edge19_Node000010_Node000017"><a xlink:title=" ">
<path fill="none" stroke="#63b8ff" d="M828.83,-133.07C762.79,-132.62 585.93,-127.5 445.3,-88 443.93,-87.62 442.56,-87.18 441.18,-86.71"/>
<polygon fill="#63b8ff" stroke="#63b8ff" points="442.82,-83.6 432.24,-83.06 440.17,-90.08 442.82,-83.6"/>
</a>
</g>
</g>
<!-- Node18 -->
<g id="Node000018" class="node">
<title>Node18</title>
<g id="a_Node000018"><a xlink:href="a60-svg-color_8h.html" target="_top" xlink:title=" ">
<polygon fill="white" stroke="#666666" points="684.05,-82 612.55,-82 612.55,-62 684.05,-62 684.05,-82"/>
<text text-anchor="middle" x="648.3" y="-70.4" font-family="SourceSans" font-size="8.00">a60&#45;svg&#45;color.h</text>
</a>
</g>
</g>
<!-- Node10&#45;&gt;Node18 -->
<g id="edge20_Node000010_Node000018" class="edge">
<title>Node10&#45;&gt;Node18</title>
<g id="a_edge20_Node000010_Node000018"><a xlink:title=" ">
<path fill="none" stroke="#63b8ff" d="M828.9,-126.23C796.55,-117.81 740.13,-102.74 692.3,-88 690.21,-87.36 688.08,-86.68 685.93,-85.99"/>
<polygon fill="#63b8ff" stroke="#63b8ff" points="687.24,-82.74 676.64,-82.93 685.04,-89.39 687.24,-82.74"/>
</a>
</g>
</g>
<!-- Node22 -->
<g id="Node000022" class="node">
<title>Node22</title>
<g id="a_Node000022"><a xlink:href="a60-svg-color-palette_8h.html" target="_top" xlink:title=" ">
<polygon fill="white" stroke="#666666" points="556.05,-82 454.55,-82 454.55,-62 556.05,-62 556.05,-82"/>
<text text-anchor="middle" x="505.3" y="-70.4" font-family="SourceSans" font-size="8.00">a60&#45;svg&#45;color&#45;palette.h</text>
</a>
</g>
</g>
<!-- Node10&#45;&gt;Node22 -->
<g id="edge25_Node000010_Node000022" class="edge">
<title>Node10&#45;&gt;Node22</title>
<g id="a_edge25_Node000010_Node000022"><a xlink:title=" ">
<path fill="none" stroke="#63b8ff" d="M828.86,-129.46C778.41,-122.56 664.96,-106.37 570.3,-88 565.43,-87.06 560.38,-86.01 555.34,-84.92"/>
<polygon fill="#63b8ff" stroke="#63b8ff" points="556.38,-81.57 545.86,-82.82 554.87,-88.4 556.38,-81.57"/>
</a>
</g>
</g>
<!-- Node23 -->
<g id="Node000023" class="node">
<title>Node23</title>
<g id="a_Node000023"><a xlink:href="a60-svg-color-band_8h.html" target="_top" xlink:title=" ">
<polygon fill="white" stroke="#666666" points="276.67,-82 181.92,-82 181.92,-62 276.67,-62 276.67,-82"/>
<text text-anchor="middle" x="229.3" y="-70.4" font-family="SourceSans" font-size="8.00">a60&#45;svg&#45;color&#45;band.h</text>
</a>
</g>
</g>
<!-- Node10&#45;&gt;Node23 -->
<g id="edge26_Node000010_Node000023" class="edge">
<title>Node10&#45;&gt;Node23</title>
<g id="a_edge26_Node000010_Node000023"><a xlink:title=" ">
<path fill="none" stroke="#63b8ff" d="M828.95,-132.63C747.49,-131.12 492.7,-123.66 285.3,-88 280.72,-87.21 275.98,-86.22 271.27,-85.13"/>
<polygon fill="#63b8ff" stroke="#63b8ff" points="272.49,-81.82 261.94,-82.8 270.79,-88.62 272.49,-81.82"/>
</a>
</g>
</g>
<!-- Node24 -->
<g id="Node000024" class="node">
<title>Node24</title>
<g id="a_Node000024"><a xlink:href="a60-svg-base-types_8h.html" target="_top" xlink:title=" ">
<polygon fill="white" stroke="#666666" points="1409.67,-82 1314.92,-82 1314.92,-62 1409.67,-62 1409.67,-82"/>
<text text-anchor="middle" x="1362.3" y="-70.4" font-family="SourceSans" font-size="8.00">a60&#45;svg&#45;base&#45;types.h</text>
</a>
</g>
</g>
<!-- Node10&#45;&gt;Node24 -->
<g id="edge28_Node000010_Node000024" class="edge">
<title>Node10&#45;&gt;Node24</title>
<g id="a_edge28_Node000010_Node000024"><a xlink:title=" ">
<path fill="none" stroke="#63b8ff" d="M881.69,-131.86C951.5,-128.54 1146.64,-117.15 1306.3,-88 1310.63,-87.21 1315.12,-86.25 1319.58,-85.2"/>
<polygon fill="#63b8ff" stroke="#63b8ff" points="1320.2,-88.66 1329.05,-82.84 1318.5,-81.87 1320.2,-88.66"/>
</a>
</g>
</g>
<!-- Node28 -->
<g id="Node000028" class="node">
<title>Node28</title>
<g id="a_Node000028"><a xlink:href="a60-svg-constants_8h.html" target="_top" xlink:title=" ">
<polygon fill="white" stroke="#666666" points="792.8,-82 701.8,-82 701.8,-62 792.8,-62 792.8,-82"/>
<text text-anchor="middle" x="747.3" y="-70.4" font-family="SourceSans" font-size="8.00">a60&#45;svg&#45;constants.h</text>
</a>
</g>
</g>
<!-- Node10&#45;&gt;Node28 -->
<g id="edge33_Node000010_Node000028" class="edge">
<title>Node10&#45;&gt;Node28</title>
<g id="a_edge33_Node000010_Node000028"><a xlink:title=" ">
<path fill="none" stroke="#63b8ff" d="M838.42,-123.62C821.14,-114.03 794.04,-98.97 773.88,-87.77"/>
<polygon fill="#63b8ff" stroke="#63b8ff" points="775.82,-84.84 765.38,-83.04 772.42,-90.96 775.82,-84.84"/>
</a>
</g>
</g>
<!-- Node29 -->
<g id="Node000029" class="node">
<title>Node29</title>
<g id="a_Node000029"><a xlink:href="a60-svg-elements_8h.html" target="_top" xlink:title=" ">
<polygon fill="white" stroke="#666666" points="900.05,-82 810.55,-82 810.55,-62 900.05,-62 900.05,-82"/>
<text text-anchor="middle" x="855.3" y="-70.4" font-family="SourceSans" font-size="8.00">a60&#45;svg&#45;elements.h</text>
</a>
</g>
</g>
<!-- Node10&#45;&gt;Node29 -->
<g id="edge34_Node000010_Node000029" class="edge">
<title>Node10&#45;&gt;Node29</title>
<g id="a_edge34_Node000010_Node000029"><a xlink:title=" ">
<path fill="none" stroke="#63b8ff" d="M855.3,-123.62C855.3,-115.56 855.3,-103.65 855.3,-93.41"/>
<polygon fill="#63b8ff" stroke="#63b8ff" points="858.8,-93.63 855.3,-83.63 851.8,-93.63 858.8,-93.63"/>
</a>
</g>
</g>
<!-- Node30 -->
<g id="Node000030" class="node">
<title>Node30</title>
<g id="a_Node000030"><a xlink:href="a60-svg-elements-components_8h.html" target="_top" xlink:title=" ">
<polygon fill="white" stroke="#666666" points="1056.8,-82 917.8,-82 917.8,-62 1056.8,-62 1056.8,-82"/>
<text text-anchor="middle" x="987.3" y="-70.4" font-family="SourceSans" font-size="8.00">a60&#45;svg&#45;elements&#45;components.h</text>
</a>
</g>
</g>
<!-- Node10&#45;&gt;Node30 -->
<g id="edge35_Node000010_Node000030" class="edge">
<title>Node10&#45;&gt;Node30</title>
<g id="a_edge35_Node000010_Node000030"><a xlink:title=" ">
<path fill="none" stroke="#63b8ff" d="M875.92,-123.62C897.52,-113.81 931.69,-98.27 956.49,-87"/>
<polygon fill="#63b8ff" stroke="#63b8ff" points="957.78,-90.26 965.44,-82.94 954.89,-83.89 957.78,-90.26"/>
</a>
</g>
</g>
<!-- Node31 -->
<g id="Node000031" class="node">
<title>Node31</title>
<g id="a_Node000031"><a xlink:href="a60-svg-render-state_8h.html" target="_top" xlink:title=" ">
<polygon fill="white" stroke="#666666" points="1175.67,-82 1074.92,-82 1074.92,-62 1175.67,-62 1175.67,-82"/>
<text text-anchor="middle" x="1125.3" y="-70.4" font-family="SourceSans" font-size="8.00">a60&#45;svg&#45;render&#45;state.h</text>
</a>
</g>
</g>
<!-- Node10&#45;&gt;Node31 -->
<g id="edge36_Node000010_Node000031" class="edge">
<title>Node10&#45;&gt;Node31</title>
<g id="a_edge36_Node000010_Node000031"><a xlink:title=" ">
<path fill="none" stroke="#63b8ff" d="M881.69,-127.71C921.71,-119.62 1000.1,-103.47 1066.3,-88 1070.12,-87.11 1074.07,-86.16 1078.04,-85.19"/>
<polygon fill="#63b8ff" stroke="#63b8ff" points="1078.83,-88.6 1087.69,-82.79 1077.14,-81.8 1078.83,-88.6"/>
</a>
</g>
</g>
<!-- Node32 -->
<g id="Node000032" class="node">
<title>Node32</title>
<g id="a_Node000032"><a xlink:href="a60-svg-render-basics_8h.html" target="_top" xlink:title=" ">
<polygon fill="white" stroke="#666666" points="1865.92,-82 1760.67,-82 1760.67,-62 1865.92,-62 1865.92,-82"/>
<text text-anchor="middle" x="1813.3" y="-70.4" font-family="SourceSans" font-size="8.00">a60&#45;svg&#45;render&#45;basics.h</text>
</a>
</g>
</g>
<!-- Node10&#45;&gt;Node32 -->
<g id="edge37_Node000010_Node000032" class="edge">
<title>Node10&#45;&gt;Node32</title>
<g id="a_edge37_Node000010_Node000032"><a xlink:title=" ">
<path fill="none" stroke="#63b8ff" d="M881.72,-132.34C1010.92,-129.02 1576.92,-113.25 1751.3,-88 1756.7,-87.22 1762.32,-86.18 1767.87,-85.02"/>
<polygon fill="#63b8ff" stroke="#63b8ff" points="1768.62,-88.43 1777.61,-82.82 1767.08,-81.61 1768.62,-88.43"/>
</a>
</g>
</g>
<!-- Node33 -->
<g id="Node000033" class="node">
<title>Node33</title>
<g id="a_Node000033"><a xlink:href="a60-svg-composite-and-layer-basics_8h.html" target="_top" xlink:title=" ">
<polygon fill="white" stroke="#666666" points="1296.8,-88 1193.8,-88 1193.8,-56 1296.8,-56 1296.8,-88"/>
<text text-anchor="start" x="1201.8" y="-76.4" font-family="SourceSans" font-size="8.00">a60&#45;svg&#45;composite&#45;and</text>
<text text-anchor="middle" x="1245.3" y="-64.4" font-family="SourceSans" font-size="8.00">&#45;layer&#45;basics.h</text>
</a>
</g>
</g>
<!-- Node10&#45;&gt;Node33 -->
<g id="edge39_Node000010_Node000033" class="edge">
<title>Node10&#45;&gt;Node33</title>
<g id="a_edge39_Node000010_Node000033"><a xlink:title=" ">
<path fill="none" stroke="#63b8ff" d="M881.46,-130.37C935.67,-124.71 1064.35,-110.25 1182.44,-88.22"/>
<polygon fill="#63b8ff" stroke="#63b8ff" points="1182.8,-91.72 1191.98,-86.42 1181.5,-84.84 1182.8,-91.72"/>
</a>
</g>
</g>
<!-- Node34 -->
<g id="Node000034" class="node">
<title>Node34</title>
<g id="a_Node000034"><a xlink:href="a60-svg-sequences_8h.html" target="_top" xlink:title=" ">
<polygon fill="white" stroke="#666666" points="1585.67,-82 1490.92,-82 1490.92,-62 1585.67,-62 1585.67,-82"/>
<text text-anchor="middle" x="1538.3" y="-70.4" font-family="SourceSans" font-size="8.00">a60&#45;svg&#45;sequences.h</text>
</a>
</g>
</g>
<!-- Node10&#45;&gt;Node34 -->
<g id="edge40_Node000010_Node000034" class="edge">
<title>Node10&#45;&gt;Node34</title>
<g id="a_edge40_Node000010_Node000034"><a xlink:title=" ">
<path fill="none" stroke="#63b8ff" d="M881.54,-132.81C967.3,-131.81 1245.49,-125.66 1472.3,-88 1477.08,-87.21 1482.05,-86.19 1487.03,-85.06"/>
<polygon fill="#63b8ff" stroke="#63b8ff" points="1487.48,-88.55 1496.39,-82.82 1485.85,-81.75 1487.48,-88.55"/>
</a>
</g>
</g>
<!-- Node18&#45;&gt;Node12 -->
<g id="edge22_Node000018_Node000012" class="edge">
<title>Node18&#45;&gt;Node12</title>
<g id="a_edge22_Node000018_Node000012"><a xlink:title=" ">
<path fill="none" stroke="#63b8ff" d="M638.3,-61.62C628.66,-52.59 613.86,-38.72 602.19,-27.78"/>
<polygon fill="#63b8ff" stroke="#63b8ff" points="604.81,-25.43 595.12,-21.15 600.02,-30.54 604.81,-25.43"/>
</a>
</g>
</g>
<!-- Node19 -->
<g id="Node000019" class="node">
<title>Node19</title>
<g id="a_Node000019"><a xlink:title=" ">
<polygon fill="#e0e0e0" stroke="#999999" points="856.92,-20 823.67,-20 823.67,0 856.92,0 856.92,-20"/>
<text text-anchor="middle" x="840.3" y="-8.4" font-family="SourceSans" font-size="8.00">map</text>
</a>
</g>
</g>
<!-- Node18&#45;&gt;Node19 -->
<g id="edge21_Node000018_Node000019" class="edge">
<title>Node18&#45;&gt;Node19</title>
<g id="a_edge21_Node000018_Node000019"><a xlink:title=" ">
<path fill="none" stroke="#63b8ff" d="M675.24,-61.66C680.87,-59.75 686.77,-57.78 692.3,-56 734.04,-42.54 782.76,-27.94 812.56,-19.13"/>
<polygon fill="#63b8ff" stroke="#63b8ff" points="813.32,-22.56 821.92,-16.37 811.34,-15.84 813.32,-22.56"/>
</a>
</g>
</g>
<!-- Node20 -->
<g id="Node000020" class="node">
<title>Node20</title>
<g id="a_Node000020"><a xlink:title=" ">
<polygon fill="#e0e0e0" stroke="#999999" points="1155.3,-20 1109.3,-20 1109.3,0 1155.3,0 1155.3,-20"/>
<text text-anchor="middle" x="1132.3" y="-8.4" font-family="SourceSans" font-size="8.00">random</text>
</a>
</g>
</g>
<!-- Node18&#45;&gt;Node20 -->
<g id="edge23_Node000018_Node000020" class="edge">
<title>Node18&#45;&gt;Node20</title>
<g id="a_edge23_Node000018_Node000020"><a xlink:title=" ">
<path fill="none" stroke="#63b8ff" d="M672.69,-61.59C678.99,-59.46 685.83,-57.41 692.3,-56 840.81,-23.53 1022.77,-14.37 1097.62,-11.88"/>
<polygon fill="#63b8ff" stroke="#63b8ff" points="1097.7,-15.38 1107.59,-11.57 1097.49,-8.39 1097.7,-15.38"/>
</a>
</g>
</g>
<!-- Node21 -->
<g id="Node000021" class="node">
<title>Node21</title>
<g id="a_Node000021"><a xlink:title=" ">
<polygon fill="#e0e0e0" stroke="#999999" points="677.05,-20 629.55,-20 629.55,0 677.05,0 677.05,-20"/>
<text text-anchor="middle" x="653.3" y="-8.4" font-family="SourceSans" font-size="8.00">iomanip</text>
</a>
</g>
</g>
<!-- Node18&#45;&gt;Node21 -->
<g id="edge24_Node000018_Node000021" class="edge">
<title>Node18&#45;&gt;Node21</title>
<g id="a_edge24_Node000018_Node000021"><a xlink:title=" ">
<path fill="none" stroke="#63b8ff" d="M649.08,-61.62C649.75,-53.56 650.74,-41.65 651.6,-31.41"/>
<polygon fill="#63b8ff" stroke="#63b8ff" points="655.07,-31.88 652.41,-21.62 648.09,-31.3 655.07,-31.88"/>
</a>
</g>
</g>
<!-- Node23&#45;&gt;Node9 -->
<g id="edge27_Node000023_Node000009" class="edge">
<title>Node23&#45;&gt;Node9</title>
<g id="a_edge27_Node000023_Node000009"><a xlink:title=" ">
<path fill="none" stroke="#63b8ff" d="M210.39,-61.62C190.77,-51.89 159.83,-36.55 137.15,-25.31"/>
<polygon fill="#63b8ff" stroke="#63b8ff" points="138.94,-22.29 128.43,-20.98 135.83,-28.56 138.94,-22.29"/>
</a>
</g>
</g>
<!-- Node24&#45;&gt;Node19 -->
<g id="edge29_Node000024_Node000019" class="edge">
<title>Node24&#45;&gt;Node19</title>
<g id="a_edge29_Node000024_Node000019"><a xlink:title=" ">
<path fill="none" stroke="#63b8ff" d="M1330.52,-61.51C1322.66,-59.44 1314.22,-57.43 1306.3,-56 1142.23,-26.32 941.89,-15.31 868.75,-12.11"/>
<polygon fill="#63b8ff" stroke="#63b8ff" points="869.01,-8.62 858.88,-11.69 868.72,-15.61 869.01,-8.62"/>
</a>
</g>
</g>
<!-- Node25 -->
<g id="Node000025" class="node">
<title>Node25</title>
<g id="a_Node000025"><a xlink:title=" ">
<polygon fill="#e0e0e0" stroke="#999999" points="1397.67,-20 1350.92,-20 1350.92,0 1397.67,0 1397.67,-20"/>
<text text-anchor="middle" x="1374.3" y="-8.4" font-family="SourceSans" font-size="8.00">ostream</text>
</a>
</g>
</g>
<!-- Node24&#45;&gt;Node25 -->
<g id="edge30_Node000024_Node000025" class="edge">
<title>Node24&#45;&gt;Node25</title>
<g id="a_edge30_Node000024_Node000025"><a xlink:title=" ">
<path fill="none" stroke="#63b8ff" d="M1364.17,-61.62C1365.8,-53.48 1368.22,-41.39 1370.28,-31.07"/>
<polygon fill="#63b8ff" stroke="#63b8ff" points="1373.65,-32.09 1372.18,-21.6 1366.78,-30.72 1373.65,-32.09"/>
</a>
</g>
</g>
<!-- Node26 -->
<g id="Node000026" class="node">
<title>Node26</title>
<g id="a_Node000026"><a xlink:title=" ">
<polygon fill="#e0e0e0" stroke="#999999" points="1472.92,-20 1427.67,-20 1427.67,0 1472.92,0 1472.92,-20"/>
<text text-anchor="middle" x="1450.3" y="-8.4" font-family="SourceSans" font-size="8.00">fstream</text>
</a>
</g>
</g>
<!-- Node24&#45;&gt;Node26 -->
<g id="edge31_Node000024_Node000026" class="edge">
<title>Node24&#45;&gt;Node26</title>
<g id="a_edge31_Node000024_Node000026"><a xlink:title=" ">
<path fill="none" stroke="#63b8ff" d="M1376.05,-61.62C1389.74,-52.29 1411,-37.79 1427.27,-26.7"/>
<polygon fill="#63b8ff" stroke="#63b8ff" points="1429.1,-29.69 1435.39,-21.16 1425.16,-23.9 1429.1,-29.69"/>
</a>
</g>
</g>
<!-- Node27 -->
<g id="Node000027" class="node">
<title>Node27</title>
<g id="a_Node000027"><a xlink:title=" ">
<polygon fill="#e0e0e0" stroke="#999999" points="1332.42,-20 1290.17,-20 1290.17,0 1332.42,0 1332.42,-20"/>
<text text-anchor="middle" x="1311.3" y="-8.4" font-family="SourceSans" font-size="8.00">cstdint</text>
</a>
</g>
</g>
<!-- Node24&#45;&gt;Node27 -->
<g id="edge32_Node000024_Node000027" class="edge">
<title>Node24&#45;&gt;Node27</title>
<g id="a_edge32_Node000024_Node000027"><a xlink:title=" ">
<path fill="none" stroke="#63b8ff" d="M1354.33,-61.62C1346.87,-52.86 1335.55,-39.53 1326.39,-28.75"/>
<polygon fill="#63b8ff" stroke="#63b8ff" points="1329.17,-26.62 1320.02,-21.27 1323.83,-31.15 1329.17,-26.62"/>
</a>
</g>
</g>
<!-- Node32&#45;&gt;Node1 -->
<g id="edge38_Node000032_Node000001" class="edge">
<title>Node32&#45;&gt;Node1</title>
<g id="a_edge38_Node000032_Node000001"><a xlink:title=" ">
<path fill="none" stroke="#63b8ff" d="M1778.41,-82.49C1769.62,-84.59 1760.16,-86.61 1751.3,-88 1188.85,-176.47 497.39,-196.12 297.1,-200.08"/>
<polygon fill="#63b8ff" stroke="#63b8ff" points="297.17,-196.57 287.24,-200.27 297.3,-203.57 297.17,-196.57"/>
</a>
</g>
</g>
<!-- Node34&#45;&gt;Node10 -->
<g id="edge44_Node000034_Node000010" class="edge">
<title>Node34&#45;&gt;Node10</title>
<g id="a_edge44_Node000034_Node000010"><a xlink:title=" ">
<path fill="none" stroke="#63b8ff" d="M1515.27,-82.46C1507.4,-84.59 1498.57,-86.63 1490.3,-88 1266.38,-125.18 992.38,-131.65 893.21,-132.77"/>
<polygon fill="#63b8ff" stroke="#63b8ff" points="893.21,-129.27 883.25,-132.87 893.28,-136.27 893.21,-129.27"/>
</a>
</g>
</g>
<!-- Node34&#45;&gt;Node20 -->
<g id="edge42_Node000034_Node000020" class="edge">
<title>Node34&#45;&gt;Node20</title>
<g id="a_edge42_Node000034_Node000020"><a xlink:title=" ">
<path fill="none" stroke="#63b8ff" d="M1505.31,-61.55C1497.48,-59.52 1489.13,-57.53 1481.3,-56 1367.23,-33.73 1229.97,-19.71 1166.97,-13.97"/>
<polygon fill="#63b8ff" stroke="#63b8ff" points="1167.52,-10.51 1157.25,-13.1 1166.9,-17.48 1167.52,-10.51"/>
</a>
</g>
</g>
<!-- Node34&#45;&gt;Node26 -->
<g id="edge41_Node000034_Node000026" class="edge">
<title>Node34&#45;&gt;Node26</title>
<g id="a_edge41_Node000034_Node000026"><a xlink:title=" ">
<path fill="none" stroke="#63b8ff" d="M1524.55,-61.62C1510.86,-52.29 1489.59,-37.79 1473.32,-26.7"/>
<polygon fill="#63b8ff" stroke="#63b8ff" points="1475.44,-23.9 1465.2,-21.16 1471.49,-29.69 1475.44,-23.9"/>
</a>
</g>
</g>
<!-- Node35 -->
<g id="Node000035" class="node">
<title>Node35</title>
<g id="a_Node000035"><a xlink:title=" ">
<polygon fill="#e0e0e0" stroke="#999999" points="1562.42,-20 1514.17,-20 1514.17,0 1562.42,0 1562.42,-20"/>
<text text-anchor="middle" x="1538.3" y="-8.4" font-family="SourceSans" font-size="8.00">unistd.h</text>
</a>
</g>
</g>
<!-- Node34&#45;&gt;Node35 -->
<g id="edge43_Node000034_Node000035" class="edge">
<title>Node34&#45;&gt;Node35</title>
<g id="a_edge43_Node000034_Node000035"><a xlink:title=" ">
<path fill="none" stroke="#63b8ff" d="M1538.3,-61.62C1538.3,-53.56 1538.3,-41.65 1538.3,-31.41"/>
<polygon fill="#63b8ff" stroke="#63b8ff" points="1541.8,-31.63 1538.3,-21.63 1534.8,-31.63 1541.8,-31.63"/>
</a>
</g>
</g>
</g>
</svg>

<g id="navigator" transform="translate(0 0)" fill="#404254">
  <rect fill="#f2f5e9" fill-opacity="0.5" stroke="#606060" stroke-width=".5" x="0" y="0" width="60" height="60"/>
  <use id="zoomplus" xlink:href="#zoomPlus" x="17" y="9" onmousedown="handleZoom(evt,'in')"/>
  <use id="zoomminus" xlink:href="#zoomMin" x="42" y="9" onmousedown="handleZoom(evt,'out')"/>
  <use id="reset" xlink:href="#resetDef" x="30" y="36" onmousedown="handleReset()"/>
   <use id="arrowup" xlink:href="#arrowUp" x="0" y="0" onmousedown="handlePan(0,-1)"/>
  <use id="arrowright" xlink:href="#arrowRight" x="0" y="0" onmousedown="handlePan(1,0)"/>
  <use id="arrowdown" xlink:href="#arrowDown" x="0" y="0" onmousedown="handlePan(0,1)"/>
  <use id="arrowleft" xlink:href="#arrowLeft" x="0" y="0" onmousedown="handlePan(-1,0)"/>
</g>
<svg viewBox="0 0 15 15" width="100%" height="30px" preserveAspectRatio="xMaxYMin meet">
 <g id="arrow_out" transform="scale(0.3 0.3)">
  <a xlink:href="a60-svg-radial-fill-hexagon_8h__incl_org.svg" target="_base">
   <rect id="button" ry="5" rx="5" y="6" x="6" height="38" width="38"
        fill="#f2f5e9" fill-opacity="0.5" stroke="#606060" stroke-width="1.0"/>
   <path id="arrow"
     d="M 11.500037,31.436501 C 11.940474,20.09759 22.043105,11.32322 32.158766,21.979434 L 37.068811,17.246167 C 37.068811,17.246167 37.088388,32 37.088388,32 L 22.160133,31.978069 C 22.160133,31.978069 26.997745,27.140456 26.997745,27.140456 C 18.528582,18.264221 13.291696,25.230495 11.500037,31.436501 z"
     style="fill:#404040;"/>
  </a>
 </g>
</svg>

<style type='text/css'>
<![CDATA[
[data-mouse-over-selected='false'] { opacity: 0.7; }
[data-mouse-over-selected='true']  { opacity: 1.0; }
]]>
</style>
<script type="application/ecmascript"><![CDATA[
document.addEventListener('DOMContentLoaded', (event) => {
  highlightEdges();
  highlightAdjacentNodes();
});
]]></script>
</svg>
