<?xml version="1.0" encoding="UTF-8" standalone="no"?>
<!DOCTYPE svg PUBLIC "-//W3C//DTD SVG 1.1//EN"
 "http://www.w3.org/Graphics/SVG/1.1/DTD/svg11.dtd">
<!-- Generated by graphviz version 13.1.2 (20250808.2320)
 -->
<!-- Title: /home/bkoz/src/izzi/src/a60&#45;svg&#45;graphs&#45;line.h Pages: 1 -->
<svg width="887pt" height="176pt"
 viewBox="0.00 0.00 887.00 176.00" xmlns="http://www.w3.org/2000/svg" xmlns:xlink="http://www.w3.org/1999/xlink">
<g id="graph0" class="graph" transform="scale(1 1) rotate(0) translate(4 172)">
<title>/home/bkoz/src/izzi/src/a60&#45;svg&#45;graphs&#45;line.h</title>
<!-- Node1 -->
<g id="Node000001" class="node">
<title>Node1</title>
<g id="a_Node000001"><a xlink:title=" ">
<polygon fill="#999999" stroke="#666666" points="511.62,-168 421.38,-168 421.38,-124 511.62,-124 511.62,-168"/>
<text xml:space="preserve" text-anchor="start" x="429.38" y="-156.4" font-family="SourceSans" font-size="8.00">/home/bkoz/src/izzi</text>
<text xml:space="preserve" text-anchor="start" x="429.38" y="-144.4" font-family="SourceSans" font-size="8.00">/src/a60&#45;svg&#45;graphs</text>
<text xml:space="preserve" text-anchor="middle" x="466.5" y="-132.4" font-family="SourceSans" font-size="8.00">&#45;line.h</text>
</a>
</g>
</g>
<!-- Node2 -->
<g id="Node000002" class="node">
<title>Node2</title>
<g id="a_Node000002"><a xlink:title=" ">
<polygon fill="#e0e0e0" stroke="#999999" points="306.9,-82 278.1,-82 278.1,-62 306.9,-62 306.9,-82"/>
<text xml:space="preserve" text-anchor="middle" x="292.5" y="-70.4" font-family="SourceSans" font-size="8.00">set</text>
</a>
</g>
</g>
<!-- Node1&#45;&gt;Node2 -->
<g id="edge1_Node000001_Node000002" class="edge">
<title>Node1&#45;&gt;Node2</title>
<g id="a_edge1_Node000001_Node000002"><a xlink:title=" ">
<path fill="none" stroke="#63b8ff" d="M420.89,-130.28C390.65,-119.88 350.43,-104.85 316.5,-88 316.4,-87.95 316.29,-87.9 316.19,-87.84"/>
<polygon fill="#63b8ff" stroke="#63b8ff" points="318.2,-84.96 307.77,-83.1 314.76,-91.06 318.2,-84.96"/>
</a>
</g>
</g>
<!-- Node3 -->
<g id="Node000003" class="node">
<title>Node3</title>
<g id="a_Node000003"><a xlink:href="izzi-json-basics_8h.html" target="_top" xlink:title=" ">
<polygon fill="white" stroke="#666666" points="404,-82 325,-82 325,-62 404,-62 404,-82"/>
<text xml:space="preserve" text-anchor="middle" x="364.5" y="-70.4" font-family="SourceSans" font-size="8.00">izzi&#45;json&#45;basics.h</text>
</a>
</g>
</g>
<!-- Node1&#45;&gt;Node3 -->
<g id="edge2_Node000001_Node000003" class="edge">
<title>Node1&#45;&gt;Node3</title>
<g id="a_edge2_Node000001_Node000003"><a xlink:title=" ">
<path fill="none" stroke="#63b8ff" d="M436.17,-123.59C420.43,-112.48 401.52,-99.13 387.08,-88.94"/>
<polygon fill="#63b8ff" stroke="#63b8ff" points="389.31,-86.23 379.12,-83.32 385.27,-91.95 389.31,-86.23"/>
</a>
</g>
</g>
<!-- Node13 -->
<g id="Node000013" class="node">
<title>Node13</title>
<g id="a_Node000013"><a xlink:href="a60-svg-grid-matrix-systems_8h.html" target="_top" xlink:title=" ">
<polygon fill="white" stroke="#666666" points="511.25,-88 421.75,-88 421.75,-56 511.25,-56 511.25,-88"/>
<text xml:space="preserve" text-anchor="start" x="429.75" y="-76.4" font-family="SourceSans" font-size="8.00">a60&#45;svg&#45;grid&#45;matrix</text>
<text xml:space="preserve" text-anchor="middle" x="466.5" y="-64.4" font-family="SourceSans" font-size="8.00">&#45;systems.h</text>
</a>
</g>
</g>
<!-- Node1&#45;&gt;Node13 -->
<g id="edge12_Node000001_Node000013" class="edge">
<title>Node1&#45;&gt;Node13</title>
<g id="a_edge12_Node000001_Node000013"><a xlink:title=" ">
<path fill="none" stroke="#63b8ff" d="M466.5,-123.79C466.5,-116.18 466.5,-107.52 466.5,-99.52"/>
<polygon fill="#63b8ff" stroke="#63b8ff" points="470,-99.64 466.5,-89.64 463,-99.64 470,-99.64"/>
</a>
</g>
</g>
<!-- Node14 -->
<g id="Node000014" class="node">
<title>Node14</title>
<g id="a_Node000014"><a xlink:href="a60-svg-render-state_8h.html" target="_top" xlink:title=" ">
<polygon fill="white" stroke="#666666" points="629.88,-82 529.12,-82 529.12,-62 629.88,-62 629.88,-82"/>
<text xml:space="preserve" text-anchor="middle" x="579.5" y="-70.4" font-family="SourceSans" font-size="8.00">a60&#45;svg&#45;render&#45;state.h</text>
</a>
</g>
</g>
<!-- Node1&#45;&gt;Node14 -->
<g id="edge13_Node000001_Node000014" class="edge">
<title>Node1&#45;&gt;Node14</title>
<g id="a_edge13_Node000001_Node000014"><a xlink:title=" ">
<path fill="none" stroke="#63b8ff" d="M500.1,-123.59C517.88,-112.26 539.3,-98.62 555.41,-88.35"/>
<polygon fill="#63b8ff" stroke="#63b8ff" points="556.84,-91.59 563.4,-83.26 553.08,-85.68 556.84,-91.59"/>
</a>
</g>
</g>
<!-- Node15 -->
<g id="Node000015" class="node">
<title>Node15</title>
<g id="a_Node000015"><a xlink:href="a60-svg-markers_8h.html" target="_top" xlink:title=" ">
<polygon fill="white" stroke="#666666" points="733,-82 648,-82 648,-62 733,-62 733,-82"/>
<text xml:space="preserve" text-anchor="middle" x="690.5" y="-70.4" font-family="SourceSans" font-size="8.00">a60&#45;svg&#45;markers.h</text>
</a>
</g>
</g>
<!-- Node1&#45;&gt;Node15 -->
<g id="edge14_Node000001_Node000015" class="edge">
<title>Node1&#45;&gt;Node15</title>
<g id="a_edge14_Node000001_Node000015"><a xlink:title=" ">
<path fill="none" stroke="#63b8ff" d="M512.1,-130.34C552.62,-117.32 611.28,-98.46 650.13,-85.98"/>
<polygon fill="#63b8ff" stroke="#63b8ff" points="651.13,-89.33 659.58,-82.94 648.98,-82.67 651.13,-89.33"/>
</a>
</g>
</g>
<!-- Node4 -->
<g id="Node000004" class="node">
<title>Node4</title>
<g id="a_Node000004"><a xlink:title=" ">
<polygon fill="#e0e0e0" stroke="#999999" points="49,-20 0,-20 0,0 49,0 49,-20"/>
<text xml:space="preserve" text-anchor="middle" x="24.5" y="-8.4" font-family="SourceSans" font-size="8.00">iostream</text>
</a>
</g>
</g>
<!-- Node3&#45;&gt;Node4 -->
<g id="edge3_Node000003_Node000004" class="edge">
<title>Node3&#45;&gt;Node4</title>
<g id="a_edge3_Node000003_Node000004"><a xlink:title=" ">
<path fill="none" stroke="#63b8ff" d="M336.2,-61.51C329.47,-59.48 322.27,-57.5 315.5,-56 206.41,-31.82 173.6,-42.1 60.5,-20.16"/>
<polygon fill="#63b8ff" stroke="#63b8ff" points="61.28,-16.74 50.79,-18.23 59.91,-23.61 61.28,-16.74"/>
</a>
</g>
</g>
<!-- Node5 -->
<g id="Node000005" class="node">
<title>Node5</title>
<g id="a_Node000005"><a xlink:title=" ">
<polygon fill="#e0e0e0" stroke="#999999" points="113.5,-20 67.5,-20 67.5,0 113.5,0 113.5,-20"/>
<text xml:space="preserve" text-anchor="middle" x="90.5" y="-8.4" font-family="SourceSans" font-size="8.00">sstream</text>
</a>
</g>
</g>
<!-- Node3&#45;&gt;Node5 -->
<g id="edge4_Node000003_Node000005" class="edge">
<title>Node3&#45;&gt;Node5</title>
<g id="a_edge4_Node000003_Node000005"><a xlink:title=" ">
<path fill="none" stroke="#63b8ff" d="M335.63,-61.57C329.05,-59.59 322.07,-57.61 315.5,-56 234.23,-36.05 209.49,-39.49 125.03,-20.41"/>
<polygon fill="#63b8ff" stroke="#63b8ff" points="125.86,-17.01 115.33,-18.17 124.29,-23.83 125.86,-17.01"/>
</a>
</g>
</g>
<!-- Node6 -->
<g id="Node000006" class="node">
<title>Node6</title>
<g id="a_Node000006"><a xlink:title=" ">
<polygon fill="#e0e0e0" stroke="#999999" points="177.12,-20 131.88,-20 131.88,0 177.12,0 177.12,-20"/>
<text xml:space="preserve" text-anchor="middle" x="154.5" y="-8.4" font-family="SourceSans" font-size="8.00">fstream</text>
</a>
</g>
</g>
<!-- Node3&#45;&gt;Node6 -->
<g id="edge5_Node000003_Node000006" class="edge">
<title>Node3&#45;&gt;Node6</title>
<g id="a_edge5_Node000003_Node000006"><a xlink:title=" ">
<path fill="none" stroke="#63b8ff" d="M333.95,-61.52C327.85,-59.66 321.48,-57.75 315.5,-56 261.61,-40.23 245.6,-36.47 188.35,-20.51"/>
<polygon fill="#63b8ff" stroke="#63b8ff" points="189.6,-17.22 179.03,-17.9 187.72,-23.96 189.6,-17.22"/>
</a>
</g>
</g>
<!-- Node7 -->
<g id="Node000007" class="node">
<title>Node7</title>
<g id="a_Node000007"><a xlink:title=" ">
<polygon fill="#e0e0e0" stroke="#999999" points="301.5,-20 195.5,-20 195.5,0 301.5,0 301.5,-20"/>
<text xml:space="preserve" text-anchor="middle" x="248.5" y="-8.4" font-family="SourceSans" font-size="8.00">rapidjson/prettywriter.h</text>
</a>
</g>
</g>
<!-- Node3&#45;&gt;Node7 -->
<g id="edge6_Node000003_Node000007" class="edge">
<title>Node3&#45;&gt;Node7</title>
<g id="a_edge6_Node000003_Node000007"><a xlink:title=" ">
<path fill="none" stroke="#63b8ff" d="M346.38,-61.62C327.65,-51.94 298.17,-36.69 276.45,-25.46"/>
<polygon fill="#63b8ff" stroke="#63b8ff" points="278.33,-22.49 267.84,-21 275.12,-28.71 278.33,-22.49"/>
</a>
</g>
</g>
<!-- Node8 -->
<g id="Node000008" class="node">
<title>Node8</title>
<g id="a_Node000008"><a xlink:title=" ">
<polygon fill="#e0e0e0" stroke="#999999" points="409.25,-20 319.75,-20 319.75,0 409.25,0 409.25,-20"/>
<text xml:space="preserve" text-anchor="middle" x="364.5" y="-8.4" font-family="SourceSans" font-size="8.00">rapidjson/pointer.h</text>
</a>
</g>
</g>
<!-- Node3&#45;&gt;Node8 -->
<g id="edge7_Node000003_Node000008" class="edge">
<title>Node3&#45;&gt;Node8</title>
<g id="a_edge7_Node000003_Node000008"><a xlink:title=" ">
<path fill="none" stroke="#63b8ff" d="M364.5,-61.62C364.5,-53.56 364.5,-41.65 364.5,-31.41"/>
<polygon fill="#63b8ff" stroke="#63b8ff" points="368,-31.63 364.5,-21.63 361,-31.63 368,-31.63"/>
</a>
</g>
</g>
<!-- Node9 -->
<g id="Node000009" class="node">
<title>Node9</title>
<g id="a_Node000009"><a xlink:title=" ">
<polygon fill="#e0e0e0" stroke="#999999" points="544.12,-20 426.88,-20 426.88,0 544.12,0 544.12,-20"/>
<text xml:space="preserve" text-anchor="middle" x="485.5" y="-8.4" font-family="SourceSans" font-size="8.00">rapidjson/filereadstream.h</text>
</a>
</g>
</g>
<!-- Node3&#45;&gt;Node9 -->
<g id="edge8_Node000003_Node000009" class="edge">
<title>Node3&#45;&gt;Node9</title>
<g id="a_edge8_Node000003_Node000009"><a xlink:title=" ">
<path fill="none" stroke="#63b8ff" d="M383.41,-61.62C403.03,-51.89 433.97,-36.55 456.65,-25.31"/>
<polygon fill="#63b8ff" stroke="#63b8ff" points="457.97,-28.56 465.37,-20.98 454.86,-22.29 457.97,-28.56"/>
</a>
</g>
</g>
<!-- Node10 -->
<g id="Node000010" class="node">
<title>Node10</title>
<g id="a_Node000010"><a xlink:title=" ">
<polygon fill="#e0e0e0" stroke="#999999" points="648.75,-20 562.25,-20 562.25,0 648.75,0 648.75,-20"/>
<text xml:space="preserve" text-anchor="middle" x="605.5" y="-8.4" font-family="SourceSans" font-size="8.00">rapidjson/reader.h</text>
</a>
</g>
</g>
<!-- Node3&#45;&gt;Node10 -->
<g id="edge9_Node000003_Node000010" class="edge">
<title>Node3&#45;&gt;Node10</title>
<g id="a_edge9_Node000003_Node000010"><a xlink:title=" ">
<path fill="none" stroke="#63b8ff" d="M393.59,-61.53C399.81,-59.61 406.35,-57.68 412.5,-56 458.88,-43.37 512.12,-31.12 550.91,-22.6"/>
<polygon fill="#63b8ff" stroke="#63b8ff" points="551.46,-26.06 560.48,-20.51 549.97,-19.22 551.46,-26.06"/>
</a>
</g>
</g>
<!-- Node11 -->
<g id="Node000011" class="node">
<title>Node11</title>
<g id="a_Node000011"><a xlink:title=" ">
<polygon fill="#e0e0e0" stroke="#999999" points="768.25,-20 666.75,-20 666.75,0 768.25,0 768.25,-20"/>
<text xml:space="preserve" text-anchor="middle" x="717.5" y="-8.4" font-family="SourceSans" font-size="8.00">rapidjson/document.h</text>
</a>
</g>
</g>
<!-- Node3&#45;&gt;Node11 -->
<g id="edge10_Node000003_Node000011" class="edge">
<title>Node3&#45;&gt;Node11</title>
<g id="a_edge10_Node000003_Node000011"><a xlink:title=" ">
<path fill="none" stroke="#63b8ff" d="M392.22,-61.53C398.81,-59.5 405.86,-57.52 412.5,-56 516.34,-32.3 546.7,-35.89 655.32,-20.29"/>
<polygon fill="#63b8ff" stroke="#63b8ff" points="655.55,-23.8 664.94,-18.89 654.54,-16.87 655.55,-23.8"/>
</a>
</g>
</g>
<!-- Node12 -->
<g id="Node000012" class="node">
<title>Node12</title>
<g id="a_Node000012"><a xlink:title=" ">
<polygon fill="#e0e0e0" stroke="#999999" points="879.12,-20 785.88,-20 785.88,0 879.12,0 879.12,-20"/>
<text xml:space="preserve" text-anchor="middle" x="832.5" y="-8.4" font-family="SourceSans" font-size="8.00">rapidjson/error/en.h</text>
</a>
</g>
</g>
<!-- Node3&#45;&gt;Node12 -->
<g id="edge11_Node000003_Node000012" class="edge">
<title>Node3&#45;&gt;Node12</title>
<g id="a_edge11_Node000003_Node000012"><a xlink:title=" ">
<path fill="none" stroke="#63b8ff" d="M391.41,-61.53C398.22,-59.43 405.57,-57.41 412.5,-56 568.65,-24.25 613.85,-40.41 774.19,-20.35"/>
<polygon fill="#63b8ff" stroke="#63b8ff" points="774.45,-23.84 783.92,-19.1 773.56,-16.9 774.45,-23.84"/>
</a>
</g>
</g>
</g>
</svg>
