<?xml version="1.0" encoding="UTF-8" standalone="no"?>
<!DOCTYPE svg PUBLIC "-//W3C//DTD SVG 1.1//EN"
 "http://www.w3.org/Graphics/SVG/1.1/DTD/svg11.dtd">
<!-- Generated by graphviz version 12.2.1 (20241206.2353)
 -->
<!-- Title: /home/bkoz/src/izzi/src/a60&#45;svg&#45;render&#45;basics.h Pages: 1 -->
<!--zoomable 300 -->

<svg id="main" version="1.1" xmlns="http://www.w3.org/2000/svg" xmlns:xlink="http://www.w3.org/1999/xlink" xml:space="preserve" onload="init(evt)">

<style type="text/css"><![CDATA[
.node, .edge {opacity: 0.7;}
.node.selected, .edge.selected {opacity: 1;}
.edge:hover path { stroke: red; }
.edge:hover polygon { stroke: red; fill: red; }
]]></style>

<defs>
  <circle id="rim" cx="0" cy="0" r="7"/>
  <circle id="rim2" cx="0" cy="0" r="3.5"/>
  <g id="zoomPlus">
    <use xlink:href="#rim" fill="#404040"><set attributeName="fill" to="#808080" begin="zoomplus.mouseover" end="zoomplus.mouseout"/></use>
    <path d="M-4,0h8M0,-4v8" fill="none" stroke="white" stroke-width="1.5" pointer-events="none"/>
  </g>
  <g id="zoomMin">
    <use xlink:href="#rim" fill="#404040"><set attributeName="fill" to="#808080" begin="zoomminus.mouseover" end="zoomminus.mouseout"/></use>
    <path d="M-4,0h8" fill="none" stroke="white" stroke-width="1.5" pointer-events="none"/>
  </g>
  <g id="arrowUp" transform="translate(30 24)">
    <use xlink:href="#rim"/>
    <path pointer-events="none" fill="none" stroke="white" stroke-width="1.5" d="M0,-3.0v7 M-2.5,-0.5L0,-3.0L2.5,-0.5"/>
  </g>
  <g id="arrowRight" transform="rotate(90) translate(36 -43)">
    <use xlink:href="#rim"/>
    <path pointer-events="none" fill="none" stroke="white" stroke-width="1.5" d="M0,-3.0v7 M-2.5,-0.5L0,-3.0L2.5,-0.5"/>
  </g>
  <g id="arrowDown" transform="rotate(180) translate(-30 -48)">
    <use xlink:href="#rim"/>
    <path pointer-events="none" fill="none" stroke="white" stroke-width="1.5" d="M0,-3.0v7 M-2.5,-0.5L0,-3.0L2.5,-0.5"/>
  </g>
  <g id="arrowLeft" transform="rotate(270) translate(-36 17)">
    <use xlink:href="#rim"/>
    <path pointer-events="none" fill="none" stroke="white" stroke-width="1.5" d="M0,-3.0v7 M-2.5,-0.5L0,-3.0L2.5,-0.5"/>
  </g>
  <g id="resetDef">
    <use xlink:href="#rim2" fill="#404040"><set attributeName="fill" to="#808080" begin="reset.mouseover" end="reset.mouseout"/></use>
  </g>
</defs>
<script type="application/ecmascript">
var viewWidth = 1750;
var viewHeight = 300;
var sectionId = 'dynsection-0';
</script>
<script type="application/ecmascript" xlink:href="svg.min.js"/>
<svg id="graph" class="graph">
<g id="viewport">
<title>/home/bkoz/src/izzi/src/a60&#45;svg&#45;render&#45;basics.h</title>
<!-- Node1 -->
<g id="Node000001" class="node">
<title>Node1</title>
<g id="a_Node000001"><a xlink:title=" ">
<polygon fill="#999999" stroke="#666666" points="1380.12,-292 1289.88,-292 1289.88,-248 1380.12,-248 1380.12,-292"/>
<text text-anchor="start" x="1297.88" y="-280.4" font-family="SourceSans" font-size="8.00">/home/bkoz/src/izzi</text>
<text text-anchor="start" x="1297.88" y="-268.4" font-family="SourceSans" font-size="8.00">/src/a60&#45;svg&#45;render</text>
<text text-anchor="middle" x="1335" y="-256.4" font-family="SourceSans" font-size="8.00">&#45;basics.h</text>
</a>
</g>
</g>
<!-- Node2 -->
<g id="Node000002" class="node">
<title>Node2</title>
<g id="a_Node000002"><a xlink:href="a60-svg-radial-fill-hexagon_8h.html" target="_top" xlink:title=" ">
<polygon fill="white" stroke="#666666" points="1524.88,-212 1445.12,-212 1445.12,-180 1524.88,-180 1524.88,-212"/>
<text text-anchor="start" x="1453.12" y="-200.4" font-family="SourceSans" font-size="8.00">a60&#45;svg&#45;radial&#45;fill</text>
<text text-anchor="middle" x="1485" y="-188.4" font-family="SourceSans" font-size="8.00">&#45;hexagon.h</text>
</a>
</g>
</g>
<!-- Node1&#45;&gt;Node2 -->
<g id="edge1_Node000001_Node000002" class="edge">
<title>Node1&#45;&gt;Node2</title>
<g id="a_edge1_Node000001_Node000002"><a xlink:title=" ">
<path fill="none" stroke="#63b8ff" d="M1379.6,-247.59C1399.51,-238.04 1422.86,-226.83 1442.52,-217.39"/>
<polygon fill="#63b8ff" stroke="#63b8ff" points="1443.85,-220.63 1451.35,-213.15 1440.82,-214.32 1443.85,-220.63"/>
</a>
</g>
</g>
<!-- Node3 -->
<g id="Node000003" class="node">
<title>Node3</title>
<g id="a_Node000003"><a xlink:title=" ">
<polygon fill="#e0e0e0" stroke="#999999" points="1616.25,-82 1577.75,-82 1577.75,-62 1616.25,-62 1616.25,-82"/>
<text text-anchor="middle" x="1597" y="-70.4" font-family="SourceSans" font-size="8.00">vector</text>
</a>
</g>
</g>
<!-- Node2&#45;&gt;Node3 -->
<g id="edge2_Node000002_Node000003" class="edge">
<title>Node2&#45;&gt;Node3</title>
<g id="a_edge2_Node000002_Node000003"><a xlink:title=" ">
<path fill="none" stroke="#63b8ff" d="M1444.86,-189.27C1393.9,-180.36 1316.11,-160.33 1347,-124 1379.23,-86.09 1520.76,-103.62 1568,-88 1568.97,-87.68 1569.94,-87.33 1570.91,-86.96"/>
<polygon fill="#63b8ff" stroke="#63b8ff" points="1572.08,-90.27 1579.76,-82.97 1569.2,-83.89 1572.08,-90.27"/>
</a>
</g>
</g>
<!-- Node4 -->
<g id="Node000004" class="node">
<title>Node4</title>
<g id="a_Node000004"><a xlink:title=" ">
<polygon fill="#e0e0e0" stroke="#999999" points="1670.12,-82 1633.88,-82 1633.88,-62 1670.12,-62 1670.12,-82"/>
<text text-anchor="middle" x="1652" y="-70.4" font-family="SourceSans" font-size="8.00">tuple</text>
</a>
</g>
</g>
<!-- Node2&#45;&gt;Node4 -->
<g id="edge3_Node000002_Node000004" class="edge">
<title>Node2&#45;&gt;Node4</title>
<g id="a_edge3_Node000002_Node000004"><a xlink:title=" ">
<path fill="none" stroke="#63b8ff" d="M1525.26,-192.32C1559.91,-187.81 1608.67,-175.8 1637,-144 1649.3,-130.19 1652.43,-108.88 1652.85,-93.21"/>
<polygon fill="#63b8ff" stroke="#63b8ff" points="1656.36,-93.58 1652.76,-83.61 1649.36,-93.65 1656.36,-93.58"/>
</a>
</g>
</g>
<!-- Node5 -->
<g id="Node000005" class="node">
<title>Node5</title>
<g id="a_Node000005"><a xlink:title=" ">
<polygon fill="#e0e0e0" stroke="#999999" points="1728,-82 1688,-82 1688,-62 1728,-62 1728,-82"/>
<text text-anchor="middle" x="1708" y="-70.4" font-family="SourceSans" font-size="8.00">cmath</text>
</a>
</g>
</g>
<!-- Node2&#45;&gt;Node5 -->
<g id="edge4_Node000002_Node000005" class="edge">
<title>Node2&#45;&gt;Node5</title>
<g id="a_edge4_Node000002_Node000005"><a xlink:title=" ">
<path fill="none" stroke="#63b8ff" d="M1525.17,-190.43C1562,-184.62 1616.63,-171.76 1656,-144 1674.87,-130.69 1689.58,-108.35 1698.47,-92.28"/>
<polygon fill="#63b8ff" stroke="#63b8ff" points="1701.43,-94.17 1702.97,-83.69 1695.23,-90.93 1701.43,-94.17"/>
</a>
</g>
</g>
<!-- Node6 -->
<g id="Node000006" class="node">
<title>Node6</title>
<g id="a_Node000006"><a xlink:title=" ">
<polygon fill="#e0e0e0" stroke="#999999" points="1406.25,-144 1355.75,-144 1355.75,-124 1406.25,-124 1406.25,-144"/>
<text text-anchor="middle" x="1381" y="-132.4" font-family="SourceSans" font-size="8.00">numbers</text>
</a>
</g>
</g>
<!-- Node2&#45;&gt;Node6 -->
<g id="edge5_Node000002_Node000006" class="edge">
<title>Node2&#45;&gt;Node6</title>
<g id="a_edge5_Node000002_Node000006"><a xlink:title=" ">
<path fill="none" stroke="#63b8ff" d="M1458.22,-179.55C1442.42,-170.43 1422.52,-158.96 1406.88,-149.93"/>
<polygon fill="#63b8ff" stroke="#63b8ff" points="1409.03,-147.13 1398.62,-145.16 1405.53,-153.19 1409.03,-147.13"/>
</a>
</g>
</g>
<!-- Node7 -->
<g id="Node000007" class="node">
<title>Node7</title>
<g id="a_Node000007"><a xlink:title=" ">
<polygon fill="#e0e0e0" stroke="#999999" points="1479.5,-144 1424.5,-144 1424.5,-124 1479.5,-124 1479.5,-144"/>
<text text-anchor="middle" x="1452" y="-132.4" font-family="SourceSans" font-size="8.00">functional</text>
</a>
</g>
</g>
<!-- Node2&#45;&gt;Node7 -->
<g id="edge6_Node000002_Node000007" class="edge">
<title>Node2&#45;&gt;Node7</title>
<g id="a_edge6_Node000002_Node000007"><a xlink:title=" ">
<path fill="none" stroke="#63b8ff" d="M1476.5,-179.55C1472.3,-171.91 1467.19,-162.61 1462.72,-154.49"/>
<polygon fill="#63b8ff" stroke="#63b8ff" points="1465.79,-152.81 1457.9,-145.73 1459.66,-156.18 1465.79,-152.81"/>
</a>
</g>
</g>
<!-- Node8 -->
<g id="Node000008" class="node">
<title>Node8</title>
<g id="a_Node000008"><a xlink:title=" ">
<polygon fill="#e0e0e0" stroke="#999999" points="1538.38,-144 1497.62,-144 1497.62,-124 1538.38,-124 1538.38,-144"/>
<text text-anchor="middle" x="1518" y="-132.4" font-family="SourceSans" font-size="8.00">queue</text>
</a>
</g>
</g>
<!-- Node2&#45;&gt;Node8 -->
<g id="edge7_Node000002_Node000008" class="edge">
<title>Node2&#45;&gt;Node8</title>
<g id="a_edge7_Node000002_Node000008"><a xlink:title=" ">
<path fill="none" stroke="#63b8ff" d="M1493.5,-179.55C1497.7,-171.91 1502.81,-162.61 1507.28,-154.49"/>
<polygon fill="#63b8ff" stroke="#63b8ff" points="1510.34,-156.18 1512.1,-145.73 1504.21,-152.81 1510.34,-156.18"/>
</a>
</g>
</g>
<!-- Node9 -->
<g id="Node000009" class="node">
<title>Node9</title>
<g id="a_Node000009"><a xlink:title=" ">
<polygon fill="#e0e0e0" stroke="#999999" points="1627.75,-144 1556.25,-144 1556.25,-124 1627.75,-124 1627.75,-144"/>
<text text-anchor="middle" x="1592" y="-132.4" font-family="SourceSans" font-size="8.00">unordered_set</text>
</a>
</g>
</g>
<!-- Node2&#45;&gt;Node9 -->
<g id="edge8_Node000002_Node000009" class="edge">
<title>Node2&#45;&gt;Node9</title>
<g id="a_edge8_Node000002_Node000009"><a xlink:title=" ">
<path fill="none" stroke="#63b8ff" d="M1512.56,-179.55C1528.81,-170.43 1549.28,-158.96 1565.37,-149.93"/>
<polygon fill="#63b8ff" stroke="#63b8ff" points="1566.89,-153.09 1573.9,-145.15 1563.47,-146.99 1566.89,-153.09"/>
</a>
</g>
</g>
<!-- Node10 -->
<g id="Node000010" class="node">
<title>Node10</title>
<g id="a_Node000010"><a xlink:title=" ">
<polygon fill="#e0e0e0" stroke="#999999" points="1658.5,-20 1609.5,-20 1609.5,0 1658.5,0 1658.5,-20"/>
<text text-anchor="middle" x="1634" y="-8.4" font-family="SourceSans" font-size="8.00">iostream</text>
</a>
</g>
</g>
<!-- Node2&#45;&gt;Node10 -->
<g id="edge9_Node000002_Node000010" class="edge">
<title>Node2&#45;&gt;Node10</title>
<g id="a_edge9_Node000002_Node000010"><a xlink:title=" ">
<path fill="none" stroke="#63b8ff" d="M1525.31,-193.53C1587.48,-188.7 1703.13,-168.76 1737,-88 1742.5,-74.88 1744.79,-67.9 1737,-56 1722.22,-33.41 1693.33,-22.09 1669.9,-16.46"/>
<polygon fill="#63b8ff" stroke="#63b8ff" points="1670.91,-13.1 1660.4,-14.45 1669.45,-19.95 1670.91,-13.1"/>
</a>
</g>
</g>
<!-- Node11 -->
<g id="Node000011" class="node">
<title>Node11</title>
<g id="a_Node000011"><a xlink:href="a60-svg_8h.html" target="_top" xlink:title=" ">
<polygon fill="white" stroke="#666666" points="1173,-144 1121,-144 1121,-124 1173,-124 1173,-144"/>
<text text-anchor="middle" x="1147" y="-132.4" font-family="SourceSans" font-size="8.00">a60&#45;svg.h</text>
</a>
</g>
</g>
<!-- Node2&#45;&gt;Node11 -->
<g id="edge10_Node000002_Node000011" class="edge">
<title>Node2&#45;&gt;Node11</title>
<g id="a_edge10_Node000002_Node000011"><a xlink:title=" ">
<path fill="none" stroke="#63b8ff" d="M1444.9,-187.88C1379.05,-176.19 1248.92,-153.09 1184.68,-141.69"/>
<polygon fill="#63b8ff" stroke="#63b8ff" points="1185.44,-138.27 1174.98,-139.97 1184.21,-145.16 1185.44,-138.27"/>
</a>
</g>
</g>
<!-- Node11&#45;&gt;Node1 -->
<g id="edge38_Node000011_Node000001" class="edge">
<title>Node11&#45;&gt;Node1</title>
<g id="a_edge38_Node000011_Node000001"><a xlink:title=" ">
<path fill="none" stroke="#63b8ff" d="M1160.01,-144.27C1187.7,-164.01 1253.43,-210.86 1295.98,-241.19"/>
<polygon fill="#63b8ff" stroke="#63b8ff" points="1293.8,-243.93 1303.98,-246.89 1297.87,-238.23 1293.8,-243.93"/>
</a>
</g>
</g>
<!-- Node11&#45;&gt;Node3 -->
<g id="edge17_Node000011_Node000003" class="edge">
<title>Node11&#45;&gt;Node3</title>
<g id="a_edge17_Node000011_Node000003"><a xlink:title=" ">
<path fill="none" stroke="#63b8ff" d="M1173.42,-131.46C1253.63,-126.57 1493.38,-110.42 1568,-88 1569,-87.7 1570,-87.37 1571.01,-87"/>
<polygon fill="#63b8ff" stroke="#63b8ff" points="1572.38,-90.22 1580.11,-82.97 1569.55,-83.82 1572.38,-90.22"/>
</a>
</g>
</g>
<!-- Node11&#45;&gt;Node4 -->
<g id="edge15_Node000011_Node000004" class="edge">
<title>Node11&#45;&gt;Node4</title>
<g id="a_edge15_Node000011_Node000004"><a xlink:title=" ">
<path fill="none" stroke="#63b8ff" d="M1173.27,-131.95C1260.43,-128.24 1539.41,-114.52 1625,-88 1625.81,-87.75 1626.62,-87.47 1627.43,-87.18"/>
<polygon fill="#63b8ff" stroke="#63b8ff" points="1628.69,-90.45 1636.27,-83.05 1625.73,-84.11 1628.69,-90.45"/>
</a>
</g>
</g>
<!-- Node11&#45;&gt;Node5 -->
<g id="edge12_Node000011_Node000005" class="edge">
<title>Node11&#45;&gt;Node5</title>
<g id="a_edge12_Node000011_Node000005"><a xlink:title=" ">
<path fill="none" stroke="#63b8ff" d="M1173.38,-131.38C1273.95,-125.1 1630.13,-102.1 1679,-88 1680,-87.71 1681.01,-87.39 1682.01,-87.03"/>
<polygon fill="#63b8ff" stroke="#63b8ff" points="1683.38,-90.26 1691.13,-83.04 1680.56,-83.85 1683.38,-90.26"/>
</a>
</g>
</g>
<!-- Node12 -->
<g id="Node000012" class="node">
<title>Node12</title>
<g id="a_Node000012"><a xlink:title=" ">
<polygon fill="#e0e0e0" stroke="#999999" points="841.25,-82 796.75,-82 796.75,-62 841.25,-62 841.25,-82"/>
<text text-anchor="middle" x="819" y="-70.4" font-family="SourceSans" font-size="8.00">cstddef</text>
</a>
</g>
</g>
<!-- Node11&#45;&gt;Node12 -->
<g id="edge11_Node000011_Node000012" class="edge">
<title>Node11&#45;&gt;Node12</title>
<g id="a_edge11_Node000011_Node000012"><a xlink:title=" ">
<path fill="none" stroke="#63b8ff" d="M1120.77,-131.1C1069.09,-126.88 950.8,-114.91 855,-88 853.21,-87.5 851.38,-86.93 849.56,-86.31"/>
<polygon fill="#63b8ff" stroke="#63b8ff" points="851.26,-83.22 840.67,-82.98 848.8,-89.77 851.26,-83.22"/>
</a>
</g>
</g>
<!-- Node13 -->
<g id="Node000013" class="node">
<title>Node13</title>
<g id="a_Node000013"><a xlink:title=" ">
<polygon fill="#e0e0e0" stroke="#999999" points="853.75,-20 800.25,-20 800.25,0 853.75,0 853.75,-20"/>
<text text-anchor="middle" x="827" y="-8.4" font-family="SourceSans" font-size="8.00">algorithm</text>
</a>
</g>
</g>
<!-- Node11&#45;&gt;Node13 -->
<g id="edge13_Node000011_Node000013" class="edge">
<title>Node11&#45;&gt;Node13</title>
<g id="a_edge13_Node000011_Node000013"><a xlink:title=" ">
<path fill="none" stroke="#63b8ff" d="M1120.87,-130.83C1063.24,-125.67 927.23,-111.32 888,-88 864.93,-74.29 847.18,-48.34 836.92,-30.38"/>
<polygon fill="#63b8ff" stroke="#63b8ff" points="840.08,-28.87 832.24,-21.74 833.93,-32.2 840.08,-28.87"/>
</a>
</g>
</g>
<!-- Node14 -->
<g id="Node000014" class="node">
<title>Node14</title>
<g id="a_Node000014"><a xlink:title=" ">
<polygon fill="#e0e0e0" stroke="#999999" points="1247.38,-82 1212.62,-82 1212.62,-62 1247.38,-62 1247.38,-82"/>
<text text-anchor="middle" x="1230" y="-70.4" font-family="SourceSans" font-size="8.00">array</text>
</a>
</g>
</g>
<!-- Node11&#45;&gt;Node14 -->
<g id="edge14_Node000011_Node000014" class="edge">
<title>Node11&#45;&gt;Node14</title>
<g id="a_edge14_Node000011_Node000014"><a xlink:title=" ">
<path fill="none" stroke="#63b8ff" d="M1159.97,-123.62C1172.76,-114.38 1192.56,-100.07 1207.85,-89.01"/>
<polygon fill="#63b8ff" stroke="#63b8ff" points="1209.84,-91.89 1215.9,-83.2 1205.74,-86.22 1209.84,-91.89"/>
</a>
</g>
</g>
<!-- Node15 -->
<g id="Node000015" class="node">
<title>Node15</title>
<g id="a_Node000015"><a xlink:title=" ">
<polygon fill="#e0e0e0" stroke="#999999" points="1304.25,-82 1265.75,-82 1265.75,-62 1304.25,-62 1304.25,-82"/>
<text text-anchor="middle" x="1285" y="-70.4" font-family="SourceSans" font-size="8.00">string</text>
</a>
</g>
</g>
<!-- Node11&#45;&gt;Node15 -->
<g id="edge16_Node000011_Node000015" class="edge">
<title>Node11&#45;&gt;Node15</title>
<g id="a_edge16_Node000011_Node000015"><a xlink:title=" ">
<path fill="none" stroke="#63b8ff" d="M1171.5,-123.58C1193.77,-114.86 1227.4,-101.27 1256,-88 1256.35,-87.84 1256.7,-87.68 1257.05,-87.51"/>
<polygon fill="#63b8ff" stroke="#63b8ff" points="1258.55,-90.67 1265.97,-83.11 1255.45,-84.39 1258.55,-90.67"/>
</a>
</g>
</g>
<!-- Node16 -->
<g id="Node000016" class="node">
<title>Node16</title>
<g id="a_Node000016"><a xlink:title=" ">
<polygon fill="#e0e0e0" stroke="#999999" points="1351.4,-82 1322.6,-82 1322.6,-62 1351.4,-62 1351.4,-82"/>
<text text-anchor="middle" x="1337" y="-70.4" font-family="SourceSans" font-size="8.00">set</text>
</a>
</g>
</g>
<!-- Node11&#45;&gt;Node16 -->
<g id="edge18_Node000011_Node000016" class="edge">
<title>Node11&#45;&gt;Node16</title>
<g id="a_edge18_Node000011_Node000016"><a xlink:title=" ">
<path fill="none" stroke="#63b8ff" d="M1173.39,-128.34C1206.83,-121.88 1265.8,-108.61 1313,-88 1313.11,-87.95 1313.22,-87.9 1313.33,-87.85"/>
<polygon fill="#63b8ff" stroke="#63b8ff" points="1314.93,-90.97 1322.09,-83.16 1311.62,-84.8 1314.93,-90.97"/>
</a>
</g>
</g>
<!-- Node17 -->
<g id="Node000017" class="node">
<title>Node17</title>
<g id="a_Node000017"><a xlink:title=" ">
<polygon fill="#e0e0e0" stroke="#999999" points="1446.75,-82 1369.25,-82 1369.25,-62 1446.75,-62 1446.75,-82"/>
<text text-anchor="middle" x="1408" y="-70.4" font-family="SourceSans" font-size="8.00">unordered_map</text>
</a>
</g>
</g>
<!-- Node11&#45;&gt;Node17 -->
<g id="edge19_Node000011_Node000017" class="edge">
<title>Node11&#45;&gt;Node17</title>
<g id="a_edge19_Node000011_Node000017"><a xlink:title=" ">
<path fill="none" stroke="#63b8ff" d="M1173.42,-128.25C1213.87,-120.8 1293.45,-105.39 1360,-88 1362.73,-87.29 1365.55,-86.51 1368.37,-85.71"/>
<polygon fill="#63b8ff" stroke="#63b8ff" points="1369.15,-89.12 1377.74,-82.92 1367.16,-82.41 1369.15,-89.12"/>
</a>
</g>
</g>
<!-- Node18 -->
<g id="Node000018" class="node">
<title>Node18</title>
<g id="a_Node000018"><a xlink:title=" ">
<polygon fill="#e0e0e0" stroke="#999999" points="46,-82 0,-82 0,-62 46,-62 46,-82"/>
<text text-anchor="middle" x="23" y="-70.4" font-family="SourceSans" font-size="8.00">sstream</text>
</a>
</g>
</g>
<!-- Node11&#45;&gt;Node18 -->
<g id="edge20_Node000011_Node000018" class="edge">
<title>Node11&#45;&gt;Node18</title>
<g id="a_edge20_Node000011_Node000018"><a xlink:title=" ">
<path fill="none" stroke="#63b8ff" d="M1120.58,-132.54C964.05,-129.71 161.39,-114.01 55,-88 53.4,-87.61 51.78,-87.13 50.17,-86.6"/>
<polygon fill="#63b8ff" stroke="#63b8ff" points="51.8,-83.48 41.21,-82.97 49.17,-89.97 51.8,-83.48"/>
</a>
</g>
</g>
<!-- Node19 -->
<g id="Node000019" class="node">
<title>Node19</title>
<g id="a_Node000019"><a xlink:href="a60-svg-color_8h.html" target="_top" xlink:title=" ">
<polygon fill="white" stroke="#666666" points="968.75,-82 897.25,-82 897.25,-62 968.75,-62 968.75,-82"/>
<text text-anchor="middle" x="933" y="-70.4" font-family="SourceSans" font-size="8.00">a60&#45;svg&#45;color.h</text>
</a>
</g>
</g>
<!-- Node11&#45;&gt;Node19 -->
<g id="edge21_Node000011_Node000019" class="edge">
<title>Node11&#45;&gt;Node19</title>
<g id="a_edge21_Node000011_Node000019"><a xlink:title=" ">
<path fill="none" stroke="#63b8ff" d="M1120.51,-126.48C1087.12,-118.15 1028.03,-102.98 978,-88 975.78,-87.34 973.51,-86.64 971.22,-85.92"/>
<polygon fill="#63b8ff" stroke="#63b8ff" points="972.55,-82.67 961.96,-82.94 970.41,-89.33 972.55,-82.67"/>
</a>
</g>
</g>
<!-- Node23 -->
<g id="Node000023" class="node">
<title>Node23</title>
<g id="a_Node000023"><a xlink:href="a60-svg-color-palette_8h.html" target="_top" xlink:title=" ">
<polygon fill="white" stroke="#666666" points="165.75,-82 64.25,-82 64.25,-62 165.75,-62 165.75,-82"/>
<text text-anchor="middle" x="115" y="-70.4" font-family="SourceSans" font-size="8.00">a60&#45;svg&#45;color&#45;palette.h</text>
</a>
</g>
</g>
<!-- Node11&#45;&gt;Node23 -->
<g id="edge26_Node000011_Node000023" class="edge">
<title>Node11&#45;&gt;Node23</title>
<g id="a_edge26_Node000011_Node000023"><a xlink:title=" ">
<path fill="none" stroke="#63b8ff" d="M1120.58,-132.5C984.78,-129.84 364.26,-116.29 174,-88 168.79,-87.22 163.36,-86.18 158.01,-85.01"/>
<polygon fill="#63b8ff" stroke="#63b8ff" points="159.23,-81.7 148.69,-82.8 157.62,-88.51 159.23,-81.7"/>
</a>
</g>
</g>
<!-- Node24 -->
<g id="Node000024" class="node">
<title>Node24</title>
<g id="a_Node000024"><a xlink:href="a60-svg-color-band_8h.html" target="_top" xlink:title=" ">
<polygon fill="white" stroke="#666666" points="1559.38,-82 1464.62,-82 1464.62,-62 1559.38,-62 1559.38,-82"/>
<text text-anchor="middle" x="1512" y="-70.4" font-family="SourceSans" font-size="8.00">a60&#45;svg&#45;color&#45;band.h</text>
</a>
</g>
</g>
<!-- Node11&#45;&gt;Node24 -->
<g id="edge27_Node000011_Node000024" class="edge">
<title>Node11&#45;&gt;Node24</title>
<g id="a_edge27_Node000011_Node000024"><a xlink:title=" ">
<path fill="none" stroke="#63b8ff" d="M1173.22,-130.23C1226.73,-124.35 1352.2,-109.38 1456,-88 1460.03,-87.17 1464.21,-86.22 1468.37,-85.21"/>
<polygon fill="#63b8ff" stroke="#63b8ff" points="1468.98,-88.67 1477.82,-82.82 1467.26,-81.88 1468.98,-88.67"/>
</a>
</g>
</g>
<!-- Node25 -->
<g id="Node000025" class="node">
<title>Node25</title>
<g id="a_Node000025"><a xlink:href="a60-svg-base-types_8h.html" target="_top" xlink:title=" ">
<polygon fill="white" stroke="#666666" points="1081.38,-82 986.62,-82 986.62,-62 1081.38,-62 1081.38,-82"/>
<text text-anchor="middle" x="1034" y="-70.4" font-family="SourceSans" font-size="8.00">a60&#45;svg&#45;base&#45;types.h</text>
</a>
</g>
</g>
<!-- Node11&#45;&gt;Node25 -->
<g id="edge29_Node000011_Node000025" class="edge">
<title>Node11&#45;&gt;Node25</title>
<g id="a_edge29_Node000011_Node000025"><a xlink:title=" ">
<path fill="none" stroke="#63b8ff" d="M1129.34,-123.62C1111.18,-113.98 1082.64,-98.83 1061.52,-87.61"/>
<polygon fill="#63b8ff" stroke="#63b8ff" points="1063.34,-84.62 1052.87,-83.02 1060.06,-90.8 1063.34,-84.62"/>
</a>
</g>
</g>
<!-- Node29 -->
<g id="Node000029" class="node">
<title>Node29</title>
<g id="a_Node000029"><a xlink:href="a60-svg-constants_8h.html" target="_top" xlink:title=" ">
<polygon fill="white" stroke="#666666" points="274.5,-82 183.5,-82 183.5,-62 274.5,-62 274.5,-82"/>
<text text-anchor="middle" x="229" y="-70.4" font-family="SourceSans" font-size="8.00">a60&#45;svg&#45;constants.h</text>
</a>
</g>
</g>
<!-- Node11&#45;&gt;Node29 -->
<g id="edge34_Node000011_Node000029" class="edge">
<title>Node11&#45;&gt;Node29</title>
<g id="a_edge34_Node000011_Node000029"><a xlink:title=" ">
<path fill="none" stroke="#63b8ff" d="M1120.67,-132.41C994.42,-129.44 450.34,-115.26 283,-88 278.59,-87.28 274.02,-86.34 269.5,-85.27"/>
<polygon fill="#63b8ff" stroke="#63b8ff" points="270.47,-81.91 259.91,-82.81 268.73,-88.69 270.47,-81.91"/>
</a>
</g>
</g>
<!-- Node30 -->
<g id="Node000030" class="node">
<title>Node30</title>
<g id="a_Node000030"><a xlink:href="a60-svg-elements_8h.html" target="_top" xlink:title=" ">
<polygon fill="white" stroke="#666666" points="381.75,-82 292.25,-82 292.25,-62 381.75,-62 381.75,-82"/>
<text text-anchor="middle" x="337" y="-70.4" font-family="SourceSans" font-size="8.00">a60&#45;svg&#45;elements.h</text>
</a>
</g>
</g>
<!-- Node11&#45;&gt;Node30 -->
<g id="edge35_Node000011_Node000030" class="edge">
<title>Node11&#45;&gt;Node30</title>
<g id="a_edge35_Node000011_Node000030"><a xlink:title=" ">
<path fill="none" stroke="#63b8ff" d="M1120.62,-133.48C1022.96,-134.85 672.99,-135.88 390,-88 385.84,-87.3 381.54,-86.39 377.28,-85.37"/>
<polygon fill="#63b8ff" stroke="#63b8ff" points="378.2,-82 367.64,-82.86 376.44,-88.77 378.2,-82"/>
</a>
</g>
</g>
<!-- Node31 -->
<g id="Node000031" class="node">
<title>Node31</title>
<g id="a_Node000031"><a xlink:href="a60-svg-elements-components_8h.html" target="_top" xlink:title=" ">
<polygon fill="white" stroke="#666666" points="538.5,-82 399.5,-82 399.5,-62 538.5,-62 538.5,-82"/>
<text text-anchor="middle" x="469" y="-70.4" font-family="SourceSans" font-size="8.00">a60&#45;svg&#45;elements&#45;components.h</text>
</a>
</g>
</g>
<!-- Node11&#45;&gt;Node31 -->
<g id="edge36_Node000011_Node000031" class="edge">
<title>Node11&#45;&gt;Node31</title>
<g id="a_edge36_Node000011_Node000031"><a xlink:title=" ">
<path fill="none" stroke="#63b8ff" d="M1120.62,-132.08C1036.65,-128.92 768.22,-117.08 548,-88 540.56,-87.02 532.76,-85.79 525.09,-84.45"/>
<polygon fill="#63b8ff" stroke="#63b8ff" points="525.93,-81.05 515.47,-82.72 524.69,-87.94 525.93,-81.05"/>
</a>
</g>
</g>
<!-- Node32 -->
<g id="Node000032" class="node">
<title>Node32</title>
<g id="a_Node000032"><a xlink:href="a60-svg-render-state_8h.html" target="_top" xlink:title=" ">
<polygon fill="white" stroke="#666666" points="657.38,-82 556.62,-82 556.62,-62 657.38,-62 657.38,-82"/>
<text text-anchor="middle" x="607" y="-70.4" font-family="SourceSans" font-size="8.00">a60&#45;svg&#45;render&#45;state.h</text>
</a>
</g>
</g>
<!-- Node11&#45;&gt;Node32 -->
<g id="edge37_Node000011_Node000032" class="edge">
<title>Node11&#45;&gt;Node32</title>
<g id="a_edge37_Node000011_Node000032"><a xlink:title=" ">
<path fill="none" stroke="#63b8ff" d="M1120.74,-131.98C1048,-128.85 837.9,-117.71 666,-88 661.31,-87.19 656.45,-86.2 651.62,-85.12"/>
<polygon fill="#63b8ff" stroke="#63b8ff" points="652.51,-81.74 641.97,-82.83 650.89,-88.55 652.51,-81.74"/>
</a>
</g>
</g>
<!-- Node33 -->
<g id="Node000033" class="node">
<title>Node33</title>
<g id="a_Node000033"><a xlink:href="a60-svg-composite-and-layer-basics_8h.html" target="_top" xlink:title=" ">
<polygon fill="white" stroke="#666666" points="778.5,-88 675.5,-88 675.5,-56 778.5,-56 778.5,-88"/>
<text text-anchor="start" x="683.5" y="-76.4" font-family="SourceSans" font-size="8.00">a60&#45;svg&#45;composite&#45;and</text>
<text text-anchor="middle" x="727" y="-64.4" font-family="SourceSans" font-size="8.00">&#45;layer&#45;basics.h</text>
</a>
</g>
</g>
<!-- Node11&#45;&gt;Node33 -->
<g id="edge39_Node000011_Node000033" class="edge">
<title>Node11&#45;&gt;Node33</title>
<g id="a_edge39_Node000011_Node000033"><a xlink:title=" ">
<path fill="none" stroke="#63b8ff" d="M1120.71,-130.76C1062.85,-125.61 919.94,-111.67 790.14,-88.25"/>
<polygon fill="#63b8ff" stroke="#63b8ff" points="790.78,-84.81 780.31,-86.45 789.52,-91.7 790.78,-84.81"/>
</a>
</g>
</g>
<!-- Node34 -->
<g id="Node000034" class="node">
<title>Node34</title>
<g id="a_Node000034"><a xlink:href="a60-svg-sequences_8h.html" target="_top" xlink:title=" ">
<polygon fill="white" stroke="#666666" points="1194.38,-82 1099.62,-82 1099.62,-62 1194.38,-62 1194.38,-82"/>
<text text-anchor="middle" x="1147" y="-70.4" font-family="SourceSans" font-size="8.00">a60&#45;svg&#45;sequences.h</text>
</a>
</g>
</g>
<!-- Node11&#45;&gt;Node34 -->
<g id="edge40_Node000011_Node000034" class="edge">
<title>Node11&#45;&gt;Node34</title>
<g id="a_edge40_Node000011_Node000034"><a xlink:title=" ">
<path fill="none" stroke="#63b8ff" d="M1141.94,-123.62C1140.33,-115.56 1139.87,-103.65 1140.57,-93.41"/>
<polygon fill="#63b8ff" stroke="#63b8ff" points="1144.02,-93.97 1141.8,-83.61 1137.08,-93.1 1144.02,-93.97"/>
</a>
</g>
</g>
<!-- Node19&#45;&gt;Node13 -->
<g id="edge23_Node000019_Node000013" class="edge">
<title>Node19&#45;&gt;Node13</title>
<g id="a_edge23_Node000019_Node000013"><a xlink:title=" ">
<path fill="none" stroke="#63b8ff" d="M916.44,-61.62C899.56,-52.07 873.12,-37.11 853.36,-25.92"/>
<polygon fill="#63b8ff" stroke="#63b8ff" points="855.19,-22.93 844.76,-21.05 851.74,-29.03 855.19,-22.93"/>
</a>
</g>
</g>
<!-- Node20 -->
<g id="Node000020" class="node">
<title>Node20</title>
<g id="a_Node000020"><a xlink:title=" ">
<polygon fill="#e0e0e0" stroke="#999999" points="970.62,-20 937.38,-20 937.38,0 970.62,0 970.62,-20"/>
<text text-anchor="middle" x="954" y="-8.4" font-family="SourceSans" font-size="8.00">map</text>
</a>
</g>
</g>
<!-- Node19&#45;&gt;Node20 -->
<g id="edge22_Node000019_Node000020" class="edge">
<title>Node19&#45;&gt;Node20</title>
<g id="a_edge22_Node000019_Node000020"><a xlink:title=" ">
<path fill="none" stroke="#63b8ff" d="M936.28,-61.62C939.16,-53.39 943.46,-41.13 947.09,-30.74"/>
<polygon fill="#63b8ff" stroke="#63b8ff" points="950.31,-32.14 950.31,-21.54 943.7,-29.82 950.31,-32.14"/>
</a>
</g>
</g>
<!-- Node21 -->
<g id="Node000021" class="node">
<title>Node21</title>
<g id="a_Node000021"><a xlink:title=" ">
<polygon fill="#e0e0e0" stroke="#999999" points="1099,-20 1053,-20 1053,0 1099,0 1099,-20"/>
<text text-anchor="middle" x="1076" y="-8.4" font-family="SourceSans" font-size="8.00">random</text>
</a>
</g>
</g>
<!-- Node19&#45;&gt;Node21 -->
<g id="edge24_Node000019_Node000021" class="edge">
<title>Node19&#45;&gt;Node21</title>
<g id="a_edge24_Node000019_Node000021"><a xlink:title=" ">
<path fill="none" stroke="#63b8ff" d="M955.34,-61.62C978.96,-51.72 1016.43,-35.99 1043.35,-24.7"/>
<polygon fill="#63b8ff" stroke="#63b8ff" points="1044.55,-27.99 1052.42,-20.89 1041.84,-21.54 1044.55,-27.99"/>
</a>
</g>
</g>
<!-- Node22 -->
<g id="Node000022" class="node">
<title>Node22</title>
<g id="a_Node000022"><a xlink:title=" ">
<polygon fill="#e0e0e0" stroke="#999999" points="919.75,-20 872.25,-20 872.25,0 919.75,0 919.75,-20"/>
<text text-anchor="middle" x="896" y="-8.4" font-family="SourceSans" font-size="8.00">iomanip</text>
</a>
</g>
</g>
<!-- Node19&#45;&gt;Node22 -->
<g id="edge25_Node000019_Node000022" class="edge">
<title>Node19&#45;&gt;Node22</title>
<g id="a_edge25_Node000019_Node000022"><a xlink:title=" ">
<path fill="none" stroke="#63b8ff" d="M927.22,-61.62C921.97,-53.12 914.09,-40.33 907.55,-29.74"/>
<polygon fill="#63b8ff" stroke="#63b8ff" points="910.64,-28.08 902.41,-21.4 904.68,-31.75 910.64,-28.08"/>
</a>
</g>
</g>
<!-- Node24&#45;&gt;Node10 -->
<g id="edge28_Node000024_Node000010" class="edge">
<title>Node24&#45;&gt;Node10</title>
<g id="a_edge28_Node000024_Node000010"><a xlink:title=" ">
<path fill="none" stroke="#63b8ff" d="M1531.06,-61.62C1550.85,-51.89 1582.04,-36.55 1604.91,-25.31"/>
<polygon fill="#63b8ff" stroke="#63b8ff" points="1606.28,-28.53 1613.71,-20.98 1603.2,-22.25 1606.28,-28.53"/>
</a>
</g>
</g>
<!-- Node25&#45;&gt;Node20 -->
<g id="edge30_Node000025_Node000020" class="edge">
<title>Node25&#45;&gt;Node20</title>
<g id="a_edge30_Node000025_Node000020"><a xlink:title=" ">
<path fill="none" stroke="#63b8ff" d="M1021.5,-61.62C1009.17,-52.38 990.09,-38.07 975.35,-27.01"/>
<polygon fill="#63b8ff" stroke="#63b8ff" points="977.72,-24.42 967.62,-21.22 973.52,-30.02 977.72,-24.42"/>
</a>
</g>
</g>
<!-- Node26 -->
<g id="Node000026" class="node">
<title>Node26</title>
<g id="a_Node000026"><a xlink:title=" ">
<polygon fill="#e0e0e0" stroke="#999999" points="1035.38,-20 988.62,-20 988.62,0 1035.38,0 1035.38,-20"/>
<text text-anchor="middle" x="1012" y="-8.4" font-family="SourceSans" font-size="8.00">ostream</text>
</a>
</g>
</g>
<!-- Node25&#45;&gt;Node26 -->
<g id="edge31_Node000025_Node000026" class="edge">
<title>Node25&#45;&gt;Node26</title>
<g id="a_edge31_Node000025_Node000026"><a xlink:title=" ">
<path fill="none" stroke="#63b8ff" d="M1030.56,-61.62C1027.54,-53.39 1023.05,-41.13 1019.24,-30.74"/>
<polygon fill="#63b8ff" stroke="#63b8ff" points="1022.59,-29.72 1015.86,-21.53 1016.02,-32.13 1022.59,-29.72"/>
</a>
</g>
</g>
<!-- Node27 -->
<g id="Node000027" class="node">
<title>Node27</title>
<g id="a_Node000027"><a xlink:title=" ">
<polygon fill="#e0e0e0" stroke="#999999" points="1222.62,-20 1177.38,-20 1177.38,0 1222.62,0 1222.62,-20"/>
<text text-anchor="middle" x="1200" y="-8.4" font-family="SourceSans" font-size="8.00">fstream</text>
</a>
</g>
</g>
<!-- Node25&#45;&gt;Node27 -->
<g id="edge32_Node000025_Node000027" class="edge">
<title>Node25&#45;&gt;Node27</title>
<g id="a_edge32_Node000025_Node000027"><a xlink:title=" ">
<path fill="none" stroke="#63b8ff" d="M1059.94,-61.62C1088.65,-51.25 1135.02,-34.49 1166.47,-23.12"/>
<polygon fill="#63b8ff" stroke="#63b8ff" points="1167.28,-26.55 1175.49,-19.86 1164.9,-19.96 1167.28,-26.55"/>
</a>
</g>
</g>
<!-- Node28 -->
<g id="Node000028" class="node">
<title>Node28</title>
<g id="a_Node000028"><a xlink:title=" ">
<polygon fill="#e0e0e0" stroke="#999999" points="1159.12,-20 1116.88,-20 1116.88,0 1159.12,0 1159.12,-20"/>
<text text-anchor="middle" x="1138" y="-8.4" font-family="SourceSans" font-size="8.00">cstdint</text>
</a>
</g>
</g>
<!-- Node25&#45;&gt;Node28 -->
<g id="edge33_Node000025_Node000028" class="edge">
<title>Node25&#45;&gt;Node28</title>
<g id="a_edge33_Node000025_Node000028"><a xlink:title=" ">
<path fill="none" stroke="#63b8ff" d="M1050.25,-61.62C1066.81,-52.07 1092.75,-37.11 1112.14,-25.92"/>
<polygon fill="#63b8ff" stroke="#63b8ff" points="1113.64,-29.09 1120.55,-21.07 1110.14,-23.03 1113.64,-29.09"/>
</a>
</g>
</g>
<!-- Node34&#45;&gt;Node11 -->
<g id="edge44_Node000034_Node000011" class="edge">
<title>Node34&#45;&gt;Node11</title>
<g id="a_edge44_Node000034_Node000011"><a xlink:title=" ">
<path fill="none" stroke="#63b8ff" d="M1152.01,-82.11C1153.65,-90.09 1154.13,-101.97 1153.46,-112.25"/>
<polygon fill="#63b8ff" stroke="#63b8ff" points="1149.99,-111.77 1152.25,-122.12 1156.94,-112.62 1149.99,-111.77"/>
</a>
</g>
</g>
<!-- Node34&#45;&gt;Node21 -->
<g id="edge42_Node000034_Node000021" class="edge">
<title>Node34&#45;&gt;Node21</title>
<g id="a_edge42_Node000034_Node000021"><a xlink:title=" ">
<path fill="none" stroke="#63b8ff" d="M1135.91,-61.62C1125.11,-52.5 1108.48,-38.45 1095.47,-27.46"/>
<polygon fill="#63b8ff" stroke="#63b8ff" points="1097.84,-24.87 1087.94,-21.09 1093.32,-30.22 1097.84,-24.87"/>
</a>
</g>
</g>
<!-- Node34&#45;&gt;Node27 -->
<g id="edge41_Node000034_Node000027" class="edge">
<title>Node34&#45;&gt;Node27</title>
<g id="a_edge41_Node000034_Node000027"><a xlink:title=" ">
<path fill="none" stroke="#63b8ff" d="M1155.28,-61.62C1163.11,-52.77 1175.04,-39.26 1184.61,-28.43"/>
<polygon fill="#63b8ff" stroke="#63b8ff" points="1186.95,-31.06 1190.95,-21.25 1181.7,-26.42 1186.95,-31.06"/>
</a>
</g>
</g>
<!-- Node35 -->
<g id="Node000035" class="node">
<title>Node35</title>
<g id="a_Node000035"><a xlink:title=" ">
<polygon fill="#e0e0e0" stroke="#999999" points="1289.12,-20 1240.88,-20 1240.88,0 1289.12,0 1289.12,-20"/>
<text text-anchor="middle" x="1265" y="-8.4" font-family="SourceSans" font-size="8.00">unistd.h</text>
</a>
</g>
</g>
<!-- Node34&#45;&gt;Node35 -->
<g id="edge43_Node000034_Node000035" class="edge">
<title>Node34&#45;&gt;Node35</title>
<g id="a_edge43_Node000034_Node000035"><a xlink:title=" ">
<path fill="none" stroke="#63b8ff" d="M1165.44,-61.62C1184.49,-51.94 1214.47,-36.69 1236.56,-25.46"/>
<polygon fill="#63b8ff" stroke="#63b8ff" points="1238.02,-28.65 1245.34,-21 1234.84,-22.41 1238.02,-28.65"/>
</a>
</g>
</g>
</g>
</svg>

<g id="navigator" transform="translate(0 0)" fill="#404254">
  <rect fill="#f2f5e9" fill-opacity="0.5" stroke="#606060" stroke-width=".5" x="0" y="0" width="60" height="60"/>
  <use id="zoomplus" xlink:href="#zoomPlus" x="17" y="9" onmousedown="handleZoom(evt,'in')"/>
  <use id="zoomminus" xlink:href="#zoomMin" x="42" y="9" onmousedown="handleZoom(evt,'out')"/>
  <use id="reset" xlink:href="#resetDef" x="30" y="36" onmousedown="handleReset()"/>
   <use id="arrowup" xlink:href="#arrowUp" x="0" y="0" onmousedown="handlePan(0,-1)"/>
  <use id="arrowright" xlink:href="#arrowRight" x="0" y="0" onmousedown="handlePan(1,0)"/>
  <use id="arrowdown" xlink:href="#arrowDown" x="0" y="0" onmousedown="handlePan(0,1)"/>
  <use id="arrowleft" xlink:href="#arrowLeft" x="0" y="0" onmousedown="handlePan(-1,0)"/>
</g>
<svg viewBox="0 0 15 15" width="100%" height="30px" preserveAspectRatio="xMaxYMin meet">
 <g id="arrow_out" transform="scale(0.3 0.3)">
  <a xlink:href="a60-svg-render-basics_8h__incl_org.svg" target="_base">
   <rect id="button" ry="5" rx="5" y="6" x="6" height="38" width="38"
        fill="#f2f5e9" fill-opacity="0.5" stroke="#606060" stroke-width="1.0"/>
   <path id="arrow"
     d="M 11.500037,31.436501 C 11.940474,20.09759 22.043105,11.32322 32.158766,21.979434 L 37.068811,17.246167 C 37.068811,17.246167 37.088388,32 37.088388,32 L 22.160133,31.978069 C 22.160133,31.978069 26.997745,27.140456 26.997745,27.140456 C 18.528582,18.264221 13.291696,25.230495 11.500037,31.436501 z"
     style="fill:#404040;"/>
  </a>
 </g>
</svg>

<style type='text/css'>
<![CDATA[
[data-mouse-over-selected='false'] { opacity: 0.7; }
[data-mouse-over-selected='true']  { opacity: 1.0; }
]]>
</style>
<script type="application/ecmascript"><![CDATA[
document.addEventListener('DOMContentLoaded', (event) => {
  highlightEdges();
  highlightAdjacentNodes();
});
]]></script>
</svg>
