<?xml version="1.0" encoding="UTF-8" standalone="no"?>
<!DOCTYPE svg PUBLIC "-//W3C//DTD SVG 1.1//EN"
 "http://www.w3.org/Graphics/SVG/1.1/DTD/svg11.dtd">
<!-- Generated by graphviz version 13.1.2 (20250808.2320)
 -->
<!-- Title: /home/bkoz/src/izzi/src/a60&#45;svg&#45;radial.h Pages: 1 -->
<!--zoomable 334 -->

<svg id="main" version="1.1" xmlns="http://www.w3.org/2000/svg" xmlns:xlink="http://www.w3.org/1999/xlink" xml:space="preserve" onload="init(evt)">

<style type="text/css"><![CDATA[
.node, .edge {opacity: 0.7;}
.node.selected, .edge.selected {opacity: 1;}
.edge:hover path { stroke: red; }
.edge:hover polygon { stroke: red; fill: red; }
]]></style>

<defs>
  <circle id="rim" cx="0" cy="0" r="7"/>
  <circle id="rim2" cx="0" cy="0" r="3.5"/>
  <g id="zoomPlus">
    <use xlink:href="#rim" fill="#404040"><set attributeName="fill" to="#808080" begin="zoomplus.mouseover" end="zoomplus.mouseout"/></use>
    <path d="M-4,0h8M0,-4v8" fill="none" stroke="white" stroke-width="1.5" pointer-events="none"/>
  </g>
  <g id="zoomMin">
    <use xlink:href="#rim" fill="#404040"><set attributeName="fill" to="#808080" begin="zoomminus.mouseover" end="zoomminus.mouseout"/></use>
    <path d="M-4,0h8" fill="none" stroke="white" stroke-width="1.5" pointer-events="none"/>
  </g>
  <g id="arrowUp" transform="translate(30 24)">
    <use xlink:href="#rim"/>
    <path pointer-events="none" fill="none" stroke="white" stroke-width="1.5" d="M0,-3.0v7 M-2.5,-0.5L0,-3.0L2.5,-0.5"/>
  </g>
  <g id="arrowRight" transform="rotate(90) translate(36 -43)">
    <use xlink:href="#rim"/>
    <path pointer-events="none" fill="none" stroke="white" stroke-width="1.5" d="M0,-3.0v7 M-2.5,-0.5L0,-3.0L2.5,-0.5"/>
  </g>
  <g id="arrowDown" transform="rotate(180) translate(-30 -48)">
    <use xlink:href="#rim"/>
    <path pointer-events="none" fill="none" stroke="white" stroke-width="1.5" d="M0,-3.0v7 M-2.5,-0.5L0,-3.0L2.5,-0.5"/>
  </g>
  <g id="arrowLeft" transform="rotate(270) translate(-36 17)">
    <use xlink:href="#rim"/>
    <path pointer-events="none" fill="none" stroke="white" stroke-width="1.5" d="M0,-3.0v7 M-2.5,-0.5L0,-3.0L2.5,-0.5"/>
  </g>
  <g id="resetDef">
    <use xlink:href="#rim2" fill="#404040"><set attributeName="fill" to="#808080" begin="reset.mouseover" end="reset.mouseout"/></use>
  </g>
</defs>
<script type="application/ecmascript">
var viewWidth = 2151;
var viewHeight = 334;
var sectionId = 'dynsection-0';
</script>
<script type="application/ecmascript" xlink:href="svg.min.js"/>
<svg id="graph" class="graph">
<g id="viewport">
<title>/home/bkoz/src/izzi/src/a60&#45;svg&#45;radial.h</title>
<!-- Node1 -->
<g id="Node000001" class="node">
<title>Node1</title>
<g id="a_Node000001"><a xlink:title=" ">
<polygon fill="#999999" stroke="#666666" points="344.18,-325.5 243.43,-325.5 243.43,-298 344.18,-298 344.18,-325.5"/>
<text xml:space="preserve" text-anchor="start" x="251.43" y="-313.9" font-family="SourceSans" font-size="8.00">/home/bkoz/src/izzi</text>
<text xml:space="preserve" text-anchor="middle" x="293.8" y="-304.15" font-family="SourceSans" font-size="8.00">/src/a60&#45;svg&#45;radial.h</text>
</a>
</g>
</g>
<!-- Node2 -->
<g id="Node000002" class="node">
<title>Node2</title>
<g id="a_Node000002"><a xlink:href="a60-svg-radial-base_8h.html" target="_top" xlink:title=" ">
<polygon fill="white" stroke="#666666" points="156.8,-257.12 50.8,-257.12 50.8,-239.38 156.8,-239.38 156.8,-257.12"/>
<text xml:space="preserve" text-anchor="middle" x="103.8" y="-245.53" font-family="SourceSans" font-size="8.00">a60&#45;svg&#45;radial&#45;base.h</text>
</a>
</g>
</g>
<!-- Node1&#45;&gt;Node2 -->
<g id="edge1_Node000001_Node000002" class="edge">
<title>Node1&#45;&gt;Node2</title>
<g id="a_edge1_Node000001_Node000002"><a xlink:title=" ">
<path fill="none" stroke="#63b8ff" d="M253.04,-297.56C219.58,-286.73 172.63,-271.53 140.37,-261.09"/>
<polygon fill="#63b8ff" stroke="#63b8ff" points="141.65,-257.82 131.06,-258.07 139.5,-264.48 141.65,-257.82"/>
</a>
</g>
</g>
<!-- Node41 -->
<g id="Node000041" class="node">
<title>Node41</title>
<g id="a_Node000041"><a xlink:href="a60-svg-radial-direction-arc-glyph_8h.html" target="_top" xlink:title=" ">
<polygon fill="white" stroke="#666666" points="288.55,-262 175.05,-262 175.05,-234.5 288.55,-234.5 288.55,-262"/>
<text xml:space="preserve" text-anchor="start" x="183.05" y="-250.4" font-family="SourceSans" font-size="8.00">a60&#45;svg&#45;radial&#45;direction</text>
<text xml:space="preserve" text-anchor="middle" x="231.8" y="-240.65" font-family="SourceSans" font-size="8.00">&#45;arc&#45;glyph.h</text>
</a>
</g>
</g>
<!-- Node1&#45;&gt;Node41 -->
<g id="edge56_Node000001_Node000041" class="edge">
<title>Node1&#45;&gt;Node41</title>
<g id="a_edge56_Node000001_Node000041"><a xlink:title=" ">
<path fill="none" stroke="#63b8ff" d="M280.65,-297.71C272.6,-289.72 262.1,-279.31 252.9,-270.18"/>
<polygon fill="#63b8ff" stroke="#63b8ff" points="255.57,-267.9 246,-263.34 250.64,-272.87 255.57,-267.9"/>
</a>
</g>
</g>
<!-- Node42 -->
<g id="Node000042" class="node">
<title>Node42</title>
<g id="a_Node000042"><a xlink:href="a60-svg-radial-arc_8h.html" target="_top" xlink:title=" ">
<polygon fill="white" stroke="#666666" points="405.05,-257.12 306.55,-257.12 306.55,-239.38 405.05,-239.38 405.05,-257.12"/>
<text xml:space="preserve" text-anchor="middle" x="355.8" y="-245.53" font-family="SourceSans" font-size="8.00">a60&#45;svg&#45;radial&#45;arc.h</text>
</a>
</g>
</g>
<!-- Node1&#45;&gt;Node42 -->
<g id="edge57_Node000001_Node000042" class="edge">
<title>Node1&#45;&gt;Node42</title>
<g id="a_edge57_Node000001_Node000042"><a xlink:title=" ">
<path fill="none" stroke="#63b8ff" d="M306.95,-297.71C316.41,-288.33 329.23,-275.61 339.36,-265.56"/>
<polygon fill="#63b8ff" stroke="#63b8ff" points="341.71,-268.15 346.35,-258.63 336.78,-263.18 341.71,-268.15"/>
</a>
</g>
</g>
<!-- Node43 -->
<g id="Node000043" class="node">
<title>Node43</title>
<g id="a_Node000043"><a xlink:href="a60-svg-radial-kusama_8h.html" target="_top" xlink:title=" ">
<polygon fill="white" stroke="#666666" points="540.8,-257.12 422.8,-257.12 422.8,-239.38 540.8,-239.38 540.8,-257.12"/>
<text xml:space="preserve" text-anchor="middle" x="481.8" y="-245.53" font-family="SourceSans" font-size="8.00">a60&#45;svg&#45;radial&#45;kusama.h</text>
</a>
</g>
</g>
<!-- Node1&#45;&gt;Node43 -->
<g id="edge58_Node000001_Node000043" class="edge">
<title>Node1&#45;&gt;Node43</title>
<g id="a_edge58_Node000001_Node000043"><a xlink:title=" ">
<path fill="none" stroke="#63b8ff" d="M334.13,-297.56C367.24,-286.73 413.69,-271.53 445.61,-261.09"/>
<polygon fill="#63b8ff" stroke="#63b8ff" points="446.4,-264.51 454.81,-258.08 444.22,-257.86 446.4,-264.51"/>
</a>
</g>
</g>
<!-- Node3 -->
<g id="Node000003" class="node">
<title>Node3</title>
<g id="a_Node000003"><a xlink:title=" ">
<polygon fill="#e0e0e0" stroke="#999999" points="179.2,-139.88 150.4,-139.88 150.4,-122.12 179.2,-122.12 179.2,-139.88"/>
<text xml:space="preserve" text-anchor="middle" x="164.8" y="-128.28" font-family="SourceSans" font-size="8.00">set</text>
</a>
</g>
</g>
<!-- Node2&#45;&gt;Node3 -->
<g id="edge2_Node000002_Node000003" class="edge">
<title>Node2&#45;&gt;Node3</title>
<g id="a_edge2_Node000002_Node000003"><a xlink:title=" ">
<path fill="none" stroke="#63b8ff" d="M110.17,-238.94C117.24,-229.48 128.71,-213.41 136.8,-198.5 145.3,-182.83 153,-164.03 158.17,-150.42"/>
<polygon fill="#63b8ff" stroke="#63b8ff" points="161.31,-152.03 161.48,-141.43 154.74,-149.6 161.31,-152.03"/>
</a>
</g>
</g>
<!-- Node4 -->
<g id="Node000004" class="node">
<title>Node4</title>
<g id="a_Node000004"><a xlink:title=" ">
<polygon fill="#e0e0e0" stroke="#999999" points="56.68,-198.5 12.93,-198.5 12.93,-180.75 56.68,-180.75 56.68,-198.5"/>
<text xml:space="preserve" text-anchor="middle" x="34.8" y="-186.9" font-family="SourceSans" font-size="8.00">chrono</text>
</a>
</g>
</g>
<!-- Node2&#45;&gt;Node4 -->
<g id="edge3_Node000002_Node000004" class="edge">
<title>Node2&#45;&gt;Node4</title>
<g id="a_edge3_Node000002_Node000004"><a xlink:title=" ">
<path fill="none" stroke="#63b8ff" d="M93.62,-238.89C83,-230.18 66.13,-216.34 53.17,-205.7"/>
<polygon fill="#63b8ff" stroke="#63b8ff" points="55.7,-203.25 45.75,-199.61 51.26,-208.66 55.7,-203.25"/>
</a>
</g>
</g>
<!-- Node5 -->
<g id="Node000005" class="node">
<title>Node5</title>
<g id="a_Node000005"><a xlink:title=" ">
<polygon fill="#e0e0e0" stroke="#999999" points="1661.43,-17.75 1610.18,-17.75 1610.18,0 1661.43,0 1661.43,-17.75"/>
<text xml:space="preserve" text-anchor="middle" x="1635.8" y="-6.15" font-family="SourceSans" font-size="8.00">iostream</text>
</a>
</g>
</g>
<!-- Node2&#45;&gt;Node5 -->
<g id="edge4_Node000002_Node000005" class="edge">
<title>Node2&#45;&gt;Node5</title>
<g id="a_edge4_Node000002_Node000005"><a xlink:title=" ">
<path fill="none" stroke="#63b8ff" d="M102.18,-239.01C98.32,-216.97 90.82,-155.72 117.8,-117.25 147.39,-75.06 165.66,-69.24 214.8,-53.75 350.04,-11.14 1387.41,-9.67 1598.42,-9.82"/>
<polygon fill="#63b8ff" stroke="#63b8ff" points="1598.24,-13.32 1608.24,-9.83 1598.25,-6.32 1598.24,-13.32"/>
</a>
</g>
</g>
<!-- Node6 -->
<g id="Node000006" class="node">
<title>Node6</title>
<g id="a_Node000006"><a xlink:title=" ">
<polygon fill="#e0e0e0" stroke="#999999" points="291.3,-76.38 242.3,-76.38 242.3,-58.62 291.3,-58.62 291.3,-76.38"/>
<text xml:space="preserve" text-anchor="middle" x="266.8" y="-64.78" font-family="SourceSans" font-size="8.00">iomanip</text>
</a>
</g>
</g>
<!-- Node2&#45;&gt;Node6 -->
<g id="edge5_Node000002_Node000006" class="edge">
<title>Node2&#45;&gt;Node6</title>
<g id="a_edge5_Node000002_Node000006"><a xlink:title=" ">
<path fill="none" stroke="#63b8ff" d="M66.87,-238.93C31.94,-229.1 -12.84,-210.26 3.8,-180.75 49.64,-99.47 169.95,-77.03 230.66,-70.85"/>
<polygon fill="#63b8ff" stroke="#63b8ff" points="230.82,-74.35 240.46,-69.95 230.19,-67.38 230.82,-74.35"/>
</a>
</g>
</g>
<!-- Node7 -->
<g id="Node000007" class="node">
<title>Node7</title>
<g id="a_Node000007"><a xlink:title=" ">
<polygon fill="#e0e0e0" stroke="#999999" points="370.3,-76.38 315.3,-76.38 315.3,-58.62 370.3,-58.62 370.3,-76.38"/>
<text xml:space="preserve" text-anchor="middle" x="342.8" y="-64.78" font-family="SourceSans" font-size="8.00">algorithm</text>
</a>
</g>
</g>
<!-- Node2&#45;&gt;Node7 -->
<g id="edge6_Node000002_Node000007" class="edge">
<title>Node2&#45;&gt;Node7</title>
<g id="a_edge6_Node000002_Node000007"><a xlink:title=" ">
<path fill="none" stroke="#63b8ff" d="M103.55,-239.12C103.33,-216.27 106.02,-150.94 141.8,-117.25 194.24,-67.88 230.13,-99.5 299.8,-81.25 301.4,-80.83 303.03,-80.39 304.68,-79.94"/>
<polygon fill="#63b8ff" stroke="#63b8ff" points="305.45,-83.36 314.12,-77.27 303.55,-76.63 305.45,-83.36"/>
</a>
</g>
</g>
<!-- Node8 -->
<g id="Node000008" class="node">
<title>Node8</title>
<g id="a_Node000008"><a xlink:href="a60-svg_8h.html" target="_top" xlink:title=" ">
<polygon fill="white" stroke="#666666" points="1299.05,-198.5 1242.55,-198.5 1242.55,-180.75 1299.05,-180.75 1299.05,-198.5"/>
<text xml:space="preserve" text-anchor="middle" x="1270.8" y="-186.9" font-family="SourceSans" font-size="8.00">a60&#45;svg.h</text>
</a>
</g>
</g>
<!-- Node2&#45;&gt;Node8 -->
<g id="edge7_Node000002_Node000008" class="edge">
<title>Node2&#45;&gt;Node8</title>
<g id="a_edge7_Node000002_Node000008"><a xlink:title=" ">
<path fill="none" stroke="#63b8ff" d="M139.37,-238.9C147.98,-237.17 157.18,-235.55 165.8,-234.5 378.31,-208.61 1059.14,-194.53 1231.07,-191.33"/>
<polygon fill="#63b8ff" stroke="#63b8ff" points="1230.88,-194.84 1240.82,-191.15 1230.75,-187.84 1230.88,-194.84"/>
</a>
</g>
</g>
<!-- Node8&#45;&gt;Node3 -->
<g id="edge15_Node000008_Node000003" class="edge">
<title>Node8&#45;&gt;Node3</title>
<g id="a_edge15_Node000008_Node000003"><a xlink:title=" ">
<path fill="none" stroke="#63b8ff" d="M1242.16,-188.12C1081.67,-185.19 297.4,-169.68 192.8,-144.75 191.96,-144.55 191.12,-144.33 190.27,-144.08"/>
<polygon fill="#63b8ff" stroke="#63b8ff" points="191.54,-140.81 180.95,-140.53 189.05,-147.36 191.54,-140.81"/>
</a>
</g>
</g>
<!-- Node8&#45;&gt;Node7 -->
<g id="edge10_Node000008_Node000007" class="edge">
<title>Node8&#45;&gt;Node7</title>
<g id="a_edge10_Node000008_Node000007"><a xlink:title=" ">
<path fill="none" stroke="#63b8ff" d="M1242.3,-188.2C1091.97,-185.83 396.64,-173.35 361.8,-144.75 345.34,-131.24 341.89,-105.85 341.7,-88.1"/>
<polygon fill="#63b8ff" stroke="#63b8ff" points="345.2,-88.4 341.96,-78.31 338.2,-88.21 345.2,-88.4"/>
</a>
</g>
</g>
<!-- Node9 -->
<g id="Node000009" class="node">
<title>Node9</title>
<g id="a_Node000009"><a xlink:title=" ">
<polygon fill="#e0e0e0" stroke="#999999" points="1876.18,-139.88 1829.43,-139.88 1829.43,-122.12 1876.18,-122.12 1876.18,-139.88"/>
<text xml:space="preserve" text-anchor="middle" x="1852.8" y="-128.28" font-family="SourceSans" font-size="8.00">cstddef</text>
</a>
</g>
</g>
<!-- Node8&#45;&gt;Node9 -->
<g id="edge8_Node000008_Node000009" class="edge">
<title>Node8&#45;&gt;Node9</title>
<g id="a_edge8_Node000008_Node000009"><a xlink:title=" ">
<path fill="none" stroke="#63b8ff" d="M1299.51,-187.47C1397.77,-183.34 1720.06,-168.27 1820.8,-144.75 1821.97,-144.48 1823.14,-144.17 1824.33,-143.84"/>
<polygon fill="#63b8ff" stroke="#63b8ff" points="1825.06,-147.28 1833.4,-140.74 1822.8,-140.66 1825.06,-147.28"/>
</a>
</g>
</g>
<!-- Node10 -->
<g id="Node000010" class="node">
<title>Node10</title>
<g id="a_Node000010"><a xlink:title=" ">
<polygon fill="#e0e0e0" stroke="#999999" points="2018.55,-17.75 1977.05,-17.75 1977.05,0 2018.55,0 2018.55,-17.75"/>
<text xml:space="preserve" text-anchor="middle" x="1997.8" y="-6.15" font-family="SourceSans" font-size="8.00">cmath</text>
</a>
</g>
</g>
<!-- Node8&#45;&gt;Node10 -->
<g id="edge9_Node000008_Node000010" class="edge">
<title>Node8&#45;&gt;Node10</title>
<g id="a_edge9_Node000008_Node000010"><a xlink:title=" ">
<path fill="none" stroke="#63b8ff" d="M1299.27,-188.94C1425.2,-190.05 1928.23,-191.52 1978.8,-144.75 2010.56,-115.38 2006.63,-59.11 2001.8,-29.39"/>
<polygon fill="#63b8ff" stroke="#63b8ff" points="2005.25,-28.79 1999.99,-19.6 1998.37,-30.07 2005.25,-28.79"/>
</a>
</g>
</g>
<!-- Node11 -->
<g id="Node000011" class="node">
<title>Node11</title>
<g id="a_Node000011"><a xlink:title=" ">
<polygon fill="#e0e0e0" stroke="#999999" points="1969.3,-139.88 1932.3,-139.88 1932.3,-122.12 1969.3,-122.12 1969.3,-139.88"/>
<text xml:space="preserve" text-anchor="middle" x="1950.8" y="-128.28" font-family="SourceSans" font-size="8.00">array</text>
</a>
</g>
</g>
<!-- Node8&#45;&gt;Node11 -->
<g id="edge11_Node000008_Node000011" class="edge">
<title>Node8&#45;&gt;Node11</title>
<g id="a_edge11_Node000008_Node000011"><a xlink:title=" ">
<path fill="none" stroke="#63b8ff" d="M1299.52,-187.82C1408.63,-184.6 1797.31,-171.47 1917.8,-144.75 1919,-144.48 1920.21,-144.18 1921.43,-143.85"/>
<polygon fill="#63b8ff" stroke="#63b8ff" points="1922.42,-147.21 1930.82,-140.76 1920.23,-140.56 1922.42,-147.21"/>
</a>
</g>
</g>
<!-- Node12 -->
<g id="Node000012" class="node">
<title>Node12</title>
<g id="a_Node000012"><a xlink:title=" ">
<polygon fill="#e0e0e0" stroke="#999999" points="2073.3,-17.75 2036.3,-17.75 2036.3,0 2073.3,0 2073.3,-17.75"/>
<text xml:space="preserve" text-anchor="middle" x="2054.8" y="-6.15" font-family="SourceSans" font-size="8.00">tuple</text>
</a>
</g>
</g>
<!-- Node8&#45;&gt;Node12 -->
<g id="edge12_Node000008_Node000012" class="edge">
<title>Node8&#45;&gt;Node12</title>
<g id="a_edge12_Node000008_Node000012"><a xlink:title=" ">
<path fill="none" stroke="#63b8ff" d="M1299.51,-188.7C1427.73,-188.8 1944.19,-186.59 2001.8,-144.75 2039.38,-117.45 2050.32,-59.38 2053.5,-29.12"/>
<polygon fill="#63b8ff" stroke="#63b8ff" points="2056.96,-29.79 2054.32,-19.53 2049.98,-29.2 2056.96,-29.79"/>
</a>
</g>
</g>
<!-- Node13 -->
<g id="Node000013" class="node">
<title>Node13</title>
<g id="a_Node000013"><a xlink:title=" ">
<polygon fill="#e0e0e0" stroke="#999999" points="2103.43,-139.88 2064.18,-139.88 2064.18,-122.12 2103.43,-122.12 2103.43,-139.88"/>
<text xml:space="preserve" text-anchor="middle" x="2083.8" y="-128.28" font-family="SourceSans" font-size="8.00">string</text>
</a>
</g>
</g>
<!-- Node8&#45;&gt;Node13 -->
<g id="edge13_Node000008_Node000013" class="edge">
<title>Node8&#45;&gt;Node13</title>
<g id="a_edge13_Node000008_Node000013"><a xlink:title=" ">
<path fill="none" stroke="#63b8ff" d="M1299.34,-188.17C1421.67,-186.04 1902.17,-175.83 2049.8,-144.75 2051.19,-144.46 2052.6,-144.12 2054.01,-143.74"/>
<polygon fill="#63b8ff" stroke="#63b8ff" points="2054.79,-147.17 2063.24,-140.78 2052.65,-140.5 2054.79,-147.17"/>
</a>
</g>
</g>
<!-- Node14 -->
<g id="Node000014" class="node">
<title>Node14</title>
<g id="a_Node000014"><a xlink:title=" ">
<polygon fill="#e0e0e0" stroke="#999999" points="2142.55,-17.75 2101.05,-17.75 2101.05,0 2142.55,0 2142.55,-17.75"/>
<text xml:space="preserve" text-anchor="middle" x="2121.8" y="-6.15" font-family="SourceSans" font-size="8.00">vector</text>
</a>
</g>
</g>
<!-- Node8&#45;&gt;Node14 -->
<g id="edge14_Node000008_Node000014" class="edge">
<title>Node8&#45;&gt;Node14</title>
<g id="a_edge14_Node000008_Node000014"><a xlink:title=" ">
<path fill="none" stroke="#63b8ff" d="M1299.15,-188.19C1442.65,-185.88 2083.19,-173.94 2112.8,-144.75 2143.51,-114.48 2134.77,-58.18 2127.39,-28.81"/>
<polygon fill="#63b8ff" stroke="#63b8ff" points="2130.86,-28.2 2124.83,-19.48 2124.11,-30.05 2130.86,-28.2"/>
</a>
</g>
</g>
<!-- Node15 -->
<g id="Node000015" class="node">
<title>Node15</title>
<g id="a_Node000015"><a xlink:title=" ">
<polygon fill="#e0e0e0" stroke="#999999" points="314.68,-139.88 234.93,-139.88 234.93,-122.12 314.68,-122.12 314.68,-139.88"/>
<text xml:space="preserve" text-anchor="middle" x="274.8" y="-128.28" font-family="SourceSans" font-size="8.00">unordered_map</text>
</a>
</g>
</g>
<!-- Node8&#45;&gt;Node15 -->
<g id="edge16_Node000008_Node000015" class="edge">
<title>Node8&#45;&gt;Node15</title>
<g id="a_edge16_Node000008_Node000015"><a xlink:title=" ">
<path fill="none" stroke="#63b8ff" d="M1242.12,-188.01C1104.58,-184.93 511.81,-170.39 328.8,-144.75 324.91,-144.21 320.9,-143.51 316.89,-142.73"/>
<polygon fill="#63b8ff" stroke="#63b8ff" points="317.73,-139.33 307.22,-140.66 316.27,-146.17 317.73,-139.33"/>
</a>
</g>
</g>
<!-- Node16 -->
<g id="Node000016" class="node">
<title>Node16</title>
<g id="a_Node000016"><a xlink:title=" ">
<polygon fill="#e0e0e0" stroke="#999999" points="1754.05,-17.75 1679.55,-17.75 1679.55,0 1754.05,0 1754.05,-17.75"/>
<text xml:space="preserve" text-anchor="middle" x="1716.8" y="-6.15" font-family="SourceSans" font-size="8.00">unordered_set</text>
</a>
</g>
</g>
<!-- Node8&#45;&gt;Node16 -->
<g id="edge17_Node000008_Node000016" class="edge">
<title>Node8&#45;&gt;Node16</title>
<g id="a_edge17_Node000008_Node000016"><a xlink:title=" ">
<path fill="none" stroke="#63b8ff" d="M1242.31,-188.53C1078.43,-187.83 261.97,-182.47 225.8,-144.75 211.73,-130.07 210.78,-73.98 232.8,-53.75 289.87,-1.32 1513.71,-24.02 1667.95,-17.47"/>
<polygon fill="#63b8ff" stroke="#63b8ff" points="1667.93,-20.98 1677.69,-16.86 1667.5,-13.99 1667.93,-20.98"/>
</a>
</g>
</g>
<!-- Node17 -->
<g id="Node000017" class="node">
<title>Node17</title>
<g id="a_Node000017"><a xlink:title=" ">
<polygon fill="#e0e0e0" stroke="#999999" points="418.93,-139.88 370.68,-139.88 370.68,-122.12 418.93,-122.12 418.93,-139.88"/>
<text xml:space="preserve" text-anchor="middle" x="394.8" y="-128.28" font-family="SourceSans" font-size="8.00">sstream</text>
</a>
</g>
</g>
<!-- Node8&#45;&gt;Node17 -->
<g id="edge18_Node000008_Node000017" class="edge">
<title>Node8&#45;&gt;Node17</title>
<g id="a_edge18_Node000008_Node000017"><a xlink:title=" ">
<path fill="none" stroke="#63b8ff" d="M1242.1,-188.35C1113.35,-186.91 588.32,-179.02 427.8,-144.75 426.6,-144.49 425.38,-144.2 424.17,-143.87"/>
<polygon fill="#63b8ff" stroke="#63b8ff" points="425.36,-140.58 414.77,-140.81 423.19,-147.24 425.36,-140.58"/>
</a>
</g>
</g>
<!-- Node18 -->
<g id="Node000018" class="node">
<title>Node18</title>
<g id="a_Node000018"><a xlink:href="a60-svg-color_8h.html" target="_top" xlink:title=" ">
<polygon fill="white" stroke="#666666" points="646.68,-139.88 566.93,-139.88 566.93,-122.12 646.68,-122.12 646.68,-139.88"/>
<text xml:space="preserve" text-anchor="middle" x="606.8" y="-128.28" font-family="SourceSans" font-size="8.00">a60&#45;svg&#45;color.h</text>
</a>
</g>
</g>
<!-- Node8&#45;&gt;Node18 -->
<g id="edge19_Node000008_Node000018" class="edge">
<title>Node8&#45;&gt;Node18</title>
<g id="a_edge19_Node000008_Node000018"><a xlink:title=" ">
<path fill="none" stroke="#63b8ff" d="M1242.08,-188.44C1153.89,-187.48 879.46,-181.51 655.8,-144.75 652.77,-144.25 649.66,-143.65 646.55,-142.99"/>
<polygon fill="#63b8ff" stroke="#63b8ff" points="647.38,-139.59 636.85,-140.72 645.78,-146.41 647.38,-139.59"/>
</a>
</g>
</g>
<!-- Node21 -->
<g id="Node000021" class="node">
<title>Node21</title>
<g id="a_Node000021"><a xlink:href="a60-svg-color-palette_8h.html" target="_top" xlink:title=" ">
<polygon fill="white" stroke="#666666" points="548.8,-139.88 436.8,-139.88 436.8,-122.12 548.8,-122.12 548.8,-139.88"/>
<text xml:space="preserve" text-anchor="middle" x="492.8" y="-128.28" font-family="SourceSans" font-size="8.00">a60&#45;svg&#45;color&#45;palette.h</text>
</a>
</g>
</g>
<!-- Node8&#45;&gt;Node21 -->
<g id="edge24_Node000008_Node000021" class="edge">
<title>Node8&#45;&gt;Node21</title>
<g id="a_edge24_Node000008_Node000021"><a xlink:title=" ">
<path fill="none" stroke="#63b8ff" d="M1242.14,-188.22C1145.42,-186.56 822.27,-178.67 557.8,-144.75 552.59,-144.08 547.16,-143.24 541.77,-142.32"/>
<polygon fill="#63b8ff" stroke="#63b8ff" points="542.77,-138.95 532.3,-140.6 541.52,-145.83 542.77,-138.95"/>
</a>
</g>
</g>
<!-- Node22 -->
<g id="Node000022" class="node">
<title>Node22</title>
<g id="a_Node000022"><a xlink:href="a60-svg-color-band_8h.html" target="_top" xlink:title=" ">
<polygon fill="white" stroke="#666666" points="1711.68,-76.38 1607.93,-76.38 1607.93,-58.62 1711.68,-58.62 1711.68,-76.38"/>
<text xml:space="preserve" text-anchor="middle" x="1659.8" y="-64.78" font-family="SourceSans" font-size="8.00">a60&#45;svg&#45;color&#45;band.h</text>
</a>
</g>
</g>
<!-- Node8&#45;&gt;Node22 -->
<g id="edge25_Node000008_Node000022" class="edge">
<title>Node8&#45;&gt;Node22</title>
<g id="a_edge25_Node000008_Node000022"><a xlink:title=" ">
<path fill="none" stroke="#63b8ff" d="M1299.42,-187.29C1383.23,-183.1 1623.82,-169.05 1648.8,-144.75 1663.7,-130.26 1664.56,-105.28 1662.94,-87.87"/>
<polygon fill="#63b8ff" stroke="#63b8ff" points="1666.43,-87.52 1661.65,-78.07 1659.49,-88.44 1666.43,-87.52"/>
</a>
</g>
</g>
<!-- Node23 -->
<g id="Node000023" class="node">
<title>Node23</title>
<g id="a_Node000023"><a xlink:href="izzi-points_8h.html" target="_top" xlink:title=" ">
<polygon fill="white" stroke="#666666" points="730.55,-139.88 665.05,-139.88 665.05,-122.12 730.55,-122.12 730.55,-139.88"/>
<text xml:space="preserve" text-anchor="middle" x="697.8" y="-128.28" font-family="SourceSans" font-size="8.00">izzi&#45;points.h</text>
</a>
</g>
</g>
<!-- Node8&#45;&gt;Node23 -->
<g id="edge27_Node000008_Node000023" class="edge">
<title>Node8&#45;&gt;Node23</title>
<g id="a_edge27_Node000008_Node000023"><a xlink:title=" ">
<path fill="none" stroke="#63b8ff" d="M1242.31,-188.39C1162.33,-187.27 929.25,-180.91 739.8,-144.75 737.52,-144.31 735.19,-143.8 732.85,-143.24"/>
<polygon fill="#63b8ff" stroke="#63b8ff" points="734.04,-139.93 723.47,-140.7 732.21,-146.69 734.04,-139.93"/>
</a>
</g>
</g>
<!-- Node24 -->
<g id="Node000024" class="node">
<title>Node24</title>
<g id="a_Node000024"><a xlink:href="a60-svg-base-types_8h.html" target="_top" xlink:title=" ">
<polygon fill="white" stroke="#666666" points="1386.43,-139.88 1281.18,-139.88 1281.18,-122.12 1386.43,-122.12 1386.43,-139.88"/>
<text xml:space="preserve" text-anchor="middle" x="1333.8" y="-128.28" font-family="SourceSans" font-size="8.00">a60&#45;svg&#45;base&#45;types.h</text>
</a>
</g>
</g>
<!-- Node8&#45;&gt;Node24 -->
<g id="edge28_Node000008_Node000024" class="edge">
<title>Node8&#45;&gt;Node24</title>
<g id="a_edge28_Node000008_Node000024"><a xlink:title=" ">
<path fill="none" stroke="#63b8ff" d="M1280.1,-180.27C1289.6,-171.73 1304.6,-158.25 1316.33,-147.7"/>
<polygon fill="#63b8ff" stroke="#63b8ff" points="1318.65,-150.32 1323.75,-141.03 1313.97,-145.12 1318.65,-150.32"/>
</a>
</g>
</g>
<!-- Node28 -->
<g id="Node000028" class="node">
<title>Node28</title>
<g id="a_Node000028"><a xlink:href="a60-svg-constants_8h.html" target="_top" xlink:title=" ">
<polygon fill="white" stroke="#666666" points="848.8,-139.88 748.8,-139.88 748.8,-122.12 848.8,-122.12 848.8,-139.88"/>
<text xml:space="preserve" text-anchor="middle" x="798.8" y="-128.28" font-family="SourceSans" font-size="8.00">a60&#45;svg&#45;constants.h</text>
</a>
</g>
</g>
<!-- Node8&#45;&gt;Node28 -->
<g id="edge33_Node000008_Node000028" class="edge">
<title>Node8&#45;&gt;Node28</title>
<g id="a_edge33_Node000008_Node000028"><a xlink:title=" ">
<path fill="none" stroke="#63b8ff" d="M1242.12,-186.64C1174.75,-181.75 1001.25,-167.8 857.8,-144.75 853.91,-144.12 849.88,-143.41 845.85,-142.64"/>
<polygon fill="#63b8ff" stroke="#63b8ff" points="846.54,-139.21 836.05,-140.67 845.16,-146.07 846.54,-139.21"/>
</a>
</g>
</g>
<!-- Node29 -->
<g id="Node000029" class="node">
<title>Node29</title>
<g id="a_Node000029"><a xlink:href="a60-svg-elements_8h.html" target="_top" xlink:title=" ">
<polygon fill="white" stroke="#666666" points="964.68,-139.88 866.93,-139.88 866.93,-122.12 964.68,-122.12 964.68,-139.88"/>
<text xml:space="preserve" text-anchor="middle" x="915.8" y="-128.28" font-family="SourceSans" font-size="8.00">a60&#45;svg&#45;elements.h</text>
</a>
</g>
</g>
<!-- Node8&#45;&gt;Node29 -->
<g id="edge34_Node000008_Node000029" class="edge">
<title>Node8&#45;&gt;Node29</title>
<g id="a_edge34_Node000008_Node000029"><a xlink:title=" ">
<path fill="none" stroke="#63b8ff" d="M1242.44,-185.1C1189.46,-178.38 1071.97,-162.77 973.8,-144.75 970.25,-144.1 966.59,-143.39 962.91,-142.64"/>
<polygon fill="#63b8ff" stroke="#63b8ff" points="963.91,-139.28 953.4,-140.66 962.48,-146.13 963.91,-139.28"/>
</a>
</g>
</g>
<!-- Node30 -->
<g id="Node000030" class="node">
<title>Node30</title>
<g id="a_Node000030"><a xlink:href="a60-svg-elements-components_8h.html" target="_top" xlink:title=" ">
<polygon fill="white" stroke="#666666" points="1134.68,-139.88 982.93,-139.88 982.93,-122.12 1134.68,-122.12 1134.68,-139.88"/>
<text xml:space="preserve" text-anchor="middle" x="1058.8" y="-128.28" font-family="SourceSans" font-size="8.00">a60&#45;svg&#45;elements&#45;components.h</text>
</a>
</g>
</g>
<!-- Node8&#45;&gt;Node30 -->
<g id="edge35_Node000008_Node000030" class="edge">
<title>Node8&#45;&gt;Node30</title>
<g id="a_edge35_Node000008_Node000030"><a xlink:title=" ">
<path fill="none" stroke="#63b8ff" d="M1242.21,-180.99C1205.87,-171.28 1142.84,-154.45 1100.98,-143.27"/>
<polygon fill="#63b8ff" stroke="#63b8ff" points="1102.06,-139.93 1091.5,-140.73 1100.25,-146.7 1102.06,-139.93"/>
</a>
</g>
</g>
<!-- Node31 -->
<g id="Node000031" class="node">
<title>Node31</title>
<g id="a_Node000031"><a xlink:href="a60-svg-render-state_8h.html" target="_top" xlink:title=" ">
<polygon fill="white" stroke="#666666" points="1262.68,-139.88 1152.93,-139.88 1152.93,-122.12 1262.68,-122.12 1262.68,-139.88"/>
<text xml:space="preserve" text-anchor="middle" x="1207.8" y="-128.28" font-family="SourceSans" font-size="8.00">a60&#45;svg&#45;render&#45;state.h</text>
</a>
</g>
</g>
<!-- Node8&#45;&gt;Node31 -->
<g id="edge36_Node000008_Node000031" class="edge">
<title>Node8&#45;&gt;Node31</title>
<g id="a_edge36_Node000008_Node000031"><a xlink:title=" ">
<path fill="none" stroke="#63b8ff" d="M1261.5,-180.27C1252,-171.73 1237,-158.25 1225.27,-147.7"/>
<polygon fill="#63b8ff" stroke="#63b8ff" points="1227.63,-145.12 1217.85,-141.03 1222.95,-150.32 1227.63,-145.12"/>
</a>
</g>
</g>
<!-- Node32 -->
<g id="Node000032" class="node">
<title>Node32</title>
<g id="a_Node000032"><a xlink:href="a60-svg-render-basics_8h.html" target="_top" xlink:title=" ">
<polygon fill="white" stroke="#666666" points="1811.3,-139.88 1696.3,-139.88 1696.3,-122.12 1811.3,-122.12 1811.3,-139.88"/>
<text xml:space="preserve" text-anchor="middle" x="1753.8" y="-128.28" font-family="SourceSans" font-size="8.00">a60&#45;svg&#45;render&#45;basics.h</text>
</a>
</g>
</g>
<!-- Node8&#45;&gt;Node32 -->
<g id="edge37_Node000008_Node000032" class="edge">
<title>Node8&#45;&gt;Node32</title>
<g id="a_edge37_Node000008_Node000032"><a xlink:title=" ">
<path fill="none" stroke="#63b8ff" d="M1299.54,-186.24C1366.64,-180.53 1538.81,-165.02 1681.8,-144.75 1687.1,-144 1692.61,-143.15 1698.11,-142.25"/>
<polygon fill="#63b8ff" stroke="#63b8ff" points="1698.55,-145.73 1707.83,-140.62 1697.39,-138.83 1698.55,-145.73"/>
</a>
</g>
</g>
<!-- Node38 -->
<g id="Node000038" class="node">
<title>Node38</title>
<g id="a_Node000038"><a xlink:href="a60-svg-composite-and-layer-basics_8h.html" target="_top" xlink:title=" ">
<polygon fill="white" stroke="#666666" points="1517.55,-144.75 1404.05,-144.75 1404.05,-117.25 1517.55,-117.25 1517.55,-144.75"/>
<text xml:space="preserve" text-anchor="start" x="1412.05" y="-133.15" font-family="SourceSans" font-size="8.00">a60&#45;svg&#45;composite&#45;and</text>
<text xml:space="preserve" text-anchor="middle" x="1460.8" y="-123.4" font-family="SourceSans" font-size="8.00">&#45;layer&#45;basics.h</text>
</a>
</g>
</g>
<!-- Node8&#45;&gt;Node38 -->
<g id="edge50_Node000008_Node000038" class="edge">
<title>Node8&#45;&gt;Node38</title>
<g id="a_edge50_Node000008_Node000038"><a xlink:title=" ">
<path fill="none" stroke="#63b8ff" d="M1298.84,-180.27C1326.78,-171.94 1370.45,-158.93 1405.41,-148.51"/>
<polygon fill="#63b8ff" stroke="#63b8ff" points="1406.38,-151.87 1414.97,-145.66 1404.39,-145.16 1406.38,-151.87"/>
</a>
</g>
</g>
<!-- Node39 -->
<g id="Node000039" class="node">
<title>Node39</title>
<g id="a_Node000039"><a xlink:href="a60-svg-sequences_8h.html" target="_top" xlink:title=" ">
<polygon fill="white" stroke="#666666" points="1640.05,-139.88 1535.55,-139.88 1535.55,-122.12 1640.05,-122.12 1640.05,-139.88"/>
<text xml:space="preserve" text-anchor="middle" x="1587.8" y="-128.28" font-family="SourceSans" font-size="8.00">a60&#45;svg&#45;sequences.h</text>
</a>
</g>
</g>
<!-- Node8&#45;&gt;Node39 -->
<g id="edge51_Node000008_Node000039" class="edge">
<title>Node8&#45;&gt;Node39</title>
<g id="a_edge51_Node000008_Node000039"><a xlink:title=" ">
<path fill="none" stroke="#63b8ff" d="M1299.29,-183.13C1345.46,-175.18 1438.73,-159.78 1517.8,-144.75 1521.36,-144.07 1525.03,-143.35 1528.75,-142.62"/>
<polygon fill="#63b8ff" stroke="#63b8ff" points="1529.35,-146.07 1538.47,-140.67 1527.98,-139.2 1529.35,-146.07"/>
</a>
</g>
</g>
<!-- Node18&#45;&gt;Node6 -->
<g id="edge23_Node000018_Node000006" class="edge">
<title>Node18&#45;&gt;Node6</title>
<g id="a_edge23_Node000018_Node000006"><a xlink:title=" ">
<path fill="none" stroke="#63b8ff" d="M576.86,-121.64C570.6,-120.05 564.01,-118.5 557.8,-117.25 446.88,-94.97 415.99,-106.93 305.8,-81.25 304.2,-80.88 302.56,-80.47 300.92,-80.03"/>
<polygon fill="#63b8ff" stroke="#63b8ff" points="302.16,-76.74 291.58,-77.28 300.18,-83.46 302.16,-76.74"/>
</a>
</g>
</g>
<!-- Node18&#45;&gt;Node7 -->
<g id="edge21_Node000018_Node000007" class="edge">
<title>Node18&#45;&gt;Node7</title>
<g id="a_edge21_Node000018_Node000007"><a xlink:title=" ">
<path fill="none" stroke="#63b8ff" d="M575.47,-121.69C569.61,-120.18 563.52,-118.64 557.8,-117.25 496.48,-102.32 424.96,-86.4 381.82,-76.96"/>
<polygon fill="#63b8ff" stroke="#63b8ff" points="382.69,-73.57 372.18,-74.85 381.2,-80.41 382.69,-73.57"/>
</a>
</g>
</g>
<!-- Node19 -->
<g id="Node000019" class="node">
<title>Node19</title>
<g id="a_Node000019"><a xlink:title=" ">
<polygon fill="#e0e0e0" stroke="#999999" points="742.8,-76.38 708.8,-76.38 708.8,-58.62 742.8,-58.62 742.8,-76.38"/>
<text xml:space="preserve" text-anchor="middle" x="725.8" y="-64.78" font-family="SourceSans" font-size="8.00">map</text>
</a>
</g>
</g>
<!-- Node18&#45;&gt;Node19 -->
<g id="edge20_Node000018_Node000019" class="edge">
<title>Node18&#45;&gt;Node19</title>
<g id="a_edge20_Node000018_Node000019"><a xlink:title=" ">
<path fill="none" stroke="#63b8ff" d="M622.85,-121.71C642.55,-111.53 676.21,-94.13 699.66,-82.01"/>
<polygon fill="#63b8ff" stroke="#63b8ff" points="701,-85.25 708.28,-77.55 697.79,-79.04 701,-85.25"/>
</a>
</g>
</g>
<!-- Node20 -->
<g id="Node000020" class="node">
<title>Node20</title>
<g id="a_Node000020"><a xlink:title=" ">
<polygon fill="#e0e0e0" stroke="#999999" points="1110.55,-76.38 1063.05,-76.38 1063.05,-58.62 1110.55,-58.62 1110.55,-76.38"/>
<text xml:space="preserve" text-anchor="middle" x="1086.8" y="-64.78" font-family="SourceSans" font-size="8.00">random</text>
</a>
</g>
</g>
<!-- Node18&#45;&gt;Node20 -->
<g id="edge22_Node000018_Node000020" class="edge">
<title>Node18&#45;&gt;Node20</title>
<g id="a_edge22_Node000018_Node000020"><a xlink:title=" ">
<path fill="none" stroke="#63b8ff" d="M636.19,-121.63C642.61,-120 649.41,-118.44 655.8,-117.25 801.33,-90.23 977.47,-75.96 1051.42,-70.79"/>
<polygon fill="#63b8ff" stroke="#63b8ff" points="1051.55,-74.29 1061.29,-70.12 1051.07,-67.31 1051.55,-74.29"/>
</a>
</g>
</g>
<!-- Node22&#45;&gt;Node5 -->
<g id="edge26_Node000022_Node000005" class="edge">
<title>Node22&#45;&gt;Node5</title>
<g id="a_edge26_Node000022_Node000005"><a xlink:title=" ">
<path fill="none" stroke="#63b8ff" d="M1656.26,-58.14C1652.96,-50.36 1647.93,-38.48 1643.68,-28.46"/>
<polygon fill="#63b8ff" stroke="#63b8ff" points="1646.92,-27.13 1639.79,-19.29 1640.47,-29.86 1646.92,-27.13"/>
</a>
</g>
</g>
<!-- Node24&#45;&gt;Node19 -->
<g id="edge29_Node000024_Node000019" class="edge">
<title>Node24&#45;&gt;Node19</title>
<g id="a_edge29_Node000024_Node000019"><a xlink:title=" ">
<path fill="none" stroke="#63b8ff" d="M1296.88,-121.69C1288.65,-120.04 1279.95,-118.45 1271.8,-117.25 1074.97,-88.32 835.52,-74.13 754.31,-69.9"/>
<polygon fill="#63b8ff" stroke="#63b8ff" points="754.54,-66.41 744.38,-69.39 754.19,-73.4 754.54,-66.41"/>
</a>
</g>
</g>
<!-- Node25 -->
<g id="Node000025" class="node">
<title>Node25</title>
<g id="a_Node000025"><a xlink:title=" ">
<polygon fill="#e0e0e0" stroke="#999999" points="1390.3,-76.38 1341.3,-76.38 1341.3,-58.62 1390.3,-58.62 1390.3,-76.38"/>
<text xml:space="preserve" text-anchor="middle" x="1365.8" y="-64.78" font-family="SourceSans" font-size="8.00">ostream</text>
</a>
</g>
</g>
<!-- Node24&#45;&gt;Node25 -->
<g id="edge30_Node000024_Node000025" class="edge">
<title>Node24&#45;&gt;Node25</title>
<g id="a_edge30_Node000024_Node000025"><a xlink:title=" ">
<path fill="none" stroke="#63b8ff" d="M1338.12,-121.71C1342.77,-112.76 1350.32,-98.24 1356.37,-86.63"/>
<polygon fill="#63b8ff" stroke="#63b8ff" points="1359.34,-88.49 1360.85,-78.01 1353.13,-85.26 1359.34,-88.49"/>
</a>
</g>
</g>
<!-- Node26 -->
<g id="Node000026" class="node">
<title>Node26</title>
<g id="a_Node000026"><a xlink:title=" ">
<polygon fill="#e0e0e0" stroke="#999999" points="1505.18,-76.38 1458.43,-76.38 1458.43,-58.62 1505.18,-58.62 1505.18,-76.38"/>
<text xml:space="preserve" text-anchor="middle" x="1481.8" y="-64.78" font-family="SourceSans" font-size="8.00">fstream</text>
</a>
</g>
</g>
<!-- Node24&#45;&gt;Node26 -->
<g id="edge31_Node000024_Node000026" class="edge">
<title>Node24&#45;&gt;Node26</title>
<g id="a_edge31_Node000024_Node000026"><a xlink:title=" ">
<path fill="none" stroke="#63b8ff" d="M1353.76,-121.71C1378.81,-111.3 1422.02,-93.34 1451.24,-81.2"/>
<polygon fill="#63b8ff" stroke="#63b8ff" points="1452.4,-84.51 1460.29,-77.44 1449.71,-78.05 1452.4,-84.51"/>
</a>
</g>
</g>
<!-- Node27 -->
<g id="Node000027" class="node">
<title>Node27</title>
<g id="a_Node000027"><a xlink:title=" ">
<polygon fill="#e0e0e0" stroke="#999999" points="1323.68,-76.38 1279.93,-76.38 1279.93,-58.62 1323.68,-58.62 1323.68,-76.38"/>
<text xml:space="preserve" text-anchor="middle" x="1301.8" y="-64.78" font-family="SourceSans" font-size="8.00">cstdint</text>
</a>
</g>
</g>
<!-- Node24&#45;&gt;Node27 -->
<g id="edge32_Node000024_Node000027" class="edge">
<title>Node24&#45;&gt;Node27</title>
<g id="a_edge32_Node000024_Node000027"><a xlink:title=" ">
<path fill="none" stroke="#63b8ff" d="M1329.48,-121.71C1324.83,-112.76 1317.28,-98.24 1311.23,-86.63"/>
<polygon fill="#63b8ff" stroke="#63b8ff" points="1314.47,-85.26 1306.75,-78.01 1308.26,-88.49 1314.47,-85.26"/>
</a>
</g>
</g>
<!-- Node33 -->
<g id="Node000033" class="node">
<title>Node33</title>
<g id="a_Node000033"><a xlink:title=" ">
<polygon fill="#e0e0e0" stroke="#999999" points="1823.8,-17.75 1771.8,-17.75 1771.8,0 1823.8,0 1823.8,-17.75"/>
<text xml:space="preserve" text-anchor="middle" x="1797.8" y="-6.15" font-family="SourceSans" font-size="8.00">numbers</text>
</a>
</g>
</g>
<!-- Node32&#45;&gt;Node33 -->
<g id="edge38_Node000032_Node000033" class="edge">
<title>Node32&#45;&gt;Node33</title>
<g id="a_edge38_Node000032_Node000033"><a xlink:title=" ">
<path fill="none" stroke="#63b8ff" d="M1759.57,-121.76C1765.9,-112.37 1775.93,-96.35 1781.8,-81.25 1788.42,-64.22 1792.65,-43.79 1795.09,-29.16"/>
<polygon fill="#63b8ff" stroke="#63b8ff" points="1798.51,-29.94 1796.56,-19.52 1791.59,-28.88 1798.51,-29.94"/>
</a>
</g>
</g>
<!-- Node34 -->
<g id="Node000034" class="node">
<title>Node34</title>
<g id="a_Node000034"><a xlink:title=" ">
<polygon fill="#e0e0e0" stroke="#999999" points="1772.3,-76.38 1729.3,-76.38 1729.3,-58.62 1772.3,-58.62 1772.3,-76.38"/>
<text xml:space="preserve" text-anchor="middle" x="1750.8" y="-64.78" font-family="SourceSans" font-size="8.00">format</text>
</a>
</g>
</g>
<!-- Node32&#45;&gt;Node34 -->
<g id="edge39_Node000032_Node000034" class="edge">
<title>Node32&#45;&gt;Node34</title>
<g id="a_edge39_Node000032_Node000034"><a xlink:title=" ">
<path fill="none" stroke="#63b8ff" d="M1753.4,-121.71C1752.98,-113.13 1752.31,-99.43 1751.76,-88.08"/>
<polygon fill="#63b8ff" stroke="#63b8ff" points="1755.26,-87.99 1751.27,-78.17 1748.26,-88.33 1755.26,-87.99"/>
</a>
</g>
</g>
<!-- Node35 -->
<g id="Node000035" class="node">
<title>Node35</title>
<g id="a_Node000035"><a xlink:href="a60-svg-radial-fill-hexagon_8h.html" target="_top" xlink:title=" ">
<polygon fill="white" stroke="#666666" points="1932.8,-81.25 1844.8,-81.25 1844.8,-53.75 1932.8,-53.75 1932.8,-81.25"/>
<text xml:space="preserve" text-anchor="start" x="1852.8" y="-69.65" font-family="SourceSans" font-size="8.00">a60&#45;svg&#45;radial&#45;fill</text>
<text xml:space="preserve" text-anchor="middle" x="1888.8" y="-59.9" font-family="SourceSans" font-size="8.00">&#45;hexagon.h</text>
</a>
</g>
</g>
<!-- Node32&#45;&gt;Node35 -->
<g id="edge40_Node000032_Node000035" class="edge">
<title>Node32&#45;&gt;Node35</title>
<g id="a_edge40_Node000032_Node000035"><a xlink:title=" ">
<path fill="none" stroke="#63b8ff" d="M1772.01,-121.71C1791.81,-112.69 1824.05,-98 1849.64,-86.34"/>
<polygon fill="#63b8ff" stroke="#63b8ff" points="1850.77,-89.67 1858.42,-82.34 1847.87,-83.3 1850.77,-89.67"/>
</a>
</g>
</g>
<!-- Node35&#45;&gt;Node5 -->
<g id="edge48_Node000035_Node000005" class="edge">
<title>Node35&#45;&gt;Node5</title>
<g id="a_edge48_Node000035_Node000005"><a xlink:title=" ">
<path fill="none" stroke="#63b8ff" d="M1844.54,-56.62C1802.81,-47.3 1738.23,-32.87 1672.74,-18.18"/>
<polygon fill="#63b8ff" stroke="#63b8ff" points="1673.79,-14.83 1663.27,-16.06 1672.26,-21.66 1673.79,-14.83"/>
</a>
</g>
</g>
<!-- Node35&#45;&gt;Node8 -->
<g id="edge49_Node000035_Node000008" class="edge">
<title>Node35&#45;&gt;Node8</title>
<g id="a_edge49_Node000035_Node000008"><a xlink:title=" ">
<path fill="none" stroke="#63b8ff" d="M1892.73,-81.6C1896.95,-98.64 1901.05,-128.19 1884.8,-144.75 1844.65,-185.66 1440.53,-188.82 1310.72,-188.76"/>
<polygon fill="#63b8ff" stroke="#63b8ff" points="1310.9,-185.26 1300.89,-188.75 1310.89,-192.26 1310.9,-185.26"/>
</a>
</g>
</g>
<!-- Node35&#45;&gt;Node10 -->
<g id="edge43_Node000035_Node000010" class="edge">
<title>Node35&#45;&gt;Node10</title>
<g id="a_edge43_Node000035_Node000010"><a xlink:title=" ">
<path fill="none" stroke="#63b8ff" d="M1914.08,-53.37C1931.37,-44.38 1954.23,-32.51 1971.7,-23.44"/>
<polygon fill="#63b8ff" stroke="#63b8ff" points="1973.17,-26.61 1980.43,-18.9 1969.95,-20.4 1973.17,-26.61"/>
</a>
</g>
</g>
<!-- Node35&#45;&gt;Node12 -->
<g id="edge42_Node000035_Node000012" class="edge">
<title>Node35&#45;&gt;Node12</title>
<g id="a_edge42_Node000035_Node000012"><a xlink:title=" ">
<path fill="none" stroke="#63b8ff" d="M1927.3,-53.37C1957.14,-43.19 1997.86,-29.3 2025.18,-19.98"/>
<polygon fill="#63b8ff" stroke="#63b8ff" points="2026.23,-23.32 2034.57,-16.78 2023.97,-16.69 2026.23,-23.32"/>
</a>
</g>
</g>
<!-- Node35&#45;&gt;Node14 -->
<g id="edge41_Node000035_Node000014" class="edge">
<title>Node35&#45;&gt;Node14</title>
<g id="a_edge41_Node000035_Node000014"><a xlink:title=" ">
<path fill="none" stroke="#63b8ff" d="M1933.17,-55.72C1978.84,-44.62 2048.88,-27.6 2089.53,-17.72"/>
<polygon fill="#63b8ff" stroke="#63b8ff" points="2090.3,-21.13 2099.19,-15.37 2088.64,-14.33 2090.3,-21.13"/>
</a>
</g>
</g>
<!-- Node35&#45;&gt;Node16 -->
<g id="edge47_Node000035_Node000016" class="edge">
<title>Node35&#45;&gt;Node16</title>
<g id="a_edge47_Node000035_Node000016"><a xlink:title=" ">
<path fill="none" stroke="#63b8ff" d="M1848.91,-53.37C1819.95,-43.83 1781.09,-31.04 1753.02,-21.8"/>
<polygon fill="#63b8ff" stroke="#63b8ff" points="1754.12,-18.48 1743.53,-18.67 1751.93,-25.12 1754.12,-18.48"/>
</a>
</g>
</g>
<!-- Node35&#45;&gt;Node33 -->
<g id="edge44_Node000035_Node000033" class="edge">
<title>Node35&#45;&gt;Node33</title>
<g id="a_edge44_Node000035_Node000033"><a xlink:title=" ">
<path fill="none" stroke="#63b8ff" d="M1867.69,-53.37C1853.67,-44.64 1835.25,-33.18 1820.84,-24.21"/>
<polygon fill="#63b8ff" stroke="#63b8ff" points="1822.8,-21.31 1812.46,-19 1819.11,-27.25 1822.8,-21.31"/>
</a>
</g>
</g>
<!-- Node36 -->
<g id="Node000036" class="node">
<title>Node36</title>
<g id="a_Node000036"><a xlink:title=" ">
<polygon fill="#e0e0e0" stroke="#999999" points="1959.43,-17.75 1902.18,-17.75 1902.18,0 1959.43,0 1959.43,-17.75"/>
<text xml:space="preserve" text-anchor="middle" x="1930.8" y="-6.15" font-family="SourceSans" font-size="8.00">functional</text>
</a>
</g>
</g>
<!-- Node35&#45;&gt;Node36 -->
<g id="edge45_Node000035_Node000036" class="edge">
<title>Node35&#45;&gt;Node36</title>
<g id="a_edge45_Node000035_Node000036"><a xlink:title=" ">
<path fill="none" stroke="#63b8ff" d="M1898.54,-53.37C1904.26,-45.66 1911.56,-35.81 1917.77,-27.44"/>
<polygon fill="#63b8ff" stroke="#63b8ff" points="1920.58,-29.53 1923.72,-19.42 1914.96,-25.36 1920.58,-29.53"/>
</a>
</g>
</g>
<!-- Node37 -->
<g id="Node000037" class="node">
<title>Node37</title>
<g id="a_Node000037"><a xlink:title=" ">
<polygon fill="#e0e0e0" stroke="#999999" points="1883.93,-17.75 1841.68,-17.75 1841.68,0 1883.93,0 1883.93,-17.75"/>
<text xml:space="preserve" text-anchor="middle" x="1862.8" y="-6.15" font-family="SourceSans" font-size="8.00">queue</text>
</a>
</g>
</g>
<!-- Node35&#45;&gt;Node37 -->
<g id="edge46_Node000035_Node000037" class="edge">
<title>Node35&#45;&gt;Node37</title>
<g id="a_edge46_Node000035_Node000037"><a xlink:title=" ">
<path fill="none" stroke="#63b8ff" d="M1882.77,-53.37C1879.39,-45.99 1875.1,-36.67 1871.38,-28.55"/>
<polygon fill="#63b8ff" stroke="#63b8ff" points="1874.61,-27.2 1867.25,-19.58 1868.25,-30.12 1874.61,-27.2"/>
</a>
</g>
</g>
<!-- Node39&#45;&gt;Node8 -->
<g id="edge55_Node000039_Node000008" class="edge">
<title>Node39&#45;&gt;Node8</title>
<g id="a_edge55_Node000039_Node000008"><a xlink:title=" ">
<path fill="none" stroke="#63b8ff" d="M1557.63,-140.37C1550.49,-141.88 1542.92,-143.4 1535.8,-144.75 1456.32,-159.86 1362.49,-175.34 1310.38,-183.25"/>
<polygon fill="#63b8ff" stroke="#63b8ff" points="1310.16,-179.75 1300.79,-184.69 1311.2,-186.67 1310.16,-179.75"/>
</a>
</g>
</g>
<!-- Node39&#45;&gt;Node20 -->
<g id="edge53_Node000039_Node000020" class="edge">
<title>Node39&#45;&gt;Node20</title>
<g id="a_edge53_Node000039_Node000020"><a xlink:title=" ">
<path fill="none" stroke="#63b8ff" d="M1550.81,-121.68C1542.91,-120.07 1534.6,-118.49 1526.8,-117.25 1376.95,-93.34 1196.53,-77.32 1121.82,-71.23"/>
<polygon fill="#63b8ff" stroke="#63b8ff" points="1122.51,-67.78 1112.26,-70.46 1121.95,-74.76 1122.51,-67.78"/>
</a>
</g>
</g>
<!-- Node39&#45;&gt;Node26 -->
<g id="edge52_Node000039_Node000026" class="edge">
<title>Node39&#45;&gt;Node26</title>
<g id="a_edge52_Node000039_Node000026"><a xlink:title=" ">
<path fill="none" stroke="#63b8ff" d="M1573.51,-121.71C1556.2,-111.66 1526.78,-94.6 1505.94,-82.51"/>
<polygon fill="#63b8ff" stroke="#63b8ff" points="1507.92,-79.61 1497.52,-77.62 1504.41,-85.66 1507.92,-79.61"/>
</a>
</g>
</g>
<!-- Node40 -->
<g id="Node000040" class="node">
<title>Node40</title>
<g id="a_Node000040"><a xlink:title=" ">
<polygon fill="#e0e0e0" stroke="#999999" points="1590.3,-76.38 1541.3,-76.38 1541.3,-58.62 1590.3,-58.62 1590.3,-76.38"/>
<text xml:space="preserve" text-anchor="middle" x="1565.8" y="-64.78" font-family="SourceSans" font-size="8.00">unistd.h</text>
</a>
</g>
</g>
<!-- Node39&#45;&gt;Node40 -->
<g id="edge54_Node000039_Node000040" class="edge">
<title>Node39&#45;&gt;Node40</title>
<g id="a_edge54_Node000039_Node000040"><a xlink:title=" ">
<path fill="none" stroke="#63b8ff" d="M1584.83,-121.71C1581.7,-112.95 1576.65,-98.84 1572.54,-87.35"/>
<polygon fill="#63b8ff" stroke="#63b8ff" points="1575.89,-86.32 1569.23,-78.09 1569.3,-88.68 1575.89,-86.32"/>
</a>
</g>
</g>
</g>
</svg>

<g id="navigator" transform="translate(0 0)" fill="#404254">
  <rect fill="#f2f5e9" fill-opacity="0.5" stroke="#606060" stroke-width=".5" x="0" y="0" width="60" height="60"/>
  <use id="zoomplus" xlink:href="#zoomPlus" x="17" y="9" onmousedown="handleZoom(evt,'in')"/>
  <use id="zoomminus" xlink:href="#zoomMin" x="42" y="9" onmousedown="handleZoom(evt,'out')"/>
  <use id="reset" xlink:href="#resetDef" x="30" y="36" onmousedown="handleReset()"/>
   <use id="arrowup" xlink:href="#arrowUp" x="0" y="0" onmousedown="handlePan(0,-1)"/>
  <use id="arrowright" xlink:href="#arrowRight" x="0" y="0" onmousedown="handlePan(1,0)"/>
  <use id="arrowdown" xlink:href="#arrowDown" x="0" y="0" onmousedown="handlePan(0,1)"/>
  <use id="arrowleft" xlink:href="#arrowLeft" x="0" y="0" onmousedown="handlePan(-1,0)"/>
</g>
<svg viewBox="0 0 15 15" width="100%" height="30px" preserveAspectRatio="xMaxYMin meet">
 <g id="arrow_out" transform="scale(0.3 0.3)">
  <a xlink:href="a60-svg-radial_8h__incl_org.svg" target="_base">
   <rect id="button" ry="5" rx="5" y="6" x="6" height="38" width="38"
        fill="#f2f5e9" fill-opacity="0.5" stroke="#606060" stroke-width="1.0"/>
   <path id="arrow"
     d="M 11.500037,31.436501 C 11.940474,20.09759 22.043105,11.32322 32.158766,21.979434 L 37.068811,17.246167 C 37.068811,17.246167 37.088388,32 37.088388,32 L 22.160133,31.978069 C 22.160133,31.978069 26.997745,27.140456 26.997745,27.140456 C 18.528582,18.264221 13.291696,25.230495 11.500037,31.436501 z"
     style="fill:#404040;"/>
  </a>
 </g>
</svg>

<style type='text/css'>
<![CDATA[
[data-mouse-over-selected='false'] { opacity: 0.7; }
[data-mouse-over-selected='true']  { opacity: 1.0; }
]]>
</style>
<script type="application/ecmascript"><![CDATA[
document.addEventListener('DOMContentLoaded', (event) => {
  highlightEdges();
  highlightAdjacentNodes();
});
]]></script>
</svg>
