<?xml version="1.0" encoding="UTF-8" standalone="no"?>
<!DOCTYPE svg PUBLIC "-//W3C//DTD SVG 1.1//EN"
 "http://www.w3.org/Graphics/SVG/1.1/DTD/svg11.dtd">
<!-- Generated by graphviz version 13.1.2 (20250808.2320)
 -->
<!-- Title: /home/bkoz/src/izzi/src/a60&#45;svg&#45;radial.h Pages: 1 -->
<svg width="2031pt" height="356pt"
 viewBox="0.00 0.00 2031.00 356.00" xmlns="http://www.w3.org/2000/svg" xmlns:xlink="http://www.w3.org/1999/xlink">
<g id="graph0" class="graph" transform="scale(1 1) rotate(0) translate(4 352)">
<title>/home/bkoz/src/izzi/src/a60&#45;svg&#45;radial.h</title>
<!-- Node1 -->
<g id="Node000001" class="node">
<title>Node1</title>
<g id="a_Node000001"><a xlink:title=" ">
<polygon fill="#999999" stroke="#666666" points="322.92,-348 230.42,-348 230.42,-316 322.92,-316 322.92,-348"/>
<text xml:space="preserve" text-anchor="start" x="238.42" y="-336.4" font-family="SourceSans" font-size="8.00">/home/bkoz/src/izzi</text>
<text xml:space="preserve" text-anchor="middle" x="276.67" y="-324.4" font-family="SourceSans" font-size="8.00">/src/a60&#45;svg&#45;radial.h</text>
</a>
</g>
</g>
<!-- Node2 -->
<g id="Node000002" class="node">
<title>Node2</title>
<g id="a_Node000002"><a xlink:href="a60-svg-radial-base_8h.html" target="_top" xlink:title=" ">
<polygon fill="white" stroke="#666666" points="149.8,-274 53.55,-274 53.55,-254 149.8,-254 149.8,-274"/>
<text xml:space="preserve" text-anchor="middle" x="101.67" y="-262.4" font-family="SourceSans" font-size="8.00">a60&#45;svg&#45;radial&#45;base.h</text>
</a>
</g>
</g>
<!-- Node1&#45;&gt;Node2 -->
<g id="edge1_Node000001_Node000002" class="edge">
<title>Node1&#45;&gt;Node2</title>
<g id="a_edge1_Node000001_Node000002"><a xlink:title=" ">
<path fill="none" stroke="#63b8ff" d="M235.64,-315.53C205.85,-304.29 165.94,-289.24 137.45,-278.49"/>
<polygon fill="#63b8ff" stroke="#63b8ff" points="138.76,-275.25 128.17,-274.99 136.29,-281.8 138.76,-275.25"/>
</a>
</g>
</g>
<!-- Node41 -->
<g id="Node000041" class="node">
<title>Node41</title>
<g id="a_Node000041"><a xlink:href="a60-svg-radial-direction-arc-glyph_8h.html" target="_top" xlink:title=" ">
<polygon fill="white" stroke="#666666" points="271.92,-280 167.42,-280 167.42,-248 271.92,-248 271.92,-280"/>
<text xml:space="preserve" text-anchor="start" x="175.42" y="-268.4" font-family="SourceSans" font-size="8.00">a60&#45;svg&#45;radial&#45;direction</text>
<text xml:space="preserve" text-anchor="middle" x="219.67" y="-256.4" font-family="SourceSans" font-size="8.00">&#45;arc&#45;glyph.h</text>
</a>
</g>
</g>
<!-- Node1&#45;&gt;Node41 -->
<g id="edge56_Node000001_Node000041" class="edge">
<title>Node1&#45;&gt;Node41</title>
<g id="a_edge56_Node000001_Node000041"><a xlink:title=" ">
<path fill="none" stroke="#63b8ff" d="M263.45,-315.69C256.54,-307.7 247.94,-297.73 240.19,-288.76"/>
<polygon fill="#63b8ff" stroke="#63b8ff" points="242.99,-286.65 233.81,-281.37 237.7,-291.23 242.99,-286.65"/>
</a>
</g>
</g>
<!-- Node42 -->
<g id="Node000042" class="node">
<title>Node42</title>
<g id="a_Node000042"><a xlink:href="a60-svg-radial-arc_8h.html" target="_top" xlink:title=" ">
<polygon fill="white" stroke="#666666" points="379.42,-274 289.92,-274 289.92,-254 379.42,-254 379.42,-274"/>
<text xml:space="preserve" text-anchor="middle" x="334.67" y="-262.4" font-family="SourceSans" font-size="8.00">a60&#45;svg&#45;radial&#45;arc.h</text>
</a>
</g>
</g>
<!-- Node1&#45;&gt;Node42 -->
<g id="edge57_Node000001_Node000042" class="edge">
<title>Node1&#45;&gt;Node42</title>
<g id="a_edge57_Node000001_Node000042"><a xlink:title=" ">
<path fill="none" stroke="#63b8ff" d="M290.12,-315.69C298.73,-305.9 309.94,-293.15 318.95,-282.89"/>
<polygon fill="#63b8ff" stroke="#63b8ff" points="321.51,-285.28 325.49,-275.45 316.26,-280.65 321.51,-285.28"/>
</a>
</g>
</g>
<!-- Node43 -->
<g id="Node000043" class="node">
<title>Node43</title>
<g id="a_Node000043"><a xlink:href="a60-svg-radial-kusama_8h.html" target="_top" xlink:title=" ">
<polygon fill="white" stroke="#666666" points="505.8,-274 397.55,-274 397.55,-254 505.8,-254 505.8,-274"/>
<text xml:space="preserve" text-anchor="middle" x="451.67" y="-262.4" font-family="SourceSans" font-size="8.00">a60&#45;svg&#45;radial&#45;kusama.h</text>
</a>
</g>
</g>
<!-- Node1&#45;&gt;Node43 -->
<g id="edge58_Node000001_Node000043" class="edge">
<title>Node1&#45;&gt;Node43</title>
<g id="a_edge58_Node000001_Node000043"><a xlink:title=" ">
<path fill="none" stroke="#63b8ff" d="M317.7,-315.53C347.49,-304.29 387.4,-289.24 415.89,-278.49"/>
<polygon fill="#63b8ff" stroke="#63b8ff" points="417.05,-281.8 425.17,-274.99 414.58,-275.25 417.05,-281.8"/>
</a>
</g>
</g>
<!-- Node3 -->
<g id="Node000003" class="node">
<title>Node3</title>
<g id="a_Node000003"><a xlink:title=" ">
<polygon fill="#e0e0e0" stroke="#999999" points="177.07,-150 148.27,-150 148.27,-130 177.07,-130 177.07,-150"/>
<text xml:space="preserve" text-anchor="middle" x="162.67" y="-138.4" font-family="SourceSans" font-size="8.00">set</text>
</a>
</g>
</g>
<!-- Node2&#45;&gt;Node3 -->
<g id="edge2_Node000002_Node000003" class="edge">
<title>Node2&#45;&gt;Node3</title>
<g id="a_edge2_Node000002_Node000003"><a xlink:title=" ">
<path fill="none" stroke="#63b8ff" d="M108.59,-253.57C115.72,-243.58 126.86,-227.19 134.67,-212 143.19,-195.43 150.8,-175.64 155.93,-161.17"/>
<polygon fill="#63b8ff" stroke="#63b8ff" points="159.18,-162.47 159.12,-151.88 152.56,-160.2 159.18,-162.47"/>
</a>
</g>
</g>
<!-- Node4 -->
<g id="Node000004" class="node">
<title>Node4</title>
<g id="a_Node000004"><a xlink:title=" ">
<polygon fill="#e0e0e0" stroke="#999999" points="54.8,-212 12.55,-212 12.55,-192 54.8,-192 54.8,-212"/>
<text xml:space="preserve" text-anchor="middle" x="33.67" y="-200.4" font-family="SourceSans" font-size="8.00">chrono</text>
</a>
</g>
</g>
<!-- Node2&#45;&gt;Node4 -->
<g id="edge3_Node000002_Node000004" class="edge">
<title>Node2&#45;&gt;Node4</title>
<g id="a_edge3_Node000002_Node000004"><a xlink:title=" ">
<path fill="none" stroke="#63b8ff" d="M91.05,-253.62C80.71,-244.5 64.78,-230.45 52.32,-219.46"/>
<polygon fill="#63b8ff" stroke="#63b8ff" points="54.95,-217.11 45.13,-213.11 50.32,-222.35 54.95,-217.11"/>
</a>
</g>
</g>
<!-- Node5 -->
<g id="Node000005" class="node">
<title>Node5</title>
<g id="a_Node000005"><a xlink:title=" ">
<polygon fill="#e0e0e0" stroke="#999999" points="1554.17,-20 1505.17,-20 1505.17,0 1554.17,0 1554.17,-20"/>
<text xml:space="preserve" text-anchor="middle" x="1529.67" y="-8.4" font-family="SourceSans" font-size="8.00">iostream</text>
</a>
</g>
</g>
<!-- Node2&#45;&gt;Node5 -->
<g id="edge4_Node000002_Node000005" class="edge">
<title>Node2&#45;&gt;Node5</title>
<g id="a_edge4_Node000002_Node000005"><a xlink:title=" ">
<path fill="none" stroke="#63b8ff" d="M99.64,-253.57C95.04,-229.62 86.21,-165.37 113.67,-124 143.19,-79.53 161.97,-72.69 212.67,-56 337.19,-15.01 1294.37,-11.35 1493.47,-11.03"/>
<polygon fill="#63b8ff" stroke="#63b8ff" points="1493.2,-14.53 1503.19,-11.02 1493.19,-7.53 1493.2,-14.53"/>
</a>
</g>
</g>
<!-- Node6 -->
<g id="Node000006" class="node">
<title>Node6</title>
<g id="a_Node000006"><a xlink:title=" ">
<polygon fill="#e0e0e0" stroke="#999999" points="287.42,-82 239.92,-82 239.92,-62 287.42,-62 287.42,-82"/>
<text xml:space="preserve" text-anchor="middle" x="263.67" y="-70.4" font-family="SourceSans" font-size="8.00">iomanip</text>
</a>
</g>
</g>
<!-- Node2&#45;&gt;Node6 -->
<g id="edge5_Node000002_Node000006" class="edge">
<title>Node2&#45;&gt;Node6</title>
<g id="a_edge5_Node000002_Node000006"><a xlink:title=" ">
<path fill="none" stroke="#63b8ff" d="M65.53,-253.54C31.34,-242.57 -12.51,-222.06 3.67,-192 48.11,-109.42 168.54,-83.92 228.61,-76.22"/>
<polygon fill="#63b8ff" stroke="#63b8ff" points="228.76,-79.73 238.28,-75.08 227.94,-72.78 228.76,-79.73"/>
</a>
</g>
</g>
<!-- Node7 -->
<g id="Node000007" class="node">
<title>Node7</title>
<g id="a_Node000007"><a xlink:title=" ">
<polygon fill="#e0e0e0" stroke="#999999" points="365.42,-82 311.92,-82 311.92,-62 365.42,-62 365.42,-82"/>
<text xml:space="preserve" text-anchor="middle" x="338.67" y="-70.4" font-family="SourceSans" font-size="8.00">algorithm</text>
</a>
</g>
</g>
<!-- Node2&#45;&gt;Node7 -->
<g id="edge6_Node000002_Node000007" class="edge">
<title>Node2&#45;&gt;Node7</title>
<g id="a_edge6_Node000002_Node000007"><a xlink:title=" ">
<path fill="none" stroke="#63b8ff" d="M101.21,-253.61C100.52,-228.61 102.3,-159.85 139.67,-124 191.33,-74.44 227.95,-108.07 296.67,-88 298.79,-87.38 300.96,-86.71 303.14,-86.02"/>
<polygon fill="#63b8ff" stroke="#63b8ff" points="304.16,-89.36 312.52,-82.85 301.93,-82.73 304.16,-89.36"/>
</a>
</g>
</g>
<!-- Node8 -->
<g id="Node000008" class="node">
<title>Node8</title>
<g id="a_Node000008"><a xlink:href="a60-svg_8h.html" target="_top" xlink:title=" ">
<polygon fill="white" stroke="#666666" points="1227.67,-212 1175.67,-212 1175.67,-192 1227.67,-192 1227.67,-212"/>
<text xml:space="preserve" text-anchor="middle" x="1201.67" y="-200.4" font-family="SourceSans" font-size="8.00">a60&#45;svg.h</text>
</a>
</g>
</g>
<!-- Node2&#45;&gt;Node8 -->
<g id="edge7_Node000002_Node000008" class="edge">
<title>Node2&#45;&gt;Node8</title>
<g id="a_edge7_Node000002_Node000008"><a xlink:title=" ">
<path fill="none" stroke="#63b8ff" d="M132.78,-253.53C141.11,-251.34 150.17,-249.29 158.67,-248 358.41,-217.77 1001.17,-206.06 1163.93,-203.55"/>
<polygon fill="#63b8ff" stroke="#63b8ff" points="1163.78,-207.05 1173.72,-203.4 1163.67,-200.05 1163.78,-207.05"/>
</a>
</g>
</g>
<!-- Node8&#45;&gt;Node3 -->
<g id="edge15_Node000008_Node000003" class="edge">
<title>Node8&#45;&gt;Node3</title>
<g id="a_edge15_Node000008_Node000003"><a xlink:title=" ">
<path fill="none" stroke="#63b8ff" d="M1175.52,-200.53C1026.53,-197.76 288.09,-182.77 190.67,-156 189.67,-155.73 188.67,-155.41 187.66,-155.06"/>
<polygon fill="#63b8ff" stroke="#63b8ff" points="189.2,-151.92 178.65,-151.02 186.34,-158.3 189.2,-151.92"/>
</a>
</g>
</g>
<!-- Node8&#45;&gt;Node7 -->
<g id="edge10_Node000008_Node000007" class="edge">
<title>Node8&#45;&gt;Node7</title>
<g id="a_edge10_Node000008_Node000007"><a xlink:title=" ">
<path fill="none" stroke="#63b8ff" d="M1175.2,-200.48C1035.56,-197.62 389.71,-182.95 357.67,-156 339.85,-141 336.77,-113.02 337.03,-93.73"/>
<polygon fill="#63b8ff" stroke="#63b8ff" points="340.53,-93.94 337.52,-83.78 333.54,-93.6 340.53,-93.94"/>
</a>
</g>
</g>
<!-- Node9 -->
<g id="Node000009" class="node">
<title>Node9</title>
<g id="a_Node000009"><a xlink:title=" ">
<polygon fill="#e0e0e0" stroke="#999999" points="1764.92,-150 1720.42,-150 1720.42,-130 1764.92,-130 1764.92,-150"/>
<text xml:space="preserve" text-anchor="middle" x="1742.67" y="-138.4" font-family="SourceSans" font-size="8.00">cstddef</text>
</a>
</g>
</g>
<!-- Node8&#45;&gt;Node9 -->
<g id="edge8_Node000008_Node000009" class="edge">
<title>Node8&#45;&gt;Node9</title>
<g id="a_edge8_Node000008_Node000009"><a xlink:title=" ">
<path fill="none" stroke="#63b8ff" d="M1228.04,-199.93C1318.98,-196.05 1619.03,-181.57 1711.67,-156 1713.03,-155.62 1714.41,-155.19 1715.78,-154.71"/>
<polygon fill="#63b8ff" stroke="#63b8ff" points="1716.79,-158.09 1724.65,-150.99 1714.08,-151.63 1716.79,-158.09"/>
</a>
</g>
</g>
<!-- Node10 -->
<g id="Node000010" class="node">
<title>Node10</title>
<g id="a_Node000010"><a xlink:title=" ">
<polygon fill="#e0e0e0" stroke="#999999" points="1902.67,-20 1862.67,-20 1862.67,0 1902.67,0 1902.67,-20"/>
<text xml:space="preserve" text-anchor="middle" x="1882.67" y="-8.4" font-family="SourceSans" font-size="8.00">cmath</text>
</a>
</g>
</g>
<!-- Node8&#45;&gt;Node10 -->
<g id="edge9_Node000008_Node000010" class="edge">
<title>Node8&#45;&gt;Node10</title>
<g id="a_edge9_Node000008_Node000010"><a xlink:title=" ">
<path fill="none" stroke="#63b8ff" d="M1227.91,-201.14C1345.07,-201.5 1816.66,-200.17 1863.67,-156 1897.81,-123.93 1892.61,-62.76 1887.04,-31.1"/>
<polygon fill="#63b8ff" stroke="#63b8ff" points="1890.55,-30.82 1885.19,-21.68 1883.68,-32.17 1890.55,-30.82"/>
</a>
</g>
</g>
<!-- Node11 -->
<g id="Node000011" class="node">
<title>Node11</title>
<g id="a_Node000011"><a xlink:title=" ">
<polygon fill="#e0e0e0" stroke="#999999" points="1855.05,-150 1820.3,-150 1820.3,-130 1855.05,-130 1855.05,-150"/>
<text xml:space="preserve" text-anchor="middle" x="1837.67" y="-138.4" font-family="SourceSans" font-size="8.00">array</text>
</a>
</g>
</g>
<!-- Node8&#45;&gt;Node11 -->
<g id="edge11_Node000008_Node000011" class="edge">
<title>Node8&#45;&gt;Node11</title>
<g id="a_edge11_Node000008_Node000011"><a xlink:title=" ">
<path fill="none" stroke="#63b8ff" d="M1227.91,-200.35C1329.23,-197.66 1694.91,-186.03 1806.67,-156 1808.04,-155.63 1809.41,-155.21 1810.79,-154.73"/>
<polygon fill="#63b8ff" stroke="#63b8ff" points="1811.78,-158.11 1819.67,-151.03 1809.09,-151.65 1811.78,-158.11"/>
</a>
</g>
</g>
<!-- Node12 -->
<g id="Node000012" class="node">
<title>Node12</title>
<g id="a_Node000012"><a xlink:title=" ">
<polygon fill="#e0e0e0" stroke="#999999" points="1956.8,-20 1920.55,-20 1920.55,0 1956.8,0 1956.8,-20"/>
<text xml:space="preserve" text-anchor="middle" x="1938.67" y="-8.4" font-family="SourceSans" font-size="8.00">tuple</text>
</a>
</g>
</g>
<!-- Node8&#45;&gt;Node12 -->
<g id="edge12_Node000008_Node000012" class="edge">
<title>Node8&#45;&gt;Node12</title>
<g id="a_edge12_Node000008_Node000012"><a xlink:title=" ">
<path fill="none" stroke="#63b8ff" d="M1227.85,-200.96C1346.97,-200.57 1834.31,-196.49 1887.67,-156 1926.9,-126.24 1936.07,-64.06 1938.14,-31.65"/>
<polygon fill="#63b8ff" stroke="#63b8ff" points="1941.62,-32.12 1938.57,-21.97 1934.63,-31.8 1941.62,-32.12"/>
</a>
</g>
</g>
<!-- Node13 -->
<g id="Node000013" class="node">
<title>Node13</title>
<g id="a_Node000013"><a xlink:title=" ">
<polygon fill="#e0e0e0" stroke="#999999" points="1986.92,-150 1948.42,-150 1948.42,-130 1986.92,-130 1986.92,-150"/>
<text xml:space="preserve" text-anchor="middle" x="1967.67" y="-138.4" font-family="SourceSans" font-size="8.00">string</text>
</a>
</g>
</g>
<!-- Node8&#45;&gt;Node13 -->
<g id="edge13_Node000008_Node000013" class="edge">
<title>Node8&#45;&gt;Node13</title>
<g id="a_edge13_Node000008_Node000013"><a xlink:title=" ">
<path fill="none" stroke="#63b8ff" d="M1227.81,-200.67C1341.89,-199.02 1796.57,-190.38 1934.67,-156 1936.27,-155.6 1937.9,-155.13 1939.51,-154.59"/>
<polygon fill="#63b8ff" stroke="#63b8ff" points="1940.52,-157.96 1948.54,-151.04 1937.95,-151.45 1940.52,-157.96"/>
</a>
</g>
</g>
<!-- Node14 -->
<g id="Node000014" class="node">
<title>Node14</title>
<g id="a_Node000014"><a xlink:title=" ">
<polygon fill="#e0e0e0" stroke="#999999" points="2022.92,-20 1984.42,-20 1984.42,0 2022.92,0 2022.92,-20"/>
<text xml:space="preserve" text-anchor="middle" x="2003.67" y="-8.4" font-family="SourceSans" font-size="8.00">vector</text>
</a>
</g>
</g>
<!-- Node8&#45;&gt;Node14 -->
<g id="edge14_Node000008_Node000014" class="edge">
<title>Node8&#45;&gt;Node14</title>
<g id="a_edge14_Node000008_Node000014"><a xlink:title=" ">
<path fill="none" stroke="#63b8ff" d="M1227.97,-200.48C1362.44,-197.72 1967.93,-183.78 1995.67,-156 2028.38,-123.24 2018.28,-62.87 2009.96,-31.36"/>
<polygon fill="#63b8ff" stroke="#63b8ff" points="2013.37,-30.57 2007.26,-21.92 2006.64,-32.5 2013.37,-30.57"/>
</a>
</g>
</g>
<!-- Node15 -->
<g id="Node000015" class="node">
<title>Node15</title>
<g id="a_Node000015"><a xlink:title=" ">
<polygon fill="#e0e0e0" stroke="#999999" points="310.42,-150 232.92,-150 232.92,-130 310.42,-130 310.42,-150"/>
<text xml:space="preserve" text-anchor="middle" x="271.67" y="-138.4" font-family="SourceSans" font-size="8.00">unordered_map</text>
</a>
</g>
</g>
<!-- Node8&#45;&gt;Node15 -->
<g id="edge16_Node000008_Node000015" class="edge">
<title>Node8&#45;&gt;Node15</title>
<g id="a_edge16_Node000008_Node000015"><a xlink:title=" ">
<path fill="none" stroke="#63b8ff" d="M1175.37,-200.45C1048.01,-197.64 494.65,-184.05 324.67,-156 320.34,-155.28 315.85,-154.34 311.41,-153.28"/>
<polygon fill="#63b8ff" stroke="#63b8ff" points="312.59,-149.97 302.03,-150.83 310.82,-156.74 312.59,-149.97"/>
</a>
</g>
</g>
<!-- Node16 -->
<g id="Node000016" class="node">
<title>Node16</title>
<g id="a_Node000016"><a xlink:title=" ">
<polygon fill="#e0e0e0" stroke="#999999" points="1643.42,-20 1571.92,-20 1571.92,0 1643.42,0 1643.42,-20"/>
<text xml:space="preserve" text-anchor="middle" x="1607.67" y="-8.4" font-family="SourceSans" font-size="8.00">unordered_set</text>
</a>
</g>
</g>
<!-- Node8&#45;&gt;Node16 -->
<g id="edge17_Node000008_Node000016" class="edge">
<title>Node8&#45;&gt;Node16</title>
<g id="a_edge17_Node000008_Node000016"><a xlink:title=" ">
<path fill="none" stroke="#63b8ff" d="M1175.5,-200.8C1023.28,-199.54 257.5,-191.42 223.67,-156 209.15,-140.8 210.44,-74.76 230.67,-56 283.25,-7.26 1413.6,-27.06 1560.42,-19.71"/>
<polygon fill="#63b8ff" stroke="#63b8ff" points="1560.51,-23.21 1570.23,-18.99 1560,-16.23 1560.51,-23.21"/>
</a>
</g>
</g>
<!-- Node17 -->
<g id="Node000017" class="node">
<title>Node17</title>
<g id="a_Node000017"><a xlink:title=" ">
<polygon fill="#e0e0e0" stroke="#999999" points="412.67,-150 366.67,-150 366.67,-130 412.67,-130 412.67,-150"/>
<text xml:space="preserve" text-anchor="middle" x="389.67" y="-138.4" font-family="SourceSans" font-size="8.00">sstream</text>
</a>
</g>
</g>
<!-- Node8&#45;&gt;Node17 -->
<g id="edge18_Node000008_Node000017" class="edge">
<title>Node8&#45;&gt;Node17</title>
<g id="a_edge18_Node000008_Node000017"><a xlink:title=" ">
<path fill="none" stroke="#63b8ff" d="M1175.46,-200.82C1056.76,-199.79 569.11,-193.33 421.67,-156 420.07,-155.6 418.46,-155.11 416.85,-154.57"/>
<polygon fill="#63b8ff" stroke="#63b8ff" points="418.48,-151.45 407.9,-150.92 415.84,-157.93 418.48,-151.45"/>
</a>
</g>
</g>
<!-- Node18 -->
<g id="Node000018" class="node">
<title>Node18</title>
<g id="a_Node000018"><a xlink:href="a60-svg-color_8h.html" target="_top" xlink:title=" ">
<polygon fill="white" stroke="#666666" points="622.42,-150 550.92,-150 550.92,-130 622.42,-130 622.42,-150"/>
<text xml:space="preserve" text-anchor="middle" x="586.67" y="-138.4" font-family="SourceSans" font-size="8.00">a60&#45;svg&#45;color.h</text>
</a>
</g>
</g>
<!-- Node8&#45;&gt;Node18 -->
<g id="edge19_Node000008_Node000018" class="edge">
<title>Node8&#45;&gt;Node18</title>
<g id="a_edge19_Node000008_Node000018"><a xlink:title=" ">
<path fill="none" stroke="#63b8ff" d="M1175.22,-201.18C1093.47,-201.25 837.91,-197.86 631.67,-156 628.49,-155.35 625.23,-154.55 621.98,-153.66"/>
<polygon fill="#63b8ff" stroke="#63b8ff" points="623.17,-150.36 612.58,-150.79 621.13,-157.06 623.17,-150.36"/>
</a>
</g>
</g>
<!-- Node21 -->
<g id="Node000021" class="node">
<title>Node21</title>
<g id="a_Node000021"><a xlink:href="a60-svg-color-palette_8h.html" target="_top" xlink:title=" ">
<polygon fill="white" stroke="#666666" points="532.42,-150 430.92,-150 430.92,-130 532.42,-130 532.42,-150"/>
<text xml:space="preserve" text-anchor="middle" x="481.67" y="-138.4" font-family="SourceSans" font-size="8.00">a60&#45;svg&#45;color&#45;palette.h</text>
</a>
</g>
</g>
<!-- Node8&#45;&gt;Node21 -->
<g id="edge24_Node000008_Node000021" class="edge">
<title>Node8&#45;&gt;Node21</title>
<g id="a_edge24_Node000008_Node000021"><a xlink:title=" ">
<path fill="none" stroke="#63b8ff" d="M1175.39,-200.87C1086.02,-200.08 785.86,-194.54 541.67,-156 536.64,-155.21 531.42,-154.19 526.25,-153.07"/>
<polygon fill="#63b8ff" stroke="#63b8ff" points="527.1,-149.67 516.57,-150.81 525.51,-156.49 527.1,-149.67"/>
</a>
</g>
</g>
<!-- Node22 -->
<g id="Node000022" class="node">
<title>Node22</title>
<g id="a_Node000022"><a xlink:href="a60-svg-color-band_8h.html" target="_top" xlink:title=" ">
<polygon fill="white" stroke="#666666" points="1605.05,-82 1510.3,-82 1510.3,-62 1605.05,-62 1605.05,-82"/>
<text xml:space="preserve" text-anchor="middle" x="1557.67" y="-70.4" font-family="SourceSans" font-size="8.00">a60&#45;svg&#45;color&#45;band.h</text>
</a>
</g>
</g>
<!-- Node8&#45;&gt;Node22 -->
<g id="edge25_Node000008_Node000022" class="edge">
<title>Node8&#45;&gt;Node22</title>
<g id="a_edge25_Node000008_Node000022"><a xlink:title=" ">
<path fill="none" stroke="#63b8ff" d="M1228.08,-201.63C1301.46,-202.79 1505.39,-201.74 1549.67,-156 1565.37,-139.78 1564.91,-112.53 1562.16,-93.7"/>
<polygon fill="#63b8ff" stroke="#63b8ff" points="1565.62,-93.19 1560.38,-83.98 1558.74,-94.45 1565.62,-93.19"/>
</a>
</g>
</g>
<!-- Node23 -->
<g id="Node000023" class="node">
<title>Node23</title>
<g id="a_Node000023"><a xlink:href="izzi-points_8h.html" target="_top" xlink:title=" ">
<polygon fill="white" stroke="#666666" points="702.55,-150 640.8,-150 640.8,-130 702.55,-130 702.55,-150"/>
<text xml:space="preserve" text-anchor="middle" x="671.67" y="-138.4" font-family="SourceSans" font-size="8.00">izzi&#45;points.h</text>
</a>
</g>
</g>
<!-- Node8&#45;&gt;Node23 -->
<g id="edge27_Node000008_Node000023" class="edge">
<title>Node8&#45;&gt;Node23</title>
<g id="a_edge27_Node000008_Node000023"><a xlink:title=" ">
<path fill="none" stroke="#63b8ff" d="M1175.18,-201.12C1100.87,-200.9 884.48,-196.56 710.67,-156 708.5,-155.49 706.29,-154.89 704.07,-154.23"/>
<polygon fill="#63b8ff" stroke="#63b8ff" points="705.23,-150.92 694.63,-150.99 702.96,-157.54 705.23,-150.92"/>
</a>
</g>
</g>
<!-- Node24 -->
<g id="Node000024" class="node">
<title>Node24</title>
<g id="a_Node000024"><a xlink:href="a60-svg-base-types_8h.html" target="_top" xlink:title=" ">
<polygon fill="white" stroke="#666666" points="1307.05,-150 1212.3,-150 1212.3,-130 1307.05,-130 1307.05,-150"/>
<text xml:space="preserve" text-anchor="middle" x="1259.67" y="-138.4" font-family="SourceSans" font-size="8.00">a60&#45;svg&#45;base&#45;types.h</text>
</a>
</g>
</g>
<!-- Node8&#45;&gt;Node24 -->
<g id="edge28_Node000008_Node000024" class="edge">
<title>Node8&#45;&gt;Node24</title>
<g id="a_edge28_Node000008_Node000024"><a xlink:title=" ">
<path fill="none" stroke="#63b8ff" d="M1210.73,-191.62C1219.38,-182.68 1232.61,-168.99 1243.14,-158.1"/>
<polygon fill="#63b8ff" stroke="#63b8ff" points="1245.38,-160.82 1249.81,-151.2 1240.34,-155.96 1245.38,-160.82"/>
</a>
</g>
</g>
<!-- Node28 -->
<g id="Node000028" class="node">
<title>Node28</title>
<g id="a_Node000028"><a xlink:href="a60-svg-constants_8h.html" target="_top" xlink:title=" ">
<polygon fill="white" stroke="#666666" points="811.17,-150 720.17,-150 720.17,-130 811.17,-130 811.17,-150"/>
<text xml:space="preserve" text-anchor="middle" x="765.67" y="-138.4" font-family="SourceSans" font-size="8.00">a60&#45;svg&#45;constants.h</text>
</a>
</g>
</g>
<!-- Node8&#45;&gt;Node28 -->
<g id="edge33_Node000008_Node000028" class="edge">
<title>Node8&#45;&gt;Node28</title>
<g id="a_edge33_Node000008_Node000028"><a xlink:title=" ">
<path fill="none" stroke="#63b8ff" d="M1175.52,-199.31C1113.35,-194.99 952.03,-182.02 819.67,-156 815.66,-155.21 811.52,-154.28 807.39,-153.27"/>
<polygon fill="#63b8ff" stroke="#63b8ff" points="808.62,-149.98 798.07,-150.85 806.87,-156.75 808.62,-149.98"/>
</a>
</g>
</g>
<!-- Node29 -->
<g id="Node000029" class="node">
<title>Node29</title>
<g id="a_Node000029"><a xlink:href="a60-svg-elements_8h.html" target="_top" xlink:title=" ">
<polygon fill="white" stroke="#666666" points="918.42,-150 828.92,-150 828.92,-130 918.42,-130 918.42,-150"/>
<text xml:space="preserve" text-anchor="middle" x="873.67" y="-138.4" font-family="SourceSans" font-size="8.00">a60&#45;svg&#45;elements.h</text>
</a>
</g>
</g>
<!-- Node8&#45;&gt;Node29 -->
<g id="edge34_Node000008_Node000029" class="edge">
<title>Node8&#45;&gt;Node29</title>
<g id="a_edge34_Node000008_Node000029"><a xlink:title=" ">
<path fill="none" stroke="#63b8ff" d="M1175.42,-197.65C1126.42,-191.19 1017.82,-175.86 927.67,-156 924.06,-155.2 920.33,-154.31 916.6,-153.38"/>
<polygon fill="#63b8ff" stroke="#63b8ff" points="917.53,-150 906.97,-150.84 915.75,-156.77 917.53,-150"/>
</a>
</g>
</g>
<!-- Node30 -->
<g id="Node000030" class="node">
<title>Node30</title>
<g id="a_Node000030"><a xlink:href="a60-svg-elements-components_8h.html" target="_top" xlink:title=" ">
<polygon fill="white" stroke="#666666" points="1075.17,-150 936.17,-150 936.17,-130 1075.17,-130 1075.17,-150"/>
<text xml:space="preserve" text-anchor="middle" x="1005.67" y="-138.4" font-family="SourceSans" font-size="8.00">a60&#45;svg&#45;elements&#45;components.h</text>
</a>
</g>
</g>
<!-- Node8&#45;&gt;Node30 -->
<g id="edge35_Node000008_Node000030" class="edge">
<title>Node8&#45;&gt;Node30</title>
<g id="a_edge35_Node000008_Node000030"><a xlink:title=" ">
<path fill="none" stroke="#63b8ff" d="M1175.24,-192.91C1142.43,-182.86 1086.08,-165.62 1047.41,-153.78"/>
<polygon fill="#63b8ff" stroke="#63b8ff" points="1048.55,-150.47 1037.96,-150.89 1046.5,-157.16 1048.55,-150.47"/>
</a>
</g>
</g>
<!-- Node31 -->
<g id="Node000031" class="node">
<title>Node31</title>
<g id="a_Node000031"><a xlink:href="a60-svg-render-state_8h.html" target="_top" xlink:title=" ">
<polygon fill="white" stroke="#666666" points="1194.05,-150 1093.3,-150 1093.3,-130 1194.05,-130 1194.05,-150"/>
<text xml:space="preserve" text-anchor="middle" x="1143.67" y="-138.4" font-family="SourceSans" font-size="8.00">a60&#45;svg&#45;render&#45;state.h</text>
</a>
</g>
</g>
<!-- Node8&#45;&gt;Node31 -->
<g id="edge36_Node000008_Node000031" class="edge">
<title>Node8&#45;&gt;Node31</title>
<g id="a_edge36_Node000008_Node000031"><a xlink:title=" ">
<path fill="none" stroke="#63b8ff" d="M1192.61,-191.62C1183.96,-182.68 1170.73,-168.99 1160.2,-158.1"/>
<polygon fill="#63b8ff" stroke="#63b8ff" points="1163,-155.96 1153.53,-151.2 1157.97,-160.82 1163,-155.96"/>
</a>
</g>
</g>
<!-- Node32 -->
<g id="Node000032" class="node">
<title>Node32</title>
<g id="a_Node000032"><a xlink:href="a60-svg-render-basics_8h.html" target="_top" xlink:title=" ">
<polygon fill="white" stroke="#666666" points="1702.3,-150 1597.05,-150 1597.05,-130 1702.3,-130 1702.3,-150"/>
<text xml:space="preserve" text-anchor="middle" x="1649.67" y="-138.4" font-family="SourceSans" font-size="8.00">a60&#45;svg&#45;render&#45;basics.h</text>
</a>
</g>
</g>
<!-- Node8&#45;&gt;Node32 -->
<g id="edge37_Node000008_Node000032" class="edge">
<title>Node8&#45;&gt;Node32</title>
<g id="a_edge37_Node000008_Node000032"><a xlink:title=" ">
<path fill="none" stroke="#63b8ff" d="M1228.13,-198.82C1290.3,-193.49 1450.37,-178.56 1582.67,-156 1588.18,-155.06 1593.93,-153.96 1599.63,-152.79"/>
<polygon fill="#63b8ff" stroke="#63b8ff" points="1599.95,-156.3 1609,-150.8 1598.49,-149.46 1599.95,-156.3"/>
</a>
</g>
</g>
<!-- Node38 -->
<g id="Node000038" class="node">
<title>Node38</title>
<g id="a_Node000038"><a xlink:href="a60-svg-composite-and-layer-basics_8h.html" target="_top" xlink:title=" ">
<polygon fill="white" stroke="#666666" points="1428.17,-156 1325.17,-156 1325.17,-124 1428.17,-124 1428.17,-156"/>
<text xml:space="preserve" text-anchor="start" x="1333.17" y="-144.4" font-family="SourceSans" font-size="8.00">a60&#45;svg&#45;composite&#45;and</text>
<text xml:space="preserve" text-anchor="middle" x="1376.67" y="-132.4" font-family="SourceSans" font-size="8.00">&#45;layer&#45;basics.h</text>
</a>
</g>
</g>
<!-- Node8&#45;&gt;Node38 -->
<g id="edge50_Node000008_Node000038" class="edge">
<title>Node8&#45;&gt;Node38</title>
<g id="a_edge50_Node000008_Node000038"><a xlink:title=" ">
<path fill="none" stroke="#63b8ff" d="M1227.87,-192.02C1252.35,-183.62 1289.69,-170.82 1320.84,-160.14"/>
<polygon fill="#63b8ff" stroke="#63b8ff" points="1321.82,-163.51 1330.14,-156.95 1319.55,-156.89 1321.82,-163.51"/>
</a>
</g>
</g>
<!-- Node39 -->
<g id="Node000039" class="node">
<title>Node39</title>
<g id="a_Node000039"><a xlink:href="a60-svg-sequences_8h.html" target="_top" xlink:title=" ">
<polygon fill="white" stroke="#666666" points="1541.05,-150 1446.3,-150 1446.3,-130 1541.05,-130 1541.05,-150"/>
<text xml:space="preserve" text-anchor="middle" x="1493.67" y="-138.4" font-family="SourceSans" font-size="8.00">a60&#45;svg&#45;sequences.h</text>
</a>
</g>
</g>
<!-- Node8&#45;&gt;Node39 -->
<g id="edge51_Node000008_Node000039" class="edge">
<title>Node8&#45;&gt;Node39</title>
<g id="a_edge51_Node000008_Node000039"><a xlink:title=" ">
<path fill="none" stroke="#63b8ff" d="M1227.92,-195.63C1270.47,-187.85 1356.3,-172.57 1428.67,-156 1432.41,-155.14 1436.29,-154.21 1440.19,-153.24"/>
<polygon fill="#63b8ff" stroke="#63b8ff" points="1440.93,-156.66 1449.76,-150.82 1439.21,-149.88 1440.93,-156.66"/>
</a>
</g>
</g>
<!-- Node18&#45;&gt;Node6 -->
<g id="edge23_Node000018_Node000006" class="edge">
<title>Node18&#45;&gt;Node6</title>
<g id="a_edge23_Node000018_Node000006"><a xlink:title=" ">
<path fill="none" stroke="#63b8ff" d="M560.72,-129.5C554.53,-127.48 547.92,-125.5 541.67,-124 437.22,-98.92 406.53,-115.44 302.67,-88 300.66,-87.47 298.6,-86.86 296.54,-86.22"/>
<polygon fill="#63b8ff" stroke="#63b8ff" points="297.69,-82.91 287.1,-82.92 295.39,-89.52 297.69,-82.91"/>
</a>
</g>
</g>
<!-- Node18&#45;&gt;Node7 -->
<g id="edge21_Node000018_Node000007" class="edge">
<title>Node18&#45;&gt;Node7</title>
<g id="a_edge21_Node000018_Node000007"><a xlink:title=" ">
<path fill="none" stroke="#63b8ff" d="M559.65,-129.62C553.75,-127.68 547.52,-125.71 541.67,-124 484.72,-107.38 417.84,-91.21 376.86,-81.69"/>
<polygon fill="#63b8ff" stroke="#63b8ff" points="377.78,-78.3 367.25,-79.46 376.2,-85.12 377.78,-78.3"/>
</a>
</g>
</g>
<!-- Node19 -->
<g id="Node000019" class="node">
<title>Node19</title>
<g id="a_Node000019"><a xlink:title=" ">
<polygon fill="#e0e0e0" stroke="#999999" points="711.3,-82 678.05,-82 678.05,-62 711.3,-62 711.3,-82"/>
<text xml:space="preserve" text-anchor="middle" x="694.67" y="-70.4" font-family="SourceSans" font-size="8.00">map</text>
</a>
</g>
</g>
<!-- Node18&#45;&gt;Node19 -->
<g id="edge20_Node000018_Node000019" class="edge">
<title>Node18&#45;&gt;Node19</title>
<g id="a_edge20_Node000018_Node000019"><a xlink:title=" ">
<path fill="none" stroke="#63b8ff" d="M602.15,-129.54C619.71,-118.81 648.62,-101.14 669.45,-88.41"/>
<polygon fill="#63b8ff" stroke="#63b8ff" points="671.23,-91.43 677.93,-83.23 667.58,-85.46 671.23,-91.43"/>
</a>
</g>
</g>
<!-- Node20 -->
<g id="Node000020" class="node">
<title>Node20</title>
<g id="a_Node000020"><a xlink:title=" ">
<polygon fill="#e0e0e0" stroke="#999999" points="1051.67,-82 1005.67,-82 1005.67,-62 1051.67,-62 1051.67,-82"/>
<text xml:space="preserve" text-anchor="middle" x="1028.67" y="-70.4" font-family="SourceSans" font-size="8.00">random</text>
</a>
</g>
</g>
<!-- Node18&#45;&gt;Node20 -->
<g id="edge22_Node000018_Node000020" class="edge">
<title>Node18&#45;&gt;Node20</title>
<g id="a_edge22_Node000018_Node000020"><a xlink:title=" ">
<path fill="none" stroke="#63b8ff" d="M612.13,-129.56C618.45,-127.48 625.25,-125.47 631.67,-124 763.91,-93.77 925.31,-79.99 994.51,-75.15"/>
<polygon fill="#63b8ff" stroke="#63b8ff" points="994.32,-78.67 1004.06,-74.5 993.85,-71.68 994.32,-78.67"/>
</a>
</g>
</g>
<!-- Node22&#45;&gt;Node5 -->
<g id="edge26_Node000022_Node000005" class="edge">
<title>Node22&#45;&gt;Node5</title>
<g id="a_edge26_Node000022_Node000005"><a xlink:title=" ">
<path fill="none" stroke="#63b8ff" d="M1553.3,-61.62C1549.41,-53.3 1543.61,-40.86 1538.73,-30.4"/>
<polygon fill="#63b8ff" stroke="#63b8ff" points="1541.96,-29.07 1534.56,-21.48 1535.62,-32.03 1541.96,-29.07"/>
</a>
</g>
</g>
<!-- Node24&#45;&gt;Node19 -->
<g id="edge29_Node000024_Node000019" class="edge">
<title>Node24&#45;&gt;Node19</title>
<g id="a_edge29_Node000024_Node000019"><a xlink:title=" ">
<path fill="none" stroke="#63b8ff" d="M1227.31,-129.54C1219.31,-127.47 1210.73,-125.46 1202.67,-124 1021.35,-91.25 799.53,-78.06 722.55,-74.26"/>
<polygon fill="#63b8ff" stroke="#63b8ff" points="723.14,-70.78 712.98,-73.8 722.8,-77.77 723.14,-70.78"/>
</a>
</g>
</g>
<!-- Node25 -->
<g id="Node000025" class="node">
<title>Node25</title>
<g id="a_Node000025"><a xlink:title=" ">
<polygon fill="#e0e0e0" stroke="#999999" points="1315.05,-82 1268.3,-82 1268.3,-62 1315.05,-62 1315.05,-82"/>
<text xml:space="preserve" text-anchor="middle" x="1291.67" y="-70.4" font-family="SourceSans" font-size="8.00">ostream</text>
</a>
</g>
</g>
<!-- Node24&#45;&gt;Node25 -->
<g id="edge30_Node000024_Node000025" class="edge">
<title>Node24&#45;&gt;Node25</title>
<g id="a_edge30_Node000024_Node000025"><a xlink:title=" ">
<path fill="none" stroke="#63b8ff" d="M1264.26,-129.54C1268.91,-119.94 1276.26,-104.78 1282.18,-92.57"/>
<polygon fill="#63b8ff" stroke="#63b8ff" points="1285.22,-94.33 1286.43,-83.8 1278.92,-91.27 1285.22,-94.33"/>
</a>
</g>
</g>
<!-- Node26 -->
<g id="Node000026" class="node">
<title>Node26</title>
<g id="a_Node000026"><a xlink:title=" ">
<polygon fill="#e0e0e0" stroke="#999999" points="1417.3,-82 1372.05,-82 1372.05,-62 1417.3,-62 1417.3,-82"/>
<text xml:space="preserve" text-anchor="middle" x="1394.67" y="-70.4" font-family="SourceSans" font-size="8.00">fstream</text>
</a>
</g>
</g>
<!-- Node24&#45;&gt;Node26 -->
<g id="edge31_Node000024_Node000026" class="edge">
<title>Node24&#45;&gt;Node26</title>
<g id="a_edge31_Node000024_Node000026"><a xlink:title=" ">
<path fill="none" stroke="#63b8ff" d="M1279.01,-129.54C1301.57,-118.52 1339.1,-100.17 1365.26,-87.38"/>
<polygon fill="#63b8ff" stroke="#63b8ff" points="1366.56,-90.64 1374.01,-83.1 1363.48,-84.35 1366.56,-90.64"/>
</a>
</g>
</g>
<!-- Node27 -->
<g id="Node000027" class="node">
<title>Node27</title>
<g id="a_Node000027"><a xlink:title=" ">
<polygon fill="#e0e0e0" stroke="#999999" points="1249.8,-82 1207.55,-82 1207.55,-62 1249.8,-62 1249.8,-82"/>
<text xml:space="preserve" text-anchor="middle" x="1228.67" y="-70.4" font-family="SourceSans" font-size="8.00">cstdint</text>
</a>
</g>
</g>
<!-- Node24&#45;&gt;Node27 -->
<g id="edge32_Node000024_Node000027" class="edge">
<title>Node24&#45;&gt;Node27</title>
<g id="a_edge32_Node000024_Node000027"><a xlink:title=" ">
<path fill="none" stroke="#63b8ff" d="M1255.23,-129.54C1250.72,-119.94 1243.6,-104.78 1237.86,-92.57"/>
<polygon fill="#63b8ff" stroke="#63b8ff" points="1241.17,-91.37 1233.75,-83.81 1234.83,-94.35 1241.17,-91.37"/>
</a>
</g>
</g>
<!-- Node33 -->
<g id="Node000033" class="node">
<title>Node33</title>
<g id="a_Node000033"><a xlink:title=" ">
<polygon fill="#e0e0e0" stroke="#999999" points="1711.92,-20 1661.42,-20 1661.42,0 1711.92,0 1711.92,-20"/>
<text xml:space="preserve" text-anchor="middle" x="1686.67" y="-8.4" font-family="SourceSans" font-size="8.00">numbers</text>
</a>
</g>
</g>
<!-- Node32&#45;&gt;Node33 -->
<g id="edge38_Node000032_Node000033" class="edge">
<title>Node32&#45;&gt;Node33</title>
<g id="a_edge38_Node000032_Node000033"><a xlink:title=" ">
<path fill="none" stroke="#63b8ff" d="M1655.09,-129.54C1660.58,-119.53 1668.93,-103.13 1673.67,-88 1679.55,-69.22 1682.95,-46.97 1684.78,-31.23"/>
<polygon fill="#63b8ff" stroke="#63b8ff" points="1688.22,-32.01 1685.78,-21.7 1681.26,-31.28 1688.22,-32.01"/>
</a>
</g>
</g>
<!-- Node34 -->
<g id="Node000034" class="node">
<title>Node34</title>
<g id="a_Node000034"><a xlink:title=" ">
<polygon fill="#e0e0e0" stroke="#999999" points="1664.42,-82 1622.92,-82 1622.92,-62 1664.42,-62 1664.42,-82"/>
<text xml:space="preserve" text-anchor="middle" x="1643.67" y="-70.4" font-family="SourceSans" font-size="8.00">format</text>
</a>
</g>
</g>
<!-- Node32&#45;&gt;Node34 -->
<g id="edge39_Node000032_Node000034" class="edge">
<title>Node32&#45;&gt;Node34</title>
<g id="a_edge39_Node000032_Node000034"><a xlink:title=" ">
<path fill="none" stroke="#63b8ff" d="M1648.81,-129.54C1647.97,-120.23 1646.64,-105.7 1645.55,-93.7"/>
<polygon fill="#63b8ff" stroke="#63b8ff" points="1649.06,-93.59 1644.67,-83.95 1642.09,-94.22 1649.06,-93.59"/>
</a>
</g>
</g>
<!-- Node35 -->
<g id="Node000035" class="node">
<title>Node35</title>
<g id="a_Node000035"><a xlink:href="a60-svg-radial-fill-hexagon_8h.html" target="_top" xlink:title=" ">
<polygon fill="white" stroke="#666666" points="1816.55,-88 1736.8,-88 1736.8,-56 1816.55,-56 1816.55,-88"/>
<text xml:space="preserve" text-anchor="start" x="1744.8" y="-76.4" font-family="SourceSans" font-size="8.00">a60&#45;svg&#45;radial&#45;fill</text>
<text xml:space="preserve" text-anchor="middle" x="1776.67" y="-64.4" font-family="SourceSans" font-size="8.00">&#45;hexagon.h</text>
</a>
</g>
</g>
<!-- Node32&#45;&gt;Node35 -->
<g id="edge40_Node000032_Node000035" class="edge">
<title>Node32&#45;&gt;Node35</title>
<g id="a_edge40_Node000032_Node000035"><a xlink:title=" ">
<path fill="none" stroke="#63b8ff" d="M1667.87,-129.54C1685.91,-120.17 1714.14,-105.5 1737.32,-93.45"/>
<polygon fill="#63b8ff" stroke="#63b8ff" points="1738.63,-96.72 1745.89,-89 1735.4,-90.5 1738.63,-96.72"/>
</a>
</g>
</g>
<!-- Node35&#45;&gt;Node5 -->
<g id="edge48_Node000035_Node000005" class="edge">
<title>Node35&#45;&gt;Node5</title>
<g id="a_edge48_Node000035_Node000005"><a xlink:title=" ">
<path fill="none" stroke="#63b8ff" d="M1736.35,-61.8C1695.53,-52.39 1630.32,-37.13 1565.36,-20.63"/>
<polygon fill="#63b8ff" stroke="#63b8ff" points="1566.54,-17.32 1555.98,-18.24 1564.81,-24.1 1566.54,-17.32"/>
</a>
</g>
</g>
<!-- Node35&#45;&gt;Node8 -->
<g id="edge49_Node000035_Node000008" class="edge">
<title>Node35&#45;&gt;Node8</title>
<g id="a_edge49_Node000035_Node000008"><a xlink:title=" ">
<path fill="none" stroke="#63b8ff" d="M1781.54,-88.49C1786.34,-107.15 1790.73,-138.2 1773.67,-156 1736.73,-194.54 1360.59,-200.09 1239.21,-200.87"/>
<polygon fill="#63b8ff" stroke="#63b8ff" points="1239.45,-197.37 1229.47,-200.93 1239.49,-204.37 1239.45,-197.37"/>
</a>
</g>
</g>
<!-- Node35&#45;&gt;Node10 -->
<g id="edge43_Node000035_Node000010" class="edge">
<title>Node35&#45;&gt;Node10</title>
<g id="a_edge43_Node000035_Node000010"><a xlink:title=" ">
<path fill="none" stroke="#63b8ff" d="M1803.97,-55.55C1820.07,-46.43 1840.35,-34.96 1856.29,-25.93"/>
<polygon fill="#63b8ff" stroke="#63b8ff" points="1857.76,-29.13 1864.73,-21.15 1854.31,-23.03 1857.76,-29.13"/>
</a>
</g>
</g>
<!-- Node35&#45;&gt;Node12 -->
<g id="edge42_Node000035_Node000012" class="edge">
<title>Node35&#45;&gt;Node12</title>
<g id="a_edge42_Node000035_Node000012"><a xlink:title=" ">
<path fill="none" stroke="#63b8ff" d="M1816.72,-56.17C1845.45,-45.53 1883.5,-31.43 1909.41,-21.84"/>
<polygon fill="#63b8ff" stroke="#63b8ff" points="1910.47,-25.18 1918.63,-18.42 1908.04,-18.61 1910.47,-25.18"/>
</a>
</g>
</g>
<!-- Node35&#45;&gt;Node14 -->
<g id="edge41_Node000035_Node000014" class="edge">
<title>Node35&#45;&gt;Node14</title>
<g id="a_edge41_Node000035_Node000014"><a xlink:title=" ">
<path fill="none" stroke="#63b8ff" d="M1816.99,-60.34C1861.64,-48.54 1932.61,-29.78 1972.97,-19.12"/>
<polygon fill="#63b8ff" stroke="#63b8ff" points="1973.73,-22.53 1982.5,-16.6 1971.94,-15.77 1973.73,-22.53"/>
</a>
</g>
</g>
<!-- Node35&#45;&gt;Node16 -->
<g id="edge47_Node000035_Node000016" class="edge">
<title>Node35&#45;&gt;Node16</title>
<g id="a_edge47_Node000035_Node000016"><a xlink:title=" ">
<path fill="none" stroke="#63b8ff" d="M1736.62,-56.78C1708.83,-46.91 1672.06,-33.86 1644.9,-24.22"/>
<polygon fill="#63b8ff" stroke="#63b8ff" points="1646.29,-21 1635.7,-20.95 1643.95,-27.59 1646.29,-21"/>
</a>
</g>
</g>
<!-- Node35&#45;&gt;Node33 -->
<g id="edge44_Node000035_Node000033" class="edge">
<title>Node35&#45;&gt;Node33</title>
<g id="a_edge44_Node000035_Node000033"><a xlink:title=" ">
<path fill="none" stroke="#63b8ff" d="M1753.49,-55.55C1740.21,-46.69 1723.59,-35.61 1710.24,-26.71"/>
<polygon fill="#63b8ff" stroke="#63b8ff" points="1712.3,-23.88 1702.04,-21.25 1708.42,-29.71 1712.3,-23.88"/>
</a>
</g>
</g>
<!-- Node36 -->
<g id="Node000036" class="node">
<title>Node36</title>
<g id="a_Node000036"><a xlink:title=" ">
<polygon fill="#e0e0e0" stroke="#999999" points="1844.17,-20 1789.17,-20 1789.17,0 1844.17,0 1844.17,-20"/>
<text xml:space="preserve" text-anchor="middle" x="1816.67" y="-8.4" font-family="SourceSans" font-size="8.00">functional</text>
</a>
</g>
</g>
<!-- Node35&#45;&gt;Node36 -->
<g id="edge45_Node000035_Node000036" class="edge">
<title>Node35&#45;&gt;Node36</title>
<g id="a_edge45_Node000035_Node000036"><a xlink:title=" ">
<path fill="none" stroke="#63b8ff" d="M1786.97,-55.55C1792.18,-47.74 1798.55,-38.19 1804.05,-29.94"/>
<polygon fill="#63b8ff" stroke="#63b8ff" points="1806.93,-31.93 1809.56,-21.67 1801.1,-28.05 1806.93,-31.93"/>
</a>
</g>
</g>
<!-- Node37 -->
<g id="Node000037" class="node">
<title>Node37</title>
<g id="a_Node000037"><a xlink:title=" ">
<polygon fill="#e0e0e0" stroke="#999999" points="1771.05,-20 1730.3,-20 1730.3,0 1771.05,0 1771.05,-20"/>
<text xml:space="preserve" text-anchor="middle" x="1750.67" y="-8.4" font-family="SourceSans" font-size="8.00">queue</text>
</a>
</g>
</g>
<!-- Node35&#45;&gt;Node37 -->
<g id="edge46_Node000035_Node000037" class="edge">
<title>Node35&#45;&gt;Node37</title>
<g id="a_edge46_Node000035_Node000037"><a xlink:title=" ">
<path fill="none" stroke="#63b8ff" d="M1769.98,-55.55C1766.7,-48 1762.73,-38.82 1759.24,-30.77"/>
<polygon fill="#63b8ff" stroke="#63b8ff" points="1762.54,-29.58 1755.35,-21.8 1756.11,-32.36 1762.54,-29.58"/>
</a>
</g>
</g>
<!-- Node39&#45;&gt;Node8 -->
<g id="edge55_Node000039_Node000008" class="edge">
<title>Node39&#45;&gt;Node8</title>
<g id="a_edge55_Node000039_Node000008"><a xlink:title=" ">
<path fill="none" stroke="#63b8ff" d="M1468.8,-150.44C1461.67,-152.38 1453.93,-154.34 1446.67,-156 1373.99,-172.64 1287.74,-187.98 1239.25,-195.73"/>
<polygon fill="#63b8ff" stroke="#63b8ff" points="1238.88,-192.24 1229.54,-197.25 1239.97,-199.16 1238.88,-192.24"/>
</a>
</g>
</g>
<!-- Node39&#45;&gt;Node20 -->
<g id="edge53_Node000039_Node000020" class="edge">
<title>Node39&#45;&gt;Node20</title>
<g id="a_edge53_Node000039_Node000020"><a xlink:title=" ">
<path fill="none" stroke="#63b8ff" d="M1461.27,-129.51C1453.59,-127.49 1445.38,-125.5 1437.67,-124 1300.25,-97.16 1133.94,-81.55 1063.2,-75.69"/>
<polygon fill="#63b8ff" stroke="#63b8ff" points="1063.67,-72.22 1053.42,-74.89 1063.1,-79.19 1063.67,-72.22"/>
</a>
</g>
</g>
<!-- Node39&#45;&gt;Node26 -->
<g id="edge52_Node000039_Node000026" class="edge">
<title>Node39&#45;&gt;Node26</title>
<g id="a_edge52_Node000039_Node000026"><a xlink:title=" ">
<path fill="none" stroke="#63b8ff" d="M1479.49,-129.54C1463.53,-118.91 1437.37,-101.47 1418.31,-88.76"/>
<polygon fill="#63b8ff" stroke="#63b8ff" points="1420.35,-85.91 1410.09,-83.28 1416.47,-91.74 1420.35,-85.91"/>
</a>
</g>
</g>
<!-- Node40 -->
<g id="Node000040" class="node">
<title>Node40</title>
<g id="a_Node000040"><a xlink:title=" ">
<polygon fill="#e0e0e0" stroke="#999999" points="1491.8,-82 1443.55,-82 1443.55,-62 1491.8,-62 1491.8,-82"/>
<text xml:space="preserve" text-anchor="middle" x="1467.67" y="-70.4" font-family="SourceSans" font-size="8.00">unistd.h</text>
</a>
</g>
</g>
<!-- Node39&#45;&gt;Node40 -->
<g id="edge54_Node000039_Node000040" class="edge">
<title>Node39&#45;&gt;Node40</title>
<g id="a_edge54_Node000039_Node000040"><a xlink:title=" ">
<path fill="none" stroke="#63b8ff" d="M1489.95,-129.54C1486.2,-120.04 1480.31,-105.09 1475.53,-92.95"/>
<polygon fill="#63b8ff" stroke="#63b8ff" points="1478.87,-91.87 1471.94,-83.85 1472.35,-94.43 1478.87,-91.87"/>
</a>
</g>
</g>
</g>
</svg>
