<?xml version="1.0" encoding="UTF-8" standalone="no"?>
<!DOCTYPE svg PUBLIC "-//W3C//DTD SVG 1.1//EN"
 "http://www.w3.org/Graphics/SVG/1.1/DTD/svg11.dtd">
<!-- Generated by graphviz version 12.2.1 (20241206.2353)
 -->
<!-- Title: /home/bkoz/src/izzi/src/a60&#45;svg.h Pages: 1 -->
<svg width="1962pt" height="153pt"
 viewBox="0.00 0.00 1962.12 152.75" xmlns="http://www.w3.org/2000/svg" xmlns:xlink="http://www.w3.org/1999/xlink">
<g id="graph0" class="graph" transform="scale(1 1) rotate(0) translate(4 148.75)">
<title>/home/bkoz/src/izzi/src/a60&#45;svg.h</title>
<!-- Node1 -->
<g id="Node000001" class="node">
<title>Node1</title>
<g id="a_Node000001"><a xlink:title=" ">
<polygon fill="#999999" stroke="#666666" points="784.12,-144.75 688.62,-144.75 688.62,-117.25 784.12,-117.25 784.12,-144.75"/>
<text text-anchor="start" x="696.62" y="-133.15" font-family="SourceSans" font-size="8.00">/home/bkoz/src/izzi</text>
<text text-anchor="middle" x="736.38" y="-123.4" font-family="SourceSans" font-size="8.00">/src/a60&#45;svg.h</text>
</a>
</g>
</g>
<!-- Node2 -->
<g id="Node000002" class="node">
<title>Node2</title>
<g id="a_Node000002"><a xlink:title=" ">
<polygon fill="#e0e0e0" stroke="#999999" points="46.75,-76.38 0,-76.38 0,-58.62 46.75,-58.62 46.75,-76.38"/>
<text text-anchor="middle" x="23.38" y="-64.78" font-family="SourceSans" font-size="8.00">cstddef</text>
</a>
</g>
</g>
<!-- Node1&#45;&gt;Node2 -->
<g id="edge1_Node000001_Node000002" class="edge">
<title>Node1&#45;&gt;Node2</title>
<g id="a_edge1_Node000001_Node000002"><a xlink:title=" ">
<path fill="none" stroke="#63b8ff" d="M688.15,-128.47C553.61,-123.9 176.11,-108.92 55.38,-81.25 54.21,-80.98 53.03,-80.68 51.85,-80.35"/>
<polygon fill="#63b8ff" stroke="#63b8ff" points="53.37,-77.17 42.77,-77.26 51.12,-83.8 53.37,-77.17"/>
</a>
</g>
</g>
<!-- Node3 -->
<g id="Node000003" class="node">
<title>Node3</title>
<g id="a_Node000003"><a xlink:title=" ">
<polygon fill="#e0e0e0" stroke="#999999" points="106.12,-76.38 64.62,-76.38 64.62,-58.62 106.12,-58.62 106.12,-76.38"/>
<text text-anchor="middle" x="85.38" y="-64.78" font-family="SourceSans" font-size="8.00">cmath</text>
</a>
</g>
</g>
<!-- Node1&#45;&gt;Node3 -->
<g id="edge2_Node000001_Node000003" class="edge">
<title>Node1&#45;&gt;Node3</title>
<g id="a_edge2_Node000001_Node000003"><a xlink:title=" ">
<path fill="none" stroke="#63b8ff" d="M688.23,-128.31C561.86,-123.55 222.97,-108.54 114.38,-81.25 113.71,-81.08 113.04,-80.9 112.36,-80.71"/>
<polygon fill="#63b8ff" stroke="#63b8ff" points="113.61,-77.44 103.02,-77.29 111.21,-84.01 113.61,-77.44"/>
</a>
</g>
</g>
<!-- Node4 -->
<g id="Node000004" class="node">
<title>Node4</title>
<g id="a_Node000004"><a xlink:title=" ">
<polygon fill="#e0e0e0" stroke="#999999" points="160.88,-76.38 123.88,-76.38 123.88,-58.62 160.88,-58.62 160.88,-76.38"/>
<text text-anchor="middle" x="142.38" y="-64.78" font-family="SourceSans" font-size="8.00">array</text>
</a>
</g>
</g>
<!-- Node1&#45;&gt;Node4 -->
<g id="edge3_Node000001_Node000004" class="edge">
<title>Node1&#45;&gt;Node4</title>
<g id="a_edge3_Node000001_Node000004"><a xlink:title=" ">
<path fill="none" stroke="#63b8ff" d="M688.28,-127.96C570.06,-122.62 267.8,-106.81 170.38,-81.25 169.73,-81.08 169.08,-80.9 168.43,-80.7"/>
<polygon fill="#63b8ff" stroke="#63b8ff" points="170.03,-77.56 159.44,-77.29 167.54,-84.11 170.03,-77.56"/>
</a>
</g>
</g>
<!-- Node5 -->
<g id="Node000005" class="node">
<title>Node5</title>
<g id="a_Node000005"><a xlink:title=" ">
<polygon fill="#e0e0e0" stroke="#999999" points="215.88,-76.38 178.88,-76.38 178.88,-58.62 215.88,-58.62 215.88,-76.38"/>
<text text-anchor="middle" x="197.38" y="-64.78" font-family="SourceSans" font-size="8.00">tuple</text>
</a>
</g>
</g>
<!-- Node1&#45;&gt;Node5 -->
<g id="edge4_Node000001_Node000005" class="edge">
<title>Node1&#45;&gt;Node5</title>
<g id="a_edge4_Node000001_Node000005"><a xlink:title=" ">
<path fill="none" stroke="#63b8ff" d="M688.45,-130.89C596.64,-131.41 390.34,-126.83 224.38,-81.25 224.01,-81.15 223.64,-81.04 223.28,-80.94"/>
<polygon fill="#63b8ff" stroke="#63b8ff" points="224.73,-77.74 214.14,-77.41 222.21,-84.28 224.73,-77.74"/>
</a>
</g>
</g>
<!-- Node6 -->
<g id="Node000006" class="node">
<title>Node6</title>
<g id="a_Node000006"><a xlink:title=" ">
<polygon fill="#e0e0e0" stroke="#999999" points="273,-76.38 233.75,-76.38 233.75,-58.62 273,-58.62 273,-76.38"/>
<text text-anchor="middle" x="253.38" y="-64.78" font-family="SourceSans" font-size="8.00">string</text>
</a>
</g>
</g>
<!-- Node1&#45;&gt;Node6 -->
<g id="edge5_Node000001_Node000006" class="edge">
<title>Node1&#45;&gt;Node6</title>
<g id="a_edge5_Node000001_Node000006"><a xlink:title=" ">
<path fill="none" stroke="#63b8ff" d="M688.28,-129.86C604.24,-128.52 425.82,-120.76 281.38,-81.25 280.87,-81.11 280.37,-80.97 279.86,-80.81"/>
<polygon fill="#63b8ff" stroke="#63b8ff" points="281.34,-77.63 270.75,-77.36 278.86,-84.18 281.34,-77.63"/>
</a>
</g>
</g>
<!-- Node7 -->
<g id="Node000007" class="node">
<title>Node7</title>
<g id="a_Node000007"><a xlink:title=" ">
<polygon fill="#e0e0e0" stroke="#999999" points="332.12,-76.38 290.62,-76.38 290.62,-58.62 332.12,-58.62 332.12,-76.38"/>
<text text-anchor="middle" x="311.38" y="-64.78" font-family="SourceSans" font-size="8.00">vector</text>
</a>
</g>
</g>
<!-- Node1&#45;&gt;Node7 -->
<g id="edge6_Node000001_Node000007" class="edge">
<title>Node1&#45;&gt;Node7</title>
<g id="a_edge6_Node000001_Node000007"><a xlink:title=" ">
<path fill="none" stroke="#63b8ff" d="M688.13,-128.37C612.87,-124.86 463.5,-114.04 341.38,-81.25 340.58,-81.04 339.77,-80.8 338.96,-80.56"/>
<polygon fill="#63b8ff" stroke="#63b8ff" points="340.55,-77.41 329.96,-77.28 338.15,-83.99 340.55,-77.41"/>
</a>
</g>
</g>
<!-- Node8 -->
<g id="Node000008" class="node">
<title>Node8</title>
<g id="a_Node000008"><a xlink:title=" ">
<polygon fill="#e0e0e0" stroke="#999999" points="378.77,-76.38 349.98,-76.38 349.98,-58.62 378.77,-58.62 378.77,-76.38"/>
<text text-anchor="middle" x="364.38" y="-64.78" font-family="SourceSans" font-size="8.00">set</text>
</a>
</g>
</g>
<!-- Node1&#45;&gt;Node8 -->
<g id="edge7_Node000001_Node000008" class="edge">
<title>Node1&#45;&gt;Node8</title>
<g id="a_edge7_Node000001_Node000008"><a xlink:title=" ">
<path fill="none" stroke="#63b8ff" d="M688.26,-128.82C621.9,-126 498.94,-116.48 387.84,-80.24"/>
<polygon fill="#63b8ff" stroke="#63b8ff" points="389.16,-76.99 378.56,-77.13 386.93,-83.63 389.16,-76.99"/>
</a>
</g>
</g>
<!-- Node9 -->
<g id="Node000009" class="node">
<title>Node9</title>
<g id="a_Node000009"><a xlink:title=" ">
<polygon fill="#e0e0e0" stroke="#999999" points="476.25,-76.38 396.5,-76.38 396.5,-58.62 476.25,-58.62 476.25,-76.38"/>
<text text-anchor="middle" x="436.38" y="-64.78" font-family="SourceSans" font-size="8.00">unordered_map</text>
</a>
</g>
</g>
<!-- Node1&#45;&gt;Node9 -->
<g id="edge8_Node000001_Node000009" class="edge">
<title>Node1&#45;&gt;Node9</title>
<g id="a_edge8_Node000001_Node000009"><a xlink:title=" ">
<path fill="none" stroke="#63b8ff" d="M688.54,-121.63C637.9,-112.56 555.72,-97.22 485.38,-81.25 483.06,-80.73 480.7,-80.17 478.31,-79.6"/>
<polygon fill="#63b8ff" stroke="#63b8ff" points="479.16,-76.2 468.62,-77.19 477.48,-83 479.16,-76.2"/>
</a>
</g>
</g>
<!-- Node10 -->
<g id="Node000010" class="node">
<title>Node10</title>
<g id="a_Node000010"><a xlink:title=" ">
<polygon fill="#e0e0e0" stroke="#999999" points="542.5,-76.38 494.25,-76.38 494.25,-58.62 542.5,-58.62 542.5,-76.38"/>
<text text-anchor="middle" x="518.38" y="-64.78" font-family="SourceSans" font-size="8.00">sstream</text>
</a>
</g>
</g>
<!-- Node1&#45;&gt;Node10 -->
<g id="edge9_Node000001_Node000010" class="edge">
<title>Node1&#45;&gt;Node10</title>
<g id="a_edge9_Node000001_Node000010"><a xlink:title=" ">
<path fill="none" stroke="#63b8ff" d="M688.42,-118.91C650.83,-109.85 597.35,-96.14 551.38,-81.25 550.74,-81.04 550.09,-80.83 549.44,-80.61"/>
<polygon fill="#63b8ff" stroke="#63b8ff" points="550.86,-77.4 540.27,-77.32 548.5,-83.99 550.86,-77.4"/>
</a>
</g>
</g>
<!-- Node11 -->
<g id="Node000011" class="node">
<title>Node11</title>
<g id="a_Node000011"><a xlink:href="a60-svg-color_8h.html" target="_top" xlink:title=" ">
<polygon fill="white" stroke="#666666" points="886.25,-76.38 806.5,-76.38 806.5,-58.62 886.25,-58.62 886.25,-76.38"/>
<text text-anchor="middle" x="846.38" y="-64.78" font-family="SourceSans" font-size="8.00">a60&#45;svg&#45;color.h</text>
</a>
</g>
</g>
<!-- Node1&#45;&gt;Node11 -->
<g id="edge10_Node000001_Node000011" class="edge">
<title>Node1&#45;&gt;Node11</title>
<g id="a_edge10_Node000001_Node000011"><a xlink:title=" ">
<path fill="none" stroke="#63b8ff" d="M759.97,-116.81C778.13,-106.66 803.14,-92.67 821.59,-82.36"/>
<polygon fill="#63b8ff" stroke="#63b8ff" points="823.24,-85.44 830.27,-77.51 819.83,-79.33 823.24,-85.44"/>
</a>
</g>
</g>
<!-- Node16 -->
<g id="Node000016" class="node">
<title>Node16</title>
<g id="a_Node000016"><a xlink:href="a60-svg-color-palette_8h.html" target="_top" xlink:title=" ">
<polygon fill="white" stroke="#666666" points="1016.38,-76.38 904.38,-76.38 904.38,-58.62 1016.38,-58.62 1016.38,-76.38"/>
<text text-anchor="middle" x="960.38" y="-64.78" font-family="SourceSans" font-size="8.00">a60&#45;svg&#45;color&#45;palette.h</text>
</a>
</g>
</g>
<!-- Node1&#45;&gt;Node16 -->
<g id="edge15_Node000001_Node000016" class="edge">
<title>Node1&#45;&gt;Node16</title>
<g id="a_edge15_Node000001_Node000016"><a xlink:title=" ">
<path fill="none" stroke="#63b8ff" d="M784.43,-116.81C824.56,-105.79 881.17,-90.25 919.23,-79.8"/>
<polygon fill="#63b8ff" stroke="#63b8ff" points="919.76,-83.28 928.47,-77.26 917.9,-76.53 919.76,-83.28"/>
</a>
</g>
</g>
<!-- Node17 -->
<g id="Node000017" class="node">
<title>Node17</title>
<g id="a_Node000017"><a xlink:href="a60-svg-color-colorband_8h.html" target="_top" xlink:title=" ">
<polygon fill="white" stroke="#666666" points="1158.38,-76.38 1034.38,-76.38 1034.38,-58.62 1158.38,-58.62 1158.38,-76.38"/>
<text text-anchor="middle" x="1096.38" y="-64.78" font-family="SourceSans" font-size="8.00">a60&#45;svg&#45;color&#45;colorband.h</text>
</a>
</g>
</g>
<!-- Node1&#45;&gt;Node17 -->
<g id="edge16_Node000001_Node000017" class="edge">
<title>Node1&#45;&gt;Node17</title>
<g id="a_edge16_Node000001_Node000017"><a xlink:title=" ">
<path fill="none" stroke="#63b8ff" d="M784.47,-122.05C841.85,-112.52 940.66,-96 1025.38,-81.25 1029.76,-80.49 1034.3,-79.69 1038.86,-78.88"/>
<polygon fill="#63b8ff" stroke="#63b8ff" points="1039.45,-82.33 1048.68,-77.13 1038.23,-75.44 1039.45,-82.33"/>
</a>
</g>
</g>
<!-- Node18 -->
<g id="Node000018" class="node">
<title>Node18</title>
<g id="a_Node000018"><a xlink:href="a60-svg-base-types_8h.html" target="_top" xlink:title=" ">
<polygon fill="white" stroke="#666666" points="666,-76.38 560.75,-76.38 560.75,-58.62 666,-58.62 666,-76.38"/>
<text text-anchor="middle" x="613.38" y="-64.78" font-family="SourceSans" font-size="8.00">a60&#45;svg&#45;base&#45;types.h</text>
</a>
</g>
</g>
<!-- Node1&#45;&gt;Node18 -->
<g id="edge17_Node000001_Node000018" class="edge">
<title>Node1&#45;&gt;Node18</title>
<g id="a_edge17_Node000001_Node000018"><a xlink:title=" ">
<path fill="none" stroke="#63b8ff" d="M709.99,-116.81C689.31,-106.47 660.67,-92.15 639.94,-81.78"/>
<polygon fill="#63b8ff" stroke="#63b8ff" points="641.77,-78.79 631.27,-77.45 638.64,-85.05 641.77,-78.79"/>
</a>
</g>
</g>
<!-- Node22 -->
<g id="Node000022" class="node">
<title>Node22</title>
<g id="a_Node000022"><a xlink:href="a60-svg-constants_8h.html" target="_top" xlink:title=" ">
<polygon fill="white" stroke="#666666" points="1276.38,-76.38 1176.38,-76.38 1176.38,-58.62 1276.38,-58.62 1276.38,-76.38"/>
<text text-anchor="middle" x="1226.38" y="-64.78" font-family="SourceSans" font-size="8.00">a60&#45;svg&#45;constants.h</text>
</a>
</g>
</g>
<!-- Node1&#45;&gt;Node22 -->
<g id="edge22_Node000001_Node000022" class="edge">
<title>Node1&#45;&gt;Node22</title>
<g id="a_edge22_Node000001_Node000022"><a xlink:title=" ">
<path fill="none" stroke="#63b8ff" d="M784.43,-126.15C864.27,-119.39 1029.16,-103.94 1167.38,-81.25 1171.27,-80.61 1175.29,-79.88 1179.32,-79.11"/>
<polygon fill="#63b8ff" stroke="#63b8ff" points="1180.01,-82.54 1189.12,-77.13 1178.63,-75.68 1180.01,-82.54"/>
</a>
</g>
</g>
<!-- Node23 -->
<g id="Node000023" class="node">
<title>Node23</title>
<g id="a_Node000023"><a xlink:href="a60-svg-elements_8h.html" target="_top" xlink:title=" ">
<polygon fill="white" stroke="#666666" points="1392.25,-76.38 1294.5,-76.38 1294.5,-58.62 1392.25,-58.62 1392.25,-76.38"/>
<text text-anchor="middle" x="1343.38" y="-64.78" font-family="SourceSans" font-size="8.00">a60&#45;svg&#45;elements.h</text>
</a>
</g>
</g>
<!-- Node1&#45;&gt;Node23 -->
<g id="edge23_Node000001_Node000023" class="edge">
<title>Node1&#45;&gt;Node23</title>
<g id="a_edge23_Node000001_Node000023"><a xlink:title=" ">
<path fill="none" stroke="#63b8ff" d="M784.36,-127.81C880.08,-122.97 1101.42,-109.52 1285.38,-81.25 1289.44,-80.63 1293.64,-79.89 1297.84,-79.09"/>
<polygon fill="#63b8ff" stroke="#63b8ff" points="1298.27,-82.57 1307.37,-77.15 1296.87,-75.71 1298.27,-82.57"/>
</a>
</g>
</g>
<!-- Node24 -->
<g id="Node000024" class="node">
<title>Node24</title>
<g id="a_Node000024"><a xlink:href="a60-svg-elements-components_8h.html" target="_top" xlink:title=" ">
<polygon fill="white" stroke="#666666" points="1562.25,-76.38 1410.5,-76.38 1410.5,-58.62 1562.25,-58.62 1562.25,-76.38"/>
<text text-anchor="middle" x="1486.38" y="-64.78" font-family="SourceSans" font-size="8.00">a60&#45;svg&#45;elements&#45;components.h</text>
</a>
</g>
</g>
<!-- Node1&#45;&gt;Node24 -->
<g id="edge24_Node000001_Node000024" class="edge">
<title>Node1&#45;&gt;Node24</title>
<g id="a_edge24_Node000001_Node000024"><a xlink:title=" ">
<path fill="none" stroke="#63b8ff" d="M784.47,-127.73C894.13,-122.27 1170.99,-106.94 1401.38,-81.25 1408.66,-80.44 1416.28,-79.47 1423.84,-78.43"/>
<polygon fill="#63b8ff" stroke="#63b8ff" points="1424.31,-81.9 1433.72,-77.03 1423.33,-74.97 1424.31,-81.9"/>
</a>
</g>
</g>
<!-- Node25 -->
<g id="Node000025" class="node">
<title>Node25</title>
<g id="a_Node000025"><a xlink:href="a60-svg-render-state_8h.html" target="_top" xlink:title=" ">
<polygon fill="white" stroke="#666666" points="1690.25,-76.38 1580.5,-76.38 1580.5,-58.62 1690.25,-58.62 1690.25,-76.38"/>
<text text-anchor="middle" x="1635.38" y="-64.78" font-family="SourceSans" font-size="8.00">a60&#45;svg&#45;render&#45;state.h</text>
</a>
</g>
</g>
<!-- Node1&#45;&gt;Node25 -->
<g id="edge25_Node000001_Node000025" class="edge">
<title>Node1&#45;&gt;Node25</title>
<g id="a_edge25_Node000001_Node000025"><a xlink:title=" ">
<path fill="none" stroke="#63b8ff" d="M784.6,-129.51C913.04,-127.71 1273.95,-119.37 1571.38,-81.25 1576.38,-80.61 1581.58,-79.81 1586.75,-78.91"/>
<polygon fill="#63b8ff" stroke="#63b8ff" points="1587.26,-82.38 1596.46,-77.13 1586,-75.49 1587.26,-82.38"/>
</a>
</g>
</g>
<!-- Node26 -->
<g id="Node000026" class="node">
<title>Node26</title>
<g id="a_Node000026"><a xlink:href="a60-svg-render-basics_8h.html" target="_top" xlink:title=" ">
<polygon fill="white" stroke="#666666" points="1822.88,-76.38 1707.88,-76.38 1707.88,-58.62 1822.88,-58.62 1822.88,-76.38"/>
<text text-anchor="middle" x="1765.38" y="-64.78" font-family="SourceSans" font-size="8.00">a60&#45;svg&#45;render&#45;basics.h</text>
</a>
</g>
</g>
<!-- Node1&#45;&gt;Node26 -->
<g id="edge26_Node000001_Node000026" class="edge">
<title>Node1&#45;&gt;Node26</title>
<g id="a_edge26_Node000001_Node000026"><a xlink:title=" ">
<path fill="none" stroke="#63b8ff" d="M784.42,-129.95C925.44,-129.27 1350.18,-123.61 1699.38,-81.25 1704.74,-80.6 1710.32,-79.77 1715.87,-78.84"/>
<polygon fill="#63b8ff" stroke="#63b8ff" points="1716.41,-82.3 1725.64,-77.1 1715.18,-75.41 1716.41,-82.3"/>
</a>
</g>
</g>
<!-- Node27 -->
<g id="Node000027" class="node">
<title>Node27</title>
<g id="a_Node000027"><a xlink:href="a60-svg-composite-and-layer-basics_8h.html" target="_top" xlink:title=" ">
<polygon fill="white" stroke="#666666" points="1954.12,-81.25 1840.62,-81.25 1840.62,-53.75 1954.12,-53.75 1954.12,-81.25"/>
<text text-anchor="start" x="1848.62" y="-69.65" font-family="SourceSans" font-size="8.00">a60&#45;svg&#45;composite&#45;and</text>
<text text-anchor="middle" x="1897.38" y="-59.9" font-family="SourceSans" font-size="8.00">&#45;layer&#45;basics.h</text>
</a>
</g>
</g>
<!-- Node1&#45;&gt;Node27 -->
<g id="edge27_Node000001_Node000027" class="edge">
<title>Node1&#45;&gt;Node27</title>
<g id="a_edge27_Node000001_Node000027"><a xlink:title=" ">
<path fill="none" stroke="#63b8ff" d="M784.39,-130.41C936.36,-131.18 1420.47,-129.5 1829.22,-81.5"/>
<polygon fill="#63b8ff" stroke="#63b8ff" points="1829.36,-85.01 1838.88,-80.36 1828.54,-78.06 1829.36,-85.01"/>
</a>
</g>
</g>
<!-- Node28 -->
<g id="Node000028" class="node">
<title>Node28</title>
<g id="a_Node000028"><a xlink:href="a60-svg-sequences_8h.html" target="_top" xlink:title=" ">
<polygon fill="white" stroke="#666666" points="788.62,-76.38 684.12,-76.38 684.12,-58.62 788.62,-58.62 788.62,-76.38"/>
<text text-anchor="middle" x="736.38" y="-64.78" font-family="SourceSans" font-size="8.00">a60&#45;svg&#45;sequences.h</text>
</a>
</g>
</g>
<!-- Node1&#45;&gt;Node28 -->
<g id="edge28_Node000001_Node000028" class="edge">
<title>Node1&#45;&gt;Node28</title>
<g id="a_edge28_Node000001_Node000028"><a xlink:title=" ">
<path fill="none" stroke="#63b8ff" d="M730.74,-116.96C729.54,-108.52 729.31,-97.39 730.05,-87.93"/>
<polygon fill="#63b8ff" stroke="#63b8ff" points="733.48,-88.69 731.38,-78.31 726.54,-87.74 733.48,-88.69"/>
</a>
</g>
</g>
<!-- Node12 -->
<g id="Node000012" class="node">
<title>Node12</title>
<g id="a_Node000012"><a xlink:title=" ">
<polygon fill="#e0e0e0" stroke="#999999" points="693.38,-17.75 659.38,-17.75 659.38,0 693.38,0 693.38,-17.75"/>
<text text-anchor="middle" x="676.38" y="-6.15" font-family="SourceSans" font-size="8.00">map</text>
</a>
</g>
</g>
<!-- Node11&#45;&gt;Node12 -->
<g id="edge11_Node000011_Node000012" class="edge">
<title>Node11&#45;&gt;Node12</title>
<g id="a_edge11_Node000011_Node000012"><a xlink:title=" ">
<path fill="none" stroke="#63b8ff" d="M821.29,-58.14C790.06,-47.74 736.88,-30.03 704.36,-19.19"/>
<polygon fill="#63b8ff" stroke="#63b8ff" points="705.81,-15.99 695.22,-16.15 703.6,-22.63 705.81,-15.99"/>
</a>
</g>
</g>
<!-- Node13 -->
<g id="Node000013" class="node">
<title>Node13</title>
<g id="a_Node000013"><a xlink:title=" ">
<polygon fill="#e0e0e0" stroke="#999999" points="898.88,-17.75 843.88,-17.75 843.88,0 898.88,0 898.88,-17.75"/>
<text text-anchor="middle" x="871.38" y="-6.15" font-family="SourceSans" font-size="8.00">algorithm</text>
</a>
</g>
</g>
<!-- Node11&#45;&gt;Node13 -->
<g id="edge12_Node000011_Node000013" class="edge">
<title>Node11&#45;&gt;Node13</title>
<g id="a_edge12_Node000011_Node000013"><a xlink:title=" ">
<path fill="none" stroke="#63b8ff" d="M850.06,-58.14C853.54,-50.28 858.86,-38.23 863.31,-28.13"/>
<polygon fill="#63b8ff" stroke="#63b8ff" points="866.38,-29.84 867.22,-19.28 859.98,-27.02 866.38,-29.84"/>
</a>
</g>
</g>
<!-- Node14 -->
<g id="Node000014" class="node">
<title>Node14</title>
<g id="a_Node000014"><a xlink:title=" ">
<polygon fill="#e0e0e0" stroke="#999999" points="826.12,-17.75 778.62,-17.75 778.62,0 826.12,0 826.12,-17.75"/>
<text text-anchor="middle" x="802.38" y="-6.15" font-family="SourceSans" font-size="8.00">random</text>
</a>
</g>
</g>
<!-- Node11&#45;&gt;Node14 -->
<g id="edge13_Node000011_Node000014" class="edge">
<title>Node11&#45;&gt;Node14</title>
<g id="a_edge13_Node000011_Node000014"><a xlink:title=" ">
<path fill="none" stroke="#63b8ff" d="M839.88,-58.14C833.51,-49.94 823.59,-37.18 815.56,-26.84"/>
<polygon fill="#63b8ff" stroke="#63b8ff" points="818.44,-24.84 809.54,-19.09 812.91,-29.14 818.44,-24.84"/>
</a>
</g>
</g>
<!-- Node15 -->
<g id="Node000015" class="node">
<title>Node15</title>
<g id="a_Node000015"><a xlink:title=" ">
<polygon fill="#e0e0e0" stroke="#999999" points="965.88,-17.75 916.88,-17.75 916.88,0 965.88,0 965.88,-17.75"/>
<text text-anchor="middle" x="941.38" y="-6.15" font-family="SourceSans" font-size="8.00">iomanip</text>
</a>
</g>
</g>
<!-- Node11&#45;&gt;Node15 -->
<g id="edge14_Node000011_Node000015" class="edge">
<title>Node11&#45;&gt;Node15</title>
<g id="a_edge14_Node000011_Node000015"><a xlink:title=" ">
<path fill="none" stroke="#63b8ff" d="M860.39,-58.14C875.49,-49.14 899.78,-34.67 917.82,-23.91"/>
<polygon fill="#63b8ff" stroke="#63b8ff" points="919.51,-26.98 926.31,-18.86 915.93,-20.97 919.51,-26.98"/>
</a>
</g>
</g>
<!-- Node18&#45;&gt;Node12 -->
<g id="edge18_Node000018_Node000012" class="edge">
<title>Node18&#45;&gt;Node12</title>
<g id="a_edge18_Node000018_Node000012"><a xlink:title=" ">
<path fill="none" stroke="#63b8ff" d="M622.67,-58.14C632.18,-49.6 647.17,-36.12 658.91,-25.58"/>
<polygon fill="#63b8ff" stroke="#63b8ff" points="661.23,-28.2 666.32,-18.91 656.55,-22.99 661.23,-28.2"/>
</a>
</g>
</g>
<!-- Node19 -->
<g id="Node000019" class="node">
<title>Node19</title>
<g id="a_Node000019"><a xlink:title=" ">
<polygon fill="#e0e0e0" stroke="#999999" points="515.88,-17.75 466.88,-17.75 466.88,0 515.88,0 515.88,-17.75"/>
<text text-anchor="middle" x="491.38" y="-6.15" font-family="SourceSans" font-size="8.00">ostream</text>
</a>
</g>
</g>
<!-- Node18&#45;&gt;Node19 -->
<g id="edge19_Node000018_Node000019" class="edge">
<title>Node18&#45;&gt;Node19</title>
<g id="a_edge19_Node000018_Node000019"><a xlink:title=" ">
<path fill="none" stroke="#63b8ff" d="M595.37,-58.14C575.35,-48.85 542.74,-33.71 519.37,-22.87"/>
<polygon fill="#63b8ff" stroke="#63b8ff" points="520.97,-19.75 510.43,-18.72 518.02,-26.1 520.97,-19.75"/>
</a>
</g>
</g>
<!-- Node20 -->
<g id="Node000020" class="node">
<title>Node20</title>
<g id="a_Node000020"><a xlink:title=" ">
<polygon fill="#e0e0e0" stroke="#999999" points="641.75,-17.75 595,-17.75 595,0 641.75,0 641.75,-17.75"/>
<text text-anchor="middle" x="618.38" y="-6.15" font-family="SourceSans" font-size="8.00">fstream</text>
</a>
</g>
</g>
<!-- Node18&#45;&gt;Node20 -->
<g id="edge20_Node000018_Node000020" class="edge">
<title>Node18&#45;&gt;Node20</title>
<g id="a_edge20_Node000018_Node000020"><a xlink:title=" ">
<path fill="none" stroke="#63b8ff" d="M614.11,-58.14C614.79,-50.53 615.8,-39 616.68,-29.12"/>
<polygon fill="#63b8ff" stroke="#63b8ff" points="620.14,-29.67 617.53,-19.41 613.17,-29.06 620.14,-29.67"/>
</a>
</g>
</g>
<!-- Node21 -->
<g id="Node000021" class="node">
<title>Node21</title>
<g id="a_Node000021"><a xlink:title=" ">
<polygon fill="#e0e0e0" stroke="#999999" points="577.25,-17.75 533.5,-17.75 533.5,0 577.25,0 577.25,-17.75"/>
<text text-anchor="middle" x="555.38" y="-6.15" font-family="SourceSans" font-size="8.00">cstdint</text>
</a>
</g>
</g>
<!-- Node18&#45;&gt;Node21 -->
<g id="edge21_Node000018_Node000021" class="edge">
<title>Node18&#45;&gt;Node21</title>
<g id="a_edge21_Node000018_Node000021"><a xlink:title=" ">
<path fill="none" stroke="#63b8ff" d="M604.82,-58.14C596.15,-49.68 582.53,-36.39 571.78,-25.89"/>
<polygon fill="#63b8ff" stroke="#63b8ff" points="574.28,-23.44 564.68,-18.96 569.39,-28.45 574.28,-23.44"/>
</a>
</g>
</g>
<!-- Node28&#45;&gt;Node1 -->
<g id="edge32_Node000028_Node000001" class="edge">
<title>Node28&#45;&gt;Node1</title>
<g id="a_edge32_Node000028_Node000001"><a xlink:title=" ">
<path fill="none" stroke="#63b8ff" d="M741.17,-76.81C742.81,-84.22 743.42,-95.45 742.99,-105.69"/>
<polygon fill="#63b8ff" stroke="#63b8ff" points="739.52,-105.18 742.14,-115.45 746.5,-105.79 739.52,-105.18"/>
</a>
</g>
</g>
<!-- Node28&#45;&gt;Node14 -->
<g id="edge30_Node000028_Node000014" class="edge">
<title>Node28&#45;&gt;Node14</title>
<g id="a_edge30_Node000028_Node000014"><a xlink:title=" ">
<path fill="none" stroke="#63b8ff" d="M746.11,-58.14C756.17,-49.52 772.1,-35.85 784.44,-25.26"/>
<polygon fill="#63b8ff" stroke="#63b8ff" points="786.56,-28.05 791.88,-18.88 782.01,-22.74 786.56,-28.05"/>
</a>
</g>
</g>
<!-- Node28&#45;&gt;Node20 -->
<g id="edge29_Node000028_Node000020" class="edge">
<title>Node28&#45;&gt;Node20</title>
<g id="a_edge29_Node000028_Node000020"><a xlink:title=" ">
<path fill="none" stroke="#63b8ff" d="M718.96,-58.14C699.68,-48.89 668.34,-33.85 645.76,-23.02"/>
<polygon fill="#63b8ff" stroke="#63b8ff" points="647.37,-19.91 636.84,-18.74 644.34,-26.22 647.37,-19.91"/>
</a>
</g>
</g>
<!-- Node29 -->
<g id="Node000029" class="node">
<title>Node29</title>
<g id="a_Node000029"><a xlink:title=" ">
<polygon fill="#e0e0e0" stroke="#999999" points="760.88,-17.75 711.88,-17.75 711.88,0 760.88,0 760.88,-17.75"/>
<text text-anchor="middle" x="736.38" y="-6.15" font-family="SourceSans" font-size="8.00">unistd.h</text>
</a>
</g>
</g>
<!-- Node28&#45;&gt;Node29 -->
<g id="edge31_Node000028_Node000029" class="edge">
<title>Node28&#45;&gt;Node29</title>
<g id="a_edge31_Node000028_Node000029"><a xlink:title=" ">
<path fill="none" stroke="#63b8ff" d="M736.38,-58.14C736.38,-50.53 736.38,-39 736.38,-29.12"/>
<polygon fill="#63b8ff" stroke="#63b8ff" points="739.88,-29.41 736.38,-19.41 732.88,-29.41 739.88,-29.41"/>
</a>
</g>
</g>
</g>
</svg>
