<?xml version="1.0" encoding="UTF-8" standalone="no"?>
<!DOCTYPE svg PUBLIC "-//W3C//DTD SVG 1.1//EN"
 "http://www.w3.org/Graphics/SVG/1.1/DTD/svg11.dtd">
<!-- Generated by graphviz version 12.2.1 (20241206.2353)
 -->
<!-- Title: /home/bkoz/src/izzi/src/a60&#45;svg&#45;sequences.h Pages: 1 -->
<svg width="1881pt" height="220pt"
 viewBox="0.00 0.00 1881.12 220.00" xmlns="http://www.w3.org/2000/svg" xmlns:xlink="http://www.w3.org/1999/xlink">
<g id="graph0" class="graph" transform="scale(1 1) rotate(0) translate(4 216)">
<title>/home/bkoz/src/izzi/src/a60&#45;svg&#45;sequences.h</title>
<!-- Node1 -->
<g id="Node000001" class="node">
<title>Node1</title>
<g id="a_Node000001"><a xlink:title=" ">
<polygon fill="#999999" stroke="#666666" points="748.62,-212 637.38,-212 637.38,-180 748.62,-180 748.62,-212"/>
<text text-anchor="start" x="645.38" y="-200.4" font-family="SourceSans" font-size="8.00">/home/bkoz/src/izzi</text>
<text text-anchor="middle" x="693" y="-188.4" font-family="SourceSans" font-size="8.00">/src/a60&#45;svg&#45;sequences.h</text>
</a>
</g>
</g>
<!-- Node2 -->
<g id="Node000002" class="node">
<title>Node2</title>
<g id="a_Node000002"><a xlink:title=" ">
<polygon fill="#e0e0e0" stroke="#999999" points="1816.62,-20 1771.38,-20 1771.38,0 1816.62,0 1816.62,-20"/>
<text text-anchor="middle" x="1794" y="-8.4" font-family="SourceSans" font-size="8.00">fstream</text>
</a>
</g>
</g>
<!-- Node1&#45;&gt;Node2 -->
<g id="edge1_Node000001_Node000002" class="edge">
<title>Node1&#45;&gt;Node2</title>
<g id="a_edge1_Node000001_Node000002"><a xlink:title=" ">
<path fill="none" stroke="#63b8ff" d="M748.89,-193.31C960,-186.4 1700.83,-157.35 1778,-88 1793.53,-74.05 1796.21,-49.3 1795.86,-31.62"/>
<polygon fill="#63b8ff" stroke="#63b8ff" points="1799.36,-31.55 1795.29,-21.77 1792.37,-31.95 1799.36,-31.55"/>
</a>
</g>
</g>
<!-- Node3 -->
<g id="Node000003" class="node">
<title>Node3</title>
<g id="a_Node000003"><a xlink:title=" ">
<polygon fill="#e0e0e0" stroke="#999999" points="46,-20 0,-20 0,0 46,0 46,-20"/>
<text text-anchor="middle" x="23" y="-8.4" font-family="SourceSans" font-size="8.00">random</text>
</a>
</g>
</g>
<!-- Node1&#45;&gt;Node3 -->
<g id="edge2_Node000001_Node000003" class="edge">
<title>Node1&#45;&gt;Node3</title>
<g id="a_edge2_Node000001_Node000003"><a xlink:title=" ">
<path fill="none" stroke="#63b8ff" d="M637.09,-193.48C495.6,-188.46 128.44,-167.87 42,-88 26.62,-73.79 22.81,-49.29 22.25,-31.74"/>
<polygon fill="#63b8ff" stroke="#63b8ff" points="25.75,-31.96 22.29,-21.95 18.75,-31.93 25.75,-31.96"/>
</a>
</g>
</g>
<!-- Node4 -->
<g id="Node000004" class="node">
<title>Node4</title>
<g id="a_Node000004"><a xlink:title=" ">
<polygon fill="#e0e0e0" stroke="#999999" points="1873.12,-144 1824.88,-144 1824.88,-124 1873.12,-124 1873.12,-144"/>
<text text-anchor="middle" x="1849" y="-132.4" font-family="SourceSans" font-size="8.00">unistd.h</text>
</a>
</g>
</g>
<!-- Node1&#45;&gt;Node4 -->
<g id="edge3_Node000001_Node000004" class="edge">
<title>Node1&#45;&gt;Node4</title>
<g id="a_edge3_Node000001_Node000004"><a xlink:title=" ">
<path fill="none" stroke="#63b8ff" d="M749.08,-193.83C945.6,-189.51 1602.46,-173.19 1811,-144 1811.83,-143.88 1812.67,-143.76 1813.52,-143.62"/>
<polygon fill="#63b8ff" stroke="#63b8ff" points="1813.95,-147.1 1823.11,-141.78 1812.63,-140.23 1813.95,-147.1"/>
</a>
</g>
</g>
<!-- Node5 -->
<g id="Node000005" class="node">
<title>Node5</title>
<g id="a_Node000005"><a xlink:href="a60-svg_8h.html" target="_top" xlink:title=" ">
<polygon fill="white" stroke="#666666" points="719,-144 667,-144 667,-124 719,-124 719,-144"/>
<text text-anchor="middle" x="693" y="-132.4" font-family="SourceSans" font-size="8.00">a60&#45;svg.h</text>
</a>
</g>
</g>
<!-- Node1&#45;&gt;Node5 -->
<g id="edge4_Node000001_Node000005" class="edge">
<title>Node1&#45;&gt;Node5</title>
<g id="a_edge4_Node000001_Node000005"><a xlink:title=" ">
<path fill="none" stroke="#63b8ff" d="M687.01,-179.55C686.18,-172.26 686.03,-163.45 686.55,-155.6"/>
<polygon fill="#63b8ff" stroke="#63b8ff" points="690,-156.26 687.75,-145.91 683.05,-155.41 690,-156.26"/>
</a>
</g>
</g>
<!-- Node5&#45;&gt;Node1 -->
<g id="edge32_Node000005_Node000001" class="edge">
<title>Node5&#45;&gt;Node1</title>
<g id="a_edge32_Node000005_Node000001"><a xlink:title=" ">
<path fill="none" stroke="#63b8ff" d="M698.07,-144.41C699.34,-150.8 699.89,-159.6 699.72,-168.08"/>
<polygon fill="#63b8ff" stroke="#63b8ff" points="696.23,-167.84 699.08,-178.04 703.21,-168.28 696.23,-167.84"/>
</a>
</g>
</g>
<!-- Node6 -->
<g id="Node000006" class="node">
<title>Node6</title>
<g id="a_Node000006"><a xlink:title=" ">
<polygon fill="#e0e0e0" stroke="#999999" points="185.25,-82 140.75,-82 140.75,-62 185.25,-62 185.25,-82"/>
<text text-anchor="middle" x="163" y="-70.4" font-family="SourceSans" font-size="8.00">cstddef</text>
</a>
</g>
</g>
<!-- Node5&#45;&gt;Node6 -->
<g id="edge5_Node000005_Node000006" class="edge">
<title>Node5&#45;&gt;Node6</title>
<g id="a_edge5_Node000005_Node000006"><a xlink:title=" ">
<path fill="none" stroke="#63b8ff" d="M666.58,-131.87C576.86,-127.84 284.43,-113.06 194,-88 192.64,-87.62 191.26,-87.19 189.89,-86.71"/>
<polygon fill="#63b8ff" stroke="#63b8ff" points="191.59,-83.63 181.02,-82.98 188.89,-90.08 191.59,-83.63"/>
</a>
</g>
</g>
<!-- Node7 -->
<g id="Node000007" class="node">
<title>Node7</title>
<g id="a_Node000007"><a xlink:title=" ">
<polygon fill="#e0e0e0" stroke="#999999" points="243,-82 203,-82 203,-62 243,-62 243,-82"/>
<text text-anchor="middle" x="223" y="-70.4" font-family="SourceSans" font-size="8.00">cmath</text>
</a>
</g>
</g>
<!-- Node5&#45;&gt;Node7 -->
<g id="edge6_Node000005_Node000007" class="edge">
<title>Node5&#45;&gt;Node7</title>
<g id="a_edge6_Node000005_Node000007"><a xlink:title=" ">
<path fill="none" stroke="#63b8ff" d="M666.74,-133.7C597.38,-134.82 404.12,-133.32 252,-88 251,-87.7 250,-87.37 248.99,-87.01"/>
<polygon fill="#63b8ff" stroke="#63b8ff" points="250.45,-83.83 239.89,-82.99 247.62,-90.23 250.45,-83.83"/>
</a>
</g>
</g>
<!-- Node8 -->
<g id="Node000008" class="node">
<title>Node8</title>
<g id="a_Node000008"><a xlink:title=" ">
<polygon fill="#e0e0e0" stroke="#999999" points="295.38,-82 260.62,-82 260.62,-62 295.38,-62 295.38,-82"/>
<text text-anchor="middle" x="278" y="-70.4" font-family="SourceSans" font-size="8.00">array</text>
</a>
</g>
</g>
<!-- Node5&#45;&gt;Node8 -->
<g id="edge7_Node000005_Node000008" class="edge">
<title>Node5&#45;&gt;Node8</title>
<g id="a_edge7_Node000005_Node000008"><a xlink:title=" ">
<path fill="none" stroke="#63b8ff" d="M666.85,-133.43C603.23,-133.75 436.04,-130.16 305,-88 304.2,-87.74 303.39,-87.46 302.58,-87.15"/>
<polygon fill="#63b8ff" stroke="#63b8ff" points="304.29,-84.09 293.75,-82.99 301.3,-90.42 304.29,-84.09"/>
</a>
</g>
</g>
<!-- Node9 -->
<g id="Node000009" class="node">
<title>Node9</title>
<g id="a_Node000009"><a xlink:title=" ">
<polygon fill="#e0e0e0" stroke="#999999" points="350.12,-82 313.88,-82 313.88,-62 350.12,-62 350.12,-82"/>
<text text-anchor="middle" x="332" y="-70.4" font-family="SourceSans" font-size="8.00">tuple</text>
</a>
</g>
</g>
<!-- Node5&#45;&gt;Node9 -->
<g id="edge8_Node000005_Node000009" class="edge">
<title>Node5&#45;&gt;Node9</title>
<g id="a_edge8_Node000005_Node000009"><a xlink:title=" ">
<path fill="none" stroke="#63b8ff" d="M666.7,-132.75C609.33,-131.49 469.23,-124.59 359,-88 358.35,-87.78 357.69,-87.55 357.04,-87.31"/>
<polygon fill="#63b8ff" stroke="#63b8ff" points="358.59,-84.17 348.05,-83.09 355.62,-90.51 358.59,-84.17"/>
</a>
</g>
</g>
<!-- Node10 -->
<g id="Node000010" class="node">
<title>Node10</title>
<g id="a_Node000010"><a xlink:title=" ">
<polygon fill="#e0e0e0" stroke="#999999" points="406.25,-82 367.75,-82 367.75,-62 406.25,-62 406.25,-82"/>
<text text-anchor="middle" x="387" y="-70.4" font-family="SourceSans" font-size="8.00">string</text>
</a>
</g>
</g>
<!-- Node5&#45;&gt;Node10 -->
<g id="edge9_Node000005_Node000010" class="edge">
<title>Node5&#45;&gt;Node10</title>
<g id="a_edge9_Node000005_Node000010"><a xlink:title=" ">
<path fill="none" stroke="#63b8ff" d="M666.76,-131.5C616.8,-128.04 505.05,-117.43 416,-88 415.03,-87.68 414.06,-87.33 413.09,-86.96"/>
<polygon fill="#63b8ff" stroke="#63b8ff" points="414.8,-83.89 404.24,-82.97 411.92,-90.27 414.8,-83.89"/>
</a>
</g>
</g>
<!-- Node11 -->
<g id="Node000011" class="node">
<title>Node11</title>
<g id="a_Node000011"><a xlink:title=" ">
<polygon fill="#e0e0e0" stroke="#999999" points="463.25,-82 424.75,-82 424.75,-62 463.25,-62 463.25,-82"/>
<text text-anchor="middle" x="444" y="-70.4" font-family="SourceSans" font-size="8.00">vector</text>
</a>
</g>
</g>
<!-- Node5&#45;&gt;Node11 -->
<g id="edge10_Node000005_Node000011" class="edge">
<title>Node5&#45;&gt;Node11</title>
<g id="a_edge10_Node000005_Node000011"><a xlink:title=" ">
<path fill="none" stroke="#63b8ff" d="M666.63,-129.99C624.7,-124.69 540.64,-111.89 473,-88 472.2,-87.72 471.39,-87.42 470.58,-87.1"/>
<polygon fill="#63b8ff" stroke="#63b8ff" points="472.14,-83.96 461.59,-83.01 469.24,-90.33 472.14,-83.96"/>
</a>
</g>
</g>
<!-- Node12 -->
<g id="Node000012" class="node">
<title>Node12</title>
<g id="a_Node000012"><a xlink:title=" ">
<polygon fill="#e0e0e0" stroke="#999999" points="510.4,-82 481.6,-82 481.6,-62 510.4,-62 510.4,-82"/>
<text text-anchor="middle" x="496" y="-70.4" font-family="SourceSans" font-size="8.00">set</text>
</a>
</g>
</g>
<!-- Node5&#45;&gt;Node12 -->
<g id="edge11_Node000005_Node000012" class="edge">
<title>Node5&#45;&gt;Node12</title>
<g id="a_edge11_Node000005_Node000012"><a xlink:title=" ">
<path fill="none" stroke="#63b8ff" d="M666.77,-128.96C631.92,-122.98 568.96,-110.04 519,-88 518.89,-87.95 518.78,-87.9 518.67,-87.85"/>
<polygon fill="#63b8ff" stroke="#63b8ff" points="520.49,-84.86 510.04,-83.07 517.09,-90.98 520.49,-84.86"/>
</a>
</g>
</g>
<!-- Node13 -->
<g id="Node000013" class="node">
<title>Node13</title>
<g id="a_Node000013"><a xlink:title=" ">
<polygon fill="#e0e0e0" stroke="#999999" points="605.75,-82 528.25,-82 528.25,-62 605.75,-62 605.75,-82"/>
<text text-anchor="middle" x="567" y="-70.4" font-family="SourceSans" font-size="8.00">unordered_map</text>
</a>
</g>
</g>
<!-- Node5&#45;&gt;Node13 -->
<g id="edge12_Node000005_Node000013" class="edge">
<title>Node5&#45;&gt;Node13</title>
<g id="a_edge12_Node000005_Node000013"><a xlink:title=" ">
<path fill="none" stroke="#63b8ff" d="M673.31,-123.62C652.79,-113.85 620.37,-98.41 596.72,-87.15"/>
<polygon fill="#63b8ff" stroke="#63b8ff" points="598.45,-84.1 587.92,-82.96 595.44,-90.42 598.45,-84.1"/>
</a>
</g>
</g>
<!-- Node14 -->
<g id="Node000014" class="node">
<title>Node14</title>
<g id="a_Node000014"><a xlink:title=" ">
<polygon fill="#e0e0e0" stroke="#999999" points="670,-82 624,-82 624,-62 670,-62 670,-82"/>
<text text-anchor="middle" x="647" y="-70.4" font-family="SourceSans" font-size="8.00">sstream</text>
</a>
</g>
</g>
<!-- Node5&#45;&gt;Node14 -->
<g id="edge13_Node000005_Node000014" class="edge">
<title>Node5&#45;&gt;Node14</title>
<g id="a_edge13_Node000005_Node000014"><a xlink:title=" ">
<path fill="none" stroke="#63b8ff" d="M685.81,-123.62C679.16,-114.94 669.08,-101.8 660.86,-91.08"/>
<polygon fill="#63b8ff" stroke="#63b8ff" points="663.77,-89.12 654.91,-83.31 658.21,-93.38 663.77,-89.12"/>
</a>
</g>
</g>
<!-- Node15 -->
<g id="Node000015" class="node">
<title>Node15</title>
<g id="a_Node000015"><a xlink:href="a60-svg-color_8h.html" target="_top" xlink:title=" ">
<polygon fill="white" stroke="#666666" points="122.75,-82 51.25,-82 51.25,-62 122.75,-62 122.75,-82"/>
<text text-anchor="middle" x="87" y="-70.4" font-family="SourceSans" font-size="8.00">a60&#45;svg&#45;color.h</text>
</a>
</g>
</g>
<!-- Node5&#45;&gt;Node15 -->
<g id="edge14_Node000005_Node000015" class="edge">
<title>Node5&#45;&gt;Node15</title>
<g id="a_edge14_Node000005_Node000015"><a xlink:title=" ">
<path fill="none" stroke="#63b8ff" d="M666.68,-133.13C585.91,-133.06 334.74,-129.29 132,-88 128.82,-87.35 125.56,-86.55 122.31,-85.65"/>
<polygon fill="#63b8ff" stroke="#63b8ff" points="123.5,-82.36 112.91,-82.79 121.46,-89.05 123.5,-82.36"/>
</a>
</g>
</g>
<!-- Node19 -->
<g id="Node000019" class="node">
<title>Node19</title>
<g id="a_Node000019"><a xlink:href="a60-svg-color-palette_8h.html" target="_top" xlink:title=" ">
<polygon fill="white" stroke="#666666" points="789.75,-82 688.25,-82 688.25,-62 789.75,-62 789.75,-82"/>
<text text-anchor="middle" x="739" y="-70.4" font-family="SourceSans" font-size="8.00">a60&#45;svg&#45;color&#45;palette.h</text>
</a>
</g>
</g>
<!-- Node5&#45;&gt;Node19 -->
<g id="edge19_Node000005_Node000019" class="edge">
<title>Node5&#45;&gt;Node19</title>
<g id="a_edge19_Node000005_Node000019"><a xlink:title=" ">
<path fill="none" stroke="#63b8ff" d="M700.19,-123.62C706.84,-114.94 716.92,-101.8 725.14,-91.08"/>
<polygon fill="#63b8ff" stroke="#63b8ff" points="727.79,-93.38 731.09,-83.31 722.23,-89.12 727.79,-93.38"/>
</a>
</g>
</g>
<!-- Node20 -->
<g id="Node000020" class="node">
<title>Node20</title>
<g id="a_Node000020"><a xlink:href="a60-svg-color-colorband_8h.html" target="_top" xlink:title=" ">
<polygon fill="white" stroke="#666666" points="920.38,-82 807.62,-82 807.62,-62 920.38,-62 920.38,-82"/>
<text text-anchor="middle" x="864" y="-70.4" font-family="SourceSans" font-size="8.00">a60&#45;svg&#45;color&#45;colorband.h</text>
</a>
</g>
</g>
<!-- Node5&#45;&gt;Node20 -->
<g id="edge20_Node000005_Node000020" class="edge">
<title>Node5&#45;&gt;Node20</title>
<g id="a_edge20_Node000005_Node000020"><a xlink:title=" ">
<path fill="none" stroke="#63b8ff" d="M719.34,-123.76C747.92,-113.73 793.79,-97.63 826.21,-86.26"/>
<polygon fill="#63b8ff" stroke="#63b8ff" points="827.36,-89.57 835.63,-82.95 825.04,-82.96 827.36,-89.57"/>
</a>
</g>
</g>
<!-- Node21 -->
<g id="Node000021" class="node">
<title>Node21</title>
<g id="a_Node000021"><a xlink:href="a60-svg-base-types_8h.html" target="_top" xlink:title=" ">
<polygon fill="white" stroke="#666666" points="1769.38,-82 1674.62,-82 1674.62,-62 1769.38,-62 1769.38,-82"/>
<text text-anchor="middle" x="1722" y="-70.4" font-family="SourceSans" font-size="8.00">a60&#45;svg&#45;base&#45;types.h</text>
</a>
</g>
</g>
<!-- Node5&#45;&gt;Node21 -->
<g id="edge21_Node000005_Node000021" class="edge">
<title>Node5&#45;&gt;Node21</title>
<g id="a_edge21_Node000005_Node000021"><a xlink:title=" ">
<path fill="none" stroke="#63b8ff" d="M719.43,-132.55C855.26,-130.11 1475.92,-117.5 1666,-88 1670.7,-87.27 1675.57,-86.3 1680.39,-85.2"/>
<polygon fill="#63b8ff" stroke="#63b8ff" points="1681.11,-88.63 1689.98,-82.82 1679.43,-81.83 1681.11,-88.63"/>
</a>
</g>
</g>
<!-- Node24 -->
<g id="Node000024" class="node">
<title>Node24</title>
<g id="a_Node000024"><a xlink:href="a60-svg-constants_8h.html" target="_top" xlink:title=" ">
<polygon fill="white" stroke="#666666" points="1029.5,-82 938.5,-82 938.5,-62 1029.5,-62 1029.5,-82"/>
<text text-anchor="middle" x="984" y="-70.4" font-family="SourceSans" font-size="8.00">a60&#45;svg&#45;constants.h</text>
</a>
</g>
</g>
<!-- Node5&#45;&gt;Node24 -->
<g id="edge26_Node000005_Node000024" class="edge">
<title>Node5&#45;&gt;Node24</title>
<g id="a_edge26_Node000005_Node000024"><a xlink:title=" ">
<path fill="none" stroke="#63b8ff" d="M719.33,-128.67C763.08,-121.32 853.41,-105.49 929,-88 932.57,-87.17 936.25,-86.27 939.95,-85.34"/>
<polygon fill="#63b8ff" stroke="#63b8ff" points="940.7,-88.76 949.49,-82.84 938.93,-81.99 940.7,-88.76"/>
</a>
</g>
</g>
<!-- Node25 -->
<g id="Node000025" class="node">
<title>Node25</title>
<g id="a_Node000025"><a xlink:href="a60-svg-elements_8h.html" target="_top" xlink:title=" ">
<polygon fill="white" stroke="#666666" points="1136.75,-82 1047.25,-82 1047.25,-62 1136.75,-62 1136.75,-82"/>
<text text-anchor="middle" x="1092" y="-70.4" font-family="SourceSans" font-size="8.00">a60&#45;svg&#45;elements.h</text>
</a>
</g>
</g>
<!-- Node5&#45;&gt;Node25 -->
<g id="edge27_Node000005_Node000025" class="edge">
<title>Node5&#45;&gt;Node25</title>
<g id="a_edge27_Node000005_Node000025"><a xlink:title=" ">
<path fill="none" stroke="#63b8ff" d="M719.26,-130.91C777.34,-125.99 920.92,-112.25 1039,-88 1042.77,-87.23 1046.66,-86.33 1050.54,-85.36"/>
<polygon fill="#63b8ff" stroke="#63b8ff" points="1051.12,-88.82 1059.9,-82.88 1049.33,-82.06 1051.12,-88.82"/>
</a>
</g>
</g>
<!-- Node26 -->
<g id="Node000026" class="node">
<title>Node26</title>
<g id="a_Node000026"><a xlink:href="a60-svg-elements-components_8h.html" target="_top" xlink:title=" ">
<polygon fill="white" stroke="#666666" points="1293.5,-82 1154.5,-82 1154.5,-62 1293.5,-62 1293.5,-82"/>
<text text-anchor="middle" x="1224" y="-70.4" font-family="SourceSans" font-size="8.00">a60&#45;svg&#45;elements&#45;components.h</text>
</a>
</g>
</g>
<!-- Node5&#45;&gt;Node26 -->
<g id="edge28_Node000005_Node000026" class="edge">
<title>Node5&#45;&gt;Node26</title>
<g id="a_edge28_Node000005_Node000026"><a xlink:title=" ">
<path fill="none" stroke="#63b8ff" d="M719.4,-131.22C789.26,-126.33 984.69,-111.47 1146,-88 1152.99,-86.98 1160.3,-85.77 1167.52,-84.49"/>
<polygon fill="#63b8ff" stroke="#63b8ff" points="1168.06,-87.95 1177.26,-82.7 1166.79,-81.06 1168.06,-87.95"/>
</a>
</g>
</g>
<!-- Node27 -->
<g id="Node000027" class="node">
<title>Node27</title>
<g id="a_Node000027"><a xlink:href="a60-svg-render-state_8h.html" target="_top" xlink:title=" ">
<polygon fill="white" stroke="#666666" points="1412.38,-82 1311.62,-82 1311.62,-62 1412.38,-62 1412.38,-82"/>
<text text-anchor="middle" x="1362" y="-70.4" font-family="SourceSans" font-size="8.00">a60&#45;svg&#45;render&#45;state.h</text>
</a>
</g>
</g>
<!-- Node5&#45;&gt;Node27 -->
<g id="edge29_Node000005_Node000027" class="edge">
<title>Node5&#45;&gt;Node27</title>
<g id="a_edge29_Node000005_Node000027"><a xlink:title=" ">
<path fill="none" stroke="#63b8ff" d="M719.35,-132.7C804.43,-131.39 1079.23,-124.41 1303,-88 1307.95,-87.2 1313.08,-86.17 1318.17,-85.04"/>
<polygon fill="#63b8ff" stroke="#63b8ff" points="1318.74,-88.51 1327.66,-82.79 1317.13,-81.7 1318.74,-88.51"/>
</a>
</g>
</g>
<!-- Node28 -->
<g id="Node000028" class="node">
<title>Node28</title>
<g id="a_Node000028"><a xlink:href="a60-svg-render-basics_8h.html" target="_top" xlink:title=" ">
<polygon fill="white" stroke="#666666" points="1535.62,-82 1430.38,-82 1430.38,-62 1535.62,-62 1535.62,-82"/>
<text text-anchor="middle" x="1483" y="-70.4" font-family="SourceSans" font-size="8.00">a60&#45;svg&#45;render&#45;basics.h</text>
</a>
</g>
</g>
<!-- Node5&#45;&gt;Node28 -->
<g id="edge30_Node000005_Node000028" class="edge">
<title>Node5&#45;&gt;Node28</title>
<g id="a_edge30_Node000005_Node000028"><a xlink:title=" ">
<path fill="none" stroke="#63b8ff" d="M719.29,-133.04C814.36,-132.82 1148.97,-128.99 1421,-88 1426.33,-87.2 1431.88,-86.16 1437.36,-85"/>
<polygon fill="#63b8ff" stroke="#63b8ff" points="1437.99,-88.44 1446.98,-82.83 1436.45,-81.62 1437.99,-88.44"/>
</a>
</g>
</g>
<!-- Node29 -->
<g id="Node000029" class="node">
<title>Node29</title>
<g id="a_Node000029"><a xlink:href="a60-svg-composite-and-layer-basics_8h.html" target="_top" xlink:title=" ">
<polygon fill="white" stroke="#666666" points="1656.5,-88 1553.5,-88 1553.5,-56 1656.5,-56 1656.5,-88"/>
<text text-anchor="start" x="1561.5" y="-76.4" font-family="SourceSans" font-size="8.00">a60&#45;svg&#45;composite&#45;and</text>
<text text-anchor="middle" x="1605" y="-64.4" font-family="SourceSans" font-size="8.00">&#45;layer&#45;basics.h</text>
</a>
</g>
</g>
<!-- Node5&#45;&gt;Node29 -->
<g id="edge31_Node000005_Node000029" class="edge">
<title>Node5&#45;&gt;Node29</title>
<g id="a_edge31_Node000005_Node000029"><a xlink:title=" ">
<path fill="none" stroke="#63b8ff" d="M719.33,-133.44C823.06,-134.81 1213.46,-136.35 1541.92,-88.28"/>
<polygon fill="#63b8ff" stroke="#63b8ff" points="1542.21,-91.78 1551.59,-86.85 1541.19,-84.85 1542.21,-91.78"/>
</a>
</g>
</g>
<!-- Node15&#45;&gt;Node3 -->
<g id="edge17_Node000015_Node000003" class="edge">
<title>Node15&#45;&gt;Node3</title>
<g id="a_edge17_Node000015_Node000003"><a xlink:title=" ">
<path fill="none" stroke="#63b8ff" d="M77,-61.62C67.36,-52.59 52.57,-38.72 40.9,-27.78"/>
<polygon fill="#63b8ff" stroke="#63b8ff" points="43.51,-25.43 33.82,-21.15 38.73,-30.54 43.51,-25.43"/>
</a>
</g>
</g>
<!-- Node16 -->
<g id="Node000016" class="node">
<title>Node16</title>
<g id="a_Node000016"><a xlink:title=" ">
<polygon fill="#e0e0e0" stroke="#999999" points="930.62,-20 897.38,-20 897.38,0 930.62,0 930.62,-20"/>
<text text-anchor="middle" x="914" y="-8.4" font-family="SourceSans" font-size="8.00">map</text>
</a>
</g>
</g>
<!-- Node15&#45;&gt;Node16 -->
<g id="edge15_Node000015_Node000016" class="edge">
<title>Node15&#45;&gt;Node16</title>
<g id="a_edge15_Node000015_Node000016"><a xlink:title=" ">
<path fill="none" stroke="#63b8ff" d="M111.44,-61.55C118.03,-59.37 125.21,-57.3 132,-56 280.97,-27.41 764.16,-14.48 885.94,-11.62"/>
<polygon fill="#63b8ff" stroke="#63b8ff" points="885.74,-15.13 895.66,-11.4 885.58,-8.13 885.74,-15.13"/>
</a>
</g>
</g>
<!-- Node17 -->
<g id="Node000017" class="node">
<title>Node17</title>
<g id="a_Node000017"><a xlink:title=" ">
<polygon fill="#e0e0e0" stroke="#999999" points="183.75,-20 130.25,-20 130.25,0 183.75,0 183.75,-20"/>
<text text-anchor="middle" x="157" y="-8.4" font-family="SourceSans" font-size="8.00">algorithm</text>
</a>
</g>
</g>
<!-- Node15&#45;&gt;Node17 -->
<g id="edge16_Node000015_Node000017" class="edge">
<title>Node15&#45;&gt;Node17</title>
<g id="a_edge16_Node000015_Node000017"><a xlink:title=" ">
<path fill="none" stroke="#63b8ff" d="M97.94,-61.62C108.58,-52.5 124.98,-38.45 137.8,-27.46"/>
<polygon fill="#63b8ff" stroke="#63b8ff" points="139.9,-30.26 145.22,-21.1 135.35,-24.95 139.9,-30.26"/>
</a>
</g>
</g>
<!-- Node18 -->
<g id="Node000018" class="node">
<title>Node18</title>
<g id="a_Node000018"><a xlink:title=" ">
<polygon fill="#e0e0e0" stroke="#999999" points="111.75,-20 64.25,-20 64.25,0 111.75,0 111.75,-20"/>
<text text-anchor="middle" x="88" y="-8.4" font-family="SourceSans" font-size="8.00">iomanip</text>
</a>
</g>
</g>
<!-- Node15&#45;&gt;Node18 -->
<g id="edge18_Node000015_Node000018" class="edge">
<title>Node15&#45;&gt;Node18</title>
<g id="a_edge18_Node000015_Node000018"><a xlink:title=" ">
<path fill="none" stroke="#63b8ff" d="M87.16,-61.62C87.29,-53.56 87.49,-41.65 87.66,-31.41"/>
<polygon fill="#63b8ff" stroke="#63b8ff" points="91.16,-31.68 87.82,-21.63 84.16,-31.57 91.16,-31.68"/>
</a>
</g>
</g>
<!-- Node21&#45;&gt;Node2 -->
<g id="edge24_Node000021_Node000002" class="edge">
<title>Node21&#45;&gt;Node2</title>
<g id="a_edge24_Node000021_Node000002"><a xlink:title=" ">
<path fill="none" stroke="#63b8ff" d="M1733.25,-61.62C1744.2,-52.5 1761.07,-38.45 1774.25,-27.46"/>
<polygon fill="#63b8ff" stroke="#63b8ff" points="1776.46,-30.17 1781.9,-21.08 1771.98,-24.79 1776.46,-30.17"/>
</a>
</g>
</g>
<!-- Node21&#45;&gt;Node16 -->
<g id="edge22_Node000021_Node000016" class="edge">
<title>Node21&#45;&gt;Node16</title>
<g id="a_edge22_Node000021_Node000016"><a xlink:title=" ">
<path fill="none" stroke="#63b8ff" d="M1691.14,-61.54C1683.03,-59.38 1674.25,-57.34 1666,-56 1386.81,-10.73 1042.7,-9.83 942.57,-10.64"/>
<polygon fill="#63b8ff" stroke="#63b8ff" points="942.56,-7.14 932.6,-10.74 942.63,-14.14 942.56,-7.14"/>
</a>
</g>
</g>
<!-- Node22 -->
<g id="Node000022" class="node">
<title>Node22</title>
<g id="a_Node000022"><a xlink:title=" ">
<polygon fill="#e0e0e0" stroke="#999999" points="1748.38,-20 1701.62,-20 1701.62,0 1748.38,0 1748.38,-20"/>
<text text-anchor="middle" x="1725" y="-8.4" font-family="SourceSans" font-size="8.00">ostream</text>
</a>
</g>
</g>
<!-- Node21&#45;&gt;Node22 -->
<g id="edge23_Node000021_Node000022" class="edge">
<title>Node21&#45;&gt;Node22</title>
<g id="a_edge23_Node000021_Node000022"><a xlink:title=" ">
<path fill="none" stroke="#63b8ff" d="M1722.47,-61.62C1722.87,-53.56 1723.47,-41.65 1723.98,-31.41"/>
<polygon fill="#63b8ff" stroke="#63b8ff" points="1727.46,-31.79 1724.47,-21.62 1720.47,-31.44 1727.46,-31.79"/>
</a>
</g>
</g>
<!-- Node23 -->
<g id="Node000023" class="node">
<title>Node23</title>
<g id="a_Node000023"><a xlink:title=" ">
<polygon fill="#e0e0e0" stroke="#999999" points="1683.12,-20 1640.88,-20 1640.88,0 1683.12,0 1683.12,-20"/>
<text text-anchor="middle" x="1662" y="-8.4" font-family="SourceSans" font-size="8.00">cstdint</text>
</a>
</g>
</g>
<!-- Node21&#45;&gt;Node23 -->
<g id="edge25_Node000021_Node000023" class="edge">
<title>Node21&#45;&gt;Node23</title>
<g id="a_edge25_Node000021_Node000023"><a xlink:title=" ">
<path fill="none" stroke="#63b8ff" d="M1712.62,-61.62C1703.68,-52.68 1689.99,-38.99 1679.1,-28.1"/>
<polygon fill="#63b8ff" stroke="#63b8ff" points="1681.73,-25.78 1672.18,-21.18 1676.78,-30.73 1681.73,-25.78"/>
</a>
</g>
</g>
</g>
</svg>
