<?xml version="1.0" encoding="UTF-8" standalone="no"?>
<!DOCTYPE svg PUBLIC "-//W3C//DTD SVG 1.1//EN"
 "http://www.w3.org/Graphics/SVG/1.1/DTD/svg11.dtd">
<!-- Generated by graphviz version 13.1.2 (20250808.2320)
 -->
<!-- Title: /home/bkoz/src/izzi/src/a60&#45;svg&#45;curves&#45;damped&#45;harmonograph.h Pages: 1 -->
<svg width="410pt" height="108pt"
 viewBox="0.00 0.00 410.00 108.00" xmlns="http://www.w3.org/2000/svg" xmlns:xlink="http://www.w3.org/1999/xlink">
<g id="graph0" class="graph" transform="scale(1 1) rotate(0) translate(4 104)">
<title>/home/bkoz/src/izzi/src/a60&#45;svg&#45;curves&#45;damped&#45;harmonograph.h</title>
<!-- Node1 -->
<g id="Node000001" class="node">
<title>Node1</title>
<g id="a_Node000001"><a xlink:title=" ">
<polygon fill="#999999" stroke="#666666" points="262.5,-100 144.5,-100 144.5,-56 262.5,-56 262.5,-100"/>
<text xml:space="preserve" text-anchor="start" x="152.5" y="-88.4" font-family="SourceSans" font-size="8.00">/home/bkoz/src/izzi</text>
<text xml:space="preserve" text-anchor="start" x="152.5" y="-76.4" font-family="SourceSans" font-size="8.00">/src/a60&#45;svg&#45;curves</text>
<text xml:space="preserve" text-anchor="middle" x="203.5" y="-64.4" font-family="SourceSans" font-size="8.00">&#45;damped&#45;harmonograph.h</text>
</a>
</g>
</g>
<!-- Node2 -->
<g id="Node000002" class="node">
<title>Node2</title>
<g id="a_Node000002"><a xlink:title=" ">
<polygon fill="#e0e0e0" stroke="#999999" points="49,-20 0,-20 0,0 49,0 49,-20"/>
<text xml:space="preserve" text-anchor="middle" x="24.5" y="-8.4" font-family="SourceSans" font-size="8.00">iostream</text>
</a>
</g>
</g>
<!-- Node1&#45;&gt;Node2 -->
<g id="edge1_Node000001_Node000002" class="edge">
<title>Node1&#45;&gt;Node2</title>
<g id="a_edge1_Node000001_Node000002"><a xlink:title=" ">
<path fill="none" stroke="#63b8ff" d="M145.38,-55.57C117.23,-45.19 84.34,-33.06 59.98,-24.08"/>
<polygon fill="#63b8ff" stroke="#63b8ff" points="61.45,-20.89 50.85,-20.72 59.02,-27.46 61.45,-20.89"/>
</a>
</g>
</g>
<!-- Node3 -->
<g id="Node000003" class="node">
<title>Node3</title>
<g id="a_Node000003"><a xlink:title=" ">
<polygon fill="#e0e0e0" stroke="#999999" points="105.75,-20 67.25,-20 67.25,0 105.75,0 105.75,-20"/>
<text xml:space="preserve" text-anchor="middle" x="86.5" y="-8.4" font-family="SourceSans" font-size="8.00">string</text>
</a>
</g>
</g>
<!-- Node1&#45;&gt;Node3 -->
<g id="edge2_Node000001_Node000003" class="edge">
<title>Node1&#45;&gt;Node3</title>
<g id="a_edge2_Node000001_Node000003"><a xlink:title=" ">
<path fill="none" stroke="#63b8ff" d="M165.51,-55.57C148.38,-45.91 128.56,-34.73 113.06,-25.98"/>
<polygon fill="#63b8ff" stroke="#63b8ff" points="114.85,-22.97 104.42,-21.11 111.41,-29.07 114.85,-22.97"/>
</a>
</g>
</g>
<!-- Node4 -->
<g id="Node000004" class="node">
<title>Node4</title>
<g id="a_Node000004"><a xlink:title=" ">
<polygon fill="#e0e0e0" stroke="#999999" points="165.25,-20 123.75,-20 123.75,0 165.25,0 165.25,-20"/>
<text xml:space="preserve" text-anchor="middle" x="144.5" y="-8.4" font-family="SourceSans" font-size="8.00">format</text>
</a>
</g>
</g>
<!-- Node1&#45;&gt;Node4 -->
<g id="edge3_Node000001_Node000004" class="edge">
<title>Node1&#45;&gt;Node4</title>
<g id="a_edge3_Node000001_Node000004"><a xlink:title=" ">
<path fill="none" stroke="#63b8ff" d="M184.51,-55.75C176.77,-47.1 167.93,-37.21 160.53,-28.93"/>
<polygon fill="#63b8ff" stroke="#63b8ff" points="163.2,-26.67 153.93,-21.55 157.98,-31.34 163.2,-26.67"/>
</a>
</g>
</g>
<!-- Node5 -->
<g id="Node000005" class="node">
<title>Node5</title>
<g id="a_Node000005"><a xlink:title=" ">
<polygon fill="#e0e0e0" stroke="#999999" points="223.5,-20 183.5,-20 183.5,0 223.5,0 223.5,-20"/>
<text xml:space="preserve" text-anchor="middle" x="203.5" y="-8.4" font-family="SourceSans" font-size="8.00">cmath</text>
</a>
</g>
</g>
<!-- Node1&#45;&gt;Node5 -->
<g id="edge4_Node000001_Node000005" class="edge">
<title>Node1&#45;&gt;Node5</title>
<g id="a_edge4_Node000001_Node000005"><a xlink:title=" ">
<path fill="none" stroke="#63b8ff" d="M203.5,-55.75C203.5,-48.13 203.5,-39.53 203.5,-31.93"/>
<polygon fill="#63b8ff" stroke="#63b8ff" points="207,-31.93 203.5,-21.93 200,-31.93 207,-31.93"/>
</a>
</g>
</g>
<!-- Node6 -->
<g id="Node000006" class="node">
<title>Node6</title>
<g id="a_Node000006"><a xlink:title=" ">
<polygon fill="#e0e0e0" stroke="#999999" points="291.75,-20 241.25,-20 241.25,0 291.75,0 291.75,-20"/>
<text xml:space="preserve" text-anchor="middle" x="266.5" y="-8.4" font-family="SourceSans" font-size="8.00">numbers</text>
</a>
</g>
</g>
<!-- Node1&#45;&gt;Node6 -->
<g id="edge5_Node000001_Node000006" class="edge">
<title>Node1&#45;&gt;Node6</title>
<g id="a_edge5_Node000001_Node000006"><a xlink:title=" ">
<path fill="none" stroke="#63b8ff" d="M223.78,-55.75C232.13,-47.01 241.68,-37 249.64,-28.66"/>
<polygon fill="#63b8ff" stroke="#63b8ff" points="252.09,-31.16 256.46,-21.51 247.03,-26.33 252.09,-31.16"/>
</a>
</g>
</g>
<!-- Node7 -->
<g id="Node000007" class="node">
<title>Node7</title>
<g id="a_Node000007"><a xlink:title=" ">
<polygon fill="#e0e0e0" stroke="#999999" points="345.62,-20 309.38,-20 309.38,0 345.62,0 345.62,-20"/>
<text xml:space="preserve" text-anchor="middle" x="327.5" y="-8.4" font-family="SourceSans" font-size="8.00">tuple</text>
</a>
</g>
</g>
<!-- Node1&#45;&gt;Node7 -->
<g id="edge6_Node000001_Node000007" class="edge">
<title>Node1&#45;&gt;Node7</title>
<g id="a_edge6_Node000001_Node000007"><a xlink:title=" ">
<path fill="none" stroke="#63b8ff" d="M243.76,-55.57C262.09,-45.81 283.32,-34.51 299.82,-25.73"/>
<polygon fill="#63b8ff" stroke="#63b8ff" points="301.39,-28.86 308.57,-21.08 298.1,-22.69 301.39,-28.86"/>
</a>
</g>
</g>
<!-- Node8 -->
<g id="Node000008" class="node">
<title>Node8</title>
<g id="a_Node000008"><a xlink:title=" ">
<polygon fill="#e0e0e0" stroke="#999999" points="401.75,-20 363.25,-20 363.25,0 401.75,0 401.75,-20"/>
<text xml:space="preserve" text-anchor="middle" x="382.5" y="-8.4" font-family="SourceSans" font-size="8.00">vector</text>
</a>
</g>
</g>
<!-- Node1&#45;&gt;Node8 -->
<g id="edge7_Node000001_Node000008" class="edge">
<title>Node1&#45;&gt;Node8</title>
<g id="a_edge7_Node000001_Node000008"><a xlink:title=" ">
<path fill="none" stroke="#63b8ff" d="M261.62,-55.57C291.89,-44.41 327.65,-31.22 352.39,-22.1"/>
<polygon fill="#63b8ff" stroke="#63b8ff" points="353.32,-25.49 361.5,-18.74 350.9,-18.92 353.32,-25.49"/>
</a>
</g>
</g>
</g>
</svg>
