<?xml version="1.0" encoding="UTF-8" standalone="no"?>
<!DOCTYPE svg PUBLIC "-//W3C//DTD SVG 1.1//EN"
 "http://www.w3.org/Graphics/SVG/1.1/DTD/svg11.dtd">
<!-- Generated by graphviz version 12.2.1 (20241206.2353)
 -->
<!-- Title: /home/bkoz/src/izzi/src/a60&#45;svg.h Pages: 1 -->
<svg width="1878pt" height="164pt"
 viewBox="0.00 0.00 1877.75 164.00" xmlns="http://www.w3.org/2000/svg" xmlns:xlink="http://www.w3.org/1999/xlink">
<g id="graph0" class="graph" transform="scale(1 1) rotate(0) translate(4 160)">
<title>/home/bkoz/src/izzi/src/a60&#45;svg.h</title>
<!-- Node1 -->
<g id="Node000001" class="node">
<title>Node1</title>
<g id="a_Node000001"><a xlink:title=" ">
<polygon fill="#999999" stroke="#666666" points="728.38,-156 638.12,-156 638.12,-124 728.38,-124 728.38,-156"/>
<text text-anchor="start" x="646.12" y="-144.4" font-family="SourceSans" font-size="8.00">/home/bkoz/src/izzi</text>
<text text-anchor="middle" x="683.25" y="-132.4" font-family="SourceSans" font-size="8.00">/src/a60&#45;svg.h</text>
</a>
</g>
</g>
<!-- Node2 -->
<g id="Node000002" class="node">
<title>Node2</title>
<g id="a_Node000002"><a xlink:title=" ">
<polygon fill="#e0e0e0" stroke="#999999" points="44.5,-82 0,-82 0,-62 44.5,-62 44.5,-82"/>
<text text-anchor="middle" x="22.25" y="-70.4" font-family="SourceSans" font-size="8.00">cstddef</text>
</a>
</g>
</g>
<!-- Node1&#45;&gt;Node2 -->
<g id="edge1_Node000001_Node000002" class="edge">
<title>Node1&#45;&gt;Node2</title>
<g id="a_edge1_Node000001_Node000002"><a xlink:title=" ">
<path fill="none" stroke="#63b8ff" d="M637.63,-137.49C512.11,-132.98 163.63,-118.04 53.25,-88 51.89,-87.63 50.51,-87.2 49.14,-86.72"/>
<polygon fill="#63b8ff" stroke="#63b8ff" points="50.84,-83.64 40.26,-83.01 48.14,-90.1 50.84,-83.64"/>
</a>
</g>
</g>
<!-- Node3 -->
<g id="Node000003" class="node">
<title>Node3</title>
<g id="a_Node000003"><a xlink:title=" ">
<polygon fill="#e0e0e0" stroke="#999999" points="102.25,-82 62.25,-82 62.25,-62 102.25,-62 102.25,-82"/>
<text text-anchor="middle" x="82.25" y="-70.4" font-family="SourceSans" font-size="8.00">cmath</text>
</a>
</g>
</g>
<!-- Node1&#45;&gt;Node3 -->
<g id="edge2_Node000001_Node000003" class="edge">
<title>Node1&#45;&gt;Node3</title>
<g id="a_edge2_Node000001_Node000003"><a xlink:title=" ">
<path fill="none" stroke="#63b8ff" d="M637.94,-139.87C540.7,-140.66 305.49,-136.85 116.25,-88 114.61,-87.58 112.95,-87.08 111.29,-86.54"/>
<polygon fill="#63b8ff" stroke="#63b8ff" points="112.56,-83.28 101.98,-82.93 110.04,-89.8 112.56,-83.28"/>
</a>
</g>
</g>
<!-- Node4 -->
<g id="Node000004" class="node">
<title>Node4</title>
<g id="a_Node000004"><a xlink:title=" ">
<polygon fill="#e0e0e0" stroke="#999999" points="115,-20 61.5,-20 61.5,0 115,0 115,-20"/>
<text text-anchor="middle" x="88.25" y="-8.4" font-family="SourceSans" font-size="8.00">algorithm</text>
</a>
</g>
</g>
<!-- Node1&#45;&gt;Node4 -->
<g id="edge3_Node000001_Node000004" class="edge">
<title>Node1&#45;&gt;Node4</title>
<g id="a_edge3_Node000001_Node000004"><a xlink:title=" ">
<path fill="none" stroke="#63b8ff" d="M637.68,-139.16C524.38,-138.86 233.01,-133.54 149.25,-88 125.55,-75.11 107.85,-48.76 97.78,-30.49"/>
<polygon fill="#63b8ff" stroke="#63b8ff" points="100.93,-28.96 93.21,-21.7 94.72,-32.19 100.93,-28.96"/>
</a>
</g>
</g>
<!-- Node5 -->
<g id="Node000005" class="node">
<title>Node5</title>
<g id="a_Node000005"><a xlink:title=" ">
<polygon fill="#e0e0e0" stroke="#999999" points="508.62,-82 473.88,-82 473.88,-62 508.62,-62 508.62,-82"/>
<text text-anchor="middle" x="491.25" y="-70.4" font-family="SourceSans" font-size="8.00">array</text>
</a>
</g>
</g>
<!-- Node1&#45;&gt;Node5 -->
<g id="edge4_Node000001_Node000005" class="edge">
<title>Node1&#45;&gt;Node5</title>
<g id="a_edge4_Node000001_Node000005"><a xlink:title=" ">
<path fill="none" stroke="#63b8ff" d="M637.88,-127.71C604.22,-118.68 557.55,-104.77 518.25,-88 517.9,-87.85 517.55,-87.7 517.19,-87.54"/>
<polygon fill="#63b8ff" stroke="#63b8ff" points="518.83,-84.45 508.32,-83.12 515.71,-90.71 518.83,-84.45"/>
</a>
</g>
</g>
<!-- Node6 -->
<g id="Node000006" class="node">
<title>Node6</title>
<g id="a_Node000006"><a xlink:title=" ">
<polygon fill="#e0e0e0" stroke="#999999" points="563.38,-82 527.12,-82 527.12,-62 563.38,-62 563.38,-82"/>
<text text-anchor="middle" x="545.25" y="-70.4" font-family="SourceSans" font-size="8.00">tuple</text>
</a>
</g>
</g>
<!-- Node1&#45;&gt;Node6 -->
<g id="edge5_Node000001_Node000006" class="edge">
<title>Node1&#45;&gt;Node6</title>
<g id="a_edge5_Node000001_Node000006"><a xlink:title=" ">
<path fill="none" stroke="#63b8ff" d="M647.93,-123.6C625.95,-113.81 597.22,-100.65 572.25,-88 572.03,-87.89 571.82,-87.78 571.6,-87.67"/>
<polygon fill="#63b8ff" stroke="#63b8ff" points="573.51,-84.72 563.04,-83.11 570.23,-90.9 573.51,-84.72"/>
</a>
</g>
</g>
<!-- Node7 -->
<g id="Node000007" class="node">
<title>Node7</title>
<g id="a_Node000007"><a xlink:title=" ">
<polygon fill="#e0e0e0" stroke="#999999" points="619.5,-82 581,-82 581,-62 619.5,-62 619.5,-82"/>
<text text-anchor="middle" x="600.25" y="-70.4" font-family="SourceSans" font-size="8.00">string</text>
</a>
</g>
</g>
<!-- Node1&#45;&gt;Node7 -->
<g id="edge6_Node000001_Node000007" class="edge">
<title>Node1&#45;&gt;Node7</title>
<g id="a_edge6_Node000001_Node000007"><a xlink:title=" ">
<path fill="none" stroke="#63b8ff" d="M664,-123.69C651.05,-113.4 634,-99.84 620.79,-89.33"/>
<polygon fill="#63b8ff" stroke="#63b8ff" points="623.16,-86.74 613.15,-83.26 618.8,-92.22 623.16,-86.74"/>
</a>
</g>
</g>
<!-- Node8 -->
<g id="Node000008" class="node">
<title>Node8</title>
<g id="a_Node000008"><a xlink:title=" ">
<polygon fill="#e0e0e0" stroke="#999999" points="676.5,-82 638,-82 638,-62 676.5,-62 676.5,-82"/>
<text text-anchor="middle" x="657.25" y="-70.4" font-family="SourceSans" font-size="8.00">vector</text>
</a>
</g>
</g>
<!-- Node1&#45;&gt;Node8 -->
<g id="edge7_Node000001_Node000008" class="edge">
<title>Node1&#45;&gt;Node8</title>
<g id="a_edge7_Node000001_Node000008"><a xlink:title=" ">
<path fill="none" stroke="#63b8ff" d="M677.22,-123.69C673.6,-114.5 668.95,-102.7 665.05,-92.8"/>
<polygon fill="#63b8ff" stroke="#63b8ff" points="668.4,-91.75 661.47,-83.72 661.88,-94.31 668.4,-91.75"/>
</a>
</g>
</g>
<!-- Node9 -->
<g id="Node000009" class="node">
<title>Node9</title>
<g id="a_Node000009"><a xlink:title=" ">
<polygon fill="#e0e0e0" stroke="#999999" points="723.65,-82 694.85,-82 694.85,-62 723.65,-62 723.65,-82"/>
<text text-anchor="middle" x="709.25" y="-70.4" font-family="SourceSans" font-size="8.00">set</text>
</a>
</g>
</g>
<!-- Node1&#45;&gt;Node9 -->
<g id="edge8_Node000001_Node000009" class="edge">
<title>Node1&#45;&gt;Node9</title>
<g id="a_edge8_Node000001_Node000009"><a xlink:title=" ">
<path fill="none" stroke="#63b8ff" d="M689.28,-123.69C692.9,-114.5 697.55,-102.7 701.45,-92.8"/>
<polygon fill="#63b8ff" stroke="#63b8ff" points="704.62,-94.31 705.03,-83.72 698.1,-91.75 704.62,-94.31"/>
</a>
</g>
</g>
<!-- Node10 -->
<g id="Node000010" class="node">
<title>Node10</title>
<g id="a_Node000010"><a xlink:title=" ">
<polygon fill="#e0e0e0" stroke="#999999" points="819,-82 741.5,-82 741.5,-62 819,-62 819,-82"/>
<text text-anchor="middle" x="780.25" y="-70.4" font-family="SourceSans" font-size="8.00">unordered_map</text>
</a>
</g>
</g>
<!-- Node1&#45;&gt;Node10 -->
<g id="edge9_Node000001_Node000010" class="edge">
<title>Node1&#45;&gt;Node10</title>
<g id="a_edge9_Node000001_Node000010"><a xlink:title=" ">
<path fill="none" stroke="#63b8ff" d="M705.75,-123.69C721.17,-113.2 741.58,-99.31 757.14,-88.73"/>
<polygon fill="#63b8ff" stroke="#63b8ff" points="759.01,-91.69 765.31,-83.17 755.07,-85.9 759.01,-91.69"/>
</a>
</g>
</g>
<!-- Node11 -->
<g id="Node000011" class="node">
<title>Node11</title>
<g id="a_Node000011"><a xlink:title=" ">
<polygon fill="#e0e0e0" stroke="#999999" points="883.25,-82 837.25,-82 837.25,-62 883.25,-62 883.25,-82"/>
<text text-anchor="middle" x="860.25" y="-70.4" font-family="SourceSans" font-size="8.00">sstream</text>
</a>
</g>
</g>
<!-- Node1&#45;&gt;Node11 -->
<g id="edge10_Node000001_Node000011" class="edge">
<title>Node1&#45;&gt;Node11</title>
<g id="a_edge10_Node000001_Node000011"><a xlink:title=" ">
<path fill="none" stroke="#63b8ff" d="M728.75,-124.3C757.55,-114.68 795.4,-101.44 828.25,-88 829.04,-87.68 829.83,-87.35 830.64,-87.01"/>
<polygon fill="#63b8ff" stroke="#63b8ff" points="832,-90.23 839.71,-82.97 829.16,-83.84 832,-90.23"/>
</a>
</g>
</g>
<!-- Node12 -->
<g id="Node000012" class="node">
<title>Node12</title>
<g id="a_Node000012"><a xlink:href="a60-svg-color_8h.html" target="_top" xlink:title=" ">
<polygon fill="white" stroke="#666666" points="230,-82 158.5,-82 158.5,-62 230,-62 230,-82"/>
<text text-anchor="middle" x="194.25" y="-70.4" font-family="SourceSans" font-size="8.00">a60&#45;svg&#45;color.h</text>
</a>
</g>
</g>
<!-- Node1&#45;&gt;Node12 -->
<g id="edge11_Node000001_Node000012" class="edge">
<title>Node1&#45;&gt;Node12</title>
<g id="a_edge11_Node000001_Node000012"><a xlink:title=" ">
<path fill="none" stroke="#63b8ff" d="M637.67,-136.89C556.66,-132.44 382.61,-119.77 239.25,-88 236.26,-87.34 233.19,-86.55 230.13,-85.69"/>
<polygon fill="#63b8ff" stroke="#63b8ff" points="231.25,-82.38 220.67,-82.79 229.2,-89.07 231.25,-82.38"/>
</a>
</g>
</g>
<!-- Node16 -->
<g id="Node000016" class="node">
<title>Node16</title>
<g id="a_Node000016"><a xlink:href="a60-svg-color-palette_8h.html" target="_top" xlink:title=" ">
<polygon fill="white" stroke="#666666" points="1003,-82 901.5,-82 901.5,-62 1003,-62 1003,-82"/>
<text text-anchor="middle" x="952.25" y="-70.4" font-family="SourceSans" font-size="8.00">a60&#45;svg&#45;color&#45;palette.h</text>
</a>
</g>
</g>
<!-- Node1&#45;&gt;Node16 -->
<g id="edge16_Node000001_Node000016" class="edge">
<title>Node1&#45;&gt;Node16</title>
<g id="a_edge16_Node000001_Node000016"><a xlink:title=" ">
<path fill="none" stroke="#63b8ff" d="M728.52,-128.03C770.87,-117.75 835.87,-101.93 892.25,-88 895.96,-87.08 899.8,-86.13 903.65,-85.17"/>
<polygon fill="#63b8ff" stroke="#63b8ff" points="904.16,-88.65 913.02,-82.84 902.47,-81.86 904.16,-88.65"/>
</a>
</g>
</g>
<!-- Node17 -->
<g id="Node000017" class="node">
<title>Node17</title>
<g id="a_Node000017"><a xlink:href="a60-svg-color-colorband_8h.html" target="_top" xlink:title=" ">
<polygon fill="white" stroke="#666666" points="1133.62,-82 1020.88,-82 1020.88,-62 1133.62,-62 1133.62,-82"/>
<text text-anchor="middle" x="1077.25" y="-70.4" font-family="SourceSans" font-size="8.00">a60&#45;svg&#45;color&#45;colorband.h</text>
</a>
</g>
</g>
<!-- Node1&#45;&gt;Node17 -->
<g id="edge17_Node000001_Node000017" class="edge">
<title>Node1&#45;&gt;Node17</title>
<g id="a_edge17_Node000001_Node000017"><a xlink:title=" ">
<path fill="none" stroke="#63b8ff" d="M728.67,-133.03C792.3,-124.42 911.51,-107.41 1012.25,-88 1017.18,-87.05 1022.31,-85.99 1027.42,-84.89"/>
<polygon fill="#63b8ff" stroke="#63b8ff" points="1028.03,-88.34 1037.03,-82.76 1026.51,-81.51 1028.03,-88.34"/>
</a>
</g>
</g>
<!-- Node18 -->
<g id="Node000018" class="node">
<title>Node18</title>
<g id="a_Node000018"><a xlink:href="a60-svg-base-types_8h.html" target="_top" xlink:title=" ">
<polygon fill="white" stroke="#666666" points="342.62,-82 247.88,-82 247.88,-62 342.62,-62 342.62,-82"/>
<text text-anchor="middle" x="295.25" y="-70.4" font-family="SourceSans" font-size="8.00">a60&#45;svg&#45;base&#45;types.h</text>
</a>
</g>
</g>
<!-- Node1&#45;&gt;Node18 -->
<g id="edge18_Node000001_Node000018" class="edge">
<title>Node1&#45;&gt;Node18</title>
<g id="a_edge18_Node000001_Node000018"><a xlink:title=" ">
<path fill="none" stroke="#63b8ff" d="M637.74,-133.52C573.68,-125.45 453.43,-109.05 352.25,-88 348.21,-87.16 344.02,-86.21 339.83,-85.21"/>
<polygon fill="#63b8ff" stroke="#63b8ff" points="340.89,-81.86 330.34,-82.84 339.19,-88.65 340.89,-81.86"/>
</a>
</g>
</g>
<!-- Node22 -->
<g id="Node000022" class="node">
<title>Node22</title>
<g id="a_Node000022"><a xlink:href="a60-svg-constants_8h.html" target="_top" xlink:title=" ">
<polygon fill="white" stroke="#666666" points="1242.75,-82 1151.75,-82 1151.75,-62 1242.75,-62 1242.75,-82"/>
<text text-anchor="middle" x="1197.25" y="-70.4" font-family="SourceSans" font-size="8.00">a60&#45;svg&#45;constants.h</text>
</a>
</g>
</g>
<!-- Node1&#45;&gt;Node22 -->
<g id="edge23_Node000001_Node000022" class="edge">
<title>Node1&#45;&gt;Node22</title>
<g id="a_edge23_Node000001_Node000022"><a xlink:title=" ">
<path fill="none" stroke="#63b8ff" d="M728.55,-136.31C811.31,-130.88 992.22,-116.61 1142.25,-88 1146.33,-87.22 1150.55,-86.3 1154.76,-85.29"/>
<polygon fill="#63b8ff" stroke="#63b8ff" points="1155.45,-88.73 1164.28,-82.87 1153.72,-81.94 1155.45,-88.73"/>
</a>
</g>
</g>
<!-- Node23 -->
<g id="Node000023" class="node">
<title>Node23</title>
<g id="a_Node000023"><a xlink:href="a60-svg-elements_8h.html" target="_top" xlink:title=" ">
<polygon fill="white" stroke="#666666" points="1350,-82 1260.5,-82 1260.5,-62 1350,-62 1350,-82"/>
<text text-anchor="middle" x="1305.25" y="-70.4" font-family="SourceSans" font-size="8.00">a60&#45;svg&#45;elements.h</text>
</a>
</g>
</g>
<!-- Node1&#45;&gt;Node23 -->
<g id="edge24_Node000001_Node000023" class="edge">
<title>Node1&#45;&gt;Node23</title>
<g id="a_edge24_Node000001_Node000023"><a xlink:title=" ">
<path fill="none" stroke="#63b8ff" d="M728.63,-137.8C825.55,-134.61 1059.62,-123.57 1252.25,-88 1256.3,-87.25 1260.48,-86.33 1264.64,-85.32"/>
<polygon fill="#63b8ff" stroke="#63b8ff" points="1265.24,-88.78 1274.02,-82.86 1263.46,-82.01 1265.24,-88.78"/>
</a>
</g>
</g>
<!-- Node24 -->
<g id="Node000024" class="node">
<title>Node24</title>
<g id="a_Node000024"><a xlink:href="a60-svg-elements-components_8h.html" target="_top" xlink:title=" ">
<polygon fill="white" stroke="#666666" points="1506.75,-82 1367.75,-82 1367.75,-62 1506.75,-62 1506.75,-82"/>
<text text-anchor="middle" x="1437.25" y="-70.4" font-family="SourceSans" font-size="8.00">a60&#45;svg&#45;elements&#45;components.h</text>
</a>
</g>
</g>
<!-- Node1&#45;&gt;Node24 -->
<g id="edge25_Node000001_Node000024" class="edge">
<title>Node1&#45;&gt;Node24</title>
<g id="a_edge25_Node000001_Node000024"><a xlink:title=" ">
<path fill="none" stroke="#63b8ff" d="M728.53,-137.38C837.53,-133.09 1123.01,-119.52 1359.25,-88 1366.51,-87.03 1374.12,-85.82 1381.61,-84.5"/>
<polygon fill="#63b8ff" stroke="#63b8ff" points="1382.15,-87.96 1391.36,-82.72 1380.89,-81.08 1382.15,-87.96"/>
</a>
</g>
</g>
<!-- Node25 -->
<g id="Node000025" class="node">
<title>Node25</title>
<g id="a_Node000025"><a xlink:href="a60-svg-render-state_8h.html" target="_top" xlink:title=" ">
<polygon fill="white" stroke="#666666" points="1625.62,-82 1524.88,-82 1524.88,-62 1625.62,-62 1625.62,-82"/>
<text text-anchor="middle" x="1575.25" y="-70.4" font-family="SourceSans" font-size="8.00">a60&#45;svg&#45;render&#45;state.h</text>
</a>
</g>
</g>
<!-- Node1&#45;&gt;Node25 -->
<g id="edge26_Node000001_Node000025" class="edge">
<title>Node1&#45;&gt;Node25</title>
<g id="a_edge26_Node000001_Node000025"><a xlink:title=" ">
<path fill="none" stroke="#63b8ff" d="M728.72,-139.2C854.68,-139.12 1218.5,-134.54 1516.25,-88 1521.26,-87.22 1526.47,-86.2 1531.62,-85.07"/>
<polygon fill="#63b8ff" stroke="#63b8ff" points="1532.31,-88.5 1541.24,-82.79 1530.7,-81.69 1532.31,-88.5"/>
</a>
</g>
</g>
<!-- Node26 -->
<g id="Node000026" class="node">
<title>Node26</title>
<g id="a_Node000026"><a xlink:href="a60-svg-render-basics_8h.html" target="_top" xlink:title=" ">
<polygon fill="white" stroke="#666666" points="1748.88,-82 1643.62,-82 1643.62,-62 1748.88,-62 1748.88,-82"/>
<text text-anchor="middle" x="1696.25" y="-70.4" font-family="SourceSans" font-size="8.00">a60&#45;svg&#45;render&#45;basics.h</text>
</a>
</g>
</g>
<!-- Node1&#45;&gt;Node26 -->
<g id="edge27_Node000001_Node000026" class="edge">
<title>Node1&#45;&gt;Node26</title>
<g id="a_edge27_Node000001_Node000026"><a xlink:title=" ">
<path fill="none" stroke="#63b8ff" d="M728.59,-139.51C865.85,-140.43 1288.66,-138.63 1634.25,-88 1639.65,-87.21 1645.27,-86.17 1650.82,-85"/>
<polygon fill="#63b8ff" stroke="#63b8ff" points="1651.58,-88.42 1660.56,-82.8 1650.03,-81.59 1651.58,-88.42"/>
</a>
</g>
</g>
<!-- Node27 -->
<g id="Node000027" class="node">
<title>Node27</title>
<g id="a_Node000027"><a xlink:href="a60-svg-composite-and-layer-basics_8h.html" target="_top" xlink:title=" ">
<polygon fill="white" stroke="#666666" points="1869.75,-88 1766.75,-88 1766.75,-56 1869.75,-56 1869.75,-88"/>
<text text-anchor="start" x="1774.75" y="-76.4" font-family="SourceSans" font-size="8.00">a60&#45;svg&#45;composite&#45;and</text>
<text text-anchor="middle" x="1818.25" y="-64.4" font-family="SourceSans" font-size="8.00">&#45;layer&#45;basics.h</text>
</a>
</g>
</g>
<!-- Node1&#45;&gt;Node27 -->
<g id="edge28_Node000001_Node000027" class="edge">
<title>Node1&#45;&gt;Node27</title>
<g id="a_edge28_Node000001_Node000027"><a xlink:title=" ">
<path fill="none" stroke="#63b8ff" d="M728.68,-138.04C903.37,-134.17 1532.78,-118.5 1755.12,-88.24"/>
<polygon fill="#63b8ff" stroke="#63b8ff" points="1755.43,-91.73 1764.84,-86.86 1754.45,-84.8 1755.43,-91.73"/>
</a>
</g>
</g>
<!-- Node28 -->
<g id="Node000028" class="node">
<title>Node28</title>
<g id="a_Node000028"><a xlink:href="a60-svg-sequences_8h.html" target="_top" xlink:title=" ">
<polygon fill="white" stroke="#666666" points="455.62,-82 360.88,-82 360.88,-62 455.62,-62 455.62,-82"/>
<text text-anchor="middle" x="408.25" y="-70.4" font-family="SourceSans" font-size="8.00">a60&#45;svg&#45;sequences.h</text>
</a>
</g>
</g>
<!-- Node1&#45;&gt;Node28 -->
<g id="edge29_Node000001_Node000028" class="edge">
<title>Node1&#45;&gt;Node28</title>
<g id="a_edge29_Node000001_Node000028"><a xlink:title=" ">
<path fill="none" stroke="#63b8ff" d="M638.04,-130.29C591.94,-120.39 518.87,-103.56 456.25,-88 452.83,-87.15 449.31,-86.26 445.78,-85.35"/>
<polygon fill="#63b8ff" stroke="#63b8ff" points="446.7,-81.97 436.14,-82.82 444.92,-88.74 446.7,-81.97"/>
</a>
</g>
</g>
<!-- Node12&#45;&gt;Node4 -->
<g id="edge13_Node000012_Node000004" class="edge">
<title>Node12&#45;&gt;Node4</title>
<g id="a_edge13_Node000012_Node000004"><a xlink:title=" ">
<path fill="none" stroke="#63b8ff" d="M177.69,-61.62C160.81,-52.07 134.37,-37.11 114.61,-25.92"/>
<polygon fill="#63b8ff" stroke="#63b8ff" points="116.44,-22.93 106.01,-21.05 112.99,-29.03 116.44,-22.93"/>
</a>
</g>
</g>
<!-- Node13 -->
<g id="Node000013" class="node">
<title>Node13</title>
<g id="a_Node000013"><a xlink:title=" ">
<polygon fill="#e0e0e0" stroke="#999999" points="231.88,-20 198.62,-20 198.62,0 231.88,0 231.88,-20"/>
<text text-anchor="middle" x="215.25" y="-8.4" font-family="SourceSans" font-size="8.00">map</text>
</a>
</g>
</g>
<!-- Node12&#45;&gt;Node13 -->
<g id="edge12_Node000012_Node000013" class="edge">
<title>Node12&#45;&gt;Node13</title>
<g id="a_edge12_Node000012_Node000013"><a xlink:title=" ">
<path fill="none" stroke="#63b8ff" d="M197.53,-61.62C200.41,-53.39 204.71,-41.13 208.34,-30.74"/>
<polygon fill="#63b8ff" stroke="#63b8ff" points="211.56,-32.14 211.56,-21.54 204.95,-29.82 211.56,-32.14"/>
</a>
</g>
</g>
<!-- Node14 -->
<g id="Node000014" class="node">
<title>Node14</title>
<g id="a_Node000014"><a xlink:title=" ">
<polygon fill="#e0e0e0" stroke="#999999" points="360.25,-20 314.25,-20 314.25,0 360.25,0 360.25,-20"/>
<text text-anchor="middle" x="337.25" y="-8.4" font-family="SourceSans" font-size="8.00">random</text>
</a>
</g>
</g>
<!-- Node12&#45;&gt;Node14 -->
<g id="edge14_Node000012_Node000014" class="edge">
<title>Node12&#45;&gt;Node14</title>
<g id="a_edge14_Node000012_Node000014"><a xlink:title=" ">
<path fill="none" stroke="#63b8ff" d="M216.59,-61.62C240.21,-51.72 277.68,-35.99 304.6,-24.7"/>
<polygon fill="#63b8ff" stroke="#63b8ff" points="305.8,-27.99 313.67,-20.89 303.09,-21.54 305.8,-27.99"/>
</a>
</g>
</g>
<!-- Node15 -->
<g id="Node000015" class="node">
<title>Node15</title>
<g id="a_Node000015"><a xlink:title=" ">
<polygon fill="#e0e0e0" stroke="#999999" points="181,-20 133.5,-20 133.5,0 181,0 181,-20"/>
<text text-anchor="middle" x="157.25" y="-8.4" font-family="SourceSans" font-size="8.00">iomanip</text>
</a>
</g>
</g>
<!-- Node12&#45;&gt;Node15 -->
<g id="edge15_Node000012_Node000015" class="edge">
<title>Node12&#45;&gt;Node15</title>
<g id="a_edge15_Node000012_Node000015"><a xlink:title=" ">
<path fill="none" stroke="#63b8ff" d="M188.47,-61.62C183.22,-53.12 175.34,-40.33 168.8,-29.74"/>
<polygon fill="#63b8ff" stroke="#63b8ff" points="171.89,-28.08 163.66,-21.4 165.93,-31.75 171.89,-28.08"/>
</a>
</g>
</g>
<!-- Node18&#45;&gt;Node13 -->
<g id="edge19_Node000018_Node000013" class="edge">
<title>Node18&#45;&gt;Node13</title>
<g id="a_edge19_Node000018_Node000013"><a xlink:title=" ">
<path fill="none" stroke="#63b8ff" d="M282.75,-61.62C270.42,-52.38 251.34,-38.07 236.6,-27.01"/>
<polygon fill="#63b8ff" stroke="#63b8ff" points="238.97,-24.42 228.87,-21.22 234.77,-30.02 238.97,-24.42"/>
</a>
</g>
</g>
<!-- Node19 -->
<g id="Node000019" class="node">
<title>Node19</title>
<g id="a_Node000019"><a xlink:title=" ">
<polygon fill="#e0e0e0" stroke="#999999" points="296.62,-20 249.88,-20 249.88,0 296.62,0 296.62,-20"/>
<text text-anchor="middle" x="273.25" y="-8.4" font-family="SourceSans" font-size="8.00">ostream</text>
</a>
</g>
</g>
<!-- Node18&#45;&gt;Node19 -->
<g id="edge20_Node000018_Node000019" class="edge">
<title>Node18&#45;&gt;Node19</title>
<g id="a_edge20_Node000018_Node000019"><a xlink:title=" ">
<path fill="none" stroke="#63b8ff" d="M291.81,-61.62C288.79,-53.39 284.3,-41.13 280.49,-30.74"/>
<polygon fill="#63b8ff" stroke="#63b8ff" points="283.84,-29.72 277.11,-21.53 277.27,-32.13 283.84,-29.72"/>
</a>
</g>
</g>
<!-- Node20 -->
<g id="Node000020" class="node">
<title>Node20</title>
<g id="a_Node000020"><a xlink:title=" ">
<polygon fill="#e0e0e0" stroke="#999999" points="483.88,-20 438.62,-20 438.62,0 483.88,0 483.88,-20"/>
<text text-anchor="middle" x="461.25" y="-8.4" font-family="SourceSans" font-size="8.00">fstream</text>
</a>
</g>
</g>
<!-- Node18&#45;&gt;Node20 -->
<g id="edge21_Node000018_Node000020" class="edge">
<title>Node18&#45;&gt;Node20</title>
<g id="a_edge21_Node000018_Node000020"><a xlink:title=" ">
<path fill="none" stroke="#63b8ff" d="M321.19,-61.62C349.9,-51.25 396.27,-34.49 427.72,-23.12"/>
<polygon fill="#63b8ff" stroke="#63b8ff" points="428.53,-26.55 436.74,-19.86 426.15,-19.96 428.53,-26.55"/>
</a>
</g>
</g>
<!-- Node21 -->
<g id="Node000021" class="node">
<title>Node21</title>
<g id="a_Node000021"><a xlink:title=" ">
<polygon fill="#e0e0e0" stroke="#999999" points="420.38,-20 378.12,-20 378.12,0 420.38,0 420.38,-20"/>
<text text-anchor="middle" x="399.25" y="-8.4" font-family="SourceSans" font-size="8.00">cstdint</text>
</a>
</g>
</g>
<!-- Node18&#45;&gt;Node21 -->
<g id="edge22_Node000018_Node000021" class="edge">
<title>Node18&#45;&gt;Node21</title>
<g id="a_edge22_Node000018_Node000021"><a xlink:title=" ">
<path fill="none" stroke="#63b8ff" d="M311.5,-61.62C328.06,-52.07 354,-37.11 373.39,-25.92"/>
<polygon fill="#63b8ff" stroke="#63b8ff" points="374.89,-29.09 381.8,-21.07 371.39,-23.03 374.89,-29.09"/>
</a>
</g>
</g>
<!-- Node28&#45;&gt;Node1 -->
<g id="edge33_Node000028_Node000001" class="edge">
<title>Node28&#45;&gt;Node1</title>
<g id="a_edge33_Node000028_Node000001"><a xlink:title=" ">
<path fill="none" stroke="#63b8ff" d="M452.29,-82.43C459.67,-84.31 467.2,-86.25 474.25,-88 525.91,-100.84 584.68,-114.53 626.8,-124.5"/>
<polygon fill="#63b8ff" stroke="#63b8ff" points="625.93,-127.89 636.47,-126.79 627.55,-121.08 625.93,-127.89"/>
</a>
</g>
</g>
<!-- Node28&#45;&gt;Node14 -->
<g id="edge31_Node000028_Node000014" class="edge">
<title>Node28&#45;&gt;Node14</title>
<g id="a_edge31_Node000028_Node000014"><a xlink:title=" ">
<path fill="none" stroke="#63b8ff" d="M397.16,-61.62C386.36,-52.5 369.73,-38.45 356.72,-27.46"/>
<polygon fill="#63b8ff" stroke="#63b8ff" points="359.09,-24.87 349.19,-21.09 354.57,-30.22 359.09,-24.87"/>
</a>
</g>
</g>
<!-- Node28&#45;&gt;Node20 -->
<g id="edge30_Node000028_Node000020" class="edge">
<title>Node28&#45;&gt;Node20</title>
<g id="a_edge30_Node000028_Node000020"><a xlink:title=" ">
<path fill="none" stroke="#63b8ff" d="M416.53,-61.62C424.36,-52.77 436.29,-39.26 445.86,-28.43"/>
<polygon fill="#63b8ff" stroke="#63b8ff" points="448.2,-31.06 452.2,-21.25 442.95,-26.42 448.2,-31.06"/>
</a>
</g>
</g>
<!-- Node29 -->
<g id="Node000029" class="node">
<title>Node29</title>
<g id="a_Node000029"><a xlink:title=" ">
<polygon fill="#e0e0e0" stroke="#999999" points="550.38,-20 502.12,-20 502.12,0 550.38,0 550.38,-20"/>
<text text-anchor="middle" x="526.25" y="-8.4" font-family="SourceSans" font-size="8.00">unistd.h</text>
</a>
</g>
</g>
<!-- Node28&#45;&gt;Node29 -->
<g id="edge32_Node000028_Node000029" class="edge">
<title>Node28&#45;&gt;Node29</title>
<g id="a_edge32_Node000028_Node000029"><a xlink:title=" ">
<path fill="none" stroke="#63b8ff" d="M426.69,-61.62C445.74,-51.94 475.72,-36.69 497.81,-25.46"/>
<polygon fill="#63b8ff" stroke="#63b8ff" points="499.27,-28.65 506.59,-21 496.09,-22.41 499.27,-28.65"/>
</a>
</g>
</g>
</g>
</svg>
