<?xml version="1.0" encoding="UTF-8" standalone="no"?>
<!DOCTYPE svg PUBLIC "-//W3C//DTD SVG 1.1//EN"
 "http://www.w3.org/Graphics/SVG/1.1/DTD/svg11.dtd">
<!-- Generated by graphviz version 12.2.1 (20241206.2353)
 -->
<!-- Title: /home/bkoz/src/izzi/src/a60&#45;svg&#45;sequences.h Pages: 1 -->
<!--zoomable 207 -->

<svg id="main" version="1.1" xmlns="http://www.w3.org/2000/svg" xmlns:xlink="http://www.w3.org/1999/xlink" xml:space="preserve" onload="init(evt)">

<style type="text/css"><![CDATA[
.node, .edge {opacity: 0.7;}
.node.selected, .edge.selected {opacity: 1;}
.edge:hover path { stroke: red; }
.edge:hover polygon { stroke: red; fill: red; }
]]></style>

<defs>
  <circle id="rim" cx="0" cy="0" r="7"/>
  <circle id="rim2" cx="0" cy="0" r="3.5"/>
  <g id="zoomPlus">
    <use xlink:href="#rim" fill="#404040"><set attributeName="fill" to="#808080" begin="zoomplus.mouseover" end="zoomplus.mouseout"/></use>
    <path d="M-4,0h8M0,-4v8" fill="none" stroke="white" stroke-width="1.5" pointer-events="none"/>
  </g>
  <g id="zoomMin">
    <use xlink:href="#rim" fill="#404040"><set attributeName="fill" to="#808080" begin="zoomminus.mouseover" end="zoomminus.mouseout"/></use>
    <path d="M-4,0h8" fill="none" stroke="white" stroke-width="1.5" pointer-events="none"/>
  </g>
  <g id="arrowUp" transform="translate(30 24)">
    <use xlink:href="#rim"/>
    <path pointer-events="none" fill="none" stroke="white" stroke-width="1.5" d="M0,-3.0v7 M-2.5,-0.5L0,-3.0L2.5,-0.5"/>
  </g>
  <g id="arrowRight" transform="rotate(90) translate(36 -43)">
    <use xlink:href="#rim"/>
    <path pointer-events="none" fill="none" stroke="white" stroke-width="1.5" d="M0,-3.0v7 M-2.5,-0.5L0,-3.0L2.5,-0.5"/>
  </g>
  <g id="arrowDown" transform="rotate(180) translate(-30 -48)">
    <use xlink:href="#rim"/>
    <path pointer-events="none" fill="none" stroke="white" stroke-width="1.5" d="M0,-3.0v7 M-2.5,-0.5L0,-3.0L2.5,-0.5"/>
  </g>
  <g id="arrowLeft" transform="rotate(270) translate(-36 17)">
    <use xlink:href="#rim"/>
    <path pointer-events="none" fill="none" stroke="white" stroke-width="1.5" d="M0,-3.0v7 M-2.5,-0.5L0,-3.0L2.5,-0.5"/>
  </g>
  <g id="resetDef">
    <use xlink:href="#rim2" fill="#404040"><set attributeName="fill" to="#808080" begin="reset.mouseover" end="reset.mouseout"/></use>
  </g>
</defs>
<script type="application/ecmascript">
var viewWidth = 2034;
var viewHeight = 207;
var sectionId = 'dynsection-0';
</script>
<script type="application/ecmascript" xlink:href="svg.min.js"/>
<svg id="graph" class="graph">
<g id="viewport">
<title>/home/bkoz/src/izzi/src/a60&#45;svg&#45;sequences.h</title>
<!-- Node1 -->
<g id="Node000001" class="node">
<title>Node1</title>
<g id="a_Node000001"><a xlink:title=" ">
<polygon fill="#999999" stroke="#666666" points="767,-198.5 644.5,-198.5 644.5,-171 767,-171 767,-198.5"/>
<text text-anchor="start" x="652.5" y="-186.9" font-family="SourceSans" font-size="8.00">/home/bkoz/src/izzi</text>
<text text-anchor="middle" x="705.75" y="-177.15" font-family="SourceSans" font-size="8.00">/src/a60&#45;svg&#45;sequences.h</text>
</a>
</g>
</g>
<!-- Node2 -->
<g id="Node000002" class="node">
<title>Node2</title>
<g id="a_Node000002"><a xlink:title=" ">
<polygon fill="#e0e0e0" stroke="#999999" points="1968.12,-17.75 1921.38,-17.75 1921.38,0 1968.12,0 1968.12,-17.75"/>
<text text-anchor="middle" x="1944.75" y="-6.15" font-family="SourceSans" font-size="8.00">fstream</text>
</a>
</g>
</g>
<!-- Node1&#45;&gt;Node2 -->
<g id="edge1_Node000001_Node000002" class="edge">
<title>Node1&#45;&gt;Node2</title>
<g id="a_edge1_Node000001_Node000002"><a xlink:title=" ">
<path fill="none" stroke="#63b8ff" d="M767.15,-182.83C1002.98,-178.74 1841.95,-158.81 1929.75,-81.25 1944.13,-68.55 1946.74,-45.88 1946.48,-29.5"/>
<polygon fill="#63b8ff" stroke="#63b8ff" points="1949.97,-29.3 1945.91,-19.52 1942.99,-29.7 1949.97,-29.3"/>
</a>
</g>
</g>
<!-- Node3 -->
<g id="Node000003" class="node">
<title>Node3</title>
<g id="a_Node000003"><a xlink:title=" ">
<polygon fill="#e0e0e0" stroke="#999999" points="47.5,-17.75 0,-17.75 0,0 47.5,0 47.5,-17.75"/>
<text text-anchor="middle" x="23.75" y="-6.15" font-family="SourceSans" font-size="8.00">random</text>
</a>
</g>
</g>
<!-- Node1&#45;&gt;Node3 -->
<g id="edge2_Node000001_Node000003" class="edge">
<title>Node1&#45;&gt;Node3</title>
<g id="a_edge2_Node000001_Node000003"><a xlink:title=" ">
<path fill="none" stroke="#63b8ff" d="M644.11,-180.16C503.51,-170.97 164,-142.87 69.75,-81.25 50.69,-68.79 37.88,-45.37 30.72,-28.76"/>
<polygon fill="#63b8ff" stroke="#63b8ff" points="34,-27.53 27.05,-19.53 27.49,-30.12 34,-27.53"/>
</a>
</g>
</g>
<!-- Node4 -->
<g id="Node000004" class="node">
<title>Node4</title>
<g id="a_Node000004"><a xlink:title=" ">
<polygon fill="#e0e0e0" stroke="#999999" points="2026.25,-135 1977.25,-135 1977.25,-117.25 2026.25,-117.25 2026.25,-135"/>
<text text-anchor="middle" x="2001.75" y="-123.4" font-family="SourceSans" font-size="8.00">unistd.h</text>
</a>
</g>
</g>
<!-- Node1&#45;&gt;Node4 -->
<g id="edge3_Node000001_Node000004" class="edge">
<title>Node1&#45;&gt;Node4</title>
<g id="a_edge3_Node000001_Node000004"><a xlink:title=" ">
<path fill="none" stroke="#63b8ff" d="M767.24,-182.67C986.18,-178.64 1727.2,-163.16 1962.75,-135 1963.77,-134.88 1964.8,-134.74 1965.85,-134.6"/>
<polygon fill="#63b8ff" stroke="#63b8ff" points="1966.31,-138.07 1975.6,-132.97 1965.16,-131.17 1966.31,-138.07"/>
</a>
</g>
</g>
<!-- Node5 -->
<g id="Node000005" class="node">
<title>Node5</title>
<g id="a_Node000005"><a xlink:href="a60-svg_8h.html" target="_top" xlink:title=" ">
<polygon fill="white" stroke="#666666" points="734,-135 677.5,-135 677.5,-117.25 734,-117.25 734,-135"/>
<text text-anchor="middle" x="705.75" y="-123.4" font-family="SourceSans" font-size="8.00">a60&#45;svg.h</text>
</a>
</g>
</g>
<!-- Node1&#45;&gt;Node5 -->
<g id="edge4_Node000001_Node000005" class="edge">
<title>Node1&#45;&gt;Node5</title>
<g id="a_edge4_Node000001_Node000005"><a xlink:title=" ">
<path fill="none" stroke="#63b8ff" d="M699.95,-170.62C698.96,-163.5 698.74,-154.56 699.3,-146.65"/>
<polygon fill="#63b8ff" stroke="#63b8ff" points="702.74,-147.33 700.6,-136.95 695.8,-146.4 702.74,-147.33"/>
</a>
</g>
</g>
<!-- Node5&#45;&gt;Node1 -->
<g id="edge33_Node000005_Node000001" class="edge">
<title>Node5&#45;&gt;Node1</title>
<g id="a_edge33_Node000005_Node000001"><a xlink:title=" ">
<path fill="none" stroke="#63b8ff" d="M710.7,-135.45C712.11,-141.74 712.69,-150.71 712.45,-159.22"/>
<polygon fill="#63b8ff" stroke="#63b8ff" points="708.96,-158.86 711.67,-169.11 715.94,-159.41 708.96,-158.86"/>
</a>
</g>
</g>
<!-- Node6 -->
<g id="Node000006" class="node">
<title>Node6</title>
<g id="a_Node000006"><a xlink:title=" ">
<polygon fill="#e0e0e0" stroke="#999999" points="234.12,-76.38 187.38,-76.38 187.38,-58.62 234.12,-58.62 234.12,-76.38"/>
<text text-anchor="middle" x="210.75" y="-64.78" font-family="SourceSans" font-size="8.00">cstddef</text>
</a>
</g>
</g>
<!-- Node5&#45;&gt;Node6 -->
<g id="edge5_Node000005_Node000006" class="edge">
<title>Node5&#45;&gt;Node6</title>
<g id="a_edge5_Node000005_Node000006"><a xlink:title=" ">
<path fill="none" stroke="#63b8ff" d="M677.1,-125.22C603.76,-124.86 403.65,-120.08 242.75,-81.25 241.76,-81.01 240.76,-80.75 239.75,-80.46"/>
<polygon fill="#63b8ff" stroke="#63b8ff" points="241.1,-77.22 230.5,-77.32 238.85,-83.85 241.1,-77.22"/>
</a>
</g>
</g>
<!-- Node7 -->
<g id="Node000007" class="node">
<title>Node7</title>
<g id="a_Node000007"><a xlink:title=" ">
<polygon fill="#e0e0e0" stroke="#999999" points="293.5,-76.38 252,-76.38 252,-58.62 293.5,-58.62 293.5,-76.38"/>
<text text-anchor="middle" x="272.75" y="-64.78" font-family="SourceSans" font-size="8.00">cmath</text>
</a>
</g>
</g>
<!-- Node5&#45;&gt;Node7 -->
<g id="edge6_Node000005_Node000007" class="edge">
<title>Node5&#45;&gt;Node7</title>
<g id="a_edge6_Node000005_Node000007"><a xlink:title=" ">
<path fill="none" stroke="#63b8ff" d="M677.29,-125C610.52,-124.06 439.09,-117.96 301.75,-81.25 301.1,-81.08 300.45,-80.89 299.8,-80.7"/>
<polygon fill="#63b8ff" stroke="#63b8ff" points="301.32,-77.53 290.72,-77.34 298.89,-84.09 301.32,-77.53"/>
</a>
</g>
</g>
<!-- Node8 -->
<g id="Node000008" class="node">
<title>Node8</title>
<g id="a_Node000008"><a xlink:title=" ">
<polygon fill="#e0e0e0" stroke="#999999" points="120.25,-17.75 65.25,-17.75 65.25,0 120.25,0 120.25,-17.75"/>
<text text-anchor="middle" x="92.75" y="-6.15" font-family="SourceSans" font-size="8.00">algorithm</text>
</a>
</g>
</g>
<!-- Node5&#45;&gt;Node8 -->
<g id="edge7_Node000005_Node000008" class="edge">
<title>Node5&#45;&gt;Node8</title>
<g id="a_edge7_Node000005_Node000008"><a xlink:title=" ">
<path fill="none" stroke="#63b8ff" d="M677.39,-125.35C560.7,-125.97 121.87,-125.36 80.75,-81.25 67.52,-67.06 74.61,-44.03 82.32,-27.98"/>
<polygon fill="#63b8ff" stroke="#63b8ff" points="85.22,-29.99 86.81,-19.52 79.04,-26.71 85.22,-29.99"/>
</a>
</g>
</g>
<!-- Node9 -->
<g id="Node000009" class="node">
<title>Node9</title>
<g id="a_Node000009"><a xlink:title=" ">
<polygon fill="#e0e0e0" stroke="#999999" points="348.25,-76.38 311.25,-76.38 311.25,-58.62 348.25,-58.62 348.25,-76.38"/>
<text text-anchor="middle" x="329.75" y="-64.78" font-family="SourceSans" font-size="8.00">array</text>
</a>
</g>
</g>
<!-- Node5&#45;&gt;Node9 -->
<g id="edge8_Node000005_Node000009" class="edge">
<title>Node5&#45;&gt;Node9</title>
<g id="a_edge8_Node000005_Node000009"><a xlink:title=" ">
<path fill="none" stroke="#63b8ff" d="M677.09,-124.56C616.66,-122.72 472.26,-114.86 356.75,-81.25 356.39,-81.14 356.02,-81.03 355.65,-80.92"/>
<polygon fill="#63b8ff" stroke="#63b8ff" points="357.12,-77.74 346.54,-77.34 354.56,-84.25 357.12,-77.74"/>
</a>
</g>
</g>
<!-- Node10 -->
<g id="Node000010" class="node">
<title>Node10</title>
<g id="a_Node000010"><a xlink:title=" ">
<polygon fill="#e0e0e0" stroke="#999999" points="403.25,-76.38 366.25,-76.38 366.25,-58.62 403.25,-58.62 403.25,-76.38"/>
<text text-anchor="middle" x="384.75" y="-64.78" font-family="SourceSans" font-size="8.00">tuple</text>
</a>
</g>
</g>
<!-- Node5&#45;&gt;Node10 -->
<g id="edge9_Node000005_Node000010" class="edge">
<title>Node5&#45;&gt;Node10</title>
<g id="a_edge9_Node000005_Node000010"><a xlink:title=" ">
<path fill="none" stroke="#63b8ff" d="M677.17,-123.64C623.92,-120.26 506.32,-109.95 411.75,-81.25 411.51,-81.18 411.28,-81.11 411.04,-81.03"/>
<polygon fill="#63b8ff" stroke="#63b8ff" points="412.43,-77.81 401.84,-77.4 409.86,-84.33 412.43,-77.81"/>
</a>
</g>
</g>
<!-- Node11 -->
<g id="Node000011" class="node">
<title>Node11</title>
<g id="a_Node000011"><a xlink:title=" ">
<polygon fill="#e0e0e0" stroke="#999999" points="460.38,-76.38 421.12,-76.38 421.12,-58.62 460.38,-58.62 460.38,-76.38"/>
<text text-anchor="middle" x="440.75" y="-64.78" font-family="SourceSans" font-size="8.00">string</text>
</a>
</g>
</g>
<!-- Node5&#45;&gt;Node11 -->
<g id="edge10_Node000005_Node000011" class="edge">
<title>Node5&#45;&gt;Node11</title>
<g id="a_edge10_Node000005_Node000011"><a xlink:title=" ">
<path fill="none" stroke="#63b8ff" d="M677.11,-122.11C632,-116.86 541.99,-104.32 468.75,-81.25 468.51,-81.18 468.28,-81.1 468.04,-81.02"/>
<polygon fill="#63b8ff" stroke="#63b8ff" points="469.37,-77.78 458.78,-77.42 466.83,-84.31 469.37,-77.78"/>
</a>
</g>
</g>
<!-- Node12 -->
<g id="Node000012" class="node">
<title>Node12</title>
<g id="a_Node000012"><a xlink:title=" ">
<polygon fill="#e0e0e0" stroke="#999999" points="519.5,-76.38 478,-76.38 478,-58.62 519.5,-58.62 519.5,-76.38"/>
<text text-anchor="middle" x="498.75" y="-64.78" font-family="SourceSans" font-size="8.00">vector</text>
</a>
</g>
</g>
<!-- Node5&#45;&gt;Node12 -->
<g id="edge11_Node000005_Node000012" class="edge">
<title>Node5&#45;&gt;Node12</title>
<g id="a_edge11_Node000005_Node000012"><a xlink:title=" ">
<path fill="none" stroke="#63b8ff" d="M677.15,-119.5C641.82,-112.22 580.1,-98.4 528.75,-81.25 528.39,-81.13 528.02,-81.01 527.66,-80.88"/>
<polygon fill="#63b8ff" stroke="#63b8ff" points="528.98,-77.64 518.39,-77.33 526.48,-84.18 528.98,-77.64"/>
</a>
</g>
</g>
<!-- Node13 -->
<g id="Node000013" class="node">
<title>Node13</title>
<g id="a_Node000013"><a xlink:title=" ">
<polygon fill="#e0e0e0" stroke="#999999" points="566.15,-76.38 537.35,-76.38 537.35,-58.62 566.15,-58.62 566.15,-76.38"/>
<text text-anchor="middle" x="551.75" y="-64.78" font-family="SourceSans" font-size="8.00">set</text>
</a>
</g>
</g>
<!-- Node5&#45;&gt;Node13 -->
<g id="edge12_Node000005_Node000013" class="edge">
<title>Node5&#45;&gt;Node13</title>
<g id="a_edge12_Node000005_Node000013"><a xlink:title=" ">
<path fill="none" stroke="#63b8ff" d="M677.08,-117.17C652.31,-109.95 615.49,-98.37 576.02,-81.32"/>
<polygon fill="#63b8ff" stroke="#63b8ff" points="577.6,-78.19 567.04,-77.35 574.77,-84.59 577.6,-78.19"/>
</a>
</g>
</g>
<!-- Node14 -->
<g id="Node000014" class="node">
<title>Node14</title>
<g id="a_Node000014"><a xlink:title=" ">
<polygon fill="#e0e0e0" stroke="#999999" points="663.62,-76.38 583.88,-76.38 583.88,-58.62 663.62,-58.62 663.62,-76.38"/>
<text text-anchor="middle" x="623.75" y="-64.78" font-family="SourceSans" font-size="8.00">unordered_map</text>
</a>
</g>
</g>
<!-- Node5&#45;&gt;Node14 -->
<g id="edge13_Node000005_Node000014" class="edge">
<title>Node5&#45;&gt;Node14</title>
<g id="a_edge13_Node000005_Node000014"><a xlink:title=" ">
<path fill="none" stroke="#63b8ff" d="M693.65,-116.77C680.86,-107.94 660.43,-93.83 644.96,-83.14"/>
<polygon fill="#63b8ff" stroke="#63b8ff" points="647.1,-80.37 636.88,-77.57 643.12,-86.13 647.1,-80.37"/>
</a>
</g>
</g>
<!-- Node15 -->
<g id="Node000015" class="node">
<title>Node15</title>
<g id="a_Node000015"><a xlink:title=" ">
<polygon fill="#e0e0e0" stroke="#999999" points="729.88,-76.38 681.62,-76.38 681.62,-58.62 729.88,-58.62 729.88,-76.38"/>
<text text-anchor="middle" x="705.75" y="-64.78" font-family="SourceSans" font-size="8.00">sstream</text>
</a>
</g>
</g>
<!-- Node5&#45;&gt;Node15 -->
<g id="edge14_Node000005_Node000015" class="edge">
<title>Node5&#45;&gt;Node15</title>
<g id="a_edge14_Node000005_Node000015"><a xlink:title=" ">
<path fill="none" stroke="#63b8ff" d="M705.75,-116.77C705.75,-109.16 705.75,-97.62 705.75,-87.74"/>
<polygon fill="#63b8ff" stroke="#63b8ff" points="709.25,-88.04 705.75,-78.04 702.25,-88.04 709.25,-88.04"/>
</a>
</g>
</g>
<!-- Node16 -->
<g id="Node000016" class="node">
<title>Node16</title>
<g id="a_Node000016"><a xlink:href="a60-svg-color_8h.html" target="_top" xlink:title=" ">
<polygon fill="white" stroke="#666666" points="169.62,-76.38 89.88,-76.38 89.88,-58.62 169.62,-58.62 169.62,-76.38"/>
<text text-anchor="middle" x="129.75" y="-64.78" font-family="SourceSans" font-size="8.00">a60&#45;svg&#45;color.h</text>
</a>
</g>
</g>
<!-- Node5&#45;&gt;Node16 -->
<g id="edge15_Node000005_Node000016" class="edge">
<title>Node5&#45;&gt;Node16</title>
<g id="a_edge15_Node000005_Node000016"><a xlink:title=" ">
<path fill="none" stroke="#63b8ff" d="M677.26,-124.47C597.8,-122.27 367.23,-113.37 178.75,-81.25 175.73,-80.73 172.62,-80.12 169.5,-79.45"/>
<polygon fill="#63b8ff" stroke="#63b8ff" points="170.34,-76.05 159.8,-77.16 168.73,-82.87 170.34,-76.05"/>
</a>
</g>
</g>
<!-- Node19 -->
<g id="Node000019" class="node">
<title>Node19</title>
<g id="a_Node000019"><a xlink:href="a60-svg-color-palette_8h.html" target="_top" xlink:title=" ">
<polygon fill="white" stroke="#666666" points="859.75,-76.38 747.75,-76.38 747.75,-58.62 859.75,-58.62 859.75,-76.38"/>
<text text-anchor="middle" x="803.75" y="-64.78" font-family="SourceSans" font-size="8.00">a60&#45;svg&#45;color&#45;palette.h</text>
</a>
</g>
</g>
<!-- Node5&#45;&gt;Node19 -->
<g id="edge20_Node000005_Node000019" class="edge">
<title>Node5&#45;&gt;Node19</title>
<g id="a_edge20_Node000005_Node000019"><a xlink:title=" ">
<path fill="none" stroke="#63b8ff" d="M720.21,-116.77C735.86,-107.73 761.08,-93.16 779.72,-82.39"/>
<polygon fill="#63b8ff" stroke="#63b8ff" points="781.33,-85.5 788.24,-77.46 777.83,-79.44 781.33,-85.5"/>
</a>
</g>
</g>
<!-- Node20 -->
<g id="Node000020" class="node">
<title>Node20</title>
<g id="a_Node000020"><a xlink:href="a60-svg-color-colorband_8h.html" target="_top" xlink:title=" ">
<polygon fill="white" stroke="#666666" points="1001.75,-76.38 877.75,-76.38 877.75,-58.62 1001.75,-58.62 1001.75,-76.38"/>
<text text-anchor="middle" x="939.75" y="-64.78" font-family="SourceSans" font-size="8.00">a60&#45;svg&#45;color&#45;colorband.h</text>
</a>
</g>
</g>
<!-- Node5&#45;&gt;Node20 -->
<g id="edge21_Node000005_Node000020" class="edge">
<title>Node5&#45;&gt;Node20</title>
<g id="a_edge21_Node000005_Node000020"><a xlink:title=" ">
<path fill="none" stroke="#63b8ff" d="M734.44,-118.18C774.35,-108.52 847.04,-90.93 894.35,-79.49"/>
<polygon fill="#63b8ff" stroke="#63b8ff" points="895.14,-82.9 904.03,-77.14 893.49,-76.09 895.14,-82.9"/>
</a>
</g>
</g>
<!-- Node21 -->
<g id="Node000021" class="node">
<title>Node21</title>
<g id="a_Node000021"><a xlink:href="a60-svg-base-types_8h.html" target="_top" xlink:title=" ">
<polygon fill="white" stroke="#666666" points="1920.38,-76.38 1815.12,-76.38 1815.12,-58.62 1920.38,-58.62 1920.38,-76.38"/>
<text text-anchor="middle" x="1867.75" y="-64.78" font-family="SourceSans" font-size="8.00">a60&#45;svg&#45;base&#45;types.h</text>
</a>
</g>
</g>
<!-- Node5&#45;&gt;Node21 -->
<g id="edge22_Node000005_Node000021" class="edge">
<title>Node5&#45;&gt;Node21</title>
<g id="a_edge22_Node000005_Node000021"><a xlink:title=" ">
<path fill="none" stroke="#63b8ff" d="M734.12,-124.63C884.53,-121.93 1590.08,-108.02 1806.75,-81.25 1811.65,-80.64 1816.75,-79.85 1821.81,-78.95"/>
<polygon fill="#63b8ff" stroke="#63b8ff" points="1822.11,-82.46 1831.27,-77.14 1820.79,-75.58 1822.11,-82.46"/>
</a>
</g>
</g>
<!-- Node24 -->
<g id="Node000024" class="node">
<title>Node24</title>
<g id="a_Node000024"><a xlink:href="a60-svg-constants_8h.html" target="_top" xlink:title=" ">
<polygon fill="white" stroke="#666666" points="1119.75,-76.38 1019.75,-76.38 1019.75,-58.62 1119.75,-58.62 1119.75,-76.38"/>
<text text-anchor="middle" x="1069.75" y="-64.78" font-family="SourceSans" font-size="8.00">a60&#45;svg&#45;constants.h</text>
</a>
</g>
</g>
<!-- Node5&#45;&gt;Node24 -->
<g id="edge27_Node000005_Node000024" class="edge">
<title>Node5&#45;&gt;Node24</title>
<g id="a_edge27_Node000005_Node000024"><a xlink:title=" ">
<path fill="none" stroke="#63b8ff" d="M734.45,-121.68C788.64,-115.02 909.66,-99.42 1010.75,-81.25 1014.36,-80.6 1018.09,-79.89 1021.83,-79.15"/>
<polygon fill="#63b8ff" stroke="#63b8ff" points="1022.43,-82.6 1031.52,-77.16 1021.02,-75.74 1022.43,-82.6"/>
</a>
</g>
</g>
<!-- Node25 -->
<g id="Node000025" class="node">
<title>Node25</title>
<g id="a_Node000025"><a xlink:href="a60-svg-elements_8h.html" target="_top" xlink:title=" ">
<polygon fill="white" stroke="#666666" points="1235.62,-76.38 1137.88,-76.38 1137.88,-58.62 1235.62,-58.62 1235.62,-76.38"/>
<text text-anchor="middle" x="1186.75" y="-64.78" font-family="SourceSans" font-size="8.00">a60&#45;svg&#45;elements.h</text>
</a>
</g>
</g>
<!-- Node5&#45;&gt;Node25 -->
<g id="edge28_Node000005_Node000025" class="edge">
<title>Node5&#45;&gt;Node25</title>
<g id="a_edge28_Node000005_Node000025"><a xlink:title=" ">
<path fill="none" stroke="#63b8ff" d="M734.37,-123.28C802.82,-118.62 981.33,-105.02 1128.75,-81.25 1132.63,-80.62 1136.65,-79.9 1140.67,-79.12"/>
<polygon fill="#63b8ff" stroke="#63b8ff" points="1141.33,-82.56 1150.43,-77.13 1139.93,-75.7 1141.33,-82.56"/>
</a>
</g>
</g>
<!-- Node26 -->
<g id="Node000026" class="node">
<title>Node26</title>
<g id="a_Node000026"><a xlink:href="a60-svg-elements-components_8h.html" target="_top" xlink:title=" ">
<polygon fill="white" stroke="#666666" points="1405.62,-76.38 1253.88,-76.38 1253.88,-58.62 1405.62,-58.62 1405.62,-76.38"/>
<text text-anchor="middle" x="1329.75" y="-64.78" font-family="SourceSans" font-size="8.00">a60&#45;svg&#45;elements&#45;components.h</text>
</a>
</g>
</g>
<!-- Node5&#45;&gt;Node26 -->
<g id="edge29_Node000005_Node000026" class="edge">
<title>Node5&#45;&gt;Node26</title>
<g id="a_edge29_Node000005_Node000026"><a xlink:title=" ">
<path fill="none" stroke="#63b8ff" d="M734.45,-123.48C815.05,-118.69 1050.29,-103.72 1244.75,-81.25 1251.94,-80.42 1259.45,-79.45 1266.91,-78.41"/>
<polygon fill="#63b8ff" stroke="#63b8ff" points="1267.23,-81.9 1276.63,-77.03 1266.24,-74.97 1267.23,-81.9"/>
</a>
</g>
</g>
<!-- Node27 -->
<g id="Node000027" class="node">
<title>Node27</title>
<g id="a_Node000027"><a xlink:href="a60-svg-render-state_8h.html" target="_top" xlink:title=" ">
<polygon fill="white" stroke="#666666" points="1533.62,-76.38 1423.88,-76.38 1423.88,-58.62 1533.62,-58.62 1533.62,-76.38"/>
<text text-anchor="middle" x="1478.75" y="-64.78" font-family="SourceSans" font-size="8.00">a60&#45;svg&#45;render&#45;state.h</text>
</a>
</g>
</g>
<!-- Node5&#45;&gt;Node27 -->
<g id="edge30_Node000005_Node000027" class="edge">
<title>Node5&#45;&gt;Node27</title>
<g id="a_edge30_Node000005_Node000027"><a xlink:title=" ">
<path fill="none" stroke="#63b8ff" d="M734.25,-124.74C830.44,-123.14 1151.81,-115.42 1414.75,-81.25 1419.75,-80.6 1424.95,-79.79 1430.12,-78.9"/>
<polygon fill="#63b8ff" stroke="#63b8ff" points="1430.64,-82.36 1439.84,-77.11 1429.37,-75.48 1430.64,-82.36"/>
</a>
</g>
</g>
<!-- Node28 -->
<g id="Node000028" class="node">
<title>Node28</title>
<g id="a_Node000028"><a xlink:href="a60-svg-render-basics_8h.html" target="_top" xlink:title=" ">
<polygon fill="white" stroke="#666666" points="1666.25,-76.38 1551.25,-76.38 1551.25,-58.62 1666.25,-58.62 1666.25,-76.38"/>
<text text-anchor="middle" x="1608.75" y="-64.78" font-family="SourceSans" font-size="8.00">a60&#45;svg&#45;render&#45;basics.h</text>
</a>
</g>
</g>
<!-- Node5&#45;&gt;Node28 -->
<g id="edge31_Node000005_Node000028" class="edge">
<title>Node5&#45;&gt;Node28</title>
<g id="a_edge31_Node000005_Node000028"><a xlink:title=" ">
<path fill="none" stroke="#63b8ff" d="M734.42,-125.06C841.43,-124.5 1227.52,-119.77 1542.75,-81.25 1548.11,-80.59 1553.7,-79.76 1559.25,-78.83"/>
<polygon fill="#63b8ff" stroke="#63b8ff" points="1559.78,-82.29 1569.01,-77.09 1558.55,-75.4 1559.78,-82.29"/>
</a>
</g>
</g>
<!-- Node29 -->
<g id="Node000029" class="node">
<title>Node29</title>
<g id="a_Node000029"><a xlink:href="a60-svg-composite-and-layer-basics_8h.html" target="_top" xlink:title=" ">
<polygon fill="white" stroke="#666666" points="1797.5,-81.25 1684,-81.25 1684,-53.75 1797.5,-53.75 1797.5,-81.25"/>
<text text-anchor="start" x="1692" y="-69.65" font-family="SourceSans" font-size="8.00">a60&#45;svg&#45;composite&#45;and</text>
<text text-anchor="middle" x="1740.75" y="-59.9" font-family="SourceSans" font-size="8.00">&#45;layer&#45;basics.h</text>
</a>
</g>
</g>
<!-- Node5&#45;&gt;Node29 -->
<g id="edge32_Node000005_Node000029" class="edge">
<title>Node5&#45;&gt;Node29</title>
<g id="a_edge32_Node000005_Node000029"><a xlink:title=" ">
<path fill="none" stroke="#63b8ff" d="M734.44,-125.38C850.54,-126.08 1296.8,-125.65 1672.39,-81.53"/>
<polygon fill="#63b8ff" stroke="#63b8ff" points="1672.74,-85.01 1682.25,-80.36 1671.91,-78.06 1672.74,-85.01"/>
</a>
</g>
</g>
<!-- Node16&#45;&gt;Node3 -->
<g id="edge18_Node000016_Node000003" class="edge">
<title>Node16&#45;&gt;Node3</title>
<g id="a_edge18_Node000016_Node000003"><a xlink:title=" ">
<path fill="none" stroke="#63b8ff" d="M114.11,-58.14C97.02,-49.02 69.4,-34.26 49.19,-23.46"/>
<polygon fill="#63b8ff" stroke="#63b8ff" points="50.91,-20.42 40.45,-18.79 47.62,-26.59 50.91,-20.42"/>
</a>
</g>
</g>
<!-- Node16&#45;&gt;Node8 -->
<g id="edge17_Node000016_Node000008" class="edge">
<title>Node16&#45;&gt;Node8</title>
<g id="a_edge17_Node000016_Node000008"><a xlink:title=" ">
<path fill="none" stroke="#63b8ff" d="M124.29,-58.14C119.04,-50.11 110.93,-37.71 104.26,-27.48"/>
<polygon fill="#63b8ff" stroke="#63b8ff" points="107.22,-25.62 98.82,-19.16 101.36,-29.45 107.22,-25.62"/>
</a>
</g>
</g>
<!-- Node17 -->
<g id="Node000017" class="node">
<title>Node17</title>
<g id="a_Node000017"><a xlink:title=" ">
<polygon fill="#e0e0e0" stroke="#999999" points="1005.75,-17.75 971.75,-17.75 971.75,0 1005.75,0 1005.75,-17.75"/>
<text text-anchor="middle" x="988.75" y="-6.15" font-family="SourceSans" font-size="8.00">map</text>
</a>
</g>
</g>
<!-- Node16&#45;&gt;Node17 -->
<g id="edge16_Node000016_Node000017" class="edge">
<title>Node16&#45;&gt;Node17</title>
<g id="a_edge16_Node000016_Node000017"><a xlink:title=" ">
<path fill="none" stroke="#63b8ff" d="M157.79,-58.17C164.6,-56.44 171.89,-54.82 178.75,-53.75 481.63,-6.63 855,-7.92 960.06,-9.36"/>
<polygon fill="#63b8ff" stroke="#63b8ff" points="959.95,-12.86 970,-9.51 960.06,-5.86 959.95,-12.86"/>
</a>
</g>
</g>
<!-- Node18 -->
<g id="Node000018" class="node">
<title>Node18</title>
<g id="a_Node000018"><a xlink:title=" ">
<polygon fill="#e0e0e0" stroke="#999999" points="187.25,-17.75 138.25,-17.75 138.25,0 187.25,0 187.25,-17.75"/>
<text text-anchor="middle" x="162.75" y="-6.15" font-family="SourceSans" font-size="8.00">iomanip</text>
</a>
</g>
</g>
<!-- Node16&#45;&gt;Node18 -->
<g id="edge19_Node000016_Node000018" class="edge">
<title>Node16&#45;&gt;Node18</title>
<g id="a_edge19_Node000016_Node000018"><a xlink:title=" ">
<path fill="none" stroke="#63b8ff" d="M134.62,-58.14C139.25,-50.19 146.38,-37.97 152.3,-27.81"/>
<polygon fill="#63b8ff" stroke="#63b8ff" points="155.3,-29.61 157.31,-19.21 149.25,-26.08 155.3,-29.61"/>
</a>
</g>
</g>
<!-- Node21&#45;&gt;Node2 -->
<g id="edge25_Node000021_Node000002" class="edge">
<title>Node21&#45;&gt;Node2</title>
<g id="a_edge25_Node000021_Node000002"><a xlink:title=" ">
<path fill="none" stroke="#63b8ff" d="M1879.11,-58.14C1891.01,-49.4 1909.94,-35.48 1924.42,-24.83"/>
<polygon fill="#63b8ff" stroke="#63b8ff" points="1926.39,-27.72 1932.37,-18.98 1922.24,-22.08 1926.39,-27.72"/>
</a>
</g>
</g>
<!-- Node21&#45;&gt;Node17 -->
<g id="edge23_Node000021_Node000017" class="edge">
<title>Node21&#45;&gt;Node17</title>
<g id="a_edge23_Node000021_Node000017"><a xlink:title=" ">
<path fill="none" stroke="#63b8ff" d="M1832.42,-58.16C1824.05,-56.45 1815.12,-54.84 1806.75,-53.75 1499.5,-13.64 1122.74,-10.02 1017.33,-9.84"/>
<polygon fill="#63b8ff" stroke="#63b8ff" points="1017.62,-6.34 1007.62,-9.83 1017.62,-13.34 1017.62,-6.34"/>
</a>
</g>
</g>
<!-- Node22 -->
<g id="Node000022" class="node">
<title>Node22</title>
<g id="a_Node000022"><a xlink:title=" ">
<polygon fill="#e0e0e0" stroke="#999999" points="1896.25,-17.75 1847.25,-17.75 1847.25,0 1896.25,0 1896.25,-17.75"/>
<text text-anchor="middle" x="1871.75" y="-6.15" font-family="SourceSans" font-size="8.00">ostream</text>
</a>
</g>
</g>
<!-- Node21&#45;&gt;Node22 -->
<g id="edge24_Node000021_Node000022" class="edge">
<title>Node21&#45;&gt;Node22</title>
<g id="a_edge24_Node000021_Node000022"><a xlink:title=" ">
<path fill="none" stroke="#63b8ff" d="M1868.34,-58.14C1868.88,-50.53 1869.69,-39 1870.39,-29.12"/>
<polygon fill="#63b8ff" stroke="#63b8ff" points="1873.86,-29.63 1871.08,-19.41 1866.88,-29.14 1873.86,-29.63"/>
</a>
</g>
</g>
<!-- Node23 -->
<g id="Node000023" class="node">
<title>Node23</title>
<g id="a_Node000023"><a xlink:title=" ">
<polygon fill="#e0e0e0" stroke="#999999" points="1829.62,-17.75 1785.88,-17.75 1785.88,0 1829.62,0 1829.62,-17.75"/>
<text text-anchor="middle" x="1807.75" y="-6.15" font-family="SourceSans" font-size="8.00">cstdint</text>
</a>
</g>
</g>
<!-- Node21&#45;&gt;Node23 -->
<g id="edge26_Node000021_Node000023" class="edge">
<title>Node21&#45;&gt;Node23</title>
<g id="a_edge26_Node000021_Node000023"><a xlink:title=" ">
<path fill="none" stroke="#63b8ff" d="M1858.9,-58.14C1849.84,-49.6 1835.56,-36.12 1824.39,-25.58"/>
<polygon fill="#63b8ff" stroke="#63b8ff" points="1827.03,-23.25 1817.35,-18.94 1822.22,-28.35 1827.03,-23.25"/>
</a>
</g>
</g>
</g>
</svg>

<g id="navigator" transform="translate(0 0)" fill="#404254">
  <rect fill="#f2f5e9" fill-opacity="0.5" stroke="#606060" stroke-width=".5" x="0" y="0" width="60" height="60"/>
  <use id="zoomplus" xlink:href="#zoomPlus" x="17" y="9" onmousedown="handleZoom(evt,'in')"/>
  <use id="zoomminus" xlink:href="#zoomMin" x="42" y="9" onmousedown="handleZoom(evt,'out')"/>
  <use id="reset" xlink:href="#resetDef" x="30" y="36" onmousedown="handleReset()"/>
   <use id="arrowup" xlink:href="#arrowUp" x="0" y="0" onmousedown="handlePan(0,-1)"/>
  <use id="arrowright" xlink:href="#arrowRight" x="0" y="0" onmousedown="handlePan(1,0)"/>
  <use id="arrowdown" xlink:href="#arrowDown" x="0" y="0" onmousedown="handlePan(0,1)"/>
  <use id="arrowleft" xlink:href="#arrowLeft" x="0" y="0" onmousedown="handlePan(-1,0)"/>
</g>
<svg viewBox="0 0 15 15" width="100%" height="30px" preserveAspectRatio="xMaxYMin meet">
 <g id="arrow_out" transform="scale(0.3 0.3)">
  <a xlink:href="a60-svg-sequences_8h__incl_org.svg" target="_base">
   <rect id="button" ry="5" rx="5" y="6" x="6" height="38" width="38"
        fill="#f2f5e9" fill-opacity="0.5" stroke="#606060" stroke-width="1.0"/>
   <path id="arrow"
     d="M 11.500037,31.436501 C 11.940474,20.09759 22.043105,11.32322 32.158766,21.979434 L 37.068811,17.246167 C 37.068811,17.246167 37.088388,32 37.088388,32 L 22.160133,31.978069 C 22.160133,31.978069 26.997745,27.140456 26.997745,27.140456 C 18.528582,18.264221 13.291696,25.230495 11.500037,31.436501 z"
     style="fill:#404040;"/>
  </a>
 </g>
</svg>

<style type='text/css'>
<![CDATA[
[data-mouse-over-selected='false'] { opacity: 0.7; }
[data-mouse-over-selected='true']  { opacity: 1.0; }
]]>
</style>
<script type="application/ecmascript"><![CDATA[
document.addEventListener('DOMContentLoaded', (event) => {
  highlightEdges();
  highlightAdjacentNodes();
});
]]></script>
</svg>
