<?xml version="1.0" encoding="UTF-8" standalone="no"?>
<!DOCTYPE svg PUBLIC "-//W3C//DTD SVG 1.1//EN"
 "http://www.w3.org/Graphics/SVG/1.1/DTD/svg11.dtd">
<!-- Generated by graphviz version 13.1.2 (20250808.2320)
 -->
<!-- Title: /home/bkoz/src/izzi/src/a60&#45;svg&#45;render&#45;basics.h Pages: 1 -->
<svg width="2106pt" height="300pt"
 viewBox="0.00 0.00 2106.00 300.00" xmlns="http://www.w3.org/2000/svg" xmlns:xlink="http://www.w3.org/1999/xlink">
<g id="graph0" class="graph" transform="scale(1 1) rotate(0) translate(4 296)">
<title>/home/bkoz/src/izzi/src/a60&#45;svg&#45;render&#45;basics.h</title>
<!-- Node1 -->
<g id="Node000001" class="node">
<title>Node1</title>
<g id="a_Node000001"><a xlink:title=" ">
<polygon fill="#999999" stroke="#666666" points="281.38,-292 191.12,-292 191.12,-248 281.38,-248 281.38,-292"/>
<text xml:space="preserve" text-anchor="start" x="199.12" y="-280.4" font-family="SourceSans" font-size="8.00">/home/bkoz/src/izzi</text>
<text xml:space="preserve" text-anchor="start" x="199.12" y="-268.4" font-family="SourceSans" font-size="8.00">/src/a60&#45;svg&#45;render</text>
<text xml:space="preserve" text-anchor="middle" x="236.25" y="-256.4" font-family="SourceSans" font-size="8.00">&#45;basics.h</text>
</a>
</g>
</g>
<!-- Node2 -->
<g id="Node000002" class="node">
<title>Node2</title>
<g id="a_Node000002"><a xlink:title=" ">
<polygon fill="#e0e0e0" stroke="#999999" points="50.5,-144 0,-144 0,-124 50.5,-124 50.5,-144"/>
<text xml:space="preserve" text-anchor="middle" x="25.25" y="-132.4" font-family="SourceSans" font-size="8.00">numbers</text>
</a>
</g>
</g>
<!-- Node1&#45;&gt;Node2 -->
<g id="edge1_Node000001_Node000002" class="edge">
<title>Node1&#45;&gt;Node2</title>
<g id="a_edge1_Node000001_Node000002"><a xlink:title=" ">
<path fill="none" stroke="#63b8ff" d="M202.82,-247.77C160.12,-220.65 87.25,-174.37 49.51,-150.4"/>
<polygon fill="#63b8ff" stroke="#63b8ff" points="51.44,-147.49 41.13,-145.08 47.69,-153.4 51.44,-147.49"/>
</a>
</g>
</g>
<!-- Node3 -->
<g id="Node000003" class="node">
<title>Node3</title>
<g id="a_Node000003"><a xlink:title=" ">
<polygon fill="#e0e0e0" stroke="#999999" points="340,-206 298.5,-206 298.5,-186 340,-186 340,-206"/>
<text xml:space="preserve" text-anchor="middle" x="319.25" y="-194.4" font-family="SourceSans" font-size="8.00">format</text>
</a>
</g>
</g>
<!-- Node1&#45;&gt;Node3 -->
<g id="edge2_Node000001_Node000003" class="edge">
<title>Node1&#45;&gt;Node3</title>
<g id="a_edge2_Node000001_Node000003"><a xlink:title=" ">
<path fill="none" stroke="#63b8ff" d="M260.7,-247.79C273.23,-236.92 288.27,-223.88 299.96,-213.73"/>
<polygon fill="#63b8ff" stroke="#63b8ff" points="302.11,-216.5 307.37,-207.3 297.53,-211.21 302.11,-216.5"/>
</a>
</g>
</g>
<!-- Node4 -->
<g id="Node000004" class="node">
<title>Node4</title>
<g id="a_Node000004"><a xlink:href="a60-svg-radial-fill-hexagon_8h.html" target="_top" xlink:title=" ">
<polygon fill="white" stroke="#666666" points="242.12,-212 162.38,-212 162.38,-180 242.12,-180 242.12,-212"/>
<text xml:space="preserve" text-anchor="start" x="170.38" y="-200.4" font-family="SourceSans" font-size="8.00">a60&#45;svg&#45;radial&#45;fill</text>
<text xml:space="preserve" text-anchor="middle" x="202.25" y="-188.4" font-family="SourceSans" font-size="8.00">&#45;hexagon.h</text>
</a>
</g>
</g>
<!-- Node1&#45;&gt;Node4 -->
<g id="edge3_Node000001_Node000004" class="edge">
<title>Node1&#45;&gt;Node4</title>
<g id="a_edge3_Node000001_Node000004"><a xlink:title=" ">
<path fill="none" stroke="#63b8ff" d="M226.23,-247.79C222.47,-239.83 218.16,-230.7 214.24,-222.4"/>
<polygon fill="#63b8ff" stroke="#63b8ff" points="217.47,-221.04 210.04,-213.5 211.14,-224.03 217.47,-221.04"/>
</a>
</g>
</g>
<!-- Node4&#45;&gt;Node2 -->
<g id="edge7_Node000004_Node000002" class="edge">
<title>Node4&#45;&gt;Node2</title>
<g id="a_edge7_Node000004_Node000002"><a xlink:title=" ">
<path fill="none" stroke="#63b8ff" d="M162.09,-181.39C131.79,-171.11 90.59,-157.15 61.33,-147.23"/>
<polygon fill="#63b8ff" stroke="#63b8ff" points="62.78,-144.03 52.19,-144.13 60.53,-150.66 62.78,-144.03"/>
</a>
</g>
</g>
<!-- Node5 -->
<g id="Node000005" class="node">
<title>Node5</title>
<g id="a_Node000005"><a xlink:title=" ">
<polygon fill="#e0e0e0" stroke="#999999" points="292.5,-82 254,-82 254,-62 292.5,-62 292.5,-82"/>
<text xml:space="preserve" text-anchor="middle" x="273.25" y="-70.4" font-family="SourceSans" font-size="8.00">vector</text>
</a>
</g>
</g>
<!-- Node4&#45;&gt;Node5 -->
<g id="edge4_Node000004_Node000005" class="edge">
<title>Node4&#45;&gt;Node5</title>
<g id="a_edge4_Node000004_Node000005"><a xlink:title=" ">
<path fill="none" stroke="#63b8ff" d="M204.25,-179.71C206.73,-164.7 211.96,-141.57 222.25,-124 229.99,-110.8 241.96,-98.58 252.36,-89.41"/>
<polygon fill="#63b8ff" stroke="#63b8ff" points="254.38,-92.28 259.79,-83.17 249.88,-86.92 254.38,-92.28"/>
</a>
</g>
</g>
<!-- Node6 -->
<g id="Node000006" class="node">
<title>Node6</title>
<g id="a_Node000006"><a xlink:title=" ">
<polygon fill="#e0e0e0" stroke="#999999" points="346.38,-82 310.12,-82 310.12,-62 346.38,-62 346.38,-82"/>
<text xml:space="preserve" text-anchor="middle" x="328.25" y="-70.4" font-family="SourceSans" font-size="8.00">tuple</text>
</a>
</g>
</g>
<!-- Node4&#45;&gt;Node6 -->
<g id="edge5_Node000004_Node000006" class="edge">
<title>Node4&#45;&gt;Node6</title>
<g id="a_edge5_Node000004_Node000006"><a xlink:title=" ">
<path fill="none" stroke="#63b8ff" d="M242.31,-182.74C285.89,-169.21 349.86,-148.72 353.25,-144 364.75,-127.98 354,-106.17 343.24,-90.96"/>
<polygon fill="#63b8ff" stroke="#63b8ff" points="346.19,-89.05 337.32,-83.25 340.63,-93.32 346.19,-89.05"/>
</a>
</g>
</g>
<!-- Node7 -->
<g id="Node000007" class="node">
<title>Node7</title>
<g id="a_Node000007"><a xlink:title=" ">
<polygon fill="#e0e0e0" stroke="#999999" points="146.25,-82 106.25,-82 106.25,-62 146.25,-62 146.25,-82"/>
<text xml:space="preserve" text-anchor="middle" x="126.25" y="-70.4" font-family="SourceSans" font-size="8.00">cmath</text>
</a>
</g>
</g>
<!-- Node4&#45;&gt;Node7 -->
<g id="edge6_Node000004_Node000007" class="edge">
<title>Node4&#45;&gt;Node7</title>
<g id="a_edge6_Node000004_Node000007"><a xlink:title=" ">
<path fill="none" stroke="#63b8ff" d="M192.62,-179.55C178.71,-157.21 152.99,-115.93 137.98,-91.83"/>
<polygon fill="#63b8ff" stroke="#63b8ff" points="141.15,-90.31 132.9,-83.67 135.21,-94.01 141.15,-90.31"/>
</a>
</g>
</g>
<!-- Node8 -->
<g id="Node000008" class="node">
<title>Node8</title>
<g id="a_Node000008"><a xlink:title=" ">
<polygon fill="#e0e0e0" stroke="#999999" points="285.75,-144 230.75,-144 230.75,-124 285.75,-124 285.75,-144"/>
<text xml:space="preserve" text-anchor="middle" x="258.25" y="-132.4" font-family="SourceSans" font-size="8.00">functional</text>
</a>
</g>
</g>
<!-- Node4&#45;&gt;Node8 -->
<g id="edge8_Node000004_Node000008" class="edge">
<title>Node4&#45;&gt;Node8</title>
<g id="a_edge8_Node000004_Node000008"><a xlink:title=" ">
<path fill="none" stroke="#63b8ff" d="M216.67,-179.55C224.37,-171.3 233.87,-161.12 241.85,-152.57"/>
<polygon fill="#63b8ff" stroke="#63b8ff" points="244.17,-155.21 248.44,-145.51 239.05,-150.44 244.17,-155.21"/>
</a>
</g>
</g>
<!-- Node9 -->
<g id="Node000009" class="node">
<title>Node9</title>
<g id="a_Node000009"><a xlink:title=" ">
<polygon fill="#e0e0e0" stroke="#999999" points="344.62,-144 303.88,-144 303.88,-124 344.62,-124 344.62,-144"/>
<text xml:space="preserve" text-anchor="middle" x="324.25" y="-132.4" font-family="SourceSans" font-size="8.00">queue</text>
</a>
</g>
</g>
<!-- Node4&#45;&gt;Node9 -->
<g id="edge9_Node000004_Node000009" class="edge">
<title>Node4&#45;&gt;Node9</title>
<g id="a_edge9_Node000004_Node000009"><a xlink:title=" ">
<path fill="none" stroke="#63b8ff" d="M233.67,-179.55C252.55,-170.26 276.43,-158.52 294.93,-149.42"/>
<polygon fill="#63b8ff" stroke="#63b8ff" points="296.33,-152.63 303.76,-145.08 293.24,-146.35 296.33,-152.63"/>
</a>
</g>
</g>
<!-- Node10 -->
<g id="Node000010" class="node">
<title>Node10</title>
<g id="a_Node000010"><a xlink:title=" ">
<polygon fill="#e0e0e0" stroke="#999999" points="236,-82 164.5,-82 164.5,-62 236,-62 236,-82"/>
<text xml:space="preserve" text-anchor="middle" x="200.25" y="-70.4" font-family="SourceSans" font-size="8.00">unordered_set</text>
</a>
</g>
</g>
<!-- Node4&#45;&gt;Node10 -->
<g id="edge10_Node000004_Node000010" class="edge">
<title>Node4&#45;&gt;Node10</title>
<g id="a_edge10_Node000004_Node000010"><a xlink:title=" ">
<path fill="none" stroke="#63b8ff" d="M196.86,-179.6C193.65,-169.6 189.89,-156.19 188.25,-144 185.93,-126.75 189.68,-107.27 193.59,-93.08"/>
<polygon fill="#63b8ff" stroke="#63b8ff" points="196.9,-94.19 196.47,-83.61 190.21,-92.16 196.9,-94.19"/>
</a>
</g>
</g>
<!-- Node11 -->
<g id="Node000011" class="node">
<title>Node11</title>
<g id="a_Node000011"><a xlink:title=" ">
<polygon fill="#e0e0e0" stroke="#999999" points="487.75,-20 438.75,-20 438.75,0 487.75,0 487.75,-20"/>
<text xml:space="preserve" text-anchor="middle" x="463.25" y="-8.4" font-family="SourceSans" font-size="8.00">iostream</text>
</a>
</g>
</g>
<!-- Node4&#45;&gt;Node11 -->
<g id="edge11_Node000004_Node000011" class="edge">
<title>Node4&#45;&gt;Node11</title>
<g id="a_edge11_Node000004_Node000011"><a xlink:title=" ">
<path fill="none" stroke="#63b8ff" d="M175.65,-179.59C133.47,-153.3 59.68,-98.47 97.25,-56 118.92,-31.5 339.22,-17.44 427.22,-12.76"/>
<polygon fill="#63b8ff" stroke="#63b8ff" points="427.17,-16.27 436.97,-12.26 426.81,-9.28 427.17,-16.27"/>
</a>
</g>
</g>
<!-- Node12 -->
<g id="Node000012" class="node">
<title>Node12</title>
<g id="a_Node000012"><a xlink:href="a60-svg_8h.html" target="_top" xlink:title=" ">
<polygon fill="white" stroke="#666666" points="874.25,-144 822.25,-144 822.25,-124 874.25,-124 874.25,-144"/>
<text xml:space="preserve" text-anchor="middle" x="848.25" y="-132.4" font-family="SourceSans" font-size="8.00">a60&#45;svg.h</text>
</a>
</g>
</g>
<!-- Node4&#45;&gt;Node12 -->
<g id="edge12_Node000004_Node000012" class="edge">
<title>Node4&#45;&gt;Node12</title>
<g id="a_edge12_Node000004_Node000012"><a xlink:title=" ">
<path fill="none" stroke="#63b8ff" d="M242.45,-182.91C247.07,-181.79 251.75,-180.79 256.25,-180 463.18,-143.75 715.86,-136.7 810.28,-135.33"/>
<polygon fill="#63b8ff" stroke="#63b8ff" points="810.3,-138.83 820.25,-135.2 810.21,-131.83 810.3,-138.83"/>
</a>
</g>
</g>
<!-- Node12&#45;&gt;Node1 -->
<g id="edge42_Node000012_Node000001" class="edge">
<title>Node12&#45;&gt;Node1</title>
<g id="a_edge42_Node000012_Node000001"><a xlink:title=" ">
<path fill="none" stroke="#63b8ff" d="M821.97,-135.71C717.47,-138.72 334.86,-151.59 289.25,-180 268.51,-192.91 254.86,-217.18 246.61,-237.12"/>
<polygon fill="#63b8ff" stroke="#63b8ff" points="243.43,-235.65 243.12,-246.24 249.96,-238.15 243.43,-235.65"/>
</a>
</g>
</g>
<!-- Node12&#45;&gt;Node5 -->
<g id="edge19_Node000012_Node000005" class="edge">
<title>Node12&#45;&gt;Node5</title>
<g id="a_edge19_Node000012_Node000005"><a xlink:title=" ">
<path fill="none" stroke="#63b8ff" d="M821.93,-132.25C726.74,-129.33 400.75,-117.36 301.25,-88 300.28,-87.71 299.3,-87.39 298.33,-87.04"/>
<polygon fill="#63b8ff" stroke="#63b8ff" points="300.1,-84 289.55,-83.06 297.21,-90.38 300.1,-84"/>
</a>
</g>
</g>
<!-- Node12&#45;&gt;Node6 -->
<g id="edge17_Node000012_Node000006" class="edge">
<title>Node12&#45;&gt;Node6</title>
<g id="a_edge17_Node000012_Node000006"><a xlink:title=" ">
<path fill="none" stroke="#63b8ff" d="M821.85,-131.97C732.9,-128.29 444.77,-114.56 356.25,-88 355.28,-87.71 354.3,-87.38 353.33,-87.03"/>
<polygon fill="#63b8ff" stroke="#63b8ff" points="355.11,-83.99 344.55,-83.04 352.21,-90.36 355.11,-83.99"/>
</a>
</g>
</g>
<!-- Node12&#45;&gt;Node7 -->
<g id="edge14_Node000012_Node000007" class="edge">
<title>Node12&#45;&gt;Node7</title>
<g id="a_edge14_Node000012_Node000007"><a xlink:title=" ">
<path fill="none" stroke="#63b8ff" d="M822.02,-132.73C711.61,-131.38 284.34,-123.88 155.25,-88 154.25,-87.72 153.24,-87.4 152.23,-87.06"/>
<polygon fill="#63b8ff" stroke="#63b8ff" points="153.67,-83.87 143.11,-83.09 150.88,-90.29 153.67,-83.87"/>
</a>
</g>
</g>
<!-- Node12&#45;&gt;Node10 -->
<g id="edge22_Node000012_Node000010" class="edge">
<title>Node12&#45;&gt;Node10</title>
<g id="a_edge22_Node000012_Node000010"><a xlink:title=" ">
<path fill="none" stroke="#63b8ff" d="M821.78,-133.34C736.98,-133.94 464.74,-132.06 245.25,-88 242.07,-87.36 238.81,-86.57 235.55,-85.67"/>
<polygon fill="#63b8ff" stroke="#63b8ff" points="236.74,-82.38 226.16,-82.81 234.7,-89.07 236.74,-82.38"/>
</a>
</g>
</g>
<!-- Node13 -->
<g id="Node000013" class="node">
<title>Node13</title>
<g id="a_Node000013"><a xlink:title=" ">
<polygon fill="#e0e0e0" stroke="#999999" points="1650.5,-82 1606,-82 1606,-62 1650.5,-62 1650.5,-82"/>
<text xml:space="preserve" text-anchor="middle" x="1628.25" y="-70.4" font-family="SourceSans" font-size="8.00">cstddef</text>
</a>
</g>
</g>
<!-- Node12&#45;&gt;Node13 -->
<g id="edge13_Node000012_Node000013" class="edge">
<title>Node12&#45;&gt;Node13</title>
<g id="a_edge13_Node000012_Node000013"><a xlink:title=" ">
<path fill="none" stroke="#63b8ff" d="M874.59,-132.79C990.59,-131.64 1456.39,-124.77 1597.25,-88 1598.62,-87.64 1600,-87.22 1601.37,-86.76"/>
<polygon fill="#63b8ff" stroke="#63b8ff" points="1602.36,-90.14 1610.26,-83.08 1599.68,-83.67 1602.36,-90.14"/>
</a>
</g>
</g>
<!-- Node14 -->
<g id="Node000014" class="node">
<title>Node14</title>
<g id="a_Node000014"><a xlink:title=" ">
<polygon fill="#e0e0e0" stroke="#999999" points="1663,-20 1609.5,-20 1609.5,0 1663,0 1663,-20"/>
<text xml:space="preserve" text-anchor="middle" x="1636.25" y="-8.4" font-family="SourceSans" font-size="8.00">algorithm</text>
</a>
</g>
</g>
<!-- Node12&#45;&gt;Node14 -->
<g id="edge15_Node000012_Node000014" class="edge">
<title>Node12&#45;&gt;Node14</title>
<g id="a_edge15_Node000012_Node000014"><a xlink:title=" ">
<path fill="none" stroke="#63b8ff" d="M874.69,-132.54C1011.28,-130.05 1631.66,-117.16 1659.25,-88 1674.32,-72.07 1662.22,-46.68 1650.63,-29.45"/>
<polygon fill="#63b8ff" stroke="#63b8ff" points="1653.65,-27.66 1644.96,-21.61 1647.98,-31.76 1653.65,-27.66"/>
</a>
</g>
</g>
<!-- Node15 -->
<g id="Node000015" class="node">
<title>Node15</title>
<g id="a_Node000015"><a xlink:title=" ">
<polygon fill="#e0e0e0" stroke="#999999" points="399.62,-82 364.88,-82 364.88,-62 399.62,-62 399.62,-82"/>
<text xml:space="preserve" text-anchor="middle" x="382.25" y="-70.4" font-family="SourceSans" font-size="8.00">array</text>
</a>
</g>
</g>
<!-- Node12&#45;&gt;Node15 -->
<g id="edge16_Node000012_Node000015" class="edge">
<title>Node12&#45;&gt;Node15</title>
<g id="a_edge16_Node000012_Node000015"><a xlink:title=" ">
<path fill="none" stroke="#63b8ff" d="M821.84,-131.69C739.31,-127.37 487.09,-112.47 409.25,-88 408.44,-87.75 407.64,-87.47 406.83,-87.17"/>
<polygon fill="#63b8ff" stroke="#63b8ff" points="408.53,-84.1 397.99,-83.03 405.56,-90.44 408.53,-84.1"/>
</a>
</g>
</g>
<!-- Node16 -->
<g id="Node000016" class="node">
<title>Node16</title>
<g id="a_Node000016"><a xlink:title=" ">
<polygon fill="#e0e0e0" stroke="#999999" points="456.5,-82 418,-82 418,-62 456.5,-62 456.5,-82"/>
<text xml:space="preserve" text-anchor="middle" x="437.25" y="-70.4" font-family="SourceSans" font-size="8.00">string</text>
</a>
</g>
</g>
<!-- Node12&#45;&gt;Node16 -->
<g id="edge18_Node000012_Node000016" class="edge">
<title>Node12&#45;&gt;Node16</title>
<g id="a_edge18_Node000012_Node000016"><a xlink:title=" ">
<path fill="none" stroke="#63b8ff" d="M822.11,-133.12C759.31,-132.71 595.54,-127.61 466.25,-88 465.28,-87.7 464.3,-87.37 463.32,-87.02"/>
<polygon fill="#63b8ff" stroke="#63b8ff" points="465.02,-83.94 454.45,-83.09 462.18,-90.34 465.02,-83.94"/>
</a>
</g>
</g>
<!-- Node17 -->
<g id="Node000017" class="node">
<title>Node17</title>
<g id="a_Node000017"><a xlink:title=" ">
<polygon fill="#e0e0e0" stroke="#999999" points="503.65,-82 474.85,-82 474.85,-62 503.65,-62 503.65,-82"/>
<text xml:space="preserve" text-anchor="middle" x="489.25" y="-70.4" font-family="SourceSans" font-size="8.00">set</text>
</a>
</g>
</g>
<!-- Node12&#45;&gt;Node17 -->
<g id="edge20_Node000012_Node000017" class="edge">
<title>Node12&#45;&gt;Node17</title>
<g id="a_edge20_Node000012_Node000017"><a xlink:title=" ">
<path fill="none" stroke="#63b8ff" d="M822.03,-133.36C764.18,-133.35 622.05,-128.77 512.25,-88 511.9,-87.87 511.55,-87.73 511.19,-87.59"/>
<polygon fill="#63b8ff" stroke="#63b8ff" points="513.16,-84.68 502.7,-83.04 509.86,-90.85 513.16,-84.68"/>
</a>
</g>
</g>
<!-- Node18 -->
<g id="Node000018" class="node">
<title>Node18</title>
<g id="a_Node000018"><a xlink:title=" ">
<polygon fill="#e0e0e0" stroke="#999999" points="599,-82 521.5,-82 521.5,-62 599,-62 599,-82"/>
<text xml:space="preserve" text-anchor="middle" x="560.25" y="-70.4" font-family="SourceSans" font-size="8.00">unordered_map</text>
</a>
</g>
</g>
<!-- Node12&#45;&gt;Node18 -->
<g id="edge21_Node000012_Node000018" class="edge">
<title>Node12&#45;&gt;Node18</title>
<g id="a_edge21_Node000012_Node000018"><a xlink:title=" ">
<path fill="none" stroke="#63b8ff" d="M821.75,-129.08C777.28,-122.26 684.97,-107.11 608.25,-88 605.33,-87.27 602.33,-86.47 599.32,-85.63"/>
<polygon fill="#63b8ff" stroke="#63b8ff" points="600.55,-82.34 589.97,-82.87 598.57,-89.05 600.55,-82.34"/>
</a>
</g>
</g>
<!-- Node19 -->
<g id="Node000019" class="node">
<title>Node19</title>
<g id="a_Node000019"><a xlink:title=" ">
<polygon fill="#e0e0e0" stroke="#999999" points="663.25,-82 617.25,-82 617.25,-62 663.25,-62 663.25,-82"/>
<text xml:space="preserve" text-anchor="middle" x="640.25" y="-70.4" font-family="SourceSans" font-size="8.00">sstream</text>
</a>
</g>
</g>
<!-- Node12&#45;&gt;Node19 -->
<g id="edge23_Node000012_Node000019" class="edge">
<title>Node12&#45;&gt;Node19</title>
<g id="a_edge23_Node000012_Node000019"><a xlink:title=" ">
<path fill="none" stroke="#63b8ff" d="M821.85,-127.87C787.01,-120.74 724.05,-106.58 672.25,-88 671.29,-87.66 670.32,-87.29 669.34,-86.92"/>
<polygon fill="#63b8ff" stroke="#63b8ff" points="670.92,-83.78 660.35,-83.08 668.17,-90.22 670.92,-83.78"/>
</a>
</g>
</g>
<!-- Node20 -->
<g id="Node000020" class="node">
<title>Node20</title>
<g id="a_Node000020"><a xlink:href="a60-svg-color_8h.html" target="_top" xlink:title=" ">
<polygon fill="white" stroke="#666666" points="1778,-82 1706.5,-82 1706.5,-62 1778,-62 1778,-82"/>
<text xml:space="preserve" text-anchor="middle" x="1742.25" y="-70.4" font-family="SourceSans" font-size="8.00">a60&#45;svg&#45;color.h</text>
</a>
</g>
</g>
<!-- Node12&#45;&gt;Node20 -->
<g id="edge24_Node000012_Node000020" class="edge">
<title>Node12&#45;&gt;Node20</title>
<g id="a_edge24_Node000012_Node000020"><a xlink:title=" ">
<path fill="none" stroke="#63b8ff" d="M874.39,-132.44C998.54,-129.68 1529.26,-116.38 1692.25,-88 1696.12,-87.33 1700.11,-86.45 1704.07,-85.46"/>
<polygon fill="#63b8ff" stroke="#63b8ff" points="1704.85,-88.88 1713.56,-82.85 1702.99,-82.13 1704.85,-88.88"/>
</a>
</g>
</g>
<!-- Node24 -->
<g id="Node000024" class="node">
<title>Node24</title>
<g id="a_Node000024"><a xlink:href="a60-svg-color-palette_8h.html" target="_top" xlink:title=" ">
<polygon fill="white" stroke="#666666" points="783,-82 681.5,-82 681.5,-62 783,-62 783,-82"/>
<text xml:space="preserve" text-anchor="middle" x="732.25" y="-70.4" font-family="SourceSans" font-size="8.00">a60&#45;svg&#45;color&#45;palette.h</text>
</a>
</g>
</g>
<!-- Node12&#45;&gt;Node24 -->
<g id="edge29_Node000012_Node000024" class="edge">
<title>Node12&#45;&gt;Node24</title>
<g id="a_edge29_Node000012_Node000024"><a xlink:title=" ">
<path fill="none" stroke="#63b8ff" d="M830.12,-123.62C811.4,-113.94 781.92,-98.69 760.2,-87.46"/>
<polygon fill="#63b8ff" stroke="#63b8ff" points="762.08,-84.49 751.59,-83 758.87,-90.71 762.08,-84.49"/>
</a>
</g>
</g>
<!-- Node25 -->
<g id="Node000025" class="node">
<title>Node25</title>
<g id="a_Node000025"><a xlink:href="a60-svg-color-band_8h.html" target="_top" xlink:title=" ">
<polygon fill="white" stroke="#666666" points="895.62,-82 800.88,-82 800.88,-62 895.62,-62 895.62,-82"/>
<text xml:space="preserve" text-anchor="middle" x="848.25" y="-70.4" font-family="SourceSans" font-size="8.00">a60&#45;svg&#45;color&#45;band.h</text>
</a>
</g>
</g>
<!-- Node12&#45;&gt;Node25 -->
<g id="edge30_Node000012_Node000025" class="edge">
<title>Node12&#45;&gt;Node25</title>
<g id="a_edge30_Node000012_Node000025"><a xlink:title=" ">
<path fill="none" stroke="#63b8ff" d="M848.25,-123.62C848.25,-115.56 848.25,-103.65 848.25,-93.41"/>
<polygon fill="#63b8ff" stroke="#63b8ff" points="851.75,-93.63 848.25,-83.63 844.75,-93.63 851.75,-93.63"/>
</a>
</g>
</g>
<!-- Node26 -->
<g id="Node000026" class="node">
<title>Node26</title>
<g id="a_Node000026"><a xlink:href="izzi-points_8h.html" target="_top" xlink:title=" ">
<polygon fill="white" stroke="#666666" points="975.12,-82 913.38,-82 913.38,-62 975.12,-62 975.12,-82"/>
<text xml:space="preserve" text-anchor="middle" x="944.25" y="-70.4" font-family="SourceSans" font-size="8.00">izzi&#45;points.h</text>
</a>
</g>
</g>
<!-- Node12&#45;&gt;Node26 -->
<g id="edge32_Node000012_Node000026" class="edge">
<title>Node12&#45;&gt;Node26</title>
<g id="a_edge32_Node000012_Node000026"><a xlink:title=" ">
<path fill="none" stroke="#63b8ff" d="M863.25,-123.62C878.33,-114.2 901.82,-99.52 919.63,-88.39"/>
<polygon fill="#63b8ff" stroke="#63b8ff" points="921.45,-91.38 928.07,-83.11 917.74,-85.44 921.45,-91.38"/>
</a>
</g>
</g>
<!-- Node27 -->
<g id="Node000027" class="node">
<title>Node27</title>
<g id="a_Node000027"><a xlink:href="a60-svg-base-types_8h.html" target="_top" xlink:title=" ">
<polygon fill="white" stroke="#666666" points="1890.62,-82 1795.88,-82 1795.88,-62 1890.62,-62 1890.62,-82"/>
<text xml:space="preserve" text-anchor="middle" x="1843.25" y="-70.4" font-family="SourceSans" font-size="8.00">a60&#45;svg&#45;base&#45;types.h</text>
</a>
</g>
</g>
<!-- Node12&#45;&gt;Node27 -->
<g id="edge33_Node000012_Node000027" class="edge">
<title>Node12&#45;&gt;Node27</title>
<g id="a_edge33_Node000012_Node000027"><a xlink:title=" ">
<path fill="none" stroke="#63b8ff" d="M874.62,-132.5C1007.48,-129.85 1604.22,-116.56 1787.25,-88 1791.95,-87.27 1796.82,-86.29 1801.64,-85.19"/>
<polygon fill="#63b8ff" stroke="#63b8ff" points="1802.36,-88.62 1811.22,-82.81 1800.68,-81.83 1802.36,-88.62"/>
</a>
</g>
</g>
<!-- Node31 -->
<g id="Node000031" class="node">
<title>Node31</title>
<g id="a_Node000031"><a xlink:href="a60-svg-constants_8h.html" target="_top" xlink:title=" ">
<polygon fill="white" stroke="#666666" points="1083.75,-82 992.75,-82 992.75,-62 1083.75,-62 1083.75,-82"/>
<text xml:space="preserve" text-anchor="middle" x="1038.25" y="-70.4" font-family="SourceSans" font-size="8.00">a60&#45;svg&#45;constants.h</text>
</a>
</g>
</g>
<!-- Node12&#45;&gt;Node31 -->
<g id="edge38_Node000012_Node000031" class="edge">
<title>Node12&#45;&gt;Node31</title>
<g id="a_edge38_Node000012_Node000031"><a xlink:title=" ">
<path fill="none" stroke="#63b8ff" d="M874.67,-124.66C906.46,-114.62 960.18,-97.65 997.34,-85.92"/>
<polygon fill="#63b8ff" stroke="#63b8ff" points="998.38,-89.26 1006.86,-82.91 996.27,-82.59 998.38,-89.26"/>
</a>
</g>
</g>
<!-- Node32 -->
<g id="Node000032" class="node">
<title>Node32</title>
<g id="a_Node000032"><a xlink:href="a60-svg-elements_8h.html" target="_top" xlink:title=" ">
<polygon fill="white" stroke="#666666" points="1191,-82 1101.5,-82 1101.5,-62 1191,-62 1191,-82"/>
<text xml:space="preserve" text-anchor="middle" x="1146.25" y="-70.4" font-family="SourceSans" font-size="8.00">a60&#45;svg&#45;elements.h</text>
</a>
</g>
</g>
<!-- Node12&#45;&gt;Node32 -->
<g id="edge39_Node000012_Node000032" class="edge">
<title>Node12&#45;&gt;Node32</title>
<g id="a_edge39_Node000012_Node000032"><a xlink:title=" ">
<path fill="none" stroke="#63b8ff" d="M874.52,-129.01C919.56,-121.98 1014.28,-106.39 1093.25,-88 1096.63,-87.21 1100.12,-86.35 1103.62,-85.44"/>
<polygon fill="#63b8ff" stroke="#63b8ff" points="1104.5,-88.83 1113.25,-82.85 1102.68,-82.07 1104.5,-88.83"/>
</a>
</g>
</g>
<!-- Node33 -->
<g id="Node000033" class="node">
<title>Node33</title>
<g id="a_Node000033"><a xlink:href="a60-svg-elements-components_8h.html" target="_top" xlink:title=" ">
<polygon fill="white" stroke="#666666" points="1347.75,-82 1208.75,-82 1208.75,-62 1347.75,-62 1347.75,-82"/>
<text xml:space="preserve" text-anchor="middle" x="1278.25" y="-70.4" font-family="SourceSans" font-size="8.00">a60&#45;svg&#45;elements&#45;components.h</text>
</a>
</g>
</g>
<!-- Node12&#45;&gt;Node33 -->
<g id="edge40_Node000012_Node000033" class="edge">
<title>Node12&#45;&gt;Node33</title>
<g id="a_edge40_Node000012_Node000033"><a xlink:title=" ">
<path fill="none" stroke="#63b8ff" d="M874.38,-130.23C932.91,-123.9 1078.88,-107.41 1200.25,-88 1206.79,-86.95 1213.63,-85.77 1220.41,-84.54"/>
<polygon fill="#63b8ff" stroke="#63b8ff" points="1221.05,-87.98 1230.24,-82.72 1219.77,-81.1 1221.05,-87.98"/>
</a>
</g>
</g>
<!-- Node34 -->
<g id="Node000034" class="node">
<title>Node34</title>
<g id="a_Node000034"><a xlink:href="a60-svg-render-state_8h.html" target="_top" xlink:title=" ">
<polygon fill="white" stroke="#666666" points="1466.62,-82 1365.88,-82 1365.88,-62 1466.62,-62 1466.62,-82"/>
<text xml:space="preserve" text-anchor="middle" x="1416.25" y="-70.4" font-family="SourceSans" font-size="8.00">a60&#45;svg&#45;render&#45;state.h</text>
</a>
</g>
</g>
<!-- Node12&#45;&gt;Node34 -->
<g id="edge41_Node000012_Node000034" class="edge">
<title>Node12&#45;&gt;Node34</title>
<g id="a_edge41_Node000012_Node000034"><a xlink:title=" ">
<path fill="none" stroke="#63b8ff" d="M874.67,-132.16C950.34,-129.44 1174.25,-119.14 1357.25,-88 1362.13,-87.17 1367.2,-86.14 1372.22,-85.01"/>
<polygon fill="#63b8ff" stroke="#63b8ff" points="1372.67,-88.51 1381.59,-82.78 1371.05,-81.7 1372.67,-88.51"/>
</a>
</g>
</g>
<!-- Node35 -->
<g id="Node000035" class="node">
<title>Node35</title>
<g id="a_Node000035"><a xlink:href="a60-svg-composite-and-layer-basics_8h.html" target="_top" xlink:title=" ">
<polygon fill="white" stroke="#666666" points="1587.75,-88 1484.75,-88 1484.75,-56 1587.75,-56 1587.75,-88"/>
<text xml:space="preserve" text-anchor="start" x="1492.75" y="-76.4" font-family="SourceSans" font-size="8.00">a60&#45;svg&#45;composite&#45;and</text>
<text xml:space="preserve" text-anchor="middle" x="1536.25" y="-64.4" font-family="SourceSans" font-size="8.00">&#45;layer&#45;basics.h</text>
</a>
</g>
</g>
<!-- Node12&#45;&gt;Node35 -->
<g id="edge43_Node000012_Node000035" class="edge">
<title>Node12&#45;&gt;Node35</title>
<g id="a_edge43_Node000012_Node000035"><a xlink:title=" ">
<path fill="none" stroke="#63b8ff" d="M874.71,-132.7C960.06,-131.4 1235.75,-124.59 1473.18,-88.13"/>
<polygon fill="#63b8ff" stroke="#63b8ff" points="1473.62,-91.6 1482.96,-86.6 1472.54,-84.69 1473.62,-91.6"/>
</a>
</g>
</g>
<!-- Node36 -->
<g id="Node000036" class="node">
<title>Node36</title>
<g id="a_Node000036"><a xlink:href="a60-svg-sequences_8h.html" target="_top" xlink:title=" ">
<polygon fill="white" stroke="#666666" points="2003.62,-82 1908.88,-82 1908.88,-62 2003.62,-62 2003.62,-82"/>
<text xml:space="preserve" text-anchor="middle" x="1956.25" y="-70.4" font-family="SourceSans" font-size="8.00">a60&#45;svg&#45;sequences.h</text>
</a>
</g>
</g>
<!-- Node12&#45;&gt;Node36 -->
<g id="edge44_Node000012_Node000036" class="edge">
<title>Node12&#45;&gt;Node36</title>
<g id="a_edge44_Node000012_Node000036"><a xlink:title=" ">
<path fill="none" stroke="#63b8ff" d="M874.57,-132.6C1015.97,-130.43 1685.07,-119.02 1890.25,-88 1895.16,-87.26 1900.26,-86.26 1905.37,-85.12"/>
<polygon fill="#63b8ff" stroke="#63b8ff" points="1906.07,-88.55 1914.99,-82.83 1904.45,-81.74 1906.07,-88.55"/>
</a>
</g>
</g>
<!-- Node20&#45;&gt;Node14 -->
<g id="edge26_Node000020_Node000014" class="edge">
<title>Node20&#45;&gt;Node14</title>
<g id="a_edge26_Node000020_Node000014"><a xlink:title=" ">
<path fill="none" stroke="#63b8ff" d="M1725.69,-61.62C1708.81,-52.07 1682.37,-37.11 1662.61,-25.92"/>
<polygon fill="#63b8ff" stroke="#63b8ff" points="1664.44,-22.93 1654.01,-21.05 1660.99,-29.03 1664.44,-22.93"/>
</a>
</g>
</g>
<!-- Node21 -->
<g id="Node000021" class="node">
<title>Node21</title>
<g id="a_Node000021"><a xlink:title=" ">
<polygon fill="#e0e0e0" stroke="#999999" points="1779.88,-20 1746.62,-20 1746.62,0 1779.88,0 1779.88,-20"/>
<text xml:space="preserve" text-anchor="middle" x="1763.25" y="-8.4" font-family="SourceSans" font-size="8.00">map</text>
</a>
</g>
</g>
<!-- Node20&#45;&gt;Node21 -->
<g id="edge25_Node000020_Node000021" class="edge">
<title>Node20&#45;&gt;Node21</title>
<g id="a_edge25_Node000020_Node000021"><a xlink:title=" ">
<path fill="none" stroke="#63b8ff" d="M1745.53,-61.62C1748.41,-53.39 1752.71,-41.13 1756.34,-30.74"/>
<polygon fill="#63b8ff" stroke="#63b8ff" points="1759.56,-32.14 1759.56,-21.54 1752.95,-29.82 1759.56,-32.14"/>
</a>
</g>
</g>
<!-- Node22 -->
<g id="Node000022" class="node">
<title>Node22</title>
<g id="a_Node000022"><a xlink:title=" ">
<polygon fill="#e0e0e0" stroke="#999999" points="1908.25,-20 1862.25,-20 1862.25,0 1908.25,0 1908.25,-20"/>
<text xml:space="preserve" text-anchor="middle" x="1885.25" y="-8.4" font-family="SourceSans" font-size="8.00">random</text>
</a>
</g>
</g>
<!-- Node20&#45;&gt;Node22 -->
<g id="edge27_Node000020_Node000022" class="edge">
<title>Node20&#45;&gt;Node22</title>
<g id="a_edge27_Node000020_Node000022"><a xlink:title=" ">
<path fill="none" stroke="#63b8ff" d="M1764.59,-61.62C1788.21,-51.72 1825.68,-35.99 1852.6,-24.7"/>
<polygon fill="#63b8ff" stroke="#63b8ff" points="1853.8,-27.99 1861.67,-20.89 1851.09,-21.54 1853.8,-27.99"/>
</a>
</g>
</g>
<!-- Node23 -->
<g id="Node000023" class="node">
<title>Node23</title>
<g id="a_Node000023"><a xlink:title=" ">
<polygon fill="#e0e0e0" stroke="#999999" points="1729,-20 1681.5,-20 1681.5,0 1729,0 1729,-20"/>
<text xml:space="preserve" text-anchor="middle" x="1705.25" y="-8.4" font-family="SourceSans" font-size="8.00">iomanip</text>
</a>
</g>
</g>
<!-- Node20&#45;&gt;Node23 -->
<g id="edge28_Node000020_Node000023" class="edge">
<title>Node20&#45;&gt;Node23</title>
<g id="a_edge28_Node000020_Node000023"><a xlink:title=" ">
<path fill="none" stroke="#63b8ff" d="M1736.47,-61.62C1731.22,-53.12 1723.34,-40.33 1716.8,-29.74"/>
<polygon fill="#63b8ff" stroke="#63b8ff" points="1719.89,-28.08 1711.66,-21.4 1713.93,-31.75 1719.89,-28.08"/>
</a>
</g>
</g>
<!-- Node25&#45;&gt;Node11 -->
<g id="edge31_Node000025_Node000011" class="edge">
<title>Node25&#45;&gt;Node11</title>
<g id="a_edge31_Node000025_Node000011"><a xlink:title=" ">
<path fill="none" stroke="#63b8ff" d="M815.84,-61.58C808.15,-59.55 799.95,-57.55 792.25,-56 686.82,-34.76 560.33,-20.58 499.46,-14.45"/>
<polygon fill="#63b8ff" stroke="#63b8ff" points="499.99,-10.98 489.7,-13.48 499.3,-17.95 499.99,-10.98"/>
</a>
</g>
</g>
<!-- Node27&#45;&gt;Node21 -->
<g id="edge34_Node000027_Node000021" class="edge">
<title>Node27&#45;&gt;Node21</title>
<g id="a_edge34_Node000027_Node000021"><a xlink:title=" ">
<path fill="none" stroke="#63b8ff" d="M1830.75,-61.62C1818.42,-52.38 1799.34,-38.07 1784.6,-27.01"/>
<polygon fill="#63b8ff" stroke="#63b8ff" points="1786.97,-24.42 1776.87,-21.22 1782.77,-30.02 1786.97,-24.42"/>
</a>
</g>
</g>
<!-- Node28 -->
<g id="Node000028" class="node">
<title>Node28</title>
<g id="a_Node000028"><a xlink:title=" ">
<polygon fill="#e0e0e0" stroke="#999999" points="1844.62,-20 1797.88,-20 1797.88,0 1844.62,0 1844.62,-20"/>
<text xml:space="preserve" text-anchor="middle" x="1821.25" y="-8.4" font-family="SourceSans" font-size="8.00">ostream</text>
</a>
</g>
</g>
<!-- Node27&#45;&gt;Node28 -->
<g id="edge35_Node000027_Node000028" class="edge">
<title>Node27&#45;&gt;Node28</title>
<g id="a_edge35_Node000027_Node000028"><a xlink:title=" ">
<path fill="none" stroke="#63b8ff" d="M1839.81,-61.62C1836.79,-53.39 1832.3,-41.13 1828.49,-30.74"/>
<polygon fill="#63b8ff" stroke="#63b8ff" points="1831.84,-29.72 1825.11,-21.53 1825.27,-32.13 1831.84,-29.72"/>
</a>
</g>
</g>
<!-- Node29 -->
<g id="Node000029" class="node">
<title>Node29</title>
<g id="a_Node000029"><a xlink:title=" ">
<polygon fill="#e0e0e0" stroke="#999999" points="2031.88,-20 1986.62,-20 1986.62,0 2031.88,0 2031.88,-20"/>
<text xml:space="preserve" text-anchor="middle" x="2009.25" y="-8.4" font-family="SourceSans" font-size="8.00">fstream</text>
</a>
</g>
</g>
<!-- Node27&#45;&gt;Node29 -->
<g id="edge36_Node000027_Node000029" class="edge">
<title>Node27&#45;&gt;Node29</title>
<g id="a_edge36_Node000027_Node000029"><a xlink:title=" ">
<path fill="none" stroke="#63b8ff" d="M1869.19,-61.62C1897.9,-51.25 1944.27,-34.49 1975.72,-23.12"/>
<polygon fill="#63b8ff" stroke="#63b8ff" points="1976.53,-26.55 1984.74,-19.86 1974.15,-19.96 1976.53,-26.55"/>
</a>
</g>
</g>
<!-- Node30 -->
<g id="Node000030" class="node">
<title>Node30</title>
<g id="a_Node000030"><a xlink:title=" ">
<polygon fill="#e0e0e0" stroke="#999999" points="1968.38,-20 1926.12,-20 1926.12,0 1968.38,0 1968.38,-20"/>
<text xml:space="preserve" text-anchor="middle" x="1947.25" y="-8.4" font-family="SourceSans" font-size="8.00">cstdint</text>
</a>
</g>
</g>
<!-- Node27&#45;&gt;Node30 -->
<g id="edge37_Node000027_Node000030" class="edge">
<title>Node27&#45;&gt;Node30</title>
<g id="a_edge37_Node000027_Node000030"><a xlink:title=" ">
<path fill="none" stroke="#63b8ff" d="M1859.5,-61.62C1876.06,-52.07 1902,-37.11 1921.39,-25.92"/>
<polygon fill="#63b8ff" stroke="#63b8ff" points="1922.89,-29.09 1929.8,-21.07 1919.39,-23.03 1922.89,-29.09"/>
</a>
</g>
</g>
<!-- Node36&#45;&gt;Node12 -->
<g id="edge48_Node000036_Node000012" class="edge">
<title>Node36&#45;&gt;Node12</title>
<g id="a_edge48_Node000036_Node000012"><a xlink:title=" ">
<path fill="none" stroke="#63b8ff" d="M1933.83,-82.47C1925.81,-84.66 1916.75,-86.72 1908.25,-88 1705.65,-118.63 1050.77,-130.14 886.05,-132.51"/>
<polygon fill="#63b8ff" stroke="#63b8ff" points="886.08,-129.01 876.13,-132.65 886.18,-136.01 886.08,-129.01"/>
</a>
</g>
</g>
<!-- Node36&#45;&gt;Node22 -->
<g id="edge46_Node000036_Node000022" class="edge">
<title>Node36&#45;&gt;Node22</title>
<g id="a_edge46_Node000036_Node000022"><a xlink:title=" ">
<path fill="none" stroke="#63b8ff" d="M1945.16,-61.62C1934.36,-52.5 1917.73,-38.45 1904.72,-27.46"/>
<polygon fill="#63b8ff" stroke="#63b8ff" points="1907.09,-24.87 1897.19,-21.09 1902.57,-30.22 1907.09,-24.87"/>
</a>
</g>
</g>
<!-- Node36&#45;&gt;Node29 -->
<g id="edge45_Node000036_Node000029" class="edge">
<title>Node36&#45;&gt;Node29</title>
<g id="a_edge45_Node000036_Node000029"><a xlink:title=" ">
<path fill="none" stroke="#63b8ff" d="M1964.53,-61.62C1972.36,-52.77 1984.29,-39.26 1993.86,-28.43"/>
<polygon fill="#63b8ff" stroke="#63b8ff" points="1996.2,-31.06 2000.2,-21.25 1990.95,-26.42 1996.2,-31.06"/>
</a>
</g>
</g>
<!-- Node37 -->
<g id="Node000037" class="node">
<title>Node37</title>
<g id="a_Node000037"><a xlink:title=" ">
<polygon fill="#e0e0e0" stroke="#999999" points="2098.38,-20 2050.12,-20 2050.12,0 2098.38,0 2098.38,-20"/>
<text xml:space="preserve" text-anchor="middle" x="2074.25" y="-8.4" font-family="SourceSans" font-size="8.00">unistd.h</text>
</a>
</g>
</g>
<!-- Node36&#45;&gt;Node37 -->
<g id="edge47_Node000036_Node000037" class="edge">
<title>Node36&#45;&gt;Node37</title>
<g id="a_edge47_Node000036_Node000037"><a xlink:title=" ">
<path fill="none" stroke="#63b8ff" d="M1974.69,-61.62C1993.74,-51.94 2023.72,-36.69 2045.81,-25.46"/>
<polygon fill="#63b8ff" stroke="#63b8ff" points="2047.27,-28.65 2054.59,-21 2044.09,-22.41 2047.27,-28.65"/>
</a>
</g>
</g>
</g>
</svg>
