<?xml version="1.0" encoding="UTF-8" standalone="no"?>
<!DOCTYPE svg PUBLIC "-//W3C//DTD SVG 1.1//EN"
 "http://www.w3.org/Graphics/SVG/1.1/DTD/svg11.dtd">
<!-- Generated by graphviz version 12.2.1 (20241206.2353)
 -->
<!-- Title: /home/bkoz/src/izzi/src/a60&#45;svg&#45;sequences.h Pages: 1 -->
<!--zoomable 288 -->

<svg id="main" version="1.1" xmlns="http://www.w3.org/2000/svg" xmlns:xlink="http://www.w3.org/1999/xlink" xml:space="preserve" onload="init(evt)">

<style type="text/css"><![CDATA[
.node, .edge {opacity: 0.7;}
.node.selected, .edge.selected {opacity: 1;}
.edge:hover path { stroke: red; }
.edge:hover polygon { stroke: red; fill: red; }
]]></style>

<defs>
  <circle id="rim" cx="0" cy="0" r="7"/>
  <circle id="rim2" cx="0" cy="0" r="3.5"/>
  <g id="zoomPlus">
    <use xlink:href="#rim" fill="#404040"><set attributeName="fill" to="#808080" begin="zoomplus.mouseover" end="zoomplus.mouseout"/></use>
    <path d="M-4,0h8M0,-4v8" fill="none" stroke="white" stroke-width="1.5" pointer-events="none"/>
  </g>
  <g id="zoomMin">
    <use xlink:href="#rim" fill="#404040"><set attributeName="fill" to="#808080" begin="zoomminus.mouseover" end="zoomminus.mouseout"/></use>
    <path d="M-4,0h8" fill="none" stroke="white" stroke-width="1.5" pointer-events="none"/>
  </g>
  <g id="arrowUp" transform="translate(30 24)">
    <use xlink:href="#rim"/>
    <path pointer-events="none" fill="none" stroke="white" stroke-width="1.5" d="M0,-3.0v7 M-2.5,-0.5L0,-3.0L2.5,-0.5"/>
  </g>
  <g id="arrowRight" transform="rotate(90) translate(36 -43)">
    <use xlink:href="#rim"/>
    <path pointer-events="none" fill="none" stroke="white" stroke-width="1.5" d="M0,-3.0v7 M-2.5,-0.5L0,-3.0L2.5,-0.5"/>
  </g>
  <g id="arrowDown" transform="rotate(180) translate(-30 -48)">
    <use xlink:href="#rim"/>
    <path pointer-events="none" fill="none" stroke="white" stroke-width="1.5" d="M0,-3.0v7 M-2.5,-0.5L0,-3.0L2.5,-0.5"/>
  </g>
  <g id="arrowLeft" transform="rotate(270) translate(-36 17)">
    <use xlink:href="#rim"/>
    <path pointer-events="none" fill="none" stroke="white" stroke-width="1.5" d="M0,-3.0v7 M-2.5,-0.5L0,-3.0L2.5,-0.5"/>
  </g>
  <g id="resetDef">
    <use xlink:href="#rim2" fill="#404040"><set attributeName="fill" to="#808080" begin="reset.mouseover" end="reset.mouseout"/></use>
  </g>
</defs>
<script type="application/ecmascript">
var viewWidth = 1873;
var viewHeight = 288;
var sectionId = 'dynsection-0';
</script>
<script type="application/ecmascript" xlink:href="svg.min.js"/>
<svg id="graph" class="graph">
<g id="viewport">
<title>/home/bkoz/src/izzi/src/a60&#45;svg&#45;sequences.h</title>
<!-- Node1 -->
<g id="Node000001" class="node">
<title>Node1</title>
<g id="a_Node000001"><a xlink:title=" ">
<polygon fill="#999999" stroke="#666666" points="804.25,-280 693,-280 693,-248 804.25,-248 804.25,-280"/>
<text text-anchor="start" x="701" y="-268.4" font-family="SourceSans" font-size="8.00">/home/bkoz/src/izzi</text>
<text text-anchor="middle" x="748.62" y="-256.4" font-family="SourceSans" font-size="8.00">/src/a60&#45;svg&#45;sequences.h</text>
</a>
</g>
</g>
<!-- Node2 -->
<g id="Node000002" class="node">
<title>Node2</title>
<g id="a_Node000002"><a xlink:title=" ">
<polygon fill="#e0e0e0" stroke="#999999" points="45.25,-82 0,-82 0,-62 45.25,-62 45.25,-82"/>
<text text-anchor="middle" x="22.62" y="-70.4" font-family="SourceSans" font-size="8.00">fstream</text>
</a>
</g>
</g>
<!-- Node1&#45;&gt;Node2 -->
<g id="edge1_Node000001_Node000002" class="edge">
<title>Node1&#45;&gt;Node2</title>
<g id="a_edge1_Node000001_Node000002"><a xlink:title=" ">
<path fill="none" stroke="#63b8ff" d="M692.82,-260.23C574.62,-253.95 302.62,-237.19 213.62,-212 159.31,-196.63 144.91,-189.7 99.62,-156 74.35,-137.19 50.53,-109.39 36.26,-91.23"/>
<polygon fill="#63b8ff" stroke="#63b8ff" points="39.16,-89.26 30.29,-83.46 33.6,-93.52 39.16,-89.26"/>
</a>
</g>
</g>
<!-- Node3 -->
<g id="Node000003" class="node">
<title>Node3</title>
<g id="a_Node000003"><a xlink:title=" ">
<polygon fill="#e0e0e0" stroke="#999999" points="109.62,-82 63.62,-82 63.62,-62 109.62,-62 109.62,-82"/>
<text text-anchor="middle" x="86.62" y="-70.4" font-family="SourceSans" font-size="8.00">random</text>
</a>
</g>
</g>
<!-- Node1&#45;&gt;Node3 -->
<g id="edge2_Node000001_Node000003" class="edge">
<title>Node1&#45;&gt;Node3</title>
<g id="a_edge2_Node000001_Node000003"><a xlink:title=" ">
<path fill="none" stroke="#63b8ff" d="M693,-259.65C558.33,-250.57 219.27,-221.63 129.62,-156 108.8,-140.75 97.25,-112.4 91.49,-93.13"/>
<polygon fill="#63b8ff" stroke="#63b8ff" points="94.94,-92.45 88.96,-83.71 88.18,-94.27 94.94,-92.45"/>
</a>
</g>
</g>
<!-- Node4 -->
<g id="Node000004" class="node">
<title>Node4</title>
<g id="a_Node000004"><a xlink:title=" ">
<polygon fill="#e0e0e0" stroke="#999999" points="840.75,-212 792.5,-212 792.5,-192 840.75,-192 840.75,-212"/>
<text text-anchor="middle" x="816.62" y="-200.4" font-family="SourceSans" font-size="8.00">unistd.h</text>
</a>
</g>
</g>
<!-- Node1&#45;&gt;Node4 -->
<g id="edge3_Node000001_Node000004" class="edge">
<title>Node1&#45;&gt;Node4</title>
<g id="a_edge3_Node000001_Node000004"><a xlink:title=" ">
<path fill="none" stroke="#63b8ff" d="M766.14,-247.55C775.78,-239.04 787.75,-228.48 797.62,-219.77"/>
<polygon fill="#63b8ff" stroke="#63b8ff" points="799.64,-222.65 804.83,-213.41 795.01,-217.4 799.64,-222.65"/>
</a>
</g>
</g>
<!-- Node5 -->
<g id="Node000005" class="node">
<title>Node5</title>
<g id="a_Node000005"><a xlink:href="a60-svg_8h.html" target="_top" xlink:title=" ">
<polygon fill="white" stroke="#666666" points="774.62,-212 722.62,-212 722.62,-192 774.62,-192 774.62,-212"/>
<text text-anchor="middle" x="748.62" y="-200.4" font-family="SourceSans" font-size="8.00">a60&#45;svg.h</text>
</a>
</g>
</g>
<!-- Node1&#45;&gt;Node5 -->
<g id="edge4_Node000001_Node000005" class="edge">
<title>Node1&#45;&gt;Node5</title>
<g id="a_edge4_Node000001_Node000005"><a xlink:title=" ">
<path fill="none" stroke="#63b8ff" d="M742.64,-247.55C741.81,-240.26 741.66,-231.45 742.18,-223.6"/>
<polygon fill="#63b8ff" stroke="#63b8ff" points="745.62,-224.26 743.37,-213.91 738.68,-223.41 745.62,-224.26"/>
</a>
</g>
</g>
<!-- Node5&#45;&gt;Node1 -->
<g id="edge45_Node000005_Node000001" class="edge">
<title>Node5&#45;&gt;Node1</title>
<g id="a_edge45_Node000005_Node000001"><a xlink:title=" ">
<path fill="none" stroke="#63b8ff" d="M753.69,-212.41C754.97,-218.8 755.52,-227.6 755.34,-236.08"/>
<polygon fill="#63b8ff" stroke="#63b8ff" points="751.85,-235.84 754.71,-246.04 758.84,-236.28 751.85,-235.84"/>
</a>
</g>
</g>
<!-- Node6 -->
<g id="Node000006" class="node">
<title>Node6</title>
<g id="a_Node000006"><a xlink:title=" ">
<polygon fill="#e0e0e0" stroke="#999999" points="422.88,-150 378.38,-150 378.38,-130 422.88,-130 422.88,-150"/>
<text text-anchor="middle" x="400.62" y="-138.4" font-family="SourceSans" font-size="8.00">cstddef</text>
</a>
</g>
</g>
<!-- Node5&#45;&gt;Node6 -->
<g id="edge5_Node000005_Node000006" class="edge">
<title>Node5&#45;&gt;Node6</title>
<g id="a_edge5_Node000005_Node000006"><a xlink:title=" ">
<path fill="none" stroke="#63b8ff" d="M722.28,-199.44C667.99,-195.74 540.03,-184.51 436.62,-156 434.83,-155.51 433.01,-154.94 431.18,-154.34"/>
<polygon fill="#63b8ff" stroke="#63b8ff" points="432.88,-151.24 422.29,-151.01 430.43,-157.79 432.88,-151.24"/>
</a>
</g>
</g>
<!-- Node7 -->
<g id="Node000007" class="node">
<title>Node7</title>
<g id="a_Node000007"><a xlink:title=" ">
<polygon fill="#e0e0e0" stroke="#999999" points="443.62,-20 403.62,-20 403.62,0 443.62,0 443.62,-20"/>
<text text-anchor="middle" x="423.62" y="-8.4" font-family="SourceSans" font-size="8.00">cmath</text>
</a>
</g>
</g>
<!-- Node5&#45;&gt;Node7 -->
<g id="edge6_Node000005_Node000007" class="edge">
<title>Node5&#45;&gt;Node7</title>
<g id="a_edge6_Node000005_Node000007"><a xlink:title=" ">
<path fill="none" stroke="#63b8ff" d="M722.53,-199.24C665.71,-194.94 533.09,-182.31 497.62,-156 455.74,-124.94 435.79,-63.33 427.92,-31.34"/>
<polygon fill="#63b8ff" stroke="#63b8ff" points="431.37,-30.75 425.73,-21.79 424.55,-32.31 431.37,-30.75"/>
</a>
</g>
</g>
<!-- Node8 -->
<g id="Node000008" class="node">
<title>Node8</title>
<g id="a_Node000008"><a xlink:title=" ">
<polygon fill="#e0e0e0" stroke="#999999" points="297.38,-82 243.88,-82 243.88,-62 297.38,-62 297.38,-82"/>
<text text-anchor="middle" x="270.62" y="-70.4" font-family="SourceSans" font-size="8.00">algorithm</text>
</a>
</g>
</g>
<!-- Node5&#45;&gt;Node8 -->
<g id="edge7_Node000005_Node000008" class="edge">
<title>Node5&#45;&gt;Node8</title>
<g id="a_edge7_Node000005_Node000008"><a xlink:title=" ">
<path fill="none" stroke="#63b8ff" d="M722.23,-199.83C647.09,-196.2 433.38,-183.64 369.62,-156 349.37,-147.22 348.54,-138.19 331.62,-124 317.94,-112.52 302.5,-99.61 290.58,-89.66"/>
<polygon fill="#63b8ff" stroke="#63b8ff" points="292.96,-87.08 283.04,-83.36 288.47,-92.45 292.96,-87.08"/>
</a>
</g>
</g>
<!-- Node9 -->
<g id="Node000009" class="node">
<title>Node9</title>
<g id="a_Node000009"><a xlink:title=" ">
<polygon fill="#e0e0e0" stroke="#999999" points="789,-150 754.25,-150 754.25,-130 789,-130 789,-150"/>
<text text-anchor="middle" x="771.62" y="-138.4" font-family="SourceSans" font-size="8.00">array</text>
</a>
</g>
</g>
<!-- Node5&#45;&gt;Node9 -->
<g id="edge8_Node000005_Node000009" class="edge">
<title>Node5&#45;&gt;Node9</title>
<g id="a_edge8_Node000005_Node000009"><a xlink:title=" ">
<path fill="none" stroke="#63b8ff" d="M752.22,-191.62C755.38,-183.39 760.08,-171.13 764.06,-160.74"/>
<polygon fill="#63b8ff" stroke="#63b8ff" points="767.28,-162.12 767.59,-151.53 760.74,-159.61 767.28,-162.12"/>
</a>
</g>
</g>
<!-- Node10 -->
<g id="Node000010" class="node">
<title>Node10</title>
<g id="a_Node000010"><a xlink:title=" ">
<polygon fill="#e0e0e0" stroke="#999999" points="497.75,-20 461.5,-20 461.5,0 497.75,0 497.75,-20"/>
<text text-anchor="middle" x="479.62" y="-8.4" font-family="SourceSans" font-size="8.00">tuple</text>
</a>
</g>
</g>
<!-- Node5&#45;&gt;Node10 -->
<g id="edge9_Node000005_Node000010" class="edge">
<title>Node5&#45;&gt;Node10</title>
<g id="a_edge9_Node000005_Node000010"><a xlink:title=" ">
<path fill="none" stroke="#63b8ff" d="M722.23,-199.03C669.46,-194.58 553.49,-182.04 524.62,-156 488.68,-123.57 481.15,-63.02 479.76,-31.41"/>
<polygon fill="#63b8ff" stroke="#63b8ff" points="483.27,-31.56 479.52,-21.65 476.27,-31.73 483.27,-31.56"/>
</a>
</g>
</g>
<!-- Node11 -->
<g id="Node000011" class="node">
<title>Node11</title>
<g id="a_Node000011"><a xlink:title=" ">
<polygon fill="#e0e0e0" stroke="#999999" points="845.88,-150 807.38,-150 807.38,-130 845.88,-130 845.88,-150"/>
<text text-anchor="middle" x="826.62" y="-138.4" font-family="SourceSans" font-size="8.00">string</text>
</a>
</g>
</g>
<!-- Node5&#45;&gt;Node11 -->
<g id="edge10_Node000005_Node000011" class="edge">
<title>Node5&#45;&gt;Node11</title>
<g id="a_edge10_Node000005_Node000011"><a xlink:title=" ">
<path fill="none" stroke="#63b8ff" d="M760.81,-191.62C772.83,-182.38 791.44,-168.07 805.81,-157.01"/>
<polygon fill="#63b8ff" stroke="#63b8ff" points="807.53,-160.1 813.32,-151.23 803.26,-154.55 807.53,-160.1"/>
</a>
</g>
</g>
<!-- Node12 -->
<g id="Node000012" class="node">
<title>Node12</title>
<g id="a_Node000012"><a xlink:title=" ">
<polygon fill="#e0e0e0" stroke="#999999" points="553.88,-20 515.38,-20 515.38,0 553.88,0 553.88,-20"/>
<text text-anchor="middle" x="534.62" y="-8.4" font-family="SourceSans" font-size="8.00">vector</text>
</a>
</g>
</g>
<!-- Node5&#45;&gt;Node12 -->
<g id="edge11_Node000005_Node000012" class="edge">
<title>Node5&#45;&gt;Node12</title>
<g id="a_edge11_Node000005_Node000012"><a xlink:title=" ">
<path fill="none" stroke="#63b8ff" d="M722.32,-198.98C672.77,-194.6 568.5,-182.39 545.62,-156 515.39,-121.13 522.73,-62.12 529.4,-31.23"/>
<polygon fill="#63b8ff" stroke="#63b8ff" points="532.76,-32.21 531.66,-21.67 525.95,-30.59 532.76,-32.21"/>
</a>
</g>
</g>
<!-- Node13 -->
<g id="Node000013" class="node">
<title>Node13</title>
<g id="a_Node000013"><a xlink:title=" ">
<polygon fill="#e0e0e0" stroke="#999999" points="893.02,-150 864.23,-150 864.23,-130 893.02,-130 893.02,-150"/>
<text text-anchor="middle" x="878.62" y="-138.4" font-family="SourceSans" font-size="8.00">set</text>
</a>
</g>
</g>
<!-- Node5&#45;&gt;Node13 -->
<g id="edge12_Node000005_Node000013" class="edge">
<title>Node5&#45;&gt;Node13</title>
<g id="a_edge12_Node000005_Node000013"><a xlink:title=" ">
<path fill="none" stroke="#63b8ff" d="M773.98,-191.54C793.74,-183.88 821.93,-172.37 854.22,-155.74"/>
<polygon fill="#63b8ff" stroke="#63b8ff" points="855.8,-158.87 863.03,-151.12 852.55,-152.67 855.8,-158.87"/>
</a>
</g>
</g>
<!-- Node14 -->
<g id="Node000014" class="node">
<title>Node14</title>
<g id="a_Node000014"><a xlink:title=" ">
<polygon fill="#e0e0e0" stroke="#999999" points="988.38,-150 910.88,-150 910.88,-130 988.38,-130 988.38,-150"/>
<text text-anchor="middle" x="949.62" y="-138.4" font-family="SourceSans" font-size="8.00">unordered_map</text>
</a>
</g>
</g>
<!-- Node5&#45;&gt;Node14 -->
<g id="edge13_Node000005_Node000014" class="edge">
<title>Node5&#45;&gt;Node14</title>
<g id="a_edge13_Node000005_Node000014"><a xlink:title=" ">
<path fill="none" stroke="#63b8ff" d="M774.93,-193.41C805.44,-184.57 857.24,-169.46 901.62,-156 904,-155.28 906.44,-154.53 908.9,-153.78"/>
<polygon fill="#63b8ff" stroke="#63b8ff" points="909.73,-157.19 918.25,-150.89 907.66,-150.5 909.73,-157.19"/>
</a>
</g>
</g>
<!-- Node15 -->
<g id="Node000015" class="node">
<title>Node15</title>
<g id="a_Node000015"><a xlink:title=" ">
<polygon fill="#e0e0e0" stroke="#999999" points="1052.62,-150 1006.62,-150 1006.62,-130 1052.62,-130 1052.62,-150"/>
<text text-anchor="middle" x="1029.62" y="-138.4" font-family="SourceSans" font-size="8.00">sstream</text>
</a>
</g>
</g>
<!-- Node5&#45;&gt;Node15 -->
<g id="edge14_Node000005_Node000015" class="edge">
<title>Node5&#45;&gt;Node15</title>
<g id="a_edge14_Node000005_Node000015"><a xlink:title=" ">
<path fill="none" stroke="#63b8ff" d="M774.94,-193.98C777.86,-193.27 780.8,-192.6 783.62,-192 877.97,-171.97 905.56,-184.73 997.62,-156 998.8,-155.63 999.98,-155.23 1001.17,-154.81"/>
<polygon fill="#63b8ff" stroke="#63b8ff" points="1002.39,-158.09 1010.29,-151.03 999.71,-151.62 1002.39,-158.09"/>
</a>
</g>
</g>
<!-- Node16 -->
<g id="Node000016" class="node">
<title>Node16</title>
<g id="a_Node000016"><a xlink:href="a60-svg-color_8h.html" target="_top" xlink:title=" ">
<polygon fill="white" stroke="#666666" points="210.38,-150 138.88,-150 138.88,-130 210.38,-130 210.38,-150"/>
<text text-anchor="middle" x="174.62" y="-138.4" font-family="SourceSans" font-size="8.00">a60&#45;svg&#45;color.h</text>
</a>
</g>
</g>
<!-- Node5&#45;&gt;Node16 -->
<g id="edge15_Node000005_Node000016" class="edge">
<title>Node5&#45;&gt;Node16</title>
<g id="a_edge15_Node000005_Node000016"><a xlink:title=" ">
<path fill="none" stroke="#63b8ff" d="M722.16,-200.95C644.28,-200.34 409.43,-195.13 219.62,-156 216.63,-155.38 213.55,-154.63 210.49,-153.79"/>
<polygon fill="#63b8ff" stroke="#63b8ff" points="211.6,-150.47 201.01,-150.92 209.57,-157.17 211.6,-150.47"/>
</a>
</g>
</g>
<!-- Node19 -->
<g id="Node000019" class="node">
<title>Node19</title>
<g id="a_Node000019"><a xlink:href="a60-svg-color-palette_8h.html" target="_top" xlink:title=" ">
<polygon fill="white" stroke="#666666" points="1172.38,-150 1070.88,-150 1070.88,-130 1172.38,-130 1172.38,-150"/>
<text text-anchor="middle" x="1121.62" y="-138.4" font-family="SourceSans" font-size="8.00">a60&#45;svg&#45;color&#45;palette.h</text>
</a>
</g>
</g>
<!-- Node5&#45;&gt;Node19 -->
<g id="edge20_Node000005_Node000019" class="edge">
<title>Node5&#45;&gt;Node19</title>
<g id="a_edge20_Node000005_Node000019"><a xlink:title=" ">
<path fill="none" stroke="#63b8ff" d="M774.92,-193.87C777.85,-193.19 780.79,-192.55 783.62,-192 905.96,-168.44 939.21,-179.15 1061.62,-156 1066.19,-155.14 1070.94,-154.13 1075.66,-153.07"/>
<polygon fill="#63b8ff" stroke="#63b8ff" points="1076.16,-156.55 1085.09,-150.84 1074.55,-149.73 1076.16,-156.55"/>
</a>
</g>
</g>
<!-- Node20 -->
<g id="Node000020" class="node">
<title>Node20</title>
<g id="a_Node000020"><a xlink:href="a60-svg-color-band_8h.html" target="_top" xlink:title=" ">
<polygon fill="white" stroke="#666666" points="851,-82 756.25,-82 756.25,-62 851,-62 851,-82"/>
<text text-anchor="middle" x="803.62" y="-70.4" font-family="SourceSans" font-size="8.00">a60&#45;svg&#45;color&#45;band.h</text>
</a>
</g>
</g>
<!-- Node5&#45;&gt;Node20 -->
<g id="edge21_Node000005_Node000020" class="edge">
<title>Node5&#45;&gt;Node20</title>
<g id="a_edge21_Node000005_Node000020"><a xlink:title=" ">
<path fill="none" stroke="#63b8ff" d="M745.77,-191.96C741.6,-177.05 735.37,-146.67 745.62,-124 752.21,-109.44 765.23,-97.39 777.27,-88.66"/>
<polygon fill="#63b8ff" stroke="#63b8ff" points="778.98,-91.73 785.31,-83.24 775.07,-85.92 778.98,-91.73"/>
</a>
</g>
</g>
<!-- Node22 -->
<g id="Node000022" class="node">
<title>Node22</title>
<g id="a_Node000022"><a xlink:href="izzi-points_8h.html" target="_top" xlink:title=" ">
<polygon fill="white" stroke="#666666" points="1252.5,-150 1190.75,-150 1190.75,-130 1252.5,-130 1252.5,-150"/>
<text text-anchor="middle" x="1221.62" y="-138.4" font-family="SourceSans" font-size="8.00">izzi&#45;points.h</text>
</a>
</g>
</g>
<!-- Node5&#45;&gt;Node22 -->
<g id="edge23_Node000005_Node000022" class="edge">
<title>Node5&#45;&gt;Node22</title>
<g id="a_edge23_Node000005_Node000022"><a xlink:title=" ">
<path fill="none" stroke="#63b8ff" d="M774.9,-193.76C777.83,-193.1 780.78,-192.49 783.62,-192 958.65,-161.79 1008.47,-195.54 1181.62,-156 1183.94,-155.47 1186.3,-154.84 1188.67,-154.14"/>
<polygon fill="#63b8ff" stroke="#63b8ff" points="1189.73,-157.48 1198.09,-150.97 1187.5,-150.84 1189.73,-157.48"/>
</a>
</g>
</g>
<!-- Node23 -->
<g id="Node000023" class="node">
<title>Node23</title>
<g id="a_Node000023"><a xlink:href="a60-svg-base-types_8h.html" target="_top" xlink:title=" ">
<polygon fill="white" stroke="#666666" points="323,-150 228.25,-150 228.25,-130 323,-130 323,-150"/>
<text text-anchor="middle" x="275.62" y="-138.4" font-family="SourceSans" font-size="8.00">a60&#45;svg&#45;base&#45;types.h</text>
</a>
</g>
</g>
<!-- Node5&#45;&gt;Node23 -->
<g id="edge24_Node000005_Node000023" class="edge">
<title>Node5&#45;&gt;Node23</title>
<g id="a_edge24_Node000005_Node000023"><a xlink:title=" ">
<path fill="none" stroke="#63b8ff" d="M722.43,-199.35C656.97,-194.96 481.17,-181.55 336.62,-156 331.72,-155.13 326.62,-154.1 321.56,-152.98"/>
<polygon fill="#63b8ff" stroke="#63b8ff" points="322.62,-149.64 312.09,-150.79 321.04,-156.46 322.62,-149.64"/>
</a>
</g>
</g>
<!-- Node26 -->
<g id="Node000026" class="node">
<title>Node26</title>
<g id="a_Node000026"><a xlink:href="a60-svg-constants_8h.html" target="_top" xlink:title=" ">
<polygon fill="white" stroke="#666666" points="1361.12,-150 1270.12,-150 1270.12,-130 1361.12,-130 1361.12,-150"/>
<text text-anchor="middle" x="1315.62" y="-138.4" font-family="SourceSans" font-size="8.00">a60&#45;svg&#45;constants.h</text>
</a>
</g>
</g>
<!-- Node5&#45;&gt;Node26 -->
<g id="edge29_Node000005_Node000026" class="edge">
<title>Node5&#45;&gt;Node26</title>
<g id="a_edge29_Node000005_Node000026"><a xlink:title=" ">
<path fill="none" stroke="#63b8ff" d="M774.89,-193.72C777.82,-193.06 780.78,-192.47 783.62,-192 993.83,-157.34 1051.76,-192.69 1261.62,-156 1265.92,-155.25 1270.37,-154.3 1274.79,-153.25"/>
<polygon fill="#63b8ff" stroke="#63b8ff" points="1275.31,-156.73 1284.12,-150.84 1273.57,-149.95 1275.31,-156.73"/>
</a>
</g>
</g>
<!-- Node27 -->
<g id="Node000027" class="node">
<title>Node27</title>
<g id="a_Node000027"><a xlink:href="a60-svg-elements_8h.html" target="_top" xlink:title=" ">
<polygon fill="white" stroke="#666666" points="1468.38,-150 1378.88,-150 1378.88,-130 1468.38,-130 1468.38,-150"/>
<text text-anchor="middle" x="1423.62" y="-138.4" font-family="SourceSans" font-size="8.00">a60&#45;svg&#45;elements.h</text>
</a>
</g>
</g>
<!-- Node5&#45;&gt;Node27 -->
<g id="edge30_Node000005_Node000027" class="edge">
<title>Node5&#45;&gt;Node27</title>
<g id="a_edge30_Node000005_Node000027"><a xlink:title=" ">
<path fill="none" stroke="#63b8ff" d="M774.89,-193.68C777.82,-193.03 780.77,-192.45 783.62,-192 1041.81,-151.27 1112.95,-199.84 1370.62,-156 1374.78,-155.29 1379.08,-154.38 1383.35,-153.36"/>
<polygon fill="#63b8ff" stroke="#63b8ff" points="1384.19,-156.76 1392.98,-150.85 1382.42,-149.99 1384.19,-156.76"/>
</a>
</g>
</g>
<!-- Node28 -->
<g id="Node000028" class="node">
<title>Node28</title>
<g id="a_Node000028"><a xlink:href="a60-svg-elements-components_8h.html" target="_top" xlink:title=" ">
<polygon fill="white" stroke="#666666" points="1625.12,-150 1486.12,-150 1486.12,-130 1625.12,-130 1625.12,-150"/>
<text text-anchor="middle" x="1555.62" y="-138.4" font-family="SourceSans" font-size="8.00">a60&#45;svg&#45;elements&#45;components.h</text>
</a>
</g>
</g>
<!-- Node5&#45;&gt;Node28 -->
<g id="edge31_Node000005_Node000028" class="edge">
<title>Node5&#45;&gt;Node28</title>
<g id="a_edge31_Node000005_Node000028"><a xlink:title=" ">
<path fill="none" stroke="#63b8ff" d="M774.88,-193.65C777.81,-193.01 780.77,-192.44 783.62,-192 1088.93,-145.31 1171.02,-193.25 1477.62,-156 1485.17,-155.08 1493.08,-153.87 1500.84,-152.52"/>
<polygon fill="#63b8ff" stroke="#63b8ff" points="1501.36,-155.98 1510.57,-150.75 1500.11,-149.1 1501.36,-155.98"/>
</a>
</g>
</g>
<!-- Node29 -->
<g id="Node000029" class="node">
<title>Node29</title>
<g id="a_Node000029"><a xlink:href="a60-svg-render-state_8h.html" target="_top" xlink:title=" ">
<polygon fill="white" stroke="#666666" points="1744,-150 1643.25,-150 1643.25,-130 1744,-130 1744,-150"/>
<text text-anchor="middle" x="1693.62" y="-138.4" font-family="SourceSans" font-size="8.00">a60&#45;svg&#45;render&#45;state.h</text>
</a>
</g>
</g>
<!-- Node5&#45;&gt;Node29 -->
<g id="edge32_Node000005_Node000029" class="edge">
<title>Node5&#45;&gt;Node29</title>
<g id="a_edge32_Node000005_Node000029"><a xlink:title=" ">
<path fill="none" stroke="#63b8ff" d="M774.88,-193.62C777.81,-192.98 780.77,-192.42 783.62,-192 1158.1,-136.56 1260.07,-210.93 1634.62,-156 1639.84,-155.24 1645.26,-154.2 1650.61,-153.03"/>
<polygon fill="#63b8ff" stroke="#63b8ff" points="1651.01,-156.53 1659.94,-150.82 1649.4,-149.72 1651.01,-156.53"/>
</a>
</g>
</g>
<!-- Node30 -->
<g id="Node000030" class="node">
<title>Node30</title>
<g id="a_Node000030"><a xlink:href="a60-svg-render-basics_8h.html" target="_top" xlink:title=" ">
<polygon fill="white" stroke="#666666" points="660.25,-150 555,-150 555,-130 660.25,-130 660.25,-150"/>
<text text-anchor="middle" x="607.62" y="-138.4" font-family="SourceSans" font-size="8.00">a60&#45;svg&#45;render&#45;basics.h</text>
</a>
</g>
</g>
<!-- Node5&#45;&gt;Node30 -->
<g id="edge33_Node000005_Node000030" class="edge">
<title>Node5&#45;&gt;Node30</title>
<g id="a_edge33_Node000005_Node000030"><a xlink:title=" ">
<path fill="none" stroke="#63b8ff" d="M726.59,-191.62C703.31,-181.72 666.36,-165.99 639.82,-154.7"/>
<polygon fill="#63b8ff" stroke="#63b8ff" points="641.47,-151.6 630.89,-150.9 638.73,-158.04 641.47,-151.6"/>
</a>
</g>
</g>
<!-- Node36 -->
<g id="Node000036" class="node">
<title>Node36</title>
<g id="a_Node000036"><a xlink:href="a60-svg-composite-and-layer-basics_8h.html" target="_top" xlink:title=" ">
<polygon fill="white" stroke="#666666" points="1865.12,-156 1762.12,-156 1762.12,-124 1865.12,-124 1865.12,-156"/>
<text text-anchor="start" x="1770.12" y="-144.4" font-family="SourceSans" font-size="8.00">a60&#45;svg&#45;composite&#45;and</text>
<text text-anchor="middle" x="1813.62" y="-132.4" font-family="SourceSans" font-size="8.00">&#45;layer&#45;basics.h</text>
</a>
</g>
</g>
<!-- Node5&#45;&gt;Node36 -->
<g id="edge44_Node000005_Node000036" class="edge">
<title>Node5&#45;&gt;Node36</title>
<g id="a_edge44_Node000005_Node000036"><a xlink:title=" ">
<path fill="none" stroke="#63b8ff" d="M774.88,-193.61C777.81,-192.97 780.77,-192.42 783.62,-192 1206.46,-130.51 1323.83,-214.31 1750.74,-156.03"/>
<polygon fill="#63b8ff" stroke="#63b8ff" points="1750.93,-159.54 1760.35,-154.7 1749.97,-152.61 1750.93,-159.54"/>
</a>
</g>
</g>
<!-- Node16&#45;&gt;Node3 -->
<g id="edge18_Node000016_Node000003" class="edge">
<title>Node16&#45;&gt;Node3</title>
<g id="a_edge18_Node000016_Node000003"><a xlink:title=" ">
<path fill="none" stroke="#63b8ff" d="M162.02,-129.54C148.03,-119.06 125.22,-101.95 108.35,-89.29"/>
<polygon fill="#63b8ff" stroke="#63b8ff" points="110.52,-86.55 100.42,-83.35 106.32,-92.15 110.52,-86.55"/>
</a>
</g>
</g>
<!-- Node16&#45;&gt;Node8 -->
<g id="edge17_Node000016_Node000008" class="edge">
<title>Node16&#45;&gt;Node8</title>
<g id="a_edge17_Node000016_Node000008"><a xlink:title=" ">
<path fill="none" stroke="#63b8ff" d="M188.38,-129.54C203.78,-118.96 228.99,-101.63 247.44,-88.94"/>
<polygon fill="#63b8ff" stroke="#63b8ff" points="249.39,-91.85 255.65,-83.3 245.43,-86.08 249.39,-91.85"/>
</a>
</g>
</g>
<!-- Node17 -->
<g id="Node000017" class="node">
<title>Node17</title>
<g id="a_Node000017"><a xlink:title=" ">
<polygon fill="#e0e0e0" stroke="#999999" points="226.25,-82 193,-82 193,-62 226.25,-62 226.25,-82"/>
<text text-anchor="middle" x="209.62" y="-70.4" font-family="SourceSans" font-size="8.00">map</text>
</a>
</g>
</g>
<!-- Node16&#45;&gt;Node17 -->
<g id="edge16_Node000016_Node000017" class="edge">
<title>Node16&#45;&gt;Node17</title>
<g id="a_edge16_Node000016_Node000017"><a xlink:title=" ">
<path fill="none" stroke="#63b8ff" d="M179.64,-129.54C184.73,-119.94 192.77,-104.78 199.25,-92.57"/>
<polygon fill="#63b8ff" stroke="#63b8ff" points="202.32,-94.25 203.91,-83.78 196.13,-90.97 202.32,-94.25"/>
</a>
</g>
</g>
<!-- Node18 -->
<g id="Node000018" class="node">
<title>Node18</title>
<g id="a_Node000018"><a xlink:title=" ">
<polygon fill="#e0e0e0" stroke="#999999" points="175.38,-82 127.88,-82 127.88,-62 175.38,-62 175.38,-82"/>
<text text-anchor="middle" x="151.62" y="-70.4" font-family="SourceSans" font-size="8.00">iomanip</text>
</a>
</g>
</g>
<!-- Node16&#45;&gt;Node18 -->
<g id="edge19_Node000016_Node000018" class="edge">
<title>Node16&#45;&gt;Node18</title>
<g id="a_edge19_Node000016_Node000018"><a xlink:title=" ">
<path fill="none" stroke="#63b8ff" d="M171.33,-129.54C168.02,-120.04 162.81,-105.09 158.58,-92.95"/>
<polygon fill="#63b8ff" stroke="#63b8ff" points="162.01,-92.16 155.41,-83.87 155.4,-94.46 162.01,-92.16"/>
</a>
</g>
</g>
<!-- Node21 -->
<g id="Node000021" class="node">
<title>Node21</title>
<g id="a_Node000021"><a xlink:title=" ">
<polygon fill="#e0e0e0" stroke="#999999" points="911.12,-20 862.12,-20 862.12,0 911.12,0 911.12,-20"/>
<text text-anchor="middle" x="886.62" y="-8.4" font-family="SourceSans" font-size="8.00">iostream</text>
</a>
</g>
</g>
<!-- Node20&#45;&gt;Node21 -->
<g id="edge22_Node000020_Node000021" class="edge">
<title>Node20&#45;&gt;Node21</title>
<g id="a_edge22_Node000020_Node000021"><a xlink:title=" ">
<path fill="none" stroke="#63b8ff" d="M816.59,-61.62C829.38,-52.38 849.18,-38.07 864.47,-27.01"/>
<polygon fill="#63b8ff" stroke="#63b8ff" points="866.47,-29.89 872.52,-21.2 862.37,-24.22 866.47,-29.89"/>
</a>
</g>
</g>
<!-- Node23&#45;&gt;Node2 -->
<g id="edge27_Node000023_Node000002" class="edge">
<title>Node23&#45;&gt;Node2</title>
<g id="a_edge27_Node000023_Node000002"><a xlink:title=" ">
<path fill="none" stroke="#63b8ff" d="M241.34,-129.54C234.18,-127.65 226.67,-125.71 219.62,-124 146.69,-106.28 125.72,-112.08 54.62,-88 53.49,-87.62 52.35,-87.2 51.19,-86.77"/>
<polygon fill="#63b8ff" stroke="#63b8ff" points="52.92,-83.7 42.34,-83.03 50.19,-90.15 52.92,-83.7"/>
</a>
</g>
</g>
<!-- Node23&#45;&gt;Node17 -->
<g id="edge25_Node000023_Node000017" class="edge">
<title>Node23&#45;&gt;Node17</title>
<g id="a_edge25_Node000023_Node000017"><a xlink:title=" ">
<path fill="none" stroke="#63b8ff" d="M266.17,-129.54C255.97,-119.35 239.53,-102.9 226.99,-90.37"/>
<polygon fill="#63b8ff" stroke="#63b8ff" points="229.68,-88.11 220.13,-83.51 224.73,-93.05 229.68,-88.11"/>
</a>
</g>
</g>
<!-- Node24 -->
<g id="Node000024" class="node">
<title>Node24</title>
<g id="a_Node000024"><a xlink:title=" ">
<polygon fill="#e0e0e0" stroke="#999999" points="362,-82 315.25,-82 315.25,-62 362,-62 362,-82"/>
<text text-anchor="middle" x="338.62" y="-70.4" font-family="SourceSans" font-size="8.00">ostream</text>
</a>
</g>
</g>
<!-- Node23&#45;&gt;Node24 -->
<g id="edge26_Node000023_Node000024" class="edge">
<title>Node23&#45;&gt;Node24</title>
<g id="a_edge26_Node000023_Node000024"><a xlink:title=" ">
<path fill="none" stroke="#63b8ff" d="M284.65,-129.54C294.29,-119.45 309.78,-103.22 321.7,-90.73"/>
<polygon fill="#63b8ff" stroke="#63b8ff" points="324.2,-93.18 328.57,-83.53 319.13,-88.35 324.2,-93.18"/>
</a>
</g>
</g>
<!-- Node25 -->
<g id="Node000025" class="node">
<title>Node25</title>
<g id="a_Node000025"><a xlink:title=" ">
<polygon fill="#e0e0e0" stroke="#999999" points="422.75,-82 380.5,-82 380.5,-62 422.75,-62 422.75,-82"/>
<text text-anchor="middle" x="401.62" y="-70.4" font-family="SourceSans" font-size="8.00">cstdint</text>
</a>
</g>
</g>
<!-- Node23&#45;&gt;Node25 -->
<g id="edge28_Node000023_Node000025" class="edge">
<title>Node23&#45;&gt;Node25</title>
<g id="a_edge28_Node000023_Node000025"><a xlink:title=" ">
<path fill="none" stroke="#63b8ff" d="M293.68,-129.54C314.54,-118.61 349.13,-100.5 373.52,-87.72"/>
<polygon fill="#63b8ff" stroke="#63b8ff" points="375.03,-90.88 382.27,-83.14 371.78,-84.68 375.03,-90.88"/>
</a>
</g>
</g>
<!-- Node31 -->
<g id="Node000031" class="node">
<title>Node31</title>
<g id="a_Node000031"><a xlink:href="a60-svg-radial-fill-hexagon_8h.html" target="_top" xlink:title=" ">
<polygon fill="white" stroke="#666666" points="682.5,-88 602.75,-88 602.75,-56 682.5,-56 682.5,-88"/>
<text text-anchor="start" x="610.75" y="-76.4" font-family="SourceSans" font-size="8.00">a60&#45;svg&#45;radial&#45;fill</text>
<text text-anchor="middle" x="642.62" y="-64.4" font-family="SourceSans" font-size="8.00">&#45;hexagon.h</text>
</a>
</g>
</g>
<!-- Node30&#45;&gt;Node31 -->
<g id="edge34_Node000030_Node000031" class="edge">
<title>Node30&#45;&gt;Node31</title>
<g id="a_edge34_Node000030_Node000031"><a xlink:title=" ">
<path fill="none" stroke="#63b8ff" d="M612.64,-129.54C616.97,-121.39 623.42,-109.22 629.23,-98.27"/>
<polygon fill="#63b8ff" stroke="#63b8ff" points="632.21,-100.11 633.8,-89.64 626.02,-96.83 632.21,-100.11"/>
</a>
</g>
</g>
<!-- Node31&#45;&gt;Node5 -->
<g id="edge43_Node000031_Node000005" class="edge">
<title>Node31&#45;&gt;Node5</title>
<g id="a_edge43_Node000031_Node000005"><a xlink:title=" ">
<path fill="none" stroke="#63b8ff" d="M655.27,-88.27C674.99,-112.08 712.96,-157.94 733.89,-183.21"/>
<polygon fill="#63b8ff" stroke="#63b8ff" points="730.96,-185.16 740.04,-190.63 736.35,-180.69 730.96,-185.16"/>
</a>
</g>
</g>
<!-- Node31&#45;&gt;Node7 -->
<g id="edge37_Node000031_Node000007" class="edge">
<title>Node31&#45;&gt;Node7</title>
<g id="a_edge37_Node000031_Node000007"><a xlink:title=" ">
<path fill="none" stroke="#63b8ff" d="M602.47,-60.7C566.26,-51.31 511.3,-36.79 454.81,-20.55"/>
<polygon fill="#63b8ff" stroke="#63b8ff" points="455.91,-17.23 445.33,-17.81 453.97,-23.95 455.91,-17.23"/>
</a>
</g>
</g>
<!-- Node31&#45;&gt;Node10 -->
<g id="edge36_Node000031_Node000010" class="edge">
<title>Node31&#45;&gt;Node10</title>
<g id="a_edge36_Node000031_Node000010"><a xlink:title=" ">
<path fill="none" stroke="#63b8ff" d="M602.33,-56.17C573.26,-45.47 534.7,-31.27 508.62,-21.67"/>
<polygon fill="#63b8ff" stroke="#63b8ff" points="509.95,-18.43 499.36,-18.26 507.53,-25 509.95,-18.43"/>
</a>
</g>
</g>
<!-- Node31&#45;&gt;Node12 -->
<g id="edge35_Node000031_Node000012" class="edge">
<title>Node31&#45;&gt;Node12</title>
<g id="a_edge35_Node000031_Node000012"><a xlink:title=" ">
<path fill="none" stroke="#63b8ff" d="M614.81,-55.55C598.41,-46.43 577.75,-34.96 561.5,-25.93"/>
<polygon fill="#63b8ff" stroke="#63b8ff" points="563.32,-22.94 552.88,-21.14 559.92,-29.06 563.32,-22.94"/>
</a>
</g>
</g>
<!-- Node31&#45;&gt;Node21 -->
<g id="edge42_Node000031_Node000021" class="edge">
<title>Node31&#45;&gt;Node21</title>
<g id="a_edge42_Node000031_Node000021"><a xlink:title=" ">
<path fill="none" stroke="#63b8ff" d="M682.77,-61.66C722.96,-52.24 786.84,-37.03 850.7,-20.7"/>
<polygon fill="#63b8ff" stroke="#63b8ff" points="851.5,-24.11 860.31,-18.24 849.76,-17.33 851.5,-24.11"/>
</a>
</g>
</g>
<!-- Node32 -->
<g id="Node000032" class="node">
<title>Node32</title>
<g id="a_Node000032"><a xlink:title=" ">
<polygon fill="#e0e0e0" stroke="#999999" points="622.88,-20 572.38,-20 572.38,0 622.88,0 622.88,-20"/>
<text text-anchor="middle" x="597.62" y="-8.4" font-family="SourceSans" font-size="8.00">numbers</text>
</a>
</g>
</g>
<!-- Node31&#45;&gt;Node32 -->
<g id="edge38_Node000031_Node000032" class="edge">
<title>Node31&#45;&gt;Node32</title>
<g id="a_edge38_Node000031_Node000032"><a xlink:title=" ">
<path fill="none" stroke="#63b8ff" d="M631.04,-55.55C625.05,-47.56 617.7,-37.76 611.42,-29.39"/>
<polygon fill="#63b8ff" stroke="#63b8ff" points="614.39,-27.52 605.59,-21.62 608.79,-31.72 614.39,-27.52"/>
</a>
</g>
</g>
<!-- Node33 -->
<g id="Node000033" class="node">
<title>Node33</title>
<g id="a_Node000033"><a xlink:title=" ">
<polygon fill="#e0e0e0" stroke="#999999" points="696.12,-20 641.12,-20 641.12,0 696.12,0 696.12,-20"/>
<text text-anchor="middle" x="668.62" y="-8.4" font-family="SourceSans" font-size="8.00">functional</text>
</a>
</g>
</g>
<!-- Node31&#45;&gt;Node33 -->
<g id="edge39_Node000031_Node000033" class="edge">
<title>Node31&#45;&gt;Node33</title>
<g id="a_edge39_Node000031_Node000033"><a xlink:title=" ">
<path fill="none" stroke="#63b8ff" d="M649.32,-55.55C652.59,-48 656.57,-38.82 660.06,-30.77"/>
<polygon fill="#63b8ff" stroke="#63b8ff" points="663.18,-32.36 663.95,-21.8 656.76,-29.58 663.18,-32.36"/>
</a>
</g>
</g>
<!-- Node34 -->
<g id="Node000034" class="node">
<title>Node34</title>
<g id="a_Node000034"><a xlink:title=" ">
<polygon fill="#e0e0e0" stroke="#999999" points="755,-20 714.25,-20 714.25,0 755,0 755,-20"/>
<text text-anchor="middle" x="734.62" y="-8.4" font-family="SourceSans" font-size="8.00">queue</text>
</a>
</g>
</g>
<!-- Node31&#45;&gt;Node34 -->
<g id="edge40_Node000031_Node000034" class="edge">
<title>Node31&#45;&gt;Node34</title>
<g id="a_edge40_Node000031_Node000034"><a xlink:title=" ">
<path fill="none" stroke="#63b8ff" d="M666.32,-55.55C680.03,-46.61 697.22,-35.39 710.93,-26.45"/>
<polygon fill="#63b8ff" stroke="#63b8ff" points="712.47,-29.63 718.93,-21.23 708.64,-23.77 712.47,-29.63"/>
</a>
</g>
</g>
<!-- Node35 -->
<g id="Node000035" class="node">
<title>Node35</title>
<g id="a_Node000035"><a xlink:title=" ">
<polygon fill="#e0e0e0" stroke="#999999" points="844.38,-20 772.88,-20 772.88,0 844.38,0 844.38,-20"/>
<text text-anchor="middle" x="808.62" y="-8.4" font-family="SourceSans" font-size="8.00">unordered_set</text>
</a>
</g>
</g>
<!-- Node31&#45;&gt;Node35 -->
<g id="edge41_Node000031_Node000035" class="edge">
<title>Node31&#45;&gt;Node35</title>
<g id="a_edge41_Node000031_Node000035"><a xlink:title=" ">
<path fill="none" stroke="#63b8ff" d="M682.81,-56.48C710.01,-46.64 745.66,-33.76 772.07,-24.21"/>
<polygon fill="#63b8ff" stroke="#63b8ff" points="773.13,-27.55 781.34,-20.86 770.75,-20.97 773.13,-27.55"/>
</a>
</g>
</g>
</g>
</svg>

<g id="navigator" transform="translate(0 0)" fill="#404254">
  <rect fill="#f2f5e9" fill-opacity="0.5" stroke="#606060" stroke-width=".5" x="0" y="0" width="60" height="60"/>
  <use id="zoomplus" xlink:href="#zoomPlus" x="17" y="9" onmousedown="handleZoom(evt,'in')"/>
  <use id="zoomminus" xlink:href="#zoomMin" x="42" y="9" onmousedown="handleZoom(evt,'out')"/>
  <use id="reset" xlink:href="#resetDef" x="30" y="36" onmousedown="handleReset()"/>
   <use id="arrowup" xlink:href="#arrowUp" x="0" y="0" onmousedown="handlePan(0,-1)"/>
  <use id="arrowright" xlink:href="#arrowRight" x="0" y="0" onmousedown="handlePan(1,0)"/>
  <use id="arrowdown" xlink:href="#arrowDown" x="0" y="0" onmousedown="handlePan(0,1)"/>
  <use id="arrowleft" xlink:href="#arrowLeft" x="0" y="0" onmousedown="handlePan(-1,0)"/>
</g>
<svg viewBox="0 0 15 15" width="100%" height="30px" preserveAspectRatio="xMaxYMin meet">
 <g id="arrow_out" transform="scale(0.3 0.3)">
  <a xlink:href="a60-svg-sequences_8h__incl_org.svg" target="_base">
   <rect id="button" ry="5" rx="5" y="6" x="6" height="38" width="38"
        fill="#f2f5e9" fill-opacity="0.5" stroke="#606060" stroke-width="1.0"/>
   <path id="arrow"
     d="M 11.500037,31.436501 C 11.940474,20.09759 22.043105,11.32322 32.158766,21.979434 L 37.068811,17.246167 C 37.068811,17.246167 37.088388,32 37.088388,32 L 22.160133,31.978069 C 22.160133,31.978069 26.997745,27.140456 26.997745,27.140456 C 18.528582,18.264221 13.291696,25.230495 11.500037,31.436501 z"
     style="fill:#404040;"/>
  </a>
 </g>
</svg>

<style type='text/css'>
<![CDATA[
[data-mouse-over-selected='false'] { opacity: 0.7; }
[data-mouse-over-selected='true']  { opacity: 1.0; }
]]>
</style>
<script type="application/ecmascript"><![CDATA[
document.addEventListener('DOMContentLoaded', (event) => {
  highlightEdges();
  highlightAdjacentNodes();
});
]]></script>
</svg>
