<?xml version="1.0" encoding="UTF-8" standalone="no"?>
<!DOCTYPE svg PUBLIC "-//W3C//DTD SVG 1.1//EN"
 "http://www.w3.org/Graphics/SVG/1.1/DTD/svg11.dtd">
<!-- Generated by graphviz version 12.2.1 (20241206.2353)
 -->
<!-- Title: /home/bkoz/src/izzi/src/a60&#45;svg&#45;radial.h Pages: 1 -->
<!--zoomable 270 -->

<svg id="main" version="1.1" xmlns="http://www.w3.org/2000/svg" xmlns:xlink="http://www.w3.org/1999/xlink" xml:space="preserve" onload="init(evt)">

<style type="text/css"><![CDATA[
.node, .edge {opacity: 0.7;}
.node.selected, .edge.selected {opacity: 1;}
.edge:hover path { stroke: red; }
.edge:hover polygon { stroke: red; fill: red; }
]]></style>

<defs>
  <circle id="rim" cx="0" cy="0" r="7"/>
  <circle id="rim2" cx="0" cy="0" r="3.5"/>
  <g id="zoomPlus">
    <use xlink:href="#rim" fill="#404040"><set attributeName="fill" to="#808080" begin="zoomplus.mouseover" end="zoomplus.mouseout"/></use>
    <path d="M-4,0h8M0,-4v8" fill="none" stroke="white" stroke-width="1.5" pointer-events="none"/>
  </g>
  <g id="zoomMin">
    <use xlink:href="#rim" fill="#404040"><set attributeName="fill" to="#808080" begin="zoomminus.mouseover" end="zoomminus.mouseout"/></use>
    <path d="M-4,0h8" fill="none" stroke="white" stroke-width="1.5" pointer-events="none"/>
  </g>
  <g id="arrowUp" transform="translate(30 24)">
    <use xlink:href="#rim"/>
    <path pointer-events="none" fill="none" stroke="white" stroke-width="1.5" d="M0,-3.0v7 M-2.5,-0.5L0,-3.0L2.5,-0.5"/>
  </g>
  <g id="arrowRight" transform="rotate(90) translate(36 -43)">
    <use xlink:href="#rim"/>
    <path pointer-events="none" fill="none" stroke="white" stroke-width="1.5" d="M0,-3.0v7 M-2.5,-0.5L0,-3.0L2.5,-0.5"/>
  </g>
  <g id="arrowDown" transform="rotate(180) translate(-30 -48)">
    <use xlink:href="#rim"/>
    <path pointer-events="none" fill="none" stroke="white" stroke-width="1.5" d="M0,-3.0v7 M-2.5,-0.5L0,-3.0L2.5,-0.5"/>
  </g>
  <g id="arrowLeft" transform="rotate(270) translate(-36 17)">
    <use xlink:href="#rim"/>
    <path pointer-events="none" fill="none" stroke="white" stroke-width="1.5" d="M0,-3.0v7 M-2.5,-0.5L0,-3.0L2.5,-0.5"/>
  </g>
  <g id="resetDef">
    <use xlink:href="#rim2" fill="#404040"><set attributeName="fill" to="#808080" begin="reset.mouseover" end="reset.mouseout"/></use>
  </g>
</defs>
<script type="application/ecmascript">
var viewWidth = 2157;
var viewHeight = 270;
var sectionId = 'dynsection-0';
</script>
<script type="application/ecmascript" xlink:href="svg.min.js"/>
<svg id="graph" class="graph">
<g id="viewport">
<title>/home/bkoz/src/izzi/src/a60&#45;svg&#45;radial.h</title>
<!-- Node1 -->
<g id="Node000001" class="node">
<title>Node1</title>
<g id="a_Node000001"><a xlink:title=" ">
<polygon fill="#999999" stroke="#666666" points="685.78,-262 585.03,-262 585.03,-234.5 685.78,-234.5 685.78,-262"/>
<text text-anchor="start" x="593.03" y="-250.4" font-family="SourceSans" font-size="8.00">/home/bkoz/src/izzi</text>
<text text-anchor="middle" x="635.4" y="-240.65" font-family="SourceSans" font-size="8.00">/src/a60&#45;svg&#45;radial.h</text>
</a>
</g>
</g>
<!-- Node2 -->
<g id="Node000002" class="node">
<title>Node2</title>
<g id="a_Node000002"><a xlink:href="a60-svg-radial-base_8h.html" target="_top" xlink:title=" ">
<polygon fill="white" stroke="#666666" points="498.4,-193.62 392.4,-193.62 392.4,-175.88 498.4,-175.88 498.4,-193.62"/>
<text text-anchor="middle" x="445.4" y="-182.03" font-family="SourceSans" font-size="8.00">a60&#45;svg&#45;radial&#45;base.h</text>
</a>
</g>
</g>
<!-- Node1&#45;&gt;Node2 -->
<g id="edge1_Node000001_Node000002" class="edge">
<title>Node1&#45;&gt;Node2</title>
<g id="a_edge1_Node000001_Node000002"><a xlink:title=" ">
<path fill="none" stroke="#63b8ff" d="M594.64,-234.06C561.18,-223.23 514.23,-208.03 481.97,-197.59"/>
<polygon fill="#63b8ff" stroke="#63b8ff" points="483.25,-194.32 472.66,-194.57 481.1,-200.98 483.25,-194.32"/>
</a>
</g>
</g>
<!-- Node34 -->
<g id="Node000034" class="node">
<title>Node34</title>
<g id="a_Node000034"><a xlink:href="a60-svg-radial-direction-arc-glyph_8h.html" target="_top" xlink:title=" ">
<polygon fill="white" stroke="#666666" points="630.15,-198.5 516.65,-198.5 516.65,-171 630.15,-171 630.15,-198.5"/>
<text text-anchor="start" x="524.65" y="-186.9" font-family="SourceSans" font-size="8.00">a60&#45;svg&#45;radial&#45;direction</text>
<text text-anchor="middle" x="573.4" y="-177.15" font-family="SourceSans" font-size="8.00">&#45;arc&#45;glyph.h</text>
</a>
</g>
</g>
<!-- Node1&#45;&gt;Node34 -->
<g id="edge42_Node000001_Node000034" class="edge">
<title>Node1&#45;&gt;Node34</title>
<g id="a_edge42_Node000001_Node000034"><a xlink:title=" ">
<path fill="none" stroke="#63b8ff" d="M622.25,-234.21C614.2,-226.22 603.7,-215.81 594.5,-206.68"/>
<polygon fill="#63b8ff" stroke="#63b8ff" points="597.17,-204.4 587.6,-199.84 592.24,-209.37 597.17,-204.4"/>
</a>
</g>
</g>
<!-- Node35 -->
<g id="Node000035" class="node">
<title>Node35</title>
<g id="a_Node000035"><a xlink:href="a60-svg-radial-arc_8h.html" target="_top" xlink:title=" ">
<polygon fill="white" stroke="#666666" points="746.65,-193.62 648.15,-193.62 648.15,-175.88 746.65,-175.88 746.65,-193.62"/>
<text text-anchor="middle" x="697.4" y="-182.03" font-family="SourceSans" font-size="8.00">a60&#45;svg&#45;radial&#45;arc.h</text>
</a>
</g>
</g>
<!-- Node1&#45;&gt;Node35 -->
<g id="edge43_Node000001_Node000035" class="edge">
<title>Node1&#45;&gt;Node35</title>
<g id="a_edge43_Node000001_Node000035"><a xlink:title=" ">
<path fill="none" stroke="#63b8ff" d="M648.55,-234.21C658.01,-224.83 670.83,-212.11 680.96,-202.06"/>
<polygon fill="#63b8ff" stroke="#63b8ff" points="683.31,-204.65 687.95,-195.13 678.38,-199.68 683.31,-204.65"/>
</a>
</g>
</g>
<!-- Node36 -->
<g id="Node000036" class="node">
<title>Node36</title>
<g id="a_Node000036"><a xlink:href="a60-svg-radial-kusama_8h.html" target="_top" xlink:title=" ">
<polygon fill="white" stroke="#666666" points="882.4,-193.62 764.4,-193.62 764.4,-175.88 882.4,-175.88 882.4,-193.62"/>
<text text-anchor="middle" x="823.4" y="-182.03" font-family="SourceSans" font-size="8.00">a60&#45;svg&#45;radial&#45;kusama.h</text>
</a>
</g>
</g>
<!-- Node1&#45;&gt;Node36 -->
<g id="edge44_Node000001_Node000036" class="edge">
<title>Node1&#45;&gt;Node36</title>
<g id="a_edge44_Node000001_Node000036"><a xlink:title=" ">
<path fill="none" stroke="#63b8ff" d="M675.73,-234.06C708.83,-223.23 755.29,-208.03 787.21,-197.59"/>
<polygon fill="#63b8ff" stroke="#63b8ff" points="788,-201.01 796.41,-194.58 785.82,-194.36 788,-201.01"/>
</a>
</g>
</g>
<!-- Node3 -->
<g id="Node000003" class="node">
<title>Node3</title>
<g id="a_Node000003"><a xlink:title=" ">
<polygon fill="#e0e0e0" stroke="#999999" points="28.8,-76.38 0,-76.38 0,-58.62 28.8,-58.62 28.8,-76.38"/>
<text text-anchor="middle" x="14.4" y="-64.78" font-family="SourceSans" font-size="8.00">set</text>
</a>
</g>
</g>
<!-- Node2&#45;&gt;Node3 -->
<g id="edge2_Node000002_Node000003" class="edge">
<title>Node2&#45;&gt;Node3</title>
<g id="a_edge2_Node000002_Node000003"><a xlink:title=" ">
<path fill="none" stroke="#63b8ff" d="M392.18,-183.77C295.57,-182.78 96.34,-175.69 42.4,-135 27.56,-123.8 20.51,-103.23 17.21,-87.92"/>
<polygon fill="#63b8ff" stroke="#63b8ff" points="20.67,-87.36 15.5,-78.11 13.77,-88.57 20.67,-87.36"/>
</a>
</g>
</g>
<!-- Node4 -->
<g id="Node000004" class="node">
<title>Node4</title>
<g id="a_Node000004"><a xlink:title=" ">
<polygon fill="#e0e0e0" stroke="#999999" points="2149.28,-135 2105.53,-135 2105.53,-117.25 2149.28,-117.25 2149.28,-135"/>
<text text-anchor="middle" x="2127.4" y="-123.4" font-family="SourceSans" font-size="8.00">chrono</text>
</a>
</g>
</g>
<!-- Node2&#45;&gt;Node4 -->
<g id="edge3_Node000002_Node000004" class="edge">
<title>Node2&#45;&gt;Node4</title>
<g id="a_edge3_Node000002_Node000004"><a xlink:title=" ">
<path fill="none" stroke="#63b8ff" d="M480.31,-175.43C489.1,-173.65 498.56,-172 507.4,-171 1207.11,-91.76 1392.2,-218.63 2091.4,-135 2092.23,-134.9 2093.08,-134.79 2093.93,-134.67"/>
<polygon fill="#63b8ff" stroke="#63b8ff" points="2094.31,-138.16 2103.55,-132.98 2093.1,-131.26 2094.31,-138.16"/>
</a>
</g>
</g>
<!-- Node5 -->
<g id="Node000005" class="node">
<title>Node5</title>
<g id="a_Node000005"><a xlink:title=" ">
<polygon fill="#e0e0e0" stroke="#999999" points="1665.03,-17.75 1613.78,-17.75 1613.78,0 1665.03,0 1665.03,-17.75"/>
<text text-anchor="middle" x="1639.4" y="-6.15" font-family="SourceSans" font-size="8.00">iostream</text>
</a>
</g>
</g>
<!-- Node2&#45;&gt;Node5 -->
<g id="edge4_Node000002_Node000005" class="edge">
<title>Node2&#45;&gt;Node5</title>
<g id="a_edge4_Node000002_Node000005"><a xlink:title=" ">
<path fill="none" stroke="#63b8ff" d="M481.64,-175.38C490.06,-173.69 499.01,-172.1 507.4,-171 678.56,-148.57 1939.92,-206.79 2058.4,-81.25 2066.79,-72.36 2066.58,-62.83 2058.4,-53.75 2033.05,-25.61 1774.47,-14.29 1676.63,-10.99"/>
<polygon fill="#63b8ff" stroke="#63b8ff" points="1676.88,-7.49 1666.77,-10.66 1676.65,-14.49 1676.88,-7.49"/>
</a>
</g>
</g>
<!-- Node6 -->
<g id="Node000006" class="node">
<title>Node6</title>
<g id="a_Node000006"><a xlink:title=" ">
<polygon fill="#e0e0e0" stroke="#999999" points="160.9,-17.75 111.9,-17.75 111.9,0 160.9,0 160.9,-17.75"/>
<text text-anchor="middle" x="136.4" y="-6.15" font-family="SourceSans" font-size="8.00">iomanip</text>
</a>
</g>
</g>
<!-- Node2&#45;&gt;Node6 -->
<g id="edge5_Node000002_Node000006" class="edge">
<title>Node2&#45;&gt;Node6</title>
<g id="a_edge5_Node000002_Node000006"><a xlink:title=" ">
<path fill="none" stroke="#63b8ff" d="M391.91,-180.53C325.38,-173.53 213.06,-151.38 151.4,-81.25 138.86,-66.99 135.87,-44.96 135.54,-29.14"/>
<polygon fill="#63b8ff" stroke="#63b8ff" points="139.03,-29.63 135.69,-19.57 132.03,-29.52 139.03,-29.63"/>
</a>
</g>
</g>
<!-- Node7 -->
<g id="Node000007" class="node">
<title>Node7</title>
<g id="a_Node000007"><a xlink:title=" ">
<polygon fill="#e0e0e0" stroke="#999999" points="93.9,-17.75 38.9,-17.75 38.9,0 93.9,0 93.9,-17.75"/>
<text text-anchor="middle" x="66.4" y="-6.15" font-family="SourceSans" font-size="8.00">algorithm</text>
</a>
</g>
</g>
<!-- Node2&#45;&gt;Node7 -->
<g id="edge6_Node000002_Node000007" class="edge">
<title>Node2&#45;&gt;Node7</title>
<g id="a_edge6_Node000002_Node000007"><a xlink:title=" ">
<path fill="none" stroke="#63b8ff" d="M392.03,-179.06C339.75,-173.18 258.52,-160.59 192.4,-135 149.66,-118.46 135.84,-114.6 104.4,-81.25 89.97,-65.95 79.42,-44.11 73.14,-28.63"/>
<polygon fill="#63b8ff" stroke="#63b8ff" points="76.56,-27.76 69.73,-19.66 70.02,-30.25 76.56,-27.76"/>
</a>
</g>
</g>
<!-- Node8 -->
<g id="Node000008" class="node">
<title>Node8</title>
<g id="a_Node000008"><a xlink:href="a60-svg_8h.html" target="_top" xlink:title=" ">
<polygon fill="white" stroke="#666666" points="786.65,-135 730.15,-135 730.15,-117.25 786.65,-117.25 786.65,-135"/>
<text text-anchor="middle" x="758.4" y="-123.4" font-family="SourceSans" font-size="8.00">a60&#45;svg.h</text>
</a>
</g>
</g>
<!-- Node2&#45;&gt;Node8 -->
<g id="edge7_Node000002_Node000008" class="edge">
<title>Node2&#45;&gt;Node8</title>
<g id="a_edge7_Node000002_Node000008"><a xlink:title=" ">
<path fill="none" stroke="#63b8ff" d="M485.06,-175.41C492.47,-173.9 500.17,-172.38 507.4,-171 581.83,-156.84 669.01,-141.99 718.57,-133.71"/>
<polygon fill="#63b8ff" stroke="#63b8ff" points="718.96,-137.19 728.25,-132.1 717.81,-130.29 718.96,-137.19"/>
</a>
</g>
</g>
<!-- Node8&#45;&gt;Node3 -->
<g id="edge15_Node000008_Node000003" class="edge">
<title>Node8&#45;&gt;Node3</title>
<g id="a_edge15_Node000008_Node000003"><a xlink:title=" ">
<path fill="none" stroke="#63b8ff" d="M729.86,-124.57C636.33,-122.46 330.77,-113.4 80.4,-81.25 67.12,-79.54 52.48,-76.81 40.37,-74.3"/>
<polygon fill="#63b8ff" stroke="#63b8ff" points="41.25,-70.91 30.73,-72.24 39.78,-77.76 41.25,-70.91"/>
</a>
</g>
</g>
<!-- Node8&#45;&gt;Node7 -->
<g id="edge10_Node000008_Node000007" class="edge">
<title>Node8&#45;&gt;Node7</title>
<g id="a_edge10_Node000008_Node000007"><a xlink:title=" ">
<path fill="none" stroke="#63b8ff" d="M729.67,-125.37C624.09,-125.92 258.24,-124.59 151.4,-81.25 122.17,-69.39 95.57,-43.52 80.18,-26.4"/>
<polygon fill="#63b8ff" stroke="#63b8ff" points="83.03,-24.34 73.84,-19.08 77.74,-28.93 83.03,-24.34"/>
</a>
</g>
</g>
<!-- Node9 -->
<g id="Node000009" class="node">
<title>Node9</title>
<g id="a_Node000009"><a xlink:title=" ">
<polygon fill="#e0e0e0" stroke="#999999" points="551.78,-76.38 505.03,-76.38 505.03,-58.62 551.78,-58.62 551.78,-76.38"/>
<text text-anchor="middle" x="528.4" y="-64.78" font-family="SourceSans" font-size="8.00">cstddef</text>
</a>
</g>
</g>
<!-- Node8&#45;&gt;Node9 -->
<g id="edge8_Node000008_Node000009" class="edge">
<title>Node8&#45;&gt;Node9</title>
<g id="a_edge8_Node000008_Node000009"><a xlink:title=" ">
<path fill="none" stroke="#63b8ff" d="M729.83,-120.29C691,-113.38 619.63,-99.48 560.4,-81.25 559.76,-81.05 559.11,-80.85 558.46,-80.64"/>
<polygon fill="#63b8ff" stroke="#63b8ff" points="559.87,-77.42 549.28,-77.34 557.51,-84.01 559.87,-77.42"/>
</a>
</g>
</g>
<!-- Node10 -->
<g id="Node000010" class="node">
<title>Node10</title>
<g id="a_Node000010"><a xlink:title=" ">
<polygon fill="#e0e0e0" stroke="#999999" points="611.15,-76.38 569.65,-76.38 569.65,-58.62 611.15,-58.62 611.15,-76.38"/>
<text text-anchor="middle" x="590.4" y="-64.78" font-family="SourceSans" font-size="8.00">cmath</text>
</a>
</g>
</g>
<!-- Node8&#45;&gt;Node10 -->
<g id="edge9_Node000008_Node000010" class="edge">
<title>Node8&#45;&gt;Node10</title>
<g id="a_edge9_Node000008_Node000010"><a xlink:title=" ">
<path fill="none" stroke="#63b8ff" d="M729.87,-117.11C701.56,-108.92 657.06,-95.42 619.4,-81.25 619.17,-81.17 618.95,-81.08 618.72,-80.99"/>
<polygon fill="#63b8ff" stroke="#63b8ff" points="620.36,-77.88 609.78,-77.34 617.71,-84.36 620.36,-77.88"/>
</a>
</g>
</g>
<!-- Node11 -->
<g id="Node000011" class="node">
<title>Node11</title>
<g id="a_Node000011"><a xlink:title=" ">
<polygon fill="#e0e0e0" stroke="#999999" points="665.9,-76.38 628.9,-76.38 628.9,-58.62 665.9,-58.62 665.9,-76.38"/>
<text text-anchor="middle" x="647.4" y="-64.78" font-family="SourceSans" font-size="8.00">array</text>
</a>
</g>
</g>
<!-- Node8&#45;&gt;Node11 -->
<g id="edge11_Node000008_Node000011" class="edge">
<title>Node8&#45;&gt;Node11</title>
<g id="a_edge11_Node000008_Node000011"><a xlink:title=" ">
<path fill="none" stroke="#63b8ff" d="M742.02,-116.77C723.97,-107.56 694.67,-92.61 673.45,-81.79"/>
<polygon fill="#63b8ff" stroke="#63b8ff" points="675.33,-78.82 664.83,-77.39 672.15,-85.06 675.33,-78.82"/>
</a>
</g>
</g>
<!-- Node12 -->
<g id="Node000012" class="node">
<title>Node12</title>
<g id="a_Node000012"><a xlink:title=" ">
<polygon fill="#e0e0e0" stroke="#999999" points="720.9,-76.38 683.9,-76.38 683.9,-58.62 720.9,-58.62 720.9,-76.38"/>
<text text-anchor="middle" x="702.4" y="-64.78" font-family="SourceSans" font-size="8.00">tuple</text>
</a>
</g>
</g>
<!-- Node8&#45;&gt;Node12 -->
<g id="edge12_Node000008_Node000012" class="edge">
<title>Node8&#45;&gt;Node12</title>
<g id="a_edge12_Node000008_Node000012"><a xlink:title=" ">
<path fill="none" stroke="#63b8ff" d="M750.14,-116.77C741.77,-108.31 728.62,-95.01 718.24,-84.51"/>
<polygon fill="#63b8ff" stroke="#63b8ff" points="720.92,-82.25 711.4,-77.6 715.94,-87.17 720.92,-82.25"/>
</a>
</g>
</g>
<!-- Node13 -->
<g id="Node000013" class="node">
<title>Node13</title>
<g id="a_Node000013"><a xlink:title=" ">
<polygon fill="#e0e0e0" stroke="#999999" points="778.03,-76.38 738.78,-76.38 738.78,-58.62 778.03,-58.62 778.03,-76.38"/>
<text text-anchor="middle" x="758.4" y="-64.78" font-family="SourceSans" font-size="8.00">string</text>
</a>
</g>
</g>
<!-- Node8&#45;&gt;Node13 -->
<g id="edge13_Node000008_Node000013" class="edge">
<title>Node8&#45;&gt;Node13</title>
<g id="a_edge13_Node000008_Node000013"><a xlink:title=" ">
<path fill="none" stroke="#63b8ff" d="M758.4,-116.77C758.4,-109.16 758.4,-97.62 758.4,-87.74"/>
<polygon fill="#63b8ff" stroke="#63b8ff" points="761.9,-88.04 758.4,-78.04 754.9,-88.04 761.9,-88.04"/>
</a>
</g>
</g>
<!-- Node14 -->
<g id="Node000014" class="node">
<title>Node14</title>
<g id="a_Node000014"><a xlink:title=" ">
<polygon fill="#e0e0e0" stroke="#999999" points="837.15,-76.38 795.65,-76.38 795.65,-58.62 837.15,-58.62 837.15,-76.38"/>
<text text-anchor="middle" x="816.4" y="-64.78" font-family="SourceSans" font-size="8.00">vector</text>
</a>
</g>
</g>
<!-- Node8&#45;&gt;Node14 -->
<g id="edge14_Node000008_Node000014" class="edge">
<title>Node8&#45;&gt;Node14</title>
<g id="a_edge14_Node000008_Node000014"><a xlink:title=" ">
<path fill="none" stroke="#63b8ff" d="M766.96,-116.77C775.62,-108.31 789.24,-95.01 800,-84.51"/>
<polygon fill="#63b8ff" stroke="#63b8ff" points="802.39,-87.07 807.1,-77.58 797.5,-82.06 802.39,-87.07"/>
</a>
</g>
</g>
<!-- Node15 -->
<g id="Node000015" class="node">
<title>Node15</title>
<g id="a_Node000015"><a xlink:title=" ">
<polygon fill="#e0e0e0" stroke="#999999" points="935.28,-76.38 855.53,-76.38 855.53,-58.62 935.28,-58.62 935.28,-76.38"/>
<text text-anchor="middle" x="895.4" y="-64.78" font-family="SourceSans" font-size="8.00">unordered_map</text>
</a>
</g>
</g>
<!-- Node8&#45;&gt;Node15 -->
<g id="edge16_Node000008_Node000015" class="edge">
<title>Node8&#45;&gt;Node15</title>
<g id="a_edge16_Node000008_Node000015"><a xlink:title=" ">
<path fill="none" stroke="#63b8ff" d="M778.61,-116.77C801.41,-107.35 838.72,-91.93 865.02,-81.06"/>
<polygon fill="#63b8ff" stroke="#63b8ff" points="866.24,-84.34 874.15,-77.28 863.57,-77.87 866.24,-84.34"/>
</a>
</g>
</g>
<!-- Node16 -->
<g id="Node000016" class="node">
<title>Node16</title>
<g id="a_Node000016"><a xlink:title=" ">
<polygon fill="#e0e0e0" stroke="#999999" points="1001.53,-76.38 953.28,-76.38 953.28,-58.62 1001.53,-58.62 1001.53,-76.38"/>
<text text-anchor="middle" x="977.4" y="-64.78" font-family="SourceSans" font-size="8.00">sstream</text>
</a>
</g>
</g>
<!-- Node8&#45;&gt;Node16 -->
<g id="edge17_Node000008_Node000016" class="edge">
<title>Node8&#45;&gt;Node16</title>
<g id="a_edge17_Node000008_Node000016"><a xlink:title=" ">
<path fill="none" stroke="#63b8ff" d="M787.09,-119.63C823.9,-112.29 889.57,-98.22 944.4,-81.25 945.19,-81 945.99,-80.75 946.8,-80.49"/>
<polygon fill="#63b8ff" stroke="#63b8ff" points="947.62,-83.91 955.88,-77.27 945.29,-77.31 947.62,-83.91"/>
</a>
</g>
</g>
<!-- Node17 -->
<g id="Node000017" class="node">
<title>Node17</title>
<g id="a_Node000017"><a xlink:href="a60-svg-color_8h.html" target="_top" xlink:title=" ">
<polygon fill="white" stroke="#666666" points="240.28,-76.38 160.53,-76.38 160.53,-58.62 240.28,-58.62 240.28,-76.38"/>
<text text-anchor="middle" x="200.4" y="-64.78" font-family="SourceSans" font-size="8.00">a60&#45;svg&#45;color.h</text>
</a>
</g>
</g>
<!-- Node8&#45;&gt;Node17 -->
<g id="edge18_Node000008_Node000017" class="edge">
<title>Node8&#45;&gt;Node17</title>
<g id="a_edge18_Node000008_Node000017"><a xlink:title=" ">
<path fill="none" stroke="#63b8ff" d="M729.76,-124.35C652,-121.87 430.56,-112.4 249.4,-81.25 246.42,-80.74 243.35,-80.13 240.27,-79.47"/>
<polygon fill="#63b8ff" stroke="#63b8ff" points="241.25,-76.1 230.72,-77.21 239.65,-82.92 241.25,-76.1"/>
</a>
</g>
</g>
<!-- Node20 -->
<g id="Node000020" class="node">
<title>Node20</title>
<g id="a_Node000020"><a xlink:href="a60-svg-color-palette_8h.html" target="_top" xlink:title=" ">
<polygon fill="white" stroke="#666666" points="1131.4,-76.38 1019.4,-76.38 1019.4,-58.62 1131.4,-58.62 1131.4,-76.38"/>
<text text-anchor="middle" x="1075.4" y="-64.78" font-family="SourceSans" font-size="8.00">a60&#45;svg&#45;color&#45;palette.h</text>
</a>
</g>
</g>
<!-- Node8&#45;&gt;Node20 -->
<g id="edge23_Node000008_Node000020" class="edge">
<title>Node8&#45;&gt;Node20</title>
<g id="a_edge23_Node000008_Node000020"><a xlink:title=" ">
<path fill="none" stroke="#63b8ff" d="M786.78,-120.39C833.47,-112.55 929.4,-96.24 1010.4,-81.25 1014.25,-80.54 1018.22,-79.79 1022.22,-79.03"/>
<polygon fill="#63b8ff" stroke="#63b8ff" points="1022.82,-82.48 1031.98,-77.15 1021.5,-75.6 1022.82,-82.48"/>
</a>
</g>
</g>
<!-- Node21 -->
<g id="Node000021" class="node">
<title>Node21</title>
<g id="a_Node000021"><a xlink:href="a60-svg-color-band_8h.html" target="_top" xlink:title=" ">
<polygon fill="white" stroke="#666666" points="1253.28,-76.38 1149.53,-76.38 1149.53,-58.62 1253.28,-58.62 1253.28,-76.38"/>
<text text-anchor="middle" x="1201.4" y="-64.78" font-family="SourceSans" font-size="8.00">a60&#45;svg&#45;color&#45;band.h</text>
</a>
</g>
</g>
<!-- Node8&#45;&gt;Node21 -->
<g id="edge24_Node000008_Node000021" class="edge">
<title>Node8&#45;&gt;Node21</title>
<g id="a_edge24_Node000008_Node000021"><a xlink:title=" ">
<path fill="none" stroke="#63b8ff" d="M786.8,-122.76C850.38,-117.27 1008.93,-102.49 1140.4,-81.25 1144.49,-80.59 1148.71,-79.84 1152.95,-79.05"/>
<polygon fill="#63b8ff" stroke="#63b8ff" points="1153.45,-82.52 1162.59,-77.16 1152.11,-75.65 1153.45,-82.52"/>
</a>
</g>
</g>
<!-- Node22 -->
<g id="Node000022" class="node">
<title>Node22</title>
<g id="a_Node000022"><a xlink:href="a60-svg-base-types_8h.html" target="_top" xlink:title=" ">
<polygon fill="white" stroke="#666666" points="364.03,-76.38 258.78,-76.38 258.78,-58.62 364.03,-58.62 364.03,-76.38"/>
<text text-anchor="middle" x="311.4" y="-64.78" font-family="SourceSans" font-size="8.00">a60&#45;svg&#45;base&#45;types.h</text>
</a>
</g>
</g>
<!-- Node8&#45;&gt;Node22 -->
<g id="edge26_Node000008_Node000022" class="edge">
<title>Node8&#45;&gt;Node22</title>
<g id="a_edge26_Node000008_Node000022"><a xlink:title=" ">
<path fill="none" stroke="#63b8ff" d="M729.79,-122.75C665.71,-117.23 505.93,-102.39 373.4,-81.25 369.13,-80.57 364.7,-79.8 360.27,-78.97"/>
<polygon fill="#63b8ff" stroke="#63b8ff" points="361.31,-75.61 350.82,-77.15 359.98,-82.48 361.31,-75.61"/>
</a>
</g>
</g>
<!-- Node26 -->
<g id="Node000026" class="node">
<title>Node26</title>
<g id="a_Node000026"><a xlink:href="a60-svg-constants_8h.html" target="_top" xlink:title=" ">
<polygon fill="white" stroke="#666666" points="1371.4,-76.38 1271.4,-76.38 1271.4,-58.62 1371.4,-58.62 1371.4,-76.38"/>
<text text-anchor="middle" x="1321.4" y="-64.78" font-family="SourceSans" font-size="8.00">a60&#45;svg&#45;constants.h</text>
</a>
</g>
</g>
<!-- Node8&#45;&gt;Node26 -->
<g id="edge31_Node000008_Node000026" class="edge">
<title>Node8&#45;&gt;Node26</title>
<g id="a_edge31_Node000008_Node000026"><a xlink:title=" ">
<path fill="none" stroke="#63b8ff" d="M786.97,-123.9C864.05,-120.33 1082.63,-108.39 1262.4,-81.25 1266.53,-80.63 1270.8,-79.89 1275.07,-79.09"/>
<polygon fill="#63b8ff" stroke="#63b8ff" points="1275.67,-82.54 1284.8,-77.15 1274.3,-75.67 1275.67,-82.54"/>
</a>
</g>
</g>
<!-- Node27 -->
<g id="Node000027" class="node">
<title>Node27</title>
<g id="a_Node000027"><a xlink:href="a60-svg-elements_8h.html" target="_top" xlink:title=" ">
<polygon fill="white" stroke="#666666" points="1487.28,-76.38 1389.53,-76.38 1389.53,-58.62 1487.28,-58.62 1487.28,-76.38"/>
<text text-anchor="middle" x="1438.4" y="-64.78" font-family="SourceSans" font-size="8.00">a60&#45;svg&#45;elements.h</text>
</a>
</g>
</g>
<!-- Node8&#45;&gt;Node27 -->
<g id="edge32_Node000008_Node000027" class="edge">
<title>Node8&#45;&gt;Node27</title>
<g id="a_edge32_Node000008_Node000027"><a xlink:title=" ">
<path fill="none" stroke="#63b8ff" d="M787.08,-124.59C875.76,-122.61 1153.26,-114.05 1380.4,-81.25 1384.7,-80.63 1389.15,-79.87 1393.59,-79.03"/>
<polygon fill="#63b8ff" stroke="#63b8ff" points="1393.92,-82.53 1403.03,-77.12 1392.53,-75.67 1393.92,-82.53"/>
</a>
</g>
</g>
<!-- Node28 -->
<g id="Node000028" class="node">
<title>Node28</title>
<g id="a_Node000028"><a xlink:href="a60-svg-elements-components_8h.html" target="_top" xlink:title=" ">
<polygon fill="white" stroke="#666666" points="1657.28,-76.38 1505.53,-76.38 1505.53,-58.62 1657.28,-58.62 1657.28,-76.38"/>
<text text-anchor="middle" x="1581.4" y="-64.78" font-family="SourceSans" font-size="8.00">a60&#45;svg&#45;elements&#45;components.h</text>
</a>
</g>
</g>
<!-- Node8&#45;&gt;Node28 -->
<g id="edge33_Node000008_Node000028" class="edge">
<title>Node8&#45;&gt;Node28</title>
<g id="a_edge33_Node000008_Node000028"><a xlink:title=" ">
<path fill="none" stroke="#63b8ff" d="M786.97,-124.35C885.62,-121.46 1220.98,-110.03 1496.4,-81.25 1503.88,-80.47 1511.71,-79.5 1519.46,-78.45"/>
<polygon fill="#63b8ff" stroke="#63b8ff" points="1519.79,-81.94 1529.21,-77.07 1518.82,-75.01 1519.79,-81.94"/>
</a>
</g>
</g>
<!-- Node29 -->
<g id="Node000029" class="node">
<title>Node29</title>
<g id="a_Node000029"><a xlink:href="a60-svg-render-state_8h.html" target="_top" xlink:title=" ">
<polygon fill="white" stroke="#666666" points="1785.28,-76.38 1675.53,-76.38 1675.53,-58.62 1785.28,-58.62 1785.28,-76.38"/>
<text text-anchor="middle" x="1730.4" y="-64.78" font-family="SourceSans" font-size="8.00">a60&#45;svg&#45;render&#45;state.h</text>
</a>
</g>
</g>
<!-- Node8&#45;&gt;Node29 -->
<g id="edge34_Node000008_Node000029" class="edge">
<title>Node8&#45;&gt;Node29</title>
<g id="a_edge34_Node000008_Node000029"><a xlink:title=" ">
<path fill="none" stroke="#63b8ff" d="M786.77,-125.28C898.9,-125.58 1321.79,-123.66 1666.4,-81.25 1671.61,-80.61 1677.03,-79.78 1682.41,-78.86"/>
<polygon fill="#63b8ff" stroke="#63b8ff" points="1682.63,-82.38 1691.84,-77.13 1681.37,-75.49 1682.63,-82.38"/>
</a>
</g>
</g>
<!-- Node30 -->
<g id="Node000030" class="node">
<title>Node30</title>
<g id="a_Node000030"><a xlink:href="a60-svg-render-basics_8h.html" target="_top" xlink:title=" ">
<polygon fill="white" stroke="#666666" points="1917.9,-76.38 1802.9,-76.38 1802.9,-58.62 1917.9,-58.62 1917.9,-76.38"/>
<text text-anchor="middle" x="1860.4" y="-64.78" font-family="SourceSans" font-size="8.00">a60&#45;svg&#45;render&#45;basics.h</text>
</a>
</g>
</g>
<!-- Node8&#45;&gt;Node30 -->
<g id="edge35_Node000008_Node000030" class="edge">
<title>Node8&#45;&gt;Node30</title>
<g id="a_edge35_Node000008_Node000030"><a xlink:title=" ">
<path fill="none" stroke="#63b8ff" d="M786.95,-125.46C908.78,-126.59 1397.02,-127.79 1794.4,-81.25 1799.98,-80.6 1805.8,-79.74 1811.56,-78.77"/>
<polygon fill="#63b8ff" stroke="#63b8ff" points="1811.79,-82.29 1821.02,-77.09 1810.56,-75.4 1811.79,-82.29"/>
</a>
</g>
</g>
<!-- Node31 -->
<g id="Node000031" class="node">
<title>Node31</title>
<g id="a_Node000031"><a xlink:href="a60-svg-composite-and-layer-basics_8h.html" target="_top" xlink:title=" ">
<polygon fill="white" stroke="#666666" points="2049.15,-81.25 1935.65,-81.25 1935.65,-53.75 2049.15,-53.75 2049.15,-81.25"/>
<text text-anchor="start" x="1943.65" y="-69.65" font-family="SourceSans" font-size="8.00">a60&#45;svg&#45;composite&#45;and</text>
<text text-anchor="middle" x="1992.4" y="-59.9" font-family="SourceSans" font-size="8.00">&#45;layer&#45;basics.h</text>
</a>
</g>
</g>
<!-- Node8&#45;&gt;Node31 -->
<g id="edge36_Node000008_Node000031" class="edge">
<title>Node8&#45;&gt;Node31</title>
<g id="a_edge36_Node000008_Node000031"><a xlink:title=" ">
<path fill="none" stroke="#63b8ff" d="M786.96,-124.66C940.89,-122.06 1673.75,-108.49 1924.21,-81.46"/>
<polygon fill="#63b8ff" stroke="#63b8ff" points="1924.36,-84.96 1933.9,-80.37 1923.58,-78.01 1924.36,-84.96"/>
</a>
</g>
</g>
<!-- Node32 -->
<g id="Node000032" class="node">
<title>Node32</title>
<g id="a_Node000032"><a xlink:href="a60-svg-sequences_8h.html" target="_top" xlink:title=" ">
<polygon fill="white" stroke="#666666" points="486.65,-76.38 382.15,-76.38 382.15,-58.62 486.65,-58.62 486.65,-76.38"/>
<text text-anchor="middle" x="434.4" y="-64.78" font-family="SourceSans" font-size="8.00">a60&#45;svg&#45;sequences.h</text>
</a>
</g>
</g>
<!-- Node8&#45;&gt;Node32 -->
<g id="edge37_Node000008_Node000032" class="edge">
<title>Node8&#45;&gt;Node32</title>
<g id="a_edge37_Node000008_Node000032"><a xlink:title=" ">
<path fill="none" stroke="#63b8ff" d="M729.75,-121.48C679.92,-114.31 575.13,-97.61 487.4,-81.25 483.73,-80.57 479.94,-79.84 476.14,-79.09"/>
<polygon fill="#63b8ff" stroke="#63b8ff" points="476.86,-75.66 466.37,-77.11 475.48,-82.53 476.86,-75.66"/>
</a>
</g>
</g>
<!-- Node17&#45;&gt;Node6 -->
<g id="edge22_Node000017_Node000006" class="edge">
<title>Node17&#45;&gt;Node6</title>
<g id="a_edge22_Node000017_Node000006"><a xlink:title=" ">
<path fill="none" stroke="#63b8ff" d="M190.96,-58.14C181.2,-49.52 165.76,-35.85 153.79,-25.26"/>
<polygon fill="#63b8ff" stroke="#63b8ff" points="156.41,-22.91 146.6,-18.9 151.77,-28.15 156.41,-22.91"/>
</a>
</g>
</g>
<!-- Node17&#45;&gt;Node7 -->
<g id="edge20_Node000017_Node000007" class="edge">
<title>Node17&#45;&gt;Node7</title>
<g id="a_edge20_Node000017_Node000007"><a xlink:title=" ">
<path fill="none" stroke="#63b8ff" d="M180.63,-58.14C158.33,-48.72 121.84,-33.3 96.11,-22.43"/>
<polygon fill="#63b8ff" stroke="#63b8ff" points="97.79,-19.34 87.21,-18.67 95.06,-25.79 97.79,-19.34"/>
</a>
</g>
</g>
<!-- Node18 -->
<g id="Node000018" class="node">
<title>Node18</title>
<g id="a_Node000018"><a xlink:title=" ">
<polygon fill="#e0e0e0" stroke="#999999" points="213.4,-17.75 179.4,-17.75 179.4,0 213.4,0 213.4,-17.75"/>
<text text-anchor="middle" x="196.4" y="-6.15" font-family="SourceSans" font-size="8.00">map</text>
</a>
</g>
</g>
<!-- Node17&#45;&gt;Node18 -->
<g id="edge19_Node000017_Node000018" class="edge">
<title>Node17&#45;&gt;Node18</title>
<g id="a_edge19_Node000017_Node000018"><a xlink:title=" ">
<path fill="none" stroke="#63b8ff" d="M199.81,-58.14C199.27,-50.53 198.46,-39 197.76,-29.12"/>
<polygon fill="#63b8ff" stroke="#63b8ff" points="201.27,-29.14 197.07,-19.41 194.29,-29.63 201.27,-29.14"/>
</a>
</g>
</g>
<!-- Node19 -->
<g id="Node000019" class="node">
<title>Node19</title>
<g id="a_Node000019"><a xlink:title=" ">
<polygon fill="#e0e0e0" stroke="#999999" points="346.15,-17.75 298.65,-17.75 298.65,0 346.15,0 346.15,-17.75"/>
<text text-anchor="middle" x="322.4" y="-6.15" font-family="SourceSans" font-size="8.00">random</text>
</a>
</g>
</g>
<!-- Node17&#45;&gt;Node19 -->
<g id="edge21_Node000017_Node000019" class="edge">
<title>Node17&#45;&gt;Node19</title>
<g id="a_edge21_Node000017_Node000019"><a xlink:title=" ">
<path fill="none" stroke="#63b8ff" d="M218.4,-58.14C238.43,-48.85 271.04,-33.71 294.4,-22.87"/>
<polygon fill="#63b8ff" stroke="#63b8ff" points="295.75,-26.1 303.35,-18.72 292.8,-19.75 295.75,-26.1"/>
</a>
</g>
</g>
<!-- Node21&#45;&gt;Node5 -->
<g id="edge25_Node000021_Node000005" class="edge">
<title>Node21&#45;&gt;Node5</title>
<g id="a_edge25_Node000021_Node000005"><a xlink:title=" ">
<path fill="none" stroke="#63b8ff" d="M1238.72,-58.14C1246.52,-56.55 1254.71,-55 1262.4,-53.75 1386.34,-33.63 1534.66,-19.15 1602.39,-13.07"/>
<polygon fill="#63b8ff" stroke="#63b8ff" points="1602.53,-16.57 1612.18,-12.19 1601.91,-9.59 1602.53,-16.57"/>
</a>
</g>
</g>
<!-- Node22&#45;&gt;Node18 -->
<g id="edge27_Node000022_Node000018" class="edge">
<title>Node22&#45;&gt;Node18</title>
<g id="a_edge27_Node000022_Node000018"><a xlink:title=" ">
<path fill="none" stroke="#63b8ff" d="M294.43,-58.14C275.72,-48.93 245.37,-33.99 223.39,-23.17"/>
<polygon fill="#63b8ff" stroke="#63b8ff" points="224.94,-20.03 214.42,-18.75 221.85,-26.31 224.94,-20.03"/>
</a>
</g>
</g>
<!-- Node23 -->
<g id="Node000023" class="node">
<title>Node23</title>
<g id="a_Node000023"><a xlink:title=" ">
<polygon fill="#e0e0e0" stroke="#999999" points="280.9,-17.75 231.9,-17.75 231.9,0 280.9,0 280.9,-17.75"/>
<text text-anchor="middle" x="256.4" y="-6.15" font-family="SourceSans" font-size="8.00">ostream</text>
</a>
</g>
</g>
<!-- Node22&#45;&gt;Node23 -->
<g id="edge28_Node000022_Node000023" class="edge">
<title>Node22&#45;&gt;Node23</title>
<g id="a_edge28_Node000022_Node000023"><a xlink:title=" ">
<path fill="none" stroke="#63b8ff" d="M303.28,-58.14C295.07,-49.68 282.15,-36.39 271.96,-25.89"/>
<polygon fill="#63b8ff" stroke="#63b8ff" points="274.73,-23.72 265.25,-18.98 269.7,-28.6 274.73,-23.72"/>
</a>
</g>
</g>
<!-- Node24 -->
<g id="Node000024" class="node">
<title>Node24</title>
<g id="a_Node000024"><a xlink:title=" ">
<polygon fill="#e0e0e0" stroke="#999999" points="472.78,-17.75 426.03,-17.75 426.03,0 472.78,0 472.78,-17.75"/>
<text text-anchor="middle" x="449.4" y="-6.15" font-family="SourceSans" font-size="8.00">fstream</text>
</a>
</g>
</g>
<!-- Node22&#45;&gt;Node24 -->
<g id="edge29_Node000022_Node000024" class="edge">
<title>Node22&#45;&gt;Node24</title>
<g id="a_edge29_Node000022_Node000024"><a xlink:title=" ">
<path fill="none" stroke="#63b8ff" d="M331.76,-58.14C354.72,-48.72 392.3,-33.3 418.8,-22.43"/>
<polygon fill="#63b8ff" stroke="#63b8ff" points="420.08,-25.69 428,-18.65 417.42,-19.21 420.08,-25.69"/>
</a>
</g>
</g>
<!-- Node25 -->
<g id="Node000025" class="node">
<title>Node25</title>
<g id="a_Node000025"><a xlink:title=" ">
<polygon fill="#e0e0e0" stroke="#999999" points="408.28,-17.75 364.53,-17.75 364.53,0 408.28,0 408.28,-17.75"/>
<text text-anchor="middle" x="386.4" y="-6.15" font-family="SourceSans" font-size="8.00">cstdint</text>
</a>
</g>
</g>
<!-- Node22&#45;&gt;Node25 -->
<g id="edge30_Node000022_Node000025" class="edge">
<title>Node22&#45;&gt;Node25</title>
<g id="a_edge30_Node000022_Node000025"><a xlink:title=" ">
<path fill="none" stroke="#63b8ff" d="M322.47,-58.14C334.12,-49.35 352.7,-35.32 366.84,-24.64"/>
<polygon fill="#63b8ff" stroke="#63b8ff" points="368.69,-27.63 374.57,-18.81 364.48,-22.04 368.69,-27.63"/>
</a>
</g>
</g>
<!-- Node32&#45;&gt;Node8 -->
<g id="edge41_Node000032_Node000008" class="edge">
<title>Node32&#45;&gt;Node8</title>
<g id="a_edge41_Node000032_Node000008"><a xlink:title=" ">
<path fill="none" stroke="#63b8ff" d="M482.55,-76.81C490.24,-78.34 498.05,-79.88 505.4,-81.25 580.74,-95.3 668.67,-109.6 718.63,-117.9"/>
<polygon fill="#63b8ff" stroke="#63b8ff" points="717.96,-121.34 728.4,-119.53 719.11,-114.43 717.96,-121.34"/>
</a>
</g>
</g>
<!-- Node32&#45;&gt;Node19 -->
<g id="edge39_Node000032_Node000019" class="edge">
<title>Node32&#45;&gt;Node19</title>
<g id="a_edge39_Node000032_Node000019"><a xlink:title=" ">
<path fill="none" stroke="#63b8ff" d="M417.87,-58.14C399.65,-48.93 370.09,-33.99 348.69,-23.17"/>
<polygon fill="#63b8ff" stroke="#63b8ff" points="350.48,-20.15 339.98,-18.76 347.33,-26.4 350.48,-20.15"/>
</a>
</g>
</g>
<!-- Node32&#45;&gt;Node24 -->
<g id="edge38_Node000032_Node000024" class="edge">
<title>Node32&#45;&gt;Node24</title>
<g id="a_edge38_Node000032_Node000024"><a xlink:title=" ">
<path fill="none" stroke="#63b8ff" d="M436.61,-58.14C438.65,-50.45 441.75,-38.74 444.39,-28.79"/>
<polygon fill="#63b8ff" stroke="#63b8ff" points="447.71,-29.92 446.89,-19.36 440.94,-28.13 447.71,-29.92"/>
</a>
</g>
</g>
<!-- Node33 -->
<g id="Node000033" class="node">
<title>Node33</title>
<g id="a_Node000033"><a xlink:title=" ">
<polygon fill="#e0e0e0" stroke="#999999" points="539.9,-17.75 490.9,-17.75 490.9,0 539.9,0 539.9,-17.75"/>
<text text-anchor="middle" x="515.4" y="-6.15" font-family="SourceSans" font-size="8.00">unistd.h</text>
</a>
</g>
</g>
<!-- Node32&#45;&gt;Node33 -->
<g id="edge40_Node000032_Node000033" class="edge">
<title>Node32&#45;&gt;Node33</title>
<g id="a_edge40_Node000032_Node000033"><a xlink:title=" ">
<path fill="none" stroke="#63b8ff" d="M446.35,-58.14C458.99,-49.31 479.16,-35.21 494.45,-24.52"/>
<polygon fill="#63b8ff" stroke="#63b8ff" points="496.23,-27.55 502.42,-18.95 492.22,-21.81 496.23,-27.55"/>
</a>
</g>
</g>
</g>
</svg>

<g id="navigator" transform="translate(0 0)" fill="#404254">
  <rect fill="#f2f5e9" fill-opacity="0.5" stroke="#606060" stroke-width=".5" x="0" y="0" width="60" height="60"/>
  <use id="zoomplus" xlink:href="#zoomPlus" x="17" y="9" onmousedown="handleZoom(evt,'in')"/>
  <use id="zoomminus" xlink:href="#zoomMin" x="42" y="9" onmousedown="handleZoom(evt,'out')"/>
  <use id="reset" xlink:href="#resetDef" x="30" y="36" onmousedown="handleReset()"/>
   <use id="arrowup" xlink:href="#arrowUp" x="0" y="0" onmousedown="handlePan(0,-1)"/>
  <use id="arrowright" xlink:href="#arrowRight" x="0" y="0" onmousedown="handlePan(1,0)"/>
  <use id="arrowdown" xlink:href="#arrowDown" x="0" y="0" onmousedown="handlePan(0,1)"/>
  <use id="arrowleft" xlink:href="#arrowLeft" x="0" y="0" onmousedown="handlePan(-1,0)"/>
</g>
<svg viewBox="0 0 15 15" width="100%" height="30px" preserveAspectRatio="xMaxYMin meet">
 <g id="arrow_out" transform="scale(0.3 0.3)">
  <a xlink:href="a60-svg-radial_8h__incl_org.svg" target="_base">
   <rect id="button" ry="5" rx="5" y="6" x="6" height="38" width="38"
        fill="#f2f5e9" fill-opacity="0.5" stroke="#606060" stroke-width="1.0"/>
   <path id="arrow"
     d="M 11.500037,31.436501 C 11.940474,20.09759 22.043105,11.32322 32.158766,21.979434 L 37.068811,17.246167 C 37.068811,17.246167 37.088388,32 37.088388,32 L 22.160133,31.978069 C 22.160133,31.978069 26.997745,27.140456 26.997745,27.140456 C 18.528582,18.264221 13.291696,25.230495 11.500037,31.436501 z"
     style="fill:#404040;"/>
  </a>
 </g>
</svg>

<style type='text/css'>
<![CDATA[
[data-mouse-over-selected='false'] { opacity: 0.7; }
[data-mouse-over-selected='true']  { opacity: 1.0; }
]]>
</style>
<script type="application/ecmascript"><![CDATA[
document.addEventListener('DOMContentLoaded', (event) => {
  highlightEdges();
  highlightAdjacentNodes();
});
]]></script>
</svg>
