<?xml version="1.0" encoding="UTF-8" standalone="no"?>
<!DOCTYPE svg PUBLIC "-//W3C//DTD SVG 1.1//EN"
 "http://www.w3.org/Graphics/SVG/1.1/DTD/svg11.dtd">
<!-- Generated by graphviz version 13.1.2 (20250808.2320)
 -->
<!-- Title: /home/bkoz/src/izzi/src/a60&#45;svg&#45;linear.h Pages: 1 -->
<svg width="1953pt" height="288pt"
 viewBox="0.00 0.00 1953.00 288.00" xmlns="http://www.w3.org/2000/svg" xmlns:xlink="http://www.w3.org/1999/xlink">
<g id="graph0" class="graph" transform="scale(1 1) rotate(0) translate(4 284)">
<title>/home/bkoz/src/izzi/src/a60&#45;svg&#45;linear.h</title>
<!-- Node1 -->
<g id="Node000001" class="node">
<title>Node1</title>
<g id="a_Node000001"><a xlink:title=" ">
<polygon fill="#999999" stroke="#666666" points="855.12,-280 763.38,-280 763.38,-248 855.12,-248 855.12,-280"/>
<text xml:space="preserve" text-anchor="start" x="771.38" y="-268.4" font-family="SourceSans" font-size="8.00">/home/bkoz/src/izzi</text>
<text xml:space="preserve" text-anchor="middle" x="809.25" y="-256.4" font-family="SourceSans" font-size="8.00">/src/a60&#45;svg&#45;linear.h</text>
</a>
</g>
</g>
<!-- Node2 -->
<g id="Node000002" class="node">
<title>Node2</title>
<g id="a_Node000002"><a xlink:href="a60-svg_8h.html" target="_top" xlink:title=" ">
<polygon fill="white" stroke="#666666" points="835.25,-212 783.25,-212 783.25,-192 835.25,-192 835.25,-212"/>
<text xml:space="preserve" text-anchor="middle" x="809.25" y="-200.4" font-family="SourceSans" font-size="8.00">a60&#45;svg.h</text>
</a>
</g>
</g>
<!-- Node1&#45;&gt;Node2 -->
<g id="edge1_Node000001_Node000002" class="edge">
<title>Node1&#45;&gt;Node2</title>
<g id="a_edge1_Node000001_Node000002"><a xlink:title=" ">
<path fill="none" stroke="#63b8ff" d="M809.25,-247.55C809.25,-240.34 809.25,-231.66 809.25,-223.88"/>
<polygon fill="#63b8ff" stroke="#63b8ff" points="812.75,-223.92 809.25,-213.92 805.75,-223.92 812.75,-223.92"/>
</a>
</g>
</g>
<!-- Node3 -->
<g id="Node000003" class="node">
<title>Node3</title>
<g id="a_Node000003"><a xlink:title=" ">
<polygon fill="#e0e0e0" stroke="#999999" points="44.5,-150 0,-150 0,-130 44.5,-130 44.5,-150"/>
<text xml:space="preserve" text-anchor="middle" x="22.25" y="-138.4" font-family="SourceSans" font-size="8.00">cstddef</text>
</a>
</g>
</g>
<!-- Node2&#45;&gt;Node3 -->
<g id="edge2_Node000002_Node000003" class="edge">
<title>Node2&#45;&gt;Node3</title>
<g id="a_edge2_Node000002_Node000003"><a xlink:title=" ">
<path fill="none" stroke="#63b8ff" d="M782.89,-200.6C666.78,-198.65 200.46,-188.9 58.25,-156 56.26,-155.54 54.24,-154.98 52.22,-154.35"/>
<polygon fill="#63b8ff" stroke="#63b8ff" points="53.68,-151.16 43.08,-151 51.27,-157.73 53.68,-151.16"/>
</a>
</g>
</g>
<!-- Node4 -->
<g id="Node000004" class="node">
<title>Node4</title>
<g id="a_Node000004"><a xlink:title=" ">
<polygon fill="#e0e0e0" stroke="#999999" points="74.25,-20 34.25,-20 34.25,0 74.25,0 74.25,-20"/>
<text xml:space="preserve" text-anchor="middle" x="54.25" y="-8.4" font-family="SourceSans" font-size="8.00">cmath</text>
</a>
</g>
</g>
<!-- Node2&#45;&gt;Node4 -->
<g id="edge3_Node000002_Node000004" class="edge">
<title>Node2&#45;&gt;Node4</title>
<g id="a_edge3_Node000002_Node000004"><a xlink:title=" ">
<path fill="none" stroke="#63b8ff" d="M783.02,-200.52C668.02,-198.22 211.56,-187.18 156.25,-156 106.1,-127.73 74.79,-63.37 61.55,-30.75"/>
<polygon fill="#63b8ff" stroke="#63b8ff" points="64.92,-29.76 58.04,-21.7 58.4,-32.29 64.92,-29.76"/>
</a>
</g>
</g>
<!-- Node5 -->
<g id="Node000005" class="node">
<title>Node5</title>
<g id="a_Node000005"><a xlink:title=" ">
<polygon fill="#e0e0e0" stroke="#999999" points="538,-82 484.5,-82 484.5,-62 538,-62 538,-82"/>
<text xml:space="preserve" text-anchor="middle" x="511.25" y="-70.4" font-family="SourceSans" font-size="8.00">algorithm</text>
</a>
</g>
</g>
<!-- Node2&#45;&gt;Node5 -->
<g id="edge4_Node000002_Node000005" class="edge">
<title>Node2&#45;&gt;Node5</title>
<g id="a_edge4_Node000002_Node000005"><a xlink:title=" ">
<path fill="none" stroke="#63b8ff" d="M782.96,-201.22C716.5,-201.17 544.56,-197 509.25,-156 494.51,-138.89 498.56,-111.63 503.93,-93.06"/>
<polygon fill="#63b8ff" stroke="#63b8ff" points="507.19,-94.33 506.98,-83.74 500.54,-92.15 507.19,-94.33"/>
</a>
</g>
</g>
<!-- Node6 -->
<g id="Node000006" class="node">
<title>Node6</title>
<g id="a_Node000006"><a xlink:title=" ">
<polygon fill="#e0e0e0" stroke="#999999" points="868.62,-150 833.88,-150 833.88,-130 868.62,-130 868.62,-150"/>
<text xml:space="preserve" text-anchor="middle" x="851.25" y="-138.4" font-family="SourceSans" font-size="8.00">array</text>
</a>
</g>
</g>
<!-- Node2&#45;&gt;Node6 -->
<g id="edge5_Node000002_Node000006" class="edge">
<title>Node2&#45;&gt;Node6</title>
<g id="a_edge5_Node000002_Node000006"><a xlink:title=" ">
<path fill="none" stroke="#63b8ff" d="M815.81,-191.62C821.83,-183.03 830.9,-170.07 838.36,-159.41"/>
<polygon fill="#63b8ff" stroke="#63b8ff" points="841.14,-161.55 844,-151.35 835.4,-157.54 841.14,-161.55"/>
</a>
</g>
</g>
<!-- Node7 -->
<g id="Node000007" class="node">
<title>Node7</title>
<g id="a_Node000007"><a xlink:title=" ">
<polygon fill="#e0e0e0" stroke="#999999" points="128.38,-20 92.12,-20 92.12,0 128.38,0 128.38,-20"/>
<text xml:space="preserve" text-anchor="middle" x="110.25" y="-8.4" font-family="SourceSans" font-size="8.00">tuple</text>
</a>
</g>
</g>
<!-- Node2&#45;&gt;Node7 -->
<g id="edge6_Node000002_Node000007" class="edge">
<title>Node2&#45;&gt;Node7</title>
<g id="a_edge6_Node000002_Node000007"><a xlink:title=" ">
<path fill="none" stroke="#63b8ff" d="M782.96,-200.52C671.79,-198.31 243.72,-187.78 193.25,-156 147.54,-127.22 124.41,-63.59 115.2,-31.04"/>
<polygon fill="#63b8ff" stroke="#63b8ff" points="118.67,-30.45 112.72,-21.68 111.9,-32.24 118.67,-30.45"/>
</a>
</g>
</g>
<!-- Node8 -->
<g id="Node000008" class="node">
<title>Node8</title>
<g id="a_Node000008"><a xlink:title=" ">
<polygon fill="#e0e0e0" stroke="#999999" points="925.5,-150 887,-150 887,-130 925.5,-130 925.5,-150"/>
<text xml:space="preserve" text-anchor="middle" x="906.25" y="-138.4" font-family="SourceSans" font-size="8.00">string</text>
</a>
</g>
</g>
<!-- Node2&#45;&gt;Node8 -->
<g id="edge7_Node000002_Node000008" class="edge">
<title>Node2&#45;&gt;Node8</title>
<g id="a_edge7_Node000002_Node000008"><a xlink:title=" ">
<path fill="none" stroke="#63b8ff" d="M824.41,-191.62C839.71,-182.16 863.6,-167.38 881.63,-156.23"/>
<polygon fill="#63b8ff" stroke="#63b8ff" points="883.25,-159.34 889.91,-151.11 879.57,-153.39 883.25,-159.34"/>
</a>
</g>
</g>
<!-- Node9 -->
<g id="Node000009" class="node">
<title>Node9</title>
<g id="a_Node000009"><a xlink:title=" ">
<polygon fill="#e0e0e0" stroke="#999999" points="184.5,-20 146,-20 146,0 184.5,0 184.5,-20"/>
<text xml:space="preserve" text-anchor="middle" x="165.25" y="-8.4" font-family="SourceSans" font-size="8.00">vector</text>
</a>
</g>
</g>
<!-- Node2&#45;&gt;Node9 -->
<g id="edge8_Node000002_Node000009" class="edge">
<title>Node2&#45;&gt;Node9</title>
<g id="a_edge8_Node000002_Node000009"><a xlink:title=" ">
<path fill="none" stroke="#63b8ff" d="M783.05,-200.47C689.08,-198.3 369.42,-188.63 273.25,-156 220.25,-138.02 194.73,-136.76 167.25,-88 157.52,-70.73 158.39,-47.65 160.84,-31.27"/>
<polygon fill="#63b8ff" stroke="#63b8ff" points="164.22,-32.22 162.6,-21.75 157.34,-30.95 164.22,-32.22"/>
</a>
</g>
</g>
<!-- Node10 -->
<g id="Node000010" class="node">
<title>Node10</title>
<g id="a_Node000010"><a xlink:title=" ">
<polygon fill="#e0e0e0" stroke="#999999" points="972.65,-150 943.85,-150 943.85,-130 972.65,-130 972.65,-150"/>
<text xml:space="preserve" text-anchor="middle" x="958.25" y="-138.4" font-family="SourceSans" font-size="8.00">set</text>
</a>
</g>
</g>
<!-- Node2&#45;&gt;Node10 -->
<g id="edge9_Node000002_Node000010" class="edge">
<title>Node2&#45;&gt;Node10</title>
<g id="a_edge9_Node000002_Node000010"><a xlink:title=" ">
<path fill="none" stroke="#63b8ff" d="M835.28,-193.41C861.03,-185.5 901.26,-172.02 934.25,-156 934.35,-155.95 934.46,-155.9 934.57,-155.85"/>
<polygon fill="#63b8ff" stroke="#63b8ff" points="935.97,-159.07 943,-151.14 932.56,-152.96 935.97,-159.07"/>
</a>
</g>
</g>
<!-- Node11 -->
<g id="Node000011" class="node">
<title>Node11</title>
<g id="a_Node000011"><a xlink:title=" ">
<polygon fill="#e0e0e0" stroke="#999999" points="1068,-150 990.5,-150 990.5,-130 1068,-130 1068,-150"/>
<text xml:space="preserve" text-anchor="middle" x="1029.25" y="-138.4" font-family="SourceSans" font-size="8.00">unordered_map</text>
</a>
</g>
</g>
<!-- Node2&#45;&gt;Node11 -->
<g id="edge10_Node000002_Node000011" class="edge">
<title>Node2&#45;&gt;Node11</title>
<g id="a_edge10_Node000002_Node000011"><a xlink:title=" ">
<path fill="none" stroke="#63b8ff" d="M835.58,-194.52C869.42,-186.1 929.92,-170.73 981.25,-156 983.8,-155.27 986.42,-154.5 989.06,-153.71"/>
<polygon fill="#63b8ff" stroke="#63b8ff" points="989.87,-157.12 998.42,-150.86 987.84,-150.43 989.87,-157.12"/>
</a>
</g>
</g>
<!-- Node12 -->
<g id="Node000012" class="node">
<title>Node12</title>
<g id="a_Node000012"><a xlink:title=" ">
<polygon fill="#e0e0e0" stroke="#999999" points="1132.25,-150 1086.25,-150 1086.25,-130 1132.25,-130 1132.25,-150"/>
<text xml:space="preserve" text-anchor="middle" x="1109.25" y="-138.4" font-family="SourceSans" font-size="8.00">sstream</text>
</a>
</g>
</g>
<!-- Node2&#45;&gt;Node12 -->
<g id="edge11_Node000002_Node000012" class="edge">
<title>Node2&#45;&gt;Node12</title>
<g id="a_edge11_Node000002_Node000012"><a xlink:title=" ">
<path fill="none" stroke="#63b8ff" d="M835.67,-198.96C884.38,-194.68 991.23,-182.83 1077.25,-156 1078.42,-155.63 1079.61,-155.23 1080.79,-154.81"/>
<polygon fill="#63b8ff" stroke="#63b8ff" points="1082.02,-158.09 1089.92,-151.03 1079.34,-151.62 1082.02,-158.09"/>
</a>
</g>
</g>
<!-- Node13 -->
<g id="Node000013" class="node">
<title>Node13</title>
<g id="a_Node000013"><a xlink:href="a60-svg-color_8h.html" target="_top" xlink:title=" ">
<polygon fill="white" stroke="#666666" points="590,-150 518.5,-150 518.5,-130 590,-130 590,-150"/>
<text xml:space="preserve" text-anchor="middle" x="554.25" y="-138.4" font-family="SourceSans" font-size="8.00">a60&#45;svg&#45;color.h</text>
</a>
</g>
</g>
<!-- Node2&#45;&gt;Node13 -->
<g id="edge12_Node000002_Node000013" class="edge">
<title>Node2&#45;&gt;Node13</title>
<g id="a_edge12_Node000002_Node000013"><a xlink:title=" ">
<path fill="none" stroke="#63b8ff" d="M782.83,-196.31C742.81,-188.99 664.54,-173.82 599.25,-156 596.7,-155.3 594.09,-154.55 591.46,-153.76"/>
<polygon fill="#63b8ff" stroke="#63b8ff" points="592.78,-150.5 582.19,-150.83 590.68,-157.18 592.78,-150.5"/>
</a>
</g>
</g>
<!-- Node17 -->
<g id="Node000017" class="node">
<title>Node17</title>
<g id="a_Node000017"><a xlink:href="a60-svg-color-palette_8h.html" target="_top" xlink:title=" ">
<polygon fill="white" stroke="#666666" points="1252,-150 1150.5,-150 1150.5,-130 1252,-130 1252,-150"/>
<text xml:space="preserve" text-anchor="middle" x="1201.25" y="-138.4" font-family="SourceSans" font-size="8.00">a60&#45;svg&#45;color&#45;palette.h</text>
</a>
</g>
</g>
<!-- Node2&#45;&gt;Node17 -->
<g id="edge17_Node000002_Node000017" class="edge">
<title>Node2&#45;&gt;Node17</title>
<g id="a_edge17_Node000002_Node000017"><a xlink:title=" ">
<path fill="none" stroke="#63b8ff" d="M835.66,-198.42C892.09,-192.69 1028.44,-177.68 1141.25,-156 1145.82,-155.12 1150.56,-154.11 1155.28,-153.04"/>
<polygon fill="#63b8ff" stroke="#63b8ff" points="1155.78,-156.52 1164.7,-150.81 1154.17,-149.71 1155.78,-156.52"/>
</a>
</g>
</g>
<!-- Node18 -->
<g id="Node000018" class="node">
<title>Node18</title>
<g id="a_Node000018"><a xlink:href="a60-svg-color-band_8h.html" target="_top" xlink:title=" ">
<polygon fill="white" stroke="#666666" points="270.62,-82 175.88,-82 175.88,-62 270.62,-62 270.62,-82"/>
<text xml:space="preserve" text-anchor="middle" x="223.25" y="-70.4" font-family="SourceSans" font-size="8.00">a60&#45;svg&#45;color&#45;band.h</text>
</a>
</g>
</g>
<!-- Node2&#45;&gt;Node18 -->
<g id="edge18_Node000002_Node000018" class="edge">
<title>Node2&#45;&gt;Node18</title>
<g id="a_edge18_Node000002_Node000018"><a xlink:title=" ">
<path fill="none" stroke="#63b8ff" d="M782.82,-200.53C694.46,-198.67 410.23,-190.09 326.25,-156 290.61,-141.53 257.52,-110.47 238.9,-90.72"/>
<polygon fill="#63b8ff" stroke="#63b8ff" points="241.54,-88.43 232.21,-83.41 236.38,-93.15 241.54,-88.43"/>
</a>
</g>
</g>
<!-- Node20 -->
<g id="Node000020" class="node">
<title>Node20</title>
<g id="a_Node000020"><a xlink:href="izzi-points_8h.html" target="_top" xlink:title=" ">
<polygon fill="white" stroke="#666666" points="1332.12,-150 1270.38,-150 1270.38,-130 1332.12,-130 1332.12,-150"/>
<text xml:space="preserve" text-anchor="middle" x="1301.25" y="-138.4" font-family="SourceSans" font-size="8.00">izzi&#45;points.h</text>
</a>
</g>
</g>
<!-- Node2&#45;&gt;Node20 -->
<g id="edge20_Node000002_Node000020" class="edge">
<title>Node2&#45;&gt;Node20</title>
<g id="a_edge20_Node000002_Node000020"><a xlink:title=" ">
<path fill="none" stroke="#63b8ff" d="M835.62,-200.75C905.82,-199.58 1102.66,-192.97 1261.25,-156 1263.56,-155.46 1265.92,-154.82 1268.28,-154.12"/>
<polygon fill="#63b8ff" stroke="#63b8ff" points="1269.35,-157.45 1277.71,-150.94 1267.11,-150.82 1269.35,-157.45"/>
</a>
</g>
</g>
<!-- Node21 -->
<g id="Node000021" class="node">
<title>Node21</title>
<g id="a_Node000021"><a xlink:href="a60-svg-base-types_8h.html" target="_top" xlink:title=" ">
<polygon fill="white" stroke="#666666" points="702.62,-150 607.88,-150 607.88,-130 702.62,-130 702.62,-150"/>
<text xml:space="preserve" text-anchor="middle" x="655.25" y="-138.4" font-family="SourceSans" font-size="8.00">a60&#45;svg&#45;base&#45;types.h</text>
</a>
</g>
</g>
<!-- Node2&#45;&gt;Node21 -->
<g id="edge21_Node000002_Node000021" class="edge">
<title>Node2&#45;&gt;Node21</title>
<g id="a_edge21_Node000002_Node000021"><a xlink:title=" ">
<path fill="none" stroke="#63b8ff" d="M785.19,-191.62C759.61,-181.66 718.92,-165.81 689.9,-154.5"/>
<polygon fill="#63b8ff" stroke="#63b8ff" points="691.4,-151.33 680.81,-150.96 688.85,-157.85 691.4,-151.33"/>
</a>
</g>
</g>
<!-- Node25 -->
<g id="Node000025" class="node">
<title>Node25</title>
<g id="a_Node000025"><a xlink:href="a60-svg-constants_8h.html" target="_top" xlink:title=" ">
<polygon fill="white" stroke="#666666" points="1440.75,-150 1349.75,-150 1349.75,-130 1440.75,-130 1440.75,-150"/>
<text xml:space="preserve" text-anchor="middle" x="1395.25" y="-138.4" font-family="SourceSans" font-size="8.00">a60&#45;svg&#45;constants.h</text>
</a>
</g>
</g>
<!-- Node2&#45;&gt;Node25 -->
<g id="edge26_Node000002_Node000025" class="edge">
<title>Node2&#45;&gt;Node25</title>
<g id="a_edge26_Node000002_Node000025"><a xlink:title=" ">
<path fill="none" stroke="#63b8ff" d="M835.49,-200.51C913.29,-198.68 1149.21,-190.48 1341.25,-156 1345.37,-155.26 1349.63,-154.35 1353.87,-153.33"/>
<polygon fill="#63b8ff" stroke="#63b8ff" points="1354.64,-156.75 1363.46,-150.87 1352.9,-149.97 1354.64,-156.75"/>
</a>
</g>
</g>
<!-- Node26 -->
<g id="Node000026" class="node">
<title>Node26</title>
<g id="a_Node000026"><a xlink:href="a60-svg-elements_8h.html" target="_top" xlink:title=" ">
<polygon fill="white" stroke="#666666" points="1548,-150 1458.5,-150 1458.5,-130 1548,-130 1548,-150"/>
<text xml:space="preserve" text-anchor="middle" x="1503.25" y="-138.4" font-family="SourceSans" font-size="8.00">a60&#45;svg&#45;elements.h</text>
</a>
</g>
</g>
<!-- Node2&#45;&gt;Node26 -->
<g id="edge27_Node000002_Node000026" class="edge">
<title>Node2&#45;&gt;Node26</title>
<g id="a_edge27_Node000002_Node000026"><a xlink:title=" ">
<path fill="none" stroke="#63b8ff" d="M835.74,-201.08C923.8,-200.94 1214.53,-197.18 1450.25,-156 1454.35,-155.28 1458.6,-154.38 1462.81,-153.36"/>
<polygon fill="#63b8ff" stroke="#63b8ff" points="1463.53,-156.79 1472.32,-150.88 1461.76,-150.02 1463.53,-156.79"/>
</a>
</g>
</g>
<!-- Node27 -->
<g id="Node000027" class="node">
<title>Node27</title>
<g id="a_Node000027"><a xlink:href="a60-svg-elements-components_8h.html" target="_top" xlink:title=" ">
<polygon fill="white" stroke="#666666" points="1704.75,-150 1565.75,-150 1565.75,-130 1704.75,-130 1704.75,-150"/>
<text xml:space="preserve" text-anchor="middle" x="1635.25" y="-138.4" font-family="SourceSans" font-size="8.00">a60&#45;svg&#45;elements&#45;components.h</text>
</a>
</g>
</g>
<!-- Node2&#45;&gt;Node27 -->
<g id="edge28_Node000002_Node000027" class="edge">
<title>Node2&#45;&gt;Node27</title>
<g id="a_edge28_Node000002_Node000027"><a xlink:title=" ">
<path fill="none" stroke="#63b8ff" d="M835.53,-200.65C932.08,-199.11 1276.18,-191.33 1557.25,-156 1564.7,-155.06 1572.5,-153.85 1580.18,-152.51"/>
<polygon fill="#63b8ff" stroke="#63b8ff" points="1580.57,-156 1589.78,-150.76 1579.32,-149.11 1580.57,-156"/>
</a>
</g>
</g>
<!-- Node28 -->
<g id="Node000028" class="node">
<title>Node28</title>
<g id="a_Node000028"><a xlink:href="a60-svg-render-state_8h.html" target="_top" xlink:title=" ">
<polygon fill="white" stroke="#666666" points="1823.62,-150 1722.88,-150 1722.88,-130 1823.62,-130 1823.62,-150"/>
<text xml:space="preserve" text-anchor="middle" x="1773.25" y="-138.4" font-family="SourceSans" font-size="8.00">a60&#45;svg&#45;render&#45;state.h</text>
</a>
</g>
</g>
<!-- Node2&#45;&gt;Node28 -->
<g id="edge29_Node000002_Node000028" class="edge">
<title>Node2&#45;&gt;Node28</title>
<g id="a_edge29_Node000002_Node000028"><a xlink:title=" ">
<path fill="none" stroke="#63b8ff" d="M835.51,-200.4C965.2,-197.33 1538.08,-182.5 1714.25,-156 1719.46,-155.22 1724.88,-154.17 1730.23,-152.99"/>
<polygon fill="#63b8ff" stroke="#63b8ff" points="1730.63,-156.49 1739.55,-150.78 1729.02,-149.68 1730.63,-156.49"/>
</a>
</g>
</g>
<!-- Node29 -->
<g id="Node000029" class="node">
<title>Node29</title>
<g id="a_Node000029"><a xlink:href="a60-svg-render-basics_8h.html" target="_top" xlink:title=" ">
<polygon fill="white" stroke="#666666" points="461.88,-150 356.62,-150 356.62,-130 461.88,-130 461.88,-150"/>
<text xml:space="preserve" text-anchor="middle" x="409.25" y="-138.4" font-family="SourceSans" font-size="8.00">a60&#45;svg&#45;render&#45;basics.h</text>
</a>
</g>
</g>
<!-- Node2&#45;&gt;Node29 -->
<g id="edge30_Node000002_Node000029" class="edge">
<title>Node2&#45;&gt;Node29</title>
<g id="a_edge30_Node000002_Node000029"><a xlink:title=" ">
<path fill="none" stroke="#63b8ff" d="M782.8,-198.21C726.28,-192.07 589.66,-176.32 476.25,-156 470.96,-155.05 465.45,-153.97 459.96,-152.84"/>
<polygon fill="#63b8ff" stroke="#63b8ff" points="460.81,-149.44 450.3,-150.77 459.34,-156.28 460.81,-149.44"/>
</a>
</g>
</g>
<!-- Node36 -->
<g id="Node000036" class="node">
<title>Node36</title>
<g id="a_Node000036"><a xlink:href="a60-svg-composite-and-layer-basics_8h.html" target="_top" xlink:title=" ">
<polygon fill="white" stroke="#666666" points="1944.75,-156 1841.75,-156 1841.75,-124 1944.75,-124 1944.75,-156"/>
<text xml:space="preserve" text-anchor="start" x="1849.75" y="-144.4" font-family="SourceSans" font-size="8.00">a60&#45;svg&#45;composite&#45;and</text>
<text xml:space="preserve" text-anchor="middle" x="1893.25" y="-132.4" font-family="SourceSans" font-size="8.00">&#45;layer&#45;basics.h</text>
</a>
</g>
</g>
<!-- Node2&#45;&gt;Node36 -->
<g id="edge43_Node000002_Node000036" class="edge">
<title>Node2&#45;&gt;Node36</title>
<g id="a_edge43_Node000002_Node000036"><a xlink:title=" ">
<path fill="none" stroke="#63b8ff" d="M835.63,-200.54C973.08,-198.06 1609.15,-185.27 1830.32,-156.01"/>
<polygon fill="#63b8ff" stroke="#63b8ff" points="1830.55,-159.51 1839.97,-154.68 1829.59,-152.58 1830.55,-159.51"/>
</a>
</g>
</g>
<!-- Node37 -->
<g id="Node000037" class="node">
<title>Node37</title>
<g id="a_Node000037"><a xlink:href="a60-svg-sequences_8h.html" target="_top" xlink:title=" ">
<polygon fill="white" stroke="#666666" points="815.62,-150 720.88,-150 720.88,-130 815.62,-130 815.62,-150"/>
<text xml:space="preserve" text-anchor="middle" x="768.25" y="-138.4" font-family="SourceSans" font-size="8.00">a60&#45;svg&#45;sequences.h</text>
</a>
</g>
</g>
<!-- Node2&#45;&gt;Node37 -->
<g id="edge44_Node000002_Node000037" class="edge">
<title>Node2&#45;&gt;Node37</title>
<g id="a_edge44_Node000002_Node000037"><a xlink:title=" ">
<path fill="none" stroke="#63b8ff" d="M797.78,-191.62C790.35,-183.21 781.31,-170.6 774.95,-160.07"/>
<polygon fill="#63b8ff" stroke="#63b8ff" points="778.08,-158.51 770.2,-151.44 771.95,-161.89 778.08,-158.51"/>
</a>
</g>
</g>
<!-- Node13&#45;&gt;Node5 -->
<g id="edge14_Node000013_Node000005" class="edge">
<title>Node13&#45;&gt;Node5</title>
<g id="a_edge14_Node000013_Node000005"><a xlink:title=" ">
<path fill="none" stroke="#63b8ff" d="M548.09,-129.54C541.7,-119.74 531.55,-104.16 523.52,-91.83"/>
<polygon fill="#63b8ff" stroke="#63b8ff" points="526.62,-90.17 518.23,-83.71 520.75,-94 526.62,-90.17"/>
</a>
</g>
</g>
<!-- Node14 -->
<g id="Node000014" class="node">
<title>Node14</title>
<g id="a_Node000014"><a xlink:title=" ">
<polygon fill="#e0e0e0" stroke="#999999" points="654.88,-82 621.62,-82 621.62,-62 654.88,-62 654.88,-82"/>
<text xml:space="preserve" text-anchor="middle" x="638.25" y="-70.4" font-family="SourceSans" font-size="8.00">map</text>
</a>
</g>
</g>
<!-- Node13&#45;&gt;Node14 -->
<g id="edge13_Node000013_Node000014" class="edge">
<title>Node13&#45;&gt;Node14</title>
<g id="a_edge13_Node000013_Node000014"><a xlink:title=" ">
<path fill="none" stroke="#63b8ff" d="M566.29,-129.54C579.63,-119.06 601.41,-101.95 617.52,-89.29"/>
<polygon fill="#63b8ff" stroke="#63b8ff" points="619.35,-92.3 625.05,-83.37 615.02,-86.8 619.35,-92.3"/>
</a>
</g>
</g>
<!-- Node15 -->
<g id="Node000015" class="node">
<title>Node15</title>
<g id="a_Node000015"><a xlink:title=" ">
<polygon fill="#e0e0e0" stroke="#999999" points="783.25,-82 737.25,-82 737.25,-62 783.25,-62 783.25,-82"/>
<text xml:space="preserve" text-anchor="middle" x="760.25" y="-70.4" font-family="SourceSans" font-size="8.00">random</text>
</a>
</g>
</g>
<!-- Node13&#45;&gt;Node15 -->
<g id="edge15_Node000013_Node000015" class="edge">
<title>Node13&#45;&gt;Node15</title>
<g id="a_edge15_Node000013_Node000015"><a xlink:title=" ">
<path fill="none" stroke="#63b8ff" d="M581.79,-129.58C587.54,-127.68 593.58,-125.73 599.25,-124 656.17,-106.58 672.44,-108.7 728.25,-88 729.21,-87.65 730.17,-87.27 731.15,-86.89"/>
<polygon fill="#63b8ff" stroke="#63b8ff" points="732.33,-90.19 740.13,-83.01 729.56,-83.76 732.33,-90.19"/>
</a>
</g>
</g>
<!-- Node16 -->
<g id="Node000016" class="node">
<title>Node16</title>
<g id="a_Node000016"><a xlink:title=" ">
<polygon fill="#e0e0e0" stroke="#999999" points="604,-82 556.5,-82 556.5,-62 604,-62 604,-82"/>
<text xml:space="preserve" text-anchor="middle" x="580.25" y="-70.4" font-family="SourceSans" font-size="8.00">iomanip</text>
</a>
</g>
</g>
<!-- Node13&#45;&gt;Node16 -->
<g id="edge16_Node000013_Node000016" class="edge">
<title>Node13&#45;&gt;Node16</title>
<g id="a_edge16_Node000013_Node000016"><a xlink:title=" ">
<path fill="none" stroke="#63b8ff" d="M557.98,-129.54C561.72,-120.04 567.61,-105.09 572.39,-92.95"/>
<polygon fill="#63b8ff" stroke="#63b8ff" points="575.57,-94.43 575.98,-83.85 569.06,-91.87 575.57,-94.43"/>
</a>
</g>
</g>
<!-- Node19 -->
<g id="Node000019" class="node">
<title>Node19</title>
<g id="a_Node000019"><a xlink:title=" ">
<polygon fill="#e0e0e0" stroke="#999999" points="251.75,-20 202.75,-20 202.75,0 251.75,0 251.75,-20"/>
<text xml:space="preserve" text-anchor="middle" x="227.25" y="-8.4" font-family="SourceSans" font-size="8.00">iostream</text>
</a>
</g>
</g>
<!-- Node18&#45;&gt;Node19 -->
<g id="edge19_Node000018_Node000019" class="edge">
<title>Node18&#45;&gt;Node19</title>
<g id="a_edge19_Node000018_Node000019"><a xlink:title=" ">
<path fill="none" stroke="#63b8ff" d="M223.88,-61.62C224.41,-53.56 225.21,-41.65 225.89,-31.41"/>
<polygon fill="#63b8ff" stroke="#63b8ff" points="229.37,-31.83 226.54,-21.62 222.38,-31.37 229.37,-31.83"/>
</a>
</g>
</g>
<!-- Node21&#45;&gt;Node14 -->
<g id="edge22_Node000021_Node000014" class="edge">
<title>Node21&#45;&gt;Node14</title>
<g id="a_edge22_Node000021_Node000014"><a xlink:title=" ">
<path fill="none" stroke="#63b8ff" d="M652.81,-129.54C650.39,-120.13 646.59,-105.39 643.48,-93.32"/>
<polygon fill="#63b8ff" stroke="#63b8ff" points="646.94,-92.72 641.06,-83.9 640.16,-94.46 646.94,-92.72"/>
</a>
</g>
</g>
<!-- Node22 -->
<g id="Node000022" class="node">
<title>Node22</title>
<g id="a_Node000022"><a xlink:title=" ">
<polygon fill="#e0e0e0" stroke="#999999" points="719.62,-82 672.88,-82 672.88,-62 719.62,-62 719.62,-82"/>
<text xml:space="preserve" text-anchor="middle" x="696.25" y="-70.4" font-family="SourceSans" font-size="8.00">ostream</text>
</a>
</g>
</g>
<!-- Node21&#45;&gt;Node22 -->
<g id="edge23_Node000021_Node000022" class="edge">
<title>Node21&#45;&gt;Node22</title>
<g id="a_edge23_Node000021_Node000022"><a xlink:title=" ">
<path fill="none" stroke="#63b8ff" d="M661.12,-129.54C667.15,-119.84 676.7,-104.47 684.32,-92.2"/>
<polygon fill="#63b8ff" stroke="#63b8ff" points="687.28,-94.07 689.59,-83.72 681.34,-90.37 687.28,-94.07"/>
</a>
</g>
</g>
<!-- Node23 -->
<g id="Node000023" class="node">
<title>Node23</title>
<g id="a_Node000023"><a xlink:title=" ">
<polygon fill="#e0e0e0" stroke="#999999" points="906.88,-82 861.62,-82 861.62,-62 906.88,-62 906.88,-82"/>
<text xml:space="preserve" text-anchor="middle" x="884.25" y="-70.4" font-family="SourceSans" font-size="8.00">fstream</text>
</a>
</g>
</g>
<!-- Node21&#45;&gt;Node23 -->
<g id="edge24_Node000021_Node000023" class="edge">
<title>Node21&#45;&gt;Node23</title>
<g id="a_edge24_Node000021_Node000023"><a xlink:title=" ">
<path fill="none" stroke="#63b8ff" d="M691.12,-129.53C698.13,-127.69 705.42,-125.78 712.25,-124 774.43,-107.82 791.79,-109.73 852.25,-88 853.21,-87.66 854.18,-87.29 855.16,-86.91"/>
<polygon fill="#63b8ff" stroke="#63b8ff" points="856.33,-90.22 864.15,-83.07 853.58,-83.78 856.33,-90.22"/>
</a>
</g>
</g>
<!-- Node24 -->
<g id="Node000024" class="node">
<title>Node24</title>
<g id="a_Node000024"><a xlink:title=" ">
<polygon fill="#e0e0e0" stroke="#999999" points="843.38,-82 801.12,-82 801.12,-62 843.38,-62 843.38,-82"/>
<text xml:space="preserve" text-anchor="middle" x="822.25" y="-70.4" font-family="SourceSans" font-size="8.00">cstdint</text>
</a>
</g>
</g>
<!-- Node21&#45;&gt;Node24 -->
<g id="edge25_Node000021_Node000024" class="edge">
<title>Node21&#45;&gt;Node24</title>
<g id="a_edge25_Node000021_Node000024"><a xlink:title=" ">
<path fill="none" stroke="#63b8ff" d="M683.41,-129.51C711.36,-119.86 755.24,-104.09 792.25,-88 792.87,-87.73 793.49,-87.46 794.12,-87.18"/>
<polygon fill="#63b8ff" stroke="#63b8ff" points="795.4,-90.44 802.94,-83.01 792.41,-84.11 795.4,-90.44"/>
</a>
</g>
</g>
<!-- Node30 -->
<g id="Node000030" class="node">
<title>Node30</title>
<g id="a_Node000030"><a xlink:title=" ">
<polygon fill="#e0e0e0" stroke="#999999" points="541.5,-20 491,-20 491,0 541.5,0 541.5,-20"/>
<text xml:space="preserve" text-anchor="middle" x="516.25" y="-8.4" font-family="SourceSans" font-size="8.00">numbers</text>
</a>
</g>
</g>
<!-- Node29&#45;&gt;Node30 -->
<g id="edge31_Node000029_Node000030" class="edge">
<title>Node29&#45;&gt;Node30</title>
<g id="a_edge31_Node000029_Node000030"><a xlink:title=" ">
<path fill="none" stroke="#63b8ff" d="M416.38,-129.62C428.27,-114.07 453.05,-82.07 475.25,-56 483.02,-46.88 491.94,-37.01 499.48,-28.85"/>
<polygon fill="#63b8ff" stroke="#63b8ff" points="501.98,-31.3 506.23,-21.6 496.86,-26.53 501.98,-31.3"/>
</a>
</g>
</g>
<!-- Node31 -->
<g id="Node000031" class="node">
<title>Node31</title>
<g id="a_Node000031"><a xlink:title=" ">
<polygon fill="#e0e0e0" stroke="#999999" points="428,-82 386.5,-82 386.5,-62 428,-62 428,-82"/>
<text xml:space="preserve" text-anchor="middle" x="407.25" y="-70.4" font-family="SourceSans" font-size="8.00">format</text>
</a>
</g>
</g>
<!-- Node29&#45;&gt;Node31 -->
<g id="edge32_Node000029_Node000031" class="edge">
<title>Node29&#45;&gt;Node31</title>
<g id="a_edge32_Node000029_Node000031"><a xlink:title=" ">
<path fill="none" stroke="#63b8ff" d="M408.96,-129.54C408.68,-120.23 408.24,-105.7 407.88,-93.7"/>
<polygon fill="#63b8ff" stroke="#63b8ff" points="411.38,-93.84 407.58,-83.95 404.39,-94.05 411.38,-93.84"/>
</a>
</g>
</g>
<!-- Node32 -->
<g id="Node000032" class="node">
<title>Node32</title>
<g id="a_Node000032"><a xlink:href="a60-svg-radial-fill-hexagon_8h.html" target="_top" xlink:title=" ">
<polygon fill="white" stroke="#666666" points="368.12,-88 288.38,-88 288.38,-56 368.12,-56 368.12,-88"/>
<text xml:space="preserve" text-anchor="start" x="296.38" y="-76.4" font-family="SourceSans" font-size="8.00">a60&#45;svg&#45;radial&#45;fill</text>
<text xml:space="preserve" text-anchor="middle" x="328.25" y="-64.4" font-family="SourceSans" font-size="8.00">&#45;hexagon.h</text>
</a>
</g>
</g>
<!-- Node29&#45;&gt;Node32 -->
<g id="edge33_Node000029_Node000032" class="edge">
<title>Node29&#45;&gt;Node32</title>
<g id="a_edge33_Node000029_Node000032"><a xlink:title=" ">
<path fill="none" stroke="#63b8ff" d="M397.64,-129.54C386.7,-120.63 369.89,-106.93 355.56,-95.25"/>
<polygon fill="#63b8ff" stroke="#63b8ff" points="358.17,-92.86 348.2,-89.26 353.74,-98.29 358.17,-92.86"/>
</a>
</g>
</g>
<!-- Node32&#45;&gt;Node2 -->
<g id="edge42_Node000032_Node000002" class="edge">
<title>Node32&#45;&gt;Node2</title>
<g id="a_edge42_Node000032_Node000002"><a xlink:title=" ">
<path fill="none" stroke="#63b8ff" d="M326.89,-88.19C326.12,-107.14 328.05,-139.11 347.25,-156 378.9,-183.83 667.31,-196.23 771.73,-199.83"/>
<polygon fill="#63b8ff" stroke="#63b8ff" points="771.33,-203.32 781.44,-200.16 771.57,-196.32 771.33,-203.32"/>
</a>
</g>
</g>
<!-- Node32&#45;&gt;Node4 -->
<g id="edge36_Node000032_Node000004" class="edge">
<title>Node32&#45;&gt;Node4</title>
<g id="a_edge36_Node000032_Node000004"><a xlink:title=" ">
<path fill="none" stroke="#63b8ff" d="M287.98,-58.27C285.03,-57.46 282.1,-56.7 279.25,-56 196.65,-35.84 171.27,-40.71 85.5,-20.3"/>
<polygon fill="#63b8ff" stroke="#63b8ff" points="86.46,-16.93 75.92,-17.96 84.8,-23.73 86.46,-16.93"/>
</a>
</g>
</g>
<!-- Node32&#45;&gt;Node7 -->
<g id="edge35_Node000032_Node000007" class="edge">
<title>Node32&#45;&gt;Node7</title>
<g id="a_edge35_Node000032_Node000007"><a xlink:title=" ">
<path fill="none" stroke="#63b8ff" d="M287.92,-58.48C284.99,-57.63 282.08,-56.79 279.25,-56 219.85,-39.39 201.63,-38.37 139.57,-20.52"/>
<polygon fill="#63b8ff" stroke="#63b8ff" points="140.82,-17.24 130.24,-17.8 138.86,-23.96 140.82,-17.24"/>
</a>
</g>
</g>
<!-- Node32&#45;&gt;Node9 -->
<g id="edge34_Node000032_Node000009" class="edge">
<title>Node32&#45;&gt;Node9</title>
<g id="a_edge34_Node000032_Node000009"><a xlink:title=" ">
<path fill="none" stroke="#63b8ff" d="M287.96,-56.17C259.38,-45.65 221.63,-31.75 195.58,-22.17"/>
<polygon fill="#63b8ff" stroke="#63b8ff" points="196.87,-18.91 186.28,-18.74 194.45,-25.48 196.87,-18.91"/>
</a>
</g>
</g>
<!-- Node32&#45;&gt;Node19 -->
<g id="edge41_Node000032_Node000019" class="edge">
<title>Node32&#45;&gt;Node19</title>
<g id="a_edge41_Node000032_Node000019"><a xlink:title=" ">
<path fill="none" stroke="#63b8ff" d="M302.24,-55.55C287.04,-46.52 267.94,-35.17 252.82,-26.19"/>
<polygon fill="#63b8ff" stroke="#63b8ff" points="254.77,-23.28 244.39,-21.18 251.2,-29.3 254.77,-23.28"/>
</a>
</g>
</g>
<!-- Node32&#45;&gt;Node30 -->
<g id="edge37_Node000032_Node000030" class="edge">
<title>Node32&#45;&gt;Node30</title>
<g id="a_edge37_Node000032_Node000030"><a xlink:title=" ">
<path fill="none" stroke="#63b8ff" d="M368.58,-58.13C401.68,-47.56 448.14,-32.74 480.06,-22.55"/>
<polygon fill="#63b8ff" stroke="#63b8ff" points="480.8,-25.99 489.26,-19.61 478.67,-19.32 480.8,-25.99"/>
</a>
</g>
</g>
<!-- Node33 -->
<g id="Node000033" class="node">
<title>Node33</title>
<g id="a_Node000033"><a xlink:title=" ">
<polygon fill="#e0e0e0" stroke="#999999" points="324.75,-20 269.75,-20 269.75,0 324.75,0 324.75,-20"/>
<text xml:space="preserve" text-anchor="middle" x="297.25" y="-8.4" font-family="SourceSans" font-size="8.00">functional</text>
</a>
</g>
</g>
<!-- Node32&#45;&gt;Node33 -->
<g id="edge38_Node000032_Node000033" class="edge">
<title>Node32&#45;&gt;Node33</title>
<g id="a_edge38_Node000032_Node000033"><a xlink:title=" ">
<path fill="none" stroke="#63b8ff" d="M320.27,-55.55C316.32,-47.91 311.52,-38.61 307.32,-30.49"/>
<polygon fill="#63b8ff" stroke="#63b8ff" points="310.51,-29.03 302.81,-21.75 304.29,-32.24 310.51,-29.03"/>
</a>
</g>
</g>
<!-- Node34 -->
<g id="Node000034" class="node">
<title>Node34</title>
<g id="a_Node000034"><a xlink:title=" ">
<polygon fill="#e0e0e0" stroke="#999999" points="383.62,-20 342.88,-20 342.88,0 383.62,0 383.62,-20"/>
<text xml:space="preserve" text-anchor="middle" x="363.25" y="-8.4" font-family="SourceSans" font-size="8.00">queue</text>
</a>
</g>
</g>
<!-- Node32&#45;&gt;Node34 -->
<g id="edge39_Node000032_Node000034" class="edge">
<title>Node32&#45;&gt;Node34</title>
<g id="a_edge39_Node000032_Node000034"><a xlink:title=" ">
<path fill="none" stroke="#63b8ff" d="M337.26,-55.55C341.77,-47.82 347.27,-38.4 352.04,-30.21"/>
<polygon fill="#63b8ff" stroke="#63b8ff" points="354.98,-32.12 357,-21.72 348.94,-28.59 354.98,-32.12"/>
</a>
</g>
</g>
<!-- Node35 -->
<g id="Node000035" class="node">
<title>Node35</title>
<g id="a_Node000035"><a xlink:title=" ">
<polygon fill="#e0e0e0" stroke="#999999" points="473,-20 401.5,-20 401.5,0 473,0 473,-20"/>
<text xml:space="preserve" text-anchor="middle" x="437.25" y="-8.4" font-family="SourceSans" font-size="8.00">unordered_set</text>
</a>
</g>
</g>
<!-- Node32&#45;&gt;Node35 -->
<g id="edge40_Node000032_Node000035" class="edge">
<title>Node32&#45;&gt;Node35</title>
<g id="a_edge40_Node000032_Node000035"><a xlink:title=" ">
<path fill="none" stroke="#63b8ff" d="M356.32,-55.55C372.88,-46.43 393.73,-34.96 410.12,-25.93"/>
<polygon fill="#63b8ff" stroke="#63b8ff" points="411.76,-29.03 418.83,-21.14 408.38,-22.89 411.76,-29.03"/>
</a>
</g>
</g>
<!-- Node37&#45;&gt;Node2 -->
<g id="edge48_Node000037_Node000002" class="edge">
<title>Node37&#45;&gt;Node2</title>
<g id="a_edge48_Node000037_Node000002"><a xlink:title=" ">
<path fill="none" stroke="#63b8ff" d="M779.49,-150.11C786.89,-158.44 795.94,-171.03 802.35,-181.6"/>
<polygon fill="#63b8ff" stroke="#63b8ff" points="799.27,-183.25 807.17,-190.3 805.39,-179.86 799.27,-183.25"/>
</a>
</g>
</g>
<!-- Node37&#45;&gt;Node15 -->
<g id="edge46_Node000037_Node000015" class="edge">
<title>Node37&#45;&gt;Node15</title>
<g id="a_edge46_Node000037_Node000015"><a xlink:title=" ">
<path fill="none" stroke="#63b8ff" d="M767.1,-129.54C765.98,-120.23 764.21,-105.7 762.76,-93.7"/>
<polygon fill="#63b8ff" stroke="#63b8ff" points="766.25,-93.45 761.58,-83.94 759.31,-94.29 766.25,-93.45"/>
</a>
</g>
</g>
<!-- Node37&#45;&gt;Node23 -->
<g id="edge45_Node000037_Node000023" class="edge">
<title>Node37&#45;&gt;Node23</title>
<g id="a_edge45_Node000037_Node000023"><a xlink:title=" ">
<path fill="none" stroke="#63b8ff" d="M784.87,-129.54C803.91,-118.71 835.35,-100.82 857.77,-88.06"/>
<polygon fill="#63b8ff" stroke="#63b8ff" points="859.38,-91.17 866.35,-83.19 855.92,-85.09 859.38,-91.17"/>
</a>
</g>
</g>
<!-- Node38 -->
<g id="Node000038" class="node">
<title>Node38</title>
<g id="a_Node000038"><a xlink:title=" ">
<polygon fill="#e0e0e0" stroke="#999999" points="973.38,-82 925.12,-82 925.12,-62 973.38,-62 973.38,-82"/>
<text xml:space="preserve" text-anchor="middle" x="949.25" y="-70.4" font-family="SourceSans" font-size="8.00">unistd.h</text>
</a>
</g>
</g>
<!-- Node37&#45;&gt;Node38 -->
<g id="edge47_Node000037_Node000038" class="edge">
<title>Node37&#45;&gt;Node38</title>
<g id="a_edge47_Node000037_Node000038"><a xlink:title=" ">
<path fill="none" stroke="#63b8ff" d="M798.32,-129.56C828.44,-119.9 875.98,-104.05 916.25,-88 917.2,-87.62 918.15,-87.23 919.12,-86.83"/>
<polygon fill="#63b8ff" stroke="#63b8ff" points="920.31,-90.13 928.1,-82.95 917.53,-83.71 920.31,-90.13"/>
</a>
</g>
</g>
</g>
</svg>
