<?xml version="1.0" encoding="UTF-8" standalone="no"?>
<!DOCTYPE svg PUBLIC "-//W3C//DTD SVG 1.1//EN"
 "http://www.w3.org/Graphics/SVG/1.1/DTD/svg11.dtd">
<!-- Generated by graphviz version 12.1.0 (20240811.2233)
 -->
<!-- Title: /home/bkoz/src/izzi/src/a60&#45;svg&#45;color.h Pages: 1 -->
<svg width="248pt" height="89pt"
 viewBox="0.00 0.00 247.50 89.25" xmlns="http://www.w3.org/2000/svg" xmlns:xlink="http://www.w3.org/1999/xlink">

<svg id="main" version="1.1" xmlns="http://www.w3.org/2000/svg" xmlns:xlink="http://www.w3.org/1999/xlink" xml:space="preserve">

<style type="text/css"><![CDATA[
.node, .edge {opacity: 0.7;}
.node.selected, .edge.selected {opacity: 1;}
.edge:hover path { stroke: red; }
.edge:hover polygon { stroke: red; fill: red; }
]]></style>
<script type="application/ecmascript" xlink:href="svg.min.js"/>
<svg id="graph" class="graph">
<g id="graph0" class="graph" transform="scale(1 1) rotate(0) translate(4 85.25)">
<title>/home/bkoz/src/izzi/src/a60&#45;svg&#45;color.h</title>
<!-- Node1 -->
<g id="Node000001" class="node">
<title>Node1</title>
<g id="a_Node000001"><a xlink:title=" ">
<polygon fill="#999999" stroke="#666666" points="162.88,-81.25 65.12,-81.25 65.12,-53.75 162.88,-53.75 162.88,-81.25"/>
<text text-anchor="start" x="73.12" y="-69.65" font-family="SourceSans" font-size="8.00">/home/bkoz/src/izzi</text>
<text text-anchor="middle" x="114" y="-59.9" font-family="SourceSans" font-size="8.00">/src/a60&#45;svg&#45;color.h</text>
</a>
</g>
</g>
<!-- Node2 -->
<g id="Node000002" class="node">
<title>Node2</title>
<g id="a_Node000002"><a xlink:title=" ">
<polygon fill="#e0e0e0" stroke="#999999" points="34,-17.75 0,-17.75 0,0 34,0 34,-17.75"/>
<text text-anchor="middle" x="17" y="-6.15" font-family="SourceSans" font-size="8.00">map</text>
</a>
</g>
</g>
<!-- Node1&#45;&gt;Node2 -->
<g id="edge1_Node000001_Node000002" class="edge">
<title>Node1&#45;&gt;Node2</title>
<g id="a_edge1_Node000001_Node000002"><a xlink:title=" ">
<path fill="none" stroke="#63b8ff" d="M91.5,-53.37C76.41,-44.55 56.54,-32.95 41.11,-23.95"/>
<polygon fill="#63b8ff" stroke="#63b8ff" points="42.97,-20.98 32.57,-18.96 39.44,-27.03 42.97,-20.98"/>
</a>
</g>
</g>
<!-- Node3 -->
<g id="Node000003" class="node">
<title>Node3</title>
<g id="a_Node000003"><a xlink:title=" ">
<polygon fill="#e0e0e0" stroke="#999999" points="107.5,-17.75 52.5,-17.75 52.5,0 107.5,0 107.5,-17.75"/>
<text text-anchor="middle" x="80" y="-6.15" font-family="SourceSans" font-size="8.00">algorithm</text>
</a>
</g>
</g>
<!-- Node1&#45;&gt;Node3 -->
<g id="edge2_Node000001_Node000003" class="edge">
<title>Node1&#45;&gt;Node3</title>
<g id="a_edge2_Node000001_Node000003"><a xlink:title=" ">
<path fill="none" stroke="#63b8ff" d="M106.11,-53.37C101.59,-45.82 95.83,-36.24 90.88,-27.99"/>
<polygon fill="#63b8ff" stroke="#63b8ff" points="93.93,-26.27 85.78,-19.5 87.92,-29.87 93.93,-26.27"/>
</a>
</g>
</g>
<!-- Node4 -->
<g id="Node000004" class="node">
<title>Node4</title>
<g id="a_Node000004"><a xlink:title=" ">
<polygon fill="#e0e0e0" stroke="#999999" points="172.75,-17.75 125.25,-17.75 125.25,0 172.75,0 172.75,-17.75"/>
<text text-anchor="middle" x="149" y="-6.15" font-family="SourceSans" font-size="8.00">random</text>
</a>
</g>
</g>
<!-- Node1&#45;&gt;Node4 -->
<g id="edge3_Node000001_Node000004" class="edge">
<title>Node1&#45;&gt;Node4</title>
<g id="a_edge3_Node000001_Node000004"><a xlink:title=" ">
<path fill="none" stroke="#63b8ff" d="M122.12,-53.37C126.78,-45.82 132.7,-36.24 137.8,-27.99"/>
<polygon fill="#63b8ff" stroke="#63b8ff" points="140.78,-29.83 143.06,-19.49 134.82,-26.15 140.78,-29.83"/>
</a>
</g>
</g>
<!-- Node5 -->
<g id="Node000005" class="node">
<title>Node5</title>
<g id="a_Node000005"><a xlink:title=" ">
<polygon fill="#e0e0e0" stroke="#999999" points="239.5,-17.75 190.5,-17.75 190.5,0 239.5,0 239.5,-17.75"/>
<text text-anchor="middle" x="215" y="-6.15" font-family="SourceSans" font-size="8.00">iomanip</text>
</a>
</g>
</g>
<!-- Node1&#45;&gt;Node5 -->
<g id="edge4_Node000001_Node000005" class="edge">
<title>Node1&#45;&gt;Node5</title>
<g id="a_edge4_Node000001_Node000005"><a xlink:title=" ">
<path fill="none" stroke="#63b8ff" d="M137.43,-53.37C153.3,-44.47 174.23,-32.73 190.35,-23.69"/>
<polygon fill="#63b8ff" stroke="#63b8ff" points="191.82,-26.88 198.83,-18.94 188.4,-20.78 191.82,-26.88"/>
</a>
</g>
</g>
</g>
</svg>
</svg>

<style type='text/css'>
<![CDATA[
[data-mouse-over-selected='false'] { opacity: 0.7; }
[data-mouse-over-selected='true']  { opacity: 1.0; }
]]>
</style>
<script type="application/ecmascript"><![CDATA[
document.addEventListener('DOMContentLoaded', (event) => {
  highlightEdges();
  highlightAdjacentNodes();
});
]]></script>
</svg>
