<?xml version="1.0" encoding="UTF-8" standalone="no"?>
<!DOCTYPE svg PUBLIC "-//W3C//DTD SVG 1.1//EN"
 "http://www.w3.org/Graphics/SVG/1.1/DTD/svg11.dtd">
<!-- Generated by graphviz version 12.2.1 (20241206.2353)
 -->
<!-- Title: /home/bkoz/src/izzi/src/a60&#45;svg&#45;linear.h Pages: 1 -->
<svg width="1769pt" height="288pt"
 viewBox="0.00 0.00 1768.75 288.00" xmlns="http://www.w3.org/2000/svg" xmlns:xlink="http://www.w3.org/1999/xlink">
<g id="graph0" class="graph" transform="scale(1 1) rotate(0) translate(4 284)">
<title>/home/bkoz/src/izzi/src/a60&#45;svg&#45;linear.h</title>
<!-- Node1 -->
<g id="Node000001" class="node">
<title>Node1</title>
<g id="a_Node000001"><a xlink:title=" ">
<polygon fill="#999999" stroke="#666666" points="710.12,-280 618.38,-280 618.38,-248 710.12,-248 710.12,-280"/>
<text text-anchor="start" x="626.38" y="-268.4" font-family="SourceSans" font-size="8.00">/home/bkoz/src/izzi</text>
<text text-anchor="middle" x="664.25" y="-256.4" font-family="SourceSans" font-size="8.00">/src/a60&#45;svg&#45;linear.h</text>
</a>
</g>
</g>
<!-- Node2 -->
<g id="Node000002" class="node">
<title>Node2</title>
<g id="a_Node000002"><a xlink:href="a60-svg_8h.html" target="_top" xlink:title=" ">
<polygon fill="white" stroke="#666666" points="690.25,-212 638.25,-212 638.25,-192 690.25,-192 690.25,-212"/>
<text text-anchor="middle" x="664.25" y="-200.4" font-family="SourceSans" font-size="8.00">a60&#45;svg.h</text>
</a>
</g>
</g>
<!-- Node1&#45;&gt;Node2 -->
<g id="edge1_Node000001_Node000002" class="edge">
<title>Node1&#45;&gt;Node2</title>
<g id="a_edge1_Node000001_Node000002"><a xlink:title=" ">
<path fill="none" stroke="#63b8ff" d="M664.25,-247.55C664.25,-240.34 664.25,-231.66 664.25,-223.88"/>
<polygon fill="#63b8ff" stroke="#63b8ff" points="667.75,-223.92 664.25,-213.92 660.75,-223.92 667.75,-223.92"/>
</a>
</g>
</g>
<!-- Node3 -->
<g id="Node000003" class="node">
<title>Node3</title>
<g id="a_Node000003"><a xlink:title=" ">
<polygon fill="#e0e0e0" stroke="#999999" points="44.5,-150 0,-150 0,-130 44.5,-130 44.5,-150"/>
<text text-anchor="middle" x="22.25" y="-138.4" font-family="SourceSans" font-size="8.00">cstddef</text>
</a>
</g>
</g>
<!-- Node2&#45;&gt;Node3 -->
<g id="edge2_Node000002_Node000003" class="edge">
<title>Node2&#45;&gt;Node3</title>
<g id="a_edge2_Node000002_Node000003"><a xlink:title=" ">
<path fill="none" stroke="#63b8ff" d="M638.02,-200.17C536.71,-196.78 170.99,-182.93 58.25,-156 56.26,-155.53 54.24,-154.95 52.23,-154.32"/>
<polygon fill="#63b8ff" stroke="#63b8ff" points="53.69,-151.12 43.09,-150.95 51.27,-157.69 53.69,-151.12"/>
</a>
</g>
</g>
<!-- Node4 -->
<g id="Node000004" class="node">
<title>Node4</title>
<g id="a_Node000004"><a xlink:title=" ">
<polygon fill="#e0e0e0" stroke="#999999" points="60.25,-20 20.25,-20 20.25,0 60.25,0 60.25,-20"/>
<text text-anchor="middle" x="40.25" y="-8.4" font-family="SourceSans" font-size="8.00">cmath</text>
</a>
</g>
</g>
<!-- Node2&#45;&gt;Node4 -->
<g id="edge3_Node000002_Node000004" class="edge">
<title>Node2&#45;&gt;Node4</title>
<g id="a_edge3_Node000002_Node000004"><a xlink:title=" ">
<path fill="none" stroke="#63b8ff" d="M638.04,-200.33C534.71,-197.49 159.12,-185.23 115.25,-156 71.52,-126.87 51.79,-63.89 44.24,-31.36"/>
<polygon fill="#63b8ff" stroke="#63b8ff" points="47.68,-30.69 42.16,-21.65 40.83,-32.16 47.68,-30.69"/>
</a>
</g>
</g>
<!-- Node5 -->
<g id="Node000005" class="node">
<title>Node5</title>
<g id="a_Node000005"><a xlink:title=" ">
<polygon fill="#e0e0e0" stroke="#999999" points="440,-82 386.5,-82 386.5,-62 440,-62 440,-82"/>
<text text-anchor="middle" x="413.25" y="-70.4" font-family="SourceSans" font-size="8.00">algorithm</text>
</a>
</g>
</g>
<!-- Node2&#45;&gt;Node5 -->
<g id="edge4_Node000002_Node000005" class="edge">
<title>Node2&#45;&gt;Node5</title>
<g id="a_edge4_Node000002_Node000005"><a xlink:title=" ">
<path fill="none" stroke="#63b8ff" d="M638.06,-200.53C578.31,-198.86 434.85,-191.19 405.25,-156 390.58,-138.56 396.98,-111.18 404.08,-92.68"/>
<polygon fill="#63b8ff" stroke="#63b8ff" points="407.23,-94.21 407.93,-83.64 400.79,-91.47 407.23,-94.21"/>
</a>
</g>
</g>
<!-- Node6 -->
<g id="Node000006" class="node">
<title>Node6</title>
<g id="a_Node000006"><a xlink:title=" ">
<polygon fill="#e0e0e0" stroke="#999999" points="764.62,-150 729.88,-150 729.88,-130 764.62,-130 764.62,-150"/>
<text text-anchor="middle" x="747.25" y="-138.4" font-family="SourceSans" font-size="8.00">array</text>
</a>
</g>
</g>
<!-- Node2&#45;&gt;Node6 -->
<g id="edge5_Node000002_Node000006" class="edge">
<title>Node2&#45;&gt;Node6</title>
<g id="a_edge5_Node000002_Node000006"><a xlink:title=" ">
<path fill="none" stroke="#63b8ff" d="M677.22,-191.62C690.01,-182.38 709.81,-168.07 725.1,-157.01"/>
<polygon fill="#63b8ff" stroke="#63b8ff" points="727.09,-159.89 733.15,-151.2 722.99,-154.22 727.09,-159.89"/>
</a>
</g>
</g>
<!-- Node7 -->
<g id="Node000007" class="node">
<title>Node7</title>
<g id="a_Node000007"><a xlink:title=" ">
<polygon fill="#e0e0e0" stroke="#999999" points="114.38,-20 78.12,-20 78.12,0 114.38,0 114.38,-20"/>
<text text-anchor="middle" x="96.25" y="-8.4" font-family="SourceSans" font-size="8.00">tuple</text>
</a>
</g>
</g>
<!-- Node2&#45;&gt;Node7 -->
<g id="edge6_Node000002_Node000007" class="edge">
<title>Node2&#45;&gt;Node7</title>
<g id="a_edge6_Node000002_Node000007"><a xlink:title=" ">
<path fill="none" stroke="#63b8ff" d="M637.93,-200.4C537.66,-197.87 183.27,-186.83 144.25,-156 105.86,-125.67 97.88,-63.74 96.41,-31.51"/>
<polygon fill="#63b8ff" stroke="#63b8ff" points="99.92,-31.81 96.15,-21.91 92.92,-32 99.92,-31.81"/>
</a>
</g>
</g>
<!-- Node8 -->
<g id="Node000008" class="node">
<title>Node8</title>
<g id="a_Node000008"><a xlink:title=" ">
<polygon fill="#e0e0e0" stroke="#999999" points="821.5,-150 783,-150 783,-130 821.5,-130 821.5,-150"/>
<text text-anchor="middle" x="802.25" y="-138.4" font-family="SourceSans" font-size="8.00">string</text>
</a>
</g>
</g>
<!-- Node2&#45;&gt;Node8 -->
<g id="edge7_Node000002_Node000008" class="edge">
<title>Node2&#45;&gt;Node8</title>
<g id="a_edge7_Node000002_Node000008"><a xlink:title=" ">
<path fill="none" stroke="#63b8ff" d="M688.75,-191.58C711.02,-182.86 744.65,-169.27 773.25,-156 773.6,-155.84 773.95,-155.68 774.3,-155.51"/>
<polygon fill="#63b8ff" stroke="#63b8ff" points="775.8,-158.67 783.22,-151.11 772.7,-152.39 775.8,-158.67"/>
</a>
</g>
</g>
<!-- Node9 -->
<g id="Node000009" class="node">
<title>Node9</title>
<g id="a_Node000009"><a xlink:title=" ">
<polygon fill="#e0e0e0" stroke="#999999" points="170.5,-20 132,-20 132,0 170.5,0 170.5,-20"/>
<text text-anchor="middle" x="151.25" y="-8.4" font-family="SourceSans" font-size="8.00">vector</text>
</a>
</g>
</g>
<!-- Node2&#45;&gt;Node9 -->
<g id="edge8_Node000002_Node000009" class="edge">
<title>Node2&#45;&gt;Node9</title>
<g id="a_edge8_Node000002_Node000009"><a xlink:title=" ">
<path fill="none" stroke="#63b8ff" d="M637.89,-200.53C539.98,-198.51 201.08,-189.17 167.25,-156 134.04,-123.44 140.24,-62.99 146.4,-31.41"/>
<polygon fill="#63b8ff" stroke="#63b8ff" points="149.75,-32.48 148.44,-21.97 142.91,-31.01 149.75,-32.48"/>
</a>
</g>
</g>
<!-- Node10 -->
<g id="Node000010" class="node">
<title>Node10</title>
<g id="a_Node000010"><a xlink:title=" ">
<polygon fill="#e0e0e0" stroke="#999999" points="868.65,-150 839.85,-150 839.85,-130 868.65,-130 868.65,-150"/>
<text text-anchor="middle" x="854.25" y="-138.4" font-family="SourceSans" font-size="8.00">set</text>
</a>
</g>
</g>
<!-- Node2&#45;&gt;Node10 -->
<g id="edge9_Node000002_Node000010" class="edge">
<title>Node2&#45;&gt;Node10</title>
<g id="a_edge9_Node000002_Node000010"><a xlink:title=" ">
<path fill="none" stroke="#63b8ff" d="M690.64,-196.34C724.08,-189.88 783.05,-176.61 830.25,-156 830.36,-155.95 830.47,-155.9 830.58,-155.85"/>
<polygon fill="#63b8ff" stroke="#63b8ff" points="832.18,-158.97 839.34,-151.16 828.87,-152.8 832.18,-158.97"/>
</a>
</g>
</g>
<!-- Node11 -->
<g id="Node000011" class="node">
<title>Node11</title>
<g id="a_Node000011"><a xlink:title=" ">
<polygon fill="#e0e0e0" stroke="#999999" points="964,-150 886.5,-150 886.5,-130 964,-130 964,-150"/>
<text text-anchor="middle" x="925.25" y="-138.4" font-family="SourceSans" font-size="8.00">unordered_map</text>
</a>
</g>
</g>
<!-- Node2&#45;&gt;Node11 -->
<g id="edge10_Node000002_Node000011" class="edge">
<title>Node2&#45;&gt;Node11</title>
<g id="a_edge10_Node000002_Node000011"><a xlink:title=" ">
<path fill="none" stroke="#63b8ff" d="M690.67,-196.25C731.12,-188.8 810.7,-173.39 877.25,-156 879.98,-155.29 882.8,-154.51 885.62,-153.71"/>
<polygon fill="#63b8ff" stroke="#63b8ff" points="886.4,-157.12 894.99,-150.92 884.41,-150.41 886.4,-157.12"/>
</a>
</g>
</g>
<!-- Node12 -->
<g id="Node000012" class="node">
<title>Node12</title>
<g id="a_Node000012"><a xlink:title=" ">
<polygon fill="#e0e0e0" stroke="#999999" points="1028.25,-150 982.25,-150 982.25,-130 1028.25,-130 1028.25,-150"/>
<text text-anchor="middle" x="1005.25" y="-138.4" font-family="SourceSans" font-size="8.00">sstream</text>
</a>
</g>
</g>
<!-- Node2&#45;&gt;Node12 -->
<g id="edge11_Node000002_Node000012" class="edge">
<title>Node2&#45;&gt;Node12</title>
<g id="a_edge11_Node000002_Node000012"><a xlink:title=" ">
<path fill="none" stroke="#63b8ff" d="M690.44,-199.77C744.41,-196.69 871.48,-186.53 973.25,-156 974.61,-155.59 975.98,-155.14 977.35,-154.65"/>
<polygon fill="#63b8ff" stroke="#63b8ff" points="978.38,-158.01 986.28,-150.94 975.7,-151.54 978.38,-158.01"/>
</a>
</g>
</g>
<!-- Node13 -->
<g id="Node000013" class="node">
<title>Node13</title>
<g id="a_Node000013"><a xlink:href="a60-svg-color_8h.html" target="_top" xlink:title=" ">
<polygon fill="white" stroke="#666666" points="486,-150 414.5,-150 414.5,-130 486,-130 486,-150"/>
<text text-anchor="middle" x="450.25" y="-138.4" font-family="SourceSans" font-size="8.00">a60&#45;svg&#45;color.h</text>
</a>
</g>
</g>
<!-- Node2&#45;&gt;Node13 -->
<g id="edge12_Node000002_Node000013" class="edge">
<title>Node2&#45;&gt;Node13</title>
<g id="a_edge12_Node000002_Node000013"><a xlink:title=" ">
<path fill="none" stroke="#63b8ff" d="M637.76,-194.48C604.37,-186.15 545.28,-170.98 495.25,-156 493.03,-155.34 490.76,-154.64 488.47,-153.92"/>
<polygon fill="#63b8ff" stroke="#63b8ff" points="489.8,-150.67 479.21,-150.94 487.66,-157.33 489.8,-150.67"/>
</a>
</g>
</g>
<!-- Node17 -->
<g id="Node000017" class="node">
<title>Node17</title>
<g id="a_Node000017"><a xlink:href="a60-svg-color-palette_8h.html" target="_top" xlink:title=" ">
<polygon fill="white" stroke="#666666" points="1148,-150 1046.5,-150 1046.5,-130 1148,-130 1148,-150"/>
<text text-anchor="middle" x="1097.25" y="-138.4" font-family="SourceSans" font-size="8.00">a60&#45;svg&#45;color&#45;palette.h</text>
</a>
</g>
</g>
<!-- Node2&#45;&gt;Node17 -->
<g id="edge17_Node000002_Node000017" class="edge">
<title>Node2&#45;&gt;Node17</title>
<g id="a_edge17_Node000002_Node000017"><a xlink:title=" ">
<path fill="none" stroke="#63b8ff" d="M690.65,-198.96C751.91,-193.97 908.32,-179.8 1037.25,-156 1041.88,-155.14 1046.69,-154.14 1051.48,-153.07"/>
<polygon fill="#63b8ff" stroke="#63b8ff" points="1052.11,-156.51 1061.04,-150.81 1050.5,-149.7 1052.11,-156.51"/>
</a>
</g>
</g>
<!-- Node18 -->
<g id="Node000018" class="node">
<title>Node18</title>
<g id="a_Node000018"><a xlink:href="a60-svg-color-band_8h.html" target="_top" xlink:title=" ">
<polygon fill="white" stroke="#666666" points="368.62,-82 273.88,-82 273.88,-62 368.62,-62 368.62,-82"/>
<text text-anchor="middle" x="321.25" y="-70.4" font-family="SourceSans" font-size="8.00">a60&#45;svg&#45;color&#45;band.h</text>
</a>
</g>
</g>
<!-- Node2&#45;&gt;Node18 -->
<g id="edge18_Node000002_Node000018" class="edge">
<title>Node2&#45;&gt;Node18</title>
<g id="a_edge18_Node000002_Node000018"><a xlink:title=" ">
<path fill="none" stroke="#63b8ff" d="M637.78,-198.93C577.93,-193.9 434.15,-179.63 392.25,-156 365.48,-140.9 344.14,-111.65 332.1,-92.22"/>
<polygon fill="#63b8ff" stroke="#63b8ff" points="335.12,-90.46 327.01,-83.64 329.1,-94.03 335.12,-90.46"/>
</a>
</g>
</g>
<!-- Node20 -->
<g id="Node000020" class="node">
<title>Node20</title>
<g id="a_Node000020"><a xlink:href="a60-svg-base-types_8h.html" target="_top" xlink:title=" ">
<polygon fill="white" stroke="#666666" points="598.62,-150 503.88,-150 503.88,-130 598.62,-130 598.62,-150"/>
<text text-anchor="middle" x="551.25" y="-138.4" font-family="SourceSans" font-size="8.00">a60&#45;svg&#45;base&#45;types.h</text>
</a>
</g>
</g>
<!-- Node2&#45;&gt;Node20 -->
<g id="edge20_Node000002_Node000020" class="edge">
<title>Node2&#45;&gt;Node20</title>
<g id="a_edge20_Node000002_Node000020"><a xlink:title=" ">
<path fill="none" stroke="#63b8ff" d="M646.59,-191.62C628.43,-181.98 599.89,-166.83 578.77,-155.61"/>
<polygon fill="#63b8ff" stroke="#63b8ff" points="580.59,-152.62 570.12,-151.02 577.31,-158.8 580.59,-152.62"/>
</a>
</g>
</g>
<!-- Node24 -->
<g id="Node000024" class="node">
<title>Node24</title>
<g id="a_Node000024"><a xlink:href="a60-svg-constants_8h.html" target="_top" xlink:title=" ">
<polygon fill="white" stroke="#666666" points="1256.75,-150 1165.75,-150 1165.75,-130 1256.75,-130 1256.75,-150"/>
<text text-anchor="middle" x="1211.25" y="-138.4" font-family="SourceSans" font-size="8.00">a60&#45;svg&#45;constants.h</text>
</a>
</g>
</g>
<!-- Node2&#45;&gt;Node24 -->
<g id="edge25_Node000002_Node000024" class="edge">
<title>Node2&#45;&gt;Node24</title>
<g id="a_edge25_Node000002_Node000024"><a xlink:title=" ">
<path fill="none" stroke="#63b8ff" d="M690.66,-200.26C764.81,-197.82 980.98,-188.26 1157.25,-156 1161.37,-155.25 1165.63,-154.32 1169.87,-153.31"/>
<polygon fill="#63b8ff" stroke="#63b8ff" points="1170.64,-156.72 1179.45,-150.83 1168.89,-149.94 1170.64,-156.72"/>
</a>
</g>
</g>
<!-- Node25 -->
<g id="Node000025" class="node">
<title>Node25</title>
<g id="a_Node000025"><a xlink:href="a60-svg-elements_8h.html" target="_top" xlink:title=" ">
<polygon fill="white" stroke="#666666" points="1364,-150 1274.5,-150 1274.5,-130 1364,-130 1364,-150"/>
<text text-anchor="middle" x="1319.25" y="-138.4" font-family="SourceSans" font-size="8.00">a60&#45;svg&#45;elements.h</text>
</a>
</g>
</g>
<!-- Node2&#45;&gt;Node25 -->
<g id="edge26_Node000002_Node000025" class="edge">
<title>Node2&#45;&gt;Node25</title>
<g id="a_edge26_Node000002_Node000025"><a xlink:title=" ">
<path fill="none" stroke="#63b8ff" d="M690.59,-200.91C775.02,-200.24 1046.17,-194.96 1266.25,-156 1270.35,-155.27 1274.59,-154.36 1278.81,-153.34"/>
<polygon fill="#63b8ff" stroke="#63b8ff" points="1279.53,-156.77 1288.32,-150.86 1277.76,-150 1279.53,-156.77"/>
</a>
</g>
</g>
<!-- Node26 -->
<g id="Node000026" class="node">
<title>Node26</title>
<g id="a_Node000026"><a xlink:href="a60-svg-elements-components_8h.html" target="_top" xlink:title=" ">
<polygon fill="white" stroke="#666666" points="1520.75,-150 1381.75,-150 1381.75,-130 1520.75,-130 1520.75,-150"/>
<text text-anchor="middle" x="1451.25" y="-138.4" font-family="SourceSans" font-size="8.00">a60&#45;svg&#45;elements&#45;components.h</text>
</a>
</g>
</g>
<!-- Node2&#45;&gt;Node26 -->
<g id="edge27_Node000002_Node000026" class="edge">
<title>Node2&#45;&gt;Node26</title>
<g id="a_edge27_Node000002_Node000026"><a xlink:title=" ">
<path fill="none" stroke="#63b8ff" d="M690.44,-200.53C783.67,-198.62 1108.06,-189.78 1373.25,-156 1380.69,-155.05 1388.5,-153.83 1396.17,-152.49"/>
<polygon fill="#63b8ff" stroke="#63b8ff" points="1396.57,-155.98 1405.78,-150.74 1395.31,-149.09 1396.57,-155.98"/>
</a>
</g>
</g>
<!-- Node27 -->
<g id="Node000027" class="node">
<title>Node27</title>
<g id="a_Node000027"><a xlink:href="a60-svg-render-state_8h.html" target="_top" xlink:title=" ">
<polygon fill="white" stroke="#666666" points="1639.62,-150 1538.88,-150 1538.88,-130 1639.62,-130 1639.62,-150"/>
<text text-anchor="middle" x="1589.25" y="-138.4" font-family="SourceSans" font-size="8.00">a60&#45;svg&#45;render&#45;state.h</text>
</a>
</g>
</g>
<!-- Node2&#45;&gt;Node27 -->
<g id="edge28_Node000002_Node000027" class="edge">
<title>Node2&#45;&gt;Node27</title>
<g id="a_edge28_Node000002_Node000027"><a xlink:title=" ">
<path fill="none" stroke="#63b8ff" d="M690.63,-200.33C817.11,-197.01 1362.24,-181.47 1530.25,-156 1535.26,-155.24 1540.47,-154.24 1545.62,-153.11"/>
<polygon fill="#63b8ff" stroke="#63b8ff" points="1546.32,-156.54 1555.24,-150.84 1544.71,-149.73 1546.32,-156.54"/>
</a>
</g>
</g>
<!-- Node28 -->
<g id="Node000028" class="node">
<title>Node28</title>
<g id="a_Node000028"><a xlink:href="a60-svg-render-basics_8h.html" target="_top" xlink:title=" ">
<polygon fill="white" stroke="#666666" points="281.88,-150 176.62,-150 176.62,-130 281.88,-130 281.88,-150"/>
<text text-anchor="middle" x="229.25" y="-138.4" font-family="SourceSans" font-size="8.00">a60&#45;svg&#45;render&#45;basics.h</text>
</a>
</g>
</g>
<!-- Node2&#45;&gt;Node28 -->
<g id="edge29_Node000002_Node000028" class="edge">
<title>Node2&#45;&gt;Node28</title>
<g id="a_edge29_Node000002_Node000028"><a xlink:title=" ">
<path fill="none" stroke="#63b8ff" d="M637.79,-198.67C577.12,-193.12 423.42,-177.96 296.25,-156 290.74,-155.05 285,-153.94 279.29,-152.77"/>
<polygon fill="#63b8ff" stroke="#63b8ff" points="280.44,-149.43 269.93,-150.77 278.98,-156.28 280.44,-149.43"/>
</a>
</g>
</g>
<!-- Node34 -->
<g id="Node000034" class="node">
<title>Node34</title>
<g id="a_Node000034"><a xlink:href="a60-svg-composite-and-layer-basics_8h.html" target="_top" xlink:title=" ">
<polygon fill="white" stroke="#666666" points="1760.75,-156 1657.75,-156 1657.75,-124 1760.75,-124 1760.75,-156"/>
<text text-anchor="start" x="1665.75" y="-144.4" font-family="SourceSans" font-size="8.00">a60&#45;svg&#45;composite&#45;and</text>
<text text-anchor="middle" x="1709.25" y="-132.4" font-family="SourceSans" font-size="8.00">&#45;layer&#45;basics.h</text>
</a>
</g>
</g>
<!-- Node2&#45;&gt;Node34 -->
<g id="edge40_Node000002_Node000034" class="edge">
<title>Node2&#45;&gt;Node34</title>
<g id="a_edge40_Node000002_Node000034"><a xlink:title=" ">
<path fill="none" stroke="#63b8ff" d="M690.51,-200.49C824.44,-197.81 1432.96,-184.33 1646.11,-156.04"/>
<polygon fill="#63b8ff" stroke="#63b8ff" points="1646.55,-159.51 1655.97,-154.67 1645.59,-152.58 1646.55,-159.51"/>
</a>
</g>
</g>
<!-- Node35 -->
<g id="Node000035" class="node">
<title>Node35</title>
<g id="a_Node000035"><a xlink:href="a60-svg-sequences_8h.html" target="_top" xlink:title=" ">
<polygon fill="white" stroke="#666666" points="711.62,-150 616.88,-150 616.88,-130 711.62,-130 711.62,-150"/>
<text text-anchor="middle" x="664.25" y="-138.4" font-family="SourceSans" font-size="8.00">a60&#45;svg&#45;sequences.h</text>
</a>
</g>
</g>
<!-- Node2&#45;&gt;Node35 -->
<g id="edge41_Node000002_Node000035" class="edge">
<title>Node2&#45;&gt;Node35</title>
<g id="a_edge41_Node000002_Node000035"><a xlink:title=" ">
<path fill="none" stroke="#63b8ff" d="M659.19,-191.62C657.58,-183.56 657.12,-171.65 657.82,-161.41"/>
<polygon fill="#63b8ff" stroke="#63b8ff" points="661.27,-161.97 659.05,-151.61 654.33,-161.1 661.27,-161.97"/>
</a>
</g>
</g>
<!-- Node13&#45;&gt;Node5 -->
<g id="edge14_Node000013_Node000005" class="edge">
<title>Node13&#45;&gt;Node5</title>
<g id="a_edge14_Node000013_Node000005"><a xlink:title=" ">
<path fill="none" stroke="#63b8ff" d="M444.95,-129.54C439.51,-119.84 430.89,-104.47 424.01,-92.2"/>
<polygon fill="#63b8ff" stroke="#63b8ff" points="427.22,-90.77 419.28,-83.76 421.12,-94.19 427.22,-90.77"/>
</a>
</g>
</g>
<!-- Node14 -->
<g id="Node000014" class="node">
<title>Node14</title>
<g id="a_Node000014"><a xlink:title=" ">
<polygon fill="#e0e0e0" stroke="#999999" points="556.88,-82 523.62,-82 523.62,-62 556.88,-62 556.88,-82"/>
<text text-anchor="middle" x="540.25" y="-70.4" font-family="SourceSans" font-size="8.00">map</text>
</a>
</g>
</g>
<!-- Node13&#45;&gt;Node14 -->
<g id="edge13_Node000013_Node000014" class="edge">
<title>Node13&#45;&gt;Node14</title>
<g id="a_edge13_Node000013_Node000014"><a xlink:title=" ">
<path fill="none" stroke="#63b8ff" d="M463.14,-129.54C477.58,-118.96 501.21,-101.63 518.52,-88.94"/>
<polygon fill="#63b8ff" stroke="#63b8ff" points="520.16,-92.07 526.16,-83.33 516.02,-86.42 520.16,-92.07"/>
</a>
</g>
</g>
<!-- Node15 -->
<g id="Node000015" class="node">
<title>Node15</title>
<g id="a_Node000015"><a xlink:title=" ">
<polygon fill="#e0e0e0" stroke="#999999" points="681.25,-82 635.25,-82 635.25,-62 681.25,-62 681.25,-82"/>
<text text-anchor="middle" x="658.25" y="-70.4" font-family="SourceSans" font-size="8.00">random</text>
</a>
</g>
</g>
<!-- Node13&#45;&gt;Node15 -->
<g id="edge15_Node000013_Node000015" class="edge">
<title>Node13&#45;&gt;Node15</title>
<g id="a_edge15_Node000013_Node000015"><a xlink:title=" ">
<path fill="none" stroke="#63b8ff" d="M477.78,-129.56C483.54,-127.66 489.58,-125.72 495.25,-124 553.02,-106.45 569.6,-108.89 626.25,-88 627.21,-87.65 628.17,-87.28 629.15,-86.89"/>
<polygon fill="#63b8ff" stroke="#63b8ff" points="630.33,-90.19 638.14,-83.02 627.57,-83.76 630.33,-90.19"/>
</a>
</g>
</g>
<!-- Node16 -->
<g id="Node000016" class="node">
<title>Node16</title>
<g id="a_Node000016"><a xlink:title=" ">
<polygon fill="#e0e0e0" stroke="#999999" points="506,-82 458.5,-82 458.5,-62 506,-62 506,-82"/>
<text text-anchor="middle" x="482.25" y="-70.4" font-family="SourceSans" font-size="8.00">iomanip</text>
</a>
</g>
</g>
<!-- Node13&#45;&gt;Node16 -->
<g id="edge16_Node000013_Node000016" class="edge">
<title>Node13&#45;&gt;Node16</title>
<g id="a_edge16_Node000013_Node000016"><a xlink:title=" ">
<path fill="none" stroke="#63b8ff" d="M454.83,-129.54C459.49,-119.94 466.84,-104.78 472.76,-92.57"/>
<polygon fill="#63b8ff" stroke="#63b8ff" points="475.8,-94.33 477.01,-83.8 469.5,-91.27 475.8,-94.33"/>
</a>
</g>
</g>
<!-- Node19 -->
<g id="Node000019" class="node">
<title>Node19</title>
<g id="a_Node000019"><a xlink:title=" ">
<polygon fill="#e0e0e0" stroke="#999999" points="527.75,-20 478.75,-20 478.75,0 527.75,0 527.75,-20"/>
<text text-anchor="middle" x="503.25" y="-8.4" font-family="SourceSans" font-size="8.00">iostream</text>
</a>
</g>
</g>
<!-- Node18&#45;&gt;Node19 -->
<g id="edge19_Node000018_Node000019" class="edge">
<title>Node18&#45;&gt;Node19</title>
<g id="a_edge19_Node000018_Node000019"><a xlink:title=" ">
<path fill="none" stroke="#63b8ff" d="M349.69,-61.62C381.62,-51.1 433.48,-34 467.97,-22.63"/>
<polygon fill="#63b8ff" stroke="#63b8ff" points="468.68,-26.08 477.08,-19.63 466.48,-19.44 468.68,-26.08"/>
</a>
</g>
</g>
<!-- Node20&#45;&gt;Node14 -->
<g id="edge21_Node000020_Node000014" class="edge">
<title>Node20&#45;&gt;Node14</title>
<g id="a_edge21_Node000020_Node000014"><a xlink:title=" ">
<path fill="none" stroke="#63b8ff" d="M549.67,-129.54C548.12,-120.23 545.7,-105.7 543.7,-93.7"/>
<polygon fill="#63b8ff" stroke="#63b8ff" points="547.17,-93.22 542.07,-83.93 540.26,-94.37 547.17,-93.22"/>
</a>
</g>
</g>
<!-- Node21 -->
<g id="Node000021" class="node">
<title>Node21</title>
<g id="a_Node000021"><a xlink:title=" ">
<polygon fill="#e0e0e0" stroke="#999999" points="745.62,-82 698.88,-82 698.88,-62 745.62,-62 745.62,-82"/>
<text text-anchor="middle" x="722.25" y="-70.4" font-family="SourceSans" font-size="8.00">ostream</text>
</a>
</g>
</g>
<!-- Node20&#45;&gt;Node21 -->
<g id="edge22_Node000020_Node000021" class="edge">
<title>Node20&#45;&gt;Node21</title>
<g id="a_edge22_Node000020_Node000021"><a xlink:title=" ">
<path fill="none" stroke="#63b8ff" d="M579.22,-129.54C607.48,-119.79 652.29,-103.83 690.25,-88 691.01,-87.68 691.79,-87.35 692.57,-87.02"/>
<polygon fill="#63b8ff" stroke="#63b8ff" points="693.66,-90.37 701.36,-83.09 690.8,-83.98 693.66,-90.37"/>
</a>
</g>
</g>
<!-- Node22 -->
<g id="Node000022" class="node">
<title>Node22</title>
<g id="a_Node000022"><a xlink:title=" ">
<polygon fill="#e0e0e0" stroke="#999999" points="808.88,-82 763.62,-82 763.62,-62 808.88,-62 808.88,-82"/>
<text text-anchor="middle" x="786.25" y="-70.4" font-family="SourceSans" font-size="8.00">fstream</text>
</a>
</g>
</g>
<!-- Node20&#45;&gt;Node22 -->
<g id="edge23_Node000020_Node000022" class="edge">
<title>Node20&#45;&gt;Node22</title>
<g id="a_edge23_Node000020_Node000022"><a xlink:title=" ">
<path fill="none" stroke="#63b8ff" d="M586.8,-129.55C593.9,-127.69 601.31,-125.77 608.25,-124 673.01,-107.5 691.24,-110.29 754.25,-88 755.38,-87.6 756.52,-87.18 757.67,-86.73"/>
<polygon fill="#63b8ff" stroke="#63b8ff" points="758.69,-90.1 766.5,-82.95 755.93,-83.67 758.69,-90.1"/>
</a>
</g>
</g>
<!-- Node23 -->
<g id="Node000023" class="node">
<title>Node23</title>
<g id="a_Node000023"><a xlink:title=" ">
<polygon fill="#e0e0e0" stroke="#999999" points="617.38,-82 575.12,-82 575.12,-62 617.38,-62 617.38,-82"/>
<text text-anchor="middle" x="596.25" y="-70.4" font-family="SourceSans" font-size="8.00">cstdint</text>
</a>
</g>
</g>
<!-- Node20&#45;&gt;Node23 -->
<g id="edge24_Node000020_Node000023" class="edge">
<title>Node20&#45;&gt;Node23</title>
<g id="a_edge24_Node000020_Node000023"><a xlink:title=" ">
<path fill="none" stroke="#63b8ff" d="M557.7,-129.54C564.38,-119.74 575.01,-104.16 583.41,-91.83"/>
<polygon fill="#63b8ff" stroke="#63b8ff" points="586.22,-93.92 588.96,-83.69 580.44,-89.98 586.22,-93.92"/>
</a>
</g>
</g>
<!-- Node29 -->
<g id="Node000029" class="node">
<title>Node29</title>
<g id="a_Node000029"><a xlink:href="a60-svg-radial-fill-hexagon_8h.html" target="_top" xlink:title=" ">
<polygon fill="white" stroke="#666666" points="256.12,-88 176.38,-88 176.38,-56 256.12,-56 256.12,-88"/>
<text text-anchor="start" x="184.38" y="-76.4" font-family="SourceSans" font-size="8.00">a60&#45;svg&#45;radial&#45;fill</text>
<text text-anchor="middle" x="216.25" y="-64.4" font-family="SourceSans" font-size="8.00">&#45;hexagon.h</text>
</a>
</g>
</g>
<!-- Node28&#45;&gt;Node29 -->
<g id="edge30_Node000028_Node000029" class="edge">
<title>Node28&#45;&gt;Node29</title>
<g id="a_edge30_Node000028_Node000029"><a xlink:title=" ">
<path fill="none" stroke="#63b8ff" d="M227.39,-129.54C225.83,-121.64 223.53,-109.97 221.43,-99.29"/>
<polygon fill="#63b8ff" stroke="#63b8ff" points="224.92,-98.92 219.56,-89.79 218.05,-100.27 224.92,-98.92"/>
</a>
</g>
</g>
<!-- Node29&#45;&gt;Node2 -->
<g id="edge39_Node000029_Node000002" class="edge">
<title>Node29&#45;&gt;Node2</title>
<g id="a_edge39_Node000029_Node000002"><a xlink:title=" ">
<path fill="none" stroke="#63b8ff" d="M238.9,-88.37C271.11,-109.96 328.83,-147.57 352.25,-156 446.91,-190.08 566.51,-198.42 626.42,-200.41"/>
<polygon fill="#63b8ff" stroke="#63b8ff" points="626.31,-203.91 636.41,-200.7 626.51,-196.91 626.31,-203.91"/>
</a>
</g>
</g>
<!-- Node29&#45;&gt;Node4 -->
<g id="edge33_Node000029_Node000004" class="edge">
<title>Node29&#45;&gt;Node4</title>
<g id="a_edge33_Node000029_Node000004"><a xlink:title=" ">
<path fill="none" stroke="#63b8ff" d="M176.31,-57.39C144.44,-46.52 100.43,-31.52 71.19,-21.55"/>
<polygon fill="#63b8ff" stroke="#63b8ff" points="72.42,-18.27 61.82,-18.35 70.16,-24.89 72.42,-18.27"/>
</a>
</g>
</g>
<!-- Node29&#45;&gt;Node7 -->
<g id="edge32_Node000029_Node000007" class="edge">
<title>Node29&#45;&gt;Node7</title>
<g id="a_edge32_Node000029_Node000007"><a xlink:title=" ">
<path fill="none" stroke="#63b8ff" d="M185.35,-55.55C166.74,-46.25 143.21,-34.48 125.01,-25.38"/>
<polygon fill="#63b8ff" stroke="#63b8ff" points="126.58,-22.25 116.07,-20.91 123.45,-28.51 126.58,-22.25"/>
</a>
</g>
</g>
<!-- Node29&#45;&gt;Node9 -->
<g id="edge31_Node000029_Node000009" class="edge">
<title>Node29&#45;&gt;Node9</title>
<g id="a_edge31_Node000029_Node000009"><a xlink:title=" ">
<path fill="none" stroke="#63b8ff" d="M199.51,-55.55C190.39,-47.13 179.08,-36.69 169.71,-28.04"/>
<polygon fill="#63b8ff" stroke="#63b8ff" points="172.28,-25.65 162.55,-21.43 167.53,-30.79 172.28,-25.65"/>
</a>
</g>
</g>
<!-- Node29&#45;&gt;Node19 -->
<g id="edge38_Node000029_Node000019" class="edge">
<title>Node29&#45;&gt;Node19</title>
<g id="a_edge38_Node000029_Node000019"><a xlink:title=" ">
<path fill="none" stroke="#63b8ff" d="M256.52,-58.24C259.46,-57.44 262.4,-56.68 265.25,-56 351.69,-35.26 377.94,-39.78 467.23,-20.5"/>
<polygon fill="#63b8ff" stroke="#63b8ff" points="467.96,-23.93 476.97,-18.35 466.45,-17.09 467.96,-23.93"/>
</a>
</g>
</g>
<!-- Node30 -->
<g id="Node000030" class="node">
<title>Node30</title>
<g id="a_Node000030"><a xlink:title=" ">
<polygon fill="#e0e0e0" stroke="#999999" points="239.5,-20 189,-20 189,0 239.5,0 239.5,-20"/>
<text text-anchor="middle" x="214.25" y="-8.4" font-family="SourceSans" font-size="8.00">numbers</text>
</a>
</g>
</g>
<!-- Node29&#45;&gt;Node30 -->
<g id="edge34_Node000029_Node000030" class="edge">
<title>Node29&#45;&gt;Node30</title>
<g id="a_edge34_Node000029_Node000030"><a xlink:title=" ">
<path fill="none" stroke="#63b8ff" d="M215.73,-55.55C215.49,-48.34 215.21,-39.66 214.95,-31.88"/>
<polygon fill="#63b8ff" stroke="#63b8ff" points="218.45,-31.8 214.61,-21.92 211.45,-32.03 218.45,-31.8"/>
</a>
</g>
</g>
<!-- Node31 -->
<g id="Node000031" class="node">
<title>Node31</title>
<g id="a_Node000031"><a xlink:title=" ">
<polygon fill="#e0e0e0" stroke="#999999" points="312.75,-20 257.75,-20 257.75,0 312.75,0 312.75,-20"/>
<text text-anchor="middle" x="285.25" y="-8.4" font-family="SourceSans" font-size="8.00">functional</text>
</a>
</g>
</g>
<!-- Node29&#45;&gt;Node31 -->
<g id="edge35_Node000029_Node000031" class="edge">
<title>Node29&#45;&gt;Node31</title>
<g id="a_edge35_Node000029_Node000031"><a xlink:title=" ">
<path fill="none" stroke="#63b8ff" d="M234.02,-55.55C243.8,-47.04 255.95,-36.48 265.97,-27.77"/>
<polygon fill="#63b8ff" stroke="#63b8ff" points="268.04,-30.6 273.29,-21.4 263.45,-25.32 268.04,-30.6"/>
</a>
</g>
</g>
<!-- Node32 -->
<g id="Node000032" class="node">
<title>Node32</title>
<g id="a_Node000032"><a xlink:title=" ">
<polygon fill="#e0e0e0" stroke="#999999" points="371.62,-20 330.88,-20 330.88,0 371.62,0 371.62,-20"/>
<text text-anchor="middle" x="351.25" y="-8.4" font-family="SourceSans" font-size="8.00">queue</text>
</a>
</g>
</g>
<!-- Node29&#45;&gt;Node32 -->
<g id="edge36_Node000029_Node000032" class="edge">
<title>Node29&#45;&gt;Node32</title>
<g id="a_edge36_Node000029_Node000032"><a xlink:title=" ">
<path fill="none" stroke="#63b8ff" d="M251.02,-55.55C272.34,-46.07 299.41,-34.04 320.05,-24.87"/>
<polygon fill="#63b8ff" stroke="#63b8ff" points="321.38,-28.11 329.09,-20.85 318.53,-21.71 321.38,-28.11"/>
</a>
</g>
</g>
<!-- Node33 -->
<g id="Node000033" class="node">
<title>Node33</title>
<g id="a_Node000033"><a xlink:title=" ">
<polygon fill="#e0e0e0" stroke="#999999" points="461,-20 389.5,-20 389.5,0 461,0 461,-20"/>
<text text-anchor="middle" x="425.25" y="-8.4" font-family="SourceSans" font-size="8.00">unordered_set</text>
</a>
</g>
</g>
<!-- Node29&#45;&gt;Node33 -->
<g id="edge37_Node000029_Node000033" class="edge">
<title>Node29&#45;&gt;Node33</title>
<g id="a_edge37_Node000029_Node000033"><a xlink:title=" ">
<path fill="none" stroke="#63b8ff" d="M256.6,-58.57C259.53,-57.69 262.43,-56.83 265.25,-56 303.89,-44.65 347.94,-32.31 380.03,-23.42"/>
<polygon fill="#63b8ff" stroke="#63b8ff" points="380.69,-26.87 389.39,-20.83 378.82,-20.12 380.69,-26.87"/>
</a>
</g>
</g>
<!-- Node35&#45;&gt;Node2 -->
<g id="edge45_Node000035_Node000002" class="edge">
<title>Node35&#45;&gt;Node2</title>
<g id="a_edge45_Node000035_Node000002"><a xlink:title=" ">
<path fill="none" stroke="#63b8ff" d="M669.26,-150.11C670.9,-158.09 671.38,-169.97 670.71,-180.25"/>
<polygon fill="#63b8ff" stroke="#63b8ff" points="667.24,-179.77 669.5,-190.12 674.19,-180.62 667.24,-179.77"/>
</a>
</g>
</g>
<!-- Node35&#45;&gt;Node15 -->
<g id="edge43_Node000035_Node000015" class="edge">
<title>Node35&#45;&gt;Node15</title>
<g id="a_edge43_Node000035_Node000015"><a xlink:title=" ">
<path fill="none" stroke="#63b8ff" d="M663.39,-129.54C662.54,-120.23 661.22,-105.7 660.13,-93.7"/>
<polygon fill="#63b8ff" stroke="#63b8ff" points="663.64,-93.59 659.25,-83.95 656.66,-94.22 663.64,-93.59"/>
</a>
</g>
</g>
<!-- Node35&#45;&gt;Node22 -->
<g id="edge42_Node000035_Node000022" class="edge">
<title>Node35&#45;&gt;Node22</title>
<g id="a_edge42_Node000035_Node000022"><a xlink:title=" ">
<path fill="none" stroke="#63b8ff" d="M681.73,-129.54C701.84,-118.66 735.12,-100.66 758.72,-87.89"/>
<polygon fill="#63b8ff" stroke="#63b8ff" points="760.34,-91 767.47,-83.16 757.01,-84.84 760.34,-91"/>
</a>
</g>
</g>
<!-- Node36 -->
<g id="Node000036" class="node">
<title>Node36</title>
<g id="a_Node000036"><a xlink:title=" ">
<polygon fill="#e0e0e0" stroke="#999999" points="875.38,-82 827.12,-82 827.12,-62 875.38,-62 875.38,-82"/>
<text text-anchor="middle" x="851.25" y="-70.4" font-family="SourceSans" font-size="8.00">unistd.h</text>
</a>
</g>
</g>
<!-- Node35&#45;&gt;Node36 -->
<g id="edge44_Node000035_Node000036" class="edge">
<title>Node35&#45;&gt;Node36</title>
<g id="a_edge44_Node000035_Node000036"><a xlink:title=" ">
<path fill="none" stroke="#63b8ff" d="M696.16,-129.52C727.55,-119.95 776.68,-104.28 818.25,-88 819.2,-87.63 820.16,-87.24 821.13,-86.85"/>
<polygon fill="#63b8ff" stroke="#63b8ff" points="822.31,-90.15 830.11,-82.99 819.54,-83.72 822.31,-90.15"/>
</a>
</g>
</g>
</g>
</svg>
