<?xml version="1.0" encoding="UTF-8" standalone="no"?>
<!DOCTYPE svg PUBLIC "-//W3C//DTD SVG 1.1//EN"
 "http://www.w3.org/Graphics/SVG/1.1/DTD/svg11.dtd">
<!-- Generated by graphviz version 12.2.1 (20241206.2353)
 -->
<!-- Title: /home/bkoz/src/izzi/src/a60&#45;svg&#45;linear.h Pages: 1 -->
<!--zoomable 207 -->

<svg id="main" version="1.1" xmlns="http://www.w3.org/2000/svg" xmlns:xlink="http://www.w3.org/1999/xlink" xml:space="preserve" onload="init(evt)">

<style type="text/css"><![CDATA[
.node, .edge {opacity: 0.7;}
.node.selected, .edge.selected {opacity: 1;}
.edge:hover path { stroke: red; }
.edge:hover polygon { stroke: red; fill: red; }
]]></style>

<defs>
  <circle id="rim" cx="0" cy="0" r="7"/>
  <circle id="rim2" cx="0" cy="0" r="3.5"/>
  <g id="zoomPlus">
    <use xlink:href="#rim" fill="#404040"><set attributeName="fill" to="#808080" begin="zoomplus.mouseover" end="zoomplus.mouseout"/></use>
    <path d="M-4,0h8M0,-4v8" fill="none" stroke="white" stroke-width="1.5" pointer-events="none"/>
  </g>
  <g id="zoomMin">
    <use xlink:href="#rim" fill="#404040"><set attributeName="fill" to="#808080" begin="zoomminus.mouseover" end="zoomminus.mouseout"/></use>
    <path d="M-4,0h8" fill="none" stroke="white" stroke-width="1.5" pointer-events="none"/>
  </g>
  <g id="arrowUp" transform="translate(30 24)">
    <use xlink:href="#rim"/>
    <path pointer-events="none" fill="none" stroke="white" stroke-width="1.5" d="M0,-3.0v7 M-2.5,-0.5L0,-3.0L2.5,-0.5"/>
  </g>
  <g id="arrowRight" transform="rotate(90) translate(36 -43)">
    <use xlink:href="#rim"/>
    <path pointer-events="none" fill="none" stroke="white" stroke-width="1.5" d="M0,-3.0v7 M-2.5,-0.5L0,-3.0L2.5,-0.5"/>
  </g>
  <g id="arrowDown" transform="rotate(180) translate(-30 -48)">
    <use xlink:href="#rim"/>
    <path pointer-events="none" fill="none" stroke="white" stroke-width="1.5" d="M0,-3.0v7 M-2.5,-0.5L0,-3.0L2.5,-0.5"/>
  </g>
  <g id="arrowLeft" transform="rotate(270) translate(-36 17)">
    <use xlink:href="#rim"/>
    <path pointer-events="none" fill="none" stroke="white" stroke-width="1.5" d="M0,-3.0v7 M-2.5,-0.5L0,-3.0L2.5,-0.5"/>
  </g>
  <g id="resetDef">
    <use xlink:href="#rim2" fill="#404040"><set attributeName="fill" to="#808080" begin="reset.mouseover" end="reset.mouseout"/></use>
  </g>
</defs>
<script type="application/ecmascript">
var viewWidth = 2001;
var viewHeight = 207;
var sectionId = 'dynsection-0';
</script>
<script type="application/ecmascript" xlink:href="svg.min.js"/>
<svg id="graph" class="graph">
<g id="viewport">
<title>/home/bkoz/src/izzi/src/a60&#45;svg&#45;linear.h</title>
<!-- Node1 -->
<g id="Node000001" class="node">
<title>Node1</title>
<g id="a_Node000001"><a xlink:title=" ">
<polygon fill="#999999" stroke="#666666" points="770.75,-198.5 670,-198.5 670,-171 770.75,-171 770.75,-198.5"/>
<text text-anchor="start" x="678" y="-186.9" font-family="SourceSans" font-size="8.00">/home/bkoz/src/izzi</text>
<text text-anchor="middle" x="720.38" y="-177.15" font-family="SourceSans" font-size="8.00">/src/a60&#45;svg&#45;linear.h</text>
</a>
</g>
</g>
<!-- Node2 -->
<g id="Node000002" class="node">
<title>Node2</title>
<g id="a_Node000002"><a xlink:href="a60-svg_8h.html" target="_top" xlink:title=" ">
<polygon fill="white" stroke="#666666" points="748.62,-135 692.12,-135 692.12,-117.25 748.62,-117.25 748.62,-135"/>
<text text-anchor="middle" x="720.38" y="-123.4" font-family="SourceSans" font-size="8.00">a60&#45;svg.h</text>
</a>
</g>
</g>
<!-- Node1&#45;&gt;Node2 -->
<g id="edge1_Node000001_Node000002" class="edge">
<title>Node1&#45;&gt;Node2</title>
<g id="a_edge1_Node000001_Node000002"><a xlink:title=" ">
<path fill="none" stroke="#63b8ff" d="M720.38,-170.62C720.38,-163.58 720.38,-154.78 720.38,-146.93"/>
<polygon fill="#63b8ff" stroke="#63b8ff" points="723.88,-146.96 720.38,-136.96 716.88,-146.96 723.88,-146.96"/>
</a>
</g>
</g>
<!-- Node3 -->
<g id="Node000003" class="node">
<title>Node3</title>
<g id="a_Node000003"><a xlink:title=" ">
<polygon fill="#e0e0e0" stroke="#999999" points="46.75,-76.38 0,-76.38 0,-58.62 46.75,-58.62 46.75,-76.38"/>
<text text-anchor="middle" x="23.38" y="-64.78" font-family="SourceSans" font-size="8.00">cstddef</text>
</a>
</g>
</g>
<!-- Node2&#45;&gt;Node3 -->
<g id="edge2_Node000002_Node000003" class="edge">
<title>Node2&#45;&gt;Node3</title>
<g id="a_edge2_Node000002_Node000003"><a xlink:title=" ">
<path fill="none" stroke="#63b8ff" d="M691.99,-124.43C581.41,-121.55 179.51,-109.34 55.38,-81.25 54.21,-80.99 53.03,-80.69 51.85,-80.36"/>
<polygon fill="#63b8ff" stroke="#63b8ff" points="53.36,-77.17 42.77,-77.28 51.12,-83.8 53.36,-77.17"/>
</a>
</g>
</g>
<!-- Node4 -->
<g id="Node000004" class="node">
<title>Node4</title>
<g id="a_Node000004"><a xlink:title=" ">
<polygon fill="#e0e0e0" stroke="#999999" points="106.12,-76.38 64.62,-76.38 64.62,-58.62 106.12,-58.62 106.12,-76.38"/>
<text text-anchor="middle" x="85.38" y="-64.78" font-family="SourceSans" font-size="8.00">cmath</text>
</a>
</g>
</g>
<!-- Node2&#45;&gt;Node4 -->
<g id="edge3_Node000002_Node000004" class="edge">
<title>Node2&#45;&gt;Node4</title>
<g id="a_edge3_Node000002_Node000004"><a xlink:title=" ">
<path fill="none" stroke="#63b8ff" d="M691.64,-124.08C587.7,-120.12 231.56,-105.08 120.38,-81.25 118.95,-80.95 117.51,-80.6 116.06,-80.21"/>
<polygon fill="#63b8ff" stroke="#63b8ff" points="117.12,-76.87 106.53,-77.21 115.02,-83.55 117.12,-76.87"/>
</a>
</g>
</g>
<!-- Node5 -->
<g id="Node000005" class="node">
<title>Node5</title>
<g id="a_Node000005"><a xlink:title=" ">
<polygon fill="#e0e0e0" stroke="#999999" points="124.88,-17.75 69.88,-17.75 69.88,0 124.88,0 124.88,-17.75"/>
<text text-anchor="middle" x="97.38" y="-6.15" font-family="SourceSans" font-size="8.00">algorithm</text>
</a>
</g>
</g>
<!-- Node2&#45;&gt;Node5 -->
<g id="edge4_Node000002_Node000005" class="edge">
<title>Node2&#45;&gt;Node5</title>
<g id="a_edge4_Node000002_Node000005"><a xlink:title=" ">
<path fill="none" stroke="#63b8ff" d="M691.63,-124.25C582.97,-120.76 201.09,-106.78 153.38,-81.25 131.28,-69.42 115.01,-44.72 105.87,-27.72"/>
<polygon fill="#63b8ff" stroke="#63b8ff" points="109.21,-26.57 101.58,-19.22 102.96,-29.73 109.21,-26.57"/>
</a>
</g>
</g>
<!-- Node6 -->
<g id="Node000006" class="node">
<title>Node6</title>
<g id="a_Node000006"><a xlink:title=" ">
<polygon fill="#e0e0e0" stroke="#999999" points="543.88,-76.38 506.88,-76.38 506.88,-58.62 543.88,-58.62 543.88,-76.38"/>
<text text-anchor="middle" x="525.38" y="-64.78" font-family="SourceSans" font-size="8.00">array</text>
</a>
</g>
</g>
<!-- Node2&#45;&gt;Node6 -->
<g id="edge5_Node000002_Node000006" class="edge">
<title>Node2&#45;&gt;Node6</title>
<g id="a_edge5_Node000002_Node000006"><a xlink:title=" ">
<path fill="none" stroke="#63b8ff" d="M691.86,-119.19C658.25,-111.84 600.96,-98.2 553.38,-81.25 553.15,-81.17 552.92,-81.09 552.69,-81"/>
<polygon fill="#63b8ff" stroke="#63b8ff" points="554.34,-77.9 543.76,-77.36 551.7,-84.38 554.34,-77.9"/>
</a>
</g>
</g>
<!-- Node7 -->
<g id="Node000007" class="node">
<title>Node7</title>
<g id="a_Node000007"><a xlink:title=" ">
<polygon fill="#e0e0e0" stroke="#999999" points="598.88,-76.38 561.88,-76.38 561.88,-58.62 598.88,-58.62 598.88,-76.38"/>
<text text-anchor="middle" x="580.38" y="-64.78" font-family="SourceSans" font-size="8.00">tuple</text>
</a>
</g>
</g>
<!-- Node2&#45;&gt;Node7 -->
<g id="edge6_Node000002_Node000007" class="edge">
<title>Node2&#45;&gt;Node7</title>
<g id="a_edge6_Node000002_Node000007"><a xlink:title=" ">
<path fill="none" stroke="#63b8ff" d="M697.67,-116.85C676.69,-109.09 644.47,-96.88 607.87,-81.27"/>
<polygon fill="#63b8ff" stroke="#63b8ff" points="609.39,-78.11 598.82,-77.38 606.62,-84.54 609.39,-78.11"/>
</a>
</g>
</g>
<!-- Node8 -->
<g id="Node000008" class="node">
<title>Node8</title>
<g id="a_Node000008"><a xlink:title=" ">
<polygon fill="#e0e0e0" stroke="#999999" points="656,-76.38 616.75,-76.38 616.75,-58.62 656,-58.62 656,-76.38"/>
<text text-anchor="middle" x="636.38" y="-64.78" font-family="SourceSans" font-size="8.00">string</text>
</a>
</g>
</g>
<!-- Node2&#45;&gt;Node8 -->
<g id="edge7_Node000002_Node000008" class="edge">
<title>Node2&#45;&gt;Node8</title>
<g id="a_edge7_Node000002_Node000008"><a xlink:title=" ">
<path fill="none" stroke="#63b8ff" d="M707.98,-116.77C694.75,-107.85 673.55,-93.56 657.65,-82.84"/>
<polygon fill="#63b8ff" stroke="#63b8ff" points="660.05,-80.24 649.8,-77.55 656.14,-86.04 660.05,-80.24"/>
</a>
</g>
</g>
<!-- Node9 -->
<g id="Node000009" class="node">
<title>Node9</title>
<g id="a_Node000009"><a xlink:title=" ">
<polygon fill="#e0e0e0" stroke="#999999" points="715.12,-76.38 673.62,-76.38 673.62,-58.62 715.12,-58.62 715.12,-76.38"/>
<text text-anchor="middle" x="694.38" y="-64.78" font-family="SourceSans" font-size="8.00">vector</text>
</a>
</g>
</g>
<!-- Node2&#45;&gt;Node9 -->
<g id="edge8_Node000002_Node000009" class="edge">
<title>Node2&#45;&gt;Node9</title>
<g id="a_edge8_Node000002_Node000009"><a xlink:title=" ">
<path fill="none" stroke="#63b8ff" d="M716.54,-116.77C712.93,-108.9 707.39,-96.85 702.76,-86.76"/>
<polygon fill="#63b8ff" stroke="#63b8ff" points="706.04,-85.53 698.69,-77.9 699.68,-88.45 706.04,-85.53"/>
</a>
</g>
</g>
<!-- Node10 -->
<g id="Node000010" class="node">
<title>Node10</title>
<g id="a_Node000010"><a xlink:title=" ">
<polygon fill="#e0e0e0" stroke="#999999" points="761.77,-76.38 732.98,-76.38 732.98,-58.62 761.77,-58.62 761.77,-76.38"/>
<text text-anchor="middle" x="747.38" y="-64.78" font-family="SourceSans" font-size="8.00">set</text>
</a>
</g>
</g>
<!-- Node2&#45;&gt;Node10 -->
<g id="edge9_Node000002_Node000010" class="edge">
<title>Node2&#45;&gt;Node10</title>
<g id="a_edge9_Node000002_Node000010"><a xlink:title=" ">
<path fill="none" stroke="#63b8ff" d="M724.36,-116.77C728.11,-108.9 733.86,-96.85 738.67,-86.76"/>
<polygon fill="#63b8ff" stroke="#63b8ff" points="741.75,-88.42 742.9,-77.89 735.43,-85.41 741.75,-88.42"/>
</a>
</g>
</g>
<!-- Node11 -->
<g id="Node000011" class="node">
<title>Node11</title>
<g id="a_Node000011"><a xlink:title=" ">
<polygon fill="#e0e0e0" stroke="#999999" points="859.25,-76.38 779.5,-76.38 779.5,-58.62 859.25,-58.62 859.25,-76.38"/>
<text text-anchor="middle" x="819.38" y="-64.78" font-family="SourceSans" font-size="8.00">unordered_map</text>
</a>
</g>
</g>
<!-- Node2&#45;&gt;Node11 -->
<g id="edge10_Node000002_Node000011" class="edge">
<title>Node2&#45;&gt;Node11</title>
<g id="a_edge10_Node000002_Node000011"><a xlink:title=" ">
<path fill="none" stroke="#63b8ff" d="M734.98,-116.77C750.79,-107.73 776.27,-93.16 795.09,-82.39"/>
<polygon fill="#63b8ff" stroke="#63b8ff" points="796.77,-85.46 803.72,-77.46 793.3,-79.38 796.77,-85.46"/>
</a>
</g>
</g>
<!-- Node12 -->
<g id="Node000012" class="node">
<title>Node12</title>
<g id="a_Node000012"><a xlink:title=" ">
<polygon fill="#e0e0e0" stroke="#999999" points="925.5,-76.38 877.25,-76.38 877.25,-58.62 925.5,-58.62 925.5,-76.38"/>
<text text-anchor="middle" x="901.38" y="-64.78" font-family="SourceSans" font-size="8.00">sstream</text>
</a>
</g>
</g>
<!-- Node2&#45;&gt;Node12 -->
<g id="edge11_Node000002_Node000012" class="edge">
<title>Node2&#45;&gt;Node12</title>
<g id="a_edge11_Node000002_Node000012"><a xlink:title=" ">
<path fill="none" stroke="#63b8ff" d="M748.96,-117.39C778.93,-109.1 827.28,-95.25 868.38,-81.25 868.87,-81.08 869.37,-80.91 869.87,-80.74"/>
<polygon fill="#63b8ff" stroke="#63b8ff" points="870.9,-84.08 879.1,-77.37 868.5,-77.51 870.9,-84.08"/>
</a>
</g>
</g>
<!-- Node13 -->
<g id="Node000013" class="node">
<title>Node13</title>
<g id="a_Node000013"><a xlink:href="a60-svg-color_8h.html" target="_top" xlink:title=" ">
<polygon fill="white" stroke="#666666" points="242.25,-76.38 162.5,-76.38 162.5,-58.62 242.25,-58.62 242.25,-76.38"/>
<text text-anchor="middle" x="202.38" y="-64.78" font-family="SourceSans" font-size="8.00">a60&#45;svg&#45;color.h</text>
</a>
</g>
</g>
<!-- Node2&#45;&gt;Node13 -->
<g id="edge12_Node000002_Node000013" class="edge">
<title>Node2&#45;&gt;Node13</title>
<g id="a_edge12_Node000002_Node000013"><a xlink:title=" ">
<path fill="none" stroke="#63b8ff" d="M691.88,-124.06C618.4,-120.97 416.69,-110.3 251.38,-81.25 248.39,-80.73 245.33,-80.11 242.25,-79.44"/>
<polygon fill="#63b8ff" stroke="#63b8ff" points="243.23,-76.08 232.7,-77.18 241.62,-82.89 243.23,-76.08"/>
</a>
</g>
</g>
<!-- Node17 -->
<g id="Node000017" class="node">
<title>Node17</title>
<g id="a_Node000017"><a xlink:href="a60-svg-color-palette_8h.html" target="_top" xlink:title=" ">
<polygon fill="white" stroke="#666666" points="1055.38,-76.38 943.38,-76.38 943.38,-58.62 1055.38,-58.62 1055.38,-76.38"/>
<text text-anchor="middle" x="999.38" y="-64.78" font-family="SourceSans" font-size="8.00">a60&#45;svg&#45;color&#45;palette.h</text>
</a>
</g>
</g>
<!-- Node2&#45;&gt;Node17 -->
<g id="edge17_Node000002_Node000017" class="edge">
<title>Node2&#45;&gt;Node17</title>
<g id="a_edge17_Node000002_Node000017"><a xlink:title=" ">
<path fill="none" stroke="#63b8ff" d="M748.92,-119.33C795.53,-109.87 888.66,-90.97 947.28,-79.07"/>
<polygon fill="#63b8ff" stroke="#63b8ff" points="947.94,-82.51 957.04,-77.09 946.55,-75.65 947.94,-82.51"/>
</a>
</g>
</g>
<!-- Node18 -->
<g id="Node000018" class="node">
<title>Node18</title>
<g id="a_Node000018"><a xlink:href="a60-svg-color-colorband_8h.html" target="_top" xlink:title=" ">
<polygon fill="white" stroke="#666666" points="1197.38,-76.38 1073.38,-76.38 1073.38,-58.62 1197.38,-58.62 1197.38,-76.38"/>
<text text-anchor="middle" x="1135.38" y="-64.78" font-family="SourceSans" font-size="8.00">a60&#45;svg&#45;color&#45;colorband.h</text>
</a>
</g>
</g>
<!-- Node2&#45;&gt;Node18 -->
<g id="edge18_Node000002_Node000018" class="edge">
<title>Node2&#45;&gt;Node18</title>
<g id="a_edge18_Node000002_Node000018"><a xlink:title=" ">
<path fill="none" stroke="#63b8ff" d="M748.99,-121.97C808.05,-115.36 947.74,-99.15 1064.38,-81.25 1069.31,-80.49 1074.44,-79.66 1079.57,-78.8"/>
<polygon fill="#63b8ff" stroke="#63b8ff" points="1079.99,-82.28 1089.25,-77.13 1078.8,-75.38 1079.99,-82.28"/>
</a>
</g>
</g>
<!-- Node19 -->
<g id="Node000019" class="node">
<title>Node19</title>
<g id="a_Node000019"><a xlink:href="a60-svg-base-types_8h.html" target="_top" xlink:title=" ">
<polygon fill="white" stroke="#666666" points="366,-76.38 260.75,-76.38 260.75,-58.62 366,-58.62 366,-76.38"/>
<text text-anchor="middle" x="313.38" y="-64.78" font-family="SourceSans" font-size="8.00">a60&#45;svg&#45;base&#45;types.h</text>
</a>
</g>
</g>
<!-- Node2&#45;&gt;Node19 -->
<g id="edge19_Node000002_Node000019" class="edge">
<title>Node2&#45;&gt;Node19</title>
<g id="a_edge19_Node000002_Node000019"><a xlink:title=" ">
<path fill="none" stroke="#63b8ff" d="M691.64,-122.22C632.33,-116.06 492.12,-100.65 375.38,-81.25 371.29,-80.57 367.06,-79.81 362.82,-79.02"/>
<polygon fill="#63b8ff" stroke="#63b8ff" points="363.62,-75.61 353.14,-77.14 362.29,-82.48 363.62,-75.61"/>
</a>
</g>
</g>
<!-- Node23 -->
<g id="Node000023" class="node">
<title>Node23</title>
<g id="a_Node000023"><a xlink:href="a60-svg-constants_8h.html" target="_top" xlink:title=" ">
<polygon fill="white" stroke="#666666" points="1315.38,-76.38 1215.38,-76.38 1215.38,-58.62 1315.38,-58.62 1315.38,-76.38"/>
<text text-anchor="middle" x="1265.38" y="-64.78" font-family="SourceSans" font-size="8.00">a60&#45;svg&#45;constants.h</text>
</a>
</g>
</g>
<!-- Node2&#45;&gt;Node23 -->
<g id="edge24_Node000002_Node000023" class="edge">
<title>Node2&#45;&gt;Node23</title>
<g id="a_edge24_Node000002_Node000023"><a xlink:title=" ">
<path fill="none" stroke="#63b8ff" d="M749.01,-123.77C824.29,-119.94 1033.85,-107.58 1206.38,-81.25 1210.5,-80.62 1214.77,-79.88 1219.05,-79.07"/>
<polygon fill="#63b8ff" stroke="#63b8ff" points="1219.65,-82.52 1228.77,-77.13 1218.28,-75.66 1219.65,-82.52"/>
</a>
</g>
</g>
<!-- Node24 -->
<g id="Node000024" class="node">
<title>Node24</title>
<g id="a_Node000024"><a xlink:href="a60-svg-elements_8h.html" target="_top" xlink:title=" ">
<polygon fill="white" stroke="#666666" points="1431.25,-76.38 1333.5,-76.38 1333.5,-58.62 1431.25,-58.62 1431.25,-76.38"/>
<text text-anchor="middle" x="1382.38" y="-64.78" font-family="SourceSans" font-size="8.00">a60&#45;svg&#45;elements.h</text>
</a>
</g>
</g>
<!-- Node2&#45;&gt;Node24 -->
<g id="edge25_Node000002_Node000024" class="edge">
<title>Node2&#45;&gt;Node24</title>
<g id="a_edge25_Node000002_Node000024"><a xlink:title=" ">
<path fill="none" stroke="#63b8ff" d="M748.83,-124.51C835.61,-122.33 1104.33,-113.26 1324.38,-81.25 1328.49,-80.65 1332.76,-79.92 1337.02,-79.12"/>
<polygon fill="#63b8ff" stroke="#63b8ff" points="1337.58,-82.58 1346.69,-77.17 1336.2,-75.72 1337.58,-82.58"/>
</a>
</g>
</g>
<!-- Node25 -->
<g id="Node000025" class="node">
<title>Node25</title>
<g id="a_Node000025"><a xlink:href="a60-svg-elements-components_8h.html" target="_top" xlink:title=" ">
<polygon fill="white" stroke="#666666" points="1601.25,-76.38 1449.5,-76.38 1449.5,-58.62 1601.25,-58.62 1601.25,-76.38"/>
<text text-anchor="middle" x="1525.38" y="-64.78" font-family="SourceSans" font-size="8.00">a60&#45;svg&#45;elements&#45;components.h</text>
</a>
</g>
</g>
<!-- Node2&#45;&gt;Node25 -->
<g id="edge26_Node000002_Node000025" class="edge">
<title>Node2&#45;&gt;Node25</title>
<g id="a_edge26_Node000002_Node000025"><a xlink:title=" ">
<path fill="none" stroke="#63b8ff" d="M748.92,-124.29C846,-121.25 1172.29,-109.47 1440.38,-81.25 1447.85,-80.46 1455.68,-79.49 1463.43,-78.44"/>
<polygon fill="#63b8ff" stroke="#63b8ff" points="1463.77,-81.93 1473.18,-77.06 1462.79,-75 1463.77,-81.93"/>
</a>
</g>
</g>
<!-- Node26 -->
<g id="Node000026" class="node">
<title>Node26</title>
<g id="a_Node000026"><a xlink:href="a60-svg-render-state_8h.html" target="_top" xlink:title=" ">
<polygon fill="white" stroke="#666666" points="1729.25,-76.38 1619.5,-76.38 1619.5,-58.62 1729.25,-58.62 1729.25,-76.38"/>
<text text-anchor="middle" x="1674.38" y="-64.78" font-family="SourceSans" font-size="8.00">a60&#45;svg&#45;render&#45;state.h</text>
</a>
</g>
</g>
<!-- Node2&#45;&gt;Node26 -->
<g id="edge27_Node000002_Node000026" class="edge">
<title>Node2&#45;&gt;Node26</title>
<g id="a_edge27_Node000002_Node000026"><a xlink:title=" ">
<path fill="none" stroke="#63b8ff" d="M748.94,-125.24C859.97,-125.38 1273.37,-122.9 1610.38,-81.25 1615.58,-80.61 1621,-79.78 1626.38,-78.85"/>
<polygon fill="#63b8ff" stroke="#63b8ff" points="1626.61,-82.37 1635.81,-77.12 1625.34,-75.49 1626.61,-82.37"/>
</a>
</g>
</g>
<!-- Node27 -->
<g id="Node000027" class="node">
<title>Node27</title>
<g id="a_Node000027"><a xlink:href="a60-svg-render-basics_8h.html" target="_top" xlink:title=" ">
<polygon fill="white" stroke="#666666" points="1861.88,-76.38 1746.88,-76.38 1746.88,-58.62 1861.88,-58.62 1861.88,-76.38"/>
<text text-anchor="middle" x="1804.38" y="-64.78" font-family="SourceSans" font-size="8.00">a60&#45;svg&#45;render&#45;basics.h</text>
</a>
</g>
</g>
<!-- Node2&#45;&gt;Node27 -->
<g id="edge28_Node000002_Node000027" class="edge">
<title>Node2&#45;&gt;Node27</title>
<g id="a_edge28_Node000002_Node000027"><a xlink:title=" ">
<path fill="none" stroke="#63b8ff" d="M748.84,-125.43C869.22,-126.42 1348.34,-127.07 1738.38,-81.25 1743.95,-80.59 1749.77,-79.73 1755.53,-78.77"/>
<polygon fill="#63b8ff" stroke="#63b8ff" points="1755.76,-82.28 1764.99,-77.08 1754.53,-75.39 1755.76,-82.28"/>
</a>
</g>
</g>
<!-- Node28 -->
<g id="Node000028" class="node">
<title>Node28</title>
<g id="a_Node000028"><a xlink:href="a60-svg-composite-and-layer-basics_8h.html" target="_top" xlink:title=" ">
<polygon fill="white" stroke="#666666" points="1993.12,-81.25 1879.62,-81.25 1879.62,-53.75 1993.12,-53.75 1993.12,-81.25"/>
<text text-anchor="start" x="1887.62" y="-69.65" font-family="SourceSans" font-size="8.00">a60&#45;svg&#45;composite&#45;and</text>
<text text-anchor="middle" x="1936.38" y="-59.9" font-family="SourceSans" font-size="8.00">&#45;layer&#45;basics.h</text>
</a>
</g>
</g>
<!-- Node2&#45;&gt;Node28 -->
<g id="edge29_Node000002_Node000028" class="edge">
<title>Node2&#45;&gt;Node28</title>
<g id="a_edge29_Node000002_Node000028"><a xlink:title=" ">
<path fill="none" stroke="#63b8ff" d="M749,-124.64C901.58,-121.95 1621.2,-108.14 1867.99,-81.48"/>
<polygon fill="#63b8ff" stroke="#63b8ff" points="1868.33,-84.96 1877.88,-80.37 1867.55,-78.01 1868.33,-84.96"/>
</a>
</g>
</g>
<!-- Node29 -->
<g id="Node000029" class="node">
<title>Node29</title>
<g id="a_Node000029"><a xlink:href="a60-svg-sequences_8h.html" target="_top" xlink:title=" ">
<polygon fill="white" stroke="#666666" points="488.62,-76.38 384.12,-76.38 384.12,-58.62 488.62,-58.62 488.62,-76.38"/>
<text text-anchor="middle" x="436.38" y="-64.78" font-family="SourceSans" font-size="8.00">a60&#45;svg&#45;sequences.h</text>
</a>
</g>
</g>
<!-- Node2&#45;&gt;Node29 -->
<g id="edge30_Node000002_Node000029" class="edge">
<title>Node2&#45;&gt;Node29</title>
<g id="a_edge30_Node000002_Node000029"><a xlink:title=" ">
<path fill="none" stroke="#63b8ff" d="M691.95,-120.64C648.02,-112.76 561.97,-95.89 489.38,-81.25 485.98,-80.57 482.49,-79.86 478.98,-79.14"/>
<polygon fill="#63b8ff" stroke="#63b8ff" points="479.85,-75.75 469.35,-77.15 478.43,-82.6 479.85,-75.75"/>
</a>
</g>
</g>
<!-- Node13&#45;&gt;Node5 -->
<g id="edge14_Node000013_Node000005" class="edge">
<title>Node13&#45;&gt;Node5</title>
<g id="a_edge14_Node000013_Node000005"><a xlink:title=" ">
<path fill="none" stroke="#63b8ff" d="M186.88,-58.14C169.96,-49.02 142.59,-34.26 122.57,-23.46"/>
<polygon fill="#63b8ff" stroke="#63b8ff" points="124.39,-20.46 113.92,-18.8 121.06,-26.63 124.39,-20.46"/>
</a>
</g>
</g>
<!-- Node14 -->
<g id="Node000014" class="node">
<title>Node14</title>
<g id="a_Node000014"><a xlink:title=" ">
<polygon fill="#e0e0e0" stroke="#999999" points="244.38,-17.75 210.38,-17.75 210.38,0 244.38,0 244.38,-17.75"/>
<text text-anchor="middle" x="227.38" y="-6.15" font-family="SourceSans" font-size="8.00">map</text>
</a>
</g>
</g>
<!-- Node13&#45;&gt;Node14 -->
<g id="edge13_Node000013_Node000014" class="edge">
<title>Node13&#45;&gt;Node14</title>
<g id="a_edge13_Node000013_Node000014"><a xlink:title=" ">
<path fill="none" stroke="#63b8ff" d="M206.06,-58.14C209.54,-50.28 214.86,-38.23 219.31,-28.13"/>
<polygon fill="#63b8ff" stroke="#63b8ff" points="222.38,-29.84 223.22,-19.28 215.98,-27.02 222.38,-29.84"/>
</a>
</g>
</g>
<!-- Node15 -->
<g id="Node000015" class="node">
<title>Node15</title>
<g id="a_Node000015"><a xlink:title=" ">
<polygon fill="#e0e0e0" stroke="#999999" points="377.12,-17.75 329.62,-17.75 329.62,0 377.12,0 377.12,-17.75"/>
<text text-anchor="middle" x="353.38" y="-6.15" font-family="SourceSans" font-size="8.00">random</text>
</a>
</g>
</g>
<!-- Node13&#45;&gt;Node15 -->
<g id="edge15_Node000013_Node000015" class="edge">
<title>Node13&#45;&gt;Node15</title>
<g id="a_edge15_Node000013_Node000015"><a xlink:title=" ">
<path fill="none" stroke="#63b8ff" d="M224.66,-58.14C250.12,-48.6 292.01,-32.89 321.05,-22"/>
<polygon fill="#63b8ff" stroke="#63b8ff" points="321.94,-25.4 330.08,-18.61 319.48,-18.85 321.94,-25.4"/>
</a>
</g>
</g>
<!-- Node16 -->
<g id="Node000016" class="node">
<title>Node16</title>
<g id="a_Node000016"><a xlink:title=" ">
<polygon fill="#e0e0e0" stroke="#999999" points="191.88,-17.75 142.88,-17.75 142.88,0 191.88,0 191.88,-17.75"/>
<text text-anchor="middle" x="167.38" y="-6.15" font-family="SourceSans" font-size="8.00">iomanip</text>
</a>
</g>
</g>
<!-- Node13&#45;&gt;Node16 -->
<g id="edge16_Node000013_Node000016" class="edge">
<title>Node13&#45;&gt;Node16</title>
<g id="a_edge16_Node000013_Node000016"><a xlink:title=" ">
<path fill="none" stroke="#63b8ff" d="M197.21,-58.14C192.24,-50.11 184.58,-37.71 178.26,-27.48"/>
<polygon fill="#63b8ff" stroke="#63b8ff" points="181.36,-25.85 173.13,-19.19 175.41,-29.53 181.36,-25.85"/>
</a>
</g>
</g>
<!-- Node19&#45;&gt;Node14 -->
<g id="edge20_Node000019_Node000014" class="edge">
<title>Node19&#45;&gt;Node14</title>
<g id="a_edge20_Node000019_Node000014"><a xlink:title=" ">
<path fill="none" stroke="#63b8ff" d="M300.69,-58.14C287.14,-49.23 265.44,-34.94 249.15,-24.22"/>
<polygon fill="#63b8ff" stroke="#63b8ff" points="251.38,-21.49 241.1,-18.91 247.53,-27.34 251.38,-21.49"/>
</a>
</g>
</g>
<!-- Node20 -->
<g id="Node000020" class="node">
<title>Node20</title>
<g id="a_Node000020"><a xlink:title=" ">
<polygon fill="#e0e0e0" stroke="#999999" points="311.88,-17.75 262.88,-17.75 262.88,0 311.88,0 311.88,-17.75"/>
<text text-anchor="middle" x="287.38" y="-6.15" font-family="SourceSans" font-size="8.00">ostream</text>
</a>
</g>
</g>
<!-- Node19&#45;&gt;Node20 -->
<g id="edge21_Node000019_Node000020" class="edge">
<title>Node19&#45;&gt;Node20</title>
<g id="a_edge21_Node000019_Node000020"><a xlink:title=" ">
<path fill="none" stroke="#63b8ff" d="M309.54,-58.14C305.93,-50.28 300.39,-38.23 295.76,-28.13"/>
<polygon fill="#63b8ff" stroke="#63b8ff" points="299.04,-26.9 291.69,-19.27 292.68,-29.82 299.04,-26.9"/>
</a>
</g>
</g>
<!-- Node21 -->
<g id="Node000021" class="node">
<title>Node21</title>
<g id="a_Node000021"><a xlink:title=" ">
<polygon fill="#e0e0e0" stroke="#999999" points="503.75,-17.75 457,-17.75 457,0 503.75,0 503.75,-17.75"/>
<text text-anchor="middle" x="480.38" y="-6.15" font-family="SourceSans" font-size="8.00">fstream</text>
</a>
</g>
</g>
<!-- Node19&#45;&gt;Node21 -->
<g id="edge22_Node000019_Node000021" class="edge">
<title>Node19&#45;&gt;Node21</title>
<g id="a_edge22_Node000019_Node000021"><a xlink:title=" ">
<path fill="none" stroke="#63b8ff" d="M338.02,-58.14C366.59,-48.46 413.86,-32.43 446.02,-21.52"/>
<polygon fill="#63b8ff" stroke="#63b8ff" points="446.93,-24.91 455.28,-18.38 444.69,-18.28 446.93,-24.91"/>
</a>
</g>
</g>
<!-- Node22 -->
<g id="Node000022" class="node">
<title>Node22</title>
<g id="a_Node000022"><a xlink:title=" ">
<polygon fill="#e0e0e0" stroke="#999999" points="439.25,-17.75 395.5,-17.75 395.5,0 439.25,0 439.25,-17.75"/>
<text text-anchor="middle" x="417.38" y="-6.15" font-family="SourceSans" font-size="8.00">cstdint</text>
</a>
</g>
</g>
<!-- Node19&#45;&gt;Node22 -->
<g id="edge23_Node000019_Node000022" class="edge">
<title>Node19&#45;&gt;Node22</title>
<g id="a_edge23_Node000019_Node000022"><a xlink:title=" ">
<path fill="none" stroke="#63b8ff" d="M328.72,-58.14C345.48,-49.02 372.59,-34.26 392.42,-23.46"/>
<polygon fill="#63b8ff" stroke="#63b8ff" points="393.87,-26.66 400.98,-18.8 390.52,-20.51 393.87,-26.66"/>
</a>
</g>
</g>
<!-- Node29&#45;&gt;Node2 -->
<g id="edge34_Node000029_Node000002" class="edge">
<title>Node29&#45;&gt;Node2</title>
<g id="a_edge34_Node000029_Node000002"><a xlink:title=" ">
<path fill="none" stroke="#63b8ff" d="M485.57,-76.84C492.93,-78.32 500.37,-79.84 507.38,-81.25 567.88,-93.45 637.72,-107.2 680.58,-116"/>
<polygon fill="#63b8ff" stroke="#63b8ff" points="679.68,-119.39 690.18,-117.99 681.1,-112.53 679.68,-119.39"/>
</a>
</g>
</g>
<!-- Node29&#45;&gt;Node15 -->
<g id="edge32_Node000029_Node000015" class="edge">
<title>Node29&#45;&gt;Node15</title>
<g id="a_edge32_Node000029_Node000015"><a xlink:title=" ">
<path fill="none" stroke="#63b8ff" d="M424.13,-58.14C411.18,-49.31 390.51,-35.21 374.84,-24.52"/>
<polygon fill="#63b8ff" stroke="#63b8ff" points="376.89,-21.68 366.65,-18.93 372.94,-27.46 376.89,-21.68"/>
</a>
</g>
</g>
<!-- Node29&#45;&gt;Node21 -->
<g id="edge31_Node000029_Node000021" class="edge">
<title>Node29&#45;&gt;Node21</title>
<g id="a_edge31_Node000029_Node000021"><a xlink:title=" ">
<path fill="none" stroke="#63b8ff" d="M442.87,-58.14C449.24,-49.94 459.16,-37.18 467.19,-26.84"/>
<polygon fill="#63b8ff" stroke="#63b8ff" points="469.84,-29.14 473.21,-19.09 464.31,-24.84 469.84,-29.14"/>
</a>
</g>
</g>
<!-- Node30 -->
<g id="Node000030" class="node">
<title>Node30</title>
<g id="a_Node000030"><a xlink:title=" ">
<polygon fill="#e0e0e0" stroke="#999999" points="570.88,-17.75 521.88,-17.75 521.88,0 570.88,0 570.88,-17.75"/>
<text text-anchor="middle" x="546.38" y="-6.15" font-family="SourceSans" font-size="8.00">unistd.h</text>
</a>
</g>
</g>
<!-- Node29&#45;&gt;Node30 -->
<g id="edge33_Node000029_Node000030" class="edge">
<title>Node29&#45;&gt;Node30</title>
<g id="a_edge33_Node000029_Node000030"><a xlink:title=" ">
<path fill="none" stroke="#63b8ff" d="M452.61,-58.14C470.42,-48.98 499.27,-34.12 520.27,-23.31"/>
<polygon fill="#63b8ff" stroke="#63b8ff" points="521.8,-26.46 529.09,-18.77 518.6,-20.24 521.8,-26.46"/>
</a>
</g>
</g>
</g>
</svg>

<g id="navigator" transform="translate(0 0)" fill="#404254">
  <rect fill="#f2f5e9" fill-opacity="0.5" stroke="#606060" stroke-width=".5" x="0" y="0" width="60" height="60"/>
  <use id="zoomplus" xlink:href="#zoomPlus" x="17" y="9" onmousedown="handleZoom(evt,'in')"/>
  <use id="zoomminus" xlink:href="#zoomMin" x="42" y="9" onmousedown="handleZoom(evt,'out')"/>
  <use id="reset" xlink:href="#resetDef" x="30" y="36" onmousedown="handleReset()"/>
   <use id="arrowup" xlink:href="#arrowUp" x="0" y="0" onmousedown="handlePan(0,-1)"/>
  <use id="arrowright" xlink:href="#arrowRight" x="0" y="0" onmousedown="handlePan(1,0)"/>
  <use id="arrowdown" xlink:href="#arrowDown" x="0" y="0" onmousedown="handlePan(0,1)"/>
  <use id="arrowleft" xlink:href="#arrowLeft" x="0" y="0" onmousedown="handlePan(-1,0)"/>
</g>
<svg viewBox="0 0 15 15" width="100%" height="30px" preserveAspectRatio="xMaxYMin meet">
 <g id="arrow_out" transform="scale(0.3 0.3)">
  <a xlink:href="a60-svg-linear_8h__incl_org.svg" target="_base">
   <rect id="button" ry="5" rx="5" y="6" x="6" height="38" width="38"
        fill="#f2f5e9" fill-opacity="0.5" stroke="#606060" stroke-width="1.0"/>
   <path id="arrow"
     d="M 11.500037,31.436501 C 11.940474,20.09759 22.043105,11.32322 32.158766,21.979434 L 37.068811,17.246167 C 37.068811,17.246167 37.088388,32 37.088388,32 L 22.160133,31.978069 C 22.160133,31.978069 26.997745,27.140456 26.997745,27.140456 C 18.528582,18.264221 13.291696,25.230495 11.500037,31.436501 z"
     style="fill:#404040;"/>
  </a>
 </g>
</svg>

<style type='text/css'>
<![CDATA[
[data-mouse-over-selected='false'] { opacity: 0.7; }
[data-mouse-over-selected='true']  { opacity: 1.0; }
]]>
</style>
<script type="application/ecmascript"><![CDATA[
document.addEventListener('DOMContentLoaded', (event) => {
  highlightEdges();
  highlightAdjacentNodes();
});
]]></script>
</svg>
