<?xml version="1.0" encoding="UTF-8" standalone="no"?>
<!DOCTYPE svg PUBLIC "-//W3C//DTD SVG 1.1//EN"
 "http://www.w3.org/Graphics/SVG/1.1/DTD/svg11.dtd">
<!-- Generated by graphviz version 12.2.1 (20241206.2353)
 -->
<!-- Title: /home/bkoz/src/izzi/src/a60&#45;svg&#45;linear.h Pages: 1 -->
<!--zoomable 207 -->

<svg id="main" version="1.1" xmlns="http://www.w3.org/2000/svg" xmlns:xlink="http://www.w3.org/1999/xlink" xml:space="preserve" onload="init(evt)">

<style type="text/css"><![CDATA[
.node, .edge {opacity: 0.7;}
.node.selected, .edge.selected {opacity: 1;}
.edge:hover path { stroke: red; }
.edge:hover polygon { stroke: red; fill: red; }
]]></style>

<defs>
  <circle id="rim" cx="0" cy="0" r="7"/>
  <circle id="rim2" cx="0" cy="0" r="3.5"/>
  <g id="zoomPlus">
    <use xlink:href="#rim" fill="#404040"><set attributeName="fill" to="#808080" begin="zoomplus.mouseover" end="zoomplus.mouseout"/></use>
    <path d="M-4,0h8M0,-4v8" fill="none" stroke="white" stroke-width="1.5" pointer-events="none"/>
  </g>
  <g id="zoomMin">
    <use xlink:href="#rim" fill="#404040"><set attributeName="fill" to="#808080" begin="zoomminus.mouseover" end="zoomminus.mouseout"/></use>
    <path d="M-4,0h8" fill="none" stroke="white" stroke-width="1.5" pointer-events="none"/>
  </g>
  <g id="arrowUp" transform="translate(30 24)">
    <use xlink:href="#rim"/>
    <path pointer-events="none" fill="none" stroke="white" stroke-width="1.5" d="M0,-3.0v7 M-2.5,-0.5L0,-3.0L2.5,-0.5"/>
  </g>
  <g id="arrowRight" transform="rotate(90) translate(36 -43)">
    <use xlink:href="#rim"/>
    <path pointer-events="none" fill="none" stroke="white" stroke-width="1.5" d="M0,-3.0v7 M-2.5,-0.5L0,-3.0L2.5,-0.5"/>
  </g>
  <g id="arrowDown" transform="rotate(180) translate(-30 -48)">
    <use xlink:href="#rim"/>
    <path pointer-events="none" fill="none" stroke="white" stroke-width="1.5" d="M0,-3.0v7 M-2.5,-0.5L0,-3.0L2.5,-0.5"/>
  </g>
  <g id="arrowLeft" transform="rotate(270) translate(-36 17)">
    <use xlink:href="#rim"/>
    <path pointer-events="none" fill="none" stroke="white" stroke-width="1.5" d="M0,-3.0v7 M-2.5,-0.5L0,-3.0L2.5,-0.5"/>
  </g>
  <g id="resetDef">
    <use xlink:href="#rim2" fill="#404040"><set attributeName="fill" to="#808080" begin="reset.mouseover" end="reset.mouseout"/></use>
  </g>
</defs>
<script type="application/ecmascript">
var viewWidth = 1962;
var viewHeight = 207;
var sectionId = 'dynsection-0';
</script>
<script type="application/ecmascript" xlink:href="svg.min.js"/>
<svg id="graph" class="graph">
<g id="viewport">
<title>/home/bkoz/src/izzi/src/a60&#45;svg&#45;linear.h</title>
<!-- Node1 -->
<g id="Node000001" class="node">
<title>Node1</title>
<g id="a_Node000001"><a xlink:title=" ">
<polygon fill="#999999" stroke="#666666" points="786.75,-198.5 686,-198.5 686,-171 786.75,-171 786.75,-198.5"/>
<text text-anchor="start" x="694" y="-186.9" font-family="SourceSans" font-size="8.00">/home/bkoz/src/izzi</text>
<text text-anchor="middle" x="736.38" y="-177.15" font-family="SourceSans" font-size="8.00">/src/a60&#45;svg&#45;linear.h</text>
</a>
</g>
</g>
<!-- Node2 -->
<g id="Node000002" class="node">
<title>Node2</title>
<g id="a_Node000002"><a xlink:href="a60-svg_8h.html" target="_top" xlink:title=" ">
<polygon fill="white" stroke="#666666" points="764.62,-135 708.12,-135 708.12,-117.25 764.62,-117.25 764.62,-135"/>
<text text-anchor="middle" x="736.38" y="-123.4" font-family="SourceSans" font-size="8.00">a60&#45;svg.h</text>
</a>
</g>
</g>
<!-- Node1&#45;&gt;Node2 -->
<g id="edge1_Node000001_Node000002" class="edge">
<title>Node1&#45;&gt;Node2</title>
<g id="a_edge1_Node000001_Node000002"><a xlink:title=" ">
<path fill="none" stroke="#63b8ff" d="M736.38,-170.62C736.38,-163.58 736.38,-154.78 736.38,-146.93"/>
<polygon fill="#63b8ff" stroke="#63b8ff" points="739.88,-146.96 736.38,-136.96 732.88,-146.96 739.88,-146.96"/>
</a>
</g>
</g>
<!-- Node3 -->
<g id="Node000003" class="node">
<title>Node3</title>
<g id="a_Node000003"><a xlink:title=" ">
<polygon fill="#e0e0e0" stroke="#999999" points="46.75,-76.38 0,-76.38 0,-58.62 46.75,-58.62 46.75,-76.38"/>
<text text-anchor="middle" x="23.38" y="-64.78" font-family="SourceSans" font-size="8.00">cstddef</text>
</a>
</g>
</g>
<!-- Node2&#45;&gt;Node3 -->
<g id="edge2_Node000002_Node000003" class="edge">
<title>Node2&#45;&gt;Node3</title>
<g id="a_edge2_Node000002_Node000003"><a xlink:title=" ">
<path fill="none" stroke="#63b8ff" d="M707.69,-124.48C595,-121.74 182.65,-109.94 55.38,-81.25 54.21,-80.99 53.03,-80.69 51.84,-80.36"/>
<polygon fill="#63b8ff" stroke="#63b8ff" points="53.36,-77.18 42.77,-77.29 51.12,-83.81 53.36,-77.18"/>
</a>
</g>
</g>
<!-- Node4 -->
<g id="Node000004" class="node">
<title>Node4</title>
<g id="a_Node000004"><a xlink:title=" ">
<polygon fill="#e0e0e0" stroke="#999999" points="106.12,-76.38 64.62,-76.38 64.62,-58.62 106.12,-58.62 106.12,-76.38"/>
<text text-anchor="middle" x="85.38" y="-64.78" font-family="SourceSans" font-size="8.00">cmath</text>
</a>
</g>
</g>
<!-- Node2&#45;&gt;Node4 -->
<g id="edge3_Node000002_Node000004" class="edge">
<title>Node2&#45;&gt;Node4</title>
<g id="a_edge3_Node000002_Node000004"><a xlink:title=" ">
<path fill="none" stroke="#63b8ff" d="M707.64,-124.4C601.13,-121.53 229.19,-109.63 114.38,-81.25 113.71,-81.09 113.04,-80.91 112.36,-80.71"/>
<polygon fill="#63b8ff" stroke="#63b8ff" points="113.61,-77.44 103.01,-77.31 111.22,-84.02 113.61,-77.44"/>
</a>
</g>
</g>
<!-- Node5 -->
<g id="Node000005" class="node">
<title>Node5</title>
<g id="a_Node000005"><a xlink:title=" ">
<polygon fill="#e0e0e0" stroke="#999999" points="160.88,-76.38 123.88,-76.38 123.88,-58.62 160.88,-58.62 160.88,-76.38"/>
<text text-anchor="middle" x="142.38" y="-64.78" font-family="SourceSans" font-size="8.00">array</text>
</a>
</g>
</g>
<!-- Node2&#45;&gt;Node5 -->
<g id="edge4_Node000002_Node000005" class="edge">
<title>Node2&#45;&gt;Node5</title>
<g id="a_edge4_Node000002_Node000005"><a xlink:title=" ">
<path fill="none" stroke="#63b8ff" d="M707.83,-124.23C607.84,-120.88 273.81,-107.92 170.38,-81.25 169.73,-81.08 169.08,-80.9 168.43,-80.71"/>
<polygon fill="#63b8ff" stroke="#63b8ff" points="170.02,-77.57 159.43,-77.31 167.55,-84.12 170.02,-77.57"/>
</a>
</g>
</g>
<!-- Node6 -->
<g id="Node000006" class="node">
<title>Node6</title>
<g id="a_Node000006"><a xlink:title=" ">
<polygon fill="#e0e0e0" stroke="#999999" points="215.88,-76.38 178.88,-76.38 178.88,-58.62 215.88,-58.62 215.88,-76.38"/>
<text text-anchor="middle" x="197.38" y="-64.78" font-family="SourceSans" font-size="8.00">tuple</text>
</a>
</g>
</g>
<!-- Node2&#45;&gt;Node6 -->
<g id="edge5_Node000002_Node000006" class="edge">
<title>Node2&#45;&gt;Node6</title>
<g id="a_edge5_Node000002_Node000006"><a xlink:title=" ">
<path fill="none" stroke="#63b8ff" d="M707.66,-124C613.78,-120.13 316.76,-106.16 224.38,-81.25 223.87,-81.12 223.37,-80.97 222.87,-80.82"/>
<polygon fill="#63b8ff" stroke="#63b8ff" points="224.43,-77.67 213.85,-77.31 221.9,-84.2 224.43,-77.67"/>
</a>
</g>
</g>
<!-- Node7 -->
<g id="Node000007" class="node">
<title>Node7</title>
<g id="a_Node000007"><a xlink:title=" ">
<polygon fill="#e0e0e0" stroke="#999999" points="273,-76.38 233.75,-76.38 233.75,-58.62 273,-58.62 273,-76.38"/>
<text text-anchor="middle" x="253.38" y="-64.78" font-family="SourceSans" font-size="8.00">string</text>
</a>
</g>
</g>
<!-- Node2&#45;&gt;Node7 -->
<g id="edge6_Node000002_Node000007" class="edge">
<title>Node2&#45;&gt;Node7</title>
<g id="a_edge6_Node000002_Node000007"><a xlink:title=" ">
<path fill="none" stroke="#63b8ff" d="M707.84,-125.61C635.28,-126.15 438.33,-123.29 281.38,-81.25 280.87,-81.12 280.37,-80.97 279.86,-80.82"/>
<polygon fill="#63b8ff" stroke="#63b8ff" points="281.33,-77.64 270.74,-77.39 278.87,-84.19 281.33,-77.64"/>
</a>
</g>
</g>
<!-- Node8 -->
<g id="Node000008" class="node">
<title>Node8</title>
<g id="a_Node000008"><a xlink:title=" ">
<polygon fill="#e0e0e0" stroke="#999999" points="332.12,-76.38 290.62,-76.38 290.62,-58.62 332.12,-58.62 332.12,-76.38"/>
<text text-anchor="middle" x="311.38" y="-64.78" font-family="SourceSans" font-size="8.00">vector</text>
</a>
</g>
</g>
<!-- Node2&#45;&gt;Node8 -->
<g id="edge7_Node000002_Node000008" class="edge">
<title>Node2&#45;&gt;Node8</title>
<g id="a_edge7_Node000002_Node000008"><a xlink:title=" ">
<path fill="none" stroke="#63b8ff" d="M708.09,-124.79C642.53,-123.4 475.53,-116.4 341.38,-81.25 340.57,-81.04 339.77,-80.81 338.96,-80.57"/>
<polygon fill="#63b8ff" stroke="#63b8ff" points="340.54,-77.42 329.95,-77.31 338.16,-84 340.54,-77.42"/>
</a>
</g>
</g>
<!-- Node9 -->
<g id="Node000009" class="node">
<title>Node9</title>
<g id="a_Node000009"><a xlink:title=" ">
<polygon fill="#e0e0e0" stroke="#999999" points="378.77,-76.38 349.98,-76.38 349.98,-58.62 378.77,-58.62 378.77,-76.38"/>
<text text-anchor="middle" x="364.38" y="-64.78" font-family="SourceSans" font-size="8.00">set</text>
</a>
</g>
</g>
<!-- Node2&#45;&gt;Node9 -->
<g id="edge8_Node000002_Node000009" class="edge">
<title>Node2&#45;&gt;Node9</title>
<g id="a_edge8_Node000002_Node000009"><a xlink:title=" ">
<path fill="none" stroke="#63b8ff" d="M707.99,-125.16C649.21,-124.49 510.2,-119.01 387.78,-80.17"/>
<polygon fill="#63b8ff" stroke="#63b8ff" points="389.15,-76.93 378.56,-77.16 386.97,-83.59 389.15,-76.93"/>
</a>
</g>
</g>
<!-- Node10 -->
<g id="Node000010" class="node">
<title>Node10</title>
<g id="a_Node000010"><a xlink:title=" ">
<polygon fill="#e0e0e0" stroke="#999999" points="476.25,-76.38 396.5,-76.38 396.5,-58.62 476.25,-58.62 476.25,-76.38"/>
<text text-anchor="middle" x="436.38" y="-64.78" font-family="SourceSans" font-size="8.00">unordered_map</text>
</a>
</g>
</g>
<!-- Node2&#45;&gt;Node10 -->
<g id="edge9_Node000002_Node000010" class="edge">
<title>Node2&#45;&gt;Node10</title>
<g id="a_edge9_Node000002_Node000010"><a xlink:title=" ">
<path fill="none" stroke="#63b8ff" d="M708,-120.94C661.33,-113.88 565.57,-98.66 485.38,-81.25 482.93,-80.72 480.43,-80.15 477.9,-79.56"/>
<polygon fill="#63b8ff" stroke="#63b8ff" points="478.88,-76.19 468.33,-77.2 477.21,-82.99 478.88,-76.19"/>
</a>
</g>
</g>
<!-- Node11 -->
<g id="Node000011" class="node">
<title>Node11</title>
<g id="a_Node000011"><a xlink:title=" ">
<polygon fill="#e0e0e0" stroke="#999999" points="542.5,-76.38 494.25,-76.38 494.25,-58.62 542.5,-58.62 542.5,-76.38"/>
<text text-anchor="middle" x="518.38" y="-64.78" font-family="SourceSans" font-size="8.00">sstream</text>
</a>
</g>
</g>
<!-- Node2&#45;&gt;Node11 -->
<g id="edge10_Node000002_Node000011" class="edge">
<title>Node2&#45;&gt;Node11</title>
<g id="a_edge10_Node000002_Node000011"><a xlink:title=" ">
<path fill="none" stroke="#63b8ff" d="M707.84,-119.61C671.23,-112.26 605.92,-98.17 551.38,-81.25 550.58,-81 549.78,-80.75 548.98,-80.49"/>
<polygon fill="#63b8ff" stroke="#63b8ff" points="550.49,-77.31 539.89,-77.27 548.15,-83.91 550.49,-77.31"/>
</a>
</g>
</g>
<!-- Node12 -->
<g id="Node000012" class="node">
<title>Node12</title>
<g id="a_Node000012"><a xlink:href="a60-svg-color_8h.html" target="_top" xlink:title=" ">
<polygon fill="white" stroke="#666666" points="886.25,-76.38 806.5,-76.38 806.5,-58.62 886.25,-58.62 886.25,-76.38"/>
<text text-anchor="middle" x="846.38" y="-64.78" font-family="SourceSans" font-size="8.00">a60&#45;svg&#45;color.h</text>
</a>
</g>
</g>
<!-- Node2&#45;&gt;Node12 -->
<g id="edge11_Node000002_Node000012" class="edge">
<title>Node2&#45;&gt;Node12</title>
<g id="a_edge11_Node000002_Node000012"><a xlink:title=" ">
<path fill="none" stroke="#63b8ff" d="M752.61,-116.77C770.42,-107.6 799.27,-92.75 820.27,-81.94"/>
<polygon fill="#63b8ff" stroke="#63b8ff" points="821.8,-85.09 829.09,-77.4 818.6,-78.86 821.8,-85.09"/>
</a>
</g>
</g>
<!-- Node17 -->
<g id="Node000017" class="node">
<title>Node17</title>
<g id="a_Node000017"><a xlink:href="a60-svg-color-palette_8h.html" target="_top" xlink:title=" ">
<polygon fill="white" stroke="#666666" points="1016.38,-76.38 904.38,-76.38 904.38,-58.62 1016.38,-58.62 1016.38,-76.38"/>
<text text-anchor="middle" x="960.38" y="-64.78" font-family="SourceSans" font-size="8.00">a60&#45;svg&#45;color&#45;palette.h</text>
</a>
</g>
</g>
<!-- Node2&#45;&gt;Node17 -->
<g id="edge16_Node000002_Node000017" class="edge">
<title>Node2&#45;&gt;Node17</title>
<g id="a_edge16_Node000002_Node000017"><a xlink:title=" ">
<path fill="none" stroke="#63b8ff" d="M764.74,-117.95C803.06,-108.27 871.7,-90.92 916.63,-79.56"/>
<polygon fill="#63b8ff" stroke="#63b8ff" points="917.21,-83.02 926.05,-77.18 915.5,-76.23 917.21,-83.02"/>
</a>
</g>
</g>
<!-- Node18 -->
<g id="Node000018" class="node">
<title>Node18</title>
<g id="a_Node000018"><a xlink:href="a60-svg-color-colorband_8h.html" target="_top" xlink:title=" ">
<polygon fill="white" stroke="#666666" points="1158.38,-76.38 1034.38,-76.38 1034.38,-58.62 1158.38,-58.62 1158.38,-76.38"/>
<text text-anchor="middle" x="1096.38" y="-64.78" font-family="SourceSans" font-size="8.00">a60&#45;svg&#45;color&#45;colorband.h</text>
</a>
</g>
</g>
<!-- Node2&#45;&gt;Node18 -->
<g id="edge17_Node000002_Node000018" class="edge">
<title>Node2&#45;&gt;Node18</title>
<g id="a_edge17_Node000002_Node000018"><a xlink:title=" ">
<path fill="none" stroke="#63b8ff" d="M764.72,-121.08C816.54,-113.63 930,-97.05 1025.38,-81.25 1030.03,-80.48 1034.86,-79.66 1039.7,-78.82"/>
<polygon fill="#63b8ff" stroke="#63b8ff" points="1040.22,-82.28 1049.46,-77.11 1039.01,-75.39 1040.22,-82.28"/>
</a>
</g>
</g>
<!-- Node19 -->
<g id="Node000019" class="node">
<title>Node19</title>
<g id="a_Node000019"><a xlink:href="a60-svg-base-types_8h.html" target="_top" xlink:title=" ">
<polygon fill="white" stroke="#666666" points="666,-76.38 560.75,-76.38 560.75,-58.62 666,-58.62 666,-76.38"/>
<text text-anchor="middle" x="613.38" y="-64.78" font-family="SourceSans" font-size="8.00">a60&#45;svg&#45;base&#45;types.h</text>
</a>
</g>
</g>
<!-- Node2&#45;&gt;Node19 -->
<g id="edge18_Node000002_Node000019" class="edge">
<title>Node2&#45;&gt;Node19</title>
<g id="a_edge18_Node000002_Node000019"><a xlink:title=" ">
<path fill="none" stroke="#63b8ff" d="M718.23,-116.77C698.03,-107.47 665.16,-92.34 641.6,-81.49"/>
<polygon fill="#63b8ff" stroke="#63b8ff" points="643.12,-78.34 632.57,-77.34 640.19,-84.7 643.12,-78.34"/>
</a>
</g>
</g>
<!-- Node23 -->
<g id="Node000023" class="node">
<title>Node23</title>
<g id="a_Node000023"><a xlink:href="a60-svg-constants_8h.html" target="_top" xlink:title=" ">
<polygon fill="white" stroke="#666666" points="1276.38,-76.38 1176.38,-76.38 1176.38,-58.62 1276.38,-58.62 1276.38,-76.38"/>
<text text-anchor="middle" x="1226.38" y="-64.78" font-family="SourceSans" font-size="8.00">a60&#45;svg&#45;constants.h</text>
</a>
</g>
</g>
<!-- Node2&#45;&gt;Node23 -->
<g id="edge23_Node000002_Node000023" class="edge">
<title>Node2&#45;&gt;Node23</title>
<g id="a_edge23_Node000002_Node000023"><a xlink:title=" ">
<path fill="none" stroke="#63b8ff" d="M765.01,-123.32C834.37,-118.7 1016.76,-105.11 1167.38,-81.25 1171.44,-80.61 1175.65,-79.86 1179.87,-79.05"/>
<polygon fill="#63b8ff" stroke="#63b8ff" points="1180.33,-82.53 1189.44,-77.13 1178.95,-75.67 1180.33,-82.53"/>
</a>
</g>
</g>
<!-- Node24 -->
<g id="Node000024" class="node">
<title>Node24</title>
<g id="a_Node000024"><a xlink:href="a60-svg-elements_8h.html" target="_top" xlink:title=" ">
<polygon fill="white" stroke="#666666" points="1392.25,-76.38 1294.5,-76.38 1294.5,-58.62 1392.25,-58.62 1392.25,-76.38"/>
<text text-anchor="middle" x="1343.38" y="-64.78" font-family="SourceSans" font-size="8.00">a60&#45;svg&#45;elements.h</text>
</a>
</g>
</g>
<!-- Node2&#45;&gt;Node24 -->
<g id="edge24_Node000002_Node000024" class="edge">
<title>Node2&#45;&gt;Node24</title>
<g id="a_edge24_Node000002_Node000024"><a xlink:title=" ">
<path fill="none" stroke="#63b8ff" d="M765.11,-124.21C846.88,-121.32 1087.72,-110.73 1285.38,-81.25 1289.49,-80.64 1293.75,-79.9 1298.01,-79.09"/>
<polygon fill="#63b8ff" stroke="#63b8ff" points="1298.58,-82.55 1307.69,-77.13 1297.19,-75.69 1298.58,-82.55"/>
</a>
</g>
</g>
<!-- Node25 -->
<g id="Node000025" class="node">
<title>Node25</title>
<g id="a_Node000025"><a xlink:href="a60-svg-elements-components_8h.html" target="_top" xlink:title=" ">
<polygon fill="white" stroke="#666666" points="1562.25,-76.38 1410.5,-76.38 1410.5,-58.62 1562.25,-58.62 1562.25,-76.38"/>
<text text-anchor="middle" x="1486.38" y="-64.78" font-family="SourceSans" font-size="8.00">a60&#45;svg&#45;elements&#45;components.h</text>
</a>
</g>
</g>
<!-- Node2&#45;&gt;Node25 -->
<g id="edge25_Node000002_Node000025" class="edge">
<title>Node2&#45;&gt;Node25</title>
<g id="a_edge25_Node000002_Node000025"><a xlink:title=" ">
<path fill="none" stroke="#63b8ff" d="M764.97,-124.09C857.3,-120.56 1155.77,-107.73 1401.38,-81.25 1408.85,-80.44 1416.68,-79.46 1424.43,-78.4"/>
<polygon fill="#63b8ff" stroke="#63b8ff" points="1424.77,-81.89 1434.18,-77.02 1423.78,-74.96 1424.77,-81.89"/>
</a>
</g>
</g>
<!-- Node26 -->
<g id="Node000026" class="node">
<title>Node26</title>
<g id="a_Node000026"><a xlink:href="a60-svg-render-state_8h.html" target="_top" xlink:title=" ">
<polygon fill="white" stroke="#666666" points="1690.25,-76.38 1580.5,-76.38 1580.5,-58.62 1690.25,-58.62 1690.25,-76.38"/>
<text text-anchor="middle" x="1635.38" y="-64.78" font-family="SourceSans" font-size="8.00">a60&#45;svg&#45;render&#45;state.h</text>
</a>
</g>
</g>
<!-- Node2&#45;&gt;Node26 -->
<g id="edge26_Node000002_Node000026" class="edge">
<title>Node2&#45;&gt;Node26</title>
<g id="a_edge26_Node000002_Node000026"><a xlink:title=" ">
<path fill="none" stroke="#63b8ff" d="M764.98,-125.11C871.76,-124.75 1257.01,-120.61 1571.38,-81.25 1576.58,-80.6 1582,-79.76 1587.38,-78.84"/>
<polygon fill="#63b8ff" stroke="#63b8ff" points="1587.61,-82.35 1596.81,-77.1 1586.34,-75.47 1587.61,-82.35"/>
</a>
</g>
</g>
<!-- Node27 -->
<g id="Node000027" class="node">
<title>Node27</title>
<g id="a_Node000027"><a xlink:href="a60-svg-render-basics_8h.html" target="_top" xlink:title=" ">
<polygon fill="white" stroke="#666666" points="1822.88,-76.38 1707.88,-76.38 1707.88,-58.62 1822.88,-58.62 1822.88,-76.38"/>
<text text-anchor="middle" x="1765.38" y="-64.78" font-family="SourceSans" font-size="8.00">a60&#45;svg&#45;render&#45;basics.h</text>
</a>
</g>
</g>
<!-- Node2&#45;&gt;Node27 -->
<g id="edge27_Node000002_Node000027" class="edge">
<title>Node2&#45;&gt;Node27</title>
<g id="a_edge27_Node000002_Node000027"><a xlink:title=" ">
<path fill="none" stroke="#63b8ff" d="M764.86,-125.33C881.26,-125.87 1332.09,-124.86 1699.38,-81.25 1704.74,-80.61 1710.33,-79.79 1715.88,-78.87"/>
<polygon fill="#63b8ff" stroke="#63b8ff" points="1716.41,-82.33 1725.64,-77.13 1715.18,-75.43 1716.41,-82.33"/>
</a>
</g>
</g>
<!-- Node28 -->
<g id="Node000028" class="node">
<title>Node28</title>
<g id="a_Node000028"><a xlink:href="a60-svg-composite-and-layer-basics_8h.html" target="_top" xlink:title=" ">
<polygon fill="white" stroke="#666666" points="1954.12,-81.25 1840.62,-81.25 1840.62,-53.75 1954.12,-53.75 1954.12,-81.25"/>
<text text-anchor="start" x="1848.62" y="-69.65" font-family="SourceSans" font-size="8.00">a60&#45;svg&#45;composite&#45;and</text>
<text text-anchor="middle" x="1897.38" y="-59.9" font-family="SourceSans" font-size="8.00">&#45;layer&#45;basics.h</text>
</a>
</g>
</g>
<!-- Node2&#45;&gt;Node28 -->
<g id="edge28_Node000002_Node000028" class="edge">
<title>Node2&#45;&gt;Node28</title>
<g id="a_edge28_Node000002_Node000028"><a xlink:title=" ">
<path fill="none" stroke="#63b8ff" d="M765.1,-124.57C913.42,-121.64 1594.32,-107.04 1829.21,-81.46"/>
<polygon fill="#63b8ff" stroke="#63b8ff" points="1829.34,-84.97 1838.88,-80.36 1828.55,-78.01 1829.34,-84.97"/>
</a>
</g>
</g>
<!-- Node29 -->
<g id="Node000029" class="node">
<title>Node29</title>
<g id="a_Node000029"><a xlink:href="a60-svg-sequences_8h.html" target="_top" xlink:title=" ">
<polygon fill="white" stroke="#666666" points="788.62,-76.38 684.12,-76.38 684.12,-58.62 788.62,-58.62 788.62,-76.38"/>
<text text-anchor="middle" x="736.38" y="-64.78" font-family="SourceSans" font-size="8.00">a60&#45;svg&#45;sequences.h</text>
</a>
</g>
</g>
<!-- Node2&#45;&gt;Node29 -->
<g id="edge29_Node000002_Node000029" class="edge">
<title>Node2&#45;&gt;Node29</title>
<g id="a_edge29_Node000002_Node000029"><a xlink:title=" ">
<path fill="none" stroke="#63b8ff" d="M731.42,-116.77C729.72,-109.16 729.23,-97.62 729.94,-87.74"/>
<polygon fill="#63b8ff" stroke="#63b8ff" points="733.38,-88.41 731.29,-78.02 726.45,-87.45 733.38,-88.41"/>
</a>
</g>
</g>
<!-- Node13 -->
<g id="Node000013" class="node">
<title>Node13</title>
<g id="a_Node000013"><a xlink:title=" ">
<polygon fill="#e0e0e0" stroke="#999999" points="693.38,-17.75 659.38,-17.75 659.38,0 693.38,0 693.38,-17.75"/>
<text text-anchor="middle" x="676.38" y="-6.15" font-family="SourceSans" font-size="8.00">map</text>
</a>
</g>
</g>
<!-- Node12&#45;&gt;Node13 -->
<g id="edge12_Node000012_Node000013" class="edge">
<title>Node12&#45;&gt;Node13</title>
<g id="a_edge12_Node000012_Node000013"><a xlink:title=" ">
<path fill="none" stroke="#63b8ff" d="M821.29,-58.14C790.06,-47.74 736.88,-30.03 704.36,-19.19"/>
<polygon fill="#63b8ff" stroke="#63b8ff" points="705.81,-15.99 695.22,-16.15 703.6,-22.63 705.81,-15.99"/>
</a>
</g>
</g>
<!-- Node14 -->
<g id="Node000014" class="node">
<title>Node14</title>
<g id="a_Node000014"><a xlink:title=" ">
<polygon fill="#e0e0e0" stroke="#999999" points="898.88,-17.75 843.88,-17.75 843.88,0 898.88,0 898.88,-17.75"/>
<text text-anchor="middle" x="871.38" y="-6.15" font-family="SourceSans" font-size="8.00">algorithm</text>
</a>
</g>
</g>
<!-- Node12&#45;&gt;Node14 -->
<g id="edge13_Node000012_Node000014" class="edge">
<title>Node12&#45;&gt;Node14</title>
<g id="a_edge13_Node000012_Node000014"><a xlink:title=" ">
<path fill="none" stroke="#63b8ff" d="M850.06,-58.14C853.54,-50.28 858.86,-38.23 863.31,-28.13"/>
<polygon fill="#63b8ff" stroke="#63b8ff" points="866.38,-29.84 867.22,-19.28 859.98,-27.02 866.38,-29.84"/>
</a>
</g>
</g>
<!-- Node15 -->
<g id="Node000015" class="node">
<title>Node15</title>
<g id="a_Node000015"><a xlink:title=" ">
<polygon fill="#e0e0e0" stroke="#999999" points="826.12,-17.75 778.62,-17.75 778.62,0 826.12,0 826.12,-17.75"/>
<text text-anchor="middle" x="802.38" y="-6.15" font-family="SourceSans" font-size="8.00">random</text>
</a>
</g>
</g>
<!-- Node12&#45;&gt;Node15 -->
<g id="edge14_Node000012_Node000015" class="edge">
<title>Node12&#45;&gt;Node15</title>
<g id="a_edge14_Node000012_Node000015"><a xlink:title=" ">
<path fill="none" stroke="#63b8ff" d="M839.88,-58.14C833.51,-49.94 823.59,-37.18 815.56,-26.84"/>
<polygon fill="#63b8ff" stroke="#63b8ff" points="818.44,-24.84 809.54,-19.09 812.91,-29.14 818.44,-24.84"/>
</a>
</g>
</g>
<!-- Node16 -->
<g id="Node000016" class="node">
<title>Node16</title>
<g id="a_Node000016"><a xlink:title=" ">
<polygon fill="#e0e0e0" stroke="#999999" points="965.88,-17.75 916.88,-17.75 916.88,0 965.88,0 965.88,-17.75"/>
<text text-anchor="middle" x="941.38" y="-6.15" font-family="SourceSans" font-size="8.00">iomanip</text>
</a>
</g>
</g>
<!-- Node12&#45;&gt;Node16 -->
<g id="edge15_Node000012_Node000016" class="edge">
<title>Node12&#45;&gt;Node16</title>
<g id="a_edge15_Node000012_Node000016"><a xlink:title=" ">
<path fill="none" stroke="#63b8ff" d="M860.39,-58.14C875.49,-49.14 899.78,-34.67 917.82,-23.91"/>
<polygon fill="#63b8ff" stroke="#63b8ff" points="919.51,-26.98 926.31,-18.86 915.93,-20.97 919.51,-26.98"/>
</a>
</g>
</g>
<!-- Node19&#45;&gt;Node13 -->
<g id="edge19_Node000019_Node000013" class="edge">
<title>Node19&#45;&gt;Node13</title>
<g id="a_edge19_Node000019_Node000013"><a xlink:title=" ">
<path fill="none" stroke="#63b8ff" d="M622.67,-58.14C632.18,-49.6 647.17,-36.12 658.91,-25.58"/>
<polygon fill="#63b8ff" stroke="#63b8ff" points="661.23,-28.2 666.32,-18.91 656.55,-22.99 661.23,-28.2"/>
</a>
</g>
</g>
<!-- Node20 -->
<g id="Node000020" class="node">
<title>Node20</title>
<g id="a_Node000020"><a xlink:title=" ">
<polygon fill="#e0e0e0" stroke="#999999" points="515.88,-17.75 466.88,-17.75 466.88,0 515.88,0 515.88,-17.75"/>
<text text-anchor="middle" x="491.38" y="-6.15" font-family="SourceSans" font-size="8.00">ostream</text>
</a>
</g>
</g>
<!-- Node19&#45;&gt;Node20 -->
<g id="edge20_Node000019_Node000020" class="edge">
<title>Node19&#45;&gt;Node20</title>
<g id="a_edge20_Node000019_Node000020"><a xlink:title=" ">
<path fill="none" stroke="#63b8ff" d="M595.37,-58.14C575.35,-48.85 542.74,-33.71 519.37,-22.87"/>
<polygon fill="#63b8ff" stroke="#63b8ff" points="520.97,-19.75 510.43,-18.72 518.02,-26.1 520.97,-19.75"/>
</a>
</g>
</g>
<!-- Node21 -->
<g id="Node000021" class="node">
<title>Node21</title>
<g id="a_Node000021"><a xlink:title=" ">
<polygon fill="#e0e0e0" stroke="#999999" points="641.75,-17.75 595,-17.75 595,0 641.75,0 641.75,-17.75"/>
<text text-anchor="middle" x="618.38" y="-6.15" font-family="SourceSans" font-size="8.00">fstream</text>
</a>
</g>
</g>
<!-- Node19&#45;&gt;Node21 -->
<g id="edge21_Node000019_Node000021" class="edge">
<title>Node19&#45;&gt;Node21</title>
<g id="a_edge21_Node000019_Node000021"><a xlink:title=" ">
<path fill="none" stroke="#63b8ff" d="M614.11,-58.14C614.79,-50.53 615.8,-39 616.68,-29.12"/>
<polygon fill="#63b8ff" stroke="#63b8ff" points="620.14,-29.67 617.53,-19.41 613.17,-29.06 620.14,-29.67"/>
</a>
</g>
</g>
<!-- Node22 -->
<g id="Node000022" class="node">
<title>Node22</title>
<g id="a_Node000022"><a xlink:title=" ">
<polygon fill="#e0e0e0" stroke="#999999" points="577.25,-17.75 533.5,-17.75 533.5,0 577.25,0 577.25,-17.75"/>
<text text-anchor="middle" x="555.38" y="-6.15" font-family="SourceSans" font-size="8.00">cstdint</text>
</a>
</g>
</g>
<!-- Node19&#45;&gt;Node22 -->
<g id="edge22_Node000019_Node000022" class="edge">
<title>Node19&#45;&gt;Node22</title>
<g id="a_edge22_Node000019_Node000022"><a xlink:title=" ">
<path fill="none" stroke="#63b8ff" d="M604.82,-58.14C596.15,-49.68 582.53,-36.39 571.78,-25.89"/>
<polygon fill="#63b8ff" stroke="#63b8ff" points="574.28,-23.44 564.68,-18.96 569.39,-28.45 574.28,-23.44"/>
</a>
</g>
</g>
<!-- Node29&#45;&gt;Node2 -->
<g id="edge33_Node000029_Node000002" class="edge">
<title>Node29&#45;&gt;Node2</title>
<g id="a_edge33_Node000029_Node000002"><a xlink:title=" ">
<path fill="none" stroke="#63b8ff" d="M741.25,-76.52C742.99,-84.02 743.52,-95.52 742.84,-105.45"/>
<polygon fill="#63b8ff" stroke="#63b8ff" points="739.38,-104.89 741.53,-115.27 746.32,-105.82 739.38,-104.89"/>
</a>
</g>
</g>
<!-- Node29&#45;&gt;Node15 -->
<g id="edge31_Node000029_Node000015" class="edge">
<title>Node29&#45;&gt;Node15</title>
<g id="a_edge31_Node000029_Node000015"><a xlink:title=" ">
<path fill="none" stroke="#63b8ff" d="M746.11,-58.14C756.17,-49.52 772.1,-35.85 784.44,-25.26"/>
<polygon fill="#63b8ff" stroke="#63b8ff" points="786.56,-28.05 791.88,-18.88 782.01,-22.74 786.56,-28.05"/>
</a>
</g>
</g>
<!-- Node29&#45;&gt;Node21 -->
<g id="edge30_Node000029_Node000021" class="edge">
<title>Node29&#45;&gt;Node21</title>
<g id="a_edge30_Node000029_Node000021"><a xlink:title=" ">
<path fill="none" stroke="#63b8ff" d="M718.96,-58.14C699.68,-48.89 668.34,-33.85 645.76,-23.02"/>
<polygon fill="#63b8ff" stroke="#63b8ff" points="647.37,-19.91 636.84,-18.74 644.34,-26.22 647.37,-19.91"/>
</a>
</g>
</g>
<!-- Node30 -->
<g id="Node000030" class="node">
<title>Node30</title>
<g id="a_Node000030"><a xlink:title=" ">
<polygon fill="#e0e0e0" stroke="#999999" points="760.88,-17.75 711.88,-17.75 711.88,0 760.88,0 760.88,-17.75"/>
<text text-anchor="middle" x="736.38" y="-6.15" font-family="SourceSans" font-size="8.00">unistd.h</text>
</a>
</g>
</g>
<!-- Node29&#45;&gt;Node30 -->
<g id="edge32_Node000029_Node000030" class="edge">
<title>Node29&#45;&gt;Node30</title>
<g id="a_edge32_Node000029_Node000030"><a xlink:title=" ">
<path fill="none" stroke="#63b8ff" d="M736.38,-58.14C736.38,-50.53 736.38,-39 736.38,-29.12"/>
<polygon fill="#63b8ff" stroke="#63b8ff" points="739.88,-29.41 736.38,-19.41 732.88,-29.41 739.88,-29.41"/>
</a>
</g>
</g>
</g>
</svg>

<g id="navigator" transform="translate(0 0)" fill="#404254">
  <rect fill="#f2f5e9" fill-opacity="0.5" stroke="#606060" stroke-width=".5" x="0" y="0" width="60" height="60"/>
  <use id="zoomplus" xlink:href="#zoomPlus" x="17" y="9" onmousedown="handleZoom(evt,'in')"/>
  <use id="zoomminus" xlink:href="#zoomMin" x="42" y="9" onmousedown="handleZoom(evt,'out')"/>
  <use id="reset" xlink:href="#resetDef" x="30" y="36" onmousedown="handleReset()"/>
   <use id="arrowup" xlink:href="#arrowUp" x="0" y="0" onmousedown="handlePan(0,-1)"/>
  <use id="arrowright" xlink:href="#arrowRight" x="0" y="0" onmousedown="handlePan(1,0)"/>
  <use id="arrowdown" xlink:href="#arrowDown" x="0" y="0" onmousedown="handlePan(0,1)"/>
  <use id="arrowleft" xlink:href="#arrowLeft" x="0" y="0" onmousedown="handlePan(-1,0)"/>
</g>
<svg viewBox="0 0 15 15" width="100%" height="30px" preserveAspectRatio="xMaxYMin meet">
 <g id="arrow_out" transform="scale(0.3 0.3)">
  <a xlink:href="a60-svg-linear_8h__incl_org.svg" target="_base">
   <rect id="button" ry="5" rx="5" y="6" x="6" height="38" width="38"
        fill="#f2f5e9" fill-opacity="0.5" stroke="#606060" stroke-width="1.0"/>
   <path id="arrow"
     d="M 11.500037,31.436501 C 11.940474,20.09759 22.043105,11.32322 32.158766,21.979434 L 37.068811,17.246167 C 37.068811,17.246167 37.088388,32 37.088388,32 L 22.160133,31.978069 C 22.160133,31.978069 26.997745,27.140456 26.997745,27.140456 C 18.528582,18.264221 13.291696,25.230495 11.500037,31.436501 z"
     style="fill:#404040;"/>
  </a>
 </g>
</svg>

<style type='text/css'>
<![CDATA[
[data-mouse-over-selected='false'] { opacity: 0.7; }
[data-mouse-over-selected='true']  { opacity: 1.0; }
]]>
</style>
<script type="application/ecmascript"><![CDATA[
document.addEventListener('DOMContentLoaded', (event) => {
  highlightEdges();
  highlightAdjacentNodes();
});
]]></script>
</svg>
