<?xml version="1.0" encoding="UTF-8" standalone="no"?>
<!DOCTYPE svg PUBLIC "-//W3C//DTD SVG 1.1//EN"
 "http://www.w3.org/Graphics/SVG/1.1/DTD/svg11.dtd">
<!-- Generated by graphviz version 9.0.0 (20230911.1827)
 -->
<!-- Title: /home/bkoz/src/izzi/src/a60&#45;svg&#45;linear.h Pages: 1 -->
<!--zoomable 220 -->

<svg id="main" version="1.1" xmlns="http://www.w3.org/2000/svg" xmlns:xlink="http://www.w3.org/1999/xlink" xml:space="preserve" onload="init(evt)">
<style type="text/css"><![CDATA[
.node, .edge {opacity: 0.7;}
.node.selected, .edge.selected {opacity: 1;}
.edge:hover path { stroke: red; }
.edge:hover polygon { stroke: red; fill: red; }
]]></style>

<defs>
  <circle id="rim" cx="0" cy="0" r="7"/>
  <circle id="rim2" cx="0" cy="0" r="3.5"/>
  <g id="zoomPlus">
    <use xlink:href="#rim" fill="#404040"><set attributeName="fill" to="#808080" begin="zoomplus.mouseover" end="zoomplus.mouseout"/></use>
    <path d="M-4,0h8M0,-4v8" fill="none" stroke="white" stroke-width="1.5" pointer-events="none"/>
  </g>
  <g id="zoomMin">
    <use xlink:href="#rim" fill="#404040"><set attributeName="fill" to="#808080" begin="zoomminus.mouseover" end="zoomminus.mouseout"/></use>
    <path d="M-4,0h8" fill="none" stroke="white" stroke-width="1.5" pointer-events="none"/>
  </g>
  <g id="arrowUp" transform="translate(30 24)">
    <use xlink:href="#rim"/>
    <path pointer-events="none" fill="none" stroke="white" stroke-width="1.5" d="M0,-3.0v7 M-2.5,-0.5L0,-3.0L2.5,-0.5"/>
  </g>
  <g id="arrowRight" transform="rotate(90) translate(36 -43)">
    <use xlink:href="#rim"/>
    <path pointer-events="none" fill="none" stroke="white" stroke-width="1.5" d="M0,-3.0v7 M-2.5,-0.5L0,-3.0L2.5,-0.5"/>
  </g>
  <g id="arrowDown" transform="rotate(180) translate(-30 -48)">
    <use xlink:href="#rim"/>
    <path pointer-events="none" fill="none" stroke="white" stroke-width="1.5" d="M0,-3.0v7 M-2.5,-0.5L0,-3.0L2.5,-0.5"/>
  </g>
  <g id="arrowLeft" transform="rotate(270) translate(-36 17)">
    <use xlink:href="#rim"/>
    <path pointer-events="none" fill="none" stroke="white" stroke-width="1.5" d="M0,-3.0v7 M-2.5,-0.5L0,-3.0L2.5,-0.5"/>
  </g>
  <g id="resetDef">
    <use xlink:href="#rim2" fill="#404040"><set attributeName="fill" to="#808080" begin="reset.mouseover" end="reset.mouseout"/></use>
  </g>
</defs>
<script type="application/ecmascript">
var viewWidth = 1792;
var viewHeight = 220;
var sectionId = 'dynsection-0';
</script>
<script type="application/ecmascript" xlink:href="svg.min.js"/>
<svg id="graph" class="graph">
<g id="viewport">
<title>/home/bkoz/src/izzi/src/a60&#45;svg&#45;linear.h</title>
<!-- Node1 -->
<g id="Node000001" class="node">
<title>Node1</title>
<g id="a_Node000001"><a xlink:title=" ">
<polygon fill="#999999" stroke="#666666" points="706.12,-212 614.38,-212 614.38,-180 706.12,-180 706.12,-212"/>
<text text-anchor="start" x="622.38" y="-200.4" font-family="SourceSans" font-size="8.00">/home/bkoz/src/izzi</text>
<text text-anchor="middle" x="660.25" y="-188.4" font-family="SourceSans" font-size="8.00">/src/a60&#45;svg&#45;linear.h</text>
</a>
</g>
</g>
<!-- Node2 -->
<g id="Node000002" class="node">
<title>Node2</title>
<g id="a_Node000002"><a xlink:href="a60-svg_8h.html" target="_top" xlink:title=" ">
<polygon fill="white" stroke="#666666" points="686.25,-144 634.25,-144 634.25,-124 686.25,-124 686.25,-144"/>
<text text-anchor="middle" x="660.25" y="-132.4" font-family="SourceSans" font-size="8.00">a60&#45;svg.h</text>
</a>
</g>
</g>
<!-- Node1&#45;&gt;Node2 -->
<g id="edge1_Node000001_Node000002" class="edge">
<title>Node1&#45;&gt;Node2</title>
<g id="a_edge1_Node000001_Node000002"><a xlink:title=" ">
<path fill="none" stroke="#63b8ff" d="M660.25,-179.55C660.25,-172.34 660.25,-163.66 660.25,-155.88"/>
<polygon fill="#63b8ff" stroke="#63b8ff" points="663.75,-155.92 660.25,-145.92 656.75,-155.92 663.75,-155.92"/>
</a>
</g>
</g>
<!-- Node3 -->
<g id="Node000003" class="node">
<title>Node3</title>
<g id="a_Node000003"><a xlink:title=" ">
<polygon fill="#e0e0e0" stroke="#999999" points="44.5,-82 0,-82 0,-62 44.5,-62 44.5,-82"/>
<text text-anchor="middle" x="22.25" y="-70.4" font-family="SourceSans" font-size="8.00">cstddef</text>
</a>
</g>
</g>
<!-- Node2&#45;&gt;Node3 -->
<g id="edge2_Node000002_Node000003" class="edge">
<title>Node2&#45;&gt;Node3</title>
<g id="a_edge2_Node000002_Node000003"><a xlink:title=" ">
<path fill="none" stroke="#63b8ff" d="M633.93,-132.36C532.27,-129.69 165.38,-118.11 53.25,-88 51.89,-87.63 50.51,-87.21 49.13,-86.73"/>
<polygon fill="#63b8ff" stroke="#63b8ff" points="50.83,-83.65 40.26,-83.03 48.14,-90.11 50.83,-83.65"/>
</a>
</g>
</g>
<!-- Node4 -->
<g id="Node000004" class="node">
<title>Node4</title>
<g id="a_Node000004"><a xlink:title=" ">
<polygon fill="#e0e0e0" stroke="#999999" points="102.25,-82 62.25,-82 62.25,-62 102.25,-62 102.25,-82"/>
<text text-anchor="middle" x="82.25" y="-70.4" font-family="SourceSans" font-size="8.00">cmath</text>
</a>
</g>
</g>
<!-- Node2&#45;&gt;Node4 -->
<g id="edge3_Node000002_Node000004" class="edge">
<title>Node2&#45;&gt;Node4</title>
<g id="a_edge3_Node000002_Node000004"><a xlink:title=" ">
<path fill="none" stroke="#63b8ff" d="M633.85,-132.21C538.36,-129.14 211.33,-116.73 111.25,-88 110.25,-87.71 109.24,-87.39 108.24,-87.04"/>
<polygon fill="#63b8ff" stroke="#63b8ff" points="109.68,-83.85 99.12,-83.04 106.88,-90.26 109.68,-83.85"/>
</a>
</g>
</g>
<!-- Node5 -->
<g id="Node000005" class="node">
<title>Node5</title>
<g id="a_Node000005"><a xlink:title=" ">
<polygon fill="#e0e0e0" stroke="#999999" points="154.62,-82 119.88,-82 119.88,-62 154.62,-62 154.62,-82"/>
<text text-anchor="middle" x="137.25" y="-70.4" font-family="SourceSans" font-size="8.00">array</text>
</a>
</g>
</g>
<!-- Node2&#45;&gt;Node5 -->
<g id="edge4_Node000002_Node000005" class="edge">
<title>Node2&#45;&gt;Node5</title>
<g id="a_edge4_Node000002_Node000005"><a xlink:title=" ">
<path fill="none" stroke="#63b8ff" d="M633.93,-132.05C544.57,-128.6 253.39,-115.46 164.25,-88 163.44,-87.75 162.63,-87.48 161.82,-87.18"/>
<polygon fill="#63b8ff" stroke="#63b8ff" points="163.52,-84.11 152.98,-83.06 160.56,-90.45 163.52,-84.11"/>
</a>
</g>
</g>
<!-- Node6 -->
<g id="Node000006" class="node">
<title>Node6</title>
<g id="a_Node000006"><a xlink:title=" ">
<polygon fill="#e0e0e0" stroke="#999999" points="209.38,-82 173.12,-82 173.12,-62 209.38,-62 209.38,-82"/>
<text text-anchor="middle" x="191.25" y="-70.4" font-family="SourceSans" font-size="8.00">tuple</text>
</a>
</g>
</g>
<!-- Node2&#45;&gt;Node6 -->
<g id="edge5_Node000002_Node000006" class="edge">
<title>Node2&#45;&gt;Node6</title>
<g id="a_edge5_Node000002_Node000006"><a xlink:title=" ">
<path fill="none" stroke="#63b8ff" d="M633.95,-131.72C551.16,-127.46 296.71,-112.64 218.25,-88 217.44,-87.75 216.64,-87.47 215.83,-87.17"/>
<polygon fill="#63b8ff" stroke="#63b8ff" points="217.53,-84.1 206.99,-83.03 214.56,-90.44 217.53,-84.1"/>
</a>
</g>
</g>
<!-- Node7 -->
<g id="Node000007" class="node">
<title>Node7</title>
<g id="a_Node000007"><a xlink:title=" ">
<polygon fill="#e0e0e0" stroke="#999999" points="265.5,-82 227,-82 227,-62 265.5,-62 265.5,-82"/>
<text text-anchor="middle" x="246.25" y="-70.4" font-family="SourceSans" font-size="8.00">string</text>
</a>
</g>
</g>
<!-- Node2&#45;&gt;Node7 -->
<g id="edge6_Node000002_Node000007" class="edge">
<title>Node2&#45;&gt;Node7</title>
<g id="a_edge6_Node000002_Node000007"><a xlink:title=" ">
<path fill="none" stroke="#63b8ff" d="M633.91,-133.15C570.61,-132.82 405.56,-127.86 275.25,-88 274.28,-87.7 273.3,-87.37 272.32,-87.02"/>
<polygon fill="#63b8ff" stroke="#63b8ff" points="274.02,-83.94 263.45,-83.1 271.18,-90.34 274.02,-83.94"/>
</a>
</g>
</g>
<!-- Node8 -->
<g id="Node000008" class="node">
<title>Node8</title>
<g id="a_Node000008"><a xlink:title=" ">
<polygon fill="#e0e0e0" stroke="#999999" points="322.5,-82 284,-82 284,-62 322.5,-62 322.5,-82"/>
<text text-anchor="middle" x="303.25" y="-70.4" font-family="SourceSans" font-size="8.00">vector</text>
</a>
</g>
</g>
<!-- Node2&#45;&gt;Node8 -->
<g id="edge7_Node000002_Node000008" class="edge">
<title>Node2&#45;&gt;Node8</title>
<g id="a_edge7_Node000002_Node000008"><a xlink:title=" ">
<path fill="none" stroke="#63b8ff" d="M633.96,-132.54C577.26,-130.89 439.82,-123.24 331.25,-88 330.44,-87.74 329.63,-87.45 328.82,-87.15"/>
<polygon fill="#63b8ff" stroke="#63b8ff" points="330.44,-84.04 319.89,-83.06 327.53,-90.41 330.44,-84.04"/>
</a>
</g>
</g>
<!-- Node9 -->
<g id="Node000009" class="node">
<title>Node9</title>
<g id="a_Node000009"><a xlink:title=" ">
<polygon fill="#e0e0e0" stroke="#999999" points="418,-82 340.5,-82 340.5,-62 418,-62 418,-82"/>
<text text-anchor="middle" x="379.25" y="-70.4" font-family="SourceSans" font-size="8.00">unordered_map</text>
</a>
</g>
</g>
<!-- Node2&#45;&gt;Node9 -->
<g id="edge8_Node000002_Node000009" class="edge">
<title>Node2&#45;&gt;Node9</title>
<g id="a_edge8_Node000002_Node000009"><a xlink:title=" ">
<path fill="none" stroke="#63b8ff" d="M633.83,-128.89C590.41,-121.91 501.36,-106.67 427.25,-88 424.47,-87.3 421.62,-86.53 418.75,-85.73"/>
<polygon fill="#63b8ff" stroke="#63b8ff" points="419.82,-82.39 409.23,-82.92 417.84,-89.11 419.82,-82.39"/>
</a>
</g>
</g>
<!-- Node10 -->
<g id="Node000010" class="node">
<title>Node10</title>
<g id="a_Node000010"><a xlink:title=" ">
<polygon fill="#e0e0e0" stroke="#999999" points="482.25,-82 436.25,-82 436.25,-62 482.25,-62 482.25,-82"/>
<text text-anchor="middle" x="459.25" y="-70.4" font-family="SourceSans" font-size="8.00">sstream</text>
</a>
</g>
</g>
<!-- Node2&#45;&gt;Node10 -->
<g id="edge9_Node000002_Node000010" class="edge">
<title>Node2&#45;&gt;Node10</title>
<g id="a_edge9_Node000002_Node000010"><a xlink:title=" ">
<path fill="none" stroke="#63b8ff" d="M634.04,-127.55C600.43,-120.21 540.61,-105.98 491.25,-88 490.29,-87.65 489.32,-87.28 488.35,-86.9"/>
<polygon fill="#63b8ff" stroke="#63b8ff" points="489.93,-83.77 479.36,-83.05 487.17,-90.21 489.93,-83.77"/>
</a>
</g>
</g>
<!-- Node11 -->
<g id="Node000011" class="node">
<title>Node11</title>
<g id="a_Node000011"><a xlink:href="a60-svg-color_8h.html" target="_top" xlink:title=" ">
<polygon fill="white" stroke="#666666" points="797,-82 725.5,-82 725.5,-62 797,-62 797,-82"/>
<text text-anchor="middle" x="761.25" y="-70.4" font-family="SourceSans" font-size="8.00">a60&#45;svg&#45;color.h</text>
</a>
</g>
</g>
<!-- Node2&#45;&gt;Node11 -->
<g id="edge10_Node000002_Node000011" class="edge">
<title>Node2&#45;&gt;Node11</title>
<g id="a_edge10_Node000002_Node000011"><a xlink:title=" ">
<path fill="none" stroke="#63b8ff" d="M676.03,-123.62C692.04,-114.11 717.07,-99.24 735.87,-88.08"/>
<polygon fill="#63b8ff" stroke="#63b8ff" points="737.47,-91.2 744.28,-83.08 733.89,-85.18 737.47,-91.2"/>
</a>
</g>
</g>
<!-- Node16 -->
<g id="Node000016" class="node">
<title>Node16</title>
<g id="a_Node000016"><a xlink:href="a60-svg-color-palette_8h.html" target="_top" xlink:title=" ">
<polygon fill="white" stroke="#666666" points="917,-82 815.5,-82 815.5,-62 917,-62 917,-82"/>
<text text-anchor="middle" x="866.25" y="-70.4" font-family="SourceSans" font-size="8.00">a60&#45;svg&#45;color&#45;palette.h</text>
</a>
</g>
</g>
<!-- Node2&#45;&gt;Node16 -->
<g id="edge15_Node000002_Node000016" class="edge">
<title>Node2&#45;&gt;Node16</title>
<g id="a_edge15_Node000002_Node000016"><a xlink:title=" ">
<path fill="none" stroke="#63b8ff" d="M686.34,-125.4C720.75,-115.38 781.78,-97.6 823.11,-85.57"/>
<polygon fill="#63b8ff" stroke="#63b8ff" points="823.87,-88.99 832.49,-82.83 821.91,-82.27 823.87,-88.99"/>
</a>
</g>
</g>
<!-- Node17 -->
<g id="Node000017" class="node">
<title>Node17</title>
<g id="a_Node000017"><a xlink:href="a60-svg-color-colorband_8h.html" target="_top" xlink:title=" ">
<polygon fill="white" stroke="#666666" points="1047.62,-82 934.88,-82 934.88,-62 1047.62,-62 1047.62,-82"/>
<text text-anchor="middle" x="991.25" y="-70.4" font-family="SourceSans" font-size="8.00">a60&#45;svg&#45;color&#45;colorband.h</text>
</a>
</g>
</g>
<!-- Node2&#45;&gt;Node17 -->
<g id="edge16_Node000002_Node000017" class="edge">
<title>Node2&#45;&gt;Node17</title>
<g id="a_edge16_Node000002_Node000017"><a xlink:title=" ">
<path fill="none" stroke="#63b8ff" d="M686.4,-129.1C734.18,-121.86 838.76,-105.48 926.25,-88 930.91,-87.07 935.75,-86.05 940.59,-85"/>
<polygon fill="#63b8ff" stroke="#63b8ff" points="941.33,-88.42 950.32,-82.83 939.8,-81.59 941.33,-88.42"/>
</a>
</g>
</g>
<!-- Node18 -->
<g id="Node000018" class="node">
<title>Node18</title>
<g id="a_Node000018"><a xlink:href="a60-svg-base-types_8h.html" target="_top" xlink:title=" ">
<polygon fill="white" stroke="#666666" points="594.62,-82 499.88,-82 499.88,-62 594.62,-62 594.62,-82"/>
<text text-anchor="middle" x="547.25" y="-70.4" font-family="SourceSans" font-size="8.00">a60&#45;svg&#45;base&#45;types.h</text>
</a>
</g>
</g>
<!-- Node2&#45;&gt;Node18 -->
<g id="edge17_Node000002_Node000018" class="edge">
<title>Node2&#45;&gt;Node18</title>
<g id="a_edge17_Node000002_Node000018"><a xlink:title=" ">
<path fill="none" stroke="#63b8ff" d="M642.59,-123.62C624.43,-113.98 595.89,-98.83 574.77,-87.61"/>
<polygon fill="#63b8ff" stroke="#63b8ff" points="576.59,-84.62 566.12,-83.02 573.31,-90.8 576.59,-84.62"/>
</a>
</g>
</g>
<!-- Node22 -->
<g id="Node000022" class="node">
<title>Node22</title>
<g id="a_Node000022"><a xlink:href="a60-svg-constants_8h.html" target="_top" xlink:title=" ">
<polygon fill="white" stroke="#666666" points="1156.75,-82 1065.75,-82 1065.75,-62 1156.75,-62 1156.75,-82"/>
<text text-anchor="middle" x="1111.25" y="-70.4" font-family="SourceSans" font-size="8.00">a60&#45;svg&#45;constants.h</text>
</a>
</g>
</g>
<!-- Node2&#45;&gt;Node22 -->
<g id="edge22_Node000002_Node000022" class="edge">
<title>Node2&#45;&gt;Node22</title>
<g id="a_edge22_Node000002_Node000022"><a xlink:title=" ">
<path fill="none" stroke="#63b8ff" d="M686.4,-131.42C750.13,-127.26 918.31,-114.49 1056.25,-88 1060.33,-87.22 1064.55,-86.29 1068.75,-85.28"/>
<polygon fill="#63b8ff" stroke="#63b8ff" points="1069.45,-88.72 1078.28,-82.86 1067.72,-81.93 1069.45,-88.72"/>
</a>
</g>
</g>
<!-- Node23 -->
<g id="Node000023" class="node">
<title>Node23</title>
<g id="a_Node000023"><a xlink:href="a60-svg-elements_8h.html" target="_top" xlink:title=" ">
<polygon fill="white" stroke="#666666" points="1264,-82 1174.5,-82 1174.5,-62 1264,-62 1264,-82"/>
<text text-anchor="middle" x="1219.25" y="-70.4" font-family="SourceSans" font-size="8.00">a60&#45;svg&#45;elements.h</text>
</a>
</g>
</g>
<!-- Node2&#45;&gt;Node23 -->
<g id="edge23_Node000002_Node000023" class="edge">
<title>Node2&#45;&gt;Node23</title>
<g id="a_edge23_Node000002_Node000023"><a xlink:title=" ">
<path fill="none" stroke="#63b8ff" d="M686.55,-132.39C761.9,-130.28 984.76,-121.45 1166.25,-88 1170.3,-87.25 1174.48,-86.34 1178.64,-85.32"/>
<polygon fill="#63b8ff" stroke="#63b8ff" points="1179.24,-88.78 1188.03,-82.86 1177.46,-82.01 1179.24,-88.78"/>
</a>
</g>
</g>
<!-- Node24 -->
<g id="Node000024" class="node">
<title>Node24</title>
<g id="a_Node000024"><a xlink:href="a60-svg-elements-components_8h.html" target="_top" xlink:title=" ">
<polygon fill="white" stroke="#666666" points="1420.75,-82 1281.75,-82 1281.75,-62 1420.75,-62 1420.75,-82"/>
<text text-anchor="middle" x="1351.25" y="-70.4" font-family="SourceSans" font-size="8.00">a60&#45;svg&#45;elements&#45;components.h</text>
</a>
</g>
</g>
<!-- Node2&#45;&gt;Node24 -->
<g id="edge24_Node000002_Node000024" class="edge">
<title>Node2&#45;&gt;Node24</title>
<g id="a_edge24_Node000002_Node000024"><a xlink:title=" ">
<path fill="none" stroke="#63b8ff" d="M686.65,-132.16C771.9,-129.23 1047.4,-117.9 1273.25,-88 1280.51,-87.04 1288.12,-85.83 1295.62,-84.52"/>
<polygon fill="#63b8ff" stroke="#63b8ff" points="1296.15,-87.98 1305.36,-82.74 1294.89,-81.09 1296.15,-87.98"/>
</a>
</g>
</g>
<!-- Node25 -->
<g id="Node000025" class="node">
<title>Node25</title>
<g id="a_Node000025"><a xlink:href="a60-svg-render-state_8h.html" target="_top" xlink:title=" ">
<polygon fill="white" stroke="#666666" points="1539.62,-82 1438.88,-82 1438.88,-62 1539.62,-62 1539.62,-82"/>
<text text-anchor="middle" x="1489.25" y="-70.4" font-family="SourceSans" font-size="8.00">a60&#45;svg&#45;render&#45;state.h</text>
</a>
</g>
</g>
<!-- Node2&#45;&gt;Node25 -->
<g id="edge25_Node000002_Node000025" class="edge">
<title>Node2&#45;&gt;Node25</title>
<g id="a_edge25_Node000002_Node000025"><a xlink:title=" ">
<path fill="none" stroke="#63b8ff" d="M686.7,-133.27C785.42,-133.9 1141.44,-132.73 1430.25,-88 1435.26,-87.22 1440.47,-86.21 1445.62,-85.08"/>
<polygon fill="#63b8ff" stroke="#63b8ff" points="1446.31,-88.51 1455.24,-82.8 1444.7,-81.7 1446.31,-88.51"/>
</a>
</g>
</g>
<!-- Node26 -->
<g id="Node000026" class="node">
<title>Node26</title>
<g id="a_Node000026"><a xlink:href="a60-svg-render-basics_8h.html" target="_top" xlink:title=" ">
<polygon fill="white" stroke="#666666" points="1662.88,-82 1557.62,-82 1557.62,-62 1662.88,-62 1662.88,-82"/>
<text text-anchor="middle" x="1610.25" y="-70.4" font-family="SourceSans" font-size="8.00">a60&#45;svg&#45;render&#45;basics.h</text>
</a>
</g>
</g>
<!-- Node2&#45;&gt;Node26 -->
<g id="edge26_Node000002_Node000026" class="edge">
<title>Node2&#45;&gt;Node26</title>
<g id="a_edge26_Node000002_Node000026"><a xlink:title=" ">
<path fill="none" stroke="#63b8ff" d="M686.44,-132.33C814.48,-128.97 1375.43,-113.06 1548.25,-88 1553.65,-87.22 1559.27,-86.18 1564.82,-85.01"/>
<polygon fill="#63b8ff" stroke="#63b8ff" points="1565.58,-88.43 1574.56,-82.82 1564.04,-81.6 1565.58,-88.43"/>
</a>
</g>
</g>
<!-- Node27 -->
<g id="Node000027" class="node">
<title>Node27</title>
<g id="a_Node000027"><a xlink:href="a60-svg-composite-and-layer-basics_8h.html" target="_top" xlink:title=" ">
<polygon fill="white" stroke="#666666" points="1783.75,-88 1680.75,-88 1680.75,-56 1783.75,-56 1783.75,-88"/>
<text text-anchor="start" x="1688.75" y="-76.4" font-family="SourceSans" font-size="8.00">a60&#45;svg&#45;composite&#45;and</text>
<text text-anchor="middle" x="1732.25" y="-64.4" font-family="SourceSans" font-size="8.00">&#45;layer&#45;basics.h</text>
</a>
</g>
</g>
<!-- Node2&#45;&gt;Node27 -->
<g id="edge27_Node000002_Node000027" class="edge">
<title>Node2&#45;&gt;Node27</title>
<g id="a_edge27_Node000002_Node000027"><a xlink:title=" ">
<path fill="none" stroke="#63b8ff" d="M686.34,-132.55C822.27,-130.09 1450.98,-117.4 1669.04,-88.23"/>
<polygon fill="#63b8ff" stroke="#63b8ff" points="1669.43,-91.71 1678.84,-86.86 1668.46,-84.78 1669.43,-91.71"/>
</a>
</g>
</g>
<!-- Node28 -->
<g id="Node000028" class="node">
<title>Node28</title>
<g id="a_Node000028"><a xlink:href="a60-svg-sequences_8h.html" target="_top" xlink:title=" ">
<polygon fill="white" stroke="#666666" points="707.62,-82 612.88,-82 612.88,-62 707.62,-62 707.62,-82"/>
<text text-anchor="middle" x="660.25" y="-70.4" font-family="SourceSans" font-size="8.00">a60&#45;svg&#45;sequences.h</text>
</a>
</g>
</g>
<!-- Node2&#45;&gt;Node28 -->
<g id="edge28_Node000002_Node000028" class="edge">
<title>Node2&#45;&gt;Node28</title>
<g id="a_edge28_Node000002_Node000028"><a xlink:title=" ">
<path fill="none" stroke="#63b8ff" d="M655.19,-123.62C653.58,-115.56 653.12,-103.65 653.82,-93.41"/>
<polygon fill="#63b8ff" stroke="#63b8ff" points="657.27,-93.97 655.05,-83.61 650.33,-93.1 657.27,-93.97"/>
</a>
</g>
</g>
<!-- Node12 -->
<g id="Node000012" class="node">
<title>Node12</title>
<g id="a_Node000012"><a xlink:title=" ">
<polygon fill="#e0e0e0" stroke="#999999" points="620.88,-20 587.62,-20 587.62,0 620.88,0 620.88,-20"/>
<text text-anchor="middle" x="604.25" y="-8.4" font-family="SourceSans" font-size="8.00">map</text>
</a>
</g>
</g>
<!-- Node11&#45;&gt;Node12 -->
<g id="edge11_Node000011_Node000012" class="edge">
<title>Node11&#45;&gt;Node12</title>
<g id="a_edge11_Node000011_Node000012"><a xlink:title=" ">
<path fill="none" stroke="#63b8ff" d="M736.72,-61.62C708.27,-50.75 661.5,-32.88 631.81,-21.53"/>
<polygon fill="#63b8ff" stroke="#63b8ff" points="633.36,-18.38 622.76,-18.08 630.86,-24.91 633.36,-18.38"/>
</a>
</g>
</g>
<!-- Node13 -->
<g id="Node000013" class="node">
<title>Node13</title>
<g id="a_Node000013"><a xlink:title=" ">
<polygon fill="#e0e0e0" stroke="#999999" points="823,-20 769.5,-20 769.5,0 823,0 823,-20"/>
<text text-anchor="middle" x="796.25" y="-8.4" font-family="SourceSans" font-size="8.00">algorithm</text>
</a>
</g>
</g>
<!-- Node11&#45;&gt;Node13 -->
<g id="edge12_Node000011_Node000013" class="edge">
<title>Node11&#45;&gt;Node13</title>
<g id="a_edge12_Node000011_Node000013"><a xlink:title=" ">
<path fill="none" stroke="#63b8ff" d="M766.72,-61.62C771.68,-53.12 779.14,-40.33 785.32,-29.74"/>
<polygon fill="#63b8ff" stroke="#63b8ff" points="788.16,-31.82 790.17,-21.42 782.11,-28.29 788.16,-31.82"/>
</a>
</g>
</g>
<!-- Node14 -->
<g id="Node000014" class="node">
<title>Node14</title>
<g id="a_Node000014"><a xlink:title=" ">
<polygon fill="#e0e0e0" stroke="#999999" points="751.25,-20 705.25,-20 705.25,0 751.25,0 751.25,-20"/>
<text text-anchor="middle" x="728.25" y="-8.4" font-family="SourceSans" font-size="8.00">random</text>
</a>
</g>
</g>
<!-- Node11&#45;&gt;Node14 -->
<g id="edge13_Node000011_Node000014" class="edge">
<title>Node11&#45;&gt;Node14</title>
<g id="a_edge13_Node000011_Node000014"><a xlink:title=" ">
<path fill="none" stroke="#63b8ff" d="M756.09,-61.62C751.47,-53.21 744.53,-40.6 738.74,-30.07"/>
<polygon fill="#63b8ff" stroke="#63b8ff" points="741.88,-28.51 733.99,-21.44 735.74,-31.89 741.88,-28.51"/>
</a>
</g>
</g>
<!-- Node15 -->
<g id="Node000015" class="node">
<title>Node15</title>
<g id="a_Node000015"><a xlink:title=" ">
<polygon fill="#e0e0e0" stroke="#999999" points="889,-20 841.5,-20 841.5,0 889,0 889,-20"/>
<text text-anchor="middle" x="865.25" y="-8.4" font-family="SourceSans" font-size="8.00">iomanip</text>
</a>
</g>
</g>
<!-- Node11&#45;&gt;Node15 -->
<g id="edge14_Node000011_Node000015" class="edge">
<title>Node11&#45;&gt;Node15</title>
<g id="a_edge14_Node000011_Node000015"><a xlink:title=" ">
<path fill="none" stroke="#63b8ff" d="M777.5,-61.62C794.06,-52.07 820,-37.11 839.39,-25.92"/>
<polygon fill="#63b8ff" stroke="#63b8ff" points="840.89,-29.09 847.8,-21.07 837.39,-23.03 840.89,-29.09"/>
</a>
</g>
</g>
<!-- Node18&#45;&gt;Node12 -->
<g id="edge18_Node000018_Node000012" class="edge">
<title>Node18&#45;&gt;Node12</title>
<g id="a_edge18_Node000018_Node000012"><a xlink:title=" ">
<path fill="none" stroke="#63b8ff" d="M556.16,-61.62C564.57,-52.77 577.4,-39.26 587.7,-28.43"/>
<polygon fill="#63b8ff" stroke="#63b8ff" points="590.2,-30.87 594.55,-21.21 585.13,-26.05 590.2,-30.87"/>
</a>
</g>
</g>
<!-- Node19 -->
<g id="Node000019" class="node">
<title>Node19</title>
<g id="a_Node000019"><a xlink:title=" ">
<polygon fill="#e0e0e0" stroke="#999999" points="445.62,-20 398.88,-20 398.88,0 445.62,0 445.62,-20"/>
<text text-anchor="middle" x="422.25" y="-8.4" font-family="SourceSans" font-size="8.00">ostream</text>
</a>
</g>
</g>
<!-- Node18&#45;&gt;Node19 -->
<g id="edge19_Node000018_Node000019" class="edge">
<title>Node18&#45;&gt;Node19</title>
<g id="a_edge19_Node000018_Node000019"><a xlink:title=" ">
<path fill="none" stroke="#63b8ff" d="M527.72,-61.62C507.35,-51.85 475.19,-36.41 451.74,-25.15"/>
<polygon fill="#63b8ff" stroke="#63b8ff" points="453.54,-22.14 443.01,-20.96 450.51,-28.45 453.54,-22.14"/>
</a>
</g>
</g>
<!-- Node20 -->
<g id="Node000020" class="node">
<title>Node20</title>
<g id="a_Node000020"><a xlink:title=" ">
<polygon fill="#e0e0e0" stroke="#999999" points="569.88,-20 524.62,-20 524.62,0 569.88,0 569.88,-20"/>
<text text-anchor="middle" x="547.25" y="-8.4" font-family="SourceSans" font-size="8.00">fstream</text>
</a>
</g>
</g>
<!-- Node18&#45;&gt;Node20 -->
<g id="edge20_Node000018_Node000020" class="edge">
<title>Node18&#45;&gt;Node20</title>
<g id="a_edge20_Node000018_Node000020"><a xlink:title=" ">
<path fill="none" stroke="#63b8ff" d="M547.25,-61.62C547.25,-53.56 547.25,-41.65 547.25,-31.41"/>
<polygon fill="#63b8ff" stroke="#63b8ff" points="550.75,-31.63 547.25,-21.63 543.75,-31.63 550.75,-31.63"/>
</a>
</g>
</g>
<!-- Node21 -->
<g id="Node000021" class="node">
<title>Node21</title>
<g id="a_Node000021"><a xlink:title=" ">
<polygon fill="#e0e0e0" stroke="#999999" points="506.38,-20 464.12,-20 464.12,0 506.38,0 506.38,-20"/>
<text text-anchor="middle" x="485.25" y="-8.4" font-family="SourceSans" font-size="8.00">cstdint</text>
</a>
</g>
</g>
<!-- Node18&#45;&gt;Node21 -->
<g id="edge21_Node000018_Node000021" class="edge">
<title>Node18&#45;&gt;Node21</title>
<g id="a_edge21_Node000018_Node000021"><a xlink:title=" ">
<path fill="none" stroke="#63b8ff" d="M537.56,-61.62C528.32,-52.68 514.17,-38.99 502.92,-28.1"/>
<polygon fill="#63b8ff" stroke="#63b8ff" points="505.37,-25.6 495.75,-21.17 500.51,-30.63 505.37,-25.6"/>
</a>
</g>
</g>
<!-- Node28&#45;&gt;Node2 -->
<g id="edge32_Node000028_Node000002" class="edge">
<title>Node28&#45;&gt;Node2</title>
<g id="a_edge32_Node000028_Node000002"><a xlink:title=" ">
<path fill="none" stroke="#63b8ff" d="M665.26,-82.11C666.9,-90.09 667.38,-101.97 666.71,-112.25"/>
<polygon fill="#63b8ff" stroke="#63b8ff" points="663.24,-111.77 665.5,-122.12 670.19,-112.62 663.24,-111.77"/>
</a>
</g>
</g>
<!-- Node28&#45;&gt;Node14 -->
<g id="edge30_Node000028_Node000014" class="edge">
<title>Node28&#45;&gt;Node14</title>
<g id="a_edge30_Node000028_Node000014"><a xlink:title=" ">
<path fill="none" stroke="#63b8ff" d="M670.88,-61.62C681.21,-52.5 697.15,-38.45 709.6,-27.46"/>
<polygon fill="#63b8ff" stroke="#63b8ff" points="711.6,-30.35 716.79,-21.11 706.97,-25.11 711.6,-30.35"/>
</a>
</g>
</g>
<!-- Node28&#45;&gt;Node20 -->
<g id="edge29_Node000028_Node000020" class="edge">
<title>Node28&#45;&gt;Node20</title>
<g id="a_edge29_Node000028_Node000020"><a xlink:title=" ">
<path fill="none" stroke="#63b8ff" d="M642.59,-61.62C624.43,-51.98 595.89,-36.83 574.77,-25.61"/>
<polygon fill="#63b8ff" stroke="#63b8ff" points="576.59,-22.62 566.12,-21.02 573.31,-28.8 576.59,-22.62"/>
</a>
</g>
</g>
<!-- Node29 -->
<g id="Node000029" class="node">
<title>Node29</title>
<g id="a_Node000029"><a xlink:title=" ">
<polygon fill="#e0e0e0" stroke="#999999" points="687.38,-20 639.12,-20 639.12,0 687.38,0 687.38,-20"/>
<text text-anchor="middle" x="663.25" y="-8.4" font-family="SourceSans" font-size="8.00">unistd.h</text>
</a>
</g>
</g>
<!-- Node28&#45;&gt;Node29 -->
<g id="edge31_Node000028_Node000029" class="edge">
<title>Node28&#45;&gt;Node29</title>
<g id="a_edge31_Node000028_Node000029"><a xlink:title=" ">
<path fill="none" stroke="#63b8ff" d="M660.72,-61.62C661.12,-53.56 661.72,-41.65 662.23,-31.41"/>
<polygon fill="#63b8ff" stroke="#63b8ff" points="665.71,-31.79 662.72,-21.62 658.72,-31.44 665.71,-31.79"/>
</a>
</g>
</g>
</g>
</svg>

<g id="navigator" transform="translate(0 0)" fill="#404254">
  <rect fill="#f2f5e9" fill-opacity="0.5" stroke="#606060" stroke-width=".5" x="0" y="0" width="60" height="60"/>
  <use id="zoomplus" xlink:href="#zoomPlus" x="17" y="9" onmousedown="handleZoom(evt,'in')"/>
  <use id="zoomminus" xlink:href="#zoomMin" x="42" y="9" onmousedown="handleZoom(evt,'out')"/>
  <use id="reset" xlink:href="#resetDef" x="30" y="36" onmousedown="handleReset()"/>
   <use id="arrowup" xlink:href="#arrowUp" x="0" y="0" onmousedown="handlePan(0,-1)"/>
  <use id="arrowright" xlink:href="#arrowRight" x="0" y="0" onmousedown="handlePan(1,0)"/>
  <use id="arrowdown" xlink:href="#arrowDown" x="0" y="0" onmousedown="handlePan(0,1)"/>
  <use id="arrowleft" xlink:href="#arrowLeft" x="0" y="0" onmousedown="handlePan(-1,0)"/>
</g>
<svg viewBox="0 0 15 15" width="100%" height="30px" preserveAspectRatio="xMaxYMin meet">
 <g id="arrow_out" transform="scale(0.3 0.3)">
  <a xlink:href="a60-svg-linear_8h__incl_org.svg" target="_base">
   <rect id="button" ry="5" rx="5" y="6" x="6" height="38" width="38"
        fill="#f2f5e9" fill-opacity="0.5" stroke="#606060" stroke-width="1.0"/>
   <path id="arrow"
     d="M 11.500037,31.436501 C 11.940474,20.09759 22.043105,11.32322 32.158766,21.979434 L 37.068811,17.246167 C 37.068811,17.246167 37.088388,32 37.088388,32 L 22.160133,31.978069 C 22.160133,31.978069 26.997745,27.140456 26.997745,27.140456 C 18.528582,18.264221 13.291696,25.230495 11.500037,31.436501 z"
     style="fill:#404040;"/>
  </a>
 </g>
</svg>

<style type='text/css'>
<![CDATA[
[data-mouse-over-selected='false'] { opacity: 0.7; }
[data-mouse-over-selected='true']  { opacity: 1.0; }
]]>
</style>
<script type="application/ecmascript"><![CDATA[
document.addEventListener('DOMContentLoaded', (event) => {
  highlightEdges();
  highlightAdjacentNodes();
});
]]></script>
</svg>
