<?xml version="1.0" encoding="UTF-8" standalone="no"?>
<!DOCTYPE svg PUBLIC "-//W3C//DTD SVG 1.1//EN"
 "http://www.w3.org/Graphics/SVG/1.1/DTD/svg11.dtd">
<!-- Generated by graphviz version 13.1.2 (20250808.2320)
 -->
<!-- Title: svg::ostringstream Pages: 1 -->
<svg width="117pt" height="276pt"
 viewBox="0.00 0.00 117.00 276.00" xmlns="http://www.w3.org/2000/svg" xmlns:xlink="http://www.w3.org/1999/xlink">
<g id="graph0" class="graph" transform="scale(1 1) rotate(0) translate(4 272)">
<title>svg::ostringstream</title>
<!-- Node1 -->
<g id="Node000001" class="node">
<title>Node1</title>
<g id="a_Node000001"><a xlink:title="STL class.">
<polygon fill="#999999" stroke="#666666" points="97.75,-20 11.25,-20 11.25,0 97.75,0 97.75,-20"/>
<text xml:space="preserve" text-anchor="middle" x="54.5" y="-8.4" font-family="SourceSans" font-size="8.00">svg::ostringstream</text>
</a>
</g>
</g>
<!-- Node2 -->
<g id="Node000002" class="node">
<title>Node2</title>
<g id="a_Node000002"><a xlink:title=" ">
<polygon fill="white" stroke="#666666" points="109,-88 0,-88 0,-56 109,-56 109,-88"/>
<text xml:space="preserve" text-anchor="start" x="8" y="-76.4" font-family="SourceSans" font-size="8.00">std::basic_ostringstream</text>
<text xml:space="preserve" text-anchor="middle" x="54.5" y="-64.4" font-family="SourceSans" font-size="8.00">&lt; Char &gt;</text>
</a>
</g>
</g>
<!-- Node2&#45;&gt;Node1 -->
<g id="edge1_Node000001_Node000002" class="edge">
<title>Node2&#45;&gt;Node1</title>
<g id="a_edge1_Node000001_Node000002"><a xlink:title=" ">
<path fill="none" stroke="#63b8ff" d="M54.5,-44.08C54.5,-35.6 54.5,-26.8 54.5,-20.41"/>
<polygon fill="#63b8ff" stroke="#63b8ff" points="51,-44.03 54.5,-54.03 58,-44.03 51,-44.03"/>
</a>
</g>
</g>
<!-- Node3 -->
<g id="Node000003" class="node">
<title>Node3</title>
<g id="a_Node000003"><a xlink:title=" ">
<polygon fill="white" stroke="#666666" points="97.75,-156 11.25,-156 11.25,-124 97.75,-124 97.75,-156"/>
<text xml:space="preserve" text-anchor="start" x="19.25" y="-144.4" font-family="SourceSans" font-size="8.00">std::basic_ostream</text>
<text xml:space="preserve" text-anchor="middle" x="54.5" y="-132.4" font-family="SourceSans" font-size="8.00">&lt; Char &gt;</text>
</a>
</g>
</g>
<!-- Node3&#45;&gt;Node2 -->
<g id="edge2_Node000002_Node000003" class="edge">
<title>Node3&#45;&gt;Node2</title>
<g id="a_edge2_Node000002_Node000003"><a xlink:title=" ">
<path fill="none" stroke="#63b8ff" d="M54.5,-112.31C54.5,-104.12 54.5,-95.38 54.5,-88.22"/>
<polygon fill="#63b8ff" stroke="#63b8ff" points="51,-112.18 54.5,-122.18 58,-112.18 51,-112.18"/>
</a>
</g>
</g>
<!-- Node4 -->
<g id="Node000004" class="node">
<title>Node4</title>
<g id="a_Node000004"><a xlink:title=" ">
<polygon fill="white" stroke="#666666" points="103.38,-212 5.62,-212 5.62,-192 103.38,-192 103.38,-212"/>
<text xml:space="preserve" text-anchor="middle" x="54.5" y="-200.4" font-family="SourceSans" font-size="8.00">std::basic_ios&lt; Char &gt;</text>
</a>
</g>
</g>
<!-- Node4&#45;&gt;Node3 -->
<g id="edge3_Node000003_Node000004" class="edge">
<title>Node4&#45;&gt;Node3</title>
<g id="a_edge3_Node000003_Node000004"><a xlink:title=" ">
<path fill="none" stroke="#63b8ff" d="M54.5,-180.31C54.5,-172.37 54.5,-163.46 54.5,-156.14"/>
<polygon fill="#63b8ff" stroke="#63b8ff" points="51,-180.11 54.5,-190.11 58,-180.11 51,-180.11"/>
</a>
</g>
</g>
<!-- Node5 -->
<g id="Node000005" class="node">
<title>Node5</title>
<g id="a_Node000005"><a xlink:title=" ">
<polygon fill="white" stroke="#666666" points="86.88,-268 22.12,-268 22.12,-248 86.88,-248 86.88,-268"/>
<text xml:space="preserve" text-anchor="middle" x="54.5" y="-256.4" font-family="SourceSans" font-size="8.00">std::ios_base</text>
</a>
</g>
</g>
<!-- Node5&#45;&gt;Node4 -->
<g id="edge4_Node000004_Node000005" class="edge">
<title>Node5&#45;&gt;Node4</title>
<g id="a_edge4_Node000004_Node000005"><a xlink:title=" ">
<path fill="none" stroke="#63b8ff" d="M54.5,-236.13C54.5,-227.9 54.5,-218.85 54.5,-212.3"/>
<polygon fill="#63b8ff" stroke="#63b8ff" points="51,-236.08 54.5,-246.08 58,-236.08 51,-236.08"/>
</a>
</g>
</g>
</g>
</svg>
