<?xml version="1.0" encoding="UTF-8" standalone="no"?>
<!DOCTYPE svg PUBLIC "-//W3C//DTD SVG 1.1//EN"
 "http://www.w3.org/Graphics/SVG/1.1/DTD/svg11.dtd">
<!-- Generated by graphviz version 9.0.0 (20230911.1827)
 -->
<!-- Title: Graph Legend Pages: 1 -->
<svg width="460pt" height="164pt"
 viewBox="0.00 0.00 460.38 164.00" xmlns="http://www.w3.org/2000/svg" xmlns:xlink="http://www.w3.org/1999/xlink">
<g id="graph0" class="graph" transform="scale(1 1) rotate(0) translate(4 160)">
<title>Graph Legend</title>
<!-- Node9 -->
<g id="Node000009" class="node">
<title>Node9</title>
<g id="a_Node000009"><a xlink:title=" ">
<polygon fill="#999999" stroke="#666666" points="262.62,-20 210.62,-20 210.62,0 262.62,0 262.62,-20"/>
<text text-anchor="middle" x="236.62" y="-8.4" font-family="SourceSans" font-size="8.00">Inherited</text>
</a>
</g>
</g>
<!-- Node10 -->
<g id="Node000010" class="node">
<title>Node10</title>
<g id="a_Node000010"><a xlink:title=" ">
<polygon fill="white" stroke="#666666" points="57.25,-88 0,-88 0,-68 57.25,-68 57.25,-88"/>
<text text-anchor="middle" x="28.62" y="-76.4" font-family="SourceSans" font-size="8.00">PublicBase</text>
</a>
</g>
</g>
<!-- Node10&#45;&gt;Node9 -->
<g id="edge1" class="edge">
<title>Node10&#45;&gt;Node9</title>
<g id="a_edge1"><a xlink:title=" ">
<path fill="none" stroke="#63b8ff" d="M68.41,-64.38C110.1,-51.15 174.43,-30.73 210.25,-19.37"/>
<polygon fill="#63b8ff" stroke="#63b8ff" points="67.46,-61 58.99,-67.37 69.58,-67.68 67.46,-61"/>
</a>
</g>
</g>
<!-- Node11 -->
<g id="Node000011" class="node">
<title>Node11</title>
<g id="a_Node000011"><a xlink:title=" ">
<polygon fill="#fff0f0" stroke="red" points="55.75,-156 1.5,-156 1.5,-136 55.75,-136 55.75,-156"/>
<text text-anchor="middle" x="28.62" y="-144.4" font-family="SourceSans" font-size="8.00">Truncated</text>
</a>
</g>
</g>
<!-- Node11&#45;&gt;Node10 -->
<g id="edge2" class="edge">
<title>Node11&#45;&gt;Node10</title>
<g id="a_edge2"><a xlink:title=" ">
<path fill="none" stroke="#63b8ff" d="M28.62,-124.28C28.62,-112.27 28.62,-97.74 28.62,-88.44"/>
<polygon fill="#63b8ff" stroke="#63b8ff" points="25.13,-124.03 28.63,-134.03 32.13,-124.03 25.13,-124.03"/>
</a>
</g>
</g>
<!-- Node13 -->
<g id="node4" class="node">
<title>Node13</title>
<g id="a_node4"><a xlink:title=" ">
<polygon fill="white" stroke="#666666" points="145.62,-88 75.62,-88 75.62,-68 145.62,-68 145.62,-88"/>
<text text-anchor="middle" x="110.62" y="-76.4" font-family="SourceSans" font-size="8.00">ProtectedBase</text>
</a>
</g>
</g>
<!-- Node13&#45;&gt;Node9 -->
<g id="edge3" class="edge">
<title>Node13&#45;&gt;Node9</title>
<g id="a_edge3"><a xlink:title=" ">
<path fill="none" stroke="darkgreen" d="M138.76,-62.26C163.17,-49.48 197.76,-31.36 218.61,-20.44"/>
<polygon fill="darkgreen" stroke="darkgreen" points="137.25,-59.1 130.02,-66.84 140.5,-65.3 137.25,-59.1"/>
</a>
</g>
</g>
<!-- Node14 -->
<g id="node5" class="node">
<title>Node14</title>
<g id="a_node5"><a xlink:title=" ">
<polygon fill="white" stroke="#666666" points="223.38,-88 163.88,-88 163.88,-68 223.38,-68 223.38,-88"/>
<text text-anchor="middle" x="193.62" y="-76.4" font-family="SourceSans" font-size="8.00">PrivateBase</text>
</a>
</g>
</g>
<!-- Node14&#45;&gt;Node9 -->
<g id="edge4" class="edge">
<title>Node14&#45;&gt;Node9</title>
<g id="a_edge4"><a xlink:title=" ">
<path fill="none" stroke="#8b1a1a" d="M205.91,-58.15C213.94,-45.82 224.09,-30.23 230.48,-20.44"/>
<polygon fill="#8b1a1a" stroke="#8b1a1a" points="203.14,-55.99 200.61,-66.28 209,-59.81 203.14,-55.99"/>
</a>
</g>
</g>
<!-- Node15 -->
<g id="Node000015" class="node">
<title>Node15</title>
<g id="a_Node000015"><a xlink:title=" ">
<polygon fill="#e0e0e0" stroke="#999999" points="317.62,-88 241.62,-88 241.62,-68 317.62,-68 317.62,-88"/>
<text text-anchor="middle" x="279.62" y="-76.4" font-family="SourceSans" font-size="8.00">Undocumented</text>
</a>
</g>
</g>
<!-- Node15&#45;&gt;Node9 -->
<g id="edge5" class="edge">
<title>Node15&#45;&gt;Node9</title>
<g id="a_edge5"><a xlink:title=" ">
<path fill="none" stroke="#63b8ff" d="M267.34,-58.15C259.31,-45.82 249.16,-30.23 242.77,-20.44"/>
<polygon fill="#63b8ff" stroke="#63b8ff" points="264.25,-59.81 272.64,-66.28 270.11,-55.99 264.25,-59.81"/>
</a>
</g>
</g>
<!-- Node16 -->
<g id="node7" class="node">
<title>Node16</title>
<g id="a_node7"><a xlink:title=" ">
<polygon fill="white" stroke="#666666" points="399.25,-88 336,-88 336,-68 399.25,-68 399.25,-88"/>
<text text-anchor="middle" x="367.62" y="-76.4" font-family="SourceSans" font-size="8.00">Templ&lt; int &gt;</text>
</a>
</g>
</g>
<!-- Node16&#45;&gt;Node9 -->
<g id="edge6" class="edge">
<title>Node16&#45;&gt;Node9</title>
<g id="a_edge6"><a xlink:title=" ">
<path fill="none" stroke="#63b8ff" d="M338.71,-62.43C313.32,-49.64 277.13,-31.41 255.36,-20.44"/>
<polygon fill="#63b8ff" stroke="#63b8ff" points="337,-65.49 347.5,-66.86 340.15,-59.24 337,-65.49"/>
</a>
</g>
</g>
<!-- Node17 -->
<g id="node8" class="node">
<title>Node17</title>
<g id="a_node8"><a xlink:title=" ">
<polygon fill="white" stroke="#666666" points="396.25,-156 339,-156 339,-136 396.25,-136 396.25,-156"/>
<text text-anchor="middle" x="367.62" y="-144.4" font-family="SourceSans" font-size="8.00">Templ&lt; T &gt;</text>
</a>
</g>
</g>
<!-- Node17&#45;&gt;Node16 -->
<g id="edge7" class="edge">
<title>Node17&#45;&gt;Node16</title>
<g id="a_edge7"><a xlink:title=" ">
<path fill="none" stroke="orange" stroke-dasharray="5,2" d="M367.62,-124.28C367.62,-112.27 367.62,-97.74 367.62,-88.44"/>
<polygon fill="orange" stroke="orange" points="364.13,-124.03 367.63,-134.03 371.13,-124.03 364.13,-124.03"/>
</a>
</g>
<text text-anchor="middle" x="379.62" y="-110.4" font-family="SourceSans" font-size="8.00" fill="grey">&lt; int &gt;</text>
</g>
<!-- Node18 -->
<g id="node9" class="node">
<title>Node18</title>
<g id="a_node9"><a xlink:title=" ">
<polygon fill="white" stroke="#666666" points="452.38,-88 416.88,-88 416.88,-68 452.38,-68 452.38,-88"/>
<text text-anchor="middle" x="434.62" y="-76.4" font-family="SourceSans" font-size="8.00">Used</text>
</a>
</g>
</g>
<!-- Node18&#45;&gt;Node9 -->
<g id="edge8" class="edge">
<title>Node18&#45;&gt;Node9</title>
<g id="a_edge8"><a xlink:title=" ">
<path fill="none" stroke="#9a32cd" stroke-dasharray="5,2" d="M405.66,-67.02C349.86,-48.16 294.61,-29.98 262.89,-19.58"/>
<polygon fill="#9a32cd" stroke="#9a32cd" points="404.42,-70.3 415.02,-70.19 406.67,-63.67 404.42,-70.3"/>
</a>
</g>
<text text-anchor="middle" x="376.38" y="-42.4" font-family="SourceSans" font-size="8.00" fill="grey">m_usedClass</text>
</g>
</g>
</svg>
