<?xml version="1.0" encoding="UTF-8" standalone="no"?>
<!DOCTYPE svg PUBLIC "-//W3C//DTD SVG 1.1//EN"
 "http://www.w3.org/Graphics/SVG/1.1/DTD/svg11.dtd">
<!-- Generated by graphviz version 12.1.0 (20240811.2233)
 -->
<!-- Title: svg::video_element::start_element Pages: 1 -->
<svg width="255pt" height="134pt"
 viewBox="0.00 0.00 255.25 133.75" xmlns="http://www.w3.org/2000/svg" xmlns:xlink="http://www.w3.org/1999/xlink">

<svg id="main" version="1.1" xmlns="http://www.w3.org/2000/svg" xmlns:xlink="http://www.w3.org/1999/xlink" xml:space="preserve">

<style type="text/css"><![CDATA[
.node, .edge {opacity: 0.7;}
.node.selected, .edge.selected {opacity: 1;}
.edge:hover path { stroke: red; }
.edge:hover polygon { stroke: red; fill: red; }
]]></style>
<script type="application/ecmascript" xlink:href="svg.min.js"/>
<svg id="graph" class="graph">
<g id="graph0" class="graph" transform="scale(1 1) rotate(0) translate(4 129.75)">
<title>svg::video_element::start_element</title>
<!-- Node1 -->
<g id="Node000001" class="node">
<title>Node1</title>
<g id="a_Node000001"><a xlink:title="Video. a is width and height of video as embedded in page r is the foreign object,...">
<polygon fill="#999999" stroke="#666666" points="96.25,-76.62 0,-76.62 0,-49.12 96.25,-49.12 96.25,-76.62"/>
<text text-anchor="start" x="8" y="-65.03" font-family="SourceSans" font-size="8.00">svg::video_element</text>
<text text-anchor="middle" x="48.12" y="-55.27" font-family="SourceSans" font-size="8.00">::start_element</text>
</a>
</g>
</g>
<!-- Node2 -->
<g id="Node000002" class="node">
<title>Node2</title>
<g id="a_Node000002"><a xlink:href="namespacesvg_1_1constants.html#aa7f04c2ea699a1b1e2e790de5ac33f38" target="_top" xlink:title=" ">
<polygon fill="white" stroke="#666666" points="247.25,-125.75 132.25,-125.75 132.25,-108 247.25,-108 247.25,-125.75"/>
<text text-anchor="middle" x="189.75" y="-114.15" font-family="SourceSans" font-size="8.00">svg::constants::newline</text>
</a>
</g>
</g>
<!-- Node1&#45;&gt;Node2 -->
<g id="edge1_Node000001_Node000002" class="edge">
<title>Node1&#45;&gt;Node2</title>
<g id="a_edge1_Node000001_Node000002"><a xlink:title=" ">
<path fill="none" stroke="#63b8ff" d="M79.62,-76.95C95.21,-83.93 114.58,-92.25 132.25,-98.88 136.93,-100.63 141.87,-102.37 146.8,-104.03"/>
<polygon fill="#63b8ff" stroke="#63b8ff" points="145.44,-107.27 156.04,-107.06 147.62,-100.61 145.44,-107.27"/>
</a>
</g>
</g>
<!-- Node3 -->
<g id="Node000003" class="node">
<title>Node3</title>
<g id="a_Node000003"><a xlink:href="namespacesvg_1_1constants.html#a3972655f1dfdc090ec2592d1fb37e87c" target="_top" xlink:title=" ">
<polygon fill="white" stroke="#666666" points="243.12,-89.75 136.38,-89.75 136.38,-72 243.12,-72 243.12,-89.75"/>
<text text-anchor="middle" x="189.75" y="-78.15" font-family="SourceSans" font-size="8.00">svg::constants::quote</text>
</a>
</g>
</g>
<!-- Node1&#45;&gt;Node3 -->
<g id="edge2_Node000001_Node000003" class="edge">
<title>Node1&#45;&gt;Node3</title>
<g id="a_edge2_Node000001_Node000003"><a xlink:title=" ">
<path fill="none" stroke="#63b8ff" d="M96.4,-68.97C105.61,-70.16 115.41,-71.42 125.05,-72.66"/>
<polygon fill="#63b8ff" stroke="#63b8ff" points="124.38,-76.11 134.75,-73.91 125.28,-69.16 124.38,-76.11"/>
</a>
</g>
</g>
<!-- Node4 -->
<g id="Node000004" class="node">
<title>Node4</title>
<g id="a_Node000004"><a xlink:href="namespacesvg_1_1constants.html#ac460bc8db60d85c3ae1cf8b1a903405e" target="_top" xlink:title="Formatting character constants.">
<polygon fill="white" stroke="#666666" points="243.5,-53.75 136,-53.75 136,-36 243.5,-36 243.5,-53.75"/>
<text text-anchor="middle" x="189.75" y="-42.15" font-family="SourceSans" font-size="8.00">svg::constants::space</text>
</a>
</g>
</g>
<!-- Node1&#45;&gt;Node4 -->
<g id="edge3_Node000001_Node000004" class="edge">
<title>Node1&#45;&gt;Node4</title>
<g id="a_edge3_Node000001_Node000004"><a xlink:title=" ">
<path fill="none" stroke="#63b8ff" d="M96.4,-56.78C105.39,-55.62 114.95,-54.39 124.38,-53.17"/>
<polygon fill="#63b8ff" stroke="#63b8ff" points="124.79,-56.65 134.26,-51.9 123.9,-49.71 124.79,-56.65"/>
</a>
</g>
</g>
<!-- Node5 -->
<g id="Node000005" class="node">
<title>Node5</title>
<g id="a_Node000005"><a xlink:href="namespacesvg.html#a48ac748e89e22789d1772326a98dd7b6" target="_top" xlink:title=" ">
<polygon fill="white" stroke="#666666" points="236.38,-17.75 143.12,-17.75 143.12,0 236.38,0 236.38,-17.75"/>
<text text-anchor="middle" x="189.75" y="-6.15" font-family="SourceSans" font-size="8.00">svg::string_replace</text>
</a>
</g>
</g>
<!-- Node1&#45;&gt;Node5 -->
<g id="edge4_Node000001_Node000005" class="edge">
<title>Node1&#45;&gt;Node5</title>
<g id="a_edge4_Node000001_Node000005"><a xlink:title=" ">
<path fill="none" stroke="#63b8ff" d="M79.62,-48.8C95.21,-41.82 114.58,-33.5 132.25,-26.88 136.93,-25.12 141.87,-23.38 146.8,-21.72"/>
<polygon fill="#63b8ff" stroke="#63b8ff" points="147.62,-25.14 156.04,-18.69 145.44,-18.48 147.62,-25.14"/>
</a>
</g>
</g>
</g>
</svg>
</svg>

<style type='text/css'>
<![CDATA[
[data-mouse-over-selected='false'] { opacity: 0.7; }
[data-mouse-over-selected='true']  { opacity: 1.0; }
]]>
</style>
<script type="application/ecmascript"><![CDATA[
document.addEventListener('DOMContentLoaded', (event) => {
  highlightEdges();
  highlightAdjacentNodes();
});
]]></script>
</svg>
