<?xml version="1.0" encoding="UTF-8" standalone="no"?>
<!DOCTYPE svg PUBLIC "-//W3C//DTD SVG 1.1//EN"
 "http://www.w3.org/Graphics/SVG/1.1/DTD/svg11.dtd">
<!-- Generated by graphviz version 12.2.1 (20241206.2353)
 -->
<!-- Title: svg::svg_element::start_element Pages: 1 -->
<svg width="799pt" height="180pt"
 viewBox="0.00 0.00 798.50 179.52" xmlns="http://www.w3.org/2000/svg" xmlns:xlink="http://www.w3.org/1999/xlink">
<g id="graph0" class="graph" transform="scale(1 1) rotate(0) translate(4 175.52)">
<title>svg::svg_element::start_element</title>
<!-- Node1 -->
<g id="Node000001" class="node">
<title>Node1</title>
<g id="a_Node000001"><a xlink:title="SVG element beginning boilerplate for outermost (containing) svg_element. Variable: unit,...">
<polygon fill="#999999" stroke="#666666" points="103,-90 0,-90 0,-58 103,-58 103,-90"/>
<text text-anchor="start" x="8" y="-78.4" font-family="SourceSans" font-size="8.00">svg::svg_element::start</text>
<text text-anchor="middle" x="51.5" y="-66.4" font-family="SourceSans" font-size="8.00">_element</text>
</a>
</g>
</g>
<!-- Node2 -->
<g id="Node000002" class="node">
<title>Node2</title>
<g id="a_Node000002"><a xlink:href="group__elements.html#ad47933f8c0bfc36987493c7e3b3bbcbd" target="_top" xlink:title=" ">
<polygon fill="white" stroke="#666666" points="242,-103 139,-103 139,-83 242,-83 242,-103"/>
<text text-anchor="middle" x="190.5" y="-91.4" font-family="SourceSans" font-size="8.00">svg::svg_element::start</text>
</a>
</g>
</g>
<!-- Node1&#45;&gt;Node2 -->
<g id="edge1_Node000001_Node000002" class="edge">
<title>Node1&#45;&gt;Node2</title>
<g id="a_edge1_Node000001_Node000002"><a xlink:title=" ">
<path fill="none" stroke="#63b8ff" d="M103.12,-74.48C117.06,-76.08 132.05,-78.22 145.58,-80.56"/>
<polygon fill="#63b8ff" stroke="#63b8ff" points="144.58,-83.94 155.04,-82.29 145.84,-77.05 144.58,-83.94"/>
</a>
</g>
</g>
<!-- Node12 -->
<g id="Node000012" class="node">
<title>Node12</title>
<g id="a_Node000012"><a xlink:href="namespacesvg.html#a48ac748e89e22789d1772326a98dd7b6" target="_top" xlink:title=" ">
<polygon fill="white" stroke="#666666" points="234.12,-65 146.88,-65 146.88,-45 234.12,-45 234.12,-65"/>
<text text-anchor="middle" x="190.5" y="-53.4" font-family="SourceSans" font-size="8.00">svg::string_replace</text>
</a>
</g>
</g>
<!-- Node1&#45;&gt;Node12 -->
<g id="edge13_Node000001_Node000012" class="edge">
<title>Node1&#45;&gt;Node12</title>
<g id="a_edge13_Node000001_Node000012"><a xlink:title=" ">
<path fill="none" stroke="#63b8ff" d="M103.12,-66.98C113.65,-65.52 124.78,-63.98 135.42,-62.5"/>
<polygon fill="#63b8ff" stroke="#63b8ff" points="135.8,-65.98 145.23,-61.14 134.84,-59.05 135.8,-65.98"/>
</a>
</g>
</g>
<!-- Node13 -->
<g id="Node000013" class="node">
<title>Node13</title>
<g id="a_Node000013"><a xlink:href="namespacesvg.html#a36b1c48ad4601b205790e3772ad0a7b6" target="_top" xlink:title=" ">
<polygon fill="white" stroke="#666666" points="224,-27 157,-27 157,-7 224,-7 224,-27"/>
<text text-anchor="middle" x="190.5" y="-15.4" font-family="SourceSans" font-size="8.00">svg::to_string</text>
</a>
</g>
</g>
<!-- Node1&#45;&gt;Node13 -->
<g id="edge14_Node000001_Node000013" class="edge">
<title>Node1&#45;&gt;Node13</title>
<g id="a_edge14_Node000001_Node000013"><a xlink:title=" ">
<path fill="none" stroke="#63b8ff" d="M88.51,-57.66C103.97,-50.78 122.29,-42.81 139,-36 142.62,-34.52 146.41,-33.02 150.21,-31.55"/>
<polygon fill="#63b8ff" stroke="#63b8ff" points="151.32,-34.87 159.41,-28.02 148.81,-28.33 151.32,-34.87"/>
</a>
</g>
</g>
<!-- Node2&#45;&gt;Node1 -->
<g id="edge12_Node000002_Node000001" class="edge">
<title>Node2&#45;&gt;Node1</title>
<g id="a_edge12_Node000002_Node000001"><a xlink:title=" ">
<path fill="none" stroke="#63b8ff" d="M138.63,-92.49C130.74,-91.58 122.53,-90.5 114.44,-89.31"/>
<polygon fill="#63b8ff" stroke="#63b8ff" points="115.04,-85.86 104.62,-87.79 113.97,-92.78 115.04,-85.86"/>
</a>
</g>
</g>
<!-- Node3 -->
<g id="Node000003" class="node">
<title>Node3</title>
<g id="a_Node000003"><a xlink:href="group__elements.html#a4a6af4e23b9f79f07d58780c128c5638" target="_top" xlink:title=" ">
<polygon fill="white" stroke="#666666" points="399.75,-126 278,-126 278,-106 399.75,-106 399.75,-126"/>
<text text-anchor="middle" x="338.88" y="-114.4" font-family="SourceSans" font-size="8.00">svg::svg_element::add_desc</text>
</a>
</g>
</g>
<!-- Node2&#45;&gt;Node3 -->
<g id="edge2_Node000002_Node000003" class="edge">
<title>Node2&#45;&gt;Node3</title>
<g id="a_edge2_Node000002_Node000003"><a xlink:title=" ">
<path fill="none" stroke="#63b8ff" d="M242.28,-100.98C250.12,-102.21 258.33,-103.5 266.51,-104.79"/>
<polygon fill="#63b8ff" stroke="#63b8ff" points="265.7,-108.2 276.12,-106.3 266.78,-101.29 265.7,-108.2"/>
</a>
</g>
</g>
<!-- Node8 -->
<g id="Node000008" class="node">
<title>Node8</title>
<g id="a_Node000008"><a xlink:href="group__elements.html#a26869d2a66e57c0d83f2df21d25cd875" target="_top" xlink:title=" ">
<polygon fill="white" stroke="#666666" points="389.25,-85 288.5,-85 288.5,-53 389.25,-53 389.25,-85"/>
<text text-anchor="start" x="296.5" y="-73.4" font-family="SourceSans" font-size="8.00">svg::svg_element::add</text>
<text text-anchor="middle" x="338.88" y="-61.4" font-family="SourceSans" font-size="8.00">_title</text>
</a>
</g>
</g>
<!-- Node2&#45;&gt;Node8 -->
<g id="edge7_Node000002_Node000008" class="edge">
<title>Node2&#45;&gt;Node8</title>
<g id="a_edge7_Node000002_Node000008"><a xlink:title=" ">
<path fill="none" stroke="#63b8ff" d="M242.28,-84.67C253.43,-82.85 265.35,-80.89 276.85,-79.01"/>
<polygon fill="#63b8ff" stroke="#63b8ff" points="277.37,-82.47 286.68,-77.39 276.24,-75.56 277.37,-82.47"/>
</a>
</g>
</g>
<!-- Node4 -->
<g id="Node000004" class="node">
<title>Node4</title>
<g id="a_Node000004"><a xlink:href="group__elements.html#ada0333b46b2547c6152f3f5811016a12" target="_top" xlink:title=" ">
<polygon fill="white" stroke="#666666" points="653.75,-166 562.75,-166 562.75,-134 653.75,-134 653.75,-166"/>
<text text-anchor="start" x="570.75" y="-154.4" font-family="SourceSans" font-size="8.00">svg::element_base::</text>
<text text-anchor="middle" x="608.25" y="-142.4" font-family="SourceSans" font-size="8.00">add_element</text>
</a>
</g>
</g>
<!-- Node3&#45;&gt;Node4 -->
<g id="edge3_Node000003_Node000004" class="edge">
<title>Node3&#45;&gt;Node4</title>
<g id="a_edge3_Node000003_Node000004"><a xlink:title=" ">
<path fill="none" stroke="#63b8ff" d="M354.25,-126.35C372.27,-138.62 404.57,-158.36 435.75,-166 473.72,-175.31 517.63,-170.94 551.51,-164.43"/>
<polygon fill="#63b8ff" stroke="#63b8ff" points="552.02,-167.9 561.11,-162.46 550.61,-161.04 552.02,-167.9"/>
</a>
</g>
</g>
<!-- Node6 -->
<g id="Node000006" class="node">
<title>Node6</title>
<g id="a_Node000006"><a xlink:href="group__elements.html#ga03da556ae8f749df1cf8463111e996d3" target="_top" xlink:title=" ">
<polygon fill="white" stroke="#666666" points="526.38,-157 436.12,-157 436.12,-125 526.38,-125 526.38,-157"/>
<text text-anchor="start" x="444.12" y="-145.4" font-family="SourceSans" font-size="8.00">svg::desc_element::</text>
<text text-anchor="middle" x="481.25" y="-133.4" font-family="SourceSans" font-size="8.00">finish_element</text>
</a>
</g>
</g>
<!-- Node3&#45;&gt;Node6 -->
<g id="edge5_Node000003_Node000006" class="edge">
<title>Node3&#45;&gt;Node6</title>
<g id="a_edge5_Node000003_Node000006"><a xlink:title=" ">
<path fill="none" stroke="#63b8ff" d="M398.59,-126.46C407.26,-128 416.18,-129.59 424.78,-131.12"/>
<polygon fill="#63b8ff" stroke="#63b8ff" points="423.92,-134.52 434.37,-132.83 425.14,-127.63 423.92,-134.52"/>
</a>
</g>
</g>
<!-- Node7 -->
<g id="Node000007" class="node">
<title>Node7</title>
<g id="a_Node000007"><a xlink:href="group__elements.html#a90ffdd73579c45cd0740dc9efa2f5445" target="_top" xlink:title=" ">
<polygon fill="white" stroke="#666666" points="526.38,-107 436.12,-107 436.12,-75 526.38,-75 526.38,-107"/>
<text text-anchor="start" x="444.12" y="-95.4" font-family="SourceSans" font-size="8.00">svg::desc_element::</text>
<text text-anchor="middle" x="481.25" y="-83.4" font-family="SourceSans" font-size="8.00">start_element</text>
</a>
</g>
</g>
<!-- Node3&#45;&gt;Node7 -->
<g id="edge6_Node000003_Node000007" class="edge">
<title>Node3&#45;&gt;Node7</title>
<g id="a_edge6_Node000003_Node000007"><a xlink:title=" ">
<path fill="none" stroke="#63b8ff" d="M398.59,-105.54C407.26,-104 416.18,-102.41 424.78,-100.88"/>
<polygon fill="#63b8ff" stroke="#63b8ff" points="425.14,-104.37 434.37,-99.17 423.92,-97.48 425.14,-104.37"/>
</a>
</g>
</g>
<!-- Node5 -->
<g id="Node000005" class="node">
<title>Node5</title>
<g id="a_Node000005"><a xlink:href="group__elements.html#ad893ef9c13a15464c96d8a85c08af30f" target="_top" xlink:title=" ">
<polygon fill="white" stroke="#666666" points="790.5,-160 689.75,-160 689.75,-140 790.5,-140 790.5,-160"/>
<text text-anchor="middle" x="740.12" y="-148.4" font-family="SourceSans" font-size="8.00">svg::element_base::str</text>
</a>
</g>
</g>
<!-- Node4&#45;&gt;Node5 -->
<g id="edge4_Node000004_Node000005" class="edge">
<title>Node4&#45;&gt;Node5</title>
<g id="a_edge4_Node000004_Node000005"><a xlink:title=" ">
<path fill="none" stroke="#63b8ff" d="M653.95,-150C661.73,-150 669.94,-150 678.07,-150"/>
<polygon fill="#63b8ff" stroke="#63b8ff" points="677.94,-153.5 687.94,-150 677.94,-146.5 677.94,-153.5"/>
</a>
</g>
</g>
<!-- Node9 -->
<g id="Node000009" class="node">
<title>Node9</title>
<g id="a_Node000009"><a xlink:href="group__elements.html#a7995b78d94e1c299065c9dd3569fef7c" target="_top" xlink:title=" ">
<polygon fill="white" stroke="#666666" points="526.75,-57 435.75,-57 435.75,-25 526.75,-25 526.75,-57"/>
<text text-anchor="start" x="443.75" y="-45.4" font-family="SourceSans" font-size="8.00">svg::element_base::</text>
<text text-anchor="middle" x="481.25" y="-33.4" font-family="SourceSans" font-size="8.00">add_title</text>
</a>
</g>
</g>
<!-- Node8&#45;&gt;Node9 -->
<g id="edge8_Node000008_Node000009" class="edge">
<title>Node8&#45;&gt;Node9</title>
<g id="a_edge8_Node000008_Node000009"><a xlink:title=" ">
<path fill="none" stroke="#63b8ff" d="M389.37,-59.13C400.61,-56.88 412.64,-54.49 424.14,-52.19"/>
<polygon fill="#63b8ff" stroke="#63b8ff" points="424.81,-55.63 433.94,-50.24 423.44,-48.76 424.81,-55.63"/>
</a>
</g>
</g>
<!-- Node9&#45;&gt;Node4 -->
<g id="edge9_Node000009_Node000004" class="edge">
<title>Node9&#45;&gt;Node4</title>
<g id="a_edge9_Node000009_Node000004"><a xlink:title=" ">
<path fill="none" stroke="#63b8ff" d="M514.11,-57.37C518.49,-60.05 522.83,-62.96 526.75,-66 549.32,-83.49 571.51,-107.28 586.86,-125.07"/>
<polygon fill="#63b8ff" stroke="#63b8ff" points="584.11,-127.25 593.25,-132.61 589.45,-122.72 584.11,-127.25"/>
</a>
</g>
</g>
<!-- Node10 -->
<g id="Node000010" class="node">
<title>Node10</title>
<g id="a_Node000010"><a xlink:href="group__elements.html#ga3d62381f8edcccd3d91f82af55f11274" target="_top" xlink:title=" ">
<polygon fill="white" stroke="#666666" points="650,-82 566.5,-82 566.5,-50 650,-50 650,-82"/>
<text text-anchor="start" x="574.5" y="-70.4" font-family="SourceSans" font-size="8.00">svg::title_element</text>
<text text-anchor="middle" x="608.25" y="-58.4" font-family="SourceSans" font-size="8.00">::finish_element</text>
</a>
</g>
</g>
<!-- Node9&#45;&gt;Node10 -->
<g id="edge10_Node000009_Node000010" class="edge">
<title>Node9&#45;&gt;Node10</title>
<g id="a_edge10_Node000009_Node000010"><a xlink:title=" ">
<path fill="none" stroke="#63b8ff" d="M527.02,-49.95C536.09,-51.77 545.7,-53.69 554.99,-55.55"/>
<polygon fill="#63b8ff" stroke="#63b8ff" points="554.14,-58.95 564.63,-57.48 555.52,-52.08 554.14,-58.95"/>
</a>
</g>
</g>
<!-- Node11 -->
<g id="Node000011" class="node">
<title>Node11</title>
<g id="a_Node000011"><a xlink:href="group__elements.html#a41dcaa1132c502cb86c01aae1e7b9ff2" target="_top" xlink:title=" ">
<polygon fill="white" stroke="#666666" points="650,-32 566.5,-32 566.5,0 650,0 650,-32"/>
<text text-anchor="start" x="574.5" y="-20.4" font-family="SourceSans" font-size="8.00">svg::title_element</text>
<text text-anchor="middle" x="608.25" y="-8.4" font-family="SourceSans" font-size="8.00">::start_element</text>
</a>
</g>
</g>
<!-- Node9&#45;&gt;Node11 -->
<g id="edge11_Node000009_Node000011" class="edge">
<title>Node9&#45;&gt;Node11</title>
<g id="a_edge11_Node000009_Node000011"><a xlink:title=" ">
<path fill="none" stroke="#63b8ff" d="M527.02,-32.05C536.09,-30.23 545.7,-28.31 554.99,-26.45"/>
<polygon fill="#63b8ff" stroke="#63b8ff" points="555.52,-29.92 564.63,-24.52 554.14,-23.05 555.52,-29.92"/>
</a>
</g>
</g>
</g>
</svg>
