<?xml version="1.0" encoding="UTF-8" standalone="no"?>
<!DOCTYPE svg PUBLIC "-//W3C//DTD SVG 1.1//EN"
 "http://www.w3.org/Graphics/SVG/1.1/DTD/svg11.dtd">
<!-- Generated by graphviz version 12.2.1 (20241206.2353)
 -->
<!-- Title: svg::svg_element::start Pages: 1 -->
<!--zoomable 222 -->

<svg id="main" version="1.1" xmlns="http://www.w3.org/2000/svg" xmlns:xlink="http://www.w3.org/1999/xlink" xml:space="preserve" onload="init(evt)">

<style type="text/css"><![CDATA[
.node, .edge {opacity: 0.7;}
.node.selected, .edge.selected {opacity: 1;}
.edge:hover path { stroke: red; }
.edge:hover polygon { stroke: red; fill: red; }
]]></style>

<defs>
  <circle id="rim" cx="0" cy="0" r="7"/>
  <circle id="rim2" cx="0" cy="0" r="3.5"/>
  <g id="zoomPlus">
    <use xlink:href="#rim" fill="#404040"><set attributeName="fill" to="#808080" begin="zoomplus.mouseover" end="zoomplus.mouseout"/></use>
    <path d="M-4,0h8M0,-4v8" fill="none" stroke="white" stroke-width="1.5" pointer-events="none"/>
  </g>
  <g id="zoomMin">
    <use xlink:href="#rim" fill="#404040"><set attributeName="fill" to="#808080" begin="zoomminus.mouseover" end="zoomminus.mouseout"/></use>
    <path d="M-4,0h8" fill="none" stroke="white" stroke-width="1.5" pointer-events="none"/>
  </g>
  <g id="arrowUp" transform="translate(30 24)">
    <use xlink:href="#rim"/>
    <path pointer-events="none" fill="none" stroke="white" stroke-width="1.5" d="M0,-3.0v7 M-2.5,-0.5L0,-3.0L2.5,-0.5"/>
  </g>
  <g id="arrowRight" transform="rotate(90) translate(36 -43)">
    <use xlink:href="#rim"/>
    <path pointer-events="none" fill="none" stroke="white" stroke-width="1.5" d="M0,-3.0v7 M-2.5,-0.5L0,-3.0L2.5,-0.5"/>
  </g>
  <g id="arrowDown" transform="rotate(180) translate(-30 -48)">
    <use xlink:href="#rim"/>
    <path pointer-events="none" fill="none" stroke="white" stroke-width="1.5" d="M0,-3.0v7 M-2.5,-0.5L0,-3.0L2.5,-0.5"/>
  </g>
  <g id="arrowLeft" transform="rotate(270) translate(-36 17)">
    <use xlink:href="#rim"/>
    <path pointer-events="none" fill="none" stroke="white" stroke-width="1.5" d="M0,-3.0v7 M-2.5,-0.5L0,-3.0L2.5,-0.5"/>
  </g>
  <g id="resetDef">
    <use xlink:href="#rim2" fill="#404040"><set attributeName="fill" to="#808080" begin="reset.mouseover" end="reset.mouseout"/></use>
  </g>
</defs>
<script type="application/ecmascript">
var viewWidth = 708;
var viewHeight = 222;
var sectionId = 'dynsection-46';
</script>
<script type="application/ecmascript" xlink:href="svg.min.js"/>
<svg id="graph" class="graph">
<g id="viewport">
<title>svg::svg_element::start</title>
<!-- Node1 -->
<g id="Node000001" class="node">
<title>Node1</title>
<g id="a_Node000001"><a xlink:title=" ">
<polygon fill="#999999" stroke="#666666" points="112.75,-97.75 0,-97.75 0,-80 112.75,-80 112.75,-97.75"/>
<text text-anchor="middle" x="56.38" y="-86.15" font-family="SourceSans" font-size="8.00">svg::svg_element::start</text>
</a>
</g>
</g>
<!-- Node2 -->
<g id="Node000002" class="node">
<title>Node2</title>
<g id="a_Node000002"><a xlink:href="group__elements.html#a4a6af4e23b9f79f07d58780c128c5638" target="_top" xlink:title=" ">
<polygon fill="white" stroke="#666666" points="281.75,-186.75 148.75,-186.75 148.75,-169 281.75,-169 281.75,-186.75"/>
<text text-anchor="middle" x="215.25" y="-175.15" font-family="SourceSans" font-size="8.00">svg::svg_element::add_desc</text>
</a>
</g>
</g>
<!-- Node1&#45;&gt;Node2 -->
<g id="edge1_Node000001_Node000002" class="edge">
<title>Node1&#45;&gt;Node2</title>
<g id="a_edge1_Node000001_Node000002"><a xlink:title=" ">
<path fill="none" stroke="#63b8ff" d="M67.26,-98.24C83.22,-112.88 116.17,-141.26 148.75,-157.88 153.85,-160.48 159.35,-162.8 164.91,-164.87"/>
<polygon fill="#63b8ff" stroke="#63b8ff" points="163.59,-168.12 174.18,-168.04 165.85,-161.5 163.59,-168.12"/>
</a>
</g>
</g>
<!-- Node7 -->
<g id="Node000007" class="node">
<title>Node7</title>
<g id="a_Node000007"><a xlink:href="group__elements.html#a950cbe5a602d34d0affc61bb66512c82" target="_top" xlink:title=" ">
<polygon fill="white" stroke="#666666" points="270.12,-148.62 160.38,-148.62 160.38,-121.12 270.12,-121.12 270.12,-148.62"/>
<text text-anchor="start" x="168.38" y="-137.03" font-family="SourceSans" font-size="8.00">svg::svg_element::add</text>
<text text-anchor="middle" x="215.25" y="-127.28" font-family="SourceSans" font-size="8.00">_filters</text>
</a>
</g>
</g>
<!-- Node1&#45;&gt;Node7 -->
<g id="edge6_Node000001_Node000007" class="edge">
<title>Node1&#45;&gt;Node7</title>
<g id="a_edge6_Node000001_Node000007"><a xlink:title=" ">
<path fill="none" stroke="#63b8ff" d="M89.12,-98.18C108.05,-103.73 132.68,-110.96 155.07,-117.52"/>
<polygon fill="#63b8ff" stroke="#63b8ff" points="153.82,-120.8 164.4,-120.26 155.79,-114.09 153.82,-120.8"/>
</a>
</g>
</g>
<!-- Node8 -->
<g id="Node000008" class="node">
<title>Node8</title>
<g id="a_Node000008"><a xlink:href="group__elements.html#a26869d2a66e57c0d83f2df21d25cd875" target="_top" xlink:title=" ">
<polygon fill="white" stroke="#666666" points="270.12,-102.62 160.38,-102.62 160.38,-75.12 270.12,-75.12 270.12,-102.62"/>
<text text-anchor="start" x="168.38" y="-91.03" font-family="SourceSans" font-size="8.00">svg::svg_element::add</text>
<text text-anchor="middle" x="215.25" y="-81.28" font-family="SourceSans" font-size="8.00">_title</text>
</a>
</g>
</g>
<!-- Node1&#45;&gt;Node8 -->
<g id="edge7_Node000001_Node000008" class="edge">
<title>Node1&#45;&gt;Node8</title>
<g id="a_edge7_Node000001_Node000008"><a xlink:title=" ">
<path fill="none" stroke="#63b8ff" d="M113.12,-88.88C124.67,-88.88 136.93,-88.88 148.79,-88.88"/>
<polygon fill="#63b8ff" stroke="#63b8ff" points="148.48,-92.38 158.48,-88.88 148.48,-85.38 148.48,-92.38"/>
</a>
</g>
</g>
<!-- Node12 -->
<g id="Node000012" class="node">
<title>Node12</title>
<g id="a_Node000012"><a xlink:href="group__elements.html#a83eb3152f92ca357473c2ef8f23ced98" target="_top" xlink:title="SVG element beginning boilerplate for outermost (containing) svg_element. Variable: unit,...">
<polygon fill="white" stroke="#666666" points="271.62,-56.62 158.88,-56.62 158.88,-29.12 271.62,-29.12 271.62,-56.62"/>
<text text-anchor="start" x="166.88" y="-45.02" font-family="SourceSans" font-size="8.00">svg::svg_element::start</text>
<text text-anchor="middle" x="215.25" y="-35.27" font-family="SourceSans" font-size="8.00">_element</text>
</a>
</g>
</g>
<!-- Node1&#45;&gt;Node12 -->
<g id="edge12_Node000001_Node000012" class="edge">
<title>Node1&#45;&gt;Node12</title>
<g id="a_edge12_Node000001_Node000012"><a xlink:title=" ">
<path fill="none" stroke="#63b8ff" d="M74.16,-79.58C91.81,-72.55 120.7,-63.31 147.67,-55.72"/>
<polygon fill="#63b8ff" stroke="#63b8ff" points="148.51,-59.12 157.22,-53.08 146.65,-52.37 148.51,-59.12"/>
</a>
</g>
</g>
<!-- Node3 -->
<g id="Node000003" class="node">
<title>Node3</title>
<g id="a_Node000003"><a xlink:href="group__elements.html#ada0333b46b2547c6152f3f5811016a12" target="_top" xlink:title=" ">
<polygon fill="white" stroke="#666666" points="553.75,-213.62 453.75,-213.62 453.75,-186.12 553.75,-186.12 553.75,-213.62"/>
<text text-anchor="start" x="461.75" y="-202.03" font-family="SourceSans" font-size="8.00">svg::element_base::</text>
<text text-anchor="middle" x="503.75" y="-192.28" font-family="SourceSans" font-size="8.00">add_element</text>
</a>
</g>
</g>
<!-- Node2&#45;&gt;Node3 -->
<g id="edge2_Node000002_Node000003" class="edge">
<title>Node2&#45;&gt;Node3</title>
<g id="a_edge2_Node000002_Node000003"><a xlink:title=" ">
<path fill="none" stroke="#63b8ff" d="M246.1,-187.24C266.13,-193.03 293.25,-199.9 317.75,-202.88 361.87,-208.23 373.31,-203.66 417.75,-202.88 425.58,-202.74 433.81,-202.53 441.94,-202.28"/>
<polygon fill="#63b8ff" stroke="#63b8ff" points="441.92,-205.78 451.8,-201.96 441.7,-198.79 441.92,-205.78"/>
</a>
</g>
</g>
<!-- Node5 -->
<g id="Node000005" class="node">
<title>Node5</title>
<g id="a_Node000005"><a xlink:href="group__elements.html#ga03da556ae8f749df1cf8463111e996d3" target="_top" xlink:title=" ">
<polygon fill="white" stroke="#666666" points="417.38,-193.62 318.12,-193.62 318.12,-166.12 417.38,-166.12 417.38,-193.62"/>
<text text-anchor="start" x="326.12" y="-182.03" font-family="SourceSans" font-size="8.00">svg::desc_element::</text>
<text text-anchor="middle" x="367.75" y="-172.28" font-family="SourceSans" font-size="8.00">finish_element</text>
</a>
</g>
</g>
<!-- Node2&#45;&gt;Node5 -->
<g id="edge4_Node000002_Node000005" class="edge">
<title>Node2&#45;&gt;Node5</title>
<g id="a_edge4_Node000002_Node000005"><a xlink:title=" ">
<path fill="none" stroke="#63b8ff" d="M281.82,-178.75C290.01,-178.86 298.35,-178.97 306.44,-179.07"/>
<polygon fill="#63b8ff" stroke="#63b8ff" points="306.13,-182.57 316.18,-179.2 306.23,-175.57 306.13,-182.57"/>
</a>
</g>
</g>
<!-- Node6 -->
<g id="Node000006" class="node">
<title>Node6</title>
<g id="a_Node000006"><a xlink:href="group__elements.html#a90ffdd73579c45cd0740dc9efa2f5445" target="_top" xlink:title=" ">
<polygon fill="white" stroke="#666666" points="417.38,-147.62 318.12,-147.62 318.12,-120.12 417.38,-120.12 417.38,-147.62"/>
<text text-anchor="start" x="326.12" y="-136.03" font-family="SourceSans" font-size="8.00">svg::desc_element::</text>
<text text-anchor="middle" x="367.75" y="-126.28" font-family="SourceSans" font-size="8.00">start_element</text>
</a>
</g>
</g>
<!-- Node2&#45;&gt;Node6 -->
<g id="edge5_Node000002_Node000006" class="edge">
<title>Node2&#45;&gt;Node6</title>
<g id="a_edge5_Node000002_Node000006"><a xlink:title=" ">
<path fill="none" stroke="#63b8ff" d="M248.17,-168.54C265.35,-163.52 287.1,-157.16 307.27,-151.26"/>
<polygon fill="#63b8ff" stroke="#63b8ff" points="308.21,-154.64 316.82,-148.47 306.24,-147.92 308.21,-154.64"/>
</a>
</g>
</g>
<!-- Node4 -->
<g id="Node000004" class="node">
<title>Node4</title>
<g id="a_Node000004"><a xlink:href="group__elements.html#ad893ef9c13a15464c96d8a85c08af30f" target="_top" xlink:title=" ">
<polygon fill="white" stroke="#666666" points="700.25,-208.75 589.75,-208.75 589.75,-191 700.25,-191 700.25,-208.75"/>
<text text-anchor="middle" x="645" y="-197.15" font-family="SourceSans" font-size="8.00">svg::element_base::str</text>
</a>
</g>
</g>
<!-- Node3&#45;&gt;Node4 -->
<g id="edge3_Node000003_Node000004" class="edge">
<title>Node3&#45;&gt;Node4</title>
<g id="a_edge3_Node000003_Node000004"><a xlink:title=" ">
<path fill="none" stroke="#63b8ff" d="M554.24,-199.88C561.99,-199.88 570.12,-199.88 578.17,-199.88"/>
<polygon fill="#63b8ff" stroke="#63b8ff" points="577.95,-203.38 587.95,-199.88 577.95,-196.38 577.95,-203.38"/>
</a>
</g>
</g>
<!-- Node9 -->
<g id="Node000009" class="node">
<title>Node9</title>
<g id="a_Node000009"><a xlink:href="group__elements.html#a7995b78d94e1c299065c9dd3569fef7c" target="_top" xlink:title=" ">
<polygon fill="white" stroke="#666666" points="417.75,-101.62 317.75,-101.62 317.75,-74.12 417.75,-74.12 417.75,-101.62"/>
<text text-anchor="start" x="325.75" y="-90.03" font-family="SourceSans" font-size="8.00">svg::element_base::</text>
<text text-anchor="middle" x="367.75" y="-80.28" font-family="SourceSans" font-size="8.00">add_title</text>
</a>
</g>
</g>
<!-- Node8&#45;&gt;Node9 -->
<g id="edge8_Node000008_Node000009" class="edge">
<title>Node8&#45;&gt;Node9</title>
<g id="a_edge8_Node000008_Node000009"><a xlink:title=" ">
<path fill="none" stroke="#63b8ff" d="M270.58,-88.51C282.08,-88.44 294.28,-88.36 305.99,-88.28"/>
<polygon fill="#63b8ff" stroke="#63b8ff" points="306.01,-91.78 315.98,-88.21 305.96,-84.78 306.01,-91.78"/>
</a>
</g>
</g>
<!-- Node9&#45;&gt;Node3 -->
<g id="edge9_Node000009_Node000003" class="edge">
<title>Node9&#45;&gt;Node3</title>
<g id="a_edge9_Node000009_Node000003"><a xlink:title=" ">
<path fill="none" stroke="#63b8ff" d="M403.15,-102.02C408.22,-104.67 413.25,-107.64 417.75,-110.88 443.98,-129.75 468.89,-157.39 484.88,-176.85"/>
<polygon fill="#63b8ff" stroke="#63b8ff" points="482.03,-178.89 491.03,-184.49 487.49,-174.5 482.03,-178.89"/>
</a>
</g>
</g>
<!-- Node10 -->
<g id="Node000010" class="node">
<title>Node10</title>
<g id="a_Node000010"><a xlink:href="group__elements.html#ga3d62381f8edcccd3d91f82af55f11274" target="_top" xlink:title=" ">
<polygon fill="white" stroke="#666666" points="548.5,-123.62 459,-123.62 459,-96.12 548.5,-96.12 548.5,-123.62"/>
<text text-anchor="start" x="467" y="-112.03" font-family="SourceSans" font-size="8.00">svg::title_element</text>
<text text-anchor="middle" x="503.75" y="-102.28" font-family="SourceSans" font-size="8.00">::finish_element</text>
</a>
</g>
</g>
<!-- Node9&#45;&gt;Node10 -->
<g id="edge10_Node000009_Node000010" class="edge">
<title>Node9&#45;&gt;Node10</title>
<g id="a_edge10_Node000009_Node000010"><a xlink:title=" ">
<path fill="none" stroke="#63b8ff" d="M417.89,-95.94C427.55,-97.53 437.75,-99.2 447.59,-100.82"/>
<polygon fill="#63b8ff" stroke="#63b8ff" points="447.01,-104.27 457.44,-102.44 448.14,-97.36 447.01,-104.27"/>
</a>
</g>
</g>
<!-- Node11 -->
<g id="Node000011" class="node">
<title>Node11</title>
<g id="a_Node000011"><a xlink:href="group__elements.html#a41dcaa1132c502cb86c01aae1e7b9ff2" target="_top" xlink:title=" ">
<polygon fill="white" stroke="#666666" points="548.5,-77.62 459,-77.62 459,-50.12 548.5,-50.12 548.5,-77.62"/>
<text text-anchor="start" x="467" y="-66.03" font-family="SourceSans" font-size="8.00">svg::title_element</text>
<text text-anchor="middle" x="503.75" y="-56.27" font-family="SourceSans" font-size="8.00">::start_element</text>
</a>
</g>
</g>
<!-- Node9&#45;&gt;Node11 -->
<g id="edge11_Node000009_Node000011" class="edge">
<title>Node9&#45;&gt;Node11</title>
<g id="a_edge11_Node000009_Node000011"><a xlink:title=" ">
<path fill="none" stroke="#63b8ff" d="M417.89,-79.07C427.65,-77.32 437.97,-75.48 447.91,-73.7"/>
<polygon fill="#63b8ff" stroke="#63b8ff" points="448.22,-77.2 457.45,-71.99 446.99,-70.31 448.22,-77.2"/>
</a>
</g>
</g>
<!-- Node12&#45;&gt;Node1 -->
<g id="edge13_Node000012_Node000001" class="edge">
<title>Node12&#45;&gt;Node1</title>
<g id="a_edge13_Node000012_Node000001"><a xlink:title=" ">
<path fill="none" stroke="#63b8ff" d="M184.24,-57.12C166.53,-63.42 143.39,-70.61 121.74,-76.65"/>
<polygon fill="#63b8ff" stroke="#63b8ff" points="121.11,-73.2 112.38,-79.21 122.95,-79.95 121.11,-73.2"/>
</a>
</g>
</g>
<!-- Node13 -->
<g id="Node000013" class="node">
<title>Node13</title>
<g id="a_Node000013"><a xlink:href="namespacesvg.html#a48ac748e89e22789d1772326a98dd7b6" target="_top" xlink:title=" ">
<polygon fill="white" stroke="#666666" points="414.38,-53.75 321.12,-53.75 321.12,-36 414.38,-36 414.38,-53.75"/>
<text text-anchor="middle" x="367.75" y="-42.15" font-family="SourceSans" font-size="8.00">svg::string_replace</text>
</a>
</g>
</g>
<!-- Node12&#45;&gt;Node13 -->
<g id="edge14_Node000012_Node000013" class="edge">
<title>Node12&#45;&gt;Node13</title>
<g id="a_edge14_Node000012_Node000013"><a xlink:title=" ">
<path fill="none" stroke="#63b8ff" d="M271.86,-43.61C284.05,-43.78 296.97,-43.95 309.22,-44.11"/>
<polygon fill="#63b8ff" stroke="#63b8ff" points="309.17,-47.61 319.21,-44.24 309.26,-40.61 309.17,-47.61"/>
</a>
</g>
</g>
<!-- Node14 -->
<g id="Node000014" class="node">
<title>Node14</title>
<g id="a_Node000014"><a xlink:href="namespacesvg.html#a36b1c48ad4601b205790e3772ad0a7b6" target="_top" xlink:title=" ">
<polygon fill="white" stroke="#666666" points="403.5,-17.75 332,-17.75 332,0 403.5,0 403.5,-17.75"/>
<text text-anchor="middle" x="367.75" y="-6.15" font-family="SourceSans" font-size="8.00">svg::to_string</text>
</a>
</g>
</g>
<!-- Node12&#45;&gt;Node14 -->
<g id="edge15_Node000012_Node000014" class="edge">
<title>Node12&#45;&gt;Node14</title>
<g id="a_edge15_Node000012_Node000014"><a xlink:title=" ">
<path fill="none" stroke="#63b8ff" d="M271.86,-30.31C288.03,-26.66 305.51,-22.71 321,-19.21"/>
<polygon fill="#63b8ff" stroke="#63b8ff" points="321.42,-22.7 330.4,-17.09 319.88,-15.88 321.42,-22.7"/>
</a>
</g>
</g>
</g>
</svg>

<g id="navigator" transform="translate(0 0)" fill="#404254">
  <rect fill="#f2f5e9" fill-opacity="0.5" stroke="#606060" stroke-width=".5" x="0" y="0" width="60" height="60"/>
  <use id="zoomplus" xlink:href="#zoomPlus" x="17" y="9" onmousedown="handleZoom(evt,'in')"/>
  <use id="zoomminus" xlink:href="#zoomMin" x="42" y="9" onmousedown="handleZoom(evt,'out')"/>
  <use id="reset" xlink:href="#resetDef" x="30" y="36" onmousedown="handleReset()"/>
   <use id="arrowup" xlink:href="#arrowUp" x="0" y="0" onmousedown="handlePan(0,-1)"/>
  <use id="arrowright" xlink:href="#arrowRight" x="0" y="0" onmousedown="handlePan(1,0)"/>
  <use id="arrowdown" xlink:href="#arrowDown" x="0" y="0" onmousedown="handlePan(0,1)"/>
  <use id="arrowleft" xlink:href="#arrowLeft" x="0" y="0" onmousedown="handlePan(-1,0)"/>
</g>
<svg viewBox="0 0 15 15" width="100%" height="30px" preserveAspectRatio="xMaxYMin meet">
 <g id="arrow_out" transform="scale(0.3 0.3)">
  <a xlink:href="group__elements_ad47933f8c0bfc36987493c7e3b3bbcbd_cgraph_org.svg" target="_base">
   <rect id="button" ry="5" rx="5" y="6" x="6" height="38" width="38"
        fill="#f2f5e9" fill-opacity="0.5" stroke="#606060" stroke-width="1.0"/>
   <path id="arrow"
     d="M 11.500037,31.436501 C 11.940474,20.09759 22.043105,11.32322 32.158766,21.979434 L 37.068811,17.246167 C 37.068811,17.246167 37.088388,32 37.088388,32 L 22.160133,31.978069 C 22.160133,31.978069 26.997745,27.140456 26.997745,27.140456 C 18.528582,18.264221 13.291696,25.230495 11.500037,31.436501 z"
     style="fill:#404040;"/>
  </a>
 </g>
</svg>

<style type='text/css'>
<![CDATA[
[data-mouse-over-selected='false'] { opacity: 0.7; }
[data-mouse-over-selected='true']  { opacity: 1.0; }
]]>
</style>
<script type="application/ecmascript"><![CDATA[
document.addEventListener('DOMContentLoaded', (event) => {
  highlightEdges();
  highlightAdjacentNodes();
});
]]></script>
</svg>
