<?xml version="1.0" encoding="UTF-8" standalone="no"?>
<!DOCTYPE svg PUBLIC "-//W3C//DTD SVG 1.1//EN"
 "http://www.w3.org/Graphics/SVG/1.1/DTD/svg11.dtd">
<!-- Generated by graphviz version 12.1.0 (20240811.2233)
 -->
<!-- Title: svg::element_base::add_fill Pages: 1 -->
<svg width="232pt" height="66pt"
 viewBox="0.00 0.00 232.00 66.00" xmlns="http://www.w3.org/2000/svg" xmlns:xlink="http://www.w3.org/1999/xlink">
<g id="graph0" class="graph" transform="scale(1 1) rotate(0) translate(4 62)">
<title>svg::element_base::add_fill</title>
<!-- Node1 -->
<g id="Node000001" class="node">
<title>Node1</title>
<g id="a_Node000001"><a xlink:title=" ">
<polygon fill="#999999" stroke="#666666" points="91,-45 0,-45 0,-13 91,-13 91,-45"/>
<text text-anchor="start" x="8" y="-33.4" font-family="SourceSans" font-size="8.00">svg::element_base::</text>
<text text-anchor="middle" x="45.5" y="-21.4" font-family="SourceSans" font-size="8.00">add_fill</text>
</a>
</g>
</g>
<!-- Node2 -->
<g id="Node000002" class="node">
<title>Node2</title>
<g id="a_Node000002"><a xlink:href="namespacesvg_1_1constants.html#a3972655f1dfdc090ec2592d1fb37e87c" target="_top" xlink:title=" ">
<polygon fill="white" stroke="#666666" points="224,-58 127,-58 127,-38 224,-38 224,-58"/>
<text text-anchor="middle" x="175.5" y="-46.4" font-family="SourceSans" font-size="8.00">svg::constants::quote</text>
</a>
</g>
</g>
<!-- Node1&#45;&gt;Node2 -->
<g id="edge1_Node000001_Node000002" class="edge">
<title>Node1&#45;&gt;Node2</title>
<g id="a_edge1_Node000001_Node000002"><a xlink:title=" ">
<path fill="none" stroke="#63b8ff" d="M91.27,-35.65C99.2,-36.82 107.56,-38.06 115.81,-39.29"/>
<polygon fill="#63b8ff" stroke="#63b8ff" points="115.03,-42.71 125.43,-40.72 116.05,-35.79 115.03,-42.71"/>
</a>
</g>
</g>
<!-- Node3 -->
<g id="Node000003" class="node">
<title>Node3</title>
<g id="a_Node000003"><a xlink:href="namespacesvg_1_1constants.html#ac460bc8db60d85c3ae1cf8b1a903405e" target="_top" xlink:title="Formatting character constants.">
<polygon fill="white" stroke="#666666" points="223.62,-20 127.38,-20 127.38,0 223.62,0 223.62,-20"/>
<text text-anchor="middle" x="175.5" y="-8.4" font-family="SourceSans" font-size="8.00">svg::constants::space</text>
</a>
</g>
</g>
<!-- Node1&#45;&gt;Node3 -->
<g id="edge2_Node000001_Node000003" class="edge">
<title>Node1&#45;&gt;Node3</title>
<g id="a_edge2_Node000001_Node000003"><a xlink:title=" ">
<path fill="none" stroke="#63b8ff" d="M91.27,-22.35C99.2,-21.18 107.56,-19.94 115.81,-18.71"/>
<polygon fill="#63b8ff" stroke="#63b8ff" points="116.05,-22.21 125.43,-17.28 115.03,-15.29 116.05,-22.21"/>
</a>
</g>
</g>
</g>
</svg>
