<?xml version="1.0" encoding="UTF-8" standalone="no"?>
<!DOCTYPE svg PUBLIC "-//W3C//DTD SVG 1.1//EN"
 "http://www.w3.org/Graphics/SVG/1.1/DTD/svg11.dtd">
<!-- Generated by graphviz version 12.1.0 (20240811.2233)
 -->
<!-- Title: svg::filter_element::gaussian_blur Pages: 1 -->
<svg width="373pt" height="62pt"
 viewBox="0.00 0.00 372.50 61.75" xmlns="http://www.w3.org/2000/svg" xmlns:xlink="http://www.w3.org/1999/xlink">
<g id="graph0" class="graph" transform="scale(1 1) rotate(0) translate(4 57.75)">
<title>svg::filter_element::gaussian_blur</title>
<!-- Node1 -->
<g id="Node000001" class="node">
<title>Node1</title>
<g id="a_Node000001"><a xlink:title=" ">
<polygon fill="#999999" stroke="#666666" points="92.5,-40.62 0,-40.62 0,-13.13 92.5,-13.13 92.5,-40.62"/>
<text text-anchor="start" x="8" y="-29.02" font-family="SourceSans" font-size="8.00">svg::filter_element</text>
<text text-anchor="middle" x="46.25" y="-19.27" font-family="SourceSans" font-size="8.00">::gaussian_blur</text>
</a>
</g>
</g>
<!-- Node2 -->
<g id="Node000002" class="node">
<title>Node2</title>
<g id="a_Node000002"><a xlink:href="group__elements.html#a14631cdcd8f6985199683ac3f2d92159" target="_top" xlink:title=" ">
<polygon fill="white" stroke="#666666" points="221,-40.62 128.5,-40.62 128.5,-13.13 221,-13.13 221,-40.62"/>
<text text-anchor="start" x="136.5" y="-29.02" font-family="SourceSans" font-size="8.00">svg::filter_element</text>
<text text-anchor="middle" x="174.75" y="-19.27" font-family="SourceSans" font-size="8.00">::gaussian_blur</text>
</a>
</g>
</g>
<!-- Node1&#45;&gt;Node2 -->
<g id="edge1_Node000001_Node000002" class="edge">
<title>Node1&#45;&gt;Node2</title>
<g id="a_edge1_Node000001_Node000002"><a xlink:title=" ">
<path fill="none" stroke="#63b8ff" d="M92.92,-26.88C100.62,-26.88 108.7,-26.88 116.65,-26.88"/>
<polygon fill="#63b8ff" stroke="#63b8ff" points="116.63,-30.38 126.63,-26.88 116.63,-23.38 116.63,-30.38"/>
</a>
</g>
</g>
<!-- Node3 -->
<g id="Node000003" class="node">
<title>Node3</title>
<g id="a_Node000003"><a xlink:href="namespacesvg_1_1constants.html#a3972655f1dfdc090ec2592d1fb37e87c" target="_top" xlink:title=" ">
<polygon fill="white" stroke="#666666" points="364.12,-53.75 257.38,-53.75 257.38,-36 364.12,-36 364.12,-53.75"/>
<text text-anchor="middle" x="310.75" y="-42.15" font-family="SourceSans" font-size="8.00">svg::constants::quote</text>
</a>
</g>
</g>
<!-- Node2&#45;&gt;Node3 -->
<g id="edge2_Node000002_Node000003" class="edge">
<title>Node2&#45;&gt;Node3</title>
<g id="a_edge2_Node000002_Node000003"><a xlink:title=" ">
<path fill="none" stroke="#63b8ff" d="M221.49,-33.02C229.41,-34.08 237.78,-35.21 246.08,-36.32"/>
<polygon fill="#63b8ff" stroke="#63b8ff" points="245.42,-39.77 255.8,-37.63 246.36,-32.83 245.42,-39.77"/>
</a>
</g>
</g>
<!-- Node4 -->
<g id="Node000004" class="node">
<title>Node4</title>
<g id="a_Node000004"><a xlink:href="namespacesvg_1_1constants.html#ac460bc8db60d85c3ae1cf8b1a903405e" target="_top" xlink:title="Formatting character constants.">
<polygon fill="white" stroke="#666666" points="364.5,-17.75 257,-17.75 257,0 364.5,0 364.5,-17.75"/>
<text text-anchor="middle" x="310.75" y="-6.15" font-family="SourceSans" font-size="8.00">svg::constants::space</text>
</a>
</g>
</g>
<!-- Node2&#45;&gt;Node4 -->
<g id="edge3_Node000002_Node000004" class="edge">
<title>Node2&#45;&gt;Node4</title>
<g id="a_edge3_Node000002_Node000004"><a xlink:title=" ">
<path fill="none" stroke="#63b8ff" d="M221.49,-20.73C229.22,-19.69 237.37,-18.6 245.47,-17.51"/>
<polygon fill="#63b8ff" stroke="#63b8ff" points="245.89,-20.98 255.33,-16.18 244.96,-14.05 245.89,-20.98"/>
</a>
</g>
</g>
</g>
</svg>
