<?xml version="1.0" encoding="UTF-8" standalone="no"?>
<!DOCTYPE svg PUBLIC "-//W3C//DTD SVG 1.1//EN"
 "http://www.w3.org/Graphics/SVG/1.1/DTD/svg11.dtd">
<!-- Generated by graphviz version 12.1.0 (20240811.2233)
 -->
<!-- Title: svg::radial_gradient::start_element Pages: 1 -->
<svg width="535pt" height="85pt"
 viewBox="0.00 0.00 534.75 84.96" xmlns="http://www.w3.org/2000/svg" xmlns:xlink="http://www.w3.org/1999/xlink">
<g id="graph0" class="graph" transform="scale(1 1) rotate(0) translate(4 80.96)">
<title>svg::radial_gradient::start_element</title>
<!-- Node1 -->
<g id="Node000001" class="node">
<title>Node1</title>
<g id="a_Node000001"><a xlink:title=" ">
<polygon fill="#999999" stroke="#666666" points="97.75,-68.5 0,-68.5 0,-41 97.75,-41 97.75,-68.5"/>
<text text-anchor="start" x="8" y="-56.9" font-family="SourceSans" font-size="8.00">svg::radial_gradient</text>
<text text-anchor="middle" x="48.88" y="-47.15" font-family="SourceSans" font-size="8.00">::start_element</text>
</a>
</g>
</g>
<!-- Node2 -->
<g id="Node000002" class="node">
<title>Node2</title>
<g id="a_Node000002"><a xlink:href="namespacesvg_1_1constants.html#aa7f04c2ea699a1b1e2e790de5ac33f38" target="_top" xlink:title=" ">
<polygon fill="white" stroke="#666666" points="526.75,-61.62 411.75,-61.62 411.75,-43.88 526.75,-43.88 526.75,-61.62"/>
<text text-anchor="middle" x="469.25" y="-50.02" font-family="SourceSans" font-size="8.00">svg::constants::newline</text>
</a>
</g>
</g>
<!-- Node1&#45;&gt;Node2 -->
<g id="edge1_Node000001_Node000002" class="edge">
<title>Node1&#45;&gt;Node2</title>
<g id="a_edge1_Node000001_Node000002"><a xlink:title=" ">
<path fill="none" stroke="#63b8ff" d="M97.94,-66.89C109.58,-69.32 122.05,-71.51 133.75,-72.75 225.63,-82.5 332.24,-72.45 399.95,-63.42"/>
<polygon fill="#63b8ff" stroke="#63b8ff" points="400.37,-66.9 409.8,-62.08 399.42,-59.96 400.37,-66.9"/>
</a>
</g>
</g>
<!-- Node3 -->
<g id="Node000003" class="node">
<title>Node3</title>
<g id="a_Node000003"><a xlink:href="namespacesvg_1_1constants.html#a3972655f1dfdc090ec2592d1fb37e87c" target="_top" xlink:title=" ">
<polygon fill="white" stroke="#666666" points="241.25,-63.62 134.5,-63.62 134.5,-45.88 241.25,-45.88 241.25,-63.62"/>
<text text-anchor="middle" x="187.88" y="-52.02" font-family="SourceSans" font-size="8.00">svg::constants::quote</text>
</a>
</g>
</g>
<!-- Node1&#45;&gt;Node3 -->
<g id="edge2_Node000001_Node000003" class="edge">
<title>Node1&#45;&gt;Node3</title>
<g id="a_edge2_Node000001_Node000003"><a xlink:title=" ">
<path fill="none" stroke="#63b8ff" d="M98.18,-54.75C106.23,-54.75 114.69,-54.75 123.05,-54.75"/>
<polygon fill="#63b8ff" stroke="#63b8ff" points="122.84,-58.25 132.84,-54.75 122.84,-51.25 122.84,-58.25"/>
</a>
</g>
</g>
<!-- Node4 -->
<g id="Node000004" class="node">
<title>Node4</title>
<g id="a_Node000004"><a xlink:href="group__elements.html#aeff87acc0c098e1c329a0fd01605c56f" target="_top" xlink:title=" ">
<polygon fill="white" stroke="#666666" points="242,-27.5 133.75,-27.5 133.75,0 242,0 242,-27.5"/>
<text text-anchor="start" x="141.75" y="-15.9" font-family="SourceSans" font-size="8.00">svg::gradient_element</text>
<text text-anchor="middle" x="187.88" y="-6.15" font-family="SourceSans" font-size="8.00">::start_element</text>
</a>
</g>
</g>
<!-- Node1&#45;&gt;Node4 -->
<g id="edge3_Node000001_Node000004" class="edge">
<title>Node1&#45;&gt;Node4</title>
<g id="a_edge3_Node000001_Node000004"><a xlink:title=" ">
<path fill="none" stroke="#63b8ff" d="M97.41,-40.53C107.5,-37.5 118.27,-34.28 128.71,-31.16"/>
<polygon fill="#63b8ff" stroke="#63b8ff" points="129.4,-34.6 137.98,-28.38 127.39,-27.9 129.4,-34.6"/>
</a>
</g>
</g>
<!-- Node5 -->
<g id="Node000005" class="node">
<title>Node5</title>
<g id="a_Node000005"><a xlink:href="group__elements.html#a948868c6f5dea784ded14c26cc1d2139" target="_top" xlink:title=" ">
<polygon fill="white" stroke="#666666" points="375.75,-45.5 278,-45.5 278,-18 375.75,-18 375.75,-45.5"/>
<text text-anchor="start" x="286" y="-33.9" font-family="SourceSans" font-size="8.00">svg::defs_element::</text>
<text text-anchor="middle" x="326.88" y="-24.15" font-family="SourceSans" font-size="8.00">start_element</text>
</a>
</g>
</g>
<!-- Node4&#45;&gt;Node5 -->
<g id="edge4_Node000004_Node000005" class="edge">
<title>Node4&#45;&gt;Node5</title>
<g id="a_edge4_Node000004_Node000005"><a xlink:title=" ">
<path fill="none" stroke="#63b8ff" d="M242.24,-20.76C250.2,-21.81 258.46,-22.89 266.54,-23.95"/>
<polygon fill="#63b8ff" stroke="#63b8ff" points="265.93,-27.4 276.3,-25.24 266.84,-20.46 265.93,-27.4"/>
</a>
</g>
</g>
<!-- Node5&#45;&gt;Node2 -->
<g id="edge5_Node000005_Node000002" class="edge">
<title>Node5&#45;&gt;Node2</title>
<g id="a_edge5_Node000005_Node000002"><a xlink:title=" ">
<path fill="none" stroke="#63b8ff" d="M376.18,-38.98C384.04,-40.15 392.29,-41.39 400.51,-42.62"/>
<polygon fill="#63b8ff" stroke="#63b8ff" points="399.73,-46.04 410.14,-44.06 400.77,-39.12 399.73,-46.04"/>
</a>
</g>
</g>
</g>
</svg>
