<?xml version="1.0" encoding="UTF-8" standalone="no"?>
<!DOCTYPE svg PUBLIC "-//W3C//DTD SVG 1.1//EN"
 "http://www.w3.org/Graphics/SVG/1.1/DTD/svg11.dtd">
<!-- Generated by graphviz version 12.1.0 (20240811.2233)
 -->
<!-- Title: svg::video_element::start_element Pages: 1 -->
<svg width="237pt" height="142pt"
 viewBox="0.00 0.00 237.25 142.00" xmlns="http://www.w3.org/2000/svg" xmlns:xlink="http://www.w3.org/1999/xlink">

<svg id="main" version="1.1" xmlns="http://www.w3.org/2000/svg" xmlns:xlink="http://www.w3.org/1999/xlink" xml:space="preserve">

<style type="text/css"><![CDATA[
.node, .edge {opacity: 0.7;}
.node.selected, .edge.selected {opacity: 1;}
.edge:hover path { stroke: red; }
.edge:hover polygon { stroke: red; fill: red; }
]]></style>
<script type="application/ecmascript" xlink:href="svg.min.js"/>
<svg id="graph" class="graph">
<g id="graph0" class="graph" transform="scale(1 1) rotate(0) translate(4 138)">
<title>svg::video_element::start_element</title>
<!-- Node1 -->
<g id="Node000001" class="node">
<title>Node1</title>
<g id="a_Node000001"><a xlink:title="Video. a is width and height of video as embedded in page r is the foreign object,...">
<polygon fill="#999999" stroke="#666666" points="88.75,-83 0,-83 0,-51 88.75,-51 88.75,-83"/>
<text text-anchor="start" x="8" y="-71.4" font-family="SourceSans" font-size="8.00">svg::video_element</text>
<text text-anchor="middle" x="44.38" y="-59.4" font-family="SourceSans" font-size="8.00">::start_element</text>
</a>
</g>
</g>
<!-- Node2 -->
<g id="Node000002" class="node">
<title>Node2</title>
<g id="a_Node000002"><a xlink:href="namespacesvg_1_1constants.html#aa7f04c2ea699a1b1e2e790de5ac33f38" target="_top" xlink:title=" ">
<polygon fill="white" stroke="#666666" points="229.25,-134 124.75,-134 124.75,-114 229.25,-114 229.25,-134"/>
<text text-anchor="middle" x="177" y="-122.4" font-family="SourceSans" font-size="8.00">svg::constants::newline</text>
</a>
</g>
</g>
<!-- Node1&#45;&gt;Node2 -->
<g id="edge1_Node000001_Node000002" class="edge">
<title>Node1&#45;&gt;Node2</title>
<g id="a_edge1_Node000001_Node000002"><a xlink:title=" ">
<path fill="none" stroke="#63b8ff" d="M77.89,-83.4C92.14,-90.36 109.13,-98.38 124.75,-105 128.31,-106.51 132.03,-108.02 135.78,-109.49"/>
<polygon fill="#63b8ff" stroke="#63b8ff" points="134.27,-112.66 144.86,-112.96 136.78,-106.12 134.27,-112.66"/>
</a>
</g>
</g>
<!-- Node3 -->
<g id="Node000003" class="node">
<title>Node3</title>
<g id="a_Node000003"><a xlink:href="namespacesvg_1_1constants.html#a3972655f1dfdc090ec2592d1fb37e87c" target="_top" xlink:title=" ">
<polygon fill="white" stroke="#666666" points="225.5,-96 128.5,-96 128.5,-76 225.5,-76 225.5,-96"/>
<text text-anchor="middle" x="177" y="-84.4" font-family="SourceSans" font-size="8.00">svg::constants::quote</text>
</a>
</g>
</g>
<!-- Node1&#45;&gt;Node3 -->
<g id="edge2_Node000001_Node000003" class="edge">
<title>Node1&#45;&gt;Node3</title>
<g id="a_edge2_Node000001_Node000003"><a xlink:title=" ">
<path fill="none" stroke="#63b8ff" d="M89.23,-73.38C98.19,-74.68 107.76,-76.07 117.14,-77.44"/>
<polygon fill="#63b8ff" stroke="#63b8ff" points="116.55,-80.89 126.95,-78.86 117.55,-73.96 116.55,-80.89"/>
</a>
</g>
</g>
<!-- Node4 -->
<g id="Node000004" class="node">
<title>Node4</title>
<g id="a_Node000004"><a xlink:href="namespacesvg_1_1constants.html#ac460bc8db60d85c3ae1cf8b1a903405e" target="_top" xlink:title="Formatting character constants.">
<polygon fill="white" stroke="#666666" points="225.12,-58 128.88,-58 128.88,-38 225.12,-38 225.12,-58"/>
<text text-anchor="middle" x="177" y="-46.4" font-family="SourceSans" font-size="8.00">svg::constants::space</text>
</a>
</g>
</g>
<!-- Node1&#45;&gt;Node4 -->
<g id="edge3_Node000001_Node000004" class="edge">
<title>Node1&#45;&gt;Node4</title>
<g id="a_edge3_Node000001_Node000004"><a xlink:title=" ">
<path fill="none" stroke="#63b8ff" d="M89.23,-60.62C98.19,-59.32 107.76,-57.93 117.14,-56.56"/>
<polygon fill="#63b8ff" stroke="#63b8ff" points="117.55,-60.04 126.95,-55.14 116.55,-53.11 117.55,-60.04"/>
</a>
</g>
</g>
<!-- Node5 -->
<g id="Node000005" class="node">
<title>Node5</title>
<g id="a_Node000005"><a xlink:href="namespacesvg.html#a48ac748e89e22789d1772326a98dd7b6" target="_top" xlink:title=" ">
<polygon fill="white" stroke="#666666" points="220.62,-20 133.38,-20 133.38,0 220.62,0 220.62,-20"/>
<text text-anchor="middle" x="177" y="-8.4" font-family="SourceSans" font-size="8.00">svg::string_replace</text>
</a>
</g>
</g>
<!-- Node1&#45;&gt;Node5 -->
<g id="edge4_Node000001_Node000005" class="edge">
<title>Node1&#45;&gt;Node5</title>
<g id="a_edge4_Node000001_Node000005"><a xlink:title=" ">
<path fill="none" stroke="#63b8ff" d="M77.89,-50.6C92.14,-43.64 109.13,-35.62 124.75,-29 128.31,-27.49 132.03,-25.98 135.78,-24.51"/>
<polygon fill="#63b8ff" stroke="#63b8ff" points="136.78,-27.88 144.86,-21.04 134.27,-21.34 136.78,-27.88"/>
</a>
</g>
</g>
</g>
</svg>
</svg>

<style type='text/css'>
<![CDATA[
[data-mouse-over-selected='false'] { opacity: 0.7; }
[data-mouse-over-selected='true']  { opacity: 1.0; }
]]>
</style>
<script type="application/ecmascript"><![CDATA[
document.addEventListener('DOMContentLoaded', (event) => {
  highlightEdges();
  highlightAdjacentNodes();
});
]]></script>
</svg>
