<?xml version="1.0" encoding="UTF-8" standalone="no"?>
<!DOCTYPE svg PUBLIC "-//W3C//DTD SVG 1.1//EN"
 "http://www.w3.org/Graphics/SVG/1.1/DTD/svg11.dtd">
<!-- Generated by graphviz version 12.1.0 (20240811.2233)
 -->
<!-- Title: svg::svg_element::start Pages: 1 -->
<svg width="546pt" height="278pt"
 viewBox="0.00 0.00 546.00 278.00" xmlns="http://www.w3.org/2000/svg" xmlns:xlink="http://www.w3.org/1999/xlink">
<g id="graph0" class="graph" transform="scale(1 1) rotate(0) translate(4 274)">
<title>svg::svg_element::start</title>
<!-- Node1 -->
<g id="Node000001" class="node">
<title>Node1</title>
<g id="a_Node000001"><a xlink:title=" ">
<polygon fill="#999999" stroke="#666666" points="103,-101 0,-101 0,-81 103,-81 103,-101"/>
<text text-anchor="middle" x="51.5" y="-89.4" font-family="SourceSans" font-size="8.00">svg::svg_element::start</text>
</a>
</g>
</g>
<!-- Node2 -->
<g id="Node000002" class="node">
<title>Node2</title>
<g id="a_Node000002"><a xlink:href="group__elements.html#a4a6af4e23b9f79f07d58780c128c5638" target="_top" xlink:title=" ">
<polygon fill="white" stroke="#666666" points="260.75,-170 139,-170 139,-150 260.75,-150 260.75,-170"/>
<text text-anchor="middle" x="199.88" y="-158.4" font-family="SourceSans" font-size="8.00">svg::svg_element::add_desc</text>
</a>
</g>
</g>
<!-- Node1&#45;&gt;Node2 -->
<g id="edge1_Node000001_Node000002" class="edge">
<title>Node1&#45;&gt;Node2</title>
<g id="a_edge1_Node000001_Node000002"><a xlink:title=" ">
<path fill="none" stroke="#63b8ff" d="M68.21,-101.48C85.14,-112.43 113.13,-129.58 139,-141 142.82,-142.68 146.83,-144.29 150.89,-145.8"/>
<polygon fill="#63b8ff" stroke="#63b8ff" points="149.65,-149.08 160.25,-149.08 151.97,-142.47 149.65,-149.08"/>
</a>
</g>
</g>
<!-- Node9 -->
<g id="Node000009" class="node">
<title>Node9</title>
<g id="a_Node000009"><a xlink:href="group__elements.html#a950cbe5a602d34d0affc61bb66512c82" target="_top" xlink:title=" ">
<polygon fill="white" stroke="#666666" points="250.25,-82 149.5,-82 149.5,-50 250.25,-50 250.25,-82"/>
<text text-anchor="start" x="157.5" y="-70.4" font-family="SourceSans" font-size="8.00">svg::svg_element::add</text>
<text text-anchor="middle" x="199.88" y="-58.4" font-family="SourceSans" font-size="8.00">_filters</text>
</a>
</g>
</g>
<!-- Node1&#45;&gt;Node9 -->
<g id="edge8_Node000001_Node000009" class="edge">
<title>Node1&#45;&gt;Node9</title>
<g id="a_edge8_Node000001_Node000009"><a xlink:title=" ">
<path fill="none" stroke="#63b8ff" d="M103.28,-82.33C114.43,-80.42 126.35,-78.39 137.85,-76.42"/>
<polygon fill="#63b8ff" stroke="#63b8ff" points="138.41,-79.88 147.68,-74.74 137.23,-72.98 138.41,-79.88"/>
</a>
</g>
</g>
<!-- Node10 -->
<g id="Node000010" class="node">
<title>Node10</title>
<g id="a_Node000010"><a xlink:href="group__elements.html#a26869d2a66e57c0d83f2df21d25cd875" target="_top" xlink:title=" ">
<polygon fill="white" stroke="#666666" points="250.25,-132 149.5,-132 149.5,-100 250.25,-100 250.25,-132"/>
<text text-anchor="start" x="157.5" y="-120.4" font-family="SourceSans" font-size="8.00">svg::svg_element::add</text>
<text text-anchor="middle" x="199.88" y="-108.4" font-family="SourceSans" font-size="8.00">_title</text>
</a>
</g>
</g>
<!-- Node1&#45;&gt;Node10 -->
<g id="edge9_Node000001_Node000010" class="edge">
<title>Node1&#45;&gt;Node10</title>
<g id="a_edge9_Node000001_Node000010"><a xlink:title=" ">
<path fill="none" stroke="#63b8ff" d="M103.28,-99.67C114.43,-101.58 126.35,-103.61 137.85,-105.58"/>
<polygon fill="#63b8ff" stroke="#63b8ff" points="137.23,-109.02 147.68,-107.26 138.41,-102.12 137.23,-109.02"/>
</a>
</g>
</g>
<!-- Node13 -->
<g id="Node000013" class="node">
<title>Node13</title>
<g id="a_Node000013"><a xlink:href="group__elements.html#a83eb3152f92ca357473c2ef8f23ced98" target="_top" xlink:title=" ">
<polygon fill="white" stroke="#666666" points="251.38,-32 148.38,-32 148.38,0 251.38,0 251.38,-32"/>
<text text-anchor="start" x="156.38" y="-20.4" font-family="SourceSans" font-size="8.00">svg::svg_element::start</text>
<text text-anchor="middle" x="199.88" y="-8.4" font-family="SourceSans" font-size="8.00">_element</text>
</a>
</g>
</g>
<!-- Node1&#45;&gt;Node13 -->
<g id="edge16_Node000001_Node000013" class="edge">
<title>Node1&#45;&gt;Node13</title>
<g id="a_edge16_Node000001_Node000013"><a xlink:title=" ">
<path fill="none" stroke="#63b8ff" d="M69.06,-80.57C86.21,-69.97 113.97,-53.39 139,-41 141.7,-39.66 144.49,-38.33 147.32,-37.02"/>
<polygon fill="#63b8ff" stroke="#63b8ff" points="148.58,-40.29 156.27,-33.01 145.72,-33.9 148.58,-40.29"/>
</a>
</g>
</g>
<!-- Node3 -->
<g id="Node000003" class="node">
<title>Node3</title>
<g id="a_Node000003"><a xlink:href="group__elements.html#acafbdd950c6c2639c9d376c3eab696e5" target="_top" xlink:title=" ">
<polygon fill="white" stroke="#666666" points="392.62,-132 301.62,-132 301.62,-100 392.62,-100 392.62,-132"/>
<text text-anchor="start" x="309.62" y="-120.4" font-family="SourceSans" font-size="8.00">svg::element_base::</text>
<text text-anchor="middle" x="347.12" y="-108.4" font-family="SourceSans" font-size="8.00">add_raw</text>
</a>
</g>
</g>
<!-- Node2&#45;&gt;Node3 -->
<g id="edge2_Node000002_Node000003" class="edge">
<title>Node2&#45;&gt;Node3</title>
<g id="a_edge2_Node000002_Node000003"><a xlink:title=" ">
<path fill="none" stroke="#63b8ff" d="M235.3,-149.57C251.7,-144.6 271.74,-138.53 290.24,-132.93"/>
<polygon fill="#63b8ff" stroke="#63b8ff" points="291.21,-136.29 299.77,-130.04 289.19,-129.59 291.21,-136.29"/>
</a>
</g>
</g>
<!-- Node5 -->
<g id="Node000005" class="node">
<title>Node5</title>
<g id="a_Node000005"><a xlink:href="group__elements.html#ga03da556ae8f749df1cf8463111e996d3" target="_top" xlink:title=" ">
<polygon fill="white" stroke="#666666" points="392.25,-220 302,-220 302,-188 392.25,-188 392.25,-220"/>
<text text-anchor="start" x="310" y="-208.4" font-family="SourceSans" font-size="8.00">svg::desc_element::</text>
<text text-anchor="middle" x="347.12" y="-196.4" font-family="SourceSans" font-size="8.00">finish_element</text>
</a>
</g>
</g>
<!-- Node2&#45;&gt;Node5 -->
<g id="edge4_Node000002_Node000005" class="edge">
<title>Node2&#45;&gt;Node5</title>
<g id="a_edge4_Node000002_Node000005"><a xlink:title=" ">
<path fill="none" stroke="#63b8ff" d="M235.3,-170.43C251.92,-175.46 272.27,-181.63 290.98,-187.29"/>
<polygon fill="#63b8ff" stroke="#63b8ff" points="289.73,-190.57 300.31,-190.12 291.76,-183.87 289.73,-190.57"/>
</a>
</g>
</g>
<!-- Node7 -->
<g id="Node000007" class="node">
<title>Node7</title>
<g id="a_Node000007"><a xlink:href="group__elements.html#a90ffdd73579c45cd0740dc9efa2f5445" target="_top" xlink:title=" ">
<polygon fill="white" stroke="#666666" points="392.25,-270 302,-270 302,-238 392.25,-238 392.25,-270"/>
<text text-anchor="start" x="310" y="-258.4" font-family="SourceSans" font-size="8.00">svg::desc_element::</text>
<text text-anchor="middle" x="347.12" y="-246.4" font-family="SourceSans" font-size="8.00">start_element</text>
</a>
</g>
</g>
<!-- Node2&#45;&gt;Node7 -->
<g id="edge6_Node000002_Node000007" class="edge">
<title>Node2&#45;&gt;Node7</title>
<g id="a_edge6_Node000002_Node000007"><a xlink:title=" ">
<path fill="none" stroke="#63b8ff" d="M213.77,-170.27C231.78,-184.38 265.73,-210.14 296.75,-229 298.57,-230.1 300.44,-231.2 302.34,-232.29"/>
<polygon fill="#63b8ff" stroke="#63b8ff" points="300.24,-235.13 310.69,-236.88 303.61,-228.99 300.24,-235.13"/>
</a>
</g>
</g>
<!-- Node8 -->
<g id="Node000008" class="node">
<title>Node8</title>
<g id="a_Node000008"><a xlink:href="group__elements.html#ad893ef9c13a15464c96d8a85c08af30f" target="_top" xlink:title=" ">
<polygon fill="white" stroke="#666666" points="397.5,-170 296.75,-170 296.75,-150 397.5,-150 397.5,-170"/>
<text text-anchor="middle" x="347.12" y="-158.4" font-family="SourceSans" font-size="8.00">svg::element_base::str</text>
</a>
</g>
</g>
<!-- Node2&#45;&gt;Node8 -->
<g id="edge7_Node000002_Node000008" class="edge">
<title>Node2&#45;&gt;Node8</title>
<g id="a_edge7_Node000002_Node000008"><a xlink:title=" ">
<path fill="none" stroke="#63b8ff" d="M261.21,-160C269.07,-160 277.12,-160 284.99,-160"/>
<polygon fill="#63b8ff" stroke="#63b8ff" points="284.83,-163.5 294.83,-160 284.83,-156.5 284.83,-163.5"/>
</a>
</g>
</g>
<!-- Node4 -->
<g id="Node000004" class="node">
<title>Node4</title>
<g id="a_Node000004"><a xlink:href="namespacesvg_1_1constants.html#ac460bc8db60d85c3ae1cf8b1a903405e" target="_top" xlink:title="Formatting character constants.">
<polygon fill="white" stroke="#666666" points="533.88,-126 437.62,-126 437.62,-106 533.88,-106 533.88,-126"/>
<text text-anchor="middle" x="485.75" y="-114.4" font-family="SourceSans" font-size="8.00">svg::constants::space</text>
</a>
</g>
</g>
<!-- Node3&#45;&gt;Node4 -->
<g id="edge3_Node000003_Node000004" class="edge">
<title>Node3&#45;&gt;Node4</title>
<g id="a_edge3_Node000003_Node000004"><a xlink:title=" ">
<path fill="none" stroke="#63b8ff" d="M392.86,-116C403.49,-116 414.98,-116 426.13,-116"/>
<polygon fill="#63b8ff" stroke="#63b8ff" points="426.05,-119.5 436.05,-116 426.05,-112.5 426.05,-119.5"/>
</a>
</g>
</g>
<!-- Node6 -->
<g id="Node000006" class="node">
<title>Node6</title>
<g id="a_Node000006"><a xlink:href="namespacesvg_1_1constants.html#aa7f04c2ea699a1b1e2e790de5ac33f38" target="_top" xlink:title=" ">
<polygon fill="white" stroke="#666666" points="538,-76 433.5,-76 433.5,-56 538,-56 538,-76"/>
<text text-anchor="middle" x="485.75" y="-64.4" font-family="SourceSans" font-size="8.00">svg::constants::newline</text>
</a>
</g>
</g>
<!-- Node5&#45;&gt;Node6 -->
<g id="edge5_Node000005_Node000006" class="edge">
<title>Node5&#45;&gt;Node6</title>
<g id="a_edge5_Node000005_Node000006"><a xlink:title=" ">
<path fill="none" stroke="#63b8ff" d="M387.16,-187.61C390.92,-185.07 394.46,-182.21 397.5,-179 424.86,-150.09 407.25,-126.92 433.5,-97 438.52,-91.28 444.87,-86.29 451.36,-82.09"/>
<polygon fill="#63b8ff" stroke="#63b8ff" points="452.71,-85.36 459.55,-77.27 449.16,-79.32 452.71,-85.36"/>
</a>
</g>
</g>
<!-- Node10&#45;&gt;Node3 -->
<g id="edge10_Node000010_Node000003" class="edge">
<title>Node10&#45;&gt;Node3</title>
<g id="a_edge10_Node000010_Node000003"><a xlink:title=" ">
<path fill="none" stroke="#63b8ff" d="M250.46,-116C263.17,-116 276.93,-116 289.95,-116"/>
<polygon fill="#63b8ff" stroke="#63b8ff" points="289.64,-119.5 299.64,-116 289.64,-112.5 289.64,-119.5"/>
</a>
</g>
</g>
<!-- Node10&#45;&gt;Node8 -->
<g id="edge15_Node000010_Node000008" class="edge">
<title>Node10&#45;&gt;Node8</title>
<g id="a_edge15_Node000010_Node000008"><a xlink:title=" ">
<path fill="none" stroke="#63b8ff" d="M250.46,-131.02C266.88,-136 285.06,-141.5 301.13,-146.37"/>
<polygon fill="#63b8ff" stroke="#63b8ff" points="299.83,-149.63 310.41,-149.18 301.86,-142.93 299.83,-149.63"/>
</a>
</g>
</g>
<!-- Node11 -->
<g id="Node000011" class="node">
<title>Node11</title>
<g id="a_Node000011"><a xlink:href="group__elements.html#ga3d62381f8edcccd3d91f82af55f11274" target="_top" xlink:title=" ">
<polygon fill="white" stroke="#666666" points="388.88,-32 305.38,-32 305.38,0 388.88,0 388.88,-32"/>
<text text-anchor="start" x="313.38" y="-20.4" font-family="SourceSans" font-size="8.00">svg::title_element</text>
<text text-anchor="middle" x="347.12" y="-8.4" font-family="SourceSans" font-size="8.00">::finish_element</text>
</a>
</g>
</g>
<!-- Node10&#45;&gt;Node11 -->
<g id="edge11_Node000010_Node000011" class="edge">
<title>Node10&#45;&gt;Node11</title>
<g id="a_edge11_Node000010_Node000011"><a xlink:title=" ">
<path fill="none" stroke="#63b8ff" d="M247.45,-99.64C252.16,-97.09 256.69,-94.22 260.75,-91 282.19,-73.97 275.94,-58.8 296.75,-41 297.66,-40.22 298.6,-39.46 299.57,-38.71"/>
<polygon fill="#63b8ff" stroke="#63b8ff" points="301.21,-41.82 307.51,-33.3 297.27,-36.04 301.21,-41.82"/>
</a>
</g>
</g>
<!-- Node12 -->
<g id="Node000012" class="node">
<title>Node12</title>
<g id="a_Node000012"><a xlink:href="group__elements.html#a41dcaa1132c502cb86c01aae1e7b9ff2" target="_top" xlink:title=" ">
<polygon fill="white" stroke="#666666" points="388.88,-82 305.38,-82 305.38,-50 388.88,-50 388.88,-82"/>
<text text-anchor="start" x="313.38" y="-70.4" font-family="SourceSans" font-size="8.00">svg::title_element</text>
<text text-anchor="middle" x="347.12" y="-58.4" font-family="SourceSans" font-size="8.00">::start_element</text>
</a>
</g>
</g>
<!-- Node10&#45;&gt;Node12 -->
<g id="edge13_Node000010_Node000012" class="edge">
<title>Node10&#45;&gt;Node12</title>
<g id="a_edge13_Node000010_Node000012"><a xlink:title=" ">
<path fill="none" stroke="#63b8ff" d="M248.44,-99.63C263.22,-94.54 279.57,-88.91 294.61,-83.73"/>
<polygon fill="#63b8ff" stroke="#63b8ff" points="295.54,-87.12 303.85,-80.55 293.26,-80.5 295.54,-87.12"/>
</a>
</g>
</g>
<!-- Node11&#45;&gt;Node6 -->
<g id="edge12_Node000011_Node000006" class="edge">
<title>Node11&#45;&gt;Node6</title>
<g id="a_edge12_Node000011_Node000006"><a xlink:title=" ">
<path fill="none" stroke="#63b8ff" d="M389.12,-31C407,-37.55 427.87,-45.18 445.54,-51.65"/>
<polygon fill="#63b8ff" stroke="#63b8ff" points="444.34,-54.94 454.93,-55.09 446.74,-48.36 444.34,-54.94"/>
</a>
</g>
</g>
<!-- Node12&#45;&gt;Node6 -->
<g id="edge14_Node000012_Node000006" class="edge">
<title>Node12&#45;&gt;Node6</title>
<g id="a_edge14_Node000012_Node000006"><a xlink:title=" ">
<path fill="none" stroke="#63b8ff" d="M389.12,-66C399.38,-66 410.64,-66 421.7,-66"/>
<polygon fill="#63b8ff" stroke="#63b8ff" points="421.61,-69.5 431.61,-66 421.61,-62.5 421.61,-69.5"/>
</a>
</g>
</g>
</g>
</svg>
