<?xml version="1.0" encoding="UTF-8" standalone="no"?>
<!DOCTYPE svg PUBLIC "-//W3C//DTD SVG 1.1//EN"
 "http://www.w3.org/Graphics/SVG/1.1/DTD/svg11.dtd">
<!-- Generated by graphviz version 12.1.0 (20240811.2233)
 -->
<!-- Title: svg::svg_element::svg_element Pages: 1 -->
<svg width="414pt" height="128pt"
 viewBox="0.00 0.00 413.75 127.50" xmlns="http://www.w3.org/2000/svg" xmlns:xlink="http://www.w3.org/1999/xlink">
<g id="graph0" class="graph" transform="scale(1 1) rotate(0) translate(4 123.5)">
<title>svg::svg_element::svg_element</title>
<!-- Node1 -->
<g id="Node000001" class="node">
<title>Node1</title>
<g id="a_Node000001"><a xlink:title=" ">
<polygon fill="#999999" stroke="#666666" points="108.25,-73.5 0,-73.5 0,-46 108.25,-46 108.25,-73.5"/>
<text text-anchor="start" x="8" y="-61.9" font-family="SourceSans" font-size="8.00">svg::svg_element::svg</text>
<text text-anchor="middle" x="54.12" y="-52.15" font-family="SourceSans" font-size="8.00">_element</text>
</a>
</g>
</g>
<!-- Node2 -->
<g id="Node000002" class="node">
<title>Node2</title>
<g id="a_Node000002"><a xlink:href="group__elements.html#ae1b39c6231e9730253f0e7e28d2fcc00" target="_top" xlink:title=" ">
<polygon fill="white" stroke="#666666" points="257,-68.62 144.25,-68.62 144.25,-50.88 257,-50.88 257,-68.62"/>
<text text-anchor="middle" x="200.62" y="-57.02" font-family="SourceSans" font-size="8.00">svg::svg_element::start</text>
</a>
</g>
</g>
<!-- Node1&#45;&gt;Node2 -->
<g id="edge1_Node000001_Node000002" class="edge">
<title>Node1&#45;&gt;Node2</title>
<g id="a_edge1_Node000001_Node000002"><a xlink:title=" ">
<path fill="none" stroke="#63b8ff" d="M108.52,-59.75C116.39,-59.75 124.58,-59.75 132.68,-59.75"/>
<polygon fill="#63b8ff" stroke="#63b8ff" points="132.52,-63.25 142.52,-59.75 132.52,-56.25 132.52,-63.25"/>
</a>
</g>
</g>
<!-- Node3 -->
<g id="Node000003" class="node">
<title>Node3</title>
<g id="a_Node000003"><a xlink:href="group__elements.html#a950cbe5a602d34d0affc61bb66512c82" target="_top" xlink:title=" ">
<polygon fill="white" stroke="#666666" points="404.25,-119.5 294.5,-119.5 294.5,-92 404.25,-92 404.25,-119.5"/>
<text text-anchor="start" x="302.5" y="-107.9" font-family="SourceSans" font-size="8.00">svg::svg_element::add</text>
<text text-anchor="middle" x="349.38" y="-98.15" font-family="SourceSans" font-size="8.00">_filters</text>
</a>
</g>
</g>
<!-- Node2&#45;&gt;Node3 -->
<g id="edge2_Node000002_Node000003" class="edge">
<title>Node2&#45;&gt;Node3</title>
<g id="a_edge2_Node000002_Node000003"><a xlink:title=" ">
<path fill="none" stroke="#63b8ff" d="M231.32,-69.06C248.79,-74.53 271.44,-81.63 292.16,-88.13"/>
<polygon fill="#63b8ff" stroke="#63b8ff" points="291.07,-91.46 301.66,-91.11 293.16,-84.78 291.07,-91.46"/>
</a>
</g>
</g>
<!-- Node4 -->
<g id="Node000004" class="node">
<title>Node4</title>
<g id="a_Node000004"><a xlink:href="group__elements.html#a26869d2a66e57c0d83f2df21d25cd875" target="_top" xlink:title=" ">
<polygon fill="white" stroke="#666666" points="404.25,-73.5 294.5,-73.5 294.5,-46 404.25,-46 404.25,-73.5"/>
<text text-anchor="start" x="302.5" y="-61.9" font-family="SourceSans" font-size="8.00">svg::svg_element::add</text>
<text text-anchor="middle" x="349.38" y="-52.15" font-family="SourceSans" font-size="8.00">_title</text>
</a>
</g>
</g>
<!-- Node2&#45;&gt;Node4 -->
<g id="edge3_Node000002_Node000004" class="edge">
<title>Node2&#45;&gt;Node4</title>
<g id="a_edge3_Node000002_Node000004"><a xlink:title=" ">
<path fill="none" stroke="#63b8ff" d="M257.1,-59.75C265.57,-59.75 274.37,-59.75 283.03,-59.75"/>
<polygon fill="#63b8ff" stroke="#63b8ff" points="282.76,-63.25 292.76,-59.75 282.76,-56.25 282.76,-63.25"/>
</a>
</g>
</g>
<!-- Node5 -->
<g id="Node000005" class="node">
<title>Node5</title>
<g id="a_Node000005"><a xlink:href="group__elements.html#a83eb3152f92ca357473c2ef8f23ced98" target="_top" xlink:title=" ">
<polygon fill="white" stroke="#666666" points="405.75,-27.5 293,-27.5 293,0 405.75,0 405.75,-27.5"/>
<text text-anchor="start" x="301" y="-15.9" font-family="SourceSans" font-size="8.00">svg::svg_element::start</text>
<text text-anchor="middle" x="349.38" y="-6.15" font-family="SourceSans" font-size="8.00">_element</text>
</a>
</g>
</g>
<!-- Node2&#45;&gt;Node5 -->
<g id="edge4_Node000002_Node000005" class="edge">
<title>Node2&#45;&gt;Node5</title>
<g id="a_edge4_Node000002_Node000005"><a xlink:title=" ">
<path fill="none" stroke="#63b8ff" d="M231.32,-50.44C248.79,-44.97 271.44,-37.87 292.16,-31.37"/>
<polygon fill="#63b8ff" stroke="#63b8ff" points="293.16,-34.72 301.66,-28.39 291.07,-28.04 293.16,-34.72"/>
</a>
</g>
</g>
</g>
</svg>
