<?xml version="1.0" encoding="UTF-8" standalone="no"?>
<!DOCTYPE svg PUBLIC "-//W3C//DTD SVG 1.1//EN"
 "http://www.w3.org/Graphics/SVG/1.1/DTD/svg11.dtd">
<!-- Generated by graphviz version 12.1.0 (20240811.2233)
 -->
<!-- Title: svg::radial_gradient::start_element Pages: 1 -->
<svg width="535pt" height="124pt"
 viewBox="0.00 0.00 534.75 124.48" xmlns="http://www.w3.org/2000/svg" xmlns:xlink="http://www.w3.org/1999/xlink">
<g id="graph0" class="graph" transform="scale(1 1) rotate(0) translate(4 120.48)">
<title>svg::radial_gradient::start_element</title>
<!-- Node1 -->
<g id="Node000001" class="node">
<title>Node1</title>
<g id="a_Node000001"><a xlink:title=" ">
<polygon fill="#999999" stroke="#666666" points="97.75,-86.5 0,-86.5 0,-59 97.75,-59 97.75,-86.5"/>
<text text-anchor="start" x="8" y="-74.9" font-family="SourceSans" font-size="8.00">svg::radial_gradient</text>
<text text-anchor="middle" x="48.88" y="-65.15" font-family="SourceSans" font-size="8.00">::start_element</text>
</a>
</g>
</g>
<!-- Node2 -->
<g id="Node000002" class="node">
<title>Node2</title>
<g id="a_Node000002"><a xlink:href="namespacesvg_1_1constants.html#aa7f04c2ea699a1b1e2e790de5ac33f38" target="_top" xlink:title=" ">
<polygon fill="white" stroke="#666666" points="526.75,-79.62 411.75,-79.62 411.75,-61.88 526.75,-61.88 526.75,-79.62"/>
<text text-anchor="middle" x="469.25" y="-68.03" font-family="SourceSans" font-size="8.00">svg::constants::newline</text>
</a>
</g>
</g>
<!-- Node1&#45;&gt;Node2 -->
<g id="edge1_Node000001_Node000002" class="edge">
<title>Node1&#45;&gt;Node2</title>
<g id="a_edge1_Node000001_Node000002"><a xlink:title=" ">
<path fill="none" stroke="#63b8ff" d="M75.43,-86.94C91.6,-95.1 113.26,-104.54 133.75,-108.75 238.85,-130.35 365.22,-101.43 428.31,-83.34"/>
<polygon fill="#63b8ff" stroke="#63b8ff" points="429.28,-86.71 437.89,-80.53 427.31,-79.99 429.28,-86.71"/>
</a>
</g>
</g>
<!-- Node3 -->
<g id="Node000003" class="node">
<title>Node3</title>
<g id="a_Node000003"><a xlink:href="namespacesvg_1_1constants.html#a3972655f1dfdc090ec2592d1fb37e87c" target="_top" xlink:title=" ">
<polygon fill="white" stroke="#666666" points="241.25,-99.62 134.5,-99.62 134.5,-81.88 241.25,-81.88 241.25,-99.62"/>
<text text-anchor="middle" x="187.88" y="-88.03" font-family="SourceSans" font-size="8.00">svg::constants::quote</text>
</a>
</g>
</g>
<!-- Node1&#45;&gt;Node3 -->
<g id="edge2_Node000001_Node000003" class="edge">
<title>Node1&#45;&gt;Node3</title>
<g id="a_edge2_Node000001_Node000003"><a xlink:title=" ">
<path fill="none" stroke="#63b8ff" d="M98.18,-79.1C106.23,-80.15 114.69,-81.27 123.05,-82.36"/>
<polygon fill="#63b8ff" stroke="#63b8ff" points="122.48,-85.82 132.85,-83.65 123.39,-78.88 122.48,-85.82"/>
</a>
</g>
</g>
<!-- Node4 -->
<g id="Node000004" class="node">
<title>Node4</title>
<g id="a_Node000004"><a xlink:href="namespacesvg_1_1constants.html#ac460bc8db60d85c3ae1cf8b1a903405e" target="_top" xlink:title="Formatting character constants.">
<polygon fill="white" stroke="#666666" points="241.62,-63.62 134.12,-63.62 134.12,-45.88 241.62,-45.88 241.62,-63.62"/>
<text text-anchor="middle" x="187.88" y="-52.02" font-family="SourceSans" font-size="8.00">svg::constants::space</text>
</a>
</g>
</g>
<!-- Node1&#45;&gt;Node4 -->
<g id="edge3_Node000001_Node000004" class="edge">
<title>Node1&#45;&gt;Node4</title>
<g id="a_edge3_Node000001_Node000004"><a xlink:title=" ">
<path fill="none" stroke="#63b8ff" d="M98.18,-66.4C106.12,-65.36 114.46,-64.26 122.72,-63.18"/>
<polygon fill="#63b8ff" stroke="#63b8ff" points="122.92,-66.68 132.38,-61.91 122.01,-59.74 122.92,-66.68"/>
</a>
</g>
</g>
<!-- Node5 -->
<g id="Node000005" class="node">
<title>Node5</title>
<g id="a_Node000005"><a xlink:href="group__elements.html#aeff87acc0c098e1c329a0fd01605c56f" target="_top" xlink:title=" ">
<polygon fill="white" stroke="#666666" points="242,-27.5 133.75,-27.5 133.75,0 242,0 242,-27.5"/>
<text text-anchor="start" x="141.75" y="-15.9" font-family="SourceSans" font-size="8.00">svg::gradient_element</text>
<text text-anchor="middle" x="187.88" y="-6.15" font-family="SourceSans" font-size="8.00">::start_element</text>
</a>
</g>
</g>
<!-- Node1&#45;&gt;Node5 -->
<g id="edge4_Node000001_Node000005" class="edge">
<title>Node1&#45;&gt;Node5</title>
<g id="a_edge4_Node000001_Node000005"><a xlink:title=" ">
<path fill="none" stroke="#63b8ff" d="M82.69,-58.62C100.86,-50.79 123.67,-40.97 143.32,-32.51"/>
<polygon fill="#63b8ff" stroke="#63b8ff" points="144.66,-35.74 152.46,-28.57 141.89,-29.31 144.66,-35.74"/>
</a>
</g>
</g>
<!-- Node6 -->
<g id="Node000006" class="node">
<title>Node6</title>
<g id="a_Node000006"><a xlink:href="group__elements.html#a948868c6f5dea784ded14c26cc1d2139" target="_top" xlink:title=" ">
<polygon fill="white" stroke="#666666" points="375.75,-63.5 278,-63.5 278,-36 375.75,-36 375.75,-63.5"/>
<text text-anchor="start" x="286" y="-51.9" font-family="SourceSans" font-size="8.00">svg::defs_element::</text>
<text text-anchor="middle" x="326.88" y="-42.15" font-family="SourceSans" font-size="8.00">start_element</text>
</a>
</g>
</g>
<!-- Node5&#45;&gt;Node6 -->
<g id="edge5_Node000005_Node000006" class="edge">
<title>Node5&#45;&gt;Node6</title>
<g id="a_edge5_Node000005_Node000006"><a xlink:title=" ">
<path fill="none" stroke="#63b8ff" d="M242.24,-27.77C250.29,-29.89 258.64,-32.08 266.81,-34.23"/>
<polygon fill="#63b8ff" stroke="#63b8ff" points="265.77,-37.58 276.33,-36.73 267.55,-30.8 265.77,-37.58"/>
</a>
</g>
</g>
<!-- Node6&#45;&gt;Node2 -->
<g id="edge6_Node000006_Node000002" class="edge">
<title>Node6&#45;&gt;Node2</title>
<g id="a_edge6_Node000006_Node000002"><a xlink:title=" ">
<path fill="none" stroke="#63b8ff" d="M376.18,-56.98C384.04,-58.15 392.29,-59.39 400.51,-60.62"/>
<polygon fill="#63b8ff" stroke="#63b8ff" points="399.73,-64.04 410.14,-62.06 400.77,-57.12 399.73,-64.04"/>
</a>
</g>
</g>
</g>
</svg>
