<?xml version="1.0" encoding="UTF-8" standalone="no"?>
<!DOCTYPE svg PUBLIC "-//W3C//DTD SVG 1.1//EN"
 "http://www.w3.org/Graphics/SVG/1.1/DTD/svg11.dtd">
<!-- Generated by graphviz version 13.1.2 (20250808.2320)
 -->
<!-- Title: svg::svg_element::start_element Pages: 1 -->
<svg width="938pt" height="180pt"
 viewBox="0.00 0.00 938.00 180.00" xmlns="http://www.w3.org/2000/svg" xmlns:xlink="http://www.w3.org/1999/xlink">
<g id="graph0" class="graph" transform="scale(1 1) rotate(0) translate(4 175.52)">
<title>svg::svg_element::start_element</title>
<!-- Node1 -->
<g id="Node000001" class="node">
<title>Node1</title>
<g id="a_Node000001"><a xlink:title="SVG element for nested svg_element. Use name, area, unit, typo for viewport frame.">
<polygon fill="#999999" stroke="#666666" points="103,-107 0,-107 0,-75 103,-75 103,-107"/>
<text xml:space="preserve" text-anchor="start" x="8" y="-95.4" font-family="SourceSans" font-size="8.00">svg::svg_element::start</text>
<text xml:space="preserve" text-anchor="middle" x="51.5" y="-83.4" font-family="SourceSans" font-size="8.00">_element</text>
</a>
</g>
</g>
<!-- Node2 -->
<g id="Node000002" class="node">
<title>Node2</title>
<g id="a_Node000002"><a xlink:href="group__elements.html#a4afa7d83ef0fe47412b62f56f1c3ae11" target="_top" xlink:title="Default.">
<polygon fill="white" stroke="#666666" points="242,-107 139,-107 139,-75 242,-75 242,-107"/>
<text xml:space="preserve" text-anchor="start" x="147" y="-95.4" font-family="SourceSans" font-size="8.00">svg::svg_element::start</text>
<text xml:space="preserve" text-anchor="middle" x="190.5" y="-83.4" font-family="SourceSans" font-size="8.00">_element</text>
</a>
</g>
</g>
<!-- Node1&#45;&gt;Node2 -->
<g id="edge1_Node000001_Node000002" class="edge">
<title>Node1&#45;&gt;Node2</title>
<g id="a_edge1_Node000001_Node000002"><a xlink:title=" ">
<path fill="none" stroke="#63b8ff" d="M103.12,-91C111,-91 119.21,-91 127.31,-91"/>
<polygon fill="#63b8ff" stroke="#63b8ff" points="127.11,-94.5 137.11,-91 127.11,-87.5 127.11,-94.5"/>
</a>
</g>
</g>
<!-- Node3 -->
<g id="Node000003" class="node">
<title>Node3</title>
<g id="a_Node000003"><a xlink:href="group__elements.html#a427e385a78a537bf24b6c3bcb6320365" target="_top" xlink:title=" ">
<polygon fill="white" stroke="#666666" points="381,-101 278,-101 278,-81 381,-81 381,-101"/>
<text xml:space="preserve" text-anchor="middle" x="329.5" y="-89.4" font-family="SourceSans" font-size="8.00">svg::svg_element::start</text>
</a>
</g>
</g>
<!-- Node2&#45;&gt;Node3 -->
<g id="edge2_Node000002_Node000003" class="edge">
<title>Node2&#45;&gt;Node3</title>
<g id="a_edge2_Node000002_Node000003"><a xlink:title=" ">
<path fill="none" stroke="#63b8ff" d="M242.12,-84.46C250,-84.27 258.21,-84.21 266.31,-84.28"/>
<polygon fill="#63b8ff" stroke="#63b8ff" points="266.06,-87.77 276.11,-84.43 266.17,-80.77 266.06,-87.77"/>
</a>
</g>
</g>
<!-- Node3&#45;&gt;Node2 -->
<g id="edge13_Node000003_Node000002" class="edge">
<title>Node3&#45;&gt;Node2</title>
<g id="a_edge13_Node000003_Node000002"><a xlink:title=" ">
<path fill="none" stroke="#63b8ff" d="M277.63,-97.55C269.74,-97.73 261.53,-97.79 253.44,-97.72"/>
<polygon fill="#63b8ff" stroke="#63b8ff" points="253.69,-94.23 243.64,-97.57 253.58,-101.23 253.69,-94.23"/>
</a>
</g>
</g>
<!-- Node4 -->
<g id="Node000004" class="node">
<title>Node4</title>
<g id="a_Node000004"><a xlink:href="group__elements.html#a4a6af4e23b9f79f07d58780c128c5638" target="_top" xlink:title=" ">
<polygon fill="white" stroke="#666666" points="538.75,-126 417,-126 417,-106 538.75,-106 538.75,-126"/>
<text xml:space="preserve" text-anchor="middle" x="477.88" y="-114.4" font-family="SourceSans" font-size="8.00">svg::svg_element::add_desc</text>
</a>
</g>
</g>
<!-- Node3&#45;&gt;Node4 -->
<g id="edge3_Node000003_Node000004" class="edge">
<title>Node3&#45;&gt;Node4</title>
<g id="a_edge3_Node000003_Node000004"><a xlink:title=" ">
<path fill="none" stroke="#63b8ff" d="M381.28,-99.67C389.12,-101.01 397.33,-102.41 405.51,-103.81"/>
<polygon fill="#63b8ff" stroke="#63b8ff" points="404.68,-107.22 415.12,-105.45 405.85,-100.32 404.68,-107.22"/>
</a>
</g>
</g>
<!-- Node9 -->
<g id="Node000009" class="node">
<title>Node9</title>
<g id="a_Node000009"><a xlink:href="group__elements.html#a26869d2a66e57c0d83f2df21d25cd875" target="_top" xlink:title=" ">
<polygon fill="white" stroke="#666666" points="528.25,-85 427.5,-85 427.5,-53 528.25,-53 528.25,-85"/>
<text xml:space="preserve" text-anchor="start" x="435.5" y="-73.4" font-family="SourceSans" font-size="8.00">svg::svg_element::add</text>
<text xml:space="preserve" text-anchor="middle" x="477.88" y="-61.4" font-family="SourceSans" font-size="8.00">_title</text>
</a>
</g>
</g>
<!-- Node3&#45;&gt;Node9 -->
<g id="edge8_Node000003_Node000009" class="edge">
<title>Node3&#45;&gt;Node9</title>
<g id="a_edge8_Node000003_Node000009"><a xlink:title=" ">
<path fill="none" stroke="#63b8ff" d="M381.28,-83.37C392.43,-81.69 404.35,-79.9 415.85,-78.17"/>
<polygon fill="#63b8ff" stroke="#63b8ff" points="416.3,-81.64 425.67,-76.7 415.26,-74.72 416.3,-81.64"/>
</a>
</g>
</g>
<!-- Node5 -->
<g id="Node000005" class="node">
<title>Node5</title>
<g id="a_Node000005"><a xlink:href="group__elements.html#ada0333b46b2547c6152f3f5811016a12" target="_top" xlink:title=" ">
<polygon fill="white" stroke="#666666" points="792.75,-166 701.75,-166 701.75,-134 792.75,-134 792.75,-166"/>
<text xml:space="preserve" text-anchor="start" x="709.75" y="-154.4" font-family="SourceSans" font-size="8.00">svg::element_base::</text>
<text xml:space="preserve" text-anchor="middle" x="747.25" y="-142.4" font-family="SourceSans" font-size="8.00">add_element</text>
</a>
</g>
</g>
<!-- Node4&#45;&gt;Node5 -->
<g id="edge4_Node000004_Node000005" class="edge">
<title>Node4&#45;&gt;Node5</title>
<g id="a_edge4_Node000004_Node000005"><a xlink:title=" ">
<path fill="none" stroke="#63b8ff" d="M493.25,-126.35C511.27,-138.62 543.57,-158.36 574.75,-166 612.72,-175.31 656.63,-170.94 690.51,-164.43"/>
<polygon fill="#63b8ff" stroke="#63b8ff" points="691.02,-167.9 700.11,-162.46 689.61,-161.04 691.02,-167.9"/>
</a>
</g>
</g>
<!-- Node7 -->
<g id="Node000007" class="node">
<title>Node7</title>
<g id="a_Node000007"><a xlink:href="group__elements.html#ga03da556ae8f749df1cf8463111e996d3" target="_top" xlink:title=" ">
<polygon fill="white" stroke="#666666" points="665.38,-157 575.12,-157 575.12,-125 665.38,-125 665.38,-157"/>
<text xml:space="preserve" text-anchor="start" x="583.12" y="-145.4" font-family="SourceSans" font-size="8.00">svg::desc_element::</text>
<text xml:space="preserve" text-anchor="middle" x="620.25" y="-133.4" font-family="SourceSans" font-size="8.00">finish_element</text>
</a>
</g>
</g>
<!-- Node4&#45;&gt;Node7 -->
<g id="edge6_Node000004_Node000007" class="edge">
<title>Node4&#45;&gt;Node7</title>
<g id="a_edge6_Node000004_Node000007"><a xlink:title=" ">
<path fill="none" stroke="#63b8ff" d="M537.59,-126.46C546.26,-128 555.18,-129.59 563.78,-131.12"/>
<polygon fill="#63b8ff" stroke="#63b8ff" points="562.92,-134.52 573.37,-132.83 564.14,-127.63 562.92,-134.52"/>
</a>
</g>
</g>
<!-- Node8 -->
<g id="Node000008" class="node">
<title>Node8</title>
<g id="a_Node000008"><a xlink:href="group__elements.html#a90ffdd73579c45cd0740dc9efa2f5445" target="_top" xlink:title=" ">
<polygon fill="white" stroke="#666666" points="665.38,-107 575.12,-107 575.12,-75 665.38,-75 665.38,-107"/>
<text xml:space="preserve" text-anchor="start" x="583.12" y="-95.4" font-family="SourceSans" font-size="8.00">svg::desc_element::</text>
<text xml:space="preserve" text-anchor="middle" x="620.25" y="-83.4" font-family="SourceSans" font-size="8.00">start_element</text>
</a>
</g>
</g>
<!-- Node4&#45;&gt;Node8 -->
<g id="edge7_Node000004_Node000008" class="edge">
<title>Node4&#45;&gt;Node8</title>
<g id="a_edge7_Node000004_Node000008"><a xlink:title=" ">
<path fill="none" stroke="#63b8ff" d="M537.59,-105.54C546.26,-104 555.18,-102.41 563.78,-100.88"/>
<polygon fill="#63b8ff" stroke="#63b8ff" points="564.14,-104.37 573.37,-99.17 562.92,-97.48 564.14,-104.37"/>
</a>
</g>
</g>
<!-- Node6 -->
<g id="Node000006" class="node">
<title>Node6</title>
<g id="a_Node000006"><a xlink:href="group__elements.html#ad893ef9c13a15464c96d8a85c08af30f" target="_top" xlink:title=" ">
<polygon fill="white" stroke="#666666" points="929.5,-160 828.75,-160 828.75,-140 929.5,-140 929.5,-160"/>
<text xml:space="preserve" text-anchor="middle" x="879.12" y="-148.4" font-family="SourceSans" font-size="8.00">svg::element_base::str</text>
</a>
</g>
</g>
<!-- Node5&#45;&gt;Node6 -->
<g id="edge5_Node000005_Node000006" class="edge">
<title>Node5&#45;&gt;Node6</title>
<g id="a_edge5_Node000005_Node000006"><a xlink:title=" ">
<path fill="none" stroke="#63b8ff" d="M792.95,-150C800.73,-150 808.94,-150 817.07,-150"/>
<polygon fill="#63b8ff" stroke="#63b8ff" points="816.94,-153.5 826.94,-150 816.94,-146.5 816.94,-153.5"/>
</a>
</g>
</g>
<!-- Node10 -->
<g id="Node000010" class="node">
<title>Node10</title>
<g id="a_Node000010"><a xlink:href="group__elements.html#a7995b78d94e1c299065c9dd3569fef7c" target="_top" xlink:title=" ">
<polygon fill="white" stroke="#666666" points="665.75,-57 574.75,-57 574.75,-25 665.75,-25 665.75,-57"/>
<text xml:space="preserve" text-anchor="start" x="582.75" y="-45.4" font-family="SourceSans" font-size="8.00">svg::element_base::</text>
<text xml:space="preserve" text-anchor="middle" x="620.25" y="-33.4" font-family="SourceSans" font-size="8.00">add_title</text>
</a>
</g>
</g>
<!-- Node9&#45;&gt;Node10 -->
<g id="edge9_Node000009_Node000010" class="edge">
<title>Node9&#45;&gt;Node10</title>
<g id="a_edge9_Node000009_Node000010"><a xlink:title=" ">
<path fill="none" stroke="#63b8ff" d="M528.37,-59.13C539.61,-56.88 551.64,-54.49 563.14,-52.19"/>
<polygon fill="#63b8ff" stroke="#63b8ff" points="563.81,-55.63 572.94,-50.24 562.44,-48.76 563.81,-55.63"/>
</a>
</g>
</g>
<!-- Node10&#45;&gt;Node5 -->
<g id="edge10_Node000010_Node000005" class="edge">
<title>Node10&#45;&gt;Node5</title>
<g id="a_edge10_Node000010_Node000005"><a xlink:title=" ">
<path fill="none" stroke="#63b8ff" d="M653.11,-57.37C657.49,-60.05 661.83,-62.96 665.75,-66 688.32,-83.49 710.51,-107.28 725.86,-125.07"/>
<polygon fill="#63b8ff" stroke="#63b8ff" points="723.11,-127.25 732.25,-132.61 728.45,-122.72 723.11,-127.25"/>
</a>
</g>
</g>
<!-- Node11 -->
<g id="Node000011" class="node">
<title>Node11</title>
<g id="a_Node000011"><a xlink:href="group__elements.html#ga3d62381f8edcccd3d91f82af55f11274" target="_top" xlink:title=" ">
<polygon fill="white" stroke="#666666" points="789,-82 705.5,-82 705.5,-50 789,-50 789,-82"/>
<text xml:space="preserve" text-anchor="start" x="713.5" y="-70.4" font-family="SourceSans" font-size="8.00">svg::title_element</text>
<text xml:space="preserve" text-anchor="middle" x="747.25" y="-58.4" font-family="SourceSans" font-size="8.00">::finish_element</text>
</a>
</g>
</g>
<!-- Node10&#45;&gt;Node11 -->
<g id="edge11_Node000010_Node000011" class="edge">
<title>Node10&#45;&gt;Node11</title>
<g id="a_edge11_Node000010_Node000011"><a xlink:title=" ">
<path fill="none" stroke="#63b8ff" d="M666.02,-49.95C675.09,-51.77 684.7,-53.69 693.99,-55.55"/>
<polygon fill="#63b8ff" stroke="#63b8ff" points="693.14,-58.95 703.63,-57.48 694.52,-52.08 693.14,-58.95"/>
</a>
</g>
</g>
<!-- Node12 -->
<g id="Node000012" class="node">
<title>Node12</title>
<g id="a_Node000012"><a xlink:href="group__elements.html#a41dcaa1132c502cb86c01aae1e7b9ff2" target="_top" xlink:title=" ">
<polygon fill="white" stroke="#666666" points="789,-32 705.5,-32 705.5,0 789,0 789,-32"/>
<text xml:space="preserve" text-anchor="start" x="713.5" y="-20.4" font-family="SourceSans" font-size="8.00">svg::title_element</text>
<text xml:space="preserve" text-anchor="middle" x="747.25" y="-8.4" font-family="SourceSans" font-size="8.00">::start_element</text>
</a>
</g>
</g>
<!-- Node10&#45;&gt;Node12 -->
<g id="edge12_Node000010_Node000012" class="edge">
<title>Node10&#45;&gt;Node12</title>
<g id="a_edge12_Node000010_Node000012"><a xlink:title=" ">
<path fill="none" stroke="#63b8ff" d="M666.02,-32.05C675.09,-30.23 684.7,-28.31 693.99,-26.45"/>
<polygon fill="#63b8ff" stroke="#63b8ff" points="694.52,-29.92 703.63,-24.52 693.14,-23.05 694.52,-29.92"/>
</a>
</g>
</g>
</g>
</svg>
