<?xml version="1.0" encoding="UTF-8" standalone="no"?>
<!DOCTYPE svg PUBLIC "-//W3C//DTD SVG 1.1//EN"
 "http://www.w3.org/Graphics/SVG/1.1/DTD/svg11.dtd">
<!-- Generated by graphviz version 13.1.2 (20250808.2320)
 -->
<!-- Title: svg::svg_element::start Pages: 1 -->
<svg width="660pt" height="189pt"
 viewBox="0.00 0.00 660.00 189.00" xmlns="http://www.w3.org/2000/svg" xmlns:xlink="http://www.w3.org/1999/xlink">
<g id="graph0" class="graph" transform="scale(1 1) rotate(0) translate(4 185.12)">
<title>svg::svg_element::start</title>
<!-- Node1 -->
<g id="Node000001" class="node">
<title>Node1</title>
<g id="a_Node000001"><a xlink:title=" ">
<polygon fill="#999999" stroke="#666666" points="103,-51 0,-51 0,-31 103,-31 103,-51"/>
<text xml:space="preserve" text-anchor="middle" x="51.5" y="-39.4" font-family="SourceSans" font-size="8.00">svg::svg_element::start</text>
</a>
</g>
</g>
<!-- Node2 -->
<g id="Node000002" class="node">
<title>Node2</title>
<g id="a_Node000002"><a xlink:href="group__elements.html#a4a6af4e23b9f79f07d58780c128c5638" target="_top" xlink:title=" ">
<polygon fill="white" stroke="#666666" points="260.75,-148 139,-148 139,-128 260.75,-128 260.75,-148"/>
<text xml:space="preserve" text-anchor="middle" x="199.88" y="-136.4" font-family="SourceSans" font-size="8.00">svg::svg_element::add_desc</text>
</a>
</g>
</g>
<!-- Node1&#45;&gt;Node2 -->
<g id="edge1_Node000001_Node000002" class="edge">
<title>Node1&#45;&gt;Node2</title>
<g id="a_edge1_Node000001_Node000002"><a xlink:title=" ">
<path fill="none" stroke="#63b8ff" d="M68.16,-51.38C93.48,-68.15 143.59,-101.36 173.88,-121.43"/>
<polygon fill="#63b8ff" stroke="#63b8ff" points="171.79,-124.25 182.06,-126.86 175.66,-118.42 171.79,-124.25"/>
</a>
</g>
</g>
<!-- Node7 -->
<g id="Node000007" class="node">
<title>Node7</title>
<g id="a_Node000007"><a xlink:href="group__elements.html#a26869d2a66e57c0d83f2df21d25cd875" target="_top" xlink:title=" ">
<polygon fill="white" stroke="#666666" points="250.25,-82 149.5,-82 149.5,-50 250.25,-50 250.25,-82"/>
<text xml:space="preserve" text-anchor="start" x="157.5" y="-70.4" font-family="SourceSans" font-size="8.00">svg::svg_element::add</text>
<text xml:space="preserve" text-anchor="middle" x="199.88" y="-58.4" font-family="SourceSans" font-size="8.00">_title</text>
</a>
</g>
</g>
<!-- Node1&#45;&gt;Node7 -->
<g id="edge6_Node000001_Node000007" class="edge">
<title>Node1&#45;&gt;Node7</title>
<g id="a_edge6_Node000001_Node000007"><a xlink:title=" ">
<path fill="none" stroke="#63b8ff" d="M103.28,-49.67C114.43,-51.58 126.35,-53.61 137.85,-55.58"/>
<polygon fill="#63b8ff" stroke="#63b8ff" points="137.23,-59.02 147.68,-57.26 138.41,-52.12 137.23,-59.02"/>
</a>
</g>
</g>
<!-- Node11 -->
<g id="Node000011" class="node">
<title>Node11</title>
<g id="a_Node000011"><a xlink:href="group__elements.html#a4afa7d83ef0fe47412b62f56f1c3ae11" target="_top" xlink:title="Default.">
<polygon fill="white" stroke="#666666" points="251.38,-32 148.38,-32 148.38,0 251.38,0 251.38,-32"/>
<text xml:space="preserve" text-anchor="start" x="156.38" y="-20.4" font-family="SourceSans" font-size="8.00">svg::svg_element::start</text>
<text xml:space="preserve" text-anchor="middle" x="199.88" y="-8.4" font-family="SourceSans" font-size="8.00">_element</text>
</a>
</g>
</g>
<!-- Node1&#45;&gt;Node11 -->
<g id="edge11_Node000001_Node000011" class="edge">
<title>Node1&#45;&gt;Node11</title>
<g id="a_edge11_Node000001_Node000011"><a xlink:title=" ">
<path fill="none" stroke="#63b8ff" d="M81.42,-30.56C97.3,-26.82 117.63,-22.95 136.9,-19.91"/>
<polygon fill="#63b8ff" stroke="#63b8ff" points="137.22,-23.4 146.59,-18.44 136.18,-16.48 137.22,-23.4"/>
</a>
</g>
</g>
<!-- Node3 -->
<g id="Node000003" class="node">
<title>Node3</title>
<g id="a_Node000003"><a xlink:href="group__elements.html#ada0333b46b2547c6152f3f5811016a12" target="_top" xlink:title=" ">
<polygon fill="white" stroke="#666666" points="514.75,-177 423.75,-177 423.75,-145 514.75,-145 514.75,-177"/>
<text xml:space="preserve" text-anchor="start" x="431.75" y="-165.4" font-family="SourceSans" font-size="8.00">svg::element_base::</text>
<text xml:space="preserve" text-anchor="middle" x="469.25" y="-153.4" font-family="SourceSans" font-size="8.00">add_element</text>
</a>
</g>
</g>
<!-- Node2&#45;&gt;Node3 -->
<g id="edge2_Node000002_Node000003" class="edge">
<title>Node2&#45;&gt;Node3</title>
<g id="a_edge2_Node000002_Node000003"><a xlink:title=" ">
<path fill="none" stroke="#63b8ff" d="M220.02,-148.37C238.9,-157.97 268.89,-171.55 296.75,-177 334.98,-184.48 378.71,-180.2 412.45,-174.2"/>
<polygon fill="#63b8ff" stroke="#63b8ff" points="412.82,-177.69 422,-172.39 411.52,-170.81 412.82,-177.69"/>
</a>
</g>
</g>
<!-- Node5 -->
<g id="Node000005" class="node">
<title>Node5</title>
<g id="a_Node000005"><a xlink:href="group__elements.html#ga03da556ae8f749df1cf8463111e996d3" target="_top" xlink:title=" ">
<polygon fill="white" stroke="#666666" points="387.38,-168 297.12,-168 297.12,-136 387.38,-136 387.38,-168"/>
<text xml:space="preserve" text-anchor="start" x="305.12" y="-156.4" font-family="SourceSans" font-size="8.00">svg::desc_element::</text>
<text xml:space="preserve" text-anchor="middle" x="342.25" y="-144.4" font-family="SourceSans" font-size="8.00">finish_element</text>
</a>
</g>
</g>
<!-- Node2&#45;&gt;Node5 -->
<g id="edge4_Node000002_Node000005" class="edge">
<title>Node2&#45;&gt;Node5</title>
<g id="a_edge4_Node000002_Node000005"><a xlink:title=" ">
<path fill="none" stroke="#63b8ff" d="M261.22,-144.02C269.21,-144.82 277.37,-145.63 285.28,-146.42"/>
<polygon fill="#63b8ff" stroke="#63b8ff" points="284.84,-149.89 295.14,-147.4 285.53,-142.93 284.84,-149.89"/>
</a>
</g>
</g>
<!-- Node6 -->
<g id="Node000006" class="node">
<title>Node6</title>
<g id="a_Node000006"><a xlink:href="group__elements.html#a90ffdd73579c45cd0740dc9efa2f5445" target="_top" xlink:title=" ">
<polygon fill="white" stroke="#666666" points="387.38,-118 297.12,-118 297.12,-86 387.38,-86 387.38,-118"/>
<text xml:space="preserve" text-anchor="start" x="305.12" y="-106.4" font-family="SourceSans" font-size="8.00">svg::desc_element::</text>
<text xml:space="preserve" text-anchor="middle" x="342.25" y="-94.4" font-family="SourceSans" font-size="8.00">start_element</text>
</a>
</g>
</g>
<!-- Node2&#45;&gt;Node6 -->
<g id="edge5_Node000002_Node000006" class="edge">
<title>Node2&#45;&gt;Node6</title>
<g id="a_edge5_Node000002_Node000006"><a xlink:title=" ">
<path fill="none" stroke="#63b8ff" d="M241.48,-127.59C255.29,-124.05 270.96,-120.03 285.73,-116.24"/>
<polygon fill="#63b8ff" stroke="#63b8ff" points="286.52,-119.65 295.34,-113.77 284.79,-112.87 286.52,-119.65"/>
</a>
</g>
</g>
<!-- Node4 -->
<g id="Node000004" class="node">
<title>Node4</title>
<g id="a_Node000004"><a xlink:href="group__elements.html#ad893ef9c13a15464c96d8a85c08af30f" target="_top" xlink:title=" ">
<polygon fill="white" stroke="#666666" points="651.5,-171 550.75,-171 550.75,-151 651.5,-151 651.5,-171"/>
<text xml:space="preserve" text-anchor="middle" x="601.12" y="-159.4" font-family="SourceSans" font-size="8.00">svg::element_base::str</text>
</a>
</g>
</g>
<!-- Node3&#45;&gt;Node4 -->
<g id="edge3_Node000003_Node000004" class="edge">
<title>Node3&#45;&gt;Node4</title>
<g id="a_edge3_Node000003_Node000004"><a xlink:title=" ">
<path fill="none" stroke="#63b8ff" d="M514.95,-161C522.73,-161 530.94,-161 539.07,-161"/>
<polygon fill="#63b8ff" stroke="#63b8ff" points="538.94,-164.5 548.94,-161 538.94,-157.5 538.94,-164.5"/>
</a>
</g>
</g>
<!-- Node8 -->
<g id="Node000008" class="node">
<title>Node8</title>
<g id="a_Node000008"><a xlink:href="group__elements.html#a7995b78d94e1c299065c9dd3569fef7c" target="_top" xlink:title=" ">
<polygon fill="white" stroke="#666666" points="387.75,-68 296.75,-68 296.75,-36 387.75,-36 387.75,-68"/>
<text xml:space="preserve" text-anchor="start" x="304.75" y="-56.4" font-family="SourceSans" font-size="8.00">svg::element_base::</text>
<text xml:space="preserve" text-anchor="middle" x="342.25" y="-44.4" font-family="SourceSans" font-size="8.00">add_title</text>
</a>
</g>
</g>
<!-- Node7&#45;&gt;Node8 -->
<g id="edge7_Node000007_Node000008" class="edge">
<title>Node7&#45;&gt;Node8</title>
<g id="a_edge7_Node000007_Node000008"><a xlink:title=" ">
<path fill="none" stroke="#63b8ff" d="M250.37,-61.06C261.61,-59.94 273.64,-58.74 285.14,-57.6"/>
<polygon fill="#63b8ff" stroke="#63b8ff" points="285.31,-61.1 294.91,-56.62 284.62,-54.13 285.31,-61.1"/>
</a>
</g>
</g>
<!-- Node8&#45;&gt;Node3 -->
<g id="edge8_Node000008_Node000003" class="edge">
<title>Node8&#45;&gt;Node3</title>
<g id="a_edge8_Node000008_Node000003"><a xlink:title=" ">
<path fill="none" stroke="#63b8ff" d="M375.11,-68.37C379.49,-71.05 383.83,-73.96 387.75,-77 410.32,-94.49 432.51,-118.28 447.86,-136.07"/>
<polygon fill="#63b8ff" stroke="#63b8ff" points="445.11,-138.25 454.25,-143.61 450.45,-133.72 445.11,-138.25"/>
</a>
</g>
</g>
<!-- Node9 -->
<g id="Node000009" class="node">
<title>Node9</title>
<g id="a_Node000009"><a xlink:href="group__elements.html#ga3d62381f8edcccd3d91f82af55f11274" target="_top" xlink:title=" ">
<polygon fill="white" stroke="#666666" points="511,-93 427.5,-93 427.5,-61 511,-61 511,-93"/>
<text xml:space="preserve" text-anchor="start" x="435.5" y="-81.4" font-family="SourceSans" font-size="8.00">svg::title_element</text>
<text xml:space="preserve" text-anchor="middle" x="469.25" y="-69.4" font-family="SourceSans" font-size="8.00">::finish_element</text>
</a>
</g>
</g>
<!-- Node8&#45;&gt;Node9 -->
<g id="edge9_Node000008_Node000009" class="edge">
<title>Node8&#45;&gt;Node9</title>
<g id="a_edge9_Node000008_Node000009"><a xlink:title=" ">
<path fill="none" stroke="#63b8ff" d="M388.02,-60.95C397.09,-62.77 406.7,-64.69 415.99,-66.55"/>
<polygon fill="#63b8ff" stroke="#63b8ff" points="415.14,-69.95 425.63,-68.48 416.52,-63.08 415.14,-69.95"/>
</a>
</g>
</g>
<!-- Node10 -->
<g id="Node000010" class="node">
<title>Node10</title>
<g id="a_Node000010"><a xlink:href="group__elements.html#a41dcaa1132c502cb86c01aae1e7b9ff2" target="_top" xlink:title=" ">
<polygon fill="white" stroke="#666666" points="511,-43 427.5,-43 427.5,-11 511,-11 511,-43"/>
<text xml:space="preserve" text-anchor="start" x="435.5" y="-31.4" font-family="SourceSans" font-size="8.00">svg::title_element</text>
<text xml:space="preserve" text-anchor="middle" x="469.25" y="-19.4" font-family="SourceSans" font-size="8.00">::start_element</text>
</a>
</g>
</g>
<!-- Node8&#45;&gt;Node10 -->
<g id="edge10_Node000008_Node000010" class="edge">
<title>Node8&#45;&gt;Node10</title>
<g id="a_edge10_Node000008_Node000010"><a xlink:title=" ">
<path fill="none" stroke="#63b8ff" d="M388.02,-43.05C397.09,-41.23 406.7,-39.31 415.99,-37.45"/>
<polygon fill="#63b8ff" stroke="#63b8ff" points="416.52,-40.92 425.63,-35.52 415.14,-34.05 416.52,-40.92"/>
</a>
</g>
</g>
<!-- Node11&#45;&gt;Node1 -->
<g id="edge12_Node000011_Node000001" class="edge">
<title>Node11&#45;&gt;Node1</title>
<g id="a_edge12_Node000011_Node000001"><a xlink:title=" ">
<path fill="none" stroke="#63b8ff" d="M148.18,-31.12C137.29,-33.27 125.65,-35.33 114.39,-37.11"/>
<polygon fill="#63b8ff" stroke="#63b8ff" points="114.14,-33.6 104.78,-38.56 115.19,-40.53 114.14,-33.6"/>
</a>
</g>
</g>
</g>
</svg>
