<?xml version="1.0" encoding="UTF-8" standalone="no"?>
<!DOCTYPE svg PUBLIC "-//W3C//DTD SVG 1.1//EN"
 "http://www.w3.org/Graphics/SVG/1.1/DTD/svg11.dtd">
<!-- Generated by graphviz version 13.1.2 (20250808.2320)
 -->
<!-- Title: svg::svg_element::finish Pages: 1 -->
<svg width="258pt" height="78pt"
 viewBox="0.00 0.00 258.00 78.00" xmlns="http://www.w3.org/2000/svg" xmlns:xlink="http://www.w3.org/1999/xlink">
<g id="graph0" class="graph" transform="scale(1 1) rotate(0) translate(4 74)">
<title>svg::svg_element::finish</title>
<!-- Node1 -->
<g id="Node000001" class="node">
<title>Node1</title>
<g id="a_Node000001"><a xlink:title=" ">
<polygon fill="#999999" stroke="#666666" points="106.75,-42 0,-42 0,-22 106.75,-22 106.75,-42"/>
<text xml:space="preserve" text-anchor="middle" x="53.38" y="-30.4" font-family="SourceSans" font-size="8.00">svg::svg_element::finish</text>
</a>
</g>
</g>
<!-- Node2 -->
<g id="Node000002" class="node">
<title>Node2</title>
<g id="a_Node000002"><a xlink:href="group__elements.html#a3f7b6a0f29695c76b8a9e0c6d939f1b6" target="_top" xlink:title="SVG element end boilerplate.">
<polygon fill="white" stroke="#666666" points="249.5,-70 142.75,-70 142.75,-38 249.5,-38 249.5,-70"/>
<text xml:space="preserve" text-anchor="start" x="150.75" y="-58.4" font-family="SourceSans" font-size="8.00">svg::svg_element::finish</text>
<text xml:space="preserve" text-anchor="middle" x="196.12" y="-46.4" font-family="SourceSans" font-size="8.00">_element</text>
</a>
</g>
</g>
<!-- Node1&#45;&gt;Node2 -->
<g id="edge1_Node000001_Node000002" class="edge">
<title>Node1&#45;&gt;Node2</title>
<g id="a_edge1_Node000001_Node000002"><a xlink:title=" ">
<path fill="none" stroke="#63b8ff" d="M107.19,-40.25C115.03,-41.48 123.19,-42.76 131.23,-44.01"/>
<polygon fill="#63b8ff" stroke="#63b8ff" points="130.57,-47.45 140.99,-45.54 131.65,-40.54 130.57,-47.45"/>
</a>
</g>
</g>
<!-- Node3 -->
<g id="Node000003" class="node">
<title>Node3</title>
<g id="a_Node000003"><a xlink:href="group__elements.html#ad0dc5b62a932a1fc38c5cc98d4eaac6c" target="_top" xlink:title=" ">
<polygon fill="white" stroke="#666666" points="248.38,-20 143.88,-20 143.88,0 248.38,0 248.38,-20"/>
<text xml:space="preserve" text-anchor="middle" x="196.12" y="-8.4" font-family="SourceSans" font-size="8.00">svg::svg_element::write</text>
</a>
</g>
</g>
<!-- Node1&#45;&gt;Node3 -->
<g id="edge2_Node000001_Node000003" class="edge">
<title>Node1&#45;&gt;Node3</title>
<g id="a_edge2_Node000001_Node000003"><a xlink:title=" ">
<path fill="none" stroke="#63b8ff" d="M107.19,-23.75C115.34,-22.47 123.82,-21.14 132.17,-19.84"/>
<polygon fill="#63b8ff" stroke="#63b8ff" points="132.59,-23.32 141.93,-18.32 131.5,-16.4 132.59,-23.32"/>
</a>
</g>
</g>
</g>
</svg>
