<?xml version="1.0" encoding="UTF-8" standalone="no"?>
<!DOCTYPE svg PUBLIC "-//W3C//DTD SVG 1.1//EN"
 "http://www.w3.org/Graphics/SVG/1.1/DTD/svg11.dtd">
<!-- Generated by graphviz version 12.2.1 (20241206.2353)
 -->
<!-- Title: svg::script_element::tooltip_script Pages: 1 -->
<svg width="373pt" height="174pt"
 viewBox="0.00 0.00 372.50 173.50" xmlns="http://www.w3.org/2000/svg" xmlns:xlink="http://www.w3.org/1999/xlink">
<g id="graph0" class="graph" transform="scale(1 1) rotate(0) translate(4 169.5)">
<title>svg::script_element::tooltip_script</title>
<!-- Node1 -->
<g id="Node000001" class="node">
<title>Node1</title>
<g id="a_Node000001"><a xlink:title=" ">
<polygon fill="#999999" stroke="#666666" points="96.25,-96.5 0,-96.5 0,-69 96.25,-69 96.25,-96.5"/>
<text text-anchor="start" x="8" y="-84.9" font-family="SourceSans" font-size="8.00">svg::script_element</text>
<text text-anchor="middle" x="48.12" y="-75.15" font-family="SourceSans" font-size="8.00">::tooltip_script</text>
</a>
</g>
</g>
<!-- Node2 -->
<g id="Node000002" class="node">
<title>Node2</title>
<g id="a_Node000002"><a xlink:href="group__elements.html#a797b328eb996526b519b47e7d6061a4f" target="_top" xlink:title="Add string with script source.">
<polygon fill="white" stroke="#666666" points="228.5,-165.5 132.25,-165.5 132.25,-138 228.5,-138 228.5,-165.5"/>
<text text-anchor="start" x="140.25" y="-153.9" font-family="SourceSans" font-size="8.00">svg::script_element</text>
<text text-anchor="middle" x="180.38" y="-144.15" font-family="SourceSans" font-size="8.00">::add_data</text>
</a>
</g>
</g>
<!-- Node1&#45;&gt;Node2 -->
<g id="edge1_Node000001_Node000002" class="edge">
<title>Node1&#45;&gt;Node2</title>
<g id="a_edge1_Node000001_Node000002"><a xlink:title=" ">
<path fill="none" stroke="#63b8ff" d="M74.04,-96.98C90.46,-106.24 112.5,-118.47 132.25,-128.75 134.6,-129.97 137.03,-131.22 139.48,-132.46"/>
<polygon fill="#63b8ff" stroke="#63b8ff" points="137.73,-135.5 148.24,-136.83 140.85,-129.23 137.73,-135.5"/>
</a>
</g>
</g>
<!-- Node3 -->
<g id="Node000003" class="node">
<title>Node3</title>
<g id="a_Node000003"><a xlink:href="group__elements.html#ga5f6576215b23dc4b7a6641d895b82c86" target="_top" xlink:title=" ">
<polygon fill="white" stroke="#666666" points="228.5,-119.5 132.25,-119.5 132.25,-92 228.5,-92 228.5,-119.5"/>
<text text-anchor="start" x="140.25" y="-107.9" font-family="SourceSans" font-size="8.00">svg::script_element</text>
<text text-anchor="middle" x="180.38" y="-98.15" font-family="SourceSans" font-size="8.00">::finish_element</text>
</a>
</g>
</g>
<!-- Node1&#45;&gt;Node3 -->
<g id="edge2_Node000001_Node000003" class="edge">
<title>Node1&#45;&gt;Node3</title>
<g id="a_edge2_Node000001_Node000003"><a xlink:title=" ">
<path fill="none" stroke="#63b8ff" d="M96.52,-91.12C104.33,-92.5 112.51,-93.94 120.56,-95.36"/>
<polygon fill="#63b8ff" stroke="#63b8ff" points="119.85,-98.79 130.31,-97.09 121.07,-91.9 119.85,-98.79"/>
</a>
</g>
</g>
<!-- Node4 -->
<g id="Node000004" class="node">
<title>Node4</title>
<g id="a_Node000004"><a xlink:href="group__elements.html#ab512400390e9f34c3305fece94436959" target="_top" xlink:title=" ">
<polygon fill="white" stroke="#666666" points="228.5,-73.5 132.25,-73.5 132.25,-46 228.5,-46 228.5,-73.5"/>
<text text-anchor="start" x="140.25" y="-61.9" font-family="SourceSans" font-size="8.00">svg::script_element</text>
<text text-anchor="middle" x="180.38" y="-52.15" font-family="SourceSans" font-size="8.00">::start_element</text>
</a>
</g>
</g>
<!-- Node1&#45;&gt;Node4 -->
<g id="edge3_Node000001_Node000004" class="edge">
<title>Node1&#45;&gt;Node4</title>
<g id="a_edge3_Node000001_Node000004"><a xlink:title=" ">
<path fill="none" stroke="#63b8ff" d="M96.52,-74.38C104.33,-73 112.51,-71.56 120.56,-70.14"/>
<polygon fill="#63b8ff" stroke="#63b8ff" points="121.07,-73.6 130.31,-68.41 119.85,-66.71 121.07,-73.6"/>
</a>
</g>
</g>
<!-- Node6 -->
<g id="Node000006" class="node">
<title>Node6</title>
<g id="a_Node000006"><a xlink:href="group__elements.html#a47315b50218ed71afd08a755ff3c6e5b" target="_top" xlink:title="showTooltip(id) hideTooltip(id) event.x vs. event.pageX, event.y vs. event.pageY">
<polygon fill="white" stroke="#666666" points="228.5,-27.5 132.25,-27.5 132.25,0 228.5,0 228.5,-27.5"/>
<text text-anchor="start" x="140.25" y="-15.9" font-family="SourceSans" font-size="8.00">svg::script_element</text>
<text text-anchor="middle" x="180.38" y="-6.15" font-family="SourceSans" font-size="8.00">::tooltip_javascript</text>
</a>
</g>
</g>
<!-- Node1&#45;&gt;Node6 -->
<g id="edge5_Node000001_Node000006" class="edge">
<title>Node1&#45;&gt;Node6</title>
<g id="a_edge5_Node000001_Node000006"><a xlink:title=" ">
<path fill="none" stroke="#63b8ff" d="M74.04,-68.52C90.46,-59.26 112.5,-47.03 132.25,-36.75 134.6,-35.53 137.03,-34.28 139.48,-33.04"/>
<polygon fill="#63b8ff" stroke="#63b8ff" points="140.85,-36.27 148.24,-28.67 137.73,-30 140.85,-36.27"/>
</a>
</g>
</g>
<!-- Node5 -->
<g id="Node000005" class="node">
<title>Node5</title>
<g id="a_Node000005"><a xlink:href="group__elements.html#ad192becf9565fd5d15094d275e207481" target="_top" xlink:title="Empty when the output buffer is.">
<polygon fill="white" stroke="#666666" points="364.5,-73.5 264.5,-73.5 264.5,-46 364.5,-46 364.5,-73.5"/>
<text text-anchor="start" x="272.5" y="-61.9" font-family="SourceSans" font-size="8.00">svg::element_base::</text>
<text text-anchor="middle" x="314.5" y="-52.15" font-family="SourceSans" font-size="8.00">empty</text>
</a>
</g>
</g>
<!-- Node4&#45;&gt;Node5 -->
<g id="edge4_Node000004_Node000005" class="edge">
<title>Node4&#45;&gt;Node5</title>
<g id="a_edge4_Node000004_Node000005"><a xlink:title=" ">
<path fill="none" stroke="#63b8ff" d="M228.7,-59.75C236.55,-59.75 244.79,-59.75 252.91,-59.75"/>
<polygon fill="#63b8ff" stroke="#63b8ff" points="252.76,-63.25 262.76,-59.75 252.76,-56.25 252.76,-63.25"/>
</a>
</g>
</g>
</g>
</svg>
