<?xml version="1.0" encoding="UTF-8" standalone="no"?>
<!DOCTYPE svg PUBLIC "-//W3C//DTD SVG 1.1//EN"
 "http://www.w3.org/Graphics/SVG/1.1/DTD/svg11.dtd">
<!-- Generated by graphviz version 12.1.0 (20240811.2233)
 -->
<!-- Title: svg::circle_element::add_data Pages: 1 -->
<svg width="383pt" height="85pt"
 viewBox="0.00 0.00 383.00 84.75" xmlns="http://www.w3.org/2000/svg" xmlns:xlink="http://www.w3.org/1999/xlink">

<svg id="main" version="1.1" xmlns="http://www.w3.org/2000/svg" xmlns:xlink="http://www.w3.org/1999/xlink" xml:space="preserve">

<style type="text/css"><![CDATA[
.node, .edge {opacity: 0.7;}
.node.selected, .edge.selected {opacity: 1;}
.edge:hover path { stroke: red; }
.edge:hover polygon { stroke: red; fill: red; }
]]></style>
<script type="application/ecmascript" xlink:href="svg.min.js"/>
<svg id="graph" class="graph">
<g id="graph0" class="graph" transform="scale(1 1) rotate(0) translate(4 80.75)">
<title>svg::circle_element::add_data</title>
<!-- Node1 -->
<g id="Node000001" class="node">
<title>Node1</title>
<g id="a_Node000001"><a xlink:title=" ">
<polygon fill="#999999" stroke="#666666" points="95.5,-42.62 0,-42.62 0,-15.13 95.5,-15.13 95.5,-42.62"/>
<text text-anchor="start" x="8" y="-31.02" font-family="SourceSans" font-size="8.00">svg::circle_element</text>
<text text-anchor="middle" x="47.75" y="-21.27" font-family="SourceSans" font-size="8.00">::add_data</text>
</a>
</g>
</g>
<!-- Node2 -->
<g id="Node000002" class="node">
<title>Node2</title>
<g id="a_Node000002"><a xlink:href="group__elements.html#a53d72a7ff728ad1d4d027254530bcf3d" target="_top" xlink:title="Common transforms include rotate(180)">
<polygon fill="white" stroke="#666666" points="231.5,-63.62 131.5,-63.62 131.5,-36.12 231.5,-36.12 231.5,-63.62"/>
<text text-anchor="start" x="139.5" y="-52.02" font-family="SourceSans" font-size="8.00">svg::element_base::</text>
<text text-anchor="middle" x="181.5" y="-42.27" font-family="SourceSans" font-size="8.00">add_transform</text>
</a>
</g>
</g>
<!-- Node1&#45;&gt;Node2 -->
<g id="edge1_Node000001_Node000002" class="edge">
<title>Node1&#45;&gt;Node2</title>
<g id="a_edge1_Node000001_Node000002"><a xlink:title=" ">
<path fill="none" stroke="#63b8ff" d="M95.94,-36.4C103.77,-37.65 111.98,-38.95 120.09,-40.25"/>
<polygon fill="#63b8ff" stroke="#63b8ff" points="119.49,-43.7 129.92,-41.81 120.6,-36.78 119.49,-43.7"/>
</a>
</g>
</g>
<!-- Node5 -->
<g id="Node000005" class="node">
<title>Node5</title>
<g id="a_Node000005"><a xlink:href="namespacesvg.html#a48ac748e89e22789d1772326a98dd7b6" target="_top" xlink:title=" ">
<polygon fill="white" stroke="#666666" points="228.12,-17.75 134.88,-17.75 134.88,0 228.12,0 228.12,-17.75"/>
<text text-anchor="middle" x="181.5" y="-6.15" font-family="SourceSans" font-size="8.00">svg::string_replace</text>
</a>
</g>
</g>
<!-- Node1&#45;&gt;Node5 -->
<g id="edge4_Node000001_Node000005" class="edge">
<title>Node1&#45;&gt;Node5</title>
<g id="a_edge4_Node000001_Node000005"><a xlink:title=" ">
<path fill="none" stroke="#63b8ff" d="M95.94,-21.71C104.77,-20.37 114.08,-18.96 123.17,-17.58"/>
<polygon fill="#63b8ff" stroke="#63b8ff" points="123.66,-21.04 133.02,-16.08 122.61,-14.12 123.66,-21.04"/>
</a>
</g>
</g>
<!-- Node3 -->
<g id="Node000003" class="node">
<title>Node3</title>
<g id="a_Node000003"><a xlink:href="namespacesvg_1_1constants.html#a3972655f1dfdc090ec2592d1fb37e87c" target="_top" xlink:title=" ">
<polygon fill="white" stroke="#666666" points="374.62,-76.75 267.88,-76.75 267.88,-59 374.62,-59 374.62,-76.75"/>
<text text-anchor="middle" x="321.25" y="-65.15" font-family="SourceSans" font-size="8.00">svg::constants::quote</text>
</a>
</g>
</g>
<!-- Node2&#45;&gt;Node3 -->
<g id="edge2_Node000002_Node000003" class="edge">
<title>Node2&#45;&gt;Node3</title>
<g id="a_edge2_Node000002_Node000003"><a xlink:title=" ">
<path fill="none" stroke="#63b8ff" d="M231.84,-56.32C239.8,-57.36 248.14,-58.45 256.39,-59.53"/>
<polygon fill="#63b8ff" stroke="#63b8ff" points="255.66,-62.96 266.03,-60.79 256.56,-56.02 255.66,-62.96"/>
</a>
</g>
</g>
<!-- Node4 -->
<g id="Node000004" class="node">
<title>Node4</title>
<g id="a_Node000004"><a xlink:href="namespacesvg_1_1constants.html#ac460bc8db60d85c3ae1cf8b1a903405e" target="_top" xlink:title="Formatting character constants.">
<polygon fill="white" stroke="#666666" points="375,-40.75 267.5,-40.75 267.5,-23 375,-23 375,-40.75"/>
<text text-anchor="middle" x="321.25" y="-29.15" font-family="SourceSans" font-size="8.00">svg::constants::space</text>
</a>
</g>
</g>
<!-- Node2&#45;&gt;Node4 -->
<g id="edge3_Node000002_Node000004" class="edge">
<title>Node2&#45;&gt;Node4</title>
<g id="a_edge3_Node000002_Node000004"><a xlink:title=" ">
<path fill="none" stroke="#63b8ff" d="M231.84,-43.43C239.61,-42.41 247.73,-41.35 255.78,-40.3"/>
<polygon fill="#63b8ff" stroke="#63b8ff" points="256.09,-43.79 265.56,-39.02 255.19,-36.85 256.09,-43.79"/>
</a>
</g>
</g>
</g>
</svg>
</svg>

<style type='text/css'>
<![CDATA[
[data-mouse-over-selected='false'] { opacity: 0.7; }
[data-mouse-over-selected='true']  { opacity: 1.0; }
]]>
</style>
<script type="application/ecmascript"><![CDATA[
document.addEventListener('DOMContentLoaded', (event) => {
  highlightEdges();
  highlightAdjacentNodes();
});
]]></script>
</svg>
