<?xml version="1.0" encoding="UTF-8" standalone="no"?>
<!DOCTYPE svg PUBLIC "-//W3C//DTD SVG 1.1//EN"
 "http://www.w3.org/Graphics/SVG/1.1/DTD/svg11.dtd">
<!-- Generated by graphviz version 13.1.2 (20250808.2320)
 -->
<!-- Title: svg::svg_element::svg_element Pages: 1 -->
<svg width="794pt" height="189pt"
 viewBox="0.00 0.00 794.00 189.00" xmlns="http://www.w3.org/2000/svg" xmlns:xlink="http://www.w3.org/1999/xlink">
<g id="graph0" class="graph" transform="scale(1 1) rotate(0) translate(4 185.12)">
<title>svg::svg_element::svg_element</title>
<!-- Node1 -->
<g id="Node000001" class="node">
<title>Node1</title>
<g id="a_Node000001"><a xlink:title=" ">
<polygon fill="#999999" stroke="#666666" points="98.5,-57 0,-57 0,-25 98.5,-25 98.5,-57"/>
<text xml:space="preserve" text-anchor="start" x="8" y="-45.4" font-family="SourceSans" font-size="8.00">svg::svg_element::svg</text>
<text xml:space="preserve" text-anchor="middle" x="49.25" y="-33.4" font-family="SourceSans" font-size="8.00">_element</text>
</a>
</g>
</g>
<!-- Node2 -->
<g id="Node000002" class="node">
<title>Node2</title>
<g id="a_Node000002"><a xlink:href="group__elements.html#a427e385a78a537bf24b6c3bcb6320365" target="_top" xlink:title=" ">
<polygon fill="white" stroke="#666666" points="237.5,-51 134.5,-51 134.5,-31 237.5,-31 237.5,-51"/>
<text xml:space="preserve" text-anchor="middle" x="186" y="-39.4" font-family="SourceSans" font-size="8.00">svg::svg_element::start</text>
</a>
</g>
</g>
<!-- Node1&#45;&gt;Node2 -->
<g id="edge1_Node000001_Node000002" class="edge">
<title>Node1&#45;&gt;Node2</title>
<g id="a_edge1_Node000001_Node000002"><a xlink:title=" ">
<path fill="none" stroke="#63b8ff" d="M98.9,-41C106.69,-41 114.84,-41 122.89,-41"/>
<polygon fill="#63b8ff" stroke="#63b8ff" points="122.64,-44.5 132.64,-41 122.64,-37.5 122.64,-44.5"/>
</a>
</g>
</g>
<!-- Node3 -->
<g id="Node000003" class="node">
<title>Node3</title>
<g id="a_Node000003"><a xlink:href="group__elements.html#a4a6af4e23b9f79f07d58780c128c5638" target="_top" xlink:title=" ">
<polygon fill="white" stroke="#666666" points="395.25,-148 273.5,-148 273.5,-128 395.25,-128 395.25,-148"/>
<text xml:space="preserve" text-anchor="middle" x="334.38" y="-136.4" font-family="SourceSans" font-size="8.00">svg::svg_element::add_desc</text>
</a>
</g>
</g>
<!-- Node2&#45;&gt;Node3 -->
<g id="edge2_Node000002_Node000003" class="edge">
<title>Node2&#45;&gt;Node3</title>
<g id="a_edge2_Node000002_Node000003"><a xlink:title=" ">
<path fill="none" stroke="#63b8ff" d="M202.66,-51.38C227.98,-68.15 278.09,-101.36 308.38,-121.43"/>
<polygon fill="#63b8ff" stroke="#63b8ff" points="306.29,-124.25 316.56,-126.86 310.16,-118.42 306.29,-124.25"/>
</a>
</g>
</g>
<!-- Node8 -->
<g id="Node000008" class="node">
<title>Node8</title>
<g id="a_Node000008"><a xlink:href="group__elements.html#a26869d2a66e57c0d83f2df21d25cd875" target="_top" xlink:title=" ">
<polygon fill="white" stroke="#666666" points="384.75,-82 284,-82 284,-50 384.75,-50 384.75,-82"/>
<text xml:space="preserve" text-anchor="start" x="292" y="-70.4" font-family="SourceSans" font-size="8.00">svg::svg_element::add</text>
<text xml:space="preserve" text-anchor="middle" x="334.38" y="-58.4" font-family="SourceSans" font-size="8.00">_title</text>
</a>
</g>
</g>
<!-- Node2&#45;&gt;Node8 -->
<g id="edge7_Node000002_Node000008" class="edge">
<title>Node2&#45;&gt;Node8</title>
<g id="a_edge7_Node000002_Node000008"><a xlink:title=" ">
<path fill="none" stroke="#63b8ff" d="M237.78,-49.67C248.93,-51.58 260.85,-53.61 272.35,-55.58"/>
<polygon fill="#63b8ff" stroke="#63b8ff" points="271.73,-59.02 282.18,-57.26 272.91,-52.12 271.73,-59.02"/>
</a>
</g>
</g>
<!-- Node12 -->
<g id="Node000012" class="node">
<title>Node12</title>
<g id="a_Node000012"><a xlink:href="group__elements.html#a4afa7d83ef0fe47412b62f56f1c3ae11" target="_top" xlink:title="Default.">
<polygon fill="white" stroke="#666666" points="385.88,-32 282.88,-32 282.88,0 385.88,0 385.88,-32"/>
<text xml:space="preserve" text-anchor="start" x="290.88" y="-20.4" font-family="SourceSans" font-size="8.00">svg::svg_element::start</text>
<text xml:space="preserve" text-anchor="middle" x="334.38" y="-8.4" font-family="SourceSans" font-size="8.00">_element</text>
</a>
</g>
</g>
<!-- Node2&#45;&gt;Node12 -->
<g id="edge12_Node000002_Node000012" class="edge">
<title>Node2&#45;&gt;Node12</title>
<g id="a_edge12_Node000002_Node000012"><a xlink:title=" ">
<path fill="none" stroke="#63b8ff" d="M215.92,-30.56C231.8,-26.82 252.13,-22.95 271.4,-19.91"/>
<polygon fill="#63b8ff" stroke="#63b8ff" points="271.72,-23.4 281.09,-18.44 270.68,-16.48 271.72,-23.4"/>
</a>
</g>
</g>
<!-- Node4 -->
<g id="Node000004" class="node">
<title>Node4</title>
<g id="a_Node000004"><a xlink:href="group__elements.html#ada0333b46b2547c6152f3f5811016a12" target="_top" xlink:title=" ">
<polygon fill="white" stroke="#666666" points="649.25,-177 558.25,-177 558.25,-145 649.25,-145 649.25,-177"/>
<text xml:space="preserve" text-anchor="start" x="566.25" y="-165.4" font-family="SourceSans" font-size="8.00">svg::element_base::</text>
<text xml:space="preserve" text-anchor="middle" x="603.75" y="-153.4" font-family="SourceSans" font-size="8.00">add_element</text>
</a>
</g>
</g>
<!-- Node3&#45;&gt;Node4 -->
<g id="edge3_Node000003_Node000004" class="edge">
<title>Node3&#45;&gt;Node4</title>
<g id="a_edge3_Node000003_Node000004"><a xlink:title=" ">
<path fill="none" stroke="#63b8ff" d="M354.52,-148.37C373.4,-157.97 403.39,-171.55 431.25,-177 469.48,-184.48 513.21,-180.2 546.95,-174.2"/>
<polygon fill="#63b8ff" stroke="#63b8ff" points="547.32,-177.69 556.5,-172.39 546.02,-170.81 547.32,-177.69"/>
</a>
</g>
</g>
<!-- Node6 -->
<g id="Node000006" class="node">
<title>Node6</title>
<g id="a_Node000006"><a xlink:href="group__elements.html#ga03da556ae8f749df1cf8463111e996d3" target="_top" xlink:title=" ">
<polygon fill="white" stroke="#666666" points="521.88,-168 431.62,-168 431.62,-136 521.88,-136 521.88,-168"/>
<text xml:space="preserve" text-anchor="start" x="439.62" y="-156.4" font-family="SourceSans" font-size="8.00">svg::desc_element::</text>
<text xml:space="preserve" text-anchor="middle" x="476.75" y="-144.4" font-family="SourceSans" font-size="8.00">finish_element</text>
</a>
</g>
</g>
<!-- Node3&#45;&gt;Node6 -->
<g id="edge5_Node000003_Node000006" class="edge">
<title>Node3&#45;&gt;Node6</title>
<g id="a_edge5_Node000003_Node000006"><a xlink:title=" ">
<path fill="none" stroke="#63b8ff" d="M395.72,-144.02C403.71,-144.82 411.87,-145.63 419.78,-146.42"/>
<polygon fill="#63b8ff" stroke="#63b8ff" points="419.34,-149.89 429.64,-147.4 420.03,-142.93 419.34,-149.89"/>
</a>
</g>
</g>
<!-- Node7 -->
<g id="Node000007" class="node">
<title>Node7</title>
<g id="a_Node000007"><a xlink:href="group__elements.html#a90ffdd73579c45cd0740dc9efa2f5445" target="_top" xlink:title=" ">
<polygon fill="white" stroke="#666666" points="521.88,-118 431.62,-118 431.62,-86 521.88,-86 521.88,-118"/>
<text xml:space="preserve" text-anchor="start" x="439.62" y="-106.4" font-family="SourceSans" font-size="8.00">svg::desc_element::</text>
<text xml:space="preserve" text-anchor="middle" x="476.75" y="-94.4" font-family="SourceSans" font-size="8.00">start_element</text>
</a>
</g>
</g>
<!-- Node3&#45;&gt;Node7 -->
<g id="edge6_Node000003_Node000007" class="edge">
<title>Node3&#45;&gt;Node7</title>
<g id="a_edge6_Node000003_Node000007"><a xlink:title=" ">
<path fill="none" stroke="#63b8ff" d="M375.98,-127.59C389.79,-124.05 405.46,-120.03 420.23,-116.24"/>
<polygon fill="#63b8ff" stroke="#63b8ff" points="421.02,-119.65 429.84,-113.77 419.29,-112.87 421.02,-119.65"/>
</a>
</g>
</g>
<!-- Node5 -->
<g id="Node000005" class="node">
<title>Node5</title>
<g id="a_Node000005"><a xlink:href="group__elements.html#ad893ef9c13a15464c96d8a85c08af30f" target="_top" xlink:title=" ">
<polygon fill="white" stroke="#666666" points="786,-171 685.25,-171 685.25,-151 786,-151 786,-171"/>
<text xml:space="preserve" text-anchor="middle" x="735.62" y="-159.4" font-family="SourceSans" font-size="8.00">svg::element_base::str</text>
</a>
</g>
</g>
<!-- Node4&#45;&gt;Node5 -->
<g id="edge4_Node000004_Node000005" class="edge">
<title>Node4&#45;&gt;Node5</title>
<g id="a_edge4_Node000004_Node000005"><a xlink:title=" ">
<path fill="none" stroke="#63b8ff" d="M649.45,-161C657.23,-161 665.44,-161 673.57,-161"/>
<polygon fill="#63b8ff" stroke="#63b8ff" points="673.44,-164.5 683.44,-161 673.44,-157.5 673.44,-164.5"/>
</a>
</g>
</g>
<!-- Node9 -->
<g id="Node000009" class="node">
<title>Node9</title>
<g id="a_Node000009"><a xlink:href="group__elements.html#a7995b78d94e1c299065c9dd3569fef7c" target="_top" xlink:title=" ">
<polygon fill="white" stroke="#666666" points="522.25,-68 431.25,-68 431.25,-36 522.25,-36 522.25,-68"/>
<text xml:space="preserve" text-anchor="start" x="439.25" y="-56.4" font-family="SourceSans" font-size="8.00">svg::element_base::</text>
<text xml:space="preserve" text-anchor="middle" x="476.75" y="-44.4" font-family="SourceSans" font-size="8.00">add_title</text>
</a>
</g>
</g>
<!-- Node8&#45;&gt;Node9 -->
<g id="edge8_Node000008_Node000009" class="edge">
<title>Node8&#45;&gt;Node9</title>
<g id="a_edge8_Node000008_Node000009"><a xlink:title=" ">
<path fill="none" stroke="#63b8ff" d="M384.87,-61.06C396.11,-59.94 408.14,-58.74 419.64,-57.6"/>
<polygon fill="#63b8ff" stroke="#63b8ff" points="419.81,-61.1 429.41,-56.62 419.12,-54.13 419.81,-61.1"/>
</a>
</g>
</g>
<!-- Node9&#45;&gt;Node4 -->
<g id="edge9_Node000009_Node000004" class="edge">
<title>Node9&#45;&gt;Node4</title>
<g id="a_edge9_Node000009_Node000004"><a xlink:title=" ">
<path fill="none" stroke="#63b8ff" d="M509.61,-68.37C513.99,-71.05 518.33,-73.96 522.25,-77 544.82,-94.49 567.01,-118.28 582.36,-136.07"/>
<polygon fill="#63b8ff" stroke="#63b8ff" points="579.61,-138.25 588.75,-143.61 584.95,-133.72 579.61,-138.25"/>
</a>
</g>
</g>
<!-- Node10 -->
<g id="Node000010" class="node">
<title>Node10</title>
<g id="a_Node000010"><a xlink:href="group__elements.html#ga3d62381f8edcccd3d91f82af55f11274" target="_top" xlink:title=" ">
<polygon fill="white" stroke="#666666" points="645.5,-93 562,-93 562,-61 645.5,-61 645.5,-93"/>
<text xml:space="preserve" text-anchor="start" x="570" y="-81.4" font-family="SourceSans" font-size="8.00">svg::title_element</text>
<text xml:space="preserve" text-anchor="middle" x="603.75" y="-69.4" font-family="SourceSans" font-size="8.00">::finish_element</text>
</a>
</g>
</g>
<!-- Node9&#45;&gt;Node10 -->
<g id="edge10_Node000009_Node000010" class="edge">
<title>Node9&#45;&gt;Node10</title>
<g id="a_edge10_Node000009_Node000010"><a xlink:title=" ">
<path fill="none" stroke="#63b8ff" d="M522.52,-60.95C531.59,-62.77 541.2,-64.69 550.49,-66.55"/>
<polygon fill="#63b8ff" stroke="#63b8ff" points="549.64,-69.95 560.13,-68.48 551.02,-63.08 549.64,-69.95"/>
</a>
</g>
</g>
<!-- Node11 -->
<g id="Node000011" class="node">
<title>Node11</title>
<g id="a_Node000011"><a xlink:href="group__elements.html#a41dcaa1132c502cb86c01aae1e7b9ff2" target="_top" xlink:title=" ">
<polygon fill="white" stroke="#666666" points="645.5,-43 562,-43 562,-11 645.5,-11 645.5,-43"/>
<text xml:space="preserve" text-anchor="start" x="570" y="-31.4" font-family="SourceSans" font-size="8.00">svg::title_element</text>
<text xml:space="preserve" text-anchor="middle" x="603.75" y="-19.4" font-family="SourceSans" font-size="8.00">::start_element</text>
</a>
</g>
</g>
<!-- Node9&#45;&gt;Node11 -->
<g id="edge11_Node000009_Node000011" class="edge">
<title>Node9&#45;&gt;Node11</title>
<g id="a_edge11_Node000009_Node000011"><a xlink:title=" ">
<path fill="none" stroke="#63b8ff" d="M522.52,-43.05C531.59,-41.23 541.2,-39.31 550.49,-37.45"/>
<polygon fill="#63b8ff" stroke="#63b8ff" points="551.02,-40.92 560.13,-35.52 549.64,-34.05 551.02,-40.92"/>
</a>
</g>
</g>
<!-- Node12&#45;&gt;Node2 -->
<g id="edge13_Node000012_Node000002" class="edge">
<title>Node12&#45;&gt;Node2</title>
<g id="a_edge13_Node000012_Node000002"><a xlink:title=" ">
<path fill="none" stroke="#63b8ff" d="M282.68,-31.12C271.79,-33.27 260.15,-35.33 248.89,-37.11"/>
<polygon fill="#63b8ff" stroke="#63b8ff" points="248.64,-33.6 239.28,-38.56 249.69,-40.53 248.64,-33.6"/>
</a>
</g>
</g>
</g>
</svg>
