<?xml version="1.0" encoding="UTF-8" standalone="no"?>
<!DOCTYPE svg PUBLIC "-//W3C//DTD SVG 1.1//EN"
 "http://www.w3.org/Graphics/SVG/1.1/DTD/svg11.dtd">
<!-- Generated by graphviz version 13.1.2 (20250808.2320)
 -->
<!-- Title: svg::svg_element::start_element Pages: 1 -->
<svg width="857pt" height="218pt"
 viewBox="0.00 0.00 857.00 218.00" xmlns="http://www.w3.org/2000/svg" xmlns:xlink="http://www.w3.org/1999/xlink">
<g id="graph0" class="graph" transform="scale(1 1) rotate(0) translate(4 213.91)">
<title>svg::svg_element::start_element</title>
<!-- Node1 -->
<g id="Node000001" class="node">
<title>Node1</title>
<g id="a_Node000001"><a xlink:title="SVG element beginning boilerplate for outermost (containing) svg_element. Variable: unit,...">
<polygon fill="#999999" stroke="#666666" points="112.75,-58.62 0,-58.62 0,-31.12 112.75,-31.12 112.75,-58.62"/>
<text xml:space="preserve" text-anchor="start" x="8" y="-47.02" font-family="SourceSans" font-size="8.00">svg::svg_element::start</text>
<text xml:space="preserve" text-anchor="middle" x="56.38" y="-37.27" font-family="SourceSans" font-size="8.00">_element</text>
</a>
</g>
</g>
<!-- Node2 -->
<g id="Node000002" class="node">
<title>Node2</title>
<g id="a_Node000002"><a xlink:href="group__elements.html#a427e385a78a537bf24b6c3bcb6320365" target="_top" xlink:title=" ">
<polygon fill="white" stroke="#666666" points="261.5,-89.75 148.75,-89.75 148.75,-72 261.5,-72 261.5,-89.75"/>
<text xml:space="preserve" text-anchor="middle" x="205.12" y="-78.15" font-family="SourceSans" font-size="8.00">svg::svg_element::start</text>
</a>
</g>
</g>
<!-- Node1&#45;&gt;Node2 -->
<g id="edge1_Node000001_Node000002" class="edge">
<title>Node1&#45;&gt;Node2</title>
<g id="a_edge1_Node000001_Node000002"><a xlink:title=" ">
<path fill="none" stroke="#63b8ff" d="M112.85,-58.49C126.81,-61.91 141.67,-65.56 155.27,-68.89"/>
<polygon fill="#63b8ff" stroke="#63b8ff" points="154.34,-72.26 164.88,-71.25 156,-65.47 154.34,-72.26"/>
</a>
</g>
</g>
<!-- Node13 -->
<g id="Node000013" class="node">
<title>Node13</title>
<g id="a_Node000013"><a xlink:href="namespacesvg.html#a48ac748e89e22789d1772326a98dd7b6" target="_top" xlink:title=" ">
<polygon fill="white" stroke="#666666" points="251.75,-53.75 158.5,-53.75 158.5,-36 251.75,-36 251.75,-53.75"/>
<text xml:space="preserve" text-anchor="middle" x="205.12" y="-42.15" font-family="SourceSans" font-size="8.00">svg::string_replace</text>
</a>
</g>
</g>
<!-- Node1&#45;&gt;Node13 -->
<g id="edge14_Node000001_Node000013" class="edge">
<title>Node1&#45;&gt;Node13</title>
<g id="a_edge14_Node000001_Node000013"><a xlink:title=" ">
<path fill="none" stroke="#63b8ff" d="M112.85,-44.88C123.94,-44.88 135.6,-44.88 146.75,-44.88"/>
<polygon fill="#63b8ff" stroke="#63b8ff" points="146.62,-48.38 156.62,-44.88 146.62,-41.38 146.62,-48.38"/>
</a>
</g>
</g>
<!-- Node14 -->
<g id="Node000014" class="node">
<title>Node14</title>
<g id="a_Node000014"><a xlink:href="namespacesvg.html#a36b1c48ad4601b205790e3772ad0a7b6" target="_top" xlink:title=" ">
<polygon fill="white" stroke="#666666" points="240.88,-17.75 169.38,-17.75 169.38,0 240.88,0 240.88,-17.75"/>
<text xml:space="preserve" text-anchor="middle" x="205.12" y="-6.15" font-family="SourceSans" font-size="8.00">svg::to_string</text>
</a>
</g>
</g>
<!-- Node1&#45;&gt;Node14 -->
<g id="edge15_Node000001_Node000014" class="edge">
<title>Node1&#45;&gt;Node14</title>
<g id="a_edge15_Node000001_Node000014"><a xlink:title=" ">
<path fill="none" stroke="#63b8ff" d="M112.85,-31.26C127.71,-27.62 143.61,-23.72 157.91,-20.21"/>
<polygon fill="#63b8ff" stroke="#63b8ff" points="158.64,-23.64 167.52,-17.86 156.97,-16.84 158.64,-23.64"/>
</a>
</g>
</g>
<!-- Node3 -->
<g id="Node000003" class="node">
<title>Node3</title>
<g id="a_Node000003"><a xlink:href="group__elements.html#a4a6af4e23b9f79f07d58780c128c5638" target="_top" xlink:title=" ">
<polygon fill="white" stroke="#666666" points="430.5,-178.75 297.5,-178.75 297.5,-161 430.5,-161 430.5,-178.75"/>
<text xml:space="preserve" text-anchor="middle" x="364" y="-167.15" font-family="SourceSans" font-size="8.00">svg::svg_element::add_desc</text>
</a>
</g>
</g>
<!-- Node2&#45;&gt;Node3 -->
<g id="edge2_Node000002_Node000003" class="edge">
<title>Node2&#45;&gt;Node3</title>
<g id="a_edge2_Node000002_Node000003"><a xlink:title=" ">
<path fill="none" stroke="#63b8ff" d="M222.62,-90.23C249.87,-105.7 304.53,-136.71 337.02,-155.14"/>
<polygon fill="#63b8ff" stroke="#63b8ff" points="334.99,-158.01 345.41,-159.9 338.44,-151.92 334.99,-158.01"/>
</a>
</g>
</g>
<!-- Node8 -->
<g id="Node000008" class="node">
<title>Node8</title>
<g id="a_Node000008"><a xlink:href="group__elements.html#a26869d2a66e57c0d83f2df21d25cd875" target="_top" xlink:title=" ">
<polygon fill="white" stroke="#666666" points="418.88,-117.62 309.12,-117.62 309.12,-90.12 418.88,-90.12 418.88,-117.62"/>
<text xml:space="preserve" text-anchor="start" x="317.12" y="-106.03" font-family="SourceSans" font-size="8.00">svg::svg_element::add</text>
<text xml:space="preserve" text-anchor="middle" x="364" y="-96.28" font-family="SourceSans" font-size="8.00">_title</text>
</a>
</g>
</g>
<!-- Node2&#45;&gt;Node8 -->
<g id="edge7_Node000002_Node000008" class="edge">
<title>Node2&#45;&gt;Node8</title>
<g id="a_edge7_Node000002_Node000008"><a xlink:title=" ">
<path fill="none" stroke="#63b8ff" d="M261.87,-89.05C273.42,-90.74 285.68,-92.54 297.54,-94.28"/>
<polygon fill="#63b8ff" stroke="#63b8ff" points="296.85,-97.71 307.25,-95.7 297.86,-90.79 296.85,-97.71"/>
</a>
</g>
</g>
<!-- Node12 -->
<g id="Node000012" class="node">
<title>Node12</title>
<g id="a_Node000012"><a xlink:href="group__elements.html#a4afa7d83ef0fe47412b62f56f1c3ae11" target="_top" xlink:title="Default.">
<polygon fill="white" stroke="#666666" points="420.38,-71.62 307.62,-71.62 307.62,-44.12 420.38,-44.12 420.38,-71.62"/>
<text xml:space="preserve" text-anchor="start" x="315.62" y="-60.02" font-family="SourceSans" font-size="8.00">svg::svg_element::start</text>
<text xml:space="preserve" text-anchor="middle" x="364" y="-50.27" font-family="SourceSans" font-size="8.00">_element</text>
</a>
</g>
</g>
<!-- Node2&#45;&gt;Node12 -->
<g id="edge12_Node000002_Node000012" class="edge">
<title>Node2&#45;&gt;Node12</title>
<g id="a_edge12_Node000002_Node000012"><a xlink:title=" ">
<path fill="none" stroke="#63b8ff" d="M233.81,-71.52C251.11,-67.81 274.19,-63.96 296.05,-61.01"/>
<polygon fill="#63b8ff" stroke="#63b8ff" points="296.36,-64.49 305.83,-59.74 295.47,-57.55 296.36,-64.49"/>
</a>
</g>
</g>
<!-- Node4 -->
<g id="Node000004" class="node">
<title>Node4</title>
<g id="a_Node000004"><a xlink:href="group__elements.html#ada0333b46b2547c6152f3f5811016a12" target="_top" xlink:title=" ">
<polygon fill="white" stroke="#666666" points="702.5,-205.62 602.5,-205.62 602.5,-178.12 702.5,-178.12 702.5,-205.62"/>
<text xml:space="preserve" text-anchor="start" x="610.5" y="-194.03" font-family="SourceSans" font-size="8.00">svg::element_base::</text>
<text xml:space="preserve" text-anchor="middle" x="652.5" y="-184.28" font-family="SourceSans" font-size="8.00">add_element</text>
</a>
</g>
</g>
<!-- Node3&#45;&gt;Node4 -->
<g id="edge3_Node000003_Node000004" class="edge">
<title>Node3&#45;&gt;Node4</title>
<g id="a_edge3_Node000003_Node000004"><a xlink:title=" ">
<path fill="none" stroke="#63b8ff" d="M384.68,-179.13C404.74,-188.01 437.02,-200.8 466.5,-205.88 507.78,-212.98 554.86,-209.25 591.2,-203.87"/>
<polygon fill="#63b8ff" stroke="#63b8ff" points="591.28,-207.4 600.62,-202.39 590.19,-200.48 591.28,-207.4"/>
</a>
</g>
</g>
<!-- Node6 -->
<g id="Node000006" class="node">
<title>Node6</title>
<g id="a_Node000006"><a xlink:href="group__elements.html#ga03da556ae8f749df1cf8463111e996d3" target="_top" xlink:title=" ">
<polygon fill="white" stroke="#666666" points="566.12,-196.62 466.88,-196.62 466.88,-169.12 566.12,-169.12 566.12,-196.62"/>
<text xml:space="preserve" text-anchor="start" x="474.88" y="-185.03" font-family="SourceSans" font-size="8.00">svg::desc_element::</text>
<text xml:space="preserve" text-anchor="middle" x="516.5" y="-175.28" font-family="SourceSans" font-size="8.00">finish_element</text>
</a>
</g>
</g>
<!-- Node3&#45;&gt;Node6 -->
<g id="edge5_Node000003_Node000006" class="edge">
<title>Node3&#45;&gt;Node6</title>
<g id="a_edge5_Node000003_Node000006"><a xlink:title=" ">
<path fill="none" stroke="#63b8ff" d="M430.57,-175.54C438.76,-176.25 447.1,-176.97 455.19,-177.67"/>
<polygon fill="#63b8ff" stroke="#63b8ff" points="454.67,-181.13 464.93,-178.51 455.27,-174.16 454.67,-181.13"/>
</a>
</g>
</g>
<!-- Node7 -->
<g id="Node000007" class="node">
<title>Node7</title>
<g id="a_Node000007"><a xlink:href="group__elements.html#a90ffdd73579c45cd0740dc9efa2f5445" target="_top" xlink:title=" ">
<polygon fill="white" stroke="#666666" points="566.12,-150.62 466.88,-150.62 466.88,-123.12 566.12,-123.12 566.12,-150.62"/>
<text xml:space="preserve" text-anchor="start" x="474.88" y="-139.03" font-family="SourceSans" font-size="8.00">svg::desc_element::</text>
<text xml:space="preserve" text-anchor="middle" x="516.5" y="-129.28" font-family="SourceSans" font-size="8.00">start_element</text>
</a>
</g>
</g>
<!-- Node3&#45;&gt;Node7 -->
<g id="edge6_Node000003_Node000007" class="edge">
<title>Node3&#45;&gt;Node7</title>
<g id="a_edge6_Node000003_Node000007"><a xlink:title=" ">
<path fill="none" stroke="#63b8ff" d="M407.72,-160.51C422.62,-157.24 439.63,-153.51 455.66,-150"/>
<polygon fill="#63b8ff" stroke="#63b8ff" points="456.07,-153.49 465.08,-147.93 454.57,-146.65 456.07,-153.49"/>
</a>
</g>
</g>
<!-- Node5 -->
<g id="Node000005" class="node">
<title>Node5</title>
<g id="a_Node000005"><a xlink:href="group__elements.html#ad893ef9c13a15464c96d8a85c08af30f" target="_top" xlink:title=" ">
<polygon fill="white" stroke="#666666" points="849,-200.75 738.5,-200.75 738.5,-183 849,-183 849,-200.75"/>
<text xml:space="preserve" text-anchor="middle" x="793.75" y="-189.15" font-family="SourceSans" font-size="8.00">svg::element_base::str</text>
</a>
</g>
</g>
<!-- Node4&#45;&gt;Node5 -->
<g id="edge4_Node000004_Node000005" class="edge">
<title>Node4&#45;&gt;Node5</title>
<g id="a_edge4_Node000004_Node000005"><a xlink:title=" ">
<path fill="none" stroke="#63b8ff" d="M702.99,-191.88C710.74,-191.88 718.87,-191.88 726.92,-191.88"/>
<polygon fill="#63b8ff" stroke="#63b8ff" points="726.7,-195.38 736.7,-191.88 726.7,-188.38 726.7,-195.38"/>
</a>
</g>
</g>
<!-- Node9 -->
<g id="Node000009" class="node">
<title>Node9</title>
<g id="a_Node000009"><a xlink:href="group__elements.html#a7995b78d94e1c299065c9dd3569fef7c" target="_top" xlink:title=" ">
<polygon fill="white" stroke="#666666" points="566.5,-104.62 466.5,-104.62 466.5,-77.12 566.5,-77.12 566.5,-104.62"/>
<text xml:space="preserve" text-anchor="start" x="474.5" y="-93.03" font-family="SourceSans" font-size="8.00">svg::element_base::</text>
<text xml:space="preserve" text-anchor="middle" x="516.5" y="-83.28" font-family="SourceSans" font-size="8.00">add_title</text>
</a>
</g>
</g>
<!-- Node8&#45;&gt;Node9 -->
<g id="edge8_Node000008_Node000009" class="edge">
<title>Node8&#45;&gt;Node9</title>
<g id="a_edge8_Node000008_Node000009"><a xlink:title=" ">
<path fill="none" stroke="#63b8ff" d="M419.33,-99.18C430.95,-98.18 443.28,-97.11 455.11,-96.09"/>
<polygon fill="#63b8ff" stroke="#63b8ff" points="455.08,-99.61 464.74,-95.26 454.47,-92.63 455.08,-99.61"/>
</a>
</g>
</g>
<!-- Node9&#45;&gt;Node4 -->
<g id="edge9_Node000009_Node000004" class="edge">
<title>Node9&#45;&gt;Node4</title>
<g id="a_edge9_Node000009_Node000004"><a xlink:title=" ">
<path fill="none" stroke="#63b8ff" d="M551.19,-105.02C556.46,-107.71 561.74,-110.68 566.5,-113.88 590.58,-130.02 614.61,-152.85 630.94,-169.64"/>
<polygon fill="#63b8ff" stroke="#63b8ff" points="628.26,-171.9 637.7,-176.71 633.32,-167.06 628.26,-171.9"/>
</a>
</g>
</g>
<!-- Node10 -->
<g id="Node000010" class="node">
<title>Node10</title>
<g id="a_Node000010"><a xlink:href="group__elements.html#ga3d62381f8edcccd3d91f82af55f11274" target="_top" xlink:title=" ">
<polygon fill="white" stroke="#666666" points="697.25,-127.62 607.75,-127.62 607.75,-100.12 697.25,-100.12 697.25,-127.62"/>
<text xml:space="preserve" text-anchor="start" x="615.75" y="-116.03" font-family="SourceSans" font-size="8.00">svg::title_element</text>
<text xml:space="preserve" text-anchor="middle" x="652.5" y="-106.28" font-family="SourceSans" font-size="8.00">::finish_element</text>
</a>
</g>
</g>
<!-- Node9&#45;&gt;Node10 -->
<g id="edge10_Node000009_Node000010" class="edge">
<title>Node9&#45;&gt;Node10</title>
<g id="a_edge10_Node000009_Node000010"><a xlink:title=" ">
<path fill="none" stroke="#63b8ff" d="M566.64,-99.31C576.3,-100.97 586.5,-102.72 596.34,-104.41"/>
<polygon fill="#63b8ff" stroke="#63b8ff" points="595.75,-107.86 606.2,-106.1 596.93,-100.96 595.75,-107.86"/>
</a>
</g>
</g>
<!-- Node11 -->
<g id="Node000011" class="node">
<title>Node11</title>
<g id="a_Node000011"><a xlink:href="group__elements.html#a41dcaa1132c502cb86c01aae1e7b9ff2" target="_top" xlink:title=" ">
<polygon fill="white" stroke="#666666" points="697.25,-81.62 607.75,-81.62 607.75,-54.12 697.25,-54.12 697.25,-81.62"/>
<text xml:space="preserve" text-anchor="start" x="615.75" y="-70.03" font-family="SourceSans" font-size="8.00">svg::title_element</text>
<text xml:space="preserve" text-anchor="middle" x="652.5" y="-60.27" font-family="SourceSans" font-size="8.00">::start_element</text>
</a>
</g>
</g>
<!-- Node9&#45;&gt;Node11 -->
<g id="edge11_Node000009_Node000011" class="edge">
<title>Node9&#45;&gt;Node11</title>
<g id="a_edge11_Node000009_Node000011"><a xlink:title=" ">
<path fill="none" stroke="#63b8ff" d="M566.64,-82.44C576.3,-80.78 586.5,-79.03 596.34,-77.34"/>
<polygon fill="#63b8ff" stroke="#63b8ff" points="596.93,-80.79 606.2,-75.65 595.75,-73.89 596.93,-80.79"/>
</a>
</g>
</g>
<!-- Node12&#45;&gt;Node2 -->
<g id="edge13_Node000012_Node000002" class="edge">
<title>Node12&#45;&gt;Node2</title>
<g id="a_edge13_Node000012_Node000002"><a xlink:title=" ">
<path fill="none" stroke="#63b8ff" d="M309.8,-72.11C297.98,-74.15 285.3,-76.09 273.02,-77.75"/>
<polygon fill="#63b8ff" stroke="#63b8ff" points="272.84,-74.25 263.38,-79 273.74,-81.19 272.84,-74.25"/>
</a>
</g>
</g>
</g>
</svg>
