<?xml version="1.0" encoding="UTF-8" standalone="no"?>
<!DOCTYPE svg PUBLIC "-//W3C//DTD SVG 1.1//EN"
 "http://www.w3.org/Graphics/SVG/1.1/DTD/svg11.dtd">
<!-- Generated by graphviz version 12.1.0 (20240811.2233)
 -->
<!-- Title: Graphical Class Hierarchy Pages: 1 -->
<svg width="240pt" height="66pt"
 viewBox="0.00 0.00 239.50 66.00" xmlns="http://www.w3.org/2000/svg" xmlns:xlink="http://www.w3.org/1999/xlink">
<g id="graph0" class="graph" transform="scale(1 1) rotate(0) translate(4 62)">
<title>Graphical Class Hierarchy</title>
<!-- Node0 -->
<g id="Node000000" class="node">
<title>Node0</title>
<g id="a_Node000000"><a xlink:href="structsvg_1_1render__state__base.html" target="_top" xlink:title="Settings for rendering collection&#45;derived objects.">
<polygon fill="white" stroke="#666666" points="103,-39 0,-39 0,-19 103,-19 103,-39"/>
<text text-anchor="middle" x="51.5" y="-27.4" font-family="SourceSans" font-size="8.00">svg::render_state_base</text>
</a>
</g>
</g>
<!-- Node1 -->
<g id="Node000001" class="node">
<title>Node1</title>
<g id="a_Node000001"><a xlink:href="structsvg_1_1id__render__state.html" target="_top" xlink:title="Named render state. Datum to take id string and tie it to visual representation.">
<polygon fill="white" stroke="#666666" points="231.5,-58 139,-58 139,-38 231.5,-38 231.5,-58"/>
<text text-anchor="middle" x="185.25" y="-46.4" font-family="SourceSans" font-size="8.00">svg::id_render_state</text>
</a>
</g>
</g>
<!-- Node0&#45;&gt;Node1 -->
<g id="edge19_Node000000_Node000001" class="edge">
<title>Node0&#45;&gt;Node1</title>
<g id="a_edge19_Node000000_Node000001"><a xlink:title=" ">
<path fill="none" stroke="#63b8ff" d="M114.72,-37.97C122.77,-39.13 130.9,-40.31 138.61,-41.42"/>
<polygon fill="#63b8ff" stroke="#63b8ff" points="115.33,-34.53 104.94,-36.56 114.33,-41.45 115.33,-34.53"/>
</a>
</g>
</g>
<!-- Node2 -->
<g id="Node000002" class="node">
<title>Node2</title>
<g id="a_Node000002"><a xlink:href="structsvg_1_1render__state.html" target="_top" xlink:title="Render settings for collections.">
<polygon fill="white" stroke="#666666" points="225.88,-20 144.62,-20 144.62,0 225.88,0 225.88,-20"/>
<text text-anchor="middle" x="185.25" y="-8.4" font-family="SourceSans" font-size="8.00">svg::render_state</text>
</a>
</g>
</g>
<!-- Node0&#45;&gt;Node2 -->
<g id="edge20_Node000000_Node000002" class="edge">
<title>Node0&#45;&gt;Node2</title>
<g id="a_edge20_Node000000_Node000002"><a xlink:title=" ">
<path fill="none" stroke="#63b8ff" d="M114.76,-20.02C124.87,-18.56 135.09,-17.09 144.48,-15.74"/>
<polygon fill="#63b8ff" stroke="#63b8ff" points="114.33,-16.55 104.94,-21.44 115.33,-23.47 114.33,-16.55"/>
</a>
</g>
</g>
</g>
</svg>
