<?xml version="1.0" encoding="UTF-8" standalone="no"?>
<!DOCTYPE svg PUBLIC "-//W3C//DTD SVG 1.1//EN"
 "http://www.w3.org/Graphics/SVG/1.1/DTD/svg11.dtd">
<!-- Generated by graphviz version 13.1.2 (20250808.2320)
 -->
<!-- Title: /home/bkoz/src/izzi/src/izzi&#45;json&#45;basics.h Pages: 1 -->
<!--zoomable 288 -->

<svg id="main" version="1.1" xmlns="http://www.w3.org/2000/svg" xmlns:xlink="http://www.w3.org/1999/xlink" xml:space="preserve" onload="init(evt)">

<style type="text/css"><![CDATA[
.node, .edge {opacity: 0.7;}
.node.selected, .edge.selected {opacity: 1;}
.edge:hover path { stroke: red; }
.edge:hover polygon { stroke: red; fill: red; }
]]></style>

<defs>
  <circle id="rim" cx="0" cy="0" r="7"/>
  <circle id="rim2" cx="0" cy="0" r="3.5"/>
  <g id="zoomPlus">
    <use xlink:href="#rim" fill="#404040"><set attributeName="fill" to="#808080" begin="zoomplus.mouseover" end="zoomplus.mouseout"/></use>
    <path d="M-4,0h8M0,-4v8" fill="none" stroke="white" stroke-width="1.5" pointer-events="none"/>
  </g>
  <g id="zoomMin">
    <use xlink:href="#rim" fill="#404040"><set attributeName="fill" to="#808080" begin="zoomminus.mouseover" end="zoomminus.mouseout"/></use>
    <path d="M-4,0h8" fill="none" stroke="white" stroke-width="1.5" pointer-events="none"/>
  </g>
  <g id="arrowUp" transform="translate(30 24)">
    <use xlink:href="#rim"/>
    <path pointer-events="none" fill="none" stroke="white" stroke-width="1.5" d="M0,-3.0v7 M-2.5,-0.5L0,-3.0L2.5,-0.5"/>
  </g>
  <g id="arrowRight" transform="rotate(90) translate(36 -43)">
    <use xlink:href="#rim"/>
    <path pointer-events="none" fill="none" stroke="white" stroke-width="1.5" d="M0,-3.0v7 M-2.5,-0.5L0,-3.0L2.5,-0.5"/>
  </g>
  <g id="arrowDown" transform="rotate(180) translate(-30 -48)">
    <use xlink:href="#rim"/>
    <path pointer-events="none" fill="none" stroke="white" stroke-width="1.5" d="M0,-3.0v7 M-2.5,-0.5L0,-3.0L2.5,-0.5"/>
  </g>
  <g id="arrowLeft" transform="rotate(270) translate(-36 17)">
    <use xlink:href="#rim"/>
    <path pointer-events="none" fill="none" stroke="white" stroke-width="1.5" d="M0,-3.0v7 M-2.5,-0.5L0,-3.0L2.5,-0.5"/>
  </g>
  <g id="resetDef">
    <use xlink:href="#rim2" fill="#404040"><set attributeName="fill" to="#808080" begin="reset.mouseover" end="reset.mouseout"/></use>
  </g>
</defs>
<script type="application/ecmascript">
var viewWidth = 2646;
var viewHeight = 288;
var sectionId = 'dynsection-0';
</script>
<script type="application/ecmascript" xlink:href="svg.min.js"/>
<svg id="graph" class="graph">
<g id="viewport">
<title>/home/bkoz/src/izzi/src/izzi&#45;json&#45;basics.h</title>
<!-- Node1 -->
<g id="Node000001" class="node">
<title>Node1</title>
<g id="a_Node000001"><a xlink:title=" ">
<polygon fill="#999999" stroke="#666666" points="2170.95,-280 2075.45,-280 2075.45,-248 2170.95,-248 2170.95,-280"/>
<text xml:space="preserve" text-anchor="start" x="2083.45" y="-268.4" font-family="SourceSans" font-size="8.00">/home/bkoz/src/izzi</text>
<text xml:space="preserve" text-anchor="middle" x="2123.2" y="-256.4" font-family="SourceSans" font-size="8.00">/src/izzi&#45;json&#45;basics.h</text>
</a>
</g>
</g>
<!-- Node2 -->
<g id="Node000002" class="node">
<title>Node2</title>
<g id="a_Node000002"><a xlink:href="a60-svg_8h.html" target="_top" xlink:title=" ">
<polygon fill="white" stroke="#666666" points="859.2,-212 807.2,-212 807.2,-192 859.2,-192 859.2,-212"/>
<text xml:space="preserve" text-anchor="middle" x="833.2" y="-200.4" font-family="SourceSans" font-size="8.00">a60&#45;svg.h</text>
</a>
</g>
</g>
<!-- Node1&#45;&gt;Node2 -->
<g id="edge1_Node000001_Node000002" class="edge">
<title>Node1&#45;&gt;Node2</title>
<g id="a_edge1_Node000001_Node000002"><a xlink:title=" ">
<path fill="none" stroke="#63b8ff" d="M2074.99,-260.76C1867.87,-251.12 1055.84,-213.36 870.85,-204.75"/>
<polygon fill="#63b8ff" stroke="#63b8ff" points="871.25,-201.27 861.1,-204.3 870.93,-208.26 871.25,-201.27"/>
</a>
</g>
</g>
<!-- Node20 -->
<g id="Node000020" class="node">
<title>Node20</title>
<g id="a_Node000020"><a xlink:title=" ">
<polygon fill="#e0e0e0" stroke="#999999" points="1583.7,-20 1534.7,-20 1534.7,0 1583.7,0 1583.7,-20"/>
<text xml:space="preserve" text-anchor="middle" x="1559.2" y="-8.4" font-family="SourceSans" font-size="8.00">iostream</text>
</a>
</g>
</g>
<!-- Node1&#45;&gt;Node20 -->
<g id="edge50_Node000001_Node000020" class="edge">
<title>Node1&#45;&gt;Node20</title>
<g id="a_edge50_Node000001_Node000020"><a xlink:title=" ">
<path fill="none" stroke="#63b8ff" d="M2075.31,-257.95C2037.2,-252 1984.03,-239.22 1945.2,-212 1875.1,-162.85 1905.03,-101.01 1832.2,-56 1793.16,-31.87 1660.27,-18.69 1595.41,-13.56"/>
<polygon fill="#63b8ff" stroke="#63b8ff" points="1595.88,-10.08 1585.64,-12.81 1595.34,-17.06 1595.88,-10.08"/>
</a>
</g>
</g>
<!-- Node24 -->
<g id="Node000024" class="node">
<title>Node24</title>
<g id="a_Node000024"><a xlink:title=" ">
<polygon fill="#e0e0e0" stroke="#999999" points="1799.83,-82 1754.58,-82 1754.58,-62 1799.83,-62 1799.83,-82"/>
<text xml:space="preserve" text-anchor="middle" x="1777.2" y="-70.4" font-family="SourceSans" font-size="8.00">fstream</text>
</a>
</g>
</g>
<!-- Node1&#45;&gt;Node24 -->
<g id="edge51_Node000001_Node000024" class="edge">
<title>Node1&#45;&gt;Node24</title>
<g id="a_edge51_Node000001_Node000024"><a xlink:title=" ">
<path fill="none" stroke="#63b8ff" d="M2074.96,-259.38C2030.14,-254.24 1962.87,-241.82 1912.2,-212 1866.39,-185.04 1868.55,-161.83 1831.2,-124 1819.71,-112.36 1806.35,-99.73 1795.79,-89.96"/>
<polygon fill="#63b8ff" stroke="#63b8ff" points="1798.2,-87.41 1788.47,-83.22 1793.46,-92.57 1798.2,-87.41"/>
</a>
</g>
</g>
<!-- Node39 -->
<g id="Node000039" class="node">
<title>Node39</title>
<g id="a_Node000039"><a xlink:title=" ">
<polygon fill="#e0e0e0" stroke="#999999" points="2060.2,-212 1954.2,-212 1954.2,-192 2060.2,-192 2060.2,-212"/>
<text xml:space="preserve" text-anchor="middle" x="2007.2" y="-200.4" font-family="SourceSans" font-size="8.00">rapidjson/prettywriter.h</text>
</a>
</g>
</g>
<!-- Node1&#45;&gt;Node39 -->
<g id="edge52_Node000001_Node000039" class="edge">
<title>Node1&#45;&gt;Node39</title>
<g id="a_edge52_Node000001_Node000039"><a xlink:title=" ">
<path fill="none" stroke="#63b8ff" d="M2093.33,-247.55C2075.54,-238.35 2053.09,-226.74 2035.58,-217.68"/>
<polygon fill="#63b8ff" stroke="#63b8ff" points="2037.23,-214.59 2026.74,-213.1 2034.01,-220.81 2037.23,-214.59"/>
</a>
</g>
</g>
<!-- Node40 -->
<g id="Node000040" class="node">
<title>Node40</title>
<g id="a_Node000040"><a xlink:title=" ">
<polygon fill="#e0e0e0" stroke="#999999" points="2167.95,-212 2078.45,-212 2078.45,-192 2167.95,-192 2167.95,-212"/>
<text xml:space="preserve" text-anchor="middle" x="2123.2" y="-200.4" font-family="SourceSans" font-size="8.00">rapidjson/pointer.h</text>
</a>
</g>
</g>
<!-- Node1&#45;&gt;Node40 -->
<g id="edge53_Node000001_Node000040" class="edge">
<title>Node1&#45;&gt;Node40</title>
<g id="a_edge53_Node000001_Node000040"><a xlink:title=" ">
<path fill="none" stroke="#63b8ff" d="M2123.2,-247.55C2123.2,-240.34 2123.2,-231.66 2123.2,-223.88"/>
<polygon fill="#63b8ff" stroke="#63b8ff" points="2126.7,-223.92 2123.2,-213.92 2119.7,-223.92 2126.7,-223.92"/>
</a>
</g>
</g>
<!-- Node41 -->
<g id="Node000041" class="node">
<title>Node41</title>
<g id="a_Node000041"><a xlink:title=" ">
<polygon fill="#e0e0e0" stroke="#999999" points="2302.83,-212 2185.58,-212 2185.58,-192 2302.83,-192 2302.83,-212"/>
<text xml:space="preserve" text-anchor="middle" x="2244.2" y="-200.4" font-family="SourceSans" font-size="8.00">rapidjson/filereadstream.h</text>
</a>
</g>
</g>
<!-- Node1&#45;&gt;Node41 -->
<g id="edge54_Node000001_Node000041" class="edge">
<title>Node1&#45;&gt;Node41</title>
<g id="a_edge54_Node000001_Node000041"><a xlink:title=" ">
<path fill="none" stroke="#63b8ff" d="M2154.36,-247.55C2173.09,-238.26 2196.78,-226.52 2215.12,-217.42"/>
<polygon fill="#63b8ff" stroke="#63b8ff" points="2216.47,-220.66 2223.87,-213.08 2213.36,-214.39 2216.47,-220.66"/>
</a>
</g>
</g>
<!-- Node42 -->
<g id="Node000042" class="node">
<title>Node42</title>
<g id="a_Node000042"><a xlink:title=" ">
<polygon fill="#e0e0e0" stroke="#999999" points="2407.45,-212 2320.95,-212 2320.95,-192 2407.45,-192 2407.45,-212"/>
<text xml:space="preserve" text-anchor="middle" x="2364.2" y="-200.4" font-family="SourceSans" font-size="8.00">rapidjson/reader.h</text>
</a>
</g>
</g>
<!-- Node1&#45;&gt;Node42 -->
<g id="edge55_Node000001_Node000042" class="edge">
<title>Node1&#45;&gt;Node42</title>
<g id="a_edge55_Node000001_Node000042"><a xlink:title=" ">
<path fill="none" stroke="#63b8ff" d="M2171.39,-251C2213.17,-240.6 2273.34,-225.62 2315.32,-215.17"/>
<polygon fill="#63b8ff" stroke="#63b8ff" points="2316.05,-218.6 2324.91,-212.78 2314.36,-211.8 2316.05,-218.6"/>
</a>
</g>
</g>
<!-- Node43 -->
<g id="Node000043" class="node">
<title>Node43</title>
<g id="a_Node000043"><a xlink:title=" ">
<polygon fill="#e0e0e0" stroke="#999999" points="2526.95,-212 2425.45,-212 2425.45,-192 2526.95,-192 2526.95,-212"/>
<text xml:space="preserve" text-anchor="middle" x="2476.2" y="-200.4" font-family="SourceSans" font-size="8.00">rapidjson/document.h</text>
</a>
</g>
</g>
<!-- Node1&#45;&gt;Node43 -->
<g id="edge56_Node000001_Node000043" class="edge">
<title>Node1&#45;&gt;Node43</title>
<g id="a_edge56_Node000001_Node000043"><a xlink:title=" ">
<path fill="none" stroke="#63b8ff" d="M2171.18,-254.85C2234.12,-244.15 2344.7,-225.35 2414.01,-213.57"/>
<polygon fill="#63b8ff" stroke="#63b8ff" points="2414.42,-217.05 2423.69,-211.92 2413.25,-210.15 2414.42,-217.05"/>
</a>
</g>
</g>
<!-- Node44 -->
<g id="Node000044" class="node">
<title>Node44</title>
<g id="a_Node000044"><a xlink:title=" ">
<polygon fill="#e0e0e0" stroke="#999999" points="2637.83,-212 2544.58,-212 2544.58,-192 2637.83,-192 2637.83,-212"/>
<text xml:space="preserve" text-anchor="middle" x="2591.2" y="-200.4" font-family="SourceSans" font-size="8.00">rapidjson/error/en.h</text>
</a>
</g>
</g>
<!-- Node1&#45;&gt;Node44 -->
<g id="edge57_Node000001_Node000044" class="edge">
<title>Node1&#45;&gt;Node44</title>
<g id="a_edge57_Node000001_Node000044"><a xlink:title=" ">
<path fill="none" stroke="#63b8ff" d="M2171.29,-257.68C2246.37,-249.25 2396.27,-231.86 2533.04,-212.41"/>
<polygon fill="#63b8ff" stroke="#63b8ff" points="2533.21,-215.92 2542.62,-211.04 2532.22,-208.99 2533.21,-215.92"/>
</a>
</g>
</g>
<!-- Node3 -->
<g id="Node000003" class="node">
<title>Node3</title>
<g id="a_Node000003"><a xlink:title=" ">
<polygon fill="#e0e0e0" stroke="#999999" points="1822.45,-150 1777.95,-150 1777.95,-130 1822.45,-130 1822.45,-150"/>
<text xml:space="preserve" text-anchor="middle" x="1800.2" y="-138.4" font-family="SourceSans" font-size="8.00">cstddef</text>
</a>
</g>
</g>
<!-- Node2&#45;&gt;Node3 -->
<g id="edge2_Node000002_Node000003" class="edge">
<title>Node2&#45;&gt;Node3</title>
<g id="a_edge2_Node000002_Node000003"><a xlink:title=" ">
<path fill="none" stroke="#63b8ff" d="M859.59,-201.11C992.48,-201.45 1589.18,-200.42 1768.2,-156 1769.8,-155.6 1771.42,-155.12 1773.03,-154.58"/>
<polygon fill="#63b8ff" stroke="#63b8ff" points="1774.04,-157.95 1781.98,-150.95 1771.4,-151.47 1774.04,-157.95"/>
</a>
</g>
</g>
<!-- Node4 -->
<g id="Node000004" class="node">
<title>Node4</title>
<g id="a_Node000004"><a xlink:title=" ">
<polygon fill="#e0e0e0" stroke="#999999" points="1492.2,-20 1452.2,-20 1452.2,0 1492.2,0 1492.2,-20"/>
<text xml:space="preserve" text-anchor="middle" x="1472.2" y="-8.4" font-family="SourceSans" font-size="8.00">cmath</text>
</a>
</g>
</g>
<!-- Node2&#45;&gt;Node4 -->
<g id="edge3_Node000002_Node000004" class="edge">
<title>Node2&#45;&gt;Node4</title>
<g id="a_edge3_Node000002_Node000004"><a xlink:title=" ">
<path fill="none" stroke="#63b8ff" d="M859.66,-200.83C1014.39,-199.69 1796.65,-192.14 1831.2,-156 1852.69,-133.52 1823.48,-67.84 1809.2,-56 1760.4,-15.54 1588.93,-29.21 1526.2,-20 1519.01,-18.94 1511.29,-17.71 1504,-16.51"/>
<polygon fill="#63b8ff" stroke="#63b8ff" points="1504.62,-13.07 1494.18,-14.86 1503.46,-19.97 1504.62,-13.07"/>
</a>
</g>
</g>
<!-- Node5 -->
<g id="Node000005" class="node">
<title>Node5</title>
<g id="a_Node000005"><a xlink:title=" ">
<polygon fill="#e0e0e0" stroke="#999999" points="413.95,-82 360.45,-82 360.45,-62 413.95,-62 413.95,-82"/>
<text xml:space="preserve" text-anchor="middle" x="387.2" y="-70.4" font-family="SourceSans" font-size="8.00">algorithm</text>
</a>
</g>
</g>
<!-- Node2&#45;&gt;Node5 -->
<g id="edge4_Node000002_Node000005" class="edge">
<title>Node2&#45;&gt;Node5</title>
<g id="a_edge4_Node000002_Node000005"><a xlink:title=" ">
<path fill="none" stroke="#63b8ff" d="M807.02,-200.42C714.39,-198.1 406.22,-188.02 377.2,-156 361.79,-138.99 369.24,-111.31 377.18,-92.65"/>
<polygon fill="#63b8ff" stroke="#63b8ff" points="380.29,-94.27 381.35,-83.73 373.95,-91.31 380.29,-94.27"/>
</a>
</g>
</g>
<!-- Node6 -->
<g id="Node000006" class="node">
<title>Node6</title>
<g id="a_Node000006"><a xlink:title=" ">
<polygon fill="#e0e0e0" stroke="#999999" points="56.58,-150 21.83,-150 21.83,-130 56.58,-130 56.58,-150"/>
<text xml:space="preserve" text-anchor="middle" x="39.2" y="-138.4" font-family="SourceSans" font-size="8.00">array</text>
</a>
</g>
</g>
<!-- Node2&#45;&gt;Node6 -->
<g id="edge5_Node000002_Node000006" class="edge">
<title>Node2&#45;&gt;Node6</title>
<g id="a_edge5_Node000002_Node000006"><a xlink:title=" ">
<path fill="none" stroke="#63b8ff" d="M806.77,-200.82C689.27,-199.8 213.86,-193.42 70.2,-156 68.8,-155.64 67.39,-155.21 65.98,-154.73"/>
<polygon fill="#63b8ff" stroke="#63b8ff" points="67.45,-151.55 56.87,-150.93 64.75,-158.01 67.45,-151.55"/>
</a>
</g>
</g>
<!-- Node7 -->
<g id="Node000007" class="node">
<title>Node7</title>
<g id="a_Node000007"><a xlink:title=" ">
<polygon fill="#e0e0e0" stroke="#999999" points="78.33,-20 42.08,-20 42.08,0 78.33,0 78.33,-20"/>
<text xml:space="preserve" text-anchor="middle" x="60.2" y="-8.4" font-family="SourceSans" font-size="8.00">tuple</text>
</a>
</g>
</g>
<!-- Node2&#45;&gt;Node7 -->
<g id="edge6_Node000002_Node000007" class="edge">
<title>Node2&#45;&gt;Node7</title>
<g id="a_edge6_Node000002_Node000007"><a xlink:title=" ">
<path fill="none" stroke="#63b8ff" d="M806.92,-200.56C669.75,-198.15 41.14,-185.51 13.2,-156 -20.94,-119.93 20.24,-58.81 44.65,-28.76"/>
<polygon fill="#63b8ff" stroke="#63b8ff" points="47.15,-31.23 50.9,-21.32 41.79,-26.73 47.15,-31.23"/>
</a>
</g>
</g>
<!-- Node8 -->
<g id="Node000008" class="node">
<title>Node8</title>
<g id="a_Node000008"><a xlink:title=" ">
<polygon fill="#e0e0e0" stroke="#999999" points="150.45,-150 111.95,-150 111.95,-130 150.45,-130 150.45,-150"/>
<text xml:space="preserve" text-anchor="middle" x="131.2" y="-138.4" font-family="SourceSans" font-size="8.00">string</text>
</a>
</g>
</g>
<!-- Node2&#45;&gt;Node8 -->
<g id="edge7_Node000002_Node000008" class="edge">
<title>Node2&#45;&gt;Node8</title>
<g id="a_edge7_Node000002_Node000008"><a xlink:title=" ">
<path fill="none" stroke="#63b8ff" d="M806.84,-200.49C698.73,-198.18 289.22,-187.51 164.2,-156 162.6,-155.6 160.98,-155.12 159.36,-154.58"/>
<polygon fill="#63b8ff" stroke="#63b8ff" points="160.93,-151.44 150.34,-151.02 158.36,-157.95 160.93,-151.44"/>
</a>
</g>
</g>
<!-- Node9 -->
<g id="Node000009" class="node">
<title>Node9</title>
<g id="a_Node000009"><a xlink:title=" ">
<polygon fill="#e0e0e0" stroke="#999999" points="658.45,-20 619.95,-20 619.95,0 658.45,0 658.45,-20"/>
<text xml:space="preserve" text-anchor="middle" x="639.2" y="-8.4" font-family="SourceSans" font-size="8.00">vector</text>
</a>
</g>
</g>
<!-- Node2&#45;&gt;Node9 -->
<g id="edge8_Node000002_Node000009" class="edge">
<title>Node2&#45;&gt;Node9</title>
<g id="a_edge8_Node000002_Node000009"><a xlink:title=" ">
<path fill="none" stroke="#63b8ff" d="M806.91,-200.38C679.11,-197.23 127.8,-182.16 103.2,-156 33.47,-81.84 96.83,-97.07 227.2,-56 364.45,-12.76 538.7,-9.62 608.38,-10.31"/>
<polygon fill="#63b8ff" stroke="#63b8ff" points="608.21,-13.81 618.25,-10.45 608.3,-6.81 608.21,-13.81"/>
</a>
</g>
</g>
<!-- Node10 -->
<g id="Node000010" class="node">
<title>Node10</title>
<g id="a_Node000010"><a xlink:title=" ">
<polygon fill="#e0e0e0" stroke="#999999" points="234.6,-150 205.8,-150 205.8,-130 234.6,-130 234.6,-150"/>
<text xml:space="preserve" text-anchor="middle" x="220.2" y="-138.4" font-family="SourceSans" font-size="8.00">set</text>
</a>
</g>
</g>
<!-- Node2&#45;&gt;Node10 -->
<g id="edge9_Node000002_Node000010" class="edge">
<title>Node2&#45;&gt;Node10</title>
<g id="a_edge9_Node000002_Node000010"><a xlink:title=" ">
<path fill="none" stroke="#63b8ff" d="M806.81,-200.72C706.59,-199.39 349.85,-192.17 243.2,-156 242.97,-155.92 242.73,-155.84 242.49,-155.75"/>
<polygon fill="#63b8ff" stroke="#63b8ff" points="244.1,-152.64 233.61,-151.17 240.89,-158.86 244.1,-152.64"/>
</a>
</g>
</g>
<!-- Node11 -->
<g id="Node000011" class="node">
<title>Node11</title>
<g id="a_Node000011"><a xlink:title=" ">
<polygon fill="#e0e0e0" stroke="#999999" points="329.95,-150 252.45,-150 252.45,-130 329.95,-130 329.95,-150"/>
<text xml:space="preserve" text-anchor="middle" x="291.2" y="-138.4" font-family="SourceSans" font-size="8.00">unordered_map</text>
</a>
</g>
</g>
<!-- Node2&#45;&gt;Node11 -->
<g id="edge10_Node000002_Node000011" class="edge">
<title>Node2&#45;&gt;Node11</title>
<g id="a_edge10_Node000002_Node000011"><a xlink:title=" ">
<path fill="none" stroke="#63b8ff" d="M806.73,-200.27C732.91,-197.88 518.76,-188.45 344.2,-156 340.16,-155.25 335.97,-154.32 331.81,-153.31"/>
<polygon fill="#63b8ff" stroke="#63b8ff" points="332.99,-150 322.43,-150.85 331.21,-156.77 332.99,-150"/>
</a>
</g>
</g>
<!-- Node12 -->
<g id="Node000012" class="node">
<title>Node12</title>
<g id="a_Node000012"><a xlink:title=" ">
<polygon fill="#e0e0e0" stroke="#999999" points="1009.95,-20 938.45,-20 938.45,0 1009.95,0 1009.95,-20"/>
<text xml:space="preserve" text-anchor="middle" x="974.2" y="-8.4" font-family="SourceSans" font-size="8.00">unordered_set</text>
</a>
</g>
</g>
<!-- Node2&#45;&gt;Node12 -->
<g id="edge11_Node000002_Node000012" class="edge">
<title>Node2&#45;&gt;Node12</title>
<g id="a_edge11_Node000002_Node000012"><a xlink:title=" ">
<path fill="none" stroke="#63b8ff" d="M806.71,-201.2C691.66,-201.79 239.32,-201.2 197.2,-156 187.51,-145.59 189.44,-135.92 197.2,-124 238.05,-61.31 278.6,-74.07 351.2,-56 460.26,-28.85 801.15,-16.17 926.95,-12.32"/>
<polygon fill="#63b8ff" stroke="#63b8ff" points="926.68,-15.83 936.57,-12.03 926.47,-8.83 926.68,-15.83"/>
</a>
</g>
</g>
<!-- Node13 -->
<g id="Node000013" class="node">
<title>Node13</title>
<g id="a_Node000013"><a xlink:title=" ">
<polygon fill="#e0e0e0" stroke="#999999" points="432.2,-150 386.2,-150 386.2,-130 432.2,-130 432.2,-150"/>
<text xml:space="preserve" text-anchor="middle" x="409.2" y="-138.4" font-family="SourceSans" font-size="8.00">sstream</text>
</a>
</g>
</g>
<!-- Node2&#45;&gt;Node13 -->
<g id="edge12_Node000002_Node000013" class="edge">
<title>Node2&#45;&gt;Node13</title>
<g id="a_edge12_Node000002_Node000013"><a xlink:title=" ">
<path fill="none" stroke="#63b8ff" d="M806.96,-200.89C743.09,-200 574.99,-193.94 441.2,-156 439.84,-155.61 438.47,-155.18 437.09,-154.7"/>
<polygon fill="#63b8ff" stroke="#63b8ff" points="438.73,-151.59 428.15,-151.04 436.08,-158.07 438.73,-151.59"/>
</a>
</g>
</g>
<!-- Node14 -->
<g id="Node000014" class="node">
<title>Node14</title>
<g id="a_Node000014"><a xlink:href="a60-svg-color_8h.html" target="_top" xlink:title=" ">
<polygon fill="white" stroke="#666666" points="521.95,-150 450.45,-150 450.45,-130 521.95,-130 521.95,-150"/>
<text xml:space="preserve" text-anchor="middle" x="486.2" y="-138.4" font-family="SourceSans" font-size="8.00">a60&#45;svg&#45;color.h</text>
</a>
</g>
</g>
<!-- Node2&#45;&gt;Node14 -->
<g id="edge13_Node000002_Node000014" class="edge">
<title>Node2&#45;&gt;Node14</title>
<g id="a_edge13_Node000002_Node000014"><a xlink:title=" ">
<path fill="none" stroke="#63b8ff" d="M807.06,-198.65C754.34,-193.57 631.73,-180.05 531.2,-156 528.4,-155.33 525.52,-154.56 522.64,-153.74"/>
<polygon fill="#63b8ff" stroke="#63b8ff" points="523.71,-150.4 513.13,-150.79 521.65,-157.09 523.71,-150.4"/>
</a>
</g>
</g>
<!-- Node18 -->
<g id="Node000018" class="node">
<title>Node18</title>
<g id="a_Node000018"><a xlink:href="a60-svg-color-palette_8h.html" target="_top" xlink:title=" ">
<polygon fill="white" stroke="#666666" points="641.95,-150 540.45,-150 540.45,-130 641.95,-130 641.95,-150"/>
<text xml:space="preserve" text-anchor="middle" x="591.2" y="-138.4" font-family="SourceSans" font-size="8.00">a60&#45;svg&#45;color&#45;palette.h</text>
</a>
</g>
</g>
<!-- Node2&#45;&gt;Node18 -->
<g id="edge18_Node000002_Node000018" class="edge">
<title>Node2&#45;&gt;Node18</title>
<g id="a_edge18_Node000002_Node000018"><a xlink:title=" ">
<path fill="none" stroke="#63b8ff" d="M806.98,-194.54C771.6,-185.82 706.64,-169.78 651.2,-156 647.5,-155.08 643.66,-154.12 639.8,-153.16"/>
<polygon fill="#63b8ff" stroke="#63b8ff" points="640.99,-149.85 630.44,-150.82 639.29,-156.64 640.99,-149.85"/>
</a>
</g>
</g>
<!-- Node19 -->
<g id="Node000019" class="node">
<title>Node19</title>
<g id="a_Node000019"><a xlink:href="a60-svg-color-band_8h.html" target="_top" xlink:title=" ">
<polygon fill="white" stroke="#666666" points="1606.58,-82 1511.83,-82 1511.83,-62 1606.58,-62 1606.58,-82"/>
<text xml:space="preserve" text-anchor="middle" x="1559.2" y="-70.4" font-family="SourceSans" font-size="8.00">a60&#45;svg&#45;color&#45;band.h</text>
</a>
</g>
</g>
<!-- Node2&#45;&gt;Node19 -->
<g id="edge19_Node000002_Node000019" class="edge">
<title>Node2&#45;&gt;Node19</title>
<g id="a_edge19_Node000002_Node000019"><a xlink:title=" ">
<path fill="none" stroke="#63b8ff" d="M859.67,-200.49C993.64,-197.79 1591.58,-184.19 1618.2,-156 1638.26,-134.76 1607.85,-106.36 1583.76,-88.89"/>
<polygon fill="#63b8ff" stroke="#63b8ff" points="1585.77,-86.03 1575.55,-83.2 1581.78,-91.78 1585.77,-86.03"/>
</a>
</g>
</g>
<!-- Node21 -->
<g id="Node000021" class="node">
<title>Node21</title>
<g id="a_Node000021"><a xlink:href="izzi-points_8h.html" target="_top" xlink:title=" ">
<polygon fill="white" stroke="#666666" points="834.08,-150 772.33,-150 772.33,-130 834.08,-130 834.08,-150"/>
<text xml:space="preserve" text-anchor="middle" x="803.2" y="-138.4" font-family="SourceSans" font-size="8.00">izzi&#45;points.h</text>
</a>
</g>
</g>
<!-- Node2&#45;&gt;Node21 -->
<g id="edge21_Node000002_Node000021" class="edge">
<title>Node2&#45;&gt;Node21</title>
<g id="a_edge21_Node000002_Node000021"><a xlink:title=" ">
<path fill="none" stroke="#63b8ff" d="M828.52,-191.62C824.35,-183.3 818.13,-170.86 812.9,-160.4"/>
<polygon fill="#63b8ff" stroke="#63b8ff" points="816.04,-158.85 808.44,-151.47 809.78,-161.98 816.04,-158.85"/>
</a>
</g>
</g>
<!-- Node22 -->
<g id="Node000022" class="node">
<title>Node22</title>
<g id="a_Node000022"><a xlink:href="a60-svg-base-types_8h.html" target="_top" xlink:title=" ">
<polygon fill="white" stroke="#666666" points="754.58,-150 659.83,-150 659.83,-130 754.58,-130 754.58,-150"/>
<text xml:space="preserve" text-anchor="middle" x="707.2" y="-138.4" font-family="SourceSans" font-size="8.00">a60&#45;svg&#45;base&#45;types.h</text>
</a>
</g>
</g>
<!-- Node2&#45;&gt;Node22 -->
<g id="edge22_Node000002_Node000022" class="edge">
<title>Node2&#45;&gt;Node22</title>
<g id="a_edge22_Node000002_Node000022"><a xlink:title=" ">
<path fill="none" stroke="#63b8ff" d="M813.52,-191.62C792.99,-181.85 760.57,-166.41 736.92,-155.15"/>
<polygon fill="#63b8ff" stroke="#63b8ff" points="738.65,-152.1 728.12,-150.96 735.64,-158.42 738.65,-152.1"/>
</a>
</g>
</g>
<!-- Node26 -->
<g id="Node000026" class="node">
<title>Node26</title>
<g id="a_Node000026"><a xlink:href="a60-svg-constants_8h.html" target="_top" xlink:title=" ">
<polygon fill="white" stroke="#666666" points="981.7,-150 890.7,-150 890.7,-130 981.7,-130 981.7,-150"/>
<text xml:space="preserve" text-anchor="middle" x="936.2" y="-138.4" font-family="SourceSans" font-size="8.00">a60&#45;svg&#45;constants.h</text>
</a>
</g>
</g>
<!-- Node2&#45;&gt;Node26 -->
<g id="edge27_Node000002_Node000026" class="edge">
<title>Node2&#45;&gt;Node26</title>
<g id="a_edge27_Node000002_Node000026"><a xlink:title=" ">
<path fill="none" stroke="#63b8ff" d="M849.3,-191.62C865.62,-182.11 891.15,-167.24 910.32,-156.08"/>
<polygon fill="#63b8ff" stroke="#63b8ff" points="912.04,-159.13 918.91,-151.07 908.51,-153.08 912.04,-159.13"/>
</a>
</g>
</g>
<!-- Node27 -->
<g id="Node000027" class="node">
<title>Node27</title>
<g id="a_Node000027"><a xlink:href="a60-svg-elements_8h.html" target="_top" xlink:title=" ">
<polygon fill="white" stroke="#666666" points="1088.95,-150 999.45,-150 999.45,-130 1088.95,-130 1088.95,-150"/>
<text xml:space="preserve" text-anchor="middle" x="1044.2" y="-138.4" font-family="SourceSans" font-size="8.00">a60&#45;svg&#45;elements.h</text>
</a>
</g>
</g>
<!-- Node2&#45;&gt;Node27 -->
<g id="edge28_Node000002_Node000027" class="edge">
<title>Node2&#45;&gt;Node27</title>
<g id="a_edge28_Node000002_Node000027"><a xlink:title=" ">
<path fill="none" stroke="#63b8ff" d="M859.5,-193.52C894.69,-183.52 957.58,-165.63 1000.09,-153.54"/>
<polygon fill="#63b8ff" stroke="#63b8ff" points="1000.85,-156.97 1009.51,-150.87 998.93,-150.23 1000.85,-156.97"/>
</a>
</g>
</g>
<!-- Node28 -->
<g id="Node000028" class="node">
<title>Node28</title>
<g id="a_Node000028"><a xlink:href="a60-svg-elements-components_8h.html" target="_top" xlink:title=" ">
<polygon fill="white" stroke="#666666" points="1245.7,-150 1106.7,-150 1106.7,-130 1245.7,-130 1245.7,-150"/>
<text xml:space="preserve" text-anchor="middle" x="1176.2" y="-138.4" font-family="SourceSans" font-size="8.00">a60&#45;svg&#45;elements&#45;components.h</text>
</a>
</g>
</g>
<!-- Node2&#45;&gt;Node28 -->
<g id="edge29_Node000002_Node000028" class="edge">
<title>Node2&#45;&gt;Node28</title>
<g id="a_edge29_Node000002_Node000028"><a xlink:title=" ">
<path fill="none" stroke="#63b8ff" d="M859.57,-196.72C907.24,-188.93 1010.96,-171.79 1098.2,-156 1104.22,-154.91 1110.5,-153.75 1116.77,-152.57"/>
<polygon fill="#63b8ff" stroke="#63b8ff" points="1117.31,-156.03 1126.48,-150.73 1116,-149.15 1117.31,-156.03"/>
</a>
</g>
</g>
<!-- Node29 -->
<g id="Node000029" class="node">
<title>Node29</title>
<g id="a_Node000029"><a xlink:href="a60-svg-render-state_8h.html" target="_top" xlink:title=" ">
<polygon fill="white" stroke="#666666" points="1364.58,-150 1263.83,-150 1263.83,-130 1364.58,-130 1364.58,-150"/>
<text xml:space="preserve" text-anchor="middle" x="1314.2" y="-138.4" font-family="SourceSans" font-size="8.00">a60&#45;svg&#45;render&#45;state.h</text>
</a>
</g>
</g>
<!-- Node2&#45;&gt;Node29 -->
<g id="edge30_Node000002_Node000029" class="edge">
<title>Node2&#45;&gt;Node29</title>
<g id="a_edge30_Node000002_Node000029"><a xlink:title=" ">
<path fill="none" stroke="#63b8ff" d="M859.56,-199.5C926.24,-195.43 1106.9,-182.62 1255.2,-156 1259.83,-155.17 1264.62,-154.18 1269.39,-153.1"/>
<polygon fill="#63b8ff" stroke="#63b8ff" points="1269.99,-156.56 1278.9,-150.83 1268.37,-149.75 1269.99,-156.56"/>
</a>
</g>
</g>
<!-- Node30 -->
<g id="Node000030" class="node">
<title>Node30</title>
<g id="a_Node000030"><a xlink:href="a60-svg-render-basics_8h.html" target="_top" xlink:title=" ">
<polygon fill="white" stroke="#666666" points="1487.83,-150 1382.58,-150 1382.58,-130 1487.83,-130 1487.83,-150"/>
<text xml:space="preserve" text-anchor="middle" x="1435.2" y="-138.4" font-family="SourceSans" font-size="8.00">a60&#45;svg&#45;render&#45;basics.h</text>
</a>
</g>
</g>
<!-- Node2&#45;&gt;Node30 -->
<g id="edge31_Node000002_Node000030" class="edge">
<title>Node2&#45;&gt;Node30</title>
<g id="a_edge31_Node000002_Node000030"><a xlink:title=" ">
<path fill="none" stroke="#63b8ff" d="M859.51,-200.24C938.04,-197.68 1177.48,-187.64 1373.2,-156 1378.46,-155.15 1383.93,-154.09 1389.35,-152.93"/>
<polygon fill="#63b8ff" stroke="#63b8ff" points="1389.86,-156.4 1398.83,-150.77 1388.31,-149.58 1389.86,-156.4"/>
</a>
</g>
</g>
<!-- Node36 -->
<g id="Node000036" class="node">
<title>Node36</title>
<g id="a_Node000036"><a xlink:href="a60-svg-composite-and-layer-basics_8h.html" target="_top" xlink:title=" ">
<polygon fill="white" stroke="#666666" points="1608.7,-156 1505.7,-156 1505.7,-124 1608.7,-124 1608.7,-156"/>
<text xml:space="preserve" text-anchor="start" x="1513.7" y="-144.4" font-family="SourceSans" font-size="8.00">a60&#45;svg&#45;composite&#45;and</text>
<text xml:space="preserve" text-anchor="middle" x="1557.2" y="-132.4" font-family="SourceSans" font-size="8.00">&#45;layer&#45;basics.h</text>
</a>
</g>
</g>
<!-- Node2&#45;&gt;Node36 -->
<g id="edge44_Node000002_Node000036" class="edge">
<title>Node2&#45;&gt;Node36</title>
<g id="a_edge44_Node000002_Node000036"><a xlink:title=" ">
<path fill="none" stroke="#63b8ff" d="M859.65,-200.89C948.24,-200.15 1242.73,-194.88 1494.1,-156.32"/>
<polygon fill="#63b8ff" stroke="#63b8ff" points="1494.45,-159.81 1503.79,-154.81 1493.37,-152.89 1494.45,-159.81"/>
</a>
</g>
</g>
<!-- Node37 -->
<g id="Node000037" class="node">
<title>Node37</title>
<g id="a_Node000037"><a xlink:href="a60-svg-sequences_8h.html" target="_top" xlink:title=" ">
<polygon fill="white" stroke="#666666" points="1759.58,-150 1664.83,-150 1664.83,-130 1759.58,-130 1759.58,-150"/>
<text xml:space="preserve" text-anchor="middle" x="1712.2" y="-138.4" font-family="SourceSans" font-size="8.00">a60&#45;svg&#45;sequences.h</text>
</a>
</g>
</g>
<!-- Node2&#45;&gt;Node37 -->
<g id="edge45_Node000002_Node000037" class="edge">
<title>Node2&#45;&gt;Node37</title>
<g id="a_edge45_Node000002_Node000037"><a xlink:title=" ">
<path fill="none" stroke="#63b8ff" d="M859.6,-201.35C961.44,-202.2 1336.94,-201.52 1642.2,-156 1647.66,-155.19 1653.34,-154.11 1659.01,-152.9"/>
<polygon fill="#63b8ff" stroke="#63b8ff" points="1659.39,-156.41 1668.38,-150.8 1657.85,-149.58 1659.39,-156.41"/>
</a>
</g>
</g>
<!-- Node14&#45;&gt;Node5 -->
<g id="edge15_Node000014_Node000005" class="edge">
<title>Node14&#45;&gt;Node5</title>
<g id="a_edge15_Node000014_Node000005"><a xlink:title=" ">
<path fill="none" stroke="#63b8ff" d="M472.02,-129.54C456.07,-118.91 429.9,-101.47 410.85,-88.76"/>
<polygon fill="#63b8ff" stroke="#63b8ff" points="412.88,-85.91 402.62,-83.28 409,-91.74 412.88,-85.91"/>
</a>
</g>
</g>
<!-- Node15 -->
<g id="Node000015" class="node">
<title>Node15</title>
<g id="a_Node000015"><a xlink:title=" ">
<polygon fill="#e0e0e0" stroke="#999999" points="613.83,-82 580.58,-82 580.58,-62 613.83,-62 613.83,-82"/>
<text xml:space="preserve" text-anchor="middle" x="597.2" y="-70.4" font-family="SourceSans" font-size="8.00">map</text>
</a>
</g>
</g>
<!-- Node14&#45;&gt;Node15 -->
<g id="edge14_Node000014_Node000015" class="edge">
<title>Node14&#45;&gt;Node15</title>
<g id="a_edge14_Node000014_Node000015"><a xlink:title=" ">
<path fill="none" stroke="#63b8ff" d="M502.11,-129.54C520.24,-118.76 550.14,-100.98 571.58,-88.24"/>
<polygon fill="#63b8ff" stroke="#63b8ff" points="573.22,-91.33 580.03,-83.21 569.64,-85.31 573.22,-91.33"/>
</a>
</g>
</g>
<!-- Node16 -->
<g id="Node000016" class="node">
<title>Node16</title>
<g id="a_Node000016"><a xlink:title=" ">
<polygon fill="#e0e0e0" stroke="#999999" points="1670.2,-82 1624.2,-82 1624.2,-62 1670.2,-62 1670.2,-82"/>
<text xml:space="preserve" text-anchor="middle" x="1647.2" y="-70.4" font-family="SourceSans" font-size="8.00">random</text>
</a>
</g>
</g>
<!-- Node14&#45;&gt;Node16 -->
<g id="edge16_Node000014_Node000016" class="edge">
<title>Node14&#45;&gt;Node16</title>
<g id="a_edge16_Node000014_Node000016"><a xlink:title=" ">
<path fill="none" stroke="#63b8ff" d="M510.16,-129.6C516.87,-127.35 524.23,-125.25 531.2,-124 768.44,-81.45 1380.85,-144.3 1615.2,-88 1616.81,-87.61 1618.43,-87.15 1620.04,-86.61"/>
<polygon fill="#63b8ff" stroke="#63b8ff" points="1621.03,-89.99 1628.99,-83 1618.41,-83.5 1621.03,-89.99"/>
</a>
</g>
</g>
<!-- Node17 -->
<g id="Node000017" class="node">
<title>Node17</title>
<g id="a_Node000017"><a xlink:title=" ">
<polygon fill="#e0e0e0" stroke="#999999" points="509.95,-82 462.45,-82 462.45,-62 509.95,-62 509.95,-82"/>
<text xml:space="preserve" text-anchor="middle" x="486.2" y="-70.4" font-family="SourceSans" font-size="8.00">iomanip</text>
</a>
</g>
</g>
<!-- Node14&#45;&gt;Node17 -->
<g id="edge17_Node000014_Node000017" class="edge">
<title>Node14&#45;&gt;Node17</title>
<g id="a_edge17_Node000014_Node000017"><a xlink:title=" ">
<path fill="none" stroke="#63b8ff" d="M486.2,-129.54C486.2,-120.23 486.2,-105.7 486.2,-93.7"/>
<polygon fill="#63b8ff" stroke="#63b8ff" points="489.7,-93.95 486.2,-83.95 482.7,-93.95 489.7,-93.95"/>
</a>
</g>
</g>
<!-- Node19&#45;&gt;Node20 -->
<g id="edge20_Node000019_Node000020" class="edge">
<title>Node19&#45;&gt;Node20</title>
<g id="a_edge20_Node000019_Node000020"><a xlink:title=" ">
<path fill="none" stroke="#63b8ff" d="M1559.2,-61.62C1559.2,-53.56 1559.2,-41.65 1559.2,-31.41"/>
<polygon fill="#63b8ff" stroke="#63b8ff" points="1562.7,-31.63 1559.2,-21.63 1555.7,-31.63 1562.7,-31.63"/>
</a>
</g>
</g>
<!-- Node22&#45;&gt;Node15 -->
<g id="edge23_Node000022_Node000015" class="edge">
<title>Node22&#45;&gt;Node15</title>
<g id="a_edge23_Node000022_Node000015"><a xlink:title=" ">
<path fill="none" stroke="#63b8ff" d="M691.44,-129.54C673.47,-118.76 643.84,-100.98 622.6,-88.24"/>
<polygon fill="#63b8ff" stroke="#63b8ff" points="624.61,-85.36 614.23,-83.22 621.01,-91.36 624.61,-85.36"/>
</a>
</g>
</g>
<!-- Node23 -->
<g id="Node000023" class="node">
<title>Node23</title>
<g id="a_Node000023"><a xlink:title=" ">
<polygon fill="#e0e0e0" stroke="#999999" points="761.58,-82 714.83,-82 714.83,-62 761.58,-62 761.58,-82"/>
<text xml:space="preserve" text-anchor="middle" x="738.2" y="-70.4" font-family="SourceSans" font-size="8.00">ostream</text>
</a>
</g>
</g>
<!-- Node22&#45;&gt;Node23 -->
<g id="edge24_Node000022_Node000023" class="edge">
<title>Node22&#45;&gt;Node23</title>
<g id="a_edge24_Node000022_Node000023"><a xlink:title=" ">
<path fill="none" stroke="#63b8ff" d="M711.64,-129.54C716.16,-119.94 723.28,-104.78 729.01,-92.57"/>
<polygon fill="#63b8ff" stroke="#63b8ff" points="732.04,-94.35 733.13,-83.81 725.71,-91.37 732.04,-94.35"/>
</a>
</g>
</g>
<!-- Node22&#45;&gt;Node24 -->
<g id="edge25_Node000022_Node000024" class="edge">
<title>Node22&#45;&gt;Node24</title>
<g id="a_edge25_Node000022_Node000024"><a xlink:title=" ">
<path fill="none" stroke="#63b8ff" d="M737.46,-129.56C745.73,-127.35 754.74,-125.27 763.2,-124 979.15,-91.54 1532.96,-139.37 1745.2,-88 1746.81,-87.61 1748.42,-87.14 1750.04,-86.61"/>
<polygon fill="#63b8ff" stroke="#63b8ff" points="1751.03,-89.98 1758.99,-82.98 1748.41,-83.49 1751.03,-89.98"/>
</a>
</g>
</g>
<!-- Node25 -->
<g id="Node000025" class="node">
<title>Node25</title>
<g id="a_Node000025"><a xlink:title=" ">
<polygon fill="#e0e0e0" stroke="#999999" points="696.33,-82 654.08,-82 654.08,-62 696.33,-62 696.33,-82"/>
<text xml:space="preserve" text-anchor="middle" x="675.2" y="-70.4" font-family="SourceSans" font-size="8.00">cstdint</text>
</a>
</g>
</g>
<!-- Node22&#45;&gt;Node25 -->
<g id="edge26_Node000022_Node000025" class="edge">
<title>Node22&#45;&gt;Node25</title>
<g id="a_edge26_Node000022_Node000025"><a xlink:title=" ">
<path fill="none" stroke="#63b8ff" d="M702.62,-129.54C697.96,-119.94 690.61,-104.78 684.69,-92.57"/>
<polygon fill="#63b8ff" stroke="#63b8ff" points="687.95,-91.27 680.44,-83.8 681.65,-94.33 687.95,-91.27"/>
</a>
</g>
</g>
<!-- Node31 -->
<g id="Node000031" class="node">
<title>Node31</title>
<g id="a_Node000031"><a xlink:title=" ">
<polygon fill="#e0e0e0" stroke="#999999" points="1376.45,-20 1325.95,-20 1325.95,0 1376.45,0 1376.45,-20"/>
<text xml:space="preserve" text-anchor="middle" x="1351.2" y="-8.4" font-family="SourceSans" font-size="8.00">numbers</text>
</a>
</g>
</g>
<!-- Node30&#45;&gt;Node31 -->
<g id="edge32_Node000030_Node000031" class="edge">
<title>Node30&#45;&gt;Node31</title>
<g id="a_edge32_Node000030_Node000031"><a xlink:title=" ">
<path fill="none" stroke="#63b8ff" d="M1429.16,-129.79C1415.49,-108.95 1381.92,-57.81 1363.61,-29.91"/>
<polygon fill="#63b8ff" stroke="#63b8ff" points="1366.66,-28.17 1358.25,-21.73 1360.81,-32.01 1366.66,-28.17"/>
</a>
</g>
</g>
<!-- Node32 -->
<g id="Node000032" class="node">
<title>Node32</title>
<g id="a_Node000032"><a xlink:title=" ">
<polygon fill="#e0e0e0" stroke="#999999" points="1455.95,-82 1414.45,-82 1414.45,-62 1455.95,-62 1455.95,-82"/>
<text xml:space="preserve" text-anchor="middle" x="1435.2" y="-70.4" font-family="SourceSans" font-size="8.00">format</text>
</a>
</g>
</g>
<!-- Node30&#45;&gt;Node32 -->
<g id="edge33_Node000030_Node000032" class="edge">
<title>Node30&#45;&gt;Node32</title>
<g id="a_edge33_Node000030_Node000032"><a xlink:title=" ">
<path fill="none" stroke="#63b8ff" d="M1435.2,-129.54C1435.2,-120.23 1435.2,-105.7 1435.2,-93.7"/>
<polygon fill="#63b8ff" stroke="#63b8ff" points="1438.7,-93.95 1435.2,-83.95 1431.7,-93.95 1438.7,-93.95"/>
</a>
</g>
</g>
<!-- Node33 -->
<g id="Node000033" class="node">
<title>Node33</title>
<g id="a_Node000033"><a xlink:href="a60-svg-radial-fill-hexagon_8h.html" target="_top" xlink:title=" ">
<polygon fill="white" stroke="#666666" points="1259.08,-88 1179.33,-88 1179.33,-56 1259.08,-56 1259.08,-88"/>
<text xml:space="preserve" text-anchor="start" x="1187.33" y="-76.4" font-family="SourceSans" font-size="8.00">a60&#45;svg&#45;radial&#45;fill</text>
<text xml:space="preserve" text-anchor="middle" x="1219.2" y="-64.4" font-family="SourceSans" font-size="8.00">&#45;hexagon.h</text>
</a>
</g>
</g>
<!-- Node30&#45;&gt;Node33 -->
<g id="edge34_Node000030_Node000033" class="edge">
<title>Node30&#45;&gt;Node33</title>
<g id="a_edge34_Node000030_Node000033"><a xlink:title=" ">
<path fill="none" stroke="#63b8ff" d="M1404.26,-129.54C1369.24,-118.84 1311.67,-101.26 1270.04,-88.53"/>
<polygon fill="#63b8ff" stroke="#63b8ff" points="1271.32,-85.26 1260.73,-85.69 1269.27,-91.96 1271.32,-85.26"/>
</a>
</g>
</g>
<!-- Node33&#45;&gt;Node2 -->
<g id="edge43_Node000033_Node000002" class="edge">
<title>Node33&#45;&gt;Node2</title>
<g id="a_edge43_Node000033_Node000002"><a xlink:title=" ">
<path fill="none" stroke="#63b8ff" d="M1179.01,-74.89C1100.36,-79.26 929.55,-92.22 881.2,-124 860.78,-137.42 847.49,-162.85 840.18,-180.81"/>
<polygon fill="#63b8ff" stroke="#63b8ff" points="836.91,-179.55 836.67,-190.15 843.46,-182.01 836.91,-179.55"/>
</a>
</g>
</g>
<!-- Node33&#45;&gt;Node4 -->
<g id="edge37_Node000033_Node000004" class="edge">
<title>Node33&#45;&gt;Node4</title>
<g id="a_edge37_Node000033_Node000004"><a xlink:title=" ">
<path fill="none" stroke="#63b8ff" d="M1259.57,-61.43C1310.01,-49.47 1395.23,-29.25 1440.97,-18.41"/>
<polygon fill="#63b8ff" stroke="#63b8ff" points="1441.57,-21.86 1450.5,-16.15 1439.96,-15.05 1441.57,-21.86"/>
</a>
</g>
</g>
<!-- Node33&#45;&gt;Node7 -->
<g id="edge36_Node000033_Node000007" class="edge">
<title>Node33&#45;&gt;Node7</title>
<g id="a_edge36_Node000033_Node000007"><a xlink:title=" ">
<path fill="none" stroke="#63b8ff" d="M1178.97,-68.92C996.43,-59.47 248.14,-20.73 89.75,-12.53"/>
<polygon fill="#63b8ff" stroke="#63b8ff" points="90.27,-9.05 80.1,-12.03 89.9,-16.04 90.27,-9.05"/>
</a>
</g>
</g>
<!-- Node33&#45;&gt;Node9 -->
<g id="edge35_Node000033_Node000009" class="edge">
<title>Node33&#45;&gt;Node9</title>
<g id="a_edge35_Node000033_Node000009"><a xlink:title=" ">
<path fill="none" stroke="#63b8ff" d="M1178.88,-66.83C1069.37,-55.5 768.13,-24.34 670.32,-14.22"/>
<polygon fill="#63b8ff" stroke="#63b8ff" points="670.73,-10.74 660.42,-13.19 670.01,-17.71 670.73,-10.74"/>
</a>
</g>
</g>
<!-- Node33&#45;&gt;Node12 -->
<g id="edge41_Node000033_Node000012" class="edge">
<title>Node33&#45;&gt;Node12</title>
<g id="a_edge41_Node000033_Node000012"><a xlink:title=" ">
<path fill="none" stroke="#63b8ff" d="M1179.02,-61.16C1135.84,-50.59 1067.28,-33.79 1021.52,-22.59"/>
<polygon fill="#63b8ff" stroke="#63b8ff" points="1022.43,-19.21 1011.88,-20.23 1020.76,-26.01 1022.43,-19.21"/>
</a>
</g>
</g>
<!-- Node33&#45;&gt;Node20 -->
<g id="edge42_Node000033_Node000020" class="edge">
<title>Node33&#45;&gt;Node20</title>
<g id="a_edge42_Node000033_Node000020"><a xlink:title=" ">
<path fill="none" stroke="#63b8ff" d="M1259.54,-63.88C1326.44,-52.08 1459.3,-28.63 1523.21,-17.35"/>
<polygon fill="#63b8ff" stroke="#63b8ff" points="1523.58,-20.84 1532.82,-15.66 1522.37,-13.95 1523.58,-20.84"/>
</a>
</g>
</g>
<!-- Node33&#45;&gt;Node31 -->
<g id="edge38_Node000033_Node000031" class="edge">
<title>Node33&#45;&gt;Node31</title>
<g id="a_edge38_Node000033_Node000031"><a xlink:title=" ">
<path fill="none" stroke="#63b8ff" d="M1253.2,-55.55C1273.82,-46.17 1299.95,-34.3 1320.04,-25.17"/>
<polygon fill="#63b8ff" stroke="#63b8ff" points="1321.47,-28.36 1329.13,-21.03 1318.58,-21.99 1321.47,-28.36"/>
</a>
</g>
</g>
<!-- Node34 -->
<g id="Node000034" class="node">
<title>Node34</title>
<g id="a_Node000034"><a xlink:title=" ">
<polygon fill="#e0e0e0" stroke="#999999" points="1213.7,-20 1158.7,-20 1158.7,0 1213.7,0 1213.7,-20"/>
<text xml:space="preserve" text-anchor="middle" x="1186.2" y="-8.4" font-family="SourceSans" font-size="8.00">functional</text>
</a>
</g>
</g>
<!-- Node33&#45;&gt;Node34 -->
<g id="edge39_Node000033_Node000034" class="edge">
<title>Node33&#45;&gt;Node34</title>
<g id="a_edge39_Node000033_Node000034"><a xlink:title=" ">
<path fill="none" stroke="#63b8ff" d="M1210.7,-55.55C1206.5,-47.91 1201.39,-38.61 1196.92,-30.49"/>
<polygon fill="#63b8ff" stroke="#63b8ff" points="1199.99,-28.81 1192.11,-21.73 1193.86,-32.18 1199.99,-28.81"/>
</a>
</g>
</g>
<!-- Node35 -->
<g id="Node000035" class="node">
<title>Node35</title>
<g id="a_Node000035"><a xlink:title=" ">
<polygon fill="#e0e0e0" stroke="#999999" points="1272.58,-20 1231.83,-20 1231.83,0 1272.58,0 1272.58,-20"/>
<text xml:space="preserve" text-anchor="middle" x="1252.2" y="-8.4" font-family="SourceSans" font-size="8.00">queue</text>
</a>
</g>
</g>
<!-- Node33&#45;&gt;Node35 -->
<g id="edge40_Node000033_Node000035" class="edge">
<title>Node33&#45;&gt;Node35</title>
<g id="a_edge40_Node000033_Node000035"><a xlink:title=" ">
<path fill="none" stroke="#63b8ff" d="M1227.7,-55.55C1231.9,-47.91 1237.02,-38.61 1241.48,-30.49"/>
<polygon fill="#63b8ff" stroke="#63b8ff" points="1244.55,-32.18 1246.3,-21.73 1238.41,-28.81 1244.55,-32.18"/>
</a>
</g>
</g>
<!-- Node37&#45;&gt;Node2 -->
<g id="edge49_Node000037_Node000002" class="edge">
<title>Node37&#45;&gt;Node2</title>
<g id="a_edge49_Node000037_Node000002"><a xlink:title=" ">
<path fill="none" stroke="#63b8ff" d="M1687.24,-150.46C1678.72,-152.62 1669.16,-154.66 1660.2,-156 1358.62,-200.97 988.48,-202.18 870.83,-201.38"/>
<polygon fill="#63b8ff" stroke="#63b8ff" points="871.15,-197.89 861.12,-201.31 871.1,-204.89 871.15,-197.89"/>
</a>
</g>
</g>
<!-- Node37&#45;&gt;Node16 -->
<g id="edge47_Node000037_Node000016" class="edge">
<title>Node37&#45;&gt;Node16</title>
<g id="a_edge47_Node000037_Node000016"><a xlink:title=" ">
<path fill="none" stroke="#63b8ff" d="M1702.89,-129.54C1692.85,-119.35 1676.65,-102.9 1664.31,-90.37"/>
<polygon fill="#63b8ff" stroke="#63b8ff" points="1667.07,-88.19 1657.56,-83.52 1662.08,-93.1 1667.07,-88.19"/>
</a>
</g>
</g>
<!-- Node37&#45;&gt;Node24 -->
<g id="edge46_Node000037_Node000024" class="edge">
<title>Node37&#45;&gt;Node24</title>
<g id="a_edge46_Node000037_Node000024"><a xlink:title=" ">
<path fill="none" stroke="#63b8ff" d="M1721.52,-129.54C1731.56,-119.35 1747.75,-102.9 1760.1,-90.37"/>
<polygon fill="#63b8ff" stroke="#63b8ff" points="1762.32,-93.1 1766.85,-83.52 1757.33,-88.19 1762.32,-93.1"/>
</a>
</g>
</g>
<!-- Node38 -->
<g id="Node000038" class="node">
<title>Node38</title>
<g id="a_Node000038"><a xlink:title=" ">
<polygon fill="#e0e0e0" stroke="#999999" points="1736.33,-82 1688.08,-82 1688.08,-62 1736.33,-62 1736.33,-82"/>
<text xml:space="preserve" text-anchor="middle" x="1712.2" y="-70.4" font-family="SourceSans" font-size="8.00">unistd.h</text>
</a>
</g>
</g>
<!-- Node37&#45;&gt;Node38 -->
<g id="edge48_Node000037_Node000038" class="edge">
<title>Node37&#45;&gt;Node38</title>
<g id="a_edge48_Node000037_Node000038"><a xlink:title=" ">
<path fill="none" stroke="#63b8ff" d="M1712.2,-129.54C1712.2,-120.23 1712.2,-105.7 1712.2,-93.7"/>
<polygon fill="#63b8ff" stroke="#63b8ff" points="1715.7,-93.95 1712.2,-83.95 1708.7,-93.95 1715.7,-93.95"/>
</a>
</g>
</g>
</g>
</svg>

<g id="navigator" transform="translate(0 0)" fill="#404254">
  <rect fill="#f2f5e9" fill-opacity="0.5" stroke="#606060" stroke-width=".5" x="0" y="0" width="60" height="60"/>
  <use id="zoomplus" xlink:href="#zoomPlus" x="17" y="9" onmousedown="handleZoom(evt,'in')"/>
  <use id="zoomminus" xlink:href="#zoomMin" x="42" y="9" onmousedown="handleZoom(evt,'out')"/>
  <use id="reset" xlink:href="#resetDef" x="30" y="36" onmousedown="handleReset()"/>
   <use id="arrowup" xlink:href="#arrowUp" x="0" y="0" onmousedown="handlePan(0,-1)"/>
  <use id="arrowright" xlink:href="#arrowRight" x="0" y="0" onmousedown="handlePan(1,0)"/>
  <use id="arrowdown" xlink:href="#arrowDown" x="0" y="0" onmousedown="handlePan(0,1)"/>
  <use id="arrowleft" xlink:href="#arrowLeft" x="0" y="0" onmousedown="handlePan(-1,0)"/>
</g>
<svg viewBox="0 0 15 15" width="100%" height="30px" preserveAspectRatio="xMaxYMin meet">
 <g id="arrow_out" transform="scale(0.3 0.3)">
  <a xlink:href="izzi-json-basics_8h__incl_org.svg" target="_base">
   <rect id="button" ry="5" rx="5" y="6" x="6" height="38" width="38"
        fill="#f2f5e9" fill-opacity="0.5" stroke="#606060" stroke-width="1.0"/>
   <path id="arrow"
     d="M 11.500037,31.436501 C 11.940474,20.09759 22.043105,11.32322 32.158766,21.979434 L 37.068811,17.246167 C 37.068811,17.246167 37.088388,32 37.088388,32 L 22.160133,31.978069 C 22.160133,31.978069 26.997745,27.140456 26.997745,27.140456 C 18.528582,18.264221 13.291696,25.230495 11.500037,31.436501 z"
     style="fill:#404040;"/>
  </a>
 </g>
</svg>

<style type='text/css'>
<![CDATA[
[data-mouse-over-selected='false'] { opacity: 0.7; }
[data-mouse-over-selected='true']  { opacity: 1.0; }
]]>
</style>
<script type="application/ecmascript"><![CDATA[
document.addEventListener('DOMContentLoaded', (event) => {
  highlightEdges();
  highlightAdjacentNodes();
});
]]></script>
</svg>
