<?xml version="1.0" encoding="UTF-8" standalone="no"?>
<!DOCTYPE svg PUBLIC "-//W3C//DTD SVG 1.1//EN"
 "http://www.w3.org/Graphics/SVG/1.1/DTD/svg11.dtd">
<!-- Generated by graphviz version 12.2.1 (20241206.2353)
 -->
<!-- Title: clusterPoints Pages: 1 -->
<!--zoomable 286 -->

<svg id="main" version="1.1" xmlns="http://www.w3.org/2000/svg" xmlns:xlink="http://www.w3.org/1999/xlink" xml:space="preserve" onload="init(evt)">

<style type="text/css"><![CDATA[
.node, .edge {opacity: 0.7;}
.node.selected, .edge.selected {opacity: 1;}
.edge:hover path { stroke: red; }
.edge:hover polygon { stroke: red; fill: red; }
]]></style>

<defs>
  <circle id="rim" cx="0" cy="0" r="7"/>
  <circle id="rim2" cx="0" cy="0" r="3.5"/>
  <g id="zoomPlus">
    <use xlink:href="#rim" fill="#404040"><set attributeName="fill" to="#808080" begin="zoomplus.mouseover" end="zoomplus.mouseout"/></use>
    <path d="M-4,0h8M0,-4v8" fill="none" stroke="white" stroke-width="1.5" pointer-events="none"/>
  </g>
  <g id="zoomMin">
    <use xlink:href="#rim" fill="#404040"><set attributeName="fill" to="#808080" begin="zoomminus.mouseover" end="zoomminus.mouseout"/></use>
    <path d="M-4,0h8" fill="none" stroke="white" stroke-width="1.5" pointer-events="none"/>
  </g>
  <g id="arrowUp" transform="translate(30 24)">
    <use xlink:href="#rim"/>
    <path pointer-events="none" fill="none" stroke="white" stroke-width="1.5" d="M0,-3.0v7 M-2.5,-0.5L0,-3.0L2.5,-0.5"/>
  </g>
  <g id="arrowRight" transform="rotate(90) translate(36 -43)">
    <use xlink:href="#rim"/>
    <path pointer-events="none" fill="none" stroke="white" stroke-width="1.5" d="M0,-3.0v7 M-2.5,-0.5L0,-3.0L2.5,-0.5"/>
  </g>
  <g id="arrowDown" transform="rotate(180) translate(-30 -48)">
    <use xlink:href="#rim"/>
    <path pointer-events="none" fill="none" stroke="white" stroke-width="1.5" d="M0,-3.0v7 M-2.5,-0.5L0,-3.0L2.5,-0.5"/>
  </g>
  <g id="arrowLeft" transform="rotate(270) translate(-36 17)">
    <use xlink:href="#rim"/>
    <path pointer-events="none" fill="none" stroke="white" stroke-width="1.5" d="M0,-3.0v7 M-2.5,-0.5L0,-3.0L2.5,-0.5"/>
  </g>
  <g id="resetDef">
    <use xlink:href="#rim2" fill="#404040"><set attributeName="fill" to="#808080" begin="reset.mouseover" end="reset.mouseout"/></use>
  </g>
</defs>
<script type="application/ecmascript">
var viewWidth = 539;
var viewHeight = 286;
var sectionId = 'dynsection-1';
</script>
<script type="application/ecmascript" xlink:href="svg.min.js"/>
<svg id="graph" class="graph">
<g id="viewport">
<title>clusterPoints</title>
<!-- Node1 -->
<g id="Node000001" class="node">
<title>Node1</title>
<g id="a_Node000001"><a xlink:title=" ">
<polygon fill="#999999" stroke="#666666" points="67.75,-81.75 0,-81.75 0,-64 67.75,-64 67.75,-81.75"/>
<text text-anchor="middle" x="33.88" y="-70.15" font-family="SourceSans" font-size="8.00">clusterPoints</text>
</a>
</g>
</g>
<!-- Node2 -->
<g id="Node000002" class="node">
<title>Node2</title>
<g id="a_Node000002"><a xlink:href="classpoint__cluster.html#accf6288c5038a60411e9f1c318df3592" target="_top" xlink:title="Algorithm 3: K&#45;Means Inspired with Distance Constraint.">
<polygon fill="white" stroke="#666666" points="223.25,-109.62 115,-109.62 115,-82.12 223.25,-82.12 223.25,-109.62"/>
<text text-anchor="start" x="123" y="-98.03" font-family="SourceSans" font-size="8.00">point_cluster::reduce</text>
<text text-anchor="middle" x="169.12" y="-88.28" font-family="SourceSans" font-size="8.00">_constrained_k_means</text>
</a>
</g>
</g>
<!-- Node1&#45;&gt;Node2 -->
<g id="edge1_Node000001_Node000002" class="edge">
<title>Node1&#45;&gt;Node2</title>
<g id="a_edge1_Node000001_Node000002"><a xlink:title=" ">
<path fill="none" stroke="#63b8ff" d="M68.16,-78.62C78.9,-80.47 91.2,-82.6 103.41,-84.7"/>
<polygon fill="#63b8ff" stroke="#63b8ff" points="102.61,-88.12 113.06,-86.37 103.81,-81.22 102.61,-88.12"/>
</a>
</g>
</g>
<!-- Node6 -->
<g id="Node000006" class="node">
<title>Node6</title>
<g id="a_Node000006"><a xlink:href="classpoint__cluster.html#a3d8f664f29887dd9788e712a2a8c4a61" target="_top" xlink:title="Algorithm 1: Grid&#45;based Clustering (Simple and Fast)">
<polygon fill="white" stroke="#666666" points="230,-17.75 108.25,-17.75 108.25,0 230,0 230,-17.75"/>
<text text-anchor="middle" x="169.12" y="-6.15" font-family="SourceSans" font-size="8.00">point_cluster::reduce_grid</text>
</a>
</g>
</g>
<!-- Node1&#45;&gt;Node6 -->
<g id="edge6_Node000001_Node000006" class="edge">
<title>Node1&#45;&gt;Node6</title>
<g id="a_edge6_Node000001_Node000006"><a xlink:title=" ">
<path fill="none" stroke="#63b8ff" d="M46.39,-63.51C59.54,-53.22 82.06,-36.84 103.75,-26.88 107.79,-25.02 112.06,-23.32 116.4,-21.76"/>
<polygon fill="#63b8ff" stroke="#63b8ff" points="117.4,-25.12 125.81,-18.67 115.22,-18.47 117.4,-25.12"/>
</a>
</g>
</g>
<!-- Node7 -->
<g id="Node000007" class="node">
<title>Node7</title>
<g id="a_Node000007"><a xlink:href="classpoint__cluster.html#aa3a4c141e84c1ae8f86068d335192681" target="_top" xlink:title="Algorithm 2: Hierarchical Agglomerative Clustering (More Accurate)">
<polygon fill="white" stroke="#666666" points="234.5,-63.62 103.75,-63.62 103.75,-36.12 234.5,-36.12 234.5,-63.62"/>
<text text-anchor="start" x="111.75" y="-52.02" font-family="SourceSans" font-size="8.00">point_cluster::reduce</text>
<text text-anchor="middle" x="169.12" y="-42.27" font-family="SourceSans" font-size="8.00">_hierarchical_agglomerative</text>
</a>
</g>
</g>
<!-- Node1&#45;&gt;Node7 -->
<g id="edge8_Node000001_Node000007" class="edge">
<title>Node1&#45;&gt;Node7</title>
<g id="a_edge8_Node000001_Node000007"><a xlink:title=" ">
<path fill="none" stroke="#63b8ff" d="M68.16,-67.13C75.61,-65.84 83.81,-64.43 92.21,-62.98"/>
<polygon fill="#63b8ff" stroke="#63b8ff" points="92.57,-66.47 101.83,-61.32 91.38,-59.57 92.57,-66.47"/>
</a>
</g>
</g>
<!-- Node8 -->
<g id="Node000008" class="node">
<title>Node8</title>
<g id="a_Node000008"><a xlink:href="classpoint__cluster.html#a2784484768b16e7ef43c1120ccab3a25" target="_top" xlink:title="Algorithm 4: Voronoi&#45;Based Clustering with Radius Constraint.">
<polygon fill="white" stroke="#666666" points="220.25,-193.62 118,-193.62 118,-166.12 220.25,-166.12 220.25,-193.62"/>
<text text-anchor="start" x="126" y="-182.03" font-family="SourceSans" font-size="8.00">point_cluster::reduce</text>
<text text-anchor="middle" x="169.12" y="-172.28" font-family="SourceSans" font-size="8.00">_voronoi</text>
</a>
</g>
</g>
<!-- Node1&#45;&gt;Node8 -->
<g id="edge10_Node000001_Node000008" class="edge">
<title>Node1&#45;&gt;Node8</title>
<g id="a_edge10_Node000001_Node000008"><a xlink:title=" ">
<path fill="none" stroke="#63b8ff" d="M46.24,-82C67.25,-98.87 112.69,-135.36 141.76,-158.7"/>
<polygon fill="#63b8ff" stroke="#63b8ff" points="139.4,-161.3 149.39,-164.83 143.79,-155.84 139.4,-161.3"/>
</a>
</g>
</g>
<!-- Node3 -->
<g id="Node000003" class="node">
<title>Node3</title>
<g id="a_Node000003"><a xlink:href="classpoint__cluster.html#ab4a7d615782702bf72eae4d7496fb1a4" target="_top" xlink:title=" ">
<polygon fill="white" stroke="#666666" points="531.25,-149.62 419.25,-149.62 419.25,-122.12 531.25,-122.12 531.25,-149.62"/>
<text text-anchor="start" x="427.25" y="-138.03" font-family="SourceSans" font-size="8.00">point_cluster::calculate</text>
<text text-anchor="middle" x="475.25" y="-128.28" font-family="SourceSans" font-size="8.00">_centroid</text>
</a>
</g>
</g>
<!-- Node2&#45;&gt;Node3 -->
<g id="edge2_Node000002_Node000003" class="edge">
<title>Node2&#45;&gt;Node3</title>
<g id="a_edge2_Node000002_Node000003"><a xlink:title=" ">
<path fill="none" stroke="#63b8ff" d="M223.46,-96.71C266.78,-98.09 329.32,-101.66 383.25,-110.88 394.75,-112.84 406.9,-115.65 418.44,-118.68"/>
<polygon fill="#63b8ff" stroke="#63b8ff" points="417.26,-121.98 427.82,-121.23 419.1,-115.23 417.26,-121.98"/>
</a>
</g>
</g>
<!-- Node4 -->
<g id="Node000004" class="node">
<title>Node4</title>
<g id="a_Node000004"><a xlink:href="classpoint__cluster.html#a5400683736645ec67b9f09c6bff8e2ed" target="_top" xlink:title=" ">
<polygon fill="white" stroke="#666666" points="381.38,-147.62 272.38,-147.62 272.38,-120.12 381.38,-120.12 381.38,-147.62"/>
<text text-anchor="start" x="280.38" y="-136.03" font-family="SourceSans" font-size="8.00">point_cluster::initialize</text>
<text text-anchor="middle" x="326.88" y="-126.28" font-family="SourceSans" font-size="8.00">_centroids</text>
</a>
</g>
</g>
<!-- Node2&#45;&gt;Node4 -->
<g id="edge3_Node000002_Node000004" class="edge">
<title>Node2&#45;&gt;Node4</title>
<g id="a_edge3_Node000002_Node000004"><a xlink:title=" ">
<path fill="none" stroke="#63b8ff" d="M223.73,-108.95C235.65,-111.86 248.42,-114.98 260.75,-117.99"/>
<polygon fill="#63b8ff" stroke="#63b8ff" points="259.9,-121.38 270.44,-120.35 261.56,-114.58 259.9,-121.38"/>
</a>
</g>
</g>
<!-- Node5 -->
<g id="Node000005" class="node">
<title>Node5</title>
<g id="a_Node000005"><a xlink:href="classpoint__cluster.html#a6f85cdf1cd6edfd034d93bff0442f2d2" target="_top" xlink:title=" ">
<polygon fill="white" stroke="#666666" points="376.5,-63.62 277.25,-63.62 277.25,-36.12 376.5,-36.12 376.5,-63.62"/>
<text text-anchor="start" x="285.25" y="-52.02" font-family="SourceSans" font-size="8.00">point_cluster::weigh</text>
<text text-anchor="middle" x="326.88" y="-42.27" font-family="SourceSans" font-size="8.00">_cluster</text>
</a>
</g>
</g>
<!-- Node2&#45;&gt;Node5 -->
<g id="edge4_Node000002_Node000005" class="edge">
<title>Node2&#45;&gt;Node5</title>
<g id="a_edge4_Node000002_Node000005"><a xlink:title=" ">
<path fill="none" stroke="#63b8ff" d="M218.13,-81.7C233.52,-77.15 250.75,-72.06 266.84,-67.31"/>
<polygon fill="#63b8ff" stroke="#63b8ff" points="267.71,-70.7 276.31,-64.51 265.73,-63.99 267.71,-70.7"/>
</a>
</g>
</g>
<!-- Node5&#45;&gt;Node3 -->
<g id="edge5_Node000005_Node000003" class="edge">
<title>Node5&#45;&gt;Node3</title>
<g id="a_edge5_Node000005_Node000003"><a xlink:title=" ">
<path fill="none" stroke="#63b8ff" d="M357.19,-64.02C365.69,-68.3 374.92,-73.13 383.25,-77.88 403.99,-89.69 426.63,-104.11 444.13,-115.62"/>
<polygon fill="#63b8ff" stroke="#63b8ff" points="441.75,-118.24 452.03,-120.84 445.62,-112.4 441.75,-118.24"/>
</a>
</g>
</g>
<!-- Node6&#45;&gt;Node3 -->
<g id="edge7_Node000006_Node000003" class="edge">
<title>Node6&#45;&gt;Node3</title>
<g id="a_edge7_Node000006_Node000003"><a xlink:title=" ">
<path fill="none" stroke="#63b8ff" d="M230.04,-2C274.74,0.4 335.98,-2.28 383.25,-26.88 419.58,-45.77 447.08,-86.04 461.91,-111.99"/>
<polygon fill="#63b8ff" stroke="#63b8ff" points="458.69,-113.4 466.58,-120.48 464.82,-110.03 458.69,-113.4"/>
</a>
</g>
</g>
<!-- Node7&#45;&gt;Node5 -->
<g id="edge9_Node000007_Node000005" class="edge">
<title>Node7&#45;&gt;Node5</title>
<g id="a_edge9_Node000007_Node000005"><a xlink:title=" ">
<path fill="none" stroke="#63b8ff" d="M234.82,-49.88C244.92,-49.88 255.31,-49.88 265.31,-49.88"/>
<polygon fill="#63b8ff" stroke="#63b8ff" points="265.3,-53.38 275.3,-49.88 265.3,-46.38 265.3,-53.38"/>
</a>
</g>
</g>
<!-- Node8&#45;&gt;Node3 -->
<g id="edge11_Node000008_Node000003" class="edge">
<title>Node8&#45;&gt;Node3</title>
<g id="a_edge11_Node000008_Node000003"><a xlink:title=" ">
<path fill="none" stroke="#63b8ff" d="M210.45,-194.03C254.11,-207.12 325.26,-221.92 383.25,-202.88 410.23,-194.01 435.8,-173.75 452.92,-157.81"/>
<polygon fill="#63b8ff" stroke="#63b8ff" points="455.21,-160.47 459.98,-151.01 450.35,-155.43 455.21,-160.47"/>
</a>
</g>
</g>
<!-- Node8&#45;&gt;Node4 -->
<g id="edge15_Node000008_Node000004" class="edge">
<title>Node8&#45;&gt;Node4</title>
<g id="a_edge15_Node000008_Node000004"><a xlink:title=" ">
<path fill="none" stroke="#63b8ff" d="M218.13,-165.7C233.52,-161.15 250.75,-156.06 266.84,-151.31"/>
<polygon fill="#63b8ff" stroke="#63b8ff" points="267.71,-154.7 276.31,-148.51 265.73,-147.99 267.71,-154.7"/>
</a>
</g>
</g>
<!-- Node9 -->
<g id="Node000009" class="node">
<title>Node9</title>
<g id="a_Node000009"><a xlink:href="classpoint__cluster.html#a8b681b7eab0b49923d8138782f2d707a" target="_top" xlink:title=" ">
<polygon fill="white" stroke="#666666" points="383.25,-277.62 270.5,-277.62 270.5,-250.12 383.25,-250.12 383.25,-277.62"/>
<text text-anchor="start" x="278.5" y="-266.02" font-family="SourceSans" font-size="8.00">point_cluster::constrain</text>
<text text-anchor="middle" x="326.88" y="-256.27" font-family="SourceSans" font-size="8.00">_voronoi_clusters</text>
</a>
</g>
</g>
<!-- Node8&#45;&gt;Node9 -->
<g id="edge12_Node000008_Node000009" class="edge">
<title>Node8&#45;&gt;Node9</title>
<g id="a_edge12_Node000008_Node000009"><a xlink:title=" ">
<path fill="none" stroke="#63b8ff" d="M194.72,-193.97C214.95,-205.46 244.42,-222.01 270.5,-235.88 275.91,-238.75 281.65,-241.73 287.31,-244.63"/>
<polygon fill="#63b8ff" stroke="#63b8ff" points="285.46,-247.61 295.96,-249.02 288.63,-241.37 285.46,-247.61"/>
</a>
</g>
</g>
<!-- Node11 -->
<g id="Node000011" class="node">
<title>Node11</title>
<g id="a_Node000011"><a xlink:href="classpoint__cluster.html#add0cd2c5531cc62ceb5fb13b31d7075f" target="_top" xlink:title=" ">
<polygon fill="white" stroke="#666666" points="377.25,-193.62 276.5,-193.62 276.5,-166.12 377.25,-166.12 377.25,-193.62"/>
<text text-anchor="start" x="284.5" y="-182.03" font-family="SourceSans" font-size="8.00">point_cluster::merge</text>
<text text-anchor="middle" x="326.88" y="-172.28" font-family="SourceSans" font-size="8.00">_close_sites</text>
</a>
</g>
</g>
<!-- Node8&#45;&gt;Node11 -->
<g id="edge16_Node000008_Node000011" class="edge">
<title>Node8&#45;&gt;Node11</title>
<g id="a_edge16_Node000008_Node000011"><a xlink:title=" ">
<path fill="none" stroke="#63b8ff" d="M220.69,-179.88C234.71,-179.88 250.08,-179.88 264.64,-179.88"/>
<polygon fill="#63b8ff" stroke="#63b8ff" points="264.58,-183.38 274.58,-179.88 264.58,-176.38 264.58,-183.38"/>
</a>
</g>
</g>
<!-- Node9&#45;&gt;Node3 -->
<g id="edge13_Node000009_Node000003" class="edge">
<title>Node9&#45;&gt;Node3</title>
<g id="a_edge13_Node000009_Node000003"><a xlink:title=" ">
<path fill="none" stroke="#63b8ff" d="M360.68,-249.77C368.41,-245.78 376.39,-241.09 383.25,-235.88 412.71,-213.47 440.4,-180.73 457.32,-158.88"/>
<polygon fill="#63b8ff" stroke="#63b8ff" points="459.92,-161.25 463.19,-151.18 454.35,-157.02 459.92,-161.25"/>
</a>
</g>
</g>
<!-- Node10 -->
<g id="Node000010" class="node">
<title>Node10</title>
<g id="a_Node000010"><a xlink:href="classpoint__cluster.html#a79c6118d0deb835a0c9f0aa96642ba96" target="_top" xlink:title=" ">
<polygon fill="white" stroke="#666666" points="521.12,-277.62 429.38,-277.62 429.38,-250.12 521.12,-250.12 521.12,-277.62"/>
<text text-anchor="start" x="437.38" y="-266.02" font-family="SourceSans" font-size="8.00">point_cluster::split</text>
<text text-anchor="middle" x="475.25" y="-256.27" font-family="SourceSans" font-size="8.00">_large_cell</text>
</a>
</g>
</g>
<!-- Node9&#45;&gt;Node10 -->
<g id="edge14_Node000009_Node000010" class="edge">
<title>Node9&#45;&gt;Node10</title>
<g id="a_edge14_Node000009_Node000010"><a xlink:title=" ">
<path fill="none" stroke="#63b8ff" d="M383.63,-263.88C394.78,-263.88 406.51,-263.88 417.69,-263.88"/>
<polygon fill="#63b8ff" stroke="#63b8ff" points="417.58,-267.38 427.58,-263.88 417.58,-260.38 417.58,-267.38"/>
</a>
</g>
</g>
<!-- Node11&#45;&gt;Node3 -->
<g id="edge17_Node000011_Node000003" class="edge">
<title>Node11&#45;&gt;Node3</title>
<g id="a_edge17_Node000011_Node000003"><a xlink:title=" ">
<path fill="none" stroke="#63b8ff" d="M374.99,-165.71C388.12,-161.77 402.53,-157.43 416.2,-153.32"/>
<polygon fill="#63b8ff" stroke="#63b8ff" points="416.95,-156.75 425.52,-150.52 414.93,-150.05 416.95,-156.75"/>
</a>
</g>
</g>
</g>
</svg>

<g id="navigator" transform="translate(0 0)" fill="#404254">
  <rect fill="#f2f5e9" fill-opacity="0.5" stroke="#606060" stroke-width=".5" x="0" y="0" width="60" height="60"/>
  <use id="zoomplus" xlink:href="#zoomPlus" x="17" y="9" onmousedown="handleZoom(evt,'in')"/>
  <use id="zoomminus" xlink:href="#zoomMin" x="42" y="9" onmousedown="handleZoom(evt,'out')"/>
  <use id="reset" xlink:href="#resetDef" x="30" y="36" onmousedown="handleReset()"/>
   <use id="arrowup" xlink:href="#arrowUp" x="0" y="0" onmousedown="handlePan(0,-1)"/>
  <use id="arrowright" xlink:href="#arrowRight" x="0" y="0" onmousedown="handlePan(1,0)"/>
  <use id="arrowdown" xlink:href="#arrowDown" x="0" y="0" onmousedown="handlePan(0,1)"/>
  <use id="arrowleft" xlink:href="#arrowLeft" x="0" y="0" onmousedown="handlePan(-1,0)"/>
</g>
<svg viewBox="0 0 15 15" width="100%" height="30px" preserveAspectRatio="xMaxYMin meet">
 <g id="arrow_out" transform="scale(0.3 0.3)">
  <a xlink:href="izzi-points-cluster_8h_a22b4bf8887d3fb08dd6b916d4c4d29ff_cgraph_org.svg" target="_base">
   <rect id="button" ry="5" rx="5" y="6" x="6" height="38" width="38"
        fill="#f2f5e9" fill-opacity="0.5" stroke="#606060" stroke-width="1.0"/>
   <path id="arrow"
     d="M 11.500037,31.436501 C 11.940474,20.09759 22.043105,11.32322 32.158766,21.979434 L 37.068811,17.246167 C 37.068811,17.246167 37.088388,32 37.088388,32 L 22.160133,31.978069 C 22.160133,31.978069 26.997745,27.140456 26.997745,27.140456 C 18.528582,18.264221 13.291696,25.230495 11.500037,31.436501 z"
     style="fill:#404040;"/>
  </a>
 </g>
</svg>

<style type='text/css'>
<![CDATA[
[data-mouse-over-selected='false'] { opacity: 0.7; }
[data-mouse-over-selected='true']  { opacity: 1.0; }
]]>
</style>
<script type="application/ecmascript"><![CDATA[
document.addEventListener('DOMContentLoaded', (event) => {
  highlightEdges();
  highlightAdjacentNodes();
});
]]></script>
</svg>
