<?xml version="1.0" encoding="UTF-8" standalone="no"?>
<!DOCTYPE svg PUBLIC "-//W3C//DTD SVG 1.1//EN"
 "http://www.w3.org/Graphics/SVG/1.1/DTD/svg11.dtd">
<!-- Generated by graphviz version 13.1.2 (20250808.2320)
 -->
<!-- Title: svg::text_line_n Pages: 1 -->
<svg width="606pt" height="327pt"
 viewBox="0.00 0.00 606.00 327.00" xmlns="http://www.w3.org/2000/svg" xmlns:xlink="http://www.w3.org/1999/xlink">
<g id="graph0" class="graph" transform="scale(1 1) rotate(0) translate(4 323)">
<title>svg::text_line_n</title>
<!-- Node1 -->
<g id="Node000001" class="node">
<title>Node1</title>
<g id="a_Node000001"><a xlink:title="Text of maxlen length, overflow goes on line below.">
<polygon fill="#999999" stroke="#666666" points="75.25,-101 0,-101 0,-81 75.25,-81 75.25,-101"/>
<text xml:space="preserve" text-anchor="middle" x="37.62" y="-89.4" font-family="SourceSans" font-size="8.00">svg::text_line_n</text>
</a>
</g>
</g>
<!-- Node2 -->
<g id="Node000002" class="node">
<title>Node2</title>
<g id="a_Node000002"><a xlink:href="namespacesvg.html#aba9f46c82a468e5594eedb3b4ff14f9e" target="_top" xlink:title="Text at size.">
<polygon fill="white" stroke="#666666" points="182.75,-101 111.25,-101 111.25,-81 182.75,-81 182.75,-101"/>
<text xml:space="preserve" text-anchor="middle" x="147" y="-89.4" font-family="SourceSans" font-size="8.00">svg::sized_text</text>
</a>
</g>
</g>
<!-- Node1&#45;&gt;Node2 -->
<g id="edge1_Node000001_Node000002" class="edge">
<title>Node1&#45;&gt;Node2</title>
<g id="a_edge1_Node000001_Node000002"><a xlink:title=" ">
<path fill="none" stroke="#63b8ff" d="M75.58,-91C83.24,-91 91.41,-91 99.37,-91"/>
<polygon fill="#63b8ff" stroke="#63b8ff" points="99.28,-94.5 109.28,-91 99.28,-87.5 99.28,-94.5"/>
</a>
</g>
</g>
<!-- Node3 -->
<g id="Node000003" class="node">
<title>Node3</title>
<g id="a_Node000003"><a xlink:href="group__elements.html#aad29e1daf75bdcd69a39575a6807fa0f" target="_top" xlink:title="Either serialize immediately (as below), or create data structure that adds data to data_vec and then...">
<polygon fill="white" stroke="#666666" points="308.25,-215 220.25,-215 220.25,-183 308.25,-183 308.25,-215"/>
<text xml:space="preserve" text-anchor="start" x="228.25" y="-203.4" font-family="SourceSans" font-size="8.00">svg::text_element::</text>
<text xml:space="preserve" text-anchor="middle" x="264.25" y="-191.4" font-family="SourceSans" font-size="8.00">add_data</text>
</a>
</g>
</g>
<!-- Node2&#45;&gt;Node3 -->
<g id="edge2_Node000002_Node000003" class="edge">
<title>Node2&#45;&gt;Node3</title>
<g id="a_edge2_Node000002_Node000003"><a xlink:title=" ">
<path fill="none" stroke="#63b8ff" d="M159.05,-101.36C176.99,-118.17 212.93,-151.84 237.53,-174.9"/>
<polygon fill="#63b8ff" stroke="#63b8ff" points="234.92,-177.25 244.61,-181.53 239.7,-172.14 234.92,-177.25"/>
</a>
</g>
</g>
<!-- Node11 -->
<g id="Node000011" class="node">
<title>Node11</title>
<g id="a_Node000011"><a xlink:href="group__elements.html#ada0333b46b2547c6152f3f5811016a12" target="_top" xlink:title=" ">
<polygon fill="white" stroke="#666666" points="309.75,-132 218.75,-132 218.75,-100 309.75,-100 309.75,-132"/>
<text xml:space="preserve" text-anchor="start" x="226.75" y="-120.4" font-family="SourceSans" font-size="8.00">svg::element_base::</text>
<text xml:space="preserve" text-anchor="middle" x="264.25" y="-108.4" font-family="SourceSans" font-size="8.00">add_element</text>
</a>
</g>
</g>
<!-- Node2&#45;&gt;Node11 -->
<g id="edge12_Node000002_Node000011" class="edge">
<title>Node2&#45;&gt;Node11</title>
<g id="a_edge12_Node000002_Node000011"><a xlink:title=" ">
<path fill="none" stroke="#63b8ff" d="M183.21,-98.64C190.85,-100.3 199.12,-102.09 207.34,-103.87"/>
<polygon fill="#63b8ff" stroke="#63b8ff" points="206.47,-107.26 216.99,-105.96 207.95,-100.42 206.47,-107.26"/>
</a>
</g>
</g>
<!-- Node13 -->
<g id="Node000013" class="node">
<title>Node13</title>
<g id="a_Node000013"><a xlink:href="group__elements.html#ga13c46848317034d16c62a7d2061ba3d6" target="_top" xlink:title=" ">
<polygon fill="white" stroke="#666666" points="308.25,-82 220.25,-82 220.25,-50 308.25,-50 308.25,-82"/>
<text xml:space="preserve" text-anchor="start" x="228.25" y="-70.4" font-family="SourceSans" font-size="8.00">svg::text_element::</text>
<text xml:space="preserve" text-anchor="middle" x="264.25" y="-58.4" font-family="SourceSans" font-size="8.00">finish_element</text>
</a>
</g>
</g>
<!-- Node2&#45;&gt;Node13 -->
<g id="edge14_Node000002_Node000013" class="edge">
<title>Node2&#45;&gt;Node13</title>
<g id="a_edge14_Node000002_Node000013"><a xlink:title=" ">
<path fill="none" stroke="#63b8ff" d="M183.21,-83.36C191.4,-81.59 200.3,-79.65 209.1,-77.75"/>
<polygon fill="#63b8ff" stroke="#63b8ff" points="209.62,-81.21 218.65,-75.67 208.14,-74.37 209.62,-81.21"/>
</a>
</g>
</g>
<!-- Node14 -->
<g id="Node000014" class="node">
<title>Node14</title>
<g id="a_Node000014"><a xlink:href="group__elements.html#ae45bec611a6ec17ea46aab6d680ae042" target="_top" xlink:title=" ">
<polygon fill="white" stroke="#666666" points="308.25,-32 220.25,-32 220.25,0 308.25,0 308.25,-32"/>
<text xml:space="preserve" text-anchor="start" x="228.25" y="-20.4" font-family="SourceSans" font-size="8.00">svg::text_element::</text>
<text xml:space="preserve" text-anchor="middle" x="264.25" y="-8.4" font-family="SourceSans" font-size="8.00">start_element</text>
</a>
</g>
</g>
<!-- Node2&#45;&gt;Node14 -->
<g id="edge15_Node000002_Node000014" class="edge">
<title>Node2&#45;&gt;Node14</title>
<g id="a_edge15_Node000002_Node000014"><a xlink:title=" ">
<path fill="none" stroke="#63b8ff" d="M161.8,-80.6C175.86,-70.17 198.41,-53.86 218.75,-41 220.35,-39.99 221.99,-38.98 223.65,-37.97"/>
<polygon fill="#63b8ff" stroke="#63b8ff" points="225.18,-41.12 232.01,-33.02 221.62,-35.1 225.18,-41.12"/>
</a>
</g>
</g>
<!-- Node4 -->
<g id="Node000004" class="node">
<title>Node4</title>
<g id="a_Node000004"><a xlink:href="structsvg_1_1typography.html#adbc62f74f1fed3f7c77567250f084f83" target="_top" xlink:title=" ">
<polygon fill="white" stroke="#666666" points="444.25,-281 348,-281 348,-249 444.25,-249 444.25,-281"/>
<text xml:space="preserve" text-anchor="start" x="356" y="-269.4" font-family="SourceSans" font-size="8.00">svg::typography::add</text>
<text xml:space="preserve" text-anchor="middle" x="396.12" y="-257.4" font-family="SourceSans" font-size="8.00">_attribute</text>
</a>
</g>
</g>
<!-- Node3&#45;&gt;Node4 -->
<g id="edge3_Node000003_Node000004" class="edge">
<title>Node3&#45;&gt;Node4</title>
<g id="a_edge3_Node000003_Node000004"><a xlink:title=" ">
<path fill="none" stroke="#63b8ff" d="M297.69,-215.48C314.39,-223.97 334.97,-234.43 352.9,-243.54"/>
<polygon fill="#63b8ff" stroke="#63b8ff" points="351.25,-246.63 361.75,-248.04 354.42,-240.39 351.25,-246.63"/>
</a>
</g>
</g>
<!-- Node5 -->
<g id="Node000005" class="node">
<title>Node5</title>
<g id="a_Node000005"><a xlink:href="namespacesvg.html#a48ac748e89e22789d1772326a98dd7b6" target="_top" xlink:title=" ">
<polygon fill="white" stroke="#666666" points="584,-319 496.75,-319 496.75,-299 584,-299 584,-319"/>
<text xml:space="preserve" text-anchor="middle" x="540.38" y="-307.4" font-family="SourceSans" font-size="8.00">svg::string_replace</text>
</a>
</g>
</g>
<!-- Node3&#45;&gt;Node5 -->
<g id="edge10_Node000003_Node000005" class="edge">
<title>Node3&#45;&gt;Node5</title>
<g id="a_edge10_Node000003_Node000005"><a xlink:title=" ">
<path fill="none" stroke="#63b8ff" d="M274.23,-215.16C287.04,-236.44 312.69,-273.12 345.75,-290 388.96,-312.07 444.65,-315.35 485.2,-313.98"/>
<polygon fill="#63b8ff" stroke="#63b8ff" points="485.14,-317.49 494.97,-313.54 484.82,-310.5 485.14,-317.49"/>
</a>
</g>
</g>
<!-- Node6 -->
<g id="Node000006" class="node">
<title>Node6</title>
<g id="a_Node000006"><a xlink:href="namespacesvg.html#a36b1c48ad4601b205790e3772ad0a7b6" target="_top" xlink:title=" ">
<polygon fill="white" stroke="#666666" points="573.88,-231 506.88,-231 506.88,-211 573.88,-211 573.88,-231"/>
<text xml:space="preserve" text-anchor="middle" x="540.38" y="-219.4" font-family="SourceSans" font-size="8.00">svg::to_string</text>
</a>
</g>
</g>
<!-- Node3&#45;&gt;Node6 -->
<g id="edge11_Node000003_Node000006" class="edge">
<title>Node3&#45;&gt;Node6</title>
<g id="a_edge11_Node000003_Node000006"><a xlink:title=" ">
<path fill="none" stroke="#63b8ff" d="M308.69,-202.49C359.67,-206.58 443.75,-213.33 495.1,-217.45"/>
<polygon fill="#63b8ff" stroke="#63b8ff" points="494.71,-220.93 504.96,-218.24 495.27,-213.95 494.71,-220.93"/>
</a>
</g>
</g>
<!-- Node8 -->
<g id="Node000008" class="node">
<title>Node8</title>
<g id="a_Node000008"><a xlink:href="group__elements.html#acafbdd950c6c2639c9d376c3eab696e5" target="_top" xlink:title=" ">
<polygon fill="white" stroke="#666666" points="441.62,-193 350.62,-193 350.62,-161 441.62,-161 441.62,-193"/>
<text xml:space="preserve" text-anchor="start" x="358.62" y="-181.4" font-family="SourceSans" font-size="8.00">svg::element_base::</text>
<text xml:space="preserve" text-anchor="middle" x="396.12" y="-169.4" font-family="SourceSans" font-size="8.00">add_raw</text>
</a>
</g>
</g>
<!-- Node3&#45;&gt;Node8 -->
<g id="edge7_Node000003_Node000008" class="edge">
<title>Node3&#45;&gt;Node8</title>
<g id="a_edge7_Node000003_Node000008"><a xlink:title=" ">
<path fill="none" stroke="#63b8ff" d="M308.5,-191.67C318.25,-190.02 328.75,-188.24 338.95,-186.52"/>
<polygon fill="#63b8ff" stroke="#63b8ff" points="339.52,-189.97 348.8,-184.85 338.35,-183.07 339.52,-189.97"/>
</a>
</g>
</g>
<!-- Node9 -->
<g id="Node000009" class="node">
<title>Node9</title>
<g id="a_Node000009"><a xlink:href="group__elements.html#a53d72a7ff728ad1d4d027254530bcf3d" target="_top" xlink:title=" ">
<polygon fill="white" stroke="#666666" points="441.62,-143 350.62,-143 350.62,-111 441.62,-111 441.62,-143"/>
<text xml:space="preserve" text-anchor="start" x="358.62" y="-131.4" font-family="SourceSans" font-size="8.00">svg::element_base::</text>
<text xml:space="preserve" text-anchor="middle" x="396.12" y="-119.4" font-family="SourceSans" font-size="8.00">add_transform</text>
</a>
</g>
</g>
<!-- Node3&#45;&gt;Node9 -->
<g id="edge8_Node000003_Node000009" class="edge">
<title>Node3&#45;&gt;Node9</title>
<g id="a_edge8_Node000003_Node000009"><a xlink:title=" ">
<path fill="none" stroke="#63b8ff" d="M292.22,-182.71C307.75,-173.47 327.7,-161.83 345.75,-152 347.79,-150.89 349.89,-149.76 352.02,-148.63"/>
<polygon fill="#63b8ff" stroke="#63b8ff" points="353.46,-151.83 360.71,-144.1 350.22,-145.62 353.46,-151.83"/>
</a>
</g>
</g>
<!-- Node4&#45;&gt;Node5 -->
<g id="edge4_Node000004_Node000005" class="edge">
<title>Node4&#45;&gt;Node5</title>
<g id="a_edge4_Node000004_Node000005"><a xlink:title=" ">
<path fill="none" stroke="#63b8ff" d="M444.49,-279.65C460.78,-284.69 478.94,-290.31 494.98,-295.27"/>
<polygon fill="#63b8ff" stroke="#63b8ff" points="493.66,-298.52 504.25,-298.14 495.73,-291.84 493.66,-298.52"/>
</a>
</g>
</g>
<!-- Node4&#45;&gt;Node6 -->
<g id="edge5_Node000004_Node000006" class="edge">
<title>Node4&#45;&gt;Node6</title>
<g id="a_edge5_Node000004_Node000006"><a xlink:title=" ">
<path fill="none" stroke="#63b8ff" d="M444.49,-250.35C461.04,-245.23 479.53,-239.51 495.76,-234.49"/>
<polygon fill="#63b8ff" stroke="#63b8ff" points="496.61,-237.89 505.13,-231.59 494.54,-231.2 496.61,-237.89"/>
</a>
</g>
</g>
<!-- Node7 -->
<g id="Node000007" class="node">
<title>Node7</title>
<g id="a_Node000007"><a xlink:href="structsvg_1_1typography.html#a174c1ffb4e56214d71523ffe7e422561" target="_top" xlink:title=" ">
<polygon fill="white" stroke="#666666" points="584.75,-281 496,-281 496,-249 584.75,-249 584.75,-281"/>
<text xml:space="preserve" text-anchor="start" x="504" y="-269.4" font-family="SourceSans" font-size="8.00">svg::typography::to</text>
<text xml:space="preserve" text-anchor="middle" x="540.38" y="-257.4" font-family="SourceSans" font-size="8.00">_string</text>
</a>
</g>
</g>
<!-- Node4&#45;&gt;Node7 -->
<g id="edge6_Node000004_Node000007" class="edge">
<title>Node4&#45;&gt;Node7</title>
<g id="a_edge6_Node000004_Node000007"><a xlink:title=" ">
<path fill="none" stroke="#63b8ff" d="M444.49,-265C457.24,-265 471.15,-265 484.28,-265"/>
<polygon fill="#63b8ff" stroke="#63b8ff" points="484.06,-268.5 494.06,-265 484.06,-261.5 484.06,-268.5"/>
</a>
</g>
</g>
<!-- Node10 -->
<g id="Node000010" class="node">
<title>Node10</title>
<g id="a_Node000010"><a xlink:href="group__elements.html#ae50258851ebbaf08c7eebc3fbdbf1ac8" target="_top" xlink:title="Common transforms include rotate(180)">
<polygon fill="white" stroke="#666666" points="598.25,-143 482.5,-143 482.5,-111 598.25,-111 598.25,-143"/>
<text xml:space="preserve" text-anchor="start" x="490.5" y="-131.4" font-family="SourceSans" font-size="8.00">svg::element_base::</text>
<text xml:space="preserve" text-anchor="middle" x="540.38" y="-119.4" font-family="SourceSans" font-size="8.00">make_transform_attribute</text>
</a>
</g>
</g>
<!-- Node9&#45;&gt;Node10 -->
<g id="edge9_Node000009_Node000010" class="edge">
<title>Node9&#45;&gt;Node10</title>
<g id="a_edge9_Node000009_Node000010"><a xlink:title=" ">
<path fill="none" stroke="#63b8ff" d="M441.74,-127C450.94,-127 460.82,-127 470.64,-127"/>
<polygon fill="#63b8ff" stroke="#63b8ff" points="470.59,-130.5 480.59,-127 470.59,-123.5 470.59,-130.5"/>
</a>
</g>
</g>
<!-- Node12 -->
<g id="Node000012" class="node">
<title>Node12</title>
<g id="a_Node000012"><a xlink:href="group__elements.html#ad893ef9c13a15464c96d8a85c08af30f" target="_top" xlink:title=" ">
<polygon fill="white" stroke="#666666" points="446.5,-93 345.75,-93 345.75,-73 446.5,-73 446.5,-93"/>
<text xml:space="preserve" text-anchor="middle" x="396.12" y="-81.4" font-family="SourceSans" font-size="8.00">svg::element_base::str</text>
</a>
</g>
</g>
<!-- Node11&#45;&gt;Node12 -->
<g id="edge13_Node000011_Node000012" class="edge">
<title>Node11&#45;&gt;Node12</title>
<g id="a_edge13_Node000011_Node000012"><a xlink:title=" ">
<path fill="none" stroke="#63b8ff" d="M309.95,-104.64C320.51,-101.96 331.87,-99.07 342.74,-96.31"/>
<polygon fill="#63b8ff" stroke="#63b8ff" points="343.54,-99.72 352.37,-93.86 341.82,-92.93 343.54,-99.72"/>
</a>
</g>
</g>
</g>
</svg>
