<?xml version="1.0" encoding="UTF-8" standalone="no"?>
<!DOCTYPE svg PUBLIC "-//W3C//DTD SVG 1.1//EN"
 "http://www.w3.org/Graphics/SVG/1.1/DTD/svg11.dtd">
<!-- Generated by graphviz version 13.1.2 (20250808.2320)
 -->
<!-- Title: svg::nest_inner_svg_element_centered Pages: 1 -->
<svg width="929pt" height="231pt"
 viewBox="0.00 0.00 929.00 231.00" xmlns="http://www.w3.org/2000/svg" xmlns:xlink="http://www.w3.org/1999/xlink">
<g id="graph0" class="graph" transform="scale(1 1) rotate(0) translate(4 227)">
<title>svg::nest_inner_svg_element_centered</title>
<!-- Node1 -->
<g id="Node000001" class="node">
<title>Node1</title>
<g id="a_Node000001"><a xlink:title="Take.">
<polygon fill="#999999" stroke="#666666" points="90.25,-195 0,-195 0,-163 90.25,-163 90.25,-195"/>
<text xml:space="preserve" text-anchor="start" x="8" y="-183.4" font-family="SourceSans" font-size="8.00">svg::nest_inner_svg</text>
<text xml:space="preserve" text-anchor="middle" x="45.12" y="-171.4" font-family="SourceSans" font-size="8.00">_element_centered</text>
</a>
</g>
</g>
<!-- Node2 -->
<g id="Node000002" class="node">
<title>Node2</title>
<g id="a_Node000002"><a xlink:href="group__elements.html#ada0333b46b2547c6152f3f5811016a12" target="_top" xlink:title=" ">
<polygon fill="white" stroke="#666666" points="783.75,-201 692.75,-201 692.75,-169 783.75,-169 783.75,-201"/>
<text xml:space="preserve" text-anchor="start" x="700.75" y="-189.4" font-family="SourceSans" font-size="8.00">svg::element_base::</text>
<text xml:space="preserve" text-anchor="middle" x="738.25" y="-177.4" font-family="SourceSans" font-size="8.00">add_element</text>
</a>
</g>
</g>
<!-- Node1&#45;&gt;Node2 -->
<g id="edge1_Node000001_Node000002" class="edge">
<title>Node1&#45;&gt;Node2</title>
<g id="a_edge1_Node000001_Node000002"><a xlink:title=" ">
<path fill="none" stroke="#63b8ff" d="M90.62,-194.65C102.11,-198.2 114.54,-201.62 126.25,-204 210.83,-221.16 233.2,-223 319.5,-223 319.5,-223 319.5,-223 469.88,-223 543.63,-223 627.7,-208.65 681.56,-197.59"/>
<polygon fill="#63b8ff" stroke="#63b8ff" points="682.03,-201.07 691.1,-195.59 680.6,-194.21 682.03,-201.07"/>
</a>
</g>
</g>
<!-- Node4 -->
<g id="Node000004" class="node">
<title>Node4</title>
<g id="a_Node000004"><a xlink:href="group__elements.html#a3f7b6a0f29695c76b8a9e0c6d939f1b6" target="_top" xlink:title="SVG element end boilerplate.">
<polygon fill="white" stroke="#666666" points="233,-195 126.25,-195 126.25,-163 233,-163 233,-195"/>
<text xml:space="preserve" text-anchor="start" x="134.25" y="-183.4" font-family="SourceSans" font-size="8.00">svg::svg_element::finish</text>
<text xml:space="preserve" text-anchor="middle" x="179.62" y="-171.4" font-family="SourceSans" font-size="8.00">_element</text>
</a>
</g>
</g>
<!-- Node1&#45;&gt;Node4 -->
<g id="edge3_Node000001_Node000004" class="edge">
<title>Node1&#45;&gt;Node4</title>
<g id="a_edge3_Node000001_Node000004"><a xlink:title=" ">
<path fill="none" stroke="#63b8ff" d="M90.61,-179C98.28,-179 106.38,-179 114.44,-179"/>
<polygon fill="#63b8ff" stroke="#63b8ff" points="114.25,-182.5 124.25,-179 114.25,-175.5 114.25,-182.5"/>
</a>
</g>
</g>
<!-- Node5 -->
<g id="Node000005" class="node">
<title>Node5</title>
<g id="a_Node000005"><a xlink:href="group__elements.html#a4afa7d83ef0fe47412b62f56f1c3ae11" target="_top" xlink:title="Default.">
<polygon fill="white" stroke="#666666" points="231.12,-145 128.12,-145 128.12,-113 231.12,-113 231.12,-145"/>
<text xml:space="preserve" text-anchor="start" x="136.12" y="-133.4" font-family="SourceSans" font-size="8.00">svg::svg_element::start</text>
<text xml:space="preserve" text-anchor="middle" x="179.62" y="-121.4" font-family="SourceSans" font-size="8.00">_element</text>
</a>
</g>
</g>
<!-- Node1&#45;&gt;Node5 -->
<g id="edge4_Node000001_Node000005" class="edge">
<title>Node1&#45;&gt;Node5</title>
<g id="a_edge4_Node000001_Node000005"><a xlink:title=" ">
<path fill="none" stroke="#63b8ff" d="M89.51,-162.63C100.72,-158.4 112.93,-153.79 124.61,-149.38"/>
<polygon fill="#63b8ff" stroke="#63b8ff" points="125.61,-152.75 133.73,-145.94 123.13,-146.2 125.61,-152.75"/>
</a>
</g>
</g>
<!-- Node3 -->
<g id="Node000003" class="node">
<title>Node3</title>
<g id="a_Node000003"><a xlink:href="group__elements.html#ad893ef9c13a15464c96d8a85c08af30f" target="_top" xlink:title=" ">
<polygon fill="white" stroke="#666666" points="920.5,-195 819.75,-195 819.75,-175 920.5,-175 920.5,-195"/>
<text xml:space="preserve" text-anchor="middle" x="870.12" y="-183.4" font-family="SourceSans" font-size="8.00">svg::element_base::str</text>
</a>
</g>
</g>
<!-- Node2&#45;&gt;Node3 -->
<g id="edge2_Node000002_Node000003" class="edge">
<title>Node2&#45;&gt;Node3</title>
<g id="a_edge2_Node000002_Node000003"><a xlink:title=" ">
<path fill="none" stroke="#63b8ff" d="M783.95,-185C791.73,-185 799.94,-185 808.07,-185"/>
<polygon fill="#63b8ff" stroke="#63b8ff" points="807.94,-188.5 817.94,-185 807.94,-181.5 807.94,-188.5"/>
</a>
</g>
</g>
<!-- Node6 -->
<g id="Node000006" class="node">
<title>Node6</title>
<g id="a_Node000006"><a xlink:href="group__elements.html#a427e385a78a537bf24b6c3bcb6320365" target="_top" xlink:title=" ">
<polygon fill="white" stroke="#666666" points="372,-139 269,-139 269,-119 372,-119 372,-139"/>
<text xml:space="preserve" text-anchor="middle" x="320.5" y="-127.4" font-family="SourceSans" font-size="8.00">svg::svg_element::start</text>
</a>
</g>
</g>
<!-- Node5&#45;&gt;Node6 -->
<g id="edge5_Node000005_Node000006" class="edge">
<title>Node5&#45;&gt;Node6</title>
<g id="a_edge5_Node000005_Node000006"><a xlink:title=" ">
<path fill="none" stroke="#63b8ff" d="M231.55,-122.47C239.85,-122.27 248.53,-122.21 257.07,-122.28"/>
<polygon fill="#63b8ff" stroke="#63b8ff" points="257.01,-125.78 267.07,-122.44 257.13,-118.78 257.01,-125.78"/>
</a>
</g>
</g>
<!-- Node6&#45;&gt;Node5 -->
<g id="edge15_Node000006_Node000005" class="edge">
<title>Node6&#45;&gt;Node5</title>
<g id="a_edge15_Node000006_Node000005"><a xlink:title=" ">
<path fill="none" stroke="#63b8ff" d="M268.58,-135.53C260.28,-135.73 251.6,-135.79 243.06,-135.72"/>
<polygon fill="#63b8ff" stroke="#63b8ff" points="243.12,-132.22 233.06,-135.56 243,-139.22 243.12,-132.22"/>
</a>
</g>
</g>
<!-- Node7 -->
<g id="Node000007" class="node">
<title>Node7</title>
<g id="a_Node000007"><a xlink:href="group__elements.html#a4a6af4e23b9f79f07d58780c128c5638" target="_top" xlink:title=" ">
<polygon fill="white" stroke="#666666" points="529.75,-145 408,-145 408,-125 529.75,-125 529.75,-145"/>
<text xml:space="preserve" text-anchor="middle" x="468.88" y="-133.4" font-family="SourceSans" font-size="8.00">svg::svg_element::add_desc</text>
</a>
</g>
</g>
<!-- Node6&#45;&gt;Node7 -->
<g id="edge6_Node000006_Node000007" class="edge">
<title>Node6&#45;&gt;Node7</title>
<g id="a_edge6_Node000006_Node000007"><a xlink:title=" ">
<path fill="none" stroke="#63b8ff" d="M372.28,-131.08C380.03,-131.4 388.14,-131.73 396.23,-132.06"/>
<polygon fill="#63b8ff" stroke="#63b8ff" points="395.97,-135.56 406.1,-132.47 396.25,-128.56 395.97,-135.56"/>
</a>
</g>
</g>
<!-- Node10 -->
<g id="Node000010" class="node">
<title>Node10</title>
<g id="a_Node000010"><a xlink:href="group__elements.html#a26869d2a66e57c0d83f2df21d25cd875" target="_top" xlink:title=" ">
<polygon fill="white" stroke="#666666" points="519.25,-82 418.5,-82 418.5,-50 519.25,-50 519.25,-82"/>
<text xml:space="preserve" text-anchor="start" x="426.5" y="-70.4" font-family="SourceSans" font-size="8.00">svg::svg_element::add</text>
<text xml:space="preserve" text-anchor="middle" x="468.88" y="-58.4" font-family="SourceSans" font-size="8.00">_title</text>
</a>
</g>
</g>
<!-- Node6&#45;&gt;Node10 -->
<g id="edge10_Node000006_Node000010" class="edge">
<title>Node6&#45;&gt;Node10</title>
<g id="a_edge10_Node000006_Node000010"><a xlink:title=" ">
<path fill="none" stroke="#63b8ff" d="M345.67,-118.6C365.64,-110 394.61,-97.53 419.33,-86.89"/>
<polygon fill="#63b8ff" stroke="#63b8ff" points="420.44,-90.23 428.24,-83.06 417.67,-83.8 420.44,-90.23"/>
</a>
</g>
</g>
<!-- Node7&#45;&gt;Node2 -->
<g id="edge7_Node000007_Node000002" class="edge">
<title>Node7&#45;&gt;Node2</title>
<g id="a_edge7_Node000007_Node000002"><a xlink:title=" ">
<path fill="none" stroke="#63b8ff" d="M497.16,-145.46C516.13,-152.32 542.15,-160.93 565.75,-166 603.91,-174.19 647.64,-178.97 681.39,-181.68"/>
<polygon fill="#63b8ff" stroke="#63b8ff" points="680.69,-185.14 690.93,-182.41 681.22,-178.16 680.69,-185.14"/>
</a>
</g>
</g>
<!-- Node8 -->
<g id="Node000008" class="node">
<title>Node8</title>
<g id="a_Node000008"><a xlink:href="group__elements.html#ga03da556ae8f749df1cf8463111e996d3" target="_top" xlink:title=" ">
<polygon fill="white" stroke="#666666" points="656.38,-157 566.12,-157 566.12,-125 656.38,-125 656.38,-157"/>
<text xml:space="preserve" text-anchor="start" x="574.12" y="-145.4" font-family="SourceSans" font-size="8.00">svg::desc_element::</text>
<text xml:space="preserve" text-anchor="middle" x="611.25" y="-133.4" font-family="SourceSans" font-size="8.00">finish_element</text>
</a>
</g>
</g>
<!-- Node7&#45;&gt;Node8 -->
<g id="edge8_Node000007_Node000008" class="edge">
<title>Node7&#45;&gt;Node8</title>
<g id="a_edge8_Node000007_Node000008"><a xlink:title=" ">
<path fill="none" stroke="#63b8ff" d="M530.22,-137.58C538.21,-137.92 546.37,-138.27 554.28,-138.61"/>
<polygon fill="#63b8ff" stroke="#63b8ff" points="553.99,-142.1 564.13,-139.03 554.29,-135.1 553.99,-142.1"/>
</a>
</g>
</g>
<!-- Node9 -->
<g id="Node000009" class="node">
<title>Node9</title>
<g id="a_Node000009"><a xlink:href="group__elements.html#a90ffdd73579c45cd0740dc9efa2f5445" target="_top" xlink:title=" ">
<polygon fill="white" stroke="#666666" points="656.38,-107 566.12,-107 566.12,-75 656.38,-75 656.38,-107"/>
<text xml:space="preserve" text-anchor="start" x="574.12" y="-95.4" font-family="SourceSans" font-size="8.00">svg::desc_element::</text>
<text xml:space="preserve" text-anchor="middle" x="611.25" y="-83.4" font-family="SourceSans" font-size="8.00">start_element</text>
</a>
</g>
</g>
<!-- Node7&#45;&gt;Node9 -->
<g id="edge9_Node000007_Node000009" class="edge">
<title>Node7&#45;&gt;Node9</title>
<g id="a_edge9_Node000007_Node000009"><a xlink:title=" ">
<path fill="none" stroke="#63b8ff" d="M503.14,-124.57C518.65,-119.71 537.52,-113.8 555.08,-108.29"/>
<polygon fill="#63b8ff" stroke="#63b8ff" points="555.86,-111.72 564.36,-105.39 553.77,-105.04 555.86,-111.72"/>
</a>
</g>
</g>
<!-- Node11 -->
<g id="Node000011" class="node">
<title>Node11</title>
<g id="a_Node000011"><a xlink:href="group__elements.html#a7995b78d94e1c299065c9dd3569fef7c" target="_top" xlink:title=" ">
<polygon fill="white" stroke="#666666" points="656.75,-57 565.75,-57 565.75,-25 656.75,-25 656.75,-57"/>
<text xml:space="preserve" text-anchor="start" x="573.75" y="-45.4" font-family="SourceSans" font-size="8.00">svg::element_base::</text>
<text xml:space="preserve" text-anchor="middle" x="611.25" y="-33.4" font-family="SourceSans" font-size="8.00">add_title</text>
</a>
</g>
</g>
<!-- Node10&#45;&gt;Node11 -->
<g id="edge11_Node000010_Node000011" class="edge">
<title>Node10&#45;&gt;Node11</title>
<g id="a_edge11_Node000010_Node000011"><a xlink:title=" ">
<path fill="none" stroke="#63b8ff" d="M519.37,-57.19C530.61,-55.18 542.64,-53.04 554.14,-50.99"/>
<polygon fill="#63b8ff" stroke="#63b8ff" points="554.7,-54.45 563.93,-49.25 553.47,-47.56 554.7,-54.45"/>
</a>
</g>
</g>
<!-- Node11&#45;&gt;Node2 -->
<g id="edge12_Node000011_Node000002" class="edge">
<title>Node11&#45;&gt;Node2</title>
<g id="a_edge12_Node000011_Node000002"><a xlink:title=" ">
<path fill="none" stroke="#63b8ff" d="M645.53,-57.38C649.51,-60 653.36,-62.88 656.75,-66 686.11,-93.02 710.21,-132.73 724.16,-158.73"/>
<polygon fill="#63b8ff" stroke="#63b8ff" points="720.89,-160.04 728.63,-167.28 727.1,-156.8 720.89,-160.04"/>
</a>
</g>
</g>
<!-- Node12 -->
<g id="Node000012" class="node">
<title>Node12</title>
<g id="a_Node000012"><a xlink:href="group__elements.html#ga3d62381f8edcccd3d91f82af55f11274" target="_top" xlink:title=" ">
<polygon fill="white" stroke="#666666" points="780,-82 696.5,-82 696.5,-50 780,-50 780,-82"/>
<text xml:space="preserve" text-anchor="start" x="704.5" y="-70.4" font-family="SourceSans" font-size="8.00">svg::title_element</text>
<text xml:space="preserve" text-anchor="middle" x="738.25" y="-58.4" font-family="SourceSans" font-size="8.00">::finish_element</text>
</a>
</g>
</g>
<!-- Node11&#45;&gt;Node12 -->
<g id="edge13_Node000011_Node000012" class="edge">
<title>Node11&#45;&gt;Node12</title>
<g id="a_edge13_Node000011_Node000012"><a xlink:title=" ">
<path fill="none" stroke="#63b8ff" d="M657.02,-49.95C666.09,-51.77 675.7,-53.69 684.99,-55.55"/>
<polygon fill="#63b8ff" stroke="#63b8ff" points="684.14,-58.95 694.63,-57.48 685.52,-52.08 684.14,-58.95"/>
</a>
</g>
</g>
<!-- Node13 -->
<g id="Node000013" class="node">
<title>Node13</title>
<g id="a_Node000013"><a xlink:href="group__elements.html#a41dcaa1132c502cb86c01aae1e7b9ff2" target="_top" xlink:title=" ">
<polygon fill="white" stroke="#666666" points="780,-32 696.5,-32 696.5,0 780,0 780,-32"/>
<text xml:space="preserve" text-anchor="start" x="704.5" y="-20.4" font-family="SourceSans" font-size="8.00">svg::title_element</text>
<text xml:space="preserve" text-anchor="middle" x="738.25" y="-8.4" font-family="SourceSans" font-size="8.00">::start_element</text>
</a>
</g>
</g>
<!-- Node11&#45;&gt;Node13 -->
<g id="edge14_Node000011_Node000013" class="edge">
<title>Node11&#45;&gt;Node13</title>
<g id="a_edge14_Node000011_Node000013"><a xlink:title=" ">
<path fill="none" stroke="#63b8ff" d="M657.02,-32.05C666.09,-30.23 675.7,-28.31 684.99,-26.45"/>
<polygon fill="#63b8ff" stroke="#63b8ff" points="685.52,-29.92 694.63,-24.52 684.14,-23.05 685.52,-29.92"/>
</a>
</g>
</g>
</g>
</svg>
