<?xml version="1.0" encoding="UTF-8" standalone="no"?>
<!DOCTYPE svg PUBLIC "-//W3C//DTD SVG 1.1//EN"
 "http://www.w3.org/Graphics/SVG/1.1/DTD/svg11.dtd">
<!-- Generated by graphviz version 12.2.1 (20241206.2353)
 -->
<!-- Title: svg::make_line_graph Pages: 1 -->
<!--zoomable 600 -->

<svg id="main" version="1.1" xmlns="http://www.w3.org/2000/svg" xmlns:xlink="http://www.w3.org/1999/xlink" xml:space="preserve" onload="init(evt)">

<style type="text/css"><![CDATA[
.node, .edge {opacity: 0.7;}
.node.selected, .edge.selected {opacity: 1;}
.edge:hover path { stroke: red; }
.edge:hover polygon { stroke: red; fill: red; }
]]></style>

<defs>
  <circle id="rim" cx="0" cy="0" r="7"/>
  <circle id="rim2" cx="0" cy="0" r="3.5"/>
  <g id="zoomPlus">
    <use xlink:href="#rim" fill="#404040"><set attributeName="fill" to="#808080" begin="zoomplus.mouseover" end="zoomplus.mouseout"/></use>
    <path d="M-4,0h8M0,-4v8" fill="none" stroke="white" stroke-width="1.5" pointer-events="none"/>
  </g>
  <g id="zoomMin">
    <use xlink:href="#rim" fill="#404040"><set attributeName="fill" to="#808080" begin="zoomminus.mouseover" end="zoomminus.mouseout"/></use>
    <path d="M-4,0h8" fill="none" stroke="white" stroke-width="1.5" pointer-events="none"/>
  </g>
  <g id="arrowUp" transform="translate(30 24)">
    <use xlink:href="#rim"/>
    <path pointer-events="none" fill="none" stroke="white" stroke-width="1.5" d="M0,-3.0v7 M-2.5,-0.5L0,-3.0L2.5,-0.5"/>
  </g>
  <g id="arrowRight" transform="rotate(90) translate(36 -43)">
    <use xlink:href="#rim"/>
    <path pointer-events="none" fill="none" stroke="white" stroke-width="1.5" d="M0,-3.0v7 M-2.5,-0.5L0,-3.0L2.5,-0.5"/>
  </g>
  <g id="arrowDown" transform="rotate(180) translate(-30 -48)">
    <use xlink:href="#rim"/>
    <path pointer-events="none" fill="none" stroke="white" stroke-width="1.5" d="M0,-3.0v7 M-2.5,-0.5L0,-3.0L2.5,-0.5"/>
  </g>
  <g id="arrowLeft" transform="rotate(270) translate(-36 17)">
    <use xlink:href="#rim"/>
    <path pointer-events="none" fill="none" stroke="white" stroke-width="1.5" d="M0,-3.0v7 M-2.5,-0.5L0,-3.0L2.5,-0.5"/>
  </g>
  <g id="resetDef">
    <use xlink:href="#rim2" fill="#404040"><set attributeName="fill" to="#808080" begin="reset.mouseover" end="reset.mouseout"/></use>
  </g>
</defs>
<script type="application/ecmascript">
var viewWidth = 800;
var viewHeight = 600;
var sectionId = 'dynsection-39';
</script>
<script type="application/ecmascript" xlink:href="svg.min.js"/>
<svg id="graph" class="graph">
<g id="viewport">
<title>svg::make_line_graph</title>
<!-- Node1 -->
<g id="Node000001" class="node">
<title>Node1</title>
<g id="a_Node000001"><a xlink:title="Returns a svg_element with the chart and labels Assume: vgrange x axis is monotonically increasing.">
<polygon fill="#999999" stroke="#666666" points="99.25,-218 0,-218 0,-198 99.25,-198 99.25,-218"/>
<text text-anchor="middle" x="49.62" y="-206.4" font-family="SourceSans" font-size="8.00">svg::make_line_graph</text>
</a>
</g>
</g>
<!-- Node2 -->
<g id="Node000002" class="node">
<title>Node2</title>
<g id="a_Node000002"><a xlink:href="group__elements.html#ada0333b46b2547c6152f3f5811016a12" target="_top" xlink:title=" ">
<polygon fill="white" stroke="#666666" points="518.12,-592 427.12,-592 427.12,-560 518.12,-560 518.12,-592"/>
<text text-anchor="start" x="435.12" y="-580.4" font-family="SourceSans" font-size="8.00">svg::element_base::</text>
<text text-anchor="middle" x="472.62" y="-568.4" font-family="SourceSans" font-size="8.00">add_element</text>
</a>
</g>
</g>
<!-- Node1&#45;&gt;Node2 -->
<g id="edge1_Node000001_Node000002" class="edge">
<title>Node1&#45;&gt;Node2</title>
<g id="a_edge1_Node000001_Node000002"><a xlink:title=" ">
<path fill="none" stroke="#63b8ff" d="M53.16,-218.44C61.11,-249.66 87.9,-344.07 135.25,-408 181.87,-470.94 201.07,-484.73 270.5,-521 316.49,-545.03 374.05,-559.4 415.79,-567.38"/>
<polygon fill="#63b8ff" stroke="#63b8ff" points="414.89,-570.78 425.36,-569.15 416.16,-563.89 414.89,-570.78"/>
</a>
</g>
</g>
<!-- Node4 -->
<g id="Node000004" class="node">
<title>Node4</title>
<g id="a_Node000004"><a xlink:href="group__elements.html#acafbdd950c6c2639c9d376c3eab696e5" target="_top" xlink:title=" ">
<polygon fill="white" stroke="#666666" points="662.38,-484 571.38,-484 571.38,-452 662.38,-452 662.38,-484"/>
<text text-anchor="start" x="579.38" y="-472.4" font-family="SourceSans" font-size="8.00">svg::element_base::</text>
<text text-anchor="middle" x="616.88" y="-460.4" font-family="SourceSans" font-size="8.00">add_raw</text>
</a>
</g>
</g>
<!-- Node1&#45;&gt;Node4 -->
<g id="edge3_Node000001_Node000004" class="edge">
<title>Node1&#45;&gt;Node4</title>
<g id="a_edge3_Node000001_Node000004"><a xlink:title=" ">
<path fill="none" stroke="#63b8ff" d="M57.5,-218.33C70.5,-237.09 100.52,-276.83 135.25,-299 212.03,-348.01 448.18,-370.97 529,-413 547.48,-422.61 547.53,-431.66 565,-443 566.59,-444.03 568.23,-445.05 569.9,-446.05"/>
<polygon fill="#63b8ff" stroke="#63b8ff" points="567.95,-448.97 578.38,-450.82 571.38,-442.87 567.95,-448.97"/>
</a>
</g>
</g>
<!-- Node5 -->
<g id="Node000005" class="node">
<title>Node5</title>
<g id="a_Node000005"><a xlink:href="group__elements.html#a71cf2eb89a562527f14c4ca4c027c2b9" target="_top" xlink:title=" ">
<polygon fill="white" stroke="#666666" points="230.75,-202 139,-202 139,-170 230.75,-170 230.75,-202"/>
<text text-anchor="start" x="147" y="-190.4" font-family="SourceSans" font-size="8.00">svg::group_element</text>
<text text-anchor="middle" x="184.88" y="-178.4" font-family="SourceSans" font-size="8.00">::finish_group</text>
</a>
</g>
</g>
<!-- Node1&#45;&gt;Node5 -->
<g id="edge4_Node000001_Node000005" class="edge">
<title>Node1&#45;&gt;Node5</title>
<g id="a_edge4_Node000001_Node000005"><a xlink:title=" ">
<path fill="none" stroke="#63b8ff" d="M99.49,-199.93C108.57,-198.43 118.13,-196.86 127.41,-195.32"/>
<polygon fill="#63b8ff" stroke="#63b8ff" points="127.77,-198.81 137.07,-193.73 126.63,-191.9 127.77,-198.81"/>
</a>
</g>
</g>
<!-- Node6 -->
<g id="Node000006" class="node">
<title>Node6</title>
<g id="a_Node000006"><a xlink:href="structsvg_1_1render__state__base.html#aa16790fbf40ef61f416151c89c267ef3" target="_top" xlink:title=" ">
<polygon fill="white" stroke="#666666" points="376.88,-52 273.88,-52 273.88,-20 376.88,-20 376.88,-52"/>
<text text-anchor="start" x="281.88" y="-40.4" font-family="SourceSans" font-size="8.00">svg::render_state_base</text>
<text text-anchor="middle" x="325.38" y="-28.4" font-family="SourceSans" font-size="8.00">::is_visible</text>
</a>
</g>
</g>
<!-- Node1&#45;&gt;Node6 -->
<g id="edge5_Node000001_Node000006" class="edge">
<title>Node1&#45;&gt;Node6</title>
<g id="a_edge5_Node000001_Node000006"><a xlink:title=" ">
<path fill="none" stroke="#63b8ff" d="M79,-218.46C118.41,-230.99 189.87,-246.18 234.5,-211 288.34,-168.55 227.07,-114.05 270.5,-61 270.83,-60.59 271.18,-60.19 271.53,-59.79"/>
<polygon fill="#63b8ff" stroke="#63b8ff" points="273.6,-62.63 278.74,-53.37 268.94,-57.41 273.6,-62.63"/>
</a>
</g>
</g>
<!-- Node7 -->
<g id="Node000007" class="node">
<title>Node7</title>
<g id="a_Node000007"><a xlink:href="namespacesvg.html#a0e4e42755f8221387ede36824f675ac8" target="_top" xlink:title="Return set of paths corresponding to marker shapes with tooltips.">
<polygon fill="white" stroke="#666666" points="234.5,-290 135.25,-290 135.25,-258 234.5,-258 234.5,-290"/>
<text text-anchor="start" x="143.25" y="-278.4" font-family="SourceSans" font-size="8.00">svg::make_line_graph</text>
<text text-anchor="middle" x="184.88" y="-266.4" font-family="SourceSans" font-size="8.00">_markers_tips</text>
</a>
</g>
</g>
<!-- Node1&#45;&gt;Node7 -->
<g id="edge6_Node000001_Node000007" class="edge">
<title>Node1&#45;&gt;Node7</title>
<g id="a_edge6_Node000001_Node000007"><a xlink:title=" ">
<path fill="none" stroke="#63b8ff" d="M71.74,-218.46C90.13,-227.57 117.38,-241.07 140.42,-252.48"/>
<polygon fill="#63b8ff" stroke="#63b8ff" points="138.79,-255.57 149.3,-256.88 141.89,-249.3 138.79,-255.57"/>
</a>
</g>
</g>
<!-- Node29 -->
<g id="Node000029" class="node">
<title>Node29</title>
<g id="a_Node000029"><a xlink:href="namespacesvg.html#ae3cd801991d2b329b8c49d8e9393ea6d" target="_top" xlink:title="Polyline primitive.">
<polygon fill="white" stroke="#666666" points="228.88,-152 140.88,-152 140.88,-132 228.88,-132 228.88,-152"/>
<text text-anchor="middle" x="184.88" y="-140.4" font-family="SourceSans" font-size="8.00">svg::make_polyline</text>
</a>
</g>
</g>
<!-- Node1&#45;&gt;Node29 -->
<g id="edge37_Node000001_Node000029" class="edge">
<title>Node1&#45;&gt;Node29</title>
<g id="a_edge37_Node000001_Node000029"><a xlink:title=" ">
<path fill="none" stroke="#63b8ff" d="M67.77,-197.58C84.62,-187.56 111.22,-172.3 135.25,-161 138.35,-159.54 141.59,-158.1 144.87,-156.7"/>
<polygon fill="#63b8ff" stroke="#63b8ff" points="145.99,-160.02 153.92,-152.99 143.34,-153.55 145.99,-160.02"/>
</a>
</g>
</g>
<!-- Node30 -->
<g id="Node000030" class="node">
<title>Node30</title>
<g id="a_Node000030"><a xlink:href="namespacesvg.html#a2e5178befe99e2a7d5ede3c02088055f" target="_top" xlink:title="Scale value from min to max on range (nfloor, nceil).">
<polygon fill="white" stroke="#666666" points="229.62,-114 140.12,-114 140.12,-82 229.62,-82 229.62,-114"/>
<text text-anchor="start" x="148.12" y="-102.4" font-family="SourceSans" font-size="8.00">svg::scale_value_on</text>
<text text-anchor="middle" x="184.88" y="-90.4" font-family="SourceSans" font-size="8.00">_range</text>
</a>
</g>
</g>
<!-- Node1&#45;&gt;Node30 -->
<g id="edge38_Node000001_Node000030" class="edge">
<title>Node1&#45;&gt;Node30</title>
<g id="a_edge38_Node000001_Node000030"><a xlink:title=" ">
<path fill="none" stroke="#63b8ff" d="M59.13,-197.54C73.48,-180.37 103.98,-145.86 135.25,-123 136.41,-122.15 137.61,-121.31 138.83,-120.49"/>
<polygon fill="#63b8ff" stroke="#63b8ff" points="140.6,-123.51 147.27,-115.28 136.92,-117.55 140.6,-123.51"/>
</a>
</g>
</g>
<!-- Node31 -->
<g id="Node000031" class="node">
<title>Node31</title>
<g id="a_Node000031"><a xlink:href="group__elements.html#a9b6e3d5d06ec76dc07afff3261e32487" target="_top" xlink:title=" ">
<polygon fill="white" stroke="#666666" points="230.75,-64 139,-64 139,-32 230.75,-32 230.75,-64"/>
<text text-anchor="start" x="147" y="-52.4" font-family="SourceSans" font-size="8.00">svg::group_element</text>
<text text-anchor="middle" x="184.88" y="-40.4" font-family="SourceSans" font-size="8.00">::start_group</text>
</a>
</g>
</g>
<!-- Node1&#45;&gt;Node31 -->
<g id="edge39_Node000001_Node000031" class="edge">
<title>Node1&#45;&gt;Node31</title>
<g id="a_edge39_Node000001_Node000031"><a xlink:title=" ">
<path fill="none" stroke="#63b8ff" d="M54.84,-197.56C65.2,-173 94.1,-110.8 135.25,-73 136.01,-72.3 136.8,-71.61 137.61,-70.94"/>
<polygon fill="#63b8ff" stroke="#63b8ff" points="139.57,-73.84 145.65,-65.16 135.49,-68.15 139.57,-73.84"/>
</a>
</g>
</g>
<!-- Node3 -->
<g id="Node000003" class="node">
<title>Node3</title>
<g id="a_Node000003"><a xlink:href="group__elements.html#ad893ef9c13a15464c96d8a85c08af30f" target="_top" xlink:title=" ">
<polygon fill="white" stroke="#666666" points="667.25,-564 566.5,-564 566.5,-544 667.25,-544 667.25,-564"/>
<text text-anchor="middle" x="616.88" y="-552.4" font-family="SourceSans" font-size="8.00">svg::element_base::str</text>
</a>
</g>
</g>
<!-- Node2&#45;&gt;Node3 -->
<g id="edge2_Node000002_Node000003" class="edge">
<title>Node2&#45;&gt;Node3</title>
<g id="a_edge2_Node000002_Node000003"><a xlink:title=" ">
<path fill="none" stroke="#63b8ff" d="M518.24,-569.1C529.91,-567.3 542.68,-565.32 555.04,-563.41"/>
<polygon fill="#63b8ff" stroke="#63b8ff" points="555.38,-566.9 564.72,-561.91 554.31,-559.98 555.38,-566.9"/>
</a>
</g>
</g>
<!-- Node7&#45;&gt;Node3 -->
<g id="edge36_Node000007_Node000003" class="edge">
<title>Node7&#45;&gt;Node3</title>
<g id="a_edge36_Node000007_Node000003"><a xlink:title=" ">
<path fill="none" stroke="#63b8ff" d="M187.16,-290.47C191.26,-330.99 207.72,-436.03 270.5,-488 312.97,-523.16 467.47,-541.56 554.75,-549.35"/>
<polygon fill="#63b8ff" stroke="#63b8ff" points="554.31,-552.82 564.57,-550.2 554.92,-545.85 554.31,-552.82"/>
</a>
</g>
</g>
<!-- Node7&#45;&gt;Node4 -->
<g id="edge12_Node000007_Node000004" class="edge">
<title>Node7&#45;&gt;Node4</title>
<g id="a_edge12_Node000007_Node000004"><a xlink:title=" ">
<path fill="none" stroke="#63b8ff" d="M213.3,-290.44C229.49,-299.58 250.64,-310.58 270.5,-318 325.84,-338.67 481.74,-344.55 529,-380 554.8,-399.35 541.5,-420.92 565,-443 565.74,-443.69 566.5,-444.37 567.28,-445.03"/>
<polygon fill="#63b8ff" stroke="#63b8ff" points="564.88,-447.62 575.03,-450.66 569,-441.95 564.88,-447.62"/>
</a>
</g>
</g>
<!-- Node7&#45;&gt;Node6 -->
<g id="edge19_Node000007_Node000006" class="edge">
<title>Node7&#45;&gt;Node6</title>
<g id="a_edge19_Node000007_Node000006"><a xlink:title=" ">
<path fill="none" stroke="#63b8ff" d="M220.31,-257.85C225.73,-253.98 230.77,-249.38 234.5,-244 281.72,-175.87 219.33,-126.21 270.5,-61 270.74,-60.7 270.98,-60.4 271.23,-60.1"/>
<polygon fill="#63b8ff" stroke="#63b8ff" points="273.43,-62.83 278.36,-53.46 268.66,-57.71 273.43,-62.83"/>
</a>
</g>
</g>
<!-- Node8 -->
<g id="Node000008" class="node">
<title>Node8</title>
<g id="a_Node000008"><a xlink:href="group__elements.html#a519382631540ecedee961bfb53e9ae87" target="_top" xlink:title=" ">
<polygon fill="white" stroke="#666666" points="369.38,-290 281.38,-290 281.38,-258 369.38,-258 369.38,-290"/>
<text text-anchor="start" x="289.38" y="-278.4" font-family="SourceSans" font-size="8.00">svg::circle_element</text>
<text text-anchor="middle" x="325.38" y="-266.4" font-family="SourceSans" font-size="8.00">::add_data</text>
</a>
</g>
</g>
<!-- Node7&#45;&gt;Node8 -->
<g id="edge7_Node000007_Node000008" class="edge">
<title>Node7&#45;&gt;Node8</title>
<g id="a_edge7_Node000007_Node000008"><a xlink:title=" ">
<path fill="none" stroke="#63b8ff" d="M234.7,-274C246.04,-274 258.17,-274 269.73,-274"/>
<polygon fill="#63b8ff" stroke="#63b8ff" points="269.54,-277.5 279.54,-274 269.54,-270.5 269.54,-277.5"/>
</a>
</g>
</g>
<!-- Node11 -->
<g id="Node000011" class="node">
<title>Node11</title>
<g id="a_Node000011"><a xlink:href="group__elements.html#a1dd6663d882fb5dd14a47462a77f351b" target="_top" xlink:title="Either serialize immediately (as below), or create data structure that adds data to data_vec and then...">
<polygon fill="white" stroke="#666666" points="369,-240 281.75,-240 281.75,-208 369,-208 369,-240"/>
<text text-anchor="start" x="289.75" y="-228.4" font-family="SourceSans" font-size="8.00">svg::rect_element::</text>
<text text-anchor="middle" x="325.38" y="-216.4" font-family="SourceSans" font-size="8.00">add_data</text>
</a>
</g>
</g>
<!-- Node7&#45;&gt;Node11 -->
<g id="edge10_Node000007_Node000011" class="edge">
<title>Node7&#45;&gt;Node11</title>
<g id="a_edge10_Node000007_Node000011"><a xlink:title=" ">
<path fill="none" stroke="#63b8ff" d="M231.23,-257.63C243.8,-253.09 257.57,-248.12 270.58,-243.42"/>
<polygon fill="#63b8ff" stroke="#63b8ff" points="271.64,-246.76 279.85,-240.07 269.26,-240.18 271.64,-246.76"/>
</a>
</g>
</g>
<!-- Node12 -->
<g id="Node000012" class="node">
<title>Node12</title>
<g id="a_Node000012"><a xlink:href="group__elements.html#a238b38ca99a1cf6c2baf80c8e4338d99" target="_top" xlink:title=" ">
<polygon fill="white" stroke="#666666" points="662.38,-434 571.38,-434 571.38,-402 662.38,-402 662.38,-434"/>
<text text-anchor="start" x="579.38" y="-422.4" font-family="SourceSans" font-size="8.00">svg::element_base::</text>
<text text-anchor="middle" x="616.88" y="-410.4" font-family="SourceSans" font-size="8.00">add_style</text>
</a>
</g>
</g>
<!-- Node7&#45;&gt;Node12 -->
<g id="edge13_Node000007_Node000012" class="edge">
<title>Node7&#45;&gt;Node12</title>
<g id="a_edge13_Node000007_Node000012"><a xlink:title=" ">
<path fill="none" stroke="#63b8ff" d="M234.83,-289.57C246.45,-292.95 258.85,-296.32 270.5,-299 384,-325.1 428.54,-283.08 529,-342 551.09,-354.96 545.77,-370.08 565,-387 568.31,-389.91 571.93,-392.72 575.67,-395.37"/>
<polygon fill="#63b8ff" stroke="#63b8ff" points="573.55,-398.16 583.81,-400.77 577.42,-392.33 573.55,-398.16"/>
</a>
</g>
</g>
<!-- Node14 -->
<g id="Node000014" class="node">
<title>Node14</title>
<g id="a_Node000014"><a xlink:href="group__elements.html#a7995b78d94e1c299065c9dd3569fef7c" target="_top" xlink:title=" ">
<polygon fill="white" stroke="#666666" points="370.88,-479 279.88,-479 279.88,-447 370.88,-447 370.88,-479"/>
<text text-anchor="start" x="287.88" y="-467.4" font-family="SourceSans" font-size="8.00">svg::element_base::</text>
<text text-anchor="middle" x="325.38" y="-455.4" font-family="SourceSans" font-size="8.00">add_title</text>
</a>
</g>
</g>
<!-- Node7&#45;&gt;Node14 -->
<g id="edge15_Node000007_Node000014" class="edge">
<title>Node7&#45;&gt;Node14</title>
<g id="a_edge15_Node000007_Node000014"><a xlink:title=" ">
<path fill="none" stroke="#63b8ff" d="M197.92,-290.44C222.13,-323.48 276.82,-398.11 305.7,-437.52"/>
<polygon fill="#63b8ff" stroke="#63b8ff" points="302.82,-439.51 311.56,-445.51 308.47,-435.37 302.82,-439.51"/>
</a>
</g>
</g>
<!-- Node17 -->
<g id="Node000017" class="node">
<title>Node17</title>
<g id="a_Node000017"><a xlink:href="namespacesvg.html#a5c3daa77c4f641f5ac5fd9d31a8c15d3" target="_top" xlink:title="Center a triangle at this point.">
<polygon fill="white" stroke="#666666" points="380.25,-190 270.5,-190 270.5,-170 380.25,-170 380.25,-190"/>
<text text-anchor="middle" x="325.38" y="-178.4" font-family="SourceSans" font-size="8.00">svg::make_path_triangle</text>
</a>
</g>
</g>
<!-- Node7&#45;&gt;Node17 -->
<g id="edge20_Node000007_Node000017" class="edge">
<title>Node7&#45;&gt;Node17</title>
<g id="a_edge20_Node000007_Node000017"><a xlink:title=" ">
<path fill="none" stroke="#63b8ff" d="M216.07,-257.61C222.45,-253.55 228.93,-248.93 234.5,-244 253.68,-227.03 249.62,-213.83 270.5,-199 272.29,-197.73 274.17,-196.54 276.12,-195.42"/>
<polygon fill="#63b8ff" stroke="#63b8ff" points="277.47,-198.65 284.88,-191.09 274.37,-192.38 277.47,-198.65"/>
</a>
</g>
</g>
<!-- Node27 -->
<g id="Node000027" class="node">
<title>Node27</title>
<g id="a_Node000027"><a xlink:href="group__elements.html#a793cb6b40b2aea335b11f14fd327cde8" target="_top" xlink:title=" ">
<polygon fill="white" stroke="#666666" points="369.38,-152 281.38,-152 281.38,-120 369.38,-120 369.38,-152"/>
<text text-anchor="start" x="289.38" y="-140.4" font-family="SourceSans" font-size="8.00">svg::circle_element</text>
<text text-anchor="middle" x="325.38" y="-128.4" font-family="SourceSans" font-size="8.00">::start_element</text>
</a>
</g>
</g>
<!-- Node7&#45;&gt;Node27 -->
<g id="edge34_Node000007_Node000027" class="edge">
<title>Node7&#45;&gt;Node27</title>
<g id="a_edge34_Node000007_Node000027"><a xlink:title=" ">
<path fill="none" stroke="#63b8ff" d="M218.64,-257.65C224.42,-253.74 230.02,-249.17 234.5,-244 260.82,-213.6 242.43,-189.79 270.5,-161 271.09,-160.39 271.71,-159.8 272.33,-159.21"/>
<polygon fill="#63b8ff" stroke="#63b8ff" points="274.25,-162.15 280.04,-153.28 269.98,-156.6 274.25,-162.15"/>
</a>
</g>
</g>
<!-- Node28 -->
<g id="Node000028" class="node">
<title>Node28</title>
<g id="a_Node000028"><a xlink:href="group__elements.html#a1e0ed5e9dfe1244317a87d7e6774348b" target="_top" xlink:title=" ">
<polygon fill="white" stroke="#666666" points="369,-102 281.75,-102 281.75,-70 369,-70 369,-102"/>
<text text-anchor="start" x="289.75" y="-90.4" font-family="SourceSans" font-size="8.00">svg::rect_element::</text>
<text text-anchor="middle" x="325.38" y="-78.4" font-family="SourceSans" font-size="8.00">start_element</text>
</a>
</g>
</g>
<!-- Node7&#45;&gt;Node28 -->
<g id="edge35_Node000007_Node000028" class="edge">
<title>Node7&#45;&gt;Node28</title>
<g id="a_edge35_Node000007_Node000028"><a xlink:title=" ">
<path fill="none" stroke="#63b8ff" d="M220,-257.62C225.46,-253.78 230.58,-249.25 234.5,-244 271.13,-194.92 231.03,-157.82 270.5,-111 271.17,-110.21 271.87,-109.44 272.59,-108.69"/>
<polygon fill="#63b8ff" stroke="#63b8ff" points="274.6,-111.57 280.1,-102.51 270.15,-106.17 274.6,-111.57"/>
</a>
</g>
</g>
<!-- Node9 -->
<g id="Node000009" class="node">
<title>Node9</title>
<g id="a_Node000009"><a xlink:href="group__elements.html#a53d72a7ff728ad1d4d027254530bcf3d" target="_top" xlink:title="Common transforms include rotate(180)">
<polygon fill="white" stroke="#666666" points="518.12,-208 427.12,-208 427.12,-176 518.12,-176 518.12,-208"/>
<text text-anchor="start" x="435.12" y="-196.4" font-family="SourceSans" font-size="8.00">svg::element_base::</text>
<text text-anchor="middle" x="472.62" y="-184.4" font-family="SourceSans" font-size="8.00">add_transform</text>
</a>
</g>
</g>
<!-- Node8&#45;&gt;Node9 -->
<g id="edge8_Node000008_Node000009" class="edge">
<title>Node8&#45;&gt;Node9</title>
<g id="a_edge8_Node000008_Node000009"><a xlink:title=" ">
<path fill="none" stroke="#63b8ff" d="M364.28,-257.63C369.74,-254.93 375.21,-252.02 380.25,-249 397.41,-238.73 399.41,-232.79 416.25,-222 420.51,-219.27 425.03,-216.55 429.59,-213.92"/>
<polygon fill="#63b8ff" stroke="#63b8ff" points="431.2,-217.03 438.22,-209.09 427.78,-210.92 431.2,-217.03"/>
</a>
</g>
</g>
<!-- Node10 -->
<g id="Node000010" class="node">
<title>Node10</title>
<g id="a_Node000010"><a xlink:href="namespacesvg.html#a48ac748e89e22789d1772326a98dd7b6" target="_top" xlink:title=" ">
<polygon fill="white" stroke="#666666" points="792,-196 704.75,-196 704.75,-176 792,-176 792,-196"/>
<text text-anchor="middle" x="748.38" y="-184.4" font-family="SourceSans" font-size="8.00">svg::string_replace</text>
</a>
</g>
</g>
<!-- Node8&#45;&gt;Node10 -->
<g id="edge9_Node000008_Node000010" class="edge">
<title>Node8&#45;&gt;Node10</title>
<g id="a_edge9_Node000008_Node000010"><a xlink:title=" ">
<path fill="none" stroke="#63b8ff" d="M369.63,-262.47C410.78,-251.35 474.33,-233.79 529,-217 545.12,-212.05 548.51,-208.56 565,-205 607.54,-195.81 656.65,-191.02 693.19,-188.55"/>
<polygon fill="#63b8ff" stroke="#63b8ff" points="693.31,-192.04 703.07,-187.92 692.87,-185.06 693.31,-192.04"/>
</a>
</g>
</g>
<!-- Node11&#45;&gt;Node10 -->
<g id="edge11_Node000011_Node000010" class="edge">
<title>Node11&#45;&gt;Node10</title>
<g id="a_edge11_Node000011_Node000010"><a xlink:title=" ">
<path fill="none" stroke="#63b8ff" d="M365.37,-207.57C370.51,-204.93 375.59,-202.05 380.25,-199 398.15,-187.26 396.24,-174.61 416.25,-167 513.48,-130.03 638.38,-154.7 703.48,-172.42"/>
<polygon fill="#63b8ff" stroke="#63b8ff" points="702.51,-175.79 713.08,-175.12 704.4,-169.05 702.51,-175.79"/>
</a>
</g>
</g>
<!-- Node13 -->
<g id="Node000013" class="node">
<title>Node13</title>
<g id="a_Node000013"><a xlink:href="namespacesvg.html#a36b1c48ad4601b205790e3772ad0a7b6" target="_top" xlink:title=" ">
<polygon fill="white" stroke="#666666" points="781.88,-406 714.88,-406 714.88,-386 781.88,-386 781.88,-406"/>
<text text-anchor="middle" x="748.38" y="-394.4" font-family="SourceSans" font-size="8.00">svg::to_string</text>
</a>
</g>
</g>
<!-- Node12&#45;&gt;Node13 -->
<g id="edge14_Node000012_Node000013" class="edge">
<title>Node12&#45;&gt;Node13</title>
<g id="a_edge14_Node000012_Node000013"><a xlink:title=" ">
<path fill="none" stroke="#63b8ff" d="M662.8,-410.37C676.03,-408.12 690.47,-405.67 703.61,-403.43"/>
<polygon fill="#63b8ff" stroke="#63b8ff" points="704.01,-406.92 713.28,-401.79 702.83,-400.02 704.01,-406.92"/>
</a>
</g>
</g>
<!-- Node14&#45;&gt;Node2 -->
<g id="edge16_Node000014_Node000002" class="edge">
<title>Node14&#45;&gt;Node2</title>
<g id="a_edge16_Node000014_Node000002"><a xlink:title=" ">
<path fill="none" stroke="#63b8ff" d="M347.5,-479.43C372.24,-498.68 413.41,-530.71 441.5,-552.56"/>
<polygon fill="#63b8ff" stroke="#63b8ff" points="439.24,-555.24 449.28,-558.62 443.54,-549.72 439.24,-555.24"/>
</a>
</g>
</g>
<!-- Node15 -->
<g id="Node000015" class="node">
<title>Node15</title>
<g id="a_Node000015"><a xlink:href="group__elements.html#ga3d62381f8edcccd3d91f82af55f11274" target="_top" xlink:title=" ">
<polygon fill="white" stroke="#666666" points="514.38,-504 430.88,-504 430.88,-472 514.38,-472 514.38,-504"/>
<text text-anchor="start" x="438.88" y="-492.4" font-family="SourceSans" font-size="8.00">svg::title_element</text>
<text text-anchor="middle" x="472.62" y="-480.4" font-family="SourceSans" font-size="8.00">::finish_element</text>
</a>
</g>
</g>
<!-- Node14&#45;&gt;Node15 -->
<g id="edge17_Node000014_Node000015" class="edge">
<title>Node14&#45;&gt;Node15</title>
<g id="a_edge17_Node000014_Node000015"><a xlink:title=" ">
<path fill="none" stroke="#63b8ff" d="M371.14,-470.7C386.43,-473.34 403.67,-476.3 419.49,-479.03"/>
<polygon fill="#63b8ff" stroke="#63b8ff" points="418.77,-482.45 429.22,-480.7 419.96,-475.56 418.77,-482.45"/>
</a>
</g>
</g>
<!-- Node16 -->
<g id="Node000016" class="node">
<title>Node16</title>
<g id="a_Node000016"><a xlink:href="group__elements.html#a41dcaa1132c502cb86c01aae1e7b9ff2" target="_top" xlink:title=" ">
<polygon fill="white" stroke="#666666" points="514.38,-454 430.88,-454 430.88,-422 514.38,-422 514.38,-454"/>
<text text-anchor="start" x="438.88" y="-442.4" font-family="SourceSans" font-size="8.00">svg::title_element</text>
<text text-anchor="middle" x="472.62" y="-430.4" font-family="SourceSans" font-size="8.00">::start_element</text>
</a>
</g>
</g>
<!-- Node14&#45;&gt;Node16 -->
<g id="edge18_Node000014_Node000016" class="edge">
<title>Node14&#45;&gt;Node16</title>
<g id="a_edge18_Node000014_Node000016"><a xlink:title=" ">
<path fill="none" stroke="#63b8ff" d="M371.14,-455.3C386.43,-452.66 403.67,-449.7 419.49,-446.97"/>
<polygon fill="#63b8ff" stroke="#63b8ff" points="419.96,-450.44 429.22,-445.3 418.77,-443.55 419.96,-450.44"/>
</a>
</g>
</g>
<!-- Node18 -->
<g id="Node000018" class="node">
<title>Node18</title>
<g id="a_Node000018"><a xlink:href="namespacesvg.html#ab44508c4aeca591141ebec50145b75cd" target="_top" xlink:title="Angle in degrees.">
<polygon fill="white" stroke="#666666" points="524.5,-120 420.75,-120 420.75,-88 524.5,-88 524.5,-120"/>
<text text-anchor="start" x="428.75" y="-108.4" font-family="SourceSans" font-size="8.00">svg::get_circumference</text>
<text text-anchor="middle" x="472.62" y="-96.4" font-family="SourceSans" font-size="8.00">_point_d</text>
</a>
</g>
</g>
<!-- Node17&#45;&gt;Node18 -->
<g id="edge21_Node000017_Node000018" class="edge">
<title>Node17&#45;&gt;Node18</title>
<g id="a_edge21_Node000017_Node000018"><a xlink:title=" ">
<path fill="none" stroke="#63b8ff" d="M360.96,-169.56C367.52,-167.1 374.22,-164.23 380.25,-161 397.88,-151.56 399.41,-144.79 416.25,-134 420.51,-131.27 425.03,-128.55 429.59,-125.92"/>
<polygon fill="#63b8ff" stroke="#63b8ff" points="431.2,-129.03 438.22,-121.09 427.78,-122.92 431.2,-129.03"/>
</a>
</g>
</g>
<!-- Node20 -->
<g id="Node000020" class="node">
<title>Node20</title>
<g id="a_Node000020"><a xlink:href="namespacesvg.html#a8b2e7da5235688e0f753d35fc1079c87" target="_top" xlink:title="Draw path given serialized path data. Assumes pinstripe, ie top and bottom line layers....">
<polygon fill="white" stroke="#666666" points="510.62,-290 434.62,-290 434.62,-270 510.62,-270 510.62,-290"/>
<text text-anchor="middle" x="472.62" y="-278.4" font-family="SourceSans" font-size="8.00">svg::make_path</text>
</a>
</g>
</g>
<!-- Node17&#45;&gt;Node20 -->
<g id="edge23_Node000017_Node000020" class="edge">
<title>Node17&#45;&gt;Node20</title>
<g id="a_edge23_Node000017_Node000020"><a xlink:title=" ">
<path fill="none" stroke="#63b8ff" d="M362.32,-190.48C368.49,-192.89 374.69,-195.73 380.25,-199 409.45,-216.19 437.81,-243.5 454.99,-261.58"/>
<polygon fill="#63b8ff" stroke="#63b8ff" points="452.08,-263.59 461.46,-268.52 457.21,-258.82 452.08,-263.59"/>
</a>
</g>
</g>
<!-- Node24 -->
<g id="Node000024" class="node">
<title>Node24</title>
<g id="a_Node000024"><a xlink:href="namespacesvg.html#a2c65de7707b8b7b1bca959a3a2bbba91" target="_top" xlink:title="Make single path segment.">
<polygon fill="white" stroke="#666666" points="521.12,-70 424.12,-70 424.12,-38 521.12,-38 521.12,-70"/>
<text text-anchor="start" x="432.12" y="-58.4" font-family="SourceSans" font-size="8.00">svg::make_path_data</text>
<text text-anchor="middle" x="472.62" y="-46.4" font-family="SourceSans" font-size="8.00">_from_points</text>
</a>
</g>
</g>
<!-- Node17&#45;&gt;Node24 -->
<g id="edge31_Node000017_Node000024" class="edge">
<title>Node17&#45;&gt;Node24</title>
<g id="a_edge31_Node000017_Node000024"><a xlink:title=" ">
<path fill="none" stroke="#63b8ff" d="M367.55,-169.58C372.17,-167.26 376.54,-164.44 380.25,-161 409.42,-133.93 388.25,-107.29 416.25,-79 416.85,-78.4 417.46,-77.8 418.09,-77.23"/>
<polygon fill="#63b8ff" stroke="#63b8ff" points="419.99,-80.18 425.83,-71.34 415.75,-74.61 419.99,-80.18"/>
</a>
</g>
</g>
<!-- Node26 -->
<g id="Node000026" class="node">
<title>Node26</title>
<g id="a_Node000026"><a xlink:href="namespacesvg.html#a46164d75fd5109e4ed8879abbacd5c11" target="_top" xlink:title="Zero degrees is top, going clockwise (cw).">
<polygon fill="white" stroke="#666666" points="529,-20 416.25,-20 416.25,0 529,0 529,-20"/>
<text text-anchor="middle" x="472.62" y="-8.4" font-family="SourceSans" font-size="8.00">svg::zero_angle_north_cw</text>
</a>
</g>
</g>
<!-- Node17&#45;&gt;Node26 -->
<g id="edge33_Node000017_Node000026" class="edge">
<title>Node17&#45;&gt;Node26</title>
<g id="a_edge33_Node000017_Node000026"><a xlink:title=" ">
<path fill="none" stroke="#63b8ff" d="M369.12,-169.51C373.25,-167.21 377.08,-164.41 380.25,-161 421.66,-116.47 374.66,-73.36 416.25,-29 416.85,-28.36 417.47,-27.74 418.11,-27.15"/>
<polygon fill="#63b8ff" stroke="#63b8ff" points="420.09,-30.03 426.2,-21.37 416.02,-24.34 420.09,-30.03"/>
</a>
</g>
</g>
<!-- Node19 -->
<g id="Node000019" class="node">
<title>Node19</title>
<g id="a_Node000019"><a xlink:href="namespacesvg.html#aef05ac63d88a6102981d3faf37275297" target="_top" xlink:title="Angle in radians.">
<polygon fill="white" stroke="#666666" points="668.75,-120 565,-120 565,-88 668.75,-88 668.75,-120"/>
<text text-anchor="start" x="573" y="-108.4" font-family="SourceSans" font-size="8.00">svg::get_circumference</text>
<text text-anchor="middle" x="616.88" y="-96.4" font-family="SourceSans" font-size="8.00">_point_r</text>
</a>
</g>
</g>
<!-- Node18&#45;&gt;Node19 -->
<g id="edge22_Node000018_Node000019" class="edge">
<title>Node18&#45;&gt;Node19</title>
<g id="a_edge22_Node000018_Node000019"><a xlink:title=" ">
<path fill="none" stroke="#63b8ff" d="M524.98,-104C534.15,-104 543.79,-104 553.23,-104"/>
<polygon fill="#63b8ff" stroke="#63b8ff" points="553.08,-107.5 563.08,-104 553.08,-100.5 553.08,-107.5"/>
</a>
</g>
</g>
<!-- Node20&#45;&gt;Node4 -->
<g id="edge26_Node000020_Node000004" class="edge">
<title>Node20&#45;&gt;Node4</title>
<g id="a_edge26_Node000020_Node000004"><a xlink:title=" ">
<path fill="none" stroke="#63b8ff" d="M485.26,-290.38C497.59,-301.93 516.92,-321.65 529,-342 553.33,-382.98 533.28,-407.43 565,-443 565.45,-443.5 565.91,-444 566.39,-444.49"/>
<polygon fill="#63b8ff" stroke="#63b8ff" points="563.84,-446.92 573.76,-450.64 568.32,-441.55 563.84,-446.92"/>
</a>
</g>
</g>
<!-- Node20&#45;&gt;Node12 -->
<g id="edge27_Node000020_Node000012" class="edge">
<title>Node20&#45;&gt;Node12</title>
<g id="a_edge27_Node000020_Node000012"><a xlink:title=" ">
<path fill="none" stroke="#63b8ff" d="M508.63,-290.41C516.03,-293.83 523.31,-298.28 529,-304 557.66,-332.78 538.17,-357.5 565,-388 567.13,-390.42 569.5,-392.69 572.02,-394.83"/>
<polygon fill="#63b8ff" stroke="#63b8ff" points="569.72,-397.48 579.83,-400.62 573.89,-391.85 569.72,-397.48"/>
</a>
</g>
</g>
<!-- Node20&#45;&gt;Node13 -->
<g id="edge30_Node000020_Node000013" class="edge">
<title>Node20&#45;&gt;Node13</title>
<g id="a_edge30_Node000020_Node000013"><a xlink:title=" ">
<path fill="none" stroke="#63b8ff" d="M505.78,-290.43C513.86,-293.96 522.17,-298.45 529,-304 550.53,-321.5 541.92,-339.6 565,-355 606.55,-382.74 664.08,-391.94 703.34,-394.87"/>
<polygon fill="#63b8ff" stroke="#63b8ff" points="702.94,-398.35 713.14,-395.49 703.38,-391.37 702.94,-398.35"/>
</a>
</g>
</g>
<!-- Node21 -->
<g id="Node000021" class="node">
<title>Node21</title>
<g id="a_Node000021"><a xlink:href="group__elements.html#a807f3c30f2ace338ad10aaf230b47665" target="_top" xlink:title="Either serialize immediately (as below), or create data structure that adds data to data_vec and then...">
<polygon fill="white" stroke="#666666" points="662.38,-346 571.38,-346 571.38,-314 662.38,-314 662.38,-346"/>
<text text-anchor="start" x="579.38" y="-334.4" font-family="SourceSans" font-size="8.00">svg::path_element::</text>
<text text-anchor="middle" x="616.88" y="-322.4" font-family="SourceSans" font-size="8.00">add_data</text>
</a>
</g>
</g>
<!-- Node20&#45;&gt;Node21 -->
<g id="edge24_Node000020_Node000021" class="edge">
<title>Node20&#45;&gt;Node21</title>
<g id="a_edge24_Node000020_Node000021"><a xlink:title=" ">
<path fill="none" stroke="#63b8ff" d="M503.45,-290.48C519.87,-296.25 540.78,-303.61 560.11,-310.4"/>
<polygon fill="#63b8ff" stroke="#63b8ff" points="558.93,-313.69 569.52,-313.71 561.25,-307.09 558.93,-313.69"/>
</a>
</g>
</g>
<!-- Node22 -->
<g id="Node000022" class="node">
<title>Node22</title>
<g id="a_Node000022"><a xlink:href="group__elements.html#gaac30ae99fb1a2542688fa1ffb43cd8e1" target="_top" xlink:title=" ">
<polygon fill="white" stroke="#666666" points="662.38,-296 571.38,-296 571.38,-264 662.38,-264 662.38,-296"/>
<text text-anchor="start" x="579.38" y="-284.4" font-family="SourceSans" font-size="8.00">svg::path_element::</text>
<text text-anchor="middle" x="616.88" y="-272.4" font-family="SourceSans" font-size="8.00">finish_element</text>
</a>
</g>
</g>
<!-- Node20&#45;&gt;Node22 -->
<g id="edge28_Node000020_Node000022" class="edge">
<title>Node20&#45;&gt;Node22</title>
<g id="a_edge28_Node000020_Node000022"><a xlink:title=" ">
<path fill="none" stroke="#63b8ff" d="M511,-280C525.91,-280 543.41,-280 559.78,-280"/>
<polygon fill="#63b8ff" stroke="#63b8ff" points="559.39,-283.5 569.39,-280 559.39,-276.5 559.39,-283.5"/>
</a>
</g>
</g>
<!-- Node23 -->
<g id="Node000023" class="node">
<title>Node23</title>
<g id="a_Node000023"><a xlink:href="group__elements.html#a6dbca7cef2cbc0c10aa44c44ae20b36e" target="_top" xlink:title=" ">
<polygon fill="white" stroke="#666666" points="662.38,-246 571.38,-246 571.38,-214 662.38,-214 662.38,-246"/>
<text text-anchor="start" x="579.38" y="-234.4" font-family="SourceSans" font-size="8.00">svg::path_element::</text>
<text text-anchor="middle" x="616.88" y="-222.4" font-family="SourceSans" font-size="8.00">start_element</text>
</a>
</g>
</g>
<!-- Node20&#45;&gt;Node23 -->
<g id="edge29_Node000020_Node000023" class="edge">
<title>Node20&#45;&gt;Node23</title>
<g id="a_edge29_Node000020_Node000023"><a xlink:title=" ">
<path fill="none" stroke="#63b8ff" d="M503.45,-269.52C519.87,-263.75 540.78,-256.39 560.11,-249.6"/>
<polygon fill="#63b8ff" stroke="#63b8ff" points="561.25,-252.91 569.52,-246.29 558.93,-246.31 561.25,-252.91"/>
</a>
</g>
</g>
<!-- Node21&#45;&gt;Node10 -->
<g id="edge25_Node000021_Node000010" class="edge">
<title>Node21&#45;&gt;Node10</title>
<g id="a_edge25_Node000021_Node000010"><a xlink:title=" ">
<path fill="none" stroke="#63b8ff" d="M656.77,-313.65C661.03,-311.07 665.13,-308.19 668.75,-305 700.97,-276.64 725.61,-232.12 738.16,-206.33"/>
<polygon fill="#63b8ff" stroke="#63b8ff" points="741.18,-208.14 742.27,-197.6 734.84,-205.15 741.18,-208.14"/>
</a>
</g>
</g>
<!-- Node25 -->
<g id="Node000025" class="node">
<title>Node25</title>
<g id="a_Node000025"><a xlink:href="namespacesvg_1_1constants.html#ac460bc8db60d85c3ae1cf8b1a903405e" target="_top" xlink:title="Formatting character constants.">
<polygon fill="white" stroke="#666666" points="665,-64 568.75,-64 568.75,-44 665,-44 665,-64"/>
<text text-anchor="middle" x="616.88" y="-52.4" font-family="SourceSans" font-size="8.00">svg::constants::space</text>
</a>
</g>
</g>
<!-- Node24&#45;&gt;Node25 -->
<g id="edge32_Node000024_Node000025" class="edge">
<title>Node24&#45;&gt;Node25</title>
<g id="a_edge32_Node000024_Node000025"><a xlink:title=" ">
<path fill="none" stroke="#63b8ff" d="M521.39,-54C532.89,-54 545.3,-54 557.23,-54"/>
<polygon fill="#63b8ff" stroke="#63b8ff" points="556.97,-57.5 566.97,-54 556.97,-50.5 556.97,-57.5"/>
</a>
</g>
</g>
</g>
</svg>

<g id="navigator" transform="translate(0 0)" fill="#404254">
  <rect fill="#f2f5e9" fill-opacity="0.5" stroke="#606060" stroke-width=".5" x="0" y="0" width="60" height="60"/>
  <use id="zoomplus" xlink:href="#zoomPlus" x="17" y="9" onmousedown="handleZoom(evt,'in')"/>
  <use id="zoomminus" xlink:href="#zoomMin" x="42" y="9" onmousedown="handleZoom(evt,'out')"/>
  <use id="reset" xlink:href="#resetDef" x="30" y="36" onmousedown="handleReset()"/>
   <use id="arrowup" xlink:href="#arrowUp" x="0" y="0" onmousedown="handlePan(0,-1)"/>
  <use id="arrowright" xlink:href="#arrowRight" x="0" y="0" onmousedown="handlePan(1,0)"/>
  <use id="arrowdown" xlink:href="#arrowDown" x="0" y="0" onmousedown="handlePan(0,1)"/>
  <use id="arrowleft" xlink:href="#arrowLeft" x="0" y="0" onmousedown="handlePan(-1,0)"/>
</g>
<svg viewBox="0 0 15 15" width="100%" height="30px" preserveAspectRatio="xMaxYMin meet">
 <g id="arrow_out" transform="scale(0.3 0.3)">
  <a xlink:href="namespacesvg_a5affcd2017ce707148f3561187eae902_cgraph_org.svg" target="_base">
   <rect id="button" ry="5" rx="5" y="6" x="6" height="38" width="38"
        fill="#f2f5e9" fill-opacity="0.5" stroke="#606060" stroke-width="1.0"/>
   <path id="arrow"
     d="M 11.500037,31.436501 C 11.940474,20.09759 22.043105,11.32322 32.158766,21.979434 L 37.068811,17.246167 C 37.068811,17.246167 37.088388,32 37.088388,32 L 22.160133,31.978069 C 22.160133,31.978069 26.997745,27.140456 26.997745,27.140456 C 18.528582,18.264221 13.291696,25.230495 11.500037,31.436501 z"
     style="fill:#404040;"/>
  </a>
 </g>
</svg>

<style type='text/css'>
<![CDATA[
[data-mouse-over-selected='false'] { opacity: 0.7; }
[data-mouse-over-selected='true']  { opacity: 1.0; }
]]>
</style>
<script type="application/ecmascript"><![CDATA[
document.addEventListener('DOMContentLoaded', (event) => {
  highlightEdges();
  highlightAdjacentNodes();
});
]]></script>
</svg>
