<?xml version="1.0" encoding="UTF-8" standalone="no"?>
<!DOCTYPE svg PUBLIC "-//W3C//DTD SVG 1.1//EN"
 "http://www.w3.org/Graphics/SVG/1.1/DTD/svg11.dtd">
<!-- Generated by graphviz version 12.2.1 (20241206.2353)
 -->
<!-- Title: svg::style_text_r Pages: 1 -->
<svg width="658pt" height="206pt"
 viewBox="0.00 0.00 658.00 205.62" xmlns="http://www.w3.org/2000/svg" xmlns:xlink="http://www.w3.org/1999/xlink">
<g id="graph0" class="graph" transform="scale(1 1) rotate(0) translate(4 201.62)">
<title>svg::style_text_r</title>
<!-- Node1 -->
<g id="Node000001" class="node">
<title>Node1</title>
<g id="a_Node000001"><a xlink:title="Text element at.">
<polygon fill="#999999" stroke="#666666" points="81.25,-86.62 0,-86.62 0,-68.88 81.25,-68.88 81.25,-86.62"/>
<text text-anchor="middle" x="40.62" y="-75.03" font-family="SourceSans" font-size="8.00">svg::style_text_r</text>
</a>
</g>
</g>
<!-- Node2 -->
<g id="Node000002" class="node">
<title>Node2</title>
<g id="a_Node000002"><a xlink:href="structsvg_1_1transform.html#acf9836f4ba647f0dd2b53963a0f714d0" target="_top" xlink:title=" ">
<polygon fill="white" stroke="#666666" points="223.25,-104.62 117.25,-104.62 117.25,-86.88 223.25,-86.88 223.25,-104.62"/>
<text text-anchor="middle" x="170.25" y="-93.03" font-family="SourceSans" font-size="8.00">svg::transform::rotate</text>
</a>
</g>
</g>
<!-- Node1&#45;&gt;Node2 -->
<g id="edge1_Node000001_Node000002" class="edge">
<title>Node1&#45;&gt;Node2</title>
<g id="a_edge1_Node000001_Node000002"><a xlink:title=" ">
<path fill="none" stroke="#63b8ff" d="M81.66,-83.4C89.4,-84.49 97.68,-85.66 105.95,-86.82"/>
<polygon fill="#63b8ff" stroke="#63b8ff" points="105.29,-90.26 115.68,-88.19 106.26,-83.33 105.29,-90.26"/>
</a>
</g>
</g>
<!-- Node3 -->
<g id="Node000003" class="node">
<title>Node3</title>
<g id="a_Node000003"><a xlink:href="namespacesvg.html#a74ca2344cea417d9107d56f4f53c5b0b" target="_top" xlink:title="Text element at.">
<polygon fill="white" stroke="#666666" points="207.5,-68.62 133,-68.62 133,-50.88 207.5,-50.88 207.5,-68.62"/>
<text text-anchor="middle" x="170.25" y="-57.02" font-family="SourceSans" font-size="8.00">svg::style_text</text>
</a>
</g>
</g>
<!-- Node1&#45;&gt;Node3 -->
<g id="edge2_Node000001_Node000003" class="edge">
<title>Node1&#45;&gt;Node3</title>
<g id="a_edge2_Node000001_Node000003"><a xlink:title=" ">
<path fill="none" stroke="#63b8ff" d="M81.66,-72.1C94.32,-70.32 108.44,-68.33 121.59,-66.47"/>
<polygon fill="#63b8ff" stroke="#63b8ff" points="121.92,-69.96 131.33,-65.1 120.94,-63.03 121.92,-69.96"/>
</a>
</g>
</g>
<!-- Node4 -->
<g id="Node000004" class="node">
<title>Node4</title>
<g id="a_Node000004"><a xlink:href="group__elements.html#aad29e1daf75bdcd69a39575a6807fa0f" target="_top" xlink:title="Either serialize immediately (as below), or create data structure that adds data to data_vec and then...">
<polygon fill="white" stroke="#666666" points="354,-119.5 259.25,-119.5 259.25,-92 354,-92 354,-119.5"/>
<text text-anchor="start" x="267.25" y="-107.9" font-family="SourceSans" font-size="8.00">svg::text_element::</text>
<text text-anchor="middle" x="306.62" y="-98.15" font-family="SourceSans" font-size="8.00">add_data</text>
</a>
</g>
</g>
<!-- Node3&#45;&gt;Node4 -->
<g id="edge3_Node000003_Node000004" class="edge">
<title>Node3&#45;&gt;Node4</title>
<g id="a_edge3_Node000003_Node000004"><a xlink:title=" ">
<path fill="none" stroke="#63b8ff" d="M198.44,-69.06C214.21,-74.46 234.61,-81.44 253.36,-87.86"/>
<polygon fill="#63b8ff" stroke="#63b8ff" points="252.14,-91.14 262.74,-91.07 254.41,-84.52 252.14,-91.14"/>
</a>
</g>
</g>
<!-- Node12 -->
<g id="Node000012" class="node">
<title>Node12</title>
<g id="a_Node000012"><a xlink:href="group__elements.html#ga13c46848317034d16c62a7d2061ba3d6" target="_top" xlink:title=" ">
<polygon fill="white" stroke="#666666" points="354,-73.5 259.25,-73.5 259.25,-46 354,-46 354,-73.5"/>
<text text-anchor="start" x="267.25" y="-61.9" font-family="SourceSans" font-size="8.00">svg::text_element::</text>
<text text-anchor="middle" x="306.62" y="-52.15" font-family="SourceSans" font-size="8.00">finish_element</text>
</a>
</g>
</g>
<!-- Node3&#45;&gt;Node12 -->
<g id="edge13_Node000003_Node000012" class="edge">
<title>Node3&#45;&gt;Node12</title>
<g id="a_edge13_Node000003_Node000012"><a xlink:title=" ">
<path fill="none" stroke="#63b8ff" d="M207.97,-59.75C220.23,-59.75 234.21,-59.75 247.69,-59.75"/>
<polygon fill="#63b8ff" stroke="#63b8ff" points="247.33,-63.25 257.33,-59.75 247.33,-56.25 247.33,-63.25"/>
</a>
</g>
</g>
<!-- Node13 -->
<g id="Node000013" class="node">
<title>Node13</title>
<g id="a_Node000013"><a xlink:href="group__elements.html#ae45bec611a6ec17ea46aab6d680ae042" target="_top" xlink:title=" ">
<polygon fill="white" stroke="#666666" points="354,-27.5 259.25,-27.5 259.25,0 354,0 354,-27.5"/>
<text text-anchor="start" x="267.25" y="-15.9" font-family="SourceSans" font-size="8.00">svg::text_element::</text>
<text text-anchor="middle" x="306.62" y="-6.15" font-family="SourceSans" font-size="8.00">start_element</text>
</a>
</g>
</g>
<!-- Node3&#45;&gt;Node13 -->
<g id="edge14_Node000003_Node000013" class="edge">
<title>Node3&#45;&gt;Node13</title>
<g id="a_edge14_Node000003_Node000013"><a xlink:title=" ">
<path fill="none" stroke="#63b8ff" d="M198.44,-50.44C214.21,-45.04 234.61,-38.06 253.36,-31.64"/>
<polygon fill="#63b8ff" stroke="#63b8ff" points="254.41,-34.98 262.74,-28.43 252.14,-28.36 254.41,-34.98"/>
</a>
</g>
</g>
<!-- Node5 -->
<g id="Node000005" class="node">
<title>Node5</title>
<g id="a_Node000005"><a xlink:href="structsvg_1_1typography.html#adbc62f74f1fed3f7c77567250f084f83" target="_top" xlink:title=" ">
<polygon fill="white" stroke="#666666" points="493.75,-161.5 390,-161.5 390,-134 493.75,-134 493.75,-161.5"/>
<text text-anchor="start" x="398" y="-149.9" font-family="SourceSans" font-size="8.00">svg::typography::add</text>
<text text-anchor="middle" x="441.88" y="-140.15" font-family="SourceSans" font-size="8.00">_attribute</text>
</a>
</g>
</g>
<!-- Node4&#45;&gt;Node5 -->
<g id="edge4_Node000004_Node000005" class="edge">
<title>Node4&#45;&gt;Node5</title>
<g id="a_edge4_Node000004_Node000005"><a xlink:title=" ">
<path fill="none" stroke="#63b8ff" d="M352.74,-119.97C363.05,-123.22 374.13,-126.71 384.84,-130.09"/>
<polygon fill="#63b8ff" stroke="#63b8ff" points="383.78,-133.42 394.37,-133.09 385.88,-126.75 383.78,-133.42"/>
</a>
</g>
</g>
<!-- Node6 -->
<g id="Node000006" class="node">
<title>Node6</title>
<g id="a_Node000006"><a xlink:href="namespacesvg.html#a48ac748e89e22789d1772326a98dd7b6" target="_top" xlink:title=" ">
<polygon fill="white" stroke="#666666" points="636.5,-197.62 543.25,-197.62 543.25,-179.88 636.5,-179.88 636.5,-197.62"/>
<text text-anchor="middle" x="589.88" y="-186.03" font-family="SourceSans" font-size="8.00">svg::string_replace</text>
</a>
</g>
</g>
<!-- Node4&#45;&gt;Node6 -->
<g id="edge11_Node000004_Node000006" class="edge">
<title>Node4&#45;&gt;Node6</title>
<g id="a_edge11_Node000004_Node000006"><a xlink:title=" ">
<path fill="none" stroke="#63b8ff" d="M320.32,-119.77C335.29,-135.26 361.74,-159.49 390,-170.75 435.24,-188.77 490.71,-192.44 531.56,-192.07"/>
<polygon fill="#63b8ff" stroke="#63b8ff" points="531.49,-195.58 541.43,-191.89 531.36,-188.58 531.49,-195.58"/>
</a>
</g>
</g>
<!-- Node7 -->
<g id="Node000007" class="node">
<title>Node7</title>
<g id="a_Node000007"><a xlink:href="namespacesvg.html#a36b1c48ad4601b205790e3772ad0a7b6" target="_top" xlink:title=" ">
<polygon fill="white" stroke="#666666" points="625.62,-114.62 554.12,-114.62 554.12,-96.88 625.62,-96.88 625.62,-114.62"/>
<text text-anchor="middle" x="589.88" y="-103.03" font-family="SourceSans" font-size="8.00">svg::to_string</text>
</a>
</g>
</g>
<!-- Node4&#45;&gt;Node7 -->
<g id="edge12_Node000004_Node000007" class="edge">
<title>Node4&#45;&gt;Node7</title>
<g id="a_edge12_Node000004_Node000007"><a xlink:title=" ">
<path fill="none" stroke="#63b8ff" d="M354.38,-105.75C406.66,-105.75 490.79,-105.75 542.79,-105.75"/>
<polygon fill="#63b8ff" stroke="#63b8ff" points="542.5,-109.25 552.5,-105.75 542.5,-102.25 542.5,-109.25"/>
</a>
</g>
</g>
<!-- Node9 -->
<g id="Node000009" class="node">
<title>Node9</title>
<g id="a_Node000009"><a xlink:href="group__elements.html#acafbdd950c6c2639c9d376c3eab696e5" target="_top" xlink:title=" ">
<polygon fill="white" stroke="#666666" points="491.88,-77.5 391.88,-77.5 391.88,-50 491.88,-50 491.88,-77.5"/>
<text text-anchor="start" x="399.88" y="-65.9" font-family="SourceSans" font-size="8.00">svg::element_base::</text>
<text text-anchor="middle" x="441.88" y="-56.15" font-family="SourceSans" font-size="8.00">add_raw</text>
</a>
</g>
</g>
<!-- Node4&#45;&gt;Node9 -->
<g id="edge8_Node000004_Node000009" class="edge">
<title>Node4&#45;&gt;Node9</title>
<g id="a_edge8_Node000004_Node000009"><a xlink:title=" ">
<path fill="none" stroke="#63b8ff" d="M352.74,-91.53C363.05,-88.28 374.13,-84.79 384.84,-81.41"/>
<polygon fill="#63b8ff" stroke="#63b8ff" points="385.88,-84.75 394.37,-78.41 383.78,-78.08 385.88,-84.75"/>
</a>
</g>
</g>
<!-- Node10 -->
<g id="Node000010" class="node">
<title>Node10</title>
<g id="a_Node000010"><a xlink:href="group__elements.html#a53d72a7ff728ad1d4d027254530bcf3d" target="_top" xlink:title=" ">
<polygon fill="white" stroke="#666666" points="491.88,-31.5 391.88,-31.5 391.88,-4 491.88,-4 491.88,-31.5"/>
<text text-anchor="start" x="399.88" y="-19.9" font-family="SourceSans" font-size="8.00">svg::element_base::</text>
<text text-anchor="middle" x="441.88" y="-10.15" font-family="SourceSans" font-size="8.00">add_transform</text>
</a>
</g>
</g>
<!-- Node4&#45;&gt;Node10 -->
<g id="edge9_Node000004_Node000010" class="edge">
<title>Node4&#45;&gt;Node10</title>
<g id="a_edge9_Node000004_Node000010"><a xlink:title=" ">
<path fill="none" stroke="#63b8ff" d="M340.55,-91.5C345.26,-88.88 349.89,-85.95 354,-82.75 373.4,-67.65 370.33,-55.5 390,-40.75 391.49,-39.63 393.05,-38.55 394.65,-37.51"/>
<polygon fill="#63b8ff" stroke="#63b8ff" points="395.99,-40.78 402.88,-32.73 392.48,-34.72 395.99,-40.78"/>
</a>
</g>
</g>
<!-- Node5&#45;&gt;Node6 -->
<g id="edge5_Node000005_Node000006" class="edge">
<title>Node5&#45;&gt;Node6</title>
<g id="a_edge5_Node000005_Node000006"><a xlink:title=" ">
<path fill="none" stroke="#63b8ff" d="M493.53,-161.97C510.26,-166.67 528.72,-171.86 544.91,-176.4"/>
<polygon fill="#63b8ff" stroke="#63b8ff" points="543.67,-179.69 554.24,-179.02 545.56,-172.95 543.67,-179.69"/>
</a>
</g>
</g>
<!-- Node5&#45;&gt;Node7 -->
<g id="edge6_Node000005_Node000007" class="edge">
<title>Node5&#45;&gt;Node7</title>
<g id="a_edge6_Node000005_Node000007"><a xlink:title=" ">
<path fill="none" stroke="#63b8ff" d="M492.3,-133.53C509.68,-128.53 529.04,-122.96 545.85,-118.13"/>
<polygon fill="#63b8ff" stroke="#63b8ff" points="546.38,-121.62 555.02,-115.49 544.44,-114.89 546.38,-121.62"/>
</a>
</g>
</g>
<!-- Node8 -->
<g id="Node000008" class="node">
<title>Node8</title>
<g id="a_Node000008"><a xlink:href="structsvg_1_1typography.html#a174c1ffb4e56214d71523ffe7e422561" target="_top" xlink:title=" ">
<polygon fill="white" stroke="#666666" points="638,-161.5 541.75,-161.5 541.75,-134 638,-134 638,-161.5"/>
<text text-anchor="start" x="549.75" y="-149.9" font-family="SourceSans" font-size="8.00">svg::typography::to</text>
<text text-anchor="middle" x="589.88" y="-140.15" font-family="SourceSans" font-size="8.00">_string</text>
</a>
</g>
</g>
<!-- Node5&#45;&gt;Node8 -->
<g id="edge7_Node000005_Node000008" class="edge">
<title>Node5&#45;&gt;Node8</title>
<g id="a_edge7_Node000005_Node000008"><a xlink:title=" ">
<path fill="none" stroke="#63b8ff" d="M493.94,-147.75C505.65,-147.75 518.2,-147.75 530.21,-147.75"/>
<polygon fill="#63b8ff" stroke="#63b8ff" points="530,-151.25 540,-147.75 530,-144.25 530,-151.25"/>
</a>
</g>
</g>
<!-- Node11 -->
<g id="Node000011" class="node">
<title>Node11</title>
<g id="a_Node000011"><a xlink:href="group__elements.html#ae50258851ebbaf08c7eebc3fbdbf1ac8" target="_top" xlink:title="Common transforms include rotate(180)">
<polygon fill="white" stroke="#666666" points="650,-31.5 529.75,-31.5 529.75,-4 650,-4 650,-31.5"/>
<text text-anchor="start" x="537.75" y="-19.9" font-family="SourceSans" font-size="8.00">svg::element_base::</text>
<text text-anchor="middle" x="589.88" y="-10.15" font-family="SourceSans" font-size="8.00">make_transform_attribute</text>
</a>
</g>
</g>
<!-- Node10&#45;&gt;Node11 -->
<g id="edge10_Node000010_Node000011" class="edge">
<title>Node10&#45;&gt;Node11</title>
<g id="a_edge10_Node000010_Node000011"><a xlink:title=" ">
<path fill="none" stroke="#63b8ff" d="M492.3,-17.75C500.59,-17.75 509.32,-17.75 518.02,-17.75"/>
<polygon fill="#63b8ff" stroke="#63b8ff" points="517.87,-21.25 527.87,-17.75 517.87,-14.25 517.87,-21.25"/>
</a>
</g>
</g>
</g>
</svg>
