<?xml version="1.0" encoding="UTF-8" standalone="no"?>
<!DOCTYPE svg PUBLIC "-//W3C//DTD SVG 1.1//EN"
 "http://www.w3.org/Graphics/SVG/1.1/DTD/svg11.dtd">
<!-- Generated by graphviz version 9.0.0 (20230911.1827)
 -->
<!-- Title: svg::direction_arc_title_at Pages: 1 -->
<svg width="379pt" height="183pt"
 viewBox="0.00 0.00 378.50 183.00" xmlns="http://www.w3.org/2000/svg" xmlns:xlink="http://www.w3.org/1999/xlink">

<svg id="main" version="1.1" xmlns="http://www.w3.org/2000/svg" xmlns:xlink="http://www.w3.org/1999/xlink" xml:space="preserve" onload="init(evt)">
<style type="text/css"><![CDATA[
.node, .edge {opacity: 0.7;}
.node.selected, .edge.selected {opacity: 1;}
.edge:hover path { stroke: red; }
.edge:hover polygon { stroke: red; fill: red; }
]]></style>
<script type="application/ecmascript" xlink:href="svg.min.js"/>
<svg id="graph" class="graph">
<g id="graph0" class="graph" transform="scale(1 1) rotate(0) translate(4 179)">
<title>svg::direction_arc_title_at</title>
<!-- Node1 -->
<g id="Node000001" class="node">
<title>Node1</title>
<g id="a_Node000001"><a xlink:title="Title on same arc.">
<polygon fill="#999999" stroke="#666666" points="82,-92 0,-92 0,-60 82,-60 82,-92"/>
<text text-anchor="start" x="8" y="-80.4" font-family="SourceSans" font-size="8.00">svg::direction_arc</text>
<text text-anchor="middle" x="41" y="-68.4" font-family="SourceSans" font-size="8.00">_title_at</text>
</a>
</g>
</g>
<!-- Node2 -->
<g id="Node000002" class="node">
<title>Node2</title>
<g id="a_Node000002"><a xlink:href="namespacesvg.html#ab44508c4aeca591141ebec50145b75cd" target="_top" xlink:title="Angle in degrees.">
<polygon fill="white" stroke="#666666" points="226.25,-158 122.5,-158 122.5,-126 226.25,-126 226.25,-158"/>
<text text-anchor="start" x="130.5" y="-146.4" font-family="SourceSans" font-size="8.00">svg::get_circumference</text>
<text text-anchor="middle" x="174.38" y="-134.4" font-family="SourceSans" font-size="8.00">_point_d</text>
</a>
</g>
</g>
<!-- Node1&#45;&gt;Node2 -->
<g id="edge1_Node000001_Node000002" class="edge">
<title>Node1&#45;&gt;Node2</title>
<g id="a_edge1_Node000001_Node000002"><a xlink:title=" ">
<path fill="none" stroke="#63b8ff" d="M71.34,-92.46C85.35,-100.15 102.41,-109.29 118,-117 120.52,-118.25 123.12,-119.51 125.75,-120.76"/>
<polygon fill="#63b8ff" stroke="#63b8ff" points="124.06,-123.84 134.6,-124.91 127.03,-117.5 124.06,-123.84"/>
</a>
</g>
</g>
<!-- Node5 -->
<g id="Node000005" class="node">
<title>Node5</title>
<g id="a_Node000005"><a xlink:href="namespacesvg.html#a37b1e7c40b54ff3cdd4e2929cb6b7ba2" target="_top" xlink:title=" ">
<polygon fill="white" stroke="#666666" points="223.25,-108 125.5,-108 125.5,-88 223.25,-88 223.25,-108"/>
<text text-anchor="middle" x="174.38" y="-96.4" font-family="SourceSans" font-size="8.00">svg::get_radial_range</text>
</a>
</g>
</g>
<!-- Node1&#45;&gt;Node5 -->
<g id="edge4_Node000001_Node000005" class="edge">
<title>Node1&#45;&gt;Node5</title>
<g id="a_edge4_Node000001_Node000005"><a xlink:title=" ">
<path fill="none" stroke="#63b8ff" d="M82.49,-82.78C92.56,-84.47 103.56,-86.31 114.33,-88.11"/>
<polygon fill="#63b8ff" stroke="#63b8ff" points="113.47,-91.52 123.92,-89.72 114.63,-84.61 113.47,-91.52"/>
</a>
</g>
</g>
<!-- Node6 -->
<g id="Node000006" class="node">
<title>Node6</title>
<g id="a_Node000006"><a xlink:href="namespacesvg.html#abd8e35decc1e56f7243b02174c701d37" target="_top" xlink:title="Make path segment between two points on a circumference of radius r. Points like: get_circumference_p...">
<polygon fill="white" stroke="#666666" points="219.88,-70 128.88,-70 128.88,-38 219.88,-38 219.88,-70"/>
<text text-anchor="start" x="136.88" y="-58.4" font-family="SourceSans" font-size="8.00">svg::make_path_arc</text>
<text text-anchor="middle" x="174.38" y="-46.4" font-family="SourceSans" font-size="8.00">_circumference</text>
</a>
</g>
</g>
<!-- Node1&#45;&gt;Node6 -->
<g id="edge5_Node000001_Node000006" class="edge">
<title>Node1&#45;&gt;Node6</title>
<g id="a_edge5_Node000001_Node000006"><a xlink:title=" ">
<path fill="none" stroke="#63b8ff" d="M82.49,-69.22C93.57,-67.36 105.78,-65.32 117.56,-63.35"/>
<polygon fill="#63b8ff" stroke="#63b8ff" points="117.9,-66.84 127.18,-61.74 116.74,-59.94 117.9,-66.84"/>
</a>
</g>
</g>
<!-- Node9 -->
<g id="Node000009" class="node">
<title>Node9</title>
<g id="a_Node000009"><a xlink:href="namespacesvg.html#a46164d75fd5109e4ed8879abbacd5c11" target="_top" xlink:title="Zero degrees is top, going clockwise (cw).">
<polygon fill="white" stroke="#666666" points="230.75,-20 118,-20 118,0 230.75,0 230.75,-20"/>
<text text-anchor="middle" x="174.38" y="-8.4" font-family="SourceSans" font-size="8.00">svg::zero_angle_north_cw</text>
</a>
</g>
</g>
<!-- Node1&#45;&gt;Node9 -->
<g id="edge8_Node000001_Node000009" class="edge">
<title>Node1&#45;&gt;Node9</title>
<g id="a_edge8_Node000001_Node000009"><a xlink:title=" ">
<path fill="none" stroke="#63b8ff" d="M65.53,-59.55C80.16,-49.8 99.63,-37.7 118,-29 121.31,-27.43 124.78,-25.93 128.3,-24.51"/>
<polygon fill="#63b8ff" stroke="#63b8ff" points="129.4,-27.84 137.51,-21.02 126.92,-21.29 129.4,-27.84"/>
</a>
</g>
</g>
<!-- Node3 -->
<g id="Node000003" class="node">
<title>Node3</title>
<g id="a_Node000003"><a xlink:href="namespacesvg.html#aef05ac63d88a6102981d3faf37275297" target="_top" xlink:title="Angle in radians.">
<polygon fill="white" stroke="#666666" points="370.5,-175 266.75,-175 266.75,-143 370.5,-143 370.5,-175"/>
<text text-anchor="start" x="274.75" y="-163.4" font-family="SourceSans" font-size="8.00">svg::get_circumference</text>
<text text-anchor="middle" x="318.62" y="-151.4" font-family="SourceSans" font-size="8.00">_point_r</text>
</a>
</g>
</g>
<!-- Node2&#45;&gt;Node3 -->
<g id="edge2_Node000002_Node000003" class="edge">
<title>Node2&#45;&gt;Node3</title>
<g id="a_edge2_Node000002_Node000003"><a xlink:title=" ">
<path fill="none" stroke="#63b8ff" d="M226.73,-148.14C235.9,-149.23 245.54,-150.38 254.98,-151.51"/>
<polygon fill="#63b8ff" stroke="#63b8ff" points="254.5,-154.98 264.84,-152.69 255.33,-148.03 254.5,-154.98"/>
</a>
</g>
</g>
<!-- Node4 -->
<g id="Node000004" class="node">
<title>Node4</title>
<g id="a_Node000004"><a xlink:href="namespacesvg_1_1constants.html#a0e0b0d9314bc47324ee39884bf8bb2fd" target="_top" xlink:title=" ">
<polygon fill="white" stroke="#666666" points="359.62,-125 277.62,-125 277.62,-105 359.62,-105 359.62,-125"/>
<text text-anchor="middle" x="318.62" y="-113.4" font-family="SourceSans" font-size="8.00">svg::constants::pi</text>
</a>
</g>
</g>
<!-- Node2&#45;&gt;Node4 -->
<g id="edge3_Node000002_Node000004" class="edge">
<title>Node2&#45;&gt;Node4</title>
<g id="a_edge3_Node000002_Node000004"><a xlink:title=" ">
<path fill="none" stroke="#63b8ff" d="M226.73,-132.25C239.66,-129.8 253.53,-127.17 266.45,-124.71"/>
<polygon fill="#63b8ff" stroke="#63b8ff" points="266.84,-128.2 276.02,-122.9 265.54,-121.32 266.84,-128.2"/>
</a>
</g>
</g>
<!-- Node7 -->
<g id="Node000007" class="node">
<title>Node7</title>
<g id="a_Node000007"><a xlink:href="namespacesvg_1_1constants.html#ac460bc8db60d85c3ae1cf8b1a903405e" target="_top" xlink:title="Formatting character constants.">
<polygon fill="white" stroke="#666666" points="366.75,-84 270.5,-84 270.5,-64 366.75,-64 366.75,-84"/>
<text text-anchor="middle" x="318.62" y="-72.4" font-family="SourceSans" font-size="8.00">svg::constants::space</text>
</a>
</g>
</g>
<!-- Node6&#45;&gt;Node7 -->
<g id="edge6_Node000006_Node000007" class="edge">
<title>Node6&#45;&gt;Node7</title>
<g id="a_edge6_Node000006_Node000007"><a xlink:title=" ">
<path fill="none" stroke="#63b8ff" d="M219.99,-60.27C232.35,-62.01 245.94,-63.92 258.96,-65.75"/>
<polygon fill="#63b8ff" stroke="#63b8ff" points="258.32,-69.2 268.71,-67.12 259.3,-62.26 258.32,-69.2"/>
</a>
</g>
</g>
<!-- Node8 -->
<g id="Node000008" class="node">
<title>Node8</title>
<g id="a_Node000008"><a xlink:href="namespacesvg.html#a36b1c48ad4601b205790e3772ad0a7b6" target="_top" xlink:title=" ">
<polygon fill="white" stroke="#666666" points="352.12,-46 285.12,-46 285.12,-26 352.12,-26 352.12,-46"/>
<text text-anchor="middle" x="318.62" y="-34.4" font-family="SourceSans" font-size="8.00">svg::to_string</text>
</a>
</g>
</g>
<!-- Node6&#45;&gt;Node8 -->
<g id="edge7_Node000006_Node000008" class="edge">
<title>Node6&#45;&gt;Node8</title>
<g id="a_edge7_Node000006_Node000008"><a xlink:title=" ">
<path fill="none" stroke="#63b8ff" d="M219.99,-48.35C237.07,-46.19 256.53,-43.73 273.56,-41.58"/>
<polygon fill="#63b8ff" stroke="#63b8ff" points="273.92,-45.06 283.4,-40.33 273.04,-38.11 273.92,-45.06"/>
</a>
</g>
</g>
</g>
</svg>
</svg>

<style type='text/css'>
<![CDATA[
[data-mouse-over-selected='false'] { opacity: 0.7; }
[data-mouse-over-selected='true']  { opacity: 1.0; }
]]>
</style>
<script type="application/ecmascript"><![CDATA[
document.addEventListener('DOMContentLoaded', (event) => {
  highlightEdges();
  highlightAdjacentNodes();
});
]]></script>
</svg>
