<?xml version="1.0" encoding="UTF-8" standalone="no"?>
<!DOCTYPE svg PUBLIC "-//W3C//DTD SVG 1.1//EN"
 "http://www.w3.org/Graphics/SVG/1.1/DTD/svg11.dtd">
<!-- Generated by graphviz version 13.1.2 (20250808.2320)
 -->
<!-- Title: svg::analyze_metadata_aggregate_chord Pages: 1 -->
<svg width="1317pt" height="677pt"
 viewBox="0.00 0.00 1317.00 677.00" xmlns="http://www.w3.org/2000/svg" xmlns:xlink="http://www.w3.org/1999/xlink">
<g id="graph0" class="graph" transform="scale(1 1) rotate(0) translate(4 673)">
<title>svg::analyze_metadata_aggregate_chord</title>
<!-- Node1 -->
<g id="Node000001" class="node">
<title>Node1</title>
<g id="a_Node000001"><a xlink:title="Analyze metadata directory or subset of it, and generate summary output for all in directory.">
<polygon fill="#999999" stroke="#666666" points="102.25,-454 0,-454 0,-422 102.25,-422 102.25,-454"/>
<text xml:space="preserve" text-anchor="start" x="8" y="-442.4" font-family="SourceSans" font-size="8.00">svg::analyze_metadata</text>
<text xml:space="preserve" text-anchor="middle" x="51.12" y="-430.4" font-family="SourceSans" font-size="8.00">_aggregate_chord</text>
</a>
</g>
</g>
<!-- Node2 -->
<g id="Node000002" class="node">
<title>Node2</title>
<g id="a_Node000002"><a xlink:href="namespacesvg.html#a8e59007d359abaf8167d995843d2cf0c" target="_top" xlink:title="Analyze metadata directory or subset of it and generate summary output for all in directory.">
<polygon fill="white" stroke="#666666" points="237.5,-454 138.25,-454 138.25,-422 237.5,-422 237.5,-454"/>
<text xml:space="preserve" text-anchor="start" x="146.25" y="-442.4" font-family="SourceSans" font-size="8.00">svg::render_metadata</text>
<text xml:space="preserve" text-anchor="middle" x="187.88" y="-430.4" font-family="SourceSans" font-size="8.00">_aggregate_chord</text>
</a>
</g>
</g>
<!-- Node1&#45;&gt;Node2 -->
<g id="edge1_Node000001_Node000002" class="edge">
<title>Node1&#45;&gt;Node2</title>
<g id="a_edge1_Node000001_Node000002"><a xlink:title=" ">
<path fill="none" stroke="#63b8ff" d="M102.68,-438C110.41,-438 118.45,-438 126.37,-438"/>
<polygon fill="#63b8ff" stroke="#63b8ff" points="126.31,-441.5 136.31,-438 126.31,-434.5 126.31,-441.5"/>
</a>
</g>
</g>
<!-- Node3 -->
<g id="Node000003" class="node">
<title>Node3</title>
<g id="a_Node000003"><a xlink:href="namespacesvg.html#a176f5ccc0d8986403cf1d3fca8fcc6c8" target="_top" xlink:title=" ">
<polygon fill="white" stroke="#666666" points="364.5,-429 273.5,-429 273.5,-409 364.5,-409 364.5,-429"/>
<text xml:space="preserve" text-anchor="middle" x="319" y="-417.4" font-family="SourceSans" font-size="8.00">svg::h_chord_graph</text>
</a>
</g>
</g>
<!-- Node2&#45;&gt;Node3 -->
<g id="edge2_Node000002_Node000003" class="edge">
<title>Node2&#45;&gt;Node3</title>
<g id="a_edge2_Node000002_Node000003"><a xlink:title=" ">
<path fill="none" stroke="#63b8ff" d="M237.69,-430.82C245.65,-429.65 253.95,-428.42 262.07,-427.23"/>
<polygon fill="#63b8ff" stroke="#63b8ff" points="262.48,-430.71 271.87,-425.79 261.46,-423.78 262.48,-430.71"/>
</a>
</g>
</g>
<!-- Node36 -->
<g id="Node000036" class="node">
<title>Node36</title>
<g id="a_Node000036"><a xlink:href="namespacesvg.html#a1309ce987f4e87ad97a1f3638a7af541" target="_top" xlink:title="Text at size, with a transformation=rotation.">
<polygon fill="white" stroke="#666666" points="358.12,-549 279.88,-549 279.88,-529 358.12,-529 358.12,-549"/>
<text xml:space="preserve" text-anchor="middle" x="319" y="-537.4" font-family="SourceSans" font-size="8.00">svg::sized_text_r</text>
</a>
</g>
</g>
<!-- Node2&#45;&gt;Node36 -->
<g id="edge49_Node000002_Node000036" class="edge">
<title>Node2&#45;&gt;Node36</title>
<g id="a_edge49_Node000002_Node000036"><a xlink:title=" ">
<path fill="none" stroke="#63b8ff" d="M209.91,-454.45C233.63,-473.01 272.03,-503.04 296.1,-521.87"/>
<polygon fill="#63b8ff" stroke="#63b8ff" points="293.63,-524.38 303.67,-527.79 297.95,-518.87 293.63,-524.38"/>
</a>
</g>
</g>
<!-- Node4 -->
<g id="Node000004" class="node">
<title>Node4</title>
<g id="a_Node000004"><a xlink:href="group__elements.html#ada0333b46b2547c6152f3f5811016a12" target="_top" xlink:title=" ">
<polygon fill="white" stroke="#666666" points="884.88,-558 793.88,-558 793.88,-526 884.88,-526 884.88,-558"/>
<text xml:space="preserve" text-anchor="start" x="801.88" y="-546.4" font-family="SourceSans" font-size="8.00">svg::element_base::</text>
<text xml:space="preserve" text-anchor="middle" x="839.38" y="-534.4" font-family="SourceSans" font-size="8.00">add_element</text>
</a>
</g>
</g>
<!-- Node3&#45;&gt;Node4 -->
<g id="edge3_Node000003_Node000004" class="edge">
<title>Node3&#45;&gt;Node4</title>
<g id="a_edge3_Node000003_Node000004"><a xlink:title=" ">
<path fill="none" stroke="#63b8ff" d="M324.1,-429.37C333.6,-451.81 359.49,-504.59 400.5,-526 465.27,-559.82 679.39,-551.89 782.25,-545.83"/>
<polygon fill="#63b8ff" stroke="#63b8ff" points="782.35,-549.33 792.12,-545.23 781.93,-542.34 782.35,-549.33"/>
</a>
</g>
</g>
<!-- Node6 -->
<g id="Node000006" class="node">
<title>Node6</title>
<g id="a_Node000006"><a xlink:href="namespacesvg.html#a764da2292bc40af6c5f68c91f5e761f3" target="_top" xlink:title=" ">
<polygon fill="white" stroke="#666666" points="622.62,-467 551.12,-467 551.12,-447 622.62,-447 622.62,-467"/>
<text xml:space="preserve" text-anchor="middle" x="586.88" y="-455.4" font-family="SourceSans" font-size="8.00">svg::ctopspace</text>
</a>
</g>
</g>
<!-- Node3&#45;&gt;Node6 -->
<g id="edge5_Node000003_Node000006" class="edge">
<title>Node3&#45;&gt;Node6</title>
<g id="a_edge5_Node000003_Node000006"><a xlink:title=" ">
<path fill="none" stroke="#63b8ff" d="M364.65,-427.12C376.3,-429.14 388.86,-431.24 400.5,-433 447.9,-440.19 502.32,-447.07 539.87,-451.61"/>
<polygon fill="#63b8ff" stroke="#63b8ff" points="539.11,-455.04 549.46,-452.76 539.95,-448.09 539.11,-455.04"/>
</a>
</g>
</g>
<!-- Node7 -->
<g id="Node000007" class="node">
<title>Node7</title>
<g id="a_Node000007"><a xlink:href="namespacesvg.html#ad2b6aa46fdfc43578e5da3532fe4e199" target="_top" xlink:title="Compute xoffset.">
<polygon fill="white" stroke="#666666" points="624.12,-429 549.62,-429 549.62,-409 624.12,-409 624.12,-429"/>
<text xml:space="preserve" text-anchor="middle" x="586.88" y="-417.4" font-family="SourceSans" font-size="8.00">svg::get_xoffset</text>
</a>
</g>
</g>
<!-- Node3&#45;&gt;Node7 -->
<g id="edge6_Node000003_Node000007" class="edge">
<title>Node3&#45;&gt;Node7</title>
<g id="a_edge6_Node000003_Node000007"><a xlink:title=" ">
<path fill="none" stroke="#63b8ff" d="M364.8,-419C412.89,-419 488.99,-419 538.17,-419"/>
<polygon fill="#63b8ff" stroke="#63b8ff" points="537.94,-422.5 547.94,-419 537.94,-415.5 537.94,-422.5"/>
</a>
</g>
</g>
<!-- Node8 -->
<g id="Node000008" class="node">
<title>Node8</title>
<g id="a_Node000008"><a xlink:href="namespacesvg.html#ac80f26b9ac327931444209d57665618f" target="_top" xlink:title="Grid, titles, labels for h_chord_graph.">
<polygon fill="white" stroke="#666666" points="500.88,-391 409.88,-391 409.88,-359 500.88,-359 500.88,-391"/>
<text xml:space="preserve" text-anchor="start" x="417.88" y="-379.4" font-family="SourceSans" font-size="8.00">svg::h_chord_graph</text>
<text xml:space="preserve" text-anchor="middle" x="455.38" y="-367.4" font-family="SourceSans" font-size="8.00">_labels</text>
</a>
</g>
</g>
<!-- Node3&#45;&gt;Node8 -->
<g id="edge7_Node000003_Node000008" class="edge">
<title>Node3&#45;&gt;Node8</title>
<g id="a_edge7_Node000003_Node000008"><a xlink:title=" ">
<path fill="none" stroke="#63b8ff" d="M351.84,-408.57C365.84,-403.99 382.7,-398.47 398.67,-393.24"/>
<polygon fill="#63b8ff" stroke="#63b8ff" points="399.69,-396.59 408.1,-390.15 397.51,-389.94 399.69,-396.59"/>
</a>
</g>
</g>
<!-- Node9 -->
<g id="Node000009" class="node">
<title>Node9</title>
<g id="a_Node000009"><a xlink:href="namespacesvg.html#a50cee409872b198b159fcc57222d143b" target="_top" xlink:title=" ">
<polygon fill="white" stroke="#666666" points="619.62,-352 554.12,-352 554.12,-332 619.62,-332 619.62,-352"/>
<text xml:space="preserve" text-anchor="middle" x="586.88" y="-340.4" font-family="SourceSans" font-size="8.00">svg::hdenom</text>
</a>
</g>
</g>
<!-- Node3&#45;&gt;Node9 -->
<g id="edge36_Node000003_Node000009" class="edge">
<title>Node3&#45;&gt;Node9</title>
<g id="a_edge36_Node000003_Node000009"><a xlink:title=" ">
<path fill="none" stroke="#63b8ff" d="M328.05,-408.65C341.19,-392.64 369,-362.43 400.5,-350 446.39,-331.89 503.72,-332.59 542.38,-336.07"/>
<polygon fill="#63b8ff" stroke="#63b8ff" points="541.94,-339.54 552.24,-337.07 542.64,-332.58 541.94,-339.54"/>
</a>
</g>
</g>
<!-- Node10 -->
<g id="Node000010" class="node">
<title>Node10</title>
<g id="a_Node000010"><a xlink:href="namespacesvg.html#a362fbc62daf1dcadc38651ee85b81513" target="_top" xlink:title="Distance between label and top/bottom of line or text.">
<polygon fill="white" stroke="#666666" points="621.88,-308 551.88,-308 551.88,-288 621.88,-288 621.88,-308"/>
<text xml:space="preserve" text-anchor="middle" x="586.88" y="-296.4" font-family="SourceSans" font-size="8.00">svg::ltopspace</text>
</a>
</g>
</g>
<!-- Node3&#45;&gt;Node10 -->
<g id="edge37_Node000003_Node000010" class="edge">
<title>Node3&#45;&gt;Node10</title>
<g id="a_edge37_Node000003_Node000010"><a xlink:title=" ">
<path fill="none" stroke="#63b8ff" d="M326.01,-408.71C337.7,-389.71 365.46,-349.29 400.5,-330 443.89,-306.11 500.94,-299.3 540.23,-297.71"/>
<polygon fill="#63b8ff" stroke="#63b8ff" points="540.16,-301.21 550.05,-297.42 539.95,-294.22 540.16,-301.21"/>
</a>
</g>
</g>
<!-- Node11 -->
<g id="Node000011" class="node">
<title>Node11</title>
<g id="a_Node000011"><a xlink:href="namespacesvg.html#a0352c1350268fb7ecd96ea81908417e7" target="_top" xlink:title="Line primitive.">
<polygon fill="white" stroke="#666666" points="623,-267 550.75,-267 550.75,-247 623,-247 623,-267"/>
<text xml:space="preserve" text-anchor="middle" x="586.88" y="-255.4" font-family="SourceSans" font-size="8.00">svg::make_line</text>
</a>
</g>
</g>
<!-- Node3&#45;&gt;Node11 -->
<g id="edge38_Node000003_Node000011" class="edge">
<title>Node3&#45;&gt;Node11</title>
<g id="a_edge38_Node000003_Node000011"><a xlink:title=" ">
<path fill="none" stroke="#63b8ff" d="M323.55,-408.77C332.42,-384.85 357.93,-325.08 400.5,-296 441.65,-267.89 499.04,-259.39 539.02,-257.14"/>
<polygon fill="#63b8ff" stroke="#63b8ff" points="538.98,-260.64 548.81,-256.71 538.67,-253.65 538.98,-260.64"/>
</a>
</g>
</g>
<!-- Node18 -->
<g id="Node000018" class="node">
<title>Node18</title>
<g id="a_Node000018"><a xlink:href="namespacesvg.html#aba9f46c82a468e5594eedb3b4ff14f9e" target="_top" xlink:title="Text at size.">
<polygon fill="white" stroke="#666666" points="622.62,-593 551.12,-593 551.12,-573 622.62,-573 622.62,-593"/>
<text xml:space="preserve" text-anchor="middle" x="586.88" y="-581.4" font-family="SourceSans" font-size="8.00">svg::sized_text</text>
</a>
</g>
</g>
<!-- Node3&#45;&gt;Node18 -->
<g id="edge48_Node000003_Node000018" class="edge">
<title>Node3&#45;&gt;Node18</title>
<g id="a_edge48_Node000003_Node000018"><a xlink:title=" ">
<path fill="none" stroke="#63b8ff" d="M324.49,-429.35C337.53,-458.92 376.02,-542.65 400.5,-559 441.64,-586.48 499.52,-589.74 539.62,-587.88"/>
<polygon fill="#63b8ff" stroke="#63b8ff" points="539.65,-591.39 549.43,-587.29 539.23,-584.4 539.65,-591.39"/>
</a>
</g>
</g>
<!-- Node29 -->
<g id="Node000029" class="node">
<title>Node29</title>
<g id="a_Node000029"><a xlink:href="namespacesvg.html#a7a295be306c0550a690075e94c1dfd46" target="_top" xlink:title="Create rect_element centered at origin.">
<polygon fill="white" stroke="#666666" points="510.25,-167 400.5,-167 400.5,-147 510.25,-147 510.25,-167"/>
<text xml:space="preserve" text-anchor="middle" x="455.38" y="-155.4" font-family="SourceSans" font-size="8.00">svg::make_rect_centered</text>
</a>
</g>
</g>
<!-- Node3&#45;&gt;Node29 -->
<g id="edge39_Node000003_Node000029" class="edge">
<title>Node3&#45;&gt;Node29</title>
<g id="a_edge39_Node000003_Node000029"><a xlink:title=" ">
<path fill="none" stroke="#63b8ff" d="M324.04,-408.71C335.04,-381 367,-302.7 400.5,-241 412.89,-218.18 429.24,-193.29 440.67,-176.57"/>
<polygon fill="#63b8ff" stroke="#63b8ff" points="443.4,-178.77 446.21,-168.55 437.64,-174.79 443.4,-178.77"/>
</a>
</g>
</g>
<!-- Node35 -->
<g id="Node000035" class="node">
<title>Node35</title>
<g id="a_Node000035"><a xlink:href="namespacesvg.html#a2e5178befe99e2a7d5ede3c02088055f" target="_top" xlink:title="Scale value from min to max on range (nfloor, nceil).">
<polygon fill="white" stroke="#666666" points="500.12,-517 410.62,-517 410.62,-485 500.12,-485 500.12,-517"/>
<text xml:space="preserve" text-anchor="start" x="418.62" y="-505.4" font-family="SourceSans" font-size="8.00">svg::scale_value_on</text>
<text xml:space="preserve" text-anchor="middle" x="455.38" y="-493.4" font-family="SourceSans" font-size="8.00">_range</text>
</a>
</g>
</g>
<!-- Node3&#45;&gt;Node35 -->
<g id="edge47_Node000003_Node000035" class="edge">
<title>Node3&#45;&gt;Node35</title>
<g id="a_edge47_Node000003_Node000035"><a xlink:title=" ">
<path fill="none" stroke="#63b8ff" d="M335.54,-429.47C351.62,-440.2 377.54,-457.21 400.5,-471 404.85,-473.61 409.44,-476.29 414.02,-478.91"/>
<polygon fill="#63b8ff" stroke="#63b8ff" points="412.23,-481.91 422.65,-483.78 415.67,-475.82 412.23,-481.91"/>
</a>
</g>
</g>
<!-- Node5 -->
<g id="Node000005" class="node">
<title>Node5</title>
<g id="a_Node000005"><a xlink:href="group__elements.html#ad893ef9c13a15464c96d8a85c08af30f" target="_top" xlink:title=" ">
<polygon fill="white" stroke="#666666" points="1025,-416 924.25,-416 924.25,-396 1025,-396 1025,-416"/>
<text xml:space="preserve" text-anchor="middle" x="974.62" y="-404.4" font-family="SourceSans" font-size="8.00">svg::element_base::str</text>
</a>
</g>
</g>
<!-- Node4&#45;&gt;Node5 -->
<g id="edge4_Node000004_Node000005" class="edge">
<title>Node4&#45;&gt;Node5</title>
<g id="a_edge4_Node000004_Node000005"><a xlink:title=" ">
<path fill="none" stroke="#63b8ff" d="M848.12,-525.71C860.75,-500.74 888.06,-452.97 924.25,-425 925.75,-423.84 927.33,-422.75 928.96,-421.71"/>
<polygon fill="#63b8ff" stroke="#63b8ff" points="930.3,-424.97 937.45,-417.15 926.98,-418.8 930.3,-424.97"/>
</a>
</g>
</g>
<!-- Node8&#45;&gt;Node4 -->
<g id="edge8_Node000008_Node000004" class="edge">
<title>Node8&#45;&gt;Node4</title>
<g id="a_edge8_Node000008_Node000004"><a xlink:title=" ">
<path fill="none" stroke="#63b8ff" d="M501.36,-376.13C536.7,-378.29 586.61,-384.2 627.5,-400 700.68,-428.29 773.9,-485.75 811.82,-518.24"/>
<polygon fill="#63b8ff" stroke="#63b8ff" points="809.25,-520.64 819.1,-524.55 813.84,-515.35 809.25,-520.64"/>
</a>
</g>
</g>
<!-- Node8&#45;&gt;Node6 -->
<g id="edge9_Node000008_Node000006" class="edge">
<title>Node8&#45;&gt;Node6</title>
<g id="a_edge9_Node000008_Node000006"><a xlink:title=" ">
<path fill="none" stroke="#63b8ff" d="M477.51,-391.3C495.32,-404.68 521.74,-423.67 546.25,-438 548.26,-439.17 550.35,-440.34 552.47,-441.48"/>
<polygon fill="#63b8ff" stroke="#63b8ff" points="550.65,-444.47 561.15,-445.89 553.82,-438.23 550.65,-444.47"/>
</a>
</g>
</g>
<!-- Node8&#45;&gt;Node7 -->
<g id="edge10_Node000008_Node000007" class="edge">
<title>Node8&#45;&gt;Node7</title>
<g id="a_edge10_Node000008_Node000007"><a xlink:title=" ">
<path fill="none" stroke="#63b8ff" d="M501.3,-390.27C515.37,-395.04 530.81,-400.29 544.61,-404.98"/>
<polygon fill="#63b8ff" stroke="#63b8ff" points="543.24,-408.21 553.84,-408.11 545.49,-401.58 543.24,-408.21"/>
</a>
</g>
</g>
<!-- Node8&#45;&gt;Node9 -->
<g id="edge11_Node000008_Node000009" class="edge">
<title>Node8&#45;&gt;Node9</title>
<g id="a_edge11_Node000008_Node000009"><a xlink:title=" ">
<path fill="none" stroke="#63b8ff" d="M501.3,-363.55C514.77,-360.12 529.51,-356.36 542.85,-352.96"/>
<polygon fill="#63b8ff" stroke="#63b8ff" points="543.38,-356.44 552.21,-350.58 541.65,-349.66 543.38,-356.44"/>
</a>
</g>
</g>
<!-- Node8&#45;&gt;Node10 -->
<g id="edge12_Node000008_Node000010" class="edge">
<title>Node8&#45;&gt;Node10</title>
<g id="a_edge12_Node000008_Node000010"><a xlink:title=" ">
<path fill="none" stroke="#63b8ff" d="M483.84,-358.67C505.89,-345.56 536.69,-327.25 558.67,-314.18"/>
<polygon fill="#63b8ff" stroke="#63b8ff" points="560.27,-317.3 567.08,-309.18 556.69,-311.28 560.27,-317.3"/>
</a>
</g>
</g>
<!-- Node8&#45;&gt;Node11 -->
<g id="edge13_Node000008_Node000011" class="edge">
<title>Node8&#45;&gt;Node11</title>
<g id="a_edge13_Node000008_Node000011"><a xlink:title=" ">
<path fill="none" stroke="#63b8ff" d="M469.05,-358.58C485.36,-338.19 515.29,-303.16 546.25,-279 548.81,-277 551.57,-275.08 554.41,-273.26"/>
<polygon fill="#63b8ff" stroke="#63b8ff" points="556.02,-276.37 562.83,-268.26 552.44,-270.35 556.02,-276.37"/>
</a>
</g>
</g>
<!-- Node8&#45;&gt;Node18 -->
<g id="edge20_Node000008_Node000018" class="edge">
<title>Node8&#45;&gt;Node18</title>
<g id="a_edge20_Node000008_Node000018"><a xlink:title=" ">
<path fill="none" stroke="#63b8ff" d="M466.54,-391.32C489.96,-428.95 547.71,-521.7 573.31,-562.82"/>
<polygon fill="#63b8ff" stroke="#63b8ff" points="570.3,-564.6 578.55,-571.24 576.24,-560.9 570.3,-564.6"/>
</a>
</g>
</g>
<!-- Node12 -->
<g id="Node000012" class="node">
<title>Node12</title>
<g id="a_Node000012"><a xlink:href="group__elements.html#a306eac4c5a7ea755ab6375a65489366f" target="_top" xlink:title=" ">
<polygon fill="white" stroke="#666666" points="883,-264 795.75,-264 795.75,-232 883,-232 883,-264"/>
<text xml:space="preserve" text-anchor="start" x="803.75" y="-252.4" font-family="SourceSans" font-size="8.00">svg::line_element::</text>
<text xml:space="preserve" text-anchor="middle" x="839.38" y="-240.4" font-family="SourceSans" font-size="8.00">add_data</text>
</a>
</g>
</g>
<!-- Node11&#45;&gt;Node12 -->
<g id="edge14_Node000011_Node000012" class="edge">
<title>Node11&#45;&gt;Node12</title>
<g id="a_edge14_Node000011_Node000012"><a xlink:title=" ">
<path fill="none" stroke="#63b8ff" d="M623.5,-255.72C665.39,-254.21 735.37,-251.7 784.04,-249.95"/>
<polygon fill="#63b8ff" stroke="#63b8ff" points="783.93,-253.46 793.8,-249.6 783.68,-246.46 783.93,-253.46"/>
</a>
</g>
</g>
<!-- Node14 -->
<g id="Node000014" class="node">
<title>Node14</title>
<g id="a_Node000014"><a xlink:href="group__elements.html#a238b38ca99a1cf6c2baf80c8e4338d99" target="_top" xlink:title=" ">
<polygon fill="white" stroke="#666666" points="754.5,-220 663.5,-220 663.5,-188 754.5,-188 754.5,-220"/>
<text xml:space="preserve" text-anchor="start" x="671.5" y="-208.4" font-family="SourceSans" font-size="8.00">svg::element_base::</text>
<text xml:space="preserve" text-anchor="middle" x="709" y="-196.4" font-family="SourceSans" font-size="8.00">add_style</text>
</a>
</g>
</g>
<!-- Node11&#45;&gt;Node14 -->
<g id="edge16_Node000011_Node000014" class="edge">
<title>Node11&#45;&gt;Node14</title>
<g id="a_edge16_Node000011_Node000014"><a xlink:title=" ">
<path fill="none" stroke="#63b8ff" d="M611.61,-246.53C625.65,-240.33 643.94,-232.27 660.8,-224.82"/>
<polygon fill="#63b8ff" stroke="#63b8ff" points="661.95,-228.14 669.69,-220.9 659.12,-221.74 661.95,-228.14"/>
</a>
</g>
</g>
<!-- Node16 -->
<g id="Node000016" class="node">
<title>Node16</title>
<g id="a_Node000016"><a xlink:href="group__elements.html#ga4769af15793cb308d426abb5fd552df5" target="_top" xlink:title=" ">
<polygon fill="white" stroke="#666666" points="752.62,-308 665.38,-308 665.38,-276 752.62,-276 752.62,-308"/>
<text xml:space="preserve" text-anchor="start" x="673.38" y="-296.4" font-family="SourceSans" font-size="8.00">svg::line_element::</text>
<text xml:space="preserve" text-anchor="middle" x="709" y="-284.4" font-family="SourceSans" font-size="8.00">finish_element</text>
</a>
</g>
</g>
<!-- Node11&#45;&gt;Node16 -->
<g id="edge18_Node000011_Node000016" class="edge">
<title>Node11&#45;&gt;Node16</title>
<g id="a_edge18_Node000011_Node000016"><a xlink:title=" ">
<path fill="none" stroke="#63b8ff" d="M623.27,-267.31C633.03,-270.16 643.84,-273.31 654.38,-276.38"/>
<polygon fill="#63b8ff" stroke="#63b8ff" points="653.18,-279.67 663.76,-279.11 655.14,-272.95 653.18,-279.67"/>
</a>
</g>
</g>
<!-- Node17 -->
<g id="Node000017" class="node">
<title>Node17</title>
<g id="a_Node000017"><a xlink:href="group__elements.html#aa6b4ba04be5858b4943235801f034943" target="_top" xlink:title=" ">
<polygon fill="white" stroke="#666666" points="752.62,-358 665.38,-358 665.38,-326 752.62,-326 752.62,-358"/>
<text xml:space="preserve" text-anchor="start" x="673.38" y="-346.4" font-family="SourceSans" font-size="8.00">svg::line_element::</text>
<text xml:space="preserve" text-anchor="middle" x="709" y="-334.4" font-family="SourceSans" font-size="8.00">start_element</text>
</a>
</g>
</g>
<!-- Node11&#45;&gt;Node17 -->
<g id="edge19_Node000011_Node000017" class="edge">
<title>Node11&#45;&gt;Node17</title>
<g id="a_edge19_Node000011_Node000017"><a xlink:title=" ">
<path fill="none" stroke="#63b8ff" d="M609.19,-267.28C615.35,-270.65 621.9,-274.66 627.5,-279 645.88,-293.26 645.15,-302.7 663.5,-317 664.6,-317.86 665.73,-318.71 666.89,-319.54"/>
<polygon fill="#63b8ff" stroke="#63b8ff" points="664.59,-322.21 674.86,-324.82 668.46,-316.38 664.59,-322.21"/>
</a>
</g>
</g>
<!-- Node13 -->
<g id="Node000013" class="node">
<title>Node13</title>
<g id="a_Node000013"><a xlink:href="namespacesvg.html#a48ac748e89e22789d1772326a98dd7b6" target="_top" xlink:title=" ">
<polygon fill="white" stroke="#666666" points="1294.75,-271 1207.5,-271 1207.5,-251 1294.75,-251 1294.75,-271"/>
<text xml:space="preserve" text-anchor="middle" x="1251.12" y="-259.4" font-family="SourceSans" font-size="8.00">svg::string_replace</text>
</a>
</g>
</g>
<!-- Node12&#45;&gt;Node13 -->
<g id="edge15_Node000012_Node000013" class="edge">
<title>Node12&#45;&gt;Node13</title>
<g id="a_edge15_Node000012_Node000013"><a xlink:title=" ">
<path fill="none" stroke="#63b8ff" d="M883.43,-249.02C944.4,-250.52 1059.35,-253.5 1157.25,-257 1169.72,-257.45 1183.13,-257.99 1195.78,-258.53"/>
<polygon fill="#63b8ff" stroke="#63b8ff" points="1195.47,-262.02 1205.62,-258.95 1195.78,-255.02 1195.47,-262.02"/>
</a>
</g>
</g>
<!-- Node15 -->
<g id="Node000015" class="node">
<title>Node15</title>
<g id="a_Node000015"><a xlink:href="namespacesvg.html#a36b1c48ad4601b205790e3772ad0a7b6" target="_top" xlink:title=" ">
<polygon fill="white" stroke="#666666" points="1284.62,-378 1217.62,-378 1217.62,-358 1284.62,-358 1284.62,-378"/>
<text xml:space="preserve" text-anchor="middle" x="1251.12" y="-366.4" font-family="SourceSans" font-size="8.00">svg::to_string</text>
</a>
</g>
</g>
<!-- Node14&#45;&gt;Node15 -->
<g id="edge17_Node000014_Node000015" class="edge">
<title>Node14&#45;&gt;Node15</title>
<g id="a_edge17_Node000014_Node000015"><a xlink:title=" ">
<path fill="none" stroke="#63b8ff" d="M754.71,-202.44C791.7,-202.61 844.99,-206.31 888.25,-223 976.91,-257.2 972.23,-315.07 1061,-349 1108.17,-367.03 1166.53,-370.3 1205.84,-370"/>
<polygon fill="#63b8ff" stroke="#63b8ff" points="1205.69,-373.51 1215.63,-369.84 1205.58,-366.51 1205.69,-373.51"/>
</a>
</g>
</g>
<!-- Node19 -->
<g id="Node000019" class="node">
<title>Node19</title>
<g id="a_Node000019"><a xlink:href="namespacesvg.html#a1f7d3202fb81e08877157baf0ad6ccdf" target="_top" xlink:title="Text at.">
<polygon fill="white" stroke="#666666" points="746.25,-593 671.75,-593 671.75,-573 746.25,-573 746.25,-593"/>
<text xml:space="preserve" text-anchor="middle" x="709" y="-581.4" font-family="SourceSans" font-size="8.00">svg::styled_text</text>
</a>
</g>
</g>
<!-- Node18&#45;&gt;Node19 -->
<g id="edge21_Node000018_Node000019" class="edge">
<title>Node18&#45;&gt;Node19</title>
<g id="a_edge21_Node000018_Node000019"><a xlink:title=" ">
<path fill="none" stroke="#63b8ff" d="M622.94,-583C634.61,-583 647.8,-583 660.26,-583"/>
<polygon fill="#63b8ff" stroke="#63b8ff" points="659.91,-586.5 669.91,-583 659.91,-579.5 659.91,-586.5"/>
</a>
</g>
</g>
<!-- Node19&#45;&gt;Node4 -->
<g id="edge22_Node000019_Node000004" class="edge">
<title>Node19&#45;&gt;Node4</title>
<g id="a_edge22_Node000019_Node000004"><a xlink:title=" ">
<path fill="none" stroke="#63b8ff" d="M742.73,-572.55C754.92,-568.65 769.12,-564.12 782.8,-559.75"/>
<polygon fill="#63b8ff" stroke="#63b8ff" points="783.7,-563.14 792.16,-556.76 781.57,-556.47 783.7,-563.14"/>
</a>
</g>
</g>
<!-- Node20 -->
<g id="Node000020" class="node">
<title>Node20</title>
<g id="a_Node000020"><a xlink:href="namespacesvg.html#a74ca2344cea417d9107d56f4f53c5b0b" target="_top" xlink:title="Text element at.">
<polygon fill="white" stroke="#666666" points="874,-596 804.75,-596 804.75,-576 874,-576 874,-596"/>
<text xml:space="preserve" text-anchor="middle" x="839.38" y="-584.4" font-family="SourceSans" font-size="8.00">svg::style_text</text>
</a>
</g>
</g>
<!-- Node19&#45;&gt;Node20 -->
<g id="edge23_Node000019_Node000020" class="edge">
<title>Node19&#45;&gt;Node20</title>
<g id="a_edge23_Node000019_Node000020"><a xlink:title=" ">
<path fill="none" stroke="#63b8ff" d="M746.44,-583.85C760.98,-584.19 777.86,-584.59 793.16,-584.94"/>
<polygon fill="#63b8ff" stroke="#63b8ff" points="792.89,-588.44 802.97,-585.17 793.05,-581.44 792.89,-588.44"/>
</a>
</g>
</g>
<!-- Node21 -->
<g id="Node000021" class="node">
<title>Node21</title>
<g id="a_Node000021"><a xlink:href="group__elements.html#aad29e1daf75bdcd69a39575a6807fa0f" target="_top" xlink:title="Either serialize immediately (as below), or create data structure that adds data to data_vec and then...">
<polygon fill="white" stroke="#666666" points="1018.62,-466 930.62,-466 930.62,-434 1018.62,-434 1018.62,-466"/>
<text xml:space="preserve" text-anchor="start" x="938.62" y="-454.4" font-family="SourceSans" font-size="8.00">svg::text_element::</text>
<text xml:space="preserve" text-anchor="middle" x="974.62" y="-442.4" font-family="SourceSans" font-size="8.00">add_data</text>
</a>
</g>
</g>
<!-- Node20&#45;&gt;Node21 -->
<g id="edge24_Node000020_Node000021" class="edge">
<title>Node20&#45;&gt;Node21</title>
<g id="a_edge24_Node000020_Node000021"><a xlink:title=" ">
<path fill="none" stroke="#63b8ff" d="M873.63,-575.65C878.8,-573.26 883.87,-570.4 888.25,-567 920.22,-542.23 945.72,-502.4 960.26,-476.21"/>
<polygon fill="#63b8ff" stroke="#63b8ff" points="963.25,-478.04 964.91,-467.57 957.09,-474.72 963.25,-478.04"/>
</a>
</g>
</g>
<!-- Node27 -->
<g id="Node000027" class="node">
<title>Node27</title>
<g id="a_Node000027"><a xlink:href="group__elements.html#ga13c46848317034d16c62a7d2061ba3d6" target="_top" xlink:title=" ">
<polygon fill="white" stroke="#666666" points="1018.62,-577 930.62,-577 930.62,-545 1018.62,-545 1018.62,-577"/>
<text xml:space="preserve" text-anchor="start" x="938.62" y="-565.4" font-family="SourceSans" font-size="8.00">svg::text_element::</text>
<text xml:space="preserve" text-anchor="middle" x="974.62" y="-553.4" font-family="SourceSans" font-size="8.00">finish_element</text>
</a>
</g>
</g>
<!-- Node20&#45;&gt;Node27 -->
<g id="edge34_Node000020_Node000027" class="edge">
<title>Node20&#45;&gt;Node27</title>
<g id="a_edge34_Node000020_Node000027"><a xlink:title=" ">
<path fill="none" stroke="#63b8ff" d="M874.34,-579.63C887.86,-577.09 903.76,-574.11 918.83,-571.28"/>
<polygon fill="#63b8ff" stroke="#63b8ff" points="919.46,-574.72 928.65,-569.44 918.17,-567.84 919.46,-574.72"/>
</a>
</g>
</g>
<!-- Node28 -->
<g id="Node000028" class="node">
<title>Node28</title>
<g id="a_Node000028"><a xlink:href="group__elements.html#ae45bec611a6ec17ea46aab6d680ae042" target="_top" xlink:title=" ">
<polygon fill="white" stroke="#666666" points="1018.62,-627 930.62,-627 930.62,-595 1018.62,-595 1018.62,-627"/>
<text xml:space="preserve" text-anchor="start" x="938.62" y="-615.4" font-family="SourceSans" font-size="8.00">svg::text_element::</text>
<text xml:space="preserve" text-anchor="middle" x="974.62" y="-603.4" font-family="SourceSans" font-size="8.00">start_element</text>
</a>
</g>
</g>
<!-- Node20&#45;&gt;Node28 -->
<g id="edge35_Node000020_Node000028" class="edge">
<title>Node20&#45;&gt;Node28</title>
<g id="a_edge35_Node000020_Node000028"><a xlink:title=" ">
<path fill="none" stroke="#63b8ff" d="M874.34,-592.37C887.86,-594.91 903.76,-597.89 918.83,-600.72"/>
<polygon fill="#63b8ff" stroke="#63b8ff" points="918.17,-604.16 928.65,-602.56 919.46,-597.28 918.17,-604.16"/>
</a>
</g>
</g>
<!-- Node21&#45;&gt;Node13 -->
<g id="edge32_Node000021_Node000013" class="edge">
<title>Node21&#45;&gt;Node13</title>
<g id="a_edge32_Node000021_Node000013"><a xlink:title=" ">
<path fill="none" stroke="#63b8ff" d="M1015.59,-433.67C1019.08,-431.14 1022.31,-428.26 1025,-425 1062.08,-380.09 1018.2,-338.5 1061,-299 1097.1,-265.68 1153.94,-258.07 1195.89,-257.64"/>
<polygon fill="#63b8ff" stroke="#63b8ff" points="1195.76,-261.14 1205.78,-257.69 1195.8,-254.14 1195.76,-261.14"/>
</a>
</g>
</g>
<!-- Node21&#45;&gt;Node15 -->
<g id="edge33_Node000021_Node000015" class="edge">
<title>Node21&#45;&gt;Node15</title>
<g id="a_edge33_Node000021_Node000015"><a xlink:title=" ">
<path fill="none" stroke="#63b8ff" d="M1019.12,-437.01C1070.39,-421.69 1155.08,-396.39 1206.43,-381.05"/>
<polygon fill="#63b8ff" stroke="#63b8ff" points="1207.14,-384.49 1215.72,-378.28 1205.14,-377.79 1207.14,-384.49"/>
</a>
</g>
</g>
<!-- Node22 -->
<g id="Node000022" class="node">
<title>Node22</title>
<g id="a_Node000022"><a xlink:href="structsvg_1_1typography.html#adbc62f74f1fed3f7c77567250f084f83" target="_top" xlink:title=" ">
<polygon fill="white" stroke="#666666" points="1157.25,-340 1061,-340 1061,-308 1157.25,-308 1157.25,-340"/>
<text xml:space="preserve" text-anchor="start" x="1069" y="-328.4" font-family="SourceSans" font-size="8.00">svg::typography::add</text>
<text xml:space="preserve" text-anchor="middle" x="1109.12" y="-316.4" font-family="SourceSans" font-size="8.00">_attribute</text>
</a>
</g>
</g>
<!-- Node21&#45;&gt;Node22 -->
<g id="edge25_Node000021_Node000022" class="edge">
<title>Node21&#45;&gt;Node22</title>
<g id="a_edge25_Node000021_Node000022"><a xlink:title=" ">
<path fill="none" stroke="#63b8ff" d="M1012.29,-433.63C1016.75,-431.01 1021.1,-428.12 1025,-425 1051.9,-403.45 1076.12,-371.96 1091.38,-349.88"/>
<polygon fill="#63b8ff" stroke="#63b8ff" points="1094.19,-351.97 1096.89,-341.73 1088.39,-348.05 1094.19,-351.97"/>
</a>
</g>
</g>
<!-- Node24 -->
<g id="Node000024" class="node">
<title>Node24</title>
<g id="a_Node000024"><a xlink:href="group__elements.html#acafbdd950c6c2639c9d376c3eab696e5" target="_top" xlink:title=" ">
<polygon fill="white" stroke="#666666" points="1154.62,-466 1063.62,-466 1063.62,-434 1154.62,-434 1154.62,-466"/>
<text xml:space="preserve" text-anchor="start" x="1071.62" y="-454.4" font-family="SourceSans" font-size="8.00">svg::element_base::</text>
<text xml:space="preserve" text-anchor="middle" x="1109.12" y="-442.4" font-family="SourceSans" font-size="8.00">add_raw</text>
</a>
</g>
</g>
<!-- Node21&#45;&gt;Node24 -->
<g id="edge29_Node000021_Node000024" class="edge">
<title>Node21&#45;&gt;Node24</title>
<g id="a_edge29_Node000021_Node000024"><a xlink:title=" ">
<path fill="none" stroke="#63b8ff" d="M1019.01,-450C1029.54,-450 1040.95,-450 1051.98,-450"/>
<polygon fill="#63b8ff" stroke="#63b8ff" points="1051.76,-453.5 1061.76,-450 1051.76,-446.5 1051.76,-453.5"/>
</a>
</g>
</g>
<!-- Node25 -->
<g id="Node000025" class="node">
<title>Node25</title>
<g id="a_Node000025"><a xlink:href="group__elements.html#a53d72a7ff728ad1d4d027254530bcf3d" target="_top" xlink:title=" ">
<polygon fill="white" stroke="#666666" points="1154.62,-516 1063.62,-516 1063.62,-484 1154.62,-484 1154.62,-516"/>
<text xml:space="preserve" text-anchor="start" x="1071.62" y="-504.4" font-family="SourceSans" font-size="8.00">svg::element_base::</text>
<text xml:space="preserve" text-anchor="middle" x="1109.12" y="-492.4" font-family="SourceSans" font-size="8.00">add_transform</text>
</a>
</g>
</g>
<!-- Node21&#45;&gt;Node25 -->
<g id="edge30_Node000021_Node000025" class="edge">
<title>Node21&#45;&gt;Node25</title>
<g id="a_edge30_Node000021_Node000025"><a xlink:title=" ">
<path fill="none" stroke="#63b8ff" d="M1019.01,-466.37C1030.22,-470.6 1042.43,-475.21 1054.11,-479.62"/>
<polygon fill="#63b8ff" stroke="#63b8ff" points="1052.63,-482.8 1063.23,-483.06 1055.11,-476.25 1052.63,-482.8"/>
</a>
</g>
</g>
<!-- Node22&#45;&gt;Node13 -->
<g id="edge26_Node000022_Node000013" class="edge">
<title>Node22&#45;&gt;Node13</title>
<g id="a_edge26_Node000022_Node000013"><a xlink:title=" ">
<path fill="none" stroke="#63b8ff" d="M1146.54,-307.61C1168.21,-297.86 1195.49,-285.58 1216.62,-276.08"/>
<polygon fill="#63b8ff" stroke="#63b8ff" points="1217.98,-279.3 1225.67,-272.01 1215.11,-272.92 1217.98,-279.3"/>
</a>
</g>
</g>
<!-- Node22&#45;&gt;Node15 -->
<g id="edge27_Node000022_Node000015" class="edge">
<title>Node22&#45;&gt;Node15</title>
<g id="a_edge27_Node000022_Node000015"><a xlink:title=" ">
<path fill="none" stroke="#63b8ff" d="M1157.52,-338.9C1173.35,-343.87 1190.91,-349.39 1206.45,-354.27"/>
<polygon fill="#63b8ff" stroke="#63b8ff" points="1205.31,-357.58 1215.9,-357.24 1207.41,-350.91 1205.31,-357.58"/>
</a>
</g>
</g>
<!-- Node23 -->
<g id="Node000023" class="node">
<title>Node23</title>
<g id="a_Node000023"><a xlink:href="structsvg_1_1typography.html#a174c1ffb4e56214d71523ffe7e422561" target="_top" xlink:title=" ">
<polygon fill="white" stroke="#666666" points="1295.5,-340 1206.75,-340 1206.75,-308 1295.5,-308 1295.5,-340"/>
<text xml:space="preserve" text-anchor="start" x="1214.75" y="-328.4" font-family="SourceSans" font-size="8.00">svg::typography::to</text>
<text xml:space="preserve" text-anchor="middle" x="1251.12" y="-316.4" font-family="SourceSans" font-size="8.00">_string</text>
</a>
</g>
</g>
<!-- Node22&#45;&gt;Node23 -->
<g id="edge28_Node000022_Node000023" class="edge">
<title>Node22&#45;&gt;Node23</title>
<g id="a_edge28_Node000022_Node000023"><a xlink:title=" ">
<path fill="none" stroke="#63b8ff" d="M1157.52,-324C1169.67,-324 1182.83,-324 1195.32,-324"/>
<polygon fill="#63b8ff" stroke="#63b8ff" points="1195.03,-327.5 1205.03,-324 1195.03,-320.5 1195.03,-327.5"/>
</a>
</g>
</g>
<!-- Node26 -->
<g id="Node000026" class="node">
<title>Node26</title>
<g id="a_Node000026"><a xlink:href="group__elements.html#ae50258851ebbaf08c7eebc3fbdbf1ac8" target="_top" xlink:title="Common transforms include rotate(180)">
<polygon fill="white" stroke="#666666" points="1309,-516 1193.25,-516 1193.25,-484 1309,-484 1309,-516"/>
<text xml:space="preserve" text-anchor="start" x="1201.25" y="-504.4" font-family="SourceSans" font-size="8.00">svg::element_base::</text>
<text xml:space="preserve" text-anchor="middle" x="1251.12" y="-492.4" font-family="SourceSans" font-size="8.00">make_transform_attribute</text>
</a>
</g>
</g>
<!-- Node25&#45;&gt;Node26 -->
<g id="edge31_Node000025_Node000026" class="edge">
<title>Node25&#45;&gt;Node26</title>
<g id="a_edge31_Node000025_Node000026"><a xlink:title=" ">
<path fill="none" stroke="#63b8ff" d="M1154.81,-500C1163.3,-500 1172.37,-500 1181.42,-500"/>
<polygon fill="#63b8ff" stroke="#63b8ff" points="1181.3,-503.5 1191.3,-500 1181.3,-496.5 1181.3,-503.5"/>
</a>
</g>
</g>
<!-- Node30 -->
<g id="Node000030" class="node">
<title>Node30</title>
<g id="a_Node000030"><a xlink:href="namespacesvg.html#aab7d11a5ce14c5bfa6eeea480fddccde" target="_top" xlink:title="Create rect_element at origin.">
<polygon fill="white" stroke="#666666" points="623,-148 550.75,-148 550.75,-128 623,-128 623,-148"/>
<text xml:space="preserve" text-anchor="middle" x="586.88" y="-136.4" font-family="SourceSans" font-size="8.00">svg::make_rect</text>
</a>
</g>
</g>
<!-- Node29&#45;&gt;Node30 -->
<g id="edge40_Node000029_Node000030" class="edge">
<title>Node29&#45;&gt;Node30</title>
<g id="a_edge40_Node000029_Node000030"><a xlink:title=" ">
<path fill="none" stroke="#63b8ff" d="M510.54,-149.05C520,-147.67 529.76,-146.23 539,-144.88"/>
<polygon fill="#63b8ff" stroke="#63b8ff" points="539.47,-148.35 548.86,-143.43 538.46,-141.42 539.47,-148.35"/>
</a>
</g>
</g>
<!-- Node30&#45;&gt;Node14 -->
<g id="edge44_Node000030_Node000014" class="edge">
<title>Node30&#45;&gt;Node14</title>
<g id="a_edge44_Node000030_Node000014"><a xlink:title=" ">
<path fill="none" stroke="#63b8ff" d="M606.91,-148.46C623.4,-157.52 647.78,-170.92 668.48,-182.28"/>
<polygon fill="#63b8ff" stroke="#63b8ff" points="666.51,-185.2 676.96,-186.95 669.88,-179.06 666.51,-185.2"/>
</a>
</g>
</g>
<!-- Node31 -->
<g id="Node000031" class="node">
<title>Node31</title>
<g id="a_Node000031"><a xlink:href="group__elements.html#a1dd6663d882fb5dd14a47462a77f351b" target="_top" xlink:title="Either serialize immediately (as below), or create data structure that adds data to data_vec and then...">
<polygon fill="white" stroke="#666666" points="1152.75,-195 1065.5,-195 1065.5,-163 1152.75,-163 1152.75,-195"/>
<text xml:space="preserve" text-anchor="start" x="1073.5" y="-183.4" font-family="SourceSans" font-size="8.00">svg::rect_element::</text>
<text xml:space="preserve" text-anchor="middle" x="1109.12" y="-171.4" font-family="SourceSans" font-size="8.00">add_data</text>
</a>
</g>
</g>
<!-- Node30&#45;&gt;Node31 -->
<g id="edge41_Node000030_Node000031" class="edge">
<title>Node30&#45;&gt;Node31</title>
<g id="a_edge41_Node000030_Node000031"><a xlink:title=" ">
<path fill="none" stroke="#63b8ff" d="M623.22,-140.79C712.39,-147.81 946.94,-166.3 1053.75,-174.71"/>
<polygon fill="#63b8ff" stroke="#63b8ff" points="1053.45,-178.2 1063.7,-175.5 1054,-171.22 1053.45,-178.2"/>
</a>
</g>
</g>
<!-- Node32 -->
<g id="Node000032" class="node">
<title>Node32</title>
<g id="a_Node000032"><a xlink:href="group__elements.html#a1b22cfab9437b40c8b877ffe5472ff02" target="_top" xlink:title=" ">
<polygon fill="white" stroke="#666666" points="754.5,-32 663.5,-32 663.5,0 754.5,0 754.5,-32"/>
<text xml:space="preserve" text-anchor="start" x="671.5" y="-20.4" font-family="SourceSans" font-size="8.00">svg::element_base::</text>
<text xml:space="preserve" text-anchor="middle" x="709" y="-8.4" font-family="SourceSans" font-size="8.00">add_filter</text>
</a>
</g>
</g>
<!-- Node30&#45;&gt;Node32 -->
<g id="edge43_Node000030_Node000032" class="edge">
<title>Node30&#45;&gt;Node32</title>
<g id="a_edge43_Node000030_Node000032"><a xlink:title=" ">
<path fill="none" stroke="#63b8ff" d="M594.04,-127.56C605.7,-108.5 632.58,-67.59 663.5,-41 664.41,-40.22 665.34,-39.45 666.3,-38.7"/>
<polygon fill="#63b8ff" stroke="#63b8ff" points="667.98,-41.79 674.14,-33.18 663.95,-36.07 667.98,-41.79"/>
</a>
</g>
</g>
<!-- Node33 -->
<g id="Node000033" class="node">
<title>Node33</title>
<g id="a_Node000033"><a xlink:href="group__elements.html#gad01750ac554c6bd6871a930c90e17a04" target="_top" xlink:title=" ">
<polygon fill="white" stroke="#666666" points="752.62,-132 665.38,-132 665.38,-100 752.62,-100 752.62,-132"/>
<text xml:space="preserve" text-anchor="start" x="673.38" y="-120.4" font-family="SourceSans" font-size="8.00">svg::rect_element::</text>
<text xml:space="preserve" text-anchor="middle" x="709" y="-108.4" font-family="SourceSans" font-size="8.00">finish_element</text>
</a>
</g>
</g>
<!-- Node30&#45;&gt;Node33 -->
<g id="edge45_Node000030_Node000033" class="edge">
<title>Node30&#45;&gt;Node33</title>
<g id="a_edge45_Node000030_Node000033"><a xlink:title=" ">
<path fill="none" stroke="#63b8ff" d="M623.27,-131.52C632.92,-129.75 643.61,-127.79 654.05,-125.88"/>
<polygon fill="#63b8ff" stroke="#63b8ff" points="654.52,-129.35 663.73,-124.11 653.26,-122.47 654.52,-129.35"/>
</a>
</g>
</g>
<!-- Node34 -->
<g id="Node000034" class="node">
<title>Node34</title>
<g id="a_Node000034"><a xlink:href="group__elements.html#a1e0ed5e9dfe1244317a87d7e6774348b" target="_top" xlink:title=" ">
<polygon fill="white" stroke="#666666" points="752.62,-82 665.38,-82 665.38,-50 752.62,-50 752.62,-82"/>
<text xml:space="preserve" text-anchor="start" x="673.38" y="-70.4" font-family="SourceSans" font-size="8.00">svg::rect_element::</text>
<text xml:space="preserve" text-anchor="middle" x="709" y="-58.4" font-family="SourceSans" font-size="8.00">start_element</text>
</a>
</g>
</g>
<!-- Node30&#45;&gt;Node34 -->
<g id="edge46_Node000030_Node000034" class="edge">
<title>Node30&#45;&gt;Node34</title>
<g id="a_edge46_Node000030_Node000034"><a xlink:title=" ">
<path fill="none" stroke="#63b8ff" d="M604.27,-127.52C619.5,-117.85 642.87,-103.19 663.5,-91 665.13,-90.04 666.79,-89.06 668.47,-88.09"/>
<polygon fill="#63b8ff" stroke="#63b8ff" points="669.97,-91.26 676.9,-83.25 666.49,-85.19 669.97,-91.26"/>
</a>
</g>
</g>
<!-- Node31&#45;&gt;Node13 -->
<g id="edge42_Node000031_Node000013" class="edge">
<title>Node31&#45;&gt;Node13</title>
<g id="a_edge42_Node000031_Node000013"><a xlink:title=" ">
<path fill="none" stroke="#63b8ff" d="M1138.12,-195.4C1162.7,-209.79 1198.24,-230.61 1222.66,-244.91"/>
<polygon fill="#63b8ff" stroke="#63b8ff" points="1220.67,-247.81 1231.07,-249.84 1224.21,-241.77 1220.67,-247.81"/>
</a>
</g>
</g>
<!-- Node37 -->
<g id="Node000037" class="node">
<title>Node37</title>
<g id="a_Node000037"><a xlink:href="namespacesvg.html#ad3c5f59f86bb309de4efd1187e5c004b" target="_top" xlink:title="Text at.">
<polygon fill="white" stroke="#666666" points="627.5,-631 546.25,-631 546.25,-611 627.5,-611 627.5,-631"/>
<text xml:space="preserve" text-anchor="middle" x="586.88" y="-619.4" font-family="SourceSans" font-size="8.00">svg::styled_text_r</text>
</a>
</g>
</g>
<!-- Node36&#45;&gt;Node37 -->
<g id="edge50_Node000036_Node000037" class="edge">
<title>Node36&#45;&gt;Node37</title>
<g id="a_edge50_Node000036_Node000037"><a xlink:title=" ">
<path fill="none" stroke="#63b8ff" d="M330.66,-549.42C345.14,-562.88 372.47,-585.92 400.5,-597 443.57,-614.03 496.24,-619.53 534.42,-621.07"/>
<polygon fill="#63b8ff" stroke="#63b8ff" points="534.15,-624.56 544.26,-621.37 534.37,-617.56 534.15,-624.56"/>
</a>
</g>
</g>
<!-- Node37&#45;&gt;Node4 -->
<g id="edge51_Node000037_Node000004" class="edge">
<title>Node37&#45;&gt;Node4</title>
<g id="a_edge51_Node000037_Node000004"><a xlink:title=" ">
<path fill="none" stroke="#63b8ff" d="M627.88,-623.52C662.93,-624.11 714.37,-621.01 754.5,-602 774.67,-592.45 772.42,-580.08 790.5,-567 791.68,-566.15 792.88,-565.31 794.12,-564.49"/>
<polygon fill="#63b8ff" stroke="#63b8ff" points="795.95,-567.47 802.62,-559.24 792.27,-561.51 795.95,-567.47"/>
</a>
</g>
</g>
<!-- Node38 -->
<g id="Node000038" class="node">
<title>Node38</title>
<g id="a_Node000038"><a xlink:href="namespacesvg.html#a43b88f0c7e911161e757ccc5a5ccd607" target="_top" xlink:title="Text element at.">
<polygon fill="white" stroke="#666666" points="747,-669 671,-669 671,-649 747,-649 747,-669"/>
<text xml:space="preserve" text-anchor="middle" x="709" y="-657.4" font-family="SourceSans" font-size="8.00">svg::style_text_r</text>
</a>
</g>
</g>
<!-- Node37&#45;&gt;Node38 -->
<g id="edge52_Node000037_Node000038" class="edge">
<title>Node37&#45;&gt;Node38</title>
<g id="a_edge52_Node000037_Node000038"><a xlink:title=" ">
<path fill="none" stroke="#63b8ff" d="M621.02,-631.48C634.41,-635.72 650.05,-640.67 664.35,-645.19"/>
<polygon fill="#63b8ff" stroke="#63b8ff" points="662.93,-648.41 673.52,-648.09 665.04,-641.74 662.93,-648.41"/>
</a>
</g>
</g>
<!-- Node38&#45;&gt;Node20 -->
<g id="edge54_Node000038_Node000020" class="edge">
<title>Node38&#45;&gt;Node20</title>
<g id="a_edge54_Node000038_Node000020"><a xlink:title=" ">
<path fill="none" stroke="#63b8ff" d="M729.57,-648.63C737.36,-644.45 746.39,-639.56 754.5,-635 773.62,-624.26 794.95,-611.79 811.32,-602.12"/>
<polygon fill="#63b8ff" stroke="#63b8ff" points="812.68,-605.38 819.5,-597.27 809.11,-599.36 812.68,-605.38"/>
</a>
</g>
</g>
<!-- Node39 -->
<g id="Node000039" class="node">
<title>Node39</title>
<g id="a_Node000039"><a xlink:href="structsvg_1_1transform.html#acf9836f4ba647f0dd2b53963a0f714d0" target="_top" xlink:title=" ">
<polygon fill="white" stroke="#666666" points="888.25,-669 790.5,-669 790.5,-649 888.25,-649 888.25,-669"/>
<text xml:space="preserve" text-anchor="middle" x="839.38" y="-657.4" font-family="SourceSans" font-size="8.00">svg::transform::rotate</text>
</a>
</g>
</g>
<!-- Node38&#45;&gt;Node39 -->
<g id="edge53_Node000038_Node000039" class="edge">
<title>Node38&#45;&gt;Node39</title>
<g id="a_edge53_Node000038_Node000039"><a xlink:title=" ">
<path fill="none" stroke="#63b8ff" d="M747.48,-659C757.26,-659 768.05,-659 778.68,-659"/>
<polygon fill="#63b8ff" stroke="#63b8ff" points="778.57,-662.5 788.57,-659 778.57,-655.5 778.57,-662.5"/>
</a>
</g>
</g>
</g>
</svg>
