<?xml version="1.0" encoding="UTF-8" standalone="no"?>
<!DOCTYPE svg PUBLIC "-//W3C//DTD SVG 1.1//EN"
 "http://www.w3.org/Graphics/SVG/1.1/DTD/svg11.dtd">
<!-- Generated by graphviz version 13.1.2 (20250808.2320)
 -->
<!-- Title: svg::point_to_ring_halo Pages: 1 -->
<!--zoomable 440 -->

<svg id="main" version="1.1" xmlns="http://www.w3.org/2000/svg" xmlns:xlink="http://www.w3.org/1999/xlink" xml:space="preserve" onload="init(evt)">

<style type="text/css"><![CDATA[
.node, .edge {opacity: 0.7;}
.node.selected, .edge.selected {opacity: 1;}
.edge:hover path { stroke: red; }
.edge:hover polygon { stroke: red; fill: red; }
]]></style>

<defs>
  <circle id="rim" cx="0" cy="0" r="7"/>
  <circle id="rim2" cx="0" cy="0" r="3.5"/>
  <g id="zoomPlus">
    <use xlink:href="#rim" fill="#404040"><set attributeName="fill" to="#808080" begin="zoomplus.mouseover" end="zoomplus.mouseout"/></use>
    <path d="M-4,0h8M0,-4v8" fill="none" stroke="white" stroke-width="1.5" pointer-events="none"/>
  </g>
  <g id="zoomMin">
    <use xlink:href="#rim" fill="#404040"><set attributeName="fill" to="#808080" begin="zoomminus.mouseover" end="zoomminus.mouseout"/></use>
    <path d="M-4,0h8" fill="none" stroke="white" stroke-width="1.5" pointer-events="none"/>
  </g>
  <g id="arrowUp" transform="translate(30 24)">
    <use xlink:href="#rim"/>
    <path pointer-events="none" fill="none" stroke="white" stroke-width="1.5" d="M0,-3.0v7 M-2.5,-0.5L0,-3.0L2.5,-0.5"/>
  </g>
  <g id="arrowRight" transform="rotate(90) translate(36 -43)">
    <use xlink:href="#rim"/>
    <path pointer-events="none" fill="none" stroke="white" stroke-width="1.5" d="M0,-3.0v7 M-2.5,-0.5L0,-3.0L2.5,-0.5"/>
  </g>
  <g id="arrowDown" transform="rotate(180) translate(-30 -48)">
    <use xlink:href="#rim"/>
    <path pointer-events="none" fill="none" stroke="white" stroke-width="1.5" d="M0,-3.0v7 M-2.5,-0.5L0,-3.0L2.5,-0.5"/>
  </g>
  <g id="arrowLeft" transform="rotate(270) translate(-36 17)">
    <use xlink:href="#rim"/>
    <path pointer-events="none" fill="none" stroke="white" stroke-width="1.5" d="M0,-3.0v7 M-2.5,-0.5L0,-3.0L2.5,-0.5"/>
  </g>
  <g id="resetDef">
    <use xlink:href="#rim2" fill="#404040"><set attributeName="fill" to="#808080" begin="reset.mouseover" end="reset.mouseout"/></use>
  </g>
</defs>
<script type="application/ecmascript">
var viewWidth = 699;
var viewHeight = 440;
var sectionId = 'dynsection-90';
</script>
<script type="application/ecmascript" xlink:href="svg.min.js"/>
<svg id="graph" class="graph">
<g id="viewport">
<title>svg::point_to_ring_halo</title>
<!-- Node1 -->
<g id="Node000001" class="node">
<title>Node1</title>
<g id="a_Node000001"><a xlink:title="Draws a ring centered at origin of radius r, with outer and inner radial gradient of blurspace in eac...">
<polygon fill="#999999" stroke="#666666" points="110.5,-206.62 0,-206.62 0,-188.88 110.5,-188.88 110.5,-206.62"/>
<text xml:space="preserve" text-anchor="middle" x="55.25" y="-195.03" font-family="SourceSans" font-size="8.00">svg::point_to_ring_halo</text>
</a>
</g>
</g>
<!-- Node2 -->
<g id="Node000002" class="node">
<title>Node2</title>
<g id="a_Node000002"><a xlink:href="group__elements.html#a519382631540ecedee961bfb53e9ae87" target="_top" xlink:title=" ">
<polygon fill="white" stroke="#666666" points="248.38,-395.5 152.88,-395.5 152.88,-368 248.38,-368 248.38,-395.5"/>
<text xml:space="preserve" text-anchor="start" x="160.88" y="-383.9" font-family="SourceSans" font-size="8.00">svg::circle_element</text>
<text xml:space="preserve" text-anchor="middle" x="200.62" y="-374.15" font-family="SourceSans" font-size="8.00">::add_data</text>
</a>
</g>
</g>
<!-- Node1&#45;&gt;Node2 -->
<g id="edge1_Node000001_Node000002" class="edge">
<title>Node1&#45;&gt;Node2</title>
<g id="a_edge1_Node000001_Node000002"><a xlink:title=" ">
<path fill="none" stroke="#63b8ff" d="M59.11,-207.11C67.82,-234.21 96.55,-313.66 146.5,-358.75 147.55,-359.7 148.64,-360.61 149.77,-361.49"/>
<polygon fill="#63b8ff" stroke="#63b8ff" points="147.49,-364.18 157.77,-366.75 151.34,-358.33 147.49,-364.18"/>
</a>
</g>
</g>
<!-- Node6 -->
<g id="Node000006" class="node">
<title>Node6</title>
<g id="a_Node000006"><a xlink:href="group__elements.html#ada0333b46b2547c6152f3f5811016a12" target="_top" xlink:title=" ">
<polygon fill="white" stroke="#666666" points="250.62,-349.5 150.62,-349.5 150.62,-322 250.62,-322 250.62,-349.5"/>
<text xml:space="preserve" text-anchor="start" x="158.62" y="-337.9" font-family="SourceSans" font-size="8.00">svg::element_base::</text>
<text xml:space="preserve" text-anchor="middle" x="200.62" y="-328.15" font-family="SourceSans" font-size="8.00">add_element</text>
</a>
</g>
</g>
<!-- Node1&#45;&gt;Node6 -->
<g id="edge5_Node000001_Node000006" class="edge">
<title>Node1&#45;&gt;Node6</title>
<g id="a_edge5_Node000001_Node000006"><a xlink:title=" ">
<path fill="none" stroke="#63b8ff" d="M61.36,-207.08C73.51,-228.47 106.11,-281.59 146.5,-312.75 147.98,-313.89 149.52,-314.98 151.11,-316.04"/>
<polygon fill="#63b8ff" stroke="#63b8ff" points="148.91,-318.81 159.31,-320.82 152.44,-312.76 148.91,-318.81"/>
</a>
</g>
</g>
<!-- Node8 -->
<g id="Node000008" class="node">
<title>Node8</title>
<g id="a_Node000008"><a xlink:href="group__elements.html#ad2b2143eb9f1e7346802aa079609ea54" target="_top" xlink:title=" ">
<polygon fill="white" stroke="#666666" points="250.62,-303.5 150.62,-303.5 150.62,-276 250.62,-276 250.62,-303.5"/>
<text xml:space="preserve" text-anchor="start" x="158.62" y="-291.9" font-family="SourceSans" font-size="8.00">svg::element_base::</text>
<text xml:space="preserve" text-anchor="middle" x="200.62" y="-282.15" font-family="SourceSans" font-size="8.00">add_fill</text>
</a>
</g>
</g>
<!-- Node1&#45;&gt;Node8 -->
<g id="edge7_Node000001_Node000008" class="edge">
<title>Node1&#45;&gt;Node8</title>
<g id="a_edge7_Node000001_Node000008"><a xlink:title=" ">
<path fill="none" stroke="#63b8ff" d="M66.49,-206.93C82.63,-221.07 115.37,-248.48 146.5,-266.75 148.68,-268.03 150.95,-269.28 153.27,-270.5"/>
<polygon fill="#63b8ff" stroke="#63b8ff" points="151.72,-273.64 162.24,-274.91 154.81,-267.36 151.72,-273.64"/>
</a>
</g>
</g>
<!-- Node9 -->
<g id="Node000009" class="node">
<title>Node9</title>
<g id="a_Node000009"><a xlink:href="group__elements.html#ga98a1538c46e39122d8199c12b3a57b5d" target="_top" xlink:title=" ">
<polygon fill="white" stroke="#666666" points="248.38,-257.5 152.88,-257.5 152.88,-230 248.38,-230 248.38,-257.5"/>
<text xml:space="preserve" text-anchor="start" x="160.88" y="-245.9" font-family="SourceSans" font-size="8.00">svg::circle_element</text>
<text xml:space="preserve" text-anchor="middle" x="200.62" y="-236.15" font-family="SourceSans" font-size="8.00">::finish_element</text>
</a>
</g>
</g>
<!-- Node1&#45;&gt;Node9 -->
<g id="edge8_Node000001_Node000009" class="edge">
<title>Node1&#45;&gt;Node9</title>
<g id="a_edge8_Node000001_Node000009"><a xlink:title=" ">
<path fill="none" stroke="#63b8ff" d="M85.26,-207.06C102.33,-212.53 124.46,-219.63 144.7,-226.13"/>
<polygon fill="#63b8ff" stroke="#63b8ff" points="143.36,-229.37 153.95,-229.1 145.5,-222.71 143.36,-229.37"/>
</a>
</g>
</g>
<!-- Node10 -->
<g id="Node000010" class="node">
<title>Node10</title>
<g id="a_Node000010"><a xlink:href="group__elements.html#ga36da34a63a571c7bcc60659e29f4837f" target="_top" xlink:title=" ">
<polygon fill="white" stroke="#666666" points="249.5,-211.5 151.75,-211.5 151.75,-184 249.5,-184 249.5,-211.5"/>
<text xml:space="preserve" text-anchor="start" x="159.75" y="-199.9" font-family="SourceSans" font-size="8.00">svg::radial_gradient</text>
<text xml:space="preserve" text-anchor="middle" x="200.62" y="-190.15" font-family="SourceSans" font-size="8.00">::finish_element</text>
</a>
</g>
</g>
<!-- Node1&#45;&gt;Node10 -->
<g id="edge9_Node000001_Node000010" class="edge">
<title>Node1&#45;&gt;Node10</title>
<g id="a_edge9_Node000001_Node000010"><a xlink:title=" ">
<path fill="none" stroke="#63b8ff" d="M110.86,-197.75C120.31,-197.75 130.19,-197.75 139.77,-197.75"/>
<polygon fill="#63b8ff" stroke="#63b8ff" points="139.75,-201.25 149.75,-197.75 139.75,-194.25 139.75,-201.25"/>
</a>
</g>
</g>
<!-- Node14 -->
<g id="Node000014" class="node">
<title>Node14</title>
<g id="a_Node000014"><a xlink:href="group__elements.html#a437bc6cd38193c9178fc4a7a43b7d483" target="_top" xlink:title=" ">
<polygon fill="white" stroke="#666666" points="254.75,-165.5 146.5,-165.5 146.5,-138 254.75,-138 254.75,-165.5"/>
<text xml:space="preserve" text-anchor="start" x="154.5" y="-153.9" font-family="SourceSans" font-size="8.00">svg::gradient_element</text>
<text xml:space="preserve" text-anchor="middle" x="200.62" y="-144.15" font-family="SourceSans" font-size="8.00">::offset_percentage</text>
</a>
</g>
</g>
<!-- Node1&#45;&gt;Node14 -->
<g id="edge13_Node000001_Node000014" class="edge">
<title>Node1&#45;&gt;Node14</title>
<g id="a_edge13_Node000001_Node000014"><a xlink:title=" ">
<path fill="none" stroke="#63b8ff" d="M85.26,-188.44C102.33,-182.97 124.46,-175.87 144.7,-169.37"/>
<polygon fill="#63b8ff" stroke="#63b8ff" points="145.5,-172.79 153.95,-166.4 143.36,-166.13 145.5,-172.79"/>
</a>
</g>
</g>
<!-- Node15 -->
<g id="Node000015" class="node">
<title>Node15</title>
<g id="a_Node000015"><a xlink:href="group__elements.html#a793cb6b40b2aea335b11f14fd327cde8" target="_top" xlink:title=" ">
<polygon fill="white" stroke="#666666" points="248.38,-119.5 152.88,-119.5 152.88,-92 248.38,-92 248.38,-119.5"/>
<text xml:space="preserve" text-anchor="start" x="160.88" y="-107.9" font-family="SourceSans" font-size="8.00">svg::circle_element</text>
<text xml:space="preserve" text-anchor="middle" x="200.62" y="-98.15" font-family="SourceSans" font-size="8.00">::start_element</text>
</a>
</g>
</g>
<!-- Node1&#45;&gt;Node15 -->
<g id="edge14_Node000001_Node000015" class="edge">
<title>Node1&#45;&gt;Node15</title>
<g id="a_edge14_Node000001_Node000015"><a xlink:title=" ">
<path fill="none" stroke="#63b8ff" d="M66.49,-188.57C82.63,-174.43 115.37,-147.02 146.5,-128.75 148.68,-127.47 150.95,-126.22 153.27,-125"/>
<polygon fill="#63b8ff" stroke="#63b8ff" points="154.81,-128.14 162.24,-120.59 151.72,-121.86 154.81,-128.14"/>
</a>
</g>
</g>
<!-- Node16 -->
<g id="Node000016" class="node">
<title>Node16</title>
<g id="a_Node000016"><a xlink:href="group__elements.html#a07790e8550473d1447f5b3b7c97e134e" target="_top" xlink:title=" ">
<polygon fill="white" stroke="#666666" points="249.5,-73.5 151.75,-73.5 151.75,-46 249.5,-46 249.5,-73.5"/>
<text xml:space="preserve" text-anchor="start" x="159.75" y="-61.9" font-family="SourceSans" font-size="8.00">svg::radial_gradient</text>
<text xml:space="preserve" text-anchor="middle" x="200.62" y="-52.15" font-family="SourceSans" font-size="8.00">::start_element</text>
</a>
</g>
</g>
<!-- Node1&#45;&gt;Node16 -->
<g id="edge15_Node000001_Node000016" class="edge">
<title>Node1&#45;&gt;Node16</title>
<g id="a_edge15_Node000001_Node000016"><a xlink:title=" ">
<path fill="none" stroke="#63b8ff" d="M61.36,-188.42C73.51,-167.03 106.11,-113.91 146.5,-82.75 147.98,-81.61 149.52,-80.52 151.11,-79.46"/>
<polygon fill="#63b8ff" stroke="#63b8ff" points="152.44,-82.74 159.31,-74.68 148.91,-76.69 152.44,-82.74"/>
</a>
</g>
</g>
<!-- Node20 -->
<g id="Node000020" class="node">
<title>Node20</title>
<g id="a_Node000020"><a xlink:href="group__elements.html#a8b3d9c50124db9e7a5fd86c8a5856119" target="_top" xlink:title=" ">
<polygon fill="white" stroke="#666666" points="254.75,-27.5 146.5,-27.5 146.5,0 254.75,0 254.75,-27.5"/>
<text xml:space="preserve" text-anchor="start" x="154.5" y="-15.9" font-family="SourceSans" font-size="8.00">svg::gradient_element</text>
<text xml:space="preserve" text-anchor="middle" x="200.62" y="-6.15" font-family="SourceSans" font-size="8.00">::stop</text>
</a>
</g>
</g>
<!-- Node1&#45;&gt;Node20 -->
<g id="edge19_Node000001_Node000020" class="edge">
<title>Node1&#45;&gt;Node20</title>
<g id="a_edge19_Node000001_Node000020"><a xlink:title=" ">
<path fill="none" stroke="#63b8ff" d="M59.11,-188.39C67.82,-161.29 96.55,-81.84 146.5,-36.75 147.55,-35.8 148.64,-34.89 149.77,-34.01"/>
<polygon fill="#63b8ff" stroke="#63b8ff" points="151.34,-37.17 157.77,-28.75 147.49,-31.32 151.34,-37.17"/>
</a>
</g>
</g>
<!-- Node3 -->
<g id="Node000003" class="node">
<title>Node3</title>
<g id="a_Node000003"><a xlink:href="group__elements.html#a53d72a7ff728ad1d4d027254530bcf3d" target="_top" xlink:title=" ">
<polygon fill="white" stroke="#666666" points="396,-431.5 296,-431.5 296,-404 396,-404 396,-431.5"/>
<text xml:space="preserve" text-anchor="start" x="304" y="-419.9" font-family="SourceSans" font-size="8.00">svg::element_base::</text>
<text xml:space="preserve" text-anchor="middle" x="346" y="-410.15" font-family="SourceSans" font-size="8.00">add_transform</text>
</a>
</g>
</g>
<!-- Node2&#45;&gt;Node3 -->
<g id="edge2_Node000002_Node000003" class="edge">
<title>Node2&#45;&gt;Node3</title>
<g id="a_edge2_Node000002_Node000003"><a xlink:title=" ">
<path fill="none" stroke="#63b8ff" d="M248.57,-393.54C260.2,-396.46 272.82,-399.63 284.98,-402.68"/>
<polygon fill="#63b8ff" stroke="#63b8ff" points="283.96,-406.03 294.51,-405.07 285.66,-399.24 283.96,-406.03"/>
</a>
</g>
</g>
<!-- Node5 -->
<g id="Node000005" class="node">
<title>Node5</title>
<g id="a_Node000005"><a xlink:href="namespacesvg.html#a48ac748e89e22789d1772326a98dd7b6" target="_top" xlink:title=" ">
<polygon fill="white" stroke="#666666" points="392.62,-385.62 299.38,-385.62 299.38,-367.88 392.62,-367.88 392.62,-385.62"/>
<text xml:space="preserve" text-anchor="middle" x="346" y="-374.02" font-family="SourceSans" font-size="8.00">svg::string_replace</text>
</a>
</g>
</g>
<!-- Node2&#45;&gt;Node5 -->
<g id="edge4_Node000002_Node000005" class="edge">
<title>Node2&#45;&gt;Node5</title>
<g id="a_edge4_Node000002_Node000005"><a xlink:title=" ">
<path fill="none" stroke="#63b8ff" d="M248.57,-380.11C261.08,-379.68 274.73,-379.2 287.72,-378.75"/>
<polygon fill="#63b8ff" stroke="#63b8ff" points="287.54,-382.26 297.41,-378.41 287.3,-375.26 287.54,-382.26"/>
</a>
</g>
</g>
<!-- Node4 -->
<g id="Node000004" class="node">
<title>Node4</title>
<g id="a_Node000004"><a xlink:href="group__elements.html#ae50258851ebbaf08c7eebc3fbdbf1ac8" target="_top" xlink:title="Common transforms include rotate(180)">
<polygon fill="white" stroke="#666666" points="557.5,-431.5 437.25,-431.5 437.25,-404 557.5,-404 557.5,-431.5"/>
<text xml:space="preserve" text-anchor="start" x="445.25" y="-419.9" font-family="SourceSans" font-size="8.00">svg::element_base::</text>
<text xml:space="preserve" text-anchor="middle" x="497.38" y="-410.15" font-family="SourceSans" font-size="8.00">make_transform_attribute</text>
</a>
</g>
</g>
<!-- Node3&#45;&gt;Node4 -->
<g id="edge3_Node000003_Node000004" class="edge">
<title>Node3&#45;&gt;Node4</title>
<g id="a_edge3_Node000003_Node000004"><a xlink:title=" ">
<path fill="none" stroke="#63b8ff" d="M396.32,-417.75C405.67,-417.75 415.62,-417.75 425.47,-417.75"/>
<polygon fill="#63b8ff" stroke="#63b8ff" points="425.45,-421.25 435.45,-417.75 425.45,-414.25 425.45,-421.25"/>
</a>
</g>
</g>
<!-- Node7 -->
<g id="Node000007" class="node">
<title>Node7</title>
<g id="a_Node000007"><a xlink:href="group__elements.html#ad893ef9c13a15464c96d8a85c08af30f" target="_top" xlink:title=" ">
<polygon fill="white" stroke="#666666" points="401.25,-344.62 290.75,-344.62 290.75,-326.88 401.25,-326.88 401.25,-344.62"/>
<text xml:space="preserve" text-anchor="middle" x="346" y="-333.02" font-family="SourceSans" font-size="8.00">svg::element_base::str</text>
</a>
</g>
</g>
<!-- Node6&#45;&gt;Node7 -->
<g id="edge6_Node000006_Node000007" class="edge">
<title>Node6&#45;&gt;Node7</title>
<g id="a_edge6_Node000006_Node000007"><a xlink:title=" ">
<path fill="none" stroke="#63b8ff" d="M250.97,-335.75C260.07,-335.75 269.7,-335.75 279.19,-335.75"/>
<polygon fill="#63b8ff" stroke="#63b8ff" points="279.15,-339.25 289.15,-335.75 279.15,-332.25 279.15,-339.25"/>
</a>
</g>
</g>
<!-- Node11 -->
<g id="Node000011" class="node">
<title>Node11</title>
<g id="a_Node000011"><a xlink:href="group__elements.html#ga125b2e74fba965eab59558efca073ffb" target="_top" xlink:title=" ">
<polygon fill="white" stroke="#666666" points="400.12,-211.5 291.88,-211.5 291.88,-184 400.12,-184 400.12,-211.5"/>
<text xml:space="preserve" text-anchor="start" x="299.88" y="-199.9" font-family="SourceSans" font-size="8.00">svg::gradient_element</text>
<text xml:space="preserve" text-anchor="middle" x="346" y="-190.15" font-family="SourceSans" font-size="8.00">::finish_element</text>
</a>
</g>
</g>
<!-- Node10&#45;&gt;Node11 -->
<g id="edge10_Node000010_Node000011" class="edge">
<title>Node10&#45;&gt;Node11</title>
<g id="a_edge10_Node000010_Node000011"><a xlink:title=" ">
<path fill="none" stroke="#63b8ff" d="M249.77,-197.75C259.58,-197.75 270.05,-197.75 280.33,-197.75"/>
<polygon fill="#63b8ff" stroke="#63b8ff" points="280.29,-201.25 290.29,-197.75 280.29,-194.25 280.29,-201.25"/>
</a>
</g>
</g>
<!-- Node12 -->
<g id="Node000012" class="node">
<title>Node12</title>
<g id="a_Node000012"><a xlink:href="group__elements.html#ga503ee2895588a6c684e2b1614cf4e73d" target="_top" xlink:title=" ">
<polygon fill="white" stroke="#666666" points="546.25,-211.5 448.5,-211.5 448.5,-184 546.25,-184 546.25,-211.5"/>
<text xml:space="preserve" text-anchor="start" x="456.5" y="-199.9" font-family="SourceSans" font-size="8.00">svg::defs_element::</text>
<text xml:space="preserve" text-anchor="middle" x="497.38" y="-190.15" font-family="SourceSans" font-size="8.00">finish_element</text>
</a>
</g>
</g>
<!-- Node11&#45;&gt;Node12 -->
<g id="edge11_Node000011_Node000012" class="edge">
<title>Node11&#45;&gt;Node12</title>
<g id="a_edge11_Node000011_Node000012"><a xlink:title=" ">
<path fill="none" stroke="#63b8ff" d="M400.51,-197.75C412.31,-197.75 424.87,-197.75 436.89,-197.75"/>
<polygon fill="#63b8ff" stroke="#63b8ff" points="436.69,-201.25 446.69,-197.75 436.69,-194.25 436.69,-201.25"/>
</a>
</g>
</g>
<!-- Node13 -->
<g id="Node000013" class="node">
<title>Node13</title>
<g id="a_Node000013"><a xlink:href="group__elements.html#a661ead805e720c8a4b4637b4085f46b1" target="_top" xlink:title=" ">
<polygon fill="white" stroke="#666666" points="691.25,-211.5 593.5,-211.5 593.5,-184 691.25,-184 691.25,-211.5"/>
<text xml:space="preserve" text-anchor="start" x="601.5" y="-199.9" font-family="SourceSans" font-size="8.00">svg::defs_element::</text>
<text xml:space="preserve" text-anchor="middle" x="642.38" y="-190.15" font-family="SourceSans" font-size="8.00">finish_defs</text>
</a>
</g>
</g>
<!-- Node12&#45;&gt;Node13 -->
<g id="edge12_Node000012_Node000013" class="edge">
<title>Node12&#45;&gt;Node13</title>
<g id="a_edge12_Node000012_Node000013"><a xlink:title=" ">
<path fill="none" stroke="#63b8ff" d="M546.39,-197.75C557.83,-197.75 570.17,-197.75 582.04,-197.75"/>
<polygon fill="#63b8ff" stroke="#63b8ff" points="581.73,-201.25 591.73,-197.75 581.73,-194.25 581.73,-201.25"/>
</a>
</g>
</g>
<!-- Node17 -->
<g id="Node000017" class="node">
<title>Node17</title>
<g id="a_Node000017"><a xlink:href="group__elements.html#aeff87acc0c098e1c329a0fd01605c56f" target="_top" xlink:title=" ">
<polygon fill="white" stroke="#666666" points="400.12,-73.5 291.88,-73.5 291.88,-46 400.12,-46 400.12,-73.5"/>
<text xml:space="preserve" text-anchor="start" x="299.88" y="-61.9" font-family="SourceSans" font-size="8.00">svg::gradient_element</text>
<text xml:space="preserve" text-anchor="middle" x="346" y="-52.15" font-family="SourceSans" font-size="8.00">::start_element</text>
</a>
</g>
</g>
<!-- Node16&#45;&gt;Node17 -->
<g id="edge16_Node000016_Node000017" class="edge">
<title>Node16&#45;&gt;Node17</title>
<g id="a_edge16_Node000016_Node000017"><a xlink:title=" ">
<path fill="none" stroke="#63b8ff" d="M249.77,-59.75C259.58,-59.75 270.05,-59.75 280.33,-59.75"/>
<polygon fill="#63b8ff" stroke="#63b8ff" points="280.29,-63.25 290.29,-59.75 280.29,-56.25 280.29,-63.25"/>
</a>
</g>
</g>
<!-- Node18 -->
<g id="Node000018" class="node">
<title>Node18</title>
<g id="a_Node000018"><a xlink:href="group__elements.html#a948868c6f5dea784ded14c26cc1d2139" target="_top" xlink:title=" ">
<polygon fill="white" stroke="#666666" points="546.25,-73.5 448.5,-73.5 448.5,-46 546.25,-46 546.25,-73.5"/>
<text xml:space="preserve" text-anchor="start" x="456.5" y="-61.9" font-family="SourceSans" font-size="8.00">svg::defs_element::</text>
<text xml:space="preserve" text-anchor="middle" x="497.38" y="-52.15" font-family="SourceSans" font-size="8.00">start_element</text>
</a>
</g>
</g>
<!-- Node17&#45;&gt;Node18 -->
<g id="edge17_Node000017_Node000018" class="edge">
<title>Node17&#45;&gt;Node18</title>
<g id="a_edge17_Node000017_Node000018"><a xlink:title=" ">
<path fill="none" stroke="#63b8ff" d="M400.51,-59.75C412.31,-59.75 424.87,-59.75 436.89,-59.75"/>
<polygon fill="#63b8ff" stroke="#63b8ff" points="436.69,-63.25 446.69,-59.75 436.69,-56.25 436.69,-63.25"/>
</a>
</g>
</g>
<!-- Node19 -->
<g id="Node000019" class="node">
<title>Node19</title>
<g id="a_Node000019"><a xlink:href="group__elements.html#a8d7d88dfb9b2dd11234ef1355b7cfc00" target="_top" xlink:title=" ">
<polygon fill="white" stroke="#666666" points="691.25,-73.5 593.5,-73.5 593.5,-46 691.25,-46 691.25,-73.5"/>
<text xml:space="preserve" text-anchor="start" x="601.5" y="-61.9" font-family="SourceSans" font-size="8.00">svg::defs_element::</text>
<text xml:space="preserve" text-anchor="middle" x="642.38" y="-52.15" font-family="SourceSans" font-size="8.00">start_defs</text>
</a>
</g>
</g>
<!-- Node18&#45;&gt;Node19 -->
<g id="edge18_Node000018_Node000019" class="edge">
<title>Node18&#45;&gt;Node19</title>
<g id="a_edge18_Node000018_Node000019"><a xlink:title=" ">
<path fill="none" stroke="#63b8ff" d="M546.39,-59.75C557.83,-59.75 570.17,-59.75 582.04,-59.75"/>
<polygon fill="#63b8ff" stroke="#63b8ff" points="581.73,-63.25 591.73,-59.75 581.73,-56.25 581.73,-63.25"/>
</a>
</g>
</g>
<!-- Node21 -->
<g id="Node000021" class="node">
<title>Node21</title>
<g id="a_Node000021"><a xlink:href="namespacesvg.html#a36b1c48ad4601b205790e3772ad0a7b6" target="_top" xlink:title=" ">
<polygon fill="white" stroke="#666666" points="381.75,-22.62 310.25,-22.62 310.25,-4.88 381.75,-4.88 381.75,-22.62"/>
<text xml:space="preserve" text-anchor="middle" x="346" y="-11.03" font-family="SourceSans" font-size="8.00">svg::to_string</text>
</a>
</g>
</g>
<!-- Node20&#45;&gt;Node21 -->
<g id="edge20_Node000020_Node000021" class="edge">
<title>Node20&#45;&gt;Node21</title>
<g id="a_edge20_Node000020_Node000021"><a xlink:title=" ">
<path fill="none" stroke="#63b8ff" d="M255.01,-13.75C269.32,-13.75 284.67,-13.75 298.56,-13.75"/>
<polygon fill="#63b8ff" stroke="#63b8ff" points="298.33,-17.25 308.33,-13.75 298.33,-10.25 298.33,-17.25"/>
</a>
</g>
</g>
</g>
</svg>

<g id="navigator" transform="translate(0 0)" fill="#404254">
  <rect fill="#f2f5e9" fill-opacity="0.5" stroke="#606060" stroke-width=".5" x="0" y="0" width="60" height="60"/>
  <use id="zoomplus" xlink:href="#zoomPlus" x="17" y="9" onmousedown="handleZoom(evt,'in')"/>
  <use id="zoomminus" xlink:href="#zoomMin" x="42" y="9" onmousedown="handleZoom(evt,'out')"/>
  <use id="reset" xlink:href="#resetDef" x="30" y="36" onmousedown="handleReset()"/>
   <use id="arrowup" xlink:href="#arrowUp" x="0" y="0" onmousedown="handlePan(0,-1)"/>
  <use id="arrowright" xlink:href="#arrowRight" x="0" y="0" onmousedown="handlePan(1,0)"/>
  <use id="arrowdown" xlink:href="#arrowDown" x="0" y="0" onmousedown="handlePan(0,1)"/>
  <use id="arrowleft" xlink:href="#arrowLeft" x="0" y="0" onmousedown="handlePan(-1,0)"/>
</g>
<svg viewBox="0 0 15 15" width="100%" height="30px" preserveAspectRatio="xMaxYMin meet">
 <g id="arrow_out" transform="scale(0.3 0.3)">
  <a xlink:href="namespacesvg_a05ce09ad64d647467f52dcbebeb0c6ac_cgraph_org.svg" target="_base">
   <rect id="button" ry="5" rx="5" y="6" x="6" height="38" width="38"
        fill="#f2f5e9" fill-opacity="0.5" stroke="#606060" stroke-width="1.0"/>
   <path id="arrow"
     d="M 11.500037,31.436501 C 11.940474,20.09759 22.043105,11.32322 32.158766,21.979434 L 37.068811,17.246167 C 37.068811,17.246167 37.088388,32 37.088388,32 L 22.160133,31.978069 C 22.160133,31.978069 26.997745,27.140456 26.997745,27.140456 C 18.528582,18.264221 13.291696,25.230495 11.500037,31.436501 z"
     style="fill:#404040;"/>
  </a>
 </g>
</svg>

<style type='text/css'>
<![CDATA[
[data-mouse-over-selected='false'] { opacity: 0.7; }
[data-mouse-over-selected='true']  { opacity: 1.0; }
]]>
</style>
<script type="application/ecmascript"><![CDATA[
document.addEventListener('DOMContentLoaded', (event) => {
  highlightEdges();
  highlightAdjacentNodes();
});
]]></script>
</svg>
