<?xml version="1.0" encoding="UTF-8" standalone="no"?>
<!DOCTYPE svg PUBLIC "-//W3C//DTD SVG 1.1//EN"
 "http://www.w3.org/Graphics/SVG/1.1/DTD/svg11.dtd">
<!-- Generated by graphviz version 13.1.2 (20250808.2320)
 -->
<!-- Title: svg::make_sunburst Pages: 1 -->
<!--zoomable 359 -->

<svg id="main" version="1.1" xmlns="http://www.w3.org/2000/svg" xmlns:xlink="http://www.w3.org/1999/xlink" xml:space="preserve" onload="init(evt)">

<style type="text/css"><![CDATA[
.node, .edge {opacity: 0.7;}
.node.selected, .edge.selected {opacity: 1;}
.edge:hover path { stroke: red; }
.edge:hover polygon { stroke: red; fill: red; }
]]></style>

<defs>
  <circle id="rim" cx="0" cy="0" r="7"/>
  <circle id="rim2" cx="0" cy="0" r="3.5"/>
  <g id="zoomPlus">
    <use xlink:href="#rim" fill="#404040"><set attributeName="fill" to="#808080" begin="zoomplus.mouseover" end="zoomplus.mouseout"/></use>
    <path d="M-4,0h8M0,-4v8" fill="none" stroke="white" stroke-width="1.5" pointer-events="none"/>
  </g>
  <g id="zoomMin">
    <use xlink:href="#rim" fill="#404040"><set attributeName="fill" to="#808080" begin="zoomminus.mouseover" end="zoomminus.mouseout"/></use>
    <path d="M-4,0h8" fill="none" stroke="white" stroke-width="1.5" pointer-events="none"/>
  </g>
  <g id="arrowUp" transform="translate(30 24)">
    <use xlink:href="#rim"/>
    <path pointer-events="none" fill="none" stroke="white" stroke-width="1.5" d="M0,-3.0v7 M-2.5,-0.5L0,-3.0L2.5,-0.5"/>
  </g>
  <g id="arrowRight" transform="rotate(90) translate(36 -43)">
    <use xlink:href="#rim"/>
    <path pointer-events="none" fill="none" stroke="white" stroke-width="1.5" d="M0,-3.0v7 M-2.5,-0.5L0,-3.0L2.5,-0.5"/>
  </g>
  <g id="arrowDown" transform="rotate(180) translate(-30 -48)">
    <use xlink:href="#rim"/>
    <path pointer-events="none" fill="none" stroke="white" stroke-width="1.5" d="M0,-3.0v7 M-2.5,-0.5L0,-3.0L2.5,-0.5"/>
  </g>
  <g id="arrowLeft" transform="rotate(270) translate(-36 17)">
    <use xlink:href="#rim"/>
    <path pointer-events="none" fill="none" stroke="white" stroke-width="1.5" d="M0,-3.0v7 M-2.5,-0.5L0,-3.0L2.5,-0.5"/>
  </g>
  <g id="resetDef">
    <use xlink:href="#rim2" fill="#404040"><set attributeName="fill" to="#808080" begin="reset.mouseover" end="reset.mouseout"/></use>
  </g>
</defs>
<script type="application/ecmascript">
var viewWidth = 663;
var viewHeight = 359;
var sectionId = 'dynsection-106';
</script>
<script type="application/ecmascript" xlink:href="svg.min.js"/>
<svg id="graph" class="graph">
<g id="viewport">
<title>svg::make_sunburst</title>
<!-- Node1 -->
<g id="Node000001" class="node">
<title>Node1</title>
<g id="a_Node000001"><a xlink:title="Rectangles of various sizes rotated from center point (x,y).">
<polygon fill="#999999" stroke="#666666" points="92.5,-170 0,-170 0,-150 92.5,-150 92.5,-170"/>
<text xml:space="preserve" text-anchor="middle" x="46.25" y="-158.4" font-family="SourceSans" font-size="8.00">svg::make_sunburst</text>
</a>
</g>
</g>
<!-- Node2 -->
<g id="Node000002" class="node">
<title>Node2</title>
<g id="a_Node000002"><a xlink:href="group__elements.html#ada0333b46b2547c6152f3f5811016a12" target="_top" xlink:title=" ">
<polygon fill="white" stroke="#666666" points="365.62,-351 274.62,-351 274.62,-319 365.62,-319 365.62,-351"/>
<text xml:space="preserve" text-anchor="start" x="282.62" y="-339.4" font-family="SourceSans" font-size="8.00">svg::element_base::</text>
<text xml:space="preserve" text-anchor="middle" x="320.12" y="-327.4" font-family="SourceSans" font-size="8.00">add_element</text>
</a>
</g>
</g>
<!-- Node1&#45;&gt;Node2 -->
<g id="edge1_Node000001_Node000002" class="edge">
<title>Node1&#45;&gt;Node2</title>
<g id="a_edge1_Node000001_Node000002"><a xlink:title=" ">
<path fill="none" stroke="#63b8ff" d="M50.35,-170.36C58.54,-195.83 83.29,-261.81 128.5,-294 167.74,-321.94 222.25,-331.49 262.93,-334.46"/>
<polygon fill="#63b8ff" stroke="#63b8ff" points="262.58,-337.94 272.77,-335.05 263,-330.95 262.58,-337.94"/>
</a>
</g>
</g>
<!-- Node4 -->
<g id="Node000004" class="node">
<title>Node4</title>
<g id="a_Node000004"><a xlink:href="group__elements.html#a7995b78d94e1c299065c9dd3569fef7c" target="_top" xlink:title=" ">
<polygon fill="white" stroke="#666666" points="228.88,-285 137.88,-285 137.88,-253 228.88,-253 228.88,-285"/>
<text xml:space="preserve" text-anchor="start" x="145.88" y="-273.4" font-family="SourceSans" font-size="8.00">svg::element_base::</text>
<text xml:space="preserve" text-anchor="middle" x="183.38" y="-261.4" font-family="SourceSans" font-size="8.00">add_title</text>
</a>
</g>
</g>
<!-- Node1&#45;&gt;Node4 -->
<g id="edge3_Node000001_Node000004" class="edge">
<title>Node1&#45;&gt;Node4</title>
<g id="a_edge3_Node000001_Node000004"><a xlink:title=" ">
<path fill="none" stroke="#63b8ff" d="M58.89,-170.3C74.49,-184.01 103.14,-208.85 128.5,-229 135.55,-234.6 143.26,-240.47 150.59,-245.94"/>
<polygon fill="#63b8ff" stroke="#63b8ff" points="148.24,-248.56 158.37,-251.69 152.41,-242.93 148.24,-248.56"/>
</a>
</g>
</g>
<!-- Node7 -->
<g id="Node000007" class="node">
<title>Node7</title>
<g id="a_Node000007"><a xlink:href="group__elements.html#gaab139e518fe9d07003dbcc1fdfdad955" target="_top" xlink:title=" ">
<polygon fill="white" stroke="#666666" points="229.25,-220 137.5,-220 137.5,-188 229.25,-188 229.25,-220"/>
<text xml:space="preserve" text-anchor="start" x="145.5" y="-208.4" font-family="SourceSans" font-size="8.00">svg::group_element</text>
<text xml:space="preserve" text-anchor="middle" x="183.38" y="-196.4" font-family="SourceSans" font-size="8.00">::finish_element</text>
</a>
</g>
</g>
<!-- Node1&#45;&gt;Node7 -->
<g id="edge7_Node000001_Node000007" class="edge">
<title>Node1&#45;&gt;Node7</title>
<g id="a_edge7_Node000001_Node000007"><a xlink:title=" ">
<path fill="none" stroke="#63b8ff" d="M79.27,-170.43C93.29,-174.99 110.15,-180.48 126.15,-185.69"/>
<polygon fill="#63b8ff" stroke="#63b8ff" points="125,-189 135.59,-188.77 127.17,-182.34 125,-189"/>
</a>
</g>
</g>
<!-- Node9 -->
<g id="Node000009" class="node">
<title>Node9</title>
<g id="a_Node000009"><a xlink:href="namespacesvg.html#a4082d485bfd058b5f64aaad7503dba9b" target="_top" xlink:title="Create rect_element centered at origin.">
<polygon fill="white" stroke="#666666" points="238.25,-170 128.5,-170 128.5,-150 238.25,-150 238.25,-170"/>
<text xml:space="preserve" text-anchor="middle" x="183.38" y="-158.4" font-family="SourceSans" font-size="8.00">svg::make_rect_centered</text>
</a>
</g>
</g>
<!-- Node1&#45;&gt;Node9 -->
<g id="edge9_Node000001_Node000009" class="edge">
<title>Node1&#45;&gt;Node9</title>
<g id="a_edge9_Node000001_Node000009"><a xlink:title=" ">
<path fill="none" stroke="#63b8ff" d="M93,-160C100.7,-160 108.82,-160 116.91,-160"/>
<polygon fill="#63b8ff" stroke="#63b8ff" points="116.75,-163.5 126.75,-160 116.75,-156.5 116.75,-163.5"/>
</a>
</g>
</g>
<!-- Node20 -->
<g id="Node000020" class="node">
<title>Node20</title>
<g id="a_Node000020"><a xlink:href="structsvg_1_1transform.html#acf9836f4ba647f0dd2b53963a0f714d0" target="_top" xlink:title=" ">
<polygon fill="white" stroke="#666666" points="232.25,-132 134.5,-132 134.5,-112 232.25,-112 232.25,-132"/>
<text xml:space="preserve" text-anchor="middle" x="183.38" y="-120.4" font-family="SourceSans" font-size="8.00">svg::transform::rotate</text>
</a>
</g>
</g>
<!-- Node1&#45;&gt;Node20 -->
<g id="edge20_Node000001_Node000020" class="edge">
<title>Node1&#45;&gt;Node20</title>
<g id="a_edge20_Node000001_Node000020"><a xlink:title=" ">
<path fill="none" stroke="#63b8ff" d="M84.53,-149.52C99.89,-145.2 117.88,-140.14 134.22,-135.54"/>
<polygon fill="#63b8ff" stroke="#63b8ff" points="135.08,-138.94 143.76,-132.86 133.18,-132.2 135.08,-138.94"/>
</a>
</g>
</g>
<!-- Node21 -->
<g id="Node000021" class="node">
<title>Node21</title>
<g id="a_Node000021"><a xlink:href="group__elements.html#a5c8c4f93df6e84523f788aa7f98bcab8" target="_top" xlink:title="For groups of elements that have the same name.">
<polygon fill="white" stroke="#666666" points="229.25,-94 137.5,-94 137.5,-62 229.25,-62 229.25,-94"/>
<text xml:space="preserve" text-anchor="start" x="145.5" y="-82.4" font-family="SourceSans" font-size="8.00">svg::group_element</text>
<text xml:space="preserve" text-anchor="middle" x="183.38" y="-70.4" font-family="SourceSans" font-size="8.00">::start_element</text>
</a>
</g>
</g>
<!-- Node1&#45;&gt;Node21 -->
<g id="edge21_Node000001_Node000021" class="edge">
<title>Node1&#45;&gt;Node21</title>
<g id="a_edge21_Node000001_Node000021"><a xlink:title=" ">
<path fill="none" stroke="#63b8ff" d="M60.56,-149.55C76.27,-137.49 103.42,-117.46 128.5,-103 130.52,-101.83 132.61,-100.68 134.74,-99.54"/>
<polygon fill="#63b8ff" stroke="#63b8ff" points="136.18,-102.73 143.49,-95.06 133,-96.5 136.18,-102.73"/>
</a>
</g>
</g>
<!-- Node23 -->
<g id="Node000023" class="node">
<title>Node23</title>
<g id="a_Node000023"><a xlink:href="structsvg_1_1transform.html#a0c20aee54dbd3136799b17e12d3cb718" target="_top" xlink:title=" ">
<polygon fill="white" stroke="#666666" points="237.88,-44 128.88,-44 128.88,-24 237.88,-24 237.88,-44"/>
<text xml:space="preserve" text-anchor="middle" x="183.38" y="-32.4" font-family="SourceSans" font-size="8.00">svg::transform::translate</text>
</a>
</g>
</g>
<!-- Node1&#45;&gt;Node23 -->
<g id="edge23_Node000001_Node000023" class="edge">
<title>Node1&#45;&gt;Node23</title>
<g id="a_edge23_Node000001_Node000023"><a xlink:title=" ">
<path fill="none" stroke="#63b8ff" d="M52.46,-149.56C63.56,-128.35 91.56,-79.94 128.5,-53 130.24,-51.73 132.08,-50.54 133.98,-49.42"/>
<polygon fill="#63b8ff" stroke="#63b8ff" points="135.17,-52.74 142.53,-45.11 132.03,-46.48 135.17,-52.74"/>
</a>
</g>
</g>
<!-- Node3 -->
<g id="Node000003" class="node">
<title>Node3</title>
<g id="a_Node000003"><a xlink:href="group__elements.html#ad893ef9c13a15464c96d8a85c08af30f" target="_top" xlink:title=" ">
<polygon fill="white" stroke="#666666" points="502.75,-345 402,-345 402,-325 502.75,-325 502.75,-345"/>
<text xml:space="preserve" text-anchor="middle" x="452.38" y="-333.4" font-family="SourceSans" font-size="8.00">svg::element_base::str</text>
</a>
</g>
</g>
<!-- Node2&#45;&gt;Node3 -->
<g id="edge2_Node000002_Node000003" class="edge">
<title>Node2&#45;&gt;Node3</title>
<g id="a_edge2_Node000002_Node000003"><a xlink:title=" ">
<path fill="none" stroke="#63b8ff" d="M365.95,-335C373.75,-335 381.99,-335 390.14,-335"/>
<polygon fill="#63b8ff" stroke="#63b8ff" points="390.04,-338.5 400.04,-335 390.04,-331.5 390.04,-338.5"/>
</a>
</g>
</g>
<!-- Node4&#45;&gt;Node2 -->
<g id="edge4_Node000004_Node000002" class="edge">
<title>Node4&#45;&gt;Node2</title>
<g id="a_edge4_Node000004_Node000002"><a xlink:title=" ">
<path fill="none" stroke="#63b8ff" d="M218.03,-285.48C235.45,-294.01 256.91,-304.53 275.57,-313.67"/>
<polygon fill="#63b8ff" stroke="#63b8ff" points="274.02,-316.8 284.54,-318.06 277.1,-310.52 274.02,-316.8"/>
</a>
</g>
</g>
<!-- Node5 -->
<g id="Node000005" class="node">
<title>Node5</title>
<g id="a_Node000005"><a xlink:href="group__elements.html#ga3d62381f8edcccd3d91f82af55f11274" target="_top" xlink:title=" ">
<polygon fill="white" stroke="#666666" points="361.88,-301 278.38,-301 278.38,-269 361.88,-269 361.88,-301"/>
<text xml:space="preserve" text-anchor="start" x="286.38" y="-289.4" font-family="SourceSans" font-size="8.00">svg::title_element</text>
<text xml:space="preserve" text-anchor="middle" x="320.12" y="-277.4" font-family="SourceSans" font-size="8.00">::finish_element</text>
</a>
</g>
</g>
<!-- Node4&#45;&gt;Node5 -->
<g id="edge5_Node000004_Node000005" class="edge">
<title>Node4&#45;&gt;Node5</title>
<g id="a_edge5_Node000004_Node000005"><a xlink:title=" ">
<path fill="none" stroke="#63b8ff" d="M229.24,-274.33C241.32,-275.76 254.48,-277.32 266.92,-278.8"/>
<polygon fill="#63b8ff" stroke="#63b8ff" points="266.24,-282.25 276.58,-279.95 267.07,-275.29 266.24,-282.25"/>
</a>
</g>
</g>
<!-- Node6 -->
<g id="Node000006" class="node">
<title>Node6</title>
<g id="a_Node000006"><a xlink:href="group__elements.html#a41dcaa1132c502cb86c01aae1e7b9ff2" target="_top" xlink:title=" ">
<polygon fill="white" stroke="#666666" points="361.88,-251 278.38,-251 278.38,-219 361.88,-219 361.88,-251"/>
<text xml:space="preserve" text-anchor="start" x="286.38" y="-239.4" font-family="SourceSans" font-size="8.00">svg::title_element</text>
<text xml:space="preserve" text-anchor="middle" x="320.12" y="-227.4" font-family="SourceSans" font-size="8.00">::start_element</text>
</a>
</g>
</g>
<!-- Node4&#45;&gt;Node6 -->
<g id="edge6_Node000004_Node000006" class="edge">
<title>Node4&#45;&gt;Node6</title>
<g id="a_edge6_Node000004_Node000006"><a xlink:title=" ">
<path fill="none" stroke="#63b8ff" d="M229.24,-257.68C241.44,-254.6 254.75,-251.24 267.3,-248.08"/>
<polygon fill="#63b8ff" stroke="#63b8ff" points="267.78,-251.57 276.62,-245.73 266.07,-244.78 267.78,-251.57"/>
</a>
</g>
</g>
<!-- Node8 -->
<g id="Node000008" class="node">
<title>Node8</title>
<g id="a_Node000008"><a xlink:href="group__elements.html#a71cf2eb89a562527f14c4ca4c027c2b9" target="_top" xlink:title=" ">
<polygon fill="white" stroke="#666666" points="366,-201 274.25,-201 274.25,-169 366,-169 366,-201"/>
<text xml:space="preserve" text-anchor="start" x="282.25" y="-189.4" font-family="SourceSans" font-size="8.00">svg::group_element</text>
<text xml:space="preserve" text-anchor="middle" x="320.12" y="-177.4" font-family="SourceSans" font-size="8.00">::finish_group</text>
</a>
</g>
</g>
<!-- Node7&#45;&gt;Node8 -->
<g id="edge8_Node000007_Node000008" class="edge">
<title>Node7&#45;&gt;Node8</title>
<g id="a_edge8_Node000007_Node000008"><a xlink:title=" ">
<path fill="none" stroke="#63b8ff" d="M229.62,-197.62C240.17,-196.13 251.54,-194.53 262.52,-192.98"/>
<polygon fill="#63b8ff" stroke="#63b8ff" points="262.86,-196.47 272.27,-191.61 261.88,-189.54 262.86,-196.47"/>
</a>
</g>
</g>
<!-- Node10 -->
<g id="Node000010" class="node">
<title>Node10</title>
<g id="a_Node000010"><a xlink:href="namespacesvg.html#a09509ddd1e99609e1e4c06690328d919" target="_top" xlink:title="Create rect_element at origin.">
<polygon fill="white" stroke="#666666" points="356.25,-151 284,-151 284,-131 356.25,-131 356.25,-151"/>
<text xml:space="preserve" text-anchor="middle" x="320.12" y="-139.4" font-family="SourceSans" font-size="8.00">svg::make_rect</text>
</a>
</g>
</g>
<!-- Node9&#45;&gt;Node10 -->
<g id="edge10_Node000009_Node000010" class="edge">
<title>Node9&#45;&gt;Node10</title>
<g id="a_edge10_Node000009_Node000010"><a xlink:title=" ">
<path fill="none" stroke="#63b8ff" d="M238.41,-152.38C249.71,-150.79 261.54,-149.12 272.54,-147.57"/>
<polygon fill="#63b8ff" stroke="#63b8ff" points="272.74,-151.07 282.16,-146.21 271.77,-144.14 272.74,-151.07"/>
</a>
</g>
</g>
<!-- Node11 -->
<g id="Node000011" class="node">
<title>Node11</title>
<g id="a_Node000011"><a xlink:href="group__elements.html#a1dd6663d882fb5dd14a47462a77f351b" target="_top" xlink:title="Either serialize immediately (as below), or create data structure that adds data to data_vec and then...">
<polygon fill="white" stroke="#666666" points="496,-282 408.75,-282 408.75,-250 496,-250 496,-282"/>
<text xml:space="preserve" text-anchor="start" x="416.75" y="-270.4" font-family="SourceSans" font-size="8.00">svg::rect_element::</text>
<text xml:space="preserve" text-anchor="middle" x="452.38" y="-258.4" font-family="SourceSans" font-size="8.00">add_data</text>
</a>
</g>
</g>
<!-- Node10&#45;&gt;Node11 -->
<g id="edge11_Node000010_Node000011" class="edge">
<title>Node10&#45;&gt;Node11</title>
<g id="a_edge11_Node000010_Node000011"><a xlink:title=" ">
<path fill="none" stroke="#63b8ff" d="M353.85,-151.34C358.28,-153.71 362.5,-156.56 366,-160 394.1,-187.61 374.86,-212.45 402,-241 402.48,-241.5 402.96,-241.99 403.46,-242.48"/>
<polygon fill="#63b8ff" stroke="#63b8ff" points="401.18,-245.13 411.18,-248.65 405.56,-239.67 401.18,-245.13"/>
</a>
</g>
</g>
<!-- Node13 -->
<g id="Node000013" class="node">
<title>Node13</title>
<g id="a_Node000013"><a xlink:href="group__elements.html#a1b22cfab9437b40c8b877ffe5472ff02" target="_top" xlink:title=" ">
<polygon fill="white" stroke="#666666" points="497.88,-232 406.88,-232 406.88,-200 497.88,-200 497.88,-232"/>
<text xml:space="preserve" text-anchor="start" x="414.88" y="-220.4" font-family="SourceSans" font-size="8.00">svg::element_base::</text>
<text xml:space="preserve" text-anchor="middle" x="452.38" y="-208.4" font-family="SourceSans" font-size="8.00">add_filter</text>
</a>
</g>
</g>
<!-- Node10&#45;&gt;Node13 -->
<g id="edge13_Node000010_Node000013" class="edge">
<title>Node10&#45;&gt;Node13</title>
<g id="a_edge13_Node000010_Node000013"><a xlink:title=" ">
<path fill="none" stroke="#63b8ff" d="M349.33,-151.36C355.01,-153.88 360.83,-156.79 366,-160 383.94,-171.14 384.45,-179.26 402,-191 403.4,-191.94 404.83,-192.86 406.3,-193.77"/>
<polygon fill="#63b8ff" stroke="#63b8ff" points="404.53,-196.79 414.93,-198.79 408.04,-190.74 404.53,-196.79"/>
</a>
</g>
</g>
<!-- Node14 -->
<g id="Node000014" class="node">
<title>Node14</title>
<g id="a_Node000014"><a xlink:href="group__elements.html#a238b38ca99a1cf6c2baf80c8e4338d99" target="_top" xlink:title=" ">
<polygon fill="white" stroke="#666666" points="497.88,-182 406.88,-182 406.88,-150 497.88,-150 497.88,-182"/>
<text xml:space="preserve" text-anchor="start" x="414.88" y="-170.4" font-family="SourceSans" font-size="8.00">svg::element_base::</text>
<text xml:space="preserve" text-anchor="middle" x="452.38" y="-158.4" font-family="SourceSans" font-size="8.00">add_style</text>
</a>
</g>
</g>
<!-- Node10&#45;&gt;Node14 -->
<g id="edge14_Node000010_Node000014" class="edge">
<title>Node10&#45;&gt;Node14</title>
<g id="a_edge14_Node000010_Node000014"><a xlink:title=" ">
<path fill="none" stroke="#63b8ff" d="M356.72,-147.83C368.6,-150.11 382.15,-152.71 395.21,-155.22"/>
<polygon fill="#63b8ff" stroke="#63b8ff" points="394.54,-158.65 405.02,-157.1 395.86,-151.78 394.54,-158.65"/>
</a>
</g>
</g>
<!-- Node16 -->
<g id="Node000016" class="node">
<title>Node16</title>
<g id="a_Node000016"><a xlink:href="group__elements.html#a53d72a7ff728ad1d4d027254530bcf3d" target="_top" xlink:title=" ">
<polygon fill="white" stroke="#666666" points="497.88,-132 406.88,-132 406.88,-100 497.88,-100 497.88,-132"/>
<text xml:space="preserve" text-anchor="start" x="414.88" y="-120.4" font-family="SourceSans" font-size="8.00">svg::element_base::</text>
<text xml:space="preserve" text-anchor="middle" x="452.38" y="-108.4" font-family="SourceSans" font-size="8.00">add_transform</text>
</a>
</g>
</g>
<!-- Node10&#45;&gt;Node16 -->
<g id="edge16_Node000010_Node000016" class="edge">
<title>Node10&#45;&gt;Node16</title>
<g id="a_edge16_Node000010_Node000016"><a xlink:title=" ">
<path fill="none" stroke="#63b8ff" d="M356.72,-134.17C368.6,-131.89 382.15,-129.29 395.21,-126.78"/>
<polygon fill="#63b8ff" stroke="#63b8ff" points="395.86,-130.22 405.02,-124.9 394.54,-123.35 395.86,-130.22"/>
</a>
</g>
</g>
<!-- Node18 -->
<g id="Node000018" class="node">
<title>Node18</title>
<g id="a_Node000018"><a xlink:href="group__elements.html#gad01750ac554c6bd6871a930c90e17a04" target="_top" xlink:title=" ">
<polygon fill="white" stroke="#666666" points="496,-82 408.75,-82 408.75,-50 496,-50 496,-82"/>
<text xml:space="preserve" text-anchor="start" x="416.75" y="-70.4" font-family="SourceSans" font-size="8.00">svg::rect_element::</text>
<text xml:space="preserve" text-anchor="middle" x="452.38" y="-58.4" font-family="SourceSans" font-size="8.00">finish_element</text>
</a>
</g>
</g>
<!-- Node10&#45;&gt;Node18 -->
<g id="edge18_Node000010_Node000018" class="edge">
<title>Node10&#45;&gt;Node18</title>
<g id="a_edge18_Node000010_Node000018"><a xlink:title=" ">
<path fill="none" stroke="#63b8ff" d="M337,-130.63C353.13,-120.22 378.96,-103.92 402,-91 403.92,-89.92 405.89,-88.84 407.88,-87.76"/>
<polygon fill="#63b8ff" stroke="#63b8ff" points="409.43,-90.9 416.63,-83.13 406.16,-84.71 409.43,-90.9"/>
</a>
</g>
</g>
<!-- Node19 -->
<g id="Node000019" class="node">
<title>Node19</title>
<g id="a_Node000019"><a xlink:href="group__elements.html#a1e0ed5e9dfe1244317a87d7e6774348b" target="_top" xlink:title=" ">
<polygon fill="white" stroke="#666666" points="496,-32 408.75,-32 408.75,0 496,0 496,-32"/>
<text xml:space="preserve" text-anchor="start" x="416.75" y="-20.4" font-family="SourceSans" font-size="8.00">svg::rect_element::</text>
<text xml:space="preserve" text-anchor="middle" x="452.38" y="-8.4" font-family="SourceSans" font-size="8.00">start_element</text>
</a>
</g>
</g>
<!-- Node10&#45;&gt;Node19 -->
<g id="edge19_Node000010_Node000019" class="edge">
<title>Node10&#45;&gt;Node19</title>
<g id="a_edge19_Node000010_Node000019"><a xlink:title=" ">
<path fill="none" stroke="#63b8ff" d="M335.59,-130.8C344.98,-123.7 357.09,-113.64 366,-103 386.46,-78.57 378.83,-62.88 402,-41 402.63,-40.41 403.27,-39.82 403.93,-39.25"/>
<polygon fill="#63b8ff" stroke="#63b8ff" points="406.01,-42.07 411.98,-33.32 401.85,-36.44 406.01,-42.07"/>
</a>
</g>
</g>
<!-- Node12 -->
<g id="Node000012" class="node">
<title>Node12</title>
<g id="a_Node000012"><a xlink:href="namespacesvg.html#a48ac748e89e22789d1772326a98dd7b6" target="_top" xlink:title=" ">
<polygon fill="white" stroke="#666666" points="640.25,-276 553,-276 553,-256 640.25,-256 640.25,-276"/>
<text xml:space="preserve" text-anchor="middle" x="596.62" y="-264.4" font-family="SourceSans" font-size="8.00">svg::string_replace</text>
</a>
</g>
</g>
<!-- Node11&#45;&gt;Node12 -->
<g id="edge12_Node000011_Node000012" class="edge">
<title>Node11&#45;&gt;Node12</title>
<g id="a_edge12_Node000011_Node000012"><a xlink:title=" ">
<path fill="none" stroke="#63b8ff" d="M496.44,-266C510.65,-266 526.63,-266 541.55,-266"/>
<polygon fill="#63b8ff" stroke="#63b8ff" points="541.19,-269.5 551.19,-266 541.19,-262.5 541.19,-269.5"/>
</a>
</g>
</g>
<!-- Node15 -->
<g id="Node000015" class="node">
<title>Node15</title>
<g id="a_Node000015"><a xlink:href="namespacesvg.html#a36b1c48ad4601b205790e3772ad0a7b6" target="_top" xlink:title=" ">
<polygon fill="white" stroke="#666666" points="630.12,-176 563.12,-176 563.12,-156 630.12,-156 630.12,-176"/>
<text xml:space="preserve" text-anchor="middle" x="596.62" y="-164.4" font-family="SourceSans" font-size="8.00">svg::to_string</text>
</a>
</g>
</g>
<!-- Node14&#45;&gt;Node15 -->
<g id="edge15_Node000014_Node000015" class="edge">
<title>Node14&#45;&gt;Node15</title>
<g id="a_edge15_Node000014_Node000015"><a xlink:title=" ">
<path fill="none" stroke="#63b8ff" d="M497.99,-166C515.07,-166 534.53,-166 551.56,-166"/>
<polygon fill="#63b8ff" stroke="#63b8ff" points="551.39,-169.5 561.39,-166 551.39,-162.5 551.39,-169.5"/>
</a>
</g>
</g>
<!-- Node17 -->
<g id="Node000017" class="node">
<title>Node17</title>
<g id="a_Node000017"><a xlink:href="group__elements.html#ae50258851ebbaf08c7eebc3fbdbf1ac8" target="_top" xlink:title="Common transforms include rotate(180)">
<polygon fill="white" stroke="#666666" points="654.5,-132 538.75,-132 538.75,-100 654.5,-100 654.5,-132"/>
<text xml:space="preserve" text-anchor="start" x="546.75" y="-120.4" font-family="SourceSans" font-size="8.00">svg::element_base::</text>
<text xml:space="preserve" text-anchor="middle" x="596.62" y="-108.4" font-family="SourceSans" font-size="8.00">make_transform_attribute</text>
</a>
</g>
</g>
<!-- Node16&#45;&gt;Node17 -->
<g id="edge17_Node000016_Node000017" class="edge">
<title>Node16&#45;&gt;Node17</title>
<g id="a_edge17_Node000016_Node000017"><a xlink:title=" ">
<path fill="none" stroke="#63b8ff" d="M497.99,-116C507.19,-116 517.07,-116 526.89,-116"/>
<polygon fill="#63b8ff" stroke="#63b8ff" points="526.84,-119.5 536.84,-116 526.84,-112.5 526.84,-119.5"/>
</a>
</g>
</g>
<!-- Node22 -->
<g id="Node000022" class="node">
<title>Node22</title>
<g id="a_Node000022"><a xlink:href="group__elements.html#ab84e1bc08d2d2a71ab05521af65d7585" target="_top" xlink:title=" ">
<polygon fill="white" stroke="#666666" points="366,-94 274.25,-94 274.25,-62 366,-62 366,-94"/>
<text xml:space="preserve" text-anchor="start" x="282.25" y="-82.4" font-family="SourceSans" font-size="8.00">svg::group_element</text>
<text xml:space="preserve" text-anchor="middle" x="320.12" y="-70.4" font-family="SourceSans" font-size="8.00">::start_group</text>
</a>
</g>
</g>
<!-- Node21&#45;&gt;Node22 -->
<g id="edge22_Node000021_Node000022" class="edge">
<title>Node21&#45;&gt;Node22</title>
<g id="a_edge22_Node000021_Node000022"><a xlink:title=" ">
<path fill="none" stroke="#63b8ff" d="M229.62,-78C240.17,-78 251.54,-78 262.52,-78"/>
<polygon fill="#63b8ff" stroke="#63b8ff" points="262.26,-81.5 272.26,-78 262.26,-74.5 262.26,-81.5"/>
</a>
</g>
</g>
</g>
</svg>

<g id="navigator" transform="translate(0 0)" fill="#404254">
  <rect fill="#f2f5e9" fill-opacity="0.5" stroke="#606060" stroke-width=".5" x="0" y="0" width="60" height="60"/>
  <use id="zoomplus" xlink:href="#zoomPlus" x="17" y="9" onmousedown="handleZoom(evt,'in')"/>
  <use id="zoomminus" xlink:href="#zoomMin" x="42" y="9" onmousedown="handleZoom(evt,'out')"/>
  <use id="reset" xlink:href="#resetDef" x="30" y="36" onmousedown="handleReset()"/>
   <use id="arrowup" xlink:href="#arrowUp" x="0" y="0" onmousedown="handlePan(0,-1)"/>
  <use id="arrowright" xlink:href="#arrowRight" x="0" y="0" onmousedown="handlePan(1,0)"/>
  <use id="arrowdown" xlink:href="#arrowDown" x="0" y="0" onmousedown="handlePan(0,1)"/>
  <use id="arrowleft" xlink:href="#arrowLeft" x="0" y="0" onmousedown="handlePan(-1,0)"/>
</g>
<svg viewBox="0 0 15 15" width="100%" height="30px" preserveAspectRatio="xMaxYMin meet">
 <g id="arrow_out" transform="scale(0.3 0.3)">
  <a xlink:href="namespacesvg_a370aff08ab78f69dfb960b99122f92c6_cgraph_org.svg" target="_base">
   <rect id="button" ry="5" rx="5" y="6" x="6" height="38" width="38"
        fill="#f2f5e9" fill-opacity="0.5" stroke="#606060" stroke-width="1.0"/>
   <path id="arrow"
     d="M 11.500037,31.436501 C 11.940474,20.09759 22.043105,11.32322 32.158766,21.979434 L 37.068811,17.246167 C 37.068811,17.246167 37.088388,32 37.088388,32 L 22.160133,31.978069 C 22.160133,31.978069 26.997745,27.140456 26.997745,27.140456 C 18.528582,18.264221 13.291696,25.230495 11.500037,31.436501 z"
     style="fill:#404040;"/>
  </a>
 </g>
</svg>

<style type='text/css'>
<![CDATA[
[data-mouse-over-selected='false'] { opacity: 0.7; }
[data-mouse-over-selected='true']  { opacity: 1.0; }
]]>
</style>
<script type="application/ecmascript"><![CDATA[
document.addEventListener('DOMContentLoaded', (event) => {
  highlightEdges();
  highlightAdjacentNodes();
});
]]></script>
</svg>
