<?xml version="1.0" encoding="UTF-8" standalone="no"?>
<!DOCTYPE svg PUBLIC "-//W3C//DTD SVG 1.1//EN"
 "http://www.w3.org/Graphics/SVG/1.1/DTD/svg11.dtd">
<!-- Generated by graphviz version 13.1.2 (20250808.2320)
 -->
<!-- Title: svg::h_chord_graph Pages: 1 -->
<!--zoomable 600 -->

<svg id="main" version="1.1" xmlns="http://www.w3.org/2000/svg" xmlns:xlink="http://www.w3.org/1999/xlink" xml:space="preserve" onload="init(evt)">

<style type="text/css"><![CDATA[
.node, .edge {opacity: 0.7;}
.node.selected, .edge.selected {opacity: 1;}
.edge:hover path { stroke: red; }
.edge:hover polygon { stroke: red; fill: red; }
]]></style>

<defs>
  <circle id="rim" cx="0" cy="0" r="7"/>
  <circle id="rim2" cx="0" cy="0" r="3.5"/>
  <g id="zoomPlus">
    <use xlink:href="#rim" fill="#404040"><set attributeName="fill" to="#808080" begin="zoomplus.mouseover" end="zoomplus.mouseout"/></use>
    <path d="M-4,0h8M0,-4v8" fill="none" stroke="white" stroke-width="1.5" pointer-events="none"/>
  </g>
  <g id="zoomMin">
    <use xlink:href="#rim" fill="#404040"><set attributeName="fill" to="#808080" begin="zoomminus.mouseover" end="zoomminus.mouseout"/></use>
    <path d="M-4,0h8" fill="none" stroke="white" stroke-width="1.5" pointer-events="none"/>
  </g>
  <g id="arrowUp" transform="translate(30 24)">
    <use xlink:href="#rim"/>
    <path pointer-events="none" fill="none" stroke="white" stroke-width="1.5" d="M0,-3.0v7 M-2.5,-0.5L0,-3.0L2.5,-0.5"/>
  </g>
  <g id="arrowRight" transform="rotate(90) translate(36 -43)">
    <use xlink:href="#rim"/>
    <path pointer-events="none" fill="none" stroke="white" stroke-width="1.5" d="M0,-3.0v7 M-2.5,-0.5L0,-3.0L2.5,-0.5"/>
  </g>
  <g id="arrowDown" transform="rotate(180) translate(-30 -48)">
    <use xlink:href="#rim"/>
    <path pointer-events="none" fill="none" stroke="white" stroke-width="1.5" d="M0,-3.0v7 M-2.5,-0.5L0,-3.0L2.5,-0.5"/>
  </g>
  <g id="arrowLeft" transform="rotate(270) translate(-36 17)">
    <use xlink:href="#rim"/>
    <path pointer-events="none" fill="none" stroke="white" stroke-width="1.5" d="M0,-3.0v7 M-2.5,-0.5L0,-3.0L2.5,-0.5"/>
  </g>
  <g id="resetDef">
    <use xlink:href="#rim2" fill="#404040"><set attributeName="fill" to="#808080" begin="reset.mouseover" end="reset.mouseout"/></use>
  </g>
</defs>
<script type="application/ecmascript">
var viewWidth = 1030;
var viewHeight = 600;
var sectionId = 'dynsection-24';
</script>
<script type="application/ecmascript" xlink:href="svg.min.js"/>
<svg id="graph" class="graph">
<g id="viewport">
<title>svg::h_chord_graph</title>
<!-- Node1 -->
<g id="Node000001" class="node">
<title>Node1</title>
<g id="a_Node000001"><a xlink:title=" ">
<polygon fill="#999999" stroke="#666666" points="91,-325 0,-325 0,-305 91,-305 91,-325"/>
<text xml:space="preserve" text-anchor="middle" x="45.5" y="-313.4" font-family="SourceSans" font-size="8.00">svg::h_chord_graph</text>
</a>
</g>
</g>
<!-- Node2 -->
<g id="Node000002" class="node">
<title>Node2</title>
<g id="a_Node000002"><a xlink:href="group__elements.html#ada0333b46b2547c6152f3f5811016a12" target="_top" xlink:title=" ">
<polygon fill="white" stroke="#666666" points="601.25,-432 510.25,-432 510.25,-400 601.25,-400 601.25,-432"/>
<text xml:space="preserve" text-anchor="start" x="518.25" y="-420.4" font-family="SourceSans" font-size="8.00">svg::element_base::</text>
<text xml:space="preserve" text-anchor="middle" x="555.75" y="-408.4" font-family="SourceSans" font-size="8.00">add_element</text>
</a>
</g>
</g>
<!-- Node1&#45;&gt;Node2 -->
<g id="edge1_Node000001_Node000002" class="edge">
<title>Node1&#45;&gt;Node2</title>
<g id="a_edge1_Node000001_Node000002"><a xlink:title=" ">
<path fill="none" stroke="#63b8ff" d="M72.66,-304.52C123.06,-285.83 236.75,-251.07 328.5,-277 408.14,-299.51 487.34,-358.8 527.56,-392.22"/>
<polygon fill="#63b8ff" stroke="#63b8ff" points="525.17,-394.78 535.07,-398.55 529.68,-389.43 525.17,-394.78"/>
</a>
</g>
</g>
<!-- Node4 -->
<g id="Node000004" class="node">
<title>Node4</title>
<g id="a_Node000004"><a xlink:href="namespacesvg.html#a764da2292bc40af6c5f68c91f5e761f3" target="_top" xlink:title=" ">
<polygon fill="white" stroke="#666666" points="327,-496 255.5,-496 255.5,-476 327,-476 327,-496"/>
<text xml:space="preserve" text-anchor="middle" x="291.25" y="-484.4" font-family="SourceSans" font-size="8.00">svg::ctopspace</text>
</a>
</g>
</g>
<!-- Node1&#45;&gt;Node4 -->
<g id="edge3_Node000001_Node000004" class="edge">
<title>Node1&#45;&gt;Node4</title>
<g id="a_edge3_Node000001_Node000004"><a xlink:title=" ">
<path fill="none" stroke="#63b8ff" d="M49.86,-325.23C58.48,-349.77 83.77,-412.33 127,-444 161.15,-469.02 208.82,-479.17 243.84,-483.27"/>
<polygon fill="#63b8ff" stroke="#63b8ff" points="243.38,-486.75 253.69,-484.29 244.1,-479.78 243.38,-486.75"/>
</a>
</g>
</g>
<!-- Node5 -->
<g id="Node000005" class="node">
<title>Node5</title>
<g id="a_Node000005"><a xlink:href="namespacesvg.html#ad2b6aa46fdfc43578e5da3532fe4e199" target="_top" xlink:title="Compute xoffset.">
<polygon fill="white" stroke="#666666" points="328.5,-458 254,-458 254,-438 328.5,-438 328.5,-458"/>
<text xml:space="preserve" text-anchor="middle" x="291.25" y="-446.4" font-family="SourceSans" font-size="8.00">svg::get_xoffset</text>
</a>
</g>
</g>
<!-- Node1&#45;&gt;Node5 -->
<g id="edge4_Node000001_Node000005" class="edge">
<title>Node1&#45;&gt;Node5</title>
<g id="a_edge4_Node000001_Node000005"><a xlink:title=" ">
<path fill="none" stroke="#63b8ff" d="M51.5,-325.28C62.2,-346.1 89.43,-393.19 127,-416 161.93,-437.21 208.13,-444.75 242.46,-447.25"/>
<polygon fill="#63b8ff" stroke="#63b8ff" points="241.91,-450.73 252.1,-447.83 242.33,-443.74 241.91,-450.73"/>
</a>
</g>
</g>
<!-- Node6 -->
<g id="Node000006" class="node">
<title>Node6</title>
<g id="a_Node000006"><a xlink:href="namespacesvg.html#ac80f26b9ac327931444209d57665618f" target="_top" xlink:title="Grid, titles, labels for h_chord_graph.">
<polygon fill="white" stroke="#666666" points="218,-407 127,-407 127,-375 218,-375 218,-407"/>
<text xml:space="preserve" text-anchor="start" x="135" y="-395.4" font-family="SourceSans" font-size="8.00">svg::h_chord_graph</text>
<text xml:space="preserve" text-anchor="middle" x="172.5" y="-383.4" font-family="SourceSans" font-size="8.00">_labels</text>
</a>
</g>
</g>
<!-- Node1&#45;&gt;Node6 -->
<g id="edge5_Node000001_Node000006" class="edge">
<title>Node1&#45;&gt;Node6</title>
<g id="a_edge5_Node000001_Node000006"><a xlink:title=" ">
<path fill="none" stroke="#63b8ff" d="M63.62,-325.41C81.87,-336.51 111.33,-354.42 134.86,-368.72"/>
<polygon fill="#63b8ff" stroke="#63b8ff" points="132.87,-371.61 143.23,-373.81 136.51,-365.63 132.87,-371.61"/>
</a>
</g>
</g>
<!-- Node7 -->
<g id="Node000007" class="node">
<title>Node7</title>
<g id="a_Node000007"><a xlink:href="namespacesvg.html#a50cee409872b198b159fcc57222d143b" target="_top" xlink:title=" ">
<polygon fill="white" stroke="#666666" points="324,-344 258.5,-344 258.5,-324 324,-324 324,-344"/>
<text xml:space="preserve" text-anchor="middle" x="291.25" y="-332.4" font-family="SourceSans" font-size="8.00">svg::hdenom</text>
</a>
</g>
</g>
<!-- Node1&#45;&gt;Node7 -->
<g id="edge34_Node000001_Node000007" class="edge">
<title>Node1&#45;&gt;Node7</title>
<g id="a_edge34_Node000001_Node000007"><a xlink:title=" ">
<path fill="none" stroke="#63b8ff" d="M91.49,-318.51C135.85,-321.96 203.16,-327.21 246.93,-330.62"/>
<polygon fill="#63b8ff" stroke="#63b8ff" points="246.59,-334.11 256.83,-331.39 247.13,-327.13 246.59,-334.11"/>
</a>
</g>
</g>
<!-- Node8 -->
<g id="Node000008" class="node">
<title>Node8</title>
<g id="a_Node000008"><a xlink:href="namespacesvg.html#a362fbc62daf1dcadc38651ee85b81513" target="_top" xlink:title="Distance between label and top/bottom of line or text.">
<polygon fill="white" stroke="#666666" points="326.25,-306 256.25,-306 256.25,-286 326.25,-286 326.25,-306"/>
<text xml:space="preserve" text-anchor="middle" x="291.25" y="-294.4" font-family="SourceSans" font-size="8.00">svg::ltopspace</text>
</a>
</g>
</g>
<!-- Node1&#45;&gt;Node8 -->
<g id="edge35_Node000001_Node000008" class="edge">
<title>Node1&#45;&gt;Node8</title>
<g id="a_edge35_Node000001_Node000008"><a xlink:title=" ">
<path fill="none" stroke="#63b8ff" d="M91.49,-311.49C134.96,-308.1 200.49,-303 244.29,-299.58"/>
<polygon fill="#63b8ff" stroke="#63b8ff" points="244.55,-303.07 254.25,-298.81 244,-296.09 244.55,-303.07"/>
</a>
</g>
</g>
<!-- Node9 -->
<g id="Node000009" class="node">
<title>Node9</title>
<g id="a_Node000009"><a xlink:href="namespacesvg.html#a0352c1350268fb7ecd96ea81908417e7" target="_top" xlink:title="Line primitive.">
<polygon fill="white" stroke="#666666" points="723.75,-361 651.5,-361 651.5,-341 723.75,-341 723.75,-361"/>
<text xml:space="preserve" text-anchor="middle" x="687.62" y="-349.4" font-family="SourceSans" font-size="8.00">svg::make_line</text>
</a>
</g>
</g>
<!-- Node1&#45;&gt;Node9 -->
<g id="edge36_Node000001_Node000009" class="edge">
<title>Node1&#45;&gt;Node9</title>
<g id="a_edge36_Node000001_Node000009"><a xlink:title=" ">
<path fill="none" stroke="#63b8ff" d="M60.97,-304.51C76.6,-293.6 102.55,-276.65 127,-266 196.11,-235.9 214.87,-220 290.25,-220 290.25,-220 290.25,-220 420.38,-220 521.67,-220 624.43,-297.28 666.65,-333.13"/>
<polygon fill="#63b8ff" stroke="#63b8ff" points="664.17,-335.61 674.02,-339.51 668.75,-330.32 664.17,-335.61"/>
</a>
</g>
</g>
<!-- Node16 -->
<g id="Node000016" class="node">
<title>Node16</title>
<g id="a_Node000016"><a xlink:href="namespacesvg.html#aba9f46c82a468e5594eedb3b4ff14f9e" target="_top" xlink:title="Text at size.">
<polygon fill="white" stroke="#666666" points="327,-534 255.5,-534 255.5,-514 327,-514 327,-534"/>
<text xml:space="preserve" text-anchor="middle" x="291.25" y="-522.4" font-family="SourceSans" font-size="8.00">svg::sized_text</text>
</a>
</g>
</g>
<!-- Node1&#45;&gt;Node16 -->
<g id="edge47_Node000001_Node000016" class="edge">
<title>Node1&#45;&gt;Node16</title>
<g id="a_edge47_Node000001_Node000016"><a xlink:title=" ">
<path fill="none" stroke="#63b8ff" d="M48.7,-325.38C55.28,-353.78 77.45,-433.43 127,-475 160.14,-502.8 208.66,-514.83 244.19,-520.03"/>
<polygon fill="#63b8ff" stroke="#63b8ff" points="243.36,-523.46 253.74,-521.3 244.28,-516.52 243.36,-523.46"/>
</a>
</g>
</g>
<!-- Node27 -->
<g id="Node000027" class="node">
<title>Node27</title>
<g id="a_Node000027"><a xlink:href="namespacesvg.html#a4082d485bfd058b5f64aaad7503dba9b" target="_top" xlink:title="Create rect_element centered at origin.">
<polygon fill="white" stroke="#666666" points="474.25,-191 364.5,-191 364.5,-171 474.25,-171 474.25,-191"/>
<text xml:space="preserve" text-anchor="middle" x="419.38" y="-179.4" font-family="SourceSans" font-size="8.00">svg::make_rect_centered</text>
</a>
</g>
</g>
<!-- Node1&#45;&gt;Node27 -->
<g id="edge37_Node000001_Node000027" class="edge">
<title>Node1&#45;&gt;Node27</title>
<g id="a_edge37_Node000001_Node000027"><a xlink:title=" ">
<path fill="none" stroke="#63b8ff" d="M50.62,-304.59C60.16,-282.04 86.15,-228.86 127,-206 196.66,-167.02 290.65,-166.49 352.82,-171.88"/>
<polygon fill="#63b8ff" stroke="#63b8ff" points="352.25,-175.35 362.53,-172.81 352.91,-168.38 352.25,-175.35"/>
</a>
</g>
</g>
<!-- Node33 -->
<g id="Node000033" class="node">
<title>Node33</title>
<g id="a_Node000033"><a xlink:href="namespacesvg.html#a2e5178befe99e2a7d5ede3c02088055f" target="_top" xlink:title="Scale value from min to max on range (nfloor, nceil).">
<polygon fill="white" stroke="#666666" points="217.25,-154 127.75,-154 127.75,-122 217.25,-122 217.25,-154"/>
<text xml:space="preserve" text-anchor="start" x="135.75" y="-142.4" font-family="SourceSans" font-size="8.00">svg::scale_value_on</text>
<text xml:space="preserve" text-anchor="middle" x="172.5" y="-130.4" font-family="SourceSans" font-size="8.00">_range</text>
</a>
</g>
</g>
<!-- Node1&#45;&gt;Node33 -->
<g id="edge46_Node000001_Node000033" class="edge">
<title>Node1&#45;&gt;Node33</title>
<g id="a_edge46_Node000001_Node000033"><a xlink:title=" ">
<path fill="none" stroke="#63b8ff" d="M50.16,-304.7C59.63,-279.17 87.01,-211.86 127,-168 129.18,-165.61 131.58,-163.32 134.11,-161.14"/>
<polygon fill="#63b8ff" stroke="#63b8ff" points="136.1,-164.03 141.85,-155.13 131.81,-158.5 136.1,-164.03"/>
</a>
</g>
</g>
<!-- Node3 -->
<g id="Node000003" class="node">
<title>Node3</title>
<g id="a_Node000003"><a xlink:href="group__elements.html#ad893ef9c13a15464c96d8a85c08af30f" target="_top" xlink:title=" ">
<polygon fill="white" stroke="#666666" points="738,-426 637.25,-426 637.25,-406 738,-406 738,-426"/>
<text xml:space="preserve" text-anchor="middle" x="687.62" y="-414.4" font-family="SourceSans" font-size="8.00">svg::element_base::str</text>
</a>
</g>
</g>
<!-- Node2&#45;&gt;Node3 -->
<g id="edge2_Node000002_Node000003" class="edge">
<title>Node2&#45;&gt;Node3</title>
<g id="a_edge2_Node000002_Node000003"><a xlink:title=" ">
<path fill="none" stroke="#63b8ff" d="M601.45,-416C609.23,-416 617.44,-416 625.57,-416"/>
<polygon fill="#63b8ff" stroke="#63b8ff" points="625.44,-419.5 635.44,-416 625.44,-412.5 625.44,-419.5"/>
</a>
</g>
</g>
<!-- Node6&#45;&gt;Node2 -->
<g id="edge6_Node000006_Node000002" class="edge">
<title>Node6&#45;&gt;Node2</title>
<g id="a_edge6_Node000006_Node000002"><a xlink:title=" ">
<path fill="none" stroke="#63b8ff" d="M218.36,-393.94C288.1,-398.51 422.41,-407.32 498.52,-412.31"/>
<polygon fill="#63b8ff" stroke="#63b8ff" points="498.05,-415.79 508.26,-412.95 498.51,-408.8 498.05,-415.79"/>
</a>
</g>
</g>
<!-- Node6&#45;&gt;Node4 -->
<g id="edge7_Node000006_Node000004" class="edge">
<title>Node6&#45;&gt;Node4</title>
<g id="a_edge7_Node000006_Node000004"><a xlink:title=" ">
<path fill="none" stroke="#63b8ff" d="M188.12,-407.21C203.46,-423.6 228.81,-449.03 254,-467 255.37,-467.98 256.8,-468.94 258.27,-469.88"/>
<polygon fill="#63b8ff" stroke="#63b8ff" points="256.5,-472.9 266.9,-474.92 260.03,-466.85 256.5,-472.9"/>
</a>
</g>
</g>
<!-- Node6&#45;&gt;Node5 -->
<g id="edge8_Node000006_Node000005" class="edge">
<title>Node6&#45;&gt;Node5</title>
<g id="a_edge8_Node000006_Node000005"><a xlink:title=" ">
<path fill="none" stroke="#63b8ff" d="M207.27,-407.49C223.62,-415.47 243.13,-424.99 259.12,-432.8"/>
<polygon fill="#63b8ff" stroke="#63b8ff" points="257.17,-435.74 267.69,-436.98 260.24,-429.45 257.17,-435.74"/>
</a>
</g>
</g>
<!-- Node6&#45;&gt;Node7 -->
<g id="edge9_Node000006_Node000007" class="edge">
<title>Node6&#45;&gt;Node7</title>
<g id="a_edge9_Node000006_Node000007"><a xlink:title=" ">
<path fill="none" stroke="#63b8ff" d="M207.27,-374.51C223.62,-366.53 243.13,-357.01 259.12,-349.2"/>
<polygon fill="#63b8ff" stroke="#63b8ff" points="260.24,-352.55 267.69,-345.02 257.17,-346.26 260.24,-352.55"/>
</a>
</g>
</g>
<!-- Node6&#45;&gt;Node8 -->
<g id="edge10_Node000006_Node000008" class="edge">
<title>Node6&#45;&gt;Node8</title>
<g id="a_edge10_Node000006_Node000008"><a xlink:title=" ">
<path fill="none" stroke="#63b8ff" d="M188.12,-374.79C203.46,-358.4 228.81,-332.97 254,-315 255.37,-314.02 256.8,-313.06 258.27,-312.12"/>
<polygon fill="#63b8ff" stroke="#63b8ff" points="260.03,-315.15 266.9,-307.08 256.5,-309.1 260.03,-315.15"/>
</a>
</g>
</g>
<!-- Node6&#45;&gt;Node9 -->
<g id="edge11_Node000006_Node000009" class="edge">
<title>Node6&#45;&gt;Node9</title>
<g id="a_edge11_Node000006_Node000009"><a xlink:title=" ">
<path fill="none" stroke="#63b8ff" d="M218.14,-387.52C314.55,-380 541.48,-362.31 639.82,-354.65"/>
<polygon fill="#63b8ff" stroke="#63b8ff" points="639.95,-358.15 649.65,-353.88 639.41,-351.17 639.95,-358.15"/>
</a>
</g>
</g>
<!-- Node6&#45;&gt;Node16 -->
<g id="edge18_Node000006_Node000016" class="edge">
<title>Node6&#45;&gt;Node16</title>
<g id="a_edge18_Node000006_Node000016"><a xlink:title=" ">
<path fill="none" stroke="#63b8ff" d="M181.69,-407.18C194.43,-431.08 221.01,-476.1 254,-505 255.05,-505.92 256.16,-506.81 257.3,-507.68"/>
<polygon fill="#63b8ff" stroke="#63b8ff" points="255.01,-510.36 265.3,-512.85 258.81,-504.48 255.01,-510.36"/>
</a>
</g>
</g>
<!-- Node10 -->
<g id="Node000010" class="node">
<title>Node10</title>
<g id="a_Node000010"><a xlink:href="group__elements.html#a306eac4c5a7ea755ab6375a65489366f" target="_top" xlink:title=" ">
<polygon fill="white" stroke="#666666" points="865.75,-332 778.5,-332 778.5,-300 865.75,-300 865.75,-332"/>
<text xml:space="preserve" text-anchor="start" x="786.5" y="-320.4" font-family="SourceSans" font-size="8.00">svg::line_element::</text>
<text xml:space="preserve" text-anchor="middle" x="822.12" y="-308.4" font-family="SourceSans" font-size="8.00">add_data</text>
</a>
</g>
</g>
<!-- Node9&#45;&gt;Node10 -->
<g id="edge12_Node000009_Node000010" class="edge">
<title>Node9&#45;&gt;Node10</title>
<g id="a_edge12_Node000009_Node000010"><a xlink:title=" ">
<path fill="none" stroke="#63b8ff" d="M724.13,-341.62C737.45,-338.1 752.9,-334.02 767.49,-330.17"/>
<polygon fill="#63b8ff" stroke="#63b8ff" points="768.2,-333.6 776.98,-327.66 766.41,-326.83 768.2,-333.6"/>
</a>
</g>
</g>
<!-- Node12 -->
<g id="Node000012" class="node">
<title>Node12</title>
<g id="a_Node000012"><a xlink:href="group__elements.html#a238b38ca99a1cf6c2baf80c8e4338d99" target="_top" xlink:title=" ">
<polygon fill="white" stroke="#666666" points="867.62,-232 776.62,-232 776.62,-200 867.62,-200 867.62,-232"/>
<text xml:space="preserve" text-anchor="start" x="784.62" y="-220.4" font-family="SourceSans" font-size="8.00">svg::element_base::</text>
<text xml:space="preserve" text-anchor="middle" x="822.12" y="-208.4" font-family="SourceSans" font-size="8.00">add_style</text>
</a>
</g>
</g>
<!-- Node9&#45;&gt;Node12 -->
<g id="edge14_Node000009_Node000012" class="edge">
<title>Node9&#45;&gt;Node12</title>
<g id="a_edge14_Node000009_Node000012"><a xlink:title=" ">
<path fill="none" stroke="#63b8ff" d="M694.52,-340.73C706.96,-319.78 737.74,-271.5 774,-241 774.92,-240.23 775.87,-239.46 776.84,-238.72"/>
<polygon fill="#63b8ff" stroke="#63b8ff" points="778.53,-241.8 784.81,-233.27 774.58,-236.02 778.53,-241.8"/>
</a>
</g>
</g>
<!-- Node14 -->
<g id="Node000014" class="node">
<title>Node14</title>
<g id="a_Node000014"><a xlink:href="group__elements.html#ga4769af15793cb308d426abb5fd552df5" target="_top" xlink:title=" ">
<polygon fill="white" stroke="#666666" points="865.75,-432 778.5,-432 778.5,-400 865.75,-400 865.75,-432"/>
<text xml:space="preserve" text-anchor="start" x="786.5" y="-420.4" font-family="SourceSans" font-size="8.00">svg::line_element::</text>
<text xml:space="preserve" text-anchor="middle" x="822.12" y="-408.4" font-family="SourceSans" font-size="8.00">finish_element</text>
</a>
</g>
</g>
<!-- Node9&#45;&gt;Node14 -->
<g id="edge16_Node000009_Node000014" class="edge">
<title>Node9&#45;&gt;Node14</title>
<g id="a_edge16_Node000009_Node000014"><a xlink:title=" ">
<path fill="none" stroke="#63b8ff" d="M709.91,-361.44C728.12,-370.37 754.9,-383.51 777.63,-394.66"/>
<polygon fill="#63b8ff" stroke="#63b8ff" points="775.86,-397.69 786.37,-398.95 778.94,-391.41 775.86,-397.69"/>
</a>
</g>
</g>
<!-- Node15 -->
<g id="Node000015" class="node">
<title>Node15</title>
<g id="a_Node000015"><a xlink:href="group__elements.html#aa6b4ba04be5858b4943235801f034943" target="_top" xlink:title=" ">
<polygon fill="white" stroke="#666666" points="865.75,-382 778.5,-382 778.5,-350 865.75,-350 865.75,-382"/>
<text xml:space="preserve" text-anchor="start" x="786.5" y="-370.4" font-family="SourceSans" font-size="8.00">svg::line_element::</text>
<text xml:space="preserve" text-anchor="middle" x="822.12" y="-358.4" font-family="SourceSans" font-size="8.00">start_element</text>
</a>
</g>
</g>
<!-- Node9&#45;&gt;Node15 -->
<g id="edge17_Node000009_Node000015" class="edge">
<title>Node9&#45;&gt;Node15</title>
<g id="a_edge17_Node000009_Node000015"><a xlink:title=" ">
<path fill="none" stroke="#63b8ff" d="M724.13,-355.02C737.32,-356.51 752.59,-358.24 767.06,-359.88"/>
<polygon fill="#63b8ff" stroke="#63b8ff" points="766.61,-363.35 776.94,-361 767.39,-356.39 766.61,-363.35"/>
</a>
</g>
</g>
<!-- Node11 -->
<g id="Node000011" class="node">
<title>Node11</title>
<g id="a_Node000011"><a xlink:href="namespacesvg.html#a48ac748e89e22789d1772326a98dd7b6" target="_top" xlink:title=" ">
<polygon fill="white" stroke="#666666" points="1007.75,-376 920.5,-376 920.5,-356 1007.75,-356 1007.75,-376"/>
<text xml:space="preserve" text-anchor="middle" x="964.12" y="-364.4" font-family="SourceSans" font-size="8.00">svg::string_replace</text>
</a>
</g>
</g>
<!-- Node10&#45;&gt;Node11 -->
<g id="edge13_Node000010_Node000011" class="edge">
<title>Node10&#45;&gt;Node11</title>
<g id="a_edge13_Node000010_Node000011"><a xlink:title=" ">
<path fill="none" stroke="#63b8ff" d="M865.89,-331.27C884.14,-337.79 905.31,-345.35 923.23,-351.75"/>
<polygon fill="#63b8ff" stroke="#63b8ff" points="921.89,-354.99 932.48,-355.06 924.24,-348.4 921.89,-354.99"/>
</a>
</g>
</g>
<!-- Node13 -->
<g id="Node000013" class="node">
<title>Node13</title>
<g id="a_Node000013"><a xlink:href="namespacesvg.html#a36b1c48ad4601b205790e3772ad0a7b6" target="_top" xlink:title=" ">
<polygon fill="white" stroke="#666666" points="997.62,-536 930.62,-536 930.62,-516 997.62,-516 997.62,-536"/>
<text xml:space="preserve" text-anchor="middle" x="964.12" y="-524.4" font-family="SourceSans" font-size="8.00">svg::to_string</text>
</a>
</g>
</g>
<!-- Node12&#45;&gt;Node13 -->
<g id="edge15_Node000012_Node000013" class="edge">
<title>Node12&#45;&gt;Node13</title>
<g id="a_edge15_Node000012_Node000013"><a xlink:title=" ">
<path fill="none" stroke="#63b8ff" d="M861.76,-232.16C865,-234.72 867.92,-237.66 870.25,-241 938.47,-338.87 830.18,-415.1 906.25,-507 909.93,-511.45 914.69,-514.86 919.88,-517.48"/>
<polygon fill="#63b8ff" stroke="#63b8ff" points="918.24,-520.59 928.82,-521.03 920.82,-514.09 918.24,-520.59"/>
</a>
</g>
</g>
<!-- Node17 -->
<g id="Node000017" class="node">
<title>Node17</title>
<g id="a_Node000017"><a xlink:href="namespacesvg.html#a1f7d3202fb81e08877157baf0ad6ccdf" target="_top" xlink:title="Text at.">
<polygon fill="white" stroke="#666666" points="456.62,-534 382.12,-534 382.12,-514 456.62,-514 456.62,-534"/>
<text xml:space="preserve" text-anchor="middle" x="419.38" y="-522.4" font-family="SourceSans" font-size="8.00">svg::styled_text</text>
</a>
</g>
</g>
<!-- Node16&#45;&gt;Node17 -->
<g id="edge19_Node000016_Node000017" class="edge">
<title>Node16&#45;&gt;Node17</title>
<g id="a_edge19_Node000016_Node000017"><a xlink:title=" ">
<path fill="none" stroke="#63b8ff" d="M327.38,-524C340.73,-524 356.16,-524 370.48,-524"/>
<polygon fill="#63b8ff" stroke="#63b8ff" points="370.16,-527.5 380.16,-524 370.16,-520.5 370.16,-527.5"/>
</a>
</g>
</g>
<!-- Node17&#45;&gt;Node2 -->
<g id="edge20_Node000017_Node000002" class="edge">
<title>Node17&#45;&gt;Node2</title>
<g id="a_edge20_Node000017_Node000002"><a xlink:title=" ">
<path fill="none" stroke="#63b8ff" d="M433.26,-513.64C454.36,-496.68 496.81,-462.57 525.51,-439.5"/>
<polygon fill="#63b8ff" stroke="#63b8ff" points="527.52,-442.38 533.12,-433.38 523.13,-436.92 527.52,-442.38"/>
</a>
</g>
</g>
<!-- Node18 -->
<g id="Node000018" class="node">
<title>Node18</title>
<g id="a_Node000018"><a xlink:href="namespacesvg.html#a74ca2344cea417d9107d56f4f53c5b0b" target="_top" xlink:title="Text element at.">
<polygon fill="white" stroke="#666666" points="590.38,-534 521.12,-534 521.12,-514 590.38,-514 590.38,-534"/>
<text xml:space="preserve" text-anchor="middle" x="555.75" y="-522.4" font-family="SourceSans" font-size="8.00">svg::style_text</text>
</a>
</g>
</g>
<!-- Node17&#45;&gt;Node18 -->
<g id="edge21_Node000017_Node000018" class="edge">
<title>Node17&#45;&gt;Node18</title>
<g id="a_edge21_Node000017_Node000018"><a xlink:title=" ">
<path fill="none" stroke="#63b8ff" d="M457.09,-524C473.26,-524 492.4,-524 509.44,-524"/>
<polygon fill="#63b8ff" stroke="#63b8ff" points="509.33,-527.5 519.33,-524 509.33,-520.5 509.33,-527.5"/>
</a>
</g>
</g>
<!-- Node19 -->
<g id="Node000019" class="node">
<title>Node19</title>
<g id="a_Node000019"><a xlink:href="group__elements.html#aad29e1daf75bdcd69a39575a6807fa0f" target="_top" xlink:title="Either serialize immediately (as below), or create data structure that adds data to data_vec and then...">
<polygon fill="white" stroke="#666666" points="731.62,-490 643.62,-490 643.62,-458 731.62,-458 731.62,-490"/>
<text xml:space="preserve" text-anchor="start" x="651.62" y="-478.4" font-family="SourceSans" font-size="8.00">svg::text_element::</text>
<text xml:space="preserve" text-anchor="middle" x="687.62" y="-466.4" font-family="SourceSans" font-size="8.00">add_data</text>
</a>
</g>
</g>
<!-- Node18&#45;&gt;Node19 -->
<g id="edge22_Node000018_Node000019" class="edge">
<title>Node18&#45;&gt;Node19</title>
<g id="a_edge22_Node000018_Node000019"><a xlink:title=" ">
<path fill="none" stroke="#63b8ff" d="M583.98,-513.52C598.33,-507.99 616.44,-501.02 633.44,-494.47"/>
<polygon fill="#63b8ff" stroke="#63b8ff" points="634.35,-497.87 642.43,-491.01 631.84,-491.34 634.35,-497.87"/>
</a>
</g>
</g>
<!-- Node25 -->
<g id="Node000025" class="node">
<title>Node25</title>
<g id="a_Node000025"><a xlink:href="group__elements.html#ga13c46848317034d16c62a7d2061ba3d6" target="_top" xlink:title=" ">
<polygon fill="white" stroke="#666666" points="731.62,-590 643.62,-590 643.62,-558 731.62,-558 731.62,-590"/>
<text xml:space="preserve" text-anchor="start" x="651.62" y="-578.4" font-family="SourceSans" font-size="8.00">svg::text_element::</text>
<text xml:space="preserve" text-anchor="middle" x="687.62" y="-566.4" font-family="SourceSans" font-size="8.00">finish_element</text>
</a>
</g>
</g>
<!-- Node18&#45;&gt;Node25 -->
<g id="edge32_Node000018_Node000025" class="edge">
<title>Node18&#45;&gt;Node25</title>
<g id="a_edge32_Node000018_Node000025"><a xlink:title=" ">
<path fill="none" stroke="#63b8ff" d="M583.98,-534.48C598.33,-540.01 616.44,-546.98 633.44,-553.53"/>
<polygon fill="#63b8ff" stroke="#63b8ff" points="631.84,-556.66 642.43,-556.99 634.35,-550.13 631.84,-556.66"/>
</a>
</g>
</g>
<!-- Node26 -->
<g id="Node000026" class="node">
<title>Node26</title>
<g id="a_Node000026"><a xlink:href="group__elements.html#ae45bec611a6ec17ea46aab6d680ae042" target="_top" xlink:title=" ">
<polygon fill="white" stroke="#666666" points="731.62,-540 643.62,-540 643.62,-508 731.62,-508 731.62,-540"/>
<text xml:space="preserve" text-anchor="start" x="651.62" y="-528.4" font-family="SourceSans" font-size="8.00">svg::text_element::</text>
<text xml:space="preserve" text-anchor="middle" x="687.62" y="-516.4" font-family="SourceSans" font-size="8.00">start_element</text>
</a>
</g>
</g>
<!-- Node18&#45;&gt;Node26 -->
<g id="edge33_Node000018_Node000026" class="edge">
<title>Node18&#45;&gt;Node26</title>
<g id="a_edge33_Node000018_Node000026"><a xlink:title=" ">
<path fill="none" stroke="#63b8ff" d="M590.87,-524C603.44,-524 618.01,-524 631.93,-524"/>
<polygon fill="#63b8ff" stroke="#63b8ff" points="631.9,-527.5 641.9,-524 631.9,-520.5 631.9,-527.5"/>
</a>
</g>
</g>
<!-- Node19&#45;&gt;Node11 -->
<g id="edge30_Node000019_Node000011" class="edge">
<title>Node19&#45;&gt;Node11</title>
<g id="a_edge30_Node000019_Node000011"><a xlink:title=" ">
<path fill="none" stroke="#63b8ff" d="M731.89,-472.16C769.87,-469.17 825.82,-461.35 870.25,-441 900.21,-427.28 928.78,-401.67 946.13,-384.24"/>
<polygon fill="#63b8ff" stroke="#63b8ff" points="948.2,-387.13 952.65,-377.51 943.17,-382.26 948.2,-387.13"/>
</a>
</g>
</g>
<!-- Node19&#45;&gt;Node13 -->
<g id="edge31_Node000019_Node000013" class="edge">
<title>Node19&#45;&gt;Node13</title>
<g id="a_edge31_Node000019_Node000013"><a xlink:title=" ">
<path fill="none" stroke="#63b8ff" d="M727.63,-490.42C731.4,-492.95 734.95,-495.8 738,-499 764.93,-527.19 741.26,-557.83 774,-579 827.62,-613.67 904,-569.26 941.14,-542.91"/>
<polygon fill="#63b8ff" stroke="#63b8ff" points="942.89,-545.97 948.89,-537.24 938.76,-540.32 942.89,-545.97"/>
</a>
</g>
</g>
<!-- Node20 -->
<g id="Node000020" class="node">
<title>Node20</title>
<g id="a_Node000020"><a xlink:href="structsvg_1_1typography.html#adbc62f74f1fed3f7c77567250f084f83" target="_top" xlink:title=" ">
<polygon fill="white" stroke="#666666" points="870.25,-520 774,-520 774,-488 870.25,-488 870.25,-520"/>
<text xml:space="preserve" text-anchor="start" x="782" y="-508.4" font-family="SourceSans" font-size="8.00">svg::typography::add</text>
<text xml:space="preserve" text-anchor="middle" x="822.12" y="-496.4" font-family="SourceSans" font-size="8.00">_attribute</text>
</a>
</g>
</g>
<!-- Node19&#45;&gt;Node20 -->
<g id="edge23_Node000019_Node000020" class="edge">
<title>Node19&#45;&gt;Node20</title>
<g id="a_edge23_Node000019_Node000020"><a xlink:title=" ">
<path fill="none" stroke="#63b8ff" d="M732.01,-483.82C741.77,-486.03 752.27,-488.41 762.53,-490.73"/>
<polygon fill="#63b8ff" stroke="#63b8ff" points="761.52,-494.09 772.05,-492.89 763.07,-487.27 761.52,-494.09"/>
</a>
</g>
</g>
<!-- Node22 -->
<g id="Node000022" class="node">
<title>Node22</title>
<g id="a_Node000022"><a xlink:href="group__elements.html#acafbdd950c6c2639c9d376c3eab696e5" target="_top" xlink:title=" ">
<polygon fill="white" stroke="#666666" points="867.62,-570 776.62,-570 776.62,-538 867.62,-538 867.62,-570"/>
<text xml:space="preserve" text-anchor="start" x="784.62" y="-558.4" font-family="SourceSans" font-size="8.00">svg::element_base::</text>
<text xml:space="preserve" text-anchor="middle" x="822.12" y="-546.4" font-family="SourceSans" font-size="8.00">add_raw</text>
</a>
</g>
</g>
<!-- Node19&#45;&gt;Node22 -->
<g id="edge27_Node000019_Node000022" class="edge">
<title>Node19&#45;&gt;Node22</title>
<g id="a_edge27_Node000019_Node000022"><a xlink:title=" ">
<path fill="none" stroke="#63b8ff" d="M723.45,-490.38C728.44,-493.08 733.42,-495.99 738,-499 755.4,-510.44 756.71,-517.39 774,-529 775.37,-529.92 776.78,-530.83 778.21,-531.73"/>
<polygon fill="#63b8ff" stroke="#63b8ff" points="776.23,-534.63 786.61,-536.73 779.8,-528.61 776.23,-534.63"/>
</a>
</g>
</g>
<!-- Node23 -->
<g id="Node000023" class="node">
<title>Node23</title>
<g id="a_Node000023"><a xlink:href="group__elements.html#a53d72a7ff728ad1d4d027254530bcf3d" target="_top" xlink:title=" ">
<polygon fill="white" stroke="#666666" points="867.62,-282 776.62,-282 776.62,-250 867.62,-250 867.62,-282"/>
<text xml:space="preserve" text-anchor="start" x="784.62" y="-270.4" font-family="SourceSans" font-size="8.00">svg::element_base::</text>
<text xml:space="preserve" text-anchor="middle" x="822.12" y="-258.4" font-family="SourceSans" font-size="8.00">add_transform</text>
</a>
</g>
</g>
<!-- Node19&#45;&gt;Node23 -->
<g id="edge28_Node000019_Node000023" class="edge">
<title>Node19&#45;&gt;Node23</title>
<g id="a_edge28_Node000019_Node000023"><a xlink:title=" ">
<path fill="none" stroke="#63b8ff" d="M715.71,-457.66C723.94,-451.49 732.31,-443.81 738,-435 773.8,-379.59 733.34,-342.95 774,-291 774.24,-290.7 774.48,-290.4 774.72,-290.11"/>
<polygon fill="#63b8ff" stroke="#63b8ff" points="776.88,-292.88 781.76,-283.47 772.08,-287.78 776.88,-292.88"/>
</a>
</g>
</g>
<!-- Node20&#45;&gt;Node11 -->
<g id="edge24_Node000020_Node000011" class="edge">
<title>Node20&#45;&gt;Node11</title>
<g id="a_edge24_Node000020_Node000011"><a xlink:title=" ">
<path fill="none" stroke="#63b8ff" d="M851.99,-487.52C858.26,-483.43 864.68,-478.83 870.25,-474 901.84,-446.64 932.2,-408.34 949.18,-385.47"/>
<polygon fill="#63b8ff" stroke="#63b8ff" points="951.83,-387.77 954.91,-377.63 946.18,-383.64 951.83,-387.77"/>
</a>
</g>
</g>
<!-- Node20&#45;&gt;Node13 -->
<g id="edge25_Node000020_Node000013" class="edge">
<title>Node20&#45;&gt;Node13</title>
<g id="a_edge25_Node000020_Node000013"><a xlink:title=" ">
<path fill="none" stroke="#63b8ff" d="M870.52,-511.45C886.2,-513.91 903.57,-516.64 918.99,-519.06"/>
<polygon fill="#63b8ff" stroke="#63b8ff" points="918.43,-522.52 928.85,-520.61 919.51,-515.6 918.43,-522.52"/>
</a>
</g>
</g>
<!-- Node21 -->
<g id="Node000021" class="node">
<title>Node21</title>
<g id="a_Node000021"><a xlink:href="structsvg_1_1typography.html#a174c1ffb4e56214d71523ffe7e422561" target="_top" xlink:title=" ">
<polygon fill="white" stroke="#666666" points="1008.5,-498 919.75,-498 919.75,-466 1008.5,-466 1008.5,-498"/>
<text xml:space="preserve" text-anchor="start" x="927.75" y="-486.4" font-family="SourceSans" font-size="8.00">svg::typography::to</text>
<text xml:space="preserve" text-anchor="middle" x="964.12" y="-474.4" font-family="SourceSans" font-size="8.00">_string</text>
</a>
</g>
</g>
<!-- Node20&#45;&gt;Node21 -->
<g id="edge26_Node000020_Node000021" class="edge">
<title>Node20&#45;&gt;Node21</title>
<g id="a_edge26_Node000020_Node000021"><a xlink:title=" ">
<path fill="none" stroke="#63b8ff" d="M870.52,-496.55C882.67,-494.64 895.83,-492.57 908.32,-490.61"/>
<polygon fill="#63b8ff" stroke="#63b8ff" points="908.72,-494.09 918.05,-489.08 907.63,-487.18 908.72,-494.09"/>
</a>
</g>
</g>
<!-- Node24 -->
<g id="Node000024" class="node">
<title>Node24</title>
<g id="a_Node000024"><a xlink:href="group__elements.html#ae50258851ebbaf08c7eebc3fbdbf1ac8" target="_top" xlink:title="Common transforms include rotate(180)">
<polygon fill="white" stroke="#666666" points="1022,-282 906.25,-282 906.25,-250 1022,-250 1022,-282"/>
<text xml:space="preserve" text-anchor="start" x="914.25" y="-270.4" font-family="SourceSans" font-size="8.00">svg::element_base::</text>
<text xml:space="preserve" text-anchor="middle" x="964.12" y="-258.4" font-family="SourceSans" font-size="8.00">make_transform_attribute</text>
</a>
</g>
</g>
<!-- Node23&#45;&gt;Node24 -->
<g id="edge29_Node000023_Node000024" class="edge">
<title>Node23&#45;&gt;Node24</title>
<g id="a_edge29_Node000023_Node000024"><a xlink:title=" ">
<path fill="none" stroke="#63b8ff" d="M867.81,-266C876.3,-266 885.37,-266 894.42,-266"/>
<polygon fill="#63b8ff" stroke="#63b8ff" points="894.3,-269.5 904.3,-266 894.3,-262.5 894.3,-269.5"/>
</a>
</g>
</g>
<!-- Node28 -->
<g id="Node000028" class="node">
<title>Node28</title>
<g id="a_Node000028"><a xlink:href="namespacesvg.html#a09509ddd1e99609e1e4c06690328d919" target="_top" xlink:title="Create rect_element at origin.">
<polygon fill="white" stroke="#666666" points="723.75,-176 651.5,-176 651.5,-156 723.75,-156 723.75,-176"/>
<text xml:space="preserve" text-anchor="middle" x="687.62" y="-164.4" font-family="SourceSans" font-size="8.00">svg::make_rect</text>
</a>
</g>
</g>
<!-- Node27&#45;&gt;Node28 -->
<g id="edge38_Node000027_Node000028" class="edge">
<title>Node27&#45;&gt;Node28</title>
<g id="a_edge38_Node000027_Node000028"><a xlink:title=" ">
<path fill="none" stroke="#63b8ff" d="M474.58,-177.95C523.11,-175.21 593.55,-171.24 639.72,-168.64"/>
<polygon fill="#63b8ff" stroke="#63b8ff" points="639.89,-172.14 649.68,-168.08 639.5,-165.15 639.89,-172.14"/>
</a>
</g>
</g>
<!-- Node28&#45;&gt;Node12 -->
<g id="edge42_Node000028_Node000012" class="edge">
<title>Node28&#45;&gt;Node12</title>
<g id="a_edge42_Node000028_Node000012"><a xlink:title=" ">
<path fill="none" stroke="#63b8ff" d="M716.4,-176.48C731.04,-182.01 749.52,-188.98 766.87,-195.53"/>
<polygon fill="#63b8ff" stroke="#63b8ff" points="765.47,-198.74 776.06,-198.99 767.94,-192.19 765.47,-198.74"/>
</a>
</g>
</g>
<!-- Node28&#45;&gt;Node23 -->
<g id="edge43_Node000028_Node000023" class="edge">
<title>Node28&#45;&gt;Node23</title>
<g id="a_edge43_Node000028_Node000023"><a xlink:title=" ">
<path fill="none" stroke="#63b8ff" d="M698.75,-176.32C714.1,-191.62 744.61,-220.71 774,-241 775.36,-241.94 776.75,-242.87 778.18,-243.78"/>
<polygon fill="#63b8ff" stroke="#63b8ff" points="776.18,-246.66 786.55,-248.82 779.79,-240.66 776.18,-246.66"/>
</a>
</g>
</g>
<!-- Node29 -->
<g id="Node000029" class="node">
<title>Node29</title>
<g id="a_Node000029"><a xlink:href="group__elements.html#a1dd6663d882fb5dd14a47462a77f351b" target="_top" xlink:title="Either serialize immediately (as below), or create data structure that adds data to data_vec and then...">
<polygon fill="white" stroke="#666666" points="865.75,-182 778.5,-182 778.5,-150 865.75,-150 865.75,-182"/>
<text xml:space="preserve" text-anchor="start" x="786.5" y="-170.4" font-family="SourceSans" font-size="8.00">svg::rect_element::</text>
<text xml:space="preserve" text-anchor="middle" x="822.12" y="-158.4" font-family="SourceSans" font-size="8.00">add_data</text>
</a>
</g>
</g>
<!-- Node28&#45;&gt;Node29 -->
<g id="edge39_Node000028_Node000029" class="edge">
<title>Node28&#45;&gt;Node29</title>
<g id="a_edge39_Node000028_Node000029"><a xlink:title=" ">
<path fill="none" stroke="#63b8ff" d="M724.13,-166C737.32,-166 752.59,-166 767.06,-166"/>
<polygon fill="#63b8ff" stroke="#63b8ff" points="766.93,-169.5 776.93,-166 766.93,-162.5 766.93,-169.5"/>
</a>
</g>
</g>
<!-- Node30 -->
<g id="Node000030" class="node">
<title>Node30</title>
<g id="a_Node000030"><a xlink:href="group__elements.html#a1b22cfab9437b40c8b877ffe5472ff02" target="_top" xlink:title=" ">
<polygon fill="white" stroke="#666666" points="867.62,-132 776.62,-132 776.62,-100 867.62,-100 867.62,-132"/>
<text xml:space="preserve" text-anchor="start" x="784.62" y="-120.4" font-family="SourceSans" font-size="8.00">svg::element_base::</text>
<text xml:space="preserve" text-anchor="middle" x="822.12" y="-108.4" font-family="SourceSans" font-size="8.00">add_filter</text>
</a>
</g>
</g>
<!-- Node28&#45;&gt;Node30 -->
<g id="edge41_Node000028_Node000030" class="edge">
<title>Node28&#45;&gt;Node30</title>
<g id="a_edge41_Node000028_Node000030"><a xlink:title=" ">
<path fill="none" stroke="#63b8ff" d="M716.4,-155.52C731.04,-149.99 749.52,-143.02 766.87,-136.47"/>
<polygon fill="#63b8ff" stroke="#63b8ff" points="767.94,-139.81 776.06,-133.01 765.47,-133.26 767.94,-139.81"/>
</a>
</g>
</g>
<!-- Node31 -->
<g id="Node000031" class="node">
<title>Node31</title>
<g id="a_Node000031"><a xlink:href="group__elements.html#gad01750ac554c6bd6871a930c90e17a04" target="_top" xlink:title=" ">
<polygon fill="white" stroke="#666666" points="865.75,-82 778.5,-82 778.5,-50 865.75,-50 865.75,-82"/>
<text xml:space="preserve" text-anchor="start" x="786.5" y="-70.4" font-family="SourceSans" font-size="8.00">svg::rect_element::</text>
<text xml:space="preserve" text-anchor="middle" x="822.12" y="-58.4" font-family="SourceSans" font-size="8.00">finish_element</text>
</a>
</g>
</g>
<!-- Node28&#45;&gt;Node31 -->
<g id="edge44_Node000028_Node000031" class="edge">
<title>Node28&#45;&gt;Node31</title>
<g id="a_edge44_Node000028_Node000031"><a xlink:title=" ">
<path fill="none" stroke="#63b8ff" d="M698.75,-155.68C714.1,-140.38 744.61,-111.29 774,-91 775.36,-90.06 776.75,-89.13 778.18,-88.22"/>
<polygon fill="#63b8ff" stroke="#63b8ff" points="779.79,-91.34 786.55,-83.18 776.18,-85.34 779.79,-91.34"/>
</a>
</g>
</g>
<!-- Node32 -->
<g id="Node000032" class="node">
<title>Node32</title>
<g id="a_Node000032"><a xlink:href="group__elements.html#a1e0ed5e9dfe1244317a87d7e6774348b" target="_top" xlink:title=" ">
<polygon fill="white" stroke="#666666" points="865.75,-32 778.5,-32 778.5,0 865.75,0 865.75,-32"/>
<text xml:space="preserve" text-anchor="start" x="786.5" y="-20.4" font-family="SourceSans" font-size="8.00">svg::rect_element::</text>
<text xml:space="preserve" text-anchor="middle" x="822.12" y="-8.4" font-family="SourceSans" font-size="8.00">start_element</text>
</a>
</g>
</g>
<!-- Node28&#45;&gt;Node32 -->
<g id="edge45_Node000028_Node000032" class="edge">
<title>Node28&#45;&gt;Node32</title>
<g id="a_edge45_Node000028_Node000032"><a xlink:title=" ">
<path fill="none" stroke="#63b8ff" d="M693.47,-155.7C704.75,-132.62 734.82,-76.04 774,-41 774.9,-40.2 775.83,-39.41 776.78,-38.64"/>
<polygon fill="#63b8ff" stroke="#63b8ff" points="778.5,-41.71 784.65,-33.08 774.46,-36 778.5,-41.71"/>
</a>
</g>
</g>
<!-- Node29&#45;&gt;Node11 -->
<g id="edge40_Node000029_Node000011" class="edge">
<title>Node29&#45;&gt;Node11</title>
<g id="a_edge40_Node000029_Node000011"><a xlink:title=" ">
<path fill="none" stroke="#63b8ff" d="M860.6,-182.37C864.15,-184.91 867.46,-187.78 870.25,-191 901.19,-226.69 883.72,-249.48 906.25,-291 917.37,-311.5 933.77,-332.46 946.11,-346.99"/>
<polygon fill="#63b8ff" stroke="#63b8ff" points="943.34,-349.14 952.54,-354.39 948.63,-344.55 943.34,-349.14"/>
</a>
</g>
</g>
</g>
</svg>

<g id="navigator" transform="translate(0 0)" fill="#404254">
  <rect fill="#f2f5e9" fill-opacity="0.5" stroke="#606060" stroke-width=".5" x="0" y="0" width="60" height="60"/>
  <use id="zoomplus" xlink:href="#zoomPlus" x="17" y="9" onmousedown="handleZoom(evt,'in')"/>
  <use id="zoomminus" xlink:href="#zoomMin" x="42" y="9" onmousedown="handleZoom(evt,'out')"/>
  <use id="reset" xlink:href="#resetDef" x="30" y="36" onmousedown="handleReset()"/>
   <use id="arrowup" xlink:href="#arrowUp" x="0" y="0" onmousedown="handlePan(0,-1)"/>
  <use id="arrowright" xlink:href="#arrowRight" x="0" y="0" onmousedown="handlePan(1,0)"/>
  <use id="arrowdown" xlink:href="#arrowDown" x="0" y="0" onmousedown="handlePan(0,1)"/>
  <use id="arrowleft" xlink:href="#arrowLeft" x="0" y="0" onmousedown="handlePan(-1,0)"/>
</g>
<svg viewBox="0 0 15 15" width="100%" height="30px" preserveAspectRatio="xMaxYMin meet">
 <g id="arrow_out" transform="scale(0.3 0.3)">
  <a xlink:href="namespacesvg_a176f5ccc0d8986403cf1d3fca8fcc6c8_cgraph_org.svg" target="_base">
   <rect id="button" ry="5" rx="5" y="6" x="6" height="38" width="38"
        fill="#f2f5e9" fill-opacity="0.5" stroke="#606060" stroke-width="1.0"/>
   <path id="arrow"
     d="M 11.500037,31.436501 C 11.940474,20.09759 22.043105,11.32322 32.158766,21.979434 L 37.068811,17.246167 C 37.068811,17.246167 37.088388,32 37.088388,32 L 22.160133,31.978069 C 22.160133,31.978069 26.997745,27.140456 26.997745,27.140456 C 18.528582,18.264221 13.291696,25.230495 11.500037,31.436501 z"
     style="fill:#404040;"/>
  </a>
 </g>
</svg>

<style type='text/css'>
<![CDATA[
[data-mouse-over-selected='false'] { opacity: 0.7; }
[data-mouse-over-selected='true']  { opacity: 1.0; }
]]>
</style>
<script type="application/ecmascript"><![CDATA[
document.addEventListener('DOMContentLoaded', (event) => {
  highlightEdges();
  highlightAdjacentNodes();
});
]]></script>
</svg>
