<?xml version="1.0" encoding="UTF-8" standalone="no"?>
<!DOCTYPE svg PUBLIC "-//W3C//DTD SVG 1.1//EN"
 "http://www.w3.org/Graphics/SVG/1.1/DTD/svg11.dtd">
<!-- Generated by graphviz version 9.0.0 (20230911.1827)
 -->
<!-- Title: svg::radiate_glyph_and_id Pages: 1 -->
<svg width="794pt" height="470pt"
 viewBox="0.00 0.00 794.00 470.00" xmlns="http://www.w3.org/2000/svg" xmlns:xlink="http://www.w3.org/1999/xlink">
<g id="graph0" class="graph" transform="scale(1 1) rotate(0) translate(4 466)">
<title>svg::radiate_glyph_and_id</title>
<!-- Node1 -->
<g id="Node000001" class="node">
<title>Node1</title>
<g id="a_Node000001"><a xlink:title="Convenience function for above.">
<polygon fill="#999999" stroke="#666666" points="85.75,-294 0,-294 0,-262 85.75,-262 85.75,-294"/>
<text text-anchor="start" x="8" y="-282.4" font-family="SourceSans" font-size="8.00">svg::radiate_glyph</text>
<text text-anchor="middle" x="42.88" y="-270.4" font-family="SourceSans" font-size="8.00">_and_id</text>
</a>
</g>
</g>
<!-- Node2 -->
<g id="Node000002" class="node">
<title>Node2</title>
<g id="a_Node000002"><a xlink:href="namespacesvg.html#a929b5c33bc0c139332dddd5d3b8ea3d0" target="_top" xlink:title="Transform a value on a range to an angle on the radial range.">
<polygon fill="white" stroke="#666666" points="200.38,-392 128.88,-392 128.88,-372 200.38,-372 200.38,-392"/>
<text text-anchor="middle" x="164.62" y="-380.4" font-family="SourceSans" font-size="8.00">svg::get_angle</text>
</a>
</g>
</g>
<!-- Node1&#45;&gt;Node2 -->
<g id="edge1_Node000001_Node000002" class="edge">
<title>Node1&#45;&gt;Node2</title>
<g id="a_edge1_Node000001_Node000002"><a xlink:title=" ">
<path fill="none" stroke="#63b8ff" d="M62.85,-294.48C84.76,-313.51 120.67,-344.69 143.18,-364.24"/>
<polygon fill="#63b8ff" stroke="#63b8ff" points="140.66,-366.7 150.51,-370.61 145.25,-361.41 140.66,-366.7"/>
</a>
</g>
</g>
<!-- Node5 -->
<g id="Node000005" class="node">
<title>Node5</title>
<g id="a_Node000005"><a xlink:href="namespacesvg.html#a1f180d83d7e19dc673dc44192839cafe" target="_top" xlink:title=" ">
<polygon fill="white" stroke="#666666" points="207.5,-209 121.75,-209 121.75,-177 207.5,-177 207.5,-209"/>
<text text-anchor="start" x="129.75" y="-197.4" font-family="SourceSans" font-size="8.00">svg::radiate_glyph</text>
<text text-anchor="middle" x="164.62" y="-185.4" font-family="SourceSans" font-size="8.00">_and_id</text>
</a>
</g>
</g>
<!-- Node1&#45;&gt;Node5 -->
<g id="edge4_Node000001_Node000005" class="edge">
<title>Node1&#45;&gt;Node5</title>
<g id="a_edge4_Node000001_Node000005"><a xlink:title=" ">
<path fill="none" stroke="#63b8ff" d="M66.96,-261.61C85.27,-248.62 111.07,-230.31 131.41,-215.87"/>
<polygon fill="#63b8ff" stroke="#63b8ff" points="133.24,-218.86 139.37,-210.21 129.19,-213.15 133.24,-218.86"/>
</a>
</g>
</g>
<!-- Node3 -->
<g id="Node000003" class="node">
<title>Node3</title>
<g id="a_Node000003"><a xlink:href="namespacesvg.html#a37b1e7c40b54ff3cdd4e2929cb6b7ba2" target="_top" xlink:title=" ">
<polygon fill="white" stroke="#666666" points="342,-436 244.25,-436 244.25,-416 342,-416 342,-436"/>
<text text-anchor="middle" x="293.12" y="-424.4" font-family="SourceSans" font-size="8.00">svg::get_radial_range</text>
</a>
</g>
</g>
<!-- Node2&#45;&gt;Node3 -->
<g id="edge2_Node000002_Node000003" class="edge">
<title>Node2&#45;&gt;Node3</title>
<g id="a_edge2_Node000002_Node000003"><a xlink:title=" ">
<path fill="none" stroke="#63b8ff" d="M195.6,-392.43C212.3,-398.24 233.33,-405.55 251.49,-411.87"/>
<polygon fill="#63b8ff" stroke="#63b8ff" points="250.34,-415.17 260.93,-415.15 252.64,-408.56 250.34,-415.17"/>
</a>
</g>
</g>
<!-- Node4 -->
<g id="Node000004" class="node">
<title>Node4</title>
<g id="a_Node000004"><a xlink:href="namespacesvg.html#a673cb54838801fae8471436ce43298a9" target="_top" xlink:title="Scale value from min to max on range (nfloor, nceil).">
<polygon fill="white" stroke="#666666" points="340.5,-398 245.75,-398 245.75,-366 340.5,-366 340.5,-398"/>
<text text-anchor="start" x="253.75" y="-386.4" font-family="SourceSans" font-size="8.00">svg::normalize_value</text>
<text text-anchor="middle" x="293.12" y="-374.4" font-family="SourceSans" font-size="8.00">_on_range</text>
</a>
</g>
</g>
<!-- Node2&#45;&gt;Node4 -->
<g id="edge3_Node000002_Node000004" class="edge">
<title>Node2&#45;&gt;Node4</title>
<g id="a_edge3_Node000002_Node000004"><a xlink:title=" ">
<path fill="none" stroke="#63b8ff" d="M200.86,-382C211.17,-382 222.72,-382 234.05,-382"/>
<polygon fill="#63b8ff" stroke="#63b8ff" points="233.74,-385.5 243.74,-382 233.74,-378.5 233.74,-385.5"/>
</a>
</g>
</g>
<!-- Node6 -->
<g id="Node000006" class="node">
<title>Node6</title>
<g id="a_Node000006"><a xlink:href="namespacesvg.html#aa2776d975cfdb951b8dd6a8fac3d826b" target="_top" xlink:title="Approximate pixel height of type of point size @sz.">
<polygon fill="white" stroke="#666666" points="342.75,-165 243.5,-165 243.5,-145 342.75,-145 342.75,-165"/>
<text text-anchor="middle" x="293.12" y="-153.4" font-family="SourceSans" font-size="8.00">svg::char_width_to_px</text>
</a>
</g>
</g>
<!-- Node5&#45;&gt;Node6 -->
<g id="edge5_Node000005_Node000006" class="edge">
<title>Node5&#45;&gt;Node6</title>
<g id="a_edge5_Node000005_Node000006"><a xlink:title=" ">
<path fill="none" stroke="#63b8ff" d="M207.75,-180.35C220.2,-176.61 233.89,-172.49 246.55,-168.69"/>
<polygon fill="#63b8ff" stroke="#63b8ff" points="247.33,-172.11 255.9,-165.88 245.32,-165.41 247.33,-172.11"/>
</a>
</g>
</g>
<!-- Node7 -->
<g id="Node000007" class="node">
<title>Node7</title>
<g id="a_Node000007"><a xlink:href="namespacesvg.html#a806415593163e75c9587c2a987dd5112" target="_top" xlink:title="Given identifier/name/id, get corresponding id_render_state from cache.">
<polygon fill="white" stroke="#666666" points="336.38,-70 249.88,-70 249.88,-38 336.38,-38 336.38,-70"/>
<text text-anchor="start" x="257.88" y="-58.4" font-family="SourceSans" font-size="8.00">svg::get_id_render</text>
<text text-anchor="middle" x="293.12" y="-46.4" font-family="SourceSans" font-size="8.00">_state</text>
</a>
</g>
</g>
<!-- Node5&#45;&gt;Node7 -->
<g id="edge6_Node000005_Node000007" class="edge">
<title>Node5&#45;&gt;Node7</title>
<g id="a_edge6_Node000005_Node000007"><a xlink:title=" ">
<path fill="none" stroke="#63b8ff" d="M180.63,-176.51C202.7,-152.27 244.04,-106.83 269.71,-78.63"/>
<polygon fill="#63b8ff" stroke="#63b8ff" points="271.98,-81.34 276.12,-71.59 266.8,-76.63 271.98,-81.34"/>
</a>
</g>
</g>
<!-- Node9 -->
<g id="Node000009" class="node">
<title>Node9</title>
<g id="a_Node000009"><a xlink:href="namespacesvg.html#a0a0dce44cf8a75daa516cdf9fade5a85" target="_top" xlink:title=" ">
<polygon fill="white" stroke="#666666" points="333.38,-348 252.88,-348 252.88,-328 333.38,-328 333.38,-348"/>
<text text-anchor="middle" x="293.12" y="-336.4" font-family="SourceSans" font-size="8.00">svg::radial_text_r</text>
</a>
</g>
</g>
<!-- Node5&#45;&gt;Node9 -->
<g id="edge8_Node000005_Node000009" class="edge">
<title>Node5&#45;&gt;Node9</title>
<g id="a_edge8_Node000005_Node000009"><a xlink:title=" ">
<path fill="none" stroke="#63b8ff" d="M179.89,-209.35C203.56,-236.49 250.82,-290.65 275.79,-319.28"/>
<polygon fill="#63b8ff" stroke="#63b8ff" points="272.85,-321.23 282.06,-326.47 278.13,-316.63 272.85,-321.23"/>
</a>
</g>
</g>
<!-- Node19 -->
<g id="Node000019" class="node">
<title>Node19</title>
<g id="a_Node000019"><a xlink:href="namespacesvg.html#a6cbc319a171a74fdf91e5d4eb55a6f36" target="_top" xlink:title=" ">
<polygon fill="white" stroke="#666666" points="336,-203 250.25,-203 250.25,-183 336,-183 336,-203"/>
<text text-anchor="middle" x="293.12" y="-191.4" font-family="SourceSans" font-size="8.00">svg::radiate_glyph</text>
</a>
</g>
</g>
<!-- Node5&#45;&gt;Node19 -->
<g id="edge19_Node000005_Node000019" class="edge">
<title>Node5&#45;&gt;Node19</title>
<g id="a_edge19_Node000005_Node000019"><a xlink:title=" ">
<path fill="none" stroke="#63b8ff" d="M207.75,-193C217.57,-193 228.15,-193 238.39,-193"/>
<polygon fill="#63b8ff" stroke="#63b8ff" points="238.24,-196.5 248.24,-193 238.24,-189.5 238.24,-196.5"/>
</a>
</g>
</g>
<!-- Node8 -->
<g id="Node000008" class="node">
<title>Node8</title>
<g id="a_Node000008"><a xlink:href="namespacesvg.html#abcde0ef18f90817cb5cb7147211fef05" target="_top" xlink:title=" ">
<polygon fill="white" stroke="#666666" points="480.25,-32 393.75,-32 393.75,0 480.25,0 480.25,-32"/>
<text text-anchor="start" x="401.75" y="-20.4" font-family="SourceSans" font-size="8.00">svg::get_id_render</text>
<text text-anchor="middle" x="437" y="-8.4" font-family="SourceSans" font-size="8.00">_state_cache</text>
</a>
</g>
</g>
<!-- Node7&#45;&gt;Node8 -->
<g id="edge7_Node000007_Node000008" class="edge">
<title>Node7&#45;&gt;Node8</title>
<g id="a_edge7_Node000007_Node000008"><a xlink:title=" ">
<path fill="none" stroke="#63b8ff" d="M336.69,-42.6C351.14,-38.73 367.47,-34.35 382.65,-30.29"/>
<polygon fill="#63b8ff" stroke="#63b8ff" points="383.25,-33.75 392,-27.78 381.44,-26.99 383.25,-33.75"/>
</a>
</g>
</g>
<!-- Node10 -->
<g id="Node000010" class="node">
<title>Node10</title>
<g id="a_Node000010"><a xlink:href="namespacesvg.html#ab44508c4aeca591141ebec50145b75cd" target="_top" xlink:title="Angle in degrees.">
<polygon fill="white" stroke="#666666" points="488.88,-272 385.12,-272 385.12,-240 488.88,-240 488.88,-272"/>
<text text-anchor="start" x="393.12" y="-260.4" font-family="SourceSans" font-size="8.00">svg::get_circumference</text>
<text text-anchor="middle" x="437" y="-248.4" font-family="SourceSans" font-size="8.00">_point_d</text>
</a>
</g>
</g>
<!-- Node9&#45;&gt;Node10 -->
<g id="edge9_Node000009_Node000010" class="edge">
<title>Node9&#45;&gt;Node10</title>
<g id="a_edge9_Node000009_Node000010"><a xlink:title=" ">
<path fill="none" stroke="#63b8ff" d="M308,-327.5C324.37,-315.4 352.67,-295.33 378.75,-281 380.95,-279.79 383.22,-278.6 385.53,-277.42"/>
<polygon fill="#63b8ff" stroke="#63b8ff" points="386.99,-280.61 394.46,-273.1 383.94,-274.31 386.99,-280.61"/>
</a>
</g>
</g>
<!-- Node13 -->
<g id="Node000013" class="node">
<title>Node13</title>
<g id="a_Node000013"><a xlink:href="namespacesvg.html#ae7eab6d9ce1f55bcbcc997cd24c5abcf" target="_top" xlink:title="Text with typography, arranged ccw around points (x,y) on a circle.">
<polygon fill="white" stroke="#666666" points="482.5,-462 391.5,-462 391.5,-442 482.5,-442 482.5,-462"/>
<text text-anchor="middle" x="437" y="-450.4" font-family="SourceSans" font-size="8.00">svg::radial_text_ccw</text>
</a>
</g>
</g>
<!-- Node9&#45;&gt;Node13 -->
<g id="edge12_Node000009_Node000013" class="edge">
<title>Node9&#45;&gt;Node13</title>
<g id="a_edge12_Node000009_Node000013"><a xlink:title=" ">
<path fill="none" stroke="#63b8ff" d="M329.99,-348.33C334.62,-350.68 339.04,-353.54 342.75,-357 370.09,-382.49 350.76,-408.23 378.75,-433 379.85,-433.98 381.01,-434.9 382.2,-435.78"/>
<polygon fill="#63b8ff" stroke="#63b8ff" points="380.38,-438.77 390.76,-440.86 383.95,-432.75 380.38,-438.77"/>
</a>
</g>
</g>
<!-- Node16 -->
<g id="Node000016" class="node">
<title>Node16</title>
<g id="a_Node000016"><a xlink:href="namespacesvg.html#a27b1041d0851178e4835e1f623a46161" target="_top" xlink:title="Text with typography, arranged cw around points (x,y) on a circle.">
<polygon fill="white" stroke="#666666" points="480.62,-424 393.38,-424 393.38,-404 480.62,-404 480.62,-424"/>
<text text-anchor="middle" x="437" y="-412.4" font-family="SourceSans" font-size="8.00">svg::radial_text_cw</text>
</a>
</g>
</g>
<!-- Node9&#45;&gt;Node16 -->
<g id="edge15_Node000009_Node000016" class="edge">
<title>Node9&#45;&gt;Node16</title>
<g id="a_edge15_Node000009_Node000016"><a xlink:title=" ">
<path fill="none" stroke="#63b8ff" d="M325.82,-348.42C331.64,-350.87 337.52,-353.74 342.75,-357 361.17,-368.48 360.47,-378.3 378.75,-390 383.91,-393.3 389.61,-396.33 395.34,-399.03"/>
<polygon fill="#63b8ff" stroke="#63b8ff" points="393.65,-402.11 404.22,-402.92 396.47,-395.7 393.65,-402.11"/>
</a>
</g>
</g>
<!-- Node17 -->
<g id="Node000017" class="node">
<title>Node17</title>
<g id="a_Node000017"><a xlink:href="namespacesvg.html#a010fea242a289d173d521b501140cd72" target="_top" xlink:title="Zero degrees is top, going clockwise (cw).">
<polygon fill="white" stroke="#666666" points="647.75,-386 531.25,-386 531.25,-366 647.75,-366 647.75,-386"/>
<text text-anchor="middle" x="589.5" y="-374.4" font-family="SourceSans" font-size="8.00">svg::zero_angle_north_ccw</text>
</a>
</g>
</g>
<!-- Node9&#45;&gt;Node17 -->
<g id="edge17_Node000009_Node000017" class="edge">
<title>Node9&#45;&gt;Node17</title>
<g id="a_edge17_Node000009_Node000017"><a xlink:title=" ">
<path fill="none" stroke="#63b8ff" d="M333.67,-344.96C347.86,-347.35 364,-349.94 378.75,-352 425.7,-358.57 478.75,-364.62 519.75,-369.01"/>
<polygon fill="#63b8ff" stroke="#63b8ff" points="519.16,-372.47 529.48,-370.04 519.9,-365.51 519.16,-372.47"/>
</a>
</g>
</g>
<!-- Node18 -->
<g id="Node000018" class="node">
<title>Node18</title>
<g id="a_Node000018"><a xlink:href="namespacesvg.html#a46164d75fd5109e4ed8879abbacd5c11" target="_top" xlink:title="Zero degrees is top, going clockwise (cw).">
<polygon fill="white" stroke="#666666" points="645.88,-348 533.12,-348 533.12,-328 645.88,-328 645.88,-348"/>
<text text-anchor="middle" x="589.5" y="-336.4" font-family="SourceSans" font-size="8.00">svg::zero_angle_north_cw</text>
</a>
</g>
</g>
<!-- Node9&#45;&gt;Node18 -->
<g id="edge18_Node000009_Node000018" class="edge">
<title>Node9&#45;&gt;Node18</title>
<g id="a_edge18_Node000009_Node000018"><a xlink:title=" ">
<path fill="none" stroke="#63b8ff" d="M333.83,-338C381.94,-338 463.74,-338 521.64,-338"/>
<polygon fill="#63b8ff" stroke="#63b8ff" points="521.37,-341.5 531.37,-338 521.37,-334.5 521.37,-341.5"/>
</a>
</g>
</g>
<!-- Node11 -->
<g id="Node000011" class="node">
<title>Node11</title>
<g id="a_Node000011"><a xlink:href="namespacesvg.html#aef05ac63d88a6102981d3faf37275297" target="_top" xlink:title="Angle in radians.">
<polygon fill="white" stroke="#666666" points="641.38,-272 537.62,-272 537.62,-240 641.38,-240 641.38,-272"/>
<text text-anchor="start" x="545.62" y="-260.4" font-family="SourceSans" font-size="8.00">svg::get_circumference</text>
<text text-anchor="middle" x="589.5" y="-248.4" font-family="SourceSans" font-size="8.00">_point_r</text>
</a>
</g>
</g>
<!-- Node10&#45;&gt;Node11 -->
<g id="edge10_Node000010_Node000011" class="edge">
<title>Node10&#45;&gt;Node11</title>
<g id="a_edge10_Node000010_Node000011"><a xlink:title=" ">
<path fill="none" stroke="#63b8ff" d="M489.37,-256C501.12,-256 513.73,-256 525.88,-256"/>
<polygon fill="#63b8ff" stroke="#63b8ff" points="525.85,-259.5 535.85,-256 525.85,-252.5 525.85,-259.5"/>
</a>
</g>
</g>
<!-- Node12 -->
<g id="Node000012" class="node">
<title>Node12</title>
<g id="a_Node000012"><a xlink:href="namespacesvg_1_1constants.html#a0e0b0d9314bc47324ee39884bf8bb2fd" target="_top" xlink:title=" ">
<polygon fill="white" stroke="#666666" points="630.5,-310 548.5,-310 548.5,-290 630.5,-290 630.5,-310"/>
<text text-anchor="middle" x="589.5" y="-298.4" font-family="SourceSans" font-size="8.00">svg::constants::pi</text>
</a>
</g>
</g>
<!-- Node10&#45;&gt;Node12 -->
<g id="edge11_Node000010_Node000012" class="edge">
<title>Node10&#45;&gt;Node12</title>
<g id="a_edge11_Node000010_Node000012"><a xlink:title=" ">
<path fill="none" stroke="#63b8ff" d="M489.37,-271.02C506.56,-276.04 525.59,-281.61 542.35,-286.51"/>
<polygon fill="#63b8ff" stroke="#63b8ff" points="540.96,-289.75 551.54,-289.2 542.93,-283.03 540.96,-289.75"/>
</a>
</g>
</g>
<!-- Node14 -->
<g id="Node000014" class="node">
<title>Node14</title>
<g id="a_Node000014"><a xlink:href="namespacesvg.html#a5791c1fc9121f01e5f666b7ce0367dfa" target="_top" xlink:title="Text at @origin, with style and ... a transformation=rotation of @deg about @rorigin.">
<polygon fill="white" stroke="#666666" points="630.12,-424 548.88,-424 548.88,-404 630.12,-404 630.12,-424"/>
<text text-anchor="middle" x="589.5" y="-412.4" font-family="SourceSans" font-size="8.00">svg::styled_text_r</text>
</a>
</g>
</g>
<!-- Node13&#45;&gt;Node14 -->
<g id="edge13_Node000013_Node000014" class="edge">
<title>Node13&#45;&gt;Node14</title>
<g id="a_edge13_Node000013_Node000014"><a xlink:title=" ">
<path fill="none" stroke="#63b8ff" d="M479.52,-441.52C497.4,-437 518.49,-431.68 537.32,-426.92"/>
<polygon fill="#63b8ff" stroke="#63b8ff" points="538.1,-430.33 546.94,-424.49 536.39,-423.55 538.1,-430.33"/>
</a>
</g>
</g>
<!-- Node15 -->
<g id="Node000015" class="node">
<title>Node15</title>
<g id="a_Node000015"><a xlink:href="structsvg_1_1transform.html#acf9836f4ba647f0dd2b53963a0f714d0" target="_top" xlink:title=" ">
<polygon fill="white" stroke="#666666" points="783.75,-285 686,-285 686,-265 783.75,-265 783.75,-285"/>
<text text-anchor="middle" x="734.88" y="-273.4" font-family="SourceSans" font-size="8.00">svg::transform::rotate</text>
</a>
</g>
</g>
<!-- Node14&#45;&gt;Node15 -->
<g id="edge14_Node000014_Node000015" class="edge">
<title>Node14&#45;&gt;Node15</title>
<g id="a_edge14_Node000014_Node000015"><a xlink:title=" ">
<path fill="none" stroke="#63b8ff" d="M630.59,-404.31C636.66,-401.85 642.6,-398.79 647.75,-395 683.9,-368.4 710.87,-322.09 724.32,-295.45"/>
<polygon fill="#63b8ff" stroke="#63b8ff" points="727.34,-297.23 728.58,-286.71 721.05,-294.17 727.34,-297.23"/>
</a>
</g>
</g>
<!-- Node16&#45;&gt;Node14 -->
<g id="edge16_Node000016_Node000014" class="edge">
<title>Node16&#45;&gt;Node14</title>
<g id="a_edge16_Node000016_Node000014"><a xlink:title=" ">
<path fill="none" stroke="#63b8ff" d="M480.72,-414C498.27,-414 518.74,-414 537.1,-414"/>
<polygon fill="#63b8ff" stroke="#63b8ff" points="537,-417.5 547,-414 537,-410.5 537,-417.5"/>
</a>
</g>
</g>
<!-- Node19&#45;&gt;Node10 -->
<g id="edge25_Node000019_Node000010" class="edge">
<title>Node19&#45;&gt;Node10</title>
<g id="a_edge25_Node000019_Node000010"><a xlink:title=" ">
<path fill="none" stroke="#63b8ff" d="M317.08,-203.39C334.09,-211.06 357.84,-221.74 378.75,-231 381.68,-232.3 384.69,-233.63 387.74,-234.97"/>
<polygon fill="#63b8ff" stroke="#63b8ff" points="386.15,-238.09 396.71,-238.91 388.96,-231.68 386.15,-238.09"/>
</a>
</g>
</g>
<!-- Node20 -->
<g id="Node000020" class="node">
<title>Node20</title>
<g id="a_Node000020"><a xlink:href="namespacesvg.html#a6b1624bb42af7e9269fc6088e6a26fd7" target="_top" xlink:title="Adjust angle above to CW/CCW orientation.">
<polygon fill="white" stroke="#666666" points="495.25,-310 378.75,-310 378.75,-290 495.25,-290 495.25,-310"/>
<text text-anchor="middle" x="437" y="-298.4" font-family="SourceSans" font-size="8.00">svg::adjust_angle_rotation</text>
</a>
</g>
</g>
<!-- Node19&#45;&gt;Node20 -->
<g id="edge20_Node000019_Node000020" class="edge">
<title>Node19&#45;&gt;Node20</title>
<g id="a_edge20_Node000019_Node000020"><a xlink:title=" ">
<path fill="none" stroke="#63b8ff" d="M301.31,-203.25C314.57,-221.45 344.69,-259.52 378.75,-281 380.99,-282.41 383.35,-283.73 385.78,-284.97"/>
<polygon fill="#63b8ff" stroke="#63b8ff" points="384.11,-288.05 394.67,-288.92 386.96,-281.66 384.11,-288.05"/>
</a>
</g>
</g>
<!-- Node21 -->
<g id="Node000021" class="node">
<title>Node21</title>
<g id="a_Node000021"><a xlink:href="namespacesvg.html#a8049c9c931294d04d25967268d85d226" target="_top" xlink:title="Import svg file, convert it to svg_element for insertion. ifile is a plain SVG file with a 1:1 aspect...">
<polygon fill="white" stroke="#666666" points="485.88,-222 388.12,-222 388.12,-202 485.88,-202 485.88,-222"/>
<text text-anchor="middle" x="437" y="-210.4" font-family="SourceSans" font-size="8.00">svg::file_to_svg_insert</text>
</a>
</g>
</g>
<!-- Node19&#45;&gt;Node21 -->
<g id="edge23_Node000019_Node000021" class="edge">
<title>Node19&#45;&gt;Node21</title>
<g id="a_edge23_Node000019_Node000021"><a xlink:title=" ">
<path fill="none" stroke="#63b8ff" d="M336.31,-198.65C348.94,-200.34 363.04,-202.23 376.57,-204.04"/>
<polygon fill="#63b8ff" stroke="#63b8ff" points="375.88,-207.48 386.25,-205.34 376.81,-200.54 375.88,-207.48"/>
</a>
</g>
</g>
<!-- Node23 -->
<g id="Node000023" class="node">
<title>Node23</title>
<g id="a_Node000023"><a xlink:href="namespacesvg.html#a370d930bd06a84735a4eecdd677154e6" target="_top" xlink:title="Get the label space. Value &#45;&gt; Name, as a string where value has labelspaces of fill NB: Should be the...">
<polygon fill="white" stroke="#666666" points="485.88,-184 388.12,-184 388.12,-164 485.88,-164 485.88,-184"/>
<text text-anchor="middle" x="437" y="-172.4" font-family="SourceSans" font-size="8.00">svg::get_label_spaces</text>
</a>
</g>
</g>
<!-- Node19&#45;&gt;Node23 -->
<g id="edge26_Node000019_Node000023" class="edge">
<title>Node19&#45;&gt;Node23</title>
<g id="a_edge26_Node000019_Node000023"><a xlink:title=" ">
<path fill="none" stroke="#63b8ff" d="M336.31,-187.35C348.94,-185.66 363.04,-183.77 376.57,-181.96"/>
<polygon fill="#63b8ff" stroke="#63b8ff" points="376.81,-185.46 386.25,-180.66 375.88,-178.52 376.81,-185.46"/>
</a>
</g>
</g>
<!-- Node24 -->
<g id="Node000024" class="node">
<title>Node24</title>
<g id="a_Node000024"><a xlink:href="namespacesvg.html#acf3b42875f3a4e7bee10c21670c166cc" target="_top" xlink:title="The smallest (sattelite) radius size allowed in a kusama orbit.">
<polygon fill="white" stroke="#666666" points="488.12,-146 385.88,-146 385.88,-126 488.12,-126 488.12,-146"/>
<text text-anchor="middle" x="437" y="-134.4" font-family="SourceSans" font-size="8.00">svg::get_min_ring_size</text>
</a>
</g>
</g>
<!-- Node19&#45;&gt;Node24 -->
<g id="edge27_Node000019_Node000024" class="edge">
<title>Node19&#45;&gt;Node24</title>
<g id="a_edge27_Node000019_Node000024"><a xlink:title=" ">
<path fill="none" stroke="#63b8ff" d="M322.38,-182.58C329.12,-179.93 336.24,-176.98 342.75,-174 359.2,-166.47 362.11,-162.1 378.75,-155 382.59,-153.36 386.62,-151.78 390.69,-150.26"/>
<polygon fill="#63b8ff" stroke="#63b8ff" points="391.77,-153.59 400.02,-146.95 389.43,-147 391.77,-153.59"/>
</a>
</g>
</g>
<!-- Node25 -->
<g id="Node000025" class="node">
<title>Node25</title>
<g id="a_Node000025"><a xlink:href="namespacesvg.html#a0aae5e63973d0526fe0dbdda0b371ec8" target="_top" xlink:title="Embed svg in group element. @origin is where glyph placement is inside containing svg element....">
<polygon fill="white" stroke="#666666" points="478.38,-108 395.62,-108 395.62,-88 478.38,-88 478.38,-108"/>
<text text-anchor="middle" x="437" y="-96.4" font-family="SourceSans" font-size="8.00">svg::insert_svg_at</text>
</a>
</g>
</g>
<!-- Node19&#45;&gt;Node25 -->
<g id="edge28_Node000019_Node000025" class="edge">
<title>Node19&#45;&gt;Node25</title>
<g id="a_edge28_Node000019_Node000025"><a xlink:title=" ">
<path fill="none" stroke="#63b8ff" d="M328.87,-182.61C333.82,-180.25 338.63,-177.4 342.75,-174 365.86,-154.93 355.15,-135.46 378.75,-117 380.76,-115.43 382.91,-113.98 385.15,-112.65"/>
<polygon fill="#63b8ff" stroke="#63b8ff" points="386.66,-115.81 394.06,-108.22 383.54,-109.54 386.66,-115.81"/>
</a>
</g>
</g>
<!-- Node30 -->
<g id="Node000030" class="node">
<title>Node30</title>
<g id="a_Node000030"><a xlink:href="namespacesvg.html#a68c014cdc144d2d0125a8ce849e8804d" target="_top" xlink:title="Draws a circle around a point (x,y), of style (s), of radius (r).">
<polygon fill="white" stroke="#666666" points="481,-70 393,-70 393,-50 481,-50 481,-70"/>
<text text-anchor="middle" x="437" y="-58.4" font-family="SourceSans" font-size="8.00">svg::point_to_circle</text>
</a>
</g>
</g>
<!-- Node19&#45;&gt;Node30 -->
<g id="edge34_Node000019_Node000030" class="edge">
<title>Node19&#45;&gt;Node30</title>
<g id="a_edge34_Node000019_Node000030"><a xlink:title=" ">
<path fill="none" stroke="#63b8ff" d="M330.74,-182.68C335.15,-180.33 339.31,-177.48 342.75,-174 374.51,-141.91 346.16,-110.25 378.75,-79 380.13,-77.68 381.6,-76.45 383.14,-75.31"/>
<polygon fill="#63b8ff" stroke="#63b8ff" points="384.55,-78.54 391.35,-70.42 380.97,-72.53 384.55,-78.54"/>
</a>
</g>
</g>
<!-- Node20&#45;&gt;Node17 -->
<g id="edge21_Node000020_Node000017" class="edge">
<title>Node20&#45;&gt;Node17</title>
<g id="a_edge21_Node000020_Node000017"><a xlink:title=" ">
<path fill="none" stroke="#63b8ff" d="M452.59,-310.38C470.47,-322.74 501.99,-343.42 531.25,-357 534.78,-358.64 538.48,-360.2 542.25,-361.67"/>
<polygon fill="#63b8ff" stroke="#63b8ff" points="540.87,-364.9 551.47,-365.06 543.29,-358.33 540.87,-364.9"/>
</a>
</g>
</g>
<!-- Node20&#45;&gt;Node18 -->
<g id="edge22_Node000020_Node000018" class="edge">
<title>Node20&#45;&gt;Node18</title>
<g id="a_edge22_Node000020_Node000018"><a xlink:title=" ">
<path fill="none" stroke="#63b8ff" d="M479.52,-310.48C497.04,-314.91 517.64,-320.11 536.18,-324.79"/>
<polygon fill="#63b8ff" stroke="#63b8ff" points="535.09,-328.12 545.64,-327.18 536.81,-321.34 535.09,-328.12"/>
</a>
</g>
</g>
<!-- Node22 -->
<g id="Node000022" class="node">
<title>Node22</title>
<g id="a_Node000022"><a xlink:href="namespacesvg_1_1constants.html#aa7f04c2ea699a1b1e2e790de5ac33f38" target="_top" xlink:title=" ">
<polygon fill="white" stroke="#666666" points="641.75,-222 537.25,-222 537.25,-202 641.75,-202 641.75,-222"/>
<text text-anchor="middle" x="589.5" y="-210.4" font-family="SourceSans" font-size="8.00">svg::constants::newline</text>
</a>
</g>
</g>
<!-- Node21&#45;&gt;Node22 -->
<g id="edge24_Node000021_Node000022" class="edge">
<title>Node21&#45;&gt;Node22</title>
<g id="a_edge24_Node000021_Node000022"><a xlink:title=" ">
<path fill="none" stroke="#63b8ff" d="M486.03,-212C498.54,-212 512.21,-212 525.37,-212"/>
<polygon fill="#63b8ff" stroke="#63b8ff" points="525.25,-215.5 535.25,-212 525.25,-208.5 525.25,-215.5"/>
</a>
</g>
</g>
<!-- Node25&#45;&gt;Node15 -->
<g id="edge29_Node000025_Node000015" class="edge">
<title>Node25&#45;&gt;Node15</title>
<g id="a_edge29_Node000025_Node000015"><a xlink:title=" ">
<path fill="none" stroke="#63b8ff" d="M478.79,-107.53C535.77,-121.07 633.8,-145.32 647.75,-155 684.8,-180.72 711.59,-227.74 724.73,-254.65"/>
<polygon fill="#63b8ff" stroke="#63b8ff" points="721.45,-255.9 728.88,-263.46 727.79,-252.92 721.45,-255.9"/>
</a>
</g>
</g>
<!-- Node26 -->
<g id="Node000026" class="node">
<title>Node26</title>
<g id="a_Node000026"><a xlink:href="structsvg_1_1transform.html#a9053c6d65a0bf6f82e4c85a71cc42079" target="_top" xlink:title=" ">
<polygon fill="white" stroke="#666666" points="636.5,-70 542.5,-70 542.5,-50 636.5,-50 636.5,-70"/>
<text text-anchor="middle" x="589.5" y="-58.4" font-family="SourceSans" font-size="8.00">svg::transform::scale</text>
</a>
</g>
</g>
<!-- Node25&#45;&gt;Node26 -->
<g id="edge30_Node000025_Node000026" class="edge">
<title>Node25&#45;&gt;Node26</title>
<g id="a_edge30_Node000025_Node000026"><a xlink:title=" ">
<path fill="none" stroke="#63b8ff" d="M478.73,-87.72C496.33,-83.27 517.15,-78.02 535.9,-73.28"/>
<polygon fill="#63b8ff" stroke="#63b8ff" points="536.65,-76.7 545.49,-70.86 534.93,-69.92 536.65,-76.7"/>
</a>
</g>
</g>
<!-- Node27 -->
<g id="Node000027" class="node">
<title>Node27</title>
<g id="a_Node000027"><a xlink:href="namespacesvg_1_1constants.html#ac460bc8db60d85c3ae1cf8b1a903405e" target="_top" xlink:title="Formatting character constants.">
<polygon fill="white" stroke="#666666" points="637.62,-184 541.38,-184 541.38,-164 637.62,-164 637.62,-184"/>
<text text-anchor="middle" x="589.5" y="-172.4" font-family="SourceSans" font-size="8.00">svg::constants::space</text>
</a>
</g>
</g>
<!-- Node25&#45;&gt;Node27 -->
<g id="edge31_Node000025_Node000027" class="edge">
<title>Node25&#45;&gt;Node27</title>
<g id="a_edge31_Node000025_Node000027"><a xlink:title=" ">
<path fill="none" stroke="#63b8ff" d="M476.86,-108.42C483.21,-110.81 489.56,-113.66 495.25,-117 513.96,-127.99 512.97,-138.3 531.25,-150 536.41,-153.3 542.11,-156.33 547.84,-159.03"/>
<polygon fill="#63b8ff" stroke="#63b8ff" points="546.15,-162.11 556.72,-162.92 548.97,-155.7 546.15,-162.11"/>
</a>
</g>
</g>
<!-- Node28 -->
<g id="Node000028" class="node">
<title>Node28</title>
<g id="a_Node000028"><a xlink:href="structsvg_1_1transform.html#a0c20aee54dbd3136799b17e12d3cb718" target="_top" xlink:title=" ">
<polygon fill="white" stroke="#666666" points="644,-108 535,-108 535,-88 644,-88 644,-108"/>
<text text-anchor="middle" x="589.5" y="-96.4" font-family="SourceSans" font-size="8.00">svg::transform::translate</text>
</a>
</g>
</g>
<!-- Node25&#45;&gt;Node28 -->
<g id="edge32_Node000025_Node000028" class="edge">
<title>Node25&#45;&gt;Node28</title>
<g id="a_edge32_Node000025_Node000028"><a xlink:title=" ">
<path fill="none" stroke="#63b8ff" d="M478.73,-98C492.46,-98 508.16,-98 523.3,-98"/>
<polygon fill="#63b8ff" stroke="#63b8ff" points="523.22,-101.5 533.22,-98 523.22,-94.5 523.22,-101.5"/>
</a>
</g>
</g>
<!-- Node29 -->
<g id="Node000029" class="node">
<title>Node29</title>
<g id="a_Node000029"><a xlink:href="namespacesvg_1_1constants.html#a70757c054f02146f803e0e40071734a9" target="_top" xlink:title=" ">
<polygon fill="white" stroke="#666666" points="786,-108 683.75,-108 683.75,-88 786,-88 786,-108"/>
<text text-anchor="middle" x="734.88" y="-96.4" font-family="SourceSans" font-size="8.00">svg::constants::comma</text>
</a>
</g>
</g>
<!-- Node28&#45;&gt;Node29 -->
<g id="edge33_Node000028_Node000029" class="edge">
<title>Node28&#45;&gt;Node29</title>
<g id="a_edge33_Node000028_Node000029"><a xlink:title=" ">
<path fill="none" stroke="#63b8ff" d="M644.3,-98C653.45,-98 663.01,-98 672.35,-98"/>
<polygon fill="#63b8ff" stroke="#63b8ff" points="672.06,-101.5 682.06,-98 672.06,-94.5 672.06,-101.5"/>
</a>
</g>
</g>
</g>
</svg>
