<?xml version="1.0" encoding="UTF-8" standalone="no"?>
<!DOCTYPE svg PUBLIC "-//W3C//DTD SVG 1.1//EN"
 "http://www.w3.org/Graphics/SVG/1.1/DTD/svg11.dtd">
<!-- Generated by graphviz version 13.1.2 (20250808.2320)
 -->
<!-- Title: svg::display_color_qis Pages: 1 -->
<svg width="1155pt" height="664pt"
 viewBox="0.00 0.00 1155.00 664.00" xmlns="http://www.w3.org/2000/svg" xmlns:xlink="http://www.w3.org/1999/xlink">
<g id="graph0" class="graph" transform="scale(1 1) rotate(0) translate(4 659.62)">
<title>svg::display_color_qis</title>
<!-- Node1 -->
<g id="Node000001" class="node">
<title>Node1</title>
<g id="a_Node000001"><a xlink:title="Make grid palette for display. NB.">
<polygon fill="#999999" stroke="#666666" points="105.25,-301.62 0,-301.62 0,-283.88 105.25,-283.88 105.25,-301.62"/>
<text xml:space="preserve" text-anchor="middle" x="52.62" y="-290.02" font-family="SourceSans" font-size="8.00">svg::display_color_qis</text>
</a>
</g>
</g>
<!-- Node2 -->
<g id="Node000002" class="node">
<title>Node2</title>
<g id="a_Node000002"><a xlink:href="group__elements.html#ada0333b46b2547c6152f3f5811016a12" target="_top" xlink:title=" ">
<polygon fill="white" stroke="#666666" points="701.75,-491.5 601.75,-491.5 601.75,-464 701.75,-464 701.75,-491.5"/>
<text xml:space="preserve" text-anchor="start" x="609.75" y="-479.9" font-family="SourceSans" font-size="8.00">svg::element_base::</text>
<text xml:space="preserve" text-anchor="middle" x="651.75" y="-470.15" font-family="SourceSans" font-size="8.00">add_element</text>
</a>
</g>
</g>
<!-- Node1&#45;&gt;Node2 -->
<g id="edge1_Node000001_Node000002" class="edge">
<title>Node1&#45;&gt;Node2</title>
<g id="a_edge1_Node000001_Node000002"><a xlink:title=" ">
<path fill="none" stroke="#63b8ff" d="M64.16,-302C96.04,-329.4 195.39,-410.26 293.75,-443.75 393.61,-477.75 517.67,-481.64 590.15,-480.38"/>
<polygon fill="#63b8ff" stroke="#63b8ff" points="589.89,-483.89 599.82,-480.17 589.74,-476.89 589.89,-483.89"/>
</a>
</g>
</g>
<!-- Node4 -->
<g id="Node000004" class="node">
<title>Node4</title>
<g id="a_Node000004"><a xlink:href="group__elements.html#a3f7b6a0f29695c76b8a9e0c6d939f1b6" target="_top" xlink:title="SVG element end boilerplate.">
<polygon fill="white" stroke="#666666" points="257.75,-27.5 141.25,-27.5 141.25,0 257.75,0 257.75,-27.5"/>
<text xml:space="preserve" text-anchor="start" x="149.25" y="-15.9" font-family="SourceSans" font-size="8.00">svg::svg_element::finish</text>
<text xml:space="preserve" text-anchor="middle" x="199.5" y="-6.15" font-family="SourceSans" font-size="8.00">_element</text>
</a>
</g>
</g>
<!-- Node1&#45;&gt;Node4 -->
<g id="edge3_Node000001_Node000004" class="edge">
<title>Node1&#45;&gt;Node4</title>
<g id="a_edge3_Node000001_Node000004"><a xlink:title=" ">
<path fill="none" stroke="#63b8ff" d="M54.34,-283.76C57.58,-248.48 73.85,-117.69 141.25,-41.75 143.71,-38.98 146.51,-36.45 149.51,-34.15"/>
<polygon fill="#63b8ff" stroke="#63b8ff" points="151.29,-37.17 157.74,-28.76 147.46,-31.31 151.29,-37.17"/>
</a>
</g>
</g>
<!-- Node5 -->
<g id="Node000005" class="node">
<title>Node5</title>
<g id="a_Node000005"><a xlink:href="namespacesvg.html#a7a295be306c0550a690075e94c1dfd46" target="_top" xlink:title="Create rect_element centered at origin.">
<polygon fill="white" stroke="#666666" points="257.75,-267.62 141.25,-267.62 141.25,-249.88 257.75,-249.88 257.75,-267.62"/>
<text xml:space="preserve" text-anchor="middle" x="199.5" y="-256.02" font-family="SourceSans" font-size="8.00">svg::make_rect_centered</text>
</a>
</g>
</g>
<!-- Node1&#45;&gt;Node5 -->
<g id="edge4_Node000001_Node000005" class="edge">
<title>Node1&#45;&gt;Node5</title>
<g id="a_edge4_Node000001_Node000005"><a xlink:title=" ">
<path fill="none" stroke="#63b8ff" d="M93.21,-283.46C109.99,-279.52 129.76,-274.88 147.6,-270.7"/>
<polygon fill="#63b8ff" stroke="#63b8ff" points="148.3,-274.13 157.24,-268.43 146.7,-267.31 148.3,-274.13"/>
</a>
</g>
</g>
<!-- Node11 -->
<g id="Node000011" class="node">
<title>Node11</title>
<g id="a_Node000011"><a xlink:href="namespacesvg.html#a36b1c48ad4601b205790e3772ad0a7b6" target="_top" xlink:title=" ">
<polygon fill="white" stroke="#666666" points="1122.88,-286.62 1051.38,-286.62 1051.38,-268.88 1122.88,-268.88 1122.88,-286.62"/>
<text xml:space="preserve" text-anchor="middle" x="1087.12" y="-275.02" font-family="SourceSans" font-size="8.00">svg::to_string</text>
</a>
</g>
</g>
<!-- Node1&#45;&gt;Node11 -->
<g id="edge45_Node000001_Node000011" class="edge">
<title>Node1&#45;&gt;Node11</title>
<g id="a_edge45_Node000001_Node000011"><a xlink:title=" ">
<path fill="none" stroke="#63b8ff" d="M59.16,-283.46C86.03,-239.64 207.84,-55.75 359.25,-55.75 359.25,-55.75 359.25,-55.75 797,-55.75 883.63,-55.75 920.24,-24.76 991,-74.75 1053.51,-118.92 1076.12,-215.02 1083.24,-257.2"/>
<polygon fill="#63b8ff" stroke="#63b8ff" points="1079.76,-257.6 1084.75,-266.95 1086.67,-256.53 1079.76,-257.6"/>
</a>
</g>
</g>
<!-- Node14 -->
<g id="Node000014" class="node">
<title>Node14</title>
<g id="a_Node000014"><a xlink:href="namespacesvg.html#a1309ce987f4e87ad97a1f3638a7af541" target="_top" xlink:title="Text at size, with a transformation=rotation.">
<polygon fill="white" stroke="#666666" points="241.25,-529.62 157.75,-529.62 157.75,-511.88 241.25,-511.88 241.25,-529.62"/>
<text xml:space="preserve" text-anchor="middle" x="199.5" y="-518.02" font-family="SourceSans" font-size="8.00">svg::sized_text_r</text>
</a>
</g>
</g>
<!-- Node1&#45;&gt;Node14 -->
<g id="edge13_Node000001_Node000014" class="edge">
<title>Node1&#45;&gt;Node14</title>
<g id="a_edge13_Node000001_Node000014"><a xlink:title=" ">
<path fill="none" stroke="#63b8ff" d="M55,-301.92C60.19,-333.54 81.49,-439.29 141.25,-497.75 144.65,-501.08 148.6,-503.94 152.8,-506.41"/>
<polygon fill="#63b8ff" stroke="#63b8ff" points="151.05,-509.45 161.56,-510.78 154.17,-503.18 151.05,-509.45"/>
</a>
</g>
</g>
<!-- Node27 -->
<g id="Node000027" class="node">
<title>Node27</title>
<g id="a_Node000027"><a xlink:href="group__elements.html#ad47933f8c0bfc36987493c7e3b3bbcbd" target="_top" xlink:title=" ">
<polygon fill="white" stroke="#666666" points="255.88,-324.62 143.12,-324.62 143.12,-306.88 255.88,-306.88 255.88,-324.62"/>
<text xml:space="preserve" text-anchor="middle" x="199.5" y="-313.02" font-family="SourceSans" font-size="8.00">svg::svg_element::start</text>
</a>
</g>
</g>
<!-- Node1&#45;&gt;Node27 -->
<g id="edge31_Node000001_Node000027" class="edge">
<title>Node1&#45;&gt;Node27</title>
<g id="a_edge31_Node000001_Node000027"><a xlink:title=" ">
<path fill="none" stroke="#63b8ff" d="M105.52,-300.99C114.08,-302.35 123.06,-303.77 131.93,-305.18"/>
<polygon fill="#63b8ff" stroke="#63b8ff" points="131.13,-308.6 141.55,-306.71 132.23,-301.68 131.13,-308.6"/>
</a>
</g>
</g>
<!-- Node3 -->
<g id="Node000003" class="node">
<title>Node3</title>
<g id="a_Node000003"><a xlink:href="group__elements.html#ad893ef9c13a15464c96d8a85c08af30f" target="_top" xlink:title=" ">
<polygon fill="white" stroke="#666666" points="851.25,-486.62 740.75,-486.62 740.75,-468.88 851.25,-468.88 851.25,-486.62"/>
<text xml:space="preserve" text-anchor="middle" x="796" y="-475.02" font-family="SourceSans" font-size="8.00">svg::element_base::str</text>
</a>
</g>
</g>
<!-- Node2&#45;&gt;Node3 -->
<g id="edge2_Node000002_Node000003" class="edge">
<title>Node2&#45;&gt;Node3</title>
<g id="a_edge2_Node000002_Node000003"><a xlink:title=" ">
<path fill="none" stroke="#63b8ff" d="M702.1,-477.75C710.79,-477.75 719.96,-477.75 729.02,-477.75"/>
<polygon fill="#63b8ff" stroke="#63b8ff" points="728.87,-481.25 738.87,-477.75 728.87,-474.25 728.87,-481.25"/>
</a>
</g>
</g>
<!-- Node6 -->
<g id="Node000006" class="node">
<title>Node6</title>
<g id="a_Node000006"><a xlink:href="namespacesvg.html#aab7d11a5ce14c5bfa6eeea480fddccde" target="_top" xlink:title="Create rect_element at origin.">
<polygon fill="white" stroke="#666666" points="834.38,-210.62 757.62,-210.62 757.62,-192.88 834.38,-192.88 834.38,-210.62"/>
<text xml:space="preserve" text-anchor="middle" x="796" y="-199.03" font-family="SourceSans" font-size="8.00">svg::make_rect</text>
</a>
</g>
</g>
<!-- Node5&#45;&gt;Node6 -->
<g id="edge5_Node000005_Node000006" class="edge">
<title>Node5&#45;&gt;Node6</title>
<g id="a_edge5_Node000005_Node000006"><a xlink:title=" ">
<path fill="none" stroke="#63b8ff" d="M258.04,-253.23C374.58,-242.06 636.68,-216.93 745.83,-206.46"/>
<polygon fill="#63b8ff" stroke="#63b8ff" points="746.01,-209.96 755.63,-205.52 745.35,-202.99 746.01,-209.96"/>
</a>
</g>
</g>
<!-- Node7 -->
<g id="Node000007" class="node">
<title>Node7</title>
<g id="a_Node000007"><a xlink:href="group__elements.html#a1dd6663d882fb5dd14a47462a77f351b" target="_top" xlink:title="Either serialize immediately (as below), or create data structure that adds data to data_vec and then...">
<polygon fill="white" stroke="#666666" points="986.5,-371.5 891.75,-371.5 891.75,-344 986.5,-344 986.5,-371.5"/>
<text xml:space="preserve" text-anchor="start" x="899.75" y="-359.9" font-family="SourceSans" font-size="8.00">svg::rect_element::</text>
<text xml:space="preserve" text-anchor="middle" x="939.12" y="-350.15" font-family="SourceSans" font-size="8.00">add_data</text>
</a>
</g>
</g>
<!-- Node6&#45;&gt;Node7 -->
<g id="edge6_Node000006_Node000007" class="edge">
<title>Node6&#45;&gt;Node7</title>
<g id="a_edge6_Node000006_Node000007"><a xlink:title=" ">
<path fill="none" stroke="#63b8ff" d="M805.41,-211.04C827.29,-235.23 886.49,-300.68 917.91,-335.4"/>
<polygon fill="#63b8ff" stroke="#63b8ff" points="914.94,-337.34 924.24,-342.4 920.13,-332.64 914.94,-337.34"/>
</a>
</g>
</g>
<!-- Node9 -->
<g id="Node000009" class="node">
<title>Node9</title>
<g id="a_Node000009"><a xlink:href="group__elements.html#a1b22cfab9437b40c8b877ffe5472ff02" target="_top" xlink:title=" ">
<polygon fill="white" stroke="#666666" points="989.12,-203.5 889.12,-203.5 889.12,-176 989.12,-176 989.12,-203.5"/>
<text xml:space="preserve" text-anchor="start" x="897.12" y="-191.9" font-family="SourceSans" font-size="8.00">svg::element_base::</text>
<text xml:space="preserve" text-anchor="middle" x="939.12" y="-182.15" font-family="SourceSans" font-size="8.00">add_filter</text>
</a>
</g>
</g>
<!-- Node6&#45;&gt;Node9 -->
<g id="edge8_Node000006_Node000009" class="edge">
<title>Node6&#45;&gt;Node9</title>
<g id="a_edge8_Node000006_Node000009"><a xlink:title=" ">
<path fill="none" stroke="#63b8ff" d="M834.82,-198.53C847.9,-197.42 862.9,-196.15 877.35,-194.92"/>
<polygon fill="#63b8ff" stroke="#63b8ff" points="877.6,-198.41 887.26,-194.07 877,-191.43 877.6,-198.41"/>
</a>
</g>
</g>
<!-- Node10 -->
<g id="Node000010" class="node">
<title>Node10</title>
<g id="a_Node000010"><a xlink:href="group__elements.html#a238b38ca99a1cf6c2baf80c8e4338d99" target="_top" xlink:title=" ">
<polygon fill="white" stroke="#666666" points="989.12,-249.5 889.12,-249.5 889.12,-222 989.12,-222 989.12,-249.5"/>
<text xml:space="preserve" text-anchor="start" x="897.12" y="-237.9" font-family="SourceSans" font-size="8.00">svg::element_base::</text>
<text xml:space="preserve" text-anchor="middle" x="939.12" y="-228.15" font-family="SourceSans" font-size="8.00">add_style</text>
</a>
</g>
</g>
<!-- Node6&#45;&gt;Node10 -->
<g id="edge9_Node000006_Node000010" class="edge">
<title>Node6&#45;&gt;Node10</title>
<g id="a_edge9_Node000006_Node000010"><a xlink:title=" ">
<path fill="none" stroke="#63b8ff" d="M834.82,-210.86C848.03,-214.04 863.2,-217.7 877.78,-221.21"/>
<polygon fill="#63b8ff" stroke="#63b8ff" points="876.76,-224.57 887.3,-223.51 878.4,-217.76 876.76,-224.57"/>
</a>
</g>
</g>
<!-- Node12 -->
<g id="Node000012" class="node">
<title>Node12</title>
<g id="a_Node000012"><a xlink:href="group__elements.html#gad01750ac554c6bd6871a930c90e17a04" target="_top" xlink:title=" ">
<polygon fill="white" stroke="#666666" points="986.5,-157.5 891.75,-157.5 891.75,-130 986.5,-130 986.5,-157.5"/>
<text xml:space="preserve" text-anchor="start" x="899.75" y="-145.9" font-family="SourceSans" font-size="8.00">svg::rect_element::</text>
<text xml:space="preserve" text-anchor="middle" x="939.12" y="-136.15" font-family="SourceSans" font-size="8.00">finish_element</text>
</a>
</g>
</g>
<!-- Node6&#45;&gt;Node12 -->
<g id="edge11_Node000006_Node000012" class="edge">
<title>Node6&#45;&gt;Node12</title>
<g id="a_edge11_Node000006_Node000012"><a xlink:title=" ">
<path fill="none" stroke="#63b8ff" d="M819.67,-192.43C839.42,-184.31 868.65,-172.3 893.13,-162.24"/>
<polygon fill="#63b8ff" stroke="#63b8ff" points="894.32,-165.54 902.24,-158.5 891.66,-159.06 894.32,-165.54"/>
</a>
</g>
</g>
<!-- Node13 -->
<g id="Node000013" class="node">
<title>Node13</title>
<g id="a_Node000013"><a xlink:href="group__elements.html#a1e0ed5e9dfe1244317a87d7e6774348b" target="_top" xlink:title=" ">
<polygon fill="white" stroke="#666666" points="986.5,-111.5 891.75,-111.5 891.75,-84 986.5,-84 986.5,-111.5"/>
<text xml:space="preserve" text-anchor="start" x="899.75" y="-99.9" font-family="SourceSans" font-size="8.00">svg::rect_element::</text>
<text xml:space="preserve" text-anchor="middle" x="939.12" y="-90.15" font-family="SourceSans" font-size="8.00">start_element</text>
</a>
</g>
</g>
<!-- Node6&#45;&gt;Node13 -->
<g id="edge12_Node000006_Node000013" class="edge">
<title>Node6&#45;&gt;Node13</title>
<g id="a_edge12_Node000006_Node000013"><a xlink:title=" ">
<path fill="none" stroke="#63b8ff" d="M805.46,-192.48C820.61,-176.28 853.92,-142.49 887.25,-120.75 889.08,-119.56 890.98,-118.4 892.92,-117.27"/>
<polygon fill="#63b8ff" stroke="#63b8ff" points="894.37,-120.47 901.55,-112.68 891.08,-114.29 894.37,-120.47"/>
</a>
</g>
</g>
<!-- Node8 -->
<g id="Node000008" class="node">
<title>Node8</title>
<g id="a_Node000008"><a xlink:href="namespacesvg.html#a48ac748e89e22789d1772326a98dd7b6" target="_top" xlink:title=" ">
<polygon fill="white" stroke="#666666" points="1133.75,-408.62 1040.5,-408.62 1040.5,-390.88 1133.75,-390.88 1133.75,-408.62"/>
<text xml:space="preserve" text-anchor="middle" x="1087.12" y="-397.02" font-family="SourceSans" font-size="8.00">svg::string_replace</text>
</a>
</g>
</g>
<!-- Node7&#45;&gt;Node8 -->
<g id="edge7_Node000007_Node000008" class="edge">
<title>Node7&#45;&gt;Node8</title>
<g id="a_edge7_Node000007_Node000008"><a xlink:title=" ">
<path fill="none" stroke="#63b8ff" d="M986.72,-371.15C1004.74,-376.34 1025.25,-382.24 1042.93,-387.32"/>
<polygon fill="#63b8ff" stroke="#63b8ff" points="1041.78,-390.63 1052.35,-390.04 1043.71,-383.91 1041.78,-390.63"/>
</a>
</g>
</g>
<!-- Node10&#45;&gt;Node11 -->
<g id="edge10_Node000010_Node000011" class="edge">
<title>Node10&#45;&gt;Node11</title>
<g id="a_edge10_Node000010_Node000011"><a xlink:title=" ">
<path fill="none" stroke="#63b8ff" d="M989.55,-249.97C1006.93,-254.97 1026.29,-260.54 1043.1,-265.37"/>
<polygon fill="#63b8ff" stroke="#63b8ff" points="1041.69,-268.61 1052.27,-268.01 1043.63,-261.88 1041.69,-268.61"/>
</a>
</g>
</g>
<!-- Node15 -->
<g id="Node000015" class="node">
<title>Node15</title>
<g id="a_Node000015"><a xlink:href="namespacesvg.html#ad3c5f59f86bb309de4efd1187e5c004b" target="_top" xlink:title="Text at.">
<polygon fill="white" stroke="#666666" points="403.5,-530.62 317,-530.62 317,-512.88 403.5,-512.88 403.5,-530.62"/>
<text xml:space="preserve" text-anchor="middle" x="360.25" y="-519.02" font-family="SourceSans" font-size="8.00">svg::styled_text_r</text>
</a>
</g>
</g>
<!-- Node14&#45;&gt;Node15 -->
<g id="edge14_Node000014_Node000015" class="edge">
<title>Node14&#45;&gt;Node15</title>
<g id="a_edge14_Node000014_Node000015"><a xlink:title=" ">
<path fill="none" stroke="#63b8ff" d="M241.38,-521.01C260.84,-521.13 284.37,-521.28 305.27,-521.41"/>
<polygon fill="#63b8ff" stroke="#63b8ff" points="305.03,-524.91 315.05,-521.47 305.07,-517.91 305.03,-524.91"/>
</a>
</g>
</g>
<!-- Node15&#45;&gt;Node2 -->
<g id="edge15_Node000015_Node000002" class="edge">
<title>Node15&#45;&gt;Node2</title>
<g id="a_edge15_Node000015_Node000002"><a xlink:title=" ">
<path fill="none" stroke="#63b8ff" d="M403.89,-517.98C444.81,-514.06 508.25,-507.16 562.75,-497.75 571.75,-496.2 581.22,-494.31 590.47,-492.33"/>
<polygon fill="#63b8ff" stroke="#63b8ff" points="591.11,-495.77 600.12,-490.2 589.6,-488.94 591.11,-495.77"/>
</a>
</g>
</g>
<!-- Node16 -->
<g id="Node000016" class="node">
<title>Node16</title>
<g id="a_Node000016"><a xlink:href="namespacesvg.html#a43b88f0c7e911161e757ccc5a5ccd607" target="_top" xlink:title="Text element at.">
<polygon fill="white" stroke="#666666" points="553.38,-619.62 472.12,-619.62 472.12,-601.88 553.38,-601.88 553.38,-619.62"/>
<text xml:space="preserve" text-anchor="middle" x="512.75" y="-608.02" font-family="SourceSans" font-size="8.00">svg::style_text_r</text>
</a>
</g>
</g>
<!-- Node15&#45;&gt;Node16 -->
<g id="edge16_Node000015_Node000016" class="edge">
<title>Node15&#45;&gt;Node16</title>
<g id="a_edge16_Node000015_Node000016"><a xlink:title=" ">
<path fill="none" stroke="#63b8ff" d="M374.74,-531.09C393.9,-544.19 430.29,-568.49 462.75,-586.75 468.67,-590.08 475.13,-593.43 481.34,-596.53"/>
<polygon fill="#63b8ff" stroke="#63b8ff" points="479.57,-599.56 490.1,-600.79 482.64,-593.26 479.57,-599.56"/>
</a>
</g>
</g>
<!-- Node17 -->
<g id="Node000017" class="node">
<title>Node17</title>
<g id="a_Node000017"><a xlink:href="structsvg_1_1transform.html#acf9836f4ba647f0dd2b53963a0f714d0" target="_top" xlink:title=" ">
<polygon fill="white" stroke="#666666" points="704.75,-655.62 598.75,-655.62 598.75,-637.88 704.75,-637.88 704.75,-655.62"/>
<text xml:space="preserve" text-anchor="middle" x="651.75" y="-644.02" font-family="SourceSans" font-size="8.00">svg::transform::rotate</text>
</a>
</g>
</g>
<!-- Node16&#45;&gt;Node17 -->
<g id="edge17_Node000016_Node000017" class="edge">
<title>Node16&#45;&gt;Node17</title>
<g id="a_edge17_Node000016_Node000017"><a xlink:title=" ">
<path fill="none" stroke="#63b8ff" d="M549.39,-620.11C566.12,-624.51 586.27,-629.81 604.19,-634.51"/>
<polygon fill="#63b8ff" stroke="#63b8ff" points="603.27,-637.89 613.83,-637.05 605.04,-631.12 603.27,-637.89"/>
</a>
</g>
</g>
<!-- Node18 -->
<g id="Node000018" class="node">
<title>Node18</title>
<g id="a_Node000018"><a xlink:href="namespacesvg.html#a74ca2344cea417d9107d56f4f53c5b0b" target="_top" xlink:title="Text element at.">
<polygon fill="white" stroke="#666666" points="689,-619.62 614.5,-619.62 614.5,-601.88 689,-601.88 689,-619.62"/>
<text xml:space="preserve" text-anchor="middle" x="651.75" y="-608.02" font-family="SourceSans" font-size="8.00">svg::style_text</text>
</a>
</g>
</g>
<!-- Node16&#45;&gt;Node18 -->
<g id="edge18_Node000016_Node000018" class="edge">
<title>Node16&#45;&gt;Node18</title>
<g id="a_edge18_Node000016_Node000018"><a xlink:title=" ">
<path fill="none" stroke="#63b8ff" d="M553.74,-610.75C569.12,-610.75 586.84,-610.75 602.88,-610.75"/>
<polygon fill="#63b8ff" stroke="#63b8ff" points="602.7,-614.25 612.7,-610.75 602.7,-607.25 602.7,-614.25"/>
</a>
</g>
</g>
<!-- Node19 -->
<g id="Node000019" class="node">
<title>Node19</title>
<g id="a_Node000019"><a xlink:href="group__elements.html#aad29e1daf75bdcd69a39575a6807fa0f" target="_top" xlink:title="Either serialize immediately (as below), or create data structure that adds data to data_vec and then...">
<polygon fill="white" stroke="#666666" points="843.38,-532.5 748.62,-532.5 748.62,-505 843.38,-505 843.38,-532.5"/>
<text xml:space="preserve" text-anchor="start" x="756.62" y="-520.9" font-family="SourceSans" font-size="8.00">svg::text_element::</text>
<text xml:space="preserve" text-anchor="middle" x="796" y="-511.15" font-family="SourceSans" font-size="8.00">add_data</text>
</a>
</g>
</g>
<!-- Node18&#45;&gt;Node19 -->
<g id="edge19_Node000018_Node000019" class="edge">
<title>Node18&#45;&gt;Node19</title>
<g id="a_edge19_Node000018_Node000019"><a xlink:title=" ">
<path fill="none" stroke="#63b8ff" d="M685.42,-601.42C692.01,-599 698.75,-596.11 704.75,-592.75 711.85,-588.78 745.52,-560.7 769.65,-540.31"/>
<polygon fill="#63b8ff" stroke="#63b8ff" points="771.84,-543.04 777.21,-533.91 767.31,-537.7 771.84,-543.04"/>
</a>
</g>
</g>
<!-- Node25 -->
<g id="Node000025" class="node">
<title>Node25</title>
<g id="a_Node000025"><a xlink:href="group__elements.html#ga13c46848317034d16c62a7d2061ba3d6" target="_top" xlink:title=" ">
<polygon fill="white" stroke="#666666" points="843.38,-601.5 748.62,-601.5 748.62,-574 843.38,-574 843.38,-601.5"/>
<text xml:space="preserve" text-anchor="start" x="756.62" y="-589.9" font-family="SourceSans" font-size="8.00">svg::text_element::</text>
<text xml:space="preserve" text-anchor="middle" x="796" y="-580.15" font-family="SourceSans" font-size="8.00">finish_element</text>
</a>
</g>
</g>
<!-- Node18&#45;&gt;Node25 -->
<g id="edge29_Node000018_Node000025" class="edge">
<title>Node18&#45;&gt;Node25</title>
<g id="a_edge29_Node000018_Node000025"><a xlink:title=" ">
<path fill="none" stroke="#63b8ff" d="M689.38,-604.83C703.96,-602.47 721.1,-599.7 737.27,-597.08"/>
<polygon fill="#63b8ff" stroke="#63b8ff" points="737.46,-600.6 746.78,-595.55 736.35,-593.69 737.46,-600.6"/>
</a>
</g>
</g>
<!-- Node26 -->
<g id="Node000026" class="node">
<title>Node26</title>
<g id="a_Node000026"><a xlink:href="group__elements.html#ae45bec611a6ec17ea46aab6d680ae042" target="_top" xlink:title=" ">
<polygon fill="white" stroke="#666666" points="843.38,-647.5 748.62,-647.5 748.62,-620 843.38,-620 843.38,-647.5"/>
<text xml:space="preserve" text-anchor="start" x="756.62" y="-635.9" font-family="SourceSans" font-size="8.00">svg::text_element::</text>
<text xml:space="preserve" text-anchor="middle" x="796" y="-626.15" font-family="SourceSans" font-size="8.00">start_element</text>
</a>
</g>
</g>
<!-- Node18&#45;&gt;Node26 -->
<g id="edge30_Node000018_Node000026" class="edge">
<title>Node18&#45;&gt;Node26</title>
<g id="a_edge30_Node000018_Node000026"><a xlink:title=" ">
<path fill="none" stroke="#63b8ff" d="M689.38,-616.67C703.96,-619.03 721.1,-621.8 737.27,-624.42"/>
<polygon fill="#63b8ff" stroke="#63b8ff" points="736.35,-627.81 746.78,-625.95 737.46,-620.9 736.35,-627.81"/>
</a>
</g>
</g>
<!-- Node19&#45;&gt;Node8 -->
<g id="edge27_Node000019_Node000008" class="edge">
<title>Node19&#45;&gt;Node8</title>
<g id="a_edge27_Node000019_Node000008"><a xlink:title=" ">
<path fill="none" stroke="#63b8ff" d="M843.49,-530.09C885.91,-537.6 948.32,-541.19 991,-510.75 1026.75,-485.26 995,-448.82 1027,-418.75 1028.59,-417.25 1030.3,-415.88 1032.1,-414.61"/>
<polygon fill="#63b8ff" stroke="#63b8ff" points="1033.44,-417.87 1040.39,-409.87 1029.97,-411.79 1033.44,-417.87"/>
</a>
</g>
</g>
<!-- Node19&#45;&gt;Node11 -->
<g id="edge28_Node000019_Node000011" class="edge">
<title>Node19&#45;&gt;Node11</title>
<g id="a_edge28_Node000019_Node000011"><a xlink:title=" ">
<path fill="none" stroke="#63b8ff" d="M841.06,-504.67C844.87,-502.16 848.37,-499.21 851.25,-495.75 898.2,-439.43 836.96,-388.11 887.25,-334.75 908.03,-312.7 987.82,-294.95 1039.8,-285.42"/>
<polygon fill="#63b8ff" stroke="#63b8ff" points="1040.36,-288.87 1049.59,-283.66 1039.13,-281.98 1040.36,-288.87"/>
</a>
</g>
</g>
<!-- Node20 -->
<g id="Node000020" class="node">
<title>Node20</title>
<g id="a_Node000020"><a xlink:href="structsvg_1_1typography.html#adbc62f74f1fed3f7c77567250f084f83" target="_top" xlink:title=" ">
<polygon fill="white" stroke="#666666" points="991,-455.5 887.25,-455.5 887.25,-428 991,-428 991,-455.5"/>
<text xml:space="preserve" text-anchor="start" x="895.25" y="-443.9" font-family="SourceSans" font-size="8.00">svg::typography::add</text>
<text xml:space="preserve" text-anchor="middle" x="939.12" y="-434.15" font-family="SourceSans" font-size="8.00">_attribute</text>
</a>
</g>
</g>
<!-- Node19&#45;&gt;Node20 -->
<g id="edge20_Node000019_Node000020" class="edge">
<title>Node19&#45;&gt;Node20</title>
<g id="a_edge20_Node000019_Node000020"><a xlink:title=" ">
<path fill="none" stroke="#63b8ff" d="M834.83,-504.51C840.48,-501.87 846.12,-498.94 851.25,-495.75 869.18,-484.61 869.45,-476.1 887.25,-464.75 889.12,-463.56 891.06,-462.39 893.05,-461.27"/>
<polygon fill="#63b8ff" stroke="#63b8ff" points="894.65,-464.38 901.88,-456.62 891.4,-458.18 894.65,-464.38"/>
</a>
</g>
</g>
<!-- Node22 -->
<g id="Node000022" class="node">
<title>Node22</title>
<g id="a_Node000022"><a xlink:href="group__elements.html#acafbdd950c6c2639c9d376c3eab696e5" target="_top" xlink:title=" ">
<polygon fill="white" stroke="#666666" points="989.12,-501.5 889.12,-501.5 889.12,-474 989.12,-474 989.12,-501.5"/>
<text xml:space="preserve" text-anchor="start" x="897.12" y="-489.9" font-family="SourceSans" font-size="8.00">svg::element_base::</text>
<text xml:space="preserve" text-anchor="middle" x="939.12" y="-480.15" font-family="SourceSans" font-size="8.00">add_raw</text>
</a>
</g>
</g>
<!-- Node19&#45;&gt;Node22 -->
<g id="edge24_Node000019_Node000022" class="edge">
<title>Node19&#45;&gt;Node22</title>
<g id="a_edge24_Node000019_Node000022"><a xlink:title=" ">
<path fill="none" stroke="#63b8ff" d="M843.6,-508.51C854.44,-506.13 866.13,-503.56 877.48,-501.07"/>
<polygon fill="#63b8ff" stroke="#63b8ff" points="878.17,-504.5 887.19,-498.94 876.67,-497.67 878.17,-504.5"/>
</a>
</g>
</g>
<!-- Node23 -->
<g id="Node000023" class="node">
<title>Node23</title>
<g id="a_Node000023"><a xlink:href="group__elements.html#a53d72a7ff728ad1d4d027254530bcf3d" target="_top" xlink:title=" ">
<polygon fill="white" stroke="#666666" points="989.12,-585.5 889.12,-585.5 889.12,-558 989.12,-558 989.12,-585.5"/>
<text xml:space="preserve" text-anchor="start" x="897.12" y="-573.9" font-family="SourceSans" font-size="8.00">svg::element_base::</text>
<text xml:space="preserve" text-anchor="middle" x="939.12" y="-564.15" font-family="SourceSans" font-size="8.00">add_transform</text>
</a>
</g>
</g>
<!-- Node19&#45;&gt;Node23 -->
<g id="edge25_Node000019_Node000023" class="edge">
<title>Node19&#45;&gt;Node23</title>
<g id="a_edge25_Node000019_Node000023"><a xlink:title=" ">
<path fill="none" stroke="#63b8ff" d="M834.82,-532.95C851.67,-539.28 871.71,-546.81 889.64,-553.54"/>
<polygon fill="#63b8ff" stroke="#63b8ff" points="888.19,-556.74 898.78,-556.98 890.65,-550.18 888.19,-556.74"/>
</a>
</g>
</g>
<!-- Node20&#45;&gt;Node8 -->
<g id="edge21_Node000020_Node000008" class="edge">
<title>Node20&#45;&gt;Node8</title>
<g id="a_edge21_Node000020_Node000008"><a xlink:title=" ">
<path fill="none" stroke="#63b8ff" d="M989.55,-427.53C1006.93,-422.53 1026.29,-416.96 1043.1,-412.13"/>
<polygon fill="#63b8ff" stroke="#63b8ff" points="1043.63,-415.62 1052.27,-409.49 1041.69,-408.89 1043.63,-415.62"/>
</a>
</g>
</g>
<!-- Node20&#45;&gt;Node11 -->
<g id="edge22_Node000020_Node000011" class="edge">
<title>Node20&#45;&gt;Node11</title>
<g id="a_edge22_Node000020_Node000011"><a xlink:title=" ">
<path fill="none" stroke="#63b8ff" d="M952.57,-427.77C979.06,-398.02 1040.96,-328.48 1070.24,-295.59"/>
<polygon fill="#63b8ff" stroke="#63b8ff" points="1072.85,-297.92 1076.89,-288.13 1067.62,-293.27 1072.85,-297.92"/>
</a>
</g>
</g>
<!-- Node21 -->
<g id="Node000021" class="node">
<title>Node21</title>
<g id="a_Node000021"><a xlink:href="structsvg_1_1typography.html#a174c1ffb4e56214d71523ffe7e422561" target="_top" xlink:title=" ">
<polygon fill="white" stroke="#666666" points="1135.25,-455.5 1039,-455.5 1039,-428 1135.25,-428 1135.25,-455.5"/>
<text xml:space="preserve" text-anchor="start" x="1047" y="-443.9" font-family="SourceSans" font-size="8.00">svg::typography::to</text>
<text xml:space="preserve" text-anchor="middle" x="1087.12" y="-434.15" font-family="SourceSans" font-size="8.00">_string</text>
</a>
</g>
</g>
<!-- Node20&#45;&gt;Node21 -->
<g id="edge23_Node000020_Node000021" class="edge">
<title>Node20&#45;&gt;Node21</title>
<g id="a_edge23_Node000020_Node000021"><a xlink:title=" ">
<path fill="none" stroke="#63b8ff" d="M991.19,-441.75C1002.9,-441.75 1015.45,-441.75 1027.46,-441.75"/>
<polygon fill="#63b8ff" stroke="#63b8ff" points="1027.25,-445.25 1037.25,-441.75 1027.25,-438.25 1027.25,-445.25"/>
</a>
</g>
</g>
<!-- Node24 -->
<g id="Node000024" class="node">
<title>Node24</title>
<g id="a_Node000024"><a xlink:href="group__elements.html#ae50258851ebbaf08c7eebc3fbdbf1ac8" target="_top" xlink:title="Common transforms include rotate(180)">
<polygon fill="white" stroke="#666666" points="1147.25,-585.5 1027,-585.5 1027,-558 1147.25,-558 1147.25,-585.5"/>
<text xml:space="preserve" text-anchor="start" x="1035" y="-573.9" font-family="SourceSans" font-size="8.00">svg::element_base::</text>
<text xml:space="preserve" text-anchor="middle" x="1087.12" y="-564.15" font-family="SourceSans" font-size="8.00">make_transform_attribute</text>
</a>
</g>
</g>
<!-- Node23&#45;&gt;Node24 -->
<g id="edge26_Node000023_Node000024" class="edge">
<title>Node23&#45;&gt;Node24</title>
<g id="a_edge26_Node000023_Node000024"><a xlink:title=" ">
<path fill="none" stroke="#63b8ff" d="M989.55,-571.75C997.84,-571.75 1006.57,-571.75 1015.27,-571.75"/>
<polygon fill="#63b8ff" stroke="#63b8ff" points="1015.12,-575.25 1025.12,-571.75 1015.12,-568.25 1015.12,-575.25"/>
</a>
</g>
</g>
<!-- Node28 -->
<g id="Node000028" class="node">
<title>Node28</title>
<g id="a_Node000028"><a xlink:href="group__elements.html#a4a6af4e23b9f79f07d58780c128c5638" target="_top" xlink:title=" ">
<polygon fill="white" stroke="#666666" points="426.75,-377.62 293.75,-377.62 293.75,-359.88 426.75,-359.88 426.75,-377.62"/>
<text xml:space="preserve" text-anchor="middle" x="360.25" y="-366.02" font-family="SourceSans" font-size="8.00">svg::svg_element::add_desc</text>
</a>
</g>
</g>
<!-- Node27&#45;&gt;Node28 -->
<g id="edge32_Node000027_Node000028" class="edge">
<title>Node27&#45;&gt;Node28</title>
<g id="a_edge32_Node000027_Node000028"><a xlink:title=" ">
<path fill="none" stroke="#63b8ff" d="M228.52,-325.1C254.05,-333.63 292.02,-346.31 320.47,-355.8"/>
<polygon fill="#63b8ff" stroke="#63b8ff" points="319.22,-359.07 329.81,-358.92 321.44,-352.44 319.22,-359.07"/>
</a>
</g>
</g>
<!-- Node31 -->
<g id="Node000031" class="node">
<title>Node31</title>
<g id="a_Node000031"><a xlink:href="group__elements.html#a26869d2a66e57c0d83f2df21d25cd875" target="_top" xlink:title=" ">
<polygon fill="white" stroke="#666666" points="415.12,-434.5 305.38,-434.5 305.38,-407 415.12,-407 415.12,-434.5"/>
<text xml:space="preserve" text-anchor="start" x="313.38" y="-422.9" font-family="SourceSans" font-size="8.00">svg::svg_element::add</text>
<text xml:space="preserve" text-anchor="middle" x="360.25" y="-413.15" font-family="SourceSans" font-size="8.00">_title</text>
</a>
</g>
</g>
<!-- Node27&#45;&gt;Node31 -->
<g id="edge36_Node000027_Node000031" class="edge">
<title>Node27&#45;&gt;Node31</title>
<g id="a_edge36_Node000027_Node000031"><a xlink:title=" ">
<path fill="none" stroke="#63b8ff" d="M211.25,-324.92C228.16,-339.1 262.3,-366.82 293.75,-386.75 301.75,-391.82 310.6,-396.8 319.13,-401.31"/>
<polygon fill="#63b8ff" stroke="#63b8ff" points="317.47,-404.39 327.96,-405.87 320.68,-398.17 317.47,-404.39"/>
</a>
</g>
</g>
<!-- Node35 -->
<g id="Node000035" class="node">
<title>Node35</title>
<g id="a_Node000035"><a xlink:href="group__elements.html#a83eb3152f92ca357473c2ef8f23ced98" target="_top" xlink:title="SVG element beginning boilerplate for outermost (containing) svg_element. Variable: unit,...">
<polygon fill="white" stroke="#666666" points="416.62,-329.5 303.88,-329.5 303.88,-302 416.62,-302 416.62,-329.5"/>
<text xml:space="preserve" text-anchor="start" x="311.88" y="-317.9" font-family="SourceSans" font-size="8.00">svg::svg_element::start</text>
<text xml:space="preserve" text-anchor="middle" x="360.25" y="-308.15" font-family="SourceSans" font-size="8.00">_element</text>
</a>
</g>
</g>
<!-- Node27&#45;&gt;Node35 -->
<g id="edge41_Node000027_Node000035" class="edge">
<title>Node27&#45;&gt;Node35</title>
<g id="a_edge41_Node000027_Node000035"><a xlink:title=" ">
<path fill="none" stroke="#63b8ff" d="M256.02,-309.28C267.68,-309 280.09,-308.93 292.11,-309.07"/>
<polygon fill="#63b8ff" stroke="#63b8ff" points="291.92,-312.57 301.98,-309.25 292.04,-305.57 291.92,-312.57"/>
</a>
</g>
</g>
<!-- Node28&#45;&gt;Node2 -->
<g id="edge33_Node000028_Node000002" class="edge">
<title>Node28&#45;&gt;Node2</title>
<g id="a_edge33_Node000028_Node000002"><a xlink:title=" ">
<path fill="none" stroke="#63b8ff" d="M386.28,-378.03C398.82,-383.12 414.01,-389.98 426.75,-397.75 444.29,-408.44 444.45,-417.42 462.75,-426.75 503.06,-447.3 552.59,-460.3 590.68,-468.03"/>
<polygon fill="#63b8ff" stroke="#63b8ff" points="589.64,-471.39 600.13,-469.88 590.99,-464.52 589.64,-471.39"/>
</a>
</g>
</g>
<!-- Node29 -->
<g id="Node000029" class="node">
<title>Node29</title>
<g id="a_Node000029"><a xlink:href="group__elements.html#ga03da556ae8f749df1cf8463111e996d3" target="_top" xlink:title=" ">
<polygon fill="white" stroke="#666666" points="562.38,-417.5 463.12,-417.5 463.12,-390 562.38,-390 562.38,-417.5"/>
<text xml:space="preserve" text-anchor="start" x="471.12" y="-405.9" font-family="SourceSans" font-size="8.00">svg::desc_element::</text>
<text xml:space="preserve" text-anchor="middle" x="512.75" y="-396.15" font-family="SourceSans" font-size="8.00">finish_element</text>
</a>
</g>
</g>
<!-- Node28&#45;&gt;Node29 -->
<g id="edge34_Node000028_Node000029" class="edge">
<title>Node28&#45;&gt;Node29</title>
<g id="a_edge34_Node000028_Node000029"><a xlink:title=" ">
<path fill="none" stroke="#63b8ff" d="M401.19,-378.04C416.69,-381.64 434.77,-385.85 451.78,-389.8"/>
<polygon fill="#63b8ff" stroke="#63b8ff" points="450.75,-393.16 461.28,-392.01 452.33,-386.34 450.75,-393.16"/>
</a>
</g>
</g>
<!-- Node30 -->
<g id="Node000030" class="node">
<title>Node30</title>
<g id="a_Node000030"><a xlink:href="group__elements.html#a90ffdd73579c45cd0740dc9efa2f5445" target="_top" xlink:title=" ">
<polygon fill="white" stroke="#666666" points="562.38,-371.5 463.12,-371.5 463.12,-344 562.38,-344 562.38,-371.5"/>
<text xml:space="preserve" text-anchor="start" x="471.12" y="-359.9" font-family="SourceSans" font-size="8.00">svg::desc_element::</text>
<text xml:space="preserve" text-anchor="middle" x="512.75" y="-350.15" font-family="SourceSans" font-size="8.00">start_element</text>
</a>
</g>
</g>
<!-- Node28&#45;&gt;Node30 -->
<g id="edge35_Node000028_Node000030" class="edge">
<title>Node28&#45;&gt;Node30</title>
<g id="a_edge35_Node000028_Node000030"><a xlink:title=" ">
<path fill="none" stroke="#63b8ff" d="M426.82,-363.96C435.01,-363.36 443.35,-362.75 451.44,-362.16"/>
<polygon fill="#63b8ff" stroke="#63b8ff" points="451.46,-365.67 461.18,-361.45 450.95,-358.68 451.46,-365.67"/>
</a>
</g>
</g>
<!-- Node32 -->
<g id="Node000032" class="node">
<title>Node32</title>
<g id="a_Node000032"><a xlink:href="group__elements.html#a7995b78d94e1c299065c9dd3569fef7c" target="_top" xlink:title=" ">
<polygon fill="white" stroke="#666666" points="562.75,-577.5 462.75,-577.5 462.75,-550 562.75,-550 562.75,-577.5"/>
<text xml:space="preserve" text-anchor="start" x="470.75" y="-565.9" font-family="SourceSans" font-size="8.00">svg::element_base::</text>
<text xml:space="preserve" text-anchor="middle" x="512.75" y="-556.15" font-family="SourceSans" font-size="8.00">add_title</text>
</a>
</g>
</g>
<!-- Node31&#45;&gt;Node32 -->
<g id="edge37_Node000031_Node000032" class="edge">
<title>Node31&#45;&gt;Node32</title>
<g id="a_edge37_Node000031_Node000032"><a xlink:title=" ">
<path fill="none" stroke="#63b8ff" d="M376.23,-434.98C402.6,-460.04 457.46,-512.17 488.69,-541.84"/>
<polygon fill="#63b8ff" stroke="#63b8ff" points="486.07,-544.18 495.73,-548.53 490.89,-539.11 486.07,-544.18"/>
</a>
</g>
</g>
<!-- Node32&#45;&gt;Node2 -->
<g id="edge38_Node000032_Node000002" class="edge">
<title>Node32&#45;&gt;Node2</title>
<g id="a_edge38_Node000032_Node000002"><a xlink:title=" ">
<path fill="none" stroke="#63b8ff" d="M541.48,-549.52C548.64,-545.42 556.17,-540.7 562.75,-535.75 580.58,-522.33 580.26,-513.24 598.75,-500.75 600.53,-499.55 602.38,-498.39 604.28,-497.26"/>
<polygon fill="#63b8ff" stroke="#63b8ff" points="605.59,-500.53 612.73,-492.71 602.27,-494.37 605.59,-500.53"/>
</a>
</g>
</g>
<!-- Node33 -->
<g id="Node000033" class="node">
<title>Node33</title>
<g id="a_Node000033"><a xlink:href="group__elements.html#ga3d62381f8edcccd3d91f82af55f11274" target="_top" xlink:title=" ">
<polygon fill="white" stroke="#666666" points="696.5,-583.5 607,-583.5 607,-556 696.5,-556 696.5,-583.5"/>
<text xml:space="preserve" text-anchor="start" x="615" y="-571.9" font-family="SourceSans" font-size="8.00">svg::title_element</text>
<text xml:space="preserve" text-anchor="middle" x="651.75" y="-562.15" font-family="SourceSans" font-size="8.00">::finish_element</text>
</a>
</g>
</g>
<!-- Node32&#45;&gt;Node33 -->
<g id="edge39_Node000032_Node000033" class="edge">
<title>Node32&#45;&gt;Node33</title>
<g id="a_edge39_Node000032_Node000033"><a xlink:title=" ">
<path fill="none" stroke="#63b8ff" d="M563.21,-565.92C573.68,-566.37 584.79,-566.86 595.46,-567.33"/>
<polygon fill="#63b8ff" stroke="#63b8ff" points="595.16,-570.82 605.3,-567.76 595.46,-563.83 595.16,-570.82"/>
</a>
</g>
</g>
<!-- Node34 -->
<g id="Node000034" class="node">
<title>Node34</title>
<g id="a_Node000034"><a xlink:href="group__elements.html#a41dcaa1132c502cb86c01aae1e7b9ff2" target="_top" xlink:title=" ">
<polygon fill="white" stroke="#666666" points="696.5,-537.5 607,-537.5 607,-510 696.5,-510 696.5,-537.5"/>
<text xml:space="preserve" text-anchor="start" x="615" y="-525.9" font-family="SourceSans" font-size="8.00">svg::title_element</text>
<text xml:space="preserve" text-anchor="middle" x="651.75" y="-516.15" font-family="SourceSans" font-size="8.00">::start_element</text>
</a>
</g>
</g>
<!-- Node32&#45;&gt;Node34 -->
<g id="edge40_Node000032_Node000034" class="edge">
<title>Node32&#45;&gt;Node34</title>
<g id="a_edge40_Node000032_Node000034"><a xlink:title=" ">
<path fill="none" stroke="#63b8ff" d="M562.44,-549.53C573.28,-546.37 584.85,-542.99 595.92,-539.76"/>
<polygon fill="#63b8ff" stroke="#63b8ff" points="596.71,-543.17 605.33,-537.01 594.75,-536.45 596.71,-543.17"/>
</a>
</g>
</g>
<!-- Node35&#45;&gt;Node8 -->
<g id="edge43_Node000035_Node000008" class="edge">
<title>Node35&#45;&gt;Node8</title>
<g id="a_edge43_Node000035_Node000008"><a xlink:title=" ">
<path fill="none" stroke="#63b8ff" d="M416.92,-320.29C457.42,-323.77 513.55,-328.95 562.75,-334.75 707.41,-351.81 742.6,-363.6 887.25,-380.75 934.9,-386.4 989.13,-391.49 1028.91,-394.98"/>
<polygon fill="#63b8ff" stroke="#63b8ff" points="1028.47,-398.45 1038.74,-395.83 1029.08,-391.48 1028.47,-398.45"/>
</a>
</g>
</g>
<!-- Node35&#45;&gt;Node11 -->
<g id="edge44_Node000035_Node000011" class="edge">
<title>Node35&#45;&gt;Node11</title>
<g id="a_edge44_Node000035_Node000011"><a xlink:title=" ">
<path fill="none" stroke="#63b8ff" d="M417.01,-304.04C475.09,-292.87 568.88,-277.75 650.75,-277.75 650.75,-277.75 650.75,-277.75 797,-277.75 882.7,-277.75 982.69,-277.75 1039.79,-277.75"/>
<polygon fill="#63b8ff" stroke="#63b8ff" points="1039.45,-281.25 1049.45,-277.75 1039.45,-274.25 1039.45,-281.25"/>
</a>
</g>
</g>
<!-- Node35&#45;&gt;Node27 -->
<g id="edge42_Node000035_Node000027" class="edge">
<title>Node35&#45;&gt;Node27</title>
<g id="a_edge42_Node000035_Node000027"><a xlink:title=" ">
<path fill="none" stroke="#63b8ff" d="M303.49,-322.23C291.83,-322.5 279.41,-322.57 267.39,-322.43"/>
<polygon fill="#63b8ff" stroke="#63b8ff" points="267.6,-318.93 257.54,-322.25 267.47,-325.93 267.6,-318.93"/>
</a>
</g>
</g>
</g>
</svg>
