<?xml version="1.0" encoding="UTF-8" standalone="no"?>
<!DOCTYPE svg PUBLIC "-//W3C//DTD SVG 1.1//EN"
 "http://www.w3.org/Graphics/SVG/1.1/DTD/svg11.dtd">
<!-- Generated by graphviz version 12.2.1 (20241206.2353)
 -->
<!-- Title: svg::radiate_glyph_and_id Pages: 1 -->
<svg width="1157pt" height="540pt"
 viewBox="0.00 0.00 1156.75 539.50" xmlns="http://www.w3.org/2000/svg" xmlns:xlink="http://www.w3.org/1999/xlink">
<g id="graph0" class="graph" transform="scale(1 1) rotate(0) translate(4 535.5)">
<title>svg::radiate_glyph_and_id</title>
<!-- Node1 -->
<g id="Node000001" class="node">
<title>Node1</title>
<g id="a_Node000001"><a xlink:title=" ">
<polygon fill="#999999" stroke="#666666" points="91.75,-396.5 0,-396.5 0,-369 91.75,-369 91.75,-396.5"/>
<text text-anchor="start" x="8" y="-384.9" font-family="SourceSans" font-size="8.00">svg::radiate_glyph</text>
<text text-anchor="middle" x="45.88" y="-375.15" font-family="SourceSans" font-size="8.00">_and_id</text>
</a>
</g>
</g>
<!-- Node2 -->
<g id="Node000002" class="node">
<title>Node2</title>
<g id="a_Node000002"><a xlink:href="namespacesvg.html#aa2776d975cfdb951b8dd6a8fac3d826b" target="_top" xlink:title="Approximate pixel height of type of point size @sz.">
<polygon fill="white" stroke="#666666" points="233.75,-463.62 127.75,-463.62 127.75,-445.88 233.75,-445.88 233.75,-463.62"/>
<text text-anchor="middle" x="180.75" y="-452.02" font-family="SourceSans" font-size="8.00">svg::char_width_to_px</text>
</a>
</g>
</g>
<!-- Node1&#45;&gt;Node2 -->
<g id="edge1_Node000001_Node000002" class="edge">
<title>Node1&#45;&gt;Node2</title>
<g id="a_edge1_Node000001_Node000002"><a xlink:title=" ">
<path fill="none" stroke="#63b8ff" d="M65.01,-396.83C80.88,-408.66 104.92,-425.41 127.75,-436.75 131.04,-438.39 134.52,-439.94 138.06,-441.39"/>
<polygon fill="#63b8ff" stroke="#63b8ff" points="136.69,-444.62 147.28,-444.92 139.19,-438.08 136.69,-444.62"/>
</a>
</g>
</g>
<!-- Node3 -->
<g id="Node000003" class="node">
<title>Node3</title>
<g id="a_Node000003"><a xlink:href="namespacesvg.html#af8550758c7d56d550efe4ea83fe21f5b" target="_top" xlink:title="Given identifier/name/id, get corresponding id_rstate from cache.">
<polygon fill="white" stroke="#666666" points="225.12,-427.62 136.38,-427.62 136.38,-409.88 225.12,-409.88 225.12,-427.62"/>
<text text-anchor="middle" x="180.75" y="-416.02" font-family="SourceSans" font-size="8.00">svg::get_id_rstate</text>
</a>
</g>
</g>
<!-- Node1&#45;&gt;Node3 -->
<g id="edge2_Node000001_Node000003" class="edge">
<title>Node1&#45;&gt;Node3</title>
<g id="a_edge2_Node000001_Node000003"><a xlink:title=" ">
<path fill="none" stroke="#63b8ff" d="M92.23,-395.04C105.86,-398.73 120.8,-402.78 134.43,-406.47"/>
<polygon fill="#63b8ff" stroke="#63b8ff" points="133.48,-409.84 144.04,-409.08 135.31,-403.08 133.48,-409.84"/>
</a>
</g>
</g>
<!-- Node5 -->
<g id="Node000005" class="node">
<title>Node5</title>
<g id="a_Node000005"><a xlink:href="structsvg_1_1render__state__base.html#aa16790fbf40ef61f416151c89c267ef3" target="_top" xlink:title=" ">
<polygon fill="white" stroke="#666666" points="387.38,-291.5 276.12,-291.5 276.12,-264 387.38,-264 387.38,-291.5"/>
<text text-anchor="start" x="284.12" y="-279.9" font-family="SourceSans" font-size="8.00">svg::render_state_base</text>
<text text-anchor="middle" x="331.75" y="-270.15" font-family="SourceSans" font-size="8.00">::is_visible</text>
</a>
</g>
</g>
<!-- Node1&#45;&gt;Node5 -->
<g id="edge4_Node000001_Node000005" class="edge">
<title>Node1&#45;&gt;Node5</title>
<g id="a_edge4_Node000001_Node000005"><a xlink:title=" ">
<path fill="none" stroke="#63b8ff" d="M85.16,-368.59C136.09,-349.75 226.19,-316.43 281.95,-295.8"/>
<polygon fill="#63b8ff" stroke="#63b8ff" points="283.04,-299.13 291.2,-292.38 280.61,-292.57 283.04,-299.13"/>
</a>
</g>
</g>
<!-- Node6 -->
<g id="Node000006" class="node">
<title>Node6</title>
<g id="a_Node000006"><a xlink:href="namespacesvg.html#a0a0dce44cf8a75daa516cdf9fade5a85" target="_top" xlink:title=" ">
<polygon fill="white" stroke="#666666" points="223.25,-391.62 138.25,-391.62 138.25,-373.88 223.25,-373.88 223.25,-391.62"/>
<text text-anchor="middle" x="180.75" y="-380.02" font-family="SourceSans" font-size="8.00">svg::radial_text_r</text>
</a>
</g>
</g>
<!-- Node1&#45;&gt;Node6 -->
<g id="edge5_Node000001_Node000006" class="edge">
<title>Node1&#45;&gt;Node6</title>
<g id="a_edge5_Node000001_Node000006"><a xlink:title=" ">
<path fill="none" stroke="#63b8ff" d="M92.23,-382.75C103.4,-382.75 115.45,-382.75 126.93,-382.75"/>
<polygon fill="#63b8ff" stroke="#63b8ff" points="126.66,-386.25 136.66,-382.75 126.66,-379.25 126.66,-386.25"/>
</a>
</g>
</g>
<!-- Node27 -->
<g id="Node000027" class="node">
<title>Node27</title>
<g id="a_Node000027"><a xlink:href="namespacesvg.html#a91699dd1391d7fe0f91ba98fde5b97a5" target="_top" xlink:title=" ">
<polygon fill="white" stroke="#666666" points="226.62,-209.62 134.88,-209.62 134.88,-191.88 226.62,-191.88 226.62,-209.62"/>
<text text-anchor="middle" x="180.75" y="-198.03" font-family="SourceSans" font-size="8.00">svg::radiate_glyph</text>
</a>
</g>
</g>
<!-- Node1&#45;&gt;Node27 -->
<g id="edge29_Node000001_Node000027" class="edge">
<title>Node1&#45;&gt;Node27</title>
<g id="a_edge29_Node000001_Node000027"><a xlink:title=" ">
<path fill="none" stroke="#63b8ff" d="M57.08,-368.77C80.86,-336.21 139.92,-255.31 166.46,-218.95"/>
<polygon fill="#63b8ff" stroke="#63b8ff" points="169.07,-221.32 172.14,-211.18 163.41,-217.19 169.07,-221.32"/>
</a>
</g>
</g>
<!-- Node4 -->
<g id="Node000004" class="node">
<title>Node4</title>
<g id="a_Node000004"><a xlink:href="namespacesvg.html#a96dce340dcdb9eed5deb3164b8bb5585" target="_top" xlink:title=" ">
<polygon fill="white" stroke="#666666" points="376.12,-531.5 287.38,-531.5 287.38,-504 376.12,-504 376.12,-531.5"/>
<text text-anchor="start" x="295.38" y="-519.9" font-family="SourceSans" font-size="8.00">svg::get_id_rstate</text>
<text text-anchor="middle" x="331.75" y="-510.15" font-family="SourceSans" font-size="8.00">_cache</text>
</a>
</g>
</g>
<!-- Node3&#45;&gt;Node4 -->
<g id="edge3_Node000003_Node000004" class="edge">
<title>Node3&#45;&gt;Node4</title>
<g id="a_edge3_Node000003_Node000004"><a xlink:title=" ">
<path fill="none" stroke="#63b8ff" d="M218.91,-428.07C224.21,-430.38 229.35,-433.23 233.75,-436.75 257.45,-455.69 246.31,-475.49 269.75,-494.75 272.09,-496.67 274.6,-498.44 277.23,-500.07"/>
<polygon fill="#63b8ff" stroke="#63b8ff" points="275.34,-503.03 285.81,-504.67 278.65,-496.86 275.34,-503.03"/>
</a>
</g>
</g>
<!-- Node7 -->
<g id="Node000007" class="node">
<title>Node7</title>
<g id="a_Node000007"><a xlink:href="namespacesvg.html#ab44508c4aeca591141ebec50145b75cd" target="_top" xlink:title="Angle in degrees.">
<polygon fill="white" stroke="#666666" points="387.38,-375.5 276.12,-375.5 276.12,-348 387.38,-348 387.38,-375.5"/>
<text text-anchor="start" x="284.12" y="-363.9" font-family="SourceSans" font-size="8.00">svg::get_circumference</text>
<text text-anchor="middle" x="331.75" y="-354.15" font-family="SourceSans" font-size="8.00">_point_d</text>
</a>
</g>
</g>
<!-- Node6&#45;&gt;Node7 -->
<g id="edge6_Node000006_Node000007" class="edge">
<title>Node6&#45;&gt;Node7</title>
<g id="a_edge6_Node000006_Node000007"><a xlink:title=" ">
<path fill="none" stroke="#63b8ff" d="M223.65,-376.84C236.42,-375.04 250.78,-373.02 264.74,-371.05"/>
<polygon fill="#63b8ff" stroke="#63b8ff" points="264.89,-374.57 274.31,-369.7 263.92,-367.63 264.89,-374.57"/>
</a>
</g>
</g>
<!-- Node9 -->
<g id="Node000009" class="node">
<title>Node9</title>
<g id="a_Node000009"><a xlink:href="namespacesvg.html#ae7eab6d9ce1f55bcbcc997cd24c5abcf" target="_top" xlink:title="Text with typography, arranged ccw around points (x,y) on a circle.">
<polygon fill="white" stroke="#666666" points="380.62,-485.62 282.88,-485.62 282.88,-467.88 380.62,-467.88 380.62,-485.62"/>
<text text-anchor="middle" x="331.75" y="-474.02" font-family="SourceSans" font-size="8.00">svg::radial_text_ccw</text>
</a>
</g>
</g>
<!-- Node6&#45;&gt;Node9 -->
<g id="edge8_Node000006_Node000009" class="edge">
<title>Node6&#45;&gt;Node9</title>
<g id="a_edge8_Node000006_Node000009"><a xlink:title=" ">
<path fill="none" stroke="#63b8ff" d="M218.91,-392.07C224.21,-394.38 229.35,-397.23 233.75,-400.75 257.45,-419.69 245.62,-440.36 269.75,-458.75 271.5,-460.08 273.34,-461.31 275.25,-462.45"/>
<polygon fill="#63b8ff" stroke="#63b8ff" points="273.42,-465.45 283.94,-466.76 276.53,-459.18 273.42,-465.45"/>
</a>
</g>
</g>
<!-- Node24 -->
<g id="Node000024" class="node">
<title>Node24</title>
<g id="a_Node000024"><a xlink:href="namespacesvg.html#a27b1041d0851178e4835e1f623a46161" target="_top" xlink:title="Text with typography, arranged cw around points (x,y) on a circle.">
<polygon fill="white" stroke="#666666" points="378.38,-449.62 285.12,-449.62 285.12,-431.88 378.38,-431.88 378.38,-449.62"/>
<text text-anchor="middle" x="331.75" y="-438.02" font-family="SourceSans" font-size="8.00">svg::radial_text_cw</text>
</a>
</g>
</g>
<!-- Node6&#45;&gt;Node24 -->
<g id="edge25_Node000006_Node000024" class="edge">
<title>Node6&#45;&gt;Node24</title>
<g id="a_edge25_Node000006_Node000024"><a xlink:title=" ">
<path fill="none" stroke="#63b8ff" d="M210.57,-392.1C218.17,-394.74 226.32,-397.72 233.75,-400.75 250.13,-407.43 253.46,-410.85 269.75,-417.75 277.56,-421.06 286.02,-424.4 294.09,-427.48"/>
<polygon fill="#63b8ff" stroke="#63b8ff" points="292.74,-430.71 303.33,-430.94 295.19,-424.15 292.74,-430.71"/>
</a>
</g>
</g>
<!-- Node25 -->
<g id="Node000025" class="node">
<title>Node25</title>
<g id="a_Node000025"><a xlink:href="namespacesvg.html#a010fea242a289d173d521b501140cd72" target="_top" xlink:title="Zero degrees is top, going clockwise (cw).">
<polygon fill="white" stroke="#666666" points="555.25,-327.62 429.75,-327.62 429.75,-309.88 555.25,-309.88 555.25,-327.62"/>
<text text-anchor="middle" x="492.5" y="-316.02" font-family="SourceSans" font-size="8.00">svg::zero_angle_north_ccw</text>
</a>
</g>
</g>
<!-- Node6&#45;&gt;Node25 -->
<g id="edge27_Node000006_Node000025" class="edge">
<title>Node6&#45;&gt;Node25</title>
<g id="a_edge27_Node000006_Node000025"><a xlink:title=" ">
<path fill="none" stroke="#63b8ff" d="M216.1,-392.04C259.81,-401.92 336.51,-412.64 393.75,-384.75 417.09,-373.38 408.47,-353.62 429.75,-338.75 433.14,-336.38 436.82,-334.28 440.64,-332.43"/>
<polygon fill="#63b8ff" stroke="#63b8ff" points="441.75,-335.76 449.6,-328.63 439.02,-329.31 441.75,-335.76"/>
</a>
</g>
</g>
<!-- Node26 -->
<g id="Node000026" class="node">
<title>Node26</title>
<g id="a_Node000026"><a xlink:href="namespacesvg.html#a46164d75fd5109e4ed8879abbacd5c11" target="_top" xlink:title="Zero degrees is top, going clockwise (cw).">
<polygon fill="white" stroke="#666666" points="553,-286.62 432,-286.62 432,-268.88 553,-268.88 553,-286.62"/>
<text text-anchor="middle" x="492.5" y="-275.02" font-family="SourceSans" font-size="8.00">svg::zero_angle_north_cw</text>
</a>
</g>
</g>
<!-- Node6&#45;&gt;Node26 -->
<g id="edge28_Node000006_Node000026" class="edge">
<title>Node6&#45;&gt;Node26</title>
<g id="a_edge28_Node000006_Node000026"><a xlink:title=" ">
<path fill="none" stroke="#63b8ff" d="M197.86,-373.49C215.18,-363.83 243.75,-348.72 269.75,-338.75 301.32,-326.65 388.15,-303.87 443.32,-289.83"/>
<polygon fill="#63b8ff" stroke="#63b8ff" points="443.94,-293.28 452.77,-287.43 442.22,-286.5 443.94,-293.28"/>
</a>
</g>
</g>
<!-- Node8 -->
<g id="Node000008" class="node">
<title>Node8</title>
<g id="a_Node000008"><a xlink:href="namespacesvg.html#aef05ac63d88a6102981d3faf37275297" target="_top" xlink:title="Angle in radians.">
<polygon fill="white" stroke="#666666" points="548.12,-375.5 436.88,-375.5 436.88,-348 548.12,-348 548.12,-375.5"/>
<text text-anchor="start" x="444.88" y="-363.9" font-family="SourceSans" font-size="8.00">svg::get_circumference</text>
<text text-anchor="middle" x="492.5" y="-354.15" font-family="SourceSans" font-size="8.00">_point_r</text>
</a>
</g>
</g>
<!-- Node7&#45;&gt;Node8 -->
<g id="edge7_Node000007_Node000008" class="edge">
<title>Node7&#45;&gt;Node8</title>
<g id="a_edge7_Node000007_Node000008"><a xlink:title=" ">
<path fill="none" stroke="#63b8ff" d="M387.83,-361.75C399.89,-361.75 412.79,-361.75 425.24,-361.75"/>
<polygon fill="#63b8ff" stroke="#63b8ff" points="425.01,-365.25 435.01,-361.75 425.01,-358.25 425.01,-365.25"/>
</a>
</g>
</g>
<!-- Node10 -->
<g id="Node000010" class="node">
<title>Node10</title>
<g id="a_Node000010"><a xlink:href="namespacesvg.html#ad3c5f59f86bb309de4efd1187e5c004b" target="_top" xlink:title="Text at.">
<polygon fill="white" stroke="#666666" points="535.75,-449.62 449.25,-449.62 449.25,-431.88 535.75,-431.88 535.75,-449.62"/>
<text text-anchor="middle" x="492.5" y="-438.02" font-family="SourceSans" font-size="8.00">svg::styled_text_r</text>
</a>
</g>
</g>
<!-- Node9&#45;&gt;Node10 -->
<g id="edge9_Node000009_Node000010" class="edge">
<title>Node9&#45;&gt;Node10</title>
<g id="a_edge9_Node000009_Node000010"><a xlink:title=" ">
<path fill="none" stroke="#63b8ff" d="M374.05,-467.39C393.98,-462.86 418.12,-457.39 439.31,-452.59"/>
<polygon fill="#63b8ff" stroke="#63b8ff" points="439.96,-456.03 448.94,-450.4 438.41,-449.2 439.96,-456.03"/>
</a>
</g>
</g>
<!-- Node11 -->
<g id="Node000011" class="node">
<title>Node11</title>
<g id="a_Node000011"><a xlink:href="group__elements.html#aad29e1daf75bdcd69a39575a6807fa0f" target="_top" xlink:title="Either serialize immediately (as below), or create data structure that adds data to data_vec and then...">
<polygon fill="white" stroke="#666666" points="698,-523.5 603.25,-523.5 603.25,-496 698,-496 698,-523.5"/>
<text text-anchor="start" x="611.25" y="-511.9" font-family="SourceSans" font-size="8.00">svg::text_element::</text>
<text text-anchor="middle" x="650.62" y="-502.15" font-family="SourceSans" font-size="8.00">add_data</text>
</a>
</g>
</g>
<!-- Node10&#45;&gt;Node11 -->
<g id="edge10_Node000010_Node000011" class="edge">
<title>Node10&#45;&gt;Node11</title>
<g id="a_edge10_Node000010_Node000011"><a xlink:title=" ">
<path fill="none" stroke="#63b8ff" d="M512.44,-450.11C532.01,-459.67 563.53,-474.78 591.25,-486.75 594.76,-488.26 598.4,-489.79 602.07,-491.31"/>
<polygon fill="#63b8ff" stroke="#63b8ff" points="600.44,-494.42 611.02,-494.94 603.07,-487.94 600.44,-494.42"/>
</a>
</g>
</g>
<!-- Node19 -->
<g id="Node000019" class="node">
<title>Node19</title>
<g id="a_Node000019"><a xlink:href="group__elements.html#ada0333b46b2547c6152f3f5811016a12" target="_top" xlink:title=" ">
<polygon fill="white" stroke="#666666" points="700.62,-229.5 600.62,-229.5 600.62,-202 700.62,-202 700.62,-229.5"/>
<text text-anchor="start" x="608.62" y="-217.9" font-family="SourceSans" font-size="8.00">svg::element_base::</text>
<text text-anchor="middle" x="650.62" y="-208.15" font-family="SourceSans" font-size="8.00">add_element</text>
</a>
</g>
</g>
<!-- Node10&#45;&gt;Node19 -->
<g id="edge20_Node000010_Node000019" class="edge">
<title>Node10&#45;&gt;Node19</title>
<g id="a_edge20_Node000010_Node000019"><a xlink:title=" ">
<path fill="none" stroke="#63b8ff" d="M508.03,-431.42C522.23,-421.54 543.39,-404.64 555.25,-384.75 589.49,-327.36 547.25,-289.06 591.25,-238.75 591.81,-238.1 592.4,-237.48 593,-236.87"/>
<polygon fill="#63b8ff" stroke="#63b8ff" points="594.95,-239.79 600.58,-230.82 590.58,-234.32 594.95,-239.79"/>
</a>
</g>
</g>
<!-- Node21 -->
<g id="Node000021" class="node">
<title>Node21</title>
<g id="a_Node000021"><a xlink:href="group__elements.html#ga13c46848317034d16c62a7d2061ba3d6" target="_top" xlink:title=" ">
<polygon fill="white" stroke="#666666" points="698,-477.5 603.25,-477.5 603.25,-450 698,-450 698,-477.5"/>
<text text-anchor="start" x="611.25" y="-465.9" font-family="SourceSans" font-size="8.00">svg::text_element::</text>
<text text-anchor="middle" x="650.62" y="-456.15" font-family="SourceSans" font-size="8.00">finish_element</text>
</a>
</g>
</g>
<!-- Node10&#45;&gt;Node21 -->
<g id="edge22_Node000010_Node000021" class="edge">
<title>Node10&#45;&gt;Node21</title>
<g id="a_edge22_Node000010_Node000021"><a xlink:title=" ">
<path fill="none" stroke="#63b8ff" d="M536.16,-447.03C553.28,-449.56 573.29,-452.5 591.69,-455.22"/>
<polygon fill="#63b8ff" stroke="#63b8ff" points="591,-458.65 601.4,-456.65 592.02,-451.73 591,-458.65"/>
</a>
</g>
</g>
<!-- Node22 -->
<g id="Node000022" class="node">
<title>Node22</title>
<g id="a_Node000022"><a xlink:href="structsvg_1_1transform.html#acf9836f4ba647f0dd2b53963a0f714d0" target="_top" xlink:title=" ">
<polygon fill="white" stroke="#666666" points="703.62,-385.62 597.62,-385.62 597.62,-367.88 703.62,-367.88 703.62,-385.62"/>
<text text-anchor="middle" x="650.62" y="-374.02" font-family="SourceSans" font-size="8.00">svg::transform::rotate</text>
</a>
</g>
</g>
<!-- Node10&#45;&gt;Node22 -->
<g id="edge23_Node000010_Node000022" class="edge">
<title>Node10&#45;&gt;Node22</title>
<g id="a_edge23_Node000010_Node000022"><a xlink:title=" ">
<path fill="none" stroke="#63b8ff" d="M511.19,-431.5C530.52,-421.61 562.57,-405.86 591.25,-394.75 595.94,-392.93 600.89,-391.17 605.85,-389.51"/>
<polygon fill="#63b8ff" stroke="#63b8ff" points="606.74,-392.9 615.18,-386.5 604.59,-386.24 606.74,-392.9"/>
</a>
</g>
</g>
<!-- Node23 -->
<g id="Node000023" class="node">
<title>Node23</title>
<g id="a_Node000023"><a xlink:href="group__elements.html#ae45bec611a6ec17ea46aab6d680ae042" target="_top" xlink:title=" ">
<polygon fill="white" stroke="#666666" points="698,-431.5 603.25,-431.5 603.25,-404 698,-404 698,-431.5"/>
<text text-anchor="start" x="611.25" y="-419.9" font-family="SourceSans" font-size="8.00">svg::text_element::</text>
<text text-anchor="middle" x="650.62" y="-410.15" font-family="SourceSans" font-size="8.00">start_element</text>
</a>
</g>
</g>
<!-- Node10&#45;&gt;Node23 -->
<g id="edge24_Node000010_Node000023" class="edge">
<title>Node10&#45;&gt;Node23</title>
<g id="a_edge24_Node000010_Node000023"><a xlink:title=" ">
<path fill="none" stroke="#63b8ff" d="M536.16,-434.47C553.28,-431.94 573.29,-429 591.69,-426.28"/>
<polygon fill="#63b8ff" stroke="#63b8ff" points="592.02,-429.77 601.4,-424.85 591,-422.85 592.02,-429.77"/>
</a>
</g>
</g>
<!-- Node12 -->
<g id="Node000012" class="node">
<title>Node12</title>
<g id="a_Node000012"><a xlink:href="structsvg_1_1typography.html#adbc62f74f1fed3f7c77567250f084f83" target="_top" xlink:title=" ">
<polygon fill="white" stroke="#666666" points="853.12,-481.5 749.38,-481.5 749.38,-454 853.12,-454 853.12,-481.5"/>
<text text-anchor="start" x="757.38" y="-469.9" font-family="SourceSans" font-size="8.00">svg::typography::add</text>
<text text-anchor="middle" x="801.25" y="-460.15" font-family="SourceSans" font-size="8.00">_attribute</text>
</a>
</g>
</g>
<!-- Node11&#45;&gt;Node12 -->
<g id="edge11_Node000011_Node000012" class="edge">
<title>Node11&#45;&gt;Node12</title>
<g id="a_edge11_Node000011_Node000012"><a xlink:title=" ">
<path fill="none" stroke="#63b8ff" d="M698.24,-496.58C711.21,-492.91 725.48,-488.88 739.15,-485.02"/>
<polygon fill="#63b8ff" stroke="#63b8ff" points="739.81,-488.47 748.48,-482.38 737.9,-481.73 739.81,-488.47"/>
</a>
</g>
</g>
<!-- Node13 -->
<g id="Node000013" class="node">
<title>Node13</title>
<g id="a_Node000013"><a xlink:href="namespacesvg.html#a48ac748e89e22789d1772326a98dd7b6" target="_top" xlink:title=" ">
<polygon fill="white" stroke="#666666" points="989.12,-434.62 895.88,-434.62 895.88,-416.88 989.12,-416.88 989.12,-434.62"/>
<text text-anchor="middle" x="942.5" y="-423.02" font-family="SourceSans" font-size="8.00">svg::string_replace</text>
</a>
</g>
</g>
<!-- Node11&#45;&gt;Node13 -->
<g id="edge18_Node000011_Node000013" class="edge">
<title>Node11&#45;&gt;Node13</title>
<g id="a_edge18_Node000011_Node000013"><a xlink:title=" ">
<path fill="none" stroke="#63b8ff" d="M694.66,-495.62C700.04,-493.05 705.3,-490.1 710,-486.75 730.03,-472.49 724.19,-456.09 746,-444.75 788.64,-422.58 843.57,-419.06 884.35,-420.38"/>
<polygon fill="#63b8ff" stroke="#63b8ff" points="884.06,-423.87 894.2,-420.81 884.37,-416.87 884.06,-423.87"/>
</a>
</g>
</g>
<!-- Node14 -->
<g id="Node000014" class="node">
<title>Node14</title>
<g id="a_Node000014"><a xlink:href="namespacesvg.html#a36b1c48ad4601b205790e3772ad0a7b6" target="_top" xlink:title=" ">
<polygon fill="white" stroke="#666666" points="978.25,-516.62 906.75,-516.62 906.75,-498.88 978.25,-498.88 978.25,-516.62"/>
<text text-anchor="middle" x="942.5" y="-505.02" font-family="SourceSans" font-size="8.00">svg::to_string</text>
</a>
</g>
</g>
<!-- Node11&#45;&gt;Node14 -->
<g id="edge19_Node000011_Node000014" class="edge">
<title>Node11&#45;&gt;Node14</title>
<g id="a_edge19_Node000011_Node000014"><a xlink:title=" ">
<path fill="none" stroke="#63b8ff" d="M698.2,-509.43C752.32,-509.06 841.1,-508.44 895.13,-508.07"/>
<polygon fill="#63b8ff" stroke="#63b8ff" points="894.95,-511.57 904.92,-508 894.9,-504.57 894.95,-511.57"/>
</a>
</g>
</g>
<!-- Node16 -->
<g id="Node000016" class="node">
<title>Node16</title>
<g id="a_Node000016"><a xlink:href="group__elements.html#acafbdd950c6c2639c9d376c3eab696e5" target="_top" xlink:title=" ">
<polygon fill="white" stroke="#666666" points="851.25,-355.5 751.25,-355.5 751.25,-328 851.25,-328 851.25,-355.5"/>
<text text-anchor="start" x="759.25" y="-343.9" font-family="SourceSans" font-size="8.00">svg::element_base::</text>
<text text-anchor="middle" x="801.25" y="-334.15" font-family="SourceSans" font-size="8.00">add_raw</text>
</a>
</g>
</g>
<!-- Node11&#45;&gt;Node16 -->
<g id="edge15_Node000011_Node000016" class="edge">
<title>Node11&#45;&gt;Node16</title>
<g id="a_edge15_Node000011_Node000016"><a xlink:title=" ">
<path fill="none" stroke="#63b8ff" d="M698.41,-495.94C702.68,-493.37 706.66,-490.33 710,-486.75 746.24,-447.9 712.64,-414.11 746,-372.75 749.15,-368.84 752.93,-365.34 757.02,-362.22"/>
<polygon fill="#63b8ff" stroke="#63b8ff" points="758.7,-365.3 765.05,-356.83 754.8,-359.49 758.7,-365.3"/>
</a>
</g>
</g>
<!-- Node17 -->
<g id="Node000017" class="node">
<title>Node17</title>
<g id="a_Node000017"><a xlink:href="group__elements.html#a53d72a7ff728ad1d4d027254530bcf3d" target="_top" xlink:title=" ">
<polygon fill="white" stroke="#666666" points="992.5,-259.5 892.5,-259.5 892.5,-232 992.5,-232 992.5,-259.5"/>
<text text-anchor="start" x="900.5" y="-247.9" font-family="SourceSans" font-size="8.00">svg::element_base::</text>
<text text-anchor="middle" x="942.5" y="-238.15" font-family="SourceSans" font-size="8.00">add_transform</text>
</a>
</g>
</g>
<!-- Node11&#45;&gt;Node17 -->
<g id="edge16_Node000011_Node000017" class="edge">
<title>Node11&#45;&gt;Node17</title>
<g id="a_edge16_Node000011_Node000017"><a xlink:title=" ">
<path fill="none" stroke="#63b8ff" d="M697.23,-495.66C701.83,-493.13 706.2,-490.19 710,-486.75 735.94,-463.28 720.83,-441.05 746,-416.75 785.05,-379.05 814.82,-399.52 856.5,-364.75 888.89,-337.74 915.03,-295.68 929.4,-269.47"/>
<polygon fill="#63b8ff" stroke="#63b8ff" points="932.32,-271.43 933.94,-260.96 926.15,-268.13 932.32,-271.43"/>
</a>
</g>
</g>
<!-- Node12&#45;&gt;Node13 -->
<g id="edge12_Node000012_Node000013" class="edge">
<title>Node12&#45;&gt;Node13</title>
<g id="a_edge12_Node000012_Node000013"><a xlink:title=" ">
<path fill="none" stroke="#63b8ff" d="M849.39,-453.53C865.81,-448.58 884.08,-443.07 900,-438.27"/>
<polygon fill="#63b8ff" stroke="#63b8ff" points="900.58,-441.75 909.15,-435.51 898.56,-435.05 900.58,-441.75"/>
</a>
</g>
</g>
<!-- Node12&#45;&gt;Node14 -->
<g id="edge13_Node000012_Node000014" class="edge">
<title>Node12&#45;&gt;Node14</title>
<g id="a_edge13_Node000012_Node000014"><a xlink:title=" ">
<path fill="none" stroke="#63b8ff" d="M851.74,-481.97C866.94,-486.33 883.54,-491.1 898.28,-495.34"/>
<polygon fill="#63b8ff" stroke="#63b8ff" points="897.11,-498.64 907.69,-498.04 899.04,-491.91 897.11,-498.64"/>
</a>
</g>
</g>
<!-- Node15 -->
<g id="Node000015" class="node">
<title>Node15</title>
<g id="a_Node000015"><a xlink:href="structsvg_1_1typography.html#a174c1ffb4e56214d71523ffe7e422561" target="_top" xlink:title=" ">
<polygon fill="white" stroke="#666666" points="990.62,-480.5 894.38,-480.5 894.38,-453 990.62,-453 990.62,-480.5"/>
<text text-anchor="start" x="902.38" y="-468.9" font-family="SourceSans" font-size="8.00">svg::typography::to</text>
<text text-anchor="middle" x="942.5" y="-459.15" font-family="SourceSans" font-size="8.00">_string</text>
</a>
</g>
</g>
<!-- Node12&#45;&gt;Node15 -->
<g id="edge14_Node000012_Node000015" class="edge">
<title>Node12&#45;&gt;Node15</title>
<g id="a_edge14_Node000012_Node000015"><a xlink:title=" ">
<path fill="none" stroke="#63b8ff" d="M853.31,-467.38C862.91,-467.31 873.01,-467.24 882.82,-467.17"/>
<polygon fill="#63b8ff" stroke="#63b8ff" points="882.66,-470.67 892.63,-467.1 882.61,-463.67 882.66,-470.67"/>
</a>
</g>
</g>
<!-- Node18 -->
<g id="Node000018" class="node">
<title>Node18</title>
<g id="a_Node000018"><a xlink:href="group__elements.html#ae50258851ebbaf08c7eebc3fbdbf1ac8" target="_top" xlink:title="Common transforms include rotate(180)">
<polygon fill="white" stroke="#666666" points="1148.75,-259.5 1028.5,-259.5 1028.5,-232 1148.75,-232 1148.75,-259.5"/>
<text text-anchor="start" x="1036.5" y="-247.9" font-family="SourceSans" font-size="8.00">svg::element_base::</text>
<text text-anchor="middle" x="1088.62" y="-238.15" font-family="SourceSans" font-size="8.00">make_transform_attribute</text>
</a>
</g>
</g>
<!-- Node17&#45;&gt;Node18 -->
<g id="edge17_Node000017_Node000018" class="edge">
<title>Node17&#45;&gt;Node18</title>
<g id="a_edge17_Node000017_Node000018"><a xlink:title=" ">
<path fill="none" stroke="#63b8ff" d="M992.7,-245.75C1000.46,-245.75 1008.61,-245.75 1016.74,-245.75"/>
<polygon fill="#63b8ff" stroke="#63b8ff" points="1016.67,-249.25 1026.67,-245.75 1016.67,-242.25 1016.67,-249.25"/>
</a>
</g>
</g>
<!-- Node20 -->
<g id="Node000020" class="node">
<title>Node20</title>
<g id="a_Node000020"><a xlink:href="group__elements.html#ad893ef9c13a15464c96d8a85c08af30f" target="_top" xlink:title=" ">
<polygon fill="white" stroke="#666666" points="856.5,-247.62 746,-247.62 746,-229.88 856.5,-229.88 856.5,-247.62"/>
<text text-anchor="middle" x="801.25" y="-236.03" font-family="SourceSans" font-size="8.00">svg::element_base::str</text>
</a>
</g>
</g>
<!-- Node19&#45;&gt;Node20 -->
<g id="edge21_Node000019_Node000020" class="edge">
<title>Node19&#45;&gt;Node20</title>
<g id="a_edge21_Node000019_Node000020"><a xlink:title=" ">
<path fill="none" stroke="#63b8ff" d="M701.11,-223.41C711.82,-225.07 723.3,-226.84 734.51,-228.58"/>
<polygon fill="#63b8ff" stroke="#63b8ff" points="733.69,-231.99 744.11,-230.06 734.76,-225.07 733.69,-231.99"/>
</a>
</g>
</g>
<!-- Node24&#45;&gt;Node10 -->
<g id="edge26_Node000024_Node000010" class="edge">
<title>Node24&#45;&gt;Node10</title>
<g id="a_edge26_Node000024_Node000010"><a xlink:title=" ">
<path fill="none" stroke="#63b8ff" d="M378.67,-440.75C397.11,-440.75 418.49,-440.75 437.66,-440.75"/>
<polygon fill="#63b8ff" stroke="#63b8ff" points="437.43,-444.25 447.43,-440.75 437.43,-437.25 437.43,-444.25"/>
</a>
</g>
</g>
<!-- Node27&#45;&gt;Node5 -->
<g id="edge47_Node000027_Node000005" class="edge">
<title>Node27&#45;&gt;Node5</title>
<g id="a_edge47_Node000027_Node000005"><a xlink:title=" ">
<path fill="none" stroke="#63b8ff" d="M195.01,-210C211.86,-221.47 242.06,-241.19 269.75,-254.75 272.85,-256.27 276.08,-257.75 279.36,-259.19"/>
<polygon fill="#63b8ff" stroke="#63b8ff" points="277.96,-262.4 288.54,-263.01 280.65,-255.93 277.96,-262.4"/>
</a>
</g>
</g>
<!-- Node27&#45;&gt;Node7 -->
<g id="edge34_Node000027_Node000007" class="edge">
<title>Node27&#45;&gt;Node7</title>
<g id="a_edge34_Node000027_Node000007"><a xlink:title=" ">
<path fill="none" stroke="#63b8ff" d="M189.57,-210.02C204.7,-227.89 239.21,-268.2 269.75,-300.75 282.2,-314.02 296.58,-328.44 308.24,-339.92"/>
<polygon fill="#63b8ff" stroke="#63b8ff" points="305.52,-342.15 315.11,-346.65 310.41,-337.15 305.52,-342.15"/>
</a>
</g>
</g>
<!-- Node28 -->
<g id="Node000028" class="node">
<title>Node28</title>
<g id="a_Node000028"><a xlink:href="namespacesvg.html#a6b1624bb42af7e9269fc6088e6a26fd7" target="_top" xlink:title="Adjust angle above to CW/CCW orientation.">
<polygon fill="white" stroke="#666666" points="393.75,-245.62 269.75,-245.62 269.75,-227.88 393.75,-227.88 393.75,-245.62"/>
<text text-anchor="middle" x="331.75" y="-234.03" font-family="SourceSans" font-size="8.00">svg::adjust_angle_rotation</text>
</a>
</g>
</g>
<!-- Node27&#45;&gt;Node28 -->
<g id="edge30_Node000027_Node000028" class="edge">
<title>Node27&#45;&gt;Node28</title>
<g id="a_edge30_Node000027_Node000028"><a xlink:title=" ">
<path fill="none" stroke="#63b8ff" d="M220.51,-210.11C239.05,-214.59 261.46,-220.01 281.22,-224.78"/>
<polygon fill="#63b8ff" stroke="#63b8ff" points="280.17,-228.13 290.71,-227.08 281.82,-221.33 280.17,-228.13"/>
</a>
</g>
</g>
<!-- Node29 -->
<g id="Node000029" class="node">
<title>Node29</title>
<g id="a_Node000029"><a xlink:href="namespacesvg.html#a8049c9c931294d04d25967268d85d226" target="_top" xlink:title="Import svg file, convert it to svg_element for insertion. ifile is a plain SVG file with a 1:1 aspect...">
<polygon fill="white" stroke="#666666" points="384.75,-97.62 278.75,-97.62 278.75,-79.88 384.75,-79.88 384.75,-97.62"/>
<text text-anchor="middle" x="331.75" y="-86.03" font-family="SourceSans" font-size="8.00">svg::file_to_svg_insert</text>
</a>
</g>
</g>
<!-- Node27&#45;&gt;Node29 -->
<g id="edge33_Node000027_Node000029" class="edge">
<title>Node27&#45;&gt;Node29</title>
<g id="a_edge33_Node000027_Node000029"><a xlink:title=" ">
<path fill="none" stroke="#63b8ff" d="M188.72,-191.38C202.42,-173.57 234.57,-134.59 269.75,-111.75 275.28,-108.16 281.46,-105.01 287.7,-102.29"/>
<polygon fill="#63b8ff" stroke="#63b8ff" points="288.77,-105.63 296.75,-98.67 286.17,-99.13 288.77,-105.63"/>
</a>
</g>
</g>
<!-- Node30 -->
<g id="Node000030" class="node">
<title>Node30</title>
<g id="a_Node000030"><a xlink:href="namespacesvg.html#a1a3bf270598169ec9826a0e19ea9e758" target="_top" xlink:title="Get the label space. Value &#45;&gt; Name, as a string where value has labelspaces of fill NB: Should be the...">
<polygon fill="white" stroke="#666666" points="385.12,-61.62 278.38,-61.62 278.38,-43.88 385.12,-43.88 385.12,-61.62"/>
<text text-anchor="middle" x="331.75" y="-50.02" font-family="SourceSans" font-size="8.00">svg::get_label_spaces</text>
</a>
</g>
</g>
<!-- Node27&#45;&gt;Node30 -->
<g id="edge35_Node000027_Node000030" class="edge">
<title>Node27&#45;&gt;Node30</title>
<g id="a_edge35_Node000027_Node000030"><a xlink:title=" ">
<path fill="none" stroke="#63b8ff" d="M185.32,-191.6C195.06,-167.87 224.43,-103.89 269.75,-70.75 271.55,-69.43 273.46,-68.21 275.43,-67.07"/>
<polygon fill="#63b8ff" stroke="#63b8ff" points="276.88,-70.26 284.37,-62.77 273.85,-63.95 276.88,-70.26"/>
</a>
</g>
</g>
<!-- Node31 -->
<g id="Node000031" class="node">
<title>Node31</title>
<g id="a_Node000031"><a xlink:href="namespacesvg.html#acf3b42875f3a4e7bee10c21670c166cc" target="_top" xlink:title="The smallest (sattelite) radius size allowed in a kusama orbit.">
<polygon fill="white" stroke="#666666" points="385.88,-209.62 277.62,-209.62 277.62,-191.88 385.88,-191.88 385.88,-209.62"/>
<text text-anchor="middle" x="331.75" y="-198.03" font-family="SourceSans" font-size="8.00">svg::get_min_ring_size</text>
</a>
</g>
</g>
<!-- Node27&#45;&gt;Node31 -->
<g id="edge36_Node000027_Node000031" class="edge">
<title>Node27&#45;&gt;Node31</title>
<g id="a_edge36_Node000027_Node000031"><a xlink:title=" ">
<path fill="none" stroke="#63b8ff" d="M226.86,-200.75C239.12,-200.75 252.63,-200.75 265.75,-200.75"/>
<polygon fill="#63b8ff" stroke="#63b8ff" points="265.63,-204.25 275.63,-200.75 265.63,-197.25 265.63,-204.25"/>
</a>
</g>
</g>
<!-- Node32 -->
<g id="Node000032" class="node">
<title>Node32</title>
<g id="a_Node000032"><a xlink:href="namespacesvg.html#a0aae5e63973d0526fe0dbdda0b371ec8" target="_top" xlink:title="Embed svg in group element.">
<polygon fill="white" stroke="#666666" points="537.25,-225.62 447.75,-225.62 447.75,-207.88 537.25,-207.88 537.25,-225.62"/>
<text text-anchor="middle" x="492.5" y="-214.03" font-family="SourceSans" font-size="8.00">svg::insert_svg_at</text>
</a>
</g>
</g>
<!-- Node27&#45;&gt;Node32 -->
<g id="edge37_Node000027_Node000032" class="edge">
<title>Node27&#45;&gt;Node32</title>
<g id="a_edge37_Node000027_Node000032"><a xlink:title=" ">
<path fill="none" stroke="#63b8ff" d="M218.75,-191.45C234.38,-187.98 252.84,-184.46 269.75,-182.75 324.58,-177.2 339.41,-173.57 393.75,-182.75 416.85,-186.65 441.78,-195.4 460.69,-203.05"/>
<polygon fill="#63b8ff" stroke="#63b8ff" points="459.08,-206.17 469.66,-206.79 461.78,-199.71 459.08,-206.17"/>
</a>
</g>
</g>
<!-- Node39 -->
<g id="Node000039" class="node">
<title>Node39</title>
<g id="a_Node000039"><a xlink:href="namespacesvg.html#a1d16cd376f9fdb4745bff0d7a1971927" target="_top" xlink:title="Draws a circle around a point (x,y), of style (s), of radius (r).">
<polygon fill="white" stroke="#666666" points="539.88,-134.62 445.12,-134.62 445.12,-116.88 539.88,-116.88 539.88,-134.62"/>
<text text-anchor="middle" x="492.5" y="-123.03" font-family="SourceSans" font-size="8.00">svg::point_to_circle</text>
</a>
</g>
</g>
<!-- Node27&#45;&gt;Node39 -->
<g id="edge48_Node000027_Node000039" class="edge">
<title>Node27&#45;&gt;Node39</title>
<g id="a_edge48_Node000027_Node000039"><a xlink:title=" ">
<path fill="none" stroke="#63b8ff" d="M208.51,-191.47C225.84,-185.66 248.98,-178.24 269.75,-172.75 324.87,-158.18 388.63,-145.04 433.59,-136.39"/>
<polygon fill="#63b8ff" stroke="#63b8ff" points="434.24,-139.83 443.4,-134.52 432.92,-132.95 434.24,-139.83"/>
</a>
</g>
</g>
<!-- Node28&#45;&gt;Node25 -->
<g id="edge31_Node000028_Node000025" class="edge">
<title>Node28&#45;&gt;Node25</title>
<g id="a_edge31_Node000028_Node000025"><a xlink:title=" ">
<path fill="none" stroke="#63b8ff" d="M375.77,-246.09C382.06,-248.4 388.26,-251.24 393.75,-254.75 414.18,-267.81 409.78,-281.99 429.75,-295.75 435.06,-299.41 441.03,-302.57 447.1,-305.28"/>
<polygon fill="#63b8ff" stroke="#63b8ff" points="445.35,-308.35 455.93,-308.85 447.97,-301.86 445.35,-308.35"/>
</a>
</g>
</g>
<!-- Node28&#45;&gt;Node26 -->
<g id="edge32_Node000028_Node000026" class="edge">
<title>Node28&#45;&gt;Node26</title>
<g id="a_edge32_Node000028_Node000026"><a xlink:title=" ">
<path fill="none" stroke="#63b8ff" d="M368.77,-246.05C391.12,-251.83 420.09,-259.31 444.26,-265.55"/>
<polygon fill="#63b8ff" stroke="#63b8ff" points="443.32,-268.92 453.88,-268.03 445.07,-262.14 443.32,-268.92"/>
</a>
</g>
</g>
<!-- Node32&#45;&gt;Node16 -->
<g id="edge39_Node000032_Node000016" class="edge">
<title>Node32&#45;&gt;Node16</title>
<g id="a_edge39_Node000032_Node000016"><a xlink:title=" ">
<path fill="none" stroke="#63b8ff" d="M510.72,-226C524.02,-233.75 542.28,-245.77 555.25,-259.75 576.66,-282.83 564.73,-303.79 591.25,-320.75 635.2,-348.85 695.29,-352.1 739.76,-349.51"/>
<polygon fill="#63b8ff" stroke="#63b8ff" points="739.76,-353.01 749.49,-348.81 739.26,-346.03 739.76,-353.01"/>
</a>
</g>
</g>
<!-- Node32&#45;&gt;Node19 -->
<g id="edge38_Node000032_Node000019" class="edge">
<title>Node32&#45;&gt;Node19</title>
<g id="a_edge38_Node000032_Node000019"><a xlink:title=" ">
<path fill="none" stroke="#63b8ff" d="M537.4,-216.47C553.46,-216.37 571.92,-216.25 589.16,-216.14"/>
<polygon fill="#63b8ff" stroke="#63b8ff" points="588.79,-219.64 598.77,-216.08 588.75,-212.64 588.79,-219.64"/>
</a>
</g>
</g>
<!-- Node32&#45;&gt;Node22 -->
<g id="edge42_Node000032_Node000022" class="edge">
<title>Node32&#45;&gt;Node22</title>
<g id="a_edge42_Node000032_Node000022"><a xlink:title=" ">
<path fill="none" stroke="#63b8ff" d="M512.53,-226.05C526.07,-233.51 543.82,-245.14 555.25,-259.75 582.82,-294.98 559.77,-321.97 591.25,-353.75 594.57,-357.1 598.44,-359.98 602.57,-362.44"/>
<polygon fill="#63b8ff" stroke="#63b8ff" points="600.72,-365.43 611.22,-366.8 603.87,-359.18 600.72,-365.43"/>
</a>
</g>
</g>
<!-- Node33 -->
<g id="Node000033" class="node">
<title>Node33</title>
<g id="a_Node000033"><a xlink:href="group__elements.html#gaab139e518fe9d07003dbcc1fdfdad955" target="_top" xlink:title=" ">
<polygon fill="white" stroke="#666666" points="699.12,-275.5 602.12,-275.5 602.12,-248 699.12,-248 699.12,-275.5"/>
<text text-anchor="start" x="610.12" y="-263.9" font-family="SourceSans" font-size="8.00">svg::group_element</text>
<text text-anchor="middle" x="650.62" y="-254.15" font-family="SourceSans" font-size="8.00">::finish_element</text>
</a>
</g>
</g>
<!-- Node32&#45;&gt;Node33 -->
<g id="edge40_Node000032_Node000033" class="edge">
<title>Node32&#45;&gt;Node33</title>
<g id="a_edge40_Node000032_Node000033"><a xlink:title=" ">
<path fill="none" stroke="#63b8ff" d="M525.85,-226.07C544.65,-231.49 568.9,-238.48 590.95,-244.84"/>
<polygon fill="#63b8ff" stroke="#63b8ff" points="589.87,-248.17 600.45,-247.58 591.81,-241.44 589.87,-248.17"/>
</a>
</g>
</g>
<!-- Node35 -->
<g id="Node000035" class="node">
<title>Node35</title>
<g id="a_Node000035"><a xlink:href="structsvg_1_1transform.html#a9053c6d65a0bf6f82e4c85a71cc42079" target="_top" xlink:title=" ">
<polygon fill="white" stroke="#666666" points="702.5,-311.62 598.75,-311.62 598.75,-293.88 702.5,-293.88 702.5,-311.62"/>
<text text-anchor="middle" x="650.62" y="-300.02" font-family="SourceSans" font-size="8.00">svg::transform::scale</text>
</a>
</g>
</g>
<!-- Node32&#45;&gt;Node35 -->
<g id="edge43_Node000032_Node000035" class="edge">
<title>Node32&#45;&gt;Node35</title>
<g id="a_edge43_Node000032_Node000035"><a xlink:title=" ">
<path fill="none" stroke="#63b8ff" d="M506.64,-225.9C533.23,-244.42 590.96,-284.61 591.25,-284.75 594.79,-286.47 598.53,-288.08 602.34,-289.56"/>
<polygon fill="#63b8ff" stroke="#63b8ff" points="601.12,-292.84 611.72,-292.9 603.47,-286.25 601.12,-292.84"/>
</a>
</g>
</g>
<!-- Node36 -->
<g id="Node000036" class="node">
<title>Node36</title>
<g id="a_Node000036"><a xlink:href="group__elements.html#a5c8c4f93df6e84523f788aa7f98bcab8" target="_top" xlink:title="For groups of elements that have the same name.">
<polygon fill="white" stroke="#666666" points="699.12,-183.5 602.12,-183.5 602.12,-156 699.12,-156 699.12,-183.5"/>
<text text-anchor="start" x="610.12" y="-171.9" font-family="SourceSans" font-size="8.00">svg::group_element</text>
<text text-anchor="middle" x="650.62" y="-162.15" font-family="SourceSans" font-size="8.00">::start_element</text>
</a>
</g>
</g>
<!-- Node32&#45;&gt;Node36 -->
<g id="edge44_Node000032_Node000036" class="edge">
<title>Node32&#45;&gt;Node36</title>
<g id="a_edge44_Node000032_Node000036"><a xlink:title=" ">
<path fill="none" stroke="#63b8ff" d="M524.35,-207.46C543.51,-201.69 568.77,-194.09 591.58,-187.23"/>
<polygon fill="#63b8ff" stroke="#63b8ff" points="592.52,-190.6 601.09,-184.36 590.51,-183.89 592.52,-190.6"/>
</a>
</g>
</g>
<!-- Node38 -->
<g id="Node000038" class="node">
<title>Node38</title>
<g id="a_Node000038"><a xlink:href="structsvg_1_1transform.html#a0c20aee54dbd3136799b17e12d3cb718" target="_top" xlink:title=" ">
<polygon fill="white" stroke="#666666" points="710,-137.62 591.25,-137.62 591.25,-119.88 710,-119.88 710,-137.62"/>
<text text-anchor="middle" x="650.62" y="-126.03" font-family="SourceSans" font-size="8.00">svg::transform::translate</text>
</a>
</g>
</g>
<!-- Node32&#45;&gt;Node38 -->
<g id="edge46_Node000032_Node000038" class="edge">
<title>Node32&#45;&gt;Node38</title>
<g id="a_edge46_Node000032_Node000038"><a xlink:title=" ">
<path fill="none" stroke="#63b8ff" d="M503.9,-207.54C521.01,-192.82 556.65,-163.9 591.25,-146.75 594.73,-145.03 598.41,-143.43 602.15,-141.95"/>
<polygon fill="#63b8ff" stroke="#63b8ff" points="603.15,-145.31 611.37,-138.64 600.78,-138.73 603.15,-145.31"/>
</a>
</g>
</g>
<!-- Node34 -->
<g id="Node000034" class="node">
<title>Node34</title>
<g id="a_Node000034"><a xlink:href="group__elements.html#a71cf2eb89a562527f14c4ca4c027c2b9" target="_top" xlink:title=" ">
<polygon fill="white" stroke="#666666" points="849.75,-293.5 752.75,-293.5 752.75,-266 849.75,-266 849.75,-293.5"/>
<text text-anchor="start" x="760.75" y="-281.9" font-family="SourceSans" font-size="8.00">svg::group_element</text>
<text text-anchor="middle" x="801.25" y="-272.15" font-family="SourceSans" font-size="8.00">::finish_group</text>
</a>
</g>
</g>
<!-- Node33&#45;&gt;Node34 -->
<g id="edge41_Node000033_Node000034" class="edge">
<title>Node33&#45;&gt;Node34</title>
<g id="a_edge41_Node000033_Node000034"><a xlink:title=" ">
<path fill="none" stroke="#63b8ff" d="M699.47,-267.54C712.73,-269.15 727.28,-270.91 741.1,-272.59"/>
<polygon fill="#63b8ff" stroke="#63b8ff" points="740.64,-276.06 750.99,-273.78 741.49,-269.11 740.64,-276.06"/>
</a>
</g>
</g>
<!-- Node37 -->
<g id="Node000037" class="node">
<title>Node37</title>
<g id="a_Node000037"><a xlink:href="group__elements.html#ab84e1bc08d2d2a71ab05521af65d7585" target="_top" xlink:title=" ">
<polygon fill="white" stroke="#666666" points="849.75,-211.5 752.75,-211.5 752.75,-184 849.75,-184 849.75,-211.5"/>
<text text-anchor="start" x="760.75" y="-199.9" font-family="SourceSans" font-size="8.00">svg::group_element</text>
<text text-anchor="middle" x="801.25" y="-190.15" font-family="SourceSans" font-size="8.00">::start_group</text>
</a>
</g>
</g>
<!-- Node36&#45;&gt;Node37 -->
<g id="edge45_Node000036_Node000037" class="edge">
<title>Node36&#45;&gt;Node37</title>
<g id="a_edge45_Node000036_Node000037"><a xlink:title=" ">
<path fill="none" stroke="#63b8ff" d="M699.47,-178.76C712.86,-181.29 727.57,-184.06 741.52,-186.68"/>
<polygon fill="#63b8ff" stroke="#63b8ff" points="740.53,-190.06 751.01,-188.47 741.83,-183.18 740.53,-190.06"/>
</a>
</g>
</g>
<!-- Node39&#45;&gt;Node19 -->
<g id="edge49_Node000039_Node000019" class="edge">
<title>Node39&#45;&gt;Node19</title>
<g id="a_edge49_Node000039_Node000019"><a xlink:title=" ">
<path fill="none" stroke="#63b8ff" d="M504.99,-134.91C522.72,-148.73 558.18,-175.19 591.25,-192.75 593.95,-194.19 596.77,-195.58 599.63,-196.93"/>
<polygon fill="#63b8ff" stroke="#63b8ff" points="598.2,-200.12 608.76,-200.99 601.04,-193.73 598.2,-200.12"/>
</a>
</g>
</g>
<!-- Node40 -->
<g id="Node000040" class="node">
<title>Node40</title>
<g id="a_Node000040"><a xlink:href="namespacesvg.html#a0229229c74c571ea3f45a653e8dd7e53" target="_top" xlink:title="Make circle element.">
<polygon fill="white" stroke="#666666" points="692.38,-101.62 608.88,-101.62 608.88,-83.88 692.38,-83.88 692.38,-101.62"/>
<text text-anchor="middle" x="650.62" y="-90.03" font-family="SourceSans" font-size="8.00">svg::make_circle</text>
</a>
</g>
</g>
<!-- Node39&#45;&gt;Node40 -->
<g id="edge50_Node000039_Node000040" class="edge">
<title>Node39&#45;&gt;Node40</title>
<g id="a_edge50_Node000039_Node000040"><a xlink:title=" ">
<path fill="none" stroke="#63b8ff" d="M537.82,-116.38C556.36,-112.46 578.04,-107.88 597.35,-103.8"/>
<polygon fill="#63b8ff" stroke="#63b8ff" points="597.87,-107.27 606.93,-101.78 596.42,-100.42 597.87,-107.27"/>
</a>
</g>
</g>
<!-- Node41 -->
<g id="Node000041" class="node">
<title>Node41</title>
<g id="a_Node000041"><a xlink:href="group__elements.html#a519382631540ecedee961bfb53e9ae87" target="_top" xlink:title=" ">
<polygon fill="white" stroke="#666666" points="849,-119.5 753.5,-119.5 753.5,-92 849,-92 849,-119.5"/>
<text text-anchor="start" x="761.5" y="-107.9" font-family="SourceSans" font-size="8.00">svg::circle_element</text>
<text text-anchor="middle" x="801.25" y="-98.15" font-family="SourceSans" font-size="8.00">::add_data</text>
</a>
</g>
</g>
<!-- Node40&#45;&gt;Node41 -->
<g id="edge51_Node000040_Node000041" class="edge">
<title>Node40&#45;&gt;Node41</title>
<g id="a_edge51_Node000040_Node000041"><a xlink:title=" ">
<path fill="none" stroke="#63b8ff" d="M692.63,-96.34C707.85,-97.67 725.42,-99.2 741.89,-100.65"/>
<polygon fill="#63b8ff" stroke="#63b8ff" points="741.3,-104.11 751.57,-101.49 741.91,-97.13 741.3,-104.11"/>
</a>
</g>
</g>
<!-- Node42 -->
<g id="Node000042" class="node">
<title>Node42</title>
<g id="a_Node000042"><a xlink:href="group__elements.html#a238b38ca99a1cf6c2baf80c8e4338d99" target="_top" xlink:title=" ">
<polygon fill="white" stroke="#666666" points="851.25,-165.5 751.25,-165.5 751.25,-138 851.25,-138 851.25,-165.5"/>
<text text-anchor="start" x="759.25" y="-153.9" font-family="SourceSans" font-size="8.00">svg::element_base::</text>
<text text-anchor="middle" x="801.25" y="-144.15" font-family="SourceSans" font-size="8.00">add_style</text>
</a>
</g>
</g>
<!-- Node40&#45;&gt;Node42 -->
<g id="edge54_Node000040_Node000042" class="edge">
<title>Node40&#45;&gt;Node42</title>
<g id="a_edge54_Node000040_Node000042"><a xlink:title=" ">
<path fill="none" stroke="#63b8ff" d="M685.29,-102.1C693.47,-104.65 702.13,-107.59 710,-110.75 726.6,-117.41 729.76,-121.26 746,-128.75 749.1,-130.18 752.32,-131.63 755.57,-133.07"/>
<polygon fill="#63b8ff" stroke="#63b8ff" points="754.01,-136.21 764.57,-136.99 756.8,-129.79 754.01,-136.21"/>
</a>
</g>
</g>
<!-- Node43 -->
<g id="Node000043" class="node">
<title>Node43</title>
<g id="a_Node000043"><a xlink:href="group__elements.html#ga98a1538c46e39122d8199c12b3a57b5d" target="_top" xlink:title=" ">
<polygon fill="white" stroke="#666666" points="849,-27.5 753.5,-27.5 753.5,0 849,0 849,-27.5"/>
<text text-anchor="start" x="761.5" y="-15.9" font-family="SourceSans" font-size="8.00">svg::circle_element</text>
<text text-anchor="middle" x="801.25" y="-6.15" font-family="SourceSans" font-size="8.00">::finish_element</text>
</a>
</g>
</g>
<!-- Node40&#45;&gt;Node43 -->
<g id="edge56_Node000040_Node000043" class="edge">
<title>Node40&#45;&gt;Node43</title>
<g id="a_edge56_Node000040_Node000043"><a xlink:title=" ">
<path fill="none" stroke="#63b8ff" d="M665.99,-83.4C684.21,-71.74 716.76,-51.54 746,-36.75 748.73,-35.37 751.56,-34 754.44,-32.65"/>
<polygon fill="#63b8ff" stroke="#63b8ff" points="755.86,-35.85 763.54,-28.54 752.98,-29.47 755.86,-35.85"/>
</a>
</g>
</g>
<!-- Node44 -->
<g id="Node000044" class="node">
<title>Node44</title>
<g id="a_Node000044"><a xlink:href="group__elements.html#a793cb6b40b2aea335b11f14fd327cde8" target="_top" xlink:title=" ">
<polygon fill="white" stroke="#666666" points="849,-73.5 753.5,-73.5 753.5,-46 849,-46 849,-73.5"/>
<text text-anchor="start" x="761.5" y="-61.9" font-family="SourceSans" font-size="8.00">svg::circle_element</text>
<text text-anchor="middle" x="801.25" y="-52.15" font-family="SourceSans" font-size="8.00">::start_element</text>
</a>
</g>
</g>
<!-- Node40&#45;&gt;Node44 -->
<g id="edge57_Node000040_Node000044" class="edge">
<title>Node40&#45;&gt;Node44</title>
<g id="a_edge57_Node000040_Node000044"><a xlink:title=" ">
<path fill="none" stroke="#63b8ff" d="M692.63,-83.65C707.85,-80.27 725.42,-76.37 741.89,-72.71"/>
<polygon fill="#63b8ff" stroke="#63b8ff" points="742.59,-76.14 751.6,-70.55 741.08,-69.3 742.59,-76.14"/>
</a>
</g>
</g>
<!-- Node41&#45;&gt;Node13 -->
<g id="edge53_Node000041_Node000013" class="edge">
<title>Node41&#45;&gt;Node13</title>
<g id="a_edge53_Node000041_Node000013"><a xlink:title=" ">
<path fill="none" stroke="#63b8ff" d="M846.2,-119.93C850.03,-122.42 853.56,-125.34 856.5,-128.75 898.41,-177.44 874.92,-206.95 892.5,-268.75 906.64,-318.48 925.29,-376.4 935,-406.05"/>
<polygon fill="#63b8ff" stroke="#63b8ff" points="931.54,-406.75 937.99,-415.16 938.19,-404.57 931.54,-406.75"/>
</a>
</g>
</g>
<!-- Node41&#45;&gt;Node17 -->
<g id="edge52_Node000041_Node000017" class="edge">
<title>Node41&#45;&gt;Node17</title>
<g id="a_edge52_Node000041_Node000017"><a xlink:title=" ">
<path fill="none" stroke="#63b8ff" d="M842.76,-119.98C847.63,-122.52 852.34,-125.44 856.5,-128.75 888.83,-154.45 914.71,-195.43 929.08,-221.45"/>
<polygon fill="#63b8ff" stroke="#63b8ff" points="925.99,-223.1 933.8,-230.25 932.16,-219.79 925.99,-223.1"/>
</a>
</g>
</g>
<!-- Node42&#45;&gt;Node14 -->
<g id="edge55_Node000042_Node000014" class="edge">
<title>Node42&#45;&gt;Node14</title>
<g id="a_edge55_Node000042_Node000014"><a xlink:title=" ">
<path fill="none" stroke="#63b8ff" d="M847.21,-165.88C850.74,-168.38 853.93,-171.31 856.5,-174.75 940.85,-287.62 805.41,-378.98 892.5,-489.75 893.89,-491.51 895.46,-493.1 897.18,-494.54"/>
<polygon fill="#63b8ff" stroke="#63b8ff" points="895.08,-497.36 905.42,-499.69 898.79,-491.42 895.08,-497.36"/>
</a>
</g>
</g>
</g>
</svg>
