<?xml version="1.0" encoding="UTF-8" standalone="no"?>
<!DOCTYPE svg PUBLIC "-//W3C//DTD SVG 1.1//EN"
 "http://www.w3.org/Graphics/SVG/1.1/DTD/svg11.dtd">
<!-- Generated by graphviz version 12.2.1 (20241206.2353)
 -->
<!-- Title: svg::stack_ids_at Pages: 1 -->
<!--zoomable 377 -->

<svg id="main" version="1.1" xmlns="http://www.w3.org/2000/svg" xmlns:xlink="http://www.w3.org/1999/xlink" xml:space="preserve" onload="init(evt)">

<style type="text/css"><![CDATA[
.node, .edge {opacity: 0.7;}
.node.selected, .edge.selected {opacity: 1;}
.edge:hover path { stroke: red; }
.edge:hover polygon { stroke: red; fill: red; }
]]></style>

<defs>
  <circle id="rim" cx="0" cy="0" r="7"/>
  <circle id="rim2" cx="0" cy="0" r="3.5"/>
  <g id="zoomPlus">
    <use xlink:href="#rim" fill="#404040"><set attributeName="fill" to="#808080" begin="zoomplus.mouseover" end="zoomplus.mouseout"/></use>
    <path d="M-4,0h8M0,-4v8" fill="none" stroke="white" stroke-width="1.5" pointer-events="none"/>
  </g>
  <g id="zoomMin">
    <use xlink:href="#rim" fill="#404040"><set attributeName="fill" to="#808080" begin="zoomminus.mouseover" end="zoomminus.mouseout"/></use>
    <path d="M-4,0h8" fill="none" stroke="white" stroke-width="1.5" pointer-events="none"/>
  </g>
  <g id="arrowUp" transform="translate(30 24)">
    <use xlink:href="#rim"/>
    <path pointer-events="none" fill="none" stroke="white" stroke-width="1.5" d="M0,-3.0v7 M-2.5,-0.5L0,-3.0L2.5,-0.5"/>
  </g>
  <g id="arrowRight" transform="rotate(90) translate(36 -43)">
    <use xlink:href="#rim"/>
    <path pointer-events="none" fill="none" stroke="white" stroke-width="1.5" d="M0,-3.0v7 M-2.5,-0.5L0,-3.0L2.5,-0.5"/>
  </g>
  <g id="arrowDown" transform="rotate(180) translate(-30 -48)">
    <use xlink:href="#rim"/>
    <path pointer-events="none" fill="none" stroke="white" stroke-width="1.5" d="M0,-3.0v7 M-2.5,-0.5L0,-3.0L2.5,-0.5"/>
  </g>
  <g id="arrowLeft" transform="rotate(270) translate(-36 17)">
    <use xlink:href="#rim"/>
    <path pointer-events="none" fill="none" stroke="white" stroke-width="1.5" d="M0,-3.0v7 M-2.5,-0.5L0,-3.0L2.5,-0.5"/>
  </g>
  <g id="resetDef">
    <use xlink:href="#rim2" fill="#404040"><set attributeName="fill" to="#808080" begin="reset.mouseover" end="reset.mouseout"/></use>
  </g>
</defs>
<script type="application/ecmascript">
var viewWidth = 891;
var viewHeight = 377;
var sectionId = 'dynsection-55';
</script>
<script type="application/ecmascript" xlink:href="svg.min.js"/>
<svg id="graph" class="graph">
<g id="viewport">
<title>svg::stack_ids_at</title>
<!-- Node1 -->
<g id="Node000001" class="node">
<title>Node1</title>
<g id="a_Node000001"><a xlink:title="Rotate and stack ids at origin point, extending radius for each from point of origin.">
<polygon fill="#999999" stroke="#666666" points="79,-96 0,-96 0,-76 79,-76 79,-96"/>
<text text-anchor="middle" x="39.5" y="-84.4" font-family="SourceSans" font-size="8.00">svg::stack_ids_at</text>
</a>
</g>
</g>
<!-- Node2 -->
<g id="Node000002" class="node">
<title>Node2</title>
<g id="a_Node000002"><a xlink:href="namespacesvg.html#a0a0dce44cf8a75daa516cdf9fade5a85" target="_top" xlink:title=" ">
<polygon fill="white" stroke="#666666" points="195.5,-96 115,-96 115,-76 195.5,-76 195.5,-96"/>
<text text-anchor="middle" x="155.25" y="-84.4" font-family="SourceSans" font-size="8.00">svg::radial_text_r</text>
</a>
</g>
</g>
<!-- Node1&#45;&gt;Node2 -->
<g id="edge1_Node000001_Node000002" class="edge">
<title>Node1&#45;&gt;Node2</title>
<g id="a_edge1_Node000001_Node000002"><a xlink:title=" ">
<path fill="none" stroke="#63b8ff" d="M79.33,-86C87.11,-86 95.4,-86 103.53,-86"/>
<polygon fill="#63b8ff" stroke="#63b8ff" points="103.31,-89.5 113.31,-86 103.31,-82.5 103.31,-89.5"/>
</a>
</g>
</g>
<!-- Node3 -->
<g id="Node000003" class="node">
<title>Node3</title>
<g id="a_Node000003"><a xlink:href="namespacesvg.html#ab44508c4aeca591141ebec50145b75cd" target="_top" xlink:title="Angle in degrees.">
<polygon fill="white" stroke="#666666" points="341.62,-184 237.88,-184 237.88,-152 341.62,-152 341.62,-184"/>
<text text-anchor="start" x="245.88" y="-172.4" font-family="SourceSans" font-size="8.00">svg::get_circumference</text>
<text text-anchor="middle" x="289.75" y="-160.4" font-family="SourceSans" font-size="8.00">_point_d</text>
</a>
</g>
</g>
<!-- Node2&#45;&gt;Node3 -->
<g id="edge2_Node000002_Node000003" class="edge">
<title>Node2&#45;&gt;Node3</title>
<g id="a_edge2_Node000002_Node000003"><a xlink:title=" ">
<path fill="none" stroke="#63b8ff" d="M167.88,-96.21C182.17,-108.4 207.46,-128.92 231.5,-143 233.51,-144.18 235.59,-145.33 237.7,-146.46"/>
<polygon fill="#63b8ff" stroke="#63b8ff" points="235.95,-149.5 246.46,-150.86 239.09,-143.25 235.95,-149.5"/>
</a>
</g>
</g>
<!-- Node5 -->
<g id="Node000005" class="node">
<title>Node5</title>
<g id="a_Node000005"><a xlink:href="namespacesvg.html#ae7eab6d9ce1f55bcbcc997cd24c5abcf" target="_top" xlink:title="Text with typography, arranged ccw around points (x,y) on a circle.">
<polygon fill="white" stroke="#666666" points="335.25,-134 244.25,-134 244.25,-114 335.25,-114 335.25,-134"/>
<text text-anchor="middle" x="289.75" y="-122.4" font-family="SourceSans" font-size="8.00">svg::radial_text_ccw</text>
</a>
</g>
</g>
<!-- Node2&#45;&gt;Node5 -->
<g id="edge4_Node000002_Node000005" class="edge">
<title>Node2&#45;&gt;Node5</title>
<g id="a_edge4_Node000002_Node000005"><a xlink:title=" ">
<path fill="none" stroke="#63b8ff" d="M192.81,-96.48C207.87,-100.8 225.51,-105.86 241.53,-110.46"/>
<polygon fill="#63b8ff" stroke="#63b8ff" points="240.28,-113.74 250.86,-113.13 242.21,-107.01 240.28,-113.74"/>
</a>
</g>
</g>
<!-- Node19 -->
<g id="Node000019" class="node">
<title>Node19</title>
<g id="a_Node000019"><a xlink:href="namespacesvg.html#a27b1041d0851178e4835e1f623a46161" target="_top" xlink:title="Text with typography, arranged cw around points (x,y) on a circle.">
<polygon fill="white" stroke="#666666" points="333.38,-96 246.12,-96 246.12,-76 333.38,-76 333.38,-96"/>
<text text-anchor="middle" x="289.75" y="-84.4" font-family="SourceSans" font-size="8.00">svg::radial_text_cw</text>
</a>
</g>
</g>
<!-- Node2&#45;&gt;Node19 -->
<g id="edge20_Node000002_Node000019" class="edge">
<title>Node2&#45;&gt;Node19</title>
<g id="a_edge20_Node000002_Node000019"><a xlink:title=" ">
<path fill="none" stroke="#63b8ff" d="M195.65,-86C207.92,-86 221.67,-86 234.76,-86"/>
<polygon fill="#63b8ff" stroke="#63b8ff" points="234.53,-89.5 244.53,-86 234.53,-82.5 234.53,-89.5"/>
</a>
</g>
</g>
<!-- Node20 -->
<g id="Node000020" class="node">
<title>Node20</title>
<g id="a_Node000020"><a xlink:href="namespacesvg.html#a010fea242a289d173d521b501140cd72" target="_top" xlink:title="Zero degrees is top, going clockwise (cw).">
<polygon fill="white" stroke="#666666" points="348,-58 231.5,-58 231.5,-38 348,-38 348,-58"/>
<text text-anchor="middle" x="289.75" y="-46.4" font-family="SourceSans" font-size="8.00">svg::zero_angle_north_ccw</text>
</a>
</g>
</g>
<!-- Node2&#45;&gt;Node20 -->
<g id="edge22_Node000002_Node000020" class="edge">
<title>Node2&#45;&gt;Node20</title>
<g id="a_edge22_Node000002_Node000020"><a xlink:title=" ">
<path fill="none" stroke="#63b8ff" d="M192.81,-75.52C207.87,-71.2 225.51,-66.14 241.53,-61.54"/>
<polygon fill="#63b8ff" stroke="#63b8ff" points="242.21,-64.99 250.86,-58.87 240.28,-58.26 242.21,-64.99"/>
</a>
</g>
</g>
<!-- Node21 -->
<g id="Node000021" class="node">
<title>Node21</title>
<g id="a_Node000021"><a xlink:href="namespacesvg.html#a46164d75fd5109e4ed8879abbacd5c11" target="_top" xlink:title="Zero degrees is top, going clockwise (cw).">
<polygon fill="white" stroke="#666666" points="346.12,-20 233.38,-20 233.38,0 346.12,0 346.12,-20"/>
<text text-anchor="middle" x="289.75" y="-8.4" font-family="SourceSans" font-size="8.00">svg::zero_angle_north_cw</text>
</a>
</g>
</g>
<!-- Node2&#45;&gt;Node21 -->
<g id="edge23_Node000002_Node000021" class="edge">
<title>Node2&#45;&gt;Node21</title>
<g id="a_edge23_Node000002_Node000021"><a xlink:title=" ">
<path fill="none" stroke="#63b8ff" d="M167.18,-75.86C181.16,-63.34 206.55,-42.13 231.5,-29 234.51,-27.42 237.67,-25.93 240.91,-24.54"/>
<polygon fill="#63b8ff" stroke="#63b8ff" points="241.93,-27.9 249.96,-20.99 239.37,-21.39 241.93,-27.9"/>
</a>
</g>
</g>
<!-- Node4 -->
<g id="Node000004" class="node">
<title>Node4</title>
<g id="a_Node000004"><a xlink:href="namespacesvg.html#aef05ac63d88a6102981d3faf37275297" target="_top" xlink:title="Angle in radians.">
<polygon fill="white" stroke="#666666" points="487.75,-184 384,-184 384,-152 487.75,-152 487.75,-184"/>
<text text-anchor="start" x="392" y="-172.4" font-family="SourceSans" font-size="8.00">svg::get_circumference</text>
<text text-anchor="middle" x="435.88" y="-160.4" font-family="SourceSans" font-size="8.00">_point_r</text>
</a>
</g>
</g>
<!-- Node3&#45;&gt;Node4 -->
<g id="edge3_Node000003_Node000004" class="edge">
<title>Node3&#45;&gt;Node4</title>
<g id="a_edge3_Node000003_Node000004"><a xlink:title=" ">
<path fill="none" stroke="#63b8ff" d="M341.97,-168C351.84,-168 362.29,-168 372.48,-168"/>
<polygon fill="#63b8ff" stroke="#63b8ff" points="372.31,-171.5 382.31,-168 372.31,-164.5 372.31,-171.5"/>
</a>
</g>
</g>
<!-- Node6 -->
<g id="Node000006" class="node">
<title>Node6</title>
<g id="a_Node000006"><a xlink:href="namespacesvg.html#ad3c5f59f86bb309de4efd1187e5c004b" target="_top" xlink:title="Text at.">
<polygon fill="white" stroke="#666666" points="476.5,-115 395.25,-115 395.25,-95 476.5,-95 476.5,-115"/>
<text text-anchor="middle" x="435.88" y="-103.4" font-family="SourceSans" font-size="8.00">svg::styled_text_r</text>
</a>
</g>
</g>
<!-- Node5&#45;&gt;Node6 -->
<g id="edge5_Node000005_Node000006" class="edge">
<title>Node5&#45;&gt;Node6</title>
<g id="a_edge5_Node000005_Node000006"><a xlink:title=" ">
<path fill="none" stroke="#63b8ff" d="M335.56,-118.09C350.86,-116.08 368.07,-113.81 383.82,-111.73"/>
<polygon fill="#63b8ff" stroke="#63b8ff" points="384.02,-115.23 393.48,-110.46 383.1,-108.29 384.02,-115.23"/>
</a>
</g>
</g>
<!-- Node7 -->
<g id="Node000007" class="node">
<title>Node7</title>
<g id="a_Node000007"><a xlink:href="group__elements.html#aad29e1daf75bdcd69a39575a6807fa0f" target="_top" xlink:title="Either serialize immediately (as below), or create data structure that adds data to data_vec and then...">
<polygon fill="white" stroke="#666666" points="616.62,-265 528.62,-265 528.62,-233 616.62,-233 616.62,-265"/>
<text text-anchor="start" x="536.62" y="-253.4" font-family="SourceSans" font-size="8.00">svg::text_element::</text>
<text text-anchor="middle" x="572.62" y="-241.4" font-family="SourceSans" font-size="8.00">add_data</text>
</a>
</g>
</g>
<!-- Node6&#45;&gt;Node7 -->
<g id="edge6_Node000006_Node000007" class="edge">
<title>Node6&#45;&gt;Node7</title>
<g id="a_edge6_Node000006_Node000007"><a xlink:title=" ">
<path fill="none" stroke="#63b8ff" d="M452.85,-115.33C463.32,-122.48 477,-132.55 487.75,-143 513.54,-168.08 538.52,-201.14 554.42,-223.62"/>
<polygon fill="#63b8ff" stroke="#63b8ff" points="551.39,-225.41 559.98,-231.61 557.13,-221.4 551.39,-225.41"/>
</a>
</g>
</g>
<!-- Node14 -->
<g id="Node000014" class="node">
<title>Node14</title>
<g id="a_Node000014"><a xlink:href="group__elements.html#ada0333b46b2547c6152f3f5811016a12" target="_top" xlink:title=" ">
<polygon fill="white" stroke="#666666" points="618.12,-171 527.12,-171 527.12,-139 618.12,-139 618.12,-171"/>
<text text-anchor="start" x="535.12" y="-159.4" font-family="SourceSans" font-size="8.00">svg::element_base::</text>
<text text-anchor="middle" x="572.62" y="-147.4" font-family="SourceSans" font-size="8.00">add_element</text>
</a>
</g>
</g>
<!-- Node6&#45;&gt;Node14 -->
<g id="edge15_Node000006_Node000014" class="edge">
<title>Node6&#45;&gt;Node14</title>
<g id="a_edge15_Node000006_Node000014"><a xlink:title=" ">
<path fill="none" stroke="#63b8ff" d="M465.12,-115.48C480.01,-121.01 498.81,-127.98 516.45,-134.53"/>
<polygon fill="#63b8ff" stroke="#63b8ff" points="515.22,-137.8 525.82,-138 517.66,-131.24 515.22,-137.8"/>
</a>
</g>
</g>
<!-- Node16 -->
<g id="Node000016" class="node">
<title>Node16</title>
<g id="a_Node000016"><a xlink:href="group__elements.html#ga13c46848317034d16c62a7d2061ba3d6" target="_top" xlink:title=" ">
<polygon fill="white" stroke="#666666" points="616.62,-121 528.62,-121 528.62,-89 616.62,-89 616.62,-121"/>
<text text-anchor="start" x="536.62" y="-109.4" font-family="SourceSans" font-size="8.00">svg::text_element::</text>
<text text-anchor="middle" x="572.62" y="-97.4" font-family="SourceSans" font-size="8.00">finish_element</text>
</a>
</g>
</g>
<!-- Node6&#45;&gt;Node16 -->
<g id="edge17_Node000006_Node000016" class="edge">
<title>Node6&#45;&gt;Node16</title>
<g id="a_edge17_Node000006_Node000016"><a xlink:title=" ">
<path fill="none" stroke="#63b8ff" d="M476.94,-105C489.42,-105 503.41,-105 516.72,-105"/>
<polygon fill="#63b8ff" stroke="#63b8ff" points="516.68,-108.5 526.68,-105 516.68,-101.5 516.68,-108.5"/>
</a>
</g>
</g>
<!-- Node17 -->
<g id="Node000017" class="node">
<title>Node17</title>
<g id="a_Node000017"><a xlink:href="structsvg_1_1transform.html#acf9836f4ba647f0dd2b53963a0f714d0" target="_top" xlink:title=" ">
<polygon fill="white" stroke="#666666" points="621.5,-71 523.75,-71 523.75,-51 621.5,-51 621.5,-71"/>
<text text-anchor="middle" x="572.62" y="-59.4" font-family="SourceSans" font-size="8.00">svg::transform::rotate</text>
</a>
</g>
</g>
<!-- Node6&#45;&gt;Node17 -->
<g id="edge18_Node000006_Node000017" class="edge">
<title>Node6&#45;&gt;Node17</title>
<g id="a_edge18_Node000006_Node000017"><a xlink:title=" ">
<path fill="none" stroke="#63b8ff" d="M468.81,-94.57C486.85,-88.68 509.63,-81.24 529.16,-74.87"/>
<polygon fill="#63b8ff" stroke="#63b8ff" points="530.06,-78.25 538.48,-71.82 527.89,-71.6 530.06,-78.25"/>
</a>
</g>
</g>
<!-- Node18 -->
<g id="Node000018" class="node">
<title>Node18</title>
<g id="a_Node000018"><a xlink:href="group__elements.html#ae45bec611a6ec17ea46aab6d680ae042" target="_top" xlink:title=" ">
<polygon fill="white" stroke="#666666" points="616.62,-33 528.62,-33 528.62,-1 616.62,-1 616.62,-33"/>
<text text-anchor="start" x="536.62" y="-21.4" font-family="SourceSans" font-size="8.00">svg::text_element::</text>
<text text-anchor="middle" x="572.62" y="-9.4" font-family="SourceSans" font-size="8.00">start_element</text>
</a>
</g>
</g>
<!-- Node6&#45;&gt;Node18 -->
<g id="edge19_Node000006_Node000018" class="edge">
<title>Node6&#45;&gt;Node18</title>
<g id="a_edge19_Node000006_Node000018"><a xlink:title=" ">
<path fill="none" stroke="#63b8ff" d="M450,-94.55C466.65,-81.51 496.5,-58.87 523.75,-42 525.37,-41 527.03,-40 528.72,-39.01"/>
<polygon fill="#63b8ff" stroke="#63b8ff" points="530.25,-42.16 537.24,-34.2 526.82,-36.06 530.25,-42.16"/>
</a>
</g>
</g>
<!-- Node8 -->
<g id="Node000008" class="node">
<title>Node8</title>
<g id="a_Node000008"><a xlink:href="structsvg_1_1typography.html#adbc62f74f1fed3f7c77567250f084f83" target="_top" xlink:title=" ">
<polygon fill="white" stroke="#666666" points="756,-331 659.75,-331 659.75,-299 756,-299 756,-331"/>
<text text-anchor="start" x="667.75" y="-319.4" font-family="SourceSans" font-size="8.00">svg::typography::add</text>
<text text-anchor="middle" x="707.88" y="-307.4" font-family="SourceSans" font-size="8.00">_attribute</text>
</a>
</g>
</g>
<!-- Node7&#45;&gt;Node8 -->
<g id="edge7_Node000007_Node000008" class="edge">
<title>Node7&#45;&gt;Node8</title>
<g id="a_edge7_Node000007_Node000008"><a xlink:title=" ">
<path fill="none" stroke="#63b8ff" d="M606.91,-265.48C624.13,-274.01 645.35,-284.53 663.81,-293.67"/>
<polygon fill="#63b8ff" stroke="#63b8ff" points="662.15,-296.75 672.66,-298.05 665.25,-290.48 662.15,-296.75"/>
</a>
</g>
</g>
<!-- Node9 -->
<g id="Node000009" class="node">
<title>Node9</title>
<g id="a_Node000009"><a xlink:href="namespacesvg.html#a48ac748e89e22789d1772326a98dd7b6" target="_top" xlink:title=" ">
<polygon fill="white" stroke="#666666" points="882.25,-369 795,-369 795,-349 882.25,-349 882.25,-369"/>
<text text-anchor="middle" x="838.62" y="-357.4" font-family="SourceSans" font-size="8.00">svg::string_replace</text>
</a>
</g>
</g>
<!-- Node7&#45;&gt;Node9 -->
<g id="edge13_Node000007_Node000009" class="edge">
<title>Node7&#45;&gt;Node9</title>
<g id="a_edge13_Node000007_Node000009"><a xlink:title=" ">
<path fill="none" stroke="#63b8ff" d="M583.41,-265.5C597.04,-286.79 623.9,-323.12 657.5,-340 696.59,-359.64 746.38,-363.54 783.71,-363.02"/>
<polygon fill="#63b8ff" stroke="#63b8ff" points="783.45,-366.53 793.35,-362.76 783.26,-359.53 783.45,-366.53"/>
</a>
</g>
</g>
<!-- Node10 -->
<g id="Node000010" class="node">
<title>Node10</title>
<g id="a_Node000010"><a xlink:href="namespacesvg.html#a36b1c48ad4601b205790e3772ad0a7b6" target="_top" xlink:title=" ">
<polygon fill="white" stroke="#666666" points="872.12,-281 805.12,-281 805.12,-261 872.12,-261 872.12,-281"/>
<text text-anchor="middle" x="838.62" y="-269.4" font-family="SourceSans" font-size="8.00">svg::to_string</text>
</a>
</g>
</g>
<!-- Node7&#45;&gt;Node10 -->
<g id="edge14_Node000007_Node000010" class="edge">
<title>Node7&#45;&gt;Node10</title>
<g id="a_edge14_Node000007_Node000010"><a xlink:title=" ">
<path fill="none" stroke="#63b8ff" d="M616.92,-252.61C665.68,-256.67 744.48,-263.24 793.55,-267.33"/>
<polygon fill="#63b8ff" stroke="#63b8ff" points="792.98,-270.79 803.24,-268.13 793.56,-263.82 792.98,-270.79"/>
</a>
</g>
</g>
<!-- Node12 -->
<g id="Node000012" class="node">
<title>Node12</title>
<g id="a_Node000012"><a xlink:href="group__elements.html#a1ed006cabdb9c531c2bd8e27ea9e0966" target="_top" xlink:title=" ">
<polygon fill="white" stroke="#666666" points="751.88,-243 663.88,-243 663.88,-211 751.88,-211 751.88,-243"/>
<text text-anchor="start" x="671.88" y="-231.4" font-family="SourceSans" font-size="8.00">svg::text_element::</text>
<text text-anchor="middle" x="707.88" y="-219.4" font-family="SourceSans" font-size="8.00">add_text</text>
</a>
</g>
</g>
<!-- Node7&#45;&gt;Node12 -->
<g id="edge11_Node000007_Node000012" class="edge">
<title>Node7&#45;&gt;Node12</title>
<g id="a_edge11_Node000007_Node000012"><a xlink:title=" ">
<path fill="none" stroke="#63b8ff" d="M616.89,-241.86C628.29,-239.97 640.74,-237.92 652.64,-235.95"/>
<polygon fill="#63b8ff" stroke="#63b8ff" points="653.04,-239.44 662.34,-234.35 651.9,-232.53 653.04,-239.44"/>
</a>
</g>
</g>
<!-- Node13 -->
<g id="Node000013" class="node">
<title>Node13</title>
<g id="a_Node000013"><a xlink:href="group__elements.html#a53d72a7ff728ad1d4d027254530bcf3d" target="_top" xlink:title="Common transforms include rotate(180)">
<polygon fill="white" stroke="#666666" points="753.38,-193 662.38,-193 662.38,-161 753.38,-161 753.38,-193"/>
<text text-anchor="start" x="670.38" y="-181.4" font-family="SourceSans" font-size="8.00">svg::element_base::</text>
<text text-anchor="middle" x="707.88" y="-169.4" font-family="SourceSans" font-size="8.00">add_transform</text>
</a>
</g>
</g>
<!-- Node7&#45;&gt;Node13 -->
<g id="edge12_Node000007_Node000013" class="edge">
<title>Node7&#45;&gt;Node13</title>
<g id="a_edge12_Node000007_Node000013"><a xlink:title=" ">
<path fill="none" stroke="#63b8ff" d="M602.19,-232.6C618.33,-223.43 638.94,-211.89 657.5,-202 659.55,-200.91 661.66,-199.79 663.79,-198.68"/>
<polygon fill="#63b8ff" stroke="#63b8ff" points="665.22,-201.88 672.5,-194.18 662.01,-195.66 665.22,-201.88"/>
</a>
</g>
</g>
<!-- Node8&#45;&gt;Node9 -->
<g id="edge8_Node000008_Node000009" class="edge">
<title>Node8&#45;&gt;Node9</title>
<g id="a_edge8_Node000008_Node000009"><a xlink:title=" ">
<path fill="none" stroke="#63b8ff" d="M756.45,-331.26C769.53,-335.73 783.6,-340.54 796.29,-344.87"/>
<polygon fill="#63b8ff" stroke="#63b8ff" points="795,-348.13 805.6,-348.05 797.27,-341.51 795,-348.13"/>
</a>
</g>
</g>
<!-- Node8&#45;&gt;Node10 -->
<g id="edge9_Node000008_Node000010" class="edge">
<title>Node8&#45;&gt;Node10</title>
<g id="a_edge9_Node000008_Node000010"><a xlink:title=" ">
<path fill="none" stroke="#63b8ff" d="M756.45,-298.74C769.53,-294.27 783.6,-289.46 796.29,-285.13"/>
<polygon fill="#63b8ff" stroke="#63b8ff" points="797.27,-288.49 805.6,-281.95 795,-281.87 797.27,-288.49"/>
</a>
</g>
</g>
<!-- Node11 -->
<g id="Node000011" class="node">
<title>Node11</title>
<g id="a_Node000011"><a xlink:href="structsvg_1_1typography.html#a174c1ffb4e56214d71523ffe7e422561" target="_top" xlink:title=" ">
<polygon fill="white" stroke="#666666" points="883,-331 794.25,-331 794.25,-299 883,-299 883,-331"/>
<text text-anchor="start" x="802.25" y="-319.4" font-family="SourceSans" font-size="8.00">svg::typography::to</text>
<text text-anchor="middle" x="838.62" y="-307.4" font-family="SourceSans" font-size="8.00">_string</text>
</a>
</g>
</g>
<!-- Node8&#45;&gt;Node11 -->
<g id="edge10_Node000008_Node000011" class="edge">
<title>Node8&#45;&gt;Node11</title>
<g id="a_edge10_Node000008_Node000011"><a xlink:title=" ">
<path fill="none" stroke="#63b8ff" d="M756.45,-315C765.02,-315 774.01,-315 782.77,-315"/>
<polygon fill="#63b8ff" stroke="#63b8ff" points="782.56,-318.5 792.56,-315 782.56,-311.5 782.56,-318.5"/>
</a>
</g>
</g>
<!-- Node15 -->
<g id="Node000015" class="node">
<title>Node15</title>
<g id="a_Node000015"><a xlink:href="group__elements.html#ad893ef9c13a15464c96d8a85c08af30f" target="_top" xlink:title=" ">
<polygon fill="white" stroke="#666666" points="758.25,-143 657.5,-143 657.5,-123 758.25,-123 758.25,-143"/>
<text text-anchor="middle" x="707.88" y="-131.4" font-family="SourceSans" font-size="8.00">svg::element_base::str</text>
</a>
</g>
</g>
<!-- Node14&#45;&gt;Node15 -->
<g id="edge16_Node000014_Node000015" class="edge">
<title>Node14&#45;&gt;Node15</title>
<g id="a_edge16_Node000014_Node000015"><a xlink:title=" ">
<path fill="none" stroke="#63b8ff" d="M618.37,-147.61C627.29,-146.14 636.8,-144.57 646.16,-143.02"/>
<polygon fill="#63b8ff" stroke="#63b8ff" points="646.65,-146.49 655.95,-141.41 645.51,-139.58 646.65,-146.49"/>
</a>
</g>
</g>
<!-- Node19&#45;&gt;Node6 -->
<g id="edge21_Node000019_Node000006" class="edge">
<title>Node19&#45;&gt;Node6</title>
<g id="a_edge21_Node000019_Node000006"><a xlink:title=" ">
<path fill="none" stroke="#63b8ff" d="M333.6,-91.65C349.38,-93.73 367.4,-96.11 383.83,-98.27"/>
<polygon fill="#63b8ff" stroke="#63b8ff" points="383.03,-101.7 393.4,-99.53 383.94,-94.76 383.03,-101.7"/>
</a>
</g>
</g>
</g>
</svg>

<g id="navigator" transform="translate(0 0)" fill="#404254">
  <rect fill="#f2f5e9" fill-opacity="0.5" stroke="#606060" stroke-width=".5" x="0" y="0" width="60" height="60"/>
  <use id="zoomplus" xlink:href="#zoomPlus" x="17" y="9" onmousedown="handleZoom(evt,'in')"/>
  <use id="zoomminus" xlink:href="#zoomMin" x="42" y="9" onmousedown="handleZoom(evt,'out')"/>
  <use id="reset" xlink:href="#resetDef" x="30" y="36" onmousedown="handleReset()"/>
   <use id="arrowup" xlink:href="#arrowUp" x="0" y="0" onmousedown="handlePan(0,-1)"/>
  <use id="arrowright" xlink:href="#arrowRight" x="0" y="0" onmousedown="handlePan(1,0)"/>
  <use id="arrowdown" xlink:href="#arrowDown" x="0" y="0" onmousedown="handlePan(0,1)"/>
  <use id="arrowleft" xlink:href="#arrowLeft" x="0" y="0" onmousedown="handlePan(-1,0)"/>
</g>
<svg viewBox="0 0 15 15" width="100%" height="30px" preserveAspectRatio="xMaxYMin meet">
 <g id="arrow_out" transform="scale(0.3 0.3)">
  <a xlink:href="namespacesvg_ae052cd57e2e5d8237d0a0287516da2ea_cgraph_org.svg" target="_base">
   <rect id="button" ry="5" rx="5" y="6" x="6" height="38" width="38"
        fill="#f2f5e9" fill-opacity="0.5" stroke="#606060" stroke-width="1.0"/>
   <path id="arrow"
     d="M 11.500037,31.436501 C 11.940474,20.09759 22.043105,11.32322 32.158766,21.979434 L 37.068811,17.246167 C 37.068811,17.246167 37.088388,32 37.088388,32 L 22.160133,31.978069 C 22.160133,31.978069 26.997745,27.140456 26.997745,27.140456 C 18.528582,18.264221 13.291696,25.230495 11.500037,31.436501 z"
     style="fill:#404040;"/>
  </a>
 </g>
</svg>

<style type='text/css'>
<![CDATA[
[data-mouse-over-selected='false'] { opacity: 0.7; }
[data-mouse-over-selected='true']  { opacity: 1.0; }
]]>
</style>
<script type="application/ecmascript"><![CDATA[
document.addEventListener('DOMContentLoaded', (event) => {
  highlightEdges();
  highlightAdjacentNodes();
});
]]></script>
</svg>
