<?xml version="1.0" encoding="UTF-8" standalone="no"?>
<!DOCTYPE svg PUBLIC "-//W3C//DTD SVG 1.1//EN"
 "http://www.w3.org/Graphics/SVG/1.1/DTD/svg11.dtd">
<!-- Generated by graphviz version 12.2.1 (20241206.2353)
 -->
<!-- Title: svg::direction_arc_title_at Pages: 1 -->
<svg width="503pt" height="690pt"
 viewBox="0.00 0.00 503.25 690.00" xmlns="http://www.w3.org/2000/svg" xmlns:xlink="http://www.w3.org/1999/xlink">
<g id="graph0" class="graph" transform="scale(1 1) rotate(0) translate(4 686)">
<title>svg::direction_arc_title_at</title>
<!-- Node1 -->
<g id="Node000001" class="node">
<title>Node1</title>
<g id="a_Node000001"><a xlink:title="Title on same arc.">
<polygon fill="#999999" stroke="#666666" points="82,-271 0,-271 0,-239 82,-239 82,-271"/>
<text text-anchor="start" x="8" y="-259.4" font-family="SourceSans" font-size="8.00">svg::direction_arc</text>
<text text-anchor="middle" x="41" y="-247.4" font-family="SourceSans" font-size="8.00">_title_at</text>
</a>
</g>
</g>
<!-- Node2 -->
<g id="Node000002" class="node">
<title>Node2</title>
<g id="a_Node000002"><a xlink:href="group__elements.html#a807f3c30f2ace338ad10aaf230b47665" target="_top" xlink:title="Either serialize immediately (as below), or create data structure that adds data to data_vec and then...">
<polygon fill="white" stroke="#666666" points="364.12,-682 273.12,-682 273.12,-650 364.12,-650 364.12,-682"/>
<text text-anchor="start" x="281.12" y="-670.4" font-family="SourceSans" font-size="8.00">svg::path_element::</text>
<text text-anchor="middle" x="318.62" y="-658.4" font-family="SourceSans" font-size="8.00">add_data</text>
</a>
</g>
</g>
<!-- Node1&#45;&gt;Node2 -->
<g id="edge1_Node000001_Node000002" class="edge">
<title>Node1&#45;&gt;Node2</title>
<g id="a_edge1_Node000001_Node000002"><a xlink:title=" ">
<path fill="none" stroke="#63b8ff" d="M42.43,-271.37C44.41,-317.6 55.55,-451.38 118,-537 155.22,-588.03 219.31,-624.16 264.82,-644.96"/>
<polygon fill="#63b8ff" stroke="#63b8ff" points="263.15,-648.05 273.71,-648.92 266,-641.65 263.15,-648.05"/>
</a>
</g>
</g>
<!-- Node4 -->
<g id="Node000004" class="node">
<title>Node4</title>
<g id="a_Node000004"><a xlink:href="group__elements.html#aad29e1daf75bdcd69a39575a6807fa0f" target="_top" xlink:title="Either serialize immediately (as below), or create data structure that adds data to data_vec and then...">
<polygon fill="white" stroke="#666666" points="218.38,-528 130.38,-528 130.38,-496 218.38,-496 218.38,-528"/>
<text text-anchor="start" x="138.38" y="-516.4" font-family="SourceSans" font-size="8.00">svg::text_element::</text>
<text text-anchor="middle" x="174.38" y="-504.4" font-family="SourceSans" font-size="8.00">add_data</text>
</a>
</g>
</g>
<!-- Node1&#45;&gt;Node4 -->
<g id="edge3_Node000001_Node000004" class="edge">
<title>Node1&#45;&gt;Node4</title>
<g id="a_edge3_Node000001_Node000004"><a xlink:title=" ">
<path fill="none" stroke="#63b8ff" d="M46.82,-271.33C57.09,-304.89 83.1,-383.47 118,-443 127.19,-458.67 139.71,-474.6 150.52,-487.19"/>
<polygon fill="#63b8ff" stroke="#63b8ff" points="147.79,-489.38 157.02,-494.58 153.05,-484.76 147.79,-489.38"/>
</a>
</g>
</g>
<!-- Node10 -->
<g id="Node000010" class="node">
<title>Node10</title>
<g id="a_Node000010"><a xlink:href="group__elements.html#aaa5f1a136f2b5c61d647a47ec53fe31d" target="_top" xlink:title=" ">
<polygon fill="white" stroke="#666666" points="224.75,-434 124,-434 124,-402 224.75,-402 224.75,-434"/>
<text text-anchor="start" x="132" y="-422.4" font-family="SourceSans" font-size="8.00">svg::svg_element::add</text>
<text text-anchor="middle" x="174.38" y="-410.4" font-family="SourceSans" font-size="8.00">_element</text>
</a>
</g>
</g>
<!-- Node1&#45;&gt;Node10 -->
<g id="edge12_Node000001_Node000010" class="edge">
<title>Node1&#45;&gt;Node10</title>
<g id="a_edge12_Node000001_Node000010"><a xlink:title=" ">
<path fill="none" stroke="#63b8ff" d="M47.84,-271.2C58.28,-298.29 82.44,-353.24 118,-388 120.66,-390.6 123.59,-393.04 126.67,-395.31"/>
<polygon fill="#63b8ff" stroke="#63b8ff" points="124.71,-398.21 134.98,-400.8 128.57,-392.37 124.71,-398.21"/>
</a>
</g>
</g>
<!-- Node12 -->
<g id="Node000012" class="node">
<title>Node12</title>
<g id="a_Node000012"><a xlink:href="group__elements.html#a238b38ca99a1cf6c2baf80c8e4338d99" target="_top" xlink:title=" ">
<polygon fill="white" stroke="#666666" points="364.12,-368 273.12,-368 273.12,-336 364.12,-336 364.12,-368"/>
<text text-anchor="start" x="281.12" y="-356.4" font-family="SourceSans" font-size="8.00">svg::element_base::</text>
<text text-anchor="middle" x="318.62" y="-344.4" font-family="SourceSans" font-size="8.00">add_style</text>
</a>
</g>
</g>
<!-- Node1&#45;&gt;Node12 -->
<g id="edge14_Node000001_Node000012" class="edge">
<title>Node1&#45;&gt;Node12</title>
<g id="a_edge14_Node000001_Node000012"><a xlink:title=" ">
<path fill="none" stroke="#63b8ff" d="M48.64,-271.2C59.29,-294.73 82.64,-337.46 118,-355 162.66,-377.15 220.14,-373.47 261.94,-365.98"/>
<polygon fill="#63b8ff" stroke="#63b8ff" points="262.38,-369.46 271.54,-364.13 261.06,-362.59 262.38,-369.46"/>
</a>
</g>
</g>
<!-- Node13 -->
<g id="Node000013" class="node">
<title>Node13</title>
<g id="a_Node000013"><a xlink:href="group__elements.html#gaac30ae99fb1a2542688fa1ffb43cd8e1" target="_top" xlink:title=" ">
<polygon fill="white" stroke="#666666" points="219.88,-346 128.88,-346 128.88,-314 219.88,-314 219.88,-346"/>
<text text-anchor="start" x="136.88" y="-334.4" font-family="SourceSans" font-size="8.00">svg::path_element::</text>
<text text-anchor="middle" x="174.38" y="-322.4" font-family="SourceSans" font-size="8.00">finish_element</text>
</a>
</g>
</g>
<!-- Node1&#45;&gt;Node13 -->
<g id="edge16_Node000001_Node000013" class="edge">
<title>Node1&#45;&gt;Node13</title>
<g id="a_edge16_Node000001_Node000013"><a xlink:title=" ">
<path fill="none" stroke="#63b8ff" d="M64.7,-271.29C79.5,-281.58 99.46,-294.8 118,-305 120.18,-306.2 122.42,-307.39 124.71,-308.56"/>
<polygon fill="#63b8ff" stroke="#63b8ff" points="122.98,-311.61 133.5,-312.89 126.08,-305.33 122.98,-311.61"/>
</a>
</g>
</g>
<!-- Node15 -->
<g id="Node000015" class="node">
<title>Node15</title>
<g id="a_Node000015"><a xlink:href="group__elements.html#ga13c46848317034d16c62a7d2061ba3d6" target="_top" xlink:title=" ">
<polygon fill="white" stroke="#666666" points="218.38,-296 130.38,-296 130.38,-264 218.38,-264 218.38,-296"/>
<text text-anchor="start" x="138.38" y="-284.4" font-family="SourceSans" font-size="8.00">svg::text_element::</text>
<text text-anchor="middle" x="174.38" y="-272.4" font-family="SourceSans" font-size="8.00">finish_element</text>
</a>
</g>
</g>
<!-- Node1&#45;&gt;Node15 -->
<g id="edge18_Node000001_Node000015" class="edge">
<title>Node1&#45;&gt;Node15</title>
<g id="a_edge18_Node000001_Node000015"><a xlink:title=" ">
<path fill="none" stroke="#63b8ff" d="M82.49,-262.7C94.03,-264.9 106.8,-267.33 119.03,-269.66"/>
<polygon fill="#63b8ff" stroke="#63b8ff" points="118.09,-273.04 128.57,-271.47 119.4,-266.17 118.09,-273.04"/>
</a>
</g>
</g>
<!-- Node16 -->
<g id="Node000016" class="node">
<title>Node16</title>
<g id="a_Node000016"><a xlink:href="namespacesvg.html#ab44508c4aeca591141ebec50145b75cd" target="_top" xlink:title="Angle in degrees.">
<polygon fill="white" stroke="#666666" points="226.25,-246 122.5,-246 122.5,-214 226.25,-214 226.25,-246"/>
<text text-anchor="start" x="130.5" y="-234.4" font-family="SourceSans" font-size="8.00">svg::get_circumference</text>
<text text-anchor="middle" x="174.38" y="-222.4" font-family="SourceSans" font-size="8.00">_point_d</text>
</a>
</g>
</g>
<!-- Node1&#45;&gt;Node16 -->
<g id="edge19_Node000001_Node000016" class="edge">
<title>Node1&#45;&gt;Node16</title>
<g id="a_edge19_Node000001_Node000016"><a xlink:title=" ">
<path fill="none" stroke="#63b8ff" d="M82.49,-247.3C91.48,-245.58 101.22,-243.73 110.87,-241.89"/>
<polygon fill="#63b8ff" stroke="#63b8ff" points="111.45,-245.35 120.61,-240.04 110.14,-238.47 111.45,-245.35"/>
</a>
</g>
</g>
<!-- Node18 -->
<g id="Node000018" class="node">
<title>Node18</title>
<g id="a_Node000018"><a xlink:href="namespacesvg.html#a37b1e7c40b54ff3cdd4e2929cb6b7ba2" target="_top" xlink:title=" ">
<polygon fill="white" stroke="#666666" points="223.25,-196 125.5,-196 125.5,-176 223.25,-176 223.25,-196"/>
<text text-anchor="middle" x="174.38" y="-184.4" font-family="SourceSans" font-size="8.00">svg::get_radial_range</text>
</a>
</g>
</g>
<!-- Node1&#45;&gt;Node18 -->
<g id="edge21_Node000001_Node000018" class="edge">
<title>Node1&#45;&gt;Node18</title>
<g id="a_edge21_Node000001_Node000018"><a xlink:title=" ">
<path fill="none" stroke="#63b8ff" d="M63.73,-238.58C78.47,-227.98 98.72,-214.46 118,-205 121.24,-203.41 124.64,-201.9 128.11,-200.47"/>
<polygon fill="#63b8ff" stroke="#63b8ff" points="129.08,-203.85 137.15,-196.99 126.56,-197.31 129.08,-203.85"/>
</a>
</g>
</g>
<!-- Node19 -->
<g id="Node000019" class="node">
<title>Node19</title>
<g id="a_Node000019"><a xlink:href="namespacesvg.html#abd8e35decc1e56f7243b02174c701d37" target="_top" xlink:title="Make path segment between two points on a circumference of radius r. Points like: get_circumference_p...">
<polygon fill="white" stroke="#666666" points="364.12,-183 273.12,-183 273.12,-151 364.12,-151 364.12,-183"/>
<text text-anchor="start" x="281.12" y="-171.4" font-family="SourceSans" font-size="8.00">svg::make_path_arc</text>
<text text-anchor="middle" x="318.62" y="-159.4" font-family="SourceSans" font-size="8.00">_circumference</text>
</a>
</g>
</g>
<!-- Node1&#45;&gt;Node19 -->
<g id="edge22_Node000001_Node000019" class="edge">
<title>Node1&#45;&gt;Node19</title>
<g id="a_edge22_Node000001_Node000019"><a xlink:title=" ">
<path fill="none" stroke="#63b8ff" d="M50.36,-238.56C62.16,-217.43 85.88,-181.7 118,-167 163.08,-146.37 220.11,-148.79 261.66,-154.95"/>
<polygon fill="#63b8ff" stroke="#63b8ff" points="261.02,-158.39 271.45,-156.53 262.14,-151.48 261.02,-158.39"/>
</a>
</g>
</g>
<!-- Node20 -->
<g id="Node000020" class="node">
<title>Node20</title>
<g id="a_Node000020"><a xlink:href="group__elements.html#a6dbca7cef2cbc0c10aa44c44ae20b36e" target="_top" xlink:title=" ">
<polygon fill="white" stroke="#666666" points="219.88,-120 128.88,-120 128.88,-88 219.88,-88 219.88,-120"/>
<text text-anchor="start" x="136.88" y="-108.4" font-family="SourceSans" font-size="8.00">svg::path_element::</text>
<text text-anchor="middle" x="174.38" y="-96.4" font-family="SourceSans" font-size="8.00">start_element</text>
</a>
</g>
</g>
<!-- Node1&#45;&gt;Node20 -->
<g id="edge24_Node000001_Node000020" class="edge">
<title>Node1&#45;&gt;Node20</title>
<g id="a_edge24_Node000001_Node000020"><a xlink:title=" ">
<path fill="none" stroke="#63b8ff" d="M48.94,-238.67C60.28,-213.54 84.88,-165.05 118,-134 120.84,-131.34 123.96,-128.84 127.22,-126.5"/>
<polygon fill="#63b8ff" stroke="#63b8ff" points="128.94,-129.56 135.44,-121.2 125.14,-123.68 128.94,-129.56"/>
</a>
</g>
</g>
<!-- Node22 -->
<g id="Node000022" class="node">
<title>Node22</title>
<g id="a_Node000022"><a xlink:href="group__elements.html#ae45bec611a6ec17ea46aab6d680ae042" target="_top" xlink:title=" ">
<polygon fill="white" stroke="#666666" points="218.38,-70 130.38,-70 130.38,-38 218.38,-38 218.38,-70"/>
<text text-anchor="start" x="138.38" y="-58.4" font-family="SourceSans" font-size="8.00">svg::text_element::</text>
<text text-anchor="middle" x="174.38" y="-46.4" font-family="SourceSans" font-size="8.00">start_element</text>
</a>
</g>
</g>
<!-- Node1&#45;&gt;Node22 -->
<g id="edge26_Node000001_Node000022" class="edge">
<title>Node1&#45;&gt;Node22</title>
<g id="a_edge26_Node000001_Node000022"><a xlink:title=" ">
<path fill="none" stroke="#63b8ff" d="M44.92,-238.71C51.8,-204.77 72.02,-125.74 118,-79 119,-77.98 120.05,-77.01 121.13,-76.07"/>
<polygon fill="#63b8ff" stroke="#63b8ff" points="122.87,-79.13 128.92,-70.43 118.76,-73.46 122.87,-79.13"/>
</a>
</g>
</g>
<!-- Node23 -->
<g id="Node000023" class="node">
<title>Node23</title>
<g id="a_Node000023"><a xlink:href="namespacesvg.html#a46164d75fd5109e4ed8879abbacd5c11" target="_top" xlink:title="Zero degrees is top, going clockwise (cw).">
<polygon fill="white" stroke="#666666" points="230.75,-20 118,-20 118,0 230.75,0 230.75,-20"/>
<text text-anchor="middle" x="174.38" y="-8.4" font-family="SourceSans" font-size="8.00">svg::zero_angle_north_cw</text>
</a>
</g>
</g>
<!-- Node1&#45;&gt;Node23 -->
<g id="edge27_Node000001_Node000023" class="edge">
<title>Node1&#45;&gt;Node23</title>
<g id="a_edge27_Node000001_Node000023"><a xlink:title=" ">
<path fill="none" stroke="#63b8ff" d="M42.74,-238.53C45.49,-197.37 58.32,-89.04 118,-29 118.86,-28.13 119.76,-27.31 120.7,-26.52"/>
<polygon fill="#63b8ff" stroke="#63b8ff" points="122.27,-29.68 128.66,-21.23 118.39,-23.85 122.27,-29.68"/>
</a>
</g>
</g>
<!-- Node3 -->
<g id="Node000003" class="node">
<title>Node3</title>
<g id="a_Node000003"><a xlink:href="namespacesvg.html#a48ac748e89e22789d1772326a98dd7b6" target="_top" xlink:title=" ">
<polygon fill="white" stroke="#666666" points="494.5,-632 407.25,-632 407.25,-612 494.5,-612 494.5,-632"/>
<text text-anchor="middle" x="450.88" y="-620.4" font-family="SourceSans" font-size="8.00">svg::string_replace</text>
</a>
</g>
</g>
<!-- Node2&#45;&gt;Node3 -->
<g id="edge2_Node000002_Node000003" class="edge">
<title>Node2&#45;&gt;Node3</title>
<g id="a_edge2_Node000002_Node000003"><a xlink:title=" ">
<path fill="none" stroke="#63b8ff" d="M364.45,-650.86C378.62,-646.07 394.21,-640.8 408.15,-636.09"/>
<polygon fill="#63b8ff" stroke="#63b8ff" points="409.13,-639.46 417.49,-632.94 406.89,-632.83 409.13,-639.46"/>
</a>
</g>
</g>
<!-- Node4&#45;&gt;Node3 -->
<g id="edge10_Node000004_Node000003" class="edge">
<title>Node4&#45;&gt;Node3</title>
<g id="a_edge10_Node000004_Node000003"><a xlink:title=" ">
<path fill="none" stroke="#63b8ff" d="M186.14,-528.15C201.31,-549.42 231.16,-586.1 266.75,-603 307.05,-622.14 357.83,-626.05 395.69,-625.66"/>
<polygon fill="#63b8ff" stroke="#63b8ff" points="395.57,-629.16 405.49,-625.44 395.42,-622.17 395.57,-629.16"/>
</a>
</g>
</g>
<!-- Node5 -->
<g id="Node000005" class="node">
<title>Node5</title>
<g id="a_Node000005"><a xlink:href="structsvg_1_1typography.html#adbc62f74f1fed3f7c77567250f084f83" target="_top" xlink:title=" ">
<polygon fill="white" stroke="#666666" points="366.75,-594 270.5,-594 270.5,-562 366.75,-562 366.75,-594"/>
<text text-anchor="start" x="278.5" y="-582.4" font-family="SourceSans" font-size="8.00">svg::typography::add</text>
<text text-anchor="middle" x="318.62" y="-570.4" font-family="SourceSans" font-size="8.00">_attribute</text>
</a>
</g>
</g>
<!-- Node4&#45;&gt;Node5 -->
<g id="edge4_Node000004_Node000005" class="edge">
<title>Node4&#45;&gt;Node5</title>
<g id="a_edge4_Node000004_Node000005"><a xlink:title=" ">
<path fill="none" stroke="#63b8ff" d="M210.9,-528.48C229.46,-537.09 252.37,-547.72 272.2,-556.92"/>
<polygon fill="#63b8ff" stroke="#63b8ff" points="270.63,-560.05 281.18,-561.09 273.58,-553.7 270.63,-560.05"/>
</a>
</g>
</g>
<!-- Node6 -->
<g id="Node000006" class="node">
<title>Node6</title>
<g id="a_Node000006"><a xlink:href="namespacesvg.html#a36b1c48ad4601b205790e3772ad0a7b6" target="_top" xlink:title=" ">
<polygon fill="white" stroke="#666666" points="484.38,-453 417.38,-453 417.38,-433 484.38,-433 484.38,-453"/>
<text text-anchor="middle" x="450.88" y="-441.4" font-family="SourceSans" font-size="8.00">svg::to_string</text>
</a>
</g>
</g>
<!-- Node4&#45;&gt;Node6 -->
<g id="edge11_Node000004_Node000006" class="edge">
<title>Node4&#45;&gt;Node6</title>
<g id="a_edge11_Node000004_Node000006"><a xlink:title=" ">
<path fill="none" stroke="#63b8ff" d="M218.86,-521.73C259.52,-528.75 321.19,-534.03 370.5,-515 397.74,-504.49 421.41,-479.8 435.65,-462.28"/>
<polygon fill="#63b8ff" stroke="#63b8ff" points="438.25,-464.65 441.63,-454.61 432.72,-460.34 438.25,-464.65"/>
</a>
</g>
</g>
<!-- Node8 -->
<g id="Node000008" class="node">
<title>Node8</title>
<g id="a_Node000008"><a xlink:href="group__elements.html#a1ed006cabdb9c531c2bd8e27ea9e0966" target="_top" xlink:title=" ">
<polygon fill="white" stroke="#666666" points="362.62,-506 274.62,-506 274.62,-474 362.62,-474 362.62,-506"/>
<text text-anchor="start" x="282.62" y="-494.4" font-family="SourceSans" font-size="8.00">svg::text_element::</text>
<text text-anchor="middle" x="318.62" y="-482.4" font-family="SourceSans" font-size="8.00">add_text</text>
</a>
</g>
</g>
<!-- Node4&#45;&gt;Node8 -->
<g id="edge8_Node000004_Node000008" class="edge">
<title>Node4&#45;&gt;Node8</title>
<g id="a_edge8_Node000004_Node000008"><a xlink:title=" ">
<path fill="none" stroke="#63b8ff" d="M218.83,-505.28C232.89,-503.1 248.66,-500.67 263.41,-498.38"/>
<polygon fill="#63b8ff" stroke="#63b8ff" points="263.6,-501.9 272.94,-496.91 262.53,-494.98 263.6,-501.9"/>
</a>
</g>
</g>
<!-- Node9 -->
<g id="Node000009" class="node">
<title>Node9</title>
<g id="a_Node000009"><a xlink:href="group__elements.html#a53d72a7ff728ad1d4d027254530bcf3d" target="_top" xlink:title="Common transforms include rotate(180)">
<polygon fill="white" stroke="#666666" points="364.12,-456 273.12,-456 273.12,-424 364.12,-424 364.12,-456"/>
<text text-anchor="start" x="281.12" y="-444.4" font-family="SourceSans" font-size="8.00">svg::element_base::</text>
<text text-anchor="middle" x="318.62" y="-432.4" font-family="SourceSans" font-size="8.00">add_transform</text>
</a>
</g>
</g>
<!-- Node4&#45;&gt;Node9 -->
<g id="edge9_Node000004_Node000009" class="edge">
<title>Node4&#45;&gt;Node9</title>
<g id="a_edge9_Node000004_Node000009"><a xlink:title=" ">
<path fill="none" stroke="#63b8ff" d="M207.02,-495.54C224.58,-486.46 246.83,-475.02 266.75,-465 269,-463.87 271.31,-462.71 273.64,-461.55"/>
<polygon fill="#63b8ff" stroke="#63b8ff" points="275.16,-464.7 282.57,-457.13 272.05,-458.43 275.16,-464.7"/>
</a>
</g>
</g>
<!-- Node5&#45;&gt;Node3 -->
<g id="edge5_Node000005_Node000003" class="edge">
<title>Node5&#45;&gt;Node3</title>
<g id="a_edge5_Node000005_Node000003"><a xlink:title=" ">
<path fill="none" stroke="#63b8ff" d="M367.02,-594.01C380.54,-598.58 395.17,-603.52 408.32,-607.96"/>
<polygon fill="#63b8ff" stroke="#63b8ff" points="406.93,-611.19 417.52,-611.07 409.17,-604.55 406.93,-611.19"/>
</a>
</g>
</g>
<!-- Node5&#45;&gt;Node6 -->
<g id="edge6_Node000005_Node000006" class="edge">
<title>Node5&#45;&gt;Node6</title>
<g id="a_edge6_Node000005_Node000006"><a xlink:title=" ">
<path fill="none" stroke="#63b8ff" d="M351.88,-561.56C358.38,-557.56 364.91,-552.98 370.5,-548 399.07,-522.53 424.23,-485.45 438.21,-462.85"/>
<polygon fill="#63b8ff" stroke="#63b8ff" points="441.02,-464.96 443.2,-454.6 435.03,-461.34 441.02,-464.96"/>
</a>
</g>
</g>
<!-- Node7 -->
<g id="Node000007" class="node">
<title>Node7</title>
<g id="a_Node000007"><a xlink:href="structsvg_1_1typography.html#a174c1ffb4e56214d71523ffe7e422561" target="_top" xlink:title=" ">
<polygon fill="white" stroke="#666666" points="495.25,-594 406.5,-594 406.5,-562 495.25,-562 495.25,-594"/>
<text text-anchor="start" x="414.5" y="-582.4" font-family="SourceSans" font-size="8.00">svg::typography::to</text>
<text text-anchor="middle" x="450.88" y="-570.4" font-family="SourceSans" font-size="8.00">_string</text>
</a>
</g>
</g>
<!-- Node5&#45;&gt;Node7 -->
<g id="edge7_Node000005_Node000007" class="edge">
<title>Node5&#45;&gt;Node7</title>
<g id="a_edge7_Node000005_Node000007"><a xlink:title=" ">
<path fill="none" stroke="#63b8ff" d="M367.02,-578C376.02,-578 385.51,-578 394.73,-578"/>
<polygon fill="#63b8ff" stroke="#63b8ff" points="394.68,-581.5 404.68,-578 394.68,-574.5 394.68,-581.5"/>
</a>
</g>
</g>
<!-- Node11 -->
<g id="Node000011" class="node">
<title>Node11</title>
<g id="a_Node000011"><a xlink:href="group__elements.html#ad893ef9c13a15464c96d8a85c08af30f" target="_top" xlink:title=" ">
<polygon fill="white" stroke="#666666" points="369,-406 268.25,-406 268.25,-386 369,-386 369,-406"/>
<text text-anchor="middle" x="318.62" y="-394.4" font-family="SourceSans" font-size="8.00">svg::element_base::str</text>
</a>
</g>
</g>
<!-- Node10&#45;&gt;Node11 -->
<g id="edge13_Node000010_Node000011" class="edge">
<title>Node10&#45;&gt;Node11</title>
<g id="a_edge13_Node000010_Node000011"><a xlink:title=" ">
<path fill="none" stroke="#63b8ff" d="M225.13,-410.31C235.36,-408.72 246.25,-407.04 256.83,-405.4"/>
<polygon fill="#63b8ff" stroke="#63b8ff" points="257.3,-408.87 266.65,-403.88 256.23,-401.95 257.3,-408.87"/>
</a>
</g>
</g>
<!-- Node12&#45;&gt;Node6 -->
<g id="edge15_Node000012_Node000006" class="edge">
<title>Node12&#45;&gt;Node6</title>
<g id="a_edge15_Node000012_Node000006"><a xlink:title=" ">
<path fill="none" stroke="#63b8ff" d="M355.79,-368.44C360.84,-371.12 365.88,-374 370.5,-377 392.62,-391.34 415.54,-411 431.02,-425.12"/>
<polygon fill="#63b8ff" stroke="#63b8ff" points="428.39,-427.46 438.11,-431.69 433.15,-422.33 428.39,-427.46"/>
</a>
</g>
</g>
<!-- Node14 -->
<g id="Node000014" class="node">
<title>Node14</title>
<g id="a_Node000014"><a xlink:href="group__elements.html#ga503ee2895588a6c684e2b1614cf4e73d" target="_top" xlink:title=" ">
<polygon fill="white" stroke="#666666" points="363.38,-318 273.88,-318 273.88,-286 363.38,-286 363.38,-318"/>
<text text-anchor="start" x="281.88" y="-306.4" font-family="SourceSans" font-size="8.00">svg::defs_element::</text>
<text text-anchor="middle" x="318.62" y="-294.4" font-family="SourceSans" font-size="8.00">finish_element</text>
</a>
</g>
</g>
<!-- Node13&#45;&gt;Node14 -->
<g id="edge17_Node000013_Node000014" class="edge">
<title>Node13&#45;&gt;Node14</title>
<g id="a_edge17_Node000013_Node000014"><a xlink:title=" ">
<path fill="none" stroke="#63b8ff" d="M219.99,-321.22C233.49,-318.56 248.48,-315.61 262.58,-312.83"/>
<polygon fill="#63b8ff" stroke="#63b8ff" points="263.03,-316.31 272.17,-310.95 261.68,-309.44 263.03,-316.31"/>
</a>
</g>
</g>
<!-- Node17 -->
<g id="Node000017" class="node">
<title>Node17</title>
<g id="a_Node000017"><a xlink:href="namespacesvg.html#aef05ac63d88a6102981d3faf37275297" target="_top" xlink:title="Angle in radians.">
<polygon fill="white" stroke="#666666" points="370.5,-246 266.75,-246 266.75,-214 370.5,-214 370.5,-246"/>
<text text-anchor="start" x="274.75" y="-234.4" font-family="SourceSans" font-size="8.00">svg::get_circumference</text>
<text text-anchor="middle" x="318.62" y="-222.4" font-family="SourceSans" font-size="8.00">_point_r</text>
</a>
</g>
</g>
<!-- Node16&#45;&gt;Node17 -->
<g id="edge20_Node000016_Node000017" class="edge">
<title>Node16&#45;&gt;Node17</title>
<g id="a_edge20_Node000016_Node000017"><a xlink:title=" ">
<path fill="none" stroke="#63b8ff" d="M226.73,-230C235.9,-230 245.54,-230 254.98,-230"/>
<polygon fill="#63b8ff" stroke="#63b8ff" points="254.83,-233.5 264.83,-230 254.83,-226.5 254.83,-233.5"/>
</a>
</g>
</g>
<!-- Node19&#45;&gt;Node6 -->
<g id="edge23_Node000019_Node000006" class="edge">
<title>Node19&#45;&gt;Node6</title>
<g id="a_edge23_Node000019_Node000006"><a xlink:title=" ">
<path fill="none" stroke="#63b8ff" d="M347.93,-183.49C356.14,-189.4 364.5,-196.69 370.5,-205 420.64,-274.41 440.58,-377.57 447.14,-421.71"/>
<polygon fill="#63b8ff" stroke="#63b8ff" points="443.65,-422.05 448.49,-431.47 450.58,-421.08 443.65,-422.05"/>
</a>
</g>
</g>
<!-- Node21 -->
<g id="Node000021" class="node">
<title>Node21</title>
<g id="a_Node000021"><a xlink:href="group__elements.html#a948868c6f5dea784ded14c26cc1d2139" target="_top" xlink:title=" ">
<polygon fill="white" stroke="#666666" points="363.38,-120 273.88,-120 273.88,-88 363.38,-88 363.38,-120"/>
<text text-anchor="start" x="281.88" y="-108.4" font-family="SourceSans" font-size="8.00">svg::defs_element::</text>
<text text-anchor="middle" x="318.62" y="-96.4" font-family="SourceSans" font-size="8.00">start_element</text>
</a>
</g>
</g>
<!-- Node20&#45;&gt;Node21 -->
<g id="edge25_Node000020_Node000021" class="edge">
<title>Node20&#45;&gt;Node21</title>
<g id="a_edge25_Node000020_Node000021"><a xlink:title=" ">
<path fill="none" stroke="#63b8ff" d="M219.99,-104C233.36,-104 248.19,-104 262.16,-104"/>
<polygon fill="#63b8ff" stroke="#63b8ff" points="262.14,-107.5 272.14,-104 262.14,-100.5 262.14,-107.5"/>
</a>
</g>
</g>
</g>
</svg>
