<?xml version="1.0" encoding="UTF-8" standalone="no"?>
<!DOCTYPE svg PUBLIC "-//W3C//DTD SVG 1.1//EN"
 "http://www.w3.org/Graphics/SVG/1.1/DTD/svg11.dtd">
<!-- Generated by graphviz version 13.1.2 (20250808.2320)
 -->
<!-- Title: svg::make_rect Pages: 1 -->
<svg width="359pt" height="290pt"
 viewBox="0.00 0.00 359.00 290.00" xmlns="http://www.w3.org/2000/svg" xmlns:xlink="http://www.w3.org/1999/xlink">

<svg id="main" version="1.1" xmlns="http://www.w3.org/2000/svg" xmlns:xlink="http://www.w3.org/1999/xlink" xml:space="preserve">

<style type="text/css"><![CDATA[
.node, .edge {opacity: 0.7;}
.node.selected, .edge.selected {opacity: 1;}
.edge:hover path { stroke: red; }
.edge:hover polygon { stroke: red; fill: red; }
]]></style>
<script type="application/ecmascript" xlink:href="svg.min.js"/>
<svg id="graph" class="graph">
<g id="graph0" class="graph" transform="scale(1 1) rotate(0) translate(4 286)">
<title>svg::make_rect</title>
<!-- Node1 -->
<g id="Node000001" class="node">
<title>Node1</title>
<g id="a_Node000001"><a xlink:title="Create rect_element at origin.">
<polygon fill="#999999" stroke="#666666" points="72.25,-151 0,-151 0,-131 72.25,-131 72.25,-151"/>
<text xml:space="preserve" text-anchor="middle" x="36.12" y="-139.4" font-family="SourceSans" font-size="8.00">svg::make_rect</text>
</a>
</g>
</g>
<!-- Node2 -->
<g id="Node000002" class="node">
<title>Node2</title>
<g id="a_Node000002"><a xlink:href="group__elements.html#a1dd6663d882fb5dd14a47462a77f351b" target="_top" xlink:title="Either serialize immediately (as below), or create data structure that adds data to data_vec and then...">
<polygon fill="white" stroke="#666666" points="197.38,-282 110.12,-282 110.12,-250 197.38,-250 197.38,-282"/>
<text xml:space="preserve" text-anchor="start" x="118.12" y="-270.4" font-family="SourceSans" font-size="8.00">svg::rect_element::</text>
<text xml:space="preserve" text-anchor="middle" x="153.75" y="-258.4" font-family="SourceSans" font-size="8.00">add_data</text>
</a>
</g>
</g>
<!-- Node1&#45;&gt;Node2 -->
<g id="edge1_Node000001_Node000002" class="edge">
<title>Node1&#45;&gt;Node2</title>
<g id="a_edge1_Node000001_Node000002"><a xlink:title=" ">
<path fill="none" stroke="#63b8ff" d="M42.53,-151.5C53.03,-171.08 77.83,-213.65 108.25,-241 109,-241.67 109.77,-242.34 110.56,-242.99"/>
<polygon fill="#63b8ff" stroke="#63b8ff" points="108.18,-245.58 118.32,-248.65 112.3,-239.93 108.18,-245.58"/>
</a>
</g>
</g>
<!-- Node4 -->
<g id="Node000004" class="node">
<title>Node4</title>
<g id="a_Node000004"><a xlink:href="group__elements.html#a1b22cfab9437b40c8b877ffe5472ff02" target="_top" xlink:title=" ">
<polygon fill="white" stroke="#666666" points="199.25,-232 108.25,-232 108.25,-200 199.25,-200 199.25,-232"/>
<text xml:space="preserve" text-anchor="start" x="116.25" y="-220.4" font-family="SourceSans" font-size="8.00">svg::element_base::</text>
<text xml:space="preserve" text-anchor="middle" x="153.75" y="-208.4" font-family="SourceSans" font-size="8.00">add_filter</text>
</a>
</g>
</g>
<!-- Node1&#45;&gt;Node4 -->
<g id="edge3_Node000001_Node000004" class="edge">
<title>Node1&#45;&gt;Node4</title>
<g id="a_edge3_Node000001_Node000004"><a xlink:title=" ">
<path fill="none" stroke="#63b8ff" d="M51.01,-151.39C65.14,-161.81 87.82,-178.12 108.25,-191 109.85,-192.01 111.49,-193.02 113.15,-194.03"/>
<polygon fill="#63b8ff" stroke="#63b8ff" points="111.13,-196.9 121.52,-198.97 114.69,-190.87 111.13,-196.9"/>
</a>
</g>
</g>
<!-- Node5 -->
<g id="Node000005" class="node">
<title>Node5</title>
<g id="a_Node000005"><a xlink:href="group__elements.html#a238b38ca99a1cf6c2baf80c8e4338d99" target="_top" xlink:title=" ">
<polygon fill="white" stroke="#666666" points="199.25,-182 108.25,-182 108.25,-150 199.25,-150 199.25,-182"/>
<text xml:space="preserve" text-anchor="start" x="116.25" y="-170.4" font-family="SourceSans" font-size="8.00">svg::element_base::</text>
<text xml:space="preserve" text-anchor="middle" x="153.75" y="-158.4" font-family="SourceSans" font-size="8.00">add_style</text>
</a>
</g>
</g>
<!-- Node1&#45;&gt;Node5 -->
<g id="edge4_Node000001_Node000005" class="edge">
<title>Node1&#45;&gt;Node5</title>
<g id="a_edge4_Node000001_Node000005"><a xlink:title=" ">
<path fill="none" stroke="#63b8ff" d="M72.44,-148.64C80.12,-150.3 88.41,-152.09 96.66,-153.87"/>
<polygon fill="#63b8ff" stroke="#63b8ff" points="95.83,-157.27 106.34,-155.97 97.3,-150.43 95.83,-157.27"/>
</a>
</g>
</g>
<!-- Node7 -->
<g id="Node000007" class="node">
<title>Node7</title>
<g id="a_Node000007"><a xlink:href="group__elements.html#a53d72a7ff728ad1d4d027254530bcf3d" target="_top" xlink:title=" ">
<polygon fill="white" stroke="#666666" points="199.25,-132 108.25,-132 108.25,-100 199.25,-100 199.25,-132"/>
<text xml:space="preserve" text-anchor="start" x="116.25" y="-120.4" font-family="SourceSans" font-size="8.00">svg::element_base::</text>
<text xml:space="preserve" text-anchor="middle" x="153.75" y="-108.4" font-family="SourceSans" font-size="8.00">add_transform</text>
</a>
</g>
</g>
<!-- Node1&#45;&gt;Node7 -->
<g id="edge6_Node000001_Node000007" class="edge">
<title>Node1&#45;&gt;Node7</title>
<g id="a_edge6_Node000001_Node000007"><a xlink:title=" ">
<path fill="none" stroke="#63b8ff" d="M72.44,-133.36C80.12,-131.7 88.41,-129.91 96.66,-128.13"/>
<polygon fill="#63b8ff" stroke="#63b8ff" points="97.3,-131.57 106.34,-126.03 95.83,-124.73 97.3,-131.57"/>
</a>
</g>
</g>
<!-- Node9 -->
<g id="Node000009" class="node">
<title>Node9</title>
<g id="a_Node000009"><a xlink:href="group__elements.html#gad01750ac554c6bd6871a930c90e17a04" target="_top" xlink:title=" ">
<polygon fill="white" stroke="#666666" points="197.38,-82 110.12,-82 110.12,-50 197.38,-50 197.38,-82"/>
<text xml:space="preserve" text-anchor="start" x="118.12" y="-70.4" font-family="SourceSans" font-size="8.00">svg::rect_element::</text>
<text xml:space="preserve" text-anchor="middle" x="153.75" y="-58.4" font-family="SourceSans" font-size="8.00">finish_element</text>
</a>
</g>
</g>
<!-- Node1&#45;&gt;Node9 -->
<g id="edge8_Node000001_Node000009" class="edge">
<title>Node1&#45;&gt;Node9</title>
<g id="a_edge8_Node000001_Node000009"><a xlink:title=" ">
<path fill="none" stroke="#63b8ff" d="M51.01,-130.61C65.14,-120.19 87.82,-103.88 108.25,-91 109.85,-89.99 111.49,-88.98 113.15,-87.97"/>
<polygon fill="#63b8ff" stroke="#63b8ff" points="114.69,-91.13 121.52,-83.03 111.13,-85.1 114.69,-91.13"/>
</a>
</g>
</g>
<!-- Node10 -->
<g id="Node000010" class="node">
<title>Node10</title>
<g id="a_Node000010"><a xlink:href="group__elements.html#a1e0ed5e9dfe1244317a87d7e6774348b" target="_top" xlink:title=" ">
<polygon fill="white" stroke="#666666" points="197.38,-32 110.12,-32 110.12,0 197.38,0 197.38,-32"/>
<text xml:space="preserve" text-anchor="start" x="118.12" y="-20.4" font-family="SourceSans" font-size="8.00">svg::rect_element::</text>
<text xml:space="preserve" text-anchor="middle" x="153.75" y="-8.4" font-family="SourceSans" font-size="8.00">start_element</text>
</a>
</g>
</g>
<!-- Node1&#45;&gt;Node10 -->
<g id="edge9_Node000001_Node000010" class="edge">
<title>Node1&#45;&gt;Node10</title>
<g id="a_edge9_Node000001_Node000010"><a xlink:title=" ">
<path fill="none" stroke="#63b8ff" d="M42.53,-130.5C53.03,-110.92 77.83,-68.35 108.25,-41 109,-40.33 109.77,-39.66 110.56,-39.01"/>
<polygon fill="#63b8ff" stroke="#63b8ff" points="112.3,-42.07 118.32,-33.35 108.18,-36.42 112.3,-42.07"/>
</a>
</g>
</g>
<!-- Node3 -->
<g id="Node000003" class="node">
<title>Node3</title>
<g id="a_Node000003"><a xlink:href="namespacesvg.html#a48ac748e89e22789d1772326a98dd7b6" target="_top" xlink:title=" ">
<polygon fill="white" stroke="#666666" points="336.75,-276 249.5,-276 249.5,-256 336.75,-256 336.75,-276"/>
<text xml:space="preserve" text-anchor="middle" x="293.12" y="-264.4" font-family="SourceSans" font-size="8.00">svg::string_replace</text>
</a>
</g>
</g>
<!-- Node2&#45;&gt;Node3 -->
<g id="edge2_Node000002_Node000003" class="edge">
<title>Node2&#45;&gt;Node3</title>
<g id="a_edge2_Node000002_Node000003"><a xlink:title=" ">
<path fill="none" stroke="#63b8ff" d="M197.84,-266C210.5,-266 224.51,-266 237.78,-266"/>
<polygon fill="#63b8ff" stroke="#63b8ff" points="237.67,-269.5 247.67,-266 237.67,-262.5 237.67,-269.5"/>
</a>
</g>
</g>
<!-- Node6 -->
<g id="Node000006" class="node">
<title>Node6</title>
<g id="a_Node000006"><a xlink:href="namespacesvg.html#a36b1c48ad4601b205790e3772ad0a7b6" target="_top" xlink:title=" ">
<polygon fill="white" stroke="#666666" points="326.62,-176 259.62,-176 259.62,-156 326.62,-156 326.62,-176"/>
<text xml:space="preserve" text-anchor="middle" x="293.12" y="-164.4" font-family="SourceSans" font-size="8.00">svg::to_string</text>
</a>
</g>
</g>
<!-- Node5&#45;&gt;Node6 -->
<g id="edge5_Node000005_Node000006" class="edge">
<title>Node5&#45;&gt;Node6</title>
<g id="a_edge5_Node000005_Node000006"><a xlink:title=" ">
<path fill="none" stroke="#63b8ff" d="M199.73,-166C215.2,-166 232.49,-166 247.89,-166"/>
<polygon fill="#63b8ff" stroke="#63b8ff" points="247.73,-169.5 257.73,-166 247.73,-162.5 247.73,-169.5"/>
</a>
</g>
</g>
<!-- Node8 -->
<g id="Node000008" class="node">
<title>Node8</title>
<g id="a_Node000008"><a xlink:href="group__elements.html#ae50258851ebbaf08c7eebc3fbdbf1ac8" target="_top" xlink:title="Common transforms include rotate(180)">
<polygon fill="white" stroke="#666666" points="351,-132 235.25,-132 235.25,-100 351,-100 351,-132"/>
<text xml:space="preserve" text-anchor="start" x="243.25" y="-120.4" font-family="SourceSans" font-size="8.00">svg::element_base::</text>
<text xml:space="preserve" text-anchor="middle" x="293.12" y="-108.4" font-family="SourceSans" font-size="8.00">make_transform_attribute</text>
</a>
</g>
</g>
<!-- Node7&#45;&gt;Node8 -->
<g id="edge7_Node000007_Node000008" class="edge">
<title>Node7&#45;&gt;Node8</title>
<g id="a_edge7_Node000007_Node000008"><a xlink:title=" ">
<path fill="none" stroke="#63b8ff" d="M199.73,-116C207.39,-116 215.5,-116 223.6,-116"/>
<polygon fill="#63b8ff" stroke="#63b8ff" points="223.5,-119.5 233.5,-116 223.5,-112.5 223.5,-119.5"/>
</a>
</g>
</g>
</g>
</svg>
</svg>

<style type='text/css'>
<![CDATA[
[data-mouse-over-selected='false'] { opacity: 0.7; }
[data-mouse-over-selected='true']  { opacity: 1.0; }
]]>
</style>
<script type="application/ecmascript"><![CDATA[
document.addEventListener('DOMContentLoaded', (event) => {
  highlightEdges();
  highlightAdjacentNodes();
});
]]></script>
</svg>
