<?xml version="1.0" encoding="UTF-8" standalone="no"?>
<!DOCTYPE svg PUBLIC "-//W3C//DTD SVG 1.1//EN"
 "http://www.w3.org/Graphics/SVG/1.1/DTD/svg11.dtd">
<!-- Generated by graphviz version 12.1.0 (20240811.2233)
 -->
<!-- Title: svg::point_to_crossed_lines Pages: 1 -->
<!--zoomable 277 -->

<svg id="main" version="1.1" xmlns="http://www.w3.org/2000/svg" xmlns:xlink="http://www.w3.org/1999/xlink" xml:space="preserve" onload="init(evt)">

<style type="text/css"><![CDATA[
.node, .edge {opacity: 0.7;}
.node.selected, .edge.selected {opacity: 1;}
.edge:hover path { stroke: red; }
.edge:hover polygon { stroke: red; fill: red; }
]]></style>

<defs>
  <circle id="rim" cx="0" cy="0" r="7"/>
  <circle id="rim2" cx="0" cy="0" r="3.5"/>
  <g id="zoomPlus">
    <use xlink:href="#rim" fill="#404040"><set attributeName="fill" to="#808080" begin="zoomplus.mouseover" end="zoomplus.mouseout"/></use>
    <path d="M-4,0h8M0,-4v8" fill="none" stroke="white" stroke-width="1.5" pointer-events="none"/>
  </g>
  <g id="zoomMin">
    <use xlink:href="#rim" fill="#404040"><set attributeName="fill" to="#808080" begin="zoomminus.mouseover" end="zoomminus.mouseout"/></use>
    <path d="M-4,0h8" fill="none" stroke="white" stroke-width="1.5" pointer-events="none"/>
  </g>
  <g id="arrowUp" transform="translate(30 24)">
    <use xlink:href="#rim"/>
    <path pointer-events="none" fill="none" stroke="white" stroke-width="1.5" d="M0,-3.0v7 M-2.5,-0.5L0,-3.0L2.5,-0.5"/>
  </g>
  <g id="arrowRight" transform="rotate(90) translate(36 -43)">
    <use xlink:href="#rim"/>
    <path pointer-events="none" fill="none" stroke="white" stroke-width="1.5" d="M0,-3.0v7 M-2.5,-0.5L0,-3.0L2.5,-0.5"/>
  </g>
  <g id="arrowDown" transform="rotate(180) translate(-30 -48)">
    <use xlink:href="#rim"/>
    <path pointer-events="none" fill="none" stroke="white" stroke-width="1.5" d="M0,-3.0v7 M-2.5,-0.5L0,-3.0L2.5,-0.5"/>
  </g>
  <g id="arrowLeft" transform="rotate(270) translate(-36 17)">
    <use xlink:href="#rim"/>
    <path pointer-events="none" fill="none" stroke="white" stroke-width="1.5" d="M0,-3.0v7 M-2.5,-0.5L0,-3.0L2.5,-0.5"/>
  </g>
  <g id="resetDef">
    <use xlink:href="#rim2" fill="#404040"><set attributeName="fill" to="#808080" begin="reset.mouseover" end="reset.mouseout"/></use>
  </g>
</defs>
<script type="application/ecmascript">
var viewWidth = 720;
var viewHeight = 277;
var sectionId = 'dynsection-51';
</script>
<script type="application/ecmascript" xlink:href="svg.min.js"/>
<svg id="graph" class="graph">
<g id="viewport">
<title>svg::point_to_crossed_lines</title>
<!-- Node1 -->
<g id="Node000001" class="node">
<title>Node1</title>
<g id="a_Node000001"><a xlink:title="Point to center mark as crossed lines. Default is a plus sign at origin, but @tiltd can rotate.">
<polygon fill="#999999" stroke="#666666" points="104.5,-183.5 0,-183.5 0,-156 104.5,-156 104.5,-183.5"/>
<text text-anchor="start" x="8" y="-171.9" font-family="SourceSans" font-size="8.00">svg::point_to_crossed</text>
<text text-anchor="middle" x="52.25" y="-162.15" font-family="SourceSans" font-size="8.00">_lines</text>
</a>
</g>
</g>
<!-- Node2 -->
<g id="Node000002" class="node">
<title>Node2</title>
<g id="a_Node000002"><a xlink:href="group__elements.html#acafbdd950c6c2639c9d376c3eab696e5" target="_top" xlink:title=" ">
<polygon fill="white" stroke="#666666" points="248.75,-249.5 148.75,-249.5 148.75,-222 248.75,-222 248.75,-249.5"/>
<text text-anchor="start" x="156.75" y="-237.9" font-family="SourceSans" font-size="8.00">svg::element_base::</text>
<text text-anchor="middle" x="198.75" y="-228.15" font-family="SourceSans" font-size="8.00">add_raw</text>
</a>
</g>
</g>
<!-- Node1&#45;&gt;Node2 -->
<g id="edge1_Node000001_Node000002" class="edge">
<title>Node1&#45;&gt;Node2</title>
<g id="a_edge1_Node000001_Node000002"><a xlink:title=" ">
<path fill="none" stroke="#63b8ff" d="M84.25,-183.91C105.39,-193.57 133.62,-206.46 156.64,-216.97"/>
<polygon fill="#63b8ff" stroke="#63b8ff" points="154.88,-220.01 165.43,-220.99 157.78,-213.65 154.88,-220.01"/>
</a>
</g>
</g>
<!-- Node5 -->
<g id="Node000005" class="node">
<title>Node5</title>
<g id="a_Node000005"><a xlink:href="namespacesvg.html#ad1d925b7cf91db8bfa19b009812549fc" target="_top" xlink:title="Crossed lines, no fill. X marks the ....">
<polygon fill="white" stroke="#666666" points="257,-137.62 140.5,-137.62 140.5,-119.88 257,-119.88 257,-137.62"/>
<text text-anchor="middle" x="198.75" y="-126.03" font-family="SourceSans" font-size="8.00">svg::make_crossed_lines</text>
</a>
</g>
</g>
<!-- Node1&#45;&gt;Node5 -->
<g id="edge4_Node000001_Node000005" class="edge">
<title>Node1&#45;&gt;Node5</title>
<g id="a_edge4_Node000001_Node000005"><a xlink:title=" ">
<path fill="none" stroke="#63b8ff" d="M103.38,-155.53C119.94,-150.83 138.21,-145.64 154.23,-141.1"/>
<polygon fill="#63b8ff" stroke="#63b8ff" points="154.8,-144.58 163.46,-138.48 152.89,-137.84 154.8,-144.58"/>
</a>
</g>
</g>
<!-- Node3 -->
<g id="Node000003" class="node">
<title>Node3</title>
<g id="a_Node000003"><a xlink:href="namespacesvg_1_1constants.html#aa7f04c2ea699a1b1e2e790de5ac33f38" target="_top" xlink:title=" ">
<polygon fill="white" stroke="#666666" points="712.25,-222.62 597.25,-222.62 597.25,-204.88 712.25,-204.88 712.25,-222.62"/>
<text text-anchor="middle" x="654.75" y="-211.03" font-family="SourceSans" font-size="8.00">svg::constants::newline</text>
</a>
</g>
</g>
<!-- Node2&#45;&gt;Node3 -->
<g id="edge2_Node000002_Node000003" class="edge">
<title>Node2&#45;&gt;Node3</title>
<g id="a_edge2_Node000002_Node000003"><a xlink:title=" ">
<path fill="none" stroke="#63b8ff" d="M248.96,-247.02C319.15,-261.21 451.68,-280.97 561.25,-256.75 585.56,-251.37 611.08,-238.93 629.13,-228.81"/>
<polygon fill="#63b8ff" stroke="#63b8ff" points="630.88,-231.84 637.78,-223.79 627.37,-225.78 630.88,-231.84"/>
</a>
</g>
</g>
<!-- Node4 -->
<g id="Node000004" class="node">
<title>Node4</title>
<g id="a_Node000004"><a xlink:href="namespacesvg_1_1constants.html#ac460bc8db60d85c3ae1cf8b1a903405e" target="_top" xlink:title="Formatting character constants.">
<polygon fill="white" stroke="#666666" points="407.25,-244.62 299.75,-244.62 299.75,-226.88 407.25,-226.88 407.25,-244.62"/>
<text text-anchor="middle" x="353.5" y="-233.03" font-family="SourceSans" font-size="8.00">svg::constants::space</text>
</a>
</g>
</g>
<!-- Node2&#45;&gt;Node4 -->
<g id="edge3_Node000002_Node000004" class="edge">
<title>Node2&#45;&gt;Node4</title>
<g id="a_edge3_Node000002_Node000004"><a xlink:title=" ">
<path fill="none" stroke="#63b8ff" d="M248.92,-235.75C261.4,-235.75 274.99,-235.75 288.11,-235.75"/>
<polygon fill="#63b8ff" stroke="#63b8ff" points="287.95,-239.25 297.95,-235.75 287.95,-232.25 287.95,-239.25"/>
</a>
</g>
</g>
<!-- Node6 -->
<g id="Node000006" class="node">
<title>Node6</title>
<g id="a_Node000006"><a xlink:href="namespacesvg.html#ab44508c4aeca591141ebec50145b75cd" target="_top" xlink:title="Angle in degrees.">
<polygon fill="white" stroke="#666666" points="409.12,-206.5 297.88,-206.5 297.88,-179 409.12,-179 409.12,-206.5"/>
<text text-anchor="start" x="305.88" y="-194.9" font-family="SourceSans" font-size="8.00">svg::get_circumference</text>
<text text-anchor="middle" x="353.5" y="-185.15" font-family="SourceSans" font-size="8.00">_point_d</text>
</a>
</g>
</g>
<!-- Node5&#45;&gt;Node6 -->
<g id="edge5_Node000005_Node000006" class="edge">
<title>Node5&#45;&gt;Node6</title>
<g id="a_edge5_Node000005_Node000006"><a xlink:title=" ">
<path fill="none" stroke="#63b8ff" d="M221.96,-138.06C244.49,-147.49 279.96,-162.36 308.25,-174.21"/>
<polygon fill="#63b8ff" stroke="#63b8ff" points="306.72,-177.36 317.3,-178 309.43,-170.91 306.72,-177.36"/>
</a>
</g>
</g>
<!-- Node9 -->
<g id="Node000009" class="node">
<title>Node9</title>
<g id="a_Node000009"><a xlink:href="namespacesvg.html#a520130e7464e62521cf59e048a48cee7" target="_top" xlink:title="Line primitive.">
<polygon fill="white" stroke="#666666" points="391.88,-137.62 315.12,-137.62 315.12,-119.88 391.88,-119.88 391.88,-137.62"/>
<text text-anchor="middle" x="353.5" y="-126.03" font-family="SourceSans" font-size="8.00">svg::make_line</text>
</a>
</g>
</g>
<!-- Node5&#45;&gt;Node9 -->
<g id="edge8_Node000005_Node000009" class="edge">
<title>Node5&#45;&gt;Node9</title>
<g id="a_edge8_Node000005_Node000009"><a xlink:title=" ">
<path fill="none" stroke="#63b8ff" d="M257.5,-128.75C272.7,-128.75 288.95,-128.75 303.63,-128.75"/>
<polygon fill="#63b8ff" stroke="#63b8ff" points="303.5,-132.25 313.5,-128.75 303.5,-125.25 303.5,-132.25"/>
</a>
</g>
</g>
<!-- Node16 -->
<g id="Node000016" class="node">
<title>Node16</title>
<g id="a_Node000016"><a xlink:href="group__elements.html#ad893ef9c13a15464c96d8a85c08af30f" target="_top" xlink:title=" ">
<polygon fill="white" stroke="#666666" points="408.75,-101.62 298.25,-101.62 298.25,-83.88 408.75,-83.88 408.75,-101.62"/>
<text text-anchor="middle" x="353.5" y="-90.03" font-family="SourceSans" font-size="8.00">svg::element_base::str</text>
</a>
</g>
</g>
<!-- Node5&#45;&gt;Node16 -->
<g id="edge16_Node000005_Node000016" class="edge">
<title>Node5&#45;&gt;Node16</title>
<g id="a_edge16_Node000005_Node000016"><a xlink:title=" ">
<path fill="none" stroke="#63b8ff" d="M239.48,-119.39C258.58,-114.89 281.68,-109.44 302,-104.65"/>
<polygon fill="#63b8ff" stroke="#63b8ff" points="302.56,-108.12 311.49,-102.41 300.96,-101.3 302.56,-108.12"/>
</a>
</g>
</g>
<!-- Node17 -->
<g id="Node000017" class="node">
<title>Node17</title>
<g id="a_Node000017"><a xlink:href="namespacesvg.html#a46164d75fd5109e4ed8879abbacd5c11" target="_top" xlink:title="Zero degrees is top, going clockwise (cw).">
<polygon fill="white" stroke="#666666" points="414,-65.62 293,-65.62 293,-47.88 414,-47.88 414,-65.62"/>
<text text-anchor="middle" x="353.5" y="-54.02" font-family="SourceSans" font-size="8.00">svg::zero_angle_north_cw</text>
</a>
</g>
</g>
<!-- Node5&#45;&gt;Node17 -->
<g id="edge17_Node000005_Node000017" class="edge">
<title>Node5&#45;&gt;Node17</title>
<g id="a_edge17_Node000005_Node000017"><a xlink:title=" ">
<path fill="none" stroke="#63b8ff" d="M213.44,-119.46C231.16,-107.76 263.31,-87.63 293,-74.75 297.11,-72.96 301.46,-71.28 305.86,-69.72"/>
<polygon fill="#63b8ff" stroke="#63b8ff" points="306.96,-73.05 315.34,-66.57 304.75,-66.4 306.96,-73.05"/>
</a>
</g>
</g>
<!-- Node7 -->
<g id="Node000007" class="node">
<title>Node7</title>
<g id="a_Node000007"><a xlink:href="namespacesvg.html#aef05ac63d88a6102981d3faf37275297" target="_top" xlink:title="Angle in radians.">
<polygon fill="white" stroke="#666666" points="561.25,-247.5 450,-247.5 450,-220 561.25,-220 561.25,-247.5"/>
<text text-anchor="start" x="458" y="-235.9" font-family="SourceSans" font-size="8.00">svg::get_circumference</text>
<text text-anchor="middle" x="505.62" y="-226.15" font-family="SourceSans" font-size="8.00">_point_r</text>
</a>
</g>
</g>
<!-- Node6&#45;&gt;Node7 -->
<g id="edge6_Node000006_Node000007" class="edge">
<title>Node6&#45;&gt;Node7</title>
<g id="a_edge6_Node000006_Node000007"><a xlink:title=" ">
<path fill="none" stroke="#63b8ff" d="M406.59,-206.97C417.88,-210.06 429.94,-213.35 441.61,-216.54"/>
<polygon fill="#63b8ff" stroke="#63b8ff" points="440.6,-219.89 451.17,-219.15 442.45,-213.14 440.6,-219.89"/>
</a>
</g>
</g>
<!-- Node8 -->
<g id="Node000008" class="node">
<title>Node8</title>
<g id="a_Node000008"><a xlink:href="namespacesvg_1_1constants.html#a0e0b0d9314bc47324ee39884bf8bb2fd" target="_top" xlink:title=" ">
<polygon fill="white" stroke="#666666" points="550.75,-201.62 460.5,-201.62 460.5,-183.88 550.75,-183.88 550.75,-201.62"/>
<text text-anchor="middle" x="505.62" y="-190.03" font-family="SourceSans" font-size="8.00">svg::constants::pi</text>
</a>
</g>
</g>
<!-- Node6&#45;&gt;Node8 -->
<g id="edge7_Node000006_Node000008" class="edge">
<title>Node6&#45;&gt;Node8</title>
<g id="a_edge7_Node000006_Node000008"><a xlink:title=" ">
<path fill="none" stroke="#63b8ff" d="M409.55,-192.75C422.49,-192.75 436.29,-192.75 449.25,-192.75"/>
<polygon fill="#63b8ff" stroke="#63b8ff" points="448.87,-196.25 458.87,-192.75 448.87,-189.25 448.87,-196.25"/>
</a>
</g>
</g>
<!-- Node10 -->
<g id="Node000010" class="node">
<title>Node10</title>
<g id="a_Node000010"><a xlink:href="group__elements.html#a306eac4c5a7ea755ab6375a65489366f" target="_top" xlink:title=" ">
<polygon fill="white" stroke="#666666" points="553,-119.5 458.25,-119.5 458.25,-92 553,-92 553,-119.5"/>
<text text-anchor="start" x="466.25" y="-107.9" font-family="SourceSans" font-size="8.00">svg::line_element::</text>
<text text-anchor="middle" x="505.62" y="-98.15" font-family="SourceSans" font-size="8.00">add_data</text>
</a>
</g>
</g>
<!-- Node9&#45;&gt;Node10 -->
<g id="edge9_Node000009_Node000010" class="edge">
<title>Node9&#45;&gt;Node10</title>
<g id="a_edge9_Node000009_Node000010"><a xlink:title=" ">
<path fill="none" stroke="#63b8ff" d="M392,-123.01C408.54,-120.47 428.36,-117.43 446.73,-114.62"/>
<polygon fill="#63b8ff" stroke="#63b8ff" points="447.09,-118.11 456.44,-113.13 446.03,-111.19 447.09,-118.11"/>
</a>
</g>
</g>
<!-- Node12 -->
<g id="Node000012" class="node">
<title>Node12</title>
<g id="a_Node000012"><a xlink:href="group__elements.html#a238b38ca99a1cf6c2baf80c8e4338d99" target="_top" xlink:title=" ">
<polygon fill="white" stroke="#666666" points="555.62,-73.5 455.62,-73.5 455.62,-46 555.62,-46 555.62,-73.5"/>
<text text-anchor="start" x="463.62" y="-61.9" font-family="SourceSans" font-size="8.00">svg::element_base::</text>
<text text-anchor="middle" x="505.62" y="-52.15" font-family="SourceSans" font-size="8.00">add_style</text>
</a>
</g>
</g>
<!-- Node9&#45;&gt;Node12 -->
<g id="edge11_Node000009_Node000012" class="edge">
<title>Node9&#45;&gt;Node12</title>
<g id="a_edge11_Node000009_Node000012"><a xlink:title=" ">
<path fill="none" stroke="#63b8ff" d="M392.15,-119.65C399.59,-117.22 407.19,-114.27 414,-110.75 432,-101.44 432.51,-92.99 450,-82.75 452.29,-81.41 454.66,-80.11 457.09,-78.85"/>
<polygon fill="#63b8ff" stroke="#63b8ff" points="458.42,-82.1 465.89,-74.59 455.37,-75.8 458.42,-82.1"/>
</a>
</g>
</g>
<!-- Node14 -->
<g id="Node000014" class="node">
<title>Node14</title>
<g id="a_Node000014"><a xlink:href="group__elements.html#ga4769af15793cb308d426abb5fd552df5" target="_top" xlink:title=" ">
<polygon fill="white" stroke="#666666" points="553,-165.5 458.25,-165.5 458.25,-138 553,-138 553,-165.5"/>
<text text-anchor="start" x="466.25" y="-153.9" font-family="SourceSans" font-size="8.00">svg::line_element::</text>
<text text-anchor="middle" x="505.62" y="-144.15" font-family="SourceSans" font-size="8.00">finish_element</text>
</a>
</g>
</g>
<!-- Node9&#45;&gt;Node14 -->
<g id="edge13_Node000009_Node000014" class="edge">
<title>Node9&#45;&gt;Node14</title>
<g id="a_edge13_Node000009_Node000014"><a xlink:title=" ">
<path fill="none" stroke="#63b8ff" d="M392,-134.49C408.54,-137.03 428.36,-140.07 446.73,-142.88"/>
<polygon fill="#63b8ff" stroke="#63b8ff" points="446.03,-146.31 456.44,-144.37 447.09,-139.39 446.03,-146.31"/>
</a>
</g>
</g>
<!-- Node15 -->
<g id="Node000015" class="node">
<title>Node15</title>
<g id="a_Node000015"><a xlink:href="group__elements.html#aa6b4ba04be5858b4943235801f034943" target="_top" xlink:title=" ">
<polygon fill="white" stroke="#666666" points="553,-27.5 458.25,-27.5 458.25,0 553,0 553,-27.5"/>
<text text-anchor="start" x="466.25" y="-15.9" font-family="SourceSans" font-size="8.00">svg::line_element::</text>
<text text-anchor="middle" x="505.62" y="-6.15" font-family="SourceSans" font-size="8.00">start_element</text>
</a>
</g>
</g>
<!-- Node9&#45;&gt;Node15 -->
<g id="edge15_Node000009_Node000015" class="edge">
<title>Node9&#45;&gt;Node15</title>
<g id="a_edge15_Node000009_Node000015"><a xlink:title=" ">
<path fill="none" stroke="#63b8ff" d="M392.12,-122.46C399.98,-119.82 407.76,-116.07 414,-110.75 441.83,-87.02 423.45,-61.9 450,-36.75 450.9,-35.9 451.83,-35.08 452.79,-34.29"/>
<polygon fill="#63b8ff" stroke="#63b8ff" points="454.61,-37.29 460.89,-28.75 450.66,-31.51 454.61,-37.29"/>
</a>
</g>
</g>
<!-- Node11 -->
<g id="Node000011" class="node">
<title>Node11</title>
<g id="a_Node000011"><a xlink:href="namespacesvg.html#a48ac748e89e22789d1772326a98dd7b6" target="_top" xlink:title=" ">
<polygon fill="white" stroke="#666666" points="701.38,-114.62 608.12,-114.62 608.12,-96.88 701.38,-96.88 701.38,-114.62"/>
<text text-anchor="middle" x="654.75" y="-103.03" font-family="SourceSans" font-size="8.00">svg::string_replace</text>
</a>
</g>
</g>
<!-- Node10&#45;&gt;Node11 -->
<g id="edge10_Node000010_Node000011" class="edge">
<title>Node10&#45;&gt;Node11</title>
<g id="a_edge10_Node000010_Node000011"><a xlink:title=" ">
<path fill="none" stroke="#63b8ff" d="M553.18,-105.75C566.93,-105.75 582.14,-105.75 596.48,-105.75"/>
<polygon fill="#63b8ff" stroke="#63b8ff" points="596.24,-109.25 606.24,-105.75 596.24,-102.25 596.24,-109.25"/>
</a>
</g>
</g>
<!-- Node13 -->
<g id="Node000013" class="node">
<title>Node13</title>
<g id="a_Node000013"><a xlink:href="namespacesvg.html#a36b1c48ad4601b205790e3772ad0a7b6" target="_top" xlink:title=" ">
<polygon fill="white" stroke="#666666" points="690.5,-68.62 619,-68.62 619,-50.88 690.5,-50.88 690.5,-68.62"/>
<text text-anchor="middle" x="654.75" y="-57.02" font-family="SourceSans" font-size="8.00">svg::to_string</text>
</a>
</g>
</g>
<!-- Node12&#45;&gt;Node13 -->
<g id="edge12_Node000012_Node000013" class="edge">
<title>Node12&#45;&gt;Node13</title>
<g id="a_edge12_Node000012_Node000013"><a xlink:title=" ">
<path fill="none" stroke="#63b8ff" d="M556.02,-59.75C572.55,-59.75 590.9,-59.75 607.2,-59.75"/>
<polygon fill="#63b8ff" stroke="#63b8ff" points="607.14,-63.25 617.14,-59.75 607.14,-56.25 607.14,-63.25"/>
</a>
</g>
</g>
<!-- Node14&#45;&gt;Node3 -->
<g id="edge14_Node000014_Node000003" class="edge">
<title>Node14&#45;&gt;Node3</title>
<g id="a_edge14_Node000014_Node000003"><a xlink:title=" ">
<path fill="none" stroke="#63b8ff" d="M540.43,-165.98C547.32,-168.88 554.52,-171.91 561.25,-174.75 581.2,-183.16 603.57,-192.59 621.31,-200.07"/>
<polygon fill="#63b8ff" stroke="#63b8ff" points="619.73,-203.2 630.3,-203.86 622.45,-196.75 619.73,-203.2"/>
</a>
</g>
</g>
</g>
</svg>

<g id="navigator" transform="translate(0 0)" fill="#404254">
  <rect fill="#f2f5e9" fill-opacity="0.5" stroke="#606060" stroke-width=".5" x="0" y="0" width="60" height="60"/>
  <use id="zoomplus" xlink:href="#zoomPlus" x="17" y="9" onmousedown="handleZoom(evt,'in')"/>
  <use id="zoomminus" xlink:href="#zoomMin" x="42" y="9" onmousedown="handleZoom(evt,'out')"/>
  <use id="reset" xlink:href="#resetDef" x="30" y="36" onmousedown="handleReset()"/>
   <use id="arrowup" xlink:href="#arrowUp" x="0" y="0" onmousedown="handlePan(0,-1)"/>
  <use id="arrowright" xlink:href="#arrowRight" x="0" y="0" onmousedown="handlePan(1,0)"/>
  <use id="arrowdown" xlink:href="#arrowDown" x="0" y="0" onmousedown="handlePan(0,1)"/>
  <use id="arrowleft" xlink:href="#arrowLeft" x="0" y="0" onmousedown="handlePan(-1,0)"/>
</g>
<svg viewBox="0 0 15 15" width="100%" height="30px" preserveAspectRatio="xMaxYMin meet">
 <g id="arrow_out" transform="scale(0.3 0.3)">
  <a xlink:href="namespacesvg_a63791549798e3238ebb6b45846296918_cgraph_org.svg" target="_base">
   <rect id="button" ry="5" rx="5" y="6" x="6" height="38" width="38"
        fill="#f2f5e9" fill-opacity="0.5" stroke="#606060" stroke-width="1.0"/>
   <path id="arrow"
     d="M 11.500037,31.436501 C 11.940474,20.09759 22.043105,11.32322 32.158766,21.979434 L 37.068811,17.246167 C 37.068811,17.246167 37.088388,32 37.088388,32 L 22.160133,31.978069 C 22.160133,31.978069 26.997745,27.140456 26.997745,27.140456 C 18.528582,18.264221 13.291696,25.230495 11.500037,31.436501 z"
     style="fill:#404040;"/>
  </a>
 </g>
</svg>

<style type='text/css'>
<![CDATA[
[data-mouse-over-selected='false'] { opacity: 0.7; }
[data-mouse-over-selected='true']  { opacity: 1.0; }
]]>
</style>
<script type="application/ecmascript"><![CDATA[
document.addEventListener('DOMContentLoaded', (event) => {
  highlightEdges();
  highlightAdjacentNodes();
});
]]></script>
</svg>
