<?xml version="1.0" encoding="UTF-8" standalone="no"?>
<!DOCTYPE svg PUBLIC "-//W3C//DTD SVG 1.1//EN"
 "http://www.w3.org/Graphics/SVG/1.1/DTD/svg11.dtd">
<!-- Generated by graphviz version 12.2.1 (20241206.2353)
 -->
<!-- Title: svg::make_line_graph_markers_tips Pages: 1 -->
<!--zoomable 623 -->

<svg id="main" version="1.1" xmlns="http://www.w3.org/2000/svg" xmlns:xlink="http://www.w3.org/1999/xlink" xml:space="preserve" onload="init(evt)">

<style type="text/css"><![CDATA[
.node, .edge {opacity: 0.7;}
.node.selected, .edge.selected {opacity: 1;}
.edge:hover path { stroke: red; }
.edge:hover polygon { stroke: red; fill: red; }
]]></style>

<defs>
  <circle id="rim" cx="0" cy="0" r="7"/>
  <circle id="rim2" cx="0" cy="0" r="3.5"/>
  <g id="zoomPlus">
    <use xlink:href="#rim" fill="#404040"><set attributeName="fill" to="#808080" begin="zoomplus.mouseover" end="zoomplus.mouseout"/></use>
    <path d="M-4,0h8M0,-4v8" fill="none" stroke="white" stroke-width="1.5" pointer-events="none"/>
  </g>
  <g id="zoomMin">
    <use xlink:href="#rim" fill="#404040"><set attributeName="fill" to="#808080" begin="zoomminus.mouseover" end="zoomminus.mouseout"/></use>
    <path d="M-4,0h8" fill="none" stroke="white" stroke-width="1.5" pointer-events="none"/>
  </g>
  <g id="arrowUp" transform="translate(30 24)">
    <use xlink:href="#rim"/>
    <path pointer-events="none" fill="none" stroke="white" stroke-width="1.5" d="M0,-3.0v7 M-2.5,-0.5L0,-3.0L2.5,-0.5"/>
  </g>
  <g id="arrowRight" transform="rotate(90) translate(36 -43)">
    <use xlink:href="#rim"/>
    <path pointer-events="none" fill="none" stroke="white" stroke-width="1.5" d="M0,-3.0v7 M-2.5,-0.5L0,-3.0L2.5,-0.5"/>
  </g>
  <g id="arrowDown" transform="rotate(180) translate(-30 -48)">
    <use xlink:href="#rim"/>
    <path pointer-events="none" fill="none" stroke="white" stroke-width="1.5" d="M0,-3.0v7 M-2.5,-0.5L0,-3.0L2.5,-0.5"/>
  </g>
  <g id="arrowLeft" transform="rotate(270) translate(-36 17)">
    <use xlink:href="#rim"/>
    <path pointer-events="none" fill="none" stroke="white" stroke-width="1.5" d="M0,-3.0v7 M-2.5,-0.5L0,-3.0L2.5,-0.5"/>
  </g>
  <g id="resetDef">
    <use xlink:href="#rim2" fill="#404040"><set attributeName="fill" to="#808080" begin="reset.mouseover" end="reset.mouseout"/></use>
  </g>
</defs>
<script type="application/ecmascript">
var viewWidth = 702;
var viewHeight = 623;
var sectionId = 'dynsection-39';
</script>
<script type="application/ecmascript" xlink:href="svg.min.js"/>
<svg id="graph" class="graph">
<g id="viewport">
<title>svg::make_line_graph_markers_tips</title>
<!-- Node1 -->
<g id="Node000001" class="node">
<title>Node1</title>
<g id="a_Node000001"><a xlink:title="Return set of paths corresponding to marker shapes with tooltips.">
<polygon fill="#999999" stroke="#666666" points="104.5,-361.5 0,-361.5 0,-334 104.5,-334 104.5,-361.5"/>
<text text-anchor="start" x="8" y="-349.9" font-family="SourceSans" font-size="8.00">svg::make_line_graph</text>
<text text-anchor="middle" x="52.25" y="-340.15" font-family="SourceSans" font-size="8.00">_markers_tips</text>
</a>
</g>
</g>
<!-- Node2 -->
<g id="Node000002" class="node">
<title>Node2</title>
<g id="a_Node000002"><a xlink:href="group__elements.html#a519382631540ecedee961bfb53e9ae87" target="_top" xlink:title=" ">
<polygon fill="white" stroke="#666666" points="246.12,-549.5 150.62,-549.5 150.62,-522 246.12,-522 246.12,-549.5"/>
<text text-anchor="start" x="158.62" y="-537.9" font-family="SourceSans" font-size="8.00">svg::circle_element</text>
<text text-anchor="middle" x="198.38" y="-528.15" font-family="SourceSans" font-size="8.00">::add_data</text>
</a>
</g>
</g>
<!-- Node1&#45;&gt;Node2 -->
<g id="edge1_Node000001_Node000002" class="edge">
<title>Node1&#45;&gt;Node2</title>
<g id="a_edge1_Node000001_Node000002"><a xlink:title=" ">
<path fill="none" stroke="#63b8ff" d="M58.14,-361.89C68.93,-391.42 97.33,-460.47 140.5,-503.75 144.9,-508.16 150.04,-512.15 155.39,-515.71"/>
<polygon fill="#63b8ff" stroke="#63b8ff" points="153.48,-518.64 163.84,-520.83 157.1,-512.65 153.48,-518.64"/>
</a>
</g>
</g>
<!-- Node5 -->
<g id="Node000005" class="node">
<title>Node5</title>
<g id="a_Node000005"><a xlink:href="group__elements.html#a1dd6663d882fb5dd14a47462a77f351b" target="_top" xlink:title="Either serialize immediately (as below), or create data structure that adds data to data_vec and then...">
<polygon fill="white" stroke="#666666" points="245.75,-614.5 151,-614.5 151,-587 245.75,-587 245.75,-614.5"/>
<text text-anchor="start" x="159" y="-602.9" font-family="SourceSans" font-size="8.00">svg::rect_element::</text>
<text text-anchor="middle" x="198.38" y="-593.15" font-family="SourceSans" font-size="8.00">add_data</text>
</a>
</g>
</g>
<!-- Node1&#45;&gt;Node5 -->
<g id="edge4_Node000001_Node000005" class="edge">
<title>Node1&#45;&gt;Node5</title>
<g id="a_edge4_Node000001_Node000005"><a xlink:title=" ">
<path fill="none" stroke="#63b8ff" d="M56.3,-361.91C64.61,-397.94 90.46,-494.72 140.5,-558.75 146.82,-566.83 155.07,-574.11 163.32,-580.25"/>
<polygon fill="#63b8ff" stroke="#63b8ff" points="161.09,-582.96 171.29,-585.82 165.09,-577.22 161.09,-582.96"/>
</a>
</g>
</g>
<!-- Node6 -->
<g id="Node000006" class="node">
<title>Node6</title>
<g id="a_Node000006"><a xlink:href="group__elements.html#acafbdd950c6c2639c9d376c3eab696e5" target="_top" xlink:title=" ">
<polygon fill="white" stroke="#666666" points="554.88,-507.5 454.88,-507.5 454.88,-480 554.88,-480 554.88,-507.5"/>
<text text-anchor="start" x="462.88" y="-495.9" font-family="SourceSans" font-size="8.00">svg::element_base::</text>
<text text-anchor="middle" x="504.88" y="-486.15" font-family="SourceSans" font-size="8.00">add_raw</text>
</a>
</g>
</g>
<!-- Node1&#45;&gt;Node6 -->
<g id="edge6_Node000001_Node000006" class="edge">
<title>Node1&#45;&gt;Node6</title>
<g id="a_edge6_Node000001_Node000006"><a xlink:title=" ">
<path fill="none" stroke="#63b8ff" d="M68.75,-361.94C85.32,-376.34 112.94,-398.24 140.5,-410.75 241.04,-456.38 368.98,-478.05 443.13,-487.44"/>
<polygon fill="#63b8ff" stroke="#63b8ff" points="442.7,-490.91 453.06,-488.66 443.56,-483.96 442.7,-490.91"/>
</a>
</g>
</g>
<!-- Node7 -->
<g id="Node000007" class="node">
<title>Node7</title>
<g id="a_Node000007"><a xlink:href="group__elements.html#a238b38ca99a1cf6c2baf80c8e4338d99" target="_top" xlink:title=" ">
<polygon fill="white" stroke="#666666" points="554.88,-461.5 454.88,-461.5 454.88,-434 554.88,-434 554.88,-461.5"/>
<text text-anchor="start" x="462.88" y="-449.9" font-family="SourceSans" font-size="8.00">svg::element_base::</text>
<text text-anchor="middle" x="504.88" y="-440.15" font-family="SourceSans" font-size="8.00">add_style</text>
</a>
</g>
</g>
<!-- Node1&#45;&gt;Node7 -->
<g id="edge7_Node000001_Node000007" class="edge">
<title>Node1&#45;&gt;Node7</title>
<g id="a_edge7_Node000001_Node000007"><a xlink:title=" ">
<path fill="none" stroke="#63b8ff" d="M90.75,-361.92C137.32,-378.95 219.53,-407.19 292.25,-422.75 342.62,-433.53 400.8,-439.98 443.39,-443.62"/>
<polygon fill="#63b8ff" stroke="#63b8ff" points="442.94,-447.09 453.19,-444.43 443.51,-440.12 442.94,-447.09"/>
</a>
</g>
</g>
<!-- Node9 -->
<g id="Node000009" class="node">
<title>Node9</title>
<g id="a_Node000009"><a xlink:href="group__elements.html#a7995b78d94e1c299065c9dd3569fef7c" target="_top" xlink:title=" ">
<polygon fill="white" stroke="#666666" points="248.38,-226.5 148.38,-226.5 148.38,-199 248.38,-199 248.38,-226.5"/>
<text text-anchor="start" x="156.38" y="-214.9" font-family="SourceSans" font-size="8.00">svg::element_base::</text>
<text text-anchor="middle" x="198.38" y="-205.15" font-family="SourceSans" font-size="8.00">add_title</text>
</a>
</g>
</g>
<!-- Node1&#45;&gt;Node9 -->
<g id="edge9_Node000001_Node000009" class="edge">
<title>Node1&#45;&gt;Node9</title>
<g id="a_edge9_Node000001_Node000009"><a xlink:title=" ">
<path fill="none" stroke="#63b8ff" d="M68.4,-333.56C93.66,-309.9 144.53,-262.25 174.28,-234.38"/>
<polygon fill="#63b8ff" stroke="#63b8ff" points="176.42,-237.18 181.32,-227.79 171.63,-232.07 176.42,-237.18"/>
</a>
</g>
</g>
<!-- Node11 -->
<g id="Node000011" class="node">
<title>Node11</title>
<g id="a_Node000011"><a xlink:href="group__elements.html#ad893ef9c13a15464c96d8a85c08af30f" target="_top" xlink:title=" ">
<polygon fill="white" stroke="#666666" points="560.12,-137.62 449.62,-137.62 449.62,-119.88 560.12,-119.88 560.12,-137.62"/>
<text text-anchor="middle" x="504.88" y="-126.03" font-family="SourceSans" font-size="8.00">svg::element_base::str</text>
</a>
</g>
</g>
<!-- Node1&#45;&gt;Node11 -->
<g id="edge32_Node000001_Node000011" class="edge">
<title>Node1&#45;&gt;Node11</title>
<g id="a_edge32_Node000001_Node000011"><a xlink:title=" ">
<path fill="none" stroke="#63b8ff" d="M57.64,-333.58C67.67,-303.36 94.96,-231.88 140.5,-189.75 232.29,-104.84 288.33,-115.25 413.25,-120.75 421.28,-121.1 429.69,-121.63 438.03,-122.25"/>
<polygon fill="#63b8ff" stroke="#63b8ff" points="437.54,-125.73 447.79,-123.03 438.09,-118.75 437.54,-125.73"/>
</a>
</g>
</g>
<!-- Node14 -->
<g id="Node000014" class="node">
<title>Node14</title>
<g id="a_Node000014"><a xlink:href="namespacesvg.html#a5c3daa77c4f641f5ac5fd9d31a8c15d3" target="_top" xlink:title="Center a triangle at this point.">
<polygon fill="white" stroke="#666666" points="256.25,-356.62 140.5,-356.62 140.5,-338.88 256.25,-338.88 256.25,-356.62"/>
<text text-anchor="middle" x="198.38" y="-345.02" font-family="SourceSans" font-size="8.00">svg::make_path_triangle</text>
</a>
</g>
</g>
<!-- Node1&#45;&gt;Node14 -->
<g id="edge14_Node000001_Node000014" class="edge">
<title>Node1&#45;&gt;Node14</title>
<g id="a_edge14_Node000001_Node000014"><a xlink:title=" ">
<path fill="none" stroke="#63b8ff" d="M104.88,-347.75C112.67,-347.75 120.81,-347.75 128.9,-347.75"/>
<polygon fill="#63b8ff" stroke="#63b8ff" points="128.73,-351.25 138.73,-347.75 128.73,-344.25 128.73,-351.25"/>
</a>
</g>
</g>
<!-- Node26 -->
<g id="Node000026" class="node">
<title>Node26</title>
<g id="a_Node000026"><a xlink:href="group__elements.html#a793cb6b40b2aea335b11f14fd327cde8" target="_top" xlink:title=" ">
<polygon fill="white" stroke="#666666" points="246.12,-73.5 150.62,-73.5 150.62,-46 246.12,-46 246.12,-73.5"/>
<text text-anchor="start" x="158.62" y="-61.9" font-family="SourceSans" font-size="8.00">svg::circle_element</text>
<text text-anchor="middle" x="198.38" y="-52.15" font-family="SourceSans" font-size="8.00">::start_element</text>
</a>
</g>
</g>
<!-- Node1&#45;&gt;Node26 -->
<g id="edge30_Node000001_Node000026" class="edge">
<title>Node1&#45;&gt;Node26</title>
<g id="a_edge30_Node000001_Node000026"><a xlink:title=" ">
<path fill="none" stroke="#63b8ff" d="M54.23,-333.78C57.9,-291.57 74.21,-163.55 140.5,-87.75 142.93,-84.97 145.69,-82.45 148.67,-80.15"/>
<polygon fill="#63b8ff" stroke="#63b8ff" points="150.41,-83.19 156.82,-74.76 146.55,-77.35 150.41,-83.19"/>
</a>
</g>
</g>
<!-- Node27 -->
<g id="Node000027" class="node">
<title>Node27</title>
<g id="a_Node000027"><a xlink:href="group__elements.html#a1e0ed5e9dfe1244317a87d7e6774348b" target="_top" xlink:title=" ">
<polygon fill="white" stroke="#666666" points="245.75,-27.5 151,-27.5 151,0 245.75,0 245.75,-27.5"/>
<text text-anchor="start" x="159" y="-15.9" font-family="SourceSans" font-size="8.00">svg::rect_element::</text>
<text text-anchor="middle" x="198.38" y="-6.15" font-family="SourceSans" font-size="8.00">start_element</text>
</a>
</g>
</g>
<!-- Node1&#45;&gt;Node27 -->
<g id="edge31_Node000001_Node000027" class="edge">
<title>Node1&#45;&gt;Node27</title>
<g id="a_edge31_Node000001_Node000027"><a xlink:title=" ">
<path fill="none" stroke="#63b8ff" d="M53.06,-333.62C53.17,-285.62 59.91,-126.8 140.5,-36.75 141.07,-36.11 141.67,-35.49 142.28,-34.88"/>
<polygon fill="#63b8ff" stroke="#63b8ff" points="144.23,-37.8 149.93,-28.87 139.9,-32.3 144.23,-37.8"/>
</a>
</g>
</g>
<!-- Node3 -->
<g id="Node000003" class="node">
<title>Node3</title>
<g id="a_Node000003"><a xlink:href="group__elements.html#a53d72a7ff728ad1d4d027254530bcf3d" target="_top" xlink:title="Common transforms include rotate(180)">
<polygon fill="white" stroke="#666666" points="402.75,-591.5 302.75,-591.5 302.75,-564 402.75,-564 402.75,-591.5"/>
<text text-anchor="start" x="310.75" y="-579.9" font-family="SourceSans" font-size="8.00">svg::element_base::</text>
<text text-anchor="middle" x="352.75" y="-570.15" font-family="SourceSans" font-size="8.00">add_transform</text>
</a>
</g>
</g>
<!-- Node2&#45;&gt;Node3 -->
<g id="edge2_Node000002_Node000003" class="edge">
<title>Node2&#45;&gt;Node3</title>
<g id="a_edge2_Node000002_Node000003"><a xlink:title=" ">
<path fill="none" stroke="#63b8ff" d="M246.34,-548.69C260.62,-552.63 276.52,-557.01 291.55,-561.16"/>
<polygon fill="#63b8ff" stroke="#63b8ff" points="290.28,-564.44 300.85,-563.72 292.14,-557.69 290.28,-564.44"/>
</a>
</g>
</g>
<!-- Node4 -->
<g id="Node000004" class="node">
<title>Node4</title>
<g id="a_Node000004"><a xlink:href="namespacesvg.html#a48ac748e89e22789d1772326a98dd7b6" target="_top" xlink:title=" ">
<polygon fill="white" stroke="#666666" points="692,-544.62 598.75,-544.62 598.75,-526.88 692,-526.88 692,-544.62"/>
<text text-anchor="middle" x="645.38" y="-533.02" font-family="SourceSans" font-size="8.00">svg::string_replace</text>
</a>
</g>
</g>
<!-- Node2&#45;&gt;Node4 -->
<g id="edge3_Node000002_Node000004" class="edge">
<title>Node2&#45;&gt;Node4</title>
<g id="a_edge3_Node000002_Node000004"><a xlink:title=" ">
<path fill="none" stroke="#63b8ff" d="M246.58,-535.75C328.78,-535.75 497.92,-535.75 586.85,-535.75"/>
<polygon fill="#63b8ff" stroke="#63b8ff" points="586.81,-539.25 596.81,-535.75 586.81,-532.25 586.81,-539.25"/>
</a>
</g>
</g>
<!-- Node5&#45;&gt;Node4 -->
<g id="edge5_Node000005_Node000004" class="edge">
<title>Node5&#45;&gt;Node4</title>
<g id="a_edge5_Node000005_Node000004"><a xlink:title=" ">
<path fill="none" stroke="#63b8ff" d="M245.94,-604.4C289.43,-606.94 356.05,-608.64 413.25,-600.75 484.43,-590.93 564.55,-564.86 609.3,-548.88"/>
<polygon fill="#63b8ff" stroke="#63b8ff" points="610.25,-552.26 618.46,-545.56 607.87,-545.68 610.25,-552.26"/>
</a>
</g>
</g>
<!-- Node8 -->
<g id="Node000008" class="node">
<title>Node8</title>
<g id="a_Node000008"><a xlink:href="namespacesvg.html#a36b1c48ad4601b205790e3772ad0a7b6" target="_top" xlink:title=" ">
<polygon fill="white" stroke="#666666" points="681.12,-412.62 609.62,-412.62 609.62,-394.88 681.12,-394.88 681.12,-412.62"/>
<text text-anchor="middle" x="645.38" y="-401.02" font-family="SourceSans" font-size="8.00">svg::to_string</text>
</a>
</g>
</g>
<!-- Node7&#45;&gt;Node8 -->
<g id="edge8_Node000007_Node000008" class="edge">
<title>Node7&#45;&gt;Node8</title>
<g id="a_edge8_Node000007_Node000008"><a xlink:title=" ">
<path fill="none" stroke="#63b8ff" d="M550.46,-433.59C567.84,-428.06 587.61,-421.78 604.52,-416.41"/>
<polygon fill="#63b8ff" stroke="#63b8ff" points="605.24,-419.85 613.71,-413.49 603.12,-413.18 605.24,-419.85"/>
</a>
</g>
</g>
<!-- Node10 -->
<g id="Node000010" class="node">
<title>Node10</title>
<g id="a_Node000010"><a xlink:href="group__elements.html#ada0333b46b2547c6152f3f5811016a12" target="_top" xlink:title=" ">
<polygon fill="white" stroke="#666666" points="402.75,-249.5 302.75,-249.5 302.75,-222 402.75,-222 402.75,-249.5"/>
<text text-anchor="start" x="310.75" y="-237.9" font-family="SourceSans" font-size="8.00">svg::element_base::</text>
<text text-anchor="middle" x="352.75" y="-228.15" font-family="SourceSans" font-size="8.00">add_element</text>
</a>
</g>
</g>
<!-- Node9&#45;&gt;Node10 -->
<g id="edge10_Node000009_Node000010" class="edge">
<title>Node9&#45;&gt;Node10</title>
<g id="a_edge10_Node000009_Node000010"><a xlink:title=" ">
<path fill="none" stroke="#63b8ff" d="M248.85,-220.22C262.35,-222.26 277.15,-224.49 291.2,-226.61"/>
<polygon fill="#63b8ff" stroke="#63b8ff" points="290.36,-230.02 300.77,-228.05 291.4,-223.1 290.36,-230.02"/>
</a>
</g>
</g>
<!-- Node12 -->
<g id="Node000012" class="node">
<title>Node12</title>
<g id="a_Node000012"><a xlink:href="group__elements.html#ga3d62381f8edcccd3d91f82af55f11274" target="_top" xlink:title=" ">
<polygon fill="white" stroke="#666666" points="397.5,-157.5 308,-157.5 308,-130 397.5,-130 397.5,-157.5"/>
<text text-anchor="start" x="316" y="-145.9" font-family="SourceSans" font-size="8.00">svg::title_element</text>
<text text-anchor="middle" x="352.75" y="-136.15" font-family="SourceSans" font-size="8.00">::finish_element</text>
</a>
</g>
</g>
<!-- Node9&#45;&gt;Node12 -->
<g id="edge12_Node000009_Node000012" class="edge">
<title>Node9&#45;&gt;Node12</title>
<g id="a_edge12_Node000009_Node000012"><a xlink:title=" ">
<path fill="none" stroke="#63b8ff" d="M226.3,-198.61C244.67,-189.15 269.69,-176.67 292.25,-166.75 295.75,-165.21 299.39,-163.67 303.07,-162.15"/>
<polygon fill="#63b8ff" stroke="#63b8ff" points="304.08,-165.52 312.05,-158.53 301.46,-159.02 304.08,-165.52"/>
</a>
</g>
</g>
<!-- Node13 -->
<g id="Node000013" class="node">
<title>Node13</title>
<g id="a_Node000013"><a xlink:href="group__elements.html#a41dcaa1132c502cb86c01aae1e7b9ff2" target="_top" xlink:title=" ">
<polygon fill="white" stroke="#666666" points="397.5,-203.5 308,-203.5 308,-176 397.5,-176 397.5,-203.5"/>
<text text-anchor="start" x="316" y="-191.9" font-family="SourceSans" font-size="8.00">svg::title_element</text>
<text text-anchor="middle" x="352.75" y="-182.15" font-family="SourceSans" font-size="8.00">::start_element</text>
</a>
</g>
</g>
<!-- Node9&#45;&gt;Node13 -->
<g id="edge13_Node000009_Node000013" class="edge">
<title>Node9&#45;&gt;Node13</title>
<g id="a_edge13_Node000009_Node000013"><a xlink:title=" ">
<path fill="none" stroke="#63b8ff" d="M248.85,-205.28C264.09,-202.98 280.97,-200.43 296.57,-198.08"/>
<polygon fill="#63b8ff" stroke="#63b8ff" points="296.8,-201.58 306.17,-196.63 295.76,-194.66 296.8,-201.58"/>
</a>
</g>
</g>
<!-- Node10&#45;&gt;Node11 -->
<g id="edge11_Node000010_Node000011" class="edge">
<title>Node10&#45;&gt;Node11</title>
<g id="a_edge11_Node000010_Node000011"><a xlink:title=" ">
<path fill="none" stroke="#63b8ff" d="M398.38,-221.59C403.62,-219.05 408.71,-216.11 413.25,-212.75 434.11,-197.29 430.38,-184.58 449.25,-166.75 458.1,-158.39 468.92,-150.47 478.59,-144.05"/>
<polygon fill="#63b8ff" stroke="#63b8ff" points="480.31,-147.1 486.84,-138.76 476.54,-141.21 480.31,-147.1"/>
</a>
</g>
</g>
<!-- Node15 -->
<g id="Node000015" class="node">
<title>Node15</title>
<g id="a_Node000015"><a xlink:href="namespacesvg.html#ab44508c4aeca591141ebec50145b75cd" target="_top" xlink:title="Angle in degrees.">
<polygon fill="white" stroke="#666666" points="408.38,-341.5 297.12,-341.5 297.12,-314 408.38,-314 408.38,-341.5"/>
<text text-anchor="start" x="305.12" y="-329.9" font-family="SourceSans" font-size="8.00">svg::get_circumference</text>
<text text-anchor="middle" x="352.75" y="-320.15" font-family="SourceSans" font-size="8.00">_point_d</text>
</a>
</g>
</g>
<!-- Node14&#45;&gt;Node15 -->
<g id="edge15_Node000014_Node000015" class="edge">
<title>Node14&#45;&gt;Node15</title>
<g id="a_edge15_Node000014_Node000015"><a xlink:title=" ">
<path fill="none" stroke="#63b8ff" d="M256.55,-340.25C266.02,-339 275.9,-337.71 285.57,-336.44"/>
<polygon fill="#63b8ff" stroke="#63b8ff" points="285.82,-339.93 295.28,-335.16 284.91,-332.99 285.82,-339.93"/>
</a>
</g>
</g>
<!-- Node17 -->
<g id="Node000017" class="node">
<title>Node17</title>
<g id="a_Node000017"><a xlink:href="namespacesvg.html#a8b2e7da5235688e0f753d35fc1079c87" target="_top" xlink:title="Draw path given serialized path data. Assumes pinstripe, ie top and bottom line layers....">
<polygon fill="white" stroke="#666666" points="393,-413.62 312.5,-413.62 312.5,-395.88 393,-395.88 393,-413.62"/>
<text text-anchor="middle" x="352.75" y="-402.02" font-family="SourceSans" font-size="8.00">svg::make_path</text>
</a>
</g>
</g>
<!-- Node14&#45;&gt;Node17 -->
<g id="edge17_Node000014_Node000017" class="edge">
<title>Node14&#45;&gt;Node17</title>
<g id="a_edge17_Node000014_Node000017"><a xlink:title=" ">
<path fill="none" stroke="#63b8ff" d="M219.79,-357.04C238.45,-365.37 266.91,-377.63 292.25,-386.75 297.31,-388.57 302.66,-390.37 307.99,-392.08"/>
<polygon fill="#63b8ff" stroke="#63b8ff" points="306.78,-395.37 317.37,-395 308.86,-388.69 306.78,-395.37"/>
</a>
</g>
</g>
<!-- Node23 -->
<g id="Node000023" class="node">
<title>Node23</title>
<g id="a_Node000023"><a xlink:href="namespacesvg.html#a2c65de7707b8b7b1bca959a3a2bbba91" target="_top" xlink:title="Make single path segment.">
<polygon fill="white" stroke="#666666" points="404.25,-295.5 301.25,-295.5 301.25,-268 404.25,-268 404.25,-295.5"/>
<text text-anchor="start" x="309.25" y="-283.9" font-family="SourceSans" font-size="8.00">svg::make_path_data</text>
<text text-anchor="middle" x="352.75" y="-274.15" font-family="SourceSans" font-size="8.00">_from_points</text>
</a>
</g>
</g>
<!-- Node14&#45;&gt;Node23 -->
<g id="edge27_Node000014_Node000023" class="edge">
<title>Node14&#45;&gt;Node23</title>
<g id="a_edge27_Node000014_Node000023"><a xlink:title=" ">
<path fill="none" stroke="#63b8ff" d="M218.42,-338.49C237.08,-329.52 266.41,-315.71 292.25,-304.75 295.82,-303.23 299.54,-301.7 303.28,-300.19"/>
<polygon fill="#63b8ff" stroke="#63b8ff" points="304.43,-303.5 312.42,-296.54 301.84,-296.99 304.43,-303.5"/>
</a>
</g>
</g>
<!-- Node25 -->
<g id="Node000025" class="node">
<title>Node25</title>
<g id="a_Node000025"><a xlink:href="namespacesvg.html#a46164d75fd5109e4ed8879abbacd5c11" target="_top" xlink:title="Zero degrees is top, going clockwise (cw).">
<polygon fill="white" stroke="#666666" points="413.25,-377.62 292.25,-377.62 292.25,-359.88 413.25,-359.88 413.25,-377.62"/>
<text text-anchor="middle" x="352.75" y="-366.02" font-family="SourceSans" font-size="8.00">svg::zero_angle_north_cw</text>
</a>
</g>
</g>
<!-- Node14&#45;&gt;Node25 -->
<g id="edge29_Node000014_Node000025" class="edge">
<title>Node14&#45;&gt;Node25</title>
<g id="a_edge29_Node000014_Node000025"><a xlink:title=" ">
<path fill="none" stroke="#63b8ff" d="M256.55,-355.63C264.41,-356.71 272.56,-357.84 280.64,-358.95"/>
<polygon fill="#63b8ff" stroke="#63b8ff" points="280.08,-362.41 290.47,-360.3 281.04,-355.47 280.08,-362.41"/>
</a>
</g>
</g>
<!-- Node16 -->
<g id="Node000016" class="node">
<title>Node16</title>
<g id="a_Node000016"><a xlink:href="namespacesvg.html#aef05ac63d88a6102981d3faf37275297" target="_top" xlink:title="Angle in radians.">
<polygon fill="white" stroke="#666666" points="560.5,-239.5 449.25,-239.5 449.25,-212 560.5,-212 560.5,-239.5"/>
<text text-anchor="start" x="457.25" y="-227.9" font-family="SourceSans" font-size="8.00">svg::get_circumference</text>
<text text-anchor="middle" x="504.88" y="-218.15" font-family="SourceSans" font-size="8.00">_point_r</text>
</a>
</g>
</g>
<!-- Node15&#45;&gt;Node16 -->
<g id="edge16_Node000015_Node000016" class="edge">
<title>Node15&#45;&gt;Node16</title>
<g id="a_edge16_Node000015_Node000016"><a xlink:title=" ">
<path fill="none" stroke="#63b8ff" d="M399.6,-313.53C404.46,-311.02 409.13,-308.11 413.25,-304.75 436.18,-286.05 426.6,-267.79 449.25,-248.75 450.51,-247.69 451.82,-246.68 453.17,-245.71"/>
<polygon fill="#63b8ff" stroke="#63b8ff" points="454.66,-248.9 461.33,-240.67 450.98,-242.95 454.66,-248.9"/>
</a>
</g>
</g>
<!-- Node17&#45;&gt;Node6 -->
<g id="edge20_Node000017_Node000006" class="edge">
<title>Node17&#45;&gt;Node6</title>
<g id="a_edge20_Node000017_Node000006"><a xlink:title=" ">
<path fill="none" stroke="#63b8ff" d="M365.3,-413.91C382.77,-427.48 417.27,-453.21 449.25,-470.75 451.74,-472.11 454.32,-473.45 456.95,-474.75"/>
<polygon fill="#63b8ff" stroke="#63b8ff" points="455.33,-477.85 465.87,-478.92 458.29,-471.51 455.33,-477.85"/>
</a>
</g>
</g>
<!-- Node17&#45;&gt;Node7 -->
<g id="edge21_Node000017_Node000007" class="edge">
<title>Node17&#45;&gt;Node7</title>
<g id="a_edge21_Node000017_Node000007"><a xlink:title=" ">
<path fill="none" stroke="#63b8ff" d="M386.32,-414.08C403.06,-418.87 423.98,-424.87 443.53,-430.46"/>
<polygon fill="#63b8ff" stroke="#63b8ff" points="442.49,-433.81 453.06,-433.2 444.41,-427.08 442.49,-433.81"/>
</a>
</g>
</g>
<!-- Node17&#45;&gt;Node8 -->
<g id="edge26_Node000017_Node000008" class="edge">
<title>Node17&#45;&gt;Node8</title>
<g id="a_edge26_Node000017_Node000008"><a xlink:title=" ">
<path fill="none" stroke="#63b8ff" d="M384.61,-395.39C407.5,-388.64 436.82,-380.41 449.25,-378.75 498.26,-372.2 511.57,-371.61 560.5,-378.75 576.79,-381.13 594.32,-385.97 609.12,-390.77"/>
<polygon fill="#63b8ff" stroke="#63b8ff" points="607.81,-394.02 618.41,-393.9 610.05,-387.39 607.81,-394.02"/>
</a>
</g>
</g>
<!-- Node18 -->
<g id="Node000018" class="node">
<title>Node18</title>
<g id="a_Node000018"><a xlink:href="group__elements.html#a807f3c30f2ace338ad10aaf230b47665" target="_top" xlink:title="Either serialize immediately (as below), or create data structure that adds data to data_vec and then...">
<polygon fill="white" stroke="#666666" points="554.12,-415.5 455.62,-415.5 455.62,-388 554.12,-388 554.12,-415.5"/>
<text text-anchor="start" x="463.62" y="-403.9" font-family="SourceSans" font-size="8.00">svg::path_element::</text>
<text text-anchor="middle" x="504.88" y="-394.15" font-family="SourceSans" font-size="8.00">add_data</text>
</a>
</g>
</g>
<!-- Node17&#45;&gt;Node18 -->
<g id="edge18_Node000017_Node000018" class="edge">
<title>Node17&#45;&gt;Node18</title>
<g id="a_edge18_Node000017_Node000018"><a xlink:title=" ">
<path fill="none" stroke="#63b8ff" d="M393.19,-403.96C408.8,-403.65 427.08,-403.28 444.24,-402.94"/>
<polygon fill="#63b8ff" stroke="#63b8ff" points="443.87,-406.45 453.8,-402.75 443.73,-399.45 443.87,-406.45"/>
</a>
</g>
</g>
<!-- Node19 -->
<g id="Node000019" class="node">
<title>Node19</title>
<g id="a_Node000019"><a xlink:href="group__elements.html#gaac30ae99fb1a2542688fa1ffb43cd8e1" target="_top" xlink:title=" ">
<polygon fill="white" stroke="#666666" points="554.12,-285.5 455.62,-285.5 455.62,-258 554.12,-258 554.12,-285.5"/>
<text text-anchor="start" x="463.62" y="-273.9" font-family="SourceSans" font-size="8.00">svg::path_element::</text>
<text text-anchor="middle" x="504.88" y="-264.15" font-family="SourceSans" font-size="8.00">finish_element</text>
</a>
</g>
</g>
<!-- Node17&#45;&gt;Node19 -->
<g id="edge22_Node000017_Node000019" class="edge">
<title>Node17&#45;&gt;Node19</title>
<g id="a_edge22_Node000017_Node000019"><a xlink:title=" ">
<path fill="none" stroke="#63b8ff" d="M393.24,-398.28C400.54,-395.65 407.62,-391.95 413.25,-386.75 445.5,-356.96 418.6,-326.19 449.25,-294.75 449.97,-294.01 450.72,-293.29 451.5,-292.59"/>
<polygon fill="#63b8ff" stroke="#63b8ff" points="453.35,-295.57 459.36,-286.84 449.22,-289.92 453.35,-295.57"/>
</a>
</g>
</g>
<!-- Node21 -->
<g id="Node000021" class="node">
<title>Node21</title>
<g id="a_Node000021"><a xlink:href="group__elements.html#a6dbca7cef2cbc0c10aa44c44ae20b36e" target="_top" xlink:title=" ">
<polygon fill="white" stroke="#666666" points="554.12,-331.5 455.62,-331.5 455.62,-304 554.12,-304 554.12,-331.5"/>
<text text-anchor="start" x="463.62" y="-319.9" font-family="SourceSans" font-size="8.00">svg::path_element::</text>
<text text-anchor="middle" x="504.88" y="-310.15" font-family="SourceSans" font-size="8.00">start_element</text>
</a>
</g>
</g>
<!-- Node17&#45;&gt;Node21 -->
<g id="edge24_Node000017_Node000021" class="edge">
<title>Node17&#45;&gt;Node21</title>
<g id="a_edge24_Node000017_Node000021"><a xlink:title=" ">
<path fill="none" stroke="#63b8ff" d="M393.22,-396.2C400.2,-393.76 407.17,-390.66 413.25,-386.75 433.64,-373.62 430.12,-360.66 449.25,-345.75 452.99,-342.84 457.07,-340.1 461.27,-337.55"/>
<polygon fill="#63b8ff" stroke="#63b8ff" points="462.85,-340.67 469.85,-332.72 459.42,-334.57 462.85,-340.67"/>
</a>
</g>
</g>
<!-- Node18&#45;&gt;Node4 -->
<g id="edge19_Node000018_Node000004" class="edge">
<title>Node18&#45;&gt;Node4</title>
<g id="a_edge19_Node000018_Node000004"><a xlink:title=" ">
<path fill="none" stroke="#63b8ff" d="M546.33,-415.88C551.33,-418.45 556.2,-421.4 560.5,-424.75 593.57,-450.47 620.33,-492.29 634.15,-516.59"/>
<polygon fill="#63b8ff" stroke="#63b8ff" points="630.94,-518.01 638.83,-525.07 637.06,-514.63 630.94,-518.01"/>
</a>
</g>
</g>
<!-- Node20 -->
<g id="Node000020" class="node">
<title>Node20</title>
<g id="a_Node000020"><a xlink:href="group__elements.html#ga503ee2895588a6c684e2b1614cf4e73d" target="_top" xlink:title=" ">
<polygon fill="white" stroke="#666666" points="694.25,-285.5 596.5,-285.5 596.5,-258 694.25,-258 694.25,-285.5"/>
<text text-anchor="start" x="604.5" y="-273.9" font-family="SourceSans" font-size="8.00">svg::defs_element::</text>
<text text-anchor="middle" x="645.38" y="-264.15" font-family="SourceSans" font-size="8.00">finish_element</text>
</a>
</g>
</g>
<!-- Node19&#45;&gt;Node20 -->
<g id="edge23_Node000019_Node000020" class="edge">
<title>Node19&#45;&gt;Node20</title>
<g id="a_edge23_Node000019_Node000020"><a xlink:title=" ">
<path fill="none" stroke="#63b8ff" d="M554.32,-271.75C564.18,-271.75 574.66,-271.75 584.86,-271.75"/>
<polygon fill="#63b8ff" stroke="#63b8ff" points="584.68,-275.25 594.68,-271.75 584.68,-268.25 584.68,-275.25"/>
</a>
</g>
</g>
<!-- Node22 -->
<g id="Node000022" class="node">
<title>Node22</title>
<g id="a_Node000022"><a xlink:href="group__elements.html#a948868c6f5dea784ded14c26cc1d2139" target="_top" xlink:title=" ">
<polygon fill="white" stroke="#666666" points="694.25,-331.5 596.5,-331.5 596.5,-304 694.25,-304 694.25,-331.5"/>
<text text-anchor="start" x="604.5" y="-319.9" font-family="SourceSans" font-size="8.00">svg::defs_element::</text>
<text text-anchor="middle" x="645.38" y="-310.15" font-family="SourceSans" font-size="8.00">start_element</text>
</a>
</g>
</g>
<!-- Node21&#45;&gt;Node22 -->
<g id="edge25_Node000021_Node000022" class="edge">
<title>Node21&#45;&gt;Node22</title>
<g id="a_edge25_Node000021_Node000022"><a xlink:title=" ">
<path fill="none" stroke="#63b8ff" d="M554.32,-317.75C564.18,-317.75 574.66,-317.75 584.86,-317.75"/>
<polygon fill="#63b8ff" stroke="#63b8ff" points="584.68,-321.25 594.68,-317.75 584.68,-314.25 584.68,-321.25"/>
</a>
</g>
</g>
<!-- Node24 -->
<g id="Node000024" class="node">
<title>Node24</title>
<g id="a_Node000024"><a xlink:href="namespacesvg_1_1constants.html#ac460bc8db60d85c3ae1cf8b1a903405e" target="_top" xlink:title="Formatting character constants.">
<polygon fill="white" stroke="#666666" points="558.62,-193.62 451.12,-193.62 451.12,-175.88 558.62,-175.88 558.62,-193.62"/>
<text text-anchor="middle" x="504.88" y="-182.03" font-family="SourceSans" font-size="8.00">svg::constants::space</text>
</a>
</g>
</g>
<!-- Node23&#45;&gt;Node24 -->
<g id="edge28_Node000023_Node000024" class="edge">
<title>Node23&#45;&gt;Node24</title>
<g id="a_edge28_Node000023_Node000024"><a xlink:title=" ">
<path fill="none" stroke="#63b8ff" d="M399.6,-267.53C404.46,-265.02 409.13,-262.11 413.25,-258.75 436.18,-240.05 425.86,-220.86 449.25,-202.75 450.97,-201.42 452.79,-200.19 454.68,-199.04"/>
<polygon fill="#63b8ff" stroke="#63b8ff" points="455.91,-202.34 463.26,-194.72 452.75,-196.09 455.91,-202.34"/>
</a>
</g>
</g>
</g>
</svg>

<g id="navigator" transform="translate(0 0)" fill="#404254">
  <rect fill="#f2f5e9" fill-opacity="0.5" stroke="#606060" stroke-width=".5" x="0" y="0" width="60" height="60"/>
  <use id="zoomplus" xlink:href="#zoomPlus" x="17" y="9" onmousedown="handleZoom(evt,'in')"/>
  <use id="zoomminus" xlink:href="#zoomMin" x="42" y="9" onmousedown="handleZoom(evt,'out')"/>
  <use id="reset" xlink:href="#resetDef" x="30" y="36" onmousedown="handleReset()"/>
   <use id="arrowup" xlink:href="#arrowUp" x="0" y="0" onmousedown="handlePan(0,-1)"/>
  <use id="arrowright" xlink:href="#arrowRight" x="0" y="0" onmousedown="handlePan(1,0)"/>
  <use id="arrowdown" xlink:href="#arrowDown" x="0" y="0" onmousedown="handlePan(0,1)"/>
  <use id="arrowleft" xlink:href="#arrowLeft" x="0" y="0" onmousedown="handlePan(-1,0)"/>
</g>
<svg viewBox="0 0 15 15" width="100%" height="30px" preserveAspectRatio="xMaxYMin meet">
 <g id="arrow_out" transform="scale(0.3 0.3)">
  <a xlink:href="namespacesvg_ae318b481fb2a168a7315eb94971919a8_cgraph_org.svg" target="_base">
   <rect id="button" ry="5" rx="5" y="6" x="6" height="38" width="38"
        fill="#f2f5e9" fill-opacity="0.5" stroke="#606060" stroke-width="1.0"/>
   <path id="arrow"
     d="M 11.500037,31.436501 C 11.940474,20.09759 22.043105,11.32322 32.158766,21.979434 L 37.068811,17.246167 C 37.068811,17.246167 37.088388,32 37.088388,32 L 22.160133,31.978069 C 22.160133,31.978069 26.997745,27.140456 26.997745,27.140456 C 18.528582,18.264221 13.291696,25.230495 11.500037,31.436501 z"
     style="fill:#404040;"/>
  </a>
 </g>
</svg>

<style type='text/css'>
<![CDATA[
[data-mouse-over-selected='false'] { opacity: 0.7; }
[data-mouse-over-selected='true']  { opacity: 1.0; }
]]>
</style>
<script type="application/ecmascript"><![CDATA[
document.addEventListener('DOMContentLoaded', (event) => {
  highlightEdges();
  highlightAdjacentNodes();
});
]]></script>
</svg>
