<?xml version="1.0" encoding="UTF-8" standalone="no"?>
<!DOCTYPE svg PUBLIC "-//W3C//DTD SVG 1.1//EN"
 "http://www.w3.org/Graphics/SVG/1.1/DTD/svg11.dtd">
<!-- Generated by graphviz version 13.1.2 (20250808.2320)
 -->
<!-- Title: svg::make_circle_marker Pages: 1 -->
<svg width="551pt" height="253pt"
 viewBox="0.00 0.00 551.00 253.00" xmlns="http://www.w3.org/2000/svg" xmlns:xlink="http://www.w3.org/1999/xlink">
<g id="graph0" class="graph" transform="scale(1 1) rotate(0) translate(4 248.5)">
<title>svg::make_circle_marker</title>
<!-- Node1 -->
<g id="Node000001" class="node">
<title>Node1</title>
<g id="a_Node000001"><a xlink:title="Make circle element with title and tooltip information.">
<polygon fill="#999999" stroke="#666666" points="115,-130.62 0,-130.62 0,-112.88 115,-112.88 115,-130.62"/>
<text xml:space="preserve" text-anchor="middle" x="57.5" y="-119.03" font-family="SourceSans" font-size="8.00">svg::make_circle_marker</text>
</a>
</g>
</g>
<!-- Node2 -->
<g id="Node000002" class="node">
<title>Node2</title>
<g id="a_Node000002"><a xlink:href="group__elements.html#a519382631540ecedee961bfb53e9ae87" target="_top" xlink:title=" ">
<polygon fill="white" stroke="#666666" points="248.75,-227.5 153.25,-227.5 153.25,-200 248.75,-200 248.75,-227.5"/>
<text xml:space="preserve" text-anchor="start" x="161.25" y="-215.9" font-family="SourceSans" font-size="8.00">svg::circle_element</text>
<text xml:space="preserve" text-anchor="middle" x="201" y="-206.15" font-family="SourceSans" font-size="8.00">::add_data</text>
</a>
</g>
</g>
<!-- Node1&#45;&gt;Node2 -->
<g id="edge1_Node000001_Node000002" class="edge">
<title>Node1&#45;&gt;Node2</title>
<g id="a_edge1_Node000001_Node000002"><a xlink:title=" ">
<path fill="none" stroke="#63b8ff" d="M69.38,-131.01C86.17,-145.04 119.72,-172.01 151,-190.75 153.02,-191.96 155.1,-193.15 157.23,-194.32"/>
<polygon fill="#63b8ff" stroke="#63b8ff" points="155.53,-197.37 166.02,-198.86 158.75,-191.16 155.53,-197.37"/>
</a>
</g>
</g>
<!-- Node6 -->
<g id="Node000006" class="node">
<title>Node6</title>
<g id="a_Node000006"><a xlink:href="group__elements.html#acafbdd950c6c2639c9d376c3eab696e5" target="_top" xlink:title=" ">
<polygon fill="white" stroke="#666666" points="251,-181.5 151,-181.5 151,-154 251,-154 251,-181.5"/>
<text xml:space="preserve" text-anchor="start" x="159" y="-169.9" font-family="SourceSans" font-size="8.00">svg::element_base::</text>
<text xml:space="preserve" text-anchor="middle" x="201" y="-160.15" font-family="SourceSans" font-size="8.00">add_raw</text>
</a>
</g>
</g>
<!-- Node1&#45;&gt;Node6 -->
<g id="edge5_Node000001_Node000006" class="edge">
<title>Node1&#45;&gt;Node6</title>
<g id="a_edge5_Node000001_Node000006"><a xlink:title=" ">
<path fill="none" stroke="#63b8ff" d="M87.13,-131.06C103.9,-136.51 125.62,-143.57 145.52,-150.04"/>
<polygon fill="#63b8ff" stroke="#63b8ff" points="144.32,-153.33 154.91,-153.09 146.48,-146.67 144.32,-153.33"/>
</a>
</g>
</g>
<!-- Node7 -->
<g id="Node000007" class="node">
<title>Node7</title>
<g id="a_Node000007"><a xlink:href="group__elements.html#a238b38ca99a1cf6c2baf80c8e4338d99" target="_top" xlink:title=" ">
<polygon fill="white" stroke="#666666" points="251,-135.5 151,-135.5 151,-108 251,-108 251,-135.5"/>
<text xml:space="preserve" text-anchor="start" x="159" y="-123.9" font-family="SourceSans" font-size="8.00">svg::element_base::</text>
<text xml:space="preserve" text-anchor="middle" x="201" y="-114.15" font-family="SourceSans" font-size="8.00">add_style</text>
</a>
</g>
</g>
<!-- Node1&#45;&gt;Node7 -->
<g id="edge6_Node000001_Node000007" class="edge">
<title>Node1&#45;&gt;Node7</title>
<g id="a_edge6_Node000001_Node000007"><a xlink:title=" ">
<path fill="none" stroke="#63b8ff" d="M115.24,-121.75C123.09,-121.75 131.18,-121.75 139.11,-121.75"/>
<polygon fill="#63b8ff" stroke="#63b8ff" points="139.03,-125.25 149.03,-121.75 139.03,-118.25 139.03,-125.25"/>
</a>
</g>
</g>
<!-- Node9 -->
<g id="Node000009" class="node">
<title>Node9</title>
<g id="a_Node000009"><a xlink:href="group__elements.html#a7995b78d94e1c299065c9dd3569fef7c" target="_top" xlink:title=" ">
<polygon fill="white" stroke="#666666" points="251,-89.5 151,-89.5 151,-62 251,-62 251,-89.5"/>
<text xml:space="preserve" text-anchor="start" x="159" y="-77.9" font-family="SourceSans" font-size="8.00">svg::element_base::</text>
<text xml:space="preserve" text-anchor="middle" x="201" y="-68.15" font-family="SourceSans" font-size="8.00">add_title</text>
</a>
</g>
</g>
<!-- Node1&#45;&gt;Node9 -->
<g id="edge8_Node000001_Node000009" class="edge">
<title>Node1&#45;&gt;Node9</title>
<g id="a_edge8_Node000001_Node000009"><a xlink:title=" ">
<path fill="none" stroke="#63b8ff" d="M87.13,-112.44C103.9,-106.99 125.62,-99.93 145.52,-93.46"/>
<polygon fill="#63b8ff" stroke="#63b8ff" points="146.48,-96.83 154.91,-90.41 144.32,-90.17 146.48,-96.83"/>
</a>
</g>
</g>
<!-- Node14 -->
<g id="Node000014" class="node">
<title>Node14</title>
<g id="a_Node000014"><a xlink:href="group__elements.html#a793cb6b40b2aea335b11f14fd327cde8" target="_top" xlink:title=" ">
<polygon fill="white" stroke="#666666" points="248.75,-43.5 153.25,-43.5 153.25,-16 248.75,-16 248.75,-43.5"/>
<text xml:space="preserve" text-anchor="start" x="161.25" y="-31.9" font-family="SourceSans" font-size="8.00">svg::circle_element</text>
<text xml:space="preserve" text-anchor="middle" x="201" y="-22.15" font-family="SourceSans" font-size="8.00">::start_element</text>
</a>
</g>
</g>
<!-- Node1&#45;&gt;Node14 -->
<g id="edge13_Node000001_Node000014" class="edge">
<title>Node1&#45;&gt;Node14</title>
<g id="a_edge13_Node000001_Node000014"><a xlink:title=" ">
<path fill="none" stroke="#63b8ff" d="M69.38,-112.49C86.17,-98.46 119.72,-71.49 151,-52.75 153.02,-51.54 155.1,-50.35 157.23,-49.18"/>
<polygon fill="#63b8ff" stroke="#63b8ff" points="158.75,-52.34 166.02,-44.64 155.53,-46.13 158.75,-52.34"/>
</a>
</g>
</g>
<!-- Node3 -->
<g id="Node000003" class="node">
<title>Node3</title>
<g id="a_Node000003"><a xlink:href="group__elements.html#a53d72a7ff728ad1d4d027254530bcf3d" target="_top" xlink:title=" ">
<polygon fill="white" stroke="#666666" points="387,-244.5 287,-244.5 287,-217 387,-217 387,-244.5"/>
<text xml:space="preserve" text-anchor="start" x="295" y="-232.9" font-family="SourceSans" font-size="8.00">svg::element_base::</text>
<text xml:space="preserve" text-anchor="middle" x="337" y="-223.15" font-family="SourceSans" font-size="8.00">add_transform</text>
</a>
</g>
</g>
<!-- Node2&#45;&gt;Node3 -->
<g id="edge2_Node000002_Node000003" class="edge">
<title>Node2&#45;&gt;Node3</title>
<g id="a_edge2_Node000002_Node000003"><a xlink:title=" ">
<path fill="none" stroke="#63b8ff" d="M249.24,-219.74C257.83,-220.83 266.88,-221.98 275.78,-223.11"/>
<polygon fill="#63b8ff" stroke="#63b8ff" points="275.05,-226.55 285.41,-224.33 275.93,-219.6 275.05,-226.55"/>
</a>
</g>
</g>
<!-- Node5 -->
<g id="Node000005" class="node">
<title>Node5</title>
<g id="a_Node000005"><a xlink:href="namespacesvg.html#a48ac748e89e22789d1772326a98dd7b6" target="_top" xlink:title=" ">
<polygon fill="white" stroke="#666666" points="383.62,-198.62 290.38,-198.62 290.38,-180.88 383.62,-180.88 383.62,-198.62"/>
<text xml:space="preserve" text-anchor="middle" x="337" y="-187.03" font-family="SourceSans" font-size="8.00">svg::string_replace</text>
</a>
</g>
</g>
<!-- Node2&#45;&gt;Node5 -->
<g id="edge4_Node000002_Node000005" class="edge">
<title>Node2&#45;&gt;Node5</title>
<g id="a_edge4_Node000002_Node000005"><a xlink:title=" ">
<path fill="none" stroke="#63b8ff" d="M249.24,-205.29C258.88,-203.56 269.11,-201.73 279.05,-199.95"/>
<polygon fill="#63b8ff" stroke="#63b8ff" points="279.37,-203.45 288.59,-198.24 278.13,-196.56 279.37,-203.45"/>
</a>
</g>
</g>
<!-- Node4 -->
<g id="Node000004" class="node">
<title>Node4</title>
<g id="a_Node000004"><a xlink:href="group__elements.html#ae50258851ebbaf08c7eebc3fbdbf1ac8" target="_top" xlink:title="Common transforms include rotate(180)">
<polygon fill="white" stroke="#666666" points="543.25,-244.5 423,-244.5 423,-217 543.25,-217 543.25,-244.5"/>
<text xml:space="preserve" text-anchor="start" x="431" y="-232.9" font-family="SourceSans" font-size="8.00">svg::element_base::</text>
<text xml:space="preserve" text-anchor="middle" x="483.12" y="-223.15" font-family="SourceSans" font-size="8.00">make_transform_attribute</text>
</a>
</g>
</g>
<!-- Node3&#45;&gt;Node4 -->
<g id="edge3_Node000003_Node000004" class="edge">
<title>Node3&#45;&gt;Node4</title>
<g id="a_edge3_Node000003_Node000004"><a xlink:title=" ">
<path fill="none" stroke="#63b8ff" d="M387.2,-230.75C394.96,-230.75 403.11,-230.75 411.24,-230.75"/>
<polygon fill="#63b8ff" stroke="#63b8ff" points="411.17,-234.25 421.17,-230.75 411.17,-227.25 411.17,-234.25"/>
</a>
</g>
</g>
<!-- Node8 -->
<g id="Node000008" class="node">
<title>Node8</title>
<g id="a_Node000008"><a xlink:href="namespacesvg.html#a36b1c48ad4601b205790e3772ad0a7b6" target="_top" xlink:title=" ">
<polygon fill="white" stroke="#666666" points="372.75,-155.62 301.25,-155.62 301.25,-137.88 372.75,-137.88 372.75,-155.62"/>
<text xml:space="preserve" text-anchor="middle" x="337" y="-144.03" font-family="SourceSans" font-size="8.00">svg::to_string</text>
</a>
</g>
</g>
<!-- Node7&#45;&gt;Node8 -->
<g id="edge7_Node000007_Node000008" class="edge">
<title>Node7&#45;&gt;Node8</title>
<g id="a_edge7_Node000007_Node000008"><a xlink:title=" ">
<path fill="none" stroke="#63b8ff" d="M251.14,-130.92C263.83,-133.29 277.45,-135.83 289.98,-138.16"/>
<polygon fill="#63b8ff" stroke="#63b8ff" points="289.16,-141.57 299.64,-139.97 290.45,-134.69 289.16,-141.57"/>
</a>
</g>
</g>
<!-- Node10 -->
<g id="Node000010" class="node">
<title>Node10</title>
<g id="a_Node000010"><a xlink:href="group__elements.html#ada0333b46b2547c6152f3f5811016a12" target="_top" xlink:title=" ">
<polygon fill="white" stroke="#666666" points="387,-119.5 287,-119.5 287,-92 387,-92 387,-119.5"/>
<text xml:space="preserve" text-anchor="start" x="295" y="-107.9" font-family="SourceSans" font-size="8.00">svg::element_base::</text>
<text xml:space="preserve" text-anchor="middle" x="337" y="-98.15" font-family="SourceSans" font-size="8.00">add_element</text>
</a>
</g>
</g>
<!-- Node9&#45;&gt;Node10 -->
<g id="edge9_Node000009_Node000010" class="edge">
<title>Node9&#45;&gt;Node10</title>
<g id="a_edge9_Node000009_Node000010"><a xlink:title=" ">
<path fill="none" stroke="#63b8ff" d="M251.14,-86.75C259.15,-88.54 267.53,-90.42 275.77,-92.26"/>
<polygon fill="#63b8ff" stroke="#63b8ff" points="274.87,-95.65 285.39,-94.42 276.4,-88.82 274.87,-95.65"/>
</a>
</g>
</g>
<!-- Node12 -->
<g id="Node000012" class="node">
<title>Node12</title>
<g id="a_Node000012"><a xlink:href="group__elements.html#ga3d62381f8edcccd3d91f82af55f11274" target="_top" xlink:title=" ">
<polygon fill="white" stroke="#666666" points="381.75,-73.5 292.25,-73.5 292.25,-46 381.75,-46 381.75,-73.5"/>
<text xml:space="preserve" text-anchor="start" x="300.25" y="-61.9" font-family="SourceSans" font-size="8.00">svg::title_element</text>
<text xml:space="preserve" text-anchor="middle" x="337" y="-52.15" font-family="SourceSans" font-size="8.00">::finish_element</text>
</a>
</g>
</g>
<!-- Node9&#45;&gt;Node12 -->
<g id="edge11_Node000009_Node000012" class="edge">
<title>Node9&#45;&gt;Node12</title>
<g id="a_edge11_Node000009_Node000012"><a xlink:title=" ">
<path fill="none" stroke="#63b8ff" d="M251.14,-69.88C260.8,-68.73 271,-67.51 280.84,-66.34"/>
<polygon fill="#63b8ff" stroke="#63b8ff" points="281.17,-69.82 290.68,-65.16 280.34,-62.87 281.17,-69.82"/>
</a>
</g>
</g>
<!-- Node13 -->
<g id="Node000013" class="node">
<title>Node13</title>
<g id="a_Node000013"><a xlink:href="group__elements.html#a41dcaa1132c502cb86c01aae1e7b9ff2" target="_top" xlink:title=" ">
<polygon fill="white" stroke="#666666" points="381.75,-27.5 292.25,-27.5 292.25,0 381.75,0 381.75,-27.5"/>
<text xml:space="preserve" text-anchor="start" x="300.25" y="-15.9" font-family="SourceSans" font-size="8.00">svg::title_element</text>
<text xml:space="preserve" text-anchor="middle" x="337" y="-6.15" font-family="SourceSans" font-size="8.00">::start_element</text>
</a>
</g>
</g>
<!-- Node9&#45;&gt;Node13 -->
<g id="edge12_Node000009_Node000013" class="edge">
<title>Node9&#45;&gt;Node13</title>
<g id="a_edge12_Node000009_Node000013"><a xlink:title=" ">
<path fill="none" stroke="#63b8ff" d="M232.74,-61.53C251.21,-52.98 274.94,-42 295,-32.72"/>
<polygon fill="#63b8ff" stroke="#63b8ff" points="296.42,-35.92 304.03,-28.54 293.48,-29.57 296.42,-35.92"/>
</a>
</g>
</g>
<!-- Node11 -->
<g id="Node000011" class="node">
<title>Node11</title>
<g id="a_Node000011"><a xlink:href="group__elements.html#ad893ef9c13a15464c96d8a85c08af30f" target="_top" xlink:title=" ">
<polygon fill="white" stroke="#666666" points="538.38,-114.62 427.88,-114.62 427.88,-96.88 538.38,-96.88 538.38,-114.62"/>
<text xml:space="preserve" text-anchor="middle" x="483.12" y="-103.03" font-family="SourceSans" font-size="8.00">svg::element_base::str</text>
</a>
</g>
</g>
<!-- Node10&#45;&gt;Node11 -->
<g id="edge10_Node000010_Node000011" class="edge">
<title>Node10&#45;&gt;Node11</title>
<g id="a_edge10_Node000010_Node000011"><a xlink:title=" ">
<path fill="none" stroke="#63b8ff" d="M387.2,-105.75C396.52,-105.75 406.4,-105.75 416.14,-105.75"/>
<polygon fill="#63b8ff" stroke="#63b8ff" points="415.95,-109.25 425.95,-105.75 415.95,-102.25 415.95,-109.25"/>
</a>
</g>
</g>
</g>
</svg>
