<?xml version="1.0" encoding="UTF-8" standalone="no"?>
<!DOCTYPE svg PUBLIC "-//W3C//DTD SVG 1.1//EN"
 "http://www.w3.org/Graphics/SVG/1.1/DTD/svg11.dtd">
<!-- Generated by graphviz version 12.2.1 (20241206.2353)
 -->
<!-- Title: svg::nest_inner_svg_element_centered Pages: 1 -->
<!--zoomable 231 -->

<svg id="main" version="1.1" xmlns="http://www.w3.org/2000/svg" xmlns:xlink="http://www.w3.org/1999/xlink" xml:space="preserve" onload="init(evt)">

<style type="text/css"><![CDATA[
.node, .edge {opacity: 0.7;}
.node.selected, .edge.selected {opacity: 1;}
.edge:hover path { stroke: red; }
.edge:hover polygon { stroke: red; fill: red; }
]]></style>

<defs>
  <circle id="rim" cx="0" cy="0" r="7"/>
  <circle id="rim2" cx="0" cy="0" r="3.5"/>
  <g id="zoomPlus">
    <use xlink:href="#rim" fill="#404040"><set attributeName="fill" to="#808080" begin="zoomplus.mouseover" end="zoomplus.mouseout"/></use>
    <path d="M-4,0h8M0,-4v8" fill="none" stroke="white" stroke-width="1.5" pointer-events="none"/>
  </g>
  <g id="zoomMin">
    <use xlink:href="#rim" fill="#404040"><set attributeName="fill" to="#808080" begin="zoomminus.mouseover" end="zoomminus.mouseout"/></use>
    <path d="M-4,0h8" fill="none" stroke="white" stroke-width="1.5" pointer-events="none"/>
  </g>
  <g id="arrowUp" transform="translate(30 24)">
    <use xlink:href="#rim"/>
    <path pointer-events="none" fill="none" stroke="white" stroke-width="1.5" d="M0,-3.0v7 M-2.5,-0.5L0,-3.0L2.5,-0.5"/>
  </g>
  <g id="arrowRight" transform="rotate(90) translate(36 -43)">
    <use xlink:href="#rim"/>
    <path pointer-events="none" fill="none" stroke="white" stroke-width="1.5" d="M0,-3.0v7 M-2.5,-0.5L0,-3.0L2.5,-0.5"/>
  </g>
  <g id="arrowDown" transform="rotate(180) translate(-30 -48)">
    <use xlink:href="#rim"/>
    <path pointer-events="none" fill="none" stroke="white" stroke-width="1.5" d="M0,-3.0v7 M-2.5,-0.5L0,-3.0L2.5,-0.5"/>
  </g>
  <g id="arrowLeft" transform="rotate(270) translate(-36 17)">
    <use xlink:href="#rim"/>
    <path pointer-events="none" fill="none" stroke="white" stroke-width="1.5" d="M0,-3.0v7 M-2.5,-0.5L0,-3.0L2.5,-0.5"/>
  </g>
  <g id="resetDef">
    <use xlink:href="#rim2" fill="#404040"><set attributeName="fill" to="#808080" begin="reset.mouseover" end="reset.mouseout"/></use>
  </g>
</defs>
<script type="application/ecmascript">
var viewWidth = 929;
var viewHeight = 231;
var sectionId = 'dynsection-60';
</script>
<script type="application/ecmascript" xlink:href="svg.min.js"/>
<svg id="graph" class="graph">
<g id="viewport">
<title>svg::nest_inner_svg_element_centered</title>
<!-- Node1 -->
<g id="Node000001" class="node">
<title>Node1</title>
<g id="a_Node000001"><a xlink:title="Take.">
<polygon fill="#999999" stroke="#666666" points="90.25,-187 0,-187 0,-155 90.25,-155 90.25,-187"/>
<text text-anchor="start" x="8" y="-175.4" font-family="SourceSans" font-size="8.00">svg::nest_inner_svg</text>
<text text-anchor="middle" x="45.12" y="-163.4" font-family="SourceSans" font-size="8.00">_element_centered</text>
</a>
</g>
</g>
<!-- Node2 -->
<g id="Node000002" class="node">
<title>Node2</title>
<g id="a_Node000002"><a xlink:href="group__elements.html#ada0333b46b2547c6152f3f5811016a12" target="_top" xlink:title=" ">
<polygon fill="white" stroke="#666666" points="783.75,-201 692.75,-201 692.75,-169 783.75,-169 783.75,-201"/>
<text text-anchor="start" x="700.75" y="-189.4" font-family="SourceSans" font-size="8.00">svg::element_base::</text>
<text text-anchor="middle" x="738.25" y="-177.4" font-family="SourceSans" font-size="8.00">add_element</text>
</a>
</g>
</g>
<!-- Node1&#45;&gt;Node2 -->
<g id="edge1_Node000001_Node000002" class="edge">
<title>Node1&#45;&gt;Node2</title>
<g id="a_edge1_Node000001_Node000002"><a xlink:title=" ">
<path fill="none" stroke="#63b8ff" d="M90.69,-186.32C102.18,-189.88 114.59,-193.39 126.25,-196 210.87,-214.98 232.78,-223 319.5,-223 319.5,-223 319.5,-223 469.88,-223 543.63,-223 627.7,-208.65 681.56,-197.59"/>
<polygon fill="#63b8ff" stroke="#63b8ff" points="682.03,-201.07 691.1,-195.59 680.6,-194.21 682.03,-201.07"/>
</a>
</g>
</g>
<!-- Node4 -->
<g id="Node000004" class="node">
<title>Node4</title>
<g id="a_Node000004"><a xlink:href="group__elements.html#a3f7b6a0f29695c76b8a9e0c6d939f1b6" target="_top" xlink:title=" ">
<polygon fill="white" stroke="#666666" points="233,-187 126.25,-187 126.25,-155 233,-155 233,-187"/>
<text text-anchor="start" x="134.25" y="-175.4" font-family="SourceSans" font-size="8.00">svg::svg_element::finish</text>
<text text-anchor="middle" x="179.62" y="-163.4" font-family="SourceSans" font-size="8.00">_element</text>
</a>
</g>
</g>
<!-- Node1&#45;&gt;Node4 -->
<g id="edge3_Node000001_Node000004" class="edge">
<title>Node1&#45;&gt;Node4</title>
<g id="a_edge3_Node000001_Node000004"><a xlink:title=" ">
<path fill="none" stroke="#63b8ff" d="M90.61,-171C98.28,-171 106.38,-171 114.44,-171"/>
<polygon fill="#63b8ff" stroke="#63b8ff" points="114.25,-174.5 124.25,-171 114.25,-167.5 114.25,-174.5"/>
</a>
</g>
</g>
<!-- Node5 -->
<g id="Node000005" class="node">
<title>Node5</title>
<g id="a_Node000005"><a xlink:href="group__elements.html#a83eb3152f92ca357473c2ef8f23ced98" target="_top" xlink:title="SVG element beginning boilerplate for outermost (containing) svg_element. Variable: unit,...">
<polygon fill="white" stroke="#666666" points="231.12,-121 128.12,-121 128.12,-89 231.12,-89 231.12,-121"/>
<text text-anchor="start" x="136.12" y="-109.4" font-family="SourceSans" font-size="8.00">svg::svg_element::start</text>
<text text-anchor="middle" x="179.62" y="-97.4" font-family="SourceSans" font-size="8.00">_element</text>
</a>
</g>
</g>
<!-- Node1&#45;&gt;Node5 -->
<g id="edge4_Node000001_Node000005" class="edge">
<title>Node1&#45;&gt;Node5</title>
<g id="a_edge4_Node000001_Node000005"><a xlink:title=" ">
<path fill="none" stroke="#63b8ff" d="M79.22,-154.52C96.34,-145.99 117.45,-135.47 135.8,-126.33"/>
<polygon fill="#63b8ff" stroke="#63b8ff" points="137.21,-129.54 144.6,-121.95 134.09,-123.27 137.21,-129.54"/>
</a>
</g>
</g>
<!-- Node3 -->
<g id="Node000003" class="node">
<title>Node3</title>
<g id="a_Node000003"><a xlink:href="group__elements.html#ad893ef9c13a15464c96d8a85c08af30f" target="_top" xlink:title=" ">
<polygon fill="white" stroke="#666666" points="920.5,-195 819.75,-195 819.75,-175 920.5,-175 920.5,-195"/>
<text text-anchor="middle" x="870.12" y="-183.4" font-family="SourceSans" font-size="8.00">svg::element_base::str</text>
</a>
</g>
</g>
<!-- Node2&#45;&gt;Node3 -->
<g id="edge2_Node000002_Node000003" class="edge">
<title>Node2&#45;&gt;Node3</title>
<g id="a_edge2_Node000002_Node000003"><a xlink:title=" ">
<path fill="none" stroke="#63b8ff" d="M783.95,-185C791.73,-185 799.94,-185 808.07,-185"/>
<polygon fill="#63b8ff" stroke="#63b8ff" points="807.94,-188.5 817.94,-185 807.94,-181.5 807.94,-188.5"/>
</a>
</g>
</g>
<!-- Node6 -->
<g id="Node000006" class="node">
<title>Node6</title>
<g id="a_Node000006"><a xlink:href="group__elements.html#ad47933f8c0bfc36987493c7e3b3bbcbd" target="_top" xlink:title=" ">
<polygon fill="white" stroke="#666666" points="372,-115 269,-115 269,-95 372,-95 372,-115"/>
<text text-anchor="middle" x="320.5" y="-103.4" font-family="SourceSans" font-size="8.00">svg::svg_element::start</text>
</a>
</g>
</g>
<!-- Node5&#45;&gt;Node6 -->
<g id="edge5_Node000005_Node000006" class="edge">
<title>Node5&#45;&gt;Node6</title>
<g id="a_edge5_Node000005_Node000006"><a xlink:title=" ">
<path fill="none" stroke="#63b8ff" d="M231.55,-98.47C239.85,-98.27 248.53,-98.21 257.07,-98.28"/>
<polygon fill="#63b8ff" stroke="#63b8ff" points="257.01,-101.78 267.07,-98.44 257.13,-94.78 257.01,-101.78"/>
</a>
</g>
</g>
<!-- Node15 -->
<g id="Node000015" class="node">
<title>Node15</title>
<g id="a_Node000015"><a xlink:href="namespacesvg.html#a48ac748e89e22789d1772326a98dd7b6" target="_top" xlink:title=" ">
<polygon fill="white" stroke="#666666" points="364.12,-77 276.88,-77 276.88,-57 364.12,-57 364.12,-77"/>
<text text-anchor="middle" x="320.5" y="-65.4" font-family="SourceSans" font-size="8.00">svg::string_replace</text>
</a>
</g>
</g>
<!-- Node5&#45;&gt;Node15 -->
<g id="edge17_Node000005_Node000015" class="edge">
<title>Node5&#45;&gt;Node15</title>
<g id="a_edge17_Node000005_Node000015"><a xlink:title=" ">
<path fill="none" stroke="#63b8ff" d="M231.55,-91.07C244.24,-87.59 257.83,-83.88 270.43,-80.43"/>
<polygon fill="#63b8ff" stroke="#63b8ff" points="271.02,-83.89 279.74,-77.88 269.17,-77.14 271.02,-83.89"/>
</a>
</g>
</g>
<!-- Node16 -->
<g id="Node000016" class="node">
<title>Node16</title>
<g id="a_Node000016"><a xlink:href="namespacesvg.html#a36b1c48ad4601b205790e3772ad0a7b6" target="_top" xlink:title=" ">
<polygon fill="white" stroke="#666666" points="354,-39 287,-39 287,-19 354,-19 354,-39"/>
<text text-anchor="middle" x="320.5" y="-27.4" font-family="SourceSans" font-size="8.00">svg::to_string</text>
</a>
</g>
</g>
<!-- Node5&#45;&gt;Node16 -->
<g id="edge18_Node000005_Node000016" class="edge">
<title>Node5&#45;&gt;Node16</title>
<g id="a_edge18_Node000005_Node000016"><a xlink:title=" ">
<path fill="none" stroke="#63b8ff" d="M203.09,-88.6C220.49,-76.38 245.52,-59.82 269,-48 271.9,-46.54 274.95,-45.13 278.04,-43.77"/>
<polygon fill="#63b8ff" stroke="#63b8ff" points="279.29,-47.04 287.21,-40 276.63,-40.57 279.29,-47.04"/>
</a>
</g>
</g>
<!-- Node6&#45;&gt;Node5 -->
<g id="edge16_Node000006_Node000005" class="edge">
<title>Node6&#45;&gt;Node5</title>
<g id="a_edge16_Node000006_Node000005"><a xlink:title=" ">
<path fill="none" stroke="#63b8ff" d="M268.58,-111.53C260.28,-111.73 251.6,-111.79 243.06,-111.72"/>
<polygon fill="#63b8ff" stroke="#63b8ff" points="243.12,-108.22 233.06,-111.56 243,-115.22 243.12,-108.22"/>
</a>
</g>
</g>
<!-- Node7 -->
<g id="Node000007" class="node">
<title>Node7</title>
<g id="a_Node000007"><a xlink:href="group__elements.html#a4a6af4e23b9f79f07d58780c128c5638" target="_top" xlink:title=" ">
<polygon fill="white" stroke="#666666" points="529.75,-151 408,-151 408,-131 529.75,-131 529.75,-151"/>
<text text-anchor="middle" x="468.88" y="-139.4" font-family="SourceSans" font-size="8.00">svg::svg_element::add_desc</text>
</a>
</g>
</g>
<!-- Node6&#45;&gt;Node7 -->
<g id="edge6_Node000006_Node000007" class="edge">
<title>Node6&#45;&gt;Node7</title>
<g id="a_edge6_Node000006_Node000007"><a xlink:title=" ">
<path fill="none" stroke="#63b8ff" d="M363.84,-115.41C379.7,-119.31 397.93,-123.8 414.65,-127.91"/>
<polygon fill="#63b8ff" stroke="#63b8ff" points="413.36,-131.2 423.91,-130.19 415.03,-124.4 413.36,-131.2"/>
</a>
</g>
</g>
<!-- Node10 -->
<g id="Node000010" class="node">
<title>Node10</title>
<g id="a_Node000010"><a xlink:href="group__elements.html#a950cbe5a602d34d0affc61bb66512c82" target="_top" xlink:title=" ">
<polygon fill="white" stroke="#666666" points="519.25,-113 418.5,-113 418.5,-81 519.25,-81 519.25,-113"/>
<text text-anchor="start" x="426.5" y="-101.4" font-family="SourceSans" font-size="8.00">svg::svg_element::add</text>
<text text-anchor="middle" x="468.88" y="-89.4" font-family="SourceSans" font-size="8.00">_filters</text>
</a>
</g>
</g>
<!-- Node6&#45;&gt;Node10 -->
<g id="edge10_Node000006_Node000010" class="edge">
<title>Node6&#45;&gt;Node10</title>
<g id="a_edge10_Node000006_Node000010"><a xlink:title=" ">
<path fill="none" stroke="#63b8ff" d="M372.28,-102.22C383.43,-101.62 395.35,-100.96 406.85,-100.34"/>
<polygon fill="#63b8ff" stroke="#63b8ff" points="406.86,-103.84 416.66,-99.8 406.48,-96.85 406.86,-103.84"/>
</a>
</g>
</g>
<!-- Node11 -->
<g id="Node000011" class="node">
<title>Node11</title>
<g id="a_Node000011"><a xlink:href="group__elements.html#a26869d2a66e57c0d83f2df21d25cd875" target="_top" xlink:title=" ">
<polygon fill="white" stroke="#666666" points="519.25,-60 418.5,-60 418.5,-28 519.25,-28 519.25,-60"/>
<text text-anchor="start" x="426.5" y="-48.4" font-family="SourceSans" font-size="8.00">svg::svg_element::add</text>
<text text-anchor="middle" x="468.88" y="-36.4" font-family="SourceSans" font-size="8.00">_title</text>
</a>
</g>
</g>
<!-- Node6&#45;&gt;Node11 -->
<g id="edge11_Node000006_Node000011" class="edge">
<title>Node6&#45;&gt;Node11</title>
<g id="a_edge11_Node000006_Node000011"><a xlink:title=" ">
<path fill="none" stroke="#63b8ff" d="M350.18,-94.51C357.34,-91.81 364.97,-88.86 372,-86 388.14,-79.43 405.64,-71.9 421.21,-65.03"/>
<polygon fill="#63b8ff" stroke="#63b8ff" points="422.54,-68.27 430.26,-61.02 419.7,-61.87 422.54,-68.27"/>
</a>
</g>
</g>
<!-- Node7&#45;&gt;Node2 -->
<g id="edge7_Node000007_Node000002" class="edge">
<title>Node7&#45;&gt;Node2</title>
<g id="a_edge7_Node000007_Node000002"><a xlink:title=" ">
<path fill="none" stroke="#63b8ff" d="M505.11,-151.49C523.12,-156.52 545.45,-162.25 565.75,-166 603.96,-173.06 647.48,-177.84 681.11,-180.84"/>
<polygon fill="#63b8ff" stroke="#63b8ff" points="680.8,-184.33 691.07,-181.7 681.4,-177.36 680.8,-184.33"/>
</a>
</g>
</g>
<!-- Node8 -->
<g id="Node000008" class="node">
<title>Node8</title>
<g id="a_Node000008"><a xlink:href="group__elements.html#ga03da556ae8f749df1cf8463111e996d3" target="_top" xlink:title=" ">
<polygon fill="white" stroke="#666666" points="656.38,-157 566.12,-157 566.12,-125 656.38,-125 656.38,-157"/>
<text text-anchor="start" x="574.12" y="-145.4" font-family="SourceSans" font-size="8.00">svg::desc_element::</text>
<text text-anchor="middle" x="611.25" y="-133.4" font-family="SourceSans" font-size="8.00">finish_element</text>
</a>
</g>
</g>
<!-- Node7&#45;&gt;Node8 -->
<g id="edge8_Node000007_Node000008" class="edge">
<title>Node7&#45;&gt;Node8</title>
<g id="a_edge8_Node000007_Node000008"><a xlink:title=" ">
<path fill="none" stroke="#63b8ff" d="M530.22,-141C538.21,-141 546.37,-141 554.28,-141"/>
<polygon fill="#63b8ff" stroke="#63b8ff" points="554.13,-144.5 564.13,-141 554.13,-137.5 554.13,-144.5"/>
</a>
</g>
</g>
<!-- Node9 -->
<g id="Node000009" class="node">
<title>Node9</title>
<g id="a_Node000009"><a xlink:href="group__elements.html#a90ffdd73579c45cd0740dc9efa2f5445" target="_top" xlink:title=" ">
<polygon fill="white" stroke="#666666" points="656.38,-107 566.12,-107 566.12,-75 656.38,-75 656.38,-107"/>
<text text-anchor="start" x="574.12" y="-95.4" font-family="SourceSans" font-size="8.00">svg::desc_element::</text>
<text text-anchor="middle" x="611.25" y="-83.4" font-family="SourceSans" font-size="8.00">start_element</text>
</a>
</g>
</g>
<!-- Node7&#45;&gt;Node9 -->
<g id="edge9_Node000007_Node000009" class="edge">
<title>Node7&#45;&gt;Node9</title>
<g id="a_edge9_Node000007_Node000009"><a xlink:title=" ">
<path fill="none" stroke="#63b8ff" d="M504.19,-130.5C512.58,-127.83 521.52,-124.89 529.75,-122 539.09,-118.72 548.98,-115.07 558.51,-111.45"/>
<polygon fill="#63b8ff" stroke="#63b8ff" points="559.56,-114.8 567.65,-107.95 557.06,-108.26 559.56,-114.8"/>
</a>
</g>
</g>
<!-- Node12 -->
<g id="Node000012" class="node">
<title>Node12</title>
<g id="a_Node000012"><a xlink:href="group__elements.html#a7995b78d94e1c299065c9dd3569fef7c" target="_top" xlink:title=" ">
<polygon fill="white" stroke="#666666" points="656.75,-57 565.75,-57 565.75,-25 656.75,-25 656.75,-57"/>
<text text-anchor="start" x="573.75" y="-45.4" font-family="SourceSans" font-size="8.00">svg::element_base::</text>
<text text-anchor="middle" x="611.25" y="-33.4" font-family="SourceSans" font-size="8.00">add_title</text>
</a>
</g>
</g>
<!-- Node11&#45;&gt;Node12 -->
<g id="edge12_Node000011_Node000012" class="edge">
<title>Node11&#45;&gt;Node12</title>
<g id="a_edge12_Node000011_Node000012"><a xlink:title=" ">
<path fill="none" stroke="#63b8ff" d="M519.37,-42.94C530.61,-42.7 542.64,-42.44 554.14,-42.2"/>
<polygon fill="#63b8ff" stroke="#63b8ff" points="553.98,-45.7 563.91,-41.99 553.83,-38.7 553.98,-45.7"/>
</a>
</g>
</g>
<!-- Node12&#45;&gt;Node2 -->
<g id="edge13_Node000012_Node000002" class="edge">
<title>Node12&#45;&gt;Node2</title>
<g id="a_edge13_Node000012_Node000002"><a xlink:title=" ">
<path fill="none" stroke="#63b8ff" d="M645.53,-57.38C649.51,-60 653.36,-62.88 656.75,-66 686.11,-93.02 710.21,-132.73 724.16,-158.73"/>
<polygon fill="#63b8ff" stroke="#63b8ff" points="720.89,-160.04 728.63,-167.28 727.1,-156.8 720.89,-160.04"/>
</a>
</g>
</g>
<!-- Node13 -->
<g id="Node000013" class="node">
<title>Node13</title>
<g id="a_Node000013"><a xlink:href="group__elements.html#ga3d62381f8edcccd3d91f82af55f11274" target="_top" xlink:title=" ">
<polygon fill="white" stroke="#666666" points="780,-82 696.5,-82 696.5,-50 780,-50 780,-82"/>
<text text-anchor="start" x="704.5" y="-70.4" font-family="SourceSans" font-size="8.00">svg::title_element</text>
<text text-anchor="middle" x="738.25" y="-58.4" font-family="SourceSans" font-size="8.00">::finish_element</text>
</a>
</g>
</g>
<!-- Node12&#45;&gt;Node13 -->
<g id="edge14_Node000012_Node000013" class="edge">
<title>Node12&#45;&gt;Node13</title>
<g id="a_edge14_Node000012_Node000013"><a xlink:title=" ">
<path fill="none" stroke="#63b8ff" d="M657.02,-49.95C666.09,-51.77 675.7,-53.69 684.99,-55.55"/>
<polygon fill="#63b8ff" stroke="#63b8ff" points="684.14,-58.95 694.63,-57.48 685.52,-52.08 684.14,-58.95"/>
</a>
</g>
</g>
<!-- Node14 -->
<g id="Node000014" class="node">
<title>Node14</title>
<g id="a_Node000014"><a xlink:href="group__elements.html#a41dcaa1132c502cb86c01aae1e7b9ff2" target="_top" xlink:title=" ">
<polygon fill="white" stroke="#666666" points="780,-32 696.5,-32 696.5,0 780,0 780,-32"/>
<text text-anchor="start" x="704.5" y="-20.4" font-family="SourceSans" font-size="8.00">svg::title_element</text>
<text text-anchor="middle" x="738.25" y="-8.4" font-family="SourceSans" font-size="8.00">::start_element</text>
</a>
</g>
</g>
<!-- Node12&#45;&gt;Node14 -->
<g id="edge15_Node000012_Node000014" class="edge">
<title>Node12&#45;&gt;Node14</title>
<g id="a_edge15_Node000012_Node000014"><a xlink:title=" ">
<path fill="none" stroke="#63b8ff" d="M657.02,-32.05C666.09,-30.23 675.7,-28.31 684.99,-26.45"/>
<polygon fill="#63b8ff" stroke="#63b8ff" points="685.52,-29.92 694.63,-24.52 684.14,-23.05 685.52,-29.92"/>
</a>
</g>
</g>
</g>
</svg>

<g id="navigator" transform="translate(0 0)" fill="#404254">
  <rect fill="#f2f5e9" fill-opacity="0.5" stroke="#606060" stroke-width=".5" x="0" y="0" width="60" height="60"/>
  <use id="zoomplus" xlink:href="#zoomPlus" x="17" y="9" onmousedown="handleZoom(evt,'in')"/>
  <use id="zoomminus" xlink:href="#zoomMin" x="42" y="9" onmousedown="handleZoom(evt,'out')"/>
  <use id="reset" xlink:href="#resetDef" x="30" y="36" onmousedown="handleReset()"/>
   <use id="arrowup" xlink:href="#arrowUp" x="0" y="0" onmousedown="handlePan(0,-1)"/>
  <use id="arrowright" xlink:href="#arrowRight" x="0" y="0" onmousedown="handlePan(1,0)"/>
  <use id="arrowdown" xlink:href="#arrowDown" x="0" y="0" onmousedown="handlePan(0,1)"/>
  <use id="arrowleft" xlink:href="#arrowLeft" x="0" y="0" onmousedown="handlePan(-1,0)"/>
</g>
<svg viewBox="0 0 15 15" width="100%" height="30px" preserveAspectRatio="xMaxYMin meet">
 <g id="arrow_out" transform="scale(0.3 0.3)">
  <a xlink:href="namespacesvg_aa07a5304f7966198fab897e7b8ac98fb_cgraph_org.svg" target="_base">
   <rect id="button" ry="5" rx="5" y="6" x="6" height="38" width="38"
        fill="#f2f5e9" fill-opacity="0.5" stroke="#606060" stroke-width="1.0"/>
   <path id="arrow"
     d="M 11.500037,31.436501 C 11.940474,20.09759 22.043105,11.32322 32.158766,21.979434 L 37.068811,17.246167 C 37.068811,17.246167 37.088388,32 37.088388,32 L 22.160133,31.978069 C 22.160133,31.978069 26.997745,27.140456 26.997745,27.140456 C 18.528582,18.264221 13.291696,25.230495 11.500037,31.436501 z"
     style="fill:#404040;"/>
  </a>
 </g>
</svg>

<style type='text/css'>
<![CDATA[
[data-mouse-over-selected='false'] { opacity: 0.7; }
[data-mouse-over-selected='true']  { opacity: 1.0; }
]]>
</style>
<script type="application/ecmascript"><![CDATA[
document.addEventListener('DOMContentLoaded', (event) => {
  highlightEdges();
  highlightAdjacentNodes();
});
]]></script>
</svg>
