<?xml version="1.0" encoding="UTF-8" standalone="no"?>
<!DOCTYPE svg PUBLIC "-//W3C//DTD SVG 1.1//EN"
 "http://www.w3.org/Graphics/SVG/1.1/DTD/svg11.dtd">
<!-- Generated by graphviz version 12.2.1 (20241206.2353)
 -->
<!-- Title: svg::text_line_n_r Pages: 1 -->
<svg width="603pt" height="365pt"
 viewBox="0.00 0.00 602.50 365.00" xmlns="http://www.w3.org/2000/svg" xmlns:xlink="http://www.w3.org/1999/xlink">
<g id="graph0" class="graph" transform="scale(1 1) rotate(0) translate(4 361)">
<title>svg::text_line_n_r</title>
<!-- Node1 -->
<g id="Node000001" class="node">
<title>Node1</title>
<g id="a_Node000001"><a xlink:title="Text of maxlen length rotated, overflow goes on line below.">
<polygon fill="#999999" stroke="#666666" points="82,-114 0,-114 0,-94 82,-94 82,-114"/>
<text text-anchor="middle" x="41" y="-102.4" font-family="SourceSans" font-size="8.00">svg::text_line_n_r</text>
</a>
</g>
</g>
<!-- Node2 -->
<g id="Node000002" class="node">
<title>Node2</title>
<g id="a_Node000002"><a xlink:href="namespacesvg.html#a4399801aa964203bcab6e6ab2e7b4200" target="_top" xlink:title="Text at size, with a transformation=rotation.">
<polygon fill="white" stroke="#666666" points="196.25,-114 118,-114 118,-94 196.25,-94 196.25,-114"/>
<text text-anchor="middle" x="157.12" y="-102.4" font-family="SourceSans" font-size="8.00">svg::sized_text_r</text>
</a>
</g>
</g>
<!-- Node1&#45;&gt;Node2 -->
<g id="edge1_Node000001_Node000002" class="edge">
<title>Node1&#45;&gt;Node2</title>
<g id="a_edge1_Node000001_Node000002"><a xlink:title=" ">
<path fill="none" stroke="#63b8ff" d="M82.24,-104C90.09,-104 98.41,-104 106.52,-104"/>
<polygon fill="#63b8ff" stroke="#63b8ff" points="106.27,-107.5 116.27,-104 106.27,-100.5 106.27,-107.5"/>
</a>
</g>
</g>
<!-- Node3 -->
<g id="Node000003" class="node">
<title>Node3</title>
<g id="a_Node000003"><a xlink:href="group__elements.html#aad29e1daf75bdcd69a39575a6807fa0f" target="_top" xlink:title="Either serialize immediately (as below), or create data structure that adds data to data_vec and then...">
<polygon fill="white" stroke="#666666" points="326.62,-253 238.62,-253 238.62,-221 326.62,-221 326.62,-253"/>
<text text-anchor="start" x="246.62" y="-241.4" font-family="SourceSans" font-size="8.00">svg::text_element::</text>
<text text-anchor="middle" x="282.62" y="-229.4" font-family="SourceSans" font-size="8.00">add_data</text>
</a>
</g>
</g>
<!-- Node2&#45;&gt;Node3 -->
<g id="edge2_Node000002_Node000003" class="edge">
<title>Node2&#45;&gt;Node3</title>
<g id="a_edge2_Node000002_Node000003"><a xlink:title=" ">
<path fill="none" stroke="#63b8ff" d="M167.82,-114.44C187.28,-135.39 231.57,-183.09 258.8,-212.42"/>
<polygon fill="#63b8ff" stroke="#63b8ff" points="255.93,-214.47 265.3,-219.42 261.06,-209.71 255.93,-214.47"/>
</a>
</g>
</g>
<!-- Node10 -->
<g id="Node000010" class="node">
<title>Node10</title>
<g id="a_Node000010"><a xlink:href="group__elements.html#aaa5f1a136f2b5c61d647a47ec53fe31d" target="_top" xlink:title=" ">
<polygon fill="white" stroke="#666666" points="333,-170 232.25,-170 232.25,-138 333,-138 333,-170"/>
<text text-anchor="start" x="240.25" y="-158.4" font-family="SourceSans" font-size="8.00">svg::svg_element::add</text>
<text text-anchor="middle" x="282.62" y="-146.4" font-family="SourceSans" font-size="8.00">_element</text>
</a>
</g>
</g>
<!-- Node2&#45;&gt;Node10 -->
<g id="edge11_Node000002_Node000010" class="edge">
<title>Node2&#45;&gt;Node10</title>
<g id="a_edge11_Node000002_Node000010"><a xlink:title=" ">
<path fill="none" stroke="#63b8ff" d="M184.01,-114.48C197.59,-119.98 214.71,-126.91 230.8,-133.42"/>
<polygon fill="#63b8ff" stroke="#63b8ff" points="229.2,-136.55 239.78,-137.06 231.82,-130.06 229.2,-136.55"/>
</a>
</g>
</g>
<!-- Node12 -->
<g id="Node000012" class="node">
<title>Node12</title>
<g id="a_Node000012"><a xlink:href="group__elements.html#ga13c46848317034d16c62a7d2061ba3d6" target="_top" xlink:title=" ">
<polygon fill="white" stroke="#666666" points="326.62,-120 238.62,-120 238.62,-88 326.62,-88 326.62,-120"/>
<text text-anchor="start" x="246.62" y="-108.4" font-family="SourceSans" font-size="8.00">svg::text_element::</text>
<text text-anchor="middle" x="282.62" y="-96.4" font-family="SourceSans" font-size="8.00">finish_element</text>
</a>
</g>
</g>
<!-- Node2&#45;&gt;Node12 -->
<g id="edge13_Node000002_Node000012" class="edge">
<title>Node2&#45;&gt;Node12</title>
<g id="a_edge13_Node000002_Node000012"><a xlink:title=" ">
<path fill="none" stroke="#63b8ff" d="M196.52,-104C206.2,-104 216.76,-104 227.06,-104"/>
<polygon fill="#63b8ff" stroke="#63b8ff" points="227,-107.5 237,-104 227,-100.5 227,-107.5"/>
</a>
</g>
</g>
<!-- Node13 -->
<g id="Node000013" class="node">
<title>Node13</title>
<g id="a_Node000013"><a xlink:href="structsvg_1_1transform.html#acf9836f4ba647f0dd2b53963a0f714d0" target="_top" xlink:title=" ">
<polygon fill="white" stroke="#666666" points="331.5,-70 233.75,-70 233.75,-50 331.5,-50 331.5,-70"/>
<text text-anchor="middle" x="282.62" y="-58.4" font-family="SourceSans" font-size="8.00">svg::transform::rotate</text>
</a>
</g>
</g>
<!-- Node2&#45;&gt;Node13 -->
<g id="edge14_Node000002_Node000013" class="edge">
<title>Node2&#45;&gt;Node13</title>
<g id="a_edge14_Node000002_Node000013"><a xlink:title=" ">
<path fill="none" stroke="#63b8ff" d="M187.39,-93.57C203.7,-87.76 224.22,-80.45 241.95,-74.13"/>
<polygon fill="#63b8ff" stroke="#63b8ff" points="242.9,-77.51 251.14,-70.86 240.55,-70.92 242.9,-77.51"/>
</a>
</g>
</g>
<!-- Node14 -->
<g id="Node000014" class="node">
<title>Node14</title>
<g id="a_Node000014"><a xlink:href="group__elements.html#ae45bec611a6ec17ea46aab6d680ae042" target="_top" xlink:title=" ">
<polygon fill="white" stroke="#666666" points="326.62,-32 238.62,-32 238.62,0 326.62,0 326.62,-32"/>
<text text-anchor="start" x="246.62" y="-20.4" font-family="SourceSans" font-size="8.00">svg::text_element::</text>
<text text-anchor="middle" x="282.62" y="-8.4" font-family="SourceSans" font-size="8.00">start_element</text>
</a>
</g>
</g>
<!-- Node2&#45;&gt;Node14 -->
<g id="edge15_Node000002_Node000014" class="edge">
<title>Node2&#45;&gt;Node14</title>
<g id="a_edge15_Node000002_Node000014"><a xlink:title=" ">
<path fill="none" stroke="#63b8ff" d="M168.54,-93.76C182.33,-80.52 207.78,-57.27 232.25,-41 233.65,-40.07 235.09,-39.15 236.56,-38.24"/>
<polygon fill="#63b8ff" stroke="#63b8ff" points="238.3,-41.28 245.2,-33.24 234.79,-35.22 238.3,-41.28"/>
</a>
</g>
</g>
<!-- Node4 -->
<g id="Node000004" class="node">
<title>Node4</title>
<g id="a_Node000004"><a xlink:href="structsvg_1_1typography.html#adbc62f74f1fed3f7c77567250f084f83" target="_top" xlink:title=" ">
<polygon fill="white" stroke="#666666" points="467.5,-319 371.25,-319 371.25,-287 467.5,-287 467.5,-319"/>
<text text-anchor="start" x="379.25" y="-307.4" font-family="SourceSans" font-size="8.00">svg::typography::add</text>
<text text-anchor="middle" x="419.38" y="-295.4" font-family="SourceSans" font-size="8.00">_attribute</text>
</a>
</g>
</g>
<!-- Node3&#45;&gt;Node4 -->
<g id="edge3_Node000003_Node000004" class="edge">
<title>Node3&#45;&gt;Node4</title>
<g id="a_edge3_Node000003_Node000004"><a xlink:title=" ">
<path fill="none" stroke="#63b8ff" d="M317.28,-253.48C334.7,-262.01 356.16,-272.53 374.82,-281.67"/>
<polygon fill="#63b8ff" stroke="#63b8ff" points="373.27,-284.8 383.79,-286.06 376.35,-278.52 373.27,-284.8"/>
</a>
</g>
</g>
<!-- Node5 -->
<g id="Node000005" class="node">
<title>Node5</title>
<g id="a_Node000005"><a xlink:href="namespacesvg.html#a48ac748e89e22789d1772326a98dd7b6" target="_top" xlink:title=" ">
<polygon fill="white" stroke="#666666" points="593.75,-357 506.5,-357 506.5,-337 593.75,-337 593.75,-357"/>
<text text-anchor="middle" x="550.12" y="-345.4" font-family="SourceSans" font-size="8.00">svg::string_replace</text>
</a>
</g>
</g>
<!-- Node3&#45;&gt;Node5 -->
<g id="edge9_Node000003_Node000005" class="edge">
<title>Node3&#45;&gt;Node5</title>
<g id="a_edge9_Node000003_Node000005"><a xlink:title=" ">
<path fill="none" stroke="#63b8ff" d="M293.66,-253.5C307.62,-274.8 335.05,-311.13 369,-328 408.05,-347.4 457.64,-351.36 494.89,-350.91"/>
<polygon fill="#63b8ff" stroke="#63b8ff" points="494.61,-354.42 504.52,-350.68 494.44,-347.42 494.61,-354.42"/>
</a>
</g>
</g>
<!-- Node6 -->
<g id="Node000006" class="node">
<title>Node6</title>
<g id="a_Node000006"><a xlink:href="namespacesvg.html#a36b1c48ad4601b205790e3772ad0a7b6" target="_top" xlink:title=" ">
<polygon fill="white" stroke="#666666" points="583.62,-269 516.62,-269 516.62,-249 583.62,-249 583.62,-269"/>
<text text-anchor="middle" x="550.12" y="-257.4" font-family="SourceSans" font-size="8.00">svg::to_string</text>
</a>
</g>
</g>
<!-- Node3&#45;&gt;Node6 -->
<g id="edge10_Node000003_Node000006" class="edge">
<title>Node3&#45;&gt;Node6</title>
<g id="a_edge10_Node000003_Node000006"><a xlink:title=" ">
<path fill="none" stroke="#63b8ff" d="M326.87,-240.58C375.98,-244.65 455.68,-251.26 505.1,-255.35"/>
<polygon fill="#63b8ff" stroke="#63b8ff" points="504.61,-258.82 514.87,-256.16 505.19,-251.85 504.61,-258.82"/>
</a>
</g>
</g>
<!-- Node8 -->
<g id="Node000008" class="node">
<title>Node8</title>
<g id="a_Node000008"><a xlink:href="group__elements.html#a1ed006cabdb9c531c2bd8e27ea9e0966" target="_top" xlink:title=" ">
<polygon fill="white" stroke="#666666" points="463.38,-231 375.38,-231 375.38,-199 463.38,-199 463.38,-231"/>
<text text-anchor="start" x="383.38" y="-219.4" font-family="SourceSans" font-size="8.00">svg::text_element::</text>
<text text-anchor="middle" x="419.38" y="-207.4" font-family="SourceSans" font-size="8.00">add_text</text>
</a>
</g>
</g>
<!-- Node3&#45;&gt;Node8 -->
<g id="edge7_Node000003_Node000008" class="edge">
<title>Node3&#45;&gt;Node8</title>
<g id="a_edge7_Node000003_Node000008"><a xlink:title=" ">
<path fill="none" stroke="#63b8ff" d="M327,-229.92C338.78,-227.99 351.69,-225.89 364,-223.88"/>
<polygon fill="#63b8ff" stroke="#63b8ff" points="364.28,-227.38 373.59,-222.31 363.15,-220.47 364.28,-227.38"/>
</a>
</g>
</g>
<!-- Node9 -->
<g id="Node000009" class="node">
<title>Node9</title>
<g id="a_Node000009"><a xlink:href="group__elements.html#a53d72a7ff728ad1d4d027254530bcf3d" target="_top" xlink:title="Common transforms include rotate(180)">
<polygon fill="white" stroke="#666666" points="464.88,-181 373.88,-181 373.88,-149 464.88,-149 464.88,-181"/>
<text text-anchor="start" x="381.88" y="-169.4" font-family="SourceSans" font-size="8.00">svg::element_base::</text>
<text text-anchor="middle" x="419.38" y="-157.4" font-family="SourceSans" font-size="8.00">add_transform</text>
</a>
</g>
</g>
<!-- Node3&#45;&gt;Node9 -->
<g id="edge8_Node000003_Node000009" class="edge">
<title>Node3&#45;&gt;Node9</title>
<g id="a_edge8_Node000003_Node000009"><a xlink:title=" ">
<path fill="none" stroke="#63b8ff" d="M312.73,-220.65C329.17,-211.5 350.15,-199.96 369,-190 371.09,-188.9 373.24,-187.77 375.41,-186.64"/>
<polygon fill="#63b8ff" stroke="#63b8ff" points="376.99,-189.76 384.28,-182.08 373.79,-183.54 376.99,-189.76"/>
</a>
</g>
</g>
<!-- Node4&#45;&gt;Node5 -->
<g id="edge4_Node000004_Node000005" class="edge">
<title>Node4&#45;&gt;Node5</title>
<g id="a_edge4_Node000004_Node000005"><a xlink:title=" ">
<path fill="none" stroke="#63b8ff" d="M467.95,-319.26C481.03,-323.73 495.1,-328.54 507.79,-332.87"/>
<polygon fill="#63b8ff" stroke="#63b8ff" points="506.5,-336.13 517.1,-336.05 508.77,-329.51 506.5,-336.13"/>
</a>
</g>
</g>
<!-- Node4&#45;&gt;Node6 -->
<g id="edge5_Node000004_Node000006" class="edge">
<title>Node4&#45;&gt;Node6</title>
<g id="a_edge5_Node000004_Node000006"><a xlink:title=" ">
<path fill="none" stroke="#63b8ff" d="M467.95,-286.74C481.03,-282.27 495.1,-277.46 507.79,-273.13"/>
<polygon fill="#63b8ff" stroke="#63b8ff" points="508.77,-276.49 517.1,-269.95 506.5,-269.87 508.77,-276.49"/>
</a>
</g>
</g>
<!-- Node7 -->
<g id="Node000007" class="node">
<title>Node7</title>
<g id="a_Node000007"><a xlink:href="structsvg_1_1typography.html#a174c1ffb4e56214d71523ffe7e422561" target="_top" xlink:title=" ">
<polygon fill="white" stroke="#666666" points="594.5,-319 505.75,-319 505.75,-287 594.5,-287 594.5,-319"/>
<text text-anchor="start" x="513.75" y="-307.4" font-family="SourceSans" font-size="8.00">svg::typography::to</text>
<text text-anchor="middle" x="550.12" y="-295.4" font-family="SourceSans" font-size="8.00">_string</text>
</a>
</g>
</g>
<!-- Node4&#45;&gt;Node7 -->
<g id="edge6_Node000004_Node000007" class="edge">
<title>Node4&#45;&gt;Node7</title>
<g id="a_edge6_Node000004_Node000007"><a xlink:title=" ">
<path fill="none" stroke="#63b8ff" d="M467.95,-303C476.52,-303 485.51,-303 494.27,-303"/>
<polygon fill="#63b8ff" stroke="#63b8ff" points="494.06,-306.5 504.06,-303 494.06,-299.5 494.06,-306.5"/>
</a>
</g>
</g>
<!-- Node11 -->
<g id="Node000011" class="node">
<title>Node11</title>
<g id="a_Node000011"><a xlink:href="group__elements.html#ad893ef9c13a15464c96d8a85c08af30f" target="_top" xlink:title=" ">
<polygon fill="white" stroke="#666666" points="469.75,-131 369,-131 369,-111 469.75,-111 469.75,-131"/>
<text text-anchor="middle" x="419.38" y="-119.4" font-family="SourceSans" font-size="8.00">svg::element_base::str</text>
</a>
</g>
</g>
<!-- Node10&#45;&gt;Node11 -->
<g id="edge12_Node000010_Node000011" class="edge">
<title>Node10&#45;&gt;Node11</title>
<g id="a_edge12_Node000010_Node000011"><a xlink:title=" ">
<path fill="none" stroke="#63b8ff" d="M333.42,-141.81C343.66,-139.3 354.48,-136.65 364.85,-134.11"/>
<polygon fill="#63b8ff" stroke="#63b8ff" points="365.52,-137.55 374.4,-131.77 363.85,-130.75 365.52,-137.55"/>
</a>
</g>
</g>
</g>
</svg>
