<?xml version="1.0" encoding="UTF-8" standalone="no"?>
<!DOCTYPE svg PUBLIC "-//W3C//DTD SVG 1.1//EN"
 "http://www.w3.org/Graphics/SVG/1.1/DTD/svg11.dtd">
<!-- Generated by graphviz version 13.1.2 (20250808.2320)
 -->
<!-- Title: svg::make_color_band_v2 Pages: 1 -->
<!--zoomable 165 -->

<svg id="main" version="1.1" xmlns="http://www.w3.org/2000/svg" xmlns:xlink="http://www.w3.org/1999/xlink" xml:space="preserve" onload="init(evt)">

<style type="text/css"><![CDATA[
.node, .edge {opacity: 0.7;}
.node.selected, .edge.selected {opacity: 1;}
.edge:hover path { stroke: red; }
.edge:hover polygon { stroke: red; fill: red; }
]]></style>

<defs>
  <circle id="rim" cx="0" cy="0" r="7"/>
  <circle id="rim2" cx="0" cy="0" r="3.5"/>
  <g id="zoomPlus">
    <use xlink:href="#rim" fill="#404040"><set attributeName="fill" to="#808080" begin="zoomplus.mouseover" end="zoomplus.mouseout"/></use>
    <path d="M-4,0h8M0,-4v8" fill="none" stroke="white" stroke-width="1.5" pointer-events="none"/>
  </g>
  <g id="zoomMin">
    <use xlink:href="#rim" fill="#404040"><set attributeName="fill" to="#808080" begin="zoomminus.mouseover" end="zoomminus.mouseout"/></use>
    <path d="M-4,0h8" fill="none" stroke="white" stroke-width="1.5" pointer-events="none"/>
  </g>
  <g id="arrowUp" transform="translate(30 24)">
    <use xlink:href="#rim"/>
    <path pointer-events="none" fill="none" stroke="white" stroke-width="1.5" d="M0,-3.0v7 M-2.5,-0.5L0,-3.0L2.5,-0.5"/>
  </g>
  <g id="arrowRight" transform="rotate(90) translate(36 -43)">
    <use xlink:href="#rim"/>
    <path pointer-events="none" fill="none" stroke="white" stroke-width="1.5" d="M0,-3.0v7 M-2.5,-0.5L0,-3.0L2.5,-0.5"/>
  </g>
  <g id="arrowDown" transform="rotate(180) translate(-30 -48)">
    <use xlink:href="#rim"/>
    <path pointer-events="none" fill="none" stroke="white" stroke-width="1.5" d="M0,-3.0v7 M-2.5,-0.5L0,-3.0L2.5,-0.5"/>
  </g>
  <g id="arrowLeft" transform="rotate(270) translate(-36 17)">
    <use xlink:href="#rim"/>
    <path pointer-events="none" fill="none" stroke="white" stroke-width="1.5" d="M0,-3.0v7 M-2.5,-0.5L0,-3.0L2.5,-0.5"/>
  </g>
  <g id="resetDef">
    <use xlink:href="#rim2" fill="#404040"><set attributeName="fill" to="#808080" begin="reset.mouseover" end="reset.mouseout"/></use>
  </g>
</defs>
<script type="application/ecmascript">
var viewWidth = 754;
var viewHeight = 165;
var sectionId = 'dynsection-3';
</script>
<script type="application/ecmascript" xlink:href="svg.min.js"/>
<svg id="graph" class="graph">
<g id="viewport">
<title>svg::make_color_band_v2</title>
<!-- Node1 -->
<g id="Node000001" class="node">
<title>Node1</title>
<g id="a_Node000001"><a xlink:title="Algorightm is HSV generation.">
<polygon fill="#999999" stroke="#666666" points="112,-96 0,-96 0,-76 112,-76 112,-96"/>
<text xml:space="preserve" text-anchor="middle" x="56" y="-84.4" font-family="SourceSans" font-size="8.00">svg::make_color_band_v2</text>
</a>
</g>
</g>
<!-- Node2 -->
<g id="Node000002" class="node">
<title>Node2</title>
<g id="a_Node000002"><a xlink:href="namespacesvg.html#ad15806ae856c597bdb6a2e928ca31481" target="_top" xlink:title="Forwarding function.">
<polygon fill="white" stroke="#666666" points="495.25,-134 423,-134 423,-114 495.25,-114 495.25,-134"/>
<text xml:space="preserve" text-anchor="middle" x="459.12" y="-122.4" font-family="SourceSans" font-size="8.00">svg::color_qf_lt</text>
</a>
</g>
</g>
<!-- Node1&#45;&gt;Node2 -->
<g id="edge1_Node000001_Node000002" class="edge">
<title>Node1&#45;&gt;Node2</title>
<g id="a_edge1_Node000001_Node000002"><a xlink:title=" ">
<path fill="none" stroke="#63b8ff" d="M68.59,-96.33C84.93,-110.13 116.29,-133.89 148,-143 238.78,-169.08 350.46,-150.6 411.99,-136.31"/>
<polygon fill="#63b8ff" stroke="#63b8ff" points="412.49,-139.79 421.4,-134.05 410.86,-132.98 412.49,-139.79"/>
</a>
</g>
</g>
<!-- Node5 -->
<g id="Node000005" class="node">
<title>Node5</title>
<g id="a_Node000005"><a xlink:href="namespacesvg.html#a729fd8229f85437952bc2607156bb61a" target="_top" xlink:title="Return a variant on saturation/value only.">
<polygon fill="white" stroke="#666666" points="249.5,-134 154.75,-134 154.75,-114 249.5,-114 249.5,-134"/>
<text xml:space="preserve" text-anchor="middle" x="202.12" y="-122.4" font-family="SourceSans" font-size="8.00">svg::mutate_color_qf</text>
</a>
</g>
</g>
<!-- Node1&#45;&gt;Node5 -->
<g id="edge4_Node000001_Node000005" class="edge">
<title>Node1&#45;&gt;Node5</title>
<g id="a_edge4_Node000001_Node000005"><a xlink:title=" ">
<path fill="none" stroke="#63b8ff" d="M96.76,-96.48C113.38,-100.87 132.89,-106.01 150.52,-110.66"/>
<polygon fill="#63b8ff" stroke="#63b8ff" points="149.47,-114 160.03,-113.16 151.25,-107.23 149.47,-114"/>
</a>
</g>
</g>
<!-- Node6 -->
<g id="Node000006" class="node">
<title>Node6</title>
<g id="a_Node000006"><a xlink:href="namespacesvg.html#a554dc780ece47a3937550a8bd113b604" target="_top" xlink:title="Loop through color array starting at position c. Iff klr is not found, return color::none as the next...">
<polygon fill="white" stroke="#666666" points="238.25,-96 166,-96 166,-76 238.25,-76 238.25,-96"/>
<text xml:space="preserve" text-anchor="middle" x="202.12" y="-84.4" font-family="SourceSans" font-size="8.00">svg::next_color</text>
</a>
</g>
</g>
<!-- Node1&#45;&gt;Node6 -->
<g id="edge5_Node000001_Node000006" class="edge">
<title>Node1&#45;&gt;Node6</title>
<g id="a_edge5_Node000001_Node000006"><a xlink:title=" ">
<path fill="none" stroke="#63b8ff" d="M112.31,-86C126.19,-86 140.94,-86 154.35,-86"/>
<polygon fill="#63b8ff" stroke="#63b8ff" points="154.23,-89.5 164.23,-86 154.23,-82.5 154.23,-89.5"/>
</a>
</g>
</g>
<!-- Node8 -->
<g id="Node000008" class="node">
<title>Node8</title>
<g id="a_Node000008"><a xlink:href="structsvg_1_1color__qf.html#a30ec40001ed2f3d197f1c2f04dfde69f" target="_top" xlink:title="Back to RGB https://www.rapidtables.com/convert/color/hsv&#45;to&#45;rgb.html.">
<polygon fill="white" stroke="#666666" points="256.25,-58 148,-58 148,-38 256.25,-38 256.25,-58"/>
<text xml:space="preserve" text-anchor="middle" x="202.12" y="-46.4" font-family="SourceSans" font-size="8.00">svg::color_qf::to_color_qi</text>
</a>
</g>
</g>
<!-- Node1&#45;&gt;Node8 -->
<g id="edge8_Node000001_Node000008" class="edge">
<title>Node1&#45;&gt;Node8</title>
<g id="a_edge8_Node000001_Node000008"><a xlink:title=" ">
<path fill="none" stroke="#63b8ff" d="M96.76,-75.52C113.38,-71.13 132.89,-65.99 150.52,-61.34"/>
<polygon fill="#63b8ff" stroke="#63b8ff" points="151.25,-64.77 160.03,-58.84 149.47,-58 151.25,-64.77"/>
</a>
</g>
</g>
<!-- Node9 -->
<g id="Node000009" class="node">
<title>Node9</title>
<g id="a_Node000009"><a xlink:href="namespacesvg.html#a36b1c48ad4601b205790e3772ad0a7b6" target="_top" xlink:title=" ">
<polygon fill="white" stroke="#666666" points="235.62,-20 168.62,-20 168.62,0 235.62,0 235.62,-20"/>
<text xml:space="preserve" text-anchor="middle" x="202.12" y="-8.4" font-family="SourceSans" font-size="8.00">svg::to_string</text>
</a>
</g>
</g>
<!-- Node1&#45;&gt;Node9 -->
<g id="edge9_Node000001_Node000009" class="edge">
<title>Node1&#45;&gt;Node9</title>
<g id="a_edge9_Node000001_Node000009"><a xlink:title=" ">
<path fill="none" stroke="#63b8ff" d="M71.25,-75.71C88.71,-63.43 119.48,-42.83 148,-29 151.12,-27.49 154.39,-26.03 157.71,-24.64"/>
<polygon fill="#63b8ff" stroke="#63b8ff" points="158.92,-27.93 166.95,-21.02 156.36,-21.41 158.92,-27.93"/>
</a>
</g>
</g>
<!-- Node3 -->
<g id="Node000003" class="node">
<title>Node3</title>
<g id="a_Node000003"><a xlink:href="namespacesvg.html#ace451856d4faf4d251a5a49aba625c3e" target="_top" xlink:title="Default compare distances from k1,k2 to black.">
<polygon fill="white" stroke="#666666" points="611,-134 531.25,-134 531.25,-114 611,-114 611,-134"/>
<text xml:space="preserve" text-anchor="middle" x="571.12" y="-122.4" font-family="SourceSans" font-size="8.00">svg::color_qf_lt_v</text>
</a>
</g>
</g>
<!-- Node2&#45;&gt;Node3 -->
<g id="edge2_Node000002_Node000003" class="edge">
<title>Node2&#45;&gt;Node3</title>
<g id="a_edge2_Node000002_Node000003"><a xlink:title=" ">
<path fill="none" stroke="#63b8ff" d="M495.54,-124C503.22,-124 511.49,-124 519.63,-124"/>
<polygon fill="#63b8ff" stroke="#63b8ff" points="519.46,-127.5 529.46,-124 519.46,-120.5 519.46,-127.5"/>
</a>
</g>
</g>
<!-- Node4 -->
<g id="Node000004" class="node">
<title>Node4</title>
<g id="a_Node000004"><a xlink:href="namespacesvg.html#ac96d0e1435f308aecc6e4c362a2c769d" target="_top" xlink:title=" ">
<polygon fill="white" stroke="#666666" points="746.25,-134 647,-134 647,-114 746.25,-114 746.25,-134"/>
<text xml:space="preserve" text-anchor="middle" x="696.62" y="-122.4" font-family="SourceSans" font-size="8.00">svg::color_qf_distance</text>
</a>
</g>
</g>
<!-- Node3&#45;&gt;Node4 -->
<g id="edge3_Node000003_Node000004" class="edge">
<title>Node3&#45;&gt;Node4</title>
<g id="a_edge3_Node000003_Node000004"><a xlink:title=" ">
<path fill="none" stroke="#63b8ff" d="M611.2,-124C618.89,-124 627.12,-124 635.31,-124"/>
<polygon fill="#63b8ff" stroke="#63b8ff" points="635.3,-127.5 645.3,-124 635.3,-120.5 635.3,-127.5"/>
</a>
</g>
</g>
<!-- Node7 -->
<g id="Node000007" class="node">
<title>Node7</title>
<g id="a_Node000007"><a xlink:href="namespacesvg.html#a86299e1b709e10d8ddbe9fe4e5231dc5" target="_top" xlink:title="Oklab https://bottosson.github.io/posts/oklab/.">
<polygon fill="white" stroke="#666666" points="387,-115 292.25,-115 292.25,-95 387,-95 387,-115"/>
<text xml:space="preserve" text-anchor="middle" x="339.62" y="-103.4" font-family="SourceSans" font-size="8.00">svg::active_spectrum</text>
</a>
</g>
</g>
<!-- Node6&#45;&gt;Node7 -->
<g id="edge6_Node000006_Node000007" class="edge">
<title>Node6&#45;&gt;Node7</title>
<g id="a_edge6_Node000006_Node000007"><a xlink:title=" ">
<path fill="none" stroke="#63b8ff" d="M238.73,-90.99C251.53,-92.79 266.34,-94.86 280.56,-96.86"/>
<polygon fill="#63b8ff" stroke="#63b8ff" points="279.9,-100.3 290.29,-98.22 280.87,-93.37 279.9,-100.3"/>
</a>
</g>
</g>
<!-- Node7&#45;&gt;Node2 -->
<g id="edge7_Node000007_Node000002" class="edge">
<title>Node7&#45;&gt;Node2</title>
<g id="a_edge7_Node000007_Node000002"><a xlink:title=" ">
<path fill="none" stroke="#63b8ff" d="M387.4,-112.56C395.31,-113.84 403.53,-115.17 411.44,-116.45"/>
<polygon fill="#63b8ff" stroke="#63b8ff" points="410.81,-119.89 421.24,-118.04 411.93,-112.98 410.81,-119.89"/>
</a>
</g>
</g>
</g>
</svg>

<g id="navigator" transform="translate(0 0)" fill="#404254">
  <rect fill="#f2f5e9" fill-opacity="0.5" stroke="#606060" stroke-width=".5" x="0" y="0" width="60" height="60"/>
  <use id="zoomplus" xlink:href="#zoomPlus" x="17" y="9" onmousedown="handleZoom(evt,'in')"/>
  <use id="zoomminus" xlink:href="#zoomMin" x="42" y="9" onmousedown="handleZoom(evt,'out')"/>
  <use id="reset" xlink:href="#resetDef" x="30" y="36" onmousedown="handleReset()"/>
   <use id="arrowup" xlink:href="#arrowUp" x="0" y="0" onmousedown="handlePan(0,-1)"/>
  <use id="arrowright" xlink:href="#arrowRight" x="0" y="0" onmousedown="handlePan(1,0)"/>
  <use id="arrowdown" xlink:href="#arrowDown" x="0" y="0" onmousedown="handlePan(0,1)"/>
  <use id="arrowleft" xlink:href="#arrowLeft" x="0" y="0" onmousedown="handlePan(-1,0)"/>
</g>
<svg viewBox="0 0 15 15" width="100%" height="30px" preserveAspectRatio="xMaxYMin meet">
 <g id="arrow_out" transform="scale(0.3 0.3)">
  <a xlink:href="namespacesvg_a5dd92fa5ad40a62e238ee50bcc46f4b0_cgraph_org.svg" target="_base">
   <rect id="button" ry="5" rx="5" y="6" x="6" height="38" width="38"
        fill="#f2f5e9" fill-opacity="0.5" stroke="#606060" stroke-width="1.0"/>
   <path id="arrow"
     d="M 11.500037,31.436501 C 11.940474,20.09759 22.043105,11.32322 32.158766,21.979434 L 37.068811,17.246167 C 37.068811,17.246167 37.088388,32 37.088388,32 L 22.160133,31.978069 C 22.160133,31.978069 26.997745,27.140456 26.997745,27.140456 C 18.528582,18.264221 13.291696,25.230495 11.500037,31.436501 z"
     style="fill:#404040;"/>
  </a>
 </g>
</svg>

<style type='text/css'>
<![CDATA[
[data-mouse-over-selected='false'] { opacity: 0.7; }
[data-mouse-over-selected='true']  { opacity: 1.0; }
]]>
</style>
<script type="application/ecmascript"><![CDATA[
document.addEventListener('DOMContentLoaded', (event) => {
  highlightEdges();
  highlightAdjacentNodes();
});
]]></script>
</svg>
