<?xml version="1.0" encoding="UTF-8" standalone="no"?>
<!DOCTYPE svg PUBLIC "-//W3C//DTD SVG 1.1//EN"
 "http://www.w3.org/Graphics/SVG/1.1/DTD/svg11.dtd">
<!-- Generated by graphviz version 12.1.0 (20240811.2233)
 -->
<!-- Title: svg::sized_text Pages: 1 -->
<svg width="490pt" height="354pt"
 viewBox="0.00 0.00 489.75 354.00" xmlns="http://www.w3.org/2000/svg" xmlns:xlink="http://www.w3.org/1999/xlink">

<svg id="main" version="1.1" xmlns="http://www.w3.org/2000/svg" xmlns:xlink="http://www.w3.org/1999/xlink" xml:space="preserve">

<style type="text/css"><![CDATA[
.node, .edge {opacity: 0.7;}
.node.selected, .edge.selected {opacity: 1;}
.edge:hover path { stroke: red; }
.edge:hover polygon { stroke: red; fill: red; }
]]></style>
<script type="application/ecmascript" xlink:href="svg.min.js"/>
<svg id="graph" class="graph">
<g id="graph0" class="graph" transform="scale(1 1) rotate(0) translate(4 350)">
<title>svg::sized_text</title>
<!-- Node1 -->
<g id="Node000001" class="node">
<title>Node1</title>
<g id="a_Node000001"><a xlink:title="Text at size.">
<polygon fill="#999999" stroke="#666666" points="71.5,-101 0,-101 0,-81 71.5,-81 71.5,-101"/>
<text text-anchor="middle" x="35.75" y="-89.4" font-family="SourceSans" font-size="8.00">svg::sized_text</text>
</a>
</g>
</g>
<!-- Node2 -->
<g id="Node000002" class="node">
<title>Node2</title>
<g id="a_Node000002"><a xlink:href="group__elements.html#aad29e1daf75bdcd69a39575a6807fa0f" target="_top" xlink:title="Either serialize immediately (as below), or create data structure that adds data to data_vec and then...">
<polygon fill="white" stroke="#666666" points="201.88,-245 113.88,-245 113.88,-213 201.88,-213 201.88,-245"/>
<text text-anchor="start" x="121.88" y="-233.4" font-family="SourceSans" font-size="8.00">svg::text_element::</text>
<text text-anchor="middle" x="157.88" y="-221.4" font-family="SourceSans" font-size="8.00">add_data</text>
</a>
</g>
</g>
<!-- Node1&#45;&gt;Node2 -->
<g id="edge1_Node000001_Node000002" class="edge">
<title>Node1&#45;&gt;Node2</title>
<g id="a_edge1_Node000001_Node000002"><a xlink:title=" ">
<path fill="none" stroke="#63b8ff" d="M45.78,-101.37C64.65,-123.05 108.72,-173.68 135.33,-204.25"/>
<polygon fill="#63b8ff" stroke="#63b8ff" points="132.46,-206.29 141.67,-211.53 137.74,-201.69 132.46,-206.29"/>
</a>
</g>
</g>
<!-- Node11 -->
<g id="Node000011" class="node">
<title>Node11</title>
<g id="a_Node000011"><a xlink:href="group__elements.html#aaa5f1a136f2b5c61d647a47ec53fe31d" target="_top" xlink:title=" ">
<polygon fill="white" stroke="#666666" points="208.25,-132 107.5,-132 107.5,-100 208.25,-100 208.25,-132"/>
<text text-anchor="start" x="115.5" y="-120.4" font-family="SourceSans" font-size="8.00">svg::svg_element::add</text>
<text text-anchor="middle" x="157.88" y="-108.4" font-family="SourceSans" font-size="8.00">_element</text>
</a>
</g>
</g>
<!-- Node1&#45;&gt;Node11 -->
<g id="edge14_Node000001_Node000011" class="edge">
<title>Node1&#45;&gt;Node11</title>
<g id="a_edge14_Node000001_Node000011"><a xlink:title=" ">
<path fill="none" stroke="#63b8ff" d="M71.82,-98.3C79.44,-99.88 87.71,-101.6 96,-103.33"/>
<polygon fill="#63b8ff" stroke="#63b8ff" points="95.27,-106.75 105.78,-105.37 96.7,-99.9 95.27,-106.75"/>
</a>
</g>
</g>
<!-- Node13 -->
<g id="Node000013" class="node">
<title>Node13</title>
<g id="a_Node000013"><a xlink:href="group__elements.html#ga13c46848317034d16c62a7d2061ba3d6" target="_top" xlink:title=" ">
<polygon fill="white" stroke="#666666" points="201.88,-82 113.88,-82 113.88,-50 201.88,-50 201.88,-82"/>
<text text-anchor="start" x="121.88" y="-70.4" font-family="SourceSans" font-size="8.00">svg::text_element::</text>
<text text-anchor="middle" x="157.88" y="-58.4" font-family="SourceSans" font-size="8.00">finish_element</text>
</a>
</g>
</g>
<!-- Node1&#45;&gt;Node13 -->
<g id="edge16_Node000001_Node000013" class="edge">
<title>Node1&#45;&gt;Node13</title>
<g id="a_edge16_Node000001_Node000013"><a xlink:title=" ">
<path fill="none" stroke="#63b8ff" d="M71.82,-83.7C81.38,-81.71 91.97,-79.51 102.34,-77.35"/>
<polygon fill="#63b8ff" stroke="#63b8ff" points="102.88,-80.81 111.96,-75.35 101.46,-73.96 102.88,-80.81"/>
</a>
</g>
</g>
<!-- Node15 -->
<g id="Node000015" class="node">
<title>Node15</title>
<g id="a_Node000015"><a xlink:href="group__elements.html#ae45bec611a6ec17ea46aab6d680ae042" target="_top" xlink:title=" ">
<polygon fill="white" stroke="#666666" points="201.88,-32 113.88,-32 113.88,0 201.88,0 201.88,-32"/>
<text text-anchor="start" x="121.88" y="-20.4" font-family="SourceSans" font-size="8.00">svg::text_element::</text>
<text text-anchor="middle" x="157.88" y="-8.4" font-family="SourceSans" font-size="8.00">start_element</text>
</a>
</g>
</g>
<!-- Node1&#45;&gt;Node15 -->
<g id="edge18_Node000001_Node000015" class="edge">
<title>Node1&#45;&gt;Node15</title>
<g id="a_edge18_Node000001_Node000015"><a xlink:title=" ">
<path fill="none" stroke="#63b8ff" d="M50.18,-80.61C64.12,-70.05 86.75,-53.49 107.5,-41 109.32,-39.9 111.2,-38.81 113.1,-37.73"/>
<polygon fill="#63b8ff" stroke="#63b8ff" points="114.36,-41.03 121.46,-33.16 111.01,-34.88 114.36,-41.03"/>
</a>
</g>
</g>
<!-- Node3 -->
<g id="Node000003" class="node">
<title>Node3</title>
<g id="a_Node000003"><a xlink:href="structsvg_1_1typography.html#adbc62f74f1fed3f7c77567250f084f83" target="_top" xlink:title=" ">
<polygon fill="white" stroke="#666666" points="344.62,-270 248.38,-270 248.38,-238 344.62,-238 344.62,-270"/>
<text text-anchor="start" x="256.38" y="-258.4" font-family="SourceSans" font-size="8.00">svg::typography::add</text>
<text text-anchor="middle" x="296.5" y="-246.4" font-family="SourceSans" font-size="8.00">_attribute</text>
</a>
</g>
</g>
<!-- Node2&#45;&gt;Node3 -->
<g id="edge2_Node000002_Node000003" class="edge">
<title>Node2&#45;&gt;Node3</title>
<g id="a_edge2_Node000002_Node000003"><a xlink:title=" ">
<path fill="none" stroke="#63b8ff" d="M202.1,-236.91C213.24,-238.95 225.41,-241.18 237.18,-243.33"/>
<polygon fill="#63b8ff" stroke="#63b8ff" points="236.33,-246.73 246.8,-245.09 237.59,-239.85 236.33,-246.73"/>
</a>
</g>
</g>
<!-- Node6 -->
<g id="Node000006" class="node">
<title>Node6</title>
<g id="a_Node000006"><a xlink:href="namespacesvg.html#a48ac748e89e22789d1772326a98dd7b6" target="_top" xlink:title=" ">
<polygon fill="white" stroke="#666666" points="476.88,-346 389.62,-346 389.62,-326 476.88,-326 476.88,-346"/>
<text text-anchor="middle" x="433.25" y="-334.4" font-family="SourceSans" font-size="8.00">svg::string_replace</text>
</a>
</g>
</g>
<!-- Node2&#45;&gt;Node6 -->
<g id="edge12_Node000002_Node000006" class="edge">
<title>Node2&#45;&gt;Node6</title>
<g id="a_edge12_Node000002_Node000006"><a xlink:title=" ">
<path fill="none" stroke="#63b8ff" d="M172.83,-245.19C188.45,-262.18 215.36,-288.29 244.25,-302 286.52,-322.06 339.3,-330.34 378.16,-333.73"/>
<polygon fill="#63b8ff" stroke="#63b8ff" points="377.49,-337.18 387.73,-334.48 378.03,-330.21 377.49,-337.18"/>
</a>
</g>
</g>
<!-- Node7 -->
<g id="Node000007" class="node">
<title>Node7</title>
<g id="a_Node000007"><a xlink:href="namespacesvg.html#a36b1c48ad4601b205790e3772ad0a7b6" target="_top" xlink:title=" ">
<polygon fill="white" stroke="#666666" points="466.75,-308 399.75,-308 399.75,-288 466.75,-288 466.75,-308"/>
<text text-anchor="middle" x="433.25" y="-296.4" font-family="SourceSans" font-size="8.00">svg::to_string</text>
</a>
</g>
</g>
<!-- Node2&#45;&gt;Node7 -->
<g id="edge13_Node000002_Node000007" class="edge">
<title>Node2&#45;&gt;Node7</title>
<g id="a_edge13_Node000002_Node000007"><a xlink:title=" ">
<path fill="none" stroke="#63b8ff" d="M180.79,-245.42C197.33,-256.88 221.06,-271.44 244.25,-279 291.73,-294.49 349.23,-298.27 388.04,-298.8"/>
<polygon fill="#63b8ff" stroke="#63b8ff" points="387.92,-302.3 397.94,-298.86 387.96,-295.3 387.92,-302.3"/>
</a>
</g>
</g>
<!-- Node9 -->
<g id="Node000009" class="node">
<title>Node9</title>
<g id="a_Node000009"><a xlink:href="group__elements.html#a1ed006cabdb9c531c2bd8e27ea9e0966" target="_top" xlink:title=" ">
<polygon fill="white" stroke="#666666" points="340.5,-220 252.5,-220 252.5,-188 340.5,-188 340.5,-220"/>
<text text-anchor="start" x="260.5" y="-208.4" font-family="SourceSans" font-size="8.00">svg::text_element::</text>
<text text-anchor="middle" x="296.5" y="-196.4" font-family="SourceSans" font-size="8.00">add_text</text>
</a>
</g>
</g>
<!-- Node2&#45;&gt;Node9 -->
<g id="edge8_Node000002_Node000009" class="edge">
<title>Node2&#45;&gt;Node9</title>
<g id="a_edge8_Node000002_Node000009"><a xlink:title=" ">
<path fill="none" stroke="#63b8ff" d="M202.1,-221.09C214.44,-218.83 228.04,-216.34 240.96,-213.98"/>
<polygon fill="#63b8ff" stroke="#63b8ff" points="241.39,-217.46 250.59,-212.22 240.13,-210.57 241.39,-217.46"/>
</a>
</g>
</g>
<!-- Node10 -->
<g id="Node000010" class="node">
<title>Node10</title>
<g id="a_Node000010"><a xlink:href="group__elements.html#a53d72a7ff728ad1d4d027254530bcf3d" target="_top" xlink:title="Common transforms include rotate(180)">
<polygon fill="white" stroke="#666666" points="342,-170 251,-170 251,-138 342,-138 342,-170"/>
<text text-anchor="start" x="259" y="-158.4" font-family="SourceSans" font-size="8.00">svg::element_base::</text>
<text text-anchor="middle" x="296.5" y="-146.4" font-family="SourceSans" font-size="8.00">add_transform</text>
</a>
</g>
</g>
<!-- Node2&#45;&gt;Node10 -->
<g id="edge9_Node000002_Node000010" class="edge">
<title>Node2&#45;&gt;Node10</title>
<g id="a_edge9_Node000002_Node000010"><a xlink:title=" ">
<path fill="none" stroke="#63b8ff" d="M185.49,-212.71C202.19,-202.67 224.26,-189.71 244.25,-179 246.33,-177.89 248.47,-176.76 250.63,-175.64"/>
<polygon fill="#63b8ff" stroke="#63b8ff" points="252.17,-178.78 259.51,-171.14 249.01,-172.54 252.17,-178.78"/>
</a>
</g>
</g>
<!-- Node4 -->
<g id="Node000004" class="node">
<title>Node4</title>
<g id="a_Node000004"><a xlink:href="namespacesvg_1_1constants.html#a3972655f1dfdc090ec2592d1fb37e87c" target="_top" xlink:title=" ">
<polygon fill="white" stroke="#666666" points="481.75,-168 384.75,-168 384.75,-148 481.75,-148 481.75,-168"/>
<text text-anchor="middle" x="433.25" y="-156.4" font-family="SourceSans" font-size="8.00">svg::constants::quote</text>
</a>
</g>
</g>
<!-- Node3&#45;&gt;Node4 -->
<g id="edge3_Node000003_Node000004" class="edge">
<title>Node3&#45;&gt;Node4</title>
<g id="a_edge3_Node000003_Node000004"><a xlink:title=" ">
<path fill="none" stroke="#63b8ff" d="M335.81,-237.57C340.35,-234.97 344.77,-232.11 348.75,-229 368.38,-213.64 365.74,-202.12 384.75,-186 389.9,-181.64 395.81,-177.56 401.67,-173.93"/>
<polygon fill="#63b8ff" stroke="#63b8ff" points="403.17,-177.11 410.05,-169.05 399.65,-171.06 403.17,-177.11"/>
</a>
</g>
</g>
<!-- Node5 -->
<g id="Node000005" class="node">
<title>Node5</title>
<g id="a_Node000005"><a xlink:href="namespacesvg_1_1constants.html#ac460bc8db60d85c3ae1cf8b1a903405e" target="_top" xlink:title="Formatting character constants.">
<polygon fill="white" stroke="#666666" points="481.38,-215 385.12,-215 385.12,-195 481.38,-195 481.38,-215"/>
<text text-anchor="middle" x="433.25" y="-203.4" font-family="SourceSans" font-size="8.00">svg::constants::space</text>
</a>
</g>
</g>
<!-- Node3&#45;&gt;Node5 -->
<g id="edge4_Node000003_Node000005" class="edge">
<title>Node3&#45;&gt;Node5</title>
<g id="a_edge4_Node000003_Node000005"><a xlink:title=" ">
<path fill="none" stroke="#63b8ff" d="M342.74,-237.55C359.02,-231.63 377.23,-225.01 392.96,-219.29"/>
<polygon fill="#63b8ff" stroke="#63b8ff" points="393.77,-222.72 401.98,-216.01 391.38,-216.14 393.77,-222.72"/>
</a>
</g>
</g>
<!-- Node3&#45;&gt;Node6 -->
<g id="edge5_Node000003_Node000006" class="edge">
<title>Node3&#45;&gt;Node6</title>
<g id="a_edge5_Node000003_Node000006"><a xlink:title=" ">
<path fill="none" stroke="#63b8ff" d="M317.02,-270.24C334.12,-283.93 360.03,-303.4 384.75,-317 387.24,-318.37 389.84,-319.69 392.5,-320.96"/>
<polygon fill="#63b8ff" stroke="#63b8ff" points="390.9,-324.08 401.46,-324.93 393.74,-317.68 390.9,-324.08"/>
</a>
</g>
</g>
<!-- Node3&#45;&gt;Node7 -->
<g id="edge6_Node000003_Node000007" class="edge">
<title>Node3&#45;&gt;Node7</title>
<g id="a_edge6_Node000003_Node000007"><a xlink:title=" ">
<path fill="none" stroke="#63b8ff" d="M345.01,-269.51C359.48,-274.24 375.29,-279.4 389.43,-284.02"/>
<polygon fill="#63b8ff" stroke="#63b8ff" points="388.32,-287.34 398.91,-287.11 390.49,-280.68 388.32,-287.34"/>
</a>
</g>
</g>
<!-- Node8 -->
<g id="Node000008" class="node">
<title>Node8</title>
<g id="a_Node000008"><a xlink:href="structsvg_1_1typography.html#a174c1ffb4e56214d71523ffe7e422561" target="_top" xlink:title=" ">
<polygon fill="white" stroke="#666666" points="477.62,-270 388.88,-270 388.88,-238 477.62,-238 477.62,-270"/>
<text text-anchor="start" x="396.88" y="-258.4" font-family="SourceSans" font-size="8.00">svg::typography::to</text>
<text text-anchor="middle" x="433.25" y="-246.4" font-family="SourceSans" font-size="8.00">_string</text>
</a>
</g>
</g>
<!-- Node3&#45;&gt;Node8 -->
<g id="edge7_Node000003_Node000008" class="edge">
<title>Node3&#45;&gt;Node8</title>
<g id="a_edge7_Node000003_Node000008"><a xlink:title=" ">
<path fill="none" stroke="#63b8ff" d="M345.01,-254C355.47,-254 366.63,-254 377.36,-254"/>
<polygon fill="#63b8ff" stroke="#63b8ff" points="377.26,-257.5 387.26,-254 377.26,-250.5 377.26,-257.5"/>
</a>
</g>
</g>
<!-- Node10&#45;&gt;Node4 -->
<g id="edge10_Node000010_Node000004" class="edge">
<title>Node10&#45;&gt;Node4</title>
<g id="a_edge10_Node000010_Node000004"><a xlink:title=" ">
<path fill="none" stroke="#63b8ff" d="M342.37,-155.33C352.16,-155.62 362.67,-155.93 372.92,-156.24"/>
<polygon fill="#63b8ff" stroke="#63b8ff" points="372.73,-159.73 382.83,-156.53 372.93,-152.74 372.73,-159.73"/>
</a>
</g>
</g>
<!-- Node10&#45;&gt;Node5 -->
<g id="edge11_Node000010_Node000005" class="edge">
<title>Node10&#45;&gt;Node5</title>
<g id="a_edge11_Node000010_Node000005"><a xlink:title=" ">
<path fill="none" stroke="#63b8ff" d="M340.88,-170.42C358.04,-176.91 377.6,-184.32 394.21,-190.6"/>
<polygon fill="#63b8ff" stroke="#63b8ff" points="392.63,-193.75 403.22,-194.01 395.11,-187.2 392.63,-193.75"/>
</a>
</g>
</g>
<!-- Node12 -->
<g id="Node000012" class="node">
<title>Node12</title>
<g id="a_Node000012"><a xlink:href="group__elements.html#ad893ef9c13a15464c96d8a85c08af30f" target="_top" xlink:title=" ">
<polygon fill="white" stroke="#666666" points="346.88,-120 246.12,-120 246.12,-100 346.88,-100 346.88,-120"/>
<text text-anchor="middle" x="296.5" y="-108.4" font-family="SourceSans" font-size="8.00">svg::element_base::str</text>
</a>
</g>
</g>
<!-- Node11&#45;&gt;Node12 -->
<g id="edge15_Node000011_Node000012" class="edge">
<title>Node11&#45;&gt;Node12</title>
<g id="a_edge15_Node000011_Node000012"><a xlink:title=" ">
<path fill="none" stroke="#63b8ff" d="M208.59,-113.82C217.07,-113.44 225.98,-113.05 234.71,-112.67"/>
<polygon fill="#63b8ff" stroke="#63b8ff" points="234.71,-116.17 244.54,-112.24 234.4,-109.18 234.71,-116.17"/>
</a>
</g>
</g>
<!-- Node14 -->
<g id="Node000014" class="node">
<title>Node14</title>
<g id="a_Node000014"><a xlink:href="namespacesvg_1_1constants.html#aa7f04c2ea699a1b1e2e790de5ac33f38" target="_top" xlink:title=" ">
<polygon fill="white" stroke="#666666" points="348.75,-76 244.25,-76 244.25,-56 348.75,-56 348.75,-76"/>
<text text-anchor="middle" x="296.5" y="-64.4" font-family="SourceSans" font-size="8.00">svg::constants::newline</text>
</a>
</g>
</g>
<!-- Node13&#45;&gt;Node14 -->
<g id="edge17_Node000013_Node000014" class="edge">
<title>Node13&#45;&gt;Node14</title>
<g id="a_edge17_Node000013_Node000014"><a xlink:title=" ">
<path fill="none" stroke="#63b8ff" d="M202.1,-66C211.76,-66 222.19,-66 232.47,-66"/>
<polygon fill="#63b8ff" stroke="#63b8ff" points="232.43,-69.5 242.43,-66 232.43,-62.5 232.43,-69.5"/>
</a>
</g>
</g>
</g>
</svg>
</svg>

<style type='text/css'>
<![CDATA[
[data-mouse-over-selected='false'] { opacity: 0.7; }
[data-mouse-over-selected='true']  { opacity: 1.0; }
]]>
</style>
<script type="application/ecmascript"><![CDATA[
document.addEventListener('DOMContentLoaded', (event) => {
  highlightEdges();
  highlightAdjacentNodes();
});
]]></script>
</svg>
