<?xml version="1.0" encoding="UTF-8" standalone="no"?>
<!DOCTYPE svg PUBLIC "-//W3C//DTD SVG 1.1//EN"
 "http://www.w3.org/Graphics/SVG/1.1/DTD/svg11.dtd">
<!-- Generated by graphviz version 13.1.2 (20250808.2320)
 -->
<!-- Title: svg::radiate_glyph Pages: 1 -->
<!--zoomable 628 -->

<svg id="main" version="1.1" xmlns="http://www.w3.org/2000/svg" xmlns:xlink="http://www.w3.org/1999/xlink" xml:space="preserve" onload="init(evt)">

<style type="text/css"><![CDATA[
.node, .edge {opacity: 0.7;}
.node.selected, .edge.selected {opacity: 1;}
.edge:hover path { stroke: red; }
.edge:hover polygon { stroke: red; fill: red; }
]]></style>

<defs>
  <circle id="rim" cx="0" cy="0" r="7"/>
  <circle id="rim2" cx="0" cy="0" r="3.5"/>
  <g id="zoomPlus">
    <use xlink:href="#rim" fill="#404040"><set attributeName="fill" to="#808080" begin="zoomplus.mouseover" end="zoomplus.mouseout"/></use>
    <path d="M-4,0h8M0,-4v8" fill="none" stroke="white" stroke-width="1.5" pointer-events="none"/>
  </g>
  <g id="zoomMin">
    <use xlink:href="#rim" fill="#404040"><set attributeName="fill" to="#808080" begin="zoomminus.mouseover" end="zoomminus.mouseout"/></use>
    <path d="M-4,0h8" fill="none" stroke="white" stroke-width="1.5" pointer-events="none"/>
  </g>
  <g id="arrowUp" transform="translate(30 24)">
    <use xlink:href="#rim"/>
    <path pointer-events="none" fill="none" stroke="white" stroke-width="1.5" d="M0,-3.0v7 M-2.5,-0.5L0,-3.0L2.5,-0.5"/>
  </g>
  <g id="arrowRight" transform="rotate(90) translate(36 -43)">
    <use xlink:href="#rim"/>
    <path pointer-events="none" fill="none" stroke="white" stroke-width="1.5" d="M0,-3.0v7 M-2.5,-0.5L0,-3.0L2.5,-0.5"/>
  </g>
  <g id="arrowDown" transform="rotate(180) translate(-30 -48)">
    <use xlink:href="#rim"/>
    <path pointer-events="none" fill="none" stroke="white" stroke-width="1.5" d="M0,-3.0v7 M-2.5,-0.5L0,-3.0L2.5,-0.5"/>
  </g>
  <g id="arrowLeft" transform="rotate(270) translate(-36 17)">
    <use xlink:href="#rim"/>
    <path pointer-events="none" fill="none" stroke="white" stroke-width="1.5" d="M0,-3.0v7 M-2.5,-0.5L0,-3.0L2.5,-0.5"/>
  </g>
  <g id="resetDef">
    <use xlink:href="#rim2" fill="#404040"><set attributeName="fill" to="#808080" begin="reset.mouseover" end="reset.mouseout"/></use>
  </g>
</defs>
<script type="application/ecmascript">
var viewWidth = 724;
var viewHeight = 628;
var sectionId = 'dynsection-67';
</script>
<script type="application/ecmascript" xlink:href="svg.min.js"/>
<svg id="graph" class="graph">
<g id="viewport">
<title>svg::radiate_glyph</title>
<!-- Node1 -->
<g id="Node000001" class="node">
<title>Node1</title>
<g id="a_Node000001"><a xlink:title=" ">
<polygon fill="#999999" stroke="#666666" points="91.75,-250.62 0,-250.62 0,-232.88 91.75,-232.88 91.75,-250.62"/>
<text xml:space="preserve" text-anchor="middle" x="45.88" y="-239.03" font-family="SourceSans" font-size="8.00">svg::radiate_glyph</text>
</a>
</g>
</g>
<!-- Node2 -->
<g id="Node000002" class="node">
<title>Node2</title>
<g id="a_Node000002"><a xlink:href="group__elements.html#ada0333b46b2547c6152f3f5811016a12" target="_top" xlink:title=" ">
<polygon fill="white" stroke="#666666" points="400.5,-619.5 300.5,-619.5 300.5,-592 400.5,-592 400.5,-619.5"/>
<text xml:space="preserve" text-anchor="start" x="308.5" y="-607.9" font-family="SourceSans" font-size="8.00">svg::element_base::</text>
<text xml:space="preserve" text-anchor="middle" x="350.5" y="-598.15" font-family="SourceSans" font-size="8.00">add_element</text>
</a>
</g>
</g>
<!-- Node1&#45;&gt;Node2 -->
<g id="edge1_Node000001_Node000002" class="edge">
<title>Node1&#45;&gt;Node2</title>
<g id="a_edge1_Node000001_Node000002"><a xlink:title=" ">
<path fill="none" stroke="#63b8ff" d="M48.04,-251.1C52.58,-284.45 71.75,-399.49 127.75,-472.75 171.15,-529.52 246.31,-567.11 296.96,-587.43"/>
<polygon fill="#63b8ff" stroke="#63b8ff" points="295.37,-590.57 305.96,-590.95 297.92,-584.05 295.37,-590.57"/>
</a>
</g>
</g>
<!-- Node4 -->
<g id="Node000004" class="node">
<title>Node4</title>
<g id="a_Node000004"><a xlink:href="namespacesvg.html#a6b1624bb42af7e9269fc6088e6a26fd7" target="_top" xlink:title="Adjust angle above to CW/CCW orientation.">
<polygon fill="white" stroke="#666666" points="251.75,-327.62 127.75,-327.62 127.75,-309.88 251.75,-309.88 251.75,-327.62"/>
<text xml:space="preserve" text-anchor="middle" x="189.75" y="-316.02" font-family="SourceSans" font-size="8.00">svg::adjust_angle_rotation</text>
</a>
</g>
</g>
<!-- Node1&#45;&gt;Node4 -->
<g id="edge3_Node000001_Node000004" class="edge">
<title>Node1&#45;&gt;Node4</title>
<g id="a_edge3_Node000001_Node000004"><a xlink:title=" ">
<path fill="none" stroke="#63b8ff" d="M57.1,-251.03C71.75,-263.88 100.01,-287.05 127.75,-300.75 131.43,-302.57 135.33,-304.24 139.31,-305.76"/>
<polygon fill="#63b8ff" stroke="#63b8ff" points="137.89,-308.98 148.49,-308.97 140.2,-302.37 137.89,-308.98"/>
</a>
</g>
</g>
<!-- Node7 -->
<g id="Node000007" class="node">
<title>Node7</title>
<g id="a_Node000007"><a xlink:href="namespacesvg.html#a8049c9c931294d04d25967268d85d226" target="_top" xlink:title="Import svg file, convert it to svg_element for insertion. ifile is a plain SVG file with a 1:1 aspect...">
<polygon fill="white" stroke="#666666" points="242.75,-291.62 136.75,-291.62 136.75,-273.88 242.75,-273.88 242.75,-291.62"/>
<text xml:space="preserve" text-anchor="middle" x="189.75" y="-280.02" font-family="SourceSans" font-size="8.00">svg::file_to_svg_insert</text>
</a>
</g>
</g>
<!-- Node1&#45;&gt;Node7 -->
<g id="edge6_Node000001_Node000007" class="edge">
<title>Node1&#45;&gt;Node7</title>
<g id="a_edge6_Node000001_Node000007"><a xlink:title=" ">
<path fill="none" stroke="#63b8ff" d="M79.07,-251.05C98.84,-256.77 124.41,-264.16 145.88,-270.36"/>
<polygon fill="#63b8ff" stroke="#63b8ff" points="144.65,-273.65 155.23,-273.06 146.59,-266.92 144.65,-273.65"/>
</a>
</g>
</g>
<!-- Node8 -->
<g id="Node000008" class="node">
<title>Node8</title>
<g id="a_Node000008"><a xlink:href="namespacesvg.html#ab44508c4aeca591141ebec50145b75cd" target="_top" xlink:title="Angle in degrees.">
<polygon fill="white" stroke="#666666" points="245.38,-255.5 134.12,-255.5 134.12,-228 245.38,-228 245.38,-255.5"/>
<text xml:space="preserve" text-anchor="start" x="142.12" y="-243.9" font-family="SourceSans" font-size="8.00">svg::get_circumference</text>
<text xml:space="preserve" text-anchor="middle" x="189.75" y="-234.15" font-family="SourceSans" font-size="8.00">_point_d</text>
</a>
</g>
</g>
<!-- Node1&#45;&gt;Node8 -->
<g id="edge7_Node000001_Node000008" class="edge">
<title>Node1&#45;&gt;Node8</title>
<g id="a_edge7_Node000001_Node000008"><a xlink:title=" ">
<path fill="none" stroke="#63b8ff" d="M92.16,-241.75C101.76,-241.75 112.09,-241.75 122.29,-241.75"/>
<polygon fill="#63b8ff" stroke="#63b8ff" points="122.2,-245.25 132.2,-241.75 122.2,-238.25 122.2,-245.25"/>
</a>
</g>
</g>
<!-- Node10 -->
<g id="Node000010" class="node">
<title>Node10</title>
<g id="a_Node000010"><a xlink:href="namespacesvg.html#a1a3bf270598169ec9826a0e19ea9e758" target="_top" xlink:title="Get the label space. Value &#45;&gt; Name, as a string where value has labelspaces of fill NB: Should be the...">
<polygon fill="white" stroke="#666666" points="243.12,-209.62 136.38,-209.62 136.38,-191.88 243.12,-191.88 243.12,-209.62"/>
<text xml:space="preserve" text-anchor="middle" x="189.75" y="-198.03" font-family="SourceSans" font-size="8.00">svg::get_label_spaces</text>
</a>
</g>
</g>
<!-- Node1&#45;&gt;Node10 -->
<g id="edge9_Node000001_Node000010" class="edge">
<title>Node1&#45;&gt;Node10</title>
<g id="a_edge9_Node000001_Node000010"><a xlink:title=" ">
<path fill="none" stroke="#63b8ff" d="M79.07,-232.45C98.84,-226.73 124.41,-219.34 145.88,-213.14"/>
<polygon fill="#63b8ff" stroke="#63b8ff" points="146.59,-216.58 155.23,-210.44 144.65,-209.85 146.59,-216.58"/>
</a>
</g>
</g>
<!-- Node11 -->
<g id="Node000011" class="node">
<title>Node11</title>
<g id="a_Node000011"><a xlink:href="namespacesvg.html#acf3b42875f3a4e7bee10c21670c166cc" target="_top" xlink:title="The smallest (sattelite) radius size allowed in a kusama orbit.">
<polygon fill="white" stroke="#666666" points="243.88,-173.62 135.62,-173.62 135.62,-155.88 243.88,-155.88 243.88,-173.62"/>
<text xml:space="preserve" text-anchor="middle" x="189.75" y="-162.03" font-family="SourceSans" font-size="8.00">svg::get_min_ring_size</text>
</a>
</g>
</g>
<!-- Node1&#45;&gt;Node11 -->
<g id="edge10_Node000001_Node000011" class="edge">
<title>Node1&#45;&gt;Node11</title>
<g id="a_edge10_Node000001_Node000011"><a xlink:title=" ">
<path fill="none" stroke="#63b8ff" d="M57.1,-232.47C71.75,-219.62 100.01,-196.45 127.75,-182.75 131.43,-180.93 135.33,-179.26 139.31,-177.74"/>
<polygon fill="#63b8ff" stroke="#63b8ff" points="140.2,-181.13 148.49,-174.53 137.89,-174.52 140.2,-181.13"/>
</a>
</g>
</g>
<!-- Node12 -->
<g id="Node000012" class="node">
<title>Node12</title>
<g id="a_Node000012"><a xlink:href="namespacesvg.html#a0aae5e63973d0526fe0dbdda0b371ec8" target="_top" xlink:title="Embed svg in group element.">
<polygon fill="white" stroke="#666666" points="234.5,-463.62 145,-463.62 145,-445.88 234.5,-445.88 234.5,-463.62"/>
<text xml:space="preserve" text-anchor="middle" x="189.75" y="-452.02" font-family="SourceSans" font-size="8.00">svg::insert_svg_at</text>
</a>
</g>
</g>
<!-- Node1&#45;&gt;Node12 -->
<g id="edge11_Node000001_Node000012" class="edge">
<title>Node1&#45;&gt;Node12</title>
<g id="a_edge11_Node000001_Node000012"><a xlink:title=" ">
<path fill="none" stroke="#63b8ff" d="M52.97,-250.9C74.43,-283.12 146.78,-391.74 176.17,-435.87"/>
<polygon fill="#63b8ff" stroke="#63b8ff" points="173.22,-437.75 181.68,-444.13 179.05,-433.87 173.22,-437.75"/>
</a>
</g>
</g>
<!-- Node21 -->
<g id="Node000021" class="node">
<title>Node21</title>
<g id="a_Node000021"><a xlink:href="structsvg_1_1render__state__base.html#aa16790fbf40ef61f416151c89c267ef3" target="_top" xlink:title=" ">
<polygon fill="white" stroke="#666666" points="245.38,-137.5 134.12,-137.5 134.12,-110 245.38,-110 245.38,-137.5"/>
<text xml:space="preserve" text-anchor="start" x="142.12" y="-125.9" font-family="SourceSans" font-size="8.00">svg::render_state_base</text>
<text xml:space="preserve" text-anchor="middle" x="189.75" y="-116.15" font-family="SourceSans" font-size="8.00">::is_visible</text>
</a>
</g>
</g>
<!-- Node1&#45;&gt;Node21 -->
<g id="edge21_Node000001_Node000021" class="edge">
<title>Node1&#45;&gt;Node21</title>
<g id="a_edge21_Node000001_Node000021"><a xlink:title=" ">
<path fill="none" stroke="#63b8ff" d="M52.4,-232.57C64.07,-213.89 93.03,-171.18 127.75,-146.75 129.52,-145.5 131.37,-144.32 133.27,-143.19"/>
<polygon fill="#63b8ff" stroke="#63b8ff" points="134.58,-146.45 141.79,-138.69 131.31,-140.26 134.58,-146.45"/>
</a>
</g>
</g>
<!-- Node22 -->
<g id="Node000022" class="node">
<title>Node22</title>
<g id="a_Node000022"><a xlink:href="namespacesvg.html#a3b4b07213c6b39323069da0ee61cd4f0" target="_top" xlink:title="Make circle element.">
<polygon fill="white" stroke="#666666" points="231.5,-91.62 148,-91.62 148,-73.88 231.5,-73.88 231.5,-91.62"/>
<text xml:space="preserve" text-anchor="middle" x="189.75" y="-80.03" font-family="SourceSans" font-size="8.00">svg::make_circle</text>
</a>
</g>
</g>
<!-- Node1&#45;&gt;Node22 -->
<g id="edge22_Node000001_Node000022" class="edge">
<title>Node1&#45;&gt;Node22</title>
<g id="a_edge22_Node000001_Node000022"><a xlink:title=" ">
<path fill="none" stroke="#63b8ff" d="M49.48,-232.57C57.09,-207.47 81.69,-137.13 127.75,-100.75 130.65,-98.46 133.84,-96.46 137.19,-94.71"/>
<polygon fill="#63b8ff" stroke="#63b8ff" points="138.42,-97.99 146.2,-90.8 135.64,-91.57 138.42,-97.99"/>
</a>
</g>
</g>
<!-- Node3 -->
<g id="Node000003" class="node">
<title>Node3</title>
<g id="a_Node000003"><a xlink:href="group__elements.html#ad893ef9c13a15464c96d8a85c08af30f" target="_top" xlink:title=" ">
<polygon fill="white" stroke="#666666" points="559.75,-614.62 449.25,-614.62 449.25,-596.88 559.75,-596.88 559.75,-614.62"/>
<text xml:space="preserve" text-anchor="middle" x="504.5" y="-603.02" font-family="SourceSans" font-size="8.00">svg::element_base::str</text>
</a>
</g>
</g>
<!-- Node2&#45;&gt;Node3 -->
<g id="edge2_Node000002_Node000003" class="edge">
<title>Node2&#45;&gt;Node3</title>
<g id="a_edge2_Node000002_Node000003"><a xlink:title=" ">
<path fill="none" stroke="#63b8ff" d="M400.85,-605.75C412.6,-605.75 425.32,-605.75 437.67,-605.75"/>
<polygon fill="#63b8ff" stroke="#63b8ff" points="437.36,-609.25 447.36,-605.75 437.36,-602.25 437.36,-609.25"/>
</a>
</g>
</g>
<!-- Node5 -->
<g id="Node000005" class="node">
<title>Node5</title>
<g id="a_Node000005"><a xlink:href="namespacesvg.html#a010fea242a289d173d521b501140cd72" target="_top" xlink:title="Zero degrees is top, going clockwise (cw).">
<polygon fill="white" stroke="#666666" points="413.25,-327.62 287.75,-327.62 287.75,-309.88 413.25,-309.88 413.25,-327.62"/>
<text xml:space="preserve" text-anchor="middle" x="350.5" y="-316.02" font-family="SourceSans" font-size="8.00">svg::zero_angle_north_ccw</text>
</a>
</g>
</g>
<!-- Node4&#45;&gt;Node5 -->
<g id="edge4_Node000004_Node000005" class="edge">
<title>Node4&#45;&gt;Node5</title>
<g id="a_edge4_Node000004_Node000005"><a xlink:title=" ">
<path fill="none" stroke="#63b8ff" d="M252.13,-318.75C260.01,-318.75 268.15,-318.75 276.21,-318.75"/>
<polygon fill="#63b8ff" stroke="#63b8ff" points="275.99,-322.25 285.99,-318.75 275.99,-315.25 275.99,-322.25"/>
</a>
</g>
</g>
<!-- Node6 -->
<g id="Node000006" class="node">
<title>Node6</title>
<g id="a_Node000006"><a xlink:href="namespacesvg.html#a46164d75fd5109e4ed8879abbacd5c11" target="_top" xlink:title="Zero degrees is top, going clockwise (cw).">
<polygon fill="white" stroke="#666666" points="411,-291.62 290,-291.62 290,-273.88 411,-273.88 411,-291.62"/>
<text xml:space="preserve" text-anchor="middle" x="350.5" y="-280.02" font-family="SourceSans" font-size="8.00">svg::zero_angle_north_cw</text>
</a>
</g>
</g>
<!-- Node4&#45;&gt;Node6 -->
<g id="edge5_Node000004_Node000006" class="edge">
<title>Node4&#45;&gt;Node6</title>
<g id="a_edge5_Node000004_Node000006"><a xlink:title=" ">
<path fill="none" stroke="#63b8ff" d="M232.05,-309.39C251.98,-304.86 276.12,-299.39 297.31,-294.59"/>
<polygon fill="#63b8ff" stroke="#63b8ff" points="297.96,-298.03 306.94,-292.4 296.41,-291.2 297.96,-298.03"/>
</a>
</g>
</g>
<!-- Node9 -->
<g id="Node000009" class="node">
<title>Node9</title>
<g id="a_Node000009"><a xlink:href="namespacesvg.html#aef05ac63d88a6102981d3faf37275297" target="_top" xlink:title="Angle in radians.">
<polygon fill="white" stroke="#666666" points="406.12,-255.5 294.88,-255.5 294.88,-228 406.12,-228 406.12,-255.5"/>
<text xml:space="preserve" text-anchor="start" x="302.88" y="-243.9" font-family="SourceSans" font-size="8.00">svg::get_circumference</text>
<text xml:space="preserve" text-anchor="middle" x="350.5" y="-234.15" font-family="SourceSans" font-size="8.00">_point_r</text>
</a>
</g>
</g>
<!-- Node8&#45;&gt;Node9 -->
<g id="edge8_Node000008_Node000009" class="edge">
<title>Node8&#45;&gt;Node9</title>
<g id="a_edge8_Node000008_Node000009"><a xlink:title=" ">
<path fill="none" stroke="#63b8ff" d="M245.83,-241.75C257.89,-241.75 270.79,-241.75 283.24,-241.75"/>
<polygon fill="#63b8ff" stroke="#63b8ff" points="283.01,-245.25 293.01,-241.75 283.01,-238.25 283.01,-245.25"/>
</a>
</g>
</g>
<!-- Node12&#45;&gt;Node2 -->
<g id="edge12_Node000012_Node000002" class="edge">
<title>Node12&#45;&gt;Node2</title>
<g id="a_edge12_Node000012_Node000002"><a xlink:title=" ">
<path fill="none" stroke="#63b8ff" d="M196.74,-463.97C214.03,-490.34 264.26,-565.28 287.75,-582.75 289.3,-583.9 290.91,-585 292.57,-586.05"/>
<polygon fill="#63b8ff" stroke="#63b8ff" points="290.72,-589.03 301.17,-590.79 294.1,-582.89 290.72,-589.03"/>
</a>
</g>
</g>
<!-- Node13 -->
<g id="Node000013" class="node">
<title>Node13</title>
<g id="a_Node000013"><a xlink:href="group__elements.html#acafbdd950c6c2639c9d376c3eab696e5" target="_top" xlink:title=" ">
<polygon fill="white" stroke="#666666" points="400.5,-573.5 300.5,-573.5 300.5,-546 400.5,-546 400.5,-573.5"/>
<text xml:space="preserve" text-anchor="start" x="308.5" y="-561.9" font-family="SourceSans" font-size="8.00">svg::element_base::</text>
<text xml:space="preserve" text-anchor="middle" x="350.5" y="-552.15" font-family="SourceSans" font-size="8.00">add_raw</text>
</a>
</g>
</g>
<!-- Node12&#45;&gt;Node13 -->
<g id="edge13_Node000012_Node000013" class="edge">
<title>Node12&#45;&gt;Node13</title>
<g id="a_edge13_Node000012_Node000013"><a xlink:title=" ">
<path fill="none" stroke="#63b8ff" d="M199.56,-464.07C215.67,-480.68 251.58,-515.6 287.75,-536.75 290.21,-538.19 292.78,-539.57 295.41,-540.88"/>
<polygon fill="#63b8ff" stroke="#63b8ff" points="293.85,-544.02 304.4,-545 296.77,-537.65 293.85,-544.02"/>
</a>
</g>
</g>
<!-- Node14 -->
<g id="Node000014" class="node">
<title>Node14</title>
<g id="a_Node000014"><a xlink:href="group__elements.html#gaab139e518fe9d07003dbcc1fdfdad955" target="_top" xlink:title=" ">
<polygon fill="white" stroke="#666666" points="399,-527.5 302,-527.5 302,-500 399,-500 399,-527.5"/>
<text xml:space="preserve" text-anchor="start" x="310" y="-515.9" font-family="SourceSans" font-size="8.00">svg::group_element</text>
<text xml:space="preserve" text-anchor="middle" x="350.5" y="-506.15" font-family="SourceSans" font-size="8.00">::finish_element</text>
</a>
</g>
</g>
<!-- Node12&#45;&gt;Node14 -->
<g id="edge14_Node000012_Node000014" class="edge">
<title>Node12&#45;&gt;Node14</title>
<g id="a_edge14_Node000012_Node000014"><a xlink:title=" ">
<path fill="none" stroke="#63b8ff" d="M215.9,-464.1C238.7,-472.57 272.91,-485.29 301.01,-495.73"/>
<polygon fill="#63b8ff" stroke="#63b8ff" points="299.43,-498.88 310.03,-499.08 301.87,-492.32 299.43,-498.88"/>
</a>
</g>
</g>
<!-- Node16 -->
<g id="Node000016" class="node">
<title>Node16</title>
<g id="a_Node000016"><a xlink:href="structsvg_1_1transform.html#acf9836f4ba647f0dd2b53963a0f714d0" target="_top" xlink:title=" ">
<polygon fill="white" stroke="#666666" points="403.5,-481.62 297.5,-481.62 297.5,-463.88 403.5,-463.88 403.5,-481.62"/>
<text xml:space="preserve" text-anchor="middle" x="350.5" y="-470.02" font-family="SourceSans" font-size="8.00">svg::transform::rotate</text>
</a>
</g>
</g>
<!-- Node12&#45;&gt;Node16 -->
<g id="edge16_Node000012_Node000016" class="edge">
<title>Node12&#45;&gt;Node16</title>
<g id="a_edge16_Node000012_Node000016"><a xlink:title=" ">
<path fill="none" stroke="#63b8ff" d="M234.97,-459.76C250.78,-461.56 268.91,-463.61 286.02,-465.55"/>
<polygon fill="#63b8ff" stroke="#63b8ff" points="285.24,-468.99 295.57,-466.64 286.03,-462.03 285.24,-468.99"/>
</a>
</g>
</g>
<!-- Node17 -->
<g id="Node000017" class="node">
<title>Node17</title>
<g id="a_Node000017"><a xlink:href="structsvg_1_1transform.html#a9053c6d65a0bf6f82e4c85a71cc42079" target="_top" xlink:title=" ">
<polygon fill="white" stroke="#666666" points="402.38,-445.62 298.62,-445.62 298.62,-427.88 402.38,-427.88 402.38,-445.62"/>
<text xml:space="preserve" text-anchor="middle" x="350.5" y="-434.02" font-family="SourceSans" font-size="8.00">svg::transform::scale</text>
</a>
</g>
</g>
<!-- Node12&#45;&gt;Node17 -->
<g id="edge17_Node000012_Node000017" class="edge">
<title>Node12&#45;&gt;Node17</title>
<g id="a_edge17_Node000012_Node000017"><a xlink:title=" ">
<path fill="none" stroke="#63b8ff" d="M234.97,-449.74C251.08,-447.91 269.6,-445.81 286.99,-443.84"/>
<polygon fill="#63b8ff" stroke="#63b8ff" points="287.18,-447.34 296.72,-442.73 286.39,-440.38 287.18,-447.34"/>
</a>
</g>
</g>
<!-- Node18 -->
<g id="Node000018" class="node">
<title>Node18</title>
<g id="a_Node000018"><a xlink:href="group__elements.html#a5c8c4f93df6e84523f788aa7f98bcab8" target="_top" xlink:title="For groups of elements that have the same name.">
<polygon fill="white" stroke="#666666" points="399,-409.5 302,-409.5 302,-382 399,-382 399,-409.5"/>
<text xml:space="preserve" text-anchor="start" x="310" y="-397.9" font-family="SourceSans" font-size="8.00">svg::group_element</text>
<text xml:space="preserve" text-anchor="middle" x="350.5" y="-388.15" font-family="SourceSans" font-size="8.00">::start_element</text>
</a>
</g>
</g>
<!-- Node12&#45;&gt;Node18 -->
<g id="edge18_Node000012_Node000018" class="edge">
<title>Node12&#45;&gt;Node18</title>
<g id="a_edge18_Node000012_Node000018"><a xlink:title=" ">
<path fill="none" stroke="#63b8ff" d="M215.9,-445.4C238.7,-436.93 272.91,-424.21 301.01,-413.77"/>
<polygon fill="#63b8ff" stroke="#63b8ff" points="301.87,-417.18 310.03,-410.42 299.43,-410.62 301.87,-417.18"/>
</a>
</g>
</g>
<!-- Node20 -->
<g id="Node000020" class="node">
<title>Node20</title>
<g id="a_Node000020"><a xlink:href="structsvg_1_1transform.html#a0c20aee54dbd3136799b17e12d3cb718" target="_top" xlink:title=" ">
<polygon fill="white" stroke="#666666" points="409.88,-363.62 291.12,-363.62 291.12,-345.88 409.88,-345.88 409.88,-363.62"/>
<text xml:space="preserve" text-anchor="middle" x="350.5" y="-352.02" font-family="SourceSans" font-size="8.00">svg::transform::translate</text>
</a>
</g>
</g>
<!-- Node12&#45;&gt;Node20 -->
<g id="edge20_Node000012_Node000020" class="edge">
<title>Node12&#45;&gt;Node20</title>
<g id="a_edge20_Node000012_Node000020"><a xlink:title=" ">
<path fill="none" stroke="#63b8ff" d="M199.16,-445.43C214.91,-428.51 250.64,-392.67 287.75,-372.75 290.95,-371.03 294.33,-369.46 297.79,-368.03"/>
<polygon fill="#63b8ff" stroke="#63b8ff" points="298.77,-371.4 306.93,-364.65 296.34,-364.84 298.77,-371.4"/>
</a>
</g>
</g>
<!-- Node15 -->
<g id="Node000015" class="node">
<title>Node15</title>
<g id="a_Node000015"><a xlink:href="group__elements.html#a71cf2eb89a562527f14c4ca4c027c2b9" target="_top" xlink:title=" ">
<polygon fill="white" stroke="#666666" points="553,-527.5 456,-527.5 456,-500 553,-500 553,-527.5"/>
<text xml:space="preserve" text-anchor="start" x="464" y="-515.9" font-family="SourceSans" font-size="8.00">svg::group_element</text>
<text xml:space="preserve" text-anchor="middle" x="504.5" y="-506.15" font-family="SourceSans" font-size="8.00">::finish_group</text>
</a>
</g>
</g>
<!-- Node14&#45;&gt;Node15 -->
<g id="edge15_Node000014_Node000015" class="edge">
<title>Node14&#45;&gt;Node15</title>
<g id="a_edge15_Node000014_Node000015"><a xlink:title=" ">
<path fill="none" stroke="#63b8ff" d="M399.18,-513.75C413.54,-513.75 429.47,-513.75 444.48,-513.75"/>
<polygon fill="#63b8ff" stroke="#63b8ff" points="444.22,-517.25 454.22,-513.75 444.22,-510.25 444.22,-517.25"/>
</a>
</g>
</g>
<!-- Node19 -->
<g id="Node000019" class="node">
<title>Node19</title>
<g id="a_Node000019"><a xlink:href="group__elements.html#ab84e1bc08d2d2a71ab05521af65d7585" target="_top" xlink:title=" ">
<polygon fill="white" stroke="#666666" points="553,-409.5 456,-409.5 456,-382 553,-382 553,-409.5"/>
<text xml:space="preserve" text-anchor="start" x="464" y="-397.9" font-family="SourceSans" font-size="8.00">svg::group_element</text>
<text xml:space="preserve" text-anchor="middle" x="504.5" y="-388.15" font-family="SourceSans" font-size="8.00">::start_group</text>
</a>
</g>
</g>
<!-- Node18&#45;&gt;Node19 -->
<g id="edge19_Node000018_Node000019" class="edge">
<title>Node18&#45;&gt;Node19</title>
<g id="a_edge19_Node000018_Node000019"><a xlink:title=" ">
<path fill="none" stroke="#63b8ff" d="M399.18,-395.75C413.54,-395.75 429.47,-395.75 444.48,-395.75"/>
<polygon fill="#63b8ff" stroke="#63b8ff" points="444.22,-399.25 454.22,-395.75 444.22,-392.25 444.22,-399.25"/>
</a>
</g>
</g>
<!-- Node23 -->
<g id="Node000023" class="node">
<title>Node23</title>
<g id="a_Node000023"><a xlink:href="group__elements.html#a519382631540ecedee961bfb53e9ae87" target="_top" xlink:title=" ">
<polygon fill="white" stroke="#666666" points="398.25,-165.5 302.75,-165.5 302.75,-138 398.25,-138 398.25,-165.5"/>
<text xml:space="preserve" text-anchor="start" x="310.75" y="-153.9" font-family="SourceSans" font-size="8.00">svg::circle_element</text>
<text xml:space="preserve" text-anchor="middle" x="350.5" y="-144.15" font-family="SourceSans" font-size="8.00">::add_data</text>
</a>
</g>
</g>
<!-- Node22&#45;&gt;Node23 -->
<g id="edge23_Node000022_Node000023" class="edge">
<title>Node22&#45;&gt;Node23</title>
<g id="a_edge23_Node000022_Node000023"><a xlink:title=" ">
<path fill="none" stroke="#63b8ff" d="M230.32,-92.07C237.63,-94.45 245.07,-97.32 251.75,-100.75 269.79,-110 270.05,-118.88 287.75,-128.75 290.38,-130.21 293.11,-131.62 295.91,-132.97"/>
<polygon fill="#63b8ff" stroke="#63b8ff" points="294.28,-136.07 304.84,-136.94 297.13,-129.68 294.28,-136.07"/>
</a>
</g>
</g>
<!-- Node27 -->
<g id="Node000027" class="node">
<title>Node27</title>
<g id="a_Node000027"><a xlink:href="group__elements.html#a238b38ca99a1cf6c2baf80c8e4338d99" target="_top" xlink:title=" ">
<polygon fill="white" stroke="#666666" points="400.5,-119.5 300.5,-119.5 300.5,-92 400.5,-92 400.5,-119.5"/>
<text xml:space="preserve" text-anchor="start" x="308.5" y="-107.9" font-family="SourceSans" font-size="8.00">svg::element_base::</text>
<text xml:space="preserve" text-anchor="middle" x="350.5" y="-98.15" font-family="SourceSans" font-size="8.00">add_style</text>
</a>
</g>
</g>
<!-- Node22&#45;&gt;Node27 -->
<g id="edge27_Node000022_Node000027" class="edge">
<title>Node22&#45;&gt;Node27</title>
<g id="a_edge27_Node000022_Node000027"><a xlink:title=" ">
<path fill="none" stroke="#63b8ff" d="M231.63,-88.67C249.06,-91.2 269.75,-94.2 288.9,-96.97"/>
<polygon fill="#63b8ff" stroke="#63b8ff" points="288.37,-100.43 298.77,-98.4 289.38,-93.5 288.37,-100.43"/>
</a>
</g>
</g>
<!-- Node29 -->
<g id="Node000029" class="node">
<title>Node29</title>
<g id="a_Node000029"><a xlink:href="group__elements.html#ga98a1538c46e39122d8199c12b3a57b5d" target="_top" xlink:title=" ">
<polygon fill="white" stroke="#666666" points="398.25,-73.5 302.75,-73.5 302.75,-46 398.25,-46 398.25,-73.5"/>
<text xml:space="preserve" text-anchor="start" x="310.75" y="-61.9" font-family="SourceSans" font-size="8.00">svg::circle_element</text>
<text xml:space="preserve" text-anchor="middle" x="350.5" y="-52.15" font-family="SourceSans" font-size="8.00">::finish_element</text>
</a>
</g>
</g>
<!-- Node22&#45;&gt;Node29 -->
<g id="edge29_Node000022_Node000029" class="edge">
<title>Node22&#45;&gt;Node29</title>
<g id="a_edge29_Node000022_Node000029"><a xlink:title=" ">
<path fill="none" stroke="#63b8ff" d="M231.63,-76.83C249.68,-74.21 271.23,-71.09 290.94,-68.23"/>
<polygon fill="#63b8ff" stroke="#63b8ff" points="291.4,-71.7 300.79,-66.81 290.39,-64.78 291.4,-71.7"/>
</a>
</g>
</g>
<!-- Node30 -->
<g id="Node000030" class="node">
<title>Node30</title>
<g id="a_Node000030"><a xlink:href="group__elements.html#a793cb6b40b2aea335b11f14fd327cde8" target="_top" xlink:title=" ">
<polygon fill="white" stroke="#666666" points="398.25,-27.5 302.75,-27.5 302.75,0 398.25,0 398.25,-27.5"/>
<text xml:space="preserve" text-anchor="start" x="310.75" y="-15.9" font-family="SourceSans" font-size="8.00">svg::circle_element</text>
<text xml:space="preserve" text-anchor="middle" x="350.5" y="-6.15" font-family="SourceSans" font-size="8.00">::start_element</text>
</a>
</g>
</g>
<!-- Node22&#45;&gt;Node30 -->
<g id="edge30_Node000022_Node000030" class="edge">
<title>Node22&#45;&gt;Node30</title>
<g id="a_edge30_Node000022_Node000030"><a xlink:title=" ">
<path fill="none" stroke="#63b8ff" d="M209.13,-73.45C228.48,-63.8 259.94,-48.5 287.75,-36.75 291.5,-35.17 295.4,-33.58 299.34,-32.02"/>
<polygon fill="#63b8ff" stroke="#63b8ff" points="300.3,-35.4 308.36,-28.52 297.77,-28.87 300.3,-35.4"/>
</a>
</g>
</g>
<!-- Node24 -->
<g id="Node000024" class="node">
<title>Node24</title>
<g id="a_Node000024"><a xlink:href="group__elements.html#a53d72a7ff728ad1d4d027254530bcf3d" target="_top" xlink:title=" ">
<polygon fill="white" stroke="#666666" points="554.5,-201.5 454.5,-201.5 454.5,-174 554.5,-174 554.5,-201.5"/>
<text xml:space="preserve" text-anchor="start" x="462.5" y="-189.9" font-family="SourceSans" font-size="8.00">svg::element_base::</text>
<text xml:space="preserve" text-anchor="middle" x="504.5" y="-180.15" font-family="SourceSans" font-size="8.00">add_transform</text>
</a>
</g>
</g>
<!-- Node23&#45;&gt;Node24 -->
<g id="edge24_Node000023_Node000024" class="edge">
<title>Node23&#45;&gt;Node24</title>
<g id="a_edge24_Node000023_Node000024"><a xlink:title=" ">
<path fill="none" stroke="#63b8ff" d="M398.35,-162.84C412.46,-166.19 428.15,-169.9 443.01,-173.42"/>
<polygon fill="#63b8ff" stroke="#63b8ff" points="442.17,-176.82 452.7,-175.72 443.78,-170.01 442.17,-176.82"/>
</a>
</g>
</g>
<!-- Node26 -->
<g id="Node000026" class="node">
<title>Node26</title>
<g id="a_Node000026"><a xlink:href="namespacesvg.html#a48ac748e89e22789d1772326a98dd7b6" target="_top" xlink:title=" ">
<polygon fill="white" stroke="#666666" points="551.12,-155.62 457.88,-155.62 457.88,-137.88 551.12,-137.88 551.12,-155.62"/>
<text xml:space="preserve" text-anchor="middle" x="504.5" y="-144.03" font-family="SourceSans" font-size="8.00">svg::string_replace</text>
</a>
</g>
</g>
<!-- Node23&#45;&gt;Node26 -->
<g id="edge26_Node000023_Node000026" class="edge">
<title>Node23&#45;&gt;Node26</title>
<g id="a_edge26_Node000023_Node000026"><a xlink:title=" ">
<path fill="none" stroke="#63b8ff" d="M398.35,-150.21C413.51,-149.71 430.49,-149.15 446.32,-148.63"/>
<polygon fill="#63b8ff" stroke="#63b8ff" points="446.2,-152.14 456.08,-148.31 445.97,-145.14 446.2,-152.14"/>
</a>
</g>
</g>
<!-- Node25 -->
<g id="Node000025" class="node">
<title>Node25</title>
<g id="a_Node000025"><a xlink:href="group__elements.html#ae50258851ebbaf08c7eebc3fbdbf1ac8" target="_top" xlink:title="Common transforms include rotate(180)">
<polygon fill="white" stroke="#666666" points="716,-201.5 595.75,-201.5 595.75,-174 716,-174 716,-201.5"/>
<text xml:space="preserve" text-anchor="start" x="603.75" y="-189.9" font-family="SourceSans" font-size="8.00">svg::element_base::</text>
<text xml:space="preserve" text-anchor="middle" x="655.88" y="-180.15" font-family="SourceSans" font-size="8.00">make_transform_attribute</text>
</a>
</g>
</g>
<!-- Node24&#45;&gt;Node25 -->
<g id="edge25_Node000024_Node000025" class="edge">
<title>Node24&#45;&gt;Node25</title>
<g id="a_edge25_Node000024_Node000025"><a xlink:title=" ">
<path fill="none" stroke="#63b8ff" d="M554.82,-187.75C564.17,-187.75 574.12,-187.75 583.97,-187.75"/>
<polygon fill="#63b8ff" stroke="#63b8ff" points="583.95,-191.25 593.95,-187.75 583.95,-184.25 583.95,-191.25"/>
</a>
</g>
</g>
<!-- Node28 -->
<g id="Node000028" class="node">
<title>Node28</title>
<g id="a_Node000028"><a xlink:href="namespacesvg.html#a36b1c48ad4601b205790e3772ad0a7b6" target="_top" xlink:title=" ">
<polygon fill="white" stroke="#666666" points="540.25,-114.62 468.75,-114.62 468.75,-96.88 540.25,-96.88 540.25,-114.62"/>
<text xml:space="preserve" text-anchor="middle" x="504.5" y="-103.03" font-family="SourceSans" font-size="8.00">svg::to_string</text>
</a>
</g>
</g>
<!-- Node27&#45;&gt;Node28 -->
<g id="edge28_Node000027_Node000028" class="edge">
<title>Node27&#45;&gt;Node28</title>
<g id="a_edge28_Node000027_Node000028"><a xlink:title=" ">
<path fill="none" stroke="#63b8ff" d="M400.85,-105.75C418.91,-105.75 439.27,-105.75 457.07,-105.75"/>
<polygon fill="#63b8ff" stroke="#63b8ff" points="456.83,-109.25 466.83,-105.75 456.83,-102.25 456.83,-109.25"/>
</a>
</g>
</g>
</g>
</svg>

<g id="navigator" transform="translate(0 0)" fill="#404254">
  <rect fill="#f2f5e9" fill-opacity="0.5" stroke="#606060" stroke-width=".5" x="0" y="0" width="60" height="60"/>
  <use id="zoomplus" xlink:href="#zoomPlus" x="17" y="9" onmousedown="handleZoom(evt,'in')"/>
  <use id="zoomminus" xlink:href="#zoomMin" x="42" y="9" onmousedown="handleZoom(evt,'out')"/>
  <use id="reset" xlink:href="#resetDef" x="30" y="36" onmousedown="handleReset()"/>
   <use id="arrowup" xlink:href="#arrowUp" x="0" y="0" onmousedown="handlePan(0,-1)"/>
  <use id="arrowright" xlink:href="#arrowRight" x="0" y="0" onmousedown="handlePan(1,0)"/>
  <use id="arrowdown" xlink:href="#arrowDown" x="0" y="0" onmousedown="handlePan(0,1)"/>
  <use id="arrowleft" xlink:href="#arrowLeft" x="0" y="0" onmousedown="handlePan(-1,0)"/>
</g>
<svg viewBox="0 0 15 15" width="100%" height="30px" preserveAspectRatio="xMaxYMin meet">
 <g id="arrow_out" transform="scale(0.3 0.3)">
  <a xlink:href="namespacesvg_a91699dd1391d7fe0f91ba98fde5b97a5_cgraph_org.svg" target="_base">
   <rect id="button" ry="5" rx="5" y="6" x="6" height="38" width="38"
        fill="#f2f5e9" fill-opacity="0.5" stroke="#606060" stroke-width="1.0"/>
   <path id="arrow"
     d="M 11.500037,31.436501 C 11.940474,20.09759 22.043105,11.32322 32.158766,21.979434 L 37.068811,17.246167 C 37.068811,17.246167 37.088388,32 37.088388,32 L 22.160133,31.978069 C 22.160133,31.978069 26.997745,27.140456 26.997745,27.140456 C 18.528582,18.264221 13.291696,25.230495 11.500037,31.436501 z"
     style="fill:#404040;"/>
  </a>
 </g>
</svg>

<style type='text/css'>
<![CDATA[
[data-mouse-over-selected='false'] { opacity: 0.7; }
[data-mouse-over-selected='true']  { opacity: 1.0; }
]]>
</style>
<script type="application/ecmascript"><![CDATA[
document.addEventListener('DOMContentLoaded', (event) => {
  highlightEdges();
  highlightAdjacentNodes();
});
]]></script>
</svg>
