<?xml version="1.0" encoding="UTF-8" standalone="no"?>
<!DOCTYPE svg PUBLIC "-//W3C//DTD SVG 1.1//EN"
 "http://www.w3.org/Graphics/SVG/1.1/DTD/svg11.dtd">
<!-- Generated by graphviz version 12.2.1 (20241206.2353)
 -->
<!-- Title: svg::make_color_band_v2 Pages: 1 -->
<!--zoomable 156 -->

<svg id="main" version="1.1" xmlns="http://www.w3.org/2000/svg" xmlns:xlink="http://www.w3.org/1999/xlink" xml:space="preserve" onload="init(evt)">

<style type="text/css"><![CDATA[
.node, .edge {opacity: 0.7;}
.node.selected, .edge.selected {opacity: 1;}
.edge:hover path { stroke: red; }
.edge:hover polygon { stroke: red; fill: red; }
]]></style>

<defs>
  <circle id="rim" cx="0" cy="0" r="7"/>
  <circle id="rim2" cx="0" cy="0" r="3.5"/>
  <g id="zoomPlus">
    <use xlink:href="#rim" fill="#404040"><set attributeName="fill" to="#808080" begin="zoomplus.mouseover" end="zoomplus.mouseout"/></use>
    <path d="M-4,0h8M0,-4v8" fill="none" stroke="white" stroke-width="1.5" pointer-events="none"/>
  </g>
  <g id="zoomMin">
    <use xlink:href="#rim" fill="#404040"><set attributeName="fill" to="#808080" begin="zoomminus.mouseover" end="zoomminus.mouseout"/></use>
    <path d="M-4,0h8" fill="none" stroke="white" stroke-width="1.5" pointer-events="none"/>
  </g>
  <g id="arrowUp" transform="translate(30 24)">
    <use xlink:href="#rim"/>
    <path pointer-events="none" fill="none" stroke="white" stroke-width="1.5" d="M0,-3.0v7 M-2.5,-0.5L0,-3.0L2.5,-0.5"/>
  </g>
  <g id="arrowRight" transform="rotate(90) translate(36 -43)">
    <use xlink:href="#rim"/>
    <path pointer-events="none" fill="none" stroke="white" stroke-width="1.5" d="M0,-3.0v7 M-2.5,-0.5L0,-3.0L2.5,-0.5"/>
  </g>
  <g id="arrowDown" transform="rotate(180) translate(-30 -48)">
    <use xlink:href="#rim"/>
    <path pointer-events="none" fill="none" stroke="white" stroke-width="1.5" d="M0,-3.0v7 M-2.5,-0.5L0,-3.0L2.5,-0.5"/>
  </g>
  <g id="arrowLeft" transform="rotate(270) translate(-36 17)">
    <use xlink:href="#rim"/>
    <path pointer-events="none" fill="none" stroke="white" stroke-width="1.5" d="M0,-3.0v7 M-2.5,-0.5L0,-3.0L2.5,-0.5"/>
  </g>
  <g id="resetDef">
    <use xlink:href="#rim2" fill="#404040"><set attributeName="fill" to="#808080" begin="reset.mouseover" end="reset.mouseout"/></use>
  </g>
</defs>
<script type="application/ecmascript">
var viewWidth = 799;
var viewHeight = 156;
var sectionId = 'dynsection-36';
</script>
<script type="application/ecmascript" xlink:href="svg.min.js"/>
<svg id="graph" class="graph">
<g id="viewport">
<title>svg::make_color_band_v2</title>
<!-- Node1 -->
<g id="Node000001" class="node">
<title>Node1</title>
<g id="a_Node000001"><a xlink:title="Algorightm is HSV generation.">
<polygon fill="#999999" stroke="#666666" points="120.25,-89.75 0,-89.75 0,-72 120.25,-72 120.25,-89.75"/>
<text text-anchor="middle" x="60.12" y="-78.15" font-family="SourceSans" font-size="8.00">svg::make_color_band_v2</text>
</a>
</g>
</g>
<!-- Node2 -->
<g id="Node000002" class="node">
<title>Node2</title>
<g id="a_Node000002"><a xlink:href="namespacesvg.html#ad15806ae856c597bdb6a2e928ca31481" target="_top" xlink:title="Forwarding function.">
<polygon fill="white" stroke="#666666" points="526,-125.75 448.5,-125.75 448.5,-108 526,-108 526,-125.75"/>
<text text-anchor="middle" x="487.25" y="-114.15" font-family="SourceSans" font-size="8.00">svg::color_qf_lt</text>
</a>
</g>
</g>
<!-- Node1&#45;&gt;Node2 -->
<g id="edge1_Node000001_Node000002" class="edge">
<title>Node1&#45;&gt;Node2</title>
<g id="a_edge1_Node000001_Node000002"><a xlink:title=" ">
<path fill="none" stroke="#63b8ff" d="M72.85,-90.24C89.97,-103.25 123.38,-126.2 156.25,-134.88 253.85,-160.65 373.16,-142.49 438.25,-128.62"/>
<polygon fill="#63b8ff" stroke="#63b8ff" points="438.87,-132.06 447.89,-126.5 437.37,-125.23 438.87,-132.06"/>
</a>
</g>
</g>
<!-- Node5 -->
<g id="Node000005" class="node">
<title>Node5</title>
<g id="a_Node000005"><a xlink:href="namespacesvg.html#a729fd8229f85437952bc2607156bb61a" target="_top" xlink:title="Return a variant on saturation/value only.">
<polygon fill="white" stroke="#666666" points="265.62,-125.75 164.12,-125.75 164.12,-108 265.62,-108 265.62,-125.75"/>
<text text-anchor="middle" x="214.88" y="-114.15" font-family="SourceSans" font-size="8.00">svg::mutate_color_qf</text>
</a>
</g>
</g>
<!-- Node1&#45;&gt;Node5 -->
<g id="edge4_Node000001_Node000005" class="edge">
<title>Node1&#45;&gt;Node5</title>
<g id="a_edge4_Node000001_Node000005"><a xlink:title=" ">
<path fill="none" stroke="#63b8ff" d="M100.86,-90.24C119.95,-94.74 143.05,-100.18 163.38,-104.97"/>
<polygon fill="#63b8ff" stroke="#63b8ff" points="162.33,-108.32 172.87,-107.21 163.94,-101.51 162.33,-108.32"/>
</a>
</g>
</g>
<!-- Node6 -->
<g id="Node000006" class="node">
<title>Node6</title>
<g id="a_Node000006"><a xlink:href="namespacesvg.html#a554dc780ece47a3937550a8bd113b604" target="_top" xlink:title="Loop through color array starting at position c. Iff klr is not found, return color::none as the next...">
<polygon fill="white" stroke="#666666" points="253.62,-89.75 176.12,-89.75 176.12,-72 253.62,-72 253.62,-89.75"/>
<text text-anchor="middle" x="214.88" y="-78.15" font-family="SourceSans" font-size="8.00">svg::next_color</text>
</a>
</g>
</g>
<!-- Node1&#45;&gt;Node6 -->
<g id="edge5_Node000001_Node000006" class="edge">
<title>Node1&#45;&gt;Node6</title>
<g id="a_edge5_Node000001_Node000006"><a xlink:title=" ">
<path fill="none" stroke="#63b8ff" d="M120.62,-80.88C135.15,-80.88 150.53,-80.88 164.53,-80.88"/>
<polygon fill="#63b8ff" stroke="#63b8ff" points="164.4,-84.38 174.4,-80.88 164.4,-77.38 164.4,-84.38"/>
</a>
</g>
</g>
<!-- Node8 -->
<g id="Node000008" class="node">
<title>Node8</title>
<g id="a_Node000008"><a xlink:href="structsvg_1_1color__qf.html#a30ec40001ed2f3d197f1c2f04dfde69f" target="_top" xlink:title="Back to RGB https://www.rapidtables.com/convert/color/hsv&#45;to&#45;rgb.html.">
<polygon fill="white" stroke="#666666" points="273.5,-53.75 156.25,-53.75 156.25,-36 273.5,-36 273.5,-53.75"/>
<text text-anchor="middle" x="214.88" y="-42.15" font-family="SourceSans" font-size="8.00">svg::color_qf::to_color_qi</text>
</a>
</g>
</g>
<!-- Node1&#45;&gt;Node8 -->
<g id="edge8_Node000001_Node000008" class="edge">
<title>Node1&#45;&gt;Node8</title>
<g id="a_edge8_Node000001_Node000008"><a xlink:title=" ">
<path fill="none" stroke="#63b8ff" d="M100.86,-71.51C119.95,-67.01 143.05,-61.57 163.38,-56.78"/>
<polygon fill="#63b8ff" stroke="#63b8ff" points="163.94,-60.24 172.87,-54.54 162.33,-53.43 163.94,-60.24"/>
</a>
</g>
</g>
<!-- Node9 -->
<g id="Node000009" class="node">
<title>Node9</title>
<g id="a_Node000009"><a xlink:href="namespacesvg.html#a36b1c48ad4601b205790e3772ad0a7b6" target="_top" xlink:title=" ">
<polygon fill="white" stroke="#666666" points="250.62,-17.75 179.12,-17.75 179.12,0 250.62,0 250.62,-17.75"/>
<text text-anchor="middle" x="214.88" y="-6.15" font-family="SourceSans" font-size="8.00">svg::to_string</text>
</a>
</g>
</g>
<!-- Node1&#45;&gt;Node9 -->
<g id="edge9_Node000001_Node000009" class="edge">
<title>Node1&#45;&gt;Node9</title>
<g id="a_edge9_Node000001_Node000009"><a xlink:title=" ">
<path fill="none" stroke="#63b8ff" d="M75.14,-71.65C93.27,-60.02 126.11,-39.96 156.25,-26.88 160.35,-25.09 164.69,-23.41 169.06,-21.83"/>
<polygon fill="#63b8ff" stroke="#63b8ff" points="170.13,-25.17 178.48,-18.64 167.89,-18.54 170.13,-25.17"/>
</a>
</g>
</g>
<!-- Node3 -->
<g id="Node000003" class="node">
<title>Node3</title>
<g id="a_Node000003"><a xlink:href="namespacesvg.html#ace451856d4faf4d251a5a49aba625c3e" target="_top" xlink:title="Default compare distances from k1,k2 to black.">
<polygon fill="white" stroke="#666666" points="647.75,-125.75 562,-125.75 562,-108 647.75,-108 647.75,-125.75"/>
<text text-anchor="middle" x="604.88" y="-114.15" font-family="SourceSans" font-size="8.00">svg::color_qf_lt_v</text>
</a>
</g>
</g>
<!-- Node2&#45;&gt;Node3 -->
<g id="edge2_Node000002_Node000003" class="edge">
<title>Node2&#45;&gt;Node3</title>
<g id="a_edge2_Node000002_Node000003"><a xlink:title=" ">
<path fill="none" stroke="#63b8ff" d="M526.43,-116.88C534.12,-116.88 542.34,-116.88 550.44,-116.88"/>
<polygon fill="#63b8ff" stroke="#63b8ff" points="550.23,-120.38 560.23,-116.88 550.23,-113.38 550.23,-120.38"/>
</a>
</g>
</g>
<!-- Node4 -->
<g id="Node000004" class="node">
<title>Node4</title>
<g id="a_Node000004"><a xlink:href="namespacesvg.html#ac96d0e1435f308aecc6e4c362a2c769d" target="_top" xlink:title=" ">
<polygon fill="white" stroke="#666666" points="791.25,-125.75 683.75,-125.75 683.75,-108 791.25,-108 791.25,-125.75"/>
<text text-anchor="middle" x="737.5" y="-114.15" font-family="SourceSans" font-size="8.00">svg::color_qf_distance</text>
</a>
</g>
</g>
<!-- Node3&#45;&gt;Node4 -->
<g id="edge3_Node000003_Node000004" class="edge">
<title>Node3&#45;&gt;Node4</title>
<g id="a_edge3_Node000003_Node000004"><a xlink:title=" ">
<path fill="none" stroke="#63b8ff" d="M647.92,-116.88C655.63,-116.88 663.83,-116.88 672.02,-116.88"/>
<polygon fill="#63b8ff" stroke="#63b8ff" points="672.01,-120.38 682.01,-116.88 672.01,-113.38 672.01,-120.38"/>
</a>
</g>
</g>
<!-- Node7 -->
<g id="Node000007" class="node">
<title>Node7</title>
<g id="a_Node000007"><a xlink:href="namespacesvg.html#a86299e1b709e10d8ddbe9fe4e5231dc5" target="_top" xlink:title="Oklab https://bottosson.github.io/posts/oklab/.">
<polygon fill="white" stroke="#666666" points="412.5,-107.75 309.5,-107.75 309.5,-90 412.5,-90 412.5,-107.75"/>
<text text-anchor="middle" x="361" y="-96.15" font-family="SourceSans" font-size="8.00">svg::active_spectrum</text>
</a>
</g>
</g>
<!-- Node6&#45;&gt;Node7 -->
<g id="edge6_Node000006_Node000007" class="edge">
<title>Node6&#45;&gt;Node7</title>
<g id="a_edge6_Node000006_Node000007"><a xlink:title=" ">
<path fill="none" stroke="#63b8ff" d="M254.12,-85.65C267.54,-87.33 282.99,-89.26 297.87,-91.11"/>
<polygon fill="#63b8ff" stroke="#63b8ff" points="297.23,-94.56 307.58,-92.33 298.09,-87.62 297.23,-94.56"/>
</a>
</g>
</g>
<!-- Node7&#45;&gt;Node2 -->
<g id="edge7_Node000007_Node000002" class="edge">
<title>Node7&#45;&gt;Node2</title>
<g id="a_edge7_Node000007_Node000002"><a xlink:title=" ">
<path fill="none" stroke="#63b8ff" d="M412.9,-106.25C420.82,-107.4 429,-108.58 436.89,-109.72"/>
<polygon fill="#63b8ff" stroke="#63b8ff" points="436.28,-113.17 446.68,-111.14 437.29,-106.25 436.28,-113.17"/>
</a>
</g>
</g>
</g>
</svg>

<g id="navigator" transform="translate(0 0)" fill="#404254">
  <rect fill="#f2f5e9" fill-opacity="0.5" stroke="#606060" stroke-width=".5" x="0" y="0" width="60" height="60"/>
  <use id="zoomplus" xlink:href="#zoomPlus" x="17" y="9" onmousedown="handleZoom(evt,'in')"/>
  <use id="zoomminus" xlink:href="#zoomMin" x="42" y="9" onmousedown="handleZoom(evt,'out')"/>
  <use id="reset" xlink:href="#resetDef" x="30" y="36" onmousedown="handleReset()"/>
   <use id="arrowup" xlink:href="#arrowUp" x="0" y="0" onmousedown="handlePan(0,-1)"/>
  <use id="arrowright" xlink:href="#arrowRight" x="0" y="0" onmousedown="handlePan(1,0)"/>
  <use id="arrowdown" xlink:href="#arrowDown" x="0" y="0" onmousedown="handlePan(0,1)"/>
  <use id="arrowleft" xlink:href="#arrowLeft" x="0" y="0" onmousedown="handlePan(-1,0)"/>
</g>
<svg viewBox="0 0 15 15" width="100%" height="30px" preserveAspectRatio="xMaxYMin meet">
 <g id="arrow_out" transform="scale(0.3 0.3)">
  <a xlink:href="namespacesvg_a5dd92fa5ad40a62e238ee50bcc46f4b0_cgraph_org.svg" target="_base">
   <rect id="button" ry="5" rx="5" y="6" x="6" height="38" width="38"
        fill="#f2f5e9" fill-opacity="0.5" stroke="#606060" stroke-width="1.0"/>
   <path id="arrow"
     d="M 11.500037,31.436501 C 11.940474,20.09759 22.043105,11.32322 32.158766,21.979434 L 37.068811,17.246167 C 37.068811,17.246167 37.088388,32 37.088388,32 L 22.160133,31.978069 C 22.160133,31.978069 26.997745,27.140456 26.997745,27.140456 C 18.528582,18.264221 13.291696,25.230495 11.500037,31.436501 z"
     style="fill:#404040;"/>
  </a>
 </g>
</svg>

<style type='text/css'>
<![CDATA[
[data-mouse-over-selected='false'] { opacity: 0.7; }
[data-mouse-over-selected='true']  { opacity: 1.0; }
]]>
</style>
<script type="application/ecmascript"><![CDATA[
document.addEventListener('DOMContentLoaded', (event) => {
  highlightEdges();
  highlightAdjacentNodes();
});
]]></script>
</svg>
