<?xml version="1.0" encoding="UTF-8" standalone="no"?>
<!DOCTYPE svg PUBLIC "-//W3C//DTD SVG 1.1//EN"
 "http://www.w3.org/Graphics/SVG/1.1/DTD/svg11.dtd">
<!-- Generated by graphviz version 13.1.2 (20250808.2320)
 -->
<!-- Title: svg::make_path_ripple Pages: 1 -->
<!--zoomable 258 -->

<svg id="main" version="1.1" xmlns="http://www.w3.org/2000/svg" xmlns:xlink="http://www.w3.org/1999/xlink" xml:space="preserve" onload="init(evt)">

<style type="text/css"><![CDATA[
.node, .edge {opacity: 0.7;}
.node.selected, .edge.selected {opacity: 1;}
.edge:hover path { stroke: red; }
.edge:hover polygon { stroke: red; fill: red; }
]]></style>

<defs>
  <circle id="rim" cx="0" cy="0" r="7"/>
  <circle id="rim2" cx="0" cy="0" r="3.5"/>
  <g id="zoomPlus">
    <use xlink:href="#rim" fill="#404040"><set attributeName="fill" to="#808080" begin="zoomplus.mouseover" end="zoomplus.mouseout"/></use>
    <path d="M-4,0h8M0,-4v8" fill="none" stroke="white" stroke-width="1.5" pointer-events="none"/>
  </g>
  <g id="zoomMin">
    <use xlink:href="#rim" fill="#404040"><set attributeName="fill" to="#808080" begin="zoomminus.mouseover" end="zoomminus.mouseout"/></use>
    <path d="M-4,0h8" fill="none" stroke="white" stroke-width="1.5" pointer-events="none"/>
  </g>
  <g id="arrowUp" transform="translate(30 24)">
    <use xlink:href="#rim"/>
    <path pointer-events="none" fill="none" stroke="white" stroke-width="1.5" d="M0,-3.0v7 M-2.5,-0.5L0,-3.0L2.5,-0.5"/>
  </g>
  <g id="arrowRight" transform="rotate(90) translate(36 -43)">
    <use xlink:href="#rim"/>
    <path pointer-events="none" fill="none" stroke="white" stroke-width="1.5" d="M0,-3.0v7 M-2.5,-0.5L0,-3.0L2.5,-0.5"/>
  </g>
  <g id="arrowDown" transform="rotate(180) translate(-30 -48)">
    <use xlink:href="#rim"/>
    <path pointer-events="none" fill="none" stroke="white" stroke-width="1.5" d="M0,-3.0v7 M-2.5,-0.5L0,-3.0L2.5,-0.5"/>
  </g>
  <g id="arrowLeft" transform="rotate(270) translate(-36 17)">
    <use xlink:href="#rim"/>
    <path pointer-events="none" fill="none" stroke="white" stroke-width="1.5" d="M0,-3.0v7 M-2.5,-0.5L0,-3.0L2.5,-0.5"/>
  </g>
  <g id="resetDef">
    <use xlink:href="#rim2" fill="#404040"><set attributeName="fill" to="#808080" begin="reset.mouseover" end="reset.mouseout"/></use>
  </g>
</defs>
<script type="application/ecmascript">
var viewWidth = 507;
var viewHeight = 258;
var sectionId = 'dynsection-108';
</script>
<script type="application/ecmascript" xlink:href="svg.min.js"/>
<svg id="graph" class="graph">
<g id="viewport">
<title>svg::make_path_ripple</title>
<!-- Node1 -->
<g id="Node000001" class="node">
<title>Node1</title>
<g id="a_Node000001"><a xlink:title="Make waves.">
<polygon fill="#999999" stroke="#666666" points="107.5,-113.62 0,-113.62 0,-95.88 107.5,-95.88 107.5,-113.62"/>
<text xml:space="preserve" text-anchor="middle" x="53.75" y="-102.03" font-family="SourceSans" font-size="8.00">svg::make_path_ripple</text>
</a>
</g>
</g>
<!-- Node2 -->
<g id="Node000002" class="node">
<title>Node2</title>
<g id="a_Node000002"><a xlink:href="namespacesvg.html#a302d3f13fef13ef823b99cfabcfac3ab" target="_top" xlink:title="Draw path given serialized path data. Can be used to make pinstripes, ie top and bottom line layers....">
<polygon fill="white" stroke="#666666" points="228.88,-131.62 148.38,-131.62 148.38,-113.88 228.88,-113.88 228.88,-131.62"/>
<text xml:space="preserve" text-anchor="middle" x="188.62" y="-120.03" font-family="SourceSans" font-size="8.00">svg::make_path</text>
</a>
</g>
</g>
<!-- Node1&#45;&gt;Node2 -->
<g id="edge1_Node000001_Node000002" class="edge">
<title>Node1&#45;&gt;Node2</title>
<g id="a_edge1_Node000001_Node000002"><a xlink:title=" ">
<path fill="none" stroke="#63b8ff" d="M107.65,-111.92C117.22,-113.21 127.18,-114.56 136.69,-115.85"/>
<polygon fill="#63b8ff" stroke="#63b8ff" points="136.14,-119.31 146.52,-117.18 137.08,-112.37 136.14,-119.31"/>
</a>
</g>
</g>
<!-- Node10 -->
<g id="Node000010" class="node">
<title>Node10</title>
<g id="a_Node000010"><a xlink:href="namespacesvg_1_1constants.html#a0e0b0d9314bc47324ee39884bf8bb2fd" target="_top" xlink:title=" ">
<polygon fill="white" stroke="#666666" points="233.75,-95.62 143.5,-95.62 143.5,-77.88 233.75,-77.88 233.75,-95.62"/>
<text xml:space="preserve" text-anchor="middle" x="188.62" y="-84.03" font-family="SourceSans" font-size="8.00">svg::constants::pi</text>
</a>
</g>
</g>
<!-- Node1&#45;&gt;Node10 -->
<g id="edge10_Node000001_Node000010" class="edge">
<title>Node1&#45;&gt;Node10</title>
<g id="a_edge10_Node000001_Node000010"><a xlink:title=" ">
<path fill="none" stroke="#63b8ff" d="M107.65,-97.58C115.62,-96.5 123.86,-95.39 131.88,-94.3"/>
<polygon fill="#63b8ff" stroke="#63b8ff" points="132.1,-97.8 141.54,-92.99 131.16,-90.87 132.1,-97.8"/>
</a>
</g>
</g>
<!-- Node3 -->
<g id="Node000003" class="node">
<title>Node3</title>
<g id="a_Node000003"><a xlink:href="group__elements.html#a807f3c30f2ace338ad10aaf230b47665" target="_top" xlink:title="Either serialize immediately (as below), or create data structure that adds data to data_vec and then...">
<polygon fill="white" stroke="#666666" points="369,-249.5 270.5,-249.5 270.5,-222 369,-222 369,-249.5"/>
<text xml:space="preserve" text-anchor="start" x="278.5" y="-237.9" font-family="SourceSans" font-size="8.00">svg::path_element::</text>
<text xml:space="preserve" text-anchor="middle" x="319.75" y="-228.15" font-family="SourceSans" font-size="8.00">add_data</text>
</a>
</g>
</g>
<!-- Node2&#45;&gt;Node3 -->
<g id="edge2_Node000002_Node000003" class="edge">
<title>Node2&#45;&gt;Node3</title>
<g id="a_edge2_Node000002_Node000003"><a xlink:title=" ">
<path fill="none" stroke="#63b8ff" d="M195.92,-132.03C208.28,-149.71 237.39,-188.6 269.75,-212.75 271.25,-213.87 272.82,-214.96 274.43,-216.01"/>
<polygon fill="#63b8ff" stroke="#63b8ff" points="272.29,-218.81 282.69,-220.84 275.83,-212.77 272.29,-218.81"/>
</a>
</g>
</g>
<!-- Node5 -->
<g id="Node000005" class="node">
<title>Node5</title>
<g id="a_Node000005"><a xlink:href="group__elements.html#acafbdd950c6c2639c9d376c3eab696e5" target="_top" xlink:title=" ">
<polygon fill="white" stroke="#666666" points="369.75,-203.5 269.75,-203.5 269.75,-176 369.75,-176 369.75,-203.5"/>
<text xml:space="preserve" text-anchor="start" x="277.75" y="-191.9" font-family="SourceSans" font-size="8.00">svg::element_base::</text>
<text xml:space="preserve" text-anchor="middle" x="319.75" y="-182.15" font-family="SourceSans" font-size="8.00">add_raw</text>
</a>
</g>
</g>
<!-- Node2&#45;&gt;Node5 -->
<g id="edge4_Node000002_Node000005" class="edge">
<title>Node2&#45;&gt;Node5</title>
<g id="a_edge4_Node000002_Node000005"><a xlink:title=" ">
<path fill="none" stroke="#63b8ff" d="M205.73,-131.99C221.8,-141.11 247.26,-155.31 269.75,-166.75 272.28,-168.04 274.89,-169.34 277.54,-170.64"/>
<polygon fill="#63b8ff" stroke="#63b8ff" points="275.87,-173.72 286.4,-174.91 278.91,-167.41 275.87,-173.72"/>
</a>
</g>
</g>
<!-- Node6 -->
<g id="Node000006" class="node">
<title>Node6</title>
<g id="a_Node000006"><a xlink:href="group__elements.html#a238b38ca99a1cf6c2baf80c8e4338d99" target="_top" xlink:title=" ">
<polygon fill="white" stroke="#666666" points="369.75,-157.5 269.75,-157.5 269.75,-130 369.75,-130 369.75,-157.5"/>
<text xml:space="preserve" text-anchor="start" x="277.75" y="-145.9" font-family="SourceSans" font-size="8.00">svg::element_base::</text>
<text xml:space="preserve" text-anchor="middle" x="319.75" y="-136.15" font-family="SourceSans" font-size="8.00">add_style</text>
</a>
</g>
</g>
<!-- Node2&#45;&gt;Node6 -->
<g id="edge5_Node000002_Node000006" class="edge">
<title>Node2&#45;&gt;Node6</title>
<g id="a_edge5_Node000002_Node000006"><a xlink:title=" ">
<path fill="none" stroke="#63b8ff" d="M229.07,-129.16C238.34,-130.67 248.42,-132.31 258.38,-133.93"/>
<polygon fill="#63b8ff" stroke="#63b8ff" points="257.58,-137.35 268.01,-135.5 258.71,-130.44 257.58,-137.35"/>
</a>
</g>
</g>
<!-- Node7 -->
<g id="Node000007" class="node">
<title>Node7</title>
<g id="a_Node000007"><a xlink:href="namespacesvg.html#a36b1c48ad4601b205790e3772ad0a7b6" target="_top" xlink:title=" ">
<polygon fill="white" stroke="#666666" points="488.12,-131.62 416.62,-131.62 416.62,-113.88 488.12,-113.88 488.12,-131.62"/>
<text xml:space="preserve" text-anchor="middle" x="452.38" y="-120.03" font-family="SourceSans" font-size="8.00">svg::to_string</text>
</a>
</g>
</g>
<!-- Node2&#45;&gt;Node7 -->
<g id="edge9_Node000002_Node000007" class="edge">
<title>Node2&#45;&gt;Node7</title>
<g id="a_edge9_Node000002_Node000007"><a xlink:title=" ">
<path fill="none" stroke="#63b8ff" d="M229.15,-121.57C242.09,-121.23 256.53,-120.91 269.75,-120.75 314.19,-120.2 325.31,-120.21 369.75,-120.75 381.23,-120.89 393.62,-121.14 405.19,-121.42"/>
<polygon fill="#63b8ff" stroke="#63b8ff" points="404.83,-124.91 414.91,-121.67 405,-117.92 404.83,-124.91"/>
</a>
</g>
</g>
<!-- Node8 -->
<g id="Node000008" class="node">
<title>Node8</title>
<g id="a_Node000008"><a xlink:href="group__elements.html#gaac30ae99fb1a2542688fa1ffb43cd8e1" target="_top" xlink:title=" ">
<polygon fill="white" stroke="#666666" points="369,-73.5 270.5,-73.5 270.5,-46 369,-46 369,-73.5"/>
<text xml:space="preserve" text-anchor="start" x="278.5" y="-61.9" font-family="SourceSans" font-size="8.00">svg::path_element::</text>
<text xml:space="preserve" text-anchor="middle" x="319.75" y="-52.15" font-family="SourceSans" font-size="8.00">finish_element</text>
</a>
</g>
</g>
<!-- Node2&#45;&gt;Node8 -->
<g id="edge7_Node000002_Node000008" class="edge">
<title>Node2&#45;&gt;Node8</title>
<g id="a_edge7_Node000002_Node000008"><a xlink:title=" ">
<path fill="none" stroke="#63b8ff" d="M213.63,-113.46C220.21,-110.78 227.3,-107.76 233.75,-104.75 250.47,-96.94 268.59,-87.49 283.79,-79.27"/>
<polygon fill="#63b8ff" stroke="#63b8ff" points="285.36,-82.39 292.46,-74.53 282.01,-76.25 285.36,-82.39"/>
</a>
</g>
</g>
<!-- Node9 -->
<g id="Node000009" class="node">
<title>Node9</title>
<g id="a_Node000009"><a xlink:href="group__elements.html#a6dbca7cef2cbc0c10aa44c44ae20b36e" target="_top" xlink:title=" ">
<polygon fill="white" stroke="#666666" points="369,-27.5 270.5,-27.5 270.5,0 369,0 369,-27.5"/>
<text xml:space="preserve" text-anchor="start" x="278.5" y="-15.9" font-family="SourceSans" font-size="8.00">svg::path_element::</text>
<text xml:space="preserve" text-anchor="middle" x="319.75" y="-6.15" font-family="SourceSans" font-size="8.00">start_element</text>
</a>
</g>
</g>
<!-- Node2&#45;&gt;Node9 -->
<g id="edge8_Node000002_Node000009" class="edge">
<title>Node2&#45;&gt;Node9</title>
<g id="a_edge8_Node000002_Node000009"><a xlink:title=" ">
<path fill="none" stroke="#63b8ff" d="M220.23,-113.56C225.1,-111.2 229.82,-108.3 233.75,-104.75 259.1,-81.8 245,-60.34 269.75,-36.75 270.63,-35.91 271.56,-35.09 272.51,-34.3"/>
<polygon fill="#63b8ff" stroke="#63b8ff" points="274.29,-37.32 280.49,-28.73 270.29,-31.58 274.29,-37.32"/>
</a>
</g>
</g>
<!-- Node4 -->
<g id="Node000004" class="node">
<title>Node4</title>
<g id="a_Node000004"><a xlink:href="namespacesvg.html#a48ac748e89e22789d1772326a98dd7b6" target="_top" xlink:title=" ">
<polygon fill="white" stroke="#666666" points="499,-244.62 405.75,-244.62 405.75,-226.88 499,-226.88 499,-244.62"/>
<text xml:space="preserve" text-anchor="middle" x="452.38" y="-233.03" font-family="SourceSans" font-size="8.00">svg::string_replace</text>
</a>
</g>
</g>
<!-- Node3&#45;&gt;Node4 -->
<g id="edge3_Node000003_Node000004" class="edge">
<title>Node3&#45;&gt;Node4</title>
<g id="a_edge3_Node000003_Node000004"><a xlink:title=" ">
<path fill="none" stroke="#63b8ff" d="M369.39,-235.75C377.38,-235.75 385.72,-235.75 393.9,-235.75"/>
<polygon fill="#63b8ff" stroke="#63b8ff" points="393.78,-239.25 403.78,-235.75 393.78,-232.25 393.78,-239.25"/>
</a>
</g>
</g>
<!-- Node6&#45;&gt;Node7 -->
<g id="edge6_Node000006_Node000007" class="edge">
<title>Node6&#45;&gt;Node7</title>
<g id="a_edge6_Node000006_Node000007"><a xlink:title=" ">
<path fill="none" stroke="#63b8ff" d="M370.13,-135.81C381.5,-133.98 393.55,-132.05 404.8,-130.24"/>
<polygon fill="#63b8ff" stroke="#63b8ff" points="405.35,-133.69 414.67,-128.65 404.24,-126.78 405.35,-133.69"/>
</a>
</g>
</g>
</g>
</svg>

<g id="navigator" transform="translate(0 0)" fill="#404254">
  <rect fill="#f2f5e9" fill-opacity="0.5" stroke="#606060" stroke-width=".5" x="0" y="0" width="60" height="60"/>
  <use id="zoomplus" xlink:href="#zoomPlus" x="17" y="9" onmousedown="handleZoom(evt,'in')"/>
  <use id="zoomminus" xlink:href="#zoomMin" x="42" y="9" onmousedown="handleZoom(evt,'out')"/>
  <use id="reset" xlink:href="#resetDef" x="30" y="36" onmousedown="handleReset()"/>
   <use id="arrowup" xlink:href="#arrowUp" x="0" y="0" onmousedown="handlePan(0,-1)"/>
  <use id="arrowright" xlink:href="#arrowRight" x="0" y="0" onmousedown="handlePan(1,0)"/>
  <use id="arrowdown" xlink:href="#arrowDown" x="0" y="0" onmousedown="handlePan(0,1)"/>
  <use id="arrowleft" xlink:href="#arrowLeft" x="0" y="0" onmousedown="handlePan(-1,0)"/>
</g>
<svg viewBox="0 0 15 15" width="100%" height="30px" preserveAspectRatio="xMaxYMin meet">
 <g id="arrow_out" transform="scale(0.3 0.3)">
  <a xlink:href="namespacesvg_a841700121809e584021d614e1b50f629_cgraph_org.svg" target="_base">
   <rect id="button" ry="5" rx="5" y="6" x="6" height="38" width="38"
        fill="#f2f5e9" fill-opacity="0.5" stroke="#606060" stroke-width="1.0"/>
   <path id="arrow"
     d="M 11.500037,31.436501 C 11.940474,20.09759 22.043105,11.32322 32.158766,21.979434 L 37.068811,17.246167 C 37.068811,17.246167 37.088388,32 37.088388,32 L 22.160133,31.978069 C 22.160133,31.978069 26.997745,27.140456 26.997745,27.140456 C 18.528582,18.264221 13.291696,25.230495 11.500037,31.436501 z"
     style="fill:#404040;"/>
  </a>
 </g>
</svg>

<style type='text/css'>
<![CDATA[
[data-mouse-over-selected='false'] { opacity: 0.7; }
[data-mouse-over-selected='true']  { opacity: 1.0; }
]]>
</style>
<script type="application/ecmascript"><![CDATA[
document.addEventListener('DOMContentLoaded', (event) => {
  highlightEdges();
  highlightAdjacentNodes();
});
]]></script>
</svg>
