<?xml version="1.0" encoding="UTF-8" standalone="no"?>
<!DOCTYPE svg PUBLIC "-//W3C//DTD SVG 1.1//EN"
 "http://www.w3.org/Graphics/SVG/1.1/DTD/svg11.dtd">
<!-- Generated by graphviz version 12.1.0 (20240811.2233)
 -->
<!-- Title: svg::make_marker_rect Pages: 1 -->
<svg width="818pt" height="455pt"
 viewBox="0.00 0.00 818.00 455.10" xmlns="http://www.w3.org/2000/svg" xmlns:xlink="http://www.w3.org/1999/xlink">
<g id="graph0" class="graph" transform="scale(1 1) rotate(0) translate(4 451.1)">
<title>svg::make_marker_rect</title>
<!-- Node1 -->
<g id="Node000001" class="node">
<title>Node1</title>
<g id="a_Node000001"><a xlink:title=" ">
<polygon fill="#999999" stroke="#666666" points="103,-208 0,-208 0,-188 103,-188 103,-208"/>
<text text-anchor="middle" x="51.5" y="-196.4" font-family="SourceSans" font-size="8.00">svg::make_marker_rect</text>
</a>
</g>
</g>
<!-- Node2 -->
<g id="Node000002" class="node">
<title>Node2</title>
<g id="a_Node000002"><a xlink:href="namespacesvg.html#af02ffb403f990d5ac674a7c1d728fe5b" target="_top" xlink:title="Base function for generating SVG markers in a defs section.">
<polygon fill="white" stroke="#666666" points="405,-264 284.75,-264 284.75,-244 405,-244 405,-264"/>
<text text-anchor="middle" x="344.88" y="-252.4" font-family="SourceSans" font-size="8.00">svg::make_marker_element</text>
</a>
</g>
</g>
<!-- Node1&#45;&gt;Node2 -->
<g id="edge1_Node000001_Node000002" class="edge">
<title>Node1&#45;&gt;Node2</title>
<g id="a_edge1_Node000001_Node000002"><a xlink:title=" ">
<path fill="none" stroke="#63b8ff" d="M103.25,-207.75C151.81,-217.09 225.29,-231.21 278.27,-241.39"/>
<polygon fill="#63b8ff" stroke="#63b8ff" points="277.28,-244.77 287.76,-243.22 278.61,-237.89 277.28,-244.77"/>
</a>
</g>
</g>
<!-- Node11 -->
<g id="Node000011" class="node">
<title>Node11</title>
<g id="a_Node000011"><a xlink:href="namespacesvg.html#a7c25ce3eee490f8a8673c17d77fed46d" target="_top" xlink:title="Create rect_element centered at origin.">
<polygon fill="white" stroke="#666666" points="248.75,-189 139,-189 139,-169 248.75,-169 248.75,-189"/>
<text text-anchor="middle" x="193.88" y="-177.4" font-family="SourceSans" font-size="8.00">svg::make_rect_centered</text>
</a>
</g>
</g>
<!-- Node1&#45;&gt;Node11 -->
<g id="edge15_Node000001_Node000011" class="edge">
<title>Node1&#45;&gt;Node11</title>
<g id="a_edge15_Node000001_Node000011"><a xlink:title=" ">
<path fill="none" stroke="#63b8ff" d="M103.18,-191.14C111.17,-190.06 119.53,-188.93 127.79,-187.81"/>
<polygon fill="#63b8ff" stroke="#63b8ff" points="128.01,-191.31 137.45,-186.5 127.07,-184.37 128.01,-191.31"/>
</a>
</g>
</g>
<!-- Node3 -->
<g id="Node000003" class="node">
<title>Node3</title>
<g id="a_Node000003"><a xlink:href="group__elements.html#acafbdd950c6c2639c9d376c3eab696e5" target="_top" xlink:title=" ">
<polygon fill="white" stroke="#666666" points="534.25,-220 443.25,-220 443.25,-188 534.25,-188 534.25,-220"/>
<text text-anchor="start" x="451.25" y="-208.4" font-family="SourceSans" font-size="8.00">svg::element_base::</text>
<text text-anchor="middle" x="488.75" y="-196.4" font-family="SourceSans" font-size="8.00">add_raw</text>
</a>
</g>
</g>
<!-- Node2&#45;&gt;Node3 -->
<g id="edge2_Node000002_Node000003" class="edge">
<title>Node2&#45;&gt;Node3</title>
<g id="a_edge2_Node000002_Node000003"><a xlink:title=" ">
<path fill="none" stroke="#63b8ff" d="M375.62,-243.52C391.99,-237.75 412.86,-230.39 432.13,-223.6"/>
<polygon fill="#63b8ff" stroke="#63b8ff" points="433.25,-226.92 441.52,-220.29 430.92,-220.32 433.25,-226.92"/>
</a>
</g>
</g>
<!-- Node6 -->
<g id="Node000006" class="node">
<title>Node6</title>
<g id="a_Node000006"><a xlink:href="group__elements.html#gab7270e660dcac30ea26157764f230e03" target="_top" xlink:title=" ">
<polygon fill="white" stroke="#666666" points="536.5,-428 441,-428 441,-396 536.5,-396 536.5,-428"/>
<text text-anchor="start" x="449" y="-416.4" font-family="SourceSans" font-size="8.00">svg::marker_element</text>
<text text-anchor="middle" x="488.75" y="-404.4" font-family="SourceSans" font-size="8.00">::finish_element</text>
</a>
</g>
</g>
<!-- Node2&#45;&gt;Node6 -->
<g id="edge5_Node000002_Node000006" class="edge">
<title>Node2&#45;&gt;Node6</title>
<g id="a_edge5_Node000002_Node000006"><a xlink:title=" ">
<path fill="none" stroke="#63b8ff" d="M355.18,-264.37C377.4,-289.11 434.04,-352.19 465.62,-387.36"/>
<polygon fill="#63b8ff" stroke="#63b8ff" points="462.78,-389.43 472.07,-394.53 467.99,-384.75 462.78,-389.43"/>
</a>
</g>
</g>
<!-- Node8 -->
<g id="Node000008" class="node">
<title>Node8</title>
<g id="a_Node000008"><a xlink:href="group__elements.html#ad3c0b5ef28ee0311a315eec38ae99da7" target="_top" xlink:title=" ">
<polygon fill="white" stroke="#666666" points="536.5,-320 441,-320 441,-288 536.5,-288 536.5,-320"/>
<text text-anchor="start" x="449" y="-308.4" font-family="SourceSans" font-size="8.00">svg::marker_element</text>
<text text-anchor="middle" x="488.75" y="-296.4" font-family="SourceSans" font-size="8.00">::start_element</text>
</a>
</g>
</g>
<!-- Node2&#45;&gt;Node8 -->
<g id="edge9_Node000002_Node000008" class="edge">
<title>Node2&#45;&gt;Node8</title>
<g id="a_edge9_Node000002_Node000008"><a xlink:title=" ">
<path fill="none" stroke="#63b8ff" d="M375.62,-264.48C391.44,-270.06 411.46,-277.11 430.18,-283.71"/>
<polygon fill="#63b8ff" stroke="#63b8ff" points="428.99,-287 439.59,-287.03 431.32,-280.4 428.99,-287"/>
</a>
</g>
</g>
<!-- Node4 -->
<g id="Node000004" class="node">
<title>Node4</title>
<g id="a_Node000004"><a xlink:href="namespacesvg_1_1constants.html#aa7f04c2ea699a1b1e2e790de5ac33f38" target="_top" xlink:title=" ">
<polygon fill="white" stroke="#666666" points="810,-356 705.5,-356 705.5,-336 810,-336 810,-356"/>
<text text-anchor="middle" x="757.75" y="-344.4" font-family="SourceSans" font-size="8.00">svg::constants::newline</text>
</a>
</g>
</g>
<!-- Node3&#45;&gt;Node4 -->
<g id="edge3_Node000003_Node000004" class="edge">
<title>Node3&#45;&gt;Node4</title>
<g id="a_edge3_Node000003_Node000004"><a xlink:title=" ">
<path fill="none" stroke="#63b8ff" d="M534.64,-198.91C573.05,-196.74 628.47,-198.98 669.5,-223 709.81,-246.6 736.31,-297.05 748.67,-325.46"/>
<polygon fill="#63b8ff" stroke="#63b8ff" points="745.33,-326.53 752.4,-334.42 751.79,-323.84 745.33,-326.53"/>
</a>
</g>
</g>
<!-- Node5 -->
<g id="Node000005" class="node">
<title>Node5</title>
<g id="a_Node000005"><a xlink:href="namespacesvg_1_1constants.html#ac460bc8db60d85c3ae1cf8b1a903405e" target="_top" xlink:title="Formatting character constants.">
<polygon fill="white" stroke="#666666" points="669.12,-252 572.88,-252 572.88,-232 669.12,-232 669.12,-252"/>
<text text-anchor="middle" x="621" y="-240.4" font-family="SourceSans" font-size="8.00">svg::constants::space</text>
</a>
</g>
</g>
<!-- Node3&#45;&gt;Node5 -->
<g id="edge4_Node000003_Node000005" class="edge">
<title>Node3&#45;&gt;Node5</title>
<g id="a_edge4_Node000003_Node000005"><a xlink:title=" ">
<path fill="none" stroke="#63b8ff" d="M534.57,-217.08C547.1,-220.73 560.73,-224.71 573.35,-228.39"/>
<polygon fill="#63b8ff" stroke="#63b8ff" points="572.1,-231.67 582.68,-231.11 574.06,-224.95 572.1,-231.67"/>
</a>
</g>
</g>
<!-- Node6&#45;&gt;Node4 -->
<g id="edge8_Node000006_Node000004" class="edge">
<title>Node6&#45;&gt;Node4</title>
<g id="a_edge8_Node000006_Node000004"><a xlink:title=" ">
<path fill="none" stroke="#63b8ff" d="M527.41,-428.38C564.88,-442.16 623.28,-456.72 669.5,-437 703.22,-422.62 730.16,-388.11 744.76,-365.96"/>
<polygon fill="#63b8ff" stroke="#63b8ff" points="747.55,-368.1 749.94,-357.77 741.63,-364.35 747.55,-368.1"/>
</a>
</g>
</g>
<!-- Node7 -->
<g id="Node000007" class="node">
<title>Node7</title>
<g id="a_Node000007"><a xlink:href="group__elements.html#ga503ee2895588a6c684e2b1614cf4e73d" target="_top" xlink:title=" ">
<polygon fill="white" stroke="#666666" points="665.75,-428 576.25,-428 576.25,-396 665.75,-396 665.75,-428"/>
<text text-anchor="start" x="584.25" y="-416.4" font-family="SourceSans" font-size="8.00">svg::defs_element::</text>
<text text-anchor="middle" x="621" y="-404.4" font-family="SourceSans" font-size="8.00">finish_element</text>
</a>
</g>
</g>
<!-- Node6&#45;&gt;Node7 -->
<g id="edge6_Node000006_Node000007" class="edge">
<title>Node6&#45;&gt;Node7</title>
<g id="a_edge6_Node000006_Node000007"><a xlink:title=" ">
<path fill="none" stroke="#63b8ff" d="M536.77,-412C545.89,-412 555.52,-412 564.87,-412"/>
<polygon fill="#63b8ff" stroke="#63b8ff" points="564.57,-415.5 574.57,-412 564.57,-408.5 564.57,-415.5"/>
</a>
</g>
</g>
<!-- Node7&#45;&gt;Node4 -->
<g id="edge7_Node000007_Node000004" class="edge">
<title>Node7&#45;&gt;Node4</title>
<g id="a_edge7_Node000007_Node000004"><a xlink:title=" ">
<path fill="none" stroke="#63b8ff" d="M655.66,-395.52C677.03,-385.05 704.51,-371.59 725.42,-361.35"/>
<polygon fill="#63b8ff" stroke="#63b8ff" points="726.89,-364.52 734.33,-356.98 723.81,-358.24 726.89,-364.52"/>
</a>
</g>
</g>
<!-- Node8&#45;&gt;Node4 -->
<g id="edge10_Node000008_Node000004" class="edge">
<title>Node8&#45;&gt;Node4</title>
<g id="a_edge10_Node000008_Node000004"><a xlink:title=" ">
<path fill="none" stroke="#63b8ff" d="M512.35,-320.32C528.29,-330.8 550.63,-343.44 572.5,-349 611.95,-359.03 657.7,-358.35 693.74,-355.13"/>
<polygon fill="#63b8ff" stroke="#63b8ff" points="693.97,-358.62 703.57,-354.15 693.27,-351.66 693.97,-358.62"/>
</a>
</g>
</g>
<!-- Node8&#45;&gt;Node5 -->
<g id="edge12_Node000008_Node000005" class="edge">
<title>Node8&#45;&gt;Node5</title>
<g id="a_edge12_Node000008_Node000005"><a xlink:title=" ">
<path fill="none" stroke="#63b8ff" d="M520.65,-287.54C539.76,-277.44 562.49,-265.59 572.5,-261 575.59,-259.58 578.82,-258.17 582.07,-256.78"/>
<polygon fill="#63b8ff" stroke="#63b8ff" points="583.13,-260.13 591.03,-253.07 580.45,-253.66 583.13,-260.13"/>
</a>
</g>
</g>
<!-- Node9 -->
<g id="Node000009" class="node">
<title>Node9</title>
<g id="a_Node000009"><a xlink:href="namespacesvg_1_1constants.html#a3972655f1dfdc090ec2592d1fb37e87c" target="_top" xlink:title=" ">
<polygon fill="white" stroke="#666666" points="669.5,-290 572.5,-290 572.5,-270 669.5,-270 669.5,-290"/>
<text text-anchor="middle" x="621" y="-278.4" font-family="SourceSans" font-size="8.00">svg::constants::quote</text>
</a>
</g>
</g>
<!-- Node8&#45;&gt;Node9 -->
<g id="edge11_Node000008_Node000009" class="edge">
<title>Node8&#45;&gt;Node9</title>
<g id="a_edge11_Node000008_Node000009"><a xlink:title=" ">
<path fill="none" stroke="#63b8ff" d="M536.77,-295.34C544.6,-293.89 552.8,-292.38 560.88,-290.89"/>
<polygon fill="#63b8ff" stroke="#63b8ff" points="561.48,-294.34 570.68,-289.09 560.21,-287.46 561.48,-294.34"/>
</a>
</g>
</g>
<!-- Node10 -->
<g id="Node000010" class="node">
<title>Node10</title>
<g id="a_Node000010"><a xlink:href="group__elements.html#a948868c6f5dea784ded14c26cc1d2139" target="_top" xlink:title=" ">
<polygon fill="white" stroke="#666666" points="665.75,-340 576.25,-340 576.25,-308 665.75,-308 665.75,-340"/>
<text text-anchor="start" x="584.25" y="-328.4" font-family="SourceSans" font-size="8.00">svg::defs_element::</text>
<text text-anchor="middle" x="621" y="-316.4" font-family="SourceSans" font-size="8.00">start_element</text>
</a>
</g>
</g>
<!-- Node8&#45;&gt;Node10 -->
<g id="edge13_Node000008_Node000010" class="edge">
<title>Node8&#45;&gt;Node10</title>
<g id="a_edge13_Node000008_Node000010"><a xlink:title=" ">
<path fill="none" stroke="#63b8ff" d="M536.77,-311.22C545.89,-312.62 555.52,-314.1 564.87,-315.54"/>
<polygon fill="#63b8ff" stroke="#63b8ff" points="564.17,-318.97 574.59,-317.03 565.24,-312.05 564.17,-318.97"/>
</a>
</g>
</g>
<!-- Node10&#45;&gt;Node4 -->
<g id="edge14_Node000010_Node000004" class="edge">
<title>Node10&#45;&gt;Node4</title>
<g id="a_edge14_Node000010_Node000004"><a xlink:title=" ">
<path fill="none" stroke="#63b8ff" d="M666.12,-331.2C674.96,-332.65 684.41,-334.19 693.75,-335.71"/>
<polygon fill="#63b8ff" stroke="#63b8ff" points="693.1,-339.16 703.54,-337.31 694.23,-332.25 693.1,-339.16"/>
</a>
</g>
</g>
<!-- Node12 -->
<g id="Node000012" class="node">
<title>Node12</title>
<g id="a_Node000012"><a xlink:href="namespacesvg.html#ab020874bc83c9a9dcbaadf71b74efeac" target="_top" xlink:title="Create rect_element at origin.">
<polygon fill="white" stroke="#666666" points="381,-132 308.75,-132 308.75,-112 381,-112 381,-132"/>
<text text-anchor="middle" x="344.88" y="-120.4" font-family="SourceSans" font-size="8.00">svg::make_rect</text>
</a>
</g>
</g>
<!-- Node11&#45;&gt;Node12 -->
<g id="edge16_Node000011_Node000012" class="edge">
<title>Node11&#45;&gt;Node12</title>
<g id="a_edge16_Node000011_Node000012"><a xlink:title=" ">
<path fill="none" stroke="#63b8ff" d="M222.2,-168.55C245.65,-159.57 279.7,-146.55 305.81,-136.56"/>
<polygon fill="#63b8ff" stroke="#63b8ff" points="306.96,-139.87 315.05,-133.03 304.46,-133.33 306.96,-139.87"/>
</a>
</g>
</g>
<!-- Node13 -->
<g id="Node000013" class="node">
<title>Node13</title>
<g id="a_Node000013"><a xlink:href="group__elements.html#a1dd6663d882fb5dd14a47462a77f351b" target="_top" xlink:title="Either serialize immediately (as below), or create data structure that adds data to data_vec and then...">
<polygon fill="white" stroke="#666666" points="532.38,-132 445.12,-132 445.12,-100 532.38,-100 532.38,-132"/>
<text text-anchor="start" x="453.12" y="-120.4" font-family="SourceSans" font-size="8.00">svg::rect_element::</text>
<text text-anchor="middle" x="488.75" y="-108.4" font-family="SourceSans" font-size="8.00">add_data</text>
</a>
</g>
</g>
<!-- Node12&#45;&gt;Node13 -->
<g id="edge17_Node000012_Node000013" class="edge">
<title>Node12&#45;&gt;Node13</title>
<g id="a_edge17_Node000012_Node000013"><a xlink:title=" ">
<path fill="none" stroke="#63b8ff" d="M381.31,-120.5C397.06,-119.84 415.97,-119.04 433.44,-118.3"/>
<polygon fill="#63b8ff" stroke="#63b8ff" points="433.32,-121.81 443.16,-117.89 433.02,-114.81 433.32,-121.81"/>
</a>
</g>
</g>
<!-- Node15 -->
<g id="Node000015" class="node">
<title>Node15</title>
<g id="a_Node000015"><a xlink:href="group__elements.html#a1b22cfab9437b40c8b877ffe5472ff02" target="_top" xlink:title=" ">
<polygon fill="white" stroke="#666666" points="534.25,-270 443.25,-270 443.25,-238 534.25,-238 534.25,-270"/>
<text text-anchor="start" x="451.25" y="-258.4" font-family="SourceSans" font-size="8.00">svg::element_base::</text>
<text text-anchor="middle" x="488.75" y="-246.4" font-family="SourceSans" font-size="8.00">add_filter</text>
</a>
</g>
</g>
<!-- Node12&#45;&gt;Node15 -->
<g id="edge19_Node000012_Node000015" class="edge">
<title>Node12&#45;&gt;Node15</title>
<g id="a_edge19_Node000012_Node000015"><a xlink:title=" ">
<path fill="none" stroke="#63b8ff" d="M353.02,-132.22C367.67,-152.62 402.94,-198.99 441,-229 442.1,-229.87 443.23,-230.72 444.39,-231.55"/>
<polygon fill="#63b8ff" stroke="#63b8ff" points="442.1,-234.24 452.39,-236.79 445.94,-228.38 442.1,-234.24"/>
</a>
</g>
</g>
<!-- Node16 -->
<g id="Node000016" class="node">
<title>Node16</title>
<g id="a_Node000016"><a xlink:href="group__elements.html#a238b38ca99a1cf6c2baf80c8e4338d99" target="_top" xlink:title=" ">
<polygon fill="white" stroke="#666666" points="534.25,-82 443.25,-82 443.25,-50 534.25,-50 534.25,-82"/>
<text text-anchor="start" x="451.25" y="-70.4" font-family="SourceSans" font-size="8.00">svg::element_base::</text>
<text text-anchor="middle" x="488.75" y="-58.4" font-family="SourceSans" font-size="8.00">add_style</text>
</a>
</g>
</g>
<!-- Node12&#45;&gt;Node16 -->
<g id="edge22_Node000012_Node000016" class="edge">
<title>Node12&#45;&gt;Node16</title>
<g id="a_edge22_Node000012_Node000016"><a xlink:title=" ">
<path fill="none" stroke="#63b8ff" d="M372.23,-111.6C389.98,-104.59 414.01,-95.11 435.55,-86.61"/>
<polygon fill="#63b8ff" stroke="#63b8ff" points="436.78,-89.88 444.8,-82.95 434.21,-83.37 436.78,-89.88"/>
</a>
</g>
</g>
<!-- Node18 -->
<g id="Node000018" class="node">
<title>Node18</title>
<g id="a_Node000018"><a xlink:href="group__elements.html#gad01750ac554c6bd6871a930c90e17a04" target="_top" xlink:title=" ">
<polygon fill="white" stroke="#666666" points="664.62,-176 577.38,-176 577.38,-144 664.62,-144 664.62,-176"/>
<text text-anchor="start" x="585.38" y="-164.4" font-family="SourceSans" font-size="8.00">svg::rect_element::</text>
<text text-anchor="middle" x="621" y="-152.4" font-family="SourceSans" font-size="8.00">finish_element</text>
</a>
</g>
</g>
<!-- Node12&#45;&gt;Node18 -->
<g id="edge24_Node000012_Node000018" class="edge">
<title>Node12&#45;&gt;Node18</title>
<g id="a_edge24_Node000012_Node000018"><a xlink:title=" ">
<path fill="none" stroke="#63b8ff" d="M381.42,-129.9C399.24,-133.66 421.19,-137.98 441,-141 482.81,-147.38 530.45,-152.33 566.06,-155.57"/>
<polygon fill="#63b8ff" stroke="#63b8ff" points="565.4,-159.02 575.67,-156.43 566.03,-152.05 565.4,-159.02"/>
</a>
</g>
</g>
<!-- Node19 -->
<g id="Node000019" class="node">
<title>Node19</title>
<g id="a_Node000019"><a xlink:href="group__elements.html#a1e0ed5e9dfe1244317a87d7e6774348b" target="_top" xlink:title=" ">
<polygon fill="white" stroke="#666666" points="532.38,-32 445.12,-32 445.12,0 532.38,0 532.38,-32"/>
<text text-anchor="start" x="453.12" y="-20.4" font-family="SourceSans" font-size="8.00">svg::rect_element::</text>
<text text-anchor="middle" x="488.75" y="-8.4" font-family="SourceSans" font-size="8.00">start_element</text>
</a>
</g>
</g>
<!-- Node12&#45;&gt;Node19 -->
<g id="edge26_Node000012_Node000019" class="edge">
<title>Node12&#45;&gt;Node19</title>
<g id="a_edge26_Node000012_Node000019"><a xlink:title=" ">
<path fill="none" stroke="#63b8ff" d="M356.39,-111.72C373.31,-95.49 408.02,-63.48 441,-41 442.38,-40.06 443.8,-39.13 445.24,-38.21"/>
<polygon fill="#63b8ff" stroke="#63b8ff" points="446.96,-41.26 453.73,-33.12 443.35,-35.26 446.96,-41.26"/>
</a>
</g>
</g>
<!-- Node14 -->
<g id="Node000014" class="node">
<title>Node14</title>
<g id="a_Node000014"><a xlink:href="namespacesvg.html#a48ac748e89e22789d1772326a98dd7b6" target="_top" xlink:title=" ">
<polygon fill="white" stroke="#666666" points="664.62,-126 577.38,-126 577.38,-106 664.62,-106 664.62,-126"/>
<text text-anchor="middle" x="621" y="-114.4" font-family="SourceSans" font-size="8.00">svg::string_replace</text>
</a>
</g>
</g>
<!-- Node13&#45;&gt;Node14 -->
<g id="edge18_Node000013_Node000014" class="edge">
<title>Node13&#45;&gt;Node14</title>
<g id="a_edge18_Node000013_Node000014"><a xlink:title=" ">
<path fill="none" stroke="#63b8ff" d="M532.76,-116C543.32,-116 554.76,-116 565.77,-116"/>
<polygon fill="#63b8ff" stroke="#63b8ff" points="565.52,-119.5 575.52,-116 565.52,-112.5 565.52,-119.5"/>
</a>
</g>
</g>
<!-- Node15&#45;&gt;Node5 -->
<g id="edge21_Node000015_Node000005" class="edge">
<title>Node15&#45;&gt;Node5</title>
<g id="a_edge21_Node000015_Node000005"><a xlink:title=" ">
<path fill="none" stroke="#63b8ff" d="M534.57,-249.87C543.16,-249.08 552.28,-248.24 561.23,-247.41"/>
<polygon fill="#63b8ff" stroke="#63b8ff" points="561.28,-250.92 570.92,-246.52 560.64,-243.95 561.28,-250.92"/>
</a>
</g>
</g>
<!-- Node15&#45;&gt;Node9 -->
<g id="edge20_Node000015_Node000009" class="edge">
<title>Node15&#45;&gt;Node9</title>
<g id="a_edge20_Node000015_Node000009"><a xlink:title=" ">
<path fill="none" stroke="#63b8ff" d="M534.57,-262.95C543.16,-264.66 552.28,-266.48 561.23,-268.27"/>
<polygon fill="#63b8ff" stroke="#63b8ff" points="560.45,-271.68 570.94,-270.21 561.82,-264.82 560.45,-271.68"/>
</a>
</g>
</g>
<!-- Node17 -->
<g id="Node000017" class="node">
<title>Node17</title>
<g id="a_Node000017"><a xlink:href="namespacesvg.html#a36b1c48ad4601b205790e3772ad0a7b6" target="_top" xlink:title=" ">
<polygon fill="white" stroke="#666666" points="654.5,-76 587.5,-76 587.5,-56 654.5,-56 654.5,-76"/>
<text text-anchor="middle" x="621" y="-64.4" font-family="SourceSans" font-size="8.00">svg::to_string</text>
</a>
</g>
</g>
<!-- Node16&#45;&gt;Node17 -->
<g id="edge23_Node000016_Node000017" class="edge">
<title>Node16&#45;&gt;Node17</title>
<g id="a_edge23_Node000016_Node000017"><a xlink:title=" ">
<path fill="none" stroke="#63b8ff" d="M534.57,-66C547.89,-66 562.47,-66 575.75,-66"/>
<polygon fill="#63b8ff" stroke="#63b8ff" points="575.51,-69.5 585.51,-66 575.51,-62.5 575.51,-69.5"/>
</a>
</g>
</g>
<!-- Node18&#45;&gt;Node4 -->
<g id="edge25_Node000018_Node000004" class="edge">
<title>Node18&#45;&gt;Node4</title>
<g id="a_edge25_Node000018_Node000004"><a xlink:title=" ">
<path fill="none" stroke="#63b8ff" d="M652.85,-176.32C658.8,-180.3 664.67,-184.9 669.5,-190 708.5,-231.14 736.26,-292.99 748.97,-325.06"/>
<polygon fill="#63b8ff" stroke="#63b8ff" points="745.7,-326.29 752.55,-334.37 752.23,-323.78 745.7,-326.29"/>
</a>
</g>
</g>
</g>
</svg>
