<?xml version="1.0" encoding="UTF-8" standalone="no"?>
<!DOCTYPE svg PUBLIC "-//W3C//DTD SVG 1.1//EN"
 "http://www.w3.org/Graphics/SVG/1.1/DTD/svg11.dtd">
<!-- Generated by graphviz version 12.1.0 (20240811.2233)
 -->
<!-- Title: svg::point_2d_to_rect_blur Pages: 1 -->
<svg width="427pt" height="266pt"
 viewBox="0.00 0.00 426.50 265.50" xmlns="http://www.w3.org/2000/svg" xmlns:xlink="http://www.w3.org/1999/xlink">

<svg id="main" version="1.1" xmlns="http://www.w3.org/2000/svg" xmlns:xlink="http://www.w3.org/1999/xlink" xml:space="preserve">

<style type="text/css"><![CDATA[
.node, .edge {opacity: 0.7;}
.node.selected, .edge.selected {opacity: 1;}
.edge:hover path { stroke: red; }
.edge:hover polygon { stroke: red; fill: red; }
]]></style>
<script type="application/ecmascript" xlink:href="svg.min.js"/>
<svg id="graph" class="graph">
<g id="graph0" class="graph" transform="scale(1 1) rotate(0) translate(4 261.5)">
<title>svg::point_2d_to_rect_blur</title>
<!-- Node1 -->
<g id="Node000001" class="node">
<title>Node1</title>
<g id="a_Node000001"><a xlink:title="Point to rectangle blur.">
<polygon fill="#999999" stroke="#666666" points="121.75,-137.62 0,-137.62 0,-119.88 121.75,-119.88 121.75,-137.62"/>
<text text-anchor="middle" x="60.88" y="-126.03" font-family="SourceSans" font-size="8.00">svg::point_2d_to_rect_blur</text>
</a>
</g>
</g>
<!-- Node2 -->
<g id="Node000002" class="node">
<title>Node2</title>
<g id="a_Node000002"><a xlink:href="group__elements.html#a1dd6663d882fb5dd14a47462a77f351b" target="_top" xlink:title="Either serialize immediately (as below), or create data structure that adds data to data_vec and then...">
<polygon fill="white" stroke="#666666" points="260,-257.5 165.25,-257.5 165.25,-230 260,-230 260,-257.5"/>
<text text-anchor="start" x="173.25" y="-245.9" font-family="SourceSans" font-size="8.00">svg::rect_element::</text>
<text text-anchor="middle" x="212.62" y="-236.15" font-family="SourceSans" font-size="8.00">add_data</text>
</a>
</g>
</g>
<!-- Node1&#45;&gt;Node2 -->
<g id="edge1_Node000001_Node000002" class="edge">
<title>Node1&#45;&gt;Node2</title>
<g id="a_edge1_Node000001_Node000002"><a xlink:title=" ">
<path fill="none" stroke="#63b8ff" d="M69.45,-137.98C84.61,-155.96 120.42,-196.07 157.75,-220.75 159.6,-221.97 161.52,-223.15 163.49,-224.28"/>
<polygon fill="#63b8ff" stroke="#63b8ff" points="161.8,-227.35 172.28,-228.89 165.05,-221.15 161.8,-227.35"/>
</a>
</g>
</g>
<!-- Node4 -->
<g id="Node000004" class="node">
<title>Node4</title>
<g id="a_Node000004"><a xlink:href="group__elements.html#adb6116b96467cc39cb178deb10c7a869" target="_top" xlink:title=" ">
<polygon fill="white" stroke="#666666" points="267.5,-211.5 157.75,-211.5 157.75,-184 267.5,-184 267.5,-211.5"/>
<text text-anchor="start" x="165.75" y="-199.9" font-family="SourceSans" font-size="8.00">svg::svg_element::add</text>
<text text-anchor="middle" x="212.62" y="-190.15" font-family="SourceSans" font-size="8.00">_element</text>
</a>
</g>
</g>
<!-- Node1&#45;&gt;Node4 -->
<g id="edge3_Node000001_Node000004" class="edge">
<title>Node1&#45;&gt;Node4</title>
<g id="a_edge3_Node000001_Node000004"><a xlink:title=" ">
<path fill="none" stroke="#63b8ff" d="M80.5,-137.98C99.74,-147.45 130.68,-162.48 157.75,-174.75 160.89,-176.17 164.14,-177.62 167.43,-179.07"/>
<polygon fill="#63b8ff" stroke="#63b8ff" points="165.95,-182.24 176.51,-183.02 168.74,-175.82 165.95,-182.24"/>
</a>
</g>
</g>
<!-- Node6 -->
<g id="Node000006" class="node">
<title>Node6</title>
<g id="a_Node000006"><a xlink:href="group__elements.html#a1b22cfab9437b40c8b877ffe5472ff02" target="_top" xlink:title=" ">
<polygon fill="white" stroke="#666666" points="262.62,-165.5 162.62,-165.5 162.62,-138 262.62,-138 262.62,-165.5"/>
<text text-anchor="start" x="170.62" y="-153.9" font-family="SourceSans" font-size="8.00">svg::element_base::</text>
<text text-anchor="middle" x="212.62" y="-144.15" font-family="SourceSans" font-size="8.00">add_filter</text>
</a>
</g>
</g>
<!-- Node1&#45;&gt;Node6 -->
<g id="edge5_Node000001_Node000006" class="edge">
<title>Node1&#45;&gt;Node6</title>
<g id="a_edge5_Node000001_Node000006"><a xlink:title=" ">
<path fill="none" stroke="#63b8ff" d="M121.92,-137.97C131.51,-139.45 141.44,-140.97 151.05,-142.45"/>
<polygon fill="#63b8ff" stroke="#63b8ff" points="150.22,-145.86 160.63,-143.92 151.28,-138.94 150.22,-145.86"/>
</a>
</g>
</g>
<!-- Node9 -->
<g id="Node000009" class="node">
<title>Node9</title>
<g id="a_Node000009"><a xlink:href="group__elements.html#a238b38ca99a1cf6c2baf80c8e4338d99" target="_top" xlink:title=" ">
<polygon fill="white" stroke="#666666" points="262.62,-119.5 162.62,-119.5 162.62,-92 262.62,-92 262.62,-119.5"/>
<text text-anchor="start" x="170.62" y="-107.9" font-family="SourceSans" font-size="8.00">svg::element_base::</text>
<text text-anchor="middle" x="212.62" y="-98.15" font-family="SourceSans" font-size="8.00">add_style</text>
</a>
</g>
</g>
<!-- Node1&#45;&gt;Node9 -->
<g id="edge8_Node000001_Node000009" class="edge">
<title>Node1&#45;&gt;Node9</title>
<g id="a_edge8_Node000001_Node000009"><a xlink:title=" ">
<path fill="none" stroke="#63b8ff" d="M121.92,-119.53C131.51,-118.05 141.44,-116.53 151.05,-115.05"/>
<polygon fill="#63b8ff" stroke="#63b8ff" points="151.28,-118.56 160.63,-113.58 150.22,-111.64 151.28,-118.56"/>
</a>
</g>
</g>
<!-- Node11 -->
<g id="Node000011" class="node">
<title>Node11</title>
<g id="a_Node000011"><a xlink:href="group__elements.html#gad01750ac554c6bd6871a930c90e17a04" target="_top" xlink:title=" ">
<polygon fill="white" stroke="#666666" points="260,-73.5 165.25,-73.5 165.25,-46 260,-46 260,-73.5"/>
<text text-anchor="start" x="173.25" y="-61.9" font-family="SourceSans" font-size="8.00">svg::rect_element::</text>
<text text-anchor="middle" x="212.62" y="-52.15" font-family="SourceSans" font-size="8.00">finish_element</text>
</a>
</g>
</g>
<!-- Node1&#45;&gt;Node11 -->
<g id="edge10_Node000001_Node000011" class="edge">
<title>Node1&#45;&gt;Node11</title>
<g id="a_edge10_Node000001_Node000011"><a xlink:title=" ">
<path fill="none" stroke="#63b8ff" d="M80.5,-119.52C99.74,-110.05 130.68,-95.02 157.75,-82.75 160.89,-81.33 164.14,-79.88 167.43,-78.43"/>
<polygon fill="#63b8ff" stroke="#63b8ff" points="168.74,-81.68 176.51,-74.48 165.95,-75.26 168.74,-81.68"/>
</a>
</g>
</g>
<!-- Node13 -->
<g id="Node000013" class="node">
<title>Node13</title>
<g id="a_Node000013"><a xlink:href="group__elements.html#a1e0ed5e9dfe1244317a87d7e6774348b" target="_top" xlink:title=" ">
<polygon fill="white" stroke="#666666" points="260,-27.5 165.25,-27.5 165.25,0 260,0 260,-27.5"/>
<text text-anchor="start" x="173.25" y="-15.9" font-family="SourceSans" font-size="8.00">svg::rect_element::</text>
<text text-anchor="middle" x="212.62" y="-6.15" font-family="SourceSans" font-size="8.00">start_element</text>
</a>
</g>
</g>
<!-- Node1&#45;&gt;Node13 -->
<g id="edge12_Node000001_Node000013" class="edge">
<title>Node1&#45;&gt;Node13</title>
<g id="a_edge12_Node000001_Node000013"><a xlink:title=" ">
<path fill="none" stroke="#63b8ff" d="M69.45,-119.52C84.61,-101.54 120.42,-61.43 157.75,-36.75 159.6,-35.53 161.52,-34.35 163.49,-33.22"/>
<polygon fill="#63b8ff" stroke="#63b8ff" points="165.05,-36.35 172.28,-28.61 161.8,-30.15 165.05,-36.35"/>
</a>
</g>
</g>
<!-- Node3 -->
<g id="Node000003" class="node">
<title>Node3</title>
<g id="a_Node000003"><a xlink:href="namespacesvg.html#a48ac748e89e22789d1772326a98dd7b6" target="_top" xlink:title=" ">
<polygon fill="white" stroke="#666666" points="407.62,-252.62 314.38,-252.62 314.38,-234.88 407.62,-234.88 407.62,-252.62"/>
<text text-anchor="middle" x="361" y="-241.03" font-family="SourceSans" font-size="8.00">svg::string_replace</text>
</a>
</g>
</g>
<!-- Node2&#45;&gt;Node3 -->
<g id="edge2_Node000002_Node000003" class="edge">
<title>Node2&#45;&gt;Node3</title>
<g id="a_edge2_Node000002_Node000003"><a xlink:title=" ">
<path fill="none" stroke="#63b8ff" d="M260.34,-243.75C273.74,-243.75 288.51,-243.75 302.48,-243.75"/>
<polygon fill="#63b8ff" stroke="#63b8ff" points="302.46,-247.25 312.46,-243.75 302.46,-240.25 302.46,-247.25"/>
</a>
</g>
</g>
<!-- Node5 -->
<g id="Node000005" class="node">
<title>Node5</title>
<g id="a_Node000005"><a xlink:href="group__elements.html#a99ff90a016db190ee8bb5ee8c045e329" target="_top" xlink:title=" ">
<polygon fill="white" stroke="#666666" points="416.25,-214.62 305.75,-214.62 305.75,-196.88 416.25,-196.88 416.25,-214.62"/>
<text text-anchor="middle" x="361" y="-203.03" font-family="SourceSans" font-size="8.00">svg::element_base::str</text>
</a>
</g>
</g>
<!-- Node4&#45;&gt;Node5 -->
<g id="edge4_Node000004_Node000005" class="edge">
<title>Node4&#45;&gt;Node5</title>
<g id="a_edge4_Node000004_Node000005"><a xlink:title=" ">
<path fill="none" stroke="#63b8ff" d="M267.71,-200.71C276.32,-201.18 285.31,-201.67 294.15,-202.15"/>
<polygon fill="#63b8ff" stroke="#63b8ff" points="293.96,-205.65 304.13,-202.7 294.34,-198.66 293.96,-205.65"/>
</a>
</g>
</g>
<!-- Node7 -->
<g id="Node000007" class="node">
<title>Node7</title>
<g id="a_Node000007"><a xlink:href="namespacesvg_1_1constants.html#a3972655f1dfdc090ec2592d1fb37e87c" target="_top" xlink:title=" ">
<polygon fill="white" stroke="#666666" points="414.38,-178.62 307.62,-178.62 307.62,-160.88 414.38,-160.88 414.38,-178.62"/>
<text text-anchor="middle" x="361" y="-167.03" font-family="SourceSans" font-size="8.00">svg::constants::quote</text>
</a>
</g>
</g>
<!-- Node6&#45;&gt;Node7 -->
<g id="edge6_Node000006_Node000007" class="edge">
<title>Node6&#45;&gt;Node7</title>
<g id="a_edge6_Node000006_Node000007"><a xlink:title=" ">
<path fill="none" stroke="#63b8ff" d="M262.77,-157.79C273.38,-159.1 284.73,-160.49 295.81,-161.86"/>
<polygon fill="#63b8ff" stroke="#63b8ff" points="295.36,-165.33 305.71,-163.07 296.22,-158.38 295.36,-165.33"/>
</a>
</g>
</g>
<!-- Node8 -->
<g id="Node000008" class="node">
<title>Node8</title>
<g id="a_Node000008"><a xlink:href="namespacesvg_1_1constants.html#ac460bc8db60d85c3ae1cf8b1a903405e" target="_top" xlink:title="Formatting character constants.">
<polygon fill="white" stroke="#666666" points="414.75,-142.62 307.25,-142.62 307.25,-124.88 414.75,-124.88 414.75,-142.62"/>
<text text-anchor="middle" x="361" y="-131.03" font-family="SourceSans" font-size="8.00">svg::constants::space</text>
</a>
</g>
</g>
<!-- Node6&#45;&gt;Node8 -->
<g id="edge7_Node000006_Node000008" class="edge">
<title>Node6&#45;&gt;Node8</title>
<g id="a_edge7_Node000006_Node000008"><a xlink:title=" ">
<path fill="none" stroke="#63b8ff" d="M262.77,-145.71C273.31,-144.41 284.6,-143.02 295.62,-141.67"/>
<polygon fill="#63b8ff" stroke="#63b8ff" points="295.96,-145.15 305.46,-140.46 295.11,-138.2 295.96,-145.15"/>
</a>
</g>
</g>
<!-- Node10 -->
<g id="Node000010" class="node">
<title>Node10</title>
<g id="a_Node000010"><a xlink:href="namespacesvg.html#a36b1c48ad4601b205790e3772ad0a7b6" target="_top" xlink:title=" ">
<polygon fill="white" stroke="#666666" points="396.75,-106.62 325.25,-106.62 325.25,-88.88 396.75,-88.88 396.75,-106.62"/>
<text text-anchor="middle" x="361" y="-95.03" font-family="SourceSans" font-size="8.00">svg::to_string</text>
</a>
</g>
</g>
<!-- Node9&#45;&gt;Node10 -->
<g id="edge9_Node000009_Node000010" class="edge">
<title>Node9&#45;&gt;Node10</title>
<g id="a_edge9_Node000009_Node000010"><a xlink:title=" ">
<path fill="none" stroke="#63b8ff" d="M262.77,-103.06C279.21,-102.17 297.48,-101.17 313.69,-100.28"/>
<polygon fill="#63b8ff" stroke="#63b8ff" points="313.78,-103.78 323.57,-99.74 313.4,-96.79 313.78,-103.78"/>
</a>
</g>
</g>
<!-- Node12 -->
<g id="Node000012" class="node">
<title>Node12</title>
<g id="a_Node000012"><a xlink:href="namespacesvg_1_1constants.html#aa7f04c2ea699a1b1e2e790de5ac33f38" target="_top" xlink:title=" ">
<polygon fill="white" stroke="#666666" points="418.5,-68.62 303.5,-68.62 303.5,-50.88 418.5,-50.88 418.5,-68.62"/>
<text text-anchor="middle" x="361" y="-57.02" font-family="SourceSans" font-size="8.00">svg::constants::newline</text>
</a>
</g>
</g>
<!-- Node11&#45;&gt;Node12 -->
<g id="edge11_Node000011_Node000012" class="edge">
<title>Node11&#45;&gt;Node12</title>
<g id="a_edge11_Node000011_Node000012"><a xlink:title=" ">
<path fill="none" stroke="#63b8ff" d="M260.34,-59.75C270.36,-59.75 281.14,-59.75 291.78,-59.75"/>
<polygon fill="#63b8ff" stroke="#63b8ff" points="291.71,-63.25 301.71,-59.75 291.71,-56.25 291.71,-63.25"/>
</a>
</g>
</g>
</g>
</svg>
</svg>

<style type='text/css'>
<![CDATA[
[data-mouse-over-selected='false'] { opacity: 0.7; }
[data-mouse-over-selected='true']  { opacity: 1.0; }
]]>
</style>
<script type="application/ecmascript"><![CDATA[
document.addEventListener('DOMContentLoaded', (event) => {
  highlightEdges();
  highlightAdjacentNodes();
});
]]></script>
</svg>
