<?xml version="1.0" encoding="UTF-8" standalone="no"?>
<!DOCTYPE svg PUBLIC "-//W3C//DTD SVG 1.1//EN"
 "http://www.w3.org/Graphics/SVG/1.1/DTD/svg11.dtd">
<!-- Generated by graphviz version 12.1.0 (20240811.2233)
 -->
<!-- Title: svg::point_to_rect Pages: 1 -->
<svg width="505pt" height="278pt"
 viewBox="0.00 0.00 504.75 278.00" xmlns="http://www.w3.org/2000/svg" xmlns:xlink="http://www.w3.org/1999/xlink">
<g id="graph0" class="graph" transform="scale(1 1) rotate(0) translate(4 274)">
<title>svg::point_to_rect</title>
<!-- Node1 -->
<g id="Node000001" class="node">
<title>Node1</title>
<g id="a_Node000001"><a xlink:title="Rectangle at this point.">
<polygon fill="#999999" stroke="#666666" points="82.75,-173 0,-173 0,-153 82.75,-153 82.75,-173"/>
<text text-anchor="middle" x="41.38" y="-161.4" font-family="SourceSans" font-size="8.00">svg::point_to_rect</text>
</a>
</g>
</g>
<!-- Node2 -->
<g id="Node000002" class="node">
<title>Node2</title>
<g id="a_Node000002"><a xlink:href="group__elements.html#aaa5f1a136f2b5c61d647a47ec53fe31d" target="_top" xlink:title=" ">
<polygon fill="white" stroke="#666666" points="219.5,-238 118.75,-238 118.75,-206 219.5,-206 219.5,-238"/>
<text text-anchor="start" x="126.75" y="-226.4" font-family="SourceSans" font-size="8.00">svg::svg_element::add</text>
<text text-anchor="middle" x="169.12" y="-214.4" font-family="SourceSans" font-size="8.00">_element</text>
</a>
</g>
</g>
<!-- Node1&#45;&gt;Node2 -->
<g id="edge1_Node000001_Node000002" class="edge">
<title>Node1&#45;&gt;Node2</title>
<g id="a_edge1_Node000001_Node000002"><a xlink:title=" ">
<path fill="none" stroke="#63b8ff" d="M64.57,-173.41C80.7,-180.98 103.11,-191.49 122.95,-200.8"/>
<polygon fill="#63b8ff" stroke="#63b8ff" points="121.44,-203.96 131.98,-205.04 124.41,-197.62 121.44,-203.96"/>
</a>
</g>
</g>
<!-- Node4 -->
<g id="Node000004" class="node">
<title>Node4</title>
<g id="a_Node000004"><a xlink:href="namespacesvg.html#ab020874bc83c9a9dcbaadf71b74efeac" target="_top" xlink:title=" ">
<polygon fill="white" stroke="#666666" points="205.25,-151 133,-151 133,-131 205.25,-131 205.25,-151"/>
<text text-anchor="middle" x="169.12" y="-139.4" font-family="SourceSans" font-size="8.00">svg::make_rect</text>
</a>
</g>
</g>
<!-- Node1&#45;&gt;Node4 -->
<g id="edge3_Node000001_Node000004" class="edge">
<title>Node1&#45;&gt;Node4</title>
<g id="a_edge3_Node000001_Node000004"><a xlink:title=" ">
<path fill="none" stroke="#63b8ff" d="M83.2,-155.86C95.39,-153.72 108.85,-151.37 121.38,-149.18"/>
<polygon fill="#63b8ff" stroke="#63b8ff" points="121.84,-152.65 131.09,-147.48 120.63,-145.76 121.84,-152.65"/>
</a>
</g>
</g>
<!-- Node3 -->
<g id="Node000003" class="node">
<title>Node3</title>
<g id="a_Node000003"><a xlink:href="group__elements.html#ad893ef9c13a15464c96d8a85c08af30f" target="_top" xlink:title=" ">
<polygon fill="white" stroke="#666666" points="356.25,-270 255.5,-270 255.5,-250 356.25,-250 356.25,-270"/>
<text text-anchor="middle" x="305.88" y="-258.4" font-family="SourceSans" font-size="8.00">svg::element_base::str</text>
</a>
</g>
</g>
<!-- Node2&#45;&gt;Node3 -->
<g id="edge2_Node000002_Node000003" class="edge">
<title>Node2&#45;&gt;Node3</title>
<g id="a_edge2_Node000002_Node000003"><a xlink:title=" ">
<path fill="none" stroke="#63b8ff" d="M219.92,-236.04C232.09,-239.47 245.08,-243.14 257.15,-246.54"/>
<polygon fill="#63b8ff" stroke="#63b8ff" points="255.89,-249.82 266.47,-249.17 257.79,-243.09 255.89,-249.82"/>
</a>
</g>
</g>
<!-- Node5 -->
<g id="Node000005" class="node">
<title>Node5</title>
<g id="a_Node000005"><a xlink:href="group__elements.html#a1dd6663d882fb5dd14a47462a77f351b" target="_top" xlink:title="Either serialize immediately (as below), or create data structure that adds data to data_vec and then...">
<polygon fill="white" stroke="#666666" points="349.5,-232 262.25,-232 262.25,-200 349.5,-200 349.5,-232"/>
<text text-anchor="start" x="270.25" y="-220.4" font-family="SourceSans" font-size="8.00">svg::rect_element::</text>
<text text-anchor="middle" x="305.88" y="-208.4" font-family="SourceSans" font-size="8.00">add_data</text>
</a>
</g>
</g>
<!-- Node4&#45;&gt;Node5 -->
<g id="edge4_Node000004_Node000005" class="edge">
<title>Node4&#45;&gt;Node5</title>
<g id="a_edge4_Node000004_Node000005"><a xlink:title=" ">
<path fill="none" stroke="#63b8ff" d="M187.28,-151.46C204.4,-161.8 231.52,-177.92 255.5,-191 257.54,-192.11 259.64,-193.24 261.77,-194.37"/>
<polygon fill="#63b8ff" stroke="#63b8ff" points="259.97,-197.38 270.45,-198.9 263.21,-191.17 259.97,-197.38"/>
</a>
</g>
</g>
<!-- Node7 -->
<g id="Node000007" class="node">
<title>Node7</title>
<g id="a_Node000007"><a xlink:href="group__elements.html#a1b22cfab9437b40c8b877ffe5472ff02" target="_top" xlink:title=" ">
<polygon fill="white" stroke="#666666" points="351.38,-182 260.38,-182 260.38,-150 351.38,-150 351.38,-182"/>
<text text-anchor="start" x="268.38" y="-170.4" font-family="SourceSans" font-size="8.00">svg::element_base::</text>
<text text-anchor="middle" x="305.88" y="-158.4" font-family="SourceSans" font-size="8.00">add_filter</text>
</a>
</g>
</g>
<!-- Node4&#45;&gt;Node7 -->
<g id="edge6_Node000004_Node000007" class="edge">
<title>Node4&#45;&gt;Node7</title>
<g id="a_edge6_Node000004_Node000007"><a xlink:title=" ">
<path fill="none" stroke="#63b8ff" d="M205.53,-147.57C218.83,-150.04 234.29,-152.9 248.99,-155.63"/>
<polygon fill="#63b8ff" stroke="#63b8ff" points="248.09,-159.02 258.56,-157.41 249.36,-152.14 248.09,-159.02"/>
</a>
</g>
</g>
<!-- Node10 -->
<g id="Node000010" class="node">
<title>Node10</title>
<g id="a_Node000010"><a xlink:href="group__elements.html#a238b38ca99a1cf6c2baf80c8e4338d99" target="_top" xlink:title=" ">
<polygon fill="white" stroke="#666666" points="351.38,-132 260.38,-132 260.38,-100 351.38,-100 351.38,-132"/>
<text text-anchor="start" x="268.38" y="-120.4" font-family="SourceSans" font-size="8.00">svg::element_base::</text>
<text text-anchor="middle" x="305.88" y="-108.4" font-family="SourceSans" font-size="8.00">add_style</text>
</a>
</g>
</g>
<!-- Node4&#45;&gt;Node10 -->
<g id="edge9_Node000004_Node000010" class="edge">
<title>Node4&#45;&gt;Node10</title>
<g id="a_edge9_Node000004_Node000010"><a xlink:title=" ">
<path fill="none" stroke="#63b8ff" d="M205.53,-134.43C218.83,-131.96 234.29,-129.1 248.99,-126.37"/>
<polygon fill="#63b8ff" stroke="#63b8ff" points="249.36,-129.86 258.56,-124.59 248.09,-122.98 249.36,-129.86"/>
</a>
</g>
</g>
<!-- Node12 -->
<g id="Node000012" class="node">
<title>Node12</title>
<g id="a_Node000012"><a xlink:href="group__elements.html#gad01750ac554c6bd6871a930c90e17a04" target="_top" xlink:title=" ">
<polygon fill="white" stroke="#666666" points="349.5,-82 262.25,-82 262.25,-50 349.5,-50 349.5,-82"/>
<text text-anchor="start" x="270.25" y="-70.4" font-family="SourceSans" font-size="8.00">svg::rect_element::</text>
<text text-anchor="middle" x="305.88" y="-58.4" font-family="SourceSans" font-size="8.00">finish_element</text>
</a>
</g>
</g>
<!-- Node4&#45;&gt;Node12 -->
<g id="edge11_Node000004_Node000012" class="edge">
<title>Node4&#45;&gt;Node12</title>
<g id="a_edge11_Node000004_Node000012"><a xlink:title=" ">
<path fill="none" stroke="#63b8ff" d="M187.28,-130.54C204.4,-120.2 231.52,-104.08 255.5,-91 257.54,-89.89 259.64,-88.76 261.77,-87.63"/>
<polygon fill="#63b8ff" stroke="#63b8ff" points="263.21,-90.83 270.45,-83.1 259.97,-84.62 263.21,-90.83"/>
</a>
</g>
</g>
<!-- Node14 -->
<g id="Node000014" class="node">
<title>Node14</title>
<g id="a_Node000014"><a xlink:href="group__elements.html#a1e0ed5e9dfe1244317a87d7e6774348b" target="_top" xlink:title=" ">
<polygon fill="white" stroke="#666666" points="349.5,-32 262.25,-32 262.25,0 349.5,0 349.5,-32"/>
<text text-anchor="start" x="270.25" y="-20.4" font-family="SourceSans" font-size="8.00">svg::rect_element::</text>
<text text-anchor="middle" x="305.88" y="-8.4" font-family="SourceSans" font-size="8.00">start_element</text>
</a>
</g>
</g>
<!-- Node4&#45;&gt;Node14 -->
<g id="edge13_Node000004_Node000014" class="edge">
<title>Node4&#45;&gt;Node14</title>
<g id="a_edge13_Node000004_Node000014"><a xlink:title=" ">
<path fill="none" stroke="#63b8ff" d="M176.8,-130.76C189.93,-111.24 220.87,-68.23 255.5,-41 256.6,-40.13 257.74,-39.28 258.91,-38.45"/>
<polygon fill="#63b8ff" stroke="#63b8ff" points="260.47,-41.61 266.99,-33.26 256.69,-35.72 260.47,-41.61"/>
</a>
</g>
</g>
<!-- Node6 -->
<g id="Node000006" class="node">
<title>Node6</title>
<g id="a_Node000006"><a xlink:href="namespacesvg.html#a48ac748e89e22789d1772326a98dd7b6" target="_top" xlink:title=" ">
<polygon fill="white" stroke="#666666" points="488.12,-234 400.88,-234 400.88,-214 488.12,-214 488.12,-234"/>
<text text-anchor="middle" x="444.5" y="-222.4" font-family="SourceSans" font-size="8.00">svg::string_replace</text>
</a>
</g>
</g>
<!-- Node5&#45;&gt;Node6 -->
<g id="edge5_Node000005_Node000006" class="edge">
<title>Node5&#45;&gt;Node6</title>
<g id="a_edge5_Node000005_Node000006"><a xlink:title=" ">
<path fill="none" stroke="#63b8ff" d="M349.73,-218.51C362.32,-219.25 376.25,-220.06 389.45,-220.83"/>
<polygon fill="#63b8ff" stroke="#63b8ff" points="389.1,-224.32 399.29,-221.41 389.51,-217.33 389.1,-224.32"/>
</a>
</g>
</g>
<!-- Node8 -->
<g id="Node000008" class="node">
<title>Node8</title>
<g id="a_Node000008"><a xlink:href="namespacesvg_1_1constants.html#a3972655f1dfdc090ec2592d1fb37e87c" target="_top" xlink:title=" ">
<polygon fill="white" stroke="#666666" points="493,-196 396,-196 396,-176 493,-176 493,-196"/>
<text text-anchor="middle" x="444.5" y="-184.4" font-family="SourceSans" font-size="8.00">svg::constants::quote</text>
</a>
</g>
</g>
<!-- Node7&#45;&gt;Node8 -->
<g id="edge7_Node000007_Node000008" class="edge">
<title>Node7&#45;&gt;Node8</title>
<g id="a_edge7_Node000007_Node000008"><a xlink:title=" ">
<path fill="none" stroke="#63b8ff" d="M351.61,-172.55C362.12,-174.09 373.48,-175.75 384.52,-177.37"/>
<polygon fill="#63b8ff" stroke="#63b8ff" points="383.94,-180.82 394.34,-178.8 384.96,-173.89 383.94,-180.82"/>
</a>
</g>
</g>
<!-- Node9 -->
<g id="Node000009" class="node">
<title>Node9</title>
<g id="a_Node000009"><a xlink:href="namespacesvg_1_1constants.html#ac460bc8db60d85c3ae1cf8b1a903405e" target="_top" xlink:title="Formatting character constants.">
<polygon fill="white" stroke="#666666" points="492.62,-158 396.38,-158 396.38,-138 492.62,-138 492.62,-158"/>
<text text-anchor="middle" x="444.5" y="-146.4" font-family="SourceSans" font-size="8.00">svg::constants::space</text>
</a>
</g>
</g>
<!-- Node7&#45;&gt;Node9 -->
<g id="edge8_Node000007_Node000009" class="edge">
<title>Node7&#45;&gt;Node9</title>
<g id="a_edge8_Node000007_Node000009"><a xlink:title=" ">
<path fill="none" stroke="#63b8ff" d="M351.61,-160.11C362.35,-158.69 373.98,-157.16 385.23,-155.68"/>
<polygon fill="#63b8ff" stroke="#63b8ff" points="385.36,-159.19 394.81,-154.41 384.44,-152.25 385.36,-159.19"/>
</a>
</g>
</g>
<!-- Node11 -->
<g id="Node000011" class="node">
<title>Node11</title>
<g id="a_Node000011"><a xlink:href="namespacesvg.html#a36b1c48ad4601b205790e3772ad0a7b6" target="_top" xlink:title=" ">
<polygon fill="white" stroke="#666666" points="478,-120 411,-120 411,-100 478,-100 478,-120"/>
<text text-anchor="middle" x="444.5" y="-108.4" font-family="SourceSans" font-size="8.00">svg::to_string</text>
</a>
</g>
</g>
<!-- Node10&#45;&gt;Node11 -->
<g id="edge10_Node000010_Node000011" class="edge">
<title>Node10&#45;&gt;Node11</title>
<g id="a_edge10_Node000010_Node000011"><a xlink:title=" ">
<path fill="none" stroke="#63b8ff" d="M351.61,-114.04C366.99,-113.36 384.19,-112.6 399.51,-111.93"/>
<polygon fill="#63b8ff" stroke="#63b8ff" points="399.45,-115.44 409.28,-111.5 399.14,-108.44 399.45,-115.44"/>
</a>
</g>
</g>
<!-- Node13 -->
<g id="Node000013" class="node">
<title>Node13</title>
<g id="a_Node000013"><a xlink:href="namespacesvg_1_1constants.html#aa7f04c2ea699a1b1e2e790de5ac33f38" target="_top" xlink:title=" ">
<polygon fill="white" stroke="#666666" points="496.75,-76 392.25,-76 392.25,-56 496.75,-56 496.75,-76"/>
<text text-anchor="middle" x="444.5" y="-64.4" font-family="SourceSans" font-size="8.00">svg::constants::newline</text>
</a>
</g>
</g>
<!-- Node12&#45;&gt;Node13 -->
<g id="edge12_Node000012_Node000013" class="edge">
<title>Node12&#45;&gt;Node13</title>
<g id="a_edge12_Node000012_Node000013"><a xlink:title=" ">
<path fill="none" stroke="#63b8ff" d="M349.73,-66C359.61,-66 370.33,-66 380.86,-66"/>
<polygon fill="#63b8ff" stroke="#63b8ff" points="380.66,-69.5 390.66,-66 380.66,-62.5 380.66,-69.5"/>
</a>
</g>
</g>
</g>
</svg>
