<?xml version="1.0" encoding="UTF-8" standalone="no"?>
<!DOCTYPE svg PUBLIC "-//W3C//DTD SVG 1.1//EN"
 "http://www.w3.org/Graphics/SVG/1.1/DTD/svg11.dtd">
<!-- Generated by graphviz version 12.1.0 (20240811.2233)
 -->
<!-- Title: svg::make_path_triangle Pages: 1 -->
<!--zoomable 350 -->

<svg id="main" version="1.1" xmlns="http://www.w3.org/2000/svg" xmlns:xlink="http://www.w3.org/1999/xlink" xml:space="preserve" onload="init(evt)">

<style type="text/css"><![CDATA[
.node, .edge {opacity: 0.7;}
.node.selected, .edge.selected {opacity: 1;}
.edge:hover path { stroke: red; }
.edge:hover polygon { stroke: red; fill: red; }
]]></style>

<defs>
  <circle id="rim" cx="0" cy="0" r="7"/>
  <circle id="rim2" cx="0" cy="0" r="3.5"/>
  <g id="zoomPlus">
    <use xlink:href="#rim" fill="#404040"><set attributeName="fill" to="#808080" begin="zoomplus.mouseover" end="zoomplus.mouseout"/></use>
    <path d="M-4,0h8M0,-4v8" fill="none" stroke="white" stroke-width="1.5" pointer-events="none"/>
  </g>
  <g id="zoomMin">
    <use xlink:href="#rim" fill="#404040"><set attributeName="fill" to="#808080" begin="zoomminus.mouseover" end="zoomminus.mouseout"/></use>
    <path d="M-4,0h8" fill="none" stroke="white" stroke-width="1.5" pointer-events="none"/>
  </g>
  <g id="arrowUp" transform="translate(30 24)">
    <use xlink:href="#rim"/>
    <path pointer-events="none" fill="none" stroke="white" stroke-width="1.5" d="M0,-3.0v7 M-2.5,-0.5L0,-3.0L2.5,-0.5"/>
  </g>
  <g id="arrowRight" transform="rotate(90) translate(36 -43)">
    <use xlink:href="#rim"/>
    <path pointer-events="none" fill="none" stroke="white" stroke-width="1.5" d="M0,-3.0v7 M-2.5,-0.5L0,-3.0L2.5,-0.5"/>
  </g>
  <g id="arrowDown" transform="rotate(180) translate(-30 -48)">
    <use xlink:href="#rim"/>
    <path pointer-events="none" fill="none" stroke="white" stroke-width="1.5" d="M0,-3.0v7 M-2.5,-0.5L0,-3.0L2.5,-0.5"/>
  </g>
  <g id="arrowLeft" transform="rotate(270) translate(-36 17)">
    <use xlink:href="#rim"/>
    <path pointer-events="none" fill="none" stroke="white" stroke-width="1.5" d="M0,-3.0v7 M-2.5,-0.5L0,-3.0L2.5,-0.5"/>
  </g>
  <g id="resetDef">
    <use xlink:href="#rim2" fill="#404040"><set attributeName="fill" to="#808080" begin="reset.mouseover" end="reset.mouseout"/></use>
  </g>
</defs>
<script type="application/ecmascript">
var viewWidth = 579;
var viewHeight = 350;
var sectionId = 'dynsection-40';
</script>
<script type="application/ecmascript" xlink:href="svg.min.js"/>
<svg id="graph" class="graph">
<g id="viewport">
<title>svg::make_path_triangle</title>
<!-- Node1 -->
<g id="Node000001" class="node">
<title>Node1</title>
<g id="a_Node000001"><a xlink:title="Center a triangle at this point.">
<polygon fill="#999999" stroke="#666666" points="115.75,-165.75 0,-165.75 0,-148 115.75,-148 115.75,-165.75"/>
<text text-anchor="middle" x="57.88" y="-154.15" font-family="SourceSans" font-size="8.00">svg::make_path_triangle</text>
</a>
</g>
</g>
<!-- Node2 -->
<g id="Node000002" class="node">
<title>Node2</title>
<g id="a_Node000002"><a xlink:href="group__elements.html#a807f3c30f2ace338ad10aaf230b47665" target="_top" xlink:title="Either serialize immediately (as below), or create data structure that adds data to data_vec and then...">
<polygon fill="white" stroke="#666666" points="261.5,-341.62 163,-341.62 163,-314.12 261.5,-314.12 261.5,-341.62"/>
<text text-anchor="start" x="171" y="-330.02" font-family="SourceSans" font-size="8.00">svg::path_element::</text>
<text text-anchor="middle" x="212.25" y="-320.27" font-family="SourceSans" font-size="8.00">add_data</text>
</a>
</g>
</g>
<!-- Node1&#45;&gt;Node2 -->
<g id="edge1_Node000001_Node000002" class="edge">
<title>Node1&#45;&gt;Node2</title>
<g id="a_edge1_Node000001_Node000002"><a xlink:title=" ">
<path fill="none" stroke="#63b8ff" d="M63.01,-166.21C74.16,-190.52 107.08,-256.69 151.75,-296.88 156.35,-301.01 161.6,-304.77 167.04,-308.12"/>
<polygon fill="#63b8ff" stroke="#63b8ff" points="165.18,-311.09 175.61,-312.98 168.63,-305 165.18,-311.09"/>
</a>
</g>
</g>
<!-- Node4 -->
<g id="Node000004" class="node">
<title>Node4</title>
<g id="a_Node000004"><a xlink:href="group__elements.html#a238b38ca99a1cf6c2baf80c8e4338d99" target="_top" xlink:title=" ">
<polygon fill="white" stroke="#666666" points="262.25,-287.62 162.25,-287.62 162.25,-260.12 262.25,-260.12 262.25,-287.62"/>
<text text-anchor="start" x="170.25" y="-276.02" font-family="SourceSans" font-size="8.00">svg::element_base::</text>
<text text-anchor="middle" x="212.25" y="-266.27" font-family="SourceSans" font-size="8.00">add_style</text>
</a>
</g>
</g>
<!-- Node1&#45;&gt;Node4 -->
<g id="edge3_Node000001_Node000004" class="edge">
<title>Node1&#45;&gt;Node4</title>
<g id="a_edge3_Node000001_Node000004"><a xlink:title=" ">
<path fill="none" stroke="#63b8ff" d="M66.47,-166.11C81.33,-183.72 115.93,-222.48 151.75,-246.88 155.71,-249.57 159.97,-252.11 164.34,-254.47"/>
<polygon fill="#63b8ff" stroke="#63b8ff" points="162.77,-257.6 173.27,-258.97 165.92,-251.34 162.77,-257.6"/>
</a>
</g>
</g>
<!-- Node6 -->
<g id="Node000006" class="node">
<title>Node6</title>
<g id="a_Node000006"><a xlink:href="group__elements.html#gaac30ae99fb1a2542688fa1ffb43cd8e1" target="_top" xlink:title=" ">
<polygon fill="white" stroke="#666666" points="261.5,-237.62 163,-237.62 163,-210.12 261.5,-210.12 261.5,-237.62"/>
<text text-anchor="start" x="171" y="-226.03" font-family="SourceSans" font-size="8.00">svg::path_element::</text>
<text text-anchor="middle" x="212.25" y="-216.28" font-family="SourceSans" font-size="8.00">finish_element</text>
</a>
</g>
</g>
<!-- Node1&#45;&gt;Node6 -->
<g id="edge5_Node000001_Node000006" class="edge">
<title>Node1&#45;&gt;Node6</title>
<g id="a_edge5_Node000001_Node000006"><a xlink:title=" ">
<path fill="none" stroke="#63b8ff" d="M77.55,-166.22C96.17,-175.42 125.68,-189.68 151.75,-200.88 155.32,-202.41 159.02,-203.95 162.77,-205.48"/>
<polygon fill="#63b8ff" stroke="#63b8ff" points="161.32,-208.67 171.9,-209.13 163.92,-202.17 161.32,-208.67"/>
</a>
</g>
</g>
<!-- Node9 -->
<g id="Node000009" class="node">
<title>Node9</title>
<g id="a_Node000009"><a xlink:href="namespacesvg.html#ab44508c4aeca591141ebec50145b75cd" target="_top" xlink:title="Angle in degrees.">
<polygon fill="white" stroke="#666666" points="267.88,-191.62 156.62,-191.62 156.62,-164.12 267.88,-164.12 267.88,-191.62"/>
<text text-anchor="start" x="164.62" y="-180.03" font-family="SourceSans" font-size="8.00">svg::get_circumference</text>
<text text-anchor="middle" x="212.25" y="-170.28" font-family="SourceSans" font-size="8.00">_point_d</text>
</a>
</g>
</g>
<!-- Node1&#45;&gt;Node9 -->
<g id="edge9_Node000001_Node000009" class="edge">
<title>Node1&#45;&gt;Node9</title>
<g id="a_edge9_Node000001_Node000009"><a xlink:title=" ">
<path fill="none" stroke="#63b8ff" d="M116.05,-164.75C125.52,-166.06 135.4,-167.42 145.07,-168.75"/>
<polygon fill="#63b8ff" stroke="#63b8ff" points="144.4,-172.19 154.78,-170.09 145.36,-165.26 144.4,-172.19"/>
</a>
</g>
</g>
<!-- Node12 -->
<g id="Node000012" class="node">
<title>Node12</title>
<g id="a_Node000012"><a xlink:href="namespacesvg_1_1constants.html#ae42b583ceed2552c466993683f819ef2" target="_top" xlink:title=" ">
<polygon fill="white" stroke="#666666" points="269,-145.75 155.5,-145.75 155.5,-128 269,-128 269,-145.75"/>
<text text-anchor="middle" x="212.25" y="-134.15" font-family="SourceSans" font-size="8.00">svg::constants::hyphen</text>
</a>
</g>
</g>
<!-- Node1&#45;&gt;Node12 -->
<g id="edge12_Node000001_Node000012" class="edge">
<title>Node1&#45;&gt;Node12</title>
<g id="a_edge12_Node000001_Node000012"><a xlink:title=" ">
<path fill="none" stroke="#63b8ff" d="M116.05,-149.37C125.11,-148.18 134.56,-146.94 143.84,-145.72"/>
<polygon fill="#63b8ff" stroke="#63b8ff" points="144.06,-149.22 153.52,-144.45 143.15,-142.28 144.06,-149.22"/>
</a>
</g>
</g>
<!-- Node13 -->
<g id="Node000013" class="node">
<title>Node13</title>
<g id="a_Node000013"><a xlink:href="namespacesvg.html#a2c65de7707b8b7b1bca959a3a2bbba91" target="_top" xlink:title="Make single path segment.">
<polygon fill="white" stroke="#666666" points="263.75,-109.62 160.75,-109.62 160.75,-82.12 263.75,-82.12 263.75,-109.62"/>
<text text-anchor="start" x="168.75" y="-98.03" font-family="SourceSans" font-size="8.00">svg::make_path_data</text>
<text text-anchor="middle" x="212.25" y="-88.28" font-family="SourceSans" font-size="8.00">_from_points</text>
</a>
</g>
</g>
<!-- Node1&#45;&gt;Node13 -->
<g id="edge13_Node000001_Node000013" class="edge">
<title>Node1&#45;&gt;Node13</title>
<g id="a_edge13_Node000001_Node000013"><a xlink:title=" ">
<path fill="none" stroke="#63b8ff" d="M81.35,-147.54C100.13,-139.77 127.63,-128.47 151.75,-118.88 155.58,-117.35 159.55,-115.79 163.54,-114.22"/>
<polygon fill="#63b8ff" stroke="#63b8ff" points="164.61,-117.56 172.66,-110.67 162.07,-111.04 164.61,-117.56"/>
</a>
</g>
</g>
<!-- Node15 -->
<g id="Node000015" class="node">
<title>Node15</title>
<g id="a_Node000015"><a xlink:href="group__elements.html#a6dbca7cef2cbc0c10aa44c44ae20b36e" target="_top" xlink:title=" ">
<polygon fill="white" stroke="#666666" points="261.5,-63.62 163,-63.62 163,-36.12 261.5,-36.12 261.5,-63.62"/>
<text text-anchor="start" x="171" y="-52.02" font-family="SourceSans" font-size="8.00">svg::path_element::</text>
<text text-anchor="middle" x="212.25" y="-42.27" font-family="SourceSans" font-size="8.00">start_element</text>
</a>
</g>
</g>
<!-- Node1&#45;&gt;Node15 -->
<g id="edge15_Node000001_Node000015" class="edge">
<title>Node1&#45;&gt;Node15</title>
<g id="a_edge15_Node000001_Node000015"><a xlink:title=" ">
<path fill="none" stroke="#63b8ff" d="M66.96,-147.59C82.1,-130.69 116.39,-94.65 151.75,-72.88 153.9,-71.55 156.13,-70.29 158.42,-69.07"/>
<polygon fill="#63b8ff" stroke="#63b8ff" points="159.87,-72.26 167.35,-64.76 156.82,-65.95 159.87,-72.26"/>
</a>
</g>
</g>
<!-- Node17 -->
<g id="Node000017" class="node">
<title>Node17</title>
<g id="a_Node000017"><a xlink:href="namespacesvg.html#a46164d75fd5109e4ed8879abbacd5c11" target="_top" xlink:title="Zero degrees is top, going clockwise (cw).">
<polygon fill="white" stroke="#666666" points="272.75,-17.75 151.75,-17.75 151.75,0 272.75,0 272.75,-17.75"/>
<text text-anchor="middle" x="212.25" y="-6.15" font-family="SourceSans" font-size="8.00">svg::zero_angle_north_cw</text>
</a>
</g>
</g>
<!-- Node1&#45;&gt;Node17 -->
<g id="edge18_Node000001_Node000017" class="edge">
<title>Node1&#45;&gt;Node17</title>
<g id="a_edge18_Node000001_Node000017"><a xlink:title=" ">
<path fill="none" stroke="#63b8ff" d="M62.81,-147.75C73.47,-124.06 105.32,-60.17 151.75,-26.88 153.67,-25.5 155.69,-24.23 157.79,-23.05"/>
<polygon fill="#63b8ff" stroke="#63b8ff" points="159.12,-26.3 166.67,-18.86 156.13,-19.96 159.12,-26.3"/>
</a>
</g>
</g>
<!-- Node3 -->
<g id="Node000003" class="node">
<title>Node3</title>
<g id="a_Node000003"><a xlink:href="namespacesvg.html#a48ac748e89e22789d1772326a98dd7b6" target="_top" xlink:title=" ">
<polygon fill="white" stroke="#666666" points="411,-340.75 317.75,-340.75 317.75,-323 411,-323 411,-340.75"/>
<text text-anchor="middle" x="364.38" y="-329.15" font-family="SourceSans" font-size="8.00">svg::string_replace</text>
</a>
</g>
</g>
<!-- Node2&#45;&gt;Node3 -->
<g id="edge2_Node000002_Node000003" class="edge">
<title>Node2&#45;&gt;Node3</title>
<g id="a_edge2_Node000002_Node000003"><a xlink:title=" ">
<path fill="none" stroke="#63b8ff" d="M261.99,-329.17C276.04,-329.55 291.5,-329.96 306.03,-330.35"/>
<polygon fill="#63b8ff" stroke="#63b8ff" points="305.82,-333.84 315.91,-330.61 306.01,-326.85 305.82,-333.84"/>
</a>
</g>
</g>
<!-- Node5 -->
<g id="Node000005" class="node">
<title>Node5</title>
<g id="a_Node000005"><a xlink:href="namespacesvg.html#a36b1c48ad4601b205790e3772ad0a7b6" target="_top" xlink:title=" ">
<polygon fill="white" stroke="#666666" points="400.12,-304.75 328.62,-304.75 328.62,-287 400.12,-287 400.12,-304.75"/>
<text text-anchor="middle" x="364.38" y="-293.15" font-family="SourceSans" font-size="8.00">svg::to_string</text>
</a>
</g>
</g>
<!-- Node4&#45;&gt;Node5 -->
<g id="edge4_Node000004_Node000005" class="edge">
<title>Node4&#45;&gt;Node5</title>
<g id="a_edge4_Node000004_Node000005"><a xlink:title=" ">
<path fill="none" stroke="#63b8ff" d="M262.41,-281.08C280.08,-283.67 299.95,-286.58 317.35,-289.13"/>
<polygon fill="#63b8ff" stroke="#63b8ff" points="316.48,-292.54 326.88,-290.53 317.49,-285.61 316.48,-292.54"/>
</a>
</g>
</g>
<!-- Node7 -->
<g id="Node000007" class="node">
<title>Node7</title>
<g id="a_Node000007"><a xlink:href="group__elements.html#ga503ee2895588a6c684e2b1614cf4e73d" target="_top" xlink:title=" ">
<polygon fill="white" stroke="#666666" points="413.25,-268.62 315.5,-268.62 315.5,-241.12 413.25,-241.12 413.25,-268.62"/>
<text text-anchor="start" x="323.5" y="-257.02" font-family="SourceSans" font-size="8.00">svg::defs_element::</text>
<text text-anchor="middle" x="364.38" y="-247.28" font-family="SourceSans" font-size="8.00">finish_element</text>
</a>
</g>
</g>
<!-- Node6&#45;&gt;Node7 -->
<g id="edge6_Node000006_Node000007" class="edge">
<title>Node6&#45;&gt;Node7</title>
<g id="a_edge6_Node000006_Node000007"><a xlink:title=" ">
<path fill="none" stroke="#63b8ff" d="M261.99,-233.94C275.44,-236.72 290.17,-239.76 304.14,-242.64"/>
<polygon fill="#63b8ff" stroke="#63b8ff" points="303.15,-246.01 313.65,-244.61 304.57,-239.16 303.15,-246.01"/>
</a>
</g>
</g>
<!-- Node8 -->
<g id="Node000008" class="node">
<title>Node8</title>
<g id="a_Node000008"><a xlink:href="namespacesvg_1_1constants.html#aa7f04c2ea699a1b1e2e790de5ac33f38" target="_top" xlink:title=" ">
<polygon fill="white" stroke="#666666" points="571,-221.75 456,-221.75 456,-204 571,-204 571,-221.75"/>
<text text-anchor="middle" x="513.5" y="-210.15" font-family="SourceSans" font-size="8.00">svg::constants::newline</text>
</a>
</g>
</g>
<!-- Node6&#45;&gt;Node8 -->
<g id="edge8_Node000006_Node000008" class="edge">
<title>Node6&#45;&gt;Node8</title>
<g id="a_edge8_Node000006_Node000008"><a xlink:title=" ">
<path fill="none" stroke="#63b8ff" d="M262,-222.08C311.58,-220.26 388.82,-217.42 444.43,-215.38"/>
<polygon fill="#63b8ff" stroke="#63b8ff" points="444.22,-218.89 454.08,-215.02 443.96,-211.89 444.22,-218.89"/>
</a>
</g>
</g>
<!-- Node7&#45;&gt;Node8 -->
<g id="edge7_Node000007_Node000008" class="edge">
<title>Node7&#45;&gt;Node8</title>
<g id="a_edge7_Node000007_Node000008"><a xlink:title=" ">
<path fill="none" stroke="#63b8ff" d="M413.55,-241.12C431.42,-236.02 451.58,-230.27 469.01,-225.29"/>
<polygon fill="#63b8ff" stroke="#63b8ff" points="469.91,-228.67 478.56,-222.56 467.99,-221.94 469.91,-228.67"/>
</a>
</g>
</g>
<!-- Node10 -->
<g id="Node000010" class="node">
<title>Node10</title>
<g id="a_Node000010"><a xlink:href="namespacesvg.html#aef05ac63d88a6102981d3faf37275297" target="_top" xlink:title="Angle in radians.">
<polygon fill="white" stroke="#666666" points="420,-184.62 308.75,-184.62 308.75,-157.12 420,-157.12 420,-184.62"/>
<text text-anchor="start" x="316.75" y="-173.03" font-family="SourceSans" font-size="8.00">svg::get_circumference</text>
<text text-anchor="middle" x="364.38" y="-163.28" font-family="SourceSans" font-size="8.00">_point_r</text>
</a>
</g>
</g>
<!-- Node9&#45;&gt;Node10 -->
<g id="edge10_Node000009_Node000010" class="edge">
<title>Node9&#45;&gt;Node10</title>
<g id="a_edge10_Node000009_Node000010"><a xlink:title=" ">
<path fill="none" stroke="#63b8ff" d="M268.3,-175.31C277.58,-174.88 287.3,-174.42 296.84,-173.98"/>
<polygon fill="#63b8ff" stroke="#63b8ff" points="297,-177.47 306.82,-173.51 296.67,-170.48 297,-177.47"/>
</a>
</g>
</g>
<!-- Node11 -->
<g id="Node000011" class="node">
<title>Node11</title>
<g id="a_Node000011"><a xlink:href="namespacesvg_1_1constants.html#a0e0b0d9314bc47324ee39884bf8bb2fd" target="_top" xlink:title=" ">
<polygon fill="white" stroke="#666666" points="409.5,-138.75 319.25,-138.75 319.25,-121 409.5,-121 409.5,-138.75"/>
<text text-anchor="middle" x="364.38" y="-127.15" font-family="SourceSans" font-size="8.00">svg::constants::pi</text>
</a>
</g>
</g>
<!-- Node9&#45;&gt;Node11 -->
<g id="edge11_Node000009_Node000011" class="edge">
<title>Node9&#45;&gt;Node11</title>
<g id="a_edge11_Node000009_Node000011"><a xlink:title=" ">
<path fill="none" stroke="#63b8ff" d="M257.48,-163.73C278.35,-157.06 303.07,-149.16 323.38,-142.66"/>
<polygon fill="#63b8ff" stroke="#63b8ff" points="324.25,-146.06 332.71,-139.68 322.12,-139.39 324.25,-146.06"/>
</a>
</g>
</g>
<!-- Node14 -->
<g id="Node000014" class="node">
<title>Node14</title>
<g id="a_Node000014"><a xlink:href="namespacesvg_1_1constants.html#ac460bc8db60d85c3ae1cf8b1a903405e" target="_top" xlink:title="Formatting character constants.">
<polygon fill="white" stroke="#666666" points="418.12,-102.75 310.62,-102.75 310.62,-85 418.12,-85 418.12,-102.75"/>
<text text-anchor="middle" x="364.38" y="-91.15" font-family="SourceSans" font-size="8.00">svg::constants::space</text>
</a>
</g>
</g>
<!-- Node13&#45;&gt;Node14 -->
<g id="edge14_Node000013_Node000014" class="edge">
<title>Node13&#45;&gt;Node14</title>
<g id="a_edge14_Node000013_Node000014"><a xlink:title=" ">
<path fill="none" stroke="#63b8ff" d="M264.08,-95.2C275.24,-95.05 287.21,-94.89 298.83,-94.73"/>
<polygon fill="#63b8ff" stroke="#63b8ff" points="298.83,-98.24 308.78,-94.6 298.74,-91.24 298.83,-98.24"/>
</a>
</g>
</g>
<!-- Node16 -->
<g id="Node000016" class="node">
<title>Node16</title>
<g id="a_Node000016"><a xlink:href="group__elements.html#a948868c6f5dea784ded14c26cc1d2139" target="_top" xlink:title=" ">
<polygon fill="white" stroke="#666666" points="413.25,-65.62 315.5,-65.62 315.5,-38.12 413.25,-38.12 413.25,-65.62"/>
<text text-anchor="start" x="323.5" y="-54.02" font-family="SourceSans" font-size="8.00">svg::defs_element::</text>
<text text-anchor="middle" x="364.38" y="-44.27" font-family="SourceSans" font-size="8.00">start_element</text>
</a>
</g>
</g>
<!-- Node15&#45;&gt;Node16 -->
<g id="edge16_Node000015_Node000016" class="edge">
<title>Node15&#45;&gt;Node16</title>
<g id="a_edge16_Node000015_Node000016"><a xlink:title=" ">
<path fill="none" stroke="#63b8ff" d="M261.99,-50.52C275.3,-50.7 289.88,-50.9 303.72,-51.08"/>
<polygon fill="#63b8ff" stroke="#63b8ff" points="303.58,-54.58 313.62,-51.21 303.67,-47.58 303.58,-54.58"/>
</a>
</g>
</g>
<!-- Node16&#45;&gt;Node8 -->
<g id="edge17_Node000016_Node000008" class="edge">
<title>Node16&#45;&gt;Node8</title>
<g id="a_edge17_Node000016_Node000008"><a xlink:title=" ">
<path fill="none" stroke="#63b8ff" d="M404.86,-65.98C410.24,-68.8 415.47,-72.09 420,-75.88 460.07,-109.32 489.89,-164.38 503.8,-193.47"/>
<polygon fill="#63b8ff" stroke="#63b8ff" points="500.47,-194.6 507.85,-202.2 506.82,-191.66 500.47,-194.6"/>
</a>
</g>
</g>
</g>
</svg>

<g id="navigator" transform="translate(0 0)" fill="#404254">
  <rect fill="#f2f5e9" fill-opacity="0.5" stroke="#606060" stroke-width=".5" x="0" y="0" width="60" height="60"/>
  <use id="zoomplus" xlink:href="#zoomPlus" x="17" y="9" onmousedown="handleZoom(evt,'in')"/>
  <use id="zoomminus" xlink:href="#zoomMin" x="42" y="9" onmousedown="handleZoom(evt,'out')"/>
  <use id="reset" xlink:href="#resetDef" x="30" y="36" onmousedown="handleReset()"/>
   <use id="arrowup" xlink:href="#arrowUp" x="0" y="0" onmousedown="handlePan(0,-1)"/>
  <use id="arrowright" xlink:href="#arrowRight" x="0" y="0" onmousedown="handlePan(1,0)"/>
  <use id="arrowdown" xlink:href="#arrowDown" x="0" y="0" onmousedown="handlePan(0,1)"/>
  <use id="arrowleft" xlink:href="#arrowLeft" x="0" y="0" onmousedown="handlePan(-1,0)"/>
</g>
<svg viewBox="0 0 15 15" width="100%" height="30px" preserveAspectRatio="xMaxYMin meet">
 <g id="arrow_out" transform="scale(0.3 0.3)">
  <a xlink:href="namespacesvg_a08b2a593c701c76c9b07584ee56b9505_cgraph_org.svg" target="_base">
   <rect id="button" ry="5" rx="5" y="6" x="6" height="38" width="38"
        fill="#f2f5e9" fill-opacity="0.5" stroke="#606060" stroke-width="1.0"/>
   <path id="arrow"
     d="M 11.500037,31.436501 C 11.940474,20.09759 22.043105,11.32322 32.158766,21.979434 L 37.068811,17.246167 C 37.068811,17.246167 37.088388,32 37.088388,32 L 22.160133,31.978069 C 22.160133,31.978069 26.997745,27.140456 26.997745,27.140456 C 18.528582,18.264221 13.291696,25.230495 11.500037,31.436501 z"
     style="fill:#404040;"/>
  </a>
 </g>
</svg>

<style type='text/css'>
<![CDATA[
[data-mouse-over-selected='false'] { opacity: 0.7; }
[data-mouse-over-selected='true']  { opacity: 1.0; }
]]>
</style>
<script type="application/ecmascript"><![CDATA[
document.addEventListener('DOMContentLoaded', (event) => {
  highlightEdges();
  highlightAdjacentNodes();
});
]]></script>
</svg>
