<?xml version="1.0" encoding="UTF-8" standalone="no"?>
<!DOCTYPE svg PUBLIC "-//W3C//DTD SVG 1.1//EN"
 "http://www.w3.org/Graphics/SVG/1.1/DTD/svg11.dtd">
<!-- Generated by graphviz version 12.1.0 (20240811.2233)
 -->
<!-- Title: svg::next_in_color_band Pages: 1 -->
<!--zoomable 138 -->

<svg id="main" version="1.1" xmlns="http://www.w3.org/2000/svg" xmlns:xlink="http://www.w3.org/1999/xlink" xml:space="preserve" onload="init(evt)">

<style type="text/css"><![CDATA[
.node, .edge {opacity: 0.7;}
.node.selected, .edge.selected {opacity: 1;}
.edge:hover path { stroke: red; }
.edge:hover polygon { stroke: red; fill: red; }
]]></style>

<defs>
  <circle id="rim" cx="0" cy="0" r="7"/>
  <circle id="rim2" cx="0" cy="0" r="3.5"/>
  <g id="zoomPlus">
    <use xlink:href="#rim" fill="#404040"><set attributeName="fill" to="#808080" begin="zoomplus.mouseover" end="zoomplus.mouseout"/></use>
    <path d="M-4,0h8M0,-4v8" fill="none" stroke="white" stroke-width="1.5" pointer-events="none"/>
  </g>
  <g id="zoomMin">
    <use xlink:href="#rim" fill="#404040"><set attributeName="fill" to="#808080" begin="zoomminus.mouseover" end="zoomminus.mouseout"/></use>
    <path d="M-4,0h8" fill="none" stroke="white" stroke-width="1.5" pointer-events="none"/>
  </g>
  <g id="arrowUp" transform="translate(30 24)">
    <use xlink:href="#rim"/>
    <path pointer-events="none" fill="none" stroke="white" stroke-width="1.5" d="M0,-3.0v7 M-2.5,-0.5L0,-3.0L2.5,-0.5"/>
  </g>
  <g id="arrowRight" transform="rotate(90) translate(36 -43)">
    <use xlink:href="#rim"/>
    <path pointer-events="none" fill="none" stroke="white" stroke-width="1.5" d="M0,-3.0v7 M-2.5,-0.5L0,-3.0L2.5,-0.5"/>
  </g>
  <g id="arrowDown" transform="rotate(180) translate(-30 -48)">
    <use xlink:href="#rim"/>
    <path pointer-events="none" fill="none" stroke="white" stroke-width="1.5" d="M0,-3.0v7 M-2.5,-0.5L0,-3.0L2.5,-0.5"/>
  </g>
  <g id="arrowLeft" transform="rotate(270) translate(-36 17)">
    <use xlink:href="#rim"/>
    <path pointer-events="none" fill="none" stroke="white" stroke-width="1.5" d="M0,-3.0v7 M-2.5,-0.5L0,-3.0L2.5,-0.5"/>
  </g>
  <g id="resetDef">
    <use xlink:href="#rim2" fill="#404040"><set attributeName="fill" to="#808080" begin="reset.mouseover" end="reset.mouseout"/></use>
  </g>
</defs>
<script type="application/ecmascript">
var viewWidth = 718;
var viewHeight = 138;
var sectionId = 'dynsection-42';
</script>
<script type="application/ecmascript" xlink:href="svg.min.js"/>
<svg id="graph" class="graph">
<g id="viewport">
<title>svg::next_in_color_band</title>
<!-- Node1 -->
<g id="Node000001" class="node">
<title>Node1</title>
<g id="a_Node000001"><a xlink:title="Flip through color band colors. @bandn is the number of colors in the colorband.">
<polygon fill="#999999" stroke="#666666" points="113.5,-73.75 0,-73.75 0,-56 113.5,-56 113.5,-73.75"/>
<text text-anchor="middle" x="56.75" y="-62.15" font-family="SourceSans" font-size="8.00">svg::next_in_color_band</text>
</a>
</g>
</g>
<!-- Node2 -->
<g id="Node000002" class="node">
<title>Node2</title>
<g id="a_Node000002"><a xlink:href="namespacesvg.html#a79320da4cd41236a7eb7dd609b282888" target="_top" xlink:title="Forwarding function.">
<polygon fill="white" stroke="#666666" points="260.38,-129.75 153.62,-129.75 153.62,-112 260.38,-112 260.38,-129.75"/>
<text text-anchor="middle" x="207" y="-118.15" font-family="SourceSans" font-size="8.00">svg::make_color_band</text>
</a>
</g>
</g>
<!-- Node1&#45;&gt;Node2 -->
<g id="edge1_Node000001_Node000002" class="edge">
<title>Node1&#45;&gt;Node2</title>
<g id="a_edge1_Node000001_Node000002"><a xlink:title=" ">
<path fill="none" stroke="#63b8ff" d="M82.56,-74.25C106.76,-83.39 143.79,-97.38 170.98,-107.65"/>
<polygon fill="#63b8ff" stroke="#63b8ff" points="169.59,-110.86 180.18,-111.12 172.06,-104.31 169.59,-110.86"/>
</a>
</g>
</g>
<!-- Node6 -->
<g id="Node000006" class="node">
<title>Node6</title>
<g id="a_Node000006"><a xlink:href="namespacesvg.html#a80195ef46b7ed340c7a3f2a4b5eb6874" target="_top" xlink:title=" ">
<polygon fill="white" stroke="#666666" points="420.75,-92.75 300.5,-92.75 300.5,-75 420.75,-75 420.75,-92.75"/>
<text text-anchor="middle" x="360.62" y="-81.15" font-family="SourceSans" font-size="8.00">svg::make_color_band_v1</text>
</a>
</g>
</g>
<!-- Node1&#45;&gt;Node6 -->
<g id="edge8_Node000001_Node000006" class="edge">
<title>Node1&#45;&gt;Node6</title>
<g id="a_edge8_Node000001_Node000006"><a xlink:title=" ">
<path fill="none" stroke="#63b8ff" d="M113.82,-68.4C163.23,-71.51 235.43,-76.06 288.81,-79.42"/>
<polygon fill="#63b8ff" stroke="#63b8ff" points="288.53,-82.91 298.73,-80.04 288.97,-75.92 288.53,-82.91"/>
</a>
</g>
</g>
<!-- Node8 -->
<g id="Node000008" class="node">
<title>Node8</title>
<g id="a_Node000008"><a xlink:href="namespacesvg.html#a36b1c48ad4601b205790e3772ad0a7b6" target="_top" xlink:title=" ">
<polygon fill="white" stroke="#666666" points="545.88,-55.75 474.38,-55.75 474.38,-38 545.88,-38 545.88,-55.75"/>
<text text-anchor="middle" x="510.12" y="-44.15" font-family="SourceSans" font-size="8.00">svg::to_string</text>
</a>
</g>
</g>
<!-- Node1&#45;&gt;Node8 -->
<g id="edge10_Node000001_Node000008" class="edge">
<title>Node1&#45;&gt;Node8</title>
<g id="a_edge10_Node000001_Node000008"><a xlink:title=" ">
<path fill="none" stroke="#63b8ff" d="M113.55,-62.65C203.57,-59.06 379.17,-52.06 462.76,-48.72"/>
<polygon fill="#63b8ff" stroke="#63b8ff" points="462.8,-52.23 472.65,-48.33 462.52,-45.23 462.8,-52.23"/>
</a>
</g>
</g>
<!-- Node9 -->
<g id="Node000009" class="node">
<title>Node9</title>
<g id="a_Node000009"><a xlink:href="namespacesvg_1_1constants.html#aa7f04c2ea699a1b1e2e790de5ac33f38" target="_top" xlink:title=" ">
<polygon fill="white" stroke="#666666" points="264.5,-17.75 149.5,-17.75 149.5,0 264.5,0 264.5,-17.75"/>
<text text-anchor="middle" x="207" y="-6.15" font-family="SourceSans" font-size="8.00">svg::constants::newline</text>
</a>
</g>
</g>
<!-- Node1&#45;&gt;Node9 -->
<g id="edge9_Node000001_Node000009" class="edge">
<title>Node1&#45;&gt;Node9</title>
<g id="a_edge9_Node000001_Node000009"><a xlink:title=" ">
<path fill="none" stroke="#63b8ff" d="M82.56,-55.5C106.76,-46.36 143.79,-32.37 170.98,-22.1"/>
<polygon fill="#63b8ff" stroke="#63b8ff" points="172.06,-25.44 180.18,-18.63 169.59,-18.89 172.06,-25.44"/>
</a>
</g>
</g>
<!-- Node3 -->
<g id="Node000003" class="node">
<title>Node3</title>
<g id="a_Node000003"><a xlink:href="namespacesvg.html#a86299e1b709e10d8ddbe9fe4e5231dc5" target="_top" xlink:title="Set and Get working spectrum, aka default palette. NB: If colorbands are being used,...">
<polygon fill="white" stroke="#666666" points="412.12,-129.75 309.12,-129.75 309.12,-112 412.12,-112 412.12,-129.75"/>
<text text-anchor="middle" x="360.62" y="-118.15" font-family="SourceSans" font-size="8.00">svg::active_spectrum</text>
</a>
</g>
</g>
<!-- Node2&#45;&gt;Node3 -->
<g id="edge2_Node000002_Node000003" class="edge">
<title>Node2&#45;&gt;Node3</title>
<g id="a_edge2_Node000002_Node000003"><a xlink:title=" ">
<path fill="none" stroke="#63b8ff" d="M260.61,-120.88C272.4,-120.88 285.03,-120.88 297.18,-120.88"/>
<polygon fill="#63b8ff" stroke="#63b8ff" points="297.13,-124.38 307.13,-120.88 297.13,-117.38 297.13,-124.38"/>
</a>
</g>
</g>
<!-- Node2&#45;&gt;Node6 -->
<g id="edge5_Node000002_Node000006" class="edge">
<title>Node2&#45;&gt;Node6</title>
<g id="a_edge5_Node000002_Node000006"><a xlink:title=" ">
<path fill="none" stroke="#63b8ff" d="M246.26,-111.54C265.66,-106.81 289.44,-101 310.2,-95.94"/>
<polygon fill="#63b8ff" stroke="#63b8ff" points="311.02,-99.34 319.91,-93.57 309.36,-92.54 311.02,-99.34"/>
</a>
</g>
</g>
<!-- Node4 -->
<g id="Node000004" class="node">
<title>Node4</title>
<g id="a_Node000004"><a xlink:href="namespacesvg.html#a6ef86da421061b502a4cec162970c4e9" target="_top" xlink:title="Forwarding function.">
<polygon fill="white" stroke="#666666" points="558.62,-129.75 461.62,-129.75 461.62,-112 558.62,-112 558.62,-129.75"/>
<text text-anchor="middle" x="510.12" y="-118.15" font-family="SourceSans" font-size="8.00">svg::color_qf_lt_hue</text>
</a>
</g>
</g>
<!-- Node3&#45;&gt;Node4 -->
<g id="edge3_Node000003_Node000004" class="edge">
<title>Node3&#45;&gt;Node4</title>
<g id="a_edge3_Node000003_Node000004"><a xlink:title=" ">
<path fill="none" stroke="#63b8ff" d="M412.39,-120.88C424.51,-120.88 437.55,-120.88 450.01,-120.88"/>
<polygon fill="#63b8ff" stroke="#63b8ff" points="449.74,-124.38 459.74,-120.88 449.74,-117.38 449.74,-124.38"/>
</a>
</g>
</g>
<!-- Node5 -->
<g id="Node000005" class="node">
<title>Node5</title>
<g id="a_Node000005"><a xlink:href="namespacesvg.html#a804d33f9f3d2f0debdcfc4317f5b8487" target="_top" xlink:title=" ">
<polygon fill="white" stroke="#666666" points="710,-129.75 599.5,-129.75 599.5,-112 710,-112 710,-129.75"/>
<text text-anchor="middle" x="654.75" y="-118.15" font-family="SourceSans" font-size="8.00">svg::color_qf_lt_hue_v2</text>
</a>
</g>
</g>
<!-- Node4&#45;&gt;Node5 -->
<g id="edge4_Node000004_Node000005" class="edge">
<title>Node4&#45;&gt;Node5</title>
<g id="a_edge4_Node000004_Node000005"><a xlink:title=" ">
<path fill="none" stroke="#63b8ff" d="M559.01,-120.88C568.32,-120.88 578.23,-120.88 587.99,-120.88"/>
<polygon fill="#63b8ff" stroke="#63b8ff" points="587.83,-124.38 597.83,-120.88 587.83,-117.38 587.83,-124.38"/>
</a>
</g>
</g>
<!-- Node7 -->
<g id="Node000007" class="node">
<title>Node7</title>
<g id="a_Node000007"><a xlink:href="namespacesvg.html#abcad3fe27275ca32d7db21d8475f66ae" target="_top" xlink:title=" ">
<polygon fill="white" stroke="#666666" points="563.5,-92.75 456.75,-92.75 456.75,-75 563.5,-75 563.5,-92.75"/>
<text text-anchor="middle" x="510.12" y="-81.15" font-family="SourceSans" font-size="8.00">svg::combine_color_qi</text>
</a>
</g>
</g>
<!-- Node6&#45;&gt;Node7 -->
<g id="edge6_Node000006_Node000007" class="edge">
<title>Node6&#45;&gt;Node7</title>
<g id="a_edge6_Node000006_Node000007"><a xlink:title=" ">
<path fill="none" stroke="#63b8ff" d="M421.19,-83.88C429.04,-83.88 437.1,-83.88 445.02,-83.88"/>
<polygon fill="#63b8ff" stroke="#63b8ff" points="444.95,-87.38 454.95,-83.88 444.95,-80.38 444.95,-87.38"/>
</a>
</g>
</g>
<!-- Node6&#45;&gt;Node8 -->
<g id="edge7_Node000006_Node000008" class="edge">
<title>Node6&#45;&gt;Node8</title>
<g id="a_edge7_Node000006_Node000008"><a xlink:title=" ">
<path fill="none" stroke="#63b8ff" d="M398.85,-74.54C418.29,-69.66 442.26,-63.65 462.88,-58.47"/>
<polygon fill="#63b8ff" stroke="#63b8ff" points="463.63,-61.9 472.48,-56.07 461.93,-55.11 463.63,-61.9"/>
</a>
</g>
</g>
</g>
</svg>

<g id="navigator" transform="translate(0 0)" fill="#404254">
  <rect fill="#f2f5e9" fill-opacity="0.5" stroke="#606060" stroke-width=".5" x="0" y="0" width="60" height="60"/>
  <use id="zoomplus" xlink:href="#zoomPlus" x="17" y="9" onmousedown="handleZoom(evt,'in')"/>
  <use id="zoomminus" xlink:href="#zoomMin" x="42" y="9" onmousedown="handleZoom(evt,'out')"/>
  <use id="reset" xlink:href="#resetDef" x="30" y="36" onmousedown="handleReset()"/>
   <use id="arrowup" xlink:href="#arrowUp" x="0" y="0" onmousedown="handlePan(0,-1)"/>
  <use id="arrowright" xlink:href="#arrowRight" x="0" y="0" onmousedown="handlePan(1,0)"/>
  <use id="arrowdown" xlink:href="#arrowDown" x="0" y="0" onmousedown="handlePan(0,1)"/>
  <use id="arrowleft" xlink:href="#arrowLeft" x="0" y="0" onmousedown="handlePan(-1,0)"/>
</g>
<svg viewBox="0 0 15 15" width="100%" height="30px" preserveAspectRatio="xMaxYMin meet">
 <g id="arrow_out" transform="scale(0.3 0.3)">
  <a xlink:href="namespacesvg_ae25614aaac6374dd8f78d382dfaa4fd2_cgraph_org.svg" target="_base">
   <rect id="button" ry="5" rx="5" y="6" x="6" height="38" width="38"
        fill="#f2f5e9" fill-opacity="0.5" stroke="#606060" stroke-width="1.0"/>
   <path id="arrow"
     d="M 11.500037,31.436501 C 11.940474,20.09759 22.043105,11.32322 32.158766,21.979434 L 37.068811,17.246167 C 37.068811,17.246167 37.088388,32 37.088388,32 L 22.160133,31.978069 C 22.160133,31.978069 26.997745,27.140456 26.997745,27.140456 C 18.528582,18.264221 13.291696,25.230495 11.500037,31.436501 z"
     style="fill:#404040;"/>
  </a>
 </g>
</svg>

<style type='text/css'>
<![CDATA[
[data-mouse-over-selected='false'] { opacity: 0.7; }
[data-mouse-over-selected='true']  { opacity: 1.0; }
]]>
</style>
<script type="application/ecmascript"><![CDATA[
document.addEventListener('DOMContentLoaded', (event) => {
  highlightEdges();
  highlightAdjacentNodes();
});
]]></script>
</svg>
