<?xml version="1.0" encoding="UTF-8" standalone="no"?>
<!DOCTYPE svg PUBLIC "-//W3C//DTD SVG 1.1//EN"
 "http://www.w3.org/Graphics/SVG/1.1/DTD/svg11.dtd">
<!-- Generated by graphviz version 9.0.0 (20230911.1827)
 -->
<!-- Title: svg::point_to_rect_centered Pages: 1 -->
<svg width="491pt" height="190pt"
 viewBox="0.00 0.00 490.50 190.00" xmlns="http://www.w3.org/2000/svg" xmlns:xlink="http://www.w3.org/1999/xlink">

<svg id="main" version="1.1" xmlns="http://www.w3.org/2000/svg" xmlns:xlink="http://www.w3.org/1999/xlink" xml:space="preserve" onload="init(evt)">
<style type="text/css"><![CDATA[
.node, .edge {opacity: 0.7;}
.node.selected, .edge.selected {opacity: 1;}
.edge:hover path { stroke: red; }
.edge:hover polygon { stroke: red; fill: red; }
]]></style>
<script type="application/ecmascript" xlink:href="svg.min.js"/>
<svg id="graph" class="graph">
<g id="graph0" class="graph" transform="scale(1 1) rotate(0) translate(4 186)">
<title>svg::point_to_rect_centered</title>
<!-- Node1 -->
<g id="Node000001" class="node">
<title>Node1</title>
<g id="a_Node000001"><a xlink:title="Center a rectangle at this point.">
<polygon fill="#999999" stroke="#666666" points="82.75,-107 0,-107 0,-75 82.75,-75 82.75,-107"/>
<text text-anchor="start" x="8" y="-95.4" font-family="SourceSans" font-size="8.00">svg::point_to_rect</text>
<text text-anchor="middle" x="41.38" y="-83.4" font-family="SourceSans" font-size="8.00">_centered</text>
</a>
</g>
</g>
<!-- Node2 -->
<g id="Node000002" class="node">
<title>Node2</title>
<g id="a_Node000002"><a xlink:href="namespacesvg.html#adeadf637c3003a03e811e42432f6e58b" target="_top" xlink:title="Point to rectangle.">
<polygon fill="white" stroke="#666666" points="215,-101 118.75,-101 118.75,-81 215,-81 215,-101"/>
<text text-anchor="middle" x="166.88" y="-89.4" font-family="SourceSans" font-size="8.00">svg::point_2d_to_rect</text>
</a>
</g>
</g>
<!-- Node1&#45;&gt;Node2 -->
<g id="edge1_Node000001_Node000002" class="edge">
<title>Node1&#45;&gt;Node2</title>
<g id="a_edge1_Node000001_Node000002"><a xlink:title=" ">
<path fill="none" stroke="#63b8ff" d="M83.16,-91C90.8,-91 98.92,-91 106.98,-91"/>
<polygon fill="#63b8ff" stroke="#63b8ff" points="106.77,-94.5 116.77,-91 106.77,-87.5 106.77,-94.5"/>
</a>
</g>
</g>
<!-- Node3 -->
<g id="Node000003" class="node">
<title>Node3</title>
<g id="a_Node000003"><a xlink:href="group__elements.html#a1dd6663d882fb5dd14a47462a77f351b" target="_top" xlink:title="Either serialize immediately (as below), or create data structure that adds data to data_vec and then...">
<polygon fill="white" stroke="#666666" points="340.12,-182 252.88,-182 252.88,-150 340.12,-150 340.12,-182"/>
<text text-anchor="start" x="260.88" y="-170.4" font-family="SourceSans" font-size="8.00">svg::rect_element::</text>
<text text-anchor="middle" x="296.5" y="-158.4" font-family="SourceSans" font-size="8.00">add_data</text>
</a>
</g>
</g>
<!-- Node2&#45;&gt;Node3 -->
<g id="edge2_Node000002_Node000003" class="edge">
<title>Node2&#45;&gt;Node3</title>
<g id="a_edge2_Node000002_Node000003"><a xlink:title=" ">
<path fill="none" stroke="#63b8ff" d="M184.98,-101.49C201.72,-111.71 228,-127.62 251,-141 252.84,-142.07 254.72,-143.16 256.63,-144.25"/>
<polygon fill="#63b8ff" stroke="#63b8ff" points="254.49,-147.06 264.91,-148.97 257.95,-140.98 254.49,-147.06"/>
</a>
</g>
</g>
<!-- Node5 -->
<g id="Node000005" class="node">
<title>Node5</title>
<g id="a_Node000005"><a xlink:href="group__elements.html#a238b38ca99a1cf6c2baf80c8e4338d99" target="_top" xlink:title=" ">
<polygon fill="white" stroke="#666666" points="342,-132 251,-132 251,-100 342,-100 342,-132"/>
<text text-anchor="start" x="259" y="-120.4" font-family="SourceSans" font-size="8.00">svg::element_base::</text>
<text text-anchor="middle" x="296.5" y="-108.4" font-family="SourceSans" font-size="8.00">add_style</text>
</a>
</g>
</g>
<!-- Node2&#45;&gt;Node5 -->
<g id="edge4_Node000002_Node000005" class="edge">
<title>Node2&#45;&gt;Node5</title>
<g id="a_edge4_Node000002_Node000005"><a xlink:title=" ">
<path fill="none" stroke="#63b8ff" d="M215.4,-100.31C223.3,-101.86 231.55,-103.47 239.64,-105.06"/>
<polygon fill="#63b8ff" stroke="#63b8ff" points="238.92,-108.48 249.41,-106.97 240.27,-101.61 238.92,-108.48"/>
</a>
</g>
</g>
<!-- Node7 -->
<g id="Node000007" class="node">
<title>Node7</title>
<g id="a_Node000007"><a xlink:href="group__elements.html#gad01750ac554c6bd6871a930c90e17a04" target="_top" xlink:title=" ">
<polygon fill="white" stroke="#666666" points="340.12,-82 252.88,-82 252.88,-50 340.12,-50 340.12,-82"/>
<text text-anchor="start" x="260.88" y="-70.4" font-family="SourceSans" font-size="8.00">svg::rect_element::</text>
<text text-anchor="middle" x="296.5" y="-58.4" font-family="SourceSans" font-size="8.00">finish_element</text>
</a>
</g>
</g>
<!-- Node2&#45;&gt;Node7 -->
<g id="edge6_Node000002_Node000007" class="edge">
<title>Node2&#45;&gt;Node7</title>
<g id="a_edge6_Node000002_Node000007"><a xlink:title=" ">
<path fill="none" stroke="#63b8ff" d="M215.4,-81.69C223.87,-80.03 232.76,-78.29 241.4,-76.6"/>
<polygon fill="#63b8ff" stroke="#63b8ff" points="241.94,-80.06 251.08,-74.7 240.6,-73.19 241.94,-80.06"/>
</a>
</g>
</g>
<!-- Node9 -->
<g id="Node000009" class="node">
<title>Node9</title>
<g id="a_Node000009"><a xlink:href="group__elements.html#a1e0ed5e9dfe1244317a87d7e6774348b" target="_top" xlink:title=" ">
<polygon fill="white" stroke="#666666" points="340.12,-32 252.88,-32 252.88,0 340.12,0 340.12,-32"/>
<text text-anchor="start" x="260.88" y="-20.4" font-family="SourceSans" font-size="8.00">svg::rect_element::</text>
<text text-anchor="middle" x="296.5" y="-8.4" font-family="SourceSans" font-size="8.00">start_element</text>
</a>
</g>
</g>
<!-- Node2&#45;&gt;Node9 -->
<g id="edge8_Node000002_Node000009" class="edge">
<title>Node2&#45;&gt;Node9</title>
<g id="a_edge8_Node000002_Node000009"><a xlink:title=" ">
<path fill="none" stroke="#63b8ff" d="M184.98,-80.51C201.72,-70.29 228,-54.38 251,-41 252.84,-39.93 254.72,-38.84 256.63,-37.75"/>
<polygon fill="#63b8ff" stroke="#63b8ff" points="257.95,-41.02 264.91,-33.03 254.49,-34.94 257.95,-41.02"/>
</a>
</g>
</g>
<!-- Node4 -->
<g id="Node000004" class="node">
<title>Node4</title>
<g id="a_Node000004"><a xlink:href="namespacesvg.html#a48ac748e89e22789d1772326a98dd7b6" target="_top" xlink:title=" ">
<polygon fill="white" stroke="#666666" points="473.88,-176 386.62,-176 386.62,-156 473.88,-156 473.88,-176"/>
<text text-anchor="middle" x="430.25" y="-164.4" font-family="SourceSans" font-size="8.00">svg::string_replace</text>
</a>
</g>
</g>
<!-- Node3&#45;&gt;Node4 -->
<g id="edge3_Node000003_Node000004" class="edge">
<title>Node3&#45;&gt;Node4</title>
<g id="a_edge3_Node000003_Node000004"><a xlink:title=" ">
<path fill="none" stroke="#63b8ff" d="M340.28,-166C351.32,-166 363.36,-166 374.91,-166"/>
<polygon fill="#63b8ff" stroke="#63b8ff" points="374.72,-169.5 384.72,-166 374.72,-162.5 374.72,-169.5"/>
</a>
</g>
</g>
<!-- Node6 -->
<g id="Node000006" class="node">
<title>Node6</title>
<g id="a_Node000006"><a xlink:href="namespacesvg.html#a36b1c48ad4601b205790e3772ad0a7b6" target="_top" xlink:title=" ">
<polygon fill="white" stroke="#666666" points="463.75,-126 396.75,-126 396.75,-106 463.75,-106 463.75,-126"/>
<text text-anchor="middle" x="430.25" y="-114.4" font-family="SourceSans" font-size="8.00">svg::to_string</text>
</a>
</g>
</g>
<!-- Node5&#45;&gt;Node6 -->
<g id="edge5_Node000005_Node000006" class="edge">
<title>Node5&#45;&gt;Node6</title>
<g id="a_edge5_Node000005_Node000006"><a xlink:title=" ">
<path fill="none" stroke="#63b8ff" d="M342.47,-116C356.33,-116 371.57,-116 385.36,-116"/>
<polygon fill="#63b8ff" stroke="#63b8ff" points="385.02,-119.5 395.02,-116 385.02,-112.5 385.02,-119.5"/>
</a>
</g>
</g>
<!-- Node8 -->
<g id="Node000008" class="node">
<title>Node8</title>
<g id="a_Node000008"><a xlink:href="namespacesvg_1_1constants.html#aa7f04c2ea699a1b1e2e790de5ac33f38" target="_top" xlink:title=" ">
<polygon fill="white" stroke="#666666" points="482.5,-76 378,-76 378,-56 482.5,-56 482.5,-76"/>
<text text-anchor="middle" x="430.25" y="-64.4" font-family="SourceSans" font-size="8.00">svg::constants::newline</text>
</a>
</g>
</g>
<!-- Node7&#45;&gt;Node8 -->
<g id="edge7_Node000007_Node000008" class="edge">
<title>Node7&#45;&gt;Node8</title>
<g id="a_edge7_Node000007_Node000008"><a xlink:title=" ">
<path fill="none" stroke="#63b8ff" d="M340.28,-66C348.73,-66 357.76,-66 366.71,-66"/>
<polygon fill="#63b8ff" stroke="#63b8ff" points="366.44,-69.5 376.44,-66 366.44,-62.5 366.44,-69.5"/>
</a>
</g>
</g>
</g>
</svg>
</svg>

<style type='text/css'>
<![CDATA[
[data-mouse-over-selected='false'] { opacity: 0.7; }
[data-mouse-over-selected='true']  { opacity: 1.0; }
]]>
</style>
<script type="application/ecmascript"><![CDATA[
document.addEventListener('DOMContentLoaded', (event) => {
  highlightEdges();
  highlightAdjacentNodes();
});
]]></script>
</svg>
