<?xml version="1.0" encoding="UTF-8" standalone="no"?>
<!DOCTYPE svg PUBLIC "-//W3C//DTD SVG 1.1//EN"
 "http://www.w3.org/Graphics/SVG/1.1/DTD/svg11.dtd">
<!-- Generated by graphviz version 12.1.0 (20240811.2233)
 -->
<!-- Title: svg::make_markers Pages: 1 -->
<svg width="977pt" height="891pt"
 viewBox="0.00 0.00 976.50 891.00" xmlns="http://www.w3.org/2000/svg" xmlns:xlink="http://www.w3.org/1999/xlink">
<g id="graph0" class="graph" transform="scale(1 1) rotate(0) translate(4 887)">
<title>svg::make_markers</title>
<!-- Node1 -->
<g id="Node000001" class="node">
<title>Node1</title>
<g id="a_Node000001"><a xlink:title="Make black/white/wcag markers.">
<polygon fill="#999999" stroke="#666666" points="88.75,-454 0,-454 0,-434 88.75,-434 88.75,-454"/>
<text text-anchor="middle" x="44.38" y="-442.4" font-family="SourceSans" font-size="8.00">svg::make_markers</text>
</a>
</g>
</g>
<!-- Node2 -->
<g id="Node000002" class="node">
<title>Node2</title>
<g id="a_Node000002"><a xlink:href="group__elements.html#aaa5f1a136f2b5c61d647a47ec53fe31d" target="_top" xlink:title=" ">
<polygon fill="white" stroke="#666666" points="234.5,-561 133.75,-561 133.75,-529 234.5,-529 234.5,-561"/>
<text text-anchor="start" x="141.75" y="-549.4" font-family="SourceSans" font-size="8.00">svg::svg_element::add</text>
<text text-anchor="middle" x="184.12" y="-537.4" font-family="SourceSans" font-size="8.00">_element</text>
</a>
</g>
</g>
<!-- Node1&#45;&gt;Node2 -->
<g id="edge1_Node000001_Node000002" class="edge">
<title>Node1&#45;&gt;Node2</title>
<g id="a_edge1_Node000001_Node000002"><a xlink:title=" ">
<path fill="none" stroke="#63b8ff" d="M53.95,-454.32C67.58,-470.18 95.63,-500.75 124.75,-520 126.36,-521.07 128.03,-522.1 129.73,-523.11"/>
<polygon fill="#63b8ff" stroke="#63b8ff" points="128.01,-526.16 138.47,-527.83 131.33,-520 128.01,-526.16"/>
</a>
</g>
</g>
<!-- Node4 -->
<g id="Node000004" class="node">
<title>Node4</title>
<g id="a_Node000004"><a xlink:href="namespacesvg.html#a9f746a2fcfb397567be5af437c5df8ae" target="_top" xlink:title=" ">
<polygon fill="white" stroke="#666666" points="238.25,-511 130,-511 130,-491 238.25,-491 238.25,-511"/>
<text text-anchor="middle" x="184.12" y="-499.4" font-family="SourceSans" font-size="8.00">svg::make_marker_circle</text>
</a>
</g>
</g>
<!-- Node1&#45;&gt;Node4 -->
<g id="edge3_Node000001_Node000004" class="edge">
<title>Node1&#45;&gt;Node4</title>
<g id="a_edge3_Node000001_Node000004"><a xlink:title=" ">
<path fill="none" stroke="#63b8ff" d="M65.27,-454.43C81.14,-462.52 104.04,-473.71 124.75,-482 129.04,-483.71 133.54,-485.39 138.07,-487"/>
<polygon fill="#63b8ff" stroke="#63b8ff" points="136.57,-490.18 147.16,-490.1 138.83,-483.56 136.57,-490.18"/>
</a>
</g>
</g>
<!-- Node20 -->
<g id="Node000020" class="node">
<title>Node20</title>
<g id="a_Node000020"><a xlink:href="namespacesvg.html#af4cccaef5cd8538c487e0d26197a23d4" target="_top" xlink:title=" ">
<polygon fill="white" stroke="#666666" points="235.62,-473 132.62,-473 132.62,-453 235.62,-453 235.62,-473"/>
<text text-anchor="middle" x="184.12" y="-461.4" font-family="SourceSans" font-size="8.00">svg::make_marker_rect</text>
</a>
</g>
</g>
<!-- Node1&#45;&gt;Node20 -->
<g id="edge22_Node000001_Node000020" class="edge">
<title>Node1&#45;&gt;Node20</title>
<g id="a_edge22_Node000001_Node000020"><a xlink:title=" ">
<path fill="none" stroke="#63b8ff" d="M88.96,-450.01C99.14,-451.42 110.17,-452.94 120.99,-454.43"/>
<polygon fill="#63b8ff" stroke="#63b8ff" points="120.24,-457.86 130.63,-455.76 121.2,-450.93 120.24,-457.86"/>
</a>
</g>
</g>
<!-- Node27 -->
<g id="Node000027" class="node">
<title>Node27</title>
<g id="a_Node000027"><a xlink:href="namespacesvg.html#a2d06313c67674cf20d9d7a0de96f6161" target="_top" xlink:title=" ">
<polygon fill="white" stroke="#666666" points="243.5,-435 124.75,-435 124.75,-415 243.5,-415 243.5,-435"/>
<text text-anchor="middle" x="184.12" y="-423.4" font-family="SourceSans" font-size="8.00">svg::make_marker_triangle</text>
</a>
</g>
</g>
<!-- Node1&#45;&gt;Node27 -->
<g id="edge35_Node000001_Node000027" class="edge">
<title>Node1&#45;&gt;Node27</title>
<g id="a_edge35_Node000001_Node000027"><a xlink:title=" ">
<path fill="none" stroke="#63b8ff" d="M88.96,-437.99C96.76,-436.91 105.07,-435.77 113.39,-434.62"/>
<polygon fill="#63b8ff" stroke="#63b8ff" points="113.78,-438.1 123.21,-433.26 112.82,-431.16 113.78,-438.1"/>
</a>
</g>
</g>
<!-- Node38 -->
<g id="Node000038" class="node">
<title>Node38</title>
<g id="a_Node000038"><a xlink:href="group__elements.html#a948868c6f5dea784ded14c26cc1d2139" target="_top" xlink:title=" ">
<polygon fill="white" stroke="#666666" points="824.25,-117 734.75,-117 734.75,-85 824.25,-85 824.25,-117"/>
<text text-anchor="start" x="742.75" y="-105.4" font-family="SourceSans" font-size="8.00">svg::defs_element::</text>
<text text-anchor="middle" x="779.5" y="-93.4" font-family="SourceSans" font-size="8.00">start_element</text>
</a>
</g>
</g>
<!-- Node1&#45;&gt;Node38 -->
<g id="edge63_Node000001_Node000038" class="edge">
<title>Node1&#45;&gt;Node38</title>
<g id="a_edge63_Node000001_Node000038"><a xlink:title=" ">
<path fill="none" stroke="#63b8ff" d="M46.9,-433.89C57.47,-367.8 126,0 342,0 342,0 342,0 499.88,0 591.77,0 691.05,-49.16 742.69,-78.88"/>
<polygon fill="#63b8ff" stroke="#63b8ff" points="740.66,-81.75 751.06,-83.78 744.2,-75.71 740.66,-81.75"/>
</a>
</g>
</g>
<!-- Node41 -->
<g id="Node000041" class="node">
<title>Node41</title>
<g id="a_Node000041"><a xlink:href="namespacesvg.html#ad0b4b47318ff8c5c675525aba4e7b51f" target="_top" xlink:title=" ">
<polygon fill="white" stroke="#666666" points="230.75,-397 137.5,-397 137.5,-377 230.75,-377 230.75,-397"/>
<text text-anchor="middle" x="184.12" y="-385.4" font-family="SourceSans" font-size="8.00">svg::make_marker_x</text>
</a>
</g>
</g>
<!-- Node1&#45;&gt;Node41 -->
<g id="edge57_Node000001_Node000041" class="edge">
<title>Node1&#45;&gt;Node41</title>
<g id="a_edge57_Node000001_Node000041"><a xlink:title=" ">
<path fill="none" stroke="#63b8ff" d="M65.27,-433.57C81.14,-425.48 104.04,-414.29 124.75,-406 129.04,-404.29 133.54,-402.61 138.07,-401"/>
<polygon fill="#63b8ff" stroke="#63b8ff" points="138.83,-404.44 147.16,-397.9 136.57,-397.82 138.83,-404.44"/>
</a>
</g>
</g>
<!-- Node3 -->
<g id="Node000003" class="node">
<title>Node3</title>
<g id="a_Node000003"><a xlink:href="group__elements.html#ad893ef9c13a15464c96d8a85c08af30f" target="_top" xlink:title=" ">
<polygon fill="white" stroke="#666666" points="393.38,-555 292.62,-555 292.62,-535 393.38,-535 393.38,-555"/>
<text text-anchor="middle" x="343" y="-543.4" font-family="SourceSans" font-size="8.00">svg::element_base::str</text>
</a>
</g>
</g>
<!-- Node2&#45;&gt;Node3 -->
<g id="edge2_Node000002_Node000003" class="edge">
<title>Node2&#45;&gt;Node3</title>
<g id="a_edge2_Node000002_Node000003"><a xlink:title=" ">
<path fill="none" stroke="#63b8ff" d="M234.76,-545C249.35,-545 265.49,-545 280.72,-545"/>
<polygon fill="#63b8ff" stroke="#63b8ff" points="280.63,-548.5 290.63,-545 280.63,-541.5 280.63,-548.5"/>
</a>
</g>
</g>
<!-- Node4&#45;&gt;Node3 -->
<g id="edge21_Node000004_Node000003" class="edge">
<title>Node4&#45;&gt;Node3</title>
<g id="a_edge21_Node000004_Node000003"><a xlink:title=" ">
<path fill="none" stroke="#63b8ff" d="M222.3,-511.43C243.71,-517.43 270.86,-525.05 293.89,-531.51"/>
<polygon fill="#63b8ff" stroke="#63b8ff" points="292.79,-534.83 303.36,-534.16 294.68,-528.09 292.79,-534.83"/>
</a>
</g>
</g>
<!-- Node5 -->
<g id="Node000005" class="node">
<title>Node5</title>
<g id="a_Node000005"><a xlink:href="namespacesvg.html#ae450771820b99cadcbf845a4e712753c" target="_top" xlink:title="Make circle element.">
<polygon fill="white" stroke="#666666" points="381.75,-517 304.25,-517 304.25,-497 381.75,-497 381.75,-517"/>
<text text-anchor="middle" x="343" y="-505.4" font-family="SourceSans" font-size="8.00">svg::make_circle</text>
</a>
</g>
</g>
<!-- Node4&#45;&gt;Node5 -->
<g id="edge4_Node000004_Node000005" class="edge">
<title>Node4&#45;&gt;Node5</title>
<g id="a_edge4_Node000004_Node000005"><a xlink:title=" ">
<path fill="none" stroke="#63b8ff" d="M238.67,-503.05C256.13,-503.72 275.41,-504.45 292.55,-505.11"/>
<polygon fill="#63b8ff" stroke="#63b8ff" points="292.38,-508.6 302.51,-505.49 292.65,-501.61 292.38,-508.6"/>
</a>
</g>
</g>
<!-- Node16 -->
<g id="Node000016" class="node">
<title>Node16</title>
<g id="a_Node000016"><a xlink:href="namespacesvg.html#af02ffb403f990d5ac674a7c1d728fe5b" target="_top" xlink:title="Base function for generating SVG markers in a defs section.">
<polygon fill="white" stroke="#666666" points="403.12,-437 282.88,-437 282.88,-417 403.12,-417 403.12,-437"/>
<text text-anchor="middle" x="343" y="-425.4" font-family="SourceSans" font-size="8.00">svg::make_marker_element</text>
</a>
</g>
</g>
<!-- Node4&#45;&gt;Node16 -->
<g id="edge15_Node000004_Node000016" class="edge">
<title>Node4&#45;&gt;Node16</title>
<g id="a_edge15_Node000004_Node000016"><a xlink:title=" ">
<path fill="none" stroke="#63b8ff" d="M225.05,-490.54C231.43,-488.16 237.79,-485.33 243.5,-482 262.25,-471.06 260.89,-460.16 279.5,-449 284.07,-446.26 289.03,-443.79 294.09,-441.59"/>
<polygon fill="#63b8ff" stroke="#63b8ff" points="295.13,-444.94 303.13,-437.98 292.54,-438.44 295.13,-444.94"/>
</a>
</g>
</g>
<!-- Node6 -->
<g id="Node000006" class="node">
<title>Node6</title>
<g id="a_Node000006"><a xlink:href="group__elements.html#a519382631540ecedee961bfb53e9ae87" target="_top" xlink:title=" ">
<polygon fill="white" stroke="#666666" points="542.88,-757 454.88,-757 454.88,-725 542.88,-725 542.88,-757"/>
<text text-anchor="start" x="462.88" y="-745.4" font-family="SourceSans" font-size="8.00">svg::circle_element</text>
<text text-anchor="middle" x="498.88" y="-733.4" font-family="SourceSans" font-size="8.00">::add_data</text>
</a>
</g>
</g>
<!-- Node5&#45;&gt;Node6 -->
<g id="edge5_Node000005_Node000006" class="edge">
<title>Node5&#45;&gt;Node6</title>
<g id="a_edge5_Node000005_Node000006"><a xlink:title=" ">
<path fill="none" stroke="#63b8ff" d="M382.11,-512.89C390.9,-515.7 399.67,-519.86 406.5,-526 421.36,-539.35 467.45,-659.46 487.92,-714.12"/>
<polygon fill="#63b8ff" stroke="#63b8ff" points="484.57,-715.17 491.34,-723.31 491.13,-712.72 484.57,-715.17"/>
</a>
</g>
</g>
<!-- Node11 -->
<g id="Node000011" class="node">
<title>Node11</title>
<g id="a_Node000011"><a xlink:href="group__elements.html#a238b38ca99a1cf6c2baf80c8e4338d99" target="_top" xlink:title=" ">
<polygon fill="white" stroke="#666666" points="688.62,-431 597.62,-431 597.62,-399 688.62,-399 688.62,-431"/>
<text text-anchor="start" x="605.62" y="-419.4" font-family="SourceSans" font-size="8.00">svg::element_base::</text>
<text text-anchor="middle" x="643.12" y="-407.4" font-family="SourceSans" font-size="8.00">add_style</text>
</a>
</g>
</g>
<!-- Node5&#45;&gt;Node11 -->
<g id="edge10_Node000005_Node000011" class="edge">
<title>Node5&#45;&gt;Node11</title>
<g id="a_edge10_Node000005_Node000011"><a xlink:title=" ">
<path fill="none" stroke="#63b8ff" d="M381.89,-498.92C424.56,-489.4 495.71,-472.31 555.25,-452 568.96,-447.32 583.56,-441.47 596.8,-435.8"/>
<polygon fill="#63b8ff" stroke="#63b8ff" points="597.92,-439.13 605.69,-431.93 595.13,-432.71 597.92,-439.13"/>
</a>
</g>
</g>
<!-- Node13 -->
<g id="Node000013" class="node">
<title>Node13</title>
<g id="a_Node000013"><a xlink:href="group__elements.html#ga98a1538c46e39122d8199c12b3a57b5d" target="_top" xlink:title=" ">
<polygon fill="white" stroke="#666666" points="823.5,-807 735.5,-807 735.5,-775 823.5,-775 823.5,-807"/>
<text text-anchor="start" x="743.5" y="-795.4" font-family="SourceSans" font-size="8.00">svg::circle_element</text>
<text text-anchor="middle" x="779.5" y="-783.4" font-family="SourceSans" font-size="8.00">::finish_element</text>
</a>
</g>
</g>
<!-- Node5&#45;&gt;Node13 -->
<g id="edge12_Node000005_Node000013" class="edge">
<title>Node5&#45;&gt;Node13</title>
<g id="a_edge12_Node000005_Node000013"><a xlink:title=" ">
<path fill="none" stroke="#63b8ff" d="M381.97,-511.34C391.19,-514.16 400.2,-518.7 406.5,-526 476.99,-607.64 366.15,-689.81 442.5,-766 516.05,-839.4 649.3,-822.97 723.99,-806.04"/>
<polygon fill="#63b8ff" stroke="#63b8ff" points="724.61,-809.49 733.54,-803.79 723.01,-802.68 724.61,-809.49"/>
</a>
</g>
</g>
<!-- Node15 -->
<g id="Node000015" class="node">
<title>Node15</title>
<g id="a_Node000015"><a xlink:href="group__elements.html#a793cb6b40b2aea335b11f14fd327cde8" target="_top" xlink:title=" ">
<polygon fill="white" stroke="#666666" points="542.88,-883 454.88,-883 454.88,-851 542.88,-851 542.88,-883"/>
<text text-anchor="start" x="462.88" y="-871.4" font-family="SourceSans" font-size="8.00">svg::circle_element</text>
<text text-anchor="middle" x="498.88" y="-859.4" font-family="SourceSans" font-size="8.00">::start_element</text>
</a>
</g>
</g>
<!-- Node5&#45;&gt;Node15 -->
<g id="edge14_Node000005_Node000015" class="edge">
<title>Node5&#45;&gt;Node15</title>
<g id="a_edge14_Node000005_Node000015"><a xlink:title=" ">
<path fill="none" stroke="#63b8ff" d="M382.14,-511.2C391.36,-514.02 400.32,-518.6 406.5,-526 495.66,-632.83 364.53,-721.75 442.5,-837 444.08,-839.34 445.91,-841.51 447.91,-843.52"/>
<polygon fill="#63b8ff" stroke="#63b8ff" points="445.29,-845.9 455.22,-849.57 449.75,-840.5 445.29,-845.9"/>
</a>
</g>
</g>
<!-- Node7 -->
<g id="Node000007" class="node">
<title>Node7</title>
<g id="a_Node000007"><a xlink:href="group__elements.html#a53d72a7ff728ad1d4d027254530bcf3d" target="_top" xlink:title="Common transforms include rotate(180)">
<polygon fill="white" stroke="#666666" points="688.62,-757 597.62,-757 597.62,-725 688.62,-725 688.62,-757"/>
<text text-anchor="start" x="605.62" y="-745.4" font-family="SourceSans" font-size="8.00">svg::element_base::</text>
<text text-anchor="middle" x="643.12" y="-733.4" font-family="SourceSans" font-size="8.00">add_transform</text>
</a>
</g>
</g>
<!-- Node6&#45;&gt;Node7 -->
<g id="edge6_Node000006_Node000007" class="edge">
<title>Node6&#45;&gt;Node7</title>
<g id="a_edge6_Node000006_Node000007"><a xlink:title=" ">
<path fill="none" stroke="#63b8ff" d="M543.33,-741C556.87,-741 571.99,-741 586.25,-741"/>
<polygon fill="#63b8ff" stroke="#63b8ff" points="585.95,-744.5 595.95,-741 585.95,-737.5 585.95,-744.5"/>
</a>
</g>
</g>
<!-- Node10 -->
<g id="Node000010" class="node">
<title>Node10</title>
<g id="a_Node000010"><a xlink:href="namespacesvg.html#a48ac748e89e22789d1772326a98dd7b6" target="_top" xlink:title=" ">
<polygon fill="white" stroke="#666666" points="823.12,-601 735.88,-601 735.88,-581 823.12,-581 823.12,-601"/>
<text text-anchor="middle" x="779.5" y="-589.4" font-family="SourceSans" font-size="8.00">svg::string_replace</text>
</a>
</g>
</g>
<!-- Node6&#45;&gt;Node10 -->
<g id="edge9_Node000006_Node000010" class="edge">
<title>Node6&#45;&gt;Node10</title>
<g id="a_edge9_Node000006_Node000010"><a xlink:title=" ">
<path fill="none" stroke="#63b8ff" d="M533.07,-757.43C574.31,-775.28 645.32,-797.34 695,-766 702.12,-761.51 749.12,-657.14 769.31,-611.76"/>
<polygon fill="#63b8ff" stroke="#63b8ff" points="772.45,-613.3 773.31,-602.74 766.06,-610.46 772.45,-613.3"/>
</a>
</g>
</g>
<!-- Node8 -->
<g id="Node000008" class="node">
<title>Node8</title>
<g id="a_Node000008"><a xlink:href="namespacesvg_1_1constants.html#a3972655f1dfdc090ec2592d1fb37e87c" target="_top" xlink:title=" ">
<polygon fill="white" stroke="#666666" points="828,-726 731,-726 731,-706 828,-706 828,-726"/>
<text text-anchor="middle" x="779.5" y="-714.4" font-family="SourceSans" font-size="8.00">svg::constants::quote</text>
</a>
</g>
</g>
<!-- Node7&#45;&gt;Node8 -->
<g id="edge7_Node000007_Node000008" class="edge">
<title>Node7&#45;&gt;Node8</title>
<g id="a_edge7_Node000007_Node000008"><a xlink:title=" ">
<path fill="none" stroke="#63b8ff" d="M688.87,-732.68C698.74,-730.84 709.34,-728.87 719.67,-726.95"/>
<polygon fill="#63b8ff" stroke="#63b8ff" points="720.04,-730.44 729.23,-725.17 718.76,-723.55 720.04,-730.44"/>
</a>
</g>
</g>
<!-- Node9 -->
<g id="Node000009" class="node">
<title>Node9</title>
<g id="a_Node000009"><a xlink:href="namespacesvg_1_1constants.html#ac460bc8db60d85c3ae1cf8b1a903405e" target="_top" xlink:title="Formatting character constants.">
<polygon fill="white" stroke="#666666" points="827.62,-463 731.38,-463 731.38,-443 827.62,-443 827.62,-463"/>
<text text-anchor="middle" x="779.5" y="-451.4" font-family="SourceSans" font-size="8.00">svg::constants::space</text>
</a>
</g>
</g>
<!-- Node7&#45;&gt;Node9 -->
<g id="edge8_Node000007_Node000009" class="edge">
<title>Node7&#45;&gt;Node9</title>
<g id="a_edge8_Node000007_Node000009"><a xlink:title=" ">
<path fill="none" stroke="#63b8ff" d="M686.23,-724.8C689.56,-722.26 692.56,-719.34 695,-716 759.6,-627.44 663.07,-558.03 731,-472 731.43,-471.46 731.88,-470.93 732.34,-470.41"/>
<polygon fill="#63b8ff" stroke="#63b8ff" points="734.33,-473.31 739.9,-464.29 729.92,-467.87 734.33,-473.31"/>
</a>
</g>
</g>
<!-- Node12 -->
<g id="Node000012" class="node">
<title>Node12</title>
<g id="a_Node000012"><a xlink:href="namespacesvg.html#a36b1c48ad4601b205790e3772ad0a7b6" target="_top" xlink:title=" ">
<polygon fill="white" stroke="#666666" points="813,-391 746,-391 746,-371 813,-371 813,-391"/>
<text text-anchor="middle" x="779.5" y="-379.4" font-family="SourceSans" font-size="8.00">svg::to_string</text>
</a>
</g>
</g>
<!-- Node11&#45;&gt;Node12 -->
<g id="edge11_Node000011_Node000012" class="edge">
<title>Node11&#45;&gt;Node12</title>
<g id="a_edge11_Node000011_Node000012"><a xlink:title=" ">
<path fill="none" stroke="#63b8ff" d="M688.87,-403.68C703.71,-399.92 720.21,-395.75 734.96,-392.02"/>
<polygon fill="#63b8ff" stroke="#63b8ff" points="735.55,-395.48 744.38,-389.63 733.83,-388.69 735.55,-395.48"/>
</a>
</g>
</g>
<!-- Node14 -->
<g id="Node000014" class="node">
<title>Node14</title>
<g id="a_Node000014"><a xlink:href="namespacesvg_1_1constants.html#aa7f04c2ea699a1b1e2e790de5ac33f38" target="_top" xlink:title=" ">
<polygon fill="white" stroke="#666666" points="968.5,-469 864,-469 864,-449 968.5,-449 968.5,-469"/>
<text text-anchor="middle" x="916.25" y="-457.4" font-family="SourceSans" font-size="8.00">svg::constants::newline</text>
</a>
</g>
</g>
<!-- Node13&#45;&gt;Node14 -->
<g id="edge13_Node000013_Node000014" class="edge">
<title>Node13&#45;&gt;Node14</title>
<g id="a_edge13_Node000013_Node000014"><a xlink:title=" ">
<path fill="none" stroke="#63b8ff" d="M797.41,-774.68C807.49,-764.16 819.86,-749.73 828,-735 876.53,-647.18 902.43,-528.46 911.48,-480.46"/>
<polygon fill="#63b8ff" stroke="#63b8ff" points="914.89,-481.31 913.24,-470.85 908,-480.06 914.89,-481.31"/>
</a>
</g>
</g>
<!-- Node17 -->
<g id="Node000017" class="node">
<title>Node17</title>
<g id="a_Node000017"><a xlink:href="group__elements.html#acafbdd950c6c2639c9d376c3eab696e5" target="_top" xlink:title=" ">
<polygon fill="white" stroke="#666666" points="688.62,-481 597.62,-481 597.62,-449 688.62,-449 688.62,-481"/>
<text text-anchor="start" x="605.62" y="-469.4" font-family="SourceSans" font-size="8.00">svg::element_base::</text>
<text text-anchor="middle" x="643.12" y="-457.4" font-family="SourceSans" font-size="8.00">add_raw</text>
</a>
</g>
</g>
<!-- Node16&#45;&gt;Node17 -->
<g id="edge16_Node000016_Node000017" class="edge">
<title>Node16&#45;&gt;Node17</title>
<g id="a_edge16_Node000016_Node000017"><a xlink:title=" ">
<path fill="none" stroke="#63b8ff" d="M367.94,-416.58C408.33,-400.63 491.81,-374.71 555.25,-402 576.62,-411.19 572.51,-426.21 591.25,-440 592.56,-440.97 593.92,-441.91 595.31,-442.84"/>
<polygon fill="#63b8ff" stroke="#63b8ff" points="593.15,-445.62 603.52,-447.82 596.78,-439.64 593.15,-445.62"/>
</a>
</g>
</g>
<!-- Node18 -->
<g id="Node000018" class="node">
<title>Node18</title>
<g id="a_Node000018"><a xlink:href="group__elements.html#gab7270e660dcac30ea26157764f230e03" target="_top" xlink:title=" ">
<polygon fill="white" stroke="#666666" points="827.25,-513 731.75,-513 731.75,-481 827.25,-481 827.25,-513"/>
<text text-anchor="start" x="739.75" y="-501.4" font-family="SourceSans" font-size="8.00">svg::marker_element</text>
<text text-anchor="middle" x="779.5" y="-489.4" font-family="SourceSans" font-size="8.00">::finish_element</text>
</a>
</g>
</g>
<!-- Node16&#45;&gt;Node18 -->
<g id="edge18_Node000016_Node000018" class="edge">
<title>Node16&#45;&gt;Node18</title>
<g id="a_edge18_Node000016_Node000018"><a xlink:title=" ">
<path fill="none" stroke="#63b8ff" d="M375.96,-437.47C422.66,-452.23 512.55,-478.63 591.25,-490 634.14,-496.19 683.1,-497.84 720.2,-497.99"/>
<polygon fill="#63b8ff" stroke="#63b8ff" points="719.8,-501.49 729.8,-497.99 719.8,-494.49 719.8,-501.49"/>
</a>
</g>
</g>
<!-- Node19 -->
<g id="Node000019" class="node">
<title>Node19</title>
<g id="a_Node000019"><a xlink:href="group__elements.html#ac4cb549d62ec6d614189e4585089c58d" target="_top" xlink:title=" ">
<polygon fill="white" stroke="#666666" points="546.62,-443 451.12,-443 451.12,-411 546.62,-411 546.62,-443"/>
<text text-anchor="start" x="459.12" y="-431.4" font-family="SourceSans" font-size="8.00">svg::marker_element</text>
<text text-anchor="middle" x="498.88" y="-419.4" font-family="SourceSans" font-size="8.00">::start_element</text>
</a>
</g>
</g>
<!-- Node16&#45;&gt;Node19 -->
<g id="edge20_Node000016_Node000019" class="edge">
<title>Node16&#45;&gt;Node19</title>
<g id="a_edge20_Node000016_Node000019"><a xlink:title=" ">
<path fill="none" stroke="#63b8ff" d="M403.49,-427C415.41,-427 427.92,-427 439.79,-427"/>
<polygon fill="#63b8ff" stroke="#63b8ff" points="439.43,-430.5 449.43,-427 439.43,-423.5 439.43,-430.5"/>
</a>
</g>
</g>
<!-- Node17&#45;&gt;Node9 -->
<g id="edge17_Node000017_Node000009" class="edge">
<title>Node17&#45;&gt;Node9</title>
<g id="a_edge17_Node000017_Node000009"><a xlink:title=" ">
<path fill="none" stroke="#63b8ff" d="M688.87,-461C698.85,-460.11 709.58,-459.16 720.02,-458.22"/>
<polygon fill="#63b8ff" stroke="#63b8ff" points="720.03,-461.74 729.68,-457.36 719.41,-454.76 720.03,-461.74"/>
</a>
</g>
</g>
<!-- Node18&#45;&gt;Node14 -->
<g id="edge19_Node000018_Node000014" class="edge">
<title>Node18&#45;&gt;Node14</title>
<g id="a_edge19_Node000018_Node000014"><a xlink:title=" ">
<path fill="none" stroke="#63b8ff" d="M827.63,-483.71C840.43,-480.1 854.3,-476.19 867.15,-472.57"/>
<polygon fill="#63b8ff" stroke="#63b8ff" points="867.99,-475.96 876.67,-469.88 866.09,-469.23 867.99,-475.96"/>
</a>
</g>
</g>
<!-- Node20&#45;&gt;Node16 -->
<g id="edge23_Node000020_Node000016" class="edge">
<title>Node20&#45;&gt;Node16</title>
<g id="a_edge23_Node000020_Node000016"><a xlink:title=" ">
<path fill="none" stroke="#63b8ff" d="M230.5,-452.59C247.66,-448.65 267.41,-444.12 285.47,-439.97"/>
<polygon fill="#63b8ff" stroke="#63b8ff" points="286.02,-443.44 294.98,-437.79 284.45,-436.62 286.02,-443.44"/>
</a>
</g>
</g>
<!-- Node21 -->
<g id="Node000021" class="node">
<title>Node21</title>
<g id="a_Node000021"><a xlink:href="namespacesvg.html#a7c25ce3eee490f8a8673c17d77fed46d" target="_top" xlink:title="Create rect_element centered at origin.">
<polygon fill="white" stroke="#666666" points="397.88,-478 288.12,-478 288.12,-458 397.88,-458 397.88,-478"/>
<text text-anchor="middle" x="343" y="-466.4" font-family="SourceSans" font-size="8.00">svg::make_rect_centered</text>
</a>
</g>
</g>
<!-- Node20&#45;&gt;Node21 -->
<g id="edge24_Node000020_Node000021" class="edge">
<title>Node20&#45;&gt;Node21</title>
<g id="a_edge24_Node000020_Node000021"><a xlink:title=" ">
<path fill="none" stroke="#63b8ff" d="M236.06,-464.62C248.99,-465.04 263.06,-465.48 276.6,-465.92"/>
<polygon fill="#63b8ff" stroke="#63b8ff" points="276.19,-469.4 286.3,-466.22 276.41,-462.41 276.19,-469.4"/>
</a>
</g>
</g>
<!-- Node22 -->
<g id="Node000022" class="node">
<title>Node22</title>
<g id="a_Node000022"><a xlink:href="namespacesvg.html#ab020874bc83c9a9dcbaadf71b74efeac" target="_top" xlink:title="Create rect_element at origin.">
<polygon fill="white" stroke="#666666" points="535,-579 462.75,-579 462.75,-559 535,-559 535,-579"/>
<text text-anchor="middle" x="498.88" y="-567.4" font-family="SourceSans" font-size="8.00">svg::make_rect</text>
</a>
</g>
</g>
<!-- Node21&#45;&gt;Node22 -->
<g id="edge25_Node000021_Node000022" class="edge">
<title>Node21&#45;&gt;Node22</title>
<g id="a_edge25_Node000021_Node000022"><a xlink:title=" ">
<path fill="none" stroke="#63b8ff" d="M385.85,-478.42C393,-481.02 400.15,-484.19 406.5,-488 425.63,-499.48 425.9,-508.08 442.5,-523 453.32,-532.72 465.74,-543.11 476.08,-551.55"/>
<polygon fill="#63b8ff" stroke="#63b8ff" points="473.73,-554.15 483.7,-557.73 478.13,-548.71 473.73,-554.15"/>
</a>
</g>
</g>
<!-- Node22&#45;&gt;Node11 -->
<g id="edge31_Node000022_Node000011" class="edge">
<title>Node22&#45;&gt;Node11</title>
<g id="a_edge31_Node000022_Node000011"><a xlink:title=" ">
<path fill="none" stroke="#63b8ff" d="M506.6,-558.91C525.82,-530.16 580.28,-449.34 591.25,-440 592.17,-439.22 593.11,-438.45 594.08,-437.71"/>
<polygon fill="#63b8ff" stroke="#63b8ff" points="595.74,-440.81 602.07,-432.32 591.83,-435.01 595.74,-440.81"/>
</a>
</g>
</g>
<!-- Node23 -->
<g id="Node000023" class="node">
<title>Node23</title>
<g id="a_Node000023"><a xlink:href="group__elements.html#a1dd6663d882fb5dd14a47462a77f351b" target="_top" xlink:title="Either serialize immediately (as below), or create data structure that adds data to data_vec and then...">
<polygon fill="white" stroke="#666666" points="686.75,-607 599.5,-607 599.5,-575 686.75,-575 686.75,-607"/>
<text text-anchor="start" x="607.5" y="-595.4" font-family="SourceSans" font-size="8.00">svg::rect_element::</text>
<text text-anchor="middle" x="643.12" y="-583.4" font-family="SourceSans" font-size="8.00">add_data</text>
</a>
</g>
</g>
<!-- Node22&#45;&gt;Node23 -->
<g id="edge26_Node000022_Node000023" class="edge">
<title>Node22&#45;&gt;Node23</title>
<g id="a_edge26_Node000022_Node000023"><a xlink:title=" ">
<path fill="none" stroke="#63b8ff" d="M535.4,-574.49C551.27,-576.95 570.31,-579.89 587.9,-582.61"/>
<polygon fill="#63b8ff" stroke="#63b8ff" points="587.28,-586.06 597.7,-584.13 588.35,-579.14 587.28,-586.06"/>
</a>
</g>
</g>
<!-- Node24 -->
<g id="Node000024" class="node">
<title>Node24</title>
<g id="a_Node000024"><a xlink:href="group__elements.html#a1b22cfab9437b40c8b877ffe5472ff02" target="_top" xlink:title=" ">
<polygon fill="white" stroke="#666666" points="688.62,-707 597.62,-707 597.62,-675 688.62,-675 688.62,-707"/>
<text text-anchor="start" x="605.62" y="-695.4" font-family="SourceSans" font-size="8.00">svg::element_base::</text>
<text text-anchor="middle" x="643.12" y="-683.4" font-family="SourceSans" font-size="8.00">add_filter</text>
</a>
</g>
</g>
<!-- Node22&#45;&gt;Node24 -->
<g id="edge28_Node000022_Node000024" class="edge">
<title>Node22&#45;&gt;Node24</title>
<g id="a_edge28_Node000022_Node000024"><a xlink:title=" ">
<path fill="none" stroke="#63b8ff" d="M507.45,-579.21C521.98,-598.25 555.51,-639.62 591.25,-666 592.56,-666.97 593.92,-667.92 595.3,-668.84"/>
<polygon fill="#63b8ff" stroke="#63b8ff" points="593.15,-671.63 603.51,-673.83 596.78,-665.65 593.15,-671.63"/>
</a>
</g>
</g>
<!-- Node25 -->
<g id="Node000025" class="node">
<title>Node25</title>
<g id="a_Node000025"><a xlink:href="group__elements.html#gad01750ac554c6bd6871a930c90e17a04" target="_top" xlink:title=" ">
<polygon fill="white" stroke="#666666" points="823.12,-563 735.88,-563 735.88,-531 823.12,-531 823.12,-563"/>
<text text-anchor="start" x="743.88" y="-551.4" font-family="SourceSans" font-size="8.00">svg::rect_element::</text>
<text text-anchor="middle" x="779.5" y="-539.4" font-family="SourceSans" font-size="8.00">finish_element</text>
</a>
</g>
</g>
<!-- Node22&#45;&gt;Node25 -->
<g id="edge32_Node000022_Node000025" class="edge">
<title>Node22&#45;&gt;Node25</title>
<g id="a_edge32_Node000022_Node000025"><a xlink:title=" ">
<path fill="none" stroke="#63b8ff" d="M535.45,-566.19C583.11,-562.43 668.15,-555.71 723.94,-551.31"/>
<polygon fill="#63b8ff" stroke="#63b8ff" points="724.18,-554.8 733.87,-550.52 723.62,-547.82 724.18,-554.8"/>
</a>
</g>
</g>
<!-- Node26 -->
<g id="Node000026" class="node">
<title>Node26</title>
<g id="a_Node000026"><a xlink:href="group__elements.html#a1e0ed5e9dfe1244317a87d7e6774348b" target="_top" xlink:title=" ">
<polygon fill="white" stroke="#666666" points="686.75,-657 599.5,-657 599.5,-625 686.75,-625 686.75,-657"/>
<text text-anchor="start" x="607.5" y="-645.4" font-family="SourceSans" font-size="8.00">svg::rect_element::</text>
<text text-anchor="middle" x="643.12" y="-633.4" font-family="SourceSans" font-size="8.00">start_element</text>
</a>
</g>
</g>
<!-- Node22&#45;&gt;Node26 -->
<g id="edge34_Node000022_Node000026" class="edge">
<title>Node22&#45;&gt;Node26</title>
<g id="a_edge34_Node000022_Node000026"><a xlink:title=" ">
<path fill="none" stroke="#63b8ff" d="M519.79,-579.37C538.26,-588.97 566.55,-603.58 591.25,-616 593.5,-617.13 595.81,-618.29 598.14,-619.45"/>
<polygon fill="#63b8ff" stroke="#63b8ff" points="596.55,-622.57 607.07,-623.87 599.66,-616.3 596.55,-622.57"/>
</a>
</g>
</g>
<!-- Node23&#45;&gt;Node10 -->
<g id="edge27_Node000023_Node000010" class="edge">
<title>Node23&#45;&gt;Node10</title>
<g id="a_edge27_Node000023_Node000010"><a xlink:title=" ">
<path fill="none" stroke="#63b8ff" d="M687.01,-591C698.89,-591 711.94,-591 724.37,-591"/>
<polygon fill="#63b8ff" stroke="#63b8ff" points="724.05,-594.5 734.05,-591 724.05,-587.5 724.05,-594.5"/>
</a>
</g>
</g>
<!-- Node24&#45;&gt;Node8 -->
<g id="edge29_Node000024_Node000008" class="edge">
<title>Node24&#45;&gt;Node8</title>
<g id="a_edge29_Node000024_Node000008"><a xlink:title=" ">
<path fill="none" stroke="#63b8ff" d="M688.87,-699.32C698.74,-701.16 709.34,-703.13 719.67,-705.05"/>
<polygon fill="#63b8ff" stroke="#63b8ff" points="718.76,-708.45 729.23,-706.83 720.04,-701.56 718.76,-708.45"/>
</a>
</g>
</g>
<!-- Node24&#45;&gt;Node9 -->
<g id="edge30_Node000024_Node000009" class="edge">
<title>Node24&#45;&gt;Node9</title>
<g id="a_edge30_Node000024_Node000009"><a xlink:title=" ">
<path fill="none" stroke="#63b8ff" d="M686.11,-674.7C689.46,-672.18 692.5,-669.29 695,-666 747.99,-596.12 675.39,-539.81 731,-472 731.44,-471.46 731.9,-470.94 732.37,-470.44"/>
<polygon fill="#63b8ff" stroke="#63b8ff" points="734.35,-473.33 740.01,-464.38 730,-467.85 734.35,-473.33"/>
</a>
</g>
</g>
<!-- Node25&#45;&gt;Node14 -->
<g id="edge33_Node000025_Node000014" class="edge">
<title>Node25&#45;&gt;Node14</title>
<g id="a_edge33_Node000025_Node000014"><a xlink:title=" ">
<path fill="none" stroke="#63b8ff" d="M813.29,-530.52C818.28,-527.79 823.33,-524.9 828,-522 851.05,-507.71 876,-489.38 893.3,-476.18"/>
<polygon fill="#63b8ff" stroke="#63b8ff" points="895.07,-479.23 900.86,-470.35 890.8,-473.68 895.07,-479.23"/>
</a>
</g>
</g>
<!-- Node27&#45;&gt;Node16 -->
<g id="edge36_Node000027_Node000016" class="edge">
<title>Node27&#45;&gt;Node16</title>
<g id="a_edge36_Node000027_Node000016"><a xlink:title=" ">
<path fill="none" stroke="#63b8ff" d="M243.99,-425.75C252.85,-425.86 262.07,-425.98 271.15,-426.1"/>
<polygon fill="#63b8ff" stroke="#63b8ff" points="270.99,-429.59 281.03,-426.22 271.08,-422.6 270.99,-429.59"/>
</a>
</g>
</g>
<!-- Node28 -->
<g id="Node000028" class="node">
<title>Node28</title>
<g id="a_Node000028"><a xlink:href="namespacesvg.html#a7172c35bcf356f5675e22033ba8b9f9b" target="_top" xlink:title="Center a triangle at this point.">
<polygon fill="white" stroke="#666666" points="397.88,-277 288.12,-277 288.12,-257 397.88,-257 397.88,-277"/>
<text text-anchor="middle" x="343" y="-265.4" font-family="SourceSans" font-size="8.00">svg::make_path_triangle</text>
</a>
</g>
</g>
<!-- Node27&#45;&gt;Node28 -->
<g id="edge37_Node000027_Node000028" class="edge">
<title>Node27&#45;&gt;Node28</title>
<g id="a_edge37_Node000027_Node000028"><a xlink:title=" ">
<path fill="none" stroke="#63b8ff" d="M228.15,-414.55C233.59,-412.23 238.86,-409.41 243.5,-406 286.59,-374.29 317.96,-317.99 332.67,-287.68"/>
<polygon fill="#63b8ff" stroke="#63b8ff" points="335.75,-289.36 336.83,-278.82 329.41,-286.38 335.75,-289.36"/>
</a>
</g>
</g>
<!-- Node29 -->
<g id="Node000029" class="node">
<title>Node29</title>
<g id="a_Node000029"><a xlink:href="namespacesvg.html#ab44508c4aeca591141ebec50145b75cd" target="_top" xlink:title="Angle in degrees.">
<polygon fill="white" stroke="#666666" points="550.75,-305 447,-305 447,-273 550.75,-273 550.75,-305"/>
<text text-anchor="start" x="455" y="-293.4" font-family="SourceSans" font-size="8.00">svg::get_circumference</text>
<text text-anchor="middle" x="498.88" y="-281.4" font-family="SourceSans" font-size="8.00">_point_d</text>
</a>
</g>
</g>
<!-- Node28&#45;&gt;Node29 -->
<g id="edge38_Node000028_Node000029" class="edge">
<title>Node28&#45;&gt;Node29</title>
<g id="a_edge38_Node000028_Node000029"><a xlink:title=" ">
<path fill="none" stroke="#63b8ff" d="M398.25,-274.76C410.31,-276.48 423.18,-278.32 435.53,-280.09"/>
<polygon fill="#63b8ff" stroke="#63b8ff" points="434.8,-283.52 445.19,-281.47 435.79,-276.59 434.8,-283.52"/>
</a>
</g>
</g>
<!-- Node32 -->
<g id="Node000032" class="node">
<title>Node32</title>
<g id="a_Node000032"><a xlink:href="namespacesvg_1_1constants.html#ae42b583ceed2552c466993683f819ef2" target="_top" xlink:title=" ">
<polygon fill="white" stroke="#666666" points="550.75,-217 447,-217 447,-197 550.75,-197 550.75,-217"/>
<text text-anchor="middle" x="498.88" y="-205.4" font-family="SourceSans" font-size="8.00">svg::constants::hyphen</text>
</a>
</g>
</g>
<!-- Node28&#45;&gt;Node32 -->
<g id="edge41_Node000028_Node000032" class="edge">
<title>Node28&#45;&gt;Node32</title>
<g id="a_edge41_Node000028_Node000032"><a xlink:title=" ">
<path fill="none" stroke="#63b8ff" d="M367.71,-256.63C387.56,-248.07 416.69,-235.79 442.5,-226 446.83,-224.36 451.37,-222.7 455.92,-221.08"/>
<polygon fill="#63b8ff" stroke="#63b8ff" points="456.7,-224.51 464.99,-217.9 454.39,-217.91 456.7,-224.51"/>
</a>
</g>
</g>
<!-- Node33 -->
<g id="Node000033" class="node">
<title>Node33</title>
<g id="a_Node000033"><a xlink:href="namespacesvg.html#a8425f83abab02eedb240bc2a893cd513" target="_top" xlink:title="Draw path given serialized path data. Assumes pinstripe, ie top and bottom line layers....">
<polygon fill="white" stroke="#666666" points="536.88,-179 460.88,-179 460.88,-159 536.88,-159 536.88,-179"/>
<text text-anchor="middle" x="498.88" y="-167.4" font-family="SourceSans" font-size="8.00">svg::make_path</text>
</a>
</g>
</g>
<!-- Node28&#45;&gt;Node33 -->
<g id="edge42_Node000028_Node000033" class="edge">
<title>Node28&#45;&gt;Node33</title>
<g id="a_edge42_Node000028_Node000033"><a xlink:title=" ">
<path fill="none" stroke="#63b8ff" d="M354.33,-256.65C371.35,-240.11 406.97,-207.56 442.5,-188 445.3,-186.46 448.24,-185.01 451.25,-183.66"/>
<polygon fill="#63b8ff" stroke="#63b8ff" points="452.32,-187 460.25,-179.98 449.67,-180.52 452.32,-187"/>
</a>
</g>
</g>
<!-- Node39 -->
<g id="Node000039" class="node">
<title>Node39</title>
<g id="a_Node000039"><a xlink:href="namespacesvg.html#a2c65de7707b8b7b1bca959a3a2bbba91" target="_top" xlink:title="Make single path segment.">
<polygon fill="white" stroke="#666666" points="547.38,-355 450.38,-355 450.38,-323 547.38,-323 547.38,-355"/>
<text text-anchor="start" x="458.38" y="-343.4" font-family="SourceSans" font-size="8.00">svg::make_path_data</text>
<text text-anchor="middle" x="498.88" y="-331.4" font-family="SourceSans" font-size="8.00">_from_points</text>
</a>
</g>
</g>
<!-- Node28&#45;&gt;Node39 -->
<g id="edge54_Node000028_Node000039" class="edge">
<title>Node28&#45;&gt;Node39</title>
<g id="a_edge54_Node000028_Node000039"><a xlink:title=" ">
<path fill="none" stroke="#63b8ff" d="M365.46,-277.4C385.37,-287.01 415.86,-301.63 442.5,-314 445.23,-315.27 448.04,-316.56 450.88,-317.87"/>
<polygon fill="#63b8ff" stroke="#63b8ff" points="449.26,-320.97 459.81,-321.94 452.17,-314.61 449.26,-320.97"/>
</a>
</g>
</g>
<!-- Node40 -->
<g id="Node000040" class="node">
<title>Node40</title>
<g id="a_Node000040"><a xlink:href="namespacesvg.html#a46164d75fd5109e4ed8879abbacd5c11" target="_top" xlink:title="Zero degrees is top, going clockwise (cw).">
<polygon fill="white" stroke="#666666" points="555.25,-255 442.5,-255 442.5,-235 555.25,-235 555.25,-255"/>
<text text-anchor="middle" x="498.88" y="-243.4" font-family="SourceSans" font-size="8.00">svg::zero_angle_north_cw</text>
</a>
</g>
</g>
<!-- Node28&#45;&gt;Node40 -->
<g id="edge56_Node000028_Node000040" class="edge">
<title>Node28&#45;&gt;Node40</title>
<g id="a_edge56_Node000028_Node000040"><a xlink:title=" ">
<path fill="none" stroke="#63b8ff" d="M398.25,-259.24C408.78,-257.74 419.94,-256.14 430.82,-254.59"/>
<polygon fill="#63b8ff" stroke="#63b8ff" points="431.13,-258.08 440.54,-253.2 430.14,-251.15 431.13,-258.08"/>
</a>
</g>
</g>
<!-- Node30 -->
<g id="Node000030" class="node">
<title>Node30</title>
<g id="a_Node000030"><a xlink:href="namespacesvg.html#aef05ac63d88a6102981d3faf37275297" target="_top" xlink:title="Angle in radians.">
<polygon fill="white" stroke="#666666" points="695,-343 591.25,-343 591.25,-311 695,-311 695,-343"/>
<text text-anchor="start" x="599.25" y="-331.4" font-family="SourceSans" font-size="8.00">svg::get_circumference</text>
<text text-anchor="middle" x="643.12" y="-319.4" font-family="SourceSans" font-size="8.00">_point_r</text>
</a>
</g>
</g>
<!-- Node29&#45;&gt;Node30 -->
<g id="edge39_Node000029_Node000030" class="edge">
<title>Node29&#45;&gt;Node30</title>
<g id="a_edge39_Node000029_Node000030"><a xlink:title=" ">
<path fill="none" stroke="#63b8ff" d="M551.23,-302.72C560.5,-305.19 570.25,-307.8 579.79,-310.35"/>
<polygon fill="#63b8ff" stroke="#63b8ff" points="578.82,-313.71 589.38,-312.91 580.62,-306.95 578.82,-313.71"/>
</a>
</g>
</g>
<!-- Node31 -->
<g id="Node000031" class="node">
<title>Node31</title>
<g id="a_Node000031"><a xlink:href="namespacesvg_1_1constants.html#a0e0b0d9314bc47324ee39884bf8bb2fd" target="_top" xlink:title=" ">
<polygon fill="white" stroke="#666666" points="684.12,-293 602.12,-293 602.12,-273 684.12,-273 684.12,-293"/>
<text text-anchor="middle" x="643.12" y="-281.4" font-family="SourceSans" font-size="8.00">svg::constants::pi</text>
</a>
</g>
</g>
<!-- Node29&#45;&gt;Node31 -->
<g id="edge40_Node000029_Node000031" class="edge">
<title>Node29&#45;&gt;Node31</title>
<g id="a_edge40_Node000029_Node000031"><a xlink:title=" ">
<path fill="none" stroke="#63b8ff" d="M551.23,-286.83C564.03,-286.29 577.75,-285.72 590.55,-285.18"/>
<polygon fill="#63b8ff" stroke="#63b8ff" points="590.65,-288.67 600.49,-284.76 590.35,-281.68 590.65,-288.67"/>
</a>
</g>
</g>
<!-- Node33&#45;&gt;Node11 -->
<g id="edge45_Node000033_Node000011" class="edge">
<title>Node33&#45;&gt;Node11</title>
<g id="a_edge45_Node000033_Node000011"><a xlink:title=" ">
<path fill="none" stroke="#63b8ff" d="M537.31,-175.99C544.05,-178.75 550.45,-182.61 555.25,-188 604.91,-243.7 558.95,-284.73 591.25,-352 597.86,-365.76 608.02,-379.18 617.52,-390.08"/>
<polygon fill="#63b8ff" stroke="#63b8ff" points="614.92,-392.43 624.24,-397.47 620.1,-387.72 614.92,-392.43"/>
</a>
</g>
</g>
<!-- Node33&#45;&gt;Node12 -->
<g id="edge53_Node000033_Node000012" class="edge">
<title>Node33&#45;&gt;Node12</title>
<g id="a_edge53_Node000033_Node000012"><a xlink:title=" ">
<path fill="none" stroke="#63b8ff" d="M537.23,-173.24C587.19,-179.64 672.17,-193.24 695,-214 732.44,-248.04 706.75,-277.59 731,-322 738.98,-336.61 750.68,-351.19 760.47,-362.21"/>
<polygon fill="#63b8ff" stroke="#63b8ff" points="757.75,-364.43 767.1,-369.43 762.91,-359.69 757.75,-364.43"/>
</a>
</g>
</g>
<!-- Node34 -->
<g id="Node000034" class="node">
<title>Node34</title>
<g id="a_Node000034"><a xlink:href="group__elements.html#a807f3c30f2ace338ad10aaf230b47665" target="_top" xlink:title="Either serialize immediately (as below), or create data structure that adds data to data_vec and then...">
<polygon fill="white" stroke="#666666" points="688.62,-255 597.62,-255 597.62,-223 688.62,-223 688.62,-255"/>
<text text-anchor="start" x="605.62" y="-243.4" font-family="SourceSans" font-size="8.00">svg::path_element::</text>
<text text-anchor="middle" x="643.12" y="-231.4" font-family="SourceSans" font-size="8.00">add_data</text>
</a>
</g>
</g>
<!-- Node33&#45;&gt;Node34 -->
<g id="edge43_Node000033_Node000034" class="edge">
<title>Node33&#45;&gt;Node34</title>
<g id="a_edge43_Node000033_Node000034"><a xlink:title=" ">
<path fill="none" stroke="#63b8ff" d="M533.97,-179.5C541.11,-182.03 548.51,-184.9 555.25,-188 556.62,-188.63 581.62,-203.32 604.46,-216.78"/>
<polygon fill="#63b8ff" stroke="#63b8ff" points="602.67,-219.79 613.06,-221.85 606.23,-213.76 602.67,-219.79"/>
</a>
</g>
</g>
<!-- Node35 -->
<g id="Node000035" class="node">
<title>Node35</title>
<g id="a_Node000035"><a xlink:href="group__elements.html#gaac30ae99fb1a2542688fa1ffb43cd8e1" target="_top" xlink:title=" ">
<polygon fill="white" stroke="#666666" points="688.62,-167 597.62,-167 597.62,-135 688.62,-135 688.62,-167"/>
<text text-anchor="start" x="605.62" y="-155.4" font-family="SourceSans" font-size="8.00">svg::path_element::</text>
<text text-anchor="middle" x="643.12" y="-143.4" font-family="SourceSans" font-size="8.00">finish_element</text>
</a>
</g>
</g>
<!-- Node33&#45;&gt;Node35 -->
<g id="edge46_Node000033_Node000035" class="edge">
<title>Node33&#45;&gt;Node35</title>
<g id="a_edge46_Node000033_Node000035"><a xlink:title=" ">
<path fill="none" stroke="#63b8ff" d="M537.25,-164.27C552.16,-162.38 569.66,-160.17 586.03,-158.1"/>
<polygon fill="#63b8ff" stroke="#63b8ff" points="586.17,-161.61 595.65,-156.88 585.29,-154.66 586.17,-161.61"/>
</a>
</g>
</g>
<!-- Node37 -->
<g id="Node000037" class="node">
<title>Node37</title>
<g id="a_Node000037"><a xlink:href="group__elements.html#a6dbca7cef2cbc0c10aa44c44ae20b36e" target="_top" xlink:title=" ">
<polygon fill="white" stroke="#666666" points="688.62,-117 597.62,-117 597.62,-85 688.62,-85 688.62,-117"/>
<text text-anchor="start" x="605.62" y="-105.4" font-family="SourceSans" font-size="8.00">svg::path_element::</text>
<text text-anchor="middle" x="643.12" y="-93.4" font-family="SourceSans" font-size="8.00">start_element</text>
</a>
</g>
</g>
<!-- Node33&#45;&gt;Node37 -->
<g id="edge50_Node000033_Node000037" class="edge">
<title>Node33&#45;&gt;Node37</title>
<g id="a_edge50_Node000033_Node000037"><a xlink:title=" ">
<path fill="none" stroke="#63b8ff" d="M521.79,-158.52C541.93,-148.9 572.39,-134.34 597.62,-122.27"/>
<polygon fill="#63b8ff" stroke="#63b8ff" points="598.84,-125.57 606.35,-118.1 595.82,-119.26 598.84,-125.57"/>
</a>
</g>
</g>
<!-- Node34&#45;&gt;Node10 -->
<g id="edge44_Node000034_Node000010" class="edge">
<title>Node34&#45;&gt;Node10</title>
<g id="a_edge44_Node000034_Node000010"><a xlink:title=" ">
<path fill="none" stroke="#63b8ff" d="M686.81,-255.49C689.92,-257.96 692.73,-260.79 695,-264 774.54,-376.55 647.23,-462.56 731,-572 731.42,-572.55 731.86,-573.09 732.32,-573.61"/>
<polygon fill="#63b8ff" stroke="#63b8ff" points="729.86,-576.12 739.8,-579.78 734.32,-570.72 729.86,-576.12"/>
</a>
</g>
</g>
<!-- Node35&#45;&gt;Node14 -->
<g id="edge49_Node000035_Node000014" class="edge">
<title>Node35&#45;&gt;Node14</title>
<g id="a_edge49_Node000035_Node000014"><a xlink:title=" ">
<path fill="none" stroke="#63b8ff" d="M681.88,-167.5C686.64,-170.56 691.17,-174.05 695,-178 720.2,-203.96 710.83,-220.97 731,-251 737.97,-261.37 854.3,-391.15 898.44,-440.3"/>
<polygon fill="#63b8ff" stroke="#63b8ff" points="895.73,-442.52 905.02,-447.62 900.94,-437.84 895.73,-442.52"/>
</a>
</g>
</g>
<!-- Node36 -->
<g id="Node000036" class="node">
<title>Node36</title>
<g id="a_Node000036"><a xlink:href="group__elements.html#ga503ee2895588a6c684e2b1614cf4e73d" target="_top" xlink:title=" ">
<polygon fill="white" stroke="#666666" points="824.25,-242 734.75,-242 734.75,-210 824.25,-210 824.25,-242"/>
<text text-anchor="start" x="742.75" y="-230.4" font-family="SourceSans" font-size="8.00">svg::defs_element::</text>
<text text-anchor="middle" x="779.5" y="-218.4" font-family="SourceSans" font-size="8.00">finish_element</text>
</a>
</g>
</g>
<!-- Node35&#45;&gt;Node36 -->
<g id="edge47_Node000035_Node000036" class="edge">
<title>Node35&#45;&gt;Node36</title>
<g id="a_edge47_Node000035_Node000036"><a xlink:title=" ">
<path fill="none" stroke="#63b8ff" d="M673.61,-167.46C692.87,-178.21 718.23,-192.36 739.19,-204.06"/>
<polygon fill="#63b8ff" stroke="#63b8ff" points="737.32,-207.02 747.76,-208.84 740.73,-200.91 737.32,-207.02"/>
</a>
</g>
</g>
<!-- Node36&#45;&gt;Node14 -->
<g id="edge48_Node000036_Node000014" class="edge">
<title>Node36&#45;&gt;Node14</title>
<g id="a_edge48_Node000036_Node000014"><a xlink:title=" ">
<path fill="none" stroke="#63b8ff" d="M792.8,-242.38C802.75,-255.92 816.9,-275.81 828,-294 858.83,-344.5 890.06,-406.89 905.44,-438.53"/>
<polygon fill="#63b8ff" stroke="#63b8ff" points="902.2,-439.87 909.7,-447.35 908.51,-436.82 902.2,-439.87"/>
</a>
</g>
</g>
<!-- Node37&#45;&gt;Node38 -->
<g id="edge51_Node000037_Node000038" class="edge">
<title>Node37&#45;&gt;Node38</title>
<g id="a_edge51_Node000037_Node000038"><a xlink:title=" ">
<path fill="none" stroke="#63b8ff" d="M688.87,-101C699.86,-101 711.76,-101 723.19,-101"/>
<polygon fill="#63b8ff" stroke="#63b8ff" points="722.89,-104.5 732.89,-101 722.89,-97.5 722.89,-104.5"/>
</a>
</g>
</g>
<!-- Node38&#45;&gt;Node14 -->
<g id="edge52_Node000038_Node000014" class="edge">
<title>Node38&#45;&gt;Node14</title>
<g id="a_edge52_Node000038_Node000014"><a xlink:title=" ">
<path fill="none" stroke="#63b8ff" d="M789,-117.37C799.01,-136.96 815.81,-170.89 828,-201 862.88,-287.13 895.62,-393.06 908.96,-437.64"/>
<polygon fill="#63b8ff" stroke="#63b8ff" points="905.56,-438.48 911.76,-447.07 912.27,-436.48 905.56,-438.48"/>
</a>
</g>
</g>
<!-- Node39&#45;&gt;Node9 -->
<g id="edge55_Node000039_Node000009" class="edge">
<title>Node39&#45;&gt;Node9</title>
<g id="a_edge55_Node000039_Node000009"><a xlink:title=" ">
<path fill="none" stroke="#63b8ff" d="M547.81,-346.14C588.47,-353.44 647.57,-367.03 695,-390 719.32,-401.78 743.58,-421.15 759.63,-435.31"/>
<polygon fill="#63b8ff" stroke="#63b8ff" points="757.18,-437.81 766.95,-441.93 761.88,-432.62 757.18,-437.81"/>
</a>
</g>
</g>
<!-- Node41&#45;&gt;Node16 -->
<g id="edge58_Node000041_Node000016" class="edge">
<title>Node41&#45;&gt;Node16</title>
<g id="a_edge58_Node000041_Node000016"><a xlink:title=" ">
<path fill="none" stroke="#63b8ff" d="M225.93,-397.41C245.48,-402.39 269.11,-408.41 289.94,-413.72"/>
<polygon fill="#63b8ff" stroke="#63b8ff" points="288.83,-417.05 299.39,-416.13 290.56,-410.27 288.83,-417.05"/>
</a>
</g>
</g>
<!-- Node42 -->
<g id="Node000042" class="node">
<title>Node42</title>
<g id="a_Node000042"><a xlink:href="namespacesvg.html#ad40c251365511ceb10b9d0dc6a40a153" target="_top" xlink:title="Plus or x tilt mark as closed path that can be filled.">
<polygon fill="white" stroke="#666666" points="406.5,-132 279.5,-132 279.5,-112 406.5,-112 406.5,-132"/>
<text text-anchor="middle" x="343" y="-120.4" font-family="SourceSans" font-size="8.00">svg::make_path_center_mark</text>
</a>
</g>
</g>
<!-- Node41&#45;&gt;Node42 -->
<g id="edge59_Node000041_Node000042" class="edge">
<title>Node41&#45;&gt;Node42</title>
<g id="a_edge59_Node000041_Node000042"><a xlink:title=" ">
<path fill="none" stroke="#63b8ff" d="M191.27,-376.61C214.7,-337.03 298.63,-195.26 330.03,-142.22"/>
<polygon fill="#63b8ff" stroke="#63b8ff" points="333.04,-144.01 335.12,-133.62 327.02,-140.44 333.04,-144.01"/>
</a>
</g>
</g>
<!-- Node42&#45;&gt;Node9 -->
<g id="edge62_Node000042_Node000009" class="edge">
<title>Node42&#45;&gt;Node9</title>
<g id="a_edge62_Node000042_Node000009"><a xlink:title=" ">
<path fill="none" stroke="#63b8ff" d="M376.93,-111.55C455.05,-87.7 648.52,-34.4 695,-76 748.98,-124.31 701.41,-333.87 731,-400 736.95,-413.3 747.49,-425.59 757.14,-434.98"/>
<polygon fill="#63b8ff" stroke="#63b8ff" points="754.74,-437.53 764.47,-441.71 759.47,-432.37 754.74,-437.53"/>
</a>
</g>
</g>
<!-- Node42&#45;&gt;Node33 -->
<g id="edge61_Node000042_Node000033" class="edge">
<title>Node42&#45;&gt;Node33</title>
<g id="a_edge61_Node000042_Node000033"><a xlink:title=" ">
<path fill="none" stroke="#63b8ff" d="M378.15,-132.43C400.09,-139.13 428.83,-147.91 452.65,-155.19"/>
<polygon fill="#63b8ff" stroke="#63b8ff" points="451.52,-158.5 462.11,-158.08 453.57,-151.81 451.52,-158.5"/>
</a>
</g>
</g>
<!-- Node43 -->
<g id="Node000043" class="node">
<title>Node43</title>
<g id="a_Node000043"><a xlink:href="namespacesvg_1_1constants.html#a70757c054f02146f803e0e40071734a9" target="_top" xlink:title=" ">
<polygon fill="white" stroke="#666666" points="550,-48 447.75,-48 447.75,-28 550,-28 550,-48"/>
<text text-anchor="middle" x="498.88" y="-36.4" font-family="SourceSans" font-size="8.00">svg::constants::comma</text>
</a>
</g>
</g>
<!-- Node42&#45;&gt;Node43 -->
<g id="edge60_Node000042_Node000043" class="edge">
<title>Node42&#45;&gt;Node43</title>
<g id="a_edge60_Node000042_Node000043"><a xlink:title=" ">
<path fill="none" stroke="#63b8ff" d="M359.65,-111.54C378.76,-98.98 412.28,-77.66 442.5,-62 448.52,-58.88 455.03,-55.81 461.41,-52.95"/>
<polygon fill="#63b8ff" stroke="#63b8ff" points="462.73,-56.19 470.5,-48.99 459.94,-49.77 462.73,-56.19"/>
</a>
</g>
</g>
</g>
</svg>
