<?xml version="1.0" encoding="UTF-8" standalone="no"?>
<!DOCTYPE svg PUBLIC "-//W3C//DTD SVG 1.1//EN"
 "http://www.w3.org/Graphics/SVG/1.1/DTD/svg11.dtd">
<!-- Generated by graphviz version 9.0.0 (20230911.1827)
 -->
<!-- Title: svg::radiate_ids_at_uvalue Pages: 1 -->
<svg width="788pt" height="301pt"
 viewBox="0.00 0.00 788.00 301.00" xmlns="http://www.w3.org/2000/svg" xmlns:xlink="http://www.w3.org/1999/xlink">
<g id="graph0" class="graph" transform="scale(1 1) rotate(0) translate(4 297)">
<title>svg::radiate_ids_at_uvalue</title>
<!-- Node1 -->
<g id="Node000001" class="node">
<title>Node1</title>
<g id="a_Node000001"><a xlink:title="Map ids with one value to a point cluster radiating out from a center.">
<polygon fill="#999999" stroke="#666666" points="86.5,-114 0,-114 0,-82 86.5,-82 86.5,-114"/>
<text text-anchor="start" x="8" y="-102.4" font-family="SourceSans" font-size="8.00">svg::radiate_ids_at</text>
<text text-anchor="middle" x="43.25" y="-90.4" font-family="SourceSans" font-size="8.00">_uvalue</text>
</a>
</g>
</g>
<!-- Node2 -->
<g id="Node000002" class="node">
<title>Node2</title>
<g id="a_Node000002"><a xlink:href="namespacesvg.html#a07c6fad0adddb0908ed4ef00536967c9" target="_top" xlink:title="Concatenate ids onto one line.">
<polygon fill="white" stroke="#666666" points="216.12,-184 126.62,-184 126.62,-164 216.12,-164 216.12,-184"/>
<text text-anchor="middle" x="171.38" y="-172.4" font-family="SourceSans" font-size="8.00">svg::append_ids_at</text>
</a>
</g>
</g>
<!-- Node1&#45;&gt;Node2 -->
<g id="edge1_Node000001_Node000002" class="edge">
<title>Node1&#45;&gt;Node2</title>
<g id="a_edge1_Node000001_Node000002"><a xlink:title=" ">
<path fill="none" stroke="#63b8ff" d="M67.4,-114.46C82.73,-125.1 103.45,-138.95 122.5,-150 127.5,-152.9 132.89,-155.81 138.19,-158.54"/>
<polygon fill="#63b8ff" stroke="#63b8ff" points="136.29,-161.51 146.8,-162.88 139.44,-155.25 136.29,-161.51"/>
</a>
</g>
</g>
<!-- Node3 -->
<g id="Node000003" class="node">
<title>Node3</title>
<g id="a_Node000003"><a xlink:href="namespacesvg.html#a0a0dce44cf8a75daa516cdf9fade5a85" target="_top" xlink:title=" ">
<polygon fill="white" stroke="#666666" points="345.38,-174 264.88,-174 264.88,-154 345.38,-154 345.38,-174"/>
<text text-anchor="middle" x="305.12" y="-162.4" font-family="SourceSans" font-size="8.00">svg::radial_text_r</text>
</a>
</g>
</g>
<!-- Node1&#45;&gt;Node3 -->
<g id="edge18_Node000001_Node000003" class="edge">
<title>Node1&#45;&gt;Node3</title>
<g id="a_edge18_Node000001_Node000003"><a xlink:title=" ">
<path fill="none" stroke="#63b8ff" d="M86.87,-108.82C132.56,-120.43 205.05,-138.84 253.58,-151.16"/>
<polygon fill="#63b8ff" stroke="#63b8ff" points="252.44,-154.49 263,-153.55 254.17,-147.7 252.44,-154.49"/>
</a>
</g>
</g>
<!-- Node13 -->
<g id="Node000013" class="node">
<title>Node13</title>
<g id="a_Node000013"><a xlink:href="namespacesvg.html#a929b5c33bc0c139332dddd5d3b8ea3d0" target="_top" xlink:title="Transform a value on a range to an angle on the radial range.">
<polygon fill="white" stroke="#666666" points="207.12,-108 135.62,-108 135.62,-88 207.12,-88 207.12,-108"/>
<text text-anchor="middle" x="171.38" y="-96.4" font-family="SourceSans" font-size="8.00">svg::get_angle</text>
</a>
</g>
</g>
<!-- Node1&#45;&gt;Node13 -->
<g id="edge13_Node000001_Node000013" class="edge">
<title>Node1&#45;&gt;Node13</title>
<g id="a_edge13_Node000001_Node000013"><a xlink:title=" ">
<path fill="none" stroke="#63b8ff" d="M86.95,-98C98.86,-98 111.87,-98 123.98,-98"/>
<polygon fill="#63b8ff" stroke="#63b8ff" points="123.75,-101.5 133.75,-98 123.75,-94.5 123.75,-101.5"/>
</a>
</g>
</g>
<!-- Node16 -->
<g id="Node000016" class="node">
<title>Node16</title>
<g id="a_Node000016"><a xlink:href="namespacesvg.html#a370d930bd06a84735a4eecdd677154e6" target="_top" xlink:title="Get the label space. Value &#45;&gt; Name, as a string where value has labelspaces of fill NB: Should be the...">
<polygon fill="white" stroke="#666666" points="220.25,-70 122.5,-70 122.5,-50 220.25,-50 220.25,-70"/>
<text text-anchor="middle" x="171.38" y="-58.4" font-family="SourceSans" font-size="8.00">svg::get_label_spaces</text>
</a>
</g>
</g>
<!-- Node1&#45;&gt;Node16 -->
<g id="edge16_Node000001_Node000016" class="edge">
<title>Node1&#45;&gt;Node16</title>
<g id="a_edge16_Node000001_Node000016"><a xlink:title=" ">
<path fill="none" stroke="#63b8ff" d="M86.95,-85.13C99.1,-81.48 112.37,-77.48 124.69,-73.76"/>
<polygon fill="#63b8ff" stroke="#63b8ff" points="125.66,-77.13 134.22,-70.89 123.64,-70.43 125.66,-77.13"/>
</a>
</g>
</g>
<!-- Node17 -->
<g id="Node000017" class="node">
<title>Node17</title>
<g id="a_Node000017"><a xlink:href="namespacesvg.html#aa89ab2d58bfaf850b84e976828851b9b" target="_top" xlink:title="Make radial labels.">
<polygon fill="white" stroke="#666666" points="216.88,-32 125.88,-32 125.88,0 216.88,0 216.88,-32"/>
<text text-anchor="start" x="133.88" y="-20.4" font-family="SourceSans" font-size="8.00">svg::make_label_for</text>
<text text-anchor="middle" x="171.38" y="-8.4" font-family="SourceSans" font-size="8.00">_value</text>
</a>
</g>
</g>
<!-- Node1&#45;&gt;Node17 -->
<g id="edge17_Node000001_Node000017" class="edge">
<title>Node1&#45;&gt;Node17</title>
<g id="a_edge17_Node000001_Node000017"><a xlink:title=" ">
<path fill="none" stroke="#63b8ff" d="M64.92,-81.64C80.36,-69.75 102.22,-53.58 122.5,-41 124.12,-40 125.78,-39 127.46,-38"/>
<polygon fill="#63b8ff" stroke="#63b8ff" points="129,-41.15 135.99,-33.19 125.56,-35.06 129,-41.15"/>
</a>
</g>
</g>
<!-- Node2&#45;&gt;Node3 -->
<g id="edge2_Node000002_Node000003" class="edge">
<title>Node2&#45;&gt;Node3</title>
<g id="a_edge2_Node000002_Node000003"><a xlink:title=" ">
<path fill="none" stroke="#63b8ff" d="M216.61,-170.64C228.4,-169.75 241.22,-168.77 253.32,-167.86"/>
<polygon fill="#63b8ff" stroke="#63b8ff" points="253.44,-171.36 263.14,-167.11 252.91,-164.38 253.44,-171.36"/>
</a>
</g>
</g>
<!-- Node4 -->
<g id="Node000004" class="node">
<title>Node4</title>
<g id="a_Node000004"><a xlink:href="namespacesvg.html#ab44508c4aeca591141ebec50145b75cd" target="_top" xlink:title="Angle in degrees.">
<polygon fill="white" stroke="#666666" points="500.12,-262 396.38,-262 396.38,-230 500.12,-230 500.12,-262"/>
<text text-anchor="start" x="404.38" y="-250.4" font-family="SourceSans" font-size="8.00">svg::get_circumference</text>
<text text-anchor="middle" x="448.25" y="-238.4" font-family="SourceSans" font-size="8.00">_point_d</text>
</a>
</g>
</g>
<!-- Node3&#45;&gt;Node4 -->
<g id="edge3_Node000003_Node000004" class="edge">
<title>Node3&#45;&gt;Node4</title>
<g id="a_edge3_Node000003_Node000004"><a xlink:title=" ">
<path fill="none" stroke="#63b8ff" d="M319.58,-174.29C335.74,-186.39 363.95,-206.62 390,-221 392.2,-222.21 394.47,-223.41 396.78,-224.59"/>
<polygon fill="#63b8ff" stroke="#63b8ff" points="395.18,-227.7 405.7,-228.92 398.23,-221.4 395.18,-227.7"/>
</a>
</g>
</g>
<!-- Node7 -->
<g id="Node000007" class="node">
<title>Node7</title>
<g id="a_Node000007"><a xlink:href="namespacesvg.html#ae7eab6d9ce1f55bcbcc997cd24c5abcf" target="_top" xlink:title="Text with typography, arranged ccw around points (x,y) on a circle.">
<polygon fill="white" stroke="#666666" points="493.75,-212 402.75,-212 402.75,-192 493.75,-192 493.75,-212"/>
<text text-anchor="middle" x="448.25" y="-200.4" font-family="SourceSans" font-size="8.00">svg::radial_text_ccw</text>
</a>
</g>
</g>
<!-- Node3&#45;&gt;Node7 -->
<g id="edge6_Node000003_Node000007" class="edge">
<title>Node3&#45;&gt;Node7</title>
<g id="a_edge6_Node000003_Node000007"><a xlink:title=" ">
<path fill="none" stroke="#63b8ff" d="M345.06,-174.48C361.26,-178.85 380.26,-183.96 397.45,-188.59"/>
<polygon fill="#63b8ff" stroke="#63b8ff" points="396.41,-191.94 406.98,-191.16 398.23,-185.18 396.41,-191.94"/>
</a>
</g>
</g>
<!-- Node10 -->
<g id="Node000010" class="node">
<title>Node10</title>
<g id="a_Node000010"><a xlink:href="namespacesvg.html#a27b1041d0851178e4835e1f623a46161" target="_top" xlink:title="Text with typography, arranged cw around points (x,y) on a circle.">
<polygon fill="white" stroke="#666666" points="491.88,-174 404.62,-174 404.62,-154 491.88,-154 491.88,-174"/>
<text text-anchor="middle" x="448.25" y="-162.4" font-family="SourceSans" font-size="8.00">svg::radial_text_cw</text>
</a>
</g>
</g>
<!-- Node3&#45;&gt;Node10 -->
<g id="edge9_Node000003_Node000010" class="edge">
<title>Node3&#45;&gt;Node10</title>
<g id="a_edge9_Node000003_Node000010"><a xlink:title=" ">
<path fill="none" stroke="#63b8ff" d="M345.81,-164C360.44,-164 377.28,-164 392.97,-164"/>
<polygon fill="#63b8ff" stroke="#63b8ff" points="392.64,-167.5 402.64,-164 392.64,-160.5 392.64,-167.5"/>
</a>
</g>
</g>
<!-- Node11 -->
<g id="Node000011" class="node">
<title>Node11</title>
<g id="a_Node000011"><a xlink:href="namespacesvg.html#a010fea242a289d173d521b501140cd72" target="_top" xlink:title="Zero degrees is top, going clockwise (cw).">
<polygon fill="white" stroke="#666666" points="506.5,-136 390,-136 390,-116 506.5,-116 506.5,-136"/>
<text text-anchor="middle" x="448.25" y="-124.4" font-family="SourceSans" font-size="8.00">svg::zero_angle_north_ccw</text>
</a>
</g>
</g>
<!-- Node3&#45;&gt;Node11 -->
<g id="edge11_Node000003_Node000011" class="edge">
<title>Node3&#45;&gt;Node11</title>
<g id="a_edge11_Node000003_Node000011"><a xlink:title=" ">
<path fill="none" stroke="#63b8ff" d="M345.06,-153.52C361.26,-149.15 380.26,-144.04 397.45,-139.41"/>
<polygon fill="#63b8ff" stroke="#63b8ff" points="398.23,-142.82 406.98,-136.84 396.41,-136.06 398.23,-142.82"/>
</a>
</g>
</g>
<!-- Node12 -->
<g id="Node000012" class="node">
<title>Node12</title>
<g id="a_Node000012"><a xlink:href="namespacesvg.html#a46164d75fd5109e4ed8879abbacd5c11" target="_top" xlink:title="Zero degrees is top, going clockwise (cw).">
<polygon fill="white" stroke="#666666" points="504.62,-98 391.88,-98 391.88,-78 504.62,-78 504.62,-98"/>
<text text-anchor="middle" x="448.25" y="-86.4" font-family="SourceSans" font-size="8.00">svg::zero_angle_north_cw</text>
</a>
</g>
</g>
<!-- Node3&#45;&gt;Node12 -->
<g id="edge12_Node000003_Node000012" class="edge">
<title>Node3&#45;&gt;Node12</title>
<g id="a_edge12_Node000003_Node000012"><a xlink:title=" ">
<path fill="none" stroke="#63b8ff" d="M325.17,-153.73C334.11,-148.68 344.8,-142.34 354,-136 370.91,-124.34 371.96,-116.84 390,-107 392.84,-105.45 395.84,-103.99 398.9,-102.64"/>
<polygon fill="#63b8ff" stroke="#63b8ff" points="400.1,-105.93 408.08,-98.96 397.49,-99.43 400.1,-105.93"/>
</a>
</g>
</g>
<!-- Node5 -->
<g id="Node000005" class="node">
<title>Node5</title>
<g id="a_Node000005"><a xlink:href="namespacesvg.html#aef05ac63d88a6102981d3faf37275297" target="_top" xlink:title="Angle in radians.">
<polygon fill="white" stroke="#666666" points="646.25,-293 542.5,-293 542.5,-261 646.25,-261 646.25,-293"/>
<text text-anchor="start" x="550.5" y="-281.4" font-family="SourceSans" font-size="8.00">svg::get_circumference</text>
<text text-anchor="middle" x="594.38" y="-269.4" font-family="SourceSans" font-size="8.00">_point_r</text>
</a>
</g>
</g>
<!-- Node4&#45;&gt;Node5 -->
<g id="edge4_Node000004_Node000005" class="edge">
<title>Node4&#45;&gt;Node5</title>
<g id="a_edge4_Node000004_Node000005"><a xlink:title=" ">
<path fill="none" stroke="#63b8ff" d="M500.47,-257.02C510.45,-259.16 521.02,-261.44 531.31,-263.65"/>
<polygon fill="#63b8ff" stroke="#63b8ff" points="530.33,-267.02 540.84,-265.7 531.8,-260.18 530.33,-267.02"/>
</a>
</g>
</g>
<!-- Node6 -->
<g id="Node000006" class="node">
<title>Node6</title>
<g id="a_Node000006"><a xlink:href="namespacesvg_1_1constants.html#a0e0b0d9314bc47324ee39884bf8bb2fd" target="_top" xlink:title=" ">
<polygon fill="white" stroke="#666666" points="635.38,-243 553.38,-243 553.38,-223 635.38,-223 635.38,-243"/>
<text text-anchor="middle" x="594.38" y="-231.4" font-family="SourceSans" font-size="8.00">svg::constants::pi</text>
</a>
</g>
</g>
<!-- Node4&#45;&gt;Node6 -->
<g id="edge5_Node000004_Node000006" class="edge">
<title>Node4&#45;&gt;Node6</title>
<g id="a_edge5_Node000004_Node000006"><a xlink:title=" ">
<path fill="none" stroke="#63b8ff" d="M500.47,-241.38C514,-240.16 528.6,-238.84 542.12,-237.62"/>
<polygon fill="#63b8ff" stroke="#63b8ff" points="542.04,-241.14 551.68,-236.76 541.41,-234.17 542.04,-241.14"/>
</a>
</g>
</g>
<!-- Node8 -->
<g id="Node000008" class="node">
<title>Node8</title>
<g id="a_Node000008"><a xlink:href="namespacesvg.html#a5791c1fc9121f01e5f666b7ce0367dfa" target="_top" xlink:title="Text at @origin, with style and ... a transformation=rotation of @deg about @rorigin.">
<polygon fill="white" stroke="#666666" points="635,-193 553.75,-193 553.75,-173 635,-173 635,-193"/>
<text text-anchor="middle" x="594.38" y="-181.4" font-family="SourceSans" font-size="8.00">svg::styled_text_r</text>
</a>
</g>
</g>
<!-- Node7&#45;&gt;Node8 -->
<g id="edge7_Node000007_Node000008" class="edge">
<title>Node7&#45;&gt;Node8</title>
<g id="a_edge7_Node000007_Node000008"><a xlink:title=" ">
<path fill="none" stroke="#63b8ff" d="M494.06,-196.09C509.36,-194.08 526.57,-191.81 542.32,-189.73"/>
<polygon fill="#63b8ff" stroke="#63b8ff" points="542.52,-193.23 551.98,-188.46 541.6,-186.29 542.52,-193.23"/>
</a>
</g>
</g>
<!-- Node9 -->
<g id="Node000009" class="node">
<title>Node9</title>
<g id="a_Node000009"><a xlink:href="structsvg_1_1transform.html#acf9836f4ba647f0dd2b53963a0f714d0" target="_top" xlink:title=" ">
<polygon fill="white" stroke="#666666" points="780,-193 682.25,-193 682.25,-173 780,-173 780,-193"/>
<text text-anchor="middle" x="731.12" y="-181.4" font-family="SourceSans" font-size="8.00">svg::transform::rotate</text>
</a>
</g>
</g>
<!-- Node8&#45;&gt;Node9 -->
<g id="edge8_Node000008_Node000009" class="edge">
<title>Node8&#45;&gt;Node9</title>
<g id="a_edge8_Node000008_Node000009"><a xlink:title=" ">
<path fill="none" stroke="#63b8ff" d="M635.44,-183C646.49,-183 658.73,-183 670.63,-183"/>
<polygon fill="#63b8ff" stroke="#63b8ff" points="670.37,-186.5 680.37,-183 670.37,-179.5 670.37,-186.5"/>
</a>
</g>
</g>
<!-- Node10&#45;&gt;Node8 -->
<g id="edge10_Node000010_Node000008" class="edge">
<title>Node10&#45;&gt;Node8</title>
<g id="a_edge10_Node000010_Node000008"><a xlink:title=" ">
<path fill="none" stroke="#63b8ff" d="M492.1,-169.65C507.88,-171.73 525.9,-174.11 542.33,-176.27"/>
<polygon fill="#63b8ff" stroke="#63b8ff" points="541.53,-179.7 551.9,-177.53 542.44,-172.76 541.53,-179.7"/>
</a>
</g>
</g>
<!-- Node14 -->
<g id="Node000014" class="node">
<title>Node14</title>
<g id="a_Node000014"><a xlink:href="namespacesvg.html#a37b1e7c40b54ff3cdd4e2929cb6b7ba2" target="_top" xlink:title=" ">
<polygon fill="white" stroke="#666666" points="354,-127 256.25,-127 256.25,-107 354,-107 354,-127"/>
<text text-anchor="middle" x="305.12" y="-115.4" font-family="SourceSans" font-size="8.00">svg::get_radial_range</text>
</a>
</g>
</g>
<!-- Node13&#45;&gt;Node14 -->
<g id="edge14_Node000013_Node000014" class="edge">
<title>Node13&#45;&gt;Node14</title>
<g id="a_edge14_Node000013_Node000014"><a xlink:title=" ">
<path fill="none" stroke="#63b8ff" d="M207.34,-103.04C218.89,-104.71 232.09,-106.61 244.94,-108.47"/>
<polygon fill="#63b8ff" stroke="#63b8ff" points="244.21,-111.9 254.6,-109.86 245.21,-104.97 244.21,-111.9"/>
</a>
</g>
</g>
<!-- Node15 -->
<g id="Node000015" class="node">
<title>Node15</title>
<g id="a_Node000015"><a xlink:href="namespacesvg.html#a673cb54838801fae8471436ce43298a9" target="_top" xlink:title="Scale value from min to max on range (nfloor, nceil).">
<polygon fill="white" stroke="#666666" points="352.5,-89 257.75,-89 257.75,-57 352.5,-57 352.5,-89"/>
<text text-anchor="start" x="265.75" y="-77.4" font-family="SourceSans" font-size="8.00">svg::normalize_value</text>
<text text-anchor="middle" x="305.12" y="-65.4" font-family="SourceSans" font-size="8.00">_on_range</text>
</a>
</g>
</g>
<!-- Node13&#45;&gt;Node15 -->
<g id="edge15_Node000013_Node000015" class="edge">
<title>Node13&#45;&gt;Node15</title>
<g id="a_edge15_Node000013_Node000015"><a xlink:title=" ">
<path fill="none" stroke="#63b8ff" d="M207.34,-91.37C219.37,-89.08 233.18,-86.46 246.53,-83.93"/>
<polygon fill="#63b8ff" stroke="#63b8ff" points="246.92,-87.42 256.09,-82.11 245.62,-80.54 246.92,-87.42"/>
</a>
</g>
</g>
</g>
</svg>
