<?xml version="1.0" encoding="UTF-8" standalone="no"?>
<!DOCTYPE svg PUBLIC "-//W3C//DTD SVG 1.1//EN"
 "http://www.w3.org/Graphics/SVG/1.1/DTD/svg11.dtd">
<!-- Generated by graphviz version 12.1.0 (20240811.2233)
 -->
<!-- Title: svg::make_color_band Pages: 1 -->
<svg width="560pt" height="98pt"
 viewBox="0.00 0.00 560.25 97.75" xmlns="http://www.w3.org/2000/svg" xmlns:xlink="http://www.w3.org/1999/xlink">
<g id="graph0" class="graph" transform="scale(1 1) rotate(0) translate(4 93.75)">
<title>svg::make_color_band</title>
<!-- Node1 -->
<g id="Node000001" class="node">
<title>Node1</title>
<g id="a_Node000001"><a xlink:title="Forwarding function.">
<polygon fill="#999999" stroke="#666666" points="106.75,-71.75 0,-71.75 0,-54 106.75,-54 106.75,-71.75"/>
<text text-anchor="middle" x="53.38" y="-60.15" font-family="SourceSans" font-size="8.00">svg::make_color_band</text>
</a>
</g>
</g>
<!-- Node2 -->
<g id="Node000002" class="node">
<title>Node2</title>
<g id="a_Node000002"><a xlink:href="namespacesvg.html#a86299e1b709e10d8ddbe9fe4e5231dc5" target="_top" xlink:title="Set and Get working spectrum, aka default palette. NB: If colorbands are being used,...">
<polygon fill="white" stroke="#666666" points="254.38,-89.75 151.38,-89.75 151.38,-72 254.38,-72 254.38,-89.75"/>
<text text-anchor="middle" x="202.88" y="-78.15" font-family="SourceSans" font-size="8.00">svg::active_spectrum</text>
</a>
</g>
</g>
<!-- Node1&#45;&gt;Node2 -->
<g id="edge1_Node000001_Node000002" class="edge">
<title>Node1&#45;&gt;Node2</title>
<g id="a_edge1_Node000001_Node000002"><a xlink:title=" ">
<path fill="none" stroke="#63b8ff" d="M107.21,-69.32C117.76,-70.61 128.94,-71.97 139.77,-73.3"/>
<polygon fill="#63b8ff" stroke="#63b8ff" points="139.04,-76.73 149.39,-74.47 139.89,-69.78 139.04,-76.73"/>
</a>
</g>
</g>
<!-- Node5 -->
<g id="Node000005" class="node">
<title>Node5</title>
<g id="a_Node000005"><a xlink:href="namespacesvg.html#a80195ef46b7ed340c7a3f2a4b5eb6874" target="_top" xlink:title=" ">
<polygon fill="white" stroke="#666666" points="263,-53.75 142.75,-53.75 142.75,-36 263,-36 263,-53.75"/>
<text text-anchor="middle" x="202.88" y="-42.15" font-family="SourceSans" font-size="8.00">svg::make_color_band_v1</text>
</a>
</g>
</g>
<!-- Node1&#45;&gt;Node5 -->
<g id="edge4_Node000001_Node000005" class="edge">
<title>Node1&#45;&gt;Node5</title>
<g id="a_edge4_Node000001_Node000005"><a xlink:title=" ">
<path fill="none" stroke="#63b8ff" d="M107.21,-56.43C114.96,-55.48 123.05,-54.49 131.1,-53.51"/>
<polygon fill="#63b8ff" stroke="#63b8ff" points="131.39,-57 140.89,-52.32 130.54,-50.05 131.39,-57"/>
</a>
</g>
</g>
<!-- Node3 -->
<g id="Node000003" class="node">
<title>Node3</title>
<g id="a_Node000003"><a xlink:href="namespacesvg.html#a6ef86da421061b502a4cec162970c4e9" target="_top" xlink:title="Forwarding function.">
<polygon fill="white" stroke="#666666" points="400.88,-89.75 303.88,-89.75 303.88,-72 400.88,-72 400.88,-89.75"/>
<text text-anchor="middle" x="352.38" y="-78.15" font-family="SourceSans" font-size="8.00">svg::color_qf_lt_hue</text>
</a>
</g>
</g>
<!-- Node2&#45;&gt;Node3 -->
<g id="edge2_Node000002_Node000003" class="edge">
<title>Node2&#45;&gt;Node3</title>
<g id="a_edge2_Node000002_Node000003"><a xlink:title=" ">
<path fill="none" stroke="#63b8ff" d="M254.64,-80.88C266.76,-80.88 279.8,-80.88 292.26,-80.88"/>
<polygon fill="#63b8ff" stroke="#63b8ff" points="291.99,-84.38 301.99,-80.88 291.99,-77.38 291.99,-84.38"/>
</a>
</g>
</g>
<!-- Node4 -->
<g id="Node000004" class="node">
<title>Node4</title>
<g id="a_Node000004"><a xlink:href="namespacesvg.html#a804d33f9f3d2f0debdcfc4317f5b8487" target="_top" xlink:title=" ">
<polygon fill="white" stroke="#666666" points="552.25,-89.75 441.75,-89.75 441.75,-72 552.25,-72 552.25,-89.75"/>
<text text-anchor="middle" x="497" y="-78.15" font-family="SourceSans" font-size="8.00">svg::color_qf_lt_hue_v2</text>
</a>
</g>
</g>
<!-- Node3&#45;&gt;Node4 -->
<g id="edge3_Node000003_Node000004" class="edge">
<title>Node3&#45;&gt;Node4</title>
<g id="a_edge3_Node000003_Node000004"><a xlink:title=" ">
<path fill="none" stroke="#63b8ff" d="M401.26,-80.88C410.57,-80.88 420.48,-80.88 430.24,-80.88"/>
<polygon fill="#63b8ff" stroke="#63b8ff" points="430.08,-84.38 440.08,-80.88 430.08,-77.38 430.08,-84.38"/>
</a>
</g>
</g>
<!-- Node6 -->
<g id="Node000006" class="node">
<title>Node6</title>
<g id="a_Node000006"><a xlink:href="namespacesvg.html#abcad3fe27275ca32d7db21d8475f66ae" target="_top" xlink:title=" ">
<polygon fill="white" stroke="#666666" points="405.75,-53.75 299,-53.75 299,-36 405.75,-36 405.75,-53.75"/>
<text text-anchor="middle" x="352.38" y="-42.15" font-family="SourceSans" font-size="8.00">svg::combine_color_qi</text>
</a>
</g>
</g>
<!-- Node5&#45;&gt;Node6 -->
<g id="edge5_Node000005_Node000006" class="edge">
<title>Node5&#45;&gt;Node6</title>
<g id="a_edge5_Node000005_Node000006"><a xlink:title=" ">
<path fill="none" stroke="#63b8ff" d="M263.44,-44.88C271.29,-44.88 279.35,-44.88 287.27,-44.88"/>
<polygon fill="#63b8ff" stroke="#63b8ff" points="287.2,-48.38 297.2,-44.88 287.2,-41.38 287.2,-48.38"/>
</a>
</g>
</g>
<!-- Node7 -->
<g id="Node000007" class="node">
<title>Node7</title>
<g id="a_Node000007"><a xlink:href="namespacesvg.html#a36b1c48ad4601b205790e3772ad0a7b6" target="_top" xlink:title=" ">
<polygon fill="white" stroke="#666666" points="388.12,-17.75 316.62,-17.75 316.62,0 388.12,0 388.12,-17.75"/>
<text text-anchor="middle" x="352.38" y="-6.15" font-family="SourceSans" font-size="8.00">svg::to_string</text>
</a>
</g>
</g>
<!-- Node5&#45;&gt;Node7 -->
<g id="edge6_Node000005_Node000007" class="edge">
<title>Node5&#45;&gt;Node7</title>
<g id="a_edge6_Node000005_Node000007"><a xlink:title=" ">
<path fill="none" stroke="#63b8ff" d="M242.24,-35.51C261.46,-30.82 284.87,-25.11 305.07,-20.18"/>
<polygon fill="#63b8ff" stroke="#63b8ff" points="305.87,-23.58 314.76,-17.81 304.21,-16.78 305.87,-23.58"/>
</a>
</g>
</g>
</g>
</svg>
