<?xml version="1.0" encoding="UTF-8" standalone="no"?>
<!DOCTYPE svg PUBLIC "-//W3C//DTD SVG 1.1//EN"
 "http://www.w3.org/Graphics/SVG/1.1/DTD/svg11.dtd">
<!-- Generated by graphviz version 12.1.0 (20240811.2233)
 -->
<!-- Title: svg::styled_text_r Pages: 1 -->
<!--zoomable 365 -->

<svg id="main" version="1.1" xmlns="http://www.w3.org/2000/svg" xmlns:xlink="http://www.w3.org/1999/xlink" xml:space="preserve" onload="init(evt)">

<style type="text/css"><![CDATA[
.node, .edge {opacity: 0.7;}
.node.selected, .edge.selected {opacity: 1;}
.edge:hover path { stroke: red; }
.edge:hover polygon { stroke: red; fill: red; }
]]></style>

<defs>
  <circle id="rim" cx="0" cy="0" r="7"/>
  <circle id="rim2" cx="0" cy="0" r="3.5"/>
  <g id="zoomPlus">
    <use xlink:href="#rim" fill="#404040"><set attributeName="fill" to="#808080" begin="zoomplus.mouseover" end="zoomplus.mouseout"/></use>
    <path d="M-4,0h8M0,-4v8" fill="none" stroke="white" stroke-width="1.5" pointer-events="none"/>
  </g>
  <g id="zoomMin">
    <use xlink:href="#rim" fill="#404040"><set attributeName="fill" to="#808080" begin="zoomminus.mouseover" end="zoomminus.mouseout"/></use>
    <path d="M-4,0h8" fill="none" stroke="white" stroke-width="1.5" pointer-events="none"/>
  </g>
  <g id="arrowUp" transform="translate(30 24)">
    <use xlink:href="#rim"/>
    <path pointer-events="none" fill="none" stroke="white" stroke-width="1.5" d="M0,-3.0v7 M-2.5,-0.5L0,-3.0L2.5,-0.5"/>
  </g>
  <g id="arrowRight" transform="rotate(90) translate(36 -43)">
    <use xlink:href="#rim"/>
    <path pointer-events="none" fill="none" stroke="white" stroke-width="1.5" d="M0,-3.0v7 M-2.5,-0.5L0,-3.0L2.5,-0.5"/>
  </g>
  <g id="arrowDown" transform="rotate(180) translate(-30 -48)">
    <use xlink:href="#rim"/>
    <path pointer-events="none" fill="none" stroke="white" stroke-width="1.5" d="M0,-3.0v7 M-2.5,-0.5L0,-3.0L2.5,-0.5"/>
  </g>
  <g id="arrowLeft" transform="rotate(270) translate(-36 17)">
    <use xlink:href="#rim"/>
    <path pointer-events="none" fill="none" stroke="white" stroke-width="1.5" d="M0,-3.0v7 M-2.5,-0.5L0,-3.0L2.5,-0.5"/>
  </g>
  <g id="resetDef">
    <use xlink:href="#rim2" fill="#404040"><set attributeName="fill" to="#808080" begin="reset.mouseover" end="reset.mouseout"/></use>
  </g>
</defs>
<script type="application/ecmascript">
var viewWidth = 535;
var viewHeight = 365;
var sectionId = 'dynsection-84';
</script>
<script type="application/ecmascript" xlink:href="svg.min.js"/>
<svg id="graph" class="graph">
<g id="viewport">
<title>svg::styled_text_r</title>
<!-- Node1 -->
<g id="Node000001" class="node">
<title>Node1</title>
<g id="a_Node000001"><a xlink:title="Text at @origin, with style and ... a transformation=rotation of @deg about @rorigin.">
<polygon fill="#999999" stroke="#666666" points="86.5,-104.62 0,-104.62 0,-86.88 86.5,-86.88 86.5,-104.62"/>
<text text-anchor="middle" x="43.25" y="-93.03" font-family="SourceSans" font-size="8.00">svg::styled_text_r</text>
</a>
</g>
</g>
<!-- Node2 -->
<g id="Node000002" class="node">
<title>Node2</title>
<g id="a_Node000002"><a xlink:href="group__elements.html#aad29e1daf75bdcd69a39575a6807fa0f" target="_top" xlink:title="Either serialize immediately (as below), or create data structure that adds data to data_vec and then...">
<polygon fill="white" stroke="#666666" points="224.75,-260.5 130,-260.5 130,-233 224.75,-233 224.75,-260.5"/>
<text text-anchor="start" x="138" y="-248.9" font-family="SourceSans" font-size="8.00">svg::text_element::</text>
<text text-anchor="middle" x="177.38" y="-239.15" font-family="SourceSans" font-size="8.00">add_data</text>
</a>
</g>
</g>
<!-- Node1&#45;&gt;Node2 -->
<g id="edge1_Node000001_Node000002" class="edge">
<title>Node1&#45;&gt;Node2</title>
<g id="a_edge1_Node000001_Node000002"><a xlink:title=" ">
<path fill="none" stroke="#63b8ff" d="M52.12,-104.74C72.42,-127.94 127.02,-190.34 156.63,-224.18"/>
<polygon fill="#63b8ff" stroke="#63b8ff" points="153.71,-226.16 162.93,-231.38 158.98,-221.55 153.71,-226.16"/>
</a>
</g>
</g>
<!-- Node11 -->
<g id="Node000011" class="node">
<title>Node11</title>
<g id="a_Node000011"><a xlink:href="group__elements.html#aaa5f1a136f2b5c61d647a47ec53fe31d" target="_top" xlink:title=" ">
<polygon fill="white" stroke="#666666" points="232.25,-155.5 122.5,-155.5 122.5,-128 232.25,-128 232.25,-155.5"/>
<text text-anchor="start" x="130.5" y="-143.9" font-family="SourceSans" font-size="8.00">svg::svg_element::add</text>
<text text-anchor="middle" x="177.38" y="-134.15" font-family="SourceSans" font-size="8.00">_element</text>
</a>
</g>
</g>
<!-- Node1&#45;&gt;Node11 -->
<g id="edge14_Node000001_Node000011" class="edge">
<title>Node1&#45;&gt;Node11</title>
<g id="a_edge14_Node000001_Node000011"><a xlink:title=" ">
<path fill="none" stroke="#63b8ff" d="M70.99,-105.06C86.49,-110.46 106.54,-117.44 124.99,-123.86"/>
<polygon fill="#63b8ff" stroke="#63b8ff" points="123.59,-127.08 134.19,-127.06 125.89,-120.47 123.59,-127.08"/>
</a>
</g>
</g>
<!-- Node13 -->
<g id="Node000013" class="node">
<title>Node13</title>
<g id="a_Node000013"><a xlink:href="group__elements.html#ga13c46848317034d16c62a7d2061ba3d6" target="_top" xlink:title=" ">
<polygon fill="white" stroke="#666666" points="224.75,-109.5 130,-109.5 130,-82 224.75,-82 224.75,-109.5"/>
<text text-anchor="start" x="138" y="-97.9" font-family="SourceSans" font-size="8.00">svg::text_element::</text>
<text text-anchor="middle" x="177.38" y="-88.15" font-family="SourceSans" font-size="8.00">finish_element</text>
</a>
</g>
</g>
<!-- Node1&#45;&gt;Node13 -->
<g id="edge16_Node000001_Node000013" class="edge">
<title>Node1&#45;&gt;Node13</title>
<g id="a_edge16_Node000001_Node000013"><a xlink:title=" ">
<path fill="none" stroke="#63b8ff" d="M86.78,-95.75C96.87,-95.75 107.79,-95.75 118.43,-95.75"/>
<polygon fill="#63b8ff" stroke="#63b8ff" points="118.29,-99.25 128.29,-95.75 118.29,-92.25 118.29,-99.25"/>
</a>
</g>
</g>
<!-- Node15 -->
<g id="Node000015" class="node">
<title>Node15</title>
<g id="a_Node000015"><a xlink:href="structsvg_1_1transform.html#acf9836f4ba647f0dd2b53963a0f714d0" target="_top" xlink:title=" ">
<polygon fill="white" stroke="#666666" points="230.38,-63.62 124.38,-63.62 124.38,-45.88 230.38,-45.88 230.38,-63.62"/>
<text text-anchor="middle" x="177.38" y="-52.02" font-family="SourceSans" font-size="8.00">svg::transform::rotate</text>
</a>
</g>
</g>
<!-- Node1&#45;&gt;Node15 -->
<g id="edge18_Node000001_Node000015" class="edge">
<title>Node1&#45;&gt;Node15</title>
<g id="a_edge18_Node000001_Node000015"><a xlink:title=" ">
<path fill="none" stroke="#63b8ff" d="M74.23,-86.45C92.39,-80.81 115.8,-73.55 135.62,-67.4"/>
<polygon fill="#63b8ff" stroke="#63b8ff" points="136.55,-70.77 145.07,-64.47 134.48,-64.09 136.55,-70.77"/>
</a>
</g>
</g>
<!-- Node16 -->
<g id="Node000016" class="node">
<title>Node16</title>
<g id="a_Node000016"><a xlink:href="group__elements.html#ae45bec611a6ec17ea46aab6d680ae042" target="_top" xlink:title=" ">
<polygon fill="white" stroke="#666666" points="224.75,-27.5 130,-27.5 130,0 224.75,0 224.75,-27.5"/>
<text text-anchor="start" x="138" y="-15.9" font-family="SourceSans" font-size="8.00">svg::text_element::</text>
<text text-anchor="middle" x="177.38" y="-6.15" font-family="SourceSans" font-size="8.00">start_element</text>
</a>
</g>
</g>
<!-- Node1&#45;&gt;Node16 -->
<g id="edge19_Node000001_Node000016" class="edge">
<title>Node1&#45;&gt;Node16</title>
<g id="a_edge19_Node000001_Node000016"><a xlink:title=" ">
<path fill="none" stroke="#63b8ff" d="M54.81,-86.46C69.32,-74.01 96.58,-51.75 122.5,-36.75 124.8,-35.42 127.2,-34.12 129.64,-32.86"/>
<polygon fill="#63b8ff" stroke="#63b8ff" points="131.01,-36.08 138.49,-28.57 127.96,-29.78 131.01,-36.08"/>
</a>
</g>
</g>
<!-- Node3 -->
<g id="Node000003" class="node">
<title>Node3</title>
<g id="a_Node000003"><a xlink:href="structsvg_1_1typography.html#adbc62f74f1fed3f7c77567250f084f83" target="_top" xlink:title=" ">
<polygon fill="white" stroke="#666666" points="377.62,-283.5 273.88,-283.5 273.88,-256 377.62,-256 377.62,-283.5"/>
<text text-anchor="start" x="281.88" y="-271.9" font-family="SourceSans" font-size="8.00">svg::typography::add</text>
<text text-anchor="middle" x="325.75" y="-262.15" font-family="SourceSans" font-size="8.00">_attribute</text>
</a>
</g>
</g>
<!-- Node2&#45;&gt;Node3 -->
<g id="edge2_Node000002_Node000003" class="edge">
<title>Node2&#45;&gt;Node3</title>
<g id="a_edge2_Node000002_Node000003"><a xlink:title=" ">
<path fill="none" stroke="#63b8ff" d="M225.09,-254.09C236.88,-255.94 249.72,-257.96 262.15,-259.91"/>
<polygon fill="#63b8ff" stroke="#63b8ff" points="261.49,-263.35 271.91,-261.45 262.58,-256.44 261.49,-263.35"/>
</a>
</g>
</g>
<!-- Node6 -->
<g id="Node000006" class="node">
<title>Node6</title>
<g id="a_Node000006"><a xlink:href="namespacesvg.html#a48ac748e89e22789d1772326a98dd7b6" target="_top" xlink:title=" ">
<polygon fill="white" stroke="#666666" points="519.62,-356.62 426.38,-356.62 426.38,-338.88 519.62,-338.88 519.62,-356.62"/>
<text text-anchor="middle" x="473" y="-345.02" font-family="SourceSans" font-size="8.00">svg::string_replace</text>
</a>
</g>
</g>
<!-- Node2&#45;&gt;Node6 -->
<g id="edge12_Node000002_Node000006" class="edge">
<title>Node2&#45;&gt;Node6</title>
<g id="a_edge12_Node000002_Node000006"><a xlink:title=" ">
<path fill="none" stroke="#63b8ff" d="M192.17,-260.99C208.66,-277.08 237.88,-302.72 268.25,-315.75 315.02,-335.82 372.67,-343.46 414.69,-346.3"/>
<polygon fill="#63b8ff" stroke="#63b8ff" points="414.41,-349.79 424.6,-346.89 414.82,-342.8 414.41,-349.79"/>
</a>
</g>
</g>
<!-- Node7 -->
<g id="Node000007" class="node">
<title>Node7</title>
<g id="a_Node000007"><a xlink:href="namespacesvg.html#a36b1c48ad4601b205790e3772ad0a7b6" target="_top" xlink:title=" ">
<polygon fill="white" stroke="#666666" points="508.75,-319.62 437.25,-319.62 437.25,-301.88 508.75,-301.88 508.75,-319.62"/>
<text text-anchor="middle" x="473" y="-308.02" font-family="SourceSans" font-size="8.00">svg::to_string</text>
</a>
</g>
</g>
<!-- Node2&#45;&gt;Node7 -->
<g id="edge13_Node000002_Node000007" class="edge">
<title>Node2&#45;&gt;Node7</title>
<g id="a_edge13_Node000002_Node000007"><a xlink:title=" ">
<path fill="none" stroke="#63b8ff" d="M199.91,-260.79C217.53,-271.51 243.49,-285.61 268.25,-292.75 320.69,-307.86 383.6,-311.32 425.51,-311.66"/>
<polygon fill="#63b8ff" stroke="#63b8ff" points="425.49,-315.16 435.5,-311.68 425.51,-308.16 425.49,-315.16"/>
</a>
</g>
</g>
<!-- Node9 -->
<g id="Node000009" class="node">
<title>Node9</title>
<g id="a_Node000009"><a xlink:href="group__elements.html#a1ed006cabdb9c531c2bd8e27ea9e0966" target="_top" xlink:title=" ">
<polygon fill="white" stroke="#666666" points="373.12,-237.5 278.38,-237.5 278.38,-210 373.12,-210 373.12,-237.5"/>
<text text-anchor="start" x="286.38" y="-225.9" font-family="SourceSans" font-size="8.00">svg::text_element::</text>
<text text-anchor="middle" x="325.75" y="-216.15" font-family="SourceSans" font-size="8.00">add_text</text>
</a>
</g>
</g>
<!-- Node2&#45;&gt;Node9 -->
<g id="edge8_Node000002_Node000009" class="edge">
<title>Node2&#45;&gt;Node9</title>
<g id="a_edge8_Node000002_Node000009"><a xlink:title=" ">
<path fill="none" stroke="#63b8ff" d="M225.09,-239.41C238.3,-237.33 252.83,-235.05 266.61,-232.88"/>
<polygon fill="#63b8ff" stroke="#63b8ff" points="267.14,-236.34 276.48,-231.33 266.06,-229.43 267.14,-236.34"/>
</a>
</g>
</g>
<!-- Node10 -->
<g id="Node000010" class="node">
<title>Node10</title>
<g id="a_Node000010"><a xlink:href="group__elements.html#a53d72a7ff728ad1d4d027254530bcf3d" target="_top" xlink:title="Common transforms include rotate(180)">
<polygon fill="white" stroke="#666666" points="375.75,-191.5 275.75,-191.5 275.75,-164 375.75,-164 375.75,-191.5"/>
<text text-anchor="start" x="283.75" y="-179.9" font-family="SourceSans" font-size="8.00">svg::element_base::</text>
<text text-anchor="middle" x="325.75" y="-170.15" font-family="SourceSans" font-size="8.00">add_transform</text>
</a>
</g>
</g>
<!-- Node2&#45;&gt;Node10 -->
<g id="edge9_Node000002_Node000010" class="edge">
<title>Node2&#45;&gt;Node10</title>
<g id="a_edge9_Node000002_Node000010"><a xlink:title=" ">
<path fill="none" stroke="#63b8ff" d="M204.43,-232.66C222.22,-223.23 246.42,-210.76 268.25,-200.75 271.52,-199.25 274.92,-197.74 278.36,-196.26"/>
<polygon fill="#63b8ff" stroke="#63b8ff" points="279.44,-199.6 287.29,-192.48 276.72,-193.15 279.44,-199.6"/>
</a>
</g>
</g>
<!-- Node4 -->
<g id="Node000004" class="node">
<title>Node4</title>
<g id="a_Node000004"><a xlink:href="namespacesvg_1_1constants.html#a3972655f1dfdc090ec2592d1fb37e87c" target="_top" xlink:title=" ">
<polygon fill="white" stroke="#666666" points="526.38,-190.62 419.62,-190.62 419.62,-172.88 526.38,-172.88 526.38,-190.62"/>
<text text-anchor="middle" x="473" y="-179.03" font-family="SourceSans" font-size="8.00">svg::constants::quote</text>
</a>
</g>
</g>
<!-- Node3&#45;&gt;Node4 -->
<g id="edge3_Node000003_Node000004" class="edge">
<title>Node3&#45;&gt;Node4</title>
<g id="a_edge3_Node000003_Node000004"><a xlink:title=" ">
<path fill="none" stroke="#63b8ff" d="M368.03,-255.53C373.35,-252.96 378.57,-250.04 383.25,-246.75 402.82,-233 400.07,-221.04 419.25,-206.75 424.66,-202.72 430.83,-199.09 437,-195.93"/>
<polygon fill="#63b8ff" stroke="#63b8ff" points="438.34,-199.17 445.87,-191.71 435.33,-192.85 438.34,-199.17"/>
</a>
</g>
</g>
<!-- Node5 -->
<g id="Node000005" class="node">
<title>Node5</title>
<g id="a_Node000005"><a xlink:href="namespacesvg_1_1constants.html#ac460bc8db60d85c3ae1cf8b1a903405e" target="_top" xlink:title="Formatting character constants.">
<polygon fill="white" stroke="#666666" points="526.75,-233.62 419.25,-233.62 419.25,-215.88 526.75,-215.88 526.75,-233.62"/>
<text text-anchor="middle" x="473" y="-222.03" font-family="SourceSans" font-size="8.00">svg::constants::space</text>
</a>
</g>
</g>
<!-- Node3&#45;&gt;Node5 -->
<g id="edge4_Node000003_Node000005" class="edge">
<title>Node3&#45;&gt;Node5</title>
<g id="a_edge4_Node000003_Node000005"><a xlink:title=" ">
<path fill="none" stroke="#63b8ff" d="M372.71,-255.51C391.43,-249.71 412.9,-243.06 431.07,-237.43"/>
<polygon fill="#63b8ff" stroke="#63b8ff" points="431.94,-240.82 440.46,-234.52 429.87,-234.14 431.94,-240.82"/>
</a>
</g>
</g>
<!-- Node3&#45;&gt;Node6 -->
<g id="edge5_Node000003_Node000006" class="edge">
<title>Node3&#45;&gt;Node6</title>
<g id="a_edge5_Node000003_Node000006"><a xlink:title=" ">
<path fill="none" stroke="#63b8ff" d="M346.21,-283.97C364.43,-296.85 392.75,-315.73 419.25,-328.75 423.26,-330.72 427.53,-332.6 431.84,-334.35"/>
<polygon fill="#63b8ff" stroke="#63b8ff" points="430.5,-337.58 441.09,-337.89 433,-331.04 430.5,-337.58"/>
</a>
</g>
</g>
<!-- Node3&#45;&gt;Node7 -->
<g id="edge6_Node000003_Node000007" class="edge">
<title>Node3&#45;&gt;Node7</title>
<g id="a_edge6_Node000003_Node000007"><a xlink:title=" ">
<path fill="none" stroke="#63b8ff" d="M377.14,-283.97C393.79,-288.67 412.15,-293.86 428.26,-298.4"/>
<polygon fill="#63b8ff" stroke="#63b8ff" points="426.97,-301.67 437.54,-301.02 428.87,-294.94 426.97,-301.67"/>
</a>
</g>
</g>
<!-- Node8 -->
<g id="Node000008" class="node">
<title>Node8</title>
<g id="a_Node000008"><a xlink:href="structsvg_1_1typography.html#a174c1ffb4e56214d71523ffe7e422561" target="_top" xlink:title=" ">
<polygon fill="white" stroke="#666666" points="521.12,-283.5 424.88,-283.5 424.88,-256 521.12,-256 521.12,-283.5"/>
<text text-anchor="start" x="432.88" y="-271.9" font-family="SourceSans" font-size="8.00">svg::typography::to</text>
<text text-anchor="middle" x="473" y="-262.15" font-family="SourceSans" font-size="8.00">_string</text>
</a>
</g>
</g>
<!-- Node3&#45;&gt;Node8 -->
<g id="edge7_Node000003_Node000008" class="edge">
<title>Node3&#45;&gt;Node8</title>
<g id="a_edge7_Node000003_Node000008"><a xlink:title=" ">
<path fill="none" stroke="#63b8ff" d="M377.96,-269.75C389.35,-269.75 401.52,-269.75 413.19,-269.75"/>
<polygon fill="#63b8ff" stroke="#63b8ff" points="413.14,-273.25 423.14,-269.75 413.14,-266.25 413.14,-273.25"/>
</a>
</g>
</g>
<!-- Node10&#45;&gt;Node4 -->
<g id="edge10_Node000010_Node000004" class="edge">
<title>Node10&#45;&gt;Node4</title>
<g id="a_edge10_Node000010_Node000004"><a xlink:title=" ">
<path fill="none" stroke="#63b8ff" d="M375.93,-179.1C386.14,-179.39 397.05,-179.69 407.71,-179.98"/>
<polygon fill="#63b8ff" stroke="#63b8ff" points="407.54,-183.48 417.63,-180.25 407.73,-176.48 407.54,-183.48"/>
</a>
</g>
</g>
<!-- Node10&#45;&gt;Node5 -->
<g id="edge11_Node000010_Node000005" class="edge">
<title>Node10&#45;&gt;Node5</title>
<g id="a_edge11_Node000010_Node000005"><a xlink:title=" ">
<path fill="none" stroke="#63b8ff" d="M370.72,-191.98C390.41,-198.35 413.43,-205.8 432.55,-211.99"/>
<polygon fill="#63b8ff" stroke="#63b8ff" points="431.27,-215.25 441.86,-215 433.43,-208.59 431.27,-215.25"/>
</a>
</g>
</g>
<!-- Node12 -->
<g id="Node000012" class="node">
<title>Node12</title>
<g id="a_Node000012"><a xlink:href="group__elements.html#ad893ef9c13a15464c96d8a85c08af30f" target="_top" xlink:title=" ">
<polygon fill="white" stroke="#666666" points="381,-145.62 270.5,-145.62 270.5,-127.88 381,-127.88 381,-145.62"/>
<text text-anchor="middle" x="325.75" y="-134.03" font-family="SourceSans" font-size="8.00">svg::element_base::str</text>
</a>
</g>
</g>
<!-- Node11&#45;&gt;Node12 -->
<g id="edge15_Node000011_Node000012" class="edge">
<title>Node11&#45;&gt;Node12</title>
<g id="a_edge15_Node000011_Node000012"><a xlink:title=" ">
<path fill="none" stroke="#63b8ff" d="M232.46,-139.9C241.07,-139.61 250.06,-139.3 258.9,-139"/>
<polygon fill="#63b8ff" stroke="#63b8ff" points="259.01,-142.5 268.88,-138.66 258.77,-135.5 259.01,-142.5"/>
</a>
</g>
</g>
<!-- Node14 -->
<g id="Node000014" class="node">
<title>Node14</title>
<g id="a_Node000014"><a xlink:href="namespacesvg_1_1constants.html#aa7f04c2ea699a1b1e2e790de5ac33f38" target="_top" xlink:title=" ">
<polygon fill="white" stroke="#666666" points="383.25,-104.62 268.25,-104.62 268.25,-86.88 383.25,-86.88 383.25,-104.62"/>
<text text-anchor="middle" x="325.75" y="-93.03" font-family="SourceSans" font-size="8.00">svg::constants::newline</text>
</a>
</g>
</g>
<!-- Node13&#45;&gt;Node14 -->
<g id="edge17_Node000013_Node000014" class="edge">
<title>Node13&#45;&gt;Node14</title>
<g id="a_edge17_Node000013_Node000014"><a xlink:title=" ">
<path fill="none" stroke="#63b8ff" d="M225.09,-95.75C235.11,-95.75 245.89,-95.75 256.53,-95.75"/>
<polygon fill="#63b8ff" stroke="#63b8ff" points="256.46,-99.25 266.46,-95.75 256.46,-92.25 256.46,-99.25"/>
</a>
</g>
</g>
</g>
</svg>

<g id="navigator" transform="translate(0 0)" fill="#404254">
  <rect fill="#f2f5e9" fill-opacity="0.5" stroke="#606060" stroke-width=".5" x="0" y="0" width="60" height="60"/>
  <use id="zoomplus" xlink:href="#zoomPlus" x="17" y="9" onmousedown="handleZoom(evt,'in')"/>
  <use id="zoomminus" xlink:href="#zoomMin" x="42" y="9" onmousedown="handleZoom(evt,'out')"/>
  <use id="reset" xlink:href="#resetDef" x="30" y="36" onmousedown="handleReset()"/>
   <use id="arrowup" xlink:href="#arrowUp" x="0" y="0" onmousedown="handlePan(0,-1)"/>
  <use id="arrowright" xlink:href="#arrowRight" x="0" y="0" onmousedown="handlePan(1,0)"/>
  <use id="arrowdown" xlink:href="#arrowDown" x="0" y="0" onmousedown="handlePan(0,1)"/>
  <use id="arrowleft" xlink:href="#arrowLeft" x="0" y="0" onmousedown="handlePan(-1,0)"/>
</g>
<svg viewBox="0 0 15 15" width="100%" height="30px" preserveAspectRatio="xMaxYMin meet">
 <g id="arrow_out" transform="scale(0.3 0.3)">
  <a xlink:href="namespacesvg_a5791c1fc9121f01e5f666b7ce0367dfa_cgraph_org.svg" target="_base">
   <rect id="button" ry="5" rx="5" y="6" x="6" height="38" width="38"
        fill="#f2f5e9" fill-opacity="0.5" stroke="#606060" stroke-width="1.0"/>
   <path id="arrow"
     d="M 11.500037,31.436501 C 11.940474,20.09759 22.043105,11.32322 32.158766,21.979434 L 37.068811,17.246167 C 37.068811,17.246167 37.088388,32 37.088388,32 L 22.160133,31.978069 C 22.160133,31.978069 26.997745,27.140456 26.997745,27.140456 C 18.528582,18.264221 13.291696,25.230495 11.500037,31.436501 z"
     style="fill:#404040;"/>
  </a>
 </g>
</svg>

<style type='text/css'>
<![CDATA[
[data-mouse-over-selected='false'] { opacity: 0.7; }
[data-mouse-over-selected='true']  { opacity: 1.0; }
]]>
</style>
<script type="application/ecmascript"><![CDATA[
document.addEventListener('DOMContentLoaded', (event) => {
  highlightEdges();
  highlightAdjacentNodes();
});
]]></script>
</svg>
