<?xml version="1.0" encoding="UTF-8" standalone="no"?>
<!DOCTYPE svg PUBLIC "-//W3C//DTD SVG 1.1//EN"
 "http://www.w3.org/Graphics/SVG/1.1/DTD/svg11.dtd">
<!-- Generated by graphviz version 13.1.2 (20250808.2320)
 -->
<!-- Title: svg::make_rect Pages: 1 -->
<svg width="331pt" height="240pt"
 viewBox="0.00 0.00 331.00 240.00" xmlns="http://www.w3.org/2000/svg" xmlns:xlink="http://www.w3.org/1999/xlink">

<svg id="main" version="1.1" xmlns="http://www.w3.org/2000/svg" xmlns:xlink="http://www.w3.org/1999/xlink" xml:space="preserve">

<style type="text/css"><![CDATA[
.node, .edge {opacity: 0.7;}
.node.selected, .edge.selected {opacity: 1;}
.edge:hover path { stroke: red; }
.edge:hover polygon { stroke: red; fill: red; }
]]></style>
<script type="application/ecmascript" xlink:href="svg.min.js"/>
<svg id="graph" class="graph">
<g id="graph0" class="graph" transform="scale(1 1) rotate(0) translate(4 236)">
<title>svg::make_rect</title>
<!-- Node1 -->
<g id="Node000001" class="node">
<title>Node1</title>
<g id="a_Node000001"><a xlink:title="Create rect_element at origin.">
<polygon fill="#999999" stroke="#666666" points="72.25,-126 0,-126 0,-106 72.25,-106 72.25,-126"/>
<text xml:space="preserve" text-anchor="middle" x="36.12" y="-114.4" font-family="SourceSans" font-size="8.00">svg::make_rect</text>
</a>
</g>
</g>
<!-- Node2 -->
<g id="Node000002" class="node">
<title>Node2</title>
<g id="a_Node000002"><a xlink:href="group__elements.html#a1dd6663d882fb5dd14a47462a77f351b" target="_top" xlink:title="Either serialize immediately (as below), or create data structure that adds data to data_vec and then...">
<polygon fill="white" stroke="#666666" points="197.38,-232 110.12,-232 110.12,-200 197.38,-200 197.38,-232"/>
<text xml:space="preserve" text-anchor="start" x="118.12" y="-220.4" font-family="SourceSans" font-size="8.00">svg::rect_element::</text>
<text xml:space="preserve" text-anchor="middle" x="153.75" y="-208.4" font-family="SourceSans" font-size="8.00">add_data</text>
</a>
</g>
</g>
<!-- Node1&#45;&gt;Node2 -->
<g id="edge1_Node000001_Node000002" class="edge">
<title>Node1&#45;&gt;Node2</title>
<g id="a_edge1_Node000001_Node000002"><a xlink:title=" ">
<path fill="none" stroke="#63b8ff" d="M45.26,-126.4C57.68,-141.81 82.63,-171.04 108.25,-191 109.35,-191.86 110.48,-192.7 111.64,-193.54"/>
<polygon fill="#63b8ff" stroke="#63b8ff" points="109.34,-196.21 119.61,-198.81 113.21,-190.38 109.34,-196.21"/>
</a>
</g>
</g>
<!-- Node4 -->
<g id="Node000004" class="node">
<title>Node4</title>
<g id="a_Node000004"><a xlink:href="group__elements.html#a1b22cfab9437b40c8b877ffe5472ff02" target="_top" xlink:title=" ">
<polygon fill="white" stroke="#666666" points="199.25,-182 108.25,-182 108.25,-150 199.25,-150 199.25,-182"/>
<text xml:space="preserve" text-anchor="start" x="116.25" y="-170.4" font-family="SourceSans" font-size="8.00">svg::element_base::</text>
<text xml:space="preserve" text-anchor="middle" x="153.75" y="-158.4" font-family="SourceSans" font-size="8.00">add_filter</text>
</a>
</g>
</g>
<!-- Node1&#45;&gt;Node4 -->
<g id="edge3_Node000001_Node000004" class="edge">
<title>Node1&#45;&gt;Node4</title>
<g id="a_edge3_Node000001_Node000004"><a xlink:title=" ">
<path fill="none" stroke="#63b8ff" d="M61.36,-126.48C73.95,-131.93 89.8,-138.78 104.74,-145.24"/>
<polygon fill="#63b8ff" stroke="#63b8ff" points="102.93,-148.27 113.5,-149.03 105.71,-141.84 102.93,-148.27"/>
</a>
</g>
</g>
<!-- Node5 -->
<g id="Node000005" class="node">
<title>Node5</title>
<g id="a_Node000005"><a xlink:href="group__elements.html#a238b38ca99a1cf6c2baf80c8e4338d99" target="_top" xlink:title=" ">
<polygon fill="white" stroke="#666666" points="199.25,-132 108.25,-132 108.25,-100 199.25,-100 199.25,-132"/>
<text xml:space="preserve" text-anchor="start" x="116.25" y="-120.4" font-family="SourceSans" font-size="8.00">svg::element_base::</text>
<text xml:space="preserve" text-anchor="middle" x="153.75" y="-108.4" font-family="SourceSans" font-size="8.00">add_style</text>
</a>
</g>
</g>
<!-- Node1&#45;&gt;Node5 -->
<g id="edge4_Node000001_Node000005" class="edge">
<title>Node1&#45;&gt;Node5</title>
<g id="a_edge4_Node000001_Node000005"><a xlink:title=" ">
<path fill="none" stroke="#63b8ff" d="M72.44,-116C80.03,-116 88.22,-116 96.38,-116"/>
<polygon fill="#63b8ff" stroke="#63b8ff" points="96.31,-119.5 106.31,-116 96.31,-112.5 96.31,-119.5"/>
</a>
</g>
</g>
<!-- Node7 -->
<g id="Node000007" class="node">
<title>Node7</title>
<g id="a_Node000007"><a xlink:href="group__elements.html#gad01750ac554c6bd6871a930c90e17a04" target="_top" xlink:title=" ">
<polygon fill="white" stroke="#666666" points="197.38,-82 110.12,-82 110.12,-50 197.38,-50 197.38,-82"/>
<text xml:space="preserve" text-anchor="start" x="118.12" y="-70.4" font-family="SourceSans" font-size="8.00">svg::rect_element::</text>
<text xml:space="preserve" text-anchor="middle" x="153.75" y="-58.4" font-family="SourceSans" font-size="8.00">finish_element</text>
</a>
</g>
</g>
<!-- Node1&#45;&gt;Node7 -->
<g id="edge6_Node000001_Node000007" class="edge">
<title>Node1&#45;&gt;Node7</title>
<g id="a_edge6_Node000001_Node000007"><a xlink:title=" ">
<path fill="none" stroke="#63b8ff" d="M61.36,-105.52C73.95,-100.07 89.8,-93.22 104.74,-86.76"/>
<polygon fill="#63b8ff" stroke="#63b8ff" points="105.71,-90.16 113.5,-82.97 102.93,-83.73 105.71,-90.16"/>
</a>
</g>
</g>
<!-- Node8 -->
<g id="Node000008" class="node">
<title>Node8</title>
<g id="a_Node000008"><a xlink:href="group__elements.html#a1e0ed5e9dfe1244317a87d7e6774348b" target="_top" xlink:title=" ">
<polygon fill="white" stroke="#666666" points="197.38,-32 110.12,-32 110.12,0 197.38,0 197.38,-32"/>
<text xml:space="preserve" text-anchor="start" x="118.12" y="-20.4" font-family="SourceSans" font-size="8.00">svg::rect_element::</text>
<text xml:space="preserve" text-anchor="middle" x="153.75" y="-8.4" font-family="SourceSans" font-size="8.00">start_element</text>
</a>
</g>
</g>
<!-- Node1&#45;&gt;Node8 -->
<g id="edge7_Node000001_Node000008" class="edge">
<title>Node1&#45;&gt;Node8</title>
<g id="a_edge7_Node000001_Node000008"><a xlink:title=" ">
<path fill="none" stroke="#63b8ff" d="M45.26,-105.6C57.68,-90.19 82.63,-60.96 108.25,-41 109.35,-40.14 110.48,-39.3 111.64,-38.46"/>
<polygon fill="#63b8ff" stroke="#63b8ff" points="113.21,-41.62 119.61,-33.19 109.34,-35.79 113.21,-41.62"/>
</a>
</g>
</g>
<!-- Node3 -->
<g id="Node000003" class="node">
<title>Node3</title>
<g id="a_Node000003"><a xlink:href="namespacesvg.html#a48ac748e89e22789d1772326a98dd7b6" target="_top" xlink:title=" ">
<polygon fill="white" stroke="#666666" points="322.5,-226 235.25,-226 235.25,-206 322.5,-206 322.5,-226"/>
<text xml:space="preserve" text-anchor="middle" x="278.88" y="-214.4" font-family="SourceSans" font-size="8.00">svg::string_replace</text>
</a>
</g>
</g>
<!-- Node2&#45;&gt;Node3 -->
<g id="edge2_Node000002_Node000003" class="edge">
<title>Node2&#45;&gt;Node3</title>
<g id="a_edge2_Node000002_Node000003"><a xlink:title=" ">
<path fill="none" stroke="#63b8ff" d="M197.81,-216C206.2,-216 215.1,-216 223.79,-216"/>
<polygon fill="#63b8ff" stroke="#63b8ff" points="223.53,-219.5 233.53,-216 223.53,-212.5 223.53,-219.5"/>
</a>
</g>
</g>
<!-- Node6 -->
<g id="Node000006" class="node">
<title>Node6</title>
<g id="a_Node000006"><a xlink:href="namespacesvg.html#a36b1c48ad4601b205790e3772ad0a7b6" target="_top" xlink:title=" ">
<polygon fill="white" stroke="#666666" points="312.38,-126 245.38,-126 245.38,-106 312.38,-106 312.38,-126"/>
<text xml:space="preserve" text-anchor="middle" x="278.88" y="-114.4" font-family="SourceSans" font-size="8.00">svg::to_string</text>
</a>
</g>
</g>
<!-- Node5&#45;&gt;Node6 -->
<g id="edge5_Node000005_Node000006" class="edge">
<title>Node5&#45;&gt;Node6</title>
<g id="a_edge5_Node000005_Node000006"><a xlink:title=" ">
<path fill="none" stroke="#63b8ff" d="M199.55,-116C210.67,-116 222.59,-116 233.69,-116"/>
<polygon fill="#63b8ff" stroke="#63b8ff" points="233.37,-119.5 243.37,-116 233.37,-112.5 233.37,-119.5"/>
</a>
</g>
</g>
</g>
</svg>
</svg>

<style type='text/css'>
<![CDATA[
[data-mouse-over-selected='false'] { opacity: 0.7; }
[data-mouse-over-selected='true']  { opacity: 1.0; }
]]>
</style>
<script type="application/ecmascript"><![CDATA[
document.addEventListener('DOMContentLoaded', (event) => {
  highlightEdges();
  highlightAdjacentNodes();
});
]]></script>
</svg>
