<?xml version="1.0" encoding="UTF-8" standalone="no"?>
<!DOCTYPE svg PUBLIC "-//W3C//DTD SVG 1.1//EN"
 "http://www.w3.org/Graphics/SVG/1.1/DTD/svg11.dtd">
<!-- Generated by graphviz version 12.2.1 (20241206.2353)
 -->
<!-- Title: svg::make_line_graph Pages: 1 -->
<svg width="776pt" height="704pt"
 viewBox="0.00 0.00 776.00 704.00" xmlns="http://www.w3.org/2000/svg" xmlns:xlink="http://www.w3.org/1999/xlink">
<g id="graph0" class="graph" transform="scale(1 1) rotate(0) translate(4 700)">
<title>svg::make_line_graph</title>
<!-- Node1 -->
<g id="Node000001" class="node">
<title>Node1</title>
<g id="a_Node000001"><a xlink:title="Returns a svg_element with the chart and labels Assume: vgrange x axis is monotonically increasing.">
<polygon fill="#999999" stroke="#666666" points="99.25,-315 0,-315 0,-295 99.25,-295 99.25,-315"/>
<text text-anchor="middle" x="49.62" y="-303.4" font-family="SourceSans" font-size="8.00">svg::make_line_graph</text>
</a>
</g>
</g>
<!-- Node2 -->
<g id="Node000002" class="node">
<title>Node2</title>
<g id="a_Node000002"><a xlink:href="group__elements.html#aaa5f1a136f2b5c61d647a47ec53fe31d" target="_top" xlink:title=" ">
<polygon fill="white" stroke="#666666" points="506.5,-508 405.75,-508 405.75,-476 506.5,-476 506.5,-508"/>
<text text-anchor="start" x="413.75" y="-496.4" font-family="SourceSans" font-size="8.00">svg::svg_element::add</text>
<text text-anchor="middle" x="456.12" y="-484.4" font-family="SourceSans" font-size="8.00">_element</text>
</a>
</g>
</g>
<!-- Node1&#45;&gt;Node2 -->
<g id="edge1_Node000001_Node000002" class="edge">
<title>Node1&#45;&gt;Node2</title>
<g id="a_edge1_Node000001_Node000002"><a xlink:title=" ">
<path fill="none" stroke="#63b8ff" d="M99.62,-307.88C183.98,-313.26 349.56,-325.88 369.75,-343 413.52,-380.12 369.12,-422.83 405.75,-467 406.09,-467.41 406.43,-467.81 406.79,-468.2"/>
<polygon fill="#63b8ff" stroke="#63b8ff" points="404.24,-470.63 414.04,-474.65 408.89,-465.39 404.24,-470.63"/>
</a>
</g>
</g>
<!-- Node4 -->
<g id="Node000004" class="node">
<title>Node4</title>
<g id="a_Node000004"><a xlink:href="group__elements.html#acafbdd950c6c2639c9d376c3eab696e5" target="_top" xlink:title=" ">
<polygon fill="white" stroke="#666666" points="501.62,-320 410.62,-320 410.62,-288 501.62,-288 501.62,-320"/>
<text text-anchor="start" x="418.62" y="-308.4" font-family="SourceSans" font-size="8.00">svg::element_base::</text>
<text text-anchor="middle" x="456.12" y="-296.4" font-family="SourceSans" font-size="8.00">add_raw</text>
</a>
</g>
</g>
<!-- Node1&#45;&gt;Node4 -->
<g id="edge3_Node000001_Node000004" class="edge">
<title>Node1&#45;&gt;Node4</title>
<g id="a_edge3_Node000001_Node000004"><a xlink:title=" ">
<path fill="none" stroke="#63b8ff" d="M99.42,-304.88C174.82,-304.69 319.26,-304.34 398.93,-304.14"/>
<polygon fill="#63b8ff" stroke="#63b8ff" points="398.69,-307.64 408.68,-304.11 398.67,-300.64 398.69,-307.64"/>
</a>
</g>
</g>
<!-- Node5 -->
<g id="Node000005" class="node">
<title>Node5</title>
<g id="a_Node000005"><a xlink:href="group__elements.html#a71cf2eb89a562527f14c4ca4c027c2b9" target="_top" xlink:title=" ">
<polygon fill="white" stroke="#666666" points="366,-624 274.25,-624 274.25,-592 366,-592 366,-624"/>
<text text-anchor="start" x="282.25" y="-612.4" font-family="SourceSans" font-size="8.00">svg::group_element</text>
<text text-anchor="middle" x="320.12" y="-600.4" font-family="SourceSans" font-size="8.00">::finish_group</text>
</a>
</g>
</g>
<!-- Node1&#45;&gt;Node5 -->
<g id="edge4_Node000001_Node000005" class="edge">
<title>Node1&#45;&gt;Node5</title>
<g id="a_edge4_Node000001_Node000005"><a xlink:title=" ">
<path fill="none" stroke="#63b8ff" d="M52.99,-315.11C60.48,-345.29 86.1,-436.22 135.25,-494 171.29,-536.37 227.18,-567.87 267.88,-586.9"/>
<polygon fill="#63b8ff" stroke="#63b8ff" points="266.21,-589.99 276.76,-590.96 269.12,-583.62 266.21,-589.99"/>
</a>
</g>
</g>
<!-- Node6 -->
<g id="Node000006" class="node">
<title>Node6</title>
<g id="a_Node000006"><a xlink:href="namespacesvg.html#a125d6a3870546ad30f77a4ac908cd774" target="_top" xlink:title="Axis Labels Axis X/Y Ticmarks.">
<polygon fill="white" stroke="#666666" points="234.5,-485 135.25,-485 135.25,-453 234.5,-453 234.5,-485"/>
<text text-anchor="start" x="143.25" y="-473.4" font-family="SourceSans" font-size="8.00">svg::make_line_graph</text>
<text text-anchor="middle" x="184.88" y="-461.4" font-family="SourceSans" font-size="8.00">_annotations</text>
</a>
</g>
</g>
<!-- Node1&#45;&gt;Node6 -->
<g id="edge5_Node000001_Node000006" class="edge">
<title>Node1&#45;&gt;Node6</title>
<g id="a_edge5_Node000001_Node000006"><a xlink:title=" ">
<path fill="none" stroke="#63b8ff" d="M58.96,-315.26C79.66,-340.73 133.85,-407.43 163.6,-444.05"/>
<polygon fill="#63b8ff" stroke="#63b8ff" points="160.63,-445.94 169.65,-451.49 166.06,-441.53 160.63,-445.94"/>
</a>
</g>
</g>
<!-- Node14 -->
<g id="Node000014" class="node">
<title>Node14</title>
<g id="a_Node000014"><a xlink:href="group__elements.html#a9b6e3d5d06ec76dc07afff3261e32487" target="_top" xlink:title=" ">
<polygon fill="white" stroke="#666666" points="366,-384 274.25,-384 274.25,-352 366,-352 366,-384"/>
<text text-anchor="start" x="282.25" y="-372.4" font-family="SourceSans" font-size="8.00">svg::group_element</text>
<text text-anchor="middle" x="320.12" y="-360.4" font-family="SourceSans" font-size="8.00">::start_group</text>
</a>
</g>
</g>
<!-- Node1&#45;&gt;Node14 -->
<g id="edge52_Node000001_Node000014" class="edge">
<title>Node1&#45;&gt;Node14</title>
<g id="a_edge52_Node000001_Node000014"><a xlink:title=" ">
<path fill="none" stroke="#63b8ff" d="M73.53,-315.45C90.31,-322.72 113.8,-332.14 135.25,-338 177.38,-349.51 226.22,-357.23 262.98,-361.95"/>
<polygon fill="#63b8ff" stroke="#63b8ff" points="262.12,-365.37 272.47,-363.13 262.98,-358.42 262.12,-365.37"/>
</a>
</g>
</g>
<!-- Node25 -->
<g id="Node000025" class="node">
<title>Node25</title>
<g id="a_Node000025"><a xlink:href="namespacesvg.html#ac1bd4107734c5c2cf353ed944940ad92" target="_top" xlink:title="Return set of paths corresponding to marker shapes with tooltips.">
<polygon fill="white" stroke="#666666" points="369.75,-220 270.5,-220 270.5,-188 369.75,-188 369.75,-220"/>
<text text-anchor="start" x="278.5" y="-208.4" font-family="SourceSans" font-size="8.00">svg::make_line_graph</text>
<text text-anchor="middle" x="320.12" y="-196.4" font-family="SourceSans" font-size="8.00">_markers_tips</text>
</a>
</g>
</g>
<!-- Node1&#45;&gt;Node25 -->
<g id="edge36_Node000001_Node000025" class="edge">
<title>Node1&#45;&gt;Node25</title>
<g id="a_edge36_Node000001_Node000025"><a xlink:title=" ">
<path fill="none" stroke="#63b8ff" d="M76.88,-294.62C93.57,-288.06 115.64,-279.45 135.25,-272 178.25,-255.66 227.1,-237.62 263.64,-224.23"/>
<polygon fill="#63b8ff" stroke="#63b8ff" points="264.47,-227.65 272.66,-220.93 262.07,-221.08 264.47,-227.65"/>
</a>
</g>
</g>
<!-- Node30 -->
<g id="Node000030" class="node">
<title>Node30</title>
<g id="a_Node000030"><a xlink:href="namespacesvg.html#ac669adfe27cb4d6029ae99f6f828d775" target="_top" xlink:title="Polyline primitive.">
<polygon fill="white" stroke="#666666" points="228.88,-178 140.88,-178 140.88,-158 228.88,-158 228.88,-178"/>
<text text-anchor="middle" x="184.88" y="-166.4" font-family="SourceSans" font-size="8.00">svg::make_polyline</text>
</a>
</g>
</g>
<!-- Node1&#45;&gt;Node30 -->
<g id="edge46_Node000001_Node000030" class="edge">
<title>Node1&#45;&gt;Node30</title>
<g id="a_edge46_Node000001_Node000030"><a xlink:title=" ">
<path fill="none" stroke="#63b8ff" d="M60.64,-294.7C83.02,-271.69 137.35,-215.84 165.81,-186.58"/>
<polygon fill="#63b8ff" stroke="#63b8ff" points="168.22,-189.11 172.69,-179.5 163.21,-184.23 168.22,-189.11"/>
</a>
</g>
</g>
<!-- Node34 -->
<g id="Node000034" class="node">
<title>Node34</title>
<g id="a_Node000034"><a xlink:href="namespacesvg.html#a2e5178befe99e2a7d5ede3c02088055f" target="_top" xlink:title="Scale value from min to max on range (nfloor, nceil).">
<polygon fill="white" stroke="#666666" points="229.62,-140 140.12,-140 140.12,-108 229.62,-108 229.62,-140"/>
<text text-anchor="start" x="148.12" y="-128.4" font-family="SourceSans" font-size="8.00">svg::scale_value_on</text>
<text text-anchor="middle" x="184.88" y="-116.4" font-family="SourceSans" font-size="8.00">_range</text>
</a>
</g>
</g>
<!-- Node1&#45;&gt;Node34 -->
<g id="edge51_Node000001_Node000034" class="edge">
<title>Node1&#45;&gt;Node34</title>
<g id="a_edge51_Node000001_Node000034"><a xlink:title=" ">
<path fill="none" stroke="#63b8ff" d="M53.86,-294.55C62.73,-267.35 89.87,-193.38 135.25,-149 135.86,-148.4 136.49,-147.82 137.13,-147.24"/>
<polygon fill="#63b8ff" stroke="#63b8ff" points="139.12,-150.12 144.98,-141.3 134.9,-144.54 139.12,-150.12"/>
</a>
</g>
</g>
<!-- Node3 -->
<g id="Node000003" class="node">
<title>Node3</title>
<g id="a_Node000003"><a xlink:href="group__elements.html#ad893ef9c13a15464c96d8a85c08af30f" target="_top" xlink:title=" ">
<polygon fill="white" stroke="#666666" points="643.25,-324 542.5,-324 542.5,-304 643.25,-304 643.25,-324"/>
<text text-anchor="middle" x="592.88" y="-312.4" font-family="SourceSans" font-size="8.00">svg::element_base::str</text>
</a>
</g>
</g>
<!-- Node2&#45;&gt;Node3 -->
<g id="edge2_Node000002_Node000003" class="edge">
<title>Node2&#45;&gt;Node3</title>
<g id="a_edge2_Node000002_Node000003"><a xlink:title=" ">
<path fill="none" stroke="#63b8ff" d="M496.31,-475.76C500.05,-473.19 503.54,-470.28 506.5,-467 536.46,-433.78 519.83,-411.57 542.5,-373 551.06,-358.43 563.23,-343.84 573.34,-332.82"/>
<polygon fill="#63b8ff" stroke="#63b8ff" points="575.86,-335.25 580.19,-325.58 570.77,-330.44 575.86,-335.25"/>
</a>
</g>
</g>
<!-- Node6&#45;&gt;Node2 -->
<g id="edge6_Node000006_Node000002" class="edge">
<title>Node6&#45;&gt;Node2</title>
<g id="a_edge6_Node000006_Node000002"><a xlink:title=" ">
<path fill="none" stroke="#63b8ff" d="M234.95,-473.19C279.74,-477.02 346.12,-482.69 394.27,-486.8"/>
<polygon fill="#63b8ff" stroke="#63b8ff" points="393.71,-490.27 403.97,-487.63 394.31,-483.29 393.71,-490.27"/>
</a>
</g>
</g>
<!-- Node6&#45;&gt;Node4 -->
<g id="edge7_Node000006_Node000004" class="edge">
<title>Node6&#45;&gt;Node4</title>
<g id="a_edge7_Node000006_Node000004"><a xlink:title=" ">
<path fill="none" stroke="#63b8ff" d="M221.09,-452.65C236.22,-445.77 254.14,-437.8 270.5,-431 314.12,-412.87 333.99,-423.86 369.75,-393 394.46,-371.68 382.17,-351.57 405.75,-329 406.37,-328.4 407.02,-327.82 407.67,-327.24"/>
<polygon fill="#63b8ff" stroke="#63b8ff" points="409.75,-330.05 415.69,-321.28 405.58,-324.44 409.75,-330.05"/>
</a>
</g>
</g>
<!-- Node6&#45;&gt;Node5 -->
<g id="edge8_Node000006_Node000005" class="edge">
<title>Node6&#45;&gt;Node5</title>
<g id="a_edge8_Node000006_Node000005"><a xlink:title=" ">
<path fill="none" stroke="#63b8ff" d="M194.65,-485.19C208.26,-509.1 236.48,-554.14 270.5,-583 271.42,-583.78 272.37,-584.55 273.35,-585.3"/>
<polygon fill="#63b8ff" stroke="#63b8ff" points="271.13,-588.03 281.37,-590.76 275.07,-582.24 271.13,-588.03"/>
</a>
</g>
</g>
<!-- Node7 -->
<g id="Node000007" class="node">
<title>Node7</title>
<g id="a_Node000007"><a xlink:href="namespacesvg.html#a520130e7464e62521cf59e048a48cee7" target="_top" xlink:title="Line primitive.">
<polygon fill="white" stroke="#666666" points="356.25,-460 284,-460 284,-440 356.25,-440 356.25,-460"/>
<text text-anchor="middle" x="320.12" y="-448.4" font-family="SourceSans" font-size="8.00">svg::make_line</text>
</a>
</g>
</g>
<!-- Node6&#45;&gt;Node7 -->
<g id="edge9_Node000006_Node000007" class="edge">
<title>Node6&#45;&gt;Node7</title>
<g id="a_edge9_Node000006_Node000007"><a xlink:title=" ">
<path fill="none" stroke="#63b8ff" d="M234.74,-462.03C247.01,-460.28 260.14,-458.41 272.31,-456.67"/>
<polygon fill="#63b8ff" stroke="#63b8ff" points="272.72,-460.15 282.12,-455.28 271.73,-453.22 272.72,-460.15"/>
</a>
</g>
</g>
<!-- Node6&#45;&gt;Node14 -->
<g id="edge16_Node000006_Node000014" class="edge">
<title>Node6&#45;&gt;Node14</title>
<g id="a_edge16_Node000006_Node000014"><a xlink:title=" ">
<path fill="none" stroke="#63b8ff" d="M203.74,-452.69C220.46,-437.76 246.4,-415.4 270.5,-398 273.92,-395.53 277.54,-393.06 281.21,-390.64"/>
<polygon fill="#63b8ff" stroke="#63b8ff" points="283.08,-393.6 289.62,-385.27 279.31,-387.7 283.08,-393.6"/>
</a>
</g>
</g>
<!-- Node15 -->
<g id="Node000015" class="node">
<title>Node15</title>
<g id="a_Node000015"><a xlink:href="namespacesvg.html#a3bd5b25b1bf593d203db0996577b779f" target="_top" xlink:title="Text at @origin, with style.">
<polygon fill="white" stroke="#666666" points="357.38,-536 282.88,-536 282.88,-516 357.38,-516 357.38,-536"/>
<text text-anchor="middle" x="320.12" y="-524.4" font-family="SourceSans" font-size="8.00">svg::styled_text</text>
</a>
</g>
</g>
<!-- Node6&#45;&gt;Node15 -->
<g id="edge17_Node000006_Node000015" class="edge">
<title>Node6&#45;&gt;Node15</title>
<g id="a_edge17_Node000006_Node000015"><a xlink:title=" ">
<path fill="none" stroke="#63b8ff" d="M224.42,-485.49C243.35,-493.58 265.98,-503.27 284.37,-511.13"/>
<polygon fill="#63b8ff" stroke="#63b8ff" points="282.96,-514.34 293.54,-515.05 285.72,-507.9 282.96,-514.34"/>
</a>
</g>
</g>
<!-- Node23 -->
<g id="Node000023" class="node">
<title>Node23</title>
<g id="a_Node000023"><a xlink:href="namespacesvg.html#a289756f72239f34c2e6df0f7d9dd2d29" target="_top" xlink:title="Text at @origin, with style and ... a transformation=rotation of @deg about @rorigin.">
<polygon fill="white" stroke="#666666" points="360.75,-574 279.5,-574 279.5,-554 360.75,-554 360.75,-574"/>
<text text-anchor="middle" x="320.12" y="-562.4" font-family="SourceSans" font-size="8.00">svg::styled_text_r</text>
</a>
</g>
</g>
<!-- Node6&#45;&gt;Node23 -->
<g id="edge30_Node000006_Node000023" class="edge">
<title>Node6&#45;&gt;Node23</title>
<g id="a_edge30_Node000006_Node000023"><a xlink:title=" ">
<path fill="none" stroke="#63b8ff" d="M200.71,-485.43C216.61,-502.24 243.26,-528.22 270.5,-545 272.63,-546.31 274.87,-547.56 277.17,-548.75"/>
<polygon fill="#63b8ff" stroke="#63b8ff" points="275.54,-551.86 286.09,-552.9 278.5,-545.51 275.54,-551.86"/>
</a>
</g>
</g>
<!-- Node8 -->
<g id="Node000008" class="node">
<title>Node8</title>
<g id="a_Node000008"><a xlink:href="group__elements.html#a306eac4c5a7ea755ab6375a65489366f" target="_top" xlink:title=" ">
<polygon fill="white" stroke="#666666" points="636.5,-414 549.25,-414 549.25,-382 636.5,-382 636.5,-414"/>
<text text-anchor="start" x="557.25" y="-402.4" font-family="SourceSans" font-size="8.00">svg::line_element::</text>
<text text-anchor="middle" x="592.88" y="-390.4" font-family="SourceSans" font-size="8.00">add_data</text>
</a>
</g>
</g>
<!-- Node7&#45;&gt;Node8 -->
<g id="edge10_Node000007_Node000008" class="edge">
<title>Node7&#45;&gt;Node8</title>
<g id="a_edge10_Node000007_Node000008"><a xlink:title=" ">
<path fill="none" stroke="#63b8ff" d="M342.87,-439.64C359.66,-432.1 383.68,-422.33 405.75,-417 449.39,-406.47 500.15,-401.77 537.63,-399.68"/>
<polygon fill="#63b8ff" stroke="#63b8ff" points="537.5,-403.19 547.31,-399.19 537.14,-396.2 537.5,-403.19"/>
</a>
</g>
</g>
<!-- Node10 -->
<g id="Node000010" class="node">
<title>Node10</title>
<g id="a_Node000010"><a xlink:href="group__elements.html#a238b38ca99a1cf6c2baf80c8e4338d99" target="_top" xlink:title=" ">
<polygon fill="white" stroke="#666666" points="501.62,-270 410.62,-270 410.62,-238 501.62,-238 501.62,-270"/>
<text text-anchor="start" x="418.62" y="-258.4" font-family="SourceSans" font-size="8.00">svg::element_base::</text>
<text text-anchor="middle" x="456.12" y="-246.4" font-family="SourceSans" font-size="8.00">add_style</text>
</a>
</g>
</g>
<!-- Node7&#45;&gt;Node10 -->
<g id="edge12_Node000007_Node000010" class="edge">
<title>Node7&#45;&gt;Node10</title>
<g id="a_edge12_Node000007_Node000010"><a xlink:title=" ">
<path fill="none" stroke="#63b8ff" d="M332.25,-439.64C343.19,-428.92 359.66,-411.2 369.75,-393 395.51,-346.53 371.36,-319.5 405.75,-279 406.09,-278.6 406.44,-278.2 406.8,-277.81"/>
<polygon fill="#63b8ff" stroke="#63b8ff" points="408.9,-280.63 414.12,-271.41 404.29,-275.36 408.9,-280.63"/>
</a>
</g>
</g>
<!-- Node12 -->
<g id="Node000012" class="node">
<title>Node12</title>
<g id="a_Node000012"><a xlink:href="group__elements.html#ga4769af15793cb308d426abb5fd552df5" target="_top" xlink:title=" ">
<polygon fill="white" stroke="#666666" points="499.75,-370 412.5,-370 412.5,-338 499.75,-338 499.75,-370"/>
<text text-anchor="start" x="420.5" y="-358.4" font-family="SourceSans" font-size="8.00">svg::line_element::</text>
<text text-anchor="middle" x="456.12" y="-346.4" font-family="SourceSans" font-size="8.00">finish_element</text>
</a>
</g>
</g>
<!-- Node7&#45;&gt;Node12 -->
<g id="edge14_Node000007_Node000012" class="edge">
<title>Node7&#45;&gt;Node12</title>
<g id="a_edge14_Node000007_Node000012"><a xlink:title=" ">
<path fill="none" stroke="#63b8ff" d="M347,-439.61C354.71,-435.91 362.91,-431.31 369.75,-426 389.17,-410.92 387.01,-399.91 405.75,-384 408.71,-381.49 411.9,-379.05 415.18,-376.72"/>
<polygon fill="#63b8ff" stroke="#63b8ff" points="416.93,-379.77 423.32,-371.32 413.05,-373.94 416.93,-379.77"/>
</a>
</g>
</g>
<!-- Node13 -->
<g id="Node000013" class="node">
<title>Node13</title>
<g id="a_Node000013"><a xlink:href="group__elements.html#aa6b4ba04be5858b4943235801f034943" target="_top" xlink:title=" ">
<polygon fill="white" stroke="#666666" points="499.75,-458 412.5,-458 412.5,-426 499.75,-426 499.75,-458"/>
<text text-anchor="start" x="420.5" y="-446.4" font-family="SourceSans" font-size="8.00">svg::line_element::</text>
<text text-anchor="middle" x="456.12" y="-434.4" font-family="SourceSans" font-size="8.00">start_element</text>
</a>
</g>
</g>
<!-- Node7&#45;&gt;Node13 -->
<g id="edge15_Node000007_Node000013" class="edge">
<title>Node7&#45;&gt;Node13</title>
<g id="a_edge15_Node000007_Node000013"><a xlink:title=" ">
<path fill="none" stroke="#63b8ff" d="M356.68,-447.88C370.28,-447.07 386.1,-446.12 401.04,-445.23"/>
<polygon fill="#63b8ff" stroke="#63b8ff" points="400.95,-448.74 410.72,-444.65 400.53,-441.75 400.95,-448.74"/>
</a>
</g>
</g>
<!-- Node9 -->
<g id="Node000009" class="node">
<title>Node9</title>
<g id="a_Node000009"><a xlink:href="namespacesvg.html#a48ac748e89e22789d1772326a98dd7b6" target="_top" xlink:title=" ">
<polygon fill="white" stroke="#666666" points="767.25,-455 680,-455 680,-435 767.25,-435 767.25,-455"/>
<text text-anchor="middle" x="723.62" y="-443.4" font-family="SourceSans" font-size="8.00">svg::string_replace</text>
</a>
</g>
</g>
<!-- Node8&#45;&gt;Node9 -->
<g id="edge11_Node000008_Node000009" class="edge">
<title>Node8&#45;&gt;Node9</title>
<g id="a_edge11_Node000008_Node000009"><a xlink:title=" ">
<path fill="none" stroke="#63b8ff" d="M636.75,-413.65C651.79,-419.14 668.59,-425.28 683.33,-430.65"/>
<polygon fill="#63b8ff" stroke="#63b8ff" points="682.11,-433.94 692.7,-434.08 684.51,-427.36 682.11,-433.94"/>
</a>
</g>
</g>
<!-- Node11 -->
<g id="Node000011" class="node">
<title>Node11</title>
<g id="a_Node000011"><a xlink:href="namespacesvg.html#a36b1c48ad4601b205790e3772ad0a7b6" target="_top" xlink:title=" ">
<polygon fill="white" stroke="#666666" points="757.12,-590 690.12,-590 690.12,-570 757.12,-570 757.12,-590"/>
<text text-anchor="middle" x="723.62" y="-578.4" font-family="SourceSans" font-size="8.00">svg::to_string</text>
</a>
</g>
</g>
<!-- Node10&#45;&gt;Node11 -->
<g id="edge13_Node000010_Node000011" class="edge">
<title>Node10&#45;&gt;Node11</title>
<g id="a_edge13_Node000010_Node000011"><a xlink:title=" ">
<path fill="none" stroke="#63b8ff" d="M498.07,-270.29C501.28,-272.81 504.17,-275.7 506.5,-279 579.35,-382.23 452.18,-472.64 542.5,-561 577.76,-595.5 637.45,-594.85 678.39,-589.18"/>
<polygon fill="#63b8ff" stroke="#63b8ff" points="678.82,-592.65 688.16,-587.66 677.74,-585.73 678.82,-592.65"/>
</a>
</g>
</g>
<!-- Node15&#45;&gt;Node2 -->
<g id="edge27_Node000015_Node000002" class="edge">
<title>Node15&#45;&gt;Node2</title>
<g id="a_edge27_Node000015_Node000002"><a xlink:title=" ">
<path fill="none" stroke="#63b8ff" d="M357.74,-516.71C369.13,-513.82 382,-510.55 394.57,-507.36"/>
<polygon fill="#63b8ff" stroke="#63b8ff" points="395.19,-510.82 404.02,-504.97 393.47,-504.03 395.19,-510.82"/>
</a>
</g>
</g>
<!-- Node16 -->
<g id="Node000016" class="node">
<title>Node16</title>
<g id="a_Node000016"><a xlink:href="group__elements.html#aad29e1daf75bdcd69a39575a6807fa0f" target="_top" xlink:title="Either serialize immediately (as below), or create data structure that adds data to data_vec and then...">
<polygon fill="white" stroke="#666666" points="500.12,-658 412.12,-658 412.12,-626 500.12,-626 500.12,-658"/>
<text text-anchor="start" x="420.12" y="-646.4" font-family="SourceSans" font-size="8.00">svg::text_element::</text>
<text text-anchor="middle" x="456.12" y="-634.4" font-family="SourceSans" font-size="8.00">add_data</text>
</a>
</g>
</g>
<!-- Node15&#45;&gt;Node16 -->
<g id="edge18_Node000015_Node000016" class="edge">
<title>Node15&#45;&gt;Node16</title>
<g id="a_edge18_Node000015_Node000016"><a xlink:title=" ">
<path fill="none" stroke="#63b8ff" d="M356.92,-536.4C361.57,-538.74 366,-541.58 369.75,-545 396.17,-569.12 380.52,-591.64 405.75,-617 406.36,-617.61 406.99,-618.21 407.63,-618.8"/>
<polygon fill="#63b8ff" stroke="#63b8ff" points="405.48,-621.56 415.55,-624.86 409.73,-616 405.48,-621.56"/>
</a>
</g>
</g>
<!-- Node21 -->
<g id="Node000021" class="node">
<title>Node21</title>
<g id="a_Node000021"><a xlink:href="group__elements.html#ga13c46848317034d16c62a7d2061ba3d6" target="_top" xlink:title=" ">
<polygon fill="white" stroke="#666666" points="500.12,-608 412.12,-608 412.12,-576 500.12,-576 500.12,-608"/>
<text text-anchor="start" x="420.12" y="-596.4" font-family="SourceSans" font-size="8.00">svg::text_element::</text>
<text text-anchor="middle" x="456.12" y="-584.4" font-family="SourceSans" font-size="8.00">finish_element</text>
</a>
</g>
</g>
<!-- Node15&#45;&gt;Node21 -->
<g id="edge28_Node000015_Node000021" class="edge">
<title>Node15&#45;&gt;Node21</title>
<g id="a_edge28_Node000015_Node000021"><a xlink:title=" ">
<path fill="none" stroke="#63b8ff" d="M350.29,-536.43C356.79,-539.02 363.58,-541.94 369.75,-545 386.55,-553.33 389.37,-557.87 405.75,-567 407.67,-568.07 409.64,-569.15 411.64,-570.23"/>
<polygon fill="#63b8ff" stroke="#63b8ff" points="409.92,-573.28 420.4,-574.84 413.18,-567.08 409.92,-573.28"/>
</a>
</g>
</g>
<!-- Node22 -->
<g id="Node000022" class="node">
<title>Node22</title>
<g id="a_Node000022"><a xlink:href="group__elements.html#ae45bec611a6ec17ea46aab6d680ae042" target="_top" xlink:title=" ">
<polygon fill="white" stroke="#666666" points="500.12,-558 412.12,-558 412.12,-526 500.12,-526 500.12,-558"/>
<text text-anchor="start" x="420.12" y="-546.4" font-family="SourceSans" font-size="8.00">svg::text_element::</text>
<text text-anchor="middle" x="456.12" y="-534.4" font-family="SourceSans" font-size="8.00">start_element</text>
</a>
</g>
</g>
<!-- Node15&#45;&gt;Node22 -->
<g id="edge29_Node000015_Node000022" class="edge">
<title>Node15&#45;&gt;Node22</title>
<g id="a_edge29_Node000015_Node000022"><a xlink:title=" ">
<path fill="none" stroke="#63b8ff" d="M357.74,-530.37C370.95,-531.95 386.15,-533.76 400.56,-535.49"/>
<polygon fill="#63b8ff" stroke="#63b8ff" points="400.05,-538.95 410.39,-536.66 400.88,-532 400.05,-538.95"/>
</a>
</g>
</g>
<!-- Node16&#45;&gt;Node9 -->
<g id="edge25_Node000016_Node000009" class="edge">
<title>Node16&#45;&gt;Node9</title>
<g id="a_edge25_Node000016_Node000009"><a xlink:title=" ">
<path fill="none" stroke="#63b8ff" d="M496.92,-625.53C500.45,-623.03 503.73,-620.19 506.5,-617 539.11,-579.42 507.74,-546.6 542.5,-511 545.07,-508.37 630.12,-477.85 682.41,-459.25"/>
<polygon fill="#63b8ff" stroke="#63b8ff" points="683.36,-462.63 691.61,-455.98 681.01,-456.03 683.36,-462.63"/>
</a>
</g>
</g>
<!-- Node16&#45;&gt;Node11 -->
<g id="edge26_Node000016_Node000011" class="edge">
<title>Node16&#45;&gt;Node11</title>
<g id="a_edge26_Node000016_Node000011"><a xlink:title=" ">
<path fill="none" stroke="#63b8ff" d="M500.39,-652.83C539.1,-660.4 596.76,-666.38 643.25,-649 669.95,-639.02 693.6,-615.56 707.99,-598.76"/>
<polygon fill="#63b8ff" stroke="#63b8ff" points="710.38,-601.36 714.03,-591.42 704.98,-596.92 710.38,-601.36"/>
</a>
</g>
</g>
<!-- Node17 -->
<g id="Node000017" class="node">
<title>Node17</title>
<g id="a_Node000017"><a xlink:href="structsvg_1_1typography.html#adbc62f74f1fed3f7c77567250f084f83" target="_top" xlink:title=" ">
<polygon fill="white" stroke="#666666" points="641,-552 544.75,-552 544.75,-520 641,-520 641,-552"/>
<text text-anchor="start" x="552.75" y="-540.4" font-family="SourceSans" font-size="8.00">svg::typography::add</text>
<text text-anchor="middle" x="592.88" y="-528.4" font-family="SourceSans" font-size="8.00">_attribute</text>
</a>
</g>
</g>
<!-- Node16&#45;&gt;Node17 -->
<g id="edge19_Node000016_Node000017" class="edge">
<title>Node16&#45;&gt;Node17</title>
<g id="a_edge19_Node000016_Node000017"><a xlink:title=" ">
<path fill="none" stroke="#63b8ff" d="M492.65,-625.6C497.44,-622.93 502.18,-620.04 506.5,-617 530.04,-600.41 553.54,-577.54 569.9,-560.33"/>
<polygon fill="#63b8ff" stroke="#63b8ff" points="572.02,-563.18 576.3,-553.49 566.91,-558.4 572.02,-563.18"/>
</a>
</g>
</g>
<!-- Node19 -->
<g id="Node000019" class="node">
<title>Node19</title>
<g id="a_Node000019"><a xlink:href="group__elements.html#a1ed006cabdb9c531c2bd8e27ea9e0966" target="_top" xlink:title=" ">
<polygon fill="white" stroke="#666666" points="636.88,-640 548.88,-640 548.88,-608 636.88,-608 636.88,-640"/>
<text text-anchor="start" x="556.88" y="-628.4" font-family="SourceSans" font-size="8.00">svg::text_element::</text>
<text text-anchor="middle" x="592.88" y="-616.4" font-family="SourceSans" font-size="8.00">add_text</text>
</a>
</g>
</g>
<!-- Node16&#45;&gt;Node19 -->
<g id="edge23_Node000016_Node000019" class="edge">
<title>Node16&#45;&gt;Node19</title>
<g id="a_edge23_Node000016_Node000019"><a xlink:title=" ">
<path fill="none" stroke="#63b8ff" d="M500.5,-636.21C512.28,-634.63 525.19,-632.91 537.5,-631.26"/>
<polygon fill="#63b8ff" stroke="#63b8ff" points="537.63,-634.78 547.08,-629.98 536.7,-627.84 537.63,-634.78"/>
</a>
</g>
</g>
<!-- Node20 -->
<g id="Node000020" class="node">
<title>Node20</title>
<g id="a_Node000020"><a xlink:href="group__elements.html#a53d72a7ff728ad1d4d027254530bcf3d" target="_top" xlink:title="Common transforms include rotate(180)">
<polygon fill="white" stroke="#666666" points="638.38,-464 547.38,-464 547.38,-432 638.38,-432 638.38,-464"/>
<text text-anchor="start" x="555.38" y="-452.4" font-family="SourceSans" font-size="8.00">svg::element_base::</text>
<text text-anchor="middle" x="592.88" y="-440.4" font-family="SourceSans" font-size="8.00">add_transform</text>
</a>
</g>
</g>
<!-- Node16&#45;&gt;Node20 -->
<g id="edge24_Node000016_Node000020" class="edge">
<title>Node16&#45;&gt;Node20</title>
<g id="a_edge24_Node000016_Node000020"><a xlink:title=" ">
<path fill="none" stroke="#63b8ff" d="M497.17,-625.74C500.65,-623.19 503.85,-620.29 506.5,-617 546.52,-567.29 504.43,-529.22 542.5,-478 544.2,-475.71 546.13,-473.56 548.23,-471.54"/>
<polygon fill="#63b8ff" stroke="#63b8ff" points="550.22,-474.43 555.75,-465.4 545.79,-469.01 550.22,-474.43"/>
</a>
</g>
</g>
<!-- Node17&#45;&gt;Node9 -->
<g id="edge20_Node000017_Node000009" class="edge">
<title>Node17&#45;&gt;Node9</title>
<g id="a_edge20_Node000017_Node000009"><a xlink:title=" ">
<path fill="none" stroke="#63b8ff" d="M622.15,-519.55C629.14,-515.28 636.55,-510.59 643.25,-506 663.44,-492.17 685.42,-475.11 701.13,-462.54"/>
<polygon fill="#63b8ff" stroke="#63b8ff" points="703.26,-465.32 708.84,-456.32 698.86,-459.88 703.26,-465.32"/>
</a>
</g>
</g>
<!-- Node17&#45;&gt;Node11 -->
<g id="edge21_Node000017_Node000011" class="edge">
<title>Node17&#45;&gt;Node11</title>
<g id="a_edge21_Node000017_Node000011"><a xlink:title=" ">
<path fill="none" stroke="#63b8ff" d="M641.45,-552.26C654.53,-556.73 668.6,-561.54 681.29,-565.87"/>
<polygon fill="#63b8ff" stroke="#63b8ff" points="680,-569.13 690.6,-569.05 682.27,-562.51 680,-569.13"/>
</a>
</g>
</g>
<!-- Node18 -->
<g id="Node000018" class="node">
<title>Node18</title>
<g id="a_Node000018"><a xlink:href="structsvg_1_1typography.html#a174c1ffb4e56214d71523ffe7e422561" target="_top" xlink:title=" ">
<polygon fill="white" stroke="#666666" points="768,-552 679.25,-552 679.25,-520 768,-520 768,-552"/>
<text text-anchor="start" x="687.25" y="-540.4" font-family="SourceSans" font-size="8.00">svg::typography::to</text>
<text text-anchor="middle" x="723.62" y="-528.4" font-family="SourceSans" font-size="8.00">_string</text>
</a>
</g>
</g>
<!-- Node17&#45;&gt;Node18 -->
<g id="edge22_Node000017_Node000018" class="edge">
<title>Node17&#45;&gt;Node18</title>
<g id="a_edge22_Node000017_Node000018"><a xlink:title=" ">
<path fill="none" stroke="#63b8ff" d="M641.45,-536C650.02,-536 659.01,-536 667.77,-536"/>
<polygon fill="#63b8ff" stroke="#63b8ff" points="667.56,-539.5 677.56,-536 667.56,-532.5 667.56,-539.5"/>
</a>
</g>
</g>
<!-- Node23&#45;&gt;Node2 -->
<g id="edge32_Node000023_Node000002" class="edge">
<title>Node23&#45;&gt;Node2</title>
<g id="a_edge32_Node000023_Node000002"><a xlink:title=" ">
<path fill="none" stroke="#63b8ff" d="M351.84,-553.55C357.92,-551.06 364.16,-548.18 369.75,-545 387.37,-534.99 388.63,-527.85 405.75,-517 407.37,-515.97 409.03,-514.96 410.73,-513.95"/>
<polygon fill="#63b8ff" stroke="#63b8ff" points="412.33,-517.07 419.33,-509.12 408.9,-510.97 412.33,-517.07"/>
</a>
</g>
</g>
<!-- Node23&#45;&gt;Node16 -->
<g id="edge31_Node000023_Node000016" class="edge">
<title>Node23&#45;&gt;Node16</title>
<g id="a_edge31_Node000023_Node000016"><a xlink:title=" ">
<path fill="none" stroke="#63b8ff" d="M353.11,-574.46C358.84,-576.9 364.62,-579.75 369.75,-583 388.34,-594.78 387.75,-604.34 405.75,-617 407.1,-617.95 408.49,-618.88 409.91,-619.8"/>
<polygon fill="#63b8ff" stroke="#63b8ff" points="407.92,-622.69 418.3,-624.81 411.51,-616.68 407.92,-622.69"/>
</a>
</g>
</g>
<!-- Node23&#45;&gt;Node21 -->
<g id="edge33_Node000023_Node000021" class="edge">
<title>Node23&#45;&gt;Node21</title>
<g id="a_edge33_Node000023_Node000021"><a xlink:title=" ">
<path fill="none" stroke="#63b8ff" d="M360.97,-572.33C373.5,-574.94 387.57,-577.88 400.92,-580.67"/>
<polygon fill="#63b8ff" stroke="#63b8ff" points="399.95,-584.05 410.45,-582.66 401.38,-577.19 399.95,-584.05"/>
</a>
</g>
</g>
<!-- Node23&#45;&gt;Node22 -->
<g id="edge35_Node000023_Node000022" class="edge">
<title>Node23&#45;&gt;Node22</title>
<g id="a_edge35_Node000023_Node000022"><a xlink:title=" ">
<path fill="none" stroke="#63b8ff" d="M360.97,-557.46C373.5,-555.4 387.57,-553.09 400.92,-550.9"/>
<polygon fill="#63b8ff" stroke="#63b8ff" points="401.14,-554.41 410.44,-549.34 400,-547.5 401.14,-554.41"/>
</a>
</g>
</g>
<!-- Node24 -->
<g id="Node000024" class="node">
<title>Node24</title>
<g id="a_Node000024"><a xlink:href="structsvg_1_1transform.html#acf9836f4ba647f0dd2b53963a0f714d0" target="_top" xlink:title=" ">
<polygon fill="white" stroke="#666666" points="505,-696 407.25,-696 407.25,-676 505,-676 505,-696"/>
<text text-anchor="middle" x="456.12" y="-684.4" font-family="SourceSans" font-size="8.00">svg::transform::rotate</text>
</a>
</g>
</g>
<!-- Node23&#45;&gt;Node24 -->
<g id="edge34_Node000023_Node000024" class="edge">
<title>Node23&#45;&gt;Node24</title>
<g id="a_edge34_Node000023_Node000024"><a xlink:title=" ">
<path fill="none" stroke="#63b8ff" d="M357.6,-574.46C362.04,-576.78 366.23,-579.6 369.75,-583 398.93,-611.25 376.5,-638.82 405.75,-667 406.64,-667.86 407.58,-668.68 408.55,-669.47"/>
<polygon fill="#63b8ff" stroke="#63b8ff" points="406.51,-672.32 416.81,-674.79 410.3,-666.43 406.51,-672.32"/>
</a>
</g>
</g>
<!-- Node25&#45;&gt;Node3 -->
<g id="edge45_Node000025_Node000003" class="edge">
<title>Node25&#45;&gt;Node3</title>
<g id="a_edge45_Node000025_Node000003"><a xlink:title=" ">
<path fill="none" stroke="#63b8ff" d="M357.92,-187.5C362.11,-184.94 366.15,-182.1 369.75,-179 390.5,-161.13 381.38,-141.48 405.75,-129 445.6,-108.59 468.78,-104.87 506.5,-129 563.89,-165.72 583.25,-251.92 589.32,-292.35"/>
<polygon fill="#63b8ff" stroke="#63b8ff" points="585.82,-292.59 590.63,-302.03 592.76,-291.65 585.82,-292.59"/>
</a>
</g>
</g>
<!-- Node25&#45;&gt;Node4 -->
<g id="edge40_Node000025_Node000004" class="edge">
<title>Node25&#45;&gt;Node4</title>
<g id="a_edge40_Node000025_Node000004"><a xlink:title=" ">
<path fill="none" stroke="#63b8ff" d="M336.94,-220.28C353.21,-236.46 379.77,-261.34 405.75,-279 407.14,-279.95 408.57,-280.88 410.03,-281.8"/>
<polygon fill="#63b8ff" stroke="#63b8ff" points="408.25,-284.81 418.65,-286.84 411.78,-278.77 408.25,-284.81"/>
</a>
</g>
</g>
<!-- Node25&#45;&gt;Node10 -->
<g id="edge41_Node000025_Node000010" class="edge">
<title>Node25&#45;&gt;Node10</title>
<g id="a_edge41_Node000025_Node000010"><a xlink:title=" ">
<path fill="none" stroke="#63b8ff" d="M365,-220.37C376.34,-224.6 388.68,-229.21 400.5,-233.62"/>
<polygon fill="#63b8ff" stroke="#63b8ff" points="399.14,-236.85 409.73,-237.06 401.59,-230.29 399.14,-236.85"/>
</a>
</g>
</g>
<!-- Node26 -->
<g id="Node000026" class="node">
<title>Node26</title>
<g id="a_Node000026"><a xlink:href="group__elements.html#a519382631540ecedee961bfb53e9ae87" target="_top" xlink:title=" ">
<polygon fill="white" stroke="#666666" points="500.12,-170 412.12,-170 412.12,-138 500.12,-138 500.12,-170"/>
<text text-anchor="start" x="420.12" y="-158.4" font-family="SourceSans" font-size="8.00">svg::circle_element</text>
<text text-anchor="middle" x="456.12" y="-146.4" font-family="SourceSans" font-size="8.00">::add_data</text>
</a>
</g>
</g>
<!-- Node25&#45;&gt;Node26 -->
<g id="edge37_Node000025_Node000026" class="edge">
<title>Node25&#45;&gt;Node26</title>
<g id="a_edge37_Node000025_Node000026"><a xlink:title=" ">
<path fill="none" stroke="#63b8ff" d="M365,-187.63C376.69,-183.27 389.45,-178.51 401.59,-173.97"/>
<polygon fill="#63b8ff" stroke="#63b8ff" points="402.5,-177.37 410.65,-170.6 400.05,-170.81 402.5,-177.37"/>
</a>
</g>
</g>
<!-- Node27 -->
<g id="Node000027" class="node">
<title>Node27</title>
<g id="a_Node000027"><a xlink:href="group__elements.html#ga3d62381f8edcccd3d91f82af55f11274" target="_top" xlink:title=" ">
<polygon fill="white" stroke="#666666" points="497.88,-82 414.38,-82 414.38,-50 497.88,-50 497.88,-82"/>
<text text-anchor="start" x="422.38" y="-70.4" font-family="SourceSans" font-size="8.00">svg::title_element</text>
<text text-anchor="middle" x="456.12" y="-58.4" font-family="SourceSans" font-size="8.00">::finish_element</text>
</a>
</g>
</g>
<!-- Node25&#45;&gt;Node27 -->
<g id="edge42_Node000025_Node000027" class="edge">
<title>Node25&#45;&gt;Node27</title>
<g id="a_edge42_Node000025_Node000027"><a xlink:title=" ">
<path fill="none" stroke="#63b8ff" d="M359.58,-187.57C363.28,-185.04 366.77,-182.19 369.75,-179 397.23,-149.65 379.33,-126.31 405.75,-96 407.85,-93.59 410.19,-91.32 412.69,-89.18"/>
<polygon fill="#63b8ff" stroke="#63b8ff" points="414.52,-92.18 420.39,-83.37 410.3,-86.59 414.52,-92.18"/>
</a>
</g>
</g>
<!-- Node28 -->
<g id="Node000028" class="node">
<title>Node28</title>
<g id="a_Node000028"><a xlink:href="group__elements.html#a793cb6b40b2aea335b11f14fd327cde8" target="_top" xlink:title=" ">
<polygon fill="white" stroke="#666666" points="500.12,-32 412.12,-32 412.12,0 500.12,0 500.12,-32"/>
<text text-anchor="start" x="420.12" y="-20.4" font-family="SourceSans" font-size="8.00">svg::circle_element</text>
<text text-anchor="middle" x="456.12" y="-8.4" font-family="SourceSans" font-size="8.00">::start_element</text>
</a>
</g>
</g>
<!-- Node25&#45;&gt;Node28 -->
<g id="edge43_Node000025_Node000028" class="edge">
<title>Node25&#45;&gt;Node28</title>
<g id="a_edge43_Node000025_Node000028"><a xlink:title=" ">
<path fill="none" stroke="#63b8ff" d="M360.56,-187.67C363.99,-185.14 367.14,-182.26 369.75,-179 409.39,-129.54 365.96,-90.34 405.75,-41 406.08,-40.59 406.42,-40.18 406.77,-39.78"/>
<polygon fill="#63b8ff" stroke="#63b8ff" points="408.89,-42.59 413.96,-33.28 404.2,-37.39 408.89,-42.59"/>
</a>
</g>
</g>
<!-- Node29 -->
<g id="Node000029" class="node">
<title>Node29</title>
<g id="a_Node000029"><a xlink:href="group__elements.html#a41dcaa1132c502cb86c01aae1e7b9ff2" target="_top" xlink:title=" ">
<polygon fill="white" stroke="#666666" points="497.88,-220 414.38,-220 414.38,-188 497.88,-188 497.88,-220"/>
<text text-anchor="start" x="422.38" y="-208.4" font-family="SourceSans" font-size="8.00">svg::title_element</text>
<text text-anchor="middle" x="456.12" y="-196.4" font-family="SourceSans" font-size="8.00">::start_element</text>
</a>
</g>
</g>
<!-- Node25&#45;&gt;Node29 -->
<g id="edge44_Node000025_Node000029" class="edge">
<title>Node25&#45;&gt;Node29</title>
<g id="a_edge44_Node000025_Node000029"><a xlink:title=" ">
<path fill="none" stroke="#63b8ff" d="M369.88,-204C380.54,-204 391.87,-204 402.67,-204"/>
<polygon fill="#63b8ff" stroke="#63b8ff" points="402.61,-207.5 412.61,-204 402.61,-200.5 402.61,-207.5"/>
</a>
</g>
</g>
<!-- Node26&#45;&gt;Node9 -->
<g id="edge39_Node000026_Node000009" class="edge">
<title>Node26&#45;&gt;Node9</title>
<g id="a_edge39_Node000026_Node000009"><a xlink:title=" ">
<path fill="none" stroke="#63b8ff" d="M492.24,-170.49C497.13,-173.15 502.02,-176.02 506.5,-179 572.9,-223.08 593.32,-232.88 643.25,-295 676.49,-336.36 702.25,-393.76 714.6,-424.17"/>
<polygon fill="#63b8ff" stroke="#63b8ff" points="711.29,-425.33 718.23,-433.34 717.8,-422.75 711.29,-425.33"/>
</a>
</g>
</g>
<!-- Node26&#45;&gt;Node20 -->
<g id="edge38_Node000026_Node000020" class="edge">
<title>Node26&#45;&gt;Node20</title>
<g id="a_edge38_Node000026_Node000020"><a xlink:title=" ">
<path fill="none" stroke="#63b8ff" d="M498,-170.34C501.23,-172.85 504.14,-175.73 506.5,-179 570.57,-267.94 478.43,-334.06 542.5,-423 542.65,-423.2 542.8,-423.41 542.95,-423.61"/>
<polygon fill="#63b8ff" stroke="#63b8ff" points="540.38,-425.99 549.93,-430.59 545.33,-421.04 540.38,-425.99"/>
</a>
</g>
</g>
<!-- Node30&#45;&gt;Node10 -->
<g id="edge48_Node000030_Node000010" class="edge">
<title>Node30&#45;&gt;Node10</title>
<g id="a_edge48_Node000030_Node000010"><a xlink:title=" ">
<path fill="none" stroke="#63b8ff" d="M196.57,-178.45C211.67,-192.51 240.73,-217.12 270.5,-229 311.61,-245.4 361.53,-251.41 399.08,-253.45"/>
<polygon fill="#63b8ff" stroke="#63b8ff" points="398.66,-256.94 408.81,-253.9 398.98,-249.94 398.66,-256.94"/>
</a>
</g>
</g>
<!-- Node31 -->
<g id="Node000031" class="node">
<title>Node31</title>
<g id="a_Node000031"><a xlink:href="group__elements.html#a8d487066db8aa846562bce52aeb81042" target="_top" xlink:title=" ">
<polygon fill="white" stroke="#666666" points="369.38,-170 270.88,-170 270.88,-138 369.38,-138 369.38,-170"/>
<text text-anchor="start" x="278.88" y="-158.4" font-family="SourceSans" font-size="8.00">svg::polyline_element</text>
<text text-anchor="middle" x="320.12" y="-146.4" font-family="SourceSans" font-size="8.00">::add_data</text>
</a>
</g>
</g>
<!-- Node30&#45;&gt;Node31 -->
<g id="edge47_Node000030_Node000031" class="edge">
<title>Node30&#45;&gt;Node31</title>
<g id="a_edge47_Node000030_Node000031"><a xlink:title=" ">
<path fill="none" stroke="#63b8ff" d="M229.14,-163.45C238.74,-162.45 249.09,-161.36 259.23,-160.29"/>
<polygon fill="#63b8ff" stroke="#63b8ff" points="259.46,-163.79 269.03,-159.26 258.72,-156.83 259.46,-163.79"/>
</a>
</g>
</g>
<!-- Node32 -->
<g id="Node000032" class="node">
<title>Node32</title>
<g id="a_Node000032"><a xlink:href="group__elements.html#ga0d8edab6cf6615f57023e24a8ca2ece6" target="_top" xlink:title=" ">
<polygon fill="white" stroke="#666666" points="369.38,-120 270.88,-120 270.88,-88 369.38,-88 369.38,-120"/>
<text text-anchor="start" x="278.88" y="-108.4" font-family="SourceSans" font-size="8.00">svg::polyline_element</text>
<text text-anchor="middle" x="320.12" y="-96.4" font-family="SourceSans" font-size="8.00">::finish_element</text>
</a>
</g>
</g>
<!-- Node30&#45;&gt;Node32 -->
<g id="edge49_Node000030_Node000032" class="edge">
<title>Node30&#45;&gt;Node32</title>
<g id="a_edge49_Node000030_Node000032"><a xlink:title=" ">
<path fill="none" stroke="#63b8ff" d="M214.43,-157.58C221.09,-154.95 228.1,-152.01 234.5,-149 251.06,-141.21 254.36,-137.63 270.5,-129 272.56,-127.9 274.67,-126.78 276.81,-125.65"/>
<polygon fill="#63b8ff" stroke="#63b8ff" points="278.29,-128.83 285.54,-121.1 275.05,-122.62 278.29,-128.83"/>
</a>
</g>
</g>
<!-- Node33 -->
<g id="Node000033" class="node">
<title>Node33</title>
<g id="a_Node000033"><a xlink:href="group__elements.html#a0e12f93fd27ae5efe9a348ab1db4e799" target="_top" xlink:title=" ">
<polygon fill="white" stroke="#666666" points="369.38,-70 270.88,-70 270.88,-38 369.38,-38 369.38,-70"/>
<text text-anchor="start" x="278.88" y="-58.4" font-family="SourceSans" font-size="8.00">svg::polyline_element</text>
<text text-anchor="middle" x="320.12" y="-46.4" font-family="SourceSans" font-size="8.00">::start_element</text>
</a>
</g>
</g>
<!-- Node30&#45;&gt;Node33 -->
<g id="edge50_Node000030_Node000033" class="edge">
<title>Node30&#45;&gt;Node33</title>
<g id="a_edge50_Node000030_Node000033"><a xlink:title=" ">
<path fill="none" stroke="#63b8ff" d="M221.64,-157.56C226.29,-155.22 230.73,-152.4 234.5,-149 260.47,-125.56 245.76,-103.74 270.5,-79 271.1,-78.4 271.73,-77.8 272.36,-77.22"/>
<polygon fill="#63b8ff" stroke="#63b8ff" points="274.36,-80.1 280.17,-71.23 270.1,-74.54 274.36,-80.1"/>
</a>
</g>
</g>
</g>
</svg>
