<?xml version="1.0" encoding="UTF-8" standalone="no"?>
<!DOCTYPE svg PUBLIC "-//W3C//DTD SVG 1.1//EN"
 "http://www.w3.org/Graphics/SVG/1.1/DTD/svg11.dtd">
<!-- Generated by graphviz version 12.1.0 (20240811.2233)
 -->
<!-- Title: svg::direction_arc_at Pages: 1 -->
<!--zoomable 492 -->

<svg id="main" version="1.1" xmlns="http://www.w3.org/2000/svg" xmlns:xlink="http://www.w3.org/1999/xlink" xml:space="preserve" onload="init(evt)">

<style type="text/css"><![CDATA[
.node, .edge {opacity: 0.7;}
.node.selected, .edge.selected {opacity: 1;}
.edge:hover path { stroke: red; }
.edge:hover polygon { stroke: red; fill: red; }
]]></style>

<defs>
  <circle id="rim" cx="0" cy="0" r="7"/>
  <circle id="rim2" cx="0" cy="0" r="3.5"/>
  <g id="zoomPlus">
    <use xlink:href="#rim" fill="#404040"><set attributeName="fill" to="#808080" begin="zoomplus.mouseover" end="zoomplus.mouseout"/></use>
    <path d="M-4,0h8M0,-4v8" fill="none" stroke="white" stroke-width="1.5" pointer-events="none"/>
  </g>
  <g id="zoomMin">
    <use xlink:href="#rim" fill="#404040"><set attributeName="fill" to="#808080" begin="zoomminus.mouseover" end="zoomminus.mouseout"/></use>
    <path d="M-4,0h8" fill="none" stroke="white" stroke-width="1.5" pointer-events="none"/>
  </g>
  <g id="arrowUp" transform="translate(30 24)">
    <use xlink:href="#rim"/>
    <path pointer-events="none" fill="none" stroke="white" stroke-width="1.5" d="M0,-3.0v7 M-2.5,-0.5L0,-3.0L2.5,-0.5"/>
  </g>
  <g id="arrowRight" transform="rotate(90) translate(36 -43)">
    <use xlink:href="#rim"/>
    <path pointer-events="none" fill="none" stroke="white" stroke-width="1.5" d="M0,-3.0v7 M-2.5,-0.5L0,-3.0L2.5,-0.5"/>
  </g>
  <g id="arrowDown" transform="rotate(180) translate(-30 -48)">
    <use xlink:href="#rim"/>
    <path pointer-events="none" fill="none" stroke="white" stroke-width="1.5" d="M0,-3.0v7 M-2.5,-0.5L0,-3.0L2.5,-0.5"/>
  </g>
  <g id="arrowLeft" transform="rotate(270) translate(-36 17)">
    <use xlink:href="#rim"/>
    <path pointer-events="none" fill="none" stroke="white" stroke-width="1.5" d="M0,-3.0v7 M-2.5,-0.5L0,-3.0L2.5,-0.5"/>
  </g>
  <g id="resetDef">
    <use xlink:href="#rim2" fill="#404040"><set attributeName="fill" to="#808080" begin="reset.mouseover" end="reset.mouseout"/></use>
  </g>
</defs>
<script type="application/ecmascript">
var viewWidth = 530;
var viewHeight = 492;
var sectionId = 'dynsection-11';
</script>
<script type="application/ecmascript" xlink:href="svg.min.js"/>
<svg id="graph" class="graph">
<g id="viewport">
<title>svg::direction_arc_at</title>
<!-- Node1 -->
<g id="Node000001" class="node">
<title>Node1</title>
<g id="a_Node000001"><a xlink:title="Arc + arrow glyph that traces path of start to finish trajectory.">
<polygon fill="#999999" stroke="#666666" points="93.25,-246 0,-246 0,-226 93.25,-226 93.25,-246"/>
<text text-anchor="middle" x="46.62" y="-234.4" font-family="SourceSans" font-size="8.00">svg::direction_arc_at</text>
</a>
</g>
</g>
<!-- Node2 -->
<g id="Node000002" class="node">
<title>Node2</title>
<g id="a_Node000002"><a xlink:href="group__elements.html#a807f3c30f2ace338ad10aaf230b47665" target="_top" xlink:title="Either serialize immediately (as below), or create data structure that adds data to data_vec and then...">
<polygon fill="white" stroke="#666666" points="231.12,-484 140.12,-484 140.12,-452 231.12,-452 231.12,-484"/>
<text text-anchor="start" x="148.12" y="-472.4" font-family="SourceSans" font-size="8.00">svg::path_element::</text>
<text text-anchor="middle" x="185.62" y="-460.4" font-family="SourceSans" font-size="8.00">add_data</text>
</a>
</g>
</g>
<!-- Node1&#45;&gt;Node2 -->
<g id="edge1_Node000001_Node000002" class="edge">
<title>Node1&#45;&gt;Node2</title>
<g id="a_edge1_Node000001_Node000002"><a xlink:title=" ">
<path fill="none" stroke="#63b8ff" d="M48.89,-246.05C53.5,-278.71 72.23,-383.14 129.25,-443 129.73,-443.5 130.22,-443.99 130.72,-444.48"/>
<polygon fill="#63b8ff" stroke="#63b8ff" points="128.43,-447.13 138.45,-450.58 132.77,-441.64 128.43,-447.13"/>
</a>
</g>
</g>
<!-- Node4 -->
<g id="Node000004" class="node">
<title>Node4</title>
<g id="a_Node000004"><a xlink:href="group__elements.html#aaa5f1a136f2b5c61d647a47ec53fe31d" target="_top" xlink:title=" ">
<polygon fill="white" stroke="#666666" points="236,-434 135.25,-434 135.25,-402 236,-402 236,-434"/>
<text text-anchor="start" x="143.25" y="-422.4" font-family="SourceSans" font-size="8.00">svg::svg_element::add</text>
<text text-anchor="middle" x="185.62" y="-410.4" font-family="SourceSans" font-size="8.00">_element</text>
</a>
</g>
</g>
<!-- Node1&#45;&gt;Node4 -->
<g id="edge3_Node000001_Node000004" class="edge">
<title>Node1&#45;&gt;Node4</title>
<g id="a_edge3_Node000001_Node000004"><a xlink:title=" ">
<path fill="none" stroke="#63b8ff" d="M50.77,-246.13C59.38,-272.5 85.7,-344.29 129.25,-388 131.84,-390.59 134.69,-393.02 137.71,-395.29"/>
<polygon fill="#63b8ff" stroke="#63b8ff" points="135.58,-398.08 145.84,-400.73 139.48,-392.26 135.58,-398.08"/>
</a>
</g>
</g>
<!-- Node6 -->
<g id="Node000006" class="node">
<title>Node6</title>
<g id="a_Node000006"><a xlink:href="group__elements.html#a238b38ca99a1cf6c2baf80c8e4338d99" target="_top" xlink:title=" ">
<polygon fill="white" stroke="#666666" points="231.12,-346 140.12,-346 140.12,-314 231.12,-314 231.12,-346"/>
<text text-anchor="start" x="148.12" y="-334.4" font-family="SourceSans" font-size="8.00">svg::element_base::</text>
<text text-anchor="middle" x="185.62" y="-322.4" font-family="SourceSans" font-size="8.00">add_style</text>
</a>
</g>
</g>
<!-- Node1&#45;&gt;Node6 -->
<g id="edge5_Node000001_Node000006" class="edge">
<title>Node1&#45;&gt;Node6</title>
<g id="a_edge5_Node000001_Node000006"><a xlink:title=" ">
<path fill="none" stroke="#63b8ff" d="M57.96,-246.4C72.77,-260.9 101.32,-287.37 129.25,-305 131.06,-306.14 132.92,-307.26 134.83,-308.34"/>
<polygon fill="#63b8ff" stroke="#63b8ff" points="132.79,-311.22 143.26,-312.83 136.08,-305.05 132.79,-311.22"/>
</a>
</g>
</g>
<!-- Node7 -->
<g id="Node000007" class="node">
<title>Node7</title>
<g id="a_Node000007"><a xlink:href="namespacesvg.html#a36b1c48ad4601b205790e3772ad0a7b6" target="_top" xlink:title=" ">
<polygon fill="white" stroke="#666666" points="363.38,-340 296.38,-340 296.38,-320 363.38,-320 363.38,-340"/>
<text text-anchor="middle" x="329.88" y="-328.4" font-family="SourceSans" font-size="8.00">svg::to_string</text>
</a>
</g>
</g>
<!-- Node1&#45;&gt;Node7 -->
<g id="edge22_Node000001_Node000007" class="edge">
<title>Node1&#45;&gt;Node7</title>
<g id="a_edge22_Node000001_Node000007"><a xlink:title=" ">
<path fill="none" stroke="#63b8ff" d="M50.89,-246.14C59.29,-270.36 84.25,-331.3 129.25,-355 182.89,-383.25 255.57,-361.7 296.81,-344.89"/>
<polygon fill="#63b8ff" stroke="#63b8ff" points="298.09,-348.15 305.92,-341.02 295.35,-341.71 298.09,-348.15"/>
</a>
</g>
</g>
<!-- Node8 -->
<g id="Node000008" class="node">
<title>Node8</title>
<g id="a_Node000008"><a xlink:href="group__elements.html#gaac30ae99fb1a2542688fa1ffb43cd8e1" target="_top" xlink:title=" ">
<polygon fill="white" stroke="#666666" points="231.12,-208 140.12,-208 140.12,-176 231.12,-176 231.12,-208"/>
<text text-anchor="start" x="148.12" y="-196.4" font-family="SourceSans" font-size="8.00">svg::path_element::</text>
<text text-anchor="middle" x="185.62" y="-184.4" font-family="SourceSans" font-size="8.00">finish_element</text>
</a>
</g>
</g>
<!-- Node1&#45;&gt;Node8 -->
<g id="edge7_Node000001_Node000008" class="edge">
<title>Node1&#45;&gt;Node8</title>
<g id="a_edge7_Node000001_Node000008"><a xlink:title=" ">
<path fill="none" stroke="#63b8ff" d="M80.09,-225.57C94.7,-220.88 112.36,-215.21 128.97,-209.87"/>
<polygon fill="#63b8ff" stroke="#63b8ff" points="129.8,-213.28 138.25,-206.89 127.66,-206.62 129.8,-213.28"/>
</a>
</g>
</g>
<!-- Node11 -->
<g id="Node000011" class="node">
<title>Node11</title>
<g id="a_Node000011"><a xlink:href="namespacesvg.html#ab44508c4aeca591141ebec50145b75cd" target="_top" xlink:title="Angle in degrees.">
<polygon fill="white" stroke="#666666" points="237.5,-108 133.75,-108 133.75,-76 237.5,-76 237.5,-108"/>
<text text-anchor="start" x="141.75" y="-96.4" font-family="SourceSans" font-size="8.00">svg::get_circumference</text>
<text text-anchor="middle" x="185.62" y="-84.4" font-family="SourceSans" font-size="8.00">_point_d</text>
</a>
</g>
</g>
<!-- Node1&#45;&gt;Node11 -->
<g id="edge11_Node000001_Node000011" class="edge">
<title>Node1&#45;&gt;Node11</title>
<g id="a_edge11_Node000001_Node000011"><a xlink:title=" ">
<path fill="none" stroke="#63b8ff" d="M52.28,-225.69C62.9,-203.16 91.02,-149 129.25,-117 130.2,-116.2 131.18,-115.43 132.18,-114.67"/>
<polygon fill="#63b8ff" stroke="#63b8ff" points="134.04,-117.64 140.5,-109.25 130.21,-111.78 134.04,-117.64"/>
</a>
</g>
</g>
<!-- Node14 -->
<g id="Node000014" class="node">
<title>Node14</title>
<g id="a_Node000014"><a xlink:href="namespacesvg.html#a37b1e7c40b54ff3cdd4e2929cb6b7ba2" target="_top" xlink:title=" ">
<polygon fill="white" stroke="#666666" points="234.5,-58 136.75,-58 136.75,-38 234.5,-38 234.5,-58"/>
<text text-anchor="middle" x="185.62" y="-46.4" font-family="SourceSans" font-size="8.00">svg::get_radial_range</text>
</a>
</g>
</g>
<!-- Node1&#45;&gt;Node14 -->
<g id="edge14_Node000001_Node000014" class="edge">
<title>Node1&#45;&gt;Node14</title>
<g id="a_edge14_Node000001_Node000014"><a xlink:title=" ">
<path fill="none" stroke="#63b8ff" d="M49.72,-225.57C56.14,-196.24 78.31,-112.19 129.25,-67 130.34,-66.03 131.48,-65.11 132.67,-64.24"/>
<polygon fill="#63b8ff" stroke="#63b8ff" points="134.33,-67.32 141.13,-59.2 130.75,-61.31 134.33,-67.32"/>
</a>
</g>
</g>
<!-- Node15 -->
<g id="Node000015" class="node">
<title>Node15</title>
<g id="a_Node000015"><a xlink:href="namespacesvg.html#abd8e35decc1e56f7243b02174c701d37" target="_top" xlink:title="Make path segment between two points on a circumference of radius r. Points like: get_circumference_p...">
<polygon fill="white" stroke="#666666" points="231.12,-296 140.12,-296 140.12,-264 231.12,-264 231.12,-296"/>
<text text-anchor="start" x="148.12" y="-284.4" font-family="SourceSans" font-size="8.00">svg::make_path_arc</text>
<text text-anchor="middle" x="185.62" y="-272.4" font-family="SourceSans" font-size="8.00">_circumference</text>
</a>
</g>
</g>
<!-- Node1&#45;&gt;Node15 -->
<g id="edge15_Node000001_Node000015" class="edge">
<title>Node1&#45;&gt;Node15</title>
<g id="a_edge15_Node000001_Node000015"><a xlink:title=" ">
<path fill="none" stroke="#63b8ff" d="M80.09,-246.43C94.7,-251.12 112.36,-256.79 128.97,-262.13"/>
<polygon fill="#63b8ff" stroke="#63b8ff" points="127.66,-265.38 138.25,-265.11 129.8,-258.72 127.66,-265.38"/>
</a>
</g>
</g>
<!-- Node16 -->
<g id="Node000016" class="node">
<title>Node16</title>
<g id="a_Node000016"><a xlink:href="namespacesvg_1_1constants.html#ac460bc8db60d85c3ae1cf8b1a903405e" target="_top" xlink:title="Formatting character constants.">
<polygon fill="white" stroke="#666666" points="378,-287 281.75,-287 281.75,-267 378,-267 378,-287"/>
<text text-anchor="middle" x="329.88" y="-275.4" font-family="SourceSans" font-size="8.00">svg::constants::space</text>
</a>
</g>
</g>
<!-- Node1&#45;&gt;Node16 -->
<g id="edge18_Node000001_Node000016" class="edge">
<title>Node1&#45;&gt;Node16</title>
<g id="a_edge18_Node000001_Node000016"><a xlink:title=" ">
<path fill="none" stroke="#63b8ff" d="M93.44,-238.53C133,-241.17 191.56,-246.2 242,-255 255.04,-257.28 269.01,-260.47 281.85,-263.72"/>
<polygon fill="#63b8ff" stroke="#63b8ff" points="280.76,-267.05 291.32,-266.18 282.53,-260.28 280.76,-267.05"/>
</a>
</g>
</g>
<!-- Node17 -->
<g id="Node000017" class="node">
<title>Node17</title>
<g id="a_Node000017"><a xlink:href="group__elements.html#a6dbca7cef2cbc0c10aa44c44ae20b36e" target="_top" xlink:title=" ">
<polygon fill="white" stroke="#666666" points="231.12,-158 140.12,-158 140.12,-126 231.12,-126 231.12,-158"/>
<text text-anchor="start" x="148.12" y="-146.4" font-family="SourceSans" font-size="8.00">svg::path_element::</text>
<text text-anchor="middle" x="185.62" y="-134.4" font-family="SourceSans" font-size="8.00">start_element</text>
</a>
</g>
</g>
<!-- Node1&#45;&gt;Node17 -->
<g id="edge19_Node000001_Node000017" class="edge">
<title>Node1&#45;&gt;Node17</title>
<g id="a_edge19_Node000001_Node000017"><a xlink:title=" ">
<path fill="none" stroke="#63b8ff" d="M57.96,-225.6C72.77,-211.1 101.32,-184.63 129.25,-167 131.06,-165.86 132.92,-164.74 134.83,-163.66"/>
<polygon fill="#63b8ff" stroke="#63b8ff" points="136.08,-166.95 143.26,-159.17 132.79,-160.78 136.08,-166.95"/>
</a>
</g>
</g>
<!-- Node19 -->
<g id="Node000019" class="node">
<title>Node19</title>
<g id="a_Node000019"><a xlink:href="namespacesvg.html#a46164d75fd5109e4ed8879abbacd5c11" target="_top" xlink:title="Zero degrees is top, going clockwise (cw).">
<polygon fill="white" stroke="#666666" points="242,-20 129.25,-20 129.25,0 242,0 242,-20"/>
<text text-anchor="middle" x="185.62" y="-8.4" font-family="SourceSans" font-size="8.00">svg::zero_angle_north_cw</text>
</a>
</g>
</g>
<!-- Node1&#45;&gt;Node19 -->
<g id="edge23_Node000001_Node000019" class="edge">
<title>Node1&#45;&gt;Node19</title>
<g id="a_edge23_Node000001_Node000019"><a xlink:title=" ">
<path fill="none" stroke="#63b8ff" d="M48.67,-225.73C52.6,-192.39 69.49,-86.12 129.25,-29 130.15,-28.14 131.09,-27.32 132.07,-26.53"/>
<polygon fill="#63b8ff" stroke="#63b8ff" points="133.8,-29.58 140.35,-21.24 130.03,-23.68 133.8,-29.58"/>
</a>
</g>
</g>
<!-- Node3 -->
<g id="Node000003" class="node">
<title>Node3</title>
<g id="a_Node000003"><a xlink:href="namespacesvg.html#a48ac748e89e22789d1772326a98dd7b6" target="_top" xlink:title=" ">
<polygon fill="white" stroke="#666666" points="373.5,-478 286.25,-478 286.25,-458 373.5,-458 373.5,-478"/>
<text text-anchor="middle" x="329.88" y="-466.4" font-family="SourceSans" font-size="8.00">svg::string_replace</text>
</a>
</g>
</g>
<!-- Node2&#45;&gt;Node3 -->
<g id="edge2_Node000002_Node000003" class="edge">
<title>Node2&#45;&gt;Node3</title>
<g id="a_edge2_Node000002_Node000003"><a xlink:title=" ">
<path fill="none" stroke="#63b8ff" d="M231.24,-468C245,-468 260.3,-468 274.64,-468"/>
<polygon fill="#63b8ff" stroke="#63b8ff" points="274.36,-471.5 284.36,-468 274.36,-464.5 274.36,-471.5"/>
</a>
</g>
</g>
<!-- Node5 -->
<g id="Node000005" class="node">
<title>Node5</title>
<g id="a_Node000005"><a xlink:href="group__elements.html#ad893ef9c13a15464c96d8a85c08af30f" target="_top" xlink:title=" ">
<polygon fill="white" stroke="#666666" points="380.25,-428 279.5,-428 279.5,-408 380.25,-408 380.25,-428"/>
<text text-anchor="middle" x="329.88" y="-416.4" font-family="SourceSans" font-size="8.00">svg::element_base::str</text>
</a>
</g>
</g>
<!-- Node4&#45;&gt;Node5 -->
<g id="edge4_Node000004_Node000005" class="edge">
<title>Node4&#45;&gt;Node5</title>
<g id="a_edge4_Node000004_Node000005"><a xlink:title=" ">
<path fill="none" stroke="#63b8ff" d="M236.38,-418C246.61,-418 257.5,-418 268.08,-418"/>
<polygon fill="#63b8ff" stroke="#63b8ff" points="267.88,-421.5 277.88,-418 267.88,-414.5 267.88,-421.5"/>
</a>
</g>
</g>
<!-- Node6&#45;&gt;Node7 -->
<g id="edge6_Node000006_Node000007" class="edge">
<title>Node6&#45;&gt;Node7</title>
<g id="a_edge6_Node000006_Node000007"><a xlink:title=" ">
<path fill="none" stroke="#63b8ff" d="M231.24,-330C248.32,-330 267.78,-330 284.81,-330"/>
<polygon fill="#63b8ff" stroke="#63b8ff" points="284.64,-333.5 294.64,-330 284.64,-326.5 284.64,-333.5"/>
</a>
</g>
</g>
<!-- Node9 -->
<g id="Node000009" class="node">
<title>Node9</title>
<g id="a_Node000009"><a xlink:href="group__elements.html#ga503ee2895588a6c684e2b1614cf4e73d" target="_top" xlink:title=" ">
<polygon fill="white" stroke="#666666" points="374.62,-208 285.12,-208 285.12,-176 374.62,-176 374.62,-208"/>
<text text-anchor="start" x="293.12" y="-196.4" font-family="SourceSans" font-size="8.00">svg::defs_element::</text>
<text text-anchor="middle" x="329.88" y="-184.4" font-family="SourceSans" font-size="8.00">finish_element</text>
</a>
</g>
</g>
<!-- Node8&#45;&gt;Node9 -->
<g id="edge8_Node000008_Node000009" class="edge">
<title>Node8&#45;&gt;Node9</title>
<g id="a_edge8_Node000008_Node000009"><a xlink:title=" ">
<path fill="none" stroke="#63b8ff" d="M231.24,-192C244.61,-192 259.44,-192 273.41,-192"/>
<polygon fill="#63b8ff" stroke="#63b8ff" points="273.39,-195.5 283.39,-192 273.39,-188.5 273.39,-195.5"/>
</a>
</g>
</g>
<!-- Node10 -->
<g id="Node000010" class="node">
<title>Node10</title>
<g id="a_Node000010"><a xlink:href="namespacesvg_1_1constants.html#aa7f04c2ea699a1b1e2e790de5ac33f38" target="_top" xlink:title=" ">
<polygon fill="white" stroke="#666666" points="522.25,-202 417.75,-202 417.75,-182 522.25,-182 522.25,-202"/>
<text text-anchor="middle" x="470" y="-190.4" font-family="SourceSans" font-size="8.00">svg::constants::newline</text>
</a>
</g>
</g>
<!-- Node8&#45;&gt;Node10 -->
<g id="edge10_Node000008_Node000010" class="edge">
<title>Node8&#45;&gt;Node10</title>
<g id="a_edge10_Node000008_Node000010"><a xlink:title=" ">
<path fill="none" stroke="#63b8ff" d="M231.21,-206.76C245.94,-210.94 262.51,-214.92 278,-217 323.7,-223.14 336.09,-223.41 381.75,-217 397.67,-214.76 414.75,-210.34 429.54,-205.83"/>
<polygon fill="#63b8ff" stroke="#63b8ff" points="430.44,-209.22 438.91,-202.85 428.32,-202.55 430.44,-209.22"/>
</a>
</g>
</g>
<!-- Node9&#45;&gt;Node10 -->
<g id="edge9_Node000009_Node000010" class="edge">
<title>Node9&#45;&gt;Node10</title>
<g id="a_edge9_Node000009_Node000010"><a xlink:title=" ">
<path fill="none" stroke="#63b8ff" d="M374.96,-192C384.93,-192 395.71,-192 406.28,-192"/>
<polygon fill="#63b8ff" stroke="#63b8ff" points="406.12,-195.5 416.12,-192 406.12,-188.5 406.12,-195.5"/>
</a>
</g>
</g>
<!-- Node12 -->
<g id="Node000012" class="node">
<title>Node12</title>
<g id="a_Node000012"><a xlink:href="namespacesvg.html#aef05ac63d88a6102981d3faf37275297" target="_top" xlink:title="Angle in radians.">
<polygon fill="white" stroke="#666666" points="381.75,-108 278,-108 278,-76 381.75,-76 381.75,-108"/>
<text text-anchor="start" x="286" y="-96.4" font-family="SourceSans" font-size="8.00">svg::get_circumference</text>
<text text-anchor="middle" x="329.88" y="-84.4" font-family="SourceSans" font-size="8.00">_point_r</text>
</a>
</g>
</g>
<!-- Node11&#45;&gt;Node12 -->
<g id="edge12_Node000011_Node000012" class="edge">
<title>Node11&#45;&gt;Node12</title>
<g id="a_edge12_Node000011_Node000012"><a xlink:title=" ">
<path fill="none" stroke="#63b8ff" d="M237.98,-92C247.15,-92 256.79,-92 266.23,-92"/>
<polygon fill="#63b8ff" stroke="#63b8ff" points="266.08,-95.5 276.08,-92 266.08,-88.5 266.08,-95.5"/>
</a>
</g>
</g>
<!-- Node13 -->
<g id="Node000013" class="node">
<title>Node13</title>
<g id="a_Node000013"><a xlink:href="namespacesvg_1_1constants.html#a0e0b0d9314bc47324ee39884bf8bb2fd" target="_top" xlink:title=" ">
<polygon fill="white" stroke="#666666" points="370.88,-58 288.88,-58 288.88,-38 370.88,-38 370.88,-58"/>
<text text-anchor="middle" x="329.88" y="-46.4" font-family="SourceSans" font-size="8.00">svg::constants::pi</text>
</a>
</g>
</g>
<!-- Node11&#45;&gt;Node13 -->
<g id="edge13_Node000011_Node000013" class="edge">
<title>Node11&#45;&gt;Node13</title>
<g id="a_edge13_Node000011_Node000013"><a xlink:title=" ">
<path fill="none" stroke="#63b8ff" d="M237.98,-76.11C253.2,-71.41 269.73,-66.29 284.47,-61.73"/>
<polygon fill="#63b8ff" stroke="#63b8ff" points="285.38,-65.12 293.9,-58.82 283.31,-58.43 285.38,-65.12"/>
</a>
</g>
</g>
<!-- Node15&#45;&gt;Node7 -->
<g id="edge17_Node000015_Node000007" class="edge">
<title>Node15&#45;&gt;Node7</title>
<g id="a_edge17_Node000015_Node000007"><a xlink:title=" ">
<path fill="none" stroke="#63b8ff" d="M231.24,-295.68C249.6,-302.13 270.7,-309.55 288.58,-315.84"/>
<polygon fill="#63b8ff" stroke="#63b8ff" points="287.22,-319.07 297.81,-319.08 289.54,-312.46 287.22,-319.07"/>
</a>
</g>
</g>
<!-- Node15&#45;&gt;Node16 -->
<g id="edge16_Node000015_Node000016" class="edge">
<title>Node15&#45;&gt;Node16</title>
<g id="a_edge16_Node000015_Node000016"><a xlink:title=" ">
<path fill="none" stroke="#63b8ff" d="M231.24,-279.06C243.6,-278.8 257.19,-278.51 270.21,-278.24"/>
<polygon fill="#63b8ff" stroke="#63b8ff" points="270.02,-281.74 279.95,-278.03 269.88,-274.74 270.02,-281.74"/>
</a>
</g>
</g>
<!-- Node18 -->
<g id="Node000018" class="node">
<title>Node18</title>
<g id="a_Node000018"><a xlink:href="group__elements.html#a948868c6f5dea784ded14c26cc1d2139" target="_top" xlink:title=" ">
<polygon fill="white" stroke="#666666" points="374.62,-158 285.12,-158 285.12,-126 374.62,-126 374.62,-158"/>
<text text-anchor="start" x="293.12" y="-146.4" font-family="SourceSans" font-size="8.00">svg::defs_element::</text>
<text text-anchor="middle" x="329.88" y="-134.4" font-family="SourceSans" font-size="8.00">start_element</text>
</a>
</g>
</g>
<!-- Node17&#45;&gt;Node18 -->
<g id="edge20_Node000017_Node000018" class="edge">
<title>Node17&#45;&gt;Node18</title>
<g id="a_edge20_Node000017_Node000018"><a xlink:title=" ">
<path fill="none" stroke="#63b8ff" d="M231.24,-142C244.61,-142 259.44,-142 273.41,-142"/>
<polygon fill="#63b8ff" stroke="#63b8ff" points="273.39,-145.5 283.39,-142 273.39,-138.5 273.39,-145.5"/>
</a>
</g>
</g>
<!-- Node18&#45;&gt;Node10 -->
<g id="edge21_Node000018_Node000010" class="edge">
<title>Node18&#45;&gt;Node10</title>
<g id="a_edge21_Node000018_Node000010"><a xlink:title=" ">
<path fill="none" stroke="#63b8ff" d="M374.96,-157.96C392.44,-164.29 412.4,-171.51 429.42,-177.67"/>
<polygon fill="#63b8ff" stroke="#63b8ff" points="428.1,-180.92 438.7,-181.03 430.48,-174.34 428.1,-180.92"/>
</a>
</g>
</g>
</g>
</svg>

<g id="navigator" transform="translate(0 0)" fill="#404254">
  <rect fill="#f2f5e9" fill-opacity="0.5" stroke="#606060" stroke-width=".5" x="0" y="0" width="60" height="60"/>
  <use id="zoomplus" xlink:href="#zoomPlus" x="17" y="9" onmousedown="handleZoom(evt,'in')"/>
  <use id="zoomminus" xlink:href="#zoomMin" x="42" y="9" onmousedown="handleZoom(evt,'out')"/>
  <use id="reset" xlink:href="#resetDef" x="30" y="36" onmousedown="handleReset()"/>
   <use id="arrowup" xlink:href="#arrowUp" x="0" y="0" onmousedown="handlePan(0,-1)"/>
  <use id="arrowright" xlink:href="#arrowRight" x="0" y="0" onmousedown="handlePan(1,0)"/>
  <use id="arrowdown" xlink:href="#arrowDown" x="0" y="0" onmousedown="handlePan(0,1)"/>
  <use id="arrowleft" xlink:href="#arrowLeft" x="0" y="0" onmousedown="handlePan(-1,0)"/>
</g>
<svg viewBox="0 0 15 15" width="100%" height="30px" preserveAspectRatio="xMaxYMin meet">
 <g id="arrow_out" transform="scale(0.3 0.3)">
  <a xlink:href="namespacesvg_ac1e28128c6f03cf9cd0248f18c69c496_cgraph_org.svg" target="_base">
   <rect id="button" ry="5" rx="5" y="6" x="6" height="38" width="38"
        fill="#f2f5e9" fill-opacity="0.5" stroke="#606060" stroke-width="1.0"/>
   <path id="arrow"
     d="M 11.500037,31.436501 C 11.940474,20.09759 22.043105,11.32322 32.158766,21.979434 L 37.068811,17.246167 C 37.068811,17.246167 37.088388,32 37.088388,32 L 22.160133,31.978069 C 22.160133,31.978069 26.997745,27.140456 26.997745,27.140456 C 18.528582,18.264221 13.291696,25.230495 11.500037,31.436501 z"
     style="fill:#404040;"/>
  </a>
 </g>
</svg>

<style type='text/css'>
<![CDATA[
[data-mouse-over-selected='false'] { opacity: 0.7; }
[data-mouse-over-selected='true']  { opacity: 1.0; }
]]>
</style>
<script type="application/ecmascript"><![CDATA[
document.addEventListener('DOMContentLoaded', (event) => {
  highlightEdges();
  highlightAdjacentNodes();
});
]]></script>
</svg>
