<?xml version="1.0" encoding="UTF-8" standalone="no"?>
<!DOCTYPE svg PUBLIC "-//W3C//DTD SVG 1.1//EN"
 "http://www.w3.org/Graphics/SVG/1.1/DTD/svg11.dtd">
<!-- Generated by graphviz version 12.1.0 (20240811.2233)
 -->
<!-- Title: a60::metadata::h_chord_graph Pages: 1 -->
<svg width="400pt" height="167pt"
 viewBox="0.00 0.00 399.50 167.00" xmlns="http://www.w3.org/2000/svg" xmlns:xlink="http://www.w3.org/1999/xlink">

<svg id="main" version="1.1" xmlns="http://www.w3.org/2000/svg" xmlns:xlink="http://www.w3.org/1999/xlink" xml:space="preserve">

<style type="text/css"><![CDATA[
.node, .edge {opacity: 0.7;}
.node.selected, .edge.selected {opacity: 1;}
.edge:hover path { stroke: red; }
.edge:hover polygon { stroke: red; fill: red; }
]]></style>
<script type="application/ecmascript" xlink:href="svg.min.js"/>
<svg id="graph" class="graph">
<g id="graph0" class="graph" transform="scale(1 1) rotate(0) translate(4 163)">
<title>a60::metadata::h_chord_graph</title>
<!-- Node1 -->
<g id="Node000001" class="node">
<title>Node1</title>
<g id="a_Node000001"><a xlink:title=" ">
<polygon fill="#999999" stroke="#666666" points="106,-87 0,-87 0,-55 106,-55 106,-87"/>
<text text-anchor="start" x="8" y="-75.4" font-family="SourceSans" font-size="8.00">a60::metadata::h_chord</text>
<text text-anchor="middle" x="53" y="-63.4" font-family="SourceSans" font-size="8.00">_graph</text>
</a>
</g>
</g>
<!-- Node2 -->
<g id="Node000002" class="node">
<title>Node2</title>
<g id="a_Node000002"><a xlink:href="namespacea60_1_1metadata.html#a4c88caad75ba7fd9dffc58be1f715b28" target="_top" xlink:title="Compute xoffset.">
<polygon fill="white" stroke="#666666" points="381.75,-159 293.75,-159 293.75,-127 381.75,-127 381.75,-159"/>
<text text-anchor="start" x="301.75" y="-147.4" font-family="SourceSans" font-size="8.00">a60::metadata::get</text>
<text text-anchor="middle" x="337.75" y="-135.4" font-family="SourceSans" font-size="8.00">_xoffset</text>
</a>
</g>
</g>
<!-- Node1&#45;&gt;Node2 -->
<g id="edge1_Node000001_Node000002" class="edge">
<title>Node1&#45;&gt;Node2</title>
<g id="a_edge1_Node000001_Node000002"><a xlink:title=" ">
<path fill="none" stroke="#63b8ff" d="M83.72,-87.38C100.4,-95.92 121.85,-105.84 142,-112 188.19,-126.13 242.61,-134.1 282.17,-138.41"/>
<polygon fill="#63b8ff" stroke="#63b8ff" points="281.61,-141.87 291.92,-139.43 282.33,-134.91 281.61,-141.87"/>
</a>
</g>
</g>
<!-- Node3 -->
<g id="Node000003" class="node">
<title>Node3</title>
<g id="a_Node000003"><a xlink:href="namespacea60_1_1metadata.html#a0e1ca2f297681851edcf2f74d3bf663e" target="_top" xlink:title="Grid, titles, labels for h_chord_graph. @yscale == how much to vertically scale the bar graph from ce...">
<polygon fill="white" stroke="#666666" points="248,-87 142,-87 142,-55 248,-55 248,-87"/>
<text text-anchor="start" x="150" y="-75.4" font-family="SourceSans" font-size="8.00">a60::metadata::h_chord</text>
<text text-anchor="middle" x="195" y="-63.4" font-family="SourceSans" font-size="8.00">_graph_labels</text>
</a>
</g>
</g>
<!-- Node1&#45;&gt;Node3 -->
<g id="edge2_Node000001_Node000003" class="edge">
<title>Node1&#45;&gt;Node3</title>
<g id="a_edge2_Node000001_Node000003"><a xlink:title=" ">
<path fill="none" stroke="#63b8ff" d="M106.13,-71C114.06,-71 122.31,-71 130.45,-71"/>
<polygon fill="#63b8ff" stroke="#63b8ff" points="130.31,-74.5 140.31,-71 130.31,-67.5 130.31,-74.5"/>
</a>
</g>
</g>
<!-- Node4 -->
<g id="Node000004" class="node">
<title>Node4</title>
<g id="a_Node000004"><a xlink:href="namespacea60_1_1metadata.html#a22b86d9f6417957b79f6e9dab13296dc" target="_top" xlink:title=" ">
<polygon fill="white" stroke="#666666" points="391.5,-100 284,-100 284,-80 391.5,-80 391.5,-100"/>
<text text-anchor="middle" x="337.75" y="-88.4" font-family="SourceSans" font-size="8.00">a60::metadata::hdenom</text>
</a>
</g>
</g>
<!-- Node1&#45;&gt;Node4 -->
<g id="edge7_Node000001_Node000004" class="edge">
<title>Node1&#45;&gt;Node4</title>
<g id="a_edge7_Node000001_Node000004"><a xlink:title=" ">
<path fill="none" stroke="#63b8ff" d="M102.82,-87.46C115.44,-90.99 129.1,-94.2 142,-96 185.11,-102.01 234.09,-100.46 272.15,-97.43"/>
<polygon fill="#63b8ff" stroke="#63b8ff" points="272.42,-100.92 282.08,-96.58 271.82,-93.95 272.42,-100.92"/>
</a>
</g>
</g>
<!-- Node5 -->
<g id="Node000005" class="node">
<title>Node5</title>
<g id="a_Node000005"><a xlink:href="namespacea60_1_1metadata.html#a2a619ed21560d442f5dfae5ea8101fce" target="_top" xlink:title="Distance between label and top/bottom of line or text.">
<polygon fill="white" stroke="#666666" points="389.25,-61 286.25,-61 286.25,-41 389.25,-41 389.25,-61"/>
<text text-anchor="middle" x="337.75" y="-49.4" font-family="SourceSans" font-size="8.00">a60::metadata::vlspace</text>
</a>
</g>
</g>
<!-- Node1&#45;&gt;Node5 -->
<g id="edge8_Node000001_Node000005" class="edge">
<title>Node1&#45;&gt;Node5</title>
<g id="a_edge8_Node000001_Node000005"><a xlink:title=" ">
<path fill="none" stroke="#63b8ff" d="M102.82,-54.54C115.44,-51.01 129.1,-47.8 142,-46 186.21,-39.84 236.59,-41.36 275.04,-44.28"/>
<polygon fill="#63b8ff" stroke="#63b8ff" points="274.3,-47.73 284.55,-45.06 274.86,-40.75 274.3,-47.73"/>
</a>
</g>
</g>
<!-- Node6 -->
<g id="Node000006" class="node">
<title>Node6</title>
<g id="a_Node000006"><a xlink:href="namespacea60_1_1metadata.html#a888d9b1e7402e335f8e7544373855a92" target="_top" xlink:title=" ">
<polygon fill="white" stroke="#666666" points="388.12,-20 287.38,-20 287.38,0 388.12,0 388.12,-20"/>
<text text-anchor="middle" x="337.75" y="-8.4" font-family="SourceSans" font-size="8.00">a60::metadata::vspace</text>
</a>
</g>
</g>
<!-- Node1&#45;&gt;Node6 -->
<g id="edge9_Node000001_Node000006" class="edge">
<title>Node1&#45;&gt;Node6</title>
<g id="a_edge9_Node000001_Node000006"><a xlink:title=" ">
<path fill="none" stroke="#63b8ff" d="M92.41,-54.54C107.62,-48.57 125.4,-42.25 142,-38 186.12,-26.7 237.11,-19.57 275.85,-15.34"/>
<polygon fill="#63b8ff" stroke="#63b8ff" points="275.86,-18.86 285.44,-14.33 275.13,-11.9 275.86,-18.86"/>
</a>
</g>
</g>
<!-- Node3&#45;&gt;Node2 -->
<g id="edge3_Node000003_Node000002" class="edge">
<title>Node3&#45;&gt;Node2</title>
<g id="a_edge3_Node000003_Node000002"><a xlink:title=" ">
<path fill="none" stroke="#63b8ff" d="M227.94,-87.34C247.73,-97.46 273.38,-110.58 294.8,-121.54"/>
<polygon fill="#63b8ff" stroke="#63b8ff" points="293.09,-124.6 303.59,-126.04 296.28,-118.37 293.09,-124.6"/>
</a>
</g>
</g>
<!-- Node3&#45;&gt;Node4 -->
<g id="edge4_Node000003_Node000004" class="edge">
<title>Node3&#45;&gt;Node4</title>
<g id="a_edge4_Node000003_Node000004"><a xlink:title=" ">
<path fill="none" stroke="#63b8ff" d="M248.41,-78.07C256.27,-79.14 264.46,-80.24 272.53,-81.33"/>
<polygon fill="#63b8ff" stroke="#63b8ff" points="271.95,-84.78 282.33,-82.65 272.88,-77.85 271.95,-84.78"/>
</a>
</g>
</g>
<!-- Node3&#45;&gt;Node5 -->
<g id="edge5_Node000003_Node000005" class="edge">
<title>Node3&#45;&gt;Node5</title>
<g id="a_edge5_Node000003_Node000005"><a xlink:title=" ">
<path fill="none" stroke="#63b8ff" d="M248.41,-63.55C257.09,-62.32 266.17,-61.03 275.05,-59.77"/>
<polygon fill="#63b8ff" stroke="#63b8ff" points="275.26,-63.27 284.67,-58.4 274.27,-56.34 275.26,-63.27"/>
</a>
</g>
</g>
<!-- Node3&#45;&gt;Node6 -->
<g id="edge6_Node000003_Node000006" class="edge">
<title>Node3&#45;&gt;Node6</title>
<g id="a_edge6_Node000003_Node000006"><a xlink:title=" ">
<path fill="none" stroke="#63b8ff" d="M232.74,-54.5C248.49,-47.48 267.11,-39.26 284,-32 289.44,-29.66 295.22,-27.21 300.87,-24.84"/>
<polygon fill="#63b8ff" stroke="#63b8ff" points="302.21,-28.07 310.08,-20.99 299.51,-21.62 302.21,-28.07"/>
</a>
</g>
</g>
</g>
</svg>
</svg>

<style type='text/css'>
<![CDATA[
[data-mouse-over-selected='false'] { opacity: 0.7; }
[data-mouse-over-selected='true']  { opacity: 1.0; }
]]>
</style>
<script type="application/ecmascript"><![CDATA[
document.addEventListener('DOMContentLoaded', (event) => {
  highlightEdges();
  highlightAdjacentNodes();
});
]]></script>
</svg>
