<?xml version="1.0" encoding="UTF-8" standalone="no"?>
<!DOCTYPE svg PUBLIC "-//W3C//DTD SVG 1.1//EN"
 "http://www.w3.org/Graphics/SVG/1.1/DTD/svg11.dtd">
<!-- Generated by graphviz version 12.2.1 (20241206.2353)
 -->
<!-- Title: svg::direction_arc_title_at Pages: 1 -->
<!--zoomable 725 -->

<svg id="main" version="1.1" xmlns="http://www.w3.org/2000/svg" xmlns:xlink="http://www.w3.org/1999/xlink" xml:space="preserve" onload="init(evt)">

<style type="text/css"><![CDATA[
.node, .edge {opacity: 0.7;}
.node.selected, .edge.selected {opacity: 1;}
.edge:hover path { stroke: red; }
.edge:hover polygon { stroke: red; fill: red; }
]]></style>

<defs>
  <circle id="rim" cx="0" cy="0" r="7"/>
  <circle id="rim2" cx="0" cy="0" r="3.5"/>
  <g id="zoomPlus">
    <use xlink:href="#rim" fill="#404040"><set attributeName="fill" to="#808080" begin="zoomplus.mouseover" end="zoomplus.mouseout"/></use>
    <path d="M-4,0h8M0,-4v8" fill="none" stroke="white" stroke-width="1.5" pointer-events="none"/>
  </g>
  <g id="zoomMin">
    <use xlink:href="#rim" fill="#404040"><set attributeName="fill" to="#808080" begin="zoomminus.mouseover" end="zoomminus.mouseout"/></use>
    <path d="M-4,0h8" fill="none" stroke="white" stroke-width="1.5" pointer-events="none"/>
  </g>
  <g id="arrowUp" transform="translate(30 24)">
    <use xlink:href="#rim"/>
    <path pointer-events="none" fill="none" stroke="white" stroke-width="1.5" d="M0,-3.0v7 M-2.5,-0.5L0,-3.0L2.5,-0.5"/>
  </g>
  <g id="arrowRight" transform="rotate(90) translate(36 -43)">
    <use xlink:href="#rim"/>
    <path pointer-events="none" fill="none" stroke="white" stroke-width="1.5" d="M0,-3.0v7 M-2.5,-0.5L0,-3.0L2.5,-0.5"/>
  </g>
  <g id="arrowDown" transform="rotate(180) translate(-30 -48)">
    <use xlink:href="#rim"/>
    <path pointer-events="none" fill="none" stroke="white" stroke-width="1.5" d="M0,-3.0v7 M-2.5,-0.5L0,-3.0L2.5,-0.5"/>
  </g>
  <g id="arrowLeft" transform="rotate(270) translate(-36 17)">
    <use xlink:href="#rim"/>
    <path pointer-events="none" fill="none" stroke="white" stroke-width="1.5" d="M0,-3.0v7 M-2.5,-0.5L0,-3.0L2.5,-0.5"/>
  </g>
  <g id="resetDef">
    <use xlink:href="#rim2" fill="#404040"><set attributeName="fill" to="#808080" begin="reset.mouseover" end="reset.mouseout"/></use>
  </g>
</defs>
<script type="application/ecmascript">
var viewWidth = 533;
var viewHeight = 725;
var sectionId = 'dynsection-55';
</script>
<script type="application/ecmascript" xlink:href="svg.min.js"/>
<svg id="graph" class="graph">
<g id="viewport">
<title>svg::direction_arc_title_at</title>
<!-- Node1 -->
<g id="Node000001" class="node">
<title>Node1</title>
<g id="a_Node000001"><a xlink:title="Title on same arc.">
<polygon fill="#999999" stroke="#666666" points="88,-283.62 0,-283.62 0,-256.12 88,-256.12 88,-283.62"/>
<text text-anchor="start" x="8" y="-272.02" font-family="SourceSans" font-size="8.00">svg::direction_arc</text>
<text text-anchor="middle" x="44" y="-262.27" font-family="SourceSans" font-size="8.00">_title_at</text>
</a>
</g>
</g>
<!-- Node2 -->
<g id="Node000002" class="node">
<title>Node2</title>
<g id="a_Node000002"><a xlink:href="group__elements.html#a807f3c30f2ace338ad10aaf230b47665" target="_top" xlink:title="Either serialize immediately (as below), or create data structure that adds data to data_vec and then...">
<polygon fill="white" stroke="#666666" points="385.88,-716.62 287.38,-716.62 287.38,-689.12 385.88,-689.12 385.88,-716.62"/>
<text text-anchor="start" x="295.38" y="-705.02" font-family="SourceSans" font-size="8.00">svg::path_element::</text>
<text text-anchor="middle" x="336.62" y="-695.27" font-family="SourceSans" font-size="8.00">add_data</text>
</a>
</g>
</g>
<!-- Node1&#45;&gt;Node2 -->
<g id="edge1_Node000001_Node000002" class="edge">
<title>Node1&#45;&gt;Node2</title>
<g id="a_edge1_Node000001_Node000002"><a xlink:title=" ">
<path fill="none" stroke="#63b8ff" d="M44.92,-284.12C45.37,-331.18 52.54,-484 124,-578.88 163.66,-631.53 232.73,-665.84 281.14,-684.74"/>
<polygon fill="#63b8ff" stroke="#63b8ff" points="279.75,-687.96 290.34,-688.23 282.23,-681.41 279.75,-687.96"/>
</a>
</g>
</g>
<!-- Node4 -->
<g id="Node000004" class="node">
<title>Node4</title>
<g id="a_Node000004"><a xlink:href="group__elements.html#aad29e1daf75bdcd69a39575a6807fa0f" target="_top" xlink:title="Either serialize immediately (as below), or create data structure that adds data to data_vec and then...">
<polygon fill="white" stroke="#666666" points="231.88,-569.62 137.12,-569.62 137.12,-542.12 231.88,-542.12 231.88,-569.62"/>
<text text-anchor="start" x="145.12" y="-558.02" font-family="SourceSans" font-size="8.00">svg::text_element::</text>
<text text-anchor="middle" x="184.5" y="-548.27" font-family="SourceSans" font-size="8.00">add_data</text>
</a>
</g>
</g>
<!-- Node1&#45;&gt;Node4 -->
<g id="edge3_Node000001_Node000004" class="edge">
<title>Node1&#45;&gt;Node4</title>
<g id="a_edge3_Node000001_Node000004"><a xlink:title=" ">
<path fill="none" stroke="#63b8ff" d="M50.1,-283.79C61.8,-315.25 92.05,-394.05 124,-456.88 137.48,-483.39 155.32,-512.42 167.94,-532.14"/>
<polygon fill="#63b8ff" stroke="#63b8ff" points="164.99,-534.03 173.36,-540.54 170.87,-530.24 164.99,-534.03"/>
</a>
</g>
</g>
<!-- Node10 -->
<g id="Node000010" class="node">
<title>Node10</title>
<g id="a_Node000010"><a xlink:href="group__elements.html#ada0333b46b2547c6152f3f5811016a12" target="_top" xlink:title=" ">
<polygon fill="white" stroke="#666666" points="234.5,-375.62 134.5,-375.62 134.5,-348.12 234.5,-348.12 234.5,-375.62"/>
<text text-anchor="start" x="142.5" y="-364.02" font-family="SourceSans" font-size="8.00">svg::element_base::</text>
<text text-anchor="middle" x="184.5" y="-354.27" font-family="SourceSans" font-size="8.00">add_element</text>
</a>
</g>
</g>
<!-- Node1&#45;&gt;Node10 -->
<g id="edge12_Node000001_Node000010" class="edge">
<title>Node1&#45;&gt;Node10</title>
<g id="a_edge12_Node000001_Node000010"><a xlink:title=" ">
<path fill="none" stroke="#63b8ff" d="M58.1,-283.94C72.9,-299.17 98.28,-323.34 124,-338.88 126.28,-340.25 128.66,-341.57 131.09,-342.84"/>
<polygon fill="#63b8ff" stroke="#63b8ff" points="129.43,-345.92 139.96,-347.05 132.43,-339.6 129.43,-345.92"/>
</a>
</g>
</g>
<!-- Node12 -->
<g id="Node000012" class="node">
<title>Node12</title>
<g id="a_Node000012"><a xlink:href="group__elements.html#a238b38ca99a1cf6c2baf80c8e4338d99" target="_top" xlink:title=" ">
<polygon fill="white" stroke="#666666" points="386.62,-456.62 286.62,-456.62 286.62,-429.12 386.62,-429.12 386.62,-456.62"/>
<text text-anchor="start" x="294.62" y="-445.02" font-family="SourceSans" font-size="8.00">svg::element_base::</text>
<text text-anchor="middle" x="336.62" y="-435.27" font-family="SourceSans" font-size="8.00">add_style</text>
</a>
</g>
</g>
<!-- Node1&#45;&gt;Node12 -->
<g id="edge14_Node000001_Node000012" class="edge">
<title>Node1&#45;&gt;Node12</title>
<g id="a_edge14_Node000001_Node000012"><a xlink:title=" ">
<path fill="none" stroke="#63b8ff" d="M48.41,-283.88C56.26,-312.88 78.54,-379.43 124,-410.88 168,-441.3 229.44,-447.63 274.79,-447.34"/>
<polygon fill="#63b8ff" stroke="#63b8ff" points="274.8,-450.84 284.73,-447.15 274.67,-443.84 274.8,-450.84"/>
</a>
</g>
</g>
<!-- Node13 -->
<g id="Node000013" class="node">
<title>Node13</title>
<g id="a_Node000013"><a xlink:href="group__elements.html#gaac30ae99fb1a2542688fa1ffb43cd8e1" target="_top" xlink:title=" ">
<polygon fill="white" stroke="#666666" points="233.75,-283.62 135.25,-283.62 135.25,-256.12 233.75,-256.12 233.75,-283.62"/>
<text text-anchor="start" x="143.25" y="-272.02" font-family="SourceSans" font-size="8.00">svg::path_element::</text>
<text text-anchor="middle" x="184.5" y="-262.27" font-family="SourceSans" font-size="8.00">finish_element</text>
</a>
</g>
</g>
<!-- Node1&#45;&gt;Node13 -->
<g id="edge16_Node000001_Node000013" class="edge">
<title>Node1&#45;&gt;Node13</title>
<g id="a_edge16_Node000001_Node000013"><a xlink:title=" ">
<path fill="none" stroke="#63b8ff" d="M88.44,-269.88C99.62,-269.88 111.85,-269.88 123.71,-269.88"/>
<polygon fill="#63b8ff" stroke="#63b8ff" points="123.4,-273.38 133.4,-269.88 123.4,-266.38 123.4,-273.38"/>
</a>
</g>
</g>
<!-- Node14 -->
<g id="Node000014" class="node">
<title>Node14</title>
<g id="a_Node000014"><a xlink:href="group__elements.html#ga13c46848317034d16c62a7d2061ba3d6" target="_top" xlink:title=" ">
<polygon fill="white" stroke="#666666" points="231.88,-237.62 137.12,-237.62 137.12,-210.12 231.88,-210.12 231.88,-237.62"/>
<text text-anchor="start" x="145.12" y="-226.03" font-family="SourceSans" font-size="8.00">svg::text_element::</text>
<text text-anchor="middle" x="184.5" y="-216.28" font-family="SourceSans" font-size="8.00">finish_element</text>
</a>
</g>
</g>
<!-- Node1&#45;&gt;Node14 -->
<g id="edge17_Node000001_Node000014" class="edge">
<title>Node1&#45;&gt;Node14</title>
<g id="a_edge17_Node000001_Node000014"><a xlink:title=" ">
<path fill="none" stroke="#63b8ff" d="M87.68,-255.7C101.11,-251.24 116.11,-246.26 130.18,-241.58"/>
<polygon fill="#63b8ff" stroke="#63b8ff" points="130.89,-245.03 139.28,-238.56 128.69,-238.39 130.89,-245.03"/>
</a>
</g>
</g>
<!-- Node15 -->
<g id="Node000015" class="node">
<title>Node15</title>
<g id="a_Node000015"><a xlink:href="namespacesvg.html#ab44508c4aeca591141ebec50145b75cd" target="_top" xlink:title="Angle in degrees.">
<polygon fill="white" stroke="#666666" points="240.12,-191.62 128.88,-191.62 128.88,-164.12 240.12,-164.12 240.12,-191.62"/>
<text text-anchor="start" x="136.88" y="-180.03" font-family="SourceSans" font-size="8.00">svg::get_circumference</text>
<text text-anchor="middle" x="184.5" y="-170.28" font-family="SourceSans" font-size="8.00">_point_d</text>
</a>
</g>
</g>
<!-- Node1&#45;&gt;Node15 -->
<g id="edge18_Node000001_Node000015" class="edge">
<title>Node1&#45;&gt;Node15</title>
<g id="a_edge18_Node000001_Node000015"><a xlink:title=" ">
<path fill="none" stroke="#63b8ff" d="M58.1,-255.81C72.9,-240.58 98.28,-216.41 124,-200.88 126.28,-199.5 128.66,-198.18 131.09,-196.91"/>
<polygon fill="#63b8ff" stroke="#63b8ff" points="132.43,-200.15 139.96,-192.7 129.43,-193.83 132.43,-200.15"/>
</a>
</g>
</g>
<!-- Node17 -->
<g id="Node000017" class="node">
<title>Node17</title>
<g id="a_Node000017"><a xlink:href="namespacesvg.html#a37b1e7c40b54ff3cdd4e2929cb6b7ba2" target="_top" xlink:title=" ">
<polygon fill="white" stroke="#666666" points="236.75,-145.75 132.25,-145.75 132.25,-128 236.75,-128 236.75,-145.75"/>
<text text-anchor="middle" x="184.5" y="-134.15" font-family="SourceSans" font-size="8.00">svg::get_radial_range</text>
</a>
</g>
</g>
<!-- Node1&#45;&gt;Node17 -->
<g id="edge20_Node000001_Node000017" class="edge">
<title>Node1&#45;&gt;Node17</title>
<g id="a_edge20_Node000001_Node000017"><a xlink:title=" ">
<path fill="none" stroke="#63b8ff" d="M50.81,-255.92C61.6,-231.7 87.04,-181.9 124,-154.88 125.91,-153.48 127.92,-152.19 130.01,-151.01"/>
<polygon fill="#63b8ff" stroke="#63b8ff" points="131.34,-154.25 138.86,-146.79 128.33,-147.93 131.34,-154.25"/>
</a>
</g>
</g>
<!-- Node18 -->
<g id="Node000018" class="node">
<title>Node18</title>
<g id="a_Node000018"><a xlink:href="namespacesvg.html#abd8e35decc1e56f7243b02174c701d37" target="_top" xlink:title="Make path segment between two points on a circumference of radius r. Points like: get_circumference_p...">
<polygon fill="white" stroke="#666666" points="385.12,-410.62 288.12,-410.62 288.12,-383.12 385.12,-383.12 385.12,-410.62"/>
<text text-anchor="start" x="296.12" y="-399.02" font-family="SourceSans" font-size="8.00">svg::make_path_arc</text>
<text text-anchor="middle" x="336.62" y="-389.27" font-family="SourceSans" font-size="8.00">_circumference</text>
</a>
</g>
</g>
<!-- Node1&#45;&gt;Node18 -->
<g id="edge21_Node000001_Node000018" class="edge">
<title>Node1&#45;&gt;Node18</title>
<g id="a_edge21_Node000001_Node000018"><a xlink:title=" ">
<path fill="none" stroke="#63b8ff" d="M49.9,-283.96C59.55,-309.33 83.69,-362.18 124,-384.88 170.31,-410.95 231.73,-411.42 276.46,-406.88"/>
<polygon fill="#63b8ff" stroke="#63b8ff" points="276.7,-410.38 286.24,-405.77 275.91,-403.42 276.7,-410.38"/>
</a>
</g>
</g>
<!-- Node19 -->
<g id="Node000019" class="node">
<title>Node19</title>
<g id="a_Node000019"><a xlink:href="group__elements.html#a6dbca7cef2cbc0c10aa44c44ae20b36e" target="_top" xlink:title=" ">
<polygon fill="white" stroke="#666666" points="233.75,-109.62 135.25,-109.62 135.25,-82.12 233.75,-82.12 233.75,-109.62"/>
<text text-anchor="start" x="143.25" y="-98.03" font-family="SourceSans" font-size="8.00">svg::path_element::</text>
<text text-anchor="middle" x="184.5" y="-88.28" font-family="SourceSans" font-size="8.00">start_element</text>
</a>
</g>
</g>
<!-- Node1&#45;&gt;Node19 -->
<g id="edge23_Node000001_Node000019" class="edge">
<title>Node1&#45;&gt;Node19</title>
<g id="a_edge23_Node000001_Node000019"><a xlink:title=" ">
<path fill="none" stroke="#63b8ff" d="M48.73,-255.7C57.18,-226.19 80.52,-157.69 124,-118.88 125.07,-117.92 126.18,-117 127.33,-116.12"/>
<polygon fill="#63b8ff" stroke="#63b8ff" points="128.96,-119.24 135.47,-110.88 125.17,-113.35 128.96,-119.24"/>
</a>
</g>
</g>
<!-- Node20 -->
<g id="Node000020" class="node">
<title>Node20</title>
<g id="a_Node000020"><a xlink:href="group__elements.html#ae45bec611a6ec17ea46aab6d680ae042" target="_top" xlink:title=" ">
<polygon fill="white" stroke="#666666" points="231.88,-63.62 137.12,-63.62 137.12,-36.12 231.88,-36.12 231.88,-63.62"/>
<text text-anchor="start" x="145.12" y="-52.02" font-family="SourceSans" font-size="8.00">svg::text_element::</text>
<text text-anchor="middle" x="184.5" y="-42.27" font-family="SourceSans" font-size="8.00">start_element</text>
</a>
</g>
</g>
<!-- Node1&#45;&gt;Node20 -->
<g id="edge24_Node000001_Node000020" class="edge">
<title>Node1&#45;&gt;Node20</title>
<g id="a_edge24_Node000001_Node000020"><a xlink:title=" ">
<path fill="none" stroke="#63b8ff" d="M46.76,-255.85C51.93,-220.35 70.25,-125.95 124,-72.88 125.04,-71.85 126.13,-70.86 127.27,-69.92"/>
<polygon fill="#63b8ff" stroke="#63b8ff" points="129.13,-72.89 135.43,-64.37 125.2,-67.1 129.13,-72.89"/>
</a>
</g>
</g>
<!-- Node21 -->
<g id="Node000021" class="node">
<title>Node21</title>
<g id="a_Node000021"><a xlink:href="group__elements.html#ga7377cbfee9b608cb1faaffbd27821fd7" target="_top" xlink:title=" ">
<polygon fill="white" stroke="#666666" points="234.5,-329.62 134.5,-329.62 134.5,-302.12 234.5,-302.12 234.5,-329.62"/>
<text text-anchor="start" x="142.5" y="-318.02" font-family="SourceSans" font-size="8.00">svg::element_base::</text>
<text text-anchor="middle" x="184.5" y="-308.27" font-family="SourceSans" font-size="8.00">store_element</text>
</a>
</g>
</g>
<!-- Node1&#45;&gt;Node21 -->
<g id="edge25_Node000001_Node000021" class="edge">
<title>Node1&#45;&gt;Node21</title>
<g id="a_edge25_Node000001_Node000021"><a xlink:title=" ">
<path fill="none" stroke="#63b8ff" d="M87.68,-284.05C101.11,-288.51 116.11,-293.49 130.18,-298.17"/>
<polygon fill="#63b8ff" stroke="#63b8ff" points="128.69,-301.36 139.28,-301.19 130.89,-294.72 128.69,-301.36"/>
</a>
</g>
</g>
<!-- Node24 -->
<g id="Node000024" class="node">
<title>Node24</title>
<g id="a_Node000024"><a xlink:href="namespacesvg.html#a46164d75fd5109e4ed8879abbacd5c11" target="_top" xlink:title="Zero degrees is top, going clockwise (cw).">
<polygon fill="white" stroke="#666666" points="245,-17.75 124,-17.75 124,0 245,0 245,-17.75"/>
<text text-anchor="middle" x="184.5" y="-6.15" font-family="SourceSans" font-size="8.00">svg::zero_angle_north_cw</text>
</a>
</g>
</g>
<!-- Node1&#45;&gt;Node24 -->
<g id="edge29_Node000001_Node000024" class="edge">
<title>Node1&#45;&gt;Node24</title>
<g id="a_edge29_Node000001_Node000024"><a xlink:title=" ">
<path fill="none" stroke="#63b8ff" d="M45.28,-255.77C46.88,-214.4 57.3,-92.22 124,-26.88 124.91,-25.99 125.85,-25.14 126.84,-24.34"/>
<polygon fill="#63b8ff" stroke="#63b8ff" points="128.69,-27.31 135.25,-18.99 124.93,-21.41 128.69,-27.31"/>
</a>
</g>
</g>
<!-- Node3 -->
<g id="Node000003" class="node">
<title>Node3</title>
<g id="a_Node000003"><a xlink:href="namespacesvg.html#a48ac748e89e22789d1772326a98dd7b6" target="_top" xlink:title=" ">
<polygon fill="white" stroke="#666666" points="523,-669.75 429.75,-669.75 429.75,-652 523,-652 523,-669.75"/>
<text text-anchor="middle" x="476.38" y="-658.15" font-family="SourceSans" font-size="8.00">svg::string_replace</text>
</a>
</g>
</g>
<!-- Node2&#45;&gt;Node3 -->
<g id="edge2_Node000002_Node000003" class="edge">
<title>Node2&#45;&gt;Node3</title>
<g id="a_edge2_Node000002_Node000003"><a xlink:title=" ">
<path fill="none" stroke="#63b8ff" d="M384.26,-688.66C400.34,-683.75 418.23,-678.3 433.87,-673.53"/>
<polygon fill="#63b8ff" stroke="#63b8ff" points="434.81,-676.9 443.36,-670.64 432.77,-670.21 434.81,-676.9"/>
</a>
</g>
</g>
<!-- Node4&#45;&gt;Node3 -->
<g id="edge10_Node000004_Node000003" class="edge">
<title>Node4&#45;&gt;Node3</title>
<g id="a_edge10_Node000004_Node000003"><a xlink:title=" ">
<path fill="none" stroke="#63b8ff" d="M196.04,-569.83C211.97,-589.74 244.25,-625.67 281,-641.88 324.2,-660.92 377.92,-664.87 417.93,-664.51"/>
<polygon fill="#63b8ff" stroke="#63b8ff" points="417.91,-668.01 427.84,-664.32 417.77,-661.01 417.91,-668.01"/>
</a>
</g>
</g>
<!-- Node5 -->
<g id="Node000005" class="node">
<title>Node5</title>
<g id="a_Node000005"><a xlink:href="structsvg_1_1typography.html#adbc62f74f1fed3f7c77567250f084f83" target="_top" xlink:title=" ">
<polygon fill="white" stroke="#666666" points="388.5,-632.62 284.75,-632.62 284.75,-605.12 388.5,-605.12 388.5,-632.62"/>
<text text-anchor="start" x="292.75" y="-621.02" font-family="SourceSans" font-size="8.00">svg::typography::add</text>
<text text-anchor="middle" x="336.62" y="-611.27" font-family="SourceSans" font-size="8.00">_attribute</text>
</a>
</g>
</g>
<!-- Node4&#45;&gt;Node5 -->
<g id="edge4_Node000004_Node000005" class="edge">
<title>Node4&#45;&gt;Node5</title>
<g id="a_edge4_Node000004_Node000005"><a xlink:title=" ">
<path fill="none" stroke="#63b8ff" d="M219.19,-570.01C240.46,-578.94 268.17,-590.57 291.23,-600.24"/>
<polygon fill="#63b8ff" stroke="#63b8ff" points="289.82,-603.45 300.39,-604.09 292.52,-596.99 289.82,-603.45"/>
</a>
</g>
</g>
<!-- Node6 -->
<g id="Node000006" class="node">
<title>Node6</title>
<g id="a_Node000006"><a xlink:href="namespacesvg.html#a36b1c48ad4601b205790e3772ad0a7b6" target="_top" xlink:title=" ">
<polygon fill="white" stroke="#666666" points="512.12,-518.75 440.62,-518.75 440.62,-501 512.12,-501 512.12,-518.75"/>
<text text-anchor="middle" x="476.38" y="-507.15" font-family="SourceSans" font-size="8.00">svg::to_string</text>
</a>
</g>
</g>
<!-- Node4&#45;&gt;Node6 -->
<g id="edge11_Node000004_Node000006" class="edge">
<title>Node4&#45;&gt;Node6</title>
<g id="a_edge11_Node000004_Node000006"><a xlink:title=" ">
<path fill="none" stroke="#63b8ff" d="M231.97,-563.34C274.47,-568.53 338.68,-572.23 392.25,-557.88 415.44,-551.66 438.86,-537.23 454.91,-525.81"/>
<polygon fill="#63b8ff" stroke="#63b8ff" points="456.69,-528.84 462.66,-520.08 452.53,-523.21 456.69,-528.84"/>
</a>
</g>
</g>
<!-- Node8 -->
<g id="Node000008" class="node">
<title>Node8</title>
<g id="a_Node000008"><a xlink:href="group__elements.html#a1ed006cabdb9c531c2bd8e27ea9e0966" target="_top" xlink:title=" ">
<polygon fill="white" stroke="#666666" points="384,-548.62 289.25,-548.62 289.25,-521.12 384,-521.12 384,-548.62"/>
<text text-anchor="start" x="297.25" y="-537.02" font-family="SourceSans" font-size="8.00">svg::text_element::</text>
<text text-anchor="middle" x="336.62" y="-527.27" font-family="SourceSans" font-size="8.00">add_text</text>
</a>
</g>
</g>
<!-- Node4&#45;&gt;Node8 -->
<g id="edge8_Node000004_Node000008" class="edge">
<title>Node4&#45;&gt;Node8</title>
<g id="a_edge8_Node000004_Node000008"><a xlink:title=" ">
<path fill="none" stroke="#63b8ff" d="M232.18,-549.35C246.58,-547.33 262.62,-545.09 277.69,-542.98"/>
<polygon fill="#63b8ff" stroke="#63b8ff" points="278.06,-546.46 287.48,-541.61 277.09,-539.53 278.06,-546.46"/>
</a>
</g>
</g>
<!-- Node9 -->
<g id="Node000009" class="node">
<title>Node9</title>
<g id="a_Node000009"><a xlink:href="group__elements.html#a53d72a7ff728ad1d4d027254530bcf3d" target="_top" xlink:title="Common transforms include rotate(180)">
<polygon fill="white" stroke="#666666" points="386.62,-502.62 286.62,-502.62 286.62,-475.12 386.62,-475.12 386.62,-502.62"/>
<text text-anchor="start" x="294.62" y="-491.02" font-family="SourceSans" font-size="8.00">svg::element_base::</text>
<text text-anchor="middle" x="336.62" y="-481.27" font-family="SourceSans" font-size="8.00">add_transform</text>
</a>
</g>
</g>
<!-- Node4&#45;&gt;Node9 -->
<g id="edge9_Node000004_Node000009" class="edge">
<title>Node4&#45;&gt;Node9</title>
<g id="a_edge9_Node000004_Node000009"><a xlink:title=" ">
<path fill="none" stroke="#63b8ff" d="M215.49,-541.75C234.25,-532.99 258.95,-521.59 281,-511.88 284.3,-510.42 287.71,-508.94 291.15,-507.46"/>
<polygon fill="#63b8ff" stroke="#63b8ff" points="292.24,-510.8 300.07,-503.65 289.49,-504.36 292.24,-510.8"/>
</a>
</g>
</g>
<!-- Node5&#45;&gt;Node3 -->
<g id="edge5_Node000005_Node000003" class="edge">
<title>Node5&#45;&gt;Node3</title>
<g id="a_edge5_Node000005_Node000003"><a xlink:title=" ">
<path fill="none" stroke="#63b8ff" d="M384.26,-633.09C400.34,-638 418.23,-643.45 433.87,-648.22"/>
<polygon fill="#63b8ff" stroke="#63b8ff" points="432.77,-651.54 443.36,-651.11 434.81,-644.85 432.77,-651.54"/>
</a>
</g>
</g>
<!-- Node5&#45;&gt;Node6 -->
<g id="edge6_Node000005_Node000006" class="edge">
<title>Node5&#45;&gt;Node6</title>
<g id="a_edge6_Node000005_Node000006"><a xlink:title=" ">
<path fill="none" stroke="#63b8ff" d="M369.19,-604.72C377,-600.68 385.15,-595.97 392.25,-590.88 418.59,-571.95 444.66,-544.81 460.4,-527.26"/>
<polygon fill="#63b8ff" stroke="#63b8ff" points="462.64,-530 466.63,-520.18 457.39,-525.37 462.64,-530"/>
</a>
</g>
</g>
<!-- Node7 -->
<g id="Node000007" class="node">
<title>Node7</title>
<g id="a_Node000007"><a xlink:href="structsvg_1_1typography.html#a174c1ffb4e56214d71523ffe7e422561" target="_top" xlink:title=" ">
<polygon fill="white" stroke="#666666" points="524.5,-632.62 428.25,-632.62 428.25,-605.12 524.5,-605.12 524.5,-632.62"/>
<text text-anchor="start" x="436.25" y="-621.02" font-family="SourceSans" font-size="8.00">svg::typography::to</text>
<text text-anchor="middle" x="476.38" y="-611.27" font-family="SourceSans" font-size="8.00">_string</text>
</a>
</g>
</g>
<!-- Node5&#45;&gt;Node7 -->
<g id="edge7_Node000005_Node000007" class="edge">
<title>Node5&#45;&gt;Node7</title>
<g id="a_edge7_Node000005_Node000007"><a xlink:title=" ">
<path fill="none" stroke="#63b8ff" d="M388.92,-618.88C397.95,-618.88 407.42,-618.88 416.64,-618.88"/>
<polygon fill="#63b8ff" stroke="#63b8ff" points="416.62,-622.38 426.62,-618.88 416.62,-615.38 416.62,-622.38"/>
</a>
</g>
</g>
<!-- Node11 -->
<g id="Node000011" class="node">
<title>Node11</title>
<g id="a_Node000011"><a xlink:href="group__elements.html#ad893ef9c13a15464c96d8a85c08af30f" target="_top" xlink:title=" ">
<polygon fill="white" stroke="#666666" points="391.88,-364.75 281.38,-364.75 281.38,-347 391.88,-347 391.88,-364.75"/>
<text text-anchor="middle" x="336.62" y="-353.15" font-family="SourceSans" font-size="8.00">svg::element_base::str</text>
</a>
</g>
</g>
<!-- Node10&#45;&gt;Node11 -->
<g id="edge13_Node000010_Node000011" class="edge">
<title>Node10&#45;&gt;Node11</title>
<g id="a_edge13_Node000010_Node000011"><a xlink:title=" ">
<path fill="none" stroke="#63b8ff" d="M234.66,-359.91C245.87,-359.46 257.96,-358.98 269.74,-358.51"/>
<polygon fill="#63b8ff" stroke="#63b8ff" points="269.54,-362.02 279.39,-358.12 269.26,-355.02 269.54,-362.02"/>
</a>
</g>
</g>
<!-- Node12&#45;&gt;Node6 -->
<g id="edge15_Node000012_Node000006" class="edge">
<title>Node12&#45;&gt;Node6</title>
<g id="a_edge15_Node000012_Node000006"><a xlink:title=" ">
<path fill="none" stroke="#63b8ff" d="M372.51,-457.02C379.11,-459.85 385.93,-462.88 392.25,-465.88 411.49,-475 432.71,-486.25 448.89,-495.09"/>
<polygon fill="#63b8ff" stroke="#63b8ff" points="446.95,-498.01 457.39,-499.77 450.32,-491.88 446.95,-498.01"/>
</a>
</g>
</g>
<!-- Node16 -->
<g id="Node000016" class="node">
<title>Node16</title>
<g id="a_Node000016"><a xlink:href="namespacesvg.html#aef05ac63d88a6102981d3faf37275297" target="_top" xlink:title="Angle in radians.">
<polygon fill="white" stroke="#666666" points="392.25,-191.62 281,-191.62 281,-164.12 392.25,-164.12 392.25,-191.62"/>
<text text-anchor="start" x="289" y="-180.03" font-family="SourceSans" font-size="8.00">svg::get_circumference</text>
<text text-anchor="middle" x="336.62" y="-170.28" font-family="SourceSans" font-size="8.00">_point_r</text>
</a>
</g>
</g>
<!-- Node15&#45;&gt;Node16 -->
<g id="edge19_Node000015_Node000016" class="edge">
<title>Node15&#45;&gt;Node16</title>
<g id="a_edge19_Node000015_Node000016"><a xlink:title=" ">
<path fill="none" stroke="#63b8ff" d="M240.55,-177.88C249.83,-177.88 259.55,-177.88 269.09,-177.88"/>
<polygon fill="#63b8ff" stroke="#63b8ff" points="269.07,-181.38 279.07,-177.88 269.07,-174.38 269.07,-181.38"/>
</a>
</g>
</g>
<!-- Node18&#45;&gt;Node6 -->
<g id="edge22_Node000018_Node000006" class="edge">
<title>Node18&#45;&gt;Node6</title>
<g id="a_edge22_Node000018_Node000006"><a xlink:title=" ">
<path fill="none" stroke="#63b8ff" d="M376.91,-410.99C382.27,-413.6 387.53,-416.57 392.25,-419.88 421.01,-440.06 447.27,-471.67 462.28,-491.56"/>
<polygon fill="#63b8ff" stroke="#63b8ff" points="459.41,-493.57 468.16,-499.55 465.05,-489.42 459.41,-493.57"/>
</a>
</g>
</g>
<!-- Node21&#45;&gt;Node11 -->
<g id="edge28_Node000021_Node000011" class="edge">
<title>Node21&#45;&gt;Node11</title>
<g id="a_edge28_Node000021_Node000011"><a xlink:title=" ">
<path fill="none" stroke="#63b8ff" d="M234.66,-328.97C252.33,-333.68 272.2,-338.97 289.6,-343.61"/>
<polygon fill="#63b8ff" stroke="#63b8ff" points="288.6,-346.97 299.17,-346.16 290.4,-340.2 288.6,-346.97"/>
</a>
</g>
</g>
<!-- Node22 -->
<g id="Node000022" class="node">
<title>Node22</title>
<g id="a_Node000022"><a xlink:href="group__elements.html#a661ead805e720c8a4b4637b4085f46b1" target="_top" xlink:title=" ">
<polygon fill="white" stroke="#666666" points="385.5,-328.62 287.75,-328.62 287.75,-301.12 385.5,-301.12 385.5,-328.62"/>
<text text-anchor="start" x="295.75" y="-317.02" font-family="SourceSans" font-size="8.00">svg::defs_element::</text>
<text text-anchor="middle" x="336.62" y="-307.27" font-family="SourceSans" font-size="8.00">finish_defs</text>
</a>
</g>
</g>
<!-- Node21&#45;&gt;Node22 -->
<g id="edge26_Node000021_Node000022" class="edge">
<title>Node21&#45;&gt;Node22</title>
<g id="a_edge26_Node000021_Node000022"><a xlink:title=" ">
<path fill="none" stroke="#63b8ff" d="M234.66,-315.55C247.88,-315.46 262.34,-315.36 276.06,-315.27"/>
<polygon fill="#63b8ff" stroke="#63b8ff" points="275.89,-318.77 285.87,-315.21 275.85,-311.77 275.89,-318.77"/>
</a>
</g>
</g>
<!-- Node23 -->
<g id="Node000023" class="node">
<title>Node23</title>
<g id="a_Node000023"><a xlink:href="group__elements.html#a8d7d88dfb9b2dd11234ef1355b7cfc00" target="_top" xlink:title=" ">
<polygon fill="white" stroke="#666666" points="385.5,-282.62 287.75,-282.62 287.75,-255.12 385.5,-255.12 385.5,-282.62"/>
<text text-anchor="start" x="295.75" y="-271.02" font-family="SourceSans" font-size="8.00">svg::defs_element::</text>
<text text-anchor="middle" x="336.62" y="-261.27" font-family="SourceSans" font-size="8.00">start_defs</text>
</a>
</g>
</g>
<!-- Node21&#45;&gt;Node23 -->
<g id="edge27_Node000021_Node000023" class="edge">
<title>Node21&#45;&gt;Node23</title>
<g id="a_edge27_Node000021_Node000023"><a xlink:title=" ">
<path fill="none" stroke="#63b8ff" d="M230.95,-301.65C246.24,-296.86 263.47,-291.46 279.48,-286.45"/>
<polygon fill="#63b8ff" stroke="#63b8ff" points="280.39,-289.84 288.89,-283.51 278.3,-283.16 280.39,-289.84"/>
</a>
</g>
</g>
</g>
</svg>

<g id="navigator" transform="translate(0 0)" fill="#404254">
  <rect fill="#f2f5e9" fill-opacity="0.5" stroke="#606060" stroke-width=".5" x="0" y="0" width="60" height="60"/>
  <use id="zoomplus" xlink:href="#zoomPlus" x="17" y="9" onmousedown="handleZoom(evt,'in')"/>
  <use id="zoomminus" xlink:href="#zoomMin" x="42" y="9" onmousedown="handleZoom(evt,'out')"/>
  <use id="reset" xlink:href="#resetDef" x="30" y="36" onmousedown="handleReset()"/>
   <use id="arrowup" xlink:href="#arrowUp" x="0" y="0" onmousedown="handlePan(0,-1)"/>
  <use id="arrowright" xlink:href="#arrowRight" x="0" y="0" onmousedown="handlePan(1,0)"/>
  <use id="arrowdown" xlink:href="#arrowDown" x="0" y="0" onmousedown="handlePan(0,1)"/>
  <use id="arrowleft" xlink:href="#arrowLeft" x="0" y="0" onmousedown="handlePan(-1,0)"/>
</g>
<svg viewBox="0 0 15 15" width="100%" height="30px" preserveAspectRatio="xMaxYMin meet">
 <g id="arrow_out" transform="scale(0.3 0.3)">
  <a xlink:href="namespacesvg_a8c9e93a560521d1896fd166bcf926610_cgraph_org.svg" target="_base">
   <rect id="button" ry="5" rx="5" y="6" x="6" height="38" width="38"
        fill="#f2f5e9" fill-opacity="0.5" stroke="#606060" stroke-width="1.0"/>
   <path id="arrow"
     d="M 11.500037,31.436501 C 11.940474,20.09759 22.043105,11.32322 32.158766,21.979434 L 37.068811,17.246167 C 37.068811,17.246167 37.088388,32 37.088388,32 L 22.160133,31.978069 C 22.160133,31.978069 26.997745,27.140456 26.997745,27.140456 C 18.528582,18.264221 13.291696,25.230495 11.500037,31.436501 z"
     style="fill:#404040;"/>
  </a>
 </g>
</svg>

<style type='text/css'>
<![CDATA[
[data-mouse-over-selected='false'] { opacity: 0.7; }
[data-mouse-over-selected='true']  { opacity: 1.0; }
]]>
</style>
<script type="application/ecmascript"><![CDATA[
document.addEventListener('DOMContentLoaded', (event) => {
  highlightEdges();
  highlightAdjacentNodes();
});
]]></script>
</svg>
