<?xml version="1.0" encoding="UTF-8" standalone="no"?>
<!DOCTYPE svg PUBLIC "-//W3C//DTD SVG 1.1//EN"
 "http://www.w3.org/Graphics/SVG/1.1/DTD/svg11.dtd">
<!-- Generated by graphviz version 13.1.2 (20250808.2320)
 -->
<!-- Title: svg::splay_ids_stagger Pages: 1 -->
<!--zoomable 222 -->

<svg id="main" version="1.1" xmlns="http://www.w3.org/2000/svg" xmlns:xlink="http://www.w3.org/1999/xlink" xml:space="preserve" onload="init(evt)">

<style type="text/css"><![CDATA[
.node, .edge {opacity: 0.7;}
.node.selected, .edge.selected {opacity: 1;}
.edge:hover path { stroke: red; }
.edge:hover polygon { stroke: red; fill: red; }
]]></style>

<defs>
  <circle id="rim" cx="0" cy="0" r="7"/>
  <circle id="rim2" cx="0" cy="0" r="3.5"/>
  <g id="zoomPlus">
    <use xlink:href="#rim" fill="#404040"><set attributeName="fill" to="#808080" begin="zoomplus.mouseover" end="zoomplus.mouseout"/></use>
    <path d="M-4,0h8M0,-4v8" fill="none" stroke="white" stroke-width="1.5" pointer-events="none"/>
  </g>
  <g id="zoomMin">
    <use xlink:href="#rim" fill="#404040"><set attributeName="fill" to="#808080" begin="zoomminus.mouseover" end="zoomminus.mouseout"/></use>
    <path d="M-4,0h8" fill="none" stroke="white" stroke-width="1.5" pointer-events="none"/>
  </g>
  <g id="arrowUp" transform="translate(30 24)">
    <use xlink:href="#rim"/>
    <path pointer-events="none" fill="none" stroke="white" stroke-width="1.5" d="M0,-3.0v7 M-2.5,-0.5L0,-3.0L2.5,-0.5"/>
  </g>
  <g id="arrowRight" transform="rotate(90) translate(36 -43)">
    <use xlink:href="#rim"/>
    <path pointer-events="none" fill="none" stroke="white" stroke-width="1.5" d="M0,-3.0v7 M-2.5,-0.5L0,-3.0L2.5,-0.5"/>
  </g>
  <g id="arrowDown" transform="rotate(180) translate(-30 -48)">
    <use xlink:href="#rim"/>
    <path pointer-events="none" fill="none" stroke="white" stroke-width="1.5" d="M0,-3.0v7 M-2.5,-0.5L0,-3.0L2.5,-0.5"/>
  </g>
  <g id="arrowLeft" transform="rotate(270) translate(-36 17)">
    <use xlink:href="#rim"/>
    <path pointer-events="none" fill="none" stroke="white" stroke-width="1.5" d="M0,-3.0v7 M-2.5,-0.5L0,-3.0L2.5,-0.5"/>
  </g>
  <g id="resetDef">
    <use xlink:href="#rim2" fill="#404040"><set attributeName="fill" to="#808080" begin="reset.mouseover" end="reset.mouseout"/></use>
  </g>
</defs>
<script type="application/ecmascript">
var viewWidth = 1315;
var viewHeight = 222;
var sectionId = 'dynsection-62';
</script>
<script type="application/ecmascript" xlink:href="svg.min.js"/>
<svg id="graph" class="graph">
<g id="viewport">
<title>svg::splay_ids_stagger</title>
<!-- Node1 -->
<g id="Node000001" class="node">
<title>Node1</title>
<g id="a_Node000001"><a xlink:title="Spread ids after in stepping pattern outward.">
<polygon fill="#999999" stroke="#666666" points="100.75,-114 0,-114 0,-94 100.75,-94 100.75,-114"/>
<text xml:space="preserve" text-anchor="middle" x="50.38" y="-102.4" font-family="SourceSans" font-size="8.00">svg::splay_ids_stagger</text>
</a>
</g>
</g>
<!-- Node2 -->
<g id="Node000002" class="node">
<title>Node2</title>
<g id="a_Node000002"><a xlink:href="namespacesvg.html#a8f48a6909f52b54cf4a3bfce5e27b59c" target="_top" xlink:title="Spread ids past the origin point, along circumference path.">
<polygon fill="white" stroke="#666666" points="226.25,-114 136.75,-114 136.75,-94 226.25,-94 226.25,-114"/>
<text xml:space="preserve" text-anchor="middle" x="181.5" y="-102.4" font-family="SourceSans" font-size="8.00">svg::splay_ids_after</text>
</a>
</g>
</g>
<!-- Node1&#45;&gt;Node2 -->
<g id="edge1_Node000001_Node000002" class="edge">
<title>Node1&#45;&gt;Node2</title>
<g id="a_edge1_Node000001_Node000002"><a xlink:title=" ">
<path fill="none" stroke="#63b8ff" d="M100.93,-104C108.77,-104 116.91,-104 124.88,-104"/>
<polygon fill="#63b8ff" stroke="#63b8ff" points="124.84,-107.5 134.84,-104 124.84,-100.5 124.84,-107.5"/>
</a>
</g>
</g>
<!-- Node3 -->
<g id="Node000003" class="node">
<title>Node3</title>
<g id="a_Node000003"><a xlink:href="namespacesvg.html#a0a0dce44cf8a75daa516cdf9fade5a85" target="_top" xlink:title=" ">
<polygon fill="white" stroke="#666666" points="342.75,-114 262.25,-114 262.25,-94 342.75,-94 342.75,-114"/>
<text xml:space="preserve" text-anchor="middle" x="302.5" y="-102.4" font-family="SourceSans" font-size="8.00">svg::radial_text_r</text>
</a>
</g>
</g>
<!-- Node2&#45;&gt;Node3 -->
<g id="edge2_Node000002_Node000003" class="edge">
<title>Node2&#45;&gt;Node3</title>
<g id="a_edge2_Node000002_Node000003"><a xlink:title=" ">
<path fill="none" stroke="#63b8ff" d="M226.47,-104C234.3,-104 242.52,-104 250.52,-104"/>
<polygon fill="#63b8ff" stroke="#63b8ff" points="250.52,-107.5 260.52,-104 250.52,-100.5 250.52,-107.5"/>
</a>
</g>
</g>
<!-- Node4 -->
<g id="Node000004" class="node">
<title>Node4</title>
<g id="a_Node000004"><a xlink:href="namespacesvg.html#ab44508c4aeca591141ebec50145b75cd" target="_top" xlink:title="Angle in degrees.">
<polygon fill="white" stroke="#666666" points="488.88,-202 385.12,-202 385.12,-170 488.88,-170 488.88,-202"/>
<text xml:space="preserve" text-anchor="start" x="393.12" y="-190.4" font-family="SourceSans" font-size="8.00">svg::get_circumference</text>
<text xml:space="preserve" text-anchor="middle" x="437" y="-178.4" font-family="SourceSans" font-size="8.00">_point_d</text>
</a>
</g>
</g>
<!-- Node3&#45;&gt;Node4 -->
<g id="edge3_Node000003_Node000004" class="edge">
<title>Node3&#45;&gt;Node4</title>
<g id="a_edge3_Node000003_Node000004"><a xlink:title=" ">
<path fill="none" stroke="#63b8ff" d="M315.13,-114.21C329.42,-126.4 354.71,-146.92 378.75,-161 380.76,-162.18 382.84,-163.33 384.95,-164.46"/>
<polygon fill="#63b8ff" stroke="#63b8ff" points="383.2,-167.5 393.71,-168.86 386.34,-161.25 383.2,-167.5"/>
</a>
</g>
</g>
<!-- Node6 -->
<g id="Node000006" class="node">
<title>Node6</title>
<g id="a_Node000006"><a xlink:href="namespacesvg.html#ae7eab6d9ce1f55bcbcc997cd24c5abcf" target="_top" xlink:title="Text with typography, arranged ccw around points (x,y) on a circle.">
<polygon fill="white" stroke="#666666" points="482.5,-152 391.5,-152 391.5,-132 482.5,-132 482.5,-152"/>
<text xml:space="preserve" text-anchor="middle" x="437" y="-140.4" font-family="SourceSans" font-size="8.00">svg::radial_text_ccw</text>
</a>
</g>
</g>
<!-- Node3&#45;&gt;Node6 -->
<g id="edge5_Node000003_Node000006" class="edge">
<title>Node3&#45;&gt;Node6</title>
<g id="a_edge5_Node000003_Node000006"><a xlink:title=" ">
<path fill="none" stroke="#63b8ff" d="M340.06,-114.48C355.12,-118.8 372.76,-123.86 388.78,-128.46"/>
<polygon fill="#63b8ff" stroke="#63b8ff" points="387.53,-131.74 398.11,-131.13 389.46,-125.01 387.53,-131.74"/>
</a>
</g>
</g>
<!-- Node23 -->
<g id="Node000023" class="node">
<title>Node23</title>
<g id="a_Node000023"><a xlink:href="namespacesvg.html#a27b1041d0851178e4835e1f623a46161" target="_top" xlink:title="Text with typography, arranged cw around points (x,y) on a circle.">
<polygon fill="white" stroke="#666666" points="480.62,-114 393.38,-114 393.38,-94 480.62,-94 480.62,-114"/>
<text xml:space="preserve" text-anchor="middle" x="437" y="-102.4" font-family="SourceSans" font-size="8.00">svg::radial_text_cw</text>
</a>
</g>
</g>
<!-- Node3&#45;&gt;Node23 -->
<g id="edge24_Node000003_Node000023" class="edge">
<title>Node3&#45;&gt;Node23</title>
<g id="a_edge24_Node000003_Node000023"><a xlink:title=" ">
<path fill="none" stroke="#63b8ff" d="M342.9,-104C355.17,-104 368.92,-104 382.01,-104"/>
<polygon fill="#63b8ff" stroke="#63b8ff" points="381.78,-107.5 391.78,-104 381.78,-100.5 381.78,-107.5"/>
</a>
</g>
</g>
<!-- Node24 -->
<g id="Node000024" class="node">
<title>Node24</title>
<g id="a_Node000024"><a xlink:href="namespacesvg.html#a010fea242a289d173d521b501140cd72" target="_top" xlink:title="Zero degrees is top, going clockwise (cw).">
<polygon fill="white" stroke="#666666" points="495.25,-76 378.75,-76 378.75,-56 495.25,-56 495.25,-76"/>
<text xml:space="preserve" text-anchor="middle" x="437" y="-64.4" font-family="SourceSans" font-size="8.00">svg::zero_angle_north_ccw</text>
</a>
</g>
</g>
<!-- Node3&#45;&gt;Node24 -->
<g id="edge26_Node000003_Node000024" class="edge">
<title>Node3&#45;&gt;Node24</title>
<g id="a_edge26_Node000003_Node000024"><a xlink:title=" ">
<path fill="none" stroke="#63b8ff" d="M340.06,-93.52C355.12,-89.2 372.76,-84.14 388.78,-79.54"/>
<polygon fill="#63b8ff" stroke="#63b8ff" points="389.46,-82.99 398.11,-76.87 387.53,-76.26 389.46,-82.99"/>
</a>
</g>
</g>
<!-- Node25 -->
<g id="Node000025" class="node">
<title>Node25</title>
<g id="a_Node000025"><a xlink:href="namespacesvg.html#a46164d75fd5109e4ed8879abbacd5c11" target="_top" xlink:title="Zero degrees is top, going clockwise (cw).">
<polygon fill="white" stroke="#666666" points="493.38,-38 380.62,-38 380.62,-18 493.38,-18 493.38,-38"/>
<text xml:space="preserve" text-anchor="middle" x="437" y="-26.4" font-family="SourceSans" font-size="8.00">svg::zero_angle_north_cw</text>
</a>
</g>
</g>
<!-- Node3&#45;&gt;Node25 -->
<g id="edge27_Node000003_Node000025" class="edge">
<title>Node3&#45;&gt;Node25</title>
<g id="a_edge27_Node000003_Node000025"><a xlink:title=" ">
<path fill="none" stroke="#63b8ff" d="M314.43,-93.86C328.41,-81.34 353.8,-60.13 378.75,-47 381.76,-45.42 384.92,-43.93 388.16,-42.54"/>
<polygon fill="#63b8ff" stroke="#63b8ff" points="389.18,-45.9 397.21,-38.99 386.62,-39.39 389.18,-45.9"/>
</a>
</g>
</g>
<!-- Node5 -->
<g id="Node000005" class="node">
<title>Node5</title>
<g id="a_Node000005"><a xlink:href="namespacesvg.html#aef05ac63d88a6102981d3faf37275297" target="_top" xlink:title="Angle in radians.">
<polygon fill="white" stroke="#666666" points="635,-202 531.25,-202 531.25,-170 635,-170 635,-202"/>
<text xml:space="preserve" text-anchor="start" x="539.25" y="-190.4" font-family="SourceSans" font-size="8.00">svg::get_circumference</text>
<text xml:space="preserve" text-anchor="middle" x="583.12" y="-178.4" font-family="SourceSans" font-size="8.00">_point_r</text>
</a>
</g>
</g>
<!-- Node4&#45;&gt;Node5 -->
<g id="edge4_Node000004_Node000005" class="edge">
<title>Node4&#45;&gt;Node5</title>
<g id="a_edge4_Node000004_Node000005"><a xlink:title=" ">
<path fill="none" stroke="#63b8ff" d="M489.22,-186C499.09,-186 509.54,-186 519.73,-186"/>
<polygon fill="#63b8ff" stroke="#63b8ff" points="519.56,-189.5 529.56,-186 519.56,-182.5 519.56,-189.5"/>
</a>
</g>
</g>
<!-- Node7 -->
<g id="Node000007" class="node">
<title>Node7</title>
<g id="a_Node000007"><a xlink:href="namespacesvg.html#ad3c5f59f86bb309de4efd1187e5c004b" target="_top" xlink:title="Text at.">
<polygon fill="white" stroke="#666666" points="623.75,-133 542.5,-133 542.5,-113 623.75,-113 623.75,-133"/>
<text xml:space="preserve" text-anchor="middle" x="583.12" y="-121.4" font-family="SourceSans" font-size="8.00">svg::styled_text_r</text>
</a>
</g>
</g>
<!-- Node6&#45;&gt;Node7 -->
<g id="edge6_Node000006_Node000007" class="edge">
<title>Node6&#45;&gt;Node7</title>
<g id="a_edge6_Node000006_Node000007"><a xlink:title=" ">
<path fill="none" stroke="#63b8ff" d="M482.81,-136.09C498.11,-134.08 515.32,-131.81 531.07,-129.73"/>
<polygon fill="#63b8ff" stroke="#63b8ff" points="531.27,-133.23 540.73,-128.46 530.35,-126.29 531.27,-133.23"/>
</a>
</g>
</g>
<!-- Node8 -->
<g id="Node000008" class="node">
<title>Node8</title>
<g id="a_Node000008"><a xlink:href="group__elements.html#ada0333b46b2547c6152f3f5811016a12" target="_top" xlink:title=" ">
<polygon fill="white" stroke="#666666" points="762,-161 671,-161 671,-129 762,-129 762,-161"/>
<text xml:space="preserve" text-anchor="start" x="679" y="-149.4" font-family="SourceSans" font-size="8.00">svg::element_base::</text>
<text xml:space="preserve" text-anchor="middle" x="716.5" y="-137.4" font-family="SourceSans" font-size="8.00">add_element</text>
</a>
</g>
</g>
<!-- Node7&#45;&gt;Node8 -->
<g id="edge7_Node000007_Node000008" class="edge">
<title>Node7&#45;&gt;Node8</title>
<g id="a_edge7_Node000007_Node000008"><a xlink:title=" ">
<path fill="none" stroke="#63b8ff" d="M623.9,-129.66C635.12,-131.54 647.53,-133.62 659.51,-135.62"/>
<polygon fill="#63b8ff" stroke="#63b8ff" points="658.87,-139.07 669.31,-137.27 660.03,-132.16 658.87,-139.07"/>
</a>
</g>
</g>
<!-- Node10 -->
<g id="Node000010" class="node">
<title>Node10</title>
<g id="a_Node000010"><a xlink:href="namespacesvg.html#a43b88f0c7e911161e757ccc5a5ccd607" target="_top" xlink:title="Text element at.">
<polygon fill="white" stroke="#666666" points="754.5,-111 678.5,-111 678.5,-91 754.5,-91 754.5,-111"/>
<text xml:space="preserve" text-anchor="middle" x="716.5" y="-99.4" font-family="SourceSans" font-size="8.00">svg::style_text_r</text>
</a>
</g>
</g>
<!-- Node7&#45;&gt;Node10 -->
<g id="edge9_Node000007_Node000010" class="edge">
<title>Node7&#45;&gt;Node10</title>
<g id="a_edge9_Node000007_Node000010"><a xlink:title=" ">
<path fill="none" stroke="#63b8ff" d="M623.9,-116.34C637.49,-114.06 652.83,-111.49 667.03,-109.12"/>
<polygon fill="#63b8ff" stroke="#63b8ff" points="667.33,-112.62 676.62,-107.51 666.18,-105.71 667.33,-112.62"/>
</a>
</g>
</g>
<!-- Node9 -->
<g id="Node000009" class="node">
<title>Node9</title>
<g id="a_Node000009"><a xlink:href="group__elements.html#ad893ef9c13a15464c96d8a85c08af30f" target="_top" xlink:title=" ">
<polygon fill="white" stroke="#666666" points="898.75,-155 798,-155 798,-135 898.75,-135 898.75,-155"/>
<text xml:space="preserve" text-anchor="middle" x="848.38" y="-143.4" font-family="SourceSans" font-size="8.00">svg::element_base::str</text>
</a>
</g>
</g>
<!-- Node8&#45;&gt;Node9 -->
<g id="edge8_Node000008_Node000009" class="edge">
<title>Node8&#45;&gt;Node9</title>
<g id="a_edge8_Node000008_Node000009"><a xlink:title=" ">
<path fill="none" stroke="#63b8ff" d="M762.2,-145C769.98,-145 778.19,-145 786.32,-145"/>
<polygon fill="#63b8ff" stroke="#63b8ff" points="786.19,-148.5 796.19,-145 786.19,-141.5 786.19,-148.5"/>
</a>
</g>
</g>
<!-- Node11 -->
<g id="Node000011" class="node">
<title>Node11</title>
<g id="a_Node000011"><a xlink:href="structsvg_1_1transform.html#acf9836f4ba647f0dd2b53963a0f714d0" target="_top" xlink:title=" ">
<polygon fill="white" stroke="#666666" points="897.25,-114 799.5,-114 799.5,-94 897.25,-94 897.25,-114"/>
<text xml:space="preserve" text-anchor="middle" x="848.38" y="-102.4" font-family="SourceSans" font-size="8.00">svg::transform::rotate</text>
</a>
</g>
</g>
<!-- Node10&#45;&gt;Node11 -->
<g id="edge10_Node000010_Node000011" class="edge">
<title>Node10&#45;&gt;Node11</title>
<g id="a_edge10_Node000010_Node000011"><a xlink:title=" ">
<path fill="none" stroke="#63b8ff" d="M754.72,-101.86C765.17,-102.1 776.81,-102.37 788.21,-102.63"/>
<polygon fill="#63b8ff" stroke="#63b8ff" points="787.88,-106.13 797.96,-102.86 788.04,-99.13 787.88,-106.13"/>
</a>
</g>
</g>
<!-- Node12 -->
<g id="Node000012" class="node">
<title>Node12</title>
<g id="a_Node000012"><a xlink:href="namespacesvg.html#a74ca2344cea417d9107d56f4f53c5b0b" target="_top" xlink:title="Text element at.">
<polygon fill="white" stroke="#666666" points="883,-76 813.75,-76 813.75,-56 883,-56 883,-76"/>
<text xml:space="preserve" text-anchor="middle" x="848.38" y="-64.4" font-family="SourceSans" font-size="8.00">svg::style_text</text>
</a>
</g>
</g>
<!-- Node10&#45;&gt;Node12 -->
<g id="edge11_Node000010_Node000012" class="edge">
<title>Node10&#45;&gt;Node12</title>
<g id="a_edge11_Node000010_Node000012"><a xlink:title=" ">
<path fill="none" stroke="#63b8ff" d="M754.72,-90.97C769.55,-86.97 786.77,-82.33 802.31,-78.15"/>
<polygon fill="#63b8ff" stroke="#63b8ff" points="803.06,-81.57 811.8,-75.59 801.24,-74.81 803.06,-81.57"/>
</a>
</g>
</g>
<!-- Node13 -->
<g id="Node000013" class="node">
<title>Node13</title>
<g id="a_Node000013"><a xlink:href="group__elements.html#aad29e1daf75bdcd69a39575a6807fa0f" target="_top" xlink:title="Either serialize immediately (as below), or create data structure that adds data to data_vec and then...">
<polygon fill="white" stroke="#666666" points="1022.75,-132 934.75,-132 934.75,-100 1022.75,-100 1022.75,-132"/>
<text xml:space="preserve" text-anchor="start" x="942.75" y="-120.4" font-family="SourceSans" font-size="8.00">svg::text_element::</text>
<text xml:space="preserve" text-anchor="middle" x="978.75" y="-108.4" font-family="SourceSans" font-size="8.00">add_data</text>
</a>
</g>
</g>
<!-- Node12&#45;&gt;Node13 -->
<g id="edge12_Node000012_Node000013" class="edge">
<title>Node12&#45;&gt;Node13</title>
<g id="a_edge12_Node000012_Node000013"><a xlink:title=" ">
<path fill="none" stroke="#63b8ff" d="M876.55,-76.42C883.77,-79.2 891.56,-82.21 898.75,-85 907.34,-88.34 916.45,-91.9 925.31,-95.37"/>
<polygon fill="#63b8ff" stroke="#63b8ff" points="923.95,-98.59 934.54,-98.99 926.51,-92.08 923.95,-98.59"/>
</a>
</g>
</g>
<!-- Node21 -->
<g id="Node000021" class="node">
<title>Node21</title>
<g id="a_Node000021"><a xlink:href="group__elements.html#ga13c46848317034d16c62a7d2061ba3d6" target="_top" xlink:title=" ">
<polygon fill="white" stroke="#666666" points="1022.75,-82 934.75,-82 934.75,-50 1022.75,-50 1022.75,-82"/>
<text xml:space="preserve" text-anchor="start" x="942.75" y="-70.4" font-family="SourceSans" font-size="8.00">svg::text_element::</text>
<text xml:space="preserve" text-anchor="middle" x="978.75" y="-58.4" font-family="SourceSans" font-size="8.00">finish_element</text>
</a>
</g>
</g>
<!-- Node12&#45;&gt;Node21 -->
<g id="edge22_Node000012_Node000021" class="edge">
<title>Node12&#45;&gt;Node21</title>
<g id="a_edge22_Node000012_Node000021"><a xlink:title=" ">
<path fill="none" stroke="#63b8ff" d="M883.44,-66C895.63,-66 909.69,-66 923.17,-66"/>
<polygon fill="#63b8ff" stroke="#63b8ff" points="922.79,-69.5 932.79,-66 922.79,-62.5 922.79,-69.5"/>
</a>
</g>
</g>
<!-- Node22 -->
<g id="Node000022" class="node">
<title>Node22</title>
<g id="a_Node000022"><a xlink:href="group__elements.html#ae45bec611a6ec17ea46aab6d680ae042" target="_top" xlink:title=" ">
<polygon fill="white" stroke="#666666" points="1022.75,-32 934.75,-32 934.75,0 1022.75,0 1022.75,-32"/>
<text xml:space="preserve" text-anchor="start" x="942.75" y="-20.4" font-family="SourceSans" font-size="8.00">svg::text_element::</text>
<text xml:space="preserve" text-anchor="middle" x="978.75" y="-8.4" font-family="SourceSans" font-size="8.00">start_element</text>
</a>
</g>
</g>
<!-- Node12&#45;&gt;Node22 -->
<g id="edge23_Node000012_Node000022" class="edge">
<title>Node12&#45;&gt;Node22</title>
<g id="a_edge23_Node000012_Node000022"><a xlink:title=" ">
<path fill="none" stroke="#63b8ff" d="M876.29,-55.52C890.47,-49.99 908.38,-43.02 925.18,-36.47"/>
<polygon fill="#63b8ff" stroke="#63b8ff" points="926,-39.91 934.05,-33.02 923.46,-33.39 926,-39.91"/>
</a>
</g>
</g>
<!-- Node14 -->
<g id="Node000014" class="node">
<title>Node14</title>
<g id="a_Node000014"><a xlink:href="structsvg_1_1typography.html#adbc62f74f1fed3f7c77567250f084f83" target="_top" xlink:title=" ">
<polygon fill="white" stroke="#666666" points="1155,-176 1058.75,-176 1058.75,-144 1155,-144 1155,-176"/>
<text xml:space="preserve" text-anchor="start" x="1066.75" y="-164.4" font-family="SourceSans" font-size="8.00">svg::typography::add</text>
<text xml:space="preserve" text-anchor="middle" x="1106.88" y="-152.4" font-family="SourceSans" font-size="8.00">_attribute</text>
</a>
</g>
</g>
<!-- Node13&#45;&gt;Node14 -->
<g id="edge13_Node000013_Node000014" class="edge">
<title>Node13&#45;&gt;Node14</title>
<g id="a_edge13_Node000013_Node000014"><a xlink:title=" ">
<path fill="none" stroke="#63b8ff" d="M1023.16,-131.14C1031.27,-133.97 1039.87,-136.97 1048.34,-139.93"/>
<polygon fill="#63b8ff" stroke="#63b8ff" points="1046.92,-143.14 1057.51,-143.13 1049.22,-136.53 1046.92,-143.14"/>
</a>
</g>
</g>
<!-- Node15 -->
<g id="Node000015" class="node">
<title>Node15</title>
<g id="a_Node000015"><a xlink:href="namespacesvg.html#a48ac748e89e22789d1772326a98dd7b6" target="_top" xlink:title=" ">
<polygon fill="white" stroke="#666666" points="1292.5,-214 1205.25,-214 1205.25,-194 1292.5,-194 1292.5,-214"/>
<text xml:space="preserve" text-anchor="middle" x="1248.88" y="-202.4" font-family="SourceSans" font-size="8.00">svg::string_replace</text>
</a>
</g>
</g>
<!-- Node13&#45;&gt;Node15 -->
<g id="edge20_Node000013_Node000015" class="edge">
<title>Node13&#45;&gt;Node15</title>
<g id="a_edge20_Node000013_Node000015"><a xlink:title=" ">
<path fill="none" stroke="#63b8ff" d="M992.93,-132.33C1007.24,-148.75 1031.68,-173.27 1058.75,-185 1101.51,-203.54 1154.65,-207.4 1193.7,-207.14"/>
<polygon fill="#63b8ff" stroke="#63b8ff" points="1193.63,-210.65 1203.57,-206.98 1193.51,-203.65 1193.63,-210.65"/>
</a>
</g>
</g>
<!-- Node16 -->
<g id="Node000016" class="node">
<title>Node16</title>
<g id="a_Node000016"><a xlink:href="namespacesvg.html#a36b1c48ad4601b205790e3772ad0a7b6" target="_top" xlink:title=" ">
<polygon fill="white" stroke="#666666" points="1282.38,-126 1215.38,-126 1215.38,-106 1282.38,-106 1282.38,-126"/>
<text xml:space="preserve" text-anchor="middle" x="1248.88" y="-114.4" font-family="SourceSans" font-size="8.00">svg::to_string</text>
</a>
</g>
</g>
<!-- Node13&#45;&gt;Node16 -->
<g id="edge21_Node000013_Node000016" class="edge">
<title>Node13&#45;&gt;Node16</title>
<g id="a_edge21_Node000013_Node000016"><a xlink:title=" ">
<path fill="none" stroke="#63b8ff" d="M1023.13,-116C1072.8,-116 1153.74,-116 1203.73,-116"/>
<polygon fill="#63b8ff" stroke="#63b8ff" points="1203.61,-119.5 1213.61,-116 1203.61,-112.5 1203.61,-119.5"/>
</a>
</g>
</g>
<!-- Node18 -->
<g id="Node000018" class="node">
<title>Node18</title>
<g id="a_Node000018"><a xlink:href="group__elements.html#acafbdd950c6c2639c9d376c3eab696e5" target="_top" xlink:title=" ">
<polygon fill="white" stroke="#666666" points="1152.38,-88 1061.38,-88 1061.38,-56 1152.38,-56 1152.38,-88"/>
<text xml:space="preserve" text-anchor="start" x="1069.38" y="-76.4" font-family="SourceSans" font-size="8.00">svg::element_base::</text>
<text xml:space="preserve" text-anchor="middle" x="1106.88" y="-64.4" font-family="SourceSans" font-size="8.00">add_raw</text>
</a>
</g>
</g>
<!-- Node13&#45;&gt;Node18 -->
<g id="edge17_Node000013_Node000018" class="edge">
<title>Node13&#45;&gt;Node18</title>
<g id="a_edge17_Node000013_Node000018"><a xlink:title=" ">
<path fill="none" stroke="#63b8ff" d="M1023.16,-100.86C1031.96,-97.78 1041.34,-94.51 1050.5,-91.32"/>
<polygon fill="#63b8ff" stroke="#63b8ff" points="1051.38,-94.72 1059.67,-88.12 1049.08,-88.11 1051.38,-94.72"/>
</a>
</g>
</g>
<!-- Node19 -->
<g id="Node000019" class="node">
<title>Node19</title>
<g id="a_Node000019"><a xlink:href="group__elements.html#a53d72a7ff728ad1d4d027254530bcf3d" target="_top" xlink:title=" ">
<polygon fill="white" stroke="#666666" points="1152.38,-38 1061.38,-38 1061.38,-6 1152.38,-6 1152.38,-38"/>
<text xml:space="preserve" text-anchor="start" x="1069.38" y="-26.4" font-family="SourceSans" font-size="8.00">svg::element_base::</text>
<text xml:space="preserve" text-anchor="middle" x="1106.88" y="-14.4" font-family="SourceSans" font-size="8.00">add_transform</text>
</a>
</g>
</g>
<!-- Node13&#45;&gt;Node19 -->
<g id="edge18_Node000013_Node000019" class="edge">
<title>Node13&#45;&gt;Node19</title>
<g id="a_edge18_Node000013_Node000019"><a xlink:title=" ">
<path fill="none" stroke="#63b8ff" d="M1011.19,-99.52C1015.24,-96.89 1019.2,-94.02 1022.75,-91 1041.98,-74.61 1039.21,-63.01 1058.75,-47 1059.84,-46.11 1060.96,-45.23 1062.12,-44.38"/>
<polygon fill="#63b8ff" stroke="#63b8ff" points="1063.74,-47.51 1070.12,-39.05 1059.86,-41.68 1063.74,-47.51"/>
</a>
</g>
</g>
<!-- Node14&#45;&gt;Node15 -->
<g id="edge14_Node000014_Node000015" class="edge">
<title>Node14&#45;&gt;Node15</title>
<g id="a_edge14_Node000014_Node000015"><a xlink:title=" ">
<path fill="none" stroke="#63b8ff" d="M1155.27,-174.9C1170.98,-179.83 1188.38,-185.3 1203.82,-190.15"/>
<polygon fill="#63b8ff" stroke="#63b8ff" points="1202.63,-193.45 1213.22,-193.11 1204.73,-186.77 1202.63,-193.45"/>
</a>
</g>
</g>
<!-- Node14&#45;&gt;Node16 -->
<g id="edge15_Node000014_Node000016" class="edge">
<title>Node14&#45;&gt;Node16</title>
<g id="a_edge15_Node000014_Node000016"><a xlink:title=" ">
<path fill="none" stroke="#63b8ff" d="M1155.27,-145.1C1171.1,-140.13 1188.66,-134.61 1204.2,-129.73"/>
<polygon fill="#63b8ff" stroke="#63b8ff" points="1205.16,-133.09 1213.65,-126.76 1203.06,-126.42 1205.16,-133.09"/>
</a>
</g>
</g>
<!-- Node17 -->
<g id="Node000017" class="node">
<title>Node17</title>
<g id="a_Node000017"><a xlink:href="structsvg_1_1typography.html#a174c1ffb4e56214d71523ffe7e422561" target="_top" xlink:title=" ">
<polygon fill="white" stroke="#666666" points="1293.25,-176 1204.5,-176 1204.5,-144 1293.25,-144 1293.25,-176"/>
<text xml:space="preserve" text-anchor="start" x="1212.5" y="-164.4" font-family="SourceSans" font-size="8.00">svg::typography::to</text>
<text xml:space="preserve" text-anchor="middle" x="1248.88" y="-152.4" font-family="SourceSans" font-size="8.00">_string</text>
</a>
</g>
</g>
<!-- Node14&#45;&gt;Node17 -->
<g id="edge16_Node000014_Node000017" class="edge">
<title>Node14&#45;&gt;Node17</title>
<g id="a_edge16_Node000014_Node000017"><a xlink:title=" ">
<path fill="none" stroke="#63b8ff" d="M1155.27,-160C1167.42,-160 1180.58,-160 1193.07,-160"/>
<polygon fill="#63b8ff" stroke="#63b8ff" points="1192.78,-163.5 1202.78,-160 1192.78,-156.5 1192.78,-163.5"/>
</a>
</g>
</g>
<!-- Node20 -->
<g id="Node000020" class="node">
<title>Node20</title>
<g id="a_Node000020"><a xlink:href="group__elements.html#ae50258851ebbaf08c7eebc3fbdbf1ac8" target="_top" xlink:title="Common transforms include rotate(180)">
<polygon fill="white" stroke="#666666" points="1306.75,-38 1191,-38 1191,-6 1306.75,-6 1306.75,-38"/>
<text xml:space="preserve" text-anchor="start" x="1199" y="-26.4" font-family="SourceSans" font-size="8.00">svg::element_base::</text>
<text xml:space="preserve" text-anchor="middle" x="1248.88" y="-14.4" font-family="SourceSans" font-size="8.00">make_transform_attribute</text>
</a>
</g>
</g>
<!-- Node19&#45;&gt;Node20 -->
<g id="edge19_Node000019_Node000020" class="edge">
<title>Node19&#45;&gt;Node20</title>
<g id="a_edge19_Node000019_Node000020"><a xlink:title=" ">
<path fill="none" stroke="#63b8ff" d="M1152.56,-22C1161.05,-22 1170.12,-22 1179.17,-22"/>
<polygon fill="#63b8ff" stroke="#63b8ff" points="1179.05,-25.5 1189.05,-22 1179.05,-18.5 1179.05,-25.5"/>
</a>
</g>
</g>
<!-- Node23&#45;&gt;Node7 -->
<g id="edge25_Node000023_Node000007" class="edge">
<title>Node23&#45;&gt;Node7</title>
<g id="a_edge25_Node000023_Node000007"><a xlink:title=" ">
<path fill="none" stroke="#63b8ff" d="M480.85,-109.65C496.63,-111.73 514.65,-114.11 531.08,-116.27"/>
<polygon fill="#63b8ff" stroke="#63b8ff" points="530.28,-119.7 540.65,-117.53 531.19,-112.76 530.28,-119.7"/>
</a>
</g>
</g>
</g>
</svg>

<g id="navigator" transform="translate(0 0)" fill="#404254">
  <rect fill="#f2f5e9" fill-opacity="0.5" stroke="#606060" stroke-width=".5" x="0" y="0" width="60" height="60"/>
  <use id="zoomplus" xlink:href="#zoomPlus" x="17" y="9" onmousedown="handleZoom(evt,'in')"/>
  <use id="zoomminus" xlink:href="#zoomMin" x="42" y="9" onmousedown="handleZoom(evt,'out')"/>
  <use id="reset" xlink:href="#resetDef" x="30" y="36" onmousedown="handleReset()"/>
   <use id="arrowup" xlink:href="#arrowUp" x="0" y="0" onmousedown="handlePan(0,-1)"/>
  <use id="arrowright" xlink:href="#arrowRight" x="0" y="0" onmousedown="handlePan(1,0)"/>
  <use id="arrowdown" xlink:href="#arrowDown" x="0" y="0" onmousedown="handlePan(0,1)"/>
  <use id="arrowleft" xlink:href="#arrowLeft" x="0" y="0" onmousedown="handlePan(-1,0)"/>
</g>
<svg viewBox="0 0 15 15" width="100%" height="30px" preserveAspectRatio="xMaxYMin meet">
 <g id="arrow_out" transform="scale(0.3 0.3)">
  <a xlink:href="namespacesvg_a95ce7af851cb8dfa4f718ed04b94db93_cgraph_org.svg" target="_base">
   <rect id="button" ry="5" rx="5" y="6" x="6" height="38" width="38"
        fill="#f2f5e9" fill-opacity="0.5" stroke="#606060" stroke-width="1.0"/>
   <path id="arrow"
     d="M 11.500037,31.436501 C 11.940474,20.09759 22.043105,11.32322 32.158766,21.979434 L 37.068811,17.246167 C 37.068811,17.246167 37.088388,32 37.088388,32 L 22.160133,31.978069 C 22.160133,31.978069 26.997745,27.140456 26.997745,27.140456 C 18.528582,18.264221 13.291696,25.230495 11.500037,31.436501 z"
     style="fill:#404040;"/>
  </a>
 </g>
</svg>

<style type='text/css'>
<![CDATA[
[data-mouse-over-selected='false'] { opacity: 0.7; }
[data-mouse-over-selected='true']  { opacity: 1.0; }
]]>
</style>
<script type="application/ecmascript"><![CDATA[
document.addEventListener('DOMContentLoaded', (event) => {
  highlightEdges();
  highlightAdjacentNodes();
});
]]></script>
</svg>
