<?xml version="1.0" encoding="UTF-8" standalone="no"?>
<!DOCTYPE svg PUBLIC "-//W3C//DTD SVG 1.1//EN"
 "http://www.w3.org/Graphics/SVG/1.1/DTD/svg11.dtd">
<!-- Generated by graphviz version 13.1.2 (20250808.2320)
 -->
<!-- Title: svg::make_sunburst Pages: 1 -->
<svg width="699pt" height="330pt"
 viewBox="0.00 0.00 699.00 330.00" xmlns="http://www.w3.org/2000/svg" xmlns:xlink="http://www.w3.org/1999/xlink">
<g id="graph0" class="graph" transform="scale(1 1) rotate(0) translate(4 325.5)">
<title>svg::make_sunburst</title>
<!-- Node1 -->
<g id="Node000001" class="node">
<title>Node1</title>
<g id="a_Node000001"><a xlink:title="Rectangles of various sizes rotated from center point (x,y).">
<polygon fill="#999999" stroke="#666666" points="97.75,-155.62 0,-155.62 0,-137.88 97.75,-137.88 97.75,-155.62"/>
<text xml:space="preserve" text-anchor="middle" x="48.88" y="-144.03" font-family="SourceSans" font-size="8.00">svg::make_sunburst</text>
</a>
</g>
</g>
<!-- Node2 -->
<g id="Node000002" class="node">
<title>Node2</title>
<g id="a_Node000002"><a xlink:href="group__elements.html#ada0333b46b2547c6152f3f5811016a12" target="_top" xlink:title=" ">
<polygon fill="white" stroke="#666666" points="388.5,-321.5 288.5,-321.5 288.5,-294 388.5,-294 388.5,-321.5"/>
<text xml:space="preserve" text-anchor="start" x="296.5" y="-309.9" font-family="SourceSans" font-size="8.00">svg::element_base::</text>
<text xml:space="preserve" text-anchor="middle" x="338.5" y="-300.15" font-family="SourceSans" font-size="8.00">add_element</text>
</a>
</g>
</g>
<!-- Node1&#45;&gt;Node2 -->
<g id="edge1_Node000001_Node000002" class="edge">
<title>Node1&#45;&gt;Node2</title>
<g id="a_edge1_Node000001_Node000002"><a xlink:title=" ">
<path fill="none" stroke="#63b8ff" d="M53.22,-156.09C62.18,-179.64 89.12,-241.65 133.75,-270.75 176.23,-298.45 233.76,-306.86 276.86,-308.82"/>
<polygon fill="#63b8ff" stroke="#63b8ff" points="276.7,-312.32 286.81,-309.16 276.94,-305.33 276.7,-312.32"/>
</a>
</g>
</g>
<!-- Node4 -->
<g id="Node000004" class="node">
<title>Node4</title>
<g id="a_Node000004"><a xlink:href="group__elements.html#a7995b78d94e1c299065c9dd3569fef7c" target="_top" xlink:title=" ">
<polygon fill="white" stroke="#666666" points="243.12,-261.5 143.12,-261.5 143.12,-234 243.12,-234 243.12,-261.5"/>
<text xml:space="preserve" text-anchor="start" x="151.12" y="-249.9" font-family="SourceSans" font-size="8.00">svg::element_base::</text>
<text xml:space="preserve" text-anchor="middle" x="193.12" y="-240.15" font-family="SourceSans" font-size="8.00">add_title</text>
</a>
</g>
</g>
<!-- Node1&#45;&gt;Node4 -->
<g id="edge3_Node000001_Node000004" class="edge">
<title>Node1&#45;&gt;Node4</title>
<g id="a_edge3_Node000001_Node000004"><a xlink:title=" ">
<path fill="none" stroke="#63b8ff" d="M61.31,-155.98C77.23,-168.72 107.15,-192.22 133.75,-210.75 141.89,-216.42 150.86,-222.28 159.27,-227.63"/>
<polygon fill="#63b8ff" stroke="#63b8ff" points="157.2,-230.46 167.53,-232.81 160.92,-224.53 157.2,-230.46"/>
</a>
</g>
</g>
<!-- Node7 -->
<g id="Node000007" class="node">
<title>Node7</title>
<g id="a_Node000007"><a xlink:href="group__elements.html#gaab139e518fe9d07003dbcc1fdfdad955" target="_top" xlink:title=" ">
<polygon fill="white" stroke="#666666" points="241.62,-201.5 144.62,-201.5 144.62,-174 241.62,-174 241.62,-201.5"/>
<text xml:space="preserve" text-anchor="start" x="152.62" y="-189.9" font-family="SourceSans" font-size="8.00">svg::group_element</text>
<text xml:space="preserve" text-anchor="middle" x="193.12" y="-180.15" font-family="SourceSans" font-size="8.00">::finish_element</text>
</a>
</g>
</g>
<!-- Node1&#45;&gt;Node7 -->
<g id="edge7_Node000001_Node000007" class="edge">
<title>Node1&#45;&gt;Node7</title>
<g id="a_edge7_Node000001_Node000007"><a xlink:title=" ">
<path fill="none" stroke="#63b8ff" d="M82.15,-156.05C97.36,-160.44 115.98,-165.8 133.55,-170.87"/>
<polygon fill="#63b8ff" stroke="#63b8ff" points="132.28,-174.14 142.86,-173.55 134.22,-167.42 132.28,-174.14"/>
</a>
</g>
</g>
<!-- Node9 -->
<g id="Node000009" class="node">
<title>Node9</title>
<g id="a_Node000009"><a xlink:href="namespacesvg.html#a4082d485bfd058b5f64aaad7503dba9b" target="_top" xlink:title="Create rect_element centered at origin.">
<polygon fill="white" stroke="#666666" points="251.38,-155.62 134.88,-155.62 134.88,-137.88 251.38,-137.88 251.38,-155.62"/>
<text xml:space="preserve" text-anchor="middle" x="193.12" y="-144.03" font-family="SourceSans" font-size="8.00">svg::make_rect_centered</text>
</a>
</g>
</g>
<!-- Node1&#45;&gt;Node9 -->
<g id="edge9_Node000001_Node000009" class="edge">
<title>Node1&#45;&gt;Node9</title>
<g id="a_edge9_Node000001_Node000009"><a xlink:title=" ">
<path fill="none" stroke="#63b8ff" d="M98.03,-146.75C106.12,-146.75 114.66,-146.75 123.15,-146.75"/>
<polygon fill="#63b8ff" stroke="#63b8ff" points="123.15,-150.25 133.15,-146.75 123.15,-143.25 123.15,-150.25"/>
</a>
</g>
</g>
<!-- Node20 -->
<g id="Node000020" class="node">
<title>Node20</title>
<g id="a_Node000020"><a xlink:href="structsvg_1_1transform.html#acf9836f4ba647f0dd2b53963a0f714d0" target="_top" xlink:title=" ">
<polygon fill="white" stroke="#666666" points="246.12,-119.62 140.12,-119.62 140.12,-101.88 246.12,-101.88 246.12,-119.62"/>
<text xml:space="preserve" text-anchor="middle" x="193.12" y="-108.03" font-family="SourceSans" font-size="8.00">svg::transform::rotate</text>
</a>
</g>
</g>
<!-- Node1&#45;&gt;Node20 -->
<g id="edge20_Node000001_Node000020" class="edge">
<title>Node1&#45;&gt;Node20</title>
<g id="a_edge20_Node000001_Node000020"><a xlink:title=" ">
<path fill="none" stroke="#63b8ff" d="M86.88,-137.39C104.41,-132.95 125.57,-127.59 144.31,-122.85"/>
<polygon fill="#63b8ff" stroke="#63b8ff" points="145,-126.29 153.84,-120.44 143.29,-119.5 145,-126.29"/>
</a>
</g>
</g>
<!-- Node21 -->
<g id="Node000021" class="node">
<title>Node21</title>
<g id="a_Node000021"><a xlink:href="group__elements.html#a5c8c4f93df6e84523f788aa7f98bcab8" target="_top" xlink:title="For groups of elements that have the same name.">
<polygon fill="white" stroke="#666666" points="241.62,-83.5 144.62,-83.5 144.62,-56 241.62,-56 241.62,-83.5"/>
<text xml:space="preserve" text-anchor="start" x="152.62" y="-71.9" font-family="SourceSans" font-size="8.00">svg::group_element</text>
<text xml:space="preserve" text-anchor="middle" x="193.12" y="-62.15" font-family="SourceSans" font-size="8.00">::start_element</text>
</a>
</g>
</g>
<!-- Node1&#45;&gt;Node21 -->
<g id="edge21_Node000001_Node000021" class="edge">
<title>Node1&#45;&gt;Node21</title>
<g id="a_edge21_Node000001_Node000021"><a xlink:title=" ">
<path fill="none" stroke="#63b8ff" d="M62.48,-137.51C78.49,-126.04 107.24,-106.34 133.75,-92.75 136.61,-91.28 139.59,-89.85 142.62,-88.46"/>
<polygon fill="#63b8ff" stroke="#63b8ff" points="143.87,-91.73 151.64,-84.52 141.08,-85.31 143.87,-91.73"/>
</a>
</g>
</g>
<!-- Node23 -->
<g id="Node000023" class="node">
<title>Node23</title>
<g id="a_Node000023"><a xlink:href="structsvg_1_1transform.html#a0c20aee54dbd3136799b17e12d3cb718" target="_top" xlink:title=" ">
<polygon fill="white" stroke="#666666" points="252.5,-37.62 133.75,-37.62 133.75,-19.88 252.5,-19.88 252.5,-37.62"/>
<text xml:space="preserve" text-anchor="middle" x="193.12" y="-26.02" font-family="SourceSans" font-size="8.00">svg::transform::translate</text>
</a>
</g>
</g>
<!-- Node1&#45;&gt;Node23 -->
<g id="edge23_Node000001_Node000023" class="edge">
<title>Node1&#45;&gt;Node23</title>
<g id="a_edge23_Node000001_Node000023"><a xlink:title=" ">
<path fill="none" stroke="#63b8ff" d="M55.08,-137.5C66.64,-117.81 96.37,-71.56 133.75,-46.75 135.99,-45.27 138.35,-43.9 140.8,-42.64"/>
<polygon fill="#63b8ff" stroke="#63b8ff" points="142.07,-45.91 149.81,-38.67 139.24,-39.5 142.07,-45.91"/>
</a>
</g>
</g>
<!-- Node3 -->
<g id="Node000003" class="node">
<title>Node3</title>
<g id="a_Node000003"><a xlink:href="group__elements.html#ad893ef9c13a15464c96d8a85c08af30f" target="_top" xlink:title=" ">
<polygon fill="white" stroke="#666666" points="535,-316.62 424.5,-316.62 424.5,-298.88 535,-298.88 535,-316.62"/>
<text xml:space="preserve" text-anchor="middle" x="479.75" y="-305.02" font-family="SourceSans" font-size="8.00">svg::element_base::str</text>
</a>
</g>
</g>
<!-- Node2&#45;&gt;Node3 -->
<g id="edge2_Node000002_Node000003" class="edge">
<title>Node2&#45;&gt;Node3</title>
<g id="a_edge2_Node000002_Node000003"><a xlink:title=" ">
<path fill="none" stroke="#63b8ff" d="M388.99,-307.75C396.74,-307.75 404.87,-307.75 412.92,-307.75"/>
<polygon fill="#63b8ff" stroke="#63b8ff" points="412.7,-311.25 422.7,-307.75 412.7,-304.25 412.7,-311.25"/>
</a>
</g>
</g>
<!-- Node4&#45;&gt;Node2 -->
<g id="edge4_Node000004_Node000002" class="edge">
<title>Node4&#45;&gt;Node2</title>
<g id="a_edge4_Node000004_Node000002"><a xlink:title=" ">
<path fill="none" stroke="#63b8ff" d="M228.1,-261.97C247.57,-270.11 272.21,-280.43 293.18,-289.2"/>
<polygon fill="#63b8ff" stroke="#63b8ff" points="291.79,-292.42 302.37,-293.05 294.5,-285.96 291.79,-292.42"/>
</a>
</g>
</g>
<!-- Node5 -->
<g id="Node000005" class="node">
<title>Node5</title>
<g id="a_Node000005"><a xlink:href="group__elements.html#ga3d62381f8edcccd3d91f82af55f11274" target="_top" xlink:title=" ">
<polygon fill="white" stroke="#666666" points="383.25,-275.5 293.75,-275.5 293.75,-248 383.25,-248 383.25,-275.5"/>
<text xml:space="preserve" text-anchor="start" x="301.75" y="-263.9" font-family="SourceSans" font-size="8.00">svg::title_element</text>
<text xml:space="preserve" text-anchor="middle" x="338.5" y="-254.15" font-family="SourceSans" font-size="8.00">::finish_element</text>
</a>
</g>
</g>
<!-- Node4&#45;&gt;Node5 -->
<g id="edge5_Node000004_Node000005" class="edge">
<title>Node4&#45;&gt;Node5</title>
<g id="a_edge5_Node000004_Node000005"><a xlink:title=" ">
<path fill="none" stroke="#63b8ff" d="M243.47,-252.57C255.87,-253.78 269.27,-255.09 281.95,-256.33"/>
<polygon fill="#63b8ff" stroke="#63b8ff" points="281.55,-259.8 291.84,-257.29 282.23,-252.84 281.55,-259.8"/>
</a>
</g>
</g>
<!-- Node6 -->
<g id="Node000006" class="node">
<title>Node6</title>
<g id="a_Node000006"><a xlink:href="group__elements.html#a41dcaa1132c502cb86c01aae1e7b9ff2" target="_top" xlink:title=" ">
<polygon fill="white" stroke="#666666" points="383.25,-229.5 293.75,-229.5 293.75,-202 383.25,-202 383.25,-229.5"/>
<text xml:space="preserve" text-anchor="start" x="301.75" y="-217.9" font-family="SourceSans" font-size="8.00">svg::title_element</text>
<text xml:space="preserve" text-anchor="middle" x="338.5" y="-208.15" font-family="SourceSans" font-size="8.00">::start_element</text>
</a>
</g>
</g>
<!-- Node4&#45;&gt;Node6 -->
<g id="edge6_Node000004_Node000006" class="edge">
<title>Node4&#45;&gt;Node6</title>
<g id="a_edge6_Node000004_Node000006"><a xlink:title=" ">
<path fill="none" stroke="#63b8ff" d="M243.47,-236.74C256,-233.94 269.54,-230.92 282.34,-228.06"/>
<polygon fill="#63b8ff" stroke="#63b8ff" points="282.87,-231.53 291.87,-225.93 281.35,-224.7 282.87,-231.53"/>
</a>
</g>
</g>
<!-- Node8 -->
<g id="Node000008" class="node">
<title>Node8</title>
<g id="a_Node000008"><a xlink:href="group__elements.html#a71cf2eb89a562527f14c4ca4c027c2b9" target="_top" xlink:title=" ">
<polygon fill="white" stroke="#666666" points="387,-183.5 290,-183.5 290,-156 387,-156 387,-183.5"/>
<text xml:space="preserve" text-anchor="start" x="298" y="-171.9" font-family="SourceSans" font-size="8.00">svg::group_element</text>
<text xml:space="preserve" text-anchor="middle" x="338.5" y="-162.15" font-family="SourceSans" font-size="8.00">::finish_group</text>
</a>
</g>
</g>
<!-- Node7&#45;&gt;Node8 -->
<g id="edge8_Node000007_Node000008" class="edge">
<title>Node7&#45;&gt;Node8</title>
<g id="a_edge8_Node000007_Node000008"><a xlink:title=" ">
<path fill="none" stroke="#63b8ff" d="M241.87,-181.76C253.72,-180.27 266.55,-178.66 278.86,-177.11"/>
<polygon fill="#63b8ff" stroke="#63b8ff" points="278.98,-180.62 288.46,-175.91 278.11,-173.68 278.98,-180.62"/>
</a>
</g>
</g>
<!-- Node10 -->
<g id="Node000010" class="node">
<title>Node10</title>
<g id="a_Node000010"><a xlink:href="namespacesvg.html#a09509ddd1e99609e1e4c06690328d919" target="_top" xlink:title="Create rect_element at origin.">
<polygon fill="white" stroke="#666666" points="376.88,-137.62 300.12,-137.62 300.12,-119.88 376.88,-119.88 376.88,-137.62"/>
<text xml:space="preserve" text-anchor="middle" x="338.5" y="-126.03" font-family="SourceSans" font-size="8.00">svg::make_rect</text>
</a>
</g>
</g>
<!-- Node9&#45;&gt;Node10 -->
<g id="edge10_Node000009_Node000010" class="edge">
<title>Node9&#45;&gt;Node10</title>
<g id="a_edge10_Node000009_Node000010"><a xlink:title=" ">
<path fill="none" stroke="#63b8ff" d="M251.61,-139.53C263.89,-137.99 276.75,-136.38 288.67,-134.88"/>
<polygon fill="#63b8ff" stroke="#63b8ff" points="288.77,-138.4 298.26,-133.68 287.9,-131.45 288.77,-138.4"/>
</a>
</g>
</g>
<!-- Node11 -->
<g id="Node000011" class="node">
<title>Node11</title>
<g id="a_Node000011"><a xlink:href="group__elements.html#a1dd6663d882fb5dd14a47462a77f351b" target="_top" xlink:title="Either serialize immediately (as below), or create data structure that adds data to data_vec and then...">
<polygon fill="white" stroke="#666666" points="527.12,-257.5 432.38,-257.5 432.38,-230 527.12,-230 527.12,-257.5"/>
<text xml:space="preserve" text-anchor="start" x="440.38" y="-245.9" font-family="SourceSans" font-size="8.00">svg::rect_element::</text>
<text xml:space="preserve" text-anchor="middle" x="479.75" y="-236.15" font-family="SourceSans" font-size="8.00">add_data</text>
</a>
</g>
</g>
<!-- Node10&#45;&gt;Node11 -->
<g id="edge11_Node000010_Node000011" class="edge">
<title>Node10&#45;&gt;Node11</title>
<g id="a_edge11_Node000010_Node000011"><a xlink:title=" ">
<path fill="none" stroke="#63b8ff" d="M375.1,-138.07C379.95,-140.37 384.6,-143.23 388.5,-146.75 415.63,-171.28 397.98,-195.57 424.5,-220.75 425.39,-221.6 426.32,-222.41 427.27,-223.2"/>
<polygon fill="#63b8ff" stroke="#63b8ff" points="425.08,-225.94 435.31,-228.71 429.04,-220.17 425.08,-225.94"/>
</a>
</g>
</g>
<!-- Node13 -->
<g id="Node000013" class="node">
<title>Node13</title>
<g id="a_Node000013"><a xlink:href="group__elements.html#a1b22cfab9437b40c8b877ffe5472ff02" target="_top" xlink:title=" ">
<polygon fill="white" stroke="#666666" points="529.75,-211.5 429.75,-211.5 429.75,-184 529.75,-184 529.75,-211.5"/>
<text xml:space="preserve" text-anchor="start" x="437.75" y="-199.9" font-family="SourceSans" font-size="8.00">svg::element_base::</text>
<text xml:space="preserve" text-anchor="middle" x="479.75" y="-190.15" font-family="SourceSans" font-size="8.00">add_filter</text>
</a>
</g>
</g>
<!-- Node10&#45;&gt;Node13 -->
<g id="edge13_Node000010_Node000013" class="edge">
<title>Node10&#45;&gt;Node13</title>
<g id="a_edge13_Node000010_Node000013"><a xlink:title=" ">
<path fill="none" stroke="#63b8ff" d="M369.43,-138.07C375.89,-140.54 382.56,-143.45 388.5,-146.75 406.22,-156.58 407.02,-164.49 424.5,-174.75 426.77,-176.08 429.13,-177.38 431.54,-178.64"/>
<polygon fill="#63b8ff" stroke="#63b8ff" points="429.75,-181.66 440.28,-182.88 432.82,-175.36 429.75,-181.66"/>
</a>
</g>
</g>
<!-- Node14 -->
<g id="Node000014" class="node">
<title>Node14</title>
<g id="a_Node000014"><a xlink:href="group__elements.html#a238b38ca99a1cf6c2baf80c8e4338d99" target="_top" xlink:title=" ">
<polygon fill="white" stroke="#666666" points="529.75,-165.5 429.75,-165.5 429.75,-138 529.75,-138 529.75,-165.5"/>
<text xml:space="preserve" text-anchor="start" x="437.75" y="-153.9" font-family="SourceSans" font-size="8.00">svg::element_base::</text>
<text xml:space="preserve" text-anchor="middle" x="479.75" y="-144.15" font-family="SourceSans" font-size="8.00">add_style</text>
</a>
</g>
</g>
<!-- Node10&#45;&gt;Node14 -->
<g id="edge14_Node000010_Node000014" class="edge">
<title>Node10&#45;&gt;Node14</title>
<g id="a_edge14_Node000010_Node000014"><a xlink:title=" ">
<path fill="none" stroke="#63b8ff" d="M377.18,-134.97C389.83,-137.06 404.27,-139.45 418.22,-141.75"/>
<polygon fill="#63b8ff" stroke="#63b8ff" points="417.33,-145.15 427.76,-143.33 418.47,-138.25 417.33,-145.15"/>
</a>
</g>
</g>
<!-- Node16 -->
<g id="Node000016" class="node">
<title>Node16</title>
<g id="a_Node000016"><a xlink:href="group__elements.html#a53d72a7ff728ad1d4d027254530bcf3d" target="_top" xlink:title=" ">
<polygon fill="white" stroke="#666666" points="529.75,-119.5 429.75,-119.5 429.75,-92 529.75,-92 529.75,-119.5"/>
<text xml:space="preserve" text-anchor="start" x="437.75" y="-107.9" font-family="SourceSans" font-size="8.00">svg::element_base::</text>
<text xml:space="preserve" text-anchor="middle" x="479.75" y="-98.15" font-family="SourceSans" font-size="8.00">add_transform</text>
</a>
</g>
</g>
<!-- Node10&#45;&gt;Node16 -->
<g id="edge16_Node000010_Node000016" class="edge">
<title>Node10&#45;&gt;Node16</title>
<g id="a_edge16_Node000010_Node000016"><a xlink:title=" ">
<path fill="none" stroke="#63b8ff" d="M377.18,-122.53C389.83,-120.44 404.27,-118.05 418.22,-115.75"/>
<polygon fill="#63b8ff" stroke="#63b8ff" points="418.47,-119.25 427.76,-114.17 417.33,-112.35 418.47,-119.25"/>
</a>
</g>
</g>
<!-- Node18 -->
<g id="Node000018" class="node">
<title>Node18</title>
<g id="a_Node000018"><a xlink:href="group__elements.html#gad01750ac554c6bd6871a930c90e17a04" target="_top" xlink:title=" ">
<polygon fill="white" stroke="#666666" points="527.12,-73.5 432.38,-73.5 432.38,-46 527.12,-46 527.12,-73.5"/>
<text xml:space="preserve" text-anchor="start" x="440.38" y="-61.9" font-family="SourceSans" font-size="8.00">svg::rect_element::</text>
<text xml:space="preserve" text-anchor="middle" x="479.75" y="-52.15" font-family="SourceSans" font-size="8.00">finish_element</text>
</a>
</g>
</g>
<!-- Node10&#45;&gt;Node18 -->
<g id="edge18_Node000010_Node000018" class="edge">
<title>Node10&#45;&gt;Node18</title>
<g id="a_edge18_Node000010_Node000018"><a xlink:title=" ">
<path fill="none" stroke="#63b8ff" d="M355.56,-119.47C372.47,-109.83 400.01,-94.54 424.5,-82.75 427.4,-81.36 430.4,-79.96 433.43,-78.58"/>
<polygon fill="#63b8ff" stroke="#63b8ff" points="434.69,-81.85 442.42,-74.6 431.86,-75.45 434.69,-81.85"/>
</a>
</g>
</g>
<!-- Node19 -->
<g id="Node000019" class="node">
<title>Node19</title>
<g id="a_Node000019"><a xlink:href="group__elements.html#a1e0ed5e9dfe1244317a87d7e6774348b" target="_top" xlink:title=" ">
<polygon fill="white" stroke="#666666" points="527.12,-27.5 432.38,-27.5 432.38,0 527.12,0 527.12,-27.5"/>
<text xml:space="preserve" text-anchor="start" x="440.38" y="-15.9" font-family="SourceSans" font-size="8.00">svg::rect_element::</text>
<text xml:space="preserve" text-anchor="middle" x="479.75" y="-6.15" font-family="SourceSans" font-size="8.00">start_element</text>
</a>
</g>
</g>
<!-- Node10&#45;&gt;Node19 -->
<g id="edge19_Node000010_Node000019" class="edge">
<title>Node10&#45;&gt;Node19</title>
<g id="a_edge19_Node000010_Node000019"><a xlink:title=" ">
<path fill="none" stroke="#63b8ff" d="M354.78,-119.62C365.07,-113 378.53,-103.37 388.5,-92.75 408.76,-71.19 401.87,-55.82 424.5,-36.75 425.75,-35.7 427.05,-34.69 428.39,-33.72"/>
<polygon fill="#63b8ff" stroke="#63b8ff" points="429.83,-36.95 436.49,-28.7 426.15,-31 429.83,-36.95"/>
</a>
</g>
</g>
<!-- Node12 -->
<g id="Node000012" class="node">
<title>Node12</title>
<g id="a_Node000012"><a xlink:href="namespacesvg.html#a48ac748e89e22789d1772326a98dd7b6" target="_top" xlink:title=" ">
<polygon fill="white" stroke="#666666" points="677.75,-252.62 584.5,-252.62 584.5,-234.88 677.75,-234.88 677.75,-252.62"/>
<text xml:space="preserve" text-anchor="middle" x="631.12" y="-241.03" font-family="SourceSans" font-size="8.00">svg::string_replace</text>
</a>
</g>
</g>
<!-- Node11&#45;&gt;Node12 -->
<g id="edge12_Node000011_Node000012" class="edge">
<title>Node11&#45;&gt;Node12</title>
<g id="a_edge12_Node000011_Node000012"><a xlink:title=" ">
<path fill="none" stroke="#63b8ff" d="M527.6,-243.75C541.99,-243.75 557.98,-243.75 572.98,-243.75"/>
<polygon fill="#63b8ff" stroke="#63b8ff" points="572.69,-247.25 582.69,-243.75 572.69,-240.25 572.69,-247.25"/>
</a>
</g>
</g>
<!-- Node15 -->
<g id="Node000015" class="node">
<title>Node15</title>
<g id="a_Node000015"><a xlink:href="namespacesvg.html#a36b1c48ad4601b205790e3772ad0a7b6" target="_top" xlink:title=" ">
<polygon fill="white" stroke="#666666" points="666.88,-160.62 595.38,-160.62 595.38,-142.88 666.88,-142.88 666.88,-160.62"/>
<text xml:space="preserve" text-anchor="middle" x="631.12" y="-149.03" font-family="SourceSans" font-size="8.00">svg::to_string</text>
</a>
</g>
</g>
<!-- Node14&#45;&gt;Node15 -->
<g id="edge15_Node000014_Node000015" class="edge">
<title>Node14&#45;&gt;Node15</title>
<g id="a_edge15_Node000014_Node000015"><a xlink:title=" ">
<path fill="none" stroke="#63b8ff" d="M530.07,-151.75C547.34,-151.75 566.65,-151.75 583.67,-151.75"/>
<polygon fill="#63b8ff" stroke="#63b8ff" points="583.52,-155.25 593.52,-151.75 583.52,-148.25 583.52,-155.25"/>
</a>
</g>
</g>
<!-- Node17 -->
<g id="Node000017" class="node">
<title>Node17</title>
<g id="a_Node000017"><a xlink:href="group__elements.html#ae50258851ebbaf08c7eebc3fbdbf1ac8" target="_top" xlink:title="Common transforms include rotate(180)">
<polygon fill="white" stroke="#666666" points="691.25,-119.5 571,-119.5 571,-92 691.25,-92 691.25,-119.5"/>
<text xml:space="preserve" text-anchor="start" x="579" y="-107.9" font-family="SourceSans" font-size="8.00">svg::element_base::</text>
<text xml:space="preserve" text-anchor="middle" x="631.12" y="-98.15" font-family="SourceSans" font-size="8.00">make_transform_attribute</text>
</a>
</g>
</g>
<!-- Node16&#45;&gt;Node17 -->
<g id="edge17_Node000016_Node000017" class="edge">
<title>Node16&#45;&gt;Node17</title>
<g id="a_edge17_Node000016_Node000017"><a xlink:title=" ">
<path fill="none" stroke="#63b8ff" d="M530.07,-105.75C539.42,-105.75 549.37,-105.75 559.22,-105.75"/>
<polygon fill="#63b8ff" stroke="#63b8ff" points="559.2,-109.25 569.2,-105.75 559.2,-102.25 559.2,-109.25"/>
</a>
</g>
</g>
<!-- Node22 -->
<g id="Node000022" class="node">
<title>Node22</title>
<g id="a_Node000022"><a xlink:href="group__elements.html#ab84e1bc08d2d2a71ab05521af65d7585" target="_top" xlink:title=" ">
<polygon fill="white" stroke="#666666" points="387,-83.5 290,-83.5 290,-56 387,-56 387,-83.5"/>
<text xml:space="preserve" text-anchor="start" x="298" y="-71.9" font-family="SourceSans" font-size="8.00">svg::group_element</text>
<text xml:space="preserve" text-anchor="middle" x="338.5" y="-62.15" font-family="SourceSans" font-size="8.00">::start_group</text>
</a>
</g>
</g>
<!-- Node21&#45;&gt;Node22 -->
<g id="edge22_Node000021_Node000022" class="edge">
<title>Node21&#45;&gt;Node22</title>
<g id="a_edge22_Node000021_Node000022"><a xlink:title=" ">
<path fill="none" stroke="#63b8ff" d="M241.87,-69.75C253.6,-69.75 266.29,-69.75 278.48,-69.75"/>
<polygon fill="#63b8ff" stroke="#63b8ff" points="278.45,-73.25 288.45,-69.75 278.45,-66.25 278.45,-73.25"/>
</a>
</g>
</g>
</g>
</svg>
