<?xml version="1.0" encoding="UTF-8" standalone="no"?>
<!DOCTYPE svg PUBLIC "-//W3C//DTD SVG 1.1//EN"
 "http://www.w3.org/Graphics/SVG/1.1/DTD/svg11.dtd">
<!-- Generated by graphviz version 12.2.1 (20241206.2353)
 -->
<!-- Title: svg::make_marker_set_n Pages: 1 -->
<!--zoomable 716 -->

<svg id="main" version="1.1" xmlns="http://www.w3.org/2000/svg" xmlns:xlink="http://www.w3.org/1999/xlink" xml:space="preserve" onload="init(evt)">

<style type="text/css"><![CDATA[
.node, .edge {opacity: 0.7;}
.node.selected, .edge.selected {opacity: 1;}
.edge:hover path { stroke: red; }
.edge:hover polygon { stroke: red; fill: red; }
]]></style>

<defs>
  <circle id="rim" cx="0" cy="0" r="7"/>
  <circle id="rim2" cx="0" cy="0" r="3.5"/>
  <g id="zoomPlus">
    <use xlink:href="#rim" fill="#404040"><set attributeName="fill" to="#808080" begin="zoomplus.mouseover" end="zoomplus.mouseout"/></use>
    <path d="M-4,0h8M0,-4v8" fill="none" stroke="white" stroke-width="1.5" pointer-events="none"/>
  </g>
  <g id="zoomMin">
    <use xlink:href="#rim" fill="#404040"><set attributeName="fill" to="#808080" begin="zoomminus.mouseover" end="zoomminus.mouseout"/></use>
    <path d="M-4,0h8" fill="none" stroke="white" stroke-width="1.5" pointer-events="none"/>
  </g>
  <g id="arrowUp" transform="translate(30 24)">
    <use xlink:href="#rim"/>
    <path pointer-events="none" fill="none" stroke="white" stroke-width="1.5" d="M0,-3.0v7 M-2.5,-0.5L0,-3.0L2.5,-0.5"/>
  </g>
  <g id="arrowRight" transform="rotate(90) translate(36 -43)">
    <use xlink:href="#rim"/>
    <path pointer-events="none" fill="none" stroke="white" stroke-width="1.5" d="M0,-3.0v7 M-2.5,-0.5L0,-3.0L2.5,-0.5"/>
  </g>
  <g id="arrowDown" transform="rotate(180) translate(-30 -48)">
    <use xlink:href="#rim"/>
    <path pointer-events="none" fill="none" stroke="white" stroke-width="1.5" d="M0,-3.0v7 M-2.5,-0.5L0,-3.0L2.5,-0.5"/>
  </g>
  <g id="arrowLeft" transform="rotate(270) translate(-36 17)">
    <use xlink:href="#rim"/>
    <path pointer-events="none" fill="none" stroke="white" stroke-width="1.5" d="M0,-3.0v7 M-2.5,-0.5L0,-3.0L2.5,-0.5"/>
  </g>
  <g id="resetDef">
    <use xlink:href="#rim2" fill="#404040"><set attributeName="fill" to="#808080" begin="reset.mouseover" end="reset.mouseout"/></use>
  </g>
</defs>
<script type="application/ecmascript">
var viewWidth = 850;
var viewHeight = 716;
var sectionId = 'dynsection-43';
</script>
<script type="application/ecmascript" xlink:href="svg.min.js"/>
<svg id="graph" class="graph">
<g id="viewport">
<title>svg::make_marker_set_n</title>
<!-- Node1 -->
<g id="Node000001" class="node">
<title>Node1</title>
<g id="a_Node000001"><a xlink:title="Create a set of markers bounded by a rectangle of size n.">
<polygon fill="#999999" stroke="#666666" points="109,-422 0,-422 0,-402 109,-402 109,-422"/>
<text text-anchor="middle" x="54.5" y="-410.4" font-family="SourceSans" font-size="8.00">svg::make_marker_set_n</text>
</a>
</g>
</g>
<!-- Node2 -->
<g id="Node000002" class="node">
<title>Node2</title>
<g id="a_Node000002"><a xlink:href="namespacesvg.html#a75c6caa3e403eec96c8e1f39394b7286" target="_top" xlink:title=" ">
<polygon fill="white" stroke="#666666" points="258.5,-460 150.25,-460 150.25,-440 258.5,-440 258.5,-460"/>
<text text-anchor="middle" x="204.38" y="-448.4" font-family="SourceSans" font-size="8.00">svg::make_marker_circle</text>
</a>
</g>
</g>
<!-- Node1&#45;&gt;Node2 -->
<g id="edge1_Node000001_Node000002" class="edge">
<title>Node1&#45;&gt;Node2</title>
<g id="a_edge1_Node000001_Node000002"><a xlink:title=" ">
<path fill="none" stroke="#63b8ff" d="M96.3,-422.48C113.43,-426.89 133.56,-432.06 151.71,-436.72"/>
<polygon fill="#63b8ff" stroke="#63b8ff" points="150.69,-440.07 161.24,-439.17 152.43,-433.29 150.69,-440.07"/>
</a>
</g>
</g>
<!-- Node15 -->
<g id="Node000015" class="node">
<title>Node15</title>
<g id="a_Node000015"><a xlink:href="group__elements.html#ad893ef9c13a15464c96d8a85c08af30f" target="_top" xlink:title=" ">
<polygon fill="white" stroke="#666666" points="413.62,-498 312.88,-498 312.88,-478 413.62,-478 413.62,-498"/>
<text text-anchor="middle" x="363.25" y="-486.4" font-family="SourceSans" font-size="8.00">svg::element_base::str</text>
</a>
</g>
</g>
<!-- Node1&#45;&gt;Node15 -->
<g id="edge47_Node000001_Node000015" class="edge">
<title>Node1&#45;&gt;Node15</title>
<g id="a_edge47_Node000001_Node000015"><a xlink:title=" ">
<path fill="none" stroke="#63b8ff" d="M67.54,-422.4C83.86,-435.81 114.47,-458.64 145,-469 195.68,-486.2 256.64,-490.2 301.07,-490.33"/>
<polygon fill="#63b8ff" stroke="#63b8ff" points="301.06,-493.83 311.05,-490.29 301.03,-486.83 301.06,-493.83"/>
</a>
</g>
</g>
<!-- Node16 -->
<g id="Node000016" class="node">
<title>Node16</title>
<g id="a_Node000016"><a xlink:href="namespacesvg.html#a6b53509c8447134239e362c7983fb9b2" target="_top" xlink:title=" ">
<polygon fill="white" stroke="#666666" points="255.88,-422 152.88,-422 152.88,-402 255.88,-402 255.88,-422"/>
<text text-anchor="middle" x="204.38" y="-410.4" font-family="SourceSans" font-size="8.00">svg::make_marker_rect</text>
</a>
</g>
</g>
<!-- Node1&#45;&gt;Node16 -->
<g id="edge15_Node000001_Node000016" class="edge">
<title>Node1&#45;&gt;Node16</title>
<g id="a_edge15_Node000001_Node000016"><a xlink:title=" ">
<path fill="none" stroke="#63b8ff" d="M109.3,-412C119.74,-412 130.75,-412 141.41,-412"/>
<polygon fill="#63b8ff" stroke="#63b8ff" points="141.3,-415.5 151.3,-412 141.3,-408.5 141.3,-415.5"/>
</a>
</g>
</g>
<!-- Node23 -->
<g id="Node000023" class="node">
<title>Node23</title>
<g id="a_Node000023"><a xlink:href="namespacesvg.html#afbe62002c7b769281ddf1a86f62366c7" target="_top" xlink:title=" ">
<polygon fill="white" stroke="#666666" points="263.75,-384 145,-384 145,-364 263.75,-364 263.75,-384"/>
<text text-anchor="middle" x="204.38" y="-372.4" font-family="SourceSans" font-size="8.00">svg::make_marker_triangle</text>
</a>
</g>
</g>
<!-- Node1&#45;&gt;Node23 -->
<g id="edge25_Node000001_Node000023" class="edge">
<title>Node1&#45;&gt;Node23</title>
<g id="a_edge25_Node000001_Node000023"><a xlink:title=" ">
<path fill="none" stroke="#63b8ff" d="M96.3,-401.52C113.43,-397.11 133.56,-391.94 151.71,-387.28"/>
<polygon fill="#63b8ff" stroke="#63b8ff" points="152.43,-390.71 161.24,-384.83 150.69,-383.93 152.43,-390.71"/>
</a>
</g>
</g>
<!-- Node36 -->
<g id="Node000036" class="node">
<title>Node36</title>
<g id="a_Node000036"><a xlink:href="namespacesvg.html#a8194c44dfb20ae927e1b96d11d88593b" target="_top" xlink:title=" ">
<polygon fill="white" stroke="#666666" points="251,-346 157.75,-346 157.75,-326 251,-326 251,-346"/>
<text text-anchor="middle" x="204.38" y="-334.4" font-family="SourceSans" font-size="8.00">svg::make_marker_x</text>
</a>
</g>
</g>
<!-- Node1&#45;&gt;Node36 -->
<g id="edge43_Node000001_Node000036" class="edge">
<title>Node1&#45;&gt;Node36</title>
<g id="a_edge43_Node000001_Node000036"><a xlink:title=" ">
<path fill="none" stroke="#63b8ff" d="M69.43,-401.55C86.5,-389.11 116.68,-368.36 145,-355 148.48,-353.36 152.14,-351.8 155.86,-350.34"/>
<polygon fill="#63b8ff" stroke="#63b8ff" points="156.79,-353.73 164.97,-346.99 154.38,-347.15 156.79,-353.73"/>
</a>
</g>
</g>
<!-- Node3 -->
<g id="Node000003" class="node">
<title>Node3</title>
<g id="a_Node000003"><a xlink:href="namespacesvg.html#a0229229c74c571ea3f45a653e8dd7e53" target="_top" xlink:title="Make circle element.">
<polygon fill="white" stroke="#666666" points="557.88,-602 480.38,-602 480.38,-582 557.88,-582 557.88,-602"/>
<text text-anchor="middle" x="519.12" y="-590.4" font-family="SourceSans" font-size="8.00">svg::make_circle</text>
</a>
</g>
</g>
<!-- Node2&#45;&gt;Node3 -->
<g id="edge2_Node000002_Node000003" class="edge">
<title>Node2&#45;&gt;Node3</title>
<g id="a_edge2_Node000002_Node000003"><a xlink:title=" ">
<path fill="none" stroke="#63b8ff" d="M258.55,-442.83C305.75,-439.07 375.04,-440.16 426.75,-469 468.2,-492.12 496.26,-542.76 509.46,-571.33"/>
<polygon fill="#63b8ff" stroke="#63b8ff" points="506.21,-572.63 513.45,-580.36 512.61,-569.8 506.21,-572.63"/>
</a>
</g>
</g>
<!-- Node11 -->
<g id="Node000011" class="node">
<title>Node11</title>
<g id="a_Node000011"><a xlink:href="namespacesvg.html#a56ab414cf370cb20fa25d06d2a9b07bb" target="_top" xlink:title="Base function for generating SVG markers in a defs section.">
<polygon fill="white" stroke="#666666" points="423.38,-384 303.12,-384 303.12,-364 423.38,-364 423.38,-384"/>
<text text-anchor="middle" x="363.25" y="-372.4" font-family="SourceSans" font-size="8.00">svg::make_marker_element</text>
</a>
</g>
</g>
<!-- Node2&#45;&gt;Node11 -->
<g id="edge10_Node000002_Node000011" class="edge">
<title>Node2&#45;&gt;Node11</title>
<g id="a_edge10_Node000002_Node000011"><a xlink:title=" ">
<path fill="none" stroke="#63b8ff" d="M246.43,-439.53C252.47,-437.18 258.43,-434.36 263.75,-431 283.42,-418.57 279.96,-405.23 299.75,-393 302.16,-391.51 304.69,-390.13 307.29,-388.86"/>
<polygon fill="#63b8ff" stroke="#63b8ff" points="308.43,-392.18 316.24,-385.03 305.67,-385.75 308.43,-392.18"/>
</a>
</g>
</g>
<!-- Node2&#45;&gt;Node15 -->
<g id="edge14_Node000002_Node000015" class="edge">
<title>Node2&#45;&gt;Node15</title>
<g id="a_edge14_Node000002_Node000015"><a xlink:title=" ">
<path fill="none" stroke="#63b8ff" d="M248.66,-460.48C267,-464.93 288.59,-470.16 307.98,-474.85"/>
<polygon fill="#63b8ff" stroke="#63b8ff" points="307.1,-478.24 317.64,-477.19 308.74,-471.44 307.1,-478.24"/>
</a>
</g>
</g>
<!-- Node4 -->
<g id="Node000004" class="node">
<title>Node4</title>
<g id="a_Node000004"><a xlink:href="group__elements.html#a519382631540ecedee961bfb53e9ae87" target="_top" xlink:title=" ">
<polygon fill="white" stroke="#666666" points="707.38,-708 619.38,-708 619.38,-676 707.38,-676 707.38,-708"/>
<text text-anchor="start" x="627.38" y="-696.4" font-family="SourceSans" font-size="8.00">svg::circle_element</text>
<text text-anchor="middle" x="663.38" y="-684.4" font-family="SourceSans" font-size="8.00">::add_data</text>
</a>
</g>
</g>
<!-- Node3&#45;&gt;Node4 -->
<g id="edge3_Node000003_Node000004" class="edge">
<title>Node3&#45;&gt;Node4</title>
<g id="a_edge3_Node000003_Node000004"><a xlink:title=" ">
<path fill="none" stroke="#63b8ff" d="M531.02,-602.36C547.52,-617.73 580.27,-646.89 611.5,-667 613.09,-668.03 614.73,-669.04 616.41,-670.03"/>
<polygon fill="#63b8ff" stroke="#63b8ff" points="614.47,-672.96 624.9,-674.79 617.89,-666.85 614.47,-672.96"/>
</a>
</g>
</g>
<!-- Node7 -->
<g id="Node000007" class="node">
<title>Node7</title>
<g id="a_Node000007"><a xlink:href="group__elements.html#a238b38ca99a1cf6c2baf80c8e4338d99" target="_top" xlink:title=" ">
<polygon fill="white" stroke="#666666" points="708.88,-358 617.88,-358 617.88,-326 708.88,-326 708.88,-358"/>
<text text-anchor="start" x="625.88" y="-346.4" font-family="SourceSans" font-size="8.00">svg::element_base::</text>
<text text-anchor="middle" x="663.38" y="-334.4" font-family="SourceSans" font-size="8.00">add_style</text>
</a>
</g>
</g>
<!-- Node3&#45;&gt;Node7 -->
<g id="edge6_Node000003_Node000007" class="edge">
<title>Node3&#45;&gt;Node7</title>
<g id="a_edge6_Node000003_Node000007"><a xlink:title=" ">
<path fill="none" stroke="#63b8ff" d="M526.49,-581.6C537.6,-563.1 560.75,-523.05 575.5,-487 596.59,-435.47 575.51,-409.49 611.5,-367 611.85,-366.59 612.21,-366.18 612.57,-365.78"/>
<polygon fill="#63b8ff" stroke="#63b8ff" points="614.86,-368.43 620.11,-359.23 610.26,-363.15 614.86,-368.43"/>
</a>
</g>
</g>
<!-- Node9 -->
<g id="Node000009" class="node">
<title>Node9</title>
<g id="a_Node000009"><a xlink:href="group__elements.html#ga98a1538c46e39122d8199c12b3a57b5d" target="_top" xlink:title=" ">
<polygon fill="white" stroke="#666666" points="707.38,-658 619.38,-658 619.38,-626 707.38,-626 707.38,-658"/>
<text text-anchor="start" x="627.38" y="-646.4" font-family="SourceSans" font-size="8.00">svg::circle_element</text>
<text text-anchor="middle" x="663.38" y="-634.4" font-family="SourceSans" font-size="8.00">::finish_element</text>
</a>
</g>
</g>
<!-- Node3&#45;&gt;Node9 -->
<g id="edge8_Node000003_Node000009" class="edge">
<title>Node3&#45;&gt;Node9</title>
<g id="a_edge8_Node000003_Node000009"><a xlink:title=" ">
<path fill="none" stroke="#63b8ff" d="M549.95,-602.48C566.86,-608.43 588.53,-616.04 608.33,-623"/>
<polygon fill="#63b8ff" stroke="#63b8ff" points="607.07,-626.27 617.67,-626.29 609.39,-619.67 607.07,-626.27"/>
</a>
</g>
</g>
<!-- Node10 -->
<g id="Node000010" class="node">
<title>Node10</title>
<g id="a_Node000010"><a xlink:href="group__elements.html#a793cb6b40b2aea335b11f14fd327cde8" target="_top" xlink:title=" ">
<polygon fill="white" stroke="#666666" points="707.38,-608 619.38,-608 619.38,-576 707.38,-576 707.38,-608"/>
<text text-anchor="start" x="627.38" y="-596.4" font-family="SourceSans" font-size="8.00">svg::circle_element</text>
<text text-anchor="middle" x="663.38" y="-584.4" font-family="SourceSans" font-size="8.00">::start_element</text>
</a>
</g>
</g>
<!-- Node3&#45;&gt;Node10 -->
<g id="edge9_Node000003_Node000010" class="edge">
<title>Node3&#45;&gt;Node10</title>
<g id="a_edge9_Node000003_Node000010"><a xlink:title=" ">
<path fill="none" stroke="#63b8ff" d="M558.25,-592C573.49,-592 591.34,-592 607.9,-592"/>
<polygon fill="#63b8ff" stroke="#63b8ff" points="607.61,-595.5 617.61,-592 607.61,-588.5 607.61,-595.5"/>
</a>
</g>
</g>
<!-- Node5 -->
<g id="Node000005" class="node">
<title>Node5</title>
<g id="a_Node000005"><a xlink:href="group__elements.html#a53d72a7ff728ad1d4d027254530bcf3d" target="_top" xlink:title="Common transforms include rotate(180)">
<polygon fill="white" stroke="#666666" points="842.25,-708 751.25,-708 751.25,-676 842.25,-676 842.25,-708"/>
<text text-anchor="start" x="759.25" y="-696.4" font-family="SourceSans" font-size="8.00">svg::element_base::</text>
<text text-anchor="middle" x="796.75" y="-684.4" font-family="SourceSans" font-size="8.00">add_transform</text>
</a>
</g>
</g>
<!-- Node4&#45;&gt;Node5 -->
<g id="edge4_Node000004_Node000005" class="edge">
<title>Node4&#45;&gt;Node5</title>
<g id="a_edge4_Node000004_Node000005"><a xlink:title=" ">
<path fill="none" stroke="#63b8ff" d="M707.76,-692C717.97,-692 728.99,-692 739.67,-692"/>
<polygon fill="#63b8ff" stroke="#63b8ff" points="739.55,-695.5 749.55,-692 739.55,-688.5 739.55,-695.5"/>
</a>
</g>
</g>
<!-- Node6 -->
<g id="Node000006" class="node">
<title>Node6</title>
<g id="a_Node000006"><a xlink:href="namespacesvg.html#a48ac748e89e22789d1772326a98dd7b6" target="_top" xlink:title=" ">
<polygon fill="white" stroke="#666666" points="840.38,-402 753.12,-402 753.12,-382 840.38,-382 840.38,-402"/>
<text text-anchor="middle" x="796.75" y="-390.4" font-family="SourceSans" font-size="8.00">svg::string_replace</text>
</a>
</g>
</g>
<!-- Node4&#45;&gt;Node6 -->
<g id="edge5_Node000004_Node000006" class="edge">
<title>Node4&#45;&gt;Node6</title>
<g id="a_edge5_Node000004_Node000006"><a xlink:title=" ">
<path fill="none" stroke="#63b8ff" d="M705.52,-675.78C709.13,-673.23 712.46,-670.31 715.25,-667 779.77,-590.31 792.59,-464.01 795.13,-413.68"/>
<polygon fill="#63b8ff" stroke="#63b8ff" points="798.62,-413.99 795.53,-403.86 791.63,-413.71 798.62,-413.99"/>
</a>
</g>
</g>
<!-- Node8 -->
<g id="Node000008" class="node">
<title>Node8</title>
<g id="a_Node000008"><a xlink:href="namespacesvg.html#a36b1c48ad4601b205790e3772ad0a7b6" target="_top" xlink:title=" ">
<polygon fill="white" stroke="#666666" points="830.25,-236 763.25,-236 763.25,-216 830.25,-216 830.25,-236"/>
<text text-anchor="middle" x="796.75" y="-224.4" font-family="SourceSans" font-size="8.00">svg::to_string</text>
</a>
</g>
</g>
<!-- Node7&#45;&gt;Node8 -->
<g id="edge7_Node000007_Node000008" class="edge">
<title>Node7&#45;&gt;Node8</title>
<g id="a_edge7_Node000007_Node000008"><a xlink:title=" ">
<path fill="none" stroke="#63b8ff" d="M702.05,-325.59C706.67,-322.98 711.18,-320.1 715.25,-317 742.37,-296.32 767.34,-265.46 782.06,-245.53"/>
<polygon fill="#63b8ff" stroke="#63b8ff" points="784.7,-247.85 787.72,-237.7 779.03,-243.75 784.7,-247.85"/>
</a>
</g>
</g>
<!-- Node12 -->
<g id="Node000012" class="node">
<title>Node12</title>
<g id="a_Node000012"><a xlink:href="group__elements.html#acafbdd950c6c2639c9d376c3eab696e5" target="_top" xlink:title=" ">
<polygon fill="white" stroke="#666666" points="708.88,-220 617.88,-220 617.88,-188 708.88,-188 708.88,-220"/>
<text text-anchor="start" x="625.88" y="-208.4" font-family="SourceSans" font-size="8.00">svg::element_base::</text>
<text text-anchor="middle" x="663.38" y="-196.4" font-family="SourceSans" font-size="8.00">add_raw</text>
</a>
</g>
</g>
<!-- Node11&#45;&gt;Node12 -->
<g id="edge11_Node000011_Node000012" class="edge">
<title>Node11&#45;&gt;Node12</title>
<g id="a_edge11_Node000011_Node000012"><a xlink:title=" ">
<path fill="none" stroke="#63b8ff" d="M406.12,-363.53C463.95,-348.77 562.63,-322.37 575.5,-311 605.33,-284.65 583.97,-257.74 611.5,-229 611.98,-228.5 612.47,-228.01 612.97,-227.53"/>
<polygon fill="#63b8ff" stroke="#63b8ff" points="615.06,-230.33 620.72,-221.38 610.71,-224.85 615.06,-230.33"/>
</a>
</g>
</g>
<!-- Node13 -->
<g id="Node000013" class="node">
<title>Node13</title>
<g id="a_Node000013"><a xlink:href="group__elements.html#gab7270e660dcac30ea26157764f230e03" target="_top" xlink:title=" ">
<polygon fill="white" stroke="#666666" points="566.88,-440 471.38,-440 471.38,-408 566.88,-408 566.88,-440"/>
<text text-anchor="start" x="479.38" y="-428.4" font-family="SourceSans" font-size="8.00">svg::marker_element</text>
<text text-anchor="middle" x="519.12" y="-416.4" font-family="SourceSans" font-size="8.00">::finish_element</text>
</a>
</g>
</g>
<!-- Node11&#45;&gt;Node13 -->
<g id="edge12_Node000011_Node000013" class="edge">
<title>Node11&#45;&gt;Node13</title>
<g id="a_edge12_Node000011_Node000013"><a xlink:title=" ">
<path fill="none" stroke="#63b8ff" d="M399.35,-384.46C408.3,-387.18 417.9,-390.15 426.75,-393 437.75,-396.54 449.45,-400.42 460.68,-404.2"/>
<polygon fill="#63b8ff" stroke="#63b8ff" points="459.24,-407.41 469.83,-407.3 461.48,-400.78 459.24,-407.41"/>
</a>
</g>
</g>
<!-- Node14 -->
<g id="Node000014" class="node">
<title>Node14</title>
<g id="a_Node000014"><a xlink:href="group__elements.html#ac4cb549d62ec6d614189e4585089c58d" target="_top" xlink:title=" ">
<polygon fill="white" stroke="#666666" points="566.88,-390 471.38,-390 471.38,-358 566.88,-358 566.88,-390"/>
<text text-anchor="start" x="479.38" y="-378.4" font-family="SourceSans" font-size="8.00">svg::marker_element</text>
<text text-anchor="middle" x="519.12" y="-366.4" font-family="SourceSans" font-size="8.00">::start_element</text>
</a>
</g>
</g>
<!-- Node11&#45;&gt;Node14 -->
<g id="edge13_Node000011_Node000014" class="edge">
<title>Node11&#45;&gt;Node14</title>
<g id="a_edge13_Node000011_Node000014"><a xlink:title=" ">
<path fill="none" stroke="#63b8ff" d="M423.74,-374C435.66,-374 448.17,-374 460.04,-374"/>
<polygon fill="#63b8ff" stroke="#63b8ff" points="459.68,-377.5 469.68,-374 459.68,-370.5 459.68,-377.5"/>
</a>
</g>
</g>
<!-- Node16&#45;&gt;Node11 -->
<g id="edge16_Node000016_Node000011" class="edge">
<title>Node16&#45;&gt;Node11</title>
<g id="a_edge16_Node000016_Node000011"><a xlink:title=" ">
<path fill="none" stroke="#63b8ff" d="M248.66,-401.52C267,-397.07 288.59,-391.84 307.98,-387.15"/>
<polygon fill="#63b8ff" stroke="#63b8ff" points="308.74,-390.56 317.64,-384.81 307.1,-383.76 308.74,-390.56"/>
</a>
</g>
</g>
<!-- Node17 -->
<g id="Node000017" class="node">
<title>Node17</title>
<g id="a_Node000017"><a xlink:href="namespacesvg.html#a7a295be306c0550a690075e94c1dfd46" target="_top" xlink:title="Create rect_element centered at origin.">
<polygon fill="white" stroke="#666666" points="418.12,-422 308.38,-422 308.38,-402 418.12,-402 418.12,-422"/>
<text text-anchor="middle" x="363.25" y="-410.4" font-family="SourceSans" font-size="8.00">svg::make_rect_centered</text>
</a>
</g>
</g>
<!-- Node16&#45;&gt;Node17 -->
<g id="edge17_Node000016_Node000017" class="edge">
<title>Node16&#45;&gt;Node17</title>
<g id="a_edge17_Node000016_Node000017"><a xlink:title=" ">
<path fill="none" stroke="#63b8ff" d="M256.31,-412C269.24,-412 283.31,-412 296.85,-412"/>
<polygon fill="#63b8ff" stroke="#63b8ff" points="296.55,-415.5 306.55,-412 296.55,-408.5 296.55,-415.5"/>
</a>
</g>
</g>
<!-- Node18 -->
<g id="Node000018" class="node">
<title>Node18</title>
<g id="a_Node000018"><a xlink:href="namespacesvg.html#aab7d11a5ce14c5bfa6eeea480fddccde" target="_top" xlink:title="Create rect_element at origin.">
<polygon fill="white" stroke="#666666" points="555.25,-478 483,-478 483,-458 555.25,-458 555.25,-478"/>
<text text-anchor="middle" x="519.12" y="-466.4" font-family="SourceSans" font-size="8.00">svg::make_rect</text>
</a>
</g>
</g>
<!-- Node17&#45;&gt;Node18 -->
<g id="edge18_Node000017_Node000018" class="edge">
<title>Node17&#45;&gt;Node18</title>
<g id="a_edge18_Node000017_Node000018"><a xlink:title=" ">
<path fill="none" stroke="#63b8ff" d="M391.35,-422.42C411.09,-429.95 438.51,-440.29 462.75,-449 467.16,-450.59 471.78,-452.22 476.39,-453.82"/>
<polygon fill="#63b8ff" stroke="#63b8ff" points="475,-457.05 485.59,-457.01 477.29,-450.43 475,-457.05"/>
</a>
</g>
</g>
<!-- Node18&#45;&gt;Node7 -->
<g id="edge22_Node000018_Node000007" class="edge">
<title>Node18&#45;&gt;Node7</title>
<g id="a_edge22_Node000018_Node000007"><a xlink:title=" ">
<path fill="none" stroke="#63b8ff" d="M555.61,-460.68C562.81,-457.93 569.89,-454.16 575.5,-449 604.79,-422.05 583.97,-395.74 611.5,-367 611.98,-366.5 612.47,-366.01 612.97,-365.53"/>
<polygon fill="#63b8ff" stroke="#63b8ff" points="615.06,-368.33 620.72,-359.38 610.71,-362.85 615.06,-368.33"/>
</a>
</g>
</g>
<!-- Node19 -->
<g id="Node000019" class="node">
<title>Node19</title>
<g id="a_Node000019"><a xlink:href="group__elements.html#a1dd6663d882fb5dd14a47462a77f351b" target="_top" xlink:title="Either serialize immediately (as below), or create data structure that adds data to data_vec and then...">
<polygon fill="white" stroke="#666666" points="707,-408 619.75,-408 619.75,-376 707,-376 707,-408"/>
<text text-anchor="start" x="627.75" y="-396.4" font-family="SourceSans" font-size="8.00">svg::rect_element::</text>
<text text-anchor="middle" x="663.38" y="-384.4" font-family="SourceSans" font-size="8.00">add_data</text>
</a>
</g>
</g>
<!-- Node18&#45;&gt;Node19 -->
<g id="edge19_Node000018_Node000019" class="edge">
<title>Node18&#45;&gt;Node19</title>
<g id="a_edge19_Node000018_Node000019"><a xlink:title=" ">
<path fill="none" stroke="#63b8ff" d="M555.61,-458.17C562.43,-455.63 569.36,-452.59 575.5,-449 593.99,-438.2 593.73,-428.94 611.5,-417 613.04,-415.96 614.64,-414.94 616.27,-413.94"/>
<polygon fill="#63b8ff" stroke="#63b8ff" points="617.6,-417.21 624.53,-409.2 614.11,-411.14 617.6,-417.21"/>
</a>
</g>
</g>
<!-- Node20 -->
<g id="Node000020" class="node">
<title>Node20</title>
<g id="a_Node000020"><a xlink:href="group__elements.html#a1b22cfab9437b40c8b877ffe5472ff02" target="_top" xlink:title=" ">
<polygon fill="white" stroke="#666666" points="708.88,-558 617.88,-558 617.88,-526 708.88,-526 708.88,-558"/>
<text text-anchor="start" x="625.88" y="-546.4" font-family="SourceSans" font-size="8.00">svg::element_base::</text>
<text text-anchor="middle" x="663.38" y="-534.4" font-family="SourceSans" font-size="8.00">add_filter</text>
</a>
</g>
</g>
<!-- Node18&#45;&gt;Node20 -->
<g id="edge21_Node000018_Node000020" class="edge">
<title>Node18&#45;&gt;Node20</title>
<g id="a_edge21_Node000018_Node000020"><a xlink:title=" ">
<path fill="none" stroke="#63b8ff" d="M538.92,-478.33C557.32,-488.39 586.2,-504.01 611.5,-517 613.74,-518.15 616.04,-519.32 618.37,-520.5"/>
<polygon fill="#63b8ff" stroke="#63b8ff" points="616.77,-523.61 627.28,-524.95 619.9,-517.35 616.77,-523.61"/>
</a>
</g>
</g>
<!-- Node21 -->
<g id="Node000021" class="node">
<title>Node21</title>
<g id="a_Node000021"><a xlink:href="group__elements.html#gad01750ac554c6bd6871a930c90e17a04" target="_top" xlink:title=" ">
<polygon fill="white" stroke="#666666" points="707,-508 619.75,-508 619.75,-476 707,-476 707,-508"/>
<text text-anchor="start" x="627.75" y="-496.4" font-family="SourceSans" font-size="8.00">svg::rect_element::</text>
<text text-anchor="middle" x="663.38" y="-484.4" font-family="SourceSans" font-size="8.00">finish_element</text>
</a>
</g>
</g>
<!-- Node18&#45;&gt;Node21 -->
<g id="edge23_Node000018_Node000021" class="edge">
<title>Node18&#45;&gt;Node21</title>
<g id="a_edge23_Node000018_Node000021"><a xlink:title=" ">
<path fill="none" stroke="#63b8ff" d="M555.65,-473.99C571.52,-476.67 590.56,-479.88 608.15,-482.85"/>
<polygon fill="#63b8ff" stroke="#63b8ff" points="607.51,-486.29 617.95,-484.51 608.67,-479.39 607.51,-486.29"/>
</a>
</g>
</g>
<!-- Node22 -->
<g id="Node000022" class="node">
<title>Node22</title>
<g id="a_Node000022"><a xlink:href="group__elements.html#a1e0ed5e9dfe1244317a87d7e6774348b" target="_top" xlink:title=" ">
<polygon fill="white" stroke="#666666" points="707,-458 619.75,-458 619.75,-426 707,-426 707,-458"/>
<text text-anchor="start" x="627.75" y="-446.4" font-family="SourceSans" font-size="8.00">svg::rect_element::</text>
<text text-anchor="middle" x="663.38" y="-434.4" font-family="SourceSans" font-size="8.00">start_element</text>
</a>
</g>
</g>
<!-- Node18&#45;&gt;Node22 -->
<g id="edge24_Node000018_Node000022" class="edge">
<title>Node18&#45;&gt;Node22</title>
<g id="a_edge24_Node000018_Node000022"><a xlink:title=" ">
<path fill="none" stroke="#63b8ff" d="M555.65,-461.51C571.52,-458.61 590.56,-455.13 608.15,-451.91"/>
<polygon fill="#63b8ff" stroke="#63b8ff" points="608.75,-455.36 617.96,-450.12 607.49,-448.47 608.75,-455.36"/>
</a>
</g>
</g>
<!-- Node19&#45;&gt;Node6 -->
<g id="edge20_Node000019_Node000006" class="edge">
<title>Node19&#45;&gt;Node6</title>
<g id="a_edge20_Node000019_Node000006"><a xlink:title=" ">
<path fill="none" stroke="#63b8ff" d="M707.39,-392C718.17,-392 729.87,-392 741.13,-392"/>
<polygon fill="#63b8ff" stroke="#63b8ff" points="741.12,-395.5 751.12,-392 741.12,-388.5 741.12,-395.5"/>
</a>
</g>
</g>
<!-- Node23&#45;&gt;Node11 -->
<g id="edge26_Node000023_Node000011" class="edge">
<title>Node23&#45;&gt;Node11</title>
<g id="a_edge26_Node000023_Node000011"><a xlink:title=" ">
<path fill="none" stroke="#63b8ff" d="M264.24,-374C273.1,-374 282.32,-374 291.4,-374"/>
<polygon fill="#63b8ff" stroke="#63b8ff" points="291.28,-377.5 301.28,-374 291.28,-370.5 291.28,-377.5"/>
</a>
</g>
</g>
<!-- Node24 -->
<g id="Node000024" class="node">
<title>Node24</title>
<g id="a_Node000024"><a xlink:href="namespacesvg.html#a5c3daa77c4f641f5ac5fd9d31a8c15d3" target="_top" xlink:title="Center a triangle at this point.">
<polygon fill="white" stroke="#666666" points="418.12,-246 308.38,-246 308.38,-226 418.12,-226 418.12,-246"/>
<text text-anchor="middle" x="363.25" y="-234.4" font-family="SourceSans" font-size="8.00">svg::make_path_triangle</text>
</a>
</g>
</g>
<!-- Node23&#45;&gt;Node24 -->
<g id="edge27_Node000023_Node000024" class="edge">
<title>Node23&#45;&gt;Node24</title>
<g id="a_edge27_Node000023_Node000024"><a xlink:title=" ">
<path fill="none" stroke="#63b8ff" d="M247.25,-363.6C253.05,-361.25 258.73,-358.42 263.75,-355 302.74,-328.5 334.62,-282.28 350.78,-255.92"/>
<polygon fill="#63b8ff" stroke="#63b8ff" points="353.65,-257.94 355.76,-247.56 347.64,-254.36 353.65,-257.94"/>
</a>
</g>
</g>
<!-- Node25 -->
<g id="Node000025" class="node">
<title>Node25</title>
<g id="a_Node000025"><a xlink:href="namespacesvg.html#ab44508c4aeca591141ebec50145b75cd" target="_top" xlink:title="Angle in degrees.">
<polygon fill="white" stroke="#666666" points="571,-252 467.25,-252 467.25,-220 571,-220 571,-252"/>
<text text-anchor="start" x="475.25" y="-240.4" font-family="SourceSans" font-size="8.00">svg::get_circumference</text>
<text text-anchor="middle" x="519.12" y="-228.4" font-family="SourceSans" font-size="8.00">_point_d</text>
</a>
</g>
</g>
<!-- Node24&#45;&gt;Node25 -->
<g id="edge28_Node000024_Node000025" class="edge">
<title>Node24&#45;&gt;Node25</title>
<g id="a_edge28_Node000024_Node000025"><a xlink:title=" ">
<path fill="none" stroke="#63b8ff" d="M418.5,-236C430.56,-236 443.43,-236 455.78,-236"/>
<polygon fill="#63b8ff" stroke="#63b8ff" points="455.43,-239.5 465.43,-236 455.43,-232.5 455.43,-239.5"/>
</a>
</g>
</g>
<!-- Node27 -->
<g id="Node000027" class="node">
<title>Node27</title>
<g id="a_Node000027"><a xlink:href="namespacesvg.html#a8b2e7da5235688e0f753d35fc1079c87" target="_top" xlink:title="Draw path given serialized path data. Assumes pinstripe, ie top and bottom line layers....">
<polygon fill="white" stroke="#666666" points="557.12,-164 481.12,-164 481.12,-144 557.12,-144 557.12,-164"/>
<text text-anchor="middle" x="519.12" y="-152.4" font-family="SourceSans" font-size="8.00">svg::make_path</text>
</a>
</g>
</g>
<!-- Node24&#45;&gt;Node27 -->
<g id="edge30_Node000024_Node000027" class="edge">
<title>Node24&#45;&gt;Node27</title>
<g id="a_edge30_Node000024_Node000027"><a xlink:title=" ">
<path fill="none" stroke="#63b8ff" d="M380,-225.64C405.59,-208.84 454.2,-177.13 462.75,-173 466.05,-171.41 469.51,-169.89 473.03,-168.45"/>
<polygon fill="#63b8ff" stroke="#63b8ff" points="474.13,-171.78 482.23,-164.95 471.64,-165.24 474.13,-171.78"/>
</a>
</g>
</g>
<!-- Node33 -->
<g id="Node000033" class="node">
<title>Node33</title>
<g id="a_Node000033"><a xlink:href="namespacesvg.html#a2c65de7707b8b7b1bca959a3a2bbba91" target="_top" xlink:title="Make single path segment.">
<polygon fill="white" stroke="#666666" points="567.62,-302 470.62,-302 470.62,-270 567.62,-270 567.62,-302"/>
<text text-anchor="start" x="478.62" y="-290.4" font-family="SourceSans" font-size="8.00">svg::make_path_data</text>
<text text-anchor="middle" x="519.12" y="-278.4" font-family="SourceSans" font-size="8.00">_from_points</text>
</a>
</g>
</g>
<!-- Node24&#45;&gt;Node33 -->
<g id="edge40_Node000024_Node000033" class="edge">
<title>Node24&#45;&gt;Node33</title>
<g id="a_edge40_Node000024_Node000033"><a xlink:title=" ">
<path fill="none" stroke="#63b8ff" d="M396.51,-246.48C414.67,-252.38 437.91,-259.94 459.21,-266.85"/>
<polygon fill="#63b8ff" stroke="#63b8ff" points="458.09,-270.17 468.69,-269.94 460.26,-263.52 458.09,-270.17"/>
</a>
</g>
</g>
<!-- Node35 -->
<g id="Node000035" class="node">
<title>Node35</title>
<g id="a_Node000035"><a xlink:href="namespacesvg.html#a46164d75fd5109e4ed8879abbacd5c11" target="_top" xlink:title="Zero degrees is top, going clockwise (cw).">
<polygon fill="white" stroke="#666666" points="575.5,-202 462.75,-202 462.75,-182 575.5,-182 575.5,-202"/>
<text text-anchor="middle" x="519.12" y="-190.4" font-family="SourceSans" font-size="8.00">svg::zero_angle_north_cw</text>
</a>
</g>
</g>
<!-- Node24&#45;&gt;Node35 -->
<g id="edge42_Node000024_Node000035" class="edge">
<title>Node24&#45;&gt;Node35</title>
<g id="a_edge42_Node000024_Node000035"><a xlink:title=" ">
<path fill="none" stroke="#63b8ff" d="M400.72,-225.57C421.62,-219.59 448.11,-212.02 470.63,-205.58"/>
<polygon fill="#63b8ff" stroke="#63b8ff" points="471.55,-208.96 480.2,-202.84 469.62,-202.23 471.55,-208.96"/>
</a>
</g>
</g>
<!-- Node26 -->
<g id="Node000026" class="node">
<title>Node26</title>
<g id="a_Node000026"><a xlink:href="namespacesvg.html#aef05ac63d88a6102981d3faf37275297" target="_top" xlink:title="Angle in radians.">
<polygon fill="white" stroke="#666666" points="715.25,-270 611.5,-270 611.5,-238 715.25,-238 715.25,-270"/>
<text text-anchor="start" x="619.5" y="-258.4" font-family="SourceSans" font-size="8.00">svg::get_circumference</text>
<text text-anchor="middle" x="663.38" y="-246.4" font-family="SourceSans" font-size="8.00">_point_r</text>
</a>
</g>
</g>
<!-- Node25&#45;&gt;Node26 -->
<g id="edge29_Node000025_Node000026" class="edge">
<title>Node25&#45;&gt;Node26</title>
<g id="a_edge29_Node000025_Node000026"><a xlink:title=" ">
<path fill="none" stroke="#63b8ff" d="M571.48,-242.5C580.65,-243.66 590.29,-244.88 599.73,-246.07"/>
<polygon fill="#63b8ff" stroke="#63b8ff" points="599.23,-249.54 609.59,-247.32 600.11,-242.59 599.23,-249.54"/>
</a>
</g>
</g>
<!-- Node27&#45;&gt;Node7 -->
<g id="edge34_Node000027_Node000007" class="edge">
<title>Node27&#45;&gt;Node7</title>
<g id="a_edge34_Node000027_Node000007"><a xlink:title=" ">
<path fill="none" stroke="#63b8ff" d="M557.44,-161.1C564.19,-163.85 570.62,-167.68 575.5,-173 620.11,-221.6 570.04,-265.68 611.5,-317 611.74,-317.3 611.99,-317.6 612.24,-317.89"/>
<polygon fill="#63b8ff" stroke="#63b8ff" points="609.75,-320.35 619.49,-324.52 614.47,-315.19 609.75,-320.35"/>
</a>
</g>
</g>
<!-- Node27&#45;&gt;Node8 -->
<g id="edge39_Node000027_Node000008" class="edge">
<title>Node27&#45;&gt;Node8</title>
<g id="a_edge39_Node000027_Node000008"><a xlink:title=" ">
<path fill="none" stroke="#63b8ff" d="M542.41,-143.61C579.97,-127.71 657.44,-101.85 715.25,-129 748.77,-144.74 773.14,-182.05 785.82,-205.54"/>
<polygon fill="#63b8ff" stroke="#63b8ff" points="782.58,-206.88 790.26,-214.17 788.8,-203.68 782.58,-206.88"/>
</a>
</g>
</g>
<!-- Node27&#45;&gt;Node12 -->
<g id="edge33_Node000027_Node000012" class="edge">
<title>Node27&#45;&gt;Node12</title>
<g id="a_edge33_Node000027_Node000012"><a xlink:title=" ">
<path fill="none" stroke="#63b8ff" d="M550.9,-164.49C558.92,-167.24 567.54,-170.21 575.5,-173 585.71,-176.57 596.58,-180.42 607.05,-184.14"/>
<polygon fill="#63b8ff" stroke="#63b8ff" points="605.75,-187.4 616.34,-187.46 608.1,-180.8 605.75,-187.4"/>
</a>
</g>
</g>
<!-- Node28 -->
<g id="Node000028" class="node">
<title>Node28</title>
<g id="a_Node000028"><a xlink:href="group__elements.html#a807f3c30f2ace338ad10aaf230b47665" target="_top" xlink:title="Either serialize immediately (as below), or create data structure that adds data to data_vec and then...">
<polygon fill="white" stroke="#666666" points="708.88,-170 617.88,-170 617.88,-138 708.88,-138 708.88,-170"/>
<text text-anchor="start" x="625.88" y="-158.4" font-family="SourceSans" font-size="8.00">svg::path_element::</text>
<text text-anchor="middle" x="663.38" y="-146.4" font-family="SourceSans" font-size="8.00">add_data</text>
</a>
</g>
</g>
<!-- Node27&#45;&gt;Node28 -->
<g id="edge31_Node000027_Node000028" class="edge">
<title>Node27&#45;&gt;Node28</title>
<g id="a_edge31_Node000027_Node000028"><a xlink:title=" ">
<path fill="none" stroke="#63b8ff" d="M557.5,-154C572.41,-154 589.91,-154 606.28,-154"/>
<polygon fill="#63b8ff" stroke="#63b8ff" points="605.89,-157.5 615.89,-154 605.89,-150.5 605.89,-157.5"/>
</a>
</g>
</g>
<!-- Node29 -->
<g id="Node000029" class="node">
<title>Node29</title>
<g id="a_Node000029"><a xlink:href="group__elements.html#gaac30ae99fb1a2542688fa1ffb43cd8e1" target="_top" xlink:title=" ">
<polygon fill="white" stroke="#666666" points="708.88,-82 617.88,-82 617.88,-50 708.88,-50 708.88,-82"/>
<text text-anchor="start" x="625.88" y="-70.4" font-family="SourceSans" font-size="8.00">svg::path_element::</text>
<text text-anchor="middle" x="663.38" y="-58.4" font-family="SourceSans" font-size="8.00">finish_element</text>
</a>
</g>
</g>
<!-- Node27&#45;&gt;Node29 -->
<g id="edge35_Node000027_Node000029" class="edge">
<title>Node27&#45;&gt;Node29</title>
<g id="a_edge35_Node000027_Node000029"><a xlink:title=" ">
<path fill="none" stroke="#63b8ff" d="M536.2,-143.57C554.37,-131.84 584.9,-112.28 611.5,-96 615.58,-93.5 619.87,-90.92 624.15,-88.36"/>
<polygon fill="#63b8ff" stroke="#63b8ff" points="625.91,-91.38 632.72,-83.27 622.33,-85.37 625.91,-91.38"/>
</a>
</g>
</g>
<!-- Node31 -->
<g id="Node000031" class="node">
<title>Node31</title>
<g id="a_Node000031"><a xlink:href="group__elements.html#a6dbca7cef2cbc0c10aa44c44ae20b36e" target="_top" xlink:title=" ">
<polygon fill="white" stroke="#666666" points="708.88,-32 617.88,-32 617.88,0 708.88,0 708.88,-32"/>
<text text-anchor="start" x="625.88" y="-20.4" font-family="SourceSans" font-size="8.00">svg::path_element::</text>
<text text-anchor="middle" x="663.38" y="-8.4" font-family="SourceSans" font-size="8.00">start_element</text>
</a>
</g>
</g>
<!-- Node27&#45;&gt;Node31 -->
<g id="edge37_Node000027_Node000031" class="edge">
<title>Node27&#45;&gt;Node31</title>
<g id="a_edge37_Node000027_Node000031"><a xlink:title=" ">
<path fill="none" stroke="#63b8ff" d="M526.26,-143.7C539.49,-122.21 572.66,-72.01 611.5,-41 612.6,-40.12 613.74,-39.26 614.91,-38.42"/>
<polygon fill="#63b8ff" stroke="#63b8ff" points="616.5,-41.56 623.02,-33.21 612.72,-35.67 616.5,-41.56"/>
</a>
</g>
</g>
<!-- Node28&#45;&gt;Node6 -->
<g id="edge32_Node000028_Node000006" class="edge">
<title>Node28&#45;&gt;Node6</title>
<g id="a_edge32_Node000028_Node000006"><a xlink:title=" ">
<path fill="none" stroke="#63b8ff" d="M705.27,-170.45C708.92,-172.95 712.34,-175.8 715.25,-179 741.97,-208.4 776.36,-322.94 789.9,-370.8"/>
<polygon fill="#63b8ff" stroke="#63b8ff" points="786.47,-371.54 792.54,-380.23 793.21,-369.65 786.47,-371.54"/>
</a>
</g>
</g>
<!-- Node30 -->
<g id="Node000030" class="node">
<title>Node30</title>
<g id="a_Node000030"><a xlink:href="group__elements.html#ga503ee2895588a6c684e2b1614cf4e73d" target="_top" xlink:title=" ">
<polygon fill="white" stroke="#666666" points="841.5,-82 752,-82 752,-50 841.5,-50 841.5,-82"/>
<text text-anchor="start" x="760" y="-70.4" font-family="SourceSans" font-size="8.00">svg::defs_element::</text>
<text text-anchor="middle" x="796.75" y="-58.4" font-family="SourceSans" font-size="8.00">finish_element</text>
</a>
</g>
</g>
<!-- Node29&#45;&gt;Node30 -->
<g id="edge36_Node000029_Node000030" class="edge">
<title>Node29&#45;&gt;Node30</title>
<g id="a_edge36_Node000029_Node000030"><a xlink:title=" ">
<path fill="none" stroke="#63b8ff" d="M709.22,-66C719.16,-66 729.8,-66 740.11,-66"/>
<polygon fill="#63b8ff" stroke="#63b8ff" points="740.04,-69.5 750.04,-66 740.04,-62.5 740.04,-69.5"/>
</a>
</g>
</g>
<!-- Node32 -->
<g id="Node000032" class="node">
<title>Node32</title>
<g id="a_Node000032"><a xlink:href="group__elements.html#a948868c6f5dea784ded14c26cc1d2139" target="_top" xlink:title=" ">
<polygon fill="white" stroke="#666666" points="841.5,-32 752,-32 752,0 841.5,0 841.5,-32"/>
<text text-anchor="start" x="760" y="-20.4" font-family="SourceSans" font-size="8.00">svg::defs_element::</text>
<text text-anchor="middle" x="796.75" y="-8.4" font-family="SourceSans" font-size="8.00">start_element</text>
</a>
</g>
</g>
<!-- Node31&#45;&gt;Node32 -->
<g id="edge38_Node000031_Node000032" class="edge">
<title>Node31&#45;&gt;Node32</title>
<g id="a_edge38_Node000031_Node000032"><a xlink:title=" ">
<path fill="none" stroke="#63b8ff" d="M709.22,-16C719.16,-16 729.8,-16 740.11,-16"/>
<polygon fill="#63b8ff" stroke="#63b8ff" points="740.04,-19.5 750.04,-16 740.04,-12.5 740.04,-19.5"/>
</a>
</g>
</g>
<!-- Node34 -->
<g id="Node000034" class="node">
<title>Node34</title>
<g id="a_Node000034"><a xlink:href="namespacesvg_1_1constants.html#ac460bc8db60d85c3ae1cf8b1a903405e" target="_top" xlink:title="Formatting character constants.">
<polygon fill="white" stroke="#666666" points="711.5,-308 615.25,-308 615.25,-288 711.5,-288 711.5,-308"/>
<text text-anchor="middle" x="663.38" y="-296.4" font-family="SourceSans" font-size="8.00">svg::constants::space</text>
</a>
</g>
</g>
<!-- Node33&#45;&gt;Node34 -->
<g id="edge41_Node000033_Node000034" class="edge">
<title>Node33&#45;&gt;Node34</title>
<g id="a_edge41_Node000033_Node000034"><a xlink:title=" ">
<path fill="none" stroke="#63b8ff" d="M567.89,-290.03C579.39,-291 591.8,-292.05 603.73,-293.05"/>
<polygon fill="#63b8ff" stroke="#63b8ff" points="603.21,-296.52 613.47,-293.87 603.8,-289.55 603.21,-296.52"/>
</a>
</g>
</g>
<!-- Node36&#45;&gt;Node11 -->
<g id="edge44_Node000036_Node000011" class="edge">
<title>Node36&#45;&gt;Node11</title>
<g id="a_edge44_Node000036_Node000011"><a xlink:title=" ">
<path fill="none" stroke="#63b8ff" d="M248.66,-346.48C267,-350.93 288.59,-356.16 307.98,-360.85"/>
<polygon fill="#63b8ff" stroke="#63b8ff" points="307.1,-364.24 317.64,-363.19 308.74,-357.44 307.1,-364.24"/>
</a>
</g>
</g>
<!-- Node37 -->
<g id="Node000037" class="node">
<title>Node37</title>
<g id="a_Node000037"><a xlink:href="namespacesvg.html#a2fa1b20c774442f47173235750c9d0e8" target="_top" xlink:title="Plus or x tilt mark as closed path that can be filled.">
<polygon fill="white" stroke="#666666" points="426.75,-186 299.75,-186 299.75,-166 426.75,-166 426.75,-186"/>
<text text-anchor="middle" x="363.25" y="-174.4" font-family="SourceSans" font-size="8.00">svg::make_path_center_mark</text>
</a>
</g>
</g>
<!-- Node36&#45;&gt;Node37 -->
<g id="edge45_Node000036_Node000037" class="edge">
<title>Node36&#45;&gt;Node37</title>
<g id="a_edge45_Node000036_Node000037"><a xlink:title=" ">
<path fill="none" stroke="#63b8ff" d="M211.99,-325.54C226.19,-303.62 261.41,-252.04 299.75,-217 309.87,-207.75 322.28,-199.15 333.37,-192.24"/>
<polygon fill="#63b8ff" stroke="#63b8ff" points="335.02,-195.34 341.78,-187.18 331.41,-189.34 335.02,-195.34"/>
</a>
</g>
</g>
<!-- Node37&#45;&gt;Node27 -->
<g id="edge46_Node000037_Node000027" class="edge">
<title>Node37&#45;&gt;Node27</title>
<g id="a_edge46_Node000037_Node000027"><a xlink:title=" ">
<path fill="none" stroke="#63b8ff" d="M426.84,-167.05C441.14,-165.01 456.12,-162.86 469.73,-160.92"/>
<polygon fill="#63b8ff" stroke="#63b8ff" points="469.88,-164.43 479.28,-159.55 468.88,-157.5 469.88,-164.43"/>
</a>
</g>
</g>
</g>
</svg>

<g id="navigator" transform="translate(0 0)" fill="#404254">
  <rect fill="#f2f5e9" fill-opacity="0.5" stroke="#606060" stroke-width=".5" x="0" y="0" width="60" height="60"/>
  <use id="zoomplus" xlink:href="#zoomPlus" x="17" y="9" onmousedown="handleZoom(evt,'in')"/>
  <use id="zoomminus" xlink:href="#zoomMin" x="42" y="9" onmousedown="handleZoom(evt,'out')"/>
  <use id="reset" xlink:href="#resetDef" x="30" y="36" onmousedown="handleReset()"/>
   <use id="arrowup" xlink:href="#arrowUp" x="0" y="0" onmousedown="handlePan(0,-1)"/>
  <use id="arrowright" xlink:href="#arrowRight" x="0" y="0" onmousedown="handlePan(1,0)"/>
  <use id="arrowdown" xlink:href="#arrowDown" x="0" y="0" onmousedown="handlePan(0,1)"/>
  <use id="arrowleft" xlink:href="#arrowLeft" x="0" y="0" onmousedown="handlePan(-1,0)"/>
</g>
<svg viewBox="0 0 15 15" width="100%" height="30px" preserveAspectRatio="xMaxYMin meet">
 <g id="arrow_out" transform="scale(0.3 0.3)">
  <a xlink:href="namespacesvg_a42cfc603a1e307158f4830c2128ff77f_cgraph_org.svg" target="_base">
   <rect id="button" ry="5" rx="5" y="6" x="6" height="38" width="38"
        fill="#f2f5e9" fill-opacity="0.5" stroke="#606060" stroke-width="1.0"/>
   <path id="arrow"
     d="M 11.500037,31.436501 C 11.940474,20.09759 22.043105,11.32322 32.158766,21.979434 L 37.068811,17.246167 C 37.068811,17.246167 37.088388,32 37.088388,32 L 22.160133,31.978069 C 22.160133,31.978069 26.997745,27.140456 26.997745,27.140456 C 18.528582,18.264221 13.291696,25.230495 11.500037,31.436501 z"
     style="fill:#404040;"/>
  </a>
 </g>
</svg>

<style type='text/css'>
<![CDATA[
[data-mouse-over-selected='false'] { opacity: 0.7; }
[data-mouse-over-selected='true']  { opacity: 1.0; }
]]>
</style>
<script type="application/ecmascript"><![CDATA[
document.addEventListener('DOMContentLoaded', (event) => {
  highlightEdges();
  highlightAdjacentNodes();
});
]]></script>
</svg>
