<?xml version="1.0" encoding="UTF-8" standalone="no"?>
<!DOCTYPE svg PUBLIC "-//W3C//DTD SVG 1.1//EN"
 "http://www.w3.org/Graphics/SVG/1.1/DTD/svg11.dtd">
<!-- Generated by graphviz version 12.2.1 (20241206.2353)
 -->
<!-- Title: svg::vertical_sync_roll_seq Pages: 1 -->
<svg width="373pt" height="302pt"
 viewBox="0.00 0.00 372.50 301.62" xmlns="http://www.w3.org/2000/svg" xmlns:xlink="http://www.w3.org/1999/xlink">
<g id="graph0" class="graph" transform="scale(1 1) rotate(0) translate(4 297.62)">
<title>svg::vertical_sync_roll_seq</title>
<!-- Node1 -->
<g id="Node000001" class="node">
<title>Node1</title>
<g id="a_Node000001"><a xlink:title="Simulated vertical roll, with fades. r == frame size.">
<polygon fill="#999999" stroke="#666666" points="88.75,-155.62 0,-155.62 0,-128.12 88.75,-128.12 88.75,-155.62"/>
<text text-anchor="start" x="8" y="-144.03" font-family="SourceSans" font-size="8.00">svg::vertical_sync</text>
<text text-anchor="middle" x="44.38" y="-134.28" font-family="SourceSans" font-size="8.00">_roll_seq</text>
</a>
</g>
</g>
<!-- Node2 -->
<g id="Node000002" class="node">
<title>Node2</title>
<g id="a_Node000002"><a xlink:href="group__elements.html#a1dd6663d882fb5dd14a47462a77f351b" target="_top" xlink:title="Either serialize immediately (as below), or create data structure that adds data to data_vec and then...">
<polygon fill="white" stroke="#666666" points="227.38,-293.62 132.62,-293.62 132.62,-266.12 227.38,-266.12 227.38,-293.62"/>
<text text-anchor="start" x="140.62" y="-282.02" font-family="SourceSans" font-size="8.00">svg::rect_element::</text>
<text text-anchor="middle" x="180" y="-272.27" font-family="SourceSans" font-size="8.00">add_data</text>
</a>
</g>
</g>
<!-- Node1&#45;&gt;Node2 -->
<g id="edge1_Node000001_Node000002" class="edge">
<title>Node1&#45;&gt;Node2</title>
<g id="a_edge1_Node000001_Node000002"><a xlink:title=" ">
<path fill="none" stroke="#63b8ff" d="M51.72,-155.81C63.16,-179.55 89.4,-228.06 124.75,-256.88 126.04,-257.93 127.38,-258.93 128.77,-259.9"/>
<polygon fill="#63b8ff" stroke="#63b8ff" points="126.75,-262.77 137.12,-264.96 130.37,-256.78 126.75,-262.77"/>
</a>
</g>
</g>
<!-- Node4 -->
<g id="Node000004" class="node">
<title>Node4</title>
<g id="a_Node000004"><a xlink:href="group__elements.html#a1b22cfab9437b40c8b877ffe5472ff02" target="_top" xlink:title=" ">
<polygon fill="white" stroke="#666666" points="230,-247.62 130,-247.62 130,-220.12 230,-220.12 230,-247.62"/>
<text text-anchor="start" x="138" y="-236.03" font-family="SourceSans" font-size="8.00">svg::element_base::</text>
<text text-anchor="middle" x="180" y="-226.28" font-family="SourceSans" font-size="8.00">add_filter</text>
</a>
</g>
</g>
<!-- Node1&#45;&gt;Node4 -->
<g id="edge3_Node000001_Node000004" class="edge">
<title>Node1&#45;&gt;Node4</title>
<g id="a_edge3_Node000001_Node000004"><a xlink:title=" ">
<path fill="none" stroke="#63b8ff" d="M58.92,-156.06C73.92,-171.16 99.35,-195.01 124.75,-210.88 126.75,-212.12 128.83,-213.33 130.96,-214.5"/>
<polygon fill="#63b8ff" stroke="#63b8ff" points="129.31,-217.59 139.81,-218.97 132.46,-211.34 129.31,-217.59"/>
</a>
</g>
</g>
<!-- Node5 -->
<g id="Node000005" class="node">
<title>Node5</title>
<g id="a_Node000005"><a xlink:href="group__elements.html#a238b38ca99a1cf6c2baf80c8e4338d99" target="_top" xlink:title=" ">
<polygon fill="white" stroke="#666666" points="230,-201.62 130,-201.62 130,-174.12 230,-174.12 230,-201.62"/>
<text text-anchor="start" x="138" y="-190.03" font-family="SourceSans" font-size="8.00">svg::element_base::</text>
<text text-anchor="middle" x="180" y="-180.28" font-family="SourceSans" font-size="8.00">add_style</text>
</a>
</g>
</g>
<!-- Node1&#45;&gt;Node5 -->
<g id="edge4_Node000001_Node000005" class="edge">
<title>Node1&#45;&gt;Node5</title>
<g id="a_edge4_Node000001_Node000005"><a xlink:title=" ">
<path fill="none" stroke="#63b8ff" d="M86.56,-156.05C99.39,-160.47 113.7,-165.4 127.16,-170.03"/>
<polygon fill="#63b8ff" stroke="#63b8ff" points="125.7,-173.23 136.29,-173.17 127.98,-166.61 125.7,-173.23"/>
</a>
</g>
</g>
<!-- Node7 -->
<g id="Node000007" class="node">
<title>Node7</title>
<g id="a_Node000007"><a xlink:href="group__elements.html#a53d72a7ff728ad1d4d027254530bcf3d" target="_top" xlink:title="Common transforms include rotate(180)">
<polygon fill="white" stroke="#666666" points="230,-155.62 130,-155.62 130,-128.12 230,-128.12 230,-155.62"/>
<text text-anchor="start" x="138" y="-144.03" font-family="SourceSans" font-size="8.00">svg::element_base::</text>
<text text-anchor="middle" x="180" y="-134.28" font-family="SourceSans" font-size="8.00">add_transform</text>
</a>
</g>
</g>
<!-- Node1&#45;&gt;Node7 -->
<g id="edge6_Node000001_Node000007" class="edge">
<title>Node1&#45;&gt;Node7</title>
<g id="a_edge6_Node000001_Node000007"><a xlink:title=" ">
<path fill="none" stroke="#63b8ff" d="M89.13,-141.88C98.43,-141.88 108.41,-141.88 118.21,-141.88"/>
<polygon fill="#63b8ff" stroke="#63b8ff" points="118.08,-145.38 128.08,-141.88 118.08,-138.38 118.08,-145.38"/>
</a>
</g>
</g>
<!-- Node8 -->
<g id="Node000008" class="node">
<title>Node8</title>
<g id="a_Node000008"><a xlink:href="group__elements.html#gad01750ac554c6bd6871a930c90e17a04" target="_top" xlink:title=" ">
<polygon fill="white" stroke="#666666" points="227.38,-109.62 132.62,-109.62 132.62,-82.12 227.38,-82.12 227.38,-109.62"/>
<text text-anchor="start" x="140.62" y="-98.03" font-family="SourceSans" font-size="8.00">svg::rect_element::</text>
<text text-anchor="middle" x="180" y="-88.28" font-family="SourceSans" font-size="8.00">finish_element</text>
</a>
</g>
</g>
<!-- Node1&#45;&gt;Node8 -->
<g id="edge7_Node000001_Node000008" class="edge">
<title>Node1&#45;&gt;Node8</title>
<g id="a_edge7_Node000001_Node000008"><a xlink:title=" ">
<path fill="none" stroke="#63b8ff" d="M86.56,-127.7C99.39,-123.28 113.7,-118.35 127.16,-113.72"/>
<polygon fill="#63b8ff" stroke="#63b8ff" points="127.98,-117.14 136.29,-110.58 125.7,-110.52 127.98,-117.14"/>
</a>
</g>
</g>
<!-- Node9 -->
<g id="Node000009" class="node">
<title>Node9</title>
<g id="a_Node000009"><a xlink:href="group__elements.html#a1e0ed5e9dfe1244317a87d7e6774348b" target="_top" xlink:title=" ">
<polygon fill="white" stroke="#666666" points="227.38,-63.62 132.62,-63.62 132.62,-36.12 227.38,-36.12 227.38,-63.62"/>
<text text-anchor="start" x="140.62" y="-52.02" font-family="SourceSans" font-size="8.00">svg::rect_element::</text>
<text text-anchor="middle" x="180" y="-42.27" font-family="SourceSans" font-size="8.00">start_element</text>
</a>
</g>
</g>
<!-- Node1&#45;&gt;Node9 -->
<g id="edge8_Node000001_Node000009" class="edge">
<title>Node1&#45;&gt;Node9</title>
<g id="a_edge8_Node000001_Node000009"><a xlink:title=" ">
<path fill="none" stroke="#63b8ff" d="M58.92,-127.69C73.92,-112.59 99.35,-88.74 124.75,-72.88 126.75,-71.63 128.83,-70.42 130.96,-69.25"/>
<polygon fill="#63b8ff" stroke="#63b8ff" points="132.46,-72.41 139.81,-64.78 129.31,-66.16 132.46,-72.41"/>
</a>
</g>
</g>
<!-- Node10 -->
<g id="Node000010" class="node">
<title>Node10</title>
<g id="a_Node000010"><a xlink:href="group__elements.html#ad893ef9c13a15464c96d8a85c08af30f" target="_top" xlink:title=" ">
<polygon fill="white" stroke="#666666" points="235.25,-17.75 124.75,-17.75 124.75,0 235.25,0 235.25,-17.75"/>
<text text-anchor="middle" x="180" y="-6.15" font-family="SourceSans" font-size="8.00">svg::element_base::str</text>
</a>
</g>
</g>
<!-- Node1&#45;&gt;Node10 -->
<g id="edge9_Node000001_Node000010" class="edge">
<title>Node1&#45;&gt;Node10</title>
<g id="a_edge9_Node000001_Node000010"><a xlink:title=" ">
<path fill="none" stroke="#63b8ff" d="M51.48,-127.64C62.56,-103.43 88.26,-54.24 124.75,-26.88 126.51,-25.56 128.36,-24.33 130.29,-23.2"/>
<polygon fill="#63b8ff" stroke="#63b8ff" points="131.62,-26.45 139.03,-18.88 128.51,-20.17 131.62,-26.45"/>
</a>
</g>
</g>
<!-- Node3 -->
<g id="Node000003" class="node">
<title>Node3</title>
<g id="a_Node000003"><a xlink:href="namespacesvg.html#a48ac748e89e22789d1772326a98dd7b6" target="_top" xlink:title=" ">
<polygon fill="white" stroke="#666666" points="364.5,-288.75 271.25,-288.75 271.25,-271 364.5,-271 364.5,-288.75"/>
<text text-anchor="middle" x="317.88" y="-277.15" font-family="SourceSans" font-size="8.00">svg::string_replace</text>
</a>
</g>
</g>
<!-- Node2&#45;&gt;Node3 -->
<g id="edge2_Node000002_Node000003" class="edge">
<title>Node2&#45;&gt;Node3</title>
<g id="a_edge2_Node000002_Node000003"><a xlink:title=" ">
<path fill="none" stroke="#63b8ff" d="M227.76,-279.88C238.02,-279.88 249,-279.88 259.62,-279.88"/>
<polygon fill="#63b8ff" stroke="#63b8ff" points="259.43,-283.38 269.43,-279.88 259.43,-276.38 259.43,-283.38"/>
</a>
</g>
</g>
<!-- Node6 -->
<g id="Node000006" class="node">
<title>Node6</title>
<g id="a_Node000006"><a xlink:href="namespacesvg.html#a36b1c48ad4601b205790e3772ad0a7b6" target="_top" xlink:title=" ">
<polygon fill="white" stroke="#666666" points="353.62,-196.75 282.12,-196.75 282.12,-179 353.62,-179 353.62,-196.75"/>
<text text-anchor="middle" x="317.88" y="-185.15" font-family="SourceSans" font-size="8.00">svg::to_string</text>
</a>
</g>
</g>
<!-- Node5&#45;&gt;Node6 -->
<g id="edge5_Node000005_Node000006" class="edge">
<title>Node5&#45;&gt;Node6</title>
<g id="a_edge5_Node000005_Node000006"><a xlink:title=" ">
<path fill="none" stroke="#63b8ff" d="M230.44,-187.88C243.45,-187.88 257.45,-187.88 270.3,-187.88"/>
<polygon fill="#63b8ff" stroke="#63b8ff" points="270.22,-191.38 280.22,-187.88 270.22,-184.38 270.22,-191.38"/>
</a>
</g>
</g>
</g>
</svg>
