<?xml version="1.0" encoding="UTF-8" standalone="no"?>
<!DOCTYPE svg PUBLIC "-//W3C//DTD SVG 1.1//EN"
 "http://www.w3.org/Graphics/SVG/1.1/DTD/svg11.dtd">
<!-- Generated by graphviz version 12.2.1 (20241206.2353)
 -->
<!-- Title: svg::point_to_octogon Pages: 1 -->
<!--zoomable 366 -->

<svg id="main" version="1.1" xmlns="http://www.w3.org/2000/svg" xmlns:xlink="http://www.w3.org/1999/xlink" xml:space="preserve" onload="init(evt)">

<style type="text/css"><![CDATA[
.node, .edge {opacity: 0.7;}
.node.selected, .edge.selected {opacity: 1;}
.edge:hover path { stroke: red; }
.edge:hover polygon { stroke: red; fill: red; }
]]></style>

<defs>
  <circle id="rim" cx="0" cy="0" r="7"/>
  <circle id="rim2" cx="0" cy="0" r="3.5"/>
  <g id="zoomPlus">
    <use xlink:href="#rim" fill="#404040"><set attributeName="fill" to="#808080" begin="zoomplus.mouseover" end="zoomplus.mouseout"/></use>
    <path d="M-4,0h8M0,-4v8" fill="none" stroke="white" stroke-width="1.5" pointer-events="none"/>
  </g>
  <g id="zoomMin">
    <use xlink:href="#rim" fill="#404040"><set attributeName="fill" to="#808080" begin="zoomminus.mouseover" end="zoomminus.mouseout"/></use>
    <path d="M-4,0h8" fill="none" stroke="white" stroke-width="1.5" pointer-events="none"/>
  </g>
  <g id="arrowUp" transform="translate(30 24)">
    <use xlink:href="#rim"/>
    <path pointer-events="none" fill="none" stroke="white" stroke-width="1.5" d="M0,-3.0v7 M-2.5,-0.5L0,-3.0L2.5,-0.5"/>
  </g>
  <g id="arrowRight" transform="rotate(90) translate(36 -43)">
    <use xlink:href="#rim"/>
    <path pointer-events="none" fill="none" stroke="white" stroke-width="1.5" d="M0,-3.0v7 M-2.5,-0.5L0,-3.0L2.5,-0.5"/>
  </g>
  <g id="arrowDown" transform="rotate(180) translate(-30 -48)">
    <use xlink:href="#rim"/>
    <path pointer-events="none" fill="none" stroke="white" stroke-width="1.5" d="M0,-3.0v7 M-2.5,-0.5L0,-3.0L2.5,-0.5"/>
  </g>
  <g id="arrowLeft" transform="rotate(270) translate(-36 17)">
    <use xlink:href="#rim"/>
    <path pointer-events="none" fill="none" stroke="white" stroke-width="1.5" d="M0,-3.0v7 M-2.5,-0.5L0,-3.0L2.5,-0.5"/>
  </g>
  <g id="resetDef">
    <use xlink:href="#rim2" fill="#404040"><set attributeName="fill" to="#808080" begin="reset.mouseover" end="reset.mouseout"/></use>
  </g>
</defs>
<script type="application/ecmascript">
var viewWidth = 666;
var viewHeight = 366;
var sectionId = 'dynsection-70';
</script>
<script type="application/ecmascript" xlink:href="svg.min.js"/>
<svg id="graph" class="graph">
<g id="viewport">
<title>svg::point_to_octogon</title>
<!-- Node1 -->
<g id="Node000001" class="node">
<title>Node1</title>
<g id="a_Node000001"><a xlink:title="Center an octogon at this point.">
<polygon fill="#999999" stroke="#666666" points="99.25,-202 0,-202 0,-182 99.25,-182 99.25,-202"/>
<text text-anchor="middle" x="49.62" y="-190.4" font-family="SourceSans" font-size="8.00">svg::point_to_octogon</text>
</a>
</g>
</g>
<!-- Node2 -->
<g id="Node000002" class="node">
<title>Node2</title>
<g id="a_Node000002"><a xlink:href="group__elements.html#ada0333b46b2547c6152f3f5811016a12" target="_top" xlink:title=" ">
<polygon fill="white" stroke="#666666" points="236,-252 145,-252 145,-220 236,-220 236,-252"/>
<text text-anchor="start" x="153" y="-240.4" font-family="SourceSans" font-size="8.00">svg::element_base::</text>
<text text-anchor="middle" x="190.5" y="-228.4" font-family="SourceSans" font-size="8.00">add_element</text>
</a>
</g>
</g>
<!-- Node1&#45;&gt;Node2 -->
<g id="edge1_Node000001_Node000002" class="edge">
<title>Node1&#45;&gt;Node2</title>
<g id="a_edge1_Node000001_Node000002"><a xlink:title=" ">
<path fill="none" stroke="#63b8ff" d="M83.54,-202.43C98.68,-207.23 117.07,-213.05 134.24,-218.49"/>
<polygon fill="#63b8ff" stroke="#63b8ff" points="132.71,-221.68 143.3,-221.36 134.82,-215 132.71,-221.68"/>
</a>
</g>
</g>
<!-- Node4 -->
<g id="Node000004" class="node">
<title>Node4</title>
<g id="a_Node000004"><a xlink:href="namespacesvg.html#af893d565800d9f71195d75df2cb590b7" target="_top" xlink:title="Center an octogon at this point. radius 4 is pixels to draw out from center point....">
<polygon fill="white" stroke="#666666" points="245.75,-180 135.25,-180 135.25,-160 245.75,-160 245.75,-180"/>
<text text-anchor="middle" x="190.5" y="-168.4" font-family="SourceSans" font-size="8.00">svg::make_path_octogon</text>
</a>
</g>
</g>
<!-- Node1&#45;&gt;Node4 -->
<g id="edge3_Node000001_Node000004" class="edge">
<title>Node1&#45;&gt;Node4</title>
<g id="a_edge3_Node000001_Node000004"><a xlink:title=" ">
<path fill="none" stroke="#63b8ff" d="M99.59,-184.24C107.34,-183.02 115.46,-181.73 123.52,-180.45"/>
<polygon fill="#63b8ff" stroke="#63b8ff" points="124.01,-183.92 133.33,-178.9 122.91,-177.01 124.01,-183.92"/>
</a>
</g>
</g>
<!-- Node3 -->
<g id="Node000003" class="node">
<title>Node3</title>
<g id="a_Node000003"><a xlink:href="group__elements.html#ad893ef9c13a15464c96d8a85c08af30f" target="_top" xlink:title=" ">
<polygon fill="white" stroke="#666666" points="388.5,-268 287.75,-268 287.75,-248 388.5,-248 388.5,-268"/>
<text text-anchor="middle" x="338.12" y="-256.4" font-family="SourceSans" font-size="8.00">svg::element_base::str</text>
</a>
</g>
</g>
<!-- Node2&#45;&gt;Node3 -->
<g id="edge2_Node000002_Node000003" class="edge">
<title>Node2&#45;&gt;Node3</title>
<g id="a_edge2_Node000002_Node000003"><a xlink:title=" ">
<path fill="none" stroke="#63b8ff" d="M236.38,-242.78C248.98,-244.68 262.9,-246.79 276.26,-248.81"/>
<polygon fill="#63b8ff" stroke="#63b8ff" points="275.41,-252.22 285.82,-250.25 276.46,-245.29 275.41,-252.22"/>
</a>
</g>
</g>
<!-- Node5 -->
<g id="Node000005" class="node">
<title>Node5</title>
<g id="a_Node000005"><a xlink:href="namespacesvg.html#ab44508c4aeca591141ebec50145b75cd" target="_top" xlink:title="Angle in degrees.">
<polygon fill="white" stroke="#666666" points="390,-230 286.25,-230 286.25,-198 390,-198 390,-230"/>
<text text-anchor="start" x="294.25" y="-218.4" font-family="SourceSans" font-size="8.00">svg::get_circumference</text>
<text text-anchor="middle" x="338.12" y="-206.4" font-family="SourceSans" font-size="8.00">_point_d</text>
</a>
</g>
</g>
<!-- Node4&#45;&gt;Node5 -->
<g id="edge4_Node000004_Node000005" class="edge">
<title>Node4&#45;&gt;Node5</title>
<g id="a_edge4_Node000004_Node000005"><a xlink:title=" ">
<path fill="none" stroke="#63b8ff" d="M226.01,-180.43C240.64,-184.85 258.15,-190.14 274.89,-195.2"/>
<polygon fill="#63b8ff" stroke="#63b8ff" points="273.72,-198.5 284.3,-198.04 275.74,-191.8 273.72,-198.5"/>
</a>
</g>
</g>
<!-- Node7 -->
<g id="Node000007" class="node">
<title>Node7</title>
<g id="a_Node000007"><a xlink:href="namespacesvg.html#a8b2e7da5235688e0f753d35fc1079c87" target="_top" xlink:title="Draw path given serialized path data. Assumes pinstripe, ie top and bottom line layers....">
<polygon fill="white" stroke="#666666" points="376.12,-180 300.12,-180 300.12,-160 376.12,-160 376.12,-180"/>
<text text-anchor="middle" x="338.12" y="-168.4" font-family="SourceSans" font-size="8.00">svg::make_path</text>
</a>
</g>
</g>
<!-- Node4&#45;&gt;Node7 -->
<g id="edge6_Node000004_Node000007" class="edge">
<title>Node4&#45;&gt;Node7</title>
<g id="a_edge6_Node000004_Node000007"><a xlink:title=" ">
<path fill="none" stroke="#63b8ff" d="M246.14,-170C260.14,-170 275.09,-170 288.75,-170"/>
<polygon fill="#63b8ff" stroke="#63b8ff" points="288.35,-173.5 298.35,-170 288.35,-166.5 288.35,-173.5"/>
</a>
</g>
</g>
<!-- Node15 -->
<g id="Node000015" class="node">
<title>Node15</title>
<g id="a_Node000015"><a xlink:href="namespacesvg.html#a2c65de7707b8b7b1bca959a3a2bbba91" target="_top" xlink:title="Make single path segment.">
<polygon fill="white" stroke="#666666" points="386.62,-142 289.62,-142 289.62,-110 386.62,-110 386.62,-142"/>
<text text-anchor="start" x="297.62" y="-130.4" font-family="SourceSans" font-size="8.00">svg::make_path_data</text>
<text text-anchor="middle" x="338.12" y="-118.4" font-family="SourceSans" font-size="8.00">_from_points</text>
</a>
</g>
</g>
<!-- Node4&#45;&gt;Node15 -->
<g id="edge15_Node000004_Node000015" class="edge">
<title>Node4&#45;&gt;Node15</title>
<g id="a_edge15_Node000004_Node000015"><a xlink:title=" ">
<path fill="none" stroke="#63b8ff" d="M226.01,-159.57C241.68,-154.84 260.66,-149.1 278.47,-143.72"/>
<polygon fill="#63b8ff" stroke="#63b8ff" points="279.36,-147.11 287.92,-140.87 277.33,-140.41 279.36,-147.11"/>
</a>
</g>
</g>
<!-- Node17 -->
<g id="Node000017" class="node">
<title>Node17</title>
<g id="a_Node000017"><a xlink:href="namespacesvg.html#a46164d75fd5109e4ed8879abbacd5c11" target="_top" xlink:title="Zero degrees is top, going clockwise (cw).">
<polygon fill="white" stroke="#666666" points="394.5,-92 281.75,-92 281.75,-72 394.5,-72 394.5,-92"/>
<text text-anchor="middle" x="338.12" y="-80.4" font-family="SourceSans" font-size="8.00">svg::zero_angle_north_cw</text>
</a>
</g>
</g>
<!-- Node4&#45;&gt;Node17 -->
<g id="edge17_Node000004_Node000017" class="edge">
<title>Node4&#45;&gt;Node17</title>
<g id="a_edge17_Node000004_Node000017"><a xlink:title=" ">
<path fill="none" stroke="#63b8ff" d="M202.64,-159.55C218.9,-144.76 250.63,-117.67 281.75,-101 284.61,-99.47 287.61,-98.03 290.68,-96.67"/>
<polygon fill="#63b8ff" stroke="#63b8ff" points="291.88,-99.96 299.85,-92.98 289.27,-93.47 291.88,-99.96"/>
</a>
</g>
</g>
<!-- Node6 -->
<g id="Node000006" class="node">
<title>Node6</title>
<g id="a_Node000006"><a xlink:href="namespacesvg.html#aef05ac63d88a6102981d3faf37275297" target="_top" xlink:title="Angle in radians.">
<polygon fill="white" stroke="#666666" points="534.25,-358 430.5,-358 430.5,-326 534.25,-326 534.25,-358"/>
<text text-anchor="start" x="438.5" y="-346.4" font-family="SourceSans" font-size="8.00">svg::get_circumference</text>
<text text-anchor="middle" x="482.38" y="-334.4" font-family="SourceSans" font-size="8.00">_point_r</text>
</a>
</g>
</g>
<!-- Node5&#45;&gt;Node6 -->
<g id="edge5_Node000005_Node000006" class="edge">
<title>Node5&#45;&gt;Node6</title>
<g id="a_edge5_Node000005_Node000006"><a xlink:title=" ">
<path fill="none" stroke="#63b8ff" d="M383.65,-230.49C387.58,-232.98 391.28,-235.81 394.5,-239 421.61,-265.89 403.83,-289.68 430.5,-317 430.98,-317.5 431.48,-317.98 431.98,-318.46"/>
<polygon fill="#63b8ff" stroke="#63b8ff" points="429.75,-321.15 439.78,-324.57 434.07,-315.65 429.75,-321.15"/>
</a>
</g>
</g>
<!-- Node8 -->
<g id="Node000008" class="node">
<title>Node8</title>
<g id="a_Node000008"><a xlink:href="group__elements.html#a807f3c30f2ace338ad10aaf230b47665" target="_top" xlink:title="Either serialize immediately (as below), or create data structure that adds data to data_vec and then...">
<polygon fill="white" stroke="#666666" points="527.88,-308 436.88,-308 436.88,-276 527.88,-276 527.88,-308"/>
<text text-anchor="start" x="444.88" y="-296.4" font-family="SourceSans" font-size="8.00">svg::path_element::</text>
<text text-anchor="middle" x="482.38" y="-284.4" font-family="SourceSans" font-size="8.00">add_data</text>
</a>
</g>
</g>
<!-- Node7&#45;&gt;Node8 -->
<g id="edge7_Node000007_Node000008" class="edge">
<title>Node7&#45;&gt;Node8</title>
<g id="a_edge7_Node000007_Node000008"><a xlink:title=" ">
<path fill="none" stroke="#63b8ff" d="M376.56,-178.2C383.06,-180.86 389.37,-184.37 394.5,-189 422.84,-214.59 403.83,-239.68 430.5,-267 430.98,-267.5 431.48,-267.98 431.98,-268.46"/>
<polygon fill="#63b8ff" stroke="#63b8ff" points="429.75,-271.15 439.78,-274.57 434.07,-265.65 429.75,-271.15"/>
</a>
</g>
</g>
<!-- Node10 -->
<g id="Node000010" class="node">
<title>Node10</title>
<g id="a_Node000010"><a xlink:href="group__elements.html#acafbdd950c6c2639c9d376c3eab696e5" target="_top" xlink:title=" ">
<polygon fill="white" stroke="#666666" points="527.88,-258 436.88,-258 436.88,-226 527.88,-226 527.88,-258"/>
<text text-anchor="start" x="444.88" y="-246.4" font-family="SourceSans" font-size="8.00">svg::element_base::</text>
<text text-anchor="middle" x="482.38" y="-234.4" font-family="SourceSans" font-size="8.00">add_raw</text>
</a>
</g>
</g>
<!-- Node7&#45;&gt;Node10 -->
<g id="edge9_Node000007_Node000010" class="edge">
<title>Node7&#45;&gt;Node10</title>
<g id="a_edge9_Node000007_Node000010"><a xlink:title=" ">
<path fill="none" stroke="#63b8ff" d="M375.31,-180.48C381.86,-182.92 388.51,-185.76 394.5,-189 412.33,-198.64 413.31,-206.25 430.5,-217 432.13,-218.02 433.82,-219.03 435.53,-220.03"/>
<polygon fill="#63b8ff" stroke="#63b8ff" points="433.79,-223.07 444.24,-224.83 437.17,-216.94 433.79,-223.07"/>
</a>
</g>
</g>
<!-- Node11 -->
<g id="Node000011" class="node">
<title>Node11</title>
<g id="a_Node000011"><a xlink:href="group__elements.html#a238b38ca99a1cf6c2baf80c8e4338d99" target="_top" xlink:title=" ">
<polygon fill="white" stroke="#666666" points="527.88,-208 436.88,-208 436.88,-176 527.88,-176 527.88,-208"/>
<text text-anchor="start" x="444.88" y="-196.4" font-family="SourceSans" font-size="8.00">svg::element_base::</text>
<text text-anchor="middle" x="482.38" y="-184.4" font-family="SourceSans" font-size="8.00">add_style</text>
</a>
</g>
</g>
<!-- Node7&#45;&gt;Node11 -->
<g id="edge10_Node000007_Node000011" class="edge">
<title>Node7&#45;&gt;Node11</title>
<g id="a_edge10_Node000007_Node000011"><a xlink:title=" ">
<path fill="none" stroke="#63b8ff" d="M376.5,-175.78C391.41,-178.09 408.91,-180.79 425.28,-183.33"/>
<polygon fill="#63b8ff" stroke="#63b8ff" points="424.49,-186.74 434.9,-184.81 425.56,-179.83 424.49,-186.74"/>
</a>
</g>
</g>
<!-- Node12 -->
<g id="Node000012" class="node">
<title>Node12</title>
<g id="a_Node000012"><a xlink:href="namespacesvg.html#a36b1c48ad4601b205790e3772ad0a7b6" target="_top" xlink:title=" ">
<polygon fill="white" stroke="#666666" points="647.38,-180 580.38,-180 580.38,-160 647.38,-160 647.38,-180"/>
<text text-anchor="middle" x="613.88" y="-168.4" font-family="SourceSans" font-size="8.00">svg::to_string</text>
</a>
</g>
</g>
<!-- Node7&#45;&gt;Node12 -->
<g id="edge14_Node000007_Node000012" class="edge">
<title>Node7&#45;&gt;Node12</title>
<g id="a_edge14_Node000007_Node000012"><a xlink:title=" ">
<path fill="none" stroke="#63b8ff" d="M376.46,-168.5C393.01,-167.9 412.73,-167.29 430.5,-167 476.6,-166.24 488.15,-166.12 534.25,-167 545.4,-167.21 557.43,-167.59 568.66,-168.02"/>
<polygon fill="#63b8ff" stroke="#63b8ff" points="568.34,-171.51 578.47,-168.41 568.62,-164.51 568.34,-171.51"/>
</a>
</g>
</g>
<!-- Node13 -->
<g id="Node000013" class="node">
<title>Node13</title>
<g id="a_Node000013"><a xlink:href="group__elements.html#gaac30ae99fb1a2542688fa1ffb43cd8e1" target="_top" xlink:title=" ">
<polygon fill="white" stroke="#666666" points="527.88,-120 436.88,-120 436.88,-88 527.88,-88 527.88,-120"/>
<text text-anchor="start" x="444.88" y="-108.4" font-family="SourceSans" font-size="8.00">svg::path_element::</text>
<text text-anchor="middle" x="482.38" y="-96.4" font-family="SourceSans" font-size="8.00">finish_element</text>
</a>
</g>
</g>
<!-- Node7&#45;&gt;Node13 -->
<g id="edge12_Node000007_Node000013" class="edge">
<title>Node7&#45;&gt;Node13</title>
<g id="a_edge12_Node000007_Node000013"><a xlink:title=" ">
<path fill="none" stroke="#63b8ff" d="M372.56,-159.53C379.88,-156.96 387.52,-154.06 394.5,-151 411.09,-143.73 428.78,-134.45 443.83,-126.07"/>
<polygon fill="#63b8ff" stroke="#63b8ff" points="445.49,-129.15 452.48,-121.19 442.05,-123.06 445.49,-129.15"/>
</a>
</g>
</g>
<!-- Node14 -->
<g id="Node000014" class="node">
<title>Node14</title>
<g id="a_Node000014"><a xlink:href="group__elements.html#a6dbca7cef2cbc0c10aa44c44ae20b36e" target="_top" xlink:title=" ">
<polygon fill="white" stroke="#666666" points="527.88,-70 436.88,-70 436.88,-38 527.88,-38 527.88,-70"/>
<text text-anchor="start" x="444.88" y="-58.4" font-family="SourceSans" font-size="8.00">svg::path_element::</text>
<text text-anchor="middle" x="482.38" y="-46.4" font-family="SourceSans" font-size="8.00">start_element</text>
</a>
</g>
</g>
<!-- Node7&#45;&gt;Node14 -->
<g id="edge13_Node000007_Node000014" class="edge">
<title>Node7&#45;&gt;Node14</title>
<g id="a_edge13_Node000007_Node000014"><a xlink:title=" ">
<path fill="none" stroke="#63b8ff" d="M376.44,-161.67C382.95,-159.03 389.3,-155.55 394.5,-151 421.42,-127.44 405.11,-104.21 430.5,-79 431.1,-78.4 431.72,-77.82 432.36,-77.24"/>
<polygon fill="#63b8ff" stroke="#63b8ff" points="434.27,-80.18 440.12,-71.34 430.04,-74.61 434.27,-80.18"/>
</a>
</g>
</g>
<!-- Node9 -->
<g id="Node000009" class="node">
<title>Node9</title>
<g id="a_Node000009"><a xlink:href="namespacesvg.html#a48ac748e89e22789d1772326a98dd7b6" target="_top" xlink:title=" ">
<polygon fill="white" stroke="#666666" points="657.5,-302 570.25,-302 570.25,-282 657.5,-282 657.5,-302"/>
<text text-anchor="middle" x="613.88" y="-290.4" font-family="SourceSans" font-size="8.00">svg::string_replace</text>
</a>
</g>
</g>
<!-- Node8&#45;&gt;Node9 -->
<g id="edge8_Node000008_Node000009" class="edge">
<title>Node8&#45;&gt;Node9</title>
<g id="a_edge8_Node000008_Node000009"><a xlink:title=" ">
<path fill="none" stroke="#63b8ff" d="M528.3,-292C537.97,-292 548.28,-292 558.26,-292"/>
<polygon fill="#63b8ff" stroke="#63b8ff" points="558.26,-295.5 568.26,-292 558.26,-288.5 558.26,-295.5"/>
</a>
</g>
</g>
<!-- Node11&#45;&gt;Node12 -->
<g id="edge11_Node000011_Node000012" class="edge">
<title>Node11&#45;&gt;Node12</title>
<g id="a_edge11_Node000011_Node000012"><a xlink:title=" ">
<path fill="none" stroke="#63b8ff" d="M528.3,-184.37C541.53,-182.12 555.97,-179.67 569.11,-177.43"/>
<polygon fill="#63b8ff" stroke="#63b8ff" points="569.51,-180.92 578.78,-175.79 568.33,-174.02 569.51,-180.92"/>
</a>
</g>
</g>
<!-- Node16 -->
<g id="Node000016" class="node">
<title>Node16</title>
<g id="a_Node000016"><a xlink:href="namespacesvg_1_1constants.html#ac460bc8db60d85c3ae1cf8b1a903405e" target="_top" xlink:title="Formatting character constants.">
<polygon fill="white" stroke="#666666" points="530.5,-20 434.25,-20 434.25,0 530.5,0 530.5,-20"/>
<text text-anchor="middle" x="482.38" y="-8.4" font-family="SourceSans" font-size="8.00">svg::constants::space</text>
</a>
</g>
</g>
<!-- Node15&#45;&gt;Node16 -->
<g id="edge16_Node000015_Node000016" class="edge">
<title>Node15&#45;&gt;Node16</title>
<g id="a_edge16_Node000015_Node000016"><a xlink:title=" ">
<path fill="none" stroke="#63b8ff" d="M383.27,-109.58C387.32,-107.07 391.15,-104.22 394.5,-101 420.29,-76.21 403.89,-52.92 430.5,-29 431.56,-28.04 432.68,-27.13 433.84,-26.27"/>
<polygon fill="#63b8ff" stroke="#63b8ff" points="435.38,-29.43 442.11,-21.25 431.75,-23.44 435.38,-29.43"/>
</a>
</g>
</g>
</g>
</svg>

<g id="navigator" transform="translate(0 0)" fill="#404254">
  <rect fill="#f2f5e9" fill-opacity="0.5" stroke="#606060" stroke-width=".5" x="0" y="0" width="60" height="60"/>
  <use id="zoomplus" xlink:href="#zoomPlus" x="17" y="9" onmousedown="handleZoom(evt,'in')"/>
  <use id="zoomminus" xlink:href="#zoomMin" x="42" y="9" onmousedown="handleZoom(evt,'out')"/>
  <use id="reset" xlink:href="#resetDef" x="30" y="36" onmousedown="handleReset()"/>
   <use id="arrowup" xlink:href="#arrowUp" x="0" y="0" onmousedown="handlePan(0,-1)"/>
  <use id="arrowright" xlink:href="#arrowRight" x="0" y="0" onmousedown="handlePan(1,0)"/>
  <use id="arrowdown" xlink:href="#arrowDown" x="0" y="0" onmousedown="handlePan(0,1)"/>
  <use id="arrowleft" xlink:href="#arrowLeft" x="0" y="0" onmousedown="handlePan(-1,0)"/>
</g>
<svg viewBox="0 0 15 15" width="100%" height="30px" preserveAspectRatio="xMaxYMin meet">
 <g id="arrow_out" transform="scale(0.3 0.3)">
  <a xlink:href="namespacesvg_a4d8a39dd47638665e189d5546c2dc68c_cgraph_org.svg" target="_base">
   <rect id="button" ry="5" rx="5" y="6" x="6" height="38" width="38"
        fill="#f2f5e9" fill-opacity="0.5" stroke="#606060" stroke-width="1.0"/>
   <path id="arrow"
     d="M 11.500037,31.436501 C 11.940474,20.09759 22.043105,11.32322 32.158766,21.979434 L 37.068811,17.246167 C 37.068811,17.246167 37.088388,32 37.088388,32 L 22.160133,31.978069 C 22.160133,31.978069 26.997745,27.140456 26.997745,27.140456 C 18.528582,18.264221 13.291696,25.230495 11.500037,31.436501 z"
     style="fill:#404040;"/>
  </a>
 </g>
</svg>

<style type='text/css'>
<![CDATA[
[data-mouse-over-selected='false'] { opacity: 0.7; }
[data-mouse-over-selected='true']  { opacity: 1.0; }
]]>
</style>
<script type="application/ecmascript"><![CDATA[
document.addEventListener('DOMContentLoaded', (event) => {
  highlightEdges();
  highlightAdjacentNodes();
});
]]></script>
</svg>
