<?xml version="1.0" encoding="UTF-8" standalone="no"?>
<!DOCTYPE svg PUBLIC "-//W3C//DTD SVG 1.1//EN"
 "http://www.w3.org/Graphics/SVG/1.1/DTD/svg11.dtd">
<!-- Generated by graphviz version 13.1.2 (20250808.2320)
 -->
<!-- Title: svg::make_octahedron Pages: 1 -->
<svg width="502pt" height="240pt"
 viewBox="0.00 0.00 502.00 240.00" xmlns="http://www.w3.org/2000/svg" xmlns:xlink="http://www.w3.org/1999/xlink">
<g id="graph0" class="graph" transform="scale(1 1) rotate(0) translate(4 236)">
<title>svg::make_octahedron</title>
<!-- Node1 -->
<g id="Node000001" class="node">
<title>Node1</title>
<g id="a_Node000001"><a xlink:title="Make octahedron shape (8) in 2D simulated 3D @ret group element of polygon_elements.">
<polygon fill="#999999" stroke="#666666" points="101.5,-76 0,-76 0,-56 101.5,-56 101.5,-76"/>
<text xml:space="preserve" text-anchor="middle" x="50.75" y="-64.4" font-family="SourceSans" font-size="8.00">svg::make_octahedron</text>
</a>
</g>
</g>
<!-- Node2 -->
<g id="Node000002" class="node">
<title>Node2</title>
<g id="a_Node000002"><a xlink:href="group__elements.html#a7995b78d94e1c299065c9dd3569fef7c" target="_top" xlink:title=" ">
<polygon fill="white" stroke="#666666" points="228.88,-132 137.88,-132 137.88,-100 228.88,-100 228.88,-132"/>
<text xml:space="preserve" text-anchor="start" x="145.88" y="-120.4" font-family="SourceSans" font-size="8.00">svg::element_base::</text>
<text xml:space="preserve" text-anchor="middle" x="183.38" y="-108.4" font-family="SourceSans" font-size="8.00">add_title</text>
</a>
</g>
</g>
<!-- Node1&#45;&gt;Node2 -->
<g id="edge1_Node000001_Node000002" class="edge">
<title>Node1&#45;&gt;Node2</title>
<g id="a_edge1_Node000001_Node000002"><a xlink:title=" ">
<path fill="none" stroke="#63b8ff" d="M79.13,-76.48C93.57,-82.01 111.79,-88.98 128.89,-95.53"/>
<polygon fill="#63b8ff" stroke="#63b8ff" points="127.34,-98.68 137.93,-98.99 129.84,-92.14 127.34,-98.68"/>
</a>
</g>
</g>
<!-- Node7 -->
<g id="Node000007" class="node">
<title>Node7</title>
<g id="a_Node000007"><a xlink:href="group__elements.html#gaab139e518fe9d07003dbcc1fdfdad955" target="_top" xlink:title=" ">
<polygon fill="white" stroke="#666666" points="229.25,-82 137.5,-82 137.5,-50 229.25,-50 229.25,-82"/>
<text xml:space="preserve" text-anchor="start" x="145.5" y="-70.4" font-family="SourceSans" font-size="8.00">svg::group_element</text>
<text xml:space="preserve" text-anchor="middle" x="183.38" y="-58.4" font-family="SourceSans" font-size="8.00">::finish_element</text>
</a>
</g>
</g>
<!-- Node1&#45;&gt;Node7 -->
<g id="edge6_Node000001_Node000007" class="edge">
<title>Node1&#45;&gt;Node7</title>
<g id="a_edge6_Node000001_Node000007"><a xlink:title=" ">
<path fill="none" stroke="#63b8ff" d="M101.88,-66C109.71,-66 117.85,-66 125.81,-66"/>
<polygon fill="#63b8ff" stroke="#63b8ff" points="125.78,-69.5 135.78,-66 125.78,-62.5 125.78,-69.5"/>
</a>
</g>
</g>
<!-- Node9 -->
<g id="Node000009" class="node">
<title>Node9</title>
<g id="a_Node000009"><a xlink:href="group__elements.html#a5c8c4f93df6e84523f788aa7f98bcab8" target="_top" xlink:title="For groups of elements that have the same name.">
<polygon fill="white" stroke="#666666" points="229.25,-32 137.5,-32 137.5,0 229.25,0 229.25,-32"/>
<text xml:space="preserve" text-anchor="start" x="145.5" y="-20.4" font-family="SourceSans" font-size="8.00">svg::group_element</text>
<text xml:space="preserve" text-anchor="middle" x="183.38" y="-8.4" font-family="SourceSans" font-size="8.00">::start_element</text>
</a>
</g>
</g>
<!-- Node1&#45;&gt;Node9 -->
<g id="edge8_Node000001_Node000009" class="edge">
<title>Node1&#45;&gt;Node9</title>
<g id="a_edge8_Node000001_Node000009"><a xlink:title=" ">
<path fill="none" stroke="#63b8ff" d="M79.13,-55.52C93.57,-49.99 111.79,-43.02 128.89,-36.47"/>
<polygon fill="#63b8ff" stroke="#63b8ff" points="129.84,-39.86 137.93,-33.01 127.34,-33.32 129.84,-39.86"/>
</a>
</g>
</g>
<!-- Node3 -->
<g id="Node000003" class="node">
<title>Node3</title>
<g id="a_Node000003"><a xlink:href="group__elements.html#ada0333b46b2547c6152f3f5811016a12" target="_top" xlink:title=" ">
<polygon fill="white" stroke="#666666" points="356.62,-232 265.62,-232 265.62,-200 356.62,-200 356.62,-232"/>
<text xml:space="preserve" text-anchor="start" x="273.62" y="-220.4" font-family="SourceSans" font-size="8.00">svg::element_base::</text>
<text xml:space="preserve" text-anchor="middle" x="311.12" y="-208.4" font-family="SourceSans" font-size="8.00">add_element</text>
</a>
</g>
</g>
<!-- Node2&#45;&gt;Node3 -->
<g id="edge2_Node000002_Node000003" class="edge">
<title>Node2&#45;&gt;Node3</title>
<g id="a_edge2_Node000002_Node000003"><a xlink:title=" ">
<path fill="none" stroke="#63b8ff" d="M199.8,-132.44C215.38,-148.51 240.61,-173.11 265.25,-191 266.56,-191.95 267.91,-192.89 269.28,-193.82"/>
<polygon fill="#63b8ff" stroke="#63b8ff" points="267.02,-196.53 277.35,-198.91 270.76,-190.61 267.02,-196.53"/>
</a>
</g>
</g>
<!-- Node5 -->
<g id="Node000005" class="node">
<title>Node5</title>
<g id="a_Node000005"><a xlink:href="group__elements.html#ga3d62381f8edcccd3d91f82af55f11274" target="_top" xlink:title=" ">
<polygon fill="white" stroke="#666666" points="352.88,-182 269.38,-182 269.38,-150 352.88,-150 352.88,-182"/>
<text xml:space="preserve" text-anchor="start" x="277.38" y="-170.4" font-family="SourceSans" font-size="8.00">svg::title_element</text>
<text xml:space="preserve" text-anchor="middle" x="311.12" y="-158.4" font-family="SourceSans" font-size="8.00">::finish_element</text>
</a>
</g>
</g>
<!-- Node2&#45;&gt;Node5 -->
<g id="edge4_Node000002_Node000005" class="edge">
<title>Node2&#45;&gt;Node5</title>
<g id="a_edge4_Node000002_Node000005"><a xlink:title=" ">
<path fill="none" stroke="#63b8ff" d="M225.55,-132.37C236.19,-136.6 247.77,-141.21 258.86,-145.62"/>
<polygon fill="#63b8ff" stroke="#63b8ff" points="257.29,-148.76 267.88,-149.2 259.88,-142.26 257.29,-148.76"/>
</a>
</g>
</g>
<!-- Node6 -->
<g id="Node000006" class="node">
<title>Node6</title>
<g id="a_Node000006"><a xlink:href="group__elements.html#a41dcaa1132c502cb86c01aae1e7b9ff2" target="_top" xlink:title=" ">
<polygon fill="white" stroke="#666666" points="352.88,-132 269.38,-132 269.38,-100 352.88,-100 352.88,-132"/>
<text xml:space="preserve" text-anchor="start" x="277.38" y="-120.4" font-family="SourceSans" font-size="8.00">svg::title_element</text>
<text xml:space="preserve" text-anchor="middle" x="311.12" y="-108.4" font-family="SourceSans" font-size="8.00">::start_element</text>
</a>
</g>
</g>
<!-- Node2&#45;&gt;Node6 -->
<g id="edge5_Node000002_Node000006" class="edge">
<title>Node2&#45;&gt;Node6</title>
<g id="a_edge5_Node000002_Node000006"><a xlink:title=" ">
<path fill="none" stroke="#63b8ff" d="M229.06,-116C238.3,-116 248.11,-116 257.59,-116"/>
<polygon fill="#63b8ff" stroke="#63b8ff" points="257.43,-119.5 267.43,-116 257.43,-112.5 257.43,-119.5"/>
</a>
</g>
</g>
<!-- Node4 -->
<g id="Node000004" class="node">
<title>Node4</title>
<g id="a_Node000004"><a xlink:href="group__elements.html#ad893ef9c13a15464c96d8a85c08af30f" target="_top" xlink:title=" ">
<polygon fill="white" stroke="#666666" points="493.75,-226 393,-226 393,-206 493.75,-206 493.75,-226"/>
<text xml:space="preserve" text-anchor="middle" x="443.38" y="-214.4" font-family="SourceSans" font-size="8.00">svg::element_base::str</text>
</a>
</g>
</g>
<!-- Node3&#45;&gt;Node4 -->
<g id="edge3_Node000003_Node000004" class="edge">
<title>Node3&#45;&gt;Node4</title>
<g id="a_edge3_Node000003_Node000004"><a xlink:title=" ">
<path fill="none" stroke="#63b8ff" d="M356.95,-216C364.75,-216 372.99,-216 381.14,-216"/>
<polygon fill="#63b8ff" stroke="#63b8ff" points="381.04,-219.5 391.04,-216 381.04,-212.5 381.04,-219.5"/>
</a>
</g>
</g>
<!-- Node8 -->
<g id="Node000008" class="node">
<title>Node8</title>
<g id="a_Node000008"><a xlink:href="group__elements.html#a71cf2eb89a562527f14c4ca4c027c2b9" target="_top" xlink:title=" ">
<polygon fill="white" stroke="#666666" points="357,-82 265.25,-82 265.25,-50 357,-50 357,-82"/>
<text xml:space="preserve" text-anchor="start" x="273.25" y="-70.4" font-family="SourceSans" font-size="8.00">svg::group_element</text>
<text xml:space="preserve" text-anchor="middle" x="311.12" y="-58.4" font-family="SourceSans" font-size="8.00">::finish_group</text>
</a>
</g>
</g>
<!-- Node7&#45;&gt;Node8 -->
<g id="edge7_Node000007_Node000008" class="edge">
<title>Node7&#45;&gt;Node8</title>
<g id="a_edge7_Node000007_Node000008"><a xlink:title=" ">
<path fill="none" stroke="#63b8ff" d="M229.42,-66C237.27,-66 245.53,-66 253.65,-66"/>
<polygon fill="#63b8ff" stroke="#63b8ff" points="253.46,-69.5 263.46,-66 253.46,-62.5 253.46,-69.5"/>
</a>
</g>
</g>
<!-- Node10 -->
<g id="Node000010" class="node">
<title>Node10</title>
<g id="a_Node000010"><a xlink:href="group__elements.html#ab84e1bc08d2d2a71ab05521af65d7585" target="_top" xlink:title=" ">
<polygon fill="white" stroke="#666666" points="357,-32 265.25,-32 265.25,0 357,0 357,-32"/>
<text xml:space="preserve" text-anchor="start" x="273.25" y="-20.4" font-family="SourceSans" font-size="8.00">svg::group_element</text>
<text xml:space="preserve" text-anchor="middle" x="311.12" y="-8.4" font-family="SourceSans" font-size="8.00">::start_group</text>
</a>
</g>
</g>
<!-- Node9&#45;&gt;Node10 -->
<g id="edge9_Node000009_Node000010" class="edge">
<title>Node9&#45;&gt;Node10</title>
<g id="a_edge9_Node000009_Node000010"><a xlink:title=" ">
<path fill="none" stroke="#63b8ff" d="M229.42,-16C237.27,-16 245.53,-16 253.65,-16"/>
<polygon fill="#63b8ff" stroke="#63b8ff" points="253.46,-19.5 263.46,-16 253.46,-12.5 253.46,-19.5"/>
</a>
</g>
</g>
</g>
</svg>
