<?xml version="1.0" encoding="UTF-8" standalone="no"?>
<!DOCTYPE svg PUBLIC "-//W3C//DTD SVG 1.1//EN"
 "http://www.w3.org/Graphics/SVG/1.1/DTD/svg11.dtd">
<!-- Generated by graphviz version 13.1.2 (20250808.2320)
 -->
<!-- Title: svg::make_line_graph_markers Pages: 1 -->
<svg width="677pt" height="740pt"
 viewBox="0.00 0.00 677.00 740.00" xmlns="http://www.w3.org/2000/svg" xmlns:xlink="http://www.w3.org/1999/xlink">
<g id="graph0" class="graph" transform="scale(1 1) rotate(0) translate(4 736)">
<title>svg::make_line_graph_markers</title>
<!-- Node1 -->
<g id="Node000001" class="node">
<title>Node1</title>
<g id="a_Node000001"><a xlink:title="Return set of paths of marker shapes with text tooltips.">
<polygon fill="#999999" stroke="#666666" points="99.25,-276 0,-276 0,-244 99.25,-244 99.25,-276"/>
<text xml:space="preserve" text-anchor="start" x="8" y="-264.4" font-family="SourceSans" font-size="8.00">svg::make_line_graph</text>
<text xml:space="preserve" text-anchor="middle" x="49.62" y="-252.4" font-family="SourceSans" font-size="8.00">_markers</text>
</a>
</g>
</g>
<!-- Node2 -->
<g id="Node000002" class="node">
<title>Node2</title>
<g id="a_Node000002"><a xlink:href="group__elements.html#a519382631540ecedee961bfb53e9ae87" target="_top" xlink:title=" ">
<polygon fill="white" stroke="#666666" points="234.12,-688 146.12,-688 146.12,-656 234.12,-656 234.12,-688"/>
<text xml:space="preserve" text-anchor="start" x="154.12" y="-676.4" font-family="SourceSans" font-size="8.00">svg::circle_element</text>
<text xml:space="preserve" text-anchor="middle" x="190.12" y="-664.4" font-family="SourceSans" font-size="8.00">::add_data</text>
</a>
</g>
</g>
<!-- Node1&#45;&gt;Node2 -->
<g id="edge1_Node000001_Node000002" class="edge">
<title>Node1&#45;&gt;Node2</title>
<g id="a_edge1_Node000001_Node000002"><a xlink:title=" ">
<path fill="none" stroke="#63b8ff" d="M51.58,-276.2C55.25,-328.29 71.57,-495.07 135.25,-614 141.87,-626.37 151.78,-638.1 161.3,-647.73"/>
<polygon fill="#63b8ff" stroke="#63b8ff" points="158.76,-650.14 168.39,-654.56 163.62,-645.1 158.76,-650.14"/>
</a>
</g>
</g>
<!-- Node6 -->
<g id="Node000006" class="node">
<title>Node6</title>
<g id="a_Node000006"><a xlink:href="group__elements.html#a1dd6663d882fb5dd14a47462a77f351b" target="_top" xlink:title="Either serialize immediately (as below), or create data structure that adds data to data_vec and then...">
<polygon fill="white" stroke="#666666" points="233.75,-605 146.5,-605 146.5,-573 233.75,-573 233.75,-605"/>
<text xml:space="preserve" text-anchor="start" x="154.5" y="-593.4" font-family="SourceSans" font-size="8.00">svg::rect_element::</text>
<text xml:space="preserve" text-anchor="middle" x="190.12" y="-581.4" font-family="SourceSans" font-size="8.00">add_data</text>
</a>
</g>
</g>
<!-- Node1&#45;&gt;Node6 -->
<g id="edge5_Node000001_Node000006" class="edge">
<title>Node1&#45;&gt;Node6</title>
<g id="a_edge5_Node000001_Node000006"><a xlink:title=" ">
<path fill="none" stroke="#63b8ff" d="M52.32,-276.27C57.69,-321.7 77.52,-452.42 135.25,-542 140.88,-550.73 148.59,-558.78 156.42,-565.66"/>
<polygon fill="#63b8ff" stroke="#63b8ff" points="153.76,-568 163.69,-571.67 158.22,-562.61 153.76,-568"/>
</a>
</g>
</g>
<!-- Node7 -->
<g id="Node000007" class="node">
<title>Node7</title>
<g id="a_Node000007"><a xlink:href="group__elements.html#acafbdd950c6c2639c9d376c3eab696e5" target="_top" xlink:title=" ">
<polygon fill="white" stroke="#666666" points="533.12,-606 442.12,-606 442.12,-574 533.12,-574 533.12,-606"/>
<text xml:space="preserve" text-anchor="start" x="450.12" y="-594.4" font-family="SourceSans" font-size="8.00">svg::element_base::</text>
<text xml:space="preserve" text-anchor="middle" x="487.62" y="-582.4" font-family="SourceSans" font-size="8.00">add_raw</text>
</a>
</g>
</g>
<!-- Node1&#45;&gt;Node7 -->
<g id="edge7_Node000001_Node000007" class="edge">
<title>Node1&#45;&gt;Node7</title>
<g id="a_edge7_Node000001_Node000007"><a xlink:title=" ">
<path fill="none" stroke="#63b8ff" d="M57.13,-276.26C69.14,-304.69 97.06,-364.09 135.25,-403 220.83,-490.2 355.8,-546.15 431.12,-572.42"/>
<polygon fill="#63b8ff" stroke="#63b8ff" points="429.76,-575.65 440.35,-575.59 432.03,-569.03 429.76,-575.65"/>
</a>
</g>
</g>
<!-- Node8 -->
<g id="Node000008" class="node">
<title>Node8</title>
<g id="a_Node000008"><a xlink:href="group__elements.html#a238b38ca99a1cf6c2baf80c8e4338d99" target="_top" xlink:title=" ">
<polygon fill="white" stroke="#666666" points="533.12,-368 442.12,-368 442.12,-336 533.12,-336 533.12,-368"/>
<text xml:space="preserve" text-anchor="start" x="450.12" y="-356.4" font-family="SourceSans" font-size="8.00">svg::element_base::</text>
<text xml:space="preserve" text-anchor="middle" x="487.62" y="-344.4" font-family="SourceSans" font-size="8.00">add_style</text>
</a>
</g>
</g>
<!-- Node1&#45;&gt;Node8 -->
<g id="edge8_Node000001_Node000008" class="edge">
<title>Node1&#45;&gt;Node8</title>
<g id="a_edge8_Node000001_Node000008"><a xlink:title=" ">
<path fill="none" stroke="#63b8ff" d="M59.37,-276.18C72.75,-299.47 100.46,-342.37 135.25,-367 191.14,-406.57 213.45,-405.74 281,-417 330.43,-425.24 347.97,-437.39 393.75,-417 415.6,-407.27 410.37,-391.01 429.75,-377 431.12,-376.01 432.53,-375.05 433.97,-374.12"/>
<polygon fill="#63b8ff" stroke="#63b8ff" points="435.69,-377.17 442.59,-369.13 432.18,-371.11 435.69,-377.17"/>
</a>
</g>
</g>
<!-- Node10 -->
<g id="Node000010" class="node">
<title>Node10</title>
<g id="a_Node000010"><a xlink:href="group__elements.html#a7995b78d94e1c299065c9dd3569fef7c" target="_top" xlink:title=" ">
<polygon fill="white" stroke="#666666" points="235.62,-232 144.62,-232 144.62,-200 235.62,-200 235.62,-232"/>
<text xml:space="preserve" text-anchor="start" x="152.62" y="-220.4" font-family="SourceSans" font-size="8.00">svg::element_base::</text>
<text xml:space="preserve" text-anchor="middle" x="190.12" y="-208.4" font-family="SourceSans" font-size="8.00">add_title</text>
</a>
</g>
</g>
<!-- Node1&#45;&gt;Node10 -->
<g id="edge10_Node000001_Node000010" class="edge">
<title>Node1&#45;&gt;Node10</title>
<g id="a_edge10_Node000001_Node000010"><a xlink:title=" ">
<path fill="none" stroke="#63b8ff" d="M99.45,-244.49C110.55,-240.96 122.41,-237.19 133.76,-233.59"/>
<polygon fill="#63b8ff" stroke="#63b8ff" points="134.52,-237.02 142.99,-230.66 132.4,-230.35 134.52,-237.02"/>
</a>
</g>
</g>
<!-- Node12 -->
<g id="Node000012" class="node">
<title>Node12</title>
<g id="a_Node000012"><a xlink:href="group__elements.html#ad893ef9c13a15464c96d8a85c08af30f" target="_top" xlink:title=" ">
<polygon fill="white" stroke="#666666" points="538,-189 437.25,-189 437.25,-169 538,-169 538,-189"/>
<text xml:space="preserve" text-anchor="middle" x="487.62" y="-177.4" font-family="SourceSans" font-size="8.00">svg::element_base::str</text>
</a>
</g>
</g>
<!-- Node1&#45;&gt;Node12 -->
<g id="edge32_Node000001_Node000012" class="edge">
<title>Node1&#45;&gt;Node12</title>
<g id="a_edge32_Node000001_Node000012"><a xlink:title=" ">
<path fill="none" stroke="#63b8ff" d="M99.58,-265.21C167.54,-270.7 293.43,-274.46 393.75,-241 421.78,-231.65 449.36,-211.45 467.09,-196.64"/>
<polygon fill="#63b8ff" stroke="#63b8ff" points="468.97,-199.64 474.26,-190.46 464.4,-194.34 468.97,-199.64"/>
</a>
</g>
</g>
<!-- Node15 -->
<g id="Node000015" class="node">
<title>Node15</title>
<g id="a_Node000015"><a xlink:href="structsvg_1_1render__state__base.html#aa16790fbf40ef61f416151c89c267ef3" target="_top" xlink:title=" ">
<polygon fill="white" stroke="#666666" points="241.62,-182 138.62,-182 138.62,-150 241.62,-150 241.62,-182"/>
<text xml:space="preserve" text-anchor="start" x="146.62" y="-170.4" font-family="SourceSans" font-size="8.00">svg::render_state_base</text>
<text xml:space="preserve" text-anchor="middle" x="190.12" y="-158.4" font-family="SourceSans" font-size="8.00">::is_visible</text>
</a>
</g>
</g>
<!-- Node1&#45;&gt;Node15 -->
<g id="edge15_Node000001_Node000015" class="edge">
<title>Node1&#45;&gt;Node15</title>
<g id="a_edge15_Node000001_Node000015"><a xlink:title=" ">
<path fill="none" stroke="#63b8ff" d="M68.12,-243.53C84.57,-228.6 110.34,-206.59 135.25,-191 137.05,-189.87 138.91,-188.76 140.81,-187.68"/>
<polygon fill="#63b8ff" stroke="#63b8ff" points="142.04,-190.99 149.2,-183.18 138.73,-184.82 142.04,-190.99"/>
</a>
</g>
</g>
<!-- Node16 -->
<g id="Node000016" class="node">
<title>Node16</title>
<g id="a_Node000016"><a xlink:href="namespacesvg.html#a6745faec7f5b60dcb4fc12cbdbf56bd7" target="_top" xlink:title="Center a triangle at this point.">
<polygon fill="white" stroke="#666666" points="245,-358 135.25,-358 135.25,-338 245,-338 245,-358"/>
<text xml:space="preserve" text-anchor="middle" x="190.12" y="-346.4" font-family="SourceSans" font-size="8.00">svg::make_path_triangle</text>
</a>
</g>
</g>
<!-- Node1&#45;&gt;Node16 -->
<g id="edge16_Node000001_Node000016" class="edge">
<title>Node1&#45;&gt;Node16</title>
<g id="a_edge16_Node000001_Node000016"><a xlink:title=" ">
<path fill="none" stroke="#63b8ff" d="M76.35,-276.35C101.1,-292.07 138.33,-315.73 163.16,-331.5"/>
<polygon fill="#63b8ff" stroke="#63b8ff" points="161.06,-334.31 171.38,-336.72 164.81,-328.41 161.06,-334.31"/>
</a>
</g>
</g>
<!-- Node26 -->
<g id="Node000026" class="node">
<title>Node26</title>
<g id="a_Node000026"><a xlink:href="group__elements.html#a793cb6b40b2aea335b11f14fd327cde8" target="_top" xlink:title=" ">
<polygon fill="white" stroke="#666666" points="234.12,-132 146.12,-132 146.12,-100 234.12,-100 234.12,-132"/>
<text xml:space="preserve" text-anchor="start" x="154.12" y="-120.4" font-family="SourceSans" font-size="8.00">svg::circle_element</text>
<text xml:space="preserve" text-anchor="middle" x="190.12" y="-108.4" font-family="SourceSans" font-size="8.00">::start_element</text>
</a>
</g>
</g>
<!-- Node1&#45;&gt;Node26 -->
<g id="edge30_Node000001_Node000026" class="edge">
<title>Node1&#45;&gt;Node26</title>
<g id="a_edge30_Node000001_Node000026"><a xlink:title=" ">
<path fill="none" stroke="#63b8ff" d="M58.64,-243.72C71.66,-218.72 99.58,-170.66 135.25,-141 136.2,-140.21 137.18,-139.44 138.19,-138.68"/>
<polygon fill="#63b8ff" stroke="#63b8ff" points="140.04,-141.66 146.49,-133.25 136.21,-135.8 140.04,-141.66"/>
</a>
</g>
</g>
<!-- Node27 -->
<g id="Node000027" class="node">
<title>Node27</title>
<g id="a_Node000027"><a xlink:href="group__elements.html#a1e0ed5e9dfe1244317a87d7e6774348b" target="_top" xlink:title=" ">
<polygon fill="white" stroke="#666666" points="233.75,-82 146.5,-82 146.5,-50 233.75,-50 233.75,-82"/>
<text xml:space="preserve" text-anchor="start" x="154.5" y="-70.4" font-family="SourceSans" font-size="8.00">svg::rect_element::</text>
<text xml:space="preserve" text-anchor="middle" x="190.12" y="-58.4" font-family="SourceSans" font-size="8.00">start_element</text>
</a>
</g>
</g>
<!-- Node1&#45;&gt;Node27 -->
<g id="edge31_Node000001_Node000027" class="edge">
<title>Node1&#45;&gt;Node27</title>
<g id="a_edge31_Node000001_Node000027"><a xlink:title=" ">
<path fill="none" stroke="#63b8ff" d="M54.86,-243.63C64.14,-210.68 89.22,-135.68 135.25,-91 135.98,-90.29 136.73,-89.6 137.5,-88.93"/>
<polygon fill="#63b8ff" stroke="#63b8ff" points="139.23,-92 145.22,-83.26 135.09,-86.36 139.23,-92"/>
</a>
</g>
</g>
<!-- Node28 -->
<g id="Node000028" class="node">
<title>Node28</title>
<g id="a_Node000028"><a xlink:href="group__elements.html#a92c95d94938e6df247213ead1f06ec10" target="_top" xlink:title=" ">
<polygon fill="white" stroke="#666666" points="234.88,-32 145.38,-32 145.38,0 234.88,0 234.88,-32"/>
<text xml:space="preserve" text-anchor="start" x="153.38" y="-20.4" font-family="SourceSans" font-size="8.00">svg::script_element</text>
<text xml:space="preserve" text-anchor="middle" x="190.12" y="-8.4" font-family="SourceSans" font-size="8.00">::tooltip_attribute</text>
</a>
</g>
</g>
<!-- Node1&#45;&gt;Node28 -->
<g id="edge33_Node000001_Node000028" class="edge">
<title>Node1&#45;&gt;Node28</title>
<g id="a_edge33_Node000001_Node000028"><a xlink:title=" ">
<path fill="none" stroke="#63b8ff" d="M52.69,-243.79C58.52,-204.22 78.56,-101.55 135.25,-41 135.72,-40.49 136.21,-40 136.71,-39.51"/>
<polygon fill="#63b8ff" stroke="#63b8ff" points="138.79,-42.33 144.41,-33.34 134.42,-36.86 138.79,-42.33"/>
</a>
</g>
</g>
<!-- Node3 -->
<g id="Node000003" class="node">
<title>Node3</title>
<g id="a_Node000003"><a xlink:href="group__elements.html#a53d72a7ff728ad1d4d027254530bcf3d" target="_top" xlink:title=" ">
<polygon fill="white" stroke="#666666" points="382.88,-732 291.88,-732 291.88,-700 382.88,-700 382.88,-732"/>
<text xml:space="preserve" text-anchor="start" x="299.88" y="-720.4" font-family="SourceSans" font-size="8.00">svg::element_base::</text>
<text xml:space="preserve" text-anchor="middle" x="337.38" y="-708.4" font-family="SourceSans" font-size="8.00">add_transform</text>
</a>
</g>
</g>
<!-- Node2&#45;&gt;Node3 -->
<g id="edge2_Node000002_Node000003" class="edge">
<title>Node2&#45;&gt;Node3</title>
<g id="a_edge2_Node000002_Node000003"><a xlink:title=" ">
<path fill="none" stroke="#63b8ff" d="M234.31,-685.08C248.85,-689.49 265.28,-694.46 280.64,-699.12"/>
<polygon fill="#63b8ff" stroke="#63b8ff" points="279.56,-702.45 290.14,-702 281.59,-695.75 279.56,-702.45"/>
</a>
</g>
</g>
<!-- Node5 -->
<g id="Node000005" class="node">
<title>Node5</title>
<g id="a_Node000005"><a xlink:href="namespacesvg.html#a48ac748e89e22789d1772326a98dd7b6" target="_top" xlink:title=" ">
<polygon fill="white" stroke="#666666" points="668.75,-644 581.5,-644 581.5,-624 668.75,-624 668.75,-644"/>
<text xml:space="preserve" text-anchor="middle" x="625.12" y="-632.4" font-family="SourceSans" font-size="8.00">svg::string_replace</text>
</a>
</g>
</g>
<!-- Node2&#45;&gt;Node5 -->
<g id="edge4_Node000002_Node000005" class="edge">
<title>Node2&#45;&gt;Node5</title>
<g id="a_edge4_Node000002_Node000005"><a xlink:title=" ">
<path fill="none" stroke="#63b8ff" d="M234.36,-670.59C301.26,-668.06 433.8,-661.69 545.5,-648 553.54,-647.01 562.01,-645.75 570.29,-644.38"/>
<polygon fill="#63b8ff" stroke="#63b8ff" points="570.65,-647.87 579.91,-642.73 569.47,-640.97 570.65,-647.87"/>
</a>
</g>
</g>
<!-- Node4 -->
<g id="Node000004" class="node">
<title>Node4</title>
<g id="a_Node000004"><a xlink:href="group__elements.html#ae50258851ebbaf08c7eebc3fbdbf1ac8" target="_top" xlink:title="Common transforms include rotate(180)">
<polygon fill="white" stroke="#666666" points="545.5,-732 429.75,-732 429.75,-700 545.5,-700 545.5,-732"/>
<text xml:space="preserve" text-anchor="start" x="437.75" y="-720.4" font-family="SourceSans" font-size="8.00">svg::element_base::</text>
<text xml:space="preserve" text-anchor="middle" x="487.62" y="-708.4" font-family="SourceSans" font-size="8.00">make_transform_attribute</text>
</a>
</g>
</g>
<!-- Node3&#45;&gt;Node4 -->
<g id="edge3_Node000003_Node000004" class="edge">
<title>Node3&#45;&gt;Node4</title>
<g id="a_edge3_Node000003_Node000004"><a xlink:title=" ">
<path fill="none" stroke="#63b8ff" d="M383.26,-716C394.24,-716 406.23,-716 418.04,-716"/>
<polygon fill="#63b8ff" stroke="#63b8ff" points="417.76,-719.5 427.76,-716 417.76,-712.5 417.76,-719.5"/>
</a>
</g>
</g>
<!-- Node6&#45;&gt;Node5 -->
<g id="edge6_Node000006_Node000005" class="edge">
<title>Node6&#45;&gt;Node5</title>
<g id="a_edge6_Node000006_Node000005"><a xlink:title=" ">
<path fill="none" stroke="#63b8ff" d="M234.22,-593.84C281.99,-599.17 361.35,-607.93 429.75,-615 477.07,-619.89 530.92,-625.13 569.91,-628.86"/>
<polygon fill="#63b8ff" stroke="#63b8ff" points="569.47,-632.34 579.75,-629.8 570.13,-625.37 569.47,-632.34"/>
</a>
</g>
</g>
<!-- Node9 -->
<g id="Node000009" class="node">
<title>Node9</title>
<g id="a_Node000009"><a xlink:href="namespacesvg.html#a36b1c48ad4601b205790e3772ad0a7b6" target="_top" xlink:title=" ">
<polygon fill="white" stroke="#666666" points="658.62,-434 591.62,-434 591.62,-414 658.62,-414 658.62,-434"/>
<text xml:space="preserve" text-anchor="middle" x="625.12" y="-422.4" font-family="SourceSans" font-size="8.00">svg::to_string</text>
</a>
</g>
</g>
<!-- Node8&#45;&gt;Node9 -->
<g id="edge9_Node000008_Node000009" class="edge">
<title>Node8&#45;&gt;Node9</title>
<g id="a_edge9_Node000008_Node000009"><a xlink:title=" ">
<path fill="none" stroke="#63b8ff" d="M527.78,-368.44C533.78,-371.18 539.85,-374.08 545.5,-377 563.64,-386.36 583.36,-398.15 598.51,-407.58"/>
<polygon fill="#63b8ff" stroke="#63b8ff" points="596.59,-410.51 606.92,-412.87 600.31,-404.58 596.59,-410.51"/>
</a>
</g>
</g>
<!-- Node11 -->
<g id="Node000011" class="node">
<title>Node11</title>
<g id="a_Node000011"><a xlink:href="group__elements.html#ada0333b46b2547c6152f3f5811016a12" target="_top" xlink:title=" ">
<polygon fill="white" stroke="#666666" points="382.88,-132 291.88,-132 291.88,-100 382.88,-100 382.88,-132"/>
<text xml:space="preserve" text-anchor="start" x="299.88" y="-120.4" font-family="SourceSans" font-size="8.00">svg::element_base::</text>
<text xml:space="preserve" text-anchor="middle" x="337.38" y="-108.4" font-family="SourceSans" font-size="8.00">add_element</text>
</a>
</g>
</g>
<!-- Node10&#45;&gt;Node11 -->
<g id="edge11_Node000010_Node000011" class="edge">
<title>Node10&#45;&gt;Node11</title>
<g id="a_edge11_Node000010_Node000011"><a xlink:title=" ">
<path fill="none" stroke="#63b8ff" d="M232.47,-199.55C236.91,-197 241.18,-194.15 245,-191 266.11,-173.56 259.8,-158.33 281,-141 282.1,-140.1 283.24,-139.22 284.41,-138.37"/>
<polygon fill="#63b8ff" stroke="#63b8ff" points="286.04,-141.48 292.6,-133.16 282.28,-135.58 286.04,-141.48"/>
</a>
</g>
</g>
<!-- Node13 -->
<g id="Node000013" class="node">
<title>Node13</title>
<g id="a_Node000013"><a xlink:href="group__elements.html#ga3d62381f8edcccd3d91f82af55f11274" target="_top" xlink:title=" ">
<polygon fill="white" stroke="#666666" points="379.12,-232 295.62,-232 295.62,-200 379.12,-200 379.12,-232"/>
<text xml:space="preserve" text-anchor="start" x="303.62" y="-220.4" font-family="SourceSans" font-size="8.00">svg::title_element</text>
<text xml:space="preserve" text-anchor="middle" x="337.38" y="-208.4" font-family="SourceSans" font-size="8.00">::finish_element</text>
</a>
</g>
</g>
<!-- Node10&#45;&gt;Node13 -->
<g id="edge13_Node000010_Node000013" class="edge">
<title>Node10&#45;&gt;Node13</title>
<g id="a_edge13_Node000010_Node000013"><a xlink:title=" ">
<path fill="none" stroke="#63b8ff" d="M235.89,-216C251.18,-216 268.42,-216 284.24,-216"/>
<polygon fill="#63b8ff" stroke="#63b8ff" points="283.95,-219.5 293.95,-216 283.95,-212.5 283.95,-219.5"/>
</a>
</g>
</g>
<!-- Node14 -->
<g id="Node000014" class="node">
<title>Node14</title>
<g id="a_Node000014"><a xlink:href="group__elements.html#a41dcaa1132c502cb86c01aae1e7b9ff2" target="_top" xlink:title=" ">
<polygon fill="white" stroke="#666666" points="379.12,-182 295.62,-182 295.62,-150 379.12,-150 379.12,-182"/>
<text xml:space="preserve" text-anchor="start" x="303.62" y="-170.4" font-family="SourceSans" font-size="8.00">svg::title_element</text>
<text xml:space="preserve" text-anchor="middle" x="337.38" y="-158.4" font-family="SourceSans" font-size="8.00">::start_element</text>
</a>
</g>
</g>
<!-- Node10&#45;&gt;Node14 -->
<g id="edge14_Node000010_Node000014" class="edge">
<title>Node10&#45;&gt;Node14</title>
<g id="a_edge14_Node000010_Node000014"><a xlink:title=" ">
<path fill="none" stroke="#63b8ff" d="M235.89,-200.59C251.33,-195.27 268.75,-189.28 284.7,-183.79"/>
<polygon fill="#63b8ff" stroke="#63b8ff" points="285.72,-187.14 294.03,-180.58 283.44,-180.52 285.72,-187.14"/>
</a>
</g>
</g>
<!-- Node11&#45;&gt;Node12 -->
<g id="edge12_Node000011_Node000012" class="edge">
<title>Node11&#45;&gt;Node12</title>
<g id="a_edge12_Node000011_Node000012"><a xlink:title=" ">
<path fill="none" stroke="#63b8ff" d="M376.94,-132.39C400.09,-142.23 429.31,-154.64 451.76,-164.18"/>
<polygon fill="#63b8ff" stroke="#63b8ff" points="450.22,-167.33 460.79,-168.02 452.96,-160.89 450.22,-167.33"/>
</a>
</g>
</g>
<!-- Node17 -->
<g id="Node000017" class="node">
<title>Node17</title>
<g id="a_Node000017"><a xlink:href="namespacesvg.html#ab44508c4aeca591141ebec50145b75cd" target="_top" xlink:title="Angle in degrees.">
<polygon fill="white" stroke="#666666" points="389.25,-320 285.5,-320 285.5,-288 389.25,-288 389.25,-320"/>
<text xml:space="preserve" text-anchor="start" x="293.5" y="-308.4" font-family="SourceSans" font-size="8.00">svg::get_circumference</text>
<text xml:space="preserve" text-anchor="middle" x="337.38" y="-296.4" font-family="SourceSans" font-size="8.00">_point_d</text>
</a>
</g>
</g>
<!-- Node16&#45;&gt;Node17 -->
<g id="edge17_Node000016_Node000017" class="edge">
<title>Node16&#45;&gt;Node17</title>
<g id="a_edge17_Node000016_Node000017"><a xlink:title=" ">
<path fill="none" stroke="#63b8ff" d="M225.55,-337.57C240.14,-333.15 257.6,-327.86 274.3,-322.8"/>
<polygon fill="#63b8ff" stroke="#63b8ff" points="275.13,-326.21 283.68,-319.96 273.1,-319.51 275.13,-326.21"/>
</a>
</g>
</g>
<!-- Node19 -->
<g id="Node000019" class="node">
<title>Node19</title>
<g id="a_Node000019"><a xlink:href="namespacesvg.html#a302d3f13fef13ef823b99cfabcfac3ab" target="_top" xlink:title="Draw path given serialized path data. Can be used to make pinstripes, ie top and bottom line layers....">
<polygon fill="white" stroke="#666666" points="375.38,-484 299.38,-484 299.38,-464 375.38,-464 375.38,-484"/>
<text xml:space="preserve" text-anchor="middle" x="337.38" y="-472.4" font-family="SourceSans" font-size="8.00">svg::make_path</text>
</a>
</g>
</g>
<!-- Node16&#45;&gt;Node19 -->
<g id="edge19_Node000016_Node000019" class="edge">
<title>Node16&#45;&gt;Node19</title>
<g id="a_edge19_Node000016_Node000019"><a xlink:title=" ">
<path fill="none" stroke="#63b8ff" d="M203.01,-358.31C227.69,-379.72 284.77,-429.24 315.65,-456.02"/>
<polygon fill="#63b8ff" stroke="#63b8ff" points="313.33,-458.65 323.18,-462.55 317.92,-453.36 313.33,-458.65"/>
</a>
</g>
</g>
<!-- Node23 -->
<g id="Node000023" class="node">
<title>Node23</title>
<g id="a_Node000023"><a xlink:href="namespacesvg.html#a2c65de7707b8b7b1bca959a3a2bbba91" target="_top" xlink:title="Make single path segment.">
<polygon fill="white" stroke="#666666" points="385.88,-408 288.88,-408 288.88,-376 385.88,-376 385.88,-408"/>
<text xml:space="preserve" text-anchor="start" x="296.88" y="-396.4" font-family="SourceSans" font-size="8.00">svg::make_path_data</text>
<text xml:space="preserve" text-anchor="middle" x="337.38" y="-384.4" font-family="SourceSans" font-size="8.00">_from_points</text>
</a>
</g>
</g>
<!-- Node16&#45;&gt;Node23 -->
<g id="edge27_Node000016_Node000023" class="edge">
<title>Node16&#45;&gt;Node23</title>
<g id="a_edge27_Node000016_Node000023"><a xlink:title=" ">
<path fill="none" stroke="#63b8ff" d="M225.55,-358.43C241.11,-363.14 259.94,-368.85 277.63,-374.21"/>
<polygon fill="#63b8ff" stroke="#63b8ff" points="276.43,-377.5 287.01,-377.05 278.46,-370.8 276.43,-377.5"/>
</a>
</g>
</g>
<!-- Node25 -->
<g id="Node000025" class="node">
<title>Node25</title>
<g id="a_Node000025"><a xlink:href="namespacesvg.html#a46164d75fd5109e4ed8879abbacd5c11" target="_top" xlink:title="Zero degrees is top, going clockwise (cw).">
<polygon fill="white" stroke="#666666" points="393.75,-358 281,-358 281,-338 393.75,-338 393.75,-358"/>
<text xml:space="preserve" text-anchor="middle" x="337.38" y="-346.4" font-family="SourceSans" font-size="8.00">svg::zero_angle_north_cw</text>
</a>
</g>
</g>
<!-- Node16&#45;&gt;Node25 -->
<g id="edge29_Node000016_Node000025" class="edge">
<title>Node16&#45;&gt;Node25</title>
<g id="a_edge29_Node000016_Node000025"><a xlink:title=" ">
<path fill="none" stroke="#63b8ff" d="M245.21,-348C253.11,-348 261.31,-348 269.43,-348"/>
<polygon fill="#63b8ff" stroke="#63b8ff" points="269.28,-351.5 279.28,-348 269.28,-344.5 269.28,-351.5"/>
</a>
</g>
</g>
<!-- Node18 -->
<g id="Node000018" class="node">
<title>Node18</title>
<g id="a_Node000018"><a xlink:href="namespacesvg.html#aef05ac63d88a6102981d3faf37275297" target="_top" xlink:title="Angle in radians.">
<polygon fill="white" stroke="#666666" points="539.5,-280 435.75,-280 435.75,-248 539.5,-248 539.5,-280"/>
<text xml:space="preserve" text-anchor="start" x="443.75" y="-268.4" font-family="SourceSans" font-size="8.00">svg::get_circumference</text>
<text xml:space="preserve" text-anchor="middle" x="487.62" y="-256.4" font-family="SourceSans" font-size="8.00">_point_r</text>
</a>
</g>
</g>
<!-- Node17&#45;&gt;Node18 -->
<g id="edge18_Node000017_Node000018" class="edge">
<title>Node17&#45;&gt;Node18</title>
<g id="a_edge18_Node000017_Node000018"><a xlink:title=" ">
<path fill="none" stroke="#63b8ff" d="M389.39,-290.23C400.63,-287.2 412.65,-283.96 424.27,-280.82"/>
<polygon fill="#63b8ff" stroke="#63b8ff" points="425.06,-284.24 433.8,-278.25 423.23,-277.48 425.06,-284.24"/>
</a>
</g>
</g>
<!-- Node19&#45;&gt;Node7 -->
<g id="edge22_Node000019_Node000007" class="edge">
<title>Node19&#45;&gt;Node7</title>
<g id="a_edge22_Node000019_Node000007"><a xlink:title=" ">
<path fill="none" stroke="#63b8ff" d="M355.74,-484.41C367.27,-491.81 382.32,-502.45 393.75,-514 413.26,-533.73 408.27,-547.44 429.75,-565 430.85,-565.9 432,-566.78 433.17,-567.63"/>
<polygon fill="#63b8ff" stroke="#63b8ff" points="431.05,-570.43 441.37,-572.82 434.79,-564.51 431.05,-570.43"/>
</a>
</g>
</g>
<!-- Node19&#45;&gt;Node8 -->
<g id="edge23_Node000019_Node000008" class="edge">
<title>Node19&#45;&gt;Node8</title>
<g id="a_edge23_Node000019_Node000008"><a xlink:title=" ">
<path fill="none" stroke="#63b8ff" d="M372.59,-463.63C380.19,-460.18 387.75,-455.71 393.75,-450 419.95,-425.06 403.61,-402.01 429.75,-377 430.65,-376.14 431.58,-375.31 432.54,-374.51"/>
<polygon fill="#63b8ff" stroke="#63b8ff" points="434.45,-377.44 440.6,-368.82 430.41,-371.72 434.45,-377.44"/>
</a>
</g>
</g>
<!-- Node19&#45;&gt;Node9 -->
<g id="edge26_Node000019_Node000009" class="edge">
<title>Node19&#45;&gt;Node9</title>
<g id="a_edge26_Node000019_Node000009"><a xlink:title=" ">
<path fill="none" stroke="#63b8ff" d="M375.62,-481.26C417.84,-487.97 488.24,-494.5 545.5,-477 568.19,-470.07 590.24,-454.15 605.19,-441.55"/>
<polygon fill="#63b8ff" stroke="#63b8ff" points="607.17,-444.47 612.39,-435.25 602.56,-439.21 607.17,-444.47"/>
</a>
</g>
</g>
<!-- Node20 -->
<g id="Node000020" class="node">
<title>Node20</title>
<g id="a_Node000020"><a xlink:href="group__elements.html#a807f3c30f2ace338ad10aaf230b47665" target="_top" xlink:title="Either serialize immediately (as below), or create data structure that adds data to data_vec and then...">
<polygon fill="white" stroke="#666666" points="533.12,-556 442.12,-556 442.12,-524 533.12,-524 533.12,-556"/>
<text xml:space="preserve" text-anchor="start" x="450.12" y="-544.4" font-family="SourceSans" font-size="8.00">svg::path_element::</text>
<text xml:space="preserve" text-anchor="middle" x="487.62" y="-532.4" font-family="SourceSans" font-size="8.00">add_data</text>
</a>
</g>
</g>
<!-- Node19&#45;&gt;Node20 -->
<g id="edge20_Node000019_Node000020" class="edge">
<title>Node19&#45;&gt;Node20</title>
<g id="a_edge20_Node000019_Node000020"><a xlink:title=" ">
<path fill="none" stroke="#63b8ff" d="M361.87,-484.46C382.6,-493.69 413.47,-507.43 439.31,-518.94"/>
<polygon fill="#63b8ff" stroke="#63b8ff" points="437.73,-522.06 448.29,-522.93 440.57,-515.67 437.73,-522.06"/>
</a>
</g>
</g>
<!-- Node21 -->
<g id="Node000021" class="node">
<title>Node21</title>
<g id="a_Node000021"><a xlink:href="group__elements.html#gaac30ae99fb1a2542688fa1ffb43cd8e1" target="_top" xlink:title=" ">
<polygon fill="white" stroke="#666666" points="533.12,-468 442.12,-468 442.12,-436 533.12,-436 533.12,-468"/>
<text xml:space="preserve" text-anchor="start" x="450.12" y="-456.4" font-family="SourceSans" font-size="8.00">svg::path_element::</text>
<text xml:space="preserve" text-anchor="middle" x="487.62" y="-444.4" font-family="SourceSans" font-size="8.00">finish_element</text>
</a>
</g>
</g>
<!-- Node19&#45;&gt;Node21 -->
<g id="edge24_Node000019_Node000021" class="edge">
<title>Node19&#45;&gt;Node21</title>
<g id="a_edge24_Node000019_Node000021"><a xlink:title=" ">
<path fill="none" stroke="#63b8ff" d="M375.78,-468.45C392.41,-465.98 412.32,-463.03 430.66,-460.3"/>
<polygon fill="#63b8ff" stroke="#63b8ff" points="430.96,-463.8 440.33,-458.87 429.93,-456.88 430.96,-463.8"/>
</a>
</g>
</g>
<!-- Node22 -->
<g id="Node000022" class="node">
<title>Node22</title>
<g id="a_Node000022"><a xlink:href="group__elements.html#a6dbca7cef2cbc0c10aa44c44ae20b36e" target="_top" xlink:title=" ">
<polygon fill="white" stroke="#666666" points="533.12,-418 442.12,-418 442.12,-386 533.12,-386 533.12,-418"/>
<text xml:space="preserve" text-anchor="start" x="450.12" y="-406.4" font-family="SourceSans" font-size="8.00">svg::path_element::</text>
<text xml:space="preserve" text-anchor="middle" x="487.62" y="-394.4" font-family="SourceSans" font-size="8.00">start_element</text>
</a>
</g>
</g>
<!-- Node19&#45;&gt;Node22 -->
<g id="edge25_Node000019_Node000022" class="edge">
<title>Node19&#45;&gt;Node22</title>
<g id="a_edge25_Node000019_Node000022"><a xlink:title=" ">
<path fill="none" stroke="#63b8ff" d="M364.7,-463.61C374.03,-459.66 384.5,-454.92 393.75,-450 410.51,-441.09 413.01,-435.96 429.75,-427 432.08,-425.75 434.48,-424.52 436.92,-423.3"/>
<polygon fill="#63b8ff" stroke="#63b8ff" points="438.21,-426.56 445.72,-419.09 435.19,-420.25 438.21,-426.56"/>
</a>
</g>
</g>
<!-- Node20&#45;&gt;Node5 -->
<g id="edge21_Node000020_Node000005" class="edge">
<title>Node20&#45;&gt;Node5</title>
<g id="a_edge21_Node000020_Node000005"><a xlink:title=" ">
<path fill="none" stroke="#63b8ff" d="M530.1,-556.44C535.42,-559.06 540.68,-561.93 545.5,-565 568.29,-579.52 591.15,-600.47 606.3,-615.47"/>
<polygon fill="#63b8ff" stroke="#63b8ff" points="603.68,-617.8 613.2,-622.45 608.66,-612.88 603.68,-617.8"/>
</a>
</g>
</g>
<!-- Node24 -->
<g id="Node000024" class="node">
<title>Node24</title>
<g id="a_Node000024"><a xlink:href="namespacesvg_1_1constants.html#ac460bc8db60d85c3ae1cf8b1a903405e" target="_top" xlink:title="Formatting character constants.">
<polygon fill="white" stroke="#666666" points="535.75,-318 439.5,-318 439.5,-298 535.75,-298 535.75,-318"/>
<text xml:space="preserve" text-anchor="middle" x="487.62" y="-306.4" font-family="SourceSans" font-size="8.00">svg::constants::space</text>
</a>
</g>
</g>
<!-- Node23&#45;&gt;Node24 -->
<g id="edge28_Node000023_Node000024" class="edge">
<title>Node23&#45;&gt;Node24</title>
<g id="a_edge28_Node000023_Node000024"><a xlink:title=" ">
<path fill="none" stroke="#63b8ff" d="M379.97,-375.53C384.78,-372.96 389.49,-370.11 393.75,-367 413.06,-352.89 409.75,-340.11 429.75,-327 431.84,-325.63 434.03,-324.35 436.3,-323.16"/>
<polygon fill="#63b8ff" stroke="#63b8ff" points="437.54,-326.44 445.17,-319.09 434.62,-320.08 437.54,-326.44"/>
</a>
</g>
</g>
</g>
</svg>
