<?xml version="1.0" encoding="UTF-8" standalone="no"?>
<!DOCTYPE svg PUBLIC "-//W3C//DTD SVG 1.1//EN"
 "http://www.w3.org/Graphics/SVG/1.1/DTD/svg11.dtd">
<!-- Generated by graphviz version 12.1.0 (20240811.2233)
 -->
<!-- Title: svg::make_path_arc_closed Pages: 1 -->
<svg width="379pt" height="157pt"
 viewBox="0.00 0.00 378.50 157.00" xmlns="http://www.w3.org/2000/svg" xmlns:xlink="http://www.w3.org/1999/xlink">
<g id="graph0" class="graph" transform="scale(1 1) rotate(0) translate(4 153)">
<title>svg::make_path_arc_closed</title>
<!-- Node1 -->
<g id="Node000001" class="node">
<title>Node1</title>
<g id="a_Node000001"><a xlink:title="Same but with degree range arguments instead of points. NB: Assumes appropriate zero_angle_north_cw/c...">
<polygon fill="#999999" stroke="#666666" points="91,-86 0,-86 0,-54 91,-54 91,-86"/>
<text text-anchor="start" x="8" y="-74.4" font-family="SourceSans" font-size="8.00">svg::make_path_arc</text>
<text text-anchor="middle" x="45.5" y="-62.4" font-family="SourceSans" font-size="8.00">_closed</text>
</a>
</g>
</g>
<!-- Node2 -->
<g id="Node000002" class="node">
<title>Node2</title>
<g id="a_Node000002"><a xlink:href="namespacesvg.html#ab44508c4aeca591141ebec50145b75cd" target="_top" xlink:title="Angle in degrees.">
<polygon fill="white" stroke="#666666" points="230.75,-111 127,-111 127,-79 230.75,-79 230.75,-111"/>
<text text-anchor="start" x="135" y="-99.4" font-family="SourceSans" font-size="8.00">svg::get_circumference</text>
<text text-anchor="middle" x="178.88" y="-87.4" font-family="SourceSans" font-size="8.00">_point_d</text>
</a>
</g>
</g>
<!-- Node1&#45;&gt;Node2 -->
<g id="edge1_Node000001_Node000002" class="edge">
<title>Node1&#45;&gt;Node2</title>
<g id="a_edge1_Node000001_Node000002"><a xlink:title=" ">
<path fill="none" stroke="#63b8ff" d="M91.34,-78.53C99.21,-80.03 107.53,-81.61 115.77,-83.18"/>
<polygon fill="#63b8ff" stroke="#63b8ff" points="114.95,-86.59 125.42,-85.02 116.25,-79.71 114.95,-86.59"/>
</a>
</g>
</g>
<!-- Node5 -->
<g id="Node000005" class="node">
<title>Node5</title>
<g id="a_Node000005"><a xlink:href="namespacesvg.html#a8e3421a573ebb8e56428ce8c76f3f9ec" target="_top" xlink:title="Make closed path between two points and the center of a circle of radius r. Points like: get_circumfe...">
<polygon fill="white" stroke="#666666" points="224.38,-61 133.38,-61 133.38,-29 224.38,-29 224.38,-61"/>
<text text-anchor="start" x="141.38" y="-49.4" font-family="SourceSans" font-size="8.00">svg::make_path_arc</text>
<text text-anchor="middle" x="178.88" y="-37.4" font-family="SourceSans" font-size="8.00">_closed</text>
</a>
</g>
</g>
<!-- Node1&#45;&gt;Node5 -->
<g id="edge4_Node000001_Node000005" class="edge">
<title>Node1&#45;&gt;Node5</title>
<g id="a_edge4_Node000001_Node000005"><a xlink:title=" ">
<path fill="none" stroke="#63b8ff" d="M91.34,-61.47C101.28,-59.58 111.92,-57.55 122.23,-55.59"/>
<polygon fill="#63b8ff" stroke="#63b8ff" points="122.58,-59.09 131.75,-53.78 121.27,-52.21 122.58,-59.09"/>
</a>
</g>
</g>
<!-- Node3 -->
<g id="Node000003" class="node">
<title>Node3</title>
<g id="a_Node000003"><a xlink:href="namespacesvg.html#aef05ac63d88a6102981d3faf37275297" target="_top" xlink:title="Angle in radians.">
<polygon fill="white" stroke="#666666" points="370.5,-149 266.75,-149 266.75,-117 370.5,-117 370.5,-149"/>
<text text-anchor="start" x="274.75" y="-137.4" font-family="SourceSans" font-size="8.00">svg::get_circumference</text>
<text text-anchor="middle" x="318.62" y="-125.4" font-family="SourceSans" font-size="8.00">_point_r</text>
</a>
</g>
</g>
<!-- Node2&#45;&gt;Node3 -->
<g id="edge2_Node000002_Node000003" class="edge">
<title>Node2&#45;&gt;Node3</title>
<g id="a_edge2_Node000002_Node000003"><a xlink:title=" ">
<path fill="none" stroke="#63b8ff" d="M231.17,-109.15C239.06,-111.33 247.27,-113.59 255.37,-115.83"/>
<polygon fill="#63b8ff" stroke="#63b8ff" points="254.26,-119.15 264.83,-118.44 256.12,-112.4 254.26,-119.15"/>
</a>
</g>
</g>
<!-- Node4 -->
<g id="Node000004" class="node">
<title>Node4</title>
<g id="a_Node000004"><a xlink:href="namespacesvg_1_1constants.html#a0e0b0d9314bc47324ee39884bf8bb2fd" target="_top" xlink:title=" ">
<polygon fill="white" stroke="#666666" points="359.62,-99 277.62,-99 277.62,-79 359.62,-79 359.62,-99"/>
<text text-anchor="middle" x="318.62" y="-87.4" font-family="SourceSans" font-size="8.00">svg::constants::pi</text>
</a>
</g>
</g>
<!-- Node2&#45;&gt;Node4 -->
<g id="edge3_Node000002_Node000004" class="edge">
<title>Node2&#45;&gt;Node4</title>
<g id="a_edge3_Node000002_Node000004"><a xlink:title=" ">
<path fill="none" stroke="#63b8ff" d="M231.17,-92.77C242.64,-92.27 254.81,-91.74 266.29,-91.24"/>
<polygon fill="#63b8ff" stroke="#63b8ff" points="266.13,-94.75 275.97,-90.81 265.83,-87.75 266.13,-94.75"/>
</a>
</g>
</g>
<!-- Node6 -->
<g id="Node000006" class="node">
<title>Node6</title>
<g id="a_Node000006"><a xlink:href="namespacesvg_1_1constants.html#ac460bc8db60d85c3ae1cf8b1a903405e" target="_top" xlink:title="Formatting character constants.">
<polygon fill="white" stroke="#666666" points="366.75,-58 270.5,-58 270.5,-38 366.75,-38 366.75,-58"/>
<text text-anchor="middle" x="318.62" y="-46.4" font-family="SourceSans" font-size="8.00">svg::constants::space</text>
</a>
</g>
</g>
<!-- Node5&#45;&gt;Node6 -->
<g id="edge5_Node000005_Node000006" class="edge">
<title>Node5&#45;&gt;Node6</title>
<g id="a_edge5_Node000005_Node000006"><a xlink:title=" ">
<path fill="none" stroke="#63b8ff" d="M224.6,-45.97C235.56,-46.21 247.45,-46.47 258.95,-46.72"/>
<polygon fill="#63b8ff" stroke="#63b8ff" points="258.69,-50.22 268.77,-46.94 258.85,-43.22 258.69,-50.22"/>
</a>
</g>
</g>
<!-- Node7 -->
<g id="Node000007" class="node">
<title>Node7</title>
<g id="a_Node000007"><a xlink:href="namespacesvg.html#a36b1c48ad4601b205790e3772ad0a7b6" target="_top" xlink:title=" ">
<polygon fill="white" stroke="#666666" points="352.12,-20 285.12,-20 285.12,0 352.12,0 352.12,-20"/>
<text text-anchor="middle" x="318.62" y="-8.4" font-family="SourceSans" font-size="8.00">svg::to_string</text>
</a>
</g>
</g>
<!-- Node5&#45;&gt;Node7 -->
<g id="edge6_Node000005_Node000007" class="edge">
<title>Node5&#45;&gt;Node7</title>
<g id="a_edge6_Node000005_Node000007"><a xlink:title=" ">
<path fill="none" stroke="#63b8ff" d="M224.6,-33.64C240.4,-29.62 258.15,-25.11 273.87,-21.12"/>
<polygon fill="#63b8ff" stroke="#63b8ff" points="274.61,-24.54 283.44,-18.69 272.88,-17.76 274.61,-24.54"/>
</a>
</g>
</g>
</g>
</svg>
