<?xml version="1.0" encoding="UTF-8" standalone="no"?>
<!DOCTYPE svg PUBLIC "-//W3C//DTD SVG 1.1//EN"
 "http://www.w3.org/Graphics/SVG/1.1/DTD/svg11.dtd">
<!-- Generated by graphviz version 12.2.1 (20241206.2353)
 -->
<!-- Title: svg::make_line_graph_markers_tips Pages: 1 -->
<svg width="665pt" height="705pt"
 viewBox="0.00 0.00 664.75 705.00" xmlns="http://www.w3.org/2000/svg" xmlns:xlink="http://www.w3.org/1999/xlink">
<g id="graph0" class="graph" transform="scale(1 1) rotate(0) translate(4 701)">
<title>svg::make_line_graph_markers_tips</title>
<!-- Node1 -->
<g id="Node000001" class="node">
<title>Node1</title>
<g id="a_Node000001"><a xlink:title="Return set of paths corresponding to marker shapes with tooltips.">
<polygon fill="#999999" stroke="#666666" points="99.25,-267 0,-267 0,-235 99.25,-235 99.25,-267"/>
<text text-anchor="start" x="8" y="-255.4" font-family="SourceSans" font-size="8.00">svg::make_line_graph</text>
<text text-anchor="middle" x="49.62" y="-243.4" font-family="SourceSans" font-size="8.00">_markers_tips</text>
</a>
</g>
</g>
<!-- Node2 -->
<g id="Node000002" class="node">
<title>Node2</title>
<g id="a_Node000002"><a xlink:href="group__elements.html#a519382631540ecedee961bfb53e9ae87" target="_top" xlink:title=" ">
<polygon fill="white" stroke="#666666" points="234.12,-653 146.12,-653 146.12,-621 234.12,-621 234.12,-653"/>
<text text-anchor="start" x="154.12" y="-641.4" font-family="SourceSans" font-size="8.00">svg::circle_element</text>
<text text-anchor="middle" x="190.12" y="-629.4" font-family="SourceSans" font-size="8.00">::add_data</text>
</a>
</g>
</g>
<!-- Node1&#45;&gt;Node2 -->
<g id="edge1_Node000001_Node000002" class="edge">
<title>Node1&#45;&gt;Node2</title>
<g id="a_edge1_Node000001_Node000002"><a xlink:title=" ">
<path fill="none" stroke="#63b8ff" d="M51.15,-267.31C53.52,-318.93 66.34,-481.86 135.25,-592 140.31,-600.09 147.32,-607.45 154.62,-613.76"/>
<polygon fill="#63b8ff" stroke="#63b8ff" points="152.04,-616.18 162.02,-619.72 156.43,-610.72 152.04,-616.18"/>
</a>
</g>
</g>
<!-- Node5 -->
<g id="Node000005" class="node">
<title>Node5</title>
<g id="a_Node000005"><a xlink:href="group__elements.html#a1dd6663d882fb5dd14a47462a77f351b" target="_top" xlink:title="Either serialize immediately (as below), or create data structure that adds data to data_vec and then...">
<polygon fill="white" stroke="#666666" points="233.75,-583 146.5,-583 146.5,-551 233.75,-551 233.75,-583"/>
<text text-anchor="start" x="154.5" y="-571.4" font-family="SourceSans" font-size="8.00">svg::rect_element::</text>
<text text-anchor="middle" x="190.12" y="-559.4" font-family="SourceSans" font-size="8.00">add_data</text>
</a>
</g>
</g>
<!-- Node1&#45;&gt;Node5 -->
<g id="edge4_Node000001_Node000005" class="edge">
<title>Node1&#45;&gt;Node5</title>
<g id="a_edge4_Node000001_Node000005"><a xlink:title=" ">
<path fill="none" stroke="#63b8ff" d="M54.28,-267.28C63.78,-307.83 91.59,-415.86 135.25,-497 143.85,-512.97 156,-529.13 166.59,-541.89"/>
<polygon fill="#63b8ff" stroke="#63b8ff" points="163.82,-544.04 172.97,-549.38 169.15,-539.5 163.82,-544.04"/>
</a>
</g>
</g>
<!-- Node6 -->
<g id="Node000006" class="node">
<title>Node6</title>
<g id="a_Node000006"><a xlink:href="group__elements.html#acafbdd950c6c2639c9d376c3eab696e5" target="_top" xlink:title=" ">
<polygon fill="white" stroke="#666666" points="527.12,-571 436.12,-571 436.12,-539 527.12,-539 527.12,-571"/>
<text text-anchor="start" x="444.12" y="-559.4" font-family="SourceSans" font-size="8.00">svg::element_base::</text>
<text text-anchor="middle" x="481.62" y="-547.4" font-family="SourceSans" font-size="8.00">add_raw</text>
</a>
</g>
</g>
<!-- Node1&#45;&gt;Node6 -->
<g id="edge6_Node000001_Node000006" class="edge">
<title>Node1&#45;&gt;Node6</title>
<g id="a_edge6_Node000001_Node000006"><a xlink:title=" ">
<path fill="none" stroke="#63b8ff" d="M62.29,-267.18C77.57,-287.7 105.9,-323.48 135.25,-349 230.72,-432 364.07,-500.71 433.85,-533.77"/>
<polygon fill="#63b8ff" stroke="#63b8ff" points="432.17,-536.85 442.71,-537.94 435.15,-530.52 432.17,-536.85"/>
</a>
</g>
</g>
<!-- Node7 -->
<g id="Node000007" class="node">
<title>Node7</title>
<g id="a_Node000007"><a xlink:href="group__elements.html#a238b38ca99a1cf6c2baf80c8e4338d99" target="_top" xlink:title=" ">
<polygon fill="white" stroke="#666666" points="527.12,-333 436.12,-333 436.12,-301 527.12,-301 527.12,-333"/>
<text text-anchor="start" x="444.12" y="-321.4" font-family="SourceSans" font-size="8.00">svg::element_base::</text>
<text text-anchor="middle" x="481.62" y="-309.4" font-family="SourceSans" font-size="8.00">add_style</text>
</a>
</g>
</g>
<!-- Node1&#45;&gt;Node7 -->
<g id="edge7_Node000001_Node000007" class="edge">
<title>Node1&#45;&gt;Node7</title>
<g id="a_edge7_Node000001_Node000007"><a xlink:title=" ">
<path fill="none" stroke="#63b8ff" d="M70.56,-267.31C87.14,-280.33 111.75,-298.41 135.25,-311 196.42,-343.77 212.77,-354.34 281,-367 330.27,-376.14 345.93,-381.98 393.75,-367 412.34,-361.18 412.96,-351.88 429.75,-342 431.63,-340.9 433.56,-339.8 435.52,-338.71"/>
<polygon fill="#63b8ff" stroke="#63b8ff" points="436.98,-341.9 444.17,-334.11 433.69,-335.72 436.98,-341.9"/>
</a>
</g>
</g>
<!-- Node9 -->
<g id="Node000009" class="node">
<title>Node9</title>
<g id="a_Node000009"><a xlink:href="group__elements.html#a7995b78d94e1c299065c9dd3569fef7c" target="_top" xlink:title=" ">
<polygon fill="white" stroke="#666666" points="235.62,-182 144.62,-182 144.62,-150 235.62,-150 235.62,-182"/>
<text text-anchor="start" x="152.62" y="-170.4" font-family="SourceSans" font-size="8.00">svg::element_base::</text>
<text text-anchor="middle" x="190.12" y="-158.4" font-family="SourceSans" font-size="8.00">add_title</text>
</a>
</g>
</g>
<!-- Node1&#45;&gt;Node9 -->
<g id="edge9_Node000001_Node000009" class="edge">
<title>Node1&#45;&gt;Node9</title>
<g id="a_edge9_Node000001_Node000009"><a xlink:title=" ">
<path fill="none" stroke="#63b8ff" d="M74.79,-234.67C91.56,-223.49 114.54,-208.48 135.25,-196 139.6,-193.38 144.18,-190.7 148.77,-188.08"/>
<polygon fill="#63b8ff" stroke="#63b8ff" points="150.41,-191.17 157.4,-183.2 146.97,-185.08 150.41,-191.17"/>
</a>
</g>
</g>
<!-- Node11 -->
<g id="Node000011" class="node">
<title>Node11</title>
<g id="a_Node000011"><a xlink:href="group__elements.html#ad893ef9c13a15464c96d8a85c08af30f" target="_top" xlink:title=" ">
<polygon fill="white" stroke="#666666" points="532,-189 431.25,-189 431.25,-169 532,-169 532,-189"/>
<text text-anchor="middle" x="481.62" y="-177.4" font-family="SourceSans" font-size="8.00">svg::element_base::str</text>
</a>
</g>
</g>
<!-- Node1&#45;&gt;Node11 -->
<g id="edge31_Node000001_Node000011" class="edge">
<title>Node1&#45;&gt;Node11</title>
<g id="a_edge31_Node000001_Node000011"><a xlink:title=" ">
<path fill="none" stroke="#63b8ff" d="M99.53,-242.81C178.43,-229.6 333.61,-203.62 419.62,-189.22"/>
<polygon fill="#63b8ff" stroke="#63b8ff" points="419.99,-192.7 429.28,-187.6 418.84,-185.8 419.99,-192.7"/>
</a>
</g>
</g>
<!-- Node14 -->
<g id="Node000014" class="node">
<title>Node14</title>
<g id="a_Node000014"><a xlink:href="structsvg_1_1render__state__base.html#aa16790fbf40ef61f416151c89c267ef3" target="_top" xlink:title=" ">
<polygon fill="white" stroke="#666666" points="241.62,-132 138.62,-132 138.62,-100 241.62,-100 241.62,-132"/>
<text text-anchor="start" x="146.62" y="-120.4" font-family="SourceSans" font-size="8.00">svg::render_state_base</text>
<text text-anchor="middle" x="190.12" y="-108.4" font-family="SourceSans" font-size="8.00">::is_visible</text>
</a>
</g>
</g>
<!-- Node1&#45;&gt;Node14 -->
<g id="edge14_Node000001_Node000014" class="edge">
<title>Node1&#45;&gt;Node14</title>
<g id="a_edge14_Node000001_Node000014"><a xlink:title=" ">
<path fill="none" stroke="#63b8ff" d="M59.62,-234.84C73.3,-211.47 101.38,-168.09 135.25,-141 136.36,-140.11 137.51,-139.25 138.68,-138.41"/>
<polygon fill="#63b8ff" stroke="#63b8ff" points="140.3,-141.53 146.88,-133.22 136.55,-135.61 140.3,-141.53"/>
</a>
</g>
</g>
<!-- Node15 -->
<g id="Node000015" class="node">
<title>Node15</title>
<g id="a_Node000015"><a xlink:href="namespacesvg.html#a5c3daa77c4f641f5ac5fd9d31a8c15d3" target="_top" xlink:title="Center a triangle at this point.">
<polygon fill="white" stroke="#666666" points="245,-302 135.25,-302 135.25,-282 245,-282 245,-302"/>
<text text-anchor="middle" x="190.12" y="-290.4" font-family="SourceSans" font-size="8.00">svg::make_path_triangle</text>
</a>
</g>
</g>
<!-- Node1&#45;&gt;Node15 -->
<g id="edge15_Node000001_Node000015" class="edge">
<title>Node1&#45;&gt;Node15</title>
<g id="a_edge15_Node000001_Node000015"><a xlink:title=" ">
<path fill="none" stroke="#63b8ff" d="M99.45,-265.46C113.59,-269.64 128.97,-274.19 142.94,-278.33"/>
<polygon fill="#63b8ff" stroke="#63b8ff" points="141.75,-281.63 152.33,-281.11 143.74,-274.91 141.75,-281.63"/>
</a>
</g>
</g>
<!-- Node25 -->
<g id="Node000025" class="node">
<title>Node25</title>
<g id="a_Node000025"><a xlink:href="group__elements.html#a793cb6b40b2aea335b11f14fd327cde8" target="_top" xlink:title=" ">
<polygon fill="white" stroke="#666666" points="234.12,-82 146.12,-82 146.12,-50 234.12,-50 234.12,-82"/>
<text text-anchor="start" x="154.12" y="-70.4" font-family="SourceSans" font-size="8.00">svg::circle_element</text>
<text text-anchor="middle" x="190.12" y="-58.4" font-family="SourceSans" font-size="8.00">::start_element</text>
</a>
</g>
</g>
<!-- Node1&#45;&gt;Node25 -->
<g id="edge29_Node000001_Node000025" class="edge">
<title>Node1&#45;&gt;Node25</title>
<g id="a_edge29_Node000001_Node000025"><a xlink:title=" ">
<path fill="none" stroke="#63b8ff" d="M55.33,-234.78C65.24,-203.21 91.04,-132.97 135.25,-91 135.99,-90.3 136.75,-89.62 137.52,-88.95"/>
<polygon fill="#63b8ff" stroke="#63b8ff" points="139.24,-92.03 145.29,-83.33 135.14,-86.36 139.24,-92.03"/>
</a>
</g>
</g>
<!-- Node26 -->
<g id="Node000026" class="node">
<title>Node26</title>
<g id="a_Node000026"><a xlink:href="group__elements.html#a1e0ed5e9dfe1244317a87d7e6774348b" target="_top" xlink:title=" ">
<polygon fill="white" stroke="#666666" points="233.75,-32 146.5,-32 146.5,0 233.75,0 233.75,-32"/>
<text text-anchor="start" x="154.5" y="-20.4" font-family="SourceSans" font-size="8.00">svg::rect_element::</text>
<text text-anchor="middle" x="190.12" y="-8.4" font-family="SourceSans" font-size="8.00">start_element</text>
</a>
</g>
</g>
<!-- Node1&#45;&gt;Node26 -->
<g id="edge30_Node000001_Node000026" class="edge">
<title>Node1&#45;&gt;Node26</title>
<g id="a_edge30_Node000001_Node000026"><a xlink:title=" ">
<path fill="none" stroke="#63b8ff" d="M53.03,-234.59C59.49,-196.04 80.57,-98.57 135.25,-41 135.85,-40.37 136.47,-39.75 137.1,-39.15"/>
<polygon fill="#63b8ff" stroke="#63b8ff" points="139.23,-41.93 144.98,-33.03 134.93,-36.4 139.23,-41.93"/>
</a>
</g>
</g>
<!-- Node3 -->
<g id="Node000003" class="node">
<title>Node3</title>
<g id="a_Node000003"><a xlink:href="group__elements.html#a53d72a7ff728ad1d4d027254530bcf3d" target="_top" xlink:title="Common transforms include rotate(180)">
<polygon fill="white" stroke="#666666" points="382.88,-697 291.88,-697 291.88,-665 382.88,-665 382.88,-697"/>
<text text-anchor="start" x="299.88" y="-685.4" font-family="SourceSans" font-size="8.00">svg::element_base::</text>
<text text-anchor="middle" x="337.38" y="-673.4" font-family="SourceSans" font-size="8.00">add_transform</text>
</a>
</g>
</g>
<!-- Node2&#45;&gt;Node3 -->
<g id="edge2_Node000002_Node000003" class="edge">
<title>Node2&#45;&gt;Node3</title>
<g id="a_edge2_Node000002_Node000003"><a xlink:title=" ">
<path fill="none" stroke="#63b8ff" d="M234.31,-650.08C248.85,-654.49 265.28,-659.46 280.64,-664.12"/>
<polygon fill="#63b8ff" stroke="#63b8ff" points="279.56,-667.45 290.14,-667 281.59,-660.75 279.56,-667.45"/>
</a>
</g>
</g>
<!-- Node4 -->
<g id="Node000004" class="node">
<title>Node4</title>
<g id="a_Node000004"><a xlink:href="namespacesvg.html#a48ac748e89e22789d1772326a98dd7b6" target="_top" xlink:title=" ">
<polygon fill="white" stroke="#666666" points="656.75,-609 569.5,-609 569.5,-589 656.75,-589 656.75,-609"/>
<text text-anchor="middle" x="613.12" y="-597.4" font-family="SourceSans" font-size="8.00">svg::string_replace</text>
</a>
</g>
</g>
<!-- Node2&#45;&gt;Node4 -->
<g id="edge3_Node000002_Node000004" class="edge">
<title>Node2&#45;&gt;Node4</title>
<g id="a_edge3_Node000002_Node000004"><a xlink:title=" ">
<path fill="none" stroke="#63b8ff" d="M234.59,-633.08C311.94,-626.09 473.28,-611.53 557.81,-603.9"/>
<polygon fill="#63b8ff" stroke="#63b8ff" points="558.05,-607.39 567.7,-603.01 557.43,-600.42 558.05,-607.39"/>
</a>
</g>
</g>
<!-- Node5&#45;&gt;Node4 -->
<g id="edge5_Node000005_Node000004" class="edge">
<title>Node5&#45;&gt;Node4</title>
<g id="a_edge5_Node000005_Node000004"><a xlink:title=" ">
<path fill="none" stroke="#63b8ff" d="M234.2,-570.27C311.36,-576.14 472.98,-588.42 557.68,-594.86"/>
<polygon fill="#63b8ff" stroke="#63b8ff" points="557.36,-598.35 567.6,-595.62 557.89,-591.37 557.36,-598.35"/>
</a>
</g>
</g>
<!-- Node8 -->
<g id="Node000008" class="node">
<title>Node8</title>
<g id="a_Node000008"><a xlink:href="namespacesvg.html#a36b1c48ad4601b205790e3772ad0a7b6" target="_top" xlink:title=" ">
<polygon fill="white" stroke="#666666" points="646.62,-399 579.62,-399 579.62,-379 646.62,-379 646.62,-399"/>
<text text-anchor="middle" x="613.12" y="-387.4" font-family="SourceSans" font-size="8.00">svg::to_string</text>
</a>
</g>
</g>
<!-- Node7&#45;&gt;Node8 -->
<g id="edge8_Node000007_Node000008" class="edge">
<title>Node7&#45;&gt;Node8</title>
<g id="a_edge8_Node000007_Node000008"><a xlink:title=" ">
<path fill="none" stroke="#63b8ff" d="M517.03,-333.43C522.58,-336.21 528.23,-339.13 533.5,-342 551.21,-351.62 570.66,-363.24 585.78,-372.52"/>
<polygon fill="#63b8ff" stroke="#63b8ff" points="583.85,-375.44 594.2,-377.71 587.53,-369.48 583.85,-375.44"/>
</a>
</g>
</g>
<!-- Node10 -->
<g id="Node000010" class="node">
<title>Node10</title>
<g id="a_Node000010"><a xlink:href="group__elements.html#ada0333b46b2547c6152f3f5811016a12" target="_top" xlink:title=" ">
<polygon fill="white" stroke="#666666" points="382.88,-182 291.88,-182 291.88,-150 382.88,-150 382.88,-182"/>
<text text-anchor="start" x="299.88" y="-170.4" font-family="SourceSans" font-size="8.00">svg::element_base::</text>
<text text-anchor="middle" x="337.38" y="-158.4" font-family="SourceSans" font-size="8.00">add_element</text>
</a>
</g>
</g>
<!-- Node9&#45;&gt;Node10 -->
<g id="edge10_Node000009_Node000010" class="edge">
<title>Node9&#45;&gt;Node10</title>
<g id="a_edge10_Node000009_Node000010"><a xlink:title=" ">
<path fill="none" stroke="#63b8ff" d="M235.89,-166C249.83,-166 265.39,-166 280.02,-166"/>
<polygon fill="#63b8ff" stroke="#63b8ff" points="279.99,-169.5 289.99,-166 279.99,-162.5 279.99,-169.5"/>
</a>
</g>
</g>
<!-- Node12 -->
<g id="Node000012" class="node">
<title>Node12</title>
<g id="a_Node000012"><a xlink:href="group__elements.html#ga3d62381f8edcccd3d91f82af55f11274" target="_top" xlink:title=" ">
<polygon fill="white" stroke="#666666" points="379.12,-132 295.62,-132 295.62,-100 379.12,-100 379.12,-132"/>
<text text-anchor="start" x="303.62" y="-120.4" font-family="SourceSans" font-size="8.00">svg::title_element</text>
<text text-anchor="middle" x="337.38" y="-108.4" font-family="SourceSans" font-size="8.00">::finish_element</text>
</a>
</g>
</g>
<!-- Node9&#45;&gt;Node12 -->
<g id="edge12_Node000009_Node000012" class="edge">
<title>Node9&#45;&gt;Node12</title>
<g id="a_edge12_Node000009_Node000012"><a xlink:title=" ">
<path fill="none" stroke="#63b8ff" d="M235.89,-150.59C251.33,-145.27 268.75,-139.28 284.7,-133.79"/>
<polygon fill="#63b8ff" stroke="#63b8ff" points="285.72,-137.14 294.03,-130.58 283.44,-130.52 285.72,-137.14"/>
</a>
</g>
</g>
<!-- Node13 -->
<g id="Node000013" class="node">
<title>Node13</title>
<g id="a_Node000013"><a xlink:href="group__elements.html#a41dcaa1132c502cb86c01aae1e7b9ff2" target="_top" xlink:title=" ">
<polygon fill="white" stroke="#666666" points="379.12,-82 295.62,-82 295.62,-50 379.12,-50 379.12,-82"/>
<text text-anchor="start" x="303.62" y="-70.4" font-family="SourceSans" font-size="8.00">svg::title_element</text>
<text text-anchor="middle" x="337.38" y="-58.4" font-family="SourceSans" font-size="8.00">::start_element</text>
</a>
</g>
</g>
<!-- Node9&#45;&gt;Node13 -->
<g id="edge13_Node000009_Node000013" class="edge">
<title>Node9&#45;&gt;Node13</title>
<g id="a_edge13_Node000009_Node000013"><a xlink:title=" ">
<path fill="none" stroke="#63b8ff" d="M232.47,-149.55C236.91,-147 241.18,-144.15 245,-141 266.11,-123.56 259.8,-108.33 281,-91 282.49,-89.78 284.04,-88.61 285.65,-87.49"/>
<polygon fill="#63b8ff" stroke="#63b8ff" points="287.33,-90.57 294.01,-82.35 283.66,-84.61 287.33,-90.57"/>
</a>
</g>
</g>
<!-- Node10&#45;&gt;Node11 -->
<g id="edge11_Node000010_Node000011" class="edge">
<title>Node10&#45;&gt;Node11</title>
<g id="a_edge11_Node000010_Node000011"><a xlink:title=" ">
<path fill="none" stroke="#63b8ff" d="M382.99,-170.08C394.66,-171.14 407.43,-172.31 419.79,-173.44"/>
<polygon fill="#63b8ff" stroke="#63b8ff" points="419.18,-176.9 429.46,-174.32 419.82,-169.93 419.18,-176.9"/>
</a>
</g>
</g>
<!-- Node16 -->
<g id="Node000016" class="node">
<title>Node16</title>
<g id="a_Node000016"><a xlink:href="namespacesvg.html#ab44508c4aeca591141ebec50145b75cd" target="_top" xlink:title="Angle in degrees.">
<polygon fill="white" stroke="#666666" points="389.25,-358 285.5,-358 285.5,-326 389.25,-326 389.25,-358"/>
<text text-anchor="start" x="293.5" y="-346.4" font-family="SourceSans" font-size="8.00">svg::get_circumference</text>
<text text-anchor="middle" x="337.38" y="-334.4" font-family="SourceSans" font-size="8.00">_point_d</text>
</a>
</g>
</g>
<!-- Node15&#45;&gt;Node16 -->
<g id="edge16_Node000015_Node000016" class="edge">
<title>Node15&#45;&gt;Node16</title>
<g id="a_edge16_Node000015_Node000016"><a xlink:title=" ">
<path fill="none" stroke="#63b8ff" d="M221.57,-302.48C237.85,-308.09 258.46,-315.18 277.7,-321.8"/>
<polygon fill="#63b8ff" stroke="#63b8ff" points="276.5,-325.09 287.1,-325.04 278.78,-318.47 276.5,-325.09"/>
</a>
</g>
</g>
<!-- Node18 -->
<g id="Node000018" class="node">
<title>Node18</title>
<g id="a_Node000018"><a xlink:href="namespacesvg.html#a8b2e7da5235688e0f753d35fc1079c87" target="_top" xlink:title="Draw path given serialized path data. Assumes pinstripe, ie top and bottom line layers....">
<polygon fill="white" stroke="#666666" points="375.38,-434 299.38,-434 299.38,-414 375.38,-414 375.38,-434"/>
<text text-anchor="middle" x="337.38" y="-422.4" font-family="SourceSans" font-size="8.00">svg::make_path</text>
</a>
</g>
</g>
<!-- Node15&#45;&gt;Node18 -->
<g id="edge18_Node000015_Node000018" class="edge">
<title>Node15&#45;&gt;Node18</title>
<g id="a_edge18_Node000015_Node000018"><a xlink:title=" ">
<path fill="none" stroke="#63b8ff" d="M202.52,-302.36C227.24,-324.82 286,-378.22 316.79,-406.2"/>
<polygon fill="#63b8ff" stroke="#63b8ff" points="314.16,-408.54 323.91,-412.67 318.86,-403.36 314.16,-408.54"/>
</a>
</g>
</g>
<!-- Node22 -->
<g id="Node000022" class="node">
<title>Node22</title>
<g id="a_Node000022"><a xlink:href="namespacesvg.html#a2c65de7707b8b7b1bca959a3a2bbba91" target="_top" xlink:title="Make single path segment.">
<polygon fill="white" stroke="#666666" points="385.88,-308 288.88,-308 288.88,-276 385.88,-276 385.88,-308"/>
<text text-anchor="start" x="296.88" y="-296.4" font-family="SourceSans" font-size="8.00">svg::make_path_data</text>
<text text-anchor="middle" x="337.38" y="-284.4" font-family="SourceSans" font-size="8.00">_from_points</text>
</a>
</g>
</g>
<!-- Node15&#45;&gt;Node22 -->
<g id="edge26_Node000015_Node000022" class="edge">
<title>Node15&#45;&gt;Node22</title>
<g id="a_edge26_Node000015_Node000022"><a xlink:title=" ">
<path fill="none" stroke="#63b8ff" d="M245.21,-292C255.64,-292 266.61,-292 277.18,-292"/>
<polygon fill="#63b8ff" stroke="#63b8ff" points="276.95,-295.5 286.95,-292 276.95,-288.5 276.95,-295.5"/>
</a>
</g>
</g>
<!-- Node24 -->
<g id="Node000024" class="node">
<title>Node24</title>
<g id="a_Node000024"><a xlink:href="namespacesvg.html#a46164d75fd5109e4ed8879abbacd5c11" target="_top" xlink:title="Zero degrees is top, going clockwise (cw).">
<polygon fill="white" stroke="#666666" points="393.75,-258 281,-258 281,-238 393.75,-238 393.75,-258"/>
<text text-anchor="middle" x="337.38" y="-246.4" font-family="SourceSans" font-size="8.00">svg::zero_angle_north_cw</text>
</a>
</g>
</g>
<!-- Node15&#45;&gt;Node24 -->
<g id="edge28_Node000015_Node000024" class="edge">
<title>Node15&#45;&gt;Node24</title>
<g id="a_edge28_Node000015_Node000024"><a xlink:title=" ">
<path fill="none" stroke="#63b8ff" d="M225.55,-281.57C245.1,-275.65 269.82,-268.16 290.95,-261.76"/>
<polygon fill="#63b8ff" stroke="#63b8ff" points="291.94,-265.12 300.5,-258.87 289.91,-258.42 291.94,-265.12"/>
</a>
</g>
</g>
<!-- Node17 -->
<g id="Node000017" class="node">
<title>Node17</title>
<g id="a_Node000017"><a xlink:href="namespacesvg.html#aef05ac63d88a6102981d3faf37275297" target="_top" xlink:title="Angle in radians.">
<polygon fill="white" stroke="#666666" points="533.5,-283 429.75,-283 429.75,-251 533.5,-251 533.5,-283"/>
<text text-anchor="start" x="437.75" y="-271.4" font-family="SourceSans" font-size="8.00">svg::get_circumference</text>
<text text-anchor="middle" x="481.62" y="-259.4" font-family="SourceSans" font-size="8.00">_point_r</text>
</a>
</g>
</g>
<!-- Node16&#45;&gt;Node17 -->
<g id="edge17_Node000016_Node000017" class="edge">
<title>Node16&#45;&gt;Node17</title>
<g id="a_edge17_Node000016_Node000017"><a xlink:title=" ">
<path fill="none" stroke="#63b8ff" d="M377.25,-325.54C382.87,-322.85 388.52,-319.96 393.75,-317 410.7,-307.4 412.96,-301.88 429.75,-292 431.63,-290.9 433.56,-289.8 435.52,-288.71"/>
<polygon fill="#63b8ff" stroke="#63b8ff" points="436.98,-291.9 444.17,-284.11 433.69,-285.72 436.98,-291.9"/>
</a>
</g>
</g>
<!-- Node18&#45;&gt;Node6 -->
<g id="edge21_Node000018_Node000006" class="edge">
<title>Node18&#45;&gt;Node6</title>
<g id="a_edge21_Node000018_Node000006"><a xlink:title=" ">
<path fill="none" stroke="#63b8ff" d="M353.72,-434.19C365.6,-442.58 381.95,-455.29 393.75,-469 414.29,-492.86 406.66,-508.61 429.75,-530 430.49,-530.69 431.26,-531.36 432.04,-532.02"/>
<polygon fill="#63b8ff" stroke="#63b8ff" points="429.66,-534.62 439.82,-537.62 433.75,-528.94 429.66,-534.62"/>
</a>
</g>
</g>
<!-- Node18&#45;&gt;Node7 -->
<g id="edge22_Node000018_Node000007" class="edge">
<title>Node18&#45;&gt;Node7</title>
<g id="a_edge22_Node000018_Node000007"><a xlink:title=" ">
<path fill="none" stroke="#63b8ff" d="M371.33,-413.59C379.23,-410.09 387.25,-405.61 393.75,-400 416.72,-380.17 407.26,-362.37 429.75,-342 430.52,-341.31 431.3,-340.63 432.11,-339.96"/>
<polygon fill="#63b8ff" stroke="#63b8ff" points="434,-342.92 440.14,-334.29 429.96,-337.2 434,-342.92"/>
</a>
</g>
</g>
<!-- Node18&#45;&gt;Node8 -->
<g id="edge25_Node000018_Node000008" class="edge">
<title>Node18&#45;&gt;Node8</title>
<g id="a_edge25_Node000018_Node000008"><a xlink:title=" ">
<path fill="none" stroke="#63b8ff" d="M370.92,-434.45C410.29,-445.42 478.19,-458.9 533.5,-442 556.19,-435.07 578.24,-419.15 593.19,-406.55"/>
<polygon fill="#63b8ff" stroke="#63b8ff" points="595.17,-409.47 600.39,-400.25 590.56,-404.21 595.17,-409.47"/>
</a>
</g>
</g>
<!-- Node19 -->
<g id="Node000019" class="node">
<title>Node19</title>
<g id="a_Node000019"><a xlink:href="group__elements.html#a807f3c30f2ace338ad10aaf230b47665" target="_top" xlink:title="Either serialize immediately (as below), or create data structure that adds data to data_vec and then...">
<polygon fill="white" stroke="#666666" points="527.12,-521 436.12,-521 436.12,-489 527.12,-489 527.12,-521"/>
<text text-anchor="start" x="444.12" y="-509.4" font-family="SourceSans" font-size="8.00">svg::path_element::</text>
<text text-anchor="middle" x="481.62" y="-497.4" font-family="SourceSans" font-size="8.00">add_data</text>
</a>
</g>
</g>
<!-- Node18&#45;&gt;Node19 -->
<g id="edge19_Node000018_Node000019" class="edge">
<title>Node18&#45;&gt;Node19</title>
<g id="a_edge19_Node000018_Node000019"><a xlink:title=" ">
<path fill="none" stroke="#63b8ff" d="M356.68,-434.42C378.13,-446.64 414.27,-467.22 442.01,-483.01"/>
<polygon fill="#63b8ff" stroke="#63b8ff" points="440.07,-485.93 450.49,-487.84 443.53,-479.85 440.07,-485.93"/>
</a>
</g>
</g>
<!-- Node20 -->
<g id="Node000020" class="node">
<title>Node20</title>
<g id="a_Node000020"><a xlink:href="group__elements.html#gaac30ae99fb1a2542688fa1ffb43cd8e1" target="_top" xlink:title=" ">
<polygon fill="white" stroke="#666666" points="527.12,-433 436.12,-433 436.12,-401 527.12,-401 527.12,-433"/>
<text text-anchor="start" x="444.12" y="-421.4" font-family="SourceSans" font-size="8.00">svg::path_element::</text>
<text text-anchor="middle" x="481.62" y="-409.4" font-family="SourceSans" font-size="8.00">finish_element</text>
</a>
</g>
</g>
<!-- Node18&#45;&gt;Node20 -->
<g id="edge23_Node000018_Node000020" class="edge">
<title>Node18&#45;&gt;Node20</title>
<g id="a_edge23_Node000018_Node000020"><a xlink:title=" ">
<path fill="none" stroke="#63b8ff" d="M375.75,-422.16C390.66,-421.43 408.16,-420.57 424.53,-419.76"/>
<polygon fill="#63b8ff" stroke="#63b8ff" points="424.32,-423.27 434.14,-419.29 423.98,-416.28 424.32,-423.27"/>
</a>
</g>
</g>
<!-- Node21 -->
<g id="Node000021" class="node">
<title>Node21</title>
<g id="a_Node000021"><a xlink:href="group__elements.html#a6dbca7cef2cbc0c10aa44c44ae20b36e" target="_top" xlink:title=" ">
<polygon fill="white" stroke="#666666" points="527.12,-383 436.12,-383 436.12,-351 527.12,-351 527.12,-383"/>
<text text-anchor="start" x="444.12" y="-371.4" font-family="SourceSans" font-size="8.00">svg::path_element::</text>
<text text-anchor="middle" x="481.62" y="-359.4" font-family="SourceSans" font-size="8.00">start_element</text>
</a>
</g>
</g>
<!-- Node18&#45;&gt;Node21 -->
<g id="edge24_Node000018_Node000021" class="edge">
<title>Node18&#45;&gt;Node21</title>
<g id="a_edge24_Node000018_Node000021"><a xlink:title=" ">
<path fill="none" stroke="#63b8ff" d="M364.47,-413.55C382.53,-406.31 407.16,-396.44 429.1,-387.64"/>
<polygon fill="#63b8ff" stroke="#63b8ff" points="430.23,-390.96 438.21,-383.99 427.63,-384.47 430.23,-390.96"/>
</a>
</g>
</g>
<!-- Node19&#45;&gt;Node4 -->
<g id="edge20_Node000019_Node000004" class="edge">
<title>Node19&#45;&gt;Node4</title>
<g id="a_edge20_Node000019_Node000004"><a xlink:title=" ">
<path fill="none" stroke="#63b8ff" d="M519.14,-521.48C524.08,-524.13 529,-527 533.5,-530 555.98,-545 578.89,-565.87 594.13,-580.73"/>
<polygon fill="#63b8ff" stroke="#63b8ff" points="591.52,-583.07 601.09,-587.62 596.45,-578.09 591.52,-583.07"/>
</a>
</g>
</g>
<!-- Node23 -->
<g id="Node000023" class="node">
<title>Node23</title>
<g id="a_Node000023"><a xlink:href="namespacesvg_1_1constants.html#ac460bc8db60d85c3ae1cf8b1a903405e" target="_top" xlink:title="Formatting character constants.">
<polygon fill="white" stroke="#666666" points="529.75,-233 433.5,-233 433.5,-213 529.75,-213 529.75,-233"/>
<text text-anchor="middle" x="481.62" y="-221.4" font-family="SourceSans" font-size="8.00">svg::constants::space</text>
</a>
</g>
</g>
<!-- Node22&#45;&gt;Node23 -->
<g id="edge27_Node000022_Node000023" class="edge">
<title>Node22&#45;&gt;Node23</title>
<g id="a_edge27_Node000022_Node000023"><a xlink:title=" ">
<path fill="none" stroke="#63b8ff" d="M377.25,-275.54C382.87,-272.85 388.52,-269.96 393.75,-267 410.7,-257.4 412.49,-251.03 429.75,-242 432.57,-240.52 435.53,-239.11 438.54,-237.76"/>
<polygon fill="#63b8ff" stroke="#63b8ff" points="439.6,-241.11 447.48,-234.04 436.91,-234.65 439.6,-241.11"/>
</a>
</g>
</g>
</g>
</svg>
