<?xml version="1.0" encoding="UTF-8" standalone="no"?>
<!DOCTYPE svg PUBLIC "-//W3C//DTD SVG 1.1//EN"
 "http://www.w3.org/Graphics/SVG/1.1/DTD/svg11.dtd">
<!-- Generated by graphviz version 9.0.0 (20230911.1827)
 -->
<!-- Title: svg::point_to_crossed_lines Pages: 1 -->
<!--zoomable 138 -->

<svg id="main" version="1.1" xmlns="http://www.w3.org/2000/svg" xmlns:xlink="http://www.w3.org/1999/xlink" xml:space="preserve" onload="init(evt)">
<style type="text/css"><![CDATA[
.node, .edge {opacity: 0.7;}
.node.selected, .edge.selected {opacity: 1;}
.edge:hover path { stroke: red; }
.edge:hover polygon { stroke: red; fill: red; }
]]></style>

<defs>
  <circle id="rim" cx="0" cy="0" r="7"/>
  <circle id="rim2" cx="0" cy="0" r="3.5"/>
  <g id="zoomPlus">
    <use xlink:href="#rim" fill="#404040"><set attributeName="fill" to="#808080" begin="zoomplus.mouseover" end="zoomplus.mouseout"/></use>
    <path d="M-4,0h8M0,-4v8" fill="none" stroke="white" stroke-width="1.5" pointer-events="none"/>
  </g>
  <g id="zoomMin">
    <use xlink:href="#rim" fill="#404040"><set attributeName="fill" to="#808080" begin="zoomminus.mouseover" end="zoomminus.mouseout"/></use>
    <path d="M-4,0h8" fill="none" stroke="white" stroke-width="1.5" pointer-events="none"/>
  </g>
  <g id="arrowUp" transform="translate(30 24)">
    <use xlink:href="#rim"/>
    <path pointer-events="none" fill="none" stroke="white" stroke-width="1.5" d="M0,-3.0v7 M-2.5,-0.5L0,-3.0L2.5,-0.5"/>
  </g>
  <g id="arrowRight" transform="rotate(90) translate(36 -43)">
    <use xlink:href="#rim"/>
    <path pointer-events="none" fill="none" stroke="white" stroke-width="1.5" d="M0,-3.0v7 M-2.5,-0.5L0,-3.0L2.5,-0.5"/>
  </g>
  <g id="arrowDown" transform="rotate(180) translate(-30 -48)">
    <use xlink:href="#rim"/>
    <path pointer-events="none" fill="none" stroke="white" stroke-width="1.5" d="M0,-3.0v7 M-2.5,-0.5L0,-3.0L2.5,-0.5"/>
  </g>
  <g id="arrowLeft" transform="rotate(270) translate(-36 17)">
    <use xlink:href="#rim"/>
    <path pointer-events="none" fill="none" stroke="white" stroke-width="1.5" d="M0,-3.0v7 M-2.5,-0.5L0,-3.0L2.5,-0.5"/>
  </g>
  <g id="resetDef">
    <use xlink:href="#rim2" fill="#404040"><set attributeName="fill" to="#808080" begin="reset.mouseover" end="reset.mouseout"/></use>
  </g>
</defs>
<script type="application/ecmascript">
var viewWidth = 538;
var viewHeight = 138;
var sectionId = 'dynsection-41';
</script>
<script type="application/ecmascript" xlink:href="svg.min.js"/>
<svg id="graph" class="graph">
<g id="viewport">
<title>svg::point_to_crossed_lines</title>
<!-- Node1 -->
<g id="Node000001" class="node">
<title>Node1</title>
<g id="a_Node000001"><a xlink:title="Point to center mark as crossed lines. Default is a plus sign at origin, but @tiltd can rotate.">
<polygon fill="#999999" stroke="#666666" points="97,-64 0,-64 0,-32 97,-32 97,-64"/>
<text text-anchor="start" x="8" y="-52.4" font-family="SourceSans" font-size="8.00">svg::point_to_crossed</text>
<text text-anchor="middle" x="48.5" y="-40.4" font-family="SourceSans" font-size="8.00">_lines</text>
</a>
</g>
</g>
<!-- Node2 -->
<g id="Node000002" class="node">
<title>Node2</title>
<g id="a_Node000002"><a xlink:href="namespacesvg.html#ad1d925b7cf91db8bfa19b009812549fc" target="_top" xlink:title="Crossed lines, no fill. X marks the ....">
<polygon fill="white" stroke="#666666" points="241.25,-58 133,-58 133,-38 241.25,-38 241.25,-58"/>
<text text-anchor="middle" x="187.12" y="-46.4" font-family="SourceSans" font-size="8.00">svg::make_crossed_lines</text>
</a>
</g>
</g>
<!-- Node1&#45;&gt;Node2 -->
<g id="edge1_Node000001_Node000002" class="edge">
<title>Node1&#45;&gt;Node2</title>
<g id="a_edge1_Node000001_Node000002"><a xlink:title=" ">
<path fill="none" stroke="#63b8ff" d="M97.28,-48C105.03,-48 113.15,-48 121.22,-48"/>
<polygon fill="#63b8ff" stroke="#63b8ff" points="121.02,-51.5 131.02,-48 121.02,-44.5 121.02,-51.5"/>
</a>
</g>
</g>
<!-- Node3 -->
<g id="Node000003" class="node">
<title>Node3</title>
<g id="a_Node000003"><a xlink:href="namespacesvg.html#ab44508c4aeca591141ebec50145b75cd" target="_top" xlink:title="Angle in degrees.">
<polygon fill="white" stroke="#666666" points="385.5,-108 281.75,-108 281.75,-76 385.5,-76 385.5,-108"/>
<text text-anchor="start" x="289.75" y="-96.4" font-family="SourceSans" font-size="8.00">svg::get_circumference</text>
<text text-anchor="middle" x="333.62" y="-84.4" font-family="SourceSans" font-size="8.00">_point_d</text>
</a>
</g>
</g>
<!-- Node2&#45;&gt;Node3 -->
<g id="edge2_Node000002_Node000003" class="edge">
<title>Node2&#45;&gt;Node3</title>
<g id="a_edge2_Node000002_Node000003"><a xlink:title=" ">
<path fill="none" stroke="#63b8ff" d="M222.37,-58.43C236.81,-62.83 254.09,-68.09 270.64,-73.13"/>
<polygon fill="#63b8ff" stroke="#63b8ff" points="269.34,-76.39 279.92,-75.95 271.38,-69.69 269.34,-76.39"/>
</a>
</g>
</g>
<!-- Node6 -->
<g id="Node000006" class="node">
<title>Node6</title>
<g id="a_Node000006"><a xlink:href="namespacesvg.html#a520130e7464e62521cf59e048a48cee7" target="_top" xlink:title="Line primitive.">
<polygon fill="white" stroke="#666666" points="369.75,-58 297.5,-58 297.5,-38 369.75,-38 369.75,-58"/>
<text text-anchor="middle" x="333.62" y="-46.4" font-family="SourceSans" font-size="8.00">svg::make_line</text>
</a>
</g>
</g>
<!-- Node2&#45;&gt;Node6 -->
<g id="edge5_Node000002_Node000006" class="edge">
<title>Node2&#45;&gt;Node6</title>
<g id="a_edge5_Node000002_Node000006"><a xlink:title=" ">
<path fill="none" stroke="#63b8ff" d="M241.52,-48C256.09,-48 271.76,-48 285.93,-48"/>
<polygon fill="#63b8ff" stroke="#63b8ff" points="285.91,-51.5 295.91,-48 285.91,-44.5 285.91,-51.5"/>
</a>
</g>
</g>
<!-- Node7 -->
<g id="Node000007" class="node">
<title>Node7</title>
<g id="a_Node000007"><a xlink:href="namespacesvg.html#a46164d75fd5109e4ed8879abbacd5c11" target="_top" xlink:title="Zero degrees is top, going clockwise (cw).">
<polygon fill="white" stroke="#666666" points="390,-20 277.25,-20 277.25,0 390,0 390,-20"/>
<text text-anchor="middle" x="333.62" y="-8.4" font-family="SourceSans" font-size="8.00">svg::zero_angle_north_cw</text>
</a>
</g>
</g>
<!-- Node2&#45;&gt;Node7 -->
<g id="edge6_Node000002_Node000007" class="edge">
<title>Node2&#45;&gt;Node7</title>
<g id="a_edge6_Node000002_Node000007"><a xlink:title=" ">
<path fill="none" stroke="#63b8ff" d="M227.99,-37.52C244.66,-33.13 264.21,-27.99 281.89,-23.34"/>
<polygon fill="#63b8ff" stroke="#63b8ff" points="282.64,-26.76 291.42,-20.83 280.86,-19.99 282.64,-26.76"/>
</a>
</g>
</g>
<!-- Node4 -->
<g id="Node000004" class="node">
<title>Node4</title>
<g id="a_Node000004"><a xlink:href="namespacesvg.html#aef05ac63d88a6102981d3faf37275297" target="_top" xlink:title="Angle in radians.">
<polygon fill="white" stroke="#666666" points="529.75,-130 426,-130 426,-98 529.75,-98 529.75,-130"/>
<text text-anchor="start" x="434" y="-118.4" font-family="SourceSans" font-size="8.00">svg::get_circumference</text>
<text text-anchor="middle" x="477.88" y="-106.4" font-family="SourceSans" font-size="8.00">_point_r</text>
</a>
</g>
</g>
<!-- Node3&#45;&gt;Node4 -->
<g id="edge3_Node000003_Node000004" class="edge">
<title>Node3&#45;&gt;Node4</title>
<g id="a_edge3_Node000003_Node000004"><a xlink:title=" ">
<path fill="none" stroke="#63b8ff" d="M385.98,-99.94C395.15,-101.36 404.79,-102.85 414.23,-104.31"/>
<polygon fill="#63b8ff" stroke="#63b8ff" points="413.68,-107.77 424.1,-105.84 414.75,-100.85 413.68,-107.77"/>
</a>
</g>
</g>
<!-- Node5 -->
<g id="Node000005" class="node">
<title>Node5</title>
<g id="a_Node000005"><a xlink:href="namespacesvg_1_1constants.html#a0e0b0d9314bc47324ee39884bf8bb2fd" target="_top" xlink:title=" ">
<polygon fill="white" stroke="#666666" points="518.88,-80 436.88,-80 436.88,-60 518.88,-60 518.88,-80"/>
<text text-anchor="middle" x="477.88" y="-68.4" font-family="SourceSans" font-size="8.00">svg::constants::pi</text>
</a>
</g>
</g>
<!-- Node3&#45;&gt;Node5 -->
<g id="edge4_Node000003_Node000005" class="edge">
<title>Node3&#45;&gt;Node5</title>
<g id="a_edge4_Node000003_Node000005"><a xlink:title=" ">
<path fill="none" stroke="#63b8ff" d="M385.98,-84.06C398.91,-82.06 412.78,-79.91 425.7,-77.92"/>
<polygon fill="#63b8ff" stroke="#63b8ff" points="425.91,-81.42 435.26,-76.44 424.84,-74.51 425.91,-81.42"/>
</a>
</g>
</g>
</g>
</svg>

<g id="navigator" transform="translate(0 0)" fill="#404254">
  <rect fill="#f2f5e9" fill-opacity="0.5" stroke="#606060" stroke-width=".5" x="0" y="0" width="60" height="60"/>
  <use id="zoomplus" xlink:href="#zoomPlus" x="17" y="9" onmousedown="handleZoom(evt,'in')"/>
  <use id="zoomminus" xlink:href="#zoomMin" x="42" y="9" onmousedown="handleZoom(evt,'out')"/>
  <use id="reset" xlink:href="#resetDef" x="30" y="36" onmousedown="handleReset()"/>
   <use id="arrowup" xlink:href="#arrowUp" x="0" y="0" onmousedown="handlePan(0,-1)"/>
  <use id="arrowright" xlink:href="#arrowRight" x="0" y="0" onmousedown="handlePan(1,0)"/>
  <use id="arrowdown" xlink:href="#arrowDown" x="0" y="0" onmousedown="handlePan(0,1)"/>
  <use id="arrowleft" xlink:href="#arrowLeft" x="0" y="0" onmousedown="handlePan(-1,0)"/>
</g>
<svg viewBox="0 0 15 15" width="100%" height="30px" preserveAspectRatio="xMaxYMin meet">
 <g id="arrow_out" transform="scale(0.3 0.3)">
  <a xlink:href="namespacesvg_a071f9f29c33596d61148cf71d58b3359_cgraph_org.svg" target="_base">
   <rect id="button" ry="5" rx="5" y="6" x="6" height="38" width="38"
        fill="#f2f5e9" fill-opacity="0.5" stroke="#606060" stroke-width="1.0"/>
   <path id="arrow"
     d="M 11.500037,31.436501 C 11.940474,20.09759 22.043105,11.32322 32.158766,21.979434 L 37.068811,17.246167 C 37.068811,17.246167 37.088388,32 37.088388,32 L 22.160133,31.978069 C 22.160133,31.978069 26.997745,27.140456 26.997745,27.140456 C 18.528582,18.264221 13.291696,25.230495 11.500037,31.436501 z"
     style="fill:#404040;"/>
  </a>
 </g>
</svg>

<style type='text/css'>
<![CDATA[
[data-mouse-over-selected='false'] { opacity: 0.7; }
[data-mouse-over-selected='true']  { opacity: 1.0; }
]]>
</style>
<script type="application/ecmascript"><![CDATA[
document.addEventListener('DOMContentLoaded', (event) => {
  highlightEdges();
  highlightAdjacentNodes();
});
]]></script>
</svg>
