<?xml version="1.0" encoding="UTF-8" standalone="no"?>
<!DOCTYPE svg PUBLIC "-//W3C//DTD SVG 1.1//EN"
 "http://www.w3.org/Graphics/SVG/1.1/DTD/svg11.dtd">
<!-- Generated by graphviz version 12.2.1 (20241206.2353)
 -->
<!-- Title: svg::radial_text_r Pages: 1 -->
<svg width="779pt" height="377pt"
 viewBox="0.00 0.00 779.00 377.00" xmlns="http://www.w3.org/2000/svg" xmlns:xlink="http://www.w3.org/1999/xlink">
<g id="graph0" class="graph" transform="scale(1 1) rotate(0) translate(4 373)">
<title>svg::radial_text_r</title>
<!-- Node1 -->
<g id="Node000001" class="node">
<title>Node1</title>
<g id="a_Node000001"><a xlink:title=" ">
<polygon fill="#999999" stroke="#666666" points="80.5,-96 0,-96 0,-76 80.5,-76 80.5,-96"/>
<text text-anchor="middle" x="40.25" y="-84.4" font-family="SourceSans" font-size="8.00">svg::radial_text_r</text>
</a>
</g>
</g>
<!-- Node2 -->
<g id="Node000002" class="node">
<title>Node2</title>
<g id="a_Node000002"><a xlink:href="namespacesvg.html#ab44508c4aeca591141ebec50145b75cd" target="_top" xlink:title="Angle in degrees.">
<polygon fill="white" stroke="#666666" points="226.62,-184 122.88,-184 122.88,-152 226.62,-152 226.62,-184"/>
<text text-anchor="start" x="130.88" y="-172.4" font-family="SourceSans" font-size="8.00">svg::get_circumference</text>
<text text-anchor="middle" x="174.75" y="-160.4" font-family="SourceSans" font-size="8.00">_point_d</text>
</a>
</g>
</g>
<!-- Node1&#45;&gt;Node2 -->
<g id="edge1_Node000001_Node000002" class="edge">
<title>Node1&#45;&gt;Node2</title>
<g id="a_edge1_Node000001_Node000002"><a xlink:title=" ">
<path fill="none" stroke="#63b8ff" d="M52.88,-96.21C67.17,-108.4 92.46,-128.92 116.5,-143 118.51,-144.18 120.59,-145.33 122.7,-146.46"/>
<polygon fill="#63b8ff" stroke="#63b8ff" points="120.95,-149.5 131.46,-150.86 124.09,-143.25 120.95,-149.5"/>
</a>
</g>
</g>
<!-- Node4 -->
<g id="Node000004" class="node">
<title>Node4</title>
<g id="a_Node000004"><a xlink:href="namespacesvg.html#ae7eab6d9ce1f55bcbcc997cd24c5abcf" target="_top" xlink:title="Text with typography, arranged ccw around points (x,y) on a circle.">
<polygon fill="white" stroke="#666666" points="220.25,-134 129.25,-134 129.25,-114 220.25,-114 220.25,-134"/>
<text text-anchor="middle" x="174.75" y="-122.4" font-family="SourceSans" font-size="8.00">svg::radial_text_ccw</text>
</a>
</g>
</g>
<!-- Node1&#45;&gt;Node4 -->
<g id="edge3_Node000001_Node000004" class="edge">
<title>Node1&#45;&gt;Node4</title>
<g id="a_edge3_Node000001_Node000004"><a xlink:title=" ">
<path fill="none" stroke="#63b8ff" d="M77.81,-96.48C92.87,-100.8 110.51,-105.86 126.53,-110.46"/>
<polygon fill="#63b8ff" stroke="#63b8ff" points="125.28,-113.74 135.86,-113.13 127.21,-107.01 125.28,-113.74"/>
</a>
</g>
</g>
<!-- Node18 -->
<g id="Node000018" class="node">
<title>Node18</title>
<g id="a_Node000018"><a xlink:href="namespacesvg.html#a27b1041d0851178e4835e1f623a46161" target="_top" xlink:title="Text with typography, arranged cw around points (x,y) on a circle.">
<polygon fill="white" stroke="#666666" points="218.38,-96 131.12,-96 131.12,-76 218.38,-76 218.38,-96"/>
<text text-anchor="middle" x="174.75" y="-84.4" font-family="SourceSans" font-size="8.00">svg::radial_text_cw</text>
</a>
</g>
</g>
<!-- Node1&#45;&gt;Node18 -->
<g id="edge19_Node000001_Node000018" class="edge">
<title>Node1&#45;&gt;Node18</title>
<g id="a_edge19_Node000001_Node000018"><a xlink:title=" ">
<path fill="none" stroke="#63b8ff" d="M80.65,-86C92.92,-86 106.67,-86 119.76,-86"/>
<polygon fill="#63b8ff" stroke="#63b8ff" points="119.53,-89.5 129.53,-86 119.53,-82.5 119.53,-89.5"/>
</a>
</g>
</g>
<!-- Node19 -->
<g id="Node000019" class="node">
<title>Node19</title>
<g id="a_Node000019"><a xlink:href="namespacesvg.html#a010fea242a289d173d521b501140cd72" target="_top" xlink:title="Zero degrees is top, going clockwise (cw).">
<polygon fill="white" stroke="#666666" points="233,-58 116.5,-58 116.5,-38 233,-38 233,-58"/>
<text text-anchor="middle" x="174.75" y="-46.4" font-family="SourceSans" font-size="8.00">svg::zero_angle_north_ccw</text>
</a>
</g>
</g>
<!-- Node1&#45;&gt;Node19 -->
<g id="edge21_Node000001_Node000019" class="edge">
<title>Node1&#45;&gt;Node19</title>
<g id="a_edge21_Node000001_Node000019"><a xlink:title=" ">
<path fill="none" stroke="#63b8ff" d="M77.81,-75.52C92.87,-71.2 110.51,-66.14 126.53,-61.54"/>
<polygon fill="#63b8ff" stroke="#63b8ff" points="127.21,-64.99 135.86,-58.87 125.28,-58.26 127.21,-64.99"/>
</a>
</g>
</g>
<!-- Node20 -->
<g id="Node000020" class="node">
<title>Node20</title>
<g id="a_Node000020"><a xlink:href="namespacesvg.html#a46164d75fd5109e4ed8879abbacd5c11" target="_top" xlink:title="Zero degrees is top, going clockwise (cw).">
<polygon fill="white" stroke="#666666" points="231.12,-20 118.38,-20 118.38,0 231.12,0 231.12,-20"/>
<text text-anchor="middle" x="174.75" y="-8.4" font-family="SourceSans" font-size="8.00">svg::zero_angle_north_cw</text>
</a>
</g>
</g>
<!-- Node1&#45;&gt;Node20 -->
<g id="edge22_Node000001_Node000020" class="edge">
<title>Node1&#45;&gt;Node20</title>
<g id="a_edge22_Node000001_Node000020"><a xlink:title=" ">
<path fill="none" stroke="#63b8ff" d="M52.18,-75.86C66.16,-63.34 91.55,-42.13 116.5,-29 119.51,-27.42 122.67,-25.93 125.91,-24.54"/>
<polygon fill="#63b8ff" stroke="#63b8ff" points="126.93,-27.9 134.96,-20.99 124.37,-21.39 126.93,-27.9"/>
</a>
</g>
</g>
<!-- Node3 -->
<g id="Node000003" class="node">
<title>Node3</title>
<g id="a_Node000003"><a xlink:href="namespacesvg.html#aef05ac63d88a6102981d3faf37275297" target="_top" xlink:title="Angle in radians.">
<polygon fill="white" stroke="#666666" points="372.75,-184 269,-184 269,-152 372.75,-152 372.75,-184"/>
<text text-anchor="start" x="277" y="-172.4" font-family="SourceSans" font-size="8.00">svg::get_circumference</text>
<text text-anchor="middle" x="320.88" y="-160.4" font-family="SourceSans" font-size="8.00">_point_r</text>
</a>
</g>
</g>
<!-- Node2&#45;&gt;Node3 -->
<g id="edge2_Node000002_Node000003" class="edge">
<title>Node2&#45;&gt;Node3</title>
<g id="a_edge2_Node000002_Node000003"><a xlink:title=" ">
<path fill="none" stroke="#63b8ff" d="M226.97,-168C236.84,-168 247.29,-168 257.48,-168"/>
<polygon fill="#63b8ff" stroke="#63b8ff" points="257.31,-171.5 267.31,-168 257.31,-164.5 257.31,-171.5"/>
</a>
</g>
</g>
<!-- Node5 -->
<g id="Node000005" class="node">
<title>Node5</title>
<g id="a_Node000005"><a xlink:href="namespacesvg.html#a289756f72239f34c2e6df0f7d9dd2d29" target="_top" xlink:title="Text at @origin, with style and ... a transformation=rotation of @deg about @rorigin.">
<polygon fill="white" stroke="#666666" points="361.5,-115 280.25,-115 280.25,-95 361.5,-95 361.5,-115"/>
<text text-anchor="middle" x="320.88" y="-103.4" font-family="SourceSans" font-size="8.00">svg::styled_text_r</text>
</a>
</g>
</g>
<!-- Node4&#45;&gt;Node5 -->
<g id="edge4_Node000004_Node000005" class="edge">
<title>Node4&#45;&gt;Node5</title>
<g id="a_edge4_Node000004_Node000005"><a xlink:title=" ">
<path fill="none" stroke="#63b8ff" d="M220.56,-118.09C235.86,-116.08 253.07,-113.81 268.82,-111.73"/>
<polygon fill="#63b8ff" stroke="#63b8ff" points="269.02,-115.23 278.48,-110.46 268.1,-108.29 269.02,-115.23"/>
</a>
</g>
</g>
<!-- Node6 -->
<g id="Node000006" class="node">
<title>Node6</title>
<g id="a_Node000006"><a xlink:href="group__elements.html#aad29e1daf75bdcd69a39575a6807fa0f" target="_top" xlink:title="Either serialize immediately (as below), or create data structure that adds data to data_vec and then...">
<polygon fill="white" stroke="#666666" points="503.12,-265 415.12,-265 415.12,-233 503.12,-233 503.12,-265"/>
<text text-anchor="start" x="423.12" y="-253.4" font-family="SourceSans" font-size="8.00">svg::text_element::</text>
<text text-anchor="middle" x="459.12" y="-241.4" font-family="SourceSans" font-size="8.00">add_data</text>
</a>
</g>
</g>
<!-- Node5&#45;&gt;Node6 -->
<g id="edge5_Node000005_Node000006" class="edge">
<title>Node5&#45;&gt;Node6</title>
<g id="a_edge5_Node000005_Node000006"><a xlink:title=" ">
<path fill="none" stroke="#63b8ff" d="M337.82,-115.36C348.27,-122.52 361.96,-132.59 372.75,-143 398.83,-168.14 424.29,-201.19 440.52,-223.65"/>
<polygon fill="#63b8ff" stroke="#63b8ff" points="437.56,-225.53 446.22,-231.64 443.26,-221.46 437.56,-225.53"/>
</a>
</g>
</g>
<!-- Node13 -->
<g id="Node000013" class="node">
<title>Node13</title>
<g id="a_Node000013"><a xlink:href="group__elements.html#aaa5f1a136f2b5c61d647a47ec53fe31d" target="_top" xlink:title=" ">
<polygon fill="white" stroke="#666666" points="509.5,-171 408.75,-171 408.75,-139 509.5,-139 509.5,-171"/>
<text text-anchor="start" x="416.75" y="-159.4" font-family="SourceSans" font-size="8.00">svg::svg_element::add</text>
<text text-anchor="middle" x="459.12" y="-147.4" font-family="SourceSans" font-size="8.00">_element</text>
</a>
</g>
</g>
<!-- Node5&#45;&gt;Node13 -->
<g id="edge14_Node000005_Node000013" class="edge">
<title>Node5&#45;&gt;Node13</title>
<g id="a_edge14_Node000005_Node000013"><a xlink:title=" ">
<path fill="none" stroke="#63b8ff" d="M350.44,-115.48C365.57,-121.03 384.68,-128.05 402.58,-134.62"/>
<polygon fill="#63b8ff" stroke="#63b8ff" points="401.23,-137.85 411.82,-138.01 403.64,-131.28 401.23,-137.85"/>
</a>
</g>
</g>
<!-- Node15 -->
<g id="Node000015" class="node">
<title>Node15</title>
<g id="a_Node000015"><a xlink:href="group__elements.html#ga13c46848317034d16c62a7d2061ba3d6" target="_top" xlink:title=" ">
<polygon fill="white" stroke="#666666" points="503.12,-121 415.12,-121 415.12,-89 503.12,-89 503.12,-121"/>
<text text-anchor="start" x="423.12" y="-109.4" font-family="SourceSans" font-size="8.00">svg::text_element::</text>
<text text-anchor="middle" x="459.12" y="-97.4" font-family="SourceSans" font-size="8.00">finish_element</text>
</a>
</g>
</g>
<!-- Node5&#45;&gt;Node15 -->
<g id="edge16_Node000005_Node000015" class="edge">
<title>Node5&#45;&gt;Node15</title>
<g id="a_edge16_Node000005_Node000015"><a xlink:title=" ">
<path fill="none" stroke="#63b8ff" d="M361.65,-105C374.66,-105 389.35,-105 403.27,-105"/>
<polygon fill="#63b8ff" stroke="#63b8ff" points="403.21,-108.5 413.21,-105 403.21,-101.5 403.21,-108.5"/>
</a>
</g>
</g>
<!-- Node16 -->
<g id="Node000016" class="node">
<title>Node16</title>
<g id="a_Node000016"><a xlink:href="structsvg_1_1transform.html#acf9836f4ba647f0dd2b53963a0f714d0" target="_top" xlink:title=" ">
<polygon fill="white" stroke="#666666" points="508,-71 410.25,-71 410.25,-51 508,-51 508,-71"/>
<text text-anchor="middle" x="459.12" y="-59.4" font-family="SourceSans" font-size="8.00">svg::transform::rotate</text>
</a>
</g>
</g>
<!-- Node5&#45;&gt;Node16 -->
<g id="edge17_Node000005_Node000016" class="edge">
<title>Node5&#45;&gt;Node16</title>
<g id="a_edge17_Node000005_Node000016"><a xlink:title=" ">
<path fill="none" stroke="#63b8ff" d="M354.16,-94.57C372.41,-88.68 395.44,-81.24 415.18,-74.87"/>
<polygon fill="#63b8ff" stroke="#63b8ff" points="416.19,-78.22 424.63,-71.82 414.04,-71.56 416.19,-78.22"/>
</a>
</g>
</g>
<!-- Node17 -->
<g id="Node000017" class="node">
<title>Node17</title>
<g id="a_Node000017"><a xlink:href="group__elements.html#ae45bec611a6ec17ea46aab6d680ae042" target="_top" xlink:title=" ">
<polygon fill="white" stroke="#666666" points="503.12,-33 415.12,-33 415.12,-1 503.12,-1 503.12,-33"/>
<text text-anchor="start" x="423.12" y="-21.4" font-family="SourceSans" font-size="8.00">svg::text_element::</text>
<text text-anchor="middle" x="459.12" y="-9.4" font-family="SourceSans" font-size="8.00">start_element</text>
</a>
</g>
</g>
<!-- Node5&#45;&gt;Node17 -->
<g id="edge18_Node000005_Node000017" class="edge">
<title>Node5&#45;&gt;Node17</title>
<g id="a_edge18_Node000005_Node000017"><a xlink:title=" ">
<path fill="none" stroke="#63b8ff" d="M334.67,-94.72C351.24,-81.66 381.24,-58.79 408.75,-42 410.56,-40.89 412.43,-39.79 414.34,-38.7"/>
<polygon fill="#63b8ff" stroke="#63b8ff" points="415.6,-42 422.68,-34.11 412.23,-35.86 415.6,-42"/>
</a>
</g>
</g>
<!-- Node7 -->
<g id="Node000007" class="node">
<title>Node7</title>
<g id="a_Node000007"><a xlink:href="structsvg_1_1typography.html#adbc62f74f1fed3f7c77567250f084f83" target="_top" xlink:title=" ">
<polygon fill="white" stroke="#666666" points="644,-331 547.75,-331 547.75,-299 644,-299 644,-331"/>
<text text-anchor="start" x="555.75" y="-319.4" font-family="SourceSans" font-size="8.00">svg::typography::add</text>
<text text-anchor="middle" x="595.88" y="-307.4" font-family="SourceSans" font-size="8.00">_attribute</text>
</a>
</g>
</g>
<!-- Node6&#45;&gt;Node7 -->
<g id="edge6_Node000006_Node000007" class="edge">
<title>Node6&#45;&gt;Node7</title>
<g id="a_edge6_Node000006_Node000007"><a xlink:title=" ">
<path fill="none" stroke="#63b8ff" d="M493.78,-265.48C511.2,-274.01 532.66,-284.53 551.32,-293.67"/>
<polygon fill="#63b8ff" stroke="#63b8ff" points="549.77,-296.8 560.29,-298.06 552.85,-290.52 549.77,-296.8"/>
</a>
</g>
</g>
<!-- Node8 -->
<g id="Node000008" class="node">
<title>Node8</title>
<g id="a_Node000008"><a xlink:href="namespacesvg.html#a48ac748e89e22789d1772326a98dd7b6" target="_top" xlink:title=" ">
<polygon fill="white" stroke="#666666" points="770.25,-369 683,-369 683,-349 770.25,-349 770.25,-369"/>
<text text-anchor="middle" x="726.62" y="-357.4" font-family="SourceSans" font-size="8.00">svg::string_replace</text>
</a>
</g>
</g>
<!-- Node6&#45;&gt;Node8 -->
<g id="edge12_Node000006_Node000008" class="edge">
<title>Node6&#45;&gt;Node8</title>
<g id="a_edge12_Node000006_Node000008"><a xlink:title=" ">
<path fill="none" stroke="#63b8ff" d="M470.16,-265.5C484.12,-286.8 511.55,-323.13 545.5,-340 584.55,-359.4 634.14,-363.36 671.39,-362.91"/>
<polygon fill="#63b8ff" stroke="#63b8ff" points="671.11,-366.42 681.02,-362.68 670.94,-359.42 671.11,-366.42"/>
</a>
</g>
</g>
<!-- Node9 -->
<g id="Node000009" class="node">
<title>Node9</title>
<g id="a_Node000009"><a xlink:href="namespacesvg.html#a36b1c48ad4601b205790e3772ad0a7b6" target="_top" xlink:title=" ">
<polygon fill="white" stroke="#666666" points="760.12,-281 693.12,-281 693.12,-261 760.12,-261 760.12,-281"/>
<text text-anchor="middle" x="726.62" y="-269.4" font-family="SourceSans" font-size="8.00">svg::to_string</text>
</a>
</g>
</g>
<!-- Node6&#45;&gt;Node9 -->
<g id="edge13_Node000006_Node000009" class="edge">
<title>Node6&#45;&gt;Node9</title>
<g id="a_edge13_Node000006_Node000009"><a xlink:title=" ">
<path fill="none" stroke="#63b8ff" d="M503.37,-252.58C552.48,-256.65 632.18,-263.26 681.6,-267.35"/>
<polygon fill="#63b8ff" stroke="#63b8ff" points="681.11,-270.82 691.37,-268.16 681.69,-263.85 681.11,-270.82"/>
</a>
</g>
</g>
<!-- Node11 -->
<g id="Node000011" class="node">
<title>Node11</title>
<g id="a_Node000011"><a xlink:href="group__elements.html#a1ed006cabdb9c531c2bd8e27ea9e0966" target="_top" xlink:title=" ">
<polygon fill="white" stroke="#666666" points="639.88,-243 551.88,-243 551.88,-211 639.88,-211 639.88,-243"/>
<text text-anchor="start" x="559.88" y="-231.4" font-family="SourceSans" font-size="8.00">svg::text_element::</text>
<text text-anchor="middle" x="595.88" y="-219.4" font-family="SourceSans" font-size="8.00">add_text</text>
</a>
</g>
</g>
<!-- Node6&#45;&gt;Node11 -->
<g id="edge10_Node000006_Node000011" class="edge">
<title>Node6&#45;&gt;Node11</title>
<g id="a_edge10_Node000006_Node000011"><a xlink:title=" ">
<path fill="none" stroke="#63b8ff" d="M503.5,-241.92C515.28,-239.99 528.19,-237.89 540.5,-235.88"/>
<polygon fill="#63b8ff" stroke="#63b8ff" points="540.78,-239.38 550.09,-234.31 539.65,-232.47 540.78,-239.38"/>
</a>
</g>
</g>
<!-- Node12 -->
<g id="Node000012" class="node">
<title>Node12</title>
<g id="a_Node000012"><a xlink:href="group__elements.html#a53d72a7ff728ad1d4d027254530bcf3d" target="_top" xlink:title="Common transforms include rotate(180)">
<polygon fill="white" stroke="#666666" points="641.38,-193 550.38,-193 550.38,-161 641.38,-161 641.38,-193"/>
<text text-anchor="start" x="558.38" y="-181.4" font-family="SourceSans" font-size="8.00">svg::element_base::</text>
<text text-anchor="middle" x="595.88" y="-169.4" font-family="SourceSans" font-size="8.00">add_transform</text>
</a>
</g>
</g>
<!-- Node6&#45;&gt;Node12 -->
<g id="edge11_Node000006_Node000012" class="edge">
<title>Node6&#45;&gt;Node12</title>
<g id="a_edge11_Node000006_Node000012"><a xlink:title=" ">
<path fill="none" stroke="#63b8ff" d="M489.23,-232.65C505.67,-223.5 526.65,-211.96 545.5,-202 547.59,-200.9 549.74,-199.77 551.91,-198.64"/>
<polygon fill="#63b8ff" stroke="#63b8ff" points="553.49,-201.76 560.78,-194.08 550.29,-195.54 553.49,-201.76"/>
</a>
</g>
</g>
<!-- Node7&#45;&gt;Node8 -->
<g id="edge7_Node000007_Node000008" class="edge">
<title>Node7&#45;&gt;Node8</title>
<g id="a_edge7_Node000007_Node000008"><a xlink:title=" ">
<path fill="none" stroke="#63b8ff" d="M644.45,-331.26C657.53,-335.73 671.6,-340.54 684.29,-344.87"/>
<polygon fill="#63b8ff" stroke="#63b8ff" points="683,-348.13 693.6,-348.05 685.27,-341.51 683,-348.13"/>
</a>
</g>
</g>
<!-- Node7&#45;&gt;Node9 -->
<g id="edge8_Node000007_Node000009" class="edge">
<title>Node7&#45;&gt;Node9</title>
<g id="a_edge8_Node000007_Node000009"><a xlink:title=" ">
<path fill="none" stroke="#63b8ff" d="M644.45,-298.74C657.53,-294.27 671.6,-289.46 684.29,-285.13"/>
<polygon fill="#63b8ff" stroke="#63b8ff" points="685.27,-288.49 693.6,-281.95 683,-281.87 685.27,-288.49"/>
</a>
</g>
</g>
<!-- Node10 -->
<g id="Node000010" class="node">
<title>Node10</title>
<g id="a_Node000010"><a xlink:href="structsvg_1_1typography.html#a174c1ffb4e56214d71523ffe7e422561" target="_top" xlink:title=" ">
<polygon fill="white" stroke="#666666" points="771,-331 682.25,-331 682.25,-299 771,-299 771,-331"/>
<text text-anchor="start" x="690.25" y="-319.4" font-family="SourceSans" font-size="8.00">svg::typography::to</text>
<text text-anchor="middle" x="726.62" y="-307.4" font-family="SourceSans" font-size="8.00">_string</text>
</a>
</g>
</g>
<!-- Node7&#45;&gt;Node10 -->
<g id="edge9_Node000007_Node000010" class="edge">
<title>Node7&#45;&gt;Node10</title>
<g id="a_edge9_Node000007_Node000010"><a xlink:title=" ">
<path fill="none" stroke="#63b8ff" d="M644.45,-315C653.02,-315 662.01,-315 670.77,-315"/>
<polygon fill="#63b8ff" stroke="#63b8ff" points="670.56,-318.5 680.56,-315 670.56,-311.5 670.56,-318.5"/>
</a>
</g>
</g>
<!-- Node14 -->
<g id="Node000014" class="node">
<title>Node14</title>
<g id="a_Node000014"><a xlink:href="group__elements.html#ad893ef9c13a15464c96d8a85c08af30f" target="_top" xlink:title=" ">
<polygon fill="white" stroke="#666666" points="646.25,-143 545.5,-143 545.5,-123 646.25,-123 646.25,-143"/>
<text text-anchor="middle" x="595.88" y="-131.4" font-family="SourceSans" font-size="8.00">svg::element_base::str</text>
</a>
</g>
</g>
<!-- Node13&#45;&gt;Node14 -->
<g id="edge15_Node000013_Node000014" class="edge">
<title>Node13&#45;&gt;Node14</title>
<g id="a_edge15_Node000013_Node000014"><a xlink:title=" ">
<path fill="none" stroke="#63b8ff" d="M509.92,-146.87C517.77,-145.59 525.95,-144.25 534.02,-142.94"/>
<polygon fill="#63b8ff" stroke="#63b8ff" points="534.49,-146.41 543.79,-141.34 533.36,-139.5 534.49,-146.41"/>
</a>
</g>
</g>
<!-- Node18&#45;&gt;Node5 -->
<g id="edge20_Node000018_Node000005" class="edge">
<title>Node18&#45;&gt;Node5</title>
<g id="a_edge20_Node000018_Node000005"><a xlink:title=" ">
<path fill="none" stroke="#63b8ff" d="M218.6,-91.65C234.38,-93.73 252.4,-96.11 268.83,-98.27"/>
<polygon fill="#63b8ff" stroke="#63b8ff" points="268.03,-101.7 278.4,-99.53 268.94,-94.76 268.03,-101.7"/>
</a>
</g>
</g>
</g>
</svg>
