<?xml version="1.0" encoding="UTF-8" standalone="no"?>
<!DOCTYPE svg PUBLIC "-//W3C//DTD SVG 1.1//EN"
 "http://www.w3.org/Graphics/SVG/1.1/DTD/svg11.dtd">
<!-- Generated by graphviz version 12.2.1 (20241206.2353)
 -->
<!-- Title: svg::make_line_graph_annotations Pages: 1 -->
<!--zoomable 420 -->

<svg id="main" version="1.1" xmlns="http://www.w3.org/2000/svg" xmlns:xlink="http://www.w3.org/1999/xlink" xml:space="preserve" onload="init(evt)">

<style type="text/css"><![CDATA[
.node, .edge {opacity: 0.7;}
.node.selected, .edge.selected {opacity: 1;}
.edge:hover path { stroke: red; }
.edge:hover polygon { stroke: red; fill: red; }
]]></style>

<defs>
  <circle id="rim" cx="0" cy="0" r="7"/>
  <circle id="rim2" cx="0" cy="0" r="3.5"/>
  <g id="zoomPlus">
    <use xlink:href="#rim" fill="#404040"><set attributeName="fill" to="#808080" begin="zoomplus.mouseover" end="zoomplus.mouseout"/></use>
    <path d="M-4,0h8M0,-4v8" fill="none" stroke="white" stroke-width="1.5" pointer-events="none"/>
  </g>
  <g id="zoomMin">
    <use xlink:href="#rim" fill="#404040"><set attributeName="fill" to="#808080" begin="zoomminus.mouseover" end="zoomminus.mouseout"/></use>
    <path d="M-4,0h8" fill="none" stroke="white" stroke-width="1.5" pointer-events="none"/>
  </g>
  <g id="arrowUp" transform="translate(30 24)">
    <use xlink:href="#rim"/>
    <path pointer-events="none" fill="none" stroke="white" stroke-width="1.5" d="M0,-3.0v7 M-2.5,-0.5L0,-3.0L2.5,-0.5"/>
  </g>
  <g id="arrowRight" transform="rotate(90) translate(36 -43)">
    <use xlink:href="#rim"/>
    <path pointer-events="none" fill="none" stroke="white" stroke-width="1.5" d="M0,-3.0v7 M-2.5,-0.5L0,-3.0L2.5,-0.5"/>
  </g>
  <g id="arrowDown" transform="rotate(180) translate(-30 -48)">
    <use xlink:href="#rim"/>
    <path pointer-events="none" fill="none" stroke="white" stroke-width="1.5" d="M0,-3.0v7 M-2.5,-0.5L0,-3.0L2.5,-0.5"/>
  </g>
  <g id="arrowLeft" transform="rotate(270) translate(-36 17)">
    <use xlink:href="#rim"/>
    <path pointer-events="none" fill="none" stroke="white" stroke-width="1.5" d="M0,-3.0v7 M-2.5,-0.5L0,-3.0L2.5,-0.5"/>
  </g>
  <g id="resetDef">
    <use xlink:href="#rim2" fill="#404040"><set attributeName="fill" to="#808080" begin="reset.mouseover" end="reset.mouseout"/></use>
  </g>
</defs>
<script type="application/ecmascript">
var viewWidth = 814;
var viewHeight = 420;
var sectionId = 'dynsection-40';
</script>
<script type="application/ecmascript" xlink:href="svg.min.js"/>
<svg id="graph" class="graph">
<g id="viewport">
<title>svg::make_line_graph_annotations</title>
<!-- Node1 -->
<g id="Node000001" class="node">
<title>Node1</title>
<g id="a_Node000001"><a xlink:title="Axis Labels Axis X/Y Ticmarks X line increments.">
<polygon fill="#999999" stroke="#666666" points="104.5,-178.5 0,-178.5 0,-151 104.5,-151 104.5,-178.5"/>
<text text-anchor="start" x="8" y="-166.9" font-family="SourceSans" font-size="8.00">svg::make_line_graph</text>
<text text-anchor="middle" x="52.25" y="-157.15" font-family="SourceSans" font-size="8.00">_annotations</text>
</a>
</g>
</g>
<!-- Node2 -->
<g id="Node000002" class="node">
<title>Node2</title>
<g id="a_Node000002"><a xlink:href="group__elements.html#ada0333b46b2547c6152f3f5811016a12" target="_top" xlink:title=" ">
<polygon fill="white" stroke="#666666" points="387.75,-321.5 287.75,-321.5 287.75,-294 387.75,-294 387.75,-321.5"/>
<text text-anchor="start" x="295.75" y="-309.9" font-family="SourceSans" font-size="8.00">svg::element_base::</text>
<text text-anchor="middle" x="337.75" y="-300.15" font-family="SourceSans" font-size="8.00">add_element</text>
</a>
</g>
</g>
<!-- Node1&#45;&gt;Node2 -->
<g id="edge1_Node000001_Node000002" class="edge">
<title>Node1&#45;&gt;Node2</title>
<g id="a_edge1_Node000001_Node000002"><a xlink:title=" ">
<path fill="none" stroke="#63b8ff" d="M58.88,-178.82C70.08,-204.76 97.81,-259.77 140.5,-284.75 181.28,-308.61 234.98,-313.45 275.9,-312.84"/>
<polygon fill="#63b8ff" stroke="#63b8ff" points="275.94,-316.34 285.84,-312.56 275.75,-309.34 275.94,-316.34"/>
</a>
</g>
</g>
<!-- Node4 -->
<g id="Node000004" class="node">
<title>Node4</title>
<g id="a_Node000004"><a xlink:href="group__elements.html#acafbdd950c6c2639c9d376c3eab696e5" target="_top" xlink:title=" ">
<polygon fill="white" stroke="#666666" points="246.12,-201.5 146.12,-201.5 146.12,-174 246.12,-174 246.12,-201.5"/>
<text text-anchor="start" x="154.12" y="-189.9" font-family="SourceSans" font-size="8.00">svg::element_base::</text>
<text text-anchor="middle" x="196.12" y="-180.15" font-family="SourceSans" font-size="8.00">add_raw</text>
</a>
</g>
</g>
<!-- Node1&#45;&gt;Node4 -->
<g id="edge3_Node000001_Node000004" class="edge">
<title>Node1&#45;&gt;Node4</title>
<g id="a_edge3_Node000001_Node000004"><a xlink:title=" ">
<path fill="none" stroke="#63b8ff" d="M104.87,-173.12C114.44,-174.67 124.51,-176.3 134.32,-177.89"/>
<polygon fill="#63b8ff" stroke="#63b8ff" points="133.75,-181.35 144.18,-179.49 134.87,-174.44 133.75,-181.35"/>
</a>
</g>
</g>
<!-- Node5 -->
<g id="Node000005" class="node">
<title>Node5</title>
<g id="a_Node000005"><a xlink:href="group__elements.html#a71cf2eb89a562527f14c4ca4c027c2b9" target="_top" xlink:title=" ">
<polygon fill="white" stroke="#666666" points="244.62,-155.5 147.62,-155.5 147.62,-128 244.62,-128 244.62,-155.5"/>
<text text-anchor="start" x="155.62" y="-143.9" font-family="SourceSans" font-size="8.00">svg::group_element</text>
<text text-anchor="middle" x="196.12" y="-134.15" font-family="SourceSans" font-size="8.00">::finish_group</text>
</a>
</g>
</g>
<!-- Node1&#45;&gt;Node5 -->
<g id="edge4_Node000001_Node000005" class="edge">
<title>Node1&#45;&gt;Node5</title>
<g id="a_edge4_Node000001_Node000005"><a xlink:title=" ">
<path fill="none" stroke="#63b8ff" d="M104.87,-156.38C115.11,-154.72 125.93,-152.97 136.39,-151.27"/>
<polygon fill="#63b8ff" stroke="#63b8ff" points="136.74,-154.76 146.06,-149.7 135.62,-147.85 136.74,-154.76"/>
</a>
</g>
</g>
<!-- Node6 -->
<g id="Node000006" class="node">
<title>Node6</title>
<g id="a_Node000006"><a xlink:href="structsvg_1_1render__state__base.html#aa16790fbf40ef61f416151c89c267ef3" target="_top" xlink:title=" ">
<polygon fill="white" stroke="#666666" points="251.75,-109.5 140.5,-109.5 140.5,-82 251.75,-82 251.75,-109.5"/>
<text text-anchor="start" x="148.5" y="-97.9" font-family="SourceSans" font-size="8.00">svg::render_state_base</text>
<text text-anchor="middle" x="196.12" y="-88.15" font-family="SourceSans" font-size="8.00">::is_visible</text>
</a>
</g>
</g>
<!-- Node1&#45;&gt;Node6 -->
<g id="edge5_Node000001_Node000006" class="edge">
<title>Node1&#45;&gt;Node6</title>
<g id="a_edge5_Node000001_Node000006"><a xlink:title=" ">
<path fill="none" stroke="#63b8ff" d="M78.53,-150.67C95.8,-141.25 119.29,-128.78 140.5,-118.75 143.56,-117.3 146.74,-115.84 149.96,-114.4"/>
<polygon fill="#63b8ff" stroke="#63b8ff" points="151.1,-117.72 158.86,-110.51 148.3,-111.31 151.1,-117.72"/>
</a>
</g>
</g>
<!-- Node7 -->
<g id="Node000007" class="node">
<title>Node7</title>
<g id="a_Node000007"><a xlink:href="namespacesvg.html#a0352c1350268fb7ecd96ea81908417e7" target="_top" xlink:title="Line primitive.">
<polygon fill="white" stroke="#666666" points="517.38,-146.62 440.62,-146.62 440.62,-128.88 517.38,-128.88 517.38,-146.62"/>
<text text-anchor="middle" x="479" y="-135.03" font-family="SourceSans" font-size="8.00">svg::make_line</text>
</a>
</g>
</g>
<!-- Node1&#45;&gt;Node7 -->
<g id="edge6_Node000001_Node000007" class="edge">
<title>Node1&#45;&gt;Node7</title>
<g id="a_edge6_Node000001_Node000007"><a xlink:title=" ">
<path fill="none" stroke="#63b8ff" d="M73.26,-178.93C90.24,-190.04 115.73,-204.62 140.5,-210.75 255.03,-239.09 392.94,-180.71 450.59,-152.2"/>
<polygon fill="#63b8ff" stroke="#63b8ff" points="452.01,-155.4 459.36,-147.77 448.85,-149.15 452.01,-155.4"/>
</a>
</g>
</g>
<!-- Node14 -->
<g id="Node000014" class="node">
<title>Node14</title>
<g id="a_Node000014"><a xlink:href="namespacesvg.html#a9316267f4d5030ca298dbbe2d4c55b18" target="_top" xlink:title="For each dimension of vrnage, find min/max and return (xmax, ymax) NB: Assumes zero is min.">
<polygon fill="white" stroke="#666666" points="239,-63.62 153.25,-63.62 153.25,-45.88 239,-45.88 239,-63.62"/>
<text text-anchor="middle" x="196.12" y="-52.02" font-family="SourceSans" font-size="8.00">svg::max_vrange</text>
</a>
</g>
</g>
<!-- Node1&#45;&gt;Node14 -->
<g id="edge13_Node000001_Node000014" class="edge">
<title>Node1&#45;&gt;Node14</title>
<g id="a_edge13_Node000001_Node000014"><a xlink:title=" ">
<path fill="none" stroke="#63b8ff" d="M63.15,-150.51C77.82,-130.42 107.22,-93.85 140.5,-72.75 142.9,-71.23 145.44,-69.82 148.06,-68.53"/>
<polygon fill="#63b8ff" stroke="#63b8ff" points="149.24,-71.83 157.04,-64.65 146.47,-65.4 149.24,-71.83"/>
</a>
</g>
</g>
<!-- Node15 -->
<g id="Node000015" class="node">
<title>Node15</title>
<g id="a_Node000015"><a xlink:href="group__elements.html#a9b6e3d5d06ec76dc07afff3261e32487" target="_top" xlink:title=" ">
<polygon fill="white" stroke="#666666" points="244.62,-27.5 147.62,-27.5 147.62,0 244.62,0 244.62,-27.5"/>
<text text-anchor="start" x="155.62" y="-15.9" font-family="SourceSans" font-size="8.00">svg::group_element</text>
<text text-anchor="middle" x="196.12" y="-6.15" font-family="SourceSans" font-size="8.00">::start_group</text>
</a>
</g>
</g>
<!-- Node1&#45;&gt;Node15 -->
<g id="edge14_Node000001_Node000015" class="edge">
<title>Node1&#45;&gt;Node15</title>
<g id="a_edge14_Node000001_Node000015"><a xlink:title=" ">
<path fill="none" stroke="#63b8ff" d="M59.39,-150.88C71.44,-125.09 100.53,-69.44 140.5,-36.75 141.77,-35.71 143.09,-34.71 144.46,-33.75"/>
<polygon fill="#63b8ff" stroke="#63b8ff" points="145.93,-36.95 152.66,-28.77 142.3,-30.97 145.93,-36.95"/>
</a>
</g>
</g>
<!-- Node16 -->
<g id="Node000016" class="node">
<title>Node16</title>
<g id="a_Node000016"><a xlink:href="namespacesvg.html#a67906a7cc5e5a26f54de5d2c2a438b2a" target="_top" xlink:title="Text at.">
<polygon fill="white" stroke="#666666" points="236,-275.62 156.25,-275.62 156.25,-257.88 236,-257.88 236,-275.62"/>
<text text-anchor="middle" x="196.12" y="-264.02" font-family="SourceSans" font-size="8.00">svg::styled_text</text>
</a>
</g>
</g>
<!-- Node1&#45;&gt;Node16 -->
<g id="edge15_Node000001_Node000016" class="edge">
<title>Node1&#45;&gt;Node16</title>
<g id="a_edge15_Node000001_Node000016"><a xlink:title=" ">
<path fill="none" stroke="#63b8ff" d="M65.97,-178.89C82,-196.04 111.03,-224.98 140.5,-243.75 145.82,-247.14 151.71,-250.22 157.61,-252.95"/>
<polygon fill="#63b8ff" stroke="#63b8ff" points="156.15,-256.13 166.72,-256.87 158.92,-249.7 156.15,-256.13"/>
</a>
</g>
</g>
<!-- Node3 -->
<g id="Node000003" class="node">
<title>Node3</title>
<g id="a_Node000003"><a xlink:href="group__elements.html#ad893ef9c13a15464c96d8a85c08af30f" target="_top" xlink:title=" ">
<polygon fill="white" stroke="#666666" points="534.25,-362.62 423.75,-362.62 423.75,-344.88 534.25,-344.88 534.25,-362.62"/>
<text text-anchor="middle" x="479" y="-351.02" font-family="SourceSans" font-size="8.00">svg::element_base::str</text>
</a>
</g>
</g>
<!-- Node2&#45;&gt;Node3 -->
<g id="edge2_Node000002_Node000003" class="edge">
<title>Node2&#45;&gt;Node3</title>
<g id="a_edge2_Node000002_Node000003"><a xlink:title=" ">
<path fill="none" stroke="#63b8ff" d="M381.67,-321.93C399.98,-327.98 421.19,-334.98 439.04,-340.88"/>
<polygon fill="#63b8ff" stroke="#63b8ff" points="437.92,-344.2 448.51,-344.01 440.11,-337.55 437.92,-344.2"/>
</a>
</g>
</g>
<!-- Node8 -->
<g id="Node000008" class="node">
<title>Node8</title>
<g id="a_Node000008"><a xlink:href="group__elements.html#a306eac4c5a7ea755ab6375a65489366f" target="_top" xlink:title=" ">
<polygon fill="white" stroke="#666666" points="669.5,-281.5 574.75,-281.5 574.75,-254 669.5,-254 669.5,-281.5"/>
<text text-anchor="start" x="582.75" y="-269.9" font-family="SourceSans" font-size="8.00">svg::line_element::</text>
<text text-anchor="middle" x="622.12" y="-260.15" font-family="SourceSans" font-size="8.00">add_data</text>
</a>
</g>
</g>
<!-- Node7&#45;&gt;Node8 -->
<g id="edge7_Node000007_Node000008" class="edge">
<title>Node7&#45;&gt;Node8</title>
<g id="a_edge7_Node000007_Node000008"><a xlink:title=" ">
<path fill="none" stroke="#63b8ff" d="M488.7,-146.9C499.62,-158.48 518.79,-179.19 534.25,-197.75 551.09,-217.97 549.64,-228.39 570.25,-244.75 571.55,-245.79 572.91,-246.79 574.31,-247.75"/>
<polygon fill="#63b8ff" stroke="#63b8ff" points="572.34,-250.65 582.71,-252.83 575.96,-244.66 572.34,-250.65"/>
</a>
</g>
</g>
<!-- Node10 -->
<g id="Node000010" class="node">
<title>Node10</title>
<g id="a_Node000010"><a xlink:href="group__elements.html#a238b38ca99a1cf6c2baf80c8e4338d99" target="_top" xlink:title=" ">
<polygon fill="white" stroke="#666666" points="672.12,-59.5 572.12,-59.5 572.12,-32 672.12,-32 672.12,-59.5"/>
<text text-anchor="start" x="580.12" y="-47.9" font-family="SourceSans" font-size="8.00">svg::element_base::</text>
<text text-anchor="middle" x="622.12" y="-38.15" font-family="SourceSans" font-size="8.00">add_style</text>
</a>
</g>
</g>
<!-- Node7&#45;&gt;Node10 -->
<g id="edge9_Node000007_Node000010" class="edge">
<title>Node7&#45;&gt;Node10</title>
<g id="a_edge9_Node000007_Node000010"><a xlink:title=" ">
<path fill="none" stroke="#63b8ff" d="M490.54,-128.4C506.82,-114.27 539.44,-87.16 570.25,-68.75 572.38,-67.48 574.59,-66.23 576.85,-65.01"/>
<polygon fill="#63b8ff" stroke="#63b8ff" points="578.23,-68.24 585.56,-60.6 575.06,-62 578.23,-68.24"/>
</a>
</g>
</g>
<!-- Node12 -->
<g id="Node000012" class="node">
<title>Node12</title>
<g id="a_Node000012"><a xlink:href="group__elements.html#ga4769af15793cb308d426abb5fd552df5" target="_top" xlink:title=" ">
<polygon fill="white" stroke="#666666" points="669.5,-151.5 574.75,-151.5 574.75,-124 669.5,-124 669.5,-151.5"/>
<text text-anchor="start" x="582.75" y="-139.9" font-family="SourceSans" font-size="8.00">svg::line_element::</text>
<text text-anchor="middle" x="622.12" y="-130.15" font-family="SourceSans" font-size="8.00">finish_element</text>
</a>
</g>
</g>
<!-- Node7&#45;&gt;Node12 -->
<g id="edge11_Node000007_Node000012" class="edge">
<title>Node7&#45;&gt;Node12</title>
<g id="a_edge11_Node000007_Node000012"><a xlink:title=" ">
<path fill="none" stroke="#63b8ff" d="M517.82,-137.75C531.68,-137.75 547.7,-137.75 562.93,-137.75"/>
<polygon fill="#63b8ff" stroke="#63b8ff" points="562.86,-141.25 572.86,-137.75 562.86,-134.25 562.86,-141.25"/>
</a>
</g>
</g>
<!-- Node13 -->
<g id="Node000013" class="node">
<title>Node13</title>
<g id="a_Node000013"><a xlink:href="group__elements.html#aa6b4ba04be5858b4943235801f034943" target="_top" xlink:title=" ">
<polygon fill="white" stroke="#666666" points="669.5,-105.5 574.75,-105.5 574.75,-78 669.5,-78 669.5,-105.5"/>
<text text-anchor="start" x="582.75" y="-93.9" font-family="SourceSans" font-size="8.00">svg::line_element::</text>
<text text-anchor="middle" x="622.12" y="-84.15" font-family="SourceSans" font-size="8.00">start_element</text>
</a>
</g>
</g>
<!-- Node7&#45;&gt;Node13 -->
<g id="edge12_Node000007_Node000013" class="edge">
<title>Node7&#45;&gt;Node13</title>
<g id="a_edge12_Node000007_Node000013"><a xlink:title=" ">
<path fill="none" stroke="#63b8ff" d="M508.56,-128.44C525.28,-122.99 546.94,-115.93 566.79,-109.46"/>
<polygon fill="#63b8ff" stroke="#63b8ff" points="567.73,-112.84 576.15,-106.41 565.56,-106.18 567.73,-112.84"/>
</a>
</g>
</g>
<!-- Node9 -->
<g id="Node000009" class="node">
<title>Node9</title>
<g id="a_Node000009"><a xlink:href="namespacesvg.html#a48ac748e89e22789d1772326a98dd7b6" target="_top" xlink:title=" ">
<polygon fill="white" stroke="#666666" points="804.75,-276.62 711.5,-276.62 711.5,-258.88 804.75,-258.88 804.75,-276.62"/>
<text text-anchor="middle" x="758.12" y="-265.02" font-family="SourceSans" font-size="8.00">svg::string_replace</text>
</a>
</g>
</g>
<!-- Node8&#45;&gt;Node9 -->
<g id="edge8_Node000008_Node000009" class="edge">
<title>Node8&#45;&gt;Node9</title>
<g id="a_edge8_Node000008_Node000009"><a xlink:title=" ">
<path fill="none" stroke="#63b8ff" d="M669.99,-267.75C679.75,-267.75 690.14,-267.75 700.22,-267.75"/>
<polygon fill="#63b8ff" stroke="#63b8ff" points="699.9,-271.25 709.9,-267.75 699.9,-264.25 699.9,-271.25"/>
</a>
</g>
</g>
<!-- Node11 -->
<g id="Node000011" class="node">
<title>Node11</title>
<g id="a_Node000011"><a xlink:href="namespacesvg.html#a36b1c48ad4601b205790e3772ad0a7b6" target="_top" xlink:title=" ">
<polygon fill="white" stroke="#666666" points="793.88,-188.62 722.38,-188.62 722.38,-170.88 793.88,-170.88 793.88,-188.62"/>
<text text-anchor="middle" x="758.12" y="-177.03" font-family="SourceSans" font-size="8.00">svg::to_string</text>
</a>
</g>
</g>
<!-- Node10&#45;&gt;Node11 -->
<g id="edge10_Node000010_Node000011" class="edge">
<title>Node10&#45;&gt;Node11</title>
<g id="a_edge10_Node000010_Node000011"><a xlink:title=" ">
<path fill="none" stroke="#63b8ff" d="M660.54,-59.99C665.29,-62.56 669.92,-65.47 674,-68.75 706.57,-94.89 733.16,-136.56 746.93,-160.72"/>
<polygon fill="#63b8ff" stroke="#63b8ff" points="743.68,-162.09 751.59,-169.14 749.81,-158.7 743.68,-162.09"/>
</a>
</g>
</g>
<!-- Node16&#45;&gt;Node2 -->
<g id="edge16_Node000016_Node000002" class="edge">
<title>Node16&#45;&gt;Node2</title>
<g id="a_edge16_Node000016_Node000002"><a xlink:title=" ">
<path fill="none" stroke="#63b8ff" d="M228.81,-276.05C243.26,-280.3 260.86,-285.47 277.62,-290.39"/>
<polygon fill="#63b8ff" stroke="#63b8ff" points="276.44,-293.69 287.02,-293.15 278.41,-286.97 276.44,-293.69"/>
</a>
</g>
</g>
<!-- Node17 -->
<g id="Node000017" class="node">
<title>Node17</title>
<g id="a_Node000017"><a xlink:href="namespacesvg.html#a0e9e70f0f3460e0edbfff4c40e56c1a0" target="_top" xlink:title="Text elemetn at.">
<polygon fill="white" stroke="#666666" points="375,-275.62 300.5,-275.62 300.5,-257.88 375,-257.88 375,-275.62"/>
<text text-anchor="middle" x="337.75" y="-264.02" font-family="SourceSans" font-size="8.00">svg::style_text</text>
</a>
</g>
</g>
<!-- Node16&#45;&gt;Node17 -->
<g id="edge17_Node000016_Node000017" class="edge">
<title>Node16&#45;&gt;Node17</title>
<g id="a_edge17_Node000016_Node000017"><a xlink:title=" ">
<path fill="none" stroke="#63b8ff" d="M236.39,-266.75C252.64,-266.75 271.65,-266.75 288.72,-266.75"/>
<polygon fill="#63b8ff" stroke="#63b8ff" points="288.66,-270.25 298.66,-266.75 288.66,-263.25 288.66,-270.25"/>
</a>
</g>
</g>
<!-- Node18 -->
<g id="Node000018" class="node">
<title>Node18</title>
<g id="a_Node000018"><a xlink:href="group__elements.html#aad29e1daf75bdcd69a39575a6807fa0f" target="_top" xlink:title="Either serialize immediately (as below), or create data structure that adds data to data_vec and then...">
<polygon fill="white" stroke="#666666" points="526.38,-280.5 431.62,-280.5 431.62,-253 526.38,-253 526.38,-280.5"/>
<text text-anchor="start" x="439.62" y="-268.9" font-family="SourceSans" font-size="8.00">svg::text_element::</text>
<text text-anchor="middle" x="479" y="-259.15" font-family="SourceSans" font-size="8.00">add_data</text>
</a>
</g>
</g>
<!-- Node17&#45;&gt;Node18 -->
<g id="edge18_Node000017_Node000018" class="edge">
<title>Node17&#45;&gt;Node18</title>
<g id="a_edge18_Node000017_Node000018"><a xlink:title=" ">
<path fill="none" stroke="#63b8ff" d="M375.34,-266.75C388.95,-266.75 404.76,-266.75 419.83,-266.75"/>
<polygon fill="#63b8ff" stroke="#63b8ff" points="419.65,-270.25 429.65,-266.75 419.65,-263.25 419.65,-270.25"/>
</a>
</g>
</g>
<!-- Node23 -->
<g id="Node000023" class="node">
<title>Node23</title>
<g id="a_Node000023"><a xlink:href="group__elements.html#ga13c46848317034d16c62a7d2061ba3d6" target="_top" xlink:title=" ">
<polygon fill="white" stroke="#666666" points="526.38,-234.5 431.62,-234.5 431.62,-207 526.38,-207 526.38,-234.5"/>
<text text-anchor="start" x="439.62" y="-222.9" font-family="SourceSans" font-size="8.00">svg::text_element::</text>
<text text-anchor="middle" x="479" y="-213.15" font-family="SourceSans" font-size="8.00">finish_element</text>
</a>
</g>
</g>
<!-- Node17&#45;&gt;Node23 -->
<g id="edge27_Node000017_Node000023" class="edge">
<title>Node17&#45;&gt;Node23</title>
<g id="a_edge27_Node000017_Node000023"><a xlink:title=" ">
<path fill="none" stroke="#63b8ff" d="M366.93,-257.44C383.35,-252.02 404.6,-245 424.11,-238.55"/>
<polygon fill="#63b8ff" stroke="#63b8ff" points="425.21,-241.88 433.61,-235.42 423.01,-235.23 425.21,-241.88"/>
</a>
</g>
</g>
<!-- Node24 -->
<g id="Node000024" class="node">
<title>Node24</title>
<g id="a_Node000024"><a xlink:href="group__elements.html#ae45bec611a6ec17ea46aab6d680ae042" target="_top" xlink:title=" ">
<polygon fill="white" stroke="#666666" points="526.38,-326.5 431.62,-326.5 431.62,-299 526.38,-299 526.38,-326.5"/>
<text text-anchor="start" x="439.62" y="-314.9" font-family="SourceSans" font-size="8.00">svg::text_element::</text>
<text text-anchor="middle" x="479" y="-305.15" font-family="SourceSans" font-size="8.00">start_element</text>
</a>
</g>
</g>
<!-- Node17&#45;&gt;Node24 -->
<g id="edge28_Node000017_Node000024" class="edge">
<title>Node17&#45;&gt;Node24</title>
<g id="a_edge28_Node000017_Node000024"><a xlink:title=" ">
<path fill="none" stroke="#63b8ff" d="M366.93,-276.06C383.35,-281.48 404.6,-288.5 424.11,-294.95"/>
<polygon fill="#63b8ff" stroke="#63b8ff" points="423.01,-298.27 433.61,-298.08 425.21,-291.62 423.01,-298.27"/>
</a>
</g>
</g>
<!-- Node18&#45;&gt;Node9 -->
<g id="edge25_Node000018_Node000009" class="edge">
<title>Node18&#45;&gt;Node9</title>
<g id="a_edge25_Node000018_Node000009"><a xlink:title=" ">
<path fill="none" stroke="#63b8ff" d="M524.07,-280.92C538.61,-284.93 554.98,-288.75 570.25,-290.75 615.97,-296.73 628.31,-296.95 674,-290.75 689.22,-288.68 705.59,-284.58 719.74,-280.4"/>
<polygon fill="#63b8ff" stroke="#63b8ff" points="720.58,-283.81 729.11,-277.52 718.52,-277.12 720.58,-283.81"/>
</a>
</g>
</g>
<!-- Node18&#45;&gt;Node11 -->
<g id="edge26_Node000018_Node000011" class="edge">
<title>Node18&#45;&gt;Node11</title>
<g id="a_edge26_Node000018_Node000011"><a xlink:title=" ">
<path fill="none" stroke="#63b8ff" d="M519.8,-252.62C524.89,-250.04 529.85,-247.09 534.25,-243.75 554.66,-228.28 547.76,-211 570.25,-198.75 613.56,-175.16 670.9,-172.81 710.6,-174.84"/>
<polygon fill="#63b8ff" stroke="#63b8ff" points="710.34,-178.33 720.55,-175.47 710.79,-171.34 710.34,-178.33"/>
</a>
</g>
</g>
<!-- Node19 -->
<g id="Node000019" class="node">
<title>Node19</title>
<g id="a_Node000019"><a xlink:href="structsvg_1_1typography.html#adbc62f74f1fed3f7c77567250f084f83" target="_top" xlink:title=" ">
<polygon fill="white" stroke="#666666" points="674,-235.5 570.25,-235.5 570.25,-208 674,-208 674,-235.5"/>
<text text-anchor="start" x="578.25" y="-223.9" font-family="SourceSans" font-size="8.00">svg::typography::add</text>
<text text-anchor="middle" x="622.12" y="-214.15" font-family="SourceSans" font-size="8.00">_attribute</text>
</a>
</g>
</g>
<!-- Node18&#45;&gt;Node19 -->
<g id="edge19_Node000018_Node000019" class="edge">
<title>Node18&#45;&gt;Node19</title>
<g id="a_edge19_Node000018_Node000019"><a xlink:title=" ">
<path fill="none" stroke="#63b8ff" d="M524.65,-252.51C537.78,-248.33 552.29,-243.7 565.99,-239.33"/>
<polygon fill="#63b8ff" stroke="#63b8ff" points="566.86,-242.73 575.32,-236.36 564.73,-236.06 566.86,-242.73"/>
</a>
</g>
</g>
<!-- Node21 -->
<g id="Node000021" class="node">
<title>Node21</title>
<g id="a_Node000021"><a xlink:href="group__elements.html#a1ed006cabdb9c531c2bd8e27ea9e0966" target="_top" xlink:title=" ">
<polygon fill="white" stroke="#666666" points="669.5,-411.5 574.75,-411.5 574.75,-384 669.5,-384 669.5,-411.5"/>
<text text-anchor="start" x="582.75" y="-399.9" font-family="SourceSans" font-size="8.00">svg::text_element::</text>
<text text-anchor="middle" x="622.12" y="-390.15" font-family="SourceSans" font-size="8.00">add_text</text>
</a>
</g>
</g>
<!-- Node18&#45;&gt;Node21 -->
<g id="edge23_Node000018_Node000021" class="edge">
<title>Node18&#45;&gt;Node21</title>
<g id="a_edge23_Node000018_Node000021"><a xlink:title=" ">
<path fill="none" stroke="#63b8ff" d="M522.64,-280.91C526.87,-283.42 530.85,-286.35 534.25,-289.75 563.25,-318.77 541.59,-345.39 570.25,-374.75 570.98,-375.49 571.73,-376.21 572.51,-376.92"/>
<polygon fill="#63b8ff" stroke="#63b8ff" points="570.29,-379.62 580.42,-382.73 574.43,-373.98 570.29,-379.62"/>
</a>
</g>
</g>
<!-- Node22 -->
<g id="Node000022" class="node">
<title>Node22</title>
<g id="a_Node000022"><a xlink:href="group__elements.html#a53d72a7ff728ad1d4d027254530bcf3d" target="_top" xlink:title="Common transforms include rotate(180)">
<polygon fill="white" stroke="#666666" points="672.12,-365.5 572.12,-365.5 572.12,-338 672.12,-338 672.12,-365.5"/>
<text text-anchor="start" x="580.12" y="-353.9" font-family="SourceSans" font-size="8.00">svg::element_base::</text>
<text text-anchor="middle" x="622.12" y="-344.15" font-family="SourceSans" font-size="8.00">add_transform</text>
</a>
</g>
</g>
<!-- Node18&#45;&gt;Node22 -->
<g id="edge24_Node000018_Node000022" class="edge">
<title>Node18&#45;&gt;Node22</title>
<g id="a_edge24_Node000018_Node000022"><a xlink:title=" ">
<path fill="none" stroke="#63b8ff" d="M518.24,-280.92C523.78,-283.55 529.28,-286.5 534.25,-289.75 552.67,-301.79 552.47,-310.78 570.25,-323.75 574.1,-326.56 578.26,-329.28 582.49,-331.86"/>
<polygon fill="#63b8ff" stroke="#63b8ff" points="580.64,-334.83 591.05,-336.81 584.15,-328.77 580.64,-334.83"/>
</a>
</g>
</g>
<!-- Node19&#45;&gt;Node9 -->
<g id="edge20_Node000019_Node000009" class="edge">
<title>Node19&#45;&gt;Node9</title>
<g id="a_edge20_Node000019_Node000009"><a xlink:title=" ">
<path fill="none" stroke="#63b8ff" d="M664.42,-235.93C681.96,-241.95 702.26,-248.92 719.39,-254.8"/>
<polygon fill="#63b8ff" stroke="#63b8ff" points="718.1,-258.06 728.7,-257.99 720.38,-251.43 718.1,-258.06"/>
</a>
</g>
</g>
<!-- Node19&#45;&gt;Node11 -->
<g id="edge21_Node000019_Node000011" class="edge">
<title>Node19&#45;&gt;Node11</title>
<g id="a_edge21_Node000019_Node000011"><a xlink:title=" ">
<path fill="none" stroke="#63b8ff" d="M668.49,-207.53C684.13,-202.63 701.54,-197.17 716.75,-192.4"/>
<polygon fill="#63b8ff" stroke="#63b8ff" points="717.45,-195.85 725.94,-189.52 715.35,-189.17 717.45,-195.85"/>
</a>
</g>
</g>
<!-- Node20 -->
<g id="Node000020" class="node">
<title>Node20</title>
<g id="a_Node000020"><a xlink:href="structsvg_1_1typography.html#a174c1ffb4e56214d71523ffe7e422561" target="_top" xlink:title=" ">
<polygon fill="white" stroke="#666666" points="806.25,-235.5 710,-235.5 710,-208 806.25,-208 806.25,-235.5"/>
<text text-anchor="start" x="718" y="-223.9" font-family="SourceSans" font-size="8.00">svg::typography::to</text>
<text text-anchor="middle" x="758.12" y="-214.15" font-family="SourceSans" font-size="8.00">_string</text>
</a>
</g>
</g>
<!-- Node19&#45;&gt;Node20 -->
<g id="edge22_Node000019_Node000020" class="edge">
<title>Node19&#45;&gt;Node20</title>
<g id="a_edge22_Node000019_Node000020"><a xlink:title=" ">
<path fill="none" stroke="#63b8ff" d="M674.17,-221.75C682.11,-221.75 690.37,-221.75 698.47,-221.75"/>
<polygon fill="#63b8ff" stroke="#63b8ff" points="698.24,-225.25 708.24,-221.75 698.24,-218.25 698.24,-225.25"/>
</a>
</g>
</g>
</g>
</svg>

<g id="navigator" transform="translate(0 0)" fill="#404254">
  <rect fill="#f2f5e9" fill-opacity="0.5" stroke="#606060" stroke-width=".5" x="0" y="0" width="60" height="60"/>
  <use id="zoomplus" xlink:href="#zoomPlus" x="17" y="9" onmousedown="handleZoom(evt,'in')"/>
  <use id="zoomminus" xlink:href="#zoomMin" x="42" y="9" onmousedown="handleZoom(evt,'out')"/>
  <use id="reset" xlink:href="#resetDef" x="30" y="36" onmousedown="handleReset()"/>
   <use id="arrowup" xlink:href="#arrowUp" x="0" y="0" onmousedown="handlePan(0,-1)"/>
  <use id="arrowright" xlink:href="#arrowRight" x="0" y="0" onmousedown="handlePan(1,0)"/>
  <use id="arrowdown" xlink:href="#arrowDown" x="0" y="0" onmousedown="handlePan(0,1)"/>
  <use id="arrowleft" xlink:href="#arrowLeft" x="0" y="0" onmousedown="handlePan(-1,0)"/>
</g>
<svg viewBox="0 0 15 15" width="100%" height="30px" preserveAspectRatio="xMaxYMin meet">
 <g id="arrow_out" transform="scale(0.3 0.3)">
  <a xlink:href="namespacesvg_a25505b7268e527cedd0cc6ba94e07725_cgraph_org.svg" target="_base">
   <rect id="button" ry="5" rx="5" y="6" x="6" height="38" width="38"
        fill="#f2f5e9" fill-opacity="0.5" stroke="#606060" stroke-width="1.0"/>
   <path id="arrow"
     d="M 11.500037,31.436501 C 11.940474,20.09759 22.043105,11.32322 32.158766,21.979434 L 37.068811,17.246167 C 37.068811,17.246167 37.088388,32 37.088388,32 L 22.160133,31.978069 C 22.160133,31.978069 26.997745,27.140456 26.997745,27.140456 C 18.528582,18.264221 13.291696,25.230495 11.500037,31.436501 z"
     style="fill:#404040;"/>
  </a>
 </g>
</svg>

<style type='text/css'>
<![CDATA[
[data-mouse-over-selected='false'] { opacity: 0.7; }
[data-mouse-over-selected='true']  { opacity: 1.0; }
]]>
</style>
<script type="application/ecmascript"><![CDATA[
document.addEventListener('DOMContentLoaded', (event) => {
  highlightEdges();
  highlightAdjacentNodes();
});
]]></script>
</svg>
