<?xml version="1.0" encoding="UTF-8" standalone="no"?>
<!DOCTYPE svg PUBLIC "-//W3C//DTD SVG 1.1//EN"
 "http://www.w3.org/Graphics/SVG/1.1/DTD/svg11.dtd">
<!-- Generated by graphviz version 12.1.0 (20240811.2233)
 -->
<!-- Title: svg::radiate_glyph Pages: 1 -->
<svg width="817pt" height="568pt"
 viewBox="0.00 0.00 817.25 568.00" xmlns="http://www.w3.org/2000/svg" xmlns:xlink="http://www.w3.org/1999/xlink">
<g id="graph0" class="graph" transform="scale(1 1) rotate(0) translate(4 564)">
<title>svg::radiate_glyph</title>
<!-- Node1 -->
<g id="Node000001" class="node">
<title>Node1</title>
<g id="a_Node000001"><a xlink:title=" ">
<polygon fill="#999999" stroke="#666666" points="85.75,-327 0,-327 0,-307 85.75,-307 85.75,-327"/>
<text text-anchor="middle" x="42.88" y="-315.4" font-family="SourceSans" font-size="8.00">svg::radiate_glyph</text>
</a>
</g>
</g>
<!-- Node2 -->
<g id="Node000002" class="node">
<title>Node2</title>
<g id="a_Node000002"><a xlink:href="namespacesvg.html#a6b1624bb42af7e9269fc6088e6a26fd7" target="_top" xlink:title="Adjust angle above to CW/CCW orientation.">
<polygon fill="white" stroke="#666666" points="238.25,-472 121.75,-472 121.75,-452 238.25,-452 238.25,-472"/>
<text text-anchor="middle" x="180" y="-460.4" font-family="SourceSans" font-size="8.00">svg::adjust_angle_rotation</text>
</a>
</g>
</g>
<!-- Node1&#45;&gt;Node2 -->
<g id="edge1_Node000001_Node000002" class="edge">
<title>Node1&#45;&gt;Node2</title>
<g id="a_edge1_Node000001_Node000002"><a xlink:title=" ">
<path fill="none" stroke="#63b8ff" d="M47.93,-327.23C57.47,-350.1 83.47,-405.89 121.75,-438 125.62,-441.24 129.98,-444.1 134.54,-446.61"/>
<polygon fill="#63b8ff" stroke="#63b8ff" points="132.81,-449.66 143.33,-450.89 135.87,-443.37 132.81,-449.66"/>
</a>
</g>
</g>
<!-- Node5 -->
<g id="Node000005" class="node">
<title>Node5</title>
<g id="a_Node000005"><a xlink:href="namespacesvg.html#a8049c9c931294d04d25967268d85d226" target="_top" xlink:title="Import svg file, convert it to svg_element for insertion. ifile is a plain SVG file with a 1:1 aspect...">
<polygon fill="white" stroke="#666666" points="381.38,-270 283.62,-270 283.62,-250 381.38,-250 381.38,-270"/>
<text text-anchor="middle" x="332.5" y="-258.4" font-family="SourceSans" font-size="8.00">svg::file_to_svg_insert</text>
</a>
</g>
</g>
<!-- Node1&#45;&gt;Node5 -->
<g id="edge4_Node000001_Node000005" class="edge">
<title>Node1&#45;&gt;Node5</title>
<g id="a_edge4_Node000001_Node000005"><a xlink:title=" ">
<path fill="none" stroke="#63b8ff" d="M60.78,-306.5C76.09,-297.55 99.58,-285.19 121.75,-279 171.11,-265.23 229.29,-260.84 271.84,-259.69"/>
<polygon fill="#63b8ff" stroke="#63b8ff" points="271.69,-263.19 281.61,-259.48 271.54,-256.19 271.69,-263.19"/>
</a>
</g>
</g>
<!-- Node7 -->
<g id="Node000007" class="node">
<title>Node7</title>
<g id="a_Node000007"><a xlink:href="namespacesvg.html#ab44508c4aeca591141ebec50145b75cd" target="_top" xlink:title="Angle in degrees.">
<polygon fill="white" stroke="#666666" points="231.88,-396 128.12,-396 128.12,-364 231.88,-364 231.88,-396"/>
<text text-anchor="start" x="136.12" y="-384.4" font-family="SourceSans" font-size="8.00">svg::get_circumference</text>
<text text-anchor="middle" x="180" y="-372.4" font-family="SourceSans" font-size="8.00">_point_d</text>
</a>
</g>
</g>
<!-- Node1&#45;&gt;Node7 -->
<g id="edge6_Node000001_Node000007" class="edge">
<title>Node1&#45;&gt;Node7</title>
<g id="a_edge6_Node000001_Node000007"><a xlink:title=" ">
<path fill="none" stroke="#63b8ff" d="M64.58,-327.4C80.21,-335.18 102.22,-345.98 121.75,-355 124.52,-356.28 127.36,-357.58 130.24,-358.88"/>
<polygon fill="#63b8ff" stroke="#63b8ff" points="128.77,-362.05 139.33,-362.93 131.63,-355.66 128.77,-362.05"/>
</a>
</g>
</g>
<!-- Node10 -->
<g id="Node000010" class="node">
<title>Node10</title>
<g id="a_Node000010"><a xlink:href="namespacesvg.html#a1a3bf270598169ec9826a0e19ea9e758" target="_top" xlink:title="Get the label space. Value &#45;&gt; Name, as a string where value has labelspaces of fill NB: Should be the...">
<polygon fill="white" stroke="#666666" points="228.88,-346 131.12,-346 131.12,-326 228.88,-326 228.88,-346"/>
<text text-anchor="middle" x="180" y="-334.4" font-family="SourceSans" font-size="8.00">svg::get_label_spaces</text>
</a>
</g>
</g>
<!-- Node1&#45;&gt;Node10 -->
<g id="edge9_Node000001_Node000010" class="edge">
<title>Node1&#45;&gt;Node10</title>
<g id="a_edge9_Node000001_Node000010"><a xlink:title=" ">
<path fill="none" stroke="#63b8ff" d="M85.89,-322.91C96.58,-324.41 108.27,-326.05 119.65,-327.65"/>
<polygon fill="#63b8ff" stroke="#63b8ff" points="118.98,-331.1 129.37,-329.02 119.96,-324.16 118.98,-331.1"/>
</a>
</g>
</g>
<!-- Node11 -->
<g id="Node000011" class="node">
<title>Node11</title>
<g id="a_Node000011"><a xlink:href="namespacesvg.html#acf3b42875f3a4e7bee10c21670c166cc" target="_top" xlink:title="The smallest (sattelite) radius size allowed in a kusama orbit.">
<polygon fill="white" stroke="#666666" points="231.12,-308 128.88,-308 128.88,-288 231.12,-288 231.12,-308"/>
<text text-anchor="middle" x="180" y="-296.4" font-family="SourceSans" font-size="8.00">svg::get_min_ring_size</text>
</a>
</g>
</g>
<!-- Node1&#45;&gt;Node11 -->
<g id="edge10_Node000001_Node000011" class="edge">
<title>Node1&#45;&gt;Node11</title>
<g id="a_edge10_Node000001_Node000011"><a xlink:title=" ">
<path fill="none" stroke="#63b8ff" d="M85.89,-311.09C95.79,-309.7 106.55,-308.19 117.12,-306.7"/>
<polygon fill="#63b8ff" stroke="#63b8ff" points="117.55,-310.17 126.97,-305.32 116.58,-303.24 117.55,-310.17"/>
</a>
</g>
</g>
<!-- Node12 -->
<g id="Node000012" class="node">
<title>Node12</title>
<g id="a_Node000012"><a xlink:href="namespacesvg.html#a0aae5e63973d0526fe0dbdda0b371ec8" target="_top" xlink:title="Embed svg in group element. @origin is where glyph placement is inside containing svg element....">
<polygon fill="white" stroke="#666666" points="373.88,-434 291.12,-434 291.12,-414 373.88,-414 373.88,-434"/>
<text text-anchor="middle" x="332.5" y="-422.4" font-family="SourceSans" font-size="8.00">svg::insert_svg_at</text>
</a>
</g>
</g>
<!-- Node1&#45;&gt;Node12 -->
<g id="edge11_Node000001_Node000012" class="edge">
<title>Node1&#45;&gt;Node12</title>
<g id="a_edge11_Node000001_Node000012"><a xlink:title=" ">
<path fill="none" stroke="#63b8ff" d="M49.49,-327.43C60.47,-346.66 86.8,-387.32 121.75,-405 171.02,-429.92 235.14,-432.06 279.46,-429.61"/>
<polygon fill="#63b8ff" stroke="#63b8ff" points="279.58,-433.11 289.33,-428.96 279.12,-426.13 279.58,-433.11"/>
</a>
</g>
</g>
<!-- Node24 -->
<g id="Node000024" class="node">
<title>Node24</title>
<g id="a_Node000024"><a xlink:href="structsvg_1_1render__state__base.html#a7c3f23003c7324627764c9547568d42f" target="_top" xlink:title=" ">
<polygon fill="white" stroke="#666666" points="231.5,-232 128.5,-232 128.5,-200 231.5,-200 231.5,-232"/>
<text text-anchor="start" x="136.5" y="-220.4" font-family="SourceSans" font-size="8.00">svg::render_state_base</text>
<text text-anchor="middle" x="180" y="-208.4" font-family="SourceSans" font-size="8.00">::is_visible</text>
</a>
</g>
</g>
<!-- Node1&#45;&gt;Node24 -->
<g id="edge26_Node000001_Node000024" class="edge">
<title>Node1&#45;&gt;Node24</title>
<g id="a_edge26_Node000001_Node000024"><a xlink:title=" ">
<path fill="none" stroke="#63b8ff" d="M53.26,-306.94C67.23,-292.32 94.78,-264.89 121.75,-246 125.79,-243.17 130.13,-240.43 134.54,-237.83"/>
<polygon fill="#63b8ff" stroke="#63b8ff" points="135.92,-241.07 142.93,-233.12 132.5,-234.96 135.92,-241.07"/>
</a>
</g>
</g>
<!-- Node25 -->
<g id="Node000025" class="node">
<title>Node25</title>
<g id="a_Node000025"><a xlink:href="namespacesvg.html#a68c014cdc144d2d0125a8ce849e8804d" target="_top" xlink:title="Draws a circle around a point (x,y), of style (s), of radius (r).">
<polygon fill="white" stroke="#666666" points="224,-182 136,-182 136,-162 224,-162 224,-182"/>
<text text-anchor="middle" x="180" y="-170.4" font-family="SourceSans" font-size="8.00">svg::point_to_circle</text>
</a>
</g>
</g>
<!-- Node1&#45;&gt;Node25 -->
<g id="edge27_Node000001_Node000025" class="edge">
<title>Node1&#45;&gt;Node25</title>
<g id="a_edge27_Node000001_Node000025"><a xlink:title=" ">
<path fill="none" stroke="#63b8ff" d="M47.37,-306.85C56.07,-283.04 81,-223.21 121.75,-191 123.25,-189.82 124.82,-188.71 126.45,-187.66"/>
<polygon fill="#63b8ff" stroke="#63b8ff" points="127.8,-190.91 134.97,-183.11 124.5,-184.74 127.8,-190.91"/>
</a>
</g>
</g>
<!-- Node3 -->
<g id="Node000003" class="node">
<title>Node3</title>
<g id="a_Node000003"><a xlink:href="namespacesvg.html#a010fea242a289d173d521b501140cd72" target="_top" xlink:title="Zero degrees is top, going clockwise (cw).">
<polygon fill="white" stroke="#666666" points="390.75,-510 274.25,-510 274.25,-490 390.75,-490 390.75,-510"/>
<text text-anchor="middle" x="332.5" y="-498.4" font-family="SourceSans" font-size="8.00">svg::zero_angle_north_ccw</text>
</a>
</g>
</g>
<!-- Node2&#45;&gt;Node3 -->
<g id="edge2_Node000002_Node000003" class="edge">
<title>Node2&#45;&gt;Node3</title>
<g id="a_edge2_Node000002_Node000003"><a xlink:title=" ">
<path fill="none" stroke="#63b8ff" d="M222.52,-472.48C240.04,-476.91 260.64,-482.11 279.18,-486.79"/>
<polygon fill="#63b8ff" stroke="#63b8ff" points="278.09,-490.12 288.64,-489.18 279.81,-483.34 278.09,-490.12"/>
</a>
</g>
</g>
<!-- Node4 -->
<g id="Node000004" class="node">
<title>Node4</title>
<g id="a_Node000004"><a xlink:href="namespacesvg.html#a46164d75fd5109e4ed8879abbacd5c11" target="_top" xlink:title="Zero degrees is top, going clockwise (cw).">
<polygon fill="white" stroke="#666666" points="388.88,-472 276.12,-472 276.12,-452 388.88,-452 388.88,-472"/>
<text text-anchor="middle" x="332.5" y="-460.4" font-family="SourceSans" font-size="8.00">svg::zero_angle_north_cw</text>
</a>
</g>
</g>
<!-- Node2&#45;&gt;Node4 -->
<g id="edge3_Node000002_Node000004" class="edge">
<title>Node2&#45;&gt;Node4</title>
<g id="a_edge3_Node000002_Node000004"><a xlink:title=" ">
<path fill="none" stroke="#63b8ff" d="M238.33,-462C246.88,-462 255.75,-462 264.48,-462"/>
<polygon fill="#63b8ff" stroke="#63b8ff" points="264.31,-465.5 274.31,-462 264.31,-458.5 264.31,-465.5"/>
</a>
</g>
</g>
<!-- Node6 -->
<g id="Node000006" class="node">
<title>Node6</title>
<g id="a_Node000006"><a xlink:href="namespacesvg_1_1constants.html#aa7f04c2ea699a1b1e2e790de5ac33f38" target="_top" xlink:title=" ">
<polygon fill="white" stroke="#666666" points="676.25,-292 571.75,-292 571.75,-272 676.25,-272 676.25,-292"/>
<text text-anchor="middle" x="624" y="-280.4" font-family="SourceSans" font-size="8.00">svg::constants::newline</text>
</a>
</g>
</g>
<!-- Node5&#45;&gt;Node6 -->
<g id="edge5_Node000005_Node000006" class="edge">
<title>Node5&#45;&gt;Node6</title>
<g id="a_edge5_Node000005_Node000006"><a xlink:title=" ">
<path fill="none" stroke="#63b8ff" d="M381.63,-263.66C430.46,-267.37 506.29,-273.13 559.91,-277.21"/>
<polygon fill="#63b8ff" stroke="#63b8ff" points="559.59,-280.69 569.82,-277.96 560.12,-273.71 559.59,-280.69"/>
</a>
</g>
</g>
<!-- Node8 -->
<g id="Node000008" class="node">
<title>Node8</title>
<g id="a_Node000008"><a xlink:href="namespacesvg.html#aef05ac63d88a6102981d3faf37275297" target="_top" xlink:title="Angle in radians.">
<polygon fill="white" stroke="#666666" points="384.38,-396 280.62,-396 280.62,-364 384.38,-364 384.38,-396"/>
<text text-anchor="start" x="288.62" y="-384.4" font-family="SourceSans" font-size="8.00">svg::get_circumference</text>
<text text-anchor="middle" x="332.5" y="-372.4" font-family="SourceSans" font-size="8.00">_point_r</text>
</a>
</g>
</g>
<!-- Node7&#45;&gt;Node8 -->
<g id="edge7_Node000007_Node000008" class="edge">
<title>Node7&#45;&gt;Node8</title>
<g id="a_edge7_Node000007_Node000008"><a xlink:title=" ">
<path fill="none" stroke="#63b8ff" d="M232.37,-380C244.12,-380 256.73,-380 268.88,-380"/>
<polygon fill="#63b8ff" stroke="#63b8ff" points="268.85,-383.5 278.85,-380 268.85,-376.5 268.85,-383.5"/>
</a>
</g>
</g>
<!-- Node9 -->
<g id="Node000009" class="node">
<title>Node9</title>
<g id="a_Node000009"><a xlink:href="namespacesvg_1_1constants.html#a0e0b0d9314bc47324ee39884bf8bb2fd" target="_top" xlink:title=" ">
<polygon fill="white" stroke="#666666" points="373.5,-346 291.5,-346 291.5,-326 373.5,-326 373.5,-346"/>
<text text-anchor="middle" x="332.5" y="-334.4" font-family="SourceSans" font-size="8.00">svg::constants::pi</text>
</a>
</g>
</g>
<!-- Node7&#45;&gt;Node9 -->
<g id="edge8_Node000007_Node000009" class="edge">
<title>Node7&#45;&gt;Node9</title>
<g id="a_edge8_Node000007_Node000009"><a xlink:title=" ">
<path fill="none" stroke="#63b8ff" d="M232.37,-364.98C249.56,-359.96 268.59,-354.39 285.35,-349.49"/>
<polygon fill="#63b8ff" stroke="#63b8ff" points="285.93,-352.97 294.54,-346.8 283.96,-346.25 285.93,-352.97"/>
</a>
</g>
</g>
<!-- Node13 -->
<g id="Node000013" class="node">
<title>Node13</title>
<g id="a_Node000013"><a xlink:href="group__elements.html#aaa5f1a136f2b5c61d647a47ec53fe31d" target="_top" xlink:title=" ">
<polygon fill="white" stroke="#666666" points="531.62,-232 430.88,-232 430.88,-200 531.62,-200 531.62,-232"/>
<text text-anchor="start" x="438.88" y="-220.4" font-family="SourceSans" font-size="8.00">svg::svg_element::add</text>
<text text-anchor="middle" x="481.25" y="-208.4" font-family="SourceSans" font-size="8.00">_element</text>
</a>
</g>
</g>
<!-- Node12&#45;&gt;Node13 -->
<g id="edge12_Node000012_Node000013" class="edge">
<title>Node12&#45;&gt;Node13</title>
<g id="a_edge12_Node000012_Node000013"><a xlink:title=" ">
<path fill="none" stroke="#63b8ff" d="M374.27,-416.01C380.4,-413.33 386.18,-409.76 390.75,-405 431.06,-362.96 399.28,-330.36 426.75,-279 434.17,-265.12 445.06,-251.57 455.07,-240.62"/>
<polygon fill="#63b8ff" stroke="#63b8ff" points="457.45,-243.19 461.79,-233.53 452.37,-238.37 457.45,-243.19"/>
</a>
</g>
</g>
<!-- Node15 -->
<g id="Node000015" class="node">
<title>Node15</title>
<g id="a_Node000015"><a xlink:href="group__elements.html#acafbdd950c6c2639c9d376c3eab696e5" target="_top" xlink:title=" ">
<polygon fill="white" stroke="#666666" points="669.5,-534 578.5,-534 578.5,-502 669.5,-502 669.5,-534"/>
<text text-anchor="start" x="586.5" y="-522.4" font-family="SourceSans" font-size="8.00">svg::element_base::</text>
<text text-anchor="middle" x="624" y="-510.4" font-family="SourceSans" font-size="8.00">add_raw</text>
</a>
</g>
</g>
<!-- Node12&#45;&gt;Node15 -->
<g id="edge14_Node000012_Node000015" class="edge">
<title>Node12&#45;&gt;Node15</title>
<g id="a_edge14_Node000012_Node000015"><a xlink:title=" ">
<path fill="none" stroke="#63b8ff" d="M374.32,-434.29C380.1,-436.66 385.77,-439.53 390.75,-443 411.77,-457.64 404.57,-475.19 426.75,-488 469.35,-512.61 525.46,-519.1 566.77,-520.03"/>
<polygon fill="#63b8ff" stroke="#63b8ff" points="566.72,-523.53 576.76,-520.14 566.8,-516.53 566.72,-523.53"/>
</a>
</g>
</g>
<!-- Node16 -->
<g id="Node000016" class="node">
<title>Node16</title>
<g id="a_Node000016"><a xlink:href="namespacesvg_1_1constants.html#ac460bc8db60d85c3ae1cf8b1a903405e" target="_top" xlink:title="Formatting character constants.">
<polygon fill="white" stroke="#666666" points="808.88,-484 712.62,-484 712.62,-464 808.88,-464 808.88,-484"/>
<text text-anchor="middle" x="760.75" y="-472.4" font-family="SourceSans" font-size="8.00">svg::constants::space</text>
</a>
</g>
</g>
<!-- Node12&#45;&gt;Node16 -->
<g id="edge21_Node000012_Node000016" class="edge">
<title>Node12&#45;&gt;Node16</title>
<g id="a_edge21_Node000012_Node000016"><a xlink:title=" ">
<path fill="none" stroke="#63b8ff" d="M365,-434.45C373.37,-437.22 382.4,-440.22 390.75,-443 406.75,-448.32 410.19,-451.83 426.75,-455 521.64,-473.19 634.29,-475.74 701.25,-475.31"/>
<polygon fill="#63b8ff" stroke="#63b8ff" points="700.91,-478.81 710.88,-475.22 700.85,-471.81 700.91,-478.81"/>
</a>
</g>
</g>
<!-- Node17 -->
<g id="Node000017" class="node">
<title>Node17</title>
<g id="a_Node000017"><a xlink:href="group__elements.html#gaab139e518fe9d07003dbcc1fdfdad955" target="_top" xlink:title=" ">
<polygon fill="white" stroke="#666666" points="527.12,-408 435.38,-408 435.38,-376 527.12,-376 527.12,-408"/>
<text text-anchor="start" x="443.38" y="-396.4" font-family="SourceSans" font-size="8.00">svg::group_element</text>
<text text-anchor="middle" x="481.25" y="-384.4" font-family="SourceSans" font-size="8.00">::finish_element</text>
</a>
</g>
</g>
<!-- Node12&#45;&gt;Node17 -->
<g id="edge16_Node000012_Node000017" class="edge">
<title>Node12&#45;&gt;Node17</title>
<g id="a_edge16_Node000012_Node000017"><a xlink:title=" ">
<path fill="none" stroke="#63b8ff" d="M373.99,-415.17C389.36,-411.82 407.16,-407.94 423.74,-404.32"/>
<polygon fill="#63b8ff" stroke="#63b8ff" points="424.48,-407.74 433.51,-402.19 422.99,-400.9 424.48,-407.74"/>
</a>
</g>
</g>
<!-- Node19 -->
<g id="Node000019" class="node">
<title>Node19</title>
<g id="a_Node000019"><a xlink:href="structsvg_1_1transform.html#acf9836f4ba647f0dd2b53963a0f714d0" target="_top" xlink:title=" ">
<polygon fill="white" stroke="#666666" points="530.12,-358 432.38,-358 432.38,-338 530.12,-338 530.12,-358"/>
<text text-anchor="middle" x="481.25" y="-346.4" font-family="SourceSans" font-size="8.00">svg::transform::rotate</text>
</a>
</g>
</g>
<!-- Node12&#45;&gt;Node19 -->
<g id="edge19_Node000012_Node000019" class="edge">
<title>Node12&#45;&gt;Node19</title>
<g id="a_edge19_Node000012_Node000019"><a xlink:title=" ">
<path fill="none" stroke="#63b8ff" d="M373.47,-413.57C379.49,-411.21 385.45,-408.37 390.75,-405 410.38,-392.52 407.25,-379.69 426.75,-367 428.83,-365.65 431.02,-364.37 433.28,-363.18"/>
<polygon fill="#63b8ff" stroke="#63b8ff" points="434.5,-366.47 442.1,-359.09 431.55,-360.12 434.5,-366.47"/>
</a>
</g>
</g>
<!-- Node20 -->
<g id="Node000020" class="node">
<title>Node20</title>
<g id="a_Node000020"><a xlink:href="structsvg_1_1transform.html#a9053c6d65a0bf6f82e4c85a71cc42079" target="_top" xlink:title=" ">
<polygon fill="white" stroke="#666666" points="528.25,-560 434.25,-560 434.25,-540 528.25,-540 528.25,-560"/>
<text text-anchor="middle" x="481.25" y="-548.4" font-family="SourceSans" font-size="8.00">svg::transform::scale</text>
</a>
</g>
</g>
<!-- Node12&#45;&gt;Node20 -->
<g id="edge20_Node000012_Node000020" class="edge">
<title>Node12&#45;&gt;Node20</title>
<g id="a_edge20_Node000012_Node000020"><a xlink:title=" ">
<path fill="none" stroke="#63b8ff" d="M374.34,-432.77C380.32,-435.35 386.04,-438.69 390.75,-443 420.42,-470.14 398.5,-497.39 426.75,-526 429.71,-529 433.12,-531.66 436.75,-534.01"/>
<polygon fill="#63b8ff" stroke="#63b8ff" points="434.95,-537.01 445.39,-538.79 438.33,-530.89 434.95,-537.01"/>
</a>
</g>
</g>
<!-- Node21 -->
<g id="Node000021" class="node">
<title>Node21</title>
<g id="a_Node000021"><a xlink:href="group__elements.html#a5c8c4f93df6e84523f788aa7f98bcab8" target="_top" xlink:title=" ">
<polygon fill="white" stroke="#666666" points="527.12,-320 435.38,-320 435.38,-288 527.12,-288 527.12,-320"/>
<text text-anchor="start" x="443.38" y="-308.4" font-family="SourceSans" font-size="8.00">svg::group_element</text>
<text text-anchor="middle" x="481.25" y="-296.4" font-family="SourceSans" font-size="8.00">::start_element</text>
</a>
</g>
</g>
<!-- Node12&#45;&gt;Node21 -->
<g id="edge22_Node000012_Node000021" class="edge">
<title>Node12&#45;&gt;Node21</title>
<g id="a_edge22_Node000012_Node000021"><a xlink:title=" ">
<path fill="none" stroke="#63b8ff" d="M374.22,-415.09C380.21,-412.53 385.97,-409.23 390.75,-405 418.74,-380.23 400.25,-355.36 426.75,-329 427.35,-328.4 427.97,-327.82 428.6,-327.25"/>
<polygon fill="#63b8ff" stroke="#63b8ff" points="430.46,-330.23 436.32,-321.41 426.23,-324.65 430.46,-330.23"/>
</a>
</g>
</g>
<!-- Node22 -->
<g id="Node000022" class="node">
<title>Node22</title>
<g id="a_Node000022"><a xlink:href="structsvg_1_1transform.html#a0c20aee54dbd3136799b17e12d3cb718" target="_top" xlink:title=" ">
<polygon fill="white" stroke="#666666" points="535.75,-446 426.75,-446 426.75,-426 535.75,-426 535.75,-446"/>
<text text-anchor="middle" x="481.25" y="-434.4" font-family="SourceSans" font-size="8.00">svg::transform::translate</text>
</a>
</g>
</g>
<!-- Node12&#45;&gt;Node22 -->
<g id="edge24_Node000012_Node000022" class="edge">
<title>Node12&#45;&gt;Node22</title>
<g id="a_edge24_Node000012_Node000022"><a xlink:title=" ">
<path fill="none" stroke="#63b8ff" d="M373.99,-427.31C386.77,-428.36 401.24,-429.54 415.29,-430.69"/>
<polygon fill="#63b8ff" stroke="#63b8ff" points="414.67,-434.15 424.92,-431.48 415.24,-427.17 414.67,-434.15"/>
</a>
</g>
</g>
<!-- Node14 -->
<g id="Node000014" class="node">
<title>Node14</title>
<g id="a_Node000014"><a xlink:href="group__elements.html#ad893ef9c13a15464c96d8a85c08af30f" target="_top" xlink:title=" ">
<polygon fill="white" stroke="#666666" points="674.38,-226 573.62,-226 573.62,-206 674.38,-206 674.38,-226"/>
<text text-anchor="middle" x="624" y="-214.4" font-family="SourceSans" font-size="8.00">svg::element_base::str</text>
</a>
</g>
</g>
<!-- Node13&#45;&gt;Node14 -->
<g id="edge13_Node000013_Node000014" class="edge">
<title>Node13&#45;&gt;Node14</title>
<g id="a_edge13_Node000013_Node000014"><a xlink:title=" ">
<path fill="none" stroke="#63b8ff" d="M531.87,-216C541.65,-216 552.01,-216 562.11,-216"/>
<polygon fill="#63b8ff" stroke="#63b8ff" points="561.84,-219.5 571.84,-216 561.84,-212.5 561.84,-219.5"/>
</a>
</g>
</g>
<!-- Node15&#45;&gt;Node16 -->
<g id="edge15_Node000015_Node000016" class="edge">
<title>Node15&#45;&gt;Node16</title>
<g id="a_edge15_Node000015_Node000016"><a xlink:title=" ">
<path fill="none" stroke="#63b8ff" d="M669.87,-503.35C685.15,-498.36 702.17,-492.8 717.26,-487.88"/>
<polygon fill="#63b8ff" stroke="#63b8ff" points="717.99,-491.32 726.41,-484.89 715.82,-484.66 717.99,-491.32"/>
</a>
</g>
</g>
<!-- Node17&#45;&gt;Node6 -->
<g id="edge18_Node000017_Node000006" class="edge">
<title>Node17&#45;&gt;Node6</title>
<g id="a_edge18_Node000017_Node000006"><a xlink:title=" ">
<path fill="none" stroke="#63b8ff" d="M521.39,-375.6C526.37,-372.97 531.28,-370.09 535.75,-367 563.58,-347.77 590.7,-319.38 607.13,-300.79"/>
<polygon fill="#63b8ff" stroke="#63b8ff" points="609.59,-303.29 613.5,-293.44 604.3,-298.7 609.59,-303.29"/>
</a>
</g>
</g>
<!-- Node18 -->
<g id="Node000018" class="node">
<title>Node18</title>
<g id="a_Node000018"><a xlink:href="group__elements.html#a71cf2eb89a562527f14c4ca4c027c2b9" target="_top" xlink:title=" ">
<polygon fill="white" stroke="#666666" points="669.88,-408 578.12,-408 578.12,-376 669.88,-376 669.88,-408"/>
<text text-anchor="start" x="586.12" y="-396.4" font-family="SourceSans" font-size="8.00">svg::group_element</text>
<text text-anchor="middle" x="624" y="-384.4" font-family="SourceSans" font-size="8.00">::finish_group</text>
</a>
</g>
</g>
<!-- Node17&#45;&gt;Node18 -->
<g id="edge17_Node000017_Node000018" class="edge">
<title>Node17&#45;&gt;Node18</title>
<g id="a_edge17_Node000017_Node000018"><a xlink:title=" ">
<path fill="none" stroke="#63b8ff" d="M527.56,-392C539.99,-392 553.62,-392 566.59,-392"/>
<polygon fill="#63b8ff" stroke="#63b8ff" points="566.26,-395.5 576.26,-392 566.26,-388.5 566.26,-395.5"/>
</a>
</g>
</g>
<!-- Node21&#45;&gt;Node6 -->
<g id="edge23_Node000021_Node000006" class="edge">
<title>Node21&#45;&gt;Node6</title>
<g id="a_edge23_Node000021_Node000006"><a xlink:title=" ">
<path fill="none" stroke="#63b8ff" d="M527.56,-296.92C537.94,-295.3 549.15,-293.54 560.12,-291.83"/>
<polygon fill="#63b8ff" stroke="#63b8ff" points="560.58,-295.3 569.92,-290.3 559.5,-288.38 560.58,-295.3"/>
</a>
</g>
</g>
<!-- Node23 -->
<g id="Node000023" class="node">
<title>Node23</title>
<g id="a_Node000023"><a xlink:href="namespacesvg_1_1constants.html#a70757c054f02146f803e0e40071734a9" target="_top" xlink:title=" ">
<polygon fill="white" stroke="#666666" points="675.12,-446 572.88,-446 572.88,-426 675.12,-426 675.12,-446"/>
<text text-anchor="middle" x="624" y="-434.4" font-family="SourceSans" font-size="8.00">svg::constants::comma</text>
</a>
</g>
</g>
<!-- Node22&#45;&gt;Node23 -->
<g id="edge25_Node000022_Node000023" class="edge">
<title>Node22&#45;&gt;Node23</title>
<g id="a_edge25_Node000022_Node000023"><a xlink:title=" ">
<path fill="none" stroke="#63b8ff" d="M535.86,-436C544.2,-436 552.86,-436 561.35,-436"/>
<polygon fill="#63b8ff" stroke="#63b8ff" points="561.27,-439.5 571.27,-436 561.27,-432.5 561.27,-439.5"/>
</a>
</g>
</g>
<!-- Node25&#45;&gt;Node13 -->
<g id="edge28_Node000025_Node000013" class="edge">
<title>Node25&#45;&gt;Node13</title>
<g id="a_edge28_Node000025_Node000013"><a xlink:title=" ">
<path fill="none" stroke="#63b8ff" d="M224.19,-178.35C275.48,-185.89 361.36,-198.52 419.38,-207.05"/>
<polygon fill="#63b8ff" stroke="#63b8ff" points="418.69,-210.49 429.09,-208.48 419.71,-203.56 418.69,-210.49"/>
</a>
</g>
</g>
<!-- Node26 -->
<g id="Node000026" class="node">
<title>Node26</title>
<g id="a_Node000026"><a xlink:href="namespacesvg.html#ae450771820b99cadcbf845a4e712753c" target="_top" xlink:title="Make circle element.">
<polygon fill="white" stroke="#666666" points="371.25,-126 293.75,-126 293.75,-106 371.25,-106 371.25,-126"/>
<text text-anchor="middle" x="332.5" y="-114.4" font-family="SourceSans" font-size="8.00">svg::make_circle</text>
</a>
</g>
</g>
<!-- Node25&#45;&gt;Node26 -->
<g id="edge29_Node000025_Node000026" class="edge">
<title>Node25&#45;&gt;Node26</title>
<g id="a_edge29_Node000025_Node000026"><a xlink:title=" ">
<path fill="none" stroke="#63b8ff" d="M208.96,-161.6C232.53,-152.82 266.53,-140.17 292.74,-130.42"/>
<polygon fill="#63b8ff" stroke="#63b8ff" points="293.87,-133.74 302.02,-126.97 291.43,-127.18 293.87,-133.74"/>
</a>
</g>
</g>
<!-- Node27 -->
<g id="Node000027" class="node">
<title>Node27</title>
<g id="a_Node000027"><a xlink:href="group__elements.html#a519382631540ecedee961bfb53e9ae87" target="_top" xlink:title=" ">
<polygon fill="white" stroke="#666666" points="525.25,-132 437.25,-132 437.25,-100 525.25,-100 525.25,-132"/>
<text text-anchor="start" x="445.25" y="-120.4" font-family="SourceSans" font-size="8.00">svg::circle_element</text>
<text text-anchor="middle" x="481.25" y="-108.4" font-family="SourceSans" font-size="8.00">::add_data</text>
</a>
</g>
</g>
<!-- Node26&#45;&gt;Node27 -->
<g id="edge30_Node000026_Node000027" class="edge">
<title>Node26&#45;&gt;Node27</title>
<g id="a_edge30_Node000026_Node000027"><a xlink:title=" ">
<path fill="none" stroke="#63b8ff" d="M371.67,-116C388.04,-116 407.48,-116 425.35,-116"/>
<polygon fill="#63b8ff" stroke="#63b8ff" points="425.31,-119.5 435.31,-116 425.31,-112.5 425.31,-119.5"/>
</a>
</g>
</g>
<!-- Node31 -->
<g id="Node000031" class="node">
<title>Node31</title>
<g id="a_Node000031"><a xlink:href="group__elements.html#a238b38ca99a1cf6c2baf80c8e4338d99" target="_top" xlink:title=" ">
<polygon fill="white" stroke="#666666" points="526.75,-82 435.75,-82 435.75,-50 526.75,-50 526.75,-82"/>
<text text-anchor="start" x="443.75" y="-70.4" font-family="SourceSans" font-size="8.00">svg::element_base::</text>
<text text-anchor="middle" x="481.25" y="-58.4" font-family="SourceSans" font-size="8.00">add_style</text>
</a>
</g>
</g>
<!-- Node26&#45;&gt;Node31 -->
<g id="edge35_Node000026_Node000031" class="edge">
<title>Node26&#45;&gt;Node31</title>
<g id="a_edge35_Node000026_Node000031"><a xlink:title=" ">
<path fill="none" stroke="#63b8ff" d="M364.26,-105.52C381.72,-99.57 404.1,-91.95 424.53,-84.98"/>
<polygon fill="#63b8ff" stroke="#63b8ff" points="425.55,-88.33 433.89,-81.8 423.29,-81.71 425.55,-88.33"/>
</a>
</g>
</g>
<!-- Node33 -->
<g id="Node000033" class="node">
<title>Node33</title>
<g id="a_Node000033"><a xlink:href="group__elements.html#ga98a1538c46e39122d8199c12b3a57b5d" target="_top" xlink:title=" ">
<polygon fill="white" stroke="#666666" points="525.25,-182 437.25,-182 437.25,-150 525.25,-150 525.25,-182"/>
<text text-anchor="start" x="445.25" y="-170.4" font-family="SourceSans" font-size="8.00">svg::circle_element</text>
<text text-anchor="middle" x="481.25" y="-158.4" font-family="SourceSans" font-size="8.00">::finish_element</text>
</a>
</g>
</g>
<!-- Node26&#45;&gt;Node33 -->
<g id="edge37_Node000026_Node000033" class="edge">
<title>Node26&#45;&gt;Node33</title>
<g id="a_edge37_Node000026_Node000033"><a xlink:title=" ">
<path fill="none" stroke="#63b8ff" d="M364.26,-126.48C382.23,-132.6 405.41,-140.5 426.32,-147.62"/>
<polygon fill="#63b8ff" stroke="#63b8ff" points="424.98,-150.87 435.57,-150.78 427.23,-144.24 424.98,-150.87"/>
</a>
</g>
</g>
<!-- Node34 -->
<g id="Node000034" class="node">
<title>Node34</title>
<g id="a_Node000034"><a xlink:href="group__elements.html#a793cb6b40b2aea335b11f14fd327cde8" target="_top" xlink:title=" ">
<polygon fill="white" stroke="#666666" points="525.25,-32 437.25,-32 437.25,0 525.25,0 525.25,-32"/>
<text text-anchor="start" x="445.25" y="-20.4" font-family="SourceSans" font-size="8.00">svg::circle_element</text>
<text text-anchor="middle" x="481.25" y="-8.4" font-family="SourceSans" font-size="8.00">::start_element</text>
</a>
</g>
</g>
<!-- Node26&#45;&gt;Node34 -->
<g id="edge39_Node000026_Node000034" class="edge">
<title>Node26&#45;&gt;Node34</title>
<g id="a_edge39_Node000026_Node000034"><a xlink:title=" ">
<path fill="none" stroke="#63b8ff" d="M344.6,-105.58C361.43,-90.14 394.83,-60.89 426.75,-41 428.58,-39.86 430.46,-38.74 432.39,-37.64"/>
<polygon fill="#63b8ff" stroke="#63b8ff" points="433.73,-40.9 440.9,-33.09 430.43,-34.72 433.73,-40.9"/>
</a>
</g>
</g>
<!-- Node28 -->
<g id="Node000028" class="node">
<title>Node28</title>
<g id="a_Node000028"><a xlink:href="group__elements.html#a53d72a7ff728ad1d4d027254530bcf3d" target="_top" xlink:title="Common transforms include rotate(180)">
<polygon fill="white" stroke="#666666" points="669.5,-132 578.5,-132 578.5,-100 669.5,-100 669.5,-132"/>
<text text-anchor="start" x="586.5" y="-120.4" font-family="SourceSans" font-size="8.00">svg::element_base::</text>
<text text-anchor="middle" x="624" y="-108.4" font-family="SourceSans" font-size="8.00">add_transform</text>
</a>
</g>
</g>
<!-- Node27&#45;&gt;Node28 -->
<g id="edge31_Node000027_Node000028" class="edge">
<title>Node27&#45;&gt;Node28</title>
<g id="a_edge31_Node000027_Node000028"><a xlink:title=" ">
<path fill="none" stroke="#63b8ff" d="M525.63,-116C538.63,-116 553.08,-116 566.78,-116"/>
<polygon fill="#63b8ff" stroke="#63b8ff" points="566.55,-119.5 576.55,-116 566.55,-112.5 566.55,-119.5"/>
</a>
</g>
</g>
<!-- Node30 -->
<g id="Node000030" class="node">
<title>Node30</title>
<g id="a_Node000030"><a xlink:href="namespacesvg.html#a48ac748e89e22789d1772326a98dd7b6" target="_top" xlink:title=" ">
<polygon fill="white" stroke="#666666" points="667.62,-170 580.38,-170 580.38,-150 667.62,-150 667.62,-170"/>
<text text-anchor="middle" x="624" y="-158.4" font-family="SourceSans" font-size="8.00">svg::string_replace</text>
</a>
</g>
</g>
<!-- Node27&#45;&gt;Node30 -->
<g id="edge34_Node000027_Node000030" class="edge">
<title>Node27&#45;&gt;Node30</title>
<g id="a_edge34_Node000027_Node000030"><a xlink:title=" ">
<path fill="none" stroke="#63b8ff" d="M525.63,-129.56C542.59,-134.86 562.02,-140.94 579.04,-146.26"/>
<polygon fill="#63b8ff" stroke="#63b8ff" points="577.79,-149.53 588.38,-149.18 579.88,-142.85 577.79,-149.53"/>
</a>
</g>
</g>
<!-- Node28&#45;&gt;Node16 -->
<g id="edge33_Node000028_Node000016" class="edge">
<title>Node28&#45;&gt;Node16</title>
<g id="a_edge33_Node000028_Node000016"><a xlink:title=" ">
<path fill="none" stroke="#63b8ff" d="M667.07,-132.43C670.49,-134.93 673.63,-137.77 676.25,-141 753.9,-236.77 760.58,-395.19 760.28,-452.48"/>
<polygon fill="#63b8ff" stroke="#63b8ff" points="756.79,-452.11 760.15,-462.16 763.79,-452.21 756.79,-452.11"/>
</a>
</g>
</g>
<!-- Node29 -->
<g id="Node000029" class="node">
<title>Node29</title>
<g id="a_Node000029"><a xlink:href="namespacesvg_1_1constants.html#a3972655f1dfdc090ec2592d1fb37e87c" target="_top" xlink:title=" ">
<polygon fill="white" stroke="#666666" points="809.25,-126 712.25,-126 712.25,-106 809.25,-106 809.25,-126"/>
<text text-anchor="middle" x="760.75" y="-114.4" font-family="SourceSans" font-size="8.00">svg::constants::quote</text>
</a>
</g>
</g>
<!-- Node28&#45;&gt;Node29 -->
<g id="edge32_Node000028_Node000029" class="edge">
<title>Node28&#45;&gt;Node29</title>
<g id="a_edge32_Node000028_Node000029"><a xlink:title=" ">
<path fill="none" stroke="#63b8ff" d="M669.87,-116C679.66,-116 690.17,-116 700.42,-116"/>
<polygon fill="#63b8ff" stroke="#63b8ff" points="700.33,-119.5 710.33,-116 700.33,-112.5 700.33,-119.5"/>
</a>
</g>
</g>
<!-- Node32 -->
<g id="Node000032" class="node">
<title>Node32</title>
<g id="a_Node000032"><a xlink:href="namespacesvg.html#a36b1c48ad4601b205790e3772ad0a7b6" target="_top" xlink:title=" ">
<polygon fill="white" stroke="#666666" points="657.5,-76 590.5,-76 590.5,-56 657.5,-56 657.5,-76"/>
<text text-anchor="middle" x="624" y="-64.4" font-family="SourceSans" font-size="8.00">svg::to_string</text>
</a>
</g>
</g>
<!-- Node31&#45;&gt;Node32 -->
<g id="edge36_Node000031_Node000032" class="edge">
<title>Node31&#45;&gt;Node32</title>
<g id="a_edge36_Node000031_Node000032"><a xlink:title=" ">
<path fill="none" stroke="#63b8ff" d="M527.17,-66C543.61,-66 562.2,-66 578.6,-66"/>
<polygon fill="#63b8ff" stroke="#63b8ff" points="578.58,-69.5 588.58,-66 578.58,-62.5 578.58,-69.5"/>
</a>
</g>
</g>
<!-- Node33&#45;&gt;Node6 -->
<g id="edge38_Node000033_Node000006" class="edge">
<title>Node33&#45;&gt;Node6</title>
<g id="a_edge38_Node000033_Node000006"><a xlink:title=" ">
<path fill="none" stroke="#63b8ff" d="M522.56,-182.4C527.2,-184.98 531.7,-187.85 535.75,-191 555.69,-206.51 554.39,-216.64 571.75,-235 581.3,-245.11 592.63,-255.63 602.21,-264.16"/>
<polygon fill="#63b8ff" stroke="#63b8ff" points="599.77,-266.68 609.6,-270.64 604.39,-261.41 599.77,-266.68"/>
</a>
</g>
</g>
</g>
</svg>
