<?xml version="1.0" encoding="UTF-8" standalone="no"?>
<!DOCTYPE svg PUBLIC "-//W3C//DTD SVG 1.1//EN"
 "http://www.w3.org/Graphics/SVG/1.1/DTD/svg11.dtd">
<!-- Generated by graphviz version 12.1.0 (20240811.2233)
 -->
<!-- Title: svg::make_marker_circle Pages: 1 -->
<!--zoomable 405 -->

<svg id="main" version="1.1" xmlns="http://www.w3.org/2000/svg" xmlns:xlink="http://www.w3.org/1999/xlink" xml:space="preserve" onload="init(evt)">

<style type="text/css"><![CDATA[
.node, .edge {opacity: 0.7;}
.node.selected, .edge.selected {opacity: 1;}
.edge:hover path { stroke: red; }
.edge:hover polygon { stroke: red; fill: red; }
]]></style>

<defs>
  <circle id="rim" cx="0" cy="0" r="7"/>
  <circle id="rim2" cx="0" cy="0" r="3.5"/>
  <g id="zoomPlus">
    <use xlink:href="#rim" fill="#404040"><set attributeName="fill" to="#808080" begin="zoomplus.mouseover" end="zoomplus.mouseout"/></use>
    <path d="M-4,0h8M0,-4v8" fill="none" stroke="white" stroke-width="1.5" pointer-events="none"/>
  </g>
  <g id="zoomMin">
    <use xlink:href="#rim" fill="#404040"><set attributeName="fill" to="#808080" begin="zoomminus.mouseover" end="zoomminus.mouseout"/></use>
    <path d="M-4,0h8" fill="none" stroke="white" stroke-width="1.5" pointer-events="none"/>
  </g>
  <g id="arrowUp" transform="translate(30 24)">
    <use xlink:href="#rim"/>
    <path pointer-events="none" fill="none" stroke="white" stroke-width="1.5" d="M0,-3.0v7 M-2.5,-0.5L0,-3.0L2.5,-0.5"/>
  </g>
  <g id="arrowRight" transform="rotate(90) translate(36 -43)">
    <use xlink:href="#rim"/>
    <path pointer-events="none" fill="none" stroke="white" stroke-width="1.5" d="M0,-3.0v7 M-2.5,-0.5L0,-3.0L2.5,-0.5"/>
  </g>
  <g id="arrowDown" transform="rotate(180) translate(-30 -48)">
    <use xlink:href="#rim"/>
    <path pointer-events="none" fill="none" stroke="white" stroke-width="1.5" d="M0,-3.0v7 M-2.5,-0.5L0,-3.0L2.5,-0.5"/>
  </g>
  <g id="arrowLeft" transform="rotate(270) translate(-36 17)">
    <use xlink:href="#rim"/>
    <path pointer-events="none" fill="none" stroke="white" stroke-width="1.5" d="M0,-3.0v7 M-2.5,-0.5L0,-3.0L2.5,-0.5"/>
  </g>
  <g id="resetDef">
    <use xlink:href="#rim2" fill="#404040"><set attributeName="fill" to="#808080" begin="reset.mouseover" end="reset.mouseout"/></use>
  </g>
</defs>
<script type="application/ecmascript">
var viewWidth = 814;
var viewHeight = 405;
var sectionId = 'dynsection-38';
</script>
<script type="application/ecmascript" xlink:href="svg.min.js"/>
<svg id="graph" class="graph">
<g id="viewport">
<title>svg::make_marker_circle</title>
<!-- Node1 -->
<g id="Node000001" class="node">
<title>Node1</title>
<g id="a_Node000001"><a xlink:title=" ">
<polygon fill="#999999" stroke="#666666" points="108.25,-120 0,-120 0,-100 108.25,-100 108.25,-120"/>
<text text-anchor="middle" x="54.12" y="-108.4" font-family="SourceSans" font-size="8.00">svg::make_marker_circle</text>
</a>
</g>
</g>
<!-- Node2 -->
<g id="Node000002" class="node">
<title>Node2</title>
<g id="a_Node000002"><a xlink:href="namespacesvg.html#ae450771820b99cadcbf845a4e712753c" target="_top" xlink:title="Make circle element.">
<polygon fill="white" stroke="#666666" points="233.38,-120 155.88,-120 155.88,-100 233.38,-100 233.38,-120"/>
<text text-anchor="middle" x="194.62" y="-108.4" font-family="SourceSans" font-size="8.00">svg::make_circle</text>
</a>
</g>
</g>
<!-- Node1&#45;&gt;Node2 -->
<g id="edge1_Node000001_Node000002" class="edge">
<title>Node1&#45;&gt;Node2</title>
<g id="a_edge1_Node000001_Node000002"><a xlink:title=" ">
<path fill="none" stroke="#63b8ff" d="M108.67,-110C120.43,-110 132.83,-110 144.41,-110"/>
<polygon fill="#63b8ff" stroke="#63b8ff" points="144.15,-113.5 154.15,-110 144.15,-106.5 144.15,-113.5"/>
</a>
</g>
</g>
<!-- Node13 -->
<g id="Node000013" class="node">
<title>Node13</title>
<g id="a_Node000013"><a xlink:href="namespacesvg.html#af02ffb403f990d5ac674a7c1d728fe5b" target="_top" xlink:title="Base function for generating SVG markers in a defs section.">
<polygon fill="white" stroke="#666666" points="401.25,-277 281,-277 281,-257 401.25,-257 401.25,-277"/>
<text text-anchor="middle" x="341.12" y="-265.4" font-family="SourceSans" font-size="8.00">svg::make_marker_element</text>
</a>
</g>
</g>
<!-- Node1&#45;&gt;Node13 -->
<g id="edge12_Node000001_Node000013" class="edge">
<title>Node1&#45;&gt;Node13</title>
<g id="a_edge12_Node000001_Node000013"><a xlink:title=" ">
<path fill="none" stroke="#63b8ff" d="M73.82,-120.3C122.44,-147.08 253.06,-219.04 311.35,-251.15"/>
<polygon fill="#63b8ff" stroke="#63b8ff" points="309.58,-254.17 320.03,-255.93 312.96,-248.04 309.58,-254.17"/>
</a>
</g>
</g>
<!-- Node19 -->
<g id="Node000019" class="node">
<title>Node19</title>
<g id="a_Node000019"><a xlink:href="group__elements.html#ad893ef9c13a15464c96d8a85c08af30f" target="_top" xlink:title=" ">
<polygon fill="white" stroke="#666666" points="245,-82 144.25,-82 144.25,-62 245,-62 245,-82"/>
<text text-anchor="middle" x="194.62" y="-70.4" font-family="SourceSans" font-size="8.00">svg::element_base::str</text>
</a>
</g>
</g>
<!-- Node1&#45;&gt;Node19 -->
<g id="edge26_Node000001_Node000019" class="edge">
<title>Node1&#45;&gt;Node19</title>
<g id="a_edge26_Node000001_Node000019"><a xlink:title=" ">
<path fill="none" stroke="#63b8ff" d="M93.34,-99.52C109.23,-95.15 127.88,-90.04 144.75,-85.41"/>
<polygon fill="#63b8ff" stroke="#63b8ff" points="145.36,-88.87 154.08,-82.85 143.51,-82.12 145.36,-88.87"/>
</a>
</g>
</g>
<!-- Node3 -->
<g id="Node000003" class="node">
<title>Node3</title>
<g id="a_Node000003"><a xlink:href="group__elements.html#a519382631540ecedee961bfb53e9ae87" target="_top" xlink:title=" ">
<polygon fill="white" stroke="#666666" points="385.12,-170 297.12,-170 297.12,-138 385.12,-138 385.12,-170"/>
<text text-anchor="start" x="305.12" y="-158.4" font-family="SourceSans" font-size="8.00">svg::circle_element</text>
<text text-anchor="middle" x="341.12" y="-146.4" font-family="SourceSans" font-size="8.00">::add_data</text>
</a>
</g>
</g>
<!-- Node2&#45;&gt;Node3 -->
<g id="edge2_Node000002_Node000003" class="edge">
<title>Node2&#45;&gt;Node3</title>
<g id="a_edge2_Node000002_Node000003"><a xlink:title=" ">
<path fill="none" stroke="#63b8ff" d="M229.87,-120.43C246.61,-125.53 267.16,-131.78 285.97,-137.51"/>
<polygon fill="#63b8ff" stroke="#63b8ff" points="284.76,-140.8 295.35,-140.37 286.8,-134.1 284.76,-140.8"/>
</a>
</g>
</g>
<!-- Node8 -->
<g id="Node000008" class="node">
<title>Node8</title>
<g id="a_Node000008"><a xlink:href="group__elements.html#a238b38ca99a1cf6c2baf80c8e4338d99" target="_top" xlink:title=" ">
<polygon fill="white" stroke="#666666" points="386.62,-32 295.62,-32 295.62,0 386.62,0 386.62,-32"/>
<text text-anchor="start" x="303.62" y="-20.4" font-family="SourceSans" font-size="8.00">svg::element_base::</text>
<text text-anchor="middle" x="341.12" y="-8.4" font-family="SourceSans" font-size="8.00">add_style</text>
</a>
</g>
</g>
<!-- Node2&#45;&gt;Node8 -->
<g id="edge7_Node000002_Node000008" class="edge">
<title>Node2&#45;&gt;Node8</title>
<g id="a_edge7_Node000002_Node000008"><a xlink:title=" ">
<path fill="none" stroke="#63b8ff" d="M230.46,-99.56C235.61,-97.2 240.64,-94.37 245,-91 266.68,-74.27 259.59,-58.08 281,-41 282.5,-39.81 284.06,-38.66 285.67,-37.56"/>
<polygon fill="#63b8ff" stroke="#63b8ff" points="287.27,-40.68 294.05,-32.54 283.67,-34.68 287.27,-40.68"/>
</a>
</g>
</g>
<!-- Node10 -->
<g id="Node000010" class="node">
<title>Node10</title>
<g id="a_Node000010"><a xlink:href="group__elements.html#ga98a1538c46e39122d8199c12b3a57b5d" target="_top" xlink:title=" ">
<polygon fill="white" stroke="#666666" points="661.25,-126 573.25,-126 573.25,-94 661.25,-94 661.25,-126"/>
<text text-anchor="start" x="581.25" y="-114.4" font-family="SourceSans" font-size="8.00">svg::circle_element</text>
<text text-anchor="middle" x="617.25" y="-102.4" font-family="SourceSans" font-size="8.00">::finish_element</text>
</a>
</g>
</g>
<!-- Node2&#45;&gt;Node10 -->
<g id="edge9_Node000002_Node000010" class="edge">
<title>Node2&#45;&gt;Node10</title>
<g id="a_edge9_Node000002_Node000010"><a xlink:title=" ">
<path fill="none" stroke="#63b8ff" d="M233.69,-110C308.52,-110 474.98,-110 561.56,-110"/>
<polygon fill="#63b8ff" stroke="#63b8ff" points="561.46,-113.5 571.46,-110 561.46,-106.5 561.46,-113.5"/>
</a>
</g>
</g>
<!-- Node12 -->
<g id="Node000012" class="node">
<title>Node12</title>
<g id="a_Node000012"><a xlink:href="group__elements.html#a793cb6b40b2aea335b11f14fd327cde8" target="_top" xlink:title=" ">
<polygon fill="white" stroke="#666666" points="385.12,-82 297.12,-82 297.12,-50 385.12,-50 385.12,-82"/>
<text text-anchor="start" x="305.12" y="-70.4" font-family="SourceSans" font-size="8.00">svg::circle_element</text>
<text text-anchor="middle" x="341.12" y="-58.4" font-family="SourceSans" font-size="8.00">::start_element</text>
</a>
</g>
</g>
<!-- Node2&#45;&gt;Node12 -->
<g id="edge11_Node000002_Node000012" class="edge">
<title>Node2&#45;&gt;Node12</title>
<g id="a_edge11_Node000002_Node000012"><a xlink:title=" ">
<path fill="none" stroke="#63b8ff" d="M229.87,-99.57C246.61,-94.47 267.16,-88.22 285.97,-82.49"/>
<polygon fill="#63b8ff" stroke="#63b8ff" points="286.8,-85.9 295.35,-79.63 284.76,-79.2 286.8,-85.9"/>
</a>
</g>
</g>
<!-- Node4 -->
<g id="Node000004" class="node">
<title>Node4</title>
<g id="a_Node000004"><a xlink:href="group__elements.html#a53d72a7ff728ad1d4d027254530bcf3d" target="_top" xlink:title="Common transforms include rotate(180)">
<polygon fill="white" stroke="#666666" points="530.5,-208 439.5,-208 439.5,-176 530.5,-176 530.5,-208"/>
<text text-anchor="start" x="447.5" y="-196.4" font-family="SourceSans" font-size="8.00">svg::element_base::</text>
<text text-anchor="middle" x="485" y="-184.4" font-family="SourceSans" font-size="8.00">add_transform</text>
</a>
</g>
</g>
<!-- Node3&#45;&gt;Node4 -->
<g id="edge3_Node000003_Node000004" class="edge">
<title>Node3&#45;&gt;Node4</title>
<g id="a_edge3_Node000003_Node000004"><a xlink:title=" ">
<path fill="none" stroke="#63b8ff" d="M385.46,-165.61C399.1,-169.26 414.35,-173.34 428.7,-177.19"/>
<polygon fill="#63b8ff" stroke="#63b8ff" points="427.43,-180.47 437.99,-179.68 429.24,-173.71 427.43,-180.47"/>
</a>
</g>
</g>
<!-- Node7 -->
<g id="Node000007" class="node">
<title>Node7</title>
<g id="a_Node000007"><a xlink:href="namespacesvg.html#a48ac748e89e22789d1772326a98dd7b6" target="_top" xlink:title=" ">
<polygon fill="white" stroke="#666666" points="528.62,-158 441.38,-158 441.38,-138 528.62,-138 528.62,-158"/>
<text text-anchor="middle" x="485" y="-146.4" font-family="SourceSans" font-size="8.00">svg::string_replace</text>
</a>
</g>
</g>
<!-- Node3&#45;&gt;Node7 -->
<g id="edge6_Node000003_Node000007" class="edge">
<title>Node3&#45;&gt;Node7</title>
<g id="a_edge6_Node000003_Node000007"><a xlink:title=" ">
<path fill="none" stroke="#63b8ff" d="M385.46,-152.17C399.35,-151.58 414.91,-150.92 429.49,-150.31"/>
<polygon fill="#63b8ff" stroke="#63b8ff" points="429.57,-153.81 439.42,-149.89 429.28,-146.81 429.57,-153.81"/>
</a>
</g>
</g>
<!-- Node5 -->
<g id="Node000005" class="node">
<title>Node5</title>
<g id="a_Node000005"><a xlink:href="namespacesvg_1_1constants.html#a3972655f1dfdc090ec2592d1fb37e87c" target="_top" xlink:title=" ">
<polygon fill="white" stroke="#666666" points="665.75,-164 568.75,-164 568.75,-144 665.75,-144 665.75,-164"/>
<text text-anchor="middle" x="617.25" y="-152.4" font-family="SourceSans" font-size="8.00">svg::constants::quote</text>
</a>
</g>
</g>
<!-- Node4&#45;&gt;Node5 -->
<g id="edge4_Node000004_Node000005" class="edge">
<title>Node4&#45;&gt;Node5</title>
<g id="a_edge4_Node000004_Node000005"><a xlink:title=" ">
<path fill="none" stroke="#63b8ff" d="M530.82,-178.92C543.35,-175.27 556.98,-171.29 569.6,-167.61"/>
<polygon fill="#63b8ff" stroke="#63b8ff" points="570.31,-171.05 578.93,-164.89 568.35,-164.33 570.31,-171.05"/>
</a>
</g>
</g>
<!-- Node6 -->
<g id="Node000006" class="node">
<title>Node6</title>
<g id="a_Node000006"><a xlink:href="namespacesvg_1_1constants.html#ac460bc8db60d85c3ae1cf8b1a903405e" target="_top" xlink:title="Formatting character constants.">
<polygon fill="white" stroke="#666666" points="665.38,-252 569.12,-252 569.12,-232 665.38,-232 665.38,-252"/>
<text text-anchor="middle" x="617.25" y="-240.4" font-family="SourceSans" font-size="8.00">svg::constants::space</text>
</a>
</g>
</g>
<!-- Node4&#45;&gt;Node6 -->
<g id="edge5_Node000004_Node000006" class="edge">
<title>Node4&#45;&gt;Node6</title>
<g id="a_edge5_Node000004_Node000006"><a xlink:title=" ">
<path fill="none" stroke="#63b8ff" d="M528.65,-208.37C544.8,-214.57 563.06,-221.58 578.71,-227.59"/>
<polygon fill="#63b8ff" stroke="#63b8ff" points="577.07,-230.71 587.66,-231.03 579.58,-224.17 577.07,-230.71"/>
</a>
</g>
</g>
<!-- Node9 -->
<g id="Node000009" class="node">
<title>Node9</title>
<g id="a_Node000009"><a xlink:href="namespacesvg.html#a36b1c48ad4601b205790e3772ad0a7b6" target="_top" xlink:title=" ">
<polygon fill="white" stroke="#666666" points="518.5,-26 451.5,-26 451.5,-6 518.5,-6 518.5,-26"/>
<text text-anchor="middle" x="485" y="-14.4" font-family="SourceSans" font-size="8.00">svg::to_string</text>
</a>
</g>
</g>
<!-- Node8&#45;&gt;Node9 -->
<g id="edge8_Node000008_Node000009" class="edge">
<title>Node8&#45;&gt;Node9</title>
<g id="a_edge8_Node000008_Node000009"><a xlink:title=" ">
<path fill="none" stroke="#63b8ff" d="M387.02,-16C403.9,-16 423.07,-16 439.89,-16"/>
<polygon fill="#63b8ff" stroke="#63b8ff" points="439.58,-19.5 449.58,-16 439.58,-12.5 439.58,-19.5"/>
</a>
</g>
</g>
<!-- Node11 -->
<g id="Node000011" class="node">
<title>Node11</title>
<g id="a_Node000011"><a xlink:href="namespacesvg_1_1constants.html#aa7f04c2ea699a1b1e2e790de5ac33f38" target="_top" xlink:title=" ">
<polygon fill="white" stroke="#666666" points="806.25,-309 701.75,-309 701.75,-289 806.25,-289 806.25,-309"/>
<text text-anchor="middle" x="754" y="-297.4" font-family="SourceSans" font-size="8.00">svg::constants::newline</text>
</a>
</g>
</g>
<!-- Node10&#45;&gt;Node11 -->
<g id="edge10_Node000010_Node000011" class="edge">
<title>Node10&#45;&gt;Node11</title>
<g id="a_edge10_Node000010_Node000011"><a xlink:title=" ">
<path fill="none" stroke="#63b8ff" d="M655.09,-126.44C658.93,-128.99 662.58,-131.84 665.75,-135 708.09,-177.15 734.84,-244.18 746.39,-278"/>
<polygon fill="#63b8ff" stroke="#63b8ff" points="743.04,-279.01 749.49,-287.42 749.69,-276.83 743.04,-279.01"/>
</a>
</g>
</g>
<!-- Node14 -->
<g id="Node000014" class="node">
<title>Node14</title>
<g id="a_Node000014"><a xlink:href="group__elements.html#acafbdd950c6c2639c9d376c3eab696e5" target="_top" xlink:title=" ">
<polygon fill="white" stroke="#666666" points="530.5,-308 439.5,-308 439.5,-276 530.5,-276 530.5,-308"/>
<text text-anchor="start" x="447.5" y="-296.4" font-family="SourceSans" font-size="8.00">svg::element_base::</text>
<text text-anchor="middle" x="485" y="-284.4" font-family="SourceSans" font-size="8.00">add_raw</text>
</a>
</g>
</g>
<!-- Node13&#45;&gt;Node14 -->
<g id="edge13_Node000013_Node000014" class="edge">
<title>Node13&#45;&gt;Node14</title>
<g id="a_edge13_Node000013_Node000014"><a xlink:title=" ">
<path fill="none" stroke="#63b8ff" d="M401.47,-277.46C410.23,-279 419.24,-280.59 427.94,-282.12"/>
<polygon fill="#63b8ff" stroke="#63b8ff" points="427.19,-285.54 437.65,-283.83 428.41,-278.65 427.19,-285.54"/>
</a>
</g>
</g>
<!-- Node15 -->
<g id="Node000015" class="node">
<title>Node15</title>
<g id="a_Node000015"><a xlink:href="group__elements.html#gab7270e660dcac30ea26157764f230e03" target="_top" xlink:title=" ">
<polygon fill="white" stroke="#666666" points="532.75,-378 437.25,-378 437.25,-346 532.75,-346 532.75,-378"/>
<text text-anchor="start" x="445.25" y="-366.4" font-family="SourceSans" font-size="8.00">svg::marker_element</text>
<text text-anchor="middle" x="485" y="-354.4" font-family="SourceSans" font-size="8.00">::finish_element</text>
</a>
</g>
</g>
<!-- Node13&#45;&gt;Node15 -->
<g id="edge16_Node000013_Node000015" class="edge">
<title>Node13&#45;&gt;Node15</title>
<g id="a_edge16_Node000013_Node000015"><a xlink:title=" ">
<path fill="none" stroke="#63b8ff" d="M357.58,-277.35C379.65,-292.12 420.76,-319.65 450.11,-339.31"/>
<polygon fill="#63b8ff" stroke="#63b8ff" points="448.05,-342.14 458.31,-344.8 451.95,-336.33 448.05,-342.14"/>
</a>
</g>
</g>
<!-- Node17 -->
<g id="Node000017" class="node">
<title>Node17</title>
<g id="a_Node000017"><a xlink:href="group__elements.html#ad3c0b5ef28ee0311a315eec38ae99da7" target="_top" xlink:title=" ">
<polygon fill="white" stroke="#666666" points="532.75,-258 437.25,-258 437.25,-226 532.75,-226 532.75,-258"/>
<text text-anchor="start" x="445.25" y="-246.4" font-family="SourceSans" font-size="8.00">svg::marker_element</text>
<text text-anchor="middle" x="485" y="-234.4" font-family="SourceSans" font-size="8.00">::start_element</text>
</a>
</g>
</g>
<!-- Node13&#45;&gt;Node17 -->
<g id="edge20_Node000013_Node000017" class="edge">
<title>Node13&#45;&gt;Node17</title>
<g id="a_edge20_Node000013_Node000017"><a xlink:title=" ">
<path fill="none" stroke="#63b8ff" d="M401.47,-256.54C409.52,-255.12 417.78,-253.67 425.81,-252.25"/>
<polygon fill="#63b8ff" stroke="#63b8ff" points="426.24,-255.73 435.48,-250.55 425.02,-248.84 426.24,-255.73"/>
</a>
</g>
</g>
<!-- Node14&#45;&gt;Node6 -->
<g id="edge15_Node000014_Node000006" class="edge">
<title>Node14&#45;&gt;Node6</title>
<g id="a_edge15_Node000014_Node000006"><a xlink:title=" ">
<path fill="none" stroke="#63b8ff" d="M528.65,-275.63C544.8,-269.43 563.06,-262.42 578.71,-256.41"/>
<polygon fill="#63b8ff" stroke="#63b8ff" points="579.58,-259.83 587.66,-252.97 577.07,-253.29 579.58,-259.83"/>
</a>
</g>
</g>
<!-- Node14&#45;&gt;Node11 -->
<g id="edge14_Node000014_Node000011" class="edge">
<title>Node14&#45;&gt;Node11</title>
<g id="a_edge14_Node000014_Node000011"><a xlink:title=" ">
<path fill="none" stroke="#63b8ff" d="M530.99,-293.18C574.61,-294.32 641.16,-296.07 690.03,-297.35"/>
<polygon fill="#63b8ff" stroke="#63b8ff" points="689.82,-300.84 699.91,-297.61 690,-293.85 689.82,-300.84"/>
</a>
</g>
</g>
<!-- Node15&#45;&gt;Node11 -->
<g id="edge19_Node000015_Node000011" class="edge">
<title>Node15&#45;&gt;Node11</title>
<g id="a_edge19_Node000015_Node000011"><a xlink:title=" ">
<path fill="none" stroke="#63b8ff" d="M524.3,-378.48C561.73,-392.05 619.65,-406.21 665.75,-387 698.69,-373.27 725.57,-340.4 740.42,-318.94"/>
<polygon fill="#63b8ff" stroke="#63b8ff" points="743.26,-320.99 745.87,-310.72 737.43,-317.12 743.26,-320.99"/>
</a>
</g>
</g>
<!-- Node16 -->
<g id="Node000016" class="node">
<title>Node16</title>
<g id="a_Node000016"><a xlink:href="group__elements.html#ga503ee2895588a6c684e2b1614cf4e73d" target="_top" xlink:title=" ">
<polygon fill="white" stroke="#666666" points="662,-378 572.5,-378 572.5,-346 662,-346 662,-378"/>
<text text-anchor="start" x="580.5" y="-366.4" font-family="SourceSans" font-size="8.00">svg::defs_element::</text>
<text text-anchor="middle" x="617.25" y="-354.4" font-family="SourceSans" font-size="8.00">finish_element</text>
</a>
</g>
</g>
<!-- Node15&#45;&gt;Node16 -->
<g id="edge17_Node000015_Node000016" class="edge">
<title>Node15&#45;&gt;Node16</title>
<g id="a_edge17_Node000015_Node000016"><a xlink:title=" ">
<path fill="none" stroke="#63b8ff" d="M533.02,-362C542.14,-362 551.77,-362 561.12,-362"/>
<polygon fill="#63b8ff" stroke="#63b8ff" points="560.82,-365.5 570.82,-362 560.82,-358.5 560.82,-365.5"/>
</a>
</g>
</g>
<!-- Node16&#45;&gt;Node11 -->
<g id="edge18_Node000016_Node000011" class="edge">
<title>Node16&#45;&gt;Node11</title>
<g id="a_edge18_Node000016_Node000011"><a xlink:title=" ">
<path fill="none" stroke="#63b8ff" d="M653.3,-345.61C674.06,-335.91 700.18,-323.7 720.47,-314.21"/>
<polygon fill="#63b8ff" stroke="#63b8ff" points="721.84,-317.43 729.42,-310.03 718.88,-311.09 721.84,-317.43"/>
</a>
</g>
</g>
<!-- Node17&#45;&gt;Node5 -->
<g id="edge22_Node000017_Node000005" class="edge">
<title>Node17&#45;&gt;Node5</title>
<g id="a_edge22_Node000017_Node000005"><a xlink:title=" ">
<path fill="none" stroke="#63b8ff" d="M520.22,-225.76C524.61,-223.09 528.91,-220.16 532.75,-217 552.27,-200.95 548.38,-187.94 568.75,-173 570.47,-171.74 572.28,-170.55 574.16,-169.42"/>
<polygon fill="#63b8ff" stroke="#63b8ff" points="575.3,-172.77 582.56,-165.06 572.08,-166.56 575.3,-172.77"/>
</a>
</g>
</g>
<!-- Node17&#45;&gt;Node6 -->
<g id="edge23_Node000017_Node000006" class="edge">
<title>Node17&#45;&gt;Node6</title>
<g id="a_edge23_Node000017_Node000006"><a xlink:title=" ">
<path fill="none" stroke="#63b8ff" d="M533.02,-242C540.95,-242 549.26,-242 557.44,-242"/>
<polygon fill="#63b8ff" stroke="#63b8ff" points="557.34,-245.5 567.34,-242 557.34,-238.5 557.34,-245.5"/>
</a>
</g>
</g>
<!-- Node17&#45;&gt;Node11 -->
<g id="edge21_Node000017_Node000011" class="edge">
<title>Node17&#45;&gt;Node11</title>
<g id="a_edge21_Node000017_Node000011"><a xlink:title=" ">
<path fill="none" stroke="#63b8ff" d="M533.22,-253.03C544.83,-255.69 557.23,-258.49 568.75,-261 609.06,-269.78 654.46,-279.15 690.1,-286.39"/>
<polygon fill="#63b8ff" stroke="#63b8ff" points="689.33,-289.8 699.83,-288.36 690.72,-282.94 689.33,-289.8"/>
</a>
</g>
</g>
<!-- Node18 -->
<g id="Node000018" class="node">
<title>Node18</title>
<g id="a_Node000018"><a xlink:href="group__elements.html#a948868c6f5dea784ded14c26cc1d2139" target="_top" xlink:title=" ">
<polygon fill="white" stroke="#666666" points="662,-214 572.5,-214 572.5,-182 662,-182 662,-214"/>
<text text-anchor="start" x="580.5" y="-202.4" font-family="SourceSans" font-size="8.00">svg::defs_element::</text>
<text text-anchor="middle" x="617.25" y="-190.4" font-family="SourceSans" font-size="8.00">start_element</text>
</a>
</g>
</g>
<!-- Node17&#45;&gt;Node18 -->
<g id="edge24_Node000017_Node000018" class="edge">
<title>Node17&#45;&gt;Node18</title>
<g id="a_edge24_Node000017_Node000018"><a xlink:title=" ">
<path fill="none" stroke="#63b8ff" d="M533.02,-226.11C542.24,-223 551.98,-219.71 561.43,-216.52"/>
<polygon fill="#63b8ff" stroke="#63b8ff" points="562.55,-219.84 570.9,-213.32 560.31,-213.2 562.55,-219.84"/>
</a>
</g>
</g>
<!-- Node18&#45;&gt;Node11 -->
<g id="edge25_Node000018_Node000011" class="edge">
<title>Node18&#45;&gt;Node11</title>
<g id="a_edge25_Node000018_Node000011"><a xlink:title=" ">
<path fill="none" stroke="#63b8ff" d="M651.79,-214.39C656.58,-217.09 661.37,-220 665.75,-223 691.3,-240.5 717.71,-264.47 734.68,-280.79"/>
<polygon fill="#63b8ff" stroke="#63b8ff" points="731.96,-283.02 741.56,-287.49 736.84,-278 731.96,-283.02"/>
</a>
</g>
</g>
</g>
</svg>

<g id="navigator" transform="translate(0 0)" fill="#404254">
  <rect fill="#f2f5e9" fill-opacity="0.5" stroke="#606060" stroke-width=".5" x="0" y="0" width="60" height="60"/>
  <use id="zoomplus" xlink:href="#zoomPlus" x="17" y="9" onmousedown="handleZoom(evt,'in')"/>
  <use id="zoomminus" xlink:href="#zoomMin" x="42" y="9" onmousedown="handleZoom(evt,'out')"/>
  <use id="reset" xlink:href="#resetDef" x="30" y="36" onmousedown="handleReset()"/>
   <use id="arrowup" xlink:href="#arrowUp" x="0" y="0" onmousedown="handlePan(0,-1)"/>
  <use id="arrowright" xlink:href="#arrowRight" x="0" y="0" onmousedown="handlePan(1,0)"/>
  <use id="arrowdown" xlink:href="#arrowDown" x="0" y="0" onmousedown="handlePan(0,1)"/>
  <use id="arrowleft" xlink:href="#arrowLeft" x="0" y="0" onmousedown="handlePan(-1,0)"/>
</g>
<svg viewBox="0 0 15 15" width="100%" height="30px" preserveAspectRatio="xMaxYMin meet">
 <g id="arrow_out" transform="scale(0.3 0.3)">
  <a xlink:href="namespacesvg_a9f746a2fcfb397567be5af437c5df8ae_cgraph_org.svg" target="_base">
   <rect id="button" ry="5" rx="5" y="6" x="6" height="38" width="38"
        fill="#f2f5e9" fill-opacity="0.5" stroke="#606060" stroke-width="1.0"/>
   <path id="arrow"
     d="M 11.500037,31.436501 C 11.940474,20.09759 22.043105,11.32322 32.158766,21.979434 L 37.068811,17.246167 C 37.068811,17.246167 37.088388,32 37.088388,32 L 22.160133,31.978069 C 22.160133,31.978069 26.997745,27.140456 26.997745,27.140456 C 18.528582,18.264221 13.291696,25.230495 11.500037,31.436501 z"
     style="fill:#404040;"/>
  </a>
 </g>
</svg>

<style type='text/css'>
<![CDATA[
[data-mouse-over-selected='false'] { opacity: 0.7; }
[data-mouse-over-selected='true']  { opacity: 1.0; }
]]>
</style>
<script type="application/ecmascript"><![CDATA[
document.addEventListener('DOMContentLoaded', (event) => {
  highlightEdges();
  highlightAdjacentNodes();
});
]]></script>
</svg>
