<?xml version="1.0" encoding="UTF-8" standalone="no"?>
<!DOCTYPE svg PUBLIC "-//W3C//DTD SVG 1.1//EN"
 "http://www.w3.org/Graphics/SVG/1.1/DTD/svg11.dtd">
<!-- Generated by graphviz version 13.1.2 (20250808.2320)
 -->
<!-- Title: svg::splay_ids_around Pages: 1 -->
<!--zoomable 426 -->

<svg id="main" version="1.1" xmlns="http://www.w3.org/2000/svg" xmlns:xlink="http://www.w3.org/1999/xlink" xml:space="preserve" onload="init(evt)">

<style type="text/css"><![CDATA[
.node, .edge {opacity: 0.7;}
.node.selected, .edge.selected {opacity: 1;}
.edge:hover path { stroke: red; }
.edge:hover polygon { stroke: red; fill: red; }
]]></style>

<defs>
  <circle id="rim" cx="0" cy="0" r="7"/>
  <circle id="rim2" cx="0" cy="0" r="3.5"/>
  <g id="zoomPlus">
    <use xlink:href="#rim" fill="#404040"><set attributeName="fill" to="#808080" begin="zoomplus.mouseover" end="zoomplus.mouseout"/></use>
    <path d="M-4,0h8M0,-4v8" fill="none" stroke="white" stroke-width="1.5" pointer-events="none"/>
  </g>
  <g id="zoomMin">
    <use xlink:href="#rim" fill="#404040"><set attributeName="fill" to="#808080" begin="zoomminus.mouseover" end="zoomminus.mouseout"/></use>
    <path d="M-4,0h8" fill="none" stroke="white" stroke-width="1.5" pointer-events="none"/>
  </g>
  <g id="arrowUp" transform="translate(30 24)">
    <use xlink:href="#rim"/>
    <path pointer-events="none" fill="none" stroke="white" stroke-width="1.5" d="M0,-3.0v7 M-2.5,-0.5L0,-3.0L2.5,-0.5"/>
  </g>
  <g id="arrowRight" transform="rotate(90) translate(36 -43)">
    <use xlink:href="#rim"/>
    <path pointer-events="none" fill="none" stroke="white" stroke-width="1.5" d="M0,-3.0v7 M-2.5,-0.5L0,-3.0L2.5,-0.5"/>
  </g>
  <g id="arrowDown" transform="rotate(180) translate(-30 -48)">
    <use xlink:href="#rim"/>
    <path pointer-events="none" fill="none" stroke="white" stroke-width="1.5" d="M0,-3.0v7 M-2.5,-0.5L0,-3.0L2.5,-0.5"/>
  </g>
  <g id="arrowLeft" transform="rotate(270) translate(-36 17)">
    <use xlink:href="#rim"/>
    <path pointer-events="none" fill="none" stroke="white" stroke-width="1.5" d="M0,-3.0v7 M-2.5,-0.5L0,-3.0L2.5,-0.5"/>
  </g>
  <g id="resetDef">
    <use xlink:href="#rim2" fill="#404040"><set attributeName="fill" to="#808080" begin="reset.mouseover" end="reset.mouseout"/></use>
  </g>
</defs>
<script type="application/ecmascript">
var viewWidth = 1270;
var viewHeight = 426;
var sectionId = 'dynsection-58';
</script>
<script type="application/ecmascript" xlink:href="svg.min.js"/>
<svg id="graph" class="graph">
<g id="viewport">
<title>svg::splay_ids_around</title>
<!-- Node1 -->
<g id="Node000001" class="node">
<title>Node1</title>
<g id="a_Node000001"><a xlink:title="Spread ids on either side of an origin point, along circumference path.">
<polygon fill="#999999" stroke="#666666" points="106,-162.62 0,-162.62 0,-144.88 106,-144.88 106,-162.62"/>
<text xml:space="preserve" text-anchor="middle" x="53" y="-151.03" font-family="SourceSans" font-size="8.00">svg::splay_ids_around</text>
</a>
</g>
</g>
<!-- Node2 -->
<g id="Node000002" class="node">
<title>Node2</title>
<g id="a_Node000002"><a xlink:href="group__elements.html#ada0333b46b2547c6152f3f5811016a12" target="_top" xlink:title=" ">
<polygon fill="white" stroke="#666666" points="687.5,-257.5 587.5,-257.5 587.5,-230 687.5,-230 687.5,-257.5"/>
<text xml:space="preserve" text-anchor="start" x="595.5" y="-245.9" font-family="SourceSans" font-size="8.00">svg::element_base::</text>
<text xml:space="preserve" text-anchor="middle" x="637.5" y="-236.15" font-family="SourceSans" font-size="8.00">add_element</text>
</a>
</g>
</g>
<!-- Node1&#45;&gt;Node2 -->
<g id="edge1_Node000001_Node000002" class="edge">
<title>Node1&#45;&gt;Node2</title>
<g id="a_edge1_Node000001_Node000002"><a xlink:title=" ">
<path fill="none" stroke="#63b8ff" d="M67.38,-162.96C101,-185.49 192.53,-242.95 278.75,-262.75 381.17,-286.28 504.23,-270.47 576.08,-257"/>
<polygon fill="#63b8ff" stroke="#63b8ff" points="576.51,-260.48 585.67,-255.16 575.19,-253.61 576.51,-260.48"/>
</a>
</g>
</g>
<!-- Node4 -->
<g id="Node000004" class="node">
<title>Node4</title>
<g id="a_Node000004"><a xlink:href="namespacesvg.html#a3a981b6bbcf7466e6e90eacbe8cf126d" target="_top" xlink:title=" ">
<polygon fill="white" stroke="#666666" points="242.75,-107.5 142,-107.5 142,-80 242.75,-80 242.75,-107.5"/>
<text xml:space="preserve" text-anchor="start" x="150" y="-95.9" font-family="SourceSans" font-size="8.00">svg::adjust_angle_at</text>
<text xml:space="preserve" text-anchor="middle" x="192.38" y="-86.15" font-family="SourceSans" font-size="8.00">_orbit_for_distance</text>
</a>
</g>
</g>
<!-- Node1&#45;&gt;Node4 -->
<g id="edge3_Node000001_Node000004" class="edge">
<title>Node1&#45;&gt;Node4</title>
<g id="a_edge3_Node000001_Node000004"><a xlink:title=" ">
<path fill="none" stroke="#63b8ff" d="M75.46,-144.38C94.92,-135.88 124.18,-123.1 148.43,-112.51"/>
<polygon fill="#63b8ff" stroke="#63b8ff" points="149.67,-115.78 157.43,-108.57 146.87,-109.37 149.67,-115.78"/>
</a>
</g>
</g>
<!-- Node6 -->
<g id="Node000006" class="node">
<title>Node6</title>
<g id="a_Node000006"><a xlink:href="namespacesvg.html#ab44508c4aeca591141ebec50145b75cd" target="_top" xlink:title="Angle in degrees.">
<polygon fill="white" stroke="#666666" points="397.12,-109.5 285.88,-109.5 285.88,-82 397.12,-82 397.12,-109.5"/>
<text xml:space="preserve" text-anchor="start" x="293.88" y="-97.9" font-family="SourceSans" font-size="8.00">svg::get_circumference</text>
<text xml:space="preserve" text-anchor="middle" x="341.5" y="-88.15" font-family="SourceSans" font-size="8.00">_point_d</text>
</a>
</g>
</g>
<!-- Node1&#45;&gt;Node6 -->
<g id="edge7_Node000001_Node000006" class="edge">
<title>Node1&#45;&gt;Node6</title>
<g id="a_edge7_Node000001_Node000006"><a xlink:title=" ">
<path fill="none" stroke="#63b8ff" d="M102.93,-144.41C141.07,-137.07 195.32,-126.49 242.75,-116.75 253.03,-114.64 263.92,-112.35 274.54,-110.09"/>
<polygon fill="#63b8ff" stroke="#63b8ff" points="274.95,-113.58 284,-108.07 273.49,-106.74 274.95,-113.58"/>
</a>
</g>
</g>
<!-- Node8 -->
<g id="Node000008" class="node">
<title>Node8</title>
<g id="a_Node000008"><a xlink:href="namespacesvg.html#af8550758c7d56d550efe4ea83fe21f5b" target="_top" xlink:title="Given identifier/name/id, get corresponding id_rstate from cache.">
<polygon fill="white" stroke="#666666" points="236.75,-42.62 148,-42.62 148,-24.88 236.75,-24.88 236.75,-42.62"/>
<text xml:space="preserve" text-anchor="middle" x="192.38" y="-31.02" font-family="SourceSans" font-size="8.00">svg::get_id_rstate</text>
</a>
</g>
</g>
<!-- Node1&#45;&gt;Node8 -->
<g id="edge8_Node000001_Node000008" class="edge">
<title>Node1&#45;&gt;Node8</title>
<g id="a_edge8_Node000001_Node000008"><a xlink:title=" ">
<path fill="none" stroke="#63b8ff" d="M63.18,-144.42C78.85,-128.67 111.95,-96.04 142,-70.75 150.57,-63.53 160.39,-56.04 168.99,-49.69"/>
<polygon fill="#63b8ff" stroke="#63b8ff" points="170.81,-52.7 176.84,-43.99 166.7,-47.03 170.81,-52.7"/>
</a>
</g>
</g>
<!-- Node10 -->
<g id="Node000010" class="node">
<title>Node10</title>
<g id="a_Node000010"><a xlink:href="namespacesvg.html#a3b4b07213c6b39323069da0ee61cd4f0" target="_top" xlink:title="Make circle element.">
<polygon fill="white" stroke="#666666" points="820.5,-328.62 737,-328.62 737,-310.88 820.5,-310.88 820.5,-328.62"/>
<text xml:space="preserve" text-anchor="middle" x="778.75" y="-317.02" font-family="SourceSans" font-size="8.00">svg::make_circle</text>
</a>
</g>
</g>
<!-- Node1&#45;&gt;Node10 -->
<g id="edge10_Node000001_Node000010" class="edge">
<title>Node1&#45;&gt;Node10</title>
<g id="a_edge10_Node000001_Node000010"><a xlink:title=" ">
<path fill="none" stroke="#63b8ff" d="M60.72,-163.06C74.21,-181.14 106.38,-221.32 142,-244.75 220.8,-296.57 246.19,-319.75 340.5,-319.75 340.5,-319.75 340.5,-319.75 496.88,-319.75 576.54,-319.75 668.92,-319.75 725.34,-319.75"/>
<polygon fill="#63b8ff" stroke="#63b8ff" points="725.3,-323.25 735.3,-319.75 725.3,-316.25 725.3,-323.25"/>
</a>
</g>
</g>
<!-- Node19 -->
<g id="Node000019" class="node">
<title>Node19</title>
<g id="a_Node000019"><a xlink:href="namespacesvg.html#a0a0dce44cf8a75daa516cdf9fade5a85" target="_top" xlink:title=" ">
<polygon fill="white" stroke="#666666" points="234.88,-181.62 149.88,-181.62 149.88,-163.88 234.88,-163.88 234.88,-181.62"/>
<text xml:space="preserve" text-anchor="middle" x="192.38" y="-170.03" font-family="SourceSans" font-size="8.00">svg::radial_text_r</text>
</a>
</g>
</g>
<!-- Node1&#45;&gt;Node19 -->
<g id="edge19_Node000001_Node000019" class="edge">
<title>Node1&#45;&gt;Node19</title>
<g id="a_edge19_Node000001_Node000019"><a xlink:title=" ">
<path fill="none" stroke="#63b8ff" d="M106.33,-160.99C116.8,-162.44 127.8,-163.96 138.3,-165.41"/>
<polygon fill="#63b8ff" stroke="#63b8ff" points="137.55,-168.84 147.93,-166.74 138.51,-161.9 137.55,-168.84"/>
</a>
</g>
</g>
<!-- Node3 -->
<g id="Node000003" class="node">
<title>Node3</title>
<g id="a_Node000003"><a xlink:href="group__elements.html#ad893ef9c13a15464c96d8a85c08af30f" target="_top" xlink:title=" ">
<polygon fill="white" stroke="#666666" points="834,-252.62 723.5,-252.62 723.5,-234.88 834,-234.88 834,-252.62"/>
<text xml:space="preserve" text-anchor="middle" x="778.75" y="-241.03" font-family="SourceSans" font-size="8.00">svg::element_base::str</text>
</a>
</g>
</g>
<!-- Node2&#45;&gt;Node3 -->
<g id="edge2_Node000002_Node000003" class="edge">
<title>Node2&#45;&gt;Node3</title>
<g id="a_edge2_Node000002_Node000003"><a xlink:title=" ">
<path fill="none" stroke="#63b8ff" d="M687.99,-243.75C695.74,-243.75 703.87,-243.75 711.92,-243.75"/>
<polygon fill="#63b8ff" stroke="#63b8ff" points="711.7,-247.25 721.7,-243.75 711.7,-240.25 711.7,-247.25"/>
</a>
</g>
</g>
<!-- Node5 -->
<g id="Node000005" class="node">
<title>Node5</title>
<g id="a_Node000005"><a xlink:href="namespacesvg.html#ad731faf1d114f53f85c018df27e301e2" target="_top" xlink:title="Find cartesian distance between two 2D points.">
<polygon fill="white" stroke="#666666" points="398.25,-63.62 284.75,-63.62 284.75,-45.88 398.25,-45.88 398.25,-63.62"/>
<text xml:space="preserve" text-anchor="middle" x="341.5" y="-52.02" font-family="SourceSans" font-size="8.00">svg::distance_cartesian</text>
</a>
</g>
</g>
<!-- Node4&#45;&gt;Node5 -->
<g id="edge4_Node000004_Node000005" class="edge">
<title>Node4&#45;&gt;Node5</title>
<g id="a_edge4_Node000004_Node000005"><a xlink:title=" ">
<path fill="none" stroke="#63b8ff" d="M243.18,-80.55C259.71,-76.17 278.03,-71.31 294.28,-67"/>
<polygon fill="#63b8ff" stroke="#63b8ff" points="294.91,-70.46 303.68,-64.51 293.12,-63.69 294.91,-70.46"/>
</a>
</g>
</g>
<!-- Node4&#45;&gt;Node6 -->
<g id="edge5_Node000004_Node000006" class="edge">
<title>Node4&#45;&gt;Node6</title>
<g id="a_edge5_Node000004_Node000006"><a xlink:title=" ">
<path fill="none" stroke="#63b8ff" d="M243.18,-94.43C253.16,-94.56 263.8,-94.71 274.23,-94.85"/>
<polygon fill="#63b8ff" stroke="#63b8ff" points="273.87,-98.34 283.92,-94.98 273.97,-91.35 273.87,-98.34"/>
</a>
</g>
</g>
<!-- Node7 -->
<g id="Node000007" class="node">
<title>Node7</title>
<g id="a_Node000007"><a xlink:href="namespacesvg.html#aef05ac63d88a6102981d3faf37275297" target="_top" xlink:title="Angle in radians.">
<polygon fill="white" stroke="#666666" points="551.5,-109.5 440.25,-109.5 440.25,-82 551.5,-82 551.5,-109.5"/>
<text xml:space="preserve" text-anchor="start" x="448.25" y="-97.9" font-family="SourceSans" font-size="8.00">svg::get_circumference</text>
<text xml:space="preserve" text-anchor="middle" x="495.88" y="-88.15" font-family="SourceSans" font-size="8.00">_point_r</text>
</a>
</g>
</g>
<!-- Node6&#45;&gt;Node7 -->
<g id="edge6_Node000006_Node000007" class="edge">
<title>Node6&#45;&gt;Node7</title>
<g id="a_edge6_Node000006_Node000007"><a xlink:title=" ">
<path fill="none" stroke="#63b8ff" d="M397.51,-95.75C407.54,-95.75 418.11,-95.75 428.43,-95.75"/>
<polygon fill="#63b8ff" stroke="#63b8ff" points="428.43,-99.25 438.43,-95.75 428.43,-92.25 428.43,-99.25"/>
</a>
</g>
</g>
<!-- Node9 -->
<g id="Node000009" class="node">
<title>Node9</title>
<g id="a_Node000009"><a xlink:href="namespacesvg.html#a96dce340dcdb9eed5deb3164b8bb5585" target="_top" xlink:title=" ">
<polygon fill="white" stroke="#666666" points="385.88,-27.5 297.12,-27.5 297.12,0 385.88,0 385.88,-27.5"/>
<text xml:space="preserve" text-anchor="start" x="305.12" y="-15.9" font-family="SourceSans" font-size="8.00">svg::get_id_rstate</text>
<text xml:space="preserve" text-anchor="middle" x="341.5" y="-6.15" font-family="SourceSans" font-size="8.00">_cache</text>
</a>
</g>
</g>
<!-- Node8&#45;&gt;Node9 -->
<g id="edge9_Node000008_Node000009" class="edge">
<title>Node8&#45;&gt;Node9</title>
<g id="a_edge9_Node000008_Node000009"><a xlink:title=" ">
<path fill="none" stroke="#63b8ff" d="M237.12,-27.8C252.25,-25.75 269.41,-23.41 285.34,-21.25"/>
<polygon fill="#63b8ff" stroke="#63b8ff" points="285.73,-24.73 295.17,-19.91 284.79,-17.79 285.73,-24.73"/>
</a>
</g>
</g>
<!-- Node11 -->
<g id="Node000011" class="node">
<title>Node11</title>
<g id="a_Node000011"><a xlink:href="group__elements.html#a519382631540ecedee961bfb53e9ae87" target="_top" xlink:title=" ">
<polygon fill="white" stroke="#666666" points="965.5,-371.5 870,-371.5 870,-344 965.5,-344 965.5,-371.5"/>
<text xml:space="preserve" text-anchor="start" x="878" y="-359.9" font-family="SourceSans" font-size="8.00">svg::circle_element</text>
<text xml:space="preserve" text-anchor="middle" x="917.75" y="-350.15" font-family="SourceSans" font-size="8.00">::add_data</text>
</a>
</g>
</g>
<!-- Node10&#45;&gt;Node11 -->
<g id="edge11_Node000010_Node000011" class="edge">
<title>Node10&#45;&gt;Node11</title>
<g id="a_edge11_Node000010_Node000011"><a xlink:title=" ">
<path fill="none" stroke="#63b8ff" d="M813.26,-329.05C826.91,-332.83 843.08,-337.32 858.53,-341.6"/>
<polygon fill="#63b8ff" stroke="#63b8ff" points="857.59,-344.97 868.16,-344.27 859.46,-338.23 857.59,-344.97"/>
</a>
</g>
</g>
<!-- Node15 -->
<g id="Node000015" class="node">
<title>Node15</title>
<g id="a_Node000015"><a xlink:href="group__elements.html#a238b38ca99a1cf6c2baf80c8e4338d99" target="_top" xlink:title=" ">
<polygon fill="white" stroke="#666666" points="1103.38,-155.5 1003.38,-155.5 1003.38,-128 1103.38,-128 1103.38,-155.5"/>
<text xml:space="preserve" text-anchor="start" x="1011.38" y="-143.9" font-family="SourceSans" font-size="8.00">svg::element_base::</text>
<text xml:space="preserve" text-anchor="middle" x="1053.38" y="-134.15" font-family="SourceSans" font-size="8.00">add_style</text>
</a>
</g>
</g>
<!-- Node10&#45;&gt;Node15 -->
<g id="edge15_Node000010_Node000015" class="edge">
<title>Node10&#45;&gt;Node15</title>
<g id="a_edge15_Node000010_Node000015"><a xlink:title=" ">
<path fill="none" stroke="#63b8ff" d="M788.45,-310.57C803.71,-294.9 836.84,-262.74 870,-242.75 909.12,-219.17 925.85,-227.44 965.5,-204.75 983.09,-194.68 985.14,-188.72 1001.5,-176.75 1007.95,-172.03 1014.96,-167.09 1021.66,-162.45"/>
<polygon fill="#63b8ff" stroke="#63b8ff" points="1023.63,-165.35 1029.89,-156.81 1019.67,-159.58 1023.63,-165.35"/>
</a>
</g>
</g>
<!-- Node17 -->
<g id="Node000017" class="node">
<title>Node17</title>
<g id="a_Node000017"><a xlink:href="group__elements.html#ga98a1538c46e39122d8199c12b3a57b5d" target="_top" xlink:title=" ">
<polygon fill="white" stroke="#666666" points="965.5,-325.5 870,-325.5 870,-298 965.5,-298 965.5,-325.5"/>
<text xml:space="preserve" text-anchor="start" x="878" y="-313.9" font-family="SourceSans" font-size="8.00">svg::circle_element</text>
<text xml:space="preserve" text-anchor="middle" x="917.75" y="-304.15" font-family="SourceSans" font-size="8.00">::finish_element</text>
</a>
</g>
</g>
<!-- Node10&#45;&gt;Node17 -->
<g id="edge17_Node000010_Node000017" class="edge">
<title>Node10&#45;&gt;Node17</title>
<g id="a_edge17_Node000010_Node000017"><a xlink:title=" ">
<path fill="none" stroke="#63b8ff" d="M820.85,-317.35C832.68,-316.66 845.81,-315.89 858.47,-315.15"/>
<polygon fill="#63b8ff" stroke="#63b8ff" points="858.62,-318.65 868.4,-314.57 858.21,-311.66 858.62,-318.65"/>
</a>
</g>
</g>
<!-- Node18 -->
<g id="Node000018" class="node">
<title>Node18</title>
<g id="a_Node000018"><a xlink:href="group__elements.html#a793cb6b40b2aea335b11f14fd327cde8" target="_top" xlink:title=" ">
<polygon fill="white" stroke="#666666" points="965.5,-417.5 870,-417.5 870,-390 965.5,-390 965.5,-417.5"/>
<text xml:space="preserve" text-anchor="start" x="878" y="-405.9" font-family="SourceSans" font-size="8.00">svg::circle_element</text>
<text xml:space="preserve" text-anchor="middle" x="917.75" y="-396.15" font-family="SourceSans" font-size="8.00">::start_element</text>
</a>
</g>
</g>
<!-- Node10&#45;&gt;Node18 -->
<g id="edge18_Node000010_Node000018" class="edge">
<title>Node10&#45;&gt;Node18</title>
<g id="a_edge18_Node000010_Node000018"><a xlink:title=" ">
<path fill="none" stroke="#63b8ff" d="M792.25,-329C809.35,-341.48 841.21,-364.04 870,-380.75 872.16,-382 874.4,-383.26 876.68,-384.49"/>
<polygon fill="#63b8ff" stroke="#63b8ff" points="874.92,-387.52 885.41,-389.05 878.16,-381.32 874.92,-387.52"/>
</a>
</g>
</g>
<!-- Node12 -->
<g id="Node000012" class="node">
<title>Node12</title>
<g id="a_Node000012"><a xlink:href="group__elements.html#a53d72a7ff728ad1d4d027254530bcf3d" target="_top" xlink:title=" ">
<polygon fill="white" stroke="#666666" points="1103.38,-407.5 1003.38,-407.5 1003.38,-380 1103.38,-380 1103.38,-407.5"/>
<text xml:space="preserve" text-anchor="start" x="1011.38" y="-395.9" font-family="SourceSans" font-size="8.00">svg::element_base::</text>
<text xml:space="preserve" text-anchor="middle" x="1053.38" y="-386.15" font-family="SourceSans" font-size="8.00">add_transform</text>
</a>
</g>
</g>
<!-- Node11&#45;&gt;Node12 -->
<g id="edge12_Node000011_Node000012" class="edge">
<title>Node11&#45;&gt;Node12</title>
<g id="a_edge12_Node000011_Node000012"><a xlink:title=" ">
<path fill="none" stroke="#63b8ff" d="M965.86,-370.44C974.31,-372.72 983.23,-375.12 992,-377.48"/>
<polygon fill="#63b8ff" stroke="#63b8ff" points="990.95,-380.83 1001.51,-380.05 992.77,-374.07 990.95,-380.83"/>
</a>
</g>
</g>
<!-- Node14 -->
<g id="Node000014" class="node">
<title>Node14</title>
<g id="a_Node000014"><a xlink:href="namespacesvg.html#a48ac748e89e22789d1772326a98dd7b6" target="_top" xlink:title=" ">
<polygon fill="white" stroke="#666666" points="1248,-322.62 1154.75,-322.62 1154.75,-304.88 1248,-304.88 1248,-322.62"/>
<text xml:space="preserve" text-anchor="middle" x="1201.38" y="-311.02" font-family="SourceSans" font-size="8.00">svg::string_replace</text>
</a>
</g>
</g>
<!-- Node11&#45;&gt;Node14 -->
<g id="edge14_Node000011_Node000014" class="edge">
<title>Node11&#45;&gt;Node14</title>
<g id="a_edge14_Node000011_Node000014"><a xlink:title=" ">
<path fill="none" stroke="#63b8ff" d="M965.89,-350.39C1014.76,-342.75 1091.18,-330.81 1143.4,-322.65"/>
<polygon fill="#63b8ff" stroke="#63b8ff" points="1143.65,-326.15 1152.99,-321.15 1142.57,-319.24 1143.65,-326.15"/>
</a>
</g>
</g>
<!-- Node13 -->
<g id="Node000013" class="node">
<title>Node13</title>
<g id="a_Node000013"><a xlink:href="group__elements.html#ae50258851ebbaf08c7eebc3fbdbf1ac8" target="_top" xlink:title="Common transforms include rotate(180)">
<polygon fill="white" stroke="#666666" points="1261.5,-407.5 1141.25,-407.5 1141.25,-380 1261.5,-380 1261.5,-407.5"/>
<text xml:space="preserve" text-anchor="start" x="1149.25" y="-395.9" font-family="SourceSans" font-size="8.00">svg::element_base::</text>
<text xml:space="preserve" text-anchor="middle" x="1201.38" y="-386.15" font-family="SourceSans" font-size="8.00">make_transform_attribute</text>
</a>
</g>
</g>
<!-- Node12&#45;&gt;Node13 -->
<g id="edge13_Node000012_Node000013" class="edge">
<title>Node12&#45;&gt;Node13</title>
<g id="a_edge13_Node000012_Node000013"><a xlink:title=" ">
<path fill="none" stroke="#63b8ff" d="M1103.8,-393.75C1112.09,-393.75 1120.82,-393.75 1129.52,-393.75"/>
<polygon fill="#63b8ff" stroke="#63b8ff" points="1129.37,-397.25 1139.37,-393.75 1129.37,-390.25 1129.37,-397.25"/>
</a>
</g>
</g>
<!-- Node16 -->
<g id="Node000016" class="node">
<title>Node16</title>
<g id="a_Node000016"><a xlink:href="namespacesvg.html#a36b1c48ad4601b205790e3772ad0a7b6" target="_top" xlink:title=" ">
<polygon fill="white" stroke="#666666" points="1237.12,-192.62 1165.62,-192.62 1165.62,-174.88 1237.12,-174.88 1237.12,-192.62"/>
<text xml:space="preserve" text-anchor="middle" x="1201.38" y="-181.03" font-family="SourceSans" font-size="8.00">svg::to_string</text>
</a>
</g>
</g>
<!-- Node15&#45;&gt;Node16 -->
<g id="edge16_Node000015_Node000016" class="edge">
<title>Node15&#45;&gt;Node16</title>
<g id="a_edge16_Node000015_Node000016"><a xlink:title=" ">
<path fill="none" stroke="#63b8ff" d="M1103.8,-155.97C1121.18,-160.97 1140.54,-166.54 1157.35,-171.37"/>
<polygon fill="#63b8ff" stroke="#63b8ff" points="1155.94,-174.61 1166.52,-174.01 1157.88,-167.88 1155.94,-174.61"/>
</a>
</g>
</g>
<!-- Node19&#45;&gt;Node6 -->
<g id="edge20_Node000019_Node000006" class="edge">
<title>Node19&#45;&gt;Node6</title>
<g id="a_edge20_Node000019_Node000006"><a xlink:title=" ">
<path fill="none" stroke="#63b8ff" d="M216.68,-163.48C225.16,-159.7 234.65,-154.98 242.75,-149.75 260.49,-138.3 260.57,-129.49 278.75,-118.75 281.08,-117.38 283.5,-116.06 285.98,-114.8"/>
<polygon fill="#63b8ff" stroke="#63b8ff" points="287.45,-117.98 295.05,-110.6 284.5,-111.63 287.45,-117.98"/>
</a>
</g>
</g>
<!-- Node20 -->
<g id="Node000020" class="node">
<title>Node20</title>
<g id="a_Node000020"><a xlink:href="namespacesvg.html#ae7eab6d9ce1f55bcbcc997cd24c5abcf" target="_top" xlink:title="Text with typography, arranged ccw around points (x,y) on a circle.">
<polygon fill="white" stroke="#666666" points="390.38,-145.62 292.62,-145.62 292.62,-127.88 390.38,-127.88 390.38,-145.62"/>
<text xml:space="preserve" text-anchor="middle" x="341.5" y="-134.03" font-family="SourceSans" font-size="8.00">svg::radial_text_ccw</text>
</a>
</g>
</g>
<!-- Node19&#45;&gt;Node20 -->
<g id="edge21_Node000019_Node000020" class="edge">
<title>Node19&#45;&gt;Node20</title>
<g id="a_edge21_Node000019_Node000020"><a xlink:title=" ">
<path fill="none" stroke="#63b8ff" d="M231.65,-163.39C249.87,-158.93 271.87,-153.54 291.32,-148.78"/>
<polygon fill="#63b8ff" stroke="#63b8ff" points="292.07,-152.2 300.95,-146.43 290.4,-145.4 292.07,-152.2"/>
</a>
</g>
</g>
<!-- Node31 -->
<g id="Node000031" class="node">
<title>Node31</title>
<g id="a_Node000031"><a xlink:href="namespacesvg.html#a27b1041d0851178e4835e1f623a46161" target="_top" xlink:title="Text with typography, arranged cw around points (x,y) on a circle.">
<polygon fill="white" stroke="#666666" points="388.12,-181.62 294.88,-181.62 294.88,-163.88 388.12,-163.88 388.12,-181.62"/>
<text xml:space="preserve" text-anchor="middle" x="341.5" y="-170.03" font-family="SourceSans" font-size="8.00">svg::radial_text_cw</text>
</a>
</g>
</g>
<!-- Node19&#45;&gt;Node31 -->
<g id="edge38_Node000019_Node000031" class="edge">
<title>Node19&#45;&gt;Node31</title>
<g id="a_edge38_Node000019_Node000031"><a xlink:title=" ">
<path fill="none" stroke="#63b8ff" d="M235.14,-172.75C250.04,-172.75 267.1,-172.75 283.09,-172.75"/>
<polygon fill="#63b8ff" stroke="#63b8ff" points="282.98,-176.25 292.98,-172.75 282.98,-169.25 282.98,-176.25"/>
</a>
</g>
</g>
<!-- Node32 -->
<g id="Node000032" class="node">
<title>Node32</title>
<g id="a_Node000032"><a xlink:href="namespacesvg.html#a010fea242a289d173d521b501140cd72" target="_top" xlink:title="Zero degrees is top, going clockwise (cw).">
<polygon fill="white" stroke="#666666" points="404.25,-217.62 278.75,-217.62 278.75,-199.88 404.25,-199.88 404.25,-217.62"/>
<text xml:space="preserve" text-anchor="middle" x="341.5" y="-206.03" font-family="SourceSans" font-size="8.00">svg::zero_angle_north_ccw</text>
</a>
</g>
</g>
<!-- Node19&#45;&gt;Node32 -->
<g id="edge40_Node000019_Node000032" class="edge">
<title>Node19&#45;&gt;Node32</title>
<g id="a_edge40_Node000019_Node000032"><a xlink:title=" ">
<path fill="none" stroke="#63b8ff" d="M231.65,-182.11C249.87,-186.57 271.87,-191.96 291.32,-196.72"/>
<polygon fill="#63b8ff" stroke="#63b8ff" points="290.4,-200.1 300.95,-199.07 292.07,-193.3 290.4,-200.1"/>
</a>
</g>
</g>
<!-- Node33 -->
<g id="Node000033" class="node">
<title>Node33</title>
<g id="a_Node000033"><a xlink:href="namespacesvg.html#a46164d75fd5109e4ed8879abbacd5c11" target="_top" xlink:title="Zero degrees is top, going clockwise (cw).">
<polygon fill="white" stroke="#666666" points="402,-253.62 281,-253.62 281,-235.88 402,-235.88 402,-253.62"/>
<text xml:space="preserve" text-anchor="middle" x="341.5" y="-242.03" font-family="SourceSans" font-size="8.00">svg::zero_angle_north_cw</text>
</a>
</g>
</g>
<!-- Node19&#45;&gt;Node33 -->
<g id="edge41_Node000019_Node000033" class="edge">
<title>Node19&#45;&gt;Node33</title>
<g id="a_edge41_Node000019_Node000033"><a xlink:title=" ">
<path fill="none" stroke="#63b8ff" d="M205.48,-181.96C221.49,-193.76 250.93,-214.2 278.75,-226.75 282.81,-228.58 287.11,-230.28 291.47,-231.84"/>
<polygon fill="#63b8ff" stroke="#63b8ff" points="290.31,-235.15 300.9,-234.97 292.51,-228.5 290.31,-235.15"/>
</a>
</g>
</g>
<!-- Node21 -->
<g id="Node000021" class="node">
<title>Node21</title>
<g id="a_Node000021"><a xlink:href="namespacesvg.html#ad3c5f59f86bb309de4efd1187e5c004b" target="_top" xlink:title="Text at.">
<polygon fill="white" stroke="#666666" points="539.12,-181.62 452.62,-181.62 452.62,-163.88 539.12,-163.88 539.12,-181.62"/>
<text xml:space="preserve" text-anchor="middle" x="495.88" y="-170.03" font-family="SourceSans" font-size="8.00">svg::styled_text_r</text>
</a>
</g>
</g>
<!-- Node20&#45;&gt;Node21 -->
<g id="edge22_Node000020_Node000021" class="edge">
<title>Node20&#45;&gt;Node21</title>
<g id="a_edge22_Node000020_Node000021"><a xlink:title=" ">
<path fill="none" stroke="#63b8ff" d="M382.14,-146.11C401.18,-150.61 424.22,-156.06 444.5,-160.85"/>
<polygon fill="#63b8ff" stroke="#63b8ff" points="443.43,-164.19 453.96,-163.08 445.04,-157.38 443.43,-164.19"/>
</a>
</g>
</g>
<!-- Node21&#45;&gt;Node2 -->
<g id="edge23_Node000021_Node000002" class="edge">
<title>Node21&#45;&gt;Node2</title>
<g id="a_edge23_Node000021_Node000002"><a xlink:title=" ">
<path fill="none" stroke="#63b8ff" d="M515.13,-182.03C536.23,-192.76 571.55,-210.72 598.65,-224.51"/>
<polygon fill="#63b8ff" stroke="#63b8ff" points="596.75,-227.46 607.25,-228.87 599.92,-221.22 596.75,-227.46"/>
</a>
</g>
</g>
<!-- Node22 -->
<g id="Node000022" class="node">
<title>Node22</title>
<g id="a_Node000022"><a xlink:href="namespacesvg.html#a43b88f0c7e911161e757ccc5a5ccd607" target="_top" xlink:title="Text element at.">
<polygon fill="white" stroke="#666666" points="678.12,-181.62 596.88,-181.62 596.88,-163.88 678.12,-163.88 678.12,-181.62"/>
<text xml:space="preserve" text-anchor="middle" x="637.5" y="-170.03" font-family="SourceSans" font-size="8.00">svg::style_text_r</text>
</a>
</g>
</g>
<!-- Node21&#45;&gt;Node22 -->
<g id="edge24_Node000021_Node000022" class="edge">
<title>Node21&#45;&gt;Node22</title>
<g id="a_edge24_Node000021_Node000022"><a xlink:title=" ">
<path fill="none" stroke="#63b8ff" d="M539.53,-172.75C553.97,-172.75 570.25,-172.75 585.29,-172.75"/>
<polygon fill="#63b8ff" stroke="#63b8ff" points="584.98,-176.25 594.98,-172.75 584.98,-169.25 584.98,-176.25"/>
</a>
</g>
</g>
<!-- Node23 -->
<g id="Node000023" class="node">
<title>Node23</title>
<g id="a_Node000023"><a xlink:href="structsvg_1_1transform.html#acf9836f4ba647f0dd2b53963a0f714d0" target="_top" xlink:title=" ">
<polygon fill="white" stroke="#666666" points="831.75,-154.62 725.75,-154.62 725.75,-136.88 831.75,-136.88 831.75,-154.62"/>
<text xml:space="preserve" text-anchor="middle" x="778.75" y="-143.03" font-family="SourceSans" font-size="8.00">svg::transform::rotate</text>
</a>
</g>
</g>
<!-- Node22&#45;&gt;Node23 -->
<g id="edge25_Node000022_Node000023" class="edge">
<title>Node22&#45;&gt;Node23</title>
<g id="a_edge25_Node000022_Node000023"><a xlink:title=" ">
<path fill="none" stroke="#63b8ff" d="M678.4,-165.01C690.84,-162.6 704.82,-159.89 718.29,-157.28"/>
<polygon fill="#63b8ff" stroke="#63b8ff" points="718.8,-160.74 727.95,-155.41 717.47,-153.87 718.8,-160.74"/>
</a>
</g>
</g>
<!-- Node24 -->
<g id="Node000024" class="node">
<title>Node24</title>
<g id="a_Node000024"><a xlink:href="namespacesvg.html#a74ca2344cea417d9107d56f4f53c5b0b" target="_top" xlink:title="Text element at.">
<polygon fill="white" stroke="#666666" points="816,-190.62 741.5,-190.62 741.5,-172.88 816,-172.88 816,-190.62"/>
<text xml:space="preserve" text-anchor="middle" x="778.75" y="-179.03" font-family="SourceSans" font-size="8.00">svg::style_text</text>
</a>
</g>
</g>
<!-- Node22&#45;&gt;Node24 -->
<g id="edge26_Node000022_Node000024" class="edge">
<title>Node22&#45;&gt;Node24</title>
<g id="a_edge26_Node000022_Node000024"><a xlink:title=" ">
<path fill="none" stroke="#63b8ff" d="M678.4,-175.33C694.47,-176.37 713.13,-177.57 729.91,-178.66"/>
<polygon fill="#63b8ff" stroke="#63b8ff" points="729.46,-182.14 739.67,-179.29 729.91,-175.15 729.46,-182.14"/>
</a>
</g>
</g>
<!-- Node25 -->
<g id="Node000025" class="node">
<title>Node25</title>
<g id="a_Node000025"><a xlink:href="group__elements.html#aad29e1daf75bdcd69a39575a6807fa0f" target="_top" xlink:title="Either serialize immediately (as below), or create data structure that adds data to data_vec and then...">
<polygon fill="white" stroke="#666666" points="965.12,-279.5 870.38,-279.5 870.38,-252 965.12,-252 965.12,-279.5"/>
<text xml:space="preserve" text-anchor="start" x="878.38" y="-267.9" font-family="SourceSans" font-size="8.00">svg::text_element::</text>
<text xml:space="preserve" text-anchor="middle" x="917.75" y="-258.15" font-family="SourceSans" font-size="8.00">add_data</text>
</a>
</g>
</g>
<!-- Node24&#45;&gt;Node25 -->
<g id="edge27_Node000024_Node000025" class="edge">
<title>Node24&#45;&gt;Node25</title>
<g id="a_edge27_Node000024_Node000025"><a xlink:title=" ">
<path fill="none" stroke="#63b8ff" d="M794.93,-191.06C816.37,-204.2 856.04,-228.53 884.29,-245.85"/>
<polygon fill="#63b8ff" stroke="#63b8ff" points="882.11,-248.61 892.46,-250.86 885.77,-242.65 882.11,-248.61"/>
</a>
</g>
</g>
<!-- Node29 -->
<g id="Node000029" class="node">
<title>Node29</title>
<g id="a_Node000029"><a xlink:href="group__elements.html#ga13c46848317034d16c62a7d2061ba3d6" target="_top" xlink:title=" ">
<polygon fill="white" stroke="#666666" points="965.12,-195.5 870.38,-195.5 870.38,-168 965.12,-168 965.12,-195.5"/>
<text xml:space="preserve" text-anchor="start" x="878.38" y="-183.9" font-family="SourceSans" font-size="8.00">svg::text_element::</text>
<text xml:space="preserve" text-anchor="middle" x="917.75" y="-174.15" font-family="SourceSans" font-size="8.00">finish_element</text>
</a>
</g>
</g>
<!-- Node24&#45;&gt;Node29 -->
<g id="edge36_Node000024_Node000029" class="edge">
<title>Node24&#45;&gt;Node29</title>
<g id="a_edge36_Node000024_Node000029"><a xlink:title=" ">
<path fill="none" stroke="#63b8ff" d="M816.46,-181.75C829.47,-181.75 844.45,-181.75 858.79,-181.75"/>
<polygon fill="#63b8ff" stroke="#63b8ff" points="858.59,-185.25 868.59,-181.75 858.59,-178.25 858.59,-185.25"/>
</a>
</g>
</g>
<!-- Node30 -->
<g id="Node000030" class="node">
<title>Node30</title>
<g id="a_Node000030"><a xlink:href="group__elements.html#ae45bec611a6ec17ea46aab6d680ae042" target="_top" xlink:title=" ">
<polygon fill="white" stroke="#666666" points="965.12,-149.5 870.38,-149.5 870.38,-122 965.12,-122 965.12,-149.5"/>
<text xml:space="preserve" text-anchor="start" x="878.38" y="-137.9" font-family="SourceSans" font-size="8.00">svg::text_element::</text>
<text xml:space="preserve" text-anchor="middle" x="917.75" y="-128.15" font-family="SourceSans" font-size="8.00">start_element</text>
</a>
</g>
</g>
<!-- Node24&#45;&gt;Node30 -->
<g id="edge37_Node000024_Node000030" class="edge">
<title>Node24&#45;&gt;Node30</title>
<g id="a_edge37_Node000024_Node000030"><a xlink:title=" ">
<path fill="none" stroke="#63b8ff" d="M807.92,-172.44C816.31,-169.65 825.53,-166.59 834,-163.75 843.82,-160.46 854.29,-156.93 864.37,-153.53"/>
<polygon fill="#63b8ff" stroke="#63b8ff" points="865.31,-156.9 873.66,-150.38 863.07,-150.27 865.31,-156.9"/>
</a>
</g>
</g>
<!-- Node25&#45;&gt;Node12 -->
<g id="edge33_Node000025_Node000012" class="edge">
<title>Node25&#45;&gt;Node12</title>
<g id="a_edge33_Node000025_Node000012"><a xlink:title=" ">
<path fill="none" stroke="#63b8ff" d="M952,-279.91C956.73,-282.54 961.38,-285.5 965.5,-288.75 981.29,-301.22 1014.46,-343.48 1034.93,-370.43"/>
<polygon fill="#63b8ff" stroke="#63b8ff" points="1032.11,-372.51 1040.93,-378.38 1037.7,-368.29 1032.11,-372.51"/>
</a>
</g>
</g>
<!-- Node25&#45;&gt;Node14 -->
<g id="edge34_Node000025_Node000014" class="edge">
<title>Node25&#45;&gt;Node14</title>
<g id="a_edge34_Node000025_Node000014"><a xlink:title=" ">
<path fill="none" stroke="#63b8ff" d="M953.24,-279.93C967.89,-285.41 985.29,-291.19 1001.5,-294.75 1048.52,-305.08 1103.02,-309.79 1143.06,-311.94"/>
<polygon fill="#63b8ff" stroke="#63b8ff" points="1142.8,-315.43 1152.96,-312.43 1143.15,-308.44 1142.8,-315.43"/>
</a>
</g>
</g>
<!-- Node25&#45;&gt;Node16 -->
<g id="edge35_Node000025_Node000016" class="edge">
<title>Node25&#45;&gt;Node16</title>
<g id="a_edge35_Node000025_Node000016"><a xlink:title=" ">
<path fill="none" stroke="#63b8ff" d="M944.68,-251.67C951.66,-247.5 959.05,-242.71 965.5,-237.75 983.19,-224.15 981.25,-212.12 1001.5,-202.75 1049.88,-180.37 1111.85,-178.01 1153.65,-179.7"/>
<polygon fill="#63b8ff" stroke="#63b8ff" points="1153.47,-183.2 1163.63,-180.21 1153.83,-176.21 1153.47,-183.2"/>
</a>
</g>
</g>
<!-- Node26 -->
<g id="Node000026" class="node">
<title>Node26</title>
<g id="a_Node000026"><a xlink:href="structsvg_1_1typography.html#adbc62f74f1fed3f7c77567250f084f83" target="_top" xlink:title=" ">
<polygon fill="white" stroke="#666666" points="1105.25,-285.5 1001.5,-285.5 1001.5,-258 1105.25,-258 1105.25,-285.5"/>
<text xml:space="preserve" text-anchor="start" x="1009.5" y="-273.9" font-family="SourceSans" font-size="8.00">svg::typography::add</text>
<text xml:space="preserve" text-anchor="middle" x="1053.38" y="-264.15" font-family="SourceSans" font-size="8.00">_attribute</text>
</a>
</g>
</g>
<!-- Node25&#45;&gt;Node26 -->
<g id="edge28_Node000025_Node000026" class="edge">
<title>Node25&#45;&gt;Node26</title>
<g id="a_edge28_Node000025_Node000026"><a xlink:title=" ">
<path fill="none" stroke="#63b8ff" d="M965.49,-267.85C973.36,-268.2 981.65,-268.57 989.85,-268.94"/>
<polygon fill="#63b8ff" stroke="#63b8ff" points="989.68,-272.44 999.83,-269.39 989.99,-265.45 989.68,-272.44"/>
</a>
</g>
</g>
<!-- Node28 -->
<g id="Node000028" class="node">
<title>Node28</title>
<g id="a_Node000028"><a xlink:href="group__elements.html#acafbdd950c6c2639c9d376c3eab696e5" target="_top" xlink:title=" ">
<polygon fill="white" stroke="#666666" points="1103.38,-239.5 1003.38,-239.5 1003.38,-212 1103.38,-212 1103.38,-239.5"/>
<text xml:space="preserve" text-anchor="start" x="1011.38" y="-227.9" font-family="SourceSans" font-size="8.00">svg::element_base::</text>
<text xml:space="preserve" text-anchor="middle" x="1053.38" y="-218.15" font-family="SourceSans" font-size="8.00">add_raw</text>
</a>
</g>
</g>
<!-- Node25&#45;&gt;Node28 -->
<g id="edge32_Node000025_Node000028" class="edge">
<title>Node25&#45;&gt;Node28</title>
<g id="a_edge32_Node000025_Node000028"><a xlink:title=" ">
<path fill="none" stroke="#63b8ff" d="M965.49,-251.76C974.68,-249.01 984.44,-246.09 993.96,-243.24"/>
<polygon fill="#63b8ff" stroke="#63b8ff" points="994.96,-246.59 1003.54,-240.37 992.95,-239.88 994.96,-246.59"/>
</a>
</g>
</g>
<!-- Node26&#45;&gt;Node14 -->
<g id="edge29_Node000026_Node000014" class="edge">
<title>Node26&#45;&gt;Node14</title>
<g id="a_edge29_Node000026_Node000014"><a xlink:title=" ">
<path fill="none" stroke="#63b8ff" d="M1103.8,-285.97C1121.18,-290.97 1140.54,-296.54 1157.35,-301.37"/>
<polygon fill="#63b8ff" stroke="#63b8ff" points="1155.94,-304.61 1166.52,-304.01 1157.88,-297.88 1155.94,-304.61"/>
</a>
</g>
</g>
<!-- Node26&#45;&gt;Node16 -->
<g id="edge30_Node000026_Node000016" class="edge">
<title>Node26&#45;&gt;Node16</title>
<g id="a_edge30_Node000026_Node000016"><a xlink:title=" ">
<path fill="none" stroke="#63b8ff" d="M1087.9,-257.6C1093.77,-254.84 1099.76,-251.84 1105.25,-248.75 1131.71,-233.88 1160.22,-213.8 1179.06,-199.92"/>
<polygon fill="#63b8ff" stroke="#63b8ff" points="1181.07,-202.78 1186.99,-194 1176.88,-197.17 1181.07,-202.78"/>
</a>
</g>
</g>
<!-- Node27 -->
<g id="Node000027" class="node">
<title>Node27</title>
<g id="a_Node000027"><a xlink:href="structsvg_1_1typography.html#a174c1ffb4e56214d71523ffe7e422561" target="_top" xlink:title=" ">
<polygon fill="white" stroke="#666666" points="1249.5,-285.5 1153.25,-285.5 1153.25,-258 1249.5,-258 1249.5,-285.5"/>
<text xml:space="preserve" text-anchor="start" x="1161.25" y="-273.9" font-family="SourceSans" font-size="8.00">svg::typography::to</text>
<text xml:space="preserve" text-anchor="middle" x="1201.38" y="-264.15" font-family="SourceSans" font-size="8.00">_string</text>
</a>
</g>
</g>
<!-- Node26&#45;&gt;Node27 -->
<g id="edge31_Node000026_Node000027" class="edge">
<title>Node26&#45;&gt;Node27</title>
<g id="a_edge31_Node000026_Node000027"><a xlink:title=" ">
<path fill="none" stroke="#63b8ff" d="M1105.44,-271.75C1117.15,-271.75 1129.7,-271.75 1141.71,-271.75"/>
<polygon fill="#63b8ff" stroke="#63b8ff" points="1141.5,-275.25 1151.5,-271.75 1141.5,-268.25 1141.5,-275.25"/>
</a>
</g>
</g>
<!-- Node31&#45;&gt;Node21 -->
<g id="edge39_Node000031_Node000021" class="edge">
<title>Node31&#45;&gt;Node21</title>
<g id="a_edge39_Node000031_Node000021"><a xlink:title=" ">
<path fill="none" stroke="#63b8ff" d="M388.22,-172.75C404.9,-172.75 423.92,-172.75 441.23,-172.75"/>
<polygon fill="#63b8ff" stroke="#63b8ff" points="440.8,-176.25 450.8,-172.75 440.8,-169.25 440.8,-176.25"/>
</a>
</g>
</g>
</g>
</svg>

<g id="navigator" transform="translate(0 0)" fill="#404254">
  <rect fill="#f2f5e9" fill-opacity="0.5" stroke="#606060" stroke-width=".5" x="0" y="0" width="60" height="60"/>
  <use id="zoomplus" xlink:href="#zoomPlus" x="17" y="9" onmousedown="handleZoom(evt,'in')"/>
  <use id="zoomminus" xlink:href="#zoomMin" x="42" y="9" onmousedown="handleZoom(evt,'out')"/>
  <use id="reset" xlink:href="#resetDef" x="30" y="36" onmousedown="handleReset()"/>
   <use id="arrowup" xlink:href="#arrowUp" x="0" y="0" onmousedown="handlePan(0,-1)"/>
  <use id="arrowright" xlink:href="#arrowRight" x="0" y="0" onmousedown="handlePan(1,0)"/>
  <use id="arrowdown" xlink:href="#arrowDown" x="0" y="0" onmousedown="handlePan(0,1)"/>
  <use id="arrowleft" xlink:href="#arrowLeft" x="0" y="0" onmousedown="handlePan(-1,0)"/>
</g>
<svg viewBox="0 0 15 15" width="100%" height="30px" preserveAspectRatio="xMaxYMin meet">
 <g id="arrow_out" transform="scale(0.3 0.3)">
  <a xlink:href="namespacesvg_a5ae75b065c6ff4ff3bcba9994493e942_cgraph_org.svg" target="_base">
   <rect id="button" ry="5" rx="5" y="6" x="6" height="38" width="38"
        fill="#f2f5e9" fill-opacity="0.5" stroke="#606060" stroke-width="1.0"/>
   <path id="arrow"
     d="M 11.500037,31.436501 C 11.940474,20.09759 22.043105,11.32322 32.158766,21.979434 L 37.068811,17.246167 C 37.068811,17.246167 37.088388,32 37.088388,32 L 22.160133,31.978069 C 22.160133,31.978069 26.997745,27.140456 26.997745,27.140456 C 18.528582,18.264221 13.291696,25.230495 11.500037,31.436501 z"
     style="fill:#404040;"/>
  </a>
 </g>
</svg>

<style type='text/css'>
<![CDATA[
[data-mouse-over-selected='false'] { opacity: 0.7; }
[data-mouse-over-selected='true']  { opacity: 1.0; }
]]>
</style>
<script type="application/ecmascript"><![CDATA[
document.addEventListener('DOMContentLoaded', (event) => {
  highlightEdges();
  highlightAdjacentNodes();
});
]]></script>
</svg>
