<?xml version="1.0" encoding="UTF-8" standalone="no"?>
<!DOCTYPE svg PUBLIC "-//W3C//DTD SVG 1.1//EN"
 "http://www.w3.org/Graphics/SVG/1.1/DTD/svg11.dtd">
<!-- Generated by graphviz version 12.2.1 (20241206.2353)
 -->
<!-- Title: svg::make_line_graph Pages: 1 -->
<svg width="869pt" height="980pt"
 viewBox="0.00 0.00 869.00 979.50" xmlns="http://www.w3.org/2000/svg" xmlns:xlink="http://www.w3.org/1999/xlink">
<g id="graph0" class="graph" transform="scale(1 1) rotate(0) translate(4 975.5)">
<title>svg::make_line_graph</title>
<!-- Node1 -->
<g id="Node000001" class="node">
<title>Node1</title>
<g id="a_Node000001"><a xlink:title="Returns a svg_element with the rendered line graph (char). Assumptions: vgrange x axis is monotonical...">
<polygon fill="#999999" stroke="#666666" points="104.5,-171.62 0,-171.62 0,-153.88 104.5,-153.88 104.5,-171.62"/>
<text text-anchor="middle" x="52.25" y="-160.03" font-family="SourceSans" font-size="8.00">svg::make_line_graph</text>
</a>
</g>
</g>
<!-- Node2 -->
<g id="Node000002" class="node">
<title>Node2</title>
<g id="a_Node000002"><a xlink:href="group__elements.html#ada0333b46b2547c6152f3f5811016a12" target="_top" xlink:title=" ">
<polygon fill="white" stroke="#666666" points="565,-321.5 465,-321.5 465,-294 565,-294 565,-321.5"/>
<text text-anchor="start" x="473" y="-309.9" font-family="SourceSans" font-size="8.00">svg::element_base::</text>
<text text-anchor="middle" x="515" y="-300.15" font-family="SourceSans" font-size="8.00">add_element</text>
</a>
</g>
</g>
<!-- Node1&#45;&gt;Node2 -->
<g id="edge1_Node000001_Node000002" class="edge">
<title>Node1&#45;&gt;Node2</title>
<g id="a_edge1_Node000001_Node000002"><a xlink:title=" ">
<path fill="none" stroke="#63b8ff" d="M104.86,-163.94C192.21,-166.68 364.92,-175.47 418.5,-202.75 454.59,-221.12 483.7,-259.18 499.92,-284.08"/>
<polygon fill="#63b8ff" stroke="#63b8ff" points="496.78,-285.66 505.07,-292.25 502.7,-281.93 496.78,-285.66"/>
</a>
</g>
</g>
<!-- Node4 -->
<g id="Node000004" class="node">
<title>Node4</title>
<g id="a_Node000004"><a xlink:href="group__elements.html#acafbdd950c6c2639c9d376c3eab696e5" target="_top" xlink:title=" ">
<polygon fill="white" stroke="#666666" points="721.62,-796.5 621.62,-796.5 621.62,-769 721.62,-769 721.62,-796.5"/>
<text text-anchor="start" x="629.62" y="-784.9" font-family="SourceSans" font-size="8.00">svg::element_base::</text>
<text text-anchor="middle" x="671.62" y="-775.15" font-family="SourceSans" font-size="8.00">add_raw</text>
</a>
</g>
</g>
<!-- Node1&#45;&gt;Node4 -->
<g id="edge3_Node000001_Node000004" class="edge">
<title>Node1&#45;&gt;Node4</title>
<g id="a_edge3_Node000001_Node000004"><a xlink:title=" ">
<path fill="none" stroke="#63b8ff" d="M54.12,-171.9C58.31,-212.65 78.73,-380.78 140.5,-501.75 188.55,-595.85 206.69,-622.75 292.25,-684.75 388.48,-754.49 530.14,-774.67 610.02,-780.47"/>
<polygon fill="#63b8ff" stroke="#63b8ff" points="609.63,-783.95 619.84,-781.12 610.09,-776.96 609.63,-783.95"/>
</a>
</g>
</g>
<!-- Node5 -->
<g id="Node000005" class="node">
<title>Node5</title>
<g id="a_Node000005"><a xlink:href="group__elements.html#a71cf2eb89a562527f14c4ca4c027c2b9" target="_top" xlink:title=" ">
<polygon fill="white" stroke="#666666" points="246.88,-155.5 149.88,-155.5 149.88,-128 246.88,-128 246.88,-155.5"/>
<text text-anchor="start" x="157.88" y="-143.9" font-family="SourceSans" font-size="8.00">svg::group_element</text>
<text text-anchor="middle" x="198.38" y="-134.15" font-family="SourceSans" font-size="8.00">::finish_group</text>
</a>
</g>
</g>
<!-- Node1&#45;&gt;Node5 -->
<g id="edge4_Node000001_Node000005" class="edge">
<title>Node1&#45;&gt;Node5</title>
<g id="a_edge4_Node000001_Node000005"><a xlink:title=" ">
<path fill="none" stroke="#63b8ff" d="M104.88,-155.23C115.67,-153.66 127.12,-151.99 138.16,-150.38"/>
<polygon fill="#63b8ff" stroke="#63b8ff" points="138.59,-153.85 147.98,-148.95 137.58,-146.93 138.59,-153.85"/>
</a>
</g>
</g>
<!-- Node6 -->
<g id="Node000006" class="node">
<title>Node6</title>
<g id="a_Node000006"><a xlink:href="structsvg_1_1render__state__base.html#aa16790fbf40ef61f416151c89c267ef3" target="_top" xlink:title=" ">
<polygon fill="white" stroke="#666666" points="411,-239.5 299.75,-239.5 299.75,-212 411,-212 411,-239.5"/>
<text text-anchor="start" x="307.75" y="-227.9" font-family="SourceSans" font-size="8.00">svg::render_state_base</text>
<text text-anchor="middle" x="355.38" y="-218.15" font-family="SourceSans" font-size="8.00">::is_visible</text>
</a>
</g>
</g>
<!-- Node1&#45;&gt;Node6 -->
<g id="edge5_Node000001_Node000006" class="edge">
<title>Node1&#45;&gt;Node6</title>
<g id="a_edge5_Node000001_Node000006"><a xlink:title=" ">
<path fill="none" stroke="#63b8ff" d="M72.52,-172.12C89.9,-180.16 116.34,-191.43 140.5,-197.75 189.12,-210.47 245.54,-217.55 288.22,-221.4"/>
<polygon fill="#63b8ff" stroke="#63b8ff" points="287.82,-224.88 298.08,-222.25 288.42,-217.91 287.82,-224.88"/>
</a>
</g>
</g>
<!-- Node7 -->
<g id="Node000007" class="node">
<title>Node7</title>
<g id="a_Node000007"><a xlink:href="namespacesvg.html#ab025866e7ce3764e91258efffa44be2c" target="_top" xlink:title="Return set of paths of marker shapes with text tooltips. NB: For graph_mode &gt;= chart_line_style_2.">
<polygon fill="white" stroke="#666666" points="250.62,-492.5 146.12,-492.5 146.12,-465 250.62,-465 250.62,-492.5"/>
<text text-anchor="start" x="154.12" y="-480.9" font-family="SourceSans" font-size="8.00">svg::make_line_graph</text>
<text text-anchor="middle" x="198.38" y="-471.15" font-family="SourceSans" font-size="8.00">_markers</text>
</a>
</g>
</g>
<!-- Node1&#45;&gt;Node7 -->
<g id="edge6_Node000001_Node000007" class="edge">
<title>Node1&#45;&gt;Node7</title>
<g id="a_edge6_Node000001_Node000007"><a xlink:title=" ">
<path fill="none" stroke="#63b8ff" d="M57.41,-171.87C76.56,-213.86 156.62,-389.39 186.27,-454.4"/>
<polygon fill="#63b8ff" stroke="#63b8ff" points="182.92,-455.5 190.26,-463.15 189.29,-452.59 182.92,-455.5"/>
</a>
</g>
</g>
<!-- Node38 -->
<g id="Node000038" class="node">
<title>Node38</title>
<g id="a_Node000038"><a xlink:href="namespacesvg.html#ae3cd801991d2b329b8c49d8e9393ea6d" target="_top" xlink:title="Polyline primitive.">
<polygon fill="white" stroke="#666666" points="245.38,-109.62 151.38,-109.62 151.38,-91.88 245.38,-91.88 245.38,-109.62"/>
<text text-anchor="middle" x="198.38" y="-98.03" font-family="SourceSans" font-size="8.00">svg::make_polyline</text>
</a>
</g>
</g>
<!-- Node1&#45;&gt;Node38 -->
<g id="edge55_Node000001_Node000038" class="edge">
<title>Node1&#45;&gt;Node38</title>
<g id="a_edge55_Node000001_Node000038"><a xlink:title=" ">
<path fill="none" stroke="#63b8ff" d="M69.61,-153.5C86.87,-143.98 115.05,-129.12 140.5,-118.75 144.87,-116.97 149.49,-115.25 154.12,-113.63"/>
<polygon fill="#63b8ff" stroke="#63b8ff" points="155.06,-117.01 163.43,-110.53 152.84,-110.37 155.06,-117.01"/>
</a>
</g>
</g>
<!-- Node39 -->
<g id="Node000039" class="node">
<title>Node39</title>
<g id="a_Node000039"><a xlink:href="group__elements.html#ab84e1bc08d2d2a71ab05521af65d7585" target="_top" xlink:title=" ">
<polygon fill="white" stroke="#666666" points="246.88,-73.5 149.88,-73.5 149.88,-46 246.88,-46 246.88,-73.5"/>
<text text-anchor="start" x="157.88" y="-61.9" font-family="SourceSans" font-size="8.00">svg::group_element</text>
<text text-anchor="middle" x="198.38" y="-52.15" font-family="SourceSans" font-size="8.00">::start_group</text>
</a>
</g>
</g>
<!-- Node1&#45;&gt;Node39 -->
<g id="edge56_Node000001_Node000039" class="edge">
<title>Node1&#45;&gt;Node39</title>
<g id="a_edge56_Node000001_Node000039"><a xlink:title=" ">
<path fill="none" stroke="#63b8ff" d="M61.3,-153.44C75.75,-137.21 107.66,-103.49 140.5,-82.75 142.51,-81.48 144.59,-80.26 146.73,-79.09"/>
<polygon fill="#63b8ff" stroke="#63b8ff" points="148.27,-82.24 155.65,-74.64 145.14,-75.97 148.27,-82.24"/>
</a>
</g>
</g>
<!-- Node40 -->
<g id="Node000040" class="node">
<title>Node40</title>
<g id="a_Node000040"><a xlink:href="namespacesvg.html#aa8461e0fe8b216d7ec30aef1131cb4b4" target="_top" xlink:title="Map data points to cartestian points on graph area.">
<polygon fill="white" stroke="#666666" points="256.25,-27.5 140.5,-27.5 140.5,0 256.25,0 256.25,-27.5"/>
<text text-anchor="start" x="148.5" y="-15.9" font-family="SourceSans" font-size="8.00">svg::transform_to_graph</text>
<text text-anchor="middle" x="198.38" y="-6.15" font-family="SourceSans" font-size="8.00">_points</text>
</a>
</g>
</g>
<!-- Node1&#45;&gt;Node40 -->
<g id="edge57_Node000001_Node000040" class="edge">
<title>Node1&#45;&gt;Node40</title>
<g id="a_edge57_Node000001_Node000040"><a xlink:title=" ">
<path fill="none" stroke="#63b8ff" d="M57.34,-153.46C67.88,-130.54 98.11,-70.66 140.5,-36.75 141.8,-35.71 143.15,-34.71 144.55,-33.75"/>
<polygon fill="#63b8ff" stroke="#63b8ff" points="146.13,-36.89 152.94,-28.77 142.55,-30.87 146.13,-36.89"/>
</a>
</g>
</g>
<!-- Node3 -->
<g id="Node000003" class="node">
<title>Node3</title>
<g id="a_Node000003"><a xlink:href="group__elements.html#ad893ef9c13a15464c96d8a85c08af30f" target="_top" xlink:title=" ">
<polygon fill="white" stroke="#666666" points="726.88,-308.62 616.38,-308.62 616.38,-290.88 726.88,-290.88 726.88,-308.62"/>
<text text-anchor="middle" x="671.62" y="-297.02" font-family="SourceSans" font-size="8.00">svg::element_base::str</text>
</a>
</g>
</g>
<!-- Node2&#45;&gt;Node3 -->
<g id="edge2_Node000002_Node000003" class="edge">
<title>Node2&#45;&gt;Node3</title>
<g id="a_edge2_Node000002_Node000003"><a xlink:title=" ">
<path fill="none" stroke="#63b8ff" d="M565.35,-305.2C577.86,-304.55 591.5,-303.84 604.68,-303.16"/>
<polygon fill="#63b8ff" stroke="#63b8ff" points="604.8,-306.66 614.61,-302.65 604.44,-299.67 604.8,-306.66"/>
</a>
</g>
</g>
<!-- Node7&#45;&gt;Node3 -->
<g id="edge52_Node000007_Node000003" class="edge">
<title>Node7&#45;&gt;Node3</title>
<g id="a_edge52_Node000007_Node000003"><a xlink:title=" ">
<path fill="none" stroke="#63b8ff" d="M201.21,-464.59C206.87,-427.54 227.72,-327.77 292.25,-286.75 401.24,-217.46 565.83,-262.19 636.46,-286.74"/>
<polygon fill="#63b8ff" stroke="#63b8ff" points="634.94,-289.91 645.54,-289.97 637.29,-283.32 634.94,-289.91"/>
</a>
</g>
</g>
<!-- Node7&#45;&gt;Node4 -->
<g id="edge13_Node000007_Node000004" class="edge">
<title>Node7&#45;&gt;Node4</title>
<g id="a_edge13_Node000007_Node000004"><a xlink:title=" ">
<path fill="none" stroke="#63b8ff" d="M203.86,-492.96C214.34,-523.94 243.32,-598.16 292.25,-639.75 341.61,-681.7 516.36,-737.46 610.12,-765.33"/>
<polygon fill="#63b8ff" stroke="#63b8ff" points="609.1,-768.68 619.68,-768.16 611.09,-761.97 609.1,-768.68"/>
</a>
</g>
</g>
<!-- Node7&#45;&gt;Node6 -->
<g id="edge20_Node000007_Node000006" class="edge">
<title>Node7&#45;&gt;Node6</title>
<g id="a_edge20_Node000007_Node000006"><a xlink:title=" ">
<path fill="none" stroke="#63b8ff" d="M201.5,-464.65C208.01,-425.96 231.1,-316.89 292.25,-253.75 295.14,-250.77 298.4,-248.08 301.88,-245.66"/>
<polygon fill="#63b8ff" stroke="#63b8ff" points="303.44,-248.81 310.19,-240.64 299.82,-242.81 303.44,-248.81"/>
</a>
</g>
</g>
<!-- Node8 -->
<g id="Node000008" class="node">
<title>Node8</title>
<g id="a_Node000008"><a xlink:href="group__elements.html#a519382631540ecedee961bfb53e9ae87" target="_top" xlink:title=" ">
<polygon fill="white" stroke="#666666" points="403.12,-837.5 307.62,-837.5 307.62,-810 403.12,-810 403.12,-837.5"/>
<text text-anchor="start" x="315.62" y="-825.9" font-family="SourceSans" font-size="8.00">svg::circle_element</text>
<text text-anchor="middle" x="355.38" y="-816.15" font-family="SourceSans" font-size="8.00">::add_data</text>
</a>
</g>
</g>
<!-- Node7&#45;&gt;Node8 -->
<g id="edge7_Node000007_Node000008" class="edge">
<title>Node7&#45;&gt;Node8</title>
<g id="a_edge7_Node000007_Node000008"><a xlink:title=" ">
<path fill="none" stroke="#63b8ff" d="M202.58,-492.99C212.16,-533.96 243.02,-654.88 292.25,-744.75 303.6,-765.47 320.33,-786.38 333.57,-801.47"/>
<polygon fill="#63b8ff" stroke="#63b8ff" points="330.6,-803.41 339.88,-808.52 335.81,-798.74 330.6,-803.41"/>
</a>
</g>
</g>
<!-- Node12 -->
<g id="Node000012" class="node">
<title>Node12</title>
<g id="a_Node000012"><a xlink:href="group__elements.html#a1dd6663d882fb5dd14a47462a77f351b" target="_top" xlink:title="Either serialize immediately (as below), or create data structure that adds data to data_vec and then...">
<polygon fill="white" stroke="#666666" points="562.38,-971.5 467.62,-971.5 467.62,-944 562.38,-944 562.38,-971.5"/>
<text text-anchor="start" x="475.62" y="-959.9" font-family="SourceSans" font-size="8.00">svg::rect_element::</text>
<text text-anchor="middle" x="515" y="-950.15" font-family="SourceSans" font-size="8.00">add_data</text>
</a>
</g>
</g>
<!-- Node7&#45;&gt;Node12 -->
<g id="edge11_Node000007_Node000012" class="edge">
<title>Node7&#45;&gt;Node12</title>
<g id="a_edge11_Node000007_Node000012"><a xlink:title=" ">
<path fill="none" stroke="#63b8ff" d="M200.67,-492.72C206.95,-557.65 236.29,-829.41 292.25,-889.75 334.29,-935.08 405.67,-950.5 456.07,-955.58"/>
<polygon fill="#63b8ff" stroke="#63b8ff" points="455.67,-959.05 465.94,-956.45 456.29,-952.08 455.67,-959.05"/>
</a>
</g>
</g>
<!-- Node13 -->
<g id="Node000013" class="node">
<title>Node13</title>
<g id="a_Node000013"><a xlink:href="group__elements.html#a238b38ca99a1cf6c2baf80c8e4338d99" target="_top" xlink:title=" ">
<polygon fill="white" stroke="#666666" points="721.62,-492.5 621.62,-492.5 621.62,-465 721.62,-465 721.62,-492.5"/>
<text text-anchor="start" x="629.62" y="-480.9" font-family="SourceSans" font-size="8.00">svg::element_base::</text>
<text text-anchor="middle" x="671.62" y="-471.15" font-family="SourceSans" font-size="8.00">add_style</text>
</a>
</g>
</g>
<!-- Node7&#45;&gt;Node13 -->
<g id="edge14_Node000007_Node000013" class="edge">
<title>Node7&#45;&gt;Node13</title>
<g id="a_edge14_Node000007_Node000013"><a xlink:title=" ">
<path fill="none" stroke="#63b8ff" d="M250.7,-490.52C264.15,-493.1 278.68,-495.45 292.25,-496.75 417.56,-508.78 450.16,-508.5 575.5,-496.75 586.8,-495.69 598.75,-493.94 610.23,-491.93"/>
<polygon fill="#63b8ff" stroke="#63b8ff" points="610.81,-495.38 620.01,-490.13 609.55,-488.5 610.81,-495.38"/>
</a>
</g>
</g>
<!-- Node15 -->
<g id="Node000015" class="node">
<title>Node15</title>
<g id="a_Node000015"><a xlink:href="group__elements.html#a7995b78d94e1c299065c9dd3569fef7c" target="_top" xlink:title=" ">
<polygon fill="white" stroke="#666666" points="405.38,-369.5 305.38,-369.5 305.38,-342 405.38,-342 405.38,-369.5"/>
<text text-anchor="start" x="313.38" y="-357.9" font-family="SourceSans" font-size="8.00">svg::element_base::</text>
<text text-anchor="middle" x="355.38" y="-348.15" font-family="SourceSans" font-size="8.00">add_title</text>
</a>
</g>
</g>
<!-- Node7&#45;&gt;Node15 -->
<g id="edge16_Node000007_Node000015" class="edge">
<title>Node7&#45;&gt;Node15</title>
<g id="a_edge16_Node000007_Node000015"><a xlink:title=" ">
<path fill="none" stroke="#63b8ff" d="M209.18,-464.51C224.57,-443.13 256.38,-402.69 292.25,-378.75 294.19,-377.45 296.22,-376.22 298.3,-375.04"/>
<polygon fill="#63b8ff" stroke="#63b8ff" points="299.67,-378.27 307.02,-370.65 296.52,-372.02 299.67,-378.27"/>
</a>
</g>
</g>
<!-- Node18 -->
<g id="Node000018" class="node">
<title>Node18</title>
<g id="a_Node000018"><a xlink:href="namespacesvg.html#a921dcf12976f6e62a7ce2a7f4a0cf1c7" target="_top" xlink:title="Make icosahedron shape (20) in 2D simulated 3D.">
<polygon fill="white" stroke="#666666" points="418.5,-487.62 292.25,-487.62 292.25,-469.88 418.5,-469.88 418.5,-487.62"/>
<text text-anchor="middle" x="355.38" y="-476.02" font-family="SourceSans" font-size="8.00">svg::make_icosahedron_3d</text>
</a>
</g>
</g>
<!-- Node7&#45;&gt;Node18 -->
<g id="edge21_Node000007_Node000018" class="edge">
<title>Node7&#45;&gt;Node18</title>
<g id="a_edge21_Node000007_Node000018"><a xlink:title=" ">
<path fill="none" stroke="#63b8ff" d="M250.99,-478.75C260.52,-478.75 270.65,-478.75 280.68,-478.75"/>
<polygon fill="#63b8ff" stroke="#63b8ff" points="280.43,-482.25 290.43,-478.75 280.43,-475.25 280.43,-482.25"/>
</a>
</g>
</g>
<!-- Node23 -->
<g id="Node000023" class="node">
<title>Node23</title>
<g id="a_Node000023"><a xlink:href="namespacesvg.html#aaf3635710070dc9a47ef0abb8a816164" target="_top" xlink:title="Make octahedron shape (8) in 2D simulated 3D.">
<polygon fill="white" stroke="#666666" points="416.62,-451.62 294.12,-451.62 294.12,-433.88 416.62,-433.88 416.62,-451.62"/>
<text text-anchor="middle" x="355.38" y="-440.02" font-family="SourceSans" font-size="8.00">svg::make_octahedron_3d</text>
</a>
</g>
</g>
<!-- Node7&#45;&gt;Node23 -->
<g id="edge28_Node000007_Node000023" class="edge">
<title>Node7&#45;&gt;Node23</title>
<g id="a_edge28_Node000007_Node000023"><a xlink:title=" ">
<path fill="none" stroke="#63b8ff" d="M250.99,-466.76C267.89,-462.84 286.65,-458.48 303.5,-454.57"/>
<polygon fill="#63b8ff" stroke="#63b8ff" points="303.84,-458.08 312.79,-452.41 302.25,-451.26 303.84,-458.08"/>
</a>
</g>
</g>
<!-- Node24 -->
<g id="Node000024" class="node">
<title>Node24</title>
<g id="a_Node000024"><a xlink:href="namespacesvg.html#a2dba646eaff00bba42d6cc80161a9a38" target="_top" xlink:title="Center an octogon at this point. radius 4 is pixels to draw out from center point....">
<polygon fill="white" stroke="#666666" points="414,-594.62 296.75,-594.62 296.75,-576.88 414,-576.88 414,-594.62"/>
<text text-anchor="middle" x="355.38" y="-583.02" font-family="SourceSans" font-size="8.00">svg::make_path_polygon</text>
</a>
</g>
</g>
<!-- Node7&#45;&gt;Node24 -->
<g id="edge31_Node000007_Node000024" class="edge">
<title>Node7&#45;&gt;Node24</title>
<g id="a_edge31_Node000007_Node000024"><a xlink:title=" ">
<path fill="none" stroke="#63b8ff" d="M219.96,-492.96C248.96,-512.98 301.66,-549.36 331.74,-570.12"/>
<polygon fill="#63b8ff" stroke="#63b8ff" points="329.54,-572.86 339.76,-575.66 333.52,-567.1 329.54,-572.86"/>
</a>
</g>
</g>
<!-- Node34 -->
<g id="Node000034" class="node">
<title>Node34</title>
<g id="a_Node000034"><a xlink:href="namespacesvg.html#a6745faec7f5b60dcb4fc12cbdbf56bd7" target="_top" xlink:title="Center a triangle at this point.">
<polygon fill="white" stroke="#666666" points="413.25,-630.62 297.5,-630.62 297.5,-612.88 413.25,-612.88 413.25,-630.62"/>
<text text-anchor="middle" x="355.38" y="-619.02" font-family="SourceSans" font-size="8.00">svg::make_path_triangle</text>
</a>
</g>
</g>
<!-- Node7&#45;&gt;Node34 -->
<g id="edge45_Node000007_Node000034" class="edge">
<title>Node7&#45;&gt;Node34</title>
<g id="a_edge45_Node000007_Node000034"><a xlink:title=" ">
<path fill="none" stroke="#63b8ff" d="M205.89,-492.73C218.69,-518.64 249.61,-574.15 292.25,-603.75 294.31,-605.18 296.49,-606.5 298.74,-607.71"/>
<polygon fill="#63b8ff" stroke="#63b8ff" points="297.08,-610.8 307.63,-611.77 299.98,-604.43 297.08,-610.8"/>
</a>
</g>
</g>
<!-- Node35 -->
<g id="Node000035" class="node">
<title>Node35</title>
<g id="a_Node000035"><a xlink:href="group__elements.html#a793cb6b40b2aea335b11f14fd327cde8" target="_top" xlink:title=" ">
<polygon fill="white" stroke="#666666" points="403.12,-415.5 307.62,-415.5 307.62,-388 403.12,-388 403.12,-415.5"/>
<text text-anchor="start" x="315.62" y="-403.9" font-family="SourceSans" font-size="8.00">svg::circle_element</text>
<text text-anchor="middle" x="355.38" y="-394.15" font-family="SourceSans" font-size="8.00">::start_element</text>
</a>
</g>
</g>
<!-- Node7&#45;&gt;Node35 -->
<g id="edge50_Node000007_Node000035" class="edge">
<title>Node7&#45;&gt;Node35</title>
<g id="a_edge50_Node000007_Node000035"><a xlink:title=" ">
<path fill="none" stroke="#63b8ff" d="M221.31,-464.55C239.78,-452.95 267.11,-436.6 292.25,-424.75 295.53,-423.2 298.94,-421.69 302.4,-420.23"/>
<polygon fill="#63b8ff" stroke="#63b8ff" points="303.5,-423.56 311.46,-416.56 300.87,-417.07 303.5,-423.56"/>
</a>
</g>
</g>
<!-- Node36 -->
<g id="Node000036" class="node">
<title>Node36</title>
<g id="a_Node000036"><a xlink:href="group__elements.html#a1e0ed5e9dfe1244317a87d7e6774348b" target="_top" xlink:title=" ">
<polygon fill="white" stroke="#666666" points="402.75,-323.5 308,-323.5 308,-296 402.75,-296 402.75,-323.5"/>
<text text-anchor="start" x="316" y="-311.9" font-family="SourceSans" font-size="8.00">svg::rect_element::</text>
<text text-anchor="middle" x="355.38" y="-302.15" font-family="SourceSans" font-size="8.00">start_element</text>
</a>
</g>
</g>
<!-- Node7&#45;&gt;Node36 -->
<g id="edge51_Node000007_Node000036" class="edge">
<title>Node7&#45;&gt;Node36</title>
<g id="a_edge51_Node000007_Node000036"><a xlink:title=" ">
<path fill="none" stroke="#63b8ff" d="M204.74,-464.55C216.34,-435.67 246.44,-369.75 292.25,-332.75 293.99,-331.34 295.83,-330.01 297.74,-328.76"/>
<polygon fill="#63b8ff" stroke="#63b8ff" points="299.44,-331.82 306.44,-323.87 296.01,-325.72 299.44,-331.82"/>
</a>
</g>
</g>
<!-- Node37 -->
<g id="Node000037" class="node">
<title>Node37</title>
<g id="a_Node000037"><a xlink:href="group__elements.html#a92c95d94938e6df247213ead1f06ec10" target="_top" xlink:title=" ">
<polygon fill="white" stroke="#666666" points="563.12,-925.5 466.88,-925.5 466.88,-898 563.12,-898 563.12,-925.5"/>
<text text-anchor="start" x="474.88" y="-913.9" font-family="SourceSans" font-size="8.00">svg::script_element</text>
<text text-anchor="middle" x="515" y="-904.15" font-family="SourceSans" font-size="8.00">::tooltip_attribute</text>
</a>
</g>
</g>
<!-- Node7&#45;&gt;Node37 -->
<g id="edge53_Node000007_Node000037" class="edge">
<title>Node7&#45;&gt;Node37</title>
<g id="a_edge53_Node000007_Node000037"><a xlink:title=" ">
<path fill="none" stroke="#63b8ff" d="M201.07,-492.88C208.64,-553.86 241.29,-793.82 292.25,-846.75 334.71,-890.86 405.36,-905.47 455.49,-910.09"/>
<polygon fill="#63b8ff" stroke="#63b8ff" points="455.05,-913.57 465.3,-910.87 455.61,-906.59 455.05,-913.57"/>
</a>
</g>
</g>
<!-- Node9 -->
<g id="Node000009" class="node">
<title>Node9</title>
<g id="a_Node000009"><a xlink:href="group__elements.html#a53d72a7ff728ad1d4d027254530bcf3d" target="_top" xlink:title=" ">
<polygon fill="white" stroke="#666666" points="565,-879.5 465,-879.5 465,-852 565,-852 565,-879.5"/>
<text text-anchor="start" x="473" y="-867.9" font-family="SourceSans" font-size="8.00">svg::element_base::</text>
<text text-anchor="middle" x="515" y="-858.15" font-family="SourceSans" font-size="8.00">add_transform</text>
</a>
</g>
</g>
<!-- Node8&#45;&gt;Node9 -->
<g id="edge8_Node000008_Node000009" class="edge">
<title>Node8&#45;&gt;Node9</title>
<g id="a_edge8_Node000008_Node000009"><a xlink:title=" ">
<path fill="none" stroke="#63b8ff" d="M403.24,-836.24C419.1,-840.46 437.03,-845.24 453.78,-849.7"/>
<polygon fill="#63b8ff" stroke="#63b8ff" points="452.55,-853 463.11,-852.19 454.35,-846.23 452.55,-853"/>
</a>
</g>
</g>
<!-- Node11 -->
<g id="Node000011" class="node">
<title>Node11</title>
<g id="a_Node000011"><a xlink:href="namespacesvg.html#a48ac748e89e22789d1772326a98dd7b6" target="_top" xlink:title=" ">
<polygon fill="white" stroke="#666666" points="861,-833.62 767.75,-833.62 767.75,-815.88 861,-815.88 861,-833.62"/>
<text text-anchor="middle" x="814.38" y="-822.02" font-family="SourceSans" font-size="8.00">svg::string_replace</text>
</a>
</g>
</g>
<!-- Node8&#45;&gt;Node11 -->
<g id="edge10_Node000008_Node000011" class="edge">
<title>Node8&#45;&gt;Node11</title>
<g id="a_edge10_Node000008_Node000011"><a xlink:title=" ">
<path fill="none" stroke="#63b8ff" d="M403.56,-823.85C488,-824.04 664.64,-824.42 755.96,-824.62"/>
<polygon fill="#63b8ff" stroke="#63b8ff" points="755.94,-828.12 765.95,-824.65 755.96,-821.12 755.94,-828.12"/>
</a>
</g>
</g>
<!-- Node10 -->
<g id="Node000010" class="node">
<title>Node10</title>
<g id="a_Node000010"><a xlink:href="group__elements.html#ae50258851ebbaf08c7eebc3fbdbf1ac8" target="_top" xlink:title="Common transforms include rotate(180)">
<polygon fill="white" stroke="#666666" points="731.75,-880.5 611.5,-880.5 611.5,-853 731.75,-853 731.75,-880.5"/>
<text text-anchor="start" x="619.5" y="-868.9" font-family="SourceSans" font-size="8.00">svg::element_base::</text>
<text text-anchor="middle" x="671.62" y="-859.15" font-family="SourceSans" font-size="8.00">make_transform_attribute</text>
</a>
</g>
</g>
<!-- Node9&#45;&gt;Node10 -->
<g id="edge9_Node000009_Node000010" class="edge">
<title>Node9&#45;&gt;Node10</title>
<g id="a_edge9_Node000009_Node000010"><a xlink:title=" ">
<path fill="none" stroke="#63b8ff" d="M565.35,-866.07C576.29,-866.14 588.09,-866.22 599.69,-866.29"/>
<polygon fill="#63b8ff" stroke="#63b8ff" points="599.66,-869.79 609.68,-866.36 599.71,-862.79 599.66,-869.79"/>
</a>
</g>
</g>
<!-- Node12&#45;&gt;Node11 -->
<g id="edge12_Node000012_Node000011" class="edge">
<title>Node12&#45;&gt;Node11</title>
<g id="a_edge12_Node000012_Node000011"><a xlink:title=" ">
<path fill="none" stroke="#63b8ff" d="M562.72,-957.12C608.53,-954.64 678.97,-945.68 731.75,-915.75 762.7,-898.19 788.12,-864.6 801.98,-843.5"/>
<polygon fill="#63b8ff" stroke="#63b8ff" points="804.79,-845.62 807.18,-835.3 798.87,-841.88 804.79,-845.62"/>
</a>
</g>
</g>
<!-- Node14 -->
<g id="Node000014" class="node">
<title>Node14</title>
<g id="a_Node000014"><a xlink:href="namespacesvg.html#a36b1c48ad4601b205790e3772ad0a7b6" target="_top" xlink:title=" ">
<polygon fill="white" stroke="#666666" points="850.12,-549.62 778.62,-549.62 778.62,-531.88 850.12,-531.88 850.12,-549.62"/>
<text text-anchor="middle" x="814.38" y="-538.02" font-family="SourceSans" font-size="8.00">svg::to_string</text>
</a>
</g>
</g>
<!-- Node13&#45;&gt;Node14 -->
<g id="edge15_Node000013_Node000014" class="edge">
<title>Node13&#45;&gt;Node14</title>
<g id="a_edge15_Node000013_Node000014"><a xlink:title=" ">
<path fill="none" stroke="#63b8ff" d="M710.33,-492.93C717.48,-495.76 724.88,-498.78 731.75,-501.75 749.67,-509.5 769.43,-518.92 785.02,-526.56"/>
<polygon fill="#63b8ff" stroke="#63b8ff" points="783.2,-529.57 793.72,-530.85 786.3,-523.29 783.2,-529.57"/>
</a>
</g>
</g>
<!-- Node15&#45;&gt;Node2 -->
<g id="edge17_Node000015_Node000002" class="edge">
<title>Node15&#45;&gt;Node2</title>
<g id="a_edge17_Node000015_Node000002"><a xlink:title=" ">
<path fill="none" stroke="#63b8ff" d="M402.82,-341.61C419.66,-336.48 438.89,-330.62 456.57,-325.24"/>
<polygon fill="#63b8ff" stroke="#63b8ff" points="457.35,-328.66 465.9,-322.4 455.31,-321.96 457.35,-328.66"/>
</a>
</g>
</g>
<!-- Node16 -->
<g id="Node000016" class="node">
<title>Node16</title>
<g id="a_Node000016"><a xlink:href="group__elements.html#ga3d62381f8edcccd3d91f82af55f11274" target="_top" xlink:title=" ">
<polygon fill="white" stroke="#666666" points="559.75,-413.5 470.25,-413.5 470.25,-386 559.75,-386 559.75,-413.5"/>
<text text-anchor="start" x="478.25" y="-401.9" font-family="SourceSans" font-size="8.00">svg::title_element</text>
<text text-anchor="middle" x="515" y="-392.15" font-family="SourceSans" font-size="8.00">::finish_element</text>
</a>
</g>
</g>
<!-- Node15&#45;&gt;Node16 -->
<g id="edge18_Node000015_Node000016" class="edge">
<title>Node15&#45;&gt;Node16</title>
<g id="a_edge18_Node000015_Node000016"><a xlink:title=" ">
<path fill="none" stroke="#63b8ff" d="M405.82,-369.55C422.63,-374.24 441.52,-379.52 458.76,-384.33"/>
<polygon fill="#63b8ff" stroke="#63b8ff" points="457.78,-387.69 468.35,-387.01 459.66,-380.95 457.78,-387.69"/>
</a>
</g>
</g>
<!-- Node17 -->
<g id="Node000017" class="node">
<title>Node17</title>
<g id="a_Node000017"><a xlink:href="group__elements.html#a41dcaa1132c502cb86c01aae1e7b9ff2" target="_top" xlink:title=" ">
<polygon fill="white" stroke="#666666" points="559.75,-367.5 470.25,-367.5 470.25,-340 559.75,-340 559.75,-367.5"/>
<text text-anchor="start" x="478.25" y="-355.9" font-family="SourceSans" font-size="8.00">svg::title_element</text>
<text text-anchor="middle" x="515" y="-346.15" font-family="SourceSans" font-size="8.00">::start_element</text>
</a>
</g>
</g>
<!-- Node15&#45;&gt;Node17 -->
<g id="edge19_Node000015_Node000017" class="edge">
<title>Node15&#45;&gt;Node17</title>
<g id="a_edge19_Node000015_Node000017"><a xlink:title=" ">
<path fill="none" stroke="#63b8ff" d="M405.82,-355.12C422.63,-354.91 441.52,-354.67 458.76,-354.45"/>
<polygon fill="#63b8ff" stroke="#63b8ff" points="458.34,-357.96 468.29,-354.33 458.25,-350.96 458.34,-357.96"/>
</a>
</g>
</g>
<!-- Node19 -->
<g id="Node000019" class="node">
<title>Node19</title>
<g id="a_Node000019"><a xlink:href="namespacesvg.html#a0352c1350268fb7ecd96ea81908417e7" target="_top" xlink:title="Line primitive.">
<polygon fill="white" stroke="#666666" points="553.38,-487.62 476.62,-487.62 476.62,-469.88 553.38,-469.88 553.38,-487.62"/>
<text text-anchor="middle" x="515" y="-476.02" font-family="SourceSans" font-size="8.00">svg::make_line</text>
</a>
</g>
</g>
<!-- Node18&#45;&gt;Node19 -->
<g id="edge22_Node000018_Node000019" class="edge">
<title>Node18&#45;&gt;Node19</title>
<g id="a_edge22_Node000018_Node000019"><a xlink:title=" ">
<path fill="none" stroke="#63b8ff" d="M418.67,-478.75C434.02,-478.75 450.24,-478.75 464.86,-478.75"/>
<polygon fill="#63b8ff" stroke="#63b8ff" points="464.69,-482.25 474.69,-478.75 464.69,-475.25 464.69,-482.25"/>
</a>
</g>
</g>
<!-- Node19&#45;&gt;Node13 -->
<g id="edge25_Node000019_Node000013" class="edge">
<title>Node19&#45;&gt;Node13</title>
<g id="a_edge25_Node000019_Node000013"><a xlink:title=" ">
<path fill="none" stroke="#63b8ff" d="M553.83,-478.75C570.71,-478.75 591.03,-478.75 609.96,-478.75"/>
<polygon fill="#63b8ff" stroke="#63b8ff" points="609.7,-482.25 619.7,-478.75 609.7,-475.25 609.7,-482.25"/>
</a>
</g>
</g>
<!-- Node20 -->
<g id="Node000020" class="node">
<title>Node20</title>
<g id="a_Node000020"><a xlink:href="group__elements.html#a306eac4c5a7ea755ab6375a65489366f" target="_top" xlink:title=" ">
<polygon fill="white" stroke="#666666" points="719,-446.5 624.25,-446.5 624.25,-419 719,-419 719,-446.5"/>
<text text-anchor="start" x="632.25" y="-434.9" font-family="SourceSans" font-size="8.00">svg::line_element::</text>
<text text-anchor="middle" x="671.62" y="-425.15" font-family="SourceSans" font-size="8.00">add_data</text>
</a>
</g>
</g>
<!-- Node19&#45;&gt;Node20 -->
<g id="edge23_Node000019_Node000020" class="edge">
<title>Node19&#45;&gt;Node20</title>
<g id="a_edge23_Node000019_Node000020"><a xlink:title=" ">
<path fill="none" stroke="#63b8ff" d="M547.29,-469.44C566.09,-463.85 590.59,-456.56 612.8,-449.95"/>
<polygon fill="#63b8ff" stroke="#63b8ff" points="613.79,-453.31 622.37,-447.11 611.79,-446.6 613.79,-453.31"/>
</a>
</g>
</g>
<!-- Node21 -->
<g id="Node000021" class="node">
<title>Node21</title>
<g id="a_Node000021"><a xlink:href="group__elements.html#ga4769af15793cb308d426abb5fd552df5" target="_top" xlink:title=" ">
<polygon fill="white" stroke="#666666" points="719,-400.5 624.25,-400.5 624.25,-373 719,-373 719,-400.5"/>
<text text-anchor="start" x="632.25" y="-388.9" font-family="SourceSans" font-size="8.00">svg::line_element::</text>
<text text-anchor="middle" x="671.62" y="-379.15" font-family="SourceSans" font-size="8.00">finish_element</text>
</a>
</g>
</g>
<!-- Node19&#45;&gt;Node21 -->
<g id="edge26_Node000019_Node000021" class="edge">
<title>Node19&#45;&gt;Node21</title>
<g id="a_edge26_Node000019_Node000021"><a xlink:title=" ">
<path fill="none" stroke="#63b8ff" d="M549.43,-469.41C558.41,-465.98 567.76,-461.49 575.5,-455.75 596.36,-440.29 590.66,-425.23 611.5,-409.75 613.05,-408.6 614.67,-407.5 616.33,-406.44"/>
<polygon fill="#63b8ff" stroke="#63b8ff" points="617.9,-409.57 624.96,-401.67 614.51,-403.45 617.9,-409.57"/>
</a>
</g>
</g>
<!-- Node22 -->
<g id="Node000022" class="node">
<title>Node22</title>
<g id="a_Node000022"><a xlink:href="group__elements.html#aa6b4ba04be5858b4943235801f034943" target="_top" xlink:title=" ">
<polygon fill="white" stroke="#666666" points="719,-354.5 624.25,-354.5 624.25,-327 719,-327 719,-354.5"/>
<text text-anchor="start" x="632.25" y="-342.9" font-family="SourceSans" font-size="8.00">svg::line_element::</text>
<text text-anchor="middle" x="671.62" y="-333.15" font-family="SourceSans" font-size="8.00">start_element</text>
</a>
</g>
</g>
<!-- Node19&#45;&gt;Node22 -->
<g id="edge27_Node000019_Node000022" class="edge">
<title>Node19&#45;&gt;Node22</title>
<g id="a_edge27_Node000019_Node000022"><a xlink:title=" ">
<path fill="none" stroke="#63b8ff" d="M553.73,-469.57C561.67,-466.25 569.46,-461.77 575.5,-455.75 606.61,-424.77 580.42,-394.77 611.5,-363.75 612.51,-362.74 613.57,-361.78 614.67,-360.86"/>
<polygon fill="#63b8ff" stroke="#63b8ff" points="616.29,-363.99 622.53,-355.42 612.32,-358.23 616.29,-363.99"/>
</a>
</g>
</g>
<!-- Node20&#45;&gt;Node11 -->
<g id="edge24_Node000020_Node000011" class="edge">
<title>Node20&#45;&gt;Node11</title>
<g id="a_edge24_Node000020_Node000011"><a xlink:title=" ">
<path fill="none" stroke="#63b8ff" d="M719.48,-445.68C724.08,-448.42 728.31,-451.74 731.75,-455.75 755.02,-482.89 797.82,-731.2 810.04,-804.48"/>
<polygon fill="#63b8ff" stroke="#63b8ff" points="806.56,-804.92 811.65,-814.21 813.47,-803.77 806.56,-804.92"/>
</a>
</g>
</g>
<!-- Node23&#45;&gt;Node3 -->
<g id="edge30_Node000023_Node000003" class="edge">
<title>Node23&#45;&gt;Node3</title>
<g id="a_edge30_Node000023_Node000003"><a xlink:title=" ">
<path fill="none" stroke="#63b8ff" d="M403.62,-452.1C452.01,-458.83 526.83,-460.97 575.5,-422.75 614.3,-392.28 576.01,-352.02 611.5,-317.75 612.54,-316.74 613.64,-315.79 614.78,-314.9"/>
<polygon fill="#63b8ff" stroke="#63b8ff" points="616.35,-318.04 623.01,-309.8 612.66,-312.09 616.35,-318.04"/>
</a>
</g>
</g>
<!-- Node23&#45;&gt;Node19 -->
<g id="edge29_Node000023_Node000019" class="edge">
<title>Node23&#45;&gt;Node19</title>
<g id="a_edge29_Node000023_Node000019"><a xlink:title=" ">
<path fill="none" stroke="#63b8ff" d="M397.38,-452.11C418.12,-456.85 443.44,-462.63 465.18,-467.6"/>
<polygon fill="#63b8ff" stroke="#63b8ff" points="464.17,-470.96 474.7,-469.77 465.73,-464.14 464.17,-470.96"/>
</a>
</g>
</g>
<!-- Node25 -->
<g id="Node000025" class="node">
<title>Node25</title>
<g id="a_Node000025"><a xlink:href="namespacesvg.html#ab44508c4aeca591141ebec50145b75cd" target="_top" xlink:title="Angle in degrees.">
<polygon fill="white" stroke="#666666" points="570.62,-617.5 459.38,-617.5 459.38,-590 570.62,-590 570.62,-617.5"/>
<text text-anchor="start" x="467.38" y="-605.9" font-family="SourceSans" font-size="8.00">svg::get_circumference</text>
<text text-anchor="middle" x="515" y="-596.15" font-family="SourceSans" font-size="8.00">_point_d</text>
</a>
</g>
</g>
<!-- Node24&#45;&gt;Node25 -->
<g id="edge32_Node000024_Node000025" class="edge">
<title>Node24&#45;&gt;Node25</title>
<g id="a_edge32_Node000024_Node000025"><a xlink:title=" ">
<path fill="none" stroke="#63b8ff" d="M414.17,-592.35C425.06,-593.59 436.53,-594.9 447.66,-596.17"/>
<polygon fill="#63b8ff" stroke="#63b8ff" points="447.26,-599.65 457.59,-597.31 448.05,-592.7 447.26,-599.65"/>
</a>
</g>
</g>
<!-- Node27 -->
<g id="Node000027" class="node">
<title>Node27</title>
<g id="a_Node000027"><a xlink:href="namespacesvg.html#a302d3f13fef13ef823b99cfabcfac3ab" target="_top" xlink:title="Draw path given serialized path data. Can be used to make pinstripes, ie top and bottom line layers....">
<polygon fill="white" stroke="#666666" points="555.25,-653.62 474.75,-653.62 474.75,-635.88 555.25,-635.88 555.25,-653.62"/>
<text text-anchor="middle" x="515" y="-642.02" font-family="SourceSans" font-size="8.00">svg::make_path</text>
</a>
</g>
</g>
<!-- Node24&#45;&gt;Node27 -->
<g id="edge34_Node000024_Node000027" class="edge">
<title>Node24&#45;&gt;Node27</title>
<g id="a_edge34_Node000024_Node000027"><a xlink:title=" ">
<path fill="none" stroke="#63b8ff" d="M395.11,-595.11C403,-597.53 411.14,-600.41 418.5,-603.75 435.8,-611.58 437.25,-618.82 454.5,-626.75 458.47,-628.58 462.67,-630.27 466.93,-631.84"/>
<polygon fill="#63b8ff" stroke="#63b8ff" points="465.51,-635.05 476.11,-634.97 467.77,-628.43 465.51,-635.05"/>
</a>
</g>
</g>
<!-- Node31 -->
<g id="Node000031" class="node">
<title>Node31</title>
<g id="a_Node000031"><a xlink:href="namespacesvg.html#a2c65de7707b8b7b1bca959a3a2bbba91" target="_top" xlink:title="Make single path segment.">
<polygon fill="white" stroke="#666666" points="566.5,-571.5 463.5,-571.5 463.5,-544 566.5,-544 566.5,-571.5"/>
<text text-anchor="start" x="471.5" y="-559.9" font-family="SourceSans" font-size="8.00">svg::make_path_data</text>
<text text-anchor="middle" x="515" y="-550.15" font-family="SourceSans" font-size="8.00">_from_points</text>
</a>
</g>
</g>
<!-- Node24&#45;&gt;Node31 -->
<g id="edge42_Node000024_Node000031" class="edge">
<title>Node24&#45;&gt;Node31</title>
<g id="a_edge42_Node000024_Node000031"><a xlink:title=" ">
<path fill="none" stroke="#63b8ff" d="M408.86,-576.43C422.64,-573.98 437.63,-571.32 451.87,-568.79"/>
<polygon fill="#63b8ff" stroke="#63b8ff" points="452.36,-572.26 461.59,-567.06 451.13,-565.36 452.36,-572.26"/>
</a>
</g>
</g>
<!-- Node33 -->
<g id="Node000033" class="node">
<title>Node33</title>
<g id="a_Node000033"><a xlink:href="namespacesvg.html#a46164d75fd5109e4ed8879abbacd5c11" target="_top" xlink:title="Zero degrees is top, going clockwise (cw).">
<polygon fill="white" stroke="#666666" points="575.5,-689.62 454.5,-689.62 454.5,-671.88 575.5,-671.88 575.5,-689.62"/>
<text text-anchor="middle" x="515" y="-678.02" font-family="SourceSans" font-size="8.00">svg::zero_angle_north_cw</text>
</a>
</g>
</g>
<!-- Node24&#45;&gt;Node33 -->
<g id="edge44_Node000024_Node000033" class="edge">
<title>Node24&#45;&gt;Node33</title>
<g id="a_edge44_Node000024_Node000033"><a xlink:title=" ">
<path fill="none" stroke="#63b8ff" d="M403.01,-595.07C408.54,-597.36 413.86,-600.2 418.5,-603.75 442.91,-622.4 430.2,-643.96 454.5,-662.75 456.23,-664.09 458.06,-665.33 459.96,-666.47"/>
<polygon fill="#63b8ff" stroke="#63b8ff" points="458.07,-669.44 468.58,-670.8 461.21,-663.19 458.07,-669.44"/>
</a>
</g>
</g>
<!-- Node26 -->
<g id="Node000026" class="node">
<title>Node26</title>
<g id="a_Node000026"><a xlink:href="namespacesvg.html#aef05ac63d88a6102981d3faf37275297" target="_top" xlink:title="Angle in radians.">
<polygon fill="white" stroke="#666666" points="727.25,-574.5 616,-574.5 616,-547 727.25,-547 727.25,-574.5"/>
<text text-anchor="start" x="624" y="-562.9" font-family="SourceSans" font-size="8.00">svg::get_circumference</text>
<text text-anchor="middle" x="671.62" y="-553.15" font-family="SourceSans" font-size="8.00">_point_r</text>
</a>
</g>
</g>
<!-- Node25&#45;&gt;Node26 -->
<g id="edge33_Node000025_Node000026" class="edge">
<title>Node25&#45;&gt;Node26</title>
<g id="a_edge33_Node000025_Node000026"><a xlink:title=" ">
<path fill="none" stroke="#63b8ff" d="M567.06,-589.55C580.39,-585.84 594.89,-581.81 608.72,-577.97"/>
<polygon fill="#63b8ff" stroke="#63b8ff" points="609.47,-581.39 618.16,-575.34 607.59,-574.65 609.47,-581.39"/>
</a>
</g>
</g>
<!-- Node27&#45;&gt;Node4 -->
<g id="edge37_Node000027_Node000004" class="edge">
<title>Node27&#45;&gt;Node4</title>
<g id="a_edge37_Node000027_Node000004"><a xlink:title=" ">
<path fill="none" stroke="#63b8ff" d="M555.56,-651.14C562.85,-653.78 569.92,-657.5 575.5,-662.75 609,-694.25 579.24,-726.98 611.5,-759.75 612.24,-760.51 613.02,-761.24 613.81,-761.94"/>
<polygon fill="#63b8ff" stroke="#63b8ff" points="611.75,-764.77 621.91,-767.78 615.84,-759.09 611.75,-764.77"/>
</a>
</g>
</g>
<!-- Node27&#45;&gt;Node13 -->
<g id="edge38_Node000027_Node000013" class="edge">
<title>Node27&#45;&gt;Node13</title>
<g id="a_edge38_Node000027_Node000013"><a xlink:title=" ">
<path fill="none" stroke="#63b8ff" d="M555.57,-638.79C562.95,-636.12 570.04,-632.28 575.5,-626.75 616.11,-585.6 572.51,-544.44 611.5,-501.75 612.08,-501.11 612.69,-500.49 613.31,-499.88"/>
<polygon fill="#63b8ff" stroke="#63b8ff" points="615.33,-502.75 621.09,-493.86 611.04,-497.21 615.33,-502.75"/>
</a>
</g>
</g>
<!-- Node27&#45;&gt;Node14 -->
<g id="edge41_Node000027_Node000014" class="edge">
<title>Node27&#45;&gt;Node14</title>
<g id="a_edge41_Node000027_Node000014"><a xlink:title=" ">
<path fill="none" stroke="#63b8ff" d="M552.28,-635.48C604.73,-621.9 699.04,-596.82 731.75,-583.75 751.52,-575.85 772.76,-564.57 788.61,-555.54"/>
<polygon fill="#63b8ff" stroke="#63b8ff" points="789.98,-558.79 796.88,-550.75 786.47,-552.73 789.98,-558.79"/>
</a>
</g>
</g>
<!-- Node28 -->
<g id="Node000028" class="node">
<title>Node28</title>
<g id="a_Node000028"><a xlink:href="group__elements.html#a807f3c30f2ace338ad10aaf230b47665" target="_top" xlink:title="Either serialize immediately (as below), or create data structure that adds data to data_vec and then...">
<polygon fill="white" stroke="#666666" points="720.88,-704.5 622.38,-704.5 622.38,-677 720.88,-677 720.88,-704.5"/>
<text text-anchor="start" x="630.38" y="-692.9" font-family="SourceSans" font-size="8.00">svg::path_element::</text>
<text text-anchor="middle" x="671.62" y="-683.15" font-family="SourceSans" font-size="8.00">add_data</text>
</a>
</g>
</g>
<!-- Node27&#45;&gt;Node28 -->
<g id="edge35_Node000027_Node000028" class="edge">
<title>Node27&#45;&gt;Node28</title>
<g id="a_edge35_Node000027_Node000028"><a xlink:title=" ">
<path fill="none" stroke="#63b8ff" d="M547.29,-654.06C565.86,-659.58 590,-666.77 612,-673.31"/>
<polygon fill="#63b8ff" stroke="#63b8ff" points="610.89,-676.63 621.47,-676.13 612.89,-669.92 610.89,-676.63"/>
</a>
</g>
</g>
<!-- Node29 -->
<g id="Node000029" class="node">
<title>Node29</title>
<g id="a_Node000029"><a xlink:href="group__elements.html#gaac30ae99fb1a2542688fa1ffb43cd8e1" target="_top" xlink:title=" ">
<polygon fill="white" stroke="#666666" points="720.88,-750.5 622.38,-750.5 622.38,-723 720.88,-723 720.88,-750.5"/>
<text text-anchor="start" x="630.38" y="-738.9" font-family="SourceSans" font-size="8.00">svg::path_element::</text>
<text text-anchor="middle" x="671.62" y="-729.15" font-family="SourceSans" font-size="8.00">finish_element</text>
</a>
</g>
</g>
<!-- Node27&#45;&gt;Node29 -->
<g id="edge39_Node000027_Node000029" class="edge">
<title>Node27&#45;&gt;Node29</title>
<g id="a_edge39_Node000027_Node000029"><a xlink:title=" ">
<path fill="none" stroke="#63b8ff" d="M555.51,-652.67C562.56,-655.17 569.55,-658.46 575.5,-662.75 598,-678.98 589.64,-696.66 611.5,-713.75 612.99,-714.92 614.55,-716.03 616.16,-717.09"/>
<polygon fill="#63b8ff" stroke="#63b8ff" points="614.08,-719.94 624.5,-721.88 617.57,-713.86 614.08,-719.94"/>
</a>
</g>
</g>
<!-- Node30 -->
<g id="Node000030" class="node">
<title>Node30</title>
<g id="a_Node000030"><a xlink:href="group__elements.html#a6dbca7cef2cbc0c10aa44c44ae20b36e" target="_top" xlink:title=" ">
<polygon fill="white" stroke="#666666" points="720.88,-658.5 622.38,-658.5 622.38,-631 720.88,-631 720.88,-658.5"/>
<text text-anchor="start" x="630.38" y="-646.9" font-family="SourceSans" font-size="8.00">svg::path_element::</text>
<text text-anchor="middle" x="671.62" y="-637.15" font-family="SourceSans" font-size="8.00">start_element</text>
</a>
</g>
</g>
<!-- Node27&#45;&gt;Node30 -->
<g id="edge40_Node000027_Node000030" class="edge">
<title>Node27&#45;&gt;Node30</title>
<g id="a_edge40_Node000027_Node000030"><a xlink:title=" ">
<path fill="none" stroke="#63b8ff" d="M555.42,-644.75C572.24,-644.75 592.24,-644.75 610.81,-644.75"/>
<polygon fill="#63b8ff" stroke="#63b8ff" points="610.64,-648.25 620.64,-644.75 610.64,-641.25 610.64,-648.25"/>
</a>
</g>
</g>
<!-- Node28&#45;&gt;Node11 -->
<g id="edge36_Node000028_Node000011" class="edge">
<title>Node28&#45;&gt;Node11</title>
<g id="a_edge36_Node000028_Node000011"><a xlink:title=" ">
<path fill="none" stroke="#63b8ff" d="M717.37,-704.95C722.46,-707.48 727.38,-710.4 731.75,-713.75 764.7,-739 790.48,-781.01 803.68,-805.47"/>
<polygon fill="#63b8ff" stroke="#63b8ff" points="800.55,-807.04 808.28,-814.29 806.75,-803.8 800.55,-807.04"/>
</a>
</g>
</g>
<!-- Node32 -->
<g id="Node000032" class="node">
<title>Node32</title>
<g id="a_Node000032"><a xlink:href="namespacesvg_1_1constants.html#ac460bc8db60d85c3ae1cf8b1a903405e" target="_top" xlink:title="Formatting character constants.">
<polygon fill="white" stroke="#666666" points="725.38,-528.62 617.88,-528.62 617.88,-510.88 725.38,-510.88 725.38,-528.62"/>
<text text-anchor="middle" x="671.62" y="-517.02" font-family="SourceSans" font-size="8.00">svg::constants::space</text>
</a>
</g>
</g>
<!-- Node31&#45;&gt;Node32 -->
<g id="edge43_Node000031_Node000032" class="edge">
<title>Node31&#45;&gt;Node32</title>
<g id="a_edge43_Node000031_Node000032"><a xlink:title=" ">
<path fill="none" stroke="#63b8ff" d="M566.63,-545.31C584.26,-540.97 604,-536.12 621.5,-531.82"/>
<polygon fill="#63b8ff" stroke="#63b8ff" points="622.29,-535.23 631.17,-529.45 620.62,-528.43 622.29,-535.23"/>
</a>
</g>
</g>
<!-- Node34&#45;&gt;Node25 -->
<g id="edge46_Node000034_Node000025" class="edge">
<title>Node34&#45;&gt;Node25</title>
<g id="a_edge46_Node000034_Node000025"><a xlink:title=" ">
<path fill="none" stroke="#63b8ff" d="M413.73,-615.2C424.82,-613.93 436.52,-612.6 447.87,-611.3"/>
<polygon fill="#63b8ff" stroke="#63b8ff" points="448.02,-614.81 457.55,-610.2 447.22,-607.85 448.02,-614.81"/>
</a>
</g>
</g>
<!-- Node34&#45;&gt;Node27 -->
<g id="edge47_Node000034_Node000027" class="edge">
<title>Node34&#45;&gt;Node27</title>
<g id="a_edge47_Node000034_Node000027"><a xlink:title=" ">
<path fill="none" stroke="#63b8ff" d="M413.73,-630.12C430.02,-632.5 447.63,-635.07 463.49,-637.38"/>
<polygon fill="#63b8ff" stroke="#63b8ff" points="462.78,-640.81 473.18,-638.79 463.79,-633.89 462.78,-640.81"/>
</a>
</g>
</g>
<!-- Node34&#45;&gt;Node31 -->
<g id="edge48_Node000034_Node000031" class="edge">
<title>Node34&#45;&gt;Node31</title>
<g id="a_edge48_Node000034_Node000031"><a xlink:title=" ">
<path fill="none" stroke="#63b8ff" d="M395.11,-612.39C403,-609.97 411.14,-607.09 418.5,-603.75 435.8,-595.92 437.56,-589.33 454.5,-580.75 457.52,-579.22 460.66,-577.73 463.85,-576.29"/>
<polygon fill="#63b8ff" stroke="#63b8ff" points="464.95,-579.63 472.76,-572.48 462.19,-573.2 464.95,-579.63"/>
</a>
</g>
</g>
<!-- Node34&#45;&gt;Node33 -->
<g id="edge49_Node000034_Node000033" class="edge">
<title>Node34&#45;&gt;Node33</title>
<g id="a_edge49_Node000034_Node000033"><a xlink:title=" ">
<path fill="none" stroke="#63b8ff" d="M376.81,-631.01C396.49,-639.75 427.22,-652.95 454.5,-662.75 459.57,-664.57 464.92,-666.36 470.25,-668.07"/>
<polygon fill="#63b8ff" stroke="#63b8ff" points="469.04,-671.36 479.62,-670.99 471.12,-664.68 469.04,-671.36"/>
</a>
</g>
</g>
<!-- Node37&#45;&gt;Node11 -->
<g id="edge54_Node000037_Node000011" class="edge">
<title>Node37&#45;&gt;Node11</title>
<g id="a_edge54_Node000037_Node000011"><a xlink:title=" ">
<path fill="none" stroke="#63b8ff" d="M563.28,-914.43C608.27,-915.28 677.01,-912.06 731.75,-889.75 757.83,-879.12 782.34,-857.42 797.57,-842.03"/>
<polygon fill="#63b8ff" stroke="#63b8ff" points="799.98,-844.56 804.36,-834.91 794.92,-839.73 799.98,-844.56"/>
</a>
</g>
</g>
<!-- Node41 -->
<g id="Node000041" class="node">
<title>Node41</title>
<g id="a_Node000041"><a xlink:href="namespacesvg.html#a2e5178befe99e2a7d5ede3c02088055f" target="_top" xlink:title="Scale value from min to max on range (nfloor, nceil).">
<polygon fill="white" stroke="#666666" points="404.62,-27.5 306.12,-27.5 306.12,0 404.62,0 404.62,-27.5"/>
<text text-anchor="start" x="314.12" y="-15.9" font-family="SourceSans" font-size="8.00">svg::scale_value_on</text>
<text text-anchor="middle" x="355.38" y="-6.15" font-family="SourceSans" font-size="8.00">_range</text>
</a>
</g>
</g>
<!-- Node40&#45;&gt;Node41 -->
<g id="edge58_Node000040_Node000041" class="edge">
<title>Node40&#45;&gt;Node41</title>
<g id="a_edge58_Node000040_Node000041"><a xlink:title=" ">
<path fill="none" stroke="#63b8ff" d="M256.65,-13.75C269.06,-13.75 282.22,-13.75 294.72,-13.75"/>
<polygon fill="#63b8ff" stroke="#63b8ff" points="294.47,-17.25 304.47,-13.75 294.47,-10.25 294.47,-17.25"/>
</a>
</g>
</g>
</g>
</svg>
