<?xml version="1.0" encoding="UTF-8" standalone="no"?>
<!DOCTYPE svg PUBLIC "-//W3C//DTD SVG 1.1//EN"
 "http://www.w3.org/Graphics/SVG/1.1/DTD/svg11.dtd">
<!-- Generated by graphviz version 12.2.1 (20241206.2353)
 -->
<!-- Title: svg::styled_text_link Pages: 1 -->
<svg width="516pt" height="360pt"
 viewBox="0.00 0.00 516.00 360.00" xmlns="http://www.w3.org/2000/svg" xmlns:xlink="http://www.w3.org/1999/xlink">
<g id="graph0" class="graph" transform="scale(1 1) rotate(0) translate(4 356)">
<title>svg::styled_text_link</title>
<!-- Node1 -->
<g id="Node000001" class="node">
<title>Node1</title>
<g id="a_Node000001"><a xlink:title="XXX Text at.">
<polygon fill="#999999" stroke="#666666" points="92.5,-126 0,-126 0,-106 92.5,-106 92.5,-126"/>
<text text-anchor="middle" x="46.25" y="-114.4" font-family="SourceSans" font-size="8.00">svg::styled_text_link</text>
</a>
</g>
</g>
<!-- Node2 -->
<g id="Node000002" class="node">
<title>Node2</title>
<g id="a_Node000002"><a xlink:href="group__elements.html#aad29e1daf75bdcd69a39575a6807fa0f" target="_top" xlink:title="Either serialize immediately (as below), or create data structure that adds data to data_vec and then...">
<polygon fill="white" stroke="#666666" points="218,-248 130,-248 130,-216 218,-216 218,-248"/>
<text text-anchor="start" x="138" y="-236.4" font-family="SourceSans" font-size="8.00">svg::text_element::</text>
<text text-anchor="middle" x="174" y="-224.4" font-family="SourceSans" font-size="8.00">add_data</text>
</a>
</g>
</g>
<!-- Node1&#45;&gt;Node2 -->
<g id="edge1_Node000001_Node000002" class="edge">
<title>Node1&#45;&gt;Node2</title>
<g id="a_edge1_Node000001_Node000002"><a xlink:title=" ">
<path fill="none" stroke="#63b8ff" d="M58.41,-126.29C78.15,-144.51 119.72,-182.85 146.99,-208.01"/>
<polygon fill="#63b8ff" stroke="#63b8ff" points="144.46,-210.43 154.18,-214.64 149.21,-205.29 144.46,-210.43"/>
</a>
</g>
</g>
<!-- Node7 -->
<g id="Node000007" class="node">
<title>Node7</title>
<g id="a_Node000007"><a xlink:href="group__elements.html#acafbdd950c6c2639c9d376c3eab696e5" target="_top" xlink:title=" ">
<polygon fill="white" stroke="#666666" points="351.38,-176 260.38,-176 260.38,-144 351.38,-144 351.38,-176"/>
<text text-anchor="start" x="268.38" y="-164.4" font-family="SourceSans" font-size="8.00">svg::element_base::</text>
<text text-anchor="middle" x="305.88" y="-152.4" font-family="SourceSans" font-size="8.00">add_raw</text>
</a>
</g>
</g>
<!-- Node1&#45;&gt;Node7 -->
<g id="edge13_Node000001_Node000007" class="edge">
<title>Node1&#45;&gt;Node7</title>
<g id="a_edge13_Node000001_Node000007"><a xlink:title=" ">
<path fill="none" stroke="#63b8ff" d="M76.23,-126.4C91.58,-131.52 110.86,-137.37 128.5,-141 168.2,-149.17 213.71,-153.96 248.55,-156.69"/>
<polygon fill="#63b8ff" stroke="#63b8ff" points="248.19,-160.17 258.42,-157.42 248.71,-153.19 248.19,-160.17"/>
</a>
</g>
</g>
<!-- Node10 -->
<g id="Node000010" class="node">
<title>Node10</title>
<g id="a_Node000010"><a xlink:href="group__elements.html#ada0333b46b2547c6152f3f5811016a12" target="_top" xlink:title=" ">
<polygon fill="white" stroke="#666666" points="219.5,-132 128.5,-132 128.5,-100 219.5,-100 219.5,-132"/>
<text text-anchor="start" x="136.5" y="-120.4" font-family="SourceSans" font-size="8.00">svg::element_base::</text>
<text text-anchor="middle" x="174" y="-108.4" font-family="SourceSans" font-size="8.00">add_element</text>
</a>
</g>
</g>
<!-- Node1&#45;&gt;Node10 -->
<g id="edge11_Node000001_Node000010" class="edge">
<title>Node1&#45;&gt;Node10</title>
<g id="a_edge11_Node000001_Node000010"><a xlink:title=" ">
<path fill="none" stroke="#63b8ff" d="M92.65,-116C100.49,-116 108.73,-116 116.81,-116"/>
<polygon fill="#63b8ff" stroke="#63b8ff" points="116.58,-119.5 126.58,-116 116.58,-112.5 116.58,-119.5"/>
</a>
</g>
</g>
<!-- Node12 -->
<g id="Node000012" class="node">
<title>Node12</title>
<g id="a_Node000012"><a xlink:href="group__elements.html#ga13c46848317034d16c62a7d2061ba3d6" target="_top" xlink:title=" ">
<polygon fill="white" stroke="#666666" points="218,-82 130,-82 130,-50 218,-50 218,-82"/>
<text text-anchor="start" x="138" y="-70.4" font-family="SourceSans" font-size="8.00">svg::text_element::</text>
<text text-anchor="middle" x="174" y="-58.4" font-family="SourceSans" font-size="8.00">finish_element</text>
</a>
</g>
</g>
<!-- Node1&#45;&gt;Node12 -->
<g id="edge14_Node000001_Node000012" class="edge">
<title>Node1&#45;&gt;Node12</title>
<g id="a_edge14_Node000001_Node000012"><a xlink:title=" ">
<path fill="none" stroke="#63b8ff" d="M73.61,-105.52C87.44,-100.02 104.86,-93.09 121.25,-86.58"/>
<polygon fill="#63b8ff" stroke="#63b8ff" points="122.42,-89.88 130.41,-82.93 119.83,-83.38 122.42,-89.88"/>
</a>
</g>
</g>
<!-- Node13 -->
<g id="Node000013" class="node">
<title>Node13</title>
<g id="a_Node000013"><a xlink:href="group__elements.html#ae45bec611a6ec17ea46aab6d680ae042" target="_top" xlink:title=" ">
<polygon fill="white" stroke="#666666" points="218,-32 130,-32 130,0 218,0 218,-32"/>
<text text-anchor="start" x="138" y="-20.4" font-family="SourceSans" font-size="8.00">svg::text_element::</text>
<text text-anchor="middle" x="174" y="-8.4" font-family="SourceSans" font-size="8.00">start_element</text>
</a>
</g>
</g>
<!-- Node1&#45;&gt;Node13 -->
<g id="edge15_Node000001_Node000013" class="edge">
<title>Node1&#45;&gt;Node13</title>
<g id="a_edge15_Node000001_Node000013"><a xlink:title=" ">
<path fill="none" stroke="#63b8ff" d="M56.85,-105.72C71.42,-90.46 100.4,-61.43 128.5,-41 129.67,-40.15 130.87,-39.31 132.09,-38.47"/>
<polygon fill="#63b8ff" stroke="#63b8ff" points="133.95,-41.44 140.5,-33.12 130.19,-35.54 133.95,-41.44"/>
</a>
</g>
</g>
<!-- Node3 -->
<g id="Node000003" class="node">
<title>Node3</title>
<g id="a_Node000003"><a xlink:href="structsvg_1_1typography.html#adbc62f74f1fed3f7c77567250f084f83" target="_top" xlink:title=" ">
<polygon fill="white" stroke="#666666" points="354,-314 257.75,-314 257.75,-282 354,-282 354,-314"/>
<text text-anchor="start" x="265.75" y="-302.4" font-family="SourceSans" font-size="8.00">svg::typography::add</text>
<text text-anchor="middle" x="305.88" y="-290.4" font-family="SourceSans" font-size="8.00">_attribute</text>
</a>
</g>
</g>
<!-- Node2&#45;&gt;Node3 -->
<g id="edge2_Node000002_Node000003" class="edge">
<title>Node2&#45;&gt;Node3</title>
<g id="a_edge2_Node000002_Node000003"><a xlink:title=" ">
<path fill="none" stroke="#63b8ff" d="M207.44,-248.48C224.14,-256.97 244.72,-267.43 262.65,-276.54"/>
<polygon fill="#63b8ff" stroke="#63b8ff" points="261,-279.63 271.5,-281.04 264.17,-273.39 261,-279.63"/>
</a>
</g>
</g>
<!-- Node4 -->
<g id="Node000004" class="node">
<title>Node4</title>
<g id="a_Node000004"><a xlink:href="namespacesvg.html#a48ac748e89e22789d1772326a98dd7b6" target="_top" xlink:title=" ">
<polygon fill="white" stroke="#666666" points="493.75,-352 406.5,-352 406.5,-332 493.75,-332 493.75,-352"/>
<text text-anchor="middle" x="450.12" y="-340.4" font-family="SourceSans" font-size="8.00">svg::string_replace</text>
</a>
</g>
</g>
<!-- Node2&#45;&gt;Node4 -->
<g id="edge9_Node000002_Node000004" class="edge">
<title>Node2&#45;&gt;Node4</title>
<g id="a_edge9_Node000002_Node000004"><a xlink:title=" ">
<path fill="none" stroke="#63b8ff" d="M183.98,-248.16C196.79,-269.44 222.44,-306.12 255.5,-323 298.71,-345.07 354.4,-348.35 394.95,-346.98"/>
<polygon fill="#63b8ff" stroke="#63b8ff" points="394.89,-350.49 404.72,-346.54 394.57,-343.5 394.89,-350.49"/>
</a>
</g>
</g>
<!-- Node5 -->
<g id="Node000005" class="node">
<title>Node5</title>
<g id="a_Node000005"><a xlink:href="namespacesvg.html#a36b1c48ad4601b205790e3772ad0a7b6" target="_top" xlink:title=" ">
<polygon fill="white" stroke="#666666" points="483.62,-264 416.62,-264 416.62,-244 483.62,-244 483.62,-264"/>
<text text-anchor="middle" x="450.12" y="-252.4" font-family="SourceSans" font-size="8.00">svg::to_string</text>
</a>
</g>
</g>
<!-- Node2&#45;&gt;Node5 -->
<g id="edge10_Node000002_Node000005" class="edge">
<title>Node2&#45;&gt;Node5</title>
<g id="a_edge10_Node000002_Node000005"><a xlink:title=" ">
<path fill="none" stroke="#63b8ff" d="M218.44,-235.49C269.42,-239.58 353.5,-246.33 404.85,-250.45"/>
<polygon fill="#63b8ff" stroke="#63b8ff" points="404.46,-253.93 414.71,-251.24 405.02,-246.95 404.46,-253.93"/>
</a>
</g>
</g>
<!-- Node2&#45;&gt;Node7 -->
<g id="edge6_Node000002_Node000007" class="edge">
<title>Node2&#45;&gt;Node7</title>
<g id="a_edge6_Node000002_Node000007"><a xlink:title=" ">
<path fill="none" stroke="#63b8ff" d="M201.97,-215.71C217.5,-206.47 237.45,-194.83 255.5,-185 257.54,-183.89 259.64,-182.76 261.77,-181.63"/>
<polygon fill="#63b8ff" stroke="#63b8ff" points="263.21,-184.83 270.46,-177.1 259.97,-178.62 263.21,-184.83"/>
</a>
</g>
</g>
<!-- Node8 -->
<g id="Node000008" class="node">
<title>Node8</title>
<g id="a_Node000008"><a xlink:href="group__elements.html#a53d72a7ff728ad1d4d027254530bcf3d" target="_top" xlink:title=" ">
<polygon fill="white" stroke="#666666" points="351.38,-226 260.38,-226 260.38,-194 351.38,-194 351.38,-226"/>
<text text-anchor="start" x="268.38" y="-214.4" font-family="SourceSans" font-size="8.00">svg::element_base::</text>
<text text-anchor="middle" x="305.88" y="-202.4" font-family="SourceSans" font-size="8.00">add_transform</text>
</a>
</g>
</g>
<!-- Node2&#45;&gt;Node8 -->
<g id="edge7_Node000002_Node000008" class="edge">
<title>Node2&#45;&gt;Node8</title>
<g id="a_edge7_Node000002_Node000008"><a xlink:title=" ">
<path fill="none" stroke="#63b8ff" d="M218.25,-224.67C228,-223.02 238.5,-221.24 248.7,-219.52"/>
<polygon fill="#63b8ff" stroke="#63b8ff" points="249.27,-222.97 258.55,-217.85 248.1,-216.07 249.27,-222.97"/>
</a>
</g>
</g>
<!-- Node3&#45;&gt;Node4 -->
<g id="edge3_Node000003_Node000004" class="edge">
<title>Node3&#45;&gt;Node4</title>
<g id="a_edge3_Node000003_Node000004"><a xlink:title=" ">
<path fill="none" stroke="#63b8ff" d="M354.24,-312.65C370.53,-317.69 388.69,-323.31 404.73,-328.27"/>
<polygon fill="#63b8ff" stroke="#63b8ff" points="403.41,-331.52 414,-331.14 405.48,-324.84 403.41,-331.52"/>
</a>
</g>
</g>
<!-- Node3&#45;&gt;Node5 -->
<g id="edge4_Node000003_Node000005" class="edge">
<title>Node3&#45;&gt;Node5</title>
<g id="a_edge4_Node000003_Node000005"><a xlink:title=" ">
<path fill="none" stroke="#63b8ff" d="M354.24,-283.35C370.79,-278.23 389.28,-272.51 405.51,-267.49"/>
<polygon fill="#63b8ff" stroke="#63b8ff" points="406.36,-270.89 414.88,-264.59 404.29,-264.2 406.36,-270.89"/>
</a>
</g>
</g>
<!-- Node6 -->
<g id="Node000006" class="node">
<title>Node6</title>
<g id="a_Node000006"><a xlink:href="structsvg_1_1typography.html#a174c1ffb4e56214d71523ffe7e422561" target="_top" xlink:title=" ">
<polygon fill="white" stroke="#666666" points="494.5,-314 405.75,-314 405.75,-282 494.5,-282 494.5,-314"/>
<text text-anchor="start" x="413.75" y="-302.4" font-family="SourceSans" font-size="8.00">svg::typography::to</text>
<text text-anchor="middle" x="450.12" y="-290.4" font-family="SourceSans" font-size="8.00">_string</text>
</a>
</g>
</g>
<!-- Node3&#45;&gt;Node6 -->
<g id="edge5_Node000003_Node000006" class="edge">
<title>Node3&#45;&gt;Node6</title>
<g id="a_edge5_Node000003_Node000006"><a xlink:title=" ">
<path fill="none" stroke="#63b8ff" d="M354.24,-298C366.99,-298 380.9,-298 394.03,-298"/>
<polygon fill="#63b8ff" stroke="#63b8ff" points="393.81,-301.5 403.81,-298 393.81,-294.5 393.81,-301.5"/>
</a>
</g>
</g>
<!-- Node9 -->
<g id="Node000009" class="node">
<title>Node9</title>
<g id="a_Node000009"><a xlink:href="group__elements.html#ae50258851ebbaf08c7eebc3fbdbf1ac8" target="_top" xlink:title="Common transforms include rotate(180)">
<polygon fill="white" stroke="#666666" points="508,-226 392.25,-226 392.25,-194 508,-194 508,-226"/>
<text text-anchor="start" x="400.25" y="-214.4" font-family="SourceSans" font-size="8.00">svg::element_base::</text>
<text text-anchor="middle" x="450.12" y="-202.4" font-family="SourceSans" font-size="8.00">make_transform_attribute</text>
</a>
</g>
</g>
<!-- Node8&#45;&gt;Node9 -->
<g id="edge8_Node000008_Node000009" class="edge">
<title>Node8&#45;&gt;Node9</title>
<g id="a_edge8_Node000008_Node000009"><a xlink:title=" ">
<path fill="none" stroke="#63b8ff" d="M351.49,-210C360.69,-210 370.57,-210 380.39,-210"/>
<polygon fill="#63b8ff" stroke="#63b8ff" points="380.34,-213.5 390.34,-210 380.34,-206.5 380.34,-213.5"/>
</a>
</g>
</g>
<!-- Node11 -->
<g id="Node000011" class="node">
<title>Node11</title>
<g id="a_Node000011"><a xlink:href="group__elements.html#ad893ef9c13a15464c96d8a85c08af30f" target="_top" xlink:title=" ">
<polygon fill="white" stroke="#666666" points="356.25,-126 255.5,-126 255.5,-106 356.25,-106 356.25,-126"/>
<text text-anchor="middle" x="305.88" y="-114.4" font-family="SourceSans" font-size="8.00">svg::element_base::str</text>
</a>
</g>
</g>
<!-- Node10&#45;&gt;Node11 -->
<g id="edge12_Node000010_Node000011" class="edge">
<title>Node10&#45;&gt;Node11</title>
<g id="a_edge12_Node000010_Node000011"><a xlink:title=" ">
<path fill="none" stroke="#63b8ff" d="M219.7,-116C227.48,-116 235.69,-116 243.82,-116"/>
<polygon fill="#63b8ff" stroke="#63b8ff" points="243.69,-119.5 253.69,-116 243.69,-112.5 243.69,-119.5"/>
</a>
</g>
</g>
</g>
</svg>
