<?xml version="1.0" encoding="UTF-8" standalone="no"?>
<!DOCTYPE svg PUBLIC "-//W3C//DTD SVG 1.1//EN"
 "http://www.w3.org/Graphics/SVG/1.1/DTD/svg11.dtd">
<!-- Generated by graphviz version 12.2.1 (20241206.2353)
 -->
<!-- Title: svg::make_line_graph Pages: 1 -->
<svg width="805pt" height="644pt"
 viewBox="0.00 0.00 805.25 644.00" xmlns="http://www.w3.org/2000/svg" xmlns:xlink="http://www.w3.org/1999/xlink">
<g id="graph0" class="graph" transform="scale(1 1) rotate(0) translate(4 640)">
<title>svg::make_line_graph</title>
<!-- Node1 -->
<g id="Node000001" class="node">
<title>Node1</title>
<g id="a_Node000001"><a xlink:title="Returns a svg_element with the chart and labels Assume: vgrange x axis is monotonically increasing.">
<polygon fill="#999999" stroke="#666666" points="99.25,-218 0,-218 0,-198 99.25,-198 99.25,-218"/>
<text text-anchor="middle" x="49.62" y="-206.4" font-family="SourceSans" font-size="8.00">svg::make_line_graph</text>
</a>
</g>
</g>
<!-- Node2 -->
<g id="Node000002" class="node">
<title>Node2</title>
<g id="a_Node000002"><a xlink:href="group__elements.html#ada0333b46b2547c6152f3f5811016a12" target="_top" xlink:title=" ">
<polygon fill="white" stroke="#666666" points="523.38,-636 432.38,-636 432.38,-604 523.38,-604 523.38,-636"/>
<text text-anchor="start" x="440.38" y="-624.4" font-family="SourceSans" font-size="8.00">svg::element_base::</text>
<text text-anchor="middle" x="477.88" y="-612.4" font-family="SourceSans" font-size="8.00">add_element</text>
</a>
</g>
</g>
<!-- Node1&#45;&gt;Node2 -->
<g id="edge1_Node000001_Node000002" class="edge">
<title>Node1&#45;&gt;Node2</title>
<g id="a_edge1_Node000001_Node000002"><a xlink:title=" ">
<path fill="none" stroke="#63b8ff" d="M52.13,-218.46C57.68,-254.1 79.61,-373.01 135.25,-452 181.4,-517.51 204.38,-528.56 275.75,-565 321.87,-588.55 379.25,-602.96 420.9,-611.08"/>
<polygon fill="#63b8ff" stroke="#63b8ff" points="420.25,-614.52 430.72,-612.93 421.54,-607.64 420.25,-614.52"/>
</a>
</g>
</g>
<!-- Node4 -->
<g id="Node000004" class="node">
<title>Node4</title>
<g id="a_Node000004"><a xlink:href="group__elements.html#acafbdd950c6c2639c9d376c3eab696e5" target="_top" xlink:title=" ">
<polygon fill="white" stroke="#666666" points="667.62,-528 576.62,-528 576.62,-496 667.62,-496 667.62,-528"/>
<text text-anchor="start" x="584.62" y="-516.4" font-family="SourceSans" font-size="8.00">svg::element_base::</text>
<text text-anchor="middle" x="622.12" y="-504.4" font-family="SourceSans" font-size="8.00">add_raw</text>
</a>
</g>
</g>
<!-- Node1&#45;&gt;Node4 -->
<g id="edge3_Node000001_Node000004" class="edge">
<title>Node1&#45;&gt;Node4</title>
<g id="a_edge3_Node000001_Node000004"><a xlink:title=" ">
<path fill="none" stroke="#63b8ff" d="M54.15,-218.18C63.36,-243.27 90.57,-308.53 135.25,-343 208.26,-399.33 452.44,-414.45 534.25,-457 552.73,-466.61 552.78,-475.66 570.25,-487 571.84,-488.03 573.48,-489.05 575.15,-490.05"/>
<polygon fill="#63b8ff" stroke="#63b8ff" points="573.2,-492.97 583.63,-494.82 576.63,-486.87 573.2,-492.97"/>
</a>
</g>
</g>
<!-- Node5 -->
<g id="Node000005" class="node">
<title>Node5</title>
<g id="a_Node000005"><a xlink:href="group__elements.html#a71cf2eb89a562527f14c4ca4c027c2b9" target="_top" xlink:title=" ">
<polygon fill="white" stroke="#666666" points="233.38,-246 141.62,-246 141.62,-214 233.38,-214 233.38,-246"/>
<text text-anchor="start" x="149.62" y="-234.4" font-family="SourceSans" font-size="8.00">svg::group_element</text>
<text text-anchor="middle" x="187.5" y="-222.4" font-family="SourceSans" font-size="8.00">::finish_group</text>
</a>
</g>
</g>
<!-- Node1&#45;&gt;Node5 -->
<g id="edge4_Node000001_Node000005" class="edge">
<title>Node1&#45;&gt;Node5</title>
<g id="a_edge4_Node000001_Node000005"><a xlink:title=" ">
<path fill="none" stroke="#63b8ff" d="M99.68,-215.94C109.51,-217.53 119.91,-219.22 129.97,-220.85"/>
<polygon fill="#63b8ff" stroke="#63b8ff" points="129.21,-224.27 139.64,-222.41 130.33,-217.36 129.21,-224.27"/>
</a>
</g>
</g>
<!-- Node6 -->
<g id="Node000006" class="node">
<title>Node6</title>
<g id="a_Node000006"><a xlink:href="structsvg_1_1render__state__base.html#aa16790fbf40ef61f416151c89c267ef3" target="_top" xlink:title=" ">
<polygon fill="white" stroke="#666666" points="382.12,-96 279.12,-96 279.12,-64 382.12,-64 382.12,-96"/>
<text text-anchor="start" x="287.12" y="-84.4" font-family="SourceSans" font-size="8.00">svg::render_state_base</text>
<text text-anchor="middle" x="330.62" y="-72.4" font-family="SourceSans" font-size="8.00">::is_visible</text>
</a>
</g>
</g>
<!-- Node1&#45;&gt;Node6 -->
<g id="edge5_Node000001_Node000006" class="edge">
<title>Node1&#45;&gt;Node6</title>
<g id="a_edge5_Node000001_Node000006"><a xlink:title=" ">
<path fill="none" stroke="#63b8ff" d="M64.4,-218.5C98.07,-242.78 185.68,-297.63 239.75,-255 293.59,-212.55 232.32,-158.05 275.75,-105 276.08,-104.59 276.43,-104.19 276.78,-103.79"/>
<polygon fill="#63b8ff" stroke="#63b8ff" points="278.85,-106.63 283.99,-97.37 274.19,-101.41 278.85,-106.63"/>
</a>
</g>
</g>
<!-- Node7 -->
<g id="Node000007" class="node">
<title>Node7</title>
<g id="a_Node000007"><a xlink:href="a60-svg-graphs-line_8h.html#ad5c74ee03d68d9c96bb3e92944483fb6" target="_top" xlink:title="Polyline/line creation options. 1: use one line with css dasharray and markers mid,...">
<polygon fill="white" stroke="#666666" points="223.62,-196 151.38,-196 151.38,-176 223.62,-176 223.62,-196"/>
<text text-anchor="middle" x="187.5" y="-184.4" font-family="SourceSans" font-size="8.00">line_1_polyline</text>
</a>
</g>
</g>
<!-- Node1&#45;&gt;Node7 -->
<g id="edge6_Node000001_Node000007" class="edge">
<title>Node1&#45;&gt;Node7</title>
<g id="a_edge6_Node000001_Node000007"><a xlink:title=" ">
<path fill="none" stroke="#63b8ff" d="M99.68,-200.06C112.85,-197.93 127.05,-195.63 140.07,-193.52"/>
<polygon fill="#63b8ff" stroke="#63b8ff" points="140.35,-197.02 149.66,-191.96 139.23,-190.11 140.35,-197.02"/>
</a>
</g>
</g>
<!-- Node8 -->
<g id="Node000008" class="node">
<title>Node8</title>
<g id="a_Node000008"><a xlink:href="a60-svg-graphs-line_8h.html#a8846f4f633ceadf103a207abdf41a741" target="_top" xlink:title=" ">
<polygon fill="white" stroke="#666666" points="239.75,-158 135.25,-158 135.25,-138 239.75,-138 239.75,-158"/>
<text text-anchor="middle" x="187.5" y="-146.4" font-family="SourceSans" font-size="8.00">line_2_polyline_tooltips</text>
</a>
</g>
</g>
<!-- Node1&#45;&gt;Node8 -->
<g id="edge7_Node000001_Node000008" class="edge">
<title>Node1&#45;&gt;Node8</title>
<g id="a_edge7_Node000001_Node000008"><a xlink:title=" ">
<path fill="none" stroke="#63b8ff" d="M70.89,-197.5C87.88,-188.87 112.87,-176.54 135.25,-167 138.81,-165.48 142.53,-163.97 146.27,-162.49"/>
<polygon fill="#63b8ff" stroke="#63b8ff" points="147.27,-165.86 155.36,-159.01 144.77,-159.32 147.27,-165.86"/>
</a>
</g>
</g>
<!-- Node9 -->
<g id="Node000009" class="node">
<title>Node9</title>
<g id="a_Node000009"><a xlink:href="namespacesvg.html#a0e4e42755f8221387ede36824f675ac8" target="_top" xlink:title="Return set of paths corresponding to marker shapes with tooltips.">
<polygon fill="white" stroke="#666666" points="237.12,-334 137.88,-334 137.88,-302 237.12,-302 237.12,-334"/>
<text text-anchor="start" x="145.88" y="-322.4" font-family="SourceSans" font-size="8.00">svg::make_line_graph</text>
<text text-anchor="middle" x="187.5" y="-310.4" font-family="SourceSans" font-size="8.00">_markers_tips</text>
</a>
</g>
</g>
<!-- Node1&#45;&gt;Node9 -->
<g id="edge8_Node000001_Node000009" class="edge">
<title>Node1&#45;&gt;Node9</title>
<g id="a_edge8_Node000001_Node000009"><a xlink:title=" ">
<path fill="none" stroke="#63b8ff" d="M60.12,-218.39C75.13,-234.46 105.65,-265.8 135.25,-288 138.77,-290.64 142.54,-293.23 146.38,-295.72"/>
<polygon fill="#63b8ff" stroke="#63b8ff" points="144.32,-298.57 154.67,-300.86 148.01,-292.62 144.32,-298.57"/>
</a>
</g>
</g>
<!-- Node31 -->
<g id="Node000031" class="node">
<title>Node31</title>
<g id="a_Node000031"><a xlink:href="namespacesvg.html#ae3cd801991d2b329b8c49d8e9393ea6d" target="_top" xlink:title="Polyline primitive.">
<polygon fill="white" stroke="#666666" points="231.5,-120 143.5,-120 143.5,-100 231.5,-100 231.5,-120"/>
<text text-anchor="middle" x="187.5" y="-108.4" font-family="SourceSans" font-size="8.00">svg::make_polyline</text>
</a>
</g>
</g>
<!-- Node1&#45;&gt;Node31 -->
<g id="edge39_Node000001_Node000031" class="edge">
<title>Node1&#45;&gt;Node31</title>
<g id="a_edge39_Node000001_Node000031"><a xlink:title=" ">
<path fill="none" stroke="#63b8ff" d="M59.24,-197.65C73.51,-181.09 103.61,-148.53 135.25,-129 137.5,-127.61 139.86,-126.3 142.29,-125.07"/>
<polygon fill="#63b8ff" stroke="#63b8ff" points="143.48,-128.37 151.14,-121.05 140.59,-122 143.48,-128.37"/>
</a>
</g>
</g>
<!-- Node32 -->
<g id="Node000032" class="node">
<title>Node32</title>
<g id="a_Node000032"><a xlink:href="namespacesvg.html#a2e5178befe99e2a7d5ede3c02088055f" target="_top" xlink:title="Scale value from min to max on range (nfloor, nceil).">
<polygon fill="white" stroke="#666666" points="232.25,-82 142.75,-82 142.75,-50 232.25,-50 232.25,-82"/>
<text text-anchor="start" x="150.75" y="-70.4" font-family="SourceSans" font-size="8.00">svg::scale_value_on</text>
<text text-anchor="middle" x="187.5" y="-58.4" font-family="SourceSans" font-size="8.00">_range</text>
</a>
</g>
</g>
<!-- Node1&#45;&gt;Node32 -->
<g id="edge40_Node000001_Node000032" class="edge">
<title>Node1&#45;&gt;Node32</title>
<g id="a_edge40_Node000001_Node000032"><a xlink:title=" ">
<path fill="none" stroke="#63b8ff" d="M55.84,-197.62C67.41,-175.47 97.26,-122.95 135.25,-91 136.18,-90.22 137.13,-89.46 138.12,-88.71"/>
<polygon fill="#63b8ff" stroke="#63b8ff" points="139.82,-91.78 146.19,-83.32 135.93,-85.96 139.82,-91.78"/>
</a>
</g>
</g>
<!-- Node33 -->
<g id="Node000033" class="node">
<title>Node33</title>
<g id="a_Node000033"><a xlink:href="group__elements.html#a9b6e3d5d06ec76dc07afff3261e32487" target="_top" xlink:title=" ">
<polygon fill="white" stroke="#666666" points="233.38,-32 141.62,-32 141.62,0 233.38,0 233.38,-32"/>
<text text-anchor="start" x="149.62" y="-20.4" font-family="SourceSans" font-size="8.00">svg::group_element</text>
<text text-anchor="middle" x="187.5" y="-8.4" font-family="SourceSans" font-size="8.00">::start_group</text>
</a>
</g>
</g>
<!-- Node1&#45;&gt;Node33 -->
<g id="edge41_Node000001_Node000033" class="edge">
<title>Node1&#45;&gt;Node33</title>
<g id="a_edge41_Node000001_Node000033"><a xlink:title=" ">
<path fill="none" stroke="#63b8ff" d="M53.35,-197.59C61.32,-169.04 87.08,-88.44 135.25,-41 135.86,-40.4 136.48,-39.81 137.12,-39.24"/>
<polygon fill="#63b8ff" stroke="#63b8ff" points="139.08,-42.14 144.96,-33.33 134.87,-36.56 139.08,-42.14"/>
</a>
</g>
</g>
<!-- Node3 -->
<g id="Node000003" class="node">
<title>Node3</title>
<g id="a_Node000003"><a xlink:href="group__elements.html#ad893ef9c13a15464c96d8a85c08af30f" target="_top" xlink:title=" ">
<polygon fill="white" stroke="#666666" points="672.5,-608 571.75,-608 571.75,-588 672.5,-588 672.5,-608"/>
<text text-anchor="middle" x="622.12" y="-596.4" font-family="SourceSans" font-size="8.00">svg::element_base::str</text>
</a>
</g>
</g>
<!-- Node2&#45;&gt;Node3 -->
<g id="edge2_Node000002_Node000003" class="edge">
<title>Node2&#45;&gt;Node3</title>
<g id="a_edge2_Node000002_Node000003"><a xlink:title=" ">
<path fill="none" stroke="#63b8ff" d="M523.49,-613.1C535.16,-611.3 547.93,-609.32 560.29,-607.41"/>
<polygon fill="#63b8ff" stroke="#63b8ff" points="560.63,-610.9 569.97,-605.91 559.56,-603.98 560.63,-610.9"/>
</a>
</g>
</g>
<!-- Node9&#45;&gt;Node3 -->
<g id="edge38_Node000009_Node000003" class="edge">
<title>Node9&#45;&gt;Node3</title>
<g id="a_edge38_Node000009_Node000003"><a xlink:title=" ">
<path fill="none" stroke="#63b8ff" d="M190,-334.48C194.62,-375.04 212.43,-480.14 275.75,-532 318.41,-566.94 472.83,-585.43 560.05,-593.29"/>
<polygon fill="#63b8ff" stroke="#63b8ff" points="559.6,-596.77 569.86,-594.15 560.21,-589.79 559.6,-596.77"/>
</a>
</g>
</g>
<!-- Node9&#45;&gt;Node4 -->
<g id="edge14_Node000009_Node000004" class="edge">
<title>Node9&#45;&gt;Node4</title>
<g id="a_edge14_Node000009_Node000004"><a xlink:title=" ">
<path fill="none" stroke="#63b8ff" d="M216.83,-334.4C233.55,-343.53 255.36,-354.53 275.75,-362 331.22,-382.32 486.99,-388.55 534.25,-424 560.05,-443.35 546.75,-464.92 570.25,-487 570.99,-487.69 571.75,-488.37 572.53,-489.03"/>
<polygon fill="#63b8ff" stroke="#63b8ff" points="570.13,-491.62 580.28,-494.66 574.25,-485.95 570.13,-491.62"/>
</a>
</g>
</g>
<!-- Node9&#45;&gt;Node6 -->
<g id="edge21_Node000009_Node000006" class="edge">
<title>Node9&#45;&gt;Node6</title>
<g id="a_edge21_Node000009_Node000006"><a xlink:title=" ">
<path fill="none" stroke="#63b8ff" d="M225.55,-301.58C230.97,-297.8 235.99,-293.29 239.75,-288 287.76,-220.43 224.58,-170.21 275.75,-105 275.99,-104.7 276.23,-104.4 276.48,-104.1"/>
<polygon fill="#63b8ff" stroke="#63b8ff" points="278.68,-106.83 283.61,-97.46 273.91,-101.71 278.68,-106.83"/>
</a>
</g>
</g>
<!-- Node10 -->
<g id="Node000010" class="node">
<title>Node10</title>
<g id="a_Node000010"><a xlink:href="group__elements.html#a519382631540ecedee961bfb53e9ae87" target="_top" xlink:title=" ">
<polygon fill="white" stroke="#666666" points="374.62,-334 286.62,-334 286.62,-302 374.62,-302 374.62,-334"/>
<text text-anchor="start" x="294.62" y="-322.4" font-family="SourceSans" font-size="8.00">svg::circle_element</text>
<text text-anchor="middle" x="330.62" y="-310.4" font-family="SourceSans" font-size="8.00">::add_data</text>
</a>
</g>
</g>
<!-- Node9&#45;&gt;Node10 -->
<g id="edge9_Node000009_Node000010" class="edge">
<title>Node9&#45;&gt;Node10</title>
<g id="a_edge9_Node000009_Node000010"><a xlink:title=" ">
<path fill="none" stroke="#63b8ff" d="M237.46,-318C249.65,-318 262.79,-318 275.23,-318"/>
<polygon fill="#63b8ff" stroke="#63b8ff" points="274.89,-321.5 284.89,-318 274.89,-314.5 274.89,-321.5"/>
</a>
</g>
</g>
<!-- Node13 -->
<g id="Node000013" class="node">
<title>Node13</title>
<g id="a_Node000013"><a xlink:href="group__elements.html#a1dd6663d882fb5dd14a47462a77f351b" target="_top" xlink:title="Either serialize immediately (as below), or create data structure that adds data to data_vec and then...">
<polygon fill="white" stroke="#666666" points="374.25,-284 287,-284 287,-252 374.25,-252 374.25,-284"/>
<text text-anchor="start" x="295" y="-272.4" font-family="SourceSans" font-size="8.00">svg::rect_element::</text>
<text text-anchor="middle" x="330.62" y="-260.4" font-family="SourceSans" font-size="8.00">add_data</text>
</a>
</g>
</g>
<!-- Node9&#45;&gt;Node13 -->
<g id="edge12_Node000009_Node000013" class="edge">
<title>Node9&#45;&gt;Node13</title>
<g id="a_edge12_Node000009_Node000013"><a xlink:title=" ">
<path fill="none" stroke="#63b8ff" d="M234.71,-301.63C247.9,-296.95 262.39,-291.82 275.99,-287"/>
<polygon fill="#63b8ff" stroke="#63b8ff" points="276.98,-290.37 285.23,-283.73 274.64,-283.77 276.98,-290.37"/>
</a>
</g>
</g>
<!-- Node14 -->
<g id="Node000014" class="node">
<title>Node14</title>
<g id="a_Node000014"><a xlink:href="group__elements.html#a238b38ca99a1cf6c2baf80c8e4338d99" target="_top" xlink:title=" ">
<polygon fill="white" stroke="#666666" points="667.62,-478 576.62,-478 576.62,-446 667.62,-446 667.62,-478"/>
<text text-anchor="start" x="584.62" y="-466.4" font-family="SourceSans" font-size="8.00">svg::element_base::</text>
<text text-anchor="middle" x="622.12" y="-454.4" font-family="SourceSans" font-size="8.00">add_style</text>
</a>
</g>
</g>
<!-- Node9&#45;&gt;Node14 -->
<g id="edge15_Node000009_Node000014" class="edge">
<title>Node9&#45;&gt;Node14</title>
<g id="a_edge15_Node000009_Node000014"><a xlink:title=" ">
<path fill="none" stroke="#63b8ff" d="M237.62,-333.14C249.99,-336.66 263.3,-340.19 275.75,-343 389.36,-368.64 433.79,-327.08 534.25,-386 556.34,-398.96 551.02,-414.08 570.25,-431 573.56,-433.91 577.18,-436.72 580.92,-439.37"/>
<polygon fill="#63b8ff" stroke="#63b8ff" points="578.8,-442.16 589.06,-444.77 582.67,-436.33 578.8,-442.16"/>
</a>
</g>
</g>
<!-- Node16 -->
<g id="Node000016" class="node">
<title>Node16</title>
<g id="a_Node000016"><a xlink:href="group__elements.html#a7995b78d94e1c299065c9dd3569fef7c" target="_top" xlink:title=" ">
<polygon fill="white" stroke="#666666" points="376.12,-523 285.12,-523 285.12,-491 376.12,-491 376.12,-523"/>
<text text-anchor="start" x="293.12" y="-511.4" font-family="SourceSans" font-size="8.00">svg::element_base::</text>
<text text-anchor="middle" x="330.62" y="-499.4" font-family="SourceSans" font-size="8.00">add_title</text>
</a>
</g>
</g>
<!-- Node9&#45;&gt;Node16 -->
<g id="edge17_Node000009_Node000016" class="edge">
<title>Node9&#45;&gt;Node16</title>
<g id="a_edge17_Node000009_Node000016"><a xlink:title=" ">
<path fill="none" stroke="#63b8ff" d="M200.78,-334.44C225.44,-367.48 281.17,-442.11 310.6,-481.52"/>
<polygon fill="#63b8ff" stroke="#63b8ff" points="307.78,-483.6 316.57,-489.52 313.39,-479.41 307.78,-483.6"/>
</a>
</g>
</g>
<!-- Node19 -->
<g id="Node000019" class="node">
<title>Node19</title>
<g id="a_Node000019"><a xlink:href="namespacesvg.html#a5c3daa77c4f641f5ac5fd9d31a8c15d3" target="_top" xlink:title="Center a triangle at this point.">
<polygon fill="white" stroke="#666666" points="385.5,-234 275.75,-234 275.75,-214 385.5,-214 385.5,-234"/>
<text text-anchor="middle" x="330.62" y="-222.4" font-family="SourceSans" font-size="8.00">svg::make_path_triangle</text>
</a>
</g>
</g>
<!-- Node9&#45;&gt;Node19 -->
<g id="edge22_Node000009_Node000019" class="edge">
<title>Node9&#45;&gt;Node19</title>
<g id="a_edge22_Node000009_Node000019"><a xlink:title=" ">
<path fill="none" stroke="#63b8ff" d="M220.63,-301.64C227.26,-297.6 233.98,-292.99 239.75,-288 259.13,-271.25 254.87,-257.83 275.75,-243 277.54,-241.73 279.42,-240.54 281.37,-239.42"/>
<polygon fill="#63b8ff" stroke="#63b8ff" points="282.72,-242.65 290.13,-235.09 279.62,-236.38 282.72,-242.65"/>
</a>
</g>
</g>
<!-- Node29 -->
<g id="Node000029" class="node">
<title>Node29</title>
<g id="a_Node000029"><a xlink:href="group__elements.html#a793cb6b40b2aea335b11f14fd327cde8" target="_top" xlink:title=" ">
<polygon fill="white" stroke="#666666" points="374.62,-196 286.62,-196 286.62,-164 374.62,-164 374.62,-196"/>
<text text-anchor="start" x="294.62" y="-184.4" font-family="SourceSans" font-size="8.00">svg::circle_element</text>
<text text-anchor="middle" x="330.62" y="-172.4" font-family="SourceSans" font-size="8.00">::start_element</text>
</a>
</g>
</g>
<!-- Node9&#45;&gt;Node29 -->
<g id="edge36_Node000009_Node000029" class="edge">
<title>Node9&#45;&gt;Node29</title>
<g id="a_edge36_Node000009_Node000029"><a xlink:title=" ">
<path fill="none" stroke="#63b8ff" d="M223.56,-301.54C229.47,-297.69 235.17,-293.17 239.75,-288 266.42,-257.91 247.68,-233.79 275.75,-205 276.34,-204.39 276.96,-203.8 277.58,-203.21"/>
<polygon fill="#63b8ff" stroke="#63b8ff" points="279.5,-206.15 285.29,-197.28 275.23,-200.6 279.5,-206.15"/>
</a>
</g>
</g>
<!-- Node30 -->
<g id="Node000030" class="node">
<title>Node30</title>
<g id="a_Node000030"><a xlink:href="group__elements.html#a1e0ed5e9dfe1244317a87d7e6774348b" target="_top" xlink:title=" ">
<polygon fill="white" stroke="#666666" points="374.25,-146 287,-146 287,-114 374.25,-114 374.25,-146"/>
<text text-anchor="start" x="295" y="-134.4" font-family="SourceSans" font-size="8.00">svg::rect_element::</text>
<text text-anchor="middle" x="330.62" y="-122.4" font-family="SourceSans" font-size="8.00">start_element</text>
</a>
</g>
</g>
<!-- Node9&#45;&gt;Node30 -->
<g id="edge37_Node000009_Node000030" class="edge">
<title>Node9&#45;&gt;Node30</title>
<g id="a_edge37_Node000009_Node000030"><a xlink:title=" ">
<path fill="none" stroke="#63b8ff" d="M224.98,-301.53C230.54,-297.74 235.74,-293.24 239.75,-288 276.95,-239.35 236.28,-201.82 275.75,-155 276.42,-154.21 277.12,-153.44 277.84,-152.69"/>
<polygon fill="#63b8ff" stroke="#63b8ff" points="279.85,-155.57 285.35,-146.51 275.4,-150.17 279.85,-155.57"/>
</a>
</g>
</g>
<!-- Node11 -->
<g id="Node000011" class="node">
<title>Node11</title>
<g id="a_Node000011"><a xlink:href="group__elements.html#a53d72a7ff728ad1d4d027254530bcf3d" target="_top" xlink:title="Common transforms include rotate(180)">
<polygon fill="white" stroke="#666666" points="523.38,-252 432.38,-252 432.38,-220 523.38,-220 523.38,-252"/>
<text text-anchor="start" x="440.38" y="-240.4" font-family="SourceSans" font-size="8.00">svg::element_base::</text>
<text text-anchor="middle" x="477.88" y="-228.4" font-family="SourceSans" font-size="8.00">add_transform</text>
</a>
</g>
</g>
<!-- Node10&#45;&gt;Node11 -->
<g id="edge10_Node000010_Node000011" class="edge">
<title>Node10&#45;&gt;Node11</title>
<g id="a_edge10_Node000010_Node000011"><a xlink:title=" ">
<path fill="none" stroke="#63b8ff" d="M369.53,-301.63C374.99,-298.93 380.46,-296.02 385.5,-293 402.66,-282.73 404.66,-276.79 421.5,-266 425.76,-263.27 430.28,-260.55 434.84,-257.92"/>
<polygon fill="#63b8ff" stroke="#63b8ff" points="436.45,-261.03 443.47,-253.09 433.03,-254.92 436.45,-261.03"/>
</a>
</g>
</g>
<!-- Node12 -->
<g id="Node000012" class="node">
<title>Node12</title>
<g id="a_Node000012"><a xlink:href="namespacesvg.html#a48ac748e89e22789d1772326a98dd7b6" target="_top" xlink:title=" ">
<polygon fill="white" stroke="#666666" points="797.25,-240 710,-240 710,-220 797.25,-220 797.25,-240"/>
<text text-anchor="middle" x="753.62" y="-228.4" font-family="SourceSans" font-size="8.00">svg::string_replace</text>
</a>
</g>
</g>
<!-- Node10&#45;&gt;Node12 -->
<g id="edge11_Node000010_Node000012" class="edge">
<title>Node10&#45;&gt;Node12</title>
<g id="a_edge11_Node000010_Node000012"><a xlink:title=" ">
<path fill="none" stroke="#63b8ff" d="M374.88,-306.47C416.03,-295.35 479.58,-277.79 534.25,-261 550.37,-256.05 553.76,-252.56 570.25,-249 612.79,-239.81 661.9,-235.02 698.44,-232.55"/>
<polygon fill="#63b8ff" stroke="#63b8ff" points="698.56,-236.04 708.32,-231.92 698.12,-229.06 698.56,-236.04"/>
</a>
</g>
</g>
<!-- Node13&#45;&gt;Node12 -->
<g id="edge13_Node000013_Node000012" class="edge">
<title>Node13&#45;&gt;Node12</title>
<g id="a_edge13_Node000013_Node000012"><a xlink:title=" ">
<path fill="none" stroke="#63b8ff" d="M370.62,-251.57C375.76,-248.93 380.84,-246.05 385.5,-243 403.4,-231.26 401.49,-218.61 421.5,-211 518.73,-174.03 643.63,-198.7 708.73,-216.42"/>
<polygon fill="#63b8ff" stroke="#63b8ff" points="707.76,-219.79 718.33,-219.12 709.65,-213.05 707.76,-219.79"/>
</a>
</g>
</g>
<!-- Node15 -->
<g id="Node000015" class="node">
<title>Node15</title>
<g id="a_Node000015"><a xlink:href="namespacesvg.html#a36b1c48ad4601b205790e3772ad0a7b6" target="_top" xlink:title=" ">
<polygon fill="white" stroke="#666666" points="787.12,-450 720.12,-450 720.12,-430 787.12,-430 787.12,-450"/>
<text text-anchor="middle" x="753.62" y="-438.4" font-family="SourceSans" font-size="8.00">svg::to_string</text>
</a>
</g>
</g>
<!-- Node14&#45;&gt;Node15 -->
<g id="edge16_Node000014_Node000015" class="edge">
<title>Node14&#45;&gt;Node15</title>
<g id="a_edge16_Node000014_Node000015"><a xlink:title=" ">
<path fill="none" stroke="#63b8ff" d="M668.05,-454.37C681.28,-452.12 695.72,-449.67 708.86,-447.43"/>
<polygon fill="#63b8ff" stroke="#63b8ff" points="709.26,-450.92 718.53,-445.79 708.08,-444.02 709.26,-450.92"/>
</a>
</g>
</g>
<!-- Node16&#45;&gt;Node2 -->
<g id="edge18_Node000016_Node000002" class="edge">
<title>Node16&#45;&gt;Node2</title>
<g id="a_edge18_Node000016_Node000002"><a xlink:title=" ">
<path fill="none" stroke="#63b8ff" d="M352.75,-523.43C377.49,-542.68 418.66,-574.71 446.75,-596.56"/>
<polygon fill="#63b8ff" stroke="#63b8ff" points="444.49,-599.24 454.53,-602.62 448.79,-593.72 444.49,-599.24"/>
</a>
</g>
</g>
<!-- Node17 -->
<g id="Node000017" class="node">
<title>Node17</title>
<g id="a_Node000017"><a xlink:href="group__elements.html#ga3d62381f8edcccd3d91f82af55f11274" target="_top" xlink:title=" ">
<polygon fill="white" stroke="#666666" points="519.62,-548 436.12,-548 436.12,-516 519.62,-516 519.62,-548"/>
<text text-anchor="start" x="444.12" y="-536.4" font-family="SourceSans" font-size="8.00">svg::title_element</text>
<text text-anchor="middle" x="477.88" y="-524.4" font-family="SourceSans" font-size="8.00">::finish_element</text>
</a>
</g>
</g>
<!-- Node16&#45;&gt;Node17 -->
<g id="edge19_Node000016_Node000017" class="edge">
<title>Node16&#45;&gt;Node17</title>
<g id="a_edge19_Node000016_Node000017"><a xlink:title=" ">
<path fill="none" stroke="#63b8ff" d="M376.39,-514.7C391.68,-517.34 408.92,-520.3 424.74,-523.03"/>
<polygon fill="#63b8ff" stroke="#63b8ff" points="424.02,-526.45 434.47,-524.7 425.21,-519.56 424.02,-526.45"/>
</a>
</g>
</g>
<!-- Node18 -->
<g id="Node000018" class="node">
<title>Node18</title>
<g id="a_Node000018"><a xlink:href="group__elements.html#a41dcaa1132c502cb86c01aae1e7b9ff2" target="_top" xlink:title=" ">
<polygon fill="white" stroke="#666666" points="519.62,-498 436.12,-498 436.12,-466 519.62,-466 519.62,-498"/>
<text text-anchor="start" x="444.12" y="-486.4" font-family="SourceSans" font-size="8.00">svg::title_element</text>
<text text-anchor="middle" x="477.88" y="-474.4" font-family="SourceSans" font-size="8.00">::start_element</text>
</a>
</g>
</g>
<!-- Node16&#45;&gt;Node18 -->
<g id="edge20_Node000016_Node000018" class="edge">
<title>Node16&#45;&gt;Node18</title>
<g id="a_edge20_Node000016_Node000018"><a xlink:title=" ">
<path fill="none" stroke="#63b8ff" d="M376.39,-499.3C391.68,-496.66 408.92,-493.7 424.74,-490.97"/>
<polygon fill="#63b8ff" stroke="#63b8ff" points="425.21,-494.44 434.47,-489.3 424.02,-487.55 425.21,-494.44"/>
</a>
</g>
</g>
<!-- Node20 -->
<g id="Node000020" class="node">
<title>Node20</title>
<g id="a_Node000020"><a xlink:href="namespacesvg.html#ab44508c4aeca591141ebec50145b75cd" target="_top" xlink:title="Angle in degrees.">
<polygon fill="white" stroke="#666666" points="529.75,-164 426,-164 426,-132 529.75,-132 529.75,-164"/>
<text text-anchor="start" x="434" y="-152.4" font-family="SourceSans" font-size="8.00">svg::get_circumference</text>
<text text-anchor="middle" x="477.88" y="-140.4" font-family="SourceSans" font-size="8.00">_point_d</text>
</a>
</g>
</g>
<!-- Node19&#45;&gt;Node20 -->
<g id="edge23_Node000019_Node000020" class="edge">
<title>Node19&#45;&gt;Node20</title>
<g id="a_edge23_Node000019_Node000020"><a xlink:title=" ">
<path fill="none" stroke="#63b8ff" d="M366.21,-213.56C372.77,-211.1 379.47,-208.23 385.5,-205 403.13,-195.56 404.66,-188.79 421.5,-178 425.76,-175.27 430.28,-172.55 434.84,-169.92"/>
<polygon fill="#63b8ff" stroke="#63b8ff" points="436.45,-173.03 443.47,-165.09 433.03,-166.92 436.45,-173.03"/>
</a>
</g>
</g>
<!-- Node22 -->
<g id="Node000022" class="node">
<title>Node22</title>
<g id="a_Node000022"><a xlink:href="namespacesvg.html#a8b2e7da5235688e0f753d35fc1079c87" target="_top" xlink:title="Draw path given serialized path data. Assumes pinstripe, ie top and bottom line layers....">
<polygon fill="white" stroke="#666666" points="515.88,-334 439.88,-334 439.88,-314 515.88,-314 515.88,-334"/>
<text text-anchor="middle" x="477.88" y="-322.4" font-family="SourceSans" font-size="8.00">svg::make_path</text>
</a>
</g>
</g>
<!-- Node19&#45;&gt;Node22 -->
<g id="edge25_Node000019_Node000022" class="edge">
<title>Node19&#45;&gt;Node22</title>
<g id="a_edge25_Node000019_Node000022"><a xlink:title=" ">
<path fill="none" stroke="#63b8ff" d="M367.57,-234.48C373.74,-236.89 379.94,-239.73 385.5,-243 414.7,-260.19 443.06,-287.5 460.24,-305.58"/>
<polygon fill="#63b8ff" stroke="#63b8ff" points="457.33,-307.59 466.71,-312.52 462.46,-302.82 457.33,-307.59"/>
</a>
</g>
</g>
<!-- Node26 -->
<g id="Node000026" class="node">
<title>Node26</title>
<g id="a_Node000026"><a xlink:href="namespacesvg.html#a2c65de7707b8b7b1bca959a3a2bbba91" target="_top" xlink:title="Make single path segment.">
<polygon fill="white" stroke="#666666" points="526.38,-114 429.38,-114 429.38,-82 526.38,-82 526.38,-114"/>
<text text-anchor="start" x="437.38" y="-102.4" font-family="SourceSans" font-size="8.00">svg::make_path_data</text>
<text text-anchor="middle" x="477.88" y="-90.4" font-family="SourceSans" font-size="8.00">_from_points</text>
</a>
</g>
</g>
<!-- Node19&#45;&gt;Node26 -->
<g id="edge33_Node000019_Node000026" class="edge">
<title>Node19&#45;&gt;Node26</title>
<g id="a_edge33_Node000019_Node000026"><a xlink:title=" ">
<path fill="none" stroke="#63b8ff" d="M372.8,-213.58C377.42,-211.26 381.79,-208.44 385.5,-205 414.67,-177.93 393.5,-151.29 421.5,-123 422.1,-122.4 422.71,-121.8 423.34,-121.23"/>
<polygon fill="#63b8ff" stroke="#63b8ff" points="425.24,-124.18 431.08,-115.34 421,-118.61 425.24,-124.18"/>
</a>
</g>
</g>
<!-- Node28 -->
<g id="Node000028" class="node">
<title>Node28</title>
<g id="a_Node000028"><a xlink:href="namespacesvg.html#a46164d75fd5109e4ed8879abbacd5c11" target="_top" xlink:title="Zero degrees is top, going clockwise (cw).">
<polygon fill="white" stroke="#666666" points="534.25,-64 421.5,-64 421.5,-44 534.25,-44 534.25,-64"/>
<text text-anchor="middle" x="477.88" y="-52.4" font-family="SourceSans" font-size="8.00">svg::zero_angle_north_cw</text>
</a>
</g>
</g>
<!-- Node19&#45;&gt;Node28 -->
<g id="edge35_Node000019_Node000028" class="edge">
<title>Node19&#45;&gt;Node28</title>
<g id="a_edge35_Node000019_Node000028"><a xlink:title=" ">
<path fill="none" stroke="#63b8ff" d="M374.37,-213.51C378.5,-211.21 382.33,-208.41 385.5,-205 426.91,-160.47 379.91,-117.36 421.5,-73 422.1,-72.36 422.72,-71.74 423.36,-71.15"/>
<polygon fill="#63b8ff" stroke="#63b8ff" points="425.34,-74.03 431.45,-65.37 421.27,-68.34 425.34,-74.03"/>
</a>
</g>
</g>
<!-- Node21 -->
<g id="Node000021" class="node">
<title>Node21</title>
<g id="a_Node000021"><a xlink:href="namespacesvg.html#aef05ac63d88a6102981d3faf37275297" target="_top" xlink:title="Angle in radians.">
<polygon fill="white" stroke="#666666" points="674,-164 570.25,-164 570.25,-132 674,-132 674,-164"/>
<text text-anchor="start" x="578.25" y="-152.4" font-family="SourceSans" font-size="8.00">svg::get_circumference</text>
<text text-anchor="middle" x="622.12" y="-140.4" font-family="SourceSans" font-size="8.00">_point_r</text>
</a>
</g>
</g>
<!-- Node20&#45;&gt;Node21 -->
<g id="edge24_Node000020_Node000021" class="edge">
<title>Node20&#45;&gt;Node21</title>
<g id="a_edge24_Node000020_Node000021"><a xlink:title=" ">
<path fill="none" stroke="#63b8ff" d="M530.23,-148C539.4,-148 549.04,-148 558.48,-148"/>
<polygon fill="#63b8ff" stroke="#63b8ff" points="558.33,-151.5 568.33,-148 558.33,-144.5 558.33,-151.5"/>
</a>
</g>
</g>
<!-- Node22&#45;&gt;Node4 -->
<g id="edge28_Node000022_Node000004" class="edge">
<title>Node22&#45;&gt;Node4</title>
<g id="a_edge28_Node000022_Node000004"><a xlink:title=" ">
<path fill="none" stroke="#63b8ff" d="M490.51,-334.38C502.84,-345.93 522.17,-365.65 534.25,-386 558.58,-426.98 538.53,-451.43 570.25,-487 570.7,-487.5 571.16,-488 571.64,-488.49"/>
<polygon fill="#63b8ff" stroke="#63b8ff" points="569.09,-490.92 579.01,-494.64 573.57,-485.55 569.09,-490.92"/>
</a>
</g>
</g>
<!-- Node22&#45;&gt;Node14 -->
<g id="edge29_Node000022_Node000014" class="edge">
<title>Node22&#45;&gt;Node14</title>
<g id="a_edge29_Node000022_Node000014"><a xlink:title=" ">
<path fill="none" stroke="#63b8ff" d="M513.88,-334.41C521.28,-337.83 528.56,-342.28 534.25,-348 562.91,-376.78 543.42,-401.5 570.25,-432 572.38,-434.42 574.75,-436.69 577.27,-438.83"/>
<polygon fill="#63b8ff" stroke="#63b8ff" points="574.97,-441.48 585.08,-444.62 579.14,-435.85 574.97,-441.48"/>
</a>
</g>
</g>
<!-- Node22&#45;&gt;Node15 -->
<g id="edge32_Node000022_Node000015" class="edge">
<title>Node22&#45;&gt;Node15</title>
<g id="a_edge32_Node000022_Node000015"><a xlink:title=" ">
<path fill="none" stroke="#63b8ff" d="M511.03,-334.43C519.11,-337.96 527.42,-342.45 534.25,-348 555.78,-365.5 547.17,-383.6 570.25,-399 611.8,-426.74 669.33,-435.94 708.59,-438.87"/>
<polygon fill="#63b8ff" stroke="#63b8ff" points="708.19,-442.35 718.39,-439.49 708.63,-435.37 708.19,-442.35"/>
</a>
</g>
</g>
<!-- Node23 -->
<g id="Node000023" class="node">
<title>Node23</title>
<g id="a_Node000023"><a xlink:href="group__elements.html#a807f3c30f2ace338ad10aaf230b47665" target="_top" xlink:title="Either serialize immediately (as below), or create data structure that adds data to data_vec and then...">
<polygon fill="white" stroke="#666666" points="667.62,-390 576.62,-390 576.62,-358 667.62,-358 667.62,-390"/>
<text text-anchor="start" x="584.62" y="-378.4" font-family="SourceSans" font-size="8.00">svg::path_element::</text>
<text text-anchor="middle" x="622.12" y="-366.4" font-family="SourceSans" font-size="8.00">add_data</text>
</a>
</g>
</g>
<!-- Node22&#45;&gt;Node23 -->
<g id="edge26_Node000022_Node000023" class="edge">
<title>Node22&#45;&gt;Node23</title>
<g id="a_edge26_Node000022_Node000023"><a xlink:title=" ">
<path fill="none" stroke="#63b8ff" d="M508.7,-334.48C525.12,-340.25 546.03,-347.61 565.36,-354.4"/>
<polygon fill="#63b8ff" stroke="#63b8ff" points="564.18,-357.69 574.77,-357.71 566.5,-351.09 564.18,-357.69"/>
</a>
</g>
</g>
<!-- Node24 -->
<g id="Node000024" class="node">
<title>Node24</title>
<g id="a_Node000024"><a xlink:href="group__elements.html#gaac30ae99fb1a2542688fa1ffb43cd8e1" target="_top" xlink:title=" ">
<polygon fill="white" stroke="#666666" points="667.62,-340 576.62,-340 576.62,-308 667.62,-308 667.62,-340"/>
<text text-anchor="start" x="584.62" y="-328.4" font-family="SourceSans" font-size="8.00">svg::path_element::</text>
<text text-anchor="middle" x="622.12" y="-316.4" font-family="SourceSans" font-size="8.00">finish_element</text>
</a>
</g>
</g>
<!-- Node22&#45;&gt;Node24 -->
<g id="edge30_Node000022_Node000024" class="edge">
<title>Node22&#45;&gt;Node24</title>
<g id="a_edge30_Node000022_Node000024"><a xlink:title=" ">
<path fill="none" stroke="#63b8ff" d="M516.25,-324C531.16,-324 548.66,-324 565.03,-324"/>
<polygon fill="#63b8ff" stroke="#63b8ff" points="564.64,-327.5 574.64,-324 564.64,-320.5 564.64,-327.5"/>
</a>
</g>
</g>
<!-- Node25 -->
<g id="Node000025" class="node">
<title>Node25</title>
<g id="a_Node000025"><a xlink:href="group__elements.html#a6dbca7cef2cbc0c10aa44c44ae20b36e" target="_top" xlink:title=" ">
<polygon fill="white" stroke="#666666" points="667.62,-290 576.62,-290 576.62,-258 667.62,-258 667.62,-290"/>
<text text-anchor="start" x="584.62" y="-278.4" font-family="SourceSans" font-size="8.00">svg::path_element::</text>
<text text-anchor="middle" x="622.12" y="-266.4" font-family="SourceSans" font-size="8.00">start_element</text>
</a>
</g>
</g>
<!-- Node22&#45;&gt;Node25 -->
<g id="edge31_Node000022_Node000025" class="edge">
<title>Node22&#45;&gt;Node25</title>
<g id="a_edge31_Node000022_Node000025"><a xlink:title=" ">
<path fill="none" stroke="#63b8ff" d="M508.7,-313.52C525.12,-307.75 546.03,-300.39 565.36,-293.6"/>
<polygon fill="#63b8ff" stroke="#63b8ff" points="566.5,-296.91 574.77,-290.29 564.18,-290.31 566.5,-296.91"/>
</a>
</g>
</g>
<!-- Node23&#45;&gt;Node12 -->
<g id="edge27_Node000023_Node000012" class="edge">
<title>Node23&#45;&gt;Node12</title>
<g id="a_edge27_Node000023_Node000012"><a xlink:title=" ">
<path fill="none" stroke="#63b8ff" d="M662.02,-357.65C666.28,-355.07 670.38,-352.19 674,-349 706.22,-320.64 730.86,-276.12 743.41,-250.33"/>
<polygon fill="#63b8ff" stroke="#63b8ff" points="746.43,-252.14 747.52,-241.6 740.09,-249.15 746.43,-252.14"/>
</a>
</g>
</g>
<!-- Node27 -->
<g id="Node000027" class="node">
<title>Node27</title>
<g id="a_Node000027"><a xlink:href="namespacesvg_1_1constants.html#ac460bc8db60d85c3ae1cf8b1a903405e" target="_top" xlink:title="Formatting character constants.">
<polygon fill="white" stroke="#666666" points="670.25,-108 574,-108 574,-88 670.25,-88 670.25,-108"/>
<text text-anchor="middle" x="622.12" y="-96.4" font-family="SourceSans" font-size="8.00">svg::constants::space</text>
</a>
</g>
</g>
<!-- Node26&#45;&gt;Node27 -->
<g id="edge34_Node000026_Node000027" class="edge">
<title>Node26&#45;&gt;Node27</title>
<g id="a_edge34_Node000026_Node000027"><a xlink:title=" ">
<path fill="none" stroke="#63b8ff" d="M526.64,-98C538.14,-98 550.55,-98 562.48,-98"/>
<polygon fill="#63b8ff" stroke="#63b8ff" points="562.22,-101.5 572.22,-98 562.22,-94.5 562.22,-101.5"/>
</a>
</g>
</g>
</g>
</svg>
