<?xml version="1.0" encoding="UTF-8" standalone="no"?>
<!DOCTYPE svg PUBLIC "-//W3C//DTD SVG 1.1//EN"
 "http://www.w3.org/Graphics/SVG/1.1/DTD/svg11.dtd">
<!-- Generated by graphviz version 12.2.1 (20241206.2353)
 -->
<!-- Title: svg::sized_text_r Pages: 1 -->
<svg width="482pt" height="365pt"
 viewBox="0.00 0.00 481.50 365.00" xmlns="http://www.w3.org/2000/svg" xmlns:xlink="http://www.w3.org/1999/xlink">
<g id="graph0" class="graph" transform="scale(1 1) rotate(0) translate(4 361)">
<title>svg::sized_text_r</title>
<!-- Node1 -->
<g id="Node000001" class="node">
<title>Node1</title>
<g id="a_Node000001"><a xlink:title="Text at size, with a transformation=rotation.">
<polygon fill="#999999" stroke="#666666" points="78.25,-114 0,-114 0,-94 78.25,-94 78.25,-114"/>
<text text-anchor="middle" x="39.12" y="-102.4" font-family="SourceSans" font-size="8.00">svg::sized_text_r</text>
</a>
</g>
</g>
<!-- Node2 -->
<g id="Node000002" class="node">
<title>Node2</title>
<g id="a_Node000002"><a xlink:href="group__elements.html#aad29e1daf75bdcd69a39575a6807fa0f" target="_top" xlink:title="Either serialize immediately (as below), or create data structure that adds data to data_vec and then...">
<polygon fill="white" stroke="#666666" points="207.12,-253 119.12,-253 119.12,-221 207.12,-221 207.12,-253"/>
<text text-anchor="start" x="127.12" y="-241.4" font-family="SourceSans" font-size="8.00">svg::text_element::</text>
<text text-anchor="middle" x="163.12" y="-229.4" font-family="SourceSans" font-size="8.00">add_data</text>
</a>
</g>
</g>
<!-- Node1&#45;&gt;Node2 -->
<g id="edge1_Node000001_Node000002" class="edge">
<title>Node1&#45;&gt;Node2</title>
<g id="a_edge1_Node000001_Node000002"><a xlink:title=" ">
<path fill="none" stroke="#63b8ff" d="M49.7,-114.44C68.84,-135.3 112.3,-182.68 139.23,-212.04"/>
<polygon fill="#63b8ff" stroke="#63b8ff" points="136.65,-214.41 145.99,-219.41 141.81,-209.67 136.65,-214.41"/>
</a>
</g>
</g>
<!-- Node9 -->
<g id="Node000009" class="node">
<title>Node9</title>
<g id="a_Node000009"><a xlink:href="group__elements.html#ada0333b46b2547c6152f3f5811016a12" target="_top" xlink:title=" ">
<polygon fill="white" stroke="#666666" points="208.62,-170 117.62,-170 117.62,-138 208.62,-138 208.62,-170"/>
<text text-anchor="start" x="125.62" y="-158.4" font-family="SourceSans" font-size="8.00">svg::element_base::</text>
<text text-anchor="middle" x="163.12" y="-146.4" font-family="SourceSans" font-size="8.00">add_element</text>
</a>
</g>
</g>
<!-- Node1&#45;&gt;Node9 -->
<g id="edge10_Node000001_Node000009" class="edge">
<title>Node1&#45;&gt;Node9</title>
<g id="a_edge10_Node000001_Node000009"><a xlink:title=" ">
<path fill="none" stroke="#63b8ff" d="M65.7,-114.48C79.11,-119.98 96.02,-126.91 111.92,-133.42"/>
<polygon fill="#63b8ff" stroke="#63b8ff" points="110.19,-136.5 120.77,-137.05 112.85,-130.02 110.19,-136.5"/>
</a>
</g>
</g>
<!-- Node11 -->
<g id="Node000011" class="node">
<title>Node11</title>
<g id="a_Node000011"><a xlink:href="group__elements.html#ga13c46848317034d16c62a7d2061ba3d6" target="_top" xlink:title=" ">
<polygon fill="white" stroke="#666666" points="207.12,-120 119.12,-120 119.12,-88 207.12,-88 207.12,-120"/>
<text text-anchor="start" x="127.12" y="-108.4" font-family="SourceSans" font-size="8.00">svg::text_element::</text>
<text text-anchor="middle" x="163.12" y="-96.4" font-family="SourceSans" font-size="8.00">finish_element</text>
</a>
</g>
</g>
<!-- Node1&#45;&gt;Node11 -->
<g id="edge12_Node000001_Node000011" class="edge">
<title>Node1&#45;&gt;Node11</title>
<g id="a_edge12_Node000001_Node000011"><a xlink:title=" ">
<path fill="none" stroke="#63b8ff" d="M78.73,-104C87.86,-104 97.77,-104 107.46,-104"/>
<polygon fill="#63b8ff" stroke="#63b8ff" points="107.17,-107.5 117.17,-104 107.17,-100.5 107.17,-107.5"/>
</a>
</g>
</g>
<!-- Node12 -->
<g id="Node000012" class="node">
<title>Node12</title>
<g id="a_Node000012"><a xlink:href="structsvg_1_1transform.html#acf9836f4ba647f0dd2b53963a0f714d0" target="_top" xlink:title=" ">
<polygon fill="white" stroke="#666666" points="212,-70 114.25,-70 114.25,-50 212,-50 212,-70"/>
<text text-anchor="middle" x="163.12" y="-58.4" font-family="SourceSans" font-size="8.00">svg::transform::rotate</text>
</a>
</g>
</g>
<!-- Node1&#45;&gt;Node12 -->
<g id="edge13_Node000001_Node000012" class="edge">
<title>Node1&#45;&gt;Node12</title>
<g id="a_edge13_Node000001_Node000012"><a xlink:title=" ">
<path fill="none" stroke="#63b8ff" d="M69.04,-93.57C85.14,-87.76 105.42,-80.45 122.93,-74.13"/>
<polygon fill="#63b8ff" stroke="#63b8ff" points="123.78,-77.55 132,-70.87 121.4,-70.97 123.78,-77.55"/>
</a>
</g>
</g>
<!-- Node13 -->
<g id="Node000013" class="node">
<title>Node13</title>
<g id="a_Node000013"><a xlink:href="group__elements.html#ae45bec611a6ec17ea46aab6d680ae042" target="_top" xlink:title=" ">
<polygon fill="white" stroke="#666666" points="207.12,-32 119.12,-32 119.12,0 207.12,0 207.12,-32"/>
<text text-anchor="start" x="127.12" y="-20.4" font-family="SourceSans" font-size="8.00">svg::text_element::</text>
<text text-anchor="middle" x="163.12" y="-8.4" font-family="SourceSans" font-size="8.00">start_element</text>
</a>
</g>
</g>
<!-- Node1&#45;&gt;Node13 -->
<g id="edge14_Node000001_Node000013" class="edge">
<title>Node1&#45;&gt;Node13</title>
<g id="a_edge14_Node000001_Node000013"><a xlink:title=" ">
<path fill="none" stroke="#63b8ff" d="M50.57,-93.8C64.39,-80.62 89.88,-57.42 114.25,-41 115.64,-40.07 117.06,-39.14 118.51,-38.23"/>
<polygon fill="#63b8ff" stroke="#63b8ff" points="120.21,-41.29 127.05,-33.19 116.66,-35.26 120.21,-41.29"/>
</a>
</g>
</g>
<!-- Node3 -->
<g id="Node000003" class="node">
<title>Node3</title>
<g id="a_Node000003"><a xlink:href="structsvg_1_1typography.html#adbc62f74f1fed3f7c77567250f084f83" target="_top" xlink:title=" ">
<polygon fill="white" stroke="#666666" points="346.5,-319 250.25,-319 250.25,-287 346.5,-287 346.5,-319"/>
<text text-anchor="start" x="258.25" y="-307.4" font-family="SourceSans" font-size="8.00">svg::typography::add</text>
<text text-anchor="middle" x="298.38" y="-295.4" font-family="SourceSans" font-size="8.00">_attribute</text>
</a>
</g>
</g>
<!-- Node2&#45;&gt;Node3 -->
<g id="edge2_Node000002_Node000003" class="edge">
<title>Node2&#45;&gt;Node3</title>
<g id="a_edge2_Node000002_Node000003"><a xlink:title=" ">
<path fill="none" stroke="#63b8ff" d="M197.41,-253.48C214.63,-262.01 235.85,-272.53 254.31,-281.67"/>
<polygon fill="#63b8ff" stroke="#63b8ff" points="252.65,-284.75 263.16,-286.05 255.75,-278.48 252.65,-284.75"/>
</a>
</g>
</g>
<!-- Node4 -->
<g id="Node000004" class="node">
<title>Node4</title>
<g id="a_Node000004"><a xlink:href="namespacesvg.html#a48ac748e89e22789d1772326a98dd7b6" target="_top" xlink:title=" ">
<polygon fill="white" stroke="#666666" points="472.75,-357 385.5,-357 385.5,-337 472.75,-337 472.75,-357"/>
<text text-anchor="middle" x="429.12" y="-345.4" font-family="SourceSans" font-size="8.00">svg::string_replace</text>
</a>
</g>
</g>
<!-- Node2&#45;&gt;Node4 -->
<g id="edge8_Node000002_Node000004" class="edge">
<title>Node2&#45;&gt;Node4</title>
<g id="a_edge8_Node000002_Node000004"><a xlink:title=" ">
<path fill="none" stroke="#63b8ff" d="M173.91,-253.5C187.54,-274.79 214.4,-311.12 248,-328 287.09,-347.64 336.88,-351.54 374.21,-351.02"/>
<polygon fill="#63b8ff" stroke="#63b8ff" points="373.95,-354.53 383.85,-350.76 373.76,-347.53 373.95,-354.53"/>
</a>
</g>
</g>
<!-- Node5 -->
<g id="Node000005" class="node">
<title>Node5</title>
<g id="a_Node000005"><a xlink:href="namespacesvg.html#a36b1c48ad4601b205790e3772ad0a7b6" target="_top" xlink:title=" ">
<polygon fill="white" stroke="#666666" points="462.62,-269 395.62,-269 395.62,-249 462.62,-249 462.62,-269"/>
<text text-anchor="middle" x="429.12" y="-257.4" font-family="SourceSans" font-size="8.00">svg::to_string</text>
</a>
</g>
</g>
<!-- Node2&#45;&gt;Node5 -->
<g id="edge9_Node000002_Node000005" class="edge">
<title>Node2&#45;&gt;Node5</title>
<g id="a_edge9_Node000002_Node000005"><a xlink:title=" ">
<path fill="none" stroke="#63b8ff" d="M207.42,-240.61C256.18,-244.67 334.98,-251.24 384.05,-255.33"/>
<polygon fill="#63b8ff" stroke="#63b8ff" points="383.48,-258.79 393.74,-256.13 384.06,-251.82 383.48,-258.79"/>
</a>
</g>
</g>
<!-- Node7 -->
<g id="Node000007" class="node">
<title>Node7</title>
<g id="a_Node000007"><a xlink:href="group__elements.html#a1ed006cabdb9c531c2bd8e27ea9e0966" target="_top" xlink:title=" ">
<polygon fill="white" stroke="#666666" points="342.38,-231 254.38,-231 254.38,-199 342.38,-199 342.38,-231"/>
<text text-anchor="start" x="262.38" y="-219.4" font-family="SourceSans" font-size="8.00">svg::text_element::</text>
<text text-anchor="middle" x="298.38" y="-207.4" font-family="SourceSans" font-size="8.00">add_text</text>
</a>
</g>
</g>
<!-- Node2&#45;&gt;Node7 -->
<g id="edge6_Node000002_Node000007" class="edge">
<title>Node2&#45;&gt;Node7</title>
<g id="a_edge6_Node000002_Node000007"><a xlink:title=" ">
<path fill="none" stroke="#63b8ff" d="M207.39,-229.86C218.79,-227.97 231.24,-225.92 243.14,-223.95"/>
<polygon fill="#63b8ff" stroke="#63b8ff" points="243.54,-227.44 252.84,-222.35 242.4,-220.53 243.54,-227.44"/>
</a>
</g>
</g>
<!-- Node8 -->
<g id="Node000008" class="node">
<title>Node8</title>
<g id="a_Node000008"><a xlink:href="group__elements.html#a53d72a7ff728ad1d4d027254530bcf3d" target="_top" xlink:title="Common transforms include rotate(180)">
<polygon fill="white" stroke="#666666" points="343.88,-181 252.88,-181 252.88,-149 343.88,-149 343.88,-181"/>
<text text-anchor="start" x="260.88" y="-169.4" font-family="SourceSans" font-size="8.00">svg::element_base::</text>
<text text-anchor="middle" x="298.38" y="-157.4" font-family="SourceSans" font-size="8.00">add_transform</text>
</a>
</g>
</g>
<!-- Node2&#45;&gt;Node8 -->
<g id="edge7_Node000002_Node000008" class="edge">
<title>Node2&#45;&gt;Node8</title>
<g id="a_edge7_Node000002_Node000008"><a xlink:title=" ">
<path fill="none" stroke="#63b8ff" d="M192.69,-220.6C208.83,-211.43 229.44,-199.89 248,-190 250.05,-188.91 252.16,-187.79 254.29,-186.68"/>
<polygon fill="#63b8ff" stroke="#63b8ff" points="255.72,-189.88 263,-182.18 252.51,-183.66 255.72,-189.88"/>
</a>
</g>
</g>
<!-- Node3&#45;&gt;Node4 -->
<g id="edge3_Node000003_Node000004" class="edge">
<title>Node3&#45;&gt;Node4</title>
<g id="a_edge3_Node000003_Node000004"><a xlink:title=" ">
<path fill="none" stroke="#63b8ff" d="M346.95,-319.26C360.03,-323.73 374.1,-328.54 386.79,-332.87"/>
<polygon fill="#63b8ff" stroke="#63b8ff" points="385.5,-336.13 396.1,-336.05 387.77,-329.51 385.5,-336.13"/>
</a>
</g>
</g>
<!-- Node3&#45;&gt;Node5 -->
<g id="edge4_Node000003_Node000005" class="edge">
<title>Node3&#45;&gt;Node5</title>
<g id="a_edge4_Node000003_Node000005"><a xlink:title=" ">
<path fill="none" stroke="#63b8ff" d="M346.95,-286.74C360.03,-282.27 374.1,-277.46 386.79,-273.13"/>
<polygon fill="#63b8ff" stroke="#63b8ff" points="387.77,-276.49 396.1,-269.95 385.5,-269.87 387.77,-276.49"/>
</a>
</g>
</g>
<!-- Node6 -->
<g id="Node000006" class="node">
<title>Node6</title>
<g id="a_Node000006"><a xlink:href="structsvg_1_1typography.html#a174c1ffb4e56214d71523ffe7e422561" target="_top" xlink:title=" ">
<polygon fill="white" stroke="#666666" points="473.5,-319 384.75,-319 384.75,-287 473.5,-287 473.5,-319"/>
<text text-anchor="start" x="392.75" y="-307.4" font-family="SourceSans" font-size="8.00">svg::typography::to</text>
<text text-anchor="middle" x="429.12" y="-295.4" font-family="SourceSans" font-size="8.00">_string</text>
</a>
</g>
</g>
<!-- Node3&#45;&gt;Node6 -->
<g id="edge5_Node000003_Node000006" class="edge">
<title>Node3&#45;&gt;Node6</title>
<g id="a_edge5_Node000003_Node000006"><a xlink:title=" ">
<path fill="none" stroke="#63b8ff" d="M346.95,-303C355.52,-303 364.51,-303 373.27,-303"/>
<polygon fill="#63b8ff" stroke="#63b8ff" points="373.06,-306.5 383.06,-303 373.06,-299.5 373.06,-306.5"/>
</a>
</g>
</g>
<!-- Node10 -->
<g id="Node000010" class="node">
<title>Node10</title>
<g id="a_Node000010"><a xlink:href="group__elements.html#ad893ef9c13a15464c96d8a85c08af30f" target="_top" xlink:title=" ">
<polygon fill="white" stroke="#666666" points="348.75,-131 248,-131 248,-111 348.75,-111 348.75,-131"/>
<text text-anchor="middle" x="298.38" y="-119.4" font-family="SourceSans" font-size="8.00">svg::element_base::str</text>
</a>
</g>
</g>
<!-- Node9&#45;&gt;Node10 -->
<g id="edge11_Node000009_Node000010" class="edge">
<title>Node9&#45;&gt;Node10</title>
<g id="a_edge11_Node000009_Node000010"><a xlink:title=" ">
<path fill="none" stroke="#63b8ff" d="M208.87,-142.92C220.21,-140.11 232.51,-137.06 244.22,-134.16"/>
<polygon fill="#63b8ff" stroke="#63b8ff" points="244.9,-137.6 253.76,-131.8 243.21,-130.81 244.9,-137.6"/>
</a>
</g>
</g>
</g>
</svg>
