<?xml version="1.0" encoding="UTF-8" standalone="no"?>
<!DOCTYPE svg PUBLIC "-//W3C//DTD SVG 1.1//EN"
 "http://www.w3.org/Graphics/SVG/1.1/DTD/svg11.dtd">
<!-- Generated by graphviz version 12.2.1 (20241206.2353)
 -->
<!-- Title: svg::make_path_triangle Pages: 1 -->
<!--zoomable 366 -->

<svg id="main" version="1.1" xmlns="http://www.w3.org/2000/svg" xmlns:xlink="http://www.w3.org/1999/xlink" xml:space="preserve" onload="init(evt)">

<style type="text/css"><![CDATA[
.node, .edge {opacity: 0.7;}
.node.selected, .edge.selected {opacity: 1;}
.edge:hover path { stroke: red; }
.edge:hover polygon { stroke: red; fill: red; }
]]></style>

<defs>
  <circle id="rim" cx="0" cy="0" r="7"/>
  <circle id="rim2" cx="0" cy="0" r="3.5"/>
  <g id="zoomPlus">
    <use xlink:href="#rim" fill="#404040"><set attributeName="fill" to="#808080" begin="zoomplus.mouseover" end="zoomplus.mouseout"/></use>
    <path d="M-4,0h8M0,-4v8" fill="none" stroke="white" stroke-width="1.5" pointer-events="none"/>
  </g>
  <g id="zoomMin">
    <use xlink:href="#rim" fill="#404040"><set attributeName="fill" to="#808080" begin="zoomminus.mouseover" end="zoomminus.mouseout"/></use>
    <path d="M-4,0h8" fill="none" stroke="white" stroke-width="1.5" pointer-events="none"/>
  </g>
  <g id="arrowUp" transform="translate(30 24)">
    <use xlink:href="#rim"/>
    <path pointer-events="none" fill="none" stroke="white" stroke-width="1.5" d="M0,-3.0v7 M-2.5,-0.5L0,-3.0L2.5,-0.5"/>
  </g>
  <g id="arrowRight" transform="rotate(90) translate(36 -43)">
    <use xlink:href="#rim"/>
    <path pointer-events="none" fill="none" stroke="white" stroke-width="1.5" d="M0,-3.0v7 M-2.5,-0.5L0,-3.0L2.5,-0.5"/>
  </g>
  <g id="arrowDown" transform="rotate(180) translate(-30 -48)">
    <use xlink:href="#rim"/>
    <path pointer-events="none" fill="none" stroke="white" stroke-width="1.5" d="M0,-3.0v7 M-2.5,-0.5L0,-3.0L2.5,-0.5"/>
  </g>
  <g id="arrowLeft" transform="rotate(270) translate(-36 17)">
    <use xlink:href="#rim"/>
    <path pointer-events="none" fill="none" stroke="white" stroke-width="1.5" d="M0,-3.0v7 M-2.5,-0.5L0,-3.0L2.5,-0.5"/>
  </g>
  <g id="resetDef">
    <use xlink:href="#rim2" fill="#404040"><set attributeName="fill" to="#808080" begin="reset.mouseover" end="reset.mouseout"/></use>
  </g>
</defs>
<script type="application/ecmascript">
var viewWidth = 530;
var viewHeight = 366;
var sectionId = 'dynsection-99';
</script>
<script type="application/ecmascript" xlink:href="svg.min.js"/>
<svg id="graph" class="graph">
<g id="viewport">
<title>svg::make_path_triangle</title>
<!-- Node1 -->
<g id="Node000001" class="node">
<title>Node1</title>
<g id="a_Node000001"><a xlink:title="Center a triangle at this point.">
<polygon fill="#999999" stroke="#666666" points="109.75,-158 0,-158 0,-138 109.75,-138 109.75,-158"/>
<text text-anchor="middle" x="54.88" y="-146.4" font-family="SourceSans" font-size="8.00">svg::make_path_triangle</text>
</a>
</g>
</g>
<!-- Node2 -->
<g id="Node000002" class="node">
<title>Node2</title>
<g id="a_Node000002"><a xlink:href="namespacesvg.html#ab44508c4aeca591141ebec50145b75cd" target="_top" xlink:title="Angle in degrees.">
<polygon fill="white" stroke="#666666" points="254,-294 150.25,-294 150.25,-262 254,-262 254,-294"/>
<text text-anchor="start" x="158.25" y="-282.4" font-family="SourceSans" font-size="8.00">svg::get_circumference</text>
<text text-anchor="middle" x="202.12" y="-270.4" font-family="SourceSans" font-size="8.00">_point_d</text>
</a>
</g>
</g>
<!-- Node1&#45;&gt;Node2 -->
<g id="edge1_Node000001_Node000002" class="edge">
<title>Node1&#45;&gt;Node2</title>
<g id="a_edge1_Node000001_Node000002"><a xlink:title=" ">
<path fill="none" stroke="#63b8ff" d="M67.27,-158.2C90.26,-178.77 142.7,-225.71 174.69,-254.34"/>
<polygon fill="#63b8ff" stroke="#63b8ff" points="172.22,-256.83 182,-260.89 176.89,-251.61 172.22,-256.83"/>
</a>
</g>
</g>
<!-- Node4 -->
<g id="Node000004" class="node">
<title>Node4</title>
<g id="a_Node000004"><a xlink:href="namespacesvg.html#a302d3f13fef13ef823b99cfabcfac3ab" target="_top" xlink:title="Draw path given serialized path data. Can be used to make pinstripes, ie top and bottom line layers....">
<polygon fill="white" stroke="#666666" points="240.12,-180 164.12,-180 164.12,-160 240.12,-160 240.12,-180"/>
<text text-anchor="middle" x="202.12" y="-168.4" font-family="SourceSans" font-size="8.00">svg::make_path</text>
</a>
</g>
</g>
<!-- Node1&#45;&gt;Node4 -->
<g id="edge3_Node000001_Node000004" class="edge">
<title>Node1&#45;&gt;Node4</title>
<g id="a_edge3_Node000001_Node000004"><a xlink:title=" ">
<path fill="none" stroke="#63b8ff" d="M109.96,-156.19C123.95,-158.31 138.92,-160.58 152.61,-162.65"/>
<polygon fill="#63b8ff" stroke="#63b8ff" points="151.84,-166.08 162.25,-164.11 152.89,-159.15 151.84,-166.08"/>
</a>
</g>
</g>
<!-- Node12 -->
<g id="Node000012" class="node">
<title>Node12</title>
<g id="a_Node000012"><a xlink:href="namespacesvg.html#a2c65de7707b8b7b1bca959a3a2bbba91" target="_top" xlink:title="Make single path segment.">
<polygon fill="white" stroke="#666666" points="250.62,-142 153.62,-142 153.62,-110 250.62,-110 250.62,-142"/>
<text text-anchor="start" x="161.62" y="-130.4" font-family="SourceSans" font-size="8.00">svg::make_path_data</text>
<text text-anchor="middle" x="202.12" y="-118.4" font-family="SourceSans" font-size="8.00">_from_points</text>
</a>
</g>
</g>
<!-- Node1&#45;&gt;Node12 -->
<g id="edge12_Node000001_Node000012" class="edge">
<title>Node1&#45;&gt;Node12</title>
<g id="a_edge12_Node000001_Node000012"><a xlink:title=" ">
<path fill="none" stroke="#63b8ff" d="M109.96,-139.81C120.39,-138.23 131.36,-136.57 141.93,-134.97"/>
<polygon fill="#63b8ff" stroke="#63b8ff" points="142.35,-138.44 151.72,-133.48 141.3,-131.52 142.35,-138.44"/>
</a>
</g>
</g>
<!-- Node14 -->
<g id="Node000014" class="node">
<title>Node14</title>
<g id="a_Node000014"><a xlink:href="namespacesvg.html#a46164d75fd5109e4ed8879abbacd5c11" target="_top" xlink:title="Zero degrees is top, going clockwise (cw).">
<polygon fill="white" stroke="#666666" points="258.5,-92 145.75,-92 145.75,-72 258.5,-72 258.5,-92"/>
<text text-anchor="middle" x="202.12" y="-80.4" font-family="SourceSans" font-size="8.00">svg::zero_angle_north_cw</text>
</a>
</g>
</g>
<!-- Node1&#45;&gt;Node14 -->
<g id="edge14_Node000001_Node000014" class="edge">
<title>Node1&#45;&gt;Node14</title>
<g id="a_edge14_Node000001_Node000014"><a xlink:title=" ">
<path fill="none" stroke="#63b8ff" d="M73.73,-137.63C91.59,-127.51 120.03,-112.06 145.75,-101 149.52,-99.38 153.48,-97.8 157.47,-96.28"/>
<polygon fill="#63b8ff" stroke="#63b8ff" points="158.39,-99.67 166.6,-92.96 156,-93.09 158.39,-99.67"/>
</a>
</g>
</g>
<!-- Node3 -->
<g id="Node000003" class="node">
<title>Node3</title>
<g id="a_Node000003"><a xlink:href="namespacesvg.html#aef05ac63d88a6102981d3faf37275297" target="_top" xlink:title="Angle in radians.">
<polygon fill="white" stroke="#666666" points="398.25,-358 294.5,-358 294.5,-326 398.25,-326 398.25,-358"/>
<text text-anchor="start" x="302.5" y="-346.4" font-family="SourceSans" font-size="8.00">svg::get_circumference</text>
<text text-anchor="middle" x="346.38" y="-334.4" font-family="SourceSans" font-size="8.00">_point_r</text>
</a>
</g>
</g>
<!-- Node2&#45;&gt;Node3 -->
<g id="edge2_Node000002_Node000003" class="edge">
<title>Node2&#45;&gt;Node3</title>
<g id="a_edge2_Node000002_Node000003"><a xlink:title=" ">
<path fill="none" stroke="#63b8ff" d="M239.76,-294.48C257.68,-302.54 279.45,-312.34 298.56,-320.94"/>
<polygon fill="#63b8ff" stroke="#63b8ff" points="296.93,-324.04 307.49,-324.95 299.8,-317.66 296.93,-324.04"/>
</a>
</g>
</g>
<!-- Node5 -->
<g id="Node000005" class="node">
<title>Node5</title>
<g id="a_Node000005"><a xlink:href="group__elements.html#a807f3c30f2ace338ad10aaf230b47665" target="_top" xlink:title="Either serialize immediately (as below), or create data structure that adds data to data_vec and then...">
<polygon fill="white" stroke="#666666" points="391.88,-308 300.88,-308 300.88,-276 391.88,-276 391.88,-308"/>
<text text-anchor="start" x="308.88" y="-296.4" font-family="SourceSans" font-size="8.00">svg::path_element::</text>
<text text-anchor="middle" x="346.38" y="-284.4" font-family="SourceSans" font-size="8.00">add_data</text>
</a>
</g>
</g>
<!-- Node4&#45;&gt;Node5 -->
<g id="edge4_Node000004_Node000005" class="edge">
<title>Node4&#45;&gt;Node5</title>
<g id="a_edge4_Node000004_Node000005"><a xlink:title=" ">
<path fill="none" stroke="#63b8ff" d="M210.7,-180.21C225.23,-199.25 258.76,-240.62 294.5,-267 295.81,-267.97 297.17,-268.92 298.55,-269.84"/>
<polygon fill="#63b8ff" stroke="#63b8ff" points="296.4,-272.63 306.76,-274.83 300.03,-266.65 296.4,-272.63"/>
</a>
</g>
</g>
<!-- Node7 -->
<g id="Node000007" class="node">
<title>Node7</title>
<g id="a_Node000007"><a xlink:href="group__elements.html#acafbdd950c6c2639c9d376c3eab696e5" target="_top" xlink:title=" ">
<polygon fill="white" stroke="#666666" points="391.88,-258 300.88,-258 300.88,-226 391.88,-226 391.88,-258"/>
<text text-anchor="start" x="308.88" y="-246.4" font-family="SourceSans" font-size="8.00">svg::element_base::</text>
<text text-anchor="middle" x="346.38" y="-234.4" font-family="SourceSans" font-size="8.00">add_raw</text>
</a>
</g>
</g>
<!-- Node4&#45;&gt;Node7 -->
<g id="edge6_Node000004_Node000007" class="edge">
<title>Node4&#45;&gt;Node7</title>
<g id="a_edge6_Node000004_Node000007"><a xlink:title=" ">
<path fill="none" stroke="#63b8ff" d="M223.04,-180.37C241.51,-189.97 269.8,-204.58 294.5,-217 296.75,-218.13 299.06,-219.29 301.39,-220.45"/>
<polygon fill="#63b8ff" stroke="#63b8ff" points="299.8,-223.57 310.32,-224.87 302.91,-217.3 299.8,-223.57"/>
</a>
</g>
</g>
<!-- Node8 -->
<g id="Node000008" class="node">
<title>Node8</title>
<g id="a_Node000008"><a xlink:href="group__elements.html#a238b38ca99a1cf6c2baf80c8e4338d99" target="_top" xlink:title=" ">
<polygon fill="white" stroke="#666666" points="391.88,-208 300.88,-208 300.88,-176 391.88,-176 391.88,-208"/>
<text text-anchor="start" x="308.88" y="-196.4" font-family="SourceSans" font-size="8.00">svg::element_base::</text>
<text text-anchor="middle" x="346.38" y="-184.4" font-family="SourceSans" font-size="8.00">add_style</text>
</a>
</g>
</g>
<!-- Node4&#45;&gt;Node8 -->
<g id="edge7_Node000004_Node000008" class="edge">
<title>Node4&#45;&gt;Node8</title>
<g id="a_edge7_Node000004_Node000008"><a xlink:title=" ">
<path fill="none" stroke="#63b8ff" d="M240.5,-175.78C255.41,-178.09 272.91,-180.79 289.28,-183.33"/>
<polygon fill="#63b8ff" stroke="#63b8ff" points="288.49,-186.74 298.9,-184.81 289.56,-179.83 288.49,-186.74"/>
</a>
</g>
</g>
<!-- Node9 -->
<g id="Node000009" class="node">
<title>Node9</title>
<g id="a_Node000009"><a xlink:href="namespacesvg.html#a36b1c48ad4601b205790e3772ad0a7b6" target="_top" xlink:title=" ">
<polygon fill="white" stroke="#666666" points="511.38,-180 444.38,-180 444.38,-160 511.38,-160 511.38,-180"/>
<text text-anchor="middle" x="477.88" y="-168.4" font-family="SourceSans" font-size="8.00">svg::to_string</text>
</a>
</g>
</g>
<!-- Node4&#45;&gt;Node9 -->
<g id="edge11_Node000004_Node000009" class="edge">
<title>Node4&#45;&gt;Node9</title>
<g id="a_edge11_Node000004_Node000009"><a xlink:title=" ">
<path fill="none" stroke="#63b8ff" d="M240.46,-168.5C257.01,-167.9 276.73,-167.29 294.5,-167 340.6,-166.24 352.15,-166.12 398.25,-167 409.4,-167.21 421.43,-167.59 432.66,-168.02"/>
<polygon fill="#63b8ff" stroke="#63b8ff" points="432.34,-171.51 442.47,-168.41 432.62,-164.51 432.34,-171.51"/>
</a>
</g>
</g>
<!-- Node10 -->
<g id="Node000010" class="node">
<title>Node10</title>
<g id="a_Node000010"><a xlink:href="group__elements.html#gaac30ae99fb1a2542688fa1ffb43cd8e1" target="_top" xlink:title=" ">
<polygon fill="white" stroke="#666666" points="391.88,-120 300.88,-120 300.88,-88 391.88,-88 391.88,-120"/>
<text text-anchor="start" x="308.88" y="-108.4" font-family="SourceSans" font-size="8.00">svg::path_element::</text>
<text text-anchor="middle" x="346.38" y="-96.4" font-family="SourceSans" font-size="8.00">finish_element</text>
</a>
</g>
</g>
<!-- Node4&#45;&gt;Node10 -->
<g id="edge9_Node000004_Node000010" class="edge">
<title>Node4&#45;&gt;Node10</title>
<g id="a_edge9_Node000004_Node000010"><a xlink:title=" ">
<path fill="none" stroke="#63b8ff" d="M236.56,-159.53C243.88,-156.96 251.52,-154.06 258.5,-151 275.09,-143.73 292.78,-134.45 307.83,-126.07"/>
<polygon fill="#63b8ff" stroke="#63b8ff" points="309.49,-129.15 316.48,-121.19 306.05,-123.06 309.49,-129.15"/>
</a>
</g>
</g>
<!-- Node11 -->
<g id="Node000011" class="node">
<title>Node11</title>
<g id="a_Node000011"><a xlink:href="group__elements.html#a6dbca7cef2cbc0c10aa44c44ae20b36e" target="_top" xlink:title=" ">
<polygon fill="white" stroke="#666666" points="391.88,-70 300.88,-70 300.88,-38 391.88,-38 391.88,-70"/>
<text text-anchor="start" x="308.88" y="-58.4" font-family="SourceSans" font-size="8.00">svg::path_element::</text>
<text text-anchor="middle" x="346.38" y="-46.4" font-family="SourceSans" font-size="8.00">start_element</text>
</a>
</g>
</g>
<!-- Node4&#45;&gt;Node11 -->
<g id="edge10_Node000004_Node000011" class="edge">
<title>Node4&#45;&gt;Node11</title>
<g id="a_edge10_Node000004_Node000011"><a xlink:title=" ">
<path fill="none" stroke="#63b8ff" d="M240.44,-161.67C246.95,-159.03 253.3,-155.55 258.5,-151 285.42,-127.44 269.11,-104.21 294.5,-79 295.1,-78.4 295.72,-77.82 296.36,-77.24"/>
<polygon fill="#63b8ff" stroke="#63b8ff" points="298.27,-80.18 304.12,-71.34 294.04,-74.61 298.27,-80.18"/>
</a>
</g>
</g>
<!-- Node6 -->
<g id="Node000006" class="node">
<title>Node6</title>
<g id="a_Node000006"><a xlink:href="namespacesvg.html#a48ac748e89e22789d1772326a98dd7b6" target="_top" xlink:title=" ">
<polygon fill="white" stroke="#666666" points="521.5,-302 434.25,-302 434.25,-282 521.5,-282 521.5,-302"/>
<text text-anchor="middle" x="477.88" y="-290.4" font-family="SourceSans" font-size="8.00">svg::string_replace</text>
</a>
</g>
</g>
<!-- Node5&#45;&gt;Node6 -->
<g id="edge5_Node000005_Node000006" class="edge">
<title>Node5&#45;&gt;Node6</title>
<g id="a_edge5_Node000005_Node000006"><a xlink:title=" ">
<path fill="none" stroke="#63b8ff" d="M392.3,-292C401.97,-292 412.28,-292 422.26,-292"/>
<polygon fill="#63b8ff" stroke="#63b8ff" points="422.26,-295.5 432.26,-292 422.26,-288.5 422.26,-295.5"/>
</a>
</g>
</g>
<!-- Node8&#45;&gt;Node9 -->
<g id="edge8_Node000008_Node000009" class="edge">
<title>Node8&#45;&gt;Node9</title>
<g id="a_edge8_Node000008_Node000009"><a xlink:title=" ">
<path fill="none" stroke="#63b8ff" d="M392.3,-184.37C405.53,-182.12 419.97,-179.67 433.11,-177.43"/>
<polygon fill="#63b8ff" stroke="#63b8ff" points="433.51,-180.92 442.78,-175.79 432.33,-174.02 433.51,-180.92"/>
</a>
</g>
</g>
<!-- Node13 -->
<g id="Node000013" class="node">
<title>Node13</title>
<g id="a_Node000013"><a xlink:href="namespacesvg_1_1constants.html#ac460bc8db60d85c3ae1cf8b1a903405e" target="_top" xlink:title="Formatting character constants.">
<polygon fill="white" stroke="#666666" points="394.5,-20 298.25,-20 298.25,0 394.5,0 394.5,-20"/>
<text text-anchor="middle" x="346.38" y="-8.4" font-family="SourceSans" font-size="8.00">svg::constants::space</text>
</a>
</g>
</g>
<!-- Node12&#45;&gt;Node13 -->
<g id="edge13_Node000012_Node000013" class="edge">
<title>Node12&#45;&gt;Node13</title>
<g id="a_edge13_Node000012_Node000013"><a xlink:title=" ">
<path fill="none" stroke="#63b8ff" d="M247.27,-109.58C251.32,-107.07 255.15,-104.22 258.5,-101 284.29,-76.21 267.89,-52.92 294.5,-29 295.56,-28.04 296.68,-27.13 297.84,-26.27"/>
<polygon fill="#63b8ff" stroke="#63b8ff" points="299.38,-29.43 306.11,-21.25 295.75,-23.44 299.38,-29.43"/>
</a>
</g>
</g>
</g>
</svg>

<g id="navigator" transform="translate(0 0)" fill="#404254">
  <rect fill="#f2f5e9" fill-opacity="0.5" stroke="#606060" stroke-width=".5" x="0" y="0" width="60" height="60"/>
  <use id="zoomplus" xlink:href="#zoomPlus" x="17" y="9" onmousedown="handleZoom(evt,'in')"/>
  <use id="zoomminus" xlink:href="#zoomMin" x="42" y="9" onmousedown="handleZoom(evt,'out')"/>
  <use id="reset" xlink:href="#resetDef" x="30" y="36" onmousedown="handleReset()"/>
   <use id="arrowup" xlink:href="#arrowUp" x="0" y="0" onmousedown="handlePan(0,-1)"/>
  <use id="arrowright" xlink:href="#arrowRight" x="0" y="0" onmousedown="handlePan(1,0)"/>
  <use id="arrowdown" xlink:href="#arrowDown" x="0" y="0" onmousedown="handlePan(0,1)"/>
  <use id="arrowleft" xlink:href="#arrowLeft" x="0" y="0" onmousedown="handlePan(-1,0)"/>
</g>
<svg viewBox="0 0 15 15" width="100%" height="30px" preserveAspectRatio="xMaxYMin meet">
 <g id="arrow_out" transform="scale(0.3 0.3)">
  <a xlink:href="namespacesvg_a6745faec7f5b60dcb4fc12cbdbf56bd7_cgraph_org.svg" target="_base">
   <rect id="button" ry="5" rx="5" y="6" x="6" height="38" width="38"
        fill="#f2f5e9" fill-opacity="0.5" stroke="#606060" stroke-width="1.0"/>
   <path id="arrow"
     d="M 11.500037,31.436501 C 11.940474,20.09759 22.043105,11.32322 32.158766,21.979434 L 37.068811,17.246167 C 37.068811,17.246167 37.088388,32 37.088388,32 L 22.160133,31.978069 C 22.160133,31.978069 26.997745,27.140456 26.997745,27.140456 C 18.528582,18.264221 13.291696,25.230495 11.500037,31.436501 z"
     style="fill:#404040;"/>
  </a>
 </g>
</svg>

<style type='text/css'>
<![CDATA[
[data-mouse-over-selected='false'] { opacity: 0.7; }
[data-mouse-over-selected='true']  { opacity: 1.0; }
]]>
</style>
<script type="application/ecmascript"><![CDATA[
document.addEventListener('DOMContentLoaded', (event) => {
  highlightEdges();
  highlightAdjacentNodes();
});
]]></script>
</svg>
