<?xml version="1.0" encoding="UTF-8" standalone="no"?>
<!DOCTYPE svg PUBLIC "-//W3C//DTD SVG 1.1//EN"
 "http://www.w3.org/Graphics/SVG/1.1/DTD/svg11.dtd">
<!-- Generated by graphviz version 12.1.0 (20240811.2233)
 -->
<!-- Title: svg::radiate_glyph Pages: 1 -->
<svg width="672pt" height="744pt"
 viewBox="0.00 0.00 672.25 744.00" xmlns="http://www.w3.org/2000/svg" xmlns:xlink="http://www.w3.org/1999/xlink">
<g id="graph0" class="graph" transform="scale(1 1) rotate(0) translate(4 740)">
<title>svg::radiate_glyph</title>
<!-- Node1 -->
<g id="Node000001" class="node">
<title>Node1</title>
<g id="a_Node000001"><a xlink:title=" ">
<polygon fill="#999999" stroke="#666666" points="85.75,-373 0,-373 0,-353 85.75,-353 85.75,-373"/>
<text text-anchor="middle" x="42.88" y="-361.4" font-family="SourceSans" font-size="8.00">svg::radiate_glyph</text>
</a>
</g>
</g>
<!-- Node2 -->
<g id="Node000002" class="node">
<title>Node2</title>
<g id="a_Node000002"><a xlink:href="namespacesvg.html#a6b1624bb42af7e9269fc6088e6a26fd7" target="_top" xlink:title="Adjust angle above to CW/CCW orientation.">
<polygon fill="white" stroke="#666666" points="238.25,-698 121.75,-698 121.75,-678 238.25,-678 238.25,-698"/>
<text text-anchor="middle" x="180" y="-686.4" font-family="SourceSans" font-size="8.00">svg::adjust_angle_rotation</text>
</a>
</g>
</g>
<!-- Node1&#45;&gt;Node2 -->
<g id="edge1_Node000001_Node000002" class="edge">
<title>Node1&#45;&gt;Node2</title>
<g id="a_edge1_Node000001_Node000002"><a xlink:title=" ">
<path fill="none" stroke="#63b8ff" d="M45.01,-373.47C49.46,-410.88 68.13,-540.56 121.75,-631 130.76,-646.19 144.75,-660.23 156.65,-670.57"/>
<polygon fill="#63b8ff" stroke="#63b8ff" points="154.14,-673.03 164.06,-676.75 158.62,-667.66 154.14,-673.03"/>
</a>
</g>
</g>
<!-- Node5 -->
<g id="Node000005" class="node">
<title>Node5</title>
<g id="a_Node000005"><a xlink:href="namespacesvg.html#a8049c9c931294d04d25967268d85d226" target="_top" xlink:title="Import svg file, convert it to svg_element for insertion. ifile is a plain SVG file with a 1:1 aspect...">
<polygon fill="white" stroke="#666666" points="228.88,-316 131.12,-316 131.12,-296 228.88,-296 228.88,-316"/>
<text text-anchor="middle" x="180" y="-304.4" font-family="SourceSans" font-size="8.00">svg::file_to_svg_insert</text>
</a>
</g>
</g>
<!-- Node1&#45;&gt;Node5 -->
<g id="edge4_Node000001_Node000005" class="edge">
<title>Node1&#45;&gt;Node5</title>
<g id="a_edge4_Node000001_Node000005"><a xlink:title=" ">
<path fill="none" stroke="#63b8ff" d="M63.39,-352.58C78.94,-344.49 101.41,-333.29 121.75,-325 125.83,-323.33 130.12,-321.7 134.44,-320.14"/>
<polygon fill="#63b8ff" stroke="#63b8ff" points="135.41,-323.51 143.69,-316.91 133.1,-316.9 135.41,-323.51"/>
</a>
</g>
</g>
<!-- Node7 -->
<g id="Node000007" class="node">
<title>Node7</title>
<g id="a_Node000007"><a xlink:href="namespacesvg.html#ab44508c4aeca591141ebec50145b75cd" target="_top" xlink:title="Angle in degrees.">
<polygon fill="white" stroke="#666666" points="231.88,-622 128.12,-622 128.12,-590 231.88,-590 231.88,-622"/>
<text text-anchor="start" x="136.12" y="-610.4" font-family="SourceSans" font-size="8.00">svg::get_circumference</text>
<text text-anchor="middle" x="180" y="-598.4" font-family="SourceSans" font-size="8.00">_point_d</text>
</a>
</g>
</g>
<!-- Node1&#45;&gt;Node7 -->
<g id="edge6_Node000001_Node000007" class="edge">
<title>Node1&#45;&gt;Node7</title>
<g id="a_edge6_Node000001_Node000007"><a xlink:title=" ">
<path fill="none" stroke="#63b8ff" d="M49.68,-373.44C69.48,-409.05 134.77,-526.45 164.28,-579.53"/>
<polygon fill="#63b8ff" stroke="#63b8ff" points="161.19,-581.17 169.11,-588.21 167.31,-577.77 161.19,-581.17"/>
</a>
</g>
</g>
<!-- Node10 -->
<g id="Node000010" class="node">
<title>Node10</title>
<g id="a_Node000010"><a xlink:href="namespacesvg.html#a370d930bd06a84735a4eecdd677154e6" target="_top" xlink:title="Get the label space. Value &#45;&gt; Name, as a string where value has labelspaces of fill NB: Should be the...">
<polygon fill="white" stroke="#666666" points="228.88,-392 131.12,-392 131.12,-372 228.88,-372 228.88,-392"/>
<text text-anchor="middle" x="180" y="-380.4" font-family="SourceSans" font-size="8.00">svg::get_label_spaces</text>
</a>
</g>
</g>
<!-- Node1&#45;&gt;Node10 -->
<g id="edge9_Node000001_Node000010" class="edge">
<title>Node1&#45;&gt;Node10</title>
<g id="a_edge9_Node000001_Node000010"><a xlink:title=" ">
<path fill="none" stroke="#63b8ff" d="M85.89,-368.91C96.58,-370.41 108.27,-372.05 119.65,-373.65"/>
<polygon fill="#63b8ff" stroke="#63b8ff" points="118.98,-377.1 129.37,-375.02 119.96,-370.16 118.98,-377.1"/>
</a>
</g>
</g>
<!-- Node11 -->
<g id="Node000011" class="node">
<title>Node11</title>
<g id="a_Node000011"><a xlink:href="namespacesvg.html#acf3b42875f3a4e7bee10c21670c166cc" target="_top" xlink:title="The smallest (sattelite) radius size allowed in a kusama orbit.">
<polygon fill="white" stroke="#666666" points="231.12,-354 128.88,-354 128.88,-334 231.12,-334 231.12,-354"/>
<text text-anchor="middle" x="180" y="-342.4" font-family="SourceSans" font-size="8.00">svg::get_min_ring_size</text>
</a>
</g>
</g>
<!-- Node1&#45;&gt;Node11 -->
<g id="edge10_Node000001_Node000011" class="edge">
<title>Node1&#45;&gt;Node11</title>
<g id="a_edge10_Node000001_Node000011"><a xlink:title=" ">
<path fill="none" stroke="#63b8ff" d="M85.89,-357.09C95.79,-355.7 106.55,-354.19 117.12,-352.7"/>
<polygon fill="#63b8ff" stroke="#63b8ff" points="117.55,-356.17 126.97,-351.32 116.58,-349.24 117.55,-356.17"/>
</a>
</g>
</g>
<!-- Node12 -->
<g id="Node000012" class="node">
<title>Node12</title>
<g id="a_Node000012"><a xlink:href="namespacesvg.html#a0aae5e63973d0526fe0dbdda0b371ec8" target="_top" xlink:title="Embed svg in group element. @origin is where glyph placement is inside containing svg element....">
<polygon fill="white" stroke="#666666" points="221.38,-430 138.62,-430 138.62,-410 221.38,-410 221.38,-430"/>
<text text-anchor="middle" x="180" y="-418.4" font-family="SourceSans" font-size="8.00">svg::insert_svg_at</text>
</a>
</g>
</g>
<!-- Node1&#45;&gt;Node12 -->
<g id="edge11_Node000001_Node000012" class="edge">
<title>Node1&#45;&gt;Node12</title>
<g id="a_edge11_Node000001_Node000012"><a xlink:title=" ">
<path fill="none" stroke="#63b8ff" d="M63.39,-373.42C78.94,-381.51 101.41,-392.71 121.75,-401 125.83,-402.67 130.12,-404.3 134.44,-405.86"/>
<polygon fill="#63b8ff" stroke="#63b8ff" points="133.1,-409.1 143.69,-409.09 135.41,-402.49 133.1,-409.1"/>
</a>
</g>
</g>
<!-- Node24 -->
<g id="Node000024" class="node">
<title>Node24</title>
<g id="a_Node000024"><a xlink:href="structsvg_1_1render__state__base.html#a7c3f23003c7324627764c9547568d42f" target="_top" xlink:title=" ">
<polygon fill="white" stroke="#666666" points="231.5,-278 128.5,-278 128.5,-246 231.5,-246 231.5,-278"/>
<text text-anchor="start" x="136.5" y="-266.4" font-family="SourceSans" font-size="8.00">svg::render_state_base</text>
<text text-anchor="middle" x="180" y="-254.4" font-family="SourceSans" font-size="8.00">::is_visible</text>
</a>
</g>
</g>
<!-- Node1&#45;&gt;Node24 -->
<g id="edge27_Node000001_Node000024" class="edge">
<title>Node1&#45;&gt;Node24</title>
<g id="a_edge27_Node000001_Node000024"><a xlink:title=" ">
<path fill="none" stroke="#63b8ff" d="M52.26,-352.69C65.6,-336.85 93.07,-306.3 121.75,-287 123.33,-285.94 124.96,-284.9 126.62,-283.9"/>
<polygon fill="#63b8ff" stroke="#63b8ff" points="128.09,-287.09 135.16,-279.21 124.71,-280.96 128.09,-287.09"/>
</a>
</g>
</g>
<!-- Node25 -->
<g id="Node000025" class="node">
<title>Node25</title>
<g id="a_Node000025"><a xlink:href="namespacesvg.html#a68c014cdc144d2d0125a8ce849e8804d" target="_top" xlink:title="Draws a circle around a point (x,y), of style (s), of radius (r).">
<polygon fill="white" stroke="#666666" points="224,-151 136,-151 136,-131 224,-131 224,-151"/>
<text text-anchor="middle" x="180" y="-139.4" font-family="SourceSans" font-size="8.00">svg::point_to_circle</text>
</a>
</g>
</g>
<!-- Node1&#45;&gt;Node25 -->
<g id="edge28_Node000001_Node000025" class="edge">
<title>Node1&#45;&gt;Node25</title>
<g id="a_edge28_Node000001_Node000025"><a xlink:title=" ">
<path fill="none" stroke="#63b8ff" d="M50.21,-352.59C71.22,-318.07 138.86,-206.95 166.77,-161.09"/>
<polygon fill="#63b8ff" stroke="#63b8ff" points="169.68,-163.04 171.89,-152.68 163.7,-159.4 169.68,-163.04"/>
</a>
</g>
</g>
<!-- Node3 -->
<g id="Node000003" class="node">
<title>Node3</title>
<g id="a_Node000003"><a xlink:href="namespacesvg.html#a010fea242a289d173d521b501140cd72" target="_top" xlink:title="Zero degrees is top, going clockwise (cw).">
<polygon fill="white" stroke="#666666" points="390.75,-698 274.25,-698 274.25,-678 390.75,-678 390.75,-698"/>
<text text-anchor="middle" x="332.5" y="-686.4" font-family="SourceSans" font-size="8.00">svg::zero_angle_north_ccw</text>
</a>
</g>
</g>
<!-- Node2&#45;&gt;Node3 -->
<g id="edge2_Node000002_Node000003" class="edge">
<title>Node2&#45;&gt;Node3</title>
<g id="a_edge2_Node000002_Node000003"><a xlink:title=" ">
<path fill="none" stroke="#63b8ff" d="M238.33,-688C246.23,-688 254.42,-688 262.5,-688"/>
<polygon fill="#63b8ff" stroke="#63b8ff" points="262.32,-691.5 272.32,-688 262.32,-684.5 262.32,-691.5"/>
</a>
</g>
</g>
<!-- Node4 -->
<g id="Node000004" class="node">
<title>Node4</title>
<g id="a_Node000004"><a xlink:href="namespacesvg.html#a46164d75fd5109e4ed8879abbacd5c11" target="_top" xlink:title="Zero degrees is top, going clockwise (cw).">
<polygon fill="white" stroke="#666666" points="388.88,-736 276.12,-736 276.12,-716 388.88,-716 388.88,-736"/>
<text text-anchor="middle" x="332.5" y="-724.4" font-family="SourceSans" font-size="8.00">svg::zero_angle_north_cw</text>
</a>
</g>
</g>
<!-- Node2&#45;&gt;Node4 -->
<g id="edge3_Node000002_Node000004" class="edge">
<title>Node2&#45;&gt;Node4</title>
<g id="a_edge3_Node000002_Node000004"><a xlink:title=" ">
<path fill="none" stroke="#63b8ff" d="M222.52,-698.48C240.04,-702.91 260.64,-708.11 279.18,-712.79"/>
<polygon fill="#63b8ff" stroke="#63b8ff" points="278.09,-716.12 288.64,-715.18 279.81,-709.34 278.09,-716.12"/>
</a>
</g>
</g>
<!-- Node6 -->
<g id="Node000006" class="node">
<title>Node6</title>
<g id="a_Node000006"><a xlink:href="namespacesvg_1_1constants.html#aa7f04c2ea699a1b1e2e790de5ac33f38" target="_top" xlink:title=" ">
<polygon fill="white" stroke="#666666" points="531.25,-314 426.75,-314 426.75,-294 531.25,-294 531.25,-314"/>
<text text-anchor="middle" x="479" y="-302.4" font-family="SourceSans" font-size="8.00">svg::constants::newline</text>
</a>
</g>
</g>
<!-- Node5&#45;&gt;Node6 -->
<g id="edge5_Node000005_Node000006" class="edge">
<title>Node5&#45;&gt;Node6</title>
<g id="a_edge5_Node000005_Node000006"><a xlink:title=" ">
<path fill="none" stroke="#63b8ff" d="M213.42,-295.56C235.39,-288.69 262.49,-280.67 274.25,-279 325.51,-271.73 339.48,-271.8 390.75,-279 406.67,-281.24 423.75,-285.66 438.54,-290.17"/>
<polygon fill="#63b8ff" stroke="#63b8ff" points="437.32,-293.45 447.91,-293.15 439.44,-286.78 437.32,-293.45"/>
</a>
</g>
</g>
<!-- Node8 -->
<g id="Node000008" class="node">
<title>Node8</title>
<g id="a_Node000008"><a xlink:href="namespacesvg.html#aef05ac63d88a6102981d3faf37275297" target="_top" xlink:title="Angle in radians.">
<polygon fill="white" stroke="#666666" points="384.38,-622 280.62,-622 280.62,-590 384.38,-590 384.38,-622"/>
<text text-anchor="start" x="288.62" y="-610.4" font-family="SourceSans" font-size="8.00">svg::get_circumference</text>
<text text-anchor="middle" x="332.5" y="-598.4" font-family="SourceSans" font-size="8.00">_point_r</text>
</a>
</g>
</g>
<!-- Node7&#45;&gt;Node8 -->
<g id="edge7_Node000007_Node000008" class="edge">
<title>Node7&#45;&gt;Node8</title>
<g id="a_edge7_Node000007_Node000008"><a xlink:title=" ">
<path fill="none" stroke="#63b8ff" d="M232.37,-606C244.12,-606 256.73,-606 268.88,-606"/>
<polygon fill="#63b8ff" stroke="#63b8ff" points="268.85,-609.5 278.85,-606 268.85,-602.5 268.85,-609.5"/>
</a>
</g>
</g>
<!-- Node9 -->
<g id="Node000009" class="node">
<title>Node9</title>
<g id="a_Node000009"><a xlink:href="namespacesvg_1_1constants.html#a0e0b0d9314bc47324ee39884bf8bb2fd" target="_top" xlink:title=" ">
<polygon fill="white" stroke="#666666" points="373.5,-660 291.5,-660 291.5,-640 373.5,-640 373.5,-660"/>
<text text-anchor="middle" x="332.5" y="-648.4" font-family="SourceSans" font-size="8.00">svg::constants::pi</text>
</a>
</g>
</g>
<!-- Node7&#45;&gt;Node9 -->
<g id="edge8_Node000007_Node000009" class="edge">
<title>Node7&#45;&gt;Node9</title>
<g id="a_edge8_Node000007_Node000009"><a xlink:title=" ">
<path fill="none" stroke="#63b8ff" d="M232.37,-621.02C249.56,-626.04 268.59,-631.61 285.35,-636.51"/>
<polygon fill="#63b8ff" stroke="#63b8ff" points="283.96,-639.75 294.54,-639.2 285.93,-633.03 283.96,-639.75"/>
</a>
</g>
</g>
<!-- Node13 -->
<g id="Node000013" class="node">
<title>Node13</title>
<g id="a_Node000013"><a xlink:href="group__elements.html#aaa5f1a136f2b5c61d647a47ec53fe31d" target="_top" xlink:title=" ">
<polygon fill="white" stroke="#666666" points="382.88,-232 282.12,-232 282.12,-200 382.88,-200 382.88,-232"/>
<text text-anchor="start" x="290.12" y="-220.4" font-family="SourceSans" font-size="8.00">svg::svg_element::add</text>
<text text-anchor="middle" x="332.5" y="-208.4" font-family="SourceSans" font-size="8.00">_element</text>
</a>
</g>
</g>
<!-- Node12&#45;&gt;Node13 -->
<g id="edge12_Node000012_Node000013" class="edge">
<title>Node12&#45;&gt;Node13</title>
<g id="a_edge12_Node000012_Node000013"><a xlink:title=" ">
<path fill="none" stroke="#63b8ff" d="M221.73,-411.97C227.87,-409.3 233.66,-405.74 238.25,-401 277.55,-360.36 246.54,-328.28 274.25,-279 282.22,-264.83 293.9,-251.21 304.64,-240.28"/>
<polygon fill="#63b8ff" stroke="#63b8ff" points="306.82,-243.05 311.51,-233.55 301.92,-238.05 306.82,-243.05"/>
</a>
</g>
</g>
<!-- Node15 -->
<g id="Node000015" class="node">
<title>Node15</title>
<g id="a_Node000015"><a xlink:href="group__elements.html#acafbdd950c6c2639c9d376c3eab696e5" target="_top" xlink:title=" ">
<polygon fill="white" stroke="#666666" points="378,-458 287,-458 287,-426 378,-426 378,-458"/>
<text text-anchor="start" x="295" y="-446.4" font-family="SourceSans" font-size="8.00">svg::element_base::</text>
<text text-anchor="middle" x="332.5" y="-434.4" font-family="SourceSans" font-size="8.00">add_raw</text>
</a>
</g>
</g>
<!-- Node12&#45;&gt;Node15 -->
<g id="edge14_Node000012_Node000015" class="edge">
<title>Node12&#45;&gt;Node15</title>
<g id="a_edge14_Node000012_Node000015"><a xlink:title=" ">
<path fill="none" stroke="#63b8ff" d="M221.73,-425.95C238.23,-428.37 257.56,-431.19 275.36,-433.79"/>
<polygon fill="#63b8ff" stroke="#63b8ff" points="274.6,-437.22 285.01,-435.2 275.62,-430.29 274.6,-437.22"/>
</a>
</g>
</g>
<!-- Node16 -->
<g id="Node000016" class="node">
<title>Node16</title>
<g id="a_Node000016"><a xlink:href="namespacesvg_1_1constants.html#ac460bc8db60d85c3ae1cf8b1a903405e" target="_top" xlink:title="Formatting character constants.">
<polygon fill="white" stroke="#666666" points="663.88,-452 567.62,-452 567.62,-432 663.88,-432 663.88,-452"/>
<text text-anchor="middle" x="615.75" y="-440.4" font-family="SourceSans" font-size="8.00">svg::constants::space</text>
</a>
</g>
</g>
<!-- Node12&#45;&gt;Node16 -->
<g id="edge22_Node000012_Node000016" class="edge">
<title>Node12&#45;&gt;Node16</title>
<g id="a_edge22_Node000012_Node000016"><a xlink:title=" ">
<path fill="none" stroke="#63b8ff" d="M184.92,-430.15C195.15,-455.01 225.29,-518.68 274.25,-543 377.66,-594.37 427.55,-555.77 531.25,-505 555.25,-493.25 579.24,-474.2 595.31,-460.12"/>
<polygon fill="#63b8ff" stroke="#63b8ff" points="597.57,-462.79 602.67,-453.51 592.89,-457.59 597.57,-462.79"/>
</a>
</g>
</g>
<!-- Node17 -->
<g id="Node000017" class="node">
<title>Node17</title>
<g id="a_Node000017"><a xlink:href="group__elements.html#gaab139e518fe9d07003dbcc1fdfdad955" target="_top" xlink:title=" ">
<polygon fill="white" stroke="#666666" points="378.38,-370 286.62,-370 286.62,-338 378.38,-338 378.38,-370"/>
<text text-anchor="start" x="294.62" y="-358.4" font-family="SourceSans" font-size="8.00">svg::group_element</text>
<text text-anchor="middle" x="332.5" y="-346.4" font-family="SourceSans" font-size="8.00">::finish_element</text>
</a>
</g>
</g>
<!-- Node12&#45;&gt;Node17 -->
<g id="edge17_Node000012_Node000017" class="edge">
<title>Node12&#45;&gt;Node17</title>
<g id="a_edge17_Node000012_Node000017"><a xlink:title=" ">
<path fill="none" stroke="#63b8ff" d="M216.61,-409.58C223.89,-407.07 231.41,-404.17 238.25,-401 255.26,-393.11 257.62,-387.66 274.25,-379 276.73,-377.71 279.3,-376.42 281.9,-375.15"/>
<polygon fill="#63b8ff" stroke="#63b8ff" points="283.12,-378.44 290.68,-371.02 280.15,-372.11 283.12,-378.44"/>
</a>
</g>
</g>
<!-- Node19 -->
<g id="Node000019" class="node">
<title>Node19</title>
<g id="a_Node000019"><a xlink:href="structsvg_1_1transform.html#acf9836f4ba647f0dd2b53963a0f714d0" target="_top" xlink:title=" ">
<polygon fill="white" stroke="#666666" points="381.38,-408 283.62,-408 283.62,-388 381.38,-388 381.38,-408"/>
<text text-anchor="middle" x="332.5" y="-396.4" font-family="SourceSans" font-size="8.00">svg::transform::rotate</text>
</a>
</g>
</g>
<!-- Node12&#45;&gt;Node19 -->
<g id="edge20_Node000012_Node000019" class="edge">
<title>Node12&#45;&gt;Node19</title>
<g id="a_edge20_Node000012_Node000019"><a xlink:title=" ">
<path fill="none" stroke="#63b8ff" d="M221.73,-414.05C237.3,-411.77 255.38,-409.13 272.32,-406.65"/>
<polygon fill="#63b8ff" stroke="#63b8ff" points="272.37,-410.18 281.76,-405.27 271.36,-403.25 272.37,-410.18"/>
</a>
</g>
</g>
<!-- Node20 -->
<g id="Node000020" class="node">
<title>Node20</title>
<g id="a_Node000020"><a xlink:href="structsvg_1_1transform.html#a9053c6d65a0bf6f82e4c85a71cc42079" target="_top" xlink:title=" ">
<polygon fill="white" stroke="#666666" points="379.5,-534 285.5,-534 285.5,-514 379.5,-514 379.5,-534"/>
<text text-anchor="middle" x="332.5" y="-522.4" font-family="SourceSans" font-size="8.00">svg::transform::scale</text>
</a>
</g>
</g>
<!-- Node12&#45;&gt;Node20 -->
<g id="edge21_Node000012_Node000020" class="edge">
<title>Node12&#45;&gt;Node20</title>
<g id="a_edge21_Node000012_Node000020"><a xlink:title=" ">
<path fill="none" stroke="#63b8ff" d="M189.72,-430.4C205.08,-448.1 238.71,-484.19 274.25,-505 276.74,-506.46 279.36,-507.82 282.05,-509.1"/>
<polygon fill="#63b8ff" stroke="#63b8ff" points="280.68,-512.32 291.26,-512.98 283.4,-505.87 280.68,-512.32"/>
</a>
</g>
</g>
<!-- Node21 -->
<g id="Node000021" class="node">
<title>Node21</title>
<g id="a_Node000021"><a xlink:href="group__elements.html#a5c8c4f93df6e84523f788aa7f98bcab8" target="_top" xlink:title=" ">
<polygon fill="white" stroke="#666666" points="378.38,-320 286.62,-320 286.62,-288 378.38,-288 378.38,-320"/>
<text text-anchor="start" x="294.62" y="-308.4" font-family="SourceSans" font-size="8.00">svg::group_element</text>
<text text-anchor="middle" x="332.5" y="-296.4" font-family="SourceSans" font-size="8.00">::start_element</text>
</a>
</g>
</g>
<!-- Node12&#45;&gt;Node21 -->
<g id="edge23_Node000012_Node000021" class="edge">
<title>Node12&#45;&gt;Node21</title>
<g id="a_edge23_Node000012_Node000021"><a xlink:title=" ">
<path fill="none" stroke="#63b8ff" d="M221.64,-411C227.64,-408.45 233.42,-405.18 238.25,-401 265.29,-377.58 248.3,-353.63 274.25,-329 275.13,-328.16 276.05,-327.35 277,-326.56"/>
<polygon fill="#63b8ff" stroke="#63b8ff" points="278.75,-329.6 284.91,-320.98 274.72,-323.88 278.75,-329.6"/>
</a>
</g>
</g>
<!-- Node22 -->
<g id="Node000022" class="node">
<title>Node22</title>
<g id="a_Node000022"><a xlink:href="structsvg_1_1transform.html#a0c20aee54dbd3136799b17e12d3cb718" target="_top" xlink:title=" ">
<polygon fill="white" stroke="#666666" points="387,-496 278,-496 278,-476 387,-476 387,-496"/>
<text text-anchor="middle" x="332.5" y="-484.4" font-family="SourceSans" font-size="8.00">svg::transform::translate</text>
</a>
</g>
</g>
<!-- Node12&#45;&gt;Node22 -->
<g id="edge25_Node000012_Node000022" class="edge">
<title>Node12&#45;&gt;Node22</title>
<g id="a_edge25_Node000012_Node000022"><a xlink:title=" ">
<path fill="none" stroke="#63b8ff" d="M199.55,-430.37C218.1,-440.49 247.63,-455.94 274.25,-467 278.27,-468.67 282.49,-470.3 286.75,-471.85"/>
<polygon fill="#63b8ff" stroke="#63b8ff" points="285.27,-475.04 295.86,-475.06 287.59,-468.44 285.27,-475.04"/>
</a>
</g>
</g>
<!-- Node14 -->
<g id="Node000014" class="node">
<title>Node14</title>
<g id="a_Node000014"><a xlink:href="group__elements.html#ad893ef9c13a15464c96d8a85c08af30f" target="_top" xlink:title=" ">
<polygon fill="white" stroke="#666666" points="529.38,-226 428.62,-226 428.62,-206 529.38,-206 529.38,-226"/>
<text text-anchor="middle" x="479" y="-214.4" font-family="SourceSans" font-size="8.00">svg::element_base::str</text>
</a>
</g>
</g>
<!-- Node13&#45;&gt;Node14 -->
<g id="edge13_Node000013_Node000014" class="edge">
<title>Node13&#45;&gt;Node14</title>
<g id="a_edge13_Node000013_Node000014"><a xlink:title=" ">
<path fill="none" stroke="#63b8ff" d="M383.23,-216C394.01,-216 405.54,-216 416.71,-216"/>
<polygon fill="#63b8ff" stroke="#63b8ff" points="416.67,-219.5 426.67,-216 416.67,-212.5 416.67,-219.5"/>
</a>
</g>
</g>
<!-- Node15&#45;&gt;Node6 -->
<g id="edge15_Node000015_Node000006" class="edge">
<title>Node15&#45;&gt;Node6</title>
<g id="a_edge15_Node000015_Node000006"><a xlink:title=" ">
<path fill="none" stroke="#63b8ff" d="M378.26,-426.68C382.83,-423.93 387.11,-420.72 390.75,-417 420.28,-386.77 397.86,-359.84 426.75,-329 429.86,-325.68 433.5,-322.75 437.39,-320.17"/>
<polygon fill="#63b8ff" stroke="#63b8ff" points="439.11,-323.21 446.07,-315.22 435.64,-317.13 439.11,-323.21"/>
</a>
</g>
</g>
<!-- Node15&#45;&gt;Node16 -->
<g id="edge16_Node000015_Node000016" class="edge">
<title>Node15&#45;&gt;Node16</title>
<g id="a_edge16_Node000015_Node000016"><a xlink:title=" ">
<path fill="none" stroke="#63b8ff" d="M378.38,-442C426.49,-442 503.08,-442 555.97,-442"/>
<polygon fill="#63b8ff" stroke="#63b8ff" points="555.7,-445.5 565.7,-442 555.7,-438.5 555.7,-445.5"/>
</a>
</g>
</g>
<!-- Node17&#45;&gt;Node6 -->
<g id="edge19_Node000017_Node000006" class="edge">
<title>Node17&#45;&gt;Node6</title>
<g id="a_edge19_Node000017_Node000006"><a xlink:title=" ">
<path fill="none" stroke="#63b8ff" d="M378.82,-338.32C397.47,-331.87 418.9,-324.45 437.06,-318.16"/>
<polygon fill="#63b8ff" stroke="#63b8ff" points="438.16,-321.49 446.46,-314.91 435.87,-314.87 438.16,-321.49"/>
</a>
</g>
</g>
<!-- Node18 -->
<g id="Node000018" class="node">
<title>Node18</title>
<g id="a_Node000018"><a xlink:href="group__elements.html#a71cf2eb89a562527f14c4ca4c027c2b9" target="_top" xlink:title=" ">
<polygon fill="white" stroke="#666666" points="524.88,-370 433.12,-370 433.12,-338 524.88,-338 524.88,-370"/>
<text text-anchor="start" x="441.12" y="-358.4" font-family="SourceSans" font-size="8.00">svg::group_element</text>
<text text-anchor="middle" x="479" y="-346.4" font-family="SourceSans" font-size="8.00">::finish_group</text>
</a>
</g>
</g>
<!-- Node17&#45;&gt;Node18 -->
<g id="edge18_Node000017_Node000018" class="edge">
<title>Node17&#45;&gt;Node18</title>
<g id="a_edge18_Node000017_Node000018"><a xlink:title=" ">
<path fill="none" stroke="#63b8ff" d="M378.82,-354C392.41,-354 407.47,-354 421.68,-354"/>
<polygon fill="#63b8ff" stroke="#63b8ff" points="421.32,-357.5 431.32,-354 421.32,-350.5 421.32,-357.5"/>
</a>
</g>
</g>
<!-- Node21&#45;&gt;Node6 -->
<g id="edge24_Node000021_Node000006" class="edge">
<title>Node21&#45;&gt;Node6</title>
<g id="a_edge24_Node000021_Node000006"><a xlink:title=" ">
<path fill="none" stroke="#63b8ff" d="M378.82,-304C390.24,-304 402.7,-304 414.82,-304"/>
<polygon fill="#63b8ff" stroke="#63b8ff" points="414.77,-307.5 424.77,-304 414.77,-300.5 414.77,-307.5"/>
</a>
</g>
</g>
<!-- Node23 -->
<g id="Node000023" class="node">
<title>Node23</title>
<g id="a_Node000023"><a xlink:href="namespacesvg_1_1constants.html#a70757c054f02146f803e0e40071734a9" target="_top" xlink:title=" ">
<polygon fill="white" stroke="#666666" points="530.12,-496 427.88,-496 427.88,-476 530.12,-476 530.12,-496"/>
<text text-anchor="middle" x="479" y="-484.4" font-family="SourceSans" font-size="8.00">svg::constants::comma</text>
</a>
</g>
</g>
<!-- Node22&#45;&gt;Node23 -->
<g id="edge26_Node000022_Node000023" class="edge">
<title>Node22&#45;&gt;Node23</title>
<g id="a_edge26_Node000022_Node000023"><a xlink:title=" ">
<path fill="none" stroke="#63b8ff" d="M387.31,-486C396.66,-486 406.46,-486 416.01,-486"/>
<polygon fill="#63b8ff" stroke="#63b8ff" points="415.99,-489.5 425.99,-486 415.99,-482.5 415.99,-489.5"/>
</a>
</g>
</g>
<!-- Node25&#45;&gt;Node13 -->
<g id="edge34_Node000025_Node000013" class="edge">
<title>Node25&#45;&gt;Node13</title>
<g id="a_edge34_Node000025_Node000013"><a xlink:title=" ">
<path fill="none" stroke="#63b8ff" d="M199.35,-151.41C217.99,-161.84 247.81,-178.16 274.25,-191 276.95,-192.31 279.73,-193.63 282.55,-194.94"/>
<polygon fill="#63b8ff" stroke="#63b8ff" points="280.88,-198.03 291.43,-198.98 283.78,-191.65 280.88,-198.03"/>
</a>
</g>
</g>
<!-- Node26 -->
<g id="Node000026" class="node">
<title>Node26</title>
<g id="a_Node000026"><a xlink:href="group__elements.html#a519382631540ecedee961bfb53e9ae87" target="_top" xlink:title=" ">
<polygon fill="white" stroke="#666666" points="376.5,-82 288.5,-82 288.5,-50 376.5,-50 376.5,-82"/>
<text text-anchor="start" x="296.5" y="-70.4" font-family="SourceSans" font-size="8.00">svg::circle_element</text>
<text text-anchor="middle" x="332.5" y="-58.4" font-family="SourceSans" font-size="8.00">::add_data</text>
</a>
</g>
</g>
<!-- Node25&#45;&gt;Node26 -->
<g id="edge29_Node000025_Node000026" class="edge">
<title>Node25&#45;&gt;Node26</title>
<g id="a_edge29_Node000025_Node000026"><a xlink:title=" ">
<path fill="none" stroke="#63b8ff" d="M199.35,-130.59C217.99,-120.16 247.81,-103.84 274.25,-91 276.95,-89.69 279.73,-88.37 282.55,-87.06"/>
<polygon fill="#63b8ff" stroke="#63b8ff" points="283.78,-90.35 291.43,-83.02 280.88,-83.97 283.78,-90.35"/>
</a>
</g>
</g>
<!-- Node30 -->
<g id="Node000030" class="node">
<title>Node30</title>
<g id="a_Node000030"><a xlink:href="group__elements.html#a238b38ca99a1cf6c2baf80c8e4338d99" target="_top" xlink:title=" ">
<polygon fill="white" stroke="#666666" points="378,-132 287,-132 287,-100 378,-100 378,-132"/>
<text text-anchor="start" x="295" y="-120.4" font-family="SourceSans" font-size="8.00">svg::element_base::</text>
<text text-anchor="middle" x="332.5" y="-108.4" font-family="SourceSans" font-size="8.00">add_style</text>
</a>
</g>
</g>
<!-- Node25&#45;&gt;Node30 -->
<g id="edge35_Node000025_Node000030" class="edge">
<title>Node25&#45;&gt;Node30</title>
<g id="a_edge35_Node000025_Node000030"><a xlink:title=" ">
<path fill="none" stroke="#63b8ff" d="M224.13,-133.84C240.16,-131.17 258.59,-128.11 275.6,-125.29"/>
<polygon fill="#63b8ff" stroke="#63b8ff" points="275.75,-128.81 285.04,-123.72 274.6,-121.9 275.75,-128.81"/>
</a>
</g>
</g>
<!-- Node32 -->
<g id="Node000032" class="node">
<title>Node32</title>
<g id="a_Node000032"><a xlink:href="group__elements.html#ga98a1538c46e39122d8199c12b3a57b5d" target="_top" xlink:title=" ">
<polygon fill="white" stroke="#666666" points="376.5,-182 288.5,-182 288.5,-150 376.5,-150 376.5,-182"/>
<text text-anchor="start" x="296.5" y="-170.4" font-family="SourceSans" font-size="8.00">svg::circle_element</text>
<text text-anchor="middle" x="332.5" y="-158.4" font-family="SourceSans" font-size="8.00">::finish_element</text>
</a>
</g>
</g>
<!-- Node25&#45;&gt;Node32 -->
<g id="edge37_Node000025_Node000032" class="edge">
<title>Node25&#45;&gt;Node32</title>
<g id="a_edge37_Node000025_Node000032"><a xlink:title=" ">
<path fill="none" stroke="#63b8ff" d="M224.13,-148.16C240.59,-150.9 259.57,-154.05 276.95,-156.94"/>
<polygon fill="#63b8ff" stroke="#63b8ff" points="276.17,-160.36 286.61,-158.54 277.32,-153.45 276.17,-160.36"/>
</a>
</g>
</g>
<!-- Node33 -->
<g id="Node000033" class="node">
<title>Node33</title>
<g id="a_Node000033"><a xlink:href="group__elements.html#a793cb6b40b2aea335b11f14fd327cde8" target="_top" xlink:title=" ">
<polygon fill="white" stroke="#666666" points="376.5,-32 288.5,-32 288.5,0 376.5,0 376.5,-32"/>
<text text-anchor="start" x="296.5" y="-20.4" font-family="SourceSans" font-size="8.00">svg::circle_element</text>
<text text-anchor="middle" x="332.5" y="-8.4" font-family="SourceSans" font-size="8.00">::start_element</text>
</a>
</g>
</g>
<!-- Node25&#45;&gt;Node33 -->
<g id="edge39_Node000025_Node000033" class="edge">
<title>Node25&#45;&gt;Node33</title>
<g id="a_edge39_Node000025_Node000033"><a xlink:title=" ">
<path fill="none" stroke="#63b8ff" d="M188.37,-130.62C202.84,-110.87 236.86,-67.47 274.25,-41 275.77,-39.92 277.35,-38.88 278.96,-37.87"/>
<polygon fill="#63b8ff" stroke="#63b8ff" points="280.26,-41.15 287.23,-33.17 276.81,-35.06 280.26,-41.15"/>
</a>
</g>
</g>
<!-- Node27 -->
<g id="Node000027" class="node">
<title>Node27</title>
<g id="a_Node000027"><a xlink:href="group__elements.html#a53d72a7ff728ad1d4d027254530bcf3d" target="_top" xlink:title="Common transforms include rotate(180)">
<polygon fill="white" stroke="#666666" points="524.5,-107 433.5,-107 433.5,-75 524.5,-75 524.5,-107"/>
<text text-anchor="start" x="441.5" y="-95.4" font-family="SourceSans" font-size="8.00">svg::element_base::</text>
<text text-anchor="middle" x="479" y="-83.4" font-family="SourceSans" font-size="8.00">add_transform</text>
</a>
</g>
</g>
<!-- Node26&#45;&gt;Node27 -->
<g id="edge30_Node000026_Node000027" class="edge">
<title>Node26&#45;&gt;Node27</title>
<g id="a_edge30_Node000026_Node000027"><a xlink:title=" ">
<path fill="none" stroke="#63b8ff" d="M376.85,-73.5C391.03,-75.95 406.98,-78.71 421.96,-81.3"/>
<polygon fill="#63b8ff" stroke="#63b8ff" points="421.23,-84.73 431.68,-82.99 422.42,-77.83 421.23,-84.73"/>
</a>
</g>
</g>
<!-- Node29 -->
<g id="Node000029" class="node">
<title>Node29</title>
<g id="a_Node000029"><a xlink:href="namespacesvg.html#a48ac748e89e22789d1772326a98dd7b6" target="_top" xlink:title=" ">
<polygon fill="white" stroke="#666666" points="522.62,-57 435.38,-57 435.38,-37 522.62,-37 522.62,-57"/>
<text text-anchor="middle" x="479" y="-45.4" font-family="SourceSans" font-size="8.00">svg::string_replace</text>
</a>
</g>
</g>
<!-- Node26&#45;&gt;Node29 -->
<g id="edge33_Node000026_Node000029" class="edge">
<title>Node26&#45;&gt;Node29</title>
<g id="a_edge33_Node000026_Node000029"><a xlink:title=" ">
<path fill="none" stroke="#63b8ff" d="M376.85,-60.3C391.71,-58.35 408.51,-56.14 424.09,-54.09"/>
<polygon fill="#63b8ff" stroke="#63b8ff" points="424.21,-57.6 433.67,-52.83 423.3,-50.66 424.21,-57.6"/>
</a>
</g>
</g>
<!-- Node27&#45;&gt;Node16 -->
<g id="edge32_Node000027_Node000016" class="edge">
<title>Node27&#45;&gt;Node16</title>
<g id="a_edge32_Node000027_Node000016"><a xlink:title=" ">
<path fill="none" stroke="#63b8ff" d="M522.06,-107.45C525.48,-109.94 528.62,-112.78 531.25,-116 607.27,-209.27 615.02,-363.47 615.14,-420.19"/>
<polygon fill="#63b8ff" stroke="#63b8ff" points="611.64,-420.06 615.07,-430.08 618.64,-420.11 611.64,-420.06"/>
</a>
</g>
</g>
<!-- Node28 -->
<g id="Node000028" class="node">
<title>Node28</title>
<g id="a_Node000028"><a xlink:href="namespacesvg_1_1constants.html#a3972655f1dfdc090ec2592d1fb37e87c" target="_top" xlink:title=" ">
<polygon fill="white" stroke="#666666" points="664.25,-101 567.25,-101 567.25,-81 664.25,-81 664.25,-101"/>
<text text-anchor="middle" x="615.75" y="-89.4" font-family="SourceSans" font-size="8.00">svg::constants::quote</text>
</a>
</g>
</g>
<!-- Node27&#45;&gt;Node28 -->
<g id="edge31_Node000027_Node000028" class="edge">
<title>Node27&#45;&gt;Node28</title>
<g id="a_edge31_Node000027_Node000028"><a xlink:title=" ">
<path fill="none" stroke="#63b8ff" d="M524.87,-91C534.66,-91 545.17,-91 555.42,-91"/>
<polygon fill="#63b8ff" stroke="#63b8ff" points="555.33,-94.5 565.33,-91 555.33,-87.5 555.33,-94.5"/>
</a>
</g>
</g>
<!-- Node31 -->
<g id="Node000031" class="node">
<title>Node31</title>
<g id="a_Node000031"><a xlink:href="namespacesvg.html#a36b1c48ad4601b205790e3772ad0a7b6" target="_top" xlink:title=" ">
<polygon fill="white" stroke="#666666" points="512.5,-145 445.5,-145 445.5,-125 512.5,-125 512.5,-145"/>
<text text-anchor="middle" x="479" y="-133.4" font-family="SourceSans" font-size="8.00">svg::to_string</text>
</a>
</g>
</g>
<!-- Node30&#45;&gt;Node31 -->
<g id="edge36_Node000030_Node000031" class="edge">
<title>Node30&#45;&gt;Node31</title>
<g id="a_edge36_Node000030_Node000031"><a xlink:title=" ">
<path fill="none" stroke="#63b8ff" d="M378.43,-121.91C396.01,-124.22 416.13,-126.87 433.66,-129.17"/>
<polygon fill="#63b8ff" stroke="#63b8ff" points="433.16,-132.63 443.53,-130.47 434.08,-125.69 433.16,-132.63"/>
</a>
</g>
</g>
<!-- Node32&#45;&gt;Node6 -->
<g id="edge38_Node000032_Node000006" class="edge">
<title>Node32&#45;&gt;Node6</title>
<g id="a_edge38_Node000032_Node000006"><a xlink:title=" ">
<path fill="none" stroke="#63b8ff" d="M376.75,-182.03C381.69,-184.68 386.47,-187.66 390.75,-191 395.31,-194.56 439.67,-253.08 463.32,-284.47"/>
<polygon fill="#63b8ff" stroke="#63b8ff" points="460.47,-286.5 469.28,-292.39 466.06,-282.3 460.47,-286.5"/>
</a>
</g>
</g>
</g>
</svg>
