<?xml version="1.0" encoding="UTF-8" standalone="no"?>
<!DOCTYPE svg PUBLIC "-//W3C//DTD SVG 1.1//EN"
 "http://www.w3.org/Graphics/SVG/1.1/DTD/svg11.dtd">
<!-- Generated by graphviz version 12.2.1 (20241206.2353)
 -->
<!-- Title: svg::composite_bleed_areas Pages: 1 -->
<!--zoomable 278 -->

<svg id="main" version="1.1" xmlns="http://www.w3.org/2000/svg" xmlns:xlink="http://www.w3.org/1999/xlink" xml:space="preserve" onload="init(evt)">

<style type="text/css"><![CDATA[
.node, .edge {opacity: 0.7;}
.node.selected, .edge.selected {opacity: 1;}
.edge:hover path { stroke: red; }
.edge:hover polygon { stroke: red; fill: red; }
]]></style>

<defs>
  <circle id="rim" cx="0" cy="0" r="7"/>
  <circle id="rim2" cx="0" cy="0" r="3.5"/>
  <g id="zoomPlus">
    <use xlink:href="#rim" fill="#404040"><set attributeName="fill" to="#808080" begin="zoomplus.mouseover" end="zoomplus.mouseout"/></use>
    <path d="M-4,0h8M0,-4v8" fill="none" stroke="white" stroke-width="1.5" pointer-events="none"/>
  </g>
  <g id="zoomMin">
    <use xlink:href="#rim" fill="#404040"><set attributeName="fill" to="#808080" begin="zoomminus.mouseover" end="zoomminus.mouseout"/></use>
    <path d="M-4,0h8" fill="none" stroke="white" stroke-width="1.5" pointer-events="none"/>
  </g>
  <g id="arrowUp" transform="translate(30 24)">
    <use xlink:href="#rim"/>
    <path pointer-events="none" fill="none" stroke="white" stroke-width="1.5" d="M0,-3.0v7 M-2.5,-0.5L0,-3.0L2.5,-0.5"/>
  </g>
  <g id="arrowRight" transform="rotate(90) translate(36 -43)">
    <use xlink:href="#rim"/>
    <path pointer-events="none" fill="none" stroke="white" stroke-width="1.5" d="M0,-3.0v7 M-2.5,-0.5L0,-3.0L2.5,-0.5"/>
  </g>
  <g id="arrowDown" transform="rotate(180) translate(-30 -48)">
    <use xlink:href="#rim"/>
    <path pointer-events="none" fill="none" stroke="white" stroke-width="1.5" d="M0,-3.0v7 M-2.5,-0.5L0,-3.0L2.5,-0.5"/>
  </g>
  <g id="arrowLeft" transform="rotate(270) translate(-36 17)">
    <use xlink:href="#rim"/>
    <path pointer-events="none" fill="none" stroke="white" stroke-width="1.5" d="M0,-3.0v7 M-2.5,-0.5L0,-3.0L2.5,-0.5"/>
  </g>
  <g id="resetDef">
    <use xlink:href="#rim2" fill="#404040"><set attributeName="fill" to="#808080" begin="reset.mouseover" end="reset.mouseout"/></use>
  </g>
</defs>
<script type="application/ecmascript">
var viewWidth = 678;
var viewHeight = 278;
var sectionId = 'dynsection-8';
</script>
<script type="application/ecmascript" xlink:href="svg.min.js"/>
<svg id="graph" class="graph">
<g id="viewport">
<title>svg::composite_bleed_areas</title>
<!-- Node1 -->
<g id="Node000001" class="node">
<title>Node1</title>
<g id="a_Node000001"><a xlink:title="Composite frame on bleed. For printed objects with a center gutter, some intra&#45;page adjustments are n...">
<polygon fill="#999999" stroke="#666666" points="97.75,-129 0,-129 0,-97 97.75,-97 97.75,-129"/>
<text text-anchor="start" x="8" y="-117.4" font-family="SourceSans" font-size="8.00">svg::composite_bleed</text>
<text text-anchor="middle" x="48.88" y="-105.4" font-family="SourceSans" font-size="8.00">_areas</text>
</a>
</g>
</g>
<!-- Node2 -->
<g id="Node000002" class="node">
<title>Node2</title>
<g id="a_Node000002"><a xlink:href="namespacesvg.html#ab80d668629ba7db3cf50dc732f0d82b2" target="_top" xlink:title="Resolution of output display device.">
<polygon fill="white" stroke="#666666" points="216.5,-145 154,-145 154,-125 216.5,-125 216.5,-145"/>
<text text-anchor="middle" x="185.25" y="-133.4" font-family="SourceSans" font-size="8.00">svg::get_dpi</text>
</a>
</g>
</g>
<!-- Node1&#45;&gt;Node2 -->
<g id="edge1_Node000001_Node000002" class="edge">
<title>Node1&#45;&gt;Node2</title>
<g id="a_edge1_Node000001_Node000002"><a xlink:title=" ">
<path fill="none" stroke="#63b8ff" d="M98.01,-120.88C112.48,-123.25 128.24,-125.83 142.28,-128.13"/>
<polygon fill="#63b8ff" stroke="#63b8ff" points="141.68,-131.58 152.11,-129.74 142.81,-124.67 141.68,-131.58"/>
</a>
</g>
</g>
<!-- Node3 -->
<g id="Node000003" class="node">
<title>Node3</title>
<g id="a_Node000003"><a xlink:href="group__elements.html#a83eb3152f92ca357473c2ef8f23ced98" target="_top" xlink:title="SVG element beginning boilerplate for outermost (containing) svg_element. Variable: unit,...">
<polygon fill="white" stroke="#666666" points="236.75,-107 133.75,-107 133.75,-75 236.75,-75 236.75,-107"/>
<text text-anchor="start" x="141.75" y="-95.4" font-family="SourceSans" font-size="8.00">svg::svg_element::start</text>
<text text-anchor="middle" x="185.25" y="-83.4" font-family="SourceSans" font-size="8.00">_element</text>
</a>
</g>
</g>
<!-- Node1&#45;&gt;Node3 -->
<g id="edge2_Node000001_Node000003" class="edge">
<title>Node1&#45;&gt;Node3</title>
<g id="a_edge2_Node000001_Node000003"><a xlink:title=" ">
<path fill="none" stroke="#63b8ff" d="M98.01,-105.12C105.79,-103.85 113.94,-102.51 122,-101.19"/>
<polygon fill="#63b8ff" stroke="#63b8ff" points="122.48,-104.66 131.78,-99.59 121.35,-97.75 122.48,-104.66"/>
</a>
</g>
</g>
<!-- Node4 -->
<g id="Node000004" class="node">
<title>Node4</title>
<g id="a_Node000004"><a xlink:href="group__elements.html#ad47933f8c0bfc36987493c7e3b3bbcbd" target="_top" xlink:title=" ">
<polygon fill="white" stroke="#666666" points="375.75,-120 272.75,-120 272.75,-100 375.75,-100 375.75,-120"/>
<text text-anchor="middle" x="324.25" y="-108.4" font-family="SourceSans" font-size="8.00">svg::svg_element::start</text>
</a>
</g>
</g>
<!-- Node3&#45;&gt;Node4 -->
<g id="edge3_Node000003_Node000004" class="edge">
<title>Node3&#45;&gt;Node4</title>
<g id="a_edge3_Node000003_Node000004"><a xlink:title=" ">
<path fill="none" stroke="#63b8ff" d="M236.87,-91.48C250.81,-93.08 265.8,-95.22 279.33,-97.56"/>
<polygon fill="#63b8ff" stroke="#63b8ff" points="278.33,-100.94 288.79,-99.29 279.59,-94.05 278.33,-100.94"/>
</a>
</g>
</g>
<!-- Node14 -->
<g id="Node000014" class="node">
<title>Node14</title>
<g id="a_Node000014"><a xlink:href="namespacesvg.html#a48ac748e89e22789d1772326a98dd7b6" target="_top" xlink:title=" ">
<polygon fill="white" stroke="#666666" points="367.88,-82 280.62,-82 280.62,-62 367.88,-62 367.88,-82"/>
<text text-anchor="middle" x="324.25" y="-70.4" font-family="SourceSans" font-size="8.00">svg::string_replace</text>
</a>
</g>
</g>
<!-- Node3&#45;&gt;Node14 -->
<g id="edge16_Node000003_Node000014" class="edge">
<title>Node3&#45;&gt;Node14</title>
<g id="a_edge16_Node000003_Node000014"><a xlink:title=" ">
<path fill="none" stroke="#63b8ff" d="M236.87,-83.98C247.4,-82.52 258.53,-80.98 269.17,-79.5"/>
<polygon fill="#63b8ff" stroke="#63b8ff" points="269.55,-82.98 278.98,-78.14 268.59,-76.05 269.55,-82.98"/>
</a>
</g>
</g>
<!-- Node15 -->
<g id="Node000015" class="node">
<title>Node15</title>
<g id="a_Node000015"><a xlink:href="namespacesvg.html#a36b1c48ad4601b205790e3772ad0a7b6" target="_top" xlink:title=" ">
<polygon fill="white" stroke="#666666" points="357.75,-44 290.75,-44 290.75,-24 357.75,-24 357.75,-44"/>
<text text-anchor="middle" x="324.25" y="-32.4" font-family="SourceSans" font-size="8.00">svg::to_string</text>
</a>
</g>
</g>
<!-- Node3&#45;&gt;Node15 -->
<g id="edge17_Node000003_Node000015" class="edge">
<title>Node3&#45;&gt;Node15</title>
<g id="a_edge17_Node000003_Node000015"><a xlink:title=" ">
<path fill="none" stroke="#63b8ff" d="M222.26,-74.66C237.72,-67.78 256.04,-59.81 272.75,-53 276.37,-51.52 280.16,-50.02 283.96,-48.55"/>
<polygon fill="#63b8ff" stroke="#63b8ff" points="285.07,-51.87 293.16,-45.02 282.56,-45.33 285.07,-51.87"/>
</a>
</g>
</g>
<!-- Node4&#45;&gt;Node3 -->
<g id="edge15_Node000004_Node000003" class="edge">
<title>Node4&#45;&gt;Node3</title>
<g id="a_edge15_Node000004_Node000003"><a xlink:title=" ">
<path fill="none" stroke="#63b8ff" d="M272.38,-109.49C264.49,-108.58 256.28,-107.5 248.19,-106.31"/>
<polygon fill="#63b8ff" stroke="#63b8ff" points="248.79,-102.86 238.37,-104.79 247.72,-109.78 248.79,-102.86"/>
</a>
</g>
</g>
<!-- Node5 -->
<g id="Node000005" class="node">
<title>Node5</title>
<g id="a_Node000005"><a xlink:href="group__elements.html#a4a6af4e23b9f79f07d58780c128c5638" target="_top" xlink:title=" ">
<polygon fill="white" stroke="#666666" points="533.5,-120 411.75,-120 411.75,-100 533.5,-100 533.5,-120"/>
<text text-anchor="middle" x="472.62" y="-108.4" font-family="SourceSans" font-size="8.00">svg::svg_element::add_desc</text>
</a>
</g>
</g>
<!-- Node4&#45;&gt;Node5 -->
<g id="edge4_Node000004_Node000005" class="edge">
<title>Node4&#45;&gt;Node5</title>
<g id="a_edge4_Node000004_Node000005"><a xlink:title=" ">
<path fill="none" stroke="#63b8ff" d="M376.03,-110C383.78,-110 391.89,-110 399.98,-110"/>
<polygon fill="#63b8ff" stroke="#63b8ff" points="399.85,-113.5 409.85,-110 399.85,-106.5 399.85,-113.5"/>
</a>
</g>
</g>
<!-- Node10 -->
<g id="Node000010" class="node">
<title>Node10</title>
<g id="a_Node000010"><a xlink:href="group__elements.html#a950cbe5a602d34d0affc61bb66512c82" target="_top" xlink:title=" ">
<polygon fill="white" stroke="#666666" points="523,-82 422.25,-82 422.25,-50 523,-50 523,-82"/>
<text text-anchor="start" x="430.25" y="-70.4" font-family="SourceSans" font-size="8.00">svg::svg_element::add</text>
<text text-anchor="middle" x="472.62" y="-58.4" font-family="SourceSans" font-size="8.00">_filters</text>
</a>
</g>
</g>
<!-- Node4&#45;&gt;Node10 -->
<g id="edge9_Node000004_Node000010" class="edge">
<title>Node4&#45;&gt;Node10</title>
<g id="a_edge9_Node000004_Node000010"><a xlink:title=" ">
<path fill="none" stroke="#63b8ff" d="M359.94,-99.57C375.27,-94.96 393.75,-89.41 411.23,-84.15"/>
<polygon fill="#63b8ff" stroke="#63b8ff" points="411.93,-87.6 420.5,-81.37 409.92,-80.9 411.93,-87.6"/>
</a>
</g>
</g>
<!-- Node11 -->
<g id="Node000011" class="node">
<title>Node11</title>
<g id="a_Node000011"><a xlink:href="group__elements.html#a26869d2a66e57c0d83f2df21d25cd875" target="_top" xlink:title=" ">
<polygon fill="white" stroke="#666666" points="523,-170 422.25,-170 422.25,-138 523,-138 523,-170"/>
<text text-anchor="start" x="430.25" y="-158.4" font-family="SourceSans" font-size="8.00">svg::svg_element::add</text>
<text text-anchor="middle" x="472.62" y="-146.4" font-family="SourceSans" font-size="8.00">_title</text>
</a>
</g>
</g>
<!-- Node4&#45;&gt;Node11 -->
<g id="edge10_Node000004_Node000011" class="edge">
<title>Node4&#45;&gt;Node11</title>
<g id="a_edge10_Node000004_Node000011"><a xlink:title=" ">
<path fill="none" stroke="#63b8ff" d="M359.94,-120.43C375.27,-125.04 393.75,-130.59 411.23,-135.85"/>
<polygon fill="#63b8ff" stroke="#63b8ff" points="409.92,-139.1 420.5,-138.63 411.93,-132.4 409.92,-139.1"/>
</a>
</g>
</g>
<!-- Node6 -->
<g id="Node000006" class="node">
<title>Node6</title>
<g id="a_Node000006"><a xlink:href="group__elements.html#acafbdd950c6c2639c9d376c3eab696e5" target="_top" xlink:title=" ">
<polygon fill="white" stroke="#666666" points="665.38,-170 574.38,-170 574.38,-138 665.38,-138 665.38,-170"/>
<text text-anchor="start" x="582.38" y="-158.4" font-family="SourceSans" font-size="8.00">svg::element_base::</text>
<text text-anchor="middle" x="619.88" y="-146.4" font-family="SourceSans" font-size="8.00">add_raw</text>
</a>
</g>
</g>
<!-- Node5&#45;&gt;Node6 -->
<g id="edge5_Node000005_Node000006" class="edge">
<title>Node5&#45;&gt;Node6</title>
<g id="a_edge5_Node000005_Node000006"><a xlink:title=" ">
<path fill="none" stroke="#63b8ff" d="M508.05,-120.43C524.45,-125.4 544.49,-131.47 562.99,-137.07"/>
<polygon fill="#63b8ff" stroke="#63b8ff" points="561.94,-140.41 572.52,-139.96 563.96,-133.71 561.94,-140.41"/>
</a>
</g>
</g>
<!-- Node7 -->
<g id="Node000007" class="node">
<title>Node7</title>
<g id="a_Node000007"><a xlink:href="group__elements.html#ga03da556ae8f749df1cf8463111e996d3" target="_top" xlink:title=" ">
<polygon fill="white" stroke="#666666" points="665,-82 574.75,-82 574.75,-50 665,-50 665,-82"/>
<text text-anchor="start" x="582.75" y="-70.4" font-family="SourceSans" font-size="8.00">svg::desc_element::</text>
<text text-anchor="middle" x="619.88" y="-58.4" font-family="SourceSans" font-size="8.00">finish_element</text>
</a>
</g>
</g>
<!-- Node5&#45;&gt;Node7 -->
<g id="edge6_Node000005_Node000007" class="edge">
<title>Node5&#45;&gt;Node7</title>
<g id="a_edge6_Node000005_Node000007"><a xlink:title=" ">
<path fill="none" stroke="#63b8ff" d="M508.05,-99.57C524.67,-94.54 545.02,-88.37 563.73,-82.71"/>
<polygon fill="#63b8ff" stroke="#63b8ff" points="564.51,-86.13 573.06,-79.88 562.48,-79.43 564.51,-86.13"/>
</a>
</g>
</g>
<!-- Node8 -->
<g id="Node000008" class="node">
<title>Node8</title>
<g id="a_Node000008"><a xlink:href="group__elements.html#a90ffdd73579c45cd0740dc9efa2f5445" target="_top" xlink:title=" ">
<polygon fill="white" stroke="#666666" points="665,-32 574.75,-32 574.75,0 665,0 665,-32"/>
<text text-anchor="start" x="582.75" y="-20.4" font-family="SourceSans" font-size="8.00">svg::desc_element::</text>
<text text-anchor="middle" x="619.88" y="-8.4" font-family="SourceSans" font-size="8.00">start_element</text>
</a>
</g>
</g>
<!-- Node5&#45;&gt;Node8 -->
<g id="edge7_Node000005_Node000008" class="edge">
<title>Node5&#45;&gt;Node8</title>
<g id="a_edge7_Node000005_Node000008"><a xlink:title=" ">
<path fill="none" stroke="#63b8ff" d="M518.03,-99.5C523.51,-97.19 528.82,-94.39 533.5,-91 555.67,-74.93 548.69,-58.8 569.5,-41 570.41,-40.22 571.35,-39.46 572.32,-38.71"/>
<polygon fill="#63b8ff" stroke="#63b8ff" points="573.96,-41.82 580.26,-33.3 570.02,-36.04 573.96,-41.82"/>
</a>
</g>
</g>
<!-- Node9 -->
<g id="Node000009" class="node">
<title>Node9</title>
<g id="a_Node000009"><a xlink:href="group__elements.html#ad893ef9c13a15464c96d8a85c08af30f" target="_top" xlink:title=" ">
<polygon fill="white" stroke="#666666" points="670.25,-120 569.5,-120 569.5,-100 670.25,-100 670.25,-120"/>
<text text-anchor="middle" x="619.88" y="-108.4" font-family="SourceSans" font-size="8.00">svg::element_base::str</text>
</a>
</g>
</g>
<!-- Node5&#45;&gt;Node9 -->
<g id="edge8_Node000005_Node000009" class="edge">
<title>Node5&#45;&gt;Node9</title>
<g id="a_edge8_Node000005_Node000009"><a xlink:title=" ">
<path fill="none" stroke="#63b8ff" d="M533.96,-110C541.82,-110 549.87,-110 557.74,-110"/>
<polygon fill="#63b8ff" stroke="#63b8ff" points="557.58,-113.5 567.58,-110 557.58,-106.5 557.58,-113.5"/>
</a>
</g>
</g>
<!-- Node11&#45;&gt;Node6 -->
<g id="edge11_Node000011_Node000006" class="edge">
<title>Node11&#45;&gt;Node6</title>
<g id="a_edge11_Node000011_Node000006"><a xlink:title=" ">
<path fill="none" stroke="#63b8ff" d="M523.21,-154C535.92,-154 549.68,-154 562.7,-154"/>
<polygon fill="#63b8ff" stroke="#63b8ff" points="562.39,-157.5 572.39,-154 562.39,-150.5 562.39,-157.5"/>
</a>
</g>
</g>
<!-- Node11&#45;&gt;Node9 -->
<g id="edge14_Node000011_Node000009" class="edge">
<title>Node11&#45;&gt;Node9</title>
<g id="a_edge14_Node000011_Node000009"><a xlink:title=" ">
<path fill="none" stroke="#63b8ff" d="M523.21,-138.98C539.63,-134 557.81,-128.5 573.88,-123.63"/>
<polygon fill="#63b8ff" stroke="#63b8ff" points="574.61,-127.07 583.16,-120.82 572.58,-120.37 574.61,-127.07"/>
</a>
</g>
</g>
<!-- Node12 -->
<g id="Node000012" class="node">
<title>Node12</title>
<g id="a_Node000012"><a xlink:href="group__elements.html#ga3d62381f8edcccd3d91f82af55f11274" target="_top" xlink:title=" ">
<polygon fill="white" stroke="#666666" points="661.62,-270 578.12,-270 578.12,-238 661.62,-238 661.62,-270"/>
<text text-anchor="start" x="586.12" y="-258.4" font-family="SourceSans" font-size="8.00">svg::title_element</text>
<text text-anchor="middle" x="619.88" y="-246.4" font-family="SourceSans" font-size="8.00">::finish_element</text>
</a>
</g>
</g>
<!-- Node11&#45;&gt;Node12 -->
<g id="edge12_Node000011_Node000012" class="edge">
<title>Node11&#45;&gt;Node12</title>
<g id="a_edge12_Node000011_Node000012"><a xlink:title=" ">
<path fill="none" stroke="#63b8ff" d="M492.27,-170.38C511.03,-186.41 541.14,-210.97 569.5,-229 571.12,-230.03 572.78,-231.05 574.48,-232.05"/>
<polygon fill="#63b8ff" stroke="#63b8ff" points="572.64,-235.04 583.08,-236.89 576.08,-228.94 572.64,-235.04"/>
</a>
</g>
</g>
<!-- Node13 -->
<g id="Node000013" class="node">
<title>Node13</title>
<g id="a_Node000013"><a xlink:href="group__elements.html#a41dcaa1132c502cb86c01aae1e7b9ff2" target="_top" xlink:title=" ">
<polygon fill="white" stroke="#666666" points="661.62,-220 578.12,-220 578.12,-188 661.62,-188 661.62,-220"/>
<text text-anchor="start" x="586.12" y="-208.4" font-family="SourceSans" font-size="8.00">svg::title_element</text>
<text text-anchor="middle" x="619.88" y="-196.4" font-family="SourceSans" font-size="8.00">::start_element</text>
</a>
</g>
</g>
<!-- Node11&#45;&gt;Node13 -->
<g id="edge13_Node000011_Node000013" class="edge">
<title>Node11&#45;&gt;Node13</title>
<g id="a_edge13_Node000011_Node000013"><a xlink:title=" ">
<path fill="none" stroke="#63b8ff" d="M521.19,-170.37C535.97,-175.46 552.32,-181.09 567.36,-186.27"/>
<polygon fill="#63b8ff" stroke="#63b8ff" points="566.01,-189.5 576.6,-189.45 568.29,-182.88 566.01,-189.5"/>
</a>
</g>
</g>
</g>
</svg>

<g id="navigator" transform="translate(0 0)" fill="#404254">
  <rect fill="#f2f5e9" fill-opacity="0.5" stroke="#606060" stroke-width=".5" x="0" y="0" width="60" height="60"/>
  <use id="zoomplus" xlink:href="#zoomPlus" x="17" y="9" onmousedown="handleZoom(evt,'in')"/>
  <use id="zoomminus" xlink:href="#zoomMin" x="42" y="9" onmousedown="handleZoom(evt,'out')"/>
  <use id="reset" xlink:href="#resetDef" x="30" y="36" onmousedown="handleReset()"/>
   <use id="arrowup" xlink:href="#arrowUp" x="0" y="0" onmousedown="handlePan(0,-1)"/>
  <use id="arrowright" xlink:href="#arrowRight" x="0" y="0" onmousedown="handlePan(1,0)"/>
  <use id="arrowdown" xlink:href="#arrowDown" x="0" y="0" onmousedown="handlePan(0,1)"/>
  <use id="arrowleft" xlink:href="#arrowLeft" x="0" y="0" onmousedown="handlePan(-1,0)"/>
</g>
<svg viewBox="0 0 15 15" width="100%" height="30px" preserveAspectRatio="xMaxYMin meet">
 <g id="arrow_out" transform="scale(0.3 0.3)">
  <a xlink:href="namespacesvg_a5b62cd0102843b46d6567fa161b305a3_cgraph_org.svg" target="_base">
   <rect id="button" ry="5" rx="5" y="6" x="6" height="38" width="38"
        fill="#f2f5e9" fill-opacity="0.5" stroke="#606060" stroke-width="1.0"/>
   <path id="arrow"
     d="M 11.500037,31.436501 C 11.940474,20.09759 22.043105,11.32322 32.158766,21.979434 L 37.068811,17.246167 C 37.068811,17.246167 37.088388,32 37.088388,32 L 22.160133,31.978069 C 22.160133,31.978069 26.997745,27.140456 26.997745,27.140456 C 18.528582,18.264221 13.291696,25.230495 11.500037,31.436501 z"
     style="fill:#404040;"/>
  </a>
 </g>
</svg>

<style type='text/css'>
<![CDATA[
[data-mouse-over-selected='false'] { opacity: 0.7; }
[data-mouse-over-selected='true']  { opacity: 1.0; }
]]>
</style>
<script type="application/ecmascript"><![CDATA[
document.addEventListener('DOMContentLoaded', (event) => {
  highlightEdges();
  highlightAdjacentNodes();
});
]]></script>
</svg>
