<?xml version="1.0" encoding="UTF-8" standalone="no"?>
<!DOCTYPE svg PUBLIC "-//W3C//DTD SVG 1.1//EN"
 "http://www.w3.org/Graphics/SVG/1.1/DTD/svg11.dtd">
<!-- Generated by graphviz version 13.1.2 (20250808.2320)
 -->
<!-- Title: svg::make_circle Pages: 1 -->
<svg width="491pt" height="228pt"
 viewBox="0.00 0.00 491.00 228.00" xmlns="http://www.w3.org/2000/svg" xmlns:xlink="http://www.w3.org/1999/xlink">
<g id="graph0" class="graph" transform="scale(1 1) rotate(0) translate(4 224)">
<title>svg::make_circle</title>
<!-- Node1 -->
<g id="Node000001" class="node">
<title>Node1</title>
<g id="a_Node000001"><a xlink:title="Make circle element.">
<polygon fill="#999999" stroke="#666666" points="77.5,-101 0,-101 0,-81 77.5,-81 77.5,-101"/>
<text xml:space="preserve" text-anchor="middle" x="38.75" y="-89.4" font-family="SourceSans" font-size="8.00">svg::make_circle</text>
</a>
</g>
</g>
<!-- Node2 -->
<g id="Node000002" class="node">
<title>Node2</title>
<g id="a_Node000002"><a xlink:href="group__elements.html#a519382631540ecedee961bfb53e9ae87" target="_top" xlink:title=" ">
<polygon fill="white" stroke="#666666" points="203,-182 115,-182 115,-150 203,-150 203,-182"/>
<text xml:space="preserve" text-anchor="start" x="123" y="-170.4" font-family="SourceSans" font-size="8.00">svg::circle_element</text>
<text xml:space="preserve" text-anchor="middle" x="159" y="-158.4" font-family="SourceSans" font-size="8.00">::add_data</text>
</a>
</g>
</g>
<!-- Node1&#45;&gt;Node2 -->
<g id="edge1_Node000001_Node000002" class="edge">
<title>Node1&#45;&gt;Node2</title>
<g id="a_edge1_Node000001_Node000002"><a xlink:title=" ">
<path fill="none" stroke="#63b8ff" d="M54.2,-101.33C68.9,-111.71 92.45,-127.98 113.5,-141 115.11,-141.99 116.75,-142.99 118.42,-144"/>
<polygon fill="#63b8ff" stroke="#63b8ff" points="116.41,-146.87 126.81,-148.9 119.95,-140.83 116.41,-146.87"/>
</a>
</g>
</g>
<!-- Node6 -->
<g id="Node000006" class="node">
<title>Node6</title>
<g id="a_Node000006"><a xlink:href="group__elements.html#a238b38ca99a1cf6c2baf80c8e4338d99" target="_top" xlink:title=" ">
<polygon fill="white" stroke="#666666" points="204.5,-132 113.5,-132 113.5,-100 204.5,-100 204.5,-132"/>
<text xml:space="preserve" text-anchor="start" x="121.5" y="-120.4" font-family="SourceSans" font-size="8.00">svg::element_base::</text>
<text xml:space="preserve" text-anchor="middle" x="159" y="-108.4" font-family="SourceSans" font-size="8.00">add_style</text>
</a>
</g>
</g>
<!-- Node1&#45;&gt;Node6 -->
<g id="edge5_Node000001_Node000006" class="edge">
<title>Node1&#45;&gt;Node6</title>
<g id="a_edge5_Node000001_Node000006"><a xlink:title=" ">
<path fill="none" stroke="#63b8ff" d="M77.82,-99.05C85.61,-100.7 93.97,-102.46 102.25,-104.21"/>
<polygon fill="#63b8ff" stroke="#63b8ff" points="101.42,-107.62 111.93,-106.26 102.87,-100.77 101.42,-107.62"/>
</a>
</g>
</g>
<!-- Node8 -->
<g id="Node000008" class="node">
<title>Node8</title>
<g id="a_Node000008"><a xlink:href="group__elements.html#ga98a1538c46e39122d8199c12b3a57b5d" target="_top" xlink:title=" ">
<polygon fill="white" stroke="#666666" points="203,-82 115,-82 115,-50 203,-50 203,-82"/>
<text xml:space="preserve" text-anchor="start" x="123" y="-70.4" font-family="SourceSans" font-size="8.00">svg::circle_element</text>
<text xml:space="preserve" text-anchor="middle" x="159" y="-58.4" font-family="SourceSans" font-size="8.00">::finish_element</text>
</a>
</g>
</g>
<!-- Node1&#45;&gt;Node8 -->
<g id="edge7_Node000001_Node000008" class="edge">
<title>Node1&#45;&gt;Node8</title>
<g id="a_edge7_Node000001_Node000008"><a xlink:title=" ">
<path fill="none" stroke="#63b8ff" d="M77.82,-82.95C85.98,-81.23 94.77,-79.37 103.42,-77.54"/>
<polygon fill="#63b8ff" stroke="#63b8ff" points="104.12,-80.97 113.18,-75.48 102.67,-74.12 104.12,-80.97"/>
</a>
</g>
</g>
<!-- Node9 -->
<g id="Node000009" class="node">
<title>Node9</title>
<g id="a_Node000009"><a xlink:href="group__elements.html#a793cb6b40b2aea335b11f14fd327cde8" target="_top" xlink:title=" ">
<polygon fill="white" stroke="#666666" points="203,-32 115,-32 115,0 203,0 203,-32"/>
<text xml:space="preserve" text-anchor="start" x="123" y="-20.4" font-family="SourceSans" font-size="8.00">svg::circle_element</text>
<text xml:space="preserve" text-anchor="middle" x="159" y="-8.4" font-family="SourceSans" font-size="8.00">::start_element</text>
</a>
</g>
</g>
<!-- Node1&#45;&gt;Node9 -->
<g id="edge8_Node000001_Node000009" class="edge">
<title>Node1&#45;&gt;Node9</title>
<g id="a_edge8_Node000001_Node000009"><a xlink:title=" ">
<path fill="none" stroke="#63b8ff" d="M54.2,-80.67C68.9,-70.29 92.45,-54.02 113.5,-41 115.11,-40.01 116.75,-39.01 118.42,-38"/>
<polygon fill="#63b8ff" stroke="#63b8ff" points="119.95,-41.17 126.81,-33.1 116.41,-35.13 119.95,-41.17"/>
</a>
</g>
</g>
<!-- Node3 -->
<g id="Node000003" class="node">
<title>Node3</title>
<g id="a_Node000003"><a xlink:href="group__elements.html#a53d72a7ff728ad1d4d027254530bcf3d" target="_top" xlink:title=" ">
<polygon fill="white" stroke="#666666" points="331.5,-220 240.5,-220 240.5,-188 331.5,-188 331.5,-220"/>
<text xml:space="preserve" text-anchor="start" x="248.5" y="-208.4" font-family="SourceSans" font-size="8.00">svg::element_base::</text>
<text xml:space="preserve" text-anchor="middle" x="286" y="-196.4" font-family="SourceSans" font-size="8.00">add_transform</text>
</a>
</g>
</g>
<!-- Node2&#45;&gt;Node3 -->
<g id="edge2_Node000002_Node000003" class="edge">
<title>Node2&#45;&gt;Node3</title>
<g id="a_edge2_Node000002_Node000003"><a xlink:title=" ">
<path fill="none" stroke="#63b8ff" d="M203.37,-179.18C211.7,-181.72 220.53,-184.4 229.19,-187.03"/>
<polygon fill="#63b8ff" stroke="#63b8ff" points="227.98,-190.32 238.56,-189.88 230.01,-183.63 227.98,-190.32"/>
</a>
</g>
</g>
<!-- Node5 -->
<g id="Node000005" class="node">
<title>Node5</title>
<g id="a_Node000005"><a xlink:href="namespacesvg.html#a48ac748e89e22789d1772326a98dd7b6" target="_top" xlink:title=" ">
<polygon fill="white" stroke="#666666" points="329.62,-170 242.38,-170 242.38,-150 329.62,-150 329.62,-170"/>
<text xml:space="preserve" text-anchor="middle" x="286" y="-158.4" font-family="SourceSans" font-size="8.00">svg::string_replace</text>
</a>
</g>
</g>
<!-- Node2&#45;&gt;Node5 -->
<g id="edge4_Node000002_Node000005" class="edge">
<title>Node2&#45;&gt;Node5</title>
<g id="a_edge4_Node000002_Node000005"><a xlink:title=" ">
<path fill="none" stroke="#63b8ff" d="M203.37,-163.92C212.19,-163.49 221.58,-163.04 230.73,-162.6"/>
<polygon fill="#63b8ff" stroke="#63b8ff" points="230.8,-166.11 240.62,-162.13 230.46,-159.11 230.8,-166.11"/>
</a>
</g>
</g>
<!-- Node4 -->
<g id="Node000004" class="node">
<title>Node4</title>
<g id="a_Node000004"><a xlink:href="group__elements.html#ae50258851ebbaf08c7eebc3fbdbf1ac8" target="_top" xlink:title="Common transforms include rotate(180)">
<polygon fill="white" stroke="#666666" points="483.25,-220 367.5,-220 367.5,-188 483.25,-188 483.25,-220"/>
<text xml:space="preserve" text-anchor="start" x="375.5" y="-208.4" font-family="SourceSans" font-size="8.00">svg::element_base::</text>
<text xml:space="preserve" text-anchor="middle" x="425.38" y="-196.4" font-family="SourceSans" font-size="8.00">make_transform_attribute</text>
</a>
</g>
</g>
<!-- Node3&#45;&gt;Node4 -->
<g id="edge3_Node000003_Node000004" class="edge">
<title>Node3&#45;&gt;Node4</title>
<g id="a_edge3_Node000003_Node000004"><a xlink:title=" ">
<path fill="none" stroke="#63b8ff" d="M331.98,-204C339.64,-204 347.75,-204 355.85,-204"/>
<polygon fill="#63b8ff" stroke="#63b8ff" points="355.75,-207.5 365.75,-204 355.75,-200.5 355.75,-207.5"/>
</a>
</g>
</g>
<!-- Node7 -->
<g id="Node000007" class="node">
<title>Node7</title>
<g id="a_Node000007"><a xlink:href="namespacesvg.html#a36b1c48ad4601b205790e3772ad0a7b6" target="_top" xlink:title=" ">
<polygon fill="white" stroke="#666666" points="319.5,-126 252.5,-126 252.5,-106 319.5,-106 319.5,-126"/>
<text xml:space="preserve" text-anchor="middle" x="286" y="-114.4" font-family="SourceSans" font-size="8.00">svg::to_string</text>
</a>
</g>
</g>
<!-- Node6&#45;&gt;Node7 -->
<g id="edge6_Node000006_Node000007" class="edge">
<title>Node6&#45;&gt;Node7</title>
<g id="a_edge6_Node000006_Node000007"><a xlink:title=" ">
<path fill="none" stroke="#63b8ff" d="M204.77,-116C216.54,-116 229.23,-116 240.96,-116"/>
<polygon fill="#63b8ff" stroke="#63b8ff" points="240.79,-119.5 250.79,-116 240.79,-112.5 240.79,-119.5"/>
</a>
</g>
</g>
</g>
</svg>
