<?xml version="1.0" encoding="UTF-8" standalone="no"?>
<!DOCTYPE svg PUBLIC "-//W3C//DTD SVG 1.1//EN"
 "http://www.w3.org/Graphics/SVG/1.1/DTD/svg11.dtd">
<!-- Generated by graphviz version 12.1.0 (20240811.2233)
 -->
<!-- Title: svg::start_at_color Pages: 1 -->
<svg width="597pt" height="28pt"
 viewBox="0.00 0.00 596.50 28.00" xmlns="http://www.w3.org/2000/svg" xmlns:xlink="http://www.w3.org/1999/xlink">
<g id="graph0" class="graph" transform="scale(1 1) rotate(0) translate(4 24)">
<title>svg::start_at_color</title>
<!-- Node1 -->
<g id="Node000001" class="node">
<title>Node1</title>
<g id="a_Node000001"><a xlink:title="Start at specified color bar entry point.">
<polygon fill="#999999" stroke="#666666" points="83.5,-20 0,-20 0,0 83.5,0 83.5,-20"/>
<text text-anchor="middle" x="41.75" y="-8.4" font-family="SourceSans" font-size="8.00">svg::start_at_color</text>
</a>
</g>
</g>
<!-- Node2 -->
<g id="Node000002" class="node">
<title>Node2</title>
<g id="a_Node000002"><a xlink:href="namespacesvg.html#a554dc780ece47a3937550a8bd113b604" target="_top" xlink:title="Loop through color array starting at position c.">
<polygon fill="white" stroke="#666666" points="191.75,-20 119.5,-20 119.5,0 191.75,0 191.75,-20"/>
<text text-anchor="middle" x="155.62" y="-8.4" font-family="SourceSans" font-size="8.00">svg::next_color</text>
</a>
</g>
</g>
<!-- Node1&#45;&gt;Node2 -->
<g id="edge1_Node000001_Node000002" class="edge">
<title>Node1&#45;&gt;Node2</title>
<g id="a_edge1_Node000001_Node000002"><a xlink:title=" ">
<path fill="none" stroke="#63b8ff" d="M83.77,-10C91.57,-10 99.78,-10 107.73,-10"/>
<polygon fill="#63b8ff" stroke="#63b8ff" points="107.62,-13.5 117.62,-10 107.62,-6.5 107.62,-13.5"/>
</a>
</g>
</g>
<!-- Node3 -->
<g id="Node000003" class="node">
<title>Node3</title>
<g id="a_Node000003"><a xlink:href="namespacesvg.html#a86299e1b709e10d8ddbe9fe4e5231dc5" target="_top" xlink:title="Oklab https://bottosson.github.io/posts/oklab/.">
<polygon fill="white" stroke="#666666" points="322.5,-20 227.75,-20 227.75,0 322.5,0 322.5,-20"/>
<text text-anchor="middle" x="275.12" y="-8.4" font-family="SourceSans" font-size="8.00">svg::active_spectrum</text>
</a>
</g>
</g>
<!-- Node2&#45;&gt;Node3 -->
<g id="edge2_Node000002_Node000003" class="edge">
<title>Node2&#45;&gt;Node3</title>
<g id="a_edge2_Node000002_Node000003"><a xlink:title=" ">
<path fill="none" stroke="#63b8ff" d="M192.2,-10C199.73,-10 207.86,-10 215.98,-10"/>
<polygon fill="#63b8ff" stroke="#63b8ff" points="215.87,-13.5 225.87,-10 215.87,-6.5 215.87,-13.5"/>
</a>
</g>
</g>
<!-- Node4 -->
<g id="Node000004" class="node">
<title>Node4</title>
<g id="a_Node000004"><a xlink:href="namespacesvg.html#a6ef86da421061b502a4cec162970c4e9" target="_top" xlink:title="Forwarding function.">
<polygon fill="white" stroke="#666666" points="449.5,-20 358.5,-20 358.5,0 449.5,0 449.5,-20"/>
<text text-anchor="middle" x="404" y="-8.4" font-family="SourceSans" font-size="8.00">svg::color_qf_lt_hue</text>
</a>
</g>
</g>
<!-- Node3&#45;&gt;Node4 -->
<g id="edge3_Node000003_Node000004" class="edge">
<title>Node3&#45;&gt;Node4</title>
<g id="a_edge3_Node000003_Node000004"><a xlink:title=" ">
<path fill="none" stroke="#63b8ff" d="M322.65,-10C330.53,-10 338.79,-10 346.89,-10"/>
<polygon fill="#63b8ff" stroke="#63b8ff" points="346.66,-13.5 356.66,-10 346.66,-6.5 346.66,-13.5"/>
</a>
</g>
</g>
<!-- Node5 -->
<g id="Node000005" class="node">
<title>Node5</title>
<g id="a_Node000005"><a xlink:href="namespacesvg.html#a804d33f9f3d2f0debdcfc4317f5b8487" target="_top" xlink:title=" ">
<polygon fill="white" stroke="#666666" points="588.5,-20 485.5,-20 485.5,0 588.5,0 588.5,-20"/>
<text text-anchor="middle" x="537" y="-8.4" font-family="SourceSans" font-size="8.00">svg::color_qf_lt_hue_v2</text>
</a>
</g>
</g>
<!-- Node4&#45;&gt;Node5 -->
<g id="edge4_Node000004_Node000005" class="edge">
<title>Node4&#45;&gt;Node5</title>
<g id="a_edge4_Node000004_Node000005"><a xlink:title=" ">
<path fill="none" stroke="#63b8ff" d="M449.72,-10C457.47,-10 465.67,-10 473.79,-10"/>
<polygon fill="#63b8ff" stroke="#63b8ff" points="473.67,-13.5 483.67,-10 473.67,-6.5 473.67,-13.5"/>
</a>
</g>
</g>
</g>
</svg>
