<?xml version="1.0" encoding="UTF-8" standalone="no"?>
<!DOCTYPE svg PUBLIC "-//W3C//DTD SVG 1.1//EN"
 "http://www.w3.org/Graphics/SVG/1.1/DTD/svg11.dtd">
<!-- Generated by graphviz version 13.1.2 (20250808.2320)
 -->
<!-- Title: svg::display_color_qis Pages: 1 -->
<svg width="1090pt" height="498pt"
 viewBox="0.00 0.00 1090.00 498.00" xmlns="http://www.w3.org/2000/svg" xmlns:xlink="http://www.w3.org/1999/xlink">
<g id="graph0" class="graph" transform="scale(1 1) rotate(0) translate(4 493.89)">
<title>svg::display_color_qis</title>
<!-- Node1 -->
<g id="Node000001" class="node">
<title>Node1</title>
<g id="a_Node000001"><a xlink:title="Make grid palette for display. NB.">
<polygon fill="#999999" stroke="#666666" points="97,-314 0,-314 0,-294 97,-294 97,-314"/>
<text xml:space="preserve" text-anchor="middle" x="48.5" y="-302.4" font-family="SourceSans" font-size="8.00">svg::display_color_qis</text>
</a>
</g>
</g>
<!-- Node2 -->
<g id="Node000002" class="node">
<title>Node2</title>
<g id="a_Node000002"><a xlink:href="group__elements.html#ada0333b46b2547c6152f3f5811016a12" target="_top" xlink:title=" ">
<polygon fill="white" stroke="#666666" points="657.88,-304 566.88,-304 566.88,-272 657.88,-272 657.88,-304"/>
<text xml:space="preserve" text-anchor="start" x="574.88" y="-292.4" font-family="SourceSans" font-size="8.00">svg::element_base::</text>
<text xml:space="preserve" text-anchor="middle" x="612.38" y="-280.4" font-family="SourceSans" font-size="8.00">add_element</text>
</a>
</g>
</g>
<!-- Node1&#45;&gt;Node2 -->
<g id="edge1_Node000001_Node000002" class="edge">
<title>Node1&#45;&gt;Node2</title>
<g id="a_edge1_Node000001_Node000002"><a xlink:title=" ">
<path fill="none" stroke="#63b8ff" d="M97.22,-306.02C164.77,-308.52 292.14,-311.87 400.5,-307 453.14,-304.63 512.95,-298.96 555.4,-294.42"/>
<polygon fill="#63b8ff" stroke="#63b8ff" points="555.55,-297.93 565.11,-293.37 554.79,-290.97 555.55,-297.93"/>
</a>
</g>
</g>
<!-- Node4 -->
<g id="Node000004" class="node">
<title>Node4</title>
<g id="a_Node000004"><a xlink:href="group__elements.html#a3f7b6a0f29695c76b8a9e0c6d939f1b6" target="_top" xlink:title="SVG element end boilerplate.">
<polygon fill="white" stroke="#666666" points="241.25,-216 134.5,-216 134.5,-184 241.25,-184 241.25,-216"/>
<text xml:space="preserve" text-anchor="start" x="142.5" y="-204.4" font-family="SourceSans" font-size="8.00">svg::svg_element::finish</text>
<text xml:space="preserve" text-anchor="middle" x="187.88" y="-192.4" font-family="SourceSans" font-size="8.00">_element</text>
</a>
</g>
</g>
<!-- Node1&#45;&gt;Node4 -->
<g id="edge3_Node000001_Node000004" class="edge">
<title>Node1&#45;&gt;Node4</title>
<g id="a_edge3_Node000001_Node000004"><a xlink:title=" ">
<path fill="none" stroke="#63b8ff" d="M58.39,-293.66C72.77,-277.41 102.61,-245.61 133,-225 134.55,-223.95 136.16,-222.91 137.8,-221.91"/>
<polygon fill="#63b8ff" stroke="#63b8ff" points="139.19,-225.14 146.18,-217.18 135.75,-219.05 139.19,-225.14"/>
</a>
</g>
</g>
<!-- Node5 -->
<g id="Node000005" class="node">
<title>Node5</title>
<g id="a_Node000005"><a xlink:href="namespacesvg.html#a4082d485bfd058b5f64aaad7503dba9b" target="_top" xlink:title="Create rect_element centered at origin.">
<polygon fill="white" stroke="#666666" points="242.75,-254 133,-254 133,-234 242.75,-234 242.75,-254"/>
<text xml:space="preserve" text-anchor="middle" x="187.88" y="-242.4" font-family="SourceSans" font-size="8.00">svg::make_rect_centered</text>
</a>
</g>
</g>
<!-- Node1&#45;&gt;Node5 -->
<g id="edge4_Node000001_Node000005" class="edge">
<title>Node1&#45;&gt;Node5</title>
<g id="a_edge4_Node000001_Node000005"><a xlink:title=" ">
<path fill="none" stroke="#63b8ff" d="M69.11,-293.56C85.84,-284.85 110.67,-272.38 133,-263 136.79,-261.41 140.76,-259.83 144.76,-258.31"/>
<polygon fill="#63b8ff" stroke="#63b8ff" points="145.7,-261.7 153.88,-254.96 143.29,-255.13 145.7,-261.7"/>
</a>
</g>
</g>
<!-- Node11 -->
<g id="Node000011" class="node">
<title>Node11</title>
<g id="a_Node000011"><a xlink:href="namespacesvg.html#a36b1c48ad4601b205790e3772ad0a7b6" target="_top" xlink:title=" ">
<polygon fill="white" stroke="#666666" points="1057.62,-386 990.62,-386 990.62,-366 1057.62,-366 1057.62,-386"/>
<text xml:space="preserve" text-anchor="middle" x="1024.12" y="-374.4" font-family="SourceSans" font-size="8.00">svg::to_string</text>
</a>
</g>
</g>
<!-- Node1&#45;&gt;Node11 -->
<g id="edge44_Node000001_Node000011" class="edge">
<title>Node1&#45;&gt;Node11</title>
<g id="a_edge44_Node000001_Node000011"><a xlink:title=" ">
<path fill="none" stroke="#63b8ff" d="M57.73,-314.31C89.49,-352.81 208.73,-486 338.62,-486 338.62,-486 338.62,-486 748.62,-486 829.79,-486 856.81,-501.55 930.25,-467 964.28,-450.99 993.36,-417.27 1009.51,-395.68"/>
<polygon fill="#63b8ff" stroke="#63b8ff" points="1012.27,-397.83 1015.3,-387.68 1006.6,-393.73 1012.27,-397.83"/>
</a>
</g>
</g>
<!-- Node16 -->
<g id="Node000016" class="node">
<title>Node16</title>
<g id="a_Node000016"><a xlink:href="namespacesvg.html#a1309ce987f4e87ad97a1f3638a7af541" target="_top" xlink:title="Text at size, with a transformation=rotation.">
<polygon fill="white" stroke="#666666" points="227,-374 148.75,-374 148.75,-354 227,-354 227,-374"/>
<text xml:space="preserve" text-anchor="middle" x="187.88" y="-362.4" font-family="SourceSans" font-size="8.00">svg::sized_text_r</text>
</a>
</g>
</g>
<!-- Node1&#45;&gt;Node16 -->
<g id="edge15_Node000001_Node000016" class="edge">
<title>Node1&#45;&gt;Node16</title>
<g id="a_edge15_Node000001_Node000016"><a xlink:title=" ">
<path fill="none" stroke="#63b8ff" d="M73.43,-314.45C95.39,-324.04 128.17,-338.36 152.86,-349.14"/>
<polygon fill="#63b8ff" stroke="#63b8ff" points="151.27,-352.27 161.83,-353.06 154.07,-345.85 151.27,-352.27"/>
</a>
</g>
</g>
<!-- Node27 -->
<g id="Node000027" class="node">
<title>Node27</title>
<g id="a_Node000027"><a xlink:href="group__elements.html#a427e385a78a537bf24b6c3bcb6320365" target="_top" xlink:title=" ">
<polygon fill="white" stroke="#666666" points="239.38,-292 136.38,-292 136.38,-272 239.38,-272 239.38,-292"/>
<text xml:space="preserve" text-anchor="middle" x="187.88" y="-280.4" font-family="SourceSans" font-size="8.00">svg::svg_element::start</text>
</a>
</g>
</g>
<!-- Node1&#45;&gt;Node27 -->
<g id="edge32_Node000001_Node000027" class="edge">
<title>Node1&#45;&gt;Node27</title>
<g id="a_edge32_Node000001_Node000027"><a xlink:title=" ">
<path fill="none" stroke="#63b8ff" d="M97.16,-296.37C106.09,-294.94 115.54,-293.42 124.82,-291.94"/>
<polygon fill="#63b8ff" stroke="#63b8ff" points="125.21,-295.42 134.53,-290.38 124.1,-288.51 125.21,-295.42"/>
</a>
</g>
</g>
<!-- Node3 -->
<g id="Node000003" class="node">
<title>Node3</title>
<g id="a_Node000003"><a xlink:href="group__elements.html#ad893ef9c13a15464c96d8a85c08af30f" target="_top" xlink:title=" ">
<polygon fill="white" stroke="#666666" points="798,-264 697.25,-264 697.25,-244 798,-244 798,-264"/>
<text xml:space="preserve" text-anchor="middle" x="747.62" y="-252.4" font-family="SourceSans" font-size="8.00">svg::element_base::str</text>
</a>
</g>
</g>
<!-- Node2&#45;&gt;Node3 -->
<g id="edge2_Node000002_Node000003" class="edge">
<title>Node2&#45;&gt;Node3</title>
<g id="a_edge2_Node000002_Node000003"><a xlink:title=" ">
<path fill="none" stroke="#63b8ff" d="M658.12,-276.58C669.92,-273.57 682.77,-270.29 694.91,-267.2"/>
<polygon fill="#63b8ff" stroke="#63b8ff" points="695.53,-270.65 704.35,-264.79 693.8,-263.87 695.53,-270.65"/>
</a>
</g>
</g>
<!-- Node6 -->
<g id="Node000006" class="node">
<title>Node6</title>
<g id="a_Node000006"><a xlink:href="namespacesvg.html#a09509ddd1e99609e1e4c06690328d919" target="_top" xlink:title="Create rect_element at origin.">
<polygon fill="white" stroke="#666666" points="783.75,-126 711.5,-126 711.5,-106 783.75,-106 783.75,-126"/>
<text xml:space="preserve" text-anchor="middle" x="747.62" y="-114.4" font-family="SourceSans" font-size="8.00">svg::make_rect</text>
</a>
</g>
</g>
<!-- Node5&#45;&gt;Node6 -->
<g id="edge5_Node000005_Node000006" class="edge">
<title>Node5&#45;&gt;Node6</title>
<g id="a_edge5_Node000005_Node000006"><a xlink:title=" ">
<path fill="none" stroke="#63b8ff" d="M230.04,-233.56C234.66,-231.25 239.03,-228.43 242.75,-225 271.69,-198.27 247.5,-167.99 278.75,-144 404.24,-47.64 609,-81.5 700.23,-103.36"/>
<polygon fill="#63b8ff" stroke="#63b8ff" points="699.28,-106.73 709.83,-105.73 700.96,-99.93 699.28,-106.73"/>
</a>
</g>
</g>
<!-- Node7 -->
<g id="Node000007" class="node">
<title>Node7</title>
<g id="a_Node000007"><a xlink:href="group__elements.html#a1dd6663d882fb5dd14a47462a77f351b" target="_top" xlink:title="Either serialize immediately (as below), or create data structure that adds data to data_vec and then...">
<polygon fill="white" stroke="#666666" points="925.75,-182 838.5,-182 838.5,-150 925.75,-150 925.75,-182"/>
<text xml:space="preserve" text-anchor="start" x="846.5" y="-170.4" font-family="SourceSans" font-size="8.00">svg::rect_element::</text>
<text xml:space="preserve" text-anchor="middle" x="882.12" y="-158.4" font-family="SourceSans" font-size="8.00">add_data</text>
</a>
</g>
</g>
<!-- Node6&#45;&gt;Node7 -->
<g id="edge6_Node000006_Node000007" class="edge">
<title>Node6&#45;&gt;Node7</title>
<g id="a_edge6_Node000006_Node000007"><a xlink:title=" ">
<path fill="none" stroke="#63b8ff" d="M776.4,-126.48C791.23,-132.08 810,-139.16 827.54,-145.78"/>
<polygon fill="#63b8ff" stroke="#63b8ff" points="826.24,-149.03 836.84,-149.29 828.72,-142.48 826.24,-149.03"/>
</a>
</g>
</g>
<!-- Node9 -->
<g id="Node000009" class="node">
<title>Node9</title>
<g id="a_Node000009"><a xlink:href="group__elements.html#a1b22cfab9437b40c8b877ffe5472ff02" target="_top" xlink:title=" ">
<polygon fill="white" stroke="#666666" points="927.62,-82 836.62,-82 836.62,-50 927.62,-50 927.62,-82"/>
<text xml:space="preserve" text-anchor="start" x="844.62" y="-70.4" font-family="SourceSans" font-size="8.00">svg::element_base::</text>
<text xml:space="preserve" text-anchor="middle" x="882.12" y="-58.4" font-family="SourceSans" font-size="8.00">add_filter</text>
</a>
</g>
</g>
<!-- Node6&#45;&gt;Node9 -->
<g id="edge8_Node000006_Node000009" class="edge">
<title>Node6&#45;&gt;Node9</title>
<g id="a_edge8_Node000006_Node000009"><a xlink:title=" ">
<path fill="none" stroke="#63b8ff" d="M776.4,-105.52C791.04,-99.99 809.52,-93.02 826.87,-86.47"/>
<polygon fill="#63b8ff" stroke="#63b8ff" points="827.94,-89.81 836.06,-83.01 825.47,-83.26 827.94,-89.81"/>
</a>
</g>
</g>
<!-- Node10 -->
<g id="Node000010" class="node">
<title>Node10</title>
<g id="a_Node000010"><a xlink:href="group__elements.html#a238b38ca99a1cf6c2baf80c8e4338d99" target="_top" xlink:title=" ">
<polygon fill="white" stroke="#666666" points="927.62,-370 836.62,-370 836.62,-338 927.62,-338 927.62,-370"/>
<text xml:space="preserve" text-anchor="start" x="844.62" y="-358.4" font-family="SourceSans" font-size="8.00">svg::element_base::</text>
<text xml:space="preserve" text-anchor="middle" x="882.12" y="-346.4" font-family="SourceSans" font-size="8.00">add_style</text>
</a>
</g>
</g>
<!-- Node6&#45;&gt;Node10 -->
<g id="edge9_Node000006_Node000010" class="edge">
<title>Node6&#45;&gt;Node10</title>
<g id="a_edge9_Node000006_Node000010"><a xlink:title=" ">
<path fill="none" stroke="#63b8ff" d="M753.08,-126.47C761.86,-147.14 781.92,-194.69 798,-235 814.57,-276.55 804.35,-295.5 834,-329 834.35,-329.4 834.71,-329.79 835.08,-330.18"/>
<polygon fill="#63b8ff" stroke="#63b8ff" points="832.69,-332.74 842.57,-336.59 837.25,-327.43 832.69,-332.74"/>
</a>
</g>
</g>
<!-- Node12 -->
<g id="Node000012" class="node">
<title>Node12</title>
<g id="a_Node000012"><a xlink:href="group__elements.html#a53d72a7ff728ad1d4d027254530bcf3d" target="_top" xlink:title=" ">
<polygon fill="white" stroke="#666666" points="927.62,-232 836.62,-232 836.62,-200 927.62,-200 927.62,-232"/>
<text xml:space="preserve" text-anchor="start" x="844.62" y="-220.4" font-family="SourceSans" font-size="8.00">svg::element_base::</text>
<text xml:space="preserve" text-anchor="middle" x="882.12" y="-208.4" font-family="SourceSans" font-size="8.00">add_transform</text>
</a>
</g>
</g>
<!-- Node6&#45;&gt;Node12 -->
<g id="edge11_Node000006_Node000012" class="edge">
<title>Node6&#45;&gt;Node12</title>
<g id="a_edge11_Node000006_Node000012"><a xlink:title=" ">
<path fill="none" stroke="#63b8ff" d="M758.75,-126.32C774.1,-141.62 804.61,-170.71 834,-191 835.36,-191.94 836.75,-192.87 838.18,-193.78"/>
<polygon fill="#63b8ff" stroke="#63b8ff" points="836.18,-196.66 846.55,-198.82 839.79,-190.66 836.18,-196.66"/>
</a>
</g>
</g>
<!-- Node14 -->
<g id="Node000014" class="node">
<title>Node14</title>
<g id="a_Node000014"><a xlink:href="group__elements.html#gad01750ac554c6bd6871a930c90e17a04" target="_top" xlink:title=" ">
<polygon fill="white" stroke="#666666" points="925.75,-32 838.5,-32 838.5,0 925.75,0 925.75,-32"/>
<text xml:space="preserve" text-anchor="start" x="846.5" y="-20.4" font-family="SourceSans" font-size="8.00">svg::rect_element::</text>
<text xml:space="preserve" text-anchor="middle" x="882.12" y="-8.4" font-family="SourceSans" font-size="8.00">finish_element</text>
</a>
</g>
</g>
<!-- Node6&#45;&gt;Node14 -->
<g id="edge13_Node000006_Node000014" class="edge">
<title>Node6&#45;&gt;Node14</title>
<g id="a_edge13_Node000006_Node000014"><a xlink:title=" ">
<path fill="none" stroke="#63b8ff" d="M758.75,-105.68C774.1,-90.38 804.61,-61.29 834,-41 835.36,-40.06 836.75,-39.13 838.18,-38.22"/>
<polygon fill="#63b8ff" stroke="#63b8ff" points="839.79,-41.34 846.55,-33.18 836.18,-35.34 839.79,-41.34"/>
</a>
</g>
</g>
<!-- Node15 -->
<g id="Node000015" class="node">
<title>Node15</title>
<g id="a_Node000015"><a xlink:href="group__elements.html#a1e0ed5e9dfe1244317a87d7e6774348b" target="_top" xlink:title=" ">
<polygon fill="white" stroke="#666666" points="925.75,-132 838.5,-132 838.5,-100 925.75,-100 925.75,-132"/>
<text xml:space="preserve" text-anchor="start" x="846.5" y="-120.4" font-family="SourceSans" font-size="8.00">svg::rect_element::</text>
<text xml:space="preserve" text-anchor="middle" x="882.12" y="-108.4" font-family="SourceSans" font-size="8.00">start_element</text>
</a>
</g>
</g>
<!-- Node6&#45;&gt;Node15 -->
<g id="edge14_Node000006_Node000015" class="edge">
<title>Node6&#45;&gt;Node15</title>
<g id="a_edge14_Node000006_Node000015"><a xlink:title=" ">
<path fill="none" stroke="#63b8ff" d="M784.13,-116C797.32,-116 812.59,-116 827.06,-116"/>
<polygon fill="#63b8ff" stroke="#63b8ff" points="826.93,-119.5 836.93,-116 826.93,-112.5 826.93,-119.5"/>
</a>
</g>
</g>
<!-- Node8 -->
<g id="Node000008" class="node">
<title>Node8</title>
<g id="a_Node000008"><a xlink:href="namespacesvg.html#a48ac748e89e22789d1772326a98dd7b6" target="_top" xlink:title=" ">
<polygon fill="white" stroke="#666666" points="1067.75,-270 980.5,-270 980.5,-250 1067.75,-250 1067.75,-270"/>
<text xml:space="preserve" text-anchor="middle" x="1024.12" y="-258.4" font-family="SourceSans" font-size="8.00">svg::string_replace</text>
</a>
</g>
</g>
<!-- Node7&#45;&gt;Node8 -->
<g id="edge7_Node000007_Node000008" class="edge">
<title>Node7&#45;&gt;Node8</title>
<g id="a_edge7_Node000007_Node000008"><a xlink:title=" ">
<path fill="none" stroke="#63b8ff" d="M918.29,-182.29C922.52,-184.92 926.62,-187.83 930.25,-191 950.89,-209 944.2,-224.77 966.25,-241 967.98,-242.27 969.8,-243.46 971.68,-244.58"/>
<polygon fill="#63b8ff" stroke="#63b8ff" points="969.67,-247.48 980.17,-248.85 972.81,-241.23 969.67,-247.48"/>
</a>
</g>
</g>
<!-- Node10&#45;&gt;Node11 -->
<g id="edge10_Node000010_Node000011" class="edge">
<title>Node10&#45;&gt;Node11</title>
<g id="a_edge10_Node000010_Node000011"><a xlink:title=" ">
<path fill="none" stroke="#63b8ff" d="M927.81,-361.02C944.32,-363.62 963.01,-366.55 979.44,-369.13"/>
<polygon fill="#63b8ff" stroke="#63b8ff" points="978.47,-372.53 988.9,-370.62 979.56,-365.61 978.47,-372.53"/>
</a>
</g>
</g>
<!-- Node13 -->
<g id="Node000013" class="node">
<title>Node13</title>
<g id="a_Node000013"><a xlink:href="group__elements.html#ae50258851ebbaf08c7eebc3fbdbf1ac8" target="_top" xlink:title="Common transforms include rotate(180)">
<polygon fill="white" stroke="#666666" points="1082,-232 966.25,-232 966.25,-200 1082,-200 1082,-232"/>
<text xml:space="preserve" text-anchor="start" x="974.25" y="-220.4" font-family="SourceSans" font-size="8.00">svg::element_base::</text>
<text xml:space="preserve" text-anchor="middle" x="1024.12" y="-208.4" font-family="SourceSans" font-size="8.00">make_transform_attribute</text>
</a>
</g>
</g>
<!-- Node12&#45;&gt;Node13 -->
<g id="edge12_Node000012_Node000013" class="edge">
<title>Node12&#45;&gt;Node13</title>
<g id="a_edge12_Node000012_Node000013"><a xlink:title=" ">
<path fill="none" stroke="#63b8ff" d="M927.81,-216C936.3,-216 945.37,-216 954.42,-216"/>
<polygon fill="#63b8ff" stroke="#63b8ff" points="954.3,-219.5 964.3,-216 954.3,-212.5 954.3,-219.5"/>
</a>
</g>
</g>
<!-- Node17 -->
<g id="Node000017" class="node">
<title>Node17</title>
<g id="a_Node000017"><a xlink:href="namespacesvg.html#ad3c5f59f86bb309de4efd1187e5c004b" target="_top" xlink:title="Text at.">
<polygon fill="white" stroke="#666666" points="380.25,-374 299,-374 299,-354 380.25,-354 380.25,-374"/>
<text xml:space="preserve" text-anchor="middle" x="339.62" y="-362.4" font-family="SourceSans" font-size="8.00">svg::styled_text_r</text>
</a>
</g>
</g>
<!-- Node16&#45;&gt;Node17 -->
<g id="edge16_Node000016_Node000017" class="edge">
<title>Node16&#45;&gt;Node17</title>
<g id="a_edge16_Node000016_Node000017"><a xlink:title=" ">
<path fill="none" stroke="#63b8ff" d="M227.44,-364C245.61,-364 267.54,-364 287.11,-364"/>
<polygon fill="#63b8ff" stroke="#63b8ff" points="287.11,-367.5 297.11,-364 287.11,-360.5 287.11,-367.5"/>
</a>
</g>
</g>
<!-- Node17&#45;&gt;Node2 -->
<g id="edge17_Node000017_Node000002" class="edge">
<title>Node17&#45;&gt;Node2</title>
<g id="a_edge17_Node000017_Node000002"><a xlink:title=" ">
<path fill="none" stroke="#63b8ff" d="M380.4,-363.75C419.03,-362.39 478.8,-357.3 527.5,-340 546.75,-333.16 566.27,-321.41 581.62,-310.81"/>
<polygon fill="#63b8ff" stroke="#63b8ff" points="583.26,-313.94 589.38,-305.29 579.2,-308.24 583.26,-313.94"/>
</a>
</g>
</g>
<!-- Node18 -->
<g id="Node000018" class="node">
<title>Node18</title>
<g id="a_Node000018"><a xlink:href="namespacesvg.html#a43b88f0c7e911161e757ccc5a5ccd607" target="_top" xlink:title="Text element at.">
<polygon fill="white" stroke="#666666" points="520,-412 444,-412 444,-392 520,-392 520,-412"/>
<text xml:space="preserve" text-anchor="middle" x="482" y="-400.4" font-family="SourceSans" font-size="8.00">svg::style_text_r</text>
</a>
</g>
</g>
<!-- Node17&#45;&gt;Node18 -->
<g id="edge18_Node000017_Node000018" class="edge">
<title>Node17&#45;&gt;Node18</title>
<g id="a_edge18_Node000017_Node000018"><a xlink:title=" ">
<path fill="none" stroke="#63b8ff" d="M379.35,-374.48C396.02,-379 415.67,-384.32 433.23,-389.07"/>
<polygon fill="#63b8ff" stroke="#63b8ff" points="431.82,-392.31 442.39,-391.55 433.65,-385.56 431.82,-392.31"/>
</a>
</g>
</g>
<!-- Node19 -->
<g id="Node000019" class="node">
<title>Node19</title>
<g id="a_Node000019"><a xlink:href="structsvg_1_1transform.html#acf9836f4ba647f0dd2b53963a0f714d0" target="_top" xlink:title=" ">
<polygon fill="white" stroke="#666666" points="661.25,-412 563.5,-412 563.5,-392 661.25,-392 661.25,-412"/>
<text xml:space="preserve" text-anchor="middle" x="612.38" y="-400.4" font-family="SourceSans" font-size="8.00">svg::transform::rotate</text>
</a>
</g>
</g>
<!-- Node18&#45;&gt;Node19 -->
<g id="edge19_Node000018_Node000019" class="edge">
<title>Node18&#45;&gt;Node19</title>
<g id="a_edge19_Node000018_Node000019"><a xlink:title=" ">
<path fill="none" stroke="#63b8ff" d="M520.48,-402C530.26,-402 541.05,-402 551.68,-402"/>
<polygon fill="#63b8ff" stroke="#63b8ff" points="551.57,-405.5 561.57,-402 551.57,-398.5 551.57,-405.5"/>
</a>
</g>
</g>
<!-- Node20 -->
<g id="Node000020" class="node">
<title>Node20</title>
<g id="a_Node000020"><a xlink:href="namespacesvg.html#a74ca2344cea417d9107d56f4f53c5b0b" target="_top" xlink:title="Text element at.">
<polygon fill="white" stroke="#666666" points="647,-366 577.75,-366 577.75,-346 647,-346 647,-366"/>
<text xml:space="preserve" text-anchor="middle" x="612.38" y="-354.4" font-family="SourceSans" font-size="8.00">svg::style_text</text>
</a>
</g>
</g>
<!-- Node18&#45;&gt;Node20 -->
<g id="edge20_Node000018_Node000020" class="edge">
<title>Node18&#45;&gt;Node20</title>
<g id="a_edge20_Node000018_Node000020"><a xlink:title=" ">
<path fill="none" stroke="#63b8ff" d="M512.13,-391.56C529.77,-385.24 552.52,-377.09 571.78,-370.19"/>
<polygon fill="#63b8ff" stroke="#63b8ff" points="572.7,-373.58 580.94,-366.91 570.34,-366.99 572.7,-373.58"/>
</a>
</g>
</g>
<!-- Node21 -->
<g id="Node000021" class="node">
<title>Node21</title>
<g id="a_Node000021"><a xlink:href="group__elements.html#aad29e1daf75bdcd69a39575a6807fa0f" target="_top" xlink:title="Either serialize immediately (as below), or create data structure that adds data to data_vec and then...">
<polygon fill="white" stroke="#666666" points="791.62,-414 703.62,-414 703.62,-382 791.62,-382 791.62,-414"/>
<text xml:space="preserve" text-anchor="start" x="711.62" y="-402.4" font-family="SourceSans" font-size="8.00">svg::text_element::</text>
<text xml:space="preserve" text-anchor="middle" x="747.62" y="-390.4" font-family="SourceSans" font-size="8.00">add_data</text>
</a>
</g>
</g>
<!-- Node20&#45;&gt;Node21 -->
<g id="edge21_Node000020_Node000021" class="edge">
<title>Node20&#45;&gt;Node21</title>
<g id="a_edge21_Node000020_Node000021"><a xlink:title=" ">
<path fill="none" stroke="#63b8ff" d="M646.66,-366.49C660.56,-370.87 677.07,-376.08 692.64,-380.98"/>
<polygon fill="#63b8ff" stroke="#63b8ff" points="691.18,-384.19 701.77,-383.86 693.28,-377.52 691.18,-384.19"/>
</a>
</g>
</g>
<!-- Node25 -->
<g id="Node000025" class="node">
<title>Node25</title>
<g id="a_Node000025"><a xlink:href="group__elements.html#ga13c46848317034d16c62a7d2061ba3d6" target="_top" xlink:title=" ">
<polygon fill="white" stroke="#666666" points="791.62,-364 703.62,-364 703.62,-332 791.62,-332 791.62,-364"/>
<text xml:space="preserve" text-anchor="start" x="711.62" y="-352.4" font-family="SourceSans" font-size="8.00">svg::text_element::</text>
<text xml:space="preserve" text-anchor="middle" x="747.62" y="-340.4" font-family="SourceSans" font-size="8.00">finish_element</text>
</a>
</g>
</g>
<!-- Node20&#45;&gt;Node25 -->
<g id="edge30_Node000020_Node000025" class="edge">
<title>Node20&#45;&gt;Node25</title>
<g id="a_edge30_Node000020_Node000025"><a xlink:title=" ">
<path fill="none" stroke="#63b8ff" d="M647.34,-353.96C660.86,-353.15 676.76,-352.19 691.83,-351.29"/>
<polygon fill="#63b8ff" stroke="#63b8ff" points="691.85,-354.79 701.62,-350.7 691.43,-347.81 691.85,-354.79"/>
</a>
</g>
</g>
<!-- Node26 -->
<g id="Node000026" class="node">
<title>Node26</title>
<g id="a_Node000026"><a xlink:href="group__elements.html#ae45bec611a6ec17ea46aab6d680ae042" target="_top" xlink:title=" ">
<polygon fill="white" stroke="#666666" points="791.62,-314 703.62,-314 703.62,-282 791.62,-282 791.62,-314"/>
<text xml:space="preserve" text-anchor="start" x="711.62" y="-302.4" font-family="SourceSans" font-size="8.00">svg::text_element::</text>
<text xml:space="preserve" text-anchor="middle" x="747.62" y="-290.4" font-family="SourceSans" font-size="8.00">start_element</text>
</a>
</g>
</g>
<!-- Node20&#45;&gt;Node26 -->
<g id="edge31_Node000020_Node000026" class="edge">
<title>Node20&#45;&gt;Node26</title>
<g id="a_edge31_Node000020_Node000026"><a xlink:title=" ">
<path fill="none" stroke="#63b8ff" d="M637.2,-345.63C654.23,-338.22 677.74,-327.98 698.6,-318.9"/>
<polygon fill="#63b8ff" stroke="#63b8ff" points="699.75,-322.22 707.52,-315.02 696.95,-315.8 699.75,-322.22"/>
</a>
</g>
</g>
<!-- Node21&#45;&gt;Node8 -->
<g id="edge28_Node000021_Node000008" class="edge">
<title>Node21&#45;&gt;Node8</title>
<g id="a_edge28_Node000021_Node000008"><a xlink:title=" ">
<path fill="none" stroke="#63b8ff" d="M787.81,-381.76C791.55,-379.19 795.04,-376.28 798,-373 827.96,-339.78 798.46,-306.17 834,-279 872.02,-249.94 927.66,-247.71 968.75,-251.23"/>
<polygon fill="#63b8ff" stroke="#63b8ff" points="968.39,-254.71 978.69,-252.24 969.1,-247.75 968.39,-254.71"/>
</a>
</g>
</g>
<!-- Node21&#45;&gt;Node11 -->
<g id="edge29_Node000021_Node000011" class="edge">
<title>Node21&#45;&gt;Node11</title>
<g id="a_edge29_Node000021_Node000011"><a xlink:title=" ">
<path fill="none" stroke="#63b8ff" d="M792.12,-394.51C843.17,-390.42 927.37,-383.67 978.79,-379.55"/>
<polygon fill="#63b8ff" stroke="#63b8ff" points="978.97,-383.05 988.66,-378.76 978.42,-376.07 978.97,-383.05"/>
</a>
</g>
</g>
<!-- Node21&#45;&gt;Node12 -->
<g id="edge27_Node000021_Node000012" class="edge">
<title>Node21&#45;&gt;Node12</title>
<g id="a_edge27_Node000021_Node000012"><a xlink:title=" ">
<path fill="none" stroke="#63b8ff" d="M788.59,-381.67C792.09,-379.14 795.31,-376.26 798,-373 835.31,-327.72 798.96,-293.06 834,-246 835.72,-243.69 837.68,-241.5 839.8,-239.46"/>
<polygon fill="#63b8ff" stroke="#63b8ff" points="841.92,-242.24 847.41,-233.18 837.47,-236.84 841.92,-242.24"/>
</a>
</g>
</g>
<!-- Node22 -->
<g id="Node000022" class="node">
<title>Node22</title>
<g id="a_Node000022"><a xlink:href="structsvg_1_1typography.html#adbc62f74f1fed3f7c77567250f084f83" target="_top" xlink:title=" ">
<polygon fill="white" stroke="#666666" points="930.25,-320 834,-320 834,-288 930.25,-288 930.25,-320"/>
<text xml:space="preserve" text-anchor="start" x="842" y="-308.4" font-family="SourceSans" font-size="8.00">svg::typography::add</text>
<text xml:space="preserve" text-anchor="middle" x="882.12" y="-296.4" font-family="SourceSans" font-size="8.00">_attribute</text>
</a>
</g>
</g>
<!-- Node21&#45;&gt;Node22 -->
<g id="edge22_Node000021_Node000022" class="edge">
<title>Node21&#45;&gt;Node22</title>
<g id="a_edge22_Node000021_Node000022"><a xlink:title=" ">
<path fill="none" stroke="#63b8ff" d="M785.3,-381.64C789.76,-379.02 794.11,-376.13 798,-373 817.7,-357.17 814.46,-345.01 834,-329 835.09,-328.11 836.21,-327.23 837.37,-326.38"/>
<polygon fill="#63b8ff" stroke="#63b8ff" points="838.99,-329.51 845.37,-321.05 835.11,-323.68 838.99,-329.51"/>
</a>
</g>
</g>
<!-- Node24 -->
<g id="Node000024" class="node">
<title>Node24</title>
<g id="a_Node000024"><a xlink:href="group__elements.html#acafbdd950c6c2639c9d376c3eab696e5" target="_top" xlink:title=" ">
<polygon fill="white" stroke="#666666" points="927.62,-458 836.62,-458 836.62,-426 927.62,-426 927.62,-458"/>
<text xml:space="preserve" text-anchor="start" x="844.62" y="-446.4" font-family="SourceSans" font-size="8.00">svg::element_base::</text>
<text xml:space="preserve" text-anchor="middle" x="882.12" y="-434.4" font-family="SourceSans" font-size="8.00">add_raw</text>
</a>
</g>
</g>
<!-- Node21&#45;&gt;Node24 -->
<g id="edge26_Node000021_Node000024" class="edge">
<title>Node21&#45;&gt;Node24</title>
<g id="a_edge26_Node000021_Node000024"><a xlink:title=" ">
<path fill="none" stroke="#63b8ff" d="M792.01,-412.41C802.76,-415.98 814.43,-419.85 825.67,-423.59"/>
<polygon fill="#63b8ff" stroke="#63b8ff" points="824.25,-426.8 834.84,-426.63 826.45,-420.16 824.25,-426.8"/>
</a>
</g>
</g>
<!-- Node22&#45;&gt;Node8 -->
<g id="edge23_Node000022_Node000008" class="edge">
<title>Node22&#45;&gt;Node8</title>
<g id="a_edge23_Node000022_Node000008"><a xlink:title=" ">
<path fill="none" stroke="#63b8ff" d="M930.52,-289.1C946.23,-284.17 963.63,-278.7 979.07,-273.85"/>
<polygon fill="#63b8ff" stroke="#63b8ff" points="979.98,-277.23 988.47,-270.89 977.88,-270.55 979.98,-277.23"/>
</a>
</g>
</g>
<!-- Node22&#45;&gt;Node11 -->
<g id="edge24_Node000022_Node000011" class="edge">
<title>Node22&#45;&gt;Node11</title>
<g id="a_edge24_Node000022_Node000011"><a xlink:title=" ">
<path fill="none" stroke="#63b8ff" d="M914.89,-320.34C938.15,-332.3 969.54,-348.44 992.53,-360.26"/>
<polygon fill="#63b8ff" stroke="#63b8ff" points="990.91,-363.37 1001.4,-364.83 994.11,-357.14 990.91,-363.37"/>
</a>
</g>
</g>
<!-- Node23 -->
<g id="Node000023" class="node">
<title>Node23</title>
<g id="a_Node000023"><a xlink:href="structsvg_1_1typography.html#a174c1ffb4e56214d71523ffe7e422561" target="_top" xlink:title=" ">
<polygon fill="white" stroke="#666666" points="1068.5,-320 979.75,-320 979.75,-288 1068.5,-288 1068.5,-320"/>
<text xml:space="preserve" text-anchor="start" x="987.75" y="-308.4" font-family="SourceSans" font-size="8.00">svg::typography::to</text>
<text xml:space="preserve" text-anchor="middle" x="1024.12" y="-296.4" font-family="SourceSans" font-size="8.00">_string</text>
</a>
</g>
</g>
<!-- Node22&#45;&gt;Node23 -->
<g id="edge25_Node000022_Node000023" class="edge">
<title>Node22&#45;&gt;Node23</title>
<g id="a_edge25_Node000022_Node000023"><a xlink:title=" ">
<path fill="none" stroke="#63b8ff" d="M930.52,-304C942.67,-304 955.83,-304 968.32,-304"/>
<polygon fill="#63b8ff" stroke="#63b8ff" points="968.03,-307.5 978.03,-304 968.03,-300.5 968.03,-307.5"/>
</a>
</g>
</g>
<!-- Node28 -->
<g id="Node000028" class="node">
<title>Node28</title>
<g id="a_Node000028"><a xlink:href="group__elements.html#a4a6af4e23b9f79f07d58780c128c5638" target="_top" xlink:title=" ">
<polygon fill="white" stroke="#666666" points="400.5,-248 278.75,-248 278.75,-228 400.5,-228 400.5,-248"/>
<text xml:space="preserve" text-anchor="middle" x="339.62" y="-236.4" font-family="SourceSans" font-size="8.00">svg::svg_element::add_desc</text>
</a>
</g>
</g>
<!-- Node27&#45;&gt;Node28 -->
<g id="edge33_Node000027_Node000028" class="edge">
<title>Node27&#45;&gt;Node28</title>
<g id="a_edge33_Node000027_Node000028"><a xlink:title=" ">
<path fill="none" stroke="#63b8ff" d="M224.36,-271.57C244.62,-265.62 270.25,-258.09 292.1,-251.67"/>
<polygon fill="#63b8ff" stroke="#63b8ff" points="293.07,-255.03 301.68,-248.86 291.1,-248.32 293.07,-255.03"/>
</a>
</g>
</g>
<!-- Node31 -->
<g id="Node000031" class="node">
<title>Node31</title>
<g id="a_Node000031"><a xlink:href="group__elements.html#a26869d2a66e57c0d83f2df21d25cd875" target="_top" xlink:title=" ">
<polygon fill="white" stroke="#666666" points="390,-185 289.25,-185 289.25,-153 390,-153 390,-185"/>
<text xml:space="preserve" text-anchor="start" x="297.25" y="-173.4" font-family="SourceSans" font-size="8.00">svg::svg_element::add</text>
<text xml:space="preserve" text-anchor="middle" x="339.62" y="-161.4" font-family="SourceSans" font-size="8.00">_title</text>
</a>
</g>
</g>
<!-- Node27&#45;&gt;Node31 -->
<g id="edge37_Node000027_Node000031" class="edge">
<title>Node27&#45;&gt;Node31</title>
<g id="a_edge37_Node000027_Node000031"><a xlink:title=" ">
<path fill="none" stroke="#63b8ff" d="M226.98,-271.54C232.52,-269.18 237.96,-266.36 242.75,-263 263.43,-248.48 260.97,-236.96 278.75,-219 287.87,-209.79 298.54,-200.48 308.32,-192.43"/>
<polygon fill="#63b8ff" stroke="#63b8ff" points="310.23,-195.38 315.81,-186.38 305.83,-189.94 310.23,-195.38"/>
</a>
</g>
</g>
<!-- Node35 -->
<g id="Node000035" class="node">
<title>Node35</title>
<g id="a_Node000035"><a xlink:href="group__elements.html#a4afa7d83ef0fe47412b62f56f1c3ae11" target="_top" xlink:title="Default.">
<polygon fill="white" stroke="#666666" points="391.12,-298 288.12,-298 288.12,-266 391.12,-266 391.12,-298"/>
<text xml:space="preserve" text-anchor="start" x="296.12" y="-286.4" font-family="SourceSans" font-size="8.00">svg::svg_element::start</text>
<text xml:space="preserve" text-anchor="middle" x="339.62" y="-274.4" font-family="SourceSans" font-size="8.00">_element</text>
</a>
</g>
</g>
<!-- Node27&#45;&gt;Node35 -->
<g id="edge42_Node000027_Node000035" class="edge">
<title>Node27&#45;&gt;Node35</title>
<g id="a_edge42_Node000027_Node000035"><a xlink:title=" ">
<path fill="none" stroke="#63b8ff" d="M239.57,-275.57C251.46,-275.24 264.26,-275.17 276.58,-275.34"/>
<polygon fill="#63b8ff" stroke="#63b8ff" points="276.14,-278.83 286.21,-275.54 276.28,-271.83 276.14,-278.83"/>
</a>
</g>
</g>
<!-- Node28&#45;&gt;Node2 -->
<g id="edge34_Node000028_Node000002" class="edge">
<title>Node28&#45;&gt;Node2</title>
<g id="a_edge34_Node000028_Node000002"><a xlink:title=" ">
<path fill="none" stroke="#63b8ff" d="M373.91,-248.47C382.57,-251.22 391.89,-254.2 400.5,-257 416.54,-262.22 420.02,-265.4 436.5,-269 475.64,-277.55 520.58,-282.32 555.1,-284.95"/>
<polygon fill="#63b8ff" stroke="#63b8ff" points="554.65,-288.43 564.88,-285.65 555.15,-281.44 554.65,-288.43"/>
</a>
</g>
</g>
<!-- Node29 -->
<g id="Node000029" class="node">
<title>Node29</title>
<g id="a_Node000029"><a xlink:href="group__elements.html#ga03da556ae8f749df1cf8463111e996d3" target="_top" xlink:title=" ">
<polygon fill="white" stroke="#666666" points="527.12,-210 436.88,-210 436.88,-178 527.12,-178 527.12,-210"/>
<text xml:space="preserve" text-anchor="start" x="444.88" y="-198.4" font-family="SourceSans" font-size="8.00">svg::desc_element::</text>
<text xml:space="preserve" text-anchor="middle" x="482" y="-186.4" font-family="SourceSans" font-size="8.00">finish_element</text>
</a>
</g>
</g>
<!-- Node28&#45;&gt;Node29 -->
<g id="edge35_Node000028_Node000029" class="edge">
<title>Node28&#45;&gt;Node29</title>
<g id="a_edge35_Node000028_Node000029"><a xlink:title=" ">
<path fill="none" stroke="#63b8ff" d="M373.89,-227.57C389.4,-222.71 408.27,-216.8 425.83,-211.29"/>
<polygon fill="#63b8ff" stroke="#63b8ff" points="426.61,-214.72 435.11,-208.39 424.52,-208.04 426.61,-214.72"/>
</a>
</g>
</g>
<!-- Node30 -->
<g id="Node000030" class="node">
<title>Node30</title>
<g id="a_Node000030"><a xlink:href="group__elements.html#a90ffdd73579c45cd0740dc9efa2f5445" target="_top" xlink:title=" ">
<polygon fill="white" stroke="#666666" points="527.12,-260 436.88,-260 436.88,-228 527.12,-228 527.12,-260"/>
<text xml:space="preserve" text-anchor="start" x="444.88" y="-248.4" font-family="SourceSans" font-size="8.00">svg::desc_element::</text>
<text xml:space="preserve" text-anchor="middle" x="482" y="-236.4" font-family="SourceSans" font-size="8.00">start_element</text>
</a>
</g>
</g>
<!-- Node28&#45;&gt;Node30 -->
<g id="edge36_Node000028_Node000030" class="edge">
<title>Node28&#45;&gt;Node30</title>
<g id="a_edge36_Node000028_Node000030"><a xlink:title=" ">
<path fill="none" stroke="#63b8ff" d="M400.97,-240.58C408.96,-240.92 417.12,-241.27 425.03,-241.61"/>
<polygon fill="#63b8ff" stroke="#63b8ff" points="424.74,-245.1 434.88,-242.03 425.04,-238.1 424.74,-245.1"/>
</a>
</g>
</g>
<!-- Node32 -->
<g id="Node000032" class="node">
<title>Node32</title>
<g id="a_Node000032"><a xlink:href="group__elements.html#a7995b78d94e1c299065c9dd3569fef7c" target="_top" xlink:title=" ">
<polygon fill="white" stroke="#666666" points="527.5,-160 436.5,-160 436.5,-128 527.5,-128 527.5,-160"/>
<text xml:space="preserve" text-anchor="start" x="444.5" y="-148.4" font-family="SourceSans" font-size="8.00">svg::element_base::</text>
<text xml:space="preserve" text-anchor="middle" x="482" y="-136.4" font-family="SourceSans" font-size="8.00">add_title</text>
</a>
</g>
</g>
<!-- Node31&#45;&gt;Node32 -->
<g id="edge38_Node000031_Node000032" class="edge">
<title>Node31&#45;&gt;Node32</title>
<g id="a_edge38_Node000031_Node000032"><a xlink:title=" ">
<path fill="none" stroke="#63b8ff" d="M390.12,-160.19C401.36,-158.18 413.39,-156.04 424.89,-153.99"/>
<polygon fill="#63b8ff" stroke="#63b8ff" points="425.45,-157.45 434.68,-152.25 424.22,-150.56 425.45,-157.45"/>
</a>
</g>
</g>
<!-- Node32&#45;&gt;Node2 -->
<g id="edge39_Node000032_Node000002" class="edge">
<title>Node32&#45;&gt;Node2</title>
<g id="a_edge39_Node000032_Node000002"><a xlink:title=" ">
<path fill="none" stroke="#63b8ff" d="M516.22,-160.44C520.21,-163.05 524.08,-165.91 527.5,-169 529.6,-170.9 569.84,-228.42 593.81,-262.78"/>
<polygon fill="#63b8ff" stroke="#63b8ff" points="590.64,-264.35 599.23,-270.55 596.38,-260.35 590.64,-264.35"/>
</a>
</g>
</g>
<!-- Node33 -->
<g id="Node000033" class="node">
<title>Node33</title>
<g id="a_Node000033"><a xlink:href="group__elements.html#ga3d62381f8edcccd3d91f82af55f11274" target="_top" xlink:title=" ">
<polygon fill="white" stroke="#666666" points="654.12,-210 570.62,-210 570.62,-178 654.12,-178 654.12,-210"/>
<text xml:space="preserve" text-anchor="start" x="578.62" y="-198.4" font-family="SourceSans" font-size="8.00">svg::title_element</text>
<text xml:space="preserve" text-anchor="middle" x="612.38" y="-186.4" font-family="SourceSans" font-size="8.00">::finish_element</text>
</a>
</g>
</g>
<!-- Node32&#45;&gt;Node33 -->
<g id="edge40_Node000032_Node000033" class="edge">
<title>Node32&#45;&gt;Node33</title>
<g id="a_edge40_Node000032_Node000033"><a xlink:title=" ">
<path fill="none" stroke="#63b8ff" d="M525.03,-160.37C536.23,-164.73 548.45,-169.49 560.09,-174.02"/>
<polygon fill="#63b8ff" stroke="#63b8ff" points="558.56,-177.19 569.15,-177.55 561.1,-170.66 558.56,-177.19"/>
</a>
</g>
</g>
<!-- Node34 -->
<g id="Node000034" class="node">
<title>Node34</title>
<g id="a_Node000034"><a xlink:href="group__elements.html#a41dcaa1132c502cb86c01aae1e7b9ff2" target="_top" xlink:title=" ">
<polygon fill="white" stroke="#666666" points="654.12,-160 570.62,-160 570.62,-128 654.12,-128 654.12,-160"/>
<text xml:space="preserve" text-anchor="start" x="578.62" y="-148.4" font-family="SourceSans" font-size="8.00">svg::title_element</text>
<text xml:space="preserve" text-anchor="middle" x="612.38" y="-136.4" font-family="SourceSans" font-size="8.00">::start_element</text>
</a>
</g>
</g>
<!-- Node32&#45;&gt;Node34 -->
<g id="edge41_Node000032_Node000034" class="edge">
<title>Node32&#45;&gt;Node34</title>
<g id="a_edge41_Node000032_Node000034"><a xlink:title=" ">
<path fill="none" stroke="#63b8ff" d="M527.9,-144C537.88,-144 548.55,-144 558.81,-144"/>
<polygon fill="#63b8ff" stroke="#63b8ff" points="558.64,-147.5 568.64,-144 558.64,-140.5 558.64,-147.5"/>
</a>
</g>
</g>
<!-- Node35&#45;&gt;Node27 -->
<g id="edge43_Node000035_Node000027" class="edge">
<title>Node35&#45;&gt;Node27</title>
<g id="a_edge43_Node000035_Node000027"><a xlink:title=" ">
<path fill="none" stroke="#63b8ff" d="M287.72,-288.43C275.83,-288.76 263.02,-288.83 250.71,-288.66"/>
<polygon fill="#63b8ff" stroke="#63b8ff" points="251.16,-285.17 241.09,-288.46 251.01,-292.17 251.16,-285.17"/>
</a>
</g>
</g>
</g>
</svg>
