<?xml version="1.0" encoding="UTF-8" standalone="no"?>
<!DOCTYPE svg PUBLIC "-//W3C//DTD SVG 1.1//EN"
 "http://www.w3.org/Graphics/SVG/1.1/DTD/svg11.dtd">
<!-- Generated by graphviz version 12.2.1 (20241206.2353)
 -->
<!-- Title: svg::points_to_line Pages: 1 -->
<svg width="512pt" height="210pt"
 viewBox="0.00 0.00 512.25 209.62" xmlns="http://www.w3.org/2000/svg" xmlns:xlink="http://www.w3.org/1999/xlink">
<g id="graph0" class="graph" transform="scale(1 1) rotate(0) translate(4 205.62)">
<title>svg::points_to_line</title>
<!-- Node1 -->
<g id="Node000001" class="node">
<title>Node1</title>
<g id="a_Node000001"><a xlink:title="Line between two points.">
<polygon fill="#999999" stroke="#666666" points="92.5,-134.62 0,-134.62 0,-116.88 92.5,-116.88 92.5,-134.62"/>
<text text-anchor="middle" x="46.25" y="-123.03" font-family="SourceSans" font-size="8.00">svg::points_to_line</text>
</a>
</g>
</g>
<!-- Node2 -->
<g id="Node000002" class="node">
<title>Node2</title>
<g id="a_Node000002"><a xlink:href="group__elements.html#ada0333b46b2547c6152f3f5811016a12" target="_top" xlink:title=" ">
<polygon fill="white" stroke="#666666" points="228.5,-183.5 128.5,-183.5 128.5,-156 228.5,-156 228.5,-183.5"/>
<text text-anchor="start" x="136.5" y="-171.9" font-family="SourceSans" font-size="8.00">svg::element_base::</text>
<text text-anchor="middle" x="178.5" y="-162.15" font-family="SourceSans" font-size="8.00">add_element</text>
</a>
</g>
</g>
<!-- Node1&#45;&gt;Node2 -->
<g id="edge1_Node000001_Node000002" class="edge">
<title>Node1&#45;&gt;Node2</title>
<g id="a_edge1_Node000001_Node000002"><a xlink:title=" ">
<path fill="none" stroke="#63b8ff" d="M74.87,-135.08C89.47,-140.01 107.87,-146.23 125.05,-152.03"/>
<polygon fill="#63b8ff" stroke="#63b8ff" points="123.52,-155.21 134.11,-155.09 125.76,-148.58 123.52,-155.21"/>
</a>
</g>
</g>
<!-- Node4 -->
<g id="Node000004" class="node">
<title>Node4</title>
<g id="a_Node000004"><a xlink:href="namespacesvg.html#a0352c1350268fb7ecd96ea81908417e7" target="_top" xlink:title="Line primitive.">
<polygon fill="white" stroke="#666666" points="216.88,-114.62 140.12,-114.62 140.12,-96.88 216.88,-96.88 216.88,-114.62"/>
<text text-anchor="middle" x="178.5" y="-103.03" font-family="SourceSans" font-size="8.00">svg::make_line</text>
</a>
</g>
</g>
<!-- Node1&#45;&gt;Node4 -->
<g id="edge3_Node000001_Node000004" class="edge">
<title>Node1&#45;&gt;Node4</title>
<g id="a_edge3_Node000001_Node000004"><a xlink:title=" ">
<path fill="none" stroke="#63b8ff" d="M92.81,-118.75C104.48,-116.96 117.08,-115.03 128.9,-113.21"/>
<polygon fill="#63b8ff" stroke="#63b8ff" points="129.09,-116.72 138.44,-111.75 128.03,-109.81 129.09,-116.72"/>
</a>
</g>
</g>
<!-- Node3 -->
<g id="Node000003" class="node">
<title>Node3</title>
<g id="a_Node000003"><a xlink:href="group__elements.html#ad893ef9c13a15464c96d8a85c08af30f" target="_top" xlink:title=" ">
<polygon fill="white" stroke="#666666" points="375,-201.62 264.5,-201.62 264.5,-183.88 375,-183.88 375,-201.62"/>
<text text-anchor="middle" x="319.75" y="-190.03" font-family="SourceSans" font-size="8.00">svg::element_base::str</text>
</a>
</g>
</g>
<!-- Node2&#45;&gt;Node3 -->
<g id="edge2_Node000002_Node000003" class="edge">
<title>Node2&#45;&gt;Node3</title>
<g id="a_edge2_Node000002_Node000003"><a xlink:title=" ">
<path fill="none" stroke="#63b8ff" d="M228.99,-177.92C236.74,-179.2 244.87,-180.55 252.92,-181.88"/>
<polygon fill="#63b8ff" stroke="#63b8ff" points="252.29,-185.32 262.72,-183.5 253.43,-178.41 252.29,-185.32"/>
</a>
</g>
</g>
<!-- Node5 -->
<g id="Node000005" class="node">
<title>Node5</title>
<g id="a_Node000005"><a xlink:href="group__elements.html#a306eac4c5a7ea755ab6375a65489366f" target="_top" xlink:title=" ">
<polygon fill="white" stroke="#666666" points="367.12,-165.5 272.38,-165.5 272.38,-138 367.12,-138 367.12,-165.5"/>
<text text-anchor="start" x="280.38" y="-153.9" font-family="SourceSans" font-size="8.00">svg::line_element::</text>
<text text-anchor="middle" x="319.75" y="-144.15" font-family="SourceSans" font-size="8.00">add_data</text>
</a>
</g>
</g>
<!-- Node4&#45;&gt;Node5 -->
<g id="edge4_Node000004_Node000005" class="edge">
<title>Node4&#45;&gt;Node5</title>
<g id="a_edge4_Node000004_Node000005"><a xlink:title=" ">
<path fill="none" stroke="#63b8ff" d="M207.68,-115.06C224.1,-120.48 245.35,-127.5 264.86,-133.95"/>
<polygon fill="#63b8ff" stroke="#63b8ff" points="263.76,-137.27 274.36,-137.08 265.96,-130.62 263.76,-137.27"/>
</a>
</g>
</g>
<!-- Node7 -->
<g id="Node000007" class="node">
<title>Node7</title>
<g id="a_Node000007"><a xlink:href="group__elements.html#a238b38ca99a1cf6c2baf80c8e4338d99" target="_top" xlink:title=" ">
<polygon fill="white" stroke="#666666" points="369.75,-119.5 269.75,-119.5 269.75,-92 369.75,-92 369.75,-119.5"/>
<text text-anchor="start" x="277.75" y="-107.9" font-family="SourceSans" font-size="8.00">svg::element_base::</text>
<text text-anchor="middle" x="319.75" y="-98.15" font-family="SourceSans" font-size="8.00">add_style</text>
</a>
</g>
</g>
<!-- Node4&#45;&gt;Node7 -->
<g id="edge6_Node000004_Node000007" class="edge">
<title>Node4&#45;&gt;Node7</title>
<g id="a_edge6_Node000004_Node000007"><a xlink:title=" ">
<path fill="none" stroke="#63b8ff" d="M217.18,-105.75C229.71,-105.75 243.99,-105.75 257.81,-105.75"/>
<polygon fill="#63b8ff" stroke="#63b8ff" points="257.74,-109.25 267.74,-105.75 257.74,-102.25 257.74,-109.25"/>
</a>
</g>
</g>
<!-- Node9 -->
<g id="Node000009" class="node">
<title>Node9</title>
<g id="a_Node000009"><a xlink:href="group__elements.html#ga4769af15793cb308d426abb5fd552df5" target="_top" xlink:title=" ">
<polygon fill="white" stroke="#666666" points="367.12,-73.5 272.38,-73.5 272.38,-46 367.12,-46 367.12,-73.5"/>
<text text-anchor="start" x="280.38" y="-61.9" font-family="SourceSans" font-size="8.00">svg::line_element::</text>
<text text-anchor="middle" x="319.75" y="-52.15" font-family="SourceSans" font-size="8.00">finish_element</text>
</a>
</g>
</g>
<!-- Node4&#45;&gt;Node9 -->
<g id="edge8_Node000004_Node000009" class="edge">
<title>Node4&#45;&gt;Node9</title>
<g id="a_edge8_Node000004_Node000009"><a xlink:title=" ">
<path fill="none" stroke="#63b8ff" d="M207.68,-96.44C224.1,-91.02 245.35,-84 264.86,-77.55"/>
<polygon fill="#63b8ff" stroke="#63b8ff" points="265.96,-80.88 274.36,-74.42 263.76,-74.23 265.96,-80.88"/>
</a>
</g>
</g>
<!-- Node10 -->
<g id="Node000010" class="node">
<title>Node10</title>
<g id="a_Node000010"><a xlink:href="group__elements.html#aa6b4ba04be5858b4943235801f034943" target="_top" xlink:title=" ">
<polygon fill="white" stroke="#666666" points="367.12,-27.5 272.38,-27.5 272.38,0 367.12,0 367.12,-27.5"/>
<text text-anchor="start" x="280.38" y="-15.9" font-family="SourceSans" font-size="8.00">svg::line_element::</text>
<text text-anchor="middle" x="319.75" y="-6.15" font-family="SourceSans" font-size="8.00">start_element</text>
</a>
</g>
</g>
<!-- Node4&#45;&gt;Node10 -->
<g id="edge9_Node000004_Node000010" class="edge">
<title>Node4&#45;&gt;Node10</title>
<g id="a_edge9_Node000004_Node000010"><a xlink:title=" ">
<path fill="none" stroke="#63b8ff" d="M189.02,-96.49C204.07,-82.23 234.69,-54.68 264.5,-36.75 266.64,-35.46 268.86,-34.22 271.13,-33.01"/>
<polygon fill="#63b8ff" stroke="#63b8ff" points="272.52,-36.23 279.94,-28.66 269.42,-29.95 272.52,-36.23"/>
</a>
</g>
</g>
<!-- Node6 -->
<g id="Node000006" class="node">
<title>Node6</title>
<g id="a_Node000006"><a xlink:href="namespacesvg.html#a48ac748e89e22789d1772326a98dd7b6" target="_top" xlink:title=" ">
<polygon fill="white" stroke="#666666" points="504.25,-160.62 411,-160.62 411,-142.88 504.25,-142.88 504.25,-160.62"/>
<text text-anchor="middle" x="457.62" y="-149.03" font-family="SourceSans" font-size="8.00">svg::string_replace</text>
</a>
</g>
</g>
<!-- Node5&#45;&gt;Node6 -->
<g id="edge5_Node000005_Node000006" class="edge">
<title>Node5&#45;&gt;Node6</title>
<g id="a_edge5_Node000005_Node000006"><a xlink:title=" ">
<path fill="none" stroke="#63b8ff" d="M367.51,-151.75C377.77,-151.75 388.75,-151.75 399.37,-151.75"/>
<polygon fill="#63b8ff" stroke="#63b8ff" points="399.18,-155.25 409.18,-151.75 399.18,-148.25 399.18,-155.25"/>
</a>
</g>
</g>
<!-- Node8 -->
<g id="Node000008" class="node">
<title>Node8</title>
<g id="a_Node000008"><a xlink:href="namespacesvg.html#a36b1c48ad4601b205790e3772ad0a7b6" target="_top" xlink:title=" ">
<polygon fill="white" stroke="#666666" points="493.38,-114.62 421.88,-114.62 421.88,-96.88 493.38,-96.88 493.38,-114.62"/>
<text text-anchor="middle" x="457.62" y="-103.03" font-family="SourceSans" font-size="8.00">svg::to_string</text>
</a>
</g>
</g>
<!-- Node7&#45;&gt;Node8 -->
<g id="edge7_Node000007_Node000008" class="edge">
<title>Node7&#45;&gt;Node8</title>
<g id="a_edge7_Node000007_Node000008"><a xlink:title=" ">
<path fill="none" stroke="#63b8ff" d="M370.19,-105.75C383.2,-105.75 397.2,-105.75 410.05,-105.75"/>
<polygon fill="#63b8ff" stroke="#63b8ff" points="409.97,-109.25 419.97,-105.75 409.97,-102.25 409.97,-109.25"/>
</a>
</g>
</g>
</g>
</svg>
