<?xml version="1.0" encoding="UTF-8" standalone="no"?>
<!DOCTYPE svg PUBLIC "-//W3C//DTD SVG 1.1//EN"
 "http://www.w3.org/Graphics/SVG/1.1/DTD/svg11.dtd">
<!-- Generated by graphviz version 12.1.0 (20240811.2233)
 -->
<!-- Title: a60::metadata::render_metadata_aggregate_chord Pages: 1 -->
<svg width="597pt" height="177pt"
 viewBox="0.00 0.00 597.00 176.62" xmlns="http://www.w3.org/2000/svg" xmlns:xlink="http://www.w3.org/1999/xlink">
<g id="graph0" class="graph" transform="scale(1 1) rotate(0) translate(4 172.62)">
<title>a60::metadata::render_metadata_aggregate_chord</title>
<!-- Node1 -->
<g id="Node000001" class="node">
<title>Node1</title>
<g id="a_Node000001"><a xlink:title="Analyze metadata directory or subset of it and generate summary output for all in directory.">
<polygon fill="#999999" stroke="#666666" points="132.25,-98.62 0,-98.62 0,-71.12 132.25,-71.12 132.25,-98.62"/>
<text text-anchor="start" x="8" y="-87.03" font-family="SourceSans" font-size="8.00">a60::metadata::render</text>
<text text-anchor="middle" x="66.12" y="-77.28" font-family="SourceSans" font-size="8.00">_metadata_aggregate_chord</text>
</a>
</g>
</g>
<!-- Node2 -->
<g id="Node000002" class="node">
<title>Node2</title>
<g id="a_Node000002"><a xlink:href="namespacea60_1_1metadata.html#a1fde7b7617a6da1a221d09f4ce033ee9" target="_top" xlink:title=" ">
<polygon fill="white" stroke="#666666" points="284,-98.62 168.25,-98.62 168.25,-71.12 284,-71.12 284,-98.62"/>
<text text-anchor="start" x="176.25" y="-87.03" font-family="SourceSans" font-size="8.00">a60::metadata::h_chord</text>
<text text-anchor="middle" x="226.12" y="-77.28" font-family="SourceSans" font-size="8.00">_graph</text>
</a>
</g>
</g>
<!-- Node1&#45;&gt;Node2 -->
<g id="edge1_Node000001_Node000002" class="edge">
<title>Node1&#45;&gt;Node2</title>
<g id="a_edge1_Node000001_Node000002"><a xlink:title=" ">
<path fill="none" stroke="#63b8ff" d="M132.3,-84.88C140.39,-84.88 148.68,-84.88 156.81,-84.88"/>
<polygon fill="#63b8ff" stroke="#63b8ff" points="156.66,-88.38 166.66,-84.88 156.66,-81.38 156.66,-88.38"/>
</a>
</g>
</g>
<!-- Node3 -->
<g id="Node000003" class="node">
<title>Node3</title>
<g id="a_Node000003"><a xlink:href="namespacea60_1_1metadata.html#a4c88caad75ba7fd9dffc58be1f715b28" target="_top" xlink:title="Compute xoffset.">
<polygon fill="white" stroke="#666666" points="578.88,-168.62 481.88,-168.62 481.88,-141.12 578.88,-141.12 578.88,-168.62"/>
<text text-anchor="start" x="489.88" y="-157.03" font-family="SourceSans" font-size="8.00">a60::metadata::get</text>
<text text-anchor="middle" x="530.38" y="-147.28" font-family="SourceSans" font-size="8.00">_xoffset</text>
</a>
</g>
</g>
<!-- Node2&#45;&gt;Node3 -->
<g id="edge2_Node000002_Node000003" class="edge">
<title>Node2&#45;&gt;Node3</title>
<g id="a_edge2_Node000002_Node000003"><a xlink:title=" ">
<path fill="none" stroke="#63b8ff" d="M256.61,-99.04C274.56,-107.13 298.17,-116.83 320,-122.88 369.83,-136.67 428.09,-144.96 470.48,-149.64"/>
<polygon fill="#63b8ff" stroke="#63b8ff" points="469.9,-153.1 480.22,-150.67 470.64,-146.14 469.9,-153.1"/>
</a>
</g>
</g>
<!-- Node4 -->
<g id="Node000004" class="node">
<title>Node4</title>
<g id="a_Node000004"><a xlink:href="namespacea60_1_1metadata.html#a0e1ca2f297681851edcf2f74d3bf663e" target="_top" xlink:title="Grid, titles, labels for h_chord_graph. @yscale == how much to vertically scale the bar graph from ce...">
<polygon fill="white" stroke="#666666" points="435.75,-98.62 320,-98.62 320,-71.12 435.75,-71.12 435.75,-98.62"/>
<text text-anchor="start" x="328" y="-87.03" font-family="SourceSans" font-size="8.00">a60::metadata::h_chord</text>
<text text-anchor="middle" x="377.88" y="-77.28" font-family="SourceSans" font-size="8.00">_graph_labels</text>
</a>
</g>
</g>
<!-- Node2&#45;&gt;Node4 -->
<g id="edge3_Node000002_Node000004" class="edge">
<title>Node2&#45;&gt;Node4</title>
<g id="a_edge3_Node000002_Node000004"><a xlink:title=" ">
<path fill="none" stroke="#63b8ff" d="M284.17,-84.88C292.14,-84.88 300.41,-84.88 308.57,-84.88"/>
<polygon fill="#63b8ff" stroke="#63b8ff" points="308.48,-88.38 318.48,-84.88 308.48,-81.38 308.48,-88.38"/>
</a>
</g>
</g>
<!-- Node5 -->
<g id="Node000005" class="node">
<title>Node5</title>
<g id="a_Node000005"><a xlink:href="namespacea60_1_1metadata.html#a22b86d9f6417957b79f6e9dab13296dc" target="_top" xlink:title=" ">
<polygon fill="white" stroke="#666666" points="589,-103.75 471.75,-103.75 471.75,-86 589,-86 589,-103.75"/>
<text text-anchor="middle" x="530.38" y="-92.15" font-family="SourceSans" font-size="8.00">a60::metadata::hdenom</text>
</a>
</g>
</g>
<!-- Node2&#45;&gt;Node5 -->
<g id="edge8_Node000002_Node000005" class="edge">
<title>Node2&#45;&gt;Node5</title>
<g id="a_edge8_Node000002_Node000005"><a xlink:title=" ">
<path fill="none" stroke="#63b8ff" d="M274.91,-99.06C289.28,-102.68 305.16,-106.06 320,-107.88 366.59,-113.56 419.34,-110.22 460.24,-105.51"/>
<polygon fill="#63b8ff" stroke="#63b8ff" points="460.43,-109.01 469.94,-104.33 459.59,-102.06 460.43,-109.01"/>
</a>
</g>
</g>
<!-- Node6 -->
<g id="Node000006" class="node">
<title>Node6</title>
<g id="a_Node000006"><a xlink:href="namespacea60_1_1metadata.html#a2a619ed21560d442f5dfae5ea8101fce" target="_top" xlink:title="Distance between label and top/bottom of line or text.">
<polygon fill="white" stroke="#666666" points="587.88,-54.75 472.88,-54.75 472.88,-37 587.88,-37 587.88,-54.75"/>
<text text-anchor="middle" x="530.38" y="-43.15" font-family="SourceSans" font-size="8.00">a60::metadata::vlspace</text>
</a>
</g>
</g>
<!-- Node2&#45;&gt;Node6 -->
<g id="edge9_Node000002_Node000006" class="edge">
<title>Node2&#45;&gt;Node6</title>
<g id="a_edge9_Node000002_Node000006"><a xlink:title=" ">
<path fill="none" stroke="#63b8ff" d="M277.91,-70.68C291.49,-67.33 306.22,-64.09 320,-61.88 366.88,-54.33 420.26,-50.32 461.39,-48.2"/>
<polygon fill="#63b8ff" stroke="#63b8ff" points="461.32,-51.71 471.13,-47.73 460.98,-44.72 461.32,-51.71"/>
</a>
</g>
</g>
<!-- Node7 -->
<g id="Node000007" class="node">
<title>Node7</title>
<g id="a_Node000007"><a xlink:href="namespacea60_1_1metadata.html#a888d9b1e7402e335f8e7544373855a92" target="_top" xlink:title=" ">
<polygon fill="white" stroke="#666666" points="586.75,-17.75 474,-17.75 474,0 586.75,0 586.75,-17.75"/>
<text text-anchor="middle" x="530.38" y="-6.15" font-family="SourceSans" font-size="8.00">a60::metadata::vspace</text>
</a>
</g>
</g>
<!-- Node2&#45;&gt;Node7 -->
<g id="edge10_Node000002_Node000007" class="edge">
<title>Node2&#45;&gt;Node7</title>
<g id="a_edge10_Node000002_Node000007"><a xlink:title=" ">
<path fill="none" stroke="#63b8ff" d="M256.21,-70.69C274.22,-62.4 298.02,-52.34 320,-45.88 366.77,-32.11 421.02,-22.7 462.57,-16.81"/>
<polygon fill="#63b8ff" stroke="#63b8ff" points="463.01,-20.29 472.44,-15.45 462.05,-13.35 463.01,-20.29"/>
</a>
</g>
</g>
<!-- Node4&#45;&gt;Node3 -->
<g id="edge4_Node000004_Node000003" class="edge">
<title>Node4&#45;&gt;Node3</title>
<g id="a_edge4_Node000004_Node000003"><a xlink:title=" ">
<path fill="none" stroke="#63b8ff" d="M409.33,-99.04C432.18,-109.67 463.69,-124.32 488.69,-135.95"/>
<polygon fill="#63b8ff" stroke="#63b8ff" points="487.05,-139.05 497.59,-140.09 490,-132.7 487.05,-139.05"/>
</a>
</g>
</g>
<!-- Node4&#45;&gt;Node5 -->
<g id="edge5_Node000004_Node000005" class="edge">
<title>Node4&#45;&gt;Node5</title>
<g id="a_edge5_Node000004_Node000005"><a xlink:title=" ">
<path fill="none" stroke="#63b8ff" d="M436.2,-88.68C444.11,-89.21 452.29,-89.75 460.38,-90.29"/>
<polygon fill="#63b8ff" stroke="#63b8ff" points="459.99,-93.77 470.2,-90.94 460.45,-86.79 459.99,-93.77"/>
</a>
</g>
</g>
<!-- Node4&#45;&gt;Node6 -->
<g id="edge6_Node000004_Node000006" class="edge">
<title>Node4&#45;&gt;Node6</title>
<g id="a_edge6_Node000004_Node000006"><a xlink:title=" ">
<path fill="none" stroke="#63b8ff" d="M433.63,-70.68C449.6,-66.55 466.89,-62.07 482.33,-58.07"/>
<polygon fill="#63b8ff" stroke="#63b8ff" points="482.93,-61.53 491.73,-55.63 481.17,-54.75 482.93,-61.53"/>
</a>
</g>
</g>
<!-- Node4&#45;&gt;Node7 -->
<g id="edge7_Node000004_Node000007" class="edge">
<title>Node4&#45;&gt;Node7</title>
<g id="a_edge7_Node000004_Node000007"><a xlink:title=" ">
<path fill="none" stroke="#63b8ff" d="M398.77,-70.78C417.08,-58.27 445.32,-40.14 471.75,-27.88 476.28,-25.77 481.11,-23.8 485.97,-21.97"/>
<polygon fill="#63b8ff" stroke="#63b8ff" points="486.87,-25.37 495.13,-18.74 484.54,-18.77 486.87,-25.37"/>
</a>
</g>
</g>
</g>
</svg>
