<?xml version="1.0" encoding="UTF-8" standalone="no"?>
<!DOCTYPE svg PUBLIC "-//W3C//DTD SVG 1.1//EN"
 "http://www.w3.org/Graphics/SVG/1.1/DTD/svg11.dtd">
<!-- Generated by graphviz version 13.1.2 (20250808.2320)
 -->
<!-- Title: svg::make_line_rays Pages: 1 -->
<svg width="364pt" height="340pt"
 viewBox="0.00 0.00 364.00 340.00" xmlns="http://www.w3.org/2000/svg" xmlns:xlink="http://www.w3.org/1999/xlink">
<g id="graph0" class="graph" transform="scale(1 1) rotate(0) translate(4 336)">
<title>svg::make_line_rays</title>
<!-- Node1 -->
<g id="Node000001" class="node">
<title>Node1</title>
<g id="a_Node000001"><a xlink:title="Lines radiating from center point (x,y).">
<polygon fill="#999999" stroke="#666666" points="91,-176 0,-176 0,-156 91,-156 91,-176"/>
<text xml:space="preserve" text-anchor="middle" x="45.5" y="-164.4" font-family="SourceSans" font-size="8.00">svg::make_line_rays</text>
</a>
</g>
</g>
<!-- Node2 -->
<g id="Node000002" class="node">
<title>Node2</title>
<g id="a_Node000002"><a xlink:href="group__elements.html#a306eac4c5a7ea755ab6375a65489366f" target="_top" xlink:title=" ">
<polygon fill="white" stroke="#666666" points="216.5,-332 129.25,-332 129.25,-300 216.5,-300 216.5,-332"/>
<text xml:space="preserve" text-anchor="start" x="137.25" y="-320.4" font-family="SourceSans" font-size="8.00">svg::line_element::</text>
<text xml:space="preserve" text-anchor="middle" x="172.88" y="-308.4" font-family="SourceSans" font-size="8.00">add_data</text>
</a>
</g>
</g>
<!-- Node1&#45;&gt;Node2 -->
<g id="edge1_Node000001_Node000002" class="edge">
<title>Node1&#45;&gt;Node2</title>
<g id="a_edge1_Node000001_Node000002"><a xlink:title=" ">
<path fill="none" stroke="#63b8ff" d="M50.97,-176.26C61.39,-199.25 89.35,-255.68 127,-291 127.74,-291.69 128.5,-292.38 129.28,-293.04"/>
<polygon fill="#63b8ff" stroke="#63b8ff" points="126.92,-295.65 137.03,-298.82 131.1,-290.04 126.92,-295.65"/>
</a>
</g>
</g>
<!-- Node4 -->
<g id="Node000004" class="node">
<title>Node4</title>
<g id="a_Node000004"><a xlink:href="group__elements.html#ada0333b46b2547c6152f3f5811016a12" target="_top" xlink:title=" ">
<polygon fill="white" stroke="#666666" points="218.38,-282 127.38,-282 127.38,-250 218.38,-250 218.38,-282"/>
<text xml:space="preserve" text-anchor="start" x="135.38" y="-270.4" font-family="SourceSans" font-size="8.00">svg::element_base::</text>
<text xml:space="preserve" text-anchor="middle" x="172.88" y="-258.4" font-family="SourceSans" font-size="8.00">add_element</text>
</a>
</g>
</g>
<!-- Node1&#45;&gt;Node4 -->
<g id="edge3_Node000001_Node000004" class="edge">
<title>Node1&#45;&gt;Node4</title>
<g id="a_edge3_Node000001_Node000004"><a xlink:title=" ">
<path fill="none" stroke="#63b8ff" d="M55.98,-176.3C70.38,-191.59 99.05,-220.65 127,-241 128.31,-241.95 129.65,-242.89 131.03,-243.82"/>
<polygon fill="#63b8ff" stroke="#63b8ff" points="128.77,-246.54 139.09,-248.92 132.51,-240.62 128.77,-246.54"/>
</a>
</g>
</g>
<!-- Node6 -->
<g id="Node000006" class="node">
<title>Node6</title>
<g id="a_Node000006"><a xlink:href="group__elements.html#a238b38ca99a1cf6c2baf80c8e4338d99" target="_top" xlink:title=" ">
<polygon fill="white" stroke="#666666" points="218.38,-232 127.38,-232 127.38,-200 218.38,-200 218.38,-232"/>
<text xml:space="preserve" text-anchor="start" x="135.38" y="-220.4" font-family="SourceSans" font-size="8.00">svg::element_base::</text>
<text xml:space="preserve" text-anchor="middle" x="172.88" y="-208.4" font-family="SourceSans" font-size="8.00">add_style</text>
</a>
</g>
</g>
<!-- Node1&#45;&gt;Node6 -->
<g id="edge5_Node000001_Node000006" class="edge">
<title>Node1&#45;&gt;Node6</title>
<g id="a_edge5_Node000001_Node000006"><a xlink:title=" ">
<path fill="none" stroke="#63b8ff" d="M72.78,-176.48C86.57,-181.98 103.94,-188.91 120.28,-195.42"/>
<polygon fill="#63b8ff" stroke="#63b8ff" points="118.83,-198.61 129.41,-199.07 121.42,-192.11 118.83,-198.61"/>
</a>
</g>
</g>
<!-- Node8 -->
<g id="Node000008" class="node">
<title>Node8</title>
<g id="a_Node000008"><a xlink:href="group__elements.html#gaab139e518fe9d07003dbcc1fdfdad955" target="_top" xlink:title=" ">
<polygon fill="white" stroke="#666666" points="218.75,-182 127,-182 127,-150 218.75,-150 218.75,-182"/>
<text xml:space="preserve" text-anchor="start" x="135" y="-170.4" font-family="SourceSans" font-size="8.00">svg::group_element</text>
<text xml:space="preserve" text-anchor="middle" x="172.88" y="-158.4" font-family="SourceSans" font-size="8.00">::finish_element</text>
</a>
</g>
</g>
<!-- Node1&#45;&gt;Node8 -->
<g id="edge7_Node000001_Node000008" class="edge">
<title>Node1&#45;&gt;Node8</title>
<g id="a_edge7_Node000001_Node000008"><a xlink:title=" ">
<path fill="none" stroke="#63b8ff" d="M91.41,-166C99.24,-166 107.48,-166 115.57,-166"/>
<polygon fill="#63b8ff" stroke="#63b8ff" points="115.34,-169.5 125.34,-166 115.34,-162.5 115.34,-169.5"/>
</a>
</g>
</g>
<!-- Node10 -->
<g id="Node000010" class="node">
<title>Node10</title>
<g id="a_Node000010"><a xlink:href="group__elements.html#ga4769af15793cb308d426abb5fd552df5" target="_top" xlink:title=" ">
<polygon fill="white" stroke="#666666" points="216.5,-132 129.25,-132 129.25,-100 216.5,-100 216.5,-132"/>
<text xml:space="preserve" text-anchor="start" x="137.25" y="-120.4" font-family="SourceSans" font-size="8.00">svg::line_element::</text>
<text xml:space="preserve" text-anchor="middle" x="172.88" y="-108.4" font-family="SourceSans" font-size="8.00">finish_element</text>
</a>
</g>
</g>
<!-- Node1&#45;&gt;Node10 -->
<g id="edge9_Node000001_Node000010" class="edge">
<title>Node1&#45;&gt;Node10</title>
<g id="a_edge9_Node000001_Node000010"><a xlink:title=" ">
<path fill="none" stroke="#63b8ff" d="M72.78,-155.52C86.57,-150.02 103.94,-143.09 120.28,-136.58"/>
<polygon fill="#63b8ff" stroke="#63b8ff" points="121.42,-139.89 129.41,-132.93 118.83,-133.39 121.42,-139.89"/>
</a>
</g>
</g>
<!-- Node11 -->
<g id="Node000011" class="node">
<title>Node11</title>
<g id="a_Node000011"><a xlink:href="group__elements.html#a5c8c4f93df6e84523f788aa7f98bcab8" target="_top" xlink:title="For groups of elements that have the same name.">
<polygon fill="white" stroke="#666666" points="218.75,-82 127,-82 127,-50 218.75,-50 218.75,-82"/>
<text xml:space="preserve" text-anchor="start" x="135" y="-70.4" font-family="SourceSans" font-size="8.00">svg::group_element</text>
<text xml:space="preserve" text-anchor="middle" x="172.88" y="-58.4" font-family="SourceSans" font-size="8.00">::start_element</text>
</a>
</g>
</g>
<!-- Node1&#45;&gt;Node11 -->
<g id="edge10_Node000001_Node000011" class="edge">
<title>Node1&#45;&gt;Node11</title>
<g id="a_edge10_Node000001_Node000011"><a xlink:title=" ">
<path fill="none" stroke="#63b8ff" d="M55.98,-155.7C70.38,-140.41 99.05,-111.35 127,-91 128.31,-90.05 129.65,-89.11 131.03,-88.18"/>
<polygon fill="#63b8ff" stroke="#63b8ff" points="132.51,-91.38 139.09,-83.08 128.77,-85.46 132.51,-91.38"/>
</a>
</g>
</g>
<!-- Node13 -->
<g id="Node000013" class="node">
<title>Node13</title>
<g id="a_Node000013"><a xlink:href="group__elements.html#aa6b4ba04be5858b4943235801f034943" target="_top" xlink:title=" ">
<polygon fill="white" stroke="#666666" points="216.5,-32 129.25,-32 129.25,0 216.5,0 216.5,-32"/>
<text xml:space="preserve" text-anchor="start" x="137.25" y="-20.4" font-family="SourceSans" font-size="8.00">svg::line_element::</text>
<text xml:space="preserve" text-anchor="middle" x="172.88" y="-8.4" font-family="SourceSans" font-size="8.00">start_element</text>
</a>
</g>
</g>
<!-- Node1&#45;&gt;Node13 -->
<g id="edge12_Node000001_Node000013" class="edge">
<title>Node1&#45;&gt;Node13</title>
<g id="a_edge12_Node000001_Node000013"><a xlink:title=" ">
<path fill="none" stroke="#63b8ff" d="M50.97,-155.74C61.39,-132.75 89.35,-76.32 127,-41 127.74,-40.31 128.5,-39.62 129.28,-38.96"/>
<polygon fill="#63b8ff" stroke="#63b8ff" points="131.1,-41.96 137.03,-33.18 126.92,-36.35 131.1,-41.96"/>
</a>
</g>
</g>
<!-- Node3 -->
<g id="Node000003" class="node">
<title>Node3</title>
<g id="a_Node000003"><a xlink:href="namespacesvg.html#a48ac748e89e22789d1772326a98dd7b6" target="_top" xlink:title=" ">
<polygon fill="white" stroke="#666666" points="348.75,-326 261.5,-326 261.5,-306 348.75,-306 348.75,-326"/>
<text xml:space="preserve" text-anchor="middle" x="305.12" y="-314.4" font-family="SourceSans" font-size="8.00">svg::string_replace</text>
</a>
</g>
</g>
<!-- Node2&#45;&gt;Node3 -->
<g id="edge2_Node000002_Node000003" class="edge">
<title>Node2&#45;&gt;Node3</title>
<g id="a_edge2_Node000002_Node000003"><a xlink:title=" ">
<path fill="none" stroke="#63b8ff" d="M216.88,-316C227.44,-316 238.88,-316 249.89,-316"/>
<polygon fill="#63b8ff" stroke="#63b8ff" points="249.65,-319.5 259.65,-316 249.65,-312.5 249.65,-319.5"/>
</a>
</g>
</g>
<!-- Node5 -->
<g id="Node000005" class="node">
<title>Node5</title>
<g id="a_Node000005"><a xlink:href="group__elements.html#ad893ef9c13a15464c96d8a85c08af30f" target="_top" xlink:title=" ">
<polygon fill="white" stroke="#666666" points="355.5,-276 254.75,-276 254.75,-256 355.5,-256 355.5,-276"/>
<text xml:space="preserve" text-anchor="middle" x="305.12" y="-264.4" font-family="SourceSans" font-size="8.00">svg::element_base::str</text>
</a>
</g>
</g>
<!-- Node4&#45;&gt;Node5 -->
<g id="edge4_Node000004_Node000005" class="edge">
<title>Node4&#45;&gt;Node5</title>
<g id="a_edge4_Node000004_Node000005"><a xlink:title=" ">
<path fill="none" stroke="#63b8ff" d="M218.7,-266C226.5,-266 234.74,-266 242.89,-266"/>
<polygon fill="#63b8ff" stroke="#63b8ff" points="242.79,-269.5 252.79,-266 242.79,-262.5 242.79,-269.5"/>
</a>
</g>
</g>
<!-- Node7 -->
<g id="Node000007" class="node">
<title>Node7</title>
<g id="a_Node000007"><a xlink:href="namespacesvg.html#a36b1c48ad4601b205790e3772ad0a7b6" target="_top" xlink:title=" ">
<polygon fill="white" stroke="#666666" points="338.62,-226 271.62,-226 271.62,-206 338.62,-206 338.62,-226"/>
<text xml:space="preserve" text-anchor="middle" x="305.12" y="-214.4" font-family="SourceSans" font-size="8.00">svg::to_string</text>
</a>
</g>
</g>
<!-- Node6&#45;&gt;Node7 -->
<g id="edge6_Node000006_Node000007" class="edge">
<title>Node6&#45;&gt;Node7</title>
<g id="a_edge6_Node000006_Node000007"><a xlink:title=" ">
<path fill="none" stroke="#63b8ff" d="M218.7,-216C232.02,-216 246.59,-216 259.88,-216"/>
<polygon fill="#63b8ff" stroke="#63b8ff" points="259.64,-219.5 269.64,-216 259.64,-212.5 259.64,-219.5"/>
</a>
</g>
</g>
<!-- Node9 -->
<g id="Node000009" class="node">
<title>Node9</title>
<g id="a_Node000009"><a xlink:href="group__elements.html#a71cf2eb89a562527f14c4ca4c027c2b9" target="_top" xlink:title=" ">
<polygon fill="white" stroke="#666666" points="351,-182 259.25,-182 259.25,-150 351,-150 351,-182"/>
<text xml:space="preserve" text-anchor="start" x="267.25" y="-170.4" font-family="SourceSans" font-size="8.00">svg::group_element</text>
<text xml:space="preserve" text-anchor="middle" x="305.12" y="-158.4" font-family="SourceSans" font-size="8.00">::finish_group</text>
</a>
</g>
</g>
<!-- Node8&#45;&gt;Node9 -->
<g id="edge8_Node000008_Node000009" class="edge">
<title>Node8&#45;&gt;Node9</title>
<g id="a_edge8_Node000008_Node000009"><a xlink:title=" ">
<path fill="none" stroke="#63b8ff" d="M219.06,-166C228.26,-166 238.04,-166 247.57,-166"/>
<polygon fill="#63b8ff" stroke="#63b8ff" points="247.5,-169.5 257.5,-166 247.5,-162.5 247.5,-169.5"/>
</a>
</g>
</g>
<!-- Node12 -->
<g id="Node000012" class="node">
<title>Node12</title>
<g id="a_Node000012"><a xlink:href="group__elements.html#ab84e1bc08d2d2a71ab05521af65d7585" target="_top" xlink:title=" ">
<polygon fill="white" stroke="#666666" points="351,-82 259.25,-82 259.25,-50 351,-50 351,-82"/>
<text xml:space="preserve" text-anchor="start" x="267.25" y="-70.4" font-family="SourceSans" font-size="8.00">svg::group_element</text>
<text xml:space="preserve" text-anchor="middle" x="305.12" y="-58.4" font-family="SourceSans" font-size="8.00">::start_group</text>
</a>
</g>
</g>
<!-- Node11&#45;&gt;Node12 -->
<g id="edge11_Node000011_Node000012" class="edge">
<title>Node11&#45;&gt;Node12</title>
<g id="a_edge11_Node000011_Node000012"><a xlink:title=" ">
<path fill="none" stroke="#63b8ff" d="M219.06,-66C228.26,-66 238.04,-66 247.57,-66"/>
<polygon fill="#63b8ff" stroke="#63b8ff" points="247.5,-69.5 257.5,-66 247.5,-62.5 247.5,-69.5"/>
</a>
</g>
</g>
</g>
</svg>
