<?xml version="1.0" encoding="UTF-8" standalone="no"?>
<!DOCTYPE svg PUBLIC "-//W3C//DTD SVG 1.1//EN"
 "http://www.w3.org/Graphics/SVG/1.1/DTD/svg11.dtd">
<!-- Generated by graphviz version 12.2.1 (20241206.2353)
 -->
<!-- Title: svg::text_line_n Pages: 1 -->
<svg width="615pt" height="314pt"
 viewBox="0.00 0.00 614.50 313.62" xmlns="http://www.w3.org/2000/svg" xmlns:xlink="http://www.w3.org/1999/xlink">
<g id="graph0" class="graph" transform="scale(1 1) rotate(0) translate(4 309.62)">
<title>svg::text_line_n</title>
<!-- Node1 -->
<g id="Node000001" class="node">
<title>Node1</title>
<g id="a_Node000001"><a xlink:title="Text of maxlen length, overflow goes on line below.">
<polygon fill="#999999" stroke="#666666" points="79,-91.62 0,-91.62 0,-73.88 79,-73.88 79,-91.62"/>
<text text-anchor="middle" x="39.5" y="-80.03" font-family="SourceSans" font-size="8.00">svg::text_line_n</text>
</a>
</g>
</g>
<!-- Node2 -->
<g id="Node000002" class="node">
<title>Node2</title>
<g id="a_Node000002"><a xlink:href="namespacesvg.html#aba9f46c82a468e5594eedb3b4ff14f9e" target="_top" xlink:title="Text at size.">
<polygon fill="white" stroke="#666666" points="191.75,-91.62 115,-91.62 115,-73.88 191.75,-73.88 191.75,-91.62"/>
<text text-anchor="middle" x="153.38" y="-80.03" font-family="SourceSans" font-size="8.00">svg::sized_text</text>
</a>
</g>
</g>
<!-- Node1&#45;&gt;Node2 -->
<g id="edge1_Node000001_Node000002" class="edge">
<title>Node1&#45;&gt;Node2</title>
<g id="a_edge1_Node000001_Node000002"><a xlink:title=" ">
<path fill="none" stroke="#63b8ff" d="M79.31,-82.75C87.12,-82.75 95.42,-82.75 103.52,-82.75"/>
<polygon fill="#63b8ff" stroke="#63b8ff" points="103.25,-86.25 113.25,-82.75 103.25,-79.25 103.25,-86.25"/>
</a>
</g>
</g>
<!-- Node3 -->
<g id="Node000003" class="node">
<title>Node3</title>
<g id="a_Node000003"><a xlink:href="group__elements.html#aad29e1daf75bdcd69a39575a6807fa0f" target="_top" xlink:title="Either serialize immediately (as below), or create data structure that adds data to data_vec and then...">
<polygon fill="white" stroke="#666666" points="325.12,-206.5 230.38,-206.5 230.38,-179 325.12,-179 325.12,-206.5"/>
<text text-anchor="start" x="238.38" y="-194.9" font-family="SourceSans" font-size="8.00">svg::text_element::</text>
<text text-anchor="middle" x="277.75" y="-185.15" font-family="SourceSans" font-size="8.00">add_data</text>
</a>
</g>
</g>
<!-- Node2&#45;&gt;Node3 -->
<g id="edge2_Node000002_Node000003" class="edge">
<title>Node2&#45;&gt;Node3</title>
<g id="a_edge2_Node000002_Node000003"><a xlink:title=" ">
<path fill="none" stroke="#63b8ff" d="M164.39,-91.75C183.47,-108.9 225.52,-146.7 252.42,-170.88"/>
<polygon fill="#63b8ff" stroke="#63b8ff" points="250,-173.41 259.78,-177.5 254.68,-168.21 250,-173.41"/>
</a>
</g>
</g>
<!-- Node10 -->
<g id="Node000010" class="node">
<title>Node10</title>
<g id="a_Node000010"><a xlink:href="group__elements.html#ada0333b46b2547c6152f3f5811016a12" target="_top" xlink:title=" ">
<polygon fill="white" stroke="#666666" points="327.75,-119.5 227.75,-119.5 227.75,-92 327.75,-92 327.75,-119.5"/>
<text text-anchor="start" x="235.75" y="-107.9" font-family="SourceSans" font-size="8.00">svg::element_base::</text>
<text text-anchor="middle" x="277.75" y="-98.15" font-family="SourceSans" font-size="8.00">add_element</text>
</a>
</g>
</g>
<!-- Node2&#45;&gt;Node10 -->
<g id="edge11_Node000002_Node000010" class="edge">
<title>Node2&#45;&gt;Node10</title>
<g id="a_edge11_Node000002_Node000010"><a xlink:title=" ">
<path fill="none" stroke="#63b8ff" d="M192.09,-89.84C199.82,-91.29 208.13,-92.85 216.42,-94.41"/>
<polygon fill="#63b8ff" stroke="#63b8ff" points="215.7,-97.84 226.17,-96.24 216.99,-90.96 215.7,-97.84"/>
</a>
</g>
</g>
<!-- Node12 -->
<g id="Node000012" class="node">
<title>Node12</title>
<g id="a_Node000012"><a xlink:href="group__elements.html#ga13c46848317034d16c62a7d2061ba3d6" target="_top" xlink:title=" ">
<polygon fill="white" stroke="#666666" points="325.12,-73.5 230.38,-73.5 230.38,-46 325.12,-46 325.12,-73.5"/>
<text text-anchor="start" x="238.38" y="-61.9" font-family="SourceSans" font-size="8.00">svg::text_element::</text>
<text text-anchor="middle" x="277.75" y="-52.15" font-family="SourceSans" font-size="8.00">finish_element</text>
</a>
</g>
</g>
<!-- Node2&#45;&gt;Node12 -->
<g id="edge13_Node000002_Node000012" class="edge">
<title>Node2&#45;&gt;Node12</title>
<g id="a_edge13_Node000002_Node000012"><a xlink:title=" ">
<path fill="none" stroke="#63b8ff" d="M192.09,-75.66C200.68,-74.05 209.99,-72.3 219.2,-70.57"/>
<polygon fill="#63b8ff" stroke="#63b8ff" points="219.64,-74.04 228.83,-68.76 218.35,-67.16 219.64,-74.04"/>
</a>
</g>
</g>
<!-- Node13 -->
<g id="Node000013" class="node">
<title>Node13</title>
<g id="a_Node000013"><a xlink:href="group__elements.html#ae45bec611a6ec17ea46aab6d680ae042" target="_top" xlink:title=" ">
<polygon fill="white" stroke="#666666" points="325.12,-27.5 230.38,-27.5 230.38,0 325.12,0 325.12,-27.5"/>
<text text-anchor="start" x="238.38" y="-15.9" font-family="SourceSans" font-size="8.00">svg::text_element::</text>
<text text-anchor="middle" x="277.75" y="-6.15" font-family="SourceSans" font-size="8.00">start_element</text>
</a>
</g>
</g>
<!-- Node2&#45;&gt;Node13 -->
<g id="edge14_Node000002_Node000013" class="edge">
<title>Node2&#45;&gt;Node13</title>
<g id="a_edge14_Node000002_Node000013"><a xlink:title=" ">
<path fill="none" stroke="#63b8ff" d="M168.14,-73.42C182.66,-63.74 206.37,-48.41 227.75,-36.75 230.08,-35.48 232.5,-34.21 234.95,-32.95"/>
<polygon fill="#63b8ff" stroke="#63b8ff" points="236.34,-36.17 243.74,-28.59 233.23,-29.89 236.34,-36.17"/>
</a>
</g>
</g>
<!-- Node4 -->
<g id="Node000004" class="node">
<title>Node4</title>
<g id="a_Node000004"><a xlink:href="structsvg_1_1typography.html#adbc62f74f1fed3f7c77567250f084f83" target="_top" xlink:title=" ">
<polygon fill="white" stroke="#666666" points="470.88,-269.5 367.12,-269.5 367.12,-242 470.88,-242 470.88,-269.5"/>
<text text-anchor="start" x="375.12" y="-257.9" font-family="SourceSans" font-size="8.00">svg::typography::add</text>
<text text-anchor="middle" x="419" y="-248.15" font-family="SourceSans" font-size="8.00">_attribute</text>
</a>
</g>
</g>
<!-- Node3&#45;&gt;Node4 -->
<g id="edge3_Node000003_Node000004" class="edge">
<title>Node3&#45;&gt;Node4</title>
<g id="a_edge3_Node000003_Node000004"><a xlink:title=" ">
<path fill="none" stroke="#63b8ff" d="M310,-206.89C329.62,-215.76 355.15,-227.31 376.46,-236.96"/>
<polygon fill="#63b8ff" stroke="#63b8ff" points="374.92,-240.1 385.47,-241.03 377.81,-233.72 374.92,-240.1"/>
</a>
</g>
</g>
<!-- Node5 -->
<g id="Node000005" class="node">
<title>Node5</title>
<g id="a_Node000005"><a xlink:href="namespacesvg.html#a48ac748e89e22789d1772326a98dd7b6" target="_top" xlink:title=" ">
<polygon fill="white" stroke="#666666" points="605,-305.62 511.75,-305.62 511.75,-287.88 605,-287.88 605,-305.62"/>
<text text-anchor="middle" x="558.38" y="-294.02" font-family="SourceSans" font-size="8.00">svg::string_replace</text>
</a>
</g>
</g>
<!-- Node3&#45;&gt;Node5 -->
<g id="edge9_Node000003_Node000005" class="edge">
<title>Node3&#45;&gt;Node5</title>
<g id="a_edge9_Node000003_Node000005"><a xlink:title=" ">
<path fill="none" stroke="#63b8ff" d="M287.75,-206.72C301.45,-226.64 329.59,-262.59 363.75,-278.75 406.38,-298.92 460.15,-302.44 500.2,-301.47"/>
<polygon fill="#63b8ff" stroke="#63b8ff" points="500.26,-304.97 510.13,-301.12 500.01,-297.98 500.26,-304.97"/>
</a>
</g>
</g>
<!-- Node6 -->
<g id="Node000006" class="node">
<title>Node6</title>
<g id="a_Node000006"><a xlink:href="namespacesvg.html#a36b1c48ad4601b205790e3772ad0a7b6" target="_top" xlink:title=" ">
<polygon fill="white" stroke="#666666" points="594.12,-223.62 522.62,-223.62 522.62,-205.88 594.12,-205.88 594.12,-223.62"/>
<text text-anchor="middle" x="558.38" y="-212.03" font-family="SourceSans" font-size="8.00">svg::to_string</text>
</a>
</g>
</g>
<!-- Node3&#45;&gt;Node6 -->
<g id="edge10_Node000003_Node000006" class="edge">
<title>Node3&#45;&gt;Node6</title>
<g id="a_edge10_Node000003_Node000006"><a xlink:title=" ">
<path fill="none" stroke="#63b8ff" d="M325.39,-196.43C376.98,-200.51 459.62,-207.03 511.08,-211.09"/>
<polygon fill="#63b8ff" stroke="#63b8ff" points="510.75,-214.58 521,-211.88 511.3,-207.6 510.75,-214.58"/>
</a>
</g>
</g>
<!-- Node8 -->
<g id="Node000008" class="node">
<title>Node8</title>
<g id="a_Node000008"><a xlink:href="group__elements.html#a1ed006cabdb9c531c2bd8e27ea9e0966" target="_top" xlink:title=" ">
<polygon fill="white" stroke="#666666" points="466.38,-185.5 371.62,-185.5 371.62,-158 466.38,-158 466.38,-185.5"/>
<text text-anchor="start" x="379.62" y="-173.9" font-family="SourceSans" font-size="8.00">svg::text_element::</text>
<text text-anchor="middle" x="419" y="-164.15" font-family="SourceSans" font-size="8.00">add_text</text>
</a>
</g>
</g>
<!-- Node3&#45;&gt;Node8 -->
<g id="edge7_Node000003_Node000008" class="edge">
<title>Node3&#45;&gt;Node8</title>
<g id="a_edge7_Node000003_Node000008"><a xlink:title=" ">
<path fill="none" stroke="#63b8ff" d="M325.51,-185.7C336.53,-184.04 348.41,-182.24 359.87,-180.52"/>
<polygon fill="#63b8ff" stroke="#63b8ff" points="360.27,-184 369.63,-179.04 359.22,-177.07 360.27,-184"/>
</a>
</g>
</g>
<!-- Node9 -->
<g id="Node000009" class="node">
<title>Node9</title>
<g id="a_Node000009"><a xlink:href="group__elements.html#a53d72a7ff728ad1d4d027254530bcf3d" target="_top" xlink:title="Common transforms include rotate(180)">
<polygon fill="white" stroke="#666666" points="469,-139.5 369,-139.5 369,-112 469,-112 469,-139.5"/>
<text text-anchor="start" x="377" y="-127.9" font-family="SourceSans" font-size="8.00">svg::element_base::</text>
<text text-anchor="middle" x="419" y="-118.15" font-family="SourceSans" font-size="8.00">add_transform</text>
</a>
</g>
</g>
<!-- Node3&#45;&gt;Node9 -->
<g id="edge8_Node000003_Node000009" class="edge">
<title>Node3&#45;&gt;Node9</title>
<g id="a_edge8_Node000003_Node000009"><a xlink:title=" ">
<path fill="none" stroke="#63b8ff" d="M304.91,-178.55C321.59,-169.66 343.75,-158.15 363.75,-148.75 366.7,-147.36 369.76,-145.96 372.85,-144.58"/>
<polygon fill="#63b8ff" stroke="#63b8ff" points="374.25,-147.79 382,-140.56 371.44,-141.38 374.25,-147.79"/>
</a>
</g>
</g>
<!-- Node4&#45;&gt;Node5 -->
<g id="edge4_Node000004_Node000005" class="edge">
<title>Node4&#45;&gt;Node5</title>
<g id="a_edge4_Node000004_Node000005"><a xlink:title=" ">
<path fill="none" stroke="#63b8ff" d="M467.66,-269.97C483.25,-274.63 500.44,-279.76 515.56,-284.27"/>
<polygon fill="#63b8ff" stroke="#63b8ff" points="514.13,-287.5 524.71,-287 516.13,-280.79 514.13,-287.5"/>
</a>
</g>
</g>
<!-- Node4&#45;&gt;Node6 -->
<g id="edge5_Node000004_Node000006" class="edge">
<title>Node4&#45;&gt;Node6</title>
<g id="a_edge5_Node000004_Node000006"><a xlink:title=" ">
<path fill="none" stroke="#63b8ff" d="M467.66,-241.53C483.25,-236.87 500.44,-231.74 515.56,-227.23"/>
<polygon fill="#63b8ff" stroke="#63b8ff" points="516.13,-230.71 524.71,-224.5 514.13,-224 516.13,-230.71"/>
</a>
</g>
</g>
<!-- Node7 -->
<g id="Node000007" class="node">
<title>Node7</title>
<g id="a_Node000007"><a xlink:href="structsvg_1_1typography.html#a174c1ffb4e56214d71523ffe7e422561" target="_top" xlink:title=" ">
<polygon fill="white" stroke="#666666" points="606.5,-269.5 510.25,-269.5 510.25,-242 606.5,-242 606.5,-269.5"/>
<text text-anchor="start" x="518.25" y="-257.9" font-family="SourceSans" font-size="8.00">svg::typography::to</text>
<text text-anchor="middle" x="558.38" y="-248.15" font-family="SourceSans" font-size="8.00">_string</text>
</a>
</g>
</g>
<!-- Node4&#45;&gt;Node7 -->
<g id="edge6_Node000004_Node000007" class="edge">
<title>Node4&#45;&gt;Node7</title>
<g id="a_edge6_Node000004_Node000007"><a xlink:title=" ">
<path fill="none" stroke="#63b8ff" d="M471.15,-255.75C480.06,-255.75 489.38,-255.75 498.47,-255.75"/>
<polygon fill="#63b8ff" stroke="#63b8ff" points="498.3,-259.25 508.3,-255.75 498.3,-252.25 498.3,-259.25"/>
</a>
</g>
</g>
<!-- Node11 -->
<g id="Node000011" class="node">
<title>Node11</title>
<g id="a_Node000011"><a xlink:href="group__elements.html#ad893ef9c13a15464c96d8a85c08af30f" target="_top" xlink:title=" ">
<polygon fill="white" stroke="#666666" points="474.25,-93.62 363.75,-93.62 363.75,-75.88 474.25,-75.88 474.25,-93.62"/>
<text text-anchor="middle" x="419" y="-82.03" font-family="SourceSans" font-size="8.00">svg::element_base::str</text>
</a>
</g>
</g>
<!-- Node10&#45;&gt;Node11 -->
<g id="edge12_Node000010_Node000011" class="edge">
<title>Node10&#45;&gt;Node11</title>
<g id="a_edge12_Node000010_Node000011"><a xlink:title=" ">
<path fill="none" stroke="#63b8ff" d="M328.24,-98.29C335.99,-97.12 344.12,-95.89 352.17,-94.68"/>
<polygon fill="#63b8ff" stroke="#63b8ff" points="352.6,-98.15 361.97,-93.2 351.56,-91.23 352.6,-98.15"/>
</a>
</g>
</g>
</g>
</svg>
