<?xml version="1.0" encoding="UTF-8" standalone="no"?>
<!DOCTYPE svg PUBLIC "-//W3C//DTD SVG 1.1//EN"
 "http://www.w3.org/Graphics/SVG/1.1/DTD/svg11.dtd">
<!-- Generated by graphviz version 13.1.2 (20250808.2320)
 -->
<!-- Title: svg::radial_text_cw Pages: 1 -->
<svg width="884pt" height="222pt"
 viewBox="0.00 0.00 884.00 222.00" xmlns="http://www.w3.org/2000/svg" xmlns:xlink="http://www.w3.org/1999/xlink">
<g id="graph0" class="graph" transform="scale(1 1) rotate(0) translate(4 218)">
<title>svg::radial_text_cw</title>
<!-- Node1 -->
<g id="Node000001" class="node">
<title>Node1</title>
<g id="a_Node000001"><a xlink:title="Text with typography, arranged cw around points (x,y) on a circle.">
<polygon fill="#999999" stroke="#666666" points="87.25,-133 0,-133 0,-113 87.25,-113 87.25,-133"/>
<text xml:space="preserve" text-anchor="middle" x="43.62" y="-121.4" font-family="SourceSans" font-size="8.00">svg::radial_text_cw</text>
</a>
</g>
</g>
<!-- Node2 -->
<g id="Node000002" class="node">
<title>Node2</title>
<g id="a_Node000002"><a xlink:href="namespacesvg.html#ad3c5f59f86bb309de4efd1187e5c004b" target="_top" xlink:title="Text at.">
<polygon fill="white" stroke="#666666" points="204.5,-133 123.25,-133 123.25,-113 204.5,-113 204.5,-133"/>
<text xml:space="preserve" text-anchor="middle" x="163.88" y="-121.4" font-family="SourceSans" font-size="8.00">svg::styled_text_r</text>
</a>
</g>
</g>
<!-- Node1&#45;&gt;Node2 -->
<g id="edge1_Node000001_Node000002" class="edge">
<title>Node1&#45;&gt;Node2</title>
<g id="a_edge1_Node000001_Node000002"><a xlink:title=" ">
<path fill="none" stroke="#63b8ff" d="M87.65,-123C95.37,-123 103.49,-123 111.42,-123"/>
<polygon fill="#63b8ff" stroke="#63b8ff" points="111.32,-126.5 121.32,-123 111.32,-119.5 111.32,-126.5"/>
</a>
</g>
</g>
<!-- Node3 -->
<g id="Node000003" class="node">
<title>Node3</title>
<g id="a_Node000003"><a xlink:href="group__elements.html#ada0333b46b2547c6152f3f5811016a12" target="_top" xlink:title=" ">
<polygon fill="white" stroke="#666666" points="331.5,-161 240.5,-161 240.5,-129 331.5,-129 331.5,-161"/>
<text xml:space="preserve" text-anchor="start" x="248.5" y="-149.4" font-family="SourceSans" font-size="8.00">svg::element_base::</text>
<text xml:space="preserve" text-anchor="middle" x="286" y="-137.4" font-family="SourceSans" font-size="8.00">add_element</text>
</a>
</g>
</g>
<!-- Node2&#45;&gt;Node3 -->
<g id="edge2_Node000002_Node000003" class="edge">
<title>Node2&#45;&gt;Node3</title>
<g id="a_edge2_Node000002_Node000003"><a xlink:title=" ">
<path fill="none" stroke="#63b8ff" d="M204.87,-130.33C212.66,-131.75 220.96,-133.27 229.15,-134.77"/>
<polygon fill="#63b8ff" stroke="#63b8ff" points="228.25,-138.16 238.71,-136.52 229.51,-131.28 228.25,-138.16"/>
</a>
</g>
</g>
<!-- Node5 -->
<g id="Node000005" class="node">
<title>Node5</title>
<g id="a_Node000005"><a xlink:href="namespacesvg.html#a43b88f0c7e911161e757ccc5a5ccd607" target="_top" xlink:title="Text element at.">
<polygon fill="white" stroke="#666666" points="324,-111 248,-111 248,-91 324,-91 324,-111"/>
<text xml:space="preserve" text-anchor="middle" x="286" y="-99.4" font-family="SourceSans" font-size="8.00">svg::style_text_r</text>
</a>
</g>
</g>
<!-- Node2&#45;&gt;Node5 -->
<g id="edge4_Node000002_Node000005" class="edge">
<title>Node2&#45;&gt;Node5</title>
<g id="a_edge4_Node000002_Node000005"><a xlink:title=" ">
<path fill="none" stroke="#63b8ff" d="M204.87,-115.67C215,-113.82 225.98,-111.81 236.48,-109.89"/>
<polygon fill="#63b8ff" stroke="#63b8ff" points="236.92,-113.36 246.12,-108.12 235.66,-106.48 236.92,-113.36"/>
</a>
</g>
</g>
<!-- Node4 -->
<g id="Node000004" class="node">
<title>Node4</title>
<g id="a_Node000004"><a xlink:href="group__elements.html#ad893ef9c13a15464c96d8a85c08af30f" target="_top" xlink:title=" ">
<polygon fill="white" stroke="#666666" points="468.25,-155 367.5,-155 367.5,-135 468.25,-135 468.25,-155"/>
<text xml:space="preserve" text-anchor="middle" x="417.88" y="-143.4" font-family="SourceSans" font-size="8.00">svg::element_base::str</text>
</a>
</g>
</g>
<!-- Node3&#45;&gt;Node4 -->
<g id="edge3_Node000003_Node000004" class="edge">
<title>Node3&#45;&gt;Node4</title>
<g id="a_edge3_Node000003_Node000004"><a xlink:title=" ">
<path fill="none" stroke="#63b8ff" d="M331.7,-145C339.48,-145 347.69,-145 355.82,-145"/>
<polygon fill="#63b8ff" stroke="#63b8ff" points="355.69,-148.5 365.69,-145 355.69,-141.5 355.69,-148.5"/>
</a>
</g>
</g>
<!-- Node6 -->
<g id="Node000006" class="node">
<title>Node6</title>
<g id="a_Node000006"><a xlink:href="structsvg_1_1transform.html#acf9836f4ba647f0dd2b53963a0f714d0" target="_top" xlink:title=" ">
<polygon fill="white" stroke="#666666" points="466.75,-114 369,-114 369,-94 466.75,-94 466.75,-114"/>
<text xml:space="preserve" text-anchor="middle" x="417.88" y="-102.4" font-family="SourceSans" font-size="8.00">svg::transform::rotate</text>
</a>
</g>
</g>
<!-- Node5&#45;&gt;Node6 -->
<g id="edge5_Node000005_Node000006" class="edge">
<title>Node5&#45;&gt;Node6</title>
<g id="a_edge5_Node000005_Node000006"><a xlink:title=" ">
<path fill="none" stroke="#63b8ff" d="M324.22,-101.86C334.67,-102.1 346.31,-102.37 357.71,-102.63"/>
<polygon fill="#63b8ff" stroke="#63b8ff" points="357.38,-106.13 367.46,-102.86 357.54,-99.13 357.38,-106.13"/>
</a>
</g>
</g>
<!-- Node7 -->
<g id="Node000007" class="node">
<title>Node7</title>
<g id="a_Node000007"><a xlink:href="namespacesvg.html#a74ca2344cea417d9107d56f4f53c5b0b" target="_top" xlink:title="Text element at.">
<polygon fill="white" stroke="#666666" points="452.5,-76 383.25,-76 383.25,-56 452.5,-56 452.5,-76"/>
<text xml:space="preserve" text-anchor="middle" x="417.88" y="-64.4" font-family="SourceSans" font-size="8.00">svg::style_text</text>
</a>
</g>
</g>
<!-- Node5&#45;&gt;Node7 -->
<g id="edge6_Node000005_Node000007" class="edge">
<title>Node5&#45;&gt;Node7</title>
<g id="a_edge6_Node000005_Node000007"><a xlink:title=" ">
<path fill="none" stroke="#63b8ff" d="M324.22,-90.97C339.05,-86.97 356.27,-82.33 371.81,-78.15"/>
<polygon fill="#63b8ff" stroke="#63b8ff" points="372.56,-81.57 381.3,-75.59 370.74,-74.81 372.56,-81.57"/>
</a>
</g>
</g>
<!-- Node8 -->
<g id="Node000008" class="node">
<title>Node8</title>
<g id="a_Node000008"><a xlink:href="group__elements.html#aad29e1daf75bdcd69a39575a6807fa0f" target="_top" xlink:title="Either serialize immediately (as below), or create data structure that adds data to data_vec and then...">
<polygon fill="white" stroke="#666666" points="592.25,-132 504.25,-132 504.25,-100 592.25,-100 592.25,-132"/>
<text xml:space="preserve" text-anchor="start" x="512.25" y="-120.4" font-family="SourceSans" font-size="8.00">svg::text_element::</text>
<text xml:space="preserve" text-anchor="middle" x="548.25" y="-108.4" font-family="SourceSans" font-size="8.00">add_data</text>
</a>
</g>
</g>
<!-- Node7&#45;&gt;Node8 -->
<g id="edge7_Node000007_Node000008" class="edge">
<title>Node7&#45;&gt;Node8</title>
<g id="a_edge7_Node000007_Node000008"><a xlink:title=" ">
<path fill="none" stroke="#63b8ff" d="M446.05,-76.42C453.27,-79.2 461.06,-82.21 468.25,-85 476.84,-88.34 485.95,-91.9 494.81,-95.37"/>
<polygon fill="#63b8ff" stroke="#63b8ff" points="493.45,-98.59 504.04,-98.99 496.01,-92.08 493.45,-98.59"/>
</a>
</g>
</g>
<!-- Node16 -->
<g id="Node000016" class="node">
<title>Node16</title>
<g id="a_Node000016"><a xlink:href="group__elements.html#ga13c46848317034d16c62a7d2061ba3d6" target="_top" xlink:title=" ">
<polygon fill="white" stroke="#666666" points="592.25,-82 504.25,-82 504.25,-50 592.25,-50 592.25,-82"/>
<text xml:space="preserve" text-anchor="start" x="512.25" y="-70.4" font-family="SourceSans" font-size="8.00">svg::text_element::</text>
<text xml:space="preserve" text-anchor="middle" x="548.25" y="-58.4" font-family="SourceSans" font-size="8.00">finish_element</text>
</a>
</g>
</g>
<!-- Node7&#45;&gt;Node16 -->
<g id="edge17_Node000007_Node000016" class="edge">
<title>Node7&#45;&gt;Node16</title>
<g id="a_edge17_Node000007_Node000016"><a xlink:title=" ">
<path fill="none" stroke="#63b8ff" d="M452.94,-66C465.13,-66 479.19,-66 492.67,-66"/>
<polygon fill="#63b8ff" stroke="#63b8ff" points="492.29,-69.5 502.29,-66 492.29,-62.5 492.29,-69.5"/>
</a>
</g>
</g>
<!-- Node17 -->
<g id="Node000017" class="node">
<title>Node17</title>
<g id="a_Node000017"><a xlink:href="group__elements.html#ae45bec611a6ec17ea46aab6d680ae042" target="_top" xlink:title=" ">
<polygon fill="white" stroke="#666666" points="592.25,-32 504.25,-32 504.25,0 592.25,0 592.25,-32"/>
<text xml:space="preserve" text-anchor="start" x="512.25" y="-20.4" font-family="SourceSans" font-size="8.00">svg::text_element::</text>
<text xml:space="preserve" text-anchor="middle" x="548.25" y="-8.4" font-family="SourceSans" font-size="8.00">start_element</text>
</a>
</g>
</g>
<!-- Node7&#45;&gt;Node17 -->
<g id="edge18_Node000007_Node000017" class="edge">
<title>Node7&#45;&gt;Node17</title>
<g id="a_edge18_Node000007_Node000017"><a xlink:title=" ">
<path fill="none" stroke="#63b8ff" d="M445.79,-55.52C459.97,-49.99 477.88,-43.02 494.68,-36.47"/>
<polygon fill="#63b8ff" stroke="#63b8ff" points="495.5,-39.91 503.55,-33.02 492.96,-33.39 495.5,-39.91"/>
</a>
</g>
</g>
<!-- Node9 -->
<g id="Node000009" class="node">
<title>Node9</title>
<g id="a_Node000009"><a xlink:href="structsvg_1_1typography.html#adbc62f74f1fed3f7c77567250f084f83" target="_top" xlink:title=" ">
<polygon fill="white" stroke="#666666" points="724.5,-176 628.25,-176 628.25,-144 724.5,-144 724.5,-176"/>
<text xml:space="preserve" text-anchor="start" x="636.25" y="-164.4" font-family="SourceSans" font-size="8.00">svg::typography::add</text>
<text xml:space="preserve" text-anchor="middle" x="676.38" y="-152.4" font-family="SourceSans" font-size="8.00">_attribute</text>
</a>
</g>
</g>
<!-- Node8&#45;&gt;Node9 -->
<g id="edge8_Node000008_Node000009" class="edge">
<title>Node8&#45;&gt;Node9</title>
<g id="a_edge8_Node000008_Node000009"><a xlink:title=" ">
<path fill="none" stroke="#63b8ff" d="M592.66,-131.14C600.77,-133.97 609.37,-136.97 617.84,-139.93"/>
<polygon fill="#63b8ff" stroke="#63b8ff" points="616.42,-143.14 627.01,-143.13 618.72,-136.53 616.42,-143.14"/>
</a>
</g>
</g>
<!-- Node10 -->
<g id="Node000010" class="node">
<title>Node10</title>
<g id="a_Node000010"><a xlink:href="namespacesvg.html#a48ac748e89e22789d1772326a98dd7b6" target="_top" xlink:title=" ">
<polygon fill="white" stroke="#666666" points="862,-214 774.75,-214 774.75,-194 862,-194 862,-214"/>
<text xml:space="preserve" text-anchor="middle" x="818.38" y="-202.4" font-family="SourceSans" font-size="8.00">svg::string_replace</text>
</a>
</g>
</g>
<!-- Node8&#45;&gt;Node10 -->
<g id="edge15_Node000008_Node000010" class="edge">
<title>Node8&#45;&gt;Node10</title>
<g id="a_edge15_Node000008_Node000010"><a xlink:title=" ">
<path fill="none" stroke="#63b8ff" d="M562.43,-132.33C576.74,-148.75 601.18,-173.27 628.25,-185 671.01,-203.54 724.15,-207.4 763.2,-207.14"/>
<polygon fill="#63b8ff" stroke="#63b8ff" points="763.13,-210.65 773.07,-206.98 763.01,-203.65 763.13,-210.65"/>
</a>
</g>
</g>
<!-- Node11 -->
<g id="Node000011" class="node">
<title>Node11</title>
<g id="a_Node000011"><a xlink:href="namespacesvg.html#a36b1c48ad4601b205790e3772ad0a7b6" target="_top" xlink:title=" ">
<polygon fill="white" stroke="#666666" points="851.88,-126 784.88,-126 784.88,-106 851.88,-106 851.88,-126"/>
<text xml:space="preserve" text-anchor="middle" x="818.38" y="-114.4" font-family="SourceSans" font-size="8.00">svg::to_string</text>
</a>
</g>
</g>
<!-- Node8&#45;&gt;Node11 -->
<g id="edge16_Node000008_Node000011" class="edge">
<title>Node8&#45;&gt;Node11</title>
<g id="a_edge16_Node000008_Node000011"><a xlink:title=" ">
<path fill="none" stroke="#63b8ff" d="M592.63,-116C642.3,-116 723.24,-116 773.23,-116"/>
<polygon fill="#63b8ff" stroke="#63b8ff" points="773.11,-119.5 783.11,-116 773.11,-112.5 773.11,-119.5"/>
</a>
</g>
</g>
<!-- Node13 -->
<g id="Node000013" class="node">
<title>Node13</title>
<g id="a_Node000013"><a xlink:href="group__elements.html#acafbdd950c6c2639c9d376c3eab696e5" target="_top" xlink:title=" ">
<polygon fill="white" stroke="#666666" points="721.88,-88 630.88,-88 630.88,-56 721.88,-56 721.88,-88"/>
<text xml:space="preserve" text-anchor="start" x="638.88" y="-76.4" font-family="SourceSans" font-size="8.00">svg::element_base::</text>
<text xml:space="preserve" text-anchor="middle" x="676.38" y="-64.4" font-family="SourceSans" font-size="8.00">add_raw</text>
</a>
</g>
</g>
<!-- Node8&#45;&gt;Node13 -->
<g id="edge12_Node000008_Node000013" class="edge">
<title>Node8&#45;&gt;Node13</title>
<g id="a_edge12_Node000008_Node000013"><a xlink:title=" ">
<path fill="none" stroke="#63b8ff" d="M592.66,-100.86C601.46,-97.78 610.84,-94.51 620,-91.32"/>
<polygon fill="#63b8ff" stroke="#63b8ff" points="620.88,-94.72 629.17,-88.12 618.58,-88.11 620.88,-94.72"/>
</a>
</g>
</g>
<!-- Node14 -->
<g id="Node000014" class="node">
<title>Node14</title>
<g id="a_Node000014"><a xlink:href="group__elements.html#a53d72a7ff728ad1d4d027254530bcf3d" target="_top" xlink:title=" ">
<polygon fill="white" stroke="#666666" points="721.88,-38 630.88,-38 630.88,-6 721.88,-6 721.88,-38"/>
<text xml:space="preserve" text-anchor="start" x="638.88" y="-26.4" font-family="SourceSans" font-size="8.00">svg::element_base::</text>
<text xml:space="preserve" text-anchor="middle" x="676.38" y="-14.4" font-family="SourceSans" font-size="8.00">add_transform</text>
</a>
</g>
</g>
<!-- Node8&#45;&gt;Node14 -->
<g id="edge13_Node000008_Node000014" class="edge">
<title>Node8&#45;&gt;Node14</title>
<g id="a_edge13_Node000008_Node000014"><a xlink:title=" ">
<path fill="none" stroke="#63b8ff" d="M580.69,-99.52C584.74,-96.89 588.7,-94.02 592.25,-91 611.48,-74.61 608.71,-63.01 628.25,-47 629.34,-46.11 630.46,-45.23 631.62,-44.38"/>
<polygon fill="#63b8ff" stroke="#63b8ff" points="633.24,-47.51 639.62,-39.05 629.36,-41.68 633.24,-47.51"/>
</a>
</g>
</g>
<!-- Node9&#45;&gt;Node10 -->
<g id="edge9_Node000009_Node000010" class="edge">
<title>Node9&#45;&gt;Node10</title>
<g id="a_edge9_Node000009_Node000010"><a xlink:title=" ">
<path fill="none" stroke="#63b8ff" d="M724.77,-174.9C740.48,-179.83 757.88,-185.3 773.32,-190.15"/>
<polygon fill="#63b8ff" stroke="#63b8ff" points="772.13,-193.45 782.72,-193.11 774.23,-186.77 772.13,-193.45"/>
</a>
</g>
</g>
<!-- Node9&#45;&gt;Node11 -->
<g id="edge10_Node000009_Node000011" class="edge">
<title>Node9&#45;&gt;Node11</title>
<g id="a_edge10_Node000009_Node000011"><a xlink:title=" ">
<path fill="none" stroke="#63b8ff" d="M724.77,-145.1C740.6,-140.13 758.16,-134.61 773.7,-129.73"/>
<polygon fill="#63b8ff" stroke="#63b8ff" points="774.66,-133.09 783.15,-126.76 772.56,-126.42 774.66,-133.09"/>
</a>
</g>
</g>
<!-- Node12 -->
<g id="Node000012" class="node">
<title>Node12</title>
<g id="a_Node000012"><a xlink:href="structsvg_1_1typography.html#a174c1ffb4e56214d71523ffe7e422561" target="_top" xlink:title=" ">
<polygon fill="white" stroke="#666666" points="862.75,-176 774,-176 774,-144 862.75,-144 862.75,-176"/>
<text xml:space="preserve" text-anchor="start" x="782" y="-164.4" font-family="SourceSans" font-size="8.00">svg::typography::to</text>
<text xml:space="preserve" text-anchor="middle" x="818.38" y="-152.4" font-family="SourceSans" font-size="8.00">_string</text>
</a>
</g>
</g>
<!-- Node9&#45;&gt;Node12 -->
<g id="edge11_Node000009_Node000012" class="edge">
<title>Node9&#45;&gt;Node12</title>
<g id="a_edge11_Node000009_Node000012"><a xlink:title=" ">
<path fill="none" stroke="#63b8ff" d="M724.77,-160C736.92,-160 750.08,-160 762.57,-160"/>
<polygon fill="#63b8ff" stroke="#63b8ff" points="762.28,-163.5 772.28,-160 762.28,-156.5 762.28,-163.5"/>
</a>
</g>
</g>
<!-- Node15 -->
<g id="Node000015" class="node">
<title>Node15</title>
<g id="a_Node000015"><a xlink:href="group__elements.html#ae50258851ebbaf08c7eebc3fbdbf1ac8" target="_top" xlink:title="Common transforms include rotate(180)">
<polygon fill="white" stroke="#666666" points="876.25,-38 760.5,-38 760.5,-6 876.25,-6 876.25,-38"/>
<text xml:space="preserve" text-anchor="start" x="768.5" y="-26.4" font-family="SourceSans" font-size="8.00">svg::element_base::</text>
<text xml:space="preserve" text-anchor="middle" x="818.38" y="-14.4" font-family="SourceSans" font-size="8.00">make_transform_attribute</text>
</a>
</g>
</g>
<!-- Node14&#45;&gt;Node15 -->
<g id="edge14_Node000014_Node000015" class="edge">
<title>Node14&#45;&gt;Node15</title>
<g id="a_edge14_Node000014_Node000015"><a xlink:title=" ">
<path fill="none" stroke="#63b8ff" d="M722.06,-22C730.55,-22 739.62,-22 748.67,-22"/>
<polygon fill="#63b8ff" stroke="#63b8ff" points="748.55,-25.5 758.55,-22 748.55,-18.5 748.55,-25.5"/>
</a>
</g>
</g>
</g>
</svg>
