<?xml version="1.0" encoding="UTF-8" standalone="no"?>
<!DOCTYPE svg PUBLIC "-//W3C//DTD SVG 1.1//EN"
 "http://www.w3.org/Graphics/SVG/1.1/DTD/svg11.dtd">
<!-- Generated by graphviz version 13.1.2 (20250808.2320)
 -->
<!-- Title: svg::display_color_qis Pages: 1 -->
<svg width="829pt" height="886pt"
 viewBox="0.00 0.00 829.00 886.00" xmlns="http://www.w3.org/2000/svg" xmlns:xlink="http://www.w3.org/1999/xlink">
<g id="graph0" class="graph" transform="scale(1 1) rotate(0) translate(4 881.56)">
<title>svg::display_color_qis</title>
<!-- Node1 -->
<g id="Node000001" class="node">
<title>Node1</title>
<g id="a_Node000001"><a xlink:title="Make grid palette for display. NB.">
<polygon fill="#999999" stroke="#666666" points="97,-398 0,-398 0,-378 97,-378 97,-398"/>
<text xml:space="preserve" text-anchor="middle" x="48.5" y="-386.4" font-family="SourceSans" font-size="8.00">svg::display_color_qis</text>
</a>
</g>
</g>
<!-- Node2 -->
<g id="Node000002" class="node">
<title>Node2</title>
<g id="a_Node000002"><a xlink:href="group__elements.html#ada0333b46b2547c6152f3f5811016a12" target="_top" xlink:title=" ">
<polygon fill="white" stroke="#666666" points="672.12,-746 581.12,-746 581.12,-714 672.12,-714 672.12,-746"/>
<text xml:space="preserve" text-anchor="start" x="589.12" y="-734.4" font-family="SourceSans" font-size="8.00">svg::element_base::</text>
<text xml:space="preserve" text-anchor="middle" x="626.62" y="-722.4" font-family="SourceSans" font-size="8.00">add_element</text>
</a>
</g>
</g>
<!-- Node1&#45;&gt;Node2 -->
<g id="edge1_Node000001_Node000002" class="edge">
<title>Node1&#45;&gt;Node2</title>
<g id="a_edge1_Node000001_Node000002"><a xlink:title=" ">
<path fill="none" stroke="#63b8ff" d="M51.48,-398.13C58.44,-432.2 84.11,-544.96 133,-625 182.12,-705.42 202.94,-723.02 278.75,-779 373.75,-849.15 427.45,-910.45 532.75,-857 573.97,-836.08 601.27,-787.33 615.05,-756.68"/>
<polygon fill="#63b8ff" stroke="#63b8ff" points="618.19,-758.25 618.92,-747.68 611.75,-755.48 618.19,-758.25"/>
</a>
</g>
</g>
<!-- Node4 -->
<g id="Node000004" class="node">
<title>Node4</title>
<g id="a_Node000004"><a xlink:href="group__elements.html#a3f7b6a0f29695c76b8a9e0c6d939f1b6" target="_top" xlink:title="SVG element end boilerplate.">
<polygon fill="white" stroke="#666666" points="241.25,-32 134.5,-32 134.5,0 241.25,0 241.25,-32"/>
<text xml:space="preserve" text-anchor="start" x="142.5" y="-20.4" font-family="SourceSans" font-size="8.00">svg::svg_element::finish</text>
<text xml:space="preserve" text-anchor="middle" x="187.88" y="-8.4" font-family="SourceSans" font-size="8.00">_element</text>
</a>
</g>
</g>
<!-- Node1&#45;&gt;Node4 -->
<g id="edge3_Node000001_Node000004" class="edge">
<title>Node1&#45;&gt;Node4</title>
<g id="a_edge3_Node000001_Node000004"><a xlink:title=" ">
<path fill="none" stroke="#63b8ff" d="M49.18,-377.52C48.35,-332.66 50.58,-154.17 133,-46 134.76,-43.69 136.75,-41.53 138.91,-39.52"/>
<polygon fill="#63b8ff" stroke="#63b8ff" points="140.98,-42.34 146.69,-33.41 136.66,-36.83 140.98,-42.34"/>
</a>
</g>
</g>
<!-- Node5 -->
<g id="Node000005" class="node">
<title>Node5</title>
<g id="a_Node000005"><a xlink:href="namespacesvg.html#a7a295be306c0550a690075e94c1dfd46" target="_top" xlink:title="Create rect_element centered at origin.">
<polygon fill="white" stroke="#666666" points="242.75,-414 133,-414 133,-394 242.75,-394 242.75,-414"/>
<text xml:space="preserve" text-anchor="middle" x="187.88" y="-402.4" font-family="SourceSans" font-size="8.00">svg::make_rect_centered</text>
</a>
</g>
</g>
<!-- Node1&#45;&gt;Node5 -->
<g id="edge4_Node000001_Node000005" class="edge">
<title>Node1&#45;&gt;Node5</title>
<g id="a_edge4_Node000001_Node000005"><a xlink:title=" ">
<path fill="none" stroke="#63b8ff" d="M97.16,-393.55C104.96,-394.46 113.15,-395.41 121.29,-396.36"/>
<polygon fill="#63b8ff" stroke="#63b8ff" points="120.87,-399.84 131.2,-397.52 121.68,-392.88 120.87,-399.84"/>
</a>
</g>
</g>
<!-- Node11 -->
<g id="Node000011" class="node">
<title>Node11</title>
<g id="a_Node000011"><a xlink:href="namespacesvg.html#a36b1c48ad4601b205790e3772ad0a7b6" target="_top" xlink:title=" ">
<polygon fill="white" stroke="#666666" points="660.12,-252 593.12,-252 593.12,-232 660.12,-232 660.12,-252"/>
<text xml:space="preserve" text-anchor="middle" x="626.62" y="-240.4" font-family="SourceSans" font-size="8.00">svg::to_string</text>
</a>
</g>
</g>
<!-- Node1&#45;&gt;Node11 -->
<g id="edge42_Node000001_Node000011" class="edge">
<title>Node1&#45;&gt;Node11</title>
<g id="a_edge42_Node000001_Node000011"><a xlink:title=" ">
<path fill="none" stroke="#63b8ff" d="M57.61,-377.71C94.76,-331.49 254.74,-142.66 436.5,-79 476.87,-64.86 495.76,-57.51 532.75,-79 546.68,-87.1 594.56,-180.05 615.58,-221.85"/>
<polygon fill="#63b8ff" stroke="#63b8ff" points="612.36,-223.23 619.97,-230.6 618.62,-220.09 612.36,-223.23"/>
</a>
</g>
</g>
<!-- Node14 -->
<g id="Node000014" class="node">
<title>Node14</title>
<g id="a_Node000014"><a xlink:href="namespacesvg.html#a1309ce987f4e87ad97a1f3638a7af541" target="_top" xlink:title="Text at size, with a transformation=rotation.">
<polygon fill="white" stroke="#666666" points="227,-367 148.75,-367 148.75,-347 227,-347 227,-367"/>
<text xml:space="preserve" text-anchor="middle" x="187.88" y="-355.4" font-family="SourceSans" font-size="8.00">svg::sized_text_r</text>
</a>
</g>
</g>
<!-- Node1&#45;&gt;Node14 -->
<g id="edge13_Node000001_Node000014" class="edge">
<title>Node1&#45;&gt;Node14</title>
<g id="a_edge13_Node000001_Node000014"><a xlink:title=" ">
<path fill="none" stroke="#63b8ff" d="M96.01,-377.5C109.39,-374.49 124.02,-371.18 137.57,-368.13"/>
<polygon fill="#63b8ff" stroke="#63b8ff" points="138.17,-371.58 147.15,-365.96 136.63,-364.75 138.17,-371.58"/>
</a>
</g>
</g>
<!-- Node24 -->
<g id="Node000024" class="node">
<title>Node24</title>
<g id="a_Node000024"><a xlink:href="group__elements.html#ad47933f8c0bfc36987493c7e3b3bbcbd" target="_top" xlink:title=" ">
<polygon fill="white" stroke="#666666" points="239.38,-616 136.38,-616 136.38,-596 239.38,-596 239.38,-616"/>
<text xml:space="preserve" text-anchor="middle" x="187.88" y="-604.4" font-family="SourceSans" font-size="8.00">svg::svg_element::start</text>
</a>
</g>
</g>
<!-- Node1&#45;&gt;Node24 -->
<g id="edge28_Node000001_Node000024" class="edge">
<title>Node1&#45;&gt;Node24</title>
<g id="a_edge28_Node000001_Node000024"><a xlink:title=" ">
<path fill="none" stroke="#63b8ff" d="M55.94,-398.22C77.25,-432.04 145.75,-540.74 174.25,-585.96"/>
<polygon fill="#63b8ff" stroke="#63b8ff" points="171.19,-587.67 179.48,-594.27 177.11,-583.94 171.19,-587.67"/>
</a>
</g>
</g>
<!-- Node3 -->
<g id="Node000003" class="node">
<title>Node3</title>
<g id="a_Node000003"><a xlink:href="group__elements.html#ad893ef9c13a15464c96d8a85c08af30f" target="_top" xlink:title=" ">
<polygon fill="white" stroke="#666666" points="821.25,-740 720.5,-740 720.5,-720 821.25,-720 821.25,-740"/>
<text xml:space="preserve" text-anchor="middle" x="770.88" y="-728.4" font-family="SourceSans" font-size="8.00">svg::element_base::str</text>
</a>
</g>
</g>
<!-- Node2&#45;&gt;Node3 -->
<g id="edge2_Node000002_Node000003" class="edge">
<title>Node2&#45;&gt;Node3</title>
<g id="a_edge2_Node000002_Node000003"><a xlink:title=" ">
<path fill="none" stroke="#63b8ff" d="M672.24,-730C683.91,-730 696.68,-730 709.04,-730"/>
<polygon fill="#63b8ff" stroke="#63b8ff" points="708.71,-733.5 718.71,-730 708.71,-726.5 708.71,-733.5"/>
</a>
</g>
</g>
<!-- Node6 -->
<g id="Node000006" class="node">
<title>Node6</title>
<g id="a_Node000006"><a xlink:href="namespacesvg.html#aab7d11a5ce14c5bfa6eeea480fddccde" target="_top" xlink:title="Create rect_element at origin.">
<polygon fill="white" stroke="#666666" points="375.75,-439 303.5,-439 303.5,-419 375.75,-419 375.75,-439"/>
<text xml:space="preserve" text-anchor="middle" x="339.62" y="-427.4" font-family="SourceSans" font-size="8.00">svg::make_rect</text>
</a>
</g>
</g>
<!-- Node5&#45;&gt;Node6 -->
<g id="edge5_Node000005_Node000006" class="edge">
<title>Node5&#45;&gt;Node6</title>
<g id="a_edge5_Node000005_Node000006"><a xlink:title=" ">
<path fill="none" stroke="#63b8ff" d="M242.94,-413.03C259.12,-415.73 276.71,-418.66 292.34,-421.27"/>
<polygon fill="#63b8ff" stroke="#63b8ff" points="291.39,-424.66 301.83,-422.86 292.55,-417.76 291.39,-424.66"/>
</a>
</g>
</g>
<!-- Node7 -->
<g id="Node000007" class="node">
<title>Node7</title>
<g id="a_Node000007"><a xlink:href="group__elements.html#a1dd6663d882fb5dd14a47462a77f351b" target="_top" xlink:title="Either serialize immediately (as below), or create data structure that adds data to data_vec and then...">
<polygon fill="white" stroke="#666666" points="528.25,-496 441,-496 441,-464 528.25,-464 528.25,-496"/>
<text xml:space="preserve" text-anchor="start" x="449" y="-484.4" font-family="SourceSans" font-size="8.00">svg::rect_element::</text>
<text xml:space="preserve" text-anchor="middle" x="484.62" y="-472.4" font-family="SourceSans" font-size="8.00">add_data</text>
</a>
</g>
</g>
<!-- Node6&#45;&gt;Node7 -->
<g id="edge6_Node000006_Node000007" class="edge">
<title>Node6&#45;&gt;Node7</title>
<g id="a_edge6_Node000006_Node000007"><a xlink:title=" ">
<path fill="none" stroke="#63b8ff" d="M369.91,-439.44C387.15,-445.59 409.51,-453.57 429.82,-460.81"/>
<polygon fill="#63b8ff" stroke="#63b8ff" points="428.52,-464.06 439.12,-464.13 430.87,-457.47 428.52,-464.06"/>
</a>
</g>
</g>
<!-- Node9 -->
<g id="Node000009" class="node">
<title>Node9</title>
<g id="a_Node000009"><a xlink:href="group__elements.html#a1b22cfab9437b40c8b877ffe5472ff02" target="_top" xlink:title=" ">
<polygon fill="white" stroke="#666666" points="530.12,-546 439.12,-546 439.12,-514 530.12,-514 530.12,-546"/>
<text xml:space="preserve" text-anchor="start" x="447.12" y="-534.4" font-family="SourceSans" font-size="8.00">svg::element_base::</text>
<text xml:space="preserve" text-anchor="middle" x="484.62" y="-522.4" font-family="SourceSans" font-size="8.00">add_filter</text>
</a>
</g>
</g>
<!-- Node6&#45;&gt;Node9 -->
<g id="edge8_Node000006_Node000009" class="edge">
<title>Node6&#45;&gt;Node9</title>
<g id="a_edge8_Node000006_Node000009"><a xlink:title=" ">
<path fill="none" stroke="#63b8ff" d="M352.2,-439.33C369.72,-454.68 404.32,-483.96 436.5,-505 437.91,-505.92 439.35,-506.83 440.81,-507.74"/>
<polygon fill="#63b8ff" stroke="#63b8ff" points="439.03,-510.75 449.42,-512.78 442.56,-504.71 439.03,-510.75"/>
</a>
</g>
</g>
<!-- Node10 -->
<g id="Node000010" class="node">
<title>Node10</title>
<g id="a_Node000010"><a xlink:href="group__elements.html#a238b38ca99a1cf6c2baf80c8e4338d99" target="_top" xlink:title=" ">
<polygon fill="white" stroke="#666666" points="530.12,-258 439.12,-258 439.12,-226 530.12,-226 530.12,-258"/>
<text xml:space="preserve" text-anchor="start" x="447.12" y="-246.4" font-family="SourceSans" font-size="8.00">svg::element_base::</text>
<text xml:space="preserve" text-anchor="middle" x="484.62" y="-234.4" font-family="SourceSans" font-size="8.00">add_style</text>
</a>
</g>
</g>
<!-- Node6&#45;&gt;Node10 -->
<g id="edge9_Node000006_Node000010" class="edge">
<title>Node6&#45;&gt;Node10</title>
<g id="a_edge9_Node000006_Node000010"><a xlink:title=" ">
<path fill="none" stroke="#63b8ff" d="M375.99,-422.87C385.04,-419.75 394.03,-415.07 400.5,-408 444.19,-360.31 396.51,-317.84 436.5,-267 436.74,-266.7 436.98,-266.4 437.22,-266.11"/>
<polygon fill="#63b8ff" stroke="#63b8ff" points="439.38,-268.88 444.28,-259.48 434.59,-263.78 439.38,-268.88"/>
</a>
</g>
</g>
<!-- Node12 -->
<g id="Node000012" class="node">
<title>Node12</title>
<g id="a_Node000012"><a xlink:href="group__elements.html#gad01750ac554c6bd6871a930c90e17a04" target="_top" xlink:title=" ">
<polygon fill="white" stroke="#666666" points="528.25,-446 441,-446 441,-414 528.25,-414 528.25,-446"/>
<text xml:space="preserve" text-anchor="start" x="449" y="-434.4" font-family="SourceSans" font-size="8.00">svg::rect_element::</text>
<text xml:space="preserve" text-anchor="middle" x="484.62" y="-422.4" font-family="SourceSans" font-size="8.00">finish_element</text>
</a>
</g>
</g>
<!-- Node6&#45;&gt;Node12 -->
<g id="edge11_Node000006_Node000012" class="edge">
<title>Node6&#45;&gt;Node12</title>
<g id="a_edge11_Node000006_Node000012"><a xlink:title=" ">
<path fill="none" stroke="#63b8ff" d="M375.97,-429.25C391.99,-429.36 411.28,-429.49 429.08,-429.62"/>
<polygon fill="#63b8ff" stroke="#63b8ff" points="428.98,-433.12 439.01,-429.69 429.03,-426.12 428.98,-433.12"/>
</a>
</g>
</g>
<!-- Node13 -->
<g id="Node000013" class="node">
<title>Node13</title>
<g id="a_Node000013"><a xlink:href="group__elements.html#a1e0ed5e9dfe1244317a87d7e6774348b" target="_top" xlink:title=" ">
<polygon fill="white" stroke="#666666" points="528.25,-396 441,-396 441,-364 528.25,-364 528.25,-396"/>
<text xml:space="preserve" text-anchor="start" x="449" y="-384.4" font-family="SourceSans" font-size="8.00">svg::rect_element::</text>
<text xml:space="preserve" text-anchor="middle" x="484.62" y="-372.4" font-family="SourceSans" font-size="8.00">start_element</text>
</a>
</g>
</g>
<!-- Node6&#45;&gt;Node13 -->
<g id="edge12_Node000006_Node000013" class="edge">
<title>Node6&#45;&gt;Node13</title>
<g id="a_edge12_Node000006_Node000013"><a xlink:title=" ">
<path fill="none" stroke="#63b8ff" d="M370.95,-418.61C388.04,-412.75 409.88,-405.27 429.78,-398.45"/>
<polygon fill="#63b8ff" stroke="#63b8ff" points="430.84,-401.79 439.16,-395.24 428.57,-395.17 430.84,-401.79"/>
</a>
</g>
</g>
<!-- Node8 -->
<g id="Node000008" class="node">
<title>Node8</title>
<g id="a_Node000008"><a xlink:href="namespacesvg.html#a48ac748e89e22789d1772326a98dd7b6" target="_top" xlink:title=" ">
<polygon fill="white" stroke="#666666" points="670.25,-418 583,-418 583,-398 670.25,-398 670.25,-418"/>
<text xml:space="preserve" text-anchor="middle" x="626.62" y="-406.4" font-family="SourceSans" font-size="8.00">svg::string_replace</text>
</a>
</g>
</g>
<!-- Node7&#45;&gt;Node8 -->
<g id="edge7_Node000007_Node000008" class="edge">
<title>Node7&#45;&gt;Node8</title>
<g id="a_edge7_Node000007_Node000008"><a xlink:title=" ">
<path fill="none" stroke="#63b8ff" d="M517.39,-463.66C540.65,-451.7 572.04,-435.56 595.03,-423.74"/>
<polygon fill="#63b8ff" stroke="#63b8ff" points="596.61,-426.86 603.9,-419.17 593.41,-420.63 596.61,-426.86"/>
</a>
</g>
</g>
<!-- Node10&#45;&gt;Node11 -->
<g id="edge10_Node000010_Node000011" class="edge">
<title>Node10&#45;&gt;Node11</title>
<g id="a_edge10_Node000010_Node000011"><a xlink:title=" ">
<path fill="none" stroke="#63b8ff" d="M530.31,-242C546.66,-242 565.15,-242 581.46,-242"/>
<polygon fill="#63b8ff" stroke="#63b8ff" points="581.38,-245.5 591.38,-242 581.38,-238.5 581.38,-245.5"/>
</a>
</g>
</g>
<!-- Node14&#45;&gt;Node2 -->
<g id="edge24_Node000014_Node000002" class="edge">
<title>Node14&#45;&gt;Node2</title>
<g id="a_edge24_Node000014_Node000002"><a xlink:title=" ">
<path fill="none" stroke="#63b8ff" d="M220.92,-367.36C229.26,-371.56 237.4,-377.29 242.75,-385 318.26,-493.91 185.95,-586.39 278.75,-681 318.13,-721.15 481.66,-728.86 569.39,-730.05"/>
<polygon fill="#63b8ff" stroke="#63b8ff" points="569.19,-733.55 579.22,-730.16 569.26,-726.55 569.19,-733.55"/>
</a>
</g>
</g>
<!-- Node15 -->
<g id="Node000015" class="node">
<title>Node15</title>
<g id="a_Node000015"><a xlink:href="group__elements.html#aad29e1daf75bdcd69a39575a6807fa0f" target="_top" xlink:title="Either serialize immediately (as below), or create data structure that adds data to data_vec and then...">
<polygon fill="white" stroke="#666666" points="383.62,-308 295.62,-308 295.62,-276 383.62,-276 383.62,-308"/>
<text xml:space="preserve" text-anchor="start" x="303.62" y="-296.4" font-family="SourceSans" font-size="8.00">svg::text_element::</text>
<text xml:space="preserve" text-anchor="middle" x="339.62" y="-284.4" font-family="SourceSans" font-size="8.00">add_data</text>
</a>
</g>
</g>
<!-- Node14&#45;&gt;Node15 -->
<g id="edge14_Node000014_Node000015" class="edge">
<title>Node14&#45;&gt;Node15</title>
<g id="a_edge14_Node000014_Node000015"><a xlink:title=" ">
<path fill="none" stroke="#63b8ff" d="M212.93,-346.56C233.79,-337.5 264.6,-324.13 290.5,-312.89"/>
<polygon fill="#63b8ff" stroke="#63b8ff" points="291.72,-316.18 299.5,-308.98 288.93,-309.75 291.72,-316.18"/>
</a>
</g>
</g>
<!-- Node21 -->
<g id="Node000021" class="node">
<title>Node21</title>
<g id="a_Node000021"><a xlink:href="group__elements.html#ga13c46848317034d16c62a7d2061ba3d6" target="_top" xlink:title=" ">
<polygon fill="white" stroke="#666666" points="383.62,-258 295.62,-258 295.62,-226 383.62,-226 383.62,-258"/>
<text xml:space="preserve" text-anchor="start" x="303.62" y="-246.4" font-family="SourceSans" font-size="8.00">svg::text_element::</text>
<text xml:space="preserve" text-anchor="middle" x="339.62" y="-234.4" font-family="SourceSans" font-size="8.00">finish_element</text>
</a>
</g>
</g>
<!-- Node14&#45;&gt;Node21 -->
<g id="edge25_Node000014_Node000021" class="edge">
<title>Node14&#45;&gt;Node21</title>
<g id="a_edge25_Node000014_Node000021"><a xlink:title=" ">
<path fill="none" stroke="#63b8ff" d="M197,-346.51C211.62,-328.22 244.09,-290.25 278.75,-267 280.84,-265.6 283.02,-264.25 285.26,-262.96"/>
<polygon fill="#63b8ff" stroke="#63b8ff" points="286.8,-266.1 294.03,-258.35 283.55,-259.9 286.8,-266.1"/>
</a>
</g>
</g>
<!-- Node22 -->
<g id="Node000022" class="node">
<title>Node22</title>
<g id="a_Node000022"><a xlink:href="structsvg_1_1transform.html#acf9836f4ba647f0dd2b53963a0f714d0" target="_top" xlink:title=" ">
<polygon fill="white" stroke="#666666" points="388.5,-399 290.75,-399 290.75,-379 388.5,-379 388.5,-399"/>
<text xml:space="preserve" text-anchor="middle" x="339.62" y="-387.4" font-family="SourceSans" font-size="8.00">svg::transform::rotate</text>
</a>
</g>
</g>
<!-- Node14&#45;&gt;Node22 -->
<g id="edge26_Node000014_Node000022" class="edge">
<title>Node14&#45;&gt;Node22</title>
<g id="a_edge26_Node000014_Node000022"><a xlink:title=" ">
<path fill="none" stroke="#63b8ff" d="M227.44,-365.24C243.15,-368.6 261.67,-372.56 279.05,-376.27"/>
<polygon fill="#63b8ff" stroke="#63b8ff" points="278.27,-379.68 288.78,-378.35 279.73,-372.84 278.27,-379.68"/>
</a>
</g>
</g>
<!-- Node23 -->
<g id="Node000023" class="node">
<title>Node23</title>
<g id="a_Node000023"><a xlink:href="group__elements.html#ae45bec611a6ec17ea46aab6d680ae042" target="_top" xlink:title=" ">
<polygon fill="white" stroke="#666666" points="383.62,-361 295.62,-361 295.62,-329 383.62,-329 383.62,-361"/>
<text xml:space="preserve" text-anchor="start" x="303.62" y="-349.4" font-family="SourceSans" font-size="8.00">svg::text_element::</text>
<text xml:space="preserve" text-anchor="middle" x="339.62" y="-337.4" font-family="SourceSans" font-size="8.00">start_element</text>
</a>
</g>
</g>
<!-- Node14&#45;&gt;Node23 -->
<g id="edge27_Node000014_Node000023" class="edge">
<title>Node14&#45;&gt;Node23</title>
<g id="a_edge27_Node000014_Node000023"><a xlink:title=" ">
<path fill="none" stroke="#63b8ff" d="M227.44,-353.91C244.59,-352.54 265.1,-350.89 283.8,-349.39"/>
<polygon fill="#63b8ff" stroke="#63b8ff" points="283.97,-352.89 293.66,-348.6 283.41,-345.91 283.97,-352.89"/>
</a>
</g>
</g>
<!-- Node15&#45;&gt;Node8 -->
<g id="edge22_Node000015_Node000008" class="edge">
<title>Node15&#45;&gt;Node8</title>
<g id="a_edge22_Node000015_Node000008"><a xlink:title=" ">
<path fill="none" stroke="#63b8ff" d="M383.9,-303.48C423.46,-314.61 483.18,-333 532.75,-355 556.41,-365.5 581.84,-380.28 600.1,-391.57"/>
<polygon fill="#63b8ff" stroke="#63b8ff" points="598.09,-394.44 608.42,-396.79 601.81,-388.51 598.09,-394.44"/>
</a>
</g>
</g>
<!-- Node15&#45;&gt;Node11 -->
<g id="edge23_Node000015_Node000011" class="edge">
<title>Node15&#45;&gt;Node11</title>
<g id="a_edge23_Node000015_Node000011"><a xlink:title=" ">
<path fill="none" stroke="#63b8ff" d="M383.98,-279.09C390.08,-275.87 395.84,-271.9 400.5,-267 433.06,-232.77 397.85,-194.16 436.5,-167 471.5,-142.4 492.42,-152.75 532.75,-167 564.18,-178.11 592.77,-204.86 609.69,-223.21"/>
<polygon fill="#63b8ff" stroke="#63b8ff" points="606.96,-225.41 616.22,-230.55 612.19,-220.75 606.96,-225.41"/>
</a>
</g>
</g>
<!-- Node16 -->
<g id="Node000016" class="node">
<title>Node16</title>
<g id="a_Node000016"><a xlink:href="structsvg_1_1typography.html#adbc62f74f1fed3f7c77567250f084f83" target="_top" xlink:title=" ">
<polygon fill="white" stroke="#666666" points="532.75,-308 436.5,-308 436.5,-276 532.75,-276 532.75,-308"/>
<text xml:space="preserve" text-anchor="start" x="444.5" y="-296.4" font-family="SourceSans" font-size="8.00">svg::typography::add</text>
<text xml:space="preserve" text-anchor="middle" x="484.62" y="-284.4" font-family="SourceSans" font-size="8.00">_attribute</text>
</a>
</g>
</g>
<!-- Node15&#45;&gt;Node16 -->
<g id="edge15_Node000015_Node000016" class="edge">
<title>Node15&#45;&gt;Node16</title>
<g id="a_edge15_Node000015_Node000016"><a xlink:title=" ">
<path fill="none" stroke="#63b8ff" d="M383.92,-292C396.83,-292 411.2,-292 424.92,-292"/>
<polygon fill="#63b8ff" stroke="#63b8ff" points="424.73,-295.5 434.73,-292 424.73,-288.5 424.73,-295.5"/>
</a>
</g>
</g>
<!-- Node18 -->
<g id="Node000018" class="node">
<title>Node18</title>
<g id="a_Node000018"><a xlink:href="group__elements.html#acafbdd950c6c2639c9d376c3eab696e5" target="_top" xlink:title=" ">
<polygon fill="white" stroke="#666666" points="530.12,-208 439.12,-208 439.12,-176 530.12,-176 530.12,-208"/>
<text xml:space="preserve" text-anchor="start" x="447.12" y="-196.4" font-family="SourceSans" font-size="8.00">svg::element_base::</text>
<text xml:space="preserve" text-anchor="middle" x="484.62" y="-184.4" font-family="SourceSans" font-size="8.00">add_raw</text>
</a>
</g>
</g>
<!-- Node15&#45;&gt;Node18 -->
<g id="edge19_Node000015_Node000018" class="edge">
<title>Node15&#45;&gt;Node18</title>
<g id="a_edge19_Node000015_Node000018"><a xlink:title=" ">
<path fill="none" stroke="#63b8ff" d="M384.11,-277.25C389.92,-274.33 395.56,-270.92 400.5,-267 421.94,-249.97 415.86,-235 436.5,-217 437.41,-216.21 438.34,-215.43 439.3,-214.67"/>
<polygon fill="#63b8ff" stroke="#63b8ff" points="441.01,-217.75 447.22,-209.16 437.01,-212.01 441.01,-217.75"/>
</a>
</g>
</g>
<!-- Node19 -->
<g id="Node000019" class="node">
<title>Node19</title>
<g id="a_Node000019"><a xlink:href="group__elements.html#a53d72a7ff728ad1d4d027254530bcf3d" target="_top" xlink:title=" ">
<polygon fill="white" stroke="#666666" points="530.12,-120 439.12,-120 439.12,-88 530.12,-88 530.12,-120"/>
<text xml:space="preserve" text-anchor="start" x="447.12" y="-108.4" font-family="SourceSans" font-size="8.00">svg::element_base::</text>
<text xml:space="preserve" text-anchor="middle" x="484.62" y="-96.4" font-family="SourceSans" font-size="8.00">add_transform</text>
</a>
</g>
</g>
<!-- Node15&#45;&gt;Node19 -->
<g id="edge20_Node000015_Node000019" class="edge">
<title>Node15&#45;&gt;Node19</title>
<g id="a_edge20_Node000015_Node000019"><a xlink:title=" ">
<path fill="none" stroke="#63b8ff" d="M384.04,-279.58C390.2,-276.29 395.97,-272.17 400.5,-267 440.87,-220.95 400.22,-183.33 436.5,-134 438.21,-131.68 440.16,-129.49 442.27,-127.43"/>
<polygon fill="#63b8ff" stroke="#63b8ff" points="444.39,-130.22 449.86,-121.14 439.93,-124.82 444.39,-130.22"/>
</a>
</g>
</g>
<!-- Node16&#45;&gt;Node8 -->
<g id="edge16_Node000016_Node000008" class="edge">
<title>Node16&#45;&gt;Node8</title>
<g id="a_edge16_Node000016_Node000008"><a xlink:title=" ">
<path fill="none" stroke="#63b8ff" d="M513.11,-308.32C519.7,-312.56 526.61,-317.26 532.75,-322 560.42,-343.34 589.54,-371.34 607.64,-389.5"/>
<polygon fill="#63b8ff" stroke="#63b8ff" points="605.01,-391.82 614.52,-396.48 609.99,-386.9 605.01,-391.82"/>
</a>
</g>
</g>
<!-- Node16&#45;&gt;Node11 -->
<g id="edge17_Node000016_Node000011" class="edge">
<title>Node16&#45;&gt;Node11</title>
<g id="a_edge17_Node000016_Node000011"><a xlink:title=" ">
<path fill="none" stroke="#63b8ff" d="M531.47,-275.63C549,-269.37 568.83,-262.28 585.76,-256.24"/>
<polygon fill="#63b8ff" stroke="#63b8ff" points="586.75,-259.6 594.99,-252.94 584.39,-253.01 586.75,-259.6"/>
</a>
</g>
</g>
<!-- Node17 -->
<g id="Node000017" class="node">
<title>Node17</title>
<g id="a_Node000017"><a xlink:href="structsvg_1_1typography.html#a174c1ffb4e56214d71523ffe7e422561" target="_top" xlink:title=" ">
<polygon fill="white" stroke="#666666" points="671,-308 582.25,-308 582.25,-276 671,-276 671,-308"/>
<text xml:space="preserve" text-anchor="start" x="590.25" y="-296.4" font-family="SourceSans" font-size="8.00">svg::typography::to</text>
<text xml:space="preserve" text-anchor="middle" x="626.62" y="-284.4" font-family="SourceSans" font-size="8.00">_string</text>
</a>
</g>
</g>
<!-- Node16&#45;&gt;Node17 -->
<g id="edge18_Node000016_Node000017" class="edge">
<title>Node16&#45;&gt;Node17</title>
<g id="a_edge18_Node000016_Node000017"><a xlink:title=" ">
<path fill="none" stroke="#63b8ff" d="M533.02,-292C545.17,-292 558.33,-292 570.82,-292"/>
<polygon fill="#63b8ff" stroke="#63b8ff" points="570.53,-295.5 580.53,-292 570.53,-288.5 570.53,-295.5"/>
</a>
</g>
</g>
<!-- Node20 -->
<g id="Node000020" class="node">
<title>Node20</title>
<g id="a_Node000020"><a xlink:href="group__elements.html#ae50258851ebbaf08c7eebc3fbdbf1ac8" target="_top" xlink:title="Common transforms include rotate(180)">
<polygon fill="white" stroke="#666666" points="684.5,-120 568.75,-120 568.75,-88 684.5,-88 684.5,-120"/>
<text xml:space="preserve" text-anchor="start" x="576.75" y="-108.4" font-family="SourceSans" font-size="8.00">svg::element_base::</text>
<text xml:space="preserve" text-anchor="middle" x="626.62" y="-96.4" font-family="SourceSans" font-size="8.00">make_transform_attribute</text>
</a>
</g>
</g>
<!-- Node19&#45;&gt;Node20 -->
<g id="edge21_Node000019_Node000020" class="edge">
<title>Node19&#45;&gt;Node20</title>
<g id="a_edge21_Node000019_Node000020"><a xlink:title=" ">
<path fill="none" stroke="#63b8ff" d="M530.31,-104C538.8,-104 547.87,-104 556.92,-104"/>
<polygon fill="#63b8ff" stroke="#63b8ff" points="556.8,-107.5 566.8,-104 556.8,-100.5 556.8,-107.5"/>
</a>
</g>
</g>
<!-- Node25 -->
<g id="Node000025" class="node">
<title>Node25</title>
<g id="a_Node000025"><a xlink:href="group__elements.html#a4a6af4e23b9f79f07d58780c128c5638" target="_top" xlink:title=" ">
<polygon fill="white" stroke="#666666" points="400.5,-770 278.75,-770 278.75,-750 400.5,-750 400.5,-770"/>
<text xml:space="preserve" text-anchor="middle" x="339.62" y="-758.4" font-family="SourceSans" font-size="8.00">svg::svg_element::add_desc</text>
</a>
</g>
</g>
<!-- Node24&#45;&gt;Node25 -->
<g id="edge29_Node000024_Node000025" class="edge">
<title>Node24&#45;&gt;Node25</title>
<g id="a_edge29_Node000024_Node000025"><a xlink:title=" ">
<path fill="none" stroke="#63b8ff" d="M196.36,-616.47C210.97,-636.55 244.82,-681.37 278.75,-714 289.56,-724.4 302.68,-734.7 313.87,-742.9"/>
<polygon fill="#63b8ff" stroke="#63b8ff" points="311.72,-745.66 321.88,-748.65 315.8,-739.97 311.72,-745.66"/>
</a>
</g>
</g>
<!-- Node28 -->
<g id="Node000028" class="node">
<title>Node28</title>
<g id="a_Node000028"><a xlink:href="group__elements.html#a26869d2a66e57c0d83f2df21d25cd875" target="_top" xlink:title=" ">
<polygon fill="white" stroke="#666666" points="390,-672 289.25,-672 289.25,-640 390,-640 390,-672"/>
<text xml:space="preserve" text-anchor="start" x="297.25" y="-660.4" font-family="SourceSans" font-size="8.00">svg::svg_element::add</text>
<text xml:space="preserve" text-anchor="middle" x="339.62" y="-648.4" font-family="SourceSans" font-size="8.00">_title</text>
</a>
</g>
</g>
<!-- Node24&#45;&gt;Node28 -->
<g id="edge33_Node000024_Node000028" class="edge">
<title>Node24&#45;&gt;Node28</title>
<g id="a_edge33_Node000024_Node000028"><a xlink:title=" ">
<path fill="none" stroke="#63b8ff" d="M220.27,-616.48C237.13,-622.11 258.49,-629.24 278.41,-635.9"/>
<polygon fill="#63b8ff" stroke="#63b8ff" points="277.26,-639.2 287.86,-639.05 279.48,-632.56 277.26,-639.2"/>
</a>
</g>
</g>
<!-- Node32 -->
<g id="Node000032" class="node">
<title>Node32</title>
<g id="a_Node000032"><a xlink:href="group__elements.html#a83eb3152f92ca357473c2ef8f23ced98" target="_top" xlink:title="SVG element beginning boilerplate for outermost (containing) svg_element. Variable: unit,...">
<polygon fill="white" stroke="#666666" points="391.12,-622 288.12,-622 288.12,-590 391.12,-590 391.12,-622"/>
<text xml:space="preserve" text-anchor="start" x="296.12" y="-610.4" font-family="SourceSans" font-size="8.00">svg::svg_element::start</text>
<text xml:space="preserve" text-anchor="middle" x="339.62" y="-598.4" font-family="SourceSans" font-size="8.00">_element</text>
</a>
</g>
</g>
<!-- Node24&#45;&gt;Node32 -->
<g id="edge38_Node000024_Node000032" class="edge">
<title>Node24&#45;&gt;Node32</title>
<g id="a_edge38_Node000024_Node000032"><a xlink:title=" ">
<path fill="none" stroke="#63b8ff" d="M239.57,-599.57C251.46,-599.24 264.26,-599.17 276.58,-599.34"/>
<polygon fill="#63b8ff" stroke="#63b8ff" points="276.14,-602.83 286.21,-599.54 276.28,-595.83 276.14,-602.83"/>
</a>
</g>
</g>
<!-- Node25&#45;&gt;Node2 -->
<g id="edge30_Node000025_Node000002" class="edge">
<title>Node25&#45;&gt;Node2</title>
<g id="a_edge30_Node000025_Node000002"><a xlink:title=" ">
<path fill="none" stroke="#63b8ff" d="M400.72,-753.67C450.61,-748.42 521.04,-741.01 569.73,-735.88"/>
<polygon fill="#63b8ff" stroke="#63b8ff" points="569.92,-739.38 579.5,-734.86 569.19,-732.42 569.92,-739.38"/>
</a>
</g>
</g>
<!-- Node26 -->
<g id="Node000026" class="node">
<title>Node26</title>
<g id="a_Node000026"><a xlink:href="group__elements.html#ga03da556ae8f749df1cf8463111e996d3" target="_top" xlink:title=" ">
<polygon fill="white" stroke="#666666" points="529.75,-798 439.5,-798 439.5,-766 529.75,-766 529.75,-798"/>
<text xml:space="preserve" text-anchor="start" x="447.5" y="-786.4" font-family="SourceSans" font-size="8.00">svg::desc_element::</text>
<text xml:space="preserve" text-anchor="middle" x="484.62" y="-774.4" font-family="SourceSans" font-size="8.00">finish_element</text>
</a>
</g>
</g>
<!-- Node25&#45;&gt;Node26 -->
<g id="edge31_Node000025_Node000026" class="edge">
<title>Node25&#45;&gt;Node26</title>
<g id="a_edge31_Node000025_Node000026"><a xlink:title=" ">
<path fill="none" stroke="#63b8ff" d="M400.86,-769.27C409.77,-770.64 418.93,-772.05 427.75,-773.4"/>
<polygon fill="#63b8ff" stroke="#63b8ff" points="427.2,-776.86 437.61,-774.92 428.26,-769.94 427.2,-776.86"/>
</a>
</g>
</g>
<!-- Node27 -->
<g id="Node000027" class="node">
<title>Node27</title>
<g id="a_Node000027"><a xlink:href="group__elements.html#a90ffdd73579c45cd0740dc9efa2f5445" target="_top" xlink:title=" ">
<polygon fill="white" stroke="#666666" points="529.75,-848 439.5,-848 439.5,-816 529.75,-816 529.75,-848"/>
<text xml:space="preserve" text-anchor="start" x="447.5" y="-836.4" font-family="SourceSans" font-size="8.00">svg::desc_element::</text>
<text xml:space="preserve" text-anchor="middle" x="484.62" y="-824.4" font-family="SourceSans" font-size="8.00">start_element</text>
</a>
</g>
</g>
<!-- Node25&#45;&gt;Node27 -->
<g id="edge32_Node000025_Node000027" class="edge">
<title>Node25&#45;&gt;Node27</title>
<g id="a_edge32_Node000025_Node000027"><a xlink:title=" ">
<path fill="none" stroke="#63b8ff" d="M361.42,-770.47C382.14,-780.9 414.57,-797.23 440.81,-810.44"/>
<polygon fill="#63b8ff" stroke="#63b8ff" points="439.04,-813.47 449.54,-814.84 442.18,-807.22 439.04,-813.47"/>
</a>
</g>
</g>
<!-- Node29 -->
<g id="Node000029" class="node">
<title>Node29</title>
<g id="a_Node000029"><a xlink:href="group__elements.html#a7995b78d94e1c299065c9dd3569fef7c" target="_top" xlink:title=" ">
<polygon fill="white" stroke="#666666" points="530.12,-672 439.12,-672 439.12,-640 530.12,-640 530.12,-672"/>
<text xml:space="preserve" text-anchor="start" x="447.12" y="-660.4" font-family="SourceSans" font-size="8.00">svg::element_base::</text>
<text xml:space="preserve" text-anchor="middle" x="484.62" y="-648.4" font-family="SourceSans" font-size="8.00">add_title</text>
</a>
</g>
</g>
<!-- Node28&#45;&gt;Node29 -->
<g id="edge34_Node000028_Node000029" class="edge">
<title>Node28&#45;&gt;Node29</title>
<g id="a_edge34_Node000028_Node000029"><a xlink:title=" ">
<path fill="none" stroke="#63b8ff" d="M390.24,-656C402.34,-656 415.37,-656 427.75,-656"/>
<polygon fill="#63b8ff" stroke="#63b8ff" points="427.37,-659.5 437.37,-656 427.37,-652.5 427.37,-659.5"/>
</a>
</g>
</g>
<!-- Node29&#45;&gt;Node2 -->
<g id="edge35_Node000029_Node000002" class="edge">
<title>Node29&#45;&gt;Node2</title>
<g id="a_edge35_Node000029_Node000002"><a xlink:title=" ">
<path fill="none" stroke="#63b8ff" d="M516.7,-672.42C536.72,-683.01 562.99,-696.89 584.71,-708.37"/>
<polygon fill="#63b8ff" stroke="#63b8ff" points="582.83,-711.34 593.3,-712.92 586.1,-705.15 582.83,-711.34"/>
</a>
</g>
</g>
<!-- Node30 -->
<g id="Node000030" class="node">
<title>Node30</title>
<g id="a_Node000030"><a xlink:href="group__elements.html#ga3d62381f8edcccd3d91f82af55f11274" target="_top" xlink:title=" ">
<polygon fill="white" stroke="#666666" points="668.38,-638 584.88,-638 584.88,-606 668.38,-606 668.38,-638"/>
<text xml:space="preserve" text-anchor="start" x="592.88" y="-626.4" font-family="SourceSans" font-size="8.00">svg::title_element</text>
<text xml:space="preserve" text-anchor="middle" x="626.62" y="-614.4" font-family="SourceSans" font-size="8.00">::finish_element</text>
</a>
</g>
</g>
<!-- Node29&#45;&gt;Node30 -->
<g id="edge36_Node000029_Node000030" class="edge">
<title>Node29&#45;&gt;Node30</title>
<g id="a_edge36_Node000029_Node000030"><a xlink:title=" ">
<path fill="none" stroke="#63b8ff" d="M530.31,-645.15C544.07,-641.81 559.35,-638.1 573.56,-634.64"/>
<polygon fill="#63b8ff" stroke="#63b8ff" points="574.33,-638.06 583.22,-632.3 572.67,-631.26 574.33,-638.06"/>
</a>
</g>
</g>
<!-- Node31 -->
<g id="Node000031" class="node">
<title>Node31</title>
<g id="a_Node000031"><a xlink:href="group__elements.html#a41dcaa1132c502cb86c01aae1e7b9ff2" target="_top" xlink:title=" ">
<polygon fill="white" stroke="#666666" points="668.38,-688 584.88,-688 584.88,-656 668.38,-656 668.38,-688"/>
<text xml:space="preserve" text-anchor="start" x="592.88" y="-676.4" font-family="SourceSans" font-size="8.00">svg::title_element</text>
<text xml:space="preserve" text-anchor="middle" x="626.62" y="-664.4" font-family="SourceSans" font-size="8.00">::start_element</text>
</a>
</g>
</g>
<!-- Node29&#45;&gt;Node31 -->
<g id="edge37_Node000029_Node000031" class="edge">
<title>Node29&#45;&gt;Node31</title>
<g id="a_edge37_Node000029_Node000031"><a xlink:title=" ">
<path fill="none" stroke="#63b8ff" d="M530.31,-661.11C544.07,-662.68 559.35,-664.43 573.56,-666.05"/>
<polygon fill="#63b8ff" stroke="#63b8ff" points="572.85,-669.49 583.18,-667.15 573.65,-662.54 572.85,-669.49"/>
</a>
</g>
</g>
<!-- Node32&#45;&gt;Node8 -->
<g id="edge40_Node000032_Node000008" class="edge">
<title>Node32&#45;&gt;Node8</title>
<g id="a_edge40_Node000032_Node000008"><a xlink:title=" ">
<path fill="none" stroke="#63b8ff" d="M391.58,-613.84C433.08,-617.45 491.38,-615.93 532.75,-588 588.5,-550.35 612.79,-468.46 621.51,-429.47"/>
<polygon fill="#63b8ff" stroke="#63b8ff" points="624.89,-430.41 623.5,-419.91 618.03,-428.98 624.89,-430.41"/>
</a>
</g>
</g>
<!-- Node32&#45;&gt;Node11 -->
<g id="edge41_Node000032_Node000011" class="edge">
<title>Node32&#45;&gt;Node11</title>
<g id="a_edge41_Node000032_Node000011"><a xlink:title=" ">
<path fill="none" stroke="#63b8ff" d="M391.19,-595.63C444.87,-584.14 523.3,-565.82 532.75,-555 617.6,-457.84 491.66,-370.43 568.75,-267 572.46,-262.03 577.37,-258.03 582.75,-254.81"/>
<polygon fill="#63b8ff" stroke="#63b8ff" points="584.04,-258.08 591.45,-250.51 580.94,-251.81 584.04,-258.08"/>
</a>
</g>
</g>
<!-- Node32&#45;&gt;Node24 -->
<g id="edge39_Node000032_Node000024" class="edge">
<title>Node32&#45;&gt;Node24</title>
<g id="a_edge39_Node000032_Node000024"><a xlink:title=" ">
<path fill="none" stroke="#63b8ff" d="M287.72,-612.43C275.83,-612.76 263.02,-612.83 250.71,-612.66"/>
<polygon fill="#63b8ff" stroke="#63b8ff" points="251.16,-609.17 241.09,-612.46 251.01,-616.17 251.16,-609.17"/>
</a>
</g>
</g>
</g>
</svg>
