<?xml version="1.0" encoding="UTF-8" standalone="no"?>
<!DOCTYPE svg PUBLIC "-//W3C//DTD SVG 1.1//EN"
 "http://www.w3.org/Graphics/SVG/1.1/DTD/svg11.dtd">
<!-- Generated by graphviz version 12.2.1 (20241206.2353)
 -->
<!-- Title: svg::make_line_graph_markers_tips Pages: 1 -->
<svg width="498pt" height="404pt"
 viewBox="0.00 0.00 498.00 404.00" xmlns="http://www.w3.org/2000/svg" xmlns:xlink="http://www.w3.org/1999/xlink">

<svg id="main" version="1.1" xmlns="http://www.w3.org/2000/svg" xmlns:xlink="http://www.w3.org/1999/xlink" xml:space="preserve">

<style type="text/css"><![CDATA[
.node, .edge {opacity: 0.7;}
.node.selected, .edge.selected {opacity: 1;}
.edge:hover path { stroke: red; }
.edge:hover polygon { stroke: red; fill: red; }
]]></style>
<script type="application/ecmascript" xlink:href="svg.min.js"/>
<svg id="graph" class="graph">
<g id="graph0" class="graph" transform="scale(1 1) rotate(0) translate(4 400)">
<title>svg::make_line_graph_markers_tips</title>
<!-- Node1 -->
<g id="Node000001" class="node">
<title>Node1</title>
<g id="a_Node000001"><a xlink:title="Return set of paths corresponding to marker shapes with tooltips.">
<polygon fill="#999999" stroke="#666666" points="99.25,-208 0,-208 0,-176 99.25,-176 99.25,-208"/>
<text text-anchor="start" x="8" y="-196.4" font-family="SourceSans" font-size="8.00">svg::make_line_graph</text>
<text text-anchor="middle" x="49.62" y="-184.4" font-family="SourceSans" font-size="8.00">_markers_tips</text>
</a>
</g>
</g>
<!-- Node2 -->
<g id="Node000002" class="node">
<title>Node2</title>
<g id="a_Node000002"><a xlink:href="group__elements.html#a519382631540ecedee961bfb53e9ae87" target="_top" xlink:title=" ">
<polygon fill="white" stroke="#666666" points="224.75,-383 136.75,-383 136.75,-351 224.75,-351 224.75,-383"/>
<text text-anchor="start" x="144.75" y="-371.4" font-family="SourceSans" font-size="8.00">svg::circle_element</text>
<text text-anchor="middle" x="180.75" y="-359.4" font-family="SourceSans" font-size="8.00">::add_data</text>
</a>
</g>
</g>
<!-- Node1&#45;&gt;Node2 -->
<g id="edge1_Node000001_Node000002" class="edge">
<title>Node1&#45;&gt;Node2</title>
<g id="a_edge1_Node000001_Node000002"><a xlink:title=" ">
<path fill="none" stroke="#63b8ff" d="M56.4,-208.3C67.62,-238.01 94.83,-301.65 135.25,-342 135.74,-342.49 136.24,-342.97 136.75,-343.45"/>
<polygon fill="#63b8ff" stroke="#63b8ff" points="134.57,-346.18 144.58,-349.63 138.9,-340.69 134.57,-346.18"/>
</a>
</g>
</g>
<!-- Node5 -->
<g id="Node000005" class="node">
<title>Node5</title>
<g id="a_Node000005"><a xlink:href="group__elements.html#a1dd6663d882fb5dd14a47462a77f351b" target="_top" xlink:title="Either serialize immediately (as below), or create data structure that adds data to data_vec and then...">
<polygon fill="white" stroke="#666666" points="224.38,-333 137.12,-333 137.12,-301 224.38,-301 224.38,-333"/>
<text text-anchor="start" x="145.12" y="-321.4" font-family="SourceSans" font-size="8.00">svg::rect_element::</text>
<text text-anchor="middle" x="180.75" y="-309.4" font-family="SourceSans" font-size="8.00">add_data</text>
</a>
</g>
</g>
<!-- Node1&#45;&gt;Node5 -->
<g id="edge4_Node000001_Node000005" class="edge">
<title>Node1&#45;&gt;Node5</title>
<g id="a_edge4_Node000001_Node000005"><a xlink:title=" ">
<path fill="none" stroke="#63b8ff" d="M61.72,-208.45C76.61,-229.66 104.73,-266.8 135.25,-292 136.17,-292.76 137.12,-293.51 138.09,-294.25"/>
<polygon fill="#63b8ff" stroke="#63b8ff" points="135.78,-296.91 146,-299.7 139.75,-291.14 135.78,-296.91"/>
</a>
</g>
</g>
<!-- Node6 -->
<g id="Node000006" class="node">
<title>Node6</title>
<g id="a_Node000006"><a xlink:href="group__elements.html#acafbdd950c6c2639c9d376c3eab696e5" target="_top" xlink:title=" ">
<polygon fill="white" stroke="#666666" points="226.25,-283 135.25,-283 135.25,-251 226.25,-251 226.25,-283"/>
<text text-anchor="start" x="143.25" y="-271.4" font-family="SourceSans" font-size="8.00">svg::element_base::</text>
<text text-anchor="middle" x="180.75" y="-259.4" font-family="SourceSans" font-size="8.00">add_raw</text>
</a>
</g>
</g>
<!-- Node1&#45;&gt;Node6 -->
<g id="edge6_Node000001_Node000006" class="edge">
<title>Node1&#45;&gt;Node6</title>
<g id="a_edge6_Node000001_Node000006"><a xlink:title=" ">
<path fill="none" stroke="#63b8ff" d="M77.98,-208.36C94.51,-218.2 116.03,-230.92 135.25,-242 137.09,-243.06 138.98,-244.14 140.89,-245.23"/>
<polygon fill="#63b8ff" stroke="#63b8ff" points="138.75,-248.05 149.18,-249.94 142.21,-241.96 138.75,-248.05"/>
</a>
</g>
</g>
<!-- Node7 -->
<g id="Node000007" class="node">
<title>Node7</title>
<g id="a_Node000007"><a xlink:href="group__elements.html#a238b38ca99a1cf6c2baf80c8e4338d99" target="_top" xlink:title=" ">
<polygon fill="white" stroke="#666666" points="226.25,-233 135.25,-233 135.25,-201 226.25,-201 226.25,-233"/>
<text text-anchor="start" x="143.25" y="-221.4" font-family="SourceSans" font-size="8.00">svg::element_base::</text>
<text text-anchor="middle" x="180.75" y="-209.4" font-family="SourceSans" font-size="8.00">add_style</text>
</a>
</g>
</g>
<!-- Node1&#45;&gt;Node7 -->
<g id="edge7_Node000001_Node000007" class="edge">
<title>Node1&#45;&gt;Node7</title>
<g id="a_edge7_Node000001_Node000007"><a xlink:title=" ">
<path fill="none" stroke="#63b8ff" d="M99.44,-201.45C107.4,-202.99 115.7,-204.6 123.82,-206.17"/>
<polygon fill="#63b8ff" stroke="#63b8ff" points="123.15,-209.61 133.63,-208.07 124.48,-202.73 123.15,-209.61"/>
</a>
</g>
</g>
<!-- Node9 -->
<g id="Node000009" class="node">
<title>Node9</title>
<g id="a_Node000009"><a xlink:href="group__elements.html#a7995b78d94e1c299065c9dd3569fef7c" target="_top" xlink:title=" ">
<polygon fill="white" stroke="#666666" points="226.25,-183 135.25,-183 135.25,-151 226.25,-151 226.25,-183"/>
<text text-anchor="start" x="143.25" y="-171.4" font-family="SourceSans" font-size="8.00">svg::element_base::</text>
<text text-anchor="middle" x="180.75" y="-159.4" font-family="SourceSans" font-size="8.00">add_title</text>
</a>
</g>
</g>
<!-- Node1&#45;&gt;Node9 -->
<g id="edge9_Node000001_Node000009" class="edge">
<title>Node1&#45;&gt;Node9</title>
<g id="a_edge9_Node000001_Node000009"><a xlink:title=" ">
<path fill="none" stroke="#63b8ff" d="M99.44,-182.55C107.4,-181.01 115.7,-179.4 123.82,-177.83"/>
<polygon fill="#63b8ff" stroke="#63b8ff" points="124.48,-181.27 133.63,-175.93 123.15,-174.39 124.48,-181.27"/>
</a>
</g>
</g>
<!-- Node11 -->
<g id="Node000011" class="node">
<title>Node11</title>
<g id="a_Node000011"><a xlink:href="group__elements.html#ad893ef9c13a15464c96d8a85c08af30f" target="_top" xlink:title=" ">
<polygon fill="white" stroke="#666666" points="490,-192 389.25,-192 389.25,-172 490,-172 490,-192"/>
<text text-anchor="middle" x="439.62" y="-180.4" font-family="SourceSans" font-size="8.00">svg::element_base::str</text>
</a>
</g>
</g>
<!-- Node1&#45;&gt;Node11 -->
<g id="edge16_Node000001_Node000011" class="edge">
<title>Node1&#45;&gt;Node11</title>
<g id="a_edge16_Node000001_Node000011"><a xlink:title=" ">
<path fill="none" stroke="#63b8ff" d="M72.33,-175.59C88.71,-164.13 112.23,-149.57 135.25,-142 227.45,-111.67 259.91,-102.38 353.25,-129 377.51,-135.92 401.61,-151.93 417.98,-164.56"/>
<polygon fill="#63b8ff" stroke="#63b8ff" points="415.5,-167.05 425.49,-170.56 419.87,-161.59 415.5,-167.05"/>
</a>
</g>
</g>
<!-- Node14 -->
<g id="Node000014" class="node">
<title>Node14</title>
<g id="a_Node000014"><a xlink:href="group__elements.html#a793cb6b40b2aea335b11f14fd327cde8" target="_top" xlink:title=" ">
<polygon fill="white" stroke="#666666" points="224.75,-82 136.75,-82 136.75,-50 224.75,-50 224.75,-82"/>
<text text-anchor="start" x="144.75" y="-70.4" font-family="SourceSans" font-size="8.00">svg::circle_element</text>
<text text-anchor="middle" x="180.75" y="-58.4" font-family="SourceSans" font-size="8.00">::start_element</text>
</a>
</g>
</g>
<!-- Node1&#45;&gt;Node14 -->
<g id="edge14_Node000001_Node000014" class="edge">
<title>Node1&#45;&gt;Node14</title>
<g id="a_edge14_Node000001_Node000014"><a xlink:title=" ">
<path fill="none" stroke="#63b8ff" d="M62.98,-175.57C78.54,-155.48 106.71,-121.07 135.25,-96 137.98,-93.6 140.91,-91.24 143.92,-88.95"/>
<polygon fill="#63b8ff" stroke="#63b8ff" points="145.74,-91.95 151.82,-83.27 141.66,-86.27 145.74,-91.95"/>
</a>
</g>
</g>
<!-- Node15 -->
<g id="Node000015" class="node">
<title>Node15</title>
<g id="a_Node000015"><a xlink:href="group__elements.html#a1e0ed5e9dfe1244317a87d7e6774348b" target="_top" xlink:title=" ">
<polygon fill="white" stroke="#666666" points="224.38,-32 137.12,-32 137.12,0 224.38,0 224.38,-32"/>
<text text-anchor="start" x="145.12" y="-20.4" font-family="SourceSans" font-size="8.00">svg::rect_element::</text>
<text text-anchor="middle" x="180.75" y="-8.4" font-family="SourceSans" font-size="8.00">start_element</text>
</a>
</g>
</g>
<!-- Node1&#45;&gt;Node15 -->
<g id="edge15_Node000001_Node000015" class="edge">
<title>Node1&#45;&gt;Node15</title>
<g id="a_edge15_Node000001_Node000015"><a xlink:title=" ">
<path fill="none" stroke="#63b8ff" d="M56.38,-175.59C67.54,-145.68 94.68,-81.61 135.25,-41 135.74,-40.51 136.24,-40.03 136.75,-39.55"/>
<polygon fill="#63b8ff" stroke="#63b8ff" points="138.9,-42.31 144.58,-33.36 134.56,-36.82 138.9,-42.31"/>
</a>
</g>
</g>
<!-- Node3 -->
<g id="Node000003" class="node">
<title>Node3</title>
<g id="a_Node000003"><a xlink:href="group__elements.html#a53d72a7ff728ad1d4d027254530bcf3d" target="_top" xlink:title="Common transforms include rotate(180)">
<polygon fill="white" stroke="#666666" points="353.25,-396 262.25,-396 262.25,-364 353.25,-364 353.25,-396"/>
<text text-anchor="start" x="270.25" y="-384.4" font-family="SourceSans" font-size="8.00">svg::element_base::</text>
<text text-anchor="middle" x="307.75" y="-372.4" font-family="SourceSans" font-size="8.00">add_transform</text>
</a>
</g>
</g>
<!-- Node2&#45;&gt;Node3 -->
<g id="edge2_Node000002_Node000003" class="edge">
<title>Node2&#45;&gt;Node3</title>
<g id="a_edge2_Node000002_Node000003"><a xlink:title=" ">
<path fill="none" stroke="#63b8ff" d="M225.12,-371.51C233.26,-372.36 241.89,-373.25 250.36,-374.14"/>
<polygon fill="#63b8ff" stroke="#63b8ff" points="249.95,-377.61 260.25,-375.16 250.67,-370.65 249.95,-377.61"/>
</a>
</g>
</g>
<!-- Node4 -->
<g id="Node000004" class="node">
<title>Node4</title>
<g id="a_Node000004"><a xlink:href="namespacesvg.html#a48ac748e89e22789d1772326a98dd7b6" target="_top" xlink:title=" ">
<polygon fill="white" stroke="#666666" points="351.38,-346 264.12,-346 264.12,-326 351.38,-326 351.38,-346"/>
<text text-anchor="middle" x="307.75" y="-334.4" font-family="SourceSans" font-size="8.00">svg::string_replace</text>
</a>
</g>
</g>
<!-- Node2&#45;&gt;Node4 -->
<g id="edge3_Node000002_Node000004" class="edge">
<title>Node2&#45;&gt;Node4</title>
<g id="a_edge3_Node000002_Node000004"><a xlink:title=" ">
<path fill="none" stroke="#63b8ff" d="M225.12,-356.24C234.34,-353.96 244.18,-351.52 253.72,-349.15"/>
<polygon fill="#63b8ff" stroke="#63b8ff" points="254.39,-352.59 263.25,-346.79 252.71,-345.8 254.39,-352.59"/>
</a>
</g>
</g>
<!-- Node5&#45;&gt;Node4 -->
<g id="edge5_Node000005_Node000004" class="edge">
<title>Node5&#45;&gt;Node4</title>
<g id="a_edge5_Node000005_Node000004"><a xlink:title=" ">
<path fill="none" stroke="#63b8ff" d="M224.77,-323.54C233.7,-324.9 243.23,-326.35 252.51,-327.76"/>
<polygon fill="#63b8ff" stroke="#63b8ff" points="251.74,-331.18 262.16,-329.22 252.8,-324.26 251.74,-331.18"/>
</a>
</g>
</g>
<!-- Node8 -->
<g id="Node000008" class="node">
<title>Node8</title>
<g id="a_Node000008"><a xlink:href="namespacesvg.html#a36b1c48ad4601b205790e3772ad0a7b6" target="_top" xlink:title=" ">
<polygon fill="white" stroke="#666666" points="341.25,-308 274.25,-308 274.25,-288 341.25,-288 341.25,-308"/>
<text text-anchor="middle" x="307.75" y="-296.4" font-family="SourceSans" font-size="8.00">svg::to_string</text>
</a>
</g>
</g>
<!-- Node7&#45;&gt;Node8 -->
<g id="edge8_Node000007_Node000008" class="edge">
<title>Node7&#45;&gt;Node8</title>
<g id="a_edge8_Node000007_Node000008"><a xlink:title=" ">
<path fill="none" stroke="#63b8ff" d="M213.59,-233.4C217.97,-236.08 222.32,-238.98 226.25,-242 244.44,-255.99 243.33,-266.02 262.25,-279 264.02,-280.21 265.87,-281.37 267.78,-282.48"/>
<polygon fill="#63b8ff" stroke="#63b8ff" points="265.78,-285.38 276.28,-286.85 268.99,-279.16 265.78,-285.38"/>
</a>
</g>
</g>
<!-- Node10 -->
<g id="Node000010" class="node">
<title>Node10</title>
<g id="a_Node000010"><a xlink:href="group__elements.html#ada0333b46b2547c6152f3f5811016a12" target="_top" xlink:title=" ">
<polygon fill="white" stroke="#666666" points="353.25,-270 262.25,-270 262.25,-238 353.25,-238 353.25,-270"/>
<text text-anchor="start" x="270.25" y="-258.4" font-family="SourceSans" font-size="8.00">svg::element_base::</text>
<text text-anchor="middle" x="307.75" y="-246.4" font-family="SourceSans" font-size="8.00">add_element</text>
</a>
</g>
</g>
<!-- Node9&#45;&gt;Node10 -->
<g id="edge10_Node000009_Node000010" class="edge">
<title>Node9&#45;&gt;Node10</title>
<g id="a_edge10_Node000009_Node000010"><a xlink:title=" ">
<path fill="none" stroke="#63b8ff" d="M213.59,-183.4C217.97,-186.08 222.32,-188.98 226.25,-192 244.44,-205.99 244.06,-215.01 262.25,-229 263.36,-229.85 264.5,-230.69 265.66,-231.52"/>
<polygon fill="#63b8ff" stroke="#63b8ff" points="263.37,-234.2 273.65,-236.77 267.21,-228.35 263.37,-234.2"/>
</a>
</g>
</g>
<!-- Node12 -->
<g id="Node000012" class="node">
<title>Node12</title>
<g id="a_Node000012"><a xlink:href="group__elements.html#ga3d62381f8edcccd3d91f82af55f11274" target="_top" xlink:title=" ">
<polygon fill="white" stroke="#666666" points="349.5,-220 266,-220 266,-188 349.5,-188 349.5,-220"/>
<text text-anchor="start" x="274" y="-208.4" font-family="SourceSans" font-size="8.00">svg::title_element</text>
<text text-anchor="middle" x="307.75" y="-196.4" font-family="SourceSans" font-size="8.00">::finish_element</text>
</a>
</g>
</g>
<!-- Node9&#45;&gt;Node12 -->
<g id="edge12_Node000009_Node000012" class="edge">
<title>Node9&#45;&gt;Node12</title>
<g id="a_edge12_Node000009_Node000012"><a xlink:title=" ">
<path fill="none" stroke="#63b8ff" d="M226.52,-180.25C235.69,-182.97 245.41,-185.84 254.8,-188.62"/>
<polygon fill="#63b8ff" stroke="#63b8ff" points="253.59,-191.91 264.17,-191.4 255.57,-185.2 253.59,-191.91"/>
</a>
</g>
</g>
<!-- Node13 -->
<g id="Node000013" class="node">
<title>Node13</title>
<g id="a_Node000013"><a xlink:href="group__elements.html#a41dcaa1132c502cb86c01aae1e7b9ff2" target="_top" xlink:title=" ">
<polygon fill="white" stroke="#666666" points="349.5,-170 266,-170 266,-138 349.5,-138 349.5,-170"/>
<text text-anchor="start" x="274" y="-158.4" font-family="SourceSans" font-size="8.00">svg::title_element</text>
<text text-anchor="middle" x="307.75" y="-146.4" font-family="SourceSans" font-size="8.00">::start_element</text>
</a>
</g>
</g>
<!-- Node9&#45;&gt;Node13 -->
<g id="edge13_Node000009_Node000013" class="edge">
<title>Node9&#45;&gt;Node13</title>
<g id="a_edge13_Node000009_Node000013"><a xlink:title=" ">
<path fill="none" stroke="#63b8ff" d="M226.52,-162.34C235.49,-161.41 244.98,-160.42 254.18,-159.47"/>
<polygon fill="#63b8ff" stroke="#63b8ff" points="254.53,-162.95 264.11,-158.43 253.8,-155.99 254.53,-162.95"/>
</a>
</g>
</g>
<!-- Node10&#45;&gt;Node11 -->
<g id="edge11_Node000010_Node000011" class="edge">
<title>Node10&#45;&gt;Node11</title>
<g id="a_edge11_Node000010_Node000011"><a xlink:title=" ">
<path fill="none" stroke="#63b8ff" d="M338.22,-237.66C359.6,-225.81 388.39,-209.85 409.66,-198.06"/>
<polygon fill="#63b8ff" stroke="#63b8ff" points="411.35,-201.12 418.4,-193.21 407.95,-195 411.35,-201.12"/>
</a>
</g>
</g>
</g>
</svg>
</svg>

<style type='text/css'>
<![CDATA[
[data-mouse-over-selected='false'] { opacity: 0.7; }
[data-mouse-over-selected='true']  { opacity: 1.0; }
]]>
</style>
<script type="application/ecmascript"><![CDATA[
document.addEventListener('DOMContentLoaded', (event) => {
  highlightEdges();
  highlightAdjacentNodes();
});
]]></script>
</svg>
