<?xml version="1.0" encoding="UTF-8" standalone="no"?>
<!DOCTYPE svg PUBLIC "-//W3C//DTD SVG 1.1//EN"
 "http://www.w3.org/Graphics/SVG/1.1/DTD/svg11.dtd">
<!-- Generated by graphviz version 12.2.1 (20241206.2353)
 -->
<!-- Title: svg::direction_arc_at Pages: 1 -->
<svg width="390pt" height="454pt"
 viewBox="0.00 0.00 389.75 454.00" xmlns="http://www.w3.org/2000/svg" xmlns:xlink="http://www.w3.org/1999/xlink">
<g id="graph0" class="graph" transform="scale(1 1) rotate(0) translate(4 450)">
<title>svg::direction_arc_at</title>
<!-- Node1 -->
<g id="Node000001" class="node">
<title>Node1</title>
<g id="a_Node000001"><a xlink:title="Arc + arrow glyph that traces path of start to finish trajectory.">
<polygon fill="#999999" stroke="#666666" points="93.25,-224 0,-224 0,-204 93.25,-204 93.25,-224"/>
<text text-anchor="middle" x="46.62" y="-212.4" font-family="SourceSans" font-size="8.00">svg::direction_arc_at</text>
</a>
</g>
</g>
<!-- Node2 -->
<g id="Node000002" class="node">
<title>Node2</title>
<g id="a_Node000002"><a xlink:href="group__elements.html#a807f3c30f2ace338ad10aaf230b47665" target="_top" xlink:title="Either serialize immediately (as below), or create data structure that adds data to data_vec and then...">
<polygon fill="white" stroke="#666666" points="231.12,-446 140.12,-446 140.12,-414 231.12,-414 231.12,-446"/>
<text text-anchor="start" x="148.12" y="-434.4" font-family="SourceSans" font-size="8.00">svg::path_element::</text>
<text text-anchor="middle" x="185.62" y="-422.4" font-family="SourceSans" font-size="8.00">add_data</text>
</a>
</g>
</g>
<!-- Node1&#45;&gt;Node2 -->
<g id="edge1_Node000001_Node000002" class="edge">
<title>Node1&#45;&gt;Node2</title>
<g id="a_edge1_Node000001_Node000002"><a xlink:title=" ">
<path fill="none" stroke="#63b8ff" d="M49.29,-224.15C54.88,-255.24 75.74,-350.4 129.25,-405 129.85,-405.61 130.46,-406.2 131.09,-406.78"/>
<polygon fill="#63b8ff" stroke="#63b8ff" points="128.73,-409.39 138.8,-412.69 132.99,-403.83 128.73,-409.39"/>
</a>
</g>
</g>
<!-- Node4 -->
<g id="Node000004" class="node">
<title>Node4</title>
<g id="a_Node000004"><a xlink:href="group__elements.html#aaa5f1a136f2b5c61d647a47ec53fe31d" target="_top" xlink:title=" ">
<polygon fill="white" stroke="#666666" points="236,-396 135.25,-396 135.25,-364 236,-364 236,-396"/>
<text text-anchor="start" x="143.25" y="-384.4" font-family="SourceSans" font-size="8.00">svg::svg_element::add</text>
<text text-anchor="middle" x="185.62" y="-372.4" font-family="SourceSans" font-size="8.00">_element</text>
</a>
</g>
</g>
<!-- Node1&#45;&gt;Node4 -->
<g id="edge3_Node000001_Node000004" class="edge">
<title>Node1&#45;&gt;Node4</title>
<g id="a_edge3_Node000001_Node000004"><a xlink:title=" ">
<path fill="none" stroke="#63b8ff" d="M51.06,-224.3C60.03,-249.74 86.45,-316.3 129.25,-355 130.02,-355.7 130.81,-356.38 131.63,-357.04"/>
<polygon fill="#63b8ff" stroke="#63b8ff" points="129.51,-359.83 139.72,-362.67 133.51,-354.08 129.51,-359.83"/>
</a>
</g>
</g>
<!-- Node6 -->
<g id="Node000006" class="node">
<title>Node6</title>
<g id="a_Node000006"><a xlink:href="group__elements.html#a238b38ca99a1cf6c2baf80c8e4338d99" target="_top" xlink:title=" ">
<polygon fill="white" stroke="#666666" points="231.12,-296 140.12,-296 140.12,-264 231.12,-264 231.12,-296"/>
<text text-anchor="start" x="148.12" y="-284.4" font-family="SourceSans" font-size="8.00">svg::element_base::</text>
<text text-anchor="middle" x="185.62" y="-272.4" font-family="SourceSans" font-size="8.00">add_style</text>
</a>
</g>
</g>
<!-- Node1&#45;&gt;Node6 -->
<g id="edge5_Node000001_Node000006" class="edge">
<title>Node1&#45;&gt;Node6</title>
<g id="a_edge5_Node000001_Node000006"><a xlink:title=" ">
<path fill="none" stroke="#63b8ff" d="M69.33,-224.46C88.33,-233.61 116.52,-247.19 140.27,-258.63"/>
<polygon fill="#63b8ff" stroke="#63b8ff" points="138.58,-261.7 149.11,-262.89 141.62,-255.4 138.58,-261.7"/>
</a>
</g>
</g>
<!-- Node7 -->
<g id="Node000007" class="node">
<title>Node7</title>
<g id="a_Node000007"><a xlink:href="namespacesvg.html#a36b1c48ad4601b205790e3772ad0a7b6" target="_top" xlink:title=" ">
<polygon fill="white" stroke="#666666" points="363.38,-290 296.38,-290 296.38,-270 363.38,-270 363.38,-290"/>
<text text-anchor="middle" x="329.88" y="-278.4" font-family="SourceSans" font-size="8.00">svg::to_string</text>
</a>
</g>
</g>
<!-- Node1&#45;&gt;Node7 -->
<g id="edge16_Node000001_Node000007" class="edge">
<title>Node1&#45;&gt;Node7</title>
<g id="a_edge16_Node000001_Node000007"><a xlink:title=" ">
<path fill="none" stroke="#63b8ff" d="M93.4,-222.68C132.92,-230.41 191.47,-242.42 242,-255 256.18,-258.53 271.54,-262.8 285.34,-266.8"/>
<polygon fill="#63b8ff" stroke="#63b8ff" points="283.99,-270.06 294.57,-269.51 285.96,-263.34 283.99,-270.06"/>
</a>
</g>
</g>
<!-- Node8 -->
<g id="Node000008" class="node">
<title>Node8</title>
<g id="a_Node000008"><a xlink:href="group__elements.html#gaac30ae99fb1a2542688fa1ffb43cd8e1" target="_top" xlink:title=" ">
<polygon fill="white" stroke="#666666" points="231.12,-208 140.12,-208 140.12,-176 231.12,-176 231.12,-208"/>
<text text-anchor="start" x="148.12" y="-196.4" font-family="SourceSans" font-size="8.00">svg::path_element::</text>
<text text-anchor="middle" x="185.62" y="-184.4" font-family="SourceSans" font-size="8.00">finish_element</text>
</a>
</g>
</g>
<!-- Node1&#45;&gt;Node8 -->
<g id="edge7_Node000001_Node000008" class="edge">
<title>Node1&#45;&gt;Node8</title>
<g id="a_edge7_Node000001_Node000008"><a xlink:title=" ">
<path fill="none" stroke="#63b8ff" d="M93.63,-206.61C104.94,-204.8 117.17,-202.83 128.88,-200.95"/>
<polygon fill="#63b8ff" stroke="#63b8ff" points="129.1,-204.46 138.41,-199.42 127.99,-197.55 129.1,-204.46"/>
</a>
</g>
</g>
<!-- Node10 -->
<g id="Node000010" class="node">
<title>Node10</title>
<g id="a_Node000010"><a xlink:href="namespacesvg.html#ab44508c4aeca591141ebec50145b75cd" target="_top" xlink:title="Angle in degrees.">
<polygon fill="white" stroke="#666666" points="237.5,-120 133.75,-120 133.75,-88 237.5,-88 237.5,-120"/>
<text text-anchor="start" x="141.75" y="-108.4" font-family="SourceSans" font-size="8.00">svg::get_circumference</text>
<text text-anchor="middle" x="185.62" y="-96.4" font-family="SourceSans" font-size="8.00">_point_d</text>
</a>
</g>
</g>
<!-- Node1&#45;&gt;Node10 -->
<g id="edge9_Node000001_Node000010" class="edge">
<title>Node1&#45;&gt;Node10</title>
<g id="a_edge9_Node000001_Node000010"><a xlink:title=" ">
<path fill="none" stroke="#63b8ff" d="M55.41,-203.61C68.85,-186.25 98,-151.07 129.25,-129 130.62,-128.03 132.04,-127.08 133.49,-126.16"/>
<polygon fill="#63b8ff" stroke="#63b8ff" points="135.19,-129.22 142.11,-121.2 131.7,-123.16 135.19,-129.22"/>
</a>
</g>
</g>
<!-- Node12 -->
<g id="Node000012" class="node">
<title>Node12</title>
<g id="a_Node000012"><a xlink:href="namespacesvg.html#a37b1e7c40b54ff3cdd4e2929cb6b7ba2" target="_top" xlink:title=" ">
<polygon fill="white" stroke="#666666" points="234.5,-158 136.75,-158 136.75,-138 234.5,-138 234.5,-158"/>
<text text-anchor="middle" x="185.62" y="-146.4" font-family="SourceSans" font-size="8.00">svg::get_radial_range</text>
</a>
</g>
</g>
<!-- Node1&#45;&gt;Node12 -->
<g id="edge11_Node000001_Node000012" class="edge">
<title>Node1&#45;&gt;Node12</title>
<g id="a_edge11_Node000001_Node000012"><a xlink:title=" ">
<path fill="none" stroke="#63b8ff" d="M63.71,-203.5C79.82,-193.28 105.58,-177.76 129.25,-167 132.78,-165.4 136.49,-163.85 140.24,-162.37"/>
<polygon fill="#63b8ff" stroke="#63b8ff" points="141.27,-165.73 149.42,-158.96 138.83,-159.17 141.27,-165.73"/>
</a>
</g>
</g>
<!-- Node13 -->
<g id="Node000013" class="node">
<title>Node13</title>
<g id="a_Node000013"><a xlink:href="namespacesvg.html#abd8e35decc1e56f7243b02174c701d37" target="_top" xlink:title="Make path segment between two points on a circumference of radius r. Points like: get_circumference_p...">
<polygon fill="white" stroke="#666666" points="231.12,-346 140.12,-346 140.12,-314 231.12,-314 231.12,-346"/>
<text text-anchor="start" x="148.12" y="-334.4" font-family="SourceSans" font-size="8.00">svg::make_path_arc</text>
<text text-anchor="middle" x="185.62" y="-322.4" font-family="SourceSans" font-size="8.00">_circumference</text>
</a>
</g>
</g>
<!-- Node1&#45;&gt;Node13 -->
<g id="edge12_Node000001_Node000013" class="edge">
<title>Node1&#45;&gt;Node13</title>
<g id="a_edge12_Node000001_Node000013"><a xlink:title=" ">
<path fill="none" stroke="#63b8ff" d="M54.62,-224.28C67.51,-242.59 96.71,-281.18 129.25,-305 130.58,-305.97 131.95,-306.92 133.36,-307.84"/>
<polygon fill="#63b8ff" stroke="#63b8ff" points="131.33,-310.71 141.73,-312.77 134.89,-304.68 131.33,-310.71"/>
</a>
</g>
</g>
<!-- Node14 -->
<g id="Node000014" class="node">
<title>Node14</title>
<g id="a_Node000014"><a xlink:href="group__elements.html#a6dbca7cef2cbc0c10aa44c44ae20b36e" target="_top" xlink:title=" ">
<polygon fill="white" stroke="#666666" points="231.12,-70 140.12,-70 140.12,-38 231.12,-38 231.12,-70"/>
<text text-anchor="start" x="148.12" y="-58.4" font-family="SourceSans" font-size="8.00">svg::path_element::</text>
<text text-anchor="middle" x="185.62" y="-46.4" font-family="SourceSans" font-size="8.00">start_element</text>
</a>
</g>
</g>
<!-- Node1&#45;&gt;Node14 -->
<g id="edge14_Node000001_Node000014" class="edge">
<title>Node1&#45;&gt;Node14</title>
<g id="a_edge14_Node000001_Node000014"><a xlink:title=" ">
<path fill="none" stroke="#63b8ff" d="M51.32,-203.78C60.7,-179.16 87.65,-115.89 129.25,-79 130.16,-78.2 131.1,-77.41 132.06,-76.65"/>
<polygon fill="#63b8ff" stroke="#63b8ff" points="133.75,-79.74 140.05,-71.22 129.81,-73.95 133.75,-79.74"/>
</a>
</g>
</g>
<!-- Node16 -->
<g id="Node000016" class="node">
<title>Node16</title>
<g id="a_Node000016"><a xlink:href="namespacesvg.html#a46164d75fd5109e4ed8879abbacd5c11" target="_top" xlink:title="Zero degrees is top, going clockwise (cw).">
<polygon fill="white" stroke="#666666" points="242,-20 129.25,-20 129.25,0 242,0 242,-20"/>
<text text-anchor="middle" x="185.62" y="-8.4" font-family="SourceSans" font-size="8.00">svg::zero_angle_north_cw</text>
</a>
</g>
</g>
<!-- Node1&#45;&gt;Node16 -->
<g id="edge17_Node000001_Node000016" class="edge">
<title>Node1&#45;&gt;Node16</title>
<g id="a_edge17_Node000001_Node000016"><a xlink:title=" ">
<path fill="none" stroke="#63b8ff" d="M49.25,-203.51C54.62,-172.29 74.69,-79.1 129.25,-29 130.3,-28.03 131.41,-27.12 132.55,-26.24"/>
<polygon fill="#63b8ff" stroke="#63b8ff" points="134.05,-29.43 140.74,-21.22 130.39,-23.47 134.05,-29.43"/>
</a>
</g>
</g>
<!-- Node3 -->
<g id="Node000003" class="node">
<title>Node3</title>
<g id="a_Node000003"><a xlink:href="namespacesvg.html#a48ac748e89e22789d1772326a98dd7b6" target="_top" xlink:title=" ">
<polygon fill="white" stroke="#666666" points="373.5,-440 286.25,-440 286.25,-420 373.5,-420 373.5,-440"/>
<text text-anchor="middle" x="329.88" y="-428.4" font-family="SourceSans" font-size="8.00">svg::string_replace</text>
</a>
</g>
</g>
<!-- Node2&#45;&gt;Node3 -->
<g id="edge2_Node000002_Node000003" class="edge">
<title>Node2&#45;&gt;Node3</title>
<g id="a_edge2_Node000002_Node000003"><a xlink:title=" ">
<path fill="none" stroke="#63b8ff" d="M231.24,-430C245,-430 260.3,-430 274.64,-430"/>
<polygon fill="#63b8ff" stroke="#63b8ff" points="274.36,-433.5 284.36,-430 274.36,-426.5 274.36,-433.5"/>
</a>
</g>
</g>
<!-- Node5 -->
<g id="Node000005" class="node">
<title>Node5</title>
<g id="a_Node000005"><a xlink:href="group__elements.html#ad893ef9c13a15464c96d8a85c08af30f" target="_top" xlink:title=" ">
<polygon fill="white" stroke="#666666" points="380.25,-390 279.5,-390 279.5,-370 380.25,-370 380.25,-390"/>
<text text-anchor="middle" x="329.88" y="-378.4" font-family="SourceSans" font-size="8.00">svg::element_base::str</text>
</a>
</g>
</g>
<!-- Node4&#45;&gt;Node5 -->
<g id="edge4_Node000004_Node000005" class="edge">
<title>Node4&#45;&gt;Node5</title>
<g id="a_edge4_Node000004_Node000005"><a xlink:title=" ">
<path fill="none" stroke="#63b8ff" d="M236.38,-380C246.61,-380 257.5,-380 268.08,-380"/>
<polygon fill="#63b8ff" stroke="#63b8ff" points="267.88,-383.5 277.88,-380 267.88,-376.5 267.88,-383.5"/>
</a>
</g>
</g>
<!-- Node6&#45;&gt;Node7 -->
<g id="edge6_Node000006_Node000007" class="edge">
<title>Node6&#45;&gt;Node7</title>
<g id="a_edge6_Node000006_Node000007"><a xlink:title=" ">
<path fill="none" stroke="#63b8ff" d="M231.24,-280C248.32,-280 267.78,-280 284.81,-280"/>
<polygon fill="#63b8ff" stroke="#63b8ff" points="284.64,-283.5 294.64,-280 284.64,-276.5 284.64,-283.5"/>
</a>
</g>
</g>
<!-- Node9 -->
<g id="Node000009" class="node">
<title>Node9</title>
<g id="a_Node000009"><a xlink:href="group__elements.html#ga503ee2895588a6c684e2b1614cf4e73d" target="_top" xlink:title=" ">
<polygon fill="white" stroke="#666666" points="374.62,-208 285.12,-208 285.12,-176 374.62,-176 374.62,-208"/>
<text text-anchor="start" x="293.12" y="-196.4" font-family="SourceSans" font-size="8.00">svg::defs_element::</text>
<text text-anchor="middle" x="329.88" y="-184.4" font-family="SourceSans" font-size="8.00">finish_element</text>
</a>
</g>
</g>
<!-- Node8&#45;&gt;Node9 -->
<g id="edge8_Node000008_Node000009" class="edge">
<title>Node8&#45;&gt;Node9</title>
<g id="a_edge8_Node000008_Node000009"><a xlink:title=" ">
<path fill="none" stroke="#63b8ff" d="M231.24,-192C244.61,-192 259.44,-192 273.41,-192"/>
<polygon fill="#63b8ff" stroke="#63b8ff" points="273.39,-195.5 283.39,-192 273.39,-188.5 273.39,-195.5"/>
</a>
</g>
</g>
<!-- Node11 -->
<g id="Node000011" class="node">
<title>Node11</title>
<g id="a_Node000011"><a xlink:href="namespacesvg.html#aef05ac63d88a6102981d3faf37275297" target="_top" xlink:title="Angle in radians.">
<polygon fill="white" stroke="#666666" points="381.75,-120 278,-120 278,-88 381.75,-88 381.75,-120"/>
<text text-anchor="start" x="286" y="-108.4" font-family="SourceSans" font-size="8.00">svg::get_circumference</text>
<text text-anchor="middle" x="329.88" y="-96.4" font-family="SourceSans" font-size="8.00">_point_r</text>
</a>
</g>
</g>
<!-- Node10&#45;&gt;Node11 -->
<g id="edge10_Node000010_Node000011" class="edge">
<title>Node10&#45;&gt;Node11</title>
<g id="a_edge10_Node000010_Node000011"><a xlink:title=" ">
<path fill="none" stroke="#63b8ff" d="M237.98,-104C247.15,-104 256.79,-104 266.23,-104"/>
<polygon fill="#63b8ff" stroke="#63b8ff" points="266.08,-107.5 276.08,-104 266.08,-100.5 266.08,-107.5"/>
</a>
</g>
</g>
<!-- Node13&#45;&gt;Node7 -->
<g id="edge13_Node000013_Node000007" class="edge">
<title>Node13&#45;&gt;Node7</title>
<g id="a_edge13_Node000013_Node000007"><a xlink:title=" ">
<path fill="none" stroke="#63b8ff" d="M231.24,-314.32C249.6,-307.87 270.7,-300.45 288.58,-294.16"/>
<polygon fill="#63b8ff" stroke="#63b8ff" points="289.54,-297.54 297.81,-290.92 287.22,-290.93 289.54,-297.54"/>
</a>
</g>
</g>
<!-- Node15 -->
<g id="Node000015" class="node">
<title>Node15</title>
<g id="a_Node000015"><a xlink:href="group__elements.html#a948868c6f5dea784ded14c26cc1d2139" target="_top" xlink:title=" ">
<polygon fill="white" stroke="#666666" points="374.62,-70 285.12,-70 285.12,-38 374.62,-38 374.62,-70"/>
<text text-anchor="start" x="293.12" y="-58.4" font-family="SourceSans" font-size="8.00">svg::defs_element::</text>
<text text-anchor="middle" x="329.88" y="-46.4" font-family="SourceSans" font-size="8.00">start_element</text>
</a>
</g>
</g>
<!-- Node14&#45;&gt;Node15 -->
<g id="edge15_Node000014_Node000015" class="edge">
<title>Node14&#45;&gt;Node15</title>
<g id="a_edge15_Node000014_Node000015"><a xlink:title=" ">
<path fill="none" stroke="#63b8ff" d="M231.24,-54C244.61,-54 259.44,-54 273.41,-54"/>
<polygon fill="#63b8ff" stroke="#63b8ff" points="273.39,-57.5 283.39,-54 273.39,-50.5 273.39,-57.5"/>
</a>
</g>
</g>
</g>
</svg>
