<?xml version="1.0" encoding="UTF-8" standalone="no"?>
<!DOCTYPE svg PUBLIC "-//W3C//DTD SVG 1.1//EN"
 "http://www.w3.org/Graphics/SVG/1.1/DTD/svg11.dtd">
<!-- Generated by graphviz version 12.2.1 (20241206.2353)
 -->
<!-- Title: svg::make_marker_x Pages: 1 -->
<!--zoomable 278 -->

<svg id="main" version="1.1" xmlns="http://www.w3.org/2000/svg" xmlns:xlink="http://www.w3.org/1999/xlink" xml:space="preserve" onload="init(evt)">

<style type="text/css"><![CDATA[
.node, .edge {opacity: 0.7;}
.node.selected, .edge.selected {opacity: 1;}
.edge:hover path { stroke: red; }
.edge:hover polygon { stroke: red; fill: red; }
]]></style>

<defs>
  <circle id="rim" cx="0" cy="0" r="7"/>
  <circle id="rim2" cx="0" cy="0" r="3.5"/>
  <g id="zoomPlus">
    <use xlink:href="#rim" fill="#404040"><set attributeName="fill" to="#808080" begin="zoomplus.mouseover" end="zoomplus.mouseout"/></use>
    <path d="M-4,0h8M0,-4v8" fill="none" stroke="white" stroke-width="1.5" pointer-events="none"/>
  </g>
  <g id="zoomMin">
    <use xlink:href="#rim" fill="#404040"><set attributeName="fill" to="#808080" begin="zoomminus.mouseover" end="zoomminus.mouseout"/></use>
    <path d="M-4,0h8" fill="none" stroke="white" stroke-width="1.5" pointer-events="none"/>
  </g>
  <g id="arrowUp" transform="translate(30 24)">
    <use xlink:href="#rim"/>
    <path pointer-events="none" fill="none" stroke="white" stroke-width="1.5" d="M0,-3.0v7 M-2.5,-0.5L0,-3.0L2.5,-0.5"/>
  </g>
  <g id="arrowRight" transform="rotate(90) translate(36 -43)">
    <use xlink:href="#rim"/>
    <path pointer-events="none" fill="none" stroke="white" stroke-width="1.5" d="M0,-3.0v7 M-2.5,-0.5L0,-3.0L2.5,-0.5"/>
  </g>
  <g id="arrowDown" transform="rotate(180) translate(-30 -48)">
    <use xlink:href="#rim"/>
    <path pointer-events="none" fill="none" stroke="white" stroke-width="1.5" d="M0,-3.0v7 M-2.5,-0.5L0,-3.0L2.5,-0.5"/>
  </g>
  <g id="arrowLeft" transform="rotate(270) translate(-36 17)">
    <use xlink:href="#rim"/>
    <path pointer-events="none" fill="none" stroke="white" stroke-width="1.5" d="M0,-3.0v7 M-2.5,-0.5L0,-3.0L2.5,-0.5"/>
  </g>
  <g id="resetDef">
    <use xlink:href="#rim2" fill="#404040"><set attributeName="fill" to="#808080" begin="reset.mouseover" end="reset.mouseout"/></use>
  </g>
</defs>
<script type="application/ecmascript">
var viewWidth = 648;
var viewHeight = 278;
var sectionId = 'dynsection-44';
</script>
<script type="application/ecmascript" xlink:href="svg.min.js"/>
<svg id="graph" class="graph">
<g id="viewport">
<title>svg::make_marker_x</title>
<!-- Node1 -->
<g id="Node000001" class="node">
<title>Node1</title>
<g id="a_Node000001"><a xlink:title=" ">
<polygon fill="#999999" stroke="#666666" points="93.25,-167 0,-167 0,-147 93.25,-147 93.25,-167"/>
<text text-anchor="middle" x="46.62" y="-155.4" font-family="SourceSans" font-size="8.00">svg::make_marker_x</text>
</a>
</g>
</g>
<!-- Node2 -->
<g id="Node000002" class="node">
<title>Node2</title>
<g id="a_Node000002"><a xlink:href="namespacesvg.html#af02ffb403f990d5ac674a7c1d728fe5b" target="_top" xlink:title="Base function for generating SVG markers in a defs section.">
<polygon fill="white" stroke="#666666" points="252.88,-189 132.62,-189 132.62,-169 252.88,-169 252.88,-189"/>
<text text-anchor="middle" x="192.75" y="-177.4" font-family="SourceSans" font-size="8.00">svg::make_marker_element</text>
</a>
</g>
</g>
<!-- Node1&#45;&gt;Node2 -->
<g id="edge1_Node000001_Node000002" class="edge">
<title>Node1&#45;&gt;Node2</title>
<g id="a_edge1_Node000001_Node000002"><a xlink:title=" ">
<path fill="none" stroke="#63b8ff" d="M93.62,-164.02C102.35,-165.35 111.67,-166.78 120.95,-168.19"/>
<polygon fill="#63b8ff" stroke="#63b8ff" points="120.32,-171.64 130.73,-169.69 121.37,-164.72 120.32,-171.64"/>
</a>
</g>
</g>
<!-- Node6 -->
<g id="Node000006" class="node">
<title>Node6</title>
<g id="a_Node000006"><a xlink:href="namespacesvg.html#a2fa1b20c774442f47173235750c9d0e8" target="_top" xlink:title="Plus or x tilt mark as closed path that can be filled.">
<polygon fill="white" stroke="#666666" points="256.25,-148 129.25,-148 129.25,-128 256.25,-128 256.25,-148"/>
<text text-anchor="middle" x="192.75" y="-136.4" font-family="SourceSans" font-size="8.00">svg::make_path_center_mark</text>
</a>
</g>
</g>
<!-- Node1&#45;&gt;Node6 -->
<g id="edge5_Node000001_Node000006" class="edge">
<title>Node1&#45;&gt;Node6</title>
<g id="a_edge5_Node000001_Node000006"><a xlink:title=" ">
<path fill="none" stroke="#63b8ff" d="M93.62,-150.94C101.33,-149.92 109.49,-148.84 117.68,-147.76"/>
<polygon fill="#63b8ff" stroke="#63b8ff" points="117.89,-151.27 127.34,-146.49 116.97,-144.33 117.89,-151.27"/>
</a>
</g>
</g>
<!-- Node3 -->
<g id="Node000003" class="node">
<title>Node3</title>
<g id="a_Node000003"><a xlink:href="group__elements.html#acafbdd950c6c2639c9d376c3eab696e5" target="_top" xlink:title=" ">
<polygon fill="white" stroke="#666666" points="385.5,-270 294.5,-270 294.5,-238 385.5,-238 385.5,-270"/>
<text text-anchor="start" x="302.5" y="-258.4" font-family="SourceSans" font-size="8.00">svg::element_base::</text>
<text text-anchor="middle" x="340" y="-246.4" font-family="SourceSans" font-size="8.00">add_raw</text>
</a>
</g>
</g>
<!-- Node2&#45;&gt;Node3 -->
<g id="edge2_Node000002_Node000003" class="edge">
<title>Node2&#45;&gt;Node3</title>
<g id="a_edge2_Node000002_Node000003"><a xlink:title=" ">
<path fill="none" stroke="#63b8ff" d="M213.95,-189.43C235.37,-200.49 269.84,-218.29 297.17,-232.4"/>
<polygon fill="#63b8ff" stroke="#63b8ff" points="295.41,-235.43 305.9,-236.91 298.62,-229.21 295.41,-235.43"/>
</a>
</g>
</g>
<!-- Node4 -->
<g id="Node000004" class="node">
<title>Node4</title>
<g id="a_Node000004"><a xlink:href="group__elements.html#gab7270e660dcac30ea26157764f230e03" target="_top" xlink:title=" ">
<polygon fill="white" stroke="#666666" points="387.75,-220 292.25,-220 292.25,-188 387.75,-188 387.75,-220"/>
<text text-anchor="start" x="300.25" y="-208.4" font-family="SourceSans" font-size="8.00">svg::marker_element</text>
<text text-anchor="middle" x="340" y="-196.4" font-family="SourceSans" font-size="8.00">::finish_element</text>
</a>
</g>
</g>
<!-- Node2&#45;&gt;Node4 -->
<g id="edge3_Node000002_Node000004" class="edge">
<title>Node2&#45;&gt;Node4</title>
<g id="a_edge3_Node000002_Node000004"><a xlink:title=" ">
<path fill="none" stroke="#63b8ff" d="M253.25,-189.24C262.28,-190.8 271.6,-192.4 280.61,-193.95"/>
<polygon fill="#63b8ff" stroke="#63b8ff" points="279.87,-197.37 290.32,-195.62 281.06,-190.48 279.87,-197.37"/>
</a>
</g>
</g>
<!-- Node5 -->
<g id="Node000005" class="node">
<title>Node5</title>
<g id="a_Node000005"><a xlink:href="group__elements.html#ac4cb549d62ec6d614189e4585089c58d" target="_top" xlink:title=" ">
<polygon fill="white" stroke="#666666" points="387.75,-170 292.25,-170 292.25,-138 387.75,-138 387.75,-170"/>
<text text-anchor="start" x="300.25" y="-158.4" font-family="SourceSans" font-size="8.00">svg::marker_element</text>
<text text-anchor="middle" x="340" y="-146.4" font-family="SourceSans" font-size="8.00">::start_element</text>
</a>
</g>
</g>
<!-- Node2&#45;&gt;Node5 -->
<g id="edge4_Node000002_Node000005" class="edge">
<title>Node2&#45;&gt;Node5</title>
<g id="a_edge4_Node000002_Node000005"><a xlink:title=" ">
<path fill="none" stroke="#63b8ff" d="M253.25,-168.76C262.28,-167.2 271.6,-165.6 280.61,-164.05"/>
<polygon fill="#63b8ff" stroke="#63b8ff" points="281.06,-167.52 290.32,-162.38 279.87,-160.63 281.06,-167.52"/>
</a>
</g>
</g>
<!-- Node7 -->
<g id="Node000007" class="node">
<title>Node7</title>
<g id="a_Node000007"><a xlink:href="namespacesvg.html#a8425f83abab02eedb240bc2a893cd513" target="_top" xlink:title="Draw path given serialized path data. Assumes pinstripe, ie top and bottom line layers....">
<polygon fill="white" stroke="#666666" points="378,-120 302,-120 302,-100 378,-100 378,-120"/>
<text text-anchor="middle" x="340" y="-108.4" font-family="SourceSans" font-size="8.00">svg::make_path</text>
</a>
</g>
</g>
<!-- Node6&#45;&gt;Node7 -->
<g id="edge6_Node000006_Node000007" class="edge">
<title>Node6&#45;&gt;Node7</title>
<g id="a_edge6_Node000006_Node000007"><a xlink:title=" ">
<path fill="none" stroke="#63b8ff" d="M247.84,-127.57C261.82,-124.88 276.8,-121.99 290.48,-119.35"/>
<polygon fill="#63b8ff" stroke="#63b8ff" points="290.98,-122.82 300.14,-117.49 289.66,-115.95 290.98,-122.82"/>
</a>
</g>
</g>
<!-- Node8 -->
<g id="Node000008" class="node">
<title>Node8</title>
<g id="a_Node000008"><a xlink:href="group__elements.html#a807f3c30f2ace338ad10aaf230b47665" target="_top" xlink:title="Either serialize immediately (as below), or create data structure that adds data to data_vec and then...">
<polygon fill="white" stroke="#666666" points="514.75,-220 423.75,-220 423.75,-188 514.75,-188 514.75,-220"/>
<text text-anchor="start" x="431.75" y="-208.4" font-family="SourceSans" font-size="8.00">svg::path_element::</text>
<text text-anchor="middle" x="469.25" y="-196.4" font-family="SourceSans" font-size="8.00">add_data</text>
</a>
</g>
</g>
<!-- Node7&#45;&gt;Node8 -->
<g id="edge7_Node000007_Node000008" class="edge">
<title>Node7&#45;&gt;Node8</title>
<g id="a_edge7_Node000007_Node000008"><a xlink:title=" ">
<path fill="none" stroke="#63b8ff" d="M373.5,-120.41C378.54,-122.8 383.48,-125.64 387.75,-129 409.27,-145.93 403.33,-160.75 423.75,-179 424.5,-179.67 425.27,-180.33 426.06,-180.98"/>
<polygon fill="#63b8ff" stroke="#63b8ff" points="423.69,-183.58 433.83,-186.63 427.81,-177.92 423.69,-183.58"/>
</a>
</g>
</g>
<!-- Node10 -->
<g id="Node000010" class="node">
<title>Node10</title>
<g id="a_Node000010"><a xlink:href="group__elements.html#a238b38ca99a1cf6c2baf80c8e4338d99" target="_top" xlink:title=" ">
<polygon fill="white" stroke="#666666" points="514.75,-170 423.75,-170 423.75,-138 514.75,-138 514.75,-170"/>
<text text-anchor="start" x="431.75" y="-158.4" font-family="SourceSans" font-size="8.00">svg::element_base::</text>
<text text-anchor="middle" x="469.25" y="-146.4" font-family="SourceSans" font-size="8.00">add_style</text>
</a>
</g>
</g>
<!-- Node7&#45;&gt;Node10 -->
<g id="edge9_Node000007_Node000010" class="edge">
<title>Node7&#45;&gt;Node10</title>
<g id="a_edge9_Node000007_Node000010"><a xlink:title=" ">
<path fill="none" stroke="#63b8ff" d="M371.16,-120.43C383.57,-124.72 398.37,-129.84 412.62,-134.76"/>
<polygon fill="#63b8ff" stroke="#63b8ff" points="411.33,-138.02 421.93,-137.98 413.62,-131.41 411.33,-138.02"/>
</a>
</g>
</g>
<!-- Node11 -->
<g id="Node000011" class="node">
<title>Node11</title>
<g id="a_Node000011"><a xlink:href="namespacesvg.html#a36b1c48ad4601b205790e3772ad0a7b6" target="_top" xlink:title=" ">
<polygon fill="white" stroke="#666666" points="629,-142 562,-142 562,-122 629,-122 629,-142"/>
<text text-anchor="middle" x="595.5" y="-130.4" font-family="SourceSans" font-size="8.00">svg::to_string</text>
</a>
</g>
</g>
<!-- Node7&#45;&gt;Node11 -->
<g id="edge15_Node000007_Node000011" class="edge">
<title>Node7&#45;&gt;Node11</title>
<g id="a_edge15_Node000007_Node000011"><a xlink:title=" ">
<path fill="none" stroke="#63b8ff" d="M378.4,-113.25C424.21,-117.22 501.69,-123.95 550.36,-128.17"/>
<polygon fill="#63b8ff" stroke="#63b8ff" points="550.01,-131.65 560.27,-129.03 550.61,-124.68 550.01,-131.65"/>
</a>
</g>
</g>
<!-- Node12 -->
<g id="Node000012" class="node">
<title>Node12</title>
<g id="a_Node000012"><a xlink:href="group__elements.html#gaac30ae99fb1a2542688fa1ffb43cd8e1" target="_top" xlink:title=" ">
<polygon fill="white" stroke="#666666" points="514.75,-82 423.75,-82 423.75,-50 514.75,-50 514.75,-82"/>
<text text-anchor="start" x="431.75" y="-70.4" font-family="SourceSans" font-size="8.00">svg::path_element::</text>
<text text-anchor="middle" x="469.25" y="-58.4" font-family="SourceSans" font-size="8.00">finish_element</text>
</a>
</g>
</g>
<!-- Node7&#45;&gt;Node12 -->
<g id="edge11_Node000007_Node000012" class="edge">
<title>Node7&#45;&gt;Node12</title>
<g id="a_edge11_Node000007_Node000012"><a xlink:title=" ">
<path fill="none" stroke="#63b8ff" d="M371.16,-99.57C383.57,-95.28 398.37,-90.16 412.62,-85.24"/>
<polygon fill="#63b8ff" stroke="#63b8ff" points="413.62,-88.59 421.93,-82.02 411.33,-81.98 413.62,-88.59"/>
</a>
</g>
</g>
<!-- Node14 -->
<g id="Node000014" class="node">
<title>Node14</title>
<g id="a_Node000014"><a xlink:href="group__elements.html#a6dbca7cef2cbc0c10aa44c44ae20b36e" target="_top" xlink:title=" ">
<polygon fill="white" stroke="#666666" points="514.75,-32 423.75,-32 423.75,0 514.75,0 514.75,-32"/>
<text text-anchor="start" x="431.75" y="-20.4" font-family="SourceSans" font-size="8.00">svg::path_element::</text>
<text text-anchor="middle" x="469.25" y="-8.4" font-family="SourceSans" font-size="8.00">start_element</text>
</a>
</g>
</g>
<!-- Node7&#45;&gt;Node14 -->
<g id="edge13_Node000007_Node000014" class="edge">
<title>Node7&#45;&gt;Node14</title>
<g id="a_edge13_Node000007_Node000014"><a xlink:title=" ">
<path fill="none" stroke="#63b8ff" d="M351.99,-99.71C367.37,-85.58 396.49,-59.79 423.75,-41 424.94,-40.18 426.16,-39.36 427.4,-38.55"/>
<polygon fill="#63b8ff" stroke="#63b8ff" points="429.22,-41.54 435.88,-33.3 425.53,-35.59 429.22,-41.54"/>
</a>
</g>
</g>
<!-- Node9 -->
<g id="Node000009" class="node">
<title>Node9</title>
<g id="a_Node000009"><a xlink:href="namespacesvg.html#a48ac748e89e22789d1772326a98dd7b6" target="_top" xlink:title=" ">
<polygon fill="white" stroke="#666666" points="639.12,-214 551.88,-214 551.88,-194 639.12,-194 639.12,-214"/>
<text text-anchor="middle" x="595.5" y="-202.4" font-family="SourceSans" font-size="8.00">svg::string_replace</text>
</a>
</g>
</g>
<!-- Node8&#45;&gt;Node9 -->
<g id="edge8_Node000008_Node000009" class="edge">
<title>Node8&#45;&gt;Node9</title>
<g id="a_edge8_Node000008_Node000009"><a xlink:title=" ">
<path fill="none" stroke="#63b8ff" d="M515.11,-204C523.33,-204 531.98,-204 540.44,-204"/>
<polygon fill="#63b8ff" stroke="#63b8ff" points="540.27,-207.5 550.27,-204 540.27,-200.5 540.27,-207.5"/>
</a>
</g>
</g>
<!-- Node10&#45;&gt;Node11 -->
<g id="edge10_Node000010_Node000011" class="edge">
<title>Node10&#45;&gt;Node11</title>
<g id="a_edge10_Node000010_Node000011"><a xlink:title=" ">
<path fill="none" stroke="#63b8ff" d="M515.11,-146.06C526.68,-144.01 539.12,-141.81 550.64,-139.77"/>
<polygon fill="#63b8ff" stroke="#63b8ff" points="551.07,-143.24 560.3,-138.05 549.85,-136.35 551.07,-143.24"/>
</a>
</g>
</g>
<!-- Node13 -->
<g id="Node000013" class="node">
<title>Node13</title>
<g id="a_Node000013"><a xlink:href="group__elements.html#ga503ee2895588a6c684e2b1614cf4e73d" target="_top" xlink:title=" ">
<polygon fill="white" stroke="#666666" points="640.25,-82 550.75,-82 550.75,-50 640.25,-50 640.25,-82"/>
<text text-anchor="start" x="558.75" y="-70.4" font-family="SourceSans" font-size="8.00">svg::defs_element::</text>
<text text-anchor="middle" x="595.5" y="-58.4" font-family="SourceSans" font-size="8.00">finish_element</text>
</a>
</g>
</g>
<!-- Node12&#45;&gt;Node13 -->
<g id="edge12_Node000012_Node000013" class="edge">
<title>Node12&#45;&gt;Node13</title>
<g id="a_edge12_Node000012_Node000013"><a xlink:title=" ">
<path fill="none" stroke="#63b8ff" d="M515.11,-66C522.95,-66 531.19,-66 539.28,-66"/>
<polygon fill="#63b8ff" stroke="#63b8ff" points="539.03,-69.5 549.03,-66 539.03,-62.5 539.03,-69.5"/>
</a>
</g>
</g>
<!-- Node15 -->
<g id="Node000015" class="node">
<title>Node15</title>
<g id="a_Node000015"><a xlink:href="group__elements.html#a948868c6f5dea784ded14c26cc1d2139" target="_top" xlink:title=" ">
<polygon fill="white" stroke="#666666" points="640.25,-32 550.75,-32 550.75,0 640.25,0 640.25,-32"/>
<text text-anchor="start" x="558.75" y="-20.4" font-family="SourceSans" font-size="8.00">svg::defs_element::</text>
<text text-anchor="middle" x="595.5" y="-8.4" font-family="SourceSans" font-size="8.00">start_element</text>
</a>
</g>
</g>
<!-- Node14&#45;&gt;Node15 -->
<g id="edge14_Node000014_Node000015" class="edge">
<title>Node14&#45;&gt;Node15</title>
<g id="a_edge14_Node000014_Node000015"><a xlink:title=" ">
<path fill="none" stroke="#63b8ff" d="M515.11,-16C522.95,-16 531.19,-16 539.28,-16"/>
<polygon fill="#63b8ff" stroke="#63b8ff" points="539.03,-19.5 549.03,-16 539.03,-12.5 539.03,-19.5"/>
</a>
</g>
</g>
</g>
</svg>

<g id="navigator" transform="translate(0 0)" fill="#404254">
  <rect fill="#f2f5e9" fill-opacity="0.5" stroke="#606060" stroke-width=".5" x="0" y="0" width="60" height="60"/>
  <use id="zoomplus" xlink:href="#zoomPlus" x="17" y="9" onmousedown="handleZoom(evt,'in')"/>
  <use id="zoomminus" xlink:href="#zoomMin" x="42" y="9" onmousedown="handleZoom(evt,'out')"/>
  <use id="reset" xlink:href="#resetDef" x="30" y="36" onmousedown="handleReset()"/>
   <use id="arrowup" xlink:href="#arrowUp" x="0" y="0" onmousedown="handlePan(0,-1)"/>
  <use id="arrowright" xlink:href="#arrowRight" x="0" y="0" onmousedown="handlePan(1,0)"/>
  <use id="arrowdown" xlink:href="#arrowDown" x="0" y="0" onmousedown="handlePan(0,1)"/>
  <use id="arrowleft" xlink:href="#arrowLeft" x="0" y="0" onmousedown="handlePan(-1,0)"/>
</g>
<svg viewBox="0 0 15 15" width="100%" height="30px" preserveAspectRatio="xMaxYMin meet">
 <g id="arrow_out" transform="scale(0.3 0.3)">
  <a xlink:href="namespacesvg_ad0b4b47318ff8c5c675525aba4e7b51f_cgraph_org.svg" target="_base">
   <rect id="button" ry="5" rx="5" y="6" x="6" height="38" width="38"
        fill="#f2f5e9" fill-opacity="0.5" stroke="#606060" stroke-width="1.0"/>
   <path id="arrow"
     d="M 11.500037,31.436501 C 11.940474,20.09759 22.043105,11.32322 32.158766,21.979434 L 37.068811,17.246167 C 37.068811,17.246167 37.088388,32 37.088388,32 L 22.160133,31.978069 C 22.160133,31.978069 26.997745,27.140456 26.997745,27.140456 C 18.528582,18.264221 13.291696,25.230495 11.500037,31.436501 z"
     style="fill:#404040;"/>
  </a>
 </g>
</svg>

<style type='text/css'>
<![CDATA[
[data-mouse-over-selected='false'] { opacity: 0.7; }
[data-mouse-over-selected='true']  { opacity: 1.0; }
]]>
</style>
<script type="application/ecmascript"><![CDATA[
document.addEventListener('DOMContentLoaded', (event) => {
  highlightEdges();
  highlightAdjacentNodes();
});
]]></script>
</svg>
