<?xml version="1.0" encoding="UTF-8" standalone="no"?>
<!DOCTYPE svg PUBLIC "-//W3C//DTD SVG 1.1//EN"
 "http://www.w3.org/Graphics/SVG/1.1/DTD/svg11.dtd">
<!-- Generated by graphviz version 12.2.1 (20241206.2353)
 -->
<!-- Title: a60::metadata::analyze_metadata_aggregate_chord Pages: 1 -->
<svg width="723pt" height="167pt"
 viewBox="0.00 0.00 722.50 167.00" xmlns="http://www.w3.org/2000/svg" xmlns:xlink="http://www.w3.org/1999/xlink">
<g id="graph0" class="graph" transform="scale(1 1) rotate(0) translate(4 163)">
<title>a60::metadata::analyze_metadata_aggregate_chord</title>
<!-- Node1 -->
<g id="Node000001" class="node">
<title>Node1</title>
<g id="a_Node000001"><a xlink:title="Analyze metadata directory or subset of it, and generate summary output for all in directory.">
<polygon fill="#999999" stroke="#666666" points="125.5,-87 0,-87 0,-55 125.5,-55 125.5,-87"/>
<text text-anchor="start" x="8" y="-75.4" font-family="SourceSans" font-size="8.00">a60::metadata::analyze</text>
<text text-anchor="middle" x="62.75" y="-63.4" font-family="SourceSans" font-size="8.00">_metadata_aggregate_chord</text>
</a>
</g>
</g>
<!-- Node2 -->
<g id="Node000002" class="node">
<title>Node2</title>
<g id="a_Node000002"><a xlink:href="namespacea60_1_1metadata.html#abb1e8fbeb00e7bf7a8f019c0fd951073" target="_top" xlink:title="Analyze metadata directory or subset of it and generate summary output for all in directory.">
<polygon fill="white" stroke="#666666" points="287,-87 161.5,-87 161.5,-55 287,-55 287,-87"/>
<text text-anchor="start" x="169.5" y="-75.4" font-family="SourceSans" font-size="8.00">a60::metadata::render</text>
<text text-anchor="middle" x="224.25" y="-63.4" font-family="SourceSans" font-size="8.00">_metadata_aggregate_chord</text>
</a>
</g>
</g>
<!-- Node1&#45;&gt;Node2 -->
<g id="edge1_Node000001_Node000002" class="edge">
<title>Node1&#45;&gt;Node2</title>
<g id="a_edge1_Node000001_Node000002"><a xlink:title=" ">
<path fill="none" stroke="#63b8ff" d="M125.87,-71C133.63,-71 141.62,-71 149.54,-71"/>
<polygon fill="#63b8ff" stroke="#63b8ff" points="149.52,-74.5 159.52,-71 149.52,-67.5 149.52,-74.5"/>
</a>
</g>
</g>
<!-- Node3 -->
<g id="Node000003" class="node">
<title>Node3</title>
<g id="a_Node000003"><a xlink:href="namespacea60_1_1metadata.html#a1fde7b7617a6da1a221d09f4ce033ee9" target="_top" xlink:title=" ">
<polygon fill="white" stroke="#666666" points="429,-87 323,-87 323,-55 429,-55 429,-87"/>
<text text-anchor="start" x="331" y="-75.4" font-family="SourceSans" font-size="8.00">a60::metadata::h_chord</text>
<text text-anchor="middle" x="376" y="-63.4" font-family="SourceSans" font-size="8.00">_graph</text>
</a>
</g>
</g>
<!-- Node2&#45;&gt;Node3 -->
<g id="edge2_Node000002_Node000003" class="edge">
<title>Node2&#45;&gt;Node3</title>
<g id="a_edge2_Node000002_Node000003"><a xlink:title=" ">
<path fill="none" stroke="#63b8ff" d="M287.46,-71C295.34,-71 303.41,-71 311.32,-71"/>
<polygon fill="#63b8ff" stroke="#63b8ff" points="311.22,-74.5 321.22,-71 311.22,-67.5 311.22,-74.5"/>
</a>
</g>
</g>
<!-- Node4 -->
<g id="Node000004" class="node">
<title>Node4</title>
<g id="a_Node000004"><a xlink:href="namespacea60_1_1metadata.html#a4c88caad75ba7fd9dffc58be1f715b28" target="_top" xlink:title="Compute xoffset.">
<polygon fill="white" stroke="#666666" points="704.75,-159 616.75,-159 616.75,-127 704.75,-127 704.75,-159"/>
<text text-anchor="start" x="624.75" y="-147.4" font-family="SourceSans" font-size="8.00">a60::metadata::get</text>
<text text-anchor="middle" x="660.75" y="-135.4" font-family="SourceSans" font-size="8.00">_xoffset</text>
</a>
</g>
</g>
<!-- Node3&#45;&gt;Node4 -->
<g id="edge3_Node000003_Node000004" class="edge">
<title>Node3&#45;&gt;Node4</title>
<g id="a_edge3_Node000003_Node000004"><a xlink:title=" ">
<path fill="none" stroke="#63b8ff" d="M406.72,-87.38C423.4,-95.92 444.85,-105.84 465,-112 511.19,-126.13 565.61,-134.1 605.17,-138.41"/>
<polygon fill="#63b8ff" stroke="#63b8ff" points="604.61,-141.87 614.92,-139.43 605.33,-134.91 604.61,-141.87"/>
</a>
</g>
</g>
<!-- Node5 -->
<g id="Node000005" class="node">
<title>Node5</title>
<g id="a_Node000005"><a xlink:href="namespacea60_1_1metadata.html#a0e1ca2f297681851edcf2f74d3bf663e" target="_top" xlink:title="Grid, titles, labels for h_chord_graph. @yscale == how much to vertically scale the bar graph from ce...">
<polygon fill="white" stroke="#666666" points="571,-87 465,-87 465,-55 571,-55 571,-87"/>
<text text-anchor="start" x="473" y="-75.4" font-family="SourceSans" font-size="8.00">a60::metadata::h_chord</text>
<text text-anchor="middle" x="518" y="-63.4" font-family="SourceSans" font-size="8.00">_graph_labels</text>
</a>
</g>
</g>
<!-- Node3&#45;&gt;Node5 -->
<g id="edge4_Node000003_Node000005" class="edge">
<title>Node3&#45;&gt;Node5</title>
<g id="a_edge4_Node000003_Node000005"><a xlink:title=" ">
<path fill="none" stroke="#63b8ff" d="M429.13,-71C437.06,-71 445.31,-71 453.45,-71"/>
<polygon fill="#63b8ff" stroke="#63b8ff" points="453.31,-74.5 463.31,-71 453.31,-67.5 453.31,-74.5"/>
</a>
</g>
</g>
<!-- Node6 -->
<g id="Node000006" class="node">
<title>Node6</title>
<g id="a_Node000006"><a xlink:href="namespacea60_1_1metadata.html#a22b86d9f6417957b79f6e9dab13296dc" target="_top" xlink:title=" ">
<polygon fill="white" stroke="#666666" points="714.5,-100 607,-100 607,-80 714.5,-80 714.5,-100"/>
<text text-anchor="middle" x="660.75" y="-88.4" font-family="SourceSans" font-size="8.00">a60::metadata::hdenom</text>
</a>
</g>
</g>
<!-- Node3&#45;&gt;Node6 -->
<g id="edge9_Node000003_Node000006" class="edge">
<title>Node3&#45;&gt;Node6</title>
<g id="a_edge9_Node000003_Node000006"><a xlink:title=" ">
<path fill="none" stroke="#63b8ff" d="M425.82,-87.46C438.44,-90.99 452.1,-94.2 465,-96 508.11,-102.01 557.09,-100.46 595.15,-97.43"/>
<polygon fill="#63b8ff" stroke="#63b8ff" points="595.42,-100.92 605.08,-96.58 594.82,-93.95 595.42,-100.92"/>
</a>
</g>
</g>
<!-- Node7 -->
<g id="Node000007" class="node">
<title>Node7</title>
<g id="a_Node000007"><a xlink:href="namespacea60_1_1metadata.html#a2a619ed21560d442f5dfae5ea8101fce" target="_top" xlink:title="Distance between label and top/bottom of line or text.">
<polygon fill="white" stroke="#666666" points="712.25,-61 609.25,-61 609.25,-41 712.25,-41 712.25,-61"/>
<text text-anchor="middle" x="660.75" y="-49.4" font-family="SourceSans" font-size="8.00">a60::metadata::vlspace</text>
</a>
</g>
</g>
<!-- Node3&#45;&gt;Node7 -->
<g id="edge10_Node000003_Node000007" class="edge">
<title>Node3&#45;&gt;Node7</title>
<g id="a_edge10_Node000003_Node000007"><a xlink:title=" ">
<path fill="none" stroke="#63b8ff" d="M425.82,-54.54C438.44,-51.01 452.1,-47.8 465,-46 509.21,-39.84 559.59,-41.36 598.04,-44.28"/>
<polygon fill="#63b8ff" stroke="#63b8ff" points="597.3,-47.73 607.55,-45.06 597.86,-40.75 597.3,-47.73"/>
</a>
</g>
</g>
<!-- Node8 -->
<g id="Node000008" class="node">
<title>Node8</title>
<g id="a_Node000008"><a xlink:href="namespacea60_1_1metadata.html#a888d9b1e7402e335f8e7544373855a92" target="_top" xlink:title=" ">
<polygon fill="white" stroke="#666666" points="711.12,-20 610.38,-20 610.38,0 711.12,0 711.12,-20"/>
<text text-anchor="middle" x="660.75" y="-8.4" font-family="SourceSans" font-size="8.00">a60::metadata::vspace</text>
</a>
</g>
</g>
<!-- Node3&#45;&gt;Node8 -->
<g id="edge11_Node000003_Node000008" class="edge">
<title>Node3&#45;&gt;Node8</title>
<g id="a_edge11_Node000003_Node000008"><a xlink:title=" ">
<path fill="none" stroke="#63b8ff" d="M415.41,-54.54C430.62,-48.57 448.4,-42.25 465,-38 509.12,-26.7 560.11,-19.57 598.85,-15.34"/>
<polygon fill="#63b8ff" stroke="#63b8ff" points="598.86,-18.86 608.44,-14.33 598.13,-11.9 598.86,-18.86"/>
</a>
</g>
</g>
<!-- Node5&#45;&gt;Node4 -->
<g id="edge5_Node000005_Node000004" class="edge">
<title>Node5&#45;&gt;Node4</title>
<g id="a_edge5_Node000005_Node000004"><a xlink:title=" ">
<path fill="none" stroke="#63b8ff" d="M550.94,-87.34C570.73,-97.46 596.38,-110.58 617.8,-121.54"/>
<polygon fill="#63b8ff" stroke="#63b8ff" points="616.09,-124.6 626.59,-126.04 619.28,-118.37 616.09,-124.6"/>
</a>
</g>
</g>
<!-- Node5&#45;&gt;Node6 -->
<g id="edge6_Node000005_Node000006" class="edge">
<title>Node5&#45;&gt;Node6</title>
<g id="a_edge6_Node000005_Node000006"><a xlink:title=" ">
<path fill="none" stroke="#63b8ff" d="M571.41,-78.07C579.27,-79.14 587.46,-80.24 595.53,-81.33"/>
<polygon fill="#63b8ff" stroke="#63b8ff" points="594.95,-84.78 605.33,-82.65 595.88,-77.85 594.95,-84.78"/>
</a>
</g>
</g>
<!-- Node5&#45;&gt;Node7 -->
<g id="edge7_Node000005_Node000007" class="edge">
<title>Node5&#45;&gt;Node7</title>
<g id="a_edge7_Node000005_Node000007"><a xlink:title=" ">
<path fill="none" stroke="#63b8ff" d="M571.41,-63.55C580.09,-62.32 589.17,-61.03 598.05,-59.77"/>
<polygon fill="#63b8ff" stroke="#63b8ff" points="598.26,-63.27 607.67,-58.4 597.27,-56.34 598.26,-63.27"/>
</a>
</g>
</g>
<!-- Node5&#45;&gt;Node8 -->
<g id="edge8_Node000005_Node000008" class="edge">
<title>Node5&#45;&gt;Node8</title>
<g id="a_edge8_Node000005_Node000008"><a xlink:title=" ">
<path fill="none" stroke="#63b8ff" d="M555.74,-54.5C571.49,-47.48 590.11,-39.26 607,-32 612.44,-29.66 618.22,-27.21 623.87,-24.84"/>
<polygon fill="#63b8ff" stroke="#63b8ff" points="625.21,-28.07 633.08,-20.99 622.51,-21.62 625.21,-28.07"/>
</a>
</g>
</g>
</g>
</svg>
