<?xml version="1.0" encoding="UTF-8" standalone="no"?>
<!DOCTYPE svg PUBLIC "-//W3C//DTD SVG 1.1//EN"
 "http://www.w3.org/Graphics/SVG/1.1/DTD/svg11.dtd">
<!-- Generated by graphviz version 12.1.0 (20240811.2233)
 -->
<!-- Title: svg::to_string Pages: 1 -->
<svg width="212pt" height="104pt"
 viewBox="0.00 0.00 211.75 104.00" xmlns="http://www.w3.org/2000/svg" xmlns:xlink="http://www.w3.org/1999/xlink">
<g id="graph0" class="graph" transform="scale(1 1) rotate(0) translate(4 100)">
<title>svg::to_string</title>
<!-- Node1 -->
<g id="Node000001" class="node">
<title>Node1</title>
<g id="a_Node000001"><a xlink:title=" ">
<polygon fill="#999999" stroke="#666666" points="67,-58 0,-58 0,-38 67,-38 67,-58"/>
<text text-anchor="middle" x="33.5" y="-46.4" font-family="SourceSans" font-size="8.00">svg::to_string</text>
</a>
</g>
</g>
<!-- Node2 -->
<g id="Node000002" class="node">
<title>Node2</title>
<g id="a_Node000002"><a xlink:href="namespacesvg_1_1constants.html#a3972655f1dfdc090ec2592d1fb37e87c" target="_top" xlink:title=" ">
<polygon fill="white" stroke="#666666" points="201.88,-96 104.88,-96 104.88,-76 201.88,-76 201.88,-96"/>
<text text-anchor="middle" x="153.38" y="-84.4" font-family="SourceSans" font-size="8.00">svg::constants::quote</text>
</a>
</g>
</g>
<!-- Node1&#45;&gt;Node2 -->
<g id="edge1_Node000001_Node000002" class="edge">
<title>Node1&#45;&gt;Node2</title>
<g id="a_edge1_Node000001_Node000002"><a xlink:title=" ">
<path fill="none" stroke="#63b8ff" d="M67.02,-58.48C80.03,-62.68 95.21,-67.57 109.13,-72.06"/>
<polygon fill="#63b8ff" stroke="#63b8ff" points="107.93,-75.35 118.52,-75.09 110.07,-68.69 107.93,-75.35"/>
</a>
</g>
</g>
<!-- Node3 -->
<g id="Node000003" class="node">
<title>Node3</title>
<g id="a_Node000003"><a xlink:href="namespacesvg_1_1constants.html#ac460bc8db60d85c3ae1cf8b1a903405e" target="_top" xlink:title="Formatting character constants.">
<polygon fill="white" stroke="#666666" points="201.5,-58 105.25,-58 105.25,-38 201.5,-38 201.5,-58"/>
<text text-anchor="middle" x="153.38" y="-46.4" font-family="SourceSans" font-size="8.00">svg::constants::space</text>
</a>
</g>
</g>
<!-- Node1&#45;&gt;Node3 -->
<g id="edge2_Node000001_Node000003" class="edge">
<title>Node1&#45;&gt;Node3</title>
<g id="a_edge2_Node000001_Node000003"><a xlink:title=" ">
<path fill="none" stroke="#63b8ff" d="M67.33,-48C75.57,-48 84.66,-48 93.75,-48"/>
<polygon fill="#63b8ff" stroke="#63b8ff" points="93.67,-51.5 103.67,-48 93.67,-44.5 93.67,-51.5"/>
</a>
</g>
</g>
<!-- Node4 -->
<g id="Node000004" class="node">
<title>Node4</title>
<g id="a_Node000004"><a xlink:href="structsvg_1_1color__qi.html#a7cefe883889f6530d9d53cfcb6435b41" target="_top" xlink:title=" ">
<polygon fill="white" stroke="#666666" points="203.75,-20 103,-20 103,0 203.75,0 203.75,-20"/>
<text text-anchor="middle" x="153.38" y="-8.4" font-family="SourceSans" font-size="8.00">svg::color_qi::to_string</text>
</a>
</g>
</g>
<!-- Node1&#45;&gt;Node4 -->
<g id="edge3_Node000001_Node000004" class="edge">
<title>Node1&#45;&gt;Node4</title>
<g id="a_edge3_Node000001_Node000004"><a xlink:title=" ">
<path fill="none" stroke="#63b8ff" d="M67.02,-37.52C80.03,-33.32 95.21,-28.43 109.13,-23.94"/>
<polygon fill="#63b8ff" stroke="#63b8ff" points="110.07,-27.31 118.52,-20.91 107.93,-20.65 110.07,-27.31"/>
</a>
</g>
</g>
</g>
</svg>
