<?xml version="1.0" encoding="UTF-8" standalone="no"?>
<!DOCTYPE svg PUBLIC "-//W3C//DTD SVG 1.1//EN"
 "http://www.w3.org/Graphics/SVG/1.1/DTD/svg11.dtd">
<!-- Generated by graphviz version 12.1.0 (20240811.2233)
 -->
<!-- Title: svg::splay_ids_after Pages: 1 -->
<!--zoomable 368 -->

<svg id="main" version="1.1" xmlns="http://www.w3.org/2000/svg" xmlns:xlink="http://www.w3.org/1999/xlink" xml:space="preserve" onload="init(evt)">

<style type="text/css"><![CDATA[
.node, .edge {opacity: 0.7;}
.node.selected, .edge.selected {opacity: 1;}
.edge:hover path { stroke: red; }
.edge:hover polygon { stroke: red; fill: red; }
]]></style>

<defs>
  <circle id="rim" cx="0" cy="0" r="7"/>
  <circle id="rim2" cx="0" cy="0" r="3.5"/>
  <g id="zoomPlus">
    <use xlink:href="#rim" fill="#404040"><set attributeName="fill" to="#808080" begin="zoomplus.mouseover" end="zoomplus.mouseout"/></use>
    <path d="M-4,0h8M0,-4v8" fill="none" stroke="white" stroke-width="1.5" pointer-events="none"/>
  </g>
  <g id="zoomMin">
    <use xlink:href="#rim" fill="#404040"><set attributeName="fill" to="#808080" begin="zoomminus.mouseover" end="zoomminus.mouseout"/></use>
    <path d="M-4,0h8" fill="none" stroke="white" stroke-width="1.5" pointer-events="none"/>
  </g>
  <g id="arrowUp" transform="translate(30 24)">
    <use xlink:href="#rim"/>
    <path pointer-events="none" fill="none" stroke="white" stroke-width="1.5" d="M0,-3.0v7 M-2.5,-0.5L0,-3.0L2.5,-0.5"/>
  </g>
  <g id="arrowRight" transform="rotate(90) translate(36 -43)">
    <use xlink:href="#rim"/>
    <path pointer-events="none" fill="none" stroke="white" stroke-width="1.5" d="M0,-3.0v7 M-2.5,-0.5L0,-3.0L2.5,-0.5"/>
  </g>
  <g id="arrowDown" transform="rotate(180) translate(-30 -48)">
    <use xlink:href="#rim"/>
    <path pointer-events="none" fill="none" stroke="white" stroke-width="1.5" d="M0,-3.0v7 M-2.5,-0.5L0,-3.0L2.5,-0.5"/>
  </g>
  <g id="arrowLeft" transform="rotate(270) translate(-36 17)">
    <use xlink:href="#rim"/>
    <path pointer-events="none" fill="none" stroke="white" stroke-width="1.5" d="M0,-3.0v7 M-2.5,-0.5L0,-3.0L2.5,-0.5"/>
  </g>
  <g id="resetDef">
    <use xlink:href="#rim2" fill="#404040"><set attributeName="fill" to="#808080" begin="reset.mouseover" end="reset.mouseout"/></use>
  </g>
</defs>
<script type="application/ecmascript">
var viewWidth = 975;
var viewHeight = 368;
var sectionId = 'dynsection-76';
</script>
<script type="application/ecmascript" xlink:href="svg.min.js"/>
<svg id="graph" class="graph">
<g id="viewport">
<title>svg::splay_ids_after</title>
<!-- Node1 -->
<g id="Node000001" class="node">
<title>Node1</title>
<g id="a_Node000001"><a xlink:title="Spread ids past the origin point, along circumference path.">
<polygon fill="#999999" stroke="#666666" points="97,-89.75 0,-89.75 0,-72 97,-72 97,-89.75"/>
<text text-anchor="middle" x="48.5" y="-78.15" font-family="SourceSans" font-size="8.00">svg::splay_ids_after</text>
</a>
</g>
</g>
<!-- Node2 -->
<g id="Node000002" class="node">
<title>Node2</title>
<g id="a_Node000002"><a xlink:href="namespacesvg.html#a0a0dce44cf8a75daa516cdf9fade5a85" target="_top" xlink:title=" ">
<polygon fill="white" stroke="#666666" points="218,-89.75 133,-89.75 133,-72 218,-72 218,-89.75"/>
<text text-anchor="middle" x="175.5" y="-78.15" font-family="SourceSans" font-size="8.00">svg::radial_text_r</text>
</a>
</g>
</g>
<!-- Node1&#45;&gt;Node2 -->
<g id="edge1_Node000001_Node000002" class="edge">
<title>Node1&#45;&gt;Node2</title>
<g id="a_edge1_Node000001_Node000002"><a xlink:title=" ">
<path fill="none" stroke="#63b8ff" d="M97.47,-80.88C105.24,-80.88 113.33,-80.88 121.22,-80.88"/>
<polygon fill="#63b8ff" stroke="#63b8ff" points="121.06,-84.38 131.06,-80.88 121.06,-77.38 121.06,-84.38"/>
</a>
</g>
</g>
<!-- Node3 -->
<g id="Node000003" class="node">
<title>Node3</title>
<g id="a_Node000003"><a xlink:href="namespacesvg.html#ab44508c4aeca591141ebec50145b75cd" target="_top" xlink:title="Angle in degrees.">
<polygon fill="white" stroke="#666666" points="372.38,-171.62 261.12,-171.62 261.12,-144.12 372.38,-144.12 372.38,-171.62"/>
<text text-anchor="start" x="269.12" y="-160.03" font-family="SourceSans" font-size="8.00">svg::get_circumference</text>
<text text-anchor="middle" x="316.75" y="-150.28" font-family="SourceSans" font-size="8.00">_point_d</text>
</a>
</g>
</g>
<!-- Node2&#45;&gt;Node3 -->
<g id="edge2_Node000002_Node000003" class="edge">
<title>Node2&#45;&gt;Node3</title>
<g id="a_edge2_Node000002_Node000003"><a xlink:title=" ">
<path fill="none" stroke="#63b8ff" d="M187.73,-90.07C202.31,-101.68 228.87,-121.71 254,-134.88 256.85,-136.37 259.82,-137.81 262.85,-139.2"/>
<polygon fill="#63b8ff" stroke="#63b8ff" points="261.32,-142.35 271.89,-143.08 264.08,-135.92 261.32,-142.35"/>
</a>
</g>
</g>
<!-- Node6 -->
<g id="Node000006" class="node">
<title>Node6</title>
<g id="a_Node000006"><a xlink:href="namespacesvg.html#ae7eab6d9ce1f55bcbcc997cd24c5abcf" target="_top" xlink:title="Text with typography, arranged ccw around points (x,y) on a circle.">
<polygon fill="white" stroke="#666666" points="365.62,-125.75 267.88,-125.75 267.88,-108 365.62,-108 365.62,-125.75"/>
<text text-anchor="middle" x="316.75" y="-114.15" font-family="SourceSans" font-size="8.00">svg::radial_text_ccw</text>
</a>
</g>
</g>
<!-- Node2&#45;&gt;Node6 -->
<g id="edge5_Node000002_Node000006" class="edge">
<title>Node2&#45;&gt;Node6</title>
<g id="a_edge5_Node000002_Node000006"><a xlink:title=" ">
<path fill="none" stroke="#63b8ff" d="M212.72,-90.24C229.81,-94.66 250.41,-99.98 268.68,-104.71"/>
<polygon fill="#63b8ff" stroke="#63b8ff" points="267.69,-108.06 278.24,-107.18 269.44,-101.29 267.69,-108.06"/>
</a>
</g>
</g>
<!-- Node23 -->
<g id="Node000023" class="node">
<title>Node23</title>
<g id="a_Node000023"><a xlink:href="namespacesvg.html#a27b1041d0851178e4835e1f623a46161" target="_top" xlink:title="Text with typography, arranged cw around points (x,y) on a circle.">
<polygon fill="white" stroke="#666666" points="363.38,-89.75 270.12,-89.75 270.12,-72 363.38,-72 363.38,-89.75"/>
<text text-anchor="middle" x="316.75" y="-78.15" font-family="SourceSans" font-size="8.00">svg::radial_text_cw</text>
</a>
</g>
</g>
<!-- Node2&#45;&gt;Node23 -->
<g id="edge26_Node000002_Node000023" class="edge">
<title>Node2&#45;&gt;Node23</title>
<g id="a_edge26_Node000002_Node000023"><a xlink:title=" ">
<path fill="none" stroke="#63b8ff" d="M218.28,-80.88C231.05,-80.88 245.31,-80.88 258.9,-80.88"/>
<polygon fill="#63b8ff" stroke="#63b8ff" points="258.6,-84.38 268.6,-80.88 258.6,-77.38 258.6,-84.38"/>
</a>
</g>
</g>
<!-- Node24 -->
<g id="Node000024" class="node">
<title>Node24</title>
<g id="a_Node000024"><a xlink:href="namespacesvg.html#a010fea242a289d173d521b501140cd72" target="_top" xlink:title="Zero degrees is top, going clockwise (cw).">
<polygon fill="white" stroke="#666666" points="379.5,-53.75 254,-53.75 254,-36 379.5,-36 379.5,-53.75"/>
<text text-anchor="middle" x="316.75" y="-42.15" font-family="SourceSans" font-size="8.00">svg::zero_angle_north_ccw</text>
</a>
</g>
</g>
<!-- Node2&#45;&gt;Node24 -->
<g id="edge28_Node000002_Node000024" class="edge">
<title>Node2&#45;&gt;Node24</title>
<g id="a_edge28_Node000002_Node000024"><a xlink:title=" ">
<path fill="none" stroke="#63b8ff" d="M212.72,-71.51C229.81,-67.09 250.41,-61.77 268.68,-57.04"/>
<polygon fill="#63b8ff" stroke="#63b8ff" points="269.44,-60.46 278.24,-54.57 267.69,-53.69 269.44,-60.46"/>
</a>
</g>
</g>
<!-- Node25 -->
<g id="Node000025" class="node">
<title>Node25</title>
<g id="a_Node000025"><a xlink:href="namespacesvg.html#a46164d75fd5109e4ed8879abbacd5c11" target="_top" xlink:title="Zero degrees is top, going clockwise (cw).">
<polygon fill="white" stroke="#666666" points="377.25,-17.75 256.25,-17.75 256.25,0 377.25,0 377.25,-17.75"/>
<text text-anchor="middle" x="316.75" y="-6.15" font-family="SourceSans" font-size="8.00">svg::zero_angle_north_cw</text>
</a>
</g>
</g>
<!-- Node2&#45;&gt;Node25 -->
<g id="edge29_Node000002_Node000025" class="edge">
<title>Node2&#45;&gt;Node25</title>
<g id="a_edge29_Node000002_Node000025"><a xlink:title=" ">
<path fill="none" stroke="#63b8ff" d="M187.34,-71.59C201.71,-59.71 228.26,-39.19 254,-26.88 257.75,-25.08 261.71,-23.43 265.74,-21.92"/>
<polygon fill="#63b8ff" stroke="#63b8ff" points="266.74,-25.28 275.06,-18.72 264.47,-18.66 266.74,-25.28"/>
</a>
</g>
</g>
<!-- Node4 -->
<g id="Node000004" class="node">
<title>Node4</title>
<g id="a_Node000004"><a xlink:href="namespacesvg.html#aef05ac63d88a6102981d3faf37275297" target="_top" xlink:title="Angle in radians.">
<polygon fill="white" stroke="#666666" points="526.75,-200.62 415.5,-200.62 415.5,-173.12 526.75,-173.12 526.75,-200.62"/>
<text text-anchor="start" x="423.5" y="-189.03" font-family="SourceSans" font-size="8.00">svg::get_circumference</text>
<text text-anchor="middle" x="471.12" y="-179.28" font-family="SourceSans" font-size="8.00">_point_r</text>
</a>
</g>
</g>
<!-- Node3&#45;&gt;Node4 -->
<g id="edge3_Node000003_Node000004" class="edge">
<title>Node3&#45;&gt;Node4</title>
<g id="a_edge3_Node000003_Node000004"><a xlink:title=" ">
<path fill="none" stroke="#63b8ff" d="M372.76,-168.34C382.9,-170.27 393.59,-172.31 404.02,-174.29"/>
<polygon fill="#63b8ff" stroke="#63b8ff" points="403.23,-177.71 413.71,-176.14 404.54,-170.83 403.23,-177.71"/>
</a>
</g>
</g>
<!-- Node5 -->
<g id="Node000005" class="node">
<title>Node5</title>
<g id="a_Node000005"><a xlink:href="namespacesvg_1_1constants.html#a0e0b0d9314bc47324ee39884bf8bb2fd" target="_top" xlink:title=" ">
<polygon fill="white" stroke="#666666" points="516.25,-154.75 426,-154.75 426,-137 516.25,-137 516.25,-154.75"/>
<text text-anchor="middle" x="471.12" y="-143.15" font-family="SourceSans" font-size="8.00">svg::constants::pi</text>
</a>
</g>
</g>
<!-- Node3&#45;&gt;Node5 -->
<g id="edge4_Node000003_Node000005" class="edge">
<title>Node3&#45;&gt;Node5</title>
<g id="a_edge4_Node000003_Node000005"><a xlink:title=" ">
<path fill="none" stroke="#63b8ff" d="M372.76,-153.54C386.35,-152.47 400.91,-151.33 414.52,-150.25"/>
<polygon fill="#63b8ff" stroke="#63b8ff" points="414.49,-153.77 424.18,-149.49 413.94,-146.79 414.49,-153.77"/>
</a>
</g>
</g>
<!-- Node7 -->
<g id="Node000007" class="node">
<title>Node7</title>
<g id="a_Node000007"><a xlink:href="namespacesvg.html#a5791c1fc9121f01e5f666b7ce0367dfa" target="_top" xlink:title="Text at @origin, with style and ... a transformation=rotation of @deg about @rorigin.">
<polygon fill="white" stroke="#666666" points="514.38,-107.75 427.88,-107.75 427.88,-90 514.38,-90 514.38,-107.75"/>
<text text-anchor="middle" x="471.12" y="-96.15" font-family="SourceSans" font-size="8.00">svg::styled_text_r</text>
</a>
</g>
</g>
<!-- Node6&#45;&gt;Node7 -->
<g id="edge6_Node000006_Node000007" class="edge">
<title>Node6&#45;&gt;Node7</title>
<g id="a_edge6_Node000006_Node000007"><a xlink:title=" ">
<path fill="none" stroke="#63b8ff" d="M365.96,-111.18C381.97,-109.29 399.9,-107.17 416.3,-105.23"/>
<polygon fill="#63b8ff" stroke="#63b8ff" points="416.35,-108.75 425.87,-104.1 415.53,-101.8 416.35,-108.75"/>
</a>
</g>
</g>
<!-- Node8 -->
<g id="Node000008" class="node">
<title>Node8</title>
<g id="a_Node000008"><a xlink:href="group__elements.html#aad29e1daf75bdcd69a39575a6807fa0f" target="_top" xlink:title="Either serialize immediately (as below), or create data structure that adds data to data_vec and then...">
<polygon fill="white" stroke="#666666" points="665,-263.62 570.25,-263.62 570.25,-236.12 665,-236.12 665,-263.62"/>
<text text-anchor="start" x="578.25" y="-252.03" font-family="SourceSans" font-size="8.00">svg::text_element::</text>
<text text-anchor="middle" x="617.62" y="-242.28" font-family="SourceSans" font-size="8.00">add_data</text>
</a>
</g>
</g>
<!-- Node7&#45;&gt;Node8 -->
<g id="edge7_Node000007_Node000008" class="edge">
<title>Node7&#45;&gt;Node8</title>
<g id="a_edge7_Node000007_Node000008"><a xlink:title=" ">
<path fill="none" stroke="#63b8ff" d="M495.08,-108.23C505.43,-113.14 517.4,-119.81 526.75,-127.88 544.36,-143.07 580.54,-195.5 601.22,-226.46"/>
<polygon fill="#63b8ff" stroke="#63b8ff" points="598.06,-228.03 606.51,-234.43 603.89,-224.16 598.06,-228.03"/>
</a>
</g>
</g>
<!-- Node17 -->
<g id="Node000017" class="node">
<title>Node17</title>
<g id="a_Node000017"><a xlink:href="group__elements.html#adb6116b96467cc39cb178deb10c7a869" target="_top" xlink:title=" ">
<polygon fill="white" stroke="#666666" points="672.5,-158.62 562.75,-158.62 562.75,-131.12 672.5,-131.12 672.5,-158.62"/>
<text text-anchor="start" x="570.75" y="-147.03" font-family="SourceSans" font-size="8.00">svg::svg_element::add</text>
<text text-anchor="middle" x="617.62" y="-137.28" font-family="SourceSans" font-size="8.00">_element</text>
</a>
</g>
</g>
<!-- Node7&#45;&gt;Node17 -->
<g id="edge20_Node000007_Node000017" class="edge">
<title>Node7&#45;&gt;Node17</title>
<g id="a_edge20_Node000007_Node000017"><a xlink:title=" ">
<path fill="none" stroke="#63b8ff" d="M501.37,-108.18C518.56,-113.66 540.87,-120.76 561.27,-127.25"/>
<polygon fill="#63b8ff" stroke="#63b8ff" points="560.02,-130.53 570.61,-130.23 562.14,-123.86 560.02,-130.53"/>
</a>
</g>
</g>
<!-- Node19 -->
<g id="Node000019" class="node">
<title>Node19</title>
<g id="a_Node000019"><a xlink:href="group__elements.html#ga13c46848317034d16c62a7d2061ba3d6" target="_top" xlink:title=" ">
<polygon fill="white" stroke="#666666" points="665,-112.62 570.25,-112.62 570.25,-85.12 665,-85.12 665,-112.62"/>
<text text-anchor="start" x="578.25" y="-101.03" font-family="SourceSans" font-size="8.00">svg::text_element::</text>
<text text-anchor="middle" x="617.62" y="-91.28" font-family="SourceSans" font-size="8.00">finish_element</text>
</a>
</g>
</g>
<!-- Node7&#45;&gt;Node19 -->
<g id="edge22_Node000007_Node000019" class="edge">
<title>Node7&#45;&gt;Node19</title>
<g id="a_edge22_Node000007_Node000019"><a xlink:title=" ">
<path fill="none" stroke="#63b8ff" d="M514.7,-98.88C528.36,-98.88 543.74,-98.88 558.33,-98.88"/>
<polygon fill="#63b8ff" stroke="#63b8ff" points="558.3,-102.38 568.3,-98.88 558.3,-95.38 558.3,-102.38"/>
</a>
</g>
</g>
<!-- Node21 -->
<g id="Node000021" class="node">
<title>Node21</title>
<g id="a_Node000021"><a xlink:href="structsvg_1_1transform.html#acf9836f4ba647f0dd2b53963a0f714d0" target="_top" xlink:title=" ">
<polygon fill="white" stroke="#666666" points="670.62,-66.75 564.62,-66.75 564.62,-49 670.62,-49 670.62,-66.75"/>
<text text-anchor="middle" x="617.62" y="-55.15" font-family="SourceSans" font-size="8.00">svg::transform::rotate</text>
</a>
</g>
</g>
<!-- Node7&#45;&gt;Node21 -->
<g id="edge24_Node000007_Node000021" class="edge">
<title>Node7&#45;&gt;Node21</title>
<g id="a_edge24_Node000007_Node000021"><a xlink:title=" ">
<path fill="none" stroke="#63b8ff" d="M504.91,-89.57C524.98,-83.88 550.91,-76.52 572.73,-70.33"/>
<polygon fill="#63b8ff" stroke="#63b8ff" points="573.59,-73.72 582.26,-67.63 571.68,-66.99 573.59,-73.72"/>
</a>
</g>
</g>
<!-- Node22 -->
<g id="Node000022" class="node">
<title>Node22</title>
<g id="a_Node000022"><a xlink:href="group__elements.html#ae45bec611a6ec17ea46aab6d680ae042" target="_top" xlink:title=" ">
<polygon fill="white" stroke="#666666" points="665,-30.62 570.25,-30.62 570.25,-3.13 665,-3.13 665,-30.62"/>
<text text-anchor="start" x="578.25" y="-19.02" font-family="SourceSans" font-size="8.00">svg::text_element::</text>
<text text-anchor="middle" x="617.62" y="-9.28" font-family="SourceSans" font-size="8.00">start_element</text>
</a>
</g>
</g>
<!-- Node7&#45;&gt;Node22 -->
<g id="edge25_Node000007_Node000022" class="edge">
<title>Node7&#45;&gt;Node22</title>
<g id="a_edge25_Node000007_Node000022"><a xlink:title=" ">
<path fill="none" stroke="#63b8ff" d="M484.9,-89.54C502.06,-77.24 533.77,-55.35 562.75,-39.88 565.26,-38.53 567.87,-37.21 570.52,-35.92"/>
<polygon fill="#63b8ff" stroke="#63b8ff" points="571.9,-39.14 579.49,-31.75 568.94,-32.79 571.9,-39.14"/>
</a>
</g>
</g>
<!-- Node9 -->
<g id="Node000009" class="node">
<title>Node9</title>
<g id="a_Node000009"><a xlink:href="structsvg_1_1typography.html#adbc62f74f1fed3f7c77567250f084f83" target="_top" xlink:title=" ">
<polygon fill="white" stroke="#666666" points="817.88,-286.62 714.12,-286.62 714.12,-259.12 817.88,-259.12 817.88,-286.62"/>
<text text-anchor="start" x="722.12" y="-275.02" font-family="SourceSans" font-size="8.00">svg::typography::add</text>
<text text-anchor="middle" x="766" y="-265.27" font-family="SourceSans" font-size="8.00">_attribute</text>
</a>
</g>
</g>
<!-- Node8&#45;&gt;Node9 -->
<g id="edge8_Node000008_Node000009" class="edge">
<title>Node8&#45;&gt;Node9</title>
<g id="a_edge8_Node000008_Node000009"><a xlink:title=" ">
<path fill="none" stroke="#63b8ff" d="M665.34,-257.22C677.13,-259.07 689.97,-261.09 702.4,-263.04"/>
<polygon fill="#63b8ff" stroke="#63b8ff" points="701.74,-266.48 712.16,-264.57 702.83,-259.56 701.74,-266.48"/>
</a>
</g>
</g>
<!-- Node12 -->
<g id="Node000012" class="node">
<title>Node12</title>
<g id="a_Node000012"><a xlink:href="namespacesvg.html#a48ac748e89e22789d1772326a98dd7b6" target="_top" xlink:title=" ">
<polygon fill="white" stroke="#666666" points="959.88,-359.75 866.62,-359.75 866.62,-342 959.88,-342 959.88,-359.75"/>
<text text-anchor="middle" x="913.25" y="-348.15" font-family="SourceSans" font-size="8.00">svg::string_replace</text>
</a>
</g>
</g>
<!-- Node8&#45;&gt;Node12 -->
<g id="edge18_Node000008_Node000012" class="edge">
<title>Node8&#45;&gt;Node12</title>
<g id="a_edge18_Node000008_Node000012"><a xlink:title=" ">
<path fill="none" stroke="#63b8ff" d="M632.42,-264.11C648.91,-280.2 678.13,-305.85 708.5,-318.88 755.27,-338.94 812.92,-346.59 854.94,-349.42"/>
<polygon fill="#63b8ff" stroke="#63b8ff" points="854.66,-352.91 864.85,-350.01 855.07,-345.93 854.66,-352.91"/>
</a>
</g>
</g>
<!-- Node13 -->
<g id="Node000013" class="node">
<title>Node13</title>
<g id="a_Node000013"><a xlink:href="namespacesvg.html#a36b1c48ad4601b205790e3772ad0a7b6" target="_top" xlink:title=" ">
<polygon fill="white" stroke="#666666" points="949,-322.75 877.5,-322.75 877.5,-305 949,-305 949,-322.75"/>
<text text-anchor="middle" x="913.25" y="-311.15" font-family="SourceSans" font-size="8.00">svg::to_string</text>
</a>
</g>
</g>
<!-- Node8&#45;&gt;Node13 -->
<g id="edge19_Node000008_Node000013" class="edge">
<title>Node8&#45;&gt;Node13</title>
<g id="a_edge19_Node000008_Node000013"><a xlink:title=" ">
<path fill="none" stroke="#63b8ff" d="M640.16,-263.91C657.78,-274.63 683.74,-288.74 708.5,-295.88 760.94,-310.99 823.85,-314.44 865.76,-314.79"/>
<polygon fill="#63b8ff" stroke="#63b8ff" points="865.74,-318.29 875.75,-314.81 865.76,-311.29 865.74,-318.29"/>
</a>
</g>
</g>
<!-- Node15 -->
<g id="Node000015" class="node">
<title>Node15</title>
<g id="a_Node000015"><a xlink:href="group__elements.html#a1ed006cabdb9c531c2bd8e27ea9e0966" target="_top" xlink:title=" ">
<polygon fill="white" stroke="#666666" points="813.38,-240.62 718.62,-240.62 718.62,-213.12 813.38,-213.12 813.38,-240.62"/>
<text text-anchor="start" x="726.62" y="-229.03" font-family="SourceSans" font-size="8.00">svg::text_element::</text>
<text text-anchor="middle" x="766" y="-219.28" font-family="SourceSans" font-size="8.00">add_text</text>
</a>
</g>
</g>
<!-- Node8&#45;&gt;Node15 -->
<g id="edge14_Node000008_Node000015" class="edge">
<title>Node8&#45;&gt;Node15</title>
<g id="a_edge14_Node000008_Node000015"><a xlink:title=" ">
<path fill="none" stroke="#63b8ff" d="M665.34,-242.53C678.55,-240.46 693.08,-238.18 706.86,-236.01"/>
<polygon fill="#63b8ff" stroke="#63b8ff" points="707.39,-239.47 716.73,-234.46 706.31,-232.55 707.39,-239.47"/>
</a>
</g>
</g>
<!-- Node16 -->
<g id="Node000016" class="node">
<title>Node16</title>
<g id="a_Node000016"><a xlink:href="group__elements.html#a53d72a7ff728ad1d4d027254530bcf3d" target="_top" xlink:title="Common transforms include rotate(180)">
<polygon fill="white" stroke="#666666" points="816,-194.62 716,-194.62 716,-167.12 816,-167.12 816,-194.62"/>
<text text-anchor="start" x="724" y="-183.03" font-family="SourceSans" font-size="8.00">svg::element_base::</text>
<text text-anchor="middle" x="766" y="-173.28" font-family="SourceSans" font-size="8.00">add_transform</text>
</a>
</g>
</g>
<!-- Node8&#45;&gt;Node16 -->
<g id="edge15_Node000008_Node000016" class="edge">
<title>Node8&#45;&gt;Node16</title>
<g id="a_edge15_Node000008_Node000016"><a xlink:title=" ">
<path fill="none" stroke="#63b8ff" d="M644.68,-235.78C662.47,-226.35 686.67,-213.88 708.5,-203.88 711.77,-202.37 715.17,-200.87 718.61,-199.38"/>
<polygon fill="#63b8ff" stroke="#63b8ff" points="719.69,-202.72 727.54,-195.6 716.97,-196.28 719.69,-202.72"/>
</a>
</g>
</g>
<!-- Node10 -->
<g id="Node000010" class="node">
<title>Node10</title>
<g id="a_Node000010"><a xlink:href="namespacesvg_1_1constants.html#a3972655f1dfdc090ec2592d1fb37e87c" target="_top" xlink:title=" ">
<polygon fill="white" stroke="#666666" points="966.62,-193.75 859.88,-193.75 859.88,-176 966.62,-176 966.62,-193.75"/>
<text text-anchor="middle" x="913.25" y="-182.15" font-family="SourceSans" font-size="8.00">svg::constants::quote</text>
</a>
</g>
</g>
<!-- Node9&#45;&gt;Node10 -->
<g id="edge9_Node000009_Node000010" class="edge">
<title>Node9&#45;&gt;Node10</title>
<g id="a_edge9_Node000009_Node000010"><a xlink:title=" ">
<path fill="none" stroke="#63b8ff" d="M808.28,-258.65C813.6,-256.09 818.82,-253.16 823.5,-249.88 843.07,-236.13 840.32,-224.16 859.5,-209.88 864.91,-205.84 871.08,-202.21 877.25,-199.05"/>
<polygon fill="#63b8ff" stroke="#63b8ff" points="878.59,-202.29 886.12,-194.84 875.58,-195.97 878.59,-202.29"/>
</a>
</g>
</g>
<!-- Node11 -->
<g id="Node000011" class="node">
<title>Node11</title>
<g id="a_Node000011"><a xlink:href="namespacesvg_1_1constants.html#ac460bc8db60d85c3ae1cf8b1a903405e" target="_top" xlink:title="Formatting character constants.">
<polygon fill="white" stroke="#666666" points="967,-236.75 859.5,-236.75 859.5,-219 967,-219 967,-236.75"/>
<text text-anchor="middle" x="913.25" y="-225.15" font-family="SourceSans" font-size="8.00">svg::constants::space</text>
</a>
</g>
</g>
<!-- Node9&#45;&gt;Node11 -->
<g id="edge10_Node000009_Node000011" class="edge">
<title>Node9&#45;&gt;Node11</title>
<g id="a_edge10_Node000009_Node000011"><a xlink:title=" ">
<path fill="none" stroke="#63b8ff" d="M812.96,-258.64C831.68,-252.84 853.15,-246.19 871.32,-240.56"/>
<polygon fill="#63b8ff" stroke="#63b8ff" points="872.19,-243.95 880.71,-237.65 870.12,-237.26 872.19,-243.95"/>
</a>
</g>
</g>
<!-- Node9&#45;&gt;Node12 -->
<g id="edge11_Node000009_Node000012" class="edge">
<title>Node9&#45;&gt;Node12</title>
<g id="a_edge11_Node000009_Node000012"><a xlink:title=" ">
<path fill="none" stroke="#63b8ff" d="M786.46,-287.1C804.68,-299.97 833,-318.85 859.5,-331.88 863.51,-333.85 867.78,-335.72 872.09,-337.47"/>
<polygon fill="#63b8ff" stroke="#63b8ff" points="870.75,-340.71 881.34,-341.01 873.25,-334.17 870.75,-340.71"/>
</a>
</g>
</g>
<!-- Node9&#45;&gt;Node13 -->
<g id="edge12_Node000009_Node000013" class="edge">
<title>Node9&#45;&gt;Node13</title>
<g id="a_edge12_Node000009_Node000013"><a xlink:title=" ">
<path fill="none" stroke="#63b8ff" d="M817.39,-287.1C834.04,-291.8 852.4,-296.98 868.51,-301.53"/>
<polygon fill="#63b8ff" stroke="#63b8ff" points="867.22,-304.8 877.79,-304.15 869.12,-298.06 867.22,-304.8"/>
</a>
</g>
</g>
<!-- Node14 -->
<g id="Node000014" class="node">
<title>Node14</title>
<g id="a_Node000014"><a xlink:href="structsvg_1_1typography.html#a174c1ffb4e56214d71523ffe7e422561" target="_top" xlink:title=" ">
<polygon fill="white" stroke="#666666" points="961.38,-286.62 865.12,-286.62 865.12,-259.12 961.38,-259.12 961.38,-286.62"/>
<text text-anchor="start" x="873.12" y="-275.02" font-family="SourceSans" font-size="8.00">svg::typography::to</text>
<text text-anchor="middle" x="913.25" y="-265.27" font-family="SourceSans" font-size="8.00">_string</text>
</a>
</g>
</g>
<!-- Node9&#45;&gt;Node14 -->
<g id="edge13_Node000009_Node000014" class="edge">
<title>Node9&#45;&gt;Node14</title>
<g id="a_edge13_Node000009_Node000014"><a xlink:title=" ">
<path fill="none" stroke="#63b8ff" d="M818.21,-272.88C829.6,-272.88 841.77,-272.88 853.44,-272.88"/>
<polygon fill="#63b8ff" stroke="#63b8ff" points="853.39,-276.38 863.39,-272.88 853.39,-269.38 853.39,-276.38"/>
</a>
</g>
</g>
<!-- Node16&#45;&gt;Node10 -->
<g id="edge16_Node000016_Node000010" class="edge">
<title>Node16&#45;&gt;Node10</title>
<g id="a_edge16_Node000016_Node000010"><a xlink:title=" ">
<path fill="none" stroke="#63b8ff" d="M816.18,-182.23C826.39,-182.51 837.3,-182.81 847.96,-183.1"/>
<polygon fill="#63b8ff" stroke="#63b8ff" points="847.79,-186.6 857.88,-183.38 847.98,-179.6 847.79,-186.6"/>
</a>
</g>
</g>
<!-- Node16&#45;&gt;Node11 -->
<g id="edge17_Node000016_Node000011" class="edge">
<title>Node16&#45;&gt;Node11</title>
<g id="a_edge17_Node000016_Node000011"><a xlink:title=" ">
<path fill="none" stroke="#63b8ff" d="M810.97,-195.1C830.66,-201.47 853.68,-208.92 872.8,-215.11"/>
<polygon fill="#63b8ff" stroke="#63b8ff" points="871.52,-218.38 882.11,-218.12 873.68,-211.72 871.52,-218.38"/>
</a>
</g>
</g>
<!-- Node18 -->
<g id="Node000018" class="node">
<title>Node18</title>
<g id="a_Node000018"><a xlink:href="group__elements.html#a99ff90a016db190ee8bb5ee8c045e329" target="_top" xlink:title=" ">
<polygon fill="white" stroke="#666666" points="821.25,-148.75 710.75,-148.75 710.75,-131 821.25,-131 821.25,-148.75"/>
<text text-anchor="middle" x="766" y="-137.15" font-family="SourceSans" font-size="8.00">svg::element_base::str</text>
</a>
</g>
</g>
<!-- Node17&#45;&gt;Node18 -->
<g id="edge21_Node000017_Node000018" class="edge">
<title>Node17&#45;&gt;Node18</title>
<g id="a_edge21_Node000017_Node000018"><a xlink:title=" ">
<path fill="none" stroke="#63b8ff" d="M672.71,-143.03C681.32,-142.73 690.31,-142.43 699.15,-142.12"/>
<polygon fill="#63b8ff" stroke="#63b8ff" points="699.26,-145.62 709.13,-141.78 699.02,-138.63 699.26,-145.62"/>
</a>
</g>
</g>
<!-- Node20 -->
<g id="Node000020" class="node">
<title>Node20</title>
<g id="a_Node000020"><a xlink:href="namespacesvg_1_1constants.html#aa7f04c2ea699a1b1e2e790de5ac33f38" target="_top" xlink:title=" ">
<polygon fill="white" stroke="#666666" points="823.5,-107.75 708.5,-107.75 708.5,-90 823.5,-90 823.5,-107.75"/>
<text text-anchor="middle" x="766" y="-96.15" font-family="SourceSans" font-size="8.00">svg::constants::newline</text>
</a>
</g>
</g>
<!-- Node19&#45;&gt;Node20 -->
<g id="edge23_Node000019_Node000020" class="edge">
<title>Node19&#45;&gt;Node20</title>
<g id="a_edge23_Node000019_Node000020"><a xlink:title=" ">
<path fill="none" stroke="#63b8ff" d="M665.34,-98.88C675.36,-98.88 686.14,-98.88 696.78,-98.88"/>
<polygon fill="#63b8ff" stroke="#63b8ff" points="696.71,-102.38 706.71,-98.88 696.71,-95.38 696.71,-102.38"/>
</a>
</g>
</g>
<!-- Node23&#45;&gt;Node7 -->
<g id="edge27_Node000023_Node000007" class="edge">
<title>Node23&#45;&gt;Node7</title>
<g id="a_edge27_Node000023_Node000007"><a xlink:title=" ">
<path fill="none" stroke="#63b8ff" d="M363.47,-86.28C380.15,-88.25 399.17,-90.49 416.48,-92.54"/>
<polygon fill="#63b8ff" stroke="#63b8ff" points="415.72,-95.97 426.06,-93.67 416.54,-89.02 415.72,-95.97"/>
</a>
</g>
</g>
</g>
</svg>

<g id="navigator" transform="translate(0 0)" fill="#404254">
  <rect fill="#f2f5e9" fill-opacity="0.5" stroke="#606060" stroke-width=".5" x="0" y="0" width="60" height="60"/>
  <use id="zoomplus" xlink:href="#zoomPlus" x="17" y="9" onmousedown="handleZoom(evt,'in')"/>
  <use id="zoomminus" xlink:href="#zoomMin" x="42" y="9" onmousedown="handleZoom(evt,'out')"/>
  <use id="reset" xlink:href="#resetDef" x="30" y="36" onmousedown="handleReset()"/>
   <use id="arrowup" xlink:href="#arrowUp" x="0" y="0" onmousedown="handlePan(0,-1)"/>
  <use id="arrowright" xlink:href="#arrowRight" x="0" y="0" onmousedown="handlePan(1,0)"/>
  <use id="arrowdown" xlink:href="#arrowDown" x="0" y="0" onmousedown="handlePan(0,1)"/>
  <use id="arrowleft" xlink:href="#arrowLeft" x="0" y="0" onmousedown="handlePan(-1,0)"/>
</g>
<svg viewBox="0 0 15 15" width="100%" height="30px" preserveAspectRatio="xMaxYMin meet">
 <g id="arrow_out" transform="scale(0.3 0.3)">
  <a xlink:href="namespacesvg_a8f48a6909f52b54cf4a3bfce5e27b59c_cgraph_org.svg" target="_base">
   <rect id="button" ry="5" rx="5" y="6" x="6" height="38" width="38"
        fill="#f2f5e9" fill-opacity="0.5" stroke="#606060" stroke-width="1.0"/>
   <path id="arrow"
     d="M 11.500037,31.436501 C 11.940474,20.09759 22.043105,11.32322 32.158766,21.979434 L 37.068811,17.246167 C 37.068811,17.246167 37.088388,32 37.088388,32 L 22.160133,31.978069 C 22.160133,31.978069 26.997745,27.140456 26.997745,27.140456 C 18.528582,18.264221 13.291696,25.230495 11.500037,31.436501 z"
     style="fill:#404040;"/>
  </a>
 </g>
</svg>

<style type='text/css'>
<![CDATA[
[data-mouse-over-selected='false'] { opacity: 0.7; }
[data-mouse-over-selected='true']  { opacity: 1.0; }
]]>
</style>
<script type="application/ecmascript"><![CDATA[
document.addEventListener('DOMContentLoaded', (event) => {
  highlightEdges();
  highlightAdjacentNodes();
});
]]></script>
</svg>
