<?xml version="1.0" encoding="UTF-8" standalone="no"?>
<!DOCTYPE svg PUBLIC "-//W3C//DTD SVG 1.1//EN"
 "http://www.w3.org/Graphics/SVG/1.1/DTD/svg11.dtd">
<!-- Generated by graphviz version 12.2.1 (20241206.2353)
 -->
<!-- Title: svg::make_line_graph_annotations Pages: 1 -->
<svg width="767pt" height="448pt"
 viewBox="0.00 0.00 767.00 448.00" xmlns="http://www.w3.org/2000/svg" xmlns:xlink="http://www.w3.org/1999/xlink">
<g id="graph0" class="graph" transform="scale(1 1) rotate(0) translate(4 444)">
<title>svg::make_line_graph_annotations</title>
<!-- Node1 -->
<g id="Node000001" class="node">
<title>Node1</title>
<g id="a_Node000001"><a xlink:title="Axis Labels Axis X/Y Ticmarks X line increments.">
<polygon fill="#999999" stroke="#666666" points="99.25,-195 0,-195 0,-163 99.25,-163 99.25,-195"/>
<text text-anchor="start" x="8" y="-183.4" font-family="SourceSans" font-size="8.00">svg::make_line_graph</text>
<text text-anchor="middle" x="49.62" y="-171.4" font-family="SourceSans" font-size="8.00">_annotations</text>
</a>
</g>
</g>
<!-- Node2 -->
<g id="Node000002" class="node">
<title>Node2</title>
<g id="a_Node000002"><a xlink:href="group__elements.html#ada0333b46b2547c6152f3f5811016a12" target="_top" xlink:title=" ">
<polygon fill="white" stroke="#666666" points="365.25,-346 274.25,-346 274.25,-314 365.25,-314 365.25,-346"/>
<text text-anchor="start" x="282.25" y="-334.4" font-family="SourceSans" font-size="8.00">svg::element_base::</text>
<text text-anchor="middle" x="319.75" y="-322.4" font-family="SourceSans" font-size="8.00">add_element</text>
</a>
</g>
</g>
<!-- Node1&#45;&gt;Node2 -->
<g id="edge1_Node000001_Node000002" class="edge">
<title>Node1&#45;&gt;Node2</title>
<g id="a_edge1_Node000001_Node000002"><a xlink:title=" ">
<path fill="none" stroke="#63b8ff" d="M56.47,-195.4C67.28,-223.13 93.21,-278.8 135.25,-305 173.25,-328.68 224.2,-334 262.78,-333.92"/>
<polygon fill="#63b8ff" stroke="#63b8ff" points="262.35,-337.43 272.3,-333.78 262.25,-330.43 262.35,-337.43"/>
</a>
</g>
</g>
<!-- Node4 -->
<g id="Node000004" class="node">
<title>Node4</title>
<g id="a_Node000004"><a xlink:href="group__elements.html#acafbdd950c6c2639c9d376c3eab696e5" target="_top" xlink:title=" ">
<polygon fill="white" stroke="#666666" points="232.25,-220 141.25,-220 141.25,-188 232.25,-188 232.25,-220"/>
<text text-anchor="start" x="149.25" y="-208.4" font-family="SourceSans" font-size="8.00">svg::element_base::</text>
<text text-anchor="middle" x="186.75" y="-196.4" font-family="SourceSans" font-size="8.00">add_raw</text>
</a>
</g>
</g>
<!-- Node1&#45;&gt;Node4 -->
<g id="edge3_Node000001_Node000004" class="edge">
<title>Node1&#45;&gt;Node4</title>
<g id="a_edge3_Node000001_Node000004"><a xlink:title=" ">
<path fill="none" stroke="#63b8ff" d="M99.41,-188.03C109.29,-189.85 119.76,-191.79 129.87,-193.66"/>
<polygon fill="#63b8ff" stroke="#63b8ff" points="129.13,-197.08 139.6,-195.46 130.4,-190.2 129.13,-197.08"/>
</a>
</g>
</g>
<!-- Node5 -->
<g id="Node000005" class="node">
<title>Node5</title>
<g id="a_Node000005"><a xlink:href="group__elements.html#a71cf2eb89a562527f14c4ca4c027c2b9" target="_top" xlink:title=" ">
<polygon fill="white" stroke="#666666" points="232.62,-170 140.88,-170 140.88,-138 232.62,-138 232.62,-170"/>
<text text-anchor="start" x="148.88" y="-158.4" font-family="SourceSans" font-size="8.00">svg::group_element</text>
<text text-anchor="middle" x="186.75" y="-146.4" font-family="SourceSans" font-size="8.00">::finish_group</text>
</a>
</g>
</g>
<!-- Node1&#45;&gt;Node5 -->
<g id="edge4_Node000001_Node000005" class="edge">
<title>Node1&#45;&gt;Node5</title>
<g id="a_edge4_Node000001_Node000005"><a xlink:title=" ">
<path fill="none" stroke="#63b8ff" d="M99.41,-169.97C109.18,-168.17 119.53,-166.25 129.54,-164.4"/>
<polygon fill="#63b8ff" stroke="#63b8ff" points="129.95,-167.88 139.15,-162.62 128.68,-161 129.95,-167.88"/>
</a>
</g>
</g>
<!-- Node6 -->
<g id="Node000006" class="node">
<title>Node6</title>
<g id="a_Node000006"><a xlink:href="structsvg_1_1render__state__base.html#aa16790fbf40ef61f416151c89c267ef3" target="_top" xlink:title=" ">
<polygon fill="white" stroke="#666666" points="238.25,-120 135.25,-120 135.25,-88 238.25,-88 238.25,-120"/>
<text text-anchor="start" x="143.25" y="-108.4" font-family="SourceSans" font-size="8.00">svg::render_state_base</text>
<text text-anchor="middle" x="186.75" y="-96.4" font-family="SourceSans" font-size="8.00">::is_visible</text>
</a>
</g>
</g>
<!-- Node1&#45;&gt;Node6 -->
<g id="edge5_Node000001_Node000006" class="edge">
<title>Node1&#45;&gt;Node6</title>
<g id="a_edge5_Node000001_Node000006"><a xlink:title=" ">
<path fill="none" stroke="#63b8ff" d="M77.02,-162.73C93.57,-152.69 115.45,-139.73 135.25,-129 137.3,-127.89 139.4,-126.77 141.54,-125.65"/>
<polygon fill="#63b8ff" stroke="#63b8ff" points="142.98,-128.85 150.27,-121.16 139.78,-122.62 142.98,-128.85"/>
</a>
</g>
</g>
<!-- Node7 -->
<g id="Node000007" class="node">
<title>Node7</title>
<g id="a_Node000007"><a xlink:href="namespacesvg.html#a0352c1350268fb7ecd96ea81908417e7" target="_top" xlink:title="Line primitive.">
<polygon fill="white" stroke="#666666" points="487.75,-158 415.5,-158 415.5,-138 487.75,-138 487.75,-158"/>
<text text-anchor="middle" x="451.62" y="-146.4" font-family="SourceSans" font-size="8.00">svg::make_line</text>
</a>
</g>
</g>
<!-- Node1&#45;&gt;Node7 -->
<g id="edge6_Node000001_Node000007" class="edge">
<title>Node1&#45;&gt;Node7</title>
<g id="a_edge6_Node000001_Node000007"><a xlink:title=" ">
<path fill="none" stroke="#63b8ff" d="M71.1,-195.37C87.4,-207.3 111.38,-222.48 135.25,-229 179.41,-241.07 193.23,-237.29 238.25,-229 306.15,-216.49 380.44,-183.25 420.66,-163.45"/>
<polygon fill="#63b8ff" stroke="#63b8ff" points="422.1,-166.65 429.49,-159.05 418.97,-160.38 422.1,-166.65"/>
</a>
</g>
</g>
<!-- Node14 -->
<g id="Node000014" class="node">
<title>Node14</title>
<g id="a_Node000014"><a xlink:href="namespacesvg.html#a9316267f4d5030ca298dbbe2d4c55b18" target="_top" xlink:title="For each dimension of vrnage, find min/max and return (xmax, ymax) NB: Assumes zero is min.">
<polygon fill="white" stroke="#666666" points="226.62,-70 146.88,-70 146.88,-50 226.62,-50 226.62,-70"/>
<text text-anchor="middle" x="186.75" y="-58.4" font-family="SourceSans" font-size="8.00">svg::max_vrange</text>
</a>
</g>
</g>
<!-- Node1&#45;&gt;Node14 -->
<g id="edge13_Node000001_Node000014" class="edge">
<title>Node1&#45;&gt;Node14</title>
<g id="a_edge13_Node000001_Node000014"><a xlink:title=" ">
<path fill="none" stroke="#63b8ff" d="M60.67,-162.56C74.81,-140.68 102.54,-102.07 135.25,-79 137.03,-77.74 138.9,-76.56 140.84,-75.45"/>
<polygon fill="#63b8ff" stroke="#63b8ff" points="142.14,-78.71 149.52,-71.11 139.01,-72.44 142.14,-78.71"/>
</a>
</g>
</g>
<!-- Node15 -->
<g id="Node000015" class="node">
<title>Node15</title>
<g id="a_Node000015"><a xlink:href="group__elements.html#a9b6e3d5d06ec76dc07afff3261e32487" target="_top" xlink:title=" ">
<polygon fill="white" stroke="#666666" points="232.62,-32 140.88,-32 140.88,0 232.62,0 232.62,-32"/>
<text text-anchor="start" x="148.88" y="-20.4" font-family="SourceSans" font-size="8.00">svg::group_element</text>
<text text-anchor="middle" x="186.75" y="-8.4" font-family="SourceSans" font-size="8.00">::start_group</text>
</a>
</g>
</g>
<!-- Node1&#45;&gt;Node15 -->
<g id="edge14_Node000001_Node000015" class="edge">
<title>Node1&#45;&gt;Node15</title>
<g id="a_edge14_Node000001_Node000015"><a xlink:title=" ">
<path fill="none" stroke="#63b8ff" d="M57.11,-162.5C68.89,-134.36 96.24,-76.63 135.25,-41 136.01,-40.31 136.79,-39.63 137.59,-38.97"/>
<polygon fill="#63b8ff" stroke="#63b8ff" points="139.43,-41.95 145.54,-33.3 135.37,-36.25 139.43,-41.95"/>
</a>
</g>
</g>
<!-- Node16 -->
<g id="Node000016" class="node">
<title>Node16</title>
<g id="a_Node000016"><a xlink:href="namespacesvg.html#a67906a7cc5e5a26f54de5d2c2a438b2a" target="_top" xlink:title="Text at.">
<polygon fill="white" stroke="#666666" points="224,-296 149.5,-296 149.5,-276 224,-276 224,-296"/>
<text text-anchor="middle" x="186.75" y="-284.4" font-family="SourceSans" font-size="8.00">svg::styled_text</text>
</a>
</g>
</g>
<!-- Node1&#45;&gt;Node16 -->
<g id="edge15_Node000001_Node000016" class="edge">
<title>Node1&#45;&gt;Node16</title>
<g id="a_edge15_Node000001_Node000016"><a xlink:title=" ">
<path fill="none" stroke="#63b8ff" d="M64.26,-195.31C79.98,-213.35 107.24,-242.44 135.25,-262 139.69,-265.1 144.6,-267.99 149.55,-270.62"/>
<polygon fill="#63b8ff" stroke="#63b8ff" points="147.79,-273.65 158.31,-274.94 150.89,-267.37 147.79,-273.65"/>
</a>
</g>
</g>
<!-- Node3 -->
<g id="Node000003" class="node">
<title>Node3</title>
<g id="a_Node000003"><a xlink:href="group__elements.html#ad893ef9c13a15464c96d8a85c08af30f" target="_top" xlink:title=" ">
<polygon fill="white" stroke="#666666" points="502,-390 401.25,-390 401.25,-370 502,-370 502,-390"/>
<text text-anchor="middle" x="451.62" y="-378.4" font-family="SourceSans" font-size="8.00">svg::element_base::str</text>
</a>
</g>
</g>
<!-- Node2&#45;&gt;Node3 -->
<g id="edge2_Node000002_Node000003" class="edge">
<title>Node2&#45;&gt;Node3</title>
<g id="a_edge2_Node000002_Node000003"><a xlink:title=" ">
<path fill="none" stroke="#63b8ff" d="M363.28,-346.37C379.38,-352.57 397.59,-359.58 413.2,-365.59"/>
<polygon fill="#63b8ff" stroke="#63b8ff" points="411.53,-368.7 422.11,-369.02 414.04,-362.16 411.53,-368.7"/>
</a>
</g>
</g>
<!-- Node8 -->
<g id="Node000008" class="node">
<title>Node8</title>
<g id="a_Node000008"><a xlink:href="group__elements.html#a306eac4c5a7ea755ab6375a65489366f" target="_top" xlink:title=" ">
<polygon fill="white" stroke="#666666" points="629.75,-302 542.5,-302 542.5,-270 629.75,-270 629.75,-302"/>
<text text-anchor="start" x="550.5" y="-290.4" font-family="SourceSans" font-size="8.00">svg::line_element::</text>
<text text-anchor="middle" x="586.12" y="-278.4" font-family="SourceSans" font-size="8.00">add_data</text>
</a>
</g>
</g>
<!-- Node7&#45;&gt;Node8 -->
<g id="edge7_Node000007_Node000008" class="edge">
<title>Node7&#45;&gt;Node8</title>
<g id="a_edge7_Node000007_Node000008"><a xlink:title=" ">
<path fill="none" stroke="#63b8ff" d="M460.79,-158.16C470.69,-170.53 487.81,-192.11 502,-211 518.45,-232.89 517.36,-243 538,-261 538.91,-261.79 539.84,-262.57 540.8,-263.33"/>
<polygon fill="#63b8ff" stroke="#63b8ff" points="538.51,-265.99 548.72,-268.84 542.51,-260.25 538.51,-265.99"/>
</a>
</g>
</g>
<!-- Node10 -->
<g id="Node000010" class="node">
<title>Node10</title>
<g id="a_Node000010"><a xlink:href="group__elements.html#a238b38ca99a1cf6c2baf80c8e4338d99" target="_top" xlink:title=" ">
<polygon fill="white" stroke="#666666" points="631.62,-64 540.62,-64 540.62,-32 631.62,-32 631.62,-64"/>
<text text-anchor="start" x="548.62" y="-52.4" font-family="SourceSans" font-size="8.00">svg::element_base::</text>
<text text-anchor="middle" x="586.12" y="-40.4" font-family="SourceSans" font-size="8.00">add_style</text>
</a>
</g>
</g>
<!-- Node7&#45;&gt;Node10 -->
<g id="edge9_Node000007_Node000010" class="edge">
<title>Node7&#45;&gt;Node10</title>
<g id="a_edge9_Node000007_Node000010"><a xlink:title=" ">
<path fill="none" stroke="#63b8ff" d="M462.75,-137.68C478.1,-122.38 508.61,-93.29 538,-73 539.36,-72.06 540.75,-71.13 542.18,-70.22"/>
<polygon fill="#63b8ff" stroke="#63b8ff" points="543.79,-73.34 550.55,-65.18 540.18,-67.34 543.79,-73.34"/>
</a>
</g>
</g>
<!-- Node12 -->
<g id="Node000012" class="node">
<title>Node12</title>
<g id="a_Node000012"><a xlink:href="group__elements.html#ga4769af15793cb308d426abb5fd552df5" target="_top" xlink:title=" ">
<polygon fill="white" stroke="#666666" points="629.75,-164 542.5,-164 542.5,-132 629.75,-132 629.75,-164"/>
<text text-anchor="start" x="550.5" y="-152.4" font-family="SourceSans" font-size="8.00">svg::line_element::</text>
<text text-anchor="middle" x="586.12" y="-140.4" font-family="SourceSans" font-size="8.00">finish_element</text>
</a>
</g>
</g>
<!-- Node7&#45;&gt;Node12 -->
<g id="edge11_Node000007_Node000012" class="edge">
<title>Node7&#45;&gt;Node12</title>
<g id="a_edge11_Node000007_Node000012"><a xlink:title=" ">
<path fill="none" stroke="#63b8ff" d="M488.13,-148C501.32,-148 516.59,-148 531.06,-148"/>
<polygon fill="#63b8ff" stroke="#63b8ff" points="530.93,-151.5 540.93,-148 530.93,-144.5 530.93,-151.5"/>
</a>
</g>
</g>
<!-- Node13 -->
<g id="Node000013" class="node">
<title>Node13</title>
<g id="a_Node000013"><a xlink:href="group__elements.html#aa6b4ba04be5858b4943235801f034943" target="_top" xlink:title=" ">
<polygon fill="white" stroke="#666666" points="629.75,-114 542.5,-114 542.5,-82 629.75,-82 629.75,-114"/>
<text text-anchor="start" x="550.5" y="-102.4" font-family="SourceSans" font-size="8.00">svg::line_element::</text>
<text text-anchor="middle" x="586.12" y="-90.4" font-family="SourceSans" font-size="8.00">start_element</text>
</a>
</g>
</g>
<!-- Node7&#45;&gt;Node13 -->
<g id="edge12_Node000007_Node000013" class="edge">
<title>Node7&#45;&gt;Node13</title>
<g id="a_edge12_Node000007_Node000013"><a xlink:title=" ">
<path fill="none" stroke="#63b8ff" d="M480.4,-137.52C495.23,-131.92 514,-124.84 531.54,-118.22"/>
<polygon fill="#63b8ff" stroke="#63b8ff" points="532.72,-121.52 540.84,-114.71 530.24,-114.97 532.72,-121.52"/>
</a>
</g>
</g>
<!-- Node9 -->
<g id="Node000009" class="node">
<title>Node9</title>
<g id="a_Node000009"><a xlink:href="namespacesvg.html#a48ac748e89e22789d1772326a98dd7b6" target="_top" xlink:title=" ">
<polygon fill="white" stroke="#666666" points="758.25,-296 671,-296 671,-276 758.25,-276 758.25,-296"/>
<text text-anchor="middle" x="714.62" y="-284.4" font-family="SourceSans" font-size="8.00">svg::string_replace</text>
</a>
</g>
</g>
<!-- Node8&#45;&gt;Node9 -->
<g id="edge8_Node000008_Node000009" class="edge">
<title>Node8&#45;&gt;Node9</title>
<g id="a_edge8_Node000008_Node000009"><a xlink:title=" ">
<path fill="none" stroke="#63b8ff" d="M629.95,-286C639.43,-286 649.6,-286 659.46,-286"/>
<polygon fill="#63b8ff" stroke="#63b8ff" points="659.33,-289.5 669.33,-286 659.33,-282.5 659.33,-289.5"/>
</a>
</g>
</g>
<!-- Node11 -->
<g id="Node000011" class="node">
<title>Node11</title>
<g id="a_Node000011"><a xlink:href="namespacesvg.html#a36b1c48ad4601b205790e3772ad0a7b6" target="_top" xlink:title=" ">
<polygon fill="white" stroke="#666666" points="748.12,-202 681.12,-202 681.12,-182 748.12,-182 748.12,-202"/>
<text text-anchor="middle" x="714.62" y="-190.4" font-family="SourceSans" font-size="8.00">svg::to_string</text>
</a>
</g>
</g>
<!-- Node10&#45;&gt;Node11 -->
<g id="edge10_Node000010_Node000011" class="edge">
<title>Node10&#45;&gt;Node11</title>
<g id="a_edge10_Node000010_Node000011"><a xlink:title=" ">
<path fill="none" stroke="#63b8ff" d="M622.89,-64.48C626.92,-67.05 630.82,-69.89 634.25,-73 666.02,-101.73 691.01,-145.76 703.94,-171.44"/>
<polygon fill="#63b8ff" stroke="#63b8ff" points="700.66,-172.71 708.2,-180.16 706.95,-169.64 700.66,-172.71"/>
</a>
</g>
</g>
<!-- Node16&#45;&gt;Node2 -->
<g id="edge16_Node000016_Node000002" class="edge">
<title>Node16&#45;&gt;Node2</title>
<g id="a_edge16_Node000016_Node000002"><a xlink:title=" ">
<path fill="none" stroke="#63b8ff" d="M218.8,-296.43C232.07,-300.89 247.98,-306.23 263.16,-311.33"/>
<polygon fill="#63b8ff" stroke="#63b8ff" points="262.01,-314.64 272.61,-314.5 264.24,-308 262.01,-314.64"/>
</a>
</g>
</g>
<!-- Node17 -->
<g id="Node000017" class="node">
<title>Node17</title>
<g id="a_Node000017"><a xlink:href="namespacesvg.html#a0e9e70f0f3460e0edbfff4c40e56c1a0" target="_top" xlink:title="Text elemetn at.">
<polygon fill="white" stroke="#666666" points="354.38,-296 285.12,-296 285.12,-276 354.38,-276 354.38,-296"/>
<text text-anchor="middle" x="319.75" y="-284.4" font-family="SourceSans" font-size="8.00">svg::style_text</text>
</a>
</g>
</g>
<!-- Node16&#45;&gt;Node17 -->
<g id="edge17_Node000016_Node000017" class="edge">
<title>Node16&#45;&gt;Node17</title>
<g id="a_edge17_Node000016_Node000017"><a xlink:title=" ">
<path fill="none" stroke="#63b8ff" d="M224.24,-286C239.47,-286 257.32,-286 273.39,-286"/>
<polygon fill="#63b8ff" stroke="#63b8ff" points="273.19,-289.5 283.19,-286 273.19,-282.5 273.19,-289.5"/>
</a>
</g>
</g>
<!-- Node18 -->
<g id="Node000018" class="node">
<title>Node18</title>
<g id="a_Node000018"><a xlink:href="group__elements.html#aad29e1daf75bdcd69a39575a6807fa0f" target="_top" xlink:title="Either serialize immediately (as below), or create data structure that adds data to data_vec and then...">
<polygon fill="white" stroke="#666666" points="495.62,-302 407.62,-302 407.62,-270 495.62,-270 495.62,-302"/>
<text text-anchor="start" x="415.62" y="-290.4" font-family="SourceSans" font-size="8.00">svg::text_element::</text>
<text text-anchor="middle" x="451.62" y="-278.4" font-family="SourceSans" font-size="8.00">add_data</text>
</a>
</g>
</g>
<!-- Node17&#45;&gt;Node18 -->
<g id="edge18_Node000017_Node000018" class="edge">
<title>Node17&#45;&gt;Node18</title>
<g id="a_edge18_Node000017_Node000018"><a xlink:title=" ">
<path fill="none" stroke="#63b8ff" d="M354.87,-286C367.44,-286 382.01,-286 395.93,-286"/>
<polygon fill="#63b8ff" stroke="#63b8ff" points="395.9,-289.5 405.9,-286 395.9,-282.5 395.9,-289.5"/>
</a>
</g>
</g>
<!-- Node23 -->
<g id="Node000023" class="node">
<title>Node23</title>
<g id="a_Node000023"><a xlink:href="group__elements.html#ga13c46848317034d16c62a7d2061ba3d6" target="_top" xlink:title=" ">
<polygon fill="white" stroke="#666666" points="495.62,-252 407.62,-252 407.62,-220 495.62,-220 495.62,-252"/>
<text text-anchor="start" x="415.62" y="-240.4" font-family="SourceSans" font-size="8.00">svg::text_element::</text>
<text text-anchor="middle" x="451.62" y="-228.4" font-family="SourceSans" font-size="8.00">finish_element</text>
</a>
</g>
</g>
<!-- Node17&#45;&gt;Node23 -->
<g id="edge27_Node000017_Node000023" class="edge">
<title>Node17&#45;&gt;Node23</title>
<g id="a_edge27_Node000017_Node000023"><a xlink:title=" ">
<path fill="none" stroke="#63b8ff" d="M347.98,-275.52C362.33,-269.99 380.44,-263.02 397.44,-256.47"/>
<polygon fill="#63b8ff" stroke="#63b8ff" points="398.35,-259.87 406.43,-253.01 395.84,-253.34 398.35,-259.87"/>
</a>
</g>
</g>
<!-- Node24 -->
<g id="Node000024" class="node">
<title>Node24</title>
<g id="a_Node000024"><a xlink:href="group__elements.html#ae45bec611a6ec17ea46aab6d680ae042" target="_top" xlink:title=" ">
<polygon fill="white" stroke="#666666" points="495.62,-352 407.62,-352 407.62,-320 495.62,-320 495.62,-352"/>
<text text-anchor="start" x="415.62" y="-340.4" font-family="SourceSans" font-size="8.00">svg::text_element::</text>
<text text-anchor="middle" x="451.62" y="-328.4" font-family="SourceSans" font-size="8.00">start_element</text>
</a>
</g>
</g>
<!-- Node17&#45;&gt;Node24 -->
<g id="edge28_Node000017_Node000024" class="edge">
<title>Node17&#45;&gt;Node24</title>
<g id="a_edge28_Node000017_Node000024"><a xlink:title=" ">
<path fill="none" stroke="#63b8ff" d="M347.98,-296.48C362.33,-302.01 380.44,-308.98 397.44,-315.53"/>
<polygon fill="#63b8ff" stroke="#63b8ff" points="395.84,-318.66 406.43,-318.99 398.35,-312.13 395.84,-318.66"/>
</a>
</g>
</g>
<!-- Node18&#45;&gt;Node9 -->
<g id="edge25_Node000018_Node000009" class="edge">
<title>Node18&#45;&gt;Node9</title>
<g id="a_edge25_Node000018_Node000009"><a xlink:title=" ">
<path fill="none" stroke="#63b8ff" d="M495.97,-301.28C509.28,-305.27 524.09,-309 538,-311 580.34,-317.07 591.97,-317.5 634.25,-311 648.53,-308.8 663.77,-304.51 677.03,-300.09"/>
<polygon fill="#63b8ff" stroke="#63b8ff" points="677.92,-303.49 686.22,-296.89 675.62,-296.87 677.92,-303.49"/>
</a>
</g>
</g>
<!-- Node18&#45;&gt;Node11 -->
<g id="edge26_Node000018_Node000011" class="edge">
<title>Node18&#45;&gt;Node11</title>
<g id="a_edge26_Node000018_Node000011"><a xlink:title=" ">
<path fill="none" stroke="#63b8ff" d="M489.99,-269.56C494.24,-266.98 498.35,-264.12 502,-261 522.81,-243.2 514.34,-224.78 538,-211 578.11,-187.65 632.18,-185.26 669.68,-187.22"/>
<polygon fill="#63b8ff" stroke="#63b8ff" points="669.03,-190.69 679.24,-187.85 669.49,-183.7 669.03,-190.69"/>
</a>
</g>
</g>
<!-- Node19 -->
<g id="Node000019" class="node">
<title>Node19</title>
<g id="a_Node000019"><a xlink:href="structsvg_1_1typography.html#adbc62f74f1fed3f7c77567250f084f83" target="_top" xlink:title=" ">
<polygon fill="white" stroke="#666666" points="634.25,-252 538,-252 538,-220 634.25,-220 634.25,-252"/>
<text text-anchor="start" x="546" y="-240.4" font-family="SourceSans" font-size="8.00">svg::typography::add</text>
<text text-anchor="middle" x="586.12" y="-228.4" font-family="SourceSans" font-size="8.00">_attribute</text>
</a>
</g>
</g>
<!-- Node18&#45;&gt;Node19 -->
<g id="edge19_Node000018_Node000019" class="edge">
<title>Node18&#45;&gt;Node19</title>
<g id="a_edge19_Node000018_Node000019"><a xlink:title=" ">
<path fill="none" stroke="#63b8ff" d="M496.01,-269.63C507.22,-265.4 519.43,-260.79 531.11,-256.38"/>
<polygon fill="#63b8ff" stroke="#63b8ff" points="532.11,-259.75 540.23,-252.94 529.63,-253.2 532.11,-259.75"/>
</a>
</g>
</g>
<!-- Node21 -->
<g id="Node000021" class="node">
<title>Node21</title>
<g id="a_Node000021"><a xlink:href="group__elements.html#a1ed006cabdb9c531c2bd8e27ea9e0966" target="_top" xlink:title=" ">
<polygon fill="white" stroke="#666666" points="630.12,-440 542.12,-440 542.12,-408 630.12,-408 630.12,-440"/>
<text text-anchor="start" x="550.12" y="-428.4" font-family="SourceSans" font-size="8.00">svg::text_element::</text>
<text text-anchor="middle" x="586.12" y="-416.4" font-family="SourceSans" font-size="8.00">add_text</text>
</a>
</g>
</g>
<!-- Node18&#45;&gt;Node21 -->
<g id="edge23_Node000018_Node000021" class="edge">
<title>Node18&#45;&gt;Node21</title>
<g id="a_edge23_Node000018_Node000021"><a xlink:title=" ">
<path fill="none" stroke="#63b8ff" d="M491.74,-302.31C495.49,-304.86 499,-307.75 502,-311 530.66,-342.06 509.64,-367.67 538,-399 538.36,-399.39 538.72,-399.78 539.09,-400.17"/>
<polygon fill="#63b8ff" stroke="#63b8ff" points="536.73,-402.76 546.63,-406.53 541.25,-397.41 536.73,-402.76"/>
</a>
</g>
</g>
<!-- Node22 -->
<g id="Node000022" class="node">
<title>Node22</title>
<g id="a_Node000022"><a xlink:href="group__elements.html#a53d72a7ff728ad1d4d027254530bcf3d" target="_top" xlink:title="Common transforms include rotate(180)">
<polygon fill="white" stroke="#666666" points="631.62,-390 540.62,-390 540.62,-358 631.62,-358 631.62,-390"/>
<text text-anchor="start" x="548.62" y="-378.4" font-family="SourceSans" font-size="8.00">svg::element_base::</text>
<text text-anchor="middle" x="586.12" y="-366.4" font-family="SourceSans" font-size="8.00">add_transform</text>
</a>
</g>
</g>
<!-- Node18&#45;&gt;Node22 -->
<g id="edge24_Node000018_Node000022" class="edge">
<title>Node18&#45;&gt;Node22</title>
<g id="a_edge24_Node000018_Node000022"><a xlink:title=" ">
<path fill="none" stroke="#63b8ff" d="M488.11,-302.47C492.9,-305.12 497.65,-307.99 502,-311 519.85,-323.35 520.78,-330.79 538,-344 541.27,-346.51 544.75,-349.01 548.29,-351.44"/>
<polygon fill="#63b8ff" stroke="#63b8ff" points="546.13,-354.21 556.4,-356.82 550,-348.37 546.13,-354.21"/>
</a>
</g>
</g>
<!-- Node19&#45;&gt;Node9 -->
<g id="edge20_Node000019_Node000009" class="edge">
<title>Node19&#45;&gt;Node9</title>
<g id="a_edge20_Node000019_Node000009"><a xlink:title=" ">
<path fill="none" stroke="#63b8ff" d="M628.55,-252.37C644.09,-258.51 661.63,-265.45 676.73,-271.42"/>
<polygon fill="#63b8ff" stroke="#63b8ff" points="675.24,-274.59 685.82,-275.01 677.81,-268.08 675.24,-274.59"/>
</a>
</g>
</g>
<!-- Node19&#45;&gt;Node11 -->
<g id="edge21_Node000019_Node000011" class="edge">
<title>Node19&#45;&gt;Node11</title>
<g id="a_edge21_Node000019_Node000011"><a xlink:title=" ">
<path fill="none" stroke="#63b8ff" d="M634.23,-219.62C647.05,-215.16 660.82,-210.37 673.24,-206.05"/>
<polygon fill="#63b8ff" stroke="#63b8ff" points="674.01,-209.48 682.31,-202.89 671.71,-202.87 674.01,-209.48"/>
</a>
</g>
</g>
<!-- Node20 -->
<g id="Node000020" class="node">
<title>Node20</title>
<g id="a_Node000020"><a xlink:href="structsvg_1_1typography.html#a174c1ffb4e56214d71523ffe7e422561" target="_top" xlink:title=" ">
<polygon fill="white" stroke="#666666" points="759,-252 670.25,-252 670.25,-220 759,-220 759,-252"/>
<text text-anchor="start" x="678.25" y="-240.4" font-family="SourceSans" font-size="8.00">svg::typography::to</text>
<text text-anchor="middle" x="714.62" y="-228.4" font-family="SourceSans" font-size="8.00">_string</text>
</a>
</g>
</g>
<!-- Node19&#45;&gt;Node20 -->
<g id="edge22_Node000019_Node000020" class="edge">
<title>Node19&#45;&gt;Node20</title>
<g id="a_edge22_Node000019_Node000020"><a xlink:title=" ">
<path fill="none" stroke="#63b8ff" d="M634.59,-236C642.41,-236 650.57,-236 658.56,-236"/>
<polygon fill="#63b8ff" stroke="#63b8ff" points="658.56,-239.5 668.56,-236 658.56,-232.5 658.56,-239.5"/>
</a>
</g>
</g>
</g>
</svg>
