<?xml version="1.0" encoding="UTF-8" standalone="no"?>
<!DOCTYPE svg PUBLIC "-//W3C//DTD SVG 1.1//EN"
 "http://www.w3.org/Graphics/SVG/1.1/DTD/svg11.dtd">
<!-- Generated by graphviz version 12.1.0 (20240811.2233)
 -->
<!-- Title: svg::styled_text_link Pages: 1 -->
<!--zoomable 464 -->

<svg id="main" version="1.1" xmlns="http://www.w3.org/2000/svg" xmlns:xlink="http://www.w3.org/1999/xlink" xml:space="preserve" onload="init(evt)">

<style type="text/css"><![CDATA[
.node, .edge {opacity: 0.7;}
.node.selected, .edge.selected {opacity: 1;}
.edge:hover path { stroke: red; }
.edge:hover polygon { stroke: red; fill: red; }
]]></style>

<defs>
  <circle id="rim" cx="0" cy="0" r="7"/>
  <circle id="rim2" cx="0" cy="0" r="3.5"/>
  <g id="zoomPlus">
    <use xlink:href="#rim" fill="#404040"><set attributeName="fill" to="#808080" begin="zoomplus.mouseover" end="zoomplus.mouseout"/></use>
    <path d="M-4,0h8M0,-4v8" fill="none" stroke="white" stroke-width="1.5" pointer-events="none"/>
  </g>
  <g id="zoomMin">
    <use xlink:href="#rim" fill="#404040"><set attributeName="fill" to="#808080" begin="zoomminus.mouseover" end="zoomminus.mouseout"/></use>
    <path d="M-4,0h8" fill="none" stroke="white" stroke-width="1.5" pointer-events="none"/>
  </g>
  <g id="arrowUp" transform="translate(30 24)">
    <use xlink:href="#rim"/>
    <path pointer-events="none" fill="none" stroke="white" stroke-width="1.5" d="M0,-3.0v7 M-2.5,-0.5L0,-3.0L2.5,-0.5"/>
  </g>
  <g id="arrowRight" transform="rotate(90) translate(36 -43)">
    <use xlink:href="#rim"/>
    <path pointer-events="none" fill="none" stroke="white" stroke-width="1.5" d="M0,-3.0v7 M-2.5,-0.5L0,-3.0L2.5,-0.5"/>
  </g>
  <g id="arrowDown" transform="rotate(180) translate(-30 -48)">
    <use xlink:href="#rim"/>
    <path pointer-events="none" fill="none" stroke="white" stroke-width="1.5" d="M0,-3.0v7 M-2.5,-0.5L0,-3.0L2.5,-0.5"/>
  </g>
  <g id="arrowLeft" transform="rotate(270) translate(-36 17)">
    <use xlink:href="#rim"/>
    <path pointer-events="none" fill="none" stroke="white" stroke-width="1.5" d="M0,-3.0v7 M-2.5,-0.5L0,-3.0L2.5,-0.5"/>
  </g>
  <g id="resetDef">
    <use xlink:href="#rim2" fill="#404040"><set attributeName="fill" to="#808080" begin="reset.mouseover" end="reset.mouseout"/></use>
  </g>
</defs>
<script type="application/ecmascript">
var viewWidth = 546;
var viewHeight = 464;
var sectionId = 'dynsection-83';
</script>
<script type="application/ecmascript" xlink:href="svg.min.js"/>
<svg id="graph" class="graph">
<g id="viewport">
<title>svg::styled_text_link</title>
<!-- Node1 -->
<g id="Node000001" class="node">
<title>Node1</title>
<g id="a_Node000001"><a xlink:title="Text at @origin, with style and link.">
<polygon fill="#999999" stroke="#666666" points="97.75,-152.62 0,-152.62 0,-134.88 97.75,-134.88 97.75,-152.62"/>
<text text-anchor="middle" x="48.88" y="-141.03" font-family="SourceSans" font-size="8.00">svg::styled_text_link</text>
</a>
</g>
</g>
<!-- Node2 -->
<g id="Node000002" class="node">
<title>Node2</title>
<g id="a_Node000002"><a xlink:href="group__elements.html#aad29e1daf75bdcd69a39575a6807fa0f" target="_top" xlink:title="Either serialize immediately (as below), or create data structure that adds data to data_vec and then...">
<polygon fill="white" stroke="#666666" points="236,-354.5 141.25,-354.5 141.25,-327 236,-327 236,-354.5"/>
<text text-anchor="start" x="149.25" y="-342.9" font-family="SourceSans" font-size="8.00">svg::text_element::</text>
<text text-anchor="middle" x="188.62" y="-333.15" font-family="SourceSans" font-size="8.00">add_data</text>
</a>
</g>
</g>
<!-- Node1&#45;&gt;Node2 -->
<g id="edge1_Node000001_Node000002" class="edge">
<title>Node1&#45;&gt;Node2</title>
<g id="a_edge1_Node000001_Node000002"><a xlink:title=" ">
<path fill="none" stroke="#63b8ff" d="M56.33,-152.99C76.86,-182.35 141.04,-274.13 171.4,-317.55"/>
<polygon fill="#63b8ff" stroke="#63b8ff" points="168.38,-319.33 176.98,-325.52 174.11,-315.32 168.38,-319.33"/>
</a>
</g>
</g>
<!-- Node4 -->
<g id="Node000004" class="node">
<title>Node4</title>
<g id="a_Node000004"><a xlink:href="namespacesvg_1_1constants.html#a3972655f1dfdc090ec2592d1fb37e87c" target="_top" xlink:title=" ">
<polygon fill="white" stroke="#666666" points="537.62,-284.62 430.88,-284.62 430.88,-266.88 537.62,-266.88 537.62,-284.62"/>
<text text-anchor="middle" x="484.25" y="-273.02" font-family="SourceSans" font-size="8.00">svg::constants::quote</text>
</a>
</g>
</g>
<!-- Node1&#45;&gt;Node4 -->
<g id="edge22_Node000001_Node000004" class="edge">
<title>Node1&#45;&gt;Node4</title>
<g id="a_edge22_Node000001_Node000004"><a xlink:title=" ">
<path fill="none" stroke="#63b8ff" d="M57.62,-152.73C71.29,-167.92 101.33,-198.41 133.75,-212.75 240.85,-260.14 279.95,-226.38 394.5,-250.75 410.47,-254.15 427.8,-258.81 442.88,-263.18"/>
<polygon fill="#63b8ff" stroke="#63b8ff" points="441.87,-266.54 452.45,-266.02 443.86,-259.82 441.87,-266.54"/>
</a>
</g>
</g>
<!-- Node11 -->
<g id="Node000011" class="node">
<title>Node11</title>
<g id="a_Node000011"><a xlink:href="group__elements.html#aaa5f1a136f2b5c61d647a47ec53fe31d" target="_top" xlink:title=" ">
<polygon fill="white" stroke="#666666" points="243.5,-203.5 133.75,-203.5 133.75,-176 243.5,-176 243.5,-203.5"/>
<text text-anchor="start" x="141.75" y="-191.9" font-family="SourceSans" font-size="8.00">svg::svg_element::add</text>
<text text-anchor="middle" x="188.62" y="-182.15" font-family="SourceSans" font-size="8.00">_element</text>
</a>
</g>
</g>
<!-- Node1&#45;&gt;Node11 -->
<g id="edge14_Node000001_Node000011" class="edge">
<title>Node1&#45;&gt;Node11</title>
<g id="a_edge14_Node000001_Node000011"><a xlink:title=" ">
<path fill="none" stroke="#63b8ff" d="M77.75,-153.06C93.99,-158.48 115.02,-165.5 134.32,-171.95"/>
<polygon fill="#63b8ff" stroke="#63b8ff" points="133.1,-175.23 143.69,-175.08 135.32,-168.59 133.1,-175.23"/>
</a>
</g>
</g>
<!-- Node13 -->
<g id="Node000013" class="node">
<title>Node13</title>
<g id="a_Node000013"><a xlink:href="group__elements.html#acafbdd950c6c2639c9d376c3eab696e5" target="_top" xlink:title=" ">
<polygon fill="white" stroke="#666666" points="238.62,-157.5 138.62,-157.5 138.62,-130 238.62,-130 238.62,-157.5"/>
<text text-anchor="start" x="146.62" y="-145.9" font-family="SourceSans" font-size="8.00">svg::element_base::</text>
<text text-anchor="middle" x="188.62" y="-136.15" font-family="SourceSans" font-size="8.00">add_raw</text>
</a>
</g>
</g>
<!-- Node1&#45;&gt;Node13 -->
<g id="edge16_Node000001_Node000013" class="edge">
<title>Node1&#45;&gt;Node13</title>
<g id="a_edge16_Node000001_Node000013"><a xlink:title=" ">
<path fill="none" stroke="#63b8ff" d="M98.05,-143.75C107.42,-143.75 117.35,-143.75 127.06,-143.75"/>
<polygon fill="#63b8ff" stroke="#63b8ff" points="126.79,-147.25 136.79,-143.75 126.79,-140.25 126.79,-147.25"/>
</a>
</g>
</g>
<!-- Node14 -->
<g id="Node000014" class="node">
<title>Node14</title>
<g id="a_Node000014"><a xlink:href="namespacesvg_1_1constants.html#aa7f04c2ea699a1b1e2e790de5ac33f38" target="_top" xlink:title=" ">
<polygon fill="white" stroke="#666666" points="394.5,-106.62 279.5,-106.62 279.5,-88.88 394.5,-88.88 394.5,-106.62"/>
<text text-anchor="middle" x="337" y="-95.03" font-family="SourceSans" font-size="8.00">svg::constants::newline</text>
</a>
</g>
</g>
<!-- Node1&#45;&gt;Node14 -->
<g id="edge21_Node000001_Node000014" class="edge">
<title>Node1&#45;&gt;Node14</title>
<g id="a_edge21_Node000001_Node000014"><a xlink:title=" ">
<path fill="none" stroke="#63b8ff" d="M57.21,-134.52C70.47,-118.65 100.2,-86.78 133.75,-74.75 190.16,-54.53 260.57,-71.18 301.69,-84.74"/>
<polygon fill="#63b8ff" stroke="#63b8ff" points="300.45,-88.01 311.04,-87.95 302.72,-81.39 300.45,-88.01"/>
</a>
</g>
</g>
<!-- Node15 -->
<g id="Node000015" class="node">
<title>Node15</title>
<g id="a_Node000015"><a xlink:href="group__elements.html#ga13c46848317034d16c62a7d2061ba3d6" target="_top" xlink:title=" ">
<polygon fill="white" stroke="#666666" points="236,-111.5 141.25,-111.5 141.25,-84 236,-84 236,-111.5"/>
<text text-anchor="start" x="149.25" y="-99.9" font-family="SourceSans" font-size="8.00">svg::text_element::</text>
<text text-anchor="middle" x="188.62" y="-90.15" font-family="SourceSans" font-size="8.00">finish_element</text>
</a>
</g>
</g>
<!-- Node1&#45;&gt;Node15 -->
<g id="edge19_Node000001_Node000015" class="edge">
<title>Node1&#45;&gt;Node15</title>
<g id="a_edge19_Node000001_Node000015"><a xlink:title=" ">
<path fill="none" stroke="#63b8ff" d="M77.75,-134.44C93.99,-129.02 115.02,-122 134.32,-115.55"/>
<polygon fill="#63b8ff" stroke="#63b8ff" points="135.32,-118.91 143.69,-112.42 133.1,-112.27 135.32,-118.91"/>
</a>
</g>
</g>
<!-- Node16 -->
<g id="Node000016" class="node">
<title>Node16</title>
<g id="a_Node000016"><a xlink:href="group__elements.html#ae45bec611a6ec17ea46aab6d680ae042" target="_top" xlink:title=" ">
<polygon fill="white" stroke="#666666" points="236,-27.5 141.25,-27.5 141.25,0 236,0 236,-27.5"/>
<text text-anchor="start" x="149.25" y="-15.9" font-family="SourceSans" font-size="8.00">svg::text_element::</text>
<text text-anchor="middle" x="188.62" y="-6.15" font-family="SourceSans" font-size="8.00">start_element</text>
</a>
</g>
</g>
<!-- Node1&#45;&gt;Node16 -->
<g id="edge23_Node000001_Node000016" class="edge">
<title>Node1&#45;&gt;Node16</title>
<g id="a_edge23_Node000001_Node000016"><a xlink:title=" ">
<path fill="none" stroke="#63b8ff" d="M55.59,-134.52C67.91,-115.26 98.66,-70.18 133.75,-41.75 137.39,-38.8 141.39,-36.03 145.51,-33.47"/>
<polygon fill="#63b8ff" stroke="#63b8ff" points="147.01,-36.65 153.94,-28.63 143.53,-30.57 147.01,-36.65"/>
</a>
</g>
</g>
<!-- Node3 -->
<g id="Node000003" class="node">
<title>Node3</title>
<g id="a_Node000003"><a xlink:href="structsvg_1_1typography.html#adbc62f74f1fed3f7c77567250f084f83" target="_top" xlink:title=" ">
<polygon fill="white" stroke="#666666" points="388.88,-333.5 285.12,-333.5 285.12,-306 388.88,-306 388.88,-333.5"/>
<text text-anchor="start" x="293.12" y="-321.9" font-family="SourceSans" font-size="8.00">svg::typography::add</text>
<text text-anchor="middle" x="337" y="-312.15" font-family="SourceSans" font-size="8.00">_attribute</text>
</a>
</g>
</g>
<!-- Node2&#45;&gt;Node3 -->
<g id="edge2_Node000002_Node000003" class="edge">
<title>Node2&#45;&gt;Node3</title>
<g id="a_edge2_Node000002_Node000003"><a xlink:title=" ">
<path fill="none" stroke="#63b8ff" d="M236.34,-334.05C248.13,-332.36 260.97,-330.51 273.4,-328.73"/>
<polygon fill="#63b8ff" stroke="#63b8ff" points="273.76,-332.22 283.16,-327.33 272.76,-325.29 273.76,-332.22"/>
</a>
</g>
</g>
<!-- Node6 -->
<g id="Node000006" class="node">
<title>Node6</title>
<g id="a_Node000006"><a xlink:href="namespacesvg.html#a48ac748e89e22789d1772326a98dd7b6" target="_top" xlink:title=" ">
<polygon fill="white" stroke="#666666" points="530.88,-369.62 437.62,-369.62 437.62,-351.88 530.88,-351.88 530.88,-369.62"/>
<text text-anchor="middle" x="484.25" y="-358.02" font-family="SourceSans" font-size="8.00">svg::string_replace</text>
</a>
</g>
</g>
<!-- Node2&#45;&gt;Node6 -->
<g id="edge12_Node000002_Node000006" class="edge">
<title>Node2&#45;&gt;Node6</title>
<g id="a_edge12_Node000002_Node000006"><a xlink:title=" ">
<path fill="none" stroke="#63b8ff" d="M236.48,-343.94C288.02,-347.45 370.87,-353.1 426.17,-356.86"/>
<polygon fill="#63b8ff" stroke="#63b8ff" points="425.81,-360.35 436.02,-357.53 426.28,-353.36 425.81,-360.35"/>
</a>
</g>
</g>
<!-- Node7 -->
<g id="Node000007" class="node">
<title>Node7</title>
<g id="a_Node000007"><a xlink:href="namespacesvg.html#a36b1c48ad4601b205790e3772ad0a7b6" target="_top" xlink:title=" ">
<polygon fill="white" stroke="#666666" points="520,-406.62 448.5,-406.62 448.5,-388.88 520,-388.88 520,-406.62"/>
<text text-anchor="middle" x="484.25" y="-395.02" font-family="SourceSans" font-size="8.00">svg::to_string</text>
</a>
</g>
</g>
<!-- Node2&#45;&gt;Node7 -->
<g id="edge13_Node000002_Node000007" class="edge">
<title>Node2&#45;&gt;Node7</title>
<g id="a_edge13_Node000002_Node000007"><a xlink:title=" ">
<path fill="none" stroke="#63b8ff" d="M236.06,-354.1C249.96,-357.84 265.29,-361.71 279.5,-364.75 333.04,-376.2 395.24,-385.74 436.7,-391.57"/>
<polygon fill="#63b8ff" stroke="#63b8ff" points="436.19,-395.03 446.58,-392.94 437.16,-388.1 436.19,-395.03"/>
</a>
</g>
</g>
<!-- Node9 -->
<g id="Node000009" class="node">
<title>Node9</title>
<g id="a_Node000009"><a xlink:href="group__elements.html#a1ed006cabdb9c531c2bd8e27ea9e0966" target="_top" xlink:title=" ">
<polygon fill="white" stroke="#666666" points="384.38,-455.5 289.62,-455.5 289.62,-428 384.38,-428 384.38,-455.5"/>
<text text-anchor="start" x="297.62" y="-443.9" font-family="SourceSans" font-size="8.00">svg::text_element::</text>
<text text-anchor="middle" x="337" y="-434.15" font-family="SourceSans" font-size="8.00">add_text</text>
</a>
</g>
</g>
<!-- Node2&#45;&gt;Node9 -->
<g id="edge8_Node000002_Node000009" class="edge">
<title>Node2&#45;&gt;Node9</title>
<g id="a_edge8_Node000002_Node000009"><a xlink:title=" ">
<path fill="none" stroke="#63b8ff" d="M204.73,-354.79C221.97,-370.37 251.43,-395.71 279.5,-413.75 284.09,-416.7 289.04,-419.57 294.03,-422.26"/>
<polygon fill="#63b8ff" stroke="#63b8ff" points="292.4,-425.36 302.89,-426.85 295.62,-419.15 292.4,-425.36"/>
</a>
</g>
</g>
<!-- Node10 -->
<g id="Node000010" class="node">
<title>Node10</title>
<g id="a_Node000010"><a xlink:href="group__elements.html#a53d72a7ff728ad1d4d027254530bcf3d" target="_top" xlink:title="Common transforms include rotate(180)">
<polygon fill="white" stroke="#666666" points="387,-287.5 287,-287.5 287,-260 387,-260 387,-287.5"/>
<text text-anchor="start" x="295" y="-275.9" font-family="SourceSans" font-size="8.00">svg::element_base::</text>
<text text-anchor="middle" x="337" y="-266.15" font-family="SourceSans" font-size="8.00">add_transform</text>
</a>
</g>
</g>
<!-- Node2&#45;&gt;Node10 -->
<g id="edge9_Node000002_Node000010" class="edge">
<title>Node2&#45;&gt;Node10</title>
<g id="a_edge9_Node000002_Node000010"><a xlink:title=" ">
<path fill="none" stroke="#63b8ff" d="M217.33,-326.58C234.98,-317.7 258.41,-306.19 279.5,-296.75 282.79,-295.28 286.2,-293.79 289.64,-292.32"/>
<polygon fill="#63b8ff" stroke="#63b8ff" points="290.71,-295.67 298.58,-288.57 288.01,-289.21 290.71,-295.67"/>
</a>
</g>
</g>
<!-- Node3&#45;&gt;Node4 -->
<g id="edge3_Node000003_Node000004" class="edge">
<title>Node3&#45;&gt;Node4</title>
<g id="a_edge3_Node000003_Node000004"><a xlink:title=" ">
<path fill="none" stroke="#63b8ff" d="M384.76,-305.59C403.08,-300.04 423.92,-293.72 441.7,-288.34"/>
<polygon fill="#63b8ff" stroke="#63b8ff" points="442.6,-291.72 451.16,-285.47 440.57,-285.02 442.6,-291.72"/>
</a>
</g>
</g>
<!-- Node5 -->
<g id="Node000005" class="node">
<title>Node5</title>
<g id="a_Node000005"><a xlink:href="namespacesvg_1_1constants.html#ac460bc8db60d85c3ae1cf8b1a903405e" target="_top" xlink:title="Formatting character constants.">
<polygon fill="white" stroke="#666666" points="538,-248.62 430.5,-248.62 430.5,-230.88 538,-230.88 538,-248.62"/>
<text text-anchor="middle" x="484.25" y="-237.03" font-family="SourceSans" font-size="8.00">svg::constants::space</text>
</a>
</g>
</g>
<!-- Node3&#45;&gt;Node5 -->
<g id="edge4_Node000003_Node000005" class="edge">
<title>Node3&#45;&gt;Node5</title>
<g id="a_edge4_Node000003_Node000005"><a xlink:title=" ">
<path fill="none" stroke="#63b8ff" d="M378.94,-305.61C384.37,-303.02 389.71,-300.07 394.5,-296.75 413.89,-283.31 410.73,-270.62 430.5,-257.75 432.76,-256.28 435.15,-254.92 437.62,-253.65"/>
<polygon fill="#63b8ff" stroke="#63b8ff" points="438.95,-256.89 446.67,-249.63 436.11,-250.49 438.95,-256.89"/>
</a>
</g>
</g>
<!-- Node3&#45;&gt;Node6 -->
<g id="edge5_Node000003_Node000006" class="edge">
<title>Node3&#45;&gt;Node6</title>
<g id="a_edge5_Node000003_Node000006"><a xlink:title=" ">
<path fill="none" stroke="#63b8ff" d="M388.39,-333.97C405.04,-338.67 423.4,-343.86 439.51,-348.4"/>
<polygon fill="#63b8ff" stroke="#63b8ff" points="438.22,-351.67 448.79,-351.02 440.12,-344.94 438.22,-351.67"/>
</a>
</g>
</g>
<!-- Node3&#45;&gt;Node7 -->
<g id="edge6_Node000003_Node000007" class="edge">
<title>Node3&#45;&gt;Node7</title>
<g id="a_edge6_Node000003_Node000007"><a xlink:title=" ">
<path fill="none" stroke="#63b8ff" d="M357.46,-333.97C375.68,-346.85 404,-365.73 430.5,-378.75 434.51,-380.72 438.78,-382.6 443.09,-384.35"/>
<polygon fill="#63b8ff" stroke="#63b8ff" points="441.75,-387.58 452.34,-387.89 444.25,-381.04 441.75,-387.58"/>
</a>
</g>
</g>
<!-- Node8 -->
<g id="Node000008" class="node">
<title>Node8</title>
<g id="a_Node000008"><a xlink:href="structsvg_1_1typography.html#a174c1ffb4e56214d71523ffe7e422561" target="_top" xlink:title=" ">
<polygon fill="white" stroke="#666666" points="532.38,-333.5 436.12,-333.5 436.12,-306 532.38,-306 532.38,-333.5"/>
<text text-anchor="start" x="444.12" y="-321.9" font-family="SourceSans" font-size="8.00">svg::typography::to</text>
<text text-anchor="middle" x="484.25" y="-312.15" font-family="SourceSans" font-size="8.00">_string</text>
</a>
</g>
</g>
<!-- Node3&#45;&gt;Node8 -->
<g id="edge7_Node000003_Node000008" class="edge">
<title>Node3&#45;&gt;Node8</title>
<g id="a_edge7_Node000003_Node000008"><a xlink:title=" ">
<path fill="none" stroke="#63b8ff" d="M389.21,-319.75C400.6,-319.75 412.77,-319.75 424.44,-319.75"/>
<polygon fill="#63b8ff" stroke="#63b8ff" points="424.39,-323.25 434.39,-319.75 424.39,-316.25 424.39,-323.25"/>
</a>
</g>
</g>
<!-- Node10&#45;&gt;Node4 -->
<g id="edge10_Node000010_Node000004" class="edge">
<title>Node10&#45;&gt;Node4</title>
<g id="a_edge10_Node000010_Node000004"><a xlink:title=" ">
<path fill="none" stroke="#63b8ff" d="M387.18,-274.43C397.39,-274.57 408.3,-274.72 418.96,-274.86"/>
<polygon fill="#63b8ff" stroke="#63b8ff" points="418.83,-278.36 428.88,-275 418.93,-271.36 418.83,-278.36"/>
</a>
</g>
</g>
<!-- Node10&#45;&gt;Node5 -->
<g id="edge11_Node000010_Node000005" class="edge">
<title>Node10&#45;&gt;Node5</title>
<g id="a_edge11_Node000010_Node000005"><a xlink:title=" ">
<path fill="none" stroke="#63b8ff" d="M387.18,-262.24C401.73,-258.83 417.7,-255.09 432.37,-251.66"/>
<polygon fill="#63b8ff" stroke="#63b8ff" points="432.87,-255.14 441.81,-249.45 431.28,-248.32 432.87,-255.14"/>
</a>
</g>
</g>
<!-- Node12 -->
<g id="Node000012" class="node">
<title>Node12</title>
<g id="a_Node000012"><a xlink:href="group__elements.html#ad893ef9c13a15464c96d8a85c08af30f" target="_top" xlink:title=" ">
<polygon fill="white" stroke="#666666" points="392.25,-198.62 281.75,-198.62 281.75,-180.88 392.25,-180.88 392.25,-198.62"/>
<text text-anchor="middle" x="337" y="-187.03" font-family="SourceSans" font-size="8.00">svg::element_base::str</text>
</a>
</g>
</g>
<!-- Node11&#45;&gt;Node12 -->
<g id="edge15_Node000011_Node000012" class="edge">
<title>Node11&#45;&gt;Node12</title>
<g id="a_edge15_Node000011_Node000012"><a xlink:title=" ">
<path fill="none" stroke="#63b8ff" d="M243.71,-189.75C252.32,-189.75 261.31,-189.75 270.15,-189.75"/>
<polygon fill="#63b8ff" stroke="#63b8ff" points="270.13,-193.25 280.13,-189.75 270.13,-186.25 270.13,-193.25"/>
</a>
</g>
</g>
<!-- Node13&#45;&gt;Node5 -->
<g id="edge18_Node000013_Node000005" class="edge">
<title>Node13&#45;&gt;Node5</title>
<g id="a_edge18_Node000013_Node000005"><a xlink:title=" ">
<path fill="none" stroke="#63b8ff" d="M239.07,-143.48C281.76,-144.87 344.3,-150.83 394.5,-171.75 422.62,-183.47 449.62,-206.37 466.3,-222.35"/>
<polygon fill="#63b8ff" stroke="#63b8ff" points="463.8,-224.79 473.37,-229.33 468.71,-219.81 463.8,-224.79"/>
</a>
</g>
</g>
<!-- Node13&#45;&gt;Node14 -->
<g id="edge17_Node000013_Node000014" class="edge">
<title>Node13&#45;&gt;Node14</title>
<g id="a_edge17_Node000013_Node000014"><a xlink:title=" ">
<path fill="none" stroke="#63b8ff" d="M234.74,-129.57C254.17,-123.47 276.71,-116.38 295.58,-110.45"/>
<polygon fill="#63b8ff" stroke="#63b8ff" points="296.58,-113.81 305.07,-107.47 294.48,-107.13 296.58,-113.81"/>
</a>
</g>
</g>
<!-- Node15&#45;&gt;Node14 -->
<g id="edge20_Node000015_Node000014" class="edge">
<title>Node15&#45;&gt;Node14</title>
<g id="a_edge20_Node000015_Node000014"><a xlink:title=" ">
<path fill="none" stroke="#63b8ff" d="M236.34,-97.75C246.36,-97.75 257.14,-97.75 267.78,-97.75"/>
<polygon fill="#63b8ff" stroke="#63b8ff" points="267.71,-101.25 277.71,-97.75 267.71,-94.25 267.71,-101.25"/>
</a>
</g>
</g>
</g>
</svg>

<g id="navigator" transform="translate(0 0)" fill="#404254">
  <rect fill="#f2f5e9" fill-opacity="0.5" stroke="#606060" stroke-width=".5" x="0" y="0" width="60" height="60"/>
  <use id="zoomplus" xlink:href="#zoomPlus" x="17" y="9" onmousedown="handleZoom(evt,'in')"/>
  <use id="zoomminus" xlink:href="#zoomMin" x="42" y="9" onmousedown="handleZoom(evt,'out')"/>
  <use id="reset" xlink:href="#resetDef" x="30" y="36" onmousedown="handleReset()"/>
   <use id="arrowup" xlink:href="#arrowUp" x="0" y="0" onmousedown="handlePan(0,-1)"/>
  <use id="arrowright" xlink:href="#arrowRight" x="0" y="0" onmousedown="handlePan(1,0)"/>
  <use id="arrowdown" xlink:href="#arrowDown" x="0" y="0" onmousedown="handlePan(0,1)"/>
  <use id="arrowleft" xlink:href="#arrowLeft" x="0" y="0" onmousedown="handlePan(-1,0)"/>
</g>
<svg viewBox="0 0 15 15" width="100%" height="30px" preserveAspectRatio="xMaxYMin meet">
 <g id="arrow_out" transform="scale(0.3 0.3)">
  <a xlink:href="namespacesvg_a6cbef4add41be0e0f31682c73988d309_cgraph_org.svg" target="_base">
   <rect id="button" ry="5" rx="5" y="6" x="6" height="38" width="38"
        fill="#f2f5e9" fill-opacity="0.5" stroke="#606060" stroke-width="1.0"/>
   <path id="arrow"
     d="M 11.500037,31.436501 C 11.940474,20.09759 22.043105,11.32322 32.158766,21.979434 L 37.068811,17.246167 C 37.068811,17.246167 37.088388,32 37.088388,32 L 22.160133,31.978069 C 22.160133,31.978069 26.997745,27.140456 26.997745,27.140456 C 18.528582,18.264221 13.291696,25.230495 11.500037,31.436501 z"
     style="fill:#404040;"/>
  </a>
 </g>
</svg>

<style type='text/css'>
<![CDATA[
[data-mouse-over-selected='false'] { opacity: 0.7; }
[data-mouse-over-selected='true']  { opacity: 1.0; }
]]>
</style>
<script type="application/ecmascript"><![CDATA[
document.addEventListener('DOMContentLoaded', (event) => {
  highlightEdges();
  highlightAdjacentNodes();
});
]]></script>
</svg>
