<?xml version="1.0" encoding="UTF-8" standalone="no"?>
<!DOCTYPE svg PUBLIC "-//W3C//DTD SVG 1.1//EN"
 "http://www.w3.org/Graphics/SVG/1.1/DTD/svg11.dtd">
<!-- Generated by graphviz version 12.1.0 (20240811.2233)
 -->
<!-- Title: svg::point_to_triangle Pages: 1 -->
<svg width="807pt" height="354pt"
 viewBox="0.00 0.00 806.75 354.00" xmlns="http://www.w3.org/2000/svg" xmlns:xlink="http://www.w3.org/1999/xlink">
<g id="graph0" class="graph" transform="scale(1 1) rotate(0) translate(4 350)">
<title>svg::point_to_triangle</title>
<!-- Node1 -->
<g id="Node000001" class="node">
<title>Node1</title>
<g id="a_Node000001"><a xlink:title="Center a triangle at this point.">
<polygon fill="#999999" stroke="#666666" points="98.5,-221 0,-221 0,-201 98.5,-201 98.5,-221"/>
<text text-anchor="middle" x="49.25" y="-209.4" font-family="SourceSans" font-size="8.00">svg::point_to_triangle</text>
</a>
</g>
</g>
<!-- Node2 -->
<g id="Node000002" class="node">
<title>Node2</title>
<g id="a_Node000002"><a xlink:href="group__elements.html#aaa5f1a136f2b5c61d647a47ec53fe31d" target="_top" xlink:title=" ">
<polygon fill="white" stroke="#666666" points="239.75,-280 139,-280 139,-248 239.75,-248 239.75,-280"/>
<text text-anchor="start" x="147" y="-268.4" font-family="SourceSans" font-size="8.00">svg::svg_element::add</text>
<text text-anchor="middle" x="189.38" y="-256.4" font-family="SourceSans" font-size="8.00">_element</text>
</a>
</g>
</g>
<!-- Node1&#45;&gt;Node2 -->
<g id="edge1_Node000001_Node000002" class="edge">
<title>Node1&#45;&gt;Node2</title>
<g id="a_edge1_Node000001_Node000002"><a xlink:title=" ">
<path fill="none" stroke="#63b8ff" d="M77.54,-221.47C93.92,-227.76 115.33,-235.97 134.96,-243.51"/>
<polygon fill="#63b8ff" stroke="#63b8ff" points="133.64,-246.75 144.23,-247.06 136.15,-240.21 133.64,-246.75"/>
</a>
</g>
</g>
<!-- Node4 -->
<g id="Node000004" class="node">
<title>Node4</title>
<g id="a_Node000004"><a xlink:href="namespacesvg.html#a7172c35bcf356f5675e22033ba8b9f9b" target="_top" xlink:title="Center a triangle at this point.">
<polygon fill="white" stroke="#666666" points="244.25,-199 134.5,-199 134.5,-179 244.25,-179 244.25,-199"/>
<text text-anchor="middle" x="189.38" y="-187.4" font-family="SourceSans" font-size="8.00">svg::make_path_triangle</text>
</a>
</g>
</g>
<!-- Node1&#45;&gt;Node4 -->
<g id="edge3_Node000001_Node000004" class="edge">
<title>Node1&#45;&gt;Node4</title>
<g id="a_edge3_Node000001_Node000004"><a xlink:title=" ">
<path fill="none" stroke="#63b8ff" d="M98.95,-203.24C106.85,-201.98 115.14,-200.66 123.36,-199.36"/>
<polygon fill="#63b8ff" stroke="#63b8ff" points="123.66,-202.85 132.98,-197.82 122.55,-195.94 123.66,-202.85"/>
</a>
</g>
</g>
<!-- Node3 -->
<g id="Node000003" class="node">
<title>Node3</title>
<g id="a_Node000003"><a xlink:href="group__elements.html#ad893ef9c13a15464c96d8a85c08af30f" target="_top" xlink:title=" ">
<polygon fill="white" stroke="#666666" points="387,-323 286.25,-323 286.25,-303 387,-303 387,-323"/>
<text text-anchor="middle" x="336.62" y="-311.4" font-family="SourceSans" font-size="8.00">svg::element_base::str</text>
</a>
</g>
</g>
<!-- Node2&#45;&gt;Node3 -->
<g id="edge2_Node000002_Node000003" class="edge">
<title>Node2&#45;&gt;Node3</title>
<g id="a_edge2_Node000002_Node000003"><a xlink:title=" ">
<path fill="none" stroke="#63b8ff" d="M239.15,-280.45C256.86,-286.43 276.7,-293.12 293.76,-298.88"/>
<polygon fill="#63b8ff" stroke="#63b8ff" points="292.5,-302.14 303.09,-302.02 294.73,-295.51 292.5,-302.14"/>
</a>
</g>
</g>
<!-- Node5 -->
<g id="Node000005" class="node">
<title>Node5</title>
<g id="a_Node000005"><a xlink:href="namespacesvg.html#ab44508c4aeca591141ebec50145b75cd" target="_top" xlink:title="Angle in degrees.">
<polygon fill="white" stroke="#666666" points="388.5,-285 284.75,-285 284.75,-253 388.5,-253 388.5,-285"/>
<text text-anchor="start" x="292.75" y="-273.4" font-family="SourceSans" font-size="8.00">svg::get_circumference</text>
<text text-anchor="middle" x="336.62" y="-261.4" font-family="SourceSans" font-size="8.00">_point_d</text>
</a>
</g>
</g>
<!-- Node4&#45;&gt;Node5 -->
<g id="edge4_Node000004_Node000005" class="edge">
<title>Node4&#45;&gt;Node5</title>
<g id="a_edge4_Node000004_Node000005"><a xlink:title=" ">
<path fill="none" stroke="#63b8ff" d="M209.36,-199.46C231.21,-211.49 267.69,-231.58 295.84,-247.08"/>
<polygon fill="#63b8ff" stroke="#63b8ff" points="294.01,-250.08 304.46,-251.83 297.39,-243.94 294.01,-250.08"/>
</a>
</g>
</g>
<!-- Node8 -->
<g id="Node000008" class="node">
<title>Node8</title>
<g id="a_Node000008"><a xlink:href="namespacesvg_1_1constants.html#ae42b583ceed2552c466993683f819ef2" target="_top" xlink:title=" ">
<polygon fill="white" stroke="#666666" points="388.5,-218 284.75,-218 284.75,-198 388.5,-198 388.5,-218"/>
<text text-anchor="middle" x="336.62" y="-206.4" font-family="SourceSans" font-size="8.00">svg::constants::hyphen</text>
</a>
</g>
</g>
<!-- Node4&#45;&gt;Node8 -->
<g id="edge7_Node000004_Node000008" class="edge">
<title>Node4&#45;&gt;Node8</title>
<g id="a_edge7_Node000004_Node000008"><a xlink:title=" ">
<path fill="none" stroke="#63b8ff" d="M244.46,-196.07C253.85,-197.3 263.69,-198.59 273.28,-199.84"/>
<polygon fill="#63b8ff" stroke="#63b8ff" points="272.51,-203.27 282.88,-201.1 273.42,-196.33 272.51,-203.27"/>
</a>
</g>
</g>
<!-- Node9 -->
<g id="Node000009" class="node">
<title>Node9</title>
<g id="a_Node000009"><a xlink:href="namespacesvg.html#a8425f83abab02eedb240bc2a893cd513" target="_top" xlink:title="Draw path given serialized path data. Assumes pinstripe, ie top and bottom line layers....">
<polygon fill="white" stroke="#666666" points="374.62,-180 298.62,-180 298.62,-160 374.62,-160 374.62,-180"/>
<text text-anchor="middle" x="336.62" y="-168.4" font-family="SourceSans" font-size="8.00">svg::make_path</text>
</a>
</g>
</g>
<!-- Node4&#45;&gt;Node9 -->
<g id="edge8_Node000004_Node000009" class="edge">
<title>Node4&#45;&gt;Node9</title>
<g id="a_edge8_Node000004_Node000009"><a xlink:title=" ">
<path fill="none" stroke="#63b8ff" d="M244.46,-181.93C258.45,-180.1 273.42,-178.14 287.11,-176.35"/>
<polygon fill="#63b8ff" stroke="#63b8ff" points="287.29,-179.85 296.75,-175.09 286.38,-172.91 287.29,-179.85"/>
</a>
</g>
</g>
<!-- Node19 -->
<g id="Node000019" class="node">
<title>Node19</title>
<g id="a_Node000019"><a xlink:href="namespacesvg.html#a2c65de7707b8b7b1bca959a3a2bbba91" target="_top" xlink:title="Make single path segment.">
<polygon fill="white" stroke="#666666" points="385.12,-142 288.12,-142 288.12,-110 385.12,-110 385.12,-142"/>
<text text-anchor="start" x="296.12" y="-130.4" font-family="SourceSans" font-size="8.00">svg::make_path_data</text>
<text text-anchor="middle" x="336.62" y="-118.4" font-family="SourceSans" font-size="8.00">_from_points</text>
</a>
</g>
</g>
<!-- Node4&#45;&gt;Node19 -->
<g id="edge21_Node000004_Node000019" class="edge">
<title>Node4&#45;&gt;Node19</title>
<g id="a_edge21_Node000004_Node000019"><a xlink:title=" ">
<path fill="none" stroke="#63b8ff" d="M214.36,-178.6C234.08,-170.04 262.66,-157.65 287.13,-147.04"/>
<polygon fill="#63b8ff" stroke="#63b8ff" points="288.5,-150.25 296.28,-143.06 285.72,-143.83 288.5,-150.25"/>
</a>
</g>
</g>
<!-- Node21 -->
<g id="Node000021" class="node">
<title>Node21</title>
<g id="a_Node000021"><a xlink:href="namespacesvg.html#a46164d75fd5109e4ed8879abbacd5c11" target="_top" xlink:title="Zero degrees is top, going clockwise (cw).">
<polygon fill="white" stroke="#666666" points="393,-92 280.25,-92 280.25,-72 393,-72 393,-92"/>
<text text-anchor="middle" x="336.62" y="-80.4" font-family="SourceSans" font-size="8.00">svg::zero_angle_north_cw</text>
</a>
</g>
</g>
<!-- Node4&#45;&gt;Node21 -->
<g id="edge23_Node000004_Node000021" class="edge">
<title>Node4&#45;&gt;Node21</title>
<g id="a_edge23_Node000004_Node000021"><a xlink:title=" ">
<path fill="none" stroke="#63b8ff" d="M198.4,-178.52C212.88,-160.31 245.12,-122.67 280.25,-101 282.51,-99.6 284.89,-98.3 287.34,-97.07"/>
<polygon fill="#63b8ff" stroke="#63b8ff" points="288.55,-100.36 296.28,-93.11 285.72,-93.96 288.55,-100.36"/>
</a>
</g>
</g>
<!-- Node6 -->
<g id="Node000006" class="node">
<title>Node6</title>
<g id="a_Node000006"><a xlink:href="namespacesvg.html#aef05ac63d88a6102981d3faf37275297" target="_top" xlink:title="Angle in radians.">
<polygon fill="white" stroke="#666666" points="532.75,-346 429,-346 429,-314 532.75,-314 532.75,-346"/>
<text text-anchor="start" x="437" y="-334.4" font-family="SourceSans" font-size="8.00">svg::get_circumference</text>
<text text-anchor="middle" x="480.88" y="-322.4" font-family="SourceSans" font-size="8.00">_point_r</text>
</a>
</g>
</g>
<!-- Node5&#45;&gt;Node6 -->
<g id="edge5_Node000005_Node000006" class="edge">
<title>Node5&#45;&gt;Node6</title>
<g id="a_edge5_Node000005_Node000006"><a xlink:title=" ">
<path fill="none" stroke="#63b8ff" d="M375.75,-285.35C392.81,-292.66 413.12,-301.38 431.26,-309.15"/>
<polygon fill="#63b8ff" stroke="#63b8ff" points="429.69,-312.29 440.26,-313.01 432.45,-305.85 429.69,-312.29"/>
</a>
</g>
</g>
<!-- Node7 -->
<g id="Node000007" class="node">
<title>Node7</title>
<g id="a_Node000007"><a xlink:href="namespacesvg_1_1constants.html#a0e0b0d9314bc47324ee39884bf8bb2fd" target="_top" xlink:title=" ">
<polygon fill="white" stroke="#666666" points="521.88,-296 439.88,-296 439.88,-276 521.88,-276 521.88,-296"/>
<text text-anchor="middle" x="480.88" y="-284.4" font-family="SourceSans" font-size="8.00">svg::constants::pi</text>
</a>
</g>
</g>
<!-- Node5&#45;&gt;Node7 -->
<g id="edge6_Node000005_Node000007" class="edge">
<title>Node5&#45;&gt;Node7</title>
<g id="a_edge6_Node000005_Node000007"><a xlink:title=" ">
<path fill="none" stroke="#63b8ff" d="M388.98,-275.14C401.91,-276.68 415.78,-278.34 428.7,-279.88"/>
<polygon fill="#63b8ff" stroke="#63b8ff" points="427.91,-283.31 438.25,-281.03 428.74,-276.36 427.91,-283.31"/>
</a>
</g>
</g>
<!-- Node10 -->
<g id="Node000010" class="node">
<title>Node10</title>
<g id="a_Node000010"><a xlink:href="group__elements.html#a807f3c30f2ace338ad10aaf230b47665" target="_top" xlink:title="Either serialize immediately (as below), or create data structure that adds data to data_vec and then...">
<polygon fill="white" stroke="#666666" points="526.38,-258 435.38,-258 435.38,-226 526.38,-226 526.38,-258"/>
<text text-anchor="start" x="443.38" y="-246.4" font-family="SourceSans" font-size="8.00">svg::path_element::</text>
<text text-anchor="middle" x="480.88" y="-234.4" font-family="SourceSans" font-size="8.00">add_data</text>
</a>
</g>
</g>
<!-- Node9&#45;&gt;Node10 -->
<g id="edge9_Node000009_Node000010" class="edge">
<title>Node9&#45;&gt;Node10</title>
<g id="a_edge9_Node000009_Node000010"><a xlink:title=" ">
<path fill="none" stroke="#63b8ff" d="M373.81,-180.48C380.36,-182.92 387.01,-185.76 393,-189 410.83,-198.64 411.81,-206.25 429,-217 430.63,-218.02 432.32,-219.03 434.03,-220.03"/>
<polygon fill="#63b8ff" stroke="#63b8ff" points="432.29,-223.07 442.74,-224.83 435.67,-216.94 432.29,-223.07"/>
</a>
</g>
</g>
<!-- Node12 -->
<g id="Node000012" class="node">
<title>Node12</title>
<g id="a_Node000012"><a xlink:href="group__elements.html#a238b38ca99a1cf6c2baf80c8e4338d99" target="_top" xlink:title=" ">
<polygon fill="white" stroke="#666666" points="526.38,-208 435.38,-208 435.38,-176 526.38,-176 526.38,-208"/>
<text text-anchor="start" x="443.38" y="-196.4" font-family="SourceSans" font-size="8.00">svg::element_base::</text>
<text text-anchor="middle" x="480.88" y="-184.4" font-family="SourceSans" font-size="8.00">add_style</text>
</a>
</g>
</g>
<!-- Node9&#45;&gt;Node12 -->
<g id="edge11_Node000009_Node000012" class="edge">
<title>Node9&#45;&gt;Node12</title>
<g id="a_edge11_Node000009_Node000012"><a xlink:title=" ">
<path fill="none" stroke="#63b8ff" d="M375,-175.78C389.91,-178.09 407.41,-180.79 423.78,-183.33"/>
<polygon fill="#63b8ff" stroke="#63b8ff" points="422.99,-186.74 433.4,-184.81 424.06,-179.83 422.99,-186.74"/>
</a>
</g>
</g>
<!-- Node13 -->
<g id="Node000013" class="node">
<title>Node13</title>
<g id="a_Node000013"><a xlink:href="namespacesvg.html#a36b1c48ad4601b205790e3772ad0a7b6" target="_top" xlink:title=" ">
<polygon fill="white" stroke="#666666" points="647,-199 580,-199 580,-179 647,-179 647,-199"/>
<text text-anchor="middle" x="613.5" y="-187.4" font-family="SourceSans" font-size="8.00">svg::to_string</text>
</a>
</g>
</g>
<!-- Node9&#45;&gt;Node13 -->
<g id="edge20_Node000009_Node000013" class="edge">
<title>Node9&#45;&gt;Node13</title>
<g id="a_edge20_Node000009_Node000013"><a xlink:title=" ">
<path fill="none" stroke="#63b8ff" d="M374.87,-166.14C414.28,-162.81 478.19,-159.61 532.75,-167 545.5,-168.73 559.09,-171.94 571.37,-175.38"/>
<polygon fill="#63b8ff" stroke="#63b8ff" points="570.19,-178.69 580.77,-178.15 572.17,-171.97 570.19,-178.69"/>
</a>
</g>
</g>
<!-- Node14 -->
<g id="Node000014" class="node">
<title>Node14</title>
<g id="a_Node000014"><a xlink:href="group__elements.html#gaac30ae99fb1a2542688fa1ffb43cd8e1" target="_top" xlink:title=" ">
<polygon fill="white" stroke="#666666" points="526.38,-120 435.38,-120 435.38,-88 526.38,-88 526.38,-120"/>
<text text-anchor="start" x="443.38" y="-108.4" font-family="SourceSans" font-size="8.00">svg::path_element::</text>
<text text-anchor="middle" x="480.88" y="-96.4" font-family="SourceSans" font-size="8.00">finish_element</text>
</a>
</g>
</g>
<!-- Node9&#45;&gt;Node14 -->
<g id="edge13_Node000009_Node000014" class="edge">
<title>Node9&#45;&gt;Node14</title>
<g id="a_edge13_Node000009_Node000014"><a xlink:title=" ">
<path fill="none" stroke="#63b8ff" d="M371.06,-159.53C378.38,-156.96 386.02,-154.06 393,-151 409.59,-143.73 427.28,-134.45 442.33,-126.07"/>
<polygon fill="#63b8ff" stroke="#63b8ff" points="443.99,-129.15 450.98,-121.19 440.55,-123.06 443.99,-129.15"/>
</a>
</g>
</g>
<!-- Node17 -->
<g id="Node000017" class="node">
<title>Node17</title>
<g id="a_Node000017"><a xlink:href="group__elements.html#a6dbca7cef2cbc0c10aa44c44ae20b36e" target="_top" xlink:title=" ">
<polygon fill="white" stroke="#666666" points="526.38,-70 435.38,-70 435.38,-38 526.38,-38 526.38,-70"/>
<text text-anchor="start" x="443.38" y="-58.4" font-family="SourceSans" font-size="8.00">svg::path_element::</text>
<text text-anchor="middle" x="480.88" y="-46.4" font-family="SourceSans" font-size="8.00">start_element</text>
</a>
</g>
</g>
<!-- Node9&#45;&gt;Node17 -->
<g id="edge17_Node000009_Node000017" class="edge">
<title>Node9&#45;&gt;Node17</title>
<g id="a_edge17_Node000009_Node000017"><a xlink:title=" ">
<path fill="none" stroke="#63b8ff" d="M374.94,-161.67C381.45,-159.03 387.8,-155.55 393,-151 419.92,-127.44 403.61,-104.21 429,-79 429.6,-78.4 430.22,-77.82 430.86,-77.24"/>
<polygon fill="#63b8ff" stroke="#63b8ff" points="432.77,-80.18 438.62,-71.34 428.54,-74.61 432.77,-80.18"/>
</a>
</g>
</g>
<!-- Node11 -->
<g id="Node000011" class="node">
<title>Node11</title>
<g id="a_Node000011"><a xlink:href="namespacesvg.html#a48ac748e89e22789d1772326a98dd7b6" target="_top" xlink:title=" ">
<polygon fill="white" stroke="#666666" points="657.12,-252 569.88,-252 569.88,-232 657.12,-232 657.12,-252"/>
<text text-anchor="middle" x="613.5" y="-240.4" font-family="SourceSans" font-size="8.00">svg::string_replace</text>
</a>
</g>
</g>
<!-- Node10&#45;&gt;Node11 -->
<g id="edge10_Node000010_Node000011" class="edge">
<title>Node10&#45;&gt;Node11</title>
<g id="a_edge10_Node000010_Node000011"><a xlink:title=" ">
<path fill="none" stroke="#63b8ff" d="M526.83,-242C537.02,-242 547.94,-242 558.46,-242"/>
<polygon fill="#63b8ff" stroke="#63b8ff" points="558.15,-245.5 568.15,-242 558.15,-238.5 558.15,-245.5"/>
</a>
</g>
</g>
<!-- Node12&#45;&gt;Node13 -->
<g id="edge12_Node000012_Node000013" class="edge">
<title>Node12&#45;&gt;Node13</title>
<g id="a_edge12_Node000012_Node000013"><a xlink:title=" ">
<path fill="none" stroke="#63b8ff" d="M526.83,-190.97C540.3,-190.66 555.05,-190.32 568.46,-190.01"/>
<polygon fill="#63b8ff" stroke="#63b8ff" points="568.41,-193.51 578.32,-189.78 568.25,-186.52 568.41,-193.51"/>
</a>
</g>
</g>
<!-- Node15 -->
<g id="Node000015" class="node">
<title>Node15</title>
<g id="a_Node000015"><a xlink:href="group__elements.html#ga503ee2895588a6c684e2b1614cf4e73d" target="_top" xlink:title=" ">
<polygon fill="white" stroke="#666666" points="658.25,-158 568.75,-158 568.75,-126 658.25,-126 658.25,-158"/>
<text text-anchor="start" x="576.75" y="-146.4" font-family="SourceSans" font-size="8.00">svg::defs_element::</text>
<text text-anchor="middle" x="613.5" y="-134.4" font-family="SourceSans" font-size="8.00">finish_element</text>
</a>
</g>
</g>
<!-- Node14&#45;&gt;Node15 -->
<g id="edge14_Node000014_Node000015" class="edge">
<title>Node14&#45;&gt;Node15</title>
<g id="a_edge14_Node000014_Node000015"><a xlink:title=" ">
<path fill="none" stroke="#63b8ff" d="M526.83,-117.08C536.69,-119.95 547.24,-123.02 557.45,-125.99"/>
<polygon fill="#63b8ff" stroke="#63b8ff" points="556.31,-129.3 566.89,-128.73 558.27,-122.58 556.31,-129.3"/>
</a>
</g>
</g>
<!-- Node16 -->
<g id="Node000016" class="node">
<title>Node16</title>
<g id="a_Node000016"><a xlink:href="namespacesvg_1_1constants.html#aa7f04c2ea699a1b1e2e790de5ac33f38" target="_top" xlink:title=" ">
<polygon fill="white" stroke="#666666" points="798.75,-108 694.25,-108 694.25,-88 798.75,-88 798.75,-108"/>
<text text-anchor="middle" x="746.5" y="-96.4" font-family="SourceSans" font-size="8.00">svg::constants::newline</text>
</a>
</g>
</g>
<!-- Node14&#45;&gt;Node16 -->
<g id="edge16_Node000014_Node000016" class="edge">
<title>Node14&#45;&gt;Node16</title>
<g id="a_edge16_Node000014_Node000016"><a xlink:title=" ">
<path fill="none" stroke="#63b8ff" d="M526.6,-102.98C569.43,-102.01 634.49,-100.53 682.56,-99.43"/>
<polygon fill="#63b8ff" stroke="#63b8ff" points="682.34,-102.94 692.25,-99.21 682.18,-95.94 682.34,-102.94"/>
</a>
</g>
</g>
<!-- Node15&#45;&gt;Node16 -->
<g id="edge15_Node000015_Node000016" class="edge">
<title>Node15&#45;&gt;Node16</title>
<g id="a_edge15_Node000015_Node000016"><a xlink:title=" ">
<path fill="none" stroke="#63b8ff" d="M658.49,-127.23C673.06,-122.33 689.23,-116.9 703.63,-112.06"/>
<polygon fill="#63b8ff" stroke="#63b8ff" points="704.45,-115.48 712.82,-108.98 702.22,-108.84 704.45,-115.48"/>
</a>
</g>
</g>
<!-- Node18 -->
<g id="Node000018" class="node">
<title>Node18</title>
<g id="a_Node000018"><a xlink:href="group__elements.html#a948868c6f5dea784ded14c26cc1d2139" target="_top" xlink:title=" ">
<polygon fill="white" stroke="#666666" points="658.25,-70 568.75,-70 568.75,-38 658.25,-38 658.25,-70"/>
<text text-anchor="start" x="576.75" y="-58.4" font-family="SourceSans" font-size="8.00">svg::defs_element::</text>
<text text-anchor="middle" x="613.5" y="-46.4" font-family="SourceSans" font-size="8.00">start_element</text>
</a>
</g>
</g>
<!-- Node17&#45;&gt;Node18 -->
<g id="edge18_Node000017_Node000018" class="edge">
<title>Node17&#45;&gt;Node18</title>
<g id="a_edge18_Node000017_Node000018"><a xlink:title=" ">
<path fill="none" stroke="#63b8ff" d="M526.83,-54C536.59,-54 547.02,-54 557.13,-54"/>
<polygon fill="#63b8ff" stroke="#63b8ff" points="556.83,-57.5 566.83,-54 556.83,-50.5 556.83,-57.5"/>
</a>
</g>
</g>
<!-- Node18&#45;&gt;Node16 -->
<g id="edge19_Node000018_Node000016" class="edge">
<title>Node18&#45;&gt;Node16</title>
<g id="a_edge19_Node000018_Node000016"><a xlink:title=" ">
<path fill="none" stroke="#63b8ff" d="M658.49,-68.77C673.06,-73.67 689.23,-79.1 703.63,-83.94"/>
<polygon fill="#63b8ff" stroke="#63b8ff" points="702.22,-87.16 712.82,-87.02 704.45,-80.52 702.22,-87.16"/>
</a>
</g>
</g>
<!-- Node20 -->
<g id="Node000020" class="node">
<title>Node20</title>
<g id="a_Node000020"><a xlink:href="namespacesvg_1_1constants.html#ac460bc8db60d85c3ae1cf8b1a903405e" target="_top" xlink:title="Formatting character constants.">
<polygon fill="white" stroke="#666666" points="529,-20 432.75,-20 432.75,0 529,0 529,-20"/>
<text text-anchor="middle" x="480.88" y="-8.4" font-family="SourceSans" font-size="8.00">svg::constants::space</text>
</a>
</g>
</g>
<!-- Node19&#45;&gt;Node20 -->
<g id="edge22_Node000019_Node000020" class="edge">
<title>Node19&#45;&gt;Node20</title>
<g id="a_edge22_Node000019_Node000020"><a xlink:title=" ">
<path fill="none" stroke="#63b8ff" d="M381.77,-109.58C385.82,-107.07 389.65,-104.22 393,-101 418.79,-76.21 402.39,-52.92 429,-29 430.06,-28.04 431.18,-27.13 432.34,-26.27"/>
<polygon fill="#63b8ff" stroke="#63b8ff" points="433.88,-29.43 440.61,-21.25 430.25,-23.44 433.88,-29.43"/>
</a>
</g>
</g>
</g>
</svg>
