<?xml version="1.0" encoding="UTF-8" standalone="no"?>
<!DOCTYPE svg PUBLIC "-//W3C//DTD SVG 1.1//EN"
 "http://www.w3.org/Graphics/SVG/1.1/DTD/svg11.dtd">
<!-- Generated by graphviz version 13.1.2 (20250808.2320)
 -->
<!-- Title: svg::make_marker_triangle Pages: 1 -->
<svg width="695pt" height="385pt"
 viewBox="0.00 0.00 695.00 385.00" xmlns="http://www.w3.org/2000/svg" xmlns:xlink="http://www.w3.org/1999/xlink">
<g id="graph0" class="graph" transform="scale(1 1) rotate(0) translate(4 381)">
<title>svg::make_marker_triangle</title>
<!-- Node1 -->
<g id="Node000001" class="node">
<title>Node1</title>
<g id="a_Node000001"><a xlink:title=" ">
<polygon fill="#999999" stroke="#666666" points="118.75,-200 0,-200 0,-180 118.75,-180 118.75,-200"/>
<text xml:space="preserve" text-anchor="middle" x="59.38" y="-188.4" font-family="SourceSans" font-size="8.00">svg::make_marker_triangle</text>
</a>
</g>
</g>
<!-- Node2 -->
<g id="Node000002" class="node">
<title>Node2</title>
<g id="a_Node000002"><a xlink:href="namespacesvg.html#a56ab414cf370cb20fa25d06d2a9b07bb" target="_top" xlink:title="Base function for generating SVG markers in a defs section.">
<polygon fill="white" stroke="#666666" points="275,-305 154.75,-305 154.75,-285 275,-285 275,-305"/>
<text xml:space="preserve" text-anchor="middle" x="214.88" y="-293.4" font-family="SourceSans" font-size="8.00">svg::make_marker_element</text>
</a>
</g>
</g>
<!-- Node1&#45;&gt;Node2 -->
<g id="edge1_Node000001_Node000002" class="edge">
<title>Node1&#45;&gt;Node2</title>
<g id="a_edge1_Node000001_Node000002"><a xlink:title=" ">
<path fill="none" stroke="#63b8ff" d="M75.65,-200.45C102.32,-218.69 157.55,-256.47 189.53,-278.35"/>
<polygon fill="#63b8ff" stroke="#63b8ff" points="187.18,-280.98 197.41,-283.74 191.13,-275.2 187.18,-280.98"/>
</a>
</g>
</g>
<!-- Node6 -->
<g id="Node000006" class="node">
<title>Node6</title>
<g id="a_Node000006"><a xlink:href="namespacesvg.html#a9f93529d8f92bb1ffb5d84478e22aff4" target="_top" xlink:title="Center an octogon at this point. radius 4 is pixels to draw out from center point....">
<polygon fill="white" stroke="#666666" points="270.12,-156 159.62,-156 159.62,-136 270.12,-136 270.12,-156"/>
<text xml:space="preserve" text-anchor="middle" x="214.88" y="-144.4" font-family="SourceSans" font-size="8.00">svg::make_path_polygon</text>
</a>
</g>
</g>
<!-- Node1&#45;&gt;Node6 -->
<g id="edge5_Node000001_Node000006" class="edge">
<title>Node1&#45;&gt;Node6</title>
<g id="a_edge5_Node000001_Node000006"><a xlink:title=" ">
<path fill="none" stroke="#63b8ff" d="M96.75,-179.57C117.61,-173.59 144.03,-166.02 166.49,-159.58"/>
<polygon fill="#63b8ff" stroke="#63b8ff" points="167.39,-162.97 176.04,-156.85 165.46,-156.24 167.39,-162.97"/>
</a>
</g>
</g>
<!-- Node3 -->
<g id="Node000003" class="node">
<title>Node3</title>
<g id="a_Node000003"><a xlink:href="group__elements.html#acafbdd950c6c2639c9d376c3eab696e5" target="_top" xlink:title=" ">
<polygon fill="white" stroke="#666666" points="557.12,-358 466.12,-358 466.12,-326 557.12,-326 557.12,-358"/>
<text xml:space="preserve" text-anchor="start" x="474.12" y="-346.4" font-family="SourceSans" font-size="8.00">svg::element_base::</text>
<text xml:space="preserve" text-anchor="middle" x="511.62" y="-334.4" font-family="SourceSans" font-size="8.00">add_raw</text>
</a>
</g>
</g>
<!-- Node2&#45;&gt;Node3 -->
<g id="edge2_Node000002_Node000003" class="edge">
<title>Node2&#45;&gt;Node3</title>
<g id="a_edge2_Node000002_Node000003"><a xlink:title=" ">
<path fill="none" stroke="#63b8ff" d="M275.17,-304.45C327.52,-312.8 403.31,-324.89 454.65,-333.07"/>
<polygon fill="#63b8ff" stroke="#63b8ff" points="453.93,-336.5 464.36,-334.62 455.03,-329.59 453.93,-336.5"/>
</a>
</g>
</g>
<!-- Node4 -->
<g id="Node000004" class="node">
<title>Node4</title>
<g id="a_Node000004"><a xlink:href="group__elements.html#gab7270e660dcac30ea26157764f230e03" target="_top" xlink:title=" ">
<polygon fill="white" stroke="#666666" points="415.12,-289 319.62,-289 319.62,-257 415.12,-257 415.12,-289"/>
<text xml:space="preserve" text-anchor="start" x="327.62" y="-277.4" font-family="SourceSans" font-size="8.00">svg::marker_element</text>
<text xml:space="preserve" text-anchor="middle" x="367.38" y="-265.4" font-family="SourceSans" font-size="8.00">::finish_element</text>
</a>
</g>
</g>
<!-- Node2&#45;&gt;Node4 -->
<g id="edge3_Node000002_Node000004" class="edge">
<title>Node2&#45;&gt;Node4</title>
<g id="a_edge3_Node000002_Node000004"><a xlink:title=" ">
<path fill="none" stroke="#63b8ff" d="M275.36,-286.31C286.1,-284.74 297.29,-283.1 307.99,-281.53"/>
<polygon fill="#63b8ff" stroke="#63b8ff" points="308.5,-285 317.88,-280.09 307.48,-278.07 308.5,-285"/>
</a>
</g>
</g>
<!-- Node5 -->
<g id="Node000005" class="node">
<title>Node5</title>
<g id="a_Node000005"><a xlink:href="group__elements.html#ac4cb549d62ec6d614189e4585089c58d" target="_top" xlink:title=" ">
<polygon fill="white" stroke="#666666" points="415.12,-377 319.62,-377 319.62,-345 415.12,-345 415.12,-377"/>
<text xml:space="preserve" text-anchor="start" x="327.62" y="-365.4" font-family="SourceSans" font-size="8.00">svg::marker_element</text>
<text xml:space="preserve" text-anchor="middle" x="367.38" y="-353.4" font-family="SourceSans" font-size="8.00">::start_element</text>
</a>
</g>
</g>
<!-- Node2&#45;&gt;Node5 -->
<g id="edge4_Node000002_Node000005" class="edge">
<title>Node2&#45;&gt;Node5</title>
<g id="a_edge4_Node000002_Node000005"><a xlink:title=" ">
<path fill="none" stroke="#63b8ff" d="M239.72,-305.46C260.78,-314.69 292.11,-328.43 318.34,-339.94"/>
<polygon fill="#63b8ff" stroke="#63b8ff" points="316.91,-343.13 327.47,-343.94 319.72,-336.72 316.91,-343.13"/>
</a>
</g>
</g>
<!-- Node7 -->
<g id="Node000007" class="node">
<title>Node7</title>
<g id="a_Node000007"><a xlink:href="namespacesvg.html#ab44508c4aeca591141ebec50145b75cd" target="_top" xlink:title="Angle in degrees.">
<polygon fill="white" stroke="#666666" points="419.25,-46 315.5,-46 315.5,-14 419.25,-14 419.25,-46"/>
<text xml:space="preserve" text-anchor="start" x="323.5" y="-34.4" font-family="SourceSans" font-size="8.00">svg::get_circumference</text>
<text xml:space="preserve" text-anchor="middle" x="367.38" y="-22.4" font-family="SourceSans" font-size="8.00">_point_d</text>
</a>
</g>
</g>
<!-- Node6&#45;&gt;Node7 -->
<g id="edge6_Node000006_Node000007" class="edge">
<title>Node6&#45;&gt;Node7</title>
<g id="a_edge6_Node000006_Node000007"><a xlink:title=" ">
<path fill="none" stroke="#63b8ff" d="M229.5,-135.5C253.4,-117.08 303.45,-78.5 335.95,-53.45"/>
<polygon fill="#63b8ff" stroke="#63b8ff" points="338.04,-56.26 343.82,-47.38 333.76,-50.72 338.04,-56.26"/>
</a>
</g>
</g>
<!-- Node9 -->
<g id="Node000009" class="node">
<title>Node9</title>
<g id="a_Node000009"><a xlink:href="namespacesvg.html#a302d3f13fef13ef823b99cfabcfac3ab" target="_top" xlink:title="Draw path given serialized path data. Can be used to make pinstripes, ie top and bottom line layers....">
<polygon fill="white" stroke="#666666" points="405.38,-214 329.38,-214 329.38,-194 405.38,-194 405.38,-214"/>
<text xml:space="preserve" text-anchor="middle" x="367.38" y="-202.4" font-family="SourceSans" font-size="8.00">svg::make_path</text>
</a>
</g>
</g>
<!-- Node6&#45;&gt;Node9 -->
<g id="edge8_Node000006_Node000009" class="edge">
<title>Node6&#45;&gt;Node9</title>
<g id="a_edge8_Node000006_Node000009"><a xlink:title=" ">
<path fill="none" stroke="#63b8ff" d="M242.78,-156.37C266.71,-165.59 301.95,-179.17 328.68,-189.47"/>
<polygon fill="#63b8ff" stroke="#63b8ff" points="327.19,-192.65 337.78,-192.98 329.71,-186.12 327.19,-192.65"/>
</a>
</g>
</g>
<!-- Node16 -->
<g id="Node000016" class="node">
<title>Node16</title>
<g id="a_Node000016"><a xlink:href="namespacesvg.html#a2c65de7707b8b7b1bca959a3a2bbba91" target="_top" xlink:title="Make single path segment.">
<polygon fill="white" stroke="#666666" points="415.88,-162 318.88,-162 318.88,-130 415.88,-130 415.88,-162"/>
<text xml:space="preserve" text-anchor="start" x="326.88" y="-150.4" font-family="SourceSans" font-size="8.00">svg::make_path_data</text>
<text xml:space="preserve" text-anchor="middle" x="367.38" y="-138.4" font-family="SourceSans" font-size="8.00">_from_points</text>
</a>
</g>
</g>
<!-- Node6&#45;&gt;Node16 -->
<g id="edge17_Node000006_Node000016" class="edge">
<title>Node6&#45;&gt;Node16</title>
<g id="a_edge17_Node000006_Node000016"><a xlink:title=" ">
<path fill="none" stroke="#63b8ff" d="M270.21,-146C282.2,-146 294.97,-146 307.15,-146"/>
<polygon fill="#63b8ff" stroke="#63b8ff" points="307.09,-149.5 317.09,-146 307.09,-142.5 307.09,-149.5"/>
</a>
</g>
</g>
<!-- Node18 -->
<g id="Node000018" class="node">
<title>Node18</title>
<g id="a_Node000018"><a xlink:href="namespacesvg.html#a46164d75fd5109e4ed8879abbacd5c11" target="_top" xlink:title="Zero degrees is top, going clockwise (cw).">
<polygon fill="white" stroke="#666666" points="423.75,-112 311,-112 311,-92 423.75,-92 423.75,-112"/>
<text xml:space="preserve" text-anchor="middle" x="367.38" y="-100.4" font-family="SourceSans" font-size="8.00">svg::zero_angle_north_cw</text>
</a>
</g>
</g>
<!-- Node6&#45;&gt;Node18 -->
<g id="edge19_Node000006_Node000018" class="edge">
<title>Node6&#45;&gt;Node18</title>
<g id="a_edge19_Node000006_Node000018"><a xlink:title=" ">
<path fill="none" stroke="#63b8ff" d="M251.54,-135.57C271.99,-129.59 297.89,-122.02 319.92,-115.58"/>
<polygon fill="#63b8ff" stroke="#63b8ff" points="320.64,-119.02 329.25,-112.85 318.67,-112.3 320.64,-119.02"/>
</a>
</g>
</g>
<!-- Node8 -->
<g id="Node000008" class="node">
<title>Node8</title>
<g id="a_Node000008"><a xlink:href="namespacesvg.html#aef05ac63d88a6102981d3faf37275297" target="_top" xlink:title="Angle in radians.">
<polygon fill="white" stroke="#666666" points="563.5,-32 459.75,-32 459.75,0 563.5,0 563.5,-32"/>
<text xml:space="preserve" text-anchor="start" x="467.75" y="-20.4" font-family="SourceSans" font-size="8.00">svg::get_circumference</text>
<text xml:space="preserve" text-anchor="middle" x="511.62" y="-8.4" font-family="SourceSans" font-size="8.00">_point_r</text>
</a>
</g>
</g>
<!-- Node7&#45;&gt;Node8 -->
<g id="edge7_Node000007_Node000008" class="edge">
<title>Node7&#45;&gt;Node8</title>
<g id="a_edge7_Node000007_Node000008"><a xlink:title=" ">
<path fill="none" stroke="#63b8ff" d="M419.73,-24.95C428.9,-24.04 438.54,-23.09 447.98,-22.17"/>
<polygon fill="#63b8ff" stroke="#63b8ff" points="448.23,-25.66 457.84,-21.2 447.54,-18.69 448.23,-25.66"/>
</a>
</g>
</g>
<!-- Node9&#45;&gt;Node3 -->
<g id="edge11_Node000009_Node000003" class="edge">
<title>Node9&#45;&gt;Node3</title>
<g id="a_edge11_Node000009_Node000003"><a xlink:title=" ">
<path fill="none" stroke="#63b8ff" d="M384.56,-214.34C396.42,-222.47 412.36,-234.64 423.75,-248 444.92,-272.84 436.91,-288.69 459.75,-312 462.18,-314.48 464.86,-316.84 467.68,-319.05"/>
<polygon fill="#63b8ff" stroke="#63b8ff" points="465.6,-321.86 475.8,-324.75 469.63,-316.14 465.6,-321.86"/>
</a>
</g>
</g>
<!-- Node10 -->
<g id="Node000010" class="node">
<title>Node10</title>
<g id="a_Node000010"><a xlink:href="group__elements.html#a807f3c30f2ace338ad10aaf230b47665" target="_top" xlink:title="Either serialize immediately (as below), or create data structure that adds data to data_vec and then...">
<polygon fill="white" stroke="#666666" points="557.12,-120 466.12,-120 466.12,-88 557.12,-88 557.12,-120"/>
<text xml:space="preserve" text-anchor="start" x="474.12" y="-108.4" font-family="SourceSans" font-size="8.00">svg::path_element::</text>
<text xml:space="preserve" text-anchor="middle" x="511.62" y="-96.4" font-family="SourceSans" font-size="8.00">add_data</text>
</a>
</g>
</g>
<!-- Node9&#45;&gt;Node10 -->
<g id="edge9_Node000009_Node000010" class="edge">
<title>Node9&#45;&gt;Node10</title>
<g id="a_edge9_Node000009_Node000010"><a xlink:title=" ">
<path fill="none" stroke="#63b8ff" d="M389.42,-193.57C400.24,-187.7 413.31,-179.79 423.75,-171 442.56,-155.17 440.32,-144.06 459.75,-129 460.89,-128.12 462.06,-127.26 463.26,-126.41"/>
<polygon fill="#63b8ff" stroke="#63b8ff" points="465.02,-129.44 471.62,-121.16 461.29,-123.52 465.02,-129.44"/>
</a>
</g>
</g>
<!-- Node12 -->
<g id="Node000012" class="node">
<title>Node12</title>
<g id="a_Node000012"><a xlink:href="group__elements.html#a238b38ca99a1cf6c2baf80c8e4338d99" target="_top" xlink:title=" ">
<polygon fill="white" stroke="#666666" points="557.12,-170 466.12,-170 466.12,-138 557.12,-138 557.12,-170"/>
<text xml:space="preserve" text-anchor="start" x="474.12" y="-158.4" font-family="SourceSans" font-size="8.00">svg::element_base::</text>
<text xml:space="preserve" text-anchor="middle" x="511.62" y="-146.4" font-family="SourceSans" font-size="8.00">add_style</text>
</a>
</g>
</g>
<!-- Node9&#45;&gt;Node12 -->
<g id="edge12_Node000009_Node000012" class="edge">
<title>Node9&#45;&gt;Node12</title>
<g id="a_edge12_Node000009_Node000012"><a xlink:title=" ">
<path fill="none" stroke="#63b8ff" d="M398.2,-193.52C414.62,-187.75 435.53,-180.39 454.86,-173.6"/>
<polygon fill="#63b8ff" stroke="#63b8ff" points="456,-176.91 464.27,-170.29 453.68,-170.31 456,-176.91"/>
</a>
</g>
</g>
<!-- Node13 -->
<g id="Node000013" class="node">
<title>Node13</title>
<g id="a_Node000013"><a xlink:href="namespacesvg.html#a36b1c48ad4601b205790e3772ad0a7b6" target="_top" xlink:title=" ">
<polygon fill="white" stroke="#666666" points="676.62,-236 609.62,-236 609.62,-216 676.62,-216 676.62,-236"/>
<text xml:space="preserve" text-anchor="middle" x="643.12" y="-224.4" font-family="SourceSans" font-size="8.00">svg::to_string</text>
</a>
</g>
</g>
<!-- Node9&#45;&gt;Node13 -->
<g id="edge16_Node000009_Node000013" class="edge">
<title>Node9&#45;&gt;Node13</title>
<g id="a_edge16_Node000009_Node000013"><a xlink:title=" ">
<path fill="none" stroke="#63b8ff" d="M381.7,-214.35C392.99,-223.17 409.56,-236.26 423.75,-248 440.02,-261.46 439.96,-271.65 459.75,-279 502.98,-295.05 519.4,-292.48 563.5,-279 586.19,-272.07 608.24,-256.15 623.19,-243.55"/>
<polygon fill="#63b8ff" stroke="#63b8ff" points="625.17,-246.47 630.39,-237.25 620.56,-241.21 625.17,-246.47"/>
</a>
</g>
</g>
<!-- Node14 -->
<g id="Node000014" class="node">
<title>Node14</title>
<g id="a_Node000014"><a xlink:href="group__elements.html#gaac30ae99fb1a2542688fa1ffb43cd8e1" target="_top" xlink:title=" ">
<polygon fill="white" stroke="#666666" points="557.12,-270 466.12,-270 466.12,-238 557.12,-238 557.12,-270"/>
<text xml:space="preserve" text-anchor="start" x="474.12" y="-258.4" font-family="SourceSans" font-size="8.00">svg::path_element::</text>
<text xml:space="preserve" text-anchor="middle" x="511.62" y="-246.4" font-family="SourceSans" font-size="8.00">finish_element</text>
</a>
</g>
</g>
<!-- Node9&#45;&gt;Node14 -->
<g id="edge14_Node000009_Node000014" class="edge">
<title>Node9&#45;&gt;Node14</title>
<g id="a_edge14_Node000009_Node000014"><a xlink:title=" ">
<path fill="none" stroke="#63b8ff" d="M398.2,-214.48C414.62,-220.25 435.53,-227.61 454.86,-234.4"/>
<polygon fill="#63b8ff" stroke="#63b8ff" points="453.68,-237.69 464.27,-237.71 456,-231.09 453.68,-237.69"/>
</a>
</g>
</g>
<!-- Node15 -->
<g id="Node000015" class="node">
<title>Node15</title>
<g id="a_Node000015"><a xlink:href="group__elements.html#a6dbca7cef2cbc0c10aa44c44ae20b36e" target="_top" xlink:title=" ">
<polygon fill="white" stroke="#666666" points="557.12,-220 466.12,-220 466.12,-188 557.12,-188 557.12,-220"/>
<text xml:space="preserve" text-anchor="start" x="474.12" y="-208.4" font-family="SourceSans" font-size="8.00">svg::path_element::</text>
<text xml:space="preserve" text-anchor="middle" x="511.62" y="-196.4" font-family="SourceSans" font-size="8.00">start_element</text>
</a>
</g>
</g>
<!-- Node9&#45;&gt;Node15 -->
<g id="edge15_Node000009_Node000015" class="edge">
<title>Node9&#45;&gt;Node15</title>
<g id="a_edge15_Node000009_Node000015"><a xlink:title=" ">
<path fill="none" stroke="#63b8ff" d="M405.75,-204C420.66,-204 438.16,-204 454.53,-204"/>
<polygon fill="#63b8ff" stroke="#63b8ff" points="454.14,-207.5 464.14,-204 454.14,-200.5 454.14,-207.5"/>
</a>
</g>
</g>
<!-- Node11 -->
<g id="Node000011" class="node">
<title>Node11</title>
<g id="a_Node000011"><a xlink:href="namespacesvg.html#a48ac748e89e22789d1772326a98dd7b6" target="_top" xlink:title=" ">
<polygon fill="white" stroke="#666666" points="686.75,-114 599.5,-114 599.5,-94 686.75,-94 686.75,-114"/>
<text xml:space="preserve" text-anchor="middle" x="643.12" y="-102.4" font-family="SourceSans" font-size="8.00">svg::string_replace</text>
</a>
</g>
</g>
<!-- Node10&#45;&gt;Node11 -->
<g id="edge10_Node000010_Node000011" class="edge">
<title>Node10&#45;&gt;Node11</title>
<g id="a_edge10_Node000010_Node000011"><a xlink:title=" ">
<path fill="none" stroke="#63b8ff" d="M557.55,-104C567.22,-104 577.53,-104 587.51,-104"/>
<polygon fill="#63b8ff" stroke="#63b8ff" points="587.51,-107.5 597.51,-104 587.51,-100.5 587.51,-107.5"/>
</a>
</g>
</g>
<!-- Node12&#45;&gt;Node13 -->
<g id="edge13_Node000012_Node000013" class="edge">
<title>Node12&#45;&gt;Node13</title>
<g id="a_edge13_Node000012_Node000013"><a xlink:title=" ">
<path fill="none" stroke="#63b8ff" d="M547.03,-170.43C552.58,-173.21 558.23,-176.13 563.5,-179 581.21,-188.62 600.66,-200.24 615.78,-209.52"/>
<polygon fill="#63b8ff" stroke="#63b8ff" points="613.85,-212.44 624.2,-214.71 617.53,-206.48 613.85,-212.44"/>
</a>
</g>
</g>
<!-- Node17 -->
<g id="Node000017" class="node">
<title>Node17</title>
<g id="a_Node000017"><a xlink:href="namespacesvg_1_1constants.html#ac460bc8db60d85c3ae1cf8b1a903405e" target="_top" xlink:title="Formatting character constants.">
<polygon fill="white" stroke="#666666" points="559.75,-70 463.5,-70 463.5,-50 559.75,-50 559.75,-70"/>
<text xml:space="preserve" text-anchor="middle" x="511.62" y="-58.4" font-family="SourceSans" font-size="8.00">svg::constants::space</text>
</a>
</g>
</g>
<!-- Node16&#45;&gt;Node17 -->
<g id="edge18_Node000016_Node000017" class="edge">
<title>Node16&#45;&gt;Node17</title>
<g id="a_edge18_Node000016_Node000017"><a xlink:title=" ">
<path fill="none" stroke="#63b8ff" d="M410.04,-129.63C414.85,-127.04 419.53,-124.16 423.75,-121 443.42,-106.26 439.6,-93.08 459.75,-79 461.55,-77.74 463.44,-76.56 465.39,-75.45"/>
<polygon fill="#63b8ff" stroke="#63b8ff" points="466.75,-78.68 474.16,-71.1 463.64,-72.4 466.75,-78.68"/>
</a>
</g>
</g>
</g>
</svg>
