<?xml version="1.0" encoding="UTF-8" standalone="no"?>
<!DOCTYPE svg PUBLIC "-//W3C//DTD SVG 1.1//EN"
 "http://www.w3.org/Graphics/SVG/1.1/DTD/svg11.dtd">
<!-- Generated by graphviz version 12.1.0 (20240811.2233)
 -->
<!-- Title: svg::point_to_octogon Pages: 1 -->
<svg width="683pt" height="366pt"
 viewBox="0.00 0.00 682.75 366.00" xmlns="http://www.w3.org/2000/svg" xmlns:xlink="http://www.w3.org/1999/xlink">
<g id="graph0" class="graph" transform="scale(1 1) rotate(0) translate(4 362)">
<title>svg::point_to_octogon</title>
<!-- Node1 -->
<g id="Node000001" class="node">
<title>Node1</title>
<g id="a_Node000001"><a xlink:title="Center an octogon at this point.">
<polygon fill="#999999" stroke="#666666" points="99.25,-211 0,-211 0,-191 99.25,-191 99.25,-211"/>
<text text-anchor="middle" x="49.62" y="-199.4" font-family="SourceSans" font-size="8.00">svg::point_to_octogon</text>
</a>
</g>
</g>
<!-- Node2 -->
<g id="Node000002" class="node">
<title>Node2</title>
<g id="a_Node000002"><a xlink:href="group__elements.html#aaa5f1a136f2b5c61d647a47ec53fe31d" target="_top" xlink:title=" ">
<polygon fill="white" stroke="#666666" points="240.88,-301 140.12,-301 140.12,-269 240.88,-269 240.88,-301"/>
<text text-anchor="start" x="148.12" y="-289.4" font-family="SourceSans" font-size="8.00">svg::svg_element::add</text>
<text text-anchor="middle" x="190.5" y="-277.4" font-family="SourceSans" font-size="8.00">_element</text>
</a>
</g>
</g>
<!-- Node1&#45;&gt;Node2 -->
<g id="edge1_Node000001_Node000002" class="edge">
<title>Node1&#45;&gt;Node2</title>
<g id="a_edge1_Node000001_Node000002"><a xlink:title=" ">
<path fill="none" stroke="#63b8ff" d="M67.93,-211.47C89.04,-224.24 125.3,-246.17 152.74,-262.77"/>
<polygon fill="#63b8ff" stroke="#63b8ff" points="150.75,-265.65 161.12,-267.83 154.37,-259.66 150.75,-265.65"/>
</a>
</g>
</g>
<!-- Node4 -->
<g id="Node000004" class="node">
<title>Node4</title>
<g id="a_Node000004"><a xlink:href="namespacesvg.html#a36aa0da18e48e375d13bd262539eacff" target="_top" xlink:title="Center an octogon at this point. radius 4 is pixels to draw out from center point....">
<polygon fill="white" stroke="#666666" points="245.75,-189 135.25,-189 135.25,-169 245.75,-169 245.75,-189"/>
<text text-anchor="middle" x="190.5" y="-177.4" font-family="SourceSans" font-size="8.00">svg::make_path_octogon</text>
</a>
</g>
</g>
<!-- Node1&#45;&gt;Node4 -->
<g id="edge3_Node000001_Node000004" class="edge">
<title>Node1&#45;&gt;Node4</title>
<g id="a_edge3_Node000001_Node000004"><a xlink:title=" ">
<path fill="none" stroke="#63b8ff" d="M99.59,-193.24C107.34,-192.02 115.46,-190.73 123.52,-189.45"/>
<polygon fill="#63b8ff" stroke="#63b8ff" points="124.01,-192.92 133.33,-187.9 122.91,-186.01 124.01,-192.92"/>
</a>
</g>
</g>
<!-- Node3 -->
<g id="Node000003" class="node">
<title>Node3</title>
<g id="a_Node000003"><a xlink:href="group__elements.html#ad893ef9c13a15464c96d8a85c08af30f" target="_top" xlink:title=" ">
<polygon fill="white" stroke="#666666" points="388.5,-358 287.75,-358 287.75,-338 388.5,-338 388.5,-358"/>
<text text-anchor="middle" x="338.12" y="-346.4" font-family="SourceSans" font-size="8.00">svg::element_base::str</text>
</a>
</g>
</g>
<!-- Node2&#45;&gt;Node3 -->
<g id="edge2_Node000002_Node000003" class="edge">
<title>Node2&#45;&gt;Node3</title>
<g id="a_edge2_Node000002_Node000003"><a xlink:title=" ">
<path fill="none" stroke="#63b8ff" d="M222.81,-301.44C239.98,-310.16 261.78,-320.74 281.75,-329 285.59,-330.59 289.62,-332.15 293.68,-333.66"/>
<polygon fill="#63b8ff" stroke="#63b8ff" points="292.35,-336.91 302.95,-337 294.72,-330.32 292.35,-336.91"/>
</a>
</g>
</g>
<!-- Node5 -->
<g id="Node000005" class="node">
<title>Node5</title>
<g id="a_Node000005"><a xlink:href="group__elements.html#a807f3c30f2ace338ad10aaf230b47665" target="_top" xlink:title="Either serialize immediately (as below), or create data structure that adds data to data_vec and then...">
<polygon fill="white" stroke="#666666" points="383.62,-320 292.62,-320 292.62,-288 383.62,-288 383.62,-320"/>
<text text-anchor="start" x="300.62" y="-308.4" font-family="SourceSans" font-size="8.00">svg::path_element::</text>
<text text-anchor="middle" x="338.12" y="-296.4" font-family="SourceSans" font-size="8.00">add_data</text>
</a>
</g>
</g>
<!-- Node4&#45;&gt;Node5 -->
<g id="edge4_Node000004_Node000005" class="edge">
<title>Node4&#45;&gt;Node5</title>
<g id="a_edge4_Node000004_Node000005"><a xlink:title=" ">
<path fill="none" stroke="#63b8ff" d="M198.58,-189.35C212.51,-209.07 245.29,-252.4 281.75,-279 283.08,-279.97 284.46,-280.92 285.87,-281.84"/>
<polygon fill="#63b8ff" stroke="#63b8ff" points="283.84,-284.71 294.23,-286.76 287.39,-278.67 283.84,-284.71"/>
</a>
</g>
</g>
<!-- Node7 -->
<g id="Node000007" class="node">
<title>Node7</title>
<g id="a_Node000007"><a xlink:href="group__elements.html#a238b38ca99a1cf6c2baf80c8e4338d99" target="_top" xlink:title=" ">
<polygon fill="white" stroke="#666666" points="383.62,-270 292.62,-270 292.62,-238 383.62,-238 383.62,-270"/>
<text text-anchor="start" x="300.62" y="-258.4" font-family="SourceSans" font-size="8.00">svg::element_base::</text>
<text text-anchor="middle" x="338.12" y="-246.4" font-family="SourceSans" font-size="8.00">add_style</text>
</a>
</g>
</g>
<!-- Node4&#45;&gt;Node7 -->
<g id="edge6_Node000004_Node000007" class="edge">
<title>Node4&#45;&gt;Node7</title>
<g id="a_edge6_Node000004_Node000007"><a xlink:title=" ">
<path fill="none" stroke="#63b8ff" d="M209.25,-189.4C227.28,-199.83 256.13,-216.15 281.75,-229 284.27,-230.26 286.86,-231.53 289.49,-232.8"/>
<polygon fill="#63b8ff" stroke="#63b8ff" points="287.79,-235.87 298.33,-236.96 290.77,-229.53 287.79,-235.87"/>
</a>
</g>
</g>
<!-- Node9 -->
<g id="Node000009" class="node">
<title>Node9</title>
<g id="a_Node000009"><a xlink:href="group__elements.html#gaac30ae99fb1a2542688fa1ffb43cd8e1" target="_top" xlink:title=" ">
<polygon fill="white" stroke="#666666" points="383.62,-220 292.62,-220 292.62,-188 383.62,-188 383.62,-220"/>
<text text-anchor="start" x="300.62" y="-208.4" font-family="SourceSans" font-size="8.00">svg::path_element::</text>
<text text-anchor="middle" x="338.12" y="-196.4" font-family="SourceSans" font-size="8.00">finish_element</text>
</a>
</g>
</g>
<!-- Node4&#45;&gt;Node9 -->
<g id="edge8_Node000004_Node000009" class="edge">
<title>Node4&#45;&gt;Node9</title>
<g id="a_edge8_Node000004_Node000009"><a xlink:title=" ">
<path fill="none" stroke="#63b8ff" d="M246.14,-188.38C257.52,-190.33 269.53,-192.4 280.96,-194.36"/>
<polygon fill="#63b8ff" stroke="#63b8ff" points="280.22,-197.78 290.67,-196.02 281.41,-190.88 280.22,-197.78"/>
</a>
</g>
</g>
<!-- Node12 -->
<g id="Node000012" class="node">
<title>Node12</title>
<g id="a_Node000012"><a xlink:href="namespacesvg.html#ab44508c4aeca591141ebec50145b75cd" target="_top" xlink:title="Angle in degrees.">
<polygon fill="white" stroke="#666666" points="390,-170 286.25,-170 286.25,-138 390,-138 390,-170"/>
<text text-anchor="start" x="294.25" y="-158.4" font-family="SourceSans" font-size="8.00">svg::get_circumference</text>
<text text-anchor="middle" x="338.12" y="-146.4" font-family="SourceSans" font-size="8.00">_point_d</text>
</a>
</g>
</g>
<!-- Node4&#45;&gt;Node12 -->
<g id="edge12_Node000004_Node000012" class="edge">
<title>Node4&#45;&gt;Node12</title>
<g id="a_edge12_Node000004_Node000012"><a xlink:title=" ">
<path fill="none" stroke="#63b8ff" d="M246.14,-169.62C255.54,-168.01 265.37,-166.32 274.94,-164.67"/>
<polygon fill="#63b8ff" stroke="#63b8ff" points="275.28,-168.17 284.54,-163.03 274.09,-161.27 275.28,-168.17"/>
</a>
</g>
</g>
<!-- Node15 -->
<g id="Node000015" class="node">
<title>Node15</title>
<g id="a_Node000015"><a xlink:href="namespacesvg.html#a2c65de7707b8b7b1bca959a3a2bbba91" target="_top" xlink:title="Make single path segment.">
<polygon fill="white" stroke="#666666" points="386.62,-120 289.62,-120 289.62,-88 386.62,-88 386.62,-120"/>
<text text-anchor="start" x="297.62" y="-108.4" font-family="SourceSans" font-size="8.00">svg::make_path_data</text>
<text text-anchor="middle" x="338.12" y="-96.4" font-family="SourceSans" font-size="8.00">_from_points</text>
</a>
</g>
</g>
<!-- Node4&#45;&gt;Node15 -->
<g id="edge15_Node000004_Node000015" class="edge">
<title>Node4&#45;&gt;Node15</title>
<g id="a_edge15_Node000004_Node000015"><a xlink:title=" ">
<path fill="none" stroke="#63b8ff" d="M209.25,-168.6C227.28,-158.17 256.13,-141.85 281.75,-129 284.27,-127.74 286.86,-126.47 289.49,-125.2"/>
<polygon fill="#63b8ff" stroke="#63b8ff" points="290.77,-128.47 298.33,-121.04 287.79,-122.13 290.77,-128.47"/>
</a>
</g>
</g>
<!-- Node17 -->
<g id="Node000017" class="node">
<title>Node17</title>
<g id="a_Node000017"><a xlink:href="group__elements.html#a6dbca7cef2cbc0c10aa44c44ae20b36e" target="_top" xlink:title=" ">
<polygon fill="white" stroke="#666666" points="383.62,-70 292.62,-70 292.62,-38 383.62,-38 383.62,-70"/>
<text text-anchor="start" x="300.62" y="-58.4" font-family="SourceSans" font-size="8.00">svg::path_element::</text>
<text text-anchor="middle" x="338.12" y="-46.4" font-family="SourceSans" font-size="8.00">start_element</text>
</a>
</g>
</g>
<!-- Node4&#45;&gt;Node17 -->
<g id="edge17_Node000004_Node000017" class="edge">
<title>Node4&#45;&gt;Node17</title>
<g id="a_edge17_Node000004_Node000017"><a xlink:title=" ">
<path fill="none" stroke="#63b8ff" d="M198.58,-168.65C212.51,-148.93 245.29,-105.6 281.75,-79 283.08,-78.03 284.46,-77.08 285.87,-76.16"/>
<polygon fill="#63b8ff" stroke="#63b8ff" points="287.39,-79.33 294.23,-71.24 283.84,-73.29 287.39,-79.33"/>
</a>
</g>
</g>
<!-- Node19 -->
<g id="Node000019" class="node">
<title>Node19</title>
<g id="a_Node000019"><a xlink:href="namespacesvg.html#a46164d75fd5109e4ed8879abbacd5c11" target="_top" xlink:title="Zero degrees is top, going clockwise (cw).">
<polygon fill="white" stroke="#666666" points="394.5,-20 281.75,-20 281.75,0 394.5,0 394.5,-20"/>
<text text-anchor="middle" x="338.12" y="-8.4" font-family="SourceSans" font-size="8.00">svg::zero_angle_north_cw</text>
</a>
</g>
</g>
<!-- Node4&#45;&gt;Node19 -->
<g id="edge20_Node000004_Node000019" class="edge">
<title>Node4&#45;&gt;Node19</title>
<g id="a_edge20_Node000004_Node000019"><a xlink:title=" ">
<path fill="none" stroke="#63b8ff" d="M194.91,-168.57C204.29,-141.5 233.06,-68.36 281.75,-29 283.22,-27.81 284.76,-26.7 286.37,-25.65"/>
<polygon fill="#63b8ff" stroke="#63b8ff" points="287.63,-28.95 294.75,-21.1 284.29,-22.8 287.63,-28.95"/>
</a>
</g>
</g>
<!-- Node6 -->
<g id="Node000006" class="node">
<title>Node6</title>
<g id="a_Node000006"><a xlink:href="namespacesvg.html#a48ac748e89e22789d1772326a98dd7b6" target="_top" xlink:title=" ">
<polygon fill="white" stroke="#666666" points="526,-337 438.75,-337 438.75,-317 526,-317 526,-337"/>
<text text-anchor="middle" x="482.38" y="-325.4" font-family="SourceSans" font-size="8.00">svg::string_replace</text>
</a>
</g>
</g>
<!-- Node5&#45;&gt;Node6 -->
<g id="edge5_Node000005_Node000006" class="edge">
<title>Node5&#45;&gt;Node6</title>
<g id="a_edge5_Node000005_Node000006"><a xlink:title=" ">
<path fill="none" stroke="#63b8ff" d="M383.74,-311.21C397.5,-313.44 412.8,-315.91 427.14,-318.23"/>
<polygon fill="#63b8ff" stroke="#63b8ff" points="426.45,-321.66 436.88,-319.81 427.57,-314.75 426.45,-321.66"/>
</a>
</g>
</g>
<!-- Node8 -->
<g id="Node000008" class="node">
<title>Node8</title>
<g id="a_Node000008"><a xlink:href="namespacesvg.html#a36b1c48ad4601b205790e3772ad0a7b6" target="_top" xlink:title=" ">
<polygon fill="white" stroke="#666666" points="515.88,-299 448.88,-299 448.88,-279 515.88,-279 515.88,-299"/>
<text text-anchor="middle" x="482.38" y="-287.4" font-family="SourceSans" font-size="8.00">svg::to_string</text>
</a>
</g>
</g>
<!-- Node7&#45;&gt;Node8 -->
<g id="edge7_Node000007_Node000008" class="edge">
<title>Node7&#45;&gt;Node8</title>
<g id="a_edge7_Node000007_Node000008"><a xlink:title=" ">
<path fill="none" stroke="#63b8ff" d="M383.74,-264.98C400.99,-269.22 420.66,-274.06 437.8,-278.28"/>
<polygon fill="#63b8ff" stroke="#63b8ff" points="436.64,-281.6 447.18,-280.59 438.31,-274.8 436.64,-281.6"/>
</a>
</g>
</g>
<!-- Node10 -->
<g id="Node000010" class="node">
<title>Node10</title>
<g id="a_Node000010"><a xlink:href="group__elements.html#ga503ee2895588a6c684e2b1614cf4e73d" target="_top" xlink:title=" ">
<polygon fill="white" stroke="#666666" points="527.12,-261 437.62,-261 437.62,-229 527.12,-229 527.12,-261"/>
<text text-anchor="start" x="445.62" y="-249.4" font-family="SourceSans" font-size="8.00">svg::defs_element::</text>
<text text-anchor="middle" x="482.38" y="-237.4" font-family="SourceSans" font-size="8.00">finish_element</text>
</a>
</g>
</g>
<!-- Node9&#45;&gt;Node10 -->
<g id="edge9_Node000009_Node000010" class="edge">
<title>Node9&#45;&gt;Node10</title>
<g id="a_edge9_Node000009_Node000010"><a xlink:title=" ">
<path fill="none" stroke="#63b8ff" d="M383.74,-216.86C397.38,-220.79 412.53,-225.16 426.75,-229.26"/>
<polygon fill="#63b8ff" stroke="#63b8ff" points="425.37,-232.5 435.95,-231.91 427.31,-225.77 425.37,-232.5"/>
</a>
</g>
</g>
<!-- Node11 -->
<g id="Node000011" class="node">
<title>Node11</title>
<g id="a_Node000011"><a xlink:href="namespacesvg_1_1constants.html#aa7f04c2ea699a1b1e2e790de5ac33f38" target="_top" xlink:title=" ">
<polygon fill="white" stroke="#666666" points="674.75,-211 570.25,-211 570.25,-191 674.75,-191 674.75,-211"/>
<text text-anchor="middle" x="622.5" y="-199.4" font-family="SourceSans" font-size="8.00">svg::constants::newline</text>
</a>
</g>
</g>
<!-- Node9&#45;&gt;Node11 -->
<g id="edge11_Node000009_Node000011" class="edge">
<title>Node9&#45;&gt;Node11</title>
<g id="a_edge11_Node000009_Node000011"><a xlink:title=" ">
<path fill="none" stroke="#63b8ff" d="M383.87,-203.52C430.95,-203.02 505.45,-202.23 558.48,-201.67"/>
<polygon fill="#63b8ff" stroke="#63b8ff" points="558.31,-205.17 568.27,-201.57 558.23,-198.17 558.31,-205.17"/>
</a>
</g>
</g>
<!-- Node10&#45;&gt;Node11 -->
<g id="edge10_Node000010_Node000011" class="edge">
<title>Node10&#45;&gt;Node11</title>
<g id="a_edge10_Node000010_Node000011"><a xlink:title=" ">
<path fill="none" stroke="#63b8ff" d="M527.46,-230.96C543.62,-225.81 561.9,-219.99 578.01,-214.85"/>
<polygon fill="#63b8ff" stroke="#63b8ff" points="578.86,-218.26 587.33,-211.89 576.74,-211.59 578.86,-218.26"/>
</a>
</g>
</g>
<!-- Node13 -->
<g id="Node000013" class="node">
<title>Node13</title>
<g id="a_Node000013"><a xlink:href="namespacesvg.html#aef05ac63d88a6102981d3faf37275297" target="_top" xlink:title="Angle in radians.">
<polygon fill="white" stroke="#666666" points="534.25,-173 430.5,-173 430.5,-141 534.25,-141 534.25,-173"/>
<text text-anchor="start" x="438.5" y="-161.4" font-family="SourceSans" font-size="8.00">svg::get_circumference</text>
<text text-anchor="middle" x="482.38" y="-149.4" font-family="SourceSans" font-size="8.00">_point_r</text>
</a>
</g>
</g>
<!-- Node12&#45;&gt;Node13 -->
<g id="edge13_Node000012_Node000013" class="edge">
<title>Node12&#45;&gt;Node13</title>
<g id="a_edge13_Node000012_Node000013"><a xlink:title=" ">
<path fill="none" stroke="#63b8ff" d="M390.48,-155.08C399.65,-155.28 409.29,-155.48 418.73,-155.68"/>
<polygon fill="#63b8ff" stroke="#63b8ff" points="418.51,-159.17 428.58,-155.89 418.66,-152.18 418.51,-159.17"/>
</a>
</g>
</g>
<!-- Node14 -->
<g id="Node000014" class="node">
<title>Node14</title>
<g id="a_Node000014"><a xlink:href="namespacesvg_1_1constants.html#a0e0b0d9314bc47324ee39884bf8bb2fd" target="_top" xlink:title=" ">
<polygon fill="white" stroke="#666666" points="523.38,-123 441.38,-123 441.38,-103 523.38,-103 523.38,-123"/>
<text text-anchor="middle" x="482.38" y="-111.4" font-family="SourceSans" font-size="8.00">svg::constants::pi</text>
</a>
</g>
</g>
<!-- Node12&#45;&gt;Node14 -->
<g id="edge14_Node000012_Node000014" class="edge">
<title>Node12&#45;&gt;Node14</title>
<g id="a_edge14_Node000012_Node000014"><a xlink:title=" ">
<path fill="none" stroke="#63b8ff" d="M390.48,-139.2C404.8,-135.07 420.28,-130.61 434.33,-126.56"/>
<polygon fill="#63b8ff" stroke="#63b8ff" points="435.16,-129.96 443.8,-123.83 433.22,-123.24 435.16,-129.96"/>
</a>
</g>
</g>
<!-- Node16 -->
<g id="Node000016" class="node">
<title>Node16</title>
<g id="a_Node000016"><a xlink:href="namespacesvg_1_1constants.html#ac460bc8db60d85c3ae1cf8b1a903405e" target="_top" xlink:title="Formatting character constants.">
<polygon fill="white" stroke="#666666" points="530.5,-85 434.25,-85 434.25,-65 530.5,-65 530.5,-85"/>
<text text-anchor="middle" x="482.38" y="-73.4" font-family="SourceSans" font-size="8.00">svg::constants::space</text>
</a>
</g>
</g>
<!-- Node15&#45;&gt;Node16 -->
<g id="edge16_Node000015_Node000016" class="edge">
<title>Node15&#45;&gt;Node16</title>
<g id="a_edge16_Node000015_Node000016"><a xlink:title=" ">
<path fill="none" stroke="#63b8ff" d="M386.89,-94.26C398.39,-91.92 410.8,-89.39 422.73,-86.95"/>
<polygon fill="#63b8ff" stroke="#63b8ff" points="423.4,-90.39 432.5,-84.96 422,-83.53 423.4,-90.39"/>
</a>
</g>
</g>
<!-- Node18 -->
<g id="Node000018" class="node">
<title>Node18</title>
<g id="a_Node000018"><a xlink:href="group__elements.html#a948868c6f5dea784ded14c26cc1d2139" target="_top" xlink:title=" ">
<polygon fill="white" stroke="#666666" points="527.12,-47 437.62,-47 437.62,-15 527.12,-15 527.12,-47"/>
<text text-anchor="start" x="445.62" y="-35.4" font-family="SourceSans" font-size="8.00">svg::defs_element::</text>
<text text-anchor="middle" x="482.38" y="-23.4" font-family="SourceSans" font-size="8.00">start_element</text>
</a>
</g>
</g>
<!-- Node17&#45;&gt;Node18 -->
<g id="edge18_Node000017_Node000018" class="edge">
<title>Node17&#45;&gt;Node18</title>
<g id="a_edge18_Node000017_Node000018"><a xlink:title=" ">
<path fill="none" stroke="#63b8ff" d="M383.74,-46.79C397.24,-44.6 412.23,-42.18 426.33,-39.9"/>
<polygon fill="#63b8ff" stroke="#63b8ff" points="426.6,-43.4 435.91,-38.35 425.48,-36.49 426.6,-43.4"/>
</a>
</g>
</g>
<!-- Node18&#45;&gt;Node11 -->
<g id="edge19_Node000018_Node000011" class="edge">
<title>Node18&#45;&gt;Node11</title>
<g id="a_edge19_Node000018_Node000011"><a xlink:title=" ">
<path fill="none" stroke="#63b8ff" d="M522.66,-47.36C526.81,-49.93 530.77,-52.8 534.25,-56 573.39,-91.95 600.78,-149.49 613.48,-180.16"/>
<polygon fill="#63b8ff" stroke="#63b8ff" points="610.09,-181.12 617.06,-189.1 616.59,-178.51 610.09,-181.12"/>
</a>
</g>
</g>
</g>
</svg>
