<?xml version="1.0" encoding="UTF-8" standalone="no"?>
<!DOCTYPE svg PUBLIC "-//W3C//DTD SVG 1.1//EN"
 "http://www.w3.org/Graphics/SVG/1.1/DTD/svg11.dtd">
<!-- Generated by graphviz version 12.1.0 (20240811.2233)
 -->
<!-- Title: svg::text_line_n_r Pages: 1 -->
<!--zoomable 288 -->

<svg id="main" version="1.1" xmlns="http://www.w3.org/2000/svg" xmlns:xlink="http://www.w3.org/1999/xlink" xml:space="preserve" onload="init(evt)">

<style type="text/css"><![CDATA[
.node, .edge {opacity: 0.7;}
.node.selected, .edge.selected {opacity: 1;}
.edge:hover path { stroke: red; }
.edge:hover polygon { stroke: red; fill: red; }
]]></style>

<defs>
  <circle id="rim" cx="0" cy="0" r="7"/>
  <circle id="rim2" cx="0" cy="0" r="3.5"/>
  <g id="zoomPlus">
    <use xlink:href="#rim" fill="#404040"><set attributeName="fill" to="#808080" begin="zoomplus.mouseover" end="zoomplus.mouseout"/></use>
    <path d="M-4,0h8M0,-4v8" fill="none" stroke="white" stroke-width="1.5" pointer-events="none"/>
  </g>
  <g id="zoomMin">
    <use xlink:href="#rim" fill="#404040"><set attributeName="fill" to="#808080" begin="zoomminus.mouseover" end="zoomminus.mouseout"/></use>
    <path d="M-4,0h8" fill="none" stroke="white" stroke-width="1.5" pointer-events="none"/>
  </g>
  <g id="arrowUp" transform="translate(30 24)">
    <use xlink:href="#rim"/>
    <path pointer-events="none" fill="none" stroke="white" stroke-width="1.5" d="M0,-3.0v7 M-2.5,-0.5L0,-3.0L2.5,-0.5"/>
  </g>
  <g id="arrowRight" transform="rotate(90) translate(36 -43)">
    <use xlink:href="#rim"/>
    <path pointer-events="none" fill="none" stroke="white" stroke-width="1.5" d="M0,-3.0v7 M-2.5,-0.5L0,-3.0L2.5,-0.5"/>
  </g>
  <g id="arrowDown" transform="rotate(180) translate(-30 -48)">
    <use xlink:href="#rim"/>
    <path pointer-events="none" fill="none" stroke="white" stroke-width="1.5" d="M0,-3.0v7 M-2.5,-0.5L0,-3.0L2.5,-0.5"/>
  </g>
  <g id="arrowLeft" transform="rotate(270) translate(-36 17)">
    <use xlink:href="#rim"/>
    <path pointer-events="none" fill="none" stroke="white" stroke-width="1.5" d="M0,-3.0v7 M-2.5,-0.5L0,-3.0L2.5,-0.5"/>
  </g>
  <g id="resetDef">
    <use xlink:href="#rim2" fill="#404040"><set attributeName="fill" to="#808080" begin="reset.mouseover" end="reset.mouseout"/></use>
  </g>
</defs>
<script type="application/ecmascript">
var viewWidth = 654;
var viewHeight = 288;
var sectionId = 'dynsection-88';
</script>
<script type="application/ecmascript" xlink:href="svg.min.js"/>
<svg id="graph" class="graph">
<g id="viewport">
<title>svg::text_line_n_r</title>
<!-- Node1 -->
<g id="Node000001" class="node">
<title>Node1</title>
<g id="a_Node000001"><a xlink:title="Text of maxlen length rotated, overflow goes on line below.">
<polygon fill="#999999" stroke="#666666" points="85.75,-244.75 0,-244.75 0,-227 85.75,-227 85.75,-244.75"/>
<text text-anchor="middle" x="42.88" y="-233.15" font-family="SourceSans" font-size="8.00">svg::text_line_n_r</text>
</a>
</g>
</g>
<!-- Node2 -->
<g id="Node000002" class="node">
<title>Node2</title>
<g id="a_Node000002"><a xlink:href="namespacesvg.html#a4399801aa964203bcab6e6ab2e7b4200" target="_top" xlink:title="Text at size, with a transformation=rotation.">
<polygon fill="white" stroke="#666666" points="205.25,-203.75 121.75,-203.75 121.75,-186 205.25,-186 205.25,-203.75"/>
<text text-anchor="middle" x="163.5" y="-192.15" font-family="SourceSans" font-size="8.00">svg::sized_text_r</text>
</a>
</g>
</g>
<!-- Node1&#45;&gt;Node2 -->
<g id="edge1_Node000001_Node000002" class="edge">
<title>Node1&#45;&gt;Node2</title>
<g id="a_edge1_Node000001_Node000002"><a xlink:title=" ">
<path fill="none" stroke="#63b8ff" d="M70.79,-226.57C86.87,-221.01 107.53,-213.88 125.16,-207.78"/>
<polygon fill="#63b8ff" stroke="#63b8ff" points="125.95,-211.21 134.26,-204.64 123.66,-204.59 125.95,-211.21"/>
</a>
</g>
</g>
<!-- Node6 -->
<g id="Node000006" class="node">
<title>Node6</title>
<g id="a_Node000006"><a xlink:href="namespacesvg_1_1constants.html#ac460bc8db60d85c3ae1cf8b1a903405e" target="_top" xlink:title="Formatting character constants.">
<polygon fill="white" stroke="#666666" points="645.5,-256.75 538,-256.75 538,-239 645.5,-239 645.5,-256.75"/>
<text text-anchor="middle" x="591.75" y="-245.15" font-family="SourceSans" font-size="8.00">svg::constants::space</text>
</a>
</g>
</g>
<!-- Node1&#45;&gt;Node6 -->
<g id="edge21_Node000001_Node000006" class="edge">
<title>Node1&#45;&gt;Node6</title>
<g id="a_edge21_Node000001_Node000006"><a xlink:title=" ">
<path fill="none" stroke="#63b8ff" d="M76.35,-245.2C115.18,-255.82 182.32,-272.53 241.25,-278.88 269.27,-281.89 496.95,-277.71 502,-276.88 520.97,-273.73 541.41,-267.27 557.9,-261.24"/>
<polygon fill="#63b8ff" stroke="#63b8ff" points="559.08,-264.54 567.19,-257.73 556.6,-257.99 559.08,-264.54"/>
</a>
</g>
</g>
<!-- Node3 -->
<g id="Node000003" class="node">
<title>Node3</title>
<g id="a_Node000003"><a xlink:href="group__elements.html#aad29e1daf75bdcd69a39575a6807fa0f" target="_top" xlink:title="Either serialize immediately (as below), or create data structure that adds data to data_vec and then...">
<polygon fill="white" stroke="#666666" points="343.5,-141.62 248.75,-141.62 248.75,-114.12 343.5,-114.12 343.5,-141.62"/>
<text text-anchor="start" x="256.75" y="-130.03" font-family="SourceSans" font-size="8.00">svg::text_element::</text>
<text text-anchor="middle" x="296.12" y="-120.28" font-family="SourceSans" font-size="8.00">add_data</text>
</a>
</g>
</g>
<!-- Node2&#45;&gt;Node3 -->
<g id="edge2_Node000002_Node000003" class="edge">
<title>Node2&#45;&gt;Node3</title>
<g id="a_edge2_Node000002_Node000003"><a xlink:title=" ">
<path fill="none" stroke="#63b8ff" d="M179.5,-185.57C194.77,-176.28 219.25,-161.83 241.25,-150.88 244.11,-149.45 247.08,-148.03 250.09,-146.63"/>
<polygon fill="#63b8ff" stroke="#63b8ff" points="251.3,-149.93 258.98,-142.63 248.43,-143.54 251.3,-149.93"/>
</a>
</g>
</g>
<!-- Node12 -->
<g id="Node000012" class="node">
<title>Node12</title>
<g id="a_Node000012"><a xlink:href="group__elements.html#aaa5f1a136f2b5c61d647a47ec53fe31d" target="_top" xlink:title=" ">
<polygon fill="white" stroke="#666666" points="351,-60.62 241.25,-60.62 241.25,-33.12 351,-33.12 351,-60.62"/>
<text text-anchor="start" x="249.25" y="-49.02" font-family="SourceSans" font-size="8.00">svg::svg_element::add</text>
<text text-anchor="middle" x="296.12" y="-39.27" font-family="SourceSans" font-size="8.00">_element</text>
</a>
</g>
</g>
<!-- Node2&#45;&gt;Node12 -->
<g id="edge15_Node000002_Node000012" class="edge">
<title>Node2&#45;&gt;Node12</title>
<g id="a_edge15_Node000002_Node000012"><a xlink:title=" ">
<path fill="none" stroke="#63b8ff" d="M172.22,-185.56C185.91,-169.1 215.45,-133.87 241.25,-104.88 251.82,-93.01 263.83,-80.03 273.82,-69.36"/>
<polygon fill="#63b8ff" stroke="#63b8ff" points="276.33,-71.8 280.63,-62.12 271.23,-67.01 276.33,-71.8"/>
</a>
</g>
</g>
<!-- Node14 -->
<g id="Node000014" class="node">
<title>Node14</title>
<g id="a_Node000014"><a xlink:href="group__elements.html#ga13c46848317034d16c62a7d2061ba3d6" target="_top" xlink:title=" ">
<polygon fill="white" stroke="#666666" points="343.5,-269.62 248.75,-269.62 248.75,-242.12 343.5,-242.12 343.5,-269.62"/>
<text text-anchor="start" x="256.75" y="-258.02" font-family="SourceSans" font-size="8.00">svg::text_element::</text>
<text text-anchor="middle" x="296.12" y="-248.28" font-family="SourceSans" font-size="8.00">finish_element</text>
</a>
</g>
</g>
<!-- Node2&#45;&gt;Node14 -->
<g id="edge17_Node000002_Node000014" class="edge">
<title>Node2&#45;&gt;Node14</title>
<g id="a_edge17_Node000002_Node000014"><a xlink:title=" ">
<path fill="none" stroke="#63b8ff" d="M182.66,-204.23C198.12,-212.1 220.99,-223.55 241.25,-232.88 244.34,-234.3 247.54,-235.74 250.77,-237.17"/>
<polygon fill="#63b8ff" stroke="#63b8ff" points="249.13,-240.28 259.7,-241.08 251.94,-233.87 249.13,-240.28"/>
</a>
</g>
</g>
<!-- Node16 -->
<g id="Node000016" class="node">
<title>Node16</title>
<g id="a_Node000016"><a xlink:href="structsvg_1_1transform.html#acf9836f4ba647f0dd2b53963a0f714d0" target="_top" xlink:title=" ">
<polygon fill="white" stroke="#666666" points="349.12,-223.75 243.12,-223.75 243.12,-206 349.12,-206 349.12,-223.75"/>
<text text-anchor="middle" x="296.12" y="-212.15" font-family="SourceSans" font-size="8.00">svg::transform::rotate</text>
</a>
</g>
</g>
<!-- Node2&#45;&gt;Node16 -->
<g id="edge19_Node000002_Node000016" class="edge">
<title>Node2&#45;&gt;Node16</title>
<g id="a_edge19_Node000002_Node000016"><a xlink:title=" ">
<path fill="none" stroke="#63b8ff" d="M205.47,-201.15C213.78,-202.42 222.71,-203.79 231.59,-205.15"/>
<polygon fill="#63b8ff" stroke="#63b8ff" points="230.86,-208.58 241.27,-206.63 231.92,-201.66 230.86,-208.58"/>
</a>
</g>
</g>
<!-- Node17 -->
<g id="Node000017" class="node">
<title>Node17</title>
<g id="a_Node000017"><a xlink:href="group__elements.html#ae45bec611a6ec17ea46aab6d680ae042" target="_top" xlink:title=" ">
<polygon fill="white" stroke="#666666" points="343.5,-187.62 248.75,-187.62 248.75,-160.12 343.5,-160.12 343.5,-187.62"/>
<text text-anchor="start" x="256.75" y="-176.03" font-family="SourceSans" font-size="8.00">svg::text_element::</text>
<text text-anchor="middle" x="296.12" y="-166.28" font-family="SourceSans" font-size="8.00">start_element</text>
</a>
</g>
</g>
<!-- Node2&#45;&gt;Node17 -->
<g id="edge20_Node000002_Node000017" class="edge">
<title>Node2&#45;&gt;Node17</title>
<g id="a_edge20_Node000002_Node000017"><a xlink:title=" ">
<path fill="none" stroke="#63b8ff" d="M205.47,-188.29C215.58,-186.66 226.59,-184.89 237.33,-183.17"/>
<polygon fill="#63b8ff" stroke="#63b8ff" points="237.56,-186.67 246.88,-181.63 236.45,-179.76 237.56,-186.67"/>
</a>
</g>
</g>
<!-- Node4 -->
<g id="Node000004" class="node">
<title>Node4</title>
<g id="a_Node000004"><a xlink:href="structsvg_1_1typography.html#adbc62f74f1fed3f7c77567250f084f83" target="_top" xlink:title=" ">
<polygon fill="white" stroke="#666666" points="496.38,-185.62 392.62,-185.62 392.62,-158.12 496.38,-158.12 496.38,-185.62"/>
<text text-anchor="start" x="400.62" y="-174.03" font-family="SourceSans" font-size="8.00">svg::typography::add</text>
<text text-anchor="middle" x="444.5" y="-164.28" font-family="SourceSans" font-size="8.00">_attribute</text>
</a>
</g>
</g>
<!-- Node3&#45;&gt;Node4 -->
<g id="edge3_Node000003_Node000004" class="edge">
<title>Node3&#45;&gt;Node4</title>
<g id="a_edge3_Node000003_Node000004"><a xlink:title=" ">
<path fill="none" stroke="#63b8ff" d="M343.84,-141.92C357.05,-145.89 371.58,-150.26 385.36,-154.4"/>
<polygon fill="#63b8ff" stroke="#63b8ff" points="384.19,-157.7 394.77,-157.23 386.2,-151 384.19,-157.7"/>
</a>
</g>
</g>
<!-- Node7 -->
<g id="Node000007" class="node">
<title>Node7</title>
<g id="a_Node000007"><a xlink:href="namespacesvg.html#a48ac748e89e22789d1772326a98dd7b6" target="_top" xlink:title=" ">
<polygon fill="white" stroke="#666666" points="638.38,-78.75 545.12,-78.75 545.12,-61 638.38,-61 638.38,-78.75"/>
<text text-anchor="middle" x="591.75" y="-67.15" font-family="SourceSans" font-size="8.00">svg::string_replace</text>
</a>
</g>
</g>
<!-- Node3&#45;&gt;Node7 -->
<g id="edge13_Node000003_Node000007" class="edge">
<title>Node3&#45;&gt;Node7</title>
<g id="a_edge13_Node000003_Node000007"><a xlink:title=" ">
<path fill="none" stroke="#63b8ff" d="M311.16,-113.8C327.65,-98.34 356.65,-74.45 387,-64.88 434.96,-49.74 492.48,-52.95 534.15,-58.8"/>
<polygon fill="#63b8ff" stroke="#63b8ff" points="533.55,-62.25 543.96,-60.29 534.6,-55.33 533.55,-62.25"/>
</a>
</g>
</g>
<!-- Node8 -->
<g id="Node000008" class="node">
<title>Node8</title>
<g id="a_Node000008"><a xlink:href="namespacesvg.html#a36b1c48ad4601b205790e3772ad0a7b6" target="_top" xlink:title=" ">
<polygon fill="white" stroke="#666666" points="627.5,-138.75 556,-138.75 556,-121 627.5,-121 627.5,-138.75"/>
<text text-anchor="middle" x="591.75" y="-127.15" font-family="SourceSans" font-size="8.00">svg::to_string</text>
</a>
</g>
</g>
<!-- Node3&#45;&gt;Node8 -->
<g id="edge14_Node000003_Node000008" class="edge">
<title>Node3&#45;&gt;Node8</title>
<g id="a_edge14_Node000003_Node000008"><a xlink:title=" ">
<path fill="none" stroke="#63b8ff" d="M343.98,-128.19C398.88,-128.57 489.31,-129.18 544.12,-129.56"/>
<polygon fill="#63b8ff" stroke="#63b8ff" points="544.05,-133.06 554.07,-129.63 544.1,-126.06 544.05,-133.06"/>
</a>
</g>
</g>
<!-- Node10 -->
<g id="Node000010" class="node">
<title>Node10</title>
<g id="a_Node000010"><a xlink:href="group__elements.html#a1ed006cabdb9c531c2bd8e27ea9e0966" target="_top" xlink:title=" ">
<polygon fill="white" stroke="#666666" points="491.88,-101.62 397.12,-101.62 397.12,-74.12 491.88,-74.12 491.88,-101.62"/>
<text text-anchor="start" x="405.12" y="-90.03" font-family="SourceSans" font-size="8.00">svg::text_element::</text>
<text text-anchor="middle" x="444.5" y="-80.28" font-family="SourceSans" font-size="8.00">add_text</text>
</a>
</g>
</g>
<!-- Node3&#45;&gt;Node10 -->
<g id="edge9_Node000003_Node000010" class="edge">
<title>Node3&#45;&gt;Node10</title>
<g id="a_edge9_Node000003_Node000010"><a xlink:title=" ">
<path fill="none" stroke="#63b8ff" d="M343.84,-115.11C357.18,-111.46 371.87,-107.45 385.78,-103.65"/>
<polygon fill="#63b8ff" stroke="#63b8ff" points="386.54,-107.07 395.27,-101.06 384.7,-100.32 386.54,-107.07"/>
</a>
</g>
</g>
<!-- Node11 -->
<g id="Node000011" class="node">
<title>Node11</title>
<g id="a_Node000011"><a xlink:href="group__elements.html#a53d72a7ff728ad1d4d027254530bcf3d" target="_top" xlink:title="Common transforms include rotate(180)">
<polygon fill="white" stroke="#666666" points="494.5,-231.62 394.5,-231.62 394.5,-204.12 494.5,-204.12 494.5,-231.62"/>
<text text-anchor="start" x="402.5" y="-220.03" font-family="SourceSans" font-size="8.00">svg::element_base::</text>
<text text-anchor="middle" x="444.5" y="-210.28" font-family="SourceSans" font-size="8.00">add_transform</text>
</a>
</g>
</g>
<!-- Node3&#45;&gt;Node11 -->
<g id="edge10_Node000003_Node000011" class="edge">
<title>Node3&#45;&gt;Node11</title>
<g id="a_edge10_Node000003_Node000011"><a xlink:title=" ">
<path fill="none" stroke="#63b8ff" d="M336.62,-142.08C341.67,-144.65 346.61,-147.58 351,-150.88 371.2,-166.05 366.67,-179.87 387,-194.88 388.55,-196.02 390.17,-197.12 391.84,-198.17"/>
<polygon fill="#63b8ff" stroke="#63b8ff" points="390.02,-201.17 400.46,-202.98 393.43,-195.05 390.02,-201.17"/>
</a>
</g>
</g>
<!-- Node5 -->
<g id="Node000005" class="node">
<title>Node5</title>
<g id="a_Node000005"><a xlink:href="namespacesvg_1_1constants.html#a3972655f1dfdc090ec2592d1fb37e87c" target="_top" xlink:title=" ">
<polygon fill="white" stroke="#666666" points="645.12,-220.75 538.38,-220.75 538.38,-203 645.12,-203 645.12,-220.75"/>
<text text-anchor="middle" x="591.75" y="-209.15" font-family="SourceSans" font-size="8.00">svg::constants::quote</text>
</a>
</g>
</g>
<!-- Node4&#45;&gt;Node5 -->
<g id="edge4_Node000004_Node000005" class="edge">
<title>Node4&#45;&gt;Node5</title>
<g id="a_edge4_Node000004_Node000005"><a xlink:title=" ">
<path fill="none" stroke="#63b8ff" d="M496.71,-185.98C512.75,-190.39 530.31,-195.23 545.88,-199.52"/>
<polygon fill="#63b8ff" stroke="#63b8ff" points="544.78,-202.84 555.35,-202.13 546.64,-196.1 544.78,-202.84"/>
</a>
</g>
</g>
<!-- Node4&#45;&gt;Node6 -->
<g id="edge5_Node000004_Node000006" class="edge">
<title>Node4&#45;&gt;Node6</title>
<g id="a_edge5_Node000004_Node000006"><a xlink:title=" ">
<path fill="none" stroke="#63b8ff" d="M485.98,-186.11C491.54,-188.7 497.04,-191.63 502,-194.88 520.68,-207.08 518.98,-218.21 538,-229.88 540.45,-231.38 543.05,-232.78 545.72,-234.07"/>
<polygon fill="#63b8ff" stroke="#63b8ff" points="544.3,-237.27 554.87,-237.98 547.05,-230.84 544.3,-237.27"/>
</a>
</g>
</g>
<!-- Node4&#45;&gt;Node7 -->
<g id="edge6_Node000004_Node000007" class="edge">
<title>Node4&#45;&gt;Node7</title>
<g id="a_edge6_Node000004_Node000007"><a xlink:title=" ">
<path fill="none" stroke="#63b8ff" d="M465.7,-157.69C492.63,-138.78 540.17,-105.39 568.24,-85.68"/>
<polygon fill="#63b8ff" stroke="#63b8ff" points="570.21,-88.58 576.38,-79.97 566.19,-82.85 570.21,-88.58"/>
</a>
</g>
</g>
<!-- Node4&#45;&gt;Node8 -->
<g id="edge7_Node000004_Node000008" class="edge">
<title>Node4&#45;&gt;Node8</title>
<g id="a_edge7_Node000004_Node000008"><a xlink:title=" ">
<path fill="none" stroke="#63b8ff" d="M494.68,-157.66C511.79,-152.71 530.86,-147.19 547.47,-142.39"/>
<polygon fill="#63b8ff" stroke="#63b8ff" points="548.43,-145.76 557.06,-139.62 546.48,-139.03 548.43,-145.76"/>
</a>
</g>
</g>
<!-- Node9 -->
<g id="Node000009" class="node">
<title>Node9</title>
<g id="a_Node000009"><a xlink:href="structsvg_1_1typography.html#a174c1ffb4e56214d71523ffe7e422561" target="_top" xlink:title=" ">
<polygon fill="white" stroke="#666666" points="639.88,-184.62 543.62,-184.62 543.62,-157.12 639.88,-157.12 639.88,-184.62"/>
<text text-anchor="start" x="551.62" y="-173.03" font-family="SourceSans" font-size="8.00">svg::typography::to</text>
<text text-anchor="middle" x="591.75" y="-163.28" font-family="SourceSans" font-size="8.00">_string</text>
</a>
</g>
</g>
<!-- Node4&#45;&gt;Node9 -->
<g id="edge8_Node000004_Node000009" class="edge">
<title>Node4&#45;&gt;Node9</title>
<g id="a_edge8_Node000004_Node000009"><a xlink:title=" ">
<path fill="none" stroke="#63b8ff" d="M496.71,-171.52C508.1,-171.44 520.27,-171.36 531.94,-171.28"/>
<polygon fill="#63b8ff" stroke="#63b8ff" points="531.91,-174.78 541.89,-171.21 531.86,-167.78 531.91,-174.78"/>
</a>
</g>
</g>
<!-- Node11&#45;&gt;Node5 -->
<g id="edge11_Node000011_Node000005" class="edge">
<title>Node11&#45;&gt;Node5</title>
<g id="a_edge11_Node000011_Node000005"><a xlink:title=" ">
<path fill="none" stroke="#63b8ff" d="M494.68,-215.84C504.89,-215.42 515.8,-214.97 526.46,-214.53"/>
<polygon fill="#63b8ff" stroke="#63b8ff" points="526.53,-218.03 536.38,-214.12 526.25,-211.04 526.53,-218.03"/>
</a>
</g>
</g>
<!-- Node11&#45;&gt;Node6 -->
<g id="edge12_Node000011_Node000006" class="edge">
<title>Node11&#45;&gt;Node6</title>
<g id="a_edge12_Node000011_Node000006"><a xlink:title=" ">
<path fill="none" stroke="#63b8ff" d="M494.68,-228.03C507.41,-230.66 521.21,-233.51 534.29,-236.21"/>
<polygon fill="#63b8ff" stroke="#63b8ff" points="533.56,-239.64 544.06,-238.23 534.97,-232.78 533.56,-239.64"/>
</a>
</g>
</g>
<!-- Node13 -->
<g id="Node000013" class="node">
<title>Node13</title>
<g id="a_Node000013"><a xlink:href="group__elements.html#ad893ef9c13a15464c96d8a85c08af30f" target="_top" xlink:title=" ">
<polygon fill="white" stroke="#666666" points="499.75,-17.75 389.25,-17.75 389.25,0 499.75,0 499.75,-17.75"/>
<text text-anchor="middle" x="444.5" y="-6.15" font-family="SourceSans" font-size="8.00">svg::element_base::str</text>
</a>
</g>
</g>
<!-- Node12&#45;&gt;Node13 -->
<g id="edge16_Node000012_Node000013" class="edge">
<title>Node12&#45;&gt;Node13</title>
<g id="a_edge16_Node000012_Node000013"><a xlink:title=" ">
<path fill="none" stroke="#63b8ff" d="M351.21,-32.83C365.99,-29 381.89,-24.87 396.26,-21.14"/>
<polygon fill="#63b8ff" stroke="#63b8ff" points="397.13,-24.53 405.93,-18.63 395.37,-17.75 397.13,-24.53"/>
</a>
</g>
</g>
<!-- Node15 -->
<g id="Node000015" class="node">
<title>Node15</title>
<g id="a_Node000015"><a xlink:href="namespacesvg_1_1constants.html#aa7f04c2ea699a1b1e2e790de5ac33f38" target="_top" xlink:title=" ">
<polygon fill="white" stroke="#666666" points="502,-267.75 387,-267.75 387,-250 502,-250 502,-267.75"/>
<text text-anchor="middle" x="444.5" y="-256.15" font-family="SourceSans" font-size="8.00">svg::constants::newline</text>
</a>
</g>
</g>
<!-- Node14&#45;&gt;Node15 -->
<g id="edge18_Node000014_Node000015" class="edge">
<title>Node14&#45;&gt;Node15</title>
<g id="a_edge18_Node000014_Node000015"><a xlink:title=" ">
<path fill="none" stroke="#63b8ff" d="M343.84,-256.83C353.86,-257.04 364.64,-257.26 375.28,-257.48"/>
<polygon fill="#63b8ff" stroke="#63b8ff" points="375.14,-260.97 385.21,-257.68 375.28,-253.98 375.14,-260.97"/>
</a>
</g>
</g>
</g>
</svg>

<g id="navigator" transform="translate(0 0)" fill="#404254">
  <rect fill="#f2f5e9" fill-opacity="0.5" stroke="#606060" stroke-width=".5" x="0" y="0" width="60" height="60"/>
  <use id="zoomplus" xlink:href="#zoomPlus" x="17" y="9" onmousedown="handleZoom(evt,'in')"/>
  <use id="zoomminus" xlink:href="#zoomMin" x="42" y="9" onmousedown="handleZoom(evt,'out')"/>
  <use id="reset" xlink:href="#resetDef" x="30" y="36" onmousedown="handleReset()"/>
   <use id="arrowup" xlink:href="#arrowUp" x="0" y="0" onmousedown="handlePan(0,-1)"/>
  <use id="arrowright" xlink:href="#arrowRight" x="0" y="0" onmousedown="handlePan(1,0)"/>
  <use id="arrowdown" xlink:href="#arrowDown" x="0" y="0" onmousedown="handlePan(0,1)"/>
  <use id="arrowleft" xlink:href="#arrowLeft" x="0" y="0" onmousedown="handlePan(-1,0)"/>
</g>
<svg viewBox="0 0 15 15" width="100%" height="30px" preserveAspectRatio="xMaxYMin meet">
 <g id="arrow_out" transform="scale(0.3 0.3)">
  <a xlink:href="namespacesvg_ab065a6cdc07dfec43230a9e4e54927b1_cgraph_org.svg" target="_base">
   <rect id="button" ry="5" rx="5" y="6" x="6" height="38" width="38"
        fill="#f2f5e9" fill-opacity="0.5" stroke="#606060" stroke-width="1.0"/>
   <path id="arrow"
     d="M 11.500037,31.436501 C 11.940474,20.09759 22.043105,11.32322 32.158766,21.979434 L 37.068811,17.246167 C 37.068811,17.246167 37.088388,32 37.088388,32 L 22.160133,31.978069 C 22.160133,31.978069 26.997745,27.140456 26.997745,27.140456 C 18.528582,18.264221 13.291696,25.230495 11.500037,31.436501 z"
     style="fill:#404040;"/>
  </a>
 </g>
</svg>

<style type='text/css'>
<![CDATA[
[data-mouse-over-selected='false'] { opacity: 0.7; }
[data-mouse-over-selected='true']  { opacity: 1.0; }
]]>
</style>
<script type="application/ecmascript"><![CDATA[
document.addEventListener('DOMContentLoaded', (event) => {
  highlightEdges();
  highlightAdjacentNodes();
});
]]></script>
</svg>
