<?xml version="1.0" encoding="UTF-8" standalone="no"?>
<!DOCTYPE svg PUBLIC "-//W3C//DTD SVG 1.1//EN"
 "http://www.w3.org/Graphics/SVG/1.1/DTD/svg11.dtd">
<!-- Generated by graphviz version 12.2.1 (20241206.2353)
 -->
<!-- Title: svg::radial_text_ccw Pages: 1 -->
<svg width="612pt" height="365pt"
 viewBox="0.00 0.00 611.50 365.00" xmlns="http://www.w3.org/2000/svg" xmlns:xlink="http://www.w3.org/1999/xlink">
<g id="graph0" class="graph" transform="scale(1 1) rotate(0) translate(4 361)">
<title>svg::radial_text_ccw</title>
<!-- Node1 -->
<g id="Node000001" class="node">
<title>Node1</title>
<g id="a_Node000001"><a xlink:title="Text with typography, arranged ccw around points (x,y) on a circle.">
<polygon fill="#999999" stroke="#666666" points="91,-114 0,-114 0,-94 91,-94 91,-114"/>
<text text-anchor="middle" x="45.5" y="-102.4" font-family="SourceSans" font-size="8.00">svg::radial_text_ccw</text>
</a>
</g>
</g>
<!-- Node2 -->
<g id="Node000002" class="node">
<title>Node2</title>
<g id="a_Node000002"><a xlink:href="namespacesvg.html#a289756f72239f34c2e6df0f7d9dd2d29" target="_top" xlink:title="Text at.">
<polygon fill="white" stroke="#666666" points="208.25,-114 127,-114 127,-94 208.25,-94 208.25,-114"/>
<text text-anchor="middle" x="167.62" y="-102.4" font-family="SourceSans" font-size="8.00">svg::styled_text_r</text>
</a>
</g>
</g>
<!-- Node1&#45;&gt;Node2 -->
<g id="edge1_Node000001_Node000002" class="edge">
<title>Node1&#45;&gt;Node2</title>
<g id="a_edge1_Node000001_Node000002"><a xlink:title=" ">
<path fill="none" stroke="#63b8ff" d="M91.23,-104C99.03,-104 107.2,-104 115.16,-104"/>
<polygon fill="#63b8ff" stroke="#63b8ff" points="115.1,-107.5 125.1,-104 115.1,-100.5 115.1,-107.5"/>
</a>
</g>
</g>
<!-- Node3 -->
<g id="Node000003" class="node">
<title>Node3</title>
<g id="a_Node000003"><a xlink:href="group__elements.html#aad29e1daf75bdcd69a39575a6807fa0f" target="_top" xlink:title="Either serialize immediately (as below), or create data structure that adds data to data_vec and then...">
<polygon fill="white" stroke="#666666" points="337.12,-253 249.12,-253 249.12,-221 337.12,-221 337.12,-253"/>
<text text-anchor="start" x="257.12" y="-241.4" font-family="SourceSans" font-size="8.00">svg::text_element::</text>
<text text-anchor="middle" x="293.12" y="-229.4" font-family="SourceSans" font-size="8.00">add_data</text>
</a>
</g>
</g>
<!-- Node2&#45;&gt;Node3 -->
<g id="edge2_Node000002_Node000003" class="edge">
<title>Node2&#45;&gt;Node3</title>
<g id="a_edge2_Node000002_Node000003"><a xlink:title=" ">
<path fill="none" stroke="#63b8ff" d="M178.32,-114.44C197.78,-135.39 242.07,-183.09 269.3,-212.42"/>
<polygon fill="#63b8ff" stroke="#63b8ff" points="266.43,-214.47 275.8,-219.42 271.56,-209.71 266.43,-214.47"/>
</a>
</g>
</g>
<!-- Node10 -->
<g id="Node000010" class="node">
<title>Node10</title>
<g id="a_Node000010"><a xlink:href="group__elements.html#ada0333b46b2547c6152f3f5811016a12" target="_top" xlink:title=" ">
<polygon fill="white" stroke="#666666" points="338.62,-170 247.62,-170 247.62,-138 338.62,-138 338.62,-170"/>
<text text-anchor="start" x="255.62" y="-158.4" font-family="SourceSans" font-size="8.00">svg::element_base::</text>
<text text-anchor="middle" x="293.12" y="-146.4" font-family="SourceSans" font-size="8.00">add_element</text>
</a>
</g>
</g>
<!-- Node2&#45;&gt;Node10 -->
<g id="edge11_Node000002_Node000010" class="edge">
<title>Node2&#45;&gt;Node10</title>
<g id="a_edge11_Node000002_Node000010"><a xlink:title=" ">
<path fill="none" stroke="#63b8ff" d="M194.51,-114.48C208.09,-119.98 225.21,-126.91 241.3,-133.42"/>
<polygon fill="#63b8ff" stroke="#63b8ff" points="239.7,-136.55 250.28,-137.06 242.32,-130.06 239.7,-136.55"/>
</a>
</g>
</g>
<!-- Node12 -->
<g id="Node000012" class="node">
<title>Node12</title>
<g id="a_Node000012"><a xlink:href="group__elements.html#ga13c46848317034d16c62a7d2061ba3d6" target="_top" xlink:title=" ">
<polygon fill="white" stroke="#666666" points="337.12,-120 249.12,-120 249.12,-88 337.12,-88 337.12,-120"/>
<text text-anchor="start" x="257.12" y="-108.4" font-family="SourceSans" font-size="8.00">svg::text_element::</text>
<text text-anchor="middle" x="293.12" y="-96.4" font-family="SourceSans" font-size="8.00">finish_element</text>
</a>
</g>
</g>
<!-- Node2&#45;&gt;Node12 -->
<g id="edge13_Node000002_Node000012" class="edge">
<title>Node2&#45;&gt;Node12</title>
<g id="a_edge13_Node000002_Node000012"><a xlink:title=" ">
<path fill="none" stroke="#63b8ff" d="M208.72,-104C217.94,-104 227.89,-104 237.59,-104"/>
<polygon fill="#63b8ff" stroke="#63b8ff" points="237.31,-107.5 247.31,-104 237.31,-100.5 237.31,-107.5"/>
</a>
</g>
</g>
<!-- Node13 -->
<g id="Node000013" class="node">
<title>Node13</title>
<g id="a_Node000013"><a xlink:href="structsvg_1_1transform.html#acf9836f4ba647f0dd2b53963a0f714d0" target="_top" xlink:title=" ">
<polygon fill="white" stroke="#666666" points="342,-70 244.25,-70 244.25,-50 342,-50 342,-70"/>
<text text-anchor="middle" x="293.12" y="-58.4" font-family="SourceSans" font-size="8.00">svg::transform::rotate</text>
</a>
</g>
</g>
<!-- Node2&#45;&gt;Node13 -->
<g id="edge14_Node000002_Node000013" class="edge">
<title>Node2&#45;&gt;Node13</title>
<g id="a_edge14_Node000002_Node000013"><a xlink:title=" ">
<path fill="none" stroke="#63b8ff" d="M197.89,-93.57C214.2,-87.76 234.72,-80.45 252.45,-74.13"/>
<polygon fill="#63b8ff" stroke="#63b8ff" points="253.4,-77.51 261.64,-70.86 251.05,-70.92 253.4,-77.51"/>
</a>
</g>
</g>
<!-- Node14 -->
<g id="Node000014" class="node">
<title>Node14</title>
<g id="a_Node000014"><a xlink:href="group__elements.html#ae45bec611a6ec17ea46aab6d680ae042" target="_top" xlink:title=" ">
<polygon fill="white" stroke="#666666" points="337.12,-32 249.12,-32 249.12,0 337.12,0 337.12,-32"/>
<text text-anchor="start" x="257.12" y="-20.4" font-family="SourceSans" font-size="8.00">svg::text_element::</text>
<text text-anchor="middle" x="293.12" y="-8.4" font-family="SourceSans" font-size="8.00">start_element</text>
</a>
</g>
</g>
<!-- Node2&#45;&gt;Node14 -->
<g id="edge15_Node000002_Node000014" class="edge">
<title>Node2&#45;&gt;Node14</title>
<g id="a_edge15_Node000002_Node000014"><a xlink:title=" ">
<path fill="none" stroke="#63b8ff" d="M179.32,-93.83C193.46,-80.67 219.51,-57.49 244.25,-41 245.64,-40.07 247.07,-39.16 248.52,-38.25"/>
<polygon fill="#63b8ff" stroke="#63b8ff" points="250.22,-41.31 257.07,-33.23 246.68,-35.27 250.22,-41.31"/>
</a>
</g>
</g>
<!-- Node4 -->
<g id="Node000004" class="node">
<title>Node4</title>
<g id="a_Node000004"><a xlink:href="structsvg_1_1typography.html#adbc62f74f1fed3f7c77567250f084f83" target="_top" xlink:title=" ">
<polygon fill="white" stroke="#666666" points="476.5,-319 380.25,-319 380.25,-287 476.5,-287 476.5,-319"/>
<text text-anchor="start" x="388.25" y="-307.4" font-family="SourceSans" font-size="8.00">svg::typography::add</text>
<text text-anchor="middle" x="428.38" y="-295.4" font-family="SourceSans" font-size="8.00">_attribute</text>
</a>
</g>
</g>
<!-- Node3&#45;&gt;Node4 -->
<g id="edge3_Node000003_Node000004" class="edge">
<title>Node3&#45;&gt;Node4</title>
<g id="a_edge3_Node000003_Node000004"><a xlink:title=" ">
<path fill="none" stroke="#63b8ff" d="M327.41,-253.48C344.63,-262.01 365.85,-272.53 384.31,-281.67"/>
<polygon fill="#63b8ff" stroke="#63b8ff" points="382.65,-284.75 393.16,-286.05 385.75,-278.48 382.65,-284.75"/>
</a>
</g>
</g>
<!-- Node5 -->
<g id="Node000005" class="node">
<title>Node5</title>
<g id="a_Node000005"><a xlink:href="namespacesvg.html#a48ac748e89e22789d1772326a98dd7b6" target="_top" xlink:title=" ">
<polygon fill="white" stroke="#666666" points="602.75,-357 515.5,-357 515.5,-337 602.75,-337 602.75,-357"/>
<text text-anchor="middle" x="559.12" y="-345.4" font-family="SourceSans" font-size="8.00">svg::string_replace</text>
</a>
</g>
</g>
<!-- Node3&#45;&gt;Node5 -->
<g id="edge9_Node000003_Node000005" class="edge">
<title>Node3&#45;&gt;Node5</title>
<g id="a_edge9_Node000003_Node000005"><a xlink:title=" ">
<path fill="none" stroke="#63b8ff" d="M303.91,-253.5C317.54,-274.79 344.4,-311.12 378,-328 417.09,-347.64 466.88,-351.54 504.21,-351.02"/>
<polygon fill="#63b8ff" stroke="#63b8ff" points="503.95,-354.53 513.85,-350.76 503.76,-347.53 503.95,-354.53"/>
</a>
</g>
</g>
<!-- Node6 -->
<g id="Node000006" class="node">
<title>Node6</title>
<g id="a_Node000006"><a xlink:href="namespacesvg.html#a36b1c48ad4601b205790e3772ad0a7b6" target="_top" xlink:title=" ">
<polygon fill="white" stroke="#666666" points="592.62,-269 525.62,-269 525.62,-249 592.62,-249 592.62,-269"/>
<text text-anchor="middle" x="559.12" y="-257.4" font-family="SourceSans" font-size="8.00">svg::to_string</text>
</a>
</g>
</g>
<!-- Node3&#45;&gt;Node6 -->
<g id="edge10_Node000003_Node000006" class="edge">
<title>Node3&#45;&gt;Node6</title>
<g id="a_edge10_Node000003_Node000006"><a xlink:title=" ">
<path fill="none" stroke="#63b8ff" d="M337.42,-240.61C386.18,-244.67 464.98,-251.24 514.05,-255.33"/>
<polygon fill="#63b8ff" stroke="#63b8ff" points="513.48,-258.79 523.74,-256.13 514.06,-251.82 513.48,-258.79"/>
</a>
</g>
</g>
<!-- Node8 -->
<g id="Node000008" class="node">
<title>Node8</title>
<g id="a_Node000008"><a xlink:href="group__elements.html#a1ed006cabdb9c531c2bd8e27ea9e0966" target="_top" xlink:title=" ">
<polygon fill="white" stroke="#666666" points="472.38,-231 384.38,-231 384.38,-199 472.38,-199 472.38,-231"/>
<text text-anchor="start" x="392.38" y="-219.4" font-family="SourceSans" font-size="8.00">svg::text_element::</text>
<text text-anchor="middle" x="428.38" y="-207.4" font-family="SourceSans" font-size="8.00">add_text</text>
</a>
</g>
</g>
<!-- Node3&#45;&gt;Node8 -->
<g id="edge7_Node000003_Node000008" class="edge">
<title>Node3&#45;&gt;Node8</title>
<g id="a_edge7_Node000003_Node000008"><a xlink:title=" ">
<path fill="none" stroke="#63b8ff" d="M337.39,-229.86C348.79,-227.97 361.24,-225.92 373.14,-223.95"/>
<polygon fill="#63b8ff" stroke="#63b8ff" points="373.54,-227.44 382.84,-222.35 372.4,-220.53 373.54,-227.44"/>
</a>
</g>
</g>
<!-- Node9 -->
<g id="Node000009" class="node">
<title>Node9</title>
<g id="a_Node000009"><a xlink:href="group__elements.html#a53d72a7ff728ad1d4d027254530bcf3d" target="_top" xlink:title="Common transforms include rotate(180)">
<polygon fill="white" stroke="#666666" points="473.88,-181 382.88,-181 382.88,-149 473.88,-149 473.88,-181"/>
<text text-anchor="start" x="390.88" y="-169.4" font-family="SourceSans" font-size="8.00">svg::element_base::</text>
<text text-anchor="middle" x="428.38" y="-157.4" font-family="SourceSans" font-size="8.00">add_transform</text>
</a>
</g>
</g>
<!-- Node3&#45;&gt;Node9 -->
<g id="edge8_Node000003_Node000009" class="edge">
<title>Node3&#45;&gt;Node9</title>
<g id="a_edge8_Node000003_Node000009"><a xlink:title=" ">
<path fill="none" stroke="#63b8ff" d="M322.69,-220.6C338.83,-211.43 359.44,-199.89 378,-190 380.05,-188.91 382.16,-187.79 384.29,-186.68"/>
<polygon fill="#63b8ff" stroke="#63b8ff" points="385.72,-189.88 393,-182.18 382.51,-183.66 385.72,-189.88"/>
</a>
</g>
</g>
<!-- Node4&#45;&gt;Node5 -->
<g id="edge4_Node000004_Node000005" class="edge">
<title>Node4&#45;&gt;Node5</title>
<g id="a_edge4_Node000004_Node000005"><a xlink:title=" ">
<path fill="none" stroke="#63b8ff" d="M476.95,-319.26C490.03,-323.73 504.1,-328.54 516.79,-332.87"/>
<polygon fill="#63b8ff" stroke="#63b8ff" points="515.5,-336.13 526.1,-336.05 517.77,-329.51 515.5,-336.13"/>
</a>
</g>
</g>
<!-- Node4&#45;&gt;Node6 -->
<g id="edge5_Node000004_Node000006" class="edge">
<title>Node4&#45;&gt;Node6</title>
<g id="a_edge5_Node000004_Node000006"><a xlink:title=" ">
<path fill="none" stroke="#63b8ff" d="M476.95,-286.74C490.03,-282.27 504.1,-277.46 516.79,-273.13"/>
<polygon fill="#63b8ff" stroke="#63b8ff" points="517.77,-276.49 526.1,-269.95 515.5,-269.87 517.77,-276.49"/>
</a>
</g>
</g>
<!-- Node7 -->
<g id="Node000007" class="node">
<title>Node7</title>
<g id="a_Node000007"><a xlink:href="structsvg_1_1typography.html#a174c1ffb4e56214d71523ffe7e422561" target="_top" xlink:title=" ">
<polygon fill="white" stroke="#666666" points="603.5,-319 514.75,-319 514.75,-287 603.5,-287 603.5,-319"/>
<text text-anchor="start" x="522.75" y="-307.4" font-family="SourceSans" font-size="8.00">svg::typography::to</text>
<text text-anchor="middle" x="559.12" y="-295.4" font-family="SourceSans" font-size="8.00">_string</text>
</a>
</g>
</g>
<!-- Node4&#45;&gt;Node7 -->
<g id="edge6_Node000004_Node000007" class="edge">
<title>Node4&#45;&gt;Node7</title>
<g id="a_edge6_Node000004_Node000007"><a xlink:title=" ">
<path fill="none" stroke="#63b8ff" d="M476.95,-303C485.52,-303 494.51,-303 503.27,-303"/>
<polygon fill="#63b8ff" stroke="#63b8ff" points="503.06,-306.5 513.06,-303 503.06,-299.5 503.06,-306.5"/>
</a>
</g>
</g>
<!-- Node11 -->
<g id="Node000011" class="node">
<title>Node11</title>
<g id="a_Node000011"><a xlink:href="group__elements.html#ad893ef9c13a15464c96d8a85c08af30f" target="_top" xlink:title=" ">
<polygon fill="white" stroke="#666666" points="478.75,-131 378,-131 378,-111 478.75,-111 478.75,-131"/>
<text text-anchor="middle" x="428.38" y="-119.4" font-family="SourceSans" font-size="8.00">svg::element_base::str</text>
</a>
</g>
</g>
<!-- Node10&#45;&gt;Node11 -->
<g id="edge12_Node000010_Node000011" class="edge">
<title>Node10&#45;&gt;Node11</title>
<g id="a_edge12_Node000010_Node000011"><a xlink:title=" ">
<path fill="none" stroke="#63b8ff" d="M338.87,-142.92C350.21,-140.11 362.51,-137.06 374.22,-134.16"/>
<polygon fill="#63b8ff" stroke="#63b8ff" points="374.9,-137.6 383.76,-131.8 373.21,-130.81 374.9,-137.6"/>
</a>
</g>
</g>
</g>
</svg>
