<?xml version="1.0" encoding="UTF-8" standalone="no"?>
<!DOCTYPE svg PUBLIC "-//W3C//DTD SVG 1.1//EN"
 "http://www.w3.org/Graphics/SVG/1.1/DTD/svg11.dtd">
<!-- Generated by graphviz version 12.1.0 (20240811.2233)
 -->
<!-- Title: svg::text_line_n Pages: 1 -->
<svg width="640pt" height="290pt"
 viewBox="0.00 0.00 640.00 290.37" xmlns="http://www.w3.org/2000/svg" xmlns:xlink="http://www.w3.org/1999/xlink">
<g id="graph0" class="graph" transform="scale(1 1) rotate(0) translate(4 286.37)">
<title>svg::text_line_n</title>
<!-- Node1 -->
<g id="Node000001" class="node">
<title>Node1</title>
<g id="a_Node000001"><a xlink:title="Text of maxlen length, overflow goes on line below.">
<polygon fill="#999999" stroke="#666666" points="79,-62.37 0,-62.37 0,-44.62 79,-44.62 79,-62.37"/>
<text text-anchor="middle" x="39.5" y="-50.77" font-family="SourceSans" font-size="8.00">svg::text_line_n</text>
</a>
</g>
</g>
<!-- Node2 -->
<g id="Node000002" class="node">
<title>Node2</title>
<g id="a_Node000002"><a xlink:href="namespacesvg.html#ab2d2020c33da2e0215837673e530b991" target="_top" xlink:title="Text at size.">
<polygon fill="white" stroke="#666666" points="191.75,-137.37 115,-137.37 115,-119.62 191.75,-119.62 191.75,-137.37"/>
<text text-anchor="middle" x="153.38" y="-125.77" font-family="SourceSans" font-size="8.00">svg::sized_text</text>
</a>
</g>
</g>
<!-- Node1&#45;&gt;Node2 -->
<g id="edge1_Node000001_Node000002" class="edge">
<title>Node1&#45;&gt;Node2</title>
<g id="a_edge1_Node000001_Node000002"><a xlink:title=" ">
<path fill="none" stroke="#63b8ff" d="M54.22,-62.69C72.84,-75.17 106.38,-97.66 129.01,-112.83"/>
<polygon fill="#63b8ff" stroke="#63b8ff" points="127.03,-115.72 137.29,-118.38 130.93,-109.9 127.03,-115.72"/>
</a>
</g>
</g>
<!-- Node6 -->
<g id="Node000006" class="node">
<title>Node6</title>
<g id="a_Node000006"><a xlink:href="namespacesvg_1_1constants.html#ac460bc8db60d85c3ae1cf8b1a903405e" target="_top" xlink:title="Formatting character constants.">
<polygon fill="white" stroke="#666666" points="632,-37.37 524.5,-37.37 524.5,-19.62 632,-19.62 632,-37.37"/>
<text text-anchor="middle" x="578.25" y="-25.77" font-family="SourceSans" font-size="8.00">svg::constants::space</text>
</a>
</g>
</g>
<!-- Node1&#45;&gt;Node6 -->
<g id="edge20_Node000001_Node000006" class="edge">
<title>Node1&#45;&gt;Node6</title>
<g id="a_edge20_Node000001_Node000006"><a xlink:title=" ">
<path fill="none" stroke="#63b8ff" d="M75.7,-44.13C151.35,-25.23 335.06,14.07 488.5,-5.49 505.02,-7.6 522.85,-11.82 538.18,-16.08"/>
<polygon fill="#63b8ff" stroke="#63b8ff" points="536.8,-19.33 547.38,-18.74 538.74,-12.6 536.8,-19.33"/>
</a>
</g>
</g>
<!-- Node3 -->
<g id="Node000003" class="node">
<title>Node3</title>
<g id="a_Node000003"><a xlink:href="group__elements.html#aad29e1daf75bdcd69a39575a6807fa0f" target="_top" xlink:title="Either serialize immediately (as below), or create data structure that adds data to data_vec and then...">
<polygon fill="white" stroke="#666666" points="330,-142.24 235.25,-142.24 235.25,-114.74 330,-114.74 330,-142.24"/>
<text text-anchor="start" x="243.25" y="-130.64" font-family="SourceSans" font-size="8.00">svg::text_element::</text>
<text text-anchor="middle" x="282.62" y="-120.89" font-family="SourceSans" font-size="8.00">add_data</text>
</a>
</g>
</g>
<!-- Node2&#45;&gt;Node3 -->
<g id="edge2_Node000002_Node000003" class="edge">
<title>Node2&#45;&gt;Node3</title>
<g id="a_edge2_Node000002_Node000003"><a xlink:title=" ">
<path fill="none" stroke="#63b8ff" d="M192.21,-128.49C202.11,-128.49 213.01,-128.49 223.7,-128.49"/>
<polygon fill="#63b8ff" stroke="#63b8ff" points="223.64,-131.99 233.64,-128.49 223.64,-124.99 223.64,-131.99"/>
</a>
</g>
</g>
<!-- Node12 -->
<g id="Node000012" class="node">
<title>Node12</title>
<g id="a_Node000012"><a xlink:href="group__elements.html#aaa5f1a136f2b5c61d647a47ec53fe31d" target="_top" xlink:title=" ">
<polygon fill="white" stroke="#666666" points="337.5,-279.24 227.75,-279.24 227.75,-251.74 337.5,-251.74 337.5,-279.24"/>
<text text-anchor="start" x="235.75" y="-267.64" font-family="SourceSans" font-size="8.00">svg::svg_element::add</text>
<text text-anchor="middle" x="282.62" y="-257.89" font-family="SourceSans" font-size="8.00">_element</text>
</a>
</g>
</g>
<!-- Node2&#45;&gt;Node12 -->
<g id="edge15_Node000002_Node000012" class="edge">
<title>Node2&#45;&gt;Node12</title>
<g id="a_edge15_Node000002_Node000012"><a xlink:title=" ">
<path fill="none" stroke="#63b8ff" d="M159.8,-137.71C170.95,-156.16 197.91,-198.34 227.75,-227.49 234.14,-233.73 241.64,-239.7 248.98,-244.98"/>
<polygon fill="#63b8ff" stroke="#63b8ff" points="246.64,-247.61 256.85,-250.41 250.61,-241.85 246.64,-247.61"/>
</a>
</g>
</g>
<!-- Node14 -->
<g id="Node000014" class="node">
<title>Node14</title>
<g id="a_Node000014"><a xlink:href="group__elements.html#ga13c46848317034d16c62a7d2061ba3d6" target="_top" xlink:title=" ">
<polygon fill="white" stroke="#666666" points="330,-218.24 235.25,-218.24 235.25,-190.74 330,-190.74 330,-218.24"/>
<text text-anchor="start" x="243.25" y="-206.64" font-family="SourceSans" font-size="8.00">svg::text_element::</text>
<text text-anchor="middle" x="282.62" y="-196.89" font-family="SourceSans" font-size="8.00">finish_element</text>
</a>
</g>
</g>
<!-- Node2&#45;&gt;Node14 -->
<g id="edge17_Node000002_Node000014" class="edge">
<title>Node2&#45;&gt;Node14</title>
<g id="a_edge17_Node000002_Node000014"><a xlink:title=" ">
<path fill="none" stroke="#63b8ff" d="M169.98,-137.81C189.43,-149.43 223.2,-169.6 248.52,-184.72"/>
<polygon fill="#63b8ff" stroke="#63b8ff" points="246.42,-187.54 256.8,-189.66 250.01,-181.53 246.42,-187.54"/>
</a>
</g>
</g>
<!-- Node16 -->
<g id="Node000016" class="node">
<title>Node16</title>
<g id="a_Node000016"><a xlink:href="group__elements.html#ae45bec611a6ec17ea46aab6d680ae042" target="_top" xlink:title=" ">
<polygon fill="white" stroke="#666666" points="330,-96.24 235.25,-96.24 235.25,-68.74 330,-68.74 330,-96.24"/>
<text text-anchor="start" x="243.25" y="-84.64" font-family="SourceSans" font-size="8.00">svg::text_element::</text>
<text text-anchor="middle" x="282.62" y="-74.89" font-family="SourceSans" font-size="8.00">start_element</text>
</a>
</g>
</g>
<!-- Node2&#45;&gt;Node16 -->
<g id="edge19_Node000002_Node000016" class="edge">
<title>Node2&#45;&gt;Node16</title>
<g id="a_edge19_Node000002_Node000016"><a xlink:title=" ">
<path fill="none" stroke="#63b8ff" d="M180.13,-119.18C194.92,-113.83 214.01,-106.93 231.64,-100.56"/>
<polygon fill="#63b8ff" stroke="#63b8ff" points="232.73,-103.89 240.95,-97.2 230.35,-97.3 232.73,-103.89"/>
</a>
</g>
</g>
<!-- Node4 -->
<g id="Node000004" class="node">
<title>Node4</title>
<g id="a_Node000004"><a xlink:href="structsvg_1_1typography.html#adbc62f74f1fed3f7c77567250f084f83" target="_top" xlink:title=" ">
<polygon fill="white" stroke="#666666" points="482.88,-134.24 379.12,-134.24 379.12,-106.74 482.88,-106.74 482.88,-134.24"/>
<text text-anchor="start" x="387.12" y="-122.64" font-family="SourceSans" font-size="8.00">svg::typography::add</text>
<text text-anchor="middle" x="431" y="-112.89" font-family="SourceSans" font-size="8.00">_attribute</text>
</a>
</g>
</g>
<!-- Node3&#45;&gt;Node4 -->
<g id="edge3_Node000003_Node000004" class="edge">
<title>Node3&#45;&gt;Node4</title>
<g id="a_edge3_Node000003_Node000004"><a xlink:title=" ">
<path fill="none" stroke="#63b8ff" d="M330.34,-125.94C342.13,-125.29 354.97,-124.59 367.4,-123.91"/>
<polygon fill="#63b8ff" stroke="#63b8ff" points="367.35,-127.42 377.15,-123.38 366.97,-120.43 367.35,-127.42"/>
</a>
</g>
</g>
<!-- Node7 -->
<g id="Node000007" class="node">
<title>Node7</title>
<g id="a_Node000007"><a xlink:href="namespacesvg.html#a48ac748e89e22789d1772326a98dd7b6" target="_top" xlink:title=" ">
<polygon fill="white" stroke="#666666" points="624.88,-170.37 531.62,-170.37 531.62,-152.62 624.88,-152.62 624.88,-170.37"/>
<text text-anchor="middle" x="578.25" y="-158.77" font-family="SourceSans" font-size="8.00">svg::string_replace</text>
</a>
</g>
</g>
<!-- Node3&#45;&gt;Node7 -->
<g id="edge13_Node000003_Node000007" class="edge">
<title>Node3&#45;&gt;Node7</title>
<g id="a_edge13_Node000003_Node000007"><a xlink:title=" ">
<path fill="none" stroke="#63b8ff" d="M330.17,-136.96C344.08,-139.3 359.38,-141.69 373.5,-143.49 422.82,-149.78 479.14,-154.57 520.04,-157.62"/>
<polygon fill="#63b8ff" stroke="#63b8ff" points="519.68,-161.11 529.91,-158.35 520.19,-154.13 519.68,-161.11"/>
</a>
</g>
</g>
<!-- Node8 -->
<g id="Node000008" class="node">
<title>Node8</title>
<g id="a_Node000008"><a xlink:href="namespacesvg.html#a36b1c48ad4601b205790e3772ad0a7b6" target="_top" xlink:title=" ">
<polygon fill="white" stroke="#666666" points="614,-207.37 542.5,-207.37 542.5,-189.62 614,-189.62 614,-207.37"/>
<text text-anchor="middle" x="578.25" y="-195.77" font-family="SourceSans" font-size="8.00">svg::to_string</text>
</a>
</g>
</g>
<!-- Node3&#45;&gt;Node8 -->
<g id="edge14_Node000003_Node000008" class="edge">
<title>Node3&#45;&gt;Node8</title>
<g id="a_edge14_Node000003_Node000008"><a xlink:title=" ">
<path fill="none" stroke="#63b8ff" d="M315.54,-142.73C332.48,-149.82 353.82,-158.03 373.5,-163.49 426.61,-178.23 489.32,-187.88 531,-193.24"/>
<polygon fill="#63b8ff" stroke="#63b8ff" points="530.31,-196.69 540.67,-194.46 531.18,-189.74 530.31,-196.69"/>
</a>
</g>
</g>
<!-- Node10 -->
<g id="Node000010" class="node">
<title>Node10</title>
<g id="a_Node000010"><a xlink:href="group__elements.html#a1ed006cabdb9c531c2bd8e27ea9e0966" target="_top" xlink:title=" ">
<polygon fill="white" stroke="#666666" points="478.38,-88.24 383.62,-88.24 383.62,-60.74 478.38,-60.74 478.38,-88.24"/>
<text text-anchor="start" x="391.62" y="-76.64" font-family="SourceSans" font-size="8.00">svg::text_element::</text>
<text text-anchor="middle" x="431" y="-66.89" font-family="SourceSans" font-size="8.00">add_text</text>
</a>
</g>
</g>
<!-- Node3&#45;&gt;Node10 -->
<g id="edge9_Node000003_Node000010" class="edge">
<title>Node3&#45;&gt;Node10</title>
<g id="a_edge9_Node000003_Node000010"><a xlink:title=" ">
<path fill="none" stroke="#63b8ff" d="M322.08,-114.3C340.08,-107.66 361.73,-99.68 380.89,-92.61"/>
<polygon fill="#63b8ff" stroke="#63b8ff" points="381.95,-95.95 390.12,-89.2 379.53,-89.38 381.95,-95.95"/>
</a>
</g>
</g>
<!-- Node11 -->
<g id="Node000011" class="node">
<title>Node11</title>
<g id="a_Node000011"><a xlink:href="group__elements.html#a53d72a7ff728ad1d4d027254530bcf3d" target="_top" xlink:title="Common transforms include rotate(180)">
<polygon fill="white" stroke="#666666" points="481,-42.24 381,-42.24 381,-14.74 481,-14.74 481,-42.24"/>
<text text-anchor="start" x="389" y="-30.64" font-family="SourceSans" font-size="8.00">svg::element_base::</text>
<text text-anchor="middle" x="431" y="-20.89" font-family="SourceSans" font-size="8.00">add_transform</text>
</a>
</g>
</g>
<!-- Node3&#45;&gt;Node11 -->
<g id="edge10_Node000003_Node000011" class="edge">
<title>Node3&#45;&gt;Node11</title>
<g id="a_edge10_Node000003_Node000011"><a xlink:title=" ">
<path fill="none" stroke="#63b8ff" d="M324.26,-114.24C328.97,-111.71 333.51,-108.81 337.5,-105.49 359.69,-87.06 351.16,-69.73 373.5,-51.49 374.78,-50.44 376.12,-49.44 377.5,-48.48"/>
<polygon fill="#63b8ff" stroke="#63b8ff" points="379.04,-51.64 385.8,-43.48 375.42,-45.64 379.04,-51.64"/>
</a>
</g>
</g>
<!-- Node5 -->
<g id="Node000005" class="node">
<title>Node5</title>
<g id="a_Node000005"><a xlink:href="namespacesvg_1_1constants.html#a3972655f1dfdc090ec2592d1fb37e87c" target="_top" xlink:title=" ">
<polygon fill="white" stroke="#666666" points="631.62,-81.37 524.88,-81.37 524.88,-63.62 631.62,-63.62 631.62,-81.37"/>
<text text-anchor="middle" x="578.25" y="-69.77" font-family="SourceSans" font-size="8.00">svg::constants::quote</text>
</a>
</g>
</g>
<!-- Node4&#45;&gt;Node5 -->
<g id="edge4_Node000004_Node000005" class="edge">
<title>Node4&#45;&gt;Node5</title>
<g id="a_edge4_Node000004_Node000005"><a xlink:title=" ">
<path fill="none" stroke="#63b8ff" d="M474.79,-106.35C494.89,-99.71 518.68,-91.85 538.28,-85.37"/>
<polygon fill="#63b8ff" stroke="#63b8ff" points="539.14,-88.77 547.54,-82.31 536.94,-82.12 539.14,-88.77"/>
</a>
</g>
</g>
<!-- Node4&#45;&gt;Node6 -->
<g id="edge5_Node000004_Node000006" class="edge">
<title>Node4&#45;&gt;Node6</title>
<g id="a_edge5_Node000004_Node000006"><a xlink:title=" ">
<path fill="none" stroke="#63b8ff" d="M473.68,-106.28C478.89,-103.72 483.97,-100.8 488.5,-97.49 508.64,-82.8 504.9,-69.89 524.5,-54.49 530.14,-50.06 536.65,-46.11 543.14,-42.7"/>
<polygon fill="#63b8ff" stroke="#63b8ff" points="544.36,-46 551.81,-38.47 541.29,-39.7 544.36,-46"/>
</a>
</g>
</g>
<!-- Node4&#45;&gt;Node7 -->
<g id="edge6_Node000004_Node000007" class="edge">
<title>Node4&#45;&gt;Node7</title>
<g id="a_edge6_Node000004_Node000007"><a xlink:title=" ">
<path fill="none" stroke="#63b8ff" d="M482.39,-134.72C499.04,-139.41 517.4,-144.6 533.51,-149.14"/>
<polygon fill="#63b8ff" stroke="#63b8ff" points="532.22,-152.42 542.79,-151.76 534.12,-145.68 532.22,-152.42"/>
</a>
</g>
</g>
<!-- Node4&#45;&gt;Node8 -->
<g id="edge7_Node000004_Node000008" class="edge">
<title>Node4&#45;&gt;Node8</title>
<g id="a_edge7_Node000004_Node000008"><a xlink:title=" ">
<path fill="none" stroke="#63b8ff" d="M451.46,-134.72C469.68,-147.59 498,-166.47 524.5,-179.49 528.51,-181.46 532.78,-183.34 537.09,-185.09"/>
<polygon fill="#63b8ff" stroke="#63b8ff" points="535.75,-188.32 546.34,-188.63 538.25,-181.78 535.75,-188.32"/>
</a>
</g>
</g>
<!-- Node9 -->
<g id="Node000009" class="node">
<title>Node9</title>
<g id="a_Node000009"><a xlink:href="structsvg_1_1typography.html#a174c1ffb4e56214d71523ffe7e422561" target="_top" xlink:title=" ">
<polygon fill="white" stroke="#666666" points="626.38,-134.24 530.12,-134.24 530.12,-106.74 626.38,-106.74 626.38,-134.24"/>
<text text-anchor="start" x="538.12" y="-122.64" font-family="SourceSans" font-size="8.00">svg::typography::to</text>
<text text-anchor="middle" x="578.25" y="-112.89" font-family="SourceSans" font-size="8.00">_string</text>
</a>
</g>
</g>
<!-- Node4&#45;&gt;Node9 -->
<g id="edge8_Node000004_Node000009" class="edge">
<title>Node4&#45;&gt;Node9</title>
<g id="a_edge8_Node000004_Node000009"><a xlink:title=" ">
<path fill="none" stroke="#63b8ff" d="M483.21,-120.49C494.6,-120.49 506.77,-120.49 518.44,-120.49"/>
<polygon fill="#63b8ff" stroke="#63b8ff" points="518.39,-123.99 528.39,-120.49 518.39,-116.99 518.39,-123.99"/>
</a>
</g>
</g>
<!-- Node11&#45;&gt;Node5 -->
<g id="edge11_Node000011_Node000005" class="edge">
<title>Node11&#45;&gt;Node5</title>
<g id="a_edge11_Node000011_Node000005"><a xlink:title=" ">
<path fill="none" stroke="#63b8ff" d="M478.76,-42.66C497.08,-48.2 517.92,-54.52 535.7,-59.91"/>
<polygon fill="#63b8ff" stroke="#63b8ff" points="534.57,-63.22 545.16,-62.77 536.6,-56.52 534.57,-63.22"/>
</a>
</g>
</g>
<!-- Node11&#45;&gt;Node6 -->
<g id="edge12_Node000011_Node000006" class="edge">
<title>Node11&#45;&gt;Node6</title>
<g id="a_edge12_Node000011_Node000006"><a xlink:title=" ">
<path fill="none" stroke="#63b8ff" d="M481.18,-28.49C491.33,-28.49 502.17,-28.49 512.77,-28.49"/>
<polygon fill="#63b8ff" stroke="#63b8ff" points="512.63,-31.99 522.63,-28.49 512.63,-24.99 512.63,-31.99"/>
</a>
</g>
</g>
<!-- Node13 -->
<g id="Node000013" class="node">
<title>Node13</title>
<g id="a_Node000013"><a xlink:href="group__elements.html#ad893ef9c13a15464c96d8a85c08af30f" target="_top" xlink:title=" ">
<polygon fill="white" stroke="#666666" points="486.25,-282.37 375.75,-282.37 375.75,-264.62 486.25,-264.62 486.25,-282.37"/>
<text text-anchor="middle" x="431" y="-270.77" font-family="SourceSans" font-size="8.00">svg::element_base::str</text>
</a>
</g>
</g>
<!-- Node12&#45;&gt;Node13 -->
<g id="edge16_Node000012_Node000013" class="edge">
<title>Node12&#45;&gt;Node13</title>
<g id="a_edge16_Node000012_Node000013"><a xlink:title=" ">
<path fill="none" stroke="#63b8ff" d="M337.71,-268.45C346.32,-268.92 355.31,-269.41 364.15,-269.89"/>
<polygon fill="#63b8ff" stroke="#63b8ff" points="363.96,-273.39 374.13,-270.44 364.34,-266.4 363.96,-273.39"/>
</a>
</g>
</g>
<!-- Node15 -->
<g id="Node000015" class="node">
<title>Node15</title>
<g id="a_Node000015"><a xlink:href="namespacesvg_1_1constants.html#aa7f04c2ea699a1b1e2e790de5ac33f38" target="_top" xlink:title=" ">
<polygon fill="white" stroke="#666666" points="488.5,-246.37 373.5,-246.37 373.5,-228.62 488.5,-228.62 488.5,-246.37"/>
<text text-anchor="middle" x="431" y="-234.77" font-family="SourceSans" font-size="8.00">svg::constants::newline</text>
</a>
</g>
</g>
<!-- Node14&#45;&gt;Node15 -->
<g id="edge18_Node000014_Node000015" class="edge">
<title>Node14&#45;&gt;Node15</title>
<g id="a_edge18_Node000014_Node000015"><a xlink:title=" ">
<path fill="none" stroke="#63b8ff" d="M330.34,-215.02C345.42,-218.42 362.24,-222.21 377.69,-225.7"/>
<polygon fill="#63b8ff" stroke="#63b8ff" points="376.66,-229.05 387.19,-227.84 378.2,-222.23 376.66,-229.05"/>
</a>
</g>
</g>
</g>
</svg>
