<?xml version="1.0" encoding="UTF-8" standalone="no"?>
<!DOCTYPE svg PUBLIC "-//W3C//DTD SVG 1.1//EN"
 "http://www.w3.org/Graphics/SVG/1.1/DTD/svg11.dtd">
<!-- Generated by graphviz version 12.1.0 (20240811.2233)
 -->
<!-- Title: svg::adjust_angle_at_orbit_for_distance Pages: 1 -->
<svg width="406pt" height="108pt"
 viewBox="0.00 0.00 405.50 107.75" xmlns="http://www.w3.org/2000/svg" xmlns:xlink="http://www.w3.org/1999/xlink">

<svg id="main" version="1.1" xmlns="http://www.w3.org/2000/svg" xmlns:xlink="http://www.w3.org/1999/xlink" xml:space="preserve">

<style type="text/css"><![CDATA[
.node, .edge {opacity: 0.7;}
.node.selected, .edge.selected {opacity: 1;}
.edge:hover path { stroke: red; }
.edge:hover polygon { stroke: red; fill: red; }
]]></style>
<script type="application/ecmascript" xlink:href="svg.min.js"/>
<svg id="graph" class="graph">
<g id="graph0" class="graph" transform="scale(1 1) rotate(0) translate(4 103.75)">
<title>svg::adjust_angle_at_orbit_for_distance</title>
<!-- Node1 -->
<g id="Node000001" class="node">
<title>Node1</title>
<g id="a_Node000001"><a xlink:title=" ">
<polygon fill="#999999" stroke="#666666" points="100.75,-63.62 0,-63.62 0,-36.12 100.75,-36.12 100.75,-63.62"/>
<text text-anchor="start" x="8" y="-52.02" font-family="SourceSans" font-size="8.00">svg::adjust_angle_at</text>
<text text-anchor="middle" x="50.38" y="-42.27" font-family="SourceSans" font-size="8.00">_orbit_for_distance</text>
</a>
</g>
</g>
<!-- Node2 -->
<g id="Node000002" class="node">
<title>Node2</title>
<g id="a_Node000002"><a xlink:href="namespacesvg.html#ad731faf1d114f53f85c018df27e301e2" target="_top" xlink:title="Find cartesian distance between two 2D points.">
<polygon fill="white" stroke="#666666" points="250.25,-99.75 136.75,-99.75 136.75,-82 250.25,-82 250.25,-99.75"/>
<text text-anchor="middle" x="193.5" y="-88.15" font-family="SourceSans" font-size="8.00">svg::distance_cartesian</text>
</a>
</g>
</g>
<!-- Node1&#45;&gt;Node2 -->
<g id="edge1_Node000001_Node000002" class="edge">
<title>Node1&#45;&gt;Node2</title>
<g id="a_edge1_Node000001_Node000002"><a xlink:title=" ">
<path fill="none" stroke="#63b8ff" d="M100.34,-64.1C116.35,-68.75 134.01,-73.88 149.55,-78.4"/>
<polygon fill="#63b8ff" stroke="#63b8ff" points="148.4,-81.71 158.98,-81.14 150.35,-74.99 148.4,-81.71"/>
</a>
</g>
</g>
<!-- Node3 -->
<g id="Node000003" class="node">
<title>Node3</title>
<g id="a_Node000003"><a xlink:href="namespacesvg.html#ab44508c4aeca591141ebec50145b75cd" target="_top" xlink:title="Angle in degrees.">
<polygon fill="white" stroke="#666666" points="249.12,-63.62 137.88,-63.62 137.88,-36.12 249.12,-36.12 249.12,-63.62"/>
<text text-anchor="start" x="145.88" y="-52.02" font-family="SourceSans" font-size="8.00">svg::get_circumference</text>
<text text-anchor="middle" x="193.5" y="-42.27" font-family="SourceSans" font-size="8.00">_point_d</text>
</a>
</g>
</g>
<!-- Node1&#45;&gt;Node3 -->
<g id="edge2_Node000001_Node000003" class="edge">
<title>Node1&#45;&gt;Node3</title>
<g id="a_edge2_Node000001_Node000003"><a xlink:title=" ">
<path fill="none" stroke="#63b8ff" d="M101.13,-49.88C109.2,-49.88 117.68,-49.88 126.07,-49.88"/>
<polygon fill="#63b8ff" stroke="#63b8ff" points="125.92,-53.38 135.92,-49.88 125.92,-46.38 125.92,-53.38"/>
</a>
</g>
</g>
<!-- Node5 -->
<g id="Node000005" class="node">
<title>Node5</title>
<g id="a_Node000005"><a xlink:href="namespacesvg_1_1constants.html#a0e0b0d9314bc47324ee39884bf8bb2fd" target="_top" xlink:title=" ">
<polygon fill="white" stroke="#666666" points="387,-17.75 296.75,-17.75 296.75,0 387,0 387,-17.75"/>
<text text-anchor="middle" x="341.88" y="-6.15" font-family="SourceSans" font-size="8.00">svg::constants::pi</text>
</a>
</g>
</g>
<!-- Node1&#45;&gt;Node5 -->
<g id="edge5_Node000001_Node000005" class="edge">
<title>Node1&#45;&gt;Node5</title>
<g id="a_edge5_Node000001_Node000005"><a xlink:title=" ">
<path fill="none" stroke="#63b8ff" d="M98.01,-35.73C110.5,-32.38 124.05,-29.13 136.75,-26.88 186.43,-18.06 243.72,-13.49 284.94,-11.16"/>
<polygon fill="#63b8ff" stroke="#63b8ff" points="285.07,-14.66 294.87,-10.63 284.7,-7.67 285.07,-14.66"/>
</a>
</g>
</g>
<!-- Node4 -->
<g id="Node000004" class="node">
<title>Node4</title>
<g id="a_Node000004"><a xlink:href="namespacesvg.html#aef05ac63d88a6102981d3faf37275297" target="_top" xlink:title="Angle in radians.">
<polygon fill="white" stroke="#666666" points="397.5,-63.62 286.25,-63.62 286.25,-36.12 397.5,-36.12 397.5,-63.62"/>
<text text-anchor="start" x="294.25" y="-52.02" font-family="SourceSans" font-size="8.00">svg::get_circumference</text>
<text text-anchor="middle" x="341.88" y="-42.27" font-family="SourceSans" font-size="8.00">_point_r</text>
</a>
</g>
</g>
<!-- Node3&#45;&gt;Node4 -->
<g id="edge3_Node000003_Node000004" class="edge">
<title>Node3&#45;&gt;Node4</title>
<g id="a_edge3_Node000003_Node000004"><a xlink:title=" ">
<path fill="none" stroke="#63b8ff" d="M249.42,-49.88C257.68,-49.88 266.26,-49.88 274.72,-49.88"/>
<polygon fill="#63b8ff" stroke="#63b8ff" points="274.62,-53.38 284.62,-49.88 274.62,-46.38 274.62,-53.38"/>
</a>
</g>
</g>
<!-- Node3&#45;&gt;Node5 -->
<g id="edge4_Node000003_Node000005" class="edge">
<title>Node3&#45;&gt;Node5</title>
<g id="a_edge4_Node000003_Node000005"><a xlink:title=" ">
<path fill="none" stroke="#63b8ff" d="M245.28,-35.65C262.06,-30.95 280.57,-25.77 296.79,-21.22"/>
<polygon fill="#63b8ff" stroke="#63b8ff" points="297.47,-24.67 306.16,-18.6 295.59,-17.93 297.47,-24.67"/>
</a>
</g>
</g>
</g>
</svg>
</svg>

<style type='text/css'>
<![CDATA[
[data-mouse-over-selected='false'] { opacity: 0.7; }
[data-mouse-over-selected='true']  { opacity: 1.0; }
]]>
</style>
<script type="application/ecmascript"><![CDATA[
document.addEventListener('DOMContentLoaded', (event) => {
  highlightEdges();
  highlightAdjacentNodes();
});
]]></script>
</svg>
