<?xml version="1.0" encoding="UTF-8" standalone="no"?>
<!DOCTYPE svg PUBLIC "-//W3C//DTD SVG 1.1//EN"
 "http://www.w3.org/Graphics/SVG/1.1/DTD/svg11.dtd">
<!-- Generated by graphviz version 12.2.1 (20241206.2353)
 -->
<!-- Title: svg::make_line_graph Pages: 1 -->
<!--zoomable 893 -->

<svg id="main" version="1.1" xmlns="http://www.w3.org/2000/svg" xmlns:xlink="http://www.w3.org/1999/xlink" xml:space="preserve" onload="init(evt)">

<style type="text/css"><![CDATA[
.node, .edge {opacity: 0.7;}
.node.selected, .edge.selected {opacity: 1;}
.edge:hover path { stroke: red; }
.edge:hover polygon { stroke: red; fill: red; }
]]></style>

<defs>
  <circle id="rim" cx="0" cy="0" r="7"/>
  <circle id="rim2" cx="0" cy="0" r="3.5"/>
  <g id="zoomPlus">
    <use xlink:href="#rim" fill="#404040"><set attributeName="fill" to="#808080" begin="zoomplus.mouseover" end="zoomplus.mouseout"/></use>
    <path d="M-4,0h8M0,-4v8" fill="none" stroke="white" stroke-width="1.5" pointer-events="none"/>
  </g>
  <g id="zoomMin">
    <use xlink:href="#rim" fill="#404040"><set attributeName="fill" to="#808080" begin="zoomminus.mouseover" end="zoomminus.mouseout"/></use>
    <path d="M-4,0h8" fill="none" stroke="white" stroke-width="1.5" pointer-events="none"/>
  </g>
  <g id="arrowUp" transform="translate(30 24)">
    <use xlink:href="#rim"/>
    <path pointer-events="none" fill="none" stroke="white" stroke-width="1.5" d="M0,-3.0v7 M-2.5,-0.5L0,-3.0L2.5,-0.5"/>
  </g>
  <g id="arrowRight" transform="rotate(90) translate(36 -43)">
    <use xlink:href="#rim"/>
    <path pointer-events="none" fill="none" stroke="white" stroke-width="1.5" d="M0,-3.0v7 M-2.5,-0.5L0,-3.0L2.5,-0.5"/>
  </g>
  <g id="arrowDown" transform="rotate(180) translate(-30 -48)">
    <use xlink:href="#rim"/>
    <path pointer-events="none" fill="none" stroke="white" stroke-width="1.5" d="M0,-3.0v7 M-2.5,-0.5L0,-3.0L2.5,-0.5"/>
  </g>
  <g id="arrowLeft" transform="rotate(270) translate(-36 17)">
    <use xlink:href="#rim"/>
    <path pointer-events="none" fill="none" stroke="white" stroke-width="1.5" d="M0,-3.0v7 M-2.5,-0.5L0,-3.0L2.5,-0.5"/>
  </g>
  <g id="resetDef">
    <use xlink:href="#rim2" fill="#404040"><set attributeName="fill" to="#808080" begin="reset.mouseover" end="reset.mouseout"/></use>
  </g>
</defs>
<script type="application/ecmascript">
var viewWidth = 842;
var viewHeight = 893;
var sectionId = 'dynsection-25';
</script>
<script type="application/ecmascript" xlink:href="svg.min.js"/>
<svg id="graph" class="graph">
<g id="viewport">
<title>svg::make_line_graph</title>
<!-- Node1 -->
<g id="Node000001" class="node">
<title>Node1</title>
<g id="a_Node000001"><a xlink:title="Returns a svg_element with the rendered line graph (char). Assumptions: vgrange x axis is monotonical...">
<polygon fill="#999999" stroke="#666666" points="104.5,-227.62 0,-227.62 0,-209.88 104.5,-209.88 104.5,-227.62"/>
<text text-anchor="middle" x="52.25" y="-216.03" font-family="SourceSans" font-size="8.00">svg::make_line_graph</text>
</a>
</g>
</g>
<!-- Node2 -->
<g id="Node000002" class="node">
<title>Node2</title>
<g id="a_Node000002"><a xlink:href="group__elements.html#ada0333b46b2547c6152f3f5811016a12" target="_top" xlink:title=" ">
<polygon fill="white" stroke="#666666" points="547,-801.5 447,-801.5 447,-774 547,-774 547,-801.5"/>
<text text-anchor="start" x="455" y="-789.9" font-family="SourceSans" font-size="8.00">svg::element_base::</text>
<text text-anchor="middle" x="497" y="-780.15" font-family="SourceSans" font-size="8.00">add_element</text>
</a>
</g>
</g>
<!-- Node1&#45;&gt;Node2 -->
<g id="edge1_Node000001_Node000002" class="edge">
<title>Node1&#45;&gt;Node2</title>
<g id="a_edge1_Node000001_Node000002"><a xlink:title=" ">
<path fill="none" stroke="#63b8ff" d="M53.08,-227.93C52.42,-293.03 58.02,-685.78 284.75,-809.75 337.35,-838.51 408.35,-821.86 453.16,-805.89"/>
<polygon fill="#63b8ff" stroke="#63b8ff" points="454.11,-809.27 462.27,-802.5 451.67,-802.71 454.11,-809.27"/>
</a>
</g>
</g>
<!-- Node4 -->
<g id="Node000004" class="node">
<title>Node4</title>
<g id="a_Node000004"><a xlink:href="group__elements.html#acafbdd950c6c2639c9d376c3eab696e5" target="_top" xlink:title=" ">
<polygon fill="white" stroke="#666666" points="699.12,-333.5 599.12,-333.5 599.12,-306 699.12,-306 699.12,-333.5"/>
<text text-anchor="start" x="607.12" y="-321.9" font-family="SourceSans" font-size="8.00">svg::element_base::</text>
<text text-anchor="middle" x="649.12" y="-312.15" font-family="SourceSans" font-size="8.00">add_raw</text>
</a>
</g>
</g>
<!-- Node1&#45;&gt;Node4 -->
<g id="edge3_Node000001_Node000004" class="edge">
<title>Node1&#45;&gt;Node4</title>
<g id="a_edge3_Node000001_Node000004"><a xlink:title=" ">
<path fill="none" stroke="#63b8ff" d="M64.24,-227.93C80,-240.51 110.43,-262.68 140.5,-272.75 221.84,-300 471.04,-312.93 587.26,-317.6"/>
<polygon fill="#63b8ff" stroke="#63b8ff" points="587.11,-321.1 597.24,-318 587.39,-314.1 587.11,-321.1"/>
</a>
</g>
</g>
<!-- Node5 -->
<g id="Node000005" class="node">
<title>Node5</title>
<g id="a_Node000005"><a xlink:href="namespacesvg.html#a3f90859d68b501ed95492cf74925d729" target="_top" xlink:title="Polyline/line options. 1: use one line with css dasharray and markers mid, end points 2: use two line...">
<polygon fill="white" stroke="#666666" points="248.75,-263.62 140.5,-263.62 140.5,-245.88 248.75,-245.88 248.75,-263.62"/>
<text text-anchor="middle" x="194.62" y="-252.03" font-family="SourceSans" font-size="8.00">svg::chart_line_style_1</text>
</a>
</g>
</g>
<!-- Node1&#45;&gt;Node5 -->
<g id="edge4_Node000001_Node000005" class="edge">
<title>Node1&#45;&gt;Node5</title>
<g id="a_edge4_Node000001_Node000005"><a xlink:title=" ">
<path fill="none" stroke="#63b8ff" d="M89.77,-228.11C106.99,-232.53 127.75,-237.86 146.18,-242.58"/>
<polygon fill="#63b8ff" stroke="#63b8ff" points="145.27,-245.96 155.83,-245.06 147.01,-239.18 145.27,-245.96"/>
</a>
</g>
</g>
<!-- Node6 -->
<g id="Node000006" class="node">
<title>Node6</title>
<g id="a_Node000006"><a xlink:href="namespacesvg.html#aba9b8107293644580401259e4c11e96e" target="_top" xlink:title=" ">
<polygon fill="white" stroke="#666666" points="248.75,-227.62 140.5,-227.62 140.5,-209.88 248.75,-209.88 248.75,-227.62"/>
<text text-anchor="middle" x="194.62" y="-216.03" font-family="SourceSans" font-size="8.00">svg::chart_line_style_2</text>
</a>
</g>
</g>
<!-- Node1&#45;&gt;Node6 -->
<g id="edge5_Node000001_Node000006" class="edge">
<title>Node1&#45;&gt;Node6</title>
<g id="a_edge5_Node000001_Node000006"><a xlink:title=" ">
<path fill="none" stroke="#63b8ff" d="M104.72,-218.75C112.59,-218.75 120.8,-218.75 128.92,-218.75"/>
<polygon fill="#63b8ff" stroke="#63b8ff" points="128.76,-222.25 138.76,-218.75 128.76,-215.25 128.76,-222.25"/>
</a>
</g>
</g>
<!-- Node7 -->
<g id="Node000007" class="node">
<title>Node7</title>
<g id="a_Node000007"><a xlink:href="namespacesvg.html#ad501a17ea65f759e1639b07f44fb0501" target="_top" xlink:title=" ">
<polygon fill="white" stroke="#666666" points="248.75,-191.62 140.5,-191.62 140.5,-173.88 248.75,-173.88 248.75,-191.62"/>
<text text-anchor="middle" x="194.62" y="-180.03" font-family="SourceSans" font-size="8.00">svg::chart_line_style_3</text>
</a>
</g>
</g>
<!-- Node1&#45;&gt;Node7 -->
<g id="edge6_Node000001_Node000007" class="edge">
<title>Node1&#45;&gt;Node7</title>
<g id="a_edge6_Node000001_Node000007"><a xlink:title=" ">
<path fill="none" stroke="#63b8ff" d="M89.77,-209.39C106.99,-204.97 127.75,-199.64 146.18,-194.92"/>
<polygon fill="#63b8ff" stroke="#63b8ff" points="147.01,-198.32 155.83,-192.44 145.27,-191.54 147.01,-198.32"/>
</a>
</g>
</g>
<!-- Node8 -->
<g id="Node000008" class="node">
<title>Node8</title>
<g id="a_Node000008"><a xlink:href="group__elements.html#a71cf2eb89a562527f14c4ca4c027c2b9" target="_top" xlink:title=" ">
<polygon fill="white" stroke="#666666" points="243.12,-155.5 146.12,-155.5 146.12,-128 243.12,-128 243.12,-155.5"/>
<text text-anchor="start" x="154.12" y="-143.9" font-family="SourceSans" font-size="8.00">svg::group_element</text>
<text text-anchor="middle" x="194.62" y="-134.15" font-family="SourceSans" font-size="8.00">::finish_group</text>
</a>
</g>
</g>
<!-- Node1&#45;&gt;Node8 -->
<g id="edge7_Node000001_Node000008" class="edge">
<title>Node1&#45;&gt;Node8</title>
<g id="a_edge7_Node000001_Node000008"><a xlink:title=" ">
<path fill="none" stroke="#63b8ff" d="M66.79,-209.51C83.64,-198.21 113.5,-178.85 140.5,-164.75 143.16,-163.36 145.93,-161.98 148.74,-160.63"/>
<polygon fill="#63b8ff" stroke="#63b8ff" points="150.01,-163.89 157.62,-156.51 147.07,-157.54 150.01,-163.89"/>
</a>
</g>
</g>
<!-- Node9 -->
<g id="Node000009" class="node">
<title>Node9</title>
<g id="a_Node000009"><a xlink:href="structsvg_1_1render__state__base.html#aa16790fbf40ef61f416151c89c267ef3" target="_top" xlink:title=" ">
<polygon fill="white" stroke="#666666" points="398.25,-347.5 287,-347.5 287,-320 398.25,-320 398.25,-347.5"/>
<text text-anchor="start" x="295" y="-335.9" font-family="SourceSans" font-size="8.00">svg::render_state_base</text>
<text text-anchor="middle" x="342.62" y="-326.15" font-family="SourceSans" font-size="8.00">::is_visible</text>
</a>
</g>
</g>
<!-- Node1&#45;&gt;Node9 -->
<g id="edge8_Node000001_Node000009" class="edge">
<title>Node1&#45;&gt;Node9</title>
<g id="a_edge8_Node000001_Node000009"><a xlink:title=" ">
<path fill="none" stroke="#63b8ff" d="M59.39,-228.05C72.07,-246.43 103.14,-287.19 140.5,-305.75 182.26,-326.5 234.55,-333.28 275.34,-334.99"/>
<polygon fill="#63b8ff" stroke="#63b8ff" points="275.18,-338.49 285.29,-335.3 275.4,-331.49 275.18,-338.49"/>
</a>
</g>
</g>
<!-- Node10 -->
<g id="Node000010" class="node">
<title>Node10</title>
<g id="a_Node000010"><a xlink:href="namespacesvg.html#ab025866e7ce3764e91258efffa44be2c" target="_top" xlink:title="Return set of paths of marker shapes with text tooltips.">
<polygon fill="white" stroke="#666666" points="246.88,-575.5 142.38,-575.5 142.38,-548 246.88,-548 246.88,-575.5"/>
<text text-anchor="start" x="150.38" y="-563.9" font-family="SourceSans" font-size="8.00">svg::make_line_graph</text>
<text text-anchor="middle" x="194.62" y="-554.15" font-family="SourceSans" font-size="8.00">_markers</text>
</a>
</g>
</g>
<!-- Node1&#45;&gt;Node10 -->
<g id="edge9_Node000001_Node000010" class="edge">
<title>Node1&#45;&gt;Node10</title>
<g id="a_edge9_Node000001_Node000010"><a xlink:title=" ">
<path fill="none" stroke="#63b8ff" d="M57,-227.92C75.3,-272.63 155.38,-468.3 183.68,-537.44"/>
<polygon fill="#63b8ff" stroke="#63b8ff" points="180.3,-538.44 187.33,-546.37 186.78,-535.79 180.3,-538.44"/>
</a>
</g>
</g>
<!-- Node33 -->
<g id="Node000033" class="node">
<title>Node33</title>
<g id="a_Node000033"><a xlink:href="namespacesvg.html#ae3cd801991d2b329b8c49d8e9393ea6d" target="_top" xlink:title="Polyline primitive.">
<polygon fill="white" stroke="#666666" points="241.62,-109.62 147.62,-109.62 147.62,-91.88 241.62,-91.88 241.62,-109.62"/>
<text text-anchor="middle" x="194.62" y="-98.03" font-family="SourceSans" font-size="8.00">svg::make_polyline</text>
</a>
</g>
</g>
<!-- Node1&#45;&gt;Node33 -->
<g id="edge42_Node000001_Node000033" class="edge">
<title>Node1&#45;&gt;Node33</title>
<g id="a_edge42_Node000001_Node000033"><a xlink:title=" ">
<path fill="none" stroke="#63b8ff" d="M58.82,-209.59C71.13,-190.07 102.59,-144.13 140.5,-118.75 142.6,-117.34 144.83,-116.03 147.13,-114.82"/>
<polygon fill="#63b8ff" stroke="#63b8ff" points="148.51,-118.04 156.16,-110.71 145.61,-111.66 148.51,-118.04"/>
</a>
</g>
</g>
<!-- Node34 -->
<g id="Node000034" class="node">
<title>Node34</title>
<g id="a_Node000034"><a xlink:href="namespacesvg.html#a2e5178befe99e2a7d5ede3c02088055f" target="_top" xlink:title="Scale value from min to max on range (nfloor, nceil).">
<polygon fill="white" stroke="#666666" points="243.88,-73.5 145.38,-73.5 145.38,-46 243.88,-46 243.88,-73.5"/>
<text text-anchor="start" x="153.38" y="-61.9" font-family="SourceSans" font-size="8.00">svg::scale_value_on</text>
<text text-anchor="middle" x="194.62" y="-52.15" font-family="SourceSans" font-size="8.00">_range</text>
</a>
</g>
</g>
<!-- Node1&#45;&gt;Node34 -->
<g id="edge43_Node000001_Node000034" class="edge">
<title>Node1&#45;&gt;Node34</title>
<g id="a_edge43_Node000001_Node000034"><a xlink:title=" ">
<path fill="none" stroke="#63b8ff" d="M56.9,-209.5C66.8,-185.43 96.47,-120.18 140.5,-82.75 141.6,-81.82 142.74,-80.92 143.92,-80.05"/>
<polygon fill="#63b8ff" stroke="#63b8ff" points="145.64,-83.1 152.22,-74.8 141.9,-77.18 145.64,-83.1"/>
</a>
</g>
</g>
<!-- Node35 -->
<g id="Node000035" class="node">
<title>Node35</title>
<g id="a_Node000035"><a xlink:href="group__elements.html#a9b6e3d5d06ec76dc07afff3261e32487" target="_top" xlink:title=" ">
<polygon fill="white" stroke="#666666" points="243.12,-27.5 146.12,-27.5 146.12,0 243.12,0 243.12,-27.5"/>
<text text-anchor="start" x="154.12" y="-15.9" font-family="SourceSans" font-size="8.00">svg::group_element</text>
<text text-anchor="middle" x="194.62" y="-6.15" font-family="SourceSans" font-size="8.00">::start_group</text>
</a>
</g>
</g>
<!-- Node1&#45;&gt;Node35 -->
<g id="edge44_Node000001_Node000035" class="edge">
<title>Node1&#45;&gt;Node35</title>
<g id="a_edge44_Node000001_Node000035"><a xlink:title=" ">
<path fill="none" stroke="#63b8ff" d="M55.26,-209.45C62.03,-180.13 86.72,-88.5 140.5,-36.75 141.39,-35.9 142.31,-35.07 143.27,-34.28"/>
<polygon fill="#63b8ff" stroke="#63b8ff" points="145.08,-37.28 151.31,-28.71 141.1,-31.52 145.08,-37.28"/>
</a>
</g>
</g>
<!-- Node3 -->
<g id="Node000003" class="node">
<title>Node3</title>
<g id="a_Node000003"><a xlink:href="group__elements.html#ad893ef9c13a15464c96d8a85c08af30f" target="_top" xlink:title=" ">
<polygon fill="white" stroke="#666666" points="704.38,-775.62 593.88,-775.62 593.88,-757.88 704.38,-757.88 704.38,-775.62"/>
<text text-anchor="middle" x="649.12" y="-764.02" font-family="SourceSans" font-size="8.00">svg::element_base::str</text>
</a>
</g>
</g>
<!-- Node2&#45;&gt;Node3 -->
<g id="edge2_Node000002_Node000003" class="edge">
<title>Node2&#45;&gt;Node3</title>
<g id="a_edge2_Node000002_Node000003"><a xlink:title=" ">
<path fill="none" stroke="#63b8ff" d="M547.16,-780.87C558.37,-779.31 570.46,-777.61 582.24,-775.97"/>
<polygon fill="#63b8ff" stroke="#63b8ff" points="582.49,-779.47 591.91,-774.61 581.52,-772.53 582.49,-779.47"/>
</a>
</g>
</g>
<!-- Node10&#45;&gt;Node3 -->
<g id="edge39_Node000010_Node000003" class="edge">
<title>Node10&#45;&gt;Node3</title>
<g id="a_edge39_Node000010_Node000003"><a xlink:title=" ">
<path fill="none" stroke="#63b8ff" d="M202.38,-575.65C215.07,-600.3 244.83,-651.72 284.75,-679.75 299.2,-689.89 419.37,-722.49 436.5,-726.75 484.86,-738.77 540.23,-749.12 582.2,-756.27"/>
<polygon fill="#63b8ff" stroke="#63b8ff" points="581.45,-759.7 591.9,-757.91 582.62,-752.79 581.45,-759.7"/>
</a>
</g>
</g>
<!-- Node10&#45;&gt;Node4 -->
<g id="edge15_Node000010_Node000004" class="edge">
<title>Node10&#45;&gt;Node4</title>
<g id="a_edge15_Node000010_Node000004"><a xlink:title=" ">
<path fill="none" stroke="#63b8ff" d="M202.83,-547.77C216.23,-522.81 247.08,-470 284.75,-435.75 342.27,-383.45 362.91,-373.82 436.5,-348.75 485.7,-331.99 544.45,-324.89 587.56,-321.89"/>
<polygon fill="#63b8ff" stroke="#63b8ff" points="587.73,-325.39 597.49,-321.27 587.29,-318.4 587.73,-325.39"/>
</a>
</g>
</g>
<!-- Node10&#45;&gt;Node9 -->
<g id="edge22_Node000010_Node000009" class="edge">
<title>Node10&#45;&gt;Node9</title>
<g id="a_edge22_Node000010_Node000009"><a xlink:title=" ">
<path fill="none" stroke="#63b8ff" d="M198.45,-547.52C206.19,-511.91 230.84,-417.76 284.75,-361.75 287.47,-358.93 290.52,-356.35 293.78,-354"/>
<polygon fill="#63b8ff" stroke="#63b8ff" points="295.46,-357.08 302.07,-348.79 291.74,-351.15 295.46,-357.08"/>
</a>
</g>
</g>
<!-- Node11 -->
<g id="Node000011" class="node">
<title>Node11</title>
<g id="a_Node000011"><a xlink:href="group__elements.html#a519382631540ecedee961bfb53e9ae87" target="_top" xlink:title=" ">
<polygon fill="white" stroke="#666666" points="390.38,-508.5 294.88,-508.5 294.88,-481 390.38,-481 390.38,-508.5"/>
<text text-anchor="start" x="302.88" y="-496.9" font-family="SourceSans" font-size="8.00">svg::circle_element</text>
<text text-anchor="middle" x="342.62" y="-487.15" font-family="SourceSans" font-size="8.00">::add_data</text>
</a>
</g>
</g>
<!-- Node10&#45;&gt;Node11 -->
<g id="edge10_Node000010_Node000011" class="edge">
<title>Node10&#45;&gt;Node11</title>
<g id="a_edge10_Node000010_Node000011"><a xlink:title=" ">
<path fill="none" stroke="#63b8ff" d="M223.07,-547.54C240.57,-538.65 263.81,-527.14 284.75,-517.75 288.05,-516.27 291.48,-514.78 294.95,-513.3"/>
<polygon fill="#63b8ff" stroke="#63b8ff" points="296.08,-516.62 303.95,-509.53 293.38,-510.16 296.08,-516.62"/>
</a>
</g>
</g>
<!-- Node14 -->
<g id="Node000014" class="node">
<title>Node14</title>
<g id="a_Node000014"><a xlink:href="group__elements.html#a1dd6663d882fb5dd14a47462a77f351b" target="_top" xlink:title="Either serialize immediately (as below), or create data structure that adds data to data_vec and then...">
<polygon fill="white" stroke="#666666" points="390,-800.5 295.25,-800.5 295.25,-773 390,-773 390,-800.5"/>
<text text-anchor="start" x="303.25" y="-788.9" font-family="SourceSans" font-size="8.00">svg::rect_element::</text>
<text text-anchor="middle" x="342.62" y="-779.15" font-family="SourceSans" font-size="8.00">add_data</text>
</a>
</g>
</g>
<!-- Node10&#45;&gt;Node14 -->
<g id="edge13_Node000010_Node000014" class="edge">
<title>Node10&#45;&gt;Node14</title>
<g id="a_edge13_Node000010_Node000014"><a xlink:title=" ">
<path fill="none" stroke="#63b8ff" d="M198.06,-575.83C205,-611.96 228.19,-708.93 284.75,-763.75 285.63,-764.6 286.54,-765.42 287.49,-766.22"/>
<polygon fill="#63b8ff" stroke="#63b8ff" points="285.24,-768.92 295.46,-771.73 289.23,-763.16 285.24,-768.92"/>
</a>
</g>
</g>
<!-- Node15 -->
<g id="Node000015" class="node">
<title>Node15</title>
<g id="a_Node000015"><a xlink:href="group__elements.html#a238b38ca99a1cf6c2baf80c8e4338d99" target="_top" xlink:title=" ">
<polygon fill="white" stroke="#666666" points="699.12,-591.5 599.12,-591.5 599.12,-564 699.12,-564 699.12,-591.5"/>
<text text-anchor="start" x="607.12" y="-579.9" font-family="SourceSans" font-size="8.00">svg::element_base::</text>
<text text-anchor="middle" x="649.12" y="-570.15" font-family="SourceSans" font-size="8.00">add_style</text>
</a>
</g>
</g>
<!-- Node10&#45;&gt;Node15 -->
<g id="edge16_Node000010_Node000015" class="edge">
<title>Node10&#45;&gt;Node15</title>
<g id="a_edge16_Node000010_Node000015"><a xlink:title=" ">
<path fill="none" stroke="#63b8ff" d="M247.09,-563.57C331.2,-566.54 497.69,-572.43 587.43,-575.6"/>
<polygon fill="#63b8ff" stroke="#63b8ff" points="587.14,-579.1 597.26,-575.95 587.39,-572.1 587.14,-579.1"/>
</a>
</g>
</g>
<!-- Node17 -->
<g id="Node000017" class="node">
<title>Node17</title>
<g id="a_Node000017"><a xlink:href="group__elements.html#a7995b78d94e1c299065c9dd3569fef7c" target="_top" xlink:title=" ">
<polygon fill="white" stroke="#666666" points="392.62,-670.5 292.62,-670.5 292.62,-643 392.62,-643 392.62,-670.5"/>
<text text-anchor="start" x="300.62" y="-658.9" font-family="SourceSans" font-size="8.00">svg::element_base::</text>
<text text-anchor="middle" x="342.62" y="-649.15" font-family="SourceSans" font-size="8.00">add_title</text>
</a>
</g>
</g>
<!-- Node10&#45;&gt;Node17 -->
<g id="edge18_Node000010_Node000017" class="edge">
<title>Node10&#45;&gt;Node17</title>
<g id="a_edge18_Node000010_Node000017"><a xlink:title=" ">
<path fill="none" stroke="#63b8ff" d="M217.48,-575.97C242.25,-592.09 282.79,-618.47 310.77,-636.67"/>
<polygon fill="#63b8ff" stroke="#63b8ff" points="308.54,-639.39 318.83,-641.91 312.35,-633.53 308.54,-639.39"/>
</a>
</g>
</g>
<!-- Node20 -->
<g id="Node000020" class="node">
<title>Node20</title>
<g id="a_Node000020"><a xlink:href="namespacesvg.html#a6745faec7f5b60dcb4fc12cbdbf56bd7" target="_top" xlink:title="Center a triangle at this point.">
<polygon fill="white" stroke="#666666" points="400.5,-462.62 284.75,-462.62 284.75,-444.88 400.5,-444.88 400.5,-462.62"/>
<text text-anchor="middle" x="342.62" y="-451.02" font-family="SourceSans" font-size="8.00">svg::make_path_triangle</text>
</a>
</g>
</g>
<!-- Node10&#45;&gt;Node20 -->
<g id="edge23_Node000010_Node000020" class="edge">
<title>Node10&#45;&gt;Node20</title>
<g id="a_edge23_Node000010_Node000020"><a xlink:title=" ">
<path fill="none" stroke="#63b8ff" d="M205.85,-547.79C220.97,-528.1 251.16,-492.27 284.75,-471.75 287.31,-470.18 290.03,-468.74 292.82,-467.42"/>
<polygon fill="#63b8ff" stroke="#63b8ff" points="293.9,-470.76 301.78,-463.69 291.21,-464.3 293.9,-470.76"/>
</a>
</g>
</g>
<!-- Node30 -->
<g id="Node000030" class="node">
<title>Node30</title>
<g id="a_Node000030"><a xlink:href="group__elements.html#a793cb6b40b2aea335b11f14fd327cde8" target="_top" xlink:title=" ">
<polygon fill="white" stroke="#666666" points="390.38,-754.5 294.88,-754.5 294.88,-727 390.38,-727 390.38,-754.5"/>
<text text-anchor="start" x="302.88" y="-742.9" font-family="SourceSans" font-size="8.00">svg::circle_element</text>
<text text-anchor="middle" x="342.62" y="-733.15" font-family="SourceSans" font-size="8.00">::start_element</text>
</a>
</g>
</g>
<!-- Node10&#45;&gt;Node30 -->
<g id="edge37_Node000010_Node000030" class="edge">
<title>Node10&#45;&gt;Node30</title>
<g id="a_edge37_Node000010_Node000030"><a xlink:title=" ">
<path fill="none" stroke="#63b8ff" d="M200.64,-575.62C211.7,-604.54 240.77,-671.98 284.75,-712.75 287.97,-715.74 291.57,-718.47 295.35,-720.96"/>
<polygon fill="#63b8ff" stroke="#63b8ff" points="293.32,-723.83 303.72,-725.89 296.87,-717.8 293.32,-723.83"/>
</a>
</g>
</g>
<!-- Node31 -->
<g id="Node000031" class="node">
<title>Node31</title>
<g id="a_Node000031"><a xlink:href="group__elements.html#a1e0ed5e9dfe1244317a87d7e6774348b" target="_top" xlink:title=" ">
<polygon fill="white" stroke="#666666" points="390,-554.5 295.25,-554.5 295.25,-527 390,-527 390,-554.5"/>
<text text-anchor="start" x="303.25" y="-542.9" font-family="SourceSans" font-size="8.00">svg::rect_element::</text>
<text text-anchor="middle" x="342.62" y="-533.15" font-family="SourceSans" font-size="8.00">start_element</text>
</a>
</g>
</g>
<!-- Node10&#45;&gt;Node31 -->
<g id="edge38_Node000010_Node000031" class="edge">
<title>Node10&#45;&gt;Node31</title>
<g id="a_edge38_Node000010_Node000031"><a xlink:title=" ">
<path fill="none" stroke="#63b8ff" d="M247.1,-554.35C258.92,-552.65 271.57,-550.83 283.64,-549.09"/>
<polygon fill="#63b8ff" stroke="#63b8ff" points="284.1,-552.56 293.5,-547.67 283.1,-545.63 284.1,-552.56"/>
</a>
</g>
</g>
<!-- Node32 -->
<g id="Node000032" class="node">
<title>Node32</title>
<g id="a_Node000032"><a xlink:href="group__elements.html#a92c95d94938e6df247213ead1f06ec10" target="_top" xlink:title=" ">
<polygon fill="white" stroke="#666666" points="390.75,-884.5 294.5,-884.5 294.5,-857 390.75,-857 390.75,-884.5"/>
<text text-anchor="start" x="302.5" y="-872.9" font-family="SourceSans" font-size="8.00">svg::script_element</text>
<text text-anchor="middle" x="342.62" y="-863.15" font-family="SourceSans" font-size="8.00">::tooltip_attribute</text>
</a>
</g>
</g>
<!-- Node10&#45;&gt;Node32 -->
<g id="edge40_Node000010_Node000032" class="edge">
<title>Node10&#45;&gt;Node32</title>
<g id="a_edge40_Node000010_Node000032"><a xlink:title=" ">
<path fill="none" stroke="#63b8ff" d="M198.56,-575.78C207.2,-615.02 235.08,-728.31 284.75,-809.75 293.52,-824.13 306.07,-838.04 317.15,-848.94"/>
<polygon fill="#63b8ff" stroke="#63b8ff" points="314.49,-851.24 324.15,-855.59 319.31,-846.17 314.49,-851.24"/>
</a>
</g>
</g>
<!-- Node12 -->
<g id="Node000012" class="node">
<title>Node12</title>
<g id="a_Node000012"><a xlink:href="group__elements.html#a53d72a7ff728ad1d4d027254530bcf3d" target="_top" xlink:title="Common transforms include rotate(180)">
<polygon fill="white" stroke="#666666" points="547,-549.5 447,-549.5 447,-522 547,-522 547,-549.5"/>
<text text-anchor="start" x="455" y="-537.9" font-family="SourceSans" font-size="8.00">svg::element_base::</text>
<text text-anchor="middle" x="497" y="-528.15" font-family="SourceSans" font-size="8.00">add_transform</text>
</a>
</g>
</g>
<!-- Node11&#45;&gt;Node12 -->
<g id="edge11_Node000011_Node000012" class="edge">
<title>Node11&#45;&gt;Node12</title>
<g id="a_edge11_Node000011_Node000012"><a xlink:title=" ">
<path fill="none" stroke="#63b8ff" d="M390.59,-507.39C404.87,-511.23 420.77,-515.51 435.8,-519.55"/>
<polygon fill="#63b8ff" stroke="#63b8ff" points="434.53,-522.83 445.09,-522.05 436.35,-516.07 434.53,-522.83"/>
</a>
</g>
</g>
<!-- Node13 -->
<g id="Node000013" class="node">
<title>Node13</title>
<g id="a_Node000013"><a xlink:href="namespacesvg.html#a48ac748e89e22789d1772326a98dd7b6" target="_top" xlink:title=" ">
<polygon fill="white" stroke="#666666" points="834,-756.62 740.75,-756.62 740.75,-738.88 834,-738.88 834,-756.62"/>
<text text-anchor="middle" x="787.38" y="-745.02" font-family="SourceSans" font-size="8.00">svg::string_replace</text>
</a>
</g>
</g>
<!-- Node11&#45;&gt;Node13 -->
<g id="edge12_Node000011_Node000013" class="edge">
<title>Node11&#45;&gt;Node13</title>
<g id="a_edge12_Node000011_Node000013"><a xlink:title=" ">
<path fill="none" stroke="#63b8ff" d="M385.22,-508.89C390.57,-511.47 395.81,-514.42 400.5,-517.75 420.27,-531.79 417.65,-543.49 436.5,-558.75 491.61,-603.36 683.52,-698.05 757.23,-733.75"/>
<polygon fill="#63b8ff" stroke="#63b8ff" points="755.33,-736.71 765.85,-737.91 758.37,-730.41 755.33,-736.71"/>
</a>
</g>
</g>
<!-- Node14&#45;&gt;Node13 -->
<g id="edge14_Node000014_Node000013" class="edge">
<title>Node14&#45;&gt;Node13</title>
<g id="a_edge14_Node000014_Node000013"><a xlink:title=" ">
<path fill="none" stroke="#63b8ff" d="M389,-800.92C403.97,-804.94 420.81,-808.75 436.5,-810.75 555.32,-825.85 590.33,-820.17 704.75,-784.75 723.59,-778.92 743.78,-769.79 759.37,-762.06"/>
<polygon fill="#63b8ff" stroke="#63b8ff" points="760.67,-765.33 768.01,-757.68 757.5,-759.08 760.67,-765.33"/>
</a>
</g>
</g>
<!-- Node16 -->
<g id="Node000016" class="node">
<title>Node16</title>
<g id="a_Node000016"><a xlink:href="namespacesvg.html#a36b1c48ad4601b205790e3772ad0a7b6" target="_top" xlink:title=" ">
<polygon fill="white" stroke="#666666" points="823.12,-519.62 751.62,-519.62 751.62,-501.88 823.12,-501.88 823.12,-519.62"/>
<text text-anchor="middle" x="787.38" y="-508.02" font-family="SourceSans" font-size="8.00">svg::to_string</text>
</a>
</g>
</g>
<!-- Node15&#45;&gt;Node16 -->
<g id="edge17_Node000015_Node000016" class="edge">
<title>Node15&#45;&gt;Node16</title>
<g id="a_edge17_Node000015_Node000016"><a xlink:title=" ">
<path fill="none" stroke="#63b8ff" d="M685.32,-563.52C691.83,-560.72 698.53,-557.73 704.75,-554.75 723.81,-545.63 744.78,-534.29 760.69,-525.41"/>
<polygon fill="#63b8ff" stroke="#63b8ff" points="762.03,-528.68 769.03,-520.72 758.6,-522.58 762.03,-528.68"/>
</a>
</g>
</g>
<!-- Node17&#45;&gt;Node2 -->
<g id="edge19_Node000017_Node000002" class="edge">
<title>Node17&#45;&gt;Node2</title>
<g id="a_edge19_Node000017_Node000002"><a xlink:title=" ">
<path fill="none" stroke="#63b8ff" d="M359.93,-670.77C386.62,-693.72 439.81,-739.44 471.2,-766.43"/>
<polygon fill="#63b8ff" stroke="#63b8ff" points="468.8,-768.98 478.66,-772.84 473.36,-763.67 468.8,-768.98"/>
</a>
</g>
</g>
<!-- Node18 -->
<g id="Node000018" class="node">
<title>Node18</title>
<g id="a_Node000018"><a xlink:href="group__elements.html#ga3d62381f8edcccd3d91f82af55f11274" target="_top" xlink:title=" ">
<polygon fill="white" stroke="#666666" points="541.75,-671.5 452.25,-671.5 452.25,-644 541.75,-644 541.75,-671.5"/>
<text text-anchor="start" x="460.25" y="-659.9" font-family="SourceSans" font-size="8.00">svg::title_element</text>
<text text-anchor="middle" x="497" y="-650.15" font-family="SourceSans" font-size="8.00">::finish_element</text>
</a>
</g>
</g>
<!-- Node17&#45;&gt;Node18 -->
<g id="edge20_Node000017_Node000018" class="edge">
<title>Node17&#45;&gt;Node18</title>
<g id="a_edge20_Node000017_Node000018"><a xlink:title=" ">
<path fill="none" stroke="#63b8ff" d="M393.1,-657.07C408.34,-657.17 425.22,-657.29 440.82,-657.39"/>
<polygon fill="#63b8ff" stroke="#63b8ff" points="440.38,-660.88 450.4,-657.45 440.43,-653.89 440.38,-660.88"/>
</a>
</g>
</g>
<!-- Node19 -->
<g id="Node000019" class="node">
<title>Node19</title>
<g id="a_Node000019"><a xlink:href="group__elements.html#a41dcaa1132c502cb86c01aae1e7b9ff2" target="_top" xlink:title=" ">
<polygon fill="white" stroke="#666666" points="541.75,-717.5 452.25,-717.5 452.25,-690 541.75,-690 541.75,-717.5"/>
<text text-anchor="start" x="460.25" y="-705.9" font-family="SourceSans" font-size="8.00">svg::title_element</text>
<text text-anchor="middle" x="497" y="-696.15" font-family="SourceSans" font-size="8.00">::start_element</text>
</a>
</g>
</g>
<!-- Node17&#45;&gt;Node19 -->
<g id="edge21_Node000017_Node000019" class="edge">
<title>Node17&#45;&gt;Node19</title>
<g id="a_edge21_Node000017_Node000019"><a xlink:title=" ">
<path fill="none" stroke="#63b8ff" d="M389.76,-670.98C405.92,-675.97 424.24,-681.62 441.06,-686.8"/>
<polygon fill="#63b8ff" stroke="#63b8ff" points="439.82,-690.08 450.41,-689.69 441.88,-683.4 439.82,-690.08"/>
</a>
</g>
</g>
<!-- Node21 -->
<g id="Node000021" class="node">
<title>Node21</title>
<g id="a_Node000021"><a xlink:href="namespacesvg.html#ab44508c4aeca591141ebec50145b75cd" target="_top" xlink:title="Angle in degrees.">
<polygon fill="white" stroke="#666666" points="552.62,-385.5 441.38,-385.5 441.38,-358 552.62,-358 552.62,-385.5"/>
<text text-anchor="start" x="449.38" y="-373.9" font-family="SourceSans" font-size="8.00">svg::get_circumference</text>
<text text-anchor="middle" x="497" y="-364.15" font-family="SourceSans" font-size="8.00">_point_d</text>
</a>
</g>
</g>
<!-- Node20&#45;&gt;Node21 -->
<g id="edge24_Node000020_Node000021" class="edge">
<title>Node20&#45;&gt;Node21</title>
<g id="a_edge24_Node000020_Node000021"><a xlink:title=" ">
<path fill="none" stroke="#63b8ff" d="M356.37,-444.5C373.84,-432.1 406.49,-409.9 436.5,-394.75 439.52,-393.23 442.66,-391.74 445.86,-390.3"/>
<polygon fill="#63b8ff" stroke="#63b8ff" points="446.95,-393.64 454.77,-386.49 444.2,-387.21 446.95,-393.64"/>
</a>
</g>
</g>
<!-- Node23 -->
<g id="Node000023" class="node">
<title>Node23</title>
<g id="a_Node000023"><a xlink:href="namespacesvg.html#a302d3f13fef13ef823b99cfabcfac3ab" target="_top" xlink:title="Draw path given serialized path data. Can be used to make pinstripes, ie top and bottom line layers....">
<polygon fill="white" stroke="#666666" points="537.25,-503.62 456.75,-503.62 456.75,-485.88 537.25,-485.88 537.25,-503.62"/>
<text text-anchor="middle" x="497" y="-492.02" font-family="SourceSans" font-size="8.00">svg::make_path</text>
</a>
</g>
</g>
<!-- Node20&#45;&gt;Node23 -->
<g id="edge26_Node000020_Node000023" class="edge">
<title>Node20&#45;&gt;Node23</title>
<g id="a_edge26_Node000020_Node000023"><a xlink:title=" ">
<path fill="none" stroke="#63b8ff" d="M378.2,-463.05C399.56,-468.8 427.2,-476.24 450.35,-482.47"/>
<polygon fill="#63b8ff" stroke="#63b8ff" points="449.27,-485.8 459.84,-485.02 451.09,-479.04 449.27,-485.8"/>
</a>
</g>
</g>
<!-- Node27 -->
<g id="Node000027" class="node">
<title>Node27</title>
<g id="a_Node000027"><a xlink:href="namespacesvg.html#a2c65de7707b8b7b1bca959a3a2bbba91" target="_top" xlink:title="Make single path segment.">
<polygon fill="white" stroke="#666666" points="548.5,-431.5 445.5,-431.5 445.5,-404 548.5,-404 548.5,-431.5"/>
<text text-anchor="start" x="453.5" y="-419.9" font-family="SourceSans" font-size="8.00">svg::make_path_data</text>
<text text-anchor="middle" x="497" y="-410.15" font-family="SourceSans" font-size="8.00">_from_points</text>
</a>
</g>
</g>
<!-- Node20&#45;&gt;Node27 -->
<g id="edge34_Node000020_Node000027" class="edge">
<title>Node20&#45;&gt;Node27</title>
<g id="a_edge34_Node000020_Node000027"><a xlink:title=" ">
<path fill="none" stroke="#63b8ff" d="M383.26,-444.39C398.74,-440.73 416.86,-436.45 433.99,-432.4"/>
<polygon fill="#63b8ff" stroke="#63b8ff" points="434.66,-435.84 443.59,-430.13 433.05,-429.03 434.66,-435.84"/>
</a>
</g>
</g>
<!-- Node29 -->
<g id="Node000029" class="node">
<title>Node29</title>
<g id="a_Node000029"><a xlink:href="namespacesvg.html#a46164d75fd5109e4ed8879abbacd5c11" target="_top" xlink:title="Zero degrees is top, going clockwise (cw).">
<polygon fill="white" stroke="#666666" points="557.5,-467.62 436.5,-467.62 436.5,-449.88 557.5,-449.88 557.5,-467.62"/>
<text text-anchor="middle" x="497" y="-456.02" font-family="SourceSans" font-size="8.00">svg::zero_angle_north_cw</text>
</a>
</g>
</g>
<!-- Node20&#45;&gt;Node29 -->
<g id="edge36_Node000020_Node000029" class="edge">
<title>Node20&#45;&gt;Node29</title>
<g id="a_edge36_Node000020_Node000029"><a xlink:title=" ">
<path fill="none" stroke="#63b8ff" d="M400.8,-455.63C408.66,-455.88 416.81,-456.15 424.89,-456.42"/>
<polygon fill="#63b8ff" stroke="#63b8ff" points="424.6,-459.91 434.7,-456.74 424.82,-452.91 424.6,-459.91"/>
</a>
</g>
</g>
<!-- Node22 -->
<g id="Node000022" class="node">
<title>Node22</title>
<g id="a_Node000022"><a xlink:href="namespacesvg.html#aef05ac63d88a6102981d3faf37275297" target="_top" xlink:title="Angle in radians.">
<polygon fill="white" stroke="#666666" points="704.75,-379.5 593.5,-379.5 593.5,-352 704.75,-352 704.75,-379.5"/>
<text text-anchor="start" x="601.5" y="-367.9" font-family="SourceSans" font-size="8.00">svg::get_circumference</text>
<text text-anchor="middle" x="649.12" y="-358.15" font-family="SourceSans" font-size="8.00">_point_r</text>
</a>
</g>
</g>
<!-- Node21&#45;&gt;Node22 -->
<g id="edge25_Node000021_Node000022" class="edge">
<title>Node21&#45;&gt;Node22</title>
<g id="a_edge25_Node000021_Node000022"><a xlink:title=" ">
<path fill="none" stroke="#63b8ff" d="M553.05,-369.55C562.33,-369.18 572.05,-368.79 581.59,-368.41"/>
<polygon fill="#63b8ff" stroke="#63b8ff" points="581.72,-371.91 591.57,-368.01 581.44,-364.91 581.72,-371.91"/>
</a>
</g>
</g>
<!-- Node23&#45;&gt;Node4 -->
<g id="edge29_Node000023_Node000004" class="edge">
<title>Node23&#45;&gt;Node4</title>
<g id="a_edge29_Node000023_Node000004"><a xlink:title=" ">
<path fill="none" stroke="#63b8ff" d="M537.65,-488.87C545.02,-486.19 552.09,-482.33 557.5,-476.75 600.42,-432.47 552.96,-389.22 593.5,-342.75 594.06,-342.11 594.64,-341.49 595.23,-340.88"/>
<polygon fill="#63b8ff" stroke="#63b8ff" points="597.12,-343.86 602.73,-334.87 592.74,-338.4 597.12,-343.86"/>
</a>
</g>
</g>
<!-- Node23&#45;&gt;Node15 -->
<g id="edge30_Node000023_Node000015" class="edge">
<title>Node23&#45;&gt;Node15</title>
<g id="a_edge30_Node000023_Node000015"><a xlink:title=" ">
<path fill="none" stroke="#63b8ff" d="M537.5,-503.24C544.48,-505.68 551.44,-508.8 557.5,-512.75 578.09,-526.18 573.64,-540.26 593.5,-554.75 595.04,-555.88 596.65,-556.96 598.3,-558"/>
<polygon fill="#63b8ff" stroke="#63b8ff" points="596.39,-560.94 606.83,-562.77 599.81,-554.83 596.39,-560.94"/>
</a>
</g>
</g>
<!-- Node23&#45;&gt;Node16 -->
<g id="edge33_Node000023_Node000016" class="edge">
<title>Node23&#45;&gt;Node16</title>
<g id="a_edge33_Node000023_Node000016"><a xlink:title=" ">
<path fill="none" stroke="#63b8ff" d="M530.57,-485.39C539.36,-482.73 548.83,-479.74 557.5,-476.75 573.73,-471.15 576.63,-465.92 593.5,-462.75 642.1,-453.63 657.04,-449.76 704.75,-462.75 727.61,-468.97 750.59,-483.4 766.32,-494.82"/>
<polygon fill="#63b8ff" stroke="#63b8ff" points="763.81,-497.31 773.9,-500.53 768.02,-491.72 763.81,-497.31"/>
</a>
</g>
</g>
<!-- Node24 -->
<g id="Node000024" class="node">
<title>Node24</title>
<g id="a_Node000024"><a xlink:href="group__elements.html#a807f3c30f2ace338ad10aaf230b47665" target="_top" xlink:title="Either serialize immediately (as below), or create data structure that adds data to data_vec and then...">
<polygon fill="white" stroke="#666666" points="698.38,-637.5 599.88,-637.5 599.88,-610 698.38,-610 698.38,-637.5"/>
<text text-anchor="start" x="607.88" y="-625.9" font-family="SourceSans" font-size="8.00">svg::path_element::</text>
<text text-anchor="middle" x="649.12" y="-616.15" font-family="SourceSans" font-size="8.00">add_data</text>
</a>
</g>
</g>
<!-- Node23&#45;&gt;Node24 -->
<g id="edge27_Node000023_Node000024" class="edge">
<title>Node23&#45;&gt;Node24</title>
<g id="a_edge27_Node000023_Node000024"><a xlink:title=" ">
<path fill="none" stroke="#63b8ff" d="M537.74,-501.4C544.93,-504.02 551.91,-507.67 557.5,-512.75 588.76,-541.18 563.77,-570.72 593.5,-600.75 594.23,-601.49 594.98,-602.2 595.76,-602.89"/>
<polygon fill="#63b8ff" stroke="#63b8ff" points="593.5,-605.58 603.65,-608.61 597.61,-599.91 593.5,-605.58"/>
</a>
</g>
</g>
<!-- Node25 -->
<g id="Node000025" class="node">
<title>Node25</title>
<g id="a_Node000025"><a xlink:href="group__elements.html#gaac30ae99fb1a2542688fa1ffb43cd8e1" target="_top" xlink:title=" ">
<polygon fill="white" stroke="#666666" points="698.38,-545.5 599.88,-545.5 599.88,-518 698.38,-518 698.38,-545.5"/>
<text text-anchor="start" x="607.88" y="-533.9" font-family="SourceSans" font-size="8.00">svg::path_element::</text>
<text text-anchor="middle" x="649.12" y="-524.15" font-family="SourceSans" font-size="8.00">finish_element</text>
</a>
</g>
</g>
<!-- Node23&#45;&gt;Node25 -->
<g id="edge31_Node000023_Node000025" class="edge">
<title>Node23&#45;&gt;Node25</title>
<g id="a_edge31_Node000023_Node000025"><a xlink:title=" ">
<path fill="none" stroke="#63b8ff" d="M535.88,-504.09C551.78,-508 570.65,-512.65 588.33,-517.01"/>
<polygon fill="#63b8ff" stroke="#63b8ff" points="587.43,-520.4 597.98,-519.39 589.11,-513.6 587.43,-520.4"/>
</a>
</g>
</g>
<!-- Node26 -->
<g id="Node000026" class="node">
<title>Node26</title>
<g id="a_Node000026"><a xlink:href="group__elements.html#a6dbca7cef2cbc0c10aa44c44ae20b36e" target="_top" xlink:title=" ">
<polygon fill="white" stroke="#666666" points="698.38,-499.5 599.88,-499.5 599.88,-472 698.38,-472 698.38,-499.5"/>
<text text-anchor="start" x="607.88" y="-487.9" font-family="SourceSans" font-size="8.00">svg::path_element::</text>
<text text-anchor="middle" x="649.12" y="-478.15" font-family="SourceSans" font-size="8.00">start_element</text>
</a>
</g>
</g>
<!-- Node23&#45;&gt;Node26 -->
<g id="edge32_Node000023_Node000026" class="edge">
<title>Node23&#45;&gt;Node26</title>
<g id="a_edge32_Node000023_Node000026"><a xlink:title=" ">
<path fill="none" stroke="#63b8ff" d="M537.44,-492.39C553.05,-491.45 571.33,-490.35 588.49,-489.33"/>
<polygon fill="#63b8ff" stroke="#63b8ff" points="588.28,-492.84 598.05,-488.75 587.86,-485.86 588.28,-492.84"/>
</a>
</g>
</g>
<!-- Node24&#45;&gt;Node13 -->
<g id="edge28_Node000024_Node000013" class="edge">
<title>Node24&#45;&gt;Node13</title>
<g id="a_edge28_Node000024_Node000013"><a xlink:title=" ">
<path fill="none" stroke="#63b8ff" d="M682.89,-637.9C690.42,-641.86 698.15,-646.52 704.75,-651.75 733.36,-674.41 759.34,-708.3 773.97,-729.17"/>
<polygon fill="#63b8ff" stroke="#63b8ff" points="770.98,-730.99 779.52,-737.26 776.75,-727.03 770.98,-730.99"/>
</a>
</g>
</g>
<!-- Node28 -->
<g id="Node000028" class="node">
<title>Node28</title>
<g id="a_Node000028"><a xlink:href="namespacesvg_1_1constants.html#ac460bc8db60d85c3ae1cf8b1a903405e" target="_top" xlink:title="Formatting character constants.">
<polygon fill="white" stroke="#666666" points="702.88,-415.62 595.38,-415.62 595.38,-397.88 702.88,-397.88 702.88,-415.62"/>
<text text-anchor="middle" x="649.12" y="-404.02" font-family="SourceSans" font-size="8.00">svg::constants::space</text>
</a>
</g>
</g>
<!-- Node27&#45;&gt;Node28 -->
<g id="edge35_Node000027_Node000028" class="edge">
<title>Node27&#45;&gt;Node28</title>
<g id="a_edge35_Node000027_Node000028"><a xlink:title=" ">
<path fill="none" stroke="#63b8ff" d="M548.83,-414.03C559.99,-413.21 571.96,-412.33 583.58,-411.48"/>
<polygon fill="#63b8ff" stroke="#63b8ff" points="583.82,-414.97 593.54,-410.75 583.31,-407.99 583.82,-414.97"/>
</a>
</g>
</g>
<!-- Node32&#45;&gt;Node13 -->
<g id="edge41_Node000032_Node000013" class="edge">
<title>Node32&#45;&gt;Node13</title>
<g id="a_edge41_Node000032_Node000013"><a xlink:title=" ">
<path fill="none" stroke="#63b8ff" d="M391.08,-870.7C462.24,-868.98 599.47,-859.25 704.75,-812.75 730.24,-801.49 754.56,-780.3 769.92,-765.17"/>
<polygon fill="#63b8ff" stroke="#63b8ff" points="772.3,-767.75 776.81,-758.17 767.3,-762.84 772.3,-767.75"/>
</a>
</g>
</g>
</g>
</svg>

<g id="navigator" transform="translate(0 0)" fill="#404254">
  <rect fill="#f2f5e9" fill-opacity="0.5" stroke="#606060" stroke-width=".5" x="0" y="0" width="60" height="60"/>
  <use id="zoomplus" xlink:href="#zoomPlus" x="17" y="9" onmousedown="handleZoom(evt,'in')"/>
  <use id="zoomminus" xlink:href="#zoomMin" x="42" y="9" onmousedown="handleZoom(evt,'out')"/>
  <use id="reset" xlink:href="#resetDef" x="30" y="36" onmousedown="handleReset()"/>
   <use id="arrowup" xlink:href="#arrowUp" x="0" y="0" onmousedown="handlePan(0,-1)"/>
  <use id="arrowright" xlink:href="#arrowRight" x="0" y="0" onmousedown="handlePan(1,0)"/>
  <use id="arrowdown" xlink:href="#arrowDown" x="0" y="0" onmousedown="handlePan(0,1)"/>
  <use id="arrowleft" xlink:href="#arrowLeft" x="0" y="0" onmousedown="handlePan(-1,0)"/>
</g>
<svg viewBox="0 0 15 15" width="100%" height="30px" preserveAspectRatio="xMaxYMin meet">
 <g id="arrow_out" transform="scale(0.3 0.3)">
  <a xlink:href="namespacesvg_a5affcd2017ce707148f3561187eae902_cgraph_org.svg" target="_base">
   <rect id="button" ry="5" rx="5" y="6" x="6" height="38" width="38"
        fill="#f2f5e9" fill-opacity="0.5" stroke="#606060" stroke-width="1.0"/>
   <path id="arrow"
     d="M 11.500037,31.436501 C 11.940474,20.09759 22.043105,11.32322 32.158766,21.979434 L 37.068811,17.246167 C 37.068811,17.246167 37.088388,32 37.088388,32 L 22.160133,31.978069 C 22.160133,31.978069 26.997745,27.140456 26.997745,27.140456 C 18.528582,18.264221 13.291696,25.230495 11.500037,31.436501 z"
     style="fill:#404040;"/>
  </a>
 </g>
</svg>

<style type='text/css'>
<![CDATA[
[data-mouse-over-selected='false'] { opacity: 0.7; }
[data-mouse-over-selected='true']  { opacity: 1.0; }
]]>
</style>
<script type="application/ecmascript"><![CDATA[
document.addEventListener('DOMContentLoaded', (event) => {
  highlightEdges();
  highlightAdjacentNodes();
});
]]></script>
</svg>
