<?xml version="1.0" encoding="UTF-8" standalone="no"?>
<!DOCTYPE svg PUBLIC "-//W3C//DTD SVG 1.1//EN"
 "http://www.w3.org/Graphics/SVG/1.1/DTD/svg11.dtd">
<!-- Generated by graphviz version 12.2.1 (20241206.2353)
 -->
<!-- Title: svg::styled_text Pages: 1 -->
<svg width="527pt" height="314pt"
 viewBox="0.00 0.00 526.50 313.62" xmlns="http://www.w3.org/2000/svg" xmlns:xlink="http://www.w3.org/1999/xlink">
<g id="graph0" class="graph" transform="scale(1 1) rotate(0) translate(4 309.62)">
<title>svg::styled_text</title>
<!-- Node1 -->
<g id="Node000001" class="node">
<title>Node1</title>
<g id="a_Node000001"><a xlink:title="Text at.">
<polygon fill="#999999" stroke="#666666" points="79.75,-91.62 0,-91.62 0,-73.88 79.75,-73.88 79.75,-91.62"/>
<text text-anchor="middle" x="39.88" y="-80.03" font-family="SourceSans" font-size="8.00">svg::styled_text</text>
</a>
</g>
</g>
<!-- Node2 -->
<g id="Node000002" class="node">
<title>Node2</title>
<g id="a_Node000002"><a xlink:href="group__elements.html#aad29e1daf75bdcd69a39575a6807fa0f" target="_top" xlink:title="Either serialize immediately (as below), or create data structure that adds data to data_vec and then...">
<polygon fill="white" stroke="#666666" points="213.12,-206.5 118.38,-206.5 118.38,-179 213.12,-179 213.12,-206.5"/>
<text text-anchor="start" x="126.38" y="-194.9" font-family="SourceSans" font-size="8.00">svg::text_element::</text>
<text text-anchor="middle" x="165.75" y="-185.15" font-family="SourceSans" font-size="8.00">add_data</text>
</a>
</g>
</g>
<!-- Node1&#45;&gt;Node2 -->
<g id="edge1_Node000001_Node000002" class="edge">
<title>Node1&#45;&gt;Node2</title>
<g id="a_edge1_Node000001_Node000002"><a xlink:title=" ">
<path fill="none" stroke="#63b8ff" d="M51.01,-91.75C70.32,-108.9 112.89,-146.7 140.12,-170.88"/>
<polygon fill="#63b8ff" stroke="#63b8ff" points="137.78,-173.48 147.58,-177.5 142.43,-168.24 137.78,-173.48"/>
</a>
</g>
</g>
<!-- Node10 -->
<g id="Node000010" class="node">
<title>Node10</title>
<g id="a_Node000010"><a xlink:href="group__elements.html#ada0333b46b2547c6152f3f5811016a12" target="_top" xlink:title=" ">
<polygon fill="white" stroke="#666666" points="215.75,-119.5 115.75,-119.5 115.75,-92 215.75,-92 215.75,-119.5"/>
<text text-anchor="start" x="123.75" y="-107.9" font-family="SourceSans" font-size="8.00">svg::element_base::</text>
<text text-anchor="middle" x="165.75" y="-98.15" font-family="SourceSans" font-size="8.00">add_element</text>
</a>
</g>
</g>
<!-- Node1&#45;&gt;Node10 -->
<g id="edge11_Node000001_Node000010" class="edge">
<title>Node1&#45;&gt;Node10</title>
<g id="a_edge11_Node000001_Node000010"><a xlink:title=" ">
<path fill="none" stroke="#63b8ff" d="M80.07,-90.03C87.77,-91.46 96.01,-92.99 104.22,-94.51"/>
<polygon fill="#63b8ff" stroke="#63b8ff" points="103.39,-97.92 113.86,-96.3 104.67,-91.03 103.39,-97.92"/>
</a>
</g>
</g>
<!-- Node12 -->
<g id="Node000012" class="node">
<title>Node12</title>
<g id="a_Node000012"><a xlink:href="group__elements.html#ga13c46848317034d16c62a7d2061ba3d6" target="_top" xlink:title=" ">
<polygon fill="white" stroke="#666666" points="213.12,-73.5 118.38,-73.5 118.38,-46 213.12,-46 213.12,-73.5"/>
<text text-anchor="start" x="126.38" y="-61.9" font-family="SourceSans" font-size="8.00">svg::text_element::</text>
<text text-anchor="middle" x="165.75" y="-52.15" font-family="SourceSans" font-size="8.00">finish_element</text>
</a>
</g>
</g>
<!-- Node1&#45;&gt;Node12 -->
<g id="edge13_Node000001_Node000012" class="edge">
<title>Node1&#45;&gt;Node12</title>
<g id="a_edge13_Node000001_Node000012"><a xlink:title=" ">
<path fill="none" stroke="#63b8ff" d="M80.07,-75.47C88.54,-73.9 97.67,-72.2 106.7,-70.53"/>
<polygon fill="#63b8ff" stroke="#63b8ff" points="107.33,-73.97 116.52,-68.71 106.05,-67.09 107.33,-73.97"/>
</a>
</g>
</g>
<!-- Node13 -->
<g id="Node000013" class="node">
<title>Node13</title>
<g id="a_Node000013"><a xlink:href="group__elements.html#ae45bec611a6ec17ea46aab6d680ae042" target="_top" xlink:title=" ">
<polygon fill="white" stroke="#666666" points="213.12,-27.5 118.38,-27.5 118.38,0 213.12,0 213.12,-27.5"/>
<text text-anchor="start" x="126.38" y="-15.9" font-family="SourceSans" font-size="8.00">svg::text_element::</text>
<text text-anchor="middle" x="165.75" y="-6.15" font-family="SourceSans" font-size="8.00">start_element</text>
</a>
</g>
</g>
<!-- Node1&#45;&gt;Node13 -->
<g id="edge14_Node000001_Node000013" class="edge">
<title>Node1&#45;&gt;Node13</title>
<g id="a_edge14_Node000001_Node000013"><a xlink:title=" ">
<path fill="none" stroke="#63b8ff" d="M54.95,-73.45C69.79,-63.79 94,-48.49 115.75,-36.75 118.09,-35.49 120.51,-34.23 122.96,-32.98"/>
<polygon fill="#63b8ff" stroke="#63b8ff" points="124.35,-36.19 131.77,-28.63 121.25,-29.92 124.35,-36.19"/>
</a>
</g>
</g>
<!-- Node3 -->
<g id="Node000003" class="node">
<title>Node3</title>
<g id="a_Node000003"><a xlink:href="structsvg_1_1typography.html#adbc62f74f1fed3f7c77567250f084f83" target="_top" xlink:title=" ">
<polygon fill="white" stroke="#666666" points="358.88,-269.5 255.12,-269.5 255.12,-242 358.88,-242 358.88,-269.5"/>
<text text-anchor="start" x="263.12" y="-257.9" font-family="SourceSans" font-size="8.00">svg::typography::add</text>
<text text-anchor="middle" x="307" y="-248.15" font-family="SourceSans" font-size="8.00">_attribute</text>
</a>
</g>
</g>
<!-- Node2&#45;&gt;Node3 -->
<g id="edge2_Node000002_Node000003" class="edge">
<title>Node2&#45;&gt;Node3</title>
<g id="a_edge2_Node000002_Node000003"><a xlink:title=" ">
<path fill="none" stroke="#63b8ff" d="M198,-206.89C217.62,-215.76 243.15,-227.31 264.46,-236.96"/>
<polygon fill="#63b8ff" stroke="#63b8ff" points="262.92,-240.1 273.47,-241.03 265.81,-233.72 262.92,-240.1"/>
</a>
</g>
</g>
<!-- Node4 -->
<g id="Node000004" class="node">
<title>Node4</title>
<g id="a_Node000004"><a xlink:href="namespacesvg.html#a48ac748e89e22789d1772326a98dd7b6" target="_top" xlink:title=" ">
<polygon fill="white" stroke="#666666" points="505,-305.62 411.75,-305.62 411.75,-287.88 505,-287.88 505,-305.62"/>
<text text-anchor="middle" x="458.38" y="-294.02" font-family="SourceSans" font-size="8.00">svg::string_replace</text>
</a>
</g>
</g>
<!-- Node2&#45;&gt;Node4 -->
<g id="edge9_Node000002_Node000004" class="edge">
<title>Node2&#45;&gt;Node4</title>
<g id="a_edge9_Node000002_Node000004"><a xlink:title=" ">
<path fill="none" stroke="#63b8ff" d="M175.73,-206.74C189.42,-226.69 217.55,-262.68 251.75,-278.75 298.24,-300.6 357.15,-303.62 399.98,-302.05"/>
<polygon fill="#63b8ff" stroke="#63b8ff" points="400,-305.56 409.82,-301.59 399.67,-298.56 400,-305.56"/>
</a>
</g>
</g>
<!-- Node5 -->
<g id="Node000005" class="node">
<title>Node5</title>
<g id="a_Node000005"><a xlink:href="namespacesvg.html#a36b1c48ad4601b205790e3772ad0a7b6" target="_top" xlink:title=" ">
<polygon fill="white" stroke="#666666" points="494.12,-222.62 422.62,-222.62 422.62,-204.88 494.12,-204.88 494.12,-222.62"/>
<text text-anchor="middle" x="458.38" y="-211.03" font-family="SourceSans" font-size="8.00">svg::to_string</text>
</a>
</g>
</g>
<!-- Node2&#45;&gt;Node5 -->
<g id="edge10_Node000002_Node000005" class="edge">
<title>Node2&#45;&gt;Node5</title>
<g id="a_edge10_Node000002_Node000005"><a xlink:title=" ">
<path fill="none" stroke="#63b8ff" d="M213.44,-196.12C267.71,-200.04 356.71,-206.48 410.89,-210.39"/>
<polygon fill="#63b8ff" stroke="#63b8ff" points="410.49,-213.87 420.71,-211.1 410.99,-206.89 410.49,-213.87"/>
</a>
</g>
</g>
<!-- Node7 -->
<g id="Node000007" class="node">
<title>Node7</title>
<g id="a_Node000007"><a xlink:href="group__elements.html#acafbdd950c6c2639c9d376c3eab696e5" target="_top" xlink:title=" ">
<polygon fill="white" stroke="#666666" points="357,-185.5 257,-185.5 257,-158 357,-158 357,-185.5"/>
<text text-anchor="start" x="265" y="-173.9" font-family="SourceSans" font-size="8.00">svg::element_base::</text>
<text text-anchor="middle" x="307" y="-164.15" font-family="SourceSans" font-size="8.00">add_raw</text>
</a>
</g>
</g>
<!-- Node2&#45;&gt;Node7 -->
<g id="edge6_Node000002_Node000007" class="edge">
<title>Node2&#45;&gt;Node7</title>
<g id="a_edge6_Node000002_Node000007"><a xlink:title=" ">
<path fill="none" stroke="#63b8ff" d="M213.51,-185.7C223.83,-184.14 234.9,-182.47 245.67,-180.85"/>
<polygon fill="#63b8ff" stroke="#63b8ff" points="245.88,-184.36 255.25,-179.4 244.84,-177.43 245.88,-184.36"/>
</a>
</g>
</g>
<!-- Node8 -->
<g id="Node000008" class="node">
<title>Node8</title>
<g id="a_Node000008"><a xlink:href="group__elements.html#a53d72a7ff728ad1d4d027254530bcf3d" target="_top" xlink:title=" ">
<polygon fill="white" stroke="#666666" points="357,-139.5 257,-139.5 257,-112 357,-112 357,-139.5"/>
<text text-anchor="start" x="265" y="-127.9" font-family="SourceSans" font-size="8.00">svg::element_base::</text>
<text text-anchor="middle" x="307" y="-118.15" font-family="SourceSans" font-size="8.00">add_transform</text>
</a>
</g>
</g>
<!-- Node2&#45;&gt;Node8 -->
<g id="edge7_Node000002_Node000008" class="edge">
<title>Node2&#45;&gt;Node8</title>
<g id="a_edge7_Node000002_Node000008"><a xlink:title=" ">
<path fill="none" stroke="#63b8ff" d="M192.91,-178.55C209.59,-169.66 231.75,-158.15 251.75,-148.75 254.7,-147.36 257.76,-145.96 260.85,-144.58"/>
<polygon fill="#63b8ff" stroke="#63b8ff" points="262.25,-147.79 270,-140.56 259.44,-141.38 262.25,-147.79"/>
</a>
</g>
</g>
<!-- Node3&#45;&gt;Node4 -->
<g id="edge3_Node000003_Node000004" class="edge">
<title>Node3&#45;&gt;Node4</title>
<g id="a_edge3_Node000003_Node000004"><a xlink:title=" ">
<path fill="none" stroke="#63b8ff" d="M358.99,-269.75C376.46,-274.54 395.86,-279.87 412.79,-284.51"/>
<polygon fill="#63b8ff" stroke="#63b8ff" points="411.48,-287.78 422.05,-287.05 413.33,-281.03 411.48,-287.78"/>
</a>
</g>
</g>
<!-- Node3&#45;&gt;Node5 -->
<g id="edge4_Node000003_Node000005" class="edge">
<title>Node3&#45;&gt;Node5</title>
<g id="a_edge4_Node000003_Node000005"><a xlink:title=" ">
<path fill="none" stroke="#63b8ff" d="M358.57,-241.53C376.35,-236.53 396.16,-230.96 413.35,-226.13"/>
<polygon fill="#63b8ff" stroke="#63b8ff" points="414.09,-229.56 422.77,-223.48 412.19,-222.82 414.09,-229.56"/>
</a>
</g>
</g>
<!-- Node6 -->
<g id="Node000006" class="node">
<title>Node6</title>
<g id="a_Node000006"><a xlink:href="structsvg_1_1typography.html#a174c1ffb4e56214d71523ffe7e422561" target="_top" xlink:title=" ">
<polygon fill="white" stroke="#666666" points="506.5,-269.5 410.25,-269.5 410.25,-242 506.5,-242 506.5,-269.5"/>
<text text-anchor="start" x="418.25" y="-257.9" font-family="SourceSans" font-size="8.00">svg::typography::to</text>
<text text-anchor="middle" x="458.38" y="-248.15" font-family="SourceSans" font-size="8.00">_string</text>
</a>
</g>
</g>
<!-- Node3&#45;&gt;Node6 -->
<g id="edge5_Node000003_Node000006" class="edge">
<title>Node3&#45;&gt;Node6</title>
<g id="a_edge5_Node000003_Node000006"><a xlink:title=" ">
<path fill="none" stroke="#63b8ff" d="M358.99,-255.75C371.8,-255.75 385.65,-255.75 398.8,-255.75"/>
<polygon fill="#63b8ff" stroke="#63b8ff" points="398.62,-259.25 408.62,-255.75 398.62,-252.25 398.62,-259.25"/>
</a>
</g>
</g>
<!-- Node9 -->
<g id="Node000009" class="node">
<title>Node9</title>
<g id="a_Node000009"><a xlink:href="group__elements.html#ae50258851ebbaf08c7eebc3fbdbf1ac8" target="_top" xlink:title="Common transforms include rotate(180)">
<polygon fill="white" stroke="#666666" points="518.5,-139.5 398.25,-139.5 398.25,-112 518.5,-112 518.5,-139.5"/>
<text text-anchor="start" x="406.25" y="-127.9" font-family="SourceSans" font-size="8.00">svg::element_base::</text>
<text text-anchor="middle" x="458.38" y="-118.15" font-family="SourceSans" font-size="8.00">make_transform_attribute</text>
</a>
</g>
</g>
<!-- Node8&#45;&gt;Node9 -->
<g id="edge8_Node000008_Node000009" class="edge">
<title>Node8&#45;&gt;Node9</title>
<g id="a_edge8_Node000008_Node000009"><a xlink:title=" ">
<path fill="none" stroke="#63b8ff" d="M357.32,-125.75C366.67,-125.75 376.62,-125.75 386.47,-125.75"/>
<polygon fill="#63b8ff" stroke="#63b8ff" points="386.45,-129.25 396.45,-125.75 386.45,-122.25 386.45,-129.25"/>
</a>
</g>
</g>
<!-- Node11 -->
<g id="Node000011" class="node">
<title>Node11</title>
<g id="a_Node000011"><a xlink:href="group__elements.html#ad893ef9c13a15464c96d8a85c08af30f" target="_top" xlink:title=" ">
<polygon fill="white" stroke="#666666" points="362.25,-93.62 251.75,-93.62 251.75,-75.88 362.25,-75.88 362.25,-93.62"/>
<text text-anchor="middle" x="307" y="-82.03" font-family="SourceSans" font-size="8.00">svg::element_base::str</text>
</a>
</g>
</g>
<!-- Node10&#45;&gt;Node11 -->
<g id="edge12_Node000010_Node000011" class="edge">
<title>Node10&#45;&gt;Node11</title>
<g id="a_edge12_Node000010_Node000011"><a xlink:title=" ">
<path fill="none" stroke="#63b8ff" d="M216.24,-98.29C223.99,-97.12 232.12,-95.89 240.17,-94.68"/>
<polygon fill="#63b8ff" stroke="#63b8ff" points="240.6,-98.15 249.97,-93.2 239.56,-91.23 240.6,-98.15"/>
</a>
</g>
</g>
</g>
</svg>
