<?xml version="1.0" encoding="UTF-8" standalone="no"?>
<!DOCTYPE svg PUBLIC "-//W3C//DTD SVG 1.1//EN"
 "http://www.w3.org/Graphics/SVG/1.1/DTD/svg11.dtd">
<!-- Generated by graphviz version 12.2.1 (20241206.2353)
 -->
<!-- Title: svg::sized_text_r Pages: 1 -->
<svg width="512pt" height="350pt"
 viewBox="0.00 0.00 512.25 349.62" xmlns="http://www.w3.org/2000/svg" xmlns:xlink="http://www.w3.org/1999/xlink">
<g id="graph0" class="graph" transform="scale(1 1) rotate(0) translate(4 345.62)">
<title>svg::sized_text_r</title>
<!-- Node1 -->
<g id="Node000001" class="node">
<title>Node1</title>
<g id="a_Node000001"><a xlink:title="Text at size, with a transformation=rotation.">
<polygon fill="#999999" stroke="#666666" points="83.5,-104.62 0,-104.62 0,-86.88 83.5,-86.88 83.5,-104.62"/>
<text text-anchor="middle" x="41.75" y="-93.03" font-family="SourceSans" font-size="8.00">svg::sized_text_r</text>
</a>
</g>
</g>
<!-- Node2 -->
<g id="Node000002" class="node">
<title>Node2</title>
<g id="a_Node000002"><a xlink:href="group__elements.html#aad29e1daf75bdcd69a39575a6807fa0f" target="_top" xlink:title="Either serialize immediately (as below), or create data structure that adds data to data_vec and then...">
<polygon fill="white" stroke="#666666" points="219.88,-242.5 125.12,-242.5 125.12,-215 219.88,-215 219.88,-242.5"/>
<text text-anchor="start" x="133.12" y="-230.9" font-family="SourceSans" font-size="8.00">svg::text_element::</text>
<text text-anchor="middle" x="172.5" y="-221.15" font-family="SourceSans" font-size="8.00">add_data</text>
</a>
</g>
</g>
<!-- Node1&#45;&gt;Node2 -->
<g id="edge1_Node000001_Node000002" class="edge">
<title>Node1&#45;&gt;Node2</title>
<g id="a_edge1_Node000001_Node000002"><a xlink:title=" ">
<path fill="none" stroke="#63b8ff" d="M51.6,-104.89C71.77,-125.72 121.6,-177.2 150.27,-206.82"/>
<polygon fill="#63b8ff" stroke="#63b8ff" points="147.57,-209.06 157.04,-213.82 152.6,-204.2 147.57,-209.06"/>
</a>
</g>
</g>
<!-- Node9 -->
<g id="Node000009" class="node">
<title>Node9</title>
<g id="a_Node000009"><a xlink:href="group__elements.html#ada0333b46b2547c6152f3f5811016a12" target="_top" xlink:title=" ">
<polygon fill="white" stroke="#666666" points="222.5,-155.5 122.5,-155.5 122.5,-128 222.5,-128 222.5,-155.5"/>
<text text-anchor="start" x="130.5" y="-143.9" font-family="SourceSans" font-size="8.00">svg::element_base::</text>
<text text-anchor="middle" x="172.5" y="-134.15" font-family="SourceSans" font-size="8.00">add_element</text>
</a>
</g>
</g>
<!-- Node1&#45;&gt;Node9 -->
<g id="edge10_Node000001_Node000009" class="edge">
<title>Node1&#45;&gt;Node9</title>
<g id="a_edge10_Node000001_Node000009"><a xlink:title=" ">
<path fill="none" stroke="#63b8ff" d="M68.8,-105.06C83.84,-110.43 103.27,-117.37 121.17,-123.77"/>
<polygon fill="#63b8ff" stroke="#63b8ff" points="119.76,-126.98 130.36,-127.05 122.12,-120.39 119.76,-126.98"/>
</a>
</g>
</g>
<!-- Node11 -->
<g id="Node000011" class="node">
<title>Node11</title>
<g id="a_Node000011"><a xlink:href="group__elements.html#ga13c46848317034d16c62a7d2061ba3d6" target="_top" xlink:title=" ">
<polygon fill="white" stroke="#666666" points="219.88,-109.5 125.12,-109.5 125.12,-82 219.88,-82 219.88,-109.5"/>
<text text-anchor="start" x="133.12" y="-97.9" font-family="SourceSans" font-size="8.00">svg::text_element::</text>
<text text-anchor="middle" x="172.5" y="-88.15" font-family="SourceSans" font-size="8.00">finish_element</text>
</a>
</g>
</g>
<!-- Node1&#45;&gt;Node11 -->
<g id="edge12_Node000001_Node000011" class="edge">
<title>Node1&#45;&gt;Node11</title>
<g id="a_edge12_Node000001_Node000011"><a xlink:title=" ">
<path fill="none" stroke="#63b8ff" d="M83.84,-95.75C93.36,-95.75 103.66,-95.75 113.74,-95.75"/>
<polygon fill="#63b8ff" stroke="#63b8ff" points="113.47,-99.25 123.47,-95.75 113.47,-92.25 113.47,-99.25"/>
</a>
</g>
</g>
<!-- Node12 -->
<g id="Node000012" class="node">
<title>Node12</title>
<g id="a_Node000012"><a xlink:href="structsvg_1_1transform.html#acf9836f4ba647f0dd2b53963a0f714d0" target="_top" xlink:title=" ">
<polygon fill="white" stroke="#666666" points="225.5,-63.62 119.5,-63.62 119.5,-45.88 225.5,-45.88 225.5,-63.62"/>
<text text-anchor="middle" x="172.5" y="-52.02" font-family="SourceSans" font-size="8.00">svg::transform::rotate</text>
</a>
</g>
</g>
<!-- Node1&#45;&gt;Node12 -->
<g id="edge13_Node000001_Node000012" class="edge">
<title>Node1&#45;&gt;Node12</title>
<g id="a_edge13_Node000001_Node000012"><a xlink:title=" ">
<path fill="none" stroke="#63b8ff" d="M71.97,-86.45C89.58,-80.84 112.26,-73.62 131.52,-67.48"/>
<polygon fill="#63b8ff" stroke="#63b8ff" points="132.49,-70.85 140.96,-64.48 130.37,-64.18 132.49,-70.85"/>
</a>
</g>
</g>
<!-- Node13 -->
<g id="Node000013" class="node">
<title>Node13</title>
<g id="a_Node000013"><a xlink:href="group__elements.html#ae45bec611a6ec17ea46aab6d680ae042" target="_top" xlink:title=" ">
<polygon fill="white" stroke="#666666" points="219.88,-27.5 125.12,-27.5 125.12,0 219.88,0 219.88,-27.5"/>
<text text-anchor="start" x="133.12" y="-15.9" font-family="SourceSans" font-size="8.00">svg::text_element::</text>
<text text-anchor="middle" x="172.5" y="-6.15" font-family="SourceSans" font-size="8.00">start_element</text>
</a>
</g>
</g>
<!-- Node1&#45;&gt;Node13 -->
<g id="edge14_Node000001_Node000013" class="edge">
<title>Node1&#45;&gt;Node13</title>
<g id="a_edge14_Node000001_Node000013"><a xlink:title=" ">
<path fill="none" stroke="#63b8ff" d="M53.1,-86.49C67.33,-74.08 94.07,-51.85 119.5,-36.75 121.64,-35.48 123.86,-34.24 126.12,-33.03"/>
<polygon fill="#63b8ff" stroke="#63b8ff" points="127.51,-36.25 134.89,-28.65 124.38,-29.99 127.51,-36.25"/>
</a>
</g>
</g>
<!-- Node3 -->
<g id="Node000003" class="node">
<title>Node3</title>
<g id="a_Node000003"><a xlink:href="structsvg_1_1typography.html#adbc62f74f1fed3f7c77567250f084f83" target="_top" xlink:title=" ">
<polygon fill="white" stroke="#666666" points="368.62,-305.5 264.88,-305.5 264.88,-278 368.62,-278 368.62,-305.5"/>
<text text-anchor="start" x="272.88" y="-293.9" font-family="SourceSans" font-size="8.00">svg::typography::add</text>
<text text-anchor="middle" x="316.75" y="-284.15" font-family="SourceSans" font-size="8.00">_attribute</text>
</a>
</g>
</g>
<!-- Node2&#45;&gt;Node3 -->
<g id="edge2_Node000002_Node000003" class="edge">
<title>Node2&#45;&gt;Node3</title>
<g id="a_edge2_Node000002_Node000003"><a xlink:title=" ">
<path fill="none" stroke="#63b8ff" d="M205.42,-242.89C225.56,-251.8 251.78,-263.42 273.61,-273.09"/>
<polygon fill="#63b8ff" stroke="#63b8ff" points="271.99,-276.2 282.55,-277.05 274.82,-269.8 271.99,-276.2"/>
</a>
</g>
</g>
<!-- Node4 -->
<g id="Node000004" class="node">
<title>Node4</title>
<g id="a_Node000004"><a xlink:href="namespacesvg.html#a48ac748e89e22789d1772326a98dd7b6" target="_top" xlink:title=" ">
<polygon fill="white" stroke="#666666" points="502.75,-341.62 409.5,-341.62 409.5,-323.88 502.75,-323.88 502.75,-341.62"/>
<text text-anchor="middle" x="456.12" y="-330.02" font-family="SourceSans" font-size="8.00">svg::string_replace</text>
</a>
</g>
</g>
<!-- Node2&#45;&gt;Node4 -->
<g id="edge8_Node000002_Node000004" class="edge">
<title>Node2&#45;&gt;Node4</title>
<g id="a_edge8_Node000002_Node000004"><a xlink:title=" ">
<path fill="none" stroke="#63b8ff" d="M182.94,-242.72C197.27,-262.65 226.6,-298.61 261.5,-314.75 304.17,-334.49 357.71,-338.08 397.67,-337.25"/>
<polygon fill="#63b8ff" stroke="#63b8ff" points="397.69,-340.75 407.57,-336.93 397.46,-333.75 397.69,-340.75"/>
</a>
</g>
</g>
<!-- Node5 -->
<g id="Node000005" class="node">
<title>Node5</title>
<g id="a_Node000005"><a xlink:href="namespacesvg.html#a36b1c48ad4601b205790e3772ad0a7b6" target="_top" xlink:title=" ">
<polygon fill="white" stroke="#666666" points="491.88,-259.62 420.38,-259.62 420.38,-241.88 491.88,-241.88 491.88,-259.62"/>
<text text-anchor="middle" x="456.12" y="-248.03" font-family="SourceSans" font-size="8.00">svg::to_string</text>
</a>
</g>
</g>
<!-- Node2&#45;&gt;Node5 -->
<g id="edge9_Node000002_Node000005" class="edge">
<title>Node2&#45;&gt;Node5</title>
<g id="a_edge9_Node000002_Node000005"><a xlink:title=" ">
<path fill="none" stroke="#63b8ff" d="M220.32,-232.41C272.67,-236.5 356.91,-243.08 408.98,-247.15"/>
<polygon fill="#63b8ff" stroke="#63b8ff" points="408.47,-250.62 418.71,-247.91 409.01,-243.64 408.47,-250.62"/>
</a>
</g>
</g>
<!-- Node7 -->
<g id="Node000007" class="node">
<title>Node7</title>
<g id="a_Node000007"><a xlink:href="group__elements.html#a1ed006cabdb9c531c2bd8e27ea9e0966" target="_top" xlink:title=" ">
<polygon fill="white" stroke="#666666" points="364.12,-221.5 269.38,-221.5 269.38,-194 364.12,-194 364.12,-221.5"/>
<text text-anchor="start" x="277.38" y="-209.9" font-family="SourceSans" font-size="8.00">svg::text_element::</text>
<text text-anchor="middle" x="316.75" y="-200.15" font-family="SourceSans" font-size="8.00">add_text</text>
</a>
</g>
</g>
<!-- Node2&#45;&gt;Node7 -->
<g id="edge6_Node000002_Node000007" class="edge">
<title>Node2&#45;&gt;Node7</title>
<g id="a_edge6_Node000002_Node000007"><a xlink:title=" ">
<path fill="none" stroke="#63b8ff" d="M220.08,-221.87C232.11,-220.1 245.22,-218.16 257.76,-216.31"/>
<polygon fill="#63b8ff" stroke="#63b8ff" points="258.19,-219.79 267.57,-214.86 257.17,-212.86 258.19,-219.79"/>
</a>
</g>
</g>
<!-- Node8 -->
<g id="Node000008" class="node">
<title>Node8</title>
<g id="a_Node000008"><a xlink:href="group__elements.html#a53d72a7ff728ad1d4d027254530bcf3d" target="_top" xlink:title="Common transforms include rotate(180)">
<polygon fill="white" stroke="#666666" points="366.75,-175.5 266.75,-175.5 266.75,-148 366.75,-148 366.75,-175.5"/>
<text text-anchor="start" x="274.75" y="-163.9" font-family="SourceSans" font-size="8.00">svg::element_base::</text>
<text text-anchor="middle" x="316.75" y="-154.15" font-family="SourceSans" font-size="8.00">add_transform</text>
</a>
</g>
</g>
<!-- Node2&#45;&gt;Node8 -->
<g id="edge7_Node000002_Node000008" class="edge">
<title>Node2&#45;&gt;Node8</title>
<g id="a_edge7_Node000002_Node000008"><a xlink:title=" ">
<path fill="none" stroke="#63b8ff" d="M200.64,-214.63C217.93,-205.77 240.87,-194.27 261.5,-184.75 264.6,-183.32 267.82,-181.87 271.07,-180.43"/>
<polygon fill="#63b8ff" stroke="#63b8ff" points="272.3,-183.71 280.07,-176.51 269.51,-177.29 272.3,-183.71"/>
</a>
</g>
</g>
<!-- Node3&#45;&gt;Node4 -->
<g id="edge3_Node000003_Node000004" class="edge">
<title>Node3&#45;&gt;Node4</title>
<g id="a_edge3_Node000003_Node000004"><a xlink:title=" ">
<path fill="none" stroke="#63b8ff" d="M365.41,-305.97C381,-310.63 398.19,-315.76 413.31,-320.27"/>
<polygon fill="#63b8ff" stroke="#63b8ff" points="411.88,-323.5 422.46,-323 413.88,-316.79 411.88,-323.5"/>
</a>
</g>
</g>
<!-- Node3&#45;&gt;Node5 -->
<g id="edge4_Node000003_Node000005" class="edge">
<title>Node3&#45;&gt;Node5</title>
<g id="a_edge4_Node000003_Node000005"><a xlink:title=" ">
<path fill="none" stroke="#63b8ff" d="M365.41,-277.53C381,-272.87 398.19,-267.74 413.31,-263.23"/>
<polygon fill="#63b8ff" stroke="#63b8ff" points="413.88,-266.71 422.46,-260.5 411.88,-260 413.88,-266.71"/>
</a>
</g>
</g>
<!-- Node6 -->
<g id="Node000006" class="node">
<title>Node6</title>
<g id="a_Node000006"><a xlink:href="structsvg_1_1typography.html#a174c1ffb4e56214d71523ffe7e422561" target="_top" xlink:title=" ">
<polygon fill="white" stroke="#666666" points="504.25,-305.5 408,-305.5 408,-278 504.25,-278 504.25,-305.5"/>
<text text-anchor="start" x="416" y="-293.9" font-family="SourceSans" font-size="8.00">svg::typography::to</text>
<text text-anchor="middle" x="456.12" y="-284.15" font-family="SourceSans" font-size="8.00">_string</text>
</a>
</g>
</g>
<!-- Node3&#45;&gt;Node6 -->
<g id="edge5_Node000003_Node000006" class="edge">
<title>Node3&#45;&gt;Node6</title>
<g id="a_edge5_Node000003_Node000006"><a xlink:title=" ">
<path fill="none" stroke="#63b8ff" d="M368.9,-291.75C377.81,-291.75 387.13,-291.75 396.22,-291.75"/>
<polygon fill="#63b8ff" stroke="#63b8ff" points="396.05,-295.25 406.05,-291.75 396.05,-288.25 396.05,-295.25"/>
</a>
</g>
</g>
<!-- Node10 -->
<g id="Node000010" class="node">
<title>Node10</title>
<g id="a_Node000010"><a xlink:href="group__elements.html#ad893ef9c13a15464c96d8a85c08af30f" target="_top" xlink:title=" ">
<polygon fill="white" stroke="#666666" points="372,-129.62 261.5,-129.62 261.5,-111.88 372,-111.88 372,-129.62"/>
<text text-anchor="middle" x="316.75" y="-118.03" font-family="SourceSans" font-size="8.00">svg::element_base::str</text>
</a>
</g>
</g>
<!-- Node9&#45;&gt;Node10 -->
<g id="edge11_Node000009_Node000010" class="edge">
<title>Node9&#45;&gt;Node10</title>
<g id="a_edge11_Node000009_Node000010"><a xlink:title=" ">
<path fill="none" stroke="#63b8ff" d="M222.85,-134.46C231.54,-133.18 240.71,-131.83 249.77,-130.49"/>
<polygon fill="#63b8ff" stroke="#63b8ff" points="250.26,-133.96 259.64,-129.03 249.23,-127.03 250.26,-133.96"/>
</a>
</g>
</g>
</g>
</svg>
