<?xml version="1.0" encoding="UTF-8" standalone="no"?>
<!DOCTYPE svg PUBLIC "-//W3C//DTD SVG 1.1//EN"
 "http://www.w3.org/Graphics/SVG/1.1/DTD/svg11.dtd">
<!-- Generated by graphviz version 12.2.1 (20241206.2353)
 -->
<!-- Title: svg::sized_text Pages: 1 -->
<svg width="478pt" height="327pt"
 viewBox="0.00 0.00 477.75 327.00" xmlns="http://www.w3.org/2000/svg" xmlns:xlink="http://www.w3.org/1999/xlink">
<g id="graph0" class="graph" transform="scale(1 1) rotate(0) translate(4 323)">
<title>svg::sized_text</title>
<!-- Node1 -->
<g id="Node000001" class="node">
<title>Node1</title>
<g id="a_Node000001"><a xlink:title="Text at size.">
<polygon fill="#999999" stroke="#666666" points="71.5,-101 0,-101 0,-81 71.5,-81 71.5,-101"/>
<text text-anchor="middle" x="35.75" y="-89.4" font-family="SourceSans" font-size="8.00">svg::sized_text</text>
</a>
</g>
</g>
<!-- Node2 -->
<g id="Node000002" class="node">
<title>Node2</title>
<g id="a_Node000002"><a xlink:href="group__elements.html#aad29e1daf75bdcd69a39575a6807fa0f" target="_top" xlink:title="Either serialize immediately (as below), or create data structure that adds data to data_vec and then...">
<polygon fill="white" stroke="#666666" points="201.88,-215 113.88,-215 113.88,-183 201.88,-183 201.88,-215"/>
<text text-anchor="start" x="121.88" y="-203.4" font-family="SourceSans" font-size="8.00">svg::text_element::</text>
<text text-anchor="middle" x="157.88" y="-191.4" font-family="SourceSans" font-size="8.00">add_data</text>
</a>
</g>
</g>
<!-- Node1&#45;&gt;Node2 -->
<g id="edge1_Node000001_Node000002" class="edge">
<title>Node1&#45;&gt;Node2</title>
<g id="a_edge1_Node000001_Node000002"><a xlink:title=" ">
<path fill="none" stroke="#63b8ff" d="M48.27,-101.36C66.97,-118.17 104.42,-151.84 130.07,-174.9"/>
<polygon fill="#63b8ff" stroke="#63b8ff" points="127.69,-177.47 137.47,-181.55 132.37,-172.26 127.69,-177.47"/>
</a>
</g>
</g>
<!-- Node9 -->
<g id="Node000009" class="node">
<title>Node9</title>
<g id="a_Node000009"><a xlink:href="group__elements.html#aaa5f1a136f2b5c61d647a47ec53fe31d" target="_top" xlink:title=" ">
<polygon fill="white" stroke="#666666" points="208.25,-132 107.5,-132 107.5,-100 208.25,-100 208.25,-132"/>
<text text-anchor="start" x="115.5" y="-120.4" font-family="SourceSans" font-size="8.00">svg::svg_element::add</text>
<text text-anchor="middle" x="157.88" y="-108.4" font-family="SourceSans" font-size="8.00">_element</text>
</a>
</g>
</g>
<!-- Node1&#45;&gt;Node9 -->
<g id="edge10_Node000001_Node000009" class="edge">
<title>Node1&#45;&gt;Node9</title>
<g id="a_edge10_Node000001_Node000009"><a xlink:title=" ">
<path fill="none" stroke="#63b8ff" d="M71.82,-98.3C79.44,-99.88 87.71,-101.6 96,-103.33"/>
<polygon fill="#63b8ff" stroke="#63b8ff" points="95.27,-106.75 105.78,-105.37 96.7,-99.9 95.27,-106.75"/>
</a>
</g>
</g>
<!-- Node11 -->
<g id="Node000011" class="node">
<title>Node11</title>
<g id="a_Node000011"><a xlink:href="group__elements.html#ga13c46848317034d16c62a7d2061ba3d6" target="_top" xlink:title=" ">
<polygon fill="white" stroke="#666666" points="201.88,-82 113.88,-82 113.88,-50 201.88,-50 201.88,-82"/>
<text text-anchor="start" x="121.88" y="-70.4" font-family="SourceSans" font-size="8.00">svg::text_element::</text>
<text text-anchor="middle" x="157.88" y="-58.4" font-family="SourceSans" font-size="8.00">finish_element</text>
</a>
</g>
</g>
<!-- Node1&#45;&gt;Node11 -->
<g id="edge12_Node000001_Node000011" class="edge">
<title>Node1&#45;&gt;Node11</title>
<g id="a_edge12_Node000001_Node000011"><a xlink:title=" ">
<path fill="none" stroke="#63b8ff" d="M71.82,-83.7C81.38,-81.71 91.97,-79.51 102.34,-77.35"/>
<polygon fill="#63b8ff" stroke="#63b8ff" points="102.88,-80.81 111.96,-75.35 101.46,-73.96 102.88,-80.81"/>
</a>
</g>
</g>
<!-- Node12 -->
<g id="Node000012" class="node">
<title>Node12</title>
<g id="a_Node000012"><a xlink:href="group__elements.html#ae45bec611a6ec17ea46aab6d680ae042" target="_top" xlink:title=" ">
<polygon fill="white" stroke="#666666" points="201.88,-32 113.88,-32 113.88,0 201.88,0 201.88,-32"/>
<text text-anchor="start" x="121.88" y="-20.4" font-family="SourceSans" font-size="8.00">svg::text_element::</text>
<text text-anchor="middle" x="157.88" y="-8.4" font-family="SourceSans" font-size="8.00">start_element</text>
</a>
</g>
</g>
<!-- Node1&#45;&gt;Node12 -->
<g id="edge13_Node000001_Node000012" class="edge">
<title>Node1&#45;&gt;Node12</title>
<g id="a_edge13_Node000001_Node000012"><a xlink:title=" ">
<path fill="none" stroke="#63b8ff" d="M50.18,-80.61C64.12,-70.05 86.75,-53.49 107.5,-41 109.32,-39.9 111.2,-38.81 113.1,-37.73"/>
<polygon fill="#63b8ff" stroke="#63b8ff" points="114.36,-41.03 121.46,-33.16 111.01,-34.88 114.36,-41.03"/>
</a>
</g>
</g>
<!-- Node3 -->
<g id="Node000003" class="node">
<title>Node3</title>
<g id="a_Node000003"><a xlink:href="structsvg_1_1typography.html#adbc62f74f1fed3f7c77567250f084f83" target="_top" xlink:title=" ">
<polygon fill="white" stroke="#666666" points="342.75,-281 246.5,-281 246.5,-249 342.75,-249 342.75,-281"/>
<text text-anchor="start" x="254.5" y="-269.4" font-family="SourceSans" font-size="8.00">svg::typography::add</text>
<text text-anchor="middle" x="294.62" y="-257.4" font-family="SourceSans" font-size="8.00">_attribute</text>
</a>
</g>
</g>
<!-- Node2&#45;&gt;Node3 -->
<g id="edge2_Node000002_Node000003" class="edge">
<title>Node2&#45;&gt;Node3</title>
<g id="a_edge2_Node000002_Node000003"><a xlink:title=" ">
<path fill="none" stroke="#63b8ff" d="M192.53,-215.48C209.95,-224.01 231.41,-234.53 250.07,-243.67"/>
<polygon fill="#63b8ff" stroke="#63b8ff" points="248.52,-246.8 259.04,-248.06 251.6,-240.52 248.52,-246.8"/>
</a>
</g>
</g>
<!-- Node4 -->
<g id="Node000004" class="node">
<title>Node4</title>
<g id="a_Node000004"><a xlink:href="namespacesvg.html#a48ac748e89e22789d1772326a98dd7b6" target="_top" xlink:title=" ">
<polygon fill="white" stroke="#666666" points="469,-319 381.75,-319 381.75,-299 469,-299 469,-319"/>
<text text-anchor="middle" x="425.38" y="-307.4" font-family="SourceSans" font-size="8.00">svg::string_replace</text>
</a>
</g>
</g>
<!-- Node2&#45;&gt;Node4 -->
<g id="edge8_Node000002_Node000004" class="edge">
<title>Node2&#45;&gt;Node4</title>
<g id="a_edge8_Node000002_Node000004"><a xlink:title=" ">
<path fill="none" stroke="#63b8ff" d="M168.91,-215.5C182.87,-236.8 210.3,-273.13 244.25,-290 283.3,-309.4 332.89,-313.36 370.14,-312.91"/>
<polygon fill="#63b8ff" stroke="#63b8ff" points="369.86,-316.42 379.77,-312.68 369.69,-309.42 369.86,-316.42"/>
</a>
</g>
</g>
<!-- Node5 -->
<g id="Node000005" class="node">
<title>Node5</title>
<g id="a_Node000005"><a xlink:href="namespacesvg.html#a36b1c48ad4601b205790e3772ad0a7b6" target="_top" xlink:title=" ">
<polygon fill="white" stroke="#666666" points="458.88,-231 391.88,-231 391.88,-211 458.88,-211 458.88,-231"/>
<text text-anchor="middle" x="425.38" y="-219.4" font-family="SourceSans" font-size="8.00">svg::to_string</text>
</a>
</g>
</g>
<!-- Node2&#45;&gt;Node5 -->
<g id="edge9_Node000002_Node000005" class="edge">
<title>Node2&#45;&gt;Node5</title>
<g id="a_edge9_Node000002_Node000005"><a xlink:title=" ">
<path fill="none" stroke="#63b8ff" d="M202.12,-202.58C251.23,-206.65 330.93,-213.26 380.35,-217.35"/>
<polygon fill="#63b8ff" stroke="#63b8ff" points="379.86,-220.82 390.12,-218.16 380.44,-213.85 379.86,-220.82"/>
</a>
</g>
</g>
<!-- Node7 -->
<g id="Node000007" class="node">
<title>Node7</title>
<g id="a_Node000007"><a xlink:href="group__elements.html#a1ed006cabdb9c531c2bd8e27ea9e0966" target="_top" xlink:title=" ">
<polygon fill="white" stroke="#666666" points="338.62,-193 250.62,-193 250.62,-161 338.62,-161 338.62,-193"/>
<text text-anchor="start" x="258.62" y="-181.4" font-family="SourceSans" font-size="8.00">svg::text_element::</text>
<text text-anchor="middle" x="294.62" y="-169.4" font-family="SourceSans" font-size="8.00">add_text</text>
</a>
</g>
</g>
<!-- Node2&#45;&gt;Node7 -->
<g id="edge6_Node000002_Node000007" class="edge">
<title>Node2&#45;&gt;Node7</title>
<g id="a_edge6_Node000002_Node000007"><a xlink:title=" ">
<path fill="none" stroke="#63b8ff" d="M202.25,-191.92C214.03,-189.99 226.94,-187.89 239.25,-185.88"/>
<polygon fill="#63b8ff" stroke="#63b8ff" points="239.53,-189.38 248.84,-184.31 238.4,-182.47 239.53,-189.38"/>
</a>
</g>
</g>
<!-- Node8 -->
<g id="Node000008" class="node">
<title>Node8</title>
<g id="a_Node000008"><a xlink:href="group__elements.html#a53d72a7ff728ad1d4d027254530bcf3d" target="_top" xlink:title="Common transforms include rotate(180)">
<polygon fill="white" stroke="#666666" points="340.12,-143 249.12,-143 249.12,-111 340.12,-111 340.12,-143"/>
<text text-anchor="start" x="257.12" y="-131.4" font-family="SourceSans" font-size="8.00">svg::element_base::</text>
<text text-anchor="middle" x="294.62" y="-119.4" font-family="SourceSans" font-size="8.00">add_transform</text>
</a>
</g>
</g>
<!-- Node2&#45;&gt;Node8 -->
<g id="edge7_Node000002_Node000008" class="edge">
<title>Node2&#45;&gt;Node8</title>
<g id="a_edge7_Node000002_Node000008"><a xlink:title=" ">
<path fill="none" stroke="#63b8ff" d="M187.98,-182.65C204.42,-173.5 225.4,-161.96 244.25,-152 246.34,-150.9 248.49,-149.77 250.66,-148.64"/>
<polygon fill="#63b8ff" stroke="#63b8ff" points="252.24,-151.76 259.53,-144.08 249.04,-145.54 252.24,-151.76"/>
</a>
</g>
</g>
<!-- Node3&#45;&gt;Node4 -->
<g id="edge3_Node000003_Node000004" class="edge">
<title>Node3&#45;&gt;Node4</title>
<g id="a_edge3_Node000003_Node000004"><a xlink:title=" ">
<path fill="none" stroke="#63b8ff" d="M343.2,-281.26C356.28,-285.73 370.35,-290.54 383.04,-294.87"/>
<polygon fill="#63b8ff" stroke="#63b8ff" points="381.75,-298.13 392.35,-298.05 384.02,-291.51 381.75,-298.13"/>
</a>
</g>
</g>
<!-- Node3&#45;&gt;Node5 -->
<g id="edge4_Node000003_Node000005" class="edge">
<title>Node3&#45;&gt;Node5</title>
<g id="a_edge4_Node000003_Node000005"><a xlink:title=" ">
<path fill="none" stroke="#63b8ff" d="M343.2,-248.74C356.28,-244.27 370.35,-239.46 383.04,-235.13"/>
<polygon fill="#63b8ff" stroke="#63b8ff" points="384.02,-238.49 392.35,-231.95 381.75,-231.87 384.02,-238.49"/>
</a>
</g>
</g>
<!-- Node6 -->
<g id="Node000006" class="node">
<title>Node6</title>
<g id="a_Node000006"><a xlink:href="structsvg_1_1typography.html#a174c1ffb4e56214d71523ffe7e422561" target="_top" xlink:title=" ">
<polygon fill="white" stroke="#666666" points="469.75,-281 381,-281 381,-249 469.75,-249 469.75,-281"/>
<text text-anchor="start" x="389" y="-269.4" font-family="SourceSans" font-size="8.00">svg::typography::to</text>
<text text-anchor="middle" x="425.38" y="-257.4" font-family="SourceSans" font-size="8.00">_string</text>
</a>
</g>
</g>
<!-- Node3&#45;&gt;Node6 -->
<g id="edge5_Node000003_Node000006" class="edge">
<title>Node3&#45;&gt;Node6</title>
<g id="a_edge5_Node000003_Node000006"><a xlink:title=" ">
<path fill="none" stroke="#63b8ff" d="M343.2,-265C351.77,-265 360.76,-265 369.52,-265"/>
<polygon fill="#63b8ff" stroke="#63b8ff" points="369.31,-268.5 379.31,-265 369.31,-261.5 369.31,-268.5"/>
</a>
</g>
</g>
<!-- Node10 -->
<g id="Node000010" class="node">
<title>Node10</title>
<g id="a_Node000010"><a xlink:href="group__elements.html#ad893ef9c13a15464c96d8a85c08af30f" target="_top" xlink:title=" ">
<polygon fill="white" stroke="#666666" points="345,-93 244.25,-93 244.25,-73 345,-73 345,-93"/>
<text text-anchor="middle" x="294.62" y="-81.4" font-family="SourceSans" font-size="8.00">svg::element_base::str</text>
</a>
</g>
</g>
<!-- Node9&#45;&gt;Node10 -->
<g id="edge11_Node000009_Node000010" class="edge">
<title>Node9&#45;&gt;Node10</title>
<g id="a_edge11_Node000009_Node000010"><a xlink:title=" ">
<path fill="none" stroke="#63b8ff" d="M208.67,-103.81C218.91,-101.3 229.73,-98.65 240.1,-96.11"/>
<polygon fill="#63b8ff" stroke="#63b8ff" points="240.77,-99.55 249.65,-93.77 239.1,-92.75 240.77,-99.55"/>
</a>
</g>
</g>
</g>
</svg>
