<?xml version="1.0" encoding="UTF-8" standalone="no"?>
<!DOCTYPE svg PUBLIC "-//W3C//DTD SVG 1.1//EN"
 "http://www.w3.org/Graphics/SVG/1.1/DTD/svg11.dtd">
<!-- Generated by graphviz version 13.1.2 (20250808.2320)
 -->
<!-- Title: svg::make_path_ripple Pages: 1 -->
<svg width="365pt" height="128pt"
 viewBox="0.00 0.00 365.00 128.00" xmlns="http://www.w3.org/2000/svg" xmlns:xlink="http://www.w3.org/1999/xlink">
<g id="graph0" class="graph" transform="scale(1 1) rotate(0) translate(4 123.5)">
<title>svg::make_path_ripple</title>
<!-- Node1 -->
<g id="Node000001" class="node">
<title>Node1</title>
<g id="a_Node000001"><a xlink:title="Make waves.">
<polygon fill="#999999" stroke="#666666" points="107.5,-68.62 0,-68.62 0,-50.88 107.5,-50.88 107.5,-68.62"/>
<text xml:space="preserve" text-anchor="middle" x="53.75" y="-57.02" font-family="SourceSans" font-size="8.00">svg::make_path_ripple</text>
</a>
</g>
</g>
<!-- Node2 -->
<g id="Node000002" class="node">
<title>Node2</title>
<g id="a_Node000002"><a xlink:href="group__elements.html#a238b38ca99a1cf6c2baf80c8e4338d99" target="_top" xlink:title=" ">
<polygon fill="white" stroke="#666666" points="246.5,-119.5 146.5,-119.5 146.5,-92 246.5,-92 246.5,-119.5"/>
<text xml:space="preserve" text-anchor="start" x="154.5" y="-107.9" font-family="SourceSans" font-size="8.00">svg::element_base::</text>
<text xml:space="preserve" text-anchor="middle" x="196.5" y="-98.15" font-family="SourceSans" font-size="8.00">add_style</text>
</a>
</g>
</g>
<!-- Node1&#45;&gt;Node2 -->
<g id="edge1_Node000001_Node000002" class="edge">
<title>Node1&#45;&gt;Node2</title>
<g id="a_edge1_Node000001_Node000002"><a xlink:title=" ">
<path fill="none" stroke="#63b8ff" d="M83.23,-69.06C99.91,-74.51 121.51,-81.57 141.31,-88.04"/>
<polygon fill="#63b8ff" stroke="#63b8ff" points="140.05,-91.31 150.64,-91.09 142.22,-84.66 140.05,-91.31"/>
</a>
</g>
</g>
<!-- Node4 -->
<g id="Node000004" class="node">
<title>Node4</title>
<g id="a_Node000004"><a xlink:href="group__elements.html#ga0d8edab6cf6615f57023e24a8ca2ece6" target="_top" xlink:title=" ">
<polygon fill="white" stroke="#666666" points="249.5,-73.5 143.5,-73.5 143.5,-46 249.5,-46 249.5,-73.5"/>
<text xml:space="preserve" text-anchor="start" x="151.5" y="-61.9" font-family="SourceSans" font-size="8.00">svg::polyline_element</text>
<text xml:space="preserve" text-anchor="middle" x="196.5" y="-52.15" font-family="SourceSans" font-size="8.00">::finish_element</text>
</a>
</g>
</g>
<!-- Node1&#45;&gt;Node4 -->
<g id="edge3_Node000001_Node000004" class="edge">
<title>Node1&#45;&gt;Node4</title>
<g id="a_edge3_Node000001_Node000004"><a xlink:title=" ">
<path fill="none" stroke="#63b8ff" d="M107.96,-59.75C115.7,-59.75 123.74,-59.75 131.66,-59.75"/>
<polygon fill="#63b8ff" stroke="#63b8ff" points="131.63,-63.25 141.63,-59.75 131.63,-56.25 131.63,-63.25"/>
</a>
</g>
</g>
<!-- Node5 -->
<g id="Node000005" class="node">
<title>Node5</title>
<g id="a_Node000005"><a xlink:href="group__elements.html#a0e12f93fd27ae5efe9a348ab1db4e799" target="_top" xlink:title=" ">
<polygon fill="white" stroke="#666666" points="249.5,-27.5 143.5,-27.5 143.5,0 249.5,0 249.5,-27.5"/>
<text xml:space="preserve" text-anchor="start" x="151.5" y="-15.9" font-family="SourceSans" font-size="8.00">svg::polyline_element</text>
<text xml:space="preserve" text-anchor="middle" x="196.5" y="-6.15" font-family="SourceSans" font-size="8.00">::start_element</text>
</a>
</g>
</g>
<!-- Node1&#45;&gt;Node5 -->
<g id="edge4_Node000001_Node000005" class="edge">
<title>Node1&#45;&gt;Node5</title>
<g id="a_edge4_Node000001_Node000005"><a xlink:title=" ">
<path fill="none" stroke="#63b8ff" d="M83.23,-50.44C99.91,-44.99 121.51,-37.93 141.31,-31.46"/>
<polygon fill="#63b8ff" stroke="#63b8ff" points="142.22,-34.84 150.64,-28.41 140.05,-28.19 142.22,-34.84"/>
</a>
</g>
</g>
<!-- Node3 -->
<g id="Node000003" class="node">
<title>Node3</title>
<g id="a_Node000003"><a xlink:href="namespacesvg.html#a36b1c48ad4601b205790e3772ad0a7b6" target="_top" xlink:title=" ">
<polygon fill="white" stroke="#666666" points="357,-114.62 285.5,-114.62 285.5,-96.88 357,-96.88 357,-114.62"/>
<text xml:space="preserve" text-anchor="middle" x="321.25" y="-103.03" font-family="SourceSans" font-size="8.00">svg::to_string</text>
</a>
</g>
</g>
<!-- Node2&#45;&gt;Node3 -->
<g id="edge2_Node000002_Node000003" class="edge">
<title>Node2&#45;&gt;Node3</title>
<g id="a_edge2_Node000002_Node000003"><a xlink:title=" ">
<path fill="none" stroke="#63b8ff" d="M246.72,-105.75C255.72,-105.75 265.08,-105.75 273.98,-105.75"/>
<polygon fill="#63b8ff" stroke="#63b8ff" points="273.85,-109.25 283.85,-105.75 273.85,-102.25 273.85,-109.25"/>
</a>
</g>
</g>
</g>
</svg>
