<?xml version="1.0" encoding="UTF-8" standalone="no"?>
<!DOCTYPE svg PUBLIC "-//W3C//DTD SVG 1.1//EN"
 "http://www.w3.org/Graphics/SVG/1.1/DTD/svg11.dtd">
<!-- Generated by graphviz version 13.1.2 (20250808.2320)
 -->
<!-- Title: svg::to_string Pages: 1 -->
<svg width="367pt" height="26pt"
 viewBox="0.00 0.00 367.00 26.00" xmlns="http://www.w3.org/2000/svg" xmlns:xlink="http://www.w3.org/1999/xlink">
<g id="graph0" class="graph" transform="scale(1 1) rotate(0) translate(4 21.75)">
<title>svg::to_string</title>
<!-- Node1 -->
<g id="Node000001" class="node">
<title>Node1</title>
<g id="a_Node000001"><a xlink:title="Convert color_qf to string.">
<polygon fill="#999999" stroke="#666666" points="71.5,-17.75 0,-17.75 0,0 71.5,0 71.5,-17.75"/>
<text xml:space="preserve" text-anchor="middle" x="35.75" y="-6.15" font-family="SourceSans" font-size="8.00">svg::to_string</text>
</a>
</g>
</g>
<!-- Node2 -->
<g id="Node000002" class="node">
<title>Node2</title>
<g id="a_Node000002"><a xlink:href="structsvg_1_1color__qf.html#ab5571f112d7539b2c34e1878ca9ebdc0" target="_top" xlink:title=" ">
<polygon fill="white" stroke="#666666" points="216.5,-17.75 107.5,-17.75 107.5,0 216.5,0 216.5,-17.75"/>
<text xml:space="preserve" text-anchor="middle" x="162" y="-6.15" font-family="SourceSans" font-size="8.00">svg::color_qf::to_string</text>
</a>
</g>
</g>
<!-- Node1&#45;&gt;Node2 -->
<g id="edge1_Node000001_Node000002" class="edge">
<title>Node1&#45;&gt;Node2</title>
<g id="a_edge1_Node000001_Node000002"><a xlink:title=" ">
<path fill="none" stroke="#63b8ff" d="M71.69,-8.88C79.29,-8.88 87.57,-8.88 95.91,-8.88"/>
<polygon fill="#63b8ff" stroke="#63b8ff" points="95.77,-12.38 105.77,-8.88 95.77,-5.38 95.77,-12.38"/>
</a>
</g>
</g>
<!-- Node3 -->
<g id="Node000003" class="node">
<title>Node3</title>
<g id="a_Node000003"><a xlink:href="structsvg_1_1color__qf.html#a71b97e4790d97beccdfa456e0ca826ae" target="_top" xlink:title="Value between 0.0 (black) and 1.0.">
<polygon fill="white" stroke="#666666" points="358.5,-17.75 252.5,-17.75 252.5,0 358.5,0 358.5,-17.75"/>
<text xml:space="preserve" text-anchor="middle" x="305.5" y="-6.15" font-family="SourceSans" font-size="8.00">svg::color_qf::color_qf</text>
</a>
</g>
</g>
<!-- Node2&#45;&gt;Node3 -->
<g id="edge2_Node000002_Node000003" class="edge">
<title>Node2&#45;&gt;Node3</title>
<g id="a_edge2_Node000002_Node000003"><a xlink:title=" ">
<path fill="none" stroke="#63b8ff" d="M216.9,-8.88C224.66,-8.88 232.72,-8.88 240.66,-8.88"/>
<polygon fill="#63b8ff" stroke="#63b8ff" points="240.64,-12.38 250.64,-8.88 240.64,-5.38 240.64,-12.38"/>
</a>
</g>
</g>
</g>
</svg>
