<?xml version="1.0" encoding="UTF-8" standalone="no"?>
<!DOCTYPE svg PUBLIC "-//W3C//DTD SVG 1.1//EN"
 "http://www.w3.org/Graphics/SVG/1.1/DTD/svg11.dtd">
<!-- Generated by graphviz version 12.1.0 (20240811.2233)
 -->
<!-- Title: svg::radiate_id_at_value Pages: 1 -->
<svg width="989pt" height="434pt"
 viewBox="0.00 0.00 988.50 433.62" xmlns="http://www.w3.org/2000/svg" xmlns:xlink="http://www.w3.org/1999/xlink">
<g id="graph0" class="graph" transform="scale(1 1) rotate(0) translate(4 429.62)">
<title>svg::radiate_id_at_value</title>
<!-- Node1 -->
<g id="Node000001" class="node">
<title>Node1</title>
<g id="a_Node000001"><a xlink:title=" ">
<polygon fill="#999999" stroke="#666666" points="88.75,-185.5 0,-185.5 0,-158 88.75,-158 88.75,-185.5"/>
<text text-anchor="start" x="8" y="-173.9" font-family="SourceSans" font-size="8.00">svg::radiate_id_at</text>
<text text-anchor="middle" x="44.38" y="-164.15" font-family="SourceSans" font-size="8.00">_value</text>
</a>
</g>
</g>
<!-- Node2 -->
<g id="Node000002" class="node">
<title>Node2</title>
<g id="a_Node000002"><a xlink:href="namespacesvg.html#a929b5c33bc0c139332dddd5d3b8ea3d0" target="_top" xlink:title="Transform a value on a range to an angle on the radial range.">
<polygon fill="white" stroke="#666666" points="216.5,-237.62 139.75,-237.62 139.75,-219.88 216.5,-219.88 216.5,-237.62"/>
<text text-anchor="middle" x="178.12" y="-226.03" font-family="SourceSans" font-size="8.00">svg::get_angle</text>
</a>
</g>
</g>
<!-- Node1&#45;&gt;Node2 -->
<g id="edge1_Node000001_Node000002" class="edge">
<title>Node1&#45;&gt;Node2</title>
<g id="a_edge1_Node000001_Node000002"><a xlink:title=" ">
<path fill="none" stroke="#63b8ff" d="M72.17,-185.96C87.38,-193.76 106.89,-203.33 124.75,-210.75 128.78,-212.42 133.03,-214.07 137.29,-215.65"/>
<polygon fill="#63b8ff" stroke="#63b8ff" points="135.77,-218.82 146.37,-218.89 138.12,-212.23 135.77,-218.82"/>
</a>
</g>
</g>
<!-- Node5 -->
<g id="Node000005" class="node">
<title>Node5</title>
<g id="a_Node000005"><a xlink:href="namespacesvg.html#a370d930bd06a84735a4eecdd677154e6" target="_top" xlink:title="Get the label space. Value &#45;&gt; Name, as a string where value has labelspaces of fill NB: Should be the...">
<polygon fill="white" stroke="#666666" points="231.5,-201.62 124.75,-201.62 124.75,-183.88 231.5,-183.88 231.5,-201.62"/>
<text text-anchor="middle" x="178.12" y="-190.03" font-family="SourceSans" font-size="8.00">svg::get_label_spaces</text>
</a>
</g>
</g>
<!-- Node1&#45;&gt;Node5 -->
<g id="edge4_Node000001_Node000005" class="edge">
<title>Node1&#45;&gt;Node5</title>
<g id="a_edge4_Node000001_Node000005"><a xlink:title=" ">
<path fill="none" stroke="#63b8ff" d="M89.25,-178.74C96.88,-179.96 104.95,-181.25 113,-182.53"/>
<polygon fill="#63b8ff" stroke="#63b8ff" points="112.37,-185.97 122.8,-184.09 113.47,-179.06 112.37,-185.97"/>
</a>
</g>
</g>
<!-- Node6 -->
<g id="Node000006" class="node">
<title>Node6</title>
<g id="a_Node000006"><a xlink:href="namespacesvg.html#aa89ab2d58bfaf850b84e976828851b9b" target="_top" xlink:title="Make radial labels.">
<polygon fill="white" stroke="#666666" points="226.62,-165.5 129.62,-165.5 129.62,-138 226.62,-138 226.62,-165.5"/>
<text text-anchor="start" x="137.62" y="-153.9" font-family="SourceSans" font-size="8.00">svg::make_label_for</text>
<text text-anchor="middle" x="178.12" y="-144.15" font-family="SourceSans" font-size="8.00">_value</text>
</a>
</g>
</g>
<!-- Node1&#45;&gt;Node6 -->
<g id="edge5_Node000001_Node000006" class="edge">
<title>Node1&#45;&gt;Node6</title>
<g id="a_edge5_Node000001_Node000006"><a xlink:title=" ">
<path fill="none" stroke="#63b8ff" d="M89.25,-165.09C98.5,-163.69 108.41,-162.18 118.12,-160.71"/>
<polygon fill="#63b8ff" stroke="#63b8ff" points="118.51,-164.19 127.87,-159.23 117.46,-157.27 118.51,-164.19"/>
</a>
</g>
</g>
<!-- Node7 -->
<g id="Node000007" class="node">
<title>Node7</title>
<g id="a_Node000007"><a xlink:href="namespacesvg.html#a0a0dce44cf8a75daa516cdf9fade5a85" target="_top" xlink:title=" ">
<polygon fill="white" stroke="#666666" points="220.62,-119.62 135.62,-119.62 135.62,-101.88 220.62,-101.88 220.62,-119.62"/>
<text text-anchor="middle" x="178.12" y="-108.03" font-family="SourceSans" font-size="8.00">svg::radial_text_r</text>
</a>
</g>
</g>
<!-- Node1&#45;&gt;Node7 -->
<g id="edge6_Node000001_Node000007" class="edge">
<title>Node1&#45;&gt;Node7</title>
<g id="a_edge6_Node000001_Node000007"><a xlink:title=" ">
<path fill="none" stroke="#63b8ff" d="M69.17,-157.51C84.67,-148.58 105.52,-137.19 124.75,-128.75 128.54,-127.09 132.53,-125.47 136.56,-123.94"/>
<polygon fill="#63b8ff" stroke="#63b8ff" points="137.53,-127.31 145.74,-120.61 135.14,-120.73 137.53,-127.31"/>
</a>
</g>
</g>
<!-- Node3 -->
<g id="Node000003" class="node">
<title>Node3</title>
<g id="a_Node000003"><a xlink:href="namespacesvg.html#a37b1e7c40b54ff3cdd4e2929cb6b7ba2" target="_top" xlink:title=" ">
<polygon fill="white" stroke="#666666" points="382.5,-276.62 278,-276.62 278,-258.88 382.5,-258.88 382.5,-276.62"/>
<text text-anchor="middle" x="330.25" y="-265.02" font-family="SourceSans" font-size="8.00">svg::get_radial_range</text>
</a>
</g>
</g>
<!-- Node2&#45;&gt;Node3 -->
<g id="edge2_Node000002_Node000003" class="edge">
<title>Node2&#45;&gt;Node3</title>
<g id="a_edge2_Node000002_Node000003"><a xlink:title=" ">
<path fill="none" stroke="#63b8ff" d="M215.08,-238.09C235.25,-243.33 260.64,-249.93 282.35,-255.57"/>
<polygon fill="#63b8ff" stroke="#63b8ff" points="281.3,-258.91 291.86,-258.04 283.06,-252.13 281.3,-258.91"/>
</a>
</g>
</g>
<!-- Node4 -->
<g id="Node000004" class="node">
<title>Node4</title>
<g id="a_Node000004"><a xlink:href="namespacesvg.html#a673cb54838801fae8471436ce43298a9" target="_top" xlink:title="Scale value from min to max on range (nfloor, nceil).">
<polygon fill="white" stroke="#666666" points="381.75,-240.5 278.75,-240.5 278.75,-213 381.75,-213 381.75,-240.5"/>
<text text-anchor="start" x="286.75" y="-228.9" font-family="SourceSans" font-size="8.00">svg::normalize_value</text>
<text text-anchor="middle" x="330.25" y="-219.15" font-family="SourceSans" font-size="8.00">_on_range</text>
</a>
</g>
</g>
<!-- Node2&#45;&gt;Node4 -->
<g id="edge3_Node000002_Node000004" class="edge">
<title>Node2&#45;&gt;Node4</title>
<g id="a_edge3_Node000002_Node000004"><a xlink:title=" ">
<path fill="none" stroke="#63b8ff" d="M216.62,-228.25C231.94,-228.05 250.07,-227.8 267.25,-227.58"/>
<polygon fill="#63b8ff" stroke="#63b8ff" points="266.91,-231.08 276.86,-227.45 266.81,-224.08 266.91,-231.08"/>
</a>
</g>
</g>
<!-- Node8 -->
<g id="Node000008" class="node">
<title>Node8</title>
<g id="a_Node000008"><a xlink:href="namespacesvg.html#ab44508c4aeca591141ebec50145b75cd" target="_top" xlink:title="Angle in degrees.">
<polygon fill="white" stroke="#666666" points="385.88,-47.5 274.62,-47.5 274.62,-20 385.88,-20 385.88,-47.5"/>
<text text-anchor="start" x="282.62" y="-35.9" font-family="SourceSans" font-size="8.00">svg::get_circumference</text>
<text text-anchor="middle" x="330.25" y="-26.15" font-family="SourceSans" font-size="8.00">_point_d</text>
</a>
</g>
</g>
<!-- Node7&#45;&gt;Node8 -->
<g id="edge7_Node000007_Node000008" class="edge">
<title>Node7&#45;&gt;Node8</title>
<g id="a_edge7_Node000007_Node000008"><a xlink:title=" ">
<path fill="none" stroke="#63b8ff" d="M192.44,-101.49C209.35,-90 239.69,-70.27 267.5,-56.75 270.74,-55.17 274.12,-53.64 277.55,-52.16"/>
<polygon fill="#63b8ff" stroke="#63b8ff" points="278.62,-55.5 286.53,-48.46 275.95,-49.03 278.62,-55.5"/>
</a>
</g>
</g>
<!-- Node11 -->
<g id="Node000011" class="node">
<title>Node11</title>
<g id="a_Node000011"><a xlink:href="namespacesvg.html#ae7eab6d9ce1f55bcbcc997cd24c5abcf" target="_top" xlink:title="Text with typography, arranged ccw around points (x,y) on a circle.">
<polygon fill="white" stroke="#666666" points="379.12,-191.62 281.38,-191.62 281.38,-173.88 379.12,-173.88 379.12,-191.62"/>
<text text-anchor="middle" x="330.25" y="-180.03" font-family="SourceSans" font-size="8.00">svg::radial_text_ccw</text>
</a>
</g>
</g>
<!-- Node7&#45;&gt;Node11 -->
<g id="edge10_Node000007_Node000011" class="edge">
<title>Node7&#45;&gt;Node11</title>
<g id="a_edge10_Node000007_Node000011"><a xlink:title=" ">
<path fill="none" stroke="#63b8ff" d="M213.68,-120.12C219.84,-122.48 226.04,-125.34 231.5,-128.75 250.69,-140.74 248.03,-153.22 267.5,-164.75 270.29,-166.4 273.25,-167.91 276.29,-169.29"/>
<polygon fill="#63b8ff" stroke="#63b8ff" points="274.88,-172.5 285.47,-172.93 277.46,-165.99 274.88,-172.5"/>
</a>
</g>
</g>
<!-- Node28 -->
<g id="Node000028" class="node">
<title>Node28</title>
<g id="a_Node000028"><a xlink:href="namespacesvg.html#a27b1041d0851178e4835e1f623a46161" target="_top" xlink:title="Text with typography, arranged cw around points (x,y) on a circle.">
<polygon fill="white" stroke="#666666" points="376.88,-155.62 283.62,-155.62 283.62,-137.88 376.88,-137.88 376.88,-155.62"/>
<text text-anchor="middle" x="330.25" y="-144.03" font-family="SourceSans" font-size="8.00">svg::radial_text_cw</text>
</a>
</g>
</g>
<!-- Node7&#45;&gt;Node28 -->
<g id="edge31_Node000007_Node000028" class="edge">
<title>Node7&#45;&gt;Node28</title>
<g id="a_edge31_Node000007_Node000028"><a xlink:title=" ">
<path fill="none" stroke="#63b8ff" d="M218.18,-120.11C236.86,-124.59 259.43,-130.01 279.34,-134.78"/>
<polygon fill="#63b8ff" stroke="#63b8ff" points="278.38,-138.15 288.92,-137.08 280.01,-131.34 278.38,-138.15"/>
</a>
</g>
</g>
<!-- Node29 -->
<g id="Node000029" class="node">
<title>Node29</title>
<g id="a_Node000029"><a xlink:href="namespacesvg.html#a010fea242a289d173d521b501140cd72" target="_top" xlink:title="Zero degrees is top, going clockwise (cw).">
<polygon fill="white" stroke="#666666" points="393,-119.62 267.5,-119.62 267.5,-101.88 393,-101.88 393,-119.62"/>
<text text-anchor="middle" x="330.25" y="-108.03" font-family="SourceSans" font-size="8.00">svg::zero_angle_north_ccw</text>
</a>
</g>
</g>
<!-- Node7&#45;&gt;Node29 -->
<g id="edge33_Node000007_Node000029" class="edge">
<title>Node7&#45;&gt;Node29</title>
<g id="a_edge33_Node000007_Node000029"><a xlink:title=" ">
<path fill="none" stroke="#63b8ff" d="M220.94,-110.75C231.79,-110.75 243.8,-110.75 255.76,-110.75"/>
<polygon fill="#63b8ff" stroke="#63b8ff" points="255.65,-114.25 265.65,-110.75 255.65,-107.25 255.65,-114.25"/>
</a>
</g>
</g>
<!-- Node30 -->
<g id="Node000030" class="node">
<title>Node30</title>
<g id="a_Node000030"><a xlink:href="namespacesvg.html#a46164d75fd5109e4ed8879abbacd5c11" target="_top" xlink:title="Zero degrees is top, going clockwise (cw).">
<polygon fill="white" stroke="#666666" points="390.75,-83.62 269.75,-83.62 269.75,-65.88 390.75,-65.88 390.75,-83.62"/>
<text text-anchor="middle" x="330.25" y="-72.03" font-family="SourceSans" font-size="8.00">svg::zero_angle_north_cw</text>
</a>
</g>
</g>
<!-- Node7&#45;&gt;Node30 -->
<g id="edge34_Node000007_Node000030" class="edge">
<title>Node7&#45;&gt;Node30</title>
<g id="a_edge34_Node000007_Node000030"><a xlink:title=" ">
<path fill="none" stroke="#63b8ff" d="M218.18,-101.39C236.86,-96.91 259.43,-91.49 279.34,-86.72"/>
<polygon fill="#63b8ff" stroke="#63b8ff" points="280.01,-90.16 288.92,-84.42 278.38,-83.35 280.01,-90.16"/>
</a>
</g>
</g>
<!-- Node9 -->
<g id="Node000009" class="node">
<title>Node9</title>
<g id="a_Node000009"><a xlink:href="namespacesvg.html#aef05ac63d88a6102981d3faf37275297" target="_top" xlink:title="Angle in radians.">
<polygon fill="white" stroke="#666666" points="540.25,-27.5 429,-27.5 429,0 540.25,0 540.25,-27.5"/>
<text text-anchor="start" x="437" y="-15.9" font-family="SourceSans" font-size="8.00">svg::get_circumference</text>
<text text-anchor="middle" x="484.62" y="-6.15" font-family="SourceSans" font-size="8.00">_point_r</text>
</a>
</g>
</g>
<!-- Node8&#45;&gt;Node9 -->
<g id="edge8_Node000008_Node000009" class="edge">
<title>Node8&#45;&gt;Node9</title>
<g id="a_edge8_Node000008_Node000009"><a xlink:title=" ">
<path fill="none" stroke="#63b8ff" d="M386.26,-26.53C396.4,-25.2 407.09,-23.8 417.52,-22.43"/>
<polygon fill="#63b8ff" stroke="#63b8ff" points="417.73,-25.93 427.19,-21.16 416.82,-18.99 417.73,-25.93"/>
</a>
</g>
</g>
<!-- Node10 -->
<g id="Node000010" class="node">
<title>Node10</title>
<g id="a_Node000010"><a xlink:href="namespacesvg_1_1constants.html#a0e0b0d9314bc47324ee39884bf8bb2fd" target="_top" xlink:title=" ">
<polygon fill="white" stroke="#666666" points="529.75,-63.62 439.5,-63.62 439.5,-45.88 529.75,-45.88 529.75,-63.62"/>
<text text-anchor="middle" x="484.62" y="-52.02" font-family="SourceSans" font-size="8.00">svg::constants::pi</text>
</a>
</g>
</g>
<!-- Node8&#45;&gt;Node10 -->
<g id="edge9_Node000008_Node000010" class="edge">
<title>Node8&#45;&gt;Node10</title>
<g id="a_edge9_Node000008_Node000010"><a xlink:title=" ">
<path fill="none" stroke="#63b8ff" d="M386.26,-41.33C399.85,-43.2 414.41,-45.21 428.02,-47.09"/>
<polygon fill="#63b8ff" stroke="#63b8ff" points="427.31,-50.52 437.69,-48.42 428.27,-43.59 427.31,-50.52"/>
</a>
</g>
</g>
<!-- Node12 -->
<g id="Node000012" class="node">
<title>Node12</title>
<g id="a_Node000012"><a xlink:href="namespacesvg.html#a5791c1fc9121f01e5f666b7ce0367dfa" target="_top" xlink:title="Text at @origin, with style and ... a transformation=rotation of @deg about @rorigin.">
<polygon fill="white" stroke="#666666" points="527.88,-173.62 441.38,-173.62 441.38,-155.88 527.88,-155.88 527.88,-173.62"/>
<text text-anchor="middle" x="484.62" y="-162.03" font-family="SourceSans" font-size="8.00">svg::styled_text_r</text>
</a>
</g>
</g>
<!-- Node11&#45;&gt;Node12 -->
<g id="edge11_Node000011_Node000012" class="edge">
<title>Node11&#45;&gt;Node12</title>
<g id="a_edge11_Node000011_Node000012"><a xlink:title=" ">
<path fill="none" stroke="#63b8ff" d="M379.46,-177.05C395.47,-175.16 413.4,-173.05 429.8,-171.11"/>
<polygon fill="#63b8ff" stroke="#63b8ff" points="429.85,-174.63 439.37,-169.98 429.03,-167.67 429.85,-174.63"/>
</a>
</g>
</g>
<!-- Node13 -->
<g id="Node000013" class="node">
<title>Node13</title>
<g id="a_Node000013"><a xlink:href="group__elements.html#aad29e1daf75bdcd69a39575a6807fa0f" target="_top" xlink:title="Either serialize immediately (as below), or create data structure that adds data to data_vec and then...">
<polygon fill="white" stroke="#666666" points="678.5,-329.5 583.75,-329.5 583.75,-302 678.5,-302 678.5,-329.5"/>
<text text-anchor="start" x="591.75" y="-317.9" font-family="SourceSans" font-size="8.00">svg::text_element::</text>
<text text-anchor="middle" x="631.12" y="-308.15" font-family="SourceSans" font-size="8.00">add_data</text>
</a>
</g>
</g>
<!-- Node12&#45;&gt;Node13 -->
<g id="edge12_Node000012_Node000013" class="edge">
<title>Node12&#45;&gt;Node13</title>
<g id="a_edge12_Node000012_Node000013"><a xlink:title=" ">
<path fill="none" stroke="#63b8ff" d="M494.23,-173.74C516.52,-197.04 576.65,-259.87 608.94,-293.61"/>
<polygon fill="#63b8ff" stroke="#63b8ff" points="606.02,-295.62 615.46,-300.43 611.08,-290.78 606.02,-295.62"/>
</a>
</g>
</g>
<!-- Node22 -->
<g id="Node000022" class="node">
<title>Node22</title>
<g id="a_Node000022"><a xlink:href="group__elements.html#aaa5f1a136f2b5c61d647a47ec53fe31d" target="_top" xlink:title=" ">
<polygon fill="white" stroke="#666666" points="686,-224.5 576.25,-224.5 576.25,-197 686,-197 686,-224.5"/>
<text text-anchor="start" x="584.25" y="-212.9" font-family="SourceSans" font-size="8.00">svg::svg_element::add</text>
<text text-anchor="middle" x="631.12" y="-203.15" font-family="SourceSans" font-size="8.00">_element</text>
</a>
</g>
</g>
<!-- Node12&#45;&gt;Node22 -->
<g id="edge25_Node000012_Node000022" class="edge">
<title>Node12&#45;&gt;Node22</title>
<g id="a_edge25_Node000012_Node000022"><a xlink:title=" ">
<path fill="none" stroke="#63b8ff" d="M514.87,-174.06C532.06,-179.53 554.37,-186.63 574.77,-193.13"/>
<polygon fill="#63b8ff" stroke="#63b8ff" points="573.52,-196.4 584.11,-196.1 575.64,-189.73 573.52,-196.4"/>
</a>
</g>
</g>
<!-- Node24 -->
<g id="Node000024" class="node">
<title>Node24</title>
<g id="a_Node000024"><a xlink:href="group__elements.html#ga13c46848317034d16c62a7d2061ba3d6" target="_top" xlink:title=" ">
<polygon fill="white" stroke="#666666" points="678.5,-178.5 583.75,-178.5 583.75,-151 678.5,-151 678.5,-178.5"/>
<text text-anchor="start" x="591.75" y="-166.9" font-family="SourceSans" font-size="8.00">svg::text_element::</text>
<text text-anchor="middle" x="631.12" y="-157.15" font-family="SourceSans" font-size="8.00">finish_element</text>
</a>
</g>
</g>
<!-- Node12&#45;&gt;Node24 -->
<g id="edge27_Node000012_Node000024" class="edge">
<title>Node12&#45;&gt;Node24</title>
<g id="a_edge27_Node000012_Node000024"><a xlink:title=" ">
<path fill="none" stroke="#63b8ff" d="M528.2,-164.75C541.86,-164.75 557.24,-164.75 571.83,-164.75"/>
<polygon fill="#63b8ff" stroke="#63b8ff" points="571.8,-168.25 581.8,-164.75 571.8,-161.25 571.8,-168.25"/>
</a>
</g>
</g>
<!-- Node26 -->
<g id="Node000026" class="node">
<title>Node26</title>
<g id="a_Node000026"><a xlink:href="structsvg_1_1transform.html#acf9836f4ba647f0dd2b53963a0f714d0" target="_top" xlink:title=" ">
<polygon fill="white" stroke="#666666" points="684.12,-132.62 578.12,-132.62 578.12,-114.88 684.12,-114.88 684.12,-132.62"/>
<text text-anchor="middle" x="631.12" y="-121.03" font-family="SourceSans" font-size="8.00">svg::transform::rotate</text>
</a>
</g>
</g>
<!-- Node12&#45;&gt;Node26 -->
<g id="edge29_Node000012_Node000026" class="edge">
<title>Node12&#45;&gt;Node26</title>
<g id="a_edge29_Node000012_Node000026"><a xlink:title=" ">
<path fill="none" stroke="#63b8ff" d="M518.41,-155.45C538.48,-149.75 564.41,-142.4 586.23,-136.2"/>
<polygon fill="#63b8ff" stroke="#63b8ff" points="587.09,-139.6 595.76,-133.5 585.18,-132.86 587.09,-139.6"/>
</a>
</g>
</g>
<!-- Node27 -->
<g id="Node000027" class="node">
<title>Node27</title>
<g id="a_Node000027"><a xlink:href="group__elements.html#ae45bec611a6ec17ea46aab6d680ae042" target="_top" xlink:title=" ">
<polygon fill="white" stroke="#666666" points="678.5,-96.5 583.75,-96.5 583.75,-69 678.5,-69 678.5,-96.5"/>
<text text-anchor="start" x="591.75" y="-84.9" font-family="SourceSans" font-size="8.00">svg::text_element::</text>
<text text-anchor="middle" x="631.12" y="-75.15" font-family="SourceSans" font-size="8.00">start_element</text>
</a>
</g>
</g>
<!-- Node12&#45;&gt;Node27 -->
<g id="edge30_Node000012_Node000027" class="edge">
<title>Node12&#45;&gt;Node27</title>
<g id="a_edge30_Node000012_Node000027"><a xlink:title=" ">
<path fill="none" stroke="#63b8ff" d="M498.4,-155.41C515.56,-143.11 547.27,-121.22 576.25,-105.75 578.76,-104.41 581.37,-103.09 584.02,-101.79"/>
<polygon fill="#63b8ff" stroke="#63b8ff" points="585.4,-105.01 592.99,-97.62 582.44,-98.67 585.4,-105.01"/>
</a>
</g>
</g>
<!-- Node14 -->
<g id="Node000014" class="node">
<title>Node14</title>
<g id="a_Node000014"><a xlink:href="structsvg_1_1typography.html#adbc62f74f1fed3f7c77567250f084f83" target="_top" xlink:title=" ">
<polygon fill="white" stroke="#666666" points="831.38,-352.5 727.62,-352.5 727.62,-325 831.38,-325 831.38,-352.5"/>
<text text-anchor="start" x="735.62" y="-340.9" font-family="SourceSans" font-size="8.00">svg::typography::add</text>
<text text-anchor="middle" x="779.5" y="-331.15" font-family="SourceSans" font-size="8.00">_attribute</text>
</a>
</g>
</g>
<!-- Node13&#45;&gt;Node14 -->
<g id="edge13_Node000013_Node000014" class="edge">
<title>Node13&#45;&gt;Node14</title>
<g id="a_edge13_Node000013_Node000014"><a xlink:title=" ">
<path fill="none" stroke="#63b8ff" d="M678.84,-323.09C690.63,-324.94 703.47,-326.96 715.9,-328.91"/>
<polygon fill="#63b8ff" stroke="#63b8ff" points="715.24,-332.35 725.66,-330.45 716.33,-325.44 715.24,-332.35"/>
</a>
</g>
</g>
<!-- Node17 -->
<g id="Node000017" class="node">
<title>Node17</title>
<g id="a_Node000017"><a xlink:href="namespacesvg.html#a48ac748e89e22789d1772326a98dd7b6" target="_top" xlink:title=" ">
<polygon fill="white" stroke="#666666" points="973.38,-425.62 880.12,-425.62 880.12,-407.88 973.38,-407.88 973.38,-425.62"/>
<text text-anchor="middle" x="926.75" y="-414.02" font-family="SourceSans" font-size="8.00">svg::string_replace</text>
</a>
</g>
</g>
<!-- Node13&#45;&gt;Node17 -->
<g id="edge23_Node000013_Node000017" class="edge">
<title>Node13&#45;&gt;Node17</title>
<g id="a_edge23_Node000013_Node000017"><a xlink:title=" ">
<path fill="none" stroke="#63b8ff" d="M645.92,-329.99C662.41,-346.08 691.63,-371.72 722,-384.75 768.77,-404.82 826.42,-412.46 868.44,-415.3"/>
<polygon fill="#63b8ff" stroke="#63b8ff" points="868.16,-418.79 878.35,-415.89 868.57,-411.8 868.16,-418.79"/>
</a>
</g>
</g>
<!-- Node18 -->
<g id="Node000018" class="node">
<title>Node18</title>
<g id="a_Node000018"><a xlink:href="namespacesvg.html#a36b1c48ad4601b205790e3772ad0a7b6" target="_top" xlink:title=" ">
<polygon fill="white" stroke="#666666" points="962.5,-388.62 891,-388.62 891,-370.88 962.5,-370.88 962.5,-388.62"/>
<text text-anchor="middle" x="926.75" y="-377.02" font-family="SourceSans" font-size="8.00">svg::to_string</text>
</a>
</g>
</g>
<!-- Node13&#45;&gt;Node18 -->
<g id="edge24_Node000013_Node000018" class="edge">
<title>Node13&#45;&gt;Node18</title>
<g id="a_edge24_Node000013_Node000018"><a xlink:title=" ">
<path fill="none" stroke="#63b8ff" d="M653.66,-329.79C671.28,-340.51 697.24,-354.61 722,-361.75 774.44,-376.86 837.35,-380.32 879.26,-380.66"/>
<polygon fill="#63b8ff" stroke="#63b8ff" points="879.24,-384.16 889.25,-380.68 879.26,-377.16 879.24,-384.16"/>
</a>
</g>
</g>
<!-- Node20 -->
<g id="Node000020" class="node">
<title>Node20</title>
<g id="a_Node000020"><a xlink:href="group__elements.html#a1ed006cabdb9c531c2bd8e27ea9e0966" target="_top" xlink:title=" ">
<polygon fill="white" stroke="#666666" points="826.88,-306.5 732.12,-306.5 732.12,-279 826.88,-279 826.88,-306.5"/>
<text text-anchor="start" x="740.12" y="-294.9" font-family="SourceSans" font-size="8.00">svg::text_element::</text>
<text text-anchor="middle" x="779.5" y="-285.15" font-family="SourceSans" font-size="8.00">add_text</text>
</a>
</g>
</g>
<!-- Node13&#45;&gt;Node20 -->
<g id="edge19_Node000013_Node000020" class="edge">
<title>Node13&#45;&gt;Node20</title>
<g id="a_edge19_Node000013_Node000020"><a xlink:title=" ">
<path fill="none" stroke="#63b8ff" d="M678.84,-308.41C692.05,-306.33 706.58,-304.05 720.36,-301.88"/>
<polygon fill="#63b8ff" stroke="#63b8ff" points="720.89,-305.34 730.23,-300.33 719.81,-298.43 720.89,-305.34"/>
</a>
</g>
</g>
<!-- Node21 -->
<g id="Node000021" class="node">
<title>Node21</title>
<g id="a_Node000021"><a xlink:href="group__elements.html#a53d72a7ff728ad1d4d027254530bcf3d" target="_top" xlink:title="Common transforms include rotate(180)">
<polygon fill="white" stroke="#666666" points="829.5,-260.5 729.5,-260.5 729.5,-233 829.5,-233 829.5,-260.5"/>
<text text-anchor="start" x="737.5" y="-248.9" font-family="SourceSans" font-size="8.00">svg::element_base::</text>
<text text-anchor="middle" x="779.5" y="-239.15" font-family="SourceSans" font-size="8.00">add_transform</text>
</a>
</g>
</g>
<!-- Node13&#45;&gt;Node21 -->
<g id="edge20_Node000013_Node000021" class="edge">
<title>Node13&#45;&gt;Node21</title>
<g id="a_edge20_Node000013_Node000021"><a xlink:title=" ">
<path fill="none" stroke="#63b8ff" d="M658.18,-301.66C675.97,-292.23 700.17,-279.76 722,-269.75 725.27,-268.25 728.67,-266.74 732.11,-265.26"/>
<polygon fill="#63b8ff" stroke="#63b8ff" points="733.19,-268.6 741.04,-261.48 730.47,-262.15 733.19,-268.6"/>
</a>
</g>
</g>
<!-- Node15 -->
<g id="Node000015" class="node">
<title>Node15</title>
<g id="a_Node000015"><a xlink:href="namespacesvg_1_1constants.html#a3972655f1dfdc090ec2592d1fb37e87c" target="_top" xlink:title=" ">
<polygon fill="white" stroke="#666666" points="980.12,-259.62 873.38,-259.62 873.38,-241.88 980.12,-241.88 980.12,-259.62"/>
<text text-anchor="middle" x="926.75" y="-248.03" font-family="SourceSans" font-size="8.00">svg::constants::quote</text>
</a>
</g>
</g>
<!-- Node14&#45;&gt;Node15 -->
<g id="edge14_Node000014_Node000015" class="edge">
<title>Node14&#45;&gt;Node15</title>
<g id="a_edge14_Node000014_Node000015"><a xlink:title=" ">
<path fill="none" stroke="#63b8ff" d="M821.78,-324.53C827.1,-321.96 832.32,-319.04 837,-315.75 856.57,-302 853.82,-290.04 873,-275.75 878.41,-271.72 884.58,-268.09 890.75,-264.93"/>
<polygon fill="#63b8ff" stroke="#63b8ff" points="892.09,-268.17 899.62,-260.71 889.08,-261.85 892.09,-268.17"/>
</a>
</g>
</g>
<!-- Node16 -->
<g id="Node000016" class="node">
<title>Node16</title>
<g id="a_Node000016"><a xlink:href="namespacesvg_1_1constants.html#ac460bc8db60d85c3ae1cf8b1a903405e" target="_top" xlink:title="Formatting character constants.">
<polygon fill="white" stroke="#666666" points="980.5,-302.62 873,-302.62 873,-284.88 980.5,-284.88 980.5,-302.62"/>
<text text-anchor="middle" x="926.75" y="-291.02" font-family="SourceSans" font-size="8.00">svg::constants::space</text>
</a>
</g>
</g>
<!-- Node14&#45;&gt;Node16 -->
<g id="edge15_Node000014_Node000016" class="edge">
<title>Node14&#45;&gt;Node16</title>
<g id="a_edge15_Node000014_Node000016"><a xlink:title=" ">
<path fill="none" stroke="#63b8ff" d="M826.46,-324.51C845.18,-318.71 866.65,-312.06 884.82,-306.43"/>
<polygon fill="#63b8ff" stroke="#63b8ff" points="885.69,-309.82 894.21,-303.52 883.62,-303.14 885.69,-309.82"/>
</a>
</g>
</g>
<!-- Node14&#45;&gt;Node17 -->
<g id="edge16_Node000014_Node000017" class="edge">
<title>Node14&#45;&gt;Node17</title>
<g id="a_edge16_Node000014_Node000017"><a xlink:title=" ">
<path fill="none" stroke="#63b8ff" d="M799.96,-352.97C818.18,-365.85 846.5,-384.73 873,-397.75 877.01,-399.72 881.28,-401.6 885.59,-403.35"/>
<polygon fill="#63b8ff" stroke="#63b8ff" points="884.25,-406.58 894.84,-406.89 886.75,-400.04 884.25,-406.58"/>
</a>
</g>
</g>
<!-- Node14&#45;&gt;Node18 -->
<g id="edge17_Node000014_Node000018" class="edge">
<title>Node14&#45;&gt;Node18</title>
<g id="a_edge17_Node000014_Node000018"><a xlink:title=" ">
<path fill="none" stroke="#63b8ff" d="M830.89,-352.97C847.54,-357.67 865.9,-362.86 882.01,-367.4"/>
<polygon fill="#63b8ff" stroke="#63b8ff" points="880.72,-370.67 891.29,-370.02 882.62,-363.94 880.72,-370.67"/>
</a>
</g>
</g>
<!-- Node19 -->
<g id="Node000019" class="node">
<title>Node19</title>
<g id="a_Node000019"><a xlink:href="structsvg_1_1typography.html#a174c1ffb4e56214d71523ffe7e422561" target="_top" xlink:title=" ">
<polygon fill="white" stroke="#666666" points="974.88,-352.5 878.62,-352.5 878.62,-325 974.88,-325 974.88,-352.5"/>
<text text-anchor="start" x="886.62" y="-340.9" font-family="SourceSans" font-size="8.00">svg::typography::to</text>
<text text-anchor="middle" x="926.75" y="-331.15" font-family="SourceSans" font-size="8.00">_string</text>
</a>
</g>
</g>
<!-- Node14&#45;&gt;Node19 -->
<g id="edge18_Node000014_Node000019" class="edge">
<title>Node14&#45;&gt;Node19</title>
<g id="a_edge18_Node000014_Node000019"><a xlink:title=" ">
<path fill="none" stroke="#63b8ff" d="M831.71,-338.75C843.1,-338.75 855.27,-338.75 866.94,-338.75"/>
<polygon fill="#63b8ff" stroke="#63b8ff" points="866.89,-342.25 876.89,-338.75 866.89,-335.25 866.89,-342.25"/>
</a>
</g>
</g>
<!-- Node21&#45;&gt;Node15 -->
<g id="edge21_Node000021_Node000015" class="edge">
<title>Node21&#45;&gt;Node15</title>
<g id="a_edge21_Node000021_Node000015"><a xlink:title=" ">
<path fill="none" stroke="#63b8ff" d="M829.68,-248.1C839.89,-248.39 850.8,-248.69 861.46,-248.98"/>
<polygon fill="#63b8ff" stroke="#63b8ff" points="861.29,-252.48 871.38,-249.25 861.48,-245.48 861.29,-252.48"/>
</a>
</g>
</g>
<!-- Node21&#45;&gt;Node16 -->
<g id="edge22_Node000021_Node000016" class="edge">
<title>Node21&#45;&gt;Node16</title>
<g id="a_edge22_Node000021_Node000016"><a xlink:title=" ">
<path fill="none" stroke="#63b8ff" d="M824.47,-260.98C844.16,-267.35 867.18,-274.8 886.3,-280.99"/>
<polygon fill="#63b8ff" stroke="#63b8ff" points="885.02,-284.25 895.61,-284 887.18,-277.59 885.02,-284.25"/>
</a>
</g>
</g>
<!-- Node23 -->
<g id="Node000023" class="node">
<title>Node23</title>
<g id="a_Node000023"><a xlink:href="group__elements.html#ad893ef9c13a15464c96d8a85c08af30f" target="_top" xlink:title=" ">
<polygon fill="white" stroke="#666666" points="834.75,-214.62 724.25,-214.62 724.25,-196.88 834.75,-196.88 834.75,-214.62"/>
<text text-anchor="middle" x="779.5" y="-203.03" font-family="SourceSans" font-size="8.00">svg::element_base::str</text>
</a>
</g>
</g>
<!-- Node22&#45;&gt;Node23 -->
<g id="edge26_Node000022_Node000023" class="edge">
<title>Node22&#45;&gt;Node23</title>
<g id="a_edge26_Node000022_Node000023"><a xlink:title=" ">
<path fill="none" stroke="#63b8ff" d="M686.21,-208.9C694.82,-208.61 703.81,-208.3 712.65,-208"/>
<polygon fill="#63b8ff" stroke="#63b8ff" points="712.76,-211.5 722.63,-207.66 712.52,-204.5 712.76,-211.5"/>
</a>
</g>
</g>
<!-- Node25 -->
<g id="Node000025" class="node">
<title>Node25</title>
<g id="a_Node000025"><a xlink:href="namespacesvg_1_1constants.html#aa7f04c2ea699a1b1e2e790de5ac33f38" target="_top" xlink:title=" ">
<polygon fill="white" stroke="#666666" points="837,-173.62 722,-173.62 722,-155.88 837,-155.88 837,-173.62"/>
<text text-anchor="middle" x="779.5" y="-162.03" font-family="SourceSans" font-size="8.00">svg::constants::newline</text>
</a>
</g>
</g>
<!-- Node24&#45;&gt;Node25 -->
<g id="edge28_Node000024_Node000025" class="edge">
<title>Node24&#45;&gt;Node25</title>
<g id="a_edge28_Node000024_Node000025"><a xlink:title=" ">
<path fill="none" stroke="#63b8ff" d="M678.84,-164.75C688.86,-164.75 699.64,-164.75 710.28,-164.75"/>
<polygon fill="#63b8ff" stroke="#63b8ff" points="710.21,-168.25 720.21,-164.75 710.21,-161.25 710.21,-168.25"/>
</a>
</g>
</g>
<!-- Node28&#45;&gt;Node12 -->
<g id="edge32_Node000028_Node000012" class="edge">
<title>Node28&#45;&gt;Node12</title>
<g id="a_edge32_Node000028_Node000012"><a xlink:title=" ">
<path fill="none" stroke="#63b8ff" d="M376.97,-152.15C393.65,-154.12 412.67,-156.37 429.98,-158.41"/>
<polygon fill="#63b8ff" stroke="#63b8ff" points="429.22,-161.85 439.56,-159.54 430.04,-154.9 429.22,-161.85"/>
</a>
</g>
</g>
</g>
</svg>
