<?xml version="1.0" encoding="UTF-8" standalone="no"?>
<!DOCTYPE svg PUBLIC "-//W3C//DTD SVG 1.1//EN"
 "http://www.w3.org/Graphics/SVG/1.1/DTD/svg11.dtd">
<!-- Generated by graphviz version 12.1.0 (20240811.2233)
 -->
<!-- Title: svg::get_circumference_point_d Pages: 1 -->
<svg width="267pt" height="72pt"
 viewBox="0.00 0.00 266.50 71.62" xmlns="http://www.w3.org/2000/svg" xmlns:xlink="http://www.w3.org/1999/xlink">
<g id="graph0" class="graph" transform="scale(1 1) rotate(0) translate(4 67.62)">
<title>svg::get_circumference_point_d</title>
<!-- Node1 -->
<g id="Node000001" class="node">
<title>Node1</title>
<g id="a_Node000001"><a xlink:title="Angle in degrees.">
<polygon fill="#999999" stroke="#666666" points="111.25,-42.62 0,-42.62 0,-15.13 111.25,-15.13 111.25,-42.62"/>
<text text-anchor="start" x="8" y="-31.02" font-family="SourceSans" font-size="8.00">svg::get_circumference</text>
<text text-anchor="middle" x="55.62" y="-21.27" font-family="SourceSans" font-size="8.00">_point_d</text>
</a>
</g>
</g>
<!-- Node2 -->
<g id="Node000002" class="node">
<title>Node2</title>
<g id="a_Node000002"><a xlink:href="namespacesvg.html#aef05ac63d88a6102981d3faf37275297" target="_top" xlink:title="Angle in radians.">
<polygon fill="white" stroke="#666666" points="258.5,-63.62 147.25,-63.62 147.25,-36.12 258.5,-36.12 258.5,-63.62"/>
<text text-anchor="start" x="155.25" y="-52.02" font-family="SourceSans" font-size="8.00">svg::get_circumference</text>
<text text-anchor="middle" x="202.88" y="-42.27" font-family="SourceSans" font-size="8.00">_point_r</text>
</a>
</g>
</g>
<!-- Node1&#45;&gt;Node2 -->
<g id="edge1_Node000001_Node000002" class="edge">
<title>Node1&#45;&gt;Node2</title>
<g id="a_edge1_Node000001_Node000002"><a xlink:title=" ">
<path fill="none" stroke="#63b8ff" d="M111.54,-36.81C119.4,-37.95 127.56,-39.13 135.61,-40.29"/>
<polygon fill="#63b8ff" stroke="#63b8ff" points="134.99,-43.74 145.39,-41.71 135.99,-36.81 134.99,-43.74"/>
</a>
</g>
</g>
<!-- Node3 -->
<g id="Node000003" class="node">
<title>Node3</title>
<g id="a_Node000003"><a xlink:href="namespacesvg_1_1constants.html#a0e0b0d9314bc47324ee39884bf8bb2fd" target="_top" xlink:title=" ">
<polygon fill="white" stroke="#666666" points="248,-17.75 157.75,-17.75 157.75,0 248,0 248,-17.75"/>
<text text-anchor="middle" x="202.88" y="-6.15" font-family="SourceSans" font-size="8.00">svg::constants::pi</text>
</a>
</g>
</g>
<!-- Node1&#45;&gt;Node3 -->
<g id="edge2_Node000001_Node000003" class="edge">
<title>Node1&#45;&gt;Node3</title>
<g id="a_edge2_Node000001_Node000003"><a xlink:title=" ">
<path fill="none" stroke="#63b8ff" d="M111.54,-21.31C122.87,-19.75 134.8,-18.11 146.16,-16.55"/>
<polygon fill="#63b8ff" stroke="#63b8ff" points="146.35,-20.05 155.78,-15.22 145.39,-13.12 146.35,-20.05"/>
</a>
</g>
</g>
</g>
</svg>
