<?xml version="1.0" encoding="UTF-8" standalone="no"?>
<!DOCTYPE svg PUBLIC "-//W3C//DTD SVG 1.1//EN"
 "http://www.w3.org/Graphics/SVG/1.1/DTD/svg11.dtd">
<!-- Generated by graphviz version 13.1.2 (20250808.2320)
 -->
<!-- Title: svg::paint_edges_with_char_index Pages: 1 -->
<svg width="525pt" height="328pt"
 viewBox="0.00 0.00 525.00 328.00" xmlns="http://www.w3.org/2000/svg" xmlns:xlink="http://www.w3.org/1999/xlink">
<g id="graph0" class="graph" transform="scale(1 1) rotate(0) translate(4 324)">
<title>svg::paint_edges_with_char_index</title>
<!-- Node1 -->
<g id="Node000001" class="node">
<title>Node1</title>
<g id="a_Node000001"><a xlink:title="Paint the edges of a physical page. Assumes page is square. /.">
<polygon fill="#999999" stroke="#666666" points="100.75,-182 0,-182 0,-150 100.75,-150 100.75,-182"/>
<text xml:space="preserve" text-anchor="start" x="8" y="-170.4" font-family="SourceSans" font-size="8.00">svg::paint_edges_with</text>
<text xml:space="preserve" text-anchor="middle" x="50.38" y="-158.4" font-family="SourceSans" font-size="8.00">_char_index</text>
</a>
</g>
</g>
<!-- Node2 -->
<g id="Node000002" class="node">
<title>Node2</title>
<g id="a_Node000002"><a xlink:href="group__elements.html#ada0333b46b2547c6152f3f5811016a12" target="_top" xlink:title=" ">
<polygon fill="white" stroke="#666666" points="228.12,-276 137.12,-276 137.12,-244 228.12,-244 228.12,-276"/>
<text xml:space="preserve" text-anchor="start" x="145.12" y="-264.4" font-family="SourceSans" font-size="8.00">svg::element_base::</text>
<text xml:space="preserve" text-anchor="middle" x="182.62" y="-252.4" font-family="SourceSans" font-size="8.00">add_element</text>
</a>
</g>
</g>
<!-- Node1&#45;&gt;Node2 -->
<g id="edge1_Node000001_Node000002" class="edge">
<title>Node1&#45;&gt;Node2</title>
<g id="a_edge1_Node000001_Node000002"><a xlink:title=" ">
<path fill="none" stroke="#63b8ff" d="M74.06,-182.37C95.07,-197.54 126.52,-220.23 150,-237.17"/>
<polygon fill="#63b8ff" stroke="#63b8ff" points="147.81,-239.91 157.97,-242.93 151.91,-234.24 147.81,-239.91"/>
</a>
</g>
</g>
<!-- Node4 -->
<g id="Node000004" class="node">
<title>Node4</title>
<g id="a_Node000004"><a xlink:href="namespacesvg.html#a09509ddd1e99609e1e4c06690328d919" target="_top" xlink:title="Create rect_element at origin.">
<polygon fill="white" stroke="#666666" points="218.75,-176 146.5,-176 146.5,-156 218.75,-156 218.75,-176"/>
<text xml:space="preserve" text-anchor="middle" x="182.62" y="-164.4" font-family="SourceSans" font-size="8.00">svg::make_rect</text>
</a>
</g>
</g>
<!-- Node1&#45;&gt;Node4 -->
<g id="edge3_Node000001_Node000004" class="edge">
<title>Node1&#45;&gt;Node4</title>
<g id="a_edge3_Node000001_Node000004"><a xlink:title=" ">
<path fill="none" stroke="#63b8ff" d="M100.99,-166C112.19,-166 124.05,-166 135.12,-166"/>
<polygon fill="#63b8ff" stroke="#63b8ff" points="134.8,-169.5 144.8,-166 134.8,-162.5 134.8,-169.5"/>
</a>
</g>
</g>
<!-- Node14 -->
<g id="Node000014" class="node">
<title>Node14</title>
<g id="a_Node000014"><a xlink:href="structsvg_1_1style.html#a47d5dbf1d4fc430a5248e8925cababcb" target="_top" xlink:title="Convenience function to set all colors at once.">
<polygon fill="white" stroke="#666666" points="228.5,-138 136.75,-138 136.75,-118 228.5,-118 228.5,-138"/>
<text xml:space="preserve" text-anchor="middle" x="182.62" y="-126.4" font-family="SourceSans" font-size="8.00">svg::style::set_colors</text>
</a>
</g>
</g>
<!-- Node1&#45;&gt;Node14 -->
<g id="edge13_Node000001_Node000014" class="edge">
<title>Node1&#45;&gt;Node14</title>
<g id="a_edge13_Node000001_Node000014"><a xlink:title=" ">
<path fill="none" stroke="#63b8ff" d="M100.99,-151.53C112.2,-148.25 124.07,-144.79 135.15,-141.56"/>
<polygon fill="#63b8ff" stroke="#63b8ff" points="135.84,-145 144.46,-138.84 133.88,-138.28 135.84,-145"/>
</a>
</g>
</g>
<!-- Node3 -->
<g id="Node000003" class="node">
<title>Node3</title>
<g id="a_Node000003"><a xlink:href="group__elements.html#ad893ef9c13a15464c96d8a85c08af30f" target="_top" xlink:title=" ">
<polygon fill="white" stroke="#666666" points="365.25,-320 264.5,-320 264.5,-300 365.25,-300 365.25,-320"/>
<text xml:space="preserve" text-anchor="middle" x="314.88" y="-308.4" font-family="SourceSans" font-size="8.00">svg::element_base::str</text>
</a>
</g>
</g>
<!-- Node2&#45;&gt;Node3 -->
<g id="edge2_Node000002_Node000003" class="edge">
<title>Node2&#45;&gt;Node3</title>
<g id="a_edge2_Node000002_Node000003"><a xlink:title=" ">
<path fill="none" stroke="#63b8ff" d="M226.27,-276.37C242.43,-282.57 260.69,-289.58 276.34,-295.59"/>
<polygon fill="#63b8ff" stroke="#63b8ff" points="274.7,-298.71 285.29,-299.03 277.2,-292.17 274.7,-298.71"/>
</a>
</g>
</g>
<!-- Node5 -->
<g id="Node000005" class="node">
<title>Node5</title>
<g id="a_Node000005"><a xlink:href="group__elements.html#a1dd6663d882fb5dd14a47462a77f351b" target="_top" xlink:title="Either serialize immediately (as below), or create data structure that adds data to data_vec and then...">
<polygon fill="white" stroke="#666666" points="358.5,-282 271.25,-282 271.25,-250 358.5,-250 358.5,-282"/>
<text xml:space="preserve" text-anchor="start" x="279.25" y="-270.4" font-family="SourceSans" font-size="8.00">svg::rect_element::</text>
<text xml:space="preserve" text-anchor="middle" x="314.88" y="-258.4" font-family="SourceSans" font-size="8.00">add_data</text>
</a>
</g>
</g>
<!-- Node4&#45;&gt;Node5 -->
<g id="edge4_Node000004_Node000005" class="edge">
<title>Node4&#45;&gt;Node5</title>
<g id="a_edge4_Node000004_Node000005"><a xlink:title=" ">
<path fill="none" stroke="#63b8ff" d="M193.06,-176.44C207.4,-191.9 236.06,-221.2 264.5,-241 265.86,-241.94 267.25,-242.87 268.68,-243.79"/>
<polygon fill="#63b8ff" stroke="#63b8ff" points="266.69,-246.68 277.08,-248.78 270.27,-240.66 266.69,-246.68"/>
</a>
</g>
</g>
<!-- Node7 -->
<g id="Node000007" class="node">
<title>Node7</title>
<g id="a_Node000007"><a xlink:href="group__elements.html#a1b22cfab9437b40c8b877ffe5472ff02" target="_top" xlink:title=" ">
<polygon fill="white" stroke="#666666" points="360.38,-232 269.38,-232 269.38,-200 360.38,-200 360.38,-232"/>
<text xml:space="preserve" text-anchor="start" x="277.38" y="-220.4" font-family="SourceSans" font-size="8.00">svg::element_base::</text>
<text xml:space="preserve" text-anchor="middle" x="314.88" y="-208.4" font-family="SourceSans" font-size="8.00">add_filter</text>
</a>
</g>
</g>
<!-- Node4&#45;&gt;Node7 -->
<g id="edge6_Node000004_Node000007" class="edge">
<title>Node4&#45;&gt;Node7</title>
<g id="a_edge6_Node000004_Node000007"><a xlink:title=" ">
<path fill="none" stroke="#63b8ff" d="M210.93,-176.48C225.32,-182.01 243.49,-188.98 260.54,-195.53"/>
<polygon fill="#63b8ff" stroke="#63b8ff" points="258.96,-198.67 269.55,-198.99 261.47,-192.14 258.96,-198.67"/>
</a>
</g>
</g>
<!-- Node8 -->
<g id="Node000008" class="node">
<title>Node8</title>
<g id="a_Node000008"><a xlink:href="group__elements.html#a238b38ca99a1cf6c2baf80c8e4338d99" target="_top" xlink:title=" ">
<polygon fill="white" stroke="#666666" points="360.38,-182 269.38,-182 269.38,-150 360.38,-150 360.38,-182"/>
<text xml:space="preserve" text-anchor="start" x="277.38" y="-170.4" font-family="SourceSans" font-size="8.00">svg::element_base::</text>
<text xml:space="preserve" text-anchor="middle" x="314.88" y="-158.4" font-family="SourceSans" font-size="8.00">add_style</text>
</a>
</g>
</g>
<!-- Node4&#45;&gt;Node8 -->
<g id="edge7_Node000004_Node000008" class="edge">
<title>Node4&#45;&gt;Node8</title>
<g id="a_edge7_Node000004_Node000008"><a xlink:title=" ">
<path fill="none" stroke="#63b8ff" d="M219.22,-166C231.1,-166 244.65,-166 257.71,-166"/>
<polygon fill="#63b8ff" stroke="#63b8ff" points="257.49,-169.5 267.49,-166 257.49,-162.5 257.49,-169.5"/>
</a>
</g>
</g>
<!-- Node10 -->
<g id="Node000010" class="node">
<title>Node10</title>
<g id="a_Node000010"><a xlink:href="group__elements.html#a53d72a7ff728ad1d4d027254530bcf3d" target="_top" xlink:title=" ">
<polygon fill="white" stroke="#666666" points="360.38,-132 269.38,-132 269.38,-100 360.38,-100 360.38,-132"/>
<text xml:space="preserve" text-anchor="start" x="277.38" y="-120.4" font-family="SourceSans" font-size="8.00">svg::element_base::</text>
<text xml:space="preserve" text-anchor="middle" x="314.88" y="-108.4" font-family="SourceSans" font-size="8.00">add_transform</text>
</a>
</g>
</g>
<!-- Node4&#45;&gt;Node10 -->
<g id="edge9_Node000004_Node000010" class="edge">
<title>Node4&#45;&gt;Node10</title>
<g id="a_edge9_Node000004_Node000010"><a xlink:title=" ">
<path fill="none" stroke="#63b8ff" d="M210.93,-155.52C225.32,-149.99 243.49,-143.02 260.54,-136.47"/>
<polygon fill="#63b8ff" stroke="#63b8ff" points="261.47,-139.86 269.55,-133.01 258.96,-133.33 261.47,-139.86"/>
</a>
</g>
</g>
<!-- Node12 -->
<g id="Node000012" class="node">
<title>Node12</title>
<g id="a_Node000012"><a xlink:href="group__elements.html#gad01750ac554c6bd6871a930c90e17a04" target="_top" xlink:title=" ">
<polygon fill="white" stroke="#666666" points="358.5,-82 271.25,-82 271.25,-50 358.5,-50 358.5,-82"/>
<text xml:space="preserve" text-anchor="start" x="279.25" y="-70.4" font-family="SourceSans" font-size="8.00">svg::rect_element::</text>
<text xml:space="preserve" text-anchor="middle" x="314.88" y="-58.4" font-family="SourceSans" font-size="8.00">finish_element</text>
</a>
</g>
</g>
<!-- Node4&#45;&gt;Node12 -->
<g id="edge11_Node000004_Node000012" class="edge">
<title>Node4&#45;&gt;Node12</title>
<g id="a_edge11_Node000004_Node000012"><a xlink:title=" ">
<path fill="none" stroke="#63b8ff" d="M214.97,-155.63C219.79,-153.24 224.49,-150.38 228.5,-147 251.13,-127.94 242.53,-110.82 264.5,-91 265.26,-90.31 266.05,-89.63 266.86,-88.97"/>
<polygon fill="#63b8ff" stroke="#63b8ff" points="268.73,-91.94 274.86,-83.29 264.68,-86.23 268.73,-91.94"/>
</a>
</g>
</g>
<!-- Node13 -->
<g id="Node000013" class="node">
<title>Node13</title>
<g id="a_Node000013"><a xlink:href="group__elements.html#a1e0ed5e9dfe1244317a87d7e6774348b" target="_top" xlink:title=" ">
<polygon fill="white" stroke="#666666" points="358.5,-32 271.25,-32 271.25,0 358.5,0 358.5,-32"/>
<text xml:space="preserve" text-anchor="start" x="279.25" y="-20.4" font-family="SourceSans" font-size="8.00">svg::rect_element::</text>
<text xml:space="preserve" text-anchor="middle" x="314.88" y="-8.4" font-family="SourceSans" font-size="8.00">start_element</text>
</a>
</g>
</g>
<!-- Node4&#45;&gt;Node13 -->
<g id="edge12_Node000004_Node000013" class="edge">
<title>Node4&#45;&gt;Node13</title>
<g id="a_edge12_Node000004_Node000013"><a xlink:title=" ">
<path fill="none" stroke="#63b8ff" d="M217.09,-155.68C221.31,-153.33 225.27,-150.47 228.5,-147 262.37,-110.56 231.89,-78.58 264.5,-41 264.85,-40.6 265.2,-40.21 265.56,-39.82"/>
<polygon fill="#63b8ff" stroke="#63b8ff" points="267.65,-42.64 272.93,-33.46 263.07,-37.34 267.65,-42.64"/>
</a>
</g>
</g>
<!-- Node6 -->
<g id="Node000006" class="node">
<title>Node6</title>
<g id="a_Node000006"><a xlink:href="namespacesvg.html#a48ac748e89e22789d1772326a98dd7b6" target="_top" xlink:title=" ">
<polygon fill="white" stroke="#666666" points="502.75,-276 415.5,-276 415.5,-256 502.75,-256 502.75,-276"/>
<text xml:space="preserve" text-anchor="middle" x="459.12" y="-264.4" font-family="SourceSans" font-size="8.00">svg::string_replace</text>
</a>
</g>
</g>
<!-- Node5&#45;&gt;Node6 -->
<g id="edge5_Node000005_Node000006" class="edge">
<title>Node5&#45;&gt;Node6</title>
<g id="a_edge5_Node000005_Node000006"><a xlink:title=" ">
<path fill="none" stroke="#63b8ff" d="M358.94,-266C373.15,-266 389.13,-266 404.05,-266"/>
<polygon fill="#63b8ff" stroke="#63b8ff" points="403.69,-269.5 413.69,-266 403.69,-262.5 403.69,-269.5"/>
</a>
</g>
</g>
<!-- Node9 -->
<g id="Node000009" class="node">
<title>Node9</title>
<g id="a_Node000009"><a xlink:href="namespacesvg.html#a36b1c48ad4601b205790e3772ad0a7b6" target="_top" xlink:title=" ">
<polygon fill="white" stroke="#666666" points="492.62,-176 425.62,-176 425.62,-156 492.62,-156 492.62,-176"/>
<text xml:space="preserve" text-anchor="middle" x="459.12" y="-164.4" font-family="SourceSans" font-size="8.00">svg::to_string</text>
</a>
</g>
</g>
<!-- Node8&#45;&gt;Node9 -->
<g id="edge8_Node000008_Node000009" class="edge">
<title>Node8&#45;&gt;Node9</title>
<g id="a_edge8_Node000008_Node000009"><a xlink:title=" ">
<path fill="none" stroke="#63b8ff" d="M360.49,-166C377.57,-166 397.03,-166 414.06,-166"/>
<polygon fill="#63b8ff" stroke="#63b8ff" points="413.89,-169.5 423.89,-166 413.89,-162.5 413.89,-169.5"/>
</a>
</g>
</g>
<!-- Node11 -->
<g id="Node000011" class="node">
<title>Node11</title>
<g id="a_Node000011"><a xlink:href="group__elements.html#ae50258851ebbaf08c7eebc3fbdbf1ac8" target="_top" xlink:title="Common transforms include rotate(180)">
<polygon fill="white" stroke="#666666" points="517,-132 401.25,-132 401.25,-100 517,-100 517,-132"/>
<text xml:space="preserve" text-anchor="start" x="409.25" y="-120.4" font-family="SourceSans" font-size="8.00">svg::element_base::</text>
<text xml:space="preserve" text-anchor="middle" x="459.12" y="-108.4" font-family="SourceSans" font-size="8.00">make_transform_attribute</text>
</a>
</g>
</g>
<!-- Node10&#45;&gt;Node11 -->
<g id="edge10_Node000010_Node000011" class="edge">
<title>Node10&#45;&gt;Node11</title>
<g id="a_edge10_Node000010_Node000011"><a xlink:title=" ">
<path fill="none" stroke="#63b8ff" d="M360.49,-116C369.69,-116 379.57,-116 389.39,-116"/>
<polygon fill="#63b8ff" stroke="#63b8ff" points="389.34,-119.5 399.34,-116 389.34,-112.5 389.34,-119.5"/>
</a>
</g>
</g>
</g>
</svg>
