<?xml version="1.0" encoding="UTF-8" standalone="no"?>
<!DOCTYPE svg PUBLIC "-//W3C//DTD SVG 1.1//EN"
 "http://www.w3.org/Graphics/SVG/1.1/DTD/svg11.dtd">
<!-- Generated by graphviz version 12.2.1 (20241206.2353)
 -->
<!-- Title: svg::next_in_color_band Pages: 1 -->
<svg width="674pt" height="104pt"
 viewBox="0.00 0.00 673.75 104.00" xmlns="http://www.w3.org/2000/svg" xmlns:xlink="http://www.w3.org/1999/xlink">
<g id="graph0" class="graph" transform="scale(1 1) rotate(0) translate(4 100)">
<title>svg::next_in_color_band</title>
<!-- Node1 -->
<g id="Node000001" class="node">
<title>Node1</title>
<g id="a_Node000001"><a xlink:title="Flip through color band colors. @bandn is the number of colors in the colorband.">
<polygon fill="#999999" stroke="#666666" points="107.5,-58 0,-58 0,-38 107.5,-38 107.5,-58"/>
<text text-anchor="middle" x="53.75" y="-46.4" font-family="SourceSans" font-size="8.00">svg::next_in_color_band</text>
</a>
</g>
</g>
<!-- Node2 -->
<g id="Node000002" class="node">
<title>Node2</title>
<g id="a_Node000002"><a xlink:href="namespacesvg.html#a79320da4cd41236a7eb7dd609b282888" target="_top" xlink:title="Forwarding function.">
<polygon fill="white" stroke="#666666" points="243.5,-96 143.5,-96 143.5,-76 243.5,-76 243.5,-96"/>
<text text-anchor="middle" x="193.5" y="-84.4" font-family="SourceSans" font-size="8.00">svg::make_color_band</text>
</a>
</g>
</g>
<!-- Node1&#45;&gt;Node2 -->
<g id="edge1_Node000001_Node000002" class="edge">
<title>Node1&#45;&gt;Node2</title>
<g id="a_edge1_Node000001_Node000002"><a xlink:title=" ">
<path fill="none" stroke="#63b8ff" d="M92.76,-58.48C108.56,-62.85 127.11,-67.96 143.89,-72.59"/>
<polygon fill="#63b8ff" stroke="#63b8ff" points="142.59,-75.86 153.16,-75.15 144.45,-69.11 142.59,-75.86"/>
</a>
</g>
</g>
<!-- Node6 -->
<g id="Node000006" class="node">
<title>Node6</title>
<g id="a_Node000006"><a xlink:href="namespacesvg.html#a80195ef46b7ed340c7a3f2a4b5eb6874" target="_top" xlink:title=" ">
<polygon fill="white" stroke="#666666" points="391.5,-58 279.5,-58 279.5,-38 391.5,-38 391.5,-58"/>
<text text-anchor="middle" x="335.5" y="-46.4" font-family="SourceSans" font-size="8.00">svg::make_color_band_v1</text>
</a>
</g>
</g>
<!-- Node1&#45;&gt;Node6 -->
<g id="edge8_Node000001_Node000006" class="edge">
<title>Node1&#45;&gt;Node6</title>
<g id="a_edge8_Node000001_Node000006"><a xlink:title=" ">
<path fill="none" stroke="#63b8ff" d="M107.7,-48C153.16,-48 218.91,-48 267.93,-48"/>
<polygon fill="#63b8ff" stroke="#63b8ff" points="267.86,-51.5 277.86,-48 267.86,-44.5 267.86,-51.5"/>
</a>
</g>
</g>
<!-- Node8 -->
<g id="Node000008" class="node">
<title>Node8</title>
<g id="a_Node000008"><a xlink:href="namespacesvg.html#a36b1c48ad4601b205790e3772ad0a7b6" target="_top" xlink:title=" ">
<polygon fill="white" stroke="#666666" points="510.62,-20 443.62,-20 443.62,0 510.62,0 510.62,-20"/>
<text text-anchor="middle" x="477.12" y="-8.4" font-family="SourceSans" font-size="8.00">svg::to_string</text>
</a>
</g>
</g>
<!-- Node1&#45;&gt;Node8 -->
<g id="edge9_Node000001_Node000008" class="edge">
<title>Node1&#45;&gt;Node8</title>
<g id="a_edge9_Node000001_Node000008"><a xlink:title=" ">
<path fill="none" stroke="#63b8ff" d="M107.69,-43.23C191.68,-35.65 353.94,-21.02 432.03,-13.98"/>
<polygon fill="#63b8ff" stroke="#63b8ff" points="432.22,-17.47 441.86,-13.09 431.59,-10.5 432.22,-17.47"/>
</a>
</g>
</g>
<!-- Node3 -->
<g id="Node000003" class="node">
<title>Node3</title>
<g id="a_Node000003"><a xlink:href="namespacesvg.html#a86299e1b709e10d8ddbe9fe4e5231dc5" target="_top" xlink:title="Oklab https://bottosson.github.io/posts/oklab/.">
<polygon fill="white" stroke="#666666" points="382.88,-96 288.12,-96 288.12,-76 382.88,-76 382.88,-96"/>
<text text-anchor="middle" x="335.5" y="-84.4" font-family="SourceSans" font-size="8.00">svg::active_spectrum</text>
</a>
</g>
</g>
<!-- Node2&#45;&gt;Node3 -->
<g id="edge2_Node000002_Node000003" class="edge">
<title>Node2&#45;&gt;Node3</title>
<g id="a_edge2_Node000002_Node000003"><a xlink:title=" ">
<path fill="none" stroke="#63b8ff" d="M243.86,-86C254.49,-86 265.82,-86 276.75,-86"/>
<polygon fill="#63b8ff" stroke="#63b8ff" points="276.42,-89.5 286.42,-86 276.42,-82.5 276.42,-89.5"/>
</a>
</g>
</g>
<!-- Node2&#45;&gt;Node6 -->
<g id="edge5_Node000002_Node000006" class="edge">
<title>Node2&#45;&gt;Node6</title>
<g id="a_edge5_Node000002_Node000006"><a xlink:title=" ">
<path fill="none" stroke="#63b8ff" d="M233.13,-75.52C249.19,-71.15 268.04,-66.04 285.1,-61.41"/>
<polygon fill="#63b8ff" stroke="#63b8ff" points="285.81,-64.84 294.54,-58.85 283.97,-58.09 285.81,-64.84"/>
</a>
</g>
</g>
<!-- Node4 -->
<g id="Node000004" class="node">
<title>Node4</title>
<g id="a_Node000004"><a xlink:href="namespacesvg.html#a6ef86da421061b502a4cec162970c4e9" target="_top" xlink:title="Forwarding function.">
<polygon fill="white" stroke="#666666" points="522.62,-96 431.62,-96 431.62,-76 522.62,-76 522.62,-96"/>
<text text-anchor="middle" x="477.12" y="-84.4" font-family="SourceSans" font-size="8.00">svg::color_qf_lt_hue</text>
</a>
</g>
</g>
<!-- Node3&#45;&gt;Node4 -->
<g id="edge3_Node000003_Node000004" class="edge">
<title>Node3&#45;&gt;Node4</title>
<g id="a_edge3_Node000003_Node000004"><a xlink:title=" ">
<path fill="none" stroke="#63b8ff" d="M382.99,-86C394.78,-86 407.56,-86 419.77,-86"/>
<polygon fill="#63b8ff" stroke="#63b8ff" points="419.74,-89.5 429.74,-86 419.74,-82.5 419.74,-89.5"/>
</a>
</g>
</g>
<!-- Node5 -->
<g id="Node000005" class="node">
<title>Node5</title>
<g id="a_Node000005"><a xlink:href="namespacesvg.html#a804d33f9f3d2f0debdcfc4317f5b8487" target="_top" xlink:title=" ">
<polygon fill="white" stroke="#666666" points="665.75,-96 562.75,-96 562.75,-76 665.75,-76 665.75,-96"/>
<text text-anchor="middle" x="614.25" y="-84.4" font-family="SourceSans" font-size="8.00">svg::color_qf_lt_hue_v2</text>
</a>
</g>
</g>
<!-- Node4&#45;&gt;Node5 -->
<g id="edge4_Node000004_Node000005" class="edge">
<title>Node4&#45;&gt;Node5</title>
<g id="a_edge4_Node000004_Node000005"><a xlink:title=" ">
<path fill="none" stroke="#63b8ff" d="M523.12,-86C532.07,-86 541.62,-86 551.03,-86"/>
<polygon fill="#63b8ff" stroke="#63b8ff" points="550.87,-89.5 560.87,-86 550.87,-82.5 550.87,-89.5"/>
</a>
</g>
</g>
<!-- Node7 -->
<g id="Node000007" class="node">
<title>Node7</title>
<g id="a_Node000007"><a xlink:href="namespacesvg.html#abcad3fe27275ca32d7db21d8475f66ae" target="_top" xlink:title=" ">
<polygon fill="white" stroke="#666666" points="526.75,-58 427.5,-58 427.5,-38 526.75,-38 526.75,-58"/>
<text text-anchor="middle" x="477.12" y="-46.4" font-family="SourceSans" font-size="8.00">svg::combine_color_qi</text>
</a>
</g>
</g>
<!-- Node6&#45;&gt;Node7 -->
<g id="edge6_Node000006_Node000007" class="edge">
<title>Node6&#45;&gt;Node7</title>
<g id="a_edge6_Node000006_Node000007"><a xlink:title=" ">
<path fill="none" stroke="#63b8ff" d="M391.68,-48C399.66,-48 407.91,-48 415.98,-48"/>
<polygon fill="#63b8ff" stroke="#63b8ff" points="415.71,-51.5 425.71,-48 415.71,-44.5 415.71,-51.5"/>
</a>
</g>
</g>
<!-- Node6&#45;&gt;Node8 -->
<g id="edge7_Node000006_Node000008" class="edge">
<title>Node6&#45;&gt;Node8</title>
<g id="a_edge7_Node000006_Node000008"><a xlink:title=" ">
<path fill="none" stroke="#63b8ff" d="M375.02,-37.52C392.8,-32.68 414,-26.91 432.38,-21.91"/>
<polygon fill="#63b8ff" stroke="#63b8ff" points="433.21,-25.31 441.94,-19.3 431.38,-18.55 433.21,-25.31"/>
</a>
</g>
</g>
</g>
</svg>
