<?xml version="1.0" encoding="UTF-8" standalone="no"?>
<!DOCTYPE svg PUBLIC "-//W3C//DTD SVG 1.1//EN"
 "http://www.w3.org/Graphics/SVG/1.1/DTD/svg11.dtd">
<!-- Generated by graphviz version 13.1.2 (20250808.2320)
 -->
<!-- Title: svg::make_octahedron_3d Pages: 1 -->
<svg width="510pt" height="190pt"
 viewBox="0.00 0.00 510.00 190.00" xmlns="http://www.w3.org/2000/svg" xmlns:xlink="http://www.w3.org/1999/xlink">
<g id="graph0" class="graph" transform="scale(1 1) rotate(0) translate(4 186)">
<title>svg::make_octahedron_3d</title>
<!-- Node1 -->
<g id="Node000001" class="node">
<title>Node1</title>
<g id="a_Node000001"><a xlink:title="Make octahedron shape (8) in 2D simulated 3D.">
<polygon fill="#999999" stroke="#666666" points="115,-82 0,-82 0,-62 115,-62 115,-82"/>
<text xml:space="preserve" text-anchor="middle" x="57.5" y="-70.4" font-family="SourceSans" font-size="8.00">svg::make_octahedron_3d</text>
</a>
</g>
</g>
<!-- Node2 -->
<g id="Node000002" class="node">
<title>Node2</title>
<g id="a_Node000002"><a xlink:href="namespacesvg.html#a0352c1350268fb7ecd96ea81908417e7" target="_top" xlink:title="Line primitive.">
<polygon fill="white" stroke="#666666" points="237.5,-101 165.25,-101 165.25,-81 237.5,-81 237.5,-101"/>
<text xml:space="preserve" text-anchor="middle" x="201.38" y="-89.4" font-family="SourceSans" font-size="8.00">svg::make_line</text>
</a>
</g>
</g>
<!-- Node1&#45;&gt;Node2 -->
<g id="edge1_Node000001_Node000002" class="edge">
<title>Node1&#45;&gt;Node2</title>
<g id="a_edge1_Node000001_Node000002"><a xlink:title=" ">
<path fill="none" stroke="#63b8ff" d="M115.39,-79.62C128.12,-81.32 141.49,-83.11 153.75,-84.76"/>
<polygon fill="#63b8ff" stroke="#63b8ff" points="153.24,-88.22 163.61,-86.08 154.17,-81.28 153.24,-88.22"/>
</a>
</g>
</g>
<!-- Node9 -->
<g id="Node000009" class="node">
<title>Node9</title>
<g id="a_Node000009"><a xlink:href="group__elements.html#ad893ef9c13a15464c96d8a85c08af30f" target="_top" xlink:title=" ">
<polygon fill="white" stroke="#666666" points="251.75,-63 151,-63 151,-43 251.75,-43 251.75,-63"/>
<text xml:space="preserve" text-anchor="middle" x="201.38" y="-51.4" font-family="SourceSans" font-size="8.00">svg::element_base::str</text>
</a>
</g>
</g>
<!-- Node1&#45;&gt;Node9 -->
<g id="edge8_Node000001_Node000009" class="edge">
<title>Node1&#45;&gt;Node9</title>
<g id="a_edge8_Node000001_Node000009"><a xlink:title=" ">
<path fill="none" stroke="#63b8ff" d="M115.39,-64.38C123.35,-63.31 131.56,-62.22 139.6,-61.14"/>
<polygon fill="#63b8ff" stroke="#63b8ff" points="139.84,-64.64 149.29,-59.84 138.92,-57.7 139.84,-64.64"/>
</a>
</g>
</g>
<!-- Node3 -->
<g id="Node000003" class="node">
<title>Node3</title>
<g id="a_Node000003"><a xlink:href="group__elements.html#a306eac4c5a7ea755ab6375a65489366f" target="_top" xlink:title=" ">
<polygon fill="white" stroke="#666666" points="376.88,-182 289.62,-182 289.62,-150 376.88,-150 376.88,-182"/>
<text xml:space="preserve" text-anchor="start" x="297.62" y="-170.4" font-family="SourceSans" font-size="8.00">svg::line_element::</text>
<text xml:space="preserve" text-anchor="middle" x="333.25" y="-158.4" font-family="SourceSans" font-size="8.00">add_data</text>
</a>
</g>
</g>
<!-- Node2&#45;&gt;Node3 -->
<g id="edge2_Node000002_Node000003" class="edge">
<title>Node2&#45;&gt;Node3</title>
<g id="a_edge2_Node000002_Node000003"><a xlink:title=" ">
<path fill="none" stroke="#63b8ff" d="M219.98,-101.43C237.21,-111.61 264.21,-127.5 287.75,-141 289.59,-142.06 291.48,-143.14 293.4,-144.23"/>
<polygon fill="#63b8ff" stroke="#63b8ff" points="291.26,-147.04 301.69,-148.92 294.71,-140.95 291.26,-147.04"/>
</a>
</g>
</g>
<!-- Node5 -->
<g id="Node000005" class="node">
<title>Node5</title>
<g id="a_Node000005"><a xlink:href="group__elements.html#a238b38ca99a1cf6c2baf80c8e4338d99" target="_top" xlink:title=" ">
<polygon fill="white" stroke="#666666" points="378.75,-132 287.75,-132 287.75,-100 378.75,-100 378.75,-132"/>
<text xml:space="preserve" text-anchor="start" x="295.75" y="-120.4" font-family="SourceSans" font-size="8.00">svg::element_base::</text>
<text xml:space="preserve" text-anchor="middle" x="333.25" y="-108.4" font-family="SourceSans" font-size="8.00">add_style</text>
</a>
</g>
</g>
<!-- Node2&#45;&gt;Node5 -->
<g id="edge4_Node000002_Node000005" class="edge">
<title>Node2&#45;&gt;Node5</title>
<g id="a_edge4_Node000002_Node000005"><a xlink:title=" ">
<path fill="none" stroke="#63b8ff" d="M237.86,-97.83C249.71,-100.11 263.22,-102.71 276.25,-105.22"/>
<polygon fill="#63b8ff" stroke="#63b8ff" points="275.54,-108.65 286.02,-107.1 276.86,-101.77 275.54,-108.65"/>
</a>
</g>
</g>
<!-- Node7 -->
<g id="Node000007" class="node">
<title>Node7</title>
<g id="a_Node000007"><a xlink:href="group__elements.html#ga4769af15793cb308d426abb5fd552df5" target="_top" xlink:title=" ">
<polygon fill="white" stroke="#666666" points="376.88,-82 289.62,-82 289.62,-50 376.88,-50 376.88,-82"/>
<text xml:space="preserve" text-anchor="start" x="297.62" y="-70.4" font-family="SourceSans" font-size="8.00">svg::line_element::</text>
<text xml:space="preserve" text-anchor="middle" x="333.25" y="-58.4" font-family="SourceSans" font-size="8.00">finish_element</text>
</a>
</g>
</g>
<!-- Node2&#45;&gt;Node7 -->
<g id="edge6_Node000002_Node000007" class="edge">
<title>Node2&#45;&gt;Node7</title>
<g id="a_edge6_Node000002_Node000007"><a xlink:title=" ">
<path fill="none" stroke="#63b8ff" d="M237.86,-84.17C250.3,-81.77 264.57,-79.03 278.18,-76.41"/>
<polygon fill="#63b8ff" stroke="#63b8ff" points="278.76,-79.86 287.92,-74.53 277.44,-72.99 278.76,-79.86"/>
</a>
</g>
</g>
<!-- Node8 -->
<g id="Node000008" class="node">
<title>Node8</title>
<g id="a_Node000008"><a xlink:href="group__elements.html#aa6b4ba04be5858b4943235801f034943" target="_top" xlink:title=" ">
<polygon fill="white" stroke="#666666" points="376.88,-32 289.62,-32 289.62,0 376.88,0 376.88,-32"/>
<text xml:space="preserve" text-anchor="start" x="297.62" y="-20.4" font-family="SourceSans" font-size="8.00">svg::line_element::</text>
<text xml:space="preserve" text-anchor="middle" x="333.25" y="-8.4" font-family="SourceSans" font-size="8.00">start_element</text>
</a>
</g>
</g>
<!-- Node2&#45;&gt;Node8 -->
<g id="edge7_Node000002_Node000008" class="edge">
<title>Node2&#45;&gt;Node8</title>
<g id="a_edge7_Node000002_Node000008"><a xlink:title=" ">
<path fill="none" stroke="#63b8ff" d="M234.22,-80.61C240.22,-78.13 246.31,-75.25 251.75,-72 269.87,-61.16 270.46,-53.12 287.75,-41 288.93,-40.17 290.15,-39.34 291.38,-38.53"/>
<polygon fill="#63b8ff" stroke="#63b8ff" points="293.21,-41.51 299.84,-33.24 289.5,-35.57 293.21,-41.51"/>
</a>
</g>
</g>
<!-- Node4 -->
<g id="Node000004" class="node">
<title>Node4</title>
<g id="a_Node000004"><a xlink:href="namespacesvg.html#a48ac748e89e22789d1772326a98dd7b6" target="_top" xlink:title=" ">
<polygon fill="white" stroke="#666666" points="502,-176 414.75,-176 414.75,-156 502,-156 502,-176"/>
<text xml:space="preserve" text-anchor="middle" x="458.38" y="-164.4" font-family="SourceSans" font-size="8.00">svg::string_replace</text>
</a>
</g>
</g>
<!-- Node3&#45;&gt;Node4 -->
<g id="edge3_Node000003_Node000004" class="edge">
<title>Node3&#45;&gt;Node4</title>
<g id="a_edge3_Node000003_Node000004"><a xlink:title=" ">
<path fill="none" stroke="#63b8ff" d="M377.31,-166C385.7,-166 394.6,-166 403.29,-166"/>
<polygon fill="#63b8ff" stroke="#63b8ff" points="403.03,-169.5 413.03,-166 403.03,-162.5 403.03,-169.5"/>
</a>
</g>
</g>
<!-- Node6 -->
<g id="Node000006" class="node">
<title>Node6</title>
<g id="a_Node000006"><a xlink:href="namespacesvg.html#a36b1c48ad4601b205790e3772ad0a7b6" target="_top" xlink:title=" ">
<polygon fill="white" stroke="#666666" points="491.88,-126 424.88,-126 424.88,-106 491.88,-106 491.88,-126"/>
<text xml:space="preserve" text-anchor="middle" x="458.38" y="-114.4" font-family="SourceSans" font-size="8.00">svg::to_string</text>
</a>
</g>
</g>
<!-- Node5&#45;&gt;Node6 -->
<g id="edge5_Node000005_Node000006" class="edge">
<title>Node5&#45;&gt;Node6</title>
<g id="a_edge5_Node000005_Node000006"><a xlink:title=" ">
<path fill="none" stroke="#63b8ff" d="M379.05,-116C390.17,-116 402.09,-116 413.19,-116"/>
<polygon fill="#63b8ff" stroke="#63b8ff" points="412.87,-119.5 422.87,-116 412.87,-112.5 412.87,-119.5"/>
</a>
</g>
</g>
</g>
</svg>
