<?xml version="1.0" encoding="UTF-8" standalone="no"?>
<!DOCTYPE svg PUBLIC "-//W3C//DTD SVG 1.1//EN"
 "http://www.w3.org/Graphics/SVG/1.1/DTD/svg11.dtd">
<!-- Generated by graphviz version 9.0.0 (20230911.1827)
 -->
<!-- Title: svg::text_line_n_r Pages: 1 -->
<svg width="356pt" height="66pt"
 viewBox="0.00 0.00 356.00 66.00" xmlns="http://www.w3.org/2000/svg" xmlns:xlink="http://www.w3.org/1999/xlink">
<g id="graph0" class="graph" transform="scale(1 1) rotate(0) translate(4 62)">
<title>svg::text_line_n_r</title>
<!-- Node1 -->
<g id="Node000001" class="node">
<title>Node1</title>
<g id="a_Node000001"><a xlink:title="Text of maxlen length rotated, overflow goes on line below.">
<polygon fill="#999999" stroke="#666666" points="82,-39 0,-39 0,-19 82,-19 82,-39"/>
<text text-anchor="middle" x="41" y="-27.4" font-family="SourceSans" font-size="8.00">svg::text_line_n_r</text>
</a>
</g>
</g>
<!-- Node2 -->
<g id="Node000002" class="node">
<title>Node2</title>
<g id="a_Node000002"><a xlink:href="namespacesvg.html#a4399801aa964203bcab6e6ab2e7b4200" target="_top" xlink:title="Text at size, with a transformation=rotation.">
<polygon fill="white" stroke="#666666" points="205.25,-58 127,-58 127,-38 205.25,-38 205.25,-58"/>
<text text-anchor="middle" x="166.12" y="-46.4" font-family="SourceSans" font-size="8.00">svg::sized_text_r</text>
</a>
</g>
</g>
<!-- Node1&#45;&gt;Node2 -->
<g id="edge1_Node000001_Node000002" class="edge">
<title>Node1&#45;&gt;Node2</title>
<g id="a_edge1_Node000001_Node000002"><a xlink:title=" ">
<path fill="none" stroke="#63b8ff" d="M82.32,-35.22C92.93,-36.86 104.51,-38.65 115.56,-40.35"/>
<polygon fill="#63b8ff" stroke="#63b8ff" points="114.9,-43.79 125.31,-41.86 115.97,-36.87 114.9,-43.79"/>
</a>
</g>
</g>
<!-- Node4 -->
<g id="Node000004" class="node">
<title>Node4</title>
<g id="a_Node000004"><a xlink:href="namespacesvg_1_1constants.html#ac460bc8db60d85c3ae1cf8b1a903405e" target="_top" xlink:title="Formatting character constants.">
<polygon fill="white" stroke="#666666" points="214.25,-20 118,-20 118,0 214.25,0 214.25,-20"/>
<text text-anchor="middle" x="166.12" y="-8.4" font-family="SourceSans" font-size="8.00">svg::constants::space</text>
</a>
</g>
</g>
<!-- Node1&#45;&gt;Node4 -->
<g id="edge3_Node000001_Node000004" class="edge">
<title>Node1&#45;&gt;Node4</title>
<g id="a_edge3_Node000001_Node000004"><a xlink:title=" ">
<path fill="none" stroke="#63b8ff" d="M82.32,-22.78C90.13,-21.57 98.46,-20.29 106.71,-19.01"/>
<polygon fill="#63b8ff" stroke="#63b8ff" points="107.02,-22.51 116.37,-17.52 105.96,-15.59 107.02,-22.51"/>
</a>
</g>
</g>
<!-- Node3 -->
<g id="Node000003" class="node">
<title>Node3</title>
<g id="a_Node000003"><a xlink:href="structsvg_1_1transform.html#acf9836f4ba647f0dd2b53963a0f714d0" target="_top" xlink:title=" ">
<polygon fill="white" stroke="#666666" points="348,-58 250.25,-58 250.25,-38 348,-38 348,-58"/>
<text text-anchor="middle" x="299.12" y="-46.4" font-family="SourceSans" font-size="8.00">svg::transform::rotate</text>
</a>
</g>
</g>
<!-- Node2&#45;&gt;Node3 -->
<g id="edge2_Node000002_Node000003" class="edge">
<title>Node2&#45;&gt;Node3</title>
<g id="a_edge2_Node000002_Node000003"><a xlink:title=" ">
<path fill="none" stroke="#63b8ff" d="M205.72,-48C216.03,-48 227.41,-48 238.56,-48"/>
<polygon fill="#63b8ff" stroke="#63b8ff" points="238.53,-51.5 248.53,-48 238.53,-44.5 238.53,-51.5"/>
</a>
</g>
</g>
</g>
</svg>
