<?xml version="1.0" encoding="UTF-8" standalone="no"?>
<!DOCTYPE svg PUBLIC "-//W3C//DTD SVG 1.1//EN"
 "http://www.w3.org/Graphics/SVG/1.1/DTD/svg11.dtd">
<!-- Generated by graphviz version 12.1.0 (20240811.2233)
 -->
<!-- Title: svg::point_2d_to_ray Pages: 1 -->
<svg width="379pt" height="240pt"
 viewBox="0.00 0.00 378.50 240.00" xmlns="http://www.w3.org/2000/svg" xmlns:xlink="http://www.w3.org/1999/xlink">
<g id="graph0" class="graph" transform="scale(1 1) rotate(0) translate(4 236)">
<title>svg::point_2d_to_ray</title>
<!-- Node1 -->
<g id="Node000001" class="node">
<title>Node1</title>
<g id="a_Node000001"><a xlink:title="Lines radiating from center point (x,y).">
<polygon fill="#999999" stroke="#666666" points="93.25,-126 0,-126 0,-106 93.25,-106 93.25,-126"/>
<text text-anchor="middle" x="46.62" y="-114.4" font-family="SourceSans" font-size="8.00">svg::point_2d_to_ray</text>
</a>
</g>
</g>
<!-- Node2 -->
<g id="Node000002" class="node">
<title>Node2</title>
<g id="a_Node000002"><a xlink:href="group__elements.html#a306eac4c5a7ea755ab6375a65489366f" target="_top" xlink:title=" ">
<polygon fill="white" stroke="#666666" points="223.25,-232 136,-232 136,-200 223.25,-200 223.25,-232"/>
<text text-anchor="start" x="144" y="-220.4" font-family="SourceSans" font-size="8.00">svg::line_element::</text>
<text text-anchor="middle" x="179.62" y="-208.4" font-family="SourceSans" font-size="8.00">add_data</text>
</a>
</g>
</g>
<!-- Node1&#45;&gt;Node2 -->
<g id="edge1_Node000001_Node000002" class="edge">
<title>Node1&#45;&gt;Node2</title>
<g id="a_edge1_Node000001_Node000002"><a xlink:title=" ">
<path fill="none" stroke="#63b8ff" d="M57.17,-126.43C71.67,-141.88 100.62,-171.16 129.25,-191 130.61,-191.94 132.01,-192.87 133.43,-193.78"/>
<polygon fill="#63b8ff" stroke="#63b8ff" points="131.45,-196.67 141.84,-198.76 135.02,-190.65 131.45,-196.67"/>
</a>
</g>
</g>
<!-- Node4 -->
<g id="Node000004" class="node">
<title>Node4</title>
<g id="a_Node000004"><a xlink:href="group__elements.html#aaa5f1a136f2b5c61d647a47ec53fe31d" target="_top" xlink:title=" ">
<polygon fill="white" stroke="#666666" points="230,-182 129.25,-182 129.25,-150 230,-150 230,-182"/>
<text text-anchor="start" x="137.25" y="-170.4" font-family="SourceSans" font-size="8.00">svg::svg_element::add</text>
<text text-anchor="middle" x="179.62" y="-158.4" font-family="SourceSans" font-size="8.00">_element</text>
</a>
</g>
</g>
<!-- Node1&#45;&gt;Node4 -->
<g id="edge3_Node000001_Node000004" class="edge">
<title>Node1&#45;&gt;Node4</title>
<g id="a_edge3_Node000001_Node000004"><a xlink:title=" ">
<path fill="none" stroke="#63b8ff" d="M75.09,-126.48C89.56,-132.01 107.83,-138.98 124.98,-145.53"/>
<polygon fill="#63b8ff" stroke="#63b8ff" points="123.47,-148.69 134.06,-148.99 125.96,-142.15 123.47,-148.69"/>
</a>
</g>
</g>
<!-- Node6 -->
<g id="Node000006" class="node">
<title>Node6</title>
<g id="a_Node000006"><a xlink:href="group__elements.html#a238b38ca99a1cf6c2baf80c8e4338d99" target="_top" xlink:title=" ">
<polygon fill="white" stroke="#666666" points="225.12,-132 134.12,-132 134.12,-100 225.12,-100 225.12,-132"/>
<text text-anchor="start" x="142.12" y="-120.4" font-family="SourceSans" font-size="8.00">svg::element_base::</text>
<text text-anchor="middle" x="179.62" y="-108.4" font-family="SourceSans" font-size="8.00">add_style</text>
</a>
</g>
</g>
<!-- Node1&#45;&gt;Node6 -->
<g id="edge5_Node000001_Node000006" class="edge">
<title>Node1&#45;&gt;Node6</title>
<g id="a_edge5_Node000001_Node000006"><a xlink:title=" ">
<path fill="none" stroke="#63b8ff" d="M93.44,-116C102.88,-116 112.92,-116 122.67,-116"/>
<polygon fill="#63b8ff" stroke="#63b8ff" points="122.42,-119.5 132.42,-116 122.42,-112.5 122.42,-119.5"/>
</a>
</g>
</g>
<!-- Node8 -->
<g id="Node000008" class="node">
<title>Node8</title>
<g id="a_Node000008"><a xlink:href="group__elements.html#ga4769af15793cb308d426abb5fd552df5" target="_top" xlink:title=" ">
<polygon fill="white" stroke="#666666" points="223.25,-82 136,-82 136,-50 223.25,-50 223.25,-82"/>
<text text-anchor="start" x="144" y="-70.4" font-family="SourceSans" font-size="8.00">svg::line_element::</text>
<text text-anchor="middle" x="179.62" y="-58.4" font-family="SourceSans" font-size="8.00">finish_element</text>
</a>
</g>
</g>
<!-- Node1&#45;&gt;Node8 -->
<g id="edge7_Node000001_Node000008" class="edge">
<title>Node1&#45;&gt;Node8</title>
<g id="a_edge7_Node000001_Node000008"><a xlink:title=" ">
<path fill="none" stroke="#63b8ff" d="M75.09,-105.52C89.63,-99.97 107.99,-92.96 125.2,-86.39"/>
<polygon fill="#63b8ff" stroke="#63b8ff" points="126.22,-89.75 134.31,-82.91 123.72,-83.21 126.22,-89.75"/>
</a>
</g>
</g>
<!-- Node10 -->
<g id="Node000010" class="node">
<title>Node10</title>
<g id="a_Node000010"><a xlink:href="group__elements.html#aa6b4ba04be5858b4943235801f034943" target="_top" xlink:title=" ">
<polygon fill="white" stroke="#666666" points="223.25,-32 136,-32 136,0 223.25,0 223.25,-32"/>
<text text-anchor="start" x="144" y="-20.4" font-family="SourceSans" font-size="8.00">svg::line_element::</text>
<text text-anchor="middle" x="179.62" y="-8.4" font-family="SourceSans" font-size="8.00">start_element</text>
</a>
</g>
</g>
<!-- Node1&#45;&gt;Node10 -->
<g id="edge9_Node000001_Node000010" class="edge">
<title>Node1&#45;&gt;Node10</title>
<g id="a_edge9_Node000001_Node000010"><a xlink:title=" ">
<path fill="none" stroke="#63b8ff" d="M57.17,-105.57C71.67,-90.12 100.62,-60.84 129.25,-41 130.61,-40.06 132.01,-39.13 133.43,-38.22"/>
<polygon fill="#63b8ff" stroke="#63b8ff" points="135.02,-41.35 141.84,-33.24 131.45,-35.33 135.02,-41.35"/>
</a>
</g>
</g>
<!-- Node3 -->
<g id="Node000003" class="node">
<title>Node3</title>
<g id="a_Node000003"><a xlink:href="namespacesvg.html#a48ac748e89e22789d1772326a98dd7b6" target="_top" xlink:title=" ">
<polygon fill="white" stroke="#666666" points="361.88,-226 274.62,-226 274.62,-206 361.88,-206 361.88,-226"/>
<text text-anchor="middle" x="318.25" y="-214.4" font-family="SourceSans" font-size="8.00">svg::string_replace</text>
</a>
</g>
</g>
<!-- Node2&#45;&gt;Node3 -->
<g id="edge2_Node000002_Node000003" class="edge">
<title>Node2&#45;&gt;Node3</title>
<g id="a_edge2_Node000002_Node000003"><a xlink:title=" ">
<path fill="none" stroke="#63b8ff" d="M223.48,-216C236.07,-216 250,-216 263.2,-216"/>
<polygon fill="#63b8ff" stroke="#63b8ff" points="263.03,-219.5 273.03,-216 263.03,-212.5 263.03,-219.5"/>
</a>
</g>
</g>
<!-- Node5 -->
<g id="Node000005" class="node">
<title>Node5</title>
<g id="a_Node000005"><a xlink:href="group__elements.html#ad893ef9c13a15464c96d8a85c08af30f" target="_top" xlink:title=" ">
<polygon fill="white" stroke="#666666" points="368.62,-176 267.88,-176 267.88,-156 368.62,-156 368.62,-176"/>
<text text-anchor="middle" x="318.25" y="-164.4" font-family="SourceSans" font-size="8.00">svg::element_base::str</text>
</a>
</g>
</g>
<!-- Node4&#45;&gt;Node5 -->
<g id="edge4_Node000004_Node000005" class="edge">
<title>Node4&#45;&gt;Node5</title>
<g id="a_edge4_Node000004_Node000005"><a xlink:title=" ">
<path fill="none" stroke="#63b8ff" d="M230.34,-166C238.82,-166 247.73,-166 256.46,-166"/>
<polygon fill="#63b8ff" stroke="#63b8ff" points="256.29,-169.5 266.29,-166 256.29,-162.5 256.29,-169.5"/>
</a>
</g>
</g>
<!-- Node7 -->
<g id="Node000007" class="node">
<title>Node7</title>
<g id="a_Node000007"><a xlink:href="namespacesvg.html#a36b1c48ad4601b205790e3772ad0a7b6" target="_top" xlink:title=" ">
<polygon fill="white" stroke="#666666" points="351.75,-126 284.75,-126 284.75,-106 351.75,-106 351.75,-126"/>
<text text-anchor="middle" x="318.25" y="-114.4" font-family="SourceSans" font-size="8.00">svg::to_string</text>
</a>
</g>
</g>
<!-- Node6&#45;&gt;Node7 -->
<g id="edge6_Node000006_Node000007" class="edge">
<title>Node6&#45;&gt;Node7</title>
<g id="a_edge6_Node000006_Node000007"><a xlink:title=" ">
<path fill="none" stroke="#63b8ff" d="M225.36,-116C240.74,-116 257.94,-116 273.26,-116"/>
<polygon fill="#63b8ff" stroke="#63b8ff" points="273.03,-119.5 283.03,-116 273.03,-112.5 273.03,-119.5"/>
</a>
</g>
</g>
<!-- Node9 -->
<g id="Node000009" class="node">
<title>Node9</title>
<g id="a_Node000009"><a xlink:href="namespacesvg_1_1constants.html#aa7f04c2ea699a1b1e2e790de5ac33f38" target="_top" xlink:title=" ">
<polygon fill="white" stroke="#666666" points="370.5,-76 266,-76 266,-56 370.5,-56 370.5,-76"/>
<text text-anchor="middle" x="318.25" y="-64.4" font-family="SourceSans" font-size="8.00">svg::constants::newline</text>
</a>
</g>
</g>
<!-- Node8&#45;&gt;Node9 -->
<g id="edge8_Node000008_Node000009" class="edge">
<title>Node8&#45;&gt;Node9</title>
<g id="a_edge8_Node000008_Node000009"><a xlink:title=" ">
<path fill="none" stroke="#63b8ff" d="M223.48,-66C233.36,-66 244.08,-66 254.61,-66"/>
<polygon fill="#63b8ff" stroke="#63b8ff" points="254.41,-69.5 264.41,-66 254.41,-62.5 254.41,-69.5"/>
</a>
</g>
</g>
</g>
</svg>
