<?xml version="1.0" encoding="UTF-8" standalone="no"?>
<!DOCTYPE svg PUBLIC "-//W3C//DTD SVG 1.1//EN"
 "http://www.w3.org/Graphics/SVG/1.1/DTD/svg11.dtd">
<!-- Generated by graphviz version 13.1.2 (20250808.2320)
 -->
<!-- Title: svg::styled_text_r Pages: 1 -->
<svg width="761pt" height="222pt"
 viewBox="0.00 0.00 761.00 222.00" xmlns="http://www.w3.org/2000/svg" xmlns:xlink="http://www.w3.org/1999/xlink">
<g id="graph0" class="graph" transform="scale(1 1) rotate(0) translate(4 218)">
<title>svg::styled_text_r</title>
<!-- Node1 -->
<g id="Node000001" class="node">
<title>Node1</title>
<g id="a_Node000001"><a xlink:title="Text at.">
<polygon fill="#999999" stroke="#666666" points="81.25,-133 0,-133 0,-113 81.25,-113 81.25,-133"/>
<text xml:space="preserve" text-anchor="middle" x="40.62" y="-121.4" font-family="SourceSans" font-size="8.00">svg::styled_text_r</text>
</a>
</g>
</g>
<!-- Node2 -->
<g id="Node000002" class="node">
<title>Node2</title>
<g id="a_Node000002"><a xlink:href="group__elements.html#ada0333b46b2547c6152f3f5811016a12" target="_top" xlink:title=" ">
<polygon fill="white" stroke="#666666" points="208.25,-161 117.25,-161 117.25,-129 208.25,-129 208.25,-161"/>
<text xml:space="preserve" text-anchor="start" x="125.25" y="-149.4" font-family="SourceSans" font-size="8.00">svg::element_base::</text>
<text xml:space="preserve" text-anchor="middle" x="162.75" y="-137.4" font-family="SourceSans" font-size="8.00">add_element</text>
</a>
</g>
</g>
<!-- Node1&#45;&gt;Node2 -->
<g id="edge1_Node000001_Node000002" class="edge">
<title>Node1&#45;&gt;Node2</title>
<g id="a_edge1_Node000001_Node000002"><a xlink:title=" ">
<path fill="none" stroke="#63b8ff" d="M81.62,-130.33C89.41,-131.75 97.71,-133.27 105.9,-134.77"/>
<polygon fill="#63b8ff" stroke="#63b8ff" points="105,-138.16 115.46,-136.52 106.26,-131.28 105,-138.16"/>
</a>
</g>
</g>
<!-- Node4 -->
<g id="Node000004" class="node">
<title>Node4</title>
<g id="a_Node000004"><a xlink:href="namespacesvg.html#a43b88f0c7e911161e757ccc5a5ccd607" target="_top" xlink:title="Text element at.">
<polygon fill="white" stroke="#666666" points="200.75,-111 124.75,-111 124.75,-91 200.75,-91 200.75,-111"/>
<text xml:space="preserve" text-anchor="middle" x="162.75" y="-99.4" font-family="SourceSans" font-size="8.00">svg::style_text_r</text>
</a>
</g>
</g>
<!-- Node1&#45;&gt;Node4 -->
<g id="edge3_Node000001_Node000004" class="edge">
<title>Node1&#45;&gt;Node4</title>
<g id="a_edge3_Node000001_Node000004"><a xlink:title=" ">
<path fill="none" stroke="#63b8ff" d="M81.62,-115.67C91.75,-113.82 102.73,-111.81 113.23,-109.89"/>
<polygon fill="#63b8ff" stroke="#63b8ff" points="113.67,-113.36 122.87,-108.12 112.41,-106.48 113.67,-113.36"/>
</a>
</g>
</g>
<!-- Node3 -->
<g id="Node000003" class="node">
<title>Node3</title>
<g id="a_Node000003"><a xlink:href="group__elements.html#ad893ef9c13a15464c96d8a85c08af30f" target="_top" xlink:title=" ">
<polygon fill="white" stroke="#666666" points="345,-155 244.25,-155 244.25,-135 345,-135 345,-155"/>
<text xml:space="preserve" text-anchor="middle" x="294.62" y="-143.4" font-family="SourceSans" font-size="8.00">svg::element_base::str</text>
</a>
</g>
</g>
<!-- Node2&#45;&gt;Node3 -->
<g id="edge2_Node000002_Node000003" class="edge">
<title>Node2&#45;&gt;Node3</title>
<g id="a_edge2_Node000002_Node000003"><a xlink:title=" ">
<path fill="none" stroke="#63b8ff" d="M208.45,-145C216.23,-145 224.44,-145 232.57,-145"/>
<polygon fill="#63b8ff" stroke="#63b8ff" points="232.44,-148.5 242.44,-145 232.44,-141.5 232.44,-148.5"/>
</a>
</g>
</g>
<!-- Node5 -->
<g id="Node000005" class="node">
<title>Node5</title>
<g id="a_Node000005"><a xlink:href="structsvg_1_1transform.html#acf9836f4ba647f0dd2b53963a0f714d0" target="_top" xlink:title=" ">
<polygon fill="white" stroke="#666666" points="343.5,-114 245.75,-114 245.75,-94 343.5,-94 343.5,-114"/>
<text xml:space="preserve" text-anchor="middle" x="294.62" y="-102.4" font-family="SourceSans" font-size="8.00">svg::transform::rotate</text>
</a>
</g>
</g>
<!-- Node4&#45;&gt;Node5 -->
<g id="edge4_Node000004_Node000005" class="edge">
<title>Node4&#45;&gt;Node5</title>
<g id="a_edge4_Node000004_Node000005"><a xlink:title=" ">
<path fill="none" stroke="#63b8ff" d="M200.97,-101.86C211.42,-102.1 223.06,-102.37 234.46,-102.63"/>
<polygon fill="#63b8ff" stroke="#63b8ff" points="234.13,-106.13 244.21,-102.86 234.29,-99.13 234.13,-106.13"/>
</a>
</g>
</g>
<!-- Node6 -->
<g id="Node000006" class="node">
<title>Node6</title>
<g id="a_Node000006"><a xlink:href="namespacesvg.html#a74ca2344cea417d9107d56f4f53c5b0b" target="_top" xlink:title="Text element at.">
<polygon fill="white" stroke="#666666" points="329.25,-76 260,-76 260,-56 329.25,-56 329.25,-76"/>
<text xml:space="preserve" text-anchor="middle" x="294.62" y="-64.4" font-family="SourceSans" font-size="8.00">svg::style_text</text>
</a>
</g>
</g>
<!-- Node4&#45;&gt;Node6 -->
<g id="edge5_Node000004_Node000006" class="edge">
<title>Node4&#45;&gt;Node6</title>
<g id="a_edge5_Node000004_Node000006"><a xlink:title=" ">
<path fill="none" stroke="#63b8ff" d="M200.97,-90.97C215.8,-86.97 233.02,-82.33 248.56,-78.15"/>
<polygon fill="#63b8ff" stroke="#63b8ff" points="249.31,-81.57 258.05,-75.59 247.49,-74.81 249.31,-81.57"/>
</a>
</g>
</g>
<!-- Node7 -->
<g id="Node000007" class="node">
<title>Node7</title>
<g id="a_Node000007"><a xlink:href="group__elements.html#aad29e1daf75bdcd69a39575a6807fa0f" target="_top" xlink:title="Either serialize immediately (as below), or create data structure that adds data to data_vec and then...">
<polygon fill="white" stroke="#666666" points="469,-132 381,-132 381,-100 469,-100 469,-132"/>
<text xml:space="preserve" text-anchor="start" x="389" y="-120.4" font-family="SourceSans" font-size="8.00">svg::text_element::</text>
<text xml:space="preserve" text-anchor="middle" x="425" y="-108.4" font-family="SourceSans" font-size="8.00">add_data</text>
</a>
</g>
</g>
<!-- Node6&#45;&gt;Node7 -->
<g id="edge6_Node000006_Node000007" class="edge">
<title>Node6&#45;&gt;Node7</title>
<g id="a_edge6_Node000006_Node000007"><a xlink:title=" ">
<path fill="none" stroke="#63b8ff" d="M322.8,-76.42C330.02,-79.2 337.81,-82.21 345,-85 353.59,-88.34 362.7,-91.9 371.56,-95.37"/>
<polygon fill="#63b8ff" stroke="#63b8ff" points="370.2,-98.59 380.79,-98.99 372.76,-92.08 370.2,-98.59"/>
</a>
</g>
</g>
<!-- Node15 -->
<g id="Node000015" class="node">
<title>Node15</title>
<g id="a_Node000015"><a xlink:href="group__elements.html#ga13c46848317034d16c62a7d2061ba3d6" target="_top" xlink:title=" ">
<polygon fill="white" stroke="#666666" points="469,-82 381,-82 381,-50 469,-50 469,-82"/>
<text xml:space="preserve" text-anchor="start" x="389" y="-70.4" font-family="SourceSans" font-size="8.00">svg::text_element::</text>
<text xml:space="preserve" text-anchor="middle" x="425" y="-58.4" font-family="SourceSans" font-size="8.00">finish_element</text>
</a>
</g>
</g>
<!-- Node6&#45;&gt;Node15 -->
<g id="edge16_Node000006_Node000015" class="edge">
<title>Node6&#45;&gt;Node15</title>
<g id="a_edge16_Node000006_Node000015"><a xlink:title=" ">
<path fill="none" stroke="#63b8ff" d="M329.69,-66C341.88,-66 355.94,-66 369.42,-66"/>
<polygon fill="#63b8ff" stroke="#63b8ff" points="369.04,-69.5 379.04,-66 369.04,-62.5 369.04,-69.5"/>
</a>
</g>
</g>
<!-- Node16 -->
<g id="Node000016" class="node">
<title>Node16</title>
<g id="a_Node000016"><a xlink:href="group__elements.html#ae45bec611a6ec17ea46aab6d680ae042" target="_top" xlink:title=" ">
<polygon fill="white" stroke="#666666" points="469,-32 381,-32 381,0 469,0 469,-32"/>
<text xml:space="preserve" text-anchor="start" x="389" y="-20.4" font-family="SourceSans" font-size="8.00">svg::text_element::</text>
<text xml:space="preserve" text-anchor="middle" x="425" y="-8.4" font-family="SourceSans" font-size="8.00">start_element</text>
</a>
</g>
</g>
<!-- Node6&#45;&gt;Node16 -->
<g id="edge17_Node000006_Node000016" class="edge">
<title>Node6&#45;&gt;Node16</title>
<g id="a_edge17_Node000006_Node000016"><a xlink:title=" ">
<path fill="none" stroke="#63b8ff" d="M322.54,-55.52C336.72,-49.99 354.63,-43.02 371.43,-36.47"/>
<polygon fill="#63b8ff" stroke="#63b8ff" points="372.25,-39.91 380.3,-33.02 369.71,-33.39 372.25,-39.91"/>
</a>
</g>
</g>
<!-- Node8 -->
<g id="Node000008" class="node">
<title>Node8</title>
<g id="a_Node000008"><a xlink:href="structsvg_1_1typography.html#adbc62f74f1fed3f7c77567250f084f83" target="_top" xlink:title=" ">
<polygon fill="white" stroke="#666666" points="601.25,-176 505,-176 505,-144 601.25,-144 601.25,-176"/>
<text xml:space="preserve" text-anchor="start" x="513" y="-164.4" font-family="SourceSans" font-size="8.00">svg::typography::add</text>
<text xml:space="preserve" text-anchor="middle" x="553.12" y="-152.4" font-family="SourceSans" font-size="8.00">_attribute</text>
</a>
</g>
</g>
<!-- Node7&#45;&gt;Node8 -->
<g id="edge7_Node000007_Node000008" class="edge">
<title>Node7&#45;&gt;Node8</title>
<g id="a_edge7_Node000007_Node000008"><a xlink:title=" ">
<path fill="none" stroke="#63b8ff" d="M469.41,-131.14C477.52,-133.97 486.12,-136.97 494.59,-139.93"/>
<polygon fill="#63b8ff" stroke="#63b8ff" points="493.17,-143.14 503.76,-143.13 495.47,-136.53 493.17,-143.14"/>
</a>
</g>
</g>
<!-- Node9 -->
<g id="Node000009" class="node">
<title>Node9</title>
<g id="a_Node000009"><a xlink:href="namespacesvg.html#a48ac748e89e22789d1772326a98dd7b6" target="_top" xlink:title=" ">
<polygon fill="white" stroke="#666666" points="738.75,-214 651.5,-214 651.5,-194 738.75,-194 738.75,-214"/>
<text xml:space="preserve" text-anchor="middle" x="695.12" y="-202.4" font-family="SourceSans" font-size="8.00">svg::string_replace</text>
</a>
</g>
</g>
<!-- Node7&#45;&gt;Node9 -->
<g id="edge14_Node000007_Node000009" class="edge">
<title>Node7&#45;&gt;Node9</title>
<g id="a_edge14_Node000007_Node000009"><a xlink:title=" ">
<path fill="none" stroke="#63b8ff" d="M439.18,-132.33C453.49,-148.75 477.93,-173.27 505,-185 547.76,-203.54 600.9,-207.4 639.95,-207.14"/>
<polygon fill="#63b8ff" stroke="#63b8ff" points="639.88,-210.65 649.82,-206.98 639.76,-203.65 639.88,-210.65"/>
</a>
</g>
</g>
<!-- Node10 -->
<g id="Node000010" class="node">
<title>Node10</title>
<g id="a_Node000010"><a xlink:href="namespacesvg.html#a36b1c48ad4601b205790e3772ad0a7b6" target="_top" xlink:title=" ">
<polygon fill="white" stroke="#666666" points="728.62,-126 661.62,-126 661.62,-106 728.62,-106 728.62,-126"/>
<text xml:space="preserve" text-anchor="middle" x="695.12" y="-114.4" font-family="SourceSans" font-size="8.00">svg::to_string</text>
</a>
</g>
</g>
<!-- Node7&#45;&gt;Node10 -->
<g id="edge15_Node000007_Node000010" class="edge">
<title>Node7&#45;&gt;Node10</title>
<g id="a_edge15_Node000007_Node000010"><a xlink:title=" ">
<path fill="none" stroke="#63b8ff" d="M469.38,-116C519.05,-116 599.99,-116 649.98,-116"/>
<polygon fill="#63b8ff" stroke="#63b8ff" points="649.86,-119.5 659.86,-116 649.86,-112.5 649.86,-119.5"/>
</a>
</g>
</g>
<!-- Node12 -->
<g id="Node000012" class="node">
<title>Node12</title>
<g id="a_Node000012"><a xlink:href="group__elements.html#acafbdd950c6c2639c9d376c3eab696e5" target="_top" xlink:title=" ">
<polygon fill="white" stroke="#666666" points="598.62,-88 507.62,-88 507.62,-56 598.62,-56 598.62,-88"/>
<text xml:space="preserve" text-anchor="start" x="515.62" y="-76.4" font-family="SourceSans" font-size="8.00">svg::element_base::</text>
<text xml:space="preserve" text-anchor="middle" x="553.12" y="-64.4" font-family="SourceSans" font-size="8.00">add_raw</text>
</a>
</g>
</g>
<!-- Node7&#45;&gt;Node12 -->
<g id="edge11_Node000007_Node000012" class="edge">
<title>Node7&#45;&gt;Node12</title>
<g id="a_edge11_Node000007_Node000012"><a xlink:title=" ">
<path fill="none" stroke="#63b8ff" d="M469.41,-100.86C478.21,-97.78 487.59,-94.51 496.75,-91.32"/>
<polygon fill="#63b8ff" stroke="#63b8ff" points="497.63,-94.72 505.92,-88.12 495.33,-88.11 497.63,-94.72"/>
</a>
</g>
</g>
<!-- Node13 -->
<g id="Node000013" class="node">
<title>Node13</title>
<g id="a_Node000013"><a xlink:href="group__elements.html#a53d72a7ff728ad1d4d027254530bcf3d" target="_top" xlink:title=" ">
<polygon fill="white" stroke="#666666" points="598.62,-38 507.62,-38 507.62,-6 598.62,-6 598.62,-38"/>
<text xml:space="preserve" text-anchor="start" x="515.62" y="-26.4" font-family="SourceSans" font-size="8.00">svg::element_base::</text>
<text xml:space="preserve" text-anchor="middle" x="553.12" y="-14.4" font-family="SourceSans" font-size="8.00">add_transform</text>
</a>
</g>
</g>
<!-- Node7&#45;&gt;Node13 -->
<g id="edge12_Node000007_Node000013" class="edge">
<title>Node7&#45;&gt;Node13</title>
<g id="a_edge12_Node000007_Node000013"><a xlink:title=" ">
<path fill="none" stroke="#63b8ff" d="M457.44,-99.52C461.49,-96.89 465.45,-94.02 469,-91 488.23,-74.61 485.46,-63.01 505,-47 506.09,-46.11 507.21,-45.23 508.37,-44.38"/>
<polygon fill="#63b8ff" stroke="#63b8ff" points="509.99,-47.51 516.37,-39.05 506.11,-41.68 509.99,-47.51"/>
</a>
</g>
</g>
<!-- Node8&#45;&gt;Node9 -->
<g id="edge8_Node000008_Node000009" class="edge">
<title>Node8&#45;&gt;Node9</title>
<g id="a_edge8_Node000008_Node000009"><a xlink:title=" ">
<path fill="none" stroke="#63b8ff" d="M601.52,-174.9C617.23,-179.83 634.63,-185.3 650.07,-190.15"/>
<polygon fill="#63b8ff" stroke="#63b8ff" points="648.88,-193.45 659.47,-193.11 650.98,-186.77 648.88,-193.45"/>
</a>
</g>
</g>
<!-- Node8&#45;&gt;Node10 -->
<g id="edge9_Node000008_Node000010" class="edge">
<title>Node8&#45;&gt;Node10</title>
<g id="a_edge9_Node000008_Node000010"><a xlink:title=" ">
<path fill="none" stroke="#63b8ff" d="M601.52,-145.1C617.35,-140.13 634.91,-134.61 650.45,-129.73"/>
<polygon fill="#63b8ff" stroke="#63b8ff" points="651.41,-133.09 659.9,-126.76 649.31,-126.42 651.41,-133.09"/>
</a>
</g>
</g>
<!-- Node11 -->
<g id="Node000011" class="node">
<title>Node11</title>
<g id="a_Node000011"><a xlink:href="structsvg_1_1typography.html#a174c1ffb4e56214d71523ffe7e422561" target="_top" xlink:title=" ">
<polygon fill="white" stroke="#666666" points="739.5,-176 650.75,-176 650.75,-144 739.5,-144 739.5,-176"/>
<text xml:space="preserve" text-anchor="start" x="658.75" y="-164.4" font-family="SourceSans" font-size="8.00">svg::typography::to</text>
<text xml:space="preserve" text-anchor="middle" x="695.12" y="-152.4" font-family="SourceSans" font-size="8.00">_string</text>
</a>
</g>
</g>
<!-- Node8&#45;&gt;Node11 -->
<g id="edge10_Node000008_Node000011" class="edge">
<title>Node8&#45;&gt;Node11</title>
<g id="a_edge10_Node000008_Node000011"><a xlink:title=" ">
<path fill="none" stroke="#63b8ff" d="M601.52,-160C613.67,-160 626.83,-160 639.32,-160"/>
<polygon fill="#63b8ff" stroke="#63b8ff" points="639.03,-163.5 649.03,-160 639.03,-156.5 639.03,-163.5"/>
</a>
</g>
</g>
<!-- Node14 -->
<g id="Node000014" class="node">
<title>Node14</title>
<g id="a_Node000014"><a xlink:href="group__elements.html#ae50258851ebbaf08c7eebc3fbdbf1ac8" target="_top" xlink:title="Common transforms include rotate(180)">
<polygon fill="white" stroke="#666666" points="753,-38 637.25,-38 637.25,-6 753,-6 753,-38"/>
<text xml:space="preserve" text-anchor="start" x="645.25" y="-26.4" font-family="SourceSans" font-size="8.00">svg::element_base::</text>
<text xml:space="preserve" text-anchor="middle" x="695.12" y="-14.4" font-family="SourceSans" font-size="8.00">make_transform_attribute</text>
</a>
</g>
</g>
<!-- Node13&#45;&gt;Node14 -->
<g id="edge13_Node000013_Node000014" class="edge">
<title>Node13&#45;&gt;Node14</title>
<g id="a_edge13_Node000013_Node000014"><a xlink:title=" ">
<path fill="none" stroke="#63b8ff" d="M598.81,-22C607.3,-22 616.37,-22 625.42,-22"/>
<polygon fill="#63b8ff" stroke="#63b8ff" points="625.3,-25.5 635.3,-22 625.3,-18.5 625.3,-25.5"/>
</a>
</g>
</g>
</g>
</svg>
