<?xml version="1.0" encoding="UTF-8" standalone="no"?>
<!DOCTYPE svg PUBLIC "-//W3C//DTD SVG 1.1//EN"
 "http://www.w3.org/Graphics/SVG/1.1/DTD/svg11.dtd">
<!-- Generated by graphviz version 12.2.1 (20241206.2353)
 -->
<!-- Title: svg::nest_inner_svg_element_centered Pages: 1 -->
<svg width="994pt" height="217pt"
 viewBox="0.00 0.00 993.75 216.75" xmlns="http://www.w3.org/2000/svg" xmlns:xlink="http://www.w3.org/1999/xlink">
<g id="graph0" class="graph" transform="scale(1 1) rotate(0) translate(4 212.75)">
<title>svg::nest_inner_svg_element_centered</title>
<!-- Node1 -->
<g id="Node000001" class="node">
<title>Node1</title>
<g id="a_Node000001"><a xlink:title="Take.">
<polygon fill="#999999" stroke="#666666" points="97,-180.5 0,-180.5 0,-153 97,-153 97,-180.5"/>
<text text-anchor="start" x="8" y="-168.9" font-family="SourceSans" font-size="8.00">svg::nest_inner_svg</text>
<text text-anchor="middle" x="48.5" y="-159.15" font-family="SourceSans" font-size="8.00">_element_centered</text>
</a>
</g>
</g>
<!-- Node2 -->
<g id="Node000002" class="node">
<title>Node2</title>
<g id="a_Node000002"><a xlink:href="group__elements.html#ada0333b46b2547c6152f3f5811016a12" target="_top" xlink:title=" ">
<polygon fill="white" stroke="#666666" points="839.25,-184.5 739.25,-184.5 739.25,-157 839.25,-157 839.25,-184.5"/>
<text text-anchor="start" x="747.25" y="-172.9" font-family="SourceSans" font-size="8.00">svg::element_base::</text>
<text text-anchor="middle" x="789.25" y="-163.15" font-family="SourceSans" font-size="8.00">add_element</text>
</a>
</g>
</g>
<!-- Node1&#45;&gt;Node2 -->
<g id="edge1_Node000001_Node000002" class="edge">
<title>Node1&#45;&gt;Node2</title>
<g id="a_edge1_Node000001_Node000002"><a xlink:title=" ">
<path fill="none" stroke="#63b8ff" d="M95.1,-180.88C107.31,-184.24 120.57,-187.49 133,-189.75 224.28,-206.36 248.1,-208.75 340.88,-208.75 340.88,-208.75 340.88,-208.75 501.75,-208.75 580.31,-208.75 669.93,-194.54 727.71,-183.5"/>
<polygon fill="#63b8ff" stroke="#63b8ff" points="728.19,-186.97 737.34,-181.62 726.86,-180.1 728.19,-186.97"/>
</a>
</g>
</g>
<!-- Node4 -->
<g id="Node000004" class="node">
<title>Node4</title>
<g id="a_Node000004"><a xlink:href="group__elements.html#a3f7b6a0f29695c76b8a9e0c6d939f1b6" target="_top" xlink:title=" ">
<polygon fill="white" stroke="#666666" points="249.5,-180.5 133,-180.5 133,-153 249.5,-153 249.5,-180.5"/>
<text text-anchor="start" x="141" y="-168.9" font-family="SourceSans" font-size="8.00">svg::svg_element::finish</text>
<text text-anchor="middle" x="191.25" y="-159.15" font-family="SourceSans" font-size="8.00">_element</text>
</a>
</g>
</g>
<!-- Node1&#45;&gt;Node4 -->
<g id="edge3_Node000001_Node000004" class="edge">
<title>Node1&#45;&gt;Node4</title>
<g id="a_edge3_Node000001_Node000004"><a xlink:title=" ">
<path fill="none" stroke="#63b8ff" d="M97.15,-166.75C105.05,-166.75 113.37,-166.75 121.66,-166.75"/>
<polygon fill="#63b8ff" stroke="#63b8ff" points="121.39,-170.25 131.39,-166.75 121.39,-163.25 121.39,-170.25"/>
</a>
</g>
</g>
<!-- Node5 -->
<g id="Node000005" class="node">
<title>Node5</title>
<g id="a_Node000005"><a xlink:href="group__elements.html#a83eb3152f92ca357473c2ef8f23ced98" target="_top" xlink:title="SVG element beginning boilerplate for outermost (containing) svg_element. Variable: unit,...">
<polygon fill="white" stroke="#666666" points="247.62,-134.5 134.88,-134.5 134.88,-107 247.62,-107 247.62,-134.5"/>
<text text-anchor="start" x="142.88" y="-122.9" font-family="SourceSans" font-size="8.00">svg::svg_element::start</text>
<text text-anchor="middle" x="191.25" y="-113.15" font-family="SourceSans" font-size="8.00">_element</text>
</a>
</g>
</g>
<!-- Node1&#45;&gt;Node5 -->
<g id="edge4_Node000001_Node000005" class="edge">
<title>Node1&#45;&gt;Node5</title>
<g id="a_edge4_Node000001_Node000005"><a xlink:title=" ">
<path fill="none" stroke="#63b8ff" d="M92.88,-152.57C106.52,-148.11 121.77,-143.13 136.06,-138.46"/>
<polygon fill="#63b8ff" stroke="#63b8ff" points="136.92,-141.86 145.33,-135.43 134.74,-135.21 136.92,-141.86"/>
</a>
</g>
</g>
<!-- Node3 -->
<g id="Node000003" class="node">
<title>Node3</title>
<g id="a_Node000003"><a xlink:href="group__elements.html#ad893ef9c13a15464c96d8a85c08af30f" target="_top" xlink:title=" ">
<polygon fill="white" stroke="#666666" points="985.75,-179.62 875.25,-179.62 875.25,-161.88 985.75,-161.88 985.75,-179.62"/>
<text text-anchor="middle" x="930.5" y="-168.03" font-family="SourceSans" font-size="8.00">svg::element_base::str</text>
</a>
</g>
</g>
<!-- Node2&#45;&gt;Node3 -->
<g id="edge2_Node000002_Node000003" class="edge">
<title>Node2&#45;&gt;Node3</title>
<g id="a_edge2_Node000002_Node000003"><a xlink:title=" ">
<path fill="none" stroke="#63b8ff" d="M839.74,-170.75C847.49,-170.75 855.62,-170.75 863.67,-170.75"/>
<polygon fill="#63b8ff" stroke="#63b8ff" points="863.45,-174.25 873.45,-170.75 863.45,-167.25 863.45,-174.25"/>
</a>
</g>
</g>
<!-- Node6 -->
<g id="Node000006" class="node">
<title>Node6</title>
<g id="a_Node000006"><a xlink:href="group__elements.html#ad47933f8c0bfc36987493c7e3b3bbcbd" target="_top" xlink:title=" ">
<polygon fill="white" stroke="#666666" points="398.25,-133.62 285.5,-133.62 285.5,-115.88 398.25,-115.88 398.25,-133.62"/>
<text text-anchor="middle" x="341.88" y="-122.03" font-family="SourceSans" font-size="8.00">svg::svg_element::start</text>
</a>
</g>
</g>
<!-- Node5&#45;&gt;Node6 -->
<g id="edge5_Node000005_Node000006" class="edge">
<title>Node5&#45;&gt;Node6</title>
<g id="a_edge5_Node000005_Node000006"><a xlink:title=" ">
<path fill="none" stroke="#63b8ff" d="M248.02,-115.69C256.49,-115.74 265.31,-115.93 274,-116.23"/>
<polygon fill="#63b8ff" stroke="#63b8ff" points="273.64,-119.72 283.78,-116.64 273.93,-112.72 273.64,-119.72"/>
</a>
</g>
</g>
<!-- Node14 -->
<g id="Node000014" class="node">
<title>Node14</title>
<g id="a_Node000014"><a xlink:href="namespacesvg.html#a48ac748e89e22789d1772326a98dd7b6" target="_top" xlink:title=" ">
<polygon fill="white" stroke="#666666" points="388.5,-97.62 295.25,-97.62 295.25,-79.88 388.5,-79.88 388.5,-97.62"/>
<text text-anchor="middle" x="341.88" y="-86.03" font-family="SourceSans" font-size="8.00">svg::string_replace</text>
</a>
</g>
</g>
<!-- Node5&#45;&gt;Node14 -->
<g id="edge16_Node000005_Node000014" class="edge">
<title>Node5&#45;&gt;Node14</title>
<g id="a_edge16_Node000005_Node000014"><a xlink:title=" ">
<path fill="none" stroke="#63b8ff" d="M248.02,-108.74C260.5,-106.05 273.73,-103.21 286.18,-100.53"/>
<polygon fill="#63b8ff" stroke="#63b8ff" points="286.82,-103.97 295.86,-98.44 285.35,-97.13 286.82,-103.97"/>
</a>
</g>
</g>
<!-- Node15 -->
<g id="Node000015" class="node">
<title>Node15</title>
<g id="a_Node000015"><a xlink:href="namespacesvg.html#a36b1c48ad4601b205790e3772ad0a7b6" target="_top" xlink:title=" ">
<polygon fill="white" stroke="#666666" points="377.62,-61.62 306.12,-61.62 306.12,-43.88 377.62,-43.88 377.62,-61.62"/>
<text text-anchor="middle" x="341.88" y="-50.02" font-family="SourceSans" font-size="8.00">svg::to_string</text>
</a>
</g>
</g>
<!-- Node5&#45;&gt;Node15 -->
<g id="edge17_Node000005_Node000015" class="edge">
<title>Node5&#45;&gt;Node15</title>
<g id="a_edge17_Node000005_Node000015"><a xlink:title=" ">
<path fill="none" stroke="#63b8ff" d="M215.82,-106.6C234.34,-95.85 261,-81.2 285.5,-70.75 289.57,-69.01 293.86,-67.35 298.19,-65.77"/>
<polygon fill="#63b8ff" stroke="#63b8ff" points="299.15,-69.14 307.46,-62.57 296.87,-62.53 299.15,-69.14"/>
</a>
</g>
</g>
<!-- Node6&#45;&gt;Node5 -->
<g id="edge15_Node000006_Node000005" class="edge">
<title>Node6&#45;&gt;Node5</title>
<g id="a_edge15_Node000006_Node000005"><a xlink:title=" ">
<path fill="none" stroke="#63b8ff" d="M285.29,-129.81C276.82,-129.76 268,-129.58 259.32,-129.28"/>
<polygon fill="#63b8ff" stroke="#63b8ff" points="259.66,-125.79 249.53,-128.87 259.37,-132.78 259.66,-125.79"/>
</a>
</g>
</g>
<!-- Node7 -->
<g id="Node000007" class="node">
<title>Node7</title>
<g id="a_Node000007"><a xlink:href="group__elements.html#a4a6af4e23b9f79f07d58780c128c5638" target="_top" xlink:title=" ">
<polygon fill="white" stroke="#666666" points="567.25,-135.62 434.25,-135.62 434.25,-117.88 567.25,-117.88 567.25,-135.62"/>
<text text-anchor="middle" x="500.75" y="-124.03" font-family="SourceSans" font-size="8.00">svg::svg_element::add_desc</text>
</a>
</g>
</g>
<!-- Node6&#45;&gt;Node7 -->
<g id="edge6_Node000006_Node000007" class="edge">
<title>Node6&#45;&gt;Node7</title>
<g id="a_edge6_Node000006_Node000007"><a xlink:title=" ">
<path fill="none" stroke="#63b8ff" d="M398.62,-125.46C406.41,-125.56 414.51,-125.66 422.6,-125.77"/>
<polygon fill="#63b8ff" stroke="#63b8ff" points="422.43,-129.26 432.48,-125.89 422.52,-122.27 422.43,-129.26"/>
</a>
</g>
</g>
<!-- Node10 -->
<g id="Node000010" class="node">
<title>Node10</title>
<g id="a_Node000010"><a xlink:href="group__elements.html#a26869d2a66e57c0d83f2df21d25cd875" target="_top" xlink:title=" ">
<polygon fill="white" stroke="#666666" points="555.62,-76.5 445.88,-76.5 445.88,-49 555.62,-49 555.62,-76.5"/>
<text text-anchor="start" x="453.88" y="-64.9" font-family="SourceSans" font-size="8.00">svg::svg_element::add</text>
<text text-anchor="middle" x="500.75" y="-55.15" font-family="SourceSans" font-size="8.00">_title</text>
</a>
</g>
</g>
<!-- Node6&#45;&gt;Node10 -->
<g id="edge10_Node000006_Node000010" class="edge">
<title>Node6&#45;&gt;Node10</title>
<g id="a_edge10_Node000006_Node000010"><a xlink:title=" ">
<path fill="none" stroke="#63b8ff" d="M373.23,-115.46C381.41,-112.8 390.21,-109.79 398.25,-106.75 418.37,-99.14 440.32,-89.76 458.64,-81.63"/>
<polygon fill="#63b8ff" stroke="#63b8ff" points="459.89,-84.9 467.58,-77.62 457.03,-78.51 459.89,-84.9"/>
</a>
</g>
</g>
<!-- Node7&#45;&gt;Node2 -->
<g id="edge7_Node000007_Node000002" class="edge">
<title>Node7&#45;&gt;Node2</title>
<g id="a_edge7_Node000007_Node000002"><a xlink:title=" ">
<path fill="none" stroke="#63b8ff" d="M534.42,-136.02C554.19,-141.33 580.01,-147.71 603.25,-151.75 644.44,-158.9 691.29,-163.68 727.54,-166.66"/>
<polygon fill="#63b8ff" stroke="#63b8ff" points="727.16,-170.14 737.41,-167.44 727.72,-163.16 727.16,-170.14"/>
</a>
</g>
</g>
<!-- Node8 -->
<g id="Node000008" class="node">
<title>Node8</title>
<g id="a_Node000008"><a xlink:href="group__elements.html#ga03da556ae8f749df1cf8463111e996d3" target="_top" xlink:title=" ">
<polygon fill="white" stroke="#666666" points="702.88,-142.5 603.62,-142.5 603.62,-115 702.88,-115 702.88,-142.5"/>
<text text-anchor="start" x="611.62" y="-130.9" font-family="SourceSans" font-size="8.00">svg::desc_element::</text>
<text text-anchor="middle" x="653.25" y="-121.15" font-family="SourceSans" font-size="8.00">finish_element</text>
</a>
</g>
</g>
<!-- Node7&#45;&gt;Node8 -->
<g id="edge8_Node000007_Node000008" class="edge">
<title>Node7&#45;&gt;Node8</title>
<g id="a_edge8_Node000007_Node000008"><a xlink:title=" ">
<path fill="none" stroke="#63b8ff" d="M567.32,-127.62C575.51,-127.73 583.85,-127.84 591.94,-127.95"/>
<polygon fill="#63b8ff" stroke="#63b8ff" points="591.63,-131.44 601.68,-128.08 591.73,-124.45 591.63,-131.44"/>
</a>
</g>
</g>
<!-- Node9 -->
<g id="Node000009" class="node">
<title>Node9</title>
<g id="a_Node000009"><a xlink:href="group__elements.html#a90ffdd73579c45cd0740dc9efa2f5445" target="_top" xlink:title=" ">
<polygon fill="white" stroke="#666666" points="702.88,-96.5 603.62,-96.5 603.62,-69 702.88,-69 702.88,-96.5"/>
<text text-anchor="start" x="611.62" y="-84.9" font-family="SourceSans" font-size="8.00">svg::desc_element::</text>
<text text-anchor="middle" x="653.25" y="-75.15" font-family="SourceSans" font-size="8.00">start_element</text>
</a>
</g>
</g>
<!-- Node7&#45;&gt;Node9 -->
<g id="edge9_Node000007_Node000009" class="edge">
<title>Node7&#45;&gt;Node9</title>
<g id="a_edge9_Node000007_Node000009"><a xlink:title=" ">
<path fill="none" stroke="#63b8ff" d="M533.67,-117.42C550.85,-112.4 572.6,-106.04 592.77,-100.14"/>
<polygon fill="#63b8ff" stroke="#63b8ff" points="593.71,-103.51 602.32,-97.35 591.74,-96.79 593.71,-103.51"/>
</a>
</g>
</g>
<!-- Node11 -->
<g id="Node000011" class="node">
<title>Node11</title>
<g id="a_Node000011"><a xlink:href="group__elements.html#a7995b78d94e1c299065c9dd3569fef7c" target="_top" xlink:title=" ">
<polygon fill="white" stroke="#666666" points="703.25,-50.5 603.25,-50.5 603.25,-23 703.25,-23 703.25,-50.5"/>
<text text-anchor="start" x="611.25" y="-38.9" font-family="SourceSans" font-size="8.00">svg::element_base::</text>
<text text-anchor="middle" x="653.25" y="-29.15" font-family="SourceSans" font-size="8.00">add_title</text>
</a>
</g>
</g>
<!-- Node10&#45;&gt;Node11 -->
<g id="edge11_Node000010_Node000011" class="edge">
<title>Node10&#45;&gt;Node11</title>
<g id="a_edge11_Node000010_Node000011"><a xlink:title=" ">
<path fill="none" stroke="#63b8ff" d="M556.08,-53.36C567.7,-51.36 580.03,-49.23 591.86,-47.18"/>
<polygon fill="#63b8ff" stroke="#63b8ff" points="592.25,-50.67 601.51,-45.52 591.06,-43.77 592.25,-50.67"/>
</a>
</g>
</g>
<!-- Node11&#45;&gt;Node2 -->
<g id="edge12_Node000011_Node000002" class="edge">
<title>Node11&#45;&gt;Node2</title>
<g id="a_edge12_Node000011_Node000002"><a xlink:title=" ">
<path fill="none" stroke="#63b8ff" d="M689.74,-50.89C694.5,-53.49 699.15,-56.45 703.25,-59.75 734.01,-84.53 760.02,-122.67 774.88,-147.16"/>
<polygon fill="#63b8ff" stroke="#63b8ff" points="771.67,-148.61 779.78,-155.44 777.7,-145.05 771.67,-148.61"/>
</a>
</g>
</g>
<!-- Node12 -->
<g id="Node000012" class="node">
<title>Node12</title>
<g id="a_Node000012"><a xlink:href="group__elements.html#ga3d62381f8edcccd3d91f82af55f11274" target="_top" xlink:title=" ">
<polygon fill="white" stroke="#666666" points="834,-73.5 744.5,-73.5 744.5,-46 834,-46 834,-73.5"/>
<text text-anchor="start" x="752.5" y="-61.9" font-family="SourceSans" font-size="8.00">svg::title_element</text>
<text text-anchor="middle" x="789.25" y="-52.15" font-family="SourceSans" font-size="8.00">::finish_element</text>
</a>
</g>
</g>
<!-- Node11&#45;&gt;Node12 -->
<g id="edge13_Node000011_Node000012" class="edge">
<title>Node11&#45;&gt;Node12</title>
<g id="a_edge13_Node000011_Node000012"><a xlink:title=" ">
<path fill="none" stroke="#63b8ff" d="M703.39,-45.18C713.05,-46.84 723.25,-48.59 733.09,-50.28"/>
<polygon fill="#63b8ff" stroke="#63b8ff" points="732.5,-53.73 742.95,-51.97 733.68,-46.83 732.5,-53.73"/>
</a>
</g>
</g>
<!-- Node13 -->
<g id="Node000013" class="node">
<title>Node13</title>
<g id="a_Node000013"><a xlink:href="group__elements.html#a41dcaa1132c502cb86c01aae1e7b9ff2" target="_top" xlink:title=" ">
<polygon fill="white" stroke="#666666" points="834,-27.5 744.5,-27.5 744.5,0 834,0 834,-27.5"/>
<text text-anchor="start" x="752.5" y="-15.9" font-family="SourceSans" font-size="8.00">svg::title_element</text>
<text text-anchor="middle" x="789.25" y="-6.15" font-family="SourceSans" font-size="8.00">::start_element</text>
</a>
</g>
</g>
<!-- Node11&#45;&gt;Node13 -->
<g id="edge14_Node000011_Node000013" class="edge">
<title>Node11&#45;&gt;Node13</title>
<g id="a_edge14_Node000011_Node000013"><a xlink:title=" ">
<path fill="none" stroke="#63b8ff" d="M703.39,-28.32C713.05,-26.66 723.25,-24.91 733.09,-23.22"/>
<polygon fill="#63b8ff" stroke="#63b8ff" points="733.68,-26.67 742.95,-21.53 732.5,-19.77 733.68,-26.67"/>
</a>
</g>
</g>
</g>
</svg>
