<?xml version="1.0" encoding="UTF-8" standalone="no"?>
<!DOCTYPE svg PUBLIC "-//W3C//DTD SVG 1.1//EN"
 "http://www.w3.org/Graphics/SVG/1.1/DTD/svg11.dtd">
<!-- Generated by graphviz version 12.2.1 (20241206.2353)
 -->
<!-- Title: svg::make_marker_triangle Pages: 1 -->
<svg width="734pt" height="356pt"
 viewBox="0.00 0.00 733.75 355.50" xmlns="http://www.w3.org/2000/svg" xmlns:xlink="http://www.w3.org/1999/xlink">
<g id="graph0" class="graph" transform="scale(1 1) rotate(0) translate(4 351.5)">
<title>svg::make_marker_triangle</title>
<!-- Node1 -->
<g id="Node000001" class="node">
<title>Node1</title>
<g id="a_Node000001"><a xlink:title=" ">
<polygon fill="#999999" stroke="#666666" points="124.75,-180.62 0,-180.62 0,-162.88 124.75,-162.88 124.75,-180.62"/>
<text text-anchor="middle" x="62.38" y="-169.03" font-family="SourceSans" font-size="8.00">svg::make_marker_triangle</text>
</a>
</g>
</g>
<!-- Node2 -->
<g id="Node000002" class="node">
<title>Node2</title>
<g id="a_Node000002"><a xlink:href="namespacesvg.html#a56ab414cf370cb20fa25d06d2a9b07bb" target="_top" xlink:title="Base function for generating SVG markers in a defs section.">
<polygon fill="white" stroke="#666666" points="287.75,-279.62 160.75,-279.62 160.75,-261.88 287.75,-261.88 287.75,-279.62"/>
<text text-anchor="middle" x="224.25" y="-268.02" font-family="SourceSans" font-size="8.00">svg::make_marker_element</text>
</a>
</g>
</g>
<!-- Node1&#45;&gt;Node2 -->
<g id="edge1_Node000001_Node000002" class="edge">
<title>Node1&#45;&gt;Node2</title>
<g id="a_edge1_Node000001_Node000002"><a xlink:title=" ">
<path fill="none" stroke="#63b8ff" d="M78.42,-181.06C106.03,-198.16 165.05,-234.71 198.6,-255.49"/>
<polygon fill="#63b8ff" stroke="#63b8ff" points="196.5,-258.3 206.85,-260.59 200.19,-252.35 196.5,-258.3"/>
</a>
</g>
</g>
<!-- Node6 -->
<g id="Node000006" class="node">
<title>Node6</title>
<g id="a_Node000006"><a xlink:href="namespacesvg.html#a5c3daa77c4f641f5ac5fd9d31a8c15d3" target="_top" xlink:title="Center a triangle at this point.">
<polygon fill="white" stroke="#666666" points="282.12,-139.62 166.38,-139.62 166.38,-121.88 282.12,-121.88 282.12,-139.62"/>
<text text-anchor="middle" x="224.25" y="-128.03" font-family="SourceSans" font-size="8.00">svg::make_path_triangle</text>
</a>
</g>
</g>
<!-- Node1&#45;&gt;Node6 -->
<g id="edge5_Node000001_Node000006" class="edge">
<title>Node1&#45;&gt;Node6</title>
<g id="a_edge5_Node000001_Node000006"><a xlink:title=" ">
<path fill="none" stroke="#63b8ff" d="M99.65,-162.45C122.26,-156.65 151.59,-149.13 176.01,-142.86"/>
<polygon fill="#63b8ff" stroke="#63b8ff" points="176.56,-146.34 185.37,-140.46 174.82,-139.56 176.56,-146.34"/>
</a>
</g>
</g>
<!-- Node3 -->
<g id="Node000003" class="node">
<title>Node3</title>
<g id="a_Node000003"><a xlink:href="group__elements.html#acafbdd950c6c2639c9d376c3eab696e5" target="_top" xlink:title=" ">
<polygon fill="white" stroke="#666666" points="586.38,-331.5 486.38,-331.5 486.38,-304 586.38,-304 586.38,-331.5"/>
<text text-anchor="start" x="494.38" y="-319.9" font-family="SourceSans" font-size="8.00">svg::element_base::</text>
<text text-anchor="middle" x="536.38" y="-310.15" font-family="SourceSans" font-size="8.00">add_raw</text>
</a>
</g>
</g>
<!-- Node2&#45;&gt;Node3 -->
<g id="edge2_Node000002_Node000003" class="edge">
<title>Node2&#45;&gt;Node3</title>
<g id="a_edge2_Node000002_Node000003"><a xlink:title=" ">
<path fill="none" stroke="#63b8ff" d="M286.89,-280.09C341.48,-288.36 420.69,-300.37 474.92,-308.59"/>
<polygon fill="#63b8ff" stroke="#63b8ff" points="474.18,-312.02 484.59,-310.05 475.23,-305.1 474.18,-312.02"/>
</a>
</g>
</g>
<!-- Node4 -->
<g id="Node000004" class="node">
<title>Node4</title>
<g id="a_Node000004"><a xlink:href="group__elements.html#gab7270e660dcac30ea26157764f230e03" target="_top" xlink:title=" ">
<polygon fill="white" stroke="#666666" points="435,-263.5 333.5,-263.5 333.5,-236 435,-236 435,-263.5"/>
<text text-anchor="start" x="341.5" y="-251.9" font-family="SourceSans" font-size="8.00">svg::marker_element</text>
<text text-anchor="middle" x="384.25" y="-242.15" font-family="SourceSans" font-size="8.00">::finish_element</text>
</a>
</g>
</g>
<!-- Node2&#45;&gt;Node4 -->
<g id="edge3_Node000002_Node000004" class="edge">
<title>Node2&#45;&gt;Node4</title>
<g id="a_edge3_Node000002_Node000004"><a xlink:title=" ">
<path fill="none" stroke="#63b8ff" d="M288.15,-262.39C299.26,-260.91 310.82,-259.38 321.89,-257.91"/>
<polygon fill="#63b8ff" stroke="#63b8ff" points="322.26,-261.39 331.71,-256.6 321.34,-254.45 322.26,-261.39"/>
</a>
</g>
</g>
<!-- Node5 -->
<g id="Node000005" class="node">
<title>Node5</title>
<g id="a_Node000005"><a xlink:href="group__elements.html#ac4cb549d62ec6d614189e4585089c58d" target="_top" xlink:title=" ">
<polygon fill="white" stroke="#666666" points="435,-347.5 333.5,-347.5 333.5,-320 435,-320 435,-347.5"/>
<text text-anchor="start" x="341.5" y="-335.9" font-family="SourceSans" font-size="8.00">svg::marker_element</text>
<text text-anchor="middle" x="384.25" y="-326.15" font-family="SourceSans" font-size="8.00">::start_element</text>
</a>
</g>
</g>
<!-- Node2&#45;&gt;Node5 -->
<g id="edge4_Node000002_Node000005" class="edge">
<title>Node2&#45;&gt;Node5</title>
<g id="a_edge4_Node000002_Node000005"><a xlink:title=" ">
<path fill="none" stroke="#63b8ff" d="M248.56,-280.05C271.8,-289.31 308.13,-303.8 337.2,-315.39"/>
<polygon fill="#63b8ff" stroke="#63b8ff" points="335.55,-318.5 346.14,-318.95 338.15,-312 335.55,-318.5"/>
</a>
</g>
</g>
<!-- Node7 -->
<g id="Node000007" class="node">
<title>Node7</title>
<g id="a_Node000007"><a xlink:href="namespacesvg.html#ab44508c4aeca591141ebec50145b75cd" target="_top" xlink:title="Angle in degrees.">
<polygon fill="white" stroke="#666666" points="439.88,-39.5 328.62,-39.5 328.62,-12 439.88,-12 439.88,-39.5"/>
<text text-anchor="start" x="336.62" y="-27.9" font-family="SourceSans" font-size="8.00">svg::get_circumference</text>
<text text-anchor="middle" x="384.25" y="-18.15" font-family="SourceSans" font-size="8.00">_point_d</text>
</a>
</g>
</g>
<!-- Node6&#45;&gt;Node7 -->
<g id="edge6_Node000006_Node000007" class="edge">
<title>Node6&#45;&gt;Node7</title>
<g id="a_edge6_Node000006_Node000007"><a xlink:title=" ">
<path fill="none" stroke="#63b8ff" d="M239.27,-121.43C264.5,-104.67 318.09,-69.05 352.3,-46.32"/>
<polygon fill="#63b8ff" stroke="#63b8ff" points="354.16,-49.28 360.56,-40.83 350.29,-43.45 354.16,-49.28"/>
</a>
</g>
</g>
<!-- Node9 -->
<g id="Node000009" class="node">
<title>Node9</title>
<g id="a_Node000009"><a xlink:href="namespacesvg.html#a8b2e7da5235688e0f753d35fc1079c87" target="_top" xlink:title="Draw path given serialized path data. Assumes pinstripe, ie top and bottom line layers....">
<polygon fill="white" stroke="#666666" points="424.5,-192.62 344,-192.62 344,-174.88 424.5,-174.88 424.5,-192.62"/>
<text text-anchor="middle" x="384.25" y="-181.03" font-family="SourceSans" font-size="8.00">svg::make_path</text>
</a>
</g>
</g>
<!-- Node6&#45;&gt;Node9 -->
<g id="edge8_Node000006_Node000009" class="edge">
<title>Node6&#45;&gt;Node9</title>
<g id="a_edge8_Node000006_Node000009"><a xlink:title=" ">
<path fill="none" stroke="#63b8ff" d="M253.13,-140.1C278.55,-148.63 316.34,-161.31 344.66,-170.8"/>
<polygon fill="#63b8ff" stroke="#63b8ff" points="343.35,-174.06 353.94,-173.92 345.58,-167.42 343.35,-174.06"/>
</a>
</g>
</g>
<!-- Node18 -->
<g id="Node000018" class="node">
<title>Node18</title>
<g id="a_Node000018"><a xlink:href="namespacesvg.html#a2c65de7707b8b7b1bca959a3a2bbba91" target="_top" xlink:title="Make single path segment.">
<polygon fill="white" stroke="#666666" points="435.75,-144.5 332.75,-144.5 332.75,-117 435.75,-117 435.75,-144.5"/>
<text text-anchor="start" x="340.75" y="-132.9" font-family="SourceSans" font-size="8.00">svg::make_path_data</text>
<text text-anchor="middle" x="384.25" y="-123.15" font-family="SourceSans" font-size="8.00">_from_points</text>
</a>
</g>
</g>
<!-- Node6&#45;&gt;Node18 -->
<g id="edge19_Node000006_Node000018" class="edge">
<title>Node6&#45;&gt;Node18</title>
<g id="a_edge19_Node000006_Node000018"><a xlink:title=" ">
<path fill="none" stroke="#63b8ff" d="M282.29,-130.75C294.81,-130.75 308.13,-130.75 320.85,-130.75"/>
<polygon fill="#63b8ff" stroke="#63b8ff" points="320.81,-134.25 330.81,-130.75 320.81,-127.25 320.81,-134.25"/>
</a>
</g>
</g>
<!-- Node20 -->
<g id="Node000020" class="node">
<title>Node20</title>
<g id="a_Node000020"><a xlink:href="namespacesvg.html#a46164d75fd5109e4ed8879abbacd5c11" target="_top" xlink:title="Zero degrees is top, going clockwise (cw).">
<polygon fill="white" stroke="#666666" points="444.75,-98.62 323.75,-98.62 323.75,-80.88 444.75,-80.88 444.75,-98.62"/>
<text text-anchor="middle" x="384.25" y="-87.03" font-family="SourceSans" font-size="8.00">svg::zero_angle_north_cw</text>
</a>
</g>
</g>
<!-- Node6&#45;&gt;Node20 -->
<g id="edge21_Node000006_Node000020" class="edge">
<title>Node6&#45;&gt;Node20</title>
<g id="a_edge21_Node000006_Node000020"><a xlink:title=" ">
<path fill="none" stroke="#63b8ff" d="M261.1,-121.45C283.35,-115.67 312.17,-108.19 336.24,-101.95"/>
<polygon fill="#63b8ff" stroke="#63b8ff" points="337,-105.37 345.8,-99.47 335.24,-98.59 337,-105.37"/>
</a>
</g>
</g>
<!-- Node8 -->
<g id="Node000008" class="node">
<title>Node8</title>
<g id="a_Node000008"><a xlink:href="namespacesvg.html#aef05ac63d88a6102981d3faf37275297" target="_top" xlink:title="Angle in radians.">
<polygon fill="white" stroke="#666666" points="592,-27.5 480.75,-27.5 480.75,0 592,0 592,-27.5"/>
<text text-anchor="start" x="488.75" y="-15.9" font-family="SourceSans" font-size="8.00">svg::get_circumference</text>
<text text-anchor="middle" x="536.38" y="-6.15" font-family="SourceSans" font-size="8.00">_point_r</text>
</a>
</g>
</g>
<!-- Node7&#45;&gt;Node8 -->
<g id="edge7_Node000007_Node000008" class="edge">
<title>Node7&#45;&gt;Node8</title>
<g id="a_edge7_Node000007_Node000008"><a xlink:title=" ">
<path fill="none" stroke="#63b8ff" d="M440.3,-21.35C449.68,-20.6 459.51,-19.81 469.15,-19.04"/>
<polygon fill="#63b8ff" stroke="#63b8ff" points="469.14,-22.56 478.82,-18.27 468.58,-15.58 469.14,-22.56"/>
</a>
</g>
</g>
<!-- Node9&#45;&gt;Node3 -->
<g id="edge11_Node000009_Node000003" class="edge">
<title>Node9&#45;&gt;Node3</title>
<g id="a_edge11_Node000009_Node000003"><a xlink:title=" ">
<path fill="none" stroke="#63b8ff" d="M402,-192.97C414.9,-200.7 432.54,-212.71 444.75,-226.75 467.19,-252.55 455.53,-271.66 480.75,-294.75 481.8,-295.71 482.89,-296.63 484.02,-297.51"/>
<polygon fill="#63b8ff" stroke="#63b8ff" points="481.75,-300.21 492.02,-302.8 485.6,-294.37 481.75,-300.21"/>
</a>
</g>
</g>
<!-- Node10 -->
<g id="Node000010" class="node">
<title>Node10</title>
<g id="a_Node000010"><a xlink:href="group__elements.html#a807f3c30f2ace338ad10aaf230b47665" target="_top" xlink:title="Either serialize immediately (as below), or create data structure that adds data to data_vec and then...">
<polygon fill="white" stroke="#666666" points="585.62,-109.5 487.12,-109.5 487.12,-82 585.62,-82 585.62,-109.5"/>
<text text-anchor="start" x="495.12" y="-97.9" font-family="SourceSans" font-size="8.00">svg::path_element::</text>
<text text-anchor="middle" x="536.38" y="-88.15" font-family="SourceSans" font-size="8.00">add_data</text>
</a>
</g>
</g>
<!-- Node9&#45;&gt;Node10 -->
<g id="edge9_Node000009_Node000010" class="edge">
<title>Node9&#45;&gt;Node10</title>
<g id="a_edge9_Node000009_Node000010"><a xlink:title=" ">
<path fill="none" stroke="#63b8ff" d="M407.64,-174.43C419.2,-169.14 433.26,-161.94 444.75,-153.75 462.92,-140.8 462.14,-131.07 480.75,-118.75 482.58,-117.54 484.49,-116.36 486.45,-115.24"/>
<polygon fill="#63b8ff" stroke="#63b8ff" points="487.95,-118.4 495.19,-110.67 484.71,-112.2 487.95,-118.4"/>
</a>
</g>
</g>
<!-- Node12 -->
<g id="Node000012" class="node">
<title>Node12</title>
<g id="a_Node000012"><a xlink:href="group__elements.html#a238b38ca99a1cf6c2baf80c8e4338d99" target="_top" xlink:title=" ">
<polygon fill="white" stroke="#666666" points="586.38,-155.5 486.38,-155.5 486.38,-128 586.38,-128 586.38,-155.5"/>
<text text-anchor="start" x="494.38" y="-143.9" font-family="SourceSans" font-size="8.00">svg::element_base::</text>
<text text-anchor="middle" x="536.38" y="-134.15" font-family="SourceSans" font-size="8.00">add_style</text>
</a>
</g>
</g>
<!-- Node9&#45;&gt;Node12 -->
<g id="edge12_Node000009_Node000012" class="edge">
<title>Node9&#45;&gt;Node12</title>
<g id="a_edge12_Node000009_Node000012"><a xlink:title=" ">
<path fill="none" stroke="#63b8ff" d="M418.57,-174.43C435.18,-169.78 455.8,-164.01 475.06,-158.62"/>
<polygon fill="#63b8ff" stroke="#63b8ff" points="475.75,-162.07 484.44,-156 473.87,-155.32 475.75,-162.07"/>
</a>
</g>
</g>
<!-- Node13 -->
<g id="Node000013" class="node">
<title>Node13</title>
<g id="a_Node000013"><a xlink:href="namespacesvg.html#a36b1c48ad4601b205790e3772ad0a7b6" target="_top" xlink:title=" ">
<polygon fill="white" stroke="#666666" points="712.62,-171.62 641.12,-171.62 641.12,-153.88 712.62,-153.88 712.62,-171.62"/>
<text text-anchor="middle" x="676.88" y="-160.03" font-family="SourceSans" font-size="8.00">svg::to_string</text>
</a>
</g>
</g>
<!-- Node9&#45;&gt;Node13 -->
<g id="edge18_Node000009_Node000013" class="edge">
<title>Node9&#45;&gt;Node13</title>
<g id="a_edge18_Node000009_Node000013"><a xlink:title=" ">
<path fill="none" stroke="#63b8ff" d="M424.75,-180.9C478.07,-177.04 572.91,-170.19 629.53,-166.1"/>
<polygon fill="#63b8ff" stroke="#63b8ff" points="629.78,-169.59 639.5,-165.38 629.27,-162.61 629.78,-169.59"/>
</a>
</g>
</g>
<!-- Node14 -->
<g id="Node000014" class="node">
<title>Node14</title>
<g id="a_Node000014"><a xlink:href="group__elements.html#gaac30ae99fb1a2542688fa1ffb43cd8e1" target="_top" xlink:title=" ">
<polygon fill="white" stroke="#666666" points="585.62,-285.5 487.12,-285.5 487.12,-258 585.62,-258 585.62,-285.5"/>
<text text-anchor="start" x="495.12" y="-273.9" font-family="SourceSans" font-size="8.00">svg::path_element::</text>
<text text-anchor="middle" x="536.38" y="-264.15" font-family="SourceSans" font-size="8.00">finish_element</text>
</a>
</g>
</g>
<!-- Node9&#45;&gt;Node14 -->
<g id="edge14_Node000009_Node000014" class="edge">
<title>Node9&#45;&gt;Node14</title>
<g id="a_edge14_Node000009_Node000014"><a xlink:title=" ">
<path fill="none" stroke="#63b8ff" d="M398.03,-192.92C419.98,-208.58 464.1,-239.7 480.75,-248.75 483.24,-250.1 485.83,-251.43 488.47,-252.73"/>
<polygon fill="#63b8ff" stroke="#63b8ff" points="486.84,-255.83 497.39,-256.88 489.8,-249.49 486.84,-255.83"/>
</a>
</g>
</g>
<!-- Node16 -->
<g id="Node000016" class="node">
<title>Node16</title>
<g id="a_Node000016"><a xlink:href="group__elements.html#a6dbca7cef2cbc0c10aa44c44ae20b36e" target="_top" xlink:title=" ">
<polygon fill="white" stroke="#666666" points="585.62,-239.5 487.12,-239.5 487.12,-212 585.62,-212 585.62,-239.5"/>
<text text-anchor="start" x="495.12" y="-227.9" font-family="SourceSans" font-size="8.00">svg::path_element::</text>
<text text-anchor="middle" x="536.38" y="-218.15" font-family="SourceSans" font-size="8.00">start_element</text>
</a>
</g>
</g>
<!-- Node9&#45;&gt;Node16 -->
<g id="edge16_Node000009_Node000016" class="edge">
<title>Node9&#45;&gt;Node16</title>
<g id="a_edge16_Node000009_Node000016"><a xlink:title=" ">
<path fill="none" stroke="#63b8ff" d="M418.57,-193.07C435.4,-197.78 456.34,-203.64 475.82,-209.09"/>
<polygon fill="#63b8ff" stroke="#63b8ff" points="474.73,-212.42 485.31,-211.74 476.62,-205.68 474.73,-212.42"/>
</a>
</g>
</g>
<!-- Node11 -->
<g id="Node000011" class="node">
<title>Node11</title>
<g id="a_Node000011"><a xlink:href="namespacesvg.html#a48ac748e89e22789d1772326a98dd7b6" target="_top" xlink:title=" ">
<polygon fill="white" stroke="#666666" points="723.5,-104.62 630.25,-104.62 630.25,-86.88 723.5,-86.88 723.5,-104.62"/>
<text text-anchor="middle" x="676.88" y="-93.03" font-family="SourceSans" font-size="8.00">svg::string_replace</text>
</a>
</g>
</g>
<!-- Node10&#45;&gt;Node11 -->
<g id="edge10_Node000010_Node000011" class="edge">
<title>Node10&#45;&gt;Node11</title>
<g id="a_edge10_Node000010_Node000011"><a xlink:title=" ">
<path fill="none" stroke="#63b8ff" d="M585.82,-95.75C596.47,-95.75 607.85,-95.75 618.8,-95.75"/>
<polygon fill="#63b8ff" stroke="#63b8ff" points="618.51,-99.25 628.51,-95.75 618.51,-92.25 618.51,-99.25"/>
</a>
</g>
</g>
<!-- Node12&#45;&gt;Node13 -->
<g id="edge13_Node000012_Node000013" class="edge">
<title>Node12&#45;&gt;Node13</title>
<g id="a_edge13_Node000012_Node000013"><a xlink:title=" ">
<path fill="none" stroke="#63b8ff" d="M586.59,-149.21C600.57,-151.33 615.73,-153.63 629.52,-155.72"/>
<polygon fill="#63b8ff" stroke="#63b8ff" points="628.82,-159.16 639.24,-157.19 629.87,-152.24 628.82,-159.16"/>
</a>
</g>
</g>
<!-- Node15 -->
<g id="Node000015" class="node">
<title>Node15</title>
<g id="a_Node000015"><a xlink:href="group__elements.html#ga503ee2895588a6c684e2b1614cf4e73d" target="_top" xlink:title=" ">
<polygon fill="white" stroke="#666666" points="725.75,-285.5 628,-285.5 628,-258 725.75,-258 725.75,-285.5"/>
<text text-anchor="start" x="636" y="-273.9" font-family="SourceSans" font-size="8.00">svg::defs_element::</text>
<text text-anchor="middle" x="676.88" y="-264.15" font-family="SourceSans" font-size="8.00">finish_element</text>
</a>
</g>
</g>
<!-- Node14&#45;&gt;Node15 -->
<g id="edge15_Node000014_Node000015" class="edge">
<title>Node14&#45;&gt;Node15</title>
<g id="a_edge15_Node000014_Node000015"><a xlink:title=" ">
<path fill="none" stroke="#63b8ff" d="M585.82,-271.75C595.68,-271.75 606.16,-271.75 616.36,-271.75"/>
<polygon fill="#63b8ff" stroke="#63b8ff" points="616.18,-275.25 626.18,-271.75 616.18,-268.25 616.18,-275.25"/>
</a>
</g>
</g>
<!-- Node17 -->
<g id="Node000017" class="node">
<title>Node17</title>
<g id="a_Node000017"><a xlink:href="group__elements.html#a948868c6f5dea784ded14c26cc1d2139" target="_top" xlink:title=" ">
<polygon fill="white" stroke="#666666" points="725.75,-239.5 628,-239.5 628,-212 725.75,-212 725.75,-239.5"/>
<text text-anchor="start" x="636" y="-227.9" font-family="SourceSans" font-size="8.00">svg::defs_element::</text>
<text text-anchor="middle" x="676.88" y="-218.15" font-family="SourceSans" font-size="8.00">start_element</text>
</a>
</g>
</g>
<!-- Node16&#45;&gt;Node17 -->
<g id="edge17_Node000016_Node000017" class="edge">
<title>Node16&#45;&gt;Node17</title>
<g id="a_edge17_Node000016_Node000017"><a xlink:title=" ">
<path fill="none" stroke="#63b8ff" d="M585.82,-225.75C595.68,-225.75 606.16,-225.75 616.36,-225.75"/>
<polygon fill="#63b8ff" stroke="#63b8ff" points="616.18,-229.25 626.18,-225.75 616.18,-222.25 616.18,-229.25"/>
</a>
</g>
</g>
<!-- Node19 -->
<g id="Node000019" class="node">
<title>Node19</title>
<g id="a_Node000019"><a xlink:href="namespacesvg_1_1constants.html#ac460bc8db60d85c3ae1cf8b1a903405e" target="_top" xlink:title="Formatting character constants.">
<polygon fill="white" stroke="#666666" points="590.12,-63.62 482.62,-63.62 482.62,-45.88 590.12,-45.88 590.12,-63.62"/>
<text text-anchor="middle" x="536.38" y="-52.02" font-family="SourceSans" font-size="8.00">svg::constants::space</text>
</a>
</g>
</g>
<!-- Node18&#45;&gt;Node19 -->
<g id="edge20_Node000018_Node000019" class="edge">
<title>Node18&#45;&gt;Node19</title>
<g id="a_edge20_Node000018_Node000019"><a xlink:title=" ">
<path fill="none" stroke="#63b8ff" d="M428.21,-116.56C433.95,-113.97 439.62,-111.04 444.75,-107.75 463.54,-95.71 461.67,-84.32 480.75,-72.75 483.34,-71.18 486.09,-69.73 488.91,-68.39"/>
<polygon fill="#63b8ff" stroke="#63b8ff" points="490.09,-71.69 497.98,-64.61 487.4,-65.23 490.09,-71.69"/>
</a>
</g>
</g>
</g>
</svg>
