<?xml version="1.0" encoding="UTF-8" standalone="no"?>
<!DOCTYPE svg PUBLIC "-//W3C//DTD SVG 1.1//EN"
 "http://www.w3.org/Graphics/SVG/1.1/DTD/svg11.dtd">
<!-- Generated by graphviz version 13.1.2 (20250808.2320)
 -->
<!-- Title: svg::iframe_element Pages: 1 -->
<svg width="110pt" height="133pt"
 viewBox="0.00 0.00 110.00 133.00" xmlns="http://www.w3.org/2000/svg" xmlns:xlink="http://www.w3.org/1999/xlink">
<g id="graph0" class="graph" transform="scale(1 1) rotate(0) translate(4 129.25)">
<title>svg::iframe_element</title>
<!-- Node1 -->
<g id="Node000001" class="node">
<title>Node1</title>
<g id="a_Node000001"><a xlink:title="iframe HTML object embedded in SVG container. NB: HTML elements video/audio/iframe/canvas can be used...">
<polygon fill="#999999" stroke="#666666" points="101.12,-17.75 1.12,-17.75 1.12,0 101.12,0 101.12,-17.75"/>
<text xml:space="preserve" text-anchor="middle" x="51.12" y="-6.15" font-family="SourceSans" font-size="8.00">svg::iframe_element</text>
</a>
</g>
</g>
<!-- Node2 -->
<g id="Node000002" class="node">
<title>Node2</title>
<g id="a_Node000002"><a xlink:href="group__elements.html#structsvg_1_1foreign__element" target="_top" xlink:title=" ">
<polygon fill="white" stroke="#666666" points="102.25,-71.5 0,-71.5 0,-53.75 102.25,-53.75 102.25,-71.5"/>
<text xml:space="preserve" text-anchor="middle" x="51.12" y="-59.9" font-family="SourceSans" font-size="8.00">svg::foreign_element</text>
</a>
</g>
</g>
<!-- Node2&#45;&gt;Node1 -->
<g id="edge1_Node000001_Node000002" class="edge">
<title>Node2&#45;&gt;Node1</title>
<g id="a_edge1_Node000001_Node000002"><a xlink:title=" ">
<path fill="none" stroke="#63b8ff" d="M51.12,-42.11C51.12,-33.79 51.12,-24.53 51.12,-18.07"/>
<polygon fill="#63b8ff" stroke="#63b8ff" points="47.63,-42.03 51.13,-52.03 54.63,-42.03 47.63,-42.03"/>
</a>
</g>
</g>
<!-- Node3 -->
<g id="Node000003" class="node">
<title>Node3</title>
<g id="a_Node000003"><a xlink:href="group__elements.html#structsvg_1_1element__base" target="_top" xlink:title="Abstract base class for all SVG Elements.">
<polygon fill="white" stroke="#666666" points="98.12,-125.25 4.12,-125.25 4.12,-107.5 98.12,-107.5 98.12,-125.25"/>
<text xml:space="preserve" text-anchor="middle" x="51.12" y="-113.65" font-family="SourceSans" font-size="8.00">svg::element_base</text>
</a>
</g>
</g>
<!-- Node3&#45;&gt;Node2 -->
<g id="edge2_Node000002_Node000003" class="edge">
<title>Node3&#45;&gt;Node2</title>
<g id="a_edge2_Node000002_Node000003"><a xlink:title=" ">
<path fill="none" stroke="#63b8ff" d="M51.12,-95.86C51.12,-87.54 51.12,-78.28 51.12,-71.82"/>
<polygon fill="#63b8ff" stroke="#63b8ff" points="47.63,-95.78 51.13,-105.78 54.63,-95.78 47.63,-95.78"/>
</a>
</g>
</g>
</g>
</svg>
