<?xml version="1.0" encoding="UTF-8" standalone="no"?>
<!DOCTYPE svg PUBLIC "-//W3C//DTD SVG 1.1//EN"
 "http://www.w3.org/Graphics/SVG/1.1/DTD/svg11.dtd">
<!-- Generated by graphviz version 13.1.2 (20250808.2320)
 -->
<!-- Title: svg::color_qf::tint_percentage Pages: 1 -->
<svg width="361pt" height="57pt"
 viewBox="0.00 0.00 361.00 57.00" xmlns="http://www.w3.org/2000/svg" xmlns:xlink="http://www.w3.org/1999/xlink">
<g id="graph0" class="graph" transform="scale(1 1) rotate(0) translate(4 52.5)">
<title>svg::color_qf::tint_percentage</title>
<!-- Node1 -->
<g id="Node000001" class="node">
<title>Node1</title>
<g id="a_Node000001"><a xlink:title="Procedural tinting algorithm.">
<polygon fill="#999999" stroke="#666666" points="87.25,-48.5 0,-48.5 0,-21 87.25,-21 87.25,-48.5"/>
<text xml:space="preserve" text-anchor="start" x="8" y="-36.9" font-family="SourceSans" font-size="8.00">svg::color_qf::tint</text>
<text xml:space="preserve" text-anchor="middle" x="43.62" y="-27.15" font-family="SourceSans" font-size="8.00">_percentage</text>
</a>
</g>
</g>
<!-- Node2 -->
<g id="Node000002" class="node">
<title>Node2</title>
<g id="a_Node000002"><a xlink:href="structsvg_1_1color__qf.html#a71b97e4790d97beccdfa456e0ca826ae" target="_top" xlink:title="Value between 0.0 (black) and 1.0.">
<polygon fill="white" stroke="#666666" points="353.25,-43.62 247.25,-43.62 247.25,-25.88 353.25,-25.88 353.25,-43.62"/>
<text xml:space="preserve" text-anchor="middle" x="300.25" y="-32.02" font-family="SourceSans" font-size="8.00">svg::color_qf::color_qf</text>
</a>
</g>
</g>
<!-- Node1&#45;&gt;Node2 -->
<g id="edge1_Node000001_Node000002" class="edge">
<title>Node1&#45;&gt;Node2</title>
<g id="a_edge1_Node000001_Node000002"><a xlink:title=" ">
<path fill="none" stroke="#63b8ff" d="M87.47,-36.04C99.08,-36.33 111.64,-36.6 123.25,-36.75 162.36,-37.25 172.14,-37.19 211.25,-36.75 219.14,-36.66 227.43,-36.53 235.64,-36.37"/>
<polygon fill="#63b8ff" stroke="#63b8ff" points="235.7,-39.87 245.62,-36.16 235.55,-32.87 235.7,-39.87"/>
</a>
</g>
</g>
<!-- Node3 -->
<g id="Node000003" class="node">
<title>Node3</title>
<g id="a_Node000003"><a xlink:href="structsvg_1_1color__qf.html#afda5a84e91104dc0aabf79b1d3907f7a" target="_top" xlink:title="Convert HSV to RGB.">
<polygon fill="white" stroke="#666666" points="211.25,-27.5 123.25,-27.5 123.25,0 211.25,0 211.25,-27.5"/>
<text xml:space="preserve" text-anchor="start" x="131.25" y="-15.9" font-family="SourceSans" font-size="8.00">svg::color_qf::hsv</text>
<text xml:space="preserve" text-anchor="middle" x="167.25" y="-6.15" font-family="SourceSans" font-size="8.00">_to_rgb</text>
</a>
</g>
</g>
<!-- Node1&#45;&gt;Node3 -->
<g id="edge2_Node000001_Node000003" class="edge">
<title>Node1&#45;&gt;Node3</title>
<g id="a_edge2_Node000001_Node000003"><a xlink:title=" ">
<path fill="none" stroke="#63b8ff" d="M87.51,-27.35C95.31,-26 103.56,-24.57 111.65,-23.18"/>
<polygon fill="#63b8ff" stroke="#63b8ff" points="112.19,-26.64 121.44,-21.49 110.99,-19.74 112.19,-26.64"/>
</a>
</g>
</g>
<!-- Node3&#45;&gt;Node2 -->
<g id="edge3_Node000003_Node000002" class="edge">
<title>Node3&#45;&gt;Node2</title>
<g id="a_edge3_Node000003_Node000002"><a xlink:title=" ">
<path fill="none" stroke="#63b8ff" d="M211.51,-20.68C219.3,-21.93 227.56,-23.26 235.78,-24.58"/>
<polygon fill="#63b8ff" stroke="#63b8ff" points="234.99,-27.99 245.42,-26.12 236.1,-21.08 234.99,-27.99"/>
</a>
</g>
</g>
</g>
</svg>
