<?xml version="1.0" encoding="UTF-8" standalone="no"?>
<!DOCTYPE svg PUBLIC "-//W3C//DTD SVG 1.1//EN"
 "http://www.w3.org/Graphics/SVG/1.1/DTD/svg11.dtd">
<!-- Generated by graphviz version 12.2.1 (20241206.2353)
 -->
<!-- Title: svg::element_base Pages: 1 -->
<svg width="498pt" height="636pt"
 viewBox="0.00 0.00 498.00 636.00" xmlns="http://www.w3.org/2000/svg" xmlns:xlink="http://www.w3.org/1999/xlink">
<g id="graph0" class="graph" transform="scale(1 1) rotate(0) translate(4 632)">
<title>svg::element_base</title>
<!-- Node1 -->
<g id="Node000001" class="node">
<title>Node1</title>
<g id="a_Node000001"><a xlink:title="Abstract base class for all SVG Elements.">
<polygon fill="#999999" stroke="#666666" points="86.5,-324 0,-324 0,-304 86.5,-304 86.5,-324"/>
<text text-anchor="middle" x="43.25" y="-312.4" font-family="SourceSans" font-size="8.00">svg::element_base</text>
</a>
</g>
</g>
<!-- Node2 -->
<g id="Node000002" class="node">
<title>Node2</title>
<g id="a_Node000002"><a xlink:href="group__elements.html#structsvg_1_1circle__element" target="_top" xlink:title=" ">
<polygon fill="white" stroke="#666666" points="215.75,-628 127.75,-628 127.75,-608 215.75,-608 215.75,-628"/>
<text text-anchor="middle" x="171.75" y="-616.4" font-family="SourceSans" font-size="8.00">svg::circle_element</text>
</a>
</g>
</g>
<!-- Node1&#45;&gt;Node2 -->
<g id="edge1_Node000001_Node000002" class="edge">
<title>Node1&#45;&gt;Node2</title>
<g id="a_edge1_Node000001_Node000002"><a xlink:title=" ">
<path fill="none" stroke="#63b8ff" d="M43.97,-335.77C44.49,-387.95 52.96,-521.58 122.5,-599 125.63,-602.48 129.48,-605.33 133.62,-607.67"/>
<polygon fill="#63b8ff" stroke="#63b8ff" points="47.47,-335.86 43.98,-325.85 40.47,-335.85 47.47,-335.86"/>
</a>
</g>
</g>
<!-- Node3 -->
<g id="Node000003" class="node">
<title>Node3</title>
<g id="a_Node000003"><a xlink:href="group__elements.html#structsvg_1_1defs__element" target="_top" xlink:title=" ">
<polygon fill="white" stroke="#666666" points="214.25,-590 129.25,-590 129.25,-570 214.25,-570 214.25,-590"/>
<text text-anchor="middle" x="171.75" y="-578.4" font-family="SourceSans" font-size="8.00">svg::defs_element</text>
</a>
</g>
</g>
<!-- Node1&#45;&gt;Node3 -->
<g id="edge2_Node000001_Node000003" class="edge">
<title>Node1&#45;&gt;Node3</title>
<g id="a_edge2_Node000001_Node000003"><a xlink:title=" ">
<path fill="none" stroke="#63b8ff" d="M45.08,-335.71C48.04,-382.87 61.47,-495.65 122.5,-561 125.7,-564.42 129.58,-567.24 133.75,-569.55"/>
<polygon fill="#63b8ff" stroke="#63b8ff" points="48.59,-335.8 44.58,-326 41.6,-336.16 48.59,-335.8"/>
</a>
</g>
</g>
<!-- Node7 -->
<g id="Node000007" class="node">
<title>Node7</title>
<g id="a_Node000007"><a xlink:href="group__elements.html#structsvg_1_1desc__element" target="_top" xlink:title=" ">
<polygon fill="white" stroke="#666666" points="214.62,-552 128.88,-552 128.88,-532 214.62,-532 214.62,-552"/>
<text text-anchor="middle" x="171.75" y="-540.4" font-family="SourceSans" font-size="8.00">svg::desc_element</text>
</a>
</g>
</g>
<!-- Node1&#45;&gt;Node7 -->
<g id="edge6_Node000001_Node000007" class="edge">
<title>Node1&#45;&gt;Node7</title>
<g id="a_edge6_Node000001_Node000007"><a xlink:title=" ">
<path fill="none" stroke="#63b8ff" d="M46.53,-335.45C52.05,-377.07 69.82,-469.42 122.5,-523 125.91,-526.47 130.03,-529.32 134.4,-531.65"/>
<polygon fill="#63b8ff" stroke="#63b8ff" points="50.03,-335.27 45.36,-325.76 43.08,-336.11 50.03,-335.27"/>
</a>
</g>
</g>
<!-- Node8 -->
<g id="Node000008" class="node">
<title>Node8</title>
<g id="a_Node000008"><a xlink:href="group__elements.html#structsvg_1_1filter__element" target="_top" xlink:title=" ">
<polygon fill="white" stroke="#666666" points="214.62,-514 128.88,-514 128.88,-494 214.62,-494 214.62,-514"/>
<text text-anchor="middle" x="171.75" y="-502.4" font-family="SourceSans" font-size="8.00">svg::filter_element</text>
</a>
</g>
</g>
<!-- Node1&#45;&gt;Node8 -->
<g id="edge7_Node000001_Node000008" class="edge">
<title>Node1&#45;&gt;Node8</title>
<g id="a_edge7_Node000001_Node000008"><a xlink:title=" ">
<path fill="none" stroke="#63b8ff" d="M48.59,-335.44C56.87,-371.16 78.19,-443.02 122.5,-485 126.16,-488.47 130.53,-491.33 135.12,-493.68"/>
<polygon fill="#63b8ff" stroke="#63b8ff" points="52.06,-334.93 46.51,-325.91 45.22,-336.42 52.06,-334.93"/>
</a>
</g>
</g>
<!-- Node9 -->
<g id="Node000009" class="node">
<title>Node9</title>
<g id="a_Node000009"><a xlink:href="group__elements.html#structsvg_1_1foreign__element" target="_top" xlink:title=" ">
<polygon fill="white" stroke="#666666" points="219.88,-476 123.62,-476 123.62,-456 219.88,-456 219.88,-476"/>
<text text-anchor="middle" x="171.75" y="-464.4" font-family="SourceSans" font-size="8.00">svg::foreign_element</text>
</a>
</g>
</g>
<!-- Node1&#45;&gt;Node9 -->
<g id="edge8_Node000001_Node000009" class="edge">
<title>Node1&#45;&gt;Node9</title>
<g id="a_edge8_Node000001_Node000009"><a xlink:title=" ">
<path fill="none" stroke="#63b8ff" d="M51.44,-334.69C62.47,-363.58 86.16,-415.95 122.5,-447 126.47,-450.39 131.12,-453.22 135.93,-455.57"/>
<polygon fill="#63b8ff" stroke="#63b8ff" points="54.85,-333.81 48.13,-325.62 48.27,-336.21 54.85,-333.81"/>
</a>
</g>
</g>
<!-- Node13 -->
<g id="Node000013" class="node">
<title>Node13</title>
<g id="a_Node000013"><a xlink:href="group__elements.html#structsvg_1_1group__element" target="_top" xlink:title=" ">
<polygon fill="white" stroke="#666666" points="217.62,-438 125.88,-438 125.88,-418 217.62,-418 217.62,-438"/>
<text text-anchor="middle" x="171.75" y="-426.4" font-family="SourceSans" font-size="8.00">svg::group_element</text>
</a>
</g>
</g>
<!-- Node1&#45;&gt;Node13 -->
<g id="edge12_Node000001_Node000013" class="edge">
<title>Node1&#45;&gt;Node13</title>
<g id="a_edge12_Node000001_Node000013"><a xlink:title=" ">
<path fill="none" stroke="#63b8ff" d="M56.26,-333.91C69.94,-355.1 94.11,-388.37 122.5,-409 127.09,-412.33 132.34,-415.18 137.65,-417.57"/>
<polygon fill="#63b8ff" stroke="#63b8ff" points="59.33,-332.22 51.06,-325.6 53.4,-335.94 59.33,-332.22"/>
</a>
</g>
</g>
<!-- Node14 -->
<g id="Node000014" class="node">
<title>Node14</title>
<g id="a_Node000014"><a xlink:href="group__elements.html#structsvg_1_1image__element" target="_top" xlink:title=" ">
<polygon fill="white" stroke="#666666" points="218,-400 125.5,-400 125.5,-380 218,-380 218,-400"/>
<text text-anchor="middle" x="171.75" y="-388.4" font-family="SourceSans" font-size="8.00">svg::image_element</text>
</a>
</g>
</g>
<!-- Node1&#45;&gt;Node14 -->
<g id="edge13_Node000001_Node000014" class="edge">
<title>Node1&#45;&gt;Node14</title>
<g id="a_edge13_Node000001_Node000014"><a xlink:title=" ">
<path fill="none" stroke="#63b8ff" d="M64.93,-331.32C80.17,-343.51 101.76,-359.61 122.5,-371 128.18,-374.12 134.48,-376.99 140.61,-379.5"/>
<polygon fill="#63b8ff" stroke="#63b8ff" points="67.47,-328.87 57.5,-325.27 63.05,-334.3 67.47,-328.87"/>
</a>
</g>
</g>
<!-- Node15 -->
<g id="Node000015" class="node">
<title>Node15</title>
<g id="a_Node000015"><a xlink:href="group__elements.html#structsvg_1_1line__element" target="_top" xlink:title=" ">
<polygon fill="white" stroke="#666666" points="213.12,-362 130.38,-362 130.38,-342 213.12,-342 213.12,-362"/>
<text text-anchor="middle" x="171.75" y="-350.4" font-family="SourceSans" font-size="8.00">svg::line_element</text>
</a>
</g>
</g>
<!-- Node1&#45;&gt;Node15 -->
<g id="edge14_Node000001_Node000015" class="edge">
<title>Node1&#45;&gt;Node15</title>
<g id="a_edge14_Node000001_Node000015"><a xlink:title=" ">
<path fill="none" stroke="#63b8ff" d="M89.89,-327.71C105.08,-332.27 121.73,-337.28 135.96,-341.55"/>
<polygon fill="#63b8ff" stroke="#63b8ff" points="91.19,-324.44 80.6,-324.92 89.17,-331.15 91.19,-324.44"/>
</a>
</g>
</g>
<!-- Node16 -->
<g id="Node000016" class="node">
<title>Node16</title>
<g id="a_Node000016"><a xlink:href="group__elements.html#structsvg_1_1link__element" target="_top" xlink:title=" ">
<polygon fill="white" stroke="#666666" points="213.12,-324 130.38,-324 130.38,-304 213.12,-304 213.12,-324"/>
<text text-anchor="middle" x="171.75" y="-312.4" font-family="SourceSans" font-size="8.00">svg::link_element</text>
</a>
</g>
</g>
<!-- Node1&#45;&gt;Node16 -->
<g id="edge15_Node000001_Node000016" class="edge">
<title>Node1&#45;&gt;Node16</title>
<g id="a_edge15_Node000001_Node000016"><a xlink:title=" ">
<path fill="none" stroke="#63b8ff" d="M98.08,-314C108.73,-314 119.75,-314 129.89,-314"/>
<polygon fill="#63b8ff" stroke="#63b8ff" points="98.24,-310.5 88.24,-314 98.24,-317.5 98.24,-310.5"/>
</a>
</g>
</g>
<!-- Node17 -->
<g id="Node000017" class="node">
<title>Node17</title>
<g id="a_Node000017"><a xlink:href="group__elements.html#structsvg_1_1marker__element" target="_top" xlink:title=" ">
<polygon fill="white" stroke="#666666" points="219.5,-286 124,-286 124,-266 219.5,-266 219.5,-286"/>
<text text-anchor="middle" x="171.75" y="-274.4" font-family="SourceSans" font-size="8.00">svg::marker_element</text>
</a>
</g>
</g>
<!-- Node1&#45;&gt;Node17 -->
<g id="edge16_Node000001_Node000017" class="edge">
<title>Node1&#45;&gt;Node17</title>
<g id="a_edge16_Node000001_Node000017"><a xlink:title=" ">
<path fill="none" stroke="#63b8ff" d="M89.89,-300.29C105.08,-295.73 121.73,-290.72 135.96,-286.45"/>
<polygon fill="#63b8ff" stroke="#63b8ff" points="89.17,-296.85 80.6,-303.08 91.19,-303.56 89.17,-296.85"/>
</a>
</g>
</g>
<!-- Node18 -->
<g id="Node000018" class="node">
<title>Node18</title>
<g id="a_Node000018"><a xlink:href="group__elements.html#structsvg_1_1path__element" target="_top" xlink:title=" ">
<polygon fill="white" stroke="#666666" points="215,-248 128.5,-248 128.5,-228 215,-228 215,-248"/>
<text text-anchor="middle" x="171.75" y="-236.4" font-family="SourceSans" font-size="8.00">svg::path_element</text>
</a>
</g>
</g>
<!-- Node1&#45;&gt;Node18 -->
<g id="edge17_Node000001_Node000018" class="edge">
<title>Node1&#45;&gt;Node18</title>
<g id="a_edge17_Node000001_Node000018"><a xlink:title=" ">
<path fill="none" stroke="#63b8ff" d="M64.93,-296.68C80.17,-284.49 101.76,-268.39 122.5,-257 128.18,-253.88 134.48,-251.01 140.61,-248.5"/>
<polygon fill="#63b8ff" stroke="#63b8ff" points="63.05,-293.7 57.5,-302.73 67.47,-299.13 63.05,-293.7"/>
</a>
</g>
</g>
<!-- Node19 -->
<g id="Node000019" class="node">
<title>Node19</title>
<g id="a_Node000019"><a xlink:href="group__elements.html#structsvg_1_1polyline__element" target="_top" xlink:title=" ">
<polygon fill="white" stroke="#666666" points="221,-210 122.5,-210 122.5,-190 221,-190 221,-210"/>
<text text-anchor="middle" x="171.75" y="-198.4" font-family="SourceSans" font-size="8.00">svg::polyline_element</text>
</a>
</g>
</g>
<!-- Node1&#45;&gt;Node19 -->
<g id="edge18_Node000001_Node000019" class="edge">
<title>Node1&#45;&gt;Node19</title>
<g id="a_edge18_Node000001_Node000019"><a xlink:title=" ">
<path fill="none" stroke="#63b8ff" d="M56.26,-294.09C69.94,-272.9 94.11,-239.63 122.5,-219 127.09,-215.67 132.34,-212.82 137.65,-210.43"/>
<polygon fill="#63b8ff" stroke="#63b8ff" points="53.4,-292.06 51.06,-302.4 59.33,-295.78 53.4,-292.06"/>
</a>
</g>
</g>
<!-- Node20 -->
<g id="Node000020" class="node">
<title>Node20</title>
<g id="a_Node000020"><a xlink:href="group__elements.html#structsvg_1_1rect__element" target="_top" xlink:title=" ">
<polygon fill="white" stroke="#666666" points="213.12,-172 130.38,-172 130.38,-152 213.12,-152 213.12,-172"/>
<text text-anchor="middle" x="171.75" y="-160.4" font-family="SourceSans" font-size="8.00">svg::rect_element</text>
</a>
</g>
</g>
<!-- Node1&#45;&gt;Node20 -->
<g id="edge19_Node000001_Node000020" class="edge">
<title>Node1&#45;&gt;Node20</title>
<g id="a_edge19_Node000001_Node000020"><a xlink:title=" ">
<path fill="none" stroke="#63b8ff" d="M51.44,-293.31C62.47,-264.42 86.16,-212.05 122.5,-181 126.47,-177.61 131.12,-174.78 135.93,-172.43"/>
<polygon fill="#63b8ff" stroke="#63b8ff" points="48.27,-291.79 48.13,-302.38 54.85,-294.19 48.27,-291.79"/>
</a>
</g>
</g>
<!-- Node21 -->
<g id="Node000021" class="node">
<title>Node21</title>
<g id="a_Node000021"><a xlink:href="group__elements.html#structsvg_1_1script__element" target="_top" xlink:title=" ">
<polygon fill="white" stroke="#666666" points="216.5,-134 127,-134 127,-114 216.5,-114 216.5,-134"/>
<text text-anchor="middle" x="171.75" y="-122.4" font-family="SourceSans" font-size="8.00">svg::script_element</text>
</a>
</g>
</g>
<!-- Node1&#45;&gt;Node21 -->
<g id="edge20_Node000001_Node000021" class="edge">
<title>Node1&#45;&gt;Node21</title>
<g id="a_edge20_Node000001_Node000021"><a xlink:title=" ">
<path fill="none" stroke="#63b8ff" d="M48.59,-292.56C56.87,-256.84 78.19,-184.98 122.5,-143 126.16,-139.53 130.53,-136.67 135.12,-134.32"/>
<polygon fill="#63b8ff" stroke="#63b8ff" points="45.22,-291.58 46.51,-302.09 52.06,-293.07 45.22,-291.58"/>
</a>
</g>
</g>
<!-- Node22 -->
<g id="Node000022" class="node">
<title>Node22</title>
<g id="a_Node000022"><a xlink:href="group__elements.html#structsvg_1_1svg__element" target="_top" xlink:title=" ">
<polygon fill="white" stroke="#666666" points="212.38,-96 131.12,-96 131.12,-76 212.38,-76 212.38,-96"/>
<text text-anchor="middle" x="171.75" y="-84.4" font-family="SourceSans" font-size="8.00">svg::svg_element</text>
</a>
</g>
</g>
<!-- Node1&#45;&gt;Node22 -->
<g id="edge21_Node000001_Node000022" class="edge">
<title>Node1&#45;&gt;Node22</title>
<g id="a_edge21_Node000001_Node000022"><a xlink:title=" ">
<path fill="none" stroke="#63b8ff" d="M46.53,-292.55C52.05,-250.93 69.82,-158.58 122.5,-105 125.91,-101.53 130.03,-98.68 134.4,-96.35"/>
<polygon fill="#63b8ff" stroke="#63b8ff" points="43.08,-291.89 45.36,-302.24 50.03,-292.73 43.08,-291.89"/>
</a>
</g>
</g>
<!-- Node23 -->
<g id="Node000023" class="node">
<title>Node23</title>
<g id="a_Node000023"><a xlink:href="group__elements.html#structsvg_1_1text__element" target="_top" xlink:title=" ">
<polygon fill="white" stroke="#666666" points="213.5,-58 130,-58 130,-38 213.5,-38 213.5,-58"/>
<text text-anchor="middle" x="171.75" y="-46.4" font-family="SourceSans" font-size="8.00">svg::text_element</text>
</a>
</g>
</g>
<!-- Node1&#45;&gt;Node23 -->
<g id="edge22_Node000001_Node000023" class="edge">
<title>Node1&#45;&gt;Node23</title>
<g id="a_edge22_Node000001_Node000023"><a xlink:title=" ">
<path fill="none" stroke="#63b8ff" d="M45.08,-292.29C48.04,-245.13 61.47,-132.35 122.5,-67 125.7,-63.58 129.58,-60.76 133.75,-58.45"/>
<polygon fill="#63b8ff" stroke="#63b8ff" points="41.6,-291.84 44.58,-302 48.59,-292.2 41.6,-291.84"/>
</a>
</g>
</g>
<!-- Node25 -->
<g id="Node000025" class="node">
<title>Node25</title>
<g id="a_Node000025"><a xlink:href="group__elements.html#structsvg_1_1title__element" target="_top" xlink:title=" ">
<polygon fill="white" stroke="#666666" points="213.5,-20 130,-20 130,0 213.5,0 213.5,-20"/>
<text text-anchor="middle" x="171.75" y="-8.4" font-family="SourceSans" font-size="8.00">svg::title_element</text>
</a>
</g>
</g>
<!-- Node1&#45;&gt;Node25 -->
<g id="edge24_Node000001_Node000025" class="edge">
<title>Node1&#45;&gt;Node25</title>
<g id="a_edge24_Node000001_Node000025"><a xlink:title=" ">
<path fill="none" stroke="#63b8ff" d="M43.97,-292.23C44.49,-240.05 52.96,-106.42 122.5,-29 125.63,-25.52 129.48,-22.67 133.62,-20.33"/>
<polygon fill="#63b8ff" stroke="#63b8ff" points="40.47,-292.15 43.98,-302.15 47.47,-292.14 40.47,-292.15"/>
</a>
</g>
</g>
<!-- Node4 -->
<g id="Node000004" class="node">
<title>Node4</title>
<g id="a_Node000004"><a xlink:href="group__elements.html#structsvg_1_1gradient__element" target="_top" xlink:title=" ">
<polygon fill="white" stroke="#666666" points="360.38,-590 258.88,-590 258.88,-570 360.38,-570 360.38,-590"/>
<text text-anchor="middle" x="309.62" y="-578.4" font-family="SourceSans" font-size="8.00">svg::gradient_element</text>
</a>
</g>
</g>
<!-- Node3&#45;&gt;Node4 -->
<g id="edge3_Node000003_Node000004" class="edge">
<title>Node3&#45;&gt;Node4</title>
<g id="a_edge3_Node000003_Node000004"><a xlink:title=" ">
<path fill="none" stroke="#63b8ff" d="M225.99,-580C236.71,-580 247.93,-580 258.53,-580"/>
<polygon fill="#63b8ff" stroke="#63b8ff" points="226.14,-576.5 216.14,-580 226.14,-583.5 226.14,-576.5"/>
</a>
</g>
</g>
<!-- Node5 -->
<g id="Node000005" class="node">
<title>Node5</title>
<g id="a_Node000005"><a xlink:href="group__elements.html#structsvg_1_1linear__gradient" target="_top" xlink:title="Linear gradients https://developer.mozilla.org/en&#45;US/docs/Web/SVG/Element/linearGradient.">
<polygon fill="white" stroke="#666666" points="490,-609 398.25,-609 398.25,-589 490,-589 490,-609"/>
<text text-anchor="middle" x="444.12" y="-597.4" font-family="SourceSans" font-size="8.00">svg::linear_gradient</text>
</a>
</g>
</g>
<!-- Node4&#45;&gt;Node5 -->
<g id="edge4_Node000004_Node000005" class="edge">
<title>Node4&#45;&gt;Node5</title>
<g id="a_edge4_Node000004_Node000005"><a xlink:title=" ">
<path fill="none" stroke="#63b8ff" d="M372,-588.8C380.67,-590.04 389.46,-591.3 397.75,-592.49"/>
<polygon fill="#63b8ff" stroke="#63b8ff" points="372.61,-585.35 362.22,-587.4 371.62,-592.28 372.61,-585.35"/>
</a>
</g>
</g>
<!-- Node6 -->
<g id="Node000006" class="node">
<title>Node6</title>
<g id="a_Node000006"><a xlink:href="group__elements.html#structsvg_1_1radial__gradient" target="_top" xlink:title="Circular gradients https://developer.mozilla.org/en&#45;US/docs/Web/SVG/Element/radialGradient.">
<polygon fill="white" stroke="#666666" points="490,-571 398.25,-571 398.25,-551 490,-551 490,-571"/>
<text text-anchor="middle" x="444.12" y="-559.4" font-family="SourceSans" font-size="8.00">svg::radial_gradient</text>
</a>
</g>
</g>
<!-- Node4&#45;&gt;Node6 -->
<g id="edge5_Node000004_Node000006" class="edge">
<title>Node4&#45;&gt;Node6</title>
<g id="a_edge5_Node000004_Node000006"><a xlink:title=" ">
<path fill="none" stroke="#63b8ff" d="M372,-571.2C380.67,-569.96 389.46,-568.7 397.75,-567.51"/>
<polygon fill="#63b8ff" stroke="#63b8ff" points="371.62,-567.72 362.22,-572.6 372.61,-574.65 371.62,-567.72"/>
</a>
</g>
</g>
<!-- Node10 -->
<g id="Node000010" class="node">
<title>Node10</title>
<g id="a_Node000010"><a xlink:href="group__elements.html#structsvg_1_1iframe__element" target="_top" xlink:title="iframe HTML object embedded in SVG container. NB: HTML elements video/audio/iframe/canvas can be used...">
<polygon fill="white" stroke="#666666" points="356.25,-514 263,-514 263,-494 356.25,-494 356.25,-514"/>
<text text-anchor="middle" x="309.62" y="-502.4" font-family="SourceSans" font-size="8.00">svg::iframe_element</text>
</a>
</g>
</g>
<!-- Node9&#45;&gt;Node10 -->
<g id="edge9_Node000009_Node000010" class="edge">
<title>Node9&#45;&gt;Node10</title>
<g id="a_edge9_Node000009_Node000010"><a xlink:title=" ">
<path fill="none" stroke="#63b8ff" d="M221.3,-479.58C237.74,-484.18 255.83,-489.23 271.26,-493.55"/>
<polygon fill="#63b8ff" stroke="#63b8ff" points="222.27,-476.21 211.7,-476.89 220.38,-482.96 222.27,-476.21"/>
</a>
</g>
</g>
<!-- Node11 -->
<g id="Node000011" class="node">
<title>Node11</title>
<g id="a_Node000011"><a xlink:href="group__elements.html#structsvg_1_1object__element" target="_top" xlink:title="HTML object embedded in SVG container. Unlike image_elements, object_elements are not locked down for...">
<polygon fill="white" stroke="#666666" points="355.5,-476 263.75,-476 263.75,-456 355.5,-456 355.5,-476"/>
<text text-anchor="middle" x="309.62" y="-464.4" font-family="SourceSans" font-size="8.00">svg::object_element</text>
</a>
</g>
</g>
<!-- Node9&#45;&gt;Node11 -->
<g id="edge10_Node000009_Node000011" class="edge">
<title>Node9&#45;&gt;Node11</title>
<g id="a_edge10_Node000009_Node000011"><a xlink:title=" ">
<path fill="none" stroke="#63b8ff" d="M231.72,-466C242.42,-466 253.42,-466 263.64,-466"/>
<polygon fill="#63b8ff" stroke="#63b8ff" points="231.79,-462.5 221.79,-466 231.79,-469.5 231.79,-462.5"/>
</a>
</g>
</g>
<!-- Node12 -->
<g id="Node000012" class="node">
<title>Node12</title>
<g id="a_Node000012"><a xlink:href="group__elements.html#structsvg_1_1video__element" target="_top" xlink:title="video HTML object embedded in SVG container. NB: HTML elements video/audio/iframe/canvas can be used ...">
<polygon fill="white" stroke="#666666" points="354,-438 265.25,-438 265.25,-418 354,-418 354,-438"/>
<text text-anchor="middle" x="309.62" y="-426.4" font-family="SourceSans" font-size="8.00">svg::video_element</text>
</a>
</g>
</g>
<!-- Node9&#45;&gt;Node12 -->
<g id="edge11_Node000009_Node000012" class="edge">
<title>Node9&#45;&gt;Node12</title>
<g id="a_edge11_Node000009_Node000012"><a xlink:title=" ">
<path fill="none" stroke="#63b8ff" d="M221.3,-452.42C237.74,-447.82 255.83,-442.77 271.26,-438.45"/>
<polygon fill="#63b8ff" stroke="#63b8ff" points="220.38,-449.04 211.7,-455.11 222.27,-455.79 220.38,-449.04"/>
</a>
</g>
</g>
<!-- Node24 -->
<g id="Node000024" class="node">
<title>Node24</title>
<g id="a_Node000024"><a xlink:href="group__elements.html#structsvg_1_1text__path__element" target="_top" xlink:title=" ">
<polygon fill="white" stroke="#666666" points="362.25,-58 257,-58 257,-38 362.25,-38 362.25,-58"/>
<text text-anchor="middle" x="309.62" y="-46.4" font-family="SourceSans" font-size="8.00">svg::text_path_element</text>
</a>
</g>
</g>
<!-- Node23&#45;&gt;Node24 -->
<g id="edge23_Node000023_Node000024" class="edge">
<title>Node23&#45;&gt;Node24</title>
<g id="a_edge23_Node000023_Node000024"><a xlink:title=" ">
<path fill="none" stroke="#63b8ff" d="M225.23,-48C235.51,-48 246.28,-48 256.55,-48"/>
<polygon fill="#63b8ff" stroke="#63b8ff" points="225.4,-44.5 215.4,-48 225.4,-51.5 225.4,-44.5"/>
</a>
</g>
</g>
</g>
</svg>
