<?xml version="1.0" encoding="UTF-8" standalone="no"?>
<!DOCTYPE svg PUBLIC "-//W3C//DTD SVG 1.1//EN"
 "http://www.w3.org/Graphics/SVG/1.1/DTD/svg11.dtd">
<!-- Generated by graphviz version 9.0.0 (20230911.1827)
 -->
<!-- Title: svg::color_qi::color_qi Pages: 1 -->
<svg width="366pt" height="91pt"
 viewBox="0.00 0.00 365.75 91.00" xmlns="http://www.w3.org/2000/svg" xmlns:xlink="http://www.w3.org/1999/xlink">
<g id="graph0" class="graph" transform="scale(1 1) rotate(0) translate(4 87)">
<title>svg::color_qi::color_qi</title>
<!-- Node1 -->
<g id="Node000001" class="node">
<title>Node1</title>
<g id="a_Node000001"><a xlink:title=" ">
<polygon fill="#999999" stroke="#666666" points="96.25,-42 0,-42 0,-22 96.25,-22 96.25,-42"/>
<text text-anchor="middle" x="48.12" y="-30.4" font-family="SourceSans" font-size="8.00">svg::color_qi::color_qi</text>
</a>
</g>
</g>
<!-- Node2 -->
<g id="Node000002" class="node">
<title>Node2</title>
<g id="a_Node000002"><a xlink:href="structsvg_1_1color__qi.html#acc30d5e29a06124b1a8ff4d528f2a440" target="_top" xlink:title=" ">
<polygon fill="white" stroke="#666666" points="217.25,-70 132.25,-70 132.25,-38 217.25,-38 217.25,-70"/>
<text text-anchor="start" x="140.25" y="-58.4" font-family="SourceSans" font-size="8.00">svg::color_qi::from</text>
<text text-anchor="middle" x="174.75" y="-46.4" font-family="SourceSans" font-size="8.00">_string</text>
</a>
</g>
</g>
<!-- Node1&#45;&gt;Node2 -->
<g id="edge1_Node000001_Node000002" class="edge">
<title>Node1&#45;&gt;Node2</title>
<g id="a_edge1_Node000001_Node000002"><a xlink:title=" ">
<path fill="none" stroke="#63b8ff" d="M96.6,-40.38C104.54,-41.78 112.83,-43.25 120.91,-44.67"/>
<polygon fill="#63b8ff" stroke="#63b8ff" points="120.17,-48.1 130.63,-46.39 121.39,-41.2 120.17,-48.1"/>
</a>
</g>
</g>
<!-- Node5 -->
<g id="Node000005" class="node">
<title>Node5</title>
<g id="a_Node000005"><a xlink:href="namespacesvg.html#a36b1c48ad4601b205790e3772ad0a7b6" target="_top" xlink:title=" ">
<polygon fill="white" stroke="#666666" points="208.25,-20 141.25,-20 141.25,0 208.25,0 208.25,-20"/>
<text text-anchor="middle" x="174.75" y="-8.4" font-family="SourceSans" font-size="8.00">svg::to_string</text>
</a>
</g>
</g>
<!-- Node1&#45;&gt;Node5 -->
<g id="edge4_Node000001_Node000005" class="edge">
<title>Node1&#45;&gt;Node5</title>
<g id="a_edge4_Node000001_Node000005"><a xlink:title=" ">
<path fill="none" stroke="#63b8ff" d="M96.6,-23.62C107.51,-21.69 119.06,-19.65 129.82,-17.76"/>
<polygon fill="#63b8ff" stroke="#63b8ff" points="130.37,-21.21 139.61,-16.03 129.16,-14.32 130.37,-21.21"/>
</a>
</g>
</g>
<!-- Node3 -->
<g id="Node000003" class="node">
<title>Node3</title>
<g id="a_Node000003"><a xlink:href="structsvg_1_1color__qi.html#a75df9c35be86175ff4a66eaf896026eb" target="_top" xlink:title=" ">
<polygon fill="white" stroke="#666666" points="353.62,-83 257.38,-83 257.38,-63 353.62,-63 353.62,-83"/>
<text text-anchor="middle" x="305.5" y="-71.4" font-family="SourceSans" font-size="8.00">svg::color_qi::color_qi</text>
</a>
</g>
</g>
<!-- Node2&#45;&gt;Node3 -->
<g id="edge2_Node000002_Node000003" class="edge">
<title>Node2&#45;&gt;Node3</title>
<g id="a_edge2_Node000002_Node000003"><a xlink:title=" ">
<path fill="none" stroke="#63b8ff" d="M217.55,-60.17C226.63,-61.51 236.39,-62.95 245.98,-64.36"/>
<polygon fill="#63b8ff" stroke="#63b8ff" points="245.2,-67.79 255.61,-65.78 246.22,-60.86 245.2,-67.79"/>
</a>
</g>
</g>
<!-- Node4 -->
<g id="Node000004" class="node">
<title>Node4</title>
<g id="a_Node000004"><a xlink:href="namespacesvg_1_1constants.html#aa7f04c2ea699a1b1e2e790de5ac33f38" target="_top" xlink:title=" ">
<polygon fill="white" stroke="#666666" points="357.75,-45 253.25,-45 253.25,-25 357.75,-25 357.75,-45"/>
<text text-anchor="middle" x="305.5" y="-33.4" font-family="SourceSans" font-size="8.00">svg::constants::newline</text>
</a>
</g>
</g>
<!-- Node2&#45;&gt;Node4 -->
<g id="edge3_Node000002_Node000004" class="edge">
<title>Node2&#45;&gt;Node4</title>
<g id="a_edge3_Node000002_Node000004"><a xlink:title=" ">
<path fill="none" stroke="#63b8ff" d="M217.55,-47.83C225.33,-46.68 233.6,-45.46 241.84,-44.25"/>
<polygon fill="#63b8ff" stroke="#63b8ff" points="242.12,-47.74 251.51,-42.82 241.1,-40.82 242.12,-47.74"/>
</a>
</g>
</g>
</g>
</svg>
