<?xml version="1.0" encoding="UTF-8" standalone="no"?>
<!DOCTYPE svg PUBLIC "-//W3C//DTD SVG 1.1//EN"
 "http://www.w3.org/Graphics/SVG/1.1/DTD/svg11.dtd">
<!-- Generated by graphviz version 12.2.1 (20241206.2353)
 -->
<!-- Title: svg::script_element Pages: 1 -->
<svg width="104pt" height="140pt"
 viewBox="0.00 0.00 104.25 140.00" xmlns="http://www.w3.org/2000/svg" xmlns:xlink="http://www.w3.org/1999/xlink">
<g id="graph0" class="graph" transform="scale(1 1) rotate(0) translate(4 136)">
<title>svg::script_element</title>
<!-- Node1 -->
<g id="Node000001" class="node">
<title>Node1</title>
<g id="a_Node000001"><a xlink:title=" ">
<polygon fill="#999999" stroke="#666666" points="92.88,-20 3.38,-20 3.38,0 92.88,0 92.88,-20"/>
<text text-anchor="middle" x="48.12" y="-8.4" font-family="SourceSans" font-size="8.00">svg::script_element</text>
</a>
</g>
</g>
<!-- Node2 -->
<g id="Node000002" class="node">
<title>Node2</title>
<g id="a_Node000002"><a xlink:href="group__elements.html#structsvg_1_1foreign__element" target="_top" xlink:title=" ">
<polygon fill="white" stroke="#666666" points="96.25,-76 0,-76 0,-56 96.25,-56 96.25,-76"/>
<text text-anchor="middle" x="48.12" y="-64.4" font-family="SourceSans" font-size="8.00">svg::foreign_element</text>
</a>
</g>
</g>
<!-- Node2&#45;&gt;Node1 -->
<g id="edge1_Node000001_Node000002" class="edge">
<title>Node2&#45;&gt;Node1</title>
<g id="a_edge1_Node000001_Node000002"><a xlink:title=" ">
<path fill="none" stroke="#63b8ff" d="M48.12,-44.13C48.12,-35.9 48.12,-26.85 48.12,-20.3"/>
<polygon fill="#63b8ff" stroke="#63b8ff" points="44.63,-44.08 48.13,-54.08 51.63,-44.08 44.63,-44.08"/>
</a>
</g>
</g>
<!-- Node3 -->
<g id="Node000003" class="node">
<title>Node3</title>
<g id="a_Node000003"><a xlink:href="group__elements.html#structsvg_1_1element__base" target="_top" xlink:title="Abstract base class for all SVG Elements.">
<polygon fill="white" stroke="#666666" points="91.38,-132 4.88,-132 4.88,-112 91.38,-112 91.38,-132"/>
<text text-anchor="middle" x="48.12" y="-120.4" font-family="SourceSans" font-size="8.00">svg::element_base</text>
</a>
</g>
</g>
<!-- Node3&#45;&gt;Node2 -->
<g id="edge2_Node000002_Node000003" class="edge">
<title>Node3&#45;&gt;Node2</title>
<g id="a_edge2_Node000002_Node000003"><a xlink:title=" ">
<path fill="none" stroke="#63b8ff" d="M48.12,-100.13C48.12,-91.9 48.12,-82.85 48.12,-76.3"/>
<polygon fill="#63b8ff" stroke="#63b8ff" points="44.63,-100.08 48.13,-110.08 51.63,-100.08 44.63,-100.08"/>
</a>
</g>
</g>
</g>
</svg>
