<?xml version="1.0" encoding="UTF-8" standalone="no"?>
<!DOCTYPE svg PUBLIC "-//W3C//DTD SVG 1.1//EN"
 "http://www.w3.org/Graphics/SVG/1.1/DTD/svg11.dtd">
<!-- Generated by graphviz version 12.2.1 (20241206.2353)
 -->
<!-- Title: svg::element_base Pages: 1 -->
<!--zoomable 566 -->

<svg id="main" version="1.1" xmlns="http://www.w3.org/2000/svg" xmlns:xlink="http://www.w3.org/1999/xlink" xml:space="preserve" onload="init(evt)">

<style type="text/css"><![CDATA[
.node, .edge {opacity: 0.7;}
.node.selected, .edge.selected {opacity: 1;}
.edge:hover path { stroke: red; }
.edge:hover polygon { stroke: red; fill: red; }
]]></style>

<defs>
  <circle id="rim" cx="0" cy="0" r="7"/>
  <circle id="rim2" cx="0" cy="0" r="3.5"/>
  <g id="zoomPlus">
    <use xlink:href="#rim" fill="#404040"><set attributeName="fill" to="#808080" begin="zoomplus.mouseover" end="zoomplus.mouseout"/></use>
    <path d="M-4,0h8M0,-4v8" fill="none" stroke="white" stroke-width="1.5" pointer-events="none"/>
  </g>
  <g id="zoomMin">
    <use xlink:href="#rim" fill="#404040"><set attributeName="fill" to="#808080" begin="zoomminus.mouseover" end="zoomminus.mouseout"/></use>
    <path d="M-4,0h8" fill="none" stroke="white" stroke-width="1.5" pointer-events="none"/>
  </g>
  <g id="arrowUp" transform="translate(30 24)">
    <use xlink:href="#rim"/>
    <path pointer-events="none" fill="none" stroke="white" stroke-width="1.5" d="M0,-3.0v7 M-2.5,-0.5L0,-3.0L2.5,-0.5"/>
  </g>
  <g id="arrowRight" transform="rotate(90) translate(36 -43)">
    <use xlink:href="#rim"/>
    <path pointer-events="none" fill="none" stroke="white" stroke-width="1.5" d="M0,-3.0v7 M-2.5,-0.5L0,-3.0L2.5,-0.5"/>
  </g>
  <g id="arrowDown" transform="rotate(180) translate(-30 -48)">
    <use xlink:href="#rim"/>
    <path pointer-events="none" fill="none" stroke="white" stroke-width="1.5" d="M0,-3.0v7 M-2.5,-0.5L0,-3.0L2.5,-0.5"/>
  </g>
  <g id="arrowLeft" transform="rotate(270) translate(-36 17)">
    <use xlink:href="#rim"/>
    <path pointer-events="none" fill="none" stroke="white" stroke-width="1.5" d="M0,-3.0v7 M-2.5,-0.5L0,-3.0L2.5,-0.5"/>
  </g>
  <g id="resetDef">
    <use xlink:href="#rim2" fill="#404040"><set attributeName="fill" to="#808080" begin="reset.mouseover" end="reset.mouseout"/></use>
  </g>
</defs>
<script type="application/ecmascript">
var viewWidth = 525;
var viewHeight = 566;
var sectionId = 'dynsection-5';
</script>
<script type="application/ecmascript" xlink:href="svg.min.js"/>
<svg id="graph" class="graph">
<g id="viewport">
<title>svg::element_base</title>
<!-- Node1 -->
<g id="Node000001" class="node">
<title>Node1</title>
<g id="a_Node000001"><a xlink:title="Abstract base class for all SVG Elements.">
<polygon fill="#999999" stroke="#666666" points="94,-287.75 0,-287.75 0,-270 94,-270 94,-287.75"/>
<text text-anchor="middle" x="47" y="-276.15" font-family="SourceSans" font-size="8.00">svg::element_base</text>
</a>
</g>
</g>
<!-- Node2 -->
<g id="Node000002" class="node">
<title>Node2</title>
<g id="a_Node000002"><a xlink:href="group__elements.html#structsvg_1_1circle__element" target="_top" xlink:title=" ">
<polygon fill="white" stroke="#666666" points="230.75,-557.75 135.25,-557.75 135.25,-540 230.75,-540 230.75,-557.75"/>
<text text-anchor="middle" x="183" y="-546.15" font-family="SourceSans" font-size="8.00">svg::circle_element</text>
</a>
</g>
</g>
<!-- Node1&#45;&gt;Node2 -->
<g id="edge1_Node000001_Node000002" class="edge">
<title>Node1&#45;&gt;Node2</title>
<g id="a_edge1_Node000001_Node000002"><a xlink:title=" ">
<path fill="none" stroke="#63b8ff" d="M48.75,-299.57C51.6,-347.06 65.19,-464.85 130,-530.88 133.48,-534.42 137.69,-537.27 142.19,-539.56"/>
<polygon fill="#63b8ff" stroke="#63b8ff" points="52.25,-299.47 48.28,-289.65 45.26,-299.81 52.25,-299.47"/>
</a>
</g>
</g>
<!-- Node3 -->
<g id="Node000003" class="node">
<title>Node3</title>
<g id="a_Node000003"><a xlink:href="group__elements.html#structsvg_1_1defs__element" target="_top" xlink:title=" ">
<polygon fill="white" stroke="#666666" points="228.88,-521.75 137.12,-521.75 137.12,-504 228.88,-504 228.88,-521.75"/>
<text text-anchor="middle" x="183" y="-510.15" font-family="SourceSans" font-size="8.00">svg::defs_element</text>
</a>
</g>
</g>
<!-- Node1&#45;&gt;Node3 -->
<g id="edge2_Node000001_Node000003" class="edge">
<title>Node1&#45;&gt;Node3</title>
<g id="a_edge2_Node000001_Node000003"><a xlink:title=" ">
<path fill="none" stroke="#63b8ff" d="M50.05,-299.46C55.37,-341.94 73.4,-439.93 130,-494.88 133.63,-498.4 137.99,-501.24 142.62,-503.52"/>
<polygon fill="#63b8ff" stroke="#63b8ff" points="53.55,-299.22 48.95,-289.67 46.59,-300 53.55,-299.22"/>
</a>
</g>
</g>
<!-- Node7 -->
<g id="Node000007" class="node">
<title>Node7</title>
<g id="a_Node000007"><a xlink:href="group__elements.html#structsvg_1_1desc__element" target="_top" xlink:title=" ">
<polygon fill="white" stroke="#666666" points="229.62,-485.75 136.38,-485.75 136.38,-468 229.62,-468 229.62,-485.75"/>
<text text-anchor="middle" x="183" y="-474.15" font-family="SourceSans" font-size="8.00">svg::desc_element</text>
</a>
</g>
</g>
<!-- Node1&#45;&gt;Node7 -->
<g id="edge6_Node000001_Node000007" class="edge">
<title>Node1&#45;&gt;Node7</title>
<g id="a_edge6_Node000001_Node000007"><a xlink:title=" ">
<path fill="none" stroke="#63b8ff" d="M51.75,-299.04C59.64,-335.96 81.4,-414.65 130,-458.88 133.89,-462.41 138.5,-465.26 143.36,-467.55"/>
<polygon fill="#63b8ff" stroke="#63b8ff" points="55.28,-298.84 49.88,-289.72 48.41,-300.21 55.28,-298.84"/>
</a>
</g>
</g>
<!-- Node8 -->
<g id="Node000008" class="node">
<title>Node8</title>
<g id="a_Node000008"><a xlink:href="group__elements.html#structsvg_1_1filter__element" target="_top" xlink:title=" ">
<polygon fill="white" stroke="#666666" points="229.25,-449.75 136.75,-449.75 136.75,-432 229.25,-432 229.25,-449.75"/>
<text text-anchor="middle" x="183" y="-438.15" font-family="SourceSans" font-size="8.00">svg::filter_element</text>
</a>
</g>
</g>
<!-- Node1&#45;&gt;Node8 -->
<g id="edge7_Node000001_Node000008" class="edge">
<title>Node1&#45;&gt;Node8</title>
<g id="a_edge7_Node000001_Node000008"><a xlink:title=" ">
<path fill="none" stroke="#63b8ff" d="M54.21,-298.8C64.83,-329.7 89.36,-389.12 130,-422.88 134.26,-426.42 139.26,-429.28 144.45,-431.58"/>
<polygon fill="#63b8ff" stroke="#63b8ff" points="57.63,-297.98 51.18,-289.57 50.98,-300.16 57.63,-297.98"/>
</a>
</g>
</g>
<!-- Node9 -->
<g id="Node000009" class="node">
<title>Node9</title>
<g id="a_Node000009"><a xlink:href="group__elements.html#structsvg_1_1foreign__element" target="_top" xlink:title=" ">
<polygon fill="white" stroke="#666666" points="234.12,-413.75 131.88,-413.75 131.88,-396 234.12,-396 234.12,-413.75"/>
<text text-anchor="middle" x="183" y="-402.15" font-family="SourceSans" font-size="8.00">svg::foreign_element</text>
</a>
</g>
</g>
<!-- Node1&#45;&gt;Node9 -->
<g id="edge8_Node000001_Node000009" class="edge">
<title>Node1&#45;&gt;Node9</title>
<g id="a_edge8_Node000001_Node000009"><a xlink:title=" ">
<path fill="none" stroke="#63b8ff" d="M57.95,-298.18C71.27,-322.21 97.09,-363.02 130,-386.88 134.8,-390.35 140.32,-393.2 145.93,-395.52"/>
<polygon fill="#63b8ff" stroke="#63b8ff" points="61.1,-296.65 53.3,-289.48 54.93,-299.95 61.1,-296.65"/>
</a>
</g>
</g>
<!-- Node14 -->
<g id="Node000014" class="node">
<title>Node14</title>
<g id="a_Node000014"><a xlink:href="group__elements.html#structsvg_1_1group__element" target="_top" xlink:title=" ">
<polygon fill="white" stroke="#666666" points="231.5,-377.75 134.5,-377.75 134.5,-360 231.5,-360 231.5,-377.75"/>
<text text-anchor="middle" x="183" y="-366.15" font-family="SourceSans" font-size="8.00">svg::group_element</text>
</a>
</g>
</g>
<!-- Node1&#45;&gt;Node14 -->
<g id="edge13_Node000001_Node000014" class="edge">
<title>Node1&#45;&gt;Node14</title>
<g id="a_edge13_Node000001_Node000014"><a xlink:title=" ">
<path fill="none" stroke="#63b8ff" d="M63.79,-296.16C79.29,-312.25 104.3,-335.92 130,-350.88 135.78,-354.24 142.29,-357.11 148.69,-359.5"/>
<polygon fill="#63b8ff" stroke="#63b8ff" points="66.65,-294.09 57.25,-289.21 61.55,-298.89 66.65,-294.09"/>
</a>
</g>
</g>
<!-- Node15 -->
<g id="Node000015" class="node">
<title>Node15</title>
<g id="a_Node000015"><a xlink:href="group__elements.html#structsvg_1_1image__element" target="_top" xlink:title=" ">
<polygon fill="white" stroke="#666666" points="232.62,-341.75 133.38,-341.75 133.38,-324 232.62,-324 232.62,-341.75"/>
<text text-anchor="middle" x="183" y="-330.15" font-family="SourceSans" font-size="8.00">svg::image_element</text>
</a>
</g>
</g>
<!-- Node1&#45;&gt;Node15 -->
<g id="edge14_Node000001_Node000015" class="edge">
<title>Node1&#45;&gt;Node15</title>
<g id="a_edge14_Node000001_Node000015"><a xlink:title=" ">
<path fill="none" stroke="#63b8ff" d="M78.48,-292.95C93.81,-299.86 112.76,-308.12 130,-314.88 137.65,-317.87 146.03,-320.89 153.78,-323.57"/>
<polygon fill="#63b8ff" stroke="#63b8ff" points="79.96,-289.78 69.41,-288.83 77.07,-296.16 79.96,-289.78"/>
</a>
</g>
</g>
<!-- Node16 -->
<g id="Node000016" class="node">
<title>Node16</title>
<g id="a_Node000016"><a xlink:href="group__elements.html#structsvg_1_1line__element" target="_top" xlink:title=" ">
<polygon fill="white" stroke="#666666" points="227.38,-305.75 138.62,-305.75 138.62,-288 227.38,-288 227.38,-305.75"/>
<text text-anchor="middle" x="183" y="-294.15" font-family="SourceSans" font-size="8.00">svg::line_element</text>
</a>
</g>
</g>
<!-- Node1&#45;&gt;Node16 -->
<g id="edge15_Node000001_Node000016" class="edge">
<title>Node1&#45;&gt;Node16</title>
<g id="a_edge15_Node000001_Node000016"><a xlink:title=" ">
<path fill="none" stroke="#63b8ff" d="M105.7,-286.63C116.63,-288.09 127.89,-289.61 138.29,-291"/>
<polygon fill="#63b8ff" stroke="#63b8ff" points="106.37,-283.18 95.99,-285.32 105.44,-290.12 106.37,-283.18"/>
</a>
</g>
</g>
<!-- Node17 -->
<g id="Node000017" class="node">
<title>Node17</title>
<g id="a_Node000017"><a xlink:href="group__elements.html#structsvg_1_1link__element" target="_top" xlink:title=" ">
<polygon fill="white" stroke="#666666" points="227,-269.75 139,-269.75 139,-252 227,-252 227,-269.75"/>
<text text-anchor="middle" x="183" y="-258.15" font-family="SourceSans" font-size="8.00">svg::link_element</text>
</a>
</g>
</g>
<!-- Node1&#45;&gt;Node17 -->
<g id="edge16_Node000001_Node000017" class="edge">
<title>Node1&#45;&gt;Node17</title>
<g id="a_edge16_Node000001_Node000017"><a xlink:title=" ">
<path fill="none" stroke="#63b8ff" d="M105.82,-271.11C116.87,-269.62 128.25,-268.1 138.74,-266.69"/>
<polygon fill="#63b8ff" stroke="#63b8ff" points="105.44,-267.63 95.99,-272.43 106.37,-274.57 105.44,-267.63"/>
</a>
</g>
</g>
<!-- Node18 -->
<g id="Node000018" class="node">
<title>Node18</title>
<g id="a_Node000018"><a xlink:href="group__elements.html#structsvg_1_1marker__element" target="_top" xlink:title=" ">
<polygon fill="white" stroke="#666666" points="233.75,-233.75 132.25,-233.75 132.25,-216 233.75,-216 233.75,-233.75"/>
<text text-anchor="middle" x="183" y="-222.15" font-family="SourceSans" font-size="8.00">svg::marker_element</text>
</a>
</g>
</g>
<!-- Node1&#45;&gt;Node18 -->
<g id="edge17_Node000001_Node000018" class="edge">
<title>Node1&#45;&gt;Node18</title>
<g id="a_edge17_Node000001_Node000018"><a xlink:title=" ">
<path fill="none" stroke="#63b8ff" d="M78.48,-264.8C93.81,-257.89 112.76,-249.63 130,-242.88 137.65,-239.88 146.03,-236.86 153.78,-234.18"/>
<polygon fill="#63b8ff" stroke="#63b8ff" points="77.07,-261.59 69.41,-268.92 79.96,-267.97 77.07,-261.59"/>
</a>
</g>
</g>
<!-- Node19 -->
<g id="Node000019" class="node">
<title>Node19</title>
<g id="a_Node000019"><a xlink:href="group__elements.html#structsvg_1_1path__element" target="_top" xlink:title=" ">
<polygon fill="white" stroke="#666666" points="229.25,-197.75 136.75,-197.75 136.75,-180 229.25,-180 229.25,-197.75"/>
<text text-anchor="middle" x="183" y="-186.15" font-family="SourceSans" font-size="8.00">svg::path_element</text>
</a>
</g>
</g>
<!-- Node1&#45;&gt;Node19 -->
<g id="edge18_Node000001_Node000019" class="edge">
<title>Node1&#45;&gt;Node19</title>
<g id="a_edge18_Node000001_Node000019"><a xlink:title=" ">
<path fill="none" stroke="#63b8ff" d="M63.79,-261.59C79.29,-245.5 104.3,-221.83 130,-206.88 135.78,-203.51 142.29,-200.64 148.69,-198.25"/>
<polygon fill="#63b8ff" stroke="#63b8ff" points="61.55,-258.86 57.25,-268.54 66.65,-263.66 61.55,-258.86"/>
</a>
</g>
</g>
<!-- Node20 -->
<g id="Node000020" class="node">
<title>Node20</title>
<g id="a_Node000020"><a xlink:href="group__elements.html#structsvg_1_1polyline__element" target="_top" xlink:title=" ">
<polygon fill="white" stroke="#666666" points="236,-161.75 130,-161.75 130,-144 236,-144 236,-161.75"/>
<text text-anchor="middle" x="183" y="-150.15" font-family="SourceSans" font-size="8.00">svg::polyline_element</text>
</a>
</g>
</g>
<!-- Node1&#45;&gt;Node20 -->
<g id="edge19_Node000001_Node000020" class="edge">
<title>Node1&#45;&gt;Node20</title>
<g id="a_edge19_Node000001_Node000020"><a xlink:title=" ">
<path fill="none" stroke="#63b8ff" d="M57.95,-259.57C71.27,-235.54 97.09,-194.73 130,-170.88 134.8,-167.4 140.32,-164.55 145.93,-162.23"/>
<polygon fill="#63b8ff" stroke="#63b8ff" points="54.93,-257.8 53.3,-268.27 61.1,-261.1 54.93,-257.8"/>
</a>
</g>
</g>
<!-- Node21 -->
<g id="Node000021" class="node">
<title>Node21</title>
<g id="a_Node000021"><a xlink:href="group__elements.html#structsvg_1_1rect__element" target="_top" xlink:title=" ">
<polygon fill="white" stroke="#666666" points="227.38,-125.75 138.62,-125.75 138.62,-108 227.38,-108 227.38,-125.75"/>
<text text-anchor="middle" x="183" y="-114.15" font-family="SourceSans" font-size="8.00">svg::rect_element</text>
</a>
</g>
</g>
<!-- Node1&#45;&gt;Node21 -->
<g id="edge20_Node000001_Node000021" class="edge">
<title>Node1&#45;&gt;Node21</title>
<g id="a_edge20_Node000001_Node000021"><a xlink:title=" ">
<path fill="none" stroke="#63b8ff" d="M54.21,-258.95C64.83,-228.05 89.36,-168.63 130,-134.88 134.26,-131.33 139.26,-128.47 144.45,-126.17"/>
<polygon fill="#63b8ff" stroke="#63b8ff" points="50.98,-257.59 51.18,-268.18 57.63,-259.77 50.98,-257.59"/>
</a>
</g>
</g>
<!-- Node22 -->
<g id="Node000022" class="node">
<title>Node22</title>
<g id="a_Node000022"><a xlink:href="group__elements.html#structsvg_1_1svg__element" target="_top" xlink:title=" ">
<polygon fill="white" stroke="#666666" points="227,-89.75 139,-89.75 139,-72 227,-72 227,-89.75"/>
<text text-anchor="middle" x="183" y="-78.15" font-family="SourceSans" font-size="8.00">svg::svg_element</text>
</a>
</g>
</g>
<!-- Node1&#45;&gt;Node22 -->
<g id="edge21_Node000001_Node000022" class="edge">
<title>Node1&#45;&gt;Node22</title>
<g id="a_edge21_Node000001_Node000022"><a xlink:title=" ">
<path fill="none" stroke="#63b8ff" d="M51.75,-258.71C59.64,-221.79 81.4,-143.1 130,-98.88 133.89,-95.34 138.5,-92.49 143.36,-90.2"/>
<polygon fill="#63b8ff" stroke="#63b8ff" points="48.41,-257.54 49.88,-268.03 55.28,-258.91 48.41,-257.54"/>
</a>
</g>
</g>
<!-- Node23 -->
<g id="Node000023" class="node">
<title>Node23</title>
<g id="a_Node000023"><a xlink:href="group__elements.html#structsvg_1_1text__element" target="_top" xlink:title=" ">
<polygon fill="white" stroke="#666666" points="227.38,-53.75 138.62,-53.75 138.62,-36 227.38,-36 227.38,-53.75"/>
<text text-anchor="middle" x="183" y="-42.15" font-family="SourceSans" font-size="8.00">svg::text_element</text>
</a>
</g>
</g>
<!-- Node1&#45;&gt;Node23 -->
<g id="edge22_Node000001_Node000023" class="edge">
<title>Node1&#45;&gt;Node23</title>
<g id="a_edge22_Node000001_Node000023"><a xlink:title=" ">
<path fill="none" stroke="#63b8ff" d="M50.05,-258.29C55.37,-215.81 73.4,-117.82 130,-62.88 133.63,-59.35 137.99,-56.51 142.62,-54.23"/>
<polygon fill="#63b8ff" stroke="#63b8ff" points="46.59,-257.75 48.95,-268.08 53.55,-258.53 46.59,-257.75"/>
</a>
</g>
</g>
<!-- Node25 -->
<g id="Node000025" class="node">
<title>Node25</title>
<g id="a_Node000025"><a xlink:href="group__elements.html#structsvg_1_1title__element" target="_top" xlink:title=" ">
<polygon fill="white" stroke="#666666" points="227.75,-17.75 138.25,-17.75 138.25,0 227.75,0 227.75,-17.75"/>
<text text-anchor="middle" x="183" y="-6.15" font-family="SourceSans" font-size="8.00">svg::title_element</text>
</a>
</g>
</g>
<!-- Node1&#45;&gt;Node25 -->
<g id="edge24_Node000001_Node000025" class="edge">
<title>Node1&#45;&gt;Node25</title>
<g id="a_edge24_Node000001_Node000025"><a xlink:title=" ">
<path fill="none" stroke="#63b8ff" d="M48.75,-258.18C51.6,-210.69 65.19,-92.9 130,-26.88 133.48,-23.33 137.69,-20.48 142.19,-18.19"/>
<polygon fill="#63b8ff" stroke="#63b8ff" points="45.26,-257.94 48.28,-268.1 52.25,-258.28 45.26,-257.94"/>
</a>
</g>
</g>
<!-- Node4 -->
<g id="Node000004" class="node">
<title>Node4</title>
<g id="a_Node000004"><a xlink:href="group__elements.html#structsvg_1_1gradient__element" target="_top" xlink:title=" ">
<polygon fill="white" stroke="#666666" points="381.75,-521.75 273.5,-521.75 273.5,-504 381.75,-504 381.75,-521.75"/>
<text text-anchor="middle" x="327.62" y="-510.15" font-family="SourceSans" font-size="8.00">svg::gradient_element</text>
</a>
</g>
</g>
<!-- Node3&#45;&gt;Node4 -->
<g id="edge3_Node000003_Node000004" class="edge">
<title>Node3&#45;&gt;Node4</title>
<g id="a_edge3_Node000003_Node000004"><a xlink:title=" ">
<path fill="none" stroke="#63b8ff" d="M240.53,-512.88C251.25,-512.88 262.44,-512.88 273.06,-512.88"/>
<polygon fill="#63b8ff" stroke="#63b8ff" points="240.64,-509.38 230.64,-512.88 240.64,-516.38 240.64,-509.38"/>
</a>
</g>
</g>
<!-- Node5 -->
<g id="Node000005" class="node">
<title>Node5</title>
<g id="a_Node000005"><a xlink:href="group__elements.html#structsvg_1_1linear__gradient" target="_top" xlink:title="Linear gradients https://developer.mozilla.org/en&#45;US/docs/Web/SVG/Element/linearGradient.">
<polygon fill="white" stroke="#666666" points="517,-539.75 419.25,-539.75 419.25,-522 517,-522 517,-539.75"/>
<text text-anchor="middle" x="468.12" y="-528.15" font-family="SourceSans" font-size="8.00">svg::linear_gradient</text>
</a>
</g>
</g>
<!-- Node4&#45;&gt;Node5 -->
<g id="edge4_Node000004_Node000005" class="edge">
<title>Node4&#45;&gt;Node5</title>
<g id="a_edge4_Node000004_Node000005"><a xlink:title=" ">
<path fill="none" stroke="#63b8ff" d="M393.45,-521.3C402.1,-522.42 410.85,-523.56 419.15,-524.64"/>
<polygon fill="#63b8ff" stroke="#63b8ff" points="394.04,-517.85 383.67,-520.03 393.14,-524.79 394.04,-517.85"/>
</a>
</g>
</g>
<!-- Node6 -->
<g id="Node000006" class="node">
<title>Node6</title>
<g id="a_Node000006"><a xlink:href="group__elements.html#structsvg_1_1radial__gradient" target="_top" xlink:title="Circular gradients https://developer.mozilla.org/en&#45;US/docs/Web/SVG/Element/radialGradient.">
<polygon fill="white" stroke="#666666" points="517,-503.75 419.25,-503.75 419.25,-486 517,-486 517,-503.75"/>
<text text-anchor="middle" x="468.12" y="-492.15" font-family="SourceSans" font-size="8.00">svg::radial_gradient</text>
</a>
</g>
</g>
<!-- Node4&#45;&gt;Node6 -->
<g id="edge5_Node000004_Node000006" class="edge">
<title>Node4&#45;&gt;Node6</title>
<g id="a_edge5_Node000004_Node000006"><a xlink:title=" ">
<path fill="none" stroke="#63b8ff" d="M393.45,-504.45C402.1,-503.33 410.85,-502.19 419.15,-501.11"/>
<polygon fill="#63b8ff" stroke="#63b8ff" points="393.14,-500.96 383.67,-505.72 394.04,-507.9 393.14,-500.96"/>
</a>
</g>
</g>
<!-- Node10 -->
<g id="Node000010" class="node">
<title>Node10</title>
<g id="a_Node000010"><a xlink:href="group__elements.html#structsvg_1_1iframe__element" target="_top" xlink:title="iframe HTML object embedded in SVG container. NB: HTML elements video/audio/iframe/canvas can be used...">
<polygon fill="white" stroke="#666666" points="377.62,-467.75 277.62,-467.75 277.62,-450 377.62,-450 377.62,-467.75"/>
<text text-anchor="middle" x="327.62" y="-456.15" font-family="SourceSans" font-size="8.00">svg::iframe_element</text>
</a>
</g>
</g>
<!-- Node9&#45;&gt;Node10 -->
<g id="edge9_Node000009_Node000010" class="edge">
<title>Node9&#45;&gt;Node10</title>
<g id="a_edge9_Node000009_Node000010"><a xlink:title=" ">
<path fill="none" stroke="#63b8ff" d="M223.92,-418.1C228.03,-419.64 232.12,-421.24 236,-422.88 252.49,-429.82 255.46,-434.06 272,-440.88 279.57,-444 287.89,-446.96 295.71,-449.56"/>
<polygon fill="#63b8ff" stroke="#63b8ff" points="225.15,-414.82 214.56,-414.72 222.78,-421.41 225.15,-414.82"/>
</a>
</g>
</g>
<!-- Node11 -->
<g id="Node000011" class="node">
<title>Node11</title>
<g id="a_Node000011"><a xlink:href="group__elements.html#structsvg_1_1object__element" target="_top" xlink:title="HTML object embedded in SVG container. Unlike image_elements, object_elements are not locked down for...">
<polygon fill="white" stroke="#666666" points="377.25,-431.75 278,-431.75 278,-414 377.25,-414 377.25,-431.75"/>
<text text-anchor="middle" x="327.62" y="-420.15" font-family="SourceSans" font-size="8.00">svg::object_element</text>
</a>
</g>
</g>
<!-- Node9&#45;&gt;Node11 -->
<g id="edge10_Node000009_Node000011" class="edge">
<title>Node9&#45;&gt;Node11</title>
<g id="a_edge10_Node000009_Node000011"><a xlink:title=" ">
<path fill="none" stroke="#63b8ff" d="M245.4,-412.62C256.21,-413.99 267.34,-415.39 277.75,-416.71"/>
<polygon fill="#63b8ff" stroke="#63b8ff" points="246.15,-409.19 235.79,-411.41 245.27,-416.14 246.15,-409.19"/>
</a>
</g>
</g>
<!-- Node12 -->
<g id="Node000012" class="node">
<title>Node12</title>
<g id="a_Node000012"><a xlink:href="group__elements.html#structsvg_1_1script__element" target="_top" xlink:title=" ">
<polygon fill="white" stroke="#666666" points="375.75,-395.75 279.5,-395.75 279.5,-378 375.75,-378 375.75,-395.75"/>
<text text-anchor="middle" x="327.62" y="-384.15" font-family="SourceSans" font-size="8.00">svg::script_element</text>
</a>
</g>
</g>
<!-- Node9&#45;&gt;Node12 -->
<g id="edge11_Node000009_Node000012" class="edge">
<title>Node9&#45;&gt;Node12</title>
<g id="a_edge11_Node000009_Node000012"><a xlink:title=" ">
<path fill="none" stroke="#63b8ff" d="M245.43,-397.12C256.73,-395.7 268.37,-394.23 279.18,-392.86"/>
<polygon fill="#63b8ff" stroke="#63b8ff" points="245.27,-393.61 235.79,-398.34 246.15,-400.56 245.27,-393.61"/>
</a>
</g>
</g>
<!-- Node13 -->
<g id="Node000013" class="node">
<title>Node13</title>
<g id="a_Node000013"><a xlink:href="group__elements.html#structsvg_1_1video__element" target="_top" xlink:title="video HTML object embedded in SVG container. NB: HTML elements video/audio/iframe/canvas can be used ...">
<polygon fill="white" stroke="#666666" points="375.75,-359.75 279.5,-359.75 279.5,-342 375.75,-342 375.75,-359.75"/>
<text text-anchor="middle" x="327.62" y="-348.15" font-family="SourceSans" font-size="8.00">svg::video_element</text>
</a>
</g>
</g>
<!-- Node9&#45;&gt;Node13 -->
<g id="edge12_Node000009_Node000013" class="edge">
<title>Node9&#45;&gt;Node13</title>
<g id="a_edge12_Node000009_Node000013"><a xlink:title=" ">
<path fill="none" stroke="#63b8ff" d="M223.92,-391.65C228.03,-390.11 232.12,-388.51 236,-386.88 252.49,-379.93 255.46,-375.69 272,-368.88 279.57,-365.75 287.89,-362.79 295.71,-360.19"/>
<polygon fill="#63b8ff" stroke="#63b8ff" points="222.78,-388.34 214.56,-395.03 225.15,-394.93 222.78,-388.34"/>
</a>
</g>
</g>
<!-- Node24 -->
<g id="Node000024" class="node">
<title>Node24</title>
<g id="a_Node000024"><a xlink:href="group__elements.html#structsvg_1_1text__path__element" target="_top" xlink:title=" ">
<polygon fill="white" stroke="#666666" points="383.25,-53.75 272,-53.75 272,-36 383.25,-36 383.25,-53.75"/>
<text text-anchor="middle" x="327.62" y="-42.15" font-family="SourceSans" font-size="8.00">svg::text_path_element</text>
</a>
</g>
</g>
<!-- Node23&#45;&gt;Node24 -->
<g id="edge23_Node000023_Node000024" class="edge">
<title>Node23&#45;&gt;Node24</title>
<g id="a_edge23_Node000023_Node000024"><a xlink:title=" ">
<path fill="none" stroke="#63b8ff" d="M238.97,-44.88C249.71,-44.88 260.98,-44.88 271.72,-44.88"/>
<polygon fill="#63b8ff" stroke="#63b8ff" points="239.08,-41.38 229.08,-44.88 239.08,-48.38 239.08,-41.38"/>
</a>
</g>
</g>
</g>
</svg>

<g id="navigator" transform="translate(0 0)" fill="#404254">
  <rect fill="#f2f5e9" fill-opacity="0.5" stroke="#606060" stroke-width=".5" x="0" y="0" width="60" height="60"/>
  <use id="zoomplus" xlink:href="#zoomPlus" x="17" y="9" onmousedown="handleZoom(evt,'in')"/>
  <use id="zoomminus" xlink:href="#zoomMin" x="42" y="9" onmousedown="handleZoom(evt,'out')"/>
  <use id="reset" xlink:href="#resetDef" x="30" y="36" onmousedown="handleReset()"/>
   <use id="arrowup" xlink:href="#arrowUp" x="0" y="0" onmousedown="handlePan(0,-1)"/>
  <use id="arrowright" xlink:href="#arrowRight" x="0" y="0" onmousedown="handlePan(1,0)"/>
  <use id="arrowdown" xlink:href="#arrowDown" x="0" y="0" onmousedown="handlePan(0,1)"/>
  <use id="arrowleft" xlink:href="#arrowLeft" x="0" y="0" onmousedown="handlePan(-1,0)"/>
</g>
<svg viewBox="0 0 15 15" width="100%" height="30px" preserveAspectRatio="xMaxYMin meet">
 <g id="arrow_out" transform="scale(0.3 0.3)">
  <a xlink:href="structsvg_1_1element__base__inherit__graph_org.svg" target="_base">
   <rect id="button" ry="5" rx="5" y="6" x="6" height="38" width="38"
        fill="#f2f5e9" fill-opacity="0.5" stroke="#606060" stroke-width="1.0"/>
   <path id="arrow"
     d="M 11.500037,31.436501 C 11.940474,20.09759 22.043105,11.32322 32.158766,21.979434 L 37.068811,17.246167 C 37.068811,17.246167 37.088388,32 37.088388,32 L 22.160133,31.978069 C 22.160133,31.978069 26.997745,27.140456 26.997745,27.140456 C 18.528582,18.264221 13.291696,25.230495 11.500037,31.436501 z"
     style="fill:#404040;"/>
  </a>
 </g>
</svg>

<style type='text/css'>
<![CDATA[
[data-mouse-over-selected='false'] { opacity: 0.7; }
[data-mouse-over-selected='true']  { opacity: 1.0; }
]]>
</style>
<script type="application/ecmascript"><![CDATA[
document.addEventListener('DOMContentLoaded', (event) => {
  highlightEdges();
  highlightAdjacentNodes();
});
]]></script>
</svg>
