<?xml version="1.0" encoding="UTF-8" standalone="no"?>
<!DOCTYPE svg PUBLIC "-//W3C//DTD SVG 1.1//EN"
 "http://www.w3.org/Graphics/SVG/1.1/DTD/svg11.dtd">
<!-- Generated by graphviz version 12.2.1 (20241206.2353)
 -->
<!-- Title: svg::element_base Pages: 1 -->
<svg width="498pt" height="522pt"
 viewBox="0.00 0.00 498.00 522.00" xmlns="http://www.w3.org/2000/svg" xmlns:xlink="http://www.w3.org/1999/xlink">
<g id="graph0" class="graph" transform="scale(1 1) rotate(0) translate(4 518)">
<title>svg::element_base</title>
<!-- Node1 -->
<g id="Node000001" class="node">
<title>Node1</title>
<g id="a_Node000001"><a xlink:title="Abstract base class for all SVG Elements.">
<polygon fill="#999999" stroke="#666666" points="86.5,-267 0,-267 0,-247 86.5,-247 86.5,-267"/>
<text text-anchor="middle" x="43.25" y="-255.4" font-family="SourceSans" font-size="8.00">svg::element_base</text>
</a>
</g>
</g>
<!-- Node2 -->
<g id="Node000002" class="node">
<title>Node2</title>
<g id="a_Node000002"><a xlink:href="group__elements.html#structsvg_1_1circle__element" target="_top" xlink:title=" ">
<polygon fill="white" stroke="#666666" points="215.75,-514 127.75,-514 127.75,-494 215.75,-494 215.75,-514"/>
<text text-anchor="middle" x="171.75" y="-502.4" font-family="SourceSans" font-size="8.00">svg::circle_element</text>
</a>
</g>
</g>
<!-- Node1&#45;&gt;Node2 -->
<g id="edge1_Node000001_Node000002" class="edge">
<title>Node1&#45;&gt;Node2</title>
<g id="a_edge1_Node000001_Node000002"><a xlink:title=" ">
<path fill="none" stroke="#63b8ff" d="M45.78,-278.84C50.03,-323.42 65.76,-425.68 122.5,-485 125.86,-488.51 129.95,-491.39 134.31,-493.74"/>
<polygon fill="#63b8ff" stroke="#63b8ff" points="49.27,-278.6 44.95,-268.93 42.3,-279.18 49.27,-278.6"/>
</a>
</g>
</g>
<!-- Node3 -->
<g id="Node000003" class="node">
<title>Node3</title>
<g id="a_Node000003"><a xlink:href="group__elements.html#structsvg_1_1defs__element" target="_top" xlink:title=" ">
<polygon fill="white" stroke="#666666" points="214.25,-476 129.25,-476 129.25,-456 214.25,-456 214.25,-476"/>
<text text-anchor="middle" x="171.75" y="-464.4" font-family="SourceSans" font-size="8.00">svg::defs_element</text>
</a>
</g>
</g>
<!-- Node1&#45;&gt;Node3 -->
<g id="edge2_Node000001_Node000003" class="edge">
<title>Node1&#45;&gt;Node3</title>
<g id="a_edge2_Node000001_Node000003"><a xlink:title=" ">
<path fill="none" stroke="#63b8ff" d="M47.44,-278.35C54.31,-317.06 73.98,-399.22 122.5,-447 125.96,-450.41 130.11,-453.23 134.51,-455.55"/>
<polygon fill="#63b8ff" stroke="#63b8ff" points="50.93,-278 45.86,-268.7 44.03,-279.14 50.93,-278"/>
</a>
</g>
</g>
<!-- Node8 -->
<g id="Node000008" class="node">
<title>Node8</title>
<g id="a_Node000008"><a xlink:href="group__elements.html#structsvg_1_1desc__element" target="_top" xlink:title=" ">
<polygon fill="white" stroke="#666666" points="214.62,-438 128.88,-438 128.88,-418 214.62,-418 214.62,-438"/>
<text text-anchor="middle" x="171.75" y="-426.4" font-family="SourceSans" font-size="8.00">svg::desc_element</text>
</a>
</g>
</g>
<!-- Node1&#45;&gt;Node8 -->
<g id="edge7_Node000001_Node000008" class="edge">
<title>Node1&#45;&gt;Node8</title>
<g id="a_edge7_Node000001_Node000008"><a xlink:title=" ">
<path fill="none" stroke="#63b8ff" d="M49.94,-278.32C59.62,-310.78 82.29,-372.63 122.5,-409 126.24,-412.38 130.65,-415.19 135.26,-417.52"/>
<polygon fill="#63b8ff" stroke="#63b8ff" points="53.36,-277.56 47.26,-268.89 46.62,-279.47 53.36,-277.56"/>
</a>
</g>
</g>
<!-- Node9 -->
<g id="Node000009" class="node">
<title>Node9</title>
<g id="a_Node000009"><a xlink:href="group__elements.html#structsvg_1_1filter__element" target="_top" xlink:title=" ">
<polygon fill="white" stroke="#666666" points="214.62,-400 128.88,-400 128.88,-380 214.62,-380 214.62,-400"/>
<text text-anchor="middle" x="171.75" y="-388.4" font-family="SourceSans" font-size="8.00">svg::filter_element</text>
</a>
</g>
</g>
<!-- Node1&#45;&gt;Node9 -->
<g id="edge8_Node000001_Node000009" class="edge">
<title>Node1&#45;&gt;Node9</title>
<g id="a_edge8_Node000001_Node000009"><a xlink:title=" ">
<path fill="none" stroke="#63b8ff" d="M53.62,-277.59C66.06,-302.81 90.25,-345.33 122.5,-371 126.73,-374.36 131.62,-377.19 136.64,-379.56"/>
<polygon fill="#63b8ff" stroke="#63b8ff" points="56.86,-276.24 49.4,-268.71 50.54,-279.25 56.86,-276.24"/>
</a>
</g>
</g>
<!-- Node10 -->
<g id="Node000010" class="node">
<title>Node10</title>
<g id="a_Node000010"><a xlink:href="group__elements.html#structsvg_1_1foreign__element" target="_top" xlink:title=" ">
<polygon fill="white" stroke="#666666" points="219.88,-362 123.62,-362 123.62,-342 219.88,-342 219.88,-362"/>
<text text-anchor="middle" x="171.75" y="-350.4" font-family="SourceSans" font-size="8.00">svg::foreign_element</text>
</a>
</g>
</g>
<!-- Node1&#45;&gt;Node10 -->
<g id="edge9_Node000001_Node000010" class="edge">
<title>Node1&#45;&gt;Node10</title>
<g id="a_edge9_Node000001_Node000010"><a xlink:title=" ">
<path fill="none" stroke="#63b8ff" d="M59.83,-275.92C74.53,-292.77 97.93,-317.15 122.5,-333 127.57,-336.27 133.29,-339.13 138.97,-341.57"/>
<polygon fill="#63b8ff" stroke="#63b8ff" points="62.73,-273.93 53.59,-268.58 57.4,-278.47 62.73,-273.93"/>
</a>
</g>
</g>
<!-- Node12 -->
<g id="Node000012" class="node">
<title>Node12</title>
<g id="a_Node000012"><a xlink:href="group__elements.html#structsvg_1_1group__element" target="_top" xlink:title=" ">
<polygon fill="white" stroke="#666666" points="217.62,-324 125.88,-324 125.88,-304 217.62,-304 217.62,-324"/>
<text text-anchor="middle" x="171.75" y="-312.4" font-family="SourceSans" font-size="8.00">svg::group_element</text>
</a>
</g>
</g>
<!-- Node1&#45;&gt;Node12 -->
<g id="edge11_Node000001_Node000012" class="edge">
<title>Node1&#45;&gt;Node12</title>
<g id="a_edge11_Node000001_Node000012"><a xlink:title=" ">
<path fill="none" stroke="#63b8ff" d="M74.94,-272.58C89.27,-279.68 106.63,-288.03 122.5,-295 129.09,-297.89 136.28,-300.84 143.04,-303.51"/>
<polygon fill="#63b8ff" stroke="#63b8ff" points="76.51,-269.45 66,-268.11 73.38,-275.71 76.51,-269.45"/>
</a>
</g>
</g>
<!-- Node13 -->
<g id="Node000013" class="node">
<title>Node13</title>
<g id="a_Node000013"><a xlink:href="group__elements.html#structsvg_1_1image__element" target="_top" xlink:title=" ">
<polygon fill="white" stroke="#666666" points="218,-286 125.5,-286 125.5,-266 218,-266 218,-286"/>
<text text-anchor="middle" x="171.75" y="-274.4" font-family="SourceSans" font-size="8.00">svg::image_element</text>
</a>
</g>
</g>
<!-- Node1&#45;&gt;Node13 -->
<g id="edge12_Node000001_Node000013" class="edge">
<title>Node1&#45;&gt;Node13</title>
<g id="a_edge12_Node000001_Node000013"><a xlink:title=" ">
<path fill="none" stroke="#63b8ff" d="M97.98,-265.07C107.02,-266.43 116.32,-267.83 125.13,-269.15"/>
<polygon fill="#63b8ff" stroke="#63b8ff" points="98.63,-261.63 88.22,-263.6 97.59,-268.55 98.63,-261.63"/>
</a>
</g>
</g>
<!-- Node14 -->
<g id="Node000014" class="node">
<title>Node14</title>
<g id="a_Node000014"><a xlink:href="group__elements.html#structsvg_1_1line__element" target="_top" xlink:title=" ">
<polygon fill="white" stroke="#666666" points="213.12,-248 130.38,-248 130.38,-228 213.12,-228 213.12,-248"/>
<text text-anchor="middle" x="171.75" y="-236.4" font-family="SourceSans" font-size="8.00">svg::line_element</text>
</a>
</g>
</g>
<!-- Node1&#45;&gt;Node14 -->
<g id="edge13_Node000001_Node000014" class="edge">
<title>Node1&#45;&gt;Node14</title>
<g id="a_edge13_Node000001_Node000014"><a xlink:title=" ">
<path fill="none" stroke="#63b8ff" d="M98.08,-248.91C108.73,-247.31 119.75,-245.66 129.89,-244.14"/>
<polygon fill="#63b8ff" stroke="#63b8ff" points="97.59,-245.45 88.22,-250.4 98.63,-252.37 97.59,-245.45"/>
</a>
</g>
</g>
<!-- Node15 -->
<g id="Node000015" class="node">
<title>Node15</title>
<g id="a_Node000015"><a xlink:href="group__elements.html#structsvg_1_1marker__element" target="_top" xlink:title=" ">
<polygon fill="white" stroke="#666666" points="219.5,-210 124,-210 124,-190 219.5,-190 219.5,-210"/>
<text text-anchor="middle" x="171.75" y="-198.4" font-family="SourceSans" font-size="8.00">svg::marker_element</text>
</a>
</g>
</g>
<!-- Node1&#45;&gt;Node15 -->
<g id="edge14_Node000001_Node000015" class="edge">
<title>Node1&#45;&gt;Node15</title>
<g id="a_edge14_Node000001_Node000015"><a xlink:title=" ">
<path fill="none" stroke="#63b8ff" d="M74.94,-241.42C89.27,-234.32 106.63,-225.97 122.5,-219 129.09,-216.11 136.28,-213.16 143.04,-210.49"/>
<polygon fill="#63b8ff" stroke="#63b8ff" points="73.38,-238.29 66,-245.89 76.51,-244.55 73.38,-238.29"/>
</a>
</g>
</g>
<!-- Node16 -->
<g id="Node000016" class="node">
<title>Node16</title>
<g id="a_Node000016"><a xlink:href="group__elements.html#structsvg_1_1polyline__element" target="_top" xlink:title=" ">
<polygon fill="white" stroke="#666666" points="221,-172 122.5,-172 122.5,-152 221,-152 221,-172"/>
<text text-anchor="middle" x="171.75" y="-160.4" font-family="SourceSans" font-size="8.00">svg::polyline_element</text>
</a>
</g>
</g>
<!-- Node1&#45;&gt;Node16 -->
<g id="edge15_Node000001_Node000016" class="edge">
<title>Node1&#45;&gt;Node16</title>
<g id="a_edge15_Node000001_Node000016"><a xlink:title=" ">
<path fill="none" stroke="#63b8ff" d="M59.83,-238.08C74.53,-221.23 97.93,-196.85 122.5,-181 127.57,-177.73 133.29,-174.87 138.97,-172.43"/>
<polygon fill="#63b8ff" stroke="#63b8ff" points="57.4,-235.53 53.59,-245.42 62.73,-240.07 57.4,-235.53"/>
</a>
</g>
</g>
<!-- Node17 -->
<g id="Node000017" class="node">
<title>Node17</title>
<g id="a_Node000017"><a xlink:href="group__elements.html#structsvg_1_1rect__element" target="_top" xlink:title=" ">
<polygon fill="white" stroke="#666666" points="213.12,-134 130.38,-134 130.38,-114 213.12,-114 213.12,-134"/>
<text text-anchor="middle" x="171.75" y="-122.4" font-family="SourceSans" font-size="8.00">svg::rect_element</text>
</a>
</g>
</g>
<!-- Node1&#45;&gt;Node17 -->
<g id="edge16_Node000001_Node000017" class="edge">
<title>Node1&#45;&gt;Node17</title>
<g id="a_edge16_Node000001_Node000017"><a xlink:title=" ">
<path fill="none" stroke="#63b8ff" d="M53.62,-236.41C66.06,-211.19 90.25,-168.67 122.5,-143 126.73,-139.64 131.62,-136.81 136.64,-134.44"/>
<polygon fill="#63b8ff" stroke="#63b8ff" points="50.54,-234.75 49.4,-245.29 56.86,-237.76 50.54,-234.75"/>
</a>
</g>
</g>
<!-- Node18 -->
<g id="Node000018" class="node">
<title>Node18</title>
<g id="a_Node000018"><a xlink:href="group__elements.html#structsvg_1_1svg__element" target="_top" xlink:title=" ">
<polygon fill="white" stroke="#666666" points="212.38,-96 131.12,-96 131.12,-76 212.38,-76 212.38,-96"/>
<text text-anchor="middle" x="171.75" y="-84.4" font-family="SourceSans" font-size="8.00">svg::svg_element</text>
</a>
</g>
</g>
<!-- Node1&#45;&gt;Node18 -->
<g id="edge17_Node000001_Node000018" class="edge">
<title>Node1&#45;&gt;Node18</title>
<g id="a_edge17_Node000001_Node000018"><a xlink:title=" ">
<path fill="none" stroke="#63b8ff" d="M49.94,-235.68C59.62,-203.22 82.29,-141.37 122.5,-105 126.24,-101.62 130.65,-98.81 135.26,-96.48"/>
<polygon fill="#63b8ff" stroke="#63b8ff" points="46.62,-234.53 47.26,-245.11 53.36,-236.44 46.62,-234.53"/>
</a>
</g>
</g>
<!-- Node19 -->
<g id="Node000019" class="node">
<title>Node19</title>
<g id="a_Node000019"><a xlink:href="group__elements.html#structsvg_1_1text__element" target="_top" xlink:title=" ">
<polygon fill="white" stroke="#666666" points="213.5,-58 130,-58 130,-38 213.5,-38 213.5,-58"/>
<text text-anchor="middle" x="171.75" y="-46.4" font-family="SourceSans" font-size="8.00">svg::text_element</text>
</a>
</g>
</g>
<!-- Node1&#45;&gt;Node19 -->
<g id="edge18_Node000001_Node000019" class="edge">
<title>Node1&#45;&gt;Node19</title>
<g id="a_edge18_Node000001_Node000019"><a xlink:title=" ">
<path fill="none" stroke="#63b8ff" d="M47.44,-235.65C54.31,-196.94 73.98,-114.78 122.5,-67 125.96,-63.59 130.11,-60.77 134.51,-58.45"/>
<polygon fill="#63b8ff" stroke="#63b8ff" points="44.03,-234.86 45.86,-245.3 50.93,-236 44.03,-234.86"/>
</a>
</g>
</g>
<!-- Node21 -->
<g id="Node000021" class="node">
<title>Node21</title>
<g id="a_Node000021"><a xlink:href="group__elements.html#structsvg_1_1title__element" target="_top" xlink:title=" ">
<polygon fill="white" stroke="#666666" points="213.5,-20 130,-20 130,0 213.5,0 213.5,-20"/>
<text text-anchor="middle" x="171.75" y="-8.4" font-family="SourceSans" font-size="8.00">svg::title_element</text>
</a>
</g>
</g>
<!-- Node1&#45;&gt;Node21 -->
<g id="edge20_Node000001_Node000021" class="edge">
<title>Node1&#45;&gt;Node21</title>
<g id="a_edge20_Node000001_Node000021"><a xlink:title=" ">
<path fill="none" stroke="#63b8ff" d="M45.78,-235.16C50.03,-190.58 65.76,-88.32 122.5,-29 125.86,-25.49 129.95,-22.61 134.31,-20.26"/>
<polygon fill="#63b8ff" stroke="#63b8ff" points="42.3,-234.82 44.95,-245.07 49.27,-235.4 42.3,-234.82"/>
</a>
</g>
</g>
<!-- Node4 -->
<g id="Node000004" class="node">
<title>Node4</title>
<g id="a_Node000004"><a xlink:href="group__elements.html#structsvg_1_1gradient__element" target="_top" xlink:title=" ">
<polygon fill="white" stroke="#666666" points="360.38,-495 258.88,-495 258.88,-475 360.38,-475 360.38,-495"/>
<text text-anchor="middle" x="309.62" y="-483.4" font-family="SourceSans" font-size="8.00">svg::gradient_element</text>
</a>
</g>
</g>
<!-- Node3&#45;&gt;Node4 -->
<g id="edge3_Node000003_Node000004" class="edge">
<title>Node3&#45;&gt;Node4</title>
<g id="a_edge3_Node000003_Node000004"><a xlink:title=" ">
<path fill="none" stroke="#63b8ff" d="M225.99,-473.45C236.71,-474.94 247.93,-476.51 258.53,-477.99"/>
<polygon fill="#63b8ff" stroke="#63b8ff" points="226.51,-469.98 216.12,-472.07 225.54,-476.92 226.51,-469.98"/>
</a>
</g>
</g>
<!-- Node7 -->
<g id="Node000007" class="node">
<title>Node7</title>
<g id="a_Node000007"><a xlink:href="group__elements.html#structsvg_1_1path__element" target="_top" xlink:title=" ">
<polygon fill="white" stroke="#666666" points="352.88,-457 266.38,-457 266.38,-437 352.88,-437 352.88,-457"/>
<text text-anchor="middle" x="309.62" y="-445.4" font-family="SourceSans" font-size="8.00">svg::path_element</text>
</a>
</g>
</g>
<!-- Node3&#45;&gt;Node7 -->
<g id="edge6_Node000003_Node000007" class="edge">
<title>Node3&#45;&gt;Node7</title>
<g id="a_edge6_Node000003_Node000007"><a xlink:title=" ">
<path fill="none" stroke="#63b8ff" d="M225.66,-458.6C239.09,-456.72 253.35,-454.73 266.18,-452.93"/>
<polygon fill="#63b8ff" stroke="#63b8ff" points="225.54,-455.08 216.12,-459.93 226.51,-462.02 225.54,-455.08"/>
</a>
</g>
</g>
<!-- Node5 -->
<g id="Node000005" class="node">
<title>Node5</title>
<g id="a_Node000005"><a xlink:href="group__elements.html#structsvg_1_1linear__gradient" target="_top" xlink:title="Linear gradients https://developer.mozilla.org/en&#45;US/docs/Web/SVG/Element/linearGradient.">
<polygon fill="white" stroke="#666666" points="490,-514 398.25,-514 398.25,-494 490,-494 490,-514"/>
<text text-anchor="middle" x="444.12" y="-502.4" font-family="SourceSans" font-size="8.00">svg::linear_gradient</text>
</a>
</g>
</g>
<!-- Node4&#45;&gt;Node5 -->
<g id="edge4_Node000004_Node000005" class="edge">
<title>Node4&#45;&gt;Node5</title>
<g id="a_edge4_Node000004_Node000005"><a xlink:title=" ">
<path fill="none" stroke="#63b8ff" d="M372,-493.8C380.67,-495.04 389.46,-496.3 397.75,-497.49"/>
<polygon fill="#63b8ff" stroke="#63b8ff" points="372.61,-490.35 362.22,-492.4 371.62,-497.28 372.61,-490.35"/>
</a>
</g>
</g>
<!-- Node6 -->
<g id="Node000006" class="node">
<title>Node6</title>
<g id="a_Node000006"><a xlink:href="group__elements.html#structsvg_1_1radial__gradient" target="_top" xlink:title="Circular gradients https://developer.mozilla.org/en&#45;US/docs/Web/SVG/Element/radialGradient.">
<polygon fill="white" stroke="#666666" points="490,-476 398.25,-476 398.25,-456 490,-456 490,-476"/>
<text text-anchor="middle" x="444.12" y="-464.4" font-family="SourceSans" font-size="8.00">svg::radial_gradient</text>
</a>
</g>
</g>
<!-- Node4&#45;&gt;Node6 -->
<g id="edge5_Node000004_Node000006" class="edge">
<title>Node4&#45;&gt;Node6</title>
<g id="a_edge5_Node000004_Node000006"><a xlink:title=" ">
<path fill="none" stroke="#63b8ff" d="M372,-476.2C380.67,-474.96 389.46,-473.7 397.75,-472.51"/>
<polygon fill="#63b8ff" stroke="#63b8ff" points="371.62,-472.72 362.22,-477.6 372.61,-479.65 371.62,-472.72"/>
</a>
</g>
</g>
<!-- Node11 -->
<g id="Node000011" class="node">
<title>Node11</title>
<g id="a_Node000011"><a xlink:href="group__elements.html#structsvg_1_1video__element" target="_top" xlink:title="Video object embedded in SVG container. Wrapped in foreign element. https://developer....">
<polygon fill="white" stroke="#666666" points="354,-362 265.25,-362 265.25,-342 354,-342 354,-362"/>
<text text-anchor="middle" x="309.62" y="-350.4" font-family="SourceSans" font-size="8.00">svg::video_element</text>
</a>
</g>
</g>
<!-- Node10&#45;&gt;Node11 -->
<g id="edge10_Node000010_Node000011" class="edge">
<title>Node10&#45;&gt;Node11</title>
<g id="a_edge10_Node000010_Node000011"><a xlink:title=" ">
<path fill="none" stroke="#63b8ff" d="M231.74,-352C242.91,-352 254.41,-352 265,-352"/>
<polygon fill="#63b8ff" stroke="#63b8ff" points="231.79,-348.5 221.79,-352 231.79,-355.5 231.79,-348.5"/>
</a>
</g>
</g>
<!-- Node20 -->
<g id="Node000020" class="node">
<title>Node20</title>
<g id="a_Node000020"><a xlink:href="group__elements.html#structsvg_1_1text__path__element" target="_top" xlink:title=" ">
<polygon fill="white" stroke="#666666" points="362.25,-58 257,-58 257,-38 362.25,-38 362.25,-58"/>
<text text-anchor="middle" x="309.62" y="-46.4" font-family="SourceSans" font-size="8.00">svg::text_path_element</text>
</a>
</g>
</g>
<!-- Node19&#45;&gt;Node20 -->
<g id="edge19_Node000019_Node000020" class="edge">
<title>Node19&#45;&gt;Node20</title>
<g id="a_edge19_Node000019_Node000020"><a xlink:title=" ">
<path fill="none" stroke="#63b8ff" d="M225.23,-48C235.51,-48 246.28,-48 256.55,-48"/>
<polygon fill="#63b8ff" stroke="#63b8ff" points="225.4,-44.5 215.4,-48 225.4,-51.5 225.4,-44.5"/>
</a>
</g>
</g>
</g>
</svg>
