<?xml version="1.0" encoding="UTF-8" standalone="no"?>
<!DOCTYPE svg PUBLIC "-//W3C//DTD SVG 1.1//EN"
 "http://www.w3.org/Graphics/SVG/1.1/DTD/svg11.dtd">
<!-- Generated by graphviz version 2.44.0 (0)
 -->
<!-- Title: svg::point_2d_to_rect_blur Pages: 1 -->
<svg width="558pt" height="254pt"
 viewBox="0.00 0.00 558.00 254.00" xmlns="http://www.w3.org/2000/svg" xmlns:xlink="http://www.w3.org/1999/xlink">
<g id="graph0" class="graph" transform="scale(1 1) rotate(0) translate(4 250)">
<title>svg::point_2d_to_rect_blur</title>
<polygon fill="white" stroke="transparent" points="-4,4 -4,-250 554,-250 554,4 -4,4"/>
<!-- Node1 -->
<g id="node1" class="node">
<title>Node1</title>
<g id="a_node1"><a xlink:title="Point to rectangle blur.">
<polygon fill="#bfbfbf" stroke="black" points="0,-116 0,-133 123,-133 123,-116 0,-116"/>
<text text-anchor="middle" x="61.5" y="-122.6" font-family="SourceSans" font-size="8.00">svg::point_2d_to_rect_blur</text>
</a>
</g>
</g>
<!-- Node2 -->
<g id="node2" class="node">
<title>Node2</title>
<g id="a_node2"><a xlink:href="group__elements.html#a1dd6663d882fb5dd14a47462a77f351b" target="_top" xlink:title="Either serialize immediately (as below), or create data structure that adds data to data_vec and then...">
<polygon fill="white" stroke="black" points="166,-219.5 166,-245.5 262,-245.5 262,-219.5 166,-219.5"/>
<text text-anchor="start" x="174" y="-235.1" font-family="SourceSans" font-size="8.00">svg::rect_element::</text>
<text text-anchor="middle" x="214" y="-226.1" font-family="SourceSans" font-size="8.00">add_data</text>
</a>
</g>
</g>
<!-- Node1&#45;&gt;Node2 -->
<g id="edge1" class="edge">
<title>Node1&#45;&gt;Node2</title>
<path fill="none" stroke="midnightblue" d="M70.24,-133.14C85.69,-149.96 122.05,-187.47 159,-210.5 161.58,-212.11 164.3,-213.64 167.09,-215.1"/>
<polygon fill="midnightblue" stroke="midnightblue" points="165.62,-218.27 176.14,-219.47 168.66,-211.97 165.62,-218.27"/>
</g>
<!-- Node3 -->
<g id="node3" class="node">
<title>Node3</title>
<g id="a_node3"><a xlink:href="group__elements.html#adb6116b96467cc39cb178deb10c7a869" target="_top" xlink:title=" ">
<polygon fill="white" stroke="black" points="159,-174.5 159,-200.5 269,-200.5 269,-174.5 159,-174.5"/>
<text text-anchor="start" x="167" y="-190.1" font-family="SourceSans" font-size="8.00">svg::svg_element::add</text>
<text text-anchor="middle" x="214" y="-181.1" font-family="SourceSans" font-size="8.00">_element</text>
</a>
</g>
</g>
<!-- Node1&#45;&gt;Node3 -->
<g id="edge2" class="edge">
<title>Node1&#45;&gt;Node3</title>
<path fill="none" stroke="midnightblue" d="M83.11,-133.13C106.04,-142.73 143.65,-158.47 172.51,-170.55"/>
<polygon fill="midnightblue" stroke="midnightblue" points="171.36,-173.86 181.93,-174.5 174.06,-167.41 171.36,-173.86"/>
</g>
<!-- Node4 -->
<g id="node4" class="node">
<title>Node4</title>
<g id="a_node4"><a xlink:href="group__elements.html#a1b22cfab9437b40c8b877ffe5472ff02" target="_top" xlink:title=" ">
<polygon fill="white" stroke="black" points="305,-131.5 305,-157.5 406,-157.5 406,-131.5 305,-131.5"/>
<text text-anchor="start" x="313" y="-147.1" font-family="SourceSans" font-size="8.00">svg::element_base::</text>
<text text-anchor="middle" x="355.5" y="-138.1" font-family="SourceSans" font-size="8.00">add_filter</text>
</a>
</g>
</g>
<!-- Node1&#45;&gt;Node4 -->
<g id="edge3" class="edge">
<title>Node1&#45;&gt;Node4</title>
<path fill="none" stroke="midnightblue" d="M123,-128.64C173.33,-132.09 244.57,-136.97 294.7,-140.4"/>
<polygon fill="midnightblue" stroke="midnightblue" points="294.53,-143.9 304.74,-141.09 295.01,-136.92 294.53,-143.9"/>
</g>
<!-- Node7 -->
<g id="node7" class="node">
<title>Node7</title>
<g id="a_node7"><a xlink:href="group__elements.html#a238b38ca99a1cf6c2baf80c8e4338d99" target="_top" xlink:title=" ">
<polygon fill="white" stroke="black" points="163.5,-90.5 163.5,-116.5 264.5,-116.5 264.5,-90.5 163.5,-90.5"/>
<text text-anchor="start" x="171.5" y="-106.1" font-family="SourceSans" font-size="8.00">svg::element_base::</text>
<text text-anchor="middle" x="214" y="-97.1" font-family="SourceSans" font-size="8.00">add_style</text>
</a>
</g>
</g>
<!-- Node1&#45;&gt;Node7 -->
<g id="edge6" class="edge">
<title>Node1&#45;&gt;Node7</title>
<path fill="none" stroke="midnightblue" d="M123.28,-116.02C133.09,-114.65 143.24,-113.23 153.03,-111.87"/>
<polygon fill="midnightblue" stroke="midnightblue" points="153.65,-115.32 163.07,-110.47 152.68,-108.38 153.65,-115.32"/>
</g>
<!-- Node10 -->
<g id="node10" class="node">
<title>Node10</title>
<g id="a_node10"><a xlink:href="group__elements.html#gad01750ac554c6bd6871a930c90e17a04" target="_top" xlink:title=" ">
<polygon fill="white" stroke="black" points="166,-45.5 166,-71.5 262,-71.5 262,-45.5 166,-45.5"/>
<text text-anchor="start" x="174" y="-61.1" font-family="SourceSans" font-size="8.00">svg::rect_element::</text>
<text text-anchor="middle" x="214" y="-52.1" font-family="SourceSans" font-size="8.00">finish_element</text>
</a>
</g>
</g>
<!-- Node1&#45;&gt;Node10 -->
<g id="edge11" class="edge">
<title>Node1&#45;&gt;Node10</title>
<path fill="none" stroke="midnightblue" d="M80.9,-115.84C100.24,-106.8 131.61,-92.32 159,-80.5 162.87,-78.83 166.91,-77.12 170.96,-75.43"/>
<polygon fill="midnightblue" stroke="midnightblue" points="172.45,-78.6 180.36,-71.55 169.78,-72.13 172.45,-78.6"/>
</g>
<!-- Node11 -->
<g id="node11" class="node">
<title>Node11</title>
<g id="a_node11"><a xlink:href="group__elements.html#a1e0ed5e9dfe1244317a87d7e6774348b" target="_top" xlink:title=" ">
<polygon fill="white" stroke="black" points="166,-0.5 166,-26.5 262,-26.5 262,-0.5 166,-0.5"/>
<text text-anchor="start" x="174" y="-16.1" font-family="SourceSans" font-size="8.00">svg::rect_element::</text>
<text text-anchor="middle" x="214" y="-7.1" font-family="SourceSans" font-size="8.00">start_element</text>
</a>
</g>
</g>
<!-- Node1&#45;&gt;Node11 -->
<g id="edge12" class="edge">
<title>Node1&#45;&gt;Node11</title>
<path fill="none" stroke="midnightblue" d="M69.94,-115.81C85.13,-98.5 121.49,-59.33 159,-35.5 161.44,-33.95 164.01,-32.47 166.65,-31.06"/>
<polygon fill="midnightblue" stroke="midnightblue" points="168.37,-34.12 175.81,-26.58 165.29,-27.84 168.37,-34.12"/>
</g>
<!-- Node5 -->
<g id="node5" class="node">
<title>Node5</title>
<g id="a_node5"><a xlink:href="namespacesvg_1_1constants.html#a3972655f1dfdc090ec2592d1fb37e87c" target="_top" xlink:title=" ">
<polygon fill="white" stroke="black" points="442.5,-100 442.5,-117 549.5,-117 549.5,-100 442.5,-100"/>
<text text-anchor="middle" x="496" y="-106.6" font-family="SourceSans" font-size="8.00">svg::constants::quote</text>
</a>
</g>
</g>
<!-- Node4&#45;&gt;Node5 -->
<g id="edge4" class="edge">
<title>Node4&#45;&gt;Node5</title>
<path fill="none" stroke="midnightblue" d="M406.11,-131.6C421.25,-127.67 437.75,-123.38 452.38,-119.58"/>
<polygon fill="midnightblue" stroke="midnightblue" points="453.37,-122.94 462.17,-117.03 451.61,-116.16 453.37,-122.94"/>
</g>
<!-- Node6 -->
<g id="node6" class="node">
<title>Node6</title>
<g id="a_node6"><a xlink:href="namespacesvg_1_1constants.html#ac460bc8db60d85c3ae1cf8b1a903405e" target="_top" xlink:title="Formatting character constants.">
<polygon fill="white" stroke="black" points="442,-136 442,-153 550,-153 550,-136 442,-136"/>
<text text-anchor="middle" x="496" y="-142.6" font-family="SourceSans" font-size="8.00">svg::constants::space</text>
</a>
</g>
</g>
<!-- Node4&#45;&gt;Node6 -->
<g id="edge5" class="edge">
<title>Node4&#45;&gt;Node6</title>
<path fill="none" stroke="midnightblue" d="M406.11,-144.5C414.48,-144.5 423.26,-144.5 431.92,-144.5"/>
<polygon fill="midnightblue" stroke="midnightblue" points="431.99,-148 441.99,-144.5 431.99,-141 431.99,-148"/>
</g>
<!-- Node8 -->
<g id="node8" class="node">
<title>Node8</title>
<g id="a_node8"><a xlink:href="structsvg_1_1style.html#a724baeff8a062d71724ea2eeece5c6a3" target="_top" xlink:title=" ">
<polygon fill="white" stroke="black" points="319,-95 319,-112 392,-112 392,-95 319,-95"/>
<text text-anchor="middle" x="355.5" y="-101.6" font-family="SourceSans" font-size="8.00">svg::style::str</text>
</a>
</g>
</g>
<!-- Node7&#45;&gt;Node8 -->
<g id="edge7" class="edge">
<title>Node7&#45;&gt;Node8</title>
<path fill="none" stroke="midnightblue" d="M264.58,-103.5C278.8,-103.5 294.26,-103.5 308.28,-103.5"/>
<polygon fill="midnightblue" stroke="midnightblue" points="308.67,-107 318.67,-103.5 308.67,-100 308.67,-107"/>
</g>
<!-- Node8&#45;&gt;Node5 -->
<g id="edge8" class="edge">
<title>Node8&#45;&gt;Node5</title>
<path fill="none" stroke="midnightblue" d="M392.17,-104.79C404.37,-105.23 418.4,-105.73 432.1,-106.23"/>
<polygon fill="midnightblue" stroke="midnightblue" points="432.35,-109.74 442.47,-106.6 432.61,-102.75 432.35,-109.74"/>
</g>
<!-- Node8&#45;&gt;Node6 -->
<g id="edge9" class="edge">
<title>Node8&#45;&gt;Node6</title>
<path fill="none" stroke="midnightblue" d="M385.53,-112.09C406.03,-118.16 433.73,-126.36 456.13,-132.99"/>
<polygon fill="midnightblue" stroke="midnightblue" points="455.42,-136.43 466,-135.92 457.41,-129.72 455.42,-136.43"/>
</g>
<!-- Node9 -->
<g id="node9" class="node">
<title>Node9</title>
<g id="a_node9"><a xlink:href="structsvg_1_1colorq.html#adb55a2a48193fafa55340505862278e4" target="_top" xlink:title=" ">
<polygon fill="white" stroke="black" points="444,-64 444,-81 548,-81 548,-64 444,-64"/>
<text text-anchor="middle" x="496" y="-70.6" font-family="SourceSans" font-size="8.00">svg::colorq::to_string</text>
</a>
</g>
</g>
<!-- Node8&#45;&gt;Node9 -->
<g id="edge10" class="edge">
<title>Node8&#45;&gt;Node9</title>
<path fill="none" stroke="midnightblue" d="M392.17,-95.52C408.73,-91.81 428.67,-87.35 446.56,-83.34"/>
<polygon fill="midnightblue" stroke="midnightblue" points="447.54,-86.71 456.54,-81.11 446.01,-79.88 447.54,-86.71"/>
</g>
</g>
</svg>
