<?xml version="1.0" encoding="UTF-8" standalone="no"?>
<!DOCTYPE svg PUBLIC "-//W3C//DTD SVG 1.1//EN"
 "http://www.w3.org/Graphics/SVG/1.1/DTD/svg11.dtd">
<!-- Generated by graphviz version 2.44.0 (0)
 -->
<!-- Title: svg::stack_ids_at Pages: 1 -->
<!--zoomable 269 -->
<svg id="main" version="1.1" xmlns="http://www.w3.org/2000/svg" xmlns:xlink="http://www.w3.org/1999/xlink" xml:space="preserve" onload="init(evt)">
<style type="text/css"><![CDATA[
.edge:hover path { stroke: red; }
.edge:hover polygon { stroke: red; fill: red; }
]]></style>
<script type="text/javascript"><![CDATA[
var edges = document.getElementsByTagName('g');
if (edges && edges.length) {
  for (var i=0;i<edges.length;i++) {
    if (edges[i].id.substr(0,4)=='edge') {
      edges[i].setAttribute('class','edge');
    }
  }
}
]]></script>
        <defs>
                <circle id="rim" cx="0" cy="0" r="7"/>
                <circle id="rim2" cx="0" cy="0" r="3.5"/>
                <g id="zoomPlus">
                        <use xlink:href="#rim" fill="#404040">
                                <set attributeName="fill" to="#808080" begin="zoomplus.mouseover" end="zoomplus.mouseout"/>
                        </use>
                        <path d="M-4,0h8M0,-4v8" fill="none" stroke="white" stroke-width="1.5" pointer-events="none"/>
                </g>
                <g id="zoomMin">
                        <use xlink:href="#rim" fill="#404040">
                                <set attributeName="fill" to="#808080" begin="zoomminus.mouseover" end="zoomminus.mouseout"/>
                        </use>
                        <path d="M-4,0h8" fill="none" stroke="white" stroke-width="1.5" pointer-events="none"/>
                </g>
                <g id="dirArrow">
                        <path fill="none" stroke="white" stroke-width="1.5" d="M0,-3.0v7 M-2.5,-0.5L0,-3.0L2.5,-0.5"/>
                </g>
               <g id="resetDef">
                       <use xlink:href="#rim2" fill="#404040">
                               <set attributeName="fill" to="#808080" begin="reset.mouseover" end="reset.mouseout"/>
                       </use>
               </g>
        </defs>

<script type="text/javascript">
var viewWidth = 959;
var viewHeight = 269;
var sectionId = 'dynsection-56';
</script>
<script xlink:href="svgpan.js"/>
<svg id="graph" class="graph">
<g id="viewport">
<title>svg::stack_ids_at</title>
<polygon fill="white" stroke="transparent" points="-4,4 -4,-265 955,-265 955,4 -4,4"/>
<!-- Node1 -->
<g id="node1" class="node">
<title>Node1</title>
<g id="a_node1"><a xlink:title="Rotate and stack ids at origin point, extending radius for each from point of origin.">
<polygon fill="#bfbfbf" stroke="black" points="0,-86.5 0,-103.5 86,-103.5 86,-86.5 0,-86.5"/>
<text text-anchor="middle" x="43" y="-93.1" font-family="SourceSans" font-size="8.00">svg::stack_ids_at</text>
</a>
</g>
</g>
<!-- Node2 -->
<g id="node2" class="node">
<title>Node2</title>
<g id="a_node2"><a xlink:href="namespacesvg.html#a06b88691cd28e6fb0c8e79ca44b34423" target="_top" xlink:title=" ">
<polygon fill="white" stroke="black" points="122,-86.5 122,-103.5 208,-103.5 208,-86.5 122,-86.5"/>
<text text-anchor="middle" x="165" y="-93.1" font-family="SourceSans" font-size="8.00">svg::radial_text_r</text>
</a>
</g>
</g>
<!-- Node1&#45;&gt;Node2 -->
<g id="edge1" class="edge">
<title>Node1&#45;&gt;Node2</title>
<path fill="none" stroke="midnightblue" d="M86.31,-95C94.46,-95 103.1,-95 111.53,-95"/>
<polygon fill="midnightblue" stroke="midnightblue" points="111.67,-98.5 121.67,-95 111.67,-91.5 111.67,-98.5"/>
</g>
<!-- Node3 -->
<g id="node3" class="node">
<title>Node3</title>
<g id="a_node3"><a xlink:href="namespacesvg.html#ab44508c4aeca591141ebec50145b75cd" target="_top" xlink:title="Angle in degrees.">
<polygon fill="white" stroke="black" points="251,-159 251,-185 364,-185 364,-159 251,-159"/>
<text text-anchor="start" x="259" y="-174.6" font-family="SourceSans" font-size="8.00">svg::get_circumference</text>
<text text-anchor="middle" x="307.5" y="-165.6" font-family="SourceSans" font-size="8.00">_point_d</text>
</a>
</g>
</g>
<!-- Node2&#45;&gt;Node3 -->
<g id="edge2" class="edge">
<title>Node2&#45;&gt;Node3</title>
<path fill="none" stroke="midnightblue" d="M176.55,-103.61C191.06,-115.13 218.28,-135.64 244,-149 248.2,-151.18 252.66,-153.26 257.19,-155.2"/>
<polygon fill="midnightblue" stroke="midnightblue" points="255.93,-158.47 266.51,-159 258.57,-151.98 255.93,-158.47"/>
</g>
<!-- Node6 -->
<g id="node6" class="node">
<title>Node6</title>
<g id="a_node6"><a xlink:href="namespacesvg.html#a5ec86f1aa5e4c9923a7c11c2cbb89660" target="_top" xlink:title="Text with typography, arranged ccw around points (x,y) on a circle.">
<polygon fill="white" stroke="black" points="258.5,-86.5 258.5,-103.5 356.5,-103.5 356.5,-86.5 258.5,-86.5"/>
<text text-anchor="middle" x="307.5" y="-93.1" font-family="SourceSans" font-size="8.00">svg::radial_text_ccw</text>
</a>
</g>
</g>
<!-- Node2&#45;&gt;Node6 -->
<g id="edge5" class="edge">
<title>Node2&#45;&gt;Node6</title>
<path fill="none" stroke="midnightblue" d="M208.15,-95C220.78,-95 234.85,-95 248.32,-95"/>
<polygon fill="midnightblue" stroke="midnightblue" points="248.46,-98.5 258.46,-95 248.46,-91.5 248.46,-98.5"/>
</g>
<!-- Node23 -->
<g id="node23" class="node">
<title>Node23</title>
<g id="a_node23"><a xlink:href="namespacesvg.html#a82c3b1f2d71d9212c46493e76e5dc087" target="_top" xlink:title="Text with typography, arranged cw around points (x,y) on a circle.">
<polygon fill="white" stroke="black" points="260.5,-122.5 260.5,-139.5 354.5,-139.5 354.5,-122.5 260.5,-122.5"/>
<text text-anchor="middle" x="307.5" y="-129.1" font-family="SourceSans" font-size="8.00">svg::radial_text_cw</text>
</a>
</g>
</g>
<!-- Node2&#45;&gt;Node23 -->
<g id="edge32" class="edge">
<title>Node2&#45;&gt;Node23</title>
<path fill="none" stroke="midnightblue" d="M199.3,-103.53C218.4,-108.43 242.61,-114.63 263.19,-119.9"/>
<polygon fill="midnightblue" stroke="midnightblue" points="262.4,-123.31 272.96,-122.4 264.14,-116.53 262.4,-123.31"/>
</g>
<!-- Node24 -->
<g id="node24" class="node">
<title>Node24</title>
<g id="a_node24"><a xlink:href="namespacesvg.html#a010fea242a289d173d521b501140cd72" target="_top" xlink:title="Zero degrees is top, going clockwise (cw).">
<polygon fill="white" stroke="black" points="244,-50.5 244,-67.5 371,-67.5 371,-50.5 244,-50.5"/>
<text text-anchor="middle" x="307.5" y="-57.1" font-family="SourceSans" font-size="8.00">svg::zero_angle_north_ccw</text>
</a>
</g>
</g>
<!-- Node2&#45;&gt;Node24 -->
<g id="edge35" class="edge">
<title>Node2&#45;&gt;Node24</title>
<path fill="none" stroke="midnightblue" d="M199.3,-86.47C218.4,-81.57 242.61,-75.37 263.19,-70.1"/>
<polygon fill="midnightblue" stroke="midnightblue" points="264.14,-73.47 272.96,-67.6 262.4,-66.69 264.14,-73.47"/>
</g>
<!-- Node25 -->
<g id="node25" class="node">
<title>Node25</title>
<g id="a_node25"><a xlink:href="namespacesvg.html#a46164d75fd5109e4ed8879abbacd5c11" target="_top" xlink:title="Zero degrees is top, going clockwise (cw).">
<polygon fill="white" stroke="black" points="246.5,-14.5 246.5,-31.5 368.5,-31.5 368.5,-14.5 246.5,-14.5"/>
<text text-anchor="middle" x="307.5" y="-21.1" font-family="SourceSans" font-size="8.00">svg::zero_angle_north_cw</text>
</a>
</g>
</g>
<!-- Node2&#45;&gt;Node25 -->
<g id="edge36" class="edge">
<title>Node2&#45;&gt;Node25</title>
<path fill="none" stroke="midnightblue" d="M176.42,-86.12C190.76,-74.29 217.81,-53.42 244,-41 248.97,-38.64 254.32,-36.53 259.71,-34.65"/>
<polygon fill="midnightblue" stroke="midnightblue" points="260.97,-37.93 269.41,-31.53 258.82,-31.26 260.97,-37.93"/>
</g>
<!-- Node4 -->
<g id="node4" class="node">
<title>Node4</title>
<g id="a_node4"><a xlink:href="namespacesvg.html#a85a18af2008e9709e4d641ef4bda04e7" target="_top" xlink:title="Angle in radians.">
<polygon fill="white" stroke="black" points="407,-197 407,-223 520,-223 520,-197 407,-197"/>
<text text-anchor="start" x="415" y="-212.6" font-family="SourceSans" font-size="8.00">svg::get_circumference</text>
<text text-anchor="middle" x="463.5" y="-203.6" font-family="SourceSans" font-size="8.00">_point</text>
</a>
</g>
</g>
<!-- Node3&#45;&gt;Node4 -->
<g id="edge3" class="edge">
<title>Node3&#45;&gt;Node4</title>
<path fill="none" stroke="midnightblue" d="M361.5,-185.08C373.79,-188.11 386.98,-191.37 399.65,-194.49"/>
<polygon fill="midnightblue" stroke="midnightblue" points="399.12,-197.97 409.67,-196.96 400.79,-191.17 399.12,-197.97"/>
</g>
<!-- Node5 -->
<g id="node5" class="node">
<title>Node5</title>
<g id="a_node5"><a xlink:href="namespacesvg_1_1constants.html#a0e0b0d9314bc47324ee39884bf8bb2fd" target="_top" xlink:title=" ">
<polygon fill="white" stroke="black" points="418,-160.5 418,-177.5 509,-177.5 509,-160.5 418,-160.5"/>
<text text-anchor="middle" x="463.5" y="-167.1" font-family="SourceSans" font-size="8.00">svg::constants::pi</text>
</a>
</g>
</g>
<!-- Node3&#45;&gt;Node5 -->
<g id="edge4" class="edge">
<title>Node3&#45;&gt;Node5</title>
<path fill="none" stroke="midnightblue" d="M364.1,-170.92C378.24,-170.64 393.43,-170.35 407.54,-170.07"/>
<polygon fill="midnightblue" stroke="midnightblue" points="407.66,-173.57 417.59,-169.87 407.53,-166.57 407.66,-173.57"/>
</g>
<!-- Node7 -->
<g id="node7" class="node">
<title>Node7</title>
<g id="a_node7"><a xlink:href="namespacesvg.html#ab2d2020c33da2e0215837673e530b991" target="_top" xlink:title="Text at size.">
<polygon fill="white" stroke="black" points="425,-122.5 425,-139.5 502,-139.5 502,-122.5 425,-122.5"/>
<text text-anchor="middle" x="463.5" y="-129.1" font-family="SourceSans" font-size="8.00">svg::sized_text</text>
</a>
</g>
</g>
<!-- Node6&#45;&gt;Node7 -->
<g id="edge6" class="edge">
<title>Node6&#45;&gt;Node7</title>
<path fill="none" stroke="midnightblue" d="M345,-103.53C366.3,-108.51 393.39,-114.85 416.19,-120.17"/>
<polygon fill="midnightblue" stroke="midnightblue" points="415.47,-123.6 426,-122.47 417.06,-116.78 415.47,-123.6"/>
</g>
<!-- Node21 -->
<g id="node21" class="node">
<title>Node21</title>
<g id="a_node21"><a xlink:href="namespacesvg.html#a4399801aa964203bcab6e6ab2e7b4200" target="_top" xlink:title="Text at size, with a transformation=rotation.">
<polygon fill="white" stroke="black" points="421.5,-86.5 421.5,-103.5 505.5,-103.5 505.5,-86.5 421.5,-86.5"/>
<text text-anchor="middle" x="463.5" y="-93.1" font-family="SourceSans" font-size="8.00">svg::sized_text_r</text>
</a>
</g>
</g>
<!-- Node6&#45;&gt;Node21 -->
<g id="edge26" class="edge">
<title>Node6&#45;&gt;Node21</title>
<path fill="none" stroke="midnightblue" d="M356.8,-95C374.13,-95 393.72,-95 411.29,-95"/>
<polygon fill="midnightblue" stroke="midnightblue" points="411.37,-98.5 421.37,-95 411.37,-91.5 411.37,-98.5"/>
</g>
<!-- Node8 -->
<g id="node8" class="node">
<title>Node8</title>
<g id="a_node8"><a xlink:href="group__elements.html#a87be030b88c17a86a690b31e95b60612" target="_top" xlink:title="Either serialize immediately (as below), or create data structure that adds data to data_vec and then...">
<polygon fill="white" stroke="black" points="563.5,-127 563.5,-153 658.5,-153 658.5,-127 563.5,-127"/>
<text text-anchor="start" x="571.5" y="-142.6" font-family="SourceSans" font-size="8.00">svg::text_element::</text>
<text text-anchor="middle" x="611" y="-133.6" font-family="SourceSans" font-size="8.00">add_data</text>
</a>
</g>
</g>
<!-- Node7&#45;&gt;Node8 -->
<g id="edge7" class="edge">
<title>Node7&#45;&gt;Node8</title>
<path fill="none" stroke="midnightblue" d="M502.35,-133.34C517.76,-134.29 535.91,-135.42 552.87,-136.47"/>
<polygon fill="midnightblue" stroke="midnightblue" points="553.04,-139.98 563.24,-137.11 553.47,-133 553.04,-139.98"/>
</g>
<!-- Node18 -->
<g id="node18" class="node">
<title>Node18</title>
<g id="a_node18"><a xlink:href="group__elements.html#adb6116b96467cc39cb178deb10c7a869" target="_top" xlink:title=" ">
<polygon fill="white" stroke="black" points="556,-82 556,-108 666,-108 666,-82 556,-82"/>
<text text-anchor="start" x="564" y="-97.6" font-family="SourceSans" font-size="8.00">svg::svg_element::add</text>
<text text-anchor="middle" x="611" y="-88.6" font-family="SourceSans" font-size="8.00">_element</text>
</a>
</g>
</g>
<!-- Node7&#45;&gt;Node18 -->
<g id="edge23" class="edge">
<title>Node7&#45;&gt;Node18</title>
<path fill="none" stroke="midnightblue" d="M498.98,-122.47C513.39,-118.9 530.59,-114.65 547.11,-110.56"/>
<polygon fill="midnightblue" stroke="midnightblue" points="548.4,-113.85 557.27,-108.05 546.72,-107.05 548.4,-113.85"/>
</g>
<!-- Node19 -->
<g id="node19" class="node">
<title>Node19</title>
<g id="a_node19"><a xlink:href="group__elements.html#ga13c46848317034d16c62a7d2061ba3d6" target="_top" xlink:title=" ">
<polygon fill="white" stroke="black" points="563.5,-37 563.5,-63 658.5,-63 658.5,-37 563.5,-37"/>
<text text-anchor="start" x="571.5" y="-52.6" font-family="SourceSans" font-size="8.00">svg::text_element::</text>
<text text-anchor="middle" x="611" y="-43.6" font-family="SourceSans" font-size="8.00">finish_element</text>
</a>
</g>
</g>
<!-- Node7&#45;&gt;Node19 -->
<g id="edge24" class="edge">
<title>Node7&#45;&gt;Node19</title>
<path fill="none" stroke="midnightblue" d="M500.44,-122.47C507.24,-120.01 514.08,-116.9 520,-113 540.26,-99.67 536.24,-86.06 556,-72 558.09,-70.51 560.3,-69.1 562.58,-67.77"/>
<polygon fill="midnightblue" stroke="midnightblue" points="564.41,-70.76 571.64,-63.01 561.16,-64.56 564.41,-70.76"/>
</g>
<!-- Node20 -->
<g id="node20" class="node">
<title>Node20</title>
<g id="a_node20"><a xlink:href="group__elements.html#ae45bec611a6ec17ea46aab6d680ae042" target="_top" xlink:title=" ">
<polygon fill="white" stroke="black" points="563.5,-172 563.5,-198 658.5,-198 658.5,-172 563.5,-172"/>
<text text-anchor="start" x="571.5" y="-187.6" font-family="SourceSans" font-size="8.00">svg::text_element::</text>
<text text-anchor="middle" x="611" y="-178.6" font-family="SourceSans" font-size="8.00">start_element</text>
</a>
</g>
</g>
<!-- Node7&#45;&gt;Node20 -->
<g id="edge25" class="edge">
<title>Node7&#45;&gt;Node20</title>
<path fill="none" stroke="midnightblue" d="M488.57,-139.58C498.34,-143.09 509.72,-147.21 520,-151 535.17,-156.6 551.73,-162.82 566.47,-168.4"/>
<polygon fill="midnightblue" stroke="midnightblue" points="565.27,-171.69 575.86,-171.96 567.75,-165.14 565.27,-171.69"/>
</g>
<!-- Node9 -->
<g id="node9" class="node">
<title>Node9</title>
<g id="a_node9"><a xlink:href="structsvg_1_1typography.html#a70f61596bba3e0bd67b43a8fc553dbfa" target="_top" xlink:title=" ">
<polygon fill="white" stroke="black" points="702,-127 702,-153 807,-153 807,-127 702,-127"/>
<text text-anchor="start" x="710" y="-142.6" font-family="SourceSans" font-size="8.00">svg::typography::add</text>
<text text-anchor="middle" x="754.5" y="-133.6" font-family="SourceSans" font-size="8.00">_attribute</text>
</a>
</g>
</g>
<!-- Node8&#45;&gt;Node9 -->
<g id="edge8" class="edge">
<title>Node8&#45;&gt;Node9</title>
<path fill="none" stroke="midnightblue" d="M658.72,-140C669.33,-140 680.74,-140 691.86,-140"/>
<polygon fill="midnightblue" stroke="midnightblue" points="691.94,-143.5 701.94,-140 691.94,-136.5 691.94,-143.5"/>
</g>
<!-- Node12 -->
<g id="node12" class="node">
<title>Node12</title>
<g id="a_node12"><a xlink:href="namespacesvg.html#a48ac748e89e22789d1772326a98dd7b6" target="_top" xlink:title=" ">
<polygon fill="white" stroke="black" points="849.5,-89.5 849.5,-106.5 944.5,-106.5 944.5,-89.5 849.5,-89.5"/>
<text text-anchor="middle" x="897" y="-96.1" font-family="SourceSans" font-size="8.00">svg::string_replace</text>
</a>
</g>
</g>
<!-- Node8&#45;&gt;Node12 -->
<g id="edge21" class="edge">
<title>Node8&#45;&gt;Node12</title>
<path fill="none" stroke="midnightblue" d="M657.49,-126.94C671.65,-123.26 687.39,-119.57 702,-117 747.9,-108.94 800.54,-104.05 839.4,-101.26"/>
<polygon fill="midnightblue" stroke="midnightblue" points="839.74,-104.74 849.48,-100.56 839.26,-97.76 839.74,-104.74"/>
</g>
<!-- Node14 -->
<g id="node14" class="node">
<title>Node14</title>
<g id="a_node14"><a xlink:href="namespacesvg.html#a36b1c48ad4601b205790e3772ad0a7b6" target="_top" xlink:title=" ">
<polygon fill="white" stroke="black" points="861,-52.5 861,-69.5 933,-69.5 933,-52.5 861,-52.5"/>
<text text-anchor="middle" x="897" y="-59.1" font-family="SourceSans" font-size="8.00">svg::to_string</text>
</a>
</g>
</g>
<!-- Node8&#45;&gt;Node14 -->
<g id="edge22" class="edge">
<title>Node8&#45;&gt;Node14</title>
<path fill="none" stroke="midnightblue" d="M642.88,-126.95C650.45,-123.72 658.53,-120.25 666,-117 682.05,-110.01 685.33,-106.35 702,-101 751.85,-84.99 811.02,-73.87 850.8,-67.5"/>
<polygon fill="midnightblue" stroke="midnightblue" points="851.39,-70.95 860.72,-65.94 850.3,-64.03 851.39,-70.95"/>
</g>
<!-- Node15 -->
<g id="node15" class="node">
<title>Node15</title>
<g id="a_node15"><a xlink:href="group__elements.html#a53d72a7ff728ad1d4d027254530bcf3d" target="_top" xlink:title="Common transforms include rotate(180)">
<polygon fill="white" stroke="black" points="704,-172 704,-198 805,-198 805,-172 704,-172"/>
<text text-anchor="start" x="712" y="-187.6" font-family="SourceSans" font-size="8.00">svg::element_base::</text>
<text text-anchor="middle" x="754.5" y="-178.6" font-family="SourceSans" font-size="8.00">add_transform</text>
</a>
</g>
</g>
<!-- Node8&#45;&gt;Node15 -->
<g id="edge14" class="edge">
<title>Node8&#45;&gt;Node15</title>
<path fill="none" stroke="midnightblue" d="M652.93,-153.02C668.34,-157.92 686.06,-163.55 702.29,-168.72"/>
<polygon fill="midnightblue" stroke="midnightblue" points="701.58,-172.16 712.17,-171.86 703.71,-165.49 701.58,-172.16"/>
</g>
<!-- Node16 -->
<g id="node16" class="node">
<title>Node16</title>
<g id="a_node16"><a xlink:href="structsvg_1_1style.html#a724baeff8a062d71724ea2eeece5c6a3" target="_top" xlink:title=" ">
<polygon fill="white" stroke="black" points="718,-217.5 718,-234.5 791,-234.5 791,-217.5 718,-217.5"/>
<text text-anchor="middle" x="754.5" y="-224.1" font-family="SourceSans" font-size="8.00">svg::style::str</text>
</a>
</g>
</g>
<!-- Node8&#45;&gt;Node16 -->
<g id="edge17" class="edge">
<title>Node8&#45;&gt;Node16</title>
<path fill="none" stroke="midnightblue" d="M649.36,-153.02C655.21,-155.86 660.97,-159.18 666,-163 686.4,-178.49 681.1,-193.2 702,-208 704.83,-210 707.9,-211.8 711.09,-213.41"/>
<polygon fill="midnightblue" stroke="midnightblue" points="709.72,-216.64 720.28,-217.47 712.55,-210.23 709.72,-216.64"/>
</g>
<!-- Node10 -->
<g id="node10" class="node">
<title>Node10</title>
<g id="a_node10"><a xlink:href="namespacesvg_1_1constants.html#a3972655f1dfdc090ec2592d1fb37e87c" target="_top" xlink:title=" ">
<polygon fill="white" stroke="black" points="843.5,-171.5 843.5,-188.5 950.5,-188.5 950.5,-171.5 843.5,-171.5"/>
<text text-anchor="middle" x="897" y="-178.1" font-family="SourceSans" font-size="8.00">svg::constants::quote</text>
</a>
</g>
</g>
<!-- Node9&#45;&gt;Node10 -->
<g id="edge9" class="edge">
<title>Node9&#45;&gt;Node10</title>
<path fill="none" stroke="midnightblue" d="M801.5,-153.1C819.17,-158.13 839.16,-163.82 856.19,-168.67"/>
<polygon fill="midnightblue" stroke="midnightblue" points="855.26,-172.04 865.84,-171.41 857.18,-165.31 855.26,-172.04"/>
</g>
<!-- Node11 -->
<g id="node11" class="node">
<title>Node11</title>
<g id="a_node11"><a xlink:href="namespacesvg_1_1constants.html#ac460bc8db60d85c3ae1cf8b1a903405e" target="_top" xlink:title="Formatting character constants.">
<polygon fill="white" stroke="black" points="843,-207.5 843,-224.5 951,-224.5 951,-207.5 843,-207.5"/>
<text text-anchor="middle" x="897" y="-214.1" font-family="SourceSans" font-size="8.00">svg::constants::space</text>
</a>
</g>
</g>
<!-- Node9&#45;&gt;Node11 -->
<g id="edge10" class="edge">
<title>Node9&#45;&gt;Node11</title>
<path fill="none" stroke="midnightblue" d="M789.38,-153.08C795.45,-155.99 801.57,-159.32 807,-163 825.47,-175.52 823.97,-186.35 843,-198 846.4,-200.08 850.07,-201.96 853.84,-203.64"/>
<polygon fill="midnightblue" stroke="midnightblue" points="852.72,-206.96 863.3,-207.44 855.32,-200.47 852.72,-206.96"/>
</g>
<!-- Node9&#45;&gt;Node12 -->
<g id="edge11" class="edge">
<title>Node9&#45;&gt;Node12</title>
<path fill="none" stroke="midnightblue" d="M799.18,-126.94C817.94,-121.33 839.67,-114.84 857.78,-109.43"/>
<polygon fill="midnightblue" stroke="midnightblue" points="858.85,-112.76 867.42,-106.54 856.84,-106.05 858.85,-112.76"/>
</g>
<!-- Node13 -->
<g id="node13" class="node">
<title>Node13</title>
<g id="a_node13"><a xlink:href="structsvg_1_1typography.html#a174c1ffb4e56214d71523ffe7e422561" target="_top" xlink:title=" ">
<polygon fill="white" stroke="black" points="848,-126 848,-152 946,-152 946,-126 848,-126"/>
<text text-anchor="start" x="856" y="-141.6" font-family="SourceSans" font-size="8.00">svg::typography::to</text>
<text text-anchor="middle" x="897" y="-132.6" font-family="SourceSans" font-size="8.00">_string</text>
</a>
</g>
</g>
<!-- Node9&#45;&gt;Node13 -->
<g id="edge12" class="edge">
<title>Node9&#45;&gt;Node13</title>
<path fill="none" stroke="midnightblue" d="M807.02,-139.63C817,-139.56 827.53,-139.49 837.72,-139.41"/>
<polygon fill="midnightblue" stroke="midnightblue" points="837.78,-142.91 847.76,-139.34 837.73,-135.91 837.78,-142.91"/>
</g>
<!-- Node9&#45;&gt;Node14 -->
<g id="edge13" class="edge">
<title>Node9&#45;&gt;Node14</title>
<path fill="none" stroke="midnightblue" d="M771.8,-126.92C788.8,-113.75 816.6,-93.5 843,-80 847.9,-77.5 853.2,-75.18 858.49,-73.08"/>
<polygon fill="midnightblue" stroke="midnightblue" points="859.78,-76.33 867.93,-69.55 857.33,-69.78 859.78,-76.33"/>
</g>
<!-- Node15&#45;&gt;Node10 -->
<g id="edge15" class="edge">
<title>Node15&#45;&gt;Node10</title>
<path fill="none" stroke="midnightblue" d="M805.04,-183.24C814.09,-182.92 823.64,-182.58 833.02,-182.24"/>
<polygon fill="midnightblue" stroke="midnightblue" points="833.23,-185.74 843.1,-181.88 832.98,-178.74 833.23,-185.74"/>
</g>
<!-- Node15&#45;&gt;Node11 -->
<g id="edge16" class="edge">
<title>Node15&#45;&gt;Node11</title>
<path fill="none" stroke="midnightblue" d="M805.04,-195.93C818.63,-198.93 833.37,-202.18 846.94,-205.18"/>
<polygon fill="midnightblue" stroke="midnightblue" points="846.54,-208.67 857.06,-207.41 848.04,-201.83 846.54,-208.67"/>
</g>
<!-- Node16&#45;&gt;Node10 -->
<g id="edge18" class="edge">
<title>Node16&#45;&gt;Node10</title>
<path fill="none" stroke="midnightblue" d="M781.6,-217.46C803.64,-210.24 835.43,-199.83 859.91,-191.82"/>
<polygon fill="midnightblue" stroke="midnightblue" points="861.15,-195.09 869.57,-188.65 858.97,-188.44 861.15,-195.09"/>
</g>
<!-- Node16&#45;&gt;Node11 -->
<g id="edge19" class="edge">
<title>Node16&#45;&gt;Node11</title>
<path fill="none" stroke="midnightblue" d="M791.32,-223.45C803.88,-222.56 818.39,-221.52 832.53,-220.52"/>
<polygon fill="midnightblue" stroke="midnightblue" points="833.01,-223.99 842.73,-219.79 832.51,-217.01 833.01,-223.99"/>
</g>
<!-- Node17 -->
<g id="node17" class="node">
<title>Node17</title>
<g id="a_node17"><a xlink:href="structsvg_1_1colorq.html#adb55a2a48193fafa55340505862278e4" target="_top" xlink:title=" ">
<polygon fill="white" stroke="black" points="845,-243.5 845,-260.5 949,-260.5 949,-243.5 845,-243.5"/>
<text text-anchor="middle" x="897" y="-250.1" font-family="SourceSans" font-size="8.00">svg::colorq::to_string</text>
</a>
</g>
</g>
<!-- Node16&#45;&gt;Node17 -->
<g id="edge20" class="edge">
<title>Node16&#45;&gt;Node17</title>
<path fill="none" stroke="midnightblue" d="M791.32,-232.63C806.06,-235.36 823.5,-238.58 839.86,-241.61"/>
<polygon fill="midnightblue" stroke="midnightblue" points="839.41,-245.09 849.88,-243.47 840.69,-238.2 839.41,-245.09"/>
</g>
<!-- Node21&#45;&gt;Node8 -->
<g id="edge27" class="edge">
<title>Node21&#45;&gt;Node8</title>
<path fill="none" stroke="midnightblue" d="M492.21,-103.57C510.81,-109.32 535.89,-117.08 558.13,-123.96"/>
<polygon fill="midnightblue" stroke="midnightblue" points="557.2,-127.33 567.78,-126.94 559.26,-120.64 557.2,-127.33"/>
</g>
<!-- Node21&#45;&gt;Node18 -->
<g id="edge28" class="edge">
<title>Node21&#45;&gt;Node18</title>
<path fill="none" stroke="midnightblue" d="M505.81,-95C518.19,-95 532.08,-95 545.59,-95"/>
<polygon fill="midnightblue" stroke="midnightblue" points="545.81,-98.5 555.81,-95 545.8,-91.5 545.81,-98.5"/>
</g>
<!-- Node21&#45;&gt;Node19 -->
<g id="edge29" class="edge">
<title>Node21&#45;&gt;Node19</title>
<path fill="none" stroke="midnightblue" d="M492.21,-86.43C510.81,-80.68 535.89,-72.92 558.13,-66.04"/>
<polygon fill="midnightblue" stroke="midnightblue" points="559.26,-69.36 567.78,-63.06 557.2,-62.67 559.26,-69.36"/>
</g>
<!-- Node21&#45;&gt;Node20 -->
<g id="edge31" class="edge">
<title>Node21&#45;&gt;Node20</title>
<path fill="none" stroke="midnightblue" d="M501.91,-103.52C508.29,-105.96 514.6,-109.06 520,-113 542.12,-129.14 534.48,-146.06 556,-163 557.78,-164.4 559.66,-165.72 561.6,-166.97"/>
<polygon fill="midnightblue" stroke="midnightblue" points="560.07,-170.12 570.5,-171.98 563.5,-164.02 560.07,-170.12"/>
</g>
<!-- Node22 -->
<g id="node22" class="node">
<title>Node22</title>
<g id="a_node22"><a xlink:href="structsvg_1_1transform.html#acf9836f4ba647f0dd2b53963a0f714d0" target="_top" xlink:title=" ">
<polygon fill="white" stroke="black" points="557.5,-0.5 557.5,-17.5 664.5,-17.5 664.5,-0.5 557.5,-0.5"/>
<text text-anchor="middle" x="611" y="-7.1" font-family="SourceSans" font-size="8.00">svg::transform::rotate</text>
</a>
</g>
</g>
<!-- Node21&#45;&gt;Node22 -->
<g id="edge30" class="edge">
<title>Node21&#45;&gt;Node22</title>
<path fill="none" stroke="midnightblue" d="M473.96,-86.34C489.84,-72.2 523.35,-44.01 556,-27 560.21,-24.8 564.75,-22.8 569.34,-20.99"/>
<polygon fill="midnightblue" stroke="midnightblue" points="570.56,-24.27 578.75,-17.55 568.15,-17.69 570.56,-24.27"/>
</g>
<!-- Node23&#45;&gt;Node7 -->
<g id="edge33" class="edge">
<title>Node23&#45;&gt;Node7</title>
<path fill="none" stroke="midnightblue" d="M354.71,-131C373.71,-131 395.7,-131 414.85,-131"/>
<polygon fill="midnightblue" stroke="midnightblue" points="414.86,-134.5 424.86,-131 414.86,-127.5 414.86,-134.5"/>
</g>
<!-- Node23&#45;&gt;Node21 -->
<g id="edge34" class="edge">
<title>Node23&#45;&gt;Node21</title>
<path fill="none" stroke="midnightblue" d="M345,-122.47C366.3,-117.49 393.39,-111.15 416.19,-105.83"/>
<polygon fill="midnightblue" stroke="midnightblue" points="417.06,-109.22 426,-103.53 415.47,-102.4 417.06,-109.22"/>
</g>
</g>
</svg>
        <g id="navigator" transform="translate(0 0)" fill="#404254">
                <rect fill="#f2f5e9" fill-opacity="0.5" stroke="#606060" stroke-width=".5" x="0" y="0" width="60" height="60"/>
                <use id="zoomplus" xlink:href="#zoomPlus" x="17" y="9" onmousedown="handleZoom(evt,'in')"/>
                <use id="zoomminus" xlink:href="#zoomMin" x="42" y="9" onmousedown="handleZoom(evt,'out')"/>
                <use id="reset" xlink:href="#resetDef" x="30" y="36" onmousedown="handleReset()"/>
                <g id="arrowUp" xlink:href="#dirArrow" transform="translate(30 24)" onmousedown="handlePan(0,-1)">
                  <use xlink:href="#rim" fill="#404040">
                        <set attributeName="fill" to="#808080" begin="arrowUp.mouseover" end="arrowUp.mouseout"/>
                  </use>
                  <path fill="none" stroke="white" stroke-width="1.5" d="M0,-3.0v7 M-2.5,-0.5L0,-3.0L2.5,-0.5"/>
                </g>
                <g id="arrowRight" xlink:href="#dirArrow" transform="rotate(90) translate(36 -43)" onmousedown="handlePan(1,0)">
                  <use xlink:href="#rim" fill="#404040">
                        <set attributeName="fill" to="#808080" begin="arrowRight.mouseover" end="arrowRight.mouseout"/>
                  </use>
                  <path fill="none" stroke="white" stroke-width="1.5" d="M0,-3.0v7 M-2.5,-0.5L0,-3.0L2.5,-0.5"/>
                </g>
                <g id="arrowDown" xlink:href="#dirArrow" transform="rotate(180) translate(-30 -48)" onmousedown="handlePan(0,1)">
                  <use xlink:href="#rim" fill="#404040">
                        <set attributeName="fill" to="#808080" begin="arrowDown.mouseover" end="arrowDown.mouseout"/>
                  </use>
                  <path fill="none" stroke="white" stroke-width="1.5" d="M0,-3.0v7 M-2.5,-0.5L0,-3.0L2.5,-0.5"/>
                </g>
                <g id="arrowLeft" xlink:href="#dirArrow" transform="rotate(270) translate(-36 17)" onmousedown="handlePan(-1,0)">
                  <use xlink:href="#rim" fill="#404040">
                        <set attributeName="fill" to="#808080" begin="arrowLeft.mouseover" end="arrowLeft.mouseout"/>
                  </use>
                  <path fill="none" stroke="white" stroke-width="1.5" d="M0,-3.0v7 M-2.5,-0.5L0,-3.0L2.5,-0.5"/>
                </g>
        </g>
        <svg viewBox="0 0 15 15" width="100%" height="30px" preserveAspectRatio="xMaxYMin meet">
         <g id="arrow_out" transform="scale(0.3 0.3)">
          <a xlink:href="namespacesvg_ae052cd57e2e5d8237d0a0287516da2ea_cgraph_org.svg" target="_base">
           <rect id="button" ry="5" rx="5" y="6" x="6" height="38" width="38"
                fill="#f2f5e9" fill-opacity="0.5" stroke="#606060" stroke-width="1.0"/>
           <path id="arrow"
             d="M 11.500037,31.436501 C 11.940474,20.09759 22.043105,11.32322 32.158766,21.979434 L 37.068811,17.246167 C 37.068811,17.246167 37.088388,32 37.088388,32 L 22.160133,31.978069 C 22.160133,31.978069 26.997745,27.140456 26.997745,27.140456 C 18.528582,18.264221 13.291696,25.230495 11.500037,31.436501 z"
             style="fill:#404040;"/>
          </a>
         </g>
        </svg>
</svg>
