<?xml version="1.0" encoding="UTF-8" standalone="no"?>
<!DOCTYPE svg PUBLIC "-//W3C//DTD SVG 1.1//EN"
 "http://www.w3.org/Graphics/SVG/1.1/DTD/svg11.dtd">
<!-- Generated by graphviz version 2.44.0 (0)
 -->
<!-- Title: svg::radiate_id_at_value Pages: 1 -->
<!--zoomable 312 -->
<svg id="main" version="1.1" xmlns="http://www.w3.org/2000/svg" xmlns:xlink="http://www.w3.org/1999/xlink" xml:space="preserve" onload="init(evt)">
<style type="text/css"><![CDATA[
.edge:hover path { stroke: red; }
.edge:hover polygon { stroke: red; fill: red; }
]]></style>
<script type="text/javascript"><![CDATA[
var edges = document.getElementsByTagName('g');
if (edges && edges.length) {
  for (var i=0;i<edges.length;i++) {
    if (edges[i].id.substr(0,4)=='edge') {
      edges[i].setAttribute('class','edge');
    }
  }
}
]]></script>
        <defs>
                <circle id="rim" cx="0" cy="0" r="7"/>
                <circle id="rim2" cx="0" cy="0" r="3.5"/>
                <g id="zoomPlus">
                        <use xlink:href="#rim" fill="#404040">
                                <set attributeName="fill" to="#808080" begin="zoomplus.mouseover" end="zoomplus.mouseout"/>
                        </use>
                        <path d="M-4,0h8M0,-4v8" fill="none" stroke="white" stroke-width="1.5" pointer-events="none"/>
                </g>
                <g id="zoomMin">
                        <use xlink:href="#rim" fill="#404040">
                                <set attributeName="fill" to="#808080" begin="zoomminus.mouseover" end="zoomminus.mouseout"/>
                        </use>
                        <path d="M-4,0h8" fill="none" stroke="white" stroke-width="1.5" pointer-events="none"/>
                </g>
                <g id="dirArrow">
                        <path fill="none" stroke="white" stroke-width="1.5" d="M0,-3.0v7 M-2.5,-0.5L0,-3.0L2.5,-0.5"/>
                </g>
               <g id="resetDef">
                       <use xlink:href="#rim2" fill="#404040">
                               <set attributeName="fill" to="#808080" begin="reset.mouseover" end="reset.mouseout"/>
                       </use>
               </g>
        </defs>

<script type="text/javascript">
var viewWidth = 983;
var viewHeight = 312;
var sectionId = 'dynsection-45';
</script>
<script xlink:href="svgpan.js"/>
<svg id="graph" class="graph">
<g id="viewport">
<title>svg::radiate_id_at_value</title>
<polygon fill="white" stroke="transparent" points="-4,4 -4,-307.5 979,-307.5 979,4 -4,4"/>
<!-- Node1 -->
<g id="node1" class="node">
<title>Node1</title>
<g id="a_node1"><a xlink:title=" ">
<polygon fill="#bfbfbf" stroke="black" points="0,-179 0,-205 89,-205 89,-179 0,-179"/>
<text text-anchor="start" x="8" y="-194.6" font-family="SourceSans" font-size="8.00">svg::radiate_id_at</text>
<text text-anchor="middle" x="44.5" y="-185.6" font-family="SourceSans" font-size="8.00">_value</text>
</a>
</g>
</g>
<!-- Node2 -->
<g id="node2" class="node">
<title>Node2</title>
<g id="a_node2"><a xlink:href="namespacesvg.html#a929b5c33bc0c139332dddd5d3b8ea3d0" target="_top" xlink:title="Transform a value on a range to an angle on the radial range.">
<polygon fill="white" stroke="black" points="140,-240.5 140,-257.5 217,-257.5 217,-240.5 140,-240.5"/>
<text text-anchor="middle" x="178.5" y="-247.1" font-family="SourceSans" font-size="8.00">svg::get_angle</text>
</a>
</g>
</g>
<!-- Node1&#45;&gt;Node2 -->
<g id="edge1" class="edge">
<title>Node1&#45;&gt;Node2</title>
<path fill="none" stroke="midnightblue" d="M70.19,-205.11C85.7,-213.1 106.26,-223.23 125,-231 130.12,-233.12 135.58,-235.2 140.99,-237.15"/>
<polygon fill="midnightblue" stroke="midnightblue" points="139.95,-240.49 150.55,-240.48 142.26,-233.88 139.95,-240.49"/>
</g>
<!-- Node5 -->
<g id="node5" class="node">
<title>Node5</title>
<g id="a_node5"><a xlink:href="namespacesvg.html#aabba9120f22d6011e46be1d065c2b19b" target="_top" xlink:title="Get the label space. Value &#45;&gt; Name, as a string where value has labelspaces of fill NB: Should be the...">
<polygon fill="white" stroke="black" points="125,-204.5 125,-221.5 232,-221.5 232,-204.5 125,-204.5"/>
<text text-anchor="middle" x="178.5" y="-211.1" font-family="SourceSans" font-size="8.00">svg::get_label_spaces</text>
</a>
</g>
</g>
<!-- Node1&#45;&gt;Node5 -->
<g id="edge4" class="edge">
<title>Node1&#45;&gt;Node5</title>
<path fill="none" stroke="midnightblue" d="M89.09,-198.93C97.29,-200.24 106.02,-201.63 114.68,-203.01"/>
<polygon fill="midnightblue" stroke="midnightblue" points="114.34,-206.5 124.77,-204.61 115.44,-199.58 114.34,-206.5"/>
</g>
<!-- Node6 -->
<g id="node6" class="node">
<title>Node6</title>
<g id="a_node6"><a xlink:href="namespacesvg.html#aa89ab2d58bfaf850b84e976828851b9b" target="_top" xlink:title="Make radial labels.">
<polygon fill="white" stroke="black" points="129.5,-159 129.5,-185 227.5,-185 227.5,-159 129.5,-159"/>
<text text-anchor="start" x="137.5" y="-174.6" font-family="SourceSans" font-size="8.00">svg::make_label_for</text>
<text text-anchor="middle" x="178.5" y="-165.6" font-family="SourceSans" font-size="8.00">_value</text>
</a>
</g>
</g>
<!-- Node1&#45;&gt;Node6 -->
<g id="edge5" class="edge">
<title>Node1&#45;&gt;Node6</title>
<path fill="none" stroke="midnightblue" d="M89.09,-185.4C98.77,-183.93 109.19,-182.35 119.36,-180.81"/>
<polygon fill="midnightblue" stroke="midnightblue" points="120.04,-184.25 129.4,-179.29 118.99,-177.32 120.04,-184.25"/>
</g>
<!-- Node7 -->
<g id="node7" class="node">
<title>Node7</title>
<g id="a_node7"><a xlink:href="namespacesvg.html#a06b88691cd28e6fb0c8e79ca44b34423" target="_top" xlink:title=" ">
<polygon fill="white" stroke="black" points="135.5,-122.5 135.5,-139.5 221.5,-139.5 221.5,-122.5 135.5,-122.5"/>
<text text-anchor="middle" x="178.5" y="-129.1" font-family="SourceSans" font-size="8.00">svg::radial_text_r</text>
</a>
</g>
</g>
<!-- Node1&#45;&gt;Node7 -->
<g id="edge6" class="edge">
<title>Node1&#45;&gt;Node7</title>
<path fill="none" stroke="midnightblue" d="M68.39,-178.82C84.05,-170.07 105.44,-158.65 125,-150 130.45,-147.59 136.31,-145.24 142.07,-143.06"/>
<polygon fill="midnightblue" stroke="midnightblue" points="143.4,-146.3 151.58,-139.58 140.99,-139.73 143.4,-146.3"/>
</g>
<!-- Node3 -->
<g id="node3" class="node">
<title>Node3</title>
<g id="a_node3"><a xlink:href="namespacesvg.html#a694806659ebf061e616b8a0b49a53f40" target="_top" xlink:title=" ">
<polygon fill="white" stroke="black" points="279,-240.5 279,-257.5 384,-257.5 384,-240.5 279,-240.5"/>
<text text-anchor="middle" x="331.5" y="-247.1" font-family="SourceSans" font-size="8.00">svg::get_radial_range</text>
</a>
</g>
</g>
<!-- Node2&#45;&gt;Node3 -->
<g id="edge2" class="edge">
<title>Node2&#45;&gt;Node3</title>
<path fill="none" stroke="midnightblue" d="M217.21,-249C232.77,-249 251.2,-249 268.64,-249"/>
<polygon fill="midnightblue" stroke="midnightblue" points="268.76,-252.5 278.76,-249 268.76,-245.5 268.76,-252.5"/>
</g>
<!-- Node4 -->
<g id="node4" class="node">
<title>Node4</title>
<g id="a_node4"><a xlink:href="namespacesvg.html#a673cb54838801fae8471436ce43298a9" target="_top" xlink:title="Scale value from min to max on range (nfloor, nceil).">
<polygon fill="white" stroke="black" points="279.5,-277 279.5,-303 383.5,-303 383.5,-277 279.5,-277"/>
<text text-anchor="start" x="287.5" y="-292.6" font-family="SourceSans" font-size="8.00">svg::normalize_value</text>
<text text-anchor="middle" x="331.5" y="-283.6" font-family="SourceSans" font-size="8.00">_on_range</text>
</a>
</g>
</g>
<!-- Node2&#45;&gt;Node4 -->
<g id="edge3" class="edge">
<title>Node2&#45;&gt;Node4</title>
<path fill="none" stroke="midnightblue" d="M211.15,-257.59C229,-262.44 251.84,-268.64 272.76,-274.32"/>
<polygon fill="midnightblue" stroke="midnightblue" points="271.95,-277.73 282.52,-276.97 273.79,-270.97 271.95,-277.73"/>
</g>
<!-- Node8 -->
<g id="node8" class="node">
<title>Node8</title>
<g id="a_node8"><a xlink:href="namespacesvg.html#ab44508c4aeca591141ebec50145b75cd" target="_top" xlink:title="Angle in degrees.">
<polygon fill="white" stroke="black" points="275,-159 275,-185 388,-185 388,-159 275,-159"/>
<text text-anchor="start" x="283" y="-174.6" font-family="SourceSans" font-size="8.00">svg::get_circumference</text>
<text text-anchor="middle" x="331.5" y="-165.6" font-family="SourceSans" font-size="8.00">_point_d</text>
</a>
</g>
</g>
<!-- Node7&#45;&gt;Node8 -->
<g id="edge7" class="edge">
<title>Node7&#45;&gt;Node8</title>
<path fill="none" stroke="midnightblue" d="M211.15,-139.59C229,-144.44 251.84,-150.64 272.76,-156.32"/>
<polygon fill="midnightblue" stroke="midnightblue" points="271.95,-159.73 282.52,-158.97 273.79,-152.97 271.95,-159.73"/>
</g>
<!-- Node11 -->
<g id="node11" class="node">
<title>Node11</title>
<g id="a_node11"><a xlink:href="namespacesvg.html#a5ec86f1aa5e4c9923a7c11c2cbb89660" target="_top" xlink:title="Text with typography, arranged ccw around points (x,y) on a circle.">
<polygon fill="white" stroke="black" points="282.5,-86.5 282.5,-103.5 380.5,-103.5 380.5,-86.5 282.5,-86.5"/>
<text text-anchor="middle" x="331.5" y="-93.1" font-family="SourceSans" font-size="8.00">svg::radial_text_ccw</text>
</a>
</g>
</g>
<!-- Node7&#45;&gt;Node11 -->
<g id="edge10" class="edge">
<title>Node7&#45;&gt;Node11</title>
<path fill="none" stroke="midnightblue" d="M215.28,-122.47C236.08,-117.51 262.5,-111.21 284.79,-105.9"/>
<polygon fill="midnightblue" stroke="midnightblue" points="285.79,-109.26 294.71,-103.53 284.17,-102.45 285.79,-109.26"/>
</g>
<!-- Node28 -->
<g id="node28" class="node">
<title>Node28</title>
<g id="a_node28"><a xlink:href="namespacesvg.html#a82c3b1f2d71d9212c46493e76e5dc087" target="_top" xlink:title="Text with typography, arranged cw around points (x,y) on a circle.">
<polygon fill="white" stroke="black" points="284.5,-122.5 284.5,-139.5 378.5,-139.5 378.5,-122.5 284.5,-122.5"/>
<text text-anchor="middle" x="331.5" y="-129.1" font-family="SourceSans" font-size="8.00">svg::radial_text_cw</text>
</a>
</g>
</g>
<!-- Node7&#45;&gt;Node28 -->
<g id="edge37" class="edge">
<title>Node7&#45;&gt;Node28</title>
<path fill="none" stroke="midnightblue" d="M221.56,-131C237.9,-131 256.86,-131 274.34,-131"/>
<polygon fill="midnightblue" stroke="midnightblue" points="274.43,-134.5 284.43,-131 274.43,-127.5 274.43,-134.5"/>
</g>
<!-- Node29 -->
<g id="node29" class="node">
<title>Node29</title>
<g id="a_node29"><a xlink:href="namespacesvg.html#a010fea242a289d173d521b501140cd72" target="_top" xlink:title="Zero degrees is top, going clockwise (cw).">
<polygon fill="white" stroke="black" points="268,-50.5 268,-67.5 395,-67.5 395,-50.5 268,-50.5"/>
<text text-anchor="middle" x="331.5" y="-57.1" font-family="SourceSans" font-size="8.00">svg::zero_angle_north_ccw</text>
</a>
</g>
</g>
<!-- Node7&#45;&gt;Node29 -->
<g id="edge40" class="edge">
<title>Node7&#45;&gt;Node29</title>
<path fill="none" stroke="midnightblue" d="M191.25,-122.41C207.69,-110.73 238.84,-89.82 268,-77 273.36,-74.64 279.12,-72.5 284.89,-70.58"/>
<polygon fill="midnightblue" stroke="midnightblue" points="286.04,-73.89 294.55,-67.57 283.96,-67.21 286.04,-73.89"/>
</g>
<!-- Node30 -->
<g id="node30" class="node">
<title>Node30</title>
<g id="a_node30"><a xlink:href="namespacesvg.html#a46164d75fd5109e4ed8879abbacd5c11" target="_top" xlink:title="Zero degrees is top, going clockwise (cw).">
<polygon fill="white" stroke="black" points="270.5,-204.5 270.5,-221.5 392.5,-221.5 392.5,-204.5 270.5,-204.5"/>
<text text-anchor="middle" x="331.5" y="-211.1" font-family="SourceSans" font-size="8.00">svg::zero_angle_north_cw</text>
</a>
</g>
</g>
<!-- Node7&#45;&gt;Node30 -->
<g id="edge41" class="edge">
<title>Node7&#45;&gt;Node30</title>
<path fill="none" stroke="midnightblue" d="M211.71,-139.5C218.77,-142.2 225.93,-145.65 232,-150 252.82,-164.92 246.69,-180.79 268,-195 271.14,-197.1 274.53,-198.95 278.05,-200.6"/>
<polygon fill="midnightblue" stroke="midnightblue" points="277,-203.95 287.58,-204.46 279.63,-197.46 277,-203.95"/>
</g>
<!-- Node9 -->
<g id="node9" class="node">
<title>Node9</title>
<g id="a_node9"><a xlink:href="namespacesvg.html#a85a18af2008e9709e4d641ef4bda04e7" target="_top" xlink:title="Angle in radians.">
<polygon fill="white" stroke="black" points="431,-197 431,-223 544,-223 544,-197 431,-197"/>
<text text-anchor="start" x="439" y="-212.6" font-family="SourceSans" font-size="8.00">svg::get_circumference</text>
<text text-anchor="middle" x="487.5" y="-203.6" font-family="SourceSans" font-size="8.00">_point</text>
</a>
</g>
</g>
<!-- Node8&#45;&gt;Node9 -->
<g id="edge8" class="edge">
<title>Node8&#45;&gt;Node9</title>
<path fill="none" stroke="midnightblue" d="M385.5,-185.08C397.79,-188.11 410.98,-191.37 423.65,-194.49"/>
<polygon fill="midnightblue" stroke="midnightblue" points="423.12,-197.97 433.67,-196.96 424.79,-191.17 423.12,-197.97"/>
</g>
<!-- Node10 -->
<g id="node10" class="node">
<title>Node10</title>
<g id="a_node10"><a xlink:href="namespacesvg_1_1constants.html#a0e0b0d9314bc47324ee39884bf8bb2fd" target="_top" xlink:title=" ">
<polygon fill="white" stroke="black" points="442,-160.5 442,-177.5 533,-177.5 533,-160.5 442,-160.5"/>
<text text-anchor="middle" x="487.5" y="-167.1" font-family="SourceSans" font-size="8.00">svg::constants::pi</text>
</a>
</g>
</g>
<!-- Node8&#45;&gt;Node10 -->
<g id="edge9" class="edge">
<title>Node8&#45;&gt;Node10</title>
<path fill="none" stroke="midnightblue" d="M388.1,-170.92C402.24,-170.64 417.43,-170.35 431.54,-170.07"/>
<polygon fill="midnightblue" stroke="midnightblue" points="431.66,-173.57 441.59,-169.87 431.53,-166.57 431.66,-173.57"/>
</g>
<!-- Node12 -->
<g id="node12" class="node">
<title>Node12</title>
<g id="a_node12"><a xlink:href="namespacesvg.html#ab2d2020c33da2e0215837673e530b991" target="_top" xlink:title="Text at size.">
<polygon fill="white" stroke="black" points="449,-122.5 449,-139.5 526,-139.5 526,-122.5 449,-122.5"/>
<text text-anchor="middle" x="487.5" y="-129.1" font-family="SourceSans" font-size="8.00">svg::sized_text</text>
</a>
</g>
</g>
<!-- Node11&#45;&gt;Node12 -->
<g id="edge11" class="edge">
<title>Node11&#45;&gt;Node12</title>
<path fill="none" stroke="midnightblue" d="M369,-103.53C390.3,-108.51 417.39,-114.85 440.19,-120.17"/>
<polygon fill="midnightblue" stroke="midnightblue" points="439.47,-123.6 450,-122.47 441.06,-116.78 439.47,-123.6"/>
</g>
<!-- Node26 -->
<g id="node26" class="node">
<title>Node26</title>
<g id="a_node26"><a xlink:href="namespacesvg.html#a4399801aa964203bcab6e6ab2e7b4200" target="_top" xlink:title="Text at size, with a transformation=rotation.">
<polygon fill="white" stroke="black" points="445.5,-86.5 445.5,-103.5 529.5,-103.5 529.5,-86.5 445.5,-86.5"/>
<text text-anchor="middle" x="487.5" y="-93.1" font-family="SourceSans" font-size="8.00">svg::sized_text_r</text>
</a>
</g>
</g>
<!-- Node11&#45;&gt;Node26 -->
<g id="edge31" class="edge">
<title>Node11&#45;&gt;Node26</title>
<path fill="none" stroke="midnightblue" d="M380.8,-95C398.13,-95 417.72,-95 435.29,-95"/>
<polygon fill="midnightblue" stroke="midnightblue" points="435.37,-98.5 445.37,-95 435.37,-91.5 435.37,-98.5"/>
</g>
<!-- Node13 -->
<g id="node13" class="node">
<title>Node13</title>
<g id="a_node13"><a xlink:href="group__elements.html#a87be030b88c17a86a690b31e95b60612" target="_top" xlink:title="Either serialize immediately (as below), or create data structure that adds data to data_vec and then...">
<polygon fill="white" stroke="black" points="587.5,-127 587.5,-153 682.5,-153 682.5,-127 587.5,-127"/>
<text text-anchor="start" x="595.5" y="-142.6" font-family="SourceSans" font-size="8.00">svg::text_element::</text>
<text text-anchor="middle" x="635" y="-133.6" font-family="SourceSans" font-size="8.00">add_data</text>
</a>
</g>
</g>
<!-- Node12&#45;&gt;Node13 -->
<g id="edge12" class="edge">
<title>Node12&#45;&gt;Node13</title>
<path fill="none" stroke="midnightblue" d="M526.35,-133.34C541.76,-134.29 559.91,-135.42 576.87,-136.47"/>
<polygon fill="midnightblue" stroke="midnightblue" points="577.04,-139.98 587.24,-137.11 577.47,-133 577.04,-139.98"/>
</g>
<!-- Node23 -->
<g id="node23" class="node">
<title>Node23</title>
<g id="a_node23"><a xlink:href="group__elements.html#adb6116b96467cc39cb178deb10c7a869" target="_top" xlink:title=" ">
<polygon fill="white" stroke="black" points="580,-82 580,-108 690,-108 690,-82 580,-82"/>
<text text-anchor="start" x="588" y="-97.6" font-family="SourceSans" font-size="8.00">svg::svg_element::add</text>
<text text-anchor="middle" x="635" y="-88.6" font-family="SourceSans" font-size="8.00">_element</text>
</a>
</g>
</g>
<!-- Node12&#45;&gt;Node23 -->
<g id="edge28" class="edge">
<title>Node12&#45;&gt;Node23</title>
<path fill="none" stroke="midnightblue" d="M522.98,-122.47C537.39,-118.9 554.59,-114.65 571.11,-110.56"/>
<polygon fill="midnightblue" stroke="midnightblue" points="572.4,-113.85 581.27,-108.05 570.72,-107.05 572.4,-113.85"/>
</g>
<!-- Node24 -->
<g id="node24" class="node">
<title>Node24</title>
<g id="a_node24"><a xlink:href="group__elements.html#ga13c46848317034d16c62a7d2061ba3d6" target="_top" xlink:title=" ">
<polygon fill="white" stroke="black" points="587.5,-37 587.5,-63 682.5,-63 682.5,-37 587.5,-37"/>
<text text-anchor="start" x="595.5" y="-52.6" font-family="SourceSans" font-size="8.00">svg::text_element::</text>
<text text-anchor="middle" x="635" y="-43.6" font-family="SourceSans" font-size="8.00">finish_element</text>
</a>
</g>
</g>
<!-- Node12&#45;&gt;Node24 -->
<g id="edge29" class="edge">
<title>Node12&#45;&gt;Node24</title>
<path fill="none" stroke="midnightblue" d="M524.44,-122.47C531.24,-120.01 538.08,-116.9 544,-113 564.26,-99.67 560.24,-86.06 580,-72 582.09,-70.51 584.3,-69.1 586.58,-67.77"/>
<polygon fill="midnightblue" stroke="midnightblue" points="588.41,-70.76 595.64,-63.01 585.16,-64.56 588.41,-70.76"/>
</g>
<!-- Node25 -->
<g id="node25" class="node">
<title>Node25</title>
<g id="a_node25"><a xlink:href="group__elements.html#ae45bec611a6ec17ea46aab6d680ae042" target="_top" xlink:title=" ">
<polygon fill="white" stroke="black" points="587.5,-172 587.5,-198 682.5,-198 682.5,-172 587.5,-172"/>
<text text-anchor="start" x="595.5" y="-187.6" font-family="SourceSans" font-size="8.00">svg::text_element::</text>
<text text-anchor="middle" x="635" y="-178.6" font-family="SourceSans" font-size="8.00">start_element</text>
</a>
</g>
</g>
<!-- Node12&#45;&gt;Node25 -->
<g id="edge30" class="edge">
<title>Node12&#45;&gt;Node25</title>
<path fill="none" stroke="midnightblue" d="M512.57,-139.58C522.34,-143.09 533.72,-147.21 544,-151 559.17,-156.6 575.73,-162.82 590.47,-168.4"/>
<polygon fill="midnightblue" stroke="midnightblue" points="589.27,-171.69 599.86,-171.96 591.75,-165.14 589.27,-171.69"/>
</g>
<!-- Node14 -->
<g id="node14" class="node">
<title>Node14</title>
<g id="a_node14"><a xlink:href="structsvg_1_1typography.html#a70f61596bba3e0bd67b43a8fc553dbfa" target="_top" xlink:title=" ">
<polygon fill="white" stroke="black" points="726,-127 726,-153 831,-153 831,-127 726,-127"/>
<text text-anchor="start" x="734" y="-142.6" font-family="SourceSans" font-size="8.00">svg::typography::add</text>
<text text-anchor="middle" x="778.5" y="-133.6" font-family="SourceSans" font-size="8.00">_attribute</text>
</a>
</g>
</g>
<!-- Node13&#45;&gt;Node14 -->
<g id="edge13" class="edge">
<title>Node13&#45;&gt;Node14</title>
<path fill="none" stroke="midnightblue" d="M682.72,-140C693.33,-140 704.74,-140 715.86,-140"/>
<polygon fill="midnightblue" stroke="midnightblue" points="715.94,-143.5 725.94,-140 715.94,-136.5 715.94,-143.5"/>
</g>
<!-- Node17 -->
<g id="node17" class="node">
<title>Node17</title>
<g id="a_node17"><a xlink:href="namespacesvg.html#a48ac748e89e22789d1772326a98dd7b6" target="_top" xlink:title=" ">
<polygon fill="white" stroke="black" points="873.5,-89.5 873.5,-106.5 968.5,-106.5 968.5,-89.5 873.5,-89.5"/>
<text text-anchor="middle" x="921" y="-96.1" font-family="SourceSans" font-size="8.00">svg::string_replace</text>
</a>
</g>
</g>
<!-- Node13&#45;&gt;Node17 -->
<g id="edge26" class="edge">
<title>Node13&#45;&gt;Node17</title>
<path fill="none" stroke="midnightblue" d="M681.49,-126.94C695.65,-123.26 711.39,-119.57 726,-117 771.9,-108.94 824.54,-104.05 863.4,-101.26"/>
<polygon fill="midnightblue" stroke="midnightblue" points="863.74,-104.74 873.48,-100.56 863.26,-97.76 863.74,-104.74"/>
</g>
<!-- Node19 -->
<g id="node19" class="node">
<title>Node19</title>
<g id="a_node19"><a xlink:href="namespacesvg.html#a36b1c48ad4601b205790e3772ad0a7b6" target="_top" xlink:title=" ">
<polygon fill="white" stroke="black" points="885,-52.5 885,-69.5 957,-69.5 957,-52.5 885,-52.5"/>
<text text-anchor="middle" x="921" y="-59.1" font-family="SourceSans" font-size="8.00">svg::to_string</text>
</a>
</g>
</g>
<!-- Node13&#45;&gt;Node19 -->
<g id="edge27" class="edge">
<title>Node13&#45;&gt;Node19</title>
<path fill="none" stroke="midnightblue" d="M666.88,-126.95C674.45,-123.72 682.53,-120.25 690,-117 706.05,-110.01 709.33,-106.35 726,-101 775.85,-84.99 835.02,-73.87 874.8,-67.5"/>
<polygon fill="midnightblue" stroke="midnightblue" points="875.39,-70.95 884.72,-65.94 874.3,-64.03 875.39,-70.95"/>
</g>
<!-- Node20 -->
<g id="node20" class="node">
<title>Node20</title>
<g id="a_node20"><a xlink:href="group__elements.html#a53d72a7ff728ad1d4d027254530bcf3d" target="_top" xlink:title="Common transforms include rotate(180)">
<polygon fill="white" stroke="black" points="728,-172 728,-198 829,-198 829,-172 728,-172"/>
<text text-anchor="start" x="736" y="-187.6" font-family="SourceSans" font-size="8.00">svg::element_base::</text>
<text text-anchor="middle" x="778.5" y="-178.6" font-family="SourceSans" font-size="8.00">add_transform</text>
</a>
</g>
</g>
<!-- Node13&#45;&gt;Node20 -->
<g id="edge19" class="edge">
<title>Node13&#45;&gt;Node20</title>
<path fill="none" stroke="midnightblue" d="M676.93,-153.02C692.34,-157.92 710.06,-163.55 726.29,-168.72"/>
<polygon fill="midnightblue" stroke="midnightblue" points="725.58,-172.16 736.17,-171.86 727.71,-165.49 725.58,-172.16"/>
</g>
<!-- Node21 -->
<g id="node21" class="node">
<title>Node21</title>
<g id="a_node21"><a xlink:href="structsvg_1_1style.html#a724baeff8a062d71724ea2eeece5c6a3" target="_top" xlink:title=" ">
<polygon fill="white" stroke="black" points="742,-217.5 742,-234.5 815,-234.5 815,-217.5 742,-217.5"/>
<text text-anchor="middle" x="778.5" y="-224.1" font-family="SourceSans" font-size="8.00">svg::style::str</text>
</a>
</g>
</g>
<!-- Node13&#45;&gt;Node21 -->
<g id="edge22" class="edge">
<title>Node13&#45;&gt;Node21</title>
<path fill="none" stroke="midnightblue" d="M673.36,-153.02C679.21,-155.86 684.97,-159.18 690,-163 710.4,-178.49 705.1,-193.2 726,-208 728.83,-210 731.9,-211.8 735.09,-213.41"/>
<polygon fill="midnightblue" stroke="midnightblue" points="733.72,-216.64 744.28,-217.47 736.55,-210.23 733.72,-216.64"/>
</g>
<!-- Node15 -->
<g id="node15" class="node">
<title>Node15</title>
<g id="a_node15"><a xlink:href="namespacesvg_1_1constants.html#a3972655f1dfdc090ec2592d1fb37e87c" target="_top" xlink:title=" ">
<polygon fill="white" stroke="black" points="867.5,-171.5 867.5,-188.5 974.5,-188.5 974.5,-171.5 867.5,-171.5"/>
<text text-anchor="middle" x="921" y="-178.1" font-family="SourceSans" font-size="8.00">svg::constants::quote</text>
</a>
</g>
</g>
<!-- Node14&#45;&gt;Node15 -->
<g id="edge14" class="edge">
<title>Node14&#45;&gt;Node15</title>
<path fill="none" stroke="midnightblue" d="M825.5,-153.1C843.17,-158.13 863.16,-163.82 880.19,-168.67"/>
<polygon fill="midnightblue" stroke="midnightblue" points="879.26,-172.04 889.84,-171.41 881.18,-165.31 879.26,-172.04"/>
</g>
<!-- Node16 -->
<g id="node16" class="node">
<title>Node16</title>
<g id="a_node16"><a xlink:href="namespacesvg_1_1constants.html#ac460bc8db60d85c3ae1cf8b1a903405e" target="_top" xlink:title="Formatting character constants.">
<polygon fill="white" stroke="black" points="867,-207.5 867,-224.5 975,-224.5 975,-207.5 867,-207.5"/>
<text text-anchor="middle" x="921" y="-214.1" font-family="SourceSans" font-size="8.00">svg::constants::space</text>
</a>
</g>
</g>
<!-- Node14&#45;&gt;Node16 -->
<g id="edge15" class="edge">
<title>Node14&#45;&gt;Node16</title>
<path fill="none" stroke="midnightblue" d="M813.38,-153.08C819.45,-155.99 825.57,-159.32 831,-163 849.47,-175.52 847.97,-186.35 867,-198 870.4,-200.08 874.07,-201.96 877.84,-203.64"/>
<polygon fill="midnightblue" stroke="midnightblue" points="876.72,-206.96 887.3,-207.44 879.32,-200.47 876.72,-206.96"/>
</g>
<!-- Node14&#45;&gt;Node17 -->
<g id="edge16" class="edge">
<title>Node14&#45;&gt;Node17</title>
<path fill="none" stroke="midnightblue" d="M823.18,-126.94C841.94,-121.33 863.67,-114.84 881.78,-109.43"/>
<polygon fill="midnightblue" stroke="midnightblue" points="882.85,-112.76 891.42,-106.54 880.84,-106.05 882.85,-112.76"/>
</g>
<!-- Node18 -->
<g id="node18" class="node">
<title>Node18</title>
<g id="a_node18"><a xlink:href="structsvg_1_1typography.html#a174c1ffb4e56214d71523ffe7e422561" target="_top" xlink:title=" ">
<polygon fill="white" stroke="black" points="872,-126 872,-152 970,-152 970,-126 872,-126"/>
<text text-anchor="start" x="880" y="-141.6" font-family="SourceSans" font-size="8.00">svg::typography::to</text>
<text text-anchor="middle" x="921" y="-132.6" font-family="SourceSans" font-size="8.00">_string</text>
</a>
</g>
</g>
<!-- Node14&#45;&gt;Node18 -->
<g id="edge17" class="edge">
<title>Node14&#45;&gt;Node18</title>
<path fill="none" stroke="midnightblue" d="M831.02,-139.63C841,-139.56 851.53,-139.49 861.72,-139.41"/>
<polygon fill="midnightblue" stroke="midnightblue" points="861.78,-142.91 871.76,-139.34 861.73,-135.91 861.78,-142.91"/>
</g>
<!-- Node14&#45;&gt;Node19 -->
<g id="edge18" class="edge">
<title>Node14&#45;&gt;Node19</title>
<path fill="none" stroke="midnightblue" d="M795.8,-126.92C812.8,-113.75 840.6,-93.5 867,-80 871.9,-77.5 877.2,-75.18 882.49,-73.08"/>
<polygon fill="midnightblue" stroke="midnightblue" points="883.78,-76.33 891.93,-69.55 881.33,-69.78 883.78,-76.33"/>
</g>
<!-- Node20&#45;&gt;Node15 -->
<g id="edge20" class="edge">
<title>Node20&#45;&gt;Node15</title>
<path fill="none" stroke="midnightblue" d="M829.04,-183.24C838.09,-182.92 847.64,-182.58 857.02,-182.24"/>
<polygon fill="midnightblue" stroke="midnightblue" points="857.23,-185.74 867.1,-181.88 856.98,-178.74 857.23,-185.74"/>
</g>
<!-- Node20&#45;&gt;Node16 -->
<g id="edge21" class="edge">
<title>Node20&#45;&gt;Node16</title>
<path fill="none" stroke="midnightblue" d="M829.04,-195.93C842.63,-198.93 857.37,-202.18 870.94,-205.18"/>
<polygon fill="midnightblue" stroke="midnightblue" points="870.54,-208.67 881.06,-207.41 872.04,-201.83 870.54,-208.67"/>
</g>
<!-- Node21&#45;&gt;Node15 -->
<g id="edge23" class="edge">
<title>Node21&#45;&gt;Node15</title>
<path fill="none" stroke="midnightblue" d="M805.6,-217.46C827.64,-210.24 859.43,-199.83 883.91,-191.82"/>
<polygon fill="midnightblue" stroke="midnightblue" points="885.15,-195.09 893.57,-188.65 882.97,-188.44 885.15,-195.09"/>
</g>
<!-- Node21&#45;&gt;Node16 -->
<g id="edge24" class="edge">
<title>Node21&#45;&gt;Node16</title>
<path fill="none" stroke="midnightblue" d="M815.32,-223.45C827.88,-222.56 842.39,-221.52 856.53,-220.52"/>
<polygon fill="midnightblue" stroke="midnightblue" points="857.01,-223.99 866.73,-219.79 856.51,-217.01 857.01,-223.99"/>
</g>
<!-- Node22 -->
<g id="node22" class="node">
<title>Node22</title>
<g id="a_node22"><a xlink:href="structsvg_1_1colorq.html#adb55a2a48193fafa55340505862278e4" target="_top" xlink:title=" ">
<polygon fill="white" stroke="black" points="869,-243.5 869,-260.5 973,-260.5 973,-243.5 869,-243.5"/>
<text text-anchor="middle" x="921" y="-250.1" font-family="SourceSans" font-size="8.00">svg::colorq::to_string</text>
</a>
</g>
</g>
<!-- Node21&#45;&gt;Node22 -->
<g id="edge25" class="edge">
<title>Node21&#45;&gt;Node22</title>
<path fill="none" stroke="midnightblue" d="M815.32,-232.63C830.06,-235.36 847.5,-238.58 863.86,-241.61"/>
<polygon fill="midnightblue" stroke="midnightblue" points="863.41,-245.09 873.88,-243.47 864.69,-238.2 863.41,-245.09"/>
</g>
<!-- Node26&#45;&gt;Node13 -->
<g id="edge32" class="edge">
<title>Node26&#45;&gt;Node13</title>
<path fill="none" stroke="midnightblue" d="M516.21,-103.57C534.81,-109.32 559.89,-117.08 582.13,-123.96"/>
<polygon fill="midnightblue" stroke="midnightblue" points="581.2,-127.33 591.78,-126.94 583.26,-120.64 581.2,-127.33"/>
</g>
<!-- Node26&#45;&gt;Node23 -->
<g id="edge33" class="edge">
<title>Node26&#45;&gt;Node23</title>
<path fill="none" stroke="midnightblue" d="M529.81,-95C542.19,-95 556.08,-95 569.59,-95"/>
<polygon fill="midnightblue" stroke="midnightblue" points="569.81,-98.5 579.81,-95 569.8,-91.5 569.81,-98.5"/>
</g>
<!-- Node26&#45;&gt;Node24 -->
<g id="edge34" class="edge">
<title>Node26&#45;&gt;Node24</title>
<path fill="none" stroke="midnightblue" d="M516.21,-86.43C534.81,-80.68 559.89,-72.92 582.13,-66.04"/>
<polygon fill="midnightblue" stroke="midnightblue" points="583.26,-69.36 591.78,-63.06 581.2,-62.67 583.26,-69.36"/>
</g>
<!-- Node26&#45;&gt;Node25 -->
<g id="edge36" class="edge">
<title>Node26&#45;&gt;Node25</title>
<path fill="none" stroke="midnightblue" d="M525.91,-103.52C532.29,-105.96 538.6,-109.06 544,-113 566.12,-129.14 558.48,-146.06 580,-163 581.78,-164.4 583.66,-165.72 585.6,-166.97"/>
<polygon fill="midnightblue" stroke="midnightblue" points="584.07,-170.12 594.5,-171.98 587.5,-164.02 584.07,-170.12"/>
</g>
<!-- Node27 -->
<g id="node27" class="node">
<title>Node27</title>
<g id="a_node27"><a xlink:href="structsvg_1_1transform.html#acf9836f4ba647f0dd2b53963a0f714d0" target="_top" xlink:title=" ">
<polygon fill="white" stroke="black" points="581.5,-0.5 581.5,-17.5 688.5,-17.5 688.5,-0.5 581.5,-0.5"/>
<text text-anchor="middle" x="635" y="-7.1" font-family="SourceSans" font-size="8.00">svg::transform::rotate</text>
</a>
</g>
</g>
<!-- Node26&#45;&gt;Node27 -->
<g id="edge35" class="edge">
<title>Node26&#45;&gt;Node27</title>
<path fill="none" stroke="midnightblue" d="M497.96,-86.34C513.84,-72.2 547.35,-44.01 580,-27 584.21,-24.8 588.75,-22.8 593.34,-20.99"/>
<polygon fill="midnightblue" stroke="midnightblue" points="594.56,-24.27 602.75,-17.55 592.15,-17.69 594.56,-24.27"/>
</g>
<!-- Node28&#45;&gt;Node12 -->
<g id="edge38" class="edge">
<title>Node28&#45;&gt;Node12</title>
<path fill="none" stroke="midnightblue" d="M378.71,-131C397.71,-131 419.7,-131 438.85,-131"/>
<polygon fill="midnightblue" stroke="midnightblue" points="438.86,-134.5 448.86,-131 438.86,-127.5 438.86,-134.5"/>
</g>
<!-- Node28&#45;&gt;Node26 -->
<g id="edge39" class="edge">
<title>Node28&#45;&gt;Node26</title>
<path fill="none" stroke="midnightblue" d="M369,-122.47C390.3,-117.49 417.39,-111.15 440.19,-105.83"/>
<polygon fill="midnightblue" stroke="midnightblue" points="441.06,-109.22 450,-103.53 439.47,-102.4 441.06,-109.22"/>
</g>
</g>
</svg>
        <g id="navigator" transform="translate(0 0)" fill="#404254">
                <rect fill="#f2f5e9" fill-opacity="0.5" stroke="#606060" stroke-width=".5" x="0" y="0" width="60" height="60"/>
                <use id="zoomplus" xlink:href="#zoomPlus" x="17" y="9" onmousedown="handleZoom(evt,'in')"/>
                <use id="zoomminus" xlink:href="#zoomMin" x="42" y="9" onmousedown="handleZoom(evt,'out')"/>
                <use id="reset" xlink:href="#resetDef" x="30" y="36" onmousedown="handleReset()"/>
                <g id="arrowUp" xlink:href="#dirArrow" transform="translate(30 24)" onmousedown="handlePan(0,-1)">
                  <use xlink:href="#rim" fill="#404040">
                        <set attributeName="fill" to="#808080" begin="arrowUp.mouseover" end="arrowUp.mouseout"/>
                  </use>
                  <path fill="none" stroke="white" stroke-width="1.5" d="M0,-3.0v7 M-2.5,-0.5L0,-3.0L2.5,-0.5"/>
                </g>
                <g id="arrowRight" xlink:href="#dirArrow" transform="rotate(90) translate(36 -43)" onmousedown="handlePan(1,0)">
                  <use xlink:href="#rim" fill="#404040">
                        <set attributeName="fill" to="#808080" begin="arrowRight.mouseover" end="arrowRight.mouseout"/>
                  </use>
                  <path fill="none" stroke="white" stroke-width="1.5" d="M0,-3.0v7 M-2.5,-0.5L0,-3.0L2.5,-0.5"/>
                </g>
                <g id="arrowDown" xlink:href="#dirArrow" transform="rotate(180) translate(-30 -48)" onmousedown="handlePan(0,1)">
                  <use xlink:href="#rim" fill="#404040">
                        <set attributeName="fill" to="#808080" begin="arrowDown.mouseover" end="arrowDown.mouseout"/>
                  </use>
                  <path fill="none" stroke="white" stroke-width="1.5" d="M0,-3.0v7 M-2.5,-0.5L0,-3.0L2.5,-0.5"/>
                </g>
                <g id="arrowLeft" xlink:href="#dirArrow" transform="rotate(270) translate(-36 17)" onmousedown="handlePan(-1,0)">
                  <use xlink:href="#rim" fill="#404040">
                        <set attributeName="fill" to="#808080" begin="arrowLeft.mouseover" end="arrowLeft.mouseout"/>
                  </use>
                  <path fill="none" stroke="white" stroke-width="1.5" d="M0,-3.0v7 M-2.5,-0.5L0,-3.0L2.5,-0.5"/>
                </g>
        </g>
        <svg viewBox="0 0 15 15" width="100%" height="30px" preserveAspectRatio="xMaxYMin meet">
         <g id="arrow_out" transform="scale(0.3 0.3)">
          <a xlink:href="namespacesvg_a34da8d32b24e2bf12ac6094c47ea31a9_cgraph_org.svg" target="_base">
           <rect id="button" ry="5" rx="5" y="6" x="6" height="38" width="38"
                fill="#f2f5e9" fill-opacity="0.5" stroke="#606060" stroke-width="1.0"/>
           <path id="arrow"
             d="M 11.500037,31.436501 C 11.940474,20.09759 22.043105,11.32322 32.158766,21.979434 L 37.068811,17.246167 C 37.068811,17.246167 37.088388,32 37.088388,32 L 22.160133,31.978069 C 22.160133,31.978069 26.997745,27.140456 26.997745,27.140456 C 18.528582,18.264221 13.291696,25.230495 11.500037,31.436501 z"
             style="fill:#404040;"/>
          </a>
         </g>
        </svg>
</svg>
