<?xml version="1.0" encoding="UTF-8" standalone="no"?>
<!DOCTYPE svg PUBLIC "-//W3C//DTD SVG 1.1//EN"
 "http://www.w3.org/Graphics/SVG/1.1/DTD/svg11.dtd">
<!-- Generated by graphviz version 8.1.0 (20230707.0739)
 -->
<!-- Title: svg::radial_gradient::start_element Pages: 1 -->
<svg width="503pt" height="133pt"
 viewBox="0.00 0.00 503.25 132.66" xmlns="http://www.w3.org/2000/svg" xmlns:xlink="http://www.w3.org/1999/xlink">
<g id="graph0" class="graph" transform="scale(1 1) rotate(0) translate(4 128.66)">
<title>svg::radial_gradient::start_element</title>
<!-- Node1 -->
<g id="Node000001" class="node">
<title>Node1</title>
<g id="a_Node000001"><a xlink:title=" ">
<polygon fill="#999999" stroke="#666666" points="91.75,-95 0,-95 0,-63 91.75,-63 91.75,-95"/>
<text text-anchor="start" x="8" y="-83.4" font-family="SourceSans" font-size="8.00">svg::radial_gradient</text>
<text text-anchor="middle" x="45.88" y="-71.4" font-family="SourceSans" font-size="8.00">::start_element</text>
</a>
</g>
</g>
<!-- Node2 -->
<g id="Node000002" class="node">
<title>Node2</title>
<g id="a_Node000002"><a xlink:href="namespacesvg_1_1constants.html#aa7f04c2ea699a1b1e2e790de5ac33f38" target="_top" xlink:title=" ">
<polygon fill="white" stroke="#666666" points="495.25,-86 390.75,-86 390.75,-66 495.25,-66 495.25,-86"/>
<text text-anchor="middle" x="443" y="-74.4" font-family="SourceSans" font-size="8.00">svg::constants::newline</text>
</a>
</g>
</g>
<!-- Node1&#45;&gt;Node2 -->
<g id="edge1_Node000001_Node000002" class="edge">
<title>Node1&#45;&gt;Node2</title>
<g id="a_edge1_Node000001_Node000002"><a xlink:title=" ">
<path fill="none" stroke="#63b8ff" d="M73.87,-95.35C89.1,-103.62 108.82,-112.78 127.75,-117 225.52,-138.82 343.17,-108.87 402.97,-89.74"/>
<polygon fill="#63b8ff" stroke="#63b8ff" points="403.69,-92.87 412.1,-86.43 401.51,-86.21 403.69,-92.87"/>
</a>
</g>
</g>
<!-- Node3 -->
<g id="Node000003" class="node">
<title>Node3</title>
<g id="a_Node000003"><a xlink:href="namespacesvg_1_1constants.html#a3972655f1dfdc090ec2592d1fb37e87c" target="_top" xlink:title=" ">
<polygon fill="white" stroke="#666666" points="227,-108 130,-108 130,-88 227,-88 227,-108"/>
<text text-anchor="middle" x="178.5" y="-96.4" font-family="SourceSans" font-size="8.00">svg::constants::quote</text>
</a>
</g>
</g>
<!-- Node1&#45;&gt;Node3 -->
<g id="edge2_Node000001_Node000003" class="edge">
<title>Node1&#45;&gt;Node3</title>
<g id="a_edge2_Node000001_Node000003"><a xlink:title=" ">
<path fill="none" stroke="#63b8ff" d="M92.19,-85.59C100.79,-86.84 109.89,-88.17 118.82,-89.47"/>
<polygon fill="#63b8ff" stroke="#63b8ff" points="118.19,-93.06 128.59,-91.03 119.2,-86.13 118.19,-93.06"/>
</a>
</g>
</g>
<!-- Node4 -->
<g id="Node000004" class="node">
<title>Node4</title>
<g id="a_Node000004"><a xlink:href="namespacesvg_1_1constants.html#ac460bc8db60d85c3ae1cf8b1a903405e" target="_top" xlink:title="Formatting character constants.">
<polygon fill="white" stroke="#666666" points="226.62,-70 130.38,-70 130.38,-50 226.62,-50 226.62,-70"/>
<text text-anchor="middle" x="178.5" y="-58.4" font-family="SourceSans" font-size="8.00">svg::constants::space</text>
</a>
</g>
</g>
<!-- Node1&#45;&gt;Node4 -->
<g id="edge3_Node000001_Node000004" class="edge">
<title>Node1&#45;&gt;Node4</title>
<g id="a_edge3_Node000001_Node000004"><a xlink:title=" ">
<path fill="none" stroke="#63b8ff" d="M92.19,-72.41C100.99,-71.13 110.31,-69.77 119.45,-68.44"/>
<polygon fill="#63b8ff" stroke="#63b8ff" points="119.65,-71.81 129.04,-66.9 118.64,-64.88 119.65,-71.81"/>
</a>
</g>
</g>
<!-- Node5 -->
<g id="Node000005" class="node">
<title>Node5</title>
<g id="a_Node000005"><a xlink:href="group__elements.html#aeff87acc0c098e1c329a0fd01605c56f" target="_top" xlink:title=" ">
<polygon fill="white" stroke="#666666" points="229.25,-32 127.75,-32 127.75,0 229.25,0 229.25,-32"/>
<text text-anchor="start" x="135.75" y="-20.4" font-family="SourceSans" font-size="8.00">svg::gradient_element</text>
<text text-anchor="middle" x="178.5" y="-8.4" font-family="SourceSans" font-size="8.00">::start_element</text>
</a>
</g>
</g>
<!-- Node1&#45;&gt;Node5 -->
<g id="edge4_Node000001_Node000005" class="edge">
<title>Node1&#45;&gt;Node5</title>
<g id="a_edge4_Node000001_Node000005"><a xlink:title=" ">
<path fill="none" stroke="#63b8ff" d="M80.85,-62.61C97.03,-54.81 116.57,-45.39 133.83,-37.06"/>
<polygon fill="#63b8ff" stroke="#63b8ff" points="135.2,-39.8 142.69,-32.31 132.16,-33.5 135.2,-39.8"/>
</a>
</g>
</g>
<!-- Node6 -->
<g id="Node000006" class="node">
<title>Node6</title>
<g id="a_Node000006"><a xlink:href="group__elements.html#a948868c6f5dea784ded14c26cc1d2139" target="_top" xlink:title=" ">
<polygon fill="white" stroke="#666666" points="354.75,-70 265.25,-70 265.25,-38 354.75,-38 354.75,-70"/>
<text text-anchor="start" x="273.25" y="-58.4" font-family="SourceSans" font-size="8.00">svg::defs_element::</text>
<text text-anchor="middle" x="310" y="-46.4" font-family="SourceSans" font-size="8.00">start_element</text>
</a>
</g>
</g>
<!-- Node5&#45;&gt;Node6 -->
<g id="edge5_Node000005_Node000006" class="edge">
<title>Node5&#45;&gt;Node6</title>
<g id="a_edge5_Node000005_Node000006"><a xlink:title=" ">
<path fill="none" stroke="#63b8ff" d="M229.57,-30.69C237.78,-33.1 246.31,-35.61 254.62,-38.04"/>
<polygon fill="#63b8ff" stroke="#63b8ff" points="253.39,-41.62 263.97,-41.08 255.36,-34.91 253.39,-41.62"/>
</a>
</g>
</g>
<!-- Node6&#45;&gt;Node2 -->
<g id="edge6_Node000006_Node000002" class="edge">
<title>Node6&#45;&gt;Node2</title>
<g id="a_edge6_Node000006_Node000002"><a xlink:title=" ">
<path fill="none" stroke="#63b8ff" d="M354.99,-61.39C363.03,-62.74 371.57,-64.17 380.03,-65.59"/>
<polygon fill="#63b8ff" stroke="#63b8ff" points="379.21,-69.17 389.66,-67.38 380.37,-62.27 379.21,-69.17"/>
</a>
</g>
</g>
</g>
</svg>
