<?xml version="1.0" encoding="UTF-8" standalone="no"?>
<!DOCTYPE svg PUBLIC "-//W3C//DTD SVG 1.1//EN"
 "http://www.w3.org/Graphics/SVG/1.1/DTD/svg11.dtd">
<!-- Generated by graphviz version 8.1.0 (20230707.0739)
 -->
<!-- Title: svg::make_path_triangle Pages: 1 -->
<!--zoomable 375 -->

<svg id="main" version="1.1" xmlns="http://www.w3.org/2000/svg" xmlns:xlink="http://www.w3.org/1999/xlink" xml:space="preserve" onload="init(evt)">
<style type="text/css"><![CDATA[
.node, .edge {opacity: 0.7;}
.node.selected, .edge.selected {opacity: 1;}
.edge:hover path { stroke: red; }
.edge:hover polygon { stroke: red; fill: red; }
]]></style>

<defs>
  <circle id="rim" cx="0" cy="0" r="7"/>
  <circle id="rim2" cx="0" cy="0" r="3.5"/>
  <g id="zoomPlus">
    <use xlink:href="#rim" fill="#404040"><set attributeName="fill" to="#808080" begin="zoomplus.mouseover" end="zoomplus.mouseout"/></use>
    <path d="M-4,0h8M0,-4v8" fill="none" stroke="white" stroke-width="1.5" pointer-events="none"/>
  </g>
  <g id="zoomMin">
    <use xlink:href="#rim" fill="#404040"><set attributeName="fill" to="#808080" begin="zoomminus.mouseover" end="zoomminus.mouseout"/></use>
    <path d="M-4,0h8" fill="none" stroke="white" stroke-width="1.5" pointer-events="none"/>
  </g>
  <g id="arrowUp" transform="translate(30 24)">
    <use xlink:href="#rim"/>
    <path pointer-events="none" fill="none" stroke="white" stroke-width="1.5" d="M0,-3.0v7 M-2.5,-0.5L0,-3.0L2.5,-0.5"/>
  </g>
  <g id="arrowRight" transform="rotate(90) translate(36 -43)">
    <use xlink:href="#rim"/>
    <path pointer-events="none" fill="none" stroke="white" stroke-width="1.5" d="M0,-3.0v7 M-2.5,-0.5L0,-3.0L2.5,-0.5"/>
  </g>
  <g id="arrowDown" transform="rotate(180) translate(-30 -48)">
    <use xlink:href="#rim"/>
    <path pointer-events="none" fill="none" stroke="white" stroke-width="1.5" d="M0,-3.0v7 M-2.5,-0.5L0,-3.0L2.5,-0.5"/>
  </g>
  <g id="arrowLeft" transform="rotate(270) translate(-36 17)">
    <use xlink:href="#rim"/>
    <path pointer-events="none" fill="none" stroke="white" stroke-width="1.5" d="M0,-3.0v7 M-2.5,-0.5L0,-3.0L2.5,-0.5"/>
  </g>
  <g id="resetDef">
    <use xlink:href="#rim2" fill="#404040"><set attributeName="fill" to="#808080" begin="reset.mouseover" end="reset.mouseout"/></use>
  </g>
</defs>
<script type="application/ecmascript">
var viewWidth = 547;
var viewHeight = 375;
var sectionId = 'dynsection-39';
</script>
<script type="application/ecmascript" xlink:href="svg.min.js"/>
<svg id="graph" class="graph">
<g id="viewport">
<title>svg::make_path_triangle</title>
<!-- Node1 -->
<g id="Node000001" class="node">
<title>Node1</title>
<g id="a_Node000001"><a xlink:title="Center a triangle at this point.">
<polygon fill="#999999" stroke="#666666" points="109.75,-180 0,-180 0,-160 109.75,-160 109.75,-180"/>
<text text-anchor="middle" x="54.88" y="-168.4" font-family="SourceSans" font-size="8.00">svg::make_path_triangle</text>
</a>
</g>
</g>
<!-- Node2 -->
<g id="Node000002" class="node">
<title>Node2</title>
<g id="a_Node000002"><a xlink:href="group__elements.html#a807f3c30f2ace338ad10aaf230b47665" target="_top" xlink:title="Either serialize immediately (as below), or create data structure that adds data to data_vec and then...">
<polygon fill="white" stroke="#666666" points="247.62,-367 156.62,-367 156.62,-335 247.62,-335 247.62,-367"/>
<text text-anchor="start" x="164.62" y="-355.4" font-family="SourceSans" font-size="8.00">svg::path_element::</text>
<text text-anchor="middle" x="202.12" y="-343.4" font-family="SourceSans" font-size="8.00">add_data</text>
</a>
</g>
</g>
<!-- Node1&#45;&gt;Node2 -->
<g id="edge1_Node000001_Node000002" class="edge">
<title>Node1&#45;&gt;Node2</title>
<g id="a_edge1_Node000001_Node000002"><a xlink:title=" ">
<path fill="none" stroke="#63b8ff" d="M59.53,-180.26C69.48,-206.96 99.49,-279.56 145.75,-323 147.92,-325.04 150.27,-326.96 152.73,-328.78"/>
<polygon fill="#63b8ff" stroke="#63b8ff" points="150.17,-331.94 160.45,-334.51 154.01,-326.09 150.17,-331.94"/>
</a>
</g>
</g>
<!-- Node4 -->
<g id="Node000004" class="node">
<title>Node4</title>
<g id="a_Node000004"><a xlink:href="group__elements.html#a238b38ca99a1cf6c2baf80c8e4338d99" target="_top" xlink:title=" ">
<polygon fill="white" stroke="#666666" points="247.62,-314 156.62,-314 156.62,-282 247.62,-282 247.62,-314"/>
<text text-anchor="start" x="164.62" y="-302.4" font-family="SourceSans" font-size="8.00">svg::element_base::</text>
<text text-anchor="middle" x="202.12" y="-290.4" font-family="SourceSans" font-size="8.00">add_style</text>
</a>
</g>
</g>
<!-- Node1&#45;&gt;Node4 -->
<g id="edge3_Node000001_Node000004" class="edge">
<title>Node1&#45;&gt;Node4</title>
<g id="a_edge3_Node000001_Node000004"><a xlink:title=" ">
<path fill="none" stroke="#63b8ff" d="M63.65,-180.34C78.22,-199.23 111.3,-239.88 145.75,-267 149.76,-270.16 154.13,-273.19 158.6,-276.03"/>
<polygon fill="#63b8ff" stroke="#63b8ff" points="156.46,-279.43 166.83,-281.59 160.07,-273.43 156.46,-279.43"/>
</a>
</g>
</g>
<!-- Node6 -->
<g id="Node000006" class="node">
<title>Node6</title>
<g id="a_Node000006"><a xlink:href="group__elements.html#gaac30ae99fb1a2542688fa1ffb43cd8e1" target="_top" xlink:title=" ">
<polygon fill="white" stroke="#666666" points="247.62,-258 156.62,-258 156.62,-226 247.62,-226 247.62,-258"/>
<text text-anchor="start" x="164.62" y="-246.4" font-family="SourceSans" font-size="8.00">svg::path_element::</text>
<text text-anchor="middle" x="202.12" y="-234.4" font-family="SourceSans" font-size="8.00">finish_element</text>
</a>
</g>
</g>
<!-- Node1&#45;&gt;Node6 -->
<g id="edge5_Node000001_Node000006" class="edge">
<title>Node1&#45;&gt;Node6</title>
<g id="a_edge5_Node000001_Node000006"><a xlink:title=" ">
<path fill="none" stroke="#63b8ff" d="M75,-180.41C93.08,-190.16 121.05,-204.98 145.75,-217 148.51,-218.34 151.35,-219.7 154.23,-221.06"/>
<polygon fill="#63b8ff" stroke="#63b8ff" points="152.51,-224.58 163.05,-225.62 155.46,-218.23 152.51,-224.58"/>
</a>
</g>
</g>
<!-- Node9 -->
<g id="Node000009" class="node">
<title>Node9</title>
<g id="a_Node000009"><a xlink:href="namespacesvg.html#ab44508c4aeca591141ebec50145b75cd" target="_top" xlink:title="Angle in degrees.">
<polygon fill="white" stroke="#666666" points="254,-208 150.25,-208 150.25,-176 254,-176 254,-208"/>
<text text-anchor="start" x="158.25" y="-196.4" font-family="SourceSans" font-size="8.00">svg::get_circumference</text>
<text text-anchor="middle" x="202.12" y="-184.4" font-family="SourceSans" font-size="8.00">_point_d</text>
</a>
</g>
</g>
<!-- Node1&#45;&gt;Node9 -->
<g id="edge9_Node000001_Node000009" class="edge">
<title>Node1&#45;&gt;Node9</title>
<g id="a_edge9_Node000001_Node000009"><a xlink:title=" ">
<path fill="none" stroke="#63b8ff" d="M109.96,-178.19C119.45,-179.63 129.4,-181.14 139.09,-182.6"/>
<polygon fill="#63b8ff" stroke="#63b8ff" points="138.47,-186.2 148.88,-184.24 139.52,-179.28 138.47,-186.2"/>
</a>
</g>
</g>
<!-- Node12 -->
<g id="Node000012" class="node">
<title>Node12</title>
<g id="a_Node000012"><a xlink:href="namespacesvg_1_1constants.html#ae42b583ceed2552c466993683f819ef2" target="_top" xlink:title=" ">
<polygon fill="white" stroke="#666666" points="254,-158 150.25,-158 150.25,-138 254,-138 254,-158"/>
<text text-anchor="middle" x="202.12" y="-146.4" font-family="SourceSans" font-size="8.00">svg::constants::hyphen</text>
</a>
</g>
</g>
<!-- Node1&#45;&gt;Node12 -->
<g id="edge12_Node000001_Node000012" class="edge">
<title>Node1&#45;&gt;Node12</title>
<g id="a_edge12_Node000001_Node000012"><a xlink:title=" ">
<path fill="none" stroke="#63b8ff" d="M109.96,-161.81C119.45,-160.37 129.4,-158.86 139.09,-157.4"/>
<polygon fill="#63b8ff" stroke="#63b8ff" points="139.52,-160.72 148.88,-155.76 138.47,-153.8 139.52,-160.72"/>
</a>
</g>
</g>
<!-- Node13 -->
<g id="Node000013" class="node">
<title>Node13</title>
<g id="a_Node000013"><a xlink:href="namespacesvg.html#a2c65de7707b8b7b1bca959a3a2bbba91" target="_top" xlink:title="Make single path segment.">
<polygon fill="white" stroke="#666666" points="250.62,-120 153.62,-120 153.62,-88 250.62,-88 250.62,-120"/>
<text text-anchor="start" x="161.62" y="-108.4" font-family="SourceSans" font-size="8.00">svg::make_path_data</text>
<text text-anchor="middle" x="202.12" y="-96.4" font-family="SourceSans" font-size="8.00">_from_points</text>
</a>
</g>
</g>
<!-- Node1&#45;&gt;Node13 -->
<g id="edge13_Node000001_Node000013" class="edge">
<title>Node1&#45;&gt;Node13</title>
<g id="a_edge13_Node000001_Node000013"><a xlink:title=" ">
<path fill="none" stroke="#63b8ff" d="M78.77,-159.53C96.92,-151.23 122.95,-139.35 145.75,-129 148.73,-127.65 151.8,-126.26 154.89,-124.86"/>
<polygon fill="#63b8ff" stroke="#63b8ff" points="156.11,-127.7 163.78,-120.39 153.22,-121.32 156.11,-127.7"/>
</a>
</g>
</g>
<!-- Node15 -->
<g id="Node000015" class="node">
<title>Node15</title>
<g id="a_Node000015"><a xlink:href="group__elements.html#a6dbca7cef2cbc0c10aa44c44ae20b36e" target="_top" xlink:title=" ">
<polygon fill="white" stroke="#666666" points="247.62,-70 156.62,-70 156.62,-38 247.62,-38 247.62,-70"/>
<text text-anchor="start" x="164.62" y="-58.4" font-family="SourceSans" font-size="8.00">svg::path_element::</text>
<text text-anchor="middle" x="202.12" y="-46.4" font-family="SourceSans" font-size="8.00">start_element</text>
</a>
</g>
</g>
<!-- Node1&#45;&gt;Node15 -->
<g id="edge15_Node000001_Node000015" class="edge">
<title>Node1&#45;&gt;Node15</title>
<g id="a_edge15_Node000001_Node000015"><a xlink:title=" ">
<path fill="none" stroke="#63b8ff" d="M63.81,-159.78C78.39,-141.55 111.12,-103.09 145.75,-79 147.44,-77.83 149.19,-76.68 150.99,-75.58"/>
<polygon fill="#63b8ff" stroke="#63b8ff" points="152.26,-78.32 159.25,-70.36 148.82,-72.22 152.26,-78.32"/>
</a>
</g>
</g>
<!-- Node17 -->
<g id="Node000017" class="node">
<title>Node17</title>
<g id="a_Node000017"><a xlink:href="namespacesvg.html#a46164d75fd5109e4ed8879abbacd5c11" target="_top" xlink:title="Zero degrees is top, going clockwise (cw).">
<polygon fill="white" stroke="#666666" points="258.5,-20 145.75,-20 145.75,0 258.5,0 258.5,-20"/>
<text text-anchor="middle" x="202.12" y="-8.4" font-family="SourceSans" font-size="8.00">svg::zero_angle_north_cw</text>
</a>
</g>
</g>
<!-- Node1&#45;&gt;Node17 -->
<g id="edge18_Node000001_Node000017" class="edge">
<title>Node1&#45;&gt;Node17</title>
<g id="a_edge18_Node000001_Node000017"><a xlink:title=" ">
<path fill="none" stroke="#63b8ff" d="M59.59,-159.82C69.49,-134.08 98.99,-65.81 145.75,-29 147.37,-27.73 149.07,-26.54 150.85,-25.42"/>
<polygon fill="#63b8ff" stroke="#63b8ff" points="151.97,-28.26 159.16,-20.48 148.68,-22.08 151.97,-28.26"/>
</a>
</g>
</g>
<!-- Node3 -->
<g id="Node000003" class="node">
<title>Node3</title>
<g id="a_Node000003"><a xlink:href="namespacesvg.html#a48ac748e89e22789d1772326a98dd7b6" target="_top" xlink:title=" ">
<polygon fill="white" stroke="#666666" points="390,-364 302.75,-364 302.75,-344 390,-344 390,-364"/>
<text text-anchor="middle" x="346.38" y="-352.4" font-family="SourceSans" font-size="8.00">svg::string_replace</text>
</a>
</g>
</g>
<!-- Node2&#45;&gt;Node3 -->
<g id="edge2_Node000002_Node000003" class="edge">
<title>Node2&#45;&gt;Node3</title>
<g id="a_edge2_Node000002_Node000003"><a xlink:title=" ">
<path fill="none" stroke="#63b8ff" d="M247.74,-351.94C261.64,-352.23 277.11,-352.56 291.56,-352.87"/>
<polygon fill="#63b8ff" stroke="#63b8ff" points="291.3,-356.38 301.37,-353.09 291.45,-349.38 291.3,-356.38"/>
</a>
</g>
</g>
<!-- Node5 -->
<g id="Node000005" class="node">
<title>Node5</title>
<g id="a_Node000005"><a xlink:href="namespacesvg.html#a36b1c48ad4601b205790e3772ad0a7b6" target="_top" xlink:title=" ">
<polygon fill="white" stroke="#666666" points="379.88,-326 312.88,-326 312.88,-306 379.88,-306 379.88,-326"/>
<text text-anchor="middle" x="346.38" y="-314.4" font-family="SourceSans" font-size="8.00">svg::to_string</text>
</a>
</g>
</g>
<!-- Node4&#45;&gt;Node5 -->
<g id="edge4_Node000004_Node000005" class="edge">
<title>Node4&#45;&gt;Node5</title>
<g id="a_edge4_Node000004_Node000005"><a xlink:title=" ">
<path fill="none" stroke="#63b8ff" d="M247.74,-303.65C264.99,-305.83 284.66,-308.32 301.8,-310.49"/>
<polygon fill="#63b8ff" stroke="#63b8ff" points="301.29,-314.08 311.65,-311.86 302.17,-307.13 301.29,-314.08"/>
</a>
</g>
</g>
<!-- Node7 -->
<g id="Node000007" class="node">
<title>Node7</title>
<g id="a_Node000007"><a xlink:href="group__elements.html#ga503ee2895588a6c684e2b1614cf4e73d" target="_top" xlink:title=" ">
<polygon fill="white" stroke="#666666" points="391.12,-288 301.62,-288 301.62,-256 391.12,-256 391.12,-288"/>
<text text-anchor="start" x="309.62" y="-276.4" font-family="SourceSans" font-size="8.00">svg::defs_element::</text>
<text text-anchor="middle" x="346.38" y="-264.4" font-family="SourceSans" font-size="8.00">finish_element</text>
</a>
</g>
</g>
<!-- Node6&#45;&gt;Node7 -->
<g id="edge6_Node000006_Node000007" class="edge">
<title>Node6&#45;&gt;Node7</title>
<g id="a_edge6_Node000006_Node000007"><a xlink:title=" ">
<path fill="none" stroke="#63b8ff" d="M247.74,-251.41C261.38,-254.29 276.53,-257.48 290.75,-260.48"/>
<polygon fill="#63b8ff" stroke="#63b8ff" points="289.9,-264.09 300.4,-262.73 291.34,-257.24 289.9,-264.09"/>
</a>
</g>
</g>
<!-- Node8 -->
<g id="Node000008" class="node">
<title>Node8</title>
<g id="a_Node000008"><a xlink:href="namespacesvg_1_1constants.html#aa7f04c2ea699a1b1e2e790de5ac33f38" target="_top" xlink:title=" ">
<polygon fill="white" stroke="#666666" points="538.75,-238 434.25,-238 434.25,-218 538.75,-218 538.75,-238"/>
<text text-anchor="middle" x="486.5" y="-226.4" font-family="SourceSans" font-size="8.00">svg::constants::newline</text>
</a>
</g>
</g>
<!-- Node6&#45;&gt;Node8 -->
<g id="edge8_Node000006_Node000008" class="edge">
<title>Node6&#45;&gt;Node8</title>
<g id="a_edge8_Node000006_Node000008"><a xlink:title=" ">
<path fill="none" stroke="#63b8ff" d="M247.87,-239.78C295.05,-237.44 369.77,-233.74 422.81,-231.11"/>
<polygon fill="#63b8ff" stroke="#63b8ff" points="422.97,-234.56 432.78,-230.56 422.62,-227.56 422.97,-234.56"/>
</a>
</g>
</g>
<!-- Node7&#45;&gt;Node8 -->
<g id="edge7_Node000007_Node000008" class="edge">
<title>Node7&#45;&gt;Node8</title>
<g id="a_edge7_Node000007_Node000008"><a xlink:title=" ">
<path fill="none" stroke="#63b8ff" d="M391.46,-257.96C407.78,-252.76 426.25,-246.87 442.48,-241.71"/>
<polygon fill="#63b8ff" stroke="#63b8ff" points="443.3,-244.8 451.77,-238.43 441.18,-238.13 443.3,-244.8"/>
</a>
</g>
</g>
<!-- Node10 -->
<g id="Node000010" class="node">
<title>Node10</title>
<g id="a_Node000010"><a xlink:href="namespacesvg.html#aef05ac63d88a6102981d3faf37275297" target="_top" xlink:title="Angle in radians.">
<polygon fill="white" stroke="#666666" points="398.25,-200 294.5,-200 294.5,-168 398.25,-168 398.25,-200"/>
<text text-anchor="start" x="302.5" y="-188.4" font-family="SourceSans" font-size="8.00">svg::get_circumference</text>
<text text-anchor="middle" x="346.38" y="-176.4" font-family="SourceSans" font-size="8.00">_point_r</text>
</a>
</g>
</g>
<!-- Node9&#45;&gt;Node10 -->
<g id="edge10_Node000009_Node000010" class="edge">
<title>Node9&#45;&gt;Node10</title>
<g id="a_edge10_Node000009_Node000010"><a xlink:title=" ">
<path fill="none" stroke="#63b8ff" d="M254.48,-189.11C263.85,-188.59 273.71,-188.03 283.35,-187.49"/>
<polygon fill="#63b8ff" stroke="#63b8ff" points="283.31,-190.94 293.09,-186.88 282.91,-183.95 283.31,-190.94"/>
</a>
</g>
</g>
<!-- Node11 -->
<g id="Node000011" class="node">
<title>Node11</title>
<g id="a_Node000011"><a xlink:href="namespacesvg_1_1constants.html#a0e0b0d9314bc47324ee39884bf8bb2fd" target="_top" xlink:title=" ">
<polygon fill="white" stroke="#666666" points="387.38,-150 305.38,-150 305.38,-130 387.38,-130 387.38,-150"/>
<text text-anchor="middle" x="346.38" y="-138.4" font-family="SourceSans" font-size="8.00">svg::constants::pi</text>
</a>
</g>
</g>
<!-- Node9&#45;&gt;Node11 -->
<g id="edge11_Node000009_Node000011" class="edge">
<title>Node9&#45;&gt;Node11</title>
<g id="a_edge11_Node000009_Node000011"><a xlink:title=" ">
<path fill="none" stroke="#63b8ff" d="M248.13,-175.55C266.91,-168.68 288.51,-160.79 306.58,-154.18"/>
<polygon fill="#63b8ff" stroke="#63b8ff" points="307.57,-157.18 315.76,-150.46 305.17,-150.61 307.57,-157.18"/>
</a>
</g>
</g>
<!-- Node14 -->
<g id="Node000014" class="node">
<title>Node14</title>
<g id="a_Node000014"><a xlink:href="namespacesvg_1_1constants.html#ac460bc8db60d85c3ae1cf8b1a903405e" target="_top" xlink:title="Formatting character constants.">
<polygon fill="white" stroke="#666666" points="394.5,-112 298.25,-112 298.25,-92 394.5,-92 394.5,-112"/>
<text text-anchor="middle" x="346.38" y="-100.4" font-family="SourceSans" font-size="8.00">svg::constants::space</text>
</a>
</g>
</g>
<!-- Node13&#45;&gt;Node14 -->
<g id="edge14_Node000013_Node000014" class="edge">
<title>Node13&#45;&gt;Node14</title>
<g id="a_edge14_Node000013_Node000014"><a xlink:title=" ">
<path fill="none" stroke="#63b8ff" d="M250.89,-103.33C262.51,-103.17 275.06,-102.99 287.1,-102.82"/>
<polygon fill="#63b8ff" stroke="#63b8ff" points="287.03,-106.31 296.98,-102.67 286.93,-99.31 287.03,-106.31"/>
</a>
</g>
</g>
<!-- Node16 -->
<g id="Node000016" class="node">
<title>Node16</title>
<g id="a_Node000016"><a xlink:href="group__elements.html#a948868c6f5dea784ded14c26cc1d2139" target="_top" xlink:title=" ">
<polygon fill="white" stroke="#666666" points="391.12,-71 301.62,-71 301.62,-39 391.12,-39 391.12,-71"/>
<text text-anchor="start" x="309.62" y="-59.4" font-family="SourceSans" font-size="8.00">svg::defs_element::</text>
<text text-anchor="middle" x="346.38" y="-47.4" font-family="SourceSans" font-size="8.00">start_element</text>
</a>
</g>
</g>
<!-- Node15&#45;&gt;Node16 -->
<g id="edge16_Node000015_Node000016" class="edge">
<title>Node15&#45;&gt;Node16</title>
<g id="a_edge16_Node000015_Node000016"><a xlink:title=" ">
<path fill="none" stroke="#63b8ff" d="M247.74,-54.31C261.38,-54.41 276.53,-54.52 290.75,-54.62"/>
<polygon fill="#63b8ff" stroke="#63b8ff" points="290.38,-58.12 300.4,-54.69 290.43,-51.12 290.38,-58.12"/>
</a>
</g>
</g>
<!-- Node16&#45;&gt;Node8 -->
<g id="edge17_Node000016_Node000008" class="edge">
<title>Node16&#45;&gt;Node8</title>
<g id="a_edge17_Node000016_Node000008"><a xlink:title=" ">
<path fill="none" stroke="#63b8ff" d="M382.98,-71.4C388.44,-74.79 393.75,-78.67 398.25,-83 436.72,-120.01 464.53,-177.52 477.44,-207.79"/>
<polygon fill="#63b8ff" stroke="#63b8ff" points="474.45,-208.73 481.51,-216.63 480.92,-206.05 474.45,-208.73"/>
</a>
</g>
</g>
</g>
</svg>

<g id="navigator" transform="translate(0 0)" fill="#404254">
  <rect fill="#f2f5e9" fill-opacity="0.5" stroke="#606060" stroke-width=".5" x="0" y="0" width="60" height="60"/>
  <use id="zoomplus" xlink:href="#zoomPlus" x="17" y="9" onmousedown="handleZoom(evt,'in')"/>
  <use id="zoomminus" xlink:href="#zoomMin" x="42" y="9" onmousedown="handleZoom(evt,'out')"/>
  <use id="reset" xlink:href="#resetDef" x="30" y="36" onmousedown="handleReset()"/>
   <use id="arrowup" xlink:href="#arrowUp" x="0" y="0" onmousedown="handlePan(0,-1)"/>
  <use id="arrowright" xlink:href="#arrowRight" x="0" y="0" onmousedown="handlePan(1,0)"/>
  <use id="arrowdown" xlink:href="#arrowDown" x="0" y="0" onmousedown="handlePan(0,1)"/>
  <use id="arrowleft" xlink:href="#arrowLeft" x="0" y="0" onmousedown="handlePan(-1,0)"/>
</g>
<svg viewBox="0 0 15 15" width="100%" height="30px" preserveAspectRatio="xMaxYMin meet">
 <g id="arrow_out" transform="scale(0.3 0.3)">
  <a xlink:href="namespacesvg_a08b2a593c701c76c9b07584ee56b9505_cgraph_org.svg" target="_base">
   <rect id="button" ry="5" rx="5" y="6" x="6" height="38" width="38"
        fill="#f2f5e9" fill-opacity="0.5" stroke="#606060" stroke-width="1.0"/>
   <path id="arrow"
     d="M 11.500037,31.436501 C 11.940474,20.09759 22.043105,11.32322 32.158766,21.979434 L 37.068811,17.246167 C 37.068811,17.246167 37.088388,32 37.088388,32 L 22.160133,31.978069 C 22.160133,31.978069 26.997745,27.140456 26.997745,27.140456 C 18.528582,18.264221 13.291696,25.230495 11.500037,31.436501 z"
     style="fill:#404040;"/>
  </a>
 </g>
</svg>

<style type='text/css'>
<![CDATA[
[data-mouse-over-selected='false'] { opacity: 0.7; }
[data-mouse-over-selected='true']  { opacity: 1.0; }
]]>
</style>
<script type="application/ecmascript"><![CDATA[
document.addEventListener('DOMContentLoaded', (event) => {
  highlightEdges();
  highlightAdjacentNodes();
});
]]></script>
</svg>
