<?xml version="1.0" encoding="UTF-8" standalone="no"?>
<!DOCTYPE svg PUBLIC "-//W3C//DTD SVG 1.1//EN"
 "http://www.w3.org/Graphics/SVG/1.1/DTD/svg11.dtd">
<!-- Generated by graphviz version 8.1.0 (20230707.0739)
 -->
<!-- Title: a60::metadata::h_chord_graph_labels Pages: 1 -->
<svg width="258pt" height="154pt"
 viewBox="0.00 0.00 257.50 154.00" xmlns="http://www.w3.org/2000/svg" xmlns:xlink="http://www.w3.org/1999/xlink">

<svg id="main" version="1.1" xmlns="http://www.w3.org/2000/svg" xmlns:xlink="http://www.w3.org/1999/xlink" xml:space="preserve" onload="init(evt)">
<style type="text/css"><![CDATA[
.node, .edge {opacity: 0.7;}
.node.selected, .edge.selected {opacity: 1;}
.edge:hover path { stroke: red; }
.edge:hover polygon { stroke: red; fill: red; }
]]></style>
<script type="application/ecmascript" xlink:href="svg.min.js"/>
<svg id="graph" class="graph">
<g id="graph0" class="graph" transform="scale(1 1) rotate(0) translate(4 150)">
<title>a60::metadata::h_chord_graph_labels</title>
<!-- Node1 -->
<g id="Node000001" class="node">
<title>Node1</title>
<g id="a_Node000001"><a xlink:title="Grid, titles, labels for h_chord_graph. @yscale == how much to vertically scale the bar graph from ce...">
<polygon fill="#999999" stroke="#666666" points="106,-83 0,-83 0,-51 106,-51 106,-83"/>
<text text-anchor="start" x="8" y="-71.4" font-family="SourceSans" font-size="8.00">a60::metadata::h_chord</text>
<text text-anchor="middle" x="53" y="-59.4" font-family="SourceSans" font-size="8.00">_graph_labels</text>
</a>
</g>
</g>
<!-- Node2 -->
<g id="Node000002" class="node">
<title>Node2</title>
<g id="a_Node000002"><a xlink:href="namespacea60_1_1metadata.html#a4c88caad75ba7fd9dffc58be1f715b28" target="_top" xlink:title="Compute xoffset.">
<polygon fill="white" stroke="#666666" points="239.75,-146 151.75,-146 151.75,-114 239.75,-114 239.75,-146"/>
<text text-anchor="start" x="159.75" y="-134.4" font-family="SourceSans" font-size="8.00">a60::metadata::get</text>
<text text-anchor="middle" x="195.75" y="-122.4" font-family="SourceSans" font-size="8.00">_xoffset</text>
</a>
</g>
</g>
<!-- Node1&#45;&gt;Node2 -->
<g id="edge1_Node000001_Node000002" class="edge">
<title>Node1&#45;&gt;Node2</title>
<g id="a_edge1_Node000001_Node000002"><a xlink:title=" ">
<path fill="none" stroke="#63b8ff" d="M90.61,-83.39C108.29,-91.3 129.69,-100.88 148.48,-109.29"/>
<polygon fill="#63b8ff" stroke="#63b8ff" points="146.76,-112.8 157.32,-113.69 149.62,-106.41 146.76,-112.8"/>
</a>
</g>
</g>
<!-- Node3 -->
<g id="Node000003" class="node">
<title>Node3</title>
<g id="a_Node000003"><a xlink:href="namespacea60_1_1metadata.html#a22b86d9f6417957b79f6e9dab13296dc" target="_top" xlink:title=" ">
<polygon fill="white" stroke="#666666" points="249.5,-96 142,-96 142,-76 249.5,-76 249.5,-96"/>
<text text-anchor="middle" x="195.75" y="-84.4" font-family="SourceSans" font-size="8.00">a60::metadata::hdenom</text>
</a>
</g>
</g>
<!-- Node1&#45;&gt;Node3 -->
<g id="edge2_Node000001_Node000003" class="edge">
<title>Node1&#45;&gt;Node3</title>
<g id="a_edge2_Node000001_Node000003"><a xlink:title=" ">
<path fill="none" stroke="#63b8ff" d="M106.41,-74.07C114.45,-75.16 122.83,-76.29 131.09,-77.41"/>
<polygon fill="#63b8ff" stroke="#63b8ff" points="130.45,-80.99 140.83,-78.86 131.38,-74.05 130.45,-80.99"/>
</a>
</g>
</g>
<!-- Node4 -->
<g id="Node000004" class="node">
<title>Node4</title>
<g id="a_Node000004"><a xlink:href="namespacea60_1_1metadata.html#a2a619ed21560d442f5dfae5ea8101fce" target="_top" xlink:title="Distance between label and top/bottom of line or text.">
<polygon fill="white" stroke="#666666" points="247.25,-58 144.25,-58 144.25,-38 247.25,-38 247.25,-58"/>
<text text-anchor="middle" x="195.75" y="-46.4" font-family="SourceSans" font-size="8.00">a60::metadata::vlspace</text>
</a>
</g>
</g>
<!-- Node1&#45;&gt;Node4 -->
<g id="edge3_Node000001_Node000004" class="edge">
<title>Node1&#45;&gt;Node4</title>
<g id="a_edge3_Node000001_Node000004"><a xlink:title=" ">
<path fill="none" stroke="#63b8ff" d="M106.41,-59.93C115.19,-58.74 124.37,-57.5 133.35,-56.29"/>
<polygon fill="#63b8ff" stroke="#63b8ff" points="133.72,-59.63 143.17,-54.83 132.79,-52.7 133.72,-59.63"/>
</a>
</g>
</g>
<!-- Node5 -->
<g id="Node000005" class="node">
<title>Node5</title>
<g id="a_Node000005"><a xlink:href="namespacea60_1_1metadata.html#a888d9b1e7402e335f8e7544373855a92" target="_top" xlink:title=" ">
<polygon fill="white" stroke="#666666" points="246.12,-20 145.38,-20 145.38,0 246.12,0 246.12,-20"/>
<text text-anchor="middle" x="195.75" y="-8.4" font-family="SourceSans" font-size="8.00">a60::metadata::vspace</text>
</a>
</g>
</g>
<!-- Node1&#45;&gt;Node5 -->
<g id="edge4_Node000001_Node000005" class="edge">
<title>Node1&#45;&gt;Node5</title>
<g id="a_edge4_Node000001_Node000005"><a xlink:title=" ">
<path fill="none" stroke="#63b8ff" d="M90.61,-50.59C106.34,-43.7 124.98,-35.73 142,-29 146.12,-27.37 150.45,-25.72 154.78,-24.1"/>
<polygon fill="#63b8ff" stroke="#63b8ff" points="155.6,-27.16 163.78,-20.43 153.19,-20.59 155.6,-27.16"/>
</a>
</g>
</g>
</g>
</svg>
</svg>

<style type='text/css'>
<![CDATA[
[data-mouse-over-selected='false'] { opacity: 0.7; }
[data-mouse-over-selected='true']  { opacity: 1.0; }
]]>
</style>
<script type="application/ecmascript"><![CDATA[
document.addEventListener('DOMContentLoaded', (event) => {
  highlightEdges();
  highlightAdjacentNodes();
});
]]></script>
</svg>
