<?xml version="1.0" encoding="UTF-8" standalone="no"?>
<!DOCTYPE svg PUBLIC "-//W3C//DTD SVG 1.1//EN"
 "http://www.w3.org/Graphics/SVG/1.1/DTD/svg11.dtd">
<!-- Generated by graphviz version 8.1.0 (20230707.0739)
 -->
<!-- Title: svg::make_path_arc_closed Pages: 1 -->
<svg width="379pt" height="157pt"
 viewBox="0.00 0.00 378.50 157.00" xmlns="http://www.w3.org/2000/svg" xmlns:xlink="http://www.w3.org/1999/xlink">

<svg id="main" version="1.1" xmlns="http://www.w3.org/2000/svg" xmlns:xlink="http://www.w3.org/1999/xlink" xml:space="preserve" onload="init(evt)">
<style type="text/css"><![CDATA[
.node, .edge {opacity: 0.7;}
.node.selected, .edge.selected {opacity: 1;}
.edge:hover path { stroke: red; }
.edge:hover polygon { stroke: red; fill: red; }
]]></style>
<script type="application/ecmascript" xlink:href="svg.min.js"/>
<svg id="graph" class="graph">
<g id="graph0" class="graph" transform="scale(1 1) rotate(0) translate(4 153)">
<title>svg::make_path_arc_closed</title>
<!-- Node1 -->
<g id="Node000001" class="node">
<title>Node1</title>
<g id="a_Node000001"><a xlink:title="Same but with degree range arguments instead of points. NB: Assumes appropriate zero_angle_north_cw/c...">
<polygon fill="#999999" stroke="#666666" points="91,-86 0,-86 0,-54 91,-54 91,-86"/>
<text text-anchor="start" x="8" y="-74.4" font-family="SourceSans" font-size="8.00">svg::make_path_arc</text>
<text text-anchor="middle" x="45.5" y="-62.4" font-family="SourceSans" font-size="8.00">_closed</text>
</a>
</g>
</g>
<!-- Node2 -->
<g id="Node000002" class="node">
<title>Node2</title>
<g id="a_Node000002"><a xlink:href="namespacesvg.html#ab44508c4aeca591141ebec50145b75cd" target="_top" xlink:title="Angle in degrees.">
<polygon fill="white" stroke="#666666" points="230.75,-111 127,-111 127,-79 230.75,-79 230.75,-111"/>
<text text-anchor="start" x="135" y="-99.4" font-family="SourceSans" font-size="8.00">svg::get_circumference</text>
<text text-anchor="middle" x="178.88" y="-87.4" font-family="SourceSans" font-size="8.00">_point_d</text>
</a>
</g>
</g>
<!-- Node1&#45;&gt;Node2 -->
<g id="edge1_Node000001_Node000002" class="edge">
<title>Node1&#45;&gt;Node2</title>
<g id="a_edge1_Node000001_Node000002"><a xlink:title=" ">
<path fill="none" stroke="#63b8ff" d="M91.34,-78.53C99.39,-80.07 107.91,-81.69 116.33,-83.29"/>
<polygon fill="#63b8ff" stroke="#63b8ff" points="115.43,-86.87 125.91,-85.3 116.74,-79.99 115.43,-86.87"/>
</a>
</g>
</g>
<!-- Node5 -->
<g id="Node000005" class="node">
<title>Node5</title>
<g id="a_Node000005"><a xlink:href="namespacesvg.html#a8e3421a573ebb8e56428ce8c76f3f9ec" target="_top" xlink:title="Make closed path between two points and the center of a circle of radius r. Points like: get_circumfe...">
<polygon fill="white" stroke="#666666" points="224.38,-61 133.38,-61 133.38,-29 224.38,-29 224.38,-61"/>
<text text-anchor="start" x="141.38" y="-49.4" font-family="SourceSans" font-size="8.00">svg::make_path_arc</text>
<text text-anchor="middle" x="178.88" y="-37.4" font-family="SourceSans" font-size="8.00">_closed</text>
</a>
</g>
</g>
<!-- Node1&#45;&gt;Node5 -->
<g id="edge4_Node000001_Node000005" class="edge">
<title>Node1&#45;&gt;Node5</title>
<g id="a_edge4_Node000001_Node000005"><a xlink:title=" ">
<path fill="none" stroke="#63b8ff" d="M91.34,-61.47C101.39,-59.56 112.15,-57.51 122.56,-55.53"/>
<polygon fill="#63b8ff" stroke="#63b8ff" points="123.06,-58.8 132.23,-53.5 121.75,-51.93 123.06,-58.8"/>
</a>
</g>
</g>
<!-- Node3 -->
<g id="Node000003" class="node">
<title>Node3</title>
<g id="a_Node000003"><a xlink:href="namespacesvg.html#aef05ac63d88a6102981d3faf37275297" target="_top" xlink:title="Angle in radians.">
<polygon fill="white" stroke="#666666" points="370.5,-149 266.75,-149 266.75,-117 370.5,-117 370.5,-149"/>
<text text-anchor="start" x="274.75" y="-137.4" font-family="SourceSans" font-size="8.00">svg::get_circumference</text>
<text text-anchor="middle" x="318.62" y="-125.4" font-family="SourceSans" font-size="8.00">_point_r</text>
</a>
</g>
</g>
<!-- Node2&#45;&gt;Node3 -->
<g id="edge2_Node000002_Node000003" class="edge">
<title>Node2&#45;&gt;Node3</title>
<g id="a_edge2_Node000002_Node000003"><a xlink:title=" ">
<path fill="none" stroke="#63b8ff" d="M231.17,-109.15C239.24,-111.38 247.65,-113.7 255.92,-115.98"/>
<polygon fill="#63b8ff" stroke="#63b8ff" points="254.72,-119.55 265.29,-118.84 256.58,-112.81 254.72,-119.55"/>
</a>
</g>
</g>
<!-- Node4 -->
<g id="Node000004" class="node">
<title>Node4</title>
<g id="a_Node000004"><a xlink:href="namespacesvg_1_1constants.html#a0e0b0d9314bc47324ee39884bf8bb2fd" target="_top" xlink:title=" ">
<polygon fill="white" stroke="#666666" points="359.62,-99 277.62,-99 277.62,-79 359.62,-79 359.62,-99"/>
<text text-anchor="middle" x="318.62" y="-87.4" font-family="SourceSans" font-size="8.00">svg::constants::pi</text>
</a>
</g>
</g>
<!-- Node2&#45;&gt;Node4 -->
<g id="edge3_Node000002_Node000004" class="edge">
<title>Node2&#45;&gt;Node4</title>
<g id="a_edge3_Node000002_Node000004"><a xlink:title=" ">
<path fill="none" stroke="#63b8ff" d="M231.17,-92.77C242.76,-92.26 255.07,-91.72 266.65,-91.22"/>
<polygon fill="#63b8ff" stroke="#63b8ff" points="266.64,-94.68 276.48,-90.75 266.34,-87.69 266.64,-94.68"/>
</a>
</g>
</g>
<!-- Node6 -->
<g id="Node000006" class="node">
<title>Node6</title>
<g id="a_Node000006"><a xlink:href="namespacesvg_1_1constants.html#ac460bc8db60d85c3ae1cf8b1a903405e" target="_top" xlink:title="Formatting character constants.">
<polygon fill="white" stroke="#666666" points="366.75,-58 270.5,-58 270.5,-38 366.75,-38 366.75,-58"/>
<text text-anchor="middle" x="318.62" y="-46.4" font-family="SourceSans" font-size="8.00">svg::constants::space</text>
</a>
</g>
</g>
<!-- Node5&#45;&gt;Node6 -->
<g id="edge5_Node000005_Node000006" class="edge">
<title>Node5&#45;&gt;Node6</title>
<g id="a_edge5_Node000005_Node000006"><a xlink:title=" ">
<path fill="none" stroke="#63b8ff" d="M224.6,-45.97C235.67,-46.22 247.7,-46.48 259.31,-46.73"/>
<polygon fill="#63b8ff" stroke="#63b8ff" points="259.21,-50.25 269.28,-46.97 259.36,-43.25 259.21,-50.25"/>
</a>
</g>
</g>
<!-- Node7 -->
<g id="Node000007" class="node">
<title>Node7</title>
<g id="a_Node000007"><a xlink:href="namespacesvg.html#a36b1c48ad4601b205790e3772ad0a7b6" target="_top" xlink:title=" ">
<polygon fill="white" stroke="#666666" points="352.12,-20 285.12,-20 285.12,0 352.12,0 352.12,-20"/>
<text text-anchor="middle" x="318.62" y="-8.4" font-family="SourceSans" font-size="8.00">svg::to_string</text>
</a>
</g>
</g>
<!-- Node5&#45;&gt;Node7 -->
<g id="edge6_Node000005_Node000007" class="edge">
<title>Node5&#45;&gt;Node7</title>
<g id="a_edge6_Node000005_Node000007"><a xlink:title=" ">
<path fill="none" stroke="#63b8ff" d="M224.6,-33.64C240.56,-29.58 258.49,-25.02 274.33,-21"/>
<polygon fill="#63b8ff" stroke="#63b8ff" points="275.08,-24.17 283.91,-18.31 273.35,-17.38 275.08,-24.17"/>
</a>
</g>
</g>
</g>
</svg>
</svg>

<style type='text/css'>
<![CDATA[
[data-mouse-over-selected='false'] { opacity: 0.7; }
[data-mouse-over-selected='true']  { opacity: 1.0; }
]]>
</style>
<script type="application/ecmascript"><![CDATA[
document.addEventListener('DOMContentLoaded', (event) => {
  highlightEdges();
  highlightAdjacentNodes();
});
]]></script>
</svg>
