<?xml version="1.0" encoding="UTF-8" standalone="no"?>
<!DOCTYPE svg PUBLIC "-//W3C//DTD SVG 1.1//EN"
 "http://www.w3.org/Graphics/SVG/1.1/DTD/svg11.dtd">
<!-- Generated by graphviz version 8.1.0 (20230707.0739)
 -->
<!-- Title: a60::metadata::analyze_metadata_aggregate_chord Pages: 1 -->
<!--zoomable 167 -->

<svg id="main" version="1.1" xmlns="http://www.w3.org/2000/svg" xmlns:xlink="http://www.w3.org/1999/xlink" xml:space="preserve" onload="init(evt)">
<style type="text/css"><![CDATA[
.node, .edge {opacity: 0.7;}
.node.selected, .edge.selected {opacity: 1;}
.edge:hover path { stroke: red; }
.edge:hover polygon { stroke: red; fill: red; }
]]></style>

<defs>
  <circle id="rim" cx="0" cy="0" r="7"/>
  <circle id="rim2" cx="0" cy="0" r="3.5"/>
  <g id="zoomPlus">
    <use xlink:href="#rim" fill="#404040"><set attributeName="fill" to="#808080" begin="zoomplus.mouseover" end="zoomplus.mouseout"/></use>
    <path d="M-4,0h8M0,-4v8" fill="none" stroke="white" stroke-width="1.5" pointer-events="none"/>
  </g>
  <g id="zoomMin">
    <use xlink:href="#rim" fill="#404040"><set attributeName="fill" to="#808080" begin="zoomminus.mouseover" end="zoomminus.mouseout"/></use>
    <path d="M-4,0h8" fill="none" stroke="white" stroke-width="1.5" pointer-events="none"/>
  </g>
  <g id="arrowUp" transform="translate(30 24)">
    <use xlink:href="#rim"/>
    <path pointer-events="none" fill="none" stroke="white" stroke-width="1.5" d="M0,-3.0v7 M-2.5,-0.5L0,-3.0L2.5,-0.5"/>
  </g>
  <g id="arrowRight" transform="rotate(90) translate(36 -43)">
    <use xlink:href="#rim"/>
    <path pointer-events="none" fill="none" stroke="white" stroke-width="1.5" d="M0,-3.0v7 M-2.5,-0.5L0,-3.0L2.5,-0.5"/>
  </g>
  <g id="arrowDown" transform="rotate(180) translate(-30 -48)">
    <use xlink:href="#rim"/>
    <path pointer-events="none" fill="none" stroke="white" stroke-width="1.5" d="M0,-3.0v7 M-2.5,-0.5L0,-3.0L2.5,-0.5"/>
  </g>
  <g id="arrowLeft" transform="rotate(270) translate(-36 17)">
    <use xlink:href="#rim"/>
    <path pointer-events="none" fill="none" stroke="white" stroke-width="1.5" d="M0,-3.0v7 M-2.5,-0.5L0,-3.0L2.5,-0.5"/>
  </g>
  <g id="resetDef">
    <use xlink:href="#rim2" fill="#404040"><set attributeName="fill" to="#808080" begin="reset.mouseover" end="reset.mouseout"/></use>
  </g>
</defs>
<script type="application/ecmascript">
var viewWidth = 723;
var viewHeight = 167;
var sectionId = 'dynsection-0';
</script>
<script type="application/ecmascript" xlink:href="svg.min.js"/>
<svg id="graph" class="graph">
<g id="viewport">
<title>a60::metadata::analyze_metadata_aggregate_chord</title>
<!-- Node1 -->
<g id="Node000001" class="node">
<title>Node1</title>
<g id="a_Node000001"><a xlink:title="Analyze metadata directory or subset of it, and generate summary output for all in directory....">
<polygon fill="#999999" stroke="#666666" points="125.5,-87 0,-87 0,-55 125.5,-55 125.5,-87"/>
<text text-anchor="start" x="8" y="-75.4" font-family="SourceSans" font-size="8.00">a60::metadata::analyze</text>
<text text-anchor="middle" x="62.75" y="-63.4" font-family="SourceSans" font-size="8.00">_metadata_aggregate_chord</text>
</a>
</g>
</g>
<!-- Node2 -->
<g id="Node000002" class="node">
<title>Node2</title>
<g id="a_Node000002"><a xlink:href="namespacea60_1_1metadata.html#abb1e8fbeb00e7bf7a8f019c0fd951073" target="_top" xlink:title="Analyze metadata directory or subset of it and generate summary output for all in directory.">
<polygon fill="white" stroke="#666666" points="287,-87 161.5,-87 161.5,-55 287,-55 287,-87"/>
<text text-anchor="start" x="169.5" y="-75.4" font-family="SourceSans" font-size="8.00">a60::metadata::render</text>
<text text-anchor="middle" x="224.25" y="-63.4" font-family="SourceSans" font-size="8.00">_metadata_aggregate_chord</text>
</a>
</g>
</g>
<!-- Node1&#45;&gt;Node2 -->
<g id="edge1_Node000001_Node000002" class="edge">
<title>Node1&#45;&gt;Node2</title>
<g id="a_edge1_Node000001_Node000002"><a xlink:title=" ">
<path fill="none" stroke="#63b8ff" d="M125.87,-71C133.81,-71 141.99,-71 150.09,-71"/>
<polygon fill="#63b8ff" stroke="#63b8ff" points="150.03,-74.5 160.03,-71 150.03,-67.5 150.03,-74.5"/>
</a>
</g>
</g>
<!-- Node3 -->
<g id="Node000003" class="node">
<title>Node3</title>
<g id="a_Node000003"><a xlink:href="namespacea60_1_1metadata.html#a1fde7b7617a6da1a221d09f4ce033ee9" target="_top" xlink:title=" ">
<polygon fill="white" stroke="#666666" points="429,-87 323,-87 323,-55 429,-55 429,-87"/>
<text text-anchor="start" x="331" y="-75.4" font-family="SourceSans" font-size="8.00">a60::metadata::h_chord</text>
<text text-anchor="middle" x="376" y="-63.4" font-family="SourceSans" font-size="8.00">_graph</text>
</a>
</g>
</g>
<!-- Node2&#45;&gt;Node3 -->
<g id="edge2_Node000002_Node000003" class="edge">
<title>Node2&#45;&gt;Node3</title>
<g id="a_edge2_Node000002_Node000003"><a xlink:title=" ">
<path fill="none" stroke="#63b8ff" d="M287.46,-71C295.52,-71 303.79,-71 311.87,-71"/>
<polygon fill="#63b8ff" stroke="#63b8ff" points="311.74,-74.5 321.74,-71 311.74,-67.5 311.74,-74.5"/>
</a>
</g>
</g>
<!-- Node4 -->
<g id="Node000004" class="node">
<title>Node4</title>
<g id="a_Node000004"><a xlink:href="namespacea60_1_1metadata.html#a4c88caad75ba7fd9dffc58be1f715b28" target="_top" xlink:title="Compute xoffset.">
<polygon fill="white" stroke="#666666" points="704.75,-159 616.75,-159 616.75,-127 704.75,-127 704.75,-159"/>
<text text-anchor="start" x="624.75" y="-147.4" font-family="SourceSans" font-size="8.00">a60::metadata::get</text>
<text text-anchor="middle" x="660.75" y="-135.4" font-family="SourceSans" font-size="8.00">_xoffset</text>
</a>
</g>
</g>
<!-- Node3&#45;&gt;Node4 -->
<g id="edge3_Node000003_Node000004" class="edge">
<title>Node3&#45;&gt;Node4</title>
<g id="a_edge3_Node000003_Node000004"><a xlink:title=" ">
<path fill="none" stroke="#63b8ff" d="M406.72,-87.38C423.4,-95.92 444.85,-105.84 465,-112 511.38,-126.19 566.08,-134.17 605.67,-138.47"/>
<polygon fill="#63b8ff" stroke="#63b8ff" points="605.12,-142.03 615.42,-139.58 605.84,-135.07 605.12,-142.03"/>
</a>
</g>
</g>
<!-- Node5 -->
<g id="Node000005" class="node">
<title>Node5</title>
<g id="a_Node000005"><a xlink:href="namespacea60_1_1metadata.html#a0e1ca2f297681851edcf2f74d3bf663e" target="_top" xlink:title="Grid, titles, labels for h_chord_graph. @yscale == how much to vertically scale the bar graph from ce...">
<polygon fill="white" stroke="#666666" points="571,-87 465,-87 465,-55 571,-55 571,-87"/>
<text text-anchor="start" x="473" y="-75.4" font-family="SourceSans" font-size="8.00">a60::metadata::h_chord</text>
<text text-anchor="middle" x="518" y="-63.4" font-family="SourceSans" font-size="8.00">_graph_labels</text>
</a>
</g>
</g>
<!-- Node3&#45;&gt;Node5 -->
<g id="edge4_Node000003_Node000005" class="edge">
<title>Node3&#45;&gt;Node5</title>
<g id="a_edge4_Node000003_Node000005"><a xlink:title=" ">
<path fill="none" stroke="#63b8ff" d="M429.13,-71C437.24,-71 445.69,-71 454.01,-71"/>
<polygon fill="#63b8ff" stroke="#63b8ff" points="453.83,-74.5 463.83,-71 453.83,-67.5 453.83,-74.5"/>
</a>
</g>
</g>
<!-- Node6 -->
<g id="Node000006" class="node">
<title>Node6</title>
<g id="a_Node000006"><a xlink:href="namespacea60_1_1metadata.html#a22b86d9f6417957b79f6e9dab13296dc" target="_top" xlink:title=" ">
<polygon fill="white" stroke="#666666" points="714.5,-100 607,-100 607,-80 714.5,-80 714.5,-100"/>
<text text-anchor="middle" x="660.75" y="-88.4" font-family="SourceSans" font-size="8.00">a60::metadata::hdenom</text>
</a>
</g>
</g>
<!-- Node3&#45;&gt;Node6 -->
<g id="edge9_Node000003_Node000006" class="edge">
<title>Node3&#45;&gt;Node6</title>
<g id="a_edge9_Node000003_Node000006"><a xlink:title=" ">
<path fill="none" stroke="#63b8ff" d="M425.82,-87.46C438.44,-90.99 452.1,-94.2 465,-96 508.3,-102.03 557.52,-100.44 595.64,-97.39"/>
<polygon fill="#63b8ff" stroke="#63b8ff" points="595.93,-100.8 605.59,-96.45 595.33,-93.82 595.93,-100.8"/>
</a>
</g>
</g>
<!-- Node7 -->
<g id="Node000007" class="node">
<title>Node7</title>
<g id="a_Node000007"><a xlink:href="namespacea60_1_1metadata.html#a2a619ed21560d442f5dfae5ea8101fce" target="_top" xlink:title="Distance between label and top/bottom of line or text.">
<polygon fill="white" stroke="#666666" points="712.25,-61 609.25,-61 609.25,-41 712.25,-41 712.25,-61"/>
<text text-anchor="middle" x="660.75" y="-49.4" font-family="SourceSans" font-size="8.00">a60::metadata::vlspace</text>
</a>
</g>
</g>
<!-- Node3&#45;&gt;Node7 -->
<g id="edge10_Node000003_Node000007" class="edge">
<title>Node3&#45;&gt;Node7</title>
<g id="a_edge10_Node000003_Node000007"><a xlink:title=" ">
<path fill="none" stroke="#63b8ff" d="M425.82,-54.54C438.44,-51.01 452.1,-47.8 465,-46 509.4,-39.82 560.03,-41.38 598.53,-44.32"/>
<polygon fill="#63b8ff" stroke="#63b8ff" points="597.8,-47.85 608.06,-45.18 598.37,-40.88 597.8,-47.85"/>
</a>
</g>
</g>
<!-- Node8 -->
<g id="Node000008" class="node">
<title>Node8</title>
<g id="a_Node000008"><a xlink:href="namespacea60_1_1metadata.html#a888d9b1e7402e335f8e7544373855a92" target="_top" xlink:title=" ">
<polygon fill="white" stroke="#666666" points="711.12,-20 610.38,-20 610.38,0 711.12,0 711.12,-20"/>
<text text-anchor="middle" x="660.75" y="-8.4" font-family="SourceSans" font-size="8.00">a60::metadata::vspace</text>
</a>
</g>
</g>
<!-- Node3&#45;&gt;Node8 -->
<g id="edge11_Node000003_Node000008" class="edge">
<title>Node3&#45;&gt;Node8</title>
<g id="a_edge11_Node000003_Node000008"><a xlink:title=" ">
<path fill="none" stroke="#63b8ff" d="M413.63,-54.67C429.2,-48.3 447.72,-41.47 465,-37 509.25,-25.55 560.5,-18.69 599.31,-14.75"/>
<polygon fill="#63b8ff" stroke="#63b8ff" points="599.3,-18.17 608.91,-13.72 598.62,-11.21 599.3,-18.17"/>
</a>
</g>
</g>
<!-- Node5&#45;&gt;Node4 -->
<g id="edge5_Node000005_Node000004" class="edge">
<title>Node5&#45;&gt;Node4</title>
<g id="a_edge5_Node000005_Node000004"><a xlink:title=" ">
<path fill="none" stroke="#63b8ff" d="M550.94,-87.34C570.91,-97.56 596.85,-110.82 618.39,-121.84"/>
<polygon fill="#63b8ff" stroke="#63b8ff" points="616.44,-125.29 626.94,-126.73 619.63,-119.06 616.44,-125.29"/>
</a>
</g>
</g>
<!-- Node5&#45;&gt;Node6 -->
<g id="edge6_Node000005_Node000006" class="edge">
<title>Node5&#45;&gt;Node6</title>
<g id="a_edge6_Node000005_Node000006"><a xlink:title=" ">
<path fill="none" stroke="#63b8ff" d="M571.41,-78.07C579.45,-79.16 587.83,-80.29 596.09,-81.41"/>
<polygon fill="#63b8ff" stroke="#63b8ff" points="595.45,-84.99 605.83,-82.86 596.38,-78.05 595.45,-84.99"/>
</a>
</g>
</g>
<!-- Node5&#45;&gt;Node7 -->
<g id="edge7_Node000005_Node000007" class="edge">
<title>Node5&#45;&gt;Node7</title>
<g id="a_edge7_Node000005_Node000007"><a xlink:title=" ">
<path fill="none" stroke="#63b8ff" d="M571.41,-63.55C580.19,-62.31 589.37,-61 598.35,-59.72"/>
<polygon fill="#63b8ff" stroke="#63b8ff" points="598.76,-63.06 608.17,-58.19 597.77,-56.13 598.76,-63.06"/>
</a>
</g>
</g>
<!-- Node5&#45;&gt;Node8 -->
<g id="edge8_Node000005_Node000008" class="edge">
<title>Node5&#45;&gt;Node8</title>
<g id="a_edge8_Node000005_Node000008"><a xlink:title=" ">
<path fill="none" stroke="#63b8ff" d="M555.74,-54.5C571.49,-47.48 590.11,-39.26 607,-32 612.72,-29.54 618.81,-26.96 624.74,-24.47"/>
<polygon fill="#63b8ff" stroke="#63b8ff" points="625.6,-27.49 633.48,-20.41 622.9,-21.03 625.6,-27.49"/>
</a>
</g>
</g>
</g>
</svg>

<g id="navigator" transform="translate(0 0)" fill="#404254">
  <rect fill="#f2f5e9" fill-opacity="0.5" stroke="#606060" stroke-width=".5" x="0" y="0" width="60" height="60"/>
  <use id="zoomplus" xlink:href="#zoomPlus" x="17" y="9" onmousedown="handleZoom(evt,'in')"/>
  <use id="zoomminus" xlink:href="#zoomMin" x="42" y="9" onmousedown="handleZoom(evt,'out')"/>
  <use id="reset" xlink:href="#resetDef" x="30" y="36" onmousedown="handleReset()"/>
   <use id="arrowup" xlink:href="#arrowUp" x="0" y="0" onmousedown="handlePan(0,-1)"/>
  <use id="arrowright" xlink:href="#arrowRight" x="0" y="0" onmousedown="handlePan(1,0)"/>
  <use id="arrowdown" xlink:href="#arrowDown" x="0" y="0" onmousedown="handlePan(0,1)"/>
  <use id="arrowleft" xlink:href="#arrowLeft" x="0" y="0" onmousedown="handlePan(-1,0)"/>
</g>
<svg viewBox="0 0 15 15" width="100%" height="30px" preserveAspectRatio="xMaxYMin meet">
 <g id="arrow_out" transform="scale(0.3 0.3)">
  <a xlink:href="namespacea60_1_1metadata_adaac386081b82c7acc9c8dc59061f082_cgraph_org.svg" target="_base">
   <rect id="button" ry="5" rx="5" y="6" x="6" height="38" width="38"
        fill="#f2f5e9" fill-opacity="0.5" stroke="#606060" stroke-width="1.0"/>
   <path id="arrow"
     d="M 11.500037,31.436501 C 11.940474,20.09759 22.043105,11.32322 32.158766,21.979434 L 37.068811,17.246167 C 37.068811,17.246167 37.088388,32 37.088388,32 L 22.160133,31.978069 C 22.160133,31.978069 26.997745,27.140456 26.997745,27.140456 C 18.528582,18.264221 13.291696,25.230495 11.500037,31.436501 z"
     style="fill:#404040;"/>
  </a>
 </g>
</svg>

<style type='text/css'>
<![CDATA[
[data-mouse-over-selected='false'] { opacity: 0.7; }
[data-mouse-over-selected='true']  { opacity: 1.0; }
]]>
</style>
<script type="application/ecmascript"><![CDATA[
document.addEventListener('DOMContentLoaded', (event) => {
  highlightEdges();
  highlightAdjacentNodes();
});
]]></script>
</svg>
