<?xml version="1.0" encoding="UTF-8" standalone="no"?>
<!DOCTYPE svg PUBLIC "-//W3C//DTD SVG 1.1//EN"
 "http://www.w3.org/Graphics/SVG/1.1/DTD/svg11.dtd">
<!-- Generated by graphviz version 8.1.0 (20230707.0739)
 -->
<!-- Title: svg::next_in_color_band Pages: 1 -->
<!--zoomable 142 -->

<svg id="main" version="1.1" xmlns="http://www.w3.org/2000/svg" xmlns:xlink="http://www.w3.org/1999/xlink" xml:space="preserve" onload="init(evt)">
<style type="text/css"><![CDATA[
.node, .edge {opacity: 0.7;}
.node.selected, .edge.selected {opacity: 1;}
.edge:hover path { stroke: red; }
.edge:hover polygon { stroke: red; fill: red; }
]]></style>

<defs>
  <circle id="rim" cx="0" cy="0" r="7"/>
  <circle id="rim2" cx="0" cy="0" r="3.5"/>
  <g id="zoomPlus">
    <use xlink:href="#rim" fill="#404040"><set attributeName="fill" to="#808080" begin="zoomplus.mouseover" end="zoomplus.mouseout"/></use>
    <path d="M-4,0h8M0,-4v8" fill="none" stroke="white" stroke-width="1.5" pointer-events="none"/>
  </g>
  <g id="zoomMin">
    <use xlink:href="#rim" fill="#404040"><set attributeName="fill" to="#808080" begin="zoomminus.mouseover" end="zoomminus.mouseout"/></use>
    <path d="M-4,0h8" fill="none" stroke="white" stroke-width="1.5" pointer-events="none"/>
  </g>
  <g id="arrowUp" transform="translate(30 24)">
    <use xlink:href="#rim"/>
    <path pointer-events="none" fill="none" stroke="white" stroke-width="1.5" d="M0,-3.0v7 M-2.5,-0.5L0,-3.0L2.5,-0.5"/>
  </g>
  <g id="arrowRight" transform="rotate(90) translate(36 -43)">
    <use xlink:href="#rim"/>
    <path pointer-events="none" fill="none" stroke="white" stroke-width="1.5" d="M0,-3.0v7 M-2.5,-0.5L0,-3.0L2.5,-0.5"/>
  </g>
  <g id="arrowDown" transform="rotate(180) translate(-30 -48)">
    <use xlink:href="#rim"/>
    <path pointer-events="none" fill="none" stroke="white" stroke-width="1.5" d="M0,-3.0v7 M-2.5,-0.5L0,-3.0L2.5,-0.5"/>
  </g>
  <g id="arrowLeft" transform="rotate(270) translate(-36 17)">
    <use xlink:href="#rim"/>
    <path pointer-events="none" fill="none" stroke="white" stroke-width="1.5" d="M0,-3.0v7 M-2.5,-0.5L0,-3.0L2.5,-0.5"/>
  </g>
  <g id="resetDef">
    <use xlink:href="#rim2" fill="#404040"><set attributeName="fill" to="#808080" begin="reset.mouseover" end="reset.mouseout"/></use>
  </g>
</defs>
<script type="application/ecmascript">
var viewWidth = 805;
var viewHeight = 142;
var sectionId = 'dynsection-41';
</script>
<script type="application/ecmascript" xlink:href="svg.min.js"/>
<svg id="graph" class="graph">
<g id="viewport">
<title>svg::next_in_color_band</title>
<!-- Node1 -->
<g id="Node000001" class="node">
<title>Node1</title>
<g id="a_Node000001"><a xlink:title="Flip through color band colors. @bandn is the number of colors in the colorband.">
<polygon fill="#999999" stroke="#666666" points="107.5,-58 0,-58 0,-38 107.5,-38 107.5,-58"/>
<text text-anchor="middle" x="53.75" y="-46.4" font-family="SourceSans" font-size="8.00">svg::next_in_color_band</text>
</a>
</g>
</g>
<!-- Node2 -->
<g id="Node000002" class="node">
<title>Node2</title>
<g id="a_Node000002"><a xlink:href="namespacesvg.html#a79320da4cd41236a7eb7dd609b282888" target="_top" xlink:title="Forwarding function.">
<polygon fill="white" stroke="#666666" points="245.75,-96 145.75,-96 145.75,-76 245.75,-76 245.75,-96"/>
<text text-anchor="middle" x="195.75" y="-84.4" font-family="SourceSans" font-size="8.00">svg::make_color_band</text>
</a>
</g>
</g>
<!-- Node1&#45;&gt;Node2 -->
<g id="edge1_Node000001_Node000002" class="edge">
<title>Node1&#45;&gt;Node2</title>
<g id="a_edge1_Node000001_Node000002"><a xlink:title=" ">
<path fill="none" stroke="#63b8ff" d="M93.38,-58.48C109.6,-62.89 128.65,-68.06 145.83,-72.72"/>
<polygon fill="#63b8ff" stroke="#63b8ff" points="144.68,-76.31 155.25,-75.55 146.52,-69.55 144.68,-76.31"/>
</a>
</g>
</g>
<!-- Node8 -->
<g id="Node000008" class="node">
<title>Node8</title>
<g id="a_Node000008"><a xlink:href="namespacesvg.html#a36b1c48ad4601b205790e3772ad0a7b6" target="_top" xlink:title=" ">
<polygon fill="white" stroke="#666666" points="515.12,-58 448.12,-58 448.12,-38 515.12,-38 515.12,-58"/>
<text text-anchor="middle" x="481.62" y="-46.4" font-family="SourceSans" font-size="8.00">svg::to_string</text>
</a>
</g>
</g>
<!-- Node1&#45;&gt;Node8 -->
<g id="edge9_Node000001_Node000008" class="edge">
<title>Node1&#45;&gt;Node8</title>
<g id="a_edge9_Node000001_Node000008"><a xlink:title=" ">
<path fill="none" stroke="#63b8ff" d="M107.83,-48C192.84,-48 357.95,-48 436.74,-48"/>
<polygon fill="#63b8ff" stroke="#63b8ff" points="436.72,-51.5 446.72,-48 436.72,-44.5 436.72,-51.5"/>
</a>
</g>
</g>
<!-- Node9 -->
<g id="Node000009" class="node">
<title>Node9</title>
<g id="a_Node000009"><a xlink:href="namespacesvg_1_1constants.html#aa7f04c2ea699a1b1e2e790de5ac33f38" target="_top" xlink:title=" ">
<polygon fill="white" stroke="#666666" points="248,-20 143.5,-20 143.5,0 248,0 248,-20"/>
<text text-anchor="middle" x="195.75" y="-8.4" font-family="SourceSans" font-size="8.00">svg::constants::newline</text>
</a>
</g>
</g>
<!-- Node1&#45;&gt;Node9 -->
<g id="edge8_Node000001_Node000009" class="edge">
<title>Node1&#45;&gt;Node9</title>
<g id="a_edge8_Node000001_Node000009"><a xlink:title=" ">
<path fill="none" stroke="#63b8ff" d="M93.38,-37.52C109.6,-33.11 128.65,-27.94 145.83,-23.28"/>
<polygon fill="#63b8ff" stroke="#63b8ff" points="146.52,-26.45 155.25,-20.45 144.68,-19.69 146.52,-26.45"/>
</a>
</g>
</g>
<!-- Node3 -->
<g id="Node000003" class="node">
<title>Node3</title>
<g id="a_Node000003"><a xlink:href="namespacesvg.html#ac3cec274899f85d3b3c828bb2e75e3b8" target="_top" xlink:title=" ">
<polygon fill="white" stroke="#666666" points="396,-96 284,-96 284,-76 396,-76 396,-96"/>
<text text-anchor="middle" x="340" y="-84.4" font-family="SourceSans" font-size="8.00">svg::make_color_band_v1</text>
</a>
</g>
</g>
<!-- Node2&#45;&gt;Node3 -->
<g id="edge2_Node000002_Node000003" class="edge">
<title>Node2&#45;&gt;Node3</title>
<g id="a_edge2_Node000002_Node000003"><a xlink:title=" ">
<path fill="none" stroke="#63b8ff" d="M246.1,-86C254.77,-86 263.92,-86 272.96,-86"/>
<polygon fill="#63b8ff" stroke="#63b8ff" points="272.89,-89.5 282.89,-86 272.89,-82.5 272.89,-89.5"/>
</a>
</g>
</g>
<!-- Node4 -->
<g id="Node000004" class="node">
<title>Node4</title>
<g id="a_Node000004"><a xlink:href="namespacesvg.html#afbb69e6e3429f0e574994b3a761d2a30" target="_top" xlink:title="Set and Get working spectrum, aka default palette.">
<polygon fill="white" stroke="#666666" points="529,-134 434.25,-134 434.25,-114 529,-114 529,-134"/>
<text text-anchor="middle" x="481.62" y="-122.4" font-family="SourceSans" font-size="8.00">svg::active_spectrum</text>
</a>
</g>
</g>
<!-- Node3&#45;&gt;Node4 -->
<g id="edge3_Node000003_Node000004" class="edge">
<title>Node3&#45;&gt;Node4</title>
<g id="a_edge3_Node000003_Node000004"><a xlink:title=" ">
<path fill="none" stroke="#63b8ff" d="M379.52,-96.48C395.7,-100.89 414.7,-106.06 431.84,-110.72"/>
<polygon fill="#63b8ff" stroke="#63b8ff" points="430.66,-114.3 441.23,-113.55 432.5,-107.55 430.66,-114.3"/>
</a>
</g>
</g>
<!-- Node7 -->
<g id="Node000007" class="node">
<title>Node7</title>
<g id="a_Node000007"><a xlink:href="namespacesvg.html#abcad3fe27275ca32d7db21d8475f66ae" target="_top" xlink:title=" ">
<polygon fill="white" stroke="#666666" points="531.25,-96 432,-96 432,-76 531.25,-76 531.25,-96"/>
<text text-anchor="middle" x="481.62" y="-84.4" font-family="SourceSans" font-size="8.00">svg::combine_color_qi</text>
</a>
</g>
</g>
<!-- Node3&#45;&gt;Node7 -->
<g id="edge6_Node000003_Node000007" class="edge">
<title>Node3&#45;&gt;Node7</title>
<g id="a_edge6_Node000003_Node000007"><a xlink:title=" ">
<path fill="none" stroke="#63b8ff" d="M396.18,-86C404.25,-86 412.6,-86 420.76,-86"/>
<polygon fill="#63b8ff" stroke="#63b8ff" points="420.72,-89.5 430.72,-86 420.72,-82.5 420.72,-89.5"/>
</a>
</g>
</g>
<!-- Node3&#45;&gt;Node8 -->
<g id="edge7_Node000003_Node000008" class="edge">
<title>Node3&#45;&gt;Node8</title>
<g id="a_edge7_Node000003_Node000008"><a xlink:title=" ">
<path fill="none" stroke="#63b8ff" d="M379.52,-75.52C397.47,-70.63 418.9,-64.8 437.4,-59.76"/>
<polygon fill="#63b8ff" stroke="#63b8ff" points="438.17,-62.91 446.9,-56.91 436.34,-56.15 438.17,-62.91"/>
</a>
</g>
</g>
<!-- Node5 -->
<g id="Node000005" class="node">
<title>Node5</title>
<g id="a_Node000005"><a xlink:href="namespacesvg.html#a6ef86da421061b502a4cec162970c4e9" target="_top" xlink:title="Forwarding function.">
<polygon fill="white" stroke="#666666" points="658.25,-134 567.25,-134 567.25,-114 658.25,-114 658.25,-134"/>
<text text-anchor="middle" x="612.75" y="-122.4" font-family="SourceSans" font-size="8.00">svg::color_qf_lt_hue</text>
</a>
</g>
</g>
<!-- Node4&#45;&gt;Node5 -->
<g id="edge4_Node000004_Node000005" class="edge">
<title>Node4&#45;&gt;Node5</title>
<g id="a_edge4_Node000004_Node000005"><a xlink:title=" ">
<path fill="none" stroke="#63b8ff" d="M529.24,-124C537.97,-124 547.18,-124 556.15,-124"/>
<polygon fill="#63b8ff" stroke="#63b8ff" points="555.93,-127.5 565.93,-124 555.93,-120.5 555.93,-127.5"/>
</a>
</g>
</g>
<!-- Node6 -->
<g id="Node000006" class="node">
<title>Node6</title>
<g id="a_Node000006"><a xlink:href="namespacesvg.html#a804d33f9f3d2f0debdcfc4317f5b8487" target="_top" xlink:title=" ">
<polygon fill="white" stroke="#666666" points="797.25,-134 694.25,-134 694.25,-114 797.25,-114 797.25,-134"/>
<text text-anchor="middle" x="745.75" y="-122.4" font-family="SourceSans" font-size="8.00">svg::color_qf_lt_hue_v2</text>
</a>
</g>
</g>
<!-- Node5&#45;&gt;Node6 -->
<g id="edge5_Node000005_Node000006" class="edge">
<title>Node5&#45;&gt;Node6</title>
<g id="a_edge5_Node000005_Node000006"><a xlink:title=" ">
<path fill="none" stroke="#63b8ff" d="M658.47,-124C666.4,-124 674.79,-124 683.1,-124"/>
<polygon fill="#63b8ff" stroke="#63b8ff" points="682.93,-127.5 692.93,-124 682.93,-120.5 682.93,-127.5"/>
</a>
</g>
</g>
</g>
</svg>

<g id="navigator" transform="translate(0 0)" fill="#404254">
  <rect fill="#f2f5e9" fill-opacity="0.5" stroke="#606060" stroke-width=".5" x="0" y="0" width="60" height="60"/>
  <use id="zoomplus" xlink:href="#zoomPlus" x="17" y="9" onmousedown="handleZoom(evt,'in')"/>
  <use id="zoomminus" xlink:href="#zoomMin" x="42" y="9" onmousedown="handleZoom(evt,'out')"/>
  <use id="reset" xlink:href="#resetDef" x="30" y="36" onmousedown="handleReset()"/>
   <use id="arrowup" xlink:href="#arrowUp" x="0" y="0" onmousedown="handlePan(0,-1)"/>
  <use id="arrowright" xlink:href="#arrowRight" x="0" y="0" onmousedown="handlePan(1,0)"/>
  <use id="arrowdown" xlink:href="#arrowDown" x="0" y="0" onmousedown="handlePan(0,1)"/>
  <use id="arrowleft" xlink:href="#arrowLeft" x="0" y="0" onmousedown="handlePan(-1,0)"/>
</g>
<svg viewBox="0 0 15 15" width="100%" height="30px" preserveAspectRatio="xMaxYMin meet">
 <g id="arrow_out" transform="scale(0.3 0.3)">
  <a xlink:href="namespacesvg_ae25614aaac6374dd8f78d382dfaa4fd2_cgraph_org.svg" target="_base">
   <rect id="button" ry="5" rx="5" y="6" x="6" height="38" width="38"
        fill="#f2f5e9" fill-opacity="0.5" stroke="#606060" stroke-width="1.0"/>
   <path id="arrow"
     d="M 11.500037,31.436501 C 11.940474,20.09759 22.043105,11.32322 32.158766,21.979434 L 37.068811,17.246167 C 37.068811,17.246167 37.088388,32 37.088388,32 L 22.160133,31.978069 C 22.160133,31.978069 26.997745,27.140456 26.997745,27.140456 C 18.528582,18.264221 13.291696,25.230495 11.500037,31.436501 z"
     style="fill:#404040;"/>
  </a>
 </g>
</svg>

<style type='text/css'>
<![CDATA[
[data-mouse-over-selected='false'] { opacity: 0.7; }
[data-mouse-over-selected='true']  { opacity: 1.0; }
]]>
</style>
<script type="application/ecmascript"><![CDATA[
document.addEventListener('DOMContentLoaded', (event) => {
  highlightEdges();
  highlightAdjacentNodes();
});
]]></script>
</svg>
