<?xml version="1.0" encoding="UTF-8" standalone="no"?>
<!DOCTYPE svg PUBLIC "-//W3C//DTD SVG 1.1//EN"
 "http://www.w3.org/Graphics/SVG/1.1/DTD/svg11.dtd">
<!-- Generated by graphviz version 8.1.0 (20230707.0739)
 -->
<!-- Title: svg::point_2d_to_ray Pages: 1 -->
<svg width="379pt" height="240pt"
 viewBox="0.00 0.00 378.50 240.00" xmlns="http://www.w3.org/2000/svg" xmlns:xlink="http://www.w3.org/1999/xlink">

<svg id="main" version="1.1" xmlns="http://www.w3.org/2000/svg" xmlns:xlink="http://www.w3.org/1999/xlink" xml:space="preserve" onload="init(evt)">
<style type="text/css"><![CDATA[
.node, .edge {opacity: 0.7;}
.node.selected, .edge.selected {opacity: 1;}
.edge:hover path { stroke: red; }
.edge:hover polygon { stroke: red; fill: red; }
]]></style>
<script type="application/ecmascript" xlink:href="svg.min.js"/>
<svg id="graph" class="graph">
<g id="graph0" class="graph" transform="scale(1 1) rotate(0) translate(4 236)">
<title>svg::point_2d_to_ray</title>
<!-- Node1 -->
<g id="Node000001" class="node">
<title>Node1</title>
<g id="a_Node000001"><a xlink:title="Lines radiating from center point (x,y).">
<polygon fill="#999999" stroke="#666666" points="93.25,-126 0,-126 0,-106 93.25,-106 93.25,-126"/>
<text text-anchor="middle" x="46.62" y="-114.4" font-family="SourceSans" font-size="8.00">svg::point_2d_to_ray</text>
</a>
</g>
</g>
<!-- Node2 -->
<g id="Node000002" class="node">
<title>Node2</title>
<g id="a_Node000002"><a xlink:href="group__elements.html#a306eac4c5a7ea755ab6375a65489366f" target="_top" xlink:title=" ">
<polygon fill="white" stroke="#666666" points="223.25,-232 136,-232 136,-200 223.25,-200 223.25,-232"/>
<text text-anchor="start" x="144" y="-220.4" font-family="SourceSans" font-size="8.00">svg::line_element::</text>
<text text-anchor="middle" x="179.62" y="-208.4" font-family="SourceSans" font-size="8.00">add_data</text>
</a>
</g>
</g>
<!-- Node1&#45;&gt;Node2 -->
<g id="edge1_Node000001_Node000002" class="edge">
<title>Node1&#45;&gt;Node2</title>
<g id="a_edge1_Node000001_Node000002"><a xlink:title=" ">
<path fill="none" stroke="#63b8ff" d="M57.17,-126.43C71.67,-141.88 100.62,-171.16 129.25,-191 130.74,-192.03 132.29,-193.05 133.86,-194.05"/>
<polygon fill="#63b8ff" stroke="#63b8ff" points="131.75,-197.46 142.14,-199.53 135.31,-191.43 131.75,-197.46"/>
</a>
</g>
</g>
<!-- Node4 -->
<g id="Node000004" class="node">
<title>Node4</title>
<g id="a_Node000004"><a xlink:href="group__elements.html#adb6116b96467cc39cb178deb10c7a869" target="_top" xlink:title=" ">
<polygon fill="white" stroke="#666666" points="230,-182 129.25,-182 129.25,-150 230,-150 230,-182"/>
<text text-anchor="start" x="137.25" y="-170.4" font-family="SourceSans" font-size="8.00">svg::svg_element::add</text>
<text text-anchor="middle" x="179.62" y="-158.4" font-family="SourceSans" font-size="8.00">_element</text>
</a>
</g>
</g>
<!-- Node1&#45;&gt;Node4 -->
<g id="edge3_Node000001_Node000004" class="edge">
<title>Node1&#45;&gt;Node4</title>
<g id="a_edge3_Node000001_Node000004"><a xlink:title=" ">
<path fill="none" stroke="#63b8ff" d="M75.09,-126.48C89.7,-132.06 108.18,-139.11 125.47,-145.71"/>
<polygon fill="#63b8ff" stroke="#63b8ff" points="123.88,-149.23 134.47,-149.53 126.38,-142.69 123.88,-149.23"/>
</a>
</g>
</g>
<!-- Node6 -->
<g id="Node000006" class="node">
<title>Node6</title>
<g id="a_Node000006"><a xlink:href="group__elements.html#a238b38ca99a1cf6c2baf80c8e4338d99" target="_top" xlink:title=" ">
<polygon fill="white" stroke="#666666" points="225.12,-132 134.12,-132 134.12,-100 225.12,-100 225.12,-132"/>
<text text-anchor="start" x="142.12" y="-120.4" font-family="SourceSans" font-size="8.00">svg::element_base::</text>
<text text-anchor="middle" x="179.62" y="-108.4" font-family="SourceSans" font-size="8.00">add_style</text>
</a>
</g>
</g>
<!-- Node1&#45;&gt;Node6 -->
<g id="edge5_Node000001_Node000006" class="edge">
<title>Node1&#45;&gt;Node6</title>
<g id="a_edge5_Node000001_Node000006"><a xlink:title=" ">
<path fill="none" stroke="#63b8ff" d="M93.44,-116C102.98,-116 113.14,-116 122.99,-116"/>
<polygon fill="#63b8ff" stroke="#63b8ff" points="122.94,-119.5 132.94,-116 122.94,-112.5 122.94,-119.5"/>
</a>
</g>
</g>
<!-- Node8 -->
<g id="Node000008" class="node">
<title>Node8</title>
<g id="a_Node000008"><a xlink:href="group__elements.html#ga4769af15793cb308d426abb5fd552df5" target="_top" xlink:title=" ">
<polygon fill="white" stroke="#666666" points="223.25,-82 136,-82 136,-50 223.25,-50 223.25,-82"/>
<text text-anchor="start" x="144" y="-70.4" font-family="SourceSans" font-size="8.00">svg::line_element::</text>
<text text-anchor="middle" x="179.62" y="-58.4" font-family="SourceSans" font-size="8.00">finish_element</text>
</a>
</g>
</g>
<!-- Node1&#45;&gt;Node8 -->
<g id="edge7_Node000001_Node000008" class="edge">
<title>Node1&#45;&gt;Node8</title>
<g id="a_edge7_Node000001_Node000008"><a xlink:title=" ">
<path fill="none" stroke="#63b8ff" d="M75.09,-105.52C89.76,-99.92 108.34,-92.83 125.69,-86.2"/>
<polygon fill="#63b8ff" stroke="#63b8ff" points="126.63,-89.21 134.73,-82.37 124.14,-82.67 126.63,-89.21"/>
</a>
</g>
</g>
<!-- Node10 -->
<g id="Node000010" class="node">
<title>Node10</title>
<g id="a_Node000010"><a xlink:href="group__elements.html#aa6b4ba04be5858b4943235801f034943" target="_top" xlink:title=" ">
<polygon fill="white" stroke="#666666" points="223.25,-32 136,-32 136,0 223.25,0 223.25,-32"/>
<text text-anchor="start" x="144" y="-20.4" font-family="SourceSans" font-size="8.00">svg::line_element::</text>
<text text-anchor="middle" x="179.62" y="-8.4" font-family="SourceSans" font-size="8.00">start_element</text>
</a>
</g>
</g>
<!-- Node1&#45;&gt;Node10 -->
<g id="edge9_Node000001_Node000010" class="edge">
<title>Node1&#45;&gt;Node10</title>
<g id="a_edge9_Node000001_Node000010"><a xlink:title=" ">
<path fill="none" stroke="#63b8ff" d="M57.17,-105.57C71.67,-90.12 100.62,-60.84 129.25,-41 130.74,-39.97 132.29,-38.95 133.86,-37.95"/>
<polygon fill="#63b8ff" stroke="#63b8ff" points="135.31,-40.57 142.14,-32.47 131.75,-34.54 135.31,-40.57"/>
</a>
</g>
</g>
<!-- Node3 -->
<g id="Node000003" class="node">
<title>Node3</title>
<g id="a_Node000003"><a xlink:href="namespacesvg.html#a48ac748e89e22789d1772326a98dd7b6" target="_top" xlink:title=" ">
<polygon fill="white" stroke="#666666" points="361.88,-226 274.62,-226 274.62,-206 361.88,-206 361.88,-226"/>
<text text-anchor="middle" x="318.25" y="-214.4" font-family="SourceSans" font-size="8.00">svg::string_replace</text>
</a>
</g>
</g>
<!-- Node2&#45;&gt;Node3 -->
<g id="edge2_Node000002_Node000003" class="edge">
<title>Node2&#45;&gt;Node3</title>
<g id="a_edge2_Node000002_Node000003"><a xlink:title=" ">
<path fill="none" stroke="#63b8ff" d="M223.48,-216C236.2,-216 250.29,-216 263.6,-216"/>
<polygon fill="#63b8ff" stroke="#63b8ff" points="263.55,-219.5 273.55,-216 263.55,-212.5 263.55,-219.5"/>
</a>
</g>
</g>
<!-- Node5 -->
<g id="Node000005" class="node">
<title>Node5</title>
<g id="a_Node000005"><a xlink:href="group__elements.html#a99ff90a016db190ee8bb5ee8c045e329" target="_top" xlink:title=" ">
<polygon fill="white" stroke="#666666" points="368.62,-176 267.88,-176 267.88,-156 368.62,-156 368.62,-176"/>
<text text-anchor="middle" x="318.25" y="-164.4" font-family="SourceSans" font-size="8.00">svg::element_base::str</text>
</a>
</g>
</g>
<!-- Node4&#45;&gt;Node5 -->
<g id="edge4_Node000004_Node000005" class="edge">
<title>Node4&#45;&gt;Node5</title>
<g id="a_edge4_Node000004_Node000005"><a xlink:title=" ">
<path fill="none" stroke="#63b8ff" d="M230.34,-166C239.02,-166 248.13,-166 257.05,-166"/>
<polygon fill="#63b8ff" stroke="#63b8ff" points="256.8,-169.5 266.8,-166 256.8,-162.5 256.8,-169.5"/>
</a>
</g>
</g>
<!-- Node7 -->
<g id="Node000007" class="node">
<title>Node7</title>
<g id="a_Node000007"><a xlink:href="namespacesvg.html#a36b1c48ad4601b205790e3772ad0a7b6" target="_top" xlink:title=" ">
<polygon fill="white" stroke="#666666" points="351.75,-126 284.75,-126 284.75,-106 351.75,-106 351.75,-126"/>
<text text-anchor="middle" x="318.25" y="-114.4" font-family="SourceSans" font-size="8.00">svg::to_string</text>
</a>
</g>
</g>
<!-- Node6&#45;&gt;Node7 -->
<g id="edge6_Node000006_Node000007" class="edge">
<title>Node6&#45;&gt;Node7</title>
<g id="a_edge6_Node000006_Node000007"><a xlink:title=" ">
<path fill="none" stroke="#63b8ff" d="M225.36,-116C240.89,-116 258.28,-116 273.71,-116"/>
<polygon fill="#63b8ff" stroke="#63b8ff" points="273.55,-119.5 283.55,-116 273.55,-112.5 273.55,-119.5"/>
</a>
</g>
</g>
<!-- Node9 -->
<g id="Node000009" class="node">
<title>Node9</title>
<g id="a_Node000009"><a xlink:href="namespacesvg_1_1constants.html#aa7f04c2ea699a1b1e2e790de5ac33f38" target="_top" xlink:title=" ">
<polygon fill="white" stroke="#666666" points="370.5,-76 266,-76 266,-56 370.5,-56 370.5,-76"/>
<text text-anchor="middle" x="318.25" y="-64.4" font-family="SourceSans" font-size="8.00">svg::constants::newline</text>
</a>
</g>
</g>
<!-- Node8&#45;&gt;Node9 -->
<g id="edge8_Node000008_Node000009" class="edge">
<title>Node8&#45;&gt;Node9</title>
<g id="a_edge8_Node000008_Node000009"><a xlink:title=" ">
<path fill="none" stroke="#63b8ff" d="M223.48,-66C233.47,-66 244.31,-66 254.95,-66"/>
<polygon fill="#63b8ff" stroke="#63b8ff" points="254.92,-69.5 264.92,-66 254.92,-62.5 254.92,-69.5"/>
</a>
</g>
</g>
</g>
</svg>
</svg>

<style type='text/css'>
<![CDATA[
[data-mouse-over-selected='false'] { opacity: 0.7; }
[data-mouse-over-selected='true']  { opacity: 1.0; }
]]>
</style>
<script type="application/ecmascript"><![CDATA[
document.addEventListener('DOMContentLoaded', (event) => {
  highlightEdges();
  highlightAdjacentNodes();
});
]]></script>
</svg>
