<?xml version="1.0" encoding="UTF-8" standalone="no"?>
<!DOCTYPE svg PUBLIC "-//W3C//DTD SVG 1.1//EN"
 "http://www.w3.org/Graphics/SVG/1.1/DTD/svg11.dtd">
<!-- Generated by graphviz version 8.1.0 (20230707.0739)
 -->
<!-- Title: svg::radiate_ids_per_value_on_arc Pages: 1 -->
<svg width="1055pt" height="465pt"
 viewBox="0.00 0.00 1054.75 465.00" xmlns="http://www.w3.org/2000/svg" xmlns:xlink="http://www.w3.org/1999/xlink">
<g id="graph0" class="graph" transform="scale(1 1) rotate(0) translate(4 461)">
<title>svg::radiate_ids_per_value_on_arc</title>
<!-- Node1 -->
<g id="Node000001" class="node">
<title>Node1</title>
<g id="a_Node000001"><a xlink:title=" ">
<polygon fill="#999999" stroke="#666666" points="91.75,-202 0,-202 0,-170 91.75,-170 91.75,-202"/>
<text text-anchor="start" x="8" y="-190.4" font-family="SourceSans" font-size="8.00">svg::radiate_ids_per</text>
<text text-anchor="middle" x="45.88" y="-178.4" font-family="SourceSans" font-size="8.00">_value_on_arc</text>
</a>
</g>
</g>
<!-- Node2 -->
<g id="Node000002" class="node">
<title>Node2</title>
<g id="a_Node000002"><a xlink:href="namespacesvg.html#a34da8d32b24e2bf12ac6094c47ea31a9" target="_top" xlink:title=" ">
<polygon fill="white" stroke="#666666" points="210.5,-202 127.75,-202 127.75,-170 210.5,-170 210.5,-202"/>
<text text-anchor="start" x="135.75" y="-190.4" font-family="SourceSans" font-size="8.00">svg::radiate_id_at</text>
<text text-anchor="middle" x="169.12" y="-178.4" font-family="SourceSans" font-size="8.00">_value</text>
</a>
</g>
</g>
<!-- Node1&#45;&gt;Node2 -->
<g id="edge1_Node000001_Node000002" class="edge">
<title>Node1&#45;&gt;Node2</title>
<g id="a_edge1_Node000001_Node000002"><a xlink:title=" ">
<path fill="none" stroke="#63b8ff" d="M92.02,-186C99.99,-186 108.33,-186 116.45,-186"/>
<polygon fill="#63b8ff" stroke="#63b8ff" points="116.34,-189.5 126.34,-186 116.34,-182.5 116.34,-189.5"/>
</a>
</g>
</g>
<!-- Node3 -->
<g id="Node000003" class="node">
<title>Node3</title>
<g id="a_Node000003"><a xlink:href="namespacesvg.html#a929b5c33bc0c139332dddd5d3b8ea3d0" target="_top" xlink:title="Transform a value on a range to an angle on the radial range.">
<polygon fill="white" stroke="#666666" points="331.12,-256 259.62,-256 259.62,-236 331.12,-236 331.12,-256"/>
<text text-anchor="middle" x="295.38" y="-244.4" font-family="SourceSans" font-size="8.00">svg::get_angle</text>
</a>
</g>
</g>
<!-- Node2&#45;&gt;Node3 -->
<g id="edge2_Node000002_Node000003" class="edge">
<title>Node2&#45;&gt;Node3</title>
<g id="a_edge2_Node000002_Node000003"><a xlink:title=" ">
<path fill="none" stroke="#63b8ff" d="M198.74,-202.37C212.91,-210.22 230.4,-219.51 246.5,-227 249.7,-228.49 253.06,-229.97 256.44,-231.41"/>
<polygon fill="#63b8ff" stroke="#63b8ff" points="254.97,-235.01 265.55,-235.58 257.64,-228.53 254.97,-235.01"/>
</a>
</g>
</g>
<!-- Node6 -->
<g id="Node000006" class="node">
<title>Node6</title>
<g id="a_Node000006"><a xlink:href="namespacesvg.html#a370d930bd06a84735a4eecdd677154e6" target="_top" xlink:title="Get the label space. Value &#45;&gt; Name, as a string where value has labelspaces of fill NB: Should be the...">
<polygon fill="white" stroke="#666666" points="344.25,-218 246.5,-218 246.5,-198 344.25,-198 344.25,-218"/>
<text text-anchor="middle" x="295.38" y="-206.4" font-family="SourceSans" font-size="8.00">svg::get_label_spaces</text>
</a>
</g>
</g>
<!-- Node2&#45;&gt;Node6 -->
<g id="edge5_Node000002_Node000006" class="edge">
<title>Node2&#45;&gt;Node6</title>
<g id="a_edge5_Node000002_Node000006"><a xlink:title=" ">
<path fill="none" stroke="#63b8ff" d="M210.81,-193.2C218.77,-194.61 227.27,-196.12 235.68,-197.61"/>
<polygon fill="#63b8ff" stroke="#63b8ff" points="234.79,-201.18 245.25,-199.48 236.01,-194.29 234.79,-201.18"/>
</a>
</g>
</g>
<!-- Node7 -->
<g id="Node000007" class="node">
<title>Node7</title>
<g id="a_Node000007"><a xlink:href="namespacesvg.html#aa89ab2d58bfaf850b84e976828851b9b" target="_top" xlink:title="Make radial labels.">
<polygon fill="white" stroke="#666666" points="340.88,-180 249.88,-180 249.88,-148 340.88,-148 340.88,-180"/>
<text text-anchor="start" x="257.88" y="-168.4" font-family="SourceSans" font-size="8.00">svg::make_label_for</text>
<text text-anchor="middle" x="295.38" y="-156.4" font-family="SourceSans" font-size="8.00">_value</text>
</a>
</g>
</g>
<!-- Node2&#45;&gt;Node7 -->
<g id="edge6_Node000002_Node000007" class="edge">
<title>Node2&#45;&gt;Node7</title>
<g id="a_edge6_Node000002_Node000007"><a xlink:title=" ">
<path fill="none" stroke="#63b8ff" d="M210.81,-178.8C219.86,-177.19 229.6,-175.47 239.13,-173.78"/>
<polygon fill="#63b8ff" stroke="#63b8ff" points="239.5,-177.09 248.74,-171.9 238.28,-170.2 239.5,-177.09"/>
</a>
</g>
</g>
<!-- Node8 -->
<g id="Node000008" class="node">
<title>Node8</title>
<g id="a_Node000008"><a xlink:href="namespacesvg.html#a0a0dce44cf8a75daa516cdf9fade5a85" target="_top" xlink:title=" ">
<polygon fill="white" stroke="#666666" points="335.62,-130 255.12,-130 255.12,-110 335.62,-110 335.62,-130"/>
<text text-anchor="middle" x="295.38" y="-118.4" font-family="SourceSans" font-size="8.00">svg::radial_text_r</text>
</a>
</g>
</g>
<!-- Node2&#45;&gt;Node8 -->
<g id="edge7_Node000002_Node000008" class="edge">
<title>Node2&#45;&gt;Node8</title>
<g id="a_edge7_Node000002_Node000008"><a xlink:title=" ">
<path fill="none" stroke="#63b8ff" d="M194.27,-169.64C208.99,-160.05 228.41,-148.07 246.5,-139 249.44,-137.52 252.53,-136.08 255.66,-134.69"/>
<polygon fill="#63b8ff" stroke="#63b8ff" points="256.82,-137.57 264.66,-130.45 254.09,-131.13 256.82,-137.57"/>
</a>
</g>
</g>
<!-- Node4 -->
<g id="Node000004" class="node">
<title>Node4</title>
<g id="a_Node000004"><a xlink:href="namespacesvg.html#a37b1e7c40b54ff3cdd4e2929cb6b7ba2" target="_top" xlink:title=" ">
<polygon fill="white" stroke="#666666" points="487.38,-297 389.62,-297 389.62,-277 487.38,-277 487.38,-297"/>
<text text-anchor="middle" x="438.5" y="-285.4" font-family="SourceSans" font-size="8.00">svg::get_radial_range</text>
</a>
</g>
</g>
<!-- Node3&#45;&gt;Node4 -->
<g id="edge3_Node000003_Node000004" class="edge">
<title>Node3&#45;&gt;Node4</title>
<g id="a_edge3_Node000003_Node000004"><a xlink:title=" ">
<path fill="none" stroke="#63b8ff" d="M331.62,-256.24C349.67,-261.48 371.87,-267.93 391.27,-273.57"/>
<polygon fill="#63b8ff" stroke="#63b8ff" points="390.14,-277.18 400.72,-276.61 392.09,-270.45 390.14,-277.18"/>
</a>
</g>
</g>
<!-- Node5 -->
<g id="Node000005" class="node">
<title>Node5</title>
<g id="a_Node000005"><a xlink:href="namespacesvg.html#a673cb54838801fae8471436ce43298a9" target="_top" xlink:title="Scale value from min to max on range (nfloor, nceil).">
<polygon fill="white" stroke="#666666" points="485.88,-259 391.12,-259 391.12,-227 485.88,-227 485.88,-259"/>
<text text-anchor="start" x="399.12" y="-247.4" font-family="SourceSans" font-size="8.00">svg::normalize_value</text>
<text text-anchor="middle" x="438.5" y="-235.4" font-family="SourceSans" font-size="8.00">_on_range</text>
</a>
</g>
</g>
<!-- Node3&#45;&gt;Node5 -->
<g id="edge4_Node000003_Node000005" class="edge">
<title>Node3&#45;&gt;Node5</title>
<g id="a_edge4_Node000003_Node000005"><a xlink:title=" ">
<path fill="none" stroke="#63b8ff" d="M331.62,-245.25C346.29,-244.94 363.7,-244.57 380.12,-244.22"/>
<polygon fill="#63b8ff" stroke="#63b8ff" points="379.81,-247.71 389.73,-243.99 379.66,-240.71 379.81,-247.71"/>
</a>
</g>
</g>
<!-- Node9 -->
<g id="Node000009" class="node">
<title>Node9</title>
<g id="a_Node000009"><a xlink:href="namespacesvg.html#ab44508c4aeca591141ebec50145b75cd" target="_top" xlink:title="Angle in degrees.">
<polygon fill="white" stroke="#666666" points="490.38,-54 386.62,-54 386.62,-22 490.38,-22 490.38,-54"/>
<text text-anchor="start" x="394.62" y="-42.4" font-family="SourceSans" font-size="8.00">svg::get_circumference</text>
<text text-anchor="middle" x="438.5" y="-30.4" font-family="SourceSans" font-size="8.00">_point_d</text>
</a>
</g>
</g>
<!-- Node8&#45;&gt;Node9 -->
<g id="edge8_Node000008_Node000009" class="edge">
<title>Node8&#45;&gt;Node9</title>
<g id="a_edge8_Node000008_Node000009"><a xlink:title=" ">
<path fill="none" stroke="#63b8ff" d="M309.83,-109.71C325.99,-97.61 354.2,-77.38 380.25,-63 382.62,-61.69 385.07,-60.4 387.56,-59.14"/>
<polygon fill="#63b8ff" stroke="#63b8ff" points="388.84,-61.93 396.31,-54.42 385.79,-55.63 388.84,-61.93"/>
</a>
</g>
</g>
<!-- Node12 -->
<g id="Node000012" class="node">
<title>Node12</title>
<g id="a_Node000012"><a xlink:href="namespacesvg.html#ae7eab6d9ce1f55bcbcc997cd24c5abcf" target="_top" xlink:title="Text with typography, arranged ccw around points (x,y) on a circle.">
<polygon fill="white" stroke="#666666" points="484,-206 393,-206 393,-186 484,-186 484,-206"/>
<text text-anchor="middle" x="438.5" y="-194.4" font-family="SourceSans" font-size="8.00">svg::radial_text_ccw</text>
</a>
</g>
</g>
<!-- Node8&#45;&gt;Node12 -->
<g id="edge11_Node000008_Node000012" class="edge">
<title>Node8&#45;&gt;Node12</title>
<g id="a_edge11_Node000008_Node000012"><a xlink:title=" ">
<path fill="none" stroke="#63b8ff" d="M328.27,-130.39C333.81,-132.83 339.36,-135.69 344.25,-139 363.51,-152.04 360.62,-164.52 380.25,-177 382.57,-178.48 385.02,-179.85 387.54,-181.12"/>
<polygon fill="#63b8ff" stroke="#63b8ff" points="385.98,-184.7 396.53,-185.57 388.82,-178.31 385.98,-184.7"/>
</a>
</g>
</g>
<!-- Node29 -->
<g id="Node000029" class="node">
<title>Node29</title>
<g id="a_Node000029"><a xlink:href="namespacesvg.html#a27b1041d0851178e4835e1f623a46161" target="_top" xlink:title="Text with typography, arranged cw around points (x,y) on a circle.">
<polygon fill="white" stroke="#666666" points="482.12,-168 394.88,-168 394.88,-148 482.12,-148 482.12,-168"/>
<text text-anchor="middle" x="438.5" y="-156.4" font-family="SourceSans" font-size="8.00">svg::radial_text_cw</text>
</a>
</g>
</g>
<!-- Node8&#45;&gt;Node29 -->
<g id="edge32_Node000008_Node000029" class="edge">
<title>Node8&#45;&gt;Node29</title>
<g id="a_edge32_Node000008_Node000029"><a xlink:title=" ">
<path fill="none" stroke="#63b8ff" d="M335.31,-130.48C351.66,-134.89 370.87,-140.06 388.19,-144.72"/>
<polygon fill="#63b8ff" stroke="#63b8ff" points="387.12,-148.33 397.69,-147.55 388.94,-141.57 387.12,-148.33"/>
</a>
</g>
</g>
<!-- Node30 -->
<g id="Node000030" class="node">
<title>Node30</title>
<g id="a_Node000030"><a xlink:href="namespacesvg.html#a010fea242a289d173d521b501140cd72" target="_top" xlink:title="Zero degrees is top, going clockwise (cw).">
<polygon fill="white" stroke="#666666" points="496.75,-130 380.25,-130 380.25,-110 496.75,-110 496.75,-130"/>
<text text-anchor="middle" x="438.5" y="-118.4" font-family="SourceSans" font-size="8.00">svg::zero_angle_north_ccw</text>
</a>
</g>
</g>
<!-- Node8&#45;&gt;Node30 -->
<g id="edge34_Node000008_Node000030" class="edge">
<title>Node8&#45;&gt;Node30</title>
<g id="a_edge34_Node000008_Node000030"><a xlink:title=" ">
<path fill="none" stroke="#63b8ff" d="M336.06,-120C346.38,-120 357.79,-120 369.13,-120"/>
<polygon fill="#63b8ff" stroke="#63b8ff" points="368.94,-123.5 378.94,-120 368.94,-116.5 368.94,-123.5"/>
</a>
</g>
</g>
<!-- Node31 -->
<g id="Node000031" class="node">
<title>Node31</title>
<g id="a_Node000031"><a xlink:href="namespacesvg.html#a46164d75fd5109e4ed8879abbacd5c11" target="_top" xlink:title="Zero degrees is top, going clockwise (cw).">
<polygon fill="white" stroke="#666666" points="494.88,-92 382.12,-92 382.12,-72 494.88,-72 494.88,-92"/>
<text text-anchor="middle" x="438.5" y="-80.4" font-family="SourceSans" font-size="8.00">svg::zero_angle_north_cw</text>
</a>
</g>
</g>
<!-- Node8&#45;&gt;Node31 -->
<g id="edge35_Node000008_Node000031" class="edge">
<title>Node8&#45;&gt;Node31</title>
<g id="a_edge35_Node000008_Node000031"><a xlink:title=" ">
<path fill="none" stroke="#63b8ff" d="M335.31,-109.52C351.66,-105.11 370.87,-99.94 388.19,-95.28"/>
<polygon fill="#63b8ff" stroke="#63b8ff" points="388.94,-98.43 397.69,-92.45 387.12,-91.67 388.94,-98.43"/>
</a>
</g>
</g>
<!-- Node10 -->
<g id="Node000010" class="node">
<title>Node10</title>
<g id="a_Node000010"><a xlink:href="namespacesvg.html#aef05ac63d88a6102981d3faf37275297" target="_top" xlink:title="Angle in radians.">
<polygon fill="white" stroke="#666666" points="636.5,-32 532.75,-32 532.75,0 636.5,0 636.5,-32"/>
<text text-anchor="start" x="540.75" y="-20.4" font-family="SourceSans" font-size="8.00">svg::get_circumference</text>
<text text-anchor="middle" x="584.62" y="-8.4" font-family="SourceSans" font-size="8.00">_point_r</text>
</a>
</g>
</g>
<!-- Node9&#45;&gt;Node10 -->
<g id="edge9_Node000009_Node000010" class="edge">
<title>Node9&#45;&gt;Node10</title>
<g id="a_edge9_Node000009_Node000010"><a xlink:title=" ">
<path fill="none" stroke="#63b8ff" d="M490.72,-30.18C500.81,-28.64 511.49,-27.01 521.88,-25.42"/>
<polygon fill="#63b8ff" stroke="#63b8ff" points="522.21,-28.76 531.57,-23.79 521.16,-21.84 522.21,-28.76"/>
</a>
</g>
</g>
<!-- Node11 -->
<g id="Node000011" class="node">
<title>Node11</title>
<g id="a_Node000011"><a xlink:href="namespacesvg_1_1constants.html#a0e0b0d9314bc47324ee39884bf8bb2fd" target="_top" xlink:title=" ">
<polygon fill="white" stroke="#666666" points="625.62,-70 543.62,-70 543.62,-50 625.62,-50 625.62,-70"/>
<text text-anchor="middle" x="584.62" y="-58.4" font-family="SourceSans" font-size="8.00">svg::constants::pi</text>
</a>
</g>
</g>
<!-- Node9&#45;&gt;Node11 -->
<g id="edge10_Node000009_Node000011" class="edge">
<title>Node9&#45;&gt;Node11</title>
<g id="a_edge10_Node000009_Node000011"><a xlink:title=" ">
<path fill="none" stroke="#63b8ff" d="M490.72,-45.82C504.38,-47.9 519.14,-50.16 532.78,-52.24"/>
<polygon fill="#63b8ff" stroke="#63b8ff" points="532.03,-55.82 542.44,-53.87 533.08,-48.9 532.03,-55.82"/>
</a>
</g>
</g>
<!-- Node13 -->
<g id="Node000013" class="node">
<title>Node13</title>
<g id="a_Node000013"><a xlink:href="namespacesvg.html#a5791c1fc9121f01e5f666b7ce0367dfa" target="_top" xlink:title="Text at @origin, with style and ... a transformation=rotation of @deg about @rorigin.">
<polygon fill="white" stroke="#666666" points="625.25,-187 544,-187 544,-167 625.25,-167 625.25,-187"/>
<text text-anchor="middle" x="584.62" y="-175.4" font-family="SourceSans" font-size="8.00">svg::styled_text_r</text>
</a>
</g>
</g>
<!-- Node12&#45;&gt;Node13 -->
<g id="edge12_Node000012_Node000013" class="edge">
<title>Node12&#45;&gt;Node13</title>
<g id="a_edge12_Node000012_Node000013"><a xlink:title=" ">
<path fill="none" stroke="#63b8ff" d="M484.31,-190.09C499.75,-188.06 517.15,-185.76 533.03,-183.67"/>
<polygon fill="#63b8ff" stroke="#63b8ff" points="533.27,-187.04 542.73,-182.26 532.35,-180.1 533.27,-187.04"/>
</a>
</g>
</g>
<!-- Node14 -->
<g id="Node000014" class="node">
<title>Node14</title>
<g id="a_Node000014"><a xlink:href="group__elements.html#aad29e1daf75bdcd69a39575a6807fa0f" target="_top" xlink:title="Either serialize immediately (as below), or create data structure that adds data to data_vec and then...">
<polygon fill="white" stroke="#666666" points="766.88,-356 678.88,-356 678.88,-324 766.88,-324 766.88,-356"/>
<text text-anchor="start" x="686.88" y="-344.4" font-family="SourceSans" font-size="8.00">svg::text_element::</text>
<text text-anchor="middle" x="722.88" y="-332.4" font-family="SourceSans" font-size="8.00">add_data</text>
</a>
</g>
</g>
<!-- Node13&#45;&gt;Node14 -->
<g id="edge13_Node000013_Node000014" class="edge">
<title>Node13&#45;&gt;Node14</title>
<g id="a_edge13_Node000013_Node000014"><a xlink:title=" ">
<path fill="none" stroke="#63b8ff" d="M594.15,-187.2C615.34,-212.55 670.91,-279.03 701.3,-315.39"/>
<polygon fill="#63b8ff" stroke="#63b8ff" points="698.99,-317.08 708.09,-322.51 704.37,-312.6 698.99,-317.08"/>
</a>
</g>
</g>
<!-- Node23 -->
<g id="Node000023" class="node">
<title>Node23</title>
<g id="a_Node000023"><a xlink:href="group__elements.html#adb6116b96467cc39cb178deb10c7a869" target="_top" xlink:title=" ">
<polygon fill="white" stroke="#666666" points="773.25,-243 672.5,-243 672.5,-211 773.25,-211 773.25,-243"/>
<text text-anchor="start" x="680.5" y="-231.4" font-family="SourceSans" font-size="8.00">svg::svg_element::add</text>
<text text-anchor="middle" x="722.88" y="-219.4" font-family="SourceSans" font-size="8.00">_element</text>
</a>
</g>
</g>
<!-- Node13&#45;&gt;Node23 -->
<g id="edge26_Node000013_Node000023" class="edge">
<title>Node13&#45;&gt;Node23</title>
<g id="a_edge26_Node000013_Node000023"><a xlink:title=" ">
<path fill="none" stroke="#63b8ff" d="M614.19,-187.48C629.46,-193.09 648.79,-200.18 666.84,-206.8"/>
<polygon fill="#63b8ff" stroke="#63b8ff" points="665.4,-210.37 675.99,-210.53 667.81,-203.8 665.4,-210.37"/>
</a>
</g>
</g>
<!-- Node25 -->
<g id="Node000025" class="node">
<title>Node25</title>
<g id="a_Node000025"><a xlink:href="group__elements.html#ga13c46848317034d16c62a7d2061ba3d6" target="_top" xlink:title=" ">
<polygon fill="white" stroke="#666666" points="766.88,-193 678.88,-193 678.88,-161 766.88,-161 766.88,-193"/>
<text text-anchor="start" x="686.88" y="-181.4" font-family="SourceSans" font-size="8.00">svg::text_element::</text>
<text text-anchor="middle" x="722.88" y="-169.4" font-family="SourceSans" font-size="8.00">finish_element</text>
</a>
</g>
</g>
<!-- Node13&#45;&gt;Node25 -->
<g id="edge28_Node000013_Node000025" class="edge">
<title>Node13&#45;&gt;Node25</title>
<g id="a_edge28_Node000013_Node000025"><a xlink:title=" ">
<path fill="none" stroke="#63b8ff" d="M625.4,-177C638.67,-177 653.69,-177 667.85,-177"/>
<polygon fill="#63b8ff" stroke="#63b8ff" points="667.48,-180.5 677.47,-177 667.47,-173.5 667.48,-180.5"/>
</a>
</g>
</g>
<!-- Node27 -->
<g id="Node000027" class="node">
<title>Node27</title>
<g id="a_Node000027"><a xlink:href="structsvg_1_1transform.html#acf9836f4ba647f0dd2b53963a0f714d0" target="_top" xlink:title=" ">
<polygon fill="white" stroke="#666666" points="771.75,-143 674,-143 674,-123 771.75,-123 771.75,-143"/>
<text text-anchor="middle" x="722.88" y="-131.4" font-family="SourceSans" font-size="8.00">svg::transform::rotate</text>
</a>
</g>
</g>
<!-- Node13&#45;&gt;Node27 -->
<g id="edge30_Node000013_Node000027" class="edge">
<title>Node13&#45;&gt;Node27</title>
<g id="a_edge30_Node000013_Node000027"><a xlink:title=" ">
<path fill="none" stroke="#63b8ff" d="M617.91,-166.57C636.32,-160.63 659.62,-153.11 679.49,-146.69"/>
<polygon fill="#63b8ff" stroke="#63b8ff" points="680.38,-149.76 688.82,-143.35 678.23,-143.1 680.38,-149.76"/>
</a>
</g>
</g>
<!-- Node28 -->
<g id="Node000028" class="node">
<title>Node28</title>
<g id="a_Node000028"><a xlink:href="group__elements.html#ae45bec611a6ec17ea46aab6d680ae042" target="_top" xlink:title=" ">
<polygon fill="white" stroke="#666666" points="766.88,-105 678.88,-105 678.88,-73 766.88,-73 766.88,-105"/>
<text text-anchor="start" x="686.88" y="-93.4" font-family="SourceSans" font-size="8.00">svg::text_element::</text>
<text text-anchor="middle" x="722.88" y="-81.4" font-family="SourceSans" font-size="8.00">start_element</text>
</a>
</g>
</g>
<!-- Node13&#45;&gt;Node28 -->
<g id="edge31_Node000013_Node000028" class="edge">
<title>Node13&#45;&gt;Node28</title>
<g id="a_edge31_Node000013_Node000028"><a xlink:title=" ">
<path fill="none" stroke="#63b8ff" d="M598.42,-166.72C614.99,-153.66 644.99,-130.79 672.5,-114 674.47,-112.8 676.5,-111.61 678.56,-110.43"/>
<polygon fill="#63b8ff" stroke="#63b8ff" points="679.67,-113.26 686.75,-105.38 676.3,-107.12 679.67,-113.26"/>
</a>
</g>
</g>
<!-- Node15 -->
<g id="Node000015" class="node">
<title>Node15</title>
<g id="a_Node000015"><a xlink:href="structsvg_1_1typography.html#adbc62f74f1fed3f7c77567250f084f83" target="_top" xlink:title=" ">
<polygon fill="white" stroke="#666666" points="909.62,-381 813.38,-381 813.38,-349 909.62,-349 909.62,-381"/>
<text text-anchor="start" x="821.38" y="-369.4" font-family="SourceSans" font-size="8.00">svg::typography::add</text>
<text text-anchor="middle" x="861.5" y="-357.4" font-family="SourceSans" font-size="8.00">_attribute</text>
</a>
</g>
</g>
<!-- Node14&#45;&gt;Node15 -->
<g id="edge14_Node000014_Node000015" class="edge">
<title>Node14&#45;&gt;Node15</title>
<g id="a_edge14_Node000014_Node000015"><a xlink:title=" ">
<path fill="none" stroke="#63b8ff" d="M767.1,-347.91C778.36,-349.97 790.66,-352.22 802.54,-354.39"/>
<polygon fill="#63b8ff" stroke="#63b8ff" points="801.82,-358 812.29,-356.36 803.08,-351.12 801.82,-358"/>
</a>
</g>
</g>
<!-- Node18 -->
<g id="Node000018" class="node">
<title>Node18</title>
<g id="a_Node000018"><a xlink:href="namespacesvg.html#a48ac748e89e22789d1772326a98dd7b6" target="_top" xlink:title=" ">
<polygon fill="white" stroke="#666666" points="1041.88,-457 954.62,-457 954.62,-437 1041.88,-437 1041.88,-457"/>
<text text-anchor="middle" x="998.25" y="-445.4" font-family="SourceSans" font-size="8.00">svg::string_replace</text>
</a>
</g>
</g>
<!-- Node14&#45;&gt;Node18 -->
<g id="edge24_Node000014_Node000018" class="edge">
<title>Node14&#45;&gt;Node18</title>
<g id="a_edge24_Node000014_Node000018"><a xlink:title=" ">
<path fill="none" stroke="#63b8ff" d="M738.18,-356.25C753.89,-372.98 780.69,-398.47 809.25,-412 851.76,-432.13 904.8,-440.7 943.69,-444.34"/>
<polygon fill="#63b8ff" stroke="#63b8ff" points="943.01,-447.88 953.27,-445.24 943.6,-440.9 943.01,-447.88"/>
</a>
</g>
</g>
<!-- Node20 -->
<g id="Node000020" class="node">
<title>Node20</title>
<g id="a_Node000020"><a xlink:href="namespacesvg.html#a36b1c48ad4601b205790e3772ad0a7b6" target="_top" xlink:title=" ">
<polygon fill="white" stroke="#666666" points="1031.75,-419 964.75,-419 964.75,-399 1031.75,-399 1031.75,-419"/>
<text text-anchor="middle" x="998.25" y="-407.4" font-family="SourceSans" font-size="8.00">svg::to_string</text>
</a>
</g>
</g>
<!-- Node14&#45;&gt;Node20 -->
<g id="edge25_Node000014_Node000020" class="edge">
<title>Node14&#45;&gt;Node20</title>
<g id="a_edge25_Node000014_Node000020"><a xlink:title=" ">
<path fill="none" stroke="#63b8ff" d="M745.79,-356.42C762.33,-367.88 786.06,-382.44 809.25,-390 856.94,-405.55 914.73,-409.31 953.54,-409.8"/>
<polygon fill="#63b8ff" stroke="#63b8ff" points="953.43,-413.31 963.45,-409.87 953.47,-406.31 953.43,-413.31"/>
</a>
</g>
</g>
<!-- Node21 -->
<g id="Node000021" class="node">
<title>Node21</title>
<g id="a_Node000021"><a xlink:href="group__elements.html#a1ed006cabdb9c531c2bd8e27ea9e0966" target="_top" xlink:title=" ">
<polygon fill="white" stroke="#666666" points="905.5,-331 817.5,-331 817.5,-299 905.5,-299 905.5,-331"/>
<text text-anchor="start" x="825.5" y="-319.4" font-family="SourceSans" font-size="8.00">svg::text_element::</text>
<text text-anchor="middle" x="861.5" y="-307.4" font-family="SourceSans" font-size="8.00">add_text</text>
</a>
</g>
</g>
<!-- Node14&#45;&gt;Node21 -->
<g id="edge20_Node000014_Node000021" class="edge">
<title>Node14&#45;&gt;Node21</title>
<g id="a_edge20_Node000014_Node000021"><a xlink:title=" ">
<path fill="none" stroke="#63b8ff" d="M767.1,-332.09C779.56,-329.81 793.32,-327.29 806.35,-324.91"/>
<polygon fill="#63b8ff" stroke="#63b8ff" points="806.88,-328.19 816.08,-322.94 805.62,-321.3 806.88,-328.19"/>
</a>
</g>
</g>
<!-- Node22 -->
<g id="Node000022" class="node">
<title>Node22</title>
<g id="a_Node000022"><a xlink:href="group__elements.html#a53d72a7ff728ad1d4d027254530bcf3d" target="_top" xlink:title="Common transforms include rotate(180)">
<polygon fill="white" stroke="#666666" points="907,-281 816,-281 816,-249 907,-249 907,-281"/>
<text text-anchor="start" x="824" y="-269.4" font-family="SourceSans" font-size="8.00">svg::element_base::</text>
<text text-anchor="middle" x="861.5" y="-257.4" font-family="SourceSans" font-size="8.00">add_transform</text>
</a>
</g>
</g>
<!-- Node14&#45;&gt;Node22 -->
<g id="edge21_Node000014_Node000022" class="edge">
<title>Node14&#45;&gt;Node22</title>
<g id="a_edge21_Node000014_Node000022"><a xlink:title=" ">
<path fill="none" stroke="#63b8ff" d="M750.49,-323.71C767.19,-313.67 789.26,-300.71 809.25,-290 811.5,-288.8 813.81,-287.58 816.15,-286.37"/>
<polygon fill="#63b8ff" stroke="#63b8ff" points="817.52,-289.1 824.86,-281.45 814.36,-282.85 817.52,-289.1"/>
</a>
</g>
</g>
<!-- Node16 -->
<g id="Node000016" class="node">
<title>Node16</title>
<g id="a_Node000016"><a xlink:href="namespacesvg_1_1constants.html#a3972655f1dfdc090ec2592d1fb37e87c" target="_top" xlink:title=" ">
<polygon fill="white" stroke="#666666" points="1046.75,-279 949.75,-279 949.75,-259 1046.75,-259 1046.75,-279"/>
<text text-anchor="middle" x="998.25" y="-267.4" font-family="SourceSans" font-size="8.00">svg::constants::quote</text>
</a>
</g>
</g>
<!-- Node15&#45;&gt;Node16 -->
<g id="edge15_Node000015_Node000016" class="edge">
<title>Node15&#45;&gt;Node16</title>
<g id="a_edge15_Node000015_Node000016"><a xlink:title=" ">
<path fill="none" stroke="#63b8ff" d="M900.81,-348.57C905.35,-345.97 909.77,-343.11 913.75,-340 933.38,-324.64 930.74,-313.12 949.75,-297 955.02,-292.53 961.1,-288.36 967.1,-284.67"/>
<polygon fill="#63b8ff" stroke="#63b8ff" points="968.47,-287.34 975.36,-279.29 964.96,-281.28 968.47,-287.34"/>
</a>
</g>
</g>
<!-- Node17 -->
<g id="Node000017" class="node">
<title>Node17</title>
<g id="a_Node000017"><a xlink:href="namespacesvg_1_1constants.html#ac460bc8db60d85c3ae1cf8b1a903405e" target="_top" xlink:title="Formatting character constants.">
<polygon fill="white" stroke="#666666" points="1046.38,-326 950.12,-326 950.12,-306 1046.38,-306 1046.38,-326"/>
<text text-anchor="middle" x="998.25" y="-314.4" font-family="SourceSans" font-size="8.00">svg::constants::space</text>
</a>
</g>
</g>
<!-- Node15&#45;&gt;Node17 -->
<g id="edge16_Node000015_Node000017" class="edge">
<title>Node15&#45;&gt;Node17</title>
<g id="a_edge16_Node000015_Node000017"><a xlink:title=" ">
<path fill="none" stroke="#63b8ff" d="M907.74,-348.55C924.18,-342.57 942.59,-335.88 958.41,-330.12"/>
<polygon fill="#63b8ff" stroke="#63b8ff" points="959.2,-333.2 967.4,-326.49 956.8,-326.62 959.2,-333.2"/>
</a>
</g>
</g>
<!-- Node15&#45;&gt;Node18 -->
<g id="edge17_Node000015_Node000018" class="edge">
<title>Node15&#45;&gt;Node18</title>
<g id="a_edge17_Node000015_Node000018"><a xlink:title=" ">
<path fill="none" stroke="#63b8ff" d="M882.02,-381.24C899.12,-394.93 925.03,-414.4 949.75,-428 952.41,-429.46 955.21,-430.88 958.06,-432.23"/>
<polygon fill="#63b8ff" stroke="#63b8ff" points="956.28,-435.71 966.84,-436.54 959.11,-429.3 956.28,-435.71"/>
</a>
</g>
</g>
<!-- Node19 -->
<g id="Node000019" class="node">
<title>Node19</title>
<g id="a_Node000019"><a xlink:href="structsvg_1_1typography.html#a174c1ffb4e56214d71523ffe7e422561" target="_top" xlink:title=" ">
<polygon fill="white" stroke="#666666" points="1042.62,-381 953.88,-381 953.88,-349 1042.62,-349 1042.62,-381"/>
<text text-anchor="start" x="961.88" y="-369.4" font-family="SourceSans" font-size="8.00">svg::typography::to</text>
<text text-anchor="middle" x="998.25" y="-357.4" font-family="SourceSans" font-size="8.00">_string</text>
</a>
</g>
</g>
<!-- Node15&#45;&gt;Node19 -->
<g id="edge18_Node000015_Node000019" class="edge">
<title>Node15&#45;&gt;Node19</title>
<g id="a_edge18_Node000015_Node000019"><a xlink:title=" ">
<path fill="none" stroke="#63b8ff" d="M910.01,-365C920.69,-365 932.11,-365 943.04,-365"/>
<polygon fill="#63b8ff" stroke="#63b8ff" points="942.77,-368.5 952.77,-365 942.77,-361.5 942.77,-368.5"/>
</a>
</g>
</g>
<!-- Node15&#45;&gt;Node20 -->
<g id="edge19_Node000015_Node000020" class="edge">
<title>Node15&#45;&gt;Node20</title>
<g id="a_edge19_Node000015_Node000020"><a xlink:title=" ">
<path fill="none" stroke="#63b8ff" d="M910.01,-380.51C924.76,-385.33 940.91,-390.6 955.27,-395.29"/>
<polygon fill="#63b8ff" stroke="#63b8ff" points="953.76,-398.81 964.35,-398.58 955.93,-392.15 953.76,-398.81"/>
</a>
</g>
</g>
<!-- Node22&#45;&gt;Node16 -->
<g id="edge22_Node000022_Node000016" class="edge">
<title>Node22&#45;&gt;Node16</title>
<g id="a_edge22_Node000022_Node000016"><a xlink:title=" ">
<path fill="none" stroke="#63b8ff" d="M907.37,-266.33C917.37,-266.63 928.12,-266.95 938.58,-267.26"/>
<polygon fill="#63b8ff" stroke="#63b8ff" points="938.24,-270.78 948.34,-267.58 938.45,-263.78 938.24,-270.78"/>
</a>
</g>
</g>
<!-- Node22&#45;&gt;Node17 -->
<g id="edge23_Node000022_Node000017" class="edge">
<title>Node22&#45;&gt;Node17</title>
<g id="a_edge23_Node000022_Node000017"><a xlink:title=" ">
<path fill="none" stroke="#63b8ff" d="M905.88,-281.42C923.21,-287.98 942.97,-295.46 959.68,-301.78"/>
<polygon fill="#63b8ff" stroke="#63b8ff" points="958.04,-305.28 968.64,-305.55 960.52,-298.74 958.04,-305.28"/>
</a>
</g>
</g>
<!-- Node24 -->
<g id="Node000024" class="node">
<title>Node24</title>
<g id="a_Node000024"><a xlink:href="group__elements.html#a99ff90a016db190ee8bb5ee8c045e329" target="_top" xlink:title=" ">
<polygon fill="white" stroke="#666666" points="911.88,-231 811.12,-231 811.12,-211 911.88,-211 911.88,-231"/>
<text text-anchor="middle" x="861.5" y="-219.4" font-family="SourceSans" font-size="8.00">svg::element_base::str</text>
</a>
</g>
</g>
<!-- Node23&#45;&gt;Node24 -->
<g id="edge27_Node000023_Node000024" class="edge">
<title>Node23&#45;&gt;Node24</title>
<g id="a_edge27_Node000023_Node000024"><a xlink:title=" ">
<path fill="none" stroke="#63b8ff" d="M773.59,-224.82C782.27,-224.44 791.38,-224.04 800.3,-223.64"/>
<polygon fill="#63b8ff" stroke="#63b8ff" points="800.22,-227.11 810.05,-223.17 799.91,-220.11 800.22,-227.11"/>
</a>
</g>
</g>
<!-- Node26 -->
<g id="Node000026" class="node">
<title>Node26</title>
<g id="a_Node000026"><a xlink:href="namespacesvg_1_1constants.html#aa7f04c2ea699a1b1e2e790de5ac33f38" target="_top" xlink:title=" ">
<polygon fill="white" stroke="#666666" points="913.75,-187 809.25,-187 809.25,-167 913.75,-167 913.75,-187"/>
<text text-anchor="middle" x="861.5" y="-175.4" font-family="SourceSans" font-size="8.00">svg::constants::newline</text>
</a>
</g>
</g>
<!-- Node25&#45;&gt;Node26 -->
<g id="edge29_Node000025_Node000026" class="edge">
<title>Node25&#45;&gt;Node26</title>
<g id="a_edge29_Node000025_Node000026"><a xlink:title=" ">
<path fill="none" stroke="#63b8ff" d="M767.1,-177C776.97,-177 787.64,-177 798.13,-177"/>
<polygon fill="#63b8ff" stroke="#63b8ff" points="797.95,-180.5 807.95,-177 797.95,-173.5 797.95,-180.5"/>
</a>
</g>
</g>
<!-- Node29&#45;&gt;Node13 -->
<g id="edge33_Node000029_Node000013" class="edge">
<title>Node29&#45;&gt;Node13</title>
<g id="a_edge33_Node000029_Node000013"><a xlink:title=" ">
<path fill="none" stroke="#63b8ff" d="M482.35,-163.65C498.28,-165.75 516.5,-168.15 533.05,-170.33"/>
<polygon fill="#63b8ff" stroke="#63b8ff" points="532.28,-173.89 542.65,-171.73 533.19,-166.95 532.28,-173.89"/>
</a>
</g>
</g>
</g>
</svg>
