<?xml version="1.0" encoding="UTF-8" standalone="no"?>
<!DOCTYPE svg PUBLIC "-//W3C//DTD SVG 1.1//EN"
 "http://www.w3.org/Graphics/SVG/1.1/DTD/svg11.dtd">
<!-- Generated by graphviz version 8.1.0 (20230707.0739)
 -->
<!-- Title: svg::point_2d_to_rect_blur Pages: 1 -->
<svg width="401pt" height="290pt"
 viewBox="0.00 0.00 401.00 290.00" xmlns="http://www.w3.org/2000/svg" xmlns:xlink="http://www.w3.org/1999/xlink">
<g id="graph0" class="graph" transform="scale(1 1) rotate(0) translate(4 286)">
<title>svg::point_2d_to_rect_blur</title>
<!-- Node1 -->
<g id="Node000001" class="node">
<title>Node1</title>
<g id="a_Node000001"><a xlink:title="Point to rectangle blur.">
<polygon fill="#999999" stroke="#666666" points="115.75,-151 0,-151 0,-131 115.75,-131 115.75,-151"/>
<text text-anchor="middle" x="57.88" y="-139.4" font-family="SourceSans" font-size="8.00">svg::point_2d_to_rect_blur</text>
</a>
</g>
</g>
<!-- Node2 -->
<g id="Node000002" class="node">
<title>Node2</title>
<g id="a_Node000002"><a xlink:href="group__elements.html#a1dd6663d882fb5dd14a47462a77f351b" target="_top" xlink:title="Either serialize immediately (as below), or create data structure that adds data to data_vec and then...">
<polygon fill="white" stroke="#666666" points="245.75,-282 158.5,-282 158.5,-250 245.75,-250 245.75,-282"/>
<text text-anchor="start" x="166.5" y="-270.4" font-family="SourceSans" font-size="8.00">svg::rect_element::</text>
<text text-anchor="middle" x="202.12" y="-258.4" font-family="SourceSans" font-size="8.00">add_data</text>
</a>
</g>
</g>
<!-- Node1&#45;&gt;Node2 -->
<g id="edge1_Node000001_Node000002" class="edge">
<title>Node1&#45;&gt;Node2</title>
<g id="a_edge1_Node000001_Node000002"><a xlink:title=" ">
<path fill="none" stroke="#63b8ff" d="M66.57,-151.49C81.34,-171.07 115.41,-213.63 151.75,-241 153.02,-241.96 154.33,-242.9 155.68,-243.81"/>
<polygon fill="#63b8ff" stroke="#63b8ff" points="153.56,-247.24 163.9,-249.55 157.26,-241.29 153.56,-247.24"/>
</a>
</g>
</g>
<!-- Node4 -->
<g id="Node000004" class="node">
<title>Node4</title>
<g id="a_Node000004"><a xlink:href="group__elements.html#adb6116b96467cc39cb178deb10c7a869" target="_top" xlink:title=" ">
<polygon fill="white" stroke="#666666" points="252.5,-232 151.75,-232 151.75,-200 252.5,-200 252.5,-232"/>
<text text-anchor="start" x="159.75" y="-220.4" font-family="SourceSans" font-size="8.00">svg::svg_element::add</text>
<text text-anchor="middle" x="202.12" y="-208.4" font-family="SourceSans" font-size="8.00">_element</text>
</a>
</g>
</g>
<!-- Node1&#45;&gt;Node4 -->
<g id="edge3_Node000001_Node000004" class="edge">
<title>Node1&#45;&gt;Node4</title>
<g id="a_edge3_Node000001_Node000004"><a xlink:title=" ">
<path fill="none" stroke="#63b8ff" d="M78.01,-151.48C96.74,-161.7 126.1,-177.61 151.75,-191 154.01,-192.18 156.34,-193.39 158.69,-194.6"/>
<polygon fill="#63b8ff" stroke="#63b8ff" points="156.9,-198.13 167.4,-199.57 160.09,-191.9 156.9,-198.13"/>
</a>
</g>
</g>
<!-- Node6 -->
<g id="Node000006" class="node">
<title>Node6</title>
<g id="a_Node000006"><a xlink:href="group__elements.html#a1b22cfab9437b40c8b877ffe5472ff02" target="_top" xlink:title=" ">
<polygon fill="white" stroke="#666666" points="247.62,-182 156.62,-182 156.62,-150 247.62,-150 247.62,-182"/>
<text text-anchor="start" x="164.62" y="-170.4" font-family="SourceSans" font-size="8.00">svg::element_base::</text>
<text text-anchor="middle" x="202.12" y="-158.4" font-family="SourceSans" font-size="8.00">add_filter</text>
</a>
</g>
</g>
<!-- Node1&#45;&gt;Node6 -->
<g id="edge5_Node000001_Node000006" class="edge">
<title>Node1&#45;&gt;Node6</title>
<g id="a_edge5_Node000001_Node000006"><a xlink:title=" ">
<path fill="none" stroke="#63b8ff" d="M115.91,-151.02C125.69,-152.74 135.83,-154.52 145.56,-156.23"/>
<polygon fill="#63b8ff" stroke="#63b8ff" points="144.88,-159.84 155.33,-158.13 146.09,-152.95 144.88,-159.84"/>
</a>
</g>
</g>
<!-- Node9 -->
<g id="Node000009" class="node">
<title>Node9</title>
<g id="a_Node000009"><a xlink:href="group__elements.html#a238b38ca99a1cf6c2baf80c8e4338d99" target="_top" xlink:title=" ">
<polygon fill="white" stroke="#666666" points="247.62,-132 156.62,-132 156.62,-100 247.62,-100 247.62,-132"/>
<text text-anchor="start" x="164.62" y="-120.4" font-family="SourceSans" font-size="8.00">svg::element_base::</text>
<text text-anchor="middle" x="202.12" y="-108.4" font-family="SourceSans" font-size="8.00">add_style</text>
</a>
</g>
</g>
<!-- Node1&#45;&gt;Node9 -->
<g id="edge8_Node000001_Node000009" class="edge">
<title>Node1&#45;&gt;Node9</title>
<g id="a_edge8_Node000001_Node000009"><a xlink:title=" ">
<path fill="none" stroke="#63b8ff" d="M115.91,-130.98C125.69,-129.26 135.83,-127.48 145.56,-125.77"/>
<polygon fill="#63b8ff" stroke="#63b8ff" points="146.09,-129.05 155.33,-123.87 144.88,-122.16 146.09,-129.05"/>
</a>
</g>
</g>
<!-- Node11 -->
<g id="Node000011" class="node">
<title>Node11</title>
<g id="a_Node000011"><a xlink:href="group__elements.html#gad01750ac554c6bd6871a930c90e17a04" target="_top" xlink:title=" ">
<polygon fill="white" stroke="#666666" points="245.75,-82 158.5,-82 158.5,-50 245.75,-50 245.75,-82"/>
<text text-anchor="start" x="166.5" y="-70.4" font-family="SourceSans" font-size="8.00">svg::rect_element::</text>
<text text-anchor="middle" x="202.12" y="-58.4" font-family="SourceSans" font-size="8.00">finish_element</text>
</a>
</g>
</g>
<!-- Node1&#45;&gt;Node11 -->
<g id="edge10_Node000001_Node000011" class="edge">
<title>Node1&#45;&gt;Node11</title>
<g id="a_edge10_Node000001_Node000011"><a xlink:title=" ">
<path fill="none" stroke="#63b8ff" d="M78.01,-130.52C96.74,-120.3 126.1,-104.39 151.75,-91 154.01,-89.82 156.34,-88.61 158.69,-87.4"/>
<polygon fill="#63b8ff" stroke="#63b8ff" points="160.09,-90.1 167.4,-82.43 156.9,-83.87 160.09,-90.1"/>
</a>
</g>
</g>
<!-- Node13 -->
<g id="Node000013" class="node">
<title>Node13</title>
<g id="a_Node000013"><a xlink:href="group__elements.html#a1e0ed5e9dfe1244317a87d7e6774348b" target="_top" xlink:title=" ">
<polygon fill="white" stroke="#666666" points="245.75,-32 158.5,-32 158.5,0 245.75,0 245.75,-32"/>
<text text-anchor="start" x="166.5" y="-20.4" font-family="SourceSans" font-size="8.00">svg::rect_element::</text>
<text text-anchor="middle" x="202.12" y="-8.4" font-family="SourceSans" font-size="8.00">start_element</text>
</a>
</g>
</g>
<!-- Node1&#45;&gt;Node13 -->
<g id="edge12_Node000001_Node000013" class="edge">
<title>Node1&#45;&gt;Node13</title>
<g id="a_edge12_Node000001_Node000013"><a xlink:title=" ">
<path fill="none" stroke="#63b8ff" d="M66.57,-130.51C81.34,-110.93 115.41,-68.37 151.75,-41 153.02,-40.04 154.33,-39.1 155.68,-38.19"/>
<polygon fill="#63b8ff" stroke="#63b8ff" points="157.26,-40.71 163.9,-32.45 153.56,-34.76 157.26,-40.71"/>
</a>
</g>
</g>
<!-- Node3 -->
<g id="Node000003" class="node">
<title>Node3</title>
<g id="a_Node000003"><a xlink:href="namespacesvg.html#a48ac748e89e22789d1772326a98dd7b6" target="_top" xlink:title=" ">
<polygon fill="white" stroke="#666666" points="384.38,-276 297.12,-276 297.12,-256 384.38,-256 384.38,-276"/>
<text text-anchor="middle" x="340.75" y="-264.4" font-family="SourceSans" font-size="8.00">svg::string_replace</text>
</a>
</g>
</g>
<!-- Node2&#45;&gt;Node3 -->
<g id="edge2_Node000002_Node000003" class="edge">
<title>Node2&#45;&gt;Node3</title>
<g id="a_edge2_Node000002_Node000003"><a xlink:title=" ">
<path fill="none" stroke="#63b8ff" d="M245.98,-266C258.7,-266 272.79,-266 286.1,-266"/>
<polygon fill="#63b8ff" stroke="#63b8ff" points="286.05,-269.5 296.05,-266 286.05,-262.5 286.05,-269.5"/>
</a>
</g>
</g>
<!-- Node5 -->
<g id="Node000005" class="node">
<title>Node5</title>
<g id="a_Node000005"><a xlink:href="group__elements.html#a99ff90a016db190ee8bb5ee8c045e329" target="_top" xlink:title=" ">
<polygon fill="white" stroke="#666666" points="391.12,-233 290.38,-233 290.38,-213 391.12,-213 391.12,-233"/>
<text text-anchor="middle" x="340.75" y="-221.4" font-family="SourceSans" font-size="8.00">svg::element_base::str</text>
</a>
</g>
</g>
<!-- Node4&#45;&gt;Node5 -->
<g id="edge4_Node000004_Node000005" class="edge">
<title>Node4&#45;&gt;Node5</title>
<g id="a_edge4_Node000004_Node000005"><a xlink:title=" ">
<path fill="none" stroke="#63b8ff" d="M252.84,-218.55C261.52,-218.99 270.63,-219.46 279.55,-219.92"/>
<polygon fill="#63b8ff" stroke="#63b8ff" points="279.14,-223.45 289.3,-220.47 279.5,-216.46 279.14,-223.45"/>
</a>
</g>
</g>
<!-- Node7 -->
<g id="Node000007" class="node">
<title>Node7</title>
<g id="a_Node000007"><a xlink:href="namespacesvg_1_1constants.html#a3972655f1dfdc090ec2592d1fb37e87c" target="_top" xlink:title=" ">
<polygon fill="white" stroke="#666666" points="389.25,-195 292.25,-195 292.25,-175 389.25,-175 389.25,-195"/>
<text text-anchor="middle" x="340.75" y="-183.4" font-family="SourceSans" font-size="8.00">svg::constants::quote</text>
</a>
</g>
</g>
<!-- Node6&#45;&gt;Node7 -->
<g id="edge6_Node000006_Node000007" class="edge">
<title>Node6&#45;&gt;Node7</title>
<g id="a_edge6_Node000006_Node000007"><a xlink:title=" ">
<path fill="none" stroke="#63b8ff" d="M247.86,-172.22C258.59,-173.71 270.21,-175.33 281.46,-176.89"/>
<polygon fill="#63b8ff" stroke="#63b8ff" points="280.7,-180.46 291.09,-178.37 281.67,-173.53 280.7,-180.46"/>
</a>
</g>
</g>
<!-- Node8 -->
<g id="Node000008" class="node">
<title>Node8</title>
<g id="a_Node000008"><a xlink:href="namespacesvg_1_1constants.html#ac460bc8db60d85c3ae1cf8b1a903405e" target="_top" xlink:title="Formatting character constants.">
<polygon fill="white" stroke="#666666" points="388.88,-157 292.62,-157 292.62,-137 388.88,-137 388.88,-157"/>
<text text-anchor="middle" x="340.75" y="-145.4" font-family="SourceSans" font-size="8.00">svg::constants::space</text>
</a>
</g>
</g>
<!-- Node6&#45;&gt;Node8 -->
<g id="edge7_Node000006_Node000008" class="edge">
<title>Node6&#45;&gt;Node8</title>
<g id="a_edge7_Node000006_Node000008"><a xlink:title=" ">
<path fill="none" stroke="#63b8ff" d="M247.86,-159.78C258.71,-158.27 270.47,-156.63 281.83,-155.05"/>
<polygon fill="#63b8ff" stroke="#63b8ff" points="282.14,-158.41 291.56,-153.56 281.18,-151.47 282.14,-158.41"/>
</a>
</g>
</g>
<!-- Node10 -->
<g id="Node000010" class="node">
<title>Node10</title>
<g id="a_Node000010"><a xlink:href="namespacesvg.html#a36b1c48ad4601b205790e3772ad0a7b6" target="_top" xlink:title=" ">
<polygon fill="white" stroke="#666666" points="374.25,-119 307.25,-119 307.25,-99 374.25,-99 374.25,-119"/>
<text text-anchor="middle" x="340.75" y="-107.4" font-family="SourceSans" font-size="8.00">svg::to_string</text>
</a>
</g>
</g>
<!-- Node9&#45;&gt;Node10 -->
<g id="edge9_Node000009_Node000010" class="edge">
<title>Node9&#45;&gt;Node10</title>
<g id="a_edge9_Node000009_Node000010"><a xlink:title=" ">
<path fill="none" stroke="#63b8ff" d="M247.86,-113.71C263.39,-112.91 280.78,-112.02 296.21,-111.23"/>
<polygon fill="#63b8ff" stroke="#63b8ff" points="296.24,-114.68 306.05,-110.68 295.88,-107.69 296.24,-114.68"/>
</a>
</g>
</g>
<!-- Node12 -->
<g id="Node000012" class="node">
<title>Node12</title>
<g id="a_Node000012"><a xlink:href="namespacesvg_1_1constants.html#aa7f04c2ea699a1b1e2e790de5ac33f38" target="_top" xlink:title=" ">
<polygon fill="white" stroke="#666666" points="393,-76 288.5,-76 288.5,-56 393,-56 393,-76"/>
<text text-anchor="middle" x="340.75" y="-64.4" font-family="SourceSans" font-size="8.00">svg::constants::newline</text>
</a>
</g>
</g>
<!-- Node11&#45;&gt;Node12 -->
<g id="edge11_Node000011_Node000012" class="edge">
<title>Node11&#45;&gt;Node12</title>
<g id="a_edge11_Node000011_Node000012"><a xlink:title=" ">
<path fill="none" stroke="#63b8ff" d="M245.98,-66C255.97,-66 266.81,-66 277.45,-66"/>
<polygon fill="#63b8ff" stroke="#63b8ff" points="277.42,-69.5 287.42,-66 277.42,-62.5 277.42,-69.5"/>
</a>
</g>
</g>
</g>
</svg>
