<?xml version="1.0" encoding="UTF-8" standalone="no"?>
<!DOCTYPE svg PUBLIC "-//W3C//DTD SVG 1.1//EN"
 "http://www.w3.org/Graphics/SVG/1.1/DTD/svg11.dtd">
<!-- Generated by graphviz version 8.1.0 (20230707.0739)
 -->
<!-- Title: svg::radial_text_ccw Pages: 1 -->
<svg width="627pt" height="392pt"
 viewBox="0.00 0.00 626.50 392.00" xmlns="http://www.w3.org/2000/svg" xmlns:xlink="http://www.w3.org/1999/xlink">
<g id="graph0" class="graph" transform="scale(1 1) rotate(0) translate(4 388)">
<title>svg::radial_text_ccw</title>
<!-- Node1 -->
<g id="Node000001" class="node">
<title>Node1</title>
<g id="a_Node000001"><a xlink:title="Text with typography, arranged ccw around points (x,y) on a circle.">
<polygon fill="#999999" stroke="#666666" points="91,-114 0,-114 0,-94 91,-94 91,-114"/>
<text text-anchor="middle" x="45.5" y="-102.4" font-family="SourceSans" font-size="8.00">svg::radial_text_ccw</text>
</a>
</g>
</g>
<!-- Node2 -->
<g id="Node000002" class="node">
<title>Node2</title>
<g id="a_Node000002"><a xlink:href="namespacesvg.html#a5791c1fc9121f01e5f666b7ce0367dfa" target="_top" xlink:title="Text at @origin, with style and ... a transformation=rotation of @deg about @rorigin.">
<polygon fill="white" stroke="#666666" points="208.25,-114 127,-114 127,-94 208.25,-94 208.25,-114"/>
<text text-anchor="middle" x="167.62" y="-102.4" font-family="SourceSans" font-size="8.00">svg::styled_text_r</text>
</a>
</g>
</g>
<!-- Node1&#45;&gt;Node2 -->
<g id="edge1_Node000001_Node000002" class="edge">
<title>Node1&#45;&gt;Node2</title>
<g id="a_edge1_Node000001_Node000002"><a xlink:title=" ">
<path fill="none" stroke="#63b8ff" d="M91.23,-104C99.21,-104 107.58,-104 115.71,-104"/>
<polygon fill="#63b8ff" stroke="#63b8ff" points="115.61,-107.5 125.61,-104 115.61,-100.5 115.61,-107.5"/>
</a>
</g>
</g>
<!-- Node3 -->
<g id="Node000003" class="node">
<title>Node3</title>
<g id="a_Node000003"><a xlink:href="group__elements.html#aad29e1daf75bdcd69a39575a6807fa0f" target="_top" xlink:title="Either serialize immediately (as below), or create data structure that adds data to data_vec and then...">
<polygon fill="white" stroke="#666666" points="338.62,-283 250.62,-283 250.62,-251 338.62,-251 338.62,-283"/>
<text text-anchor="start" x="258.62" y="-271.4" font-family="SourceSans" font-size="8.00">svg::text_element::</text>
<text text-anchor="middle" x="294.62" y="-259.4" font-family="SourceSans" font-size="8.00">add_data</text>
</a>
</g>
</g>
<!-- Node2&#45;&gt;Node3 -->
<g id="edge2_Node000002_Node000003" class="edge">
<title>Node2&#45;&gt;Node3</title>
<g id="a_edge2_Node000002_Node000003"><a xlink:title=" ">
<path fill="none" stroke="#63b8ff" d="M176.44,-114.2C195.81,-139.45 246.44,-205.47 274.4,-241.93"/>
<polygon fill="#63b8ff" stroke="#63b8ff" points="272.12,-243.71 280.98,-249.51 277.67,-239.45 272.12,-243.71"/>
</a>
</g>
</g>
<!-- Node12 -->
<g id="Node000012" class="node">
<title>Node12</title>
<g id="a_Node000012"><a xlink:href="group__elements.html#adb6116b96467cc39cb178deb10c7a869" target="_top" xlink:title=" ">
<polygon fill="white" stroke="#666666" points="345,-170 244.25,-170 244.25,-138 345,-138 345,-170"/>
<text text-anchor="start" x="252.25" y="-158.4" font-family="SourceSans" font-size="8.00">svg::svg_element::add</text>
<text text-anchor="middle" x="294.62" y="-146.4" font-family="SourceSans" font-size="8.00">_element</text>
</a>
</g>
</g>
<!-- Node2&#45;&gt;Node12 -->
<g id="edge15_Node000002_Node000012" class="edge">
<title>Node2&#45;&gt;Node12</title>
<g id="a_edge15_Node000002_Node000012"><a xlink:title=" ">
<path fill="none" stroke="#63b8ff" d="M194.83,-114.48C208.7,-120.03 226.23,-127.04 242.65,-133.61"/>
<polygon fill="#63b8ff" stroke="#63b8ff" points="241.11,-137.16 251.69,-137.63 243.71,-130.66 241.11,-137.16"/>
</a>
</g>
</g>
<!-- Node14 -->
<g id="Node000014" class="node">
<title>Node14</title>
<g id="a_Node000014"><a xlink:href="group__elements.html#ga13c46848317034d16c62a7d2061ba3d6" target="_top" xlink:title=" ">
<polygon fill="white" stroke="#666666" points="338.62,-120 250.62,-120 250.62,-88 338.62,-88 338.62,-120"/>
<text text-anchor="start" x="258.62" y="-108.4" font-family="SourceSans" font-size="8.00">svg::text_element::</text>
<text text-anchor="middle" x="294.62" y="-96.4" font-family="SourceSans" font-size="8.00">finish_element</text>
</a>
</g>
</g>
<!-- Node2&#45;&gt;Node14 -->
<g id="edge17_Node000002_Node000014" class="edge">
<title>Node2&#45;&gt;Node14</title>
<g id="a_edge17_Node000002_Node000014"><a xlink:title=" ">
<path fill="none" stroke="#63b8ff" d="M208.52,-104C218.38,-104 229.11,-104 239.53,-104"/>
<polygon fill="#63b8ff" stroke="#63b8ff" points="239.22,-107.5 249.22,-104 239.22,-100.5 239.22,-107.5"/>
</a>
</g>
</g>
<!-- Node16 -->
<g id="Node000016" class="node">
<title>Node16</title>
<g id="a_Node000016"><a xlink:href="structsvg_1_1transform.html#acf9836f4ba647f0dd2b53963a0f714d0" target="_top" xlink:title=" ">
<polygon fill="white" stroke="#666666" points="343.5,-70 245.75,-70 245.75,-50 343.5,-50 343.5,-70"/>
<text text-anchor="middle" x="294.62" y="-58.4" font-family="SourceSans" font-size="8.00">svg::transform::rotate</text>
</a>
</g>
</g>
<!-- Node2&#45;&gt;Node16 -->
<g id="edge19_Node000002_Node000016" class="edge">
<title>Node2&#45;&gt;Node16</title>
<g id="a_edge19_Node000002_Node000016"><a xlink:title=" ">
<path fill="none" stroke="#63b8ff" d="M198.25,-93.57C214.91,-87.71 235.92,-80.31 253.98,-73.96"/>
<polygon fill="#63b8ff" stroke="#63b8ff" points="254.94,-76.97 263.21,-70.35 252.62,-70.37 254.94,-76.97"/>
</a>
</g>
</g>
<!-- Node17 -->
<g id="Node000017" class="node">
<title>Node17</title>
<g id="a_Node000017"><a xlink:href="group__elements.html#ae45bec611a6ec17ea46aab6d680ae042" target="_top" xlink:title=" ">
<polygon fill="white" stroke="#666666" points="338.62,-32 250.62,-32 250.62,0 338.62,0 338.62,-32"/>
<text text-anchor="start" x="258.62" y="-20.4" font-family="SourceSans" font-size="8.00">svg::text_element::</text>
<text text-anchor="middle" x="294.62" y="-8.4" font-family="SourceSans" font-size="8.00">start_element</text>
</a>
</g>
</g>
<!-- Node2&#45;&gt;Node17 -->
<g id="edge20_Node000002_Node000017" class="edge">
<title>Node2&#45;&gt;Node17</title>
<g id="a_edge20_Node000002_Node000017"><a xlink:title=" ">
<path fill="none" stroke="#63b8ff" d="M179.28,-93.78C193.4,-80.57 219.41,-57.34 244.25,-41 245.97,-39.87 247.74,-38.76 249.55,-37.66"/>
<polygon fill="#63b8ff" stroke="#63b8ff" points="250.85,-40.38 257.8,-32.38 247.38,-34.3 250.85,-40.38"/>
</a>
</g>
</g>
<!-- Node4 -->
<g id="Node000004" class="node">
<title>Node4</title>
<g id="a_Node000004"><a xlink:href="structsvg_1_1typography.html#adbc62f74f1fed3f7c77567250f084f83" target="_top" xlink:title=" ">
<polygon fill="white" stroke="#666666" points="481.38,-308 385.12,-308 385.12,-276 481.38,-276 481.38,-308"/>
<text text-anchor="start" x="393.12" y="-296.4" font-family="SourceSans" font-size="8.00">svg::typography::add</text>
<text text-anchor="middle" x="433.25" y="-284.4" font-family="SourceSans" font-size="8.00">_attribute</text>
</a>
</g>
</g>
<!-- Node3&#45;&gt;Node4 -->
<g id="edge3_Node000003_Node000004" class="edge">
<title>Node3&#45;&gt;Node4</title>
<g id="a_edge3_Node000003_Node000004"><a xlink:title=" ">
<path fill="none" stroke="#63b8ff" d="M338.85,-274.91C350.11,-276.97 362.41,-279.22 374.29,-281.39"/>
<polygon fill="#63b8ff" stroke="#63b8ff" points="373.57,-285 384.04,-283.36 374.83,-278.12 373.57,-285"/>
</a>
</g>
</g>
<!-- Node7 -->
<g id="Node000007" class="node">
<title>Node7</title>
<g id="a_Node000007"><a xlink:href="namespacesvg.html#a48ac748e89e22789d1772326a98dd7b6" target="_top" xlink:title=" ">
<polygon fill="white" stroke="#666666" points="613.62,-384 526.38,-384 526.38,-364 613.62,-364 613.62,-384"/>
<text text-anchor="middle" x="570" y="-372.4" font-family="SourceSans" font-size="8.00">svg::string_replace</text>
</a>
</g>
</g>
<!-- Node3&#45;&gt;Node7 -->
<g id="edge13_Node000003_Node000007" class="edge">
<title>Node3&#45;&gt;Node7</title>
<g id="a_edge13_Node000003_Node000007"><a xlink:title=" ">
<path fill="none" stroke="#63b8ff" d="M309.93,-283.25C325.64,-299.98 352.44,-325.47 381,-339 423.51,-359.13 476.55,-367.7 515.44,-371.34"/>
<polygon fill="#63b8ff" stroke="#63b8ff" points="514.76,-374.88 525.02,-372.24 515.35,-367.9 514.76,-374.88"/>
</a>
</g>
</g>
<!-- Node9 -->
<g id="Node000009" class="node">
<title>Node9</title>
<g id="a_Node000009"><a xlink:href="namespacesvg.html#a36b1c48ad4601b205790e3772ad0a7b6" target="_top" xlink:title=" ">
<polygon fill="white" stroke="#666666" points="603.5,-346 536.5,-346 536.5,-326 603.5,-326 603.5,-346"/>
<text text-anchor="middle" x="570" y="-334.4" font-family="SourceSans" font-size="8.00">svg::to_string</text>
</a>
</g>
</g>
<!-- Node3&#45;&gt;Node9 -->
<g id="edge14_Node000003_Node000009" class="edge">
<title>Node3&#45;&gt;Node9</title>
<g id="a_edge14_Node000003_Node000009"><a xlink:title=" ">
<path fill="none" stroke="#63b8ff" d="M317.54,-283.42C334.08,-294.88 357.81,-309.44 381,-317 428.69,-332.55 486.48,-336.31 525.29,-336.8"/>
<polygon fill="#63b8ff" stroke="#63b8ff" points="525.18,-340.31 535.2,-336.87 525.22,-333.31 525.18,-340.31"/>
</a>
</g>
</g>
<!-- Node10 -->
<g id="Node000010" class="node">
<title>Node10</title>
<g id="a_Node000010"><a xlink:href="group__elements.html#a1ed006cabdb9c531c2bd8e27ea9e0966" target="_top" xlink:title=" ">
<polygon fill="white" stroke="#666666" points="477.25,-258 389.25,-258 389.25,-226 477.25,-226 477.25,-258"/>
<text text-anchor="start" x="397.25" y="-246.4" font-family="SourceSans" font-size="8.00">svg::text_element::</text>
<text text-anchor="middle" x="433.25" y="-234.4" font-family="SourceSans" font-size="8.00">add_text</text>
</a>
</g>
</g>
<!-- Node3&#45;&gt;Node10 -->
<g id="edge9_Node000003_Node000010" class="edge">
<title>Node3&#45;&gt;Node10</title>
<g id="a_edge9_Node000003_Node000010"><a xlink:title=" ">
<path fill="none" stroke="#63b8ff" d="M338.85,-259.09C351.31,-256.81 365.07,-254.29 378.1,-251.91"/>
<polygon fill="#63b8ff" stroke="#63b8ff" points="378.63,-255.19 387.83,-249.94 377.37,-248.3 378.63,-255.19"/>
</a>
</g>
</g>
<!-- Node11 -->
<g id="Node000011" class="node">
<title>Node11</title>
<g id="a_Node000011"><a xlink:href="group__elements.html#a53d72a7ff728ad1d4d027254530bcf3d" target="_top" xlink:title="Common transforms include rotate(180)">
<polygon fill="white" stroke="#666666" points="478.75,-208 387.75,-208 387.75,-176 478.75,-176 478.75,-208"/>
<text text-anchor="start" x="395.75" y="-196.4" font-family="SourceSans" font-size="8.00">svg::element_base::</text>
<text text-anchor="middle" x="433.25" y="-184.4" font-family="SourceSans" font-size="8.00">add_transform</text>
</a>
</g>
</g>
<!-- Node3&#45;&gt;Node11 -->
<g id="edge10_Node000003_Node000011" class="edge">
<title>Node3&#45;&gt;Node11</title>
<g id="a_edge10_Node000003_Node000011"><a xlink:title=" ">
<path fill="none" stroke="#63b8ff" d="M322.24,-250.71C338.94,-240.67 361.01,-227.71 381,-217 383.25,-215.8 385.56,-214.58 387.9,-213.37"/>
<polygon fill="#63b8ff" stroke="#63b8ff" points="389.27,-216.1 396.61,-208.45 386.11,-209.85 389.27,-216.1"/>
</a>
</g>
</g>
<!-- Node5 -->
<g id="Node000005" class="node">
<title>Node5</title>
<g id="a_Node000005"><a xlink:href="namespacesvg_1_1constants.html#a3972655f1dfdc090ec2592d1fb37e87c" target="_top" xlink:title=" ">
<polygon fill="white" stroke="#666666" points="618.5,-206 521.5,-206 521.5,-186 618.5,-186 618.5,-206"/>
<text text-anchor="middle" x="570" y="-194.4" font-family="SourceSans" font-size="8.00">svg::constants::quote</text>
</a>
</g>
</g>
<!-- Node4&#45;&gt;Node5 -->
<g id="edge4_Node000004_Node000005" class="edge">
<title>Node4&#45;&gt;Node5</title>
<g id="a_edge4_Node000004_Node000005"><a xlink:title=" ">
<path fill="none" stroke="#63b8ff" d="M472.56,-275.57C477.1,-272.97 481.52,-270.11 485.5,-267 505.13,-251.64 502.49,-240.12 521.5,-224 526.77,-219.53 532.85,-215.36 538.85,-211.67"/>
<polygon fill="#63b8ff" stroke="#63b8ff" points="540.22,-214.34 547.11,-206.29 536.71,-208.28 540.22,-214.34"/>
</a>
</g>
</g>
<!-- Node6 -->
<g id="Node000006" class="node">
<title>Node6</title>
<g id="a_Node000006"><a xlink:href="namespacesvg_1_1constants.html#ac460bc8db60d85c3ae1cf8b1a903405e" target="_top" xlink:title="Formatting character constants.">
<polygon fill="white" stroke="#666666" points="618.12,-253 521.88,-253 521.88,-233 618.12,-233 618.12,-253"/>
<text text-anchor="middle" x="570" y="-241.4" font-family="SourceSans" font-size="8.00">svg::constants::space</text>
</a>
</g>
</g>
<!-- Node4&#45;&gt;Node6 -->
<g id="edge5_Node000004_Node000006" class="edge">
<title>Node4&#45;&gt;Node6</title>
<g id="a_edge5_Node000004_Node000006"><a xlink:title=" ">
<path fill="none" stroke="#63b8ff" d="M479.49,-275.55C495.93,-269.57 514.34,-262.88 530.16,-257.12"/>
<polygon fill="#63b8ff" stroke="#63b8ff" points="530.95,-260.2 539.15,-253.49 528.55,-253.62 530.95,-260.2"/>
</a>
</g>
</g>
<!-- Node4&#45;&gt;Node7 -->
<g id="edge6_Node000004_Node000007" class="edge">
<title>Node4&#45;&gt;Node7</title>
<g id="a_edge6_Node000004_Node000007"><a xlink:title=" ">
<path fill="none" stroke="#63b8ff" d="M453.77,-308.24C470.87,-321.93 496.78,-341.4 521.5,-355 524.16,-356.46 526.96,-357.88 529.81,-359.23"/>
<polygon fill="#63b8ff" stroke="#63b8ff" points="528.03,-362.71 538.59,-363.54 530.86,-356.3 528.03,-362.71"/>
</a>
</g>
</g>
<!-- Node8 -->
<g id="Node000008" class="node">
<title>Node8</title>
<g id="a_Node000008"><a xlink:href="structsvg_1_1typography.html#a174c1ffb4e56214d71523ffe7e422561" target="_top" xlink:title=" ">
<polygon fill="white" stroke="#666666" points="614.38,-308 525.62,-308 525.62,-276 614.38,-276 614.38,-308"/>
<text text-anchor="start" x="533.62" y="-296.4" font-family="SourceSans" font-size="8.00">svg::typography::to</text>
<text text-anchor="middle" x="570" y="-284.4" font-family="SourceSans" font-size="8.00">_string</text>
</a>
</g>
</g>
<!-- Node4&#45;&gt;Node8 -->
<g id="edge7_Node000004_Node000008" class="edge">
<title>Node4&#45;&gt;Node8</title>
<g id="a_edge7_Node000004_Node000008"><a xlink:title=" ">
<path fill="none" stroke="#63b8ff" d="M481.76,-292C492.44,-292 503.86,-292 514.79,-292"/>
<polygon fill="#63b8ff" stroke="#63b8ff" points="514.52,-295.5 524.52,-292 514.52,-288.5 514.52,-295.5"/>
</a>
</g>
</g>
<!-- Node4&#45;&gt;Node9 -->
<g id="edge8_Node000004_Node000009" class="edge">
<title>Node4&#45;&gt;Node9</title>
<g id="a_edge8_Node000004_Node000009"><a xlink:title=" ">
<path fill="none" stroke="#63b8ff" d="M481.76,-307.51C496.51,-312.33 512.66,-317.6 527.02,-322.29"/>
<polygon fill="#63b8ff" stroke="#63b8ff" points="525.51,-325.81 536.1,-325.58 527.68,-319.15 525.51,-325.81"/>
</a>
</g>
</g>
<!-- Node11&#45;&gt;Node5 -->
<g id="edge11_Node000011_Node000005" class="edge">
<title>Node11&#45;&gt;Node5</title>
<g id="a_edge11_Node000011_Node000005"><a xlink:title=" ">
<path fill="none" stroke="#63b8ff" d="M479.12,-193.33C489.12,-193.63 499.87,-193.95 510.33,-194.26"/>
<polygon fill="#63b8ff" stroke="#63b8ff" points="509.99,-197.78 520.09,-194.58 510.2,-190.78 509.99,-197.78"/>
</a>
</g>
</g>
<!-- Node11&#45;&gt;Node6 -->
<g id="edge12_Node000011_Node000006" class="edge">
<title>Node11&#45;&gt;Node6</title>
<g id="a_edge12_Node000011_Node000006"><a xlink:title=" ">
<path fill="none" stroke="#63b8ff" d="M477.63,-208.42C494.96,-214.98 514.72,-222.46 531.43,-228.78"/>
<polygon fill="#63b8ff" stroke="#63b8ff" points="529.79,-232.28 540.39,-232.55 532.27,-225.74 529.79,-232.28"/>
</a>
</g>
</g>
<!-- Node13 -->
<g id="Node000013" class="node">
<title>Node13</title>
<g id="a_Node000013"><a xlink:href="group__elements.html#a99ff90a016db190ee8bb5ee8c045e329" target="_top" xlink:title=" ">
<polygon fill="white" stroke="#666666" points="483.62,-158 382.88,-158 382.88,-138 483.62,-138 483.62,-158"/>
<text text-anchor="middle" x="433.25" y="-146.4" font-family="SourceSans" font-size="8.00">svg::element_base::str</text>
</a>
</g>
</g>
<!-- Node12&#45;&gt;Node13 -->
<g id="edge16_Node000012_Node000013" class="edge">
<title>Node12&#45;&gt;Node13</title>
<g id="a_edge16_Node000012_Node000013"><a xlink:title=" ">
<path fill="none" stroke="#63b8ff" d="M345.34,-151.82C354.02,-151.44 363.13,-151.04 372.05,-150.64"/>
<polygon fill="#63b8ff" stroke="#63b8ff" points="371.97,-154.11 381.8,-150.17 371.66,-147.11 371.97,-154.11"/>
</a>
</g>
</g>
<!-- Node15 -->
<g id="Node000015" class="node">
<title>Node15</title>
<g id="a_Node000015"><a xlink:href="namespacesvg_1_1constants.html#aa7f04c2ea699a1b1e2e790de5ac33f38" target="_top" xlink:title=" ">
<polygon fill="white" stroke="#666666" points="485.5,-114 381,-114 381,-94 485.5,-94 485.5,-114"/>
<text text-anchor="middle" x="433.25" y="-102.4" font-family="SourceSans" font-size="8.00">svg::constants::newline</text>
</a>
</g>
</g>
<!-- Node14&#45;&gt;Node15 -->
<g id="edge18_Node000014_Node000015" class="edge">
<title>Node14&#45;&gt;Node15</title>
<g id="a_edge18_Node000014_Node000015"><a xlink:title=" ">
<path fill="none" stroke="#63b8ff" d="M338.85,-104C348.72,-104 359.39,-104 369.88,-104"/>
<polygon fill="#63b8ff" stroke="#63b8ff" points="369.7,-107.5 379.7,-104 369.7,-100.5 369.7,-107.5"/>
</a>
</g>
</g>
</g>
</svg>
