<?xml version="1.0" encoding="UTF-8" standalone="no"?>
<!DOCTYPE svg PUBLIC "-//W3C//DTD SVG 1.1//EN"
 "http://www.w3.org/Graphics/SVG/1.1/DTD/svg11.dtd">
<!-- Generated by graphviz version 8.1.0 (20230707.0739)
 -->
<!-- Title: svg::radial_gradient Pages: 1 -->
<svg width="137pt" height="196pt"
 viewBox="0.00 0.00 137.25 196.00" xmlns="http://www.w3.org/2000/svg" xmlns:xlink="http://www.w3.org/1999/xlink">

<svg id="main" version="1.1" xmlns="http://www.w3.org/2000/svg" xmlns:xlink="http://www.w3.org/1999/xlink" xml:space="preserve" onload="init(evt)">
<style type="text/css"><![CDATA[
.node, .edge {opacity: 0.7;}
.node.selected, .edge.selected {opacity: 1;}
.edge:hover path { stroke: red; }
.edge:hover polygon { stroke: red; fill: red; }
]]></style>
<script type="application/ecmascript" xlink:href="svg.min.js"/>
<svg id="graph" class="graph">
<g id="graph0" class="graph" transform="scale(1 1) rotate(0) translate(4 192)">
<title>svg::radial_gradient</title>
<!-- Node1 -->
<g id="Node000001" class="node">
<title>Node1</title>
<g id="a_Node000001"><a xlink:title="Circular gradients https://developer.mozilla.org/en&#45;US/docs/Web/SVG/Element/radialGradient.">
<polygon fill="#999999" stroke="#666666" points="96.62,-20 4.88,-20 4.88,0 96.62,0 96.62,-20"/>
<text text-anchor="middle" x="50.75" y="-8.4" font-family="SourceSans" font-size="8.00">svg::radial_gradient</text>
</a>
</g>
</g>
<!-- Node2 -->
<g id="Node000002" class="node">
<title>Node2</title>
<g id="a_Node000002"><a xlink:href="group__elements.html#structsvg_1_1gradient__element" target="_top" xlink:title=" ">
<polygon fill="white" stroke="#666666" points="101.5,-76 0,-76 0,-56 101.5,-56 101.5,-76"/>
<text text-anchor="middle" x="50.75" y="-64.4" font-family="SourceSans" font-size="8.00">svg::gradient_element</text>
</a>
</g>
</g>
<!-- Node2&#45;&gt;Node1 -->
<g id="edge1_Node000001_Node000002" class="edge">
<title>Node2&#45;&gt;Node1</title>
<g id="a_edge1_Node000001_Node000002"><a xlink:title=" ">
<path fill="none" stroke="#63b8ff" d="M50.75,-44.71C50.75,-36.32 50.75,-27.01 50.75,-20.3"/>
<polygon fill="#63b8ff" stroke="#63b8ff" points="47.25,-44.59 50.75,-54.59 54.25,-44.59 47.25,-44.59"/>
</a>
</g>
</g>
<!-- Node3 -->
<g id="Node000003" class="node">
<title>Node3</title>
<g id="a_Node000003"><a xlink:href="group__elements.html#structsvg_1_1element__base" target="_top" xlink:title="Abstract base class for all SVG Elements.">
<polygon fill="white" stroke="#666666" points="94,-188 7.5,-188 7.5,-168 94,-168 94,-188"/>
<text text-anchor="middle" x="50.75" y="-176.4" font-family="SourceSans" font-size="8.00">svg::element_base</text>
</a>
</g>
</g>
<!-- Node3&#45;&gt;Node2 -->
<g id="edge2_Node000002_Node000003" class="edge">
<title>Node3&#45;&gt;Node2</title>
<g id="a_edge2_Node000002_Node000003"><a xlink:title=" ">
<path fill="none" stroke="#63b8ff" d="M42.25,-157.68C39.25,-149.87 36.24,-140.66 34.75,-132 31.27,-111.84 40.14,-88.68 46.02,-76.17"/>
<polygon fill="#63b8ff" stroke="#63b8ff" points="39.29,-158.69 46.34,-166.6 45.76,-156.02 39.29,-158.69"/>
</a>
</g>
</g>
<!-- Node4 -->
<g id="Node000004" class="node">
<title>Node4</title>
<g id="a_Node000004"><a xlink:href="group__elements.html#structsvg_1_1defs__element" target="_top" xlink:title=" ">
<polygon fill="white" stroke="#666666" points="129.25,-132 44.25,-132 44.25,-112 129.25,-112 129.25,-132"/>
<text text-anchor="middle" x="86.75" y="-120.4" font-family="SourceSans" font-size="8.00">svg::defs_element</text>
</a>
</g>
</g>
<!-- Node3&#45;&gt;Node4 -->
<g id="edge4_Node000004_Node000003" class="edge">
<title>Node3&#45;&gt;Node4</title>
<g id="a_edge4_Node000004_Node000003"><a xlink:title=" ">
<path fill="none" stroke="#63b8ff" d="M62.94,-158.72C68.86,-149.84 75.72,-139.55 80.55,-132.3"/>
<polygon fill="#63b8ff" stroke="#63b8ff" points="59.66,-156.33 57.02,-166.59 65.48,-160.21 59.66,-156.33"/>
</a>
</g>
</g>
<!-- Node4&#45;&gt;Node2 -->
<g id="edge3_Node000002_Node000004" class="edge">
<title>Node4&#45;&gt;Node2</title>
<g id="a_edge3_Node000002_Node000004"><a xlink:title=" ">
<path fill="none" stroke="#63b8ff" d="M74.56,-102.72C68.64,-93.84 61.78,-83.55 56.95,-76.3"/>
<polygon fill="#63b8ff" stroke="#63b8ff" points="72.02,-104.21 80.48,-110.59 77.84,-100.33 72.02,-104.21"/>
</a>
</g>
</g>
</g>
</svg>
</svg>

<style type='text/css'>
<![CDATA[
[data-mouse-over-selected='false'] { opacity: 0.7; }
[data-mouse-over-selected='true']  { opacity: 1.0; }
]]>
</style>
<script type="application/ecmascript"><![CDATA[
document.addEventListener('DOMContentLoaded', (event) => {
  highlightEdges();
  highlightAdjacentNodes();
});
]]></script>
</svg>
