<?xml version="1.0" encoding="UTF-8" standalone="no"?>
<!DOCTYPE svg PUBLIC "-//W3C//DTD SVG 1.1//EN"
 "http://www.w3.org/Graphics/SVG/1.1/DTD/svg11.dtd">
<!-- Generated by graphviz version 2.44.0 (0)
 -->
<!-- Title: svg::make_path_arc_closed Pages: 1 -->
<svg width="404pt" height="148pt"
 viewBox="0.00 0.00 404.00 147.50" xmlns="http://www.w3.org/2000/svg" xmlns:xlink="http://www.w3.org/1999/xlink">
<g id="graph0" class="graph" transform="scale(1 1) rotate(0) translate(4 143.5)">
<title>svg::make_path_arc_closed</title>
<polygon fill="white" stroke="transparent" points="-4,4 -4,-143.5 400,-143.5 400,4 -4,4"/>
<!-- Node1 -->
<g id="node1" class="node">
<title>Node1</title>
<g id="a_node1"><a xlink:title="Same but with degree range arguments instead of points. NB: Assumes appropriate zero_angle_north_cw/c...">
<polygon fill="#bfbfbf" stroke="black" points="0,-51 0,-77 98,-77 98,-51 0,-51"/>
<text text-anchor="start" x="8" y="-66.6" font-family="SourceSans" font-size="8.00">svg::make_path_arc</text>
<text text-anchor="middle" x="49" y="-57.6" font-family="SourceSans" font-size="8.00">_closed</text>
</a>
</g>
</g>
<!-- Node2 -->
<g id="node2" class="node">
<title>Node2</title>
<g id="a_node2"><a xlink:href="namespacesvg.html#ab44508c4aeca591141ebec50145b75cd" target="_top" xlink:title="Angle in degrees.">
<polygon fill="white" stroke="black" points="134,-74 134,-100 247,-100 247,-74 134,-74"/>
<text text-anchor="start" x="142" y="-89.6" font-family="SourceSans" font-size="8.00">svg::get_circumference</text>
<text text-anchor="middle" x="190.5" y="-80.6" font-family="SourceSans" font-size="8.00">_point_d</text>
</a>
</g>
</g>
<!-- Node1&#45;&gt;Node2 -->
<g id="edge1" class="edge">
<title>Node1&#45;&gt;Node2</title>
<path fill="none" stroke="midnightblue" d="M98.01,-71.92C106.28,-73.28 115,-74.72 123.65,-76.14"/>
<polygon fill="midnightblue" stroke="midnightblue" points="123.29,-79.63 133.72,-77.8 124.43,-72.72 123.29,-79.63"/>
</g>
<!-- Node5 -->
<g id="node5" class="node">
<title>Node5</title>
<g id="a_node5"><a xlink:href="namespacesvg.html#ad89cb17964e212907fe9f26d4f203b88" target="_top" xlink:title="Make closed path between two points and the center of a circle of radius r. Points like: get_circumfe...">
<polygon fill="white" stroke="black" points="141.5,-29 141.5,-55 239.5,-55 239.5,-29 141.5,-29"/>
<text text-anchor="start" x="149.5" y="-44.6" font-family="SourceSans" font-size="8.00">svg::make_path_arc</text>
<text text-anchor="middle" x="190.5" y="-35.6" font-family="SourceSans" font-size="8.00">_closed</text>
</a>
</g>
</g>
<!-- Node1&#45;&gt;Node5 -->
<g id="edge4" class="edge">
<title>Node1&#45;&gt;Node5</title>
<path fill="none" stroke="midnightblue" d="M98.01,-56.43C108.75,-54.73 120.25,-52.92 131.36,-51.17"/>
<polygon fill="midnightblue" stroke="midnightblue" points="132.07,-54.6 141.4,-49.59 130.98,-47.69 132.07,-54.6"/>
</g>
<!-- Node3 -->
<g id="node3" class="node">
<title>Node3</title>
<g id="a_node3"><a xlink:href="namespacesvg.html#a85a18af2008e9709e4d641ef4bda04e7" target="_top" xlink:title="Angle in radians.">
<polygon fill="white" stroke="black" points="283,-113 283,-139 396,-139 396,-113 283,-113"/>
<text text-anchor="start" x="291" y="-128.6" font-family="SourceSans" font-size="8.00">svg::get_circumference</text>
<text text-anchor="middle" x="339.5" y="-119.6" font-family="SourceSans" font-size="8.00">_point</text>
</a>
</g>
</g>
<!-- Node2&#45;&gt;Node3 -->
<g id="edge2" class="edge">
<title>Node2&#45;&gt;Node3</title>
<path fill="none" stroke="midnightblue" d="M240.86,-100.09C253.29,-103.39 266.75,-106.96 279.6,-110.37"/>
<polygon fill="midnightblue" stroke="midnightblue" points="278.71,-113.76 289.27,-112.94 280.5,-106.99 278.71,-113.76"/>
</g>
<!-- Node4 -->
<g id="node4" class="node">
<title>Node4</title>
<g id="a_node4"><a xlink:href="namespacesvg_1_1constants.html#a0e0b0d9314bc47324ee39884bf8bb2fd" target="_top" xlink:title=" ">
<polygon fill="white" stroke="black" points="294,-76.5 294,-93.5 385,-93.5 385,-76.5 294,-76.5"/>
<text text-anchor="middle" x="339.5" y="-83.1" font-family="SourceSans" font-size="8.00">svg::constants::pi</text>
</a>
</g>
</g>
<!-- Node2&#45;&gt;Node4 -->
<g id="edge3" class="edge">
<title>Node2&#45;&gt;Node4</title>
<path fill="none" stroke="midnightblue" d="M247.07,-86.24C259.02,-86.08 271.64,-85.91 283.57,-85.75"/>
<polygon fill="midnightblue" stroke="midnightblue" points="283.88,-89.24 293.83,-85.61 283.78,-82.24 283.88,-89.24"/>
</g>
<!-- Node6 -->
<g id="node6" class="node">
<title>Node6</title>
<g id="a_node6"><a xlink:href="namespacesvg_1_1constants.html#ac460bc8db60d85c3ae1cf8b1a903405e" target="_top" xlink:title="Formatting character constants.">
<polygon fill="white" stroke="black" points="285.5,-36.5 285.5,-53.5 393.5,-53.5 393.5,-36.5 285.5,-36.5"/>
<text text-anchor="middle" x="339.5" y="-43.1" font-family="SourceSans" font-size="8.00">svg::constants::space</text>
</a>
</g>
</g>
<!-- Node5&#45;&gt;Node6 -->
<g id="edge5" class="edge">
<title>Node5&#45;&gt;Node6</title>
<path fill="none" stroke="midnightblue" d="M239.63,-42.98C250.97,-43.21 263.22,-43.46 275.11,-43.71"/>
<polygon fill="midnightblue" stroke="midnightblue" points="275.36,-47.21 285.43,-43.92 275.51,-40.21 275.36,-47.21"/>
</g>
<!-- Node7 -->
<g id="node7" class="node">
<title>Node7</title>
<g id="a_node7"><a xlink:href="namespacesvg.html#a36b1c48ad4601b205790e3772ad0a7b6" target="_top" xlink:title=" ">
<polygon fill="white" stroke="black" points="303.5,-0.5 303.5,-17.5 375.5,-17.5 375.5,-0.5 303.5,-0.5"/>
<text text-anchor="middle" x="339.5" y="-7.1" font-family="SourceSans" font-size="8.00">svg::to_string</text>
</a>
</g>
</g>
<!-- Node5&#45;&gt;Node7 -->
<g id="edge6" class="edge">
<title>Node5&#45;&gt;Node7</title>
<path fill="none" stroke="midnightblue" d="M239.63,-31.19C256.83,-27.33 276.14,-23 293.1,-19.19"/>
<polygon fill="midnightblue" stroke="midnightblue" points="294.32,-22.5 303.31,-16.9 292.79,-15.67 294.32,-22.5"/>
</g>
</g>
</svg>
