<?xml version="1.0" encoding="UTF-8" standalone="no"?>
<!DOCTYPE svg PUBLIC "-//W3C//DTD SVG 1.1//EN"
 "http://www.w3.org/Graphics/SVG/1.1/DTD/svg11.dtd">
<!-- Generated by graphviz version 2.44.0 (0)
 -->
<!-- Title: /home/bkoz/src/izzi/src/a60&#45;svg&#45;sequences.h Pages: 1 -->
<svg width="1364pt" height="197pt"
 viewBox="0.00 0.00 1364.34 197.00" xmlns="http://www.w3.org/2000/svg" xmlns:xlink="http://www.w3.org/1999/xlink">
<g id="graph0" class="graph" transform="scale(1 1) rotate(0) translate(4 193)">
<title>/home/bkoz/src/izzi/src/a60&#45;svg&#45;sequences.h</title>
<polygon fill="white" stroke="transparent" points="-4,4 -4,-193 1360.34,-193 1360.34,4 -4,4"/>
<!-- Node1 -->
<g id="node1" class="node">
<title>Node1</title>
<g id="a_node1"><a xlink:title=" ">
<polygon fill="#bfbfbf" stroke="black" points="355.84,-162.5 355.84,-188.5 478.84,-188.5 478.84,-162.5 355.84,-162.5"/>
<text text-anchor="start" x="363.84" y="-178.1" font-family="SourceSans" font-size="8.00">/home/bkoz/src/izzi</text>
<text text-anchor="middle" x="417.34" y="-169.1" font-family="SourceSans" font-size="8.00">/src/a60&#45;svg&#45;sequences.h</text>
</a>
</g>
</g>
<!-- Node2 -->
<g id="node2" class="node">
<title>Node2</title>
<g id="a_node2"><a xlink:title=" ">
<polygon fill="white" stroke="#bfbfbf" points="40.84,-54.5 40.84,-71.5 89.84,-71.5 89.84,-54.5 40.84,-54.5"/>
<text text-anchor="middle" x="65.34" y="-61.1" font-family="SourceSans" font-size="8.00">sstream</text>
</a>
</g>
</g>
<!-- Node1&#45;&gt;Node2 -->
<g id="edge1" class="edge">
<title>Node1&#45;&gt;Node2</title>
<path fill="none" stroke="midnightblue" d="M370.67,-162.47C335.27,-153.13 285.51,-139.53 242.34,-126 190.03,-109.61 129.96,-87.96 94.97,-75.06"/>
<polygon fill="midnightblue" stroke="midnightblue" points="95.96,-71.69 85.37,-71.51 93.54,-78.26 95.96,-71.69"/>
</g>
<!-- Node3 -->
<g id="node3" class="node">
<title>Node3</title>
<g id="a_node3"><a xlink:title=" ">
<polygon fill="white" stroke="#bfbfbf" points="1163.84,-0.5 1163.84,-17.5 1210.84,-17.5 1210.84,-0.5 1163.84,-0.5"/>
<text text-anchor="middle" x="1187.34" y="-7.1" font-family="SourceSans" font-size="8.00">fstream</text>
</a>
</g>
</g>
<!-- Node1&#45;&gt;Node3 -->
<g id="edge2" class="edge">
<title>Node1&#45;&gt;Node3</title>
<path fill="none" stroke="midnightblue" d="M479.11,-171.06C656.12,-160.57 1155.62,-126.35 1203.34,-72 1214.43,-59.38 1206.85,-40.05 1198.78,-26.33"/>
<polygon fill="midnightblue" stroke="midnightblue" points="1201.7,-24.4 1193.34,-17.89 1195.81,-28.19 1201.7,-24.4"/>
</g>
<!-- Node4 -->
<g id="node4" class="node">
<title>Node4</title>
<g id="a_node4"><a xlink:title=" ">
<polygon fill="white" stroke="#bfbfbf" points="154.34,-0.5 154.34,-17.5 194.34,-17.5 194.34,-0.5 154.34,-0.5"/>
<text text-anchor="middle" x="174.34" y="-7.1" font-family="SourceSans" font-size="8.00">string</text>
</a>
</g>
</g>
<!-- Node1&#45;&gt;Node4 -->
<g id="edge3" class="edge">
<title>Node1&#45;&gt;Node4</title>
<path fill="none" stroke="midnightblue" d="M355.8,-171.5C248.76,-165.64 37.52,-151.02 15.34,-126 -5.89,-102.06 -4.03,-79.47 15.34,-54 30.86,-33.61 102.36,-20.23 144,-14.02"/>
<polygon fill="midnightblue" stroke="midnightblue" points="144.74,-17.45 154.14,-12.56 143.75,-10.52 144.74,-17.45"/>
</g>
<!-- Node5 -->
<g id="node5" class="node">
<title>Node5</title>
<g id="a_node5"><a xlink:title=" ">
<polygon fill="white" stroke="#bfbfbf" points="108.34,-54.5 108.34,-71.5 146.34,-71.5 146.34,-54.5 108.34,-54.5"/>
<text text-anchor="middle" x="127.34" y="-61.1" font-family="SourceSans" font-size="8.00">tuple</text>
</a>
</g>
</g>
<!-- Node1&#45;&gt;Node5 -->
<g id="edge4" class="edge">
<title>Node1&#45;&gt;Node5</title>
<path fill="none" stroke="midnightblue" d="M385.76,-162.46C328.96,-140.82 210.43,-95.66 155.91,-74.88"/>
<polygon fill="midnightblue" stroke="midnightblue" points="157.09,-71.59 146.5,-71.3 154.6,-78.13 157.09,-71.59"/>
</g>
<!-- Node6 -->
<g id="node6" class="node">
<title>Node6</title>
<g id="a_node6"><a xlink:title=" ">
<polygon fill="white" stroke="#bfbfbf" points="1250.34,-108.5 1250.34,-125.5 1288.34,-125.5 1288.34,-108.5 1250.34,-108.5"/>
<text text-anchor="middle" x="1269.34" y="-115.1" font-family="SourceSans" font-size="8.00">array</text>
</a>
</g>
</g>
<!-- Node1&#45;&gt;Node6 -->
<g id="edge5" class="edge">
<title>Node1&#45;&gt;Node6</title>
<path fill="none" stroke="midnightblue" d="M478.86,-174.6C615.76,-174 955.66,-167.99 1236.34,-126 1237.62,-125.81 1238.92,-125.59 1240.24,-125.35"/>
<polygon fill="midnightblue" stroke="midnightblue" points="1241.2,-128.73 1250.26,-123.24 1239.76,-121.88 1241.2,-128.73"/>
</g>
<!-- Node7 -->
<g id="node7" class="node">
<title>Node7</title>
<g id="a_node7"><a xlink:title=" ">
<polygon fill="white" stroke="#bfbfbf" points="509.34,-0.5 509.34,-17.5 557.34,-17.5 557.34,-0.5 509.34,-0.5"/>
<text text-anchor="middle" x="533.34" y="-7.1" font-family="SourceSans" font-size="8.00">random</text>
</a>
</g>
</g>
<!-- Node1&#45;&gt;Node7 -->
<g id="edge6" class="edge">
<title>Node1&#45;&gt;Node7</title>
<path fill="none" stroke="midnightblue" d="M355.41,-174.57C224,-172.76 -63.27,-157.27 31.34,-54 62.91,-19.55 391.39,-11.95 499.24,-10.39"/>
<polygon fill="midnightblue" stroke="midnightblue" points="499.31,-13.89 509.27,-10.25 499.22,-6.89 499.31,-13.89"/>
</g>
<!-- Node8 -->
<g id="node8" class="node">
<title>Node8</title>
<g id="a_node8"><a xlink:title=" ">
<polygon fill="white" stroke="#bfbfbf" points="1306.34,-108.5 1306.34,-125.5 1356.34,-125.5 1356.34,-108.5 1306.34,-108.5"/>
<text text-anchor="middle" x="1331.34" y="-115.1" font-family="SourceSans" font-size="8.00">unistd.h</text>
</a>
</g>
</g>
<!-- Node1&#45;&gt;Node8 -->
<g id="edge7" class="edge">
<title>Node1&#45;&gt;Node8</title>
<path fill="none" stroke="midnightblue" d="M479.06,-174.82C621.58,-174.75 984.65,-170.01 1296.06,-125.89"/>
<polygon fill="midnightblue" stroke="midnightblue" points="1296.78,-129.32 1306.19,-124.44 1295.79,-122.39 1296.78,-129.32"/>
</g>
<!-- Node9 -->
<g id="node9" class="node">
<title>Node9</title>
<g id="a_node9"><a xlink:href="a60-svg_8h.html" target="_top" xlink:title=" ">
<polygon fill="white" stroke="black" points="485.84,-108.5 485.84,-125.5 542.84,-125.5 542.84,-108.5 485.84,-108.5"/>
<text text-anchor="middle" x="514.34" y="-115.1" font-family="SourceSans" font-size="8.00">a60&#45;svg.h</text>
</a>
</g>
</g>
<!-- Node1&#45;&gt;Node9 -->
<g id="edge8" class="edge">
<title>Node1&#45;&gt;Node9</title>
<path fill="none" stroke="midnightblue" d="M438.39,-162.24C454.41,-152.91 476.4,-140.1 492.59,-130.67"/>
<polygon fill="midnightblue" stroke="midnightblue" points="494.49,-133.62 501.37,-125.56 490.97,-127.57 494.49,-133.62"/>
</g>
<!-- Node9&#45;&gt;Node2 -->
<g id="edge13" class="edge">
<title>Node9&#45;&gt;Node2</title>
<path fill="none" stroke="midnightblue" d="M485.75,-114.21C419.62,-109.81 250.91,-97.06 100.06,-71.89"/>
<polygon fill="midnightblue" stroke="midnightblue" points="100.6,-68.43 90.15,-70.22 99.43,-75.34 100.6,-68.43"/>
</g>
<!-- Node9&#45;&gt;Node4 -->
<g id="edge10" class="edge">
<title>Node9&#45;&gt;Node4</title>
<path fill="none" stroke="midnightblue" d="M485.66,-115.9C415.37,-115.06 237.1,-109.22 193.34,-72 180.62,-61.18 176.26,-42.08 174.85,-27.93"/>
<polygon fill="midnightblue" stroke="midnightblue" points="178.34,-27.67 174.24,-17.9 171.35,-28.09 178.34,-27.67"/>
</g>
<!-- Node9&#45;&gt;Node5 -->
<g id="edge12" class="edge">
<title>Node9&#45;&gt;Node5</title>
<path fill="none" stroke="midnightblue" d="M485.73,-113.56C425.29,-108.17 280.36,-93.93 160.34,-72 159.07,-71.77 157.77,-71.52 156.47,-71.25"/>
<polygon fill="midnightblue" stroke="midnightblue" points="156.98,-67.78 146.46,-69.03 155.46,-74.61 156.98,-67.78"/>
</g>
<!-- Node10 -->
<g id="node10" class="node">
<title>Node10</title>
<g id="a_node10"><a xlink:title=" ">
<polygon fill="white" stroke="#bfbfbf" points="1092.34,-54.5 1092.34,-71.5 1134.34,-71.5 1134.34,-54.5 1092.34,-54.5"/>
<text text-anchor="middle" x="1113.34" y="-61.1" font-family="SourceSans" font-size="8.00">cmath</text>
</a>
</g>
</g>
<!-- Node9&#45;&gt;Node10 -->
<g id="edge9" class="edge">
<title>Node9&#45;&gt;Node10</title>
<path fill="none" stroke="midnightblue" d="M542.99,-115.64C625.44,-114.2 870.42,-107.2 1082.09,-71.87"/>
<polygon fill="midnightblue" stroke="midnightblue" points="1082.87,-75.29 1092.14,-70.17 1081.7,-68.39 1082.87,-75.29"/>
</g>
<!-- Node11 -->
<g id="node11" class="node">
<title>Node11</title>
<g id="a_node11"><a xlink:title=" ">
<polygon fill="white" stroke="#bfbfbf" points="1152.34,-54.5 1152.34,-71.5 1194.34,-71.5 1194.34,-54.5 1152.34,-54.5"/>
<text text-anchor="middle" x="1173.34" y="-61.1" font-family="SourceSans" font-size="8.00">vector</text>
</a>
</g>
</g>
<!-- Node9&#45;&gt;Node11 -->
<g id="edge11" class="edge">
<title>Node9&#45;&gt;Node11</title>
<path fill="none" stroke="midnightblue" d="M543.1,-115.93C631.36,-115.32 906.23,-110.36 1142.01,-71.87"/>
<polygon fill="midnightblue" stroke="midnightblue" points="1142.85,-75.28 1152.15,-70.19 1141.71,-68.37 1142.85,-75.28"/>
</g>
<!-- Node12 -->
<g id="node12" class="node">
<title>Node12</title>
<g id="a_node12"><a xlink:href="a60-svg-color_8h.html" target="_top" xlink:title=" ">
<polygon fill="white" stroke="black" points="870.34,-54.5 870.34,-71.5 950.34,-71.5 950.34,-54.5 870.34,-54.5"/>
<text text-anchor="middle" x="910.34" y="-61.1" font-family="SourceSans" font-size="8.00">a60&#45;svg&#45;color.h</text>
</a>
</g>
</g>
<!-- Node9&#45;&gt;Node12 -->
<g id="edge14" class="edge">
<title>Node9&#45;&gt;Node12</title>
<path fill="none" stroke="midnightblue" d="M543.18,-112.7C601.15,-105.98 736.18,-89.95 860.2,-72.12"/>
<polygon fill="midnightblue" stroke="midnightblue" points="860.85,-75.56 870.25,-70.67 859.85,-68.63 860.85,-75.56"/>
</g>
<!-- Node15 -->
<g id="node15" class="node">
<title>Node15</title>
<g id="a_node15"><a xlink:href="a60-svg-base-types_8h.html" target="_top" xlink:title=" ">
<polygon fill="white" stroke="black" points="968.34,-54.5 968.34,-71.5 1074.34,-71.5 1074.34,-54.5 968.34,-54.5"/>
<text text-anchor="middle" x="1021.34" y="-61.1" font-family="SourceSans" font-size="8.00">a60&#45;svg&#45;base&#45;types.h</text>
</a>
</g>
</g>
<!-- Node9&#45;&gt;Node15 -->
<g id="edge19" class="edge">
<title>Node9&#45;&gt;Node15</title>
<path fill="none" stroke="midnightblue" d="M543.01,-113.46C612.31,-107.27 794.69,-90.59 958.02,-72.12"/>
<polygon fill="midnightblue" stroke="midnightblue" points="958.71,-75.56 968.26,-70.96 957.92,-68.61 958.71,-75.56"/>
</g>
<!-- Node18 -->
<g id="node18" class="node">
<title>Node18</title>
<g id="a_node18"><a xlink:href="a60-svg-constants_8h.html" target="_top" xlink:title=" ">
<polygon fill="white" stroke="black" points="202.84,-54.5 202.84,-71.5 303.84,-71.5 303.84,-54.5 202.84,-54.5"/>
<text text-anchor="middle" x="253.34" y="-61.1" font-family="SourceSans" font-size="8.00">a60&#45;svg&#45;constants.h</text>
</a>
</g>
</g>
<!-- Node9&#45;&gt;Node18 -->
<g id="edge24" class="edge">
<title>Node9&#45;&gt;Node18</title>
<path fill="none" stroke="midnightblue" d="M485.66,-110.29C441.25,-101.44 355.34,-84.32 301.35,-73.56"/>
<polygon fill="midnightblue" stroke="midnightblue" points="301.82,-70.09 291.33,-71.57 300.45,-76.95 301.82,-70.09"/>
</g>
<!-- Node19 -->
<g id="node19" class="node">
<title>Node19</title>
<g id="a_node19"><a xlink:href="a60-svg-elements_8h.html" target="_top" xlink:title=" ">
<polygon fill="white" stroke="black" points="322.34,-54.5 322.34,-71.5 420.34,-71.5 420.34,-54.5 322.34,-54.5"/>
<text text-anchor="middle" x="371.34" y="-61.1" font-family="SourceSans" font-size="8.00">a60&#45;svg&#45;elements.h</text>
</a>
</g>
</g>
<!-- Node9&#45;&gt;Node19 -->
<g id="edge25" class="edge">
<title>Node9&#45;&gt;Node19</title>
<path fill="none" stroke="midnightblue" d="M493.55,-108.44C469.4,-99.66 429.36,-85.1 401.73,-75.05"/>
<polygon fill="midnightblue" stroke="midnightblue" points="402.76,-71.7 392.16,-71.57 400.36,-78.28 402.76,-71.7"/>
</g>
<!-- Node20 -->
<g id="node20" class="node">
<title>Node20</title>
<g id="a_node20"><a xlink:href="a60-svg-elements-components_8h.html" target="_top" xlink:title=" ">
<polygon fill="white" stroke="black" points="438.34,-54.5 438.34,-71.5 590.34,-71.5 590.34,-54.5 438.34,-54.5"/>
<text text-anchor="middle" x="514.34" y="-61.1" font-family="SourceSans" font-size="8.00">a60&#45;svg&#45;elements&#45;components.h</text>
</a>
</g>
</g>
<!-- Node9&#45;&gt;Node20 -->
<g id="edge26" class="edge">
<title>Node9&#45;&gt;Node20</title>
<path fill="none" stroke="midnightblue" d="M514.34,-108.33C514.34,-101.41 514.34,-90.98 514.34,-81.98"/>
<polygon fill="midnightblue" stroke="midnightblue" points="517.84,-81.7 514.34,-71.7 510.84,-81.7 517.84,-81.7"/>
</g>
<!-- Node21 -->
<g id="node21" class="node">
<title>Node21</title>
<g id="a_node21"><a xlink:href="a60-svg-render-state_8h.html" target="_top" xlink:title=" ">
<polygon fill="white" stroke="black" points="608.34,-54.5 608.34,-71.5 718.34,-71.5 718.34,-54.5 608.34,-54.5"/>
<text text-anchor="middle" x="663.34" y="-61.1" font-family="SourceSans" font-size="8.00">a60&#45;svg&#45;render&#45;state.h</text>
</a>
</g>
</g>
<!-- Node9&#45;&gt;Node21 -->
<g id="edge27" class="edge">
<title>Node9&#45;&gt;Node21</title>
<path fill="none" stroke="midnightblue" d="M536.01,-108.44C561.28,-99.62 603.26,-84.97 632.06,-74.92"/>
<polygon fill="midnightblue" stroke="midnightblue" points="633.36,-78.17 641.65,-71.57 631.06,-71.56 633.36,-78.17"/>
</g>
<!-- Node22 -->
<g id="node22" class="node">
<title>Node22</title>
<g id="a_node22"><a xlink:href="a60-svg-render-basics_8h.html" target="_top" xlink:title=" ">
<polygon fill="white" stroke="black" points="736.34,-54.5 736.34,-71.5 852.34,-71.5 852.34,-54.5 736.34,-54.5"/>
<text text-anchor="middle" x="794.34" y="-61.1" font-family="SourceSans" font-size="8.00">a60&#45;svg&#45;render&#45;basics.h</text>
</a>
</g>
</g>
<!-- Node9&#45;&gt;Node22 -->
<g id="edge28" class="edge">
<title>Node9&#45;&gt;Node22</title>
<path fill="none" stroke="midnightblue" d="M542.99,-110.68C590.2,-101.91 684.93,-84.32 743.66,-73.41"/>
<polygon fill="midnightblue" stroke="midnightblue" points="744.63,-76.79 753.83,-71.52 743.36,-69.91 744.63,-76.79"/>
</g>
<!-- Node12&#45;&gt;Node4 -->
<g id="edge15" class="edge">
<title>Node12&#45;&gt;Node4</title>
<path fill="none" stroke="midnightblue" d="M870.28,-55.13C867.26,-54.71 864.25,-54.33 861.34,-54 608.35,-25.32 300.66,-13.9 204.52,-10.88"/>
<polygon fill="midnightblue" stroke="midnightblue" points="204.46,-7.37 194.36,-10.57 204.25,-14.37 204.46,-7.37"/>
</g>
<!-- Node12&#45;&gt;Node7 -->
<g id="edge18" class="edge">
<title>Node12&#45;&gt;Node7</title>
<path fill="none" stroke="midnightblue" d="M870.25,-55.36C867.23,-54.89 864.24,-54.43 861.34,-54 754.39,-38.1 627.42,-21.8 567.67,-14.28"/>
<polygon fill="midnightblue" stroke="midnightblue" points="568.01,-10.79 557.65,-13.02 567.14,-17.74 568.01,-10.79"/>
</g>
<!-- Node13 -->
<g id="node13" class="node">
<title>Node13</title>
<g id="a_node13"><a xlink:title=" ">
<polygon fill="white" stroke="#bfbfbf" points="945.84,-0.5 945.84,-17.5 980.84,-17.5 980.84,-0.5 945.84,-0.5"/>
<text text-anchor="middle" x="963.34" y="-7.1" font-family="SourceSans" font-size="8.00">map</text>
</a>
</g>
</g>
<!-- Node12&#45;&gt;Node13 -->
<g id="edge16" class="edge">
<title>Node12&#45;&gt;Node13</title>
<path fill="none" stroke="midnightblue" d="M918.16,-54.33C926.07,-46.57 938.49,-34.38 948.31,-24.75"/>
<polygon fill="midnightblue" stroke="midnightblue" points="950.8,-27.21 955.49,-17.7 945.9,-22.21 950.8,-27.21"/>
</g>
<!-- Node14 -->
<g id="node14" class="node">
<title>Node14</title>
<g id="a_node14"><a xlink:title=" ">
<polygon fill="white" stroke="#bfbfbf" points="871.34,-0.5 871.34,-17.5 927.34,-17.5 927.34,-0.5 871.34,-0.5"/>
<text text-anchor="middle" x="899.34" y="-7.1" font-family="SourceSans" font-size="8.00">algorithm</text>
</a>
</g>
</g>
<!-- Node12&#45;&gt;Node14 -->
<g id="edge17" class="edge">
<title>Node12&#45;&gt;Node14</title>
<path fill="none" stroke="midnightblue" d="M908.72,-54.33C907.24,-47.34 905,-36.75 903.08,-27.68"/>
<polygon fill="midnightblue" stroke="midnightblue" points="906.47,-26.76 900.97,-17.7 899.62,-28.21 906.47,-26.76"/>
</g>
<!-- Node15&#45;&gt;Node3 -->
<g id="edge22" class="edge">
<title>Node15&#45;&gt;Node3</title>
<path fill="none" stroke="midnightblue" d="M1045.48,-54.44C1074.04,-45.49 1121.76,-30.54 1153.88,-20.48"/>
<polygon fill="midnightblue" stroke="midnightblue" points="1155.22,-23.73 1163.71,-17.4 1153.12,-17.05 1155.22,-23.73"/>
</g>
<!-- Node15&#45;&gt;Node13 -->
<g id="edge20" class="edge">
<title>Node15&#45;&gt;Node13</title>
<path fill="none" stroke="midnightblue" d="M1012.78,-54.33C1004.05,-46.49 990.27,-34.14 979.48,-24.46"/>
<polygon fill="midnightblue" stroke="midnightblue" points="981.72,-21.77 971.94,-17.7 977.05,-26.99 981.72,-21.77"/>
</g>
<!-- Node16 -->
<g id="node16" class="node">
<title>Node16</title>
<g id="a_node16"><a xlink:title=" ">
<polygon fill="white" stroke="#bfbfbf" points="1061.34,-0.5 1061.34,-17.5 1111.34,-17.5 1111.34,-0.5 1061.34,-0.5"/>
<text text-anchor="middle" x="1086.34" y="-7.1" font-family="SourceSans" font-size="8.00">ostream</text>
</a>
</g>
</g>
<!-- Node15&#45;&gt;Node16 -->
<g id="edge21" class="edge">
<title>Node15&#45;&gt;Node16</title>
<path fill="none" stroke="midnightblue" d="M1030.93,-54.33C1040.82,-46.42 1056.47,-33.9 1068.62,-24.18"/>
<polygon fill="midnightblue" stroke="midnightblue" points="1071.09,-26.68 1076.71,-17.7 1066.72,-21.22 1071.09,-26.68"/>
</g>
<!-- Node17 -->
<g id="node17" class="node">
<title>Node17</title>
<g id="a_node17"><a xlink:title=" ">
<polygon fill="white" stroke="#bfbfbf" points="999.34,-0.5 999.34,-17.5 1043.34,-17.5 1043.34,-0.5 999.34,-0.5"/>
<text text-anchor="middle" x="1021.34" y="-7.1" font-family="SourceSans" font-size="8.00">cstdint</text>
</a>
</g>
</g>
<!-- Node15&#45;&gt;Node17 -->
<g id="edge23" class="edge">
<title>Node15&#45;&gt;Node17</title>
<path fill="none" stroke="midnightblue" d="M1021.34,-54.33C1021.34,-47.41 1021.34,-36.98 1021.34,-27.98"/>
<polygon fill="midnightblue" stroke="midnightblue" points="1024.84,-27.7 1021.34,-17.7 1017.84,-27.7 1024.84,-27.7"/>
</g>
</g>
</svg>
