<?xml version="1.0" encoding="UTF-8" standalone="no"?>
<!DOCTYPE svg PUBLIC "-//W3C//DTD SVG 1.1//EN"
 "http://www.w3.org/Graphics/SVG/1.1/DTD/svg11.dtd">
<!-- Generated by graphviz version 2.44.0 (0)
 -->
<!-- Title: /home/bkoz/src/izzi/src/a60&#45;svg&#45;linear.h Pages: 1 -->
<!--zoomable 197 -->
<svg id="main" version="1.1" xmlns="http://www.w3.org/2000/svg" xmlns:xlink="http://www.w3.org/1999/xlink" xml:space="preserve" onload="init(evt)">
<style type="text/css"><![CDATA[
.edge:hover path { stroke: red; }
.edge:hover polygon { stroke: red; fill: red; }
]]></style>
<script type="text/javascript"><![CDATA[
var edges = document.getElementsByTagName('g');
if (edges && edges.length) {
  for (var i=0;i<edges.length;i++) {
    if (edges[i].id.substr(0,4)=='edge') {
      edges[i].setAttribute('class','edge');
    }
  }
}
]]></script>
        <defs>
                <circle id="rim" cx="0" cy="0" r="7"/>
                <circle id="rim2" cx="0" cy="0" r="3.5"/>
                <g id="zoomPlus">
                        <use xlink:href="#rim" fill="#404040">
                                <set attributeName="fill" to="#808080" begin="zoomplus.mouseover" end="zoomplus.mouseout"/>
                        </use>
                        <path d="M-4,0h8M0,-4v8" fill="none" stroke="white" stroke-width="1.5" pointer-events="none"/>
                </g>
                <g id="zoomMin">
                        <use xlink:href="#rim" fill="#404040">
                                <set attributeName="fill" to="#808080" begin="zoomminus.mouseover" end="zoomminus.mouseout"/>
                        </use>
                        <path d="M-4,0h8" fill="none" stroke="white" stroke-width="1.5" pointer-events="none"/>
                </g>
                <g id="dirArrow">
                        <path fill="none" stroke="white" stroke-width="1.5" d="M0,-3.0v7 M-2.5,-0.5L0,-3.0L2.5,-0.5"/>
                </g>
               <g id="resetDef">
                       <use xlink:href="#rim2" fill="#404040">
                               <set attributeName="fill" to="#808080" begin="reset.mouseover" end="reset.mouseout"/>
                       </use>
               </g>
        </defs>

<script type="text/javascript">
var viewWidth = 1162;
var viewHeight = 197;
var sectionId = 'dynsection-0';
</script>
<script xlink:href="svgpan.js"/>
<svg id="graph" class="graph">
<g id="viewport">
<title>/home/bkoz/src/izzi/src/a60&#45;svg&#45;linear.h</title>
<polygon fill="white" stroke="transparent" points="-4,4 -4,-193 1158,-193 1158,4 -4,4"/>
<!-- Node1 -->
<g id="node1" class="node">
<title>Node1</title>
<g id="a_node1"><a xlink:title=" ">
<polygon fill="#bfbfbf" stroke="black" points="326.5,-162.5 326.5,-188.5 427.5,-188.5 427.5,-162.5 326.5,-162.5"/>
<text text-anchor="start" x="334.5" y="-178.1" font-family="SourceSans" font-size="8.00">/home/bkoz/src/izzi</text>
<text text-anchor="middle" x="377" y="-169.1" font-family="SourceSans" font-size="8.00">/src/a60&#45;svg&#45;linear.h</text>
</a>
</g>
</g>
<!-- Node2 -->
<g id="node2" class="node">
<title>Node2</title>
<g id="a_node2"><a xlink:href="a60-svg_8h.html" target="_top" xlink:title=" ">
<polygon fill="white" stroke="black" points="348.5,-108.5 348.5,-125.5 405.5,-125.5 405.5,-108.5 348.5,-108.5"/>
<text text-anchor="middle" x="377" y="-115.1" font-family="SourceSans" font-size="8.00">a60&#45;svg.h</text>
</a>
</g>
</g>
<!-- Node1&#45;&gt;Node2 -->
<g id="edge1" class="edge">
<title>Node1&#45;&gt;Node2</title>
<path fill="none" stroke="midnightblue" d="M377,-162.24C377,-154.48 377,-144.31 377,-135.68"/>
<polygon fill="midnightblue" stroke="midnightblue" points="380.5,-135.56 377,-125.56 373.5,-135.56 380.5,-135.56"/>
</g>
<!-- Node3 -->
<g id="node3" class="node">
<title>Node3</title>
<g id="a_node3"><a xlink:title=" ">
<polygon fill="white" stroke="#bfbfbf" points="0,-54.5 0,-71.5 42,-71.5 42,-54.5 0,-54.5"/>
<text text-anchor="middle" x="21" y="-61.1" font-family="SourceSans" font-size="8.00">cmath</text>
</a>
</g>
</g>
<!-- Node2&#45;&gt;Node3 -->
<g id="edge2" class="edge">
<title>Node2&#45;&gt;Node3</title>
<path fill="none" stroke="midnightblue" d="M348.09,-112.91C291.68,-106.68 163.08,-91.54 56,-72 54.72,-71.77 53.42,-71.52 52.11,-71.26"/>
<polygon fill="midnightblue" stroke="midnightblue" points="52.55,-67.77 42.04,-69.13 51.09,-74.62 52.55,-67.77"/>
</g>
<!-- Node4 -->
<g id="node4" class="node">
<title>Node4</title>
<g id="a_node4"><a xlink:title=" ">
<polygon fill="white" stroke="#bfbfbf" points="103,-0.5 103,-17.5 143,-17.5 143,-0.5 103,-0.5"/>
<text text-anchor="middle" x="123" y="-7.1" font-family="SourceSans" font-size="8.00">string</text>
</a>
</g>
</g>
<!-- Node2&#45;&gt;Node4 -->
<g id="edge3" class="edge">
<title>Node2&#45;&gt;Node4</title>
<path fill="none" stroke="midnightblue" d="M348.41,-116.13C282.36,-115.75 122.28,-110.76 89,-72 76.7,-57.68 91.45,-38.18 105.19,-24.9"/>
<polygon fill="midnightblue" stroke="midnightblue" points="107.88,-27.19 112.95,-17.89 103.19,-22 107.88,-27.19"/>
</g>
<!-- Node5 -->
<g id="node5" class="node">
<title>Node5</title>
<g id="a_node5"><a xlink:title=" ">
<polygon fill="white" stroke="#bfbfbf" points="98,-54.5 98,-71.5 140,-71.5 140,-54.5 98,-54.5"/>
<text text-anchor="middle" x="119" y="-61.1" font-family="SourceSans" font-size="8.00">vector</text>
</a>
</g>
</g>
<!-- Node2&#45;&gt;Node5 -->
<g id="edge4" class="edge">
<title>Node2&#45;&gt;Node5</title>
<path fill="none" stroke="midnightblue" d="M348.43,-111.15C306.89,-103.95 227.2,-89.61 150.13,-72.13"/>
<polygon fill="midnightblue" stroke="midnightblue" points="150.79,-68.69 140.26,-69.87 149.23,-75.51 150.79,-68.69"/>
</g>
<!-- Node6 -->
<g id="node6" class="node">
<title>Node6</title>
<g id="a_node6"><a xlink:title=" ">
<polygon fill="white" stroke="#bfbfbf" points="158,-54.5 158,-71.5 196,-71.5 196,-54.5 158,-54.5"/>
<text text-anchor="middle" x="177" y="-61.1" font-family="SourceSans" font-size="8.00">tuple</text>
</a>
</g>
</g>
<!-- Node2&#45;&gt;Node6 -->
<g id="edge5" class="edge">
<title>Node2&#45;&gt;Node6</title>
<path fill="none" stroke="midnightblue" d="M348.33,-108.92C316,-100.89 261.64,-87.21 205.94,-72.2"/>
<polygon fill="midnightblue" stroke="midnightblue" points="206.83,-68.81 196.26,-69.58 205,-75.57 206.83,-68.81"/>
</g>
<!-- Node7 -->
<g id="node7" class="node">
<title>Node7</title>
<g id="a_node7"><a xlink:title=" ">
<polygon fill="white" stroke="#bfbfbf" points="214.5,-54.5 214.5,-71.5 263.5,-71.5 263.5,-54.5 214.5,-54.5"/>
<text text-anchor="middle" x="239" y="-61.1" font-family="SourceSans" font-size="8.00">sstream</text>
</a>
</g>
</g>
<!-- Node2&#45;&gt;Node7 -->
<g id="edge6" class="edge">
<title>Node2&#45;&gt;Node7</title>
<path fill="none" stroke="midnightblue" d="M356.93,-108.44C333.73,-99.7 295.33,-85.22 268.67,-75.18"/>
<polygon fill="midnightblue" stroke="midnightblue" points="269.68,-71.82 259.09,-71.57 267.21,-78.37 269.68,-71.82"/>
</g>
<!-- Node8 -->
<g id="node8" class="node">
<title>Node8</title>
<g id="a_node8"><a xlink:href="a60-svg-color_8h.html" target="_top" xlink:title=" ">
<polygon fill="white" stroke="black" points="282,-54.5 282,-71.5 362,-71.5 362,-54.5 282,-54.5"/>
<text text-anchor="middle" x="322" y="-61.1" font-family="SourceSans" font-size="8.00">a60&#45;svg&#45;color.h</text>
</a>
</g>
</g>
<!-- Node2&#45;&gt;Node8 -->
<g id="edge7" class="edge">
<title>Node2&#45;&gt;Node8</title>
<path fill="none" stroke="midnightblue" d="M368.88,-108.33C360.68,-100.57 347.79,-88.38 337.6,-78.75"/>
<polygon fill="midnightblue" stroke="midnightblue" points="339.82,-76.03 330.15,-71.7 335.01,-81.12 339.82,-76.03"/>
</g>
<!-- Node12 -->
<g id="node12" class="node">
<title>Node12</title>
<g id="a_node12"><a xlink:href="a60-svg-base-types_8h.html" target="_top" xlink:title=" ">
<polygon fill="white" stroke="black" points="380,-54.5 380,-71.5 486,-71.5 486,-54.5 380,-54.5"/>
<text text-anchor="middle" x="433" y="-61.1" font-family="SourceSans" font-size="8.00">a60&#45;svg&#45;base&#45;types.h</text>
</a>
</g>
</g>
<!-- Node2&#45;&gt;Node12 -->
<g id="edge12" class="edge">
<title>Node2&#45;&gt;Node12</title>
<path fill="none" stroke="midnightblue" d="M385.26,-108.33C393.62,-100.57 406.74,-88.38 417.12,-78.75"/>
<polygon fill="midnightblue" stroke="midnightblue" points="419.76,-81.07 424.7,-71.7 414.99,-75.94 419.76,-81.07"/>
</g>
<!-- Node16 -->
<g id="node16" class="node">
<title>Node16</title>
<g id="a_node16"><a xlink:href="a60-svg-constants_8h.html" target="_top" xlink:title=" ">
<polygon fill="white" stroke="black" points="504.5,-54.5 504.5,-71.5 605.5,-71.5 605.5,-54.5 504.5,-54.5"/>
<text text-anchor="middle" x="555" y="-61.1" font-family="SourceSans" font-size="8.00">a60&#45;svg&#45;constants.h</text>
</a>
</g>
</g>
<!-- Node2&#45;&gt;Node16 -->
<g id="edge17" class="edge">
<title>Node2&#45;&gt;Node16</title>
<path fill="none" stroke="midnightblue" d="M402.88,-108.44C433.6,-99.47 484.98,-84.46 519.42,-74.39"/>
<polygon fill="midnightblue" stroke="midnightblue" points="520.47,-77.73 529.09,-71.57 518.51,-71.02 520.47,-77.73"/>
</g>
<!-- Node17 -->
<g id="node17" class="node">
<title>Node17</title>
<g id="a_node17"><a xlink:href="a60-svg-elements_8h.html" target="_top" xlink:title=" ">
<polygon fill="white" stroke="black" points="624,-54.5 624,-71.5 722,-71.5 722,-54.5 624,-54.5"/>
<text text-anchor="middle" x="673" y="-61.1" font-family="SourceSans" font-size="8.00">a60&#45;svg&#45;elements.h</text>
</a>
</g>
</g>
<!-- Node2&#45;&gt;Node17 -->
<g id="edge18" class="edge">
<title>Node2&#45;&gt;Node17</title>
<path fill="none" stroke="midnightblue" d="M405.65,-110.97C455.13,-102.27 557.3,-84.33 620.02,-73.31"/>
<polygon fill="midnightblue" stroke="midnightblue" points="620.87,-76.71 630.11,-71.53 619.66,-69.82 620.87,-76.71"/>
</g>
<!-- Node18 -->
<g id="node18" class="node">
<title>Node18</title>
<g id="a_node18"><a xlink:href="a60-svg-elements-components_8h.html" target="_top" xlink:title=" ">
<polygon fill="white" stroke="black" points="740,-54.5 740,-71.5 892,-71.5 892,-54.5 740,-54.5"/>
<text text-anchor="middle" x="816" y="-61.1" font-family="SourceSans" font-size="8.00">a60&#45;svg&#45;elements&#45;components.h</text>
</a>
</g>
</g>
<!-- Node2&#45;&gt;Node18 -->
<g id="edge19" class="edge">
<title>Node2&#45;&gt;Node18</title>
<path fill="none" stroke="midnightblue" d="M405.8,-112.59C473.33,-104.59 643.55,-84.43 742.19,-72.74"/>
<polygon fill="midnightblue" stroke="midnightblue" points="742.87,-76.19 752.39,-71.54 742.04,-69.24 742.87,-76.19"/>
</g>
<!-- Node19 -->
<g id="node19" class="node">
<title>Node19</title>
<g id="a_node19"><a xlink:href="a60-svg-render-state_8h.html" target="_top" xlink:title=" ">
<polygon fill="white" stroke="black" points="910,-54.5 910,-71.5 1020,-71.5 1020,-54.5 910,-54.5"/>
<text text-anchor="middle" x="965" y="-61.1" font-family="SourceSans" font-size="8.00">a60&#45;svg&#45;render&#45;state.h</text>
</a>
</g>
</g>
<!-- Node2&#45;&gt;Node19 -->
<g id="edge20" class="edge">
<title>Node2&#45;&gt;Node19</title>
<path fill="none" stroke="midnightblue" d="M405.72,-114C483.45,-108.5 704.63,-92.27 899.71,-72.09"/>
<polygon fill="midnightblue" stroke="midnightblue" points="900.27,-75.55 909.86,-71.04 899.55,-68.59 900.27,-75.55"/>
</g>
<!-- Node20 -->
<g id="node20" class="node">
<title>Node20</title>
<g id="a_node20"><a xlink:href="a60-svg-render-basics_8h.html" target="_top" xlink:title=" ">
<polygon fill="white" stroke="black" points="1038,-54.5 1038,-71.5 1154,-71.5 1154,-54.5 1038,-54.5"/>
<text text-anchor="middle" x="1096" y="-61.1" font-family="SourceSans" font-size="8.00">a60&#45;svg&#45;render&#45;basics.h</text>
</a>
</g>
</g>
<!-- Node2&#45;&gt;Node20 -->
<g id="edge21" class="edge">
<title>Node2&#45;&gt;Node20</title>
<path fill="none" stroke="midnightblue" d="M405.64,-114.59C495.56,-110.07 780.46,-94.89 1027.66,-72.07"/>
<polygon fill="midnightblue" stroke="midnightblue" points="1028.28,-75.53 1037.91,-71.12 1027.63,-68.56 1028.28,-75.53"/>
</g>
<!-- Node8&#45;&gt;Node4 -->
<g id="edge8" class="edge">
<title>Node8&#45;&gt;Node4</title>
<path fill="none" stroke="midnightblue" d="M293.06,-54.44C255.72,-44.68 191.05,-27.78 153.14,-17.87"/>
<polygon fill="midnightblue" stroke="midnightblue" points="153.75,-14.42 143.19,-15.28 151.98,-21.19 153.75,-14.42"/>
</g>
<!-- Node9 -->
<g id="node9" class="node">
<title>Node9</title>
<g id="a_node9"><a xlink:title=" ">
<polygon fill="white" stroke="#bfbfbf" points="354.5,-0.5 354.5,-17.5 389.5,-17.5 389.5,-0.5 354.5,-0.5"/>
<text text-anchor="middle" x="372" y="-7.1" font-family="SourceSans" font-size="8.00">map</text>
</a>
</g>
</g>
<!-- Node8&#45;&gt;Node9 -->
<g id="edge9" class="edge">
<title>Node8&#45;&gt;Node9</title>
<path fill="none" stroke="midnightblue" d="M329.38,-54.33C336.76,-46.65 348.32,-34.62 357.54,-25.04"/>
<polygon fill="midnightblue" stroke="midnightblue" points="360.18,-27.34 364.59,-17.7 355.14,-22.49 360.18,-27.34"/>
</g>
<!-- Node10 -->
<g id="node10" class="node">
<title>Node10</title>
<g id="a_node10"><a xlink:title=" ">
<polygon fill="white" stroke="#bfbfbf" points="214,-0.5 214,-17.5 270,-17.5 270,-0.5 214,-0.5"/>
<text text-anchor="middle" x="242" y="-7.1" font-family="SourceSans" font-size="8.00">algorithm</text>
</a>
</g>
</g>
<!-- Node8&#45;&gt;Node10 -->
<g id="edge10" class="edge">
<title>Node8&#45;&gt;Node10</title>
<path fill="none" stroke="midnightblue" d="M310.2,-54.33C297.6,-46.14 277.41,-33.02 262.26,-23.17"/>
<polygon fill="midnightblue" stroke="midnightblue" points="263.88,-20.05 253.59,-17.54 260.07,-25.92 263.88,-20.05"/>
</g>
<!-- Node11 -->
<g id="node11" class="node">
<title>Node11</title>
<g id="a_node11"><a xlink:title=" ">
<polygon fill="white" stroke="#bfbfbf" points="288,-0.5 288,-17.5 336,-17.5 336,-0.5 288,-0.5"/>
<text text-anchor="middle" x="312" y="-7.1" font-family="SourceSans" font-size="8.00">random</text>
</a>
</g>
</g>
<!-- Node8&#45;&gt;Node11 -->
<g id="edge11" class="edge">
<title>Node8&#45;&gt;Node11</title>
<path fill="none" stroke="midnightblue" d="M320.52,-54.33C319.18,-47.34 317.14,-36.75 315.4,-27.68"/>
<polygon fill="midnightblue" stroke="midnightblue" points="318.81,-26.86 313.48,-17.7 311.93,-28.19 318.81,-26.86"/>
</g>
<!-- Node12&#45;&gt;Node9 -->
<g id="edge13" class="edge">
<title>Node12&#45;&gt;Node9</title>
<path fill="none" stroke="midnightblue" d="M424,-54.33C414.81,-46.49 400.32,-34.14 388.97,-24.46"/>
<polygon fill="midnightblue" stroke="midnightblue" points="390.92,-21.53 381.04,-17.7 386.38,-26.86 390.92,-21.53"/>
</g>
<!-- Node13 -->
<g id="node13" class="node">
<title>Node13</title>
<g id="a_node13"><a xlink:title=" ">
<polygon fill="white" stroke="#bfbfbf" points="408,-0.5 408,-17.5 458,-17.5 458,-0.5 408,-0.5"/>
<text text-anchor="middle" x="433" y="-7.1" font-family="SourceSans" font-size="8.00">ostream</text>
</a>
</g>
</g>
<!-- Node12&#45;&gt;Node13 -->
<g id="edge14" class="edge">
<title>Node12&#45;&gt;Node13</title>
<path fill="none" stroke="midnightblue" d="M433,-54.33C433,-47.41 433,-36.98 433,-27.98"/>
<polygon fill="midnightblue" stroke="midnightblue" points="436.5,-27.7 433,-17.7 429.5,-27.7 436.5,-27.7"/>
</g>
<!-- Node14 -->
<g id="node14" class="node">
<title>Node14</title>
<g id="a_node14"><a xlink:title=" ">
<polygon fill="white" stroke="#bfbfbf" points="476.5,-0.5 476.5,-17.5 523.5,-17.5 523.5,-0.5 476.5,-0.5"/>
<text text-anchor="middle" x="500" y="-7.1" font-family="SourceSans" font-size="8.00">fstream</text>
</a>
</g>
</g>
<!-- Node12&#45;&gt;Node14 -->
<g id="edge15" class="edge">
<title>Node12&#45;&gt;Node14</title>
<path fill="none" stroke="midnightblue" d="M442.89,-54.33C453.18,-46.34 469.52,-33.66 482.09,-23.9"/>
<polygon fill="midnightblue" stroke="midnightblue" points="484.32,-26.6 490.07,-17.7 480.03,-21.07 484.32,-26.6"/>
</g>
<!-- Node15 -->
<g id="node15" class="node">
<title>Node15</title>
<g id="a_node15"><a xlink:title=" ">
<polygon fill="white" stroke="#bfbfbf" points="542,-0.5 542,-17.5 586,-17.5 586,-0.5 542,-0.5"/>
<text text-anchor="middle" x="564" y="-7.1" font-family="SourceSans" font-size="8.00">cstdint</text>
</a>
</g>
</g>
<!-- Node12&#45;&gt;Node15 -->
<g id="edge16" class="edge">
<title>Node12&#45;&gt;Node15</title>
<path fill="none" stroke="midnightblue" d="M452.05,-54.44C473.97,-45.74 510.21,-31.35 535.5,-21.31"/>
<polygon fill="midnightblue" stroke="midnightblue" points="536.93,-24.51 544.93,-17.57 534.34,-18.01 536.93,-24.51"/>
</g>
</g>
</svg>
        <g id="navigator" transform="translate(0 0)" fill="#404254">
                <rect fill="#f2f5e9" fill-opacity="0.5" stroke="#606060" stroke-width=".5" x="0" y="0" width="60" height="60"/>
                <use id="zoomplus" xlink:href="#zoomPlus" x="17" y="9" onmousedown="handleZoom(evt,'in')"/>
                <use id="zoomminus" xlink:href="#zoomMin" x="42" y="9" onmousedown="handleZoom(evt,'out')"/>
                <use id="reset" xlink:href="#resetDef" x="30" y="36" onmousedown="handleReset()"/>
                <g id="arrowUp" xlink:href="#dirArrow" transform="translate(30 24)" onmousedown="handlePan(0,-1)">
                  <use xlink:href="#rim" fill="#404040">
                        <set attributeName="fill" to="#808080" begin="arrowUp.mouseover" end="arrowUp.mouseout"/>
                  </use>
                  <path fill="none" stroke="white" stroke-width="1.5" d="M0,-3.0v7 M-2.5,-0.5L0,-3.0L2.5,-0.5"/>
                </g>
                <g id="arrowRight" xlink:href="#dirArrow" transform="rotate(90) translate(36 -43)" onmousedown="handlePan(1,0)">
                  <use xlink:href="#rim" fill="#404040">
                        <set attributeName="fill" to="#808080" begin="arrowRight.mouseover" end="arrowRight.mouseout"/>
                  </use>
                  <path fill="none" stroke="white" stroke-width="1.5" d="M0,-3.0v7 M-2.5,-0.5L0,-3.0L2.5,-0.5"/>
                </g>
                <g id="arrowDown" xlink:href="#dirArrow" transform="rotate(180) translate(-30 -48)" onmousedown="handlePan(0,1)">
                  <use xlink:href="#rim" fill="#404040">
                        <set attributeName="fill" to="#808080" begin="arrowDown.mouseover" end="arrowDown.mouseout"/>
                  </use>
                  <path fill="none" stroke="white" stroke-width="1.5" d="M0,-3.0v7 M-2.5,-0.5L0,-3.0L2.5,-0.5"/>
                </g>
                <g id="arrowLeft" xlink:href="#dirArrow" transform="rotate(270) translate(-36 17)" onmousedown="handlePan(-1,0)">
                  <use xlink:href="#rim" fill="#404040">
                        <set attributeName="fill" to="#808080" begin="arrowLeft.mouseover" end="arrowLeft.mouseout"/>
                  </use>
                  <path fill="none" stroke="white" stroke-width="1.5" d="M0,-3.0v7 M-2.5,-0.5L0,-3.0L2.5,-0.5"/>
                </g>
        </g>
        <svg viewBox="0 0 15 15" width="100%" height="30px" preserveAspectRatio="xMaxYMin meet">
         <g id="arrow_out" transform="scale(0.3 0.3)">
          <a xlink:href="a60-svg-linear_8h__incl_org.svg" target="_base">
           <rect id="button" ry="5" rx="5" y="6" x="6" height="38" width="38"
                fill="#f2f5e9" fill-opacity="0.5" stroke="#606060" stroke-width="1.0"/>
           <path id="arrow"
             d="M 11.500037,31.436501 C 11.940474,20.09759 22.043105,11.32322 32.158766,21.979434 L 37.068811,17.246167 C 37.068811,17.246167 37.088388,32 37.088388,32 L 22.160133,31.978069 C 22.160133,31.978069 26.997745,27.140456 26.997745,27.140456 C 18.528582,18.264221 13.291696,25.230495 11.500037,31.436501 z"
             style="fill:#404040;"/>
          </a>
         </g>
        </svg>
</svg>
