<?xml version="1.0" encoding="UTF-8" standalone="no"?>
<!DOCTYPE svg PUBLIC "-//W3C//DTD SVG 1.1//EN"
 "http://www.w3.org/Graphics/SVG/1.1/DTD/svg11.dtd">
<!-- Generated by graphviz version 2.44.0 (0)
 -->
<!-- Title: Graphical Class Hierarchy Pages: 1 -->
<svg width="255pt" height="62pt"
 viewBox="0.00 0.00 255.00 62.00" xmlns="http://www.w3.org/2000/svg" xmlns:xlink="http://www.w3.org/1999/xlink">
<g id="graph0" class="graph" transform="scale(1 1) rotate(0) translate(4 58)">
<title>Graphical Class Hierarchy</title>
<polygon fill="white" stroke="transparent" points="-4,4 -4,-58 251,-58 251,4 -4,4"/>
<!-- Node0 -->
<g id="node1" class="node">
<title>Node0</title>
<g id="a_node1"><a xlink:href="structsvg_1_1render__state__base.html" target="_top" xlink:title="Settings for rendering collection&#45;derived objects.">
<polygon fill="white" stroke="black" points="0,-18.5 0,-35.5 112,-35.5 112,-18.5 0,-18.5"/>
<text text-anchor="middle" x="56" y="-25.1" font-family="SourceSans" font-size="8.00">svg::render_state_base</text>
</a>
</g>
</g>
<!-- Node1 -->
<g id="node2" class="node">
<title>Node1</title>
<g id="a_node2"><a xlink:href="structsvg_1_1id__render__state.html" target="_top" xlink:title="Named render state. Datum to take id string and tie it to visual representation.">
<polygon fill="white" stroke="black" points="148,-36.5 148,-53.5 247,-53.5 247,-36.5 148,-36.5"/>
<text text-anchor="middle" x="197.5" y="-43.1" font-family="SourceSans" font-size="8.00">svg::id_render_state</text>
</a>
</g>
</g>
<!-- Node0&#45;&gt;Node1 -->
<g id="edge1" class="edge">
<title>Node0&#45;&gt;Node1</title>
<path fill="none" stroke="midnightblue" d="M122.14,-35.4C130.72,-36.51 139.4,-37.63 147.64,-38.7"/>
<polygon fill="midnightblue" stroke="midnightblue" points="122.5,-31.92 112.13,-34.11 121.6,-38.87 122.5,-31.92"/>
</g>
<!-- Node2 -->
<g id="node3" class="node">
<title>Node2</title>
<g id="a_node3"><a xlink:href="structsvg_1_1render__state.html" target="_top" xlink:title="Render settings for collections.">
<polygon fill="white" stroke="black" points="153.5,-0.5 153.5,-17.5 241.5,-17.5 241.5,-0.5 153.5,-0.5"/>
<text text-anchor="middle" x="197.5" y="-7.1" font-family="SourceSans" font-size="8.00">svg::render_state</text>
</a>
</g>
</g>
<!-- Node0&#45;&gt;Node2 -->
<g id="edge2" class="edge">
<title>Node0&#45;&gt;Node2</title>
<path fill="none" stroke="midnightblue" d="M122.2,-18.59C132.78,-17.22 143.5,-15.84 153.38,-14.56"/>
<polygon fill="midnightblue" stroke="midnightblue" points="121.6,-15.13 112.13,-19.89 122.5,-22.08 121.6,-15.13"/>
</g>
</g>
</svg>
