<?xml version="1.0" encoding="UTF-8" standalone="no"?>
<!DOCTYPE svg PUBLIC "-//W3C//DTD SVG 1.1//EN"
 "http://www.w3.org/Graphics/SVG/1.1/DTD/svg11.dtd">
<!-- Generated by graphviz version 2.44.0 (0)
 -->
<!-- Title: svg::sized_text_r Pages: 1 -->
<svg width="522pt" height="315pt"
 viewBox="0.00 0.00 522.00 314.50" xmlns="http://www.w3.org/2000/svg" xmlns:xlink="http://www.w3.org/1999/xlink">
<g id="graph0" class="graph" transform="scale(1 1) rotate(0) translate(4 310.5)">
<title>svg::sized_text_r</title>
<polygon fill="white" stroke="transparent" points="-4,4 -4,-310.5 518,-310.5 518,4 -4,4"/>
<!-- Node1 -->
<g id="node1" class="node">
<title>Node1</title>
<g id="a_node1"><a xlink:title="Text at size, with a transformation=rotation.">
<polygon fill="#bfbfbf" stroke="black" points="0,-87 0,-104 84,-104 84,-87 0,-87"/>
<text text-anchor="middle" x="42" y="-93.6" font-family="SourceSans" font-size="8.00">svg::sized_text_r</text>
</a>
</g>
</g>
<!-- Node2 -->
<g id="node2" class="node">
<title>Node2</title>
<g id="a_node2"><a xlink:href="structsvg_1_1text__element.html#a87be030b88c17a86a690b31e95b60612" target="_top" xlink:title="Either serialize immediately (as below), or create data structure that adds data to data_vec and then...">
<polygon fill="white" stroke="black" points="127.5,-172.5 127.5,-198.5 222.5,-198.5 222.5,-172.5 127.5,-172.5"/>
<text text-anchor="start" x="135.5" y="-188.1" font-family="SourceSans" font-size="8.00">svg::text_element::</text>
<text text-anchor="middle" x="175" y="-179.1" font-family="SourceSans" font-size="8.00">add_data</text>
</a>
</g>
</g>
<!-- Node1&#45;&gt;Node2 -->
<g id="edge1" class="edge">
<title>Node1&#45;&gt;Node2</title>
<path fill="none" stroke="midnightblue" d="M50.8,-104.05C63.94,-118.04 91.81,-146.02 120,-163.5 122.58,-165.1 125.3,-166.63 128.09,-168.08"/>
<polygon fill="midnightblue" stroke="midnightblue" points="126.63,-171.26 137.16,-172.45 129.66,-164.95 126.63,-171.26"/>
</g>
<!-- Node12 -->
<g id="node12" class="node">
<title>Node12</title>
<g id="a_node12"><a xlink:href="structsvg_1_1svg__element.html#adb6116b96467cc39cb178deb10c7a869" target="_top" xlink:title=" ">
<polygon fill="white" stroke="black" points="120,-127.5 120,-153.5 230,-153.5 230,-127.5 120,-127.5"/>
<text text-anchor="start" x="128" y="-143.1" font-family="SourceSans" font-size="8.00">svg::svg_element::add</text>
<text text-anchor="middle" x="175" y="-134.1" font-family="SourceSans" font-size="8.00">_element</text>
</a>
</g>
</g>
<!-- Node1&#45;&gt;Node12 -->
<g id="edge17" class="edge">
<title>Node1&#45;&gt;Node12</title>
<path fill="none" stroke="midnightblue" d="M67.95,-104.07C84.47,-109.75 106.67,-117.37 126.49,-124.18"/>
<polygon fill="midnightblue" stroke="midnightblue" points="125.4,-127.5 135.99,-127.44 127.67,-120.88 125.4,-127.5"/>
</g>
<!-- Node13 -->
<g id="node13" class="node">
<title>Node13</title>
<g id="a_node13"><a xlink:href="group__elements.html#ga13c46848317034d16c62a7d2061ba3d6" target="_top" xlink:title=" ">
<polygon fill="white" stroke="black" points="127.5,-82.5 127.5,-108.5 222.5,-108.5 222.5,-82.5 127.5,-82.5"/>
<text text-anchor="start" x="135.5" y="-98.1" font-family="SourceSans" font-size="8.00">svg::text_element::</text>
<text text-anchor="middle" x="175" y="-89.1" font-family="SourceSans" font-size="8.00">finish_element</text>
</a>
</g>
</g>
<!-- Node1&#45;&gt;Node13 -->
<g id="edge18" class="edge">
<title>Node1&#45;&gt;Node13</title>
<path fill="none" stroke="midnightblue" d="M84.09,-95.5C94.55,-95.5 105.97,-95.5 117.06,-95.5"/>
<polygon fill="midnightblue" stroke="midnightblue" points="117.12,-99 127.11,-95.5 117.11,-92 117.12,-99"/>
</g>
<!-- Node14 -->
<g id="node14" class="node">
<title>Node14</title>
<g id="a_node14"><a xlink:href="structsvg_1_1transform.html#acf9836f4ba647f0dd2b53963a0f714d0" target="_top" xlink:title=" ">
<polygon fill="white" stroke="black" points="121.5,-46 121.5,-63 228.5,-63 228.5,-46 121.5,-46"/>
<text text-anchor="middle" x="175" y="-52.6" font-family="SourceSans" font-size="8.00">svg::transform::rotate</text>
</a>
</g>
</g>
<!-- Node1&#45;&gt;Node14 -->
<g id="edge19" class="edge">
<title>Node1&#45;&gt;Node14</title>
<path fill="none" stroke="midnightblue" d="M70.46,-86.91C89.76,-80.86 115.81,-72.71 136.95,-66.1"/>
<polygon fill="midnightblue" stroke="midnightblue" points="138.08,-69.41 146.57,-63.08 135.99,-62.73 138.08,-69.41"/>
</g>
<!-- Node15 -->
<g id="node15" class="node">
<title>Node15</title>
<g id="a_node15"><a xlink:href="structsvg_1_1text__element.html#ae45bec611a6ec17ea46aab6d680ae042" target="_top" xlink:title=" ">
<polygon fill="white" stroke="black" points="127.5,-0.5 127.5,-26.5 222.5,-26.5 222.5,-0.5 127.5,-0.5"/>
<text text-anchor="start" x="135.5" y="-16.1" font-family="SourceSans" font-size="8.00">svg::text_element::</text>
<text text-anchor="middle" x="175" y="-7.1" font-family="SourceSans" font-size="8.00">start_element</text>
</a>
</g>
</g>
<!-- Node1&#45;&gt;Node15 -->
<g id="edge20" class="edge">
<title>Node1&#45;&gt;Node15</title>
<path fill="none" stroke="midnightblue" d="M52.88,-86.61C67,-74.23 94.11,-51.61 120,-36.5 123.37,-34.53 126.94,-32.64 130.57,-30.84"/>
<polygon fill="midnightblue" stroke="midnightblue" points="132.09,-34 139.66,-26.59 129.12,-27.66 132.09,-34"/>
</g>
<!-- Node3 -->
<g id="node3" class="node">
<title>Node3</title>
<g id="a_node3"><a xlink:href="structsvg_1_1typography.html#a70f61596bba3e0bd67b43a8fc553dbfa" target="_top" xlink:title=" ">
<polygon fill="white" stroke="black" points="266,-172.5 266,-198.5 370,-198.5 370,-172.5 266,-172.5"/>
<text text-anchor="start" x="274" y="-188.1" font-family="SourceSans" font-size="8.00">svg::typography::add</text>
<text text-anchor="middle" x="318" y="-179.1" font-family="SourceSans" font-size="8.00">_attribute</text>
</a>
</g>
</g>
<!-- Node2&#45;&gt;Node3 -->
<g id="edge2" class="edge">
<title>Node2&#45;&gt;Node3</title>
<path fill="none" stroke="midnightblue" d="M222.56,-185.5C233.12,-185.5 244.5,-185.5 255.57,-185.5"/>
<polygon fill="midnightblue" stroke="midnightblue" points="255.63,-189 265.63,-185.5 255.63,-182 255.63,-189"/>
</g>
<!-- Node6 -->
<g id="node6" class="node">
<title>Node6</title>
<g id="a_node6"><a xlink:href="namespacesvg.html#a48ac748e89e22789d1772326a98dd7b6" target="_top" xlink:title=" ">
<polygon fill="white" stroke="black" points="413,-135 413,-152 507,-152 507,-135 413,-135"/>
<text text-anchor="middle" x="460" y="-141.6" font-family="SourceSans" font-size="8.00">svg::string_replace</text>
</a>
</g>
</g>
<!-- Node2&#45;&gt;Node6 -->
<g id="edge15" class="edge">
<title>Node2&#45;&gt;Node6</title>
<path fill="none" stroke="midnightblue" d="M222.92,-172.75C236.72,-169.35 251.89,-165.94 266,-163.5 311.7,-155.58 364.08,-150.4 402.73,-147.29"/>
<polygon fill="midnightblue" stroke="midnightblue" points="403.05,-150.78 412.74,-146.51 402.5,-143.8 403.05,-150.78"/>
</g>
<!-- Node8 -->
<g id="node8" class="node">
<title>Node8</title>
<g id="a_node8"><a xlink:href="namespacesvg.html#a36b1c48ad4601b205790e3772ad0a7b6" target="_top" xlink:title=" ">
<polygon fill="white" stroke="black" points="424,-98 424,-115 496,-115 496,-98 424,-98"/>
<text text-anchor="middle" x="460" y="-104.6" font-family="SourceSans" font-size="8.00">svg::to_string</text>
</a>
</g>
</g>
<!-- Node2&#45;&gt;Node8 -->
<g id="edge16" class="edge">
<title>Node2&#45;&gt;Node8</title>
<path fill="none" stroke="midnightblue" d="M208.96,-172.4C215.94,-169.54 223.23,-166.47 230,-163.5 246.2,-156.38 249.22,-152.11 266,-146.5 315.41,-129.97 374.31,-118.96 413.94,-112.74"/>
<polygon fill="midnightblue" stroke="midnightblue" points="414.48,-116.2 423.83,-111.23 413.42,-109.28 414.48,-116.2"/>
</g>
<!-- Node9 -->
<g id="node9" class="node">
<title>Node9</title>
<g id="a_node9"><a xlink:href="structsvg_1_1element__base.html#a53d72a7ff728ad1d4d027254530bcf3d" target="_top" xlink:title="Common transforms include rotate(180)">
<polygon fill="white" stroke="black" points="267.5,-217.5 267.5,-243.5 368.5,-243.5 368.5,-217.5 267.5,-217.5"/>
<text text-anchor="start" x="275.5" y="-233.1" font-family="SourceSans" font-size="8.00">svg::element_base::</text>
<text text-anchor="middle" x="318" y="-224.1" font-family="SourceSans" font-size="8.00">add_transform</text>
</a>
</g>
</g>
<!-- Node2&#45;&gt;Node9 -->
<g id="edge8" class="edge">
<title>Node2&#45;&gt;Node9</title>
<path fill="none" stroke="midnightblue" d="M216.78,-198.52C232.14,-203.42 249.8,-209.05 265.97,-214.22"/>
<polygon fill="midnightblue" stroke="midnightblue" points="265.23,-217.65 275.82,-217.36 267.36,-210.98 265.23,-217.65"/>
</g>
<!-- Node10 -->
<g id="node10" class="node">
<title>Node10</title>
<g id="a_node10"><a xlink:href="structsvg_1_1style.html#a724baeff8a062d71724ea2eeece5c6a3" target="_top" xlink:title=" ">
<polygon fill="white" stroke="black" points="281.5,-263 281.5,-280 354.5,-280 354.5,-263 281.5,-263"/>
<text text-anchor="middle" x="318" y="-269.6" font-family="SourceSans" font-size="8.00">svg::style::str</text>
</a>
</g>
</g>
<!-- Node2&#45;&gt;Node10 -->
<g id="edge11" class="edge">
<title>Node2&#45;&gt;Node10</title>
<path fill="none" stroke="midnightblue" d="M190.32,-198.56C207.32,-213.51 237.02,-237.92 266,-253.5 269.92,-255.61 274.14,-257.55 278.41,-259.32"/>
<polygon fill="midnightblue" stroke="midnightblue" points="277.15,-262.59 287.74,-262.91 279.67,-256.05 277.15,-262.59"/>
</g>
<!-- Node4 -->
<g id="node4" class="node">
<title>Node4</title>
<g id="a_node4"><a xlink:href="namespacesvg_1_1constants.html#a3972655f1dfdc090ec2592d1fb37e87c" target="_top" xlink:title=" ">
<polygon fill="white" stroke="black" points="406.5,-217 406.5,-234 513.5,-234 513.5,-217 406.5,-217"/>
<text text-anchor="middle" x="460" y="-223.6" font-family="SourceSans" font-size="8.00">svg::constants::quote</text>
</a>
</g>
</g>
<!-- Node3&#45;&gt;Node4 -->
<g id="edge3" class="edge">
<title>Node3&#45;&gt;Node4</title>
<path fill="none" stroke="midnightblue" d="M364.84,-198.6C382.28,-203.58 401.99,-209.21 418.86,-214.03"/>
<polygon fill="midnightblue" stroke="midnightblue" points="418.37,-217.53 428.95,-216.91 420.29,-210.8 418.37,-217.53"/>
</g>
<!-- Node5 -->
<g id="node5" class="node">
<title>Node5</title>
<g id="a_node5"><a xlink:href="namespacesvg_1_1constants.html#ac460bc8db60d85c3ae1cf8b1a903405e" target="_top" xlink:title="Formatting character constants.">
<polygon fill="white" stroke="black" points="406,-253 406,-270 514,-270 514,-253 406,-253"/>
<text text-anchor="middle" x="460" y="-259.6" font-family="SourceSans" font-size="8.00">svg::constants::space</text>
</a>
</g>
</g>
<!-- Node3&#45;&gt;Node5 -->
<g id="edge4" class="edge">
<title>Node3&#45;&gt;Node5</title>
<path fill="none" stroke="midnightblue" d="M352.55,-198.61C358.56,-201.52 364.62,-204.84 370,-208.5 388.45,-221.05 386.97,-231.85 406,-243.5 409.4,-245.58 413.07,-247.46 416.84,-249.14"/>
<polygon fill="midnightblue" stroke="midnightblue" points="415.72,-252.46 426.3,-252.94 418.32,-245.97 415.72,-252.46"/>
</g>
<!-- Node3&#45;&gt;Node6 -->
<g id="edge5" class="edge">
<title>Node3&#45;&gt;Node6</title>
<path fill="none" stroke="midnightblue" d="M362.53,-172.44C381.22,-166.83 402.87,-160.34 420.91,-154.93"/>
<polygon fill="midnightblue" stroke="midnightblue" points="421.95,-158.27 430.53,-152.04 419.94,-151.56 421.95,-158.27"/>
</g>
<!-- Node7 -->
<g id="node7" class="node">
<title>Node7</title>
<g id="a_node7"><a xlink:href="structsvg_1_1typography.html#a174c1ffb4e56214d71523ffe7e422561" target="_top" xlink:title=" ">
<polygon fill="white" stroke="black" points="411.5,-171.5 411.5,-197.5 508.5,-197.5 508.5,-171.5 411.5,-171.5"/>
<text text-anchor="start" x="419.5" y="-187.1" font-family="SourceSans" font-size="8.00">svg::typography::to</text>
<text text-anchor="middle" x="460" y="-178.1" font-family="SourceSans" font-size="8.00">_string</text>
</a>
</g>
</g>
<!-- Node3&#45;&gt;Node7 -->
<g id="edge6" class="edge">
<title>Node3&#45;&gt;Node7</title>
<path fill="none" stroke="midnightblue" d="M370.34,-185.13C380.4,-185.06 391.03,-184.99 401.28,-184.91"/>
<polygon fill="midnightblue" stroke="midnightblue" points="401.41,-188.41 411.39,-184.84 401.36,-181.41 401.41,-188.41"/>
</g>
<!-- Node3&#45;&gt;Node8 -->
<g id="edge7" class="edge">
<title>Node3&#45;&gt;Node8</title>
<path fill="none" stroke="midnightblue" d="M335.19,-172.41C352.08,-159.24 379.72,-138.98 406,-125.5 410.89,-122.99 416.19,-120.67 421.49,-118.57"/>
<polygon fill="midnightblue" stroke="midnightblue" points="422.78,-121.82 430.92,-115.04 420.33,-115.26 422.78,-121.82"/>
</g>
<!-- Node9&#45;&gt;Node4 -->
<g id="edge9" class="edge">
<title>Node9&#45;&gt;Node4</title>
<path fill="none" stroke="midnightblue" d="M368.75,-228.72C377.55,-228.41 386.81,-228.08 395.91,-227.75"/>
<polygon fill="midnightblue" stroke="midnightblue" points="396.22,-231.24 406.09,-227.39 395.97,-224.25 396.22,-231.24"/>
</g>
<!-- Node9&#45;&gt;Node5 -->
<g id="edge10" class="edge">
<title>Node9&#45;&gt;Node5</title>
<path fill="none" stroke="midnightblue" d="M368.75,-241.52C382.28,-244.51 396.91,-247.75 410.38,-250.73"/>
<polygon fill="midnightblue" stroke="midnightblue" points="409.89,-254.21 420.41,-252.95 411.4,-247.38 409.89,-254.21"/>
</g>
<!-- Node10&#45;&gt;Node4 -->
<g id="edge12" class="edge">
<title>Node10&#45;&gt;Node4</title>
<path fill="none" stroke="midnightblue" d="M345,-262.96C366.97,-255.74 398.65,-245.33 423.04,-237.32"/>
<polygon fill="midnightblue" stroke="midnightblue" points="424.25,-240.6 432.66,-234.15 422.07,-233.95 424.25,-240.6"/>
</g>
<!-- Node10&#45;&gt;Node5 -->
<g id="edge13" class="edge">
<title>Node10&#45;&gt;Node5</title>
<path fill="none" stroke="midnightblue" d="M354.69,-268.95C367.21,-268.06 381.67,-267.02 395.76,-266.02"/>
<polygon fill="midnightblue" stroke="midnightblue" points="396.2,-269.49 405.92,-265.29 395.7,-262.51 396.2,-269.49"/>
</g>
<!-- Node11 -->
<g id="node11" class="node">
<title>Node11</title>
<g id="a_node11"><a xlink:href="structsvg_1_1colorq.html#adb55a2a48193fafa55340505862278e4" target="_top" xlink:title=" ">
<polygon fill="white" stroke="black" points="408,-289 408,-306 512,-306 512,-289 408,-289"/>
<text text-anchor="middle" x="460" y="-295.6" font-family="SourceSans" font-size="8.00">svg::colorq::to_string</text>
</a>
</g>
</g>
<!-- Node10&#45;&gt;Node11 -->
<g id="edge14" class="edge">
<title>Node10&#45;&gt;Node11</title>
<path fill="none" stroke="midnightblue" d="M354.69,-278.13C369.38,-280.86 386.75,-284.08 403.06,-287.11"/>
<polygon fill="midnightblue" stroke="midnightblue" points="402.58,-290.58 413.05,-288.97 403.85,-283.7 402.58,-290.58"/>
</g>
</g>
</svg>
