<?xml version="1.0" encoding="UTF-8" standalone="no"?>
<!DOCTYPE svg PUBLIC "-//W3C//DTD SVG 1.1//EN"
 "http://www.w3.org/Graphics/SVG/1.1/DTD/svg11.dtd">
<!-- Generated by graphviz version 2.44.0 (0)
 -->
<!-- Title: svg::sized_text Pages: 1 -->
<!--zoomable 278 -->
<svg id="main" version="1.1" xmlns="http://www.w3.org/2000/svg" xmlns:xlink="http://www.w3.org/1999/xlink" xml:space="preserve" onload="init(evt)">
<style type="text/css"><![CDATA[
.edge:hover path { stroke: red; }
.edge:hover polygon { stroke: red; fill: red; }
]]></style>
<script type="text/javascript"><![CDATA[
var edges = document.getElementsByTagName('g');
if (edges && edges.length) {
  for (var i=0;i<edges.length;i++) {
    if (edges[i].id.substr(0,4)=='edge') {
      edges[i].setAttribute('class','edge');
    }
  }
}
]]></script>
        <defs>
                <circle id="rim" cx="0" cy="0" r="7"/>
                <circle id="rim2" cx="0" cy="0" r="3.5"/>
                <g id="zoomPlus">
                        <use xlink:href="#rim" fill="#404040">
                                <set attributeName="fill" to="#808080" begin="zoomplus.mouseover" end="zoomplus.mouseout"/>
                        </use>
                        <path d="M-4,0h8M0,-4v8" fill="none" stroke="white" stroke-width="1.5" pointer-events="none"/>
                </g>
                <g id="zoomMin">
                        <use xlink:href="#rim" fill="#404040">
                                <set attributeName="fill" to="#808080" begin="zoomminus.mouseover" end="zoomminus.mouseout"/>
                        </use>
                        <path d="M-4,0h8" fill="none" stroke="white" stroke-width="1.5" pointer-events="none"/>
                </g>
                <g id="dirArrow">
                        <path fill="none" stroke="white" stroke-width="1.5" d="M0,-3.0v7 M-2.5,-0.5L0,-3.0L2.5,-0.5"/>
                </g>
               <g id="resetDef">
                       <use xlink:href="#rim2" fill="#404040">
                               <set attributeName="fill" to="#808080" begin="reset.mouseover" end="reset.mouseout"/>
                       </use>
               </g>
        </defs>

<script type="text/javascript">
var viewWidth = 515;
var viewHeight = 278;
var sectionId = 'dynsection-51';
</script>
<script xlink:href="svgpan.js"/>
<svg id="graph" class="graph">
<g id="viewport">
<title>svg::sized_text</title>
<polygon fill="white" stroke="transparent" points="-4,4 -4,-273.5 511,-273.5 511,4 -4,4"/>
<!-- Node1 -->
<g id="node1" class="node">
<title>Node1</title>
<g id="a_node1"><a xlink:title="Text at size.">
<polygon fill="#bfbfbf" stroke="black" points="0,-72 0,-89 77,-89 77,-72 0,-72"/>
<text text-anchor="middle" x="38.5" y="-78.6" font-family="SourceSans" font-size="8.00">svg::sized_text</text>
</a>
</g>
</g>
<!-- Node2 -->
<g id="node2" class="node">
<title>Node2</title>
<g id="a_node2"><a xlink:href="structsvg_1_1text__element.html#a87be030b88c17a86a690b31e95b60612" target="_top" xlink:title="Either serialize immediately (as below), or create data structure that adds data to data_vec and then...">
<polygon fill="white" stroke="black" points="120.5,-135.5 120.5,-161.5 215.5,-161.5 215.5,-135.5 120.5,-135.5"/>
<text text-anchor="start" x="128.5" y="-151.1" font-family="SourceSans" font-size="8.00">svg::text_element::</text>
<text text-anchor="middle" x="168" y="-142.1" font-family="SourceSans" font-size="8.00">add_data</text>
</a>
</g>
</g>
<!-- Node1&#45;&gt;Node2 -->
<g id="edge1" class="edge">
<title>Node1&#45;&gt;Node2</title>
<path fill="none" stroke="midnightblue" d="M51.86,-89.16C66.16,-98.96 90.62,-115.05 113,-126.5 116.26,-128.17 119.67,-129.8 123.13,-131.38"/>
<polygon fill="midnightblue" stroke="midnightblue" points="121.76,-134.6 132.32,-135.41 124.57,-128.19 121.76,-134.6"/>
</g>
<!-- Node12 -->
<g id="node12" class="node">
<title>Node12</title>
<g id="a_node12"><a xlink:href="structsvg_1_1svg__element.html#adb6116b96467cc39cb178deb10c7a869" target="_top" xlink:title=" ">
<polygon fill="white" stroke="black" points="113,-90.5 113,-116.5 223,-116.5 223,-90.5 113,-90.5"/>
<text text-anchor="start" x="121" y="-106.1" font-family="SourceSans" font-size="8.00">svg::svg_element::add</text>
<text text-anchor="middle" x="168" y="-97.1" font-family="SourceSans" font-size="8.00">_element</text>
</a>
</g>
</g>
<!-- Node1&#45;&gt;Node12 -->
<g id="edge17" class="edge">
<title>Node1&#45;&gt;Node12</title>
<path fill="none" stroke="midnightblue" d="M77.06,-87.28C85.18,-88.74 93.97,-90.33 102.78,-91.92"/>
<polygon fill="midnightblue" stroke="midnightblue" points="102.23,-95.37 112.7,-93.7 103.48,-88.48 102.23,-95.37"/>
</g>
<!-- Node13 -->
<g id="node13" class="node">
<title>Node13</title>
<g id="a_node13"><a xlink:href="group__elements.html#ga13c46848317034d16c62a7d2061ba3d6" target="_top" xlink:title=" ">
<polygon fill="white" stroke="black" points="120.5,-45.5 120.5,-71.5 215.5,-71.5 215.5,-45.5 120.5,-45.5"/>
<text text-anchor="start" x="128.5" y="-61.1" font-family="SourceSans" font-size="8.00">svg::text_element::</text>
<text text-anchor="middle" x="168" y="-52.1" font-family="SourceSans" font-size="8.00">finish_element</text>
</a>
</g>
</g>
<!-- Node1&#45;&gt;Node13 -->
<g id="edge18" class="edge">
<title>Node1&#45;&gt;Node13</title>
<path fill="none" stroke="midnightblue" d="M77.06,-74.02C87.41,-72.23 98.87,-70.25 110.05,-68.33"/>
<polygon fill="midnightblue" stroke="midnightblue" points="110.94,-71.72 120.2,-66.57 109.75,-64.83 110.94,-71.72"/>
</g>
<!-- Node14 -->
<g id="node14" class="node">
<title>Node14</title>
<g id="a_node14"><a xlink:href="structsvg_1_1text__element.html#ae45bec611a6ec17ea46aab6d680ae042" target="_top" xlink:title=" ">
<polygon fill="white" stroke="black" points="120.5,-0.5 120.5,-26.5 215.5,-26.5 215.5,-0.5 120.5,-0.5"/>
<text text-anchor="start" x="128.5" y="-16.1" font-family="SourceSans" font-size="8.00">svg::text_element::</text>
<text text-anchor="middle" x="168" y="-7.1" font-family="SourceSans" font-size="8.00">start_element</text>
</a>
</g>
</g>
<!-- Node1&#45;&gt;Node14 -->
<g id="edge19" class="edge">
<title>Node1&#45;&gt;Node14</title>
<path fill="none" stroke="midnightblue" d="M52.15,-71.88C66.51,-62.3 90.84,-46.71 113,-35.5 116.31,-33.83 119.78,-32.18 123.3,-30.59"/>
<polygon fill="midnightblue" stroke="midnightblue" points="124.86,-33.72 132.63,-26.52 122.07,-27.31 124.86,-33.72"/>
</g>
<!-- Node3 -->
<g id="node3" class="node">
<title>Node3</title>
<g id="a_node3"><a xlink:href="structsvg_1_1typography.html#a70f61596bba3e0bd67b43a8fc553dbfa" target="_top" xlink:title=" ">
<polygon fill="white" stroke="black" points="259,-135.5 259,-161.5 363,-161.5 363,-135.5 259,-135.5"/>
<text text-anchor="start" x="267" y="-151.1" font-family="SourceSans" font-size="8.00">svg::typography::add</text>
<text text-anchor="middle" x="311" y="-142.1" font-family="SourceSans" font-size="8.00">_attribute</text>
</a>
</g>
</g>
<!-- Node2&#45;&gt;Node3 -->
<g id="edge2" class="edge">
<title>Node2&#45;&gt;Node3</title>
<path fill="none" stroke="midnightblue" d="M215.56,-148.5C226.12,-148.5 237.5,-148.5 248.57,-148.5"/>
<polygon fill="midnightblue" stroke="midnightblue" points="248.63,-152 258.63,-148.5 248.63,-145 248.63,-152"/>
</g>
<!-- Node6 -->
<g id="node6" class="node">
<title>Node6</title>
<g id="a_node6"><a xlink:href="namespacesvg.html#a48ac748e89e22789d1772326a98dd7b6" target="_top" xlink:title=" ">
<polygon fill="white" stroke="black" points="406,-98 406,-115 500,-115 500,-98 406,-98"/>
<text text-anchor="middle" x="453" y="-104.6" font-family="SourceSans" font-size="8.00">svg::string_replace</text>
</a>
</g>
</g>
<!-- Node2&#45;&gt;Node6 -->
<g id="edge15" class="edge">
<title>Node2&#45;&gt;Node6</title>
<path fill="none" stroke="midnightblue" d="M215.92,-135.75C229.72,-132.35 244.89,-128.94 259,-126.5 304.7,-118.58 357.08,-113.4 395.73,-110.29"/>
<polygon fill="midnightblue" stroke="midnightblue" points="396.05,-113.78 405.74,-109.51 395.5,-106.8 396.05,-113.78"/>
</g>
<!-- Node8 -->
<g id="node8" class="node">
<title>Node8</title>
<g id="a_node8"><a xlink:href="namespacesvg.html#a36b1c48ad4601b205790e3772ad0a7b6" target="_top" xlink:title=" ">
<polygon fill="white" stroke="black" points="417,-61 417,-78 489,-78 489,-61 417,-61"/>
<text text-anchor="middle" x="453" y="-67.6" font-family="SourceSans" font-size="8.00">svg::to_string</text>
</a>
</g>
</g>
<!-- Node2&#45;&gt;Node8 -->
<g id="edge16" class="edge">
<title>Node2&#45;&gt;Node8</title>
<path fill="none" stroke="midnightblue" d="M201.96,-135.4C208.94,-132.54 216.23,-129.47 223,-126.5 239.2,-119.38 242.22,-115.11 259,-109.5 308.41,-92.97 367.31,-81.96 406.94,-75.74"/>
<polygon fill="midnightblue" stroke="midnightblue" points="407.48,-79.2 416.83,-74.23 406.42,-72.28 407.48,-79.2"/>
</g>
<!-- Node9 -->
<g id="node9" class="node">
<title>Node9</title>
<g id="a_node9"><a xlink:href="structsvg_1_1element__base.html#a53d72a7ff728ad1d4d027254530bcf3d" target="_top" xlink:title="Common transforms include rotate(180)">
<polygon fill="white" stroke="black" points="260.5,-180.5 260.5,-206.5 361.5,-206.5 361.5,-180.5 260.5,-180.5"/>
<text text-anchor="start" x="268.5" y="-196.1" font-family="SourceSans" font-size="8.00">svg::element_base::</text>
<text text-anchor="middle" x="311" y="-187.1" font-family="SourceSans" font-size="8.00">add_transform</text>
</a>
</g>
</g>
<!-- Node2&#45;&gt;Node9 -->
<g id="edge8" class="edge">
<title>Node2&#45;&gt;Node9</title>
<path fill="none" stroke="midnightblue" d="M209.78,-161.52C225.14,-166.42 242.8,-172.05 258.97,-177.22"/>
<polygon fill="midnightblue" stroke="midnightblue" points="258.23,-180.65 268.82,-180.36 260.36,-173.98 258.23,-180.65"/>
</g>
<!-- Node10 -->
<g id="node10" class="node">
<title>Node10</title>
<g id="a_node10"><a xlink:href="structsvg_1_1style.html#a724baeff8a062d71724ea2eeece5c6a3" target="_top" xlink:title=" ">
<polygon fill="white" stroke="black" points="274.5,-226 274.5,-243 347.5,-243 347.5,-226 274.5,-226"/>
<text text-anchor="middle" x="311" y="-232.6" font-family="SourceSans" font-size="8.00">svg::style::str</text>
</a>
</g>
</g>
<!-- Node2&#45;&gt;Node10 -->
<g id="edge11" class="edge">
<title>Node2&#45;&gt;Node10</title>
<path fill="none" stroke="midnightblue" d="M183.32,-161.56C200.32,-176.51 230.02,-200.92 259,-216.5 262.92,-218.61 267.14,-220.55 271.41,-222.32"/>
<polygon fill="midnightblue" stroke="midnightblue" points="270.15,-225.59 280.74,-225.91 272.67,-219.05 270.15,-225.59"/>
</g>
<!-- Node4 -->
<g id="node4" class="node">
<title>Node4</title>
<g id="a_node4"><a xlink:href="namespacesvg_1_1constants.html#a3972655f1dfdc090ec2592d1fb37e87c" target="_top" xlink:title=" ">
<polygon fill="white" stroke="black" points="399.5,-180 399.5,-197 506.5,-197 506.5,-180 399.5,-180"/>
<text text-anchor="middle" x="453" y="-186.6" font-family="SourceSans" font-size="8.00">svg::constants::quote</text>
</a>
</g>
</g>
<!-- Node3&#45;&gt;Node4 -->
<g id="edge3" class="edge">
<title>Node3&#45;&gt;Node4</title>
<path fill="none" stroke="midnightblue" d="M357.84,-161.6C375.28,-166.58 394.99,-172.21 411.86,-177.03"/>
<polygon fill="midnightblue" stroke="midnightblue" points="411.37,-180.53 421.95,-179.91 413.29,-173.8 411.37,-180.53"/>
</g>
<!-- Node5 -->
<g id="node5" class="node">
<title>Node5</title>
<g id="a_node5"><a xlink:href="namespacesvg_1_1constants.html#ac460bc8db60d85c3ae1cf8b1a903405e" target="_top" xlink:title="Formatting character constants.">
<polygon fill="white" stroke="black" points="399,-216 399,-233 507,-233 507,-216 399,-216"/>
<text text-anchor="middle" x="453" y="-222.6" font-family="SourceSans" font-size="8.00">svg::constants::space</text>
</a>
</g>
</g>
<!-- Node3&#45;&gt;Node5 -->
<g id="edge4" class="edge">
<title>Node3&#45;&gt;Node5</title>
<path fill="none" stroke="midnightblue" d="M345.55,-161.61C351.56,-164.52 357.62,-167.84 363,-171.5 381.45,-184.05 379.97,-194.85 399,-206.5 402.4,-208.58 406.07,-210.46 409.84,-212.14"/>
<polygon fill="midnightblue" stroke="midnightblue" points="408.72,-215.46 419.3,-215.94 411.32,-208.97 408.72,-215.46"/>
</g>
<!-- Node3&#45;&gt;Node6 -->
<g id="edge5" class="edge">
<title>Node3&#45;&gt;Node6</title>
<path fill="none" stroke="midnightblue" d="M355.53,-135.44C374.22,-129.83 395.87,-123.34 413.91,-117.93"/>
<polygon fill="midnightblue" stroke="midnightblue" points="414.95,-121.27 423.53,-115.04 412.94,-114.56 414.95,-121.27"/>
</g>
<!-- Node7 -->
<g id="node7" class="node">
<title>Node7</title>
<g id="a_node7"><a xlink:href="structsvg_1_1typography.html#a174c1ffb4e56214d71523ffe7e422561" target="_top" xlink:title=" ">
<polygon fill="white" stroke="black" points="404.5,-134.5 404.5,-160.5 501.5,-160.5 501.5,-134.5 404.5,-134.5"/>
<text text-anchor="start" x="412.5" y="-150.1" font-family="SourceSans" font-size="8.00">svg::typography::to</text>
<text text-anchor="middle" x="453" y="-141.1" font-family="SourceSans" font-size="8.00">_string</text>
</a>
</g>
</g>
<!-- Node3&#45;&gt;Node7 -->
<g id="edge6" class="edge">
<title>Node3&#45;&gt;Node7</title>
<path fill="none" stroke="midnightblue" d="M363.34,-148.13C373.4,-148.06 384.03,-147.99 394.28,-147.91"/>
<polygon fill="midnightblue" stroke="midnightblue" points="394.41,-151.41 404.39,-147.84 394.36,-144.41 394.41,-151.41"/>
</g>
<!-- Node3&#45;&gt;Node8 -->
<g id="edge7" class="edge">
<title>Node3&#45;&gt;Node8</title>
<path fill="none" stroke="midnightblue" d="M328.19,-135.41C345.08,-122.24 372.72,-101.98 399,-88.5 403.89,-85.99 409.19,-83.67 414.49,-81.57"/>
<polygon fill="midnightblue" stroke="midnightblue" points="415.78,-84.82 423.92,-78.04 413.33,-78.26 415.78,-84.82"/>
</g>
<!-- Node9&#45;&gt;Node4 -->
<g id="edge9" class="edge">
<title>Node9&#45;&gt;Node4</title>
<path fill="none" stroke="midnightblue" d="M361.75,-191.72C370.55,-191.41 379.81,-191.08 388.91,-190.75"/>
<polygon fill="midnightblue" stroke="midnightblue" points="389.22,-194.24 399.09,-190.39 388.97,-187.25 389.22,-194.24"/>
</g>
<!-- Node9&#45;&gt;Node5 -->
<g id="edge10" class="edge">
<title>Node9&#45;&gt;Node5</title>
<path fill="none" stroke="midnightblue" d="M361.75,-204.52C375.28,-207.51 389.91,-210.75 403.38,-213.73"/>
<polygon fill="midnightblue" stroke="midnightblue" points="402.89,-217.21 413.41,-215.95 404.4,-210.38 402.89,-217.21"/>
</g>
<!-- Node10&#45;&gt;Node4 -->
<g id="edge12" class="edge">
<title>Node10&#45;&gt;Node4</title>
<path fill="none" stroke="midnightblue" d="M338,-225.96C359.97,-218.74 391.65,-208.33 416.04,-200.32"/>
<polygon fill="midnightblue" stroke="midnightblue" points="417.25,-203.6 425.66,-197.15 415.07,-196.95 417.25,-203.6"/>
</g>
<!-- Node10&#45;&gt;Node5 -->
<g id="edge13" class="edge">
<title>Node10&#45;&gt;Node5</title>
<path fill="none" stroke="midnightblue" d="M347.69,-231.95C360.21,-231.06 374.67,-230.02 388.76,-229.02"/>
<polygon fill="midnightblue" stroke="midnightblue" points="389.2,-232.49 398.92,-228.29 388.7,-225.51 389.2,-232.49"/>
</g>
<!-- Node11 -->
<g id="node11" class="node">
<title>Node11</title>
<g id="a_node11"><a xlink:href="structsvg_1_1colorq.html#adb55a2a48193fafa55340505862278e4" target="_top" xlink:title=" ">
<polygon fill="white" stroke="black" points="401,-252 401,-269 505,-269 505,-252 401,-252"/>
<text text-anchor="middle" x="453" y="-258.6" font-family="SourceSans" font-size="8.00">svg::colorq::to_string</text>
</a>
</g>
</g>
<!-- Node10&#45;&gt;Node11 -->
<g id="edge14" class="edge">
<title>Node10&#45;&gt;Node11</title>
<path fill="none" stroke="midnightblue" d="M347.69,-241.13C362.38,-243.86 379.75,-247.08 396.06,-250.11"/>
<polygon fill="midnightblue" stroke="midnightblue" points="395.58,-253.58 406.05,-251.97 396.85,-246.7 395.58,-253.58"/>
</g>
</g>
</svg>
        <g id="navigator" transform="translate(0 0)" fill="#404254">
                <rect fill="#f2f5e9" fill-opacity="0.5" stroke="#606060" stroke-width=".5" x="0" y="0" width="60" height="60"/>
                <use id="zoomplus" xlink:href="#zoomPlus" x="17" y="9" onmousedown="handleZoom(evt,'in')"/>
                <use id="zoomminus" xlink:href="#zoomMin" x="42" y="9" onmousedown="handleZoom(evt,'out')"/>
                <use id="reset" xlink:href="#resetDef" x="30" y="36" onmousedown="handleReset()"/>
                <g id="arrowUp" xlink:href="#dirArrow" transform="translate(30 24)" onmousedown="handlePan(0,-1)">
                  <use xlink:href="#rim" fill="#404040">
                        <set attributeName="fill" to="#808080" begin="arrowUp.mouseover" end="arrowUp.mouseout"/>
                  </use>
                  <path fill="none" stroke="white" stroke-width="1.5" d="M0,-3.0v7 M-2.5,-0.5L0,-3.0L2.5,-0.5"/>
                </g>
                <g id="arrowRight" xlink:href="#dirArrow" transform="rotate(90) translate(36 -43)" onmousedown="handlePan(1,0)">
                  <use xlink:href="#rim" fill="#404040">
                        <set attributeName="fill" to="#808080" begin="arrowRight.mouseover" end="arrowRight.mouseout"/>
                  </use>
                  <path fill="none" stroke="white" stroke-width="1.5" d="M0,-3.0v7 M-2.5,-0.5L0,-3.0L2.5,-0.5"/>
                </g>
                <g id="arrowDown" xlink:href="#dirArrow" transform="rotate(180) translate(-30 -48)" onmousedown="handlePan(0,1)">
                  <use xlink:href="#rim" fill="#404040">
                        <set attributeName="fill" to="#808080" begin="arrowDown.mouseover" end="arrowDown.mouseout"/>
                  </use>
                  <path fill="none" stroke="white" stroke-width="1.5" d="M0,-3.0v7 M-2.5,-0.5L0,-3.0L2.5,-0.5"/>
                </g>
                <g id="arrowLeft" xlink:href="#dirArrow" transform="rotate(270) translate(-36 17)" onmousedown="handlePan(-1,0)">
                  <use xlink:href="#rim" fill="#404040">
                        <set attributeName="fill" to="#808080" begin="arrowLeft.mouseover" end="arrowLeft.mouseout"/>
                  </use>
                  <path fill="none" stroke="white" stroke-width="1.5" d="M0,-3.0v7 M-2.5,-0.5L0,-3.0L2.5,-0.5"/>
                </g>
        </g>
        <svg viewBox="0 0 15 15" width="100%" height="30px" preserveAspectRatio="xMaxYMin meet">
         <g id="arrow_out" transform="scale(0.3 0.3)">
          <a xlink:href="namespacesvg_ab2d2020c33da2e0215837673e530b991_cgraph_org.svg" target="_base">
           <rect id="button" ry="5" rx="5" y="6" x="6" height="38" width="38"
                fill="#f2f5e9" fill-opacity="0.5" stroke="#606060" stroke-width="1.0"/>
           <path id="arrow"
             d="M 11.500037,31.436501 C 11.940474,20.09759 22.043105,11.32322 32.158766,21.979434 L 37.068811,17.246167 C 37.068811,17.246167 37.088388,32 37.088388,32 L 22.160133,31.978069 C 22.160133,31.978069 26.997745,27.140456 26.997745,27.140456 C 18.528582,18.264221 13.291696,25.230495 11.500037,31.436501 z"
             style="fill:#404040;"/>
          </a>
         </g>
        </svg>
</svg>
