<?xml version="1.0" encoding="UTF-8" standalone="no"?>
<!DOCTYPE svg PUBLIC "-//W3C//DTD SVG 1.1//EN"
 "http://www.w3.org/Graphics/SVG/1.1/DTD/svg11.dtd">
<!-- Generated by graphviz version 2.44.0 (0)
 -->
<!-- Title: svg::styled_text Pages: 1 -->
<!--zoomable 278 -->
<svg id="main" version="1.1" xmlns="http://www.w3.org/2000/svg" xmlns:xlink="http://www.w3.org/1999/xlink" xml:space="preserve" onload="init(evt)">
<style type="text/css"><![CDATA[
.edge:hover path { stroke: red; }
.edge:hover polygon { stroke: red; fill: red; }
]]></style>
<script type="text/javascript"><![CDATA[
var edges = document.getElementsByTagName('g');
if (edges && edges.length) {
  for (var i=0;i<edges.length;i++) {
    if (edges[i].id.substr(0,4)=='edge') {
      edges[i].setAttribute('class','edge');
    }
  }
}
]]></script>
        <defs>
                <circle id="rim" cx="0" cy="0" r="7"/>
                <circle id="rim2" cx="0" cy="0" r="3.5"/>
                <g id="zoomPlus">
                        <use xlink:href="#rim" fill="#404040">
                                <set attributeName="fill" to="#808080" begin="zoomplus.mouseover" end="zoomplus.mouseout"/>
                        </use>
                        <path d="M-4,0h8M0,-4v8" fill="none" stroke="white" stroke-width="1.5" pointer-events="none"/>
                </g>
                <g id="zoomMin">
                        <use xlink:href="#rim" fill="#404040">
                                <set attributeName="fill" to="#808080" begin="zoomminus.mouseover" end="zoomminus.mouseout"/>
                        </use>
                        <path d="M-4,0h8" fill="none" stroke="white" stroke-width="1.5" pointer-events="none"/>
                </g>
                <g id="dirArrow">
                        <path fill="none" stroke="white" stroke-width="1.5" d="M0,-3.0v7 M-2.5,-0.5L0,-3.0L2.5,-0.5"/>
                </g>
               <g id="resetDef">
                       <use xlink:href="#rim2" fill="#404040">
                               <set attributeName="fill" to="#808080" begin="reset.mouseover" end="reset.mouseout"/>
                       </use>
               </g>
        </defs>

<script type="text/javascript">
var viewWidth = 518;
var viewHeight = 278;
var sectionId = 'dynsection-57';
</script>
<script xlink:href="svgpan.js"/>
<svg id="graph" class="graph">
<g id="viewport">
<title>svg::styled_text</title>
<polygon fill="white" stroke="transparent" points="-4,4 -4,-273.5 514,-273.5 514,4 -4,4"/>
<!-- Node1 -->
<g id="node1" class="node">
<title>Node1</title>
<g id="a_node1"><a xlink:title="Text at @origin, with a transformation=rotation of @deg about @origin add .">
<polygon fill="#bfbfbf" stroke="black" points="0,-72 0,-89 80,-89 80,-72 0,-72"/>
<text text-anchor="middle" x="40" y="-78.6" font-family="SourceSans" font-size="8.00">svg::styled_text</text>
</a>
</g>
</g>
<!-- Node2 -->
<g id="node2" class="node">
<title>Node2</title>
<g id="a_node2"><a xlink:href="structsvg_1_1text__element.html#a87be030b88c17a86a690b31e95b60612" target="_top" xlink:title="Either serialize immediately (as below), or create data structure that adds data to data_vec and then...">
<polygon fill="white" stroke="black" points="123.5,-135.5 123.5,-161.5 218.5,-161.5 218.5,-135.5 123.5,-135.5"/>
<text text-anchor="start" x="131.5" y="-151.1" font-family="SourceSans" font-size="8.00">svg::text_element::</text>
<text text-anchor="middle" x="171" y="-142.1" font-family="SourceSans" font-size="8.00">add_data</text>
</a>
</g>
</g>
<!-- Node1&#45;&gt;Node2 -->
<g id="edge1" class="edge">
<title>Node1&#45;&gt;Node2</title>
<path fill="none" stroke="midnightblue" d="M53.64,-89.14C68.26,-98.92 93.24,-114.98 116,-126.5 119.31,-128.18 122.78,-129.82 126.3,-131.41"/>
<polygon fill="midnightblue" stroke="midnightblue" points="125.06,-134.7 135.63,-135.48 127.86,-128.28 125.06,-134.7"/>
</g>
<!-- Node12 -->
<g id="node12" class="node">
<title>Node12</title>
<g id="a_node12"><a xlink:href="structsvg_1_1svg__element.html#adb6116b96467cc39cb178deb10c7a869" target="_top" xlink:title=" ">
<polygon fill="white" stroke="black" points="116,-90.5 116,-116.5 226,-116.5 226,-90.5 116,-90.5"/>
<text text-anchor="start" x="124" y="-106.1" font-family="SourceSans" font-size="8.00">svg::svg_element::add</text>
<text text-anchor="middle" x="171" y="-97.1" font-family="SourceSans" font-size="8.00">_element</text>
</a>
</g>
</g>
<!-- Node1&#45;&gt;Node12 -->
<g id="edge17" class="edge">
<title>Node1&#45;&gt;Node12</title>
<path fill="none" stroke="midnightblue" d="M80.05,-87.46C88.24,-88.92 97.09,-90.5 105.92,-92.07"/>
<polygon fill="midnightblue" stroke="midnightblue" points="105.39,-95.54 115.85,-93.84 106.62,-88.64 105.39,-95.54"/>
</g>
<!-- Node13 -->
<g id="node13" class="node">
<title>Node13</title>
<g id="a_node13"><a xlink:href="group__elements.html#ga13c46848317034d16c62a7d2061ba3d6" target="_top" xlink:title=" ">
<polygon fill="white" stroke="black" points="123.5,-45.5 123.5,-71.5 218.5,-71.5 218.5,-45.5 123.5,-45.5"/>
<text text-anchor="start" x="131.5" y="-61.1" font-family="SourceSans" font-size="8.00">svg::text_element::</text>
<text text-anchor="middle" x="171" y="-52.1" font-family="SourceSans" font-size="8.00">finish_element</text>
</a>
</g>
</g>
<!-- Node1&#45;&gt;Node13 -->
<g id="edge18" class="edge">
<title>Node1&#45;&gt;Node13</title>
<path fill="none" stroke="midnightblue" d="M80.05,-73.84C90.5,-72.06 102.01,-70.1 113.2,-68.19"/>
<polygon fill="midnightblue" stroke="midnightblue" points="114.08,-71.59 123.35,-66.46 112.91,-64.69 114.08,-71.59"/>
</g>
<!-- Node14 -->
<g id="node14" class="node">
<title>Node14</title>
<g id="a_node14"><a xlink:href="structsvg_1_1text__element.html#ae45bec611a6ec17ea46aab6d680ae042" target="_top" xlink:title=" ">
<polygon fill="white" stroke="black" points="123.5,-0.5 123.5,-26.5 218.5,-26.5 218.5,-0.5 123.5,-0.5"/>
<text text-anchor="start" x="131.5" y="-16.1" font-family="SourceSans" font-size="8.00">svg::text_element::</text>
<text text-anchor="middle" x="171" y="-7.1" font-family="SourceSans" font-size="8.00">start_element</text>
</a>
</g>
</g>
<!-- Node1&#45;&gt;Node14 -->
<g id="edge19" class="edge">
<title>Node1&#45;&gt;Node14</title>
<path fill="none" stroke="midnightblue" d="M53.93,-71.9C68.61,-62.35 93.45,-46.77 116,-35.5 119.32,-33.84 122.79,-32.21 126.31,-30.62"/>
<polygon fill="midnightblue" stroke="midnightblue" points="127.88,-33.76 135.65,-26.57 125.09,-27.34 127.88,-33.76"/>
</g>
<!-- Node3 -->
<g id="node3" class="node">
<title>Node3</title>
<g id="a_node3"><a xlink:href="structsvg_1_1typography.html#a70f61596bba3e0bd67b43a8fc553dbfa" target="_top" xlink:title=" ">
<polygon fill="white" stroke="black" points="262,-135.5 262,-161.5 366,-161.5 366,-135.5 262,-135.5"/>
<text text-anchor="start" x="270" y="-151.1" font-family="SourceSans" font-size="8.00">svg::typography::add</text>
<text text-anchor="middle" x="314" y="-142.1" font-family="SourceSans" font-size="8.00">_attribute</text>
</a>
</g>
</g>
<!-- Node2&#45;&gt;Node3 -->
<g id="edge2" class="edge">
<title>Node2&#45;&gt;Node3</title>
<path fill="none" stroke="midnightblue" d="M218.56,-148.5C229.12,-148.5 240.5,-148.5 251.57,-148.5"/>
<polygon fill="midnightblue" stroke="midnightblue" points="251.63,-152 261.63,-148.5 251.63,-145 251.63,-152"/>
</g>
<!-- Node6 -->
<g id="node6" class="node">
<title>Node6</title>
<g id="a_node6"><a xlink:href="namespacesvg.html#a48ac748e89e22789d1772326a98dd7b6" target="_top" xlink:title=" ">
<polygon fill="white" stroke="black" points="409,-98 409,-115 503,-115 503,-98 409,-98"/>
<text text-anchor="middle" x="456" y="-104.6" font-family="SourceSans" font-size="8.00">svg::string_replace</text>
</a>
</g>
</g>
<!-- Node2&#45;&gt;Node6 -->
<g id="edge15" class="edge">
<title>Node2&#45;&gt;Node6</title>
<path fill="none" stroke="midnightblue" d="M218.92,-135.75C232.72,-132.35 247.89,-128.94 262,-126.5 307.7,-118.58 360.08,-113.4 398.73,-110.29"/>
<polygon fill="midnightblue" stroke="midnightblue" points="399.05,-113.78 408.74,-109.51 398.5,-106.8 399.05,-113.78"/>
</g>
<!-- Node8 -->
<g id="node8" class="node">
<title>Node8</title>
<g id="a_node8"><a xlink:href="namespacesvg.html#a36b1c48ad4601b205790e3772ad0a7b6" target="_top" xlink:title=" ">
<polygon fill="white" stroke="black" points="420,-61 420,-78 492,-78 492,-61 420,-61"/>
<text text-anchor="middle" x="456" y="-67.6" font-family="SourceSans" font-size="8.00">svg::to_string</text>
</a>
</g>
</g>
<!-- Node2&#45;&gt;Node8 -->
<g id="edge16" class="edge">
<title>Node2&#45;&gt;Node8</title>
<path fill="none" stroke="midnightblue" d="M204.96,-135.4C211.94,-132.54 219.23,-129.47 226,-126.5 242.2,-119.38 245.22,-115.11 262,-109.5 311.41,-92.97 370.31,-81.96 409.94,-75.74"/>
<polygon fill="midnightblue" stroke="midnightblue" points="410.48,-79.2 419.83,-74.23 409.42,-72.28 410.48,-79.2"/>
</g>
<!-- Node9 -->
<g id="node9" class="node">
<title>Node9</title>
<g id="a_node9"><a xlink:href="structsvg_1_1element__base.html#a53d72a7ff728ad1d4d027254530bcf3d" target="_top" xlink:title="Common transforms include rotate(180)">
<polygon fill="white" stroke="black" points="263.5,-180.5 263.5,-206.5 364.5,-206.5 364.5,-180.5 263.5,-180.5"/>
<text text-anchor="start" x="271.5" y="-196.1" font-family="SourceSans" font-size="8.00">svg::element_base::</text>
<text text-anchor="middle" x="314" y="-187.1" font-family="SourceSans" font-size="8.00">add_transform</text>
</a>
</g>
</g>
<!-- Node2&#45;&gt;Node9 -->
<g id="edge8" class="edge">
<title>Node2&#45;&gt;Node9</title>
<path fill="none" stroke="midnightblue" d="M212.78,-161.52C228.14,-166.42 245.8,-172.05 261.97,-177.22"/>
<polygon fill="midnightblue" stroke="midnightblue" points="261.23,-180.65 271.82,-180.36 263.36,-173.98 261.23,-180.65"/>
</g>
<!-- Node10 -->
<g id="node10" class="node">
<title>Node10</title>
<g id="a_node10"><a xlink:href="structsvg_1_1style.html#a724baeff8a062d71724ea2eeece5c6a3" target="_top" xlink:title=" ">
<polygon fill="white" stroke="black" points="277.5,-226 277.5,-243 350.5,-243 350.5,-226 277.5,-226"/>
<text text-anchor="middle" x="314" y="-232.6" font-family="SourceSans" font-size="8.00">svg::style::str</text>
</a>
</g>
</g>
<!-- Node2&#45;&gt;Node10 -->
<g id="edge11" class="edge">
<title>Node2&#45;&gt;Node10</title>
<path fill="none" stroke="midnightblue" d="M186.32,-161.56C203.32,-176.51 233.02,-200.92 262,-216.5 265.92,-218.61 270.14,-220.55 274.41,-222.32"/>
<polygon fill="midnightblue" stroke="midnightblue" points="273.15,-225.59 283.74,-225.91 275.67,-219.05 273.15,-225.59"/>
</g>
<!-- Node4 -->
<g id="node4" class="node">
<title>Node4</title>
<g id="a_node4"><a xlink:href="namespacesvg_1_1constants.html#a3972655f1dfdc090ec2592d1fb37e87c" target="_top" xlink:title=" ">
<polygon fill="white" stroke="black" points="402.5,-180 402.5,-197 509.5,-197 509.5,-180 402.5,-180"/>
<text text-anchor="middle" x="456" y="-186.6" font-family="SourceSans" font-size="8.00">svg::constants::quote</text>
</a>
</g>
</g>
<!-- Node3&#45;&gt;Node4 -->
<g id="edge3" class="edge">
<title>Node3&#45;&gt;Node4</title>
<path fill="none" stroke="midnightblue" d="M360.84,-161.6C378.28,-166.58 397.99,-172.21 414.86,-177.03"/>
<polygon fill="midnightblue" stroke="midnightblue" points="414.37,-180.53 424.95,-179.91 416.29,-173.8 414.37,-180.53"/>
</g>
<!-- Node5 -->
<g id="node5" class="node">
<title>Node5</title>
<g id="a_node5"><a xlink:href="namespacesvg_1_1constants.html#ac460bc8db60d85c3ae1cf8b1a903405e" target="_top" xlink:title="Formatting character constants.">
<polygon fill="white" stroke="black" points="402,-216 402,-233 510,-233 510,-216 402,-216"/>
<text text-anchor="middle" x="456" y="-222.6" font-family="SourceSans" font-size="8.00">svg::constants::space</text>
</a>
</g>
</g>
<!-- Node3&#45;&gt;Node5 -->
<g id="edge4" class="edge">
<title>Node3&#45;&gt;Node5</title>
<path fill="none" stroke="midnightblue" d="M348.55,-161.61C354.56,-164.52 360.62,-167.84 366,-171.5 384.45,-184.05 382.97,-194.85 402,-206.5 405.4,-208.58 409.07,-210.46 412.84,-212.14"/>
<polygon fill="midnightblue" stroke="midnightblue" points="411.72,-215.46 422.3,-215.94 414.32,-208.97 411.72,-215.46"/>
</g>
<!-- Node3&#45;&gt;Node6 -->
<g id="edge5" class="edge">
<title>Node3&#45;&gt;Node6</title>
<path fill="none" stroke="midnightblue" d="M358.53,-135.44C377.22,-129.83 398.87,-123.34 416.91,-117.93"/>
<polygon fill="midnightblue" stroke="midnightblue" points="417.95,-121.27 426.53,-115.04 415.94,-114.56 417.95,-121.27"/>
</g>
<!-- Node7 -->
<g id="node7" class="node">
<title>Node7</title>
<g id="a_node7"><a xlink:href="structsvg_1_1typography.html#a174c1ffb4e56214d71523ffe7e422561" target="_top" xlink:title=" ">
<polygon fill="white" stroke="black" points="407.5,-134.5 407.5,-160.5 504.5,-160.5 504.5,-134.5 407.5,-134.5"/>
<text text-anchor="start" x="415.5" y="-150.1" font-family="SourceSans" font-size="8.00">svg::typography::to</text>
<text text-anchor="middle" x="456" y="-141.1" font-family="SourceSans" font-size="8.00">_string</text>
</a>
</g>
</g>
<!-- Node3&#45;&gt;Node7 -->
<g id="edge6" class="edge">
<title>Node3&#45;&gt;Node7</title>
<path fill="none" stroke="midnightblue" d="M366.34,-148.13C376.4,-148.06 387.03,-147.99 397.28,-147.91"/>
<polygon fill="midnightblue" stroke="midnightblue" points="397.41,-151.41 407.39,-147.84 397.36,-144.41 397.41,-151.41"/>
</g>
<!-- Node3&#45;&gt;Node8 -->
<g id="edge7" class="edge">
<title>Node3&#45;&gt;Node8</title>
<path fill="none" stroke="midnightblue" d="M331.19,-135.41C348.08,-122.24 375.72,-101.98 402,-88.5 406.89,-85.99 412.19,-83.67 417.49,-81.57"/>
<polygon fill="midnightblue" stroke="midnightblue" points="418.78,-84.82 426.92,-78.04 416.33,-78.26 418.78,-84.82"/>
</g>
<!-- Node9&#45;&gt;Node4 -->
<g id="edge9" class="edge">
<title>Node9&#45;&gt;Node4</title>
<path fill="none" stroke="midnightblue" d="M364.75,-191.72C373.55,-191.41 382.81,-191.08 391.91,-190.75"/>
<polygon fill="midnightblue" stroke="midnightblue" points="392.22,-194.24 402.09,-190.39 391.97,-187.25 392.22,-194.24"/>
</g>
<!-- Node9&#45;&gt;Node5 -->
<g id="edge10" class="edge">
<title>Node9&#45;&gt;Node5</title>
<path fill="none" stroke="midnightblue" d="M364.75,-204.52C378.28,-207.51 392.91,-210.75 406.38,-213.73"/>
<polygon fill="midnightblue" stroke="midnightblue" points="405.89,-217.21 416.41,-215.95 407.4,-210.38 405.89,-217.21"/>
</g>
<!-- Node10&#45;&gt;Node4 -->
<g id="edge12" class="edge">
<title>Node10&#45;&gt;Node4</title>
<path fill="none" stroke="midnightblue" d="M341,-225.96C362.97,-218.74 394.65,-208.33 419.04,-200.32"/>
<polygon fill="midnightblue" stroke="midnightblue" points="420.25,-203.6 428.66,-197.15 418.07,-196.95 420.25,-203.6"/>
</g>
<!-- Node10&#45;&gt;Node5 -->
<g id="edge13" class="edge">
<title>Node10&#45;&gt;Node5</title>
<path fill="none" stroke="midnightblue" d="M350.69,-231.95C363.21,-231.06 377.67,-230.02 391.76,-229.02"/>
<polygon fill="midnightblue" stroke="midnightblue" points="392.2,-232.49 401.92,-228.29 391.7,-225.51 392.2,-232.49"/>
</g>
<!-- Node11 -->
<g id="node11" class="node">
<title>Node11</title>
<g id="a_node11"><a xlink:href="structsvg_1_1colorq.html#adb55a2a48193fafa55340505862278e4" target="_top" xlink:title=" ">
<polygon fill="white" stroke="black" points="404,-252 404,-269 508,-269 508,-252 404,-252"/>
<text text-anchor="middle" x="456" y="-258.6" font-family="SourceSans" font-size="8.00">svg::colorq::to_string</text>
</a>
</g>
</g>
<!-- Node10&#45;&gt;Node11 -->
<g id="edge14" class="edge">
<title>Node10&#45;&gt;Node11</title>
<path fill="none" stroke="midnightblue" d="M350.69,-241.13C365.38,-243.86 382.75,-247.08 399.06,-250.11"/>
<polygon fill="midnightblue" stroke="midnightblue" points="398.58,-253.58 409.05,-251.97 399.85,-246.7 398.58,-253.58"/>
</g>
</g>
</svg>
        <g id="navigator" transform="translate(0 0)" fill="#404254">
                <rect fill="#f2f5e9" fill-opacity="0.5" stroke="#606060" stroke-width=".5" x="0" y="0" width="60" height="60"/>
                <use id="zoomplus" xlink:href="#zoomPlus" x="17" y="9" onmousedown="handleZoom(evt,'in')"/>
                <use id="zoomminus" xlink:href="#zoomMin" x="42" y="9" onmousedown="handleZoom(evt,'out')"/>
                <use id="reset" xlink:href="#resetDef" x="30" y="36" onmousedown="handleReset()"/>
                <g id="arrowUp" xlink:href="#dirArrow" transform="translate(30 24)" onmousedown="handlePan(0,-1)">
                  <use xlink:href="#rim" fill="#404040">
                        <set attributeName="fill" to="#808080" begin="arrowUp.mouseover" end="arrowUp.mouseout"/>
                  </use>
                  <path fill="none" stroke="white" stroke-width="1.5" d="M0,-3.0v7 M-2.5,-0.5L0,-3.0L2.5,-0.5"/>
                </g>
                <g id="arrowRight" xlink:href="#dirArrow" transform="rotate(90) translate(36 -43)" onmousedown="handlePan(1,0)">
                  <use xlink:href="#rim" fill="#404040">
                        <set attributeName="fill" to="#808080" begin="arrowRight.mouseover" end="arrowRight.mouseout"/>
                  </use>
                  <path fill="none" stroke="white" stroke-width="1.5" d="M0,-3.0v7 M-2.5,-0.5L0,-3.0L2.5,-0.5"/>
                </g>
                <g id="arrowDown" xlink:href="#dirArrow" transform="rotate(180) translate(-30 -48)" onmousedown="handlePan(0,1)">
                  <use xlink:href="#rim" fill="#404040">
                        <set attributeName="fill" to="#808080" begin="arrowDown.mouseover" end="arrowDown.mouseout"/>
                  </use>
                  <path fill="none" stroke="white" stroke-width="1.5" d="M0,-3.0v7 M-2.5,-0.5L0,-3.0L2.5,-0.5"/>
                </g>
                <g id="arrowLeft" xlink:href="#dirArrow" transform="rotate(270) translate(-36 17)" onmousedown="handlePan(-1,0)">
                  <use xlink:href="#rim" fill="#404040">
                        <set attributeName="fill" to="#808080" begin="arrowLeft.mouseover" end="arrowLeft.mouseout"/>
                  </use>
                  <path fill="none" stroke="white" stroke-width="1.5" d="M0,-3.0v7 M-2.5,-0.5L0,-3.0L2.5,-0.5"/>
                </g>
        </g>
        <svg viewBox="0 0 15 15" width="100%" height="30px" preserveAspectRatio="xMaxYMin meet">
         <g id="arrow_out" transform="scale(0.3 0.3)">
          <a xlink:href="namespacesvg_a1bd098f9260738f0a6e92f42e9ef514c_cgraph_org.svg" target="_base">
           <rect id="button" ry="5" rx="5" y="6" x="6" height="38" width="38"
                fill="#f2f5e9" fill-opacity="0.5" stroke="#606060" stroke-width="1.0"/>
           <path id="arrow"
             d="M 11.500037,31.436501 C 11.940474,20.09759 22.043105,11.32322 32.158766,21.979434 L 37.068811,17.246167 C 37.068811,17.246167 37.088388,32 37.088388,32 L 22.160133,31.978069 C 22.160133,31.978069 26.997745,27.140456 26.997745,27.140456 C 18.528582,18.264221 13.291696,25.230495 11.500037,31.436501 z"
             style="fill:#404040;"/>
          </a>
         </g>
        </svg>
</svg>
