<?xml version="1.0" encoding="UTF-8" standalone="no"?>
<!DOCTYPE svg PUBLIC "-//W3C//DTD SVG 1.1//EN"
 "http://www.w3.org/Graphics/SVG/1.1/DTD/svg11.dtd">
<!-- Generated by graphviz version 2.44.0 (0)
 -->
<!-- Title: svg::text_element::add_data Pages: 1 -->
<svg width="525pt" height="230pt"
 viewBox="0.00 0.00 525.00 229.50" xmlns="http://www.w3.org/2000/svg" xmlns:xlink="http://www.w3.org/1999/xlink">
<g id="graph0" class="graph" transform="scale(1 1) rotate(0) translate(4 225.5)">
<title>svg::text_element::add_data</title>
<polygon fill="white" stroke="transparent" points="-4,4 -4,-225.5 521,-225.5 521,4 -4,4"/>
<!-- Node1 -->
<g id="node1" class="node">
<title>Node1</title>
<g id="a_node1"><a xlink:title="Either serialize immediately (as below), or create data structure that adds data to data_vec and then...">
<polygon fill="#bfbfbf" stroke="black" points="0,-57 0,-83 95,-83 95,-57 0,-57"/>
<text text-anchor="start" x="8" y="-72.6" font-family="SourceSans" font-size="8.00">svg::text_element::</text>
<text text-anchor="middle" x="47.5" y="-63.6" font-family="SourceSans" font-size="8.00">add_data</text>
</a>
</g>
</g>
<!-- Node2 -->
<g id="node2" class="node">
<title>Node2</title>
<g id="a_node2"><a xlink:href="structsvg_1_1typography.html#adbc62f74f1fed3f7c77567250f084f83" target="_top" xlink:title=" ">
<polygon fill="white" stroke="black" points="131,-78 131,-104 236,-104 236,-78 131,-78"/>
<text text-anchor="start" x="139" y="-93.6" font-family="SourceSans" font-size="8.00">svg::typography::add</text>
<text text-anchor="middle" x="183.5" y="-84.6" font-family="SourceSans" font-size="8.00">_attribute</text>
</a>
</g>
</g>
<!-- Node1&#45;&gt;Node2 -->
<g id="edge1" class="edge">
<title>Node1&#45;&gt;Node2</title>
<path fill="none" stroke="midnightblue" d="M95.37,-77.34C103.61,-78.64 112.31,-80 120.88,-81.34"/>
<polygon fill="midnightblue" stroke="midnightblue" points="120.44,-84.82 130.86,-82.91 121.52,-77.9 120.44,-84.82"/>
</g>
<!-- Node5 -->
<g id="node5" class="node">
<title>Node5</title>
<g id="a_node5"><a xlink:href="namespacesvg.html#a48ac748e89e22789d1772326a98dd7b6" target="_top" xlink:title=" ">
<polygon fill="white" stroke="black" points="275,-0.5 275,-17.5 370,-17.5 370,-0.5 275,-0.5"/>
<text text-anchor="middle" x="322.5" y="-7.1" font-family="SourceSans" font-size="8.00">svg::string_replace</text>
</a>
</g>
</g>
<!-- Node1&#45;&gt;Node5 -->
<g id="edge13" class="edge">
<title>Node1&#45;&gt;Node5</title>
<path fill="none" stroke="midnightblue" d="M95.21,-60.45C133.19,-52.58 188.15,-40.98 236,-30 249.65,-26.87 264.49,-23.29 277.91,-19.98"/>
<polygon fill="midnightblue" stroke="midnightblue" points="278.99,-23.32 287.85,-17.52 277.3,-16.52 278.99,-23.32"/>
</g>
<!-- Node9 -->
<g id="node9" class="node">
<title>Node9</title>
<g id="a_node9"><a xlink:href="group__elements.html#a53d72a7ff728ad1d4d027254530bcf3d" target="_top" xlink:title="Common transforms include rotate(180)">
<polygon fill="white" stroke="black" points="272,-195 272,-221 373,-221 373,-195 272,-195"/>
<text text-anchor="start" x="280" y="-210.6" font-family="SourceSans" font-size="8.00">svg::element_base::</text>
<text text-anchor="middle" x="322.5" y="-201.6" font-family="SourceSans" font-size="8.00">add_transform</text>
</a>
</g>
</g>
<!-- Node1&#45;&gt;Node9 -->
<g id="edge10" class="edge">
<title>Node1&#45;&gt;Node9</title>
<path fill="none" stroke="midnightblue" d="M72.58,-83.1C88.98,-91.96 111.21,-103.85 131,-114 184.24,-141.32 246.51,-171.77 284.99,-190.41"/>
<polygon fill="midnightblue" stroke="midnightblue" points="283.71,-193.68 294.23,-194.88 286.76,-187.38 283.71,-193.68"/>
</g>
<!-- Node10 -->
<g id="node10" class="node">
<title>Node10</title>
<g id="a_node10"><a xlink:href="namespacesvg.html#a36b1c48ad4601b205790e3772ad0a7b6" target="_top" xlink:title=" ">
<polygon fill="white" stroke="black" points="147.5,-3.5 147.5,-20.5 219.5,-20.5 219.5,-3.5 147.5,-3.5"/>
<text text-anchor="middle" x="183.5" y="-10.1" font-family="SourceSans" font-size="8.00">svg::to_string</text>
</a>
</g>
</g>
<!-- Node1&#45;&gt;Node10 -->
<g id="edge14" class="edge">
<title>Node1&#45;&gt;Node10</title>
<path fill="none" stroke="midnightblue" d="M78.57,-56.98C100.89,-47.32 131.15,-34.23 153.27,-24.65"/>
<polygon fill="midnightblue" stroke="midnightblue" points="154.71,-27.84 162.5,-20.66 151.93,-21.42 154.71,-27.84"/>
</g>
<!-- Node3 -->
<g id="node3" class="node">
<title>Node3</title>
<g id="a_node3"><a xlink:href="namespacesvg_1_1constants.html#a3972655f1dfdc090ec2592d1fb37e87c" target="_top" xlink:title=" ">
<polygon fill="white" stroke="black" points="409.5,-119.5 409.5,-136.5 516.5,-136.5 516.5,-119.5 409.5,-119.5"/>
<text text-anchor="middle" x="463" y="-126.1" font-family="SourceSans" font-size="8.00">svg::constants::quote</text>
</a>
</g>
</g>
<!-- Node2&#45;&gt;Node3 -->
<g id="edge2" class="edge">
<title>Node2&#45;&gt;Node3</title>
<path fill="none" stroke="midnightblue" d="M236.16,-102.55C247.9,-104.92 260.35,-107.22 272,-109 314.24,-115.44 362.1,-120.21 399.23,-123.36"/>
<polygon fill="midnightblue" stroke="midnightblue" points="399.14,-126.87 409.4,-124.21 399.72,-119.89 399.14,-126.87"/>
</g>
<!-- Node4 -->
<g id="node4" class="node">
<title>Node4</title>
<g id="a_node4"><a xlink:href="namespacesvg_1_1constants.html#ac460bc8db60d85c3ae1cf8b1a903405e" target="_top" xlink:title="Formatting character constants.">
<polygon fill="white" stroke="black" points="409,-157.5 409,-174.5 517,-174.5 517,-157.5 409,-157.5"/>
<text text-anchor="middle" x="463" y="-164.1" font-family="SourceSans" font-size="8.00">svg::constants::space</text>
</a>
</g>
</g>
<!-- Node2&#45;&gt;Node4 -->
<g id="edge3" class="edge">
<title>Node2&#45;&gt;Node4</title>
<path fill="none" stroke="midnightblue" d="M211.55,-104.12C228.58,-111.96 251.19,-121.59 272,-128 313.44,-140.76 361.31,-150.3 398.63,-156.63"/>
<polygon fill="midnightblue" stroke="midnightblue" points="398.43,-160.15 408.87,-158.34 399.57,-153.24 398.43,-160.15"/>
</g>
<!-- Node2&#45;&gt;Node5 -->
<g id="edge4" class="edge">
<title>Node2&#45;&gt;Node5</title>
<path fill="none" stroke="midnightblue" d="M212.12,-77.86C220.12,-73.57 228.66,-68.48 236,-63 254.13,-49.46 252.91,-39.15 272,-27 275.16,-24.99 278.57,-23.16 282.07,-21.51"/>
<polygon fill="midnightblue" stroke="midnightblue" points="283.6,-24.66 291.45,-17.55 280.88,-18.22 283.6,-24.66"/>
</g>
<!-- Node6 -->
<g id="node6" class="node">
<title>Node6</title>
<g id="a_node6"><a xlink:href="structsvg_1_1typography.html#a174c1ffb4e56214d71523ffe7e422561" target="_top" xlink:title=" ">
<polygon fill="white" stroke="black" points="273.5,-37 273.5,-63 371.5,-63 371.5,-37 273.5,-37"/>
<text text-anchor="start" x="281.5" y="-52.6" font-family="SourceSans" font-size="8.00">svg::typography::to</text>
<text text-anchor="middle" x="322.5" y="-43.6" font-family="SourceSans" font-size="8.00">_string</text>
</a>
</g>
</g>
<!-- Node2&#45;&gt;Node6 -->
<g id="edge5" class="edge">
<title>Node2&#45;&gt;Node6</title>
<path fill="none" stroke="midnightblue" d="M228.22,-77.91C240.83,-74.14 254.73,-69.98 267.86,-66.05"/>
<polygon fill="midnightblue" stroke="midnightblue" points="269.14,-69.32 277.72,-63.1 267.14,-62.62 269.14,-69.32"/>
</g>
<!-- Node7 -->
<g id="node7" class="node">
<title>Node7</title>
<g id="a_node7"><a xlink:href="namespacesvg.html#a7363f3de9a003a4399e7ede9036299d4" target="_top" xlink:title=" ">
<polygon fill="white" stroke="black" points="286.5,-82.5 286.5,-99.5 358.5,-99.5 358.5,-82.5 286.5,-82.5"/>
<text text-anchor="middle" x="322.5" y="-89.1" font-family="SourceSans" font-size="8.00">svg::to_string</text>
</a>
</g>
</g>
<!-- Node2&#45;&gt;Node7 -->
<g id="edge6" class="edge">
<title>Node2&#45;&gt;Node7</title>
<path fill="none" stroke="midnightblue" d="M236.29,-91C249.32,-91 263.2,-91 275.89,-91"/>
<polygon fill="midnightblue" stroke="midnightblue" points="276.24,-94.5 286.24,-91 276.24,-87.5 276.24,-94.5"/>
</g>
<!-- Node7&#45;&gt;Node3 -->
<g id="edge7" class="edge">
<title>Node7&#45;&gt;Node3</title>
<path fill="none" stroke="midnightblue" d="M355.62,-99.58C374.85,-104.72 399.5,-111.3 420.23,-116.84"/>
<polygon fill="midnightblue" stroke="midnightblue" points="419.49,-120.27 430.05,-119.46 421.29,-113.5 419.49,-120.27"/>
</g>
<!-- Node7&#45;&gt;Node4 -->
<g id="edge8" class="edge">
<title>Node7&#45;&gt;Node4</title>
<path fill="none" stroke="midnightblue" d="M335.2,-99.67C351.25,-111.28 381.25,-132.04 409,-146 414.52,-148.78 420.51,-151.39 426.42,-153.76"/>
<polygon fill="midnightblue" stroke="midnightblue" points="425.6,-157.19 436.19,-157.5 428.1,-150.66 425.6,-157.19"/>
</g>
<!-- Node8 -->
<g id="node8" class="node">
<title>Node8</title>
<g id="a_node8"><a xlink:href="structsvg_1_1colorq.html#adb55a2a48193fafa55340505862278e4" target="_top" xlink:title=" ">
<polygon fill="white" stroke="black" points="411,-82.5 411,-99.5 515,-99.5 515,-82.5 411,-82.5"/>
<text text-anchor="middle" x="463" y="-89.1" font-family="SourceSans" font-size="8.00">svg::colorq::to_string</text>
</a>
</g>
</g>
<!-- Node7&#45;&gt;Node8 -->
<g id="edge9" class="edge">
<title>Node7&#45;&gt;Node8</title>
<path fill="none" stroke="midnightblue" d="M358.81,-91C371.51,-91 386.24,-91 400.53,-91"/>
<polygon fill="midnightblue" stroke="midnightblue" points="400.81,-94.5 410.81,-91 400.81,-87.5 400.81,-94.5"/>
</g>
<!-- Node9&#45;&gt;Node3 -->
<g id="edge11" class="edge">
<title>Node9&#45;&gt;Node3</title>
<path fill="none" stroke="midnightblue" d="M339.42,-194.98C356.03,-181.86 383.19,-161.65 409,-148 414.35,-145.17 420.18,-142.55 425.97,-140.2"/>
<polygon fill="midnightblue" stroke="midnightblue" points="427.48,-143.36 435.55,-136.5 424.96,-136.83 427.48,-143.36"/>
</g>
<!-- Node9&#45;&gt;Node4 -->
<g id="edge12" class="edge">
<title>Node9&#45;&gt;Node4</title>
<path fill="none" stroke="midnightblue" d="M366.56,-194.94C384.88,-189.39 406.07,-182.96 423.82,-177.58"/>
<polygon fill="midnightblue" stroke="midnightblue" points="425.28,-180.79 433.83,-174.54 423.25,-174.09 425.28,-180.79"/>
</g>
</g>
</svg>
