<?xml version="1.0" encoding="UTF-8" standalone="no"?>
<svg
   xmlns:dc="http://purl.org/dc/elements/1.1/"
   xmlns:cc="http://creativecommons.org/ns#"
   xmlns:rdf="http://www.w3.org/1999/02/22-rdf-syntax-ns#"
   xmlns:svg="http://www.w3.org/2000/svg"
   xmlns="http://www.w3.org/2000/svg"
   width="100mm"
   height="100mm"
   viewBox="0 0 100 100"
   version="1.1"
   id="svg990">
  <defs
     id="defs984">
    <rect
       x="50.063633"
       y="98.813332"
       width="111.66712"
       height="81.494499"
       id="rect867" />
    <rect
       x="50.063633"
       y="98.813332"
       width="111.66712"
       height="81.494499"
       id="rect948" />
    <rect
       x="50.063633"
       y="98.813332"
       width="111.66712"
       height="81.494499"
       id="rect923" />
    <rect
       x="50.063633"
       y="98.813332"
       width="111.66712"
       height="81.494499"
       id="rect951" />
  </defs>
  <metadata
     id="metadata987">
    <rdf:RDF>
      <cc:Work
         rdf:about="">
        <dc:format>image/svg+xml</dc:format>
        <dc:type
           rdf:resource="http://purl.org/dc/dcmitype/StillImage" />
        <dc:title></dc:title>
      </cc:Work>
    </rdf:RDF>
  </metadata>
  <g
     id="layer1">
    <path
       d="m 10.899997,51.062293 q 0,-0.281696 0.234762,-0.32872 l 0.610337,-1.408482 q 0.281696,-0.657263 0.610341,-0.938959 0.37561,-0.32872 1.126786,-0.704242 l 12.864101,-5.727844 h 0.04693 L 13.71695,47.916608 q -1.17373,0.563393 -1.596275,1.455462 l -0.657289,1.455417 q 0.09391,0.09405 0.09391,0.234673 0,0.32872 -0.328631,0.32872 -0.328631,0 -0.328631,-0.32872 z m 4.601028,0 q 0,-0.281696 0.234761,-0.32872 l 0.610341,-1.408482 q 0.281697,-0.657263 0.610341,-0.938959 0.375611,-0.32872 1.126782,-0.704242 l 12.864101,-5.727844 h 0.04693 l -12.676304,5.962562 q -1.17373,0.563393 -1.596274,1.455462 l -0.657289,1.455417 q 0.09391,0.09405 0.09391,0.234673 0,0.32872 -0.328631,0.32872 -0.328631,0 -0.328631,-0.32872 z m -2.300512,-2.300507 q 0,-0.281696 0.234762,-0.32872 l 0.610341,-1.408482 q 0.281697,-0.657307 0.610341,-0.938959 0.37561,-0.32872 1.126782,-0.704242 l 12.8641,-5.727844 h 0.04694 L 16.01747,45.616101 q -1.173734,0.563393 -1.596275,1.455417 l -0.657293,1.455462 q 0.09391,0.09405 0.09391,0.234673 0,0.32872 -0.328631,0.32872 -0.328631,0 -0.328631,-0.32872 z m -2.300516,-2.300507 q 0,-0.281696 0.234762,-0.32872 l 0.610337,-1.408482 q 0.281696,-0.657307 0.610341,-0.939003 0.37561,-0.32872 1.126786,-0.704242 l 12.864101,-5.7278 h 0.04693 L 13.71695,43.315594 q -1.17373,0.563393 -1.596275,1.455417 l -0.657289,1.455418 q 0.09391,0.09405 0.09391,0.234673 0,0.32872 -0.328631,0.32872 -0.328631,0 -0.328631,-0.32872 z m 4.601028,0 q 0,-0.281696 0.234761,-0.32872 l 0.610341,-1.408482 q 0.281697,-0.657307 0.610341,-0.939003 0.375611,-0.32872 1.126782,-0.704242 l 12.864101,-5.7278 h 0.04693 l -12.676304,5.962562 q -1.17373,0.563393 -1.596274,1.455417 l -0.657289,1.455418 q 0.09391,0.09405 0.09391,0.234673 0,0.32872 -0.328631,0.32872 -0.328631,0 -0.328631,-0.32872 z m -2.300512,-2.300507 q 0,-0.281696 0.234762,-0.328719 l 0.610341,-1.408483 q 0.281697,-0.657307 0.610341,-0.939003 0.37561,-0.32872 1.126782,-0.704242 l 12.8641,-5.7278 h 0.04694 L 16.01747,41.015087 q -1.173734,0.563393 -1.596275,1.455417 l -0.657293,1.455418 q 0.09391,0.09405 0.09391,0.234673 0,0.32872 -0.328631,0.32872 -0.328631,0 -0.328631,-0.32872 z m -2.300516,-2.300507 q 0,-0.281696 0.234762,-0.328719 l 0.610337,-1.408483 q 0.281696,-0.657307 0.610341,-0.939003 0.37561,-0.32872 1.126786,-0.704242 l 12.864101,-5.7278 h 0.04693 l -12.6763,5.962562 q -1.17373,0.563393 -1.596275,1.455417 l -0.657289,1.455418 q 0.09391,0.09405 0.09391,0.234673 0,0.32872 -0.328631,0.32872 -0.328631,0 -0.328631,-0.32872 z m 4.601028,0 q 0,-0.281696 0.234761,-0.328719 l 0.610341,-1.408483 q 0.281697,-0.657307 0.610341,-0.939003 0.375611,-0.32872 1.126782,-0.704242 l 12.864101,-5.7278 h 0.04693 l -12.6763,5.962562 q -1.17373,0.563393 -1.596274,1.455417 l -0.657289,1.455418 q 0.09391,0.09405 0.09391,0.234673 0,0.32872 -0.328631,0.32872 -0.328631,0 -0.328631,-0.32872 z m -2.300512,-2.300507 q 0,-0.281696 0.234762,-0.328719 l 0.610341,-1.408483 q 0.281697,-0.657262 0.610341,-0.938959 0.37561,-0.32872 1.126782,-0.704241 l 12.8641,-5.7278 h 0.04694 L 16.01747,36.414118 q -1.173734,0.563348 -1.596275,1.455417 l -0.657293,1.455417 q 0.09391,0.09405 0.09391,0.234673 0,0.32872 -0.328631,0.32872 -0.328631,0 -0.328631,-0.32872 z m -2.300516,-2.300551 q 0,-0.281696 0.234762,-0.32872 l 0.610337,-1.408482 q 0.281696,-0.657263 0.610341,-0.938959 0.37561,-0.32872 1.126786,-0.704242 L 26.346324,28.15096 h 0.04693 L 13.71695,34.113522 q -1.17373,0.563393 -1.596275,1.455462 l -0.657289,1.455417 q 0.09391,0.09405 0.09391,0.234673 0,0.32872 -0.328631,0.32872 -0.328631,0 -0.328631,-0.32872 z m 4.601028,0 q 0,-0.281696 0.234761,-0.32872 l 0.610341,-1.408482 q 0.281697,-0.657263 0.610341,-0.938959 0.375611,-0.32872 1.126782,-0.704242 L 30.947351,28.15096 h 0.04693 l -12.676304,5.962562 q -1.17373,0.563393 -1.596274,1.455462 l -0.657289,1.455417 q 0.09391,0.09405 0.09391,0.234673 0,0.32872 -0.328631,0.32872 -0.328631,0 -0.328631,-0.32872 z M 13.200513,34.9587 q 0,-0.281696 0.234762,-0.32872 l 0.610341,-1.408482 q 0.281697,-0.657307 0.610341,-0.939004 0.37561,-0.32872 1.126782,-0.704197 l 12.8641,-5.727831 h 0.04694 L 16.01747,31.813015 q -1.173734,0.563393 -1.596275,1.455417 l -0.657293,1.455462 q 0.09391,0.09405 0.09391,0.234673 0,0.32872 -0.328631,0.32872 -0.328631,0 -0.328631,-0.32872 z m -2.300516,-2.300507 q 0,-0.281696 0.234762,-0.32872 l 0.610337,-1.408482 q 0.281696,-0.657307 0.610341,-0.939004 0.37561,-0.32872 1.126786,-0.704241 L 26.346324,23.54995 h 0.04693 L 13.71695,29.512508 q -1.17373,0.563393 -1.596275,1.455417 l -0.657289,1.455418 q 0.09391,0.09405 0.09391,0.234673 0,0.32872 -0.328631,0.32872 -0.328631,0 -0.328631,-0.32872 z m 4.601028,0 q 0,-0.281696 0.234761,-0.32872 l 0.610341,-1.408482 q 0.281697,-0.657307 0.610341,-0.939004 0.375611,-0.32872 1.126782,-0.704241 L 30.947351,23.54995 h 0.04693 l -12.676304,5.962558 q -1.17373,0.563393 -1.596274,1.455417 l -0.657289,1.455418 q 0.09391,0.09405 0.09391,0.234673 0,0.32872 -0.328631,0.32872 -0.328631,0 -0.328631,-0.32872 z m -2.300512,-2.300507 q 0,-0.281696 0.234762,-0.32872 l 0.610341,-1.408482 q 0.281697,-0.657307 0.610341,-0.939004 0.37561,-0.328719 1.126782,-0.704241 l 12.8641,-5.7278 h 0.04694 L 16.01747,27.212001 q -1.173734,0.563393 -1.596275,1.455417 l -0.657293,1.455418 q 0.09391,0.09405 0.09391,0.234673 0,0.32872 -0.328631,0.32872 -0.328631,0 -0.328631,-0.32872 z m -2.300516,-2.300507 q 0,-0.281696 0.234762,-0.32872 l 0.610337,-1.408438 q 0.281696,-0.657307 0.610341,-0.939003 0.37561,-0.328631 1.126786,-0.704242 l 12.864101,-5.727809 h 0.04693 L 13.71695,24.911525 q -1.17373,0.563393 -1.596275,1.455431 l -0.657289,1.455417 q 0.09391,0.09405 0.09391,0.234673 0,0.32872 -0.328631,0.32872 -0.328631,0 -0.328631,-0.32872 z m 4.601028,0 q 0,-0.281696 0.234761,-0.32872 l 0.610341,-1.408438 q 0.281697,-0.657307 0.610341,-0.939003 0.375611,-0.328631 1.126782,-0.704242 l 12.864101,-5.727809 h 0.04693 l -12.676304,5.962558 q -1.17373,0.563393 -1.596274,1.455431 l -0.657289,1.455417 q 0.09391,0.09405 0.09391,0.234673 0,0.32872 -0.328631,0.32872 -0.328631,0 -0.328631,-0.32872 z m -2.300512,-2.300524 q 0,-0.281697 0.234762,-0.328632 l 0.610341,-1.408478 q 0.281697,-0.657289 0.610341,-0.938985 0.37561,-0.328632 1.126782,-0.704237 l 12.8641,-5.727814 h 0.04694 L 16.01747,22.611067 q -1.173734,0.563393 -1.596275,1.455431 l -0.657293,1.455412 q 0.09391,0.09391 0.09391,0.234762 0,0.328632 -0.328631,0.328632 -0.328631,0 -0.328631,-0.328632 z m -2.300516,-2.347464 q 0,-0.281697 0.234762,-0.328631 l 0.610337,-1.408479 q 0.281696,-0.657289 0.610341,-0.938985 0.37561,-0.328631 1.126786,-0.704237 l 12.864101,-5.727813 h 0.04693 l -12.6763,5.962544 q -1.17373,0.563393 -1.596275,1.45543 l -0.657289,1.455427 q 0.09391,0.09391 0.09391,0.234762 0,0.328631 -0.328631,0.328631 -0.328631,0 -0.328631,-0.328631 z m 4.601028,0 q 0,-0.281697 0.234761,-0.328631 l 0.610341,-1.408479 q 0.281697,-0.657289 0.610341,-0.938985 0.375611,-0.328631 1.126782,-0.704237 l 12.864101,-5.727813 h 0.04693 l -12.6763,5.962544 q -1.17373,0.563393 -1.596274,1.45543 l -0.657289,1.455427 q 0.09391,0.09391 0.09391,0.234762 0,0.328631 -0.328631,0.328631 -0.328631,0 -0.328631,-0.328631 z m -2.300512,-2.300512 q 0,-0.281696 0.234762,-0.328631 l 0.610341,-1.408478 q 0.281697,-0.657293 0.610341,-0.938986 0.37561,-0.328631 1.126782,-0.704241 l 12.8641,-5.727809 h 0.04694 L 16.01747,17.963092 q -1.173734,0.563388 -1.596275,1.455426 l -0.657293,1.455426 q 0.09391,0.09391 0.09391,0.234762 0,0.328631 -0.328631,0.328631 -0.328631,0 -0.328631,-0.328631 z m -2.300516,-2.300515 q 0,-0.281697 0.234762,-0.328632 l 0.610337,-1.408478 q 0.281696,-0.657289 0.610341,-0.938985 0.37561,-0.328632 1.126786,-0.704242 L 26.346324,9.7000183 h 0.04693 l -12.6763,5.9625577 q -1.17373,0.563393 -1.596275,1.455426 l -0.657289,1.455426 q 0.09391,0.09391 0.09391,0.234762 0,0.328631 -0.328631,0.328631 -0.328631,0 -0.328631,-0.328631 z m 4.601028,0 q 0,-0.281697 0.234761,-0.328632 l 0.610341,-1.408478 q 0.281697,-0.657289 0.610341,-0.938985 0.375611,-0.328632 1.126782,-0.704242 L 30.947351,9.7000183 h 0.04693 l -12.6763,5.9625577 q -1.17373,0.563393 -1.596274,1.455426 l -0.657289,1.455426 q 0.09391,0.09391 0.09391,0.234762 0,0.328631 -0.328631,0.328631 -0.328631,0 -0.328631,-0.328631 z"
       style="font-style:normal;font-variant:normal;font-weight:normal;font-stretch:normal;font-size:10.5833px;line-height:0.9;font-family:Wind;-inkscape-font-specification:'Wind, Normal';font-variant-ligatures:normal;font-variant-caps:normal;font-variant-numeric:normal;font-variant-east-asian:normal;white-space:pre;opacity:0.992;fill:#000000;fill-opacity:1;stroke:none;stroke-width:4.43617"
       id="path853" />
    <path
       d="m 23.670167,51.062293 q 0,-0.281696 0.234761,-0.32872 l 0.610337,-1.408482 q 0.281697,-0.657263 0.610341,-0.938959 0.37561,-0.32872 1.126782,-0.704242 l 12.864105,-5.727844 h 0.04693 l -12.676304,5.962562 q -1.173734,0.563393 -1.596274,1.455462 l -0.657289,1.455417 q 0.09391,0.09405 0.09391,0.234673 0,0.32872 -0.328631,0.32872 -0.328631,0 -0.328631,-0.32872 z m 4.601027,0 q 0,-0.281696 0.234762,-0.32872 l 0.610341,-1.408482 q 0.281696,-0.657263 0.610341,-0.938959 0.37561,-0.32872 1.126781,-0.704242 L 43.71752,41.954046 h 0.04693 l -12.6763,5.962562 q -1.173729,0.563393 -1.596274,1.455462 l -0.657289,1.455417 q 0.09391,0.09405 0.09391,0.234673 0,0.32872 -0.328631,0.32872 -0.328631,0 -0.328631,-0.32872 z m 18.35717,0 q 0,-0.281696 0.234762,-0.32872 l 0.610341,-1.408482 q 0.281696,-0.657263 0.610341,-0.938959 0.37561,-0.32872 1.126781,-0.704242 L 62.07469,41.954046 h 0.04694 l -12.6763,5.962562 q -1.173734,0.563393 -1.596279,1.455462 l -0.657289,1.455417 q 0.09391,0.09405 0.09391,0.234673 0,0.32872 -0.328631,0.32872 -0.328631,0 -0.328631,-0.32872 z m -13.756139,0 q 0,-0.281696 0.234762,-0.32872 l 0.610341,-1.408482 q 0.281697,-0.657263 0.610341,-0.938959 0.375611,-0.32872 1.126782,-0.704242 l 12.864101,-5.727844 h 0.04693 l -12.676304,5.962562 q -1.173734,0.563393 -1.596274,1.455462 l -0.657294,1.455417 q 0.09391,0.09405 0.09391,0.234673 0,0.32872 -0.328631,0.32872 -0.328632,0 -0.328632,-0.32872 z m 4.601028,0 q 0,-0.281696 0.234762,-0.32872 l 0.610336,-1.408482 q 0.281697,-0.657263 0.610341,-0.938959 0.37561,-0.32872 1.126786,-0.704242 l 12.864101,-5.727844 h 0.04693 l -12.676305,5.962562 q -1.173729,0.563393 -1.596274,1.455462 l -0.657289,1.455417 q 0.09391,0.09405 0.09391,0.234673 0,0.32872 -0.328631,0.32872 -0.328631,0 -0.328631,-0.32872 z m 4.601027,0 q 0,-0.281696 0.234762,-0.32872 l 0.610341,-1.408482 q 0.281696,-0.657263 0.610341,-0.938959 0.37561,-0.32872 1.126782,-0.704242 l 12.8641,-5.727844 h 0.04693 l -12.676305,5.962562 q -1.173729,0.563393 -1.596274,1.455462 l -0.657289,1.455417 q 0.09391,0.09405 0.09391,0.234673 0,0.32872 -0.328632,0.32872 -0.328631,0 -0.328631,-0.32872 z M 25.970682,48.761786 q 0,-0.281696 0.234762,-0.32872 l 0.610341,-1.408482 q 0.281697,-0.657307 0.610341,-0.938959 0.375611,-0.32872 1.126782,-0.704242 l 12.864101,-5.727844 h 0.04693 l -12.676304,5.962562 q -1.173734,0.563393 -1.596279,1.455417 l -0.657289,1.455462 q 0.09391,0.09405 0.09391,0.234673 0,0.32872 -0.328632,0.32872 -0.328631,0 -0.328631,-0.32872 z m 4.601028,0 q 0,-0.281696 0.234762,-0.32872 l 0.610336,-1.408482 q 0.281697,-0.657307 0.610341,-0.938959 0.37561,-0.32872 1.126786,-0.704242 l 12.864101,-5.727844 h 0.04693 l -12.676305,5.962562 q -1.17373,0.563393 -1.596274,1.455417 l -0.657289,1.455462 q 0.09391,0.09405 0.09391,0.234673 0,0.32872 -0.328631,0.32872 -0.328631,0 -0.328631,-0.32872 z m 18.357165,0 q 0,-0.281696 0.234762,-0.32872 l 0.610341,-1.408482 q 0.281697,-0.657307 0.610341,-0.938959 0.37561,-0.32872 1.126782,-0.704242 l 12.8641,-5.727844 h 0.04693 l -12.676304,5.962562 q -1.17373,0.563393 -1.596275,1.455417 l -0.657289,1.455462 q 0.09391,0.09405 0.09391,0.234673 0,0.32872 -0.328631,0.32872 -0.328632,0 -0.328632,-0.32872 z m -13.756138,0 q 0,-0.281696 0.234762,-0.32872 l 0.610341,-1.408482 q 0.281696,-0.657307 0.610341,-0.938959 0.37561,-0.32872 1.126782,-0.704242 l 12.8641,-5.727844 h 0.04694 l -12.676305,5.962562 q -1.173729,0.563393 -1.596274,1.455417 L 35.73613,48.52698 q 0.09391,0.09405 0.09391,0.234673 0,0.32872 -0.328632,0.32872 -0.328631,0 -0.328631,-0.32872 z m 4.601032,0 q 0,-0.281696 0.234761,-0.32872 l 0.610341,-1.408482 q 0.281697,-0.657307 0.610341,-0.938959 0.375611,-0.32872 1.126782,-0.704242 l 12.864101,-5.727844 h 0.04693 l -12.676304,5.962562 q -1.173734,0.563393 -1.596274,1.455417 l -0.657294,1.455462 q 0.09391,0.09405 0.09391,0.234673 0,0.32872 -0.328631,0.32872 -0.328632,0 -0.328632,-0.32872 z m 4.601027,0 q 0,-0.281696 0.234762,-0.32872 l 0.610341,-1.408482 q 0.281696,-0.657307 0.610336,-0.938959 0.37561,-0.32872 1.126786,-0.704242 l 12.864101,-5.727844 h 0.04693 l -12.676305,5.962562 q -1.173729,0.563393 -1.596274,1.455417 l -0.657289,1.455462 q 0.09391,0.09405 0.09391,0.234673 0,0.32872 -0.328631,0.32872 -0.328631,0 -0.328631,-0.32872 z M 28.271194,46.461279 q 0,-0.281696 0.234762,-0.32872 l 0.610341,-1.408482 q 0.281696,-0.657307 0.610341,-0.939003 0.37561,-0.32872 1.126781,-0.704242 l 12.864101,-5.7278 h 0.04693 l -12.6763,5.962562 q -1.173729,0.563393 -1.596274,1.455417 l -0.657289,1.455418 q 0.09391,0.09405 0.09391,0.234673 0,0.32872 -0.328631,0.32872 -0.328631,0 -0.328631,-0.32872 z m 18.35717,0 q 0,-0.281696 0.234762,-0.32872 l 0.610341,-1.408482 q 0.281696,-0.657307 0.610341,-0.939003 0.37561,-0.32872 1.126781,-0.704242 l 12.864101,-5.7278 h 0.04694 l -12.6763,5.962562 q -1.173734,0.563393 -1.596279,1.455417 l -0.657289,1.455418 q 0.09391,0.09405 0.09391,0.234673 0,0.32872 -0.328631,0.32872 -0.328631,0 -0.328631,-0.32872 z m -13.756139,0 q 0,-0.281696 0.234762,-0.32872 l 0.610341,-1.408482 q 0.281697,-0.657307 0.610341,-0.939003 0.375611,-0.32872 1.126782,-0.704242 l 12.864101,-5.7278 h 0.04693 l -12.676304,5.962562 q -1.173734,0.563393 -1.596274,1.455417 l -0.657294,1.455418 q 0.09391,0.09405 0.09391,0.234673 0,0.32872 -0.328631,0.32872 -0.328632,0 -0.328632,-0.32872 z m 4.601028,0 q 0,-0.281696 0.234762,-0.32872 l 0.610336,-1.408482 q 0.281697,-0.657307 0.610341,-0.939003 0.37561,-0.32872 1.126786,-0.704242 l 12.864101,-5.7278 h 0.04693 l -12.676305,5.962562 q -1.173729,0.563393 -1.596274,1.455417 l -0.657289,1.455418 q 0.09391,0.09405 0.09391,0.234673 0,0.32872 -0.328631,0.32872 -0.328631,0 -0.328631,-0.32872 z m 4.601027,0 q 0,-0.281696 0.234762,-0.32872 l 0.610341,-1.408482 q 0.281696,-0.657307 0.610341,-0.939003 0.37561,-0.32872 1.126782,-0.704242 l 12.8641,-5.7278 h 0.04693 l -12.676305,5.962562 q -1.173729,0.563393 -1.596274,1.455417 l -0.657289,1.455418 q 0.09391,0.09405 0.09391,0.234673 0,0.32872 -0.328632,0.32872 -0.328631,0 -0.328631,-0.32872 z M 30.57171,44.160772 q 0,-0.281696 0.234762,-0.328719 l 0.610336,-1.408483 q 0.281697,-0.657307 0.610341,-0.939003 0.37561,-0.32872 1.126786,-0.704242 l 12.864101,-5.7278 h 0.04693 l -12.676305,5.962562 q -1.17373,0.563393 -1.596274,1.455417 l -0.657289,1.455418 q 0.09391,0.09405 0.09391,0.234673 0,0.32872 -0.328631,0.32872 -0.328631,0 -0.328631,-0.32872 z m 4.601027,0 q 0,-0.281696 0.234762,-0.328719 L 36.01784,42.42357 q 0.281696,-0.657307 0.610341,-0.939003 0.37561,-0.32872 1.126782,-0.704242 l 12.8641,-5.7278 h 0.04694 l -12.676305,5.962562 q -1.173729,0.563393 -1.596274,1.455417 l -0.657289,1.455418 q 0.09391,0.09405 0.09391,0.234673 0,0.32872 -0.328632,0.32872 -0.328631,0 -0.328631,-0.32872 z m -6.901543,-2.300507 q 0,-0.281696 0.234762,-0.328719 l 0.610341,-1.408483 q 0.281696,-0.657307 0.610341,-0.939003 0.37561,-0.32872 1.126781,-0.704242 l 12.864101,-5.7278 h 0.04693 l -12.6763,5.962562 q -1.173729,0.563393 -1.596274,1.455417 l -0.657289,1.455418 q 0.09391,0.09405 0.09391,0.234673 0,0.32872 -0.328631,0.32872 -0.328631,0 -0.328631,-0.32872 z m 4.601031,0 q 0,-0.281696 0.234762,-0.328719 l 0.610341,-1.408483 q 0.281697,-0.657307 0.610341,-0.939003 0.375611,-0.32872 1.126782,-0.704242 l 12.864101,-5.7278 h 0.04693 l -12.6763,5.962562 q -1.173734,0.563393 -1.596274,1.455417 l -0.657294,1.455418 q 0.09391,0.09405 0.09391,0.234673 0,0.32872 -0.328631,0.32872 -0.328632,0 -0.328632,-0.32872 z M 30.57171,39.559758 q 0,-0.281696 0.234762,-0.328719 l 0.610336,-1.408483 q 0.281697,-0.657262 0.610341,-0.938959 0.37561,-0.32872 1.126786,-0.704241 l 12.864101,-5.7278 h 0.04693 l -12.676305,5.962562 q -1.17373,0.563348 -1.596274,1.455417 l -0.657289,1.455417 q 0.09391,0.09405 0.09391,0.234673 0,0.32872 -0.328631,0.32872 -0.328631,0 -0.328631,-0.32872 z m 4.601027,0 q 0,-0.281696 0.234762,-0.328719 l 0.610341,-1.408483 q 0.281696,-0.657262 0.610341,-0.938959 0.37561,-0.32872 1.126782,-0.704241 l 12.8641,-5.7278 h 0.04694 l -12.676305,5.962562 q -1.173729,0.563348 -1.596274,1.455417 l -0.657289,1.455417 q 0.09391,0.09405 0.09391,0.234673 0,0.32872 -0.328632,0.32872 -0.328631,0 -0.328631,-0.32872 z m -2.300512,-2.300551 q 0,-0.281696 0.234762,-0.32872 l 0.610341,-1.408482 q 0.281697,-0.657263 0.610341,-0.938959 0.375611,-0.32872 1.126782,-0.704242 L 48.318552,28.15096 h 0.04693 l -12.676304,5.962562 q -1.173734,0.563393 -1.596274,1.455462 l -0.657294,1.455417 q 0.09391,0.09405 0.09391,0.234673 0,0.32872 -0.328631,0.32872 -0.328632,0 -0.328632,-0.32872 z m 4.601028,0 q 0,-0.281696 0.234762,-0.32872 l 0.610336,-1.408482 q 0.281697,-0.657263 0.610341,-0.938959 0.37561,-0.32872 1.126786,-0.704242 L 52.919579,28.15096 h 0.04693 l -12.676305,5.962562 q -1.173729,0.563393 -1.596274,1.455462 l -0.657289,1.455417 q 0.09391,0.09405 0.09391,0.234673 0,0.32872 -0.328631,0.32872 -0.328631,0 -0.328631,-0.32872 z M 35.172737,34.9587 q 0,-0.281696 0.234762,-0.32872 l 0.610341,-1.408482 q 0.281696,-0.657307 0.610341,-0.939004 0.37561,-0.32872 1.126782,-0.704197 l 12.8641,-5.727831 h 0.04694 l -12.676305,5.962549 q -1.173729,0.563393 -1.596274,1.455417 l -0.657289,1.455462 q 0.09391,0.09405 0.09391,0.234673 0,0.32872 -0.328632,0.32872 -0.328631,0 -0.328631,-0.32872 z m 4.601032,0 q 0,-0.281696 0.234761,-0.32872 l 0.610341,-1.408482 q 0.281697,-0.657307 0.610341,-0.939004 0.375611,-0.32872 1.126782,-0.704197 l 12.864101,-5.727831 h 0.04693 l -12.676304,5.962549 q -1.173734,0.563393 -1.596274,1.455417 l -0.657294,1.455462 q 0.09391,0.09405 0.09391,0.234673 0,0.32872 -0.328631,0.32872 -0.328632,0 -0.328632,-0.32872 z m -2.300516,-2.300507 q 0,-0.281696 0.234762,-0.32872 l 0.610336,-1.408482 q 0.281697,-0.657307 0.610341,-0.939004 0.37561,-0.32872 1.126786,-0.704241 L 52.919579,23.54995 h 0.04693 l -12.676305,5.962558 q -1.173729,0.563393 -1.596274,1.455417 l -0.657289,1.455418 q 0.09391,0.09405 0.09391,0.234673 0,0.32872 -0.328631,0.32872 -0.328631,0 -0.328631,-0.32872 z m 4.601027,0 q 0,-0.281696 0.234762,-0.32872 l 0.610341,-1.408482 q 0.281696,-0.657307 0.610341,-0.939004 0.37561,-0.32872 1.126782,-0.704241 l 12.8641,-5.727796 h 0.04693 l -12.676305,5.962558 q -1.173729,0.563393 -1.596274,1.455417 l -0.657289,1.455418 q 0.09391,0.09405 0.09391,0.234673 0,0.32872 -0.328632,0.32872 -0.328631,0 -0.328631,-0.32872 z m -6.901543,-2.300507 q 0,-0.281696 0.234762,-0.32872 l 0.610341,-1.408482 q 0.281696,-0.657307 0.610341,-0.939004 0.37561,-0.328719 1.126782,-0.704241 l 12.8641,-5.7278 h 0.04694 l -12.676305,5.962562 q -1.173729,0.563393 -1.596274,1.455417 l -0.657289,1.455418 q 0.09391,0.09405 0.09391,0.234673 0,0.32872 -0.328632,0.32872 -0.328631,0 -0.328631,-0.32872 z m 4.601032,0 q 0,-0.281696 0.234761,-0.32872 l 0.610341,-1.408482 q 0.281697,-0.657307 0.610341,-0.939004 0.375611,-0.328719 1.126782,-0.704241 l 12.864101,-5.7278 h 0.04693 l -12.676304,5.962562 q -1.173734,0.563393 -1.596274,1.455417 l -0.657294,1.455418 q 0.09391,0.09405 0.09391,0.234673 0,0.32872 -0.328631,0.32872 -0.328632,0 -0.328632,-0.32872 z m -2.300516,-2.300507 q 0,-0.281696 0.234762,-0.32872 l 0.610336,-1.408438 q 0.281697,-0.657307 0.610341,-0.939003 0.37561,-0.328631 1.126786,-0.704242 l 12.864101,-5.727809 h 0.04693 l -12.676305,5.962558 q -1.173729,0.563393 -1.596274,1.455431 l -0.657289,1.455417 q 0.09391,0.09405 0.09391,0.234673 0,0.32872 -0.328631,0.32872 -0.328631,0 -0.328631,-0.32872 z m 4.601027,0 q 0,-0.281696 0.234762,-0.32872 l 0.610341,-1.408438 q 0.281696,-0.657307 0.610341,-0.939003 0.37561,-0.328631 1.126782,-0.704242 l 12.8641,-5.727809 h 0.04693 l -12.676305,5.962558 q -1.173729,0.563393 -1.596274,1.455431 l -0.657289,1.455417 q 0.09391,0.09405 0.09391,0.234673 0,0.32872 -0.328632,0.32872 -0.328631,0 -0.328631,-0.32872 z m -2.300511,-2.300524 q 0,-0.281697 0.234761,-0.328632 l 0.610341,-1.408478 q 0.281697,-0.657289 0.610341,-0.938985 0.375611,-0.328632 1.126782,-0.704237 l 12.864101,-5.727814 h 0.04693 l -12.676304,5.962558 q -1.173734,0.563393 -1.596274,1.455431 l -0.657294,1.455412 q 0.09391,0.09391 0.09391,0.234762 0,0.328632 -0.328631,0.328632 -0.328632,0 -0.328632,-0.328632 z m 4.601027,0 q 0,-0.281697 0.234762,-0.328632 l 0.610341,-1.408478 q 0.281696,-0.657289 0.610336,-0.938985 0.37561,-0.328632 1.126786,-0.704237 l 12.864101,-5.727814 h 0.04693 l -12.676305,5.962558 q -1.173729,0.563393 -1.596274,1.455431 l -0.657289,1.455426 q 0.09391,0.09391 0.09391,0.234762 0,0.328631 -0.328631,0.328631 -0.328631,0 -0.328631,-0.328631 z M 28.271194,23.409191 q 0,-0.281697 0.234762,-0.328631 l 0.610341,-1.408479 q 0.281696,-0.657289 0.610341,-0.938985 0.37561,-0.328631 1.126781,-0.704237 L 43.71752,14.301046 h 0.04693 l -12.6763,5.962544 q -1.173729,0.563393 -1.596274,1.45543 l -0.657289,1.455427 q 0.09391,0.09391 0.09391,0.234762 0,0.328631 -0.328631,0.328631 -0.328631,0 -0.328631,-0.328631 z m 18.35717,0 q 0,-0.281697 0.234762,-0.328631 l 0.610341,-1.408479 q 0.281696,-0.657289 0.610341,-0.938985 0.37561,-0.328631 1.126781,-0.704237 L 62.07469,14.301046 h 0.04694 l -12.6763,5.962557 q -1.173734,0.563393 -1.596279,1.455431 l -0.657289,1.455426 q 0.09391,0.09391 0.09391,0.234762 0,0.328631 -0.328631,0.328631 -0.328631,0 -0.328631,-0.328631 z m -9.155111,0 q 0,-0.281697 0.234762,-0.328631 l 0.610336,-1.408479 q 0.281697,-0.657289 0.610341,-0.938985 0.37561,-0.328631 1.126786,-0.704237 l 12.864101,-5.727813 h 0.04693 l -12.6763,5.962544 q -1.173729,0.563393 -1.596274,1.45543 l -0.657289,1.455427 q 0.09391,0.09391 0.09391,0.234762 0,0.328631 -0.328631,0.328631 -0.328631,0 -0.328631,-0.328631 z m 4.601027,0 q 0,-0.281697 0.234762,-0.328631 l 0.610341,-1.408479 q 0.281696,-0.657289 0.610341,-0.938985 0.37561,-0.328631 1.126782,-0.704237 l 12.8641,-5.727813 h 0.04693 l -12.6763,5.962544 q -1.173729,0.563393 -1.596274,1.45543 l -0.657289,1.455427 q 0.09391,0.09391 0.09391,0.234762 0,0.328631 -0.328632,0.328631 -0.328631,0 -0.328631,-0.328631 z M 25.970682,21.108679 q 0,-0.281696 0.234762,-0.328631 l 0.610341,-1.408478 q 0.281697,-0.657293 0.610341,-0.938986 0.375611,-0.328631 1.126782,-0.704241 l 12.864101,-5.727809 h 0.04693 l -12.676304,5.962558 q -1.173734,0.563388 -1.596279,1.455426 l -0.657289,1.455426 q 0.09391,0.09391 0.09391,0.234762 0,0.328631 -0.328632,0.328631 -0.328631,0 -0.328631,-0.328631 z m 4.601028,0 q 0,-0.281696 0.234762,-0.328631 l 0.610336,-1.408478 q 0.281697,-0.657293 0.610341,-0.938986 0.37561,-0.328631 1.126786,-0.704241 l 12.864088,-5.727822 h 0.04693 l -12.676304,5.962557 q -1.17373,0.563389 -1.596275,1.455427 l -0.657289,1.455426 q 0.09391,0.09391 0.09391,0.234762 0,0.328631 -0.328631,0.328631 -0.328631,0 -0.328631,-0.328631 z m 18.357165,0 q 0,-0.281696 0.234762,-0.328631 l 0.610341,-1.408478 q 0.281697,-0.657293 0.610341,-0.938986 0.37561,-0.328631 1.126782,-0.704241 l 12.864087,-5.727822 h 0.04694 l -12.676305,5.962557 q -1.173729,0.563389 -1.596274,1.455427 l -0.657289,1.455426 q 0.09391,0.09391 0.09391,0.234762 0,0.328631 -0.328631,0.328631 -0.328631,0 -0.328631,-0.328631 z m -13.756138,0 q 0,-0.281696 0.234762,-0.328631 L 36.01784,19.37157 q 0.281696,-0.657293 0.610341,-0.938986 0.37561,-0.328631 1.126782,-0.704241 l 12.8641,-5.727809 h 0.04694 l -12.676305,5.962558 q -1.173729,0.563388 -1.596274,1.455426 l -0.657289,1.455426 q 0.09391,0.09391 0.09391,0.234762 0,0.328631 -0.328632,0.328631 -0.328631,0 -0.328631,-0.328631 z m 4.601032,0 q 0,-0.281696 0.234761,-0.328631 l 0.610341,-1.408478 q 0.281697,-0.657293 0.610341,-0.938986 0.375611,-0.328631 1.126782,-0.704241 l 12.864101,-5.727809 h 0.04693 l -12.676304,5.962558 q -1.173734,0.563388 -1.596274,1.455426 l -0.657294,1.455426 q 0.09391,0.09391 0.09391,0.234762 0,0.328631 -0.328631,0.328631 -0.328632,0 -0.328632,-0.328631 z m 4.601027,0 q 0,-0.281696 0.234762,-0.328631 l 0.610341,-1.408478 q 0.281696,-0.657293 0.610336,-0.938986 0.37561,-0.328631 1.126786,-0.704241 l 12.864088,-5.727822 h 0.04693 l -12.676304,5.962557 q -1.173716,0.563389 -1.596261,1.455427 l -0.657289,1.455426 q 0.09391,0.09391 0.09391,0.234762 0,0.328631 -0.328631,0.328631 -0.328631,0 -0.328631,-0.328631 z M 28.271194,18.808164 q 0,-0.281697 0.234762,-0.328632 l 0.610341,-1.408478 q 0.281696,-0.657289 0.610341,-0.938985 0.37561,-0.328632 1.126781,-0.704242 L 43.71752,9.7000183 h 0.04693 l -12.6763,5.9625577 q -1.173729,0.563393 -1.596274,1.455426 l -0.657289,1.455426 q 0.09391,0.09391 0.09391,0.234762 0,0.328631 -0.328631,0.328631 -0.328631,0 -0.328631,-0.328631 z m 18.35717,0 q 0,-0.281697 0.234762,-0.328632 l 0.610341,-1.408478 q 0.281696,-0.657289 0.610341,-0.938985 0.37561,-0.328632 1.126781,-0.704242 L 62.07469,9.7000183 h 0.04694 l -12.6763,5.9625577 q -1.173734,0.563393 -1.596279,1.455426 l -0.657289,1.455426 q 0.09391,0.09391 0.09391,0.234762 0,0.328631 -0.328631,0.328631 -0.328631,0 -0.328631,-0.328631 z m -13.756139,0 q 0,-0.281697 0.234762,-0.328632 l 0.610341,-1.408478 q 0.281697,-0.657289 0.610341,-0.938985 0.375611,-0.328632 1.126782,-0.704242 L 48.318552,9.7000183 h 0.04693 l -12.6763,5.9625577 q -1.173734,0.563393 -1.596274,1.455426 l -0.657294,1.455426 q 0.09391,0.09391 0.09391,0.234762 0,0.328631 -0.328631,0.328631 -0.328632,0 -0.328632,-0.328631 z m 4.601028,0 q 0,-0.281697 0.234762,-0.328632 l 0.610336,-1.408478 q 0.281697,-0.657289 0.610341,-0.938985 0.37561,-0.328632 1.126786,-0.704242 L 52.919579,9.7000183 h 0.04693 l -12.6763,5.9625577 q -1.173729,0.563393 -1.596274,1.455426 l -0.657289,1.455426 q 0.09391,0.09391 0.09391,0.234762 0,0.328631 -0.328631,0.328631 -0.328631,0 -0.328631,-0.328631 z m 4.601027,0 q 0,-0.281697 0.234762,-0.328632 l 0.610341,-1.408478 q 0.281696,-0.657289 0.610341,-0.938985 0.37561,-0.328632 1.126782,-0.704242 l 12.8641,-5.7278087 h 0.04693 l -12.6763,5.9625577 q -1.173729,0.563393 -1.596274,1.455426 l -0.657289,1.455426 q 0.09391,0.09391 0.09391,0.234762 0,0.328631 -0.328632,0.328631 -0.328631,0 -0.328631,-0.328631 z m -9.202055,4.601027 q 0,-0.281697 0.234762,-0.328631 l 0.610341,-1.408479 q 0.281697,-0.657289 0.610341,-0.938985 0.375611,-0.328631 1.126782,-0.704237 l 12.864101,-5.727813 h 0.04693 l -12.6763,5.962544 q -1.173734,0.563393 -1.596274,1.45543 l -0.657294,1.455427 q 0.09391,0.09391 0.09391,0.234762 0,0.328631 -0.328631,0.328631 -0.328632,0 -0.328632,-0.328631 z"
       style="font-style:normal;font-variant:normal;font-weight:normal;font-stretch:normal;font-size:10.5833px;line-height:0.9;font-family:Wind;-inkscape-font-specification:'Wind, Normal';font-variant-ligatures:normal;font-variant-caps:normal;font-variant-numeric:normal;font-variant-east-asian:normal;white-space:pre;opacity:0.992;fill:#000000;fill-opacity:1;stroke:none;stroke-width:4.43617"
       id="path855" />
    <path
       d="m 89.461603,48.894997 q 0,0.281696 -0.234762,0.32872 l -0.610337,1.408482 q -0.281696,0.657263 -0.610341,0.938959 -0.37561,0.32872 -1.126786,0.704242 l -12.864101,5.727844 h -0.04693 L 86.64465,52.040682 q 1.17373,-0.563393 1.596275,-1.455462 l 0.657289,-1.455417 q -0.09391,-0.09405 -0.09391,-0.234673 0,-0.32872 0.328631,-0.32872 0.328631,0 0.328631,0.32872 z m -4.601028,0 q 0,0.281696 -0.234761,0.32872 l -0.610341,1.408482 q -0.281697,0.657263 -0.610341,0.938959 -0.375611,0.32872 -1.126782,0.704242 l -12.864101,5.727844 h -0.04693 l 12.676304,-5.962562 q 1.17373,-0.563393 1.596274,-1.455462 l 0.657289,-1.455417 q -0.09391,-0.09405 -0.09391,-0.234673 0,-0.32872 0.328631,-0.32872 0.328631,0 0.328631,0.32872 z m 2.300512,2.300507 q 0,0.281696 -0.234762,0.32872 l -0.610341,1.408482 q -0.281697,0.657307 -0.610341,0.938959 -0.37561,0.32872 -1.126782,0.704242 l -12.8641,5.727844 h -0.04693 L 84.34413,54.341189 q 1.173734,-0.563393 1.596275,-1.455417 l 0.657293,-1.455462 q -0.09391,-0.09405 -0.09391,-0.234673 0,-0.32872 0.328631,-0.32872 0.328631,0 0.328631,0.32872 z m 2.300516,2.300507 q 0,0.281696 -0.234762,0.32872 l -0.610337,1.408482 q -0.281696,0.657307 -0.610341,0.939003 -0.37561,0.32872 -1.126786,0.704242 l -12.864101,5.7278 h -0.04693 L 86.64465,56.641696 q 1.17373,-0.563393 1.596275,-1.455417 l 0.657289,-1.455418 q -0.09391,-0.09405 -0.09391,-0.234673 0,-0.32872 0.328631,-0.32872 0.328631,0 0.328631,0.32872 z m -4.601028,0 q 0,0.281696 -0.234761,0.32872 l -0.610341,1.408482 q -0.281697,0.657307 -0.610341,0.939003 -0.375611,0.32872 -1.126782,0.704242 l -12.864101,5.7278 h -0.04693 l 12.676304,-5.962562 q 1.17373,-0.563393 1.596274,-1.455417 l 0.657289,-1.455418 q -0.09391,-0.09405 -0.09391,-0.234673 0,-0.32872 0.328631,-0.32872 0.328631,0 0.328631,0.32872 z m 2.300512,2.300507 q 0,0.281696 -0.234762,0.328719 l -0.610341,1.408483 q -0.281697,0.657307 -0.610341,0.939003 -0.37561,0.32872 -1.126782,0.704242 l -12.8641,5.7278 h -0.04693 L 84.34413,58.942203 q 1.173734,-0.563393 1.596275,-1.455417 l 0.657293,-1.455418 q -0.09391,-0.09405 -0.09391,-0.234673 0,-0.32872 0.328631,-0.32872 0.328631,0 0.328631,0.32872 z m 2.300516,2.300507 q 0,0.281696 -0.234762,0.328719 l -0.610337,1.408483 q -0.281696,0.657307 -0.610341,0.939003 -0.37561,0.32872 -1.126786,0.704242 l -12.864101,5.7278 h -0.04693 l 12.6763,-5.962562 q 1.17373,-0.563393 1.596275,-1.455417 l 0.657289,-1.455418 q -0.09391,-0.09405 -0.09391,-0.234673 0,-0.32872 0.328631,-0.32872 0.328631,0 0.328631,0.32872 z m -4.601028,0 q 0,0.281696 -0.234761,0.328719 l -0.610341,1.408483 q -0.281697,0.657307 -0.610341,0.939003 -0.375611,0.32872 -1.126782,0.704242 l -12.864101,5.7278 h -0.04693 l 12.6763,-5.962562 q 1.17373,-0.563393 1.596274,-1.455417 l 0.657289,-1.455418 q -0.09391,-0.09405 -0.09391,-0.234673 0,-0.32872 0.328631,-0.32872 0.328631,0 0.328631,0.32872 z m 2.300512,2.300507 q 0,0.281696 -0.234762,0.328719 l -0.610341,1.408483 q -0.281697,0.657262 -0.610341,0.938959 -0.37561,0.32872 -1.126782,0.704241 l -12.8641,5.7278 h -0.04693 L 84.34413,63.543172 q 1.173734,-0.563348 1.596275,-1.455417 l 0.657293,-1.455417 q -0.09391,-0.09405 -0.09391,-0.234673 0,-0.32872 0.328631,-0.32872 0.328631,0 0.328631,0.32872 z m 2.300516,2.300551 q 0,0.281696 -0.234762,0.32872 l -0.610337,1.408482 q -0.281696,0.657263 -0.610341,0.938959 -0.37561,0.32872 -1.126786,0.704242 L 74.015276,71.80633 h -0.04693 L 86.64465,65.843768 q 1.17373,-0.563393 1.596275,-1.455462 l 0.657289,-1.455417 q -0.09391,-0.09405 -0.09391,-0.234673 0,-0.32872 0.328631,-0.32872 0.328631,0 0.328631,0.32872 z m -4.601028,0 q 0,0.281696 -0.234761,0.32872 l -0.610341,1.408482 q -0.281697,0.657263 -0.610341,0.938959 -0.375611,0.32872 -1.126782,0.704242 L 69.414249,71.80633 h -0.04693 l 12.676304,-5.962562 q 1.17373,-0.563393 1.596274,-1.455462 l 0.657289,-1.455417 q -0.09391,-0.09405 -0.09391,-0.234673 0,-0.32872 0.328631,-0.32872 0.328631,0 0.328631,0.32872 z m 2.300512,2.300507 q 0,0.281696 -0.234762,0.32872 l -0.610341,1.408482 q -0.281697,0.657307 -0.610341,0.939004 -0.37561,0.32872 -1.126782,0.704197 l -12.8641,5.727831 h -0.04693 L 84.34413,68.144275 q 1.173734,-0.563393 1.596275,-1.455417 l 0.657293,-1.455462 q -0.09391,-0.09405 -0.09391,-0.234673 0,-0.32872 0.328631,-0.32872 0.328631,0 0.328631,0.32872 z m 2.300516,2.300507 q 0,0.281696 -0.234762,0.32872 l -0.610337,1.408482 q -0.281696,0.657307 -0.610341,0.939004 -0.37561,0.32872 -1.126786,0.704241 L 74.015276,76.40734 h -0.04693 L 86.64465,70.444782 q 1.17373,-0.563393 1.596275,-1.455417 l 0.657289,-1.455418 q -0.09391,-0.09405 -0.09391,-0.234673 0,-0.32872 0.328631,-0.32872 0.328631,0 0.328631,0.32872 z m -4.601028,0 q 0,0.281696 -0.234761,0.32872 l -0.610341,1.408482 q -0.281697,0.657307 -0.610341,0.939004 -0.375611,0.32872 -1.126782,0.704241 L 69.414249,76.40734 h -0.04693 l 12.676304,-5.962558 q 1.17373,-0.563393 1.596274,-1.455417 l 0.657289,-1.455418 q -0.09391,-0.09405 -0.09391,-0.234673 0,-0.32872 0.328631,-0.32872 0.328631,0 0.328631,0.32872 z m 2.300512,2.300507 q 0,0.281696 -0.234762,0.32872 l -0.610341,1.408482 q -0.281697,0.657307 -0.610341,0.939004 -0.37561,0.328719 -1.126782,0.704241 l -12.8641,5.7278 h -0.04693 L 84.34413,72.745289 q 1.173734,-0.563393 1.596275,-1.455417 l 0.657293,-1.455418 q -0.09391,-0.09405 -0.09391,-0.234673 0,-0.32872 0.328631,-0.32872 0.328631,0 0.328631,0.32872 z m 2.300516,2.300507 q 0,0.281696 -0.234762,0.32872 l -0.610337,1.408438 q -0.281696,0.657307 -0.610341,0.939003 -0.37561,0.328631 -1.126786,0.704242 l -12.864101,5.727809 h -0.04693 L 86.64465,75.045765 q 1.17373,-0.563393 1.596275,-1.455431 l 0.657289,-1.455417 q -0.09391,-0.09405 -0.09391,-0.234673 0,-0.32872 0.328631,-0.32872 0.328631,0 0.328631,0.32872 z m -4.601028,0 q 0,0.281696 -0.234761,0.32872 l -0.610341,1.408438 q -0.281697,0.657307 -0.610341,0.939003 -0.375611,0.328631 -1.126782,0.704242 l -12.864101,5.727809 h -0.04693 l 12.676304,-5.962558 q 1.17373,-0.563393 1.596274,-1.455431 l 0.657289,-1.455417 q -0.09391,-0.09405 -0.09391,-0.234673 0,-0.32872 0.328631,-0.32872 0.328631,0 0.328631,0.32872 z m 2.300512,2.300524 q 0,0.281697 -0.234762,0.328632 l -0.610341,1.408478 q -0.281697,0.657289 -0.610341,0.938985 -0.37561,0.328632 -1.126782,0.704237 l -12.8641,5.727814 h -0.04693 L 84.34413,77.346223 q 1.173734,-0.563393 1.596275,-1.455431 l 0.657293,-1.455412 q -0.09391,-0.09391 -0.09391,-0.234762 0,-0.328632 0.328631,-0.328632 0.328631,0 0.328631,0.328632 z m 2.300516,2.347464 q 0,0.281697 -0.234762,0.328631 l -0.610337,1.408479 q -0.281696,0.657289 -0.610341,0.938985 -0.37561,0.328631 -1.126786,0.704237 l -12.864101,5.727813 h -0.04693 l 12.6763,-5.962544 q 1.17373,-0.563393 1.596275,-1.45543 l 0.657289,-1.455427 q -0.09391,-0.09391 -0.09391,-0.234762 0,-0.328631 0.328631,-0.328631 0.328631,0 0.328631,0.328631 z m -4.601028,0 q 0,0.281697 -0.234761,0.328631 l -0.610341,1.408479 q -0.281697,0.657289 -0.610341,0.938985 -0.375611,0.328631 -1.126782,0.704237 l -12.864101,5.727813 h -0.04693 l 12.6763,-5.962544 q 1.17373,-0.563393 1.596274,-1.45543 l 0.657289,-1.455427 q -0.09391,-0.09391 -0.09391,-0.234762 0,-0.328631 0.328631,-0.328631 0.328631,0 0.328631,0.328631 z m 2.300512,2.300512 q 0,0.281696 -0.234762,0.328631 l -0.610341,1.408478 q -0.281697,0.657293 -0.610341,0.938986 -0.37561,0.328631 -1.126782,0.704241 l -12.8641,5.727809 h -0.04693 L 84.34413,81.994198 q 1.173734,-0.563388 1.596275,-1.455426 l 0.657293,-1.455426 q -0.09391,-0.09391 -0.09391,-0.234762 0,-0.328631 0.328631,-0.328631 0.328631,0 0.328631,0.328631 z m 2.300516,2.300515 q 0,0.281697 -0.234762,0.328632 l -0.610337,1.408478 q -0.281696,0.657289 -0.610341,0.938985 -0.37561,0.328632 -1.126786,0.704242 l -12.864101,5.727809 h -0.04693 L 86.64465,84.294714 q 1.17373,-0.563393 1.596275,-1.455426 l 0.657289,-1.455426 q -0.09391,-0.09391 -0.09391,-0.234762 0,-0.328631 0.328631,-0.328631 0.328631,0 0.328631,0.328631 z m -4.601028,0 q 0,0.281697 -0.234761,0.328632 l -0.610341,1.408478 q -0.281697,0.657289 -0.610341,0.938985 -0.375611,0.328632 -1.126782,0.704242 l -12.864101,5.727809 h -0.04693 l 12.676304,-5.962558 q 1.17373,-0.563393 1.596274,-1.455426 l 0.657289,-1.455426 q -0.09391,-0.09391 -0.09391,-0.234762 0,-0.328631 0.328631,-0.328631 0.328631,0 0.328631,0.328631 z"
       style="font-style:normal;font-variant:normal;font-weight:normal;font-stretch:normal;font-size:10.5833px;line-height:0.9;font-family:Wind;-inkscape-font-specification:'Wind, Normal';font-variant-ligatures:normal;font-variant-caps:normal;font-variant-numeric:normal;font-variant-east-asian:normal;white-space:pre;opacity:0.992;fill:#000000;fill-opacity:1;stroke:none;stroke-width:4.43617"
       id="path858" />
    <path
       d="m 76.691433,48.894997 q 0,0.281696 -0.234761,0.32872 l -0.610337,1.408482 q -0.281697,0.657263 -0.610341,0.938959 -0.37561,0.32872 -1.126782,0.704242 l -12.864105,5.727844 h -0.04693 l 12.676304,-5.962562 q 1.173734,-0.563393 1.596274,-1.455462 l 0.657289,-1.455417 q -0.09391,-0.09405 -0.09391,-0.234673 0,-0.32872 0.328631,-0.32872 0.328631,0 0.328631,0.32872 z m -4.601027,0 q 0,0.281696 -0.234762,0.32872 l -0.610341,1.408482 q -0.281696,0.657263 -0.610341,0.938959 -0.37561,0.32872 -1.126781,0.704242 L 56.64408,58.003244 h -0.04694 l 12.67631,-5.962562 q 1.173729,-0.563393 1.596274,-1.455462 l 0.657289,-1.455417 q -0.09391,-0.09405 -0.09391,-0.234673 0,-0.32872 0.328631,-0.32872 0.328631,0 0.328631,0.32872 z m -18.35717,0 q 0,0.281696 -0.234762,0.32872 l -0.610341,1.408482 q -0.281696,0.657263 -0.610341,0.938959 -0.37561,0.32872 -1.126781,0.704242 L 38.28691,58.003244 h -0.04693 l 12.6763,-5.962562 q 1.173734,-0.563393 1.596279,-1.455462 l 0.657289,-1.455417 q -0.09391,-0.09405 -0.09391,-0.234673 0,-0.32872 0.328631,-0.32872 0.328631,0 0.328631,0.32872 z m 13.756139,0 q 0,0.281696 -0.234762,0.32872 l -0.610341,1.408482 q -0.281697,0.657263 -0.610341,0.938959 -0.375611,0.32872 -1.126782,0.704242 l -12.864101,5.727844 h -0.04693 l 12.676304,-5.962562 q 1.173734,-0.563393 1.596274,-1.455462 l 0.657294,-1.455417 q -0.09391,-0.09405 -0.09391,-0.234673 0,-0.32872 0.328631,-0.32872 0.328632,0 0.328632,0.32872 z m -4.601028,0 q 0,0.281696 -0.234762,0.32872 l -0.610336,1.408482 q -0.281697,0.657263 -0.610341,0.938959 -0.37561,0.32872 -1.126786,0.704242 l -12.864101,5.727844 h -0.04693 l 12.676305,-5.962562 q 1.173729,-0.563393 1.596274,-1.455462 l 0.657289,-1.455417 q -0.09391,-0.09405 -0.09391,-0.234673 0,-0.32872 0.328631,-0.32872 0.328631,0 0.328631,0.32872 z m -4.601027,0 q 0,0.281696 -0.234762,0.32872 l -0.610341,1.408482 q -0.281696,0.657263 -0.610341,0.938959 -0.37561,0.32872 -1.126782,0.704242 l -12.8641,5.727844 h -0.04694 l 12.676305,-5.962562 q 1.173729,-0.563393 1.596274,-1.455462 l 0.657289,-1.455417 q -0.09391,-0.09405 -0.09391,-0.234673 0,-0.32872 0.328632,-0.32872 0.328631,0 0.328631,0.32872 z m 16.103598,2.300507 q 0,0.281696 -0.234762,0.32872 l -0.610341,1.408482 q -0.281697,0.657307 -0.610341,0.938959 -0.375611,0.32872 -1.126782,0.704242 l -12.864101,5.727844 h -0.04693 l 12.676304,-5.962562 q 1.173734,-0.563393 1.596279,-1.455417 l 0.657289,-1.455462 q -0.09391,-0.09405 -0.09391,-0.234673 0,-0.32872 0.328632,-0.32872 0.328631,0 0.328631,0.32872 z m -4.601028,0 q 0,0.281696 -0.234762,0.32872 l -0.610336,1.408482 q -0.281697,0.657307 -0.610341,0.938959 -0.37561,0.32872 -1.126786,0.704242 l -12.864101,5.727844 h -0.04693 l 12.676305,-5.962562 q 1.17373,-0.563393 1.596274,-1.455417 l 0.657289,-1.455462 q -0.09391,-0.09405 -0.09391,-0.234673 0,-0.32872 0.328631,-0.32872 0.328631,0 0.328631,0.32872 z m -18.357165,0 q 0,0.281696 -0.234762,0.32872 l -0.610341,1.408482 q -0.281697,0.657307 -0.610341,0.938959 -0.37561,0.32872 -1.126782,0.704242 l -12.8641,5.727844 h -0.04693 l 12.676304,-5.962562 q 1.17373,-0.563393 1.596275,-1.455417 l 0.657289,-1.455462 q -0.09391,-0.09405 -0.09391,-0.234673 0,-0.32872 0.328631,-0.32872 0.328632,0 0.328632,0.32872 z m 13.756138,0 q 0,0.281696 -0.234762,0.32872 l -0.610341,1.408482 q -0.281696,0.657307 -0.610341,0.938959 -0.37561,0.32872 -1.126782,0.704242 l -12.8641,5.727844 h -0.04693 l 12.676305,-5.962562 q 1.173729,-0.563393 1.596274,-1.455417 L 64.62547,51.43031 q -0.09391,-0.09405 -0.09391,-0.234673 0,-0.32872 0.328632,-0.32872 0.328631,0 0.328631,0.32872 z m -4.601032,0 q 0,0.281696 -0.234761,0.32872 l -0.610341,1.408482 q -0.281697,0.657307 -0.610341,0.938959 -0.375611,0.32872 -1.126782,0.704242 l -12.864101,5.727844 h -0.04693 l 12.676304,-5.962562 q 1.173734,-0.563393 1.596274,-1.455417 l 0.657294,-1.455462 q -0.09391,-0.09405 -0.09391,-0.234673 0,-0.32872 0.328631,-0.32872 0.328632,0 0.328632,0.32872 z m -4.601027,0 q 0,0.281696 -0.234762,0.32872 l -0.610341,1.408482 q -0.281696,0.657307 -0.610336,0.938959 -0.37561,0.32872 -1.126786,0.704242 l -12.864101,5.727844 h -0.04693 l 12.676305,-5.962562 q 1.173729,-0.563393 1.596274,-1.455417 l 0.657289,-1.455462 q -0.09391,-0.09405 -0.09391,-0.234673 0,-0.32872 0.328631,-0.32872 0.328631,0 0.328631,0.32872 z m 16.103602,2.300507 q 0,0.281696 -0.234762,0.32872 l -0.610341,1.408482 q -0.281696,0.657307 -0.610341,0.939003 -0.37561,0.32872 -1.126781,0.704242 l -12.864101,5.7278 h -0.04694 l 12.67631,-5.962562 q 1.173729,-0.563393 1.596274,-1.455417 l 0.657289,-1.455418 q -0.09391,-0.09405 -0.09391,-0.234673 0,-0.32872 0.328631,-0.32872 0.328631,0 0.328631,0.32872 z m -18.35717,0 q 0,0.281696 -0.234762,0.32872 l -0.610341,1.408482 q -0.281696,0.657307 -0.610341,0.939003 -0.37561,0.32872 -1.126781,0.704242 l -12.864101,5.7278 h -0.04693 l 12.6763,-5.962562 q 1.173734,-0.563393 1.596279,-1.455417 l 0.657289,-1.455418 q -0.09391,-0.09405 -0.09391,-0.234673 0,-0.32872 0.328631,-0.32872 0.328631,0 0.328631,0.32872 z m 13.756139,0 q 0,0.281696 -0.234762,0.32872 l -0.610341,1.408482 q -0.281697,0.657307 -0.610341,0.939003 -0.375611,0.32872 -1.126782,0.704242 l -12.864101,5.7278 h -0.04693 l 12.676304,-5.962562 q 1.173734,-0.563393 1.596274,-1.455417 l 0.657294,-1.455418 q -0.09391,-0.09405 -0.09391,-0.234673 0,-0.32872 0.328631,-0.32872 0.328632,0 0.328632,0.32872 z m -4.601028,0 q 0,0.281696 -0.234762,0.32872 l -0.610336,1.408482 q -0.281697,0.657307 -0.610341,0.939003 -0.37561,0.32872 -1.126786,0.704242 l -12.864101,5.7278 h -0.04693 l 12.676305,-5.962562 q 1.173729,-0.563393 1.596274,-1.455417 l 0.657289,-1.455418 q -0.09391,-0.09405 -0.09391,-0.234673 0,-0.32872 0.328631,-0.32872 0.328631,0 0.328631,0.32872 z m -4.601027,0 q 0,0.281696 -0.234762,0.32872 l -0.610341,1.408482 q -0.281696,0.657307 -0.610341,0.939003 -0.37561,0.32872 -1.126782,0.704242 l -12.8641,5.7278 h -0.04694 l 12.676305,-5.962562 q 1.173729,-0.563393 1.596274,-1.455417 l 0.657289,-1.455418 q -0.09391,-0.09405 -0.09391,-0.234673 0,-0.32872 0.328632,-0.32872 0.328631,0 0.328631,0.32872 z m 11.50257,2.300507 q 0,0.281696 -0.234762,0.328719 l -0.610336,1.408483 q -0.281697,0.657307 -0.610341,0.939003 -0.37561,0.32872 -1.126786,0.704242 l -12.864101,5.7278 h -0.04693 l 12.676305,-5.962562 q 1.17373,-0.563393 1.596274,-1.455417 l 0.657289,-1.455418 q -0.09391,-0.09405 -0.09391,-0.234673 0,-0.32872 0.328631,-0.32872 0.328631,0 0.328631,0.32872 z m -4.601027,0 q 0,0.281696 -0.234762,0.328719 L 64.34376,57.53372 q -0.281696,0.657307 -0.610341,0.939003 -0.37561,0.32872 -1.126782,0.704242 l -12.8641,5.7278 h -0.04693 l 12.676305,-5.962562 q 1.173729,-0.563393 1.596274,-1.455417 l 0.657289,-1.455418 q -0.09391,-0.09405 -0.09391,-0.234673 0,-0.32872 0.328632,-0.32872 0.328631,0 0.328631,0.32872 z m 6.901543,2.300507 q 0,0.281696 -0.234762,0.328719 l -0.610341,1.408483 q -0.281696,0.657307 -0.610341,0.939003 -0.37561,0.32872 -1.126781,0.704242 l -12.864101,5.7278 H 56.59714 L 69.27345,61.24271 q 1.173729,-0.563393 1.596274,-1.455417 l 0.657289,-1.455418 q -0.09391,-0.09405 -0.09391,-0.234673 0,-0.32872 0.328631,-0.32872 0.328631,0 0.328631,0.32872 z m -4.601031,0 q 0,0.281696 -0.234762,0.328719 l -0.610341,1.408483 q -0.281697,0.657307 -0.610341,0.939003 -0.375611,0.32872 -1.126782,0.704242 l -12.864101,5.7278 h -0.04693 l 12.6763,-5.962562 q 1.173734,-0.563393 1.596274,-1.455417 l 0.657294,-1.455418 q -0.09391,-0.09405 -0.09391,-0.234673 0,-0.32872 0.328631,-0.32872 0.328632,0 0.328632,0.32872 z m 2.300515,2.300507 q 0,0.281696 -0.234762,0.328719 l -0.610336,1.408483 q -0.281697,0.657262 -0.610341,0.938959 -0.37561,0.32872 -1.126786,0.704241 l -12.864101,5.7278 h -0.04693 l 12.676305,-5.962562 q 1.17373,-0.563348 1.596274,-1.455417 l 0.657289,-1.455417 q -0.09391,-0.09405 -0.09391,-0.234673 0,-0.32872 0.328631,-0.32872 0.328631,0 0.328631,0.32872 z m -4.601027,0 q 0,0.281696 -0.234762,0.328719 l -0.610341,1.408483 q -0.281696,0.657262 -0.610341,0.938959 -0.37561,0.32872 -1.126782,0.704241 l -12.8641,5.7278 h -0.04693 l 12.676305,-5.962562 q 1.173729,-0.563348 1.596274,-1.455417 l 0.657289,-1.455417 q -0.09391,-0.09405 -0.09391,-0.234673 0,-0.32872 0.328632,-0.32872 0.328631,0 0.328631,0.32872 z m 2.300512,2.300551 q 0,0.281696 -0.234762,0.32872 l -0.610341,1.408482 q -0.281697,0.657263 -0.610341,0.938959 -0.375611,0.32872 -1.126782,0.704242 L 52.043048,71.80633 h -0.04693 l 12.676304,-5.962562 q 1.173734,-0.563393 1.596274,-1.455462 l 0.657294,-1.455417 q -0.09391,-0.09405 -0.09391,-0.234673 0,-0.32872 0.328631,-0.32872 0.328632,0 0.328632,0.32872 z m -4.601028,0 q 0,0.281696 -0.234762,0.32872 l -0.610336,1.408482 q -0.281697,0.657263 -0.610341,0.938959 -0.37561,0.32872 -1.126786,0.704242 L 47.442021,71.80633 h -0.04693 l 12.676305,-5.962562 q 1.173729,-0.563393 1.596274,-1.455462 l 0.657289,-1.455417 q -0.09391,-0.09405 -0.09391,-0.234673 0,-0.32872 0.328631,-0.32872 0.328631,0 0.328631,0.32872 z m 2.300516,2.300507 q 0,0.281696 -0.234762,0.32872 l -0.610341,1.408482 q -0.281696,0.657307 -0.610341,0.939004 -0.37561,0.32872 -1.126782,0.704197 l -12.8641,5.727831 h -0.04693 l 12.676305,-5.962549 q 1.173729,-0.563393 1.596274,-1.455417 l 0.657289,-1.455462 q -0.09391,-0.09405 -0.09391,-0.234673 0,-0.32872 0.328632,-0.32872 0.328631,0 0.328631,0.32872 z m -4.601032,0 q 0,0.281696 -0.234761,0.32872 l -0.610341,1.408482 q -0.281697,0.657307 -0.610341,0.939004 -0.375611,0.32872 -1.126782,0.704197 l -12.864101,5.727831 h -0.04693 l 12.676304,-5.962549 q 1.173734,-0.563393 1.596274,-1.455417 l 0.657294,-1.455462 q -0.09391,-0.09405 -0.09391,-0.234673 0,-0.32872 0.328631,-0.32872 0.328632,0 0.328632,0.32872 z m 2.300516,2.300507 q 0,0.281696 -0.234762,0.32872 l -0.610336,1.408482 q -0.281697,0.657307 -0.610341,0.939004 -0.37561,0.32872 -1.126786,0.704241 L 47.442021,76.40734 h -0.04693 l 12.676305,-5.962558 q 1.173729,-0.563393 1.596274,-1.455417 l 0.657289,-1.455418 q -0.09391,-0.09405 -0.09391,-0.234673 0,-0.32872 0.328631,-0.32872 0.328631,0 0.328631,0.32872 z m -4.601027,0 q 0,0.281696 -0.234762,0.32872 l -0.610341,1.408482 q -0.281696,0.657307 -0.610341,0.939004 -0.37561,0.32872 -1.126782,0.704241 l -12.8641,5.727796 h -0.04694 l 12.676305,-5.962558 q 1.173729,-0.563393 1.596274,-1.455417 l 0.657289,-1.455418 q -0.09391,-0.09405 -0.09391,-0.234673 0,-0.32872 0.328632,-0.32872 0.328631,0 0.328631,0.32872 z m 6.901543,2.300507 q 0,0.281696 -0.234762,0.32872 l -0.610341,1.408482 q -0.281696,0.657307 -0.610341,0.939004 -0.37561,0.328719 -1.126782,0.704241 l -12.8641,5.7278 h -0.04693 l 12.676305,-5.962562 q 1.173729,-0.563393 1.596274,-1.455417 l 0.657289,-1.455418 q -0.09391,-0.09405 -0.09391,-0.234673 0,-0.32872 0.328632,-0.32872 0.328631,0 0.328631,0.32872 z m -4.601032,0 q 0,0.281696 -0.234761,0.32872 l -0.610341,1.408482 q -0.281697,0.657307 -0.610341,0.939004 -0.375611,0.328719 -1.126782,0.704241 l -12.864101,5.7278 h -0.04693 l 12.676304,-5.962562 q 1.173734,-0.563393 1.596274,-1.455417 l 0.657294,-1.455418 q -0.09391,-0.09405 -0.09391,-0.234673 0,-0.32872 0.328631,-0.32872 0.328632,0 0.328632,0.32872 z m 2.300516,2.300507 q 0,0.281696 -0.234762,0.32872 l -0.610336,1.408438 q -0.281697,0.657307 -0.610341,0.939003 -0.37561,0.328631 -1.126786,0.704242 l -12.864101,5.727809 h -0.04693 l 12.676305,-5.962558 q 1.173729,-0.563393 1.596274,-1.455431 l 0.657289,-1.455417 q -0.09391,-0.09405 -0.09391,-0.234673 0,-0.32872 0.328631,-0.32872 0.328631,0 0.328631,0.32872 z m -4.601027,0 q 0,0.281696 -0.234762,0.32872 l -0.610341,1.408438 q -0.281696,0.657307 -0.610341,0.939003 -0.37561,0.328631 -1.126782,0.704242 l -12.8641,5.727809 h -0.04694 l 12.676305,-5.962558 q 1.173729,-0.563393 1.596274,-1.455431 l 0.657289,-1.455417 q -0.09391,-0.09405 -0.09391,-0.234673 0,-0.32872 0.328632,-0.32872 0.328631,0 0.328631,0.32872 z m 2.300511,2.300524 q 0,0.281697 -0.234761,0.328632 l -0.610341,1.408478 q -0.281697,0.657289 -0.610341,0.938985 -0.375611,0.328632 -1.126782,0.704237 l -12.864101,5.727814 h -0.04693 l 12.676304,-5.962558 q 1.173734,-0.563393 1.596274,-1.455431 l 0.657294,-1.455412 q -0.09391,-0.09391 -0.09391,-0.234762 0,-0.328632 0.328631,-0.328632 0.328632,0 0.328632,0.328632 z m -4.601027,0 q 0,0.281697 -0.234762,0.328632 l -0.610341,1.408478 q -0.281696,0.657289 -0.610336,0.938985 -0.37561,0.328632 -1.126786,0.704237 l -12.864101,5.727814 h -0.04693 l 12.676305,-5.962558 q 1.173729,-0.563393 1.596274,-1.455431 l 0.657289,-1.455426 q -0.09391,-0.09391 -0.09391,-0.234762 0,-0.328631 0.328631,-0.328631 0.328631,0 0.328631,0.328631 z m 16.103602,2.347464 q 0,0.281697 -0.234762,0.328631 l -0.610341,1.408479 q -0.281696,0.657289 -0.610341,0.938985 -0.37561,0.328631 -1.126781,0.704237 L 56.64408,85.656244 H 56.59714 L 69.27345,79.6937 q 1.173729,-0.563393 1.596274,-1.45543 l 0.657289,-1.455427 q -0.09391,-0.09391 -0.09391,-0.234762 0,-0.328631 0.328631,-0.328631 0.328631,0 0.328631,0.328631 z m -18.35717,0 q 0,0.281697 -0.234762,0.328631 l -0.610341,1.408479 q -0.281696,0.657289 -0.610341,0.938985 -0.37561,0.328631 -1.126781,0.704237 L 38.28691,85.656244 h -0.04693 l 12.6763,-5.962557 q 1.173734,-0.563393 1.596279,-1.455431 l 0.657289,-1.455426 q -0.09391,-0.09391 -0.09391,-0.234762 0,-0.328631 0.328631,-0.328631 0.328631,0 0.328631,0.328631 z m 9.155111,0 q 0,0.281697 -0.234762,0.328631 l -0.610336,1.408479 q -0.281697,0.657289 -0.610341,0.938985 -0.37561,0.328631 -1.126786,0.704237 l -12.864101,5.727813 h -0.04693 l 12.6763,-5.962544 q 1.173729,-0.563393 1.596274,-1.45543 l 0.657289,-1.455427 q -0.09391,-0.09391 -0.09391,-0.234762 0,-0.328631 0.328631,-0.328631 0.328631,0 0.328631,0.328631 z m -4.601027,0 q 0,0.281697 -0.234762,0.328631 l -0.610341,1.408479 q -0.281696,0.657289 -0.610341,0.938985 -0.37561,0.328631 -1.126782,0.704237 l -12.8641,5.727813 h -0.04694 L 55.470364,79.6937 q 1.173729,-0.563393 1.596274,-1.45543 l 0.657289,-1.455427 q -0.09391,-0.09391 -0.09391,-0.234762 0,-0.328631 0.328632,-0.328631 0.328631,0 0.328631,0.328631 z m 16.103598,2.300512 q 0,0.281696 -0.234762,0.328631 l -0.610341,1.408478 q -0.281697,0.657293 -0.610341,0.938986 -0.375611,0.328631 -1.126782,0.704241 l -12.864101,5.727809 h -0.04693 l 12.676304,-5.962558 q 1.173734,-0.563388 1.596279,-1.455426 l 0.657289,-1.455426 q -0.09391,-0.09391 -0.09391,-0.234762 0,-0.328631 0.328632,-0.328631 0.328631,0 0.328631,0.328631 z m -4.601028,0 q 0,0.281696 -0.234762,0.328631 l -0.610336,1.408478 q -0.281697,0.657293 -0.610341,0.938986 -0.37561,0.328631 -1.126786,0.704241 l -12.864088,5.727822 h -0.04693 l 12.676304,-5.962557 q 1.17373,-0.563389 1.596275,-1.455427 l 0.657289,-1.455426 q -0.09391,-0.09391 -0.09391,-0.234762 0,-0.328631 0.328631,-0.328631 0.328631,0 0.328631,0.328631 z m -18.357165,0 q 0,0.281696 -0.234762,0.328631 l -0.610341,1.408478 q -0.281697,0.657293 -0.610341,0.938986 -0.37561,0.328631 -1.126782,0.704241 l -12.864087,5.727822 h -0.04694 l 12.676305,-5.962557 q 1.173729,-0.563389 1.596274,-1.455427 l 0.657289,-1.455426 q -0.09391,-0.09391 -0.09391,-0.234762 0,-0.328631 0.328631,-0.328631 0.328631,0 0.328631,0.328631 z m 13.756138,0 q 0,0.281696 -0.234762,0.328631 L 64.34376,80.58572 q -0.281696,0.657293 -0.610341,0.938986 -0.37561,0.328631 -1.126782,0.704241 l -12.8641,5.727809 h -0.04693 l 12.676305,-5.962558 q 1.173729,-0.563388 1.596274,-1.455426 l 0.657289,-1.455426 q -0.09391,-0.09391 -0.09391,-0.234762 0,-0.328631 0.328632,-0.328631 0.328631,0 0.328631,0.328631 z m -4.601032,0 q 0,0.281696 -0.234761,0.328631 l -0.610341,1.408478 q -0.281697,0.657293 -0.610341,0.938986 -0.375611,0.328631 -1.126782,0.704241 l -12.864101,5.727809 h -0.04693 l 12.676304,-5.962558 q 1.173734,-0.563388 1.596274,-1.455426 l 0.657294,-1.455426 q -0.09391,-0.09391 -0.09391,-0.234762 0,-0.328631 0.328631,-0.328631 0.328632,0 0.328632,0.328631 z m -4.601027,0 q 0,0.281696 -0.234762,0.328631 l -0.610341,1.408478 q -0.281696,0.657293 -0.610336,0.938986 -0.37561,0.328631 -1.126786,0.704241 l -12.864088,5.727822 h -0.04693 l 12.676304,-5.962557 q 1.173716,-0.563389 1.596261,-1.455427 l 0.657289,-1.455426 q -0.09391,-0.09391 -0.09391,-0.234762 0,-0.328631 0.328631,-0.328631 0.328631,0 0.328631,0.328631 z m 16.103602,2.300515 q 0,0.281697 -0.234762,0.328632 l -0.610341,1.408478 q -0.281696,0.657289 -0.610341,0.938985 -0.37561,0.328632 -1.126781,0.704242 L 56.64408,90.257272 h -0.04694 l 12.67631,-5.962558 q 1.173729,-0.563393 1.596274,-1.455426 l 0.657289,-1.455426 Q 71.4331,81.289948 71.4331,81.1491 q 0,-0.328631 0.328631,-0.328631 0.328631,0 0.328631,0.328631 z m -18.35717,0 q 0,0.281697 -0.234762,0.328632 l -0.610341,1.408478 q -0.281696,0.657289 -0.610341,0.938985 -0.37561,0.328632 -1.126781,0.704242 L 38.28691,90.257272 h -0.04693 l 12.6763,-5.962558 q 1.173734,-0.563393 1.596279,-1.455426 l 0.657289,-1.455426 q -0.09391,-0.09391 -0.09391,-0.234762 0,-0.328631 0.328631,-0.328631 0.328631,0 0.328631,0.328631 z m 13.756139,0 q 0,0.281697 -0.234762,0.328632 l -0.610341,1.408478 q -0.281697,0.657289 -0.610341,0.938985 -0.375611,0.328632 -1.126782,0.704242 l -12.864101,5.727809 h -0.04693 l 12.676304,-5.962558 q 1.173734,-0.563393 1.596274,-1.455426 l 0.657294,-1.455426 q -0.09391,-0.09391 -0.09391,-0.234762 0,-0.328631 0.328631,-0.328631 0.328632,0 0.328632,0.328631 z m -4.601028,0 q 0,0.281697 -0.234762,0.328632 l -0.610336,1.408478 q -0.281697,0.657289 -0.610341,0.938985 -0.37561,0.328632 -1.126786,0.704242 l -12.864101,5.727809 h -0.04693 l 12.676305,-5.962558 q 1.173729,-0.563393 1.596274,-1.455426 l 0.657289,-1.455426 q -0.09391,-0.09391 -0.09391,-0.234762 0,-0.328631 0.328631,-0.328631 0.328631,0 0.328631,0.328631 z m -4.601027,0 q 0,0.281697 -0.234762,0.328632 l -0.610341,1.408478 q -0.281696,0.657289 -0.610341,0.938985 -0.37561,0.328632 -1.126782,0.704242 l -12.8641,5.727809 h -0.04694 l 12.676305,-5.962558 q 1.173729,-0.563393 1.596274,-1.455426 l 0.657289,-1.455426 q -0.09391,-0.09391 -0.09391,-0.234762 0,-0.328631 0.328632,-0.328631 0.328631,0 0.328631,0.328631 z m 9.202055,-4.601027 q 0,0.281697 -0.234762,0.328631 l -0.610341,1.408479 q -0.281697,0.657289 -0.610341,0.938985 -0.375611,0.328631 -1.126782,0.704237 l -12.864101,5.727813 h -0.04693 l 12.6763,-5.962544 q 1.173734,-0.563393 1.596274,-1.45543 l 0.657294,-1.455427 q -0.09391,-0.09391 -0.09391,-0.234762 0,-0.328631 0.328631,-0.328631 0.328632,0 0.328632,0.328631 z"
       style="font-style:normal;font-variant:normal;font-weight:normal;font-stretch:normal;font-size:10.5833px;line-height:0.9;font-family:Wind;-inkscape-font-specification:'Wind, Normal';font-variant-ligatures:normal;font-variant-caps:normal;font-variant-numeric:normal;font-variant-east-asian:normal;white-space:pre;opacity:0.992;fill:#000000;fill-opacity:1;stroke:none;stroke-width:4.43617"
       id="path860" />
  </g>
</svg>
