<?xml version="1.0" encoding="UTF-8" standalone="no"?>
<!DOCTYPE svg PUBLIC "-//W3C//DTD SVG 1.1//EN"
 "http://www.w3.org/Graphics/SVG/1.1/DTD/svg11.dtd">
<!-- Generated by graphviz version 2.44.0 (0)
 -->
<!-- Title: svg::append_ids_at Pages: 1 -->
<!--zoomable 300 -->
<svg id="main" version="1.1" xmlns="http://www.w3.org/2000/svg" xmlns:xlink="http://www.w3.org/1999/xlink" xml:space="preserve" onload="init(evt)">
<style type="text/css"><![CDATA[
.edge:hover path { stroke: red; }
.edge:hover polygon { stroke: red; fill: red; }
]]></style>
<script type="text/javascript"><![CDATA[
var edges = document.getElementsByTagName('g');
if (edges && edges.length) {
  for (var i=0;i<edges.length;i++) {
    if (edges[i].id.substr(0,4)=='edge') {
      edges[i].setAttribute('class','edge');
    }
  }
}
]]></script>
        <defs>
                <circle id="rim" cx="0" cy="0" r="7"/>
                <circle id="rim2" cx="0" cy="0" r="3.5"/>
                <g id="zoomPlus">
                        <use xlink:href="#rim" fill="#404040">
                                <set attributeName="fill" to="#808080" begin="zoomplus.mouseover" end="zoomplus.mouseout"/>
                        </use>
                        <path d="M-4,0h8M0,-4v8" fill="none" stroke="white" stroke-width="1.5" pointer-events="none"/>
                </g>
                <g id="zoomMin">
                        <use xlink:href="#rim" fill="#404040">
                                <set attributeName="fill" to="#808080" begin="zoomminus.mouseover" end="zoomminus.mouseout"/>
                        </use>
                        <path d="M-4,0h8" fill="none" stroke="white" stroke-width="1.5" pointer-events="none"/>
                </g>
                <g id="dirArrow">
                        <path fill="none" stroke="white" stroke-width="1.5" d="M0,-3.0v7 M-2.5,-0.5L0,-3.0L2.5,-0.5"/>
                </g>
               <g id="resetDef">
                       <use xlink:href="#rim2" fill="#404040">
                               <set attributeName="fill" to="#808080" begin="reset.mouseover" end="reset.mouseout"/>
                       </use>
               </g>
        </defs>

<script type="text/javascript">
var viewWidth = 1106;
var viewHeight = 300;
var sectionId = 'dynsection-3';
</script>
<script xlink:href="svgpan.js"/>
<svg id="graph" class="graph">
<g id="viewport">
<title>svg::append_ids_at</title>
<polygon fill="white" stroke="transparent" points="-4,4 -4,-295.5 1102,-295.5 1102,4 -4,4"/>
<!-- Node1 -->
<g id="node1" class="node">
<title>Node1</title>
<g id="a_node1"><a xlink:title="Concatenate ids onto one line.">
<polygon fill="#bfbfbf" stroke="black" points="0,-86.5 0,-103.5 96,-103.5 96,-86.5 0,-86.5"/>
<text text-anchor="middle" x="48" y="-93.1" font-family="SourceSans" font-size="8.00">svg::append_ids_at</text>
</a>
</g>
</g>
<!-- Node2 -->
<g id="node2" class="node">
<title>Node2</title>
<g id="a_node2"><a xlink:href="namespacesvg.html#a06b88691cd28e6fb0c8e79ca44b34423" target="_top" xlink:title=" ">
<polygon fill="white" stroke="black" points="132,-86.5 132,-103.5 218,-103.5 218,-86.5 132,-86.5"/>
<text text-anchor="middle" x="175" y="-93.1" font-family="SourceSans" font-size="8.00">svg::radial_text_r</text>
</a>
</g>
</g>
<!-- Node1&#45;&gt;Node2 -->
<g id="edge1" class="edge">
<title>Node1&#45;&gt;Node2</title>
<path fill="none" stroke="midnightblue" d="M96.26,-95C104.51,-95 113.15,-95 121.54,-95"/>
<polygon fill="midnightblue" stroke="midnightblue" points="121.6,-98.5 131.6,-95 121.6,-91.5 121.6,-98.5"/>
</g>
<!-- Node3 -->
<g id="node3" class="node">
<title>Node3</title>
<g id="a_node3"><a xlink:href="namespacesvg.html#ab44508c4aeca591141ebec50145b75cd" target="_top" xlink:title="Angle in degrees.">
<polygon fill="white" stroke="black" points="261,-159 261,-185 374,-185 374,-159 261,-159"/>
<text text-anchor="start" x="269" y="-174.6" font-family="SourceSans" font-size="8.00">svg::get_circumference</text>
<text text-anchor="middle" x="317.5" y="-165.6" font-family="SourceSans" font-size="8.00">_point_d</text>
</a>
</g>
</g>
<!-- Node2&#45;&gt;Node3 -->
<g id="edge2" class="edge">
<title>Node2&#45;&gt;Node3</title>
<path fill="none" stroke="midnightblue" d="M186.55,-103.61C201.06,-115.13 228.28,-135.64 254,-149 258.2,-151.18 262.66,-153.26 267.19,-155.2"/>
<polygon fill="midnightblue" stroke="midnightblue" points="265.93,-158.47 276.51,-159 268.57,-151.98 265.93,-158.47"/>
</g>
<!-- Node6 -->
<g id="node6" class="node">
<title>Node6</title>
<g id="a_node6"><a xlink:href="namespacesvg.html#a5ec86f1aa5e4c9923a7c11c2cbb89660" target="_top" xlink:title="Text with typography, arranged ccw around points (x,y) on a circle.">
<polygon fill="white" stroke="black" points="268.5,-86.5 268.5,-103.5 366.5,-103.5 366.5,-86.5 268.5,-86.5"/>
<text text-anchor="middle" x="317.5" y="-93.1" font-family="SourceSans" font-size="8.00">svg::radial_text_ccw</text>
</a>
</g>
</g>
<!-- Node2&#45;&gt;Node6 -->
<g id="edge5" class="edge">
<title>Node2&#45;&gt;Node6</title>
<path fill="none" stroke="midnightblue" d="M218.15,-95C230.78,-95 244.85,-95 258.32,-95"/>
<polygon fill="midnightblue" stroke="midnightblue" points="258.46,-98.5 268.46,-95 258.46,-91.5 258.46,-98.5"/>
</g>
<!-- Node23 -->
<g id="node23" class="node">
<title>Node23</title>
<g id="a_node23"><a xlink:href="namespacesvg.html#a82c3b1f2d71d9212c46493e76e5dc087" target="_top" xlink:title="Text with typography, arranged cw around points (x,y) on a circle.">
<polygon fill="white" stroke="black" points="270.5,-122.5 270.5,-139.5 364.5,-139.5 364.5,-122.5 270.5,-122.5"/>
<text text-anchor="middle" x="317.5" y="-129.1" font-family="SourceSans" font-size="8.00">svg::radial_text_cw</text>
</a>
</g>
</g>
<!-- Node2&#45;&gt;Node23 -->
<g id="edge31" class="edge">
<title>Node2&#45;&gt;Node23</title>
<path fill="none" stroke="midnightblue" d="M209.3,-103.53C228.4,-108.43 252.61,-114.63 273.19,-119.9"/>
<polygon fill="midnightblue" stroke="midnightblue" points="272.4,-123.31 282.96,-122.4 274.14,-116.53 272.4,-123.31"/>
</g>
<!-- Node24 -->
<g id="node24" class="node">
<title>Node24</title>
<g id="a_node24"><a xlink:href="namespacesvg.html#a010fea242a289d173d521b501140cd72" target="_top" xlink:title="Zero degrees is top, going clockwise (cw).">
<polygon fill="white" stroke="black" points="254,-50.5 254,-67.5 381,-67.5 381,-50.5 254,-50.5"/>
<text text-anchor="middle" x="317.5" y="-57.1" font-family="SourceSans" font-size="8.00">svg::zero_angle_north_ccw</text>
</a>
</g>
</g>
<!-- Node2&#45;&gt;Node24 -->
<g id="edge34" class="edge">
<title>Node2&#45;&gt;Node24</title>
<path fill="none" stroke="midnightblue" d="M209.3,-86.47C228.4,-81.57 252.61,-75.37 273.19,-70.1"/>
<polygon fill="midnightblue" stroke="midnightblue" points="274.14,-73.47 282.96,-67.6 272.4,-66.69 274.14,-73.47"/>
</g>
<!-- Node25 -->
<g id="node25" class="node">
<title>Node25</title>
<g id="a_node25"><a xlink:href="namespacesvg.html#a46164d75fd5109e4ed8879abbacd5c11" target="_top" xlink:title="Zero degrees is top, going clockwise (cw).">
<polygon fill="white" stroke="black" points="256.5,-14.5 256.5,-31.5 378.5,-31.5 378.5,-14.5 256.5,-14.5"/>
<text text-anchor="middle" x="317.5" y="-21.1" font-family="SourceSans" font-size="8.00">svg::zero_angle_north_cw</text>
</a>
</g>
</g>
<!-- Node2&#45;&gt;Node25 -->
<g id="edge35" class="edge">
<title>Node2&#45;&gt;Node25</title>
<path fill="none" stroke="midnightblue" d="M186.42,-86.12C200.76,-74.29 227.81,-53.42 254,-41 258.97,-38.64 264.32,-36.53 269.71,-34.65"/>
<polygon fill="midnightblue" stroke="midnightblue" points="270.97,-37.93 279.41,-31.53 268.82,-31.26 270.97,-37.93"/>
</g>
<!-- Node4 -->
<g id="node4" class="node">
<title>Node4</title>
<g id="a_node4"><a xlink:href="namespacesvg.html#a85a18af2008e9709e4d641ef4bda04e7" target="_top" xlink:title="Angle in radians.">
<polygon fill="white" stroke="black" points="417,-197 417,-223 530,-223 530,-197 417,-197"/>
<text text-anchor="start" x="425" y="-212.6" font-family="SourceSans" font-size="8.00">svg::get_circumference</text>
<text text-anchor="middle" x="473.5" y="-203.6" font-family="SourceSans" font-size="8.00">_point</text>
</a>
</g>
</g>
<!-- Node3&#45;&gt;Node4 -->
<g id="edge3" class="edge">
<title>Node3&#45;&gt;Node4</title>
<path fill="none" stroke="midnightblue" d="M371.5,-185.08C383.79,-188.11 396.98,-191.37 409.65,-194.49"/>
<polygon fill="midnightblue" stroke="midnightblue" points="409.12,-197.97 419.67,-196.96 410.79,-191.17 409.12,-197.97"/>
</g>
<!-- Node5 -->
<g id="node5" class="node">
<title>Node5</title>
<g id="a_node5"><a xlink:href="namespacesvg_1_1constants.html#a0e0b0d9314bc47324ee39884bf8bb2fd" target="_top" xlink:title=" ">
<polygon fill="white" stroke="black" points="428,-160.5 428,-177.5 519,-177.5 519,-160.5 428,-160.5"/>
<text text-anchor="middle" x="473.5" y="-167.1" font-family="SourceSans" font-size="8.00">svg::constants::pi</text>
</a>
</g>
</g>
<!-- Node3&#45;&gt;Node5 -->
<g id="edge4" class="edge">
<title>Node3&#45;&gt;Node5</title>
<path fill="none" stroke="midnightblue" d="M374.1,-170.92C388.24,-170.64 403.43,-170.35 417.54,-170.07"/>
<polygon fill="midnightblue" stroke="midnightblue" points="417.66,-173.57 427.59,-169.87 417.53,-166.57 417.66,-173.57"/>
</g>
<!-- Node7 -->
<g id="node7" class="node">
<title>Node7</title>
<g id="a_node7"><a xlink:href="namespacesvg.html#ab2d2020c33da2e0215837673e530b991" target="_top" xlink:title="Text at size.">
<polygon fill="white" stroke="black" points="435,-122.5 435,-139.5 512,-139.5 512,-122.5 435,-122.5"/>
<text text-anchor="middle" x="473.5" y="-129.1" font-family="SourceSans" font-size="8.00">svg::sized_text</text>
</a>
</g>
</g>
<!-- Node6&#45;&gt;Node7 -->
<g id="edge6" class="edge">
<title>Node6&#45;&gt;Node7</title>
<path fill="none" stroke="midnightblue" d="M355,-103.53C376.3,-108.51 403.39,-114.85 426.19,-120.17"/>
<polygon fill="midnightblue" stroke="midnightblue" points="425.47,-123.6 436,-122.47 427.06,-116.78 425.47,-123.6"/>
</g>
<!-- Node21 -->
<g id="node21" class="node">
<title>Node21</title>
<g id="a_node21"><a xlink:href="namespacesvg.html#a4399801aa964203bcab6e6ab2e7b4200" target="_top" xlink:title="Text at size, with a transformation=rotation.">
<polygon fill="white" stroke="black" points="431.5,-86.5 431.5,-103.5 515.5,-103.5 515.5,-86.5 431.5,-86.5"/>
<text text-anchor="middle" x="473.5" y="-93.1" font-family="SourceSans" font-size="8.00">svg::sized_text_r</text>
</a>
</g>
</g>
<!-- Node6&#45;&gt;Node21 -->
<g id="edge25" class="edge">
<title>Node6&#45;&gt;Node21</title>
<path fill="none" stroke="midnightblue" d="M366.8,-95C384.13,-95 403.72,-95 421.29,-95"/>
<polygon fill="midnightblue" stroke="midnightblue" points="421.37,-98.5 431.37,-95 421.37,-91.5 421.37,-98.5"/>
</g>
<!-- Node8 -->
<g id="node8" class="node">
<title>Node8</title>
<g id="a_node8"><a xlink:href="group__elements.html#aad29e1daf75bdcd69a39575a6807fa0f" target="_top" xlink:title="Either serialize immediately (as below), or create data structure that adds data to data_vec and then...">
<polygon fill="white" stroke="black" points="573.5,-127 573.5,-153 668.5,-153 668.5,-127 573.5,-127"/>
<text text-anchor="start" x="581.5" y="-142.6" font-family="SourceSans" font-size="8.00">svg::text_element::</text>
<text text-anchor="middle" x="621" y="-133.6" font-family="SourceSans" font-size="8.00">add_data</text>
</a>
</g>
</g>
<!-- Node7&#45;&gt;Node8 -->
<g id="edge7" class="edge">
<title>Node7&#45;&gt;Node8</title>
<path fill="none" stroke="midnightblue" d="M512.35,-133.34C527.76,-134.29 545.91,-135.42 562.87,-136.47"/>
<polygon fill="midnightblue" stroke="midnightblue" points="563.04,-139.98 573.24,-137.11 563.47,-133 563.04,-139.98"/>
</g>
<!-- Node18 -->
<g id="node18" class="node">
<title>Node18</title>
<g id="a_node18"><a xlink:href="group__elements.html#adb6116b96467cc39cb178deb10c7a869" target="_top" xlink:title=" ">
<polygon fill="white" stroke="black" points="566,-82 566,-108 676,-108 676,-82 566,-82"/>
<text text-anchor="start" x="574" y="-97.6" font-family="SourceSans" font-size="8.00">svg::svg_element::add</text>
<text text-anchor="middle" x="621" y="-88.6" font-family="SourceSans" font-size="8.00">_element</text>
</a>
</g>
</g>
<!-- Node7&#45;&gt;Node18 -->
<g id="edge22" class="edge">
<title>Node7&#45;&gt;Node18</title>
<path fill="none" stroke="midnightblue" d="M508.98,-122.47C523.39,-118.9 540.59,-114.65 557.11,-110.56"/>
<polygon fill="midnightblue" stroke="midnightblue" points="558.4,-113.85 567.27,-108.05 556.72,-107.05 558.4,-113.85"/>
</g>
<!-- Node19 -->
<g id="node19" class="node">
<title>Node19</title>
<g id="a_node19"><a xlink:href="group__elements.html#ga13c46848317034d16c62a7d2061ba3d6" target="_top" xlink:title=" ">
<polygon fill="white" stroke="black" points="573.5,-37 573.5,-63 668.5,-63 668.5,-37 573.5,-37"/>
<text text-anchor="start" x="581.5" y="-52.6" font-family="SourceSans" font-size="8.00">svg::text_element::</text>
<text text-anchor="middle" x="621" y="-43.6" font-family="SourceSans" font-size="8.00">finish_element</text>
</a>
</g>
</g>
<!-- Node7&#45;&gt;Node19 -->
<g id="edge23" class="edge">
<title>Node7&#45;&gt;Node19</title>
<path fill="none" stroke="midnightblue" d="M510.44,-122.47C517.24,-120.01 524.08,-116.9 530,-113 550.26,-99.67 546.24,-86.06 566,-72 568.09,-70.51 570.3,-69.1 572.58,-67.77"/>
<polygon fill="midnightblue" stroke="midnightblue" points="574.41,-70.76 581.64,-63.01 571.16,-64.56 574.41,-70.76"/>
</g>
<!-- Node20 -->
<g id="node20" class="node">
<title>Node20</title>
<g id="a_node20"><a xlink:href="group__elements.html#ae45bec611a6ec17ea46aab6d680ae042" target="_top" xlink:title=" ">
<polygon fill="white" stroke="black" points="573.5,-172 573.5,-198 668.5,-198 668.5,-172 573.5,-172"/>
<text text-anchor="start" x="581.5" y="-187.6" font-family="SourceSans" font-size="8.00">svg::text_element::</text>
<text text-anchor="middle" x="621" y="-178.6" font-family="SourceSans" font-size="8.00">start_element</text>
</a>
</g>
</g>
<!-- Node7&#45;&gt;Node20 -->
<g id="edge24" class="edge">
<title>Node7&#45;&gt;Node20</title>
<path fill="none" stroke="midnightblue" d="M498.57,-139.58C508.34,-143.09 519.72,-147.21 530,-151 545.17,-156.6 561.73,-162.82 576.47,-168.4"/>
<polygon fill="midnightblue" stroke="midnightblue" points="575.27,-171.69 585.86,-171.96 577.75,-165.14 575.27,-171.69"/>
</g>
<!-- Node9 -->
<g id="node9" class="node">
<title>Node9</title>
<g id="a_node9"><a xlink:href="structsvg_1_1typography.html#adbc62f74f1fed3f7c77567250f084f83" target="_top" xlink:title=" ">
<polygon fill="white" stroke="black" points="712,-148 712,-174 817,-174 817,-148 712,-148"/>
<text text-anchor="start" x="720" y="-163.6" font-family="SourceSans" font-size="8.00">svg::typography::add</text>
<text text-anchor="middle" x="764.5" y="-154.6" font-family="SourceSans" font-size="8.00">_attribute</text>
</a>
</g>
</g>
<!-- Node8&#45;&gt;Node9 -->
<g id="edge8" class="edge">
<title>Node8&#45;&gt;Node9</title>
<path fill="none" stroke="midnightblue" d="M668.72,-146.93C679.33,-148.51 690.74,-150.2 701.86,-151.85"/>
<polygon fill="midnightblue" stroke="midnightblue" points="701.54,-155.34 711.94,-153.35 702.57,-148.42 701.54,-155.34"/>
</g>
<!-- Node12 -->
<g id="node12" class="node">
<title>Node12</title>
<g id="a_node12"><a xlink:href="namespacesvg.html#a48ac748e89e22789d1772326a98dd7b6" target="_top" xlink:title=" ">
<polygon fill="white" stroke="black" points="856,-70.5 856,-87.5 951,-87.5 951,-70.5 856,-70.5"/>
<text text-anchor="middle" x="903.5" y="-77.1" font-family="SourceSans" font-size="8.00">svg::string_replace</text>
</a>
</g>
</g>
<!-- Node8&#45;&gt;Node12 -->
<g id="edge20" class="edge">
<title>Node8&#45;&gt;Node12</title>
<path fill="none" stroke="midnightblue" d="M668.6,-130.97C708.17,-123.17 766.43,-111.39 817,-100 830.66,-96.92 845.5,-93.36 858.92,-90.05"/>
<polygon fill="midnightblue" stroke="midnightblue" points="860,-93.38 868.87,-87.58 858.32,-86.59 860,-93.38"/>
</g>
<!-- Node16 -->
<g id="node16" class="node">
<title>Node16</title>
<g id="a_node16"><a xlink:href="group__elements.html#a53d72a7ff728ad1d4d027254530bcf3d" target="_top" xlink:title="Common transforms include rotate(180)">
<polygon fill="white" stroke="black" points="853,-265 853,-291 954,-291 954,-265 853,-265"/>
<text text-anchor="start" x="861" y="-280.6" font-family="SourceSans" font-size="8.00">svg::element_base::</text>
<text text-anchor="middle" x="903.5" y="-271.6" font-family="SourceSans" font-size="8.00">add_transform</text>
</a>
</g>
</g>
<!-- Node8&#45;&gt;Node16 -->
<g id="edge17" class="edge">
<title>Node8&#45;&gt;Node16</title>
<path fill="none" stroke="midnightblue" d="M654.57,-153.09C661.71,-156.18 669.17,-159.57 676,-163 692.55,-171.31 695.68,-175.23 712,-184 764.41,-212.17 826.42,-242.17 865.11,-260.5"/>
<polygon fill="midnightblue" stroke="midnightblue" points="863.89,-263.79 874.43,-264.9 866.88,-257.46 863.89,-263.79"/>
</g>
<!-- Node17 -->
<g id="node17" class="node">
<title>Node17</title>
<g id="a_node17"><a xlink:href="namespacesvg.html#a36b1c48ad4601b205790e3772ad0a7b6" target="_top" xlink:title=" ">
<polygon fill="white" stroke="black" points="728.5,-73.5 728.5,-90.5 800.5,-90.5 800.5,-73.5 728.5,-73.5"/>
<text text-anchor="middle" x="764.5" y="-80.1" font-family="SourceSans" font-size="8.00">svg::to_string</text>
</a>
</g>
</g>
<!-- Node8&#45;&gt;Node17 -->
<g id="edge21" class="edge">
<title>Node8&#45;&gt;Node17</title>
<path fill="none" stroke="midnightblue" d="M653.76,-126.98C677.43,-117.28 709.57,-104.11 732.94,-94.53"/>
<polygon fill="midnightblue" stroke="midnightblue" points="734.45,-97.69 742.38,-90.66 731.8,-91.21 734.45,-97.69"/>
</g>
<!-- Node10 -->
<g id="node10" class="node">
<title>Node10</title>
<g id="a_node10"><a xlink:href="namespacesvg_1_1constants.html#a3972655f1dfdc090ec2592d1fb37e87c" target="_top" xlink:title=" ">
<polygon fill="white" stroke="black" points="990.5,-189.5 990.5,-206.5 1097.5,-206.5 1097.5,-189.5 990.5,-189.5"/>
<text text-anchor="middle" x="1044" y="-196.1" font-family="SourceSans" font-size="8.00">svg::constants::quote</text>
</a>
</g>
</g>
<!-- Node9&#45;&gt;Node10 -->
<g id="edge9" class="edge">
<title>Node9&#45;&gt;Node10</title>
<path fill="none" stroke="midnightblue" d="M817.16,-172.55C828.9,-174.92 841.35,-177.22 853,-179 895.24,-185.44 943.1,-190.21 980.23,-193.36"/>
<polygon fill="midnightblue" stroke="midnightblue" points="980.14,-196.87 990.4,-194.21 980.72,-189.89 980.14,-196.87"/>
</g>
<!-- Node11 -->
<g id="node11" class="node">
<title>Node11</title>
<g id="a_node11"><a xlink:href="namespacesvg_1_1constants.html#ac460bc8db60d85c3ae1cf8b1a903405e" target="_top" xlink:title="Formatting character constants.">
<polygon fill="white" stroke="black" points="990,-227.5 990,-244.5 1098,-244.5 1098,-227.5 990,-227.5"/>
<text text-anchor="middle" x="1044" y="-234.1" font-family="SourceSans" font-size="8.00">svg::constants::space</text>
</a>
</g>
</g>
<!-- Node9&#45;&gt;Node11 -->
<g id="edge10" class="edge">
<title>Node9&#45;&gt;Node11</title>
<path fill="none" stroke="midnightblue" d="M792.55,-174.12C809.58,-181.96 832.19,-191.59 853,-198 894.44,-210.76 942.31,-220.3 979.63,-226.63"/>
<polygon fill="midnightblue" stroke="midnightblue" points="979.43,-230.15 989.87,-228.34 980.57,-223.24 979.43,-230.15"/>
</g>
<!-- Node9&#45;&gt;Node12 -->
<g id="edge11" class="edge">
<title>Node9&#45;&gt;Node12</title>
<path fill="none" stroke="midnightblue" d="M793.12,-147.86C801.12,-143.57 809.66,-138.48 817,-133 835.13,-119.46 833.91,-109.15 853,-97 856.16,-94.99 859.57,-93.16 863.07,-91.51"/>
<polygon fill="midnightblue" stroke="midnightblue" points="864.6,-94.66 872.45,-87.55 861.88,-88.22 864.6,-94.66"/>
</g>
<!-- Node13 -->
<g id="node13" class="node">
<title>Node13</title>
<g id="a_node13"><a xlink:href="structsvg_1_1typography.html#a174c1ffb4e56214d71523ffe7e422561" target="_top" xlink:title=" ">
<polygon fill="white" stroke="black" points="854.5,-107 854.5,-133 952.5,-133 952.5,-107 854.5,-107"/>
<text text-anchor="start" x="862.5" y="-122.6" font-family="SourceSans" font-size="8.00">svg::typography::to</text>
<text text-anchor="middle" x="903.5" y="-113.6" font-family="SourceSans" font-size="8.00">_string</text>
</a>
</g>
</g>
<!-- Node9&#45;&gt;Node13 -->
<g id="edge12" class="edge">
<title>Node9&#45;&gt;Node13</title>
<path fill="none" stroke="midnightblue" d="M809.22,-147.91C821.83,-144.14 835.73,-139.98 848.86,-136.05"/>
<polygon fill="midnightblue" stroke="midnightblue" points="850.14,-139.32 858.72,-133.1 848.14,-132.62 850.14,-139.32"/>
</g>
<!-- Node14 -->
<g id="node14" class="node">
<title>Node14</title>
<g id="a_node14"><a xlink:href="namespacesvg.html#a7363f3de9a003a4399e7ede9036299d4" target="_top" xlink:title=" ">
<polygon fill="white" stroke="black" points="867.5,-152.5 867.5,-169.5 939.5,-169.5 939.5,-152.5 867.5,-152.5"/>
<text text-anchor="middle" x="903.5" y="-159.1" font-family="SourceSans" font-size="8.00">svg::to_string</text>
</a>
</g>
</g>
<!-- Node9&#45;&gt;Node14 -->
<g id="edge13" class="edge">
<title>Node9&#45;&gt;Node14</title>
<path fill="none" stroke="midnightblue" d="M817.29,-161C830.32,-161 844.2,-161 856.89,-161"/>
<polygon fill="midnightblue" stroke="midnightblue" points="857.24,-164.5 867.24,-161 857.24,-157.5 857.24,-164.5"/>
</g>
<!-- Node14&#45;&gt;Node10 -->
<g id="edge14" class="edge">
<title>Node14&#45;&gt;Node10</title>
<path fill="none" stroke="midnightblue" d="M936.62,-169.58C955.85,-174.72 980.5,-181.3 1001.23,-186.84"/>
<polygon fill="midnightblue" stroke="midnightblue" points="1000.49,-190.27 1011.05,-189.46 1002.29,-183.5 1000.49,-190.27"/>
</g>
<!-- Node14&#45;&gt;Node11 -->
<g id="edge15" class="edge">
<title>Node14&#45;&gt;Node11</title>
<path fill="none" stroke="midnightblue" d="M916.2,-169.67C932.25,-181.28 962.25,-202.04 990,-216 995.52,-218.78 1001.51,-221.39 1007.42,-223.76"/>
<polygon fill="midnightblue" stroke="midnightblue" points="1006.6,-227.19 1017.19,-227.5 1009.1,-220.66 1006.6,-227.19"/>
</g>
<!-- Node15 -->
<g id="node15" class="node">
<title>Node15</title>
<g id="a_node15"><a xlink:href="structsvg_1_1colorq.html#adb55a2a48193fafa55340505862278e4" target="_top" xlink:title=" ">
<polygon fill="white" stroke="black" points="992,-152.5 992,-169.5 1096,-169.5 1096,-152.5 992,-152.5"/>
<text text-anchor="middle" x="1044" y="-159.1" font-family="SourceSans" font-size="8.00">svg::colorq::to_string</text>
</a>
</g>
</g>
<!-- Node14&#45;&gt;Node15 -->
<g id="edge16" class="edge">
<title>Node14&#45;&gt;Node15</title>
<path fill="none" stroke="midnightblue" d="M939.81,-161C952.51,-161 967.24,-161 981.53,-161"/>
<polygon fill="midnightblue" stroke="midnightblue" points="981.81,-164.5 991.81,-161 981.81,-157.5 981.81,-164.5"/>
</g>
<!-- Node16&#45;&gt;Node10 -->
<g id="edge18" class="edge">
<title>Node16&#45;&gt;Node10</title>
<path fill="none" stroke="midnightblue" d="M920.42,-264.98C937.03,-251.86 964.19,-231.65 990,-218 995.35,-215.17 1001.18,-212.55 1006.97,-210.2"/>
<polygon fill="midnightblue" stroke="midnightblue" points="1008.48,-213.36 1016.55,-206.5 1005.96,-206.83 1008.48,-213.36"/>
</g>
<!-- Node16&#45;&gt;Node11 -->
<g id="edge19" class="edge">
<title>Node16&#45;&gt;Node11</title>
<path fill="none" stroke="midnightblue" d="M947.56,-264.94C965.88,-259.39 987.07,-252.96 1004.82,-247.58"/>
<polygon fill="midnightblue" stroke="midnightblue" points="1006.28,-250.79 1014.83,-244.54 1004.25,-244.09 1006.28,-250.79"/>
</g>
<!-- Node21&#45;&gt;Node8 -->
<g id="edge26" class="edge">
<title>Node21&#45;&gt;Node8</title>
<path fill="none" stroke="midnightblue" d="M502.21,-103.57C520.81,-109.32 545.89,-117.08 568.13,-123.96"/>
<polygon fill="midnightblue" stroke="midnightblue" points="567.2,-127.33 577.78,-126.94 569.26,-120.64 567.2,-127.33"/>
</g>
<!-- Node21&#45;&gt;Node18 -->
<g id="edge27" class="edge">
<title>Node21&#45;&gt;Node18</title>
<path fill="none" stroke="midnightblue" d="M515.81,-95C528.19,-95 542.08,-95 555.59,-95"/>
<polygon fill="midnightblue" stroke="midnightblue" points="555.81,-98.5 565.81,-95 555.8,-91.5 555.81,-98.5"/>
</g>
<!-- Node21&#45;&gt;Node19 -->
<g id="edge28" class="edge">
<title>Node21&#45;&gt;Node19</title>
<path fill="none" stroke="midnightblue" d="M502.21,-86.43C520.81,-80.68 545.89,-72.92 568.13,-66.04"/>
<polygon fill="midnightblue" stroke="midnightblue" points="569.26,-69.36 577.78,-63.06 567.2,-62.67 569.26,-69.36"/>
</g>
<!-- Node21&#45;&gt;Node20 -->
<g id="edge30" class="edge">
<title>Node21&#45;&gt;Node20</title>
<path fill="none" stroke="midnightblue" d="M511.91,-103.52C518.29,-105.96 524.6,-109.06 530,-113 552.12,-129.14 544.48,-146.06 566,-163 567.78,-164.4 569.66,-165.72 571.6,-166.97"/>
<polygon fill="midnightblue" stroke="midnightblue" points="570.07,-170.12 580.5,-171.98 573.5,-164.02 570.07,-170.12"/>
</g>
<!-- Node22 -->
<g id="node22" class="node">
<title>Node22</title>
<g id="a_node22"><a xlink:href="structsvg_1_1transform.html#acf9836f4ba647f0dd2b53963a0f714d0" target="_top" xlink:title=" ">
<polygon fill="white" stroke="black" points="567.5,-0.5 567.5,-17.5 674.5,-17.5 674.5,-0.5 567.5,-0.5"/>
<text text-anchor="middle" x="621" y="-7.1" font-family="SourceSans" font-size="8.00">svg::transform::rotate</text>
</a>
</g>
</g>
<!-- Node21&#45;&gt;Node22 -->
<g id="edge29" class="edge">
<title>Node21&#45;&gt;Node22</title>
<path fill="none" stroke="midnightblue" d="M483.96,-86.34C499.84,-72.2 533.35,-44.01 566,-27 570.21,-24.8 574.75,-22.8 579.34,-20.99"/>
<polygon fill="midnightblue" stroke="midnightblue" points="580.56,-24.27 588.75,-17.55 578.15,-17.69 580.56,-24.27"/>
</g>
<!-- Node23&#45;&gt;Node7 -->
<g id="edge32" class="edge">
<title>Node23&#45;&gt;Node7</title>
<path fill="none" stroke="midnightblue" d="M364.71,-131C383.71,-131 405.7,-131 424.85,-131"/>
<polygon fill="midnightblue" stroke="midnightblue" points="424.86,-134.5 434.86,-131 424.86,-127.5 424.86,-134.5"/>
</g>
<!-- Node23&#45;&gt;Node21 -->
<g id="edge33" class="edge">
<title>Node23&#45;&gt;Node21</title>
<path fill="none" stroke="midnightblue" d="M355,-122.47C376.3,-117.49 403.39,-111.15 426.19,-105.83"/>
<polygon fill="midnightblue" stroke="midnightblue" points="427.06,-109.22 436,-103.53 425.47,-102.4 427.06,-109.22"/>
</g>
</g>
</svg>
        <g id="navigator" transform="translate(0 0)" fill="#404254">
                <rect fill="#f2f5e9" fill-opacity="0.5" stroke="#606060" stroke-width=".5" x="0" y="0" width="60" height="60"/>
                <use id="zoomplus" xlink:href="#zoomPlus" x="17" y="9" onmousedown="handleZoom(evt,'in')"/>
                <use id="zoomminus" xlink:href="#zoomMin" x="42" y="9" onmousedown="handleZoom(evt,'out')"/>
                <use id="reset" xlink:href="#resetDef" x="30" y="36" onmousedown="handleReset()"/>
                <g id="arrowUp" xlink:href="#dirArrow" transform="translate(30 24)" onmousedown="handlePan(0,-1)">
                  <use xlink:href="#rim" fill="#404040">
                        <set attributeName="fill" to="#808080" begin="arrowUp.mouseover" end="arrowUp.mouseout"/>
                  </use>
                  <path fill="none" stroke="white" stroke-width="1.5" d="M0,-3.0v7 M-2.5,-0.5L0,-3.0L2.5,-0.5"/>
                </g>
                <g id="arrowRight" xlink:href="#dirArrow" transform="rotate(90) translate(36 -43)" onmousedown="handlePan(1,0)">
                  <use xlink:href="#rim" fill="#404040">
                        <set attributeName="fill" to="#808080" begin="arrowRight.mouseover" end="arrowRight.mouseout"/>
                  </use>
                  <path fill="none" stroke="white" stroke-width="1.5" d="M0,-3.0v7 M-2.5,-0.5L0,-3.0L2.5,-0.5"/>
                </g>
                <g id="arrowDown" xlink:href="#dirArrow" transform="rotate(180) translate(-30 -48)" onmousedown="handlePan(0,1)">
                  <use xlink:href="#rim" fill="#404040">
                        <set attributeName="fill" to="#808080" begin="arrowDown.mouseover" end="arrowDown.mouseout"/>
                  </use>
                  <path fill="none" stroke="white" stroke-width="1.5" d="M0,-3.0v7 M-2.5,-0.5L0,-3.0L2.5,-0.5"/>
                </g>
                <g id="arrowLeft" xlink:href="#dirArrow" transform="rotate(270) translate(-36 17)" onmousedown="handlePan(-1,0)">
                  <use xlink:href="#rim" fill="#404040">
                        <set attributeName="fill" to="#808080" begin="arrowLeft.mouseover" end="arrowLeft.mouseout"/>
                  </use>
                  <path fill="none" stroke="white" stroke-width="1.5" d="M0,-3.0v7 M-2.5,-0.5L0,-3.0L2.5,-0.5"/>
                </g>
        </g>
        <svg viewBox="0 0 15 15" width="100%" height="30px" preserveAspectRatio="xMaxYMin meet">
         <g id="arrow_out" transform="scale(0.3 0.3)">
          <a xlink:href="namespacesvg_a07c6fad0adddb0908ed4ef00536967c9_cgraph_org.svg" target="_base">
           <rect id="button" ry="5" rx="5" y="6" x="6" height="38" width="38"
                fill="#f2f5e9" fill-opacity="0.5" stroke="#606060" stroke-width="1.0"/>
           <path id="arrow"
             d="M 11.500037,31.436501 C 11.940474,20.09759 22.043105,11.32322 32.158766,21.979434 L 37.068811,17.246167 C 37.068811,17.246167 37.088388,32 37.088388,32 L 22.160133,31.978069 C 22.160133,31.978069 26.997745,27.140456 26.997745,27.140456 C 18.528582,18.264221 13.291696,25.230495 11.500037,31.436501 z"
             style="fill:#404040;"/>
          </a>
         </g>
        </svg>
</svg>
