<?xml version="1.0" encoding="UTF-8" standalone="no"?>
<!DOCTYPE svg PUBLIC "-//W3C//DTD SVG 1.1//EN"
 "http://www.w3.org/Graphics/SVG/1.1/DTD/svg11.dtd">
<!-- Generated by graphviz version 2.44.0 (0)
 -->
<!-- Title: svg::sized_text_r Pages: 1 -->
<!--zoomable 345 -->
<svg id="main" version="1.1" xmlns="http://www.w3.org/2000/svg" xmlns:xlink="http://www.w3.org/1999/xlink" xml:space="preserve" onload="init(evt)">
<style type="text/css"><![CDATA[
.edge:hover path { stroke: red; }
.edge:hover polygon { stroke: red; fill: red; }
]]></style>
<script type="text/javascript"><![CDATA[
var edges = document.getElementsByTagName('g');
if (edges && edges.length) {
  for (var i=0;i<edges.length;i++) {
    if (edges[i].id.substr(0,4)=='edge') {
      edges[i].setAttribute('class','edge');
    }
  }
}
]]></script>
        <defs>
                <circle id="rim" cx="0" cy="0" r="7"/>
                <circle id="rim2" cx="0" cy="0" r="3.5"/>
                <g id="zoomPlus">
                        <use xlink:href="#rim" fill="#404040">
                                <set attributeName="fill" to="#808080" begin="zoomplus.mouseover" end="zoomplus.mouseout"/>
                        </use>
                        <path d="M-4,0h8M0,-4v8" fill="none" stroke="white" stroke-width="1.5" pointer-events="none"/>
                </g>
                <g id="zoomMin">
                        <use xlink:href="#rim" fill="#404040">
                                <set attributeName="fill" to="#808080" begin="zoomminus.mouseover" end="zoomminus.mouseout"/>
                        </use>
                        <path d="M-4,0h8" fill="none" stroke="white" stroke-width="1.5" pointer-events="none"/>
                </g>
                <g id="dirArrow">
                        <path fill="none" stroke="white" stroke-width="1.5" d="M0,-3.0v7 M-2.5,-0.5L0,-3.0L2.5,-0.5"/>
                </g>
               <g id="resetDef">
                       <use xlink:href="#rim2" fill="#404040">
                               <set attributeName="fill" to="#808080" begin="reset.mouseover" end="reset.mouseout"/>
                       </use>
               </g>
        </defs>

<script type="text/javascript">
var viewWidth = 660;
var viewHeight = 345;
var sectionId = 'dynsection-55';
</script>
<script xlink:href="svgpan.js"/>
<svg id="graph" class="graph">
<g id="viewport">
<title>svg::sized_text_r</title>
<polygon fill="white" stroke="transparent" points="-4,4 -4,-341 656,-341 656,4 -4,4"/>
<!-- Node1 -->
<g id="node1" class="node">
<title>Node1</title>
<g id="a_node1"><a xlink:title="Text at size, with a transformation=rotation.">
<polygon fill="#bfbfbf" stroke="black" points="0,-87 0,-104 84,-104 84,-87 0,-87"/>
<text text-anchor="middle" x="42" y="-93.6" font-family="SourceSans" font-size="8.00">svg::sized_text_r</text>
</a>
</g>
</g>
<!-- Node2 -->
<g id="node2" class="node">
<title>Node2</title>
<g id="a_node2"><a xlink:href="group__elements.html#aad29e1daf75bdcd69a39575a6807fa0f" target="_top" xlink:title="Either serialize immediately (as below), or create data structure that adds data to data_vec and then...">
<polygon fill="white" stroke="black" points="127.5,-172.5 127.5,-198.5 222.5,-198.5 222.5,-172.5 127.5,-172.5"/>
<text text-anchor="start" x="135.5" y="-188.1" font-family="SourceSans" font-size="8.00">svg::text_element::</text>
<text text-anchor="middle" x="175" y="-179.1" font-family="SourceSans" font-size="8.00">add_data</text>
</a>
</g>
</g>
<!-- Node1&#45;&gt;Node2 -->
<g id="edge1" class="edge">
<title>Node1&#45;&gt;Node2</title>
<path fill="none" stroke="midnightblue" d="M51.29,-104.31C64.68,-118.16 92.36,-145.2 120,-162.5 123.12,-164.45 126.43,-166.31 129.83,-168.07"/>
<polygon fill="midnightblue" stroke="midnightblue" points="128.38,-171.26 138.91,-172.46 131.43,-164.95 128.38,-171.26"/>
</g>
<!-- Node12 -->
<g id="node12" class="node">
<title>Node12</title>
<g id="a_node12"><a xlink:href="group__elements.html#adb6116b96467cc39cb178deb10c7a869" target="_top" xlink:title=" ">
<polygon fill="white" stroke="black" points="120,-127.5 120,-153.5 230,-153.5 230,-127.5 120,-127.5"/>
<text text-anchor="start" x="128" y="-143.1" font-family="SourceSans" font-size="8.00">svg::svg_element::add</text>
<text text-anchor="middle" x="175" y="-134.1" font-family="SourceSans" font-size="8.00">_element</text>
</a>
</g>
</g>
<!-- Node1&#45;&gt;Node12 -->
<g id="edge16" class="edge">
<title>Node1&#45;&gt;Node12</title>
<path fill="none" stroke="midnightblue" d="M67.95,-104.07C84.47,-109.75 106.67,-117.37 126.49,-124.18"/>
<polygon fill="midnightblue" stroke="midnightblue" points="125.4,-127.5 135.99,-127.44 127.67,-120.88 125.4,-127.5"/>
</g>
<!-- Node13 -->
<g id="node13" class="node">
<title>Node13</title>
<g id="a_node13"><a xlink:href="group__elements.html#ga13c46848317034d16c62a7d2061ba3d6" target="_top" xlink:title=" ">
<polygon fill="white" stroke="black" points="127.5,-82.5 127.5,-108.5 222.5,-108.5 222.5,-82.5 127.5,-82.5"/>
<text text-anchor="start" x="135.5" y="-98.1" font-family="SourceSans" font-size="8.00">svg::text_element::</text>
<text text-anchor="middle" x="175" y="-89.1" font-family="SourceSans" font-size="8.00">finish_element</text>
</a>
</g>
</g>
<!-- Node1&#45;&gt;Node13 -->
<g id="edge17" class="edge">
<title>Node1&#45;&gt;Node13</title>
<path fill="none" stroke="midnightblue" d="M84.09,-95.5C94.55,-95.5 105.97,-95.5 117.06,-95.5"/>
<polygon fill="midnightblue" stroke="midnightblue" points="117.12,-99 127.11,-95.5 117.11,-92 117.12,-99"/>
</g>
<!-- Node14 -->
<g id="node14" class="node">
<title>Node14</title>
<g id="a_node14"><a xlink:href="structsvg_1_1transform.html#acf9836f4ba647f0dd2b53963a0f714d0" target="_top" xlink:title=" ">
<polygon fill="white" stroke="black" points="121.5,-46 121.5,-63 228.5,-63 228.5,-46 121.5,-46"/>
<text text-anchor="middle" x="175" y="-52.6" font-family="SourceSans" font-size="8.00">svg::transform::rotate</text>
</a>
</g>
</g>
<!-- Node1&#45;&gt;Node14 -->
<g id="edge18" class="edge">
<title>Node1&#45;&gt;Node14</title>
<path fill="none" stroke="midnightblue" d="M70.46,-86.91C89.76,-80.86 115.81,-72.71 136.95,-66.1"/>
<polygon fill="midnightblue" stroke="midnightblue" points="138.08,-69.41 146.57,-63.08 135.99,-62.73 138.08,-69.41"/>
</g>
<!-- Node15 -->
<g id="node15" class="node">
<title>Node15</title>
<g id="a_node15"><a xlink:href="group__elements.html#ae45bec611a6ec17ea46aab6d680ae042" target="_top" xlink:title=" ">
<polygon fill="white" stroke="black" points="127.5,-0.5 127.5,-26.5 222.5,-26.5 222.5,-0.5 127.5,-0.5"/>
<text text-anchor="start" x="135.5" y="-16.1" font-family="SourceSans" font-size="8.00">svg::text_element::</text>
<text text-anchor="middle" x="175" y="-7.1" font-family="SourceSans" font-size="8.00">start_element</text>
</a>
</g>
</g>
<!-- Node1&#45;&gt;Node15 -->
<g id="edge19" class="edge">
<title>Node1&#45;&gt;Node15</title>
<path fill="none" stroke="midnightblue" d="M52.88,-86.61C67,-74.23 94.11,-51.61 120,-36.5 123.37,-34.53 126.94,-32.64 130.57,-30.84"/>
<polygon fill="midnightblue" stroke="midnightblue" points="132.09,-34 139.66,-26.59 129.12,-27.66 132.09,-34"/>
</g>
<!-- Node3 -->
<g id="node3" class="node">
<title>Node3</title>
<g id="a_node3"><a xlink:href="structsvg_1_1typography.html#adbc62f74f1fed3f7c77567250f084f83" target="_top" xlink:title=" ">
<polygon fill="white" stroke="black" points="266,-193.5 266,-219.5 371,-219.5 371,-193.5 266,-193.5"/>
<text text-anchor="start" x="274" y="-209.1" font-family="SourceSans" font-size="8.00">svg::typography::add</text>
<text text-anchor="middle" x="318.5" y="-200.1" font-family="SourceSans" font-size="8.00">_attribute</text>
</a>
</g>
</g>
<!-- Node2&#45;&gt;Node3 -->
<g id="edge2" class="edge">
<title>Node2&#45;&gt;Node3</title>
<path fill="none" stroke="midnightblue" d="M222.72,-192.43C233.33,-194.01 244.74,-195.7 255.86,-197.35"/>
<polygon fill="midnightblue" stroke="midnightblue" points="255.54,-200.84 265.94,-198.85 256.57,-193.92 255.54,-200.84"/>
</g>
<!-- Node6 -->
<g id="node6" class="node">
<title>Node6</title>
<g id="a_node6"><a xlink:href="namespacesvg.html#a48ac748e89e22789d1772326a98dd7b6" target="_top" xlink:title=" ">
<polygon fill="white" stroke="black" points="410,-116 410,-133 505,-133 505,-116 410,-116"/>
<text text-anchor="middle" x="457.5" y="-122.6" font-family="SourceSans" font-size="8.00">svg::string_replace</text>
</a>
</g>
</g>
<!-- Node2&#45;&gt;Node6 -->
<g id="edge14" class="edge">
<title>Node2&#45;&gt;Node6</title>
<path fill="none" stroke="midnightblue" d="M222.6,-176.47C262.17,-168.67 320.43,-156.89 371,-145.5 384.66,-142.42 399.5,-138.86 412.92,-135.55"/>
<polygon fill="midnightblue" stroke="midnightblue" points="414,-138.88 422.87,-133.08 412.32,-132.09 414,-138.88"/>
</g>
<!-- Node10 -->
<g id="node10" class="node">
<title>Node10</title>
<g id="a_node10"><a xlink:href="group__elements.html#a53d72a7ff728ad1d4d027254530bcf3d" target="_top" xlink:title="Common transforms include rotate(180)">
<polygon fill="white" stroke="black" points="407,-310.5 407,-336.5 508,-336.5 508,-310.5 407,-310.5"/>
<text text-anchor="start" x="415" y="-326.1" font-family="SourceSans" font-size="8.00">svg::element_base::</text>
<text text-anchor="middle" x="457.5" y="-317.1" font-family="SourceSans" font-size="8.00">add_transform</text>
</a>
</g>
</g>
<!-- Node2&#45;&gt;Node10 -->
<g id="edge11" class="edge">
<title>Node2&#45;&gt;Node10</title>
<path fill="none" stroke="midnightblue" d="M202.64,-198.61C253.42,-223.59 364.07,-278.03 421.04,-306.05"/>
<polygon fill="midnightblue" stroke="midnightblue" points="419.52,-309.21 430.04,-310.48 422.61,-302.93 419.52,-309.21"/>
</g>
<!-- Node11 -->
<g id="node11" class="node">
<title>Node11</title>
<g id="a_node11"><a xlink:href="namespacesvg.html#a36b1c48ad4601b205790e3772ad0a7b6" target="_top" xlink:title=" ">
<polygon fill="white" stroke="black" points="282.5,-119 282.5,-136 354.5,-136 354.5,-119 282.5,-119"/>
<text text-anchor="middle" x="318.5" y="-125.6" font-family="SourceSans" font-size="8.00">svg::to_string</text>
</a>
</g>
</g>
<!-- Node2&#45;&gt;Node11 -->
<g id="edge15" class="edge">
<title>Node2&#45;&gt;Node11</title>
<path fill="none" stroke="midnightblue" d="M207.76,-172.48C231.43,-162.78 263.57,-149.61 286.94,-140.03"/>
<polygon fill="midnightblue" stroke="midnightblue" points="288.45,-143.19 296.38,-136.16 285.8,-136.71 288.45,-143.19"/>
</g>
<!-- Node4 -->
<g id="node4" class="node">
<title>Node4</title>
<g id="a_node4"><a xlink:href="namespacesvg_1_1constants.html#a3972655f1dfdc090ec2592d1fb37e87c" target="_top" xlink:title=" ">
<polygon fill="white" stroke="black" points="544.5,-235 544.5,-252 651.5,-252 651.5,-235 544.5,-235"/>
<text text-anchor="middle" x="598" y="-241.6" font-family="SourceSans" font-size="8.00">svg::constants::quote</text>
</a>
</g>
</g>
<!-- Node3&#45;&gt;Node4 -->
<g id="edge3" class="edge">
<title>Node3&#45;&gt;Node4</title>
<path fill="none" stroke="midnightblue" d="M371.16,-218.05C382.9,-220.42 395.35,-222.72 407,-224.5 449.24,-230.94 497.1,-235.71 534.23,-238.86"/>
<polygon fill="midnightblue" stroke="midnightblue" points="534.14,-242.37 544.4,-239.71 534.72,-235.39 534.14,-242.37"/>
</g>
<!-- Node5 -->
<g id="node5" class="node">
<title>Node5</title>
<g id="a_node5"><a xlink:href="namespacesvg_1_1constants.html#ac460bc8db60d85c3ae1cf8b1a903405e" target="_top" xlink:title="Formatting character constants.">
<polygon fill="white" stroke="black" points="544,-273 544,-290 652,-290 652,-273 544,-273"/>
<text text-anchor="middle" x="598" y="-279.6" font-family="SourceSans" font-size="8.00">svg::constants::space</text>
</a>
</g>
</g>
<!-- Node3&#45;&gt;Node5 -->
<g id="edge4" class="edge">
<title>Node3&#45;&gt;Node5</title>
<path fill="none" stroke="midnightblue" d="M346.55,-219.62C363.58,-227.46 386.19,-237.09 407,-243.5 448.44,-256.26 496.31,-265.8 533.63,-272.13"/>
<polygon fill="midnightblue" stroke="midnightblue" points="533.43,-275.65 543.87,-273.84 534.57,-268.74 533.43,-275.65"/>
</g>
<!-- Node3&#45;&gt;Node6 -->
<g id="edge5" class="edge">
<title>Node3&#45;&gt;Node6</title>
<path fill="none" stroke="midnightblue" d="M347.12,-193.36C355.12,-189.07 363.66,-183.98 371,-178.5 389.13,-164.96 387.91,-154.65 407,-142.5 410.16,-140.49 413.57,-138.66 417.07,-137.01"/>
<polygon fill="midnightblue" stroke="midnightblue" points="418.6,-140.16 426.45,-133.05 415.88,-133.72 418.6,-140.16"/>
</g>
<!-- Node7 -->
<g id="node7" class="node">
<title>Node7</title>
<g id="a_node7"><a xlink:href="structsvg_1_1typography.html#a174c1ffb4e56214d71523ffe7e422561" target="_top" xlink:title=" ">
<polygon fill="white" stroke="black" points="408.5,-152.5 408.5,-178.5 506.5,-178.5 506.5,-152.5 408.5,-152.5"/>
<text text-anchor="start" x="416.5" y="-168.1" font-family="SourceSans" font-size="8.00">svg::typography::to</text>
<text text-anchor="middle" x="457.5" y="-159.1" font-family="SourceSans" font-size="8.00">_string</text>
</a>
</g>
</g>
<!-- Node3&#45;&gt;Node7 -->
<g id="edge6" class="edge">
<title>Node3&#45;&gt;Node7</title>
<path fill="none" stroke="midnightblue" d="M363.22,-193.41C375.83,-189.64 389.73,-185.48 402.86,-181.55"/>
<polygon fill="midnightblue" stroke="midnightblue" points="404.14,-184.82 412.72,-178.6 402.14,-178.12 404.14,-184.82"/>
</g>
<!-- Node8 -->
<g id="node8" class="node">
<title>Node8</title>
<g id="a_node8"><a xlink:href="namespacesvg.html#a7363f3de9a003a4399e7ede9036299d4" target="_top" xlink:title=" ">
<polygon fill="white" stroke="black" points="421.5,-198 421.5,-215 493.5,-215 493.5,-198 421.5,-198"/>
<text text-anchor="middle" x="457.5" y="-204.6" font-family="SourceSans" font-size="8.00">svg::to_string</text>
</a>
</g>
</g>
<!-- Node3&#45;&gt;Node8 -->
<g id="edge7" class="edge">
<title>Node3&#45;&gt;Node8</title>
<path fill="none" stroke="midnightblue" d="M371.29,-206.5C384.32,-206.5 398.2,-206.5 410.89,-206.5"/>
<polygon fill="midnightblue" stroke="midnightblue" points="411.24,-210 421.24,-206.5 411.24,-203 411.24,-210"/>
</g>
<!-- Node8&#45;&gt;Node4 -->
<g id="edge8" class="edge">
<title>Node8&#45;&gt;Node4</title>
<path fill="none" stroke="midnightblue" d="M490.62,-215.08C509.85,-220.22 534.5,-226.8 555.23,-232.34"/>
<polygon fill="midnightblue" stroke="midnightblue" points="554.49,-235.77 565.05,-234.96 556.29,-229 554.49,-235.77"/>
</g>
<!-- Node8&#45;&gt;Node5 -->
<g id="edge9" class="edge">
<title>Node8&#45;&gt;Node5</title>
<path fill="none" stroke="midnightblue" d="M470.2,-215.17C486.25,-226.78 516.25,-247.54 544,-261.5 549.52,-264.28 555.51,-266.89 561.42,-269.26"/>
<polygon fill="midnightblue" stroke="midnightblue" points="560.6,-272.69 571.19,-273 563.1,-266.16 560.6,-272.69"/>
</g>
<!-- Node9 -->
<g id="node9" class="node">
<title>Node9</title>
<g id="a_node9"><a xlink:href="structsvg_1_1colorq.html#adb55a2a48193fafa55340505862278e4" target="_top" xlink:title=" ">
<polygon fill="white" stroke="black" points="546,-198 546,-215 650,-215 650,-198 546,-198"/>
<text text-anchor="middle" x="598" y="-204.6" font-family="SourceSans" font-size="8.00">svg::colorq::to_string</text>
</a>
</g>
</g>
<!-- Node8&#45;&gt;Node9 -->
<g id="edge10" class="edge">
<title>Node8&#45;&gt;Node9</title>
<path fill="none" stroke="midnightblue" d="M493.81,-206.5C506.51,-206.5 521.24,-206.5 535.53,-206.5"/>
<polygon fill="midnightblue" stroke="midnightblue" points="535.81,-210 545.81,-206.5 535.81,-203 535.81,-210"/>
</g>
<!-- Node10&#45;&gt;Node4 -->
<g id="edge12" class="edge">
<title>Node10&#45;&gt;Node4</title>
<path fill="none" stroke="midnightblue" d="M474.42,-310.48C491.03,-297.36 518.19,-277.15 544,-263.5 549.35,-260.67 555.18,-258.05 560.97,-255.7"/>
<polygon fill="midnightblue" stroke="midnightblue" points="562.48,-258.86 570.55,-252 559.96,-252.33 562.48,-258.86"/>
</g>
<!-- Node10&#45;&gt;Node5 -->
<g id="edge13" class="edge">
<title>Node10&#45;&gt;Node5</title>
<path fill="none" stroke="midnightblue" d="M501.56,-310.44C519.88,-304.89 541.07,-298.46 558.82,-293.08"/>
<polygon fill="midnightblue" stroke="midnightblue" points="560.28,-296.29 568.83,-290.04 558.25,-289.59 560.28,-296.29"/>
</g>
</g>
</svg>
        <g id="navigator" transform="translate(0 0)" fill="#404254">
                <rect fill="#f2f5e9" fill-opacity="0.5" stroke="#606060" stroke-width=".5" x="0" y="0" width="60" height="60"/>
                <use id="zoomplus" xlink:href="#zoomPlus" x="17" y="9" onmousedown="handleZoom(evt,'in')"/>
                <use id="zoomminus" xlink:href="#zoomMin" x="42" y="9" onmousedown="handleZoom(evt,'out')"/>
                <use id="reset" xlink:href="#resetDef" x="30" y="36" onmousedown="handleReset()"/>
                <g id="arrowUp" xlink:href="#dirArrow" transform="translate(30 24)" onmousedown="handlePan(0,-1)">
                  <use xlink:href="#rim" fill="#404040">
                        <set attributeName="fill" to="#808080" begin="arrowUp.mouseover" end="arrowUp.mouseout"/>
                  </use>
                  <path fill="none" stroke="white" stroke-width="1.5" d="M0,-3.0v7 M-2.5,-0.5L0,-3.0L2.5,-0.5"/>
                </g>
                <g id="arrowRight" xlink:href="#dirArrow" transform="rotate(90) translate(36 -43)" onmousedown="handlePan(1,0)">
                  <use xlink:href="#rim" fill="#404040">
                        <set attributeName="fill" to="#808080" begin="arrowRight.mouseover" end="arrowRight.mouseout"/>
                  </use>
                  <path fill="none" stroke="white" stroke-width="1.5" d="M0,-3.0v7 M-2.5,-0.5L0,-3.0L2.5,-0.5"/>
                </g>
                <g id="arrowDown" xlink:href="#dirArrow" transform="rotate(180) translate(-30 -48)" onmousedown="handlePan(0,1)">
                  <use xlink:href="#rim" fill="#404040">
                        <set attributeName="fill" to="#808080" begin="arrowDown.mouseover" end="arrowDown.mouseout"/>
                  </use>
                  <path fill="none" stroke="white" stroke-width="1.5" d="M0,-3.0v7 M-2.5,-0.5L0,-3.0L2.5,-0.5"/>
                </g>
                <g id="arrowLeft" xlink:href="#dirArrow" transform="rotate(270) translate(-36 17)" onmousedown="handlePan(-1,0)">
                  <use xlink:href="#rim" fill="#404040">
                        <set attributeName="fill" to="#808080" begin="arrowLeft.mouseover" end="arrowLeft.mouseout"/>
                  </use>
                  <path fill="none" stroke="white" stroke-width="1.5" d="M0,-3.0v7 M-2.5,-0.5L0,-3.0L2.5,-0.5"/>
                </g>
        </g>
        <svg viewBox="0 0 15 15" width="100%" height="30px" preserveAspectRatio="xMaxYMin meet">
         <g id="arrow_out" transform="scale(0.3 0.3)">
          <a xlink:href="namespacesvg_a4399801aa964203bcab6e6ab2e7b4200_cgraph_org.svg" target="_base">
           <rect id="button" ry="5" rx="5" y="6" x="6" height="38" width="38"
                fill="#f2f5e9" fill-opacity="0.5" stroke="#606060" stroke-width="1.0"/>
           <path id="arrow"
             d="M 11.500037,31.436501 C 11.940474,20.09759 22.043105,11.32322 32.158766,21.979434 L 37.068811,17.246167 C 37.068811,17.246167 37.088388,32 37.088388,32 L 22.160133,31.978069 C 22.160133,31.978069 26.997745,27.140456 26.997745,27.140456 C 18.528582,18.264221 13.291696,25.230495 11.500037,31.436501 z"
             style="fill:#404040;"/>
          </a>
         </g>
        </svg>
</svg>
