<?xml version="1.0" encoding="UTF-8" standalone="no"?>
<!DOCTYPE svg PUBLIC "-//W3C//DTD SVG 1.1//EN"
 "http://www.w3.org/Graphics/SVG/1.1/DTD/svg11.dtd">
<!-- Generated by graphviz version 2.44.0 (0)
 -->
<!-- Title: svg::radial_text_cw Pages: 1 -->
<!--zoomable 345 -->
<svg id="main" version="1.1" xmlns="http://www.w3.org/2000/svg" xmlns:xlink="http://www.w3.org/1999/xlink" xml:space="preserve" onload="init(evt)">
<style type="text/css"><![CDATA[
.edge:hover path { stroke: red; }
.edge:hover polygon { stroke: red; fill: red; }
]]></style>
<script type="text/javascript"><![CDATA[
var edges = document.getElementsByTagName('g');
if (edges && edges.length) {
  for (var i=0;i<edges.length;i++) {
    if (edges[i].id.substr(0,4)=='edge') {
      edges[i].setAttribute('class','edge');
    }
  }
}
]]></script>
        <defs>
                <circle id="rim" cx="0" cy="0" r="7"/>
                <circle id="rim2" cx="0" cy="0" r="3.5"/>
                <g id="zoomPlus">
                        <use xlink:href="#rim" fill="#404040">
                                <set attributeName="fill" to="#808080" begin="zoomplus.mouseover" end="zoomplus.mouseout"/>
                        </use>
                        <path d="M-4,0h8M0,-4v8" fill="none" stroke="white" stroke-width="1.5" pointer-events="none"/>
                </g>
                <g id="zoomMin">
                        <use xlink:href="#rim" fill="#404040">
                                <set attributeName="fill" to="#808080" begin="zoomminus.mouseover" end="zoomminus.mouseout"/>
                        </use>
                        <path d="M-4,0h8" fill="none" stroke="white" stroke-width="1.5" pointer-events="none"/>
                </g>
                <g id="dirArrow">
                        <path fill="none" stroke="white" stroke-width="1.5" d="M0,-3.0v7 M-2.5,-0.5L0,-3.0L2.5,-0.5"/>
                </g>
               <g id="resetDef">
                       <use xlink:href="#rim2" fill="#404040">
                               <set attributeName="fill" to="#808080" begin="reset.mouseover" end="reset.mouseout"/>
                       </use>
               </g>
        </defs>

<script type="text/javascript">
var viewWidth = 793;
var viewHeight = 345;
var sectionId = 'dynsection-48';
</script>
<script xlink:href="svgpan.js"/>
<svg id="graph" class="graph">
<g id="viewport">
<title>svg::radial_text_cw</title>
<polygon fill="white" stroke="transparent" points="-4,4 -4,-341 789,-341 789,4 -4,4"/>
<!-- Node1 -->
<g id="node1" class="node">
<title>Node1</title>
<g id="a_node1"><a xlink:title="Text with typography, arranged cw around points (x,y) on a circle.">
<polygon fill="#bfbfbf" stroke="black" points="0,-87 0,-104 94,-104 94,-87 0,-87"/>
<text text-anchor="middle" x="47" y="-93.6" font-family="SourceSans" font-size="8.00">svg::radial_text_cw</text>
</a>
</g>
</g>
<!-- Node2 -->
<g id="node2" class="node">
<title>Node2</title>
<g id="a_node2"><a xlink:href="namespacesvg.html#a5791c1fc9121f01e5f666b7ce0367dfa" target="_top" xlink:title="Text at @origin, with style and ... a transformation=rotation of @deg about @rorigin.">
<polygon fill="white" stroke="black" points="130,-87 130,-104 217,-104 217,-87 130,-87"/>
<text text-anchor="middle" x="173.5" y="-93.6" font-family="SourceSans" font-size="8.00">svg::styled_text_r</text>
</a>
</g>
</g>
<!-- Node1&#45;&gt;Node2 -->
<g id="edge1" class="edge">
<title>Node1&#45;&gt;Node2</title>
<path fill="none" stroke="midnightblue" d="M94.01,-95.5C102.38,-95.5 111.17,-95.5 119.72,-95.5"/>
<polygon fill="midnightblue" stroke="midnightblue" points="119.98,-99 129.98,-95.5 119.98,-92 119.98,-99"/>
</g>
<!-- Node3 -->
<g id="node3" class="node">
<title>Node3</title>
<g id="a_node3"><a xlink:href="group__elements.html#aad29e1daf75bdcd69a39575a6807fa0f" target="_top" xlink:title="Either serialize immediately (as below), or create data structure that adds data to data_vec and then...">
<polygon fill="white" stroke="black" points="260.5,-172.5 260.5,-198.5 355.5,-198.5 355.5,-172.5 260.5,-172.5"/>
<text text-anchor="start" x="268.5" y="-188.1" font-family="SourceSans" font-size="8.00">svg::text_element::</text>
<text text-anchor="middle" x="308" y="-179.1" font-family="SourceSans" font-size="8.00">add_data</text>
</a>
</g>
</g>
<!-- Node2&#45;&gt;Node3 -->
<g id="edge2" class="edge">
<title>Node2&#45;&gt;Node3</title>
<path fill="none" stroke="midnightblue" d="M182.98,-104.3C196.68,-118.12 224.97,-145.14 253,-162.5 256.13,-164.44 259.45,-166.29 262.85,-168.03"/>
<polygon fill="midnightblue" stroke="midnightblue" points="261.41,-171.23 271.94,-172.41 264.44,-164.92 261.41,-171.23"/>
</g>
<!-- Node13 -->
<g id="node13" class="node">
<title>Node13</title>
<g id="a_node13"><a xlink:href="group__elements.html#adb6116b96467cc39cb178deb10c7a869" target="_top" xlink:title=" ">
<polygon fill="white" stroke="black" points="253,-127.5 253,-153.5 363,-153.5 363,-127.5 253,-127.5"/>
<text text-anchor="start" x="261" y="-143.1" font-family="SourceSans" font-size="8.00">svg::svg_element::add</text>
<text text-anchor="middle" x="308" y="-134.1" font-family="SourceSans" font-size="8.00">_element</text>
</a>
</g>
</g>
<!-- Node2&#45;&gt;Node13 -->
<g id="edge17" class="edge">
<title>Node2&#45;&gt;Node13</title>
<path fill="none" stroke="midnightblue" d="M199.73,-104.07C216.45,-109.75 238.9,-117.37 258.94,-124.18"/>
<polygon fill="midnightblue" stroke="midnightblue" points="257.96,-127.54 268.56,-127.44 260.21,-120.91 257.96,-127.54"/>
</g>
<!-- Node14 -->
<g id="node14" class="node">
<title>Node14</title>
<g id="a_node14"><a xlink:href="group__elements.html#ga13c46848317034d16c62a7d2061ba3d6" target="_top" xlink:title=" ">
<polygon fill="white" stroke="black" points="260.5,-82.5 260.5,-108.5 355.5,-108.5 355.5,-82.5 260.5,-82.5"/>
<text text-anchor="start" x="268.5" y="-98.1" font-family="SourceSans" font-size="8.00">svg::text_element::</text>
<text text-anchor="middle" x="308" y="-89.1" font-family="SourceSans" font-size="8.00">finish_element</text>
</a>
</g>
</g>
<!-- Node2&#45;&gt;Node14 -->
<g id="edge18" class="edge">
<title>Node2&#45;&gt;Node14</title>
<path fill="none" stroke="midnightblue" d="M217.15,-95.5C227.69,-95.5 239.15,-95.5 250.25,-95.5"/>
<polygon fill="midnightblue" stroke="midnightblue" points="250.3,-99 260.3,-95.5 250.3,-92 250.3,-99"/>
</g>
<!-- Node15 -->
<g id="node15" class="node">
<title>Node15</title>
<g id="a_node15"><a xlink:href="structsvg_1_1transform.html#acf9836f4ba647f0dd2b53963a0f714d0" target="_top" xlink:title=" ">
<polygon fill="white" stroke="black" points="254.5,-46 254.5,-63 361.5,-63 361.5,-46 254.5,-46"/>
<text text-anchor="middle" x="308" y="-52.6" font-family="SourceSans" font-size="8.00">svg::transform::rotate</text>
</a>
</g>
</g>
<!-- Node2&#45;&gt;Node15 -->
<g id="edge19" class="edge">
<title>Node2&#45;&gt;Node15</title>
<path fill="none" stroke="midnightblue" d="M202.28,-86.91C221.8,-80.86 248.14,-72.71 269.52,-66.1"/>
<polygon fill="midnightblue" stroke="midnightblue" points="270.74,-69.38 279.26,-63.08 268.67,-62.7 270.74,-69.38"/>
</g>
<!-- Node16 -->
<g id="node16" class="node">
<title>Node16</title>
<g id="a_node16"><a xlink:href="group__elements.html#ae45bec611a6ec17ea46aab6d680ae042" target="_top" xlink:title=" ">
<polygon fill="white" stroke="black" points="260.5,-0.5 260.5,-26.5 355.5,-26.5 355.5,-0.5 260.5,-0.5"/>
<text text-anchor="start" x="268.5" y="-16.1" font-family="SourceSans" font-size="8.00">svg::text_element::</text>
<text text-anchor="middle" x="308" y="-7.1" font-family="SourceSans" font-size="8.00">start_element</text>
</a>
</g>
</g>
<!-- Node2&#45;&gt;Node16 -->
<g id="edge20" class="edge">
<title>Node2&#45;&gt;Node16</title>
<path fill="none" stroke="midnightblue" d="M184.6,-86.63C199.03,-74.27 226.72,-51.67 253,-36.5 256.43,-34.52 260.06,-32.61 263.75,-30.8"/>
<polygon fill="midnightblue" stroke="midnightblue" points="265.39,-33.9 272.97,-26.51 262.43,-27.55 265.39,-33.9"/>
</g>
<!-- Node4 -->
<g id="node4" class="node">
<title>Node4</title>
<g id="a_node4"><a xlink:href="structsvg_1_1typography.html#adbc62f74f1fed3f7c77567250f084f83" target="_top" xlink:title=" ">
<polygon fill="white" stroke="black" points="399,-193.5 399,-219.5 504,-219.5 504,-193.5 399,-193.5"/>
<text text-anchor="start" x="407" y="-209.1" font-family="SourceSans" font-size="8.00">svg::typography::add</text>
<text text-anchor="middle" x="451.5" y="-200.1" font-family="SourceSans" font-size="8.00">_attribute</text>
</a>
</g>
</g>
<!-- Node3&#45;&gt;Node4 -->
<g id="edge3" class="edge">
<title>Node3&#45;&gt;Node4</title>
<path fill="none" stroke="midnightblue" d="M355.72,-192.43C366.33,-194.01 377.74,-195.7 388.86,-197.35"/>
<polygon fill="midnightblue" stroke="midnightblue" points="388.54,-200.84 398.94,-198.85 389.57,-193.92 388.54,-200.84"/>
</g>
<!-- Node7 -->
<g id="node7" class="node">
<title>Node7</title>
<g id="a_node7"><a xlink:href="namespacesvg.html#a48ac748e89e22789d1772326a98dd7b6" target="_top" xlink:title=" ">
<polygon fill="white" stroke="black" points="543,-116 543,-133 638,-133 638,-116 543,-116"/>
<text text-anchor="middle" x="590.5" y="-122.6" font-family="SourceSans" font-size="8.00">svg::string_replace</text>
</a>
</g>
</g>
<!-- Node3&#45;&gt;Node7 -->
<g id="edge15" class="edge">
<title>Node3&#45;&gt;Node7</title>
<path fill="none" stroke="midnightblue" d="M355.6,-176.47C395.17,-168.67 453.43,-156.89 504,-145.5 517.66,-142.42 532.5,-138.86 545.92,-135.55"/>
<polygon fill="midnightblue" stroke="midnightblue" points="547,-138.88 555.87,-133.08 545.32,-132.09 547,-138.88"/>
</g>
<!-- Node11 -->
<g id="node11" class="node">
<title>Node11</title>
<g id="a_node11"><a xlink:href="group__elements.html#a53d72a7ff728ad1d4d027254530bcf3d" target="_top" xlink:title="Common transforms include rotate(180)">
<polygon fill="white" stroke="black" points="540,-310.5 540,-336.5 641,-336.5 641,-310.5 540,-310.5"/>
<text text-anchor="start" x="548" y="-326.1" font-family="SourceSans" font-size="8.00">svg::element_base::</text>
<text text-anchor="middle" x="590.5" y="-317.1" font-family="SourceSans" font-size="8.00">add_transform</text>
</a>
</g>
</g>
<!-- Node3&#45;&gt;Node11 -->
<g id="edge12" class="edge">
<title>Node3&#45;&gt;Node11</title>
<path fill="none" stroke="midnightblue" d="M335.64,-198.61C386.42,-223.59 497.07,-278.03 554.04,-306.05"/>
<polygon fill="midnightblue" stroke="midnightblue" points="552.52,-309.21 563.04,-310.48 555.61,-302.93 552.52,-309.21"/>
</g>
<!-- Node12 -->
<g id="node12" class="node">
<title>Node12</title>
<g id="a_node12"><a xlink:href="namespacesvg.html#a36b1c48ad4601b205790e3772ad0a7b6" target="_top" xlink:title=" ">
<polygon fill="white" stroke="black" points="415.5,-119 415.5,-136 487.5,-136 487.5,-119 415.5,-119"/>
<text text-anchor="middle" x="451.5" y="-125.6" font-family="SourceSans" font-size="8.00">svg::to_string</text>
</a>
</g>
</g>
<!-- Node3&#45;&gt;Node12 -->
<g id="edge16" class="edge">
<title>Node3&#45;&gt;Node12</title>
<path fill="none" stroke="midnightblue" d="M340.76,-172.48C364.43,-162.78 396.57,-149.61 419.94,-140.03"/>
<polygon fill="midnightblue" stroke="midnightblue" points="421.45,-143.19 429.38,-136.16 418.8,-136.71 421.45,-143.19"/>
</g>
<!-- Node5 -->
<g id="node5" class="node">
<title>Node5</title>
<g id="a_node5"><a xlink:href="namespacesvg_1_1constants.html#a3972655f1dfdc090ec2592d1fb37e87c" target="_top" xlink:title=" ">
<polygon fill="white" stroke="black" points="677.5,-235 677.5,-252 784.5,-252 784.5,-235 677.5,-235"/>
<text text-anchor="middle" x="731" y="-241.6" font-family="SourceSans" font-size="8.00">svg::constants::quote</text>
</a>
</g>
</g>
<!-- Node4&#45;&gt;Node5 -->
<g id="edge4" class="edge">
<title>Node4&#45;&gt;Node5</title>
<path fill="none" stroke="midnightblue" d="M504.16,-218.05C515.9,-220.42 528.35,-222.72 540,-224.5 582.24,-230.94 630.1,-235.71 667.23,-238.86"/>
<polygon fill="midnightblue" stroke="midnightblue" points="667.14,-242.37 677.4,-239.71 667.72,-235.39 667.14,-242.37"/>
</g>
<!-- Node6 -->
<g id="node6" class="node">
<title>Node6</title>
<g id="a_node6"><a xlink:href="namespacesvg_1_1constants.html#ac460bc8db60d85c3ae1cf8b1a903405e" target="_top" xlink:title="Formatting character constants.">
<polygon fill="white" stroke="black" points="677,-273 677,-290 785,-290 785,-273 677,-273"/>
<text text-anchor="middle" x="731" y="-279.6" font-family="SourceSans" font-size="8.00">svg::constants::space</text>
</a>
</g>
</g>
<!-- Node4&#45;&gt;Node6 -->
<g id="edge5" class="edge">
<title>Node4&#45;&gt;Node6</title>
<path fill="none" stroke="midnightblue" d="M479.55,-219.62C496.58,-227.46 519.19,-237.09 540,-243.5 581.44,-256.26 629.31,-265.8 666.63,-272.13"/>
<polygon fill="midnightblue" stroke="midnightblue" points="666.43,-275.65 676.87,-273.84 667.57,-268.74 666.43,-275.65"/>
</g>
<!-- Node4&#45;&gt;Node7 -->
<g id="edge6" class="edge">
<title>Node4&#45;&gt;Node7</title>
<path fill="none" stroke="midnightblue" d="M480.12,-193.36C488.12,-189.07 496.66,-183.98 504,-178.5 522.13,-164.96 520.91,-154.65 540,-142.5 543.16,-140.49 546.57,-138.66 550.07,-137.01"/>
<polygon fill="midnightblue" stroke="midnightblue" points="551.6,-140.16 559.45,-133.05 548.88,-133.72 551.6,-140.16"/>
</g>
<!-- Node8 -->
<g id="node8" class="node">
<title>Node8</title>
<g id="a_node8"><a xlink:href="structsvg_1_1typography.html#a174c1ffb4e56214d71523ffe7e422561" target="_top" xlink:title=" ">
<polygon fill="white" stroke="black" points="541.5,-152.5 541.5,-178.5 639.5,-178.5 639.5,-152.5 541.5,-152.5"/>
<text text-anchor="start" x="549.5" y="-168.1" font-family="SourceSans" font-size="8.00">svg::typography::to</text>
<text text-anchor="middle" x="590.5" y="-159.1" font-family="SourceSans" font-size="8.00">_string</text>
</a>
</g>
</g>
<!-- Node4&#45;&gt;Node8 -->
<g id="edge7" class="edge">
<title>Node4&#45;&gt;Node8</title>
<path fill="none" stroke="midnightblue" d="M496.22,-193.41C508.83,-189.64 522.73,-185.48 535.86,-181.55"/>
<polygon fill="midnightblue" stroke="midnightblue" points="537.14,-184.82 545.72,-178.6 535.14,-178.12 537.14,-184.82"/>
</g>
<!-- Node9 -->
<g id="node9" class="node">
<title>Node9</title>
<g id="a_node9"><a xlink:href="namespacesvg.html#a7363f3de9a003a4399e7ede9036299d4" target="_top" xlink:title=" ">
<polygon fill="white" stroke="black" points="554.5,-198 554.5,-215 626.5,-215 626.5,-198 554.5,-198"/>
<text text-anchor="middle" x="590.5" y="-204.6" font-family="SourceSans" font-size="8.00">svg::to_string</text>
</a>
</g>
</g>
<!-- Node4&#45;&gt;Node9 -->
<g id="edge8" class="edge">
<title>Node4&#45;&gt;Node9</title>
<path fill="none" stroke="midnightblue" d="M504.29,-206.5C517.32,-206.5 531.2,-206.5 543.89,-206.5"/>
<polygon fill="midnightblue" stroke="midnightblue" points="544.24,-210 554.24,-206.5 544.24,-203 544.24,-210"/>
</g>
<!-- Node9&#45;&gt;Node5 -->
<g id="edge9" class="edge">
<title>Node9&#45;&gt;Node5</title>
<path fill="none" stroke="midnightblue" d="M623.62,-215.08C642.85,-220.22 667.5,-226.8 688.23,-232.34"/>
<polygon fill="midnightblue" stroke="midnightblue" points="687.49,-235.77 698.05,-234.96 689.29,-229 687.49,-235.77"/>
</g>
<!-- Node9&#45;&gt;Node6 -->
<g id="edge10" class="edge">
<title>Node9&#45;&gt;Node6</title>
<path fill="none" stroke="midnightblue" d="M603.2,-215.17C619.25,-226.78 649.25,-247.54 677,-261.5 682.52,-264.28 688.51,-266.89 694.42,-269.26"/>
<polygon fill="midnightblue" stroke="midnightblue" points="693.6,-272.69 704.19,-273 696.1,-266.16 693.6,-272.69"/>
</g>
<!-- Node10 -->
<g id="node10" class="node">
<title>Node10</title>
<g id="a_node10"><a xlink:href="structsvg_1_1colorq.html#adb55a2a48193fafa55340505862278e4" target="_top" xlink:title=" ">
<polygon fill="white" stroke="black" points="679,-198 679,-215 783,-215 783,-198 679,-198"/>
<text text-anchor="middle" x="731" y="-204.6" font-family="SourceSans" font-size="8.00">svg::colorq::to_string</text>
</a>
</g>
</g>
<!-- Node9&#45;&gt;Node10 -->
<g id="edge11" class="edge">
<title>Node9&#45;&gt;Node10</title>
<path fill="none" stroke="midnightblue" d="M626.81,-206.5C639.51,-206.5 654.24,-206.5 668.53,-206.5"/>
<polygon fill="midnightblue" stroke="midnightblue" points="668.81,-210 678.81,-206.5 668.81,-203 668.81,-210"/>
</g>
<!-- Node11&#45;&gt;Node5 -->
<g id="edge13" class="edge">
<title>Node11&#45;&gt;Node5</title>
<path fill="none" stroke="midnightblue" d="M607.42,-310.48C624.03,-297.36 651.19,-277.15 677,-263.5 682.35,-260.67 688.18,-258.05 693.97,-255.7"/>
<polygon fill="midnightblue" stroke="midnightblue" points="695.48,-258.86 703.55,-252 692.96,-252.33 695.48,-258.86"/>
</g>
<!-- Node11&#45;&gt;Node6 -->
<g id="edge14" class="edge">
<title>Node11&#45;&gt;Node6</title>
<path fill="none" stroke="midnightblue" d="M634.56,-310.44C652.88,-304.89 674.07,-298.46 691.82,-293.08"/>
<polygon fill="midnightblue" stroke="midnightblue" points="693.28,-296.29 701.83,-290.04 691.25,-289.59 693.28,-296.29"/>
</g>
</g>
</svg>
        <g id="navigator" transform="translate(0 0)" fill="#404254">
                <rect fill="#f2f5e9" fill-opacity="0.5" stroke="#606060" stroke-width=".5" x="0" y="0" width="60" height="60"/>
                <use id="zoomplus" xlink:href="#zoomPlus" x="17" y="9" onmousedown="handleZoom(evt,'in')"/>
                <use id="zoomminus" xlink:href="#zoomMin" x="42" y="9" onmousedown="handleZoom(evt,'out')"/>
                <use id="reset" xlink:href="#resetDef" x="30" y="36" onmousedown="handleReset()"/>
                <g id="arrowUp" xlink:href="#dirArrow" transform="translate(30 24)" onmousedown="handlePan(0,-1)">
                  <use xlink:href="#rim" fill="#404040">
                        <set attributeName="fill" to="#808080" begin="arrowUp.mouseover" end="arrowUp.mouseout"/>
                  </use>
                  <path fill="none" stroke="white" stroke-width="1.5" d="M0,-3.0v7 M-2.5,-0.5L0,-3.0L2.5,-0.5"/>
                </g>
                <g id="arrowRight" xlink:href="#dirArrow" transform="rotate(90) translate(36 -43)" onmousedown="handlePan(1,0)">
                  <use xlink:href="#rim" fill="#404040">
                        <set attributeName="fill" to="#808080" begin="arrowRight.mouseover" end="arrowRight.mouseout"/>
                  </use>
                  <path fill="none" stroke="white" stroke-width="1.5" d="M0,-3.0v7 M-2.5,-0.5L0,-3.0L2.5,-0.5"/>
                </g>
                <g id="arrowDown" xlink:href="#dirArrow" transform="rotate(180) translate(-30 -48)" onmousedown="handlePan(0,1)">
                  <use xlink:href="#rim" fill="#404040">
                        <set attributeName="fill" to="#808080" begin="arrowDown.mouseover" end="arrowDown.mouseout"/>
                  </use>
                  <path fill="none" stroke="white" stroke-width="1.5" d="M0,-3.0v7 M-2.5,-0.5L0,-3.0L2.5,-0.5"/>
                </g>
                <g id="arrowLeft" xlink:href="#dirArrow" transform="rotate(270) translate(-36 17)" onmousedown="handlePan(-1,0)">
                  <use xlink:href="#rim" fill="#404040">
                        <set attributeName="fill" to="#808080" begin="arrowLeft.mouseover" end="arrowLeft.mouseout"/>
                  </use>
                  <path fill="none" stroke="white" stroke-width="1.5" d="M0,-3.0v7 M-2.5,-0.5L0,-3.0L2.5,-0.5"/>
                </g>
        </g>
        <svg viewBox="0 0 15 15" width="100%" height="30px" preserveAspectRatio="xMaxYMin meet">
         <g id="arrow_out" transform="scale(0.3 0.3)">
          <a xlink:href="namespacesvg_a60459e6aa2715b8a6256b64c39ee7140_cgraph_org.svg" target="_base">
           <rect id="button" ry="5" rx="5" y="6" x="6" height="38" width="38"
                fill="#f2f5e9" fill-opacity="0.5" stroke="#606060" stroke-width="1.0"/>
           <path id="arrow"
             d="M 11.500037,31.436501 C 11.940474,20.09759 22.043105,11.32322 32.158766,21.979434 L 37.068811,17.246167 C 37.068811,17.246167 37.088388,32 37.088388,32 L 22.160133,31.978069 C 22.160133,31.978069 26.997745,27.140456 26.997745,27.140456 C 18.528582,18.264221 13.291696,25.230495 11.500037,31.436501 z"
             style="fill:#404040;"/>
          </a>
         </g>
        </svg>
</svg>
